# vtk DataFile Version 3.0
SFC common-time dynamic block_block_c3d8 frame 12 t=2.400000000000e-02
ASCII
DATASET UNSTRUCTURED_GRID
POINTS 16 float
-2.500000000000e-01 -2.500000000000e-01 0.000000000000e+00
2.500000000000e-01 -2.500000000000e-01 0.000000000000e+00
-2.500000000000e-01 2.500000000000e-01 0.000000000000e+00
2.500000000000e-01 2.500000000000e-01 0.000000000000e+00
-2.500000000000e-01 -2.500000000000e-01 2.400000000000e-01
2.500000000000e-01 -2.500000000000e-01 2.400000000000e-01
-2.500000000000e-01 2.500000000000e-01 2.400000000000e-01
2.500000000000e-01 2.500000000000e-01 2.400000000000e-01
-2.500000000000e-01 -2.500000000000e-01 2.449747200000e-01
2.500000000000e-01 -2.500000000000e-01 2.449747200000e-01
-2.500000000000e-01 2.500000000000e-01 2.449747200000e-01
2.500000000000e-01 2.500000000000e-01 2.449747200000e-01
-2.500000000000e-01 -2.500000000000e-01 5.049747200000e-01
2.500000000000e-01 -2.500000000000e-01 5.049747200000e-01
-2.500000000000e-01 2.500000000000e-01 5.049747200000e-01
2.500000000000e-01 2.500000000000e-01 5.049747200000e-01
CELLS 2 18
8 0 1 3 2 4 5 7 6
8 8 9 11 10 12 13 15 14
CELL_TYPES 2
12
12
POINT_DATA 16
VECTORS displacement float
0.000000000000e+00 0.000000000000e+00 0.000000000000e+00
0.000000000000e+00 0.000000000000e+00 0.000000000000e+00
0.000000000000e+00 0.000000000000e+00 0.000000000000e+00
0.000000000000e+00 0.000000000000e+00 0.000000000000e+00
0.000000000000e+00 0.000000000000e+00 0.000000000000e+00
0.000000000000e+00 0.000000000000e+00 0.000000000000e+00
0.000000000000e+00 0.000000000000e+00 0.000000000000e+00
0.000000000000e+00 0.000000000000e+00 0.000000000000e+00
6.520279295522e-17 -1.189797179197e-16 -1.002528000000e-02
6.447377265837e-17 -1.148942054618e-16 -1.002528000000e-02
1.012890021878e-16 -1.200150923858e-16 -1.002528000000e-02
1.002290025986e-16 -1.135709744232e-16 -1.002528000000e-02
-1.409534491753e-16 1.493934780476e-16 -1.002528000000e-02
-1.465516677317e-16 1.125811824349e-16 -1.002528000000e-02
-1.478296831990e-16 1.475591441014e-16 -1.002528000000e-02
-1.480341200718e-16 1.147969330342e-16 -1.002528000000e-02
SCALARS displacement_magnitude float 1
LOOKUP_TABLE default
0.000000000000e+00
0.000000000000e+00
0.000000000000e+00
0.000000000000e+00
0.000000000000e+00
0.000000000000e+00
0.000000000000e+00
0.000000000000e+00
1.002528000000e-02
1.002528000000e-02
1.002528000000e-02
1.002528000000e-02
1.002528000000e-02
1.002528000000e-02
1.002528000000e-02
1.002528000000e-02
CELL_DATA 2
SCALARS displacement_magnitude float 1
LOOKUP_TABLE default
0.000000000000e+00
1.002528000000e-02
SCALARS engineering_strain_norm float 1
LOOKUP_TABLE default
0.000000000000e+00
7.904413350072e-18
SCALARS von_mises float 1
LOOKUP_TABLE default
0.000000000000e+00
5.534193353220e-13
