# vtk DataFile Version 3.0
SFC common-time dynamic block_block_c3d8 frame 16 t=3.200000000000e-02
ASCII
DATASET UNSTRUCTURED_GRID
POINTS 16 float
-2.500000000000e-01 -2.500000000000e-01 0.000000000000e+00
2.500000000000e-01 -2.500000000000e-01 0.000000000000e+00
-2.500000000000e-01 2.500000000000e-01 0.000000000000e+00
2.500000000000e-01 2.500000000000e-01 0.000000000000e+00
-2.500000000000e-01 -2.500000000000e-01 2.400000000000e-01
2.500000000000e-01 -2.500000000000e-01 2.400000000000e-01
-2.500000000000e-01 2.500000000000e-01 2.400000000000e-01
2.500000000000e-01 2.500000000000e-01 2.400000000000e-01
-2.500000000000e-01 -2.500000000000e-01 2.403772800000e-01
2.500000000000e-01 -2.500000000000e-01 2.403772800000e-01
-2.500000000000e-01 2.500000000000e-01 2.403772800000e-01
2.500000000000e-01 2.500000000000e-01 2.403772800000e-01
-2.500000000000e-01 -2.500000000000e-01 5.003772800000e-01
2.500000000000e-01 -2.500000000000e-01 5.003772800000e-01
-2.500000000000e-01 2.500000000000e-01 5.003772800000e-01
2.500000000000e-01 2.500000000000e-01 5.003772800000e-01
CELLS 2 18
8 0 1 3 2 4 5 7 6
8 8 9 11 10 12 13 15 14
CELL_TYPES 2
12
12
POINT_DATA 16
VECTORS displacement float
0.000000000000e+00 0.000000000000e+00 0.000000000000e+00
0.000000000000e+00 0.000000000000e+00 0.000000000000e+00
0.000000000000e+00 0.000000000000e+00 0.000000000000e+00
0.000000000000e+00 0.000000000000e+00 0.000000000000e+00
0.000000000000e+00 0.000000000000e+00 0.000000000000e+00
0.000000000000e+00 0.000000000000e+00 0.000000000000e+00
0.000000000000e+00 0.000000000000e+00 0.000000000000e+00
0.000000000000e+00 0.000000000000e+00 0.000000000000e+00
1.315633190985e-16 -1.881097062034e-16 -1.462272000000e-02
1.263514093596e-16 -2.337510978598e-16 -1.462272000000e-02
1.961494494632e-16 -1.875112202095e-16 -1.462272000000e-02
2.025555409697e-16 -2.371040502903e-16 -1.462272000000e-02
-3.236438146254e-16 2.885777673390e-16 -1.462272000000e-02
-3.162943338277e-16 2.156327654807e-16 -1.462272000000e-02
-2.594361202954e-16 2.913814674815e-16 -1.462272000000e-02
-2.645046420582e-16 2.188181170021e-16 -1.462272000000e-02
SCALARS displacement_magnitude float 1
LOOKUP_TABLE default
0.000000000000e+00
0.000000000000e+00
0.000000000000e+00
0.000000000000e+00
0.000000000000e+00
0.000000000000e+00
0.000000000000e+00
0.000000000000e+00
1.462272000000e-02
1.462272000000e-02
1.462272000000e-02
1.462272000000e-02
1.462272000000e-02
1.462272000000e-02
1.462272000000e-02
1.462272000000e-02
CELL_DATA 2
SCALARS displacement_magnitude float 1
LOOKUP_TABLE default
0.000000000000e+00
1.462272000000e-02
SCALARS engineering_strain_norm float 1
LOOKUP_TABLE default
0.000000000000e+00
1.316299816437e-17
SCALARS von_mises float 1
LOOKUP_TABLE default
0.000000000000e+00
9.507924245927e-13
