# vtk DataFile Version 3.0
SFC common-time dynamic block_block_c3d8 frame 26 t=5.200000000000e-02
ASCII
DATASET UNSTRUCTURED_GRID
POINTS 16 float
-2.500000000000e-01 -2.500000000000e-01 0.000000000000e+00
2.500000000000e-01 -2.500000000000e-01 0.000000000000e+00
-2.500000000000e-01 2.500000000000e-01 0.000000000000e+00
2.500000000000e-01 2.500000000000e-01 0.000000000000e+00
-2.500000000000e-01 -2.500000000000e-01 2.400000000000e-01
2.500000000000e-01 -2.500000000000e-01 2.400000000000e-01
-2.500000000000e-01 2.500000000000e-01 2.400000000000e-01
2.500000000000e-01 2.500000000000e-01 2.400000000000e-01
-2.499995477624e-01 -2.499995477624e-01 2.464093267735e-01
2.499995477624e-01 -2.499995477624e-01 2.464093267735e-01
-2.499995477624e-01 2.499995477624e-01 2.464093267735e-01
2.499995477624e-01 2.499995477624e-01 2.464093267735e-01
-2.499995477624e-01 -2.499995477624e-01 5.064099445936e-01
2.499995477624e-01 -2.499995477624e-01 5.064099445936e-01
-2.499995477624e-01 2.499995477624e-01 5.064099445936e-01
2.499995477624e-01 2.499995477624e-01 5.064099445936e-01
CELLS 2 18
8 0 1 3 2 4 5 7 6
8 8 9 11 10 12 13 15 14
CELL_TYPES 2
12
12
POINT_DATA 16
VECTORS displacement float
0.000000000000e+00 0.000000000000e+00 0.000000000000e+00
0.000000000000e+00 0.000000000000e+00 0.000000000000e+00
0.000000000000e+00 0.000000000000e+00 0.000000000000e+00
0.000000000000e+00 0.000000000000e+00 0.000000000000e+00
0.000000000000e+00 0.000000000000e+00 0.000000000000e+00
0.000000000000e+00 0.000000000000e+00 0.000000000000e+00
0.000000000000e+00 0.000000000000e+00 0.000000000000e+00
0.000000000000e+00 0.000000000000e+00 0.000000000000e+00
4.522376178504e-07 4.522376197598e-07 -8.590673226529e-03
-4.522376201274e-07 4.522376196474e-07 -8.590673226533e-03
4.522376179259e-07 -4.522376182226e-07 -8.590673226526e-03
-4.522376200602e-07 -4.522376183307e-07 -8.590673226530e-03
4.522376196874e-07 4.522376183795e-07 -8.590055406421e-03
-4.522376182908e-07 4.522376183022e-07 -8.590055406425e-03
4.522376197924e-07 -4.522376196056e-07 -8.590055406418e-03
-4.522376181932e-07 -4.522376196733e-07 -8.590055406422e-03
SCALARS displacement_magnitude float 1
LOOKUP_TABLE default
0.000000000000e+00
0.000000000000e+00
0.000000000000e+00
0.000000000000e+00
0.000000000000e+00
0.000000000000e+00
0.000000000000e+00
0.000000000000e+00
8.590673250336e-03
8.590673250340e-03
8.590673250334e-03
8.590673250337e-03
8.590055430230e-03
8.590055430233e-03
8.590055430227e-03
8.590055430231e-03
CELL_DATA 2
SCALARS displacement_magnitude float 1
LOOKUP_TABLE default
0.000000000000e+00
8.590364340283e-03
SCALARS engineering_strain_norm float 1
LOOKUP_TABLE default
0.000000000000e+00
3.491572467125e-06
SCALARS von_mises float 1
LOOKUP_TABLE default
0.000000000000e+00
3.219370508376e-01
