# vtk DataFile Version 3.0
SFC common-time dynamic block_block_c3d8 frame 8 t=1.600000000000e-02
ASCII
DATASET UNSTRUCTURED_GRID
POINTS 16 float
-2.500000000000e-01 -2.500000000000e-01 0.000000000000e+00
2.500000000000e-01 -2.500000000000e-01 0.000000000000e+00
-2.500000000000e-01 2.500000000000e-01 0.000000000000e+00
2.500000000000e-01 2.500000000000e-01 0.000000000000e+00
-2.500000000000e-01 -2.500000000000e-01 2.400000000000e-01
2.500000000000e-01 -2.500000000000e-01 2.400000000000e-01
-2.500000000000e-01 2.500000000000e-01 2.400000000000e-01
2.500000000000e-01 2.500000000000e-01 2.400000000000e-01
-2.500000000000e-01 -2.500000000000e-01 2.489443200000e-01
2.500000000000e-01 -2.500000000000e-01 2.489443200000e-01
-2.500000000000e-01 2.500000000000e-01 2.489443200000e-01
2.500000000000e-01 2.500000000000e-01 2.489443200000e-01
-2.500000000000e-01 -2.500000000000e-01 5.089443200000e-01
2.500000000000e-01 -2.500000000000e-01 5.089443200000e-01
-2.500000000000e-01 2.500000000000e-01 5.089443200000e-01
2.500000000000e-01 2.500000000000e-01 5.089443200000e-01
CELLS 2 18
8 0 1 3 2 4 5 7 6
8 8 9 11 10 12 13 15 14
CELL_TYPES 2
12
12
POINT_DATA 16
VECTORS displacement float
0.000000000000e+00 0.000000000000e+00 0.000000000000e+00
0.000000000000e+00 0.000000000000e+00 0.000000000000e+00
0.000000000000e+00 0.000000000000e+00 0.000000000000e+00
0.000000000000e+00 0.000000000000e+00 0.000000000000e+00
0.000000000000e+00 0.000000000000e+00 0.000000000000e+00
0.000000000000e+00 0.000000000000e+00 0.000000000000e+00
0.000000000000e+00 0.000000000000e+00 0.000000000000e+00
0.000000000000e+00 0.000000000000e+00 0.000000000000e+00
2.633512631777e-17 -1.973070282567e-17 -6.055680000000e-03
2.772279570449e-17 -2.554823074527e-17 -6.055680000000e-03
3.351289267305e-17 -2.182923018848e-17 -6.055680000000e-03
3.061431960615e-17 -2.448930676629e-17 -6.055680000000e-03
-4.733060345263e-17 3.043700656187e-17 -6.055680000000e-03
-4.545603795710e-17 2.435947744246e-17 -6.055680000000e-03
-4.318555711106e-17 2.858174032336e-17 -6.055680000000e-03
-4.478168937769e-17 2.650205736045e-17 -6.055680000000e-03
SCALARS displacement_magnitude float 1
LOOKUP_TABLE default
0.000000000000e+00
0.000000000000e+00
0.000000000000e+00
0.000000000000e+00
0.000000000000e+00
0.000000000000e+00
0.000000000000e+00
0.000000000000e+00
6.055680000000e-03
6.055680000000e-03
6.055680000000e-03
6.055680000000e-03
6.055680000000e-03
6.055680000000e-03
6.055680000000e-03
6.055680000000e-03
CELL_DATA 2
SCALARS displacement_magnitude float 1
LOOKUP_TABLE default
0.000000000000e+00
6.055680000000e-03
SCALARS engineering_strain_norm float 1
LOOKUP_TABLE default
0.000000000000e+00
2.604342773687e-18
SCALARS von_mises float 1
LOOKUP_TABLE default
0.000000000000e+00
1.597481661269e-13
