# vtk DataFile Version 3.0
SFC common-time dynamic block_block_c3d8 frame 22 t=4.400000000000e-02
ASCII
DATASET UNSTRUCTURED_GRID
POINTS 16 float
-2.500000000000e-01 -2.500000000000e-01 0.000000000000e+00
2.500000000000e-01 -2.500000000000e-01 0.000000000000e+00
-2.500000000000e-01 2.500000000000e-01 0.000000000000e+00
2.500000000000e-01 2.500000000000e-01 0.000000000000e+00
-2.500000000000e-01 -2.500000000000e-01 2.400000000000e-01
2.500000000000e-01 -2.500000000000e-01 2.400000000000e-01
-2.500000000000e-01 2.500000000000e-01 2.400000000000e-01
2.500000000000e-01 2.500000000000e-01 2.400000000000e-01
-2.500000495688e-01 -2.500000495688e-01 2.420813809136e-01
2.500000495688e-01 -2.500000495688e-01 2.420813809136e-01
-2.500000495688e-01 2.500000495688e-01 2.420813809136e-01
2.500000495688e-01 2.500000495688e-01 2.420813809136e-01
-2.500000495688e-01 -2.500000495688e-01 5.020780412433e-01
2.500000495688e-01 -2.500000495688e-01 5.020780412433e-01
-2.500000495688e-01 2.500000495688e-01 5.020780412433e-01
2.500000495688e-01 2.500000495688e-01 5.020780412433e-01
CELLS 2 18
8 0 1 3 2 4 5 7 6
8 8 9 11 10 12 13 15 14
CELL_TYPES 2
12
12
POINT_DATA 16
VECTORS displacement float
0.000000000000e+00 0.000000000000e+00 0.000000000000e+00
0.000000000000e+00 0.000000000000e+00 0.000000000000e+00
0.000000000000e+00 0.000000000000e+00 0.000000000000e+00
0.000000000000e+00 0.000000000000e+00 0.000000000000e+00
0.000000000000e+00 0.000000000000e+00 0.000000000000e+00
0.000000000000e+00 0.000000000000e+00 0.000000000000e+00
0.000000000000e+00 0.000000000000e+00 0.000000000000e+00
0.000000000000e+00 0.000000000000e+00 0.000000000000e+00
-4.956879403186e-08 -4.956879306352e-08 -1.291861908639e-02
4.956879297778e-08 -4.956879317791e-08 -1.291861908639e-02
-4.956879400602e-08 4.956879394128e-08 -1.291861908638e-02
4.956879300609e-08 4.956879383413e-08 -1.291861908639e-02
-4.956879327041e-08 -4.956879381085e-08 -1.292195875673e-02
4.956879373977e-08 -4.956879383684e-08 -1.292195875673e-02
-4.956879315948e-08 4.956879320109e-08 -1.292195875672e-02
4.956879384917e-08 4.956879316658e-08 -1.292195875673e-02
SCALARS displacement_magnitude float 1
LOOKUP_TABLE default
0.000000000000e+00
0.000000000000e+00
0.000000000000e+00
0.000000000000e+00
0.000000000000e+00
0.000000000000e+00
0.000000000000e+00
0.000000000000e+00
1.291861908658e-02
1.291861908658e-02
1.291861908657e-02
1.291861908658e-02
1.292195875692e-02
1.292195875692e-02
1.292195875691e-02
1.292195875692e-02
CELL_DATA 2
SCALARS displacement_magnitude float 1
LOOKUP_TABLE default
0.000000000000e+00
1.292028892175e-02
SCALARS engineering_strain_norm float 1
LOOKUP_TABLE default
0.000000000000e+00
1.284794616079e-05
SCALARS von_mises float 1
LOOKUP_TABLE default
0.000000000000e+00
1.003320084645e+00
