# vtk DataFile Version 3.0
SFC common-time dynamic block_block_c3d8 frame 5 t=1.000000000000e-02
ASCII
DATASET UNSTRUCTURED_GRID
POINTS 16 float
-2.500000000000e-01 -2.500000000000e-01 0.000000000000e+00
2.500000000000e-01 -2.500000000000e-01 0.000000000000e+00
-2.500000000000e-01 2.500000000000e-01 0.000000000000e+00
2.500000000000e-01 2.500000000000e-01 0.000000000000e+00
-2.500000000000e-01 -2.500000000000e-01 2.400000000000e-01
2.500000000000e-01 -2.500000000000e-01 2.400000000000e-01
-2.500000000000e-01 2.500000000000e-01 2.400000000000e-01
2.500000000000e-01 2.500000000000e-01 2.400000000000e-01
-2.500000000000e-01 -2.500000000000e-01 2.515095000000e-01
2.500000000000e-01 -2.500000000000e-01 2.515095000000e-01
-2.500000000000e-01 2.500000000000e-01 2.515095000000e-01
2.500000000000e-01 2.500000000000e-01 2.515095000000e-01
-2.500000000000e-01 -2.500000000000e-01 5.115095000000e-01
2.500000000000e-01 -2.500000000000e-01 5.115095000000e-01
-2.500000000000e-01 2.500000000000e-01 5.115095000000e-01
2.500000000000e-01 2.500000000000e-01 5.115095000000e-01
CELLS 2 18
8 0 1 3 2 4 5 7 6
8 8 9 11 10 12 13 15 14
CELL_TYPES 2
12
12
POINT_DATA 16
VECTORS displacement float
0.000000000000e+00 0.000000000000e+00 0.000000000000e+00
0.000000000000e+00 0.000000000000e+00 0.000000000000e+00
0.000000000000e+00 0.000000000000e+00 0.000000000000e+00
0.000000000000e+00 0.000000000000e+00 0.000000000000e+00
0.000000000000e+00 0.000000000000e+00 0.000000000000e+00
0.000000000000e+00 0.000000000000e+00 0.000000000000e+00
0.000000000000e+00 0.000000000000e+00 0.000000000000e+00
0.000000000000e+00 0.000000000000e+00 0.000000000000e+00
1.572204953416e-17 1.688569393236e-18 -3.490500000000e-03
1.683907828103e-17 -2.091320034337e-18 -3.490500000000e-03
1.347731070192e-17 1.480814634866e-18 -3.490500000000e-03
1.204219113121e-17 -1.910426978605e-18 -3.490500000000e-03
-1.696316265084e-17 -1.818570069903e-18 -3.490500000000e-03
-1.709108500445e-17 9.898717199982e-19 -3.490500000000e-03
-1.359647398988e-17 -2.789276664782e-18 -3.490500000000e-03
-1.302612184535e-17 1.799467023806e-18 -3.490500000000e-03
SCALARS displacement_magnitude float 1
LOOKUP_TABLE default
0.000000000000e+00
0.000000000000e+00
0.000000000000e+00
0.000000000000e+00
0.000000000000e+00
0.000000000000e+00
0.000000000000e+00
0.000000000000e+00
3.490500000000e-03
3.490500000000e-03
3.490500000000e-03
3.490500000000e-03
3.490500000000e-03
3.490500000000e-03
3.490500000000e-03
3.490500000000e-03
CELL_DATA 2
SCALARS displacement_magnitude float 1
LOOKUP_TABLE default
0.000000000000e+00
3.490500000000e-03
SCALARS engineering_strain_norm float 1
LOOKUP_TABLE default
0.000000000000e+00
1.377982952056e-18
SCALARS von_mises float 1
LOOKUP_TABLE default
0.000000000000e+00
9.402139013434e-14
