# vtk DataFile Version 3.0
SFC common-time dynamic block_block_c3d8 frame 13 t=2.600000000000e-02
ASCII
DATASET UNSTRUCTURED_GRID
POINTS 16 float
-2.500000000000e-01 -2.500000000000e-01 0.000000000000e+00
2.500000000000e-01 -2.500000000000e-01 0.000000000000e+00
-2.500000000000e-01 2.500000000000e-01 0.000000000000e+00
2.500000000000e-01 2.500000000000e-01 0.000000000000e+00
-2.500000000000e-01 -2.500000000000e-01 2.400000000000e-01
2.500000000000e-01 -2.500000000000e-01 2.400000000000e-01
-2.500000000000e-01 2.500000000000e-01 2.400000000000e-01
2.500000000000e-01 2.500000000000e-01 2.400000000000e-01
-2.500000000000e-01 -2.500000000000e-01 2.438842200000e-01
2.500000000000e-01 -2.500000000000e-01 2.438842200000e-01
-2.500000000000e-01 2.500000000000e-01 2.438842200000e-01
2.500000000000e-01 2.500000000000e-01 2.438842200000e-01
-2.500000000000e-01 -2.500000000000e-01 5.038842200000e-01
2.500000000000e-01 -2.500000000000e-01 5.038842200000e-01
-2.500000000000e-01 2.500000000000e-01 5.038842200000e-01
2.500000000000e-01 2.500000000000e-01 5.038842200000e-01
CELLS 2 18
8 0 1 3 2 4 5 7 6
8 8 9 11 10 12 13 15 14
CELL_TYPES 2
12
12
POINT_DATA 16
VECTORS displacement float
0.000000000000e+00 0.000000000000e+00 0.000000000000e+00
0.000000000000e+00 0.000000000000e+00 0.000000000000e+00
0.000000000000e+00 0.000000000000e+00 0.000000000000e+00
0.000000000000e+00 0.000000000000e+00 0.000000000000e+00
0.000000000000e+00 0.000000000000e+00 0.000000000000e+00
0.000000000000e+00 0.000000000000e+00 0.000000000000e+00
0.000000000000e+00 0.000000000000e+00 0.000000000000e+00
0.000000000000e+00 0.000000000000e+00 0.000000000000e+00
1.068896830563e-16 -1.143983830151e-16 -1.111578000000e-02
1.099076990009e-16 -1.594448948849e-16 -1.111578000000e-02
9.982517106137e-17 -1.182264365692e-16 -1.111578000000e-02
9.930109147861e-17 -1.559123127576e-16 -1.111578000000e-02
-2.100584816071e-16 1.543504792340e-16 -1.111578000000e-02
-2.056653051108e-16 1.591726215742e-16 -1.111578000000e-02
-1.536554256679e-16 1.565689169031e-16 -1.111578000000e-02
-1.577074933409e-16 1.604769382642e-16 -1.111578000000e-02
SCALARS displacement_magnitude float 1
LOOKUP_TABLE default
0.000000000000e+00
0.000000000000e+00
0.000000000000e+00
0.000000000000e+00
0.000000000000e+00
0.000000000000e+00
0.000000000000e+00
0.000000000000e+00
1.111578000000e-02
1.111578000000e-02
1.111578000000e-02
1.111578000000e-02
1.111578000000e-02
1.111578000000e-02
1.111578000000e-02
1.111578000000e-02
CELL_DATA 2
SCALARS displacement_magnitude float 1
LOOKUP_TABLE default
0.000000000000e+00
1.111578000000e-02
SCALARS engineering_strain_norm float 1
LOOKUP_TABLE default
0.000000000000e+00
7.611493380393e-18
SCALARS von_mises float 1
LOOKUP_TABLE default
0.000000000000e+00
5.347542735049e-13
