# vtk DataFile Version 3.0
SFC common-time dynamic block_block_c3d8 frame 38 t=7.600000000000e-02
ASCII
DATASET UNSTRUCTURED_GRID
POINTS 16 float
-2.500000000000e-01 -2.500000000000e-01 0.000000000000e+00
2.500000000000e-01 -2.500000000000e-01 0.000000000000e+00
-2.500000000000e-01 2.500000000000e-01 0.000000000000e+00
2.500000000000e-01 2.500000000000e-01 0.000000000000e+00
-2.500000000000e-01 -2.500000000000e-01 2.400000000000e-01
2.500000000000e-01 -2.500000000000e-01 2.400000000000e-01
-2.500000000000e-01 2.500000000000e-01 2.400000000000e-01
2.500000000000e-01 2.500000000000e-01 2.400000000000e-01
-2.500000324451e-01 -2.500000324451e-01 2.556340195286e-01
2.500000324451e-01 -2.500000324451e-01 2.556340195286e-01
-2.500000324451e-01 2.500000324451e-01 2.556340195287e-01
2.500000324451e-01 2.500000324451e-01 2.556340195286e-01
-2.500000324451e-01 -2.500000324451e-01 5.156307194689e-01
2.500000324451e-01 -2.500000324451e-01 5.156307194689e-01
-2.500000324451e-01 2.500000324451e-01 5.156307194689e-01
2.500000324451e-01 2.500000324451e-01 5.156307194689e-01
CELLS 2 18
8 0 1 3 2 4 5 7 6
8 8 9 11 10 12 13 15 14
CELL_TYPES 2
12
12
POINT_DATA 16
VECTORS displacement float
0.000000000000e+00 0.000000000000e+00 0.000000000000e+00
0.000000000000e+00 0.000000000000e+00 0.000000000000e+00
0.000000000000e+00 0.000000000000e+00 0.000000000000e+00
0.000000000000e+00 0.000000000000e+00 0.000000000000e+00
0.000000000000e+00 0.000000000000e+00 0.000000000000e+00
0.000000000000e+00 0.000000000000e+00 0.000000000000e+00
0.000000000000e+00 0.000000000000e+00 0.000000000000e+00
0.000000000000e+00 0.000000000000e+00 0.000000000000e+00
-3.244508123388e-08 -3.244507662576e-08 6.340195286430e-04
3.244507596159e-08 -3.244507685792e-08 6.340195286347e-04
-3.244508101213e-08 3.244508056872e-08 6.340195286500e-04
3.244507617852e-08 3.244508033217e-08 6.340195286417e-04
-3.244507694121e-08 -3.244508028538e-08 6.307194688903e-04
3.244508024879e-08 -3.244508050494e-08 6.307194688821e-04
-3.244507670264e-08 3.244507690995e-08 6.307194688974e-04
3.244508048612e-08 3.244507668608e-08 6.307194688891e-04
SCALARS displacement_magnitude float 1
LOOKUP_TABLE default
0.000000000000e+00
0.000000000000e+00
0.000000000000e+00
0.000000000000e+00
0.000000000000e+00
0.000000000000e+00
0.000000000000e+00
0.000000000000e+00
6.340195303033e-04
6.340195302951e-04
6.340195303104e-04
6.340195303021e-04
6.307194705593e-04
6.307194705511e-04
6.307194705664e-04
6.307194705581e-04
CELL_DATA 2
SCALARS displacement_magnitude float 1
LOOKUP_TABLE default
0.000000000000e+00
6.323695004307e-04
SCALARS engineering_strain_norm float 1
LOOKUP_TABLE default
0.000000000000e+00
1.269386443555e-05
SCALARS von_mises float 1
LOOKUP_TABLE default
0.000000000000e+00
9.863321403537e-01
