# vtk DataFile Version 3.0
SFC native dynamic block_block_c3d8 frame 14 t=2.800000000000e-02
ASCII
DATASET UNSTRUCTURED_GRID
POINTS 16 float
-2.500000000000e-01 -2.500000000000e-01 0.000000000000e+00
2.500000000000e-01 -2.500000000000e-01 0.000000000000e+00
-2.500000000000e-01 2.500000000000e-01 0.000000000000e+00
2.500000000000e-01 2.500000000000e-01 0.000000000000e+00
-2.500000000000e-01 -2.500000000000e-01 2.400000000000e-01
2.500000000000e-01 -2.500000000000e-01 2.400000000000e-01
-2.500000000000e-01 2.500000000000e-01 2.400000000000e-01
2.500000000000e-01 2.500000000000e-01 2.400000000000e-01
-2.500000000000e-01 -2.500000000000e-01 2.427544800000e-01
2.500000000000e-01 -2.500000000000e-01 2.427544800000e-01
-2.500000000000e-01 2.500000000000e-01 2.427544800000e-01
2.500000000000e-01 2.500000000000e-01 2.427544800000e-01
-2.500000000000e-01 -2.500000000000e-01 5.027544800000e-01
2.500000000000e-01 -2.500000000000e-01 5.027544800000e-01
-2.500000000000e-01 2.500000000000e-01 5.027544800000e-01
2.500000000000e-01 2.500000000000e-01 5.027544800000e-01
CELLS 2 18
8 0 1 3 2 4 5 7 6
8 8 9 11 10 12 13 15 14
CELL_TYPES 2
12
12
POINT_DATA 16
VECTORS displacement float
0.000000000000e+00 0.000000000000e+00 0.000000000000e+00
0.000000000000e+00 0.000000000000e+00 0.000000000000e+00
0.000000000000e+00 0.000000000000e+00 0.000000000000e+00
0.000000000000e+00 0.000000000000e+00 0.000000000000e+00
0.000000000000e+00 0.000000000000e+00 0.000000000000e+00
0.000000000000e+00 0.000000000000e+00 0.000000000000e+00
0.000000000000e+00 0.000000000000e+00 0.000000000000e+00
0.000000000000e+00 0.000000000000e+00 0.000000000000e+00
1.188686385721e-16 -1.292139592655e-16 -1.224552000000e-02
1.184825703881e-16 -1.791486822151e-16 -1.224552000000e-02
1.346774772213e-16 -1.296557952169e-16 -1.224552000000e-02
1.357615731691e-16 -1.785537900953e-16 -1.224552000000e-02
-2.410435966047e-16 1.923734634869e-16 -1.224552000000e-02
-2.456267405615e-16 1.763066651608e-16 -1.224552000000e-02
-1.987555306478e-16 1.938741270094e-16 -1.224552000000e-02
-1.944838208242e-16 1.698637656314e-16 -1.224552000000e-02
SCALARS displacement_magnitude float 1
LOOKUP_TABLE default
0.000000000000e+00
0.000000000000e+00
0.000000000000e+00
0.000000000000e+00
0.000000000000e+00
0.000000000000e+00
0.000000000000e+00
0.000000000000e+00
1.224552000000e-02
1.224552000000e-02
1.224552000000e-02
1.224552000000e-02
1.224552000000e-02
1.224552000000e-02
1.224552000000e-02
1.224552000000e-02
CELL_DATA 2
SCALARS displacement_magnitude float 1
LOOKUP_TABLE default
0.000000000000e+00
1.224552000000e-02
SCALARS engineering_strain_norm float 1
LOOKUP_TABLE default
0.000000000000e+00
1.098523549117e-17
SCALARS von_mises float 1
LOOKUP_TABLE default
0.000000000000e+00
7.809067973734e-13
