# vtk DataFile Version 3.0
SFC native dynamic block_block_c3d8 frame 10 t=2.000000000000e-02
ASCII
DATASET UNSTRUCTURED_GRID
POINTS 16 float
-2.500000000000e-01 -2.500000000000e-01 0.000000000000e+00
2.500000000000e-01 -2.500000000000e-01 0.000000000000e+00
-2.500000000000e-01 2.500000000000e-01 0.000000000000e+00
2.500000000000e-01 2.500000000000e-01 0.000000000000e+00
-2.500000000000e-01 -2.500000000000e-01 2.400000000000e-01
2.500000000000e-01 -2.500000000000e-01 2.400000000000e-01
-2.500000000000e-01 2.500000000000e-01 2.400000000000e-01
2.500000000000e-01 2.500000000000e-01 2.400000000000e-01
-2.500000000000e-01 -2.500000000000e-01 2.470380000000e-01
2.500000000000e-01 -2.500000000000e-01 2.470380000000e-01
-2.500000000000e-01 2.500000000000e-01 2.470380000000e-01
2.500000000000e-01 2.500000000000e-01 2.470380000000e-01
-2.500000000000e-01 -2.500000000000e-01 5.070380000000e-01
2.500000000000e-01 -2.500000000000e-01 5.070380000000e-01
-2.500000000000e-01 2.500000000000e-01 5.070380000000e-01
2.500000000000e-01 2.500000000000e-01 5.070380000000e-01
CELLS 2 18
8 0 1 3 2 4 5 7 6
8 8 9 11 10 12 13 15 14
CELL_TYPES 2
12
12
POINT_DATA 16
VECTORS displacement float
0.000000000000e+00 0.000000000000e+00 0.000000000000e+00
0.000000000000e+00 0.000000000000e+00 0.000000000000e+00
0.000000000000e+00 0.000000000000e+00 0.000000000000e+00
0.000000000000e+00 0.000000000000e+00 0.000000000000e+00
0.000000000000e+00 0.000000000000e+00 0.000000000000e+00
0.000000000000e+00 0.000000000000e+00 0.000000000000e+00
0.000000000000e+00 0.000000000000e+00 0.000000000000e+00
0.000000000000e+00 0.000000000000e+00 0.000000000000e+00
4.838882195077e-17 -5.012111710876e-17 -7.962000000000e-03
5.041219793259e-17 -7.141337258440e-17 -7.962000000000e-03
5.274688357725e-17 -5.379728434782e-17 -7.962000000000e-03
5.025032758726e-17 -6.766610700298e-17 -7.962000000000e-03
-9.569225246870e-17 7.035616720483e-17 -7.962000000000e-03
-9.637906108441e-17 6.455134080944e-17 -7.962000000000e-03
-7.634445329231e-17 6.753374741658e-17 -7.962000000000e-03
-7.506741856969e-17 6.829512087451e-17 -7.962000000000e-03
SCALARS displacement_magnitude float 1
LOOKUP_TABLE default
0.000000000000e+00
0.000000000000e+00
0.000000000000e+00
0.000000000000e+00
0.000000000000e+00
0.000000000000e+00
0.000000000000e+00
0.000000000000e+00
7.962000000000e-03
7.962000000000e-03
7.962000000000e-03
7.962000000000e-03
7.962000000000e-03
7.962000000000e-03
7.962000000000e-03
7.962000000000e-03
CELL_DATA 2
SCALARS displacement_magnitude float 1
LOOKUP_TABLE default
0.000000000000e+00
7.962000000000e-03
SCALARS engineering_strain_norm float 1
LOOKUP_TABLE default
0.000000000000e+00
3.370426076880e-18
SCALARS von_mises float 1
LOOKUP_TABLE default
0.000000000000e+00
2.336038127817e-13
