# vtk DataFile Version 3.0
SFC native dynamic block_block_c3d8 frame 6 t=1.200000000000e-02
ASCII
DATASET UNSTRUCTURED_GRID
POINTS 16 float
-2.500000000000e-01 -2.500000000000e-01 0.000000000000e+00
2.500000000000e-01 -2.500000000000e-01 0.000000000000e+00
-2.500000000000e-01 2.500000000000e-01 0.000000000000e+00
2.500000000000e-01 2.500000000000e-01 0.000000000000e+00
-2.500000000000e-01 -2.500000000000e-01 2.400000000000e-01
2.500000000000e-01 -2.500000000000e-01 2.400000000000e-01
-2.500000000000e-01 2.500000000000e-01 2.400000000000e-01
2.500000000000e-01 2.500000000000e-01 2.400000000000e-01
-2.500000000000e-01 -2.500000000000e-01 2.506936800000e-01
2.500000000000e-01 -2.500000000000e-01 2.506936800000e-01
-2.500000000000e-01 2.500000000000e-01 2.506936800000e-01
2.500000000000e-01 2.500000000000e-01 2.506936800000e-01
-2.500000000000e-01 -2.500000000000e-01 5.106936800000e-01
2.500000000000e-01 -2.500000000000e-01 5.106936800000e-01
-2.500000000000e-01 2.500000000000e-01 5.106936800000e-01
2.500000000000e-01 2.500000000000e-01 5.106936800000e-01
CELLS 2 18
8 0 1 3 2 4 5 7 6
8 8 9 11 10 12 13 15 14
CELL_TYPES 2
12
12
POINT_DATA 16
VECTORS displacement float
0.000000000000e+00 0.000000000000e+00 0.000000000000e+00
0.000000000000e+00 0.000000000000e+00 0.000000000000e+00
0.000000000000e+00 0.000000000000e+00 0.000000000000e+00
0.000000000000e+00 0.000000000000e+00 0.000000000000e+00
0.000000000000e+00 0.000000000000e+00 0.000000000000e+00
0.000000000000e+00 0.000000000000e+00 0.000000000000e+00
0.000000000000e+00 0.000000000000e+00 0.000000000000e+00
0.000000000000e+00 0.000000000000e+00 0.000000000000e+00
1.761133003939e-17 -2.897731458810e-18 -4.306320000000e-03
1.824866501445e-17 -3.238816784942e-18 -4.306320000000e-03
1.856536322829e-17 -1.571747219250e-18 -4.306320000000e-03
1.724977514997e-17 -3.971045046314e-18 -4.306320000000e-03
-2.240006424792e-17 4.035884248401e-18 -4.306320000000e-03
-2.126489557730e-17 3.504772252992e-18 -4.306320000000e-03
-1.919597465519e-17 3.724027762842e-18 -4.306320000000e-03
-2.153564677847e-17 3.612098556002e-18 -4.306320000000e-03
SCALARS displacement_magnitude float 1
LOOKUP_TABLE default
0.000000000000e+00
0.000000000000e+00
0.000000000000e+00
0.000000000000e+00
0.000000000000e+00
0.000000000000e+00
0.000000000000e+00
0.000000000000e+00
4.306320000000e-03
4.306320000000e-03
4.306320000000e-03
4.306320000000e-03
4.306320000000e-03
4.306320000000e-03
4.306320000000e-03
4.306320000000e-03
CELL_DATA 2
SCALARS displacement_magnitude float 1
LOOKUP_TABLE default
0.000000000000e+00
4.306320000000e-03
SCALARS engineering_strain_norm float 1
LOOKUP_TABLE default
0.000000000000e+00
4.519487672156e-18
SCALARS von_mises float 1
LOOKUP_TABLE default
0.000000000000e+00
3.051195107717e-13
