# vtk DataFile Version 3.0
SFC native dynamic block_block_c3d8 frame 28 t=5.600000000000e-02
ASCII
DATASET UNSTRUCTURED_GRID
POINTS 16 float
-2.500000000000e-01 -2.500000000000e-01 0.000000000000e+00
2.500000000000e-01 -2.500000000000e-01 0.000000000000e+00
-2.500000000000e-01 2.500000000000e-01 0.000000000000e+00
2.500000000000e-01 2.500000000000e-01 0.000000000000e+00
-2.500000000000e-01 -2.500000000000e-01 2.400000000000e-01
2.500000000000e-01 -2.500000000000e-01 2.400000000000e-01
-2.500000000000e-01 2.500000000000e-01 2.400000000000e-01
2.500000000000e-01 2.500000000000e-01 2.400000000000e-01
-2.500002135599e-01 -2.500002135599e-01 2.483381249011e-01
2.500002135599e-01 -2.500002135599e-01 2.483381249011e-01
-2.500002135599e-01 2.500002135599e-01 2.483381249011e-01
2.500002135599e-01 2.500002135599e-01 2.483381249011e-01
-2.500002135599e-01 -2.500002135599e-01 5.083401910710e-01
2.500002135599e-01 -2.500002135599e-01 5.083401910710e-01
-2.500002135599e-01 2.500002135599e-01 5.083401910710e-01
2.500002135599e-01 2.500002135599e-01 5.083401910710e-01
CELLS 2 18
8 0 1 3 2 4 5 7 6
8 8 9 11 10 12 13 15 14
CELL_TYPES 2
12
12
POINT_DATA 16
VECTORS displacement float
0.000000000000e+00 0.000000000000e+00 0.000000000000e+00
0.000000000000e+00 0.000000000000e+00 0.000000000000e+00
0.000000000000e+00 0.000000000000e+00 0.000000000000e+00
0.000000000000e+00 0.000000000000e+00 0.000000000000e+00
0.000000000000e+00 0.000000000000e+00 0.000000000000e+00
0.000000000000e+00 0.000000000000e+00 0.000000000000e+00
0.000000000000e+00 0.000000000000e+00 0.000000000000e+00
0.000000000000e+00 0.000000000000e+00 0.000000000000e+00
-2.135599427725e-07 -2.135599403898e-07 -6.661875098889e-03
2.135599398567e-07 -2.135599404534e-07 -6.661875098894e-03
-2.135599426165e-07 2.135599422401e-07 -6.661875098886e-03
2.135599400074e-07 2.135599421605e-07 -6.661875098890e-03
-2.135599403876e-07 -2.135599420574e-07 -6.659808928980e-03
2.135599422377e-07 -2.135599422101e-07 -6.659808928985e-03
-2.135599403203e-07 2.135599405661e-07 -6.659808928977e-03
2.135599423022e-07 2.135599404191e-07 -6.659808928981e-03
SCALARS displacement_magnitude float 1
LOOKUP_TABLE default
0.000000000000e+00
0.000000000000e+00
0.000000000000e+00
0.000000000000e+00
0.000000000000e+00
0.000000000000e+00
0.000000000000e+00
0.000000000000e+00
6.661875105735e-03
6.661875105740e-03
6.661875105732e-03
6.661875105736e-03
6.659808935829e-03
6.659808935833e-03
6.659808935825e-03
6.659808935830e-03
CELL_DATA 2
SCALARS displacement_magnitude float 1
LOOKUP_TABLE default
0.000000000000e+00
6.660842020782e-03
SCALARS engineering_strain_norm float 1
LOOKUP_TABLE default
0.000000000000e+00
8.038109110455e-06
SCALARS von_mises float 1
LOOKUP_TABLE default
0.000000000000e+00
5.455821212287e-01
