# vtk DataFile Version 3.0
SFC native dynamic block_block_c3d8 frame 32 t=6.400000000000e-02
ASCII
DATASET UNSTRUCTURED_GRID
POINTS 16 float
-2.500000000000e-01 -2.500000000000e-01 0.000000000000e+00
2.500000000000e-01 -2.500000000000e-01 0.000000000000e+00
-2.500000000000e-01 2.500000000000e-01 0.000000000000e+00
2.500000000000e-01 2.500000000000e-01 0.000000000000e+00
-2.500000000000e-01 -2.500000000000e-01 2.400000000000e-01
2.500000000000e-01 -2.500000000000e-01 2.400000000000e-01
-2.500000000000e-01 2.500000000000e-01 2.400000000000e-01
2.500000000000e-01 2.500000000000e-01 2.400000000000e-01
-2.500004147868e-01 -2.500004147868e-01 2.517263458590e-01
2.500004147868e-01 -2.500004147868e-01 2.517263458589e-01
-2.500004147868e-01 2.500004147868e-01 2.517263458590e-01
2.500004147868e-01 2.500004147868e-01 2.517263458590e-01
-2.500004147868e-01 -2.500004147868e-01 5.117282993233e-01
2.500004147868e-01 -2.500004147868e-01 5.117282993233e-01
-2.500004147868e-01 2.500004147868e-01 5.117282993233e-01
2.500004147868e-01 2.500004147868e-01 5.117282993233e-01
CELLS 2 18
8 0 1 3 2 4 5 7 6
8 8 9 11 10 12 13 15 14
CELL_TYPES 2
12
12
POINT_DATA 16
VECTORS displacement float
0.000000000000e+00 0.000000000000e+00 0.000000000000e+00
0.000000000000e+00 0.000000000000e+00 0.000000000000e+00
0.000000000000e+00 0.000000000000e+00 0.000000000000e+00
0.000000000000e+00 0.000000000000e+00 0.000000000000e+00
0.000000000000e+00 0.000000000000e+00 0.000000000000e+00
0.000000000000e+00 0.000000000000e+00 0.000000000000e+00
0.000000000000e+00 0.000000000000e+00 0.000000000000e+00
0.000000000000e+00 0.000000000000e+00 0.000000000000e+00
-4.147867935244e-07 -4.147867902215e-07 -3.273654141048e-03
4.147867896040e-07 -4.147867903682e-07 -3.273654141054e-03
-4.147867933543e-07 4.147867929111e-07 -3.273654141043e-03
4.147867897842e-07 4.147867927693e-07 -3.273654141049e-03
-4.147867903242e-07 -4.147867926814e-07 -3.271700676660e-03
4.147867928079e-07 -4.147867928649e-07 -3.271700676666e-03
-4.147867901791e-07 4.147867904547e-07 -3.271700676655e-03
4.147867929594e-07 4.147867902706e-07 -3.271700676662e-03
SCALARS displacement_magnitude float 1
LOOKUP_TABLE default
0.000000000000e+00
0.000000000000e+00
0.000000000000e+00
0.000000000000e+00
0.000000000000e+00
0.000000000000e+00
0.000000000000e+00
0.000000000000e+00
3.273654193603e-03
3.273654193610e-03
3.273654193599e-03
3.273654193605e-03
3.271700729247e-03
3.271700729253e-03
3.271700729242e-03
3.271700729248e-03
CELL_DATA 2
SCALARS displacement_magnitude float 1
LOOKUP_TABLE default
0.000000000000e+00
3.272677461426e-03
SCALARS engineering_strain_norm float 1
LOOKUP_TABLE default
0.000000000000e+00
7.871186995129e-06
SCALARS von_mises float 1
LOOKUP_TABLE default
0.000000000000e+00
4.503213386433e-01
