# vtk DataFile Version 3.0
CalculiX common-time dynamic block_plane_c3d8 frame 8 t=1.600000000000e-02
ASCII
DATASET UNSTRUCTURED_GRID
POINTS 8 float
-2.500000000000e-01 -2.500000000000e-01 1.394432000000e-02
2.500000000000e-01 -2.500000000000e-01 1.394432000000e-02
-2.500000000000e-01 2.500000000000e-01 1.394432000000e-02
2.500000000000e-01 2.500000000000e-01 1.394432000000e-02
-2.500000000000e-01 -2.500000000000e-01 3.139443200000e-01
2.500000000000e-01 -2.500000000000e-01 3.139443200000e-01
-2.500000000000e-01 2.500000000000e-01 3.139443200000e-01
2.500000000000e-01 2.500000000000e-01 3.139443200000e-01
CELLS 1 9
8 0 1 3 2 4 5 7 6
CELL_TYPES 1
12
POINT_DATA 8
VECTORS displacement float
1.941822000000e-19 1.809063000000e-19 -6.055680000000e-03
2.006606000000e-20 6.892167000000e-20 -6.055680000000e-03
-1.626720000000e-19 1.058634000000e-19 -6.055680000000e-03
2.302862000000e-19 3.778009000000e-19 -6.055680000000e-03
-1.014696000000e-20 -2.142728000000e-19 -6.055680000000e-03
-2.039080000000e-19 3.507186000000e-20 -6.055680000000e-03
4.936200000000e-20 -7.236374000000e-20 -6.055680000000e-03
-1.167430000000e-19 -4.816935000000e-19 -6.055680000000e-03
SCALARS displacement_magnitude float 1
LOOKUP_TABLE default
6.055680000000e-03
6.055680000000e-03
6.055680000000e-03
6.055680000000e-03
6.055680000000e-03
6.055680000000e-03
6.055680000000e-03
6.055680000000e-03
CELL_DATA 1
SCALARS displacement_magnitude float 1
LOOKUP_TABLE default
6.055680000000e-03
SCALARS engineering_strain_norm float 1
LOOKUP_TABLE default
1.313123072934e-18
SCALARS von_mises float 1
LOOKUP_TABLE default
3.547508625533e-14
