# vtk DataFile Version 3.0
CalculiX common-time dynamic block_plane_c3d8 frame 31 t=6.200000000000e-02
ASCII
DATASET UNSTRUCTURED_GRID
POINTS 8 float
-2.499956812000e-01 -2.499956812000e-01 1.597229273549e-02
2.499956812000e-01 -2.499956812000e-01 1.597229273549e-02
-2.499956812000e-01 2.499956812000e-01 1.597229273549e-02
2.499956812000e-01 2.499956812000e-01 1.597229273549e-02
-2.499956812000e-01 -2.499956812000e-01 3.159778812768e-01
2.499956812000e-01 -2.499956812000e-01 3.159778812768e-01
-2.499956812000e-01 2.499956812000e-01 3.159778812768e-01
2.499956812000e-01 2.499956812000e-01 3.159778812768e-01
CELLS 1 9
8 0 1 3 2 4 5 7 6
CELL_TYPES 1
12
POINT_DATA 8
VECTORS displacement float
4.318799970270e-06 4.318799970270e-06 -4.027707264510e-03
-4.318799970270e-06 4.318799970270e-06 -4.027707264510e-03
4.318799970270e-06 -4.318799970270e-06 -4.027707264510e-03
-4.318799970270e-06 -4.318799970270e-06 -4.027707264510e-03
4.318799970270e-06 4.318799970270e-06 -4.022118723190e-03
-4.318799970270e-06 4.318799970270e-06 -4.022118723190e-03
4.318799970270e-06 -4.318799970270e-06 -4.022118723190e-03
-4.318799970270e-06 -4.318799970270e-06 -4.022118723190e-03
SCALARS displacement_magnitude float 1
LOOKUP_TABLE default
4.027711895438e-03
4.027711895438e-03
4.027711895438e-03
4.027711895438e-03
4.022123360552e-03
4.022123360552e-03
4.022123360552e-03
4.022123360552e-03
CELL_DATA 1
SCALARS displacement_magnitude float 1
LOOKUP_TABLE default
4.024917627995e-03
SCALARS engineering_strain_norm float 1
LOOKUP_TABLE default
3.072271140612e-05
SCALARS von_mises float 1
LOOKUP_TABLE default
2.761976576075e+00
