# vtk DataFile Version 3.0
CalculiX common-time dynamic block_plane_c3d8 frame 9 t=1.800000000000e-02
ASCII
DATASET UNSTRUCTURED_GRID
POINTS 8 float
-2.500000000000e-01 -2.500000000000e-01 1.301078000000e-02
2.500000000000e-01 -2.500000000000e-01 1.301078000000e-02
-2.500000000000e-01 2.500000000000e-01 1.301078000000e-02
2.500000000000e-01 2.500000000000e-01 1.301078000000e-02
-2.500000000000e-01 -2.500000000000e-01 3.130107800000e-01
2.500000000000e-01 -2.500000000000e-01 3.130107800000e-01
-2.500000000000e-01 2.500000000000e-01 3.130107800000e-01
2.500000000000e-01 2.500000000000e-01 3.130107800000e-01
CELLS 1 9
8 0 1 3 2 4 5 7 6
CELL_TYPES 1
12
POINT_DATA 8
VECTORS displacement float
2.152234000000e-19 4.867435000000e-19 -6.989220000000e-03
1.838755000000e-19 3.768036000000e-19 -6.989220000000e-03
1.887969000000e-19 2.703810000000e-19 -6.989220000000e-03
1.498293000000e-19 4.270641000000e-19 -6.989220000000e-03
-2.904324000000e-19 -3.843463000000e-19 -6.989220000000e-03
-1.084481000000e-19 -4.997708000000e-19 -6.989220000000e-03
-1.340457000000e-19 -3.726280000000e-19 -6.989220000000e-03
-2.043155000000e-19 -3.039820000000e-19 -6.989220000000e-03
SCALARS displacement_magnitude float 1
LOOKUP_TABLE default
6.989220000000e-03
6.989220000000e-03
6.989220000000e-03
6.989220000000e-03
6.989220000000e-03
6.989220000000e-03
6.989220000000e-03
6.989220000000e-03
CELL_DATA 1
SCALARS displacement_magnitude float 1
LOOKUP_TABLE default
6.989220000000e-03
SCALARS engineering_strain_norm float 1
LOOKUP_TABLE default
3.359815119483e-18
SCALARS von_mises float 1
LOOKUP_TABLE default
1.311929492711e-13
