# vtk DataFile Version 3.0
CalculiX common-time dynamic block_plane_c3d8 frame 4 t=8.000000000000e-03
ASCII
DATASET UNSTRUCTURED_GRID
POINTS 8 float
-2.500000000000e-01 -2.500000000000e-01 1.728608000000e-02
2.500000000000e-01 -2.500000000000e-01 1.728608000000e-02
-2.500000000000e-01 2.500000000000e-01 1.728608000000e-02
2.500000000000e-01 2.500000000000e-01 1.728608000000e-02
-2.500000000000e-01 -2.500000000000e-01 3.172860800000e-01
2.500000000000e-01 -2.500000000000e-01 3.172860800000e-01
-2.500000000000e-01 2.500000000000e-01 3.172860800000e-01
2.500000000000e-01 2.500000000000e-01 3.172860800000e-01
CELLS 1 9
8 0 1 3 2 4 5 7 6
CELL_TYPES 1
12
POINT_DATA 8
VECTORS displacement float
-1.148627000000e-19 1.432148000000e-19 -2.713920000000e-03
-1.900739000000e-19 1.159929000000e-19 -2.713920000000e-03
-1.789967000000e-19 5.287510000000e-20 -2.713920000000e-03
-1.683023000000e-19 1.317809000000e-19 -2.713920000000e-03
1.139930000000e-19 -1.291741000000e-19 -2.713920000000e-03
1.910407000000e-19 -1.415731000000e-19 -2.713920000000e-03
1.683653000000e-19 -6.684681000000e-20 -2.713920000000e-03
1.790357000000e-19 -1.061605000000e-19 -2.713920000000e-03
SCALARS displacement_magnitude float 1
LOOKUP_TABLE default
2.713920000000e-03
2.713920000000e-03
2.713920000000e-03
2.713920000000e-03
2.713920000000e-03
2.713920000000e-03
2.713920000000e-03
2.713920000000e-03
CELL_DATA 1
SCALARS displacement_magnitude float 1
LOOKUP_TABLE default
2.713920000000e-03
SCALARS engineering_strain_norm float 1
LOOKUP_TABLE default
1.315088198332e-18
SCALARS von_mises float 1
LOOKUP_TABLE default
3.584061033448e-14
