# vtk DataFile Version 3.0
CalculiX common-time dynamic block_plane_c3d8 frame 17 t=3.400000000000e-02
ASCII
DATASET UNSTRUCTURED_GRID
POINTS 8 float
-2.500161902688e-01 -2.500161902688e-01 4.206888946180e-03
2.500161902688e-01 -2.500161902688e-01 4.206888946180e-03
-2.500161902688e-01 2.500161902688e-01 4.206888946180e-03
2.500161902688e-01 2.500161902688e-01 4.206888946180e-03
-2.500161902688e-01 -2.500161902688e-01 3.041441052560e-01
2.500161902688e-01 -2.500161902688e-01 3.041441052560e-01
-2.500161902688e-01 2.500161902688e-01 3.041441052560e-01
2.500161902688e-01 2.500161902688e-01 3.041441052560e-01
CELLS 1 9
8 0 1 3 2 4 5 7 6
CELL_TYPES 1
12
POINT_DATA 8
VECTORS displacement float
-1.619026875077e-05 -1.619026875077e-05 -1.579311105382e-02
1.619026875077e-05 -1.619026875077e-05 -1.579311105382e-02
-1.619026875077e-05 1.619026875077e-05 -1.579311105382e-02
1.619026875077e-05 1.619026875077e-05 -1.579311105382e-02
-1.619026875077e-05 -1.619026875077e-05 -1.585589474404e-02
1.619026875077e-05 -1.619026875077e-05 -1.585589474404e-02
-1.619026875077e-05 1.619026875077e-05 -1.585589474404e-02
1.619026875077e-05 1.619026875077e-05 -1.585589474404e-02
SCALARS displacement_magnitude float 1
LOOKUP_TABLE default
1.579312765123e-02
1.579312765123e-02
1.579312765123e-02
1.579312765123e-02
1.585591127572e-02
1.585591127572e-02
1.585591127572e-02
1.585591127572e-02
CELL_DATA 1
SCALARS displacement_magnitude float 1
LOOKUP_TABLE default
1.582451946347e-02
SCALARS engineering_strain_norm float 1
LOOKUP_TABLE default
2.284418522582e-04
SCALARS von_mises float 1
LOOKUP_TABLE default
2.107233618071e+01
