# vtk DataFile Version 3.0
CalculiX common-time dynamic block_plane_c3d8 frame 30 t=6.000000000000e-02
ASCII
DATASET UNSTRUCTURED_GRID
POINTS 8 float
-2.500017662683e-01 -2.500017662683e-01 1.513562825727e-02
2.500017662683e-01 -2.500017662683e-01 1.513562825727e-02
-2.500017662683e-01 2.500017662683e-01 1.513562825727e-02
2.500017662683e-01 2.500017662683e-01 1.513562825727e-02
-2.500017662683e-01 -2.500017662683e-01 3.151339238374e-01
2.500017662683e-01 -2.500017662683e-01 3.151339238374e-01
-2.500017662683e-01 2.500017662683e-01 3.151339238374e-01
2.500017662683e-01 2.500017662683e-01 3.151339238374e-01
CELLS 1 9
8 0 1 3 2 4 5 7 6
CELL_TYPES 1
12
POINT_DATA 8
VECTORS displacement float
-1.766268310230e-06 -1.766268310230e-06 -4.864371742730e-03
1.766268310230e-06 -1.766268310230e-06 -4.864371742730e-03
-1.766268310230e-06 1.766268310230e-06 -4.864371742730e-03
1.766268310230e-06 1.766268310230e-06 -4.864371742730e-03
-1.766268310230e-06 -1.766268310230e-06 -4.866076162560e-03
1.766268310230e-06 -1.766268310230e-06 -4.866076162560e-03
-1.766268310230e-06 1.766268310230e-06 -4.866076162560e-03
1.766268310230e-06 1.766268310230e-06 -4.866076162560e-03
SCALARS displacement_magnitude float 1
LOOKUP_TABLE default
4.864372384067e-03
4.864372384067e-03
4.864372384067e-03
4.864372384067e-03
4.866076803673e-03
4.866076803673e-03
4.866076803673e-03
4.866076803673e-03
CELL_DATA 1
SCALARS displacement_magnitude float 1
LOOKUP_TABLE default
4.865224593870e-03
SCALARS engineering_strain_norm float 1
LOOKUP_TABLE default
1.149386007050e-05
SCALARS von_mises float 1
LOOKUP_TABLE default
9.806758511923e-01
