# vtk DataFile Version 3.0
CalculiX common-time dynamic block_plane_c3d8 frame 37 t=7.400000000000e-02
ASCII
DATASET UNSTRUCTURED_GRID
POINTS 8 float
-2.500006057098e-01 -2.500006057098e-01 2.019311176720e-02
2.500006057098e-01 -2.500006057098e-01 2.019311176720e-02
-2.500006057098e-01 2.500006057098e-01 2.019311176720e-02
2.500006057098e-01 2.500006057098e-01 2.019311176720e-02
-2.500006057098e-01 -2.500006057098e-01 3.201927115709e-01
2.500006057098e-01 -2.500006057098e-01 3.201927115709e-01
-2.500006057098e-01 2.500006057098e-01 3.201927115709e-01
2.500006057098e-01 2.500006057098e-01 3.201927115709e-01
CELLS 1 9
8 0 1 3 2 4 5 7 6
CELL_TYPES 1
12
POINT_DATA 8
VECTORS displacement float
-6.057097717870e-07 -6.057097717870e-07 1.931117672020e-04
6.057097717870e-07 -6.057097717870e-07 1.931117672020e-04
-6.057097717870e-07 6.057097717870e-07 1.931117672020e-04
6.057097717870e-07 6.057097717870e-07 1.931117672020e-04
-6.057097717870e-07 -6.057097717870e-07 1.927115708610e-04
6.057097717870e-07 -6.057097717870e-07 1.927115708610e-04
-6.057097717870e-07 6.057097717870e-07 1.927115708610e-04
6.057097717870e-07 6.057097717870e-07 1.927115708610e-04
SCALARS displacement_magnitude float 1
LOOKUP_TABLE default
1.931136670475e-04
1.931136670475e-04
1.931136670475e-04
1.931136670475e-04
1.927134746518e-04
1.927134746518e-04
1.927134746518e-04
1.927134746518e-04
CELL_DATA 1
SCALARS displacement_magnitude float 1
LOOKUP_TABLE default
1.929135708496e-04
SCALARS engineering_strain_norm float 1
LOOKUP_TABLE default
3.676931049648e-06
SCALARS von_mises float 1
LOOKUP_TABLE default
2.889789031748e-01
