# vtk DataFile Version 3.0
CalculiX common-time dynamic block_plane_c3d8 frame 35 t=7.000000000000e-02
ASCII
DATASET UNSTRUCTURED_GRID
POINTS 8 float
-2.500033834227e-01 -2.500033834227e-01 1.894638851814e-02
2.500033834227e-01 -2.500033834227e-01 1.894638851814e-02
-2.500033834227e-01 2.500033834227e-01 1.894638851814e-02
2.500033834227e-01 2.500033834227e-01 1.894638851814e-02
-2.500033834227e-01 -2.500033834227e-01 3.189414711806e-01
2.500033834227e-01 -2.500033834227e-01 3.189414711806e-01
-2.500033834227e-01 2.500033834227e-01 3.189414711806e-01
2.500033834227e-01 2.500033834227e-01 3.189414711806e-01
CELLS 1 9
8 0 1 3 2 4 5 7 6
CELL_TYPES 1
12
POINT_DATA 8
VECTORS displacement float
-3.383422699010e-06 -3.383422699010e-06 -1.053611481860e-03
3.383422699010e-06 -3.383422699010e-06 -1.053611481860e-03
-3.383422699010e-06 3.383422699010e-06 -1.053611481860e-03
3.383422699010e-06 3.383422699010e-06 -1.053611481860e-03
-3.383422699010e-06 -3.383422699010e-06 -1.058528819430e-03
3.383422699010e-06 -3.383422699010e-06 -1.058528819430e-03
-3.383422699010e-06 3.383422699010e-06 -1.058528819430e-03
3.383422699010e-06 3.383422699010e-06 -1.058528819430e-03
SCALARS displacement_magnitude float 1
LOOKUP_TABLE default
1.053622346861e-03
1.053622346861e-03
1.053622346861e-03
1.053622346861e-03
1.058539633959e-03
1.058539633959e-03
1.058539633959e-03
1.058539633959e-03
CELL_DATA 1
SCALARS displacement_magnitude float 1
LOOKUP_TABLE default
1.056080990410e-03
SCALARS engineering_strain_norm float 1
LOOKUP_TABLE default
2.519901901941e-05
SCALARS von_mises float 1
LOOKUP_TABLE default
2.301831777146e+00
