# vtk DataFile Version 3.0
CalculiX common-time dynamic block_plane_c3d8 frame 25 t=5.000000000000e-02
ASCII
DATASET UNSTRUCTURED_GRID
POINTS 8 float
-2.499961199484e-01 -2.499961199484e-01 1.034099402275e-02
2.499961199484e-01 -2.499961199484e-01 1.034099402275e-02
-2.499961199484e-01 2.499961199484e-01 1.034099402275e-02
2.499961199484e-01 2.499961199484e-01 1.034099402275e-02
-2.499961199484e-01 -2.499961199484e-01 3.103482504648e-01
2.499961199484e-01 -2.499961199484e-01 3.103482504648e-01
-2.499961199484e-01 2.499961199484e-01 3.103482504648e-01
2.499961199484e-01 2.499961199484e-01 3.103482504648e-01
CELLS 1 9
8 0 1 3 2 4 5 7 6
CELL_TYPES 1
12
POINT_DATA 8
VECTORS displacement float
3.880051606510e-06 3.880051606510e-06 -9.659005977250e-03
-3.880051606510e-06 3.880051606510e-06 -9.659005977250e-03
3.880051606510e-06 -3.880051606510e-06 -9.659005977250e-03
-3.880051606510e-06 -3.880051606510e-06 -9.659005977250e-03
3.880051606510e-06 3.880051606510e-06 -9.651749535250e-03
-3.880051606510e-06 3.880051606510e-06 -9.651749535250e-03
3.880051606510e-06 -3.880051606510e-06 -9.651749535250e-03
-3.880051606510e-06 -3.880051606510e-06 -9.651749535250e-03
SCALARS displacement_magnitude float 1
LOOKUP_TABLE default
9.659007535878e-03
9.659007535878e-03
9.659007535878e-03
9.659007535878e-03
9.651751095050e-03
9.651751095050e-03
9.651751095050e-03
9.651751095050e-03
CELL_DATA 1
SCALARS displacement_magnitude float 1
LOOKUP_TABLE default
9.655379315464e-03
SCALARS engineering_strain_norm float 1
LOOKUP_TABLE default
3.266220647282e-05
SCALARS von_mises float 1
LOOKUP_TABLE default
3.054701765600e+00
