# vtk DataFile Version 3.0
CalculiX common-time dynamic block_plane_c3d8 frame 21 t=4.200000000000e-02
ASCII
DATASET UNSTRUCTURED_GRID
POINTS 8 float
-2.499942564587e-01 -2.499942564587e-01 5.801691350450e-03
2.499942564587e-01 -2.499942564587e-01 5.801691350450e-03
-2.499942564587e-01 2.499942564587e-01 5.801691350450e-03
2.499942564587e-01 2.499942564587e-01 5.801691350450e-03
-2.499942564587e-01 -2.499942564587e-01 3.058102337964e-01
2.499942564587e-01 -2.499942564587e-01 3.058102337964e-01
-2.499942564587e-01 2.499942564587e-01 3.058102337964e-01
2.499942564587e-01 2.499942564587e-01 3.058102337964e-01
CELLS 1 9
8 0 1 3 2 4 5 7 6
CELL_TYPES 1
12
POINT_DATA 8
VECTORS displacement float
5.743541342550e-06 5.743541342550e-06 -1.419830864955e-02
-5.743541342550e-06 5.743541342550e-06 -1.419830864955e-02
5.743541342550e-06 -5.743541342550e-06 -1.419830864955e-02
-5.743541342550e-06 -5.743541342550e-06 -1.419830864955e-02
5.743541342550e-06 5.743541342550e-06 -1.418976620364e-02
-5.743541342550e-06 5.743541342550e-06 -1.418976620364e-02
5.743541342550e-06 -5.743541342550e-06 -1.418976620364e-02
-5.743541342550e-06 -5.743541342550e-06 -1.418976620364e-02
SCALARS displacement_magnitude float 1
LOOKUP_TABLE default
1.419831097294e-02
1.419831097294e-02
1.419831097294e-02
1.419831097294e-02
1.418976852843e-02
1.418976852843e-02
1.418976852843e-02
1.418976852843e-02
CELL_DATA 1
SCALARS displacement_magnitude float 1
LOOKUP_TABLE default
1.419403975069e-02
SCALARS engineering_strain_norm float 1
LOOKUP_TABLE default
4.320231366292e-05
SCALARS von_mises float 1
LOOKUP_TABLE default
3.957290535609e+00
