# vtk DataFile Version 3.0
CalculiX common-time dynamic block_plane_c3d8 frame 29 t=5.800000000000e-02
ASCII
DATASET UNSTRUCTURED_GRID
POINTS 8 float
-2.500023145279e-01 -2.500023145279e-01 1.425736450283e-02
2.500023145279e-01 -2.500023145279e-01 1.425736450283e-02
-2.500023145279e-01 2.500023145279e-01 1.425736450283e-02
2.500023145279e-01 2.500023145279e-01 1.425736450283e-02
-2.500023145279e-01 -2.500023145279e-01 3.142530866647e-01
2.500023145279e-01 -2.500023145279e-01 3.142530866647e-01
-2.500023145279e-01 2.500023145279e-01 3.142530866647e-01
2.500023145279e-01 2.500023145279e-01 3.142530866647e-01
CELLS 1 9
8 0 1 3 2 4 5 7 6
CELL_TYPES 1
12
POINT_DATA 8
VECTORS displacement float
-2.314527860640e-06 -2.314527860640e-06 -5.742635497170e-03
2.314527860640e-06 -2.314527860640e-06 -5.742635497170e-03
-2.314527860640e-06 2.314527860640e-06 -5.742635497170e-03
2.314527860640e-06 2.314527860640e-06 -5.742635497170e-03
-2.314527860640e-06 -2.314527860640e-06 -5.746913335340e-03
2.314527860640e-06 -2.314527860640e-06 -5.746913335340e-03
-2.314527860640e-06 2.314527860640e-06 -5.746913335340e-03
2.314527860640e-06 2.314527860640e-06 -5.746913335340e-03
SCALARS displacement_magnitude float 1
LOOKUP_TABLE default
5.742636430024e-03
5.742636430024e-03
5.742636430024e-03
5.742636430024e-03
5.746914267499e-03
5.746914267499e-03
5.746914267499e-03
5.746914267499e-03
CELL_DATA 1
SCALARS displacement_magnitude float 1
LOOKUP_TABLE default
5.744775348762e-03
SCALARS engineering_strain_norm float 1
LOOKUP_TABLE default
1.935865363650e-05
SCALARS von_mises float 1
LOOKUP_TABLE default
1.809054856667e+00
