# vtk DataFile Version 3.0
CalculiX dynamic block_block_c3d8 frame 7 t=1.600000000000e-02
ASCII
DATASET UNSTRUCTURED_GRID
POINTS 16 float
-2.500000000000e-01 -2.500000000000e-01 0.000000000000e+00
2.500000000000e-01 -2.500000000000e-01 0.000000000000e+00
-2.500000000000e-01 2.500000000000e-01 0.000000000000e+00
2.500000000000e-01 2.500000000000e-01 0.000000000000e+00
-2.500000000000e-01 -2.500000000000e-01 2.400000000000e-01
2.500000000000e-01 -2.500000000000e-01 2.400000000000e-01
-2.500000000000e-01 2.500000000000e-01 2.400000000000e-01
2.500000000000e-01 2.500000000000e-01 2.400000000000e-01
-2.500000000000e-01 -2.500000000000e-01 2.489443200000e-01
2.500000000000e-01 -2.500000000000e-01 2.489443200000e-01
-2.500000000000e-01 2.500000000000e-01 2.489443200000e-01
2.500000000000e-01 2.500000000000e-01 2.489443200000e-01
-2.500000000000e-01 -2.500000000000e-01 5.089443200000e-01
2.500000000000e-01 -2.500000000000e-01 5.089443200000e-01
-2.500000000000e-01 2.500000000000e-01 5.089443200000e-01
2.500000000000e-01 2.500000000000e-01 5.089443200000e-01
CELLS 2 18
8 0 1 3 2 4 5 7 6
8 8 9 11 10 12 13 15 14
CELL_TYPES 2
12
12
POINT_DATA 16
VECTORS displacement float
0.000000000000e+00 0.000000000000e+00 0.000000000000e+00
0.000000000000e+00 0.000000000000e+00 0.000000000000e+00
0.000000000000e+00 0.000000000000e+00 0.000000000000e+00
0.000000000000e+00 0.000000000000e+00 0.000000000000e+00
0.000000000000e+00 0.000000000000e+00 0.000000000000e+00
0.000000000000e+00 0.000000000000e+00 0.000000000000e+00
0.000000000000e+00 0.000000000000e+00 0.000000000000e+00
0.000000000000e+00 0.000000000000e+00 0.000000000000e+00
-5.253798000000e-20 -3.613151000000e-19 -6.055680000000e-03
3.297742000000e-19 2.274178000000e-19 -6.055680000000e-03
2.473547000000e-19 -1.006061000000e-19 -6.055680000000e-03
1.226730000000e-19 1.082920000000e-19 -6.055680000000e-03
-3.531958000000e-20 3.290770000000e-19 -6.055680000000e-03
-2.419226000000e-19 -3.181961000000e-19 -6.055680000000e-03
-2.824769000000e-19 1.332809000000e-19 -6.055680000000e-03
-8.707906000000e-20 -1.755745000000e-20 -6.055680000000e-03
SCALARS displacement_magnitude float 1
LOOKUP_TABLE default
0.000000000000e+00
0.000000000000e+00
0.000000000000e+00
0.000000000000e+00
0.000000000000e+00
0.000000000000e+00
0.000000000000e+00
0.000000000000e+00
6.055680000000e-03
6.055680000000e-03
6.055680000000e-03
6.055680000000e-03
6.055680000000e-03
6.055680000000e-03
6.055680000000e-03
6.055680000000e-03
CELL_DATA 2
SCALARS displacement_magnitude float 1
LOOKUP_TABLE default
0.000000000000e+00
6.055680000000e-03
SCALARS engineering_strain_norm float 1
LOOKUP_TABLE default
0.000000000000e+00
2.155685683442e-18
SCALARS von_mises float 1
LOOKUP_TABLE default
0.000000000000e+00
1.057801282917e-13
