# vtk DataFile Version 3.0
CalculiX dynamic block_block_c3d8 frame 56 t=5.535470000000e-02
ASCII
DATASET UNSTRUCTURED_GRID
POINTS 16 float
-2.500000000000e-01 -2.500000000000e-01 0.000000000000e+00
2.500000000000e-01 -2.500000000000e-01 0.000000000000e+00
-2.500000000000e-01 2.500000000000e-01 0.000000000000e+00
2.500000000000e-01 2.500000000000e-01 0.000000000000e+00
-2.500000000000e-01 -2.500000000000e-01 2.400000000000e-01
2.500000000000e-01 -2.500000000000e-01 2.400000000000e-01
-2.500000000000e-01 2.500000000000e-01 2.400000000000e-01
2.500000000000e-01 2.500000000000e-01 2.400000000000e-01
-2.499972131570e-01 -2.499972131570e-01 2.483138290000e-01
2.499972131570e-01 -2.499972131570e-01 2.483138290000e-01
-2.499972131570e-01 2.499972131570e-01 2.483138290000e-01
2.499972131570e-01 2.499972131570e-01 2.483138290000e-01
-2.499972131570e-01 -2.499972131570e-01 5.083183910000e-01
2.499972131570e-01 -2.499972131570e-01 5.083183910000e-01
-2.499972131570e-01 2.499972131570e-01 5.083183910000e-01
2.499972131570e-01 2.499972131570e-01 5.083183910000e-01
CELLS 2 18
8 0 1 3 2 4 5 7 6
8 8 9 11 10 12 13 15 14
CELL_TYPES 2
12
12
POINT_DATA 16
VECTORS displacement float
0.000000000000e+00 0.000000000000e+00 0.000000000000e+00
0.000000000000e+00 0.000000000000e+00 0.000000000000e+00
0.000000000000e+00 0.000000000000e+00 0.000000000000e+00
0.000000000000e+00 0.000000000000e+00 0.000000000000e+00
0.000000000000e+00 0.000000000000e+00 0.000000000000e+00
0.000000000000e+00 0.000000000000e+00 0.000000000000e+00
0.000000000000e+00 0.000000000000e+00 0.000000000000e+00
0.000000000000e+00 0.000000000000e+00 0.000000000000e+00
2.786843000000e-06 2.786843000000e-06 -6.686171000000e-03
-2.786843000000e-06 2.786843000000e-06 -6.686171000000e-03
2.786843000000e-06 -2.786843000000e-06 -6.686171000000e-03
-2.786843000000e-06 -2.786843000000e-06 -6.686171000000e-03
2.786843000000e-06 2.786843000000e-06 -6.681609000000e-03
-2.786843000000e-06 2.786843000000e-06 -6.681609000000e-03
2.786843000000e-06 -2.786843000000e-06 -6.681609000000e-03
-2.786843000000e-06 -2.786843000000e-06 -6.681609000000e-03
SCALARS displacement_magnitude float 1
LOOKUP_TABLE default
0.000000000000e+00
0.000000000000e+00
0.000000000000e+00
0.000000000000e+00
0.000000000000e+00
0.000000000000e+00
0.000000000000e+00
0.000000000000e+00
6.686172161576e-03
6.686172161576e-03
6.686172161576e-03
6.686172161576e-03
6.681610162369e-03
6.681610162369e-03
6.681610162369e-03
6.681610162369e-03
CELL_DATA 2
SCALARS displacement_magnitude float 1
LOOKUP_TABLE default
0.000000000000e+00
6.683891161972e-03
SCALARS engineering_strain_norm float 1
LOOKUP_TABLE default
0.000000000000e+00
2.358803340267e-05
SCALARS von_mises float 1
LOOKUP_TABLE default
0.000000000000e+00
2.207198000000e+00
