# vtk DataFile Version 3.0
CalculiX dynamic block_block_c3d8 frame 6 t=1.400000000000e-02
ASCII
DATASET UNSTRUCTURED_GRID
POINTS 16 float
-2.500000000000e-01 -2.500000000000e-01 0.000000000000e+00
2.500000000000e-01 -2.500000000000e-01 0.000000000000e+00
-2.500000000000e-01 2.500000000000e-01 0.000000000000e+00
2.500000000000e-01 2.500000000000e-01 0.000000000000e+00
-2.500000000000e-01 -2.500000000000e-01 2.400000000000e-01
2.500000000000e-01 -2.500000000000e-01 2.400000000000e-01
-2.500000000000e-01 2.500000000000e-01 2.400000000000e-01
2.500000000000e-01 2.500000000000e-01 2.400000000000e-01
-2.500000000000e-01 -2.500000000000e-01 2.498386200000e-01
2.500000000000e-01 -2.500000000000e-01 2.498386200000e-01
-2.500000000000e-01 2.500000000000e-01 2.498386200000e-01
2.500000000000e-01 2.500000000000e-01 2.498386200000e-01
-2.500000000000e-01 -2.500000000000e-01 5.098386200000e-01
2.500000000000e-01 -2.500000000000e-01 5.098386200000e-01
-2.500000000000e-01 2.500000000000e-01 5.098386200000e-01
2.500000000000e-01 2.500000000000e-01 5.098386200000e-01
CELLS 2 18
8 0 1 3 2 4 5 7 6
8 8 9 11 10 12 13 15 14
CELL_TYPES 2
12
12
POINT_DATA 16
VECTORS displacement float
0.000000000000e+00 0.000000000000e+00 0.000000000000e+00
0.000000000000e+00 0.000000000000e+00 0.000000000000e+00
0.000000000000e+00 0.000000000000e+00 0.000000000000e+00
0.000000000000e+00 0.000000000000e+00 0.000000000000e+00
0.000000000000e+00 0.000000000000e+00 0.000000000000e+00
0.000000000000e+00 0.000000000000e+00 0.000000000000e+00
0.000000000000e+00 0.000000000000e+00 0.000000000000e+00
0.000000000000e+00 0.000000000000e+00 0.000000000000e+00
9.023464000000e-20 5.302973000000e-20 -5.161380000000e-03
2.294454000000e-20 1.816673000000e-19 -5.161380000000e-03
2.616534000000e-19 8.519037000000e-20 -5.161380000000e-03
1.842278000000e-19 4.824540000000e-21 -5.161380000000e-03
-1.634185000000e-20 -2.934975000000e-20 -5.161380000000e-03
-9.684506000000e-20 -7.063358000000e-20 -5.161380000000e-03
-2.008016000000e-19 -1.084945000000e-19 -5.161380000000e-03
-2.446681000000e-19 -1.158936000000e-19 -5.161380000000e-03
SCALARS displacement_magnitude float 1
LOOKUP_TABLE default
0.000000000000e+00
0.000000000000e+00
0.000000000000e+00
0.000000000000e+00
0.000000000000e+00
0.000000000000e+00
0.000000000000e+00
0.000000000000e+00
5.161380000000e-03
5.161380000000e-03
5.161380000000e-03
5.161380000000e-03
5.161380000000e-03
5.161380000000e-03
5.161380000000e-03
5.161380000000e-03
CELL_DATA 2
SCALARS displacement_magnitude float 1
LOOKUP_TABLE default
0.000000000000e+00
5.161380000000e-03
SCALARS engineering_strain_norm float 1
LOOKUP_TABLE default
0.000000000000e+00
2.142436295332e-18
SCALARS von_mises float 1
LOOKUP_TABLE default
0.000000000000e+00
6.829667522984e-14
