# vtk DataFile Version 3.0
CalculiX dynamic block_block_c3d8 frame 30 t=3.569034000000e-02
ASCII
DATASET UNSTRUCTURED_GRID
POINTS 16 float
-2.500000000000e-01 -2.500000000000e-01 0.000000000000e+00
2.500000000000e-01 -2.500000000000e-01 0.000000000000e+00
-2.500000000000e-01 2.500000000000e-01 0.000000000000e+00
2.500000000000e-01 2.500000000000e-01 0.000000000000e+00
-2.500000000000e-01 -2.500000000000e-01 2.400000000000e-01
2.500000000000e-01 -2.500000000000e-01 2.400000000000e-01
-2.500000000000e-01 2.500000000000e-01 2.400000000000e-01
2.500000000000e-01 2.500000000000e-01 2.400000000000e-01
-2.500224347600e-01 -2.500224347600e-01 2.386079100000e-01
2.500224347600e-01 -2.500224347600e-01 2.386079100000e-01
-2.500224347600e-01 2.500224347600e-01 2.386079100000e-01
2.500224347600e-01 2.500224347600e-01 2.386079100000e-01
-2.500224347600e-01 -2.500224347600e-01 4.985257700000e-01
2.500224347600e-01 -2.500224347600e-01 4.985257700000e-01
-2.500224347600e-01 2.500224347600e-01 4.985257700000e-01
2.500224347600e-01 2.500224347600e-01 4.985257700000e-01
CELLS 2 18
8 0 1 3 2 4 5 7 6
8 8 9 11 10 12 13 15 14
CELL_TYPES 2
12
12
POINT_DATA 16
VECTORS displacement float
0.000000000000e+00 0.000000000000e+00 0.000000000000e+00
0.000000000000e+00 0.000000000000e+00 0.000000000000e+00
0.000000000000e+00 0.000000000000e+00 0.000000000000e+00
0.000000000000e+00 0.000000000000e+00 0.000000000000e+00
0.000000000000e+00 0.000000000000e+00 0.000000000000e+00
0.000000000000e+00 0.000000000000e+00 0.000000000000e+00
0.000000000000e+00 0.000000000000e+00 0.000000000000e+00
0.000000000000e+00 0.000000000000e+00 0.000000000000e+00
-2.243476000000e-05 -2.243476000000e-05 -1.639209000000e-02
2.243476000000e-05 -2.243476000000e-05 -1.639209000000e-02
-2.243476000000e-05 2.243476000000e-05 -1.639209000000e-02
2.243476000000e-05 2.243476000000e-05 -1.639209000000e-02
-2.243476000000e-05 -2.243476000000e-05 -1.647423000000e-02
2.243476000000e-05 -2.243476000000e-05 -1.647423000000e-02
-2.243476000000e-05 2.243476000000e-05 -1.647423000000e-02
2.243476000000e-05 2.243476000000e-05 -1.647423000000e-02
SCALARS displacement_magnitude float 1
LOOKUP_TABLE default
0.000000000000e+00
0.000000000000e+00
0.000000000000e+00
0.000000000000e+00
0.000000000000e+00
0.000000000000e+00
0.000000000000e+00
0.000000000000e+00
1.639212070493e-02
1.639212070493e-02
1.639212070493e-02
1.639212070493e-02
1.647426055184e-02
1.647426055184e-02
1.647426055184e-02
1.647426055184e-02
CELL_DATA 2
SCALARS displacement_magnitude float 1
LOOKUP_TABLE default
0.000000000000e+00
1.643319062838e-02
SCALARS engineering_strain_norm float 1
LOOKUP_TABLE default
0.000000000000e+00
3.404608364156e-04
SCALARS von_mises float 1
LOOKUP_TABLE default
0.000000000000e+00
3.118561310000e+01
