# vtk DataFile Version 3.0
CalculiX dynamic block_block_c3d8 frame 22 t=3.338814000000e-02
ASCII
DATASET UNSTRUCTURED_GRID
POINTS 16 float
-2.500000000000e-01 -2.500000000000e-01 0.000000000000e+00
2.500000000000e-01 -2.500000000000e-01 0.000000000000e+00
-2.500000000000e-01 2.500000000000e-01 0.000000000000e+00
2.500000000000e-01 2.500000000000e-01 0.000000000000e+00
-2.500000000000e-01 -2.500000000000e-01 2.400000000000e-01
2.500000000000e-01 -2.500000000000e-01 2.400000000000e-01
-2.500000000000e-01 2.500000000000e-01 2.400000000000e-01
2.500000000000e-01 2.500000000000e-01 2.400000000000e-01
-2.500028459680e-01 -2.500028459680e-01 2.395382800000e-01
2.500028459680e-01 -2.500028459680e-01 2.395382800000e-01
-2.500028459680e-01 2.500028459680e-01 2.395382800000e-01
2.500028459680e-01 2.500028459680e-01 2.395382800000e-01
-2.500028459680e-01 -2.500028459680e-01 4.995118500000e-01
2.500028459680e-01 -2.500028459680e-01 4.995118500000e-01
-2.500028459680e-01 2.500028459680e-01 4.995118500000e-01
2.500028459680e-01 2.500028459680e-01 4.995118500000e-01
CELLS 2 18
8 0 1 3 2 4 5 7 6
8 8 9 11 10 12 13 15 14
CELL_TYPES 2
12
12
POINT_DATA 16
VECTORS displacement float
0.000000000000e+00 0.000000000000e+00 0.000000000000e+00
0.000000000000e+00 0.000000000000e+00 0.000000000000e+00
0.000000000000e+00 0.000000000000e+00 0.000000000000e+00
0.000000000000e+00 0.000000000000e+00 0.000000000000e+00
0.000000000000e+00 0.000000000000e+00 0.000000000000e+00
0.000000000000e+00 0.000000000000e+00 0.000000000000e+00
0.000000000000e+00 0.000000000000e+00 0.000000000000e+00
0.000000000000e+00 0.000000000000e+00 0.000000000000e+00
-2.845968000000e-06 -2.845968000000e-06 -1.546172000000e-02
2.845968000000e-06 -2.845968000000e-06 -1.546172000000e-02
-2.845968000000e-06 2.845968000000e-06 -1.546172000000e-02
2.845968000000e-06 2.845968000000e-06 -1.546172000000e-02
-2.845968000000e-06 -2.845968000000e-06 -1.548815000000e-02
2.845968000000e-06 -2.845968000000e-06 -1.548815000000e-02
-2.845968000000e-06 2.845968000000e-06 -1.548815000000e-02
2.845968000000e-06 2.845968000000e-06 -1.548815000000e-02
SCALARS displacement_magnitude float 1
LOOKUP_TABLE default
0.000000000000e+00
0.000000000000e+00
0.000000000000e+00
0.000000000000e+00
0.000000000000e+00
0.000000000000e+00
0.000000000000e+00
0.000000000000e+00
1.546172052384e-02
1.546172052384e-02
1.546172052384e-02
1.546172052384e-02
1.548815052295e-02
1.548815052295e-02
1.548815052295e-02
1.548815052295e-02
CELL_DATA 2
SCALARS displacement_magnitude float 1
LOOKUP_TABLE default
0.000000000000e+00
1.547493552340e-02
SCALARS engineering_strain_norm float 1
LOOKUP_TABLE default
0.000000000000e+00
1.029207924634e-04
SCALARS von_mises float 1
LOOKUP_TABLE default
0.000000000000e+00
8.692792000000e+00
