# vtk DataFile Version 3.0
CalculiX dynamic block_block_c3d8 frame 39 t=4.020484000000e-02
ASCII
DATASET UNSTRUCTURED_GRID
POINTS 16 float
-2.500000000000e-01 -2.500000000000e-01 0.000000000000e+00
2.500000000000e-01 -2.500000000000e-01 0.000000000000e+00
-2.500000000000e-01 2.500000000000e-01 0.000000000000e+00
2.500000000000e-01 2.500000000000e-01 0.000000000000e+00
-2.500000000000e-01 -2.500000000000e-01 2.400000000000e-01
2.500000000000e-01 -2.500000000000e-01 2.400000000000e-01
-2.500000000000e-01 2.500000000000e-01 2.400000000000e-01
2.500000000000e-01 2.500000000000e-01 2.400000000000e-01
-2.500034423690e-01 -2.500034423690e-01 2.400708300000e-01
2.500034423690e-01 -2.500034423690e-01 2.400708300000e-01
-2.500034423690e-01 2.500034423690e-01 2.400708300000e-01
2.500034423690e-01 2.500034423690e-01 2.400708300000e-01
-2.500034423690e-01 -2.500034423690e-01 5.000659500000e-01
2.500034423690e-01 -2.500034423690e-01 5.000659500000e-01
-2.500034423690e-01 2.500034423690e-01 5.000659500000e-01
2.500034423690e-01 2.500034423690e-01 5.000659500000e-01
CELLS 2 18
8 0 1 3 2 4 5 7 6
8 8 9 11 10 12 13 15 14
CELL_TYPES 2
12
12
POINT_DATA 16
VECTORS displacement float
0.000000000000e+00 0.000000000000e+00 0.000000000000e+00
0.000000000000e+00 0.000000000000e+00 0.000000000000e+00
0.000000000000e+00 0.000000000000e+00 0.000000000000e+00
0.000000000000e+00 0.000000000000e+00 0.000000000000e+00
0.000000000000e+00 0.000000000000e+00 0.000000000000e+00
0.000000000000e+00 0.000000000000e+00 0.000000000000e+00
0.000000000000e+00 0.000000000000e+00 0.000000000000e+00
0.000000000000e+00 0.000000000000e+00 0.000000000000e+00
-3.442369000000e-06 -3.442369000000e-06 -1.492917000000e-02
3.442369000000e-06 -3.442369000000e-06 -1.492917000000e-02
-3.442369000000e-06 3.442369000000e-06 -1.492917000000e-02
3.442369000000e-06 3.442369000000e-06 -1.492917000000e-02
-3.442369000000e-06 -3.442369000000e-06 -1.493405000000e-02
3.442369000000e-06 -3.442369000000e-06 -1.493405000000e-02
-3.442369000000e-06 3.442369000000e-06 -1.493405000000e-02
3.442369000000e-06 3.442369000000e-06 -1.493405000000e-02
SCALARS displacement_magnitude float 1
LOOKUP_TABLE default
0.000000000000e+00
0.000000000000e+00
0.000000000000e+00
0.000000000000e+00
0.000000000000e+00
0.000000000000e+00
0.000000000000e+00
0.000000000000e+00
1.492917079374e-02
1.492917079374e-02
1.492917079374e-02
1.492917079374e-02
1.493405079348e-02
1.493405079348e-02
1.493405079348e-02
1.493405079348e-02
CELL_DATA 2
SCALARS displacement_magnitude float 1
LOOKUP_TABLE default
0.000000000000e+00
1.493161079361e-02
SCALARS engineering_strain_norm float 1
LOOKUP_TABLE default
0.000000000000e+00
2.704590472323e-05
SCALARS von_mises float 1
LOOKUP_TABLE default
0.000000000000e+00
2.503210300000e+00
