# vtk DataFile Version 3.0
CalculiX dynamic block_block_c3d8 frame 42 t=4.029984000000e-02
ASCII
DATASET UNSTRUCTURED_GRID
POINTS 16 float
-2.500000000000e-01 -2.500000000000e-01 0.000000000000e+00
2.500000000000e-01 -2.500000000000e-01 0.000000000000e+00
-2.500000000000e-01 2.500000000000e-01 0.000000000000e+00
2.500000000000e-01 2.500000000000e-01 0.000000000000e+00
-2.500000000000e-01 -2.500000000000e-01 2.400000000000e-01
2.500000000000e-01 -2.500000000000e-01 2.400000000000e-01
-2.500000000000e-01 2.500000000000e-01 2.400000000000e-01
2.500000000000e-01 2.500000000000e-01 2.400000000000e-01
-2.500026415040e-01 -2.500026415040e-01 2.401284700000e-01
2.500026415040e-01 -2.500026415040e-01 2.401284700000e-01
-2.500026415040e-01 2.500026415040e-01 2.401284700000e-01
2.500026415040e-01 2.500026415040e-01 2.401284700000e-01
-2.500026415040e-01 -2.500026415040e-01 5.001257800000e-01
2.500026415040e-01 -2.500026415040e-01 5.001257800000e-01
-2.500026415040e-01 2.500026415040e-01 5.001257800000e-01
2.500026415040e-01 2.500026415040e-01 5.001257800000e-01
CELLS 2 18
8 0 1 3 2 4 5 7 6
8 8 9 11 10 12 13 15 14
CELL_TYPES 2
12
12
POINT_DATA 16
VECTORS displacement float
0.000000000000e+00 0.000000000000e+00 0.000000000000e+00
0.000000000000e+00 0.000000000000e+00 0.000000000000e+00
0.000000000000e+00 0.000000000000e+00 0.000000000000e+00
0.000000000000e+00 0.000000000000e+00 0.000000000000e+00
0.000000000000e+00 0.000000000000e+00 0.000000000000e+00
0.000000000000e+00 0.000000000000e+00 0.000000000000e+00
0.000000000000e+00 0.000000000000e+00 0.000000000000e+00
0.000000000000e+00 0.000000000000e+00 0.000000000000e+00
-2.641504000000e-06 -2.641504000000e-06 -1.487153000000e-02
2.641504000000e-06 -2.641504000000e-06 -1.487153000000e-02
-2.641504000000e-06 2.641504000000e-06 -1.487153000000e-02
2.641504000000e-06 2.641504000000e-06 -1.487153000000e-02
-2.641504000000e-06 -2.641504000000e-06 -1.487422000000e-02
2.641504000000e-06 -2.641504000000e-06 -1.487422000000e-02
-2.641504000000e-06 2.641504000000e-06 -1.487422000000e-02
2.641504000000e-06 2.641504000000e-06 -1.487422000000e-02
SCALARS displacement_magnitude float 1
LOOKUP_TABLE default
0.000000000000e+00
0.000000000000e+00
0.000000000000e+00
0.000000000000e+00
0.000000000000e+00
0.000000000000e+00
0.000000000000e+00
0.000000000000e+00
1.487153046919e-02
1.487153046919e-02
1.487153046919e-02
1.487153046919e-02
1.487422046910e-02
1.487422046910e-02
1.487422046910e-02
1.487422046910e-02
CELL_DATA 2
SCALARS displacement_magnitude float 1
LOOKUP_TABLE default
0.000000000000e+00
1.487287546915e-02
SCALARS engineering_strain_norm float 1
LOOKUP_TABLE default
0.000000000000e+00
1.817482565618e-05
SCALARS von_mises float 1
LOOKUP_TABLE default
0.000000000000e+00
1.609263900000e+00
