# vtk DataFile Version 3.0
CalculiX dynamic block_block_c3d8 frame 20 t=3.303875000000e-02
ASCII
DATASET UNSTRUCTURED_GRID
POINTS 16 float
-2.500000000000e-01 -2.500000000000e-01 0.000000000000e+00
2.500000000000e-01 -2.500000000000e-01 0.000000000000e+00
-2.500000000000e-01 2.500000000000e-01 0.000000000000e+00
2.500000000000e-01 2.500000000000e-01 0.000000000000e+00
-2.500000000000e-01 -2.500000000000e-01 2.400000000000e-01
2.500000000000e-01 -2.500000000000e-01 2.400000000000e-01
-2.500000000000e-01 2.500000000000e-01 2.400000000000e-01
2.500000000000e-01 2.500000000000e-01 2.400000000000e-01
-2.500002809033e-01 -2.500002809033e-01 2.397396300000e-01
2.500002809033e-01 -2.500002809033e-01 2.397396300000e-01
-2.500002809033e-01 2.500002809033e-01 2.397396300000e-01
2.500002809033e-01 2.500002809033e-01 2.397396300000e-01
-2.500002809033e-01 -2.500002809033e-01 4.997322800000e-01
2.500002809033e-01 -2.500002809033e-01 4.997322800000e-01
-2.500002809033e-01 2.500002809033e-01 4.997322800000e-01
2.500002809033e-01 2.500002809033e-01 4.997322800000e-01
CELLS 2 18
8 0 1 3 2 4 5 7 6
8 8 9 11 10 12 13 15 14
CELL_TYPES 2
12
12
POINT_DATA 16
VECTORS displacement float
0.000000000000e+00 0.000000000000e+00 0.000000000000e+00
0.000000000000e+00 0.000000000000e+00 0.000000000000e+00
0.000000000000e+00 0.000000000000e+00 0.000000000000e+00
0.000000000000e+00 0.000000000000e+00 0.000000000000e+00
0.000000000000e+00 0.000000000000e+00 0.000000000000e+00
0.000000000000e+00 0.000000000000e+00 0.000000000000e+00
0.000000000000e+00 0.000000000000e+00 0.000000000000e+00
0.000000000000e+00 0.000000000000e+00 0.000000000000e+00
-2.809033000000e-07 -2.809033000000e-07 -1.526037000000e-02
2.809033000000e-07 -2.809033000000e-07 -1.526037000000e-02
-2.809033000000e-07 2.809033000000e-07 -1.526037000000e-02
2.809033000000e-07 2.809033000000e-07 -1.526037000000e-02
-2.809033000000e-07 -2.809033000000e-07 -1.526772000000e-02
2.809033000000e-07 -2.809033000000e-07 -1.526772000000e-02
-2.809033000000e-07 2.809033000000e-07 -1.526772000000e-02
2.809033000000e-07 2.809033000000e-07 -1.526772000000e-02
SCALARS displacement_magnitude float 1
LOOKUP_TABLE default
0.000000000000e+00
0.000000000000e+00
0.000000000000e+00
0.000000000000e+00
0.000000000000e+00
0.000000000000e+00
0.000000000000e+00
0.000000000000e+00
1.526037000517e-02
1.526037000517e-02
1.526037000517e-02
1.526037000517e-02
1.526772000517e-02
1.526772000517e-02
1.526772000517e-02
1.526772000517e-02
CELL_DATA 2
SCALARS displacement_magnitude float 1
LOOKUP_TABLE default
0.000000000000e+00
1.526404500517e-02
SCALARS engineering_strain_norm float 1
LOOKUP_TABLE default
0.000000000000e+00
2.831385564578e-05
SCALARS von_mises float 1
LOOKUP_TABLE default
0.000000000000e+00
2.260061000000e+00
