# vtk DataFile Version 3.0
CalculiX dynamic block_block_c3d8 frame 15 t=3.200000000000e-02
ASCII
DATASET UNSTRUCTURED_GRID
POINTS 16 float
-2.500000000000e-01 -2.500000000000e-01 0.000000000000e+00
2.500000000000e-01 -2.500000000000e-01 0.000000000000e+00
-2.500000000000e-01 2.500000000000e-01 0.000000000000e+00
2.500000000000e-01 2.500000000000e-01 0.000000000000e+00
-2.500000000000e-01 -2.500000000000e-01 2.400000000000e-01
2.500000000000e-01 -2.500000000000e-01 2.400000000000e-01
-2.500000000000e-01 2.500000000000e-01 2.400000000000e-01
2.500000000000e-01 2.500000000000e-01 2.400000000000e-01
-2.500000000000e-01 -2.500000000000e-01 2.403772800000e-01
2.500000000000e-01 -2.500000000000e-01 2.403772800000e-01
-2.500000000000e-01 2.500000000000e-01 2.403772800000e-01
2.500000000000e-01 2.500000000000e-01 2.403772800000e-01
-2.500000000000e-01 -2.500000000000e-01 5.003772800000e-01
2.500000000000e-01 -2.500000000000e-01 5.003772800000e-01
-2.500000000000e-01 2.500000000000e-01 5.003772800000e-01
2.500000000000e-01 2.500000000000e-01 5.003772800000e-01
CELLS 2 18
8 0 1 3 2 4 5 7 6
8 8 9 11 10 12 13 15 14
CELL_TYPES 2
12
12
POINT_DATA 16
VECTORS displacement float
0.000000000000e+00 0.000000000000e+00 0.000000000000e+00
0.000000000000e+00 0.000000000000e+00 0.000000000000e+00
0.000000000000e+00 0.000000000000e+00 0.000000000000e+00
0.000000000000e+00 0.000000000000e+00 0.000000000000e+00
0.000000000000e+00 0.000000000000e+00 0.000000000000e+00
0.000000000000e+00 0.000000000000e+00 0.000000000000e+00
0.000000000000e+00 0.000000000000e+00 0.000000000000e+00
0.000000000000e+00 0.000000000000e+00 0.000000000000e+00
-1.009865000000e-18 3.973725000000e-19 -1.462272000000e-02
-1.825541000000e-19 2.067982000000e-19 -1.462272000000e-02
4.998352000000e-19 -1.625954000000e-19 -1.462272000000e-02
-3.226435000000e-19 7.256733000000e-19 -1.462272000000e-02
8.299205000000e-19 -5.904609000000e-19 -1.462272000000e-02
3.624838000000e-19 -3.657001000000e-19 -1.462272000000e-02
-6.718063000000e-19 3.565838000000e-19 -1.462272000000e-02
4.955922000000e-19 -5.668590000000e-19 -1.462272000000e-02
SCALARS displacement_magnitude float 1
LOOKUP_TABLE default
0.000000000000e+00
0.000000000000e+00
0.000000000000e+00
0.000000000000e+00
0.000000000000e+00
0.000000000000e+00
0.000000000000e+00
0.000000000000e+00
1.462272000000e-02
1.462272000000e-02
1.462272000000e-02
1.462272000000e-02
1.462272000000e-02
1.462272000000e-02
1.462272000000e-02
1.462272000000e-02
CELL_DATA 2
SCALARS displacement_magnitude float 1
LOOKUP_TABLE default
0.000000000000e+00
1.462272000000e-02
SCALARS engineering_strain_norm float 1
LOOKUP_TABLE default
0.000000000000e+00
3.016439163308e-18
SCALARS von_mises float 1
LOOKUP_TABLE default
0.000000000000e+00
1.207565282497e-13
