# vtk DataFile Version 3.0
CalculiX dynamic block_block_c3d8 frame 43 t=4.036734000000e-02
ASCII
DATASET UNSTRUCTURED_GRID
POINTS 16 float
-2.500000000000e-01 -2.500000000000e-01 0.000000000000e+00
2.500000000000e-01 -2.500000000000e-01 0.000000000000e+00
-2.500000000000e-01 2.500000000000e-01 0.000000000000e+00
2.500000000000e-01 2.500000000000e-01 0.000000000000e+00
-2.500000000000e-01 -2.500000000000e-01 2.400000000000e-01
2.500000000000e-01 -2.500000000000e-01 2.400000000000e-01
-2.500000000000e-01 2.500000000000e-01 2.400000000000e-01
2.500000000000e-01 2.500000000000e-01 2.400000000000e-01
-2.500019782170e-01 -2.500019782170e-01 2.401693500000e-01
2.500019782170e-01 -2.500019782170e-01 2.401693500000e-01
-2.500019782170e-01 2.500019782170e-01 2.401693500000e-01
2.500019782170e-01 2.500019782170e-01 2.401693500000e-01
-2.500019782170e-01 -2.500019782170e-01 5.001682600000e-01
2.500019782170e-01 -2.500019782170e-01 5.001682600000e-01
-2.500019782170e-01 2.500019782170e-01 5.001682600000e-01
2.500019782170e-01 2.500019782170e-01 5.001682600000e-01
CELLS 2 18
8 0 1 3 2 4 5 7 6
8 8 9 11 10 12 13 15 14
CELL_TYPES 2
12
12
POINT_DATA 16
VECTORS displacement float
0.000000000000e+00 0.000000000000e+00 0.000000000000e+00
0.000000000000e+00 0.000000000000e+00 0.000000000000e+00
0.000000000000e+00 0.000000000000e+00 0.000000000000e+00
0.000000000000e+00 0.000000000000e+00 0.000000000000e+00
0.000000000000e+00 0.000000000000e+00 0.000000000000e+00
0.000000000000e+00 0.000000000000e+00 0.000000000000e+00
0.000000000000e+00 0.000000000000e+00 0.000000000000e+00
0.000000000000e+00 0.000000000000e+00 0.000000000000e+00
-1.978217000000e-06 -1.978217000000e-06 -1.483065000000e-02
1.978217000000e-06 -1.978217000000e-06 -1.483065000000e-02
-1.978217000000e-06 1.978217000000e-06 -1.483065000000e-02
1.978217000000e-06 1.978217000000e-06 -1.483065000000e-02
-1.978217000000e-06 -1.978217000000e-06 -1.483174000000e-02
1.978217000000e-06 -1.978217000000e-06 -1.483174000000e-02
-1.978217000000e-06 1.978217000000e-06 -1.483174000000e-02
1.978217000000e-06 1.978217000000e-06 -1.483174000000e-02
SCALARS displacement_magnitude float 1
LOOKUP_TABLE default
0.000000000000e+00
0.000000000000e+00
0.000000000000e+00
0.000000000000e+00
0.000000000000e+00
0.000000000000e+00
0.000000000000e+00
0.000000000000e+00
1.483065026387e-02
1.483065026387e-02
1.483065026387e-02
1.483065026387e-02
1.483174026385e-02
1.483174026385e-02
1.483174026385e-02
1.483174026385e-02
CELL_DATA 2
SCALARS displacement_magnitude float 1
LOOKUP_TABLE default
0.000000000000e+00
1.483119526386e-02
SCALARS engineering_strain_norm float 1
LOOKUP_TABLE default
0.000000000000e+00
1.194999597313e-05
SCALARS von_mises float 1
LOOKUP_TABLE default
0.000000000000e+00
9.283619000000e-01
