# vtk DataFile Version 3.0
CalculiX dynamic block_block_c3d8 frame 36 t=3.901989000000e-02
ASCII
DATASET UNSTRUCTURED_GRID
POINTS 16 float
-2.500000000000e-01 -2.500000000000e-01 0.000000000000e+00
2.500000000000e-01 -2.500000000000e-01 0.000000000000e+00
-2.500000000000e-01 2.500000000000e-01 0.000000000000e+00
2.500000000000e-01 2.500000000000e-01 0.000000000000e+00
-2.500000000000e-01 -2.500000000000e-01 2.400000000000e-01
2.500000000000e-01 -2.500000000000e-01 2.400000000000e-01
-2.500000000000e-01 2.500000000000e-01 2.400000000000e-01
2.500000000000e-01 2.500000000000e-01 2.400000000000e-01
-2.500067144880e-01 -2.500067144880e-01 2.393741500000e-01
2.500067144880e-01 -2.500067144880e-01 2.393741500000e-01
-2.500067144880e-01 2.500067144880e-01 2.393741500000e-01
2.500067144880e-01 2.500067144880e-01 2.393741500000e-01
-2.500067144880e-01 -2.500067144880e-01 4.993397000000e-01
2.500067144880e-01 -2.500067144880e-01 4.993397000000e-01
-2.500067144880e-01 2.500067144880e-01 4.993397000000e-01
2.500067144880e-01 2.500067144880e-01 4.993397000000e-01
CELLS 2 18
8 0 1 3 2 4 5 7 6
8 8 9 11 10 12 13 15 14
CELL_TYPES 2
12
12
POINT_DATA 16
VECTORS displacement float
0.000000000000e+00 0.000000000000e+00 0.000000000000e+00
0.000000000000e+00 0.000000000000e+00 0.000000000000e+00
0.000000000000e+00 0.000000000000e+00 0.000000000000e+00
0.000000000000e+00 0.000000000000e+00 0.000000000000e+00
0.000000000000e+00 0.000000000000e+00 0.000000000000e+00
0.000000000000e+00 0.000000000000e+00 0.000000000000e+00
0.000000000000e+00 0.000000000000e+00 0.000000000000e+00
0.000000000000e+00 0.000000000000e+00 0.000000000000e+00
-6.714488000000e-06 -6.714488000000e-06 -1.562585000000e-02
6.714488000000e-06 -6.714488000000e-06 -1.562585000000e-02
-6.714488000000e-06 6.714488000000e-06 -1.562585000000e-02
6.714488000000e-06 6.714488000000e-06 -1.562585000000e-02
-6.714488000000e-06 -6.714488000000e-06 -1.566030000000e-02
6.714488000000e-06 -6.714488000000e-06 -1.566030000000e-02
-6.714488000000e-06 6.714488000000e-06 -1.566030000000e-02
6.714488000000e-06 6.714488000000e-06 -1.566030000000e-02
SCALARS displacement_magnitude float 1
LOOKUP_TABLE default
0.000000000000e+00
0.000000000000e+00
0.000000000000e+00
0.000000000000e+00
0.000000000000e+00
0.000000000000e+00
0.000000000000e+00
0.000000000000e+00
1.562585288524e-02
1.562585288524e-02
1.562585288524e-02
1.562585288524e-02
1.566030287889e-02
1.566030287889e-02
1.566030287889e-02
1.566030287889e-02
CELL_DATA 2
SCALARS displacement_magnitude float 1
LOOKUP_TABLE default
0.000000000000e+00
1.564307788207e-02
SCALARS engineering_strain_norm float 1
LOOKUP_TABLE default
0.000000000000e+00
1.378366757118e-04
SCALARS von_mises float 1
LOOKUP_TABLE default
0.000000000000e+00
1.225329600000e+01
