# vtk DataFile Version 3.0
CalculiX dynamic block_block_c3d8 frame 25 t=3.405449000000e-02
ASCII
DATASET UNSTRUCTURED_GRID
POINTS 16 float
-2.500000000000e-01 -2.500000000000e-01 0.000000000000e+00
2.500000000000e-01 -2.500000000000e-01 0.000000000000e+00
-2.500000000000e-01 2.500000000000e-01 0.000000000000e+00
2.500000000000e-01 2.500000000000e-01 0.000000000000e+00
-2.500000000000e-01 -2.500000000000e-01 2.400000000000e-01
2.500000000000e-01 -2.500000000000e-01 2.400000000000e-01
-2.500000000000e-01 2.500000000000e-01 2.400000000000e-01
2.500000000000e-01 2.500000000000e-01 2.400000000000e-01
-2.500183882200e-01 -2.500183882200e-01 2.391804200000e-01
2.500183882200e-01 -2.500183882200e-01 2.391804200000e-01
-2.500183882200e-01 2.500183882200e-01 2.391804200000e-01
2.500183882200e-01 2.500183882200e-01 2.391804200000e-01
-2.500183882200e-01 -2.500183882200e-01 4.991264300000e-01
2.500183882200e-01 -2.500183882200e-01 4.991264300000e-01
-2.500183882200e-01 2.500183882200e-01 4.991264300000e-01
2.500183882200e-01 2.500183882200e-01 4.991264300000e-01
CELLS 2 18
8 0 1 3 2 4 5 7 6
8 8 9 11 10 12 13 15 14
CELL_TYPES 2
12
12
POINT_DATA 16
VECTORS displacement float
0.000000000000e+00 0.000000000000e+00 0.000000000000e+00
0.000000000000e+00 0.000000000000e+00 0.000000000000e+00
0.000000000000e+00 0.000000000000e+00 0.000000000000e+00
0.000000000000e+00 0.000000000000e+00 0.000000000000e+00
0.000000000000e+00 0.000000000000e+00 0.000000000000e+00
0.000000000000e+00 0.000000000000e+00 0.000000000000e+00
0.000000000000e+00 0.000000000000e+00 0.000000000000e+00
0.000000000000e+00 0.000000000000e+00 0.000000000000e+00
-1.838822000000e-05 -1.838822000000e-05 -1.581958000000e-02
1.838822000000e-05 -1.838822000000e-05 -1.581958000000e-02
-1.838822000000e-05 1.838822000000e-05 -1.581958000000e-02
1.838822000000e-05 1.838822000000e-05 -1.581958000000e-02
-1.838822000000e-05 -1.838822000000e-05 -1.587357000000e-02
1.838822000000e-05 -1.838822000000e-05 -1.587357000000e-02
-1.838822000000e-05 1.838822000000e-05 -1.587357000000e-02
1.838822000000e-05 1.838822000000e-05 -1.587357000000e-02
SCALARS displacement_magnitude float 1
LOOKUP_TABLE default
0.000000000000e+00
0.000000000000e+00
0.000000000000e+00
0.000000000000e+00
0.000000000000e+00
0.000000000000e+00
0.000000000000e+00
0.000000000000e+00
1.581960137392e-02
1.581960137392e-02
1.581960137392e-02
1.581960137392e-02
1.587359130122e-02
1.587359130122e-02
1.587359130122e-02
1.587359130122e-02
CELL_DATA 2
SCALARS displacement_magnitude float 1
LOOKUP_TABLE default
0.000000000000e+00
1.584659633757e-02
SCALARS engineering_strain_norm float 1
LOOKUP_TABLE default
0.000000000000e+00
2.322502360280e-04
SCALARS von_mises float 1
LOOKUP_TABLE default
0.000000000000e+00
2.162462700000e+01
