# vtk DataFile Version 3.0
CalculiX dynamic block_block_c3d8 frame 14 t=3.000000000000e-02
ASCII
DATASET UNSTRUCTURED_GRID
POINTS 16 float
-2.500000000000e-01 -2.500000000000e-01 0.000000000000e+00
2.500000000000e-01 -2.500000000000e-01 0.000000000000e+00
-2.500000000000e-01 2.500000000000e-01 0.000000000000e+00
2.500000000000e-01 2.500000000000e-01 0.000000000000e+00
-2.500000000000e-01 -2.500000000000e-01 2.400000000000e-01
2.500000000000e-01 -2.500000000000e-01 2.400000000000e-01
-2.500000000000e-01 2.500000000000e-01 2.400000000000e-01
2.500000000000e-01 2.500000000000e-01 2.400000000000e-01
-2.500000000000e-01 -2.500000000000e-01 2.415855000000e-01
2.500000000000e-01 -2.500000000000e-01 2.415855000000e-01
-2.500000000000e-01 2.500000000000e-01 2.415855000000e-01
2.500000000000e-01 2.500000000000e-01 2.415855000000e-01
-2.500000000000e-01 -2.500000000000e-01 5.015855000000e-01
2.500000000000e-01 -2.500000000000e-01 5.015855000000e-01
-2.500000000000e-01 2.500000000000e-01 5.015855000000e-01
2.500000000000e-01 2.500000000000e-01 5.015855000000e-01
CELLS 2 18
8 0 1 3 2 4 5 7 6
8 8 9 11 10 12 13 15 14
CELL_TYPES 2
12
12
POINT_DATA 16
VECTORS displacement float
0.000000000000e+00 0.000000000000e+00 0.000000000000e+00
0.000000000000e+00 0.000000000000e+00 0.000000000000e+00
0.000000000000e+00 0.000000000000e+00 0.000000000000e+00
0.000000000000e+00 0.000000000000e+00 0.000000000000e+00
0.000000000000e+00 0.000000000000e+00 0.000000000000e+00
0.000000000000e+00 0.000000000000e+00 0.000000000000e+00
0.000000000000e+00 0.000000000000e+00 0.000000000000e+00
0.000000000000e+00 0.000000000000e+00 0.000000000000e+00
-4.221590000000e-20 2.176486000000e-21 -1.341450000000e-02
1.780806000000e-19 5.628940000000e-19 -1.341450000000e-02
1.509949000000e-19 3.908754000000e-19 -1.341450000000e-02
-4.870779000000e-19 -1.796123000000e-19 -1.341450000000e-02
2.410971000000e-19 4.236468000000e-19 -1.341450000000e-02
-3.769743000000e-19 -3.933911000000e-19 -1.341450000000e-02
2.455205000000e-19 -8.158552000000e-19 -1.341450000000e-02
9.147558000000e-20 1.002594000000e-20 -1.341450000000e-02
SCALARS displacement_magnitude float 1
LOOKUP_TABLE default
0.000000000000e+00
0.000000000000e+00
0.000000000000e+00
0.000000000000e+00
0.000000000000e+00
0.000000000000e+00
0.000000000000e+00
0.000000000000e+00
1.341450000000e-02
1.341450000000e-02
1.341450000000e-02
1.341450000000e-02
1.341450000000e-02
1.341450000000e-02
1.341450000000e-02
1.341450000000e-02
CELL_DATA 2
SCALARS displacement_magnitude float 1
LOOKUP_TABLE default
0.000000000000e+00
1.341450000000e-02
SCALARS engineering_strain_norm float 1
LOOKUP_TABLE default
0.000000000000e+00
3.888524100563e-18
SCALARS von_mises float 1
LOOKUP_TABLE default
0.000000000000e+00
1.475930044838e-13
