# vtk DataFile Version 3.0
CalculiX dynamic block_block_c3d8 frame 26 t=3.432243000000e-02
ASCII
DATASET UNSTRUCTURED_GRID
POINTS 16 float
-2.500000000000e-01 -2.500000000000e-01 0.000000000000e+00
2.500000000000e-01 -2.500000000000e-01 0.000000000000e+00
-2.500000000000e-01 2.500000000000e-01 0.000000000000e+00
2.500000000000e-01 2.500000000000e-01 0.000000000000e+00
-2.500000000000e-01 -2.500000000000e-01 2.400000000000e-01
2.500000000000e-01 -2.500000000000e-01 2.400000000000e-01
-2.500000000000e-01 2.500000000000e-01 2.400000000000e-01
2.500000000000e-01 2.500000000000e-01 2.400000000000e-01
-2.500239929700e-01 -2.500239929700e-01 2.390531600000e-01
2.500239929700e-01 -2.500239929700e-01 2.390531600000e-01
-2.500239929700e-01 2.500239929700e-01 2.390531600000e-01
2.500239929700e-01 2.500239929700e-01 2.390531600000e-01
-2.500239929700e-01 -2.500239929700e-01 4.989884700000e-01
2.500239929700e-01 -2.500239929700e-01 4.989884700000e-01
-2.500239929700e-01 2.500239929700e-01 4.989884700000e-01
2.500239929700e-01 2.500239929700e-01 4.989884700000e-01
CELLS 2 18
8 0 1 3 2 4 5 7 6
8 8 9 11 10 12 13 15 14
CELL_TYPES 2
12
12
POINT_DATA 16
VECTORS displacement float
0.000000000000e+00 0.000000000000e+00 0.000000000000e+00
0.000000000000e+00 0.000000000000e+00 0.000000000000e+00
0.000000000000e+00 0.000000000000e+00 0.000000000000e+00
0.000000000000e+00 0.000000000000e+00 0.000000000000e+00
0.000000000000e+00 0.000000000000e+00 0.000000000000e+00
0.000000000000e+00 0.000000000000e+00 0.000000000000e+00
0.000000000000e+00 0.000000000000e+00 0.000000000000e+00
0.000000000000e+00 0.000000000000e+00 0.000000000000e+00
-2.399297000000e-05 -2.399297000000e-05 -1.594684000000e-02
2.399297000000e-05 -2.399297000000e-05 -1.594684000000e-02
-2.399297000000e-05 2.399297000000e-05 -1.594684000000e-02
2.399297000000e-05 2.399297000000e-05 -1.594684000000e-02
-2.399297000000e-05 -2.399297000000e-05 -1.601153000000e-02
2.399297000000e-05 -2.399297000000e-05 -1.601153000000e-02
-2.399297000000e-05 2.399297000000e-05 -1.601153000000e-02
2.399297000000e-05 2.399297000000e-05 -1.601153000000e-02
SCALARS displacement_magnitude float 1
LOOKUP_TABLE default
0.000000000000e+00
0.000000000000e+00
0.000000000000e+00
0.000000000000e+00
0.000000000000e+00
0.000000000000e+00
0.000000000000e+00
0.000000000000e+00
1.594687609881e-02
1.594687609881e-02
1.594687609881e-02
1.594687609881e-02
1.601156595296e-02
1.601156595296e-02
1.601156595296e-02
1.601156595296e-02
CELL_DATA 2
SCALARS displacement_magnitude float 1
LOOKUP_TABLE default
0.000000000000e+00
1.597922102589e-02
SCALARS engineering_strain_norm float 1
LOOKUP_TABLE default
0.000000000000e+00
2.834192499689e-04
SCALARS von_mises float 1
LOOKUP_TABLE default
0.000000000000e+00
2.651060200000e+01
