# vtk DataFile Version 3.0
CalculiX dynamic block_block_c3d8 frame 66 t=7.535470000000e-02
ASCII
DATASET UNSTRUCTURED_GRID
POINTS 16 float
-2.500000000000e-01 -2.500000000000e-01 0.000000000000e+00
2.500000000000e-01 -2.500000000000e-01 0.000000000000e+00
-2.500000000000e-01 2.500000000000e-01 0.000000000000e+00
2.500000000000e-01 2.500000000000e-01 0.000000000000e+00
-2.500000000000e-01 -2.500000000000e-01 2.400000000000e-01
2.500000000000e-01 -2.500000000000e-01 2.400000000000e-01
-2.500000000000e-01 2.500000000000e-01 2.400000000000e-01
2.500000000000e-01 2.500000000000e-01 2.400000000000e-01
-2.500009399151e-01 -2.500009399151e-01 2.557568703000e-01
2.500009399151e-01 -2.500009399151e-01 2.557568703000e-01
-2.500009399151e-01 2.500009399151e-01 2.557568703000e-01
2.500009399151e-01 2.500009399151e-01 2.557568703000e-01
-2.500009399151e-01 -2.500009399151e-01 5.157553095000e-01
2.500009399151e-01 -2.500009399151e-01 5.157553095000e-01
-2.500009399151e-01 2.500009399151e-01 5.157553095000e-01
2.500009399151e-01 2.500009399151e-01 5.157553095000e-01
CELLS 2 18
8 0 1 3 2 4 5 7 6
8 8 9 11 10 12 13 15 14
CELL_TYPES 2
12
12
POINT_DATA 16
VECTORS displacement float
0.000000000000e+00 0.000000000000e+00 0.000000000000e+00
0.000000000000e+00 0.000000000000e+00 0.000000000000e+00
0.000000000000e+00 0.000000000000e+00 0.000000000000e+00
0.000000000000e+00 0.000000000000e+00 0.000000000000e+00
0.000000000000e+00 0.000000000000e+00 0.000000000000e+00
0.000000000000e+00 0.000000000000e+00 0.000000000000e+00
0.000000000000e+00 0.000000000000e+00 0.000000000000e+00
0.000000000000e+00 0.000000000000e+00 0.000000000000e+00
-9.399151000000e-07 -9.399151000000e-07 7.568703000000e-04
9.399151000000e-07 -9.399151000000e-07 7.568703000000e-04
-9.399151000000e-07 9.399151000000e-07 7.568703000000e-04
9.399151000000e-07 9.399151000000e-07 7.568703000000e-04
-9.399151000000e-07 -9.399151000000e-07 7.553095000000e-04
9.399151000000e-07 -9.399151000000e-07 7.553095000000e-04
-9.399151000000e-07 9.399151000000e-07 7.553095000000e-04
9.399151000000e-07 9.399151000000e-07 7.553095000000e-04
SCALARS displacement_magnitude float 1
LOOKUP_TABLE default
0.000000000000e+00
0.000000000000e+00
0.000000000000e+00
0.000000000000e+00
0.000000000000e+00
0.000000000000e+00
0.000000000000e+00
0.000000000000e+00
7.568714672273e-04
7.568714672273e-04
7.568714672273e-04
7.568714672273e-04
7.553106696393e-04
7.553106696393e-04
7.553106696393e-04
7.553106696393e-04
CELL_DATA 2
SCALARS displacement_magnitude float 1
LOOKUP_TABLE default
0.000000000000e+00
7.560910684333e-04
SCALARS engineering_strain_norm float 1
LOOKUP_TABLE default
0.000000000000e+00
8.019166115690e-06
SCALARS von_mises float 1
LOOKUP_TABLE default
0.000000000000e+00
7.509824000000e-01
