# vtk DataFile Version 3.0
CalculiX dynamic block_block_c3d8 frame 67 t=7.735470000000e-02
ASCII
DATASET UNSTRUCTURED_GRID
POINTS 16 float
-2.500000000000e-01 -2.500000000000e-01 0.000000000000e+00
2.500000000000e-01 -2.500000000000e-01 0.000000000000e+00
-2.500000000000e-01 2.500000000000e-01 0.000000000000e+00
2.500000000000e-01 2.500000000000e-01 0.000000000000e+00
-2.500000000000e-01 -2.500000000000e-01 2.400000000000e-01
2.500000000000e-01 -2.500000000000e-01 2.400000000000e-01
-2.500000000000e-01 2.500000000000e-01 2.400000000000e-01
2.500000000000e-01 2.500000000000e-01 2.400000000000e-01
-2.499985163490e-01 -2.499985163490e-01 2.562832470000e-01
2.499985163490e-01 -2.499985163490e-01 2.562832470000e-01
-2.499985163490e-01 2.499985163490e-01 2.562832470000e-01
2.499985163490e-01 2.499985163490e-01 2.562832470000e-01
-2.499985163490e-01 -2.499985163490e-01 5.162852890000e-01
2.499985163490e-01 -2.499985163490e-01 5.162852890000e-01
-2.499985163490e-01 2.499985163490e-01 5.162852890000e-01
2.499985163490e-01 2.499985163490e-01 5.162852890000e-01
CELLS 2 18
8 0 1 3 2 4 5 7 6
8 8 9 11 10 12 13 15 14
CELL_TYPES 2
12
12
POINT_DATA 16
VECTORS displacement float
0.000000000000e+00 0.000000000000e+00 0.000000000000e+00
0.000000000000e+00 0.000000000000e+00 0.000000000000e+00
0.000000000000e+00 0.000000000000e+00 0.000000000000e+00
0.000000000000e+00 0.000000000000e+00 0.000000000000e+00
0.000000000000e+00 0.000000000000e+00 0.000000000000e+00
0.000000000000e+00 0.000000000000e+00 0.000000000000e+00
0.000000000000e+00 0.000000000000e+00 0.000000000000e+00
0.000000000000e+00 0.000000000000e+00 0.000000000000e+00
1.483651000000e-06 1.483651000000e-06 1.283247000000e-03
-1.483651000000e-06 1.483651000000e-06 1.283247000000e-03
1.483651000000e-06 -1.483651000000e-06 1.283247000000e-03
-1.483651000000e-06 -1.483651000000e-06 1.283247000000e-03
1.483651000000e-06 1.483651000000e-06 1.285289000000e-03
-1.483651000000e-06 1.483651000000e-06 1.285289000000e-03
1.483651000000e-06 -1.483651000000e-06 1.285289000000e-03
-1.483651000000e-06 -1.483651000000e-06 1.285289000000e-03
SCALARS displacement_magnitude float 1
LOOKUP_TABLE default
0.000000000000e+00
0.000000000000e+00
0.000000000000e+00
0.000000000000e+00
0.000000000000e+00
0.000000000000e+00
0.000000000000e+00
0.000000000000e+00
1.283248715351e-03
1.283248715351e-03
1.283248715351e-03
1.283248715351e-03
1.285290712626e-03
1.285290712626e-03
1.285290712626e-03
1.285290712626e-03
CELL_DATA 2
SCALARS displacement_magnitude float 1
LOOKUP_TABLE default
0.000000000000e+00
1.284269713988e-03
SCALARS engineering_strain_norm float 1
LOOKUP_TABLE default
0.000000000000e+00
1.149443120306e-05
SCALARS von_mises float 1
LOOKUP_TABLE default
0.000000000000e+00
1.060531600000e+00
