# vtk DataFile Version 3.0
SFC minus CalculiX common-time error block_plane_c3d8 frame 7 t=1.400000000000e-02
ASCII
DATASET UNSTRUCTURED_GRID
POINTS 8 float
-2.500000000000e-01 -2.500000000000e-01 1.483862000000e-02
2.500000000000e-01 -2.500000000000e-01 1.483862000000e-02
-2.500000000000e-01 2.500000000000e-01 1.483862000000e-02
2.500000000000e-01 2.500000000000e-01 1.483862000000e-02
-2.500000000000e-01 -2.500000000000e-01 3.148386200000e-01
2.500000000000e-01 -2.500000000000e-01 3.148386200000e-01
-2.500000000000e-01 2.500000000000e-01 3.148386200000e-01
2.500000000000e-01 2.500000000000e-01 3.148386200000e-01
CELLS 1 9
8 0 1 3 2 4 5 7 6
CELL_TYPES 1
12
POINT_DATA 8
VECTORS sfc_displacement float
4.009742868690e-17 -2.195402916019e-18 -5.161380000000e-03
3.983403594123e-17 1.852441143620e-17 -5.161380000000e-03
3.801544771198e-17 1.009143556960e-19 -5.161380000000e-03
3.915034891725e-17 1.587381230113e-17 -5.161380000000e-03
-2.408844663651e-17 -2.829872583199e-17 -5.161380000000e-03
-2.062663442927e-17 -2.566199235176e-17 -5.161380000000e-03
-4.084340448935e-17 -2.657147963129e-17 -5.161380000000e-03
-4.285653393538e-17 -2.609430752248e-17 -5.161380000000e-03
VECTORS calculix_displacement float
1.766446000000e-19 -2.162712000000e-20 -5.161380000000e-03
-2.622366000000e-20 1.808493000000e-19 -5.161380000000e-03
-5.836972000000e-20 9.413170000000e-20 -5.161380000000e-03
1.055094000000e-19 1.372463000000e-19 -5.161380000000e-03
-2.528183000000e-19 4.549164000000e-21 -5.161380000000e-03
1.025718000000e-19 -2.154655000000e-19 -5.161380000000e-03
8.292689000000e-20 -7.693145000000e-20 -5.161380000000e-03
-1.298715000000e-19 -1.025496000000e-19 -5.161380000000e-03
VECTORS displacement_error float
3.992078408690e-17 -2.173775796019e-18 -7.892991815694e-17
3.986025960123e-17 1.834356213620e-17 1.647987302178e-17
3.807381743198e-17 6.782655696040e-21 -4.510281037540e-17
3.904483951725e-17 1.573656600113e-17 9.887923813068e-17
-2.383562833651e-17 -2.830327499599e-17 -8.153200337091e-17
-2.072920622927e-17 -2.544652685176e-17 1.647987302178e-17
-4.092633137935e-17 -2.649454818129e-17 -4.423544863741e-17
-4.272666243538e-17 -2.599175792248e-17 1.006139616067e-16
SCALARS sfc_displacement_magnitude float 1
LOOKUP_TABLE default
5.161380000000e-03
5.161380000000e-03
5.161380000000e-03
5.161380000000e-03
5.161380000000e-03
5.161380000000e-03
5.161380000000e-03
5.161380000000e-03
SCALARS calculix_displacement_magnitude float 1
LOOKUP_TABLE default
5.161380000000e-03
5.161380000000e-03
5.161380000000e-03
5.161380000000e-03
5.161380000000e-03
5.161380000000e-03
5.161380000000e-03
5.161380000000e-03
SCALARS displacement_error_magnitude float 1
LOOKUP_TABLE default
8.847782933360e-17
4.687123619168e-17
5.902439430953e-17
1.074674031311e-16
8.953591529308e-17
3.672617505985e-17
6.583084838931e-17
1.123579477961e-16
CELL_DATA 1
SCALARS cell_displacement_error_magnitude float 1
LOOKUP_TABLE default
7.578646868803e-17
SCALARS von_mises_abs_error float 1
LOOKUP_TABLE default
1.624229846538e-13
SCALARS engineering_strain_norm_abs_error float 1
LOOKUP_TABLE default
3.802389790017e-18
