# vtk DataFile Version 3.0
SFC minus CalculiX common-time error block_plane_c3d8 frame 9 t=1.800000000000e-02
ASCII
DATASET UNSTRUCTURED_GRID
POINTS 8 float
-2.500000000000e-01 -2.500000000000e-01 1.301078000000e-02
2.500000000000e-01 -2.500000000000e-01 1.301078000000e-02
-2.500000000000e-01 2.500000000000e-01 1.301078000000e-02
2.500000000000e-01 2.500000000000e-01 1.301078000000e-02
-2.500000000000e-01 -2.500000000000e-01 3.130107800000e-01
2.500000000000e-01 -2.500000000000e-01 3.130107800000e-01
-2.500000000000e-01 2.500000000000e-01 3.130107800000e-01
2.500000000000e-01 2.500000000000e-01 3.130107800000e-01
CELLS 1 9
8 0 1 3 2 4 5 7 6
CELL_TYPES 1
12
POINT_DATA 8
VECTORS sfc_displacement float
1.052938659815e-16 2.441279857983e-17 -6.989220000000e-03
1.032838669306e-16 3.909541937140e-17 -6.989220000000e-03
6.841627423588e-17 2.244193174340e-17 -6.989220000000e-03
7.005623457836e-17 3.811836341701e-17 -6.989220000000e-03
-6.877416851464e-17 -8.768562598775e-17 -6.989220000000e-03
-6.758183480566e-17 -5.614002826734e-17 -6.989220000000e-03
-8.147533620144e-17 -8.902572879388e-17 -6.989220000000e-03
-8.440734033596e-17 -5.445248122462e-17 -6.989220000000e-03
VECTORS calculix_displacement float
2.152234000000e-19 4.867435000000e-19 -6.989220000000e-03
1.838755000000e-19 3.768036000000e-19 -6.989220000000e-03
1.887969000000e-19 2.703810000000e-19 -6.989220000000e-03
1.498293000000e-19 4.270641000000e-19 -6.989220000000e-03
-2.904324000000e-19 -3.843463000000e-19 -6.989220000000e-03
-1.084481000000e-19 -4.997708000000e-19 -6.989220000000e-03
-1.340457000000e-19 -3.726280000000e-19 -6.989220000000e-03
-2.043155000000e-19 -3.039820000000e-19 -6.989220000000e-03
VECTORS displacement_error float
1.050786425815e-16 2.392605507983e-17 -2.341876692569e-16
1.030999914306e-16 3.871861577140e-17 6.505213034913e-17
6.822747733588e-17 2.217155074340e-17 -3.816391647149e-17
6.990640527836e-17 3.769129931701e-17 2.072994553792e-16
-6.848373611464e-17 -8.730127968775e-17 -2.315855840429e-16
-6.747338670566e-17 -5.564025746734e-17 5.984795992120e-17
-8.134129050144e-17 -8.865310079388e-17 -3.642919299551e-17
-8.420302483596e-17 -5.414849922462e-17 2.099015405932e-16
SCALARS sfc_displacement_magnitude float 1
LOOKUP_TABLE default
6.989220000000e-03
6.989220000000e-03
6.989220000000e-03
6.989220000000e-03
6.989220000000e-03
6.989220000000e-03
6.989220000000e-03
6.989220000000e-03
SCALARS calculix_displacement_magnitude float 1
LOOKUP_TABLE default
6.989220000000e-03
6.989220000000e-03
6.989220000000e-03
6.989220000000e-03
6.989220000000e-03
6.989220000000e-03
6.989220000000e-03
6.989220000000e-03
SCALARS displacement_error_magnitude float 1
LOOKUP_TABLE default
2.577941847102e-16
1.279082448601e-16
8.125915853876e-17
2.219923506422e-16
2.567945059456e-16
1.059729893477e-16
1.257094424581e-16
2.325529318310e-16
CELL_DATA 1
SCALARS cell_displacement_error_magnitude float 1
LOOKUP_TABLE default
1.762479760417e-16
SCALARS von_mises_abs_error float 1
LOOKUP_TABLE default
3.875116234558e-13
SCALARS engineering_strain_norm_abs_error float 1
LOOKUP_TABLE default
2.652812743423e-18
