# vtk DataFile Version 3.0
SFC minus CalculiX common-time error block_plane_c3d8 frame 22 t=4.400000000000e-02
ASCII
DATASET UNSTRUCTURED_GRID
POINTS 8 float
-2.500091698801e-01 -2.500091698801e-01 6.548640529412e-03
2.499808315699e-01 -2.499808315699e-01 6.470032021041e-03
-2.499808315699e-01 2.499808315699e-01 6.470032021041e-03
2.500091698801e-01 2.500091698801e-01 6.548640529407e-03
-2.499808315699e-01 -2.499808315699e-01 3.065557815294e-01
2.500091698801e-01 -2.500091698801e-01 3.064777055268e-01
-2.500091698801e-01 2.500091698801e-01 3.064777055268e-01
2.499808315699e-01 2.499808315699e-01 3.065557815293e-01
CELLS 1 9
8 0 1 3 2 4 5 7 6
CELL_TYPES 1
12
POINT_DATA 8
VECTORS sfc_displacement float
-9.169880095691e-06 -9.169880096270e-06 -1.345135947059e-02
-1.916843005366e-05 1.916843005241e-05 -1.352996797896e-02
1.916843005206e-05 -1.916843005424e-05 -1.352996797896e-02
9.169880094111e-06 9.169880094454e-06 -1.345135947059e-02
1.916843005418e-05 1.916843005326e-05 -1.344421847065e-02
9.169880096203e-06 -9.169880094530e-06 -1.352229447324e-02
-9.169880094511e-06 9.169880095288e-06 -1.352229447324e-02
-1.916843005247e-05 -1.916843005248e-05 -1.344421847065e-02
VECTORS calculix_displacement float
-1.254100290273e-06 -1.254100290273e-06 -1.300000428700e-02
1.254100290273e-06 -1.254100290273e-06 -1.300000428700e-02
-1.254100290273e-06 1.254100290273e-06 -1.300000428700e-02
1.254100290273e-06 1.254100290273e-06 -1.300000428700e-02
-1.254100290273e-06 -1.254100290273e-06 -1.300294743787e-02
1.254100290273e-06 -1.254100290273e-06 -1.300294743787e-02
-1.254100290273e-06 1.254100290273e-06 -1.300294743787e-02
1.254100290273e-06 1.254100290273e-06 -1.300294743787e-02
VECTORS displacement_error float
-7.915779805418e-06 -7.915779805997e-06 -4.513551835856e-04
-2.042253034393e-05 2.042253034268e-05 -5.299636919567e-04
2.042253034234e-05 -2.042253034451e-05 -5.299636919561e-04
7.915779803838e-06 7.915779804181e-06 -4.513551835905e-04
2.042253034445e-05 2.042253034353e-05 -4.412710327757e-04
7.915779805930e-06 -7.915779804257e-06 -5.193470353670e-04
-7.915779804238e-06 7.915779805015e-06 -5.193470353664e-04
-2.042253034274e-05 -2.042253034275e-05 -4.412710327806e-04
SCALARS sfc_displacement_magnitude float 1
LOOKUP_TABLE default
1.345136572175e-02
1.352999513559e-02
1.352999513559e-02
1.345136572176e-02
1.344424580049e-02
1.352230069161e-02
1.352230069161e-02
1.344424580049e-02
SCALARS calculix_displacement_magnitude float 1
LOOKUP_TABLE default
1.300000440798e-02
1.300000440798e-02
1.300000440798e-02
1.300000440798e-02
1.300294755883e-02
1.300294755883e-02
1.300294755883e-02
1.300294755883e-02
SCALARS displacement_error_magnitude float 1
LOOKUP_TABLE default
4.514939876559e-04
5.307501053072e-04
5.307501053067e-04
4.514939876608e-04
4.422152008449e-04
5.194676720300e-04
5.194676720295e-04
4.422152008496e-04
CELL_DATA 1
SCALARS cell_displacement_error_magnitude float 1
LOOKUP_TABLE default
4.859817414606e-04
SCALARS von_mises_abs_error float 1
LOOKUP_TABLE default
2.296604595532e+00
SCALARS engineering_strain_norm_abs_error float 1
LOOKUP_TABLE default
2.543525598453e-05
