# vtk DataFile Version 3.0
SFC minus CalculiX common-time error block_plane_c3d8 frame 4 t=8.000000000000e-03
ASCII
DATASET UNSTRUCTURED_GRID
POINTS 8 float
-2.500000000000e-01 -2.500000000000e-01 1.728608000000e-02
2.500000000000e-01 -2.500000000000e-01 1.728608000000e-02
-2.500000000000e-01 2.500000000000e-01 1.728608000000e-02
2.500000000000e-01 2.500000000000e-01 1.728608000000e-02
-2.500000000000e-01 -2.500000000000e-01 3.172860800000e-01
2.500000000000e-01 -2.500000000000e-01 3.172860800000e-01
-2.500000000000e-01 2.500000000000e-01 3.172860800000e-01
2.500000000000e-01 2.500000000000e-01 3.172860800000e-01
CELLS 1 9
8 0 1 3 2 4 5 7 6
CELL_TYPES 1
12
POINT_DATA 8
VECTORS sfc_displacement float
8.701360552859e-18 -2.022908519870e-18 -2.713920000000e-03
8.854024951951e-18 -1.009373116231e-18 -2.713920000000e-03
7.449107499508e-18 -1.620880306691e-18 -2.713920000000e-03
7.212785197171e-18 -1.464559658729e-18 -2.713920000000e-03
-5.034970733568e-18 -3.241596503249e-18 -2.713920000000e-03
-4.504778442360e-18 -1.202799955805e-18 -2.713920000000e-03
-6.114824063189e-18 -2.341482062419e-18 -2.713920000000e-03
-6.674318556378e-18 -7.861899193171e-19 -2.713920000000e-03
VECTORS calculix_displacement float
-1.148627000000e-19 1.432148000000e-19 -2.713920000000e-03
-1.900739000000e-19 1.159929000000e-19 -2.713920000000e-03
-1.789967000000e-19 5.287510000000e-20 -2.713920000000e-03
-1.683023000000e-19 1.317809000000e-19 -2.713920000000e-03
1.139930000000e-19 -1.291741000000e-19 -2.713920000000e-03
1.910407000000e-19 -1.415731000000e-19 -2.713920000000e-03
1.683653000000e-19 -6.684681000000e-20 -2.713920000000e-03
1.790357000000e-19 -1.061605000000e-19 -2.713920000000e-03
VECTORS displacement_error float
8.816223252859e-18 -2.166123319870e-18 -1.561251128379e-17
9.044098851951e-18 -1.125366016231e-18 9.974659986867e-18
7.628104199508e-18 -1.673755406691e-18 -1.170938346284e-17
7.381087497171e-18 -1.596340558729e-18 7.806255641896e-18
-5.148963733568e-18 -3.112422403249e-18 -1.431146867681e-17
-4.695819142360e-18 -1.061226855805e-18 7.806255641896e-18
-6.283189363189e-18 -2.274635252419e-18 -1.387778780781e-17
-6.853354256378e-18 -6.800294193171e-19 1.040834085586e-17
SCALARS sfc_displacement_magnitude float 1
LOOKUP_TABLE default
2.713920000000e-03
2.713920000000e-03
2.713920000000e-03
2.713920000000e-03
2.713920000000e-03
2.713920000000e-03
2.713920000000e-03
2.713920000000e-03
SCALARS calculix_displacement_magnitude float 1
LOOKUP_TABLE default
2.713920000000e-03
2.713920000000e-03
2.713920000000e-03
2.713920000000e-03
2.713920000000e-03
2.713920000000e-03
2.713920000000e-03
2.713920000000e-03
SCALARS displacement_error_magnitude float 1
LOOKUP_TABLE default
1.806013264812e-17
1.351132911922e-17
1.407476791709e-17
1.086123303161e-17
1.552472661380e-17
9.171398312355e-18
1.540277340429e-17
1.248056344667e-17
CELL_DATA 1
SCALARS cell_displacement_error_magnitude float 1
LOOKUP_TABLE default
1.363586556164e-17
SCALARS von_mises_abs_error float 1
LOOKUP_TABLE default
9.284519383508e-14
SCALARS engineering_strain_norm_abs_error float 1
LOOKUP_TABLE default
3.077911723302e-19
