# vtk DataFile Version 3.0
SFC minus CalculiX common-time error block_plane_c3d8 frame 23 t=4.600000000000e-02
ASCII
DATASET UNSTRUCTURED_GRID
POINTS 8 float
-2.499583246486e-01 -2.499583246486e-01 7.543911537009e-03
2.500505684533e-01 -2.500505684533e-01 7.793017282561e-03
-2.500505684533e-01 2.500505684533e-01 7.793017282562e-03
2.499583246486e-01 2.499583246486e-01 7.543911537003e-03
-2.500505684533e-01 -2.500505684533e-01 3.075417723043e-01
2.499583246486e-01 -2.499583246486e-01 3.077775349048e-01
-2.499583246486e-01 2.499583246486e-01 3.077775349048e-01
2.500505684533e-01 2.500505684533e-01 3.075417723043e-01
CELLS 1 9
8 0 1 3 2 4 5 7 6
CELL_TYPES 1
12
POINT_DATA 8
VECTORS sfc_displacement float
4.167535135934e-05 4.167535135871e-05 -1.245608846299e-02
5.056845334667e-05 -5.056845334831e-05 -1.220698271744e-02
-5.056845334873e-05 5.056845334603e-05 -1.220698271744e-02
-4.167535136143e-05 -4.167535136101e-05 -1.245608846300e-02
-5.056845334608e-05 -5.056845334716e-05 -1.245822769571e-02
-4.167535135874e-05 4.167535136095e-05 -1.222246509520e-02
4.167535136098e-05 -4.167535135982e-05 -1.222246509520e-02
5.056845334828e-05 5.056845334824e-05 -1.245822769572e-02
VECTORS calculix_displacement float
5.627208913108e-06 5.627208913108e-06 -1.185126731900e-02
-5.627208913108e-06 5.627208913108e-06 -1.185126731900e-02
5.627208913108e-06 -5.627208913108e-06 -1.185126731900e-02
-5.627208913108e-06 -5.627208913108e-06 -1.185126731900e-02
5.627208913108e-06 5.627208913108e-06 -1.184095502367e-02
-5.627208913108e-06 5.627208913108e-06 -1.184095502367e-02
5.627208913108e-06 -5.627208913108e-06 -1.184095502367e-02
-5.627208913108e-06 -5.627208913108e-06 -1.184095502367e-02
VECTORS displacement_error float
3.604814244623e-05 3.604814244560e-05 -6.048211439929e-04
5.619566225978e-05 -5.619566226142e-05 -3.557153984411e-04
-5.619566226184e-05 5.619566225914e-05 -3.557153984403e-04
-3.604814244832e-05 -3.604814244791e-05 -6.048211439993e-04
-5.619566225918e-05 -5.619566226026e-05 -6.172726720399e-04
-3.604814244564e-05 3.604814244784e-05 -3.815100715250e-04
3.604814244787e-05 -3.604814244672e-05 -3.815100715243e-04
5.619566226139e-05 5.619566226135e-05 -6.172726720463e-04
SCALARS sfc_displacement_magnitude float 1
LOOKUP_TABLE default
1.245622789883e-02
1.220719219972e-02
1.220719219971e-02
1.245622789884e-02
1.245843295343e-02
1.222260719622e-02
1.222260719622e-02
1.245843295344e-02
SCALARS calculix_displacement_magnitude float 1
LOOKUP_TABLE default
1.185126999090e-02
1.185126999090e-02
1.185126999090e-02
1.185126999090e-02
1.184095769790e-02
1.184095769790e-02
1.184095769790e-02
1.184095769790e-02
SCALARS displacement_error_magnitude float 1
LOOKUP_TABLE default
6.069658584866e-04
3.644850471582e-04
3.644850471574e-04
6.069658584933e-04
6.223676217164e-04
3.849011195395e-04
3.849011195388e-04
6.223676217231e-04
CELL_DATA 1
SCALARS cell_displacement_error_magnitude float 1
LOOKUP_TABLE default
4.946799117267e-04
SCALARS von_mises_abs_error float 1
LOOKUP_TABLE default
7.474792017388e-01
SCALARS engineering_strain_norm_abs_error float 1
LOOKUP_TABLE default
8.181091959650e-06
