# vtk DataFile Version 3.0
SFC minus CalculiX common-time error block_plane_c3d8 frame 11 t=2.200000000000e-02
ASCII
DATASET UNSTRUCTURED_GRID
POINTS 8 float
-2.500000000000e-01 -2.500000000000e-01 1.102598000000e-02
2.500000000000e-01 -2.500000000000e-01 1.102598000000e-02
-2.500000000000e-01 2.500000000000e-01 1.102598000000e-02
2.500000000000e-01 2.500000000000e-01 1.102598000000e-02
-2.500000000000e-01 -2.500000000000e-01 3.110259800000e-01
2.500000000000e-01 -2.500000000000e-01 3.110259800000e-01
-2.500000000000e-01 2.500000000000e-01 3.110259800000e-01
2.500000000000e-01 2.500000000000e-01 3.110259800000e-01
CELLS 1 9
8 0 1 3 2 4 5 7 6
CELL_TYPES 1
12
POINT_DATA 8
VECTORS sfc_displacement float
1.794521199994e-16 4.408990462442e-17 -8.974020000000e-03
1.800345875398e-16 1.060589937323e-16 -8.974020000000e-03
1.397485636239e-16 4.417588318417e-17 -8.974020000000e-03
1.389043064094e-16 1.063130289803e-16 -8.974020000000e-03
-1.140842508256e-16 -1.625364498561e-16 -8.974020000000e-03
-1.128325270055e-16 -1.242339166817e-16 -8.974020000000e-03
-1.730810720967e-16 -1.653890627512e-16 -8.974020000000e-03
-1.737428710269e-16 -1.234584199714e-16 -8.974020000000e-03
VECTORS calculix_displacement float
1.664153000000e-19 6.568331000000e-19 -8.974020000000e-03
7.988397000000e-20 4.201025000000e-19 -8.974020000000e-03
-1.955351000000e-19 6.671157000000e-19 -8.974020000000e-03
1.960747000000e-19 9.732878000000e-19 -8.974020000000e-03
1.380778000000e-20 -5.832708000000e-19 -8.974020000000e-03
-2.598359000000e-19 -5.170645000000e-19 -8.974020000000e-03
-7.950651000000e-21 -7.404912000000e-19 -8.974020000000e-03
7.737065000000e-21 -8.761850000000e-19 -8.974020000000e-03
VECTORS displacement_error float
1.792857046994e-16 4.343307152442e-17 -4.267419750903e-16
1.799547035698e-16 1.056388912323e-16 5.898059818321e-17
1.399440987239e-16 4.350876748417e-17 -8.326672684689e-17
1.387082317094e-16 1.053397411803e-16 4.475586568020e-16
-1.140980586056e-16 -1.619531790561e-16 -4.215378046624e-16
-1.125726911055e-16 -1.237168521817e-16 5.204170427930e-17
-1.730731214457e-16 -1.646485715512e-16 -8.673617379884e-17
-1.737506080919e-16 -1.225822349714e-16 4.527628272299e-16
SCALARS sfc_displacement_magnitude float 1
LOOKUP_TABLE default
8.974020000000e-03
8.974020000000e-03
8.974020000000e-03
8.974020000000e-03
8.974020000000e-03
8.974020000000e-03
8.974020000000e-03
8.974020000000e-03
SCALARS calculix_displacement_magnitude float 1
LOOKUP_TABLE default
8.974020000000e-03
8.974020000000e-03
8.974020000000e-03
8.974020000000e-03
8.974020000000e-03
8.974020000000e-03
8.974020000000e-03
8.974020000000e-03
SCALARS displacement_error_magnitude float 1
LOOKUP_TABLE default
4.649069895319e-16
2.168455248322e-16
1.685547727459e-16
4.802553340613e-16
4.657695996343e-16
1.751765089297e-16
2.541389803357e-16
5.002098118431e-16
CELL_DATA 1
SCALARS cell_displacement_error_magnitude float 1
LOOKUP_TABLE default
3.407321902393e-16
SCALARS von_mises_abs_error float 1
LOOKUP_TABLE default
4.065688832337e-13
SCALARS engineering_strain_norm_abs_error float 1
LOOKUP_TABLE default
2.267392739909e-18
