# vtk DataFile Version 3.0
SFC minus CalculiX common-time error block_plane_c3d8 frame 5 t=1.000000000000e-02
ASCII
DATASET UNSTRUCTURED_GRID
POINTS 8 float
-2.500000000000e-01 -2.500000000000e-01 1.650950000000e-02
2.500000000000e-01 -2.500000000000e-01 1.650950000000e-02
-2.500000000000e-01 2.500000000000e-01 1.650950000000e-02
2.500000000000e-01 2.500000000000e-01 1.650950000000e-02
-2.500000000000e-01 -2.500000000000e-01 3.165095000000e-01
2.500000000000e-01 -2.500000000000e-01 3.165095000000e-01
-2.500000000000e-01 2.500000000000e-01 3.165095000000e-01
2.500000000000e-01 2.500000000000e-01 3.165095000000e-01
CELLS 1 9
8 0 1 3 2 4 5 7 6
CELL_TYPES 1
12
POINT_DATA 8
VECTORS sfc_displacement float
1.654938035581e-17 -2.128447226952e-20 -3.490500000000e-03
1.684591720879e-17 -6.579499248061e-19 -3.490500000000e-03
1.222605963139e-17 -3.475664187769e-19 -3.490500000000e-03
1.101668645350e-17 -2.674466077911e-19 -3.490500000000e-03
-1.023578786229e-17 -9.166339370880e-18 -3.490500000000e-03
-9.733902207252e-18 -3.792058201849e-18 -3.490500000000e-03
-9.938646105135e-18 -8.871516805069e-18 -3.490500000000e-03
-1.074249592021e-17 -3.094865148106e-18 -3.490500000000e-03
VECTORS calculix_displacement float
-1.270995000000e-19 1.987776000000e-19 -3.490500000000e-03
-1.109816000000e-19 1.650324000000e-19 -3.490500000000e-03
-7.794502000000e-20 1.452234000000e-19 -3.490500000000e-03
-1.288618000000e-19 1.207207000000e-19 -3.490500000000e-03
1.515703000000e-19 -2.013233000000e-19 -3.490500000000e-03
8.662662000000e-20 -1.377868000000e-19 -3.490500000000e-03
7.823335000000e-20 -1.425980000000e-19 -3.490500000000e-03
1.287135000000e-19 -1.479057000000e-19 -3.490500000000e-03
VECTORS displacement_error float
1.667647985581e-17 -2.200620722695e-19 -3.209238430557e-17
1.695689880879e-17 -8.229823248061e-19 1.474514954580e-17
1.230400465139e-17 -4.927898187769e-19 -1.561251128379e-17
1.114554825350e-17 -3.881673077911e-19 1.864827736675e-17
-1.038735816229e-17 -8.965016070880e-18 -3.122502256758e-17
-9.820528827252e-18 -3.654271401849e-18 1.474514954580e-17
-1.001687945514e-17 -8.728918805069e-18 -1.734723475977e-17
-1.087120942021e-17 -2.946959448106e-18 2.081668171172e-17
SCALARS sfc_displacement_magnitude float 1
LOOKUP_TABLE default
3.490500000000e-03
3.490500000000e-03
3.490500000000e-03
3.490500000000e-03
3.490500000000e-03
3.490500000000e-03
3.490500000000e-03
3.490500000000e-03
SCALARS calculix_displacement_magnitude float 1
LOOKUP_TABLE default
3.490500000000e-03
3.490500000000e-03
3.490500000000e-03
3.490500000000e-03
3.490500000000e-03
3.490500000000e-03
3.490500000000e-03
3.490500000000e-03
SCALARS displacement_error_magnitude float 1
LOOKUP_TABLE default
3.616731311714e-17
2.248628809400e-17
1.988421184894e-17
2.172860254313e-17
3.410675529992e-17
1.808911056557e-17
2.185082266952e-17
2.366858681320e-17
CELL_DATA 1
SCALARS cell_displacement_error_magnitude float 1
LOOKUP_TABLE default
2.474771136893e-17
SCALARS von_mises_abs_error float 1
LOOKUP_TABLE default
1.252773785896e-13
SCALARS engineering_strain_norm_abs_error float 1
LOOKUP_TABLE default
6.404598909788e-19
