# vtk DataFile Version 3.0
SFC minus CalculiX common-time error block_plane_c3d8 frame 16 t=3.200000000000e-02
ASCII
DATASET UNSTRUCTURED_GRID
POINTS 8 float
-2.500000000000e-01 -2.500000000000e-01 5.377279999998e-03
2.500000000000e-01 -2.500000000000e-01 5.377280000000e-03
-2.500000000000e-01 2.500000000000e-01 5.377280000000e-03
2.500000000000e-01 2.500000000000e-01 5.377280000002e-03
-2.500000000000e-01 -2.500000000000e-01 3.053772800000e-01
2.500000000000e-01 -2.500000000000e-01 3.053772800000e-01
-2.500000000000e-01 2.500000000000e-01 3.053772800000e-01
2.500000000000e-01 2.500000000000e-01 3.053772800000e-01
CELLS 1 9
8 0 1 3 2 4 5 7 6
CELL_TYPES 1
12
POINT_DATA 8
VECTORS sfc_displacement float
6.474446766535e-16 2.562756070063e-16 -1.462272000000e-02
6.415293590622e-16 3.723317964091e-16 -1.462272000000e-02
5.157054205116e-16 2.595466609320e-16 -1.462272000000e-02
5.225305195706e-16 3.676108920580e-16 -1.462272000000e-02
-5.038939031328e-16 -5.958062206963e-16 -1.462272000000e-02
-5.008041478402e-16 -4.730377208081e-16 -1.462272000000e-02
-6.269127105543e-16 -6.002781415358e-16 -1.462272000000e-02
-6.251725867778e-16 -4.666263668462e-16 -1.462272000000e-02
VECTORS calculix_displacement float
-3.642733000000e-19 1.084272000000e-18 -1.462272000000e-02
-7.928686000000e-19 1.373172000000e-18 -1.462272000000e-02
-5.273376000000e-19 1.187315000000e-18 -1.462272000000e-02
2.071108000000e-21 1.684610000000e-18 -1.462272000000e-02
1.007478000000e-18 -6.914858000000e-19 -1.462272000000e-02
1.500707000000e-19 -1.596130000000e-18 -1.462272000000e-02
5.415677000000e-20 -1.579819000000e-18 -1.462272000000e-02
4.715847000000e-19 -1.461451000000e-18 -1.462272000000e-02
VECTORS displacement_error float
6.478089499535e-16 2.551913350063e-16 -1.667069260414e-15
6.423222276622e-16 3.709586244091e-16 2.515349040166e-16
5.162327581116e-16 2.583593459320e-16 -2.445960101127e-16
5.225284484626e-16 3.659262820580e-16 1.656660919558e-15
-5.049013811328e-16 -5.951147348963e-16 -1.668803983890e-15
-5.009542185402e-16 -4.714415908081e-16 2.515349040166e-16
-6.269668673243e-16 -5.986983225358e-16 -2.463307335887e-16
-6.256441714778e-16 -4.651649158462e-16 1.654926196082e-15
SCALARS sfc_displacement_magnitude float 1
LOOKUP_TABLE default
1.462272000000e-02
1.462272000000e-02
1.462272000000e-02
1.462272000000e-02
1.462272000000e-02
1.462272000000e-02
1.462272000000e-02
1.462272000000e-02
SCALARS calculix_displacement_magnitude float 1
LOOKUP_TABLE default
1.462272000000e-02
1.462272000000e-02
1.462272000000e-02
1.462272000000e-02
1.462272000000e-02
1.462272000000e-02
1.462272000000e-02
1.462272000000e-02
SCALARS displacement_error_magnitude float 1
LOOKUP_TABLE default
1.806626406349e-15
7.832355668067e-16
6.269553575343e-16
1.775236160555e-15
1.842279481785e-15
7.324493911224e-16
9.012247025243e-16
1.829368673263e-15
CELL_DATA 1
SCALARS cell_displacement_error_magnitude float 1
LOOKUP_TABLE default
1.287171967493e-15
SCALARS von_mises_abs_error float 1
LOOKUP_TABLE default
3.905636683718e-13
SCALARS engineering_strain_norm_abs_error float 1
LOOKUP_TABLE default
4.920880647918e-19
