# vtk DataFile Version 3.0
SFC minus CalculiX common-time error block_plane_c3d8 frame 36 t=7.200000000000e-02
ASCII
DATASET UNSTRUCTURED_GRID
POINTS 8 float
-2.500408479433e-01 -2.500408479433e-01 1.915949243829e-02
2.499613683089e-01 -2.499613683089e-01 1.895699728632e-02
-2.499613683089e-01 2.499613683089e-01 1.895699728632e-02
2.500408479433e-01 2.500408479433e-01 1.915949243827e-02
-2.499613683089e-01 -2.499613683089e-01 3.191611179668e-01
2.500408479433e-01 -2.500408479433e-01 3.189482618245e-01
-2.500408479433e-01 2.500408479433e-01 3.189482618245e-01
2.499613683089e-01 2.499613683089e-01 3.191611179668e-01
CELLS 1 9
8 0 1 3 2 4 5 7 6
CELL_TYPES 1
12
POINT_DATA 8
VECTORS sfc_displacement float
-4.084794332061e-05 -4.084794332256e-05 -8.405075617053e-04
-3.863169111866e-05 3.863169111232e-05 -1.043002713682e-03
3.863169111144e-05 -3.863169112061e-05 -1.043002713680e-03
4.084794331336e-05 4.084794331424e-05 -8.405075617290e-04
3.863169112044e-05 3.863169111750e-05 -8.388820331793e-04
4.084794332239e-05 -4.084794331456e-05 -1.051738175455e-03
-4.084794331441e-05 4.084794331944e-05 -1.051738175453e-03
-3.863169111248e-05 -3.863169111262e-05 -8.388820332030e-04
VECTORS calculix_displacement float
2.784120256300e-06 2.784120256300e-06 -4.138571224200e-04
-2.784120256300e-06 2.784120256300e-06 -4.138571224200e-04
2.784120256300e-06 -2.784120256300e-06 -4.138571224200e-04
-2.784120256300e-06 -2.784120256300e-06 -4.138571224200e-04
2.784120256300e-06 2.784120256300e-06 -4.100611616010e-04
-2.784120256300e-06 2.784120256300e-06 -4.100611616010e-04
2.784120256300e-06 -2.784120256300e-06 -4.100611616010e-04
-2.784120256300e-06 -2.784120256300e-06 -4.100611616010e-04
VECTORS displacement_error float
-4.363206357691e-05 -4.363206357886e-05 -4.266504392853e-04
-3.584757086236e-05 3.584757085602e-05 -6.291455912615e-04
3.584757085514e-05 -3.584757086431e-05 -6.291455912598e-04
4.363206356966e-05 4.363206357054e-05 -4.266504393090e-04
3.584757086414e-05 3.584757086120e-05 -4.288208715783e-04
4.363206357869e-05 -4.363206357086e-05 -6.416770138535e-04
-4.363206357071e-05 4.363206357574e-05 -6.416770138519e-04
-3.584757085618e-05 -3.584757085632e-05 -4.288208716020e-04
SCALARS sfc_displacement_magnitude float 1
LOOKUP_TABLE default
8.424903977085e-04
1.044432609537e-03
1.044432609535e-03
8.424903977313e-04
8.406591941497e-04
1.053323453957e-03
1.053323453955e-03
8.406591941727e-04
SCALARS calculix_displacement_magnitude float 1
LOOKUP_TABLE default
4.138758514687e-04
4.138758514687e-04
4.138758514687e-04
4.138758514687e-04
4.100800640177e-04
4.100800640177e-04
4.100800640177e-04
4.100800640177e-04
SCALARS displacement_error_magnitude float 1
LOOKUP_TABLE default
4.310894469672e-04
6.311848157844e-04
6.311848157828e-04
4.310894469890e-04
4.318071752237e-04
6.446370327956e-04
6.446370327938e-04
4.318071752461e-04
CELL_DATA 1
SCALARS cell_displacement_error_magnitude float 1
LOOKUP_TABLE default
5.346796176978e-04
SCALARS von_mises_abs_error float 1
LOOKUP_TABLE default
5.774841793721e-01
SCALARS engineering_strain_norm_abs_error float 1
LOOKUP_TABLE default
6.796875521213e-06
