# vtk DataFile Version 3.0
SFC minus CalculiX common-time error block_plane_c3d8 frame 13 t=2.600000000000e-02
ASCII
DATASET UNSTRUCTURED_GRID
POINTS 8 float
-2.500000000000e-01 -2.500000000000e-01 8.884219999999e-03
2.500000000000e-01 -2.500000000000e-01 8.884220000000e-03
-2.500000000000e-01 2.500000000000e-01 8.884220000000e-03
2.500000000000e-01 2.500000000000e-01 8.884220000001e-03
-2.500000000000e-01 -2.500000000000e-01 3.088842200000e-01
2.500000000000e-01 -2.500000000000e-01 3.088842200000e-01
-2.500000000000e-01 2.500000000000e-01 3.088842200000e-01
2.500000000000e-01 2.500000000000e-01 3.088842200000e-01
CELLS 1 9
8 0 1 3 2 4 5 7 6
CELL_TYPES 1
12
POINT_DATA 8
VECTORS sfc_displacement float
3.315588534882e-16 1.159727728632e-16 -1.111578000000e-02
3.302139018638e-16 1.753518518385e-16 -1.111578000000e-02
2.503042782649e-16 1.120548634674e-16 -1.111578000000e-02
2.492093882330e-16 1.787704601671e-16 -1.111578000000e-02
-2.349729974380e-16 -3.033552929459e-16 -1.111578000000e-02
-2.392624326688e-16 -2.259477999161e-16 -1.111578000000e-02
-3.051413709666e-16 -3.044323383704e-16 -1.111578000000e-02
-3.046025711258e-16 -2.244781500631e-16 -1.111578000000e-02
VECTORS calculix_displacement float
3.031024000000e-19 4.141094000000e-19 -1.111578000000e-02
-9.876726000000e-20 7.637039000000e-19 -1.111578000000e-02
-1.545058000000e-19 6.529018000000e-19 -1.111578000000e-02
8.645540000000e-20 2.778866000000e-19 -1.111578000000e-02
1.358270000000e-19 -4.113539000000e-19 -1.111578000000e-02
-3.398329000000e-19 -6.460870000000e-19 -1.111578000000e-02
-1.638948000000e-19 -6.554285000000e-19 -1.111578000000e-02
2.323270000000e-19 -3.953424000000e-19 -1.111578000000e-02
VECTORS displacement_error float
3.312557510882e-16 1.155586634632e-16 -8.135853102331e-16
3.303126691238e-16 1.745881479385e-16 1.387778780781e-16
2.504587840649e-16 1.114019616674e-16 -1.179611963664e-16
2.491229328330e-16 1.784925735671e-16 8.153200337091e-16
-2.351088244380e-16 -3.029439390459e-16 -8.101158632812e-16
-2.389225997688e-16 -2.253017129161e-16 1.439820485061e-16
-3.049774761666e-16 -3.037769098704e-16 -1.127570259385e-16
-3.048348981258e-16 -2.240828076631e-16 8.083811398052e-16
SCALARS sfc_displacement_magnitude float 1
LOOKUP_TABLE default
1.111578000000e-02
1.111578000000e-02
1.111578000000e-02
1.111578000000e-02
1.111578000000e-02
1.111578000000e-02
1.111578000000e-02
1.111578000000e-02
SCALARS calculix_displacement_magnitude float 1
LOOKUP_TABLE default
1.111578000000e-02
1.111578000000e-02
1.111578000000e-02
1.111578000000e-02
1.111578000000e-02
1.111578000000e-02
1.111578000000e-02
1.111578000000e-02
SCALARS displacement_error_magnitude float 1
LOOKUP_TABLE default
8.860052112474e-16
3.985558683901e-16
2.984205814397e-16
8.710158390347e-16
8.962917501980e-16
3.585745401102e-16
4.449784476105e-16
8.925343057823e-16
CELL_DATA 1
SCALARS cell_displacement_error_magnitude float 1
LOOKUP_TABLE default
6.307970679766e-16
SCALARS von_mises_abs_error float 1
LOOKUP_TABLE default
5.883710295701e-13
SCALARS engineering_strain_norm_abs_error float 1
LOOKUP_TABLE default
9.189736471944e-18
