# vtk DataFile Version 3.0
SFC minus CalculiX common-time error block_plane_c3d8 frame 32 t=6.400000000000e-02
ASCII
DATASET UNSTRUCTURED_GRID
POINTS 8 float
-2.500263390734e-01 -2.500263390734e-01 1.632216004591e-02
2.499692719962e-01 -2.499692719962e-01 1.619415237372e-02
-2.499692719962e-01 2.499692719962e-01 1.619415237372e-02
2.500263390734e-01 2.500263390734e-01 1.632216004589e-02
-2.499692719962e-01 -2.499692719962e-01 3.163347257649e-01
2.500263390734e-01 -2.500263390734e-01 3.161786856431e-01
-2.500263390734e-01 2.500263390734e-01 3.161786856431e-01
2.499692719962e-01 2.499692719962e-01 3.163347257648e-01
CELLS 1 9
8 0 1 3 2 4 5 7 6
CELL_TYPES 1
12
POINT_DATA 8
VECTORS sfc_displacement float
-2.633907343735e-05 -2.633907343880e-05 -3.677839954090e-03
-3.072800377838e-05 3.072800377334e-05 -3.805847626280e-03
3.072800377256e-05 -3.072800377984e-05 -3.805847626278e-03
2.633907343155e-05 2.633907343233e-05 -3.677839954109e-03
3.072800377979e-05 3.072800377736e-05 -3.665274235132e-03
2.633907343875e-05 -2.633907343255e-05 -3.821314356924e-03
-2.633907343239e-05 2.633907343633e-05 -3.821314356922e-03
-3.072800377340e-05 -3.072800377357e-05 -3.665274235150e-03
VECTORS calculix_displacement float
-3.997465733000e-06 -3.997465733000e-06 -3.221191604990e-03
3.997465733000e-06 -3.997465733000e-06 -3.221191604990e-03
-3.997465733000e-06 3.997465733000e-06 -3.221191604990e-03
3.997465733000e-06 3.997465733000e-06 -3.221191604990e-03
-3.997465733000e-06 -3.997465733000e-06 -3.226492461910e-03
3.997465733000e-06 -3.997465733000e-06 -3.226492461910e-03
-3.997465733000e-06 3.997465733000e-06 -3.226492461910e-03
3.997465733000e-06 3.997465733000e-06 -3.226492461910e-03
VECTORS displacement_error float
-2.234160770435e-05 -2.234160770580e-05 -4.566483491003e-04
-3.472546951138e-05 3.472546950634e-05 -5.846560212899e-04
3.472546950556e-05 -3.472546951284e-05 -5.846560212883e-04
2.234160769855e-05 2.234160769933e-05 -4.566483491190e-04
3.472546951279e-05 3.472546951036e-05 -4.387817732217e-04
2.234160770575e-05 -2.234160769955e-05 -5.948218950135e-04
-2.234160769939e-05 2.234160770333e-05 -5.948218950119e-04
-3.472546950640e-05 -3.472546950657e-05 -4.387817732404e-04
SCALARS sfc_displacement_magnitude float 1
LOOKUP_TABLE default
3.678028578122e-03
3.806095712787e-03
3.806095712785e-03
3.678028578141e-03
3.665531835785e-03
3.821495899253e-03
3.821495899252e-03
3.665531835804e-03
SCALARS calculix_displacement_magnitude float 1
LOOKUP_TABLE default
3.221196565800e-03
3.221196565800e-03
3.221196565800e-03
3.221196565800e-03
3.226497414570e-03
3.226497414570e-03
3.226497414570e-03
3.226497414570e-03
SCALARS displacement_error_magnitude float 1
LOOKUP_TABLE default
4.577401114232e-04
5.867149049545e-04
5.867149049530e-04
4.577401114412e-04
4.415214162158e-04
5.956604583628e-04
5.956604583611e-04
4.415214162336e-04
CELL_DATA 1
SCALARS cell_displacement_error_magnitude float 1
LOOKUP_TABLE default
5.204092227431e-04
SCALARS von_mises_abs_error float 1
LOOKUP_TABLE default
2.285904344503e+00
SCALARS engineering_strain_norm_abs_error float 1
LOOKUP_TABLE default
1.537566789009e-05
