# vtk DataFile Version 3.0
SFC minus CalculiX common-time error block_plane_c3d8 frame 14 t=2.800000000000e-02
ASCII
DATASET UNSTRUCTURED_GRID
POINTS 8 float
-2.500000000000e-01 -2.500000000000e-01 7.754479999999e-03
2.500000000000e-01 -2.500000000000e-01 7.754480000000e-03
-2.500000000000e-01 2.500000000000e-01 7.754480000000e-03
2.500000000000e-01 2.500000000000e-01 7.754480000001e-03
-2.500000000000e-01 -2.500000000000e-01 3.077544800000e-01
2.500000000000e-01 -2.500000000000e-01 3.077544800000e-01
-2.500000000000e-01 2.500000000000e-01 3.077544800000e-01
2.500000000000e-01 2.500000000000e-01 3.077544800000e-01
CELLS 1 9
8 0 1 3 2 4 5 7 6
CELL_TYPES 1
12
POINT_DATA 8
VECTORS sfc_displacement float
4.226024872347e-16 1.433530516788e-16 -1.224552000000e-02
4.169119490269e-16 2.410012278610e-16 -1.224552000000e-02
3.408211899749e-16 1.425592311216e-16 -1.224552000000e-02
3.431928970583e-16 2.368152799789e-16 -1.224552000000e-02
-3.127964023825e-16 -3.803762319992e-16 -1.224552000000e-02
-3.190168812384e-16 -3.115321204980e-16 -1.224552000000e-02
-4.044771940181e-16 -3.800506635217e-16 -1.224552000000e-02
-4.062243314003e-16 -3.035470701109e-16 -1.224552000000e-02
VECTORS calculix_displacement float
-1.533844000000e-19 1.473447000000e-18 -1.224552000000e-02
-4.634039000000e-19 7.302572000000e-19 -1.224552000000e-02
-4.016283000000e-19 1.322294000000e-18 -1.224552000000e-02
-1.575555000000e-19 1.029361000000e-18 -1.224552000000e-02
7.977984000000e-21 -1.504405000000e-18 -1.224552000000e-02
6.091595000000e-19 -7.578576000000e-19 -1.224552000000e-02
4.886529000000e-19 -1.291096000000e-18 -1.224552000000e-02
7.094955000000e-20 -1.001580000000e-18 -1.224552000000e-02
VECTORS displacement_error float
4.227558716347e-16 1.418796046788e-16 -1.051242426442e-15
4.173753529269e-16 2.402709706610e-16 1.613292832658e-16
3.412228182749e-16 1.412369371216e-16 -1.838806884535e-16
3.433504525583e-16 2.357859189789e-16 1.082467449010e-15
-3.128043803665e-16 -3.788718269992e-16 -1.044303532538e-15
-3.196260407384e-16 -3.107742628980e-16 1.630640067418e-16
-4.049658469181e-16 -3.787595675217e-16 -1.821459649776e-16
-4.062952809503e-16 -3.025454901109e-16 1.078998002058e-15
SCALARS sfc_displacement_magnitude float 1
LOOKUP_TABLE default
1.224552000000e-02
1.224552000000e-02
1.224552000000e-02
1.224552000000e-02
1.224552000000e-02
1.224552000000e-02
1.224552000000e-02
1.224552000000e-02
SCALARS calculix_displacement_magnitude float 1
LOOKUP_TABLE default
1.224552000000e-02
1.224552000000e-02
1.224552000000e-02
1.224552000000e-02
1.224552000000e-02
1.224552000000e-02
1.224552000000e-02
1.224552000000e-02
SCALARS displacement_error_magnitude float 1
LOOKUP_TABLE default
1.141911988017e-15
5.078970980546e-16
4.125445329963e-16
1.159836329413e-15
1.154105848587e-15
4.746907611199e-16
5.836379868693e-16
1.191992582759e-15
CELL_DATA 1
SCALARS cell_displacement_error_magnitude float 1
LOOKUP_TABLE default
8.283271409770e-16
SCALARS von_mises_abs_error float 1
LOOKUP_TABLE default
4.624354867344e-13
SCALARS engineering_strain_norm_abs_error float 1
LOOKUP_TABLE default
5.730313202769e-19
