# vtk DataFile Version 3.0
SFC minus CalculiX common-time error block_plane_c3d8 frame 39 t=7.800000000000e-02
ASCII
DATASET UNSTRUCTURED_GRID
POINTS 8 float
-2.499873443974e-01 -2.499873443974e-01 2.070793757464e-02
2.500204706251e-01 -2.500204706252e-01 2.078971526010e-02
-2.500204706252e-01 2.500204706251e-01 2.078971526011e-02
2.499873443974e-01 2.499873443974e-01 2.070793757461e-02
-2.500204706251e-01 -2.500204706251e-01 3.207103046230e-01
2.499873443974e-01 -2.499873443974e-01 3.207669413246e-01
-2.499873443974e-01 2.499873443974e-01 3.207669413246e-01
2.500204706252e-01 2.500204706252e-01 3.207103046229e-01
CELLS 1 9
8 0 1 3 2 4 5 7 6
CELL_TYPES 1
12
POINT_DATA 8
VECTORS sfc_displacement float
1.265560263919e-05 1.265560263686e-05 7.079375746381e-04
2.047062514367e-05 -2.047062515102e-05 7.897152601050e-04
-2.047062515195e-05 2.047062514134e-05 7.897152601067e-04
-1.265560264749e-05 -1.265560264655e-05 7.079375746107e-04
-2.047062514161e-05 -2.047062514495e-05 7.103046229705e-04
-1.265560263713e-05 1.265560264619e-05 7.669413245694e-04
1.265560264630e-05 -1.265560264047e-05 7.669413245711e-04
2.047062515076e-05 2.047062515065e-05 7.103046229431e-04
VECTORS calculix_displacement float
2.565132584070e-06 2.565132584070e-06 1.282794369256e-03
-2.565132584070e-06 2.565132584070e-06 1.282794369256e-03
2.565132584070e-06 -2.565132584070e-06 1.282794369256e-03
-2.565132584070e-06 -2.565132584070e-06 1.282794369256e-03
2.565132584070e-06 2.565132584070e-06 1.287072011049e-03
-2.565132584070e-06 2.565132584070e-06 1.287072011049e-03
2.565132584070e-06 -2.565132584070e-06 1.287072011049e-03
-2.565132584070e-06 -2.565132584070e-06 1.287072011049e-03
VECTORS displacement_error float
1.009047005512e-05 1.009047005279e-05 -5.748567946179e-04
2.303575772774e-05 -2.303575773509e-05 -4.930791091510e-04
-2.303575773602e-05 2.303575772541e-05 -4.930791091493e-04
-1.009047006342e-05 -1.009047006248e-05 -5.748567946453e-04
-2.303575772568e-05 -2.303575772902e-05 -5.767673880785e-04
-1.009047005306e-05 1.009047006212e-05 -5.201306864796e-04
1.009047006223e-05 -1.009047005640e-05 -5.201306864779e-04
2.303575773483e-05 2.303575773472e-05 -5.767673881059e-04
SCALARS sfc_displacement_magnitude float 1
LOOKUP_TABLE default
7.081637791787e-04
7.902457118077e-04
7.902457118094e-04
7.081637791517e-04
7.108943313888e-04
7.671501312577e-04
7.671501312594e-04
7.108943313619e-04
SCALARS calculix_displacement_magnitude float 1
LOOKUP_TABLE default
1.282799498599e-03
1.282799498599e-03
1.282799498599e-03
1.282799498599e-03
1.287077123344e-03
1.287077123344e-03
1.287077123344e-03
1.287077123344e-03
SCALARS displacement_error_magnitude float 1
LOOKUP_TABLE default
5.750338855148e-04
4.941541259058e-04
4.941541259040e-04
5.750338855424e-04
5.776866903600e-04
5.203264035101e-04
5.203264035084e-04
5.776866903879e-04
CELL_DATA 1
SCALARS cell_displacement_error_magnitude float 1
LOOKUP_TABLE default
5.418002763292e-04
SCALARS von_mises_abs_error float 1
LOOKUP_TABLE default
1.932374209579e+00
SCALARS engineering_strain_norm_abs_error float 1
LOOKUP_TABLE default
2.021944281093e-05
