# vtk DataFile Version 3.0
SFC minus CalculiX common-time error block_plane_c3d8 frame 33 t=6.600000000000e-02
ASCII
DATASET UNSTRUCTURED_GRID
POINTS 8 float
-2.500371652331e-01 -2.500371652331e-01 1.711157447503e-02
2.499593186614e-01 -2.499593186614e-01 1.691248167731e-02
-2.499593186614e-01 2.499593186614e-01 1.691248167731e-02
2.500371652331e-01 2.500371652331e-01 1.711157447501e-02
-2.499593186614e-01 -2.499593186614e-01 3.171039825200e-01
2.500371652331e-01 -2.500371652331e-01 3.169361615774e-01
-2.500371652331e-01 2.500371652331e-01 3.169361615774e-01
2.499593186614e-01 2.499593186614e-01 3.171039825199e-01
CELLS 1 9
8 0 1 3 2 4 5 7 6
CELL_TYPES 1
12
POINT_DATA 8
VECTORS sfc_displacement float
-3.716523313107e-05 -3.716523313265e-05 -2.888425524969e-03
-4.068133859616e-05 4.068133859081e-05 -3.087518322695e-03
4.068133859000e-05 -4.068133859774e-05 -3.087518322693e-03
3.716523312489e-05 3.716523312570e-05 -2.888425524989e-03
4.068133859766e-05 4.068133859511e-05 -2.896017480034e-03
3.716523313256e-05 -3.716523312595e-05 -3.063838422627e-03
-3.716523312578e-05 3.716523313002e-05 -3.063838422625e-03
-4.068133859089e-05 -4.068133859106e-05 -2.896017480054e-03
VECTORS calculix_displacement float
1.352205805700e-06 1.352205805700e-06 -2.462813895830e-03
-1.352205805700e-06 1.352205805700e-06 -2.462813895830e-03
1.352205805700e-06 -1.352205805700e-06 -2.462813895830e-03
-1.352205805700e-06 -1.352205805700e-06 -2.462813895830e-03
1.352205805700e-06 1.352205805700e-06 -2.461209247060e-03
-1.352205805700e-06 1.352205805700e-06 -2.461209247060e-03
1.352205805700e-06 -1.352205805700e-06 -2.461209247060e-03
-1.352205805700e-06 -1.352205805700e-06 -2.461209247060e-03
VECTORS displacement_error float
-3.851743893677e-05 -3.851743893835e-05 -4.256116291388e-04
-3.932913279046e-05 3.932913278511e-05 -6.247044268647e-04
3.932913278430e-05 -3.932913279204e-05 -6.247044268631e-04
3.851743893059e-05 3.851743893140e-05 -4.256116291588e-04
3.932913279196e-05 3.932913278941e-05 -4.348082329738e-04
3.851743893826e-05 -3.851743893165e-05 -6.026291755669e-04
-3.851743893148e-05 3.851743893572e-05 -6.026291755653e-04
-3.932913278519e-05 -3.932913278536e-05 -4.348082329937e-04
SCALARS sfc_displacement_magnitude float 1
LOOKUP_TABLE default
2.888903688668e-03
3.088054296089e-03
3.088054296088e-03
2.888903688688e-03
2.896588888206e-03
3.064289214332e-03
3.064289214330e-03
2.896588888226e-03
SCALARS calculix_displacement_magnitude float 1
LOOKUP_TABLE default
2.462814638257e-03
2.462814638257e-03
2.462814638257e-03
2.462814638257e-03
2.461209989971e-03
2.461209989971e-03
2.461209989971e-03
2.461209989971e-03
SCALARS displacement_error_magnitude float 1
LOOKUP_TABLE default
4.290832612242e-04
6.271755594059e-04
6.271755594043e-04
4.290832612428e-04
4.383511843646e-04
6.050860347494e-04
6.050860347476e-04
4.383511843835e-04
CELL_DATA 1
SCALARS cell_displacement_error_magnitude float 1
LOOKUP_TABLE default
5.249240099403e-04
SCALARS von_mises_abs_error float 1
LOOKUP_TABLE default
1.775797260603e+00
SCALARS engineering_strain_norm_abs_error float 1
LOOKUP_TABLE default
1.926429759616e-05
