# vtk DataFile Version 3.0
SFC minus CalculiX common-time error block_block_c3d8 frame 9 t=1.800000000000e-02
ASCII
DATASET UNSTRUCTURED_GRID
POINTS 16 float
-2.500000000000e-01 -2.500000000000e-01 0.000000000000e+00
2.500000000000e-01 -2.500000000000e-01 0.000000000000e+00
-2.500000000000e-01 2.500000000000e-01 0.000000000000e+00
2.500000000000e-01 2.500000000000e-01 0.000000000000e+00
-2.500000000000e-01 -2.500000000000e-01 2.400000000000e-01
2.500000000000e-01 -2.500000000000e-01 2.400000000000e-01
-2.500000000000e-01 2.500000000000e-01 2.400000000000e-01
2.500000000000e-01 2.500000000000e-01 2.400000000000e-01
-2.500000000000e-01 -2.500000000000e-01 2.480107800000e-01
2.500000000000e-01 -2.500000000000e-01 2.480107800000e-01
-2.500000000000e-01 2.500000000000e-01 2.480107800000e-01
2.500000000000e-01 2.500000000000e-01 2.480107800000e-01
-2.500000000000e-01 -2.500000000000e-01 5.080107800000e-01
2.500000000000e-01 -2.500000000000e-01 5.080107800000e-01
-2.500000000000e-01 2.500000000000e-01 5.080107800000e-01
2.500000000000e-01 2.500000000000e-01 5.080107800000e-01
CELLS 2 18
8 0 1 3 2 4 5 7 6
8 8 9 11 10 12 13 15 14
CELL_TYPES 2
12
12
POINT_DATA 16
VECTORS sfc_displacement float
0.000000000000e+00 0.000000000000e+00 0.000000000000e+00
0.000000000000e+00 0.000000000000e+00 0.000000000000e+00
0.000000000000e+00 0.000000000000e+00 0.000000000000e+00
0.000000000000e+00 0.000000000000e+00 0.000000000000e+00
0.000000000000e+00 0.000000000000e+00 0.000000000000e+00
0.000000000000e+00 0.000000000000e+00 0.000000000000e+00
0.000000000000e+00 0.000000000000e+00 0.000000000000e+00
0.000000000000e+00 0.000000000000e+00 0.000000000000e+00
4.581940125038e-17 -2.627085651316e-17 -6.989220000000e-03
4.657189711022e-17 -5.251041219851e-17 -6.989220000000e-03
3.324985742844e-17 -2.501222046897e-17 -6.989220000000e-03
2.879494269835e-17 -5.374790264216e-17 -6.989220000000e-03
-7.607653756796e-17 3.708395600054e-17 -6.989220000000e-03
-7.812188534121e-17 5.391487107358e-17 -6.989220000000e-03
-4.851372828060e-17 3.721986765607e-17 -6.989220000000e-03
-4.950555916492e-17 5.216937890396e-17 -6.989220000000e-03
VECTORS calculix_displacement float
0.000000000000e+00 0.000000000000e+00 0.000000000000e+00
0.000000000000e+00 0.000000000000e+00 0.000000000000e+00
0.000000000000e+00 0.000000000000e+00 0.000000000000e+00
0.000000000000e+00 0.000000000000e+00 0.000000000000e+00
0.000000000000e+00 0.000000000000e+00 0.000000000000e+00
0.000000000000e+00 0.000000000000e+00 0.000000000000e+00
0.000000000000e+00 0.000000000000e+00 0.000000000000e+00
0.000000000000e+00 0.000000000000e+00 0.000000000000e+00
4.423288000000e-19 3.781455000000e-19 -6.989220000000e-03
4.014883000000e-19 -1.325899000000e-19 -6.989220000000e-03
8.135841000000e-20 -2.451358000000e-19 -6.989220000000e-03
-6.785527000000e-20 2.630275000000e-19 -6.989220000000e-03
-5.151527000000e-19 -3.923374000000e-19 -6.989220000000e-03
-3.286709000000e-19 1.032740000000e-19 -6.989220000000e-03
-5.200064000000e-20 2.598229000000e-19 -6.989220000000e-03
3.903185000000e-20 -2.337614000000e-19 -6.989220000000e-03
VECTORS displacement_error float
0.000000000000e+00 0.000000000000e+00 0.000000000000e+00
0.000000000000e+00 0.000000000000e+00 0.000000000000e+00
0.000000000000e+00 0.000000000000e+00 0.000000000000e+00
0.000000000000e+00 0.000000000000e+00 0.000000000000e+00
0.000000000000e+00 0.000000000000e+00 0.000000000000e+00
0.000000000000e+00 0.000000000000e+00 0.000000000000e+00
0.000000000000e+00 0.000000000000e+00 0.000000000000e+00
0.000000000000e+00 0.000000000000e+00 0.000000000000e+00
4.537707245038e-17 -2.664900201316e-17 2.168404344971e-17
4.617040881022e-17 -5.237782229851e-17 2.792904796323e-16
3.316849901844e-17 -2.476708466897e-17 -8.153200337091e-17
2.886279796835e-17 -5.401093014216e-17 5.551115123126e-17
-7.556138486796e-17 3.747629340054e-17 2.255140518770e-17
-7.779321444121e-17 5.381159707358e-17 2.810252031082e-16
-4.846172764060e-17 3.696004475607e-17 -7.719519468097e-17
-4.954459101492e-17 5.240314030396e-17 5.377642775528e-17
SCALARS sfc_displacement_magnitude float 1
LOOKUP_TABLE default
0.000000000000e+00
0.000000000000e+00
0.000000000000e+00
0.000000000000e+00
0.000000000000e+00
0.000000000000e+00
0.000000000000e+00
0.000000000000e+00
6.989220000000e-03
6.989220000000e-03
6.989220000000e-03
6.989220000000e-03
6.989220000000e-03
6.989220000000e-03
6.989220000000e-03
6.989220000000e-03
SCALARS calculix_displacement_magnitude float 1
LOOKUP_TABLE default
0.000000000000e+00
0.000000000000e+00
0.000000000000e+00
0.000000000000e+00
0.000000000000e+00
0.000000000000e+00
0.000000000000e+00
0.000000000000e+00
6.989220000000e-03
6.989220000000e-03
6.989220000000e-03
6.989220000000e-03
6.989220000000e-03
6.989220000000e-03
6.989220000000e-03
6.989220000000e-03
SCALARS displacement_error_magnitude float 1
LOOKUP_TABLE default
0.000000000000e+00
0.000000000000e+00
0.000000000000e+00
0.000000000000e+00
0.000000000000e+00
0.000000000000e+00
0.000000000000e+00
0.000000000000e+00
5.691612910936e-17
2.878859408371e-16
9.143864272730e-17
8.265427752030e-17
8.730728106033e-17
2.965175154603e-16
9.835487804941e-17
8.995921183887e-17
CELL_DATA 2
SCALARS cell_displacement_error_magnitude float 1
LOOKUP_TABLE default
0.000000000000e+00
1.363792345754e-16
SCALARS von_mises_abs_error float 1
LOOKUP_TABLE default
0.000000000000e+00
1.826367154588e-13
SCALARS engineering_strain_norm_abs_error float 1
LOOKUP_TABLE default
0.000000000000e+00
1.819913195863e-18
