# vtk DataFile Version 3.0
SFC minus CalculiX common-time error block_block_c3d8 frame 21 t=4.200000000000e-02
ASCII
DATASET UNSTRUCTURED_GRID
POINTS 16 float
-2.500000000000e-01 -2.500000000000e-01 0.000000000000e+00
2.500000000000e-01 -2.500000000000e-01 0.000000000000e+00
-2.500000000000e-01 2.500000000000e-01 0.000000000000e+00
2.500000000000e-01 2.500000000000e-01 0.000000000000e+00
-2.500000000000e-01 -2.500000000000e-01 2.400000000000e-01
2.500000000000e-01 -2.500000000000e-01 2.400000000000e-01
-2.500000000000e-01 2.500000000000e-01 2.400000000000e-01
2.500000000000e-01 2.500000000000e-01 2.400000000000e-01
-2.500000948752e-01 -2.500000948752e-01 2.408976171383e-01
2.500000948752e-01 -2.500000948752e-01 2.408976171383e-01
-2.500000948752e-01 2.500000948752e-01 2.408976171384e-01
2.500000948752e-01 2.500000948752e-01 2.408976171383e-01
-2.500000948752e-01 -2.500000948752e-01 5.009006427160e-01
2.500000948752e-01 -2.500000948752e-01 5.009006427160e-01
-2.500000948752e-01 2.500000948752e-01 5.009006427160e-01
2.500000948752e-01 2.500000948752e-01 5.009006427160e-01
CELLS 2 18
8 0 1 3 2 4 5 7 6
8 8 9 11 10 12 13 15 14
CELL_TYPES 2
12
12
POINT_DATA 16
VECTORS sfc_displacement float
0.000000000000e+00 0.000000000000e+00 0.000000000000e+00
0.000000000000e+00 0.000000000000e+00 0.000000000000e+00
0.000000000000e+00 0.000000000000e+00 0.000000000000e+00
0.000000000000e+00 0.000000000000e+00 0.000000000000e+00
0.000000000000e+00 0.000000000000e+00 0.000000000000e+00
0.000000000000e+00 0.000000000000e+00 0.000000000000e+00
0.000000000000e+00 0.000000000000e+00 0.000000000000e+00
0.000000000000e+00 0.000000000000e+00 0.000000000000e+00
-9.487518482314e-08 -9.487518406913e-08 -1.410238286165e-02
9.487518403867e-08 -9.487518418757e-08 -1.410238286165e-02
-9.487518479937e-08 9.487518478722e-08 -1.410238286165e-02
9.487518404841e-08 9.487518466208e-08 -1.410238286165e-02
-9.487518430410e-08 -9.487518465794e-08 -1.409935728400e-02
9.487518454730e-08 -9.487518467527e-08 -1.409935728400e-02
-9.487518418016e-08 9.487518419916e-08 -1.409935728400e-02
9.487518467529e-08 9.487518418385e-08 -1.409935728400e-02
VECTORS calculix_displacement float
0.000000000000e+00 0.000000000000e+00 0.000000000000e+00
0.000000000000e+00 0.000000000000e+00 0.000000000000e+00
0.000000000000e+00 0.000000000000e+00 0.000000000000e+00
0.000000000000e+00 0.000000000000e+00 0.000000000000e+00
0.000000000000e+00 0.000000000000e+00 0.000000000000e+00
0.000000000000e+00 0.000000000000e+00 0.000000000000e+00
0.000000000000e+00 0.000000000000e+00 0.000000000000e+00
0.000000000000e+00 0.000000000000e+00 0.000000000000e+00
-4.423291062468e-07 -4.423291062468e-07 -1.383742055484e-02
4.423291062468e-07 -4.423291062468e-07 -1.383742055484e-02
-4.423291062468e-07 4.423291062468e-07 -1.383742055484e-02
4.423291062468e-07 4.423291062468e-07 -1.383742055484e-02
-4.423291062468e-07 -4.423291062468e-07 -1.383739612977e-02
4.423291062468e-07 -4.423291062468e-07 -1.383739612977e-02
-4.423291062468e-07 4.423291062468e-07 -1.383739612977e-02
4.423291062468e-07 4.423291062468e-07 -1.383739612977e-02
VECTORS displacement_error float
0.000000000000e+00 0.000000000000e+00 0.000000000000e+00
0.000000000000e+00 0.000000000000e+00 0.000000000000e+00
0.000000000000e+00 0.000000000000e+00 0.000000000000e+00
0.000000000000e+00 0.000000000000e+00 0.000000000000e+00
0.000000000000e+00 0.000000000000e+00 0.000000000000e+00
0.000000000000e+00 0.000000000000e+00 0.000000000000e+00
0.000000000000e+00 0.000000000000e+00 0.000000000000e+00
0.000000000000e+00 0.000000000000e+00 0.000000000000e+00
3.474539214237e-07 3.474539221777e-07 -2.649623068105e-04
-3.474539222082e-07 3.474539220593e-07 -2.649623068115e-04
3.474539214475e-07 -3.474539214596e-07 -2.649623068093e-04
-3.474539221984e-07 -3.474539215847e-07 -2.649623068106e-04
3.474539219427e-07 3.474539215889e-07 -2.619611542264e-04
-3.474539216995e-07 3.474539215716e-07 -2.619611542274e-04
3.474539220667e-07 -3.474539220477e-07 -2.619611542253e-04
-3.474539215715e-07 -3.474539220630e-07 -2.619611542265e-04
SCALARS sfc_displacement_magnitude float 1
LOOKUP_TABLE default
0.000000000000e+00
0.000000000000e+00
0.000000000000e+00
0.000000000000e+00
0.000000000000e+00
0.000000000000e+00
0.000000000000e+00
0.000000000000e+00
1.410238286229e-02
1.410238286229e-02
1.410238286229e-02
1.410238286229e-02
1.409935728464e-02
1.409935728464e-02
1.409935728464e-02
1.409935728464e-02
SCALARS calculix_displacement_magnitude float 1
LOOKUP_TABLE default
0.000000000000e+00
0.000000000000e+00
0.000000000000e+00
0.000000000000e+00
0.000000000000e+00
0.000000000000e+00
0.000000000000e+00
0.000000000000e+00
1.383742056898e-02
1.383742056898e-02
1.383742056898e-02
1.383742056898e-02
1.383739614391e-02
1.383739614391e-02
1.383739614391e-02
1.383739614391e-02
SCALARS displacement_error_magnitude float 1
LOOKUP_TABLE default
0.000000000000e+00
0.000000000000e+00
0.000000000000e+00
0.000000000000e+00
0.000000000000e+00
0.000000000000e+00
0.000000000000e+00
0.000000000000e+00
2.649627624380e-04
2.649627624390e-04
2.649627624369e-04
2.649627624381e-04
2.619616150739e-04
2.619616150748e-04
2.619616150727e-04
2.619616150739e-04
CELL_DATA 2
SCALARS cell_displacement_error_magnitude float 1
LOOKUP_TABLE default
0.000000000000e+00
2.634621887559e-04
SCALARS von_mises_abs_error float 1
LOOKUP_TABLE default
0.000000000000e+00
7.359493582154e-01
SCALARS engineering_strain_norm_abs_error float 1
LOOKUP_TABLE default
0.000000000000e+00
9.145252665049e-06
