# vtk DataFile Version 3.0
SFC minus CalculiX common-time error block_block_c3d8 frame 22 t=4.400000000000e-02
ASCII
DATASET UNSTRUCTURED_GRID
POINTS 16 float
-2.500000000000e-01 -2.500000000000e-01 0.000000000000e+00
2.500000000000e-01 -2.500000000000e-01 0.000000000000e+00
-2.500000000000e-01 2.500000000000e-01 0.000000000000e+00
2.500000000000e-01 2.500000000000e-01 0.000000000000e+00
-2.500000000000e-01 -2.500000000000e-01 2.400000000000e-01
2.500000000000e-01 -2.500000000000e-01 2.400000000000e-01
-2.500000000000e-01 2.500000000000e-01 2.400000000000e-01
2.500000000000e-01 2.500000000000e-01 2.400000000000e-01
-2.500000495688e-01 -2.500000495688e-01 2.420813809136e-01
2.500000495688e-01 -2.500000495688e-01 2.420813809136e-01
-2.500000495688e-01 2.500000495688e-01 2.420813809136e-01
2.500000495688e-01 2.500000495688e-01 2.420813809136e-01
-2.500000495688e-01 -2.500000495688e-01 5.020780412433e-01
2.500000495688e-01 -2.500000495688e-01 5.020780412433e-01
-2.500000495688e-01 2.500000495688e-01 5.020780412433e-01
2.500000495688e-01 2.500000495688e-01 5.020780412433e-01
CELLS 2 18
8 0 1 3 2 4 5 7 6
8 8 9 11 10 12 13 15 14
CELL_TYPES 2
12
12
POINT_DATA 16
VECTORS sfc_displacement float
0.000000000000e+00 0.000000000000e+00 0.000000000000e+00
0.000000000000e+00 0.000000000000e+00 0.000000000000e+00
0.000000000000e+00 0.000000000000e+00 0.000000000000e+00
0.000000000000e+00 0.000000000000e+00 0.000000000000e+00
0.000000000000e+00 0.000000000000e+00 0.000000000000e+00
0.000000000000e+00 0.000000000000e+00 0.000000000000e+00
0.000000000000e+00 0.000000000000e+00 0.000000000000e+00
0.000000000000e+00 0.000000000000e+00 0.000000000000e+00
-4.956879403186e-08 -4.956879306352e-08 -1.291861908639e-02
4.956879297778e-08 -4.956879317791e-08 -1.291861908639e-02
-4.956879400602e-08 4.956879394128e-08 -1.291861908638e-02
4.956879300609e-08 4.956879383413e-08 -1.291861908639e-02
-4.956879327041e-08 -4.956879381085e-08 -1.292195875673e-02
4.956879373977e-08 -4.956879383684e-08 -1.292195875673e-02
-4.956879315948e-08 4.956879320109e-08 -1.292195875672e-02
4.956879384917e-08 4.956879316658e-08 -1.292195875673e-02
VECTORS calculix_displacement float
0.000000000000e+00 0.000000000000e+00 0.000000000000e+00
0.000000000000e+00 0.000000000000e+00 0.000000000000e+00
0.000000000000e+00 0.000000000000e+00 0.000000000000e+00
0.000000000000e+00 0.000000000000e+00 0.000000000000e+00
0.000000000000e+00 0.000000000000e+00 0.000000000000e+00
0.000000000000e+00 0.000000000000e+00 0.000000000000e+00
0.000000000000e+00 0.000000000000e+00 0.000000000000e+00
0.000000000000e+00 0.000000000000e+00 0.000000000000e+00
2.707714344865e-07 2.707714344865e-07 -1.265612942889e-02
-2.707714344865e-07 2.707714344865e-07 -1.265612942889e-02
2.707714344865e-07 -2.707714344865e-07 -1.265612942889e-02
-2.707714344865e-07 -2.707714344865e-07 -1.265612942889e-02
2.707714344865e-07 2.707714344865e-07 -1.265710683690e-02
-2.707714344865e-07 2.707714344865e-07 -1.265710683690e-02
2.707714344865e-07 -2.707714344865e-07 -1.265710683690e-02
-2.707714344865e-07 -2.707714344865e-07 -1.265710683690e-02
VECTORS displacement_error float
0.000000000000e+00 0.000000000000e+00 0.000000000000e+00
0.000000000000e+00 0.000000000000e+00 0.000000000000e+00
0.000000000000e+00 0.000000000000e+00 0.000000000000e+00
0.000000000000e+00 0.000000000000e+00 0.000000000000e+00
0.000000000000e+00 0.000000000000e+00 0.000000000000e+00
0.000000000000e+00 0.000000000000e+00 0.000000000000e+00
0.000000000000e+00 0.000000000000e+00 0.000000000000e+00
0.000000000000e+00 0.000000000000e+00 0.000000000000e+00
-3.203402285184e-07 -3.203402275501e-07 -2.624896575002e-04
3.203402274643e-07 -3.203402276645e-07 -2.624896575017e-04
-3.203402284926e-07 3.203402284278e-07 -2.624896574987e-04
3.203402274926e-07 3.203402283207e-07 -2.624896575004e-04
-3.203402277570e-07 -3.203402282974e-07 -2.648519198235e-04
3.203402282263e-07 -3.203402283234e-07 -2.648519198249e-04
-3.203402276460e-07 3.203402276876e-07 -2.648519198220e-04
3.203402283357e-07 3.203402276531e-07 -2.648519198237e-04
SCALARS sfc_displacement_magnitude float 1
LOOKUP_TABLE default
0.000000000000e+00
0.000000000000e+00
0.000000000000e+00
0.000000000000e+00
0.000000000000e+00
0.000000000000e+00
0.000000000000e+00
0.000000000000e+00
1.291861908658e-02
1.291861908658e-02
1.291861908657e-02
1.291861908658e-02
1.292195875692e-02
1.292195875692e-02
1.292195875691e-02
1.292195875692e-02
SCALARS calculix_displacement_magnitude float 1
LOOKUP_TABLE default
0.000000000000e+00
0.000000000000e+00
0.000000000000e+00
0.000000000000e+00
0.000000000000e+00
0.000000000000e+00
0.000000000000e+00
0.000000000000e+00
1.265612943468e-02
1.265612943468e-02
1.265612943468e-02
1.265612943468e-02
1.265710684270e-02
1.265710684270e-02
1.265710684270e-02
1.265710684270e-02
SCALARS displacement_error_magnitude float 1
LOOKUP_TABLE default
0.000000000000e+00
0.000000000000e+00
0.000000000000e+00
0.000000000000e+00
0.000000000000e+00
0.000000000000e+00
0.000000000000e+00
0.000000000000e+00
2.624900484405e-04
2.624900484420e-04
2.624900484390e-04
2.624900484407e-04
2.648523072769e-04
2.648523072784e-04
2.648523072755e-04
2.648523072771e-04
CELL_DATA 2
SCALARS cell_displacement_error_magnitude float 1
LOOKUP_TABLE default
0.000000000000e+00
2.636711778588e-04
SCALARS von_mises_abs_error float 1
LOOKUP_TABLE default
0.000000000000e+00
7.968857775282e-01
SCALARS engineering_strain_norm_abs_error float 1
LOOKUP_TABLE default
0.000000000000e+00
8.788611578105e-06
