# vtk DataFile Version 3.0
SFC minus CalculiX common-time error block_block_c3d8 frame 10 t=2.000000000000e-02
ASCII
DATASET UNSTRUCTURED_GRID
POINTS 16 float
-2.500000000000e-01 -2.500000000000e-01 0.000000000000e+00
2.500000000000e-01 -2.500000000000e-01 0.000000000000e+00
-2.500000000000e-01 2.500000000000e-01 0.000000000000e+00
2.500000000000e-01 2.500000000000e-01 0.000000000000e+00
-2.500000000000e-01 -2.500000000000e-01 2.400000000000e-01
2.500000000000e-01 -2.500000000000e-01 2.400000000000e-01
-2.500000000000e-01 2.500000000000e-01 2.400000000000e-01
2.500000000000e-01 2.500000000000e-01 2.400000000000e-01
-2.500000000000e-01 -2.500000000000e-01 2.470380000000e-01
2.500000000000e-01 -2.500000000000e-01 2.470380000000e-01
-2.500000000000e-01 2.500000000000e-01 2.470380000000e-01
2.500000000000e-01 2.500000000000e-01 2.470380000000e-01
-2.500000000000e-01 -2.500000000000e-01 5.070380000000e-01
2.500000000000e-01 -2.500000000000e-01 5.070380000000e-01
-2.500000000000e-01 2.500000000000e-01 5.070380000000e-01
2.500000000000e-01 2.500000000000e-01 5.070380000000e-01
CELLS 2 18
8 0 1 3 2 4 5 7 6
8 8 9 11 10 12 13 15 14
CELL_TYPES 2
12
12
POINT_DATA 16
VECTORS sfc_displacement float
0.000000000000e+00 0.000000000000e+00 0.000000000000e+00
0.000000000000e+00 0.000000000000e+00 0.000000000000e+00
0.000000000000e+00 0.000000000000e+00 0.000000000000e+00
0.000000000000e+00 0.000000000000e+00 0.000000000000e+00
0.000000000000e+00 0.000000000000e+00 0.000000000000e+00
0.000000000000e+00 0.000000000000e+00 0.000000000000e+00
0.000000000000e+00 0.000000000000e+00 0.000000000000e+00
0.000000000000e+00 0.000000000000e+00 0.000000000000e+00
4.838882195077e-17 -5.012111710876e-17 -7.962000000000e-03
5.041219793259e-17 -7.141337258440e-17 -7.962000000000e-03
5.274688357725e-17 -5.379728434782e-17 -7.962000000000e-03
5.025032758726e-17 -6.766610700298e-17 -7.962000000000e-03
-9.569225246870e-17 7.035616720483e-17 -7.962000000000e-03
-9.637906108441e-17 6.455134080944e-17 -7.962000000000e-03
-7.634445329231e-17 6.753374741658e-17 -7.962000000000e-03
-7.506741856969e-17 6.829512087451e-17 -7.962000000000e-03
VECTORS calculix_displacement float
0.000000000000e+00 0.000000000000e+00 0.000000000000e+00
0.000000000000e+00 0.000000000000e+00 0.000000000000e+00
0.000000000000e+00 0.000000000000e+00 0.000000000000e+00
0.000000000000e+00 0.000000000000e+00 0.000000000000e+00
0.000000000000e+00 0.000000000000e+00 0.000000000000e+00
0.000000000000e+00 0.000000000000e+00 0.000000000000e+00
0.000000000000e+00 0.000000000000e+00 0.000000000000e+00
0.000000000000e+00 0.000000000000e+00 0.000000000000e+00
4.696667000000e-19 1.641708000000e-19 -7.962000000000e-03
5.966312000000e-20 -3.993969000000e-20 -7.962000000000e-03
3.624852000000e-20 2.081118000000e-19 -7.962000000000e-03
3.974502000000e-19 -7.404795000000e-20 -7.962000000000e-03
-3.219514000000e-19 -4.701811000000e-20 -7.962000000000e-03
-2.073886000000e-19 2.438355000000e-19 -7.962000000000e-03
1.371300000000e-19 -3.247138000000e-19 -7.962000000000e-03
-5.702287000000e-19 -1.299006000000e-19 -7.962000000000e-03
VECTORS displacement_error float
0.000000000000e+00 0.000000000000e+00 0.000000000000e+00
0.000000000000e+00 0.000000000000e+00 0.000000000000e+00
0.000000000000e+00 0.000000000000e+00 0.000000000000e+00
0.000000000000e+00 0.000000000000e+00 0.000000000000e+00
0.000000000000e+00 0.000000000000e+00 0.000000000000e+00
0.000000000000e+00 0.000000000000e+00 0.000000000000e+00
0.000000000000e+00 0.000000000000e+00 0.000000000000e+00
0.000000000000e+00 0.000000000000e+00 0.000000000000e+00
4.791915525077e-17 -5.028528790876e-17 8.153200337091e-17
5.035253481259e-17 -7.137343289440e-17 3.642919299551e-16
5.271063505725e-17 -5.400539614782e-17 -1.509209424100e-16
4.985287738726e-17 -6.759205905298e-17 1.006139616067e-16
-9.537030106870e-17 7.040318531483e-17 8.326672684689e-17
-9.617167248441e-17 6.430750530944e-17 3.608224830032e-16
-7.648158329231e-17 6.785846121658e-17 -1.457167719821e-16
-7.449718986969e-17 6.842502147451e-17 9.540979117872e-17
SCALARS sfc_displacement_magnitude float 1
LOOKUP_TABLE default
0.000000000000e+00
0.000000000000e+00
0.000000000000e+00
0.000000000000e+00
0.000000000000e+00
0.000000000000e+00
0.000000000000e+00
0.000000000000e+00
7.962000000000e-03
7.962000000000e-03
7.962000000000e-03
7.962000000000e-03
7.962000000000e-03
7.962000000000e-03
7.962000000000e-03
7.962000000000e-03
SCALARS calculix_displacement_magnitude float 1
LOOKUP_TABLE default
0.000000000000e+00
0.000000000000e+00
0.000000000000e+00
0.000000000000e+00
0.000000000000e+00
0.000000000000e+00
0.000000000000e+00
0.000000000000e+00
7.962000000000e-03
7.962000000000e-03
7.962000000000e-03
7.962000000000e-03
7.962000000000e-03
7.962000000000e-03
7.962000000000e-03
7.962000000000e-03
SCALARS displacement_error_magnitude float 1
LOOKUP_TABLE default
0.000000000000e+00
0.000000000000e+00
0.000000000000e+00
0.000000000000e+00
0.000000000000e+00
0.000000000000e+00
0.000000000000e+00
0.000000000000e+00
1.071089314375e-16
3.746173446540e-16
1.687368505073e-16
1.310616843360e-16
1.448635586619e-16
3.789159670272e-16
1.780100586440e-16
1.390497864617e-16
CELL_DATA 2
SCALARS cell_displacement_error_magnitude float 1
LOOKUP_TABLE default
0.000000000000e+00
2.027955227162e-16
SCALARS von_mises_abs_error float 1
LOOKUP_TABLE default
0.000000000000e+00
7.671921735751e-14
SCALARS engineering_strain_norm_abs_error float 1
LOOKUP_TABLE default
0.000000000000e+00
7.457226296786e-19
