# vtk DataFile Version 3.0
SFC minus CalculiX common-time error block_block_c3d8 frame 18 t=3.600000000000e-02
ASCII
DATASET UNSTRUCTURED_GRID
POINTS 16 float
-2.500000000000e-01 -2.500000000000e-01 0.000000000000e+00
2.500000000000e-01 -2.500000000000e-01 0.000000000000e+00
-2.500000000000e-01 2.500000000000e-01 0.000000000000e+00
2.500000000000e-01 2.500000000000e-01 0.000000000000e+00
-2.500000000000e-01 -2.500000000000e-01 2.400000000000e-01
2.500000000000e-01 -2.500000000000e-01 2.400000000000e-01
-2.500000000000e-01 2.500000000000e-01 2.400000000000e-01
2.500000000000e-01 2.500000000000e-01 2.400000000000e-01
-2.500281920582e-01 -2.500281920582e-01 2.386889193557e-01
2.500281920582e-01 -2.500281920582e-01 2.386889193557e-01
-2.500281920582e-01 2.500281920582e-01 2.386889193557e-01
2.500281920582e-01 2.500281920582e-01 2.386889193557e-01
-2.500281920582e-01 -2.500281920582e-01 4.985971988351e-01
2.500281920582e-01 -2.500281920582e-01 4.985971988351e-01
-2.500281920582e-01 2.500281920582e-01 4.985971988351e-01
2.500281920582e-01 2.500281920582e-01 4.985971988351e-01
CELLS 2 18
8 0 1 3 2 4 5 7 6
8 8 9 11 10 12 13 15 14
CELL_TYPES 2
12
12
POINT_DATA 16
VECTORS sfc_displacement float
0.000000000000e+00 0.000000000000e+00 0.000000000000e+00
0.000000000000e+00 0.000000000000e+00 0.000000000000e+00
0.000000000000e+00 0.000000000000e+00 0.000000000000e+00
0.000000000000e+00 0.000000000000e+00 0.000000000000e+00
0.000000000000e+00 0.000000000000e+00 0.000000000000e+00
0.000000000000e+00 0.000000000000e+00 0.000000000000e+00
0.000000000000e+00 0.000000000000e+00 0.000000000000e+00
0.000000000000e+00 0.000000000000e+00 0.000000000000e+00
-2.819205820804e-05 -2.819205820820e-05 -1.631108064427e-02
2.819205820814e-05 -2.819205820826e-05 -1.631108064427e-02
-2.819205820796e-05 2.819205820801e-05 -1.631108064427e-02
2.819205820823e-05 2.819205820791e-05 -1.631108064427e-02
-2.819205820838e-05 -2.819205820788e-05 -1.640280116490e-02
2.819205820779e-05 -2.819205820794e-05 -1.640280116490e-02
-2.819205820832e-05 2.819205820832e-05 -1.640280116490e-02
2.819205820789e-05 2.819205820824e-05 -1.640280116490e-02
VECTORS calculix_displacement float
0.000000000000e+00 0.000000000000e+00 0.000000000000e+00
0.000000000000e+00 0.000000000000e+00 0.000000000000e+00
0.000000000000e+00 0.000000000000e+00 0.000000000000e+00
0.000000000000e+00 0.000000000000e+00 0.000000000000e+00
0.000000000000e+00 0.000000000000e+00 0.000000000000e+00
0.000000000000e+00 0.000000000000e+00 0.000000000000e+00
0.000000000000e+00 0.000000000000e+00 0.000000000000e+00
0.000000000000e+00 0.000000000000e+00 0.000000000000e+00
-2.257742332491e-05 -2.257742332491e-05 -1.642557975089e-02
2.257742332491e-05 -2.257742332491e-05 -1.642557975089e-02
-2.257742332491e-05 2.257742332491e-05 -1.642557975089e-02
2.257742332491e-05 2.257742332491e-05 -1.642557975089e-02
-2.257742332491e-05 -2.257742332491e-05 -1.651217596158e-02
2.257742332491e-05 -2.257742332491e-05 -1.651217596158e-02
-2.257742332491e-05 2.257742332491e-05 -1.651217596158e-02
2.257742332491e-05 2.257742332491e-05 -1.651217596158e-02
VECTORS displacement_error float
0.000000000000e+00 0.000000000000e+00 0.000000000000e+00
0.000000000000e+00 0.000000000000e+00 0.000000000000e+00
0.000000000000e+00 0.000000000000e+00 0.000000000000e+00
0.000000000000e+00 0.000000000000e+00 0.000000000000e+00
0.000000000000e+00 0.000000000000e+00 0.000000000000e+00
0.000000000000e+00 0.000000000000e+00 0.000000000000e+00
0.000000000000e+00 0.000000000000e+00 0.000000000000e+00
0.000000000000e+00 0.000000000000e+00 0.000000000000e+00
-5.614634883122e-06 -5.614634883287e-06 1.144991066170e-04
5.614634883230e-06 -5.614634883344e-06 1.144991066176e-04
-5.614634883048e-06 5.614634883099e-06 1.144991066164e-04
5.614634883321e-06 5.614634882997e-06 1.144991066170e-04
-5.614634883465e-06 -5.614634882970e-06 1.093747966826e-04
5.614634882878e-06 -5.614634883030e-06 1.093747966833e-04
-5.614634883401e-06 5.614634883409e-06 1.093747966820e-04
5.614634882973e-06 5.614634883323e-06 1.093747966827e-04
SCALARS sfc_displacement_magnitude float 1
LOOKUP_TABLE default
0.000000000000e+00
0.000000000000e+00
0.000000000000e+00
0.000000000000e+00
0.000000000000e+00
0.000000000000e+00
0.000000000000e+00
0.000000000000e+00
1.631112937133e-02
1.631112937133e-02
1.631112937133e-02
1.631112937133e-02
1.640284961948e-02
1.640284961948e-02
1.640284961948e-02
1.640284961948e-02
SCALARS calculix_displacement_magnitude float 1
LOOKUP_TABLE default
0.000000000000e+00
0.000000000000e+00
0.000000000000e+00
0.000000000000e+00
0.000000000000e+00
0.000000000000e+00
0.000000000000e+00
0.000000000000e+00
1.642561078416e-02
1.642561078416e-02
1.642561078416e-02
1.642561078416e-02
1.651220683211e-02
1.651220683211e-02
1.651220683211e-02
1.651220683211e-02
SCALARS displacement_error_magnitude float 1
LOOKUP_TABLE default
0.000000000000e+00
0.000000000000e+00
0.000000000000e+00
0.000000000000e+00
0.000000000000e+00
0.000000000000e+00
0.000000000000e+00
0.000000000000e+00
1.147740984100e-04
1.147740984106e-04
1.147740984094e-04
1.147740984100e-04
1.096626390304e-04
1.096626390310e-04
1.096626390298e-04
1.096626390304e-04
CELL_DATA 2
SCALARS cell_displacement_error_magnitude float 1
LOOKUP_TABLE default
0.000000000000e+00
1.122183687202e-04
SCALARS von_mises_abs_error float 1
LOOKUP_TABLE default
0.000000000000e+00
3.266257899857e+00
SCALARS engineering_strain_norm_abs_error float 1
LOOKUP_TABLE default
0.000000000000e+00
3.043427581568e-05
