# vtk DataFile Version 3.0
SFC minus CalculiX common-time error block_block_c3d8 frame 38 t=7.600000000000e-02
ASCII
DATASET UNSTRUCTURED_GRID
POINTS 16 float
-2.500000000000e-01 -2.500000000000e-01 0.000000000000e+00
2.500000000000e-01 -2.500000000000e-01 0.000000000000e+00
-2.500000000000e-01 2.500000000000e-01 0.000000000000e+00
2.500000000000e-01 2.500000000000e-01 0.000000000000e+00
-2.500000000000e-01 -2.500000000000e-01 2.400000000000e-01
2.500000000000e-01 -2.500000000000e-01 2.400000000000e-01
-2.500000000000e-01 2.500000000000e-01 2.400000000000e-01
2.500000000000e-01 2.500000000000e-01 2.400000000000e-01
-2.500000324451e-01 -2.500000324451e-01 2.556340195286e-01
2.500000324451e-01 -2.500000324451e-01 2.556340195286e-01
-2.500000324451e-01 2.500000324451e-01 2.556340195287e-01
2.500000324451e-01 2.500000324451e-01 2.556340195286e-01
-2.500000324451e-01 -2.500000324451e-01 5.156307194689e-01
2.500000324451e-01 -2.500000324451e-01 5.156307194689e-01
-2.500000324451e-01 2.500000324451e-01 5.156307194689e-01
2.500000324451e-01 2.500000324451e-01 5.156307194689e-01
CELLS 2 18
8 0 1 3 2 4 5 7 6
8 8 9 11 10 12 13 15 14
CELL_TYPES 2
12
12
POINT_DATA 16
VECTORS sfc_displacement float
0.000000000000e+00 0.000000000000e+00 0.000000000000e+00
0.000000000000e+00 0.000000000000e+00 0.000000000000e+00
0.000000000000e+00 0.000000000000e+00 0.000000000000e+00
0.000000000000e+00 0.000000000000e+00 0.000000000000e+00
0.000000000000e+00 0.000000000000e+00 0.000000000000e+00
0.000000000000e+00 0.000000000000e+00 0.000000000000e+00
0.000000000000e+00 0.000000000000e+00 0.000000000000e+00
0.000000000000e+00 0.000000000000e+00 0.000000000000e+00
-3.244508123388e-08 -3.244507662576e-08 6.340195286430e-04
3.244507596159e-08 -3.244507685792e-08 6.340195286347e-04
-3.244508101213e-08 3.244508056872e-08 6.340195286500e-04
3.244507617852e-08 3.244508033217e-08 6.340195286417e-04
-3.244507694121e-08 -3.244508028538e-08 6.307194688903e-04
3.244508024879e-08 -3.244508050494e-08 6.307194688821e-04
-3.244507670264e-08 3.244507690995e-08 6.307194688974e-04
3.244508048612e-08 3.244507668608e-08 6.307194688891e-04
VECTORS calculix_displacement float
0.000000000000e+00 0.000000000000e+00 0.000000000000e+00
0.000000000000e+00 0.000000000000e+00 0.000000000000e+00
0.000000000000e+00 0.000000000000e+00 0.000000000000e+00
0.000000000000e+00 0.000000000000e+00 0.000000000000e+00
0.000000000000e+00 0.000000000000e+00 0.000000000000e+00
0.000000000000e+00 0.000000000000e+00 0.000000000000e+00
0.000000000000e+00 0.000000000000e+00 0.000000000000e+00
0.000000000000e+00 0.000000000000e+00 0.000000000000e+00
-1.579514978350e-07 -1.579514978350e-07 9.267057422550e-04
1.579514978350e-07 -1.579514978350e-07 9.267057422550e-04
-1.579514978350e-07 1.579514978350e-07 9.267057422550e-04
1.579514978350e-07 1.579514978350e-07 9.267057422550e-04
-1.579514978350e-07 -1.579514978350e-07 9.263073856750e-04
1.579514978350e-07 -1.579514978350e-07 9.263073856750e-04
-1.579514978350e-07 1.579514978350e-07 9.263073856750e-04
1.579514978350e-07 1.579514978350e-07 9.263073856750e-04
VECTORS displacement_error float
0.000000000000e+00 0.000000000000e+00 0.000000000000e+00
0.000000000000e+00 0.000000000000e+00 0.000000000000e+00
0.000000000000e+00 0.000000000000e+00 0.000000000000e+00
0.000000000000e+00 0.000000000000e+00 0.000000000000e+00
0.000000000000e+00 0.000000000000e+00 0.000000000000e+00
0.000000000000e+00 0.000000000000e+00 0.000000000000e+00
0.000000000000e+00 0.000000000000e+00 0.000000000000e+00
0.000000000000e+00 0.000000000000e+00 0.000000000000e+00
1.255064166011e-07 1.255064212092e-07 -2.926862136120e-04
-1.255064218734e-07 1.255064209771e-07 -2.926862136203e-04
1.255064168229e-07 -1.255064172663e-07 -2.926862136050e-04
-1.255064216565e-07 -1.255064175028e-07 -2.926862136133e-04
1.255064208938e-07 1.255064175496e-07 -2.955879167847e-04
-1.255064175862e-07 1.255064173301e-07 -2.955879167929e-04
1.255064211324e-07 -1.255064209251e-07 -2.955879167776e-04
-1.255064173489e-07 -1.255064211489e-07 -2.955879167859e-04
SCALARS sfc_displacement_magnitude float 1
LOOKUP_TABLE default
0.000000000000e+00
0.000000000000e+00
0.000000000000e+00
0.000000000000e+00
0.000000000000e+00
0.000000000000e+00
0.000000000000e+00
0.000000000000e+00
6.340195303033e-04
6.340195302951e-04
6.340195303104e-04
6.340195303021e-04
6.307194705593e-04
6.307194705511e-04
6.307194705664e-04
6.307194705581e-04
SCALARS calculix_displacement_magnitude float 1
LOOKUP_TABLE default
0.000000000000e+00
0.000000000000e+00
0.000000000000e+00
0.000000000000e+00
0.000000000000e+00
0.000000000000e+00
0.000000000000e+00
0.000000000000e+00
9.267057691769e-04
9.267057691769e-04
9.267057691769e-04
9.267057691769e-04
9.263074126085e-04
9.263074126085e-04
9.263074126085e-04
9.263074126085e-04
SCALARS displacement_error_magnitude float 1
LOOKUP_TABLE default
0.000000000000e+00
0.000000000000e+00
0.000000000000e+00
0.000000000000e+00
0.000000000000e+00
0.000000000000e+00
0.000000000000e+00
0.000000000000e+00
2.926862674303e-04
2.926862674385e-04
2.926862674232e-04
2.926862674315e-04
2.955879700746e-04
2.955879700828e-04
2.955879700676e-04
2.955879700759e-04
CELL_DATA 2
SCALARS cell_displacement_error_magnitude float 1
LOOKUP_TABLE default
0.000000000000e+00
2.941371187531e-04
SCALARS von_mises_abs_error float 1
LOOKUP_TABLE default
0.000000000000e+00
8.198347324537e-01
SCALARS engineering_strain_norm_abs_error float 1
LOOKUP_TABLE default
0.000000000000e+00
1.092022052473e-05
