# vtk DataFile Version 3.0
SFC minus CalculiX common-time error block_block_c3d8 frame 25 t=5.000000000000e-02
ASCII
DATASET UNSTRUCTURED_GRID
POINTS 16 float
-2.500000000000e-01 -2.500000000000e-01 0.000000000000e+00
2.500000000000e-01 -2.500000000000e-01 0.000000000000e+00
-2.500000000000e-01 2.500000000000e-01 0.000000000000e+00
2.500000000000e-01 2.500000000000e-01 0.000000000000e+00
-2.500000000000e-01 -2.500000000000e-01 2.400000000000e-01
2.500000000000e-01 -2.500000000000e-01 2.400000000000e-01
-2.500000000000e-01 2.500000000000e-01 2.400000000000e-01
2.500000000000e-01 2.500000000000e-01 2.400000000000e-01
-2.500004286946e-01 -2.500004286946e-01 2.453856970437e-01
2.500004286946e-01 -2.500004286946e-01 2.453856970437e-01
-2.500004286946e-01 2.500004286946e-01 2.453856970437e-01
2.500004286946e-01 2.500004286946e-01 2.453856970437e-01
-2.500004286946e-01 -2.500004286946e-01 5.053863320208e-01
2.500004286946e-01 -2.500004286946e-01 5.053863320208e-01
-2.500004286946e-01 2.500004286946e-01 5.053863320208e-01
2.500004286946e-01 2.500004286946e-01 5.053863320208e-01
CELLS 2 18
8 0 1 3 2 4 5 7 6
8 8 9 11 10 12 13 15 14
CELL_TYPES 2
12
12
POINT_DATA 16
VECTORS sfc_displacement float
0.000000000000e+00 0.000000000000e+00 0.000000000000e+00
0.000000000000e+00 0.000000000000e+00 0.000000000000e+00
0.000000000000e+00 0.000000000000e+00 0.000000000000e+00
0.000000000000e+00 0.000000000000e+00 0.000000000000e+00
0.000000000000e+00 0.000000000000e+00 0.000000000000e+00
0.000000000000e+00 0.000000000000e+00 0.000000000000e+00
0.000000000000e+00 0.000000000000e+00 0.000000000000e+00
0.000000000000e+00 0.000000000000e+00 0.000000000000e+00
-4.286945861786e-07 -4.286945845121e-07 -9.614302956325e-03
4.286945842074e-07 -4.286945846139e-07 -9.614302956328e-03
-4.286945861225e-07 4.286945858763e-07 -9.614302956322e-03
4.286945842656e-07 4.286945857638e-07 -9.614302956326e-03
-4.286945846095e-07 -4.286945857299e-07 -9.613667979166e-03
4.286945857764e-07 -4.286945857861e-07 -9.613667979169e-03
-4.286945845042e-07 4.286945846561e-07 -9.613667979163e-03
4.286945858821e-07 4.286945846009e-07 -9.613667979167e-03
VECTORS calculix_displacement float
0.000000000000e+00 0.000000000000e+00 0.000000000000e+00
0.000000000000e+00 0.000000000000e+00 0.000000000000e+00
0.000000000000e+00 0.000000000000e+00 0.000000000000e+00
0.000000000000e+00 0.000000000000e+00 0.000000000000e+00
0.000000000000e+00 0.000000000000e+00 0.000000000000e+00
0.000000000000e+00 0.000000000000e+00 0.000000000000e+00
0.000000000000e+00 0.000000000000e+00 0.000000000000e+00
0.000000000000e+00 0.000000000000e+00 0.000000000000e+00
1.507879231000e-06 1.507879231000e-06 -9.347032109850e-03
-1.507879231000e-06 1.507879231000e-06 -9.347032109850e-03
1.507879231000e-06 -1.507879231000e-06 -9.347032109850e-03
-1.507879231000e-06 -1.507879231000e-06 -9.347032109850e-03
1.507879231000e-06 1.507879231000e-06 -9.345082513400e-03
-1.507879231000e-06 1.507879231000e-06 -9.345082513400e-03
1.507879231000e-06 -1.507879231000e-06 -9.345082513400e-03
-1.507879231000e-06 -1.507879231000e-06 -9.345082513400e-03
VECTORS displacement_error float
0.000000000000e+00 0.000000000000e+00 0.000000000000e+00
0.000000000000e+00 0.000000000000e+00 0.000000000000e+00
0.000000000000e+00 0.000000000000e+00 0.000000000000e+00
0.000000000000e+00 0.000000000000e+00 0.000000000000e+00
0.000000000000e+00 0.000000000000e+00 0.000000000000e+00
0.000000000000e+00 0.000000000000e+00 0.000000000000e+00
0.000000000000e+00 0.000000000000e+00 0.000000000000e+00
0.000000000000e+00 0.000000000000e+00 0.000000000000e+00
-1.936573817179e-06 -1.936573815512e-06 -2.672708464748e-04
1.936573815207e-06 -1.936573815614e-06 -2.672708464778e-04
-1.936573817123e-06 1.936573816876e-06 -2.672708464725e-04
1.936573815266e-06 1.936573816764e-06 -2.672708464756e-04
-1.936573815609e-06 -1.936573816730e-06 -2.685854657658e-04
1.936573816776e-06 -1.936573816786e-06 -2.685854657688e-04
-1.936573815504e-06 1.936573815656e-06 -2.685854657634e-04
1.936573816882e-06 1.936573815601e-06 -2.685854657666e-04
SCALARS sfc_displacement_magnitude float 1
LOOKUP_TABLE default
0.000000000000e+00
0.000000000000e+00
0.000000000000e+00
0.000000000000e+00
0.000000000000e+00
0.000000000000e+00
0.000000000000e+00
0.000000000000e+00
9.614302975440e-03
9.614302975443e-03
9.614302975438e-03
9.614302975441e-03
9.613667998282e-03
9.613667998285e-03
9.613667998280e-03
9.613667998283e-03
SCALARS calculix_displacement_magnitude float 1
LOOKUP_TABLE default
0.000000000000e+00
0.000000000000e+00
0.000000000000e+00
0.000000000000e+00
0.000000000000e+00
0.000000000000e+00
0.000000000000e+00
0.000000000000e+00
9.347032353104e-03
9.347032353104e-03
9.347032353104e-03
9.347032353104e-03
9.345082756704e-03
9.345082756704e-03
9.345082756704e-03
9.345082756704e-03
SCALARS displacement_error_magnitude float 1
LOOKUP_TABLE default
0.000000000000e+00
0.000000000000e+00
0.000000000000e+00
0.000000000000e+00
0.000000000000e+00
0.000000000000e+00
0.000000000000e+00
0.000000000000e+00
2.672848780078e-04
2.672848780108e-04
2.672848780055e-04
2.672848780086e-04
2.685994286236e-04
2.685994286266e-04
2.685994286212e-04
2.685994286244e-04
CELL_DATA 2
SCALARS cell_displacement_error_magnitude float 1
LOOKUP_TABLE default
0.000000000000e+00
2.679421533161e-04
SCALARS von_mises_abs_error float 1
LOOKUP_TABLE default
0.000000000000e+00
9.848061670797e-01
SCALARS engineering_strain_norm_abs_error float 1
LOOKUP_TABLE default
0.000000000000e+00
7.915451395788e-06
