# vtk DataFile Version 3.0
SFC minus CalculiX common-time error block_block_c3d8 frame 27 t=5.400000000000e-02
ASCII
DATASET UNSTRUCTURED_GRID
POINTS 16 float
-2.500000000000e-01 -2.500000000000e-01 0.000000000000e+00
2.500000000000e-01 -2.500000000000e-01 0.000000000000e+00
-2.500000000000e-01 2.500000000000e-01 0.000000000000e+00
2.500000000000e-01 2.500000000000e-01 0.000000000000e+00
-2.500000000000e-01 -2.500000000000e-01 2.400000000000e-01
2.500000000000e-01 -2.500000000000e-01 2.400000000000e-01
-2.500000000000e-01 2.500000000000e-01 2.400000000000e-01
2.500000000000e-01 2.500000000000e-01 2.400000000000e-01
-2.500002150746e-01 -2.500002150746e-01 2.473947909788e-01
2.500002150746e-01 -2.500002150746e-01 2.473947909788e-01
-2.500002150746e-01 2.500002150746e-01 2.473947909788e-01
2.500002150746e-01 2.500002150746e-01 2.473947909788e-01
-2.500002150746e-01 -2.500002150746e-01 5.073932426908e-01
2.500002150746e-01 -2.500002150746e-01 5.073932426908e-01
-2.500002150746e-01 2.500002150746e-01 5.073932426908e-01
2.500002150746e-01 2.500002150746e-01 5.073932426908e-01
CELLS 2 18
8 0 1 3 2 4 5 7 6
8 8 9 11 10 12 13 15 14
CELL_TYPES 2
12
12
POINT_DATA 16
VECTORS sfc_displacement float
0.000000000000e+00 0.000000000000e+00 0.000000000000e+00
0.000000000000e+00 0.000000000000e+00 0.000000000000e+00
0.000000000000e+00 0.000000000000e+00 0.000000000000e+00
0.000000000000e+00 0.000000000000e+00 0.000000000000e+00
0.000000000000e+00 0.000000000000e+00 0.000000000000e+00
0.000000000000e+00 0.000000000000e+00 0.000000000000e+00
0.000000000000e+00 0.000000000000e+00 0.000000000000e+00
0.000000000000e+00 0.000000000000e+00 0.000000000000e+00
-2.150745599620e-07 -2.150745578234e-07 -7.605209021191e-03
2.150745573195e-07 -2.150745578627e-07 -7.605209021195e-03
-2.150745598084e-07 2.150745594551e-07 -7.605209021188e-03
2.150745574790e-07 2.150745594298e-07 -7.605209021192e-03
-2.150745578077e-07 -2.150745592983e-07 -7.606757309219e-03
2.150745594745e-07 -2.150745594551e-07 -7.606757309223e-03
-2.150745577648e-07 2.150745579914e-07 -7.606757309216e-03
2.150745595194e-07 2.150745578284e-07 -7.606757309220e-03
VECTORS calculix_displacement float
0.000000000000e+00 0.000000000000e+00 0.000000000000e+00
0.000000000000e+00 0.000000000000e+00 0.000000000000e+00
0.000000000000e+00 0.000000000000e+00 0.000000000000e+00
0.000000000000e+00 0.000000000000e+00 0.000000000000e+00
0.000000000000e+00 0.000000000000e+00 0.000000000000e+00
0.000000000000e+00 0.000000000000e+00 0.000000000000e+00
0.000000000000e+00 0.000000000000e+00 0.000000000000e+00
0.000000000000e+00 0.000000000000e+00 0.000000000000e+00
-1.246753897450e-06 -1.246753897450e-06 -7.333111371750e-03
1.246753897450e-06 -1.246753897450e-06 -7.333111371750e-03
-1.246753897450e-06 1.246753897450e-06 -7.333111371750e-03
1.246753897450e-06 1.246753897450e-06 -7.333111371750e-03
-1.246753897450e-06 -1.246753897450e-06 -7.334934072850e-03
1.246753897450e-06 -1.246753897450e-06 -7.334934072850e-03
-1.246753897450e-06 1.246753897450e-06 -7.334934072850e-03
1.246753897450e-06 1.246753897450e-06 -7.334934072850e-03
VECTORS displacement_error float
0.000000000000e+00 0.000000000000e+00 0.000000000000e+00
0.000000000000e+00 0.000000000000e+00 0.000000000000e+00
0.000000000000e+00 0.000000000000e+00 0.000000000000e+00
0.000000000000e+00 0.000000000000e+00 0.000000000000e+00
0.000000000000e+00 0.000000000000e+00 0.000000000000e+00
0.000000000000e+00 0.000000000000e+00 0.000000000000e+00
0.000000000000e+00 0.000000000000e+00 0.000000000000e+00
0.000000000000e+00 0.000000000000e+00 0.000000000000e+00
1.031679337488e-06 1.031679339627e-06 -2.720976494409e-04
-1.031679340131e-06 1.031679339587e-06 -2.720976494451e-04
1.031679337642e-06 -1.031679337995e-06 -2.720976494381e-04
-1.031679339971e-06 -1.031679338020e-06 -2.720976494420e-04
1.031679339642e-06 1.031679338152e-06 -2.718232363687e-04
-1.031679337975e-06 1.031679337995e-06 -2.718232363729e-04
1.031679339685e-06 -1.031679339459e-06 -2.718232363659e-04
-1.031679337931e-06 -1.031679339622e-06 -2.718232363698e-04
SCALARS sfc_displacement_magnitude float 1
LOOKUP_TABLE default
0.000000000000e+00
0.000000000000e+00
0.000000000000e+00
0.000000000000e+00
0.000000000000e+00
0.000000000000e+00
0.000000000000e+00
0.000000000000e+00
7.605209027273e-03
7.605209027277e-03
7.605209027270e-03
7.605209027274e-03
7.606757315300e-03
7.606757315304e-03
7.606757315297e-03
7.606757315301e-03
SCALARS calculix_displacement_magnitude float 1
LOOKUP_TABLE default
0.000000000000e+00
0.000000000000e+00
0.000000000000e+00
0.000000000000e+00
0.000000000000e+00
0.000000000000e+00
0.000000000000e+00
0.000000000000e+00
7.333111583719e-03
7.333111583719e-03
7.333111583719e-03
7.333111583719e-03
7.334934284767e-03
7.334934284767e-03
7.334934284767e-03
7.334934284767e-03
SCALARS displacement_error_magnitude float 1
LOOKUP_TABLE default
0.000000000000e+00
0.000000000000e+00
0.000000000000e+00
0.000000000000e+00
0.000000000000e+00
0.000000000000e+00
0.000000000000e+00
0.000000000000e+00
2.721015611050e-04
2.721015611092e-04
2.721015611022e-04
2.721015611061e-04
2.718271519817e-04
2.718271519859e-04
2.718271519789e-04
2.718271519828e-04
CELL_DATA 2
SCALARS cell_displacement_error_magnitude float 1
LOOKUP_TABLE default
0.000000000000e+00
2.719643565440e-04
SCALARS von_mises_abs_error float 1
LOOKUP_TABLE default
0.000000000000e+00
3.984913527267e-01
SCALARS engineering_strain_norm_abs_error float 1
LOOKUP_TABLE default
0.000000000000e+00
3.866185468153e-06
