# vtk DataFile Version 3.0
SFC minus CalculiX common-time error block_block_c3d8 frame 30 t=6.000000000000e-02
ASCII
DATASET UNSTRUCTURED_GRID
POINTS 16 float
-2.500000000000e-01 -2.500000000000e-01 0.000000000000e+00
2.500000000000e-01 -2.500000000000e-01 0.000000000000e+00
-2.500000000000e-01 2.500000000000e-01 0.000000000000e+00
2.500000000000e-01 2.500000000000e-01 0.000000000000e+00
-2.500000000000e-01 -2.500000000000e-01 2.400000000000e-01
2.500000000000e-01 -2.500000000000e-01 2.400000000000e-01
-2.500000000000e-01 2.500000000000e-01 2.400000000000e-01
2.500000000000e-01 2.500000000000e-01 2.400000000000e-01
-2.500008743837e-01 -2.500008743837e-01 2.501105979068e-01
2.500008743837e-01 -2.500008743837e-01 2.501105979068e-01
-2.500008743837e-01 2.500008743837e-01 2.501105979068e-01
2.500008743837e-01 2.500008743837e-01 2.501105979068e-01
-2.500008743837e-01 -2.500008743837e-01 5.101128426705e-01
2.500008743837e-01 -2.500008743837e-01 5.101128426704e-01
-2.500008743837e-01 2.500008743837e-01 5.101128426705e-01
2.500008743837e-01 2.500008743837e-01 5.101128426705e-01
CELLS 2 18
8 0 1 3 2 4 5 7 6
8 8 9 11 10 12 13 15 14
CELL_TYPES 2
12
12
POINT_DATA 16
VECTORS sfc_displacement float
0.000000000000e+00 0.000000000000e+00 0.000000000000e+00
0.000000000000e+00 0.000000000000e+00 0.000000000000e+00
0.000000000000e+00 0.000000000000e+00 0.000000000000e+00
0.000000000000e+00 0.000000000000e+00 0.000000000000e+00
0.000000000000e+00 0.000000000000e+00 0.000000000000e+00
0.000000000000e+00 0.000000000000e+00 0.000000000000e+00
0.000000000000e+00 0.000000000000e+00 0.000000000000e+00
0.000000000000e+00 0.000000000000e+00 0.000000000000e+00
-8.743836587452e-07 -8.743836558938e-07 -4.889402093241e-03
8.743836553428e-07 -8.743836560419e-07 -4.889402093246e-03
-8.743836586316e-07 8.743836582020e-07 -4.889402093237e-03
8.743836554640e-07 8.743836580419e-07 -4.889402093242e-03
-8.743836559739e-07 -8.743836579939e-07 -4.887157329548e-03
8.743836581142e-07 -8.743836581136e-07 -4.887157329553e-03
-8.743836558140e-07 8.743836560972e-07 -4.887157329544e-03
8.743836582808e-07 8.743836559826e-07 -4.887157329549e-03
VECTORS calculix_displacement float
0.000000000000e+00 0.000000000000e+00 0.000000000000e+00
0.000000000000e+00 0.000000000000e+00 0.000000000000e+00
0.000000000000e+00 0.000000000000e+00 0.000000000000e+00
0.000000000000e+00 0.000000000000e+00 0.000000000000e+00
0.000000000000e+00 0.000000000000e+00 0.000000000000e+00
0.000000000000e+00 0.000000000000e+00 0.000000000000e+00
0.000000000000e+00 0.000000000000e+00 0.000000000000e+00
0.000000000000e+00 0.000000000000e+00 0.000000000000e+00
-1.487195241000e-07 -1.487195241000e-07 -4.610404454950e-03
1.487195241000e-07 -1.487195241000e-07 -4.610404454950e-03
-1.487195241000e-07 1.487195241000e-07 -4.610404454950e-03
1.487195241000e-07 1.487195241000e-07 -4.610404454950e-03
-1.487195241000e-07 -1.487195241000e-07 -4.610138383000e-03
1.487195241000e-07 -1.487195241000e-07 -4.610138383000e-03
-1.487195241000e-07 1.487195241000e-07 -4.610138383000e-03
1.487195241000e-07 1.487195241000e-07 -4.610138383000e-03
VECTORS displacement_error float
0.000000000000e+00 0.000000000000e+00 0.000000000000e+00
0.000000000000e+00 0.000000000000e+00 0.000000000000e+00
0.000000000000e+00 0.000000000000e+00 0.000000000000e+00
0.000000000000e+00 0.000000000000e+00 0.000000000000e+00
0.000000000000e+00 0.000000000000e+00 0.000000000000e+00
0.000000000000e+00 0.000000000000e+00 0.000000000000e+00
0.000000000000e+00 0.000000000000e+00 0.000000000000e+00
0.000000000000e+00 0.000000000000e+00 0.000000000000e+00
-7.256641346452e-07 -7.256641317938e-07 -2.789976382910e-04
7.256641312428e-07 -7.256641319419e-07 -2.789976382964e-04
-7.256641345316e-07 7.256641341020e-07 -2.789976382870e-04
7.256641313640e-07 7.256641339419e-07 -2.789976382924e-04
-7.256641318738e-07 -7.256641338939e-07 -2.770189465478e-04
7.256641340142e-07 -7.256641340136e-07 -2.770189465531e-04
-7.256641317140e-07 7.256641319972e-07 -2.770189465437e-04
7.256641341808e-07 7.256641318826e-07 -2.770189465491e-04
SCALARS sfc_displacement_magnitude float 1
LOOKUP_TABLE default
0.000000000000e+00
0.000000000000e+00
0.000000000000e+00
0.000000000000e+00
0.000000000000e+00
0.000000000000e+00
0.000000000000e+00
0.000000000000e+00
4.889402249609e-03
4.889402249615e-03
4.889402249605e-03
4.889402249611e-03
4.887157485988e-03
4.887157485993e-03
4.887157485984e-03
4.887157485989e-03
SCALARS calculix_displacement_magnitude float 1
LOOKUP_TABLE default
0.000000000000e+00
0.000000000000e+00
0.000000000000e+00
0.000000000000e+00
0.000000000000e+00
0.000000000000e+00
0.000000000000e+00
0.000000000000e+00
4.610404459747e-03
4.610404459747e-03
4.610404459747e-03
4.610404459747e-03
4.610138387798e-03
4.610138387798e-03
4.610138387798e-03
4.610138387798e-03
SCALARS displacement_error_magnitude float 1
LOOKUP_TABLE default
0.000000000000e+00
0.000000000000e+00
0.000000000000e+00
0.000000000000e+00
0.000000000000e+00
0.000000000000e+00
0.000000000000e+00
0.000000000000e+00
2.789995257144e-04
2.789995257197e-04
2.789995257103e-04
2.789995257157e-04
2.770208474525e-04
2.770208474578e-04
2.770208474484e-04
2.770208474539e-04
CELL_DATA 2
SCALARS cell_displacement_error_magnitude float 1
LOOKUP_TABLE default
0.000000000000e+00
2.780101865841e-04
SCALARS von_mises_abs_error float 1
LOOKUP_TABLE default
0.000000000000e+00
3.621139516238e-01
SCALARS engineering_strain_norm_abs_error float 1
LOOKUP_TABLE default
0.000000000000e+00
8.625426343581e-06
