# vtk DataFile Version 3.0
SFC minus CalculiX common-time error block_block_c3d8 frame 15 t=3.000000000000e-02
ASCII
DATASET UNSTRUCTURED_GRID
POINTS 16 float
-2.500000000000e-01 -2.500000000000e-01 0.000000000000e+00
2.500000000000e-01 -2.500000000000e-01 0.000000000000e+00
-2.500000000000e-01 2.500000000000e-01 0.000000000000e+00
2.500000000000e-01 2.500000000000e-01 0.000000000000e+00
-2.500000000000e-01 -2.500000000000e-01 2.400000000000e-01
2.500000000000e-01 -2.500000000000e-01 2.400000000000e-01
-2.500000000000e-01 2.500000000000e-01 2.400000000000e-01
2.500000000000e-01 2.500000000000e-01 2.400000000000e-01
-2.500000000000e-01 -2.500000000000e-01 2.415855000000e-01
2.500000000000e-01 -2.500000000000e-01 2.415855000000e-01
-2.500000000000e-01 2.500000000000e-01 2.415855000000e-01
2.500000000000e-01 2.500000000000e-01 2.415855000000e-01
-2.500000000000e-01 -2.500000000000e-01 5.015855000000e-01
2.500000000000e-01 -2.500000000000e-01 5.015855000000e-01
-2.500000000000e-01 2.500000000000e-01 5.015855000000e-01
2.500000000000e-01 2.500000000000e-01 5.015855000000e-01
CELLS 2 18
8 0 1 3 2 4 5 7 6
8 8 9 11 10 12 13 15 14
CELL_TYPES 2
12
12
POINT_DATA 16
VECTORS sfc_displacement float
0.000000000000e+00 0.000000000000e+00 0.000000000000e+00
0.000000000000e+00 0.000000000000e+00 0.000000000000e+00
0.000000000000e+00 0.000000000000e+00 0.000000000000e+00
0.000000000000e+00 0.000000000000e+00 0.000000000000e+00
0.000000000000e+00 0.000000000000e+00 0.000000000000e+00
0.000000000000e+00 0.000000000000e+00 0.000000000000e+00
0.000000000000e+00 0.000000000000e+00 0.000000000000e+00
0.000000000000e+00 0.000000000000e+00 0.000000000000e+00
1.106090342738e-16 -1.597331249327e-16 -1.341450000000e-02
1.140516262921e-16 -1.992633253848e-16 -1.341450000000e-02
1.799331146763e-16 -1.609580283543e-16 -1.341450000000e-02
1.752403100473e-16 -1.929625358147e-16 -1.341450000000e-02
-2.699335729708e-16 2.476179582130e-16 -1.341450000000e-02
-2.728007130966e-16 1.813566126917e-16 -1.341450000000e-02
-2.369971807529e-16 2.456020000481e-16 -1.341450000000e-02
-2.384255007329e-16 1.848215613674e-16 -1.341450000000e-02
VECTORS calculix_displacement float
0.000000000000e+00 0.000000000000e+00 0.000000000000e+00
0.000000000000e+00 0.000000000000e+00 0.000000000000e+00
0.000000000000e+00 0.000000000000e+00 0.000000000000e+00
0.000000000000e+00 0.000000000000e+00 0.000000000000e+00
0.000000000000e+00 0.000000000000e+00 0.000000000000e+00
0.000000000000e+00 0.000000000000e+00 0.000000000000e+00
0.000000000000e+00 0.000000000000e+00 0.000000000000e+00
0.000000000000e+00 0.000000000000e+00 0.000000000000e+00
-4.221590000000e-20 2.176486000000e-21 -1.341450000000e-02
1.780806000000e-19 5.628940000000e-19 -1.341450000000e-02
1.509949000000e-19 3.908754000000e-19 -1.341450000000e-02
-4.870779000000e-19 -1.796123000000e-19 -1.341450000000e-02
2.410971000000e-19 4.236468000000e-19 -1.341450000000e-02
-3.769743000000e-19 -3.933911000000e-19 -1.341450000000e-02
2.455205000000e-19 -8.158552000000e-19 -1.341450000000e-02
9.147558000000e-20 1.002594000000e-20 -1.341450000000e-02
VECTORS displacement_error float
0.000000000000e+00 0.000000000000e+00 0.000000000000e+00
0.000000000000e+00 0.000000000000e+00 0.000000000000e+00
0.000000000000e+00 0.000000000000e+00 0.000000000000e+00
0.000000000000e+00 0.000000000000e+00 0.000000000000e+00
0.000000000000e+00 0.000000000000e+00 0.000000000000e+00
0.000000000000e+00 0.000000000000e+00 0.000000000000e+00
0.000000000000e+00 0.000000000000e+00 0.000000000000e+00
0.000000000000e+00 0.000000000000e+00 0.000000000000e+00
1.106512501738e-16 -1.597353014187e-16 3.799044412389e-16
1.138735456921e-16 -1.998262193848e-16 1.103284130721e-15
1.797821197763e-16 -1.613489037543e-16 -4.215378046624e-16
1.757273879473e-16 -1.927829235147e-16 3.920475055708e-16
-2.701746700708e-16 2.471943114130e-16 3.781697177629e-16
-2.724237387966e-16 1.817500037917e-16 1.103284130721e-15
-2.372427012529e-16 2.464178552481e-16 -4.180683577104e-16
-2.385169763129e-16 1.848115354274e-16 3.885780586188e-16
SCALARS sfc_displacement_magnitude float 1
LOOKUP_TABLE default
0.000000000000e+00
0.000000000000e+00
0.000000000000e+00
0.000000000000e+00
0.000000000000e+00
0.000000000000e+00
0.000000000000e+00
0.000000000000e+00
1.341450000000e-02
1.341450000000e-02
1.341450000000e-02
1.341450000000e-02
1.341450000000e-02
1.341450000000e-02
1.341450000000e-02
1.341450000000e-02
SCALARS calculix_displacement_magnitude float 1
LOOKUP_TABLE default
0.000000000000e+00
0.000000000000e+00
0.000000000000e+00
0.000000000000e+00
0.000000000000e+00
0.000000000000e+00
0.000000000000e+00
0.000000000000e+00
1.341450000000e-02
1.341450000000e-02
1.341450000000e-02
1.341450000000e-02
1.341450000000e-02
1.341450000000e-02
1.341450000000e-02
1.341450000000e-02
SCALARS displacement_error_magnitude float 1
LOOKUP_TABLE default
0.000000000000e+00
0.000000000000e+00
0.000000000000e+00
0.000000000000e+00
0.000000000000e+00
0.000000000000e+00
0.000000000000e+00
0.000000000000e+00
4.267158892723e-16
1.127002029929e-15
4.858489478156e-16
4.708997951772e-16
5.264140151779e-16
1.150862124861e-15
5.401731300255e-16
4.919741449064e-16
CELL_DATA 2
SCALARS cell_displacement_error_magnitude float 1
LOOKUP_TABLE default
0.000000000000e+00
6.524862596456e-16
SCALARS von_mises_abs_error float 1
LOOKUP_TABLE default
0.000000000000e+00
3.205920970299e-13
SCALARS engineering_strain_norm_abs_error float 1
LOOKUP_TABLE default
0.000000000000e+00
1.504491446951e-18
