# vtk DataFile Version 3.0
SFC minus CalculiX common-time error block_block_c3d8 frame 26 t=5.200000000000e-02
ASCII
DATASET UNSTRUCTURED_GRID
POINTS 16 float
-2.500000000000e-01 -2.500000000000e-01 0.000000000000e+00
2.500000000000e-01 -2.500000000000e-01 0.000000000000e+00
-2.500000000000e-01 2.500000000000e-01 0.000000000000e+00
2.500000000000e-01 2.500000000000e-01 0.000000000000e+00
-2.500000000000e-01 -2.500000000000e-01 2.400000000000e-01
2.500000000000e-01 -2.500000000000e-01 2.400000000000e-01
-2.500000000000e-01 2.500000000000e-01 2.400000000000e-01
2.500000000000e-01 2.500000000000e-01 2.400000000000e-01
-2.499995477624e-01 -2.499995477624e-01 2.464093267735e-01
2.499995477624e-01 -2.499995477624e-01 2.464093267735e-01
-2.499995477624e-01 2.499995477624e-01 2.464093267735e-01
2.499995477624e-01 2.499995477624e-01 2.464093267735e-01
-2.499995477624e-01 -2.499995477624e-01 5.064099445936e-01
2.499995477624e-01 -2.499995477624e-01 5.064099445936e-01
-2.499995477624e-01 2.499995477624e-01 5.064099445936e-01
2.499995477624e-01 2.499995477624e-01 5.064099445936e-01
CELLS 2 18
8 0 1 3 2 4 5 7 6
8 8 9 11 10 12 13 15 14
CELL_TYPES 2
12
12
POINT_DATA 16
VECTORS sfc_displacement float
0.000000000000e+00 0.000000000000e+00 0.000000000000e+00
0.000000000000e+00 0.000000000000e+00 0.000000000000e+00
0.000000000000e+00 0.000000000000e+00 0.000000000000e+00
0.000000000000e+00 0.000000000000e+00 0.000000000000e+00
0.000000000000e+00 0.000000000000e+00 0.000000000000e+00
0.000000000000e+00 0.000000000000e+00 0.000000000000e+00
0.000000000000e+00 0.000000000000e+00 0.000000000000e+00
0.000000000000e+00 0.000000000000e+00 0.000000000000e+00
4.522376178504e-07 4.522376197598e-07 -8.590673226529e-03
-4.522376201274e-07 4.522376196474e-07 -8.590673226533e-03
4.522376179259e-07 -4.522376182226e-07 -8.590673226526e-03
-4.522376200602e-07 -4.522376183307e-07 -8.590673226530e-03
4.522376196874e-07 4.522376183795e-07 -8.590055406421e-03
-4.522376182908e-07 4.522376183022e-07 -8.590055406425e-03
4.522376197924e-07 -4.522376196056e-07 -8.590055406418e-03
-4.522376181932e-07 -4.522376196733e-07 -8.590055406422e-03
VECTORS calculix_displacement float
0.000000000000e+00 0.000000000000e+00 0.000000000000e+00
0.000000000000e+00 0.000000000000e+00 0.000000000000e+00
0.000000000000e+00 0.000000000000e+00 0.000000000000e+00
0.000000000000e+00 0.000000000000e+00 0.000000000000e+00
0.000000000000e+00 0.000000000000e+00 0.000000000000e+00
0.000000000000e+00 0.000000000000e+00 0.000000000000e+00
0.000000000000e+00 0.000000000000e+00 0.000000000000e+00
0.000000000000e+00 0.000000000000e+00 0.000000000000e+00
-4.646576010001e-08 -4.646576010001e-08 -8.320454845000e-03
4.646576010001e-08 -4.646576010001e-08 -8.320454845000e-03
-4.646576010001e-08 4.646576010001e-08 -8.320454845000e-03
4.646576010001e-08 4.646576010001e-08 -8.320454845000e-03
-4.646576010001e-08 -4.646576010001e-08 -8.320385704950e-03
4.646576010001e-08 -4.646576010001e-08 -8.320385704950e-03
-4.646576010001e-08 4.646576010001e-08 -8.320385704950e-03
4.646576010001e-08 4.646576010001e-08 -8.320385704950e-03
VECTORS displacement_error float
0.000000000000e+00 0.000000000000e+00 0.000000000000e+00
0.000000000000e+00 0.000000000000e+00 0.000000000000e+00
0.000000000000e+00 0.000000000000e+00 0.000000000000e+00
0.000000000000e+00 0.000000000000e+00 0.000000000000e+00
0.000000000000e+00 0.000000000000e+00 0.000000000000e+00
0.000000000000e+00 0.000000000000e+00 0.000000000000e+00
0.000000000000e+00 0.000000000000e+00 0.000000000000e+00
0.000000000000e+00 0.000000000000e+00 0.000000000000e+00
4.987033779504e-07 4.987033798598e-07 -2.702183815292e-04
-4.987033802274e-07 4.987033797474e-07 -2.702183815327e-04
4.987033780259e-07 -4.987033783227e-07 -2.702183815265e-04
-4.987033801602e-07 -4.987033784307e-07 -2.702183815301e-04
4.987033797874e-07 4.987033784796e-07 -2.696697014711e-04
-4.987033783908e-07 4.987033784022e-07 -2.696697014746e-04
4.987033798924e-07 -4.987033797056e-07 -2.696697014684e-04
-4.987033782932e-07 -4.987033797733e-07 -2.696697014720e-04
SCALARS sfc_displacement_magnitude float 1
LOOKUP_TABLE default
0.000000000000e+00
0.000000000000e+00
0.000000000000e+00
0.000000000000e+00
0.000000000000e+00
0.000000000000e+00
0.000000000000e+00
0.000000000000e+00
8.590673250336e-03
8.590673250340e-03
8.590673250334e-03
8.590673250337e-03
8.590055430230e-03
8.590055430233e-03
8.590055430227e-03
8.590055430231e-03
SCALARS calculix_displacement_magnitude float 1
LOOKUP_TABLE default
0.000000000000e+00
0.000000000000e+00
0.000000000000e+00
0.000000000000e+00
0.000000000000e+00
0.000000000000e+00
0.000000000000e+00
0.000000000000e+00
8.320454845259e-03
8.320454845259e-03
8.320454845259e-03
8.320454845259e-03
8.320385705209e-03
8.320385705209e-03
8.320385705209e-03
8.320385705209e-03
SCALARS displacement_error_magnitude float 1
LOOKUP_TABLE default
0.000000000000e+00
0.000000000000e+00
0.000000000000e+00
0.000000000000e+00
0.000000000000e+00
0.000000000000e+00
0.000000000000e+00
0.000000000000e+00
2.702193019130e-04
2.702193019165e-04
2.702193019103e-04
2.702193019140e-04
2.696706237276e-04
2.696706237311e-04
2.696706237249e-04
2.696706237285e-04
CELL_DATA 2
SCALARS cell_displacement_error_magnitude float 1
LOOKUP_TABLE default
0.000000000000e+00
2.699449628207e-04
SCALARS von_mises_abs_error float 1
LOOKUP_TABLE default
0.000000000000e+00
3.157895444127e-01
SCALARS engineering_strain_norm_abs_error float 1
LOOKUP_TABLE default
0.000000000000e+00
3.117666964767e-06
