# vtk DataFile Version 3.0
SFC minus CalculiX common-time error block_block_c3d8 frame 2 t=4.000000000000e-03
ASCII
DATASET UNSTRUCTURED_GRID
POINTS 16 float
-2.500000000000e-01 -2.500000000000e-01 0.000000000000e+00
2.500000000000e-01 -2.500000000000e-01 0.000000000000e+00
-2.500000000000e-01 2.500000000000e-01 0.000000000000e+00
2.500000000000e-01 2.500000000000e-01 0.000000000000e+00
-2.500000000000e-01 -2.500000000000e-01 2.400000000000e-01
2.500000000000e-01 -2.500000000000e-01 2.400000000000e-01
-2.500000000000e-01 2.500000000000e-01 2.400000000000e-01
2.500000000000e-01 2.500000000000e-01 2.400000000000e-01
-2.500000000000e-01 -2.500000000000e-01 2.537215200000e-01
2.500000000000e-01 -2.500000000000e-01 2.537215200000e-01
-2.500000000000e-01 2.500000000000e-01 2.537215200000e-01
2.500000000000e-01 2.500000000000e-01 2.537215200000e-01
-2.500000000000e-01 -2.500000000000e-01 5.137215200000e-01
2.500000000000e-01 -2.500000000000e-01 5.137215200000e-01
-2.500000000000e-01 2.500000000000e-01 5.137215200000e-01
2.500000000000e-01 2.500000000000e-01 5.137215200000e-01
CELLS 2 18
8 0 1 3 2 4 5 7 6
8 8 9 11 10 12 13 15 14
CELL_TYPES 2
12
12
POINT_DATA 16
VECTORS sfc_displacement float
0.000000000000e+00 0.000000000000e+00 0.000000000000e+00
0.000000000000e+00 0.000000000000e+00 0.000000000000e+00
0.000000000000e+00 0.000000000000e+00 0.000000000000e+00
0.000000000000e+00 0.000000000000e+00 0.000000000000e+00
0.000000000000e+00 0.000000000000e+00 0.000000000000e+00
0.000000000000e+00 0.000000000000e+00 0.000000000000e+00
0.000000000000e+00 0.000000000000e+00 0.000000000000e+00
0.000000000000e+00 0.000000000000e+00 0.000000000000e+00
-8.822471626438e-19 -4.608523582017e-19 -1.278480000000e-03
-1.267737938581e-19 4.291657004028e-19 -1.278480000000e-03
2.438096290039e-18 -6.256353643052e-19 -1.278480000000e-03
2.001561391930e-18 7.223060849512e-19 -1.278480000000e-03
3.042149685255e-19 8.255617406860e-19 -1.278480000000e-03
-4.163205897996e-19 -1.814735851892e-18 -1.278480000000e-03
-1.355121522750e-18 7.795134096451e-19 -1.278480000000e-03
-9.932454614631e-19 -1.344730249706e-18 -1.278480000000e-03
VECTORS calculix_displacement float
0.000000000000e+00 0.000000000000e+00 0.000000000000e+00
0.000000000000e+00 0.000000000000e+00 0.000000000000e+00
0.000000000000e+00 0.000000000000e+00 0.000000000000e+00
0.000000000000e+00 0.000000000000e+00 0.000000000000e+00
0.000000000000e+00 0.000000000000e+00 0.000000000000e+00
0.000000000000e+00 0.000000000000e+00 0.000000000000e+00
0.000000000000e+00 0.000000000000e+00 0.000000000000e+00
0.000000000000e+00 0.000000000000e+00 0.000000000000e+00
3.285800000000e-20 -5.479468000000e-20 -1.278480000000e-03
2.393985000000e-20 1.467776000000e-20 -1.278480000000e-03
-5.708351000000e-20 3.504773000000e-20 -1.278480000000e-03
9.342535000000e-21 -1.689029000000e-20 -1.278480000000e-03
-2.083188000000e-20 5.051127000000e-20 -1.278480000000e-03
-3.596715000000e-20 -3.195047000000e-21 -1.278480000000e-03
5.226400000000e-20 -3.067702000000e-20 -1.278480000000e-03
-4.428764000000e-21 5.398834000000e-21 -1.278480000000e-03
VECTORS displacement_error float
0.000000000000e+00 0.000000000000e+00 0.000000000000e+00
0.000000000000e+00 0.000000000000e+00 0.000000000000e+00
0.000000000000e+00 0.000000000000e+00 0.000000000000e+00
0.000000000000e+00 0.000000000000e+00 0.000000000000e+00
0.000000000000e+00 0.000000000000e+00 0.000000000000e+00
0.000000000000e+00 0.000000000000e+00 0.000000000000e+00
0.000000000000e+00 0.000000000000e+00 0.000000000000e+00
0.000000000000e+00 0.000000000000e+00 0.000000000000e+00
-9.151051626438e-19 -4.060576782017e-19 1.301042606983e-18
-1.507136438581e-19 4.144879404028e-19 -1.734723475977e-18
2.495179800039e-18 -6.606830943052e-19 -4.119968255445e-18
1.992218856930e-18 7.391963749512e-19 5.854691731422e-18
3.250468485255e-19 7.750504706860e-19 1.084202172486e-18
-3.803534397996e-19 -1.811540804892e-18 -1.734723475977e-18
-1.407385522750e-18 8.101904296451e-19 -3.252606517457e-18
-9.888166974631e-19 -1.350129083706e-18 4.770489558936e-18
SCALARS sfc_displacement_magnitude float 1
LOOKUP_TABLE default
0.000000000000e+00
0.000000000000e+00
0.000000000000e+00
0.000000000000e+00
0.000000000000e+00
0.000000000000e+00
0.000000000000e+00
0.000000000000e+00
1.278480000000e-03
1.278480000000e-03
1.278480000000e-03
1.278480000000e-03
1.278480000000e-03
1.278480000000e-03
1.278480000000e-03
1.278480000000e-03
SCALARS calculix_displacement_magnitude float 1
LOOKUP_TABLE default
0.000000000000e+00
0.000000000000e+00
0.000000000000e+00
0.000000000000e+00
0.000000000000e+00
0.000000000000e+00
0.000000000000e+00
0.000000000000e+00
1.278480000000e-03
1.278480000000e-03
1.278480000000e-03
1.278480000000e-03
1.278480000000e-03
1.278480000000e-03
1.278480000000e-03
1.278480000000e-03
SCALARS displacement_error_magnitude float 1
LOOKUP_TABLE default
0.000000000000e+00
0.000000000000e+00
0.000000000000e+00
0.000000000000e+00
0.000000000000e+00
0.000000000000e+00
0.000000000000e+00
0.000000000000e+00
1.641649220116e-18
1.789910722156e-18
4.861744832002e-18
6.228383620541e-18
1.371806486597e-18
2.536851269795e-18
3.635463065324e-18
5.055509631656e-18
CELL_DATA 2
SCALARS cell_displacement_error_magnitude float 1
LOOKUP_TABLE default
0.000000000000e+00
3.390164856023e-18
SCALARS von_mises_abs_error float 1
LOOKUP_TABLE default
0.000000000000e+00
5.225933067625e-14
SCALARS engineering_strain_norm_abs_error float 1
LOOKUP_TABLE default
0.000000000000e+00
8.901484818250e-19
