# vtk DataFile Version 3.0
SFC minus CalculiX common-time error block_block_c3d8 frame 13 t=2.600000000000e-02
ASCII
DATASET UNSTRUCTURED_GRID
POINTS 16 float
-2.500000000000e-01 -2.500000000000e-01 0.000000000000e+00
2.500000000000e-01 -2.500000000000e-01 0.000000000000e+00
-2.500000000000e-01 2.500000000000e-01 0.000000000000e+00
2.500000000000e-01 2.500000000000e-01 0.000000000000e+00
-2.500000000000e-01 -2.500000000000e-01 2.400000000000e-01
2.500000000000e-01 -2.500000000000e-01 2.400000000000e-01
-2.500000000000e-01 2.500000000000e-01 2.400000000000e-01
2.500000000000e-01 2.500000000000e-01 2.400000000000e-01
-2.500000000000e-01 -2.500000000000e-01 2.438842200000e-01
2.500000000000e-01 -2.500000000000e-01 2.438842200000e-01
-2.500000000000e-01 2.500000000000e-01 2.438842200000e-01
2.500000000000e-01 2.500000000000e-01 2.438842200000e-01
-2.500000000000e-01 -2.500000000000e-01 5.038842200000e-01
2.500000000000e-01 -2.500000000000e-01 5.038842200000e-01
-2.500000000000e-01 2.500000000000e-01 5.038842200000e-01
2.500000000000e-01 2.500000000000e-01 5.038842200000e-01
CELLS 2 18
8 0 1 3 2 4 5 7 6
8 8 9 11 10 12 13 15 14
CELL_TYPES 2
12
12
POINT_DATA 16
VECTORS sfc_displacement float
0.000000000000e+00 0.000000000000e+00 0.000000000000e+00
0.000000000000e+00 0.000000000000e+00 0.000000000000e+00
0.000000000000e+00 0.000000000000e+00 0.000000000000e+00
0.000000000000e+00 0.000000000000e+00 0.000000000000e+00
0.000000000000e+00 0.000000000000e+00 0.000000000000e+00
0.000000000000e+00 0.000000000000e+00 0.000000000000e+00
0.000000000000e+00 0.000000000000e+00 0.000000000000e+00
0.000000000000e+00 0.000000000000e+00 0.000000000000e+00
1.068896830563e-16 -1.143983830151e-16 -1.111578000000e-02
1.099076990009e-16 -1.594448948849e-16 -1.111578000000e-02
9.982517106137e-17 -1.182264365692e-16 -1.111578000000e-02
9.930109147861e-17 -1.559123127576e-16 -1.111578000000e-02
-2.100584816071e-16 1.543504792340e-16 -1.111578000000e-02
-2.056653051108e-16 1.591726215742e-16 -1.111578000000e-02
-1.536554256679e-16 1.565689169031e-16 -1.111578000000e-02
-1.577074933409e-16 1.604769382642e-16 -1.111578000000e-02
VECTORS calculix_displacement float
0.000000000000e+00 0.000000000000e+00 0.000000000000e+00
0.000000000000e+00 0.000000000000e+00 0.000000000000e+00
0.000000000000e+00 0.000000000000e+00 0.000000000000e+00
0.000000000000e+00 0.000000000000e+00 0.000000000000e+00
0.000000000000e+00 0.000000000000e+00 0.000000000000e+00
0.000000000000e+00 0.000000000000e+00 0.000000000000e+00
0.000000000000e+00 0.000000000000e+00 0.000000000000e+00
0.000000000000e+00 0.000000000000e+00 0.000000000000e+00
2.116660000000e-19 4.816177000000e-19 -1.111578000000e-02
-3.688235000000e-19 2.327510000000e-19 -1.111578000000e-02
-9.976533000000e-20 6.788460000000e-20 -1.111578000000e-02
1.651671000000e-19 3.879875000000e-19 -1.111578000000e-02
-9.530871000000e-21 -2.840224000000e-19 -1.111578000000e-02
1.666758000000e-19 -1.674731000000e-19 -1.111578000000e-02
1.605634000000e-19 -2.647545000000e-19 -1.111578000000e-02
-2.251763000000e-19 -4.533356000000e-19 -1.111578000000e-02
VECTORS displacement_error float
0.000000000000e+00 0.000000000000e+00 0.000000000000e+00
0.000000000000e+00 0.000000000000e+00 0.000000000000e+00
0.000000000000e+00 0.000000000000e+00 0.000000000000e+00
0.000000000000e+00 0.000000000000e+00 0.000000000000e+00
0.000000000000e+00 0.000000000000e+00 0.000000000000e+00
0.000000000000e+00 0.000000000000e+00 0.000000000000e+00
0.000000000000e+00 0.000000000000e+00 0.000000000000e+00
0.000000000000e+00 0.000000000000e+00 0.000000000000e+00
1.066780170563e-16 -1.148800007151e-16 2.151057110211e-16
1.102765225009e-16 -1.596776458849e-16 8.205242041370e-16
9.992493639137e-17 -1.182943211692e-16 -3.001071613440e-16
9.913592437861e-17 -1.563003002576e-16 1.977584762614e-16
-2.100489507361e-16 1.546345016340e-16 2.081668171172e-16
-2.058319809108e-16 1.593400946742e-16 8.257283745650e-16
-1.538159890679e-16 1.568336714031e-16 -2.879640970121e-16
-1.574823170409e-16 1.609302738642e-16 1.873501354055e-16
SCALARS sfc_displacement_magnitude float 1
LOOKUP_TABLE default
0.000000000000e+00
0.000000000000e+00
0.000000000000e+00
0.000000000000e+00
0.000000000000e+00
0.000000000000e+00
0.000000000000e+00
0.000000000000e+00
1.111578000000e-02
1.111578000000e-02
1.111578000000e-02
1.111578000000e-02
1.111578000000e-02
1.111578000000e-02
1.111578000000e-02
1.111578000000e-02
SCALARS calculix_displacement_magnitude float 1
LOOKUP_TABLE default
0.000000000000e+00
0.000000000000e+00
0.000000000000e+00
0.000000000000e+00
0.000000000000e+00
0.000000000000e+00
0.000000000000e+00
0.000000000000e+00
1.111578000000e-02
1.111578000000e-02
1.111578000000e-02
1.111578000000e-02
1.111578000000e-02
1.111578000000e-02
1.111578000000e-02
1.111578000000e-02
SCALARS displacement_error_magnitude float 1
LOOKUP_TABLE default
0.000000000000e+00
0.000000000000e+00
0.000000000000e+00
0.000000000000e+00
0.000000000000e+00
0.000000000000e+00
0.000000000000e+00
0.000000000000e+00
2.661730279372e-16
8.431594342620e-16
3.377023062161e-16
2.708618287914e-16
3.337151697925e-16
8.657848570506e-16
3.621870789340e-16
2.929151864671e-16
CELL_DATA 2
SCALARS cell_displacement_error_magnitude float 1
LOOKUP_TABLE default
0.000000000000e+00
4.465623611813e-16
SCALARS von_mises_abs_error float 1
LOOKUP_TABLE default
0.000000000000e+00
4.787338992994e-13
SCALARS engineering_strain_norm_abs_error float 1
LOOKUP_TABLE default
0.000000000000e+00
3.456006540151e-18
