# vtk DataFile Version 3.0
SFC minus CalculiX common-time error block_block_c3d8 frame 35 t=7.000000000000e-02
ASCII
DATASET UNSTRUCTURED_GRID
POINTS 16 float
-2.500000000000e-01 -2.500000000000e-01 0.000000000000e+00
2.500000000000e-01 -2.500000000000e-01 0.000000000000e+00
-2.500000000000e-01 2.500000000000e-01 0.000000000000e+00
2.500000000000e-01 2.500000000000e-01 0.000000000000e+00
-2.500000000000e-01 -2.500000000000e-01 2.400000000000e-01
2.500000000000e-01 -2.500000000000e-01 2.400000000000e-01
-2.500000000000e-01 2.500000000000e-01 2.400000000000e-01
2.500000000000e-01 2.500000000000e-01 2.400000000000e-01
-2.500005284658e-01 -2.500005284658e-01 2.538562557716e-01
2.500005284658e-01 -2.500005284658e-01 2.538562557716e-01
-2.500005284658e-01 2.500005284658e-01 2.538562557716e-01
2.500005284658e-01 2.500005284658e-01 2.538562557716e-01
-2.500005284658e-01 -2.500005284658e-01 5.138565963183e-01
2.500005284658e-01 -2.500005284658e-01 5.138565963183e-01
-2.500005284658e-01 2.500005284658e-01 5.138565963183e-01
2.500005284658e-01 2.500005284658e-01 5.138565963183e-01
CELLS 2 18
8 0 1 3 2 4 5 7 6
8 8 9 11 10 12 13 15 14
CELL_TYPES 2
12
12
POINT_DATA 16
VECTORS sfc_displacement float
0.000000000000e+00 0.000000000000e+00 0.000000000000e+00
0.000000000000e+00 0.000000000000e+00 0.000000000000e+00
0.000000000000e+00 0.000000000000e+00 0.000000000000e+00
0.000000000000e+00 0.000000000000e+00 0.000000000000e+00
0.000000000000e+00 0.000000000000e+00 0.000000000000e+00
0.000000000000e+00 0.000000000000e+00 0.000000000000e+00
0.000000000000e+00 0.000000000000e+00 0.000000000000e+00
0.000000000000e+00 0.000000000000e+00 0.000000000000e+00
-5.284657622899e-07 -5.284657583335e-07 -1.143744228431e-03
5.284657576358e-07 -5.284657584653e-07 -1.143744228439e-03
-5.284657620417e-07 5.284657616025e-07 -1.143744228425e-03
5.284657578924e-07 5.284657614556e-07 -1.143744228432e-03
-5.284657584894e-07 -5.284657613356e-07 -1.143403681656e-03
5.284657614361e-07 -5.284657616012e-07 -1.143403681664e-03
-5.284657583464e-07 5.284657585914e-07 -1.143403681650e-03
5.284657615845e-07 5.284657583371e-07 -1.143403681657e-03
VECTORS calculix_displacement float
0.000000000000e+00 0.000000000000e+00 0.000000000000e+00
0.000000000000e+00 0.000000000000e+00 0.000000000000e+00
0.000000000000e+00 0.000000000000e+00 0.000000000000e+00
0.000000000000e+00 0.000000000000e+00 0.000000000000e+00
0.000000000000e+00 0.000000000000e+00 0.000000000000e+00
0.000000000000e+00 0.000000000000e+00 0.000000000000e+00
0.000000000000e+00 0.000000000000e+00 0.000000000000e+00
0.000000000000e+00 0.000000000000e+00 0.000000000000e+00
-8.673826501500e-07 -8.673826501500e-07 -8.550548962450e-04
8.673826501500e-07 -8.673826501500e-07 -8.550548962450e-04
-8.673826501500e-07 8.673826501500e-07 -8.550548962450e-04
8.673826501500e-07 8.673826501500e-07 -8.550548962450e-04
-8.673826501500e-07 -8.673826501500e-07 -8.559152211500e-04
8.673826501500e-07 -8.673826501500e-07 -8.559152211500e-04
-8.673826501500e-07 8.673826501500e-07 -8.559152211500e-04
8.673826501500e-07 8.673826501500e-07 -8.559152211500e-04
VECTORS displacement_error float
0.000000000000e+00 0.000000000000e+00 0.000000000000e+00
0.000000000000e+00 0.000000000000e+00 0.000000000000e+00
0.000000000000e+00 0.000000000000e+00 0.000000000000e+00
0.000000000000e+00 0.000000000000e+00 0.000000000000e+00
0.000000000000e+00 0.000000000000e+00 0.000000000000e+00
0.000000000000e+00 0.000000000000e+00 0.000000000000e+00
0.000000000000e+00 0.000000000000e+00 0.000000000000e+00
0.000000000000e+00 0.000000000000e+00 0.000000000000e+00
3.389168878601e-07 3.389168918165e-07 -2.886893321861e-04
-3.389168925142e-07 3.389168916847e-07 -2.886893321935e-04
3.389168881082e-07 -3.389168885475e-07 -2.886893321804e-04
-3.389168922576e-07 -3.389168886944e-07 -2.886893321875e-04
3.389168916606e-07 3.389168888144e-07 -2.874884605062e-04
-3.389168887139e-07 3.389168885488e-07 -2.874884605135e-04
3.389168918036e-07 -3.389168915585e-07 -2.874884605004e-04
-3.389168885655e-07 -3.389168918129e-07 -2.874884605075e-04
SCALARS sfc_displacement_magnitude float 1
LOOKUP_TABLE default
0.000000000000e+00
0.000000000000e+00
0.000000000000e+00
0.000000000000e+00
0.000000000000e+00
0.000000000000e+00
0.000000000000e+00
0.000000000000e+00
1.143744472608e-03
1.143744472616e-03
1.143744472602e-03
1.143744472609e-03
1.143403925906e-03
1.143403925913e-03
1.143403925900e-03
1.143403925907e-03
SCALARS calculix_displacement_magnitude float 1
LOOKUP_TABLE default
0.000000000000e+00
0.000000000000e+00
0.000000000000e+00
0.000000000000e+00
0.000000000000e+00
0.000000000000e+00
0.000000000000e+00
0.000000000000e+00
8.550557761327e-04
8.550557761327e-04
8.550557761327e-04
8.550557761327e-04
8.559161001533e-04
8.559161001533e-04
8.559161001533e-04
8.559161001533e-04
SCALARS displacement_error_magnitude float 1
LOOKUP_TABLE default
0.000000000000e+00
0.000000000000e+00
0.000000000000e+00
0.000000000000e+00
0.000000000000e+00
0.000000000000e+00
0.000000000000e+00
0.000000000000e+00
2.886897300692e-04
2.886897300765e-04
2.886897300634e-04
2.886897300705e-04
2.874888600512e-04
2.874888600585e-04
2.874888600454e-04
2.874888600525e-04
CELL_DATA 2
SCALARS cell_displacement_error_magnitude float 1
LOOKUP_TABLE default
0.000000000000e+00
2.880892950609e-04
SCALARS von_mises_abs_error float 1
LOOKUP_TABLE default
0.000000000000e+00
4.595048059275e-01
SCALARS engineering_strain_norm_abs_error float 1
LOOKUP_TABLE default
0.000000000000e+00
2.654338978714e-06
