# vtk DataFile Version 3.0
SFC minus CalculiX common-time error block_block_c3d8 frame 12 t=2.400000000000e-02
ASCII
DATASET UNSTRUCTURED_GRID
POINTS 16 float
-2.500000000000e-01 -2.500000000000e-01 0.000000000000e+00
2.500000000000e-01 -2.500000000000e-01 0.000000000000e+00
-2.500000000000e-01 2.500000000000e-01 0.000000000000e+00
2.500000000000e-01 2.500000000000e-01 0.000000000000e+00
-2.500000000000e-01 -2.500000000000e-01 2.400000000000e-01
2.500000000000e-01 -2.500000000000e-01 2.400000000000e-01
-2.500000000000e-01 2.500000000000e-01 2.400000000000e-01
2.500000000000e-01 2.500000000000e-01 2.400000000000e-01
-2.500000000000e-01 -2.500000000000e-01 2.449747200000e-01
2.500000000000e-01 -2.500000000000e-01 2.449747200000e-01
-2.500000000000e-01 2.500000000000e-01 2.449747200000e-01
2.500000000000e-01 2.500000000000e-01 2.449747200000e-01
-2.500000000000e-01 -2.500000000000e-01 5.049747200000e-01
2.500000000000e-01 -2.500000000000e-01 5.049747200000e-01
-2.500000000000e-01 2.500000000000e-01 5.049747200000e-01
2.500000000000e-01 2.500000000000e-01 5.049747200000e-01
CELLS 2 18
8 0 1 3 2 4 5 7 6
8 8 9 11 10 12 13 15 14
CELL_TYPES 2
12
12
POINT_DATA 16
VECTORS sfc_displacement float
0.000000000000e+00 0.000000000000e+00 0.000000000000e+00
0.000000000000e+00 0.000000000000e+00 0.000000000000e+00
0.000000000000e+00 0.000000000000e+00 0.000000000000e+00
0.000000000000e+00 0.000000000000e+00 0.000000000000e+00
0.000000000000e+00 0.000000000000e+00 0.000000000000e+00
0.000000000000e+00 0.000000000000e+00 0.000000000000e+00
0.000000000000e+00 0.000000000000e+00 0.000000000000e+00
0.000000000000e+00 0.000000000000e+00 0.000000000000e+00
6.520279295522e-17 -1.189797179197e-16 -1.002528000000e-02
6.447377265837e-17 -1.148942054618e-16 -1.002528000000e-02
1.012890021878e-16 -1.200150923858e-16 -1.002528000000e-02
1.002290025986e-16 -1.135709744232e-16 -1.002528000000e-02
-1.409534491753e-16 1.493934780476e-16 -1.002528000000e-02
-1.465516677317e-16 1.125811824349e-16 -1.002528000000e-02
-1.478296831990e-16 1.475591441014e-16 -1.002528000000e-02
-1.480341200718e-16 1.147969330342e-16 -1.002528000000e-02
VECTORS calculix_displacement float
0.000000000000e+00 0.000000000000e+00 0.000000000000e+00
0.000000000000e+00 0.000000000000e+00 0.000000000000e+00
0.000000000000e+00 0.000000000000e+00 0.000000000000e+00
0.000000000000e+00 0.000000000000e+00 0.000000000000e+00
0.000000000000e+00 0.000000000000e+00 0.000000000000e+00
0.000000000000e+00 0.000000000000e+00 0.000000000000e+00
0.000000000000e+00 0.000000000000e+00 0.000000000000e+00
0.000000000000e+00 0.000000000000e+00 0.000000000000e+00
3.445254000000e-19 4.465975000000e-19 -1.002528000000e-02
-1.636984000000e-19 7.044673000000e-19 -1.002528000000e-02
3.036901000000e-19 2.756321000000e-19 -1.002528000000e-02
3.769871000000e-19 4.432439000000e-19 -1.002528000000e-02
-2.617782000000e-19 -3.817893000000e-19 -1.002528000000e-02
8.094171000000e-20 -6.003936000000e-19 -1.002528000000e-02
-2.174993000000e-19 -3.397711000000e-19 -1.002528000000e-02
-4.624541000000e-19 -5.473842000000e-19 -1.002528000000e-02
VECTORS displacement_error float
0.000000000000e+00 0.000000000000e+00 0.000000000000e+00
0.000000000000e+00 0.000000000000e+00 0.000000000000e+00
0.000000000000e+00 0.000000000000e+00 0.000000000000e+00
0.000000000000e+00 0.000000000000e+00 0.000000000000e+00
0.000000000000e+00 0.000000000000e+00 0.000000000000e+00
0.000000000000e+00 0.000000000000e+00 0.000000000000e+00
0.000000000000e+00 0.000000000000e+00 0.000000000000e+00
0.000000000000e+00 0.000000000000e+00 0.000000000000e+00
6.485826755522e-17 -1.194263154197e-16 2.255140518770e-16
6.463747105837e-17 -1.155986727618e-16 6.054184931159e-16
1.009853120878e-16 -1.202907244858e-16 -3.105155021998e-16
9.985201549856e-17 -1.140142183232e-16 1.942890293094e-16
-1.406916709753e-16 1.497752673476e-16 2.203098814491e-16
-1.466326094417e-16 1.131815760349e-16 6.106226635438e-16
-1.476121838990e-16 1.478989152014e-16 -3.018418848200e-16
-1.475716659718e-16 1.153443172342e-16 1.838806884535e-16
SCALARS sfc_displacement_magnitude float 1
LOOKUP_TABLE default
0.000000000000e+00
0.000000000000e+00
0.000000000000e+00
0.000000000000e+00
0.000000000000e+00
0.000000000000e+00
0.000000000000e+00
0.000000000000e+00
1.002528000000e-02
1.002528000000e-02
1.002528000000e-02
1.002528000000e-02
1.002528000000e-02
1.002528000000e-02
1.002528000000e-02
1.002528000000e-02
SCALARS calculix_displacement_magnitude float 1
LOOKUP_TABLE default
0.000000000000e+00
0.000000000000e+00
0.000000000000e+00
0.000000000000e+00
0.000000000000e+00
0.000000000000e+00
0.000000000000e+00
0.000000000000e+00
1.002528000000e-02
1.002528000000e-02
1.002528000000e-02
1.002528000000e-02
1.002528000000e-02
1.002528000000e-02
1.002528000000e-02
1.002528000000e-02
SCALARS displacement_error_magnitude float 1
LOOKUP_TABLE default
0.000000000000e+00
0.000000000000e+00
0.000000000000e+00
0.000000000000e+00
0.000000000000e+00
0.000000000000e+00
0.000000000000e+00
0.000000000000e+00
2.632979819121e-16
6.197359176422e-16
3.479766784732e-16
2.464100117466e-16
3.012693493453e-16
6.380997010960e-16
3.671130199065e-16
2.624763145544e-16
CELL_DATA 2
SCALARS cell_displacement_error_magnitude float 1
LOOKUP_TABLE default
0.000000000000e+00
3.807973718345e-16
SCALARS von_mises_abs_error float 1
LOOKUP_TABLE default
0.000000000000e+00
4.258900372184e-13
SCALARS engineering_strain_norm_abs_error float 1
LOOKUP_TABLE default
0.000000000000e+00
2.635281913945e-18
