# vtk DataFile Version 3.0
SFC common-time dynamic block_plane_c3d8 frame 1 t=2.000000000000e-03
ASCII
DATASET UNSTRUCTURED_GRID
POINTS 8 float
-2.500000000000e-01 -2.500000000000e-01 1.938038000000e-02
2.500000000000e-01 -2.500000000000e-01 1.938038000000e-02
-2.500000000000e-01 2.500000000000e-01 1.938038000000e-02
2.500000000000e-01 2.500000000000e-01 1.938038000000e-02
-2.500000000000e-01 -2.500000000000e-01 3.193803800000e-01
2.500000000000e-01 -2.500000000000e-01 3.193803800000e-01
-2.500000000000e-01 2.500000000000e-01 3.193803800000e-01
2.500000000000e-01 2.500000000000e-01 3.193803800000e-01
CELLS 1 9
8 0 1 3 2 4 5 7 6
CELL_TYPES 1
12
POINT_DATA 8
VECTORS displacement float
1.292414095828e-19 -2.204053564594e-19 -6.196200000000e-04
-8.268418990260e-20 6.781386032401e-20 -6.196200000000e-04
2.509267617503e-20 -6.974347703962e-20 -6.196200000000e-04
1.900075349174e-19 -4.286622745618e-20 -6.196200000000e-04
2.650462606904e-20 1.121589312908e-19 -6.196200000000e-04
1.529861962812e-19 -1.129433261337e-19 -6.196200000000e-04
4.582051770893e-20 -2.228769721741e-20 -6.196200000000e-04
-1.761063239367e-19 1.106376087515e-19 -6.196200000000e-04
SCALARS displacement_magnitude float 1
LOOKUP_TABLE default
6.196200000000e-04
6.196200000000e-04
6.196200000000e-04
6.196200000000e-04
6.196200000000e-04
6.196200000000e-04
6.196200000000e-04
6.196200000000e-04
CELL_DATA 1
SCALARS displacement_magnitude float 1
LOOKUP_TABLE default
6.196200000000e-04
SCALARS engineering_strain_norm float 1
LOOKUP_TABLE default
3.505151518939e-19
SCALARS von_mises float 1
LOOKUP_TABLE default
2.748559439842e-14
