# vtk DataFile Version 3.0
SFC common-time dynamic block_plane_c3d8 frame 37 t=7.400000000000e-02
ASCII
DATASET UNSTRUCTURED_GRID
POINTS 8 float
-2.500262142412e-01 -2.500262142412e-01 1.971650571579e-02
2.499789719971e-01 -2.499789719971e-01 1.960404433290e-02
-2.499789719971e-01 2.499789719971e-01 1.960404433291e-02
2.500262142412e-01 2.500262142412e-01 1.971650571576e-02
-2.499789719971e-01 -2.499789719971e-01 3.197135528825e-01
2.500262142412e-01 -2.500262142412e-01 3.195984030068e-01
-2.500262142412e-01 2.500262142412e-01 3.195984030068e-01
2.499789719971e-01 2.499789719971e-01 3.197135528825e-01
CELLS 1 9
8 0 1 3 2 4 5 7 6
CELL_TYPES 1
12
POINT_DATA 8
VECTORS displacement float
-2.621424115800e-05 -2.621424116006e-05 -2.834942842103e-04
-2.102800287365e-05 2.102800286694e-05 -3.959556670953e-04
2.102800286605e-05 -2.102800287572e-05 -3.959556670936e-04
2.621424115042e-05 2.621424115131e-05 -2.834942842351e-04
2.102800287552e-05 2.102800287243e-05 -2.864471174622e-04
2.621424115987e-05 -2.621424115163e-05 -4.015969931517e-04
-2.621424115150e-05 2.621424115678e-05 -4.015969931500e-04
-2.102800286714e-05 -2.102800286727e-05 -2.864471174871e-04
SCALARS displacement_magnitude float 1
LOOKUP_TABLE default
2.859079957941e-04
3.970708300975e-04
3.970708300959e-04
2.859079958172e-04
2.879866401625e-04
4.033044976036e-04
4.033044976017e-04
2.879866401863e-04
CELL_DATA 1
SCALARS displacement_magnitude float 1
LOOKUP_TABLE default
3.435674909198e-04
SCALARS engineering_strain_norm float 1
LOOKUP_TABLE default
2.050224437159e-05
SCALARS von_mises float 1
LOOKUP_TABLE default
1.899698108916e+00
