# vtk DataFile Version 3.0
SFC common-time dynamic block_plane_c3d8 frame 10 t=2.000000000000e-02
ASCII
DATASET UNSTRUCTURED_GRID
POINTS 8 float
-2.500000000000e-01 -2.500000000000e-01 1.203800000000e-02
2.500000000000e-01 -2.500000000000e-01 1.203800000000e-02
-2.500000000000e-01 2.500000000000e-01 1.203800000000e-02
2.500000000000e-01 2.500000000000e-01 1.203800000000e-02
-2.500000000000e-01 -2.500000000000e-01 3.120380000000e-01
2.500000000000e-01 -2.500000000000e-01 3.120380000000e-01
-2.500000000000e-01 2.500000000000e-01 3.120380000000e-01
2.500000000000e-01 2.500000000000e-01 3.120380000000e-01
CELLS 1 9
8 0 1 3 2 4 5 7 6
CELL_TYPES 1
12
POINT_DATA 8
VECTORS displacement float
1.333819274299e-16 3.217321344395e-17 -7.962000000000e-03
1.369072728691e-16 6.843300089147e-17 -7.962000000000e-03
1.012001485372e-16 3.192118676931e-17 -7.962000000000e-03
9.912426398227e-17 7.044370114420e-17 -7.962000000000e-03
-8.490966427170e-17 -1.227856391964e-16 -7.962000000000e-03
-8.247395234731e-17 -8.558860240974e-17 -7.962000000000e-03
-1.234693148792e-16 -1.198728397292e-16 -7.962000000000e-03
-1.239475494263e-16 -8.836053679879e-17 -7.962000000000e-03
SCALARS displacement_magnitude float 1
LOOKUP_TABLE default
7.962000000000e-03
7.962000000000e-03
7.962000000000e-03
7.962000000000e-03
7.962000000000e-03
7.962000000000e-03
7.962000000000e-03
7.962000000000e-03
CELL_DATA 1
SCALARS displacement_magnitude float 1
LOOKUP_TABLE default
7.962000000000e-03
SCALARS engineering_strain_norm float 1
LOOKUP_TABLE default
7.815354007312e-18
SCALARS von_mises float 1
LOOKUP_TABLE default
5.308934068459e-13
