# vtk DataFile Version 3.0
SFC common-time dynamic block_plane_c3d8 frame 20 t=4.000000000000e-02
ASCII
DATASET UNSTRUCTURED_GRID
POINTS 8 float
-2.499575589510e-01 -2.499575589510e-01 4.031484913723e-03
2.500660922564e-01 -2.500660922564e-01 4.440180223552e-03
-2.500660922564e-01 2.500660922564e-01 4.440180223553e-03
2.499575589510e-01 2.499575589510e-01 4.031484913721e-03
-2.500660922564e-01 -2.500660922564e-01 3.040641527659e-01
2.499575589510e-01 -2.499575589510e-01 3.043013874126e-01
-2.499575589510e-01 2.499575589510e-01 3.043013874126e-01
2.500660922564e-01 2.500660922564e-01 3.040641527659e-01
CELLS 1 9
8 0 1 3 2 4 5 7 6
CELL_TYPES 1
12
POINT_DATA 8
VECTORS displacement float
4.244104897822e-05 4.244104897772e-05 -1.596851508628e-02
6.609225644651e-05 -6.609225644682e-05 -1.555981977645e-02
-6.609225644698e-05 6.609225644600e-05 -1.555981977645e-02
-4.244104897867e-05 -4.244104897852e-05 -1.596851508628e-02
-6.609225644616e-05 -6.609225644675e-05 -1.593584723407e-02
-4.244104897787e-05 4.244104897844e-05 -1.569861258735e-02
4.244104897838e-05 -4.244104897844e-05 -1.569861258735e-02
6.609225644667e-05 6.609225644674e-05 -1.593584723407e-02
SCALARS displacement_magnitude float 1
LOOKUP_TABLE default
1.596862788551e-02
1.556010050894e-02
1.556010050894e-02
1.596862788551e-02
1.593612134242e-02
1.569872732590e-02
1.569872732590e-02
1.593612134242e-02
CELL_DATA 1
SCALARS displacement_magnitude float 1
LOOKUP_TABLE default
1.579089426569e-02
SCALARS engineering_strain_norm float 1
LOOKUP_TABLE default
1.891025599786e-04
SCALARS von_mises float 1
LOOKUP_TABLE default
1.724441123818e+01
