# vtk DataFile Version 3.0
SFC common-time dynamic block_plane_c3d8 frame 2 t=4.000000000000e-03
ASCII
DATASET UNSTRUCTURED_GRID
POINTS 8 float
-2.500000000000e-01 -2.500000000000e-01 1.872152000000e-02
2.500000000000e-01 -2.500000000000e-01 1.872152000000e-02
-2.500000000000e-01 2.500000000000e-01 1.872152000000e-02
2.500000000000e-01 2.500000000000e-01 1.872152000000e-02
-2.500000000000e-01 -2.500000000000e-01 3.187215200000e-01
2.500000000000e-01 -2.500000000000e-01 3.187215200000e-01
-2.500000000000e-01 2.500000000000e-01 3.187215200000e-01
2.500000000000e-01 2.500000000000e-01 3.187215200000e-01
CELLS 1 9
8 0 1 3 2 4 5 7 6
CELL_TYPES 1
12
POINT_DATA 8
VECTORS displacement float
5.981474886529e-19 -5.289049355515e-19 -1.278480000000e-03
4.721154529411e-19 -1.396744527118e-19 -1.278480000000e-03
1.200463897679e-18 -7.467008669781e-19 -1.278480000000e-03
1.129430892094e-18 3.216630872036e-19 -1.278480000000e-03
-2.345615917406e-19 2.160277995281e-19 -1.278480000000e-03
2.780762457124e-19 -3.830883536145e-19 -1.278480000000e-03
-6.275024579206e-19 8.909690700433e-20 -1.278480000000e-03
-1.016128330159e-18 -2.021351406829e-19 -1.278480000000e-03
SCALARS displacement_magnitude float 1
LOOKUP_TABLE default
1.278480000000e-03
1.278480000000e-03
1.278480000000e-03
1.278480000000e-03
1.278480000000e-03
1.278480000000e-03
1.278480000000e-03
1.278480000000e-03
CELL_DATA 1
SCALARS displacement_magnitude float 1
LOOKUP_TABLE default
1.278480000000e-03
SCALARS engineering_strain_norm float 1
LOOKUP_TABLE default
1.007720617389e-18
SCALARS von_mises float 1
LOOKUP_TABLE default
6.762792774832e-14
