# vtk DataFile Version 3.0
SFC common-time dynamic block_plane_c3d8 frame 36 t=7.200000000000e-02
ASCII
DATASET UNSTRUCTURED_GRID
POINTS 8 float
-2.500408479433e-01 -2.500408479433e-01 1.915949243829e-02
2.499613683089e-01 -2.499613683089e-01 1.895699728632e-02
-2.499613683089e-01 2.499613683089e-01 1.895699728632e-02
2.500408479433e-01 2.500408479433e-01 1.915949243827e-02
-2.499613683089e-01 -2.499613683089e-01 3.191611179668e-01
2.500408479433e-01 -2.500408479433e-01 3.189482618245e-01
-2.500408479433e-01 2.500408479433e-01 3.189482618245e-01
2.499613683089e-01 2.499613683089e-01 3.191611179668e-01
CELLS 1 9
8 0 1 3 2 4 5 7 6
CELL_TYPES 1
12
POINT_DATA 8
VECTORS displacement float
-4.084794332061e-05 -4.084794332256e-05 -8.405075617053e-04
-3.863169111866e-05 3.863169111232e-05 -1.043002713682e-03
3.863169111144e-05 -3.863169112061e-05 -1.043002713680e-03
4.084794331336e-05 4.084794331424e-05 -8.405075617290e-04
3.863169112044e-05 3.863169111750e-05 -8.388820331793e-04
4.084794332239e-05 -4.084794331456e-05 -1.051738175455e-03
-4.084794331441e-05 4.084794331944e-05 -1.051738175453e-03
-3.863169111248e-05 -3.863169111262e-05 -8.388820332030e-04
SCALARS displacement_magnitude float 1
LOOKUP_TABLE default
8.424903977085e-04
1.044432609537e-03
1.044432609535e-03
8.424903977313e-04
8.406591941497e-04
1.053323453957e-03
1.053323453955e-03
8.406591941727e-04
CELL_DATA 1
SCALARS displacement_magnitude float 1
LOOKUP_TABLE default
9.452264138432e-04
SCALARS engineering_strain_norm float 1
LOOKUP_TABLE default
1.340574704557e-05
SCALARS von_mises float 1
LOOKUP_TABLE default
1.252491780683e+00
