# vtk DataFile Version 3.0
SFC common-time dynamic block_plane_c3d8 frame 38 t=7.600000000000e-02
ASCII
DATASET UNSTRUCTURED_GRID
POINTS 8 float
-2.499504164634e-01 -2.499504164634e-01 2.010561901837e-02
2.500401181198e-01 -2.500401181198e-01 2.032575163763e-02
-2.500401181198e-01 2.500401181198e-01 2.032575163763e-02
2.499504164634e-01 2.499504164634e-01 2.010561901835e-02
-2.500401181198e-01 -2.500401181198e-01 3.201077080431e-01
2.499504164634e-01 -2.499504164634e-01 3.203431036611e-01
-2.499504164634e-01 2.499504164634e-01 3.203431036611e-01
2.500401181198e-01 2.500401181198e-01 3.201077080431e-01
CELLS 1 9
8 0 1 3 2 4 5 7 6
CELL_TYPES 1
12
POINT_DATA 8
VECTORS displacement float
4.958353655903e-05 4.958353655684e-05 1.056190183715e-04
4.011811982764e-05 -4.011811983466e-05 3.257516376281e-04
-4.011811983557e-05 4.011811982545e-05 3.257516376299e-04
-4.958353656697e-05 -4.958353656606e-05 1.056190183453e-04
-4.011811982568e-05 -4.011811982890e-05 1.077080431143e-04
-4.958353655707e-05 4.958353656572e-05 3.431036610678e-04
4.958353656583e-05 -4.958353656030e-05 3.431036610695e-04
4.011811983444e-05 4.011811983432e-05 1.077080430882e-04
SCALARS displacement_magnitude float 1
LOOKUP_TABLE default
1.267770927137e-04
3.306554951834e-04
3.306554951850e-04
1.267770926986e-04
1.217372154621e-04
3.501959115038e-04
3.501959115060e-04
1.217372154437e-04
CELL_DATA 1
SCALARS displacement_magnitude float 1
LOOKUP_TABLE default
2.323414287120e-04
SCALARS engineering_strain_norm float 1
LOOKUP_TABLE default
4.203125168198e-05
SCALARS von_mises float 1
LOOKUP_TABLE default
3.948660033356e+00
