# vtk DataFile Version 3.0
SFC common-time dynamic block_plane_c3d8 frame 14 t=2.800000000000e-02
ASCII
DATASET UNSTRUCTURED_GRID
POINTS 8 float
-2.500000000000e-01 -2.500000000000e-01 7.754479999999e-03
2.500000000000e-01 -2.500000000000e-01 7.754480000000e-03
-2.500000000000e-01 2.500000000000e-01 7.754480000000e-03
2.500000000000e-01 2.500000000000e-01 7.754480000001e-03
-2.500000000000e-01 -2.500000000000e-01 3.077544800000e-01
2.500000000000e-01 -2.500000000000e-01 3.077544800000e-01
-2.500000000000e-01 2.500000000000e-01 3.077544800000e-01
2.500000000000e-01 2.500000000000e-01 3.077544800000e-01
CELLS 1 9
8 0 1 3 2 4 5 7 6
CELL_TYPES 1
12
POINT_DATA 8
VECTORS displacement float
4.226024872347e-16 1.433530516788e-16 -1.224552000000e-02
4.169119490269e-16 2.410012278610e-16 -1.224552000000e-02
3.408211899749e-16 1.425592311216e-16 -1.224552000000e-02
3.431928970583e-16 2.368152799789e-16 -1.224552000000e-02
-3.127964023825e-16 -3.803762319992e-16 -1.224552000000e-02
-3.190168812384e-16 -3.115321204980e-16 -1.224552000000e-02
-4.044771940181e-16 -3.800506635217e-16 -1.224552000000e-02
-4.062243314003e-16 -3.035470701109e-16 -1.224552000000e-02
SCALARS displacement_magnitude float 1
LOOKUP_TABLE default
1.224552000000e-02
1.224552000000e-02
1.224552000000e-02
1.224552000000e-02
1.224552000000e-02
1.224552000000e-02
1.224552000000e-02
1.224552000000e-02
CELL_DATA 1
SCALARS displacement_magnitude float 1
LOOKUP_TABLE default
1.224552000000e-02
SCALARS engineering_strain_norm float 1
LOOKUP_TABLE default
7.268397397623e-18
SCALARS von_mises float 1
LOOKUP_TABLE default
6.638844695282e-13
