# vtk DataFile Version 3.0
SFC common-time dynamic block_plane_c3d8 frame 23 t=4.600000000000e-02
ASCII
DATASET UNSTRUCTURED_GRID
POINTS 8 float
-2.499583246486e-01 -2.499583246486e-01 7.543911537009e-03
2.500505684533e-01 -2.500505684533e-01 7.793017282561e-03
-2.500505684533e-01 2.500505684533e-01 7.793017282562e-03
2.499583246486e-01 2.499583246486e-01 7.543911537003e-03
-2.500505684533e-01 -2.500505684533e-01 3.075417723043e-01
2.499583246486e-01 -2.499583246486e-01 3.077775349048e-01
-2.499583246486e-01 2.499583246486e-01 3.077775349048e-01
2.500505684533e-01 2.500505684533e-01 3.075417723043e-01
CELLS 1 9
8 0 1 3 2 4 5 7 6
CELL_TYPES 1
12
POINT_DATA 8
VECTORS displacement float
4.167535135934e-05 4.167535135871e-05 -1.245608846299e-02
5.056845334667e-05 -5.056845334831e-05 -1.220698271744e-02
-5.056845334873e-05 5.056845334603e-05 -1.220698271744e-02
-4.167535136143e-05 -4.167535136101e-05 -1.245608846300e-02
-5.056845334608e-05 -5.056845334716e-05 -1.245822769571e-02
-4.167535135874e-05 4.167535136095e-05 -1.222246509520e-02
4.167535136098e-05 -4.167535135982e-05 -1.222246509520e-02
5.056845334828e-05 5.056845334824e-05 -1.245822769572e-02
SCALARS displacement_magnitude float 1
LOOKUP_TABLE default
1.245622789883e-02
1.220719219972e-02
1.220719219971e-02
1.245622789884e-02
1.245843295343e-02
1.222260719622e-02
1.222260719622e-02
1.245843295344e-02
CELL_DATA 1
SCALARS displacement_magnitude float 1
LOOKUP_TABLE default
1.233611506205e-02
SCALARS engineering_strain_norm float 1
LOOKUP_TABLE default
3.866855143246e-05
SCALARS von_mises float 1
LOOKUP_TABLE default
3.627350367039e+00
