# vtk DataFile Version 3.0
SFC common-time dynamic block_plane_c3d8 frame 35 t=7.000000000000e-02
ASCII
DATASET UNSTRUCTURED_GRID
POINTS 8 float
-2.499674179531e-01 -2.499674179531e-01 1.833772836168e-02
2.500245077724e-01 -2.500245077724e-01 1.848350399147e-02
-2.500245077724e-01 2.500245077724e-01 1.848350399147e-02
2.499674179531e-01 2.499674179531e-01 1.833772836166e-02
-2.500245077724e-01 -2.500245077724e-01 3.183368425591e-01
2.499674179531e-01 -2.499674179531e-01 3.185041981816e-01
-2.499674179531e-01 2.499674179531e-01 3.185041981816e-01
2.500245077724e-01 2.500245077724e-01 3.183368425591e-01
CELLS 1 9
8 0 1 3 2 4 5 7 6
CELL_TYPES 1
12
POINT_DATA 8
VECTORS displacement float
3.258204691572e-05 3.258204691391e-05 -1.662271638322e-03
2.450777235392e-05 -2.450777235997e-05 -1.516496008534e-03
-2.450777236082e-05 2.450777235211e-05 -1.516496008533e-03
-3.258204692259e-05 -3.258204692176e-05 -1.662271638345e-03
-2.450777235225e-05 -2.450777235508e-05 -1.663157440862e-03
-3.258204691404e-05 3.258204692147e-05 -1.495801818403e-03
3.258204692161e-05 -3.258204691687e-05 -1.495801818402e-03
2.450777235983e-05 2.450777235968e-05 -1.663157440884e-03
SCALARS displacement_magnitude float 1
LOOKUP_TABLE default
1.662910153656e-03
1.516892021771e-03
1.516892021769e-03
1.662910153679e-03
1.663518540595e-03
1.496511362971e-03
1.496511362969e-03
1.663518540618e-03
CELL_DATA 1
SCALARS displacement_magnitude float 1
LOOKUP_TABLE default
1.584958019754e-03
SCALARS engineering_strain_norm float 1
LOOKUP_TABLE default
4.014317013036e-05
SCALARS von_mises float 1
LOOKUP_TABLE default
3.781732957176e+00
