# vtk DataFile Version 3.0
SFC native dynamic block_plane_c3d8 frame 5 t=1.000000000000e-02
ASCII
DATASET UNSTRUCTURED_GRID
POINTS 8 float
-2.500000000000e-01 -2.500000000000e-01 1.650950000000e-02
2.500000000000e-01 -2.500000000000e-01 1.650950000000e-02
-2.500000000000e-01 2.500000000000e-01 1.650950000000e-02
2.500000000000e-01 2.500000000000e-01 1.650950000000e-02
-2.500000000000e-01 -2.500000000000e-01 3.165095000000e-01
2.500000000000e-01 -2.500000000000e-01 3.165095000000e-01
-2.500000000000e-01 2.500000000000e-01 3.165095000000e-01
2.500000000000e-01 2.500000000000e-01 3.165095000000e-01
CELLS 1 9
8 0 1 3 2 4 5 7 6
CELL_TYPES 1
12
POINT_DATA 8
VECTORS displacement float
1.654938035581e-17 -2.128447226952e-20 -3.490500000000e-03
1.684591720879e-17 -6.579499248061e-19 -3.490500000000e-03
1.222605963139e-17 -3.475664187769e-19 -3.490500000000e-03
1.101668645350e-17 -2.674466077911e-19 -3.490500000000e-03
-1.023578786229e-17 -9.166339370880e-18 -3.490500000000e-03
-9.733902207252e-18 -3.792058201849e-18 -3.490500000000e-03
-9.938646105135e-18 -8.871516805069e-18 -3.490500000000e-03
-1.074249592021e-17 -3.094865148106e-18 -3.490500000000e-03
SCALARS displacement_magnitude float 1
LOOKUP_TABLE default
3.490500000000e-03
3.490500000000e-03
3.490500000000e-03
3.490500000000e-03
3.490500000000e-03
3.490500000000e-03
3.490500000000e-03
3.490500000000e-03
CELL_DATA 1
SCALARS displacement_magnitude float 1
LOOKUP_TABLE default
3.490500000000e-03
SCALARS engineering_strain_norm float 1
LOOKUP_TABLE default
1.926039931591e-18
SCALARS von_mises float 1
LOOKUP_TABLE default
1.392626294241e-13
