# vtk DataFile Version 3.0
SFC native dynamic block_plane_c3d8 frame 12 t=2.400000000000e-02
ASCII
DATASET UNSTRUCTURED_GRID
POINTS 8 float
-2.500000000000e-01 -2.500000000000e-01 9.974719999999e-03
2.500000000000e-01 -2.500000000000e-01 9.974720000000e-03
-2.500000000000e-01 2.500000000000e-01 9.974720000000e-03
2.500000000000e-01 2.500000000000e-01 9.974720000001e-03
-2.500000000000e-01 -2.500000000000e-01 3.099747200000e-01
2.500000000000e-01 -2.500000000000e-01 3.099747200000e-01
-2.500000000000e-01 2.500000000000e-01 3.099747200000e-01
2.500000000000e-01 2.500000000000e-01 3.099747200000e-01
CELLS 1 9
8 0 1 3 2 4 5 7 6
CELL_TYPES 1
12
POINT_DATA 8
VECTORS displacement float
2.477475969288e-16 7.658261012946e-17 -1.002528000000e-02
2.495206449977e-16 1.367671385375e-16 -1.002528000000e-02
1.844544080978e-16 7.267018676917e-17 -1.002528000000e-02
1.834357486081e-16 1.374554866095e-16 -1.002528000000e-02
-1.689426137033e-16 -2.257043522531e-16 -1.002528000000e-02
-1.670768709849e-16 -1.647746006786e-16 -1.002528000000e-02
-2.267981167101e-16 -2.292683733489e-16 -1.002528000000e-02
-2.311088879740e-16 -1.636890457011e-16 -1.002528000000e-02
SCALARS displacement_magnitude float 1
LOOKUP_TABLE default
1.002528000000e-02
1.002528000000e-02
1.002528000000e-02
1.002528000000e-02
1.002528000000e-02
1.002528000000e-02
1.002528000000e-02
1.002528000000e-02
CELL_DATA 1
SCALARS displacement_magnitude float 1
LOOKUP_TABLE default
1.002528000000e-02
SCALARS engineering_strain_norm float 1
LOOKUP_TABLE default
1.480973596304e-17
SCALARS von_mises float 1
LOOKUP_TABLE default
1.206610226521e-12
