# vtk DataFile Version 3.0
SFC native dynamic block_plane_c3d8 frame 15 t=3.000000000000e-02
ASCII
DATASET UNSTRUCTURED_GRID
POINTS 8 float
-2.500000000000e-01 -2.500000000000e-01 6.585499999999e-03
2.500000000000e-01 -2.500000000000e-01 6.585500000000e-03
-2.500000000000e-01 2.500000000000e-01 6.585500000000e-03
2.500000000000e-01 2.500000000000e-01 6.585500000001e-03
-2.500000000000e-01 -2.500000000000e-01 3.065855000000e-01
2.500000000000e-01 -2.500000000000e-01 3.065855000000e-01
-2.500000000000e-01 2.500000000000e-01 3.065855000000e-01
2.500000000000e-01 2.500000000000e-01 3.065855000000e-01
CELLS 1 9
8 0 1 3 2 4 5 7 6
CELL_TYPES 1
12
POINT_DATA 8
VECTORS displacement float
5.160797743307e-16 1.864206800634e-16 -1.341450000000e-02
5.262869435715e-16 3.033102216972e-16 -1.341450000000e-02
4.423689661986e-16 1.889377444816e-16 -1.341450000000e-02
4.360891446230e-16 3.006272340415e-16 -1.341450000000e-02
-4.022701782750e-16 -4.762732963127e-16 -1.341450000000e-02
-4.032001955832e-16 -3.887218182716e-16 -1.341450000000e-02
-5.178602202238e-16 -4.718285468293e-16 -1.341450000000e-02
-5.195003270132e-16 -3.890157865755e-16 -1.341450000000e-02
SCALARS displacement_magnitude float 1
LOOKUP_TABLE default
1.341450000000e-02
1.341450000000e-02
1.341450000000e-02
1.341450000000e-02
1.341450000000e-02
1.341450000000e-02
1.341450000000e-02
1.341450000000e-02
CELL_DATA 1
SCALARS displacement_magnitude float 1
LOOKUP_TABLE default
1.341450000000e-02
SCALARS engineering_strain_norm float 1
LOOKUP_TABLE default
1.890116768569e-17
SCALARS von_mises float 1
LOOKUP_TABLE default
1.287105809517e-12
