# vtk DataFile Version 3.0
SFC native dynamic block_plane_c3d8 frame 22 t=4.400000000000e-02
ASCII
DATASET UNSTRUCTURED_GRID
POINTS 8 float
-2.500091698801e-01 -2.500091698801e-01 6.548640529412e-03
2.499808315699e-01 -2.499808315699e-01 6.470032021041e-03
-2.499808315699e-01 2.499808315699e-01 6.470032021041e-03
2.500091698801e-01 2.500091698801e-01 6.548640529407e-03
-2.499808315699e-01 -2.499808315699e-01 3.065557815294e-01
2.500091698801e-01 -2.500091698801e-01 3.064777055268e-01
-2.500091698801e-01 2.500091698801e-01 3.064777055268e-01
2.499808315699e-01 2.499808315699e-01 3.065557815293e-01
CELLS 1 9
8 0 1 3 2 4 5 7 6
CELL_TYPES 1
12
POINT_DATA 8
VECTORS displacement float
-9.169880095691e-06 -9.169880096270e-06 -1.345135947059e-02
-1.916843005366e-05 1.916843005241e-05 -1.352996797896e-02
1.916843005206e-05 -1.916843005424e-05 -1.352996797896e-02
9.169880094111e-06 9.169880094454e-06 -1.345135947059e-02
1.916843005418e-05 1.916843005326e-05 -1.344421847065e-02
9.169880096203e-06 -9.169880094530e-06 -1.352229447324e-02
-9.169880094511e-06 9.169880095288e-06 -1.352229447324e-02
-1.916843005247e-05 -1.916843005248e-05 -1.344421847065e-02
SCALARS displacement_magnitude float 1
LOOKUP_TABLE default
1.345136572175e-02
1.352999513559e-02
1.352999513559e-02
1.345136572176e-02
1.344424580049e-02
1.352230069161e-02
1.352230069161e-02
1.344424580049e-02
CELL_DATA 1
SCALARS displacement_magnitude float 1
LOOKUP_TABLE default
1.348697683736e-02
SCALARS engineering_strain_norm float 1
LOOKUP_TABLE default
3.754205277234e-05
SCALARS von_mises float 1
LOOKUP_TABLE default
3.437534052099e+00
