# vtk DataFile Version 3.0
SFC native dynamic block_plane_c3d8 frame 13 t=2.600000000000e-02
ASCII
DATASET UNSTRUCTURED_GRID
POINTS 8 float
-2.500000000000e-01 -2.500000000000e-01 8.884219999999e-03
2.500000000000e-01 -2.500000000000e-01 8.884220000000e-03
-2.500000000000e-01 2.500000000000e-01 8.884220000000e-03
2.500000000000e-01 2.500000000000e-01 8.884220000001e-03
-2.500000000000e-01 -2.500000000000e-01 3.088842200000e-01
2.500000000000e-01 -2.500000000000e-01 3.088842200000e-01
-2.500000000000e-01 2.500000000000e-01 3.088842200000e-01
2.500000000000e-01 2.500000000000e-01 3.088842200000e-01
CELLS 1 9
8 0 1 3 2 4 5 7 6
CELL_TYPES 1
12
POINT_DATA 8
VECTORS displacement float
3.315588534882e-16 1.159727728632e-16 -1.111578000000e-02
3.302139018638e-16 1.753518518385e-16 -1.111578000000e-02
2.503042782649e-16 1.120548634674e-16 -1.111578000000e-02
2.492093882330e-16 1.787704601671e-16 -1.111578000000e-02
-2.349729974380e-16 -3.033552929459e-16 -1.111578000000e-02
-2.392624326688e-16 -2.259477999161e-16 -1.111578000000e-02
-3.051413709666e-16 -3.044323383704e-16 -1.111578000000e-02
-3.046025711258e-16 -2.244781500631e-16 -1.111578000000e-02
SCALARS displacement_magnitude float 1
LOOKUP_TABLE default
1.111578000000e-02
1.111578000000e-02
1.111578000000e-02
1.111578000000e-02
1.111578000000e-02
1.111578000000e-02
1.111578000000e-02
1.111578000000e-02
CELL_DATA 1
SCALARS displacement_magnitude float 1
LOOKUP_TABLE default
1.111578000000e-02
SCALARS engineering_strain_norm float 1
LOOKUP_TABLE default
1.271514192598e-17
SCALARS von_mises float 1
LOOKUP_TABLE default
9.017404516642e-13
