# vtk DataFile Version 3.0
SFC native dynamic block_plane_c3d8 frame 39 t=7.800000000000e-02
ASCII
DATASET UNSTRUCTURED_GRID
POINTS 8 float
-2.499873443974e-01 -2.499873443974e-01 2.070793757464e-02
2.500204706251e-01 -2.500204706252e-01 2.078971526010e-02
-2.500204706252e-01 2.500204706251e-01 2.078971526011e-02
2.499873443974e-01 2.499873443974e-01 2.070793757461e-02
-2.500204706251e-01 -2.500204706251e-01 3.207103046230e-01
2.499873443974e-01 -2.499873443974e-01 3.207669413246e-01
-2.499873443974e-01 2.499873443974e-01 3.207669413246e-01
2.500204706252e-01 2.500204706252e-01 3.207103046229e-01
CELLS 1 9
8 0 1 3 2 4 5 7 6
CELL_TYPES 1
12
POINT_DATA 8
VECTORS displacement float
1.265560263919e-05 1.265560263686e-05 7.079375746381e-04
2.047062514367e-05 -2.047062515102e-05 7.897152601050e-04
-2.047062515195e-05 2.047062514134e-05 7.897152601067e-04
-1.265560264749e-05 -1.265560264655e-05 7.079375746107e-04
-2.047062514161e-05 -2.047062514495e-05 7.103046229705e-04
-1.265560263713e-05 1.265560264619e-05 7.669413245694e-04
1.265560264630e-05 -1.265560264047e-05 7.669413245711e-04
2.047062515076e-05 2.047062515065e-05 7.103046229431e-04
SCALARS displacement_magnitude float 1
LOOKUP_TABLE default
7.081637791787e-04
7.902457118077e-04
7.902457118094e-04
7.081637791517e-04
7.108943313888e-04
7.671501312577e-04
7.671501312594e-04
7.108943313619e-04
CELL_DATA 1
SCALARS displacement_magnitude float 1
LOOKUP_TABLE default
7.441134884019e-04
SCALARS engineering_strain_norm float 1
LOOKUP_TABLE default
4.056325055294e-05
SCALARS von_mises float 1
LOOKUP_TABLE default
3.818578744689e+00
