# vtk DataFile Version 3.0
SFC native dynamic block_plane_c3d8 frame 9 t=1.800000000000e-02
ASCII
DATASET UNSTRUCTURED_GRID
POINTS 8 float
-2.500000000000e-01 -2.500000000000e-01 1.301078000000e-02
2.500000000000e-01 -2.500000000000e-01 1.301078000000e-02
-2.500000000000e-01 2.500000000000e-01 1.301078000000e-02
2.500000000000e-01 2.500000000000e-01 1.301078000000e-02
-2.500000000000e-01 -2.500000000000e-01 3.130107800000e-01
2.500000000000e-01 -2.500000000000e-01 3.130107800000e-01
-2.500000000000e-01 2.500000000000e-01 3.130107800000e-01
2.500000000000e-01 2.500000000000e-01 3.130107800000e-01
CELLS 1 9
8 0 1 3 2 4 5 7 6
CELL_TYPES 1
12
POINT_DATA 8
VECTORS displacement float
1.052938659815e-16 2.441279857983e-17 -6.989220000000e-03
1.032838669306e-16 3.909541937140e-17 -6.989220000000e-03
6.841627423588e-17 2.244193174340e-17 -6.989220000000e-03
7.005623457836e-17 3.811836341701e-17 -6.989220000000e-03
-6.877416851464e-17 -8.768562598775e-17 -6.989220000000e-03
-6.758183480566e-17 -5.614002826734e-17 -6.989220000000e-03
-8.147533620144e-17 -8.902572879388e-17 -6.989220000000e-03
-8.440734033596e-17 -5.445248122462e-17 -6.989220000000e-03
SCALARS displacement_magnitude float 1
LOOKUP_TABLE default
6.989220000000e-03
6.989220000000e-03
6.989220000000e-03
6.989220000000e-03
6.989220000000e-03
6.989220000000e-03
6.989220000000e-03
6.989220000000e-03
CELL_DATA 1
SCALARS displacement_magnitude float 1
LOOKUP_TABLE default
6.989220000000e-03
SCALARS engineering_strain_norm float 1
LOOKUP_TABLE default
6.012627862907e-18
SCALARS von_mises float 1
LOOKUP_TABLE default
5.187045727269e-13
