# vtk DataFile Version 3.0
SFC native dynamic block_plane_c3d8 frame 19 t=3.800000000000e-02
ASCII
DATASET UNSTRUCTURED_GRID
POINTS 8 float
-2.498592226111e-01 -2.498592226111e-01 3.041718682389e-03
2.501882194925e-01 -2.501882194925e-01 4.056253596632e-03
-2.501882194925e-01 2.501882194925e-01 4.056253596632e-03
2.498592226111e-01 2.498592226111e-01 3.041718682389e-03
-2.501882194925e-01 -2.501882194925e-01 3.030716938464e-01
2.498592226111e-01 -2.498592226111e-01 3.038396002409e-01
-2.498592226111e-01 2.498592226111e-01 3.038396002409e-01
2.501882194925e-01 2.501882194925e-01 3.030716938464e-01
CELLS 1 9
8 0 1 3 2 4 5 7 6
CELL_TYPES 1
12
POINT_DATA 8
VECTORS displacement float
1.407773889126e-04 1.407773889122e-04 -1.695828131761e-02
1.882194924553e-04 -1.882194924550e-04 -1.594374640337e-02
-1.882194924550e-04 1.882194924548e-04 -1.594374640337e-02
-1.407773889124e-04 -1.407773889123e-04 -1.695828131761e-02
-1.882194924550e-04 -1.882194924554e-04 -1.692830615356e-02
-1.407773889124e-04 1.407773889123e-04 -1.616039975906e-02
1.407773889121e-04 -1.407773889128e-04 -1.616039975906e-02
1.882194924548e-04 1.882194924549e-04 -1.692830615356e-02
SCALARS displacement_magnitude float 1
LOOKUP_TABLE default
1.695944992604e-02
1.594596822177e-02
1.594596822177e-02
1.695944992603e-02
1.693039876622e-02
1.616162606049e-02
1.616162606049e-02
1.693039876622e-02
CELL_DATA 1
SCALARS displacement_magnitude float 1
LOOKUP_TABLE default
1.649936074363e-02
SCALARS engineering_strain_norm float 1
LOOKUP_TABLE default
3.388334416206e-04
SCALARS von_mises float 1
LOOKUP_TABLE default
3.123188665297e+01
