# vtk DataFile Version 3.0
CalculiX dynamic block_plane_c3d8 frame 6 t=1.400000000000e-02
ASCII
DATASET UNSTRUCTURED_GRID
POINTS 8 float
-2.500000000000e-01 -2.500000000000e-01 1.483862000000e-02
2.500000000000e-01 -2.500000000000e-01 1.483862000000e-02
-2.500000000000e-01 2.500000000000e-01 1.483862000000e-02
2.500000000000e-01 2.500000000000e-01 1.483862000000e-02
-2.500000000000e-01 -2.500000000000e-01 3.148386200000e-01
2.500000000000e-01 -2.500000000000e-01 3.148386200000e-01
-2.500000000000e-01 2.500000000000e-01 3.148386200000e-01
2.500000000000e-01 2.500000000000e-01 3.148386200000e-01
CELLS 1 9
8 0 1 3 2 4 5 7 6
CELL_TYPES 1
12
POINT_DATA 8
VECTORS displacement float
1.766446000000e-19 -2.162712000000e-20 -5.161380000000e-03
-2.622366000000e-20 1.808493000000e-19 -5.161380000000e-03
-5.836972000000e-20 9.413170000000e-20 -5.161380000000e-03
1.055094000000e-19 1.372463000000e-19 -5.161380000000e-03
-2.528183000000e-19 4.549164000000e-21 -5.161380000000e-03
1.025718000000e-19 -2.154655000000e-19 -5.161380000000e-03
8.292689000000e-20 -7.693145000000e-20 -5.161380000000e-03
-1.298715000000e-19 -1.025496000000e-19 -5.161380000000e-03
SCALARS displacement_magnitude float 1
LOOKUP_TABLE default
5.161380000000e-03
5.161380000000e-03
5.161380000000e-03
5.161380000000e-03
5.161380000000e-03
5.161380000000e-03
5.161380000000e-03
5.161380000000e-03
CELL_DATA 1
SCALARS displacement_magnitude float 1
LOOKUP_TABLE default
5.161380000000e-03
SCALARS engineering_strain_norm float 1
LOOKUP_TABLE default
7.329134148631e-19
SCALARS von_mises float 1
LOOKUP_TABLE default
1.258772948727e-13
