# vtk DataFile Version 3.0
CalculiX dynamic block_plane_c3d8 frame 45 t=4.127220000000e-02
ASCII
DATASET UNSTRUCTURED_GRID
POINTS 8 float
-2.499945094740e-01 -2.499945094740e-01 5.358460000000e-03
2.499945094740e-01 -2.499945094740e-01 5.358460000000e-03
-2.499945094740e-01 2.499945094740e-01 5.358460000000e-03
2.499945094740e-01 2.499945094740e-01 5.358460000000e-03
-2.499945094740e-01 -2.499945094740e-01 3.053659300000e-01
2.499945094740e-01 -2.499945094740e-01 3.053659300000e-01
-2.499945094740e-01 2.499945094740e-01 3.053659300000e-01
2.499945094740e-01 2.499945094740e-01 3.053659300000e-01
CELLS 1 9
8 0 1 3 2 4 5 7 6
CELL_TYPES 1
12
POINT_DATA 8
VECTORS displacement float
5.490526000000e-06 5.490526000000e-06 -1.464154000000e-02
-5.490526000000e-06 5.490526000000e-06 -1.464154000000e-02
5.490526000000e-06 -5.490526000000e-06 -1.464154000000e-02
-5.490526000000e-06 -5.490526000000e-06 -1.464154000000e-02
5.490526000000e-06 5.490526000000e-06 -1.463407000000e-02
-5.490526000000e-06 5.490526000000e-06 -1.463407000000e-02
5.490526000000e-06 -5.490526000000e-06 -1.463407000000e-02
-5.490526000000e-06 -5.490526000000e-06 -1.463407000000e-02
SCALARS displacement_magnitude float 1
LOOKUP_TABLE default
1.464154205893e-02
1.464154205893e-02
1.464154205893e-02
1.464154205893e-02
1.463407205998e-02
1.463407205998e-02
1.463407205998e-02
1.463407205998e-02
CELL_DATA 1
SCALARS displacement_magnitude float 1
LOOKUP_TABLE default
1.463780705945e-02
SCALARS engineering_strain_norm float 1
LOOKUP_TABLE default
3.980801457261e-05
SCALARS von_mises float 1
LOOKUP_TABLE default
3.604799900000e+00
