# vtk DataFile Version 3.0
CalculiX dynamic block_plane_c3d8 frame 55 t=5.400642000000e-02
ASCII
DATASET UNSTRUCTURED_GRID
POINTS 8 float
-2.500051122620e-01 -2.500051122620e-01 1.238537600000e-02
2.500051122620e-01 -2.500051122620e-01 1.238537600000e-02
-2.500051122620e-01 2.500051122620e-01 1.238537600000e-02
2.500051122620e-01 2.500051122620e-01 1.238537600000e-02
-2.500051122620e-01 -2.500051122620e-01 3.123778330000e-01
2.500051122620e-01 -2.500051122620e-01 3.123778330000e-01
-2.500051122620e-01 2.500051122620e-01 3.123778330000e-01
2.500051122620e-01 2.500051122620e-01 3.123778330000e-01
CELLS 1 9
8 0 1 3 2 4 5 7 6
CELL_TYPES 1
12
POINT_DATA 8
VECTORS displacement float
-5.112262000000e-06 -5.112262000000e-06 -7.614624000000e-03
5.112262000000e-06 -5.112262000000e-06 -7.614624000000e-03
-5.112262000000e-06 5.112262000000e-06 -7.614624000000e-03
5.112262000000e-06 5.112262000000e-06 -7.614624000000e-03
-5.112262000000e-06 -5.112262000000e-06 -7.622167000000e-03
5.112262000000e-06 -5.112262000000e-06 -7.622167000000e-03
-5.112262000000e-06 5.112262000000e-06 -7.622167000000e-03
5.112262000000e-06 5.112262000000e-06 -7.622167000000e-03
SCALARS displacement_magnitude float 1
LOOKUP_TABLE default
7.614627432240e-03
7.614627432240e-03
7.614627432240e-03
7.614627432240e-03
7.622170428843e-03
7.622170428843e-03
7.622170428843e-03
7.622170428843e-03
CELL_DATA 1
SCALARS displacement_magnitude float 1
LOOKUP_TABLE default
7.618398930542e-03
SCALARS engineering_strain_norm float 1
LOOKUP_TABLE default
3.832119960705e-05
SCALARS von_mises float 1
LOOKUP_TABLE default
3.506926000000e+00
