# vtk DataFile Version 3.0
CalculiX dynamic block_plane_c3d8 frame 34 t=3.769309000000e-02
ASCII
DATASET UNSTRUCTURED_GRID
POINTS 8 float
-2.500335754300e-01 -2.500335754300e-01 3.584390000000e-03
2.500335754300e-01 -2.500335754300e-01 3.584390000000e-03
-2.500335754300e-01 2.500335754300e-01 3.584390000000e-03
2.500335754300e-01 2.500335754300e-01 3.584390000000e-03
-2.500335754300e-01 -2.500335754300e-01 3.034701400000e-01
2.500335754300e-01 -2.500335754300e-01 3.034701400000e-01
-2.500335754300e-01 2.500335754300e-01 3.034701400000e-01
2.500335754300e-01 2.500335754300e-01 3.034701400000e-01
CELLS 1 9
8 0 1 3 2 4 5 7 6
CELL_TYPES 1
12
POINT_DATA 8
VECTORS displacement float
-3.357543000000e-05 -3.357543000000e-05 -1.641561000000e-02
3.357543000000e-05 -3.357543000000e-05 -1.641561000000e-02
-3.357543000000e-05 3.357543000000e-05 -1.641561000000e-02
3.357543000000e-05 3.357543000000e-05 -1.641561000000e-02
-3.357543000000e-05 -3.357543000000e-05 -1.652986000000e-02
3.357543000000e-05 -3.357543000000e-05 -1.652986000000e-02
-3.357543000000e-05 3.357543000000e-05 -1.652986000000e-02
3.357543000000e-05 3.357543000000e-05 -1.652986000000e-02
SCALARS displacement_magnitude float 1
LOOKUP_TABLE default
1.641567867288e-02
1.641567867288e-02
1.641567867288e-02
1.641567867288e-02
1.652992819823e-02
1.652992819823e-02
1.652992819823e-02
1.652992819823e-02
CELL_DATA 1
SCALARS displacement_magnitude float 1
LOOKUP_TABLE default
1.647280343555e-02
SCALARS engineering_strain_norm float 1
LOOKUP_TABLE default
4.255677757628e-04
SCALARS von_mises float 1
LOOKUP_TABLE default
3.959867900000e+01
