# vtk DataFile Version 3.0
CalculiX dynamic block_plane_c3d8 frame 66 t=7.600642000000e-02
ASCII
DATASET UNSTRUCTURED_GRID
POINTS 8 float
-2.500016323830e-01 -2.500016323830e-01 2.076184560000e-02
2.500016323830e-01 -2.500016323830e-01 2.076184560000e-02
-2.500016323830e-01 2.500016323830e-01 2.076184560000e-02
2.500016323830e-01 2.500016323830e-01 2.076184560000e-02
-2.500016323830e-01 -2.500016323830e-01 3.207588699000e-01
2.500016323830e-01 -2.500016323830e-01 3.207588699000e-01
-2.500016323830e-01 2.500016323830e-01 3.207588699000e-01
2.500016323830e-01 2.500016323830e-01 3.207588699000e-01
CELLS 1 9
8 0 1 3 2 4 5 7 6
CELL_TYPES 1
12
POINT_DATA 8
VECTORS displacement float
-1.632383000000e-06 -1.632383000000e-06 7.618456000000e-04
1.632383000000e-06 -1.632383000000e-06 7.618456000000e-04
-1.632383000000e-06 1.632383000000e-06 7.618456000000e-04
1.632383000000e-06 1.632383000000e-06 7.618456000000e-04
-1.632383000000e-06 -1.632383000000e-06 7.588699000000e-04
1.632383000000e-06 -1.632383000000e-06 7.588699000000e-04
-1.632383000000e-06 1.632383000000e-06 7.588699000000e-04
1.632383000000e-06 1.632383000000e-06 7.588699000000e-04
SCALARS displacement_magnitude float 1
LOOKUP_TABLE default
7.618490976485e-04
7.618490976485e-04
7.618490976485e-04
7.618490976485e-04
7.588734113635e-04
7.588734113635e-04
7.588734113635e-04
7.588734113635e-04
CELL_DATA 1
SCALARS displacement_magnitude float 1
LOOKUP_TABLE default
7.603612545060e-04
SCALARS engineering_strain_norm float 1
LOOKUP_TABLE default
1.355197909082e-05
SCALARS von_mises float 1
LOOKUP_TABLE default
1.265255700000e+00
