# vtk DataFile Version 3.0
CalculiX dynamic block_plane_c3d8 frame 52 t=4.800642000000e-02
ASCII
DATASET UNSTRUCTURED_GRID
POINTS 8 float
-2.500070779290e-01 -2.500070779290e-01 9.278690000000e-03
2.500070779290e-01 -2.500070779290e-01 9.278690000000e-03
-2.500070779290e-01 2.500070779290e-01 9.278690000000e-03
2.500070779290e-01 2.500070779290e-01 9.278690000000e-03
-2.500070779290e-01 -2.500070779290e-01 3.092662100000e-01
2.500070779290e-01 -2.500070779290e-01 3.092662100000e-01
-2.500070779290e-01 2.500070779290e-01 3.092662100000e-01
2.500070779290e-01 2.500070779290e-01 3.092662100000e-01
CELLS 1 9
8 0 1 3 2 4 5 7 6
CELL_TYPES 1
12
POINT_DATA 8
VECTORS displacement float
-7.077929000000e-06 -7.077929000000e-06 -1.072131000000e-02
7.077929000000e-06 -7.077929000000e-06 -1.072131000000e-02
-7.077929000000e-06 7.077929000000e-06 -1.072131000000e-02
7.077929000000e-06 7.077929000000e-06 -1.072131000000e-02
-7.077929000000e-06 -7.077929000000e-06 -1.073379000000e-02
7.077929000000e-06 -7.077929000000e-06 -1.073379000000e-02
-7.077929000000e-06 7.077929000000e-06 -1.073379000000e-02
7.077929000000e-06 7.077929000000e-06 -1.073379000000e-02
SCALARS displacement_magnitude float 1
LOOKUP_TABLE default
1.072131467266e-02
1.072131467266e-02
1.072131467266e-02
1.072131467266e-02
1.073379466723e-02
1.073379466723e-02
1.073379466723e-02
1.073379466723e-02
CELL_DATA 1
SCALARS displacement_magnitude float 1
LOOKUP_TABLE default
1.072755466995e-02
SCALARS engineering_strain_norm float 1
LOOKUP_TABLE default
5.773791237765e-05
SCALARS von_mises float 1
LOOKUP_TABLE default
5.376786000000e+00
