# vtk DataFile Version 3.0
CalculiX dynamic block_plane_c3d8 frame 63 t=7.000642000000e-02
ASCII
DATASET UNSTRUCTURED_GRID
POINTS 8 float
-2.500033999350e-01 -2.500033999350e-01 1.894859400000e-02
2.500033999350e-01 -2.500033999350e-01 1.894859400000e-02
-2.500033999350e-01 2.500033999350e-01 1.894859400000e-02
2.500033999350e-01 2.500033999350e-01 1.894859400000e-02
-2.500033999350e-01 -2.500033999350e-01 3.189436520000e-01
2.500033999350e-01 -2.500033999350e-01 3.189436520000e-01
-2.500033999350e-01 2.500033999350e-01 3.189436520000e-01
2.500033999350e-01 2.500033999350e-01 3.189436520000e-01
CELLS 1 9
8 0 1 3 2 4 5 7 6
CELL_TYPES 1
12
POINT_DATA 8
VECTORS displacement float
-3.399935000000e-06 -3.399935000000e-06 -1.051406000000e-03
3.399935000000e-06 -3.399935000000e-06 -1.051406000000e-03
-3.399935000000e-06 3.399935000000e-06 -1.051406000000e-03
3.399935000000e-06 3.399935000000e-06 -1.051406000000e-03
-3.399935000000e-06 -3.399935000000e-06 -1.056348000000e-03
3.399935000000e-06 -3.399935000000e-06 -1.056348000000e-03
-3.399935000000e-06 3.399935000000e-06 -1.056348000000e-03
3.399935000000e-06 3.399935000000e-06 -1.056348000000e-03
SCALARS displacement_magnitude float 1
LOOKUP_TABLE default
1.051416994323e-03
1.051416994323e-03
1.051416994323e-03
1.051416994323e-03
1.056358942888e-03
1.056358942888e-03
1.056358942888e-03
1.056358942888e-03
CELL_DATA 1
SCALARS displacement_magnitude float 1
LOOKUP_TABLE default
1.053887968606e-03
SCALARS engineering_strain_norm float 1
LOOKUP_TABLE default
2.532343908805e-05
SCALARS von_mises float 1
LOOKUP_TABLE default
2.313236000000e+00
