# vtk DataFile Version 3.0
CalculiX dynamic block_plane_c3d8 frame 30 t=3.569034000000e-02
ASCII
DATASET UNSTRUCTURED_GRID
POINTS 8 float
-2.500232470700e-01 -2.500232470700e-01 3.552230000000e-03
2.500232470700e-01 -2.500232470700e-01 3.552230000000e-03
-2.500232470700e-01 2.500232470700e-01 3.552230000000e-03
2.500232470700e-01 2.500232470700e-01 3.552230000000e-03
-2.500232470700e-01 -2.500232470700e-01 3.034497900000e-01
2.500232470700e-01 -2.500232470700e-01 3.034497900000e-01
-2.500232470700e-01 2.500232470700e-01 3.034497900000e-01
2.500232470700e-01 2.500232470700e-01 3.034497900000e-01
CELLS 1 9
8 0 1 3 2 4 5 7 6
CELL_TYPES 1
12
POINT_DATA 8
VECTORS displacement float
-2.324707000000e-05 -2.324707000000e-05 -1.644777000000e-02
2.324707000000e-05 -2.324707000000e-05 -1.644777000000e-02
-2.324707000000e-05 2.324707000000e-05 -1.644777000000e-02
2.324707000000e-05 2.324707000000e-05 -1.644777000000e-02
-2.324707000000e-05 -2.324707000000e-05 -1.655021000000e-02
2.324707000000e-05 -2.324707000000e-05 -1.655021000000e-02
-2.324707000000e-05 2.324707000000e-05 -1.655021000000e-02
2.324707000000e-05 2.324707000000e-05 -1.655021000000e-02
SCALARS displacement_magnitude float 1
LOOKUP_TABLE default
1.644780285708e-02
1.644780285708e-02
1.644780285708e-02
1.644780285708e-02
1.655024265371e-02
1.655024265371e-02
1.655024265371e-02
1.655024265371e-02
CELL_DATA 1
SCALARS displacement_magnitude float 1
LOOKUP_TABLE default
1.649902275540e-02
SCALARS engineering_strain_norm float 1
LOOKUP_TABLE default
3.659140949446e-04
SCALARS von_mises float 1
LOOKUP_TABLE default
3.339659600000e+01
