# vtk DataFile Version 3.0
CalculiX dynamic block_plane_c3d8 frame 43 t=4.101907000000e-02
ASCII
DATASET UNSTRUCTURED_GRID
POINTS 8 float
-2.499996831771e-01 -2.499996831771e-01 5.205420000000e-03
2.499996831771e-01 -2.499996831771e-01 5.205420000000e-03
-2.499996831771e-01 2.499996831771e-01 5.205420000000e-03
2.499996831771e-01 2.499996831771e-01 5.205420000000e-03
-2.499996831771e-01 -2.499996831771e-01 3.052076600000e-01
2.499996831771e-01 -2.499996831771e-01 3.052076600000e-01
-2.499996831771e-01 2.499996831771e-01 3.052076600000e-01
2.499996831771e-01 2.499996831771e-01 3.052076600000e-01
CELLS 1 9
8 0 1 3 2 4 5 7 6
CELL_TYPES 1
12
POINT_DATA 8
VECTORS displacement float
3.168229000000e-07 3.168229000000e-07 -1.479458000000e-02
-3.168229000000e-07 3.168229000000e-07 -1.479458000000e-02
3.168229000000e-07 -3.168229000000e-07 -1.479458000000e-02
-3.168229000000e-07 -3.168229000000e-07 -1.479458000000e-02
3.168229000000e-07 3.168229000000e-07 -1.479234000000e-02
-3.168229000000e-07 3.168229000000e-07 -1.479234000000e-02
3.168229000000e-07 -3.168229000000e-07 -1.479234000000e-02
-3.168229000000e-07 -3.168229000000e-07 -1.479234000000e-02
SCALARS displacement_magnitude float 1
LOOKUP_TABLE default
1.479458000678e-02
1.479458000678e-02
1.479458000678e-02
1.479458000678e-02
1.479234000679e-02
1.479234000679e-02
1.479234000679e-02
1.479234000679e-02
CELL_DATA 1
SCALARS displacement_magnitude float 1
LOOKUP_TABLE default
1.479346000679e-02
SCALARS engineering_strain_norm float 1
LOOKUP_TABLE default
7.678747756639e-06
SCALARS von_mises float 1
LOOKUP_TABLE default
6.711516000000e-01
