# vtk DataFile Version 3.0
CalculiX dynamic block_plane_c3d8 frame 57 t=5.800642000000e-02
ASCII
DATASET UNSTRUCTURED_GRID
POINTS 8 float
-2.500023392860e-01 -2.500023392860e-01 1.426033400000e-02
2.500023392860e-01 -2.500023392860e-01 1.426033400000e-02
-2.500023392860e-01 2.500023392860e-01 1.426033400000e-02
2.500023392860e-01 2.500023392860e-01 1.426033400000e-02
-2.500023392860e-01 -2.500023392860e-01 3.142560150000e-01
2.500023392860e-01 -2.500023392860e-01 3.142560150000e-01
-2.500023392860e-01 2.500023392860e-01 3.142560150000e-01
2.500023392860e-01 2.500023392860e-01 3.142560150000e-01
CELLS 1 9
8 0 1 3 2 4 5 7 6
CELL_TYPES 1
12
POINT_DATA 8
VECTORS displacement float
-2.339286000000e-06 -2.339286000000e-06 -5.739666000000e-03
2.339286000000e-06 -2.339286000000e-06 -5.739666000000e-03
-2.339286000000e-06 2.339286000000e-06 -5.739666000000e-03
2.339286000000e-06 2.339286000000e-06 -5.739666000000e-03
-2.339286000000e-06 -2.339286000000e-06 -5.743985000000e-03
2.339286000000e-06 -2.339286000000e-06 -5.743985000000e-03
-2.339286000000e-06 2.339286000000e-06 -5.743985000000e-03
2.339286000000e-06 2.339286000000e-06 -5.743985000000e-03
SCALARS displacement_magnitude float 1
LOOKUP_TABLE default
5.739666953411e-03
5.739666953411e-03
5.739666953411e-03
5.739666953411e-03
5.743985952694e-03
5.743985952694e-03
5.743985952694e-03
5.743985952694e-03
CELL_DATA 1
SCALARS displacement_magnitude float 1
LOOKUP_TABLE default
5.741826453052e-03
SCALARS engineering_strain_norm float 1
LOOKUP_TABLE default
1.955444447650e-05
SCALARS von_mises float 1
LOOKUP_TABLE default
1.827227300000e+00
