# vtk DataFile Version 3.0
CalculiX dynamic block_plane_c3d8 frame 53 t=5.000642000000e-02
ASCII
DATASET UNSTRUCTURED_GRID
POINTS 8 float
-2.499960846600e-01 -2.499960846600e-01 1.034441500000e-02
2.499960846600e-01 -2.499960846600e-01 1.034441500000e-02
-2.499960846600e-01 2.499960846600e-01 1.034441500000e-02
2.499960846600e-01 2.499960846600e-01 1.034441500000e-02
-2.499960846600e-01 -2.499960846600e-01 3.103517350000e-01
2.499960846600e-01 -2.499960846600e-01 3.103517350000e-01
-2.499960846600e-01 2.499960846600e-01 3.103517350000e-01
2.499960846600e-01 2.499960846600e-01 3.103517350000e-01
CELLS 1 9
8 0 1 3 2 4 5 7 6
CELL_TYPES 1
12
POINT_DATA 8
VECTORS displacement float
3.915340000000e-06 3.915340000000e-06 -9.655585000000e-03
-3.915340000000e-06 3.915340000000e-06 -9.655585000000e-03
3.915340000000e-06 -3.915340000000e-06 -9.655585000000e-03
-3.915340000000e-06 -3.915340000000e-06 -9.655585000000e-03
3.915340000000e-06 3.915340000000e-06 -9.648265000000e-03
-3.915340000000e-06 3.915340000000e-06 -9.648265000000e-03
3.915340000000e-06 -3.915340000000e-06 -9.648265000000e-03
-3.915340000000e-06 -3.915340000000e-06 -9.648265000000e-03
SCALARS displacement_magnitude float 1
LOOKUP_TABLE default
9.655586587670e-03
9.655586587670e-03
9.655586587670e-03
9.655586587670e-03
9.648266588875e-03
9.648266588875e-03
9.648266588875e-03
9.648266588875e-03
CELL_DATA 1
SCALARS displacement_magnitude float 1
LOOKUP_TABLE default
9.651926588273e-03
SCALARS engineering_strain_norm float 1
LOOKUP_TABLE default
3.295324557762e-05
SCALARS von_mises float 1
LOOKUP_TABLE default
3.081854000000e+00
