# vtk DataFile Version 3.0
CalculiX dynamic block_plane_c3d8 frame 10 t=2.200000000000e-02
ASCII
DATASET UNSTRUCTURED_GRID
POINTS 8 float
-2.500000000000e-01 -2.500000000000e-01 1.102598000000e-02
2.500000000000e-01 -2.500000000000e-01 1.102598000000e-02
-2.500000000000e-01 2.500000000000e-01 1.102598000000e-02
2.500000000000e-01 2.500000000000e-01 1.102598000000e-02
-2.500000000000e-01 -2.500000000000e-01 3.110259800000e-01
2.500000000000e-01 -2.500000000000e-01 3.110259800000e-01
-2.500000000000e-01 2.500000000000e-01 3.110259800000e-01
2.500000000000e-01 2.500000000000e-01 3.110259800000e-01
CELLS 1 9
8 0 1 3 2 4 5 7 6
CELL_TYPES 1
12
POINT_DATA 8
VECTORS displacement float
1.664153000000e-19 6.568331000000e-19 -8.974020000000e-03
7.988397000000e-20 4.201025000000e-19 -8.974020000000e-03
-1.955351000000e-19 6.671157000000e-19 -8.974020000000e-03
1.960747000000e-19 9.732878000000e-19 -8.974020000000e-03
1.380778000000e-20 -5.832708000000e-19 -8.974020000000e-03
-2.598359000000e-19 -5.170645000000e-19 -8.974020000000e-03
-7.950651000000e-21 -7.404912000000e-19 -8.974020000000e-03
7.737065000000e-21 -8.761850000000e-19 -8.974020000000e-03
SCALARS displacement_magnitude float 1
LOOKUP_TABLE default
8.974020000000e-03
8.974020000000e-03
8.974020000000e-03
8.974020000000e-03
8.974020000000e-03
8.974020000000e-03
8.974020000000e-03
8.974020000000e-03
CELL_DATA 1
SCALARS displacement_magnitude float 1
LOOKUP_TABLE default
8.974020000000e-03
SCALARS engineering_strain_norm float 1
LOOKUP_TABLE default
4.866997435074e-18
SCALARS von_mises float 1
LOOKUP_TABLE default
8.288721460706e-14
