# vtk DataFile Version 3.0
CalculiX dynamic block_plane_c3d8 frame 59 t=6.200642000000e-02
ASCII
DATASET UNSTRUCTURED_GRID
POINTS 8 float
-2.499956616100e-01 -2.499956616100e-01 1.597497800000e-02
2.499956616100e-01 -2.499956616100e-01 1.597497800000e-02
-2.499956616100e-01 2.499956616100e-01 1.597497800000e-02
2.499956616100e-01 2.499956616100e-01 1.597497800000e-02
-2.499956616100e-01 -2.499956616100e-01 3.159805900000e-01
2.499956616100e-01 -2.499956616100e-01 3.159805900000e-01
-2.499956616100e-01 2.499956616100e-01 3.159805900000e-01
2.499956616100e-01 2.499956616100e-01 3.159805900000e-01
CELLS 1 9
8 0 1 3 2 4 5 7 6
CELL_TYPES 1
12
POINT_DATA 8
VECTORS displacement float
4.338390000000e-06 4.338390000000e-06 -4.025022000000e-03
-4.338390000000e-06 4.338390000000e-06 -4.025022000000e-03
4.338390000000e-06 -4.338390000000e-06 -4.025022000000e-03
-4.338390000000e-06 -4.338390000000e-06 -4.025022000000e-03
4.338390000000e-06 4.338390000000e-06 -4.019410000000e-03
-4.338390000000e-06 4.338390000000e-06 -4.019410000000e-03
4.338390000000e-06 -4.338390000000e-06 -4.019410000000e-03
-4.338390000000e-06 -4.338390000000e-06 -4.019410000000e-03
SCALARS displacement_magnitude float 1
LOOKUP_TABLE default
4.025026676153e-03
4.025026676153e-03
4.025026676153e-03
4.025026676153e-03
4.019414682681e-03
4.019414682681e-03
4.019414682681e-03
4.019414682681e-03
CELL_DATA 1
SCALARS displacement_magnitude float 1
LOOKUP_TABLE default
4.022220679417e-03
SCALARS engineering_strain_norm float 1
LOOKUP_TABLE default
3.085824795942e-05
SCALARS von_mises float 1
LOOKUP_TABLE default
2.774020400000e+00
