# vtk DataFile Version 3.0
CalculiX dynamic block_plane_c3d8 frame 42 t=4.095157000000e-02
ASCII
DATASET UNSTRUCTURED_GRID
POINTS 8 float
-2.500011472510e-01 -2.500011472510e-01 5.164690000000e-03
2.500011472510e-01 -2.500011472510e-01 5.164690000000e-03
-2.500011472510e-01 2.500011472510e-01 5.164690000000e-03
2.500011472510e-01 2.500011472510e-01 5.164690000000e-03
-2.500011472510e-01 -2.500011472510e-01 3.051651600000e-01
2.500011472510e-01 -2.500011472510e-01 3.051651600000e-01
-2.500011472510e-01 2.500011472510e-01 3.051651600000e-01
2.500011472510e-01 2.500011472510e-01 3.051651600000e-01
CELLS 1 9
8 0 1 3 2 4 5 7 6
CELL_TYPES 1
12
POINT_DATA 8
VECTORS displacement float
-1.147251000000e-06 -1.147251000000e-06 -1.483531000000e-02
1.147251000000e-06 -1.147251000000e-06 -1.483531000000e-02
-1.147251000000e-06 1.147251000000e-06 -1.483531000000e-02
1.147251000000e-06 1.147251000000e-06 -1.483531000000e-02
-1.147251000000e-06 -1.147251000000e-06 -1.483484000000e-02
1.147251000000e-06 -1.147251000000e-06 -1.483484000000e-02
-1.147251000000e-06 1.147251000000e-06 -1.483484000000e-02
1.147251000000e-06 1.147251000000e-06 -1.483484000000e-02
SCALARS displacement_magnitude float 1
LOOKUP_TABLE default
1.483531008872e-02
1.483531008872e-02
1.483531008872e-02
1.483531008872e-02
1.483484008872e-02
1.483484008872e-02
1.483484008872e-02
1.483484008872e-02
CELL_DATA 1
SCALARS displacement_magnitude float 1
LOOKUP_TABLE default
1.483507508872e-02
SCALARS engineering_strain_norm float 1
LOOKUP_TABLE default
6.676253430516e-06
SCALARS von_mises float 1
LOOKUP_TABLE default
2.322159000000e-01
