# vtk DataFile Version 3.0
CalculiX dynamic block_plane_c3d8 frame 12 t=2.600000000000e-02
ASCII
DATASET UNSTRUCTURED_GRID
POINTS 8 float
-2.500000000000e-01 -2.500000000000e-01 8.884220000000e-03
2.500000000000e-01 -2.500000000000e-01 8.884220000000e-03
-2.500000000000e-01 2.500000000000e-01 8.884220000000e-03
2.500000000000e-01 2.500000000000e-01 8.884220000000e-03
-2.500000000000e-01 -2.500000000000e-01 3.088842200000e-01
2.500000000000e-01 -2.500000000000e-01 3.088842200000e-01
-2.500000000000e-01 2.500000000000e-01 3.088842200000e-01
2.500000000000e-01 2.500000000000e-01 3.088842200000e-01
CELLS 1 9
8 0 1 3 2 4 5 7 6
CELL_TYPES 1
12
POINT_DATA 8
VECTORS displacement float
3.031024000000e-19 4.141094000000e-19 -1.111578000000e-02
-9.876726000000e-20 7.637039000000e-19 -1.111578000000e-02
-1.545058000000e-19 6.529018000000e-19 -1.111578000000e-02
8.645540000000e-20 2.778866000000e-19 -1.111578000000e-02
1.358270000000e-19 -4.113539000000e-19 -1.111578000000e-02
-3.398329000000e-19 -6.460870000000e-19 -1.111578000000e-02
-1.638948000000e-19 -6.554285000000e-19 -1.111578000000e-02
2.323270000000e-19 -3.953424000000e-19 -1.111578000000e-02
SCALARS displacement_magnitude float 1
LOOKUP_TABLE default
1.111578000000e-02
1.111578000000e-02
1.111578000000e-02
1.111578000000e-02
1.111578000000e-02
1.111578000000e-02
1.111578000000e-02
1.111578000000e-02
CELL_DATA 1
SCALARS displacement_magnitude float 1
LOOKUP_TABLE default
1.111578000000e-02
SCALARS engineering_strain_norm float 1
LOOKUP_TABLE default
4.946265840792e-18
SCALARS von_mises float 1
LOOKUP_TABLE default
3.133694220940e-13
