# vtk DataFile Version 3.0
CalculiX dynamic block_plane_c3d8 frame 62 t=6.800642000000e-02
ASCII
DATASET UNSTRUCTURED_GRID
POINTS 8 float
-2.499982559160e-01 -2.499982559160e-01 1.826152800000e-02
2.499982559160e-01 -2.499982559160e-01 1.826152800000e-02
-2.499982559160e-01 2.499982559160e-01 1.826152800000e-02
2.499982559160e-01 2.499982559160e-01 1.826152800000e-02
-2.499982559160e-01 -2.499982559160e-01 3.182642690000e-01
2.499982559160e-01 -2.499982559160e-01 3.182642690000e-01
-2.499982559160e-01 2.499982559160e-01 3.182642690000e-01
2.499982559160e-01 2.499982559160e-01 3.182642690000e-01
CELLS 1 9
8 0 1 3 2 4 5 7 6
CELL_TYPES 1
12
POINT_DATA 8
VECTORS displacement float
1.744084000000e-06 1.744084000000e-06 -1.738472000000e-03
-1.744084000000e-06 1.744084000000e-06 -1.738472000000e-03
1.744084000000e-06 -1.744084000000e-06 -1.738472000000e-03
-1.744084000000e-06 -1.744084000000e-06 -1.738472000000e-03
1.744084000000e-06 1.744084000000e-06 -1.735731000000e-03
-1.744084000000e-06 1.744084000000e-06 -1.735731000000e-03
1.744084000000e-06 -1.744084000000e-06 -1.735731000000e-03
-1.744084000000e-06 -1.744084000000e-06 -1.735731000000e-03
SCALARS displacement_magnitude float 1
LOOKUP_TABLE default
1.738473749713e-03
1.738473749713e-03
1.738473749713e-03
1.738473749713e-03
1.735732752476e-03
1.735732752476e-03
1.735732752476e-03
1.735732752476e-03
CELL_DATA 1
SCALARS displacement_magnitude float 1
LOOKUP_TABLE default
1.737103251095e-03
SCALARS engineering_strain_norm float 1
LOOKUP_TABLE default
1.344682883611e-05
SCALARS von_mises float 1
LOOKUP_TABLE default
1.239481400000e+00
