# vtk DataFile Version 3.0
CalculiX dynamic block_plane_c3d8 frame 23 t=3.358945000000e-02
ASCII
DATASET UNSTRUCTURED_GRID
POINTS 8 float
-2.500055792240e-01 -2.500055792240e-01 4.425770000000e-03
2.500055792240e-01 -2.500055792240e-01 4.425770000000e-03
-2.500055792240e-01 2.500055792240e-01 4.425770000000e-03
2.500055792240e-01 2.500055792240e-01 4.425770000000e-03
-2.500055792240e-01 -2.500055792240e-01 3.043846200000e-01
2.500055792240e-01 -2.500055792240e-01 3.043846200000e-01
-2.500055792240e-01 2.500055792240e-01 3.043846200000e-01
2.500055792240e-01 2.500055792240e-01 3.043846200000e-01
CELLS 1 9
8 0 1 3 2 4 5 7 6
CELL_TYPES 1
12
POINT_DATA 8
VECTORS displacement float
-5.579224000000e-06 -5.579224000000e-06 -1.557423000000e-02
5.579224000000e-06 -5.579224000000e-06 -1.557423000000e-02
-5.579224000000e-06 5.579224000000e-06 -1.557423000000e-02
5.579224000000e-06 5.579224000000e-06 -1.557423000000e-02
-5.579224000000e-06 -5.579224000000e-06 -1.561538000000e-02
5.579224000000e-06 -5.579224000000e-06 -1.561538000000e-02
-5.579224000000e-06 5.579224000000e-06 -1.561538000000e-02
5.579224000000e-06 5.579224000000e-06 -1.561538000000e-02
SCALARS displacement_magnitude float 1
LOOKUP_TABLE default
1.557423199867e-02
1.557423199867e-02
1.557423199867e-02
1.557423199867e-02
1.561538199340e-02
1.561538199340e-02
1.561538199340e-02
1.561538199340e-02
CELL_DATA 1
SCALARS displacement_magnitude float 1
LOOKUP_TABLE default
1.559480699604e-02
SCALARS engineering_strain_norm float 1
LOOKUP_TABLE default
1.407507802415e-04
SCALARS von_mises float 1
LOOKUP_TABLE default
1.226286500000e+01
