# vtk DataFile Version 3.0
CalculiX dynamic block_plane_c3d8 frame 39 t=4.085657000000e-02
ASCII
DATASET UNSTRUCTURED_GRID
POINTS 8 float
-2.500031133420e-01 -2.500031133420e-01 5.107400000000e-03
2.500031133420e-01 -2.500031133420e-01 5.107400000000e-03
-2.500031133420e-01 2.500031133420e-01 5.107400000000e-03
2.500031133420e-01 2.500031133420e-01 5.107400000000e-03
-2.500031133420e-01 -2.500031133420e-01 3.051051700000e-01
2.500031133420e-01 -2.500031133420e-01 3.051051700000e-01
-2.500031133420e-01 2.500031133420e-01 3.051051700000e-01
2.500031133420e-01 2.500031133420e-01 3.051051700000e-01
CELLS 1 9
8 0 1 3 2 4 5 7 6
CELL_TYPES 1
12
POINT_DATA 8
VECTORS displacement float
-3.113342000000e-06 -3.113342000000e-06 -1.489260000000e-02
3.113342000000e-06 -3.113342000000e-06 -1.489260000000e-02
-3.113342000000e-06 3.113342000000e-06 -1.489260000000e-02
3.113342000000e-06 3.113342000000e-06 -1.489260000000e-02
-3.113342000000e-06 -3.113342000000e-06 -1.489483000000e-02
3.113342000000e-06 -3.113342000000e-06 -1.489483000000e-02
-3.113342000000e-06 3.113342000000e-06 -1.489483000000e-02
3.113342000000e-06 3.113342000000e-06 -1.489483000000e-02
SCALARS displacement_magnitude float 1
LOOKUP_TABLE default
1.489260065085e-02
1.489260065085e-02
1.489260065085e-02
1.489260065085e-02
1.489483065076e-02
1.489483065076e-02
1.489483065076e-02
1.489483065076e-02
CELL_DATA 1
SCALARS displacement_magnitude float 1
LOOKUP_TABLE default
1.489371565080e-02
SCALARS engineering_strain_norm float 1
LOOKUP_TABLE default
1.911615007085e-05
SCALARS von_mises float 1
LOOKUP_TABLE default
1.530624300000e+00
