# vtk DataFile Version 3.0
CalculiX dynamic block_plane_c3d8 frame 56 t=5.600642000000e-02
ASCII
DATASET UNSTRUCTURED_GRID
POINTS 8 float
-2.499946264700e-01 -2.499946264700e-01 1.333525700000e-02
2.499946264700e-01 -2.499946264700e-01 1.333525700000e-02
-2.499946264700e-01 2.499946264700e-01 1.333525700000e-02
2.499946264700e-01 2.499946264700e-01 1.333525700000e-02
-2.499946264700e-01 -2.499946264700e-01 3.133437610000e-01
2.499946264700e-01 -2.499946264700e-01 3.133437610000e-01
-2.499946264700e-01 2.499946264700e-01 3.133437610000e-01
2.499946264700e-01 2.499946264700e-01 3.133437610000e-01
CELLS 1 9
8 0 1 3 2 4 5 7 6
CELL_TYPES 1
12
POINT_DATA 8
VECTORS displacement float
5.373530000000e-06 5.373530000000e-06 -6.664743000000e-03
-5.373530000000e-06 5.373530000000e-06 -6.664743000000e-03
5.373530000000e-06 -5.373530000000e-06 -6.664743000000e-03
-5.373530000000e-06 -5.373530000000e-06 -6.664743000000e-03
5.373530000000e-06 5.373530000000e-06 -6.656239000000e-03
-5.373530000000e-06 5.373530000000e-06 -6.656239000000e-03
5.373530000000e-06 -5.373530000000e-06 -6.656239000000e-03
-5.373530000000e-06 -5.373530000000e-06 -6.656239000000e-03
SCALARS displacement_magnitude float 1
LOOKUP_TABLE default
6.664747332472e-03
6.664747332472e-03
6.664747332472e-03
6.664747332472e-03
6.656243338008e-03
6.656243338008e-03
6.656243338008e-03
6.656243338008e-03
CELL_DATA 1
SCALARS displacement_magnitude float 1
LOOKUP_TABLE default
6.660495335240e-03
SCALARS engineering_strain_norm float 1
LOOKUP_TABLE default
4.156354051642e-05
SCALARS von_mises float 1
LOOKUP_TABLE default
3.833970000000e+00
