# vtk DataFile Version 3.0
CalculiX dynamic block_plane_c3d8 frame 21 t=3.320513000000e-02
ASCII
DATASET UNSTRUCTURED_GRID
POINTS 8 float
-2.500008272398e-01 -2.500008272398e-01 4.641690000000e-03
2.500008272398e-01 -2.500008272398e-01 4.641690000000e-03
-2.500008272398e-01 2.500008272398e-01 4.641690000000e-03
2.500008272398e-01 2.500008272398e-01 4.641690000000e-03
-2.500008272398e-01 -2.500008272398e-01 3.046264100000e-01
2.500008272398e-01 -2.500008272398e-01 3.046264100000e-01
-2.500008272398e-01 2.500008272398e-01 3.046264100000e-01
2.500008272398e-01 2.500008272398e-01 3.046264100000e-01
CELLS 1 9
8 0 1 3 2 4 5 7 6
CELL_TYPES 1
12
POINT_DATA 8
VECTORS displacement float
-8.272398000000e-07 -8.272398000000e-07 -1.535831000000e-02
8.272398000000e-07 -8.272398000000e-07 -1.535831000000e-02
-8.272398000000e-07 8.272398000000e-07 -1.535831000000e-02
8.272398000000e-07 8.272398000000e-07 -1.535831000000e-02
-8.272398000000e-07 -8.272398000000e-07 -1.537359000000e-02
8.272398000000e-07 -8.272398000000e-07 -1.537359000000e-02
-8.272398000000e-07 8.272398000000e-07 -1.537359000000e-02
8.272398000000e-07 8.272398000000e-07 -1.537359000000e-02
SCALARS displacement_magnitude float 1
LOOKUP_TABLE default
1.535831004456e-02
1.535831004456e-02
1.535831004456e-02
1.535831004456e-02
1.537359004451e-02
1.537359004451e-02
1.537359004451e-02
1.537359004451e-02
CELL_DATA 1
SCALARS displacement_magnitude float 1
LOOKUP_TABLE default
1.536595004454e-02
SCALARS engineering_strain_norm float 1
LOOKUP_TABLE default
5.114785299911e-05
SCALARS von_mises float 1
LOOKUP_TABLE default
4.173315000000e+00
