# vtk DataFile Version 3.0
CalculiX dynamic block_plane_c3d8 frame 50 t=4.427647000000e-02
ASCII
DATASET UNSTRUCTURED_GRID
POINTS 8 float
-2.499990228554e-01 -2.499990228554e-01 7.161510000000e-03
2.499990228554e-01 -2.499990228554e-01 7.161510000000e-03
-2.499990228554e-01 2.499990228554e-01 7.161510000000e-03
2.499990228554e-01 2.499990228554e-01 7.161510000000e-03
-2.499990228554e-01 -2.499990228554e-01 3.071617000000e-01
2.499990228554e-01 -2.499990228554e-01 3.071617000000e-01
-2.499990228554e-01 2.499990228554e-01 3.071617000000e-01
2.499990228554e-01 2.499990228554e-01 3.071617000000e-01
CELLS 1 9
8 0 1 3 2 4 5 7 6
CELL_TYPES 1
12
POINT_DATA 8
VECTORS displacement float
9.771446000000e-07 9.771446000000e-07 -1.283849000000e-02
-9.771446000000e-07 9.771446000000e-07 -1.283849000000e-02
9.771446000000e-07 -9.771446000000e-07 -1.283849000000e-02
-9.771446000000e-07 -9.771446000000e-07 -1.283849000000e-02
9.771446000000e-07 9.771446000000e-07 -1.283830000000e-02
-9.771446000000e-07 9.771446000000e-07 -1.283830000000e-02
9.771446000000e-07 -9.771446000000e-07 -1.283830000000e-02
-9.771446000000e-07 -9.771446000000e-07 -1.283830000000e-02
SCALARS displacement_magnitude float 1
LOOKUP_TABLE default
1.283849007437e-02
1.283849007437e-02
1.283849007437e-02
1.283849007437e-02
1.283830007437e-02
1.283830007437e-02
1.283830007437e-02
1.283830007437e-02
CELL_DATA 1
SCALARS displacement_magnitude float 1
LOOKUP_TABLE default
1.283839507437e-02
SCALARS engineering_strain_norm float 1
LOOKUP_TABLE default
5.563729084796e-06
SCALARS von_mises float 1
LOOKUP_TABLE default
3.488484000000e-01
