# vtk DataFile Version 3.0
CalculiX dynamic block_plane_c3d8 frame 54 t=5.200642000000e-02
ASCII
DATASET UNSTRUCTURED_GRID
POINTS 8 float
-2.499987051450e-01 -2.499987051450e-01 1.138389300000e-02
2.499987051450e-01 -2.499987051450e-01 1.138389300000e-02
-2.499987051450e-01 2.499987051450e-01 1.138389300000e-02
2.499987051450e-01 2.499987051450e-01 1.138389300000e-02
-2.499987051450e-01 -2.499987051450e-01 3.113850260000e-01
2.499987051450e-01 -2.499987051450e-01 3.113850260000e-01
-2.499987051450e-01 2.499987051450e-01 3.113850260000e-01
2.499987051450e-01 2.499987051450e-01 3.113850260000e-01
CELLS 1 9
8 0 1 3 2 4 5 7 6
CELL_TYPES 1
12
POINT_DATA 8
VECTORS displacement float
1.294855000000e-06 1.294855000000e-06 -8.616107000000e-03
-1.294855000000e-06 1.294855000000e-06 -8.616107000000e-03
1.294855000000e-06 -1.294855000000e-06 -8.616107000000e-03
-1.294855000000e-06 -1.294855000000e-06 -8.616107000000e-03
1.294855000000e-06 1.294855000000e-06 -8.614974000000e-03
-1.294855000000e-06 1.294855000000e-06 -8.614974000000e-03
1.294855000000e-06 -1.294855000000e-06 -8.614974000000e-03
-1.294855000000e-06 -1.294855000000e-06 -8.614974000000e-03
SCALARS displacement_magnitude float 1
LOOKUP_TABLE default
8.616107194595e-03
8.616107194595e-03
8.616107194595e-03
8.616107194595e-03
8.614974194620e-03
8.614974194620e-03
8.614974194620e-03
8.614974194620e-03
CELL_DATA 1
SCALARS displacement_magnitude float 1
LOOKUP_TABLE default
8.615540694608e-03
SCALARS engineering_strain_norm float 1
LOOKUP_TABLE default
8.241116076353e-06
SCALARS von_mises float 1
LOOKUP_TABLE default
6.889972000000e-01
