# vtk DataFile Version 3.0
CalculiX dynamic block_plane_c3d8 frame 61 t=6.600642000000e-02
ASCII
DATASET UNSTRUCTURED_GRID
POINTS 8 float
-2.499986304800e-01 -2.499986304800e-01 1.753962000000e-02
2.499986304800e-01 -2.499986304800e-01 1.753962000000e-02
-2.499986304800e-01 2.499986304800e-01 1.753962000000e-02
2.499986304800e-01 2.499986304800e-01 1.753962000000e-02
-2.499986304800e-01 -2.499986304800e-01 3.175412470000e-01
2.499986304800e-01 -2.499986304800e-01 3.175412470000e-01
-2.499986304800e-01 2.499986304800e-01 3.175412470000e-01
2.499986304800e-01 2.499986304800e-01 3.175412470000e-01
CELLS 1 9
8 0 1 3 2 4 5 7 6
CELL_TYPES 1
12
POINT_DATA 8
VECTORS displacement float
1.369520000000e-06 1.369520000000e-06 -2.460380000000e-03
-1.369520000000e-06 1.369520000000e-06 -2.460380000000e-03
1.369520000000e-06 -1.369520000000e-06 -2.460380000000e-03
-1.369520000000e-06 -1.369520000000e-06 -2.460380000000e-03
1.369520000000e-06 1.369520000000e-06 -2.458753000000e-03
-1.369520000000e-06 1.369520000000e-06 -2.458753000000e-03
1.369520000000e-06 -1.369520000000e-06 -2.458753000000e-03
-1.369520000000e-06 -1.369520000000e-06 -2.458753000000e-03
SCALARS displacement_magnitude float 1
LOOKUP_TABLE default
2.460380762315e-03
2.460380762315e-03
2.460380762315e-03
2.460380762315e-03
2.458753762820e-03
2.458753762820e-03
2.458753762820e-03
2.458753762820e-03
CELL_DATA 1
SCALARS displacement_magnitude float 1
LOOKUP_TABLE default
2.459567262567e-03
SCALARS engineering_strain_norm float 1
LOOKUP_TABLE default
9.456810530894e-06
SCALARS von_mises float 1
LOOKUP_TABLE default
8.387582800000e-01
