# vtk DataFile Version 3.0
CalculiX dynamic block_plane_c3d8 frame 49 t=4.312317000000e-02
ASCII
DATASET UNSTRUCTURED_GRID
POINTS 8 float
-2.500083305370e-01 -2.500083305370e-01 6.487750000000e-03
2.500083305370e-01 -2.500083305370e-01 6.487750000000e-03
-2.500083305370e-01 2.500083305370e-01 6.487750000000e-03
2.500083305370e-01 2.500083305370e-01 6.487750000000e-03
-2.500083305370e-01 -2.500083305370e-01 3.064748700000e-01
2.500083305370e-01 -2.500083305370e-01 3.064748700000e-01
-2.500083305370e-01 2.500083305370e-01 3.064748700000e-01
2.500083305370e-01 2.500083305370e-01 3.064748700000e-01
CELLS 1 9
8 0 1 3 2 4 5 7 6
CELL_TYPES 1
12
POINT_DATA 8
VECTORS displacement float
-8.330537000000e-06 -8.330537000000e-06 -1.351225000000e-02
8.330537000000e-06 -8.330537000000e-06 -1.351225000000e-02
-8.330537000000e-06 8.330537000000e-06 -1.351225000000e-02
8.330537000000e-06 8.330537000000e-06 -1.351225000000e-02
-8.330537000000e-06 -8.330537000000e-06 -1.352513000000e-02
8.330537000000e-06 -8.330537000000e-06 -1.352513000000e-02
-8.330537000000e-06 8.330537000000e-06 -1.352513000000e-02
8.330537000000e-06 8.330537000000e-06 -1.352513000000e-02
SCALARS displacement_magnitude float 1
LOOKUP_TABLE default
1.351225513592e-02
1.351225513592e-02
1.351225513592e-02
1.351225513592e-02
1.352513513103e-02
1.352513513103e-02
1.352513513103e-02
1.352513513103e-02
CELL_DATA 1
SCALARS displacement_magnitude float 1
LOOKUP_TABLE default
1.351869513347e-02
SCALARS engineering_strain_norm float 1
LOOKUP_TABLE default
6.374952710240e-05
SCALARS von_mises float 1
LOOKUP_TABLE default
5.865789000000e+00
