# vtk DataFile Version 3.0
CalculiX dynamic block_plane_c3d8 frame 27 t=3.461718000000e-02
ASCII
DATASET UNSTRUCTURED_GRID
POINTS 8 float
-2.500281952300e-01 -2.500281952300e-01 3.913880000000e-03
2.500281952300e-01 -2.500281952300e-01 3.913880000000e-03
-2.500281952300e-01 2.500281952300e-01 3.913880000000e-03
2.500281952300e-01 2.500281952300e-01 3.913880000000e-03
-2.500281952300e-01 -2.500281952300e-01 3.038246400000e-01
2.500281952300e-01 -2.500281952300e-01 3.038246400000e-01
-2.500281952300e-01 2.500281952300e-01 3.038246400000e-01
2.500281952300e-01 2.500281952300e-01 3.038246400000e-01
CELLS 1 9
8 0 1 3 2 4 5 7 6
CELL_TYPES 1
12
POINT_DATA 8
VECTORS displacement float
-2.819523000000e-05 -2.819523000000e-05 -1.608612000000e-02
2.819523000000e-05 -2.819523000000e-05 -1.608612000000e-02
-2.819523000000e-05 2.819523000000e-05 -1.608612000000e-02
2.819523000000e-05 2.819523000000e-05 -1.608612000000e-02
-2.819523000000e-05 -2.819523000000e-05 -1.617536000000e-02
2.819523000000e-05 -2.819523000000e-05 -1.617536000000e-02
-2.819523000000e-05 2.819523000000e-05 -1.617536000000e-02
2.819523000000e-05 2.819523000000e-05 -1.617536000000e-02
SCALARS displacement_magnitude float 1
LOOKUP_TABLE default
1.608616941961e-02
1.608616941961e-02
1.608616941961e-02
1.608616941961e-02
1.617540914696e-02
1.617540914696e-02
1.617540914696e-02
1.617540914696e-02
CELL_DATA 1
SCALARS displacement_magnitude float 1
LOOKUP_TABLE default
1.613078928329e-02
SCALARS engineering_strain_norm float 1
LOOKUP_TABLE default
3.375285019222e-04
SCALARS von_mises float 1
LOOKUP_TABLE default
3.154121300000e+01
