# vtk DataFile Version 3.0
CalculiX dynamic block_plane_c3d8 frame 28 t=3.494140000000e-02
ASCII
DATASET UNSTRUCTURED_GRID
POINTS 8 float
-2.500279962200e-01 -2.500279962200e-01 3.784700000000e-03
2.500279962200e-01 -2.500279962200e-01 3.784700000000e-03
-2.500279962200e-01 2.500279962200e-01 3.784700000000e-03
2.500279962200e-01 2.500279962200e-01 3.784700000000e-03
-2.500279962200e-01 -2.500279962200e-01 3.036826600000e-01
2.500279962200e-01 -2.500279962200e-01 3.036826600000e-01
-2.500279962200e-01 2.500279962200e-01 3.036826600000e-01
2.500279962200e-01 2.500279962200e-01 3.036826600000e-01
CELLS 1 9
8 0 1 3 2 4 5 7 6
CELL_TYPES 1
12
POINT_DATA 8
VECTORS displacement float
-2.799622000000e-05 -2.799622000000e-05 -1.621530000000e-02
2.799622000000e-05 -2.799622000000e-05 -1.621530000000e-02
-2.799622000000e-05 2.799622000000e-05 -1.621530000000e-02
2.799622000000e-05 2.799622000000e-05 -1.621530000000e-02
-2.799622000000e-05 -2.799622000000e-05 -1.631734000000e-02
2.799622000000e-05 -2.799622000000e-05 -1.631734000000e-02
-2.799622000000e-05 2.799622000000e-05 -1.631734000000e-02
2.799622000000e-05 2.799622000000e-05 -1.631734000000e-02
SCALARS displacement_magnitude float 1
LOOKUP_TABLE default
1.621534833627e-02
1.621534833627e-02
1.621534833627e-02
1.621534833627e-02
1.631738803400e-02
1.631738803400e-02
1.631738803400e-02
1.631738803400e-02
CELL_DATA 1
SCALARS displacement_magnitude float 1
LOOKUP_TABLE default
1.626636818514e-02
SCALARS engineering_strain_norm float 1
LOOKUP_TABLE default
3.751958303895e-04
SCALARS von_mises float 1
LOOKUP_TABLE default
3.475687700000e+01
