# vtk DataFile Version 3.0
CalculiX dynamic block_plane_c3d8 frame 60 t=6.400642000000e-02
ASCII
DATASET UNSTRUCTURED_GRID
POINTS 8 float
-2.500040243100e-01 -2.500040243100e-01 1.678139700000e-02
2.500040243100e-01 -2.500040243100e-01 1.678139700000e-02
-2.500040243100e-01 2.500040243100e-01 1.678139700000e-02
2.500040243100e-01 2.500040243100e-01 1.678139700000e-02
-2.500040243100e-01 -2.500040243100e-01 3.167760610000e-01
2.500040243100e-01 -2.500040243100e-01 3.167760610000e-01
-2.500040243100e-01 2.500040243100e-01 3.167760610000e-01
2.500040243100e-01 2.500040243100e-01 3.167760610000e-01
CELLS 1 9
8 0 1 3 2 4 5 7 6
CELL_TYPES 1
12
POINT_DATA 8
VECTORS displacement float
-4.024310000000e-06 -4.024310000000e-06 -3.218603000000e-03
4.024310000000e-06 -4.024310000000e-06 -3.218603000000e-03
-4.024310000000e-06 4.024310000000e-06 -3.218603000000e-03
4.024310000000e-06 4.024310000000e-06 -3.218603000000e-03
-4.024310000000e-06 -4.024310000000e-06 -3.223939000000e-03
4.024310000000e-06 -4.024310000000e-06 -3.223939000000e-03
-4.024310000000e-06 4.024310000000e-06 -3.223939000000e-03
4.024310000000e-06 4.024310000000e-06 -3.223939000000e-03
SCALARS displacement_magnitude float 1
LOOKUP_TABLE default
3.218608031704e-03
3.218608031704e-03
3.218608031704e-03
3.218608031704e-03
3.223944023376e-03
3.223944023376e-03
3.223944023376e-03
3.223944023376e-03
CELL_DATA 1
SCALARS displacement_magnitude float 1
LOOKUP_TABLE default
3.221276027540e-03
SCALARS engineering_strain_norm float 1
LOOKUP_TABLE default
2.888957913065e-05
SCALARS von_mises float 1
LOOKUP_TABLE default
2.606471200000e+00
