# vtk DataFile Version 3.0
CalculiX dynamic block_plane_c3d8 frame 11 t=2.400000000000e-02
ASCII
DATASET UNSTRUCTURED_GRID
POINTS 8 float
-2.500000000000e-01 -2.500000000000e-01 9.974720000000e-03
2.500000000000e-01 -2.500000000000e-01 9.974720000000e-03
-2.500000000000e-01 2.500000000000e-01 9.974720000000e-03
2.500000000000e-01 2.500000000000e-01 9.974720000000e-03
-2.500000000000e-01 -2.500000000000e-01 3.099747200000e-01
2.500000000000e-01 -2.500000000000e-01 3.099747200000e-01
-2.500000000000e-01 2.500000000000e-01 3.099747200000e-01
2.500000000000e-01 2.500000000000e-01 3.099747200000e-01
CELLS 1 9
8 0 1 3 2 4 5 7 6
CELL_TYPES 1
12
POINT_DATA 8
VECTORS displacement float
-3.289387000000e-19 3.542833000000e-19 -1.002528000000e-02
4.442223000000e-19 1.348105000000e-18 -1.002528000000e-02
4.553072000000e-19 8.780256000000e-19 -1.002528000000e-02
-2.128131000000e-19 5.988966000000e-19 -1.002528000000e-02
-9.032296000000e-21 -4.350983000000e-19 -1.002528000000e-02
-1.059538000000e-19 -1.296534000000e-18 -1.002528000000e-02
-1.464311000000e-19 -7.970054000000e-19 -1.002528000000e-02
-9.570659000000e-20 -6.503136000000e-19 -1.002528000000e-02
SCALARS displacement_magnitude float 1
LOOKUP_TABLE default
1.002528000000e-02
1.002528000000e-02
1.002528000000e-02
1.002528000000e-02
1.002528000000e-02
1.002528000000e-02
1.002528000000e-02
1.002528000000e-02
CELL_DATA 1
SCALARS displacement_magnitude float 1
LOOKUP_TABLE default
1.002528000000e-02
SCALARS engineering_strain_norm float 1
LOOKUP_TABLE default
5.332100798917e-18
SCALARS von_mises float 1
LOOKUP_TABLE default
1.249898013658e-13
