# vtk DataFile Version 3.0
CalculiX dynamic block_plane_c3d8 frame 18 t=3.275000000000e-02
ASCII
DATASET UNSTRUCTURED_GRID
POINTS 8 float
-2.500000050833e-01 -2.500000050833e-01 4.914380000000e-03
2.500000050833e-01 -2.500000050833e-01 4.914380000000e-03
-2.500000050833e-01 2.500000050833e-01 4.914380000000e-03
2.500000050833e-01 2.500000050833e-01 4.914380000000e-03
-2.500000050833e-01 -2.500000050833e-01 3.049139400000e-01
2.500000050833e-01 -2.500000050833e-01 3.049139400000e-01
-2.500000050833e-01 2.500000050833e-01 3.049139400000e-01
2.500000050833e-01 2.500000050833e-01 3.049139400000e-01
CELLS 1 9
8 0 1 3 2 4 5 7 6
CELL_TYPES 1
12
POINT_DATA 8
VECTORS displacement float
-5.083294000000e-09 -5.083294000000e-09 -1.508562000000e-02
5.083294000000e-09 -5.083294000000e-09 -1.508562000000e-02
-5.083294000000e-09 5.083294000000e-09 -1.508562000000e-02
5.083294000000e-09 5.083294000000e-09 -1.508562000000e-02
-5.083294000000e-09 -5.083294000000e-09 -1.508606000000e-02
5.083294000000e-09 -5.083294000000e-09 -1.508606000000e-02
-5.083294000000e-09 5.083294000000e-09 -1.508606000000e-02
5.083294000000e-09 5.083294000000e-09 -1.508606000000e-02
SCALARS displacement_magnitude float 1
LOOKUP_TABLE default
1.508562000000e-02
1.508562000000e-02
1.508562000000e-02
1.508562000000e-02
1.508606000000e-02
1.508606000000e-02
1.508606000000e-02
1.508606000000e-02
CELL_DATA 1
SCALARS displacement_magnitude float 1
LOOKUP_TABLE default
1.508584000000e-02
SCALARS engineering_strain_norm float 1
LOOKUP_TABLE default
1.466948529161e-06
SCALARS von_mises float 1
LOOKUP_TABLE default
1.145718600000e-01
