# vtk DataFile Version 3.0
CalculiX dynamic block_plane_c3d8 frame 14 t=3.000000000000e-02
ASCII
DATASET UNSTRUCTURED_GRID
POINTS 8 float
-2.500000000000e-01 -2.500000000000e-01 6.585500000000e-03
2.500000000000e-01 -2.500000000000e-01 6.585500000000e-03
-2.500000000000e-01 2.500000000000e-01 6.585500000000e-03
2.500000000000e-01 2.500000000000e-01 6.585500000000e-03
-2.500000000000e-01 -2.500000000000e-01 3.065855000000e-01
2.500000000000e-01 -2.500000000000e-01 3.065855000000e-01
-2.500000000000e-01 2.500000000000e-01 3.065855000000e-01
2.500000000000e-01 2.500000000000e-01 3.065855000000e-01
CELLS 1 9
8 0 1 3 2 4 5 7 6
CELL_TYPES 1
12
POINT_DATA 8
VECTORS displacement float
-7.044597000000e-19 9.139831000000e-19 -1.341450000000e-02
-1.393236000000e-19 1.537027000000e-18 -1.341450000000e-02
-3.911520000000e-19 1.165167000000e-18 -1.341450000000e-02
-5.292886000000e-19 1.460655000000e-18 -1.341450000000e-02
6.984353000000e-19 -1.171107000000e-18 -1.341450000000e-02
1.457244000000e-19 -1.392319000000e-18 -1.341450000000e-02
2.849474000000e-19 -9.077828000000e-19 -1.341450000000e-02
6.359414000000e-19 -1.605171000000e-18 -1.341450000000e-02
SCALARS displacement_magnitude float 1
LOOKUP_TABLE default
1.341450000000e-02
1.341450000000e-02
1.341450000000e-02
1.341450000000e-02
1.341450000000e-02
1.341450000000e-02
1.341450000000e-02
1.341450000000e-02
CELL_DATA 1
SCALARS displacement_magnitude float 1
LOOKUP_TABLE default
1.341450000000e-02
SCALARS engineering_strain_norm float 1
LOOKUP_TABLE default
9.607339024962e-18
SCALARS von_mises float 1
LOOKUP_TABLE default
1.478783799267e-13
