# vtk DataFile Version 3.0
CalculiX dynamic block_plane_c3d8 frame 67 t=7.800642000000e-02
ASCII
DATASET UNSTRUCTURED_GRID
POINTS 8 float
-2.499974213500e-01 -2.499974213500e-01 2.128447200000e-02
2.499974213500e-01 -2.499974213500e-01 2.128447200000e-02
-2.499974213500e-01 2.499974213500e-01 2.128447200000e-02
2.499974213500e-01 2.499974213500e-01 2.128447200000e-02
-2.499974213500e-01 -2.499974213500e-01 3.212887730000e-01
2.499974213500e-01 -2.499974213500e-01 3.212887730000e-01
-2.499974213500e-01 2.499974213500e-01 3.212887730000e-01
2.499974213500e-01 2.499974213500e-01 3.212887730000e-01
CELLS 1 9
8 0 1 3 2 4 5 7 6
CELL_TYPES 1
12
POINT_DATA 8
VECTORS displacement float
2.578650000000e-06 2.578650000000e-06 1.284472000000e-03
-2.578650000000e-06 2.578650000000e-06 1.284472000000e-03
2.578650000000e-06 -2.578650000000e-06 1.284472000000e-03
-2.578650000000e-06 -2.578650000000e-06 1.284472000000e-03
2.578650000000e-06 2.578650000000e-06 1.288773000000e-03
-2.578650000000e-06 2.578650000000e-06 1.288773000000e-03
2.578650000000e-06 -2.578650000000e-06 1.288773000000e-03
-2.578650000000e-06 -2.578650000000e-06 1.288773000000e-03
SCALARS displacement_magnitude float 1
LOOKUP_TABLE default
1.284477176775e-03
1.284477176775e-03
1.284477176775e-03
1.284477176775e-03
1.288778159499e-03
1.288778159499e-03
1.288778159499e-03
1.288778159499e-03
CELL_DATA 1
SCALARS displacement_magnitude float 1
LOOKUP_TABLE default
1.286627668137e-03
SCALARS engineering_strain_norm float 1
LOOKUP_TABLE default
2.045292051104e-05
SCALARS von_mises float 1
LOOKUP_TABLE default
1.896353300000e+00
