# vtk DataFile Version 3.0
CalculiX dynamic block_plane_c3d8 frame 25 t=3.405449000000e-02
ASCII
DATASET UNSTRUCTURED_GRID
POINTS 8 float
-2.500177276500e-01 -2.500177276500e-01 4.178370000000e-03
2.500177276500e-01 -2.500177276500e-01 4.178370000000e-03
-2.500177276500e-01 2.500177276500e-01 4.178370000000e-03
2.500177276500e-01 2.500177276500e-01 4.178370000000e-03
-2.500177276500e-01 -2.500177276500e-01 3.041131100000e-01
2.500177276500e-01 -2.500177276500e-01 3.041131100000e-01
-2.500177276500e-01 2.500177276500e-01 3.041131100000e-01
2.500177276500e-01 2.500177276500e-01 3.041131100000e-01
CELLS 1 9
8 0 1 3 2 4 5 7 6
CELL_TYPES 1
12
POINT_DATA 8
VECTORS displacement float
-1.772765000000e-05 -1.772765000000e-05 -1.582163000000e-02
1.772765000000e-05 -1.772765000000e-05 -1.582163000000e-02
-1.772765000000e-05 1.772765000000e-05 -1.582163000000e-02
1.772765000000e-05 1.772765000000e-05 -1.582163000000e-02
-1.772765000000e-05 -1.772765000000e-05 -1.588689000000e-02
1.772765000000e-05 -1.772765000000e-05 -1.588689000000e-02
-1.772765000000e-05 1.772765000000e-05 -1.588689000000e-02
1.772765000000e-05 1.772765000000e-05 -1.588689000000e-02
SCALARS displacement_magnitude float 1
LOOKUP_TABLE default
1.582164986327e-02
1.582164986327e-02
1.582164986327e-02
1.582164986327e-02
1.588690978168e-02
1.588690978168e-02
1.588690978168e-02
1.588690978168e-02
CELL_DATA 1
SCALARS displacement_magnitude float 1
LOOKUP_TABLE default
1.585427982248e-02
SCALARS engineering_strain_norm float 1
LOOKUP_TABLE default
2.395357541075e-04
SCALARS von_mises float 1
LOOKUP_TABLE default
2.218010900000e+01
