# vtk DataFile Version 3.0
CalculiX dynamic block_plane_c3d8 frame 33 t=3.711872000000e-02
ASCII
DATASET UNSTRUCTURED_GRID
POINTS 8 float
-2.500335068500e-01 -2.500335068500e-01 3.483940000000e-03
2.500335068500e-01 -2.500335068500e-01 3.483940000000e-03
-2.500335068500e-01 2.500335068500e-01 3.483940000000e-03
2.500335068500e-01 2.500335068500e-01 3.483940000000e-03
-2.500335068500e-01 -2.500335068500e-01 3.033570500000e-01
2.500335068500e-01 -2.500335068500e-01 3.033570500000e-01
-2.500335068500e-01 2.500335068500e-01 3.033570500000e-01
2.500335068500e-01 2.500335068500e-01 3.033570500000e-01
CELLS 1 9
8 0 1 3 2 4 5 7 6
CELL_TYPES 1
12
POINT_DATA 8
VECTORS displacement float
-3.350685000000e-05 -3.350685000000e-05 -1.651606000000e-02
3.350685000000e-05 -3.350685000000e-05 -1.651606000000e-02
-3.350685000000e-05 3.350685000000e-05 -1.651606000000e-02
3.350685000000e-05 3.350685000000e-05 -1.651606000000e-02
-3.350685000000e-05 -3.350685000000e-05 -1.664295000000e-02
3.350685000000e-05 -3.350685000000e-05 -1.664295000000e-02
-3.350685000000e-05 3.350685000000e-05 -1.664295000000e-02
3.350685000000e-05 3.350685000000e-05 -1.664295000000e-02
SCALARS displacement_magnitude float 1
LOOKUP_TABLE default
1.651612797667e-02
1.651612797667e-02
1.651612797667e-02
1.651612797667e-02
1.664301745840e-02
1.664301745840e-02
1.664301745840e-02
1.664301745840e-02
CELL_DATA 1
SCALARS displacement_magnitude float 1
LOOKUP_TABLE default
1.657957271753e-02
SCALARS engineering_strain_norm float 1
LOOKUP_TABLE default
4.634948640628e-04
SCALARS von_mises float 1
LOOKUP_TABLE default
4.281064600000e+01
