# vtk DataFile Version 3.0
CalculiX common-time dynamic block_block_c3d8 frame 26 t=5.200000000000e-02
ASCII
DATASET UNSTRUCTURED_GRID
POINTS 16 float
-2.500000000000e-01 -2.500000000000e-01 0.000000000000e+00
2.500000000000e-01 -2.500000000000e-01 0.000000000000e+00
-2.500000000000e-01 2.500000000000e-01 0.000000000000e+00
2.500000000000e-01 2.500000000000e-01 0.000000000000e+00
-2.500000000000e-01 -2.500000000000e-01 2.400000000000e-01
2.500000000000e-01 -2.500000000000e-01 2.400000000000e-01
-2.500000000000e-01 2.500000000000e-01 2.400000000000e-01
2.500000000000e-01 2.500000000000e-01 2.400000000000e-01
-2.500000464658e-01 -2.500000464658e-01 2.466795451550e-01
2.500000464658e-01 -2.500000464658e-01 2.466795451550e-01
-2.500000464658e-01 2.500000464658e-01 2.466795451550e-01
2.500000464658e-01 2.500000464658e-01 2.466795451550e-01
-2.500000464658e-01 -2.500000464658e-01 5.066796142951e-01
2.500000464658e-01 -2.500000464658e-01 5.066796142951e-01
-2.500000464658e-01 2.500000464658e-01 5.066796142951e-01
2.500000464658e-01 2.500000464658e-01 5.066796142951e-01
CELLS 2 18
8 0 1 3 2 4 5 7 6
8 8 9 11 10 12 13 15 14
CELL_TYPES 2
12
12
POINT_DATA 16
VECTORS displacement float
0.000000000000e+00 0.000000000000e+00 0.000000000000e+00
0.000000000000e+00 0.000000000000e+00 0.000000000000e+00
0.000000000000e+00 0.000000000000e+00 0.000000000000e+00
0.000000000000e+00 0.000000000000e+00 0.000000000000e+00
0.000000000000e+00 0.000000000000e+00 0.000000000000e+00
0.000000000000e+00 0.000000000000e+00 0.000000000000e+00
0.000000000000e+00 0.000000000000e+00 0.000000000000e+00
0.000000000000e+00 0.000000000000e+00 0.000000000000e+00
-4.646576010001e-08 -4.646576010001e-08 -8.320454845000e-03
4.646576010001e-08 -4.646576010001e-08 -8.320454845000e-03
-4.646576010001e-08 4.646576010001e-08 -8.320454845000e-03
4.646576010001e-08 4.646576010001e-08 -8.320454845000e-03
-4.646576010001e-08 -4.646576010001e-08 -8.320385704950e-03
4.646576010001e-08 -4.646576010001e-08 -8.320385704950e-03
-4.646576010001e-08 4.646576010001e-08 -8.320385704950e-03
4.646576010001e-08 4.646576010001e-08 -8.320385704950e-03
SCALARS displacement_magnitude float 1
LOOKUP_TABLE default
0.000000000000e+00
0.000000000000e+00
0.000000000000e+00
0.000000000000e+00
0.000000000000e+00
0.000000000000e+00
0.000000000000e+00
0.000000000000e+00
8.320454845259e-03
8.320454845259e-03
8.320454845259e-03
8.320454845259e-03
8.320385705209e-03
8.320385705209e-03
8.320385705209e-03
8.320385705209e-03
CELL_DATA 2
SCALARS displacement_magnitude float 1
LOOKUP_TABLE default
0.000000000000e+00
8.320420275234e-03
SCALARS engineering_strain_norm float 1
LOOKUP_TABLE default
0.000000000000e+00
3.739055023585e-07
SCALARS von_mises float 1
LOOKUP_TABLE default
0.000000000000e+00
6.147506424994e-03
