# vtk DataFile Version 3.0
CalculiX common-time dynamic block_block_c3d8 frame 25 t=5.000000000000e-02
ASCII
DATASET UNSTRUCTURED_GRID
POINTS 16 float
-2.500000000000e-01 -2.500000000000e-01 0.000000000000e+00
2.500000000000e-01 -2.500000000000e-01 0.000000000000e+00
-2.500000000000e-01 2.500000000000e-01 0.000000000000e+00
2.500000000000e-01 2.500000000000e-01 0.000000000000e+00
-2.500000000000e-01 -2.500000000000e-01 2.400000000000e-01
2.500000000000e-01 -2.500000000000e-01 2.400000000000e-01
-2.500000000000e-01 2.500000000000e-01 2.400000000000e-01
2.500000000000e-01 2.500000000000e-01 2.400000000000e-01
-2.499984921208e-01 -2.499984921208e-01 2.456529678902e-01
2.499984921208e-01 -2.499984921208e-01 2.456529678902e-01
-2.499984921208e-01 2.499984921208e-01 2.456529678902e-01
2.499984921208e-01 2.499984921208e-01 2.456529678902e-01
-2.499984921208e-01 -2.499984921208e-01 5.056549174866e-01
2.499984921208e-01 -2.499984921208e-01 5.056549174866e-01
-2.499984921208e-01 2.499984921208e-01 5.056549174866e-01
2.499984921208e-01 2.499984921208e-01 5.056549174866e-01
CELLS 2 18
8 0 1 3 2 4 5 7 6
8 8 9 11 10 12 13 15 14
CELL_TYPES 2
12
12
POINT_DATA 16
VECTORS displacement float
0.000000000000e+00 0.000000000000e+00 0.000000000000e+00
0.000000000000e+00 0.000000000000e+00 0.000000000000e+00
0.000000000000e+00 0.000000000000e+00 0.000000000000e+00
0.000000000000e+00 0.000000000000e+00 0.000000000000e+00
0.000000000000e+00 0.000000000000e+00 0.000000000000e+00
0.000000000000e+00 0.000000000000e+00 0.000000000000e+00
0.000000000000e+00 0.000000000000e+00 0.000000000000e+00
0.000000000000e+00 0.000000000000e+00 0.000000000000e+00
1.507879231000e-06 1.507879231000e-06 -9.347032109850e-03
-1.507879231000e-06 1.507879231000e-06 -9.347032109850e-03
1.507879231000e-06 -1.507879231000e-06 -9.347032109850e-03
-1.507879231000e-06 -1.507879231000e-06 -9.347032109850e-03
1.507879231000e-06 1.507879231000e-06 -9.345082513400e-03
-1.507879231000e-06 1.507879231000e-06 -9.345082513400e-03
1.507879231000e-06 -1.507879231000e-06 -9.345082513400e-03
-1.507879231000e-06 -1.507879231000e-06 -9.345082513400e-03
SCALARS displacement_magnitude float 1
LOOKUP_TABLE default
0.000000000000e+00
0.000000000000e+00
0.000000000000e+00
0.000000000000e+00
0.000000000000e+00
0.000000000000e+00
0.000000000000e+00
0.000000000000e+00
9.347032353104e-03
9.347032353104e-03
9.347032353104e-03
9.347032353104e-03
9.345082756704e-03
9.345082756704e-03
9.345082756704e-03
9.345082756704e-03
CELL_DATA 2
SCALARS displacement_magnitude float 1
LOOKUP_TABLE default
0.000000000000e+00
9.346057554904e-03
SCALARS engineering_strain_norm float 1
LOOKUP_TABLE default
0.000000000000e+00
1.135716133051e-05
SCALARS von_mises float 1
LOOKUP_TABLE default
0.000000000000e+00
1.040763205670e+00
