# vtk DataFile Version 3.0
CalculiX common-time dynamic block_block_c3d8 frame 19 t=3.800000000000e-02
ASCII
DATASET UNSTRUCTURED_GRID
POINTS 16 float
-2.500000000000e-01 -2.500000000000e-01 0.000000000000e+00
2.500000000000e-01 -2.500000000000e-01 0.000000000000e+00
-2.500000000000e-01 2.500000000000e-01 0.000000000000e+00
2.500000000000e-01 2.500000000000e-01 0.000000000000e+00
-2.500000000000e-01 -2.500000000000e-01 2.400000000000e-01
2.500000000000e-01 -2.500000000000e-01 2.400000000000e-01
-2.500000000000e-01 2.500000000000e-01 2.400000000000e-01
2.500000000000e-01 2.500000000000e-01 2.400000000000e-01
-2.500223491784e-01 -2.500223491784e-01 2.389054330875e-01
2.500223491784e-01 -2.500223491784e-01 2.389054330875e-01
-2.500223491784e-01 2.500223491784e-01 2.389054330875e-01
2.500223491784e-01 2.500223491784e-01 2.389054330875e-01
-2.500223491784e-01 -2.500223491784e-01 4.988316294376e-01
2.500223491784e-01 -2.500223491784e-01 4.988316294376e-01
-2.500223491784e-01 2.500223491784e-01 4.988316294376e-01
2.500223491784e-01 2.500223491784e-01 4.988316294376e-01
CELLS 2 18
8 0 1 3 2 4 5 7 6
8 8 9 11 10 12 13 15 14
CELL_TYPES 2
12
12
POINT_DATA 16
VECTORS displacement float
0.000000000000e+00 0.000000000000e+00 0.000000000000e+00
0.000000000000e+00 0.000000000000e+00 0.000000000000e+00
0.000000000000e+00 0.000000000000e+00 0.000000000000e+00
0.000000000000e+00 0.000000000000e+00 0.000000000000e+00
0.000000000000e+00 0.000000000000e+00 0.000000000000e+00
0.000000000000e+00 0.000000000000e+00 0.000000000000e+00
0.000000000000e+00 0.000000000000e+00 0.000000000000e+00
0.000000000000e+00 0.000000000000e+00 0.000000000000e+00
-2.234917837055e-05 -2.234917837055e-05 -1.609456691252e-02
2.234917837055e-05 -2.234917837055e-05 -1.609456691252e-02
-2.234917837055e-05 2.234917837055e-05 -1.609456691252e-02
2.234917837055e-05 2.234917837055e-05 -1.609456691252e-02
-2.234917837055e-05 -2.234917837055e-05 -1.616837056235e-02
2.234917837055e-05 -2.234917837055e-05 -1.616837056235e-02
-2.234917837055e-05 2.234917837055e-05 -1.616837056235e-02
2.234917837055e-05 2.234917837055e-05 -1.616837056235e-02
SCALARS displacement_magnitude float 1
LOOKUP_TABLE default
0.000000000000e+00
0.000000000000e+00
0.000000000000e+00
0.000000000000e+00
0.000000000000e+00
0.000000000000e+00
0.000000000000e+00
0.000000000000e+00
1.609459794693e-02
1.609459794693e-02
1.609459794693e-02
1.609459794693e-02
1.616840145509e-02
1.616840145509e-02
1.616840145509e-02
1.616840145509e-02
CELL_DATA 2
SCALARS displacement_magnitude float 1
LOOKUP_TABLE default
0.000000000000e+00
1.613149970101e-02
SCALARS engineering_strain_norm float 1
LOOKUP_TABLE default
0.000000000000e+00
3.107412962124e-04
SCALARS von_mises float 1
LOOKUP_TABLE default
0.000000000000e+00
2.869870476498e+01
