# vtk DataFile Version 3.0
CalculiX common-time dynamic block_block_c3d8 frame 21 t=4.200000000000e-02
ASCII
DATASET UNSTRUCTURED_GRID
POINTS 16 float
-2.500000000000e-01 -2.500000000000e-01 0.000000000000e+00
2.500000000000e-01 -2.500000000000e-01 0.000000000000e+00
-2.500000000000e-01 2.500000000000e-01 0.000000000000e+00
2.500000000000e-01 2.500000000000e-01 0.000000000000e+00
-2.500000000000e-01 -2.500000000000e-01 2.400000000000e-01
2.500000000000e-01 -2.500000000000e-01 2.400000000000e-01
-2.500000000000e-01 2.500000000000e-01 2.400000000000e-01
2.500000000000e-01 2.500000000000e-01 2.400000000000e-01
-2.500004423291e-01 -2.500004423291e-01 2.411625794452e-01
2.500004423291e-01 -2.500004423291e-01 2.411625794452e-01
-2.500004423291e-01 2.500004423291e-01 2.411625794452e-01
2.500004423291e-01 2.500004423291e-01 2.411625794452e-01
-2.500004423291e-01 -2.500004423291e-01 5.011626038702e-01
2.500004423291e-01 -2.500004423291e-01 5.011626038702e-01
-2.500004423291e-01 2.500004423291e-01 5.011626038702e-01
2.500004423291e-01 2.500004423291e-01 5.011626038702e-01
CELLS 2 18
8 0 1 3 2 4 5 7 6
8 8 9 11 10 12 13 15 14
CELL_TYPES 2
12
12
POINT_DATA 16
VECTORS displacement float
0.000000000000e+00 0.000000000000e+00 0.000000000000e+00
0.000000000000e+00 0.000000000000e+00 0.000000000000e+00
0.000000000000e+00 0.000000000000e+00 0.000000000000e+00
0.000000000000e+00 0.000000000000e+00 0.000000000000e+00
0.000000000000e+00 0.000000000000e+00 0.000000000000e+00
0.000000000000e+00 0.000000000000e+00 0.000000000000e+00
0.000000000000e+00 0.000000000000e+00 0.000000000000e+00
0.000000000000e+00 0.000000000000e+00 0.000000000000e+00
-4.423291062468e-07 -4.423291062468e-07 -1.383742055484e-02
4.423291062468e-07 -4.423291062468e-07 -1.383742055484e-02
-4.423291062468e-07 4.423291062468e-07 -1.383742055484e-02
4.423291062468e-07 4.423291062468e-07 -1.383742055484e-02
-4.423291062468e-07 -4.423291062468e-07 -1.383739612977e-02
4.423291062468e-07 -4.423291062468e-07 -1.383739612977e-02
-4.423291062468e-07 4.423291062468e-07 -1.383739612977e-02
4.423291062468e-07 4.423291062468e-07 -1.383739612977e-02
SCALARS displacement_magnitude float 1
LOOKUP_TABLE default
0.000000000000e+00
0.000000000000e+00
0.000000000000e+00
0.000000000000e+00
0.000000000000e+00
0.000000000000e+00
0.000000000000e+00
0.000000000000e+00
1.383742056898e-02
1.383742056898e-02
1.383742056898e-02
1.383742056898e-02
1.383739614391e-02
1.383739614391e-02
1.383739614391e-02
1.383739614391e-02
CELL_DATA 2
SCALARS displacement_magnitude float 1
LOOKUP_TABLE default
0.000000000000e+00
1.383740835645e-02
SCALARS engineering_strain_norm float 1
LOOKUP_TABLE default
0.000000000000e+00
2.503954158499e-06
SCALARS von_mises float 1
LOOKUP_TABLE default
0.000000000000e+00
1.299995937415e-01
