# vtk DataFile Version 3.0
CalculiX common-time dynamic block_block_c3d8 frame 28 t=5.600000000000e-02
ASCII
DATASET UNSTRUCTURED_GRID
POINTS 16 float
-2.500000000000e-01 -2.500000000000e-01 0.000000000000e+00
2.500000000000e-01 -2.500000000000e-01 0.000000000000e+00
-2.500000000000e-01 2.500000000000e-01 0.000000000000e+00
2.500000000000e-01 2.500000000000e-01 0.000000000000e+00
-2.500000000000e-01 -2.500000000000e-01 2.400000000000e-01
2.500000000000e-01 -2.500000000000e-01 2.400000000000e-01
-2.500000000000e-01 2.500000000000e-01 2.400000000000e-01
2.500000000000e-01 2.500000000000e-01 2.400000000000e-01
-2.499983642519e-01 -2.499983642519e-01 2.486119295294e-01
2.499983642519e-01 -2.499983642519e-01 2.486119295294e-01
-2.499983642519e-01 2.499983642519e-01 2.486119295294e-01
2.499983642519e-01 2.499983642519e-01 2.486119295294e-01
-2.499983642519e-01 -2.499983642519e-01 5.086143394539e-01
2.499983642519e-01 -2.499983642519e-01 5.086143394539e-01
-2.499983642519e-01 2.499983642519e-01 5.086143394539e-01
2.499983642519e-01 2.499983642519e-01 5.086143394539e-01
CELLS 2 18
8 0 1 3 2 4 5 7 6
8 8 9 11 10 12 13 15 14
CELL_TYPES 2
12
12
POINT_DATA 16
VECTORS displacement float
0.000000000000e+00 0.000000000000e+00 0.000000000000e+00
0.000000000000e+00 0.000000000000e+00 0.000000000000e+00
0.000000000000e+00 0.000000000000e+00 0.000000000000e+00
0.000000000000e+00 0.000000000000e+00 0.000000000000e+00
0.000000000000e+00 0.000000000000e+00 0.000000000000e+00
0.000000000000e+00 0.000000000000e+00 0.000000000000e+00
0.000000000000e+00 0.000000000000e+00 0.000000000000e+00
0.000000000000e+00 0.000000000000e+00 0.000000000000e+00
1.635748116185e-06 1.635748116185e-06 -6.388070470550e-03
-1.635748116185e-06 1.635748116185e-06 -6.388070470550e-03
1.635748116185e-06 -1.635748116185e-06 -6.388070470550e-03
-1.635748116185e-06 -1.635748116185e-06 -6.388070470550e-03
1.635748116185e-06 1.635748116185e-06 -6.385660546050e-03
-1.635748116185e-06 1.635748116185e-06 -6.385660546050e-03
1.635748116185e-06 -1.635748116185e-06 -6.385660546050e-03
-1.635748116185e-06 -1.635748116185e-06 -6.385660546050e-03
SCALARS displacement_magnitude float 1
LOOKUP_TABLE default
0.000000000000e+00
0.000000000000e+00
0.000000000000e+00
0.000000000000e+00
0.000000000000e+00
0.000000000000e+00
0.000000000000e+00
0.000000000000e+00
6.388070889404e-03
6.388070889404e-03
6.388070889404e-03
6.388070889404e-03
6.385660965063e-03
6.385660965063e-03
6.385660965063e-03
6.385660965063e-03
CELL_DATA 2
SCALARS displacement_magnitude float 1
LOOKUP_TABLE default
0.000000000000e+00
6.386865927233e-03
SCALARS engineering_strain_norm float 1
LOOKUP_TABLE default
0.000000000000e+00
1.309712780120e-05
SCALARS von_mises float 1
LOOKUP_TABLE default
0.000000000000e+00
1.216360789985e+00
