# vtk DataFile Version 3.0
CalculiX common-time dynamic block_block_c3d8 frame 22 t=4.400000000000e-02
ASCII
DATASET UNSTRUCTURED_GRID
POINTS 16 float
-2.500000000000e-01 -2.500000000000e-01 0.000000000000e+00
2.500000000000e-01 -2.500000000000e-01 0.000000000000e+00
-2.500000000000e-01 2.500000000000e-01 0.000000000000e+00
2.500000000000e-01 2.500000000000e-01 0.000000000000e+00
-2.500000000000e-01 -2.500000000000e-01 2.400000000000e-01
2.500000000000e-01 -2.500000000000e-01 2.400000000000e-01
-2.500000000000e-01 2.500000000000e-01 2.400000000000e-01
2.500000000000e-01 2.500000000000e-01 2.400000000000e-01
-2.499997292286e-01 -2.499997292286e-01 2.423438705711e-01
2.499997292286e-01 -2.499997292286e-01 2.423438705711e-01
-2.499997292286e-01 2.499997292286e-01 2.423438705711e-01
2.499997292286e-01 2.499997292286e-01 2.423438705711e-01
-2.499997292286e-01 -2.499997292286e-01 5.023428931631e-01
2.499997292286e-01 -2.499997292286e-01 5.023428931631e-01
-2.499997292286e-01 2.499997292286e-01 5.023428931631e-01
2.499997292286e-01 2.499997292286e-01 5.023428931631e-01
CELLS 2 18
8 0 1 3 2 4 5 7 6
8 8 9 11 10 12 13 15 14
CELL_TYPES 2
12
12
POINT_DATA 16
VECTORS displacement float
0.000000000000e+00 0.000000000000e+00 0.000000000000e+00
0.000000000000e+00 0.000000000000e+00 0.000000000000e+00
0.000000000000e+00 0.000000000000e+00 0.000000000000e+00
0.000000000000e+00 0.000000000000e+00 0.000000000000e+00
0.000000000000e+00 0.000000000000e+00 0.000000000000e+00
0.000000000000e+00 0.000000000000e+00 0.000000000000e+00
0.000000000000e+00 0.000000000000e+00 0.000000000000e+00
0.000000000000e+00 0.000000000000e+00 0.000000000000e+00
2.707714344865e-07 2.707714344865e-07 -1.265612942889e-02
-2.707714344865e-07 2.707714344865e-07 -1.265612942889e-02
2.707714344865e-07 -2.707714344865e-07 -1.265612942889e-02
-2.707714344865e-07 -2.707714344865e-07 -1.265612942889e-02
2.707714344865e-07 2.707714344865e-07 -1.265710683690e-02
-2.707714344865e-07 2.707714344865e-07 -1.265710683690e-02
2.707714344865e-07 -2.707714344865e-07 -1.265710683690e-02
-2.707714344865e-07 -2.707714344865e-07 -1.265710683690e-02
SCALARS displacement_magnitude float 1
LOOKUP_TABLE default
0.000000000000e+00
0.000000000000e+00
0.000000000000e+00
0.000000000000e+00
0.000000000000e+00
0.000000000000e+00
0.000000000000e+00
0.000000000000e+00
1.265612943468e-02
1.265612943468e-02
1.265612943468e-02
1.265612943468e-02
1.265710684270e-02
1.265710684270e-02
1.265710684270e-02
1.265710684270e-02
CELL_DATA 2
SCALARS displacement_magnitude float 1
LOOKUP_TABLE default
0.000000000000e+00
1.265661813869e-02
SCALARS engineering_strain_norm float 1
LOOKUP_TABLE default
0.000000000000e+00
4.059334582690e-06
SCALARS von_mises float 1
LOOKUP_TABLE default
0.000000000000e+00
2.064343071170e-01
