# vtk DataFile Version 3.0
CalculiX common-time dynamic block_block_c3d8 frame 23 t=4.600000000000e-02
ASCII
DATASET UNSTRUCTURED_GRID
POINTS 16 float
-2.500000000000e-01 -2.500000000000e-01 0.000000000000e+00
2.500000000000e-01 -2.500000000000e-01 0.000000000000e+00
-2.500000000000e-01 2.500000000000e-01 0.000000000000e+00
2.500000000000e-01 2.500000000000e-01 0.000000000000e+00
-2.500000000000e-01 -2.500000000000e-01 2.400000000000e-01
2.500000000000e-01 -2.500000000000e-01 2.400000000000e-01
-2.500000000000e-01 2.500000000000e-01 2.400000000000e-01
2.500000000000e-01 2.500000000000e-01 2.400000000000e-01
-2.499985462340e-01 -2.499985462340e-01 2.434837143045e-01
2.499985462340e-01 -2.499985462340e-01 2.434837143045e-01
-2.499985462340e-01 2.499985462340e-01 2.434837143045e-01
2.499985462340e-01 2.499985462340e-01 2.434837143045e-01
-2.499985462340e-01 -2.499985462340e-01 5.034861838295e-01
2.499985462340e-01 -2.499985462340e-01 5.034861838295e-01
-2.499985462340e-01 2.499985462340e-01 5.034861838295e-01
2.499985462340e-01 2.499985462340e-01 5.034861838295e-01
CELLS 2 18
8 0 1 3 2 4 5 7 6
8 8 9 11 10 12 13 15 14
CELL_TYPES 2
12
12
POINT_DATA 16
VECTORS displacement float
0.000000000000e+00 0.000000000000e+00 0.000000000000e+00
0.000000000000e+00 0.000000000000e+00 0.000000000000e+00
0.000000000000e+00 0.000000000000e+00 0.000000000000e+00
0.000000000000e+00 0.000000000000e+00 0.000000000000e+00
0.000000000000e+00 0.000000000000e+00 0.000000000000e+00
0.000000000000e+00 0.000000000000e+00 0.000000000000e+00
0.000000000000e+00 0.000000000000e+00 0.000000000000e+00
0.000000000000e+00 0.000000000000e+00 0.000000000000e+00
1.453766025300e-06 1.453766025300e-06 -1.151628569550e-02
-1.453766025300e-06 1.453766025300e-06 -1.151628569550e-02
1.453766025300e-06 -1.453766025300e-06 -1.151628569550e-02
-1.453766025300e-06 -1.453766025300e-06 -1.151628569550e-02
1.453766025300e-06 1.453766025300e-06 -1.151381617050e-02
-1.453766025300e-06 1.453766025300e-06 -1.151381617050e-02
1.453766025300e-06 -1.453766025300e-06 -1.151381617050e-02
-1.453766025300e-06 -1.453766025300e-06 -1.151381617050e-02
SCALARS displacement_magnitude float 1
LOOKUP_TABLE default
0.000000000000e+00
0.000000000000e+00
0.000000000000e+00
0.000000000000e+00
0.000000000000e+00
0.000000000000e+00
0.000000000000e+00
0.000000000000e+00
1.151628587902e-02
1.151628587902e-02
1.151628587902e-02
1.151628587902e-02
1.151381635406e-02
1.151381635406e-02
1.151381635406e-02
1.151381635406e-02
CELL_DATA 2
SCALARS displacement_magnitude float 1
LOOKUP_TABLE default
0.000000000000e+00
1.151505111654e-02
SCALARS engineering_strain_norm float 1
LOOKUP_TABLE default
0.000000000000e+00
1.256364727304e-05
SCALARS von_mises float 1
LOOKUP_TABLE default
0.000000000000e+00
1.177229696335e+00
