# vtk DataFile Version 3.0
CalculiX common-time dynamic block_block_c3d8 frame 31 t=6.200000000000e-02
ASCII
DATASET UNSTRUCTURED_GRID
POINTS 16 float
-2.500000000000e-01 -2.500000000000e-01 0.000000000000e+00
2.500000000000e-01 -2.500000000000e-01 0.000000000000e+00
-2.500000000000e-01 2.500000000000e-01 0.000000000000e+00
2.500000000000e-01 2.500000000000e-01 0.000000000000e+00
-2.500000000000e-01 -2.500000000000e-01 2.400000000000e-01
2.500000000000e-01 -2.500000000000e-01 2.400000000000e-01
-2.500000000000e-01 2.500000000000e-01 2.400000000000e-01
2.500000000000e-01 2.500000000000e-01 2.400000000000e-01
-2.499989078961e-01 -2.499989078961e-01 2.512186830130e-01
2.499989078961e-01 -2.499989078961e-01 2.512186830130e-01
-2.499989078961e-01 2.499989078961e-01 2.512186830130e-01
2.499989078961e-01 2.499989078961e-01 2.512186830130e-01
-2.499989078961e-01 -2.499989078961e-01 5.112196492544e-01
2.499989078961e-01 -2.499989078961e-01 5.112196492544e-01
-2.499989078961e-01 2.499989078961e-01 5.112196492544e-01
2.499989078961e-01 2.499989078961e-01 5.112196492544e-01
CELLS 2 18
8 0 1 3 2 4 5 7 6
8 8 9 11 10 12 13 15 14
CELL_TYPES 2
12
12
POINT_DATA 16
VECTORS displacement float
0.000000000000e+00 0.000000000000e+00 0.000000000000e+00
0.000000000000e+00 0.000000000000e+00 0.000000000000e+00
0.000000000000e+00 0.000000000000e+00 0.000000000000e+00
0.000000000000e+00 0.000000000000e+00 0.000000000000e+00
0.000000000000e+00 0.000000000000e+00 0.000000000000e+00
0.000000000000e+00 0.000000000000e+00 0.000000000000e+00
0.000000000000e+00 0.000000000000e+00 0.000000000000e+00
0.000000000000e+00 0.000000000000e+00 0.000000000000e+00
1.092103907650e-06 1.092103907650e-06 -3.781316987050e-03
-1.092103907650e-06 1.092103907650e-06 -3.781316987050e-03
1.092103907650e-06 -1.092103907650e-06 -3.781316987050e-03
-1.092103907650e-06 -1.092103907650e-06 -3.781316987050e-03
1.092103907650e-06 1.092103907650e-06 -3.780350745550e-03
-1.092103907650e-06 1.092103907650e-06 -3.780350745550e-03
1.092103907650e-06 -1.092103907650e-06 -3.780350745550e-03
-1.092103907650e-06 -1.092103907650e-06 -3.780350745550e-03
SCALARS displacement_magnitude float 1
LOOKUP_TABLE default
0.000000000000e+00
0.000000000000e+00
0.000000000000e+00
0.000000000000e+00
0.000000000000e+00
0.000000000000e+00
0.000000000000e+00
0.000000000000e+00
3.781317302467e-03
3.781317302467e-03
3.781317302467e-03
3.781317302467e-03
3.780351061047e-03
3.780351061047e-03
3.780351061047e-03
3.780351061047e-03
CELL_DATA 2
SCALARS displacement_magnitude float 1
LOOKUP_TABLE default
0.000000000000e+00
3.780834181757e-03
SCALARS engineering_strain_norm float 1
LOOKUP_TABLE default
0.000000000000e+00
7.209514268501e-06
SCALARS von_mises float 1
LOOKUP_TABLE default
0.000000000000e+00
6.219950730465e-01
