# vtk DataFile Version 3.0
CalculiX common-time dynamic block_block_c3d8 frame 20 t=4.000000000000e-02
ASCII
DATASET UNSTRUCTURED_GRID
POINTS 16 float
-2.500000000000e-01 -2.500000000000e-01 0.000000000000e+00
2.500000000000e-01 -2.500000000000e-01 0.000000000000e+00
-2.500000000000e-01 2.500000000000e-01 0.000000000000e+00
2.500000000000e-01 2.500000000000e-01 0.000000000000e+00
-2.500000000000e-01 -2.500000000000e-01 2.400000000000e-01
2.500000000000e-01 -2.500000000000e-01 2.400000000000e-01
-2.500000000000e-01 2.500000000000e-01 2.400000000000e-01
2.500000000000e-01 2.500000000000e-01 2.400000000000e-01
-2.500045785377e-01 -2.500045785377e-01 2.399457901998e-01
2.500045785377e-01 -2.500045785377e-01 2.399457901998e-01
-2.500045785377e-01 2.500045785377e-01 2.399457901998e-01
2.500045785377e-01 2.500045785377e-01 2.399457901998e-01
-2.500045785377e-01 -2.500045785377e-01 4.999373440370e-01
2.500045785377e-01 -2.500045785377e-01 4.999373440370e-01
-2.500045785377e-01 2.500045785377e-01 4.999373440370e-01
2.500045785377e-01 2.500045785377e-01 4.999373440370e-01
CELLS 2 18
8 0 1 3 2 4 5 7 6
8 8 9 11 10 12 13 15 14
CELL_TYPES 2
12
12
POINT_DATA 16
VECTORS displacement float
0.000000000000e+00 0.000000000000e+00 0.000000000000e+00
0.000000000000e+00 0.000000000000e+00 0.000000000000e+00
0.000000000000e+00 0.000000000000e+00 0.000000000000e+00
0.000000000000e+00 0.000000000000e+00 0.000000000000e+00
0.000000000000e+00 0.000000000000e+00 0.000000000000e+00
0.000000000000e+00 0.000000000000e+00 0.000000000000e+00
0.000000000000e+00 0.000000000000e+00 0.000000000000e+00
0.000000000000e+00 0.000000000000e+00 0.000000000000e+00
-4.578537741854e-06 -4.578537741854e-06 -1.505420980022e-02
4.578537741854e-06 -4.578537741854e-06 -1.505420980022e-02
-4.578537741854e-06 4.578537741854e-06 -1.505420980022e-02
4.578537741854e-06 4.578537741854e-06 -1.505420980022e-02
-4.578537741854e-06 -4.578537741854e-06 -1.506265596299e-02
4.578537741854e-06 -4.578537741854e-06 -1.506265596299e-02
-4.578537741854e-06 4.578537741854e-06 -1.506265596299e-02
4.578537741854e-06 4.578537741854e-06 -1.506265596299e-02
SCALARS displacement_magnitude float 1
LOOKUP_TABLE default
0.000000000000e+00
0.000000000000e+00
0.000000000000e+00
0.000000000000e+00
0.000000000000e+00
0.000000000000e+00
0.000000000000e+00
0.000000000000e+00
1.505421119272e-02
1.505421119272e-02
1.505421119272e-02
1.505421119272e-02
1.506265735471e-02
1.506265735471e-02
1.506265735471e-02
1.506265735471e-02
CELL_DATA 2
SCALARS displacement_magnitude float 1
LOOKUP_TABLE default
0.000000000000e+00
1.505843427372e-02
SCALARS engineering_strain_norm float 1
LOOKUP_TABLE default
0.000000000000e+00
4.154644584867e-05
SCALARS von_mises float 1
LOOKUP_TABLE default
0.000000000000e+00
3.908624038991e+00
