# vtk DataFile Version 3.0
CalculiX common-time dynamic block_block_c3d8 frame 10 t=2.000000000000e-02
ASCII
DATASET UNSTRUCTURED_GRID
POINTS 16 float
-2.500000000000e-01 -2.500000000000e-01 0.000000000000e+00
2.500000000000e-01 -2.500000000000e-01 0.000000000000e+00
-2.500000000000e-01 2.500000000000e-01 0.000000000000e+00
2.500000000000e-01 2.500000000000e-01 0.000000000000e+00
-2.500000000000e-01 -2.500000000000e-01 2.400000000000e-01
2.500000000000e-01 -2.500000000000e-01 2.400000000000e-01
-2.500000000000e-01 2.500000000000e-01 2.400000000000e-01
2.500000000000e-01 2.500000000000e-01 2.400000000000e-01
-2.500000000000e-01 -2.500000000000e-01 2.470380000000e-01
2.500000000000e-01 -2.500000000000e-01 2.470380000000e-01
-2.500000000000e-01 2.500000000000e-01 2.470380000000e-01
2.500000000000e-01 2.500000000000e-01 2.470380000000e-01
-2.500000000000e-01 -2.500000000000e-01 5.070380000000e-01
2.500000000000e-01 -2.500000000000e-01 5.070380000000e-01
-2.500000000000e-01 2.500000000000e-01 5.070380000000e-01
2.500000000000e-01 2.500000000000e-01 5.070380000000e-01
CELLS 2 18
8 0 1 3 2 4 5 7 6
8 8 9 11 10 12 13 15 14
CELL_TYPES 2
12
12
POINT_DATA 16
VECTORS displacement float
0.000000000000e+00 0.000000000000e+00 0.000000000000e+00
0.000000000000e+00 0.000000000000e+00 0.000000000000e+00
0.000000000000e+00 0.000000000000e+00 0.000000000000e+00
0.000000000000e+00 0.000000000000e+00 0.000000000000e+00
0.000000000000e+00 0.000000000000e+00 0.000000000000e+00
0.000000000000e+00 0.000000000000e+00 0.000000000000e+00
0.000000000000e+00 0.000000000000e+00 0.000000000000e+00
0.000000000000e+00 0.000000000000e+00 0.000000000000e+00
4.696667000000e-19 1.641708000000e-19 -7.962000000000e-03
5.966312000000e-20 -3.993969000000e-20 -7.962000000000e-03
3.624852000000e-20 2.081118000000e-19 -7.962000000000e-03
3.974502000000e-19 -7.404795000000e-20 -7.962000000000e-03
-3.219514000000e-19 -4.701811000000e-20 -7.962000000000e-03
-2.073886000000e-19 2.438355000000e-19 -7.962000000000e-03
1.371300000000e-19 -3.247138000000e-19 -7.962000000000e-03
-5.702287000000e-19 -1.299006000000e-19 -7.962000000000e-03
SCALARS displacement_magnitude float 1
LOOKUP_TABLE default
0.000000000000e+00
0.000000000000e+00
0.000000000000e+00
0.000000000000e+00
0.000000000000e+00
0.000000000000e+00
0.000000000000e+00
0.000000000000e+00
7.962000000000e-03
7.962000000000e-03
7.962000000000e-03
7.962000000000e-03
7.962000000000e-03
7.962000000000e-03
7.962000000000e-03
7.962000000000e-03
CELL_DATA 2
SCALARS displacement_magnitude float 1
LOOKUP_TABLE default
0.000000000000e+00
7.962000000000e-03
SCALARS engineering_strain_norm float 1
LOOKUP_TABLE default
0.000000000000e+00
2.624703447202e-18
SCALARS von_mises float 1
LOOKUP_TABLE default
0.000000000000e+00
1.568845954242e-13
