# vtk DataFile Version 3.0
CalculiX common-time dynamic block_block_c3d8 frame 39 t=7.800000000000e-02
ASCII
DATASET UNSTRUCTURED_GRID
POINTS 16 float
-2.500000000000e-01 -2.500000000000e-01 0.000000000000e+00
2.500000000000e-01 -2.500000000000e-01 0.000000000000e+00
-2.500000000000e-01 2.500000000000e-01 0.000000000000e+00
2.500000000000e-01 2.500000000000e-01 0.000000000000e+00
-2.500000000000e-01 -2.500000000000e-01 2.400000000000e-01
2.500000000000e-01 -2.500000000000e-01 2.400000000000e-01
-2.500000000000e-01 2.500000000000e-01 2.400000000000e-01
2.500000000000e-01 2.500000000000e-01 2.400000000000e-01
-2.499993451843e-01 -2.499993451843e-01 2.564415555452e-01
2.499993451843e-01 -2.499993451843e-01 2.564415555452e-01
-2.499993451843e-01 2.499993451843e-01 2.564415555452e-01
2.499993451843e-01 2.499993451843e-01 2.564415555452e-01
-2.499993451843e-01 -2.499993451843e-01 5.164424921463e-01
2.499993451843e-01 -2.499993451843e-01 5.164424921463e-01
-2.499993451843e-01 2.499993451843e-01 5.164424921463e-01
2.499993451843e-01 2.499993451843e-01 5.164424921463e-01
CELLS 2 18
8 0 1 3 2 4 5 7 6
8 8 9 11 10 12 13 15 14
CELL_TYPES 2
12
12
POINT_DATA 16
VECTORS displacement float
0.000000000000e+00 0.000000000000e+00 0.000000000000e+00
0.000000000000e+00 0.000000000000e+00 0.000000000000e+00
0.000000000000e+00 0.000000000000e+00 0.000000000000e+00
0.000000000000e+00 0.000000000000e+00 0.000000000000e+00
0.000000000000e+00 0.000000000000e+00 0.000000000000e+00
0.000000000000e+00 0.000000000000e+00 0.000000000000e+00
0.000000000000e+00 0.000000000000e+00 0.000000000000e+00
0.000000000000e+00 0.000000000000e+00 0.000000000000e+00
6.548157419500e-07 6.548157419500e-07 1.441555545150e-03
-6.548157419500e-07 6.548157419500e-07 1.441555545150e-03
6.548157419500e-07 -6.548157419500e-07 1.441555545150e-03
-6.548157419500e-07 -6.548157419500e-07 1.441555545150e-03
6.548157419500e-07 6.548157419500e-07 1.442492146250e-03
-6.548157419500e-07 6.548157419500e-07 1.442492146250e-03
6.548157419500e-07 -6.548157419500e-07 1.442492146250e-03
-6.548157419500e-07 -6.548157419500e-07 1.442492146250e-03
SCALARS displacement_magnitude float 1
LOOKUP_TABLE default
0.000000000000e+00
0.000000000000e+00
0.000000000000e+00
0.000000000000e+00
0.000000000000e+00
0.000000000000e+00
0.000000000000e+00
0.000000000000e+00
1.441555842595e-03
1.441555842595e-03
1.441555842595e-03
1.441555842595e-03
1.442492443502e-03
1.442492443502e-03
1.442492443502e-03
1.442492443502e-03
CELL_DATA 2
SCALARS displacement_magnitude float 1
LOOKUP_TABLE default
0.000000000000e+00
1.442024143049e-03
SCALARS engineering_strain_norm float 1
LOOKUP_TABLE default
0.000000000000e+00
5.166984437766e-06
SCALARS von_mises float 1
LOOKUP_TABLE default
0.000000000000e+00
4.784415097900e-01
