# vtk DataFile Version 3.0
CalculiX common-time dynamic block_block_c3d8 frame 1 t=2.000000000000e-03
ASCII
DATASET UNSTRUCTURED_GRID
POINTS 16 float
-2.500000000000e-01 -2.500000000000e-01 0.000000000000e+00
2.500000000000e-01 -2.500000000000e-01 0.000000000000e+00
-2.500000000000e-01 2.500000000000e-01 0.000000000000e+00
2.500000000000e-01 2.500000000000e-01 0.000000000000e+00
-2.500000000000e-01 -2.500000000000e-01 2.400000000000e-01
2.500000000000e-01 -2.500000000000e-01 2.400000000000e-01
-2.500000000000e-01 2.500000000000e-01 2.400000000000e-01
2.500000000000e-01 2.500000000000e-01 2.400000000000e-01
-2.500000000000e-01 -2.500000000000e-01 2.543803800000e-01
2.500000000000e-01 -2.500000000000e-01 2.543803800000e-01
-2.500000000000e-01 2.500000000000e-01 2.543803800000e-01
2.500000000000e-01 2.500000000000e-01 2.543803800000e-01
-2.500000000000e-01 -2.500000000000e-01 5.143803800000e-01
2.500000000000e-01 -2.500000000000e-01 5.143803800000e-01
-2.500000000000e-01 2.500000000000e-01 5.143803800000e-01
2.500000000000e-01 2.500000000000e-01 5.143803800000e-01
CELLS 2 18
8 0 1 3 2 4 5 7 6
8 8 9 11 10 12 13 15 14
CELL_TYPES 2
12
12
POINT_DATA 16
VECTORS displacement float
0.000000000000e+00 0.000000000000e+00 0.000000000000e+00
0.000000000000e+00 0.000000000000e+00 0.000000000000e+00
0.000000000000e+00 0.000000000000e+00 0.000000000000e+00
0.000000000000e+00 0.000000000000e+00 0.000000000000e+00
0.000000000000e+00 0.000000000000e+00 0.000000000000e+00
0.000000000000e+00 0.000000000000e+00 0.000000000000e+00
0.000000000000e+00 0.000000000000e+00 0.000000000000e+00
0.000000000000e+00 0.000000000000e+00 0.000000000000e+00
-7.622478000000e-23 1.084441000000e-20 -6.196200000000e-04
4.829269000000e-21 -1.355257000000e-20 -6.196200000000e-04
5.538707000000e-21 -1.558162000000e-20 -6.196200000000e-04
-3.247096000000e-22 1.191109000000e-20 -6.196200000000e-04
4.989070000000e-21 -8.684349000000e-21 -6.196200000000e-04
-9.744935000000e-21 1.189960000000e-20 -6.196200000000e-04
-9.942927000000e-21 1.344817000000e-20 -6.196200000000e-04
4.762721000000e-21 -1.025860000000e-20 -6.196200000000e-04
SCALARS displacement_magnitude float 1
LOOKUP_TABLE default
0.000000000000e+00
0.000000000000e+00
0.000000000000e+00
0.000000000000e+00
0.000000000000e+00
0.000000000000e+00
0.000000000000e+00
0.000000000000e+00
6.196200000000e-04
6.196200000000e-04
6.196200000000e-04
6.196200000000e-04
6.196200000000e-04
6.196200000000e-04
6.196200000000e-04
6.196200000000e-04
CELL_DATA 2
SCALARS displacement_magnitude float 1
LOOKUP_TABLE default
0.000000000000e+00
6.196200000000e-04
SCALARS engineering_strain_norm float 1
LOOKUP_TABLE default
0.000000000000e+00
2.180311872734e-19
SCALARS von_mises float 1
LOOKUP_TABLE default
0.000000000000e+00
1.324577692869e-14
