# vtk DataFile Version 3.0
SFC long-time C3D8 dynamic frame 4 t=8.000000000000e-02
ASCII
DATASET UNSTRUCTURED_GRID
POINTS 250 float
-2.500000000000e-01 -2.500000000000e-01 0.000000000000e+00
-1.250000000000e-01 -2.500000000000e-01 0.000000000000e+00
0.000000000000e+00 -2.500000000000e-01 0.000000000000e+00
1.250000000000e-01 -2.500000000000e-01 0.000000000000e+00
2.500000000000e-01 -2.500000000000e-01 0.000000000000e+00
-2.500000000000e-01 -1.250000000000e-01 0.000000000000e+00
-1.250000000000e-01 -1.250000000000e-01 0.000000000000e+00
0.000000000000e+00 -1.250000000000e-01 0.000000000000e+00
1.250000000000e-01 -1.250000000000e-01 0.000000000000e+00
2.500000000000e-01 -1.250000000000e-01 0.000000000000e+00
-2.500000000000e-01 0.000000000000e+00 0.000000000000e+00
-1.250000000000e-01 0.000000000000e+00 0.000000000000e+00
0.000000000000e+00 0.000000000000e+00 0.000000000000e+00
1.250000000000e-01 0.000000000000e+00 0.000000000000e+00
2.500000000000e-01 0.000000000000e+00 0.000000000000e+00
-2.500000000000e-01 1.250000000000e-01 0.000000000000e+00
-1.250000000000e-01 1.250000000000e-01 0.000000000000e+00
0.000000000000e+00 1.250000000000e-01 0.000000000000e+00
1.250000000000e-01 1.250000000000e-01 0.000000000000e+00
2.500000000000e-01 1.250000000000e-01 0.000000000000e+00
-2.500000000000e-01 2.500000000000e-01 0.000000000000e+00
-1.250000000000e-01 2.500000000000e-01 0.000000000000e+00
0.000000000000e+00 2.500000000000e-01 0.000000000000e+00
1.250000000000e-01 2.500000000000e-01 0.000000000000e+00
2.500000000000e-01 2.500000000000e-01 0.000000000000e+00
-2.500000000000e-01 -2.500000000000e-01 6.000000000000e-02
-1.250000000000e-01 -2.500000000000e-01 6.000000000000e-02
0.000000000000e+00 -2.500000000000e-01 6.000000000000e-02
1.250000000000e-01 -2.500000000000e-01 6.000000000000e-02
2.500000000000e-01 -2.500000000000e-01 6.000000000000e-02
-2.500000000000e-01 -1.250000000000e-01 6.000000000000e-02
-1.250000000000e-01 -1.250000000000e-01 6.000000000000e-02
0.000000000000e+00 -1.250000000000e-01 6.000000000000e-02
1.250000000000e-01 -1.250000000000e-01 6.000000000000e-02
2.500000000000e-01 -1.250000000000e-01 6.000000000000e-02
-2.500000000000e-01 0.000000000000e+00 6.000000000000e-02
-1.250000000000e-01 0.000000000000e+00 6.000000000000e-02
0.000000000000e+00 0.000000000000e+00 6.000000000000e-02
1.250000000000e-01 0.000000000000e+00 6.000000000000e-02
2.500000000000e-01 0.000000000000e+00 6.000000000000e-02
-2.500000000000e-01 1.250000000000e-01 6.000000000000e-02
-1.250000000000e-01 1.250000000000e-01 6.000000000000e-02
0.000000000000e+00 1.250000000000e-01 6.000000000000e-02
1.250000000000e-01 1.250000000000e-01 6.000000000000e-02
2.500000000000e-01 1.250000000000e-01 6.000000000000e-02
-2.500000000000e-01 2.500000000000e-01 6.000000000000e-02
-1.250000000000e-01 2.500000000000e-01 6.000000000000e-02
0.000000000000e+00 2.500000000000e-01 6.000000000000e-02
1.250000000000e-01 2.500000000000e-01 6.000000000000e-02
2.500000000000e-01 2.500000000000e-01 6.000000000000e-02
-2.500000000000e-01 -2.500000000000e-01 1.200000000000e-01
-1.250000000000e-01 -2.500000000000e-01 1.200000000000e-01
0.000000000000e+00 -2.500000000000e-01 1.200000000000e-01
1.250000000000e-01 -2.500000000000e-01 1.200000000000e-01
2.500000000000e-01 -2.500000000000e-01 1.200000000000e-01
-2.500000000000e-01 -1.250000000000e-01 1.200000000000e-01
-1.250000000000e-01 -1.250000000000e-01 1.200000000000e-01
0.000000000000e+00 -1.250000000000e-01 1.200000000000e-01
1.250000000000e-01 -1.250000000000e-01 1.200000000000e-01
2.500000000000e-01 -1.250000000000e-01 1.200000000000e-01
-2.500000000000e-01 0.000000000000e+00 1.200000000000e-01
-1.250000000000e-01 0.000000000000e+00 1.200000000000e-01
0.000000000000e+00 0.000000000000e+00 1.200000000000e-01
1.250000000000e-01 0.000000000000e+00 1.200000000000e-01
2.500000000000e-01 0.000000000000e+00 1.200000000000e-01
-2.500000000000e-01 1.250000000000e-01 1.200000000000e-01
-1.250000000000e-01 1.250000000000e-01 1.200000000000e-01
0.000000000000e+00 1.250000000000e-01 1.200000000000e-01
1.250000000000e-01 1.250000000000e-01 1.200000000000e-01
2.500000000000e-01 1.250000000000e-01 1.200000000000e-01
-2.500000000000e-01 2.500000000000e-01 1.200000000000e-01
-1.250000000000e-01 2.500000000000e-01 1.200000000000e-01
0.000000000000e+00 2.500000000000e-01 1.200000000000e-01
1.250000000000e-01 2.500000000000e-01 1.200000000000e-01
2.500000000000e-01 2.500000000000e-01 1.200000000000e-01
-2.500000000000e-01 -2.500000000000e-01 1.800000000000e-01
-1.250000000000e-01 -2.500000000000e-01 1.800000000000e-01
0.000000000000e+00 -2.500000000000e-01 1.800000000000e-01
1.250000000000e-01 -2.500000000000e-01 1.800000000000e-01
2.500000000000e-01 -2.500000000000e-01 1.800000000000e-01
-2.500000000000e-01 -1.250000000000e-01 1.800000000000e-01
-1.250000000000e-01 -1.250000000000e-01 1.800000000000e-01
0.000000000000e+00 -1.250000000000e-01 1.800000000000e-01
1.250000000000e-01 -1.250000000000e-01 1.800000000000e-01
2.500000000000e-01 -1.250000000000e-01 1.800000000000e-01
-2.500000000000e-01 0.000000000000e+00 1.800000000000e-01
-1.250000000000e-01 0.000000000000e+00 1.800000000000e-01
0.000000000000e+00 0.000000000000e+00 1.800000000000e-01
1.250000000000e-01 0.000000000000e+00 1.800000000000e-01
2.500000000000e-01 0.000000000000e+00 1.800000000000e-01
-2.500000000000e-01 1.250000000000e-01 1.800000000000e-01
-1.250000000000e-01 1.250000000000e-01 1.800000000000e-01
0.000000000000e+00 1.250000000000e-01 1.800000000000e-01
1.250000000000e-01 1.250000000000e-01 1.800000000000e-01
2.500000000000e-01 1.250000000000e-01 1.800000000000e-01
-2.500000000000e-01 2.500000000000e-01 1.800000000000e-01
-1.250000000000e-01 2.500000000000e-01 1.800000000000e-01
0.000000000000e+00 2.500000000000e-01 1.800000000000e-01
1.250000000000e-01 2.500000000000e-01 1.800000000000e-01
2.500000000000e-01 2.500000000000e-01 1.800000000000e-01
-2.500000000000e-01 -2.500000000000e-01 2.400000000000e-01
-1.250000000000e-01 -2.500000000000e-01 2.400000000000e-01
0.000000000000e+00 -2.500000000000e-01 2.400000000000e-01
1.250000000000e-01 -2.500000000000e-01 2.400000000000e-01
2.500000000000e-01 -2.500000000000e-01 2.400000000000e-01
-2.500000000000e-01 -1.250000000000e-01 2.400000000000e-01
-1.250000000000e-01 -1.250000000000e-01 2.400000000000e-01
0.000000000000e+00 -1.250000000000e-01 2.400000000000e-01
1.250000000000e-01 -1.250000000000e-01 2.400000000000e-01
2.500000000000e-01 -1.250000000000e-01 2.400000000000e-01
-2.500000000000e-01 0.000000000000e+00 2.400000000000e-01
-1.250000000000e-01 0.000000000000e+00 2.400000000000e-01
0.000000000000e+00 0.000000000000e+00 2.400000000000e-01
1.250000000000e-01 0.000000000000e+00 2.400000000000e-01
2.500000000000e-01 0.000000000000e+00 2.400000000000e-01
-2.500000000000e-01 1.250000000000e-01 2.400000000000e-01
-1.250000000000e-01 1.250000000000e-01 2.400000000000e-01
0.000000000000e+00 1.250000000000e-01 2.400000000000e-01
1.250000000000e-01 1.250000000000e-01 2.400000000000e-01
2.500000000000e-01 1.250000000000e-01 2.400000000000e-01
-2.500000000000e-01 2.500000000000e-01 2.400000000000e-01
-1.250000000000e-01 2.500000000000e-01 2.400000000000e-01
0.000000000000e+00 2.500000000000e-01 2.400000000000e-01
1.250000000000e-01 2.500000000000e-01 2.400000000000e-01
2.500000000000e-01 2.500000000000e-01 2.400000000000e-01
-2.500000000000e-01 -2.500000000000e-01 2.491412034697e-01
-1.250000000000e-01 -2.500000000000e-01 2.491412034697e-01
6.922835856885e-16 -2.500000000000e-01 2.491412034697e-01
1.250000000000e-01 -2.500000000000e-01 2.491412034697e-01
2.500000000000e-01 -2.500000000000e-01 2.491412034697e-01
-2.500000000000e-01 -1.250000000000e-01 2.491412034697e-01
-1.250000000000e-01 -1.250000000000e-01 2.491412034697e-01
7.018765895937e-16 -1.250000000000e-01 2.491412034697e-01
1.250000000000e-01 -1.250000000000e-01 2.491412034697e-01
2.500000000000e-01 -1.250000000000e-01 2.491412034697e-01
-2.500000000000e-01 -1.355393255874e-16 2.491412034697e-01
-1.250000000000e-01 -1.438868931760e-16 2.491412034697e-01
7.110218903768e-16 -1.540390404589e-16 2.491412034697e-01
1.250000000000e-01 -1.635266394363e-16 2.491412034697e-01
2.500000000000e-01 -1.724358483238e-16 2.491412034697e-01
-2.500000000000e-01 1.250000000000e-01 2.491412034697e-01
-1.250000000000e-01 1.250000000000e-01 2.491412034697e-01
7.192342687898e-16 1.250000000000e-01 2.491412034697e-01
1.250000000000e-01 1.250000000000e-01 2.491412034697e-01
2.500000000000e-01 1.250000000000e-01 2.491412034697e-01
-2.500000000000e-01 2.500000000000e-01 2.491412034697e-01
-1.250000000000e-01 2.500000000000e-01 2.491412034697e-01
7.277464346381e-16 2.500000000000e-01 2.491412034697e-01
1.250000000000e-01 2.500000000000e-01 2.491412034697e-01
2.500000000000e-01 2.500000000000e-01 2.491412034697e-01
-2.500000000000e-01 -2.500000000000e-01 3.141412034697e-01
-1.250000000000e-01 -2.500000000000e-01 3.141412034697e-01
3.504266009275e-16 -2.500000000000e-01 3.141412034697e-01
1.250000000000e-01 -2.500000000000e-01 3.141412034697e-01
2.500000000000e-01 -2.500000000000e-01 3.141412034697e-01
-2.500000000000e-01 -1.250000000000e-01 3.141412034697e-01
-1.250000000000e-01 -1.250000000000e-01 3.141412034697e-01
3.594383792589e-16 -1.250000000000e-01 3.141412034697e-01
1.250000000000e-01 -1.250000000000e-01 3.141412034697e-01
2.500000000000e-01 -1.250000000000e-01 3.141412034697e-01
-2.500000000000e-01 -1.372758474247e-16 3.141412034697e-01
-1.250000000000e-01 -1.455436748405e-16 3.141412034697e-01
3.676961690498e-16 -1.551949385443e-16 3.141412034697e-01
1.250000000000e-01 -1.647518773815e-16 3.141412034697e-01
2.500000000000e-01 -1.734765765570e-16 3.141412034697e-01
-2.500000000000e-01 1.250000000000e-01 3.141412034697e-01
-1.250000000000e-01 1.250000000000e-01 3.141412034697e-01
3.757114757401e-16 1.250000000000e-01 3.141412034697e-01
1.250000000000e-01 1.250000000000e-01 3.141412034697e-01
2.500000000000e-01 1.250000000000e-01 3.141412034697e-01
-2.500000000000e-01 2.500000000000e-01 3.141412034697e-01
-1.250000000000e-01 2.500000000000e-01 3.141412034697e-01
3.847451364796e-16 2.500000000000e-01 3.141412034697e-01
1.250000000000e-01 2.500000000000e-01 3.141412034697e-01
2.500000000000e-01 2.500000000000e-01 3.141412034697e-01
-2.500000000000e-01 -2.500000000000e-01 3.791412034697e-01
-1.250000000000e-01 -2.500000000000e-01 3.791412034697e-01
7.420012407125e-18 -2.500000000000e-01 3.791412034697e-01
1.250000000000e-01 -2.500000000000e-01 3.791412034697e-01
2.500000000000e-01 -2.500000000000e-01 3.791412034697e-01
-2.500000000000e-01 -1.250000000000e-01 3.791412034697e-01
-1.250000000000e-01 -1.250000000000e-01 3.791412034697e-01
1.608648191243e-17 -1.250000000000e-01 3.791412034697e-01
1.250000000000e-01 -1.250000000000e-01 3.791412034697e-01
2.500000000000e-01 -1.250000000000e-01 3.791412034697e-01
-2.500000000000e-01 -1.394087689648e-16 3.791412034697e-01
-1.250000000000e-01 -1.480201702951e-16 3.791412034697e-01
2.430803265072e-17 -1.571704245312e-16 3.791412034697e-01
1.250000000000e-01 -1.670515385657e-16 3.791412034697e-01
2.500000000000e-01 -1.755359596491e-16 3.791412034697e-01
-2.500000000000e-01 1.250000000000e-01 3.791412034697e-01
-1.250000000000e-01 1.250000000000e-01 3.791412034697e-01
3.225116186668e-17 1.250000000000e-01 3.791412034697e-01
1.250000000000e-01 1.250000000000e-01 3.791412034697e-01
2.500000000000e-01 1.250000000000e-01 3.791412034697e-01
-2.500000000000e-01 2.500000000000e-01 3.791412034697e-01
-1.250000000000e-01 2.500000000000e-01 3.791412034697e-01
4.161982983029e-17 2.500000000000e-01 3.791412034697e-01
1.250000000000e-01 2.500000000000e-01 3.791412034697e-01
2.500000000000e-01 2.500000000000e-01 3.791412034697e-01
-2.500000000000e-01 -2.500000000000e-01 4.441412034697e-01
-1.250000000000e-01 -2.500000000000e-01 4.441412034697e-01
-3.364909711544e-16 -2.500000000000e-01 4.441412034697e-01
1.250000000000e-01 -2.500000000000e-01 4.441412034697e-01
2.500000000000e-01 -2.500000000000e-01 4.441412034697e-01
-2.500000000000e-01 -1.250000000000e-01 4.441412034697e-01
-1.250000000000e-01 -1.250000000000e-01 4.441412034697e-01
-3.269466304468e-16 -1.250000000000e-01 4.441412034697e-01
1.250000000000e-01 -1.250000000000e-01 4.441412034697e-01
2.500000000000e-01 -1.250000000000e-01 4.441412034697e-01
-2.500000000000e-01 -1.423873987490e-16 4.441412034697e-01
-1.250000000000e-01 -1.499654660745e-16 4.441412034697e-01
-3.191860934211e-16 -1.602910414364e-16 4.441412034697e-01
1.250000000000e-01 -1.680251334922e-16 4.441412034697e-01
2.500000000000e-01 -1.779009930449e-16 4.441412034697e-01
-2.500000000000e-01 1.250000000000e-01 4.441412034697e-01
-1.250000000000e-01 1.250000000000e-01 4.441412034697e-01
-3.095385501421e-16 1.250000000000e-01 4.441412034697e-01
1.250000000000e-01 1.250000000000e-01 4.441412034697e-01
2.500000000000e-01 1.250000000000e-01 4.441412034697e-01
-2.500000000000e-01 2.500000000000e-01 4.441412034697e-01
-1.250000000000e-01 2.500000000000e-01 4.441412034697e-01
-3.005834146466e-16 2.500000000000e-01 4.441412034697e-01
1.250000000000e-01 2.500000000000e-01 4.441412034697e-01
2.500000000000e-01 2.500000000000e-01 4.441412034697e-01
-2.500000000000e-01 -2.500000000000e-01 5.091412034697e-01
-1.250000000000e-01 -2.500000000000e-01 5.091412034697e-01
-6.801388521393e-16 -2.500000000000e-01 5.091412034697e-01
1.250000000000e-01 -2.500000000000e-01 5.091412034697e-01
2.500000000000e-01 -2.500000000000e-01 5.091412034697e-01
-2.500000000000e-01 -1.250000000000e-01 5.091412034697e-01
-1.250000000000e-01 -1.250000000000e-01 5.091412034697e-01
-6.712552780382e-16 -1.250000000000e-01 5.091412034697e-01
1.250000000000e-01 -1.250000000000e-01 5.091412034697e-01
2.500000000000e-01 -1.250000000000e-01 5.091412034697e-01
-2.500000000000e-01 -1.446571612187e-16 5.091412034697e-01
-1.250000000000e-01 -1.539017294239e-16 5.091412034697e-01
-6.622575362375e-16 -1.606172030266e-16 5.091412034697e-01
1.250000000000e-01 -1.686920870528e-16 5.091412034697e-01
2.500000000000e-01 -1.775618481886e-16 5.091412034697e-01
-2.500000000000e-01 1.250000000000e-01 5.091412034697e-01
-1.250000000000e-01 1.250000000000e-01 5.091412034697e-01
-6.512911934252e-16 1.250000000000e-01 5.091412034697e-01
1.250000000000e-01 1.250000000000e-01 5.091412034697e-01
2.500000000000e-01 1.250000000000e-01 5.091412034697e-01
-2.500000000000e-01 2.500000000000e-01 5.091412034697e-01
-1.250000000000e-01 2.500000000000e-01 5.091412034697e-01
-6.437173717344e-16 2.500000000000e-01 5.091412034697e-01
1.250000000000e-01 2.500000000000e-01 5.091412034697e-01
2.500000000000e-01 2.500000000000e-01 5.091412034697e-01
CELLS 128 1152
8 0 1 6 5 25 26 31 30
8 1 2 7 6 26 27 32 31
8 2 3 8 7 27 28 33 32
8 3 4 9 8 28 29 34 33
8 5 6 11 10 30 31 36 35
8 6 7 12 11 31 32 37 36
8 7 8 13 12 32 33 38 37
8 8 9 14 13 33 34 39 38
8 10 11 16 15 35 36 41 40
8 11 12 17 16 36 37 42 41
8 12 13 18 17 37 38 43 42
8 13 14 19 18 38 39 44 43
8 15 16 21 20 40 41 46 45
8 16 17 22 21 41 42 47 46
8 17 18 23 22 42 43 48 47
8 18 19 24 23 43 44 49 48
8 25 26 31 30 50 51 56 55
8 26 27 32 31 51 52 57 56
8 27 28 33 32 52 53 58 57
8 28 29 34 33 53 54 59 58
8 30 31 36 35 55 56 61 60
8 31 32 37 36 56 57 62 61
8 32 33 38 37 57 58 63 62
8 33 34 39 38 58 59 64 63
8 35 36 41 40 60 61 66 65
8 36 37 42 41 61 62 67 66
8 37 38 43 42 62 63 68 67
8 38 39 44 43 63 64 69 68
8 40 41 46 45 65 66 71 70
8 41 42 47 46 66 67 72 71
8 42 43 48 47 67 68 73 72
8 43 44 49 48 68 69 74 73
8 50 51 56 55 75 76 81 80
8 51 52 57 56 76 77 82 81
8 52 53 58 57 77 78 83 82
8 53 54 59 58 78 79 84 83
8 55 56 61 60 80 81 86 85
8 56 57 62 61 81 82 87 86
8 57 58 63 62 82 83 88 87
8 58 59 64 63 83 84 89 88
8 60 61 66 65 85 86 91 90
8 61 62 67 66 86 87 92 91
8 62 63 68 67 87 88 93 92
8 63 64 69 68 88 89 94 93
8 65 66 71 70 90 91 96 95
8 66 67 72 71 91 92 97 96
8 67 68 73 72 92 93 98 97
8 68 69 74 73 93 94 99 98
8 75 76 81 80 100 101 106 105
8 76 77 82 81 101 102 107 106
8 77 78 83 82 102 103 108 107
8 78 79 84 83 103 104 109 108
8 80 81 86 85 105 106 111 110
8 81 82 87 86 106 107 112 111
8 82 83 88 87 107 108 113 112
8 83 84 89 88 108 109 114 113
8 85 86 91 90 110 111 116 115
8 86 87 92 91 111 112 117 116
8 87 88 93 92 112 113 118 117
8 88 89 94 93 113 114 119 118
8 90 91 96 95 115 116 121 120
8 91 92 97 96 116 117 122 121
8 92 93 98 97 117 118 123 122
8 93 94 99 98 118 119 124 123
8 125 126 131 130 150 151 156 155
8 126 127 132 131 151 152 157 156
8 127 128 133 132 152 153 158 157
8 128 129 134 133 153 154 159 158
8 130 131 136 135 155 156 161 160
8 131 132 137 136 156 157 162 161
8 132 133 138 137 157 158 163 162
8 133 134 139 138 158 159 164 163
8 135 136 141 140 160 161 166 165
8 136 137 142 141 161 162 167 166
8 137 138 143 142 162 163 168 167
8 138 139 144 143 163 164 169 168
8 140 141 146 145 165 166 171 170
8 141 142 147 146 166 167 172 171
8 142 143 148 147 167 168 173 172
8 143 144 149 148 168 169 174 173
8 150 151 156 155 175 176 181 180
8 151 152 157 156 176 177 182 181
8 152 153 158 157 177 178 183 182
8 153 154 159 158 178 179 184 183
8 155 156 161 160 180 181 186 185
8 156 157 162 161 181 182 187 186
8 157 158 163 162 182 183 188 187
8 158 159 164 163 183 184 189 188
8 160 161 166 165 185 186 191 190
8 161 162 167 166 186 187 192 191
8 162 163 168 167 187 188 193 192
8 163 164 169 168 188 189 194 193
8 165 166 171 170 190 191 196 195
8 166 167 172 171 191 192 197 196
8 167 168 173 172 192 193 198 197
8 168 169 174 173 193 194 199 198
8 175 176 181 180 200 201 206 205
8 176 177 182 181 201 202 207 206
8 177 178 183 182 202 203 208 207
8 178 179 184 183 203 204 209 208
8 180 181 186 185 205 206 211 210
8 181 182 187 186 206 207 212 211
8 182 183 188 187 207 208 213 212
8 183 184 189 188 208 209 214 213
8 185 186 191 190 210 211 216 215
8 186 187 192 191 211 212 217 216
8 187 188 193 192 212 213 218 217
8 188 189 194 193 213 214 219 218
8 190 191 196 195 215 216 221 220
8 191 192 197 196 216 217 222 221
8 192 193 198 197 217 218 223 222
8 193 194 199 198 218 219 224 223
8 200 201 206 205 225 226 231 230
8 201 202 207 206 226 227 232 231
8 202 203 208 207 227 228 233 232
8 203 204 209 208 228 229 234 233
8 205 206 211 210 230 231 236 235
8 206 207 212 211 231 232 237 236
8 207 208 213 212 232 233 238 237
8 208 209 214 213 233 234 239 238
8 210 211 216 215 235 236 241 240
8 211 212 217 216 236 237 242 241
8 212 213 218 217 237 238 243 242
8 213 214 219 218 238 239 244 243
8 215 216 221 220 240 241 246 245
8 216 217 222 221 241 242 247 246
8 217 218 223 222 242 243 248 247
8 218 219 224 223 243 244 249 248
CELL_TYPES 128
12
12
12
12
12
12
12
12
12
12
12
12
12
12
12
12
12
12
12
12
12
12
12
12
12
12
12
12
12
12
12
12
12
12
12
12
12
12
12
12
12
12
12
12
12
12
12
12
12
12
12
12
12
12
12
12
12
12
12
12
12
12
12
12
12
12
12
12
12
12
12
12
12
12
12
12
12
12
12
12
12
12
12
12
12
12
12
12
12
12
12
12
12
12
12
12
12
12
12
12
12
12
12
12
12
12
12
12
12
12
12
12
12
12
12
12
12
12
12
12
12
12
12
12
12
12
12
12
POINT_DATA 250
VECTORS displacement float
0.000000000000e+00 0.000000000000e+00 0.000000000000e+00
0.000000000000e+00 0.000000000000e+00 0.000000000000e+00
0.000000000000e+00 0.000000000000e+00 0.000000000000e+00
0.000000000000e+00 0.000000000000e+00 0.000000000000e+00
0.000000000000e+00 0.000000000000e+00 0.000000000000e+00
0.000000000000e+00 0.000000000000e+00 0.000000000000e+00
0.000000000000e+00 0.000000000000e+00 0.000000000000e+00
0.000000000000e+00 0.000000000000e+00 0.000000000000e+00
0.000000000000e+00 0.000000000000e+00 0.000000000000e+00
0.000000000000e+00 0.000000000000e+00 0.000000000000e+00
0.000000000000e+00 0.000000000000e+00 0.000000000000e+00
0.000000000000e+00 0.000000000000e+00 0.000000000000e+00
0.000000000000e+00 0.000000000000e+00 0.000000000000e+00
0.000000000000e+00 0.000000000000e+00 0.000000000000e+00
0.000000000000e+00 0.000000000000e+00 0.000000000000e+00
0.000000000000e+00 0.000000000000e+00 0.000000000000e+00
0.000000000000e+00 0.000000000000e+00 0.000000000000e+00
0.000000000000e+00 0.000000000000e+00 0.000000000000e+00
0.000000000000e+00 0.000000000000e+00 0.000000000000e+00
0.000000000000e+00 0.000000000000e+00 0.000000000000e+00
0.000000000000e+00 0.000000000000e+00 0.000000000000e+00
0.000000000000e+00 0.000000000000e+00 0.000000000000e+00
0.000000000000e+00 0.000000000000e+00 0.000000000000e+00
0.000000000000e+00 0.000000000000e+00 0.000000000000e+00
0.000000000000e+00 0.000000000000e+00 0.000000000000e+00
0.000000000000e+00 0.000000000000e+00 0.000000000000e+00
0.000000000000e+00 0.000000000000e+00 0.000000000000e+00
0.000000000000e+00 0.000000000000e+00 0.000000000000e+00
0.000000000000e+00 0.000000000000e+00 0.000000000000e+00
0.000000000000e+00 0.000000000000e+00 0.000000000000e+00
0.000000000000e+00 0.000000000000e+00 0.000000000000e+00
0.000000000000e+00 0.000000000000e+00 0.000000000000e+00
0.000000000000e+00 0.000000000000e+00 0.000000000000e+00
0.000000000000e+00 0.000000000000e+00 0.000000000000e+00
0.000000000000e+00 0.000000000000e+00 0.000000000000e+00
0.000000000000e+00 0.000000000000e+00 0.000000000000e+00
0.000000000000e+00 0.000000000000e+00 0.000000000000e+00
0.000000000000e+00 0.000000000000e+00 0.000000000000e+00
0.000000000000e+00 0.000000000000e+00 0.000000000000e+00
0.000000000000e+00 0.000000000000e+00 0.000000000000e+00
0.000000000000e+00 0.000000000000e+00 0.000000000000e+00
0.000000000000e+00 0.000000000000e+00 0.000000000000e+00
0.000000000000e+00 0.000000000000e+00 0.000000000000e+00
0.000000000000e+00 0.000000000000e+00 0.000000000000e+00
0.000000000000e+00 0.000000000000e+00 0.000000000000e+00
0.000000000000e+00 0.000000000000e+00 0.000000000000e+00
0.000000000000e+00 0.000000000000e+00 0.000000000000e+00
0.000000000000e+00 0.000000000000e+00 0.000000000000e+00
0.000000000000e+00 0.000000000000e+00 0.000000000000e+00
0.000000000000e+00 0.000000000000e+00 0.000000000000e+00
0.000000000000e+00 0.000000000000e+00 0.000000000000e+00
0.000000000000e+00 0.000000000000e+00 0.000000000000e+00
0.000000000000e+00 0.000000000000e+00 0.000000000000e+00
0.000000000000e+00 0.000000000000e+00 0.000000000000e+00
0.000000000000e+00 0.000000000000e+00 0.000000000000e+00
0.000000000000e+00 0.000000000000e+00 0.000000000000e+00
0.000000000000e+00 0.000000000000e+00 0.000000000000e+00
0.000000000000e+00 0.000000000000e+00 0.000000000000e+00
0.000000000000e+00 0.000000000000e+00 0.000000000000e+00
0.000000000000e+00 0.000000000000e+00 0.000000000000e+00
0.000000000000e+00 0.000000000000e+00 0.000000000000e+00
0.000000000000e+00 0.000000000000e+00 0.000000000000e+00
0.000000000000e+00 0.000000000000e+00 0.000000000000e+00
0.000000000000e+00 0.000000000000e+00 0.000000000000e+00
0.000000000000e+00 0.000000000000e+00 0.000000000000e+00
0.000000000000e+00 0.000000000000e+00 0.000000000000e+00
0.000000000000e+00 0.000000000000e+00 0.000000000000e+00
0.000000000000e+00 0.000000000000e+00 0.000000000000e+00
0.000000000000e+00 0.000000000000e+00 0.000000000000e+00
0.000000000000e+00 0.000000000000e+00 0.000000000000e+00
0.000000000000e+00 0.000000000000e+00 0.000000000000e+00
0.000000000000e+00 0.000000000000e+00 0.000000000000e+00
0.000000000000e+00 0.000000000000e+00 0.000000000000e+00
0.000000000000e+00 0.000000000000e+00 0.000000000000e+00
0.000000000000e+00 0.000000000000e+00 0.000000000000e+00
0.000000000000e+00 0.000000000000e+00 0.000000000000e+00
0.000000000000e+00 0.000000000000e+00 0.000000000000e+00
0.000000000000e+00 0.000000000000e+00 0.000000000000e+00
0.000000000000e+00 0.000000000000e+00 0.000000000000e+00
0.000000000000e+00 0.000000000000e+00 0.000000000000e+00
0.000000000000e+00 0.000000000000e+00 0.000000000000e+00
0.000000000000e+00 0.000000000000e+00 0.000000000000e+00
0.000000000000e+00 0.000000000000e+00 0.000000000000e+00
0.000000000000e+00 0.000000000000e+00 0.000000000000e+00
0.000000000000e+00 0.000000000000e+00 0.000000000000e+00
0.000000000000e+00 0.000000000000e+00 0.000000000000e+00
0.000000000000e+00 0.000000000000e+00 0.000000000000e+00
0.000000000000e+00 0.000000000000e+00 0.000000000000e+00
0.000000000000e+00 0.000000000000e+00 0.000000000000e+00
0.000000000000e+00 0.000000000000e+00 0.000000000000e+00
0.000000000000e+00 0.000000000000e+00 0.000000000000e+00
0.000000000000e+00 0.000000000000e+00 0.000000000000e+00
0.000000000000e+00 0.000000000000e+00 0.000000000000e+00
0.000000000000e+00 0.000000000000e+00 0.000000000000e+00
0.000000000000e+00 0.000000000000e+00 0.000000000000e+00
0.000000000000e+00 0.000000000000e+00 0.000000000000e+00
0.000000000000e+00 0.000000000000e+00 0.000000000000e+00
0.000000000000e+00 0.000000000000e+00 0.000000000000e+00
0.000000000000e+00 0.000000000000e+00 0.000000000000e+00
0.000000000000e+00 0.000000000000e+00 0.000000000000e+00
0.000000000000e+00 0.000000000000e+00 0.000000000000e+00
0.000000000000e+00 0.000000000000e+00 0.000000000000e+00
0.000000000000e+00 0.000000000000e+00 0.000000000000e+00
0.000000000000e+00 0.000000000000e+00 0.000000000000e+00
0.000000000000e+00 0.000000000000e+00 0.000000000000e+00
0.000000000000e+00 0.000000000000e+00 0.000000000000e+00
0.000000000000e+00 0.000000000000e+00 0.000000000000e+00
0.000000000000e+00 0.000000000000e+00 0.000000000000e+00
0.000000000000e+00 0.000000000000e+00 0.000000000000e+00
0.000000000000e+00 0.000000000000e+00 0.000000000000e+00
0.000000000000e+00 0.000000000000e+00 0.000000000000e+00
0.000000000000e+00 0.000000000000e+00 0.000000000000e+00
0.000000000000e+00 0.000000000000e+00 0.000000000000e+00
0.000000000000e+00 0.000000000000e+00 0.000000000000e+00
0.000000000000e+00 0.000000000000e+00 0.000000000000e+00
0.000000000000e+00 0.000000000000e+00 0.000000000000e+00
0.000000000000e+00 0.000000000000e+00 0.000000000000e+00
0.000000000000e+00 0.000000000000e+00 0.000000000000e+00
0.000000000000e+00 0.000000000000e+00 0.000000000000e+00
0.000000000000e+00 0.000000000000e+00 0.000000000000e+00
0.000000000000e+00 0.000000000000e+00 0.000000000000e+00
0.000000000000e+00 0.000000000000e+00 0.000000000000e+00
0.000000000000e+00 0.000000000000e+00 0.000000000000e+00
0.000000000000e+00 0.000000000000e+00 0.000000000000e+00
0.000000000000e+00 0.000000000000e+00 0.000000000000e+00
6.943993161980e-16 -1.401372976952e-16 -5.858796530294e-03
6.935311685791e-16 -1.443692719324e-16 -5.858796530293e-03
6.922835856885e-16 -1.514042056220e-16 -5.858796530293e-03
6.950158421084e-16 -1.577585380068e-16 -5.858796530292e-03
7.007713969875e-16 -1.740465631355e-16 -5.858796530291e-03
7.020227083634e-16 -1.378880340290e-16 -5.858796530294e-03
7.017507072312e-16 -1.467341864930e-16 -5.858796530293e-03
7.018765895937e-16 -1.561308207604e-16 -5.858796530293e-03
7.025407618902e-16 -1.622303006857e-16 -5.858796530292e-03
7.027094269951e-16 -1.738925453159e-16 -5.858796530291e-03
7.081906557642e-16 -1.355393255874e-16 -5.858796530294e-03
7.085722494475e-16 -1.438868931760e-16 -5.858796530293e-03
7.110218903768e-16 -1.540390404589e-16 -5.858796530293e-03
7.122789936368e-16 -1.635266394363e-16 -5.858796530292e-03
7.102530560141e-16 -1.724358483238e-16 -5.858796530291e-03
7.201648138352e-16 -1.323842746569e-16 -5.858796530294e-03
7.176556367420e-16 -1.407780512394e-16 -5.858796530293e-03
7.192342687898e-16 -1.496509429710e-16 -5.858796530293e-03
7.182340154130e-16 -1.603087540826e-16 -5.858796530292e-03
7.183719103138e-16 -1.713162024776e-16 -5.858796530291e-03
7.248364653172e-16 -1.311099406853e-16 -5.858796530294e-03
7.265665322213e-16 -1.409062737023e-16 -5.858796530293e-03
7.277464346381e-16 -1.497058475246e-16 -5.858796530293e-03
7.284885945732e-16 -1.564775554673e-16 -5.858796530292e-03
7.264724524979e-16 -1.695311245551e-16 -5.858796530291e-03
3.506336477131e-16 -1.407552342084e-16 -5.858796530294e-03
3.510814882975e-16 -1.478641944127e-16 -5.858796530293e-03
3.504266009275e-16 -1.552243073309e-16 -5.858796530293e-03
3.501968573035e-16 -1.638152918458e-16 -5.858796530292e-03
3.489163278202e-16 -1.768533477520e-16 -5.858796530291e-03
3.564562756441e-16 -1.391879363677e-16 -5.858796530294e-03
3.584180771131e-16 -1.475268351228e-16 -5.858796530293e-03
3.594383792589e-16 -1.553801743863e-16 -5.858796530293e-03
3.584848334090e-16 -1.651592237437e-16 -5.858796530292e-03
3.601777925175e-16 -1.741132226062e-16 -5.858796530291e-03
3.658172466959e-16 -1.372758474247e-16 -5.858796530294e-03
3.666541177078e-16 -1.455436748405e-16 -5.858796530293e-03
3.676961690498e-16 -1.551949385443e-16 -5.858796530293e-03
3.676937924565e-16 -1.647518773815e-16 -5.858796530292e-03
3.683503886934e-16 -1.734765765570e-16 -5.858796530291e-03
3.735055329437e-16 -1.357030465999e-16 -5.858796530294e-03
3.758578655515e-16 -1.444968741350e-16 -5.858796530293e-03
3.757114757401e-16 -1.543296366529e-16 -5.858796530293e-03
3.757666698427e-16 -1.639593958805e-16 -5.858796530292e-03
3.759859573096e-16 -1.739382315505e-16 -5.858796530291e-03
3.835795072992e-16 -1.362307801564e-16 -5.858796530294e-03
3.835989417942e-16 -1.448002181015e-16 -5.858796530293e-03
3.847451364796e-16 -1.536198285347e-16 -5.858796530293e-03
3.846337821761e-16 -1.628522258220e-16 -5.858796530292e-03
3.852874703427e-16 -1.719136055228e-16 -5.858796530291e-03
7.051671363527e-18 -1.416610335974e-16 -5.858796530294e-03
7.145923442851e-18 -1.506286203916e-16 -5.858796530293e-03
7.420012407125e-18 -1.567046446073e-16 -5.858796530293e-03
5.900475611650e-18 -1.675145955791e-16 -5.858796530292e-03
5.033383816363e-18 -1.771170036543e-16 -5.858796530291e-03
1.449517196741e-17 -1.413951916076e-16 -5.858796530294e-03
1.562764505070e-17 -1.481803657946e-16 -5.858796530293e-03
1.608648191243e-17 -1.569853261309e-16 -5.858796530293e-03
1.600896173896e-17 -1.663614477483e-16 -5.858796530292e-03
1.495178414325e-17 -1.769474557299e-16 -5.858796530291e-03
2.294571286975e-17 -1.394087689648e-16 -5.858796530294e-03
2.427063371481e-17 -1.480201702951e-16 -5.858796530293e-03
2.430803265072e-17 -1.571704245312e-16 -5.858796530293e-03
2.375531169046e-17 -1.670515385657e-16 -5.858796530292e-03
2.394959170550e-17 -1.755359596491e-16 -5.858796530291e-03
3.326498220688e-17 -1.390587159818e-16 -5.858796530294e-03
3.330229733861e-17 -1.484037430735e-16 -5.858796530293e-03
3.225116186668e-17 -1.560617414884e-16 -5.858796530293e-03
3.314760595263e-17 -1.664442859717e-16 -5.858796530292e-03
3.557299963029e-17 -1.751675548914e-16 -5.858796530291e-03
4.070073506763e-17 -1.393921666238e-16 -5.858796530294e-03
4.095948577037e-17 -1.479554761214e-16 -5.858796530293e-03
4.161982983029e-17 -1.563443270664e-16 -5.858796530293e-03
4.165038221234e-17 -1.664939636276e-16 -5.858796530292e-03
4.092925659979e-17 -1.743552626402e-16 -5.858796530291e-03
-3.345909412690e-16 -1.416948884933e-16 -5.858796530294e-03
-3.369456760577e-16 -1.493884712795e-16 -5.858796530293e-03
-3.364909711544e-16 -1.574979322819e-16 -5.858796530293e-03
-3.370319427299e-16 -1.681855587780e-16 -5.858796530292e-03
-3.386880028637e-16 -1.777774132333e-16 -5.858796530291e-03
-3.305114675906e-16 -1.416152165622e-16 -5.858796530294e-03
-3.282233079443e-16 -1.493794505714e-16 -5.858796530293e-03
-3.269466304468e-16 -1.574721566234e-16 -5.858796530293e-03
-3.276797719229e-16 -1.683173005925e-16 -5.858796530292e-03
-3.282661350348e-16 -1.777748065583e-16 -5.858796530291e-03
-3.197719680218e-16 -1.423873987490e-16 -5.858796530294e-03
-3.184338171632e-16 -1.499654660745e-16 -5.858796530293e-03
-3.191860934211e-16 -1.602910414364e-16 -5.858796530293e-03
-3.183760801255e-16 -1.680251334922e-16 -5.858796530292e-03
-3.168443564374e-16 -1.779009930449e-16 -5.858796530291e-03
-3.093746910688e-16 -1.435857733367e-16 -5.858796530294e-03
-3.103063947830e-16 -1.528861831181e-16 -5.858796530293e-03
-3.095385501421e-16 -1.600397040096e-16 -5.858796530293e-03
-3.085390970543e-16 -1.694293140532e-16 -5.858796530292e-03
-3.084887302958e-16 -1.775015971858e-16 -5.858796530291e-03
-3.024909234195e-16 -1.461913381082e-16 -5.858796530294e-03
-3.013323466701e-16 -1.534603630883e-16 -5.858796530293e-03
-3.005834146466e-16 -1.607255154440e-16 -5.858796530293e-03
-2.999764314149e-16 -1.705968865788e-16 -5.858796530292e-03
-2.997869918166e-16 -1.773323381346e-16 -5.858796530291e-03
-6.817284766070e-16 -1.407741517974e-16 -5.858796530294e-03
-6.806955067331e-16 -1.429742735575e-16 -5.858796530293e-03
-6.801388521393e-16 -1.613722103842e-16 -5.858796530293e-03
-6.813175218613e-16 -1.660738305635e-16 -5.858796530292e-03
-6.820302067876e-16 -1.792980834355e-16 -5.858796530291e-03
-6.743892294583e-16 -1.411679976608e-16 -5.858796530294e-03
-6.734332063552e-16 -1.484900104110e-16 -5.858796530293e-03
-6.712552780382e-16 -1.577621898866e-16 -5.858796530293e-03
-6.702887607441e-16 -1.683574621131e-16 -5.858796530292e-03
-6.665821183855e-16 -1.778351670214e-16 -5.858796530291e-03
-6.647106263122e-16 -1.446571612187e-16 -5.858796530294e-03
-6.622909208411e-16 -1.539017294239e-16 -5.858796530293e-03
-6.622575362375e-16 -1.606172030266e-16 -5.858796530293e-03
-6.616856774110e-16 -1.686920870528e-16 -5.858796530292e-03
-6.589745755572e-16 -1.775618481886e-16 -5.858796530291e-03
-6.555109627004e-16 -1.496800550741e-16 -5.858796530294e-03
-6.530924321381e-16 -1.569652397139e-16 -5.858796530293e-03
-6.512911934252e-16 -1.656244211745e-16 -5.858796530293e-03
-6.509582823890e-16 -1.733019571160e-16 -5.858796530292e-03
-6.487392945189e-16 -1.801370773079e-16 -5.858796530291e-03
-6.438166972805e-16 -1.524466774441e-16 -5.858796530294e-03
-6.443881213204e-16 -1.581400238546e-16 -5.858796530293e-03
-6.437173717344e-16 -1.655989997171e-16 -5.858796530293e-03
-6.414014715105e-16 -1.780252333767e-16 -5.858796530292e-03
-6.402771229042e-16 -1.818593339421e-16 -5.858796530291e-03
SCALARS displacement_magnitude float 1
LOOKUP_TABLE default
0.000000000000e+00
0.000000000000e+00
0.000000000000e+00
0.000000000000e+00
0.000000000000e+00
0.000000000000e+00
0.000000000000e+00
0.000000000000e+00
0.000000000000e+00
0.000000000000e+00
0.000000000000e+00
0.000000000000e+00
0.000000000000e+00
0.000000000000e+00
0.000000000000e+00
0.000000000000e+00
0.000000000000e+00
0.000000000000e+00
0.000000000000e+00
0.000000000000e+00
0.000000000000e+00
0.000000000000e+00
0.000000000000e+00
0.000000000000e+00
0.000000000000e+00
0.000000000000e+00
0.000000000000e+00
0.000000000000e+00
0.000000000000e+00
0.000000000000e+00
0.000000000000e+00
0.000000000000e+00
0.000000000000e+00
0.000000000000e+00
0.000000000000e+00
0.000000000000e+00
0.000000000000e+00
0.000000000000e+00
0.000000000000e+00
0.000000000000e+00
0.000000000000e+00
0.000000000000e+00
0.000000000000e+00
0.000000000000e+00
0.000000000000e+00
0.000000000000e+00
0.000000000000e+00
0.000000000000e+00
0.000000000000e+00
0.000000000000e+00
0.000000000000e+00
0.000000000000e+00
0.000000000000e+00
0.000000000000e+00
0.000000000000e+00
0.000000000000e+00
0.000000000000e+00
0.000000000000e+00
0.000000000000e+00
0.000000000000e+00
0.000000000000e+00
0.000000000000e+00
0.000000000000e+00
0.000000000000e+00
0.000000000000e+00
0.000000000000e+00
0.000000000000e+00
0.000000000000e+00
0.000000000000e+00
0.000000000000e+00
0.000000000000e+00
0.000000000000e+00
0.000000000000e+00
0.000000000000e+00
0.000000000000e+00
0.000000000000e+00
0.000000000000e+00
0.000000000000e+00
0.000000000000e+00
0.000000000000e+00
0.000000000000e+00
0.000000000000e+00
0.000000000000e+00
0.000000000000e+00
0.000000000000e+00
0.000000000000e+00
0.000000000000e+00
0.000000000000e+00
0.000000000000e+00
0.000000000000e+00
0.000000000000e+00
0.000000000000e+00
0.000000000000e+00
0.000000000000e+00
0.000000000000e+00
0.000000000000e+00
0.000000000000e+00
0.000000000000e+00
0.000000000000e+00
0.000000000000e+00
0.000000000000e+00
0.000000000000e+00
0.000000000000e+00
0.000000000000e+00
0.000000000000e+00
0.000000000000e+00
0.000000000000e+00
0.000000000000e+00
0.000000000000e+00
0.000000000000e+00
0.000000000000e+00
0.000000000000e+00
0.000000000000e+00
0.000000000000e+00
0.000000000000e+00
0.000000000000e+00
0.000000000000e+00
0.000000000000e+00
0.000000000000e+00
0.000000000000e+00
0.000000000000e+00
0.000000000000e+00
0.000000000000e+00
0.000000000000e+00
0.000000000000e+00
5.858796530294e-03
5.858796530293e-03
5.858796530293e-03
5.858796530292e-03
5.858796530291e-03
5.858796530294e-03
5.858796530293e-03
5.858796530293e-03
5.858796530292e-03
5.858796530291e-03
5.858796530294e-03
5.858796530293e-03
5.858796530293e-03
5.858796530292e-03
5.858796530291e-03
5.858796530294e-03
5.858796530293e-03
5.858796530293e-03
5.858796530292e-03
5.858796530291e-03
5.858796530294e-03
5.858796530293e-03
5.858796530293e-03
5.858796530292e-03
5.858796530291e-03
5.858796530294e-03
5.858796530293e-03
5.858796530293e-03
5.858796530292e-03
5.858796530291e-03
5.858796530294e-03
5.858796530293e-03
5.858796530293e-03
5.858796530292e-03
5.858796530291e-03
5.858796530294e-03
5.858796530293e-03
5.858796530293e-03
5.858796530292e-03
5.858796530291e-03
5.858796530294e-03
5.858796530293e-03
5.858796530293e-03
5.858796530292e-03
5.858796530291e-03
5.858796530294e-03
5.858796530293e-03
5.858796530293e-03
5.858796530292e-03
5.858796530291e-03
5.858796530294e-03
5.858796530293e-03
5.858796530293e-03
5.858796530292e-03
5.858796530291e-03
5.858796530294e-03
5.858796530293e-03
5.858796530293e-03
5.858796530292e-03
5.858796530291e-03
5.858796530294e-03
5.858796530293e-03
5.858796530293e-03
5.858796530292e-03
5.858796530291e-03
5.858796530294e-03
5.858796530293e-03
5.858796530293e-03
5.858796530292e-03
5.858796530291e-03
5.858796530294e-03
5.858796530293e-03
5.858796530293e-03
5.858796530292e-03
5.858796530291e-03
5.858796530294e-03
5.858796530293e-03
5.858796530293e-03
5.858796530292e-03
5.858796530291e-03
5.858796530294e-03
5.858796530293e-03
5.858796530293e-03
5.858796530292e-03
5.858796530291e-03
5.858796530294e-03
5.858796530293e-03
5.858796530293e-03
5.858796530292e-03
5.858796530291e-03
5.858796530294e-03
5.858796530293e-03
5.858796530293e-03
5.858796530292e-03
5.858796530291e-03
5.858796530294e-03
5.858796530293e-03
5.858796530293e-03
5.858796530292e-03
5.858796530291e-03
5.858796530294e-03
5.858796530293e-03
5.858796530293e-03
5.858796530292e-03
5.858796530291e-03
5.858796530294e-03
5.858796530293e-03
5.858796530293e-03
5.858796530292e-03
5.858796530291e-03
5.858796530294e-03
5.858796530293e-03
5.858796530293e-03
5.858796530292e-03
5.858796530291e-03
5.858796530294e-03
5.858796530293e-03
5.858796530293e-03
5.858796530292e-03
5.858796530291e-03
5.858796530294e-03
5.858796530293e-03
5.858796530293e-03
5.858796530292e-03
5.858796530291e-03
CELL_DATA 128
SCALARS displacement_magnitude float 1
LOOKUP_TABLE default
0.000000000000e+00
0.000000000000e+00
0.000000000000e+00
0.000000000000e+00
0.000000000000e+00
0.000000000000e+00
0.000000000000e+00
0.000000000000e+00
0.000000000000e+00
0.000000000000e+00
0.000000000000e+00
0.000000000000e+00
0.000000000000e+00
0.000000000000e+00
0.000000000000e+00
0.000000000000e+00
0.000000000000e+00
0.000000000000e+00
0.000000000000e+00
0.000000000000e+00
0.000000000000e+00
0.000000000000e+00
0.000000000000e+00
0.000000000000e+00
0.000000000000e+00
0.000000000000e+00
0.000000000000e+00
0.000000000000e+00
0.000000000000e+00
0.000000000000e+00
0.000000000000e+00
0.000000000000e+00
0.000000000000e+00
0.000000000000e+00
0.000000000000e+00
0.000000000000e+00
0.000000000000e+00
0.000000000000e+00
0.000000000000e+00
0.000000000000e+00
0.000000000000e+00
0.000000000000e+00
0.000000000000e+00
0.000000000000e+00
0.000000000000e+00
0.000000000000e+00
0.000000000000e+00
0.000000000000e+00
0.000000000000e+00
0.000000000000e+00
0.000000000000e+00
0.000000000000e+00
0.000000000000e+00
0.000000000000e+00
0.000000000000e+00
0.000000000000e+00
0.000000000000e+00
0.000000000000e+00
0.000000000000e+00
0.000000000000e+00
0.000000000000e+00
0.000000000000e+00
0.000000000000e+00
0.000000000000e+00
5.858796530294e-03
5.858796530293e-03
5.858796530292e-03
5.858796530292e-03
5.858796530294e-03
5.858796530293e-03
5.858796530292e-03
5.858796530292e-03
5.858796530294e-03
5.858796530293e-03
5.858796530292e-03
5.858796530292e-03
5.858796530294e-03
5.858796530293e-03
5.858796530292e-03
5.858796530292e-03
5.858796530294e-03
5.858796530293e-03
5.858796530292e-03
5.858796530292e-03
5.858796530294e-03
5.858796530293e-03
5.858796530292e-03
5.858796530292e-03
5.858796530294e-03
5.858796530293e-03
5.858796530292e-03
5.858796530292e-03
5.858796530294e-03
5.858796530293e-03
5.858796530292e-03
5.858796530292e-03
5.858796530294e-03
5.858796530293e-03
5.858796530292e-03
5.858796530292e-03
5.858796530294e-03
5.858796530293e-03
5.858796530292e-03
5.858796530292e-03
5.858796530294e-03
5.858796530293e-03
5.858796530292e-03
5.858796530292e-03
5.858796530294e-03
5.858796530293e-03
5.858796530292e-03
5.858796530292e-03
5.858796530294e-03
5.858796530293e-03
5.858796530292e-03
5.858796530292e-03
5.858796530294e-03
5.858796530293e-03
5.858796530292e-03
5.858796530292e-03
5.858796530294e-03
5.858796530293e-03
5.858796530292e-03
5.858796530292e-03
5.858796530294e-03
5.858796530293e-03
5.858796530292e-03
5.858796530292e-03
SCALARS engineering_strain_norm float 1
LOOKUP_TABLE default
0.000000000000e+00
0.000000000000e+00
0.000000000000e+00
0.000000000000e+00
0.000000000000e+00
0.000000000000e+00
0.000000000000e+00
0.000000000000e+00
0.000000000000e+00
0.000000000000e+00
0.000000000000e+00
0.000000000000e+00
0.000000000000e+00
0.000000000000e+00
0.000000000000e+00
0.000000000000e+00
0.000000000000e+00
0.000000000000e+00
0.000000000000e+00
0.000000000000e+00
0.000000000000e+00
0.000000000000e+00
0.000000000000e+00
0.000000000000e+00
0.000000000000e+00
0.000000000000e+00
0.000000000000e+00
0.000000000000e+00
0.000000000000e+00
0.000000000000e+00
0.000000000000e+00
0.000000000000e+00
0.000000000000e+00
0.000000000000e+00
0.000000000000e+00
0.000000000000e+00
0.000000000000e+00
0.000000000000e+00
0.000000000000e+00
0.000000000000e+00
0.000000000000e+00
0.000000000000e+00
0.000000000000e+00
0.000000000000e+00
0.000000000000e+00
0.000000000000e+00
0.000000000000e+00
0.000000000000e+00
0.000000000000e+00
0.000000000000e+00
0.000000000000e+00
0.000000000000e+00
0.000000000000e+00
0.000000000000e+00
0.000000000000e+00
0.000000000000e+00
0.000000000000e+00
0.000000000000e+00
0.000000000000e+00
0.000000000000e+00
0.000000000000e+00
0.000000000000e+00
0.000000000000e+00
0.000000000000e+00
2.644761353929e-17
2.021958044480e-17
4.958670632282e-17
5.737673454694e-17
4.679402221856e-17
9.203278760794e-17
6.951682454843e-17
2.649657325502e-17
2.261463801610e-17
5.806935973798e-17
4.908828844894e-17
3.084886633022e-17
1.435401132074e-17
3.004138331116e-17
3.025236855033e-17
3.255552916496e-17
3.943367634929e-17
1.566400649930e-17
5.209187251026e-17
3.861048197519e-17
5.799586333073e-17
9.413021460352e-17
8.371165788967e-17
5.070467674151e-17
3.635183296592e-17
6.141804264799e-17
4.257770331132e-17
3.962341181303e-17
2.101928907821e-17
1.341255605597e-17
3.345161680836e-17
3.944849663853e-17
3.633693487210e-17
1.703696261663e-17
5.220590474929e-17
2.291850814344e-17
4.739670114998e-17
8.699345789496e-17
8.819132944155e-17
2.994534428582e-17
2.361532083031e-17
5.098268032292e-17
3.708030380508e-17
5.114065087885e-17
1.367543775037e-17
1.912234244746e-17
3.983205191186e-17
3.088284150474e-17
3.662934329811e-17
2.808613371023e-17
4.810670801279e-17
1.382039877807e-17
3.270572306506e-17
5.848253896142e-17
6.954848413710e-17
4.836345675154e-17
3.477352229866e-17
4.261728636632e-17
4.128263151256e-17
3.290605610628e-17
3.276132434529e-17
1.309602337617e-17
3.058605219632e-17
3.652009035721e-17
SCALARS von_mises float 1
LOOKUP_TABLE default
0.000000000000e+00
0.000000000000e+00
0.000000000000e+00
0.000000000000e+00
0.000000000000e+00
0.000000000000e+00
0.000000000000e+00
0.000000000000e+00
0.000000000000e+00
0.000000000000e+00
0.000000000000e+00
0.000000000000e+00
0.000000000000e+00
0.000000000000e+00
0.000000000000e+00
0.000000000000e+00
0.000000000000e+00
0.000000000000e+00
0.000000000000e+00
0.000000000000e+00
0.000000000000e+00
0.000000000000e+00
0.000000000000e+00
0.000000000000e+00
0.000000000000e+00
0.000000000000e+00
0.000000000000e+00
0.000000000000e+00
0.000000000000e+00
0.000000000000e+00
0.000000000000e+00
0.000000000000e+00
0.000000000000e+00
0.000000000000e+00
0.000000000000e+00
0.000000000000e+00
0.000000000000e+00
0.000000000000e+00
0.000000000000e+00
0.000000000000e+00
0.000000000000e+00
0.000000000000e+00
0.000000000000e+00
0.000000000000e+00
0.000000000000e+00
0.000000000000e+00
0.000000000000e+00
0.000000000000e+00
0.000000000000e+00
0.000000000000e+00
0.000000000000e+00
0.000000000000e+00
0.000000000000e+00
0.000000000000e+00
0.000000000000e+00
0.000000000000e+00
0.000000000000e+00
0.000000000000e+00
0.000000000000e+00
0.000000000000e+00
0.000000000000e+00
0.000000000000e+00
0.000000000000e+00
0.000000000000e+00
1.966243965501e-12
1.295996958089e-12
3.489787530044e-12
4.101033794827e-12
4.042064624383e-12
6.751737907285e-12
4.657904894344e-12
1.822695766020e-12
1.716442708422e-12
4.418984137805e-12
3.227894822262e-12
2.040767477798e-12
1.146004773688e-12
2.552758642252e-12
2.332544481304e-12
2.465265173298e-12
2.730753104671e-12
1.192442720007e-12
3.471199723067e-12
2.731913817696e-12
4.857403121293e-12
6.377171072413e-12
5.571788645745e-12
3.807214441392e-12
3.134936462822e-12
4.248605829351e-12
2.909069167318e-12
3.187259714897e-12
1.410231474432e-12
8.912027826133e-13
2.324511922738e-12
3.005487536870e-12
2.385837688088e-12
1.295663622540e-12
3.616185312232e-12
1.756806475718e-12
3.916236864111e-12
5.797181736495e-12
5.855649506897e-12
1.995622844961e-12
1.623553490230e-12
3.469882368036e-12
2.614089538898e-12
3.969021534757e-12
1.097753985503e-12
1.395069795623e-12
2.712159791190e-12
2.065467364799e-12
2.904222985637e-12
1.922479129999e-12
3.265538447250e-12
9.482476070979e-13
2.676547254028e-12
4.366254568488e-12
5.035648591184e-12
4.204543088179e-12
3.058390980782e-12
3.167739028434e-12
3.183960384910e-12
2.582467340356e-12
2.785925624823e-12
1.056918578364e-12
2.274328530298e-12
2.570328585681e-12
SCALARS sdf_gap float 1
LOOKUP_TABLE default
0.000000000000e+00
0.000000000000e+00
0.000000000000e+00
0.000000000000e+00
0.000000000000e+00
0.000000000000e+00
0.000000000000e+00
0.000000000000e+00
0.000000000000e+00
0.000000000000e+00
0.000000000000e+00
0.000000000000e+00
0.000000000000e+00
0.000000000000e+00
0.000000000000e+00
0.000000000000e+00
0.000000000000e+00
0.000000000000e+00
0.000000000000e+00
0.000000000000e+00
0.000000000000e+00
0.000000000000e+00
0.000000000000e+00
0.000000000000e+00
0.000000000000e+00
0.000000000000e+00
0.000000000000e+00
0.000000000000e+00
0.000000000000e+00
0.000000000000e+00
0.000000000000e+00
0.000000000000e+00
0.000000000000e+00
0.000000000000e+00
0.000000000000e+00
0.000000000000e+00
0.000000000000e+00
0.000000000000e+00
0.000000000000e+00
0.000000000000e+00
0.000000000000e+00
0.000000000000e+00
0.000000000000e+00
0.000000000000e+00
0.000000000000e+00
0.000000000000e+00
0.000000000000e+00
0.000000000000e+00
0.000000000000e+00
0.000000000000e+00
0.000000000000e+00
0.000000000000e+00
0.000000000000e+00
0.000000000000e+00
0.000000000000e+00
0.000000000000e+00
0.000000000000e+00
0.000000000000e+00
0.000000000000e+00
0.000000000000e+00
0.000000000000e+00
0.000000000000e+00
0.000000000000e+00
0.000000000000e+00
9.141203469706e-03
9.141203469707e-03
9.141203469708e-03
9.141203469708e-03
9.141203469706e-03
9.141203469707e-03
9.141203469708e-03
9.141203469708e-03
9.141203469706e-03
9.141203469707e-03
9.141203469708e-03
9.141203469708e-03
9.141203469706e-03
9.141203469707e-03
9.141203469708e-03
9.141203469708e-03
0.000000000000e+00
0.000000000000e+00
0.000000000000e+00
0.000000000000e+00
0.000000000000e+00
0.000000000000e+00
0.000000000000e+00
0.000000000000e+00
0.000000000000e+00
0.000000000000e+00
0.000000000000e+00
0.000000000000e+00
0.000000000000e+00
0.000000000000e+00
0.000000000000e+00
0.000000000000e+00
0.000000000000e+00
0.000000000000e+00
0.000000000000e+00
0.000000000000e+00
0.000000000000e+00
0.000000000000e+00
0.000000000000e+00
0.000000000000e+00
0.000000000000e+00
0.000000000000e+00
0.000000000000e+00
0.000000000000e+00
0.000000000000e+00
0.000000000000e+00
0.000000000000e+00
0.000000000000e+00
0.000000000000e+00
0.000000000000e+00
0.000000000000e+00
0.000000000000e+00
0.000000000000e+00
0.000000000000e+00
0.000000000000e+00
0.000000000000e+00
0.000000000000e+00
0.000000000000e+00
0.000000000000e+00
0.000000000000e+00
0.000000000000e+00
0.000000000000e+00
0.000000000000e+00
0.000000000000e+00
SCALARS contact_pressure float 1
LOOKUP_TABLE default
0.000000000000e+00
0.000000000000e+00
0.000000000000e+00
0.000000000000e+00
0.000000000000e+00
0.000000000000e+00
0.000000000000e+00
0.000000000000e+00
0.000000000000e+00
0.000000000000e+00
0.000000000000e+00
0.000000000000e+00
0.000000000000e+00
0.000000000000e+00
0.000000000000e+00
0.000000000000e+00
0.000000000000e+00
0.000000000000e+00
0.000000000000e+00
0.000000000000e+00
0.000000000000e+00
0.000000000000e+00
0.000000000000e+00
0.000000000000e+00
0.000000000000e+00
0.000000000000e+00
0.000000000000e+00
0.000000000000e+00
0.000000000000e+00
0.000000000000e+00
0.000000000000e+00
0.000000000000e+00
0.000000000000e+00
0.000000000000e+00
0.000000000000e+00
0.000000000000e+00
0.000000000000e+00
0.000000000000e+00
0.000000000000e+00
0.000000000000e+00
0.000000000000e+00
0.000000000000e+00
0.000000000000e+00
0.000000000000e+00
0.000000000000e+00
0.000000000000e+00
0.000000000000e+00
0.000000000000e+00
0.000000000000e+00
0.000000000000e+00
0.000000000000e+00
0.000000000000e+00
0.000000000000e+00
0.000000000000e+00
0.000000000000e+00
0.000000000000e+00
0.000000000000e+00
0.000000000000e+00
0.000000000000e+00
0.000000000000e+00
0.000000000000e+00
0.000000000000e+00
0.000000000000e+00
0.000000000000e+00
0.000000000000e+00
0.000000000000e+00
0.000000000000e+00
0.000000000000e+00
0.000000000000e+00
0.000000000000e+00
0.000000000000e+00
0.000000000000e+00
0.000000000000e+00
0.000000000000e+00
0.000000000000e+00
0.000000000000e+00
0.000000000000e+00
0.000000000000e+00
0.000000000000e+00
0.000000000000e+00
0.000000000000e+00
0.000000000000e+00
0.000000000000e+00
0.000000000000e+00
0.000000000000e+00
0.000000000000e+00
0.000000000000e+00
0.000000000000e+00
0.000000000000e+00
0.000000000000e+00
0.000000000000e+00
0.000000000000e+00
0.000000000000e+00
0.000000000000e+00
0.000000000000e+00
0.000000000000e+00
0.000000000000e+00
0.000000000000e+00
0.000000000000e+00
0.000000000000e+00
0.000000000000e+00
0.000000000000e+00
0.000000000000e+00
0.000000000000e+00
0.000000000000e+00
0.000000000000e+00
0.000000000000e+00
0.000000000000e+00
0.000000000000e+00
0.000000000000e+00
0.000000000000e+00
0.000000000000e+00
0.000000000000e+00
0.000000000000e+00
0.000000000000e+00
0.000000000000e+00
0.000000000000e+00
0.000000000000e+00
0.000000000000e+00
0.000000000000e+00
0.000000000000e+00
0.000000000000e+00
0.000000000000e+00
0.000000000000e+00
0.000000000000e+00
0.000000000000e+00
0.000000000000e+00
0.000000000000e+00
SCALARS active_contact float 1
LOOKUP_TABLE default
0.000000000000e+00
0.000000000000e+00
0.000000000000e+00
0.000000000000e+00
0.000000000000e+00
0.000000000000e+00
0.000000000000e+00
0.000000000000e+00
0.000000000000e+00
0.000000000000e+00
0.000000000000e+00
0.000000000000e+00
0.000000000000e+00
0.000000000000e+00
0.000000000000e+00
0.000000000000e+00
0.000000000000e+00
0.000000000000e+00
0.000000000000e+00
0.000000000000e+00
0.000000000000e+00
0.000000000000e+00
0.000000000000e+00
0.000000000000e+00
0.000000000000e+00
0.000000000000e+00
0.000000000000e+00
0.000000000000e+00
0.000000000000e+00
0.000000000000e+00
0.000000000000e+00
0.000000000000e+00
0.000000000000e+00
0.000000000000e+00
0.000000000000e+00
0.000000000000e+00
0.000000000000e+00
0.000000000000e+00
0.000000000000e+00
0.000000000000e+00
0.000000000000e+00
0.000000000000e+00
0.000000000000e+00
0.000000000000e+00
0.000000000000e+00
0.000000000000e+00
0.000000000000e+00
0.000000000000e+00
0.000000000000e+00
0.000000000000e+00
0.000000000000e+00
0.000000000000e+00
0.000000000000e+00
0.000000000000e+00
0.000000000000e+00
0.000000000000e+00
0.000000000000e+00
0.000000000000e+00
0.000000000000e+00
0.000000000000e+00
0.000000000000e+00
0.000000000000e+00
0.000000000000e+00
0.000000000000e+00
0.000000000000e+00
0.000000000000e+00
0.000000000000e+00
0.000000000000e+00
0.000000000000e+00
0.000000000000e+00
0.000000000000e+00
0.000000000000e+00
0.000000000000e+00
0.000000000000e+00
0.000000000000e+00
0.000000000000e+00
0.000000000000e+00
0.000000000000e+00
0.000000000000e+00
0.000000000000e+00
0.000000000000e+00
0.000000000000e+00
0.000000000000e+00
0.000000000000e+00
0.000000000000e+00
0.000000000000e+00
0.000000000000e+00
0.000000000000e+00
0.000000000000e+00
0.000000000000e+00
0.000000000000e+00
0.000000000000e+00
0.000000000000e+00
0.000000000000e+00
0.000000000000e+00
0.000000000000e+00
0.000000000000e+00
0.000000000000e+00
0.000000000000e+00
0.000000000000e+00
0.000000000000e+00
0.000000000000e+00
0.000000000000e+00
0.000000000000e+00
0.000000000000e+00
0.000000000000e+00
0.000000000000e+00
0.000000000000e+00
0.000000000000e+00
0.000000000000e+00
0.000000000000e+00
0.000000000000e+00
0.000000000000e+00
0.000000000000e+00
0.000000000000e+00
0.000000000000e+00
0.000000000000e+00
0.000000000000e+00
0.000000000000e+00
0.000000000000e+00
0.000000000000e+00
0.000000000000e+00
0.000000000000e+00
0.000000000000e+00
0.000000000000e+00
0.000000000000e+00
0.000000000000e+00
0.000000000000e+00
