# vtk DataFile Version 3.0
SFC long-time C3D8 dynamic frame 82 t=1.640000000000e+00
ASCII
DATASET UNSTRUCTURED_GRID
POINTS 250 float
-2.500000000000e-01 -2.500000000000e-01 0.000000000000e+00
-1.250000000000e-01 -2.500000000000e-01 0.000000000000e+00
0.000000000000e+00 -2.500000000000e-01 0.000000000000e+00
1.250000000000e-01 -2.500000000000e-01 0.000000000000e+00
2.500000000000e-01 -2.500000000000e-01 0.000000000000e+00
-2.500000000000e-01 -1.250000000000e-01 0.000000000000e+00
-1.250000000000e-01 -1.250000000000e-01 0.000000000000e+00
0.000000000000e+00 -1.250000000000e-01 0.000000000000e+00
1.250000000000e-01 -1.250000000000e-01 0.000000000000e+00
2.500000000000e-01 -1.250000000000e-01 0.000000000000e+00
-2.500000000000e-01 0.000000000000e+00 0.000000000000e+00
-1.250000000000e-01 0.000000000000e+00 0.000000000000e+00
0.000000000000e+00 0.000000000000e+00 0.000000000000e+00
1.250000000000e-01 0.000000000000e+00 0.000000000000e+00
2.500000000000e-01 0.000000000000e+00 0.000000000000e+00
-2.500000000000e-01 1.250000000000e-01 0.000000000000e+00
-1.250000000000e-01 1.250000000000e-01 0.000000000000e+00
0.000000000000e+00 1.250000000000e-01 0.000000000000e+00
1.250000000000e-01 1.250000000000e-01 0.000000000000e+00
2.500000000000e-01 1.250000000000e-01 0.000000000000e+00
-2.500000000000e-01 2.500000000000e-01 0.000000000000e+00
-1.250000000000e-01 2.500000000000e-01 0.000000000000e+00
0.000000000000e+00 2.500000000000e-01 0.000000000000e+00
1.250000000000e-01 2.500000000000e-01 0.000000000000e+00
2.500000000000e-01 2.500000000000e-01 0.000000000000e+00
-2.500000000000e-01 -2.500000000000e-01 6.000000000000e-02
-1.250000000000e-01 -2.500000000000e-01 6.000000000000e-02
0.000000000000e+00 -2.500000000000e-01 6.000000000000e-02
1.250000000000e-01 -2.500000000000e-01 6.000000000000e-02
2.500000000000e-01 -2.500000000000e-01 6.000000000000e-02
-2.500000000000e-01 -1.250000000000e-01 6.000000000000e-02
-1.250000000000e-01 -1.250000000000e-01 6.000000000000e-02
0.000000000000e+00 -1.250000000000e-01 6.000000000000e-02
1.250000000000e-01 -1.250000000000e-01 6.000000000000e-02
2.500000000000e-01 -1.250000000000e-01 6.000000000000e-02
-2.500000000000e-01 0.000000000000e+00 6.000000000000e-02
-1.250000000000e-01 0.000000000000e+00 6.000000000000e-02
0.000000000000e+00 0.000000000000e+00 6.000000000000e-02
1.250000000000e-01 0.000000000000e+00 6.000000000000e-02
2.500000000000e-01 0.000000000000e+00 6.000000000000e-02
-2.500000000000e-01 1.250000000000e-01 6.000000000000e-02
-1.250000000000e-01 1.250000000000e-01 6.000000000000e-02
0.000000000000e+00 1.250000000000e-01 6.000000000000e-02
1.250000000000e-01 1.250000000000e-01 6.000000000000e-02
2.500000000000e-01 1.250000000000e-01 6.000000000000e-02
-2.500000000000e-01 2.500000000000e-01 6.000000000000e-02
-1.250000000000e-01 2.500000000000e-01 6.000000000000e-02
0.000000000000e+00 2.500000000000e-01 6.000000000000e-02
1.250000000000e-01 2.500000000000e-01 6.000000000000e-02
2.500000000000e-01 2.500000000000e-01 6.000000000000e-02
-2.500000000000e-01 -2.500000000000e-01 1.200000000000e-01
-1.250000000000e-01 -2.500000000000e-01 1.200000000000e-01
0.000000000000e+00 -2.500000000000e-01 1.200000000000e-01
1.250000000000e-01 -2.500000000000e-01 1.200000000000e-01
2.500000000000e-01 -2.500000000000e-01 1.200000000000e-01
-2.500000000000e-01 -1.250000000000e-01 1.200000000000e-01
-1.250000000000e-01 -1.250000000000e-01 1.200000000000e-01
0.000000000000e+00 -1.250000000000e-01 1.200000000000e-01
1.250000000000e-01 -1.250000000000e-01 1.200000000000e-01
2.500000000000e-01 -1.250000000000e-01 1.200000000000e-01
-2.500000000000e-01 0.000000000000e+00 1.200000000000e-01
-1.250000000000e-01 0.000000000000e+00 1.200000000000e-01
0.000000000000e+00 0.000000000000e+00 1.200000000000e-01
1.250000000000e-01 0.000000000000e+00 1.200000000000e-01
2.500000000000e-01 0.000000000000e+00 1.200000000000e-01
-2.500000000000e-01 1.250000000000e-01 1.200000000000e-01
-1.250000000000e-01 1.250000000000e-01 1.200000000000e-01
0.000000000000e+00 1.250000000000e-01 1.200000000000e-01
1.250000000000e-01 1.250000000000e-01 1.200000000000e-01
2.500000000000e-01 1.250000000000e-01 1.200000000000e-01
-2.500000000000e-01 2.500000000000e-01 1.200000000000e-01
-1.250000000000e-01 2.500000000000e-01 1.200000000000e-01
0.000000000000e+00 2.500000000000e-01 1.200000000000e-01
1.250000000000e-01 2.500000000000e-01 1.200000000000e-01
2.500000000000e-01 2.500000000000e-01 1.200000000000e-01
-2.500000000000e-01 -2.500000000000e-01 1.800000000000e-01
-1.250000000000e-01 -2.500000000000e-01 1.800000000000e-01
0.000000000000e+00 -2.500000000000e-01 1.800000000000e-01
1.250000000000e-01 -2.500000000000e-01 1.800000000000e-01
2.500000000000e-01 -2.500000000000e-01 1.800000000000e-01
-2.500000000000e-01 -1.250000000000e-01 1.800000000000e-01
-1.250000000000e-01 -1.250000000000e-01 1.800000000000e-01
0.000000000000e+00 -1.250000000000e-01 1.800000000000e-01
1.250000000000e-01 -1.250000000000e-01 1.800000000000e-01
2.500000000000e-01 -1.250000000000e-01 1.800000000000e-01
-2.500000000000e-01 0.000000000000e+00 1.800000000000e-01
-1.250000000000e-01 0.000000000000e+00 1.800000000000e-01
0.000000000000e+00 0.000000000000e+00 1.800000000000e-01
1.250000000000e-01 0.000000000000e+00 1.800000000000e-01
2.500000000000e-01 0.000000000000e+00 1.800000000000e-01
-2.500000000000e-01 1.250000000000e-01 1.800000000000e-01
-1.250000000000e-01 1.250000000000e-01 1.800000000000e-01
0.000000000000e+00 1.250000000000e-01 1.800000000000e-01
1.250000000000e-01 1.250000000000e-01 1.800000000000e-01
2.500000000000e-01 1.250000000000e-01 1.800000000000e-01
-2.500000000000e-01 2.500000000000e-01 1.800000000000e-01
-1.250000000000e-01 2.500000000000e-01 1.800000000000e-01
0.000000000000e+00 2.500000000000e-01 1.800000000000e-01
1.250000000000e-01 2.500000000000e-01 1.800000000000e-01
2.500000000000e-01 2.500000000000e-01 1.800000000000e-01
-2.500000000000e-01 -2.500000000000e-01 2.400000000000e-01
-1.250000000000e-01 -2.500000000000e-01 2.400000000000e-01
0.000000000000e+00 -2.500000000000e-01 2.400000000000e-01
1.250000000000e-01 -2.500000000000e-01 2.400000000000e-01
2.500000000000e-01 -2.500000000000e-01 2.400000000000e-01
-2.500000000000e-01 -1.250000000000e-01 2.400000000000e-01
-1.250000000000e-01 -1.250000000000e-01 2.400000000000e-01
0.000000000000e+00 -1.250000000000e-01 2.400000000000e-01
1.250000000000e-01 -1.250000000000e-01 2.400000000000e-01
2.500000000000e-01 -1.250000000000e-01 2.400000000000e-01
-2.500000000000e-01 0.000000000000e+00 2.400000000000e-01
-1.250000000000e-01 0.000000000000e+00 2.400000000000e-01
0.000000000000e+00 0.000000000000e+00 2.400000000000e-01
1.250000000000e-01 0.000000000000e+00 2.400000000000e-01
2.500000000000e-01 0.000000000000e+00 2.400000000000e-01
-2.500000000000e-01 1.250000000000e-01 2.400000000000e-01
-1.250000000000e-01 1.250000000000e-01 2.400000000000e-01
0.000000000000e+00 1.250000000000e-01 2.400000000000e-01
1.250000000000e-01 1.250000000000e-01 2.400000000000e-01
2.500000000000e-01 1.250000000000e-01 2.400000000000e-01
-2.500000000000e-01 2.500000000000e-01 2.400000000000e-01
-1.250000000000e-01 2.500000000000e-01 2.400000000000e-01
0.000000000000e+00 2.500000000000e-01 2.400000000000e-01
1.250000000000e-01 2.500000000000e-01 2.400000000000e-01
2.500000000000e-01 2.500000000000e-01 2.400000000000e-01
-2.499999906232e-01 -2.499999907176e-01 2.497725149073e-01
-1.249999956769e-01 -2.499999896923e-01 2.497725097155e-01
1.469922985337e-10 -2.499999883761e-01 2.497725055487e-01
1.249999959709e-01 -2.499999896924e-01 2.497725099975e-01
2.499999909171e-01 -2.499999907178e-01 2.497725154714e-01
-2.499999895978e-01 -1.249999957714e-01 2.497725096257e-01
-1.249999953323e-01 -1.249999954268e-01 2.497725057133e-01
1.470381480706e-10 -1.249999946448e-01 2.497725023036e-01
1.249999956264e-01 -1.249999954269e-01 2.497725059954e-01
2.499999898918e-01 -1.249999957715e-01 2.497725101897e-01
-2.499999882815e-01 5.254148651640e-11 2.497725053690e-01
-1.249999945502e-01 5.249579025748e-11 2.497725022138e-01
1.470840367896e-10 5.245010749776e-11 2.497724989610e-01
1.249999948443e-01 5.240430394562e-11 2.497725024958e-01
2.499999885757e-01 5.235852397666e-11 2.497725059331e-01
-2.499999895977e-01 1.249999958764e-01 2.497725097280e-01
-1.249999953322e-01 1.249999955318e-01 2.497725058157e-01
1.471296046037e-10 1.249999947497e-01 2.497725024059e-01
1.249999956265e-01 1.249999955317e-01 2.497725060977e-01
2.499999898919e-01 1.249999958763e-01 2.497725102920e-01
-2.499999906230e-01 2.499999908227e-01 2.497725151120e-01
-1.249999956767e-01 2.499999897973e-01 2.497725099202e-01
1.471752233988e-10 2.499999884810e-01 2.497725057534e-01
1.249999959711e-01 2.499999897972e-01 2.497725102022e-01
2.499999909173e-01 2.499999908225e-01 2.497725156760e-01
-2.499999884109e-01 -2.499999884586e-01 3.147725209574e-01
-1.249999941705e-01 -2.499999879429e-01 3.147725160424e-01
7.366582154961e-11 -2.499999872063e-01 3.147725116830e-01
1.249999943178e-01 -2.499999879430e-01 3.147725163244e-01
2.499999885582e-01 -2.499999884588e-01 3.147725215215e-01
-2.499999878951e-01 -1.249999942182e-01 3.147725159526e-01
-1.249999941044e-01 -1.249999941522e-01 3.147725121485e-01
7.371167667555e-11 -1.249999936636e-01 3.147725084875e-01
1.249999942518e-01 -1.249999941523e-01 3.147725124305e-01
2.499999880425e-01 -1.249999942184e-01 3.147725165166e-01
-2.499999871583e-01 2.593570532805e-11 3.147725115033e-01
-1.249999936157e-01 2.589001337473e-11 3.147725083976e-01
7.375757390118e-11 2.584433294662e-11 3.147725049269e-01
1.249999937633e-01 2.579853447206e-11 3.147725086796e-01
2.499999873059e-01 2.575275593269e-11 3.147725120674e-01
-2.499999878950e-01 1.249999942701e-01 3.147725160549e-01
-1.249999941043e-01 1.249999942040e-01 3.147725122508e-01
7.380314039927e-11 1.249999937153e-01 3.147725085898e-01
1.249999942519e-01 1.249999942039e-01 3.147725125329e-01
2.499999880426e-01 1.249999942699e-01 3.147725166189e-01
-2.499999884107e-01 2.499999885105e-01 3.147725211621e-01
-1.249999941703e-01 2.499999879947e-01 3.147725162471e-01
7.384875688166e-11 2.499999872579e-01 3.147725118877e-01
1.249999943180e-01 2.499999879946e-01 3.147725165291e-01
2.499999885584e-01 2.499999885103e-01 3.147725217261e-01
-2.499999880871e-01 -2.499999880881e-01 3.797725303897e-01
-1.249999941318e-01 -2.499999879650e-01 3.797725257533e-01
3.389783595749e-13 -2.499999877560e-01 3.797725210058e-01
1.249999941325e-01 -2.499999879650e-01 3.797725260353e-01
2.499999880878e-01 -2.499999880883e-01 3.797725309537e-01
-2.499999879639e-01 -1.249999941328e-01 3.797725256635e-01
-1.249999941130e-01 -1.249999941141e-01 3.797725220092e-01
3.848582429200e-13 -1.249999939333e-01 3.797725178880e-01
1.249999941138e-01 -1.249999941142e-01 3.797725222912e-01
2.499999879646e-01 -1.249999941330e-01 3.797725262275e-01
-2.499999877548e-01 -6.702060141178e-13 3.797725208261e-01
-1.249999939321e-01 -7.158892425961e-13 3.797725177982e-01
4.307652255619e-13 -7.615648917013e-13 3.797725138452e-01
1.249999939330e-01 -8.073613067512e-13 3.797725180802e-01
2.499999877557e-01 -8.531488030837e-13 3.797725213902e-01
-2.499999879638e-01 1.249999941315e-01 3.797725257658e-01
-1.249999941129e-01 1.249999941127e-01 3.797725221115e-01
4.763289144588e-13 1.249999939318e-01 3.797725179903e-01
1.249999941139e-01 1.249999941126e-01 3.797725223935e-01
2.499999879647e-01 1.249999941313e-01 3.797725263298e-01
-2.499999880869e-01 2.499999880868e-01 3.797725305943e-01
-1.249999941316e-01 2.499999879635e-01 3.797725259580e-01
5.219203955740e-13 2.499999877545e-01 3.797725212105e-01
1.249999941327e-01 2.499999879634e-01 3.797725262400e-01
2.499999880880e-01 2.499999880866e-01 3.797725311584e-01
-2.499999891337e-01 -2.499999890880e-01 4.447725390360e-01
-1.249999939212e-01 -2.499999894559e-01 4.447725340852e-01
-7.298808354363e-11 -2.499999898216e-01 4.447725291231e-01
1.249999937752e-01 -2.499999894560e-01 4.447725343672e-01
2.499999889878e-01 -2.499999890882e-01 4.447725396001e-01
-2.499999895015e-01 -1.249999938755e-01 4.447725339953e-01
-1.249999939183e-01 -1.249999938727e-01 4.447725300860e-01
-7.294217255154e-11 -1.249999939842e-01 4.447725257548e-01
1.249999937725e-01 -1.249999938728e-01 4.447725303680e-01
2.499999893556e-01 -1.249999938756e-01 4.447725345594e-01
-2.499999898671e-01 -2.727619655273e-11 4.447725289434e-01
-1.249999940297e-01 -2.732186990758e-11 4.447725256649e-01
-7.289625267045e-11 -2.736753745948e-11 4.447725214792e-01
1.249999938839e-01 -2.741333449649e-11 4.447725259470e-01
2.499999897213e-01 -2.745913307087e-11 4.447725295075e-01
-2.499999895014e-01 1.249999938209e-01 4.447725340977e-01
-1.249999939183e-01 1.249999938181e-01 4.447725301883e-01
-7.285069324980e-11 1.249999939295e-01 4.447725258571e-01
1.249999937726e-01 1.249999938180e-01 4.447725304703e-01
2.499999893557e-01 1.249999938207e-01 4.447725346617e-01
-2.499999891335e-01 2.499999890335e-01 4.447725392407e-01
-1.249999939210e-01 2.499999894012e-01 4.447725342898e-01
-7.280513390451e-11 2.499999897668e-01 4.447725293278e-01
1.249999937754e-01 2.499999894012e-01 4.447725345719e-01
2.499999889879e-01 2.499999890333e-01 4.447725398047e-01
-2.499999882763e-01 -2.499999881839e-01 5.097725433467e-01
-1.249999921306e-01 -2.499999891438e-01 5.097725383318e-01
-1.463150199255e-10 -2.499999901291e-01 5.097725336566e-01
1.249999918380e-01 -2.499999891439e-01 5.097725386138e-01
2.499999879837e-01 -2.499999881841e-01 5.097725439108e-01
-2.499999892362e-01 -1.249999920382e-01 5.097725382420e-01
-1.249999923509e-01 -1.249999922585e-01 5.097725344280e-01
-1.462690832718e-10 -1.249999926375e-01 5.097725304731e-01
1.249999920583e-01 -1.249999922586e-01 5.097725347100e-01
2.499999889436e-01 -1.249999920384e-01 5.097725388060e-01
-2.499999902214e-01 -5.388214405905e-11 5.097725334769e-01
-1.249999927297e-01 -5.392780749844e-11 5.097725303833e-01
-1.462231421903e-10 -5.397346376848e-11 5.097725266098e-01
1.249999924373e-01 -5.401926358238e-11 5.097725306653e-01
2.499999899290e-01 -5.406506790759e-11 5.097725340410e-01
-2.499999892361e-01 1.249999919304e-01 5.097725383443e-01
-1.249999923508e-01 1.249999921507e-01 5.097725345303e-01
-1.461775958874e-10 1.249999925295e-01 5.097725305754e-01
1.249999920584e-01 1.249999921506e-01 5.097725348124e-01
2.499999889437e-01 1.249999919303e-01 5.097725389084e-01
-2.499999882762e-01 2.499999880761e-01 5.097725435514e-01
-1.249999921305e-01 2.499999890360e-01 5.097725385365e-01
-1.461320573725e-10 2.499999900212e-01 5.097725338613e-01
1.249999918382e-01 2.499999890359e-01 5.097725388185e-01
2.499999879839e-01 2.499999880760e-01 5.097725441154e-01
CELLS 128 1152
8 0 1 6 5 25 26 31 30
8 1 2 7 6 26 27 32 31
8 2 3 8 7 27 28 33 32
8 3 4 9 8 28 29 34 33
8 5 6 11 10 30 31 36 35
8 6 7 12 11 31 32 37 36
8 7 8 13 12 32 33 38 37
8 8 9 14 13 33 34 39 38
8 10 11 16 15 35 36 41 40
8 11 12 17 16 36 37 42 41
8 12 13 18 17 37 38 43 42
8 13 14 19 18 38 39 44 43
8 15 16 21 20 40 41 46 45
8 16 17 22 21 41 42 47 46
8 17 18 23 22 42 43 48 47
8 18 19 24 23 43 44 49 48
8 25 26 31 30 50 51 56 55
8 26 27 32 31 51 52 57 56
8 27 28 33 32 52 53 58 57
8 28 29 34 33 53 54 59 58
8 30 31 36 35 55 56 61 60
8 31 32 37 36 56 57 62 61
8 32 33 38 37 57 58 63 62
8 33 34 39 38 58 59 64 63
8 35 36 41 40 60 61 66 65
8 36 37 42 41 61 62 67 66
8 37 38 43 42 62 63 68 67
8 38 39 44 43 63 64 69 68
8 40 41 46 45 65 66 71 70
8 41 42 47 46 66 67 72 71
8 42 43 48 47 67 68 73 72
8 43 44 49 48 68 69 74 73
8 50 51 56 55 75 76 81 80
8 51 52 57 56 76 77 82 81
8 52 53 58 57 77 78 83 82
8 53 54 59 58 78 79 84 83
8 55 56 61 60 80 81 86 85
8 56 57 62 61 81 82 87 86
8 57 58 63 62 82 83 88 87
8 58 59 64 63 83 84 89 88
8 60 61 66 65 85 86 91 90
8 61 62 67 66 86 87 92 91
8 62 63 68 67 87 88 93 92
8 63 64 69 68 88 89 94 93
8 65 66 71 70 90 91 96 95
8 66 67 72 71 91 92 97 96
8 67 68 73 72 92 93 98 97
8 68 69 74 73 93 94 99 98
8 75 76 81 80 100 101 106 105
8 76 77 82 81 101 102 107 106
8 77 78 83 82 102 103 108 107
8 78 79 84 83 103 104 109 108
8 80 81 86 85 105 106 111 110
8 81 82 87 86 106 107 112 111
8 82 83 88 87 107 108 113 112
8 83 84 89 88 108 109 114 113
8 85 86 91 90 110 111 116 115
8 86 87 92 91 111 112 117 116
8 87 88 93 92 112 113 118 117
8 88 89 94 93 113 114 119 118
8 90 91 96 95 115 116 121 120
8 91 92 97 96 116 117 122 121
8 92 93 98 97 117 118 123 122
8 93 94 99 98 118 119 124 123
8 125 126 131 130 150 151 156 155
8 126 127 132 131 151 152 157 156
8 127 128 133 132 152 153 158 157
8 128 129 134 133 153 154 159 158
8 130 131 136 135 155 156 161 160
8 131 132 137 136 156 157 162 161
8 132 133 138 137 157 158 163 162
8 133 134 139 138 158 159 164 163
8 135 136 141 140 160 161 166 165
8 136 137 142 141 161 162 167 166
8 137 138 143 142 162 163 168 167
8 138 139 144 143 163 164 169 168
8 140 141 146 145 165 166 171 170
8 141 142 147 146 166 167 172 171
8 142 143 148 147 167 168 173 172
8 143 144 149 148 168 169 174 173
8 150 151 156 155 175 176 181 180
8 151 152 157 156 176 177 182 181
8 152 153 158 157 177 178 183 182
8 153 154 159 158 178 179 184 183
8 155 156 161 160 180 181 186 185
8 156 157 162 161 181 182 187 186
8 157 158 163 162 182 183 188 187
8 158 159 164 163 183 184 189 188
8 160 161 166 165 185 186 191 190
8 161 162 167 166 186 187 192 191
8 162 163 168 167 187 188 193 192
8 163 164 169 168 188 189 194 193
8 165 166 171 170 190 191 196 195
8 166 167 172 171 191 192 197 196
8 167 168 173 172 192 193 198 197
8 168 169 174 173 193 194 199 198
8 175 176 181 180 200 201 206 205
8 176 177 182 181 201 202 207 206
8 177 178 183 182 202 203 208 207
8 178 179 184 183 203 204 209 208
8 180 181 186 185 205 206 211 210
8 181 182 187 186 206 207 212 211
8 182 183 188 187 207 208 213 212
8 183 184 189 188 208 209 214 213
8 185 186 191 190 210 211 216 215
8 186 187 192 191 211 212 217 216
8 187 188 193 192 212 213 218 217
8 188 189 194 193 213 214 219 218
8 190 191 196 195 215 216 221 220
8 191 192 197 196 216 217 222 221
8 192 193 198 197 217 218 223 222
8 193 194 199 198 218 219 224 223
8 200 201 206 205 225 226 231 230
8 201 202 207 206 226 227 232 231
8 202 203 208 207 227 228 233 232
8 203 204 209 208 228 229 234 233
8 205 206 211 210 230 231 236 235
8 206 207 212 211 231 232 237 236
8 207 208 213 212 232 233 238 237
8 208 209 214 213 233 234 239 238
8 210 211 216 215 235 236 241 240
8 211 212 217 216 236 237 242 241
8 212 213 218 217 237 238 243 242
8 213 214 219 218 238 239 244 243
8 215 216 221 220 240 241 246 245
8 216 217 222 221 241 242 247 246
8 217 218 223 222 242 243 248 247
8 218 219 224 223 243 244 249 248
CELL_TYPES 128
12
12
12
12
12
12
12
12
12
12
12
12
12
12
12
12
12
12
12
12
12
12
12
12
12
12
12
12
12
12
12
12
12
12
12
12
12
12
12
12
12
12
12
12
12
12
12
12
12
12
12
12
12
12
12
12
12
12
12
12
12
12
12
12
12
12
12
12
12
12
12
12
12
12
12
12
12
12
12
12
12
12
12
12
12
12
12
12
12
12
12
12
12
12
12
12
12
12
12
12
12
12
12
12
12
12
12
12
12
12
12
12
12
12
12
12
12
12
12
12
12
12
12
12
12
12
12
12
POINT_DATA 250
VECTORS displacement float
0.000000000000e+00 0.000000000000e+00 0.000000000000e+00
0.000000000000e+00 0.000000000000e+00 0.000000000000e+00
0.000000000000e+00 0.000000000000e+00 0.000000000000e+00
0.000000000000e+00 0.000000000000e+00 0.000000000000e+00
0.000000000000e+00 0.000000000000e+00 0.000000000000e+00
0.000000000000e+00 0.000000000000e+00 0.000000000000e+00
0.000000000000e+00 0.000000000000e+00 0.000000000000e+00
0.000000000000e+00 0.000000000000e+00 0.000000000000e+00
0.000000000000e+00 0.000000000000e+00 0.000000000000e+00
0.000000000000e+00 0.000000000000e+00 0.000000000000e+00
0.000000000000e+00 0.000000000000e+00 0.000000000000e+00
0.000000000000e+00 0.000000000000e+00 0.000000000000e+00
0.000000000000e+00 0.000000000000e+00 0.000000000000e+00
0.000000000000e+00 0.000000000000e+00 0.000000000000e+00
0.000000000000e+00 0.000000000000e+00 0.000000000000e+00
0.000000000000e+00 0.000000000000e+00 0.000000000000e+00
0.000000000000e+00 0.000000000000e+00 0.000000000000e+00
0.000000000000e+00 0.000000000000e+00 0.000000000000e+00
0.000000000000e+00 0.000000000000e+00 0.000000000000e+00
0.000000000000e+00 0.000000000000e+00 0.000000000000e+00
0.000000000000e+00 0.000000000000e+00 0.000000000000e+00
0.000000000000e+00 0.000000000000e+00 0.000000000000e+00
0.000000000000e+00 0.000000000000e+00 0.000000000000e+00
0.000000000000e+00 0.000000000000e+00 0.000000000000e+00
0.000000000000e+00 0.000000000000e+00 0.000000000000e+00
0.000000000000e+00 0.000000000000e+00 0.000000000000e+00
0.000000000000e+00 0.000000000000e+00 0.000000000000e+00
0.000000000000e+00 0.000000000000e+00 0.000000000000e+00
0.000000000000e+00 0.000000000000e+00 0.000000000000e+00
0.000000000000e+00 0.000000000000e+00 0.000000000000e+00
0.000000000000e+00 0.000000000000e+00 0.000000000000e+00
0.000000000000e+00 0.000000000000e+00 0.000000000000e+00
0.000000000000e+00 0.000000000000e+00 0.000000000000e+00
0.000000000000e+00 0.000000000000e+00 0.000000000000e+00
0.000000000000e+00 0.000000000000e+00 0.000000000000e+00
0.000000000000e+00 0.000000000000e+00 0.000000000000e+00
0.000000000000e+00 0.000000000000e+00 0.000000000000e+00
0.000000000000e+00 0.000000000000e+00 0.000000000000e+00
0.000000000000e+00 0.000000000000e+00 0.000000000000e+00
0.000000000000e+00 0.000000000000e+00 0.000000000000e+00
0.000000000000e+00 0.000000000000e+00 0.000000000000e+00
0.000000000000e+00 0.000000000000e+00 0.000000000000e+00
0.000000000000e+00 0.000000000000e+00 0.000000000000e+00
0.000000000000e+00 0.000000000000e+00 0.000000000000e+00
0.000000000000e+00 0.000000000000e+00 0.000000000000e+00
0.000000000000e+00 0.000000000000e+00 0.000000000000e+00
0.000000000000e+00 0.000000000000e+00 0.000000000000e+00
0.000000000000e+00 0.000000000000e+00 0.000000000000e+00
0.000000000000e+00 0.000000000000e+00 0.000000000000e+00
0.000000000000e+00 0.000000000000e+00 0.000000000000e+00
0.000000000000e+00 0.000000000000e+00 0.000000000000e+00
0.000000000000e+00 0.000000000000e+00 0.000000000000e+00
0.000000000000e+00 0.000000000000e+00 0.000000000000e+00
0.000000000000e+00 0.000000000000e+00 0.000000000000e+00
0.000000000000e+00 0.000000000000e+00 0.000000000000e+00
0.000000000000e+00 0.000000000000e+00 0.000000000000e+00
0.000000000000e+00 0.000000000000e+00 0.000000000000e+00
0.000000000000e+00 0.000000000000e+00 0.000000000000e+00
0.000000000000e+00 0.000000000000e+00 0.000000000000e+00
0.000000000000e+00 0.000000000000e+00 0.000000000000e+00
0.000000000000e+00 0.000000000000e+00 0.000000000000e+00
0.000000000000e+00 0.000000000000e+00 0.000000000000e+00
0.000000000000e+00 0.000000000000e+00 0.000000000000e+00
0.000000000000e+00 0.000000000000e+00 0.000000000000e+00
0.000000000000e+00 0.000000000000e+00 0.000000000000e+00
0.000000000000e+00 0.000000000000e+00 0.000000000000e+00
0.000000000000e+00 0.000000000000e+00 0.000000000000e+00
0.000000000000e+00 0.000000000000e+00 0.000000000000e+00
0.000000000000e+00 0.000000000000e+00 0.000000000000e+00
0.000000000000e+00 0.000000000000e+00 0.000000000000e+00
0.000000000000e+00 0.000000000000e+00 0.000000000000e+00
0.000000000000e+00 0.000000000000e+00 0.000000000000e+00
0.000000000000e+00 0.000000000000e+00 0.000000000000e+00
0.000000000000e+00 0.000000000000e+00 0.000000000000e+00
0.000000000000e+00 0.000000000000e+00 0.000000000000e+00
0.000000000000e+00 0.000000000000e+00 0.000000000000e+00
0.000000000000e+00 0.000000000000e+00 0.000000000000e+00
0.000000000000e+00 0.000000000000e+00 0.000000000000e+00
0.000000000000e+00 0.000000000000e+00 0.000000000000e+00
0.000000000000e+00 0.000000000000e+00 0.000000000000e+00
0.000000000000e+00 0.000000000000e+00 0.000000000000e+00
0.000000000000e+00 0.000000000000e+00 0.000000000000e+00
0.000000000000e+00 0.000000000000e+00 0.000000000000e+00
0.000000000000e+00 0.000000000000e+00 0.000000000000e+00
0.000000000000e+00 0.000000000000e+00 0.000000000000e+00
0.000000000000e+00 0.000000000000e+00 0.000000000000e+00
0.000000000000e+00 0.000000000000e+00 0.000000000000e+00
0.000000000000e+00 0.000000000000e+00 0.000000000000e+00
0.000000000000e+00 0.000000000000e+00 0.000000000000e+00
0.000000000000e+00 0.000000000000e+00 0.000000000000e+00
0.000000000000e+00 0.000000000000e+00 0.000000000000e+00
0.000000000000e+00 0.000000000000e+00 0.000000000000e+00
0.000000000000e+00 0.000000000000e+00 0.000000000000e+00
0.000000000000e+00 0.000000000000e+00 0.000000000000e+00
0.000000000000e+00 0.000000000000e+00 0.000000000000e+00
0.000000000000e+00 0.000000000000e+00 0.000000000000e+00
0.000000000000e+00 0.000000000000e+00 0.000000000000e+00
0.000000000000e+00 0.000000000000e+00 0.000000000000e+00
0.000000000000e+00 0.000000000000e+00 0.000000000000e+00
0.000000000000e+00 0.000000000000e+00 0.000000000000e+00
0.000000000000e+00 0.000000000000e+00 0.000000000000e+00
0.000000000000e+00 0.000000000000e+00 0.000000000000e+00
0.000000000000e+00 0.000000000000e+00 0.000000000000e+00
0.000000000000e+00 0.000000000000e+00 0.000000000000e+00
0.000000000000e+00 0.000000000000e+00 0.000000000000e+00
0.000000000000e+00 0.000000000000e+00 0.000000000000e+00
0.000000000000e+00 0.000000000000e+00 0.000000000000e+00
0.000000000000e+00 0.000000000000e+00 0.000000000000e+00
0.000000000000e+00 0.000000000000e+00 0.000000000000e+00
0.000000000000e+00 0.000000000000e+00 0.000000000000e+00
0.000000000000e+00 0.000000000000e+00 0.000000000000e+00
0.000000000000e+00 0.000000000000e+00 0.000000000000e+00
0.000000000000e+00 0.000000000000e+00 0.000000000000e+00
0.000000000000e+00 0.000000000000e+00 0.000000000000e+00
0.000000000000e+00 0.000000000000e+00 0.000000000000e+00
0.000000000000e+00 0.000000000000e+00 0.000000000000e+00
0.000000000000e+00 0.000000000000e+00 0.000000000000e+00
0.000000000000e+00 0.000000000000e+00 0.000000000000e+00
0.000000000000e+00 0.000000000000e+00 0.000000000000e+00
0.000000000000e+00 0.000000000000e+00 0.000000000000e+00
0.000000000000e+00 0.000000000000e+00 0.000000000000e+00
0.000000000000e+00 0.000000000000e+00 0.000000000000e+00
0.000000000000e+00 0.000000000000e+00 0.000000000000e+00
0.000000000000e+00 0.000000000000e+00 0.000000000000e+00
0.000000000000e+00 0.000000000000e+00 0.000000000000e+00
9.376839760973e-09 9.282389135027e-09 -5.227485092669e-03
4.323087828058e-09 1.030769364236e-08 -5.227490284497e-03
1.469922985337e-10 1.162385652061e-08 -5.227494451293e-03
-4.029103529163e-09 1.030760240221e-08 -5.227490002472e-03
-9.082856028689e-09 9.282206489398e-09 -5.227484528620e-03
1.040223578652e-08 4.228637122844e-09 -5.227490374344e-03
4.667692975740e-09 4.573150689510e-09 -5.227494286661e-03
1.470381480706e-10 5.355206665141e-09 -5.227497696397e-03
-4.373616960411e-09 4.573059282942e-09 -5.227494004637e-03
-1.010816036426e-08 4.228454147891e-09 -5.227489810295e-03
1.171849013824e-08 5.254148651640e-11 -5.227494630988e-03
5.449840495131e-09 5.249579025748e-11 -5.227497786244e-03
1.470840367896e-10 5.245010749776e-11 -5.227501039029e-03
-5.155672716221e-09 5.240430394562e-11 -5.227497504220e-03
-1.142432300852e-08 5.235852397666e-11 -5.227494066938e-03
1.040232733489e-08 -4.123554260634e-09 -5.227490272015e-03
4.667784463697e-09 -4.468159211681e-09 -5.227494184332e-03
1.471296046037e-10 -5.250306560091e-09 -5.227497594067e-03
-4.373525538312e-09 -4.468250776273e-09 -5.227493902307e-03
-1.010806900587e-08 -4.123737210989e-09 -5.227489707965e-03
9.377022803009e-09 -9.177306482949e-09 -5.227484888010e-03
4.323270751045e-09 -1.020270237981e-08 -5.227490079837e-03
1.471752233988e-10 -1.151895665209e-08 -5.227494246633e-03
-4.028920608532e-09 -1.020279411227e-08 -5.227489797813e-03
-9.082673235819e-09 -9.177489760528e-09 -5.227484323961e-03
1.158908613463e-08 1.154135627742e-08 -5.227479042576e-03
5.829496603142e-09 1.205709951083e-08 -5.227483957600e-03
7.366582154961e-11 1.279374298662e-08 -5.227488316978e-03
-5.682165317132e-09 1.205700824933e-08 -5.227483675575e-03
-1.144175555101e-08 1.154117359103e-08 -5.227478478526e-03
1.210492089828e-08 5.781766629249e-09 -5.227484047448e-03
5.895594403723e-09 5.847772833273e-09 -5.227487851503e-03
7.371167667555e-11 6.336351518112e-09 -5.227491512531e-03
-5.748171385631e-09 5.847681405531e-09 -5.227487569479e-03
-1.195749861143e-08 5.781583604222e-09 -5.227483483398e-03
1.284165585482e-08 2.593570532805e-11 -5.227488496673e-03
6.384264641984e-09 2.589001337473e-11 -5.227491602378e-03
7.375757390118e-11 2.584433294662e-11 -5.227495073114e-03
-6.236749846648e-09 2.579853447206e-11 -5.227491320354e-03
-1.269414184882e-08 2.575275593269e-11 -5.227487932623e-03
1.210501244032e-08 -5.729895346558e-09 -5.227483945118e-03
5.895685886415e-09 -5.795992928748e-09 -5.227487749173e-03
7.380314039927e-11 -6.284662977412e-09 -5.227491410201e-03
-5.748079941613e-09 -5.796084458855e-09 -5.227487467149e-03
-1.195740722772e-08 -5.730078222198e-09 -5.227483381068e-03
1.158926916845e-08 -1.148948524931e-08 -5.227478837916e-03
5.829679511304e-09 -1.200531987104e-08 -5.227483752940e-03
7.384875688166e-11 -1.274205473044e-08 -5.227488112318e-03
-5.681982357604e-09 -1.200541156638e-08 -5.227483470916e-03
-1.144157271896e-08 -1.148966846618e-08 -5.227478273866e-03
1.191287917489e-08 1.191187026782e-08 -5.227469610319e-03
5.868209629358e-09 1.203504321027e-08 -5.227474246694e-03
3.389783595749e-13 1.224397083523e-08 -5.227478994199e-03
-5.867531982538e-09 1.203495189409e-08 -5.227473964669e-03
-1.191220220076e-08 1.191168743353e-08 -5.227469046268e-03
1.203614370478e-08 5.867200602605e-09 -5.227474336542e-03
5.886989248555e-09 5.885888586609e-09 -5.227477990839e-03
3.848582429200e-13 6.066703048946e-09 -5.227482111995e-03
-5.886219804745e-09 5.885797115661e-09 -5.227477708813e-03
-1.203537494250e-08 5.867017476298e-09 -5.227473772491e-03
1.224516283726e-08 -6.702060141178e-13 -5.227479173895e-03
6.067895286464e-09 -7.158892425961e-13 -5.227482201843e-03
4.307652255619e-13 -7.615648917013e-13 -5.227486154753e-03
-6.067034041014e-09 -8.073613067512e-13 -5.227481919818e-03
-1.224430233095e-08 -8.531488030837e-13 -5.227478609844e-03
1.203623523227e-08 -5.868541126098e-09 -5.227474234212e-03
5.887080719359e-09 -5.887320464198e-09 -5.227477888509e-03
4.763289144588e-13 -6.068226278949e-09 -5.227482009665e-03
-5.886128332835e-09 -5.887411937388e-09 -5.227477606483e-03
-1.203528352684e-08 -5.868723885900e-09 -5.227473670161e-03
1.191306215897e-08 -1.191321103705e-08 -5.227469405659e-03
5.868392505159e-09 -1.203647533730e-08 -5.227474042034e-03
5.219203955740e-13 -1.224549433173e-08 -5.227478789539e-03
-5.867348973214e-09 -1.203656696503e-08 -5.227473760009e-03
-1.191201929976e-08 -1.191339408641e-08 -5.227468841608e-03
1.086626903531e-08 1.091198119871e-08 -5.227460963981e-03
6.078824374535e-09 1.054411000686e-08 -5.227465914817e-03
-7.298808354363e-11 1.017842433774e-08 -5.227470876897e-03
-6.224800789861e-09 1.054401857883e-08 -5.227465632792e-03
-1.101224591175e-08 1.091179809056e-08 -5.227460399929e-03
1.049848952284e-08 6.124536422698e-09 -5.227466004665e-03
6.081651487285e-09 6.127271855584e-09 -5.227469914039e-03
-7.294217255154e-11 6.015804812989e-09 -5.227474245226e-03
-6.227536024024e-09 6.127180364778e-09 -5.227469632013e-03
-1.064437449025e-08 6.124353220996e-09 -5.227465440613e-03
1.013289541500e-08 -2.727619655273e-11 -5.227471056592e-03
5.970276037843e-09 -2.732186990758e-11 -5.227474335073e-03
-7.289625267045e-11 -2.736753745948e-11 -5.227478520815e-03
-6.116068741054e-09 -2.741333449649e-11 -5.227474053048e-03
-1.027868858907e-08 -2.745913307087e-11 -5.227470492540e-03
1.049858101379e-08 -6.179088906709e-09 -5.227465902335e-03
6.081742955253e-09 -6.181915665060e-09 -5.227469811708e-03
-7.285069324980e-11 -6.070539958917e-09 -5.227474142895e-03
-6.227444534272e-09 -6.182007103491e-09 -5.227469529683e-03
-1.064428302273e-08 -6.179271575115e-09 -5.227465338283e-03
1.086645192425e-08 -1.096653385213e-08 -5.227460759320e-03
6.079007228541e-09 -1.059875397372e-08 -5.227465710157e-03
-7.280513390451e-11 -1.023315965432e-08 -5.227470672236e-03
-6.224617740603e-09 -1.059884547377e-08 -5.227465428131e-03
-1.101206289507e-08 -1.096671661077e-08 -5.227460195268e-03
1.172366064036e-08 1.181609379566e-08 -5.227456653298e-03
7.869362876261e-09 1.085615907031e-08 -5.227461668183e-03
-1.463150199255e-10 9.870852995227e-09 -5.227466343375e-03
-8.161993162597e-09 1.085606760737e-08 -5.227461386157e-03
-1.201629129393e-08 1.181591058796e-08 -5.227456089246e-03
1.076381764411e-08 7.961795896835e-09 -5.227461758031e-03
7.649142386912e-09 7.741483715556e-09 -5.227465572000e-03
-1.462690832718e-10 7.362505784799e-09 -5.227469526893e-03
-7.941680734085e-09 7.741392258841e-09 -5.227465289974e-03
-1.105635630475e-08 7.961612741978e-09 -5.227461193979e-03
9.778603172646e-09 -5.388214405905e-11 -5.227466523071e-03
7.270256058336e-09 -5.392780749844e-11 -5.227469616741e-03
-1.462231421903e-10 -5.397346376848e-11 -5.227473390182e-03
-7.562702518225e-09 -5.401926358238e-11 -5.227469334715e-03
-1.007104995724e-08 -5.406506790759e-11 -5.227465959019e-03
1.076390912699e-08 -8.069560274208e-09 -5.227461655701e-03
7.649233872727e-09 -7.849339394650e-09 -5.227465469670e-03
-1.461775958874e-10 -7.470452777176e-09 -5.227469424563e-03
-7.941589245553e-09 -7.849430850545e-09 -5.227465187644e-03
-1.105626480952e-08 -8.069742966482e-09 -5.227461091649e-03
1.172384350039e-08 -1.192385830702e-08 -5.227456448637e-03
7.869545753335e-09 -1.096401486278e-08 -5.227461463523e-03
-1.461320573725e-10 -9.978800107524e-09 -5.227466138715e-03
-8.161810111648e-09 -1.096410630781e-08 -5.227461181497e-03
-1.201610822530e-08 -1.192404094738e-08 -5.227455884585e-03
SCALARS displacement_magnitude float 1
LOOKUP_TABLE default
0.000000000000e+00
0.000000000000e+00
0.000000000000e+00
0.000000000000e+00
0.000000000000e+00
0.000000000000e+00
0.000000000000e+00
0.000000000000e+00
0.000000000000e+00
0.000000000000e+00
0.000000000000e+00
0.000000000000e+00
0.000000000000e+00
0.000000000000e+00
0.000000000000e+00
0.000000000000e+00
0.000000000000e+00
0.000000000000e+00
0.000000000000e+00
0.000000000000e+00
0.000000000000e+00
0.000000000000e+00
0.000000000000e+00
0.000000000000e+00
0.000000000000e+00
0.000000000000e+00
0.000000000000e+00
0.000000000000e+00
0.000000000000e+00
0.000000000000e+00
0.000000000000e+00
0.000000000000e+00
0.000000000000e+00
0.000000000000e+00
0.000000000000e+00
0.000000000000e+00
0.000000000000e+00
0.000000000000e+00
0.000000000000e+00
0.000000000000e+00
0.000000000000e+00
0.000000000000e+00
0.000000000000e+00
0.000000000000e+00
0.000000000000e+00
0.000000000000e+00
0.000000000000e+00
0.000000000000e+00
0.000000000000e+00
0.000000000000e+00
0.000000000000e+00
0.000000000000e+00
0.000000000000e+00
0.000000000000e+00
0.000000000000e+00
0.000000000000e+00
0.000000000000e+00
0.000000000000e+00
0.000000000000e+00
0.000000000000e+00
0.000000000000e+00
0.000000000000e+00
0.000000000000e+00
0.000000000000e+00
0.000000000000e+00
0.000000000000e+00
0.000000000000e+00
0.000000000000e+00
0.000000000000e+00
0.000000000000e+00
0.000000000000e+00
0.000000000000e+00
0.000000000000e+00
0.000000000000e+00
0.000000000000e+00
0.000000000000e+00
0.000000000000e+00
0.000000000000e+00
0.000000000000e+00
0.000000000000e+00
0.000000000000e+00
0.000000000000e+00
0.000000000000e+00
0.000000000000e+00
0.000000000000e+00
0.000000000000e+00
0.000000000000e+00
0.000000000000e+00
0.000000000000e+00
0.000000000000e+00
0.000000000000e+00
0.000000000000e+00
0.000000000000e+00
0.000000000000e+00
0.000000000000e+00
0.000000000000e+00
0.000000000000e+00
0.000000000000e+00
0.000000000000e+00
0.000000000000e+00
0.000000000000e+00
0.000000000000e+00
0.000000000000e+00
0.000000000000e+00
0.000000000000e+00
0.000000000000e+00
0.000000000000e+00
0.000000000000e+00
0.000000000000e+00
0.000000000000e+00
0.000000000000e+00
0.000000000000e+00
0.000000000000e+00
0.000000000000e+00
0.000000000000e+00
0.000000000000e+00
0.000000000000e+00
0.000000000000e+00
0.000000000000e+00
0.000000000000e+00
0.000000000000e+00
0.000000000000e+00
0.000000000000e+00
0.000000000000e+00
0.000000000000e+00
5.227485092686e-03
5.227490284509e-03
5.227494451306e-03
5.227490002484e-03
5.227484528636e-03
5.227490374356e-03
5.227494286665e-03
5.227497696400e-03
5.227494004641e-03
5.227489810307e-03
5.227494631001e-03
5.227497786247e-03
5.227501039029e-03
5.227497504222e-03
5.227494066951e-03
5.227490272027e-03
5.227494184335e-03
5.227497594070e-03
5.227493902311e-03
5.227489707977e-03
5.227484888026e-03
5.227490079849e-03
5.227494246646e-03
5.227489797824e-03
5.227484323977e-03
5.227479042601e-03
5.227483957617e-03
5.227488316993e-03
5.227483675592e-03
5.227478478551e-03
5.227484047465e-03
5.227487851510e-03
5.227491512535e-03
5.227487569485e-03
5.227483483415e-03
5.227488496688e-03
5.227491602382e-03
5.227495073114e-03
5.227491320357e-03
5.227487932638e-03
5.227483945135e-03
5.227487749180e-03
5.227491410205e-03
5.227487467155e-03
5.227483381085e-03
5.227478837941e-03
5.227483752957e-03
5.227488112333e-03
5.227483470932e-03
5.227478273891e-03
5.227469610346e-03
5.227474246712e-03
5.227478994214e-03
5.227473964686e-03
5.227469046295e-03
5.227474336559e-03
5.227477990845e-03
5.227482111999e-03
5.227477708820e-03
5.227473772508e-03
5.227479173909e-03
5.227482201846e-03
5.227486154753e-03
5.227481919821e-03
5.227478609858e-03
5.227474234229e-03
5.227477888515e-03
5.227482009669e-03
5.227477606490e-03
5.227473670178e-03
5.227469405686e-03
5.227474042051e-03
5.227478789554e-03
5.227473760026e-03
5.227468841635e-03
5.227460964003e-03
5.227465914832e-03
5.227470876906e-03
5.227465632806e-03
5.227460399952e-03
5.227466004679e-03
5.227469914046e-03
5.227474245229e-03
5.227469632020e-03
5.227465440628e-03
5.227471056602e-03
5.227474335077e-03
5.227478520815e-03
5.227474053051e-03
5.227470492551e-03
5.227465902349e-03
5.227469811716e-03
5.227474142899e-03
5.227469529690e-03
5.227465338298e-03
5.227460759343e-03
5.227465710171e-03
5.227470672246e-03
5.227465428146e-03
5.227460195291e-03
5.227456653325e-03
5.227461668201e-03
5.227466343385e-03
5.227461386175e-03
5.227456089273e-03
5.227461758048e-03
5.227465572012e-03
5.227469526898e-03
5.227465289986e-03
5.227461193997e-03
5.227466523080e-03
5.227469616746e-03
5.227473390182e-03
5.227469334720e-03
5.227465959029e-03
5.227461655718e-03
5.227465469682e-03
5.227469424568e-03
5.227465187656e-03
5.227461091667e-03
5.227456448664e-03
5.227461463540e-03
5.227466138724e-03
5.227461181515e-03
5.227455884613e-03
CELL_DATA 128
SCALARS displacement_magnitude float 1
LOOKUP_TABLE default
0.000000000000e+00
0.000000000000e+00
0.000000000000e+00
0.000000000000e+00
0.000000000000e+00
0.000000000000e+00
0.000000000000e+00
0.000000000000e+00
0.000000000000e+00
0.000000000000e+00
0.000000000000e+00
0.000000000000e+00
0.000000000000e+00
0.000000000000e+00
0.000000000000e+00
0.000000000000e+00
0.000000000000e+00
0.000000000000e+00
0.000000000000e+00
0.000000000000e+00
0.000000000000e+00
0.000000000000e+00
0.000000000000e+00
0.000000000000e+00
0.000000000000e+00
0.000000000000e+00
0.000000000000e+00
0.000000000000e+00
0.000000000000e+00
0.000000000000e+00
0.000000000000e+00
0.000000000000e+00
0.000000000000e+00
0.000000000000e+00
0.000000000000e+00
0.000000000000e+00
0.000000000000e+00
0.000000000000e+00
0.000000000000e+00
0.000000000000e+00
0.000000000000e+00
0.000000000000e+00
0.000000000000e+00
0.000000000000e+00
0.000000000000e+00
0.000000000000e+00
0.000000000000e+00
0.000000000000e+00
0.000000000000e+00
0.000000000000e+00
0.000000000000e+00
0.000000000000e+00
0.000000000000e+00
0.000000000000e+00
0.000000000000e+00
0.000000000000e+00
0.000000000000e+00
0.000000000000e+00
0.000000000000e+00
0.000000000000e+00
0.000000000000e+00
0.000000000000e+00
0.000000000000e+00
0.000000000000e+00
5.227486867176e-03
5.227491044692e-03
5.227490903679e-03
5.227486444139e-03
5.227491134539e-03
5.227494605985e-03
5.227494464973e-03
5.227490711502e-03
5.227491083374e-03
5.227494554820e-03
5.227494413808e-03
5.227490660337e-03
5.227486713681e-03
5.227490891197e-03
5.227490750185e-03
5.227486290644e-03
5.227478885457e-03
5.227483122803e-03
5.227482981791e-03
5.227478462419e-03
5.227483212651e-03
5.227486812373e-03
5.227486671360e-03
5.227482789613e-03
5.227483161486e-03
5.227486761208e-03
5.227486620195e-03
5.227482738448e-03
5.227478731962e-03
5.227482969308e-03
5.227482828295e-03
5.227478308924e-03
5.227469872753e-03
5.227474286848e-03
5.227474145835e-03
5.227469449714e-03
5.227474376695e-03
5.227478184326e-03
5.227478043314e-03
5.227473953657e-03
5.227474325530e-03
5.227478133161e-03
5.227477992148e-03
5.227473902492e-03
5.227469719258e-03
5.227474133353e-03
5.227473992340e-03
5.227469296219e-03
5.227463556143e-03
5.227468007688e-03
5.227467866676e-03
5.227463133105e-03
5.227468097536e-03
5.227471890126e-03
5.227471749113e-03
5.227467674498e-03
5.227468046371e-03
5.227471838961e-03
5.227471697948e-03
5.227467623333e-03
5.227463402648e-03
5.227467854193e-03
5.227467713180e-03
5.227462979609e-03
SCALARS engineering_strain_norm float 1
LOOKUP_TABLE default
0.000000000000e+00
0.000000000000e+00
0.000000000000e+00
0.000000000000e+00
0.000000000000e+00
0.000000000000e+00
0.000000000000e+00
0.000000000000e+00
0.000000000000e+00
0.000000000000e+00
0.000000000000e+00
0.000000000000e+00
0.000000000000e+00
0.000000000000e+00
0.000000000000e+00
0.000000000000e+00
0.000000000000e+00
0.000000000000e+00
0.000000000000e+00
0.000000000000e+00
0.000000000000e+00
0.000000000000e+00
0.000000000000e+00
0.000000000000e+00
0.000000000000e+00
0.000000000000e+00
0.000000000000e+00
0.000000000000e+00
0.000000000000e+00
0.000000000000e+00
0.000000000000e+00
0.000000000000e+00
0.000000000000e+00
0.000000000000e+00
0.000000000000e+00
0.000000000000e+00
0.000000000000e+00
0.000000000000e+00
0.000000000000e+00
0.000000000000e+00
0.000000000000e+00
0.000000000000e+00
0.000000000000e+00
0.000000000000e+00
0.000000000000e+00
0.000000000000e+00
0.000000000000e+00
0.000000000000e+00
0.000000000000e+00
0.000000000000e+00
0.000000000000e+00
0.000000000000e+00
0.000000000000e+00
0.000000000000e+00
0.000000000000e+00
0.000000000000e+00
0.000000000000e+00
0.000000000000e+00
0.000000000000e+00
0.000000000000e+00
0.000000000000e+00
0.000000000000e+00
0.000000000000e+00
0.000000000000e+00
1.172845883856e-07
1.181842285662e-07
1.181842313206e-07
1.172845976339e-07
1.181842267761e-07
1.172372643713e-07
1.172372670937e-07
1.181842351933e-07
1.181842277670e-07
1.172372653620e-07
1.172372680875e-07
1.181842361833e-07
1.172845917157e-07
1.181842316345e-07
1.181842344140e-07
1.172846010128e-07
1.703495430801e-07
1.688594106889e-07
1.688594133777e-07
1.703495550855e-07
1.688594080451e-07
1.661832915434e-07
1.661832940991e-07
1.688594190625e-07
1.688594090158e-07
1.661832924397e-07
1.661832949993e-07
1.688594200020e-07
1.703495474763e-07
1.688594147002e-07
1.688594173361e-07
1.703495594185e-07
1.542622249831e-07
1.501616530671e-07
1.501616540105e-07
1.542622331166e-07
1.501616512283e-07
1.466984070773e-07
1.466984077094e-07
1.501616579575e-07
1.501616515979e-07
1.466984073269e-07
1.466984079633e-07
1.501616582636e-07
1.542622279600e-07
1.501616555166e-07
1.501616564179e-07
1.542622360245e-07
8.448745107354e-08
9.773919460331e-08
9.773919544949e-08
8.448745501834e-08
9.773919408235e-08
1.107873216973e-07
1.107873222727e-07
9.773919653589e-08
9.773919440231e-08
1.107873218807e-07
1.107873224619e-07
9.773919679691e-08
8.448745251972e-08
9.773919547519e-08
9.773919629350e-08
8.448745642613e-08
SCALARS von_mises float 1
LOOKUP_TABLE default
0.000000000000e+00
0.000000000000e+00
0.000000000000e+00
0.000000000000e+00
0.000000000000e+00
0.000000000000e+00
0.000000000000e+00
0.000000000000e+00
0.000000000000e+00
0.000000000000e+00
0.000000000000e+00
0.000000000000e+00
0.000000000000e+00
0.000000000000e+00
0.000000000000e+00
0.000000000000e+00
0.000000000000e+00
0.000000000000e+00
0.000000000000e+00
0.000000000000e+00
0.000000000000e+00
0.000000000000e+00
0.000000000000e+00
0.000000000000e+00
0.000000000000e+00
0.000000000000e+00
0.000000000000e+00
0.000000000000e+00
0.000000000000e+00
0.000000000000e+00
0.000000000000e+00
0.000000000000e+00
0.000000000000e+00
0.000000000000e+00
0.000000000000e+00
0.000000000000e+00
0.000000000000e+00
0.000000000000e+00
0.000000000000e+00
0.000000000000e+00
0.000000000000e+00
0.000000000000e+00
0.000000000000e+00
0.000000000000e+00
0.000000000000e+00
0.000000000000e+00
0.000000000000e+00
0.000000000000e+00
0.000000000000e+00
0.000000000000e+00
0.000000000000e+00
0.000000000000e+00
0.000000000000e+00
0.000000000000e+00
0.000000000000e+00
0.000000000000e+00
0.000000000000e+00
0.000000000000e+00
0.000000000000e+00
0.000000000000e+00
0.000000000000e+00
0.000000000000e+00
0.000000000000e+00
0.000000000000e+00
1.099209029876e-02
1.101149345871e-02
1.101149375452e-02
1.099209118062e-02
1.101149329962e-02
1.087301658225e-02
1.087301686725e-02
1.101149409867e-02
1.101149340562e-02
1.087301668570e-02
1.087301697183e-02
1.101149420600e-02
1.099209061645e-02
1.101149375005e-02
1.101149404908e-02
1.099209150359e-02
1.548642505811e-02
1.536162097662e-02
1.536162132058e-02
1.548642622240e-02
1.536162075314e-02
1.513273292752e-02
1.513273324472e-02
1.536162180040e-02
1.536162087701e-02
1.513273303969e-02
1.513273335739e-02
1.536162192312e-02
1.548642548439e-02
1.536162135795e-02
1.536162169809e-02
1.548642664474e-02
1.377014217376e-02
1.354379739997e-02
1.354379761493e-02
1.377014301163e-02
1.354379724748e-02
1.339299754588e-02
1.339299772282e-02
1.354379794010e-02
1.354379732768e-02
1.339299761168e-02
1.339299778905e-02
1.354379801633e-02
1.377014248046e-02
1.354379765192e-02
1.354379786391e-02
1.377014331408e-02
7.762725441967e-03
8.952380663950e-03
8.952380805107e-03
7.762725839203e-03
8.952380627479e-03
1.002923676890e-02
1.002923687625e-02
8.952380880036e-03
8.952380679742e-03
1.002923680493e-02
1.002923691305e-02
8.952380928001e-03
7.762725587474e-03
8.952380753529e-03
8.952380892981e-03
7.762725982131e-03
SCALARS sdf_gap float 1
LOOKUP_TABLE default
0.000000000000e+00
0.000000000000e+00
0.000000000000e+00
0.000000000000e+00
0.000000000000e+00
0.000000000000e+00
0.000000000000e+00
0.000000000000e+00
0.000000000000e+00
0.000000000000e+00
0.000000000000e+00
0.000000000000e+00
0.000000000000e+00
0.000000000000e+00
0.000000000000e+00
0.000000000000e+00
0.000000000000e+00
0.000000000000e+00
0.000000000000e+00
0.000000000000e+00
0.000000000000e+00
0.000000000000e+00
0.000000000000e+00
0.000000000000e+00
0.000000000000e+00
0.000000000000e+00
0.000000000000e+00
0.000000000000e+00
0.000000000000e+00
0.000000000000e+00
0.000000000000e+00
0.000000000000e+00
0.000000000000e+00
0.000000000000e+00
0.000000000000e+00
0.000000000000e+00
0.000000000000e+00
0.000000000000e+00
0.000000000000e+00
0.000000000000e+00
0.000000000000e+00
0.000000000000e+00
0.000000000000e+00
0.000000000000e+00
0.000000000000e+00
0.000000000000e+00
0.000000000000e+00
0.000000000000e+00
0.000000000000e+00
0.000000000000e+00
0.000000000000e+00
0.000000000000e+00
0.000000000000e+00
0.000000000000e+00
0.000000000000e+00
0.000000000000e+00
0.000000000000e+00
0.000000000000e+00
0.000000000000e+00
0.000000000000e+00
0.000000000000e+00
0.000000000000e+00
0.000000000000e+00
0.000000000000e+00
9.772509990457e-03
9.772505820288e-03
9.772505961300e-03
9.772510413494e-03
9.772505730441e-03
9.772502297917e-03
9.772502438929e-03
9.772506153477e-03
9.772505781605e-03
9.772502349082e-03
9.772502490094e-03
9.772506204642e-03
9.772510143952e-03
9.772505973783e-03
9.772506114795e-03
9.772510566988e-03
0.000000000000e+00
0.000000000000e+00
0.000000000000e+00
0.000000000000e+00
0.000000000000e+00
0.000000000000e+00
0.000000000000e+00
0.000000000000e+00
0.000000000000e+00
0.000000000000e+00
0.000000000000e+00
0.000000000000e+00
0.000000000000e+00
0.000000000000e+00
0.000000000000e+00
0.000000000000e+00
0.000000000000e+00
0.000000000000e+00
0.000000000000e+00
0.000000000000e+00
0.000000000000e+00
0.000000000000e+00
0.000000000000e+00
0.000000000000e+00
0.000000000000e+00
0.000000000000e+00
0.000000000000e+00
0.000000000000e+00
0.000000000000e+00
0.000000000000e+00
0.000000000000e+00
0.000000000000e+00
0.000000000000e+00
0.000000000000e+00
0.000000000000e+00
0.000000000000e+00
0.000000000000e+00
0.000000000000e+00
0.000000000000e+00
0.000000000000e+00
0.000000000000e+00
0.000000000000e+00
0.000000000000e+00
0.000000000000e+00
0.000000000000e+00
0.000000000000e+00
0.000000000000e+00
0.000000000000e+00
SCALARS contact_pressure float 1
LOOKUP_TABLE default
0.000000000000e+00
0.000000000000e+00
0.000000000000e+00
0.000000000000e+00
0.000000000000e+00
0.000000000000e+00
0.000000000000e+00
0.000000000000e+00
0.000000000000e+00
0.000000000000e+00
0.000000000000e+00
0.000000000000e+00
0.000000000000e+00
0.000000000000e+00
0.000000000000e+00
0.000000000000e+00
0.000000000000e+00
0.000000000000e+00
0.000000000000e+00
0.000000000000e+00
0.000000000000e+00
0.000000000000e+00
0.000000000000e+00
0.000000000000e+00
0.000000000000e+00
0.000000000000e+00
0.000000000000e+00
0.000000000000e+00
0.000000000000e+00
0.000000000000e+00
0.000000000000e+00
0.000000000000e+00
0.000000000000e+00
0.000000000000e+00
0.000000000000e+00
0.000000000000e+00
0.000000000000e+00
0.000000000000e+00
0.000000000000e+00
0.000000000000e+00
0.000000000000e+00
0.000000000000e+00
0.000000000000e+00
0.000000000000e+00
0.000000000000e+00
0.000000000000e+00
0.000000000000e+00
0.000000000000e+00
0.000000000000e+00
0.000000000000e+00
0.000000000000e+00
0.000000000000e+00
0.000000000000e+00
0.000000000000e+00
0.000000000000e+00
0.000000000000e+00
0.000000000000e+00
0.000000000000e+00
0.000000000000e+00
0.000000000000e+00
0.000000000000e+00
0.000000000000e+00
0.000000000000e+00
0.000000000000e+00
0.000000000000e+00
0.000000000000e+00
0.000000000000e+00
0.000000000000e+00
0.000000000000e+00
0.000000000000e+00
0.000000000000e+00
0.000000000000e+00
0.000000000000e+00
0.000000000000e+00
0.000000000000e+00
0.000000000000e+00
0.000000000000e+00
0.000000000000e+00
0.000000000000e+00
0.000000000000e+00
0.000000000000e+00
0.000000000000e+00
0.000000000000e+00
0.000000000000e+00
0.000000000000e+00
0.000000000000e+00
0.000000000000e+00
0.000000000000e+00
0.000000000000e+00
0.000000000000e+00
0.000000000000e+00
0.000000000000e+00
0.000000000000e+00
0.000000000000e+00
0.000000000000e+00
0.000000000000e+00
0.000000000000e+00
0.000000000000e+00
0.000000000000e+00
0.000000000000e+00
0.000000000000e+00
0.000000000000e+00
0.000000000000e+00
0.000000000000e+00
0.000000000000e+00
0.000000000000e+00
0.000000000000e+00
0.000000000000e+00
0.000000000000e+00
0.000000000000e+00
0.000000000000e+00
0.000000000000e+00
0.000000000000e+00
0.000000000000e+00
0.000000000000e+00
0.000000000000e+00
0.000000000000e+00
0.000000000000e+00
0.000000000000e+00
0.000000000000e+00
0.000000000000e+00
0.000000000000e+00
0.000000000000e+00
0.000000000000e+00
0.000000000000e+00
0.000000000000e+00
0.000000000000e+00
0.000000000000e+00
SCALARS active_contact float 1
LOOKUP_TABLE default
0.000000000000e+00
0.000000000000e+00
0.000000000000e+00
0.000000000000e+00
0.000000000000e+00
0.000000000000e+00
0.000000000000e+00
0.000000000000e+00
0.000000000000e+00
0.000000000000e+00
0.000000000000e+00
0.000000000000e+00
0.000000000000e+00
0.000000000000e+00
0.000000000000e+00
0.000000000000e+00
0.000000000000e+00
0.000000000000e+00
0.000000000000e+00
0.000000000000e+00
0.000000000000e+00
0.000000000000e+00
0.000000000000e+00
0.000000000000e+00
0.000000000000e+00
0.000000000000e+00
0.000000000000e+00
0.000000000000e+00
0.000000000000e+00
0.000000000000e+00
0.000000000000e+00
0.000000000000e+00
0.000000000000e+00
0.000000000000e+00
0.000000000000e+00
0.000000000000e+00
0.000000000000e+00
0.000000000000e+00
0.000000000000e+00
0.000000000000e+00
0.000000000000e+00
0.000000000000e+00
0.000000000000e+00
0.000000000000e+00
0.000000000000e+00
0.000000000000e+00
0.000000000000e+00
0.000000000000e+00
0.000000000000e+00
0.000000000000e+00
0.000000000000e+00
0.000000000000e+00
0.000000000000e+00
0.000000000000e+00
0.000000000000e+00
0.000000000000e+00
0.000000000000e+00
0.000000000000e+00
0.000000000000e+00
0.000000000000e+00
0.000000000000e+00
0.000000000000e+00
0.000000000000e+00
0.000000000000e+00
0.000000000000e+00
0.000000000000e+00
0.000000000000e+00
0.000000000000e+00
0.000000000000e+00
0.000000000000e+00
0.000000000000e+00
0.000000000000e+00
0.000000000000e+00
0.000000000000e+00
0.000000000000e+00
0.000000000000e+00
0.000000000000e+00
0.000000000000e+00
0.000000000000e+00
0.000000000000e+00
0.000000000000e+00
0.000000000000e+00
0.000000000000e+00
0.000000000000e+00
0.000000000000e+00
0.000000000000e+00
0.000000000000e+00
0.000000000000e+00
0.000000000000e+00
0.000000000000e+00
0.000000000000e+00
0.000000000000e+00
0.000000000000e+00
0.000000000000e+00
0.000000000000e+00
0.000000000000e+00
0.000000000000e+00
0.000000000000e+00
0.000000000000e+00
0.000000000000e+00
0.000000000000e+00
0.000000000000e+00
0.000000000000e+00
0.000000000000e+00
0.000000000000e+00
0.000000000000e+00
0.000000000000e+00
0.000000000000e+00
0.000000000000e+00
0.000000000000e+00
0.000000000000e+00
0.000000000000e+00
0.000000000000e+00
0.000000000000e+00
0.000000000000e+00
0.000000000000e+00
0.000000000000e+00
0.000000000000e+00
0.000000000000e+00
0.000000000000e+00
0.000000000000e+00
0.000000000000e+00
0.000000000000e+00
0.000000000000e+00
0.000000000000e+00
0.000000000000e+00
0.000000000000e+00
0.000000000000e+00
