# vtk DataFile Version 3.0
SFC long-time C3D8 dynamic frame 74 t=1.480000000000e+00
ASCII
DATASET UNSTRUCTURED_GRID
POINTS 250 float
-2.500000000000e-01 -2.500000000000e-01 0.000000000000e+00
-1.250000000000e-01 -2.500000000000e-01 0.000000000000e+00
0.000000000000e+00 -2.500000000000e-01 0.000000000000e+00
1.250000000000e-01 -2.500000000000e-01 0.000000000000e+00
2.500000000000e-01 -2.500000000000e-01 0.000000000000e+00
-2.500000000000e-01 -1.250000000000e-01 0.000000000000e+00
-1.250000000000e-01 -1.250000000000e-01 0.000000000000e+00
0.000000000000e+00 -1.250000000000e-01 0.000000000000e+00
1.250000000000e-01 -1.250000000000e-01 0.000000000000e+00
2.500000000000e-01 -1.250000000000e-01 0.000000000000e+00
-2.500000000000e-01 0.000000000000e+00 0.000000000000e+00
-1.250000000000e-01 0.000000000000e+00 0.000000000000e+00
0.000000000000e+00 0.000000000000e+00 0.000000000000e+00
1.250000000000e-01 0.000000000000e+00 0.000000000000e+00
2.500000000000e-01 0.000000000000e+00 0.000000000000e+00
-2.500000000000e-01 1.250000000000e-01 0.000000000000e+00
-1.250000000000e-01 1.250000000000e-01 0.000000000000e+00
0.000000000000e+00 1.250000000000e-01 0.000000000000e+00
1.250000000000e-01 1.250000000000e-01 0.000000000000e+00
2.500000000000e-01 1.250000000000e-01 0.000000000000e+00
-2.500000000000e-01 2.500000000000e-01 0.000000000000e+00
-1.250000000000e-01 2.500000000000e-01 0.000000000000e+00
0.000000000000e+00 2.500000000000e-01 0.000000000000e+00
1.250000000000e-01 2.500000000000e-01 0.000000000000e+00
2.500000000000e-01 2.500000000000e-01 0.000000000000e+00
-2.500000000000e-01 -2.500000000000e-01 6.000000000000e-02
-1.250000000000e-01 -2.500000000000e-01 6.000000000000e-02
0.000000000000e+00 -2.500000000000e-01 6.000000000000e-02
1.250000000000e-01 -2.500000000000e-01 6.000000000000e-02
2.500000000000e-01 -2.500000000000e-01 6.000000000000e-02
-2.500000000000e-01 -1.250000000000e-01 6.000000000000e-02
-1.250000000000e-01 -1.250000000000e-01 6.000000000000e-02
0.000000000000e+00 -1.250000000000e-01 6.000000000000e-02
1.250000000000e-01 -1.250000000000e-01 6.000000000000e-02
2.500000000000e-01 -1.250000000000e-01 6.000000000000e-02
-2.500000000000e-01 0.000000000000e+00 6.000000000000e-02
-1.250000000000e-01 0.000000000000e+00 6.000000000000e-02
0.000000000000e+00 0.000000000000e+00 6.000000000000e-02
1.250000000000e-01 0.000000000000e+00 6.000000000000e-02
2.500000000000e-01 0.000000000000e+00 6.000000000000e-02
-2.500000000000e-01 1.250000000000e-01 6.000000000000e-02
-1.250000000000e-01 1.250000000000e-01 6.000000000000e-02
0.000000000000e+00 1.250000000000e-01 6.000000000000e-02
1.250000000000e-01 1.250000000000e-01 6.000000000000e-02
2.500000000000e-01 1.250000000000e-01 6.000000000000e-02
-2.500000000000e-01 2.500000000000e-01 6.000000000000e-02
-1.250000000000e-01 2.500000000000e-01 6.000000000000e-02
0.000000000000e+00 2.500000000000e-01 6.000000000000e-02
1.250000000000e-01 2.500000000000e-01 6.000000000000e-02
2.500000000000e-01 2.500000000000e-01 6.000000000000e-02
-2.500000000000e-01 -2.500000000000e-01 1.200000000000e-01
-1.250000000000e-01 -2.500000000000e-01 1.200000000000e-01
0.000000000000e+00 -2.500000000000e-01 1.200000000000e-01
1.250000000000e-01 -2.500000000000e-01 1.200000000000e-01
2.500000000000e-01 -2.500000000000e-01 1.200000000000e-01
-2.500000000000e-01 -1.250000000000e-01 1.200000000000e-01
-1.250000000000e-01 -1.250000000000e-01 1.200000000000e-01
0.000000000000e+00 -1.250000000000e-01 1.200000000000e-01
1.250000000000e-01 -1.250000000000e-01 1.200000000000e-01
2.500000000000e-01 -1.250000000000e-01 1.200000000000e-01
-2.500000000000e-01 0.000000000000e+00 1.200000000000e-01
-1.250000000000e-01 0.000000000000e+00 1.200000000000e-01
0.000000000000e+00 0.000000000000e+00 1.200000000000e-01
1.250000000000e-01 0.000000000000e+00 1.200000000000e-01
2.500000000000e-01 0.000000000000e+00 1.200000000000e-01
-2.500000000000e-01 1.250000000000e-01 1.200000000000e-01
-1.250000000000e-01 1.250000000000e-01 1.200000000000e-01
0.000000000000e+00 1.250000000000e-01 1.200000000000e-01
1.250000000000e-01 1.250000000000e-01 1.200000000000e-01
2.500000000000e-01 1.250000000000e-01 1.200000000000e-01
-2.500000000000e-01 2.500000000000e-01 1.200000000000e-01
-1.250000000000e-01 2.500000000000e-01 1.200000000000e-01
0.000000000000e+00 2.500000000000e-01 1.200000000000e-01
1.250000000000e-01 2.500000000000e-01 1.200000000000e-01
2.500000000000e-01 2.500000000000e-01 1.200000000000e-01
-2.500000000000e-01 -2.500000000000e-01 1.800000000000e-01
-1.250000000000e-01 -2.500000000000e-01 1.800000000000e-01
0.000000000000e+00 -2.500000000000e-01 1.800000000000e-01
1.250000000000e-01 -2.500000000000e-01 1.800000000000e-01
2.500000000000e-01 -2.500000000000e-01 1.800000000000e-01
-2.500000000000e-01 -1.250000000000e-01 1.800000000000e-01
-1.250000000000e-01 -1.250000000000e-01 1.800000000000e-01
0.000000000000e+00 -1.250000000000e-01 1.800000000000e-01
1.250000000000e-01 -1.250000000000e-01 1.800000000000e-01
2.500000000000e-01 -1.250000000000e-01 1.800000000000e-01
-2.500000000000e-01 0.000000000000e+00 1.800000000000e-01
-1.250000000000e-01 0.000000000000e+00 1.800000000000e-01
0.000000000000e+00 0.000000000000e+00 1.800000000000e-01
1.250000000000e-01 0.000000000000e+00 1.800000000000e-01
2.500000000000e-01 0.000000000000e+00 1.800000000000e-01
-2.500000000000e-01 1.250000000000e-01 1.800000000000e-01
-1.250000000000e-01 1.250000000000e-01 1.800000000000e-01
0.000000000000e+00 1.250000000000e-01 1.800000000000e-01
1.250000000000e-01 1.250000000000e-01 1.800000000000e-01
2.500000000000e-01 1.250000000000e-01 1.800000000000e-01
-2.500000000000e-01 2.500000000000e-01 1.800000000000e-01
-1.250000000000e-01 2.500000000000e-01 1.800000000000e-01
0.000000000000e+00 2.500000000000e-01 1.800000000000e-01
1.250000000000e-01 2.500000000000e-01 1.800000000000e-01
2.500000000000e-01 2.500000000000e-01 1.800000000000e-01
-2.500000000000e-01 -2.500000000000e-01 2.400000000000e-01
-1.250000000000e-01 -2.500000000000e-01 2.400000000000e-01
0.000000000000e+00 -2.500000000000e-01 2.400000000000e-01
1.250000000000e-01 -2.500000000000e-01 2.400000000000e-01
2.500000000000e-01 -2.500000000000e-01 2.400000000000e-01
-2.500000000000e-01 -1.250000000000e-01 2.400000000000e-01
-1.250000000000e-01 -1.250000000000e-01 2.400000000000e-01
0.000000000000e+00 -1.250000000000e-01 2.400000000000e-01
1.250000000000e-01 -1.250000000000e-01 2.400000000000e-01
2.500000000000e-01 -1.250000000000e-01 2.400000000000e-01
-2.500000000000e-01 0.000000000000e+00 2.400000000000e-01
-1.250000000000e-01 0.000000000000e+00 2.400000000000e-01
0.000000000000e+00 0.000000000000e+00 2.400000000000e-01
1.250000000000e-01 0.000000000000e+00 2.400000000000e-01
2.500000000000e-01 0.000000000000e+00 2.400000000000e-01
-2.500000000000e-01 1.250000000000e-01 2.400000000000e-01
-1.250000000000e-01 1.250000000000e-01 2.400000000000e-01
0.000000000000e+00 1.250000000000e-01 2.400000000000e-01
1.250000000000e-01 1.250000000000e-01 2.400000000000e-01
2.500000000000e-01 1.250000000000e-01 2.400000000000e-01
-2.500000000000e-01 2.500000000000e-01 2.400000000000e-01
-1.250000000000e-01 2.500000000000e-01 2.400000000000e-01
0.000000000000e+00 2.500000000000e-01 2.400000000000e-01
1.250000000000e-01 2.500000000000e-01 2.400000000000e-01
2.500000000000e-01 2.500000000000e-01 2.400000000000e-01
-2.499999724771e-01 -2.499999725516e-01 2.483061545221e-01
-1.249999821092e-01 -2.499999733873e-01 2.483061624995e-01
1.158907685587e-10 -2.499999745962e-01 2.483061655483e-01
1.249999823410e-01 -2.499999733874e-01 2.483061627219e-01
2.499999727089e-01 -2.499999725517e-01 2.483061549667e-01
-2.499999733128e-01 -1.249999821837e-01 2.483061624288e-01
-1.249999820626e-01 -1.249999821371e-01 2.483061700683e-01
1.159267232080e-10 -1.249999824208e-01 2.483061729329e-01
1.249999822944e-01 -1.249999821372e-01 2.483061702906e-01
2.499999735446e-01 -1.249999821838e-01 2.483061628734e-01
-2.499999745215e-01 4.142457689010e-11 2.483061654068e-01
-1.249999823462e-01 4.138805557023e-11 2.483061728621e-01
1.159629742508e-10 4.135163621040e-11 2.483061756630e-01
1.249999825781e-01 4.131530086624e-11 2.483061730844e-01
2.499999747535e-01 4.127907953868e-11 2.483061658514e-01
-2.499999733127e-01 1.249999822665e-01 2.483061625095e-01
-1.249999820625e-01 1.249999822199e-01 2.483061701491e-01
1.159994398229e-10 1.249999825035e-01 2.483061730136e-01
1.249999822945e-01 1.249999822198e-01 2.483061703714e-01
2.499999735447e-01 1.249999822664e-01 2.483061629542e-01
-2.499999724769e-01 2.499999726344e-01 2.483061546836e-01
-1.249999821091e-01 2.499999734701e-01 2.483061626610e-01
1.160362147617e-10 2.499999746789e-01 2.483061657098e-01
1.249999823411e-01 2.499999734700e-01 2.483061628834e-01
2.499999727090e-01 2.499999726343e-01 2.483061551282e-01
-2.499999763345e-01 -2.499999763721e-01 3.133061612139e-01
-1.249999852494e-01 -2.499999769284e-01 3.133061702363e-01
5.808573016187e-11 -2.499999779144e-01 3.133061740518e-01
1.249999853655e-01 -2.499999769285e-01 3.133061704586e-01
2.499999764506e-01 -2.499999763723e-01 3.133061616586e-01
-2.499999768907e-01 -1.249999852870e-01 3.133061701655e-01
-1.249999851870e-01 -1.249999852248e-01 3.133061790835e-01
5.812166953487e-11 -1.249999854636e-01 3.133061828948e-01
1.249999853033e-01 -1.249999852248e-01 3.133061793058e-01
2.499999770069e-01 -1.249999852872e-01 3.133061706102e-01
-2.499999778766e-01 2.043106601917e-11 3.133061739102e-01
-1.249999854258e-01 2.039454373525e-11 3.133061828240e-01
5.815790371662e-11 2.035812436651e-11 3.133061867246e-01
1.249999855422e-01 2.032179863080e-11 3.133061830463e-01
2.499999779929e-01 2.028558550473e-11 3.133061743549e-01
-2.499999768906e-01 1.249999853279e-01 3.133061702463e-01
-1.249999851870e-01 1.249999852656e-01 3.133061791642e-01
5.819439640345e-11 1.249999855044e-01 3.133061829755e-01
1.249999853034e-01 1.249999852655e-01 3.133061793866e-01
2.499999770070e-01 1.249999853277e-01 3.133061706909e-01
-2.499999763343e-01 2.499999764130e-01 3.133061613754e-01
-1.249999852492e-01 2.499999769692e-01 3.133061703978e-01
5.823119107558e-11 2.499999779551e-01 3.133061742133e-01
1.249999853657e-01 2.499999769691e-01 3.133061706201e-01
2.499999764508e-01 2.499999764128e-01 3.133061618200e-01
-2.499999809067e-01 -2.499999809075e-01 3.783061705181e-01
-1.249999886789e-01 -2.499999812513e-01 3.783061804983e-01
2.802026598330e-13 -2.499999820116e-01 3.783061845464e-01
1.249999886795e-01 -2.499999812514e-01 3.783061807206e-01
2.499999809072e-01 -2.499999809077e-01 3.783061709628e-01
-2.499999812504e-01 -1.249999886798e-01 3.783061804275e-01
-1.249999886536e-01 -1.249999886545e-01 3.783061904559e-01
3.162106725854e-13 -1.249999888646e-01 3.783061945768e-01
1.249999886542e-01 -1.249999886546e-01 3.783061906783e-01
2.499999812510e-01 -1.249999886799e-01 3.783061808722e-01
-2.499999820106e-01 -5.626176142507e-13 3.783061844049e-01
-1.249999888636e-01 -5.991150755055e-13 3.783061945060e-01
3.524501246318e-13 -6.355288747583e-13 3.783061987815e-01
1.249999888643e-01 -6.718508111308e-13 3.783061947283e-01
2.499999820113e-01 -7.080881944178e-13 3.783061848495e-01
-2.499999812503e-01 1.249999886786e-01 3.783061805082e-01
-1.249999886535e-01 1.249999886533e-01 3.783061905367e-01
3.889455983280e-13 1.249999888633e-01 3.783061946576e-01
1.249999886543e-01 1.249999886532e-01 3.783061907590e-01
2.499999812511e-01 1.249999886785e-01 3.783061809529e-01
-2.499999809065e-01 2.499999809064e-01 3.783061706796e-01
-1.249999886788e-01 2.499999812501e-01 3.783061806598e-01
4.256717356402e-13 2.499999820103e-01 3.783061847079e-01
1.249999886796e-01 2.499999812500e-01 3.783061808821e-01
2.499999809074e-01 2.499999809062e-01 3.783061711243e-01
-2.499999873775e-01 -2.499999873415e-01 4.433061781375e-01
-1.249999924071e-01 -2.499999876612e-01 4.433061887956e-01
-5.752555777975e-11 -2.499999882621e-01 4.433061929459e-01
1.249999922921e-01 -2.499999876613e-01 4.433061890179e-01
2.499999872624e-01 -2.499999873417e-01 4.433061785822e-01
-2.499999876971e-01 -1.249999923712e-01 4.433061887248e-01
-1.249999923997e-01 -1.249999923638e-01 4.433061995442e-01
-5.748947672143e-11 -1.249999925637e-01 4.433062038204e-01
1.249999922848e-01 -1.249999923639e-01 4.433061997666e-01
2.499999875822e-01 -1.249999923713e-01 4.433061891695e-01
-2.499999882979e-01 -2.155638442989e-11 4.433061928043e-01
-1.249999925995e-01 -2.159285810604e-11 4.433062037496e-01
-5.745323504213e-11 -2.162926844352e-11 4.433062082084e-01
1.249999924846e-01 -2.166558283695e-11 4.433062039719e-01
2.499999881830e-01 -2.170184640302e-11 4.433061932490e-01
-2.499999876971e-01 1.249999923281e-01 4.433061888056e-01
-1.249999923997e-01 1.249999923207e-01 4.433061996250e-01
-5.741673059971e-11 1.249999925204e-01 4.433062039011e-01
1.249999922848e-01 1.249999923206e-01 4.433061998473e-01
2.499999875822e-01 1.249999923279e-01 4.433061892502e-01
-2.499999873773e-01 2.499999872984e-01 4.433061782990e-01
-1.249999924070e-01 2.499999876181e-01 4.433061889571e-01
-5.738007870526e-11 2.499999882189e-01 4.433061931074e-01
1.249999922922e-01 2.499999876180e-01 4.433061891794e-01
2.499999872626e-01 2.499999872983e-01 4.433061787436e-01
-2.499999939257e-01 -2.499999938529e-01 5.083061816160e-01
-1.249999964236e-01 -2.499999941816e-01 5.083061925597e-01
-1.153310547145e-10 -2.499999946906e-01 5.083061968726e-01
1.249999961929e-01 -2.499999941816e-01 5.083061927820e-01
2.499999936950e-01 -2.499999938530e-01 5.083061820606e-01
-2.499999942543e-01 -1.249999963508e-01 5.083061924889e-01
-1.249999964870e-01 -1.249999964143e-01 5.083062036742e-01
-1.152949936625e-10 -1.249999966694e-01 5.083062081609e-01
1.249999962564e-01 -1.249999964144e-01 5.083062038965e-01
2.499999940237e-01 -1.249999963509e-01 5.083061929335e-01
-2.499999947632e-01 -4.255006139447e-11 5.083061967310e-01
-1.249999967421e-01 -4.258654027429e-11 5.083062080901e-01
-1.152587780471e-10 -4.262295441648e-11 5.083062127730e-01
1.249999965115e-01 -4.265925301671e-11 5.083062083124e-01
2.499999945327e-01 -4.269550479249e-11 5.083061971757e-01
-2.499999942542e-01 1.249999962657e-01 5.083061925696e-01
-1.249999964869e-01 1.249999963291e-01 5.083062037549e-01
-1.152222365635e-10 1.249999965842e-01 5.083062082416e-01
1.249999962565e-01 1.249999963291e-01 5.083062039772e-01
2.499999940238e-01 1.249999962655e-01 5.083061930143e-01
-2.499999939255e-01 2.499999937678e-01 5.083061817775e-01
-1.249999964234e-01 2.499999940964e-01 5.083061927212e-01
-1.151855553959e-10 2.499999946053e-01 5.083061970341e-01
1.249999961930e-01 2.499999940963e-01 5.083061929435e-01
2.499999936952e-01 2.499999937676e-01 5.083061822221e-01
CELLS 128 1152
8 0 1 6 5 25 26 31 30
8 1 2 7 6 26 27 32 31
8 2 3 8 7 27 28 33 32
8 3 4 9 8 28 29 34 33
8 5 6 11 10 30 31 36 35
8 6 7 12 11 31 32 37 36
8 7 8 13 12 32 33 38 37
8 8 9 14 13 33 34 39 38
8 10 11 16 15 35 36 41 40
8 11 12 17 16 36 37 42 41
8 12 13 18 17 37 38 43 42
8 13 14 19 18 38 39 44 43
8 15 16 21 20 40 41 46 45
8 16 17 22 21 41 42 47 46
8 17 18 23 22 42 43 48 47
8 18 19 24 23 43 44 49 48
8 25 26 31 30 50 51 56 55
8 26 27 32 31 51 52 57 56
8 27 28 33 32 52 53 58 57
8 28 29 34 33 53 54 59 58
8 30 31 36 35 55 56 61 60
8 31 32 37 36 56 57 62 61
8 32 33 38 37 57 58 63 62
8 33 34 39 38 58 59 64 63
8 35 36 41 40 60 61 66 65
8 36 37 42 41 61 62 67 66
8 37 38 43 42 62 63 68 67
8 38 39 44 43 63 64 69 68
8 40 41 46 45 65 66 71 70
8 41 42 47 46 66 67 72 71
8 42 43 48 47 67 68 73 72
8 43 44 49 48 68 69 74 73
8 50 51 56 55 75 76 81 80
8 51 52 57 56 76 77 82 81
8 52 53 58 57 77 78 83 82
8 53 54 59 58 78 79 84 83
8 55 56 61 60 80 81 86 85
8 56 57 62 61 81 82 87 86
8 57 58 63 62 82 83 88 87
8 58 59 64 63 83 84 89 88
8 60 61 66 65 85 86 91 90
8 61 62 67 66 86 87 92 91
8 62 63 68 67 87 88 93 92
8 63 64 69 68 88 89 94 93
8 65 66 71 70 90 91 96 95
8 66 67 72 71 91 92 97 96
8 67 68 73 72 92 93 98 97
8 68 69 74 73 93 94 99 98
8 75 76 81 80 100 101 106 105
8 76 77 82 81 101 102 107 106
8 77 78 83 82 102 103 108 107
8 78 79 84 83 103 104 109 108
8 80 81 86 85 105 106 111 110
8 81 82 87 86 106 107 112 111
8 82 83 88 87 107 108 113 112
8 83 84 89 88 108 109 114 113
8 85 86 91 90 110 111 116 115
8 86 87 92 91 111 112 117 116
8 87 88 93 92 112 113 118 117
8 88 89 94 93 113 114 119 118
8 90 91 96 95 115 116 121 120
8 91 92 97 96 116 117 122 121
8 92 93 98 97 117 118 123 122
8 93 94 99 98 118 119 124 123
8 125 126 131 130 150 151 156 155
8 126 127 132 131 151 152 157 156
8 127 128 133 132 152 153 158 157
8 128 129 134 133 153 154 159 158
8 130 131 136 135 155 156 161 160
8 131 132 137 136 156 157 162 161
8 132 133 138 137 157 158 163 162
8 133 134 139 138 158 159 164 163
8 135 136 141 140 160 161 166 165
8 136 137 142 141 161 162 167 166
8 137 138 143 142 162 163 168 167
8 138 139 144 143 163 164 169 168
8 140 141 146 145 165 166 171 170
8 141 142 147 146 166 167 172 171
8 142 143 148 147 167 168 173 172
8 143 144 149 148 168 169 174 173
8 150 151 156 155 175 176 181 180
8 151 152 157 156 176 177 182 181
8 152 153 158 157 177 178 183 182
8 153 154 159 158 178 179 184 183
8 155 156 161 160 180 181 186 185
8 156 157 162 161 181 182 187 186
8 157 158 163 162 182 183 188 187
8 158 159 164 163 183 184 189 188
8 160 161 166 165 185 186 191 190
8 161 162 167 166 186 187 192 191
8 162 163 168 167 187 188 193 192
8 163 164 169 168 188 189 194 193
8 165 166 171 170 190 191 196 195
8 166 167 172 171 191 192 197 196
8 167 168 173 172 192 193 198 197
8 168 169 174 173 193 194 199 198
8 175 176 181 180 200 201 206 205
8 176 177 182 181 201 202 207 206
8 177 178 183 182 202 203 208 207
8 178 179 184 183 203 204 209 208
8 180 181 186 185 205 206 211 210
8 181 182 187 186 206 207 212 211
8 182 183 188 187 207 208 213 212
8 183 184 189 188 208 209 214 213
8 185 186 191 190 210 211 216 215
8 186 187 192 191 211 212 217 216
8 187 188 193 192 212 213 218 217
8 188 189 194 193 213 214 219 218
8 190 191 196 195 215 216 221 220
8 191 192 197 196 216 217 222 221
8 192 193 198 197 217 218 223 222
8 193 194 199 198 218 219 224 223
8 200 201 206 205 225 226 231 230
8 201 202 207 206 226 227 232 231
8 202 203 208 207 227 228 233 232
8 203 204 209 208 228 229 234 233
8 205 206 211 210 230 231 236 235
8 206 207 212 211 231 232 237 236
8 207 208 213 212 232 233 238 237
8 208 209 214 213 233 234 239 238
8 210 211 216 215 235 236 241 240
8 211 212 217 216 236 237 242 241
8 212 213 218 217 237 238 243 242
8 213 214 219 218 238 239 244 243
8 215 216 221 220 240 241 246 245
8 216 217 222 221 241 242 247 246
8 217 218 223 222 242 243 248 247
8 218 219 224 223 243 244 249 248
CELL_TYPES 128
12
12
12
12
12
12
12
12
12
12
12
12
12
12
12
12
12
12
12
12
12
12
12
12
12
12
12
12
12
12
12
12
12
12
12
12
12
12
12
12
12
12
12
12
12
12
12
12
12
12
12
12
12
12
12
12
12
12
12
12
12
12
12
12
12
12
12
12
12
12
12
12
12
12
12
12
12
12
12
12
12
12
12
12
12
12
12
12
12
12
12
12
12
12
12
12
12
12
12
12
12
12
12
12
12
12
12
12
12
12
12
12
12
12
12
12
12
12
12
12
12
12
12
12
12
12
12
12
POINT_DATA 250
VECTORS displacement float
0.000000000000e+00 0.000000000000e+00 0.000000000000e+00
0.000000000000e+00 0.000000000000e+00 0.000000000000e+00
0.000000000000e+00 0.000000000000e+00 0.000000000000e+00
0.000000000000e+00 0.000000000000e+00 0.000000000000e+00
0.000000000000e+00 0.000000000000e+00 0.000000000000e+00
0.000000000000e+00 0.000000000000e+00 0.000000000000e+00
0.000000000000e+00 0.000000000000e+00 0.000000000000e+00
0.000000000000e+00 0.000000000000e+00 0.000000000000e+00
0.000000000000e+00 0.000000000000e+00 0.000000000000e+00
0.000000000000e+00 0.000000000000e+00 0.000000000000e+00
0.000000000000e+00 0.000000000000e+00 0.000000000000e+00
0.000000000000e+00 0.000000000000e+00 0.000000000000e+00
0.000000000000e+00 0.000000000000e+00 0.000000000000e+00
0.000000000000e+00 0.000000000000e+00 0.000000000000e+00
0.000000000000e+00 0.000000000000e+00 0.000000000000e+00
0.000000000000e+00 0.000000000000e+00 0.000000000000e+00
0.000000000000e+00 0.000000000000e+00 0.000000000000e+00
0.000000000000e+00 0.000000000000e+00 0.000000000000e+00
0.000000000000e+00 0.000000000000e+00 0.000000000000e+00
0.000000000000e+00 0.000000000000e+00 0.000000000000e+00
0.000000000000e+00 0.000000000000e+00 0.000000000000e+00
0.000000000000e+00 0.000000000000e+00 0.000000000000e+00
0.000000000000e+00 0.000000000000e+00 0.000000000000e+00
0.000000000000e+00 0.000000000000e+00 0.000000000000e+00
0.000000000000e+00 0.000000000000e+00 0.000000000000e+00
0.000000000000e+00 0.000000000000e+00 0.000000000000e+00
0.000000000000e+00 0.000000000000e+00 0.000000000000e+00
0.000000000000e+00 0.000000000000e+00 0.000000000000e+00
0.000000000000e+00 0.000000000000e+00 0.000000000000e+00
0.000000000000e+00 0.000000000000e+00 0.000000000000e+00
0.000000000000e+00 0.000000000000e+00 0.000000000000e+00
0.000000000000e+00 0.000000000000e+00 0.000000000000e+00
0.000000000000e+00 0.000000000000e+00 0.000000000000e+00
0.000000000000e+00 0.000000000000e+00 0.000000000000e+00
0.000000000000e+00 0.000000000000e+00 0.000000000000e+00
0.000000000000e+00 0.000000000000e+00 0.000000000000e+00
0.000000000000e+00 0.000000000000e+00 0.000000000000e+00
0.000000000000e+00 0.000000000000e+00 0.000000000000e+00
0.000000000000e+00 0.000000000000e+00 0.000000000000e+00
0.000000000000e+00 0.000000000000e+00 0.000000000000e+00
0.000000000000e+00 0.000000000000e+00 0.000000000000e+00
0.000000000000e+00 0.000000000000e+00 0.000000000000e+00
0.000000000000e+00 0.000000000000e+00 0.000000000000e+00
0.000000000000e+00 0.000000000000e+00 0.000000000000e+00
0.000000000000e+00 0.000000000000e+00 0.000000000000e+00
0.000000000000e+00 0.000000000000e+00 0.000000000000e+00
0.000000000000e+00 0.000000000000e+00 0.000000000000e+00
0.000000000000e+00 0.000000000000e+00 0.000000000000e+00
0.000000000000e+00 0.000000000000e+00 0.000000000000e+00
0.000000000000e+00 0.000000000000e+00 0.000000000000e+00
0.000000000000e+00 0.000000000000e+00 0.000000000000e+00
0.000000000000e+00 0.000000000000e+00 0.000000000000e+00
0.000000000000e+00 0.000000000000e+00 0.000000000000e+00
0.000000000000e+00 0.000000000000e+00 0.000000000000e+00
0.000000000000e+00 0.000000000000e+00 0.000000000000e+00
0.000000000000e+00 0.000000000000e+00 0.000000000000e+00
0.000000000000e+00 0.000000000000e+00 0.000000000000e+00
0.000000000000e+00 0.000000000000e+00 0.000000000000e+00
0.000000000000e+00 0.000000000000e+00 0.000000000000e+00
0.000000000000e+00 0.000000000000e+00 0.000000000000e+00
0.000000000000e+00 0.000000000000e+00 0.000000000000e+00
0.000000000000e+00 0.000000000000e+00 0.000000000000e+00
0.000000000000e+00 0.000000000000e+00 0.000000000000e+00
0.000000000000e+00 0.000000000000e+00 0.000000000000e+00
0.000000000000e+00 0.000000000000e+00 0.000000000000e+00
0.000000000000e+00 0.000000000000e+00 0.000000000000e+00
0.000000000000e+00 0.000000000000e+00 0.000000000000e+00
0.000000000000e+00 0.000000000000e+00 0.000000000000e+00
0.000000000000e+00 0.000000000000e+00 0.000000000000e+00
0.000000000000e+00 0.000000000000e+00 0.000000000000e+00
0.000000000000e+00 0.000000000000e+00 0.000000000000e+00
0.000000000000e+00 0.000000000000e+00 0.000000000000e+00
0.000000000000e+00 0.000000000000e+00 0.000000000000e+00
0.000000000000e+00 0.000000000000e+00 0.000000000000e+00
0.000000000000e+00 0.000000000000e+00 0.000000000000e+00
0.000000000000e+00 0.000000000000e+00 0.000000000000e+00
0.000000000000e+00 0.000000000000e+00 0.000000000000e+00
0.000000000000e+00 0.000000000000e+00 0.000000000000e+00
0.000000000000e+00 0.000000000000e+00 0.000000000000e+00
0.000000000000e+00 0.000000000000e+00 0.000000000000e+00
0.000000000000e+00 0.000000000000e+00 0.000000000000e+00
0.000000000000e+00 0.000000000000e+00 0.000000000000e+00
0.000000000000e+00 0.000000000000e+00 0.000000000000e+00
0.000000000000e+00 0.000000000000e+00 0.000000000000e+00
0.000000000000e+00 0.000000000000e+00 0.000000000000e+00
0.000000000000e+00 0.000000000000e+00 0.000000000000e+00
0.000000000000e+00 0.000000000000e+00 0.000000000000e+00
0.000000000000e+00 0.000000000000e+00 0.000000000000e+00
0.000000000000e+00 0.000000000000e+00 0.000000000000e+00
0.000000000000e+00 0.000000000000e+00 0.000000000000e+00
0.000000000000e+00 0.000000000000e+00 0.000000000000e+00
0.000000000000e+00 0.000000000000e+00 0.000000000000e+00
0.000000000000e+00 0.000000000000e+00 0.000000000000e+00
0.000000000000e+00 0.000000000000e+00 0.000000000000e+00
0.000000000000e+00 0.000000000000e+00 0.000000000000e+00
0.000000000000e+00 0.000000000000e+00 0.000000000000e+00
0.000000000000e+00 0.000000000000e+00 0.000000000000e+00
0.000000000000e+00 0.000000000000e+00 0.000000000000e+00
0.000000000000e+00 0.000000000000e+00 0.000000000000e+00
0.000000000000e+00 0.000000000000e+00 0.000000000000e+00
0.000000000000e+00 0.000000000000e+00 0.000000000000e+00
0.000000000000e+00 0.000000000000e+00 0.000000000000e+00
0.000000000000e+00 0.000000000000e+00 0.000000000000e+00
0.000000000000e+00 0.000000000000e+00 0.000000000000e+00
0.000000000000e+00 0.000000000000e+00 0.000000000000e+00
0.000000000000e+00 0.000000000000e+00 0.000000000000e+00
0.000000000000e+00 0.000000000000e+00 0.000000000000e+00
0.000000000000e+00 0.000000000000e+00 0.000000000000e+00
0.000000000000e+00 0.000000000000e+00 0.000000000000e+00
0.000000000000e+00 0.000000000000e+00 0.000000000000e+00
0.000000000000e+00 0.000000000000e+00 0.000000000000e+00
0.000000000000e+00 0.000000000000e+00 0.000000000000e+00
0.000000000000e+00 0.000000000000e+00 0.000000000000e+00
0.000000000000e+00 0.000000000000e+00 0.000000000000e+00
0.000000000000e+00 0.000000000000e+00 0.000000000000e+00
0.000000000000e+00 0.000000000000e+00 0.000000000000e+00
0.000000000000e+00 0.000000000000e+00 0.000000000000e+00
0.000000000000e+00 0.000000000000e+00 0.000000000000e+00
0.000000000000e+00 0.000000000000e+00 0.000000000000e+00
0.000000000000e+00 0.000000000000e+00 0.000000000000e+00
0.000000000000e+00 0.000000000000e+00 0.000000000000e+00
0.000000000000e+00 0.000000000000e+00 0.000000000000e+00
0.000000000000e+00 0.000000000000e+00 0.000000000000e+00
0.000000000000e+00 0.000000000000e+00 0.000000000000e+00
0.000000000000e+00 0.000000000000e+00 0.000000000000e+00
2.752291424542e-08 2.744844734113e-08 -6.693845477937e-03
1.789077742855e-08 2.661268773881e-08 -6.693837500454e-03
1.158907685587e-10 2.540384506786e-08 -6.693834451666e-03
-1.765899593384e-08 2.661261631993e-08 -6.693837278128e-03
-2.729113293670e-08 2.744830426793e-08 -6.693845033283e-03
2.668722678918e-08 1.781631077352e-08 -6.693837571246e-03
1.793742260340e-08 1.786288367389e-08 -6.693829931686e-03
1.159267232080e-10 1.757923799182e-08 -6.693827067130e-03
-1.770556919166e-08 1.786281174217e-08 -6.693829709359e-03
-2.645537351630e-08 1.781616674472e-08 -6.693837126592e-03
2.547845637521e-08 4.142457689010e-11 -6.693834593249e-03
1.765384932121e-08 4.138805557023e-11 -6.693827137921e-03
1.159629742508e-10 4.135163621040e-11 -6.693824337004e-03
-1.742192341962e-08 4.131530086624e-11 -6.693826915595e-03
-2.524653056869e-08 4.127907953868e-11 -6.693834148595e-03
2.668729998398e-08 -1.773346163999e-08 -6.693837490502e-03
1.793749561189e-08 -1.778010757777e-08 -6.693829850942e-03
1.159994398229e-10 -1.749653473344e-08 -6.693826986386e-03
-1.770549676834e-08 -1.778018115531e-08 -6.693829628615e-03
-2.645530127317e-08 -1.773360860490e-08 -6.693837045848e-03
2.752306056867e-08 -2.736559828125e-08 -6.693845316448e-03
1.789092340459e-08 -2.652991169567e-08 -6.693837338965e-03
1.160362147617e-10 -2.532114184481e-08 -6.693834290178e-03
-1.765885101590e-08 -2.652998578309e-08 -6.693837116639e-03
-2.729098836889e-08 -2.736574620340e-08 -6.693844871795e-03
2.366552919808e-08 2.362787406427e-08 -6.693838786097e-03
1.475064187316e-08 2.307161867947e-08 -6.693829763692e-03
5.808573016187e-11 2.208557498657e-08 -6.693825948179e-03
-1.463447063934e-08 2.307154705437e-08 -6.693829541365e-03
-2.354935842540e-08 2.362773072640e-08 -6.693838341443e-03
2.310934598029e-08 1.471298688150e-08 -6.693829834484e-03
1.481296197588e-08 1.477523469167e-08 -6.693820916496e-03
5.812166953487e-11 1.453635669758e-08 -6.693817105231e-03
-1.469671883278e-08 1.477516262242e-08 -6.693820694169e-03
-2.299310323879e-08 1.471284264933e-08 -6.693829389829e-03
2.212337459966e-08 2.043106601917e-11 -6.693826089762e-03
1.457415642033e-08 2.039454373525e-11 -6.693817176022e-03
5.815790371662e-11 2.035812436651e-11 -6.693813275415e-03
-1.445784080563e-08 2.032179863080e-11 -6.693816953695e-03
-2.200705933887e-08 2.028558550473e-11 -6.693825645107e-03
2.310941910914e-08 -1.467212483001e-08 -6.693829753740e-03
1.481303494672e-08 -1.473444567649e-08 -6.693820835752e-03
5.819439640345e-11 -1.449564052058e-08 -6.693817024486e-03
-1.469664635059e-08 -1.473451909695e-08 -6.693820613425e-03
-2.299303091529e-08 -1.467227156097e-08 -6.693829309085e-03
2.366567543882e-08 -2.358701217948e-08 -6.693838624608e-03
1.475078778716e-08 -2.303082981308e-08 -6.693829602203e-03
5.823119107558e-11 -2.204485893803e-08 -6.693825786690e-03
-1.463432563135e-08 -2.303090367545e-08 -6.693829379877e-03
-2.354921374005e-08 -2.358715980695e-08 -6.693838179954e-03
1.909332248003e-08 1.909247932391e-08 -6.693829481884e-03
1.132106941300e-08 1.874869409484e-08 -6.693819501703e-03
2.802026598330e-13 1.798840315101e-08 -6.693815453563e-03
-1.132050922371e-08 1.874862224111e-08 -6.693819279376e-03
-1.909276277751e-08 1.909233560703e-08 -6.693829037229e-03
1.874960949284e-08 1.132022634849e-08 -6.693819572495e-03
1.134642753698e-08 1.134551211393e-08 -6.693809544068e-03
3.162106725854e-13 1.113544450768e-08 -6.693805423188e-03
-1.134579531787e-08 1.134543988421e-08 -6.693809321741e-03
-1.874897773629e-08 1.132008185925e-08 -6.693819127839e-03
1.798939093784e-08 -5.626176142507e-13 -6.693815595146e-03
1.113643242688e-08 -5.991150755055e-13 -6.693805493980e-03
3.524501246318e-13 -6.355288747583e-13 -6.693801218530e-03
-1.113572772069e-08 -6.718508111308e-13 -6.693805271652e-03
-1.798868665039e-08 -7.080881944178e-13 -6.693815150490e-03
1.874968255041e-08 -1.132135166110e-08 -6.693819491751e-03
1.134650045815e-08 -1.134671041799e-08 -6.693809463324e-03
3.889455983280e-13 -1.113671563764e-08 -6.693805342444e-03
-1.134572276722e-08 -1.134678365978e-08 -6.693809240996e-03
-1.874890531886e-08 -1.132149811321e-08 -6.693819047095e-03
1.909346859099e-08 -1.909360481281e-08 -6.693829320395e-03
1.132121524122e-08 -1.874989256913e-08 -6.693819340214e-03
4.256717356402e-13 -1.798967443713e-08 -6.693815292074e-03
-1.132036410973e-08 -1.874996618413e-08 -6.693819117887e-03
-1.909261794310e-08 -1.909375203470e-08 -6.693828875740e-03
1.262251313788e-08 1.265848210696e-08 -6.693821862496e-03
7.592856075640e-09 1.233876169123e-08 -6.693811204396e-03
-5.752555777975e-11 1.173787945820e-08 -6.693807054074e-03
-7.707907379231e-09 1.233868951213e-08 -6.693810982068e-03
-1.273756478041e-08 1.265833782642e-08 -6.693821417840e-03
1.230286507659e-08 7.628825088611e-09 -6.693811275188e-03
7.600264433624e-09 7.636161011961e-09 -6.693800455753e-03
-5.748947672143e-11 7.436321925786e-09 -6.693796179631e-03
-7.715243577489e-09 7.636088615361e-09 -6.693800233425e-03
-1.241784454457e-08 7.628680330474e-09 -6.693810830531e-03
1.170205534201e-08 -2.155638442989e-11 -6.693807195658e-03
7.400497900447e-09 -2.159285810604e-11 -6.693796250423e-03
-5.745323504213e-11 -2.162926844352e-11 -6.693791791552e-03
-7.515404546704e-09 -2.166558283695e-11 -6.693796028095e-03
-1.181696227122e-08 -2.170184640302e-11 -6.693806751001e-03
1.230293802533e-08 -7.671937927950e-09 -6.693811194444e-03
7.600337300984e-09 -7.679346796537e-09 -6.693800375008e-03
-5.741673059971e-11 -7.479580526513e-09 -6.693796098887e-03
-7.715170954407e-09 -7.679419851054e-09 -6.693800152680e-03
-1.241777200224e-08 -7.672084087692e-09 -6.693810749787e-03
1.262265905367e-08 -1.270159507198e-08 -6.693821701007e-03
7.593001816443e-09 -1.238194759219e-08 -6.693811042907e-03
-5.738007870526e-11 -1.178113816313e-08 -6.693806892585e-03
-7.707762156589e-09 -1.238202086538e-08 -6.693810820579e-03
-1.273741972921e-08 -1.270174170191e-08 -6.693821256351e-03
6.074322583163e-09 6.147103616788e-09 -6.693818384031e-03
3.576434869645e-09 5.818430304772e-09 -6.693807440337e-03
-1.153310547145e-10 5.309424753438e-09 -6.693803127394e-03
-3.807097306005e-09 5.818357801654e-09 -6.693807218010e-03
-6.304985427532e-09 6.146958832270e-09 -6.693817939375e-03
5.745721683762e-09 3.649215836024e-09 -6.693807511129e-03
3.512983439418e-09 3.585691950525e-09 -6.693796325834e-03
-1.152949936625e-10 3.330579306411e-09 -6.693791839104e-03
-3.743573732710e-09 3.585619393691e-09 -6.693796103505e-03
-5.976312348036e-09 3.649070833811e-09 -6.693807066472e-03
5.236788736779e-09 -4.255006139447e-11 -6.693803268977e-03
3.257943389921e-09 -4.258654027429e-11 -6.693791909896e-03
-1.152587780471e-10 -4.262295441648e-11 -6.693787226968e-03
-3.488461216568e-09 -4.265925301671e-11 -6.693791687568e-03
-5.467306869577e-09 -4.269550479249e-11 -6.693802824320e-03
5.745794527846e-09 -3.734316075852e-09 -6.693807430385e-03
3.513056257998e-09 -3.670865139652e-09 -6.693796245089e-03
-1.152222365635e-10 -3.415825314324e-09 -6.693791758360e-03
-3.743501038627e-09 -3.670938007947e-09 -6.693796022761e-03
-5.976239674947e-09 -3.734461960337e-09 -6.693806985728e-03
6.074468326815e-09 -6.232204001884e-09 -6.693818222542e-03
3.576580533783e-09 -5.903603624298e-09 -6.693807278848e-03
-1.151855553959e-10 -5.394670870579e-09 -6.693802965904e-03
-3.806951976225e-09 -5.903676545292e-09 -6.693807056520e-03
-6.304840185116e-09 -6.232350103682e-09 -6.693817777886e-03
SCALARS displacement_magnitude float 1
LOOKUP_TABLE default
0.000000000000e+00
0.000000000000e+00
0.000000000000e+00
0.000000000000e+00
0.000000000000e+00
0.000000000000e+00
0.000000000000e+00
0.000000000000e+00
0.000000000000e+00
0.000000000000e+00
0.000000000000e+00
0.000000000000e+00
0.000000000000e+00
0.000000000000e+00
0.000000000000e+00
0.000000000000e+00
0.000000000000e+00
0.000000000000e+00
0.000000000000e+00
0.000000000000e+00
0.000000000000e+00
0.000000000000e+00
0.000000000000e+00
0.000000000000e+00
0.000000000000e+00
0.000000000000e+00
0.000000000000e+00
0.000000000000e+00
0.000000000000e+00
0.000000000000e+00
0.000000000000e+00
0.000000000000e+00
0.000000000000e+00
0.000000000000e+00
0.000000000000e+00
0.000000000000e+00
0.000000000000e+00
0.000000000000e+00
0.000000000000e+00
0.000000000000e+00
0.000000000000e+00
0.000000000000e+00
0.000000000000e+00
0.000000000000e+00
0.000000000000e+00
0.000000000000e+00
0.000000000000e+00
0.000000000000e+00
0.000000000000e+00
0.000000000000e+00
0.000000000000e+00
0.000000000000e+00
0.000000000000e+00
0.000000000000e+00
0.000000000000e+00
0.000000000000e+00
0.000000000000e+00
0.000000000000e+00
0.000000000000e+00
0.000000000000e+00
0.000000000000e+00
0.000000000000e+00
0.000000000000e+00
0.000000000000e+00
0.000000000000e+00
0.000000000000e+00
0.000000000000e+00
0.000000000000e+00
0.000000000000e+00
0.000000000000e+00
0.000000000000e+00
0.000000000000e+00
0.000000000000e+00
0.000000000000e+00
0.000000000000e+00
0.000000000000e+00
0.000000000000e+00
0.000000000000e+00
0.000000000000e+00
0.000000000000e+00
0.000000000000e+00
0.000000000000e+00
0.000000000000e+00
0.000000000000e+00
0.000000000000e+00
0.000000000000e+00
0.000000000000e+00
0.000000000000e+00
0.000000000000e+00
0.000000000000e+00
0.000000000000e+00
0.000000000000e+00
0.000000000000e+00
0.000000000000e+00
0.000000000000e+00
0.000000000000e+00
0.000000000000e+00
0.000000000000e+00
0.000000000000e+00
0.000000000000e+00
0.000000000000e+00
0.000000000000e+00
0.000000000000e+00
0.000000000000e+00
0.000000000000e+00
0.000000000000e+00
0.000000000000e+00
0.000000000000e+00
0.000000000000e+00
0.000000000000e+00
0.000000000000e+00
0.000000000000e+00
0.000000000000e+00
0.000000000000e+00
0.000000000000e+00
0.000000000000e+00
0.000000000000e+00
0.000000000000e+00
0.000000000000e+00
0.000000000000e+00
0.000000000000e+00
0.000000000000e+00
0.000000000000e+00
0.000000000000e+00
0.000000000000e+00
6.693845478050e-03
6.693837500531e-03
6.693834451714e-03
6.693837278204e-03
6.693845033395e-03
6.693837571323e-03
6.693829931734e-03
6.693827067153e-03
6.693829709407e-03
6.693837126668e-03
6.693834593297e-03
6.693827137945e-03
6.693824337004e-03
6.693826915617e-03
6.693834148642e-03
6.693837490578e-03
6.693829850989e-03
6.693826986409e-03
6.693829628662e-03
6.693837045923e-03
6.693845316561e-03
6.693837339042e-03
6.693834290225e-03
6.693837116715e-03
6.693844871906e-03
6.693838786181e-03
6.693829763748e-03
6.693825948216e-03
6.693829541421e-03
6.693838341526e-03
6.693829834540e-03
6.693820916529e-03
6.693817105246e-03
6.693820694201e-03
6.693829389885e-03
6.693826089799e-03
6.693817176038e-03
6.693813275415e-03
6.693816953711e-03
6.693825645144e-03
6.693829753796e-03
6.693820835784e-03
6.693817024502e-03
6.693820613457e-03
6.693829309140e-03
6.693838624692e-03
6.693829602259e-03
6.693825786727e-03
6.693829379932e-03
6.693838180037e-03
6.693829481938e-03
6.693819501739e-03
6.693815453587e-03
6.693819279412e-03
6.693829037283e-03
6.693819572531e-03
6.693809544087e-03
6.693805423198e-03
6.693809321760e-03
6.693819127875e-03
6.693815595171e-03
6.693805493989e-03
6.693801218530e-03
6.693805271662e-03
6.693815150514e-03
6.693819491787e-03
6.693809463343e-03
6.693805342453e-03
6.693809241016e-03
6.693819047131e-03
6.693829320449e-03
6.693819340250e-03
6.693815292098e-03
6.693819117923e-03
6.693828875794e-03
6.693821862520e-03
6.693811204412e-03
6.693807054084e-03
6.693810982084e-03
6.693821417864e-03
6.693811275204e-03
6.693800455762e-03
6.693796179636e-03
6.693800233434e-03
6.693810830547e-03
6.693807195668e-03
6.693796250427e-03
6.693791791552e-03
6.693796028099e-03
6.693806751011e-03
6.693811194459e-03
6.693800375017e-03
6.693796098891e-03
6.693800152689e-03
6.693810749803e-03
6.693821701031e-03
6.693811042922e-03
6.693806892595e-03
6.693810820595e-03
6.693821256375e-03
6.693818384037e-03
6.693807440341e-03
6.693803127396e-03
6.693807218013e-03
6.693817939381e-03
6.693807511133e-03
6.693796325836e-03
6.693791839105e-03
6.693796103507e-03
6.693807066476e-03
6.693803268979e-03
6.693791909897e-03
6.693787226968e-03
6.693791687569e-03
6.693802824322e-03
6.693807430388e-03
6.693796245091e-03
6.693791758360e-03
6.693796022763e-03
6.693806985732e-03
6.693818222547e-03
6.693807278851e-03
6.693802965906e-03
6.693807056524e-03
6.693817777891e-03
CELL_DATA 128
SCALARS displacement_magnitude float 1
LOOKUP_TABLE default
0.000000000000e+00
0.000000000000e+00
0.000000000000e+00
0.000000000000e+00
0.000000000000e+00
0.000000000000e+00
0.000000000000e+00
0.000000000000e+00
0.000000000000e+00
0.000000000000e+00
0.000000000000e+00
0.000000000000e+00
0.000000000000e+00
0.000000000000e+00
0.000000000000e+00
0.000000000000e+00
0.000000000000e+00
0.000000000000e+00
0.000000000000e+00
0.000000000000e+00
0.000000000000e+00
0.000000000000e+00
0.000000000000e+00
0.000000000000e+00
0.000000000000e+00
0.000000000000e+00
0.000000000000e+00
0.000000000000e+00
0.000000000000e+00
0.000000000000e+00
0.000000000000e+00
0.000000000000e+00
0.000000000000e+00
0.000000000000e+00
0.000000000000e+00
0.000000000000e+00
0.000000000000e+00
0.000000000000e+00
0.000000000000e+00
0.000000000000e+00
0.000000000000e+00
0.000000000000e+00
0.000000000000e+00
0.000000000000e+00
0.000000000000e+00
0.000000000000e+00
0.000000000000e+00
0.000000000000e+00
0.000000000000e+00
0.000000000000e+00
0.000000000000e+00
0.000000000000e+00
0.000000000000e+00
0.000000000000e+00
0.000000000000e+00
0.000000000000e+00
0.000000000000e+00
0.000000000000e+00
0.000000000000e+00
0.000000000000e+00
0.000000000000e+00
0.000000000000e+00
0.000000000000e+00
0.000000000000e+00
6.693833722829e-03
6.693827835609e-03
6.693827724445e-03
6.693833389338e-03
6.693827906400e-03
6.693822118383e-03
6.693822007219e-03
6.693827572909e-03
6.693827866028e-03
6.693822078011e-03
6.693821966847e-03
6.693827532537e-03
6.693833601713e-03
6.693827714492e-03
6.693827603329e-03
6.693833268222e-03
6.693824675162e-03
6.693817957044e-03
6.693817845880e-03
6.693824341670e-03
6.693818027835e-03
6.693811269129e-03
6.693811157965e-03
6.693817694344e-03
6.693817987463e-03
6.693811228757e-03
6.693811117593e-03
6.693817653972e-03
6.693824554045e-03
6.693817835927e-03
6.693817724763e-03
6.693824220554e-03
6.693815362274e-03
6.693808102063e-03
6.693807990899e-03
6.693815028782e-03
6.693808172855e-03
6.693800794648e-03
6.693800683484e-03
6.693807839363e-03
6.693808132483e-03
6.693800754275e-03
6.693800643112e-03
6.693807798991e-03
6.693815241157e-03
6.693807980946e-03
6.693807869782e-03
6.693814907666e-03
6.693809307405e-03
6.693801703321e-03
6.693801592157e-03
6.693808973913e-03
6.693801774113e-03
6.693793997398e-03
6.693793886234e-03
6.693801440621e-03
6.693801733741e-03
6.693793957026e-03
6.693793845862e-03
6.693801400249e-03
6.693809186288e-03
6.693801582204e-03
6.693801471040e-03
6.693808852796e-03
SCALARS engineering_strain_norm float 1
LOOKUP_TABLE default
0.000000000000e+00
0.000000000000e+00
0.000000000000e+00
0.000000000000e+00
0.000000000000e+00
0.000000000000e+00
0.000000000000e+00
0.000000000000e+00
0.000000000000e+00
0.000000000000e+00
0.000000000000e+00
0.000000000000e+00
0.000000000000e+00
0.000000000000e+00
0.000000000000e+00
0.000000000000e+00
0.000000000000e+00
0.000000000000e+00
0.000000000000e+00
0.000000000000e+00
0.000000000000e+00
0.000000000000e+00
0.000000000000e+00
0.000000000000e+00
0.000000000000e+00
0.000000000000e+00
0.000000000000e+00
0.000000000000e+00
0.000000000000e+00
0.000000000000e+00
0.000000000000e+00
0.000000000000e+00
0.000000000000e+00
0.000000000000e+00
0.000000000000e+00
0.000000000000e+00
0.000000000000e+00
0.000000000000e+00
0.000000000000e+00
0.000000000000e+00
0.000000000000e+00
0.000000000000e+00
0.000000000000e+00
0.000000000000e+00
0.000000000000e+00
0.000000000000e+00
0.000000000000e+00
0.000000000000e+00
0.000000000000e+00
0.000000000000e+00
0.000000000000e+00
0.000000000000e+00
0.000000000000e+00
0.000000000000e+00
0.000000000000e+00
0.000000000000e+00
0.000000000000e+00
0.000000000000e+00
0.000000000000e+00
0.000000000000e+00
0.000000000000e+00
0.000000000000e+00
0.000000000000e+00
0.000000000000e+00
1.579856317968e-07
1.993554864553e-07
1.993554896874e-07
1.579856416682e-07
1.993554836137e-07
2.389606619628e-07
2.389606660449e-07
1.993554957147e-07
1.993554847747e-07
2.389606634140e-07
2.389606675426e-07
1.993554968770e-07
1.579856353953e-07
1.993554908422e-07
1.993554940828e-07
1.579856452473e-07
1.842927439687e-07
2.078454332475e-07
2.078454382074e-07
1.842927580207e-07
2.078454300858e-07
2.321110129724e-07
2.321110182585e-07
2.078454449824e-07
2.078454318718e-07
2.321110149267e-07
2.321110201955e-07
2.078454467948e-07
1.842927490895e-07
2.078454387271e-07
2.078454436514e-07
1.842927631203e-07
1.463446201893e-07
1.617036300267e-07
1.617036343404e-07
1.463446311957e-07
1.617036276709e-07
1.778101043398e-07
1.778101088068e-07
1.617036393566e-07
1.617036292495e-07
1.778101059841e-07
1.778101104637e-07
1.617036409097e-07
1.463446242164e-07
1.617036342960e-07
1.617036385774e-07
1.463446351313e-07
7.165340693609e-08
8.170872731047e-08
8.170873014051e-08
7.165341272950e-08
8.170872619335e-08
9.170792611194e-08
9.170792906490e-08
8.170873262854e-08
8.170872724768e-08
9.170792718523e-08
9.170793014725e-08
8.170873364579e-08
7.165340905308e-08
8.170872967135e-08
8.170873250566e-08
7.165341481430e-08
SCALARS von_mises float 1
LOOKUP_TABLE default
0.000000000000e+00
0.000000000000e+00
0.000000000000e+00
0.000000000000e+00
0.000000000000e+00
0.000000000000e+00
0.000000000000e+00
0.000000000000e+00
0.000000000000e+00
0.000000000000e+00
0.000000000000e+00
0.000000000000e+00
0.000000000000e+00
0.000000000000e+00
0.000000000000e+00
0.000000000000e+00
0.000000000000e+00
0.000000000000e+00
0.000000000000e+00
0.000000000000e+00
0.000000000000e+00
0.000000000000e+00
0.000000000000e+00
0.000000000000e+00
0.000000000000e+00
0.000000000000e+00
0.000000000000e+00
0.000000000000e+00
0.000000000000e+00
0.000000000000e+00
0.000000000000e+00
0.000000000000e+00
0.000000000000e+00
0.000000000000e+00
0.000000000000e+00
0.000000000000e+00
0.000000000000e+00
0.000000000000e+00
0.000000000000e+00
0.000000000000e+00
0.000000000000e+00
0.000000000000e+00
0.000000000000e+00
0.000000000000e+00
0.000000000000e+00
0.000000000000e+00
0.000000000000e+00
0.000000000000e+00
0.000000000000e+00
0.000000000000e+00
0.000000000000e+00
0.000000000000e+00
0.000000000000e+00
0.000000000000e+00
0.000000000000e+00
0.000000000000e+00
0.000000000000e+00
0.000000000000e+00
0.000000000000e+00
0.000000000000e+00
0.000000000000e+00
0.000000000000e+00
0.000000000000e+00
0.000000000000e+00
1.476751761098e-02
1.846855412067e-02
1.846855442281e-02
1.476751854344e-02
1.846855385169e-02
2.177926733815e-02
2.177926771966e-02
1.846855499416e-02
1.846855396023e-02
2.177926747342e-02
2.177926786008e-02
1.846855510242e-02
1.476751795071e-02
1.846855453527e-02
1.846855483805e-02
1.476751888086e-02
1.723167312479e-02
1.954403000172e-02
1.954403045367e-02
1.723167441549e-02
1.954402970433e-02
2.181207089095e-02
2.181207137980e-02
1.954403109069e-02
1.954402986731e-02
2.181207107189e-02
2.181207155888e-02
1.954403125586e-02
1.723167359531e-02
1.954403051203e-02
1.954403096019e-02
1.723167488324e-02
1.369242884037e-02
1.521028934008e-02
1.521028972630e-02
1.369242985700e-02
1.521028911598e-02
1.673884359848e-02
1.673884400173e-02
1.521029020346e-02
1.521028925752e-02
1.673884374700e-02
1.673884415144e-02
1.521029034244e-02
1.369242921241e-02
1.521028973763e-02
1.521029012053e-02
1.369243022040e-02
6.726958404753e-03
7.661342952091e-03
7.661343205807e-03
6.726958942484e-03
7.661342845853e-03
8.551352978055e-03
8.551353238389e-03
7.661343441943e-03
7.661342940552e-03
8.551353072370e-03
8.551353334157e-03
7.661343533448e-03
6.726958601158e-03
7.661343170840e-03
7.661343425162e-03
6.726959135846e-03
SCALARS sdf_gap float 1
LOOKUP_TABLE default
0.000000000000e+00
0.000000000000e+00
0.000000000000e+00
0.000000000000e+00
0.000000000000e+00
0.000000000000e+00
0.000000000000e+00
0.000000000000e+00
0.000000000000e+00
0.000000000000e+00
0.000000000000e+00
0.000000000000e+00
0.000000000000e+00
0.000000000000e+00
0.000000000000e+00
0.000000000000e+00
0.000000000000e+00
0.000000000000e+00
0.000000000000e+00
0.000000000000e+00
0.000000000000e+00
0.000000000000e+00
0.000000000000e+00
0.000000000000e+00
0.000000000000e+00
0.000000000000e+00
0.000000000000e+00
0.000000000000e+00
0.000000000000e+00
0.000000000000e+00
0.000000000000e+00
0.000000000000e+00
0.000000000000e+00
0.000000000000e+00
0.000000000000e+00
0.000000000000e+00
0.000000000000e+00
0.000000000000e+00
0.000000000000e+00
0.000000000000e+00
0.000000000000e+00
0.000000000000e+00
0.000000000000e+00
0.000000000000e+00
0.000000000000e+00
0.000000000000e+00
0.000000000000e+00
0.000000000000e+00
0.000000000000e+00
0.000000000000e+00
0.000000000000e+00
0.000000000000e+00
0.000000000000e+00
0.000000000000e+00
0.000000000000e+00
0.000000000000e+00
0.000000000000e+00
0.000000000000e+00
0.000000000000e+00
0.000000000000e+00
0.000000000000e+00
0.000000000000e+00
0.000000000000e+00
0.000000000000e+00
8.306162379669e-03
8.306167762266e-03
8.306167873429e-03
8.306162713160e-03
8.306167691475e-03
8.306172881565e-03
8.306172992728e-03
8.306168024965e-03
8.306167731847e-03
8.306172921937e-03
8.306173033100e-03
8.306168065337e-03
8.306162500786e-03
8.306167883382e-03
8.306167994545e-03
8.306162834276e-03
0.000000000000e+00
0.000000000000e+00
0.000000000000e+00
0.000000000000e+00
0.000000000000e+00
0.000000000000e+00
0.000000000000e+00
0.000000000000e+00
0.000000000000e+00
0.000000000000e+00
0.000000000000e+00
0.000000000000e+00
0.000000000000e+00
0.000000000000e+00
0.000000000000e+00
0.000000000000e+00
0.000000000000e+00
0.000000000000e+00
0.000000000000e+00
0.000000000000e+00
0.000000000000e+00
0.000000000000e+00
0.000000000000e+00
0.000000000000e+00
0.000000000000e+00
0.000000000000e+00
0.000000000000e+00
0.000000000000e+00
0.000000000000e+00
0.000000000000e+00
0.000000000000e+00
0.000000000000e+00
0.000000000000e+00
0.000000000000e+00
0.000000000000e+00
0.000000000000e+00
0.000000000000e+00
0.000000000000e+00
0.000000000000e+00
0.000000000000e+00
0.000000000000e+00
0.000000000000e+00
0.000000000000e+00
0.000000000000e+00
0.000000000000e+00
0.000000000000e+00
0.000000000000e+00
0.000000000000e+00
SCALARS contact_pressure float 1
LOOKUP_TABLE default
0.000000000000e+00
0.000000000000e+00
0.000000000000e+00
0.000000000000e+00
0.000000000000e+00
0.000000000000e+00
0.000000000000e+00
0.000000000000e+00
0.000000000000e+00
0.000000000000e+00
0.000000000000e+00
0.000000000000e+00
0.000000000000e+00
0.000000000000e+00
0.000000000000e+00
0.000000000000e+00
0.000000000000e+00
0.000000000000e+00
0.000000000000e+00
0.000000000000e+00
0.000000000000e+00
0.000000000000e+00
0.000000000000e+00
0.000000000000e+00
0.000000000000e+00
0.000000000000e+00
0.000000000000e+00
0.000000000000e+00
0.000000000000e+00
0.000000000000e+00
0.000000000000e+00
0.000000000000e+00
0.000000000000e+00
0.000000000000e+00
0.000000000000e+00
0.000000000000e+00
0.000000000000e+00
0.000000000000e+00
0.000000000000e+00
0.000000000000e+00
0.000000000000e+00
0.000000000000e+00
0.000000000000e+00
0.000000000000e+00
0.000000000000e+00
0.000000000000e+00
0.000000000000e+00
0.000000000000e+00
0.000000000000e+00
0.000000000000e+00
0.000000000000e+00
0.000000000000e+00
0.000000000000e+00
0.000000000000e+00
0.000000000000e+00
0.000000000000e+00
0.000000000000e+00
0.000000000000e+00
0.000000000000e+00
0.000000000000e+00
0.000000000000e+00
0.000000000000e+00
0.000000000000e+00
0.000000000000e+00
0.000000000000e+00
0.000000000000e+00
0.000000000000e+00
0.000000000000e+00
0.000000000000e+00
0.000000000000e+00
0.000000000000e+00
0.000000000000e+00
0.000000000000e+00
0.000000000000e+00
0.000000000000e+00
0.000000000000e+00
0.000000000000e+00
0.000000000000e+00
0.000000000000e+00
0.000000000000e+00
0.000000000000e+00
0.000000000000e+00
0.000000000000e+00
0.000000000000e+00
0.000000000000e+00
0.000000000000e+00
0.000000000000e+00
0.000000000000e+00
0.000000000000e+00
0.000000000000e+00
0.000000000000e+00
0.000000000000e+00
0.000000000000e+00
0.000000000000e+00
0.000000000000e+00
0.000000000000e+00
0.000000000000e+00
0.000000000000e+00
0.000000000000e+00
0.000000000000e+00
0.000000000000e+00
0.000000000000e+00
0.000000000000e+00
0.000000000000e+00
0.000000000000e+00
0.000000000000e+00
0.000000000000e+00
0.000000000000e+00
0.000000000000e+00
0.000000000000e+00
0.000000000000e+00
0.000000000000e+00
0.000000000000e+00
0.000000000000e+00
0.000000000000e+00
0.000000000000e+00
0.000000000000e+00
0.000000000000e+00
0.000000000000e+00
0.000000000000e+00
0.000000000000e+00
0.000000000000e+00
0.000000000000e+00
0.000000000000e+00
0.000000000000e+00
0.000000000000e+00
0.000000000000e+00
0.000000000000e+00
SCALARS active_contact float 1
LOOKUP_TABLE default
0.000000000000e+00
0.000000000000e+00
0.000000000000e+00
0.000000000000e+00
0.000000000000e+00
0.000000000000e+00
0.000000000000e+00
0.000000000000e+00
0.000000000000e+00
0.000000000000e+00
0.000000000000e+00
0.000000000000e+00
0.000000000000e+00
0.000000000000e+00
0.000000000000e+00
0.000000000000e+00
0.000000000000e+00
0.000000000000e+00
0.000000000000e+00
0.000000000000e+00
0.000000000000e+00
0.000000000000e+00
0.000000000000e+00
0.000000000000e+00
0.000000000000e+00
0.000000000000e+00
0.000000000000e+00
0.000000000000e+00
0.000000000000e+00
0.000000000000e+00
0.000000000000e+00
0.000000000000e+00
0.000000000000e+00
0.000000000000e+00
0.000000000000e+00
0.000000000000e+00
0.000000000000e+00
0.000000000000e+00
0.000000000000e+00
0.000000000000e+00
0.000000000000e+00
0.000000000000e+00
0.000000000000e+00
0.000000000000e+00
0.000000000000e+00
0.000000000000e+00
0.000000000000e+00
0.000000000000e+00
0.000000000000e+00
0.000000000000e+00
0.000000000000e+00
0.000000000000e+00
0.000000000000e+00
0.000000000000e+00
0.000000000000e+00
0.000000000000e+00
0.000000000000e+00
0.000000000000e+00
0.000000000000e+00
0.000000000000e+00
0.000000000000e+00
0.000000000000e+00
0.000000000000e+00
0.000000000000e+00
0.000000000000e+00
0.000000000000e+00
0.000000000000e+00
0.000000000000e+00
0.000000000000e+00
0.000000000000e+00
0.000000000000e+00
0.000000000000e+00
0.000000000000e+00
0.000000000000e+00
0.000000000000e+00
0.000000000000e+00
0.000000000000e+00
0.000000000000e+00
0.000000000000e+00
0.000000000000e+00
0.000000000000e+00
0.000000000000e+00
0.000000000000e+00
0.000000000000e+00
0.000000000000e+00
0.000000000000e+00
0.000000000000e+00
0.000000000000e+00
0.000000000000e+00
0.000000000000e+00
0.000000000000e+00
0.000000000000e+00
0.000000000000e+00
0.000000000000e+00
0.000000000000e+00
0.000000000000e+00
0.000000000000e+00
0.000000000000e+00
0.000000000000e+00
0.000000000000e+00
0.000000000000e+00
0.000000000000e+00
0.000000000000e+00
0.000000000000e+00
0.000000000000e+00
0.000000000000e+00
0.000000000000e+00
0.000000000000e+00
0.000000000000e+00
0.000000000000e+00
0.000000000000e+00
0.000000000000e+00
0.000000000000e+00
0.000000000000e+00
0.000000000000e+00
0.000000000000e+00
0.000000000000e+00
0.000000000000e+00
0.000000000000e+00
0.000000000000e+00
0.000000000000e+00
0.000000000000e+00
0.000000000000e+00
0.000000000000e+00
0.000000000000e+00
0.000000000000e+00
0.000000000000e+00
0.000000000000e+00
