# vtk DataFile Version 3.0
SFC long-time C3D8 dynamic frame 107 t=2.140000000000e+00
ASCII
DATASET UNSTRUCTURED_GRID
POINTS 250 float
-2.500000000000e-01 -2.500000000000e-01 0.000000000000e+00
-1.250000000000e-01 -2.500000000000e-01 0.000000000000e+00
0.000000000000e+00 -2.500000000000e-01 0.000000000000e+00
1.250000000000e-01 -2.500000000000e-01 0.000000000000e+00
2.500000000000e-01 -2.500000000000e-01 0.000000000000e+00
-2.500000000000e-01 -1.250000000000e-01 0.000000000000e+00
-1.250000000000e-01 -1.250000000000e-01 0.000000000000e+00
0.000000000000e+00 -1.250000000000e-01 0.000000000000e+00
1.250000000000e-01 -1.250000000000e-01 0.000000000000e+00
2.500000000000e-01 -1.250000000000e-01 0.000000000000e+00
-2.500000000000e-01 0.000000000000e+00 0.000000000000e+00
-1.250000000000e-01 0.000000000000e+00 0.000000000000e+00
0.000000000000e+00 0.000000000000e+00 0.000000000000e+00
1.250000000000e-01 0.000000000000e+00 0.000000000000e+00
2.500000000000e-01 0.000000000000e+00 0.000000000000e+00
-2.500000000000e-01 1.250000000000e-01 0.000000000000e+00
-1.250000000000e-01 1.250000000000e-01 0.000000000000e+00
0.000000000000e+00 1.250000000000e-01 0.000000000000e+00
1.250000000000e-01 1.250000000000e-01 0.000000000000e+00
2.500000000000e-01 1.250000000000e-01 0.000000000000e+00
-2.500000000000e-01 2.500000000000e-01 0.000000000000e+00
-1.250000000000e-01 2.500000000000e-01 0.000000000000e+00
0.000000000000e+00 2.500000000000e-01 0.000000000000e+00
1.250000000000e-01 2.500000000000e-01 0.000000000000e+00
2.500000000000e-01 2.500000000000e-01 0.000000000000e+00
-2.500000000000e-01 -2.500000000000e-01 6.000000000000e-02
-1.250000000000e-01 -2.500000000000e-01 6.000000000000e-02
0.000000000000e+00 -2.500000000000e-01 6.000000000000e-02
1.250000000000e-01 -2.500000000000e-01 6.000000000000e-02
2.500000000000e-01 -2.500000000000e-01 6.000000000000e-02
-2.500000000000e-01 -1.250000000000e-01 6.000000000000e-02
-1.250000000000e-01 -1.250000000000e-01 6.000000000000e-02
0.000000000000e+00 -1.250000000000e-01 6.000000000000e-02
1.250000000000e-01 -1.250000000000e-01 6.000000000000e-02
2.500000000000e-01 -1.250000000000e-01 6.000000000000e-02
-2.500000000000e-01 0.000000000000e+00 6.000000000000e-02
-1.250000000000e-01 0.000000000000e+00 6.000000000000e-02
0.000000000000e+00 0.000000000000e+00 6.000000000000e-02
1.250000000000e-01 0.000000000000e+00 6.000000000000e-02
2.500000000000e-01 0.000000000000e+00 6.000000000000e-02
-2.500000000000e-01 1.250000000000e-01 6.000000000000e-02
-1.250000000000e-01 1.250000000000e-01 6.000000000000e-02
0.000000000000e+00 1.250000000000e-01 6.000000000000e-02
1.250000000000e-01 1.250000000000e-01 6.000000000000e-02
2.500000000000e-01 1.250000000000e-01 6.000000000000e-02
-2.500000000000e-01 2.500000000000e-01 6.000000000000e-02
-1.250000000000e-01 2.500000000000e-01 6.000000000000e-02
0.000000000000e+00 2.500000000000e-01 6.000000000000e-02
1.250000000000e-01 2.500000000000e-01 6.000000000000e-02
2.500000000000e-01 2.500000000000e-01 6.000000000000e-02
-2.500000000000e-01 -2.500000000000e-01 1.200000000000e-01
-1.250000000000e-01 -2.500000000000e-01 1.200000000000e-01
0.000000000000e+00 -2.500000000000e-01 1.200000000000e-01
1.250000000000e-01 -2.500000000000e-01 1.200000000000e-01
2.500000000000e-01 -2.500000000000e-01 1.200000000000e-01
-2.500000000000e-01 -1.250000000000e-01 1.200000000000e-01
-1.250000000000e-01 -1.250000000000e-01 1.200000000000e-01
0.000000000000e+00 -1.250000000000e-01 1.200000000000e-01
1.250000000000e-01 -1.250000000000e-01 1.200000000000e-01
2.500000000000e-01 -1.250000000000e-01 1.200000000000e-01
-2.500000000000e-01 0.000000000000e+00 1.200000000000e-01
-1.250000000000e-01 0.000000000000e+00 1.200000000000e-01
0.000000000000e+00 0.000000000000e+00 1.200000000000e-01
1.250000000000e-01 0.000000000000e+00 1.200000000000e-01
2.500000000000e-01 0.000000000000e+00 1.200000000000e-01
-2.500000000000e-01 1.250000000000e-01 1.200000000000e-01
-1.250000000000e-01 1.250000000000e-01 1.200000000000e-01
0.000000000000e+00 1.250000000000e-01 1.200000000000e-01
1.250000000000e-01 1.250000000000e-01 1.200000000000e-01
2.500000000000e-01 1.250000000000e-01 1.200000000000e-01
-2.500000000000e-01 2.500000000000e-01 1.200000000000e-01
-1.250000000000e-01 2.500000000000e-01 1.200000000000e-01
0.000000000000e+00 2.500000000000e-01 1.200000000000e-01
1.250000000000e-01 2.500000000000e-01 1.200000000000e-01
2.500000000000e-01 2.500000000000e-01 1.200000000000e-01
-2.500000000000e-01 -2.500000000000e-01 1.800000000000e-01
-1.250000000000e-01 -2.500000000000e-01 1.800000000000e-01
0.000000000000e+00 -2.500000000000e-01 1.800000000000e-01
1.250000000000e-01 -2.500000000000e-01 1.800000000000e-01
2.500000000000e-01 -2.500000000000e-01 1.800000000000e-01
-2.500000000000e-01 -1.250000000000e-01 1.800000000000e-01
-1.250000000000e-01 -1.250000000000e-01 1.800000000000e-01
0.000000000000e+00 -1.250000000000e-01 1.800000000000e-01
1.250000000000e-01 -1.250000000000e-01 1.800000000000e-01
2.500000000000e-01 -1.250000000000e-01 1.800000000000e-01
-2.500000000000e-01 0.000000000000e+00 1.800000000000e-01
-1.250000000000e-01 0.000000000000e+00 1.800000000000e-01
0.000000000000e+00 0.000000000000e+00 1.800000000000e-01
1.250000000000e-01 0.000000000000e+00 1.800000000000e-01
2.500000000000e-01 0.000000000000e+00 1.800000000000e-01
-2.500000000000e-01 1.250000000000e-01 1.800000000000e-01
-1.250000000000e-01 1.250000000000e-01 1.800000000000e-01
0.000000000000e+00 1.250000000000e-01 1.800000000000e-01
1.250000000000e-01 1.250000000000e-01 1.800000000000e-01
2.500000000000e-01 1.250000000000e-01 1.800000000000e-01
-2.500000000000e-01 2.500000000000e-01 1.800000000000e-01
-1.250000000000e-01 2.500000000000e-01 1.800000000000e-01
0.000000000000e+00 2.500000000000e-01 1.800000000000e-01
1.250000000000e-01 2.500000000000e-01 1.800000000000e-01
2.500000000000e-01 2.500000000000e-01 1.800000000000e-01
-2.500000000000e-01 -2.500000000000e-01 2.400000000000e-01
-1.250000000000e-01 -2.500000000000e-01 2.400000000000e-01
0.000000000000e+00 -2.500000000000e-01 2.400000000000e-01
1.250000000000e-01 -2.500000000000e-01 2.400000000000e-01
2.500000000000e-01 -2.500000000000e-01 2.400000000000e-01
-2.500000000000e-01 -1.250000000000e-01 2.400000000000e-01
-1.250000000000e-01 -1.250000000000e-01 2.400000000000e-01
0.000000000000e+00 -1.250000000000e-01 2.400000000000e-01
1.250000000000e-01 -1.250000000000e-01 2.400000000000e-01
2.500000000000e-01 -1.250000000000e-01 2.400000000000e-01
-2.500000000000e-01 0.000000000000e+00 2.400000000000e-01
-1.250000000000e-01 0.000000000000e+00 2.400000000000e-01
0.000000000000e+00 0.000000000000e+00 2.400000000000e-01
1.250000000000e-01 0.000000000000e+00 2.400000000000e-01
2.500000000000e-01 0.000000000000e+00 2.400000000000e-01
-2.500000000000e-01 1.250000000000e-01 2.400000000000e-01
-1.250000000000e-01 1.250000000000e-01 2.400000000000e-01
0.000000000000e+00 1.250000000000e-01 2.400000000000e-01
1.250000000000e-01 1.250000000000e-01 2.400000000000e-01
2.500000000000e-01 1.250000000000e-01 2.400000000000e-01
-2.500000000000e-01 2.500000000000e-01 2.400000000000e-01
-1.250000000000e-01 2.500000000000e-01 2.400000000000e-01
0.000000000000e+00 2.500000000000e-01 2.400000000000e-01
1.250000000000e-01 2.500000000000e-01 2.400000000000e-01
2.500000000000e-01 2.500000000000e-01 2.400000000000e-01
-2.499999848279e-01 -2.499999849616e-01 2.501076945792e-01
-1.249999872403e-01 -2.499999866205e-01 2.501076883112e-01
2.078280861054e-10 -2.499999893082e-01 2.501076848173e-01
1.249999876560e-01 -2.499999866206e-01 2.501076887099e-01
2.499999852436e-01 -2.499999849619e-01 2.501076953766e-01
-2.499999864866e-01 -1.249999873740e-01 2.501076881841e-01
-1.249999872075e-01 -1.249999873413e-01 2.501076815643e-01
2.078970900745e-10 -1.249999883288e-01 2.501076779367e-01
1.249999876233e-01 -1.249999873415e-01 2.501076819630e-01
2.499999869024e-01 -1.249999873743e-01 2.501076889815e-01
-2.499999891742e-01 7.415178304785e-11 2.501076845631e-01
-1.249999881948e-01 7.408255632644e-11 2.501076778096e-01
2.079662488507e-10 7.401338840039e-11 2.501076740864e-01
1.249999886107e-01 7.394423653863e-11 2.501076782083e-01
2.499999895901e-01 7.387512993309e-11 2.501076853605e-01
-2.499999864865e-01 1.249999875223e-01 2.501076883286e-01
-1.249999872074e-01 1.249999874895e-01 2.501076817088e-01
2.080354439793e-10 1.249999884768e-01 2.501076780812e-01
1.249999876235e-01 1.249999874894e-01 2.501076821075e-01
2.499999869026e-01 1.249999875220e-01 2.501076891260e-01
-2.499999848277e-01 2.499999851099e-01 2.501076948681e-01
-1.249999872401e-01 2.499999867686e-01 2.501076886001e-01
2.081047825351e-10 2.499999894562e-01 2.501076851063e-01
1.249999876563e-01 2.499999867685e-01 2.501076889989e-01
2.499999852439e-01 2.499999851096e-01 2.501076956655e-01
-2.499999815094e-01 -2.499999815770e-01 3.151076913229e-01
-1.249999849453e-01 -2.499999831174e-01 3.151076868216e-01
1.041638477260e-10 -2.499999858705e-01 3.151076847091e-01
1.249999851536e-01 -2.499999831175e-01 3.151076872203e-01
2.499999817177e-01 -2.499999815772e-01 3.151076921204e-01
-2.499999830497e-01 -1.249999850129e-01 3.151076866945e-01
-1.249999848721e-01 -1.249999849399e-01 3.151076823247e-01
1.042328428584e-10 -1.249999859012e-01 3.151076804427e-01
1.249999850806e-01 -1.249999849400e-01 3.151076827235e-01
2.499999832582e-01 -1.249999850132e-01 3.151076874919e-01
-2.499999858026e-01 3.658819801031e-11 3.151076844549e-01
-1.249999858334e-01 3.651896505018e-11 3.151076803156e-01
1.043019860831e-10 3.644978990567e-11 3.151076786091e-01
1.249999860420e-01 3.638063581063e-11 3.151076807143e-01
2.499999860112e-01 3.631152877647e-11 3.151076852523e-01
-2.499999830495e-01 1.249999850861e-01 3.151076868389e-01
-1.249999848720e-01 1.249999850129e-01 3.151076824692e-01
1.043711878790e-10 1.249999859741e-01 3.151076805872e-01
1.249999850807e-01 1.249999850128e-01 3.151076828679e-01
2.499999832583e-01 1.249999850858e-01 3.151076876364e-01
-2.499999815091e-01 2.499999816501e-01 3.151076916119e-01
-1.249999849450e-01 2.499999831904e-01 3.151076871105e-01
1.044405302307e-10 2.499999859434e-01 3.151076849981e-01
1.249999851539e-01 2.499999831903e-01 3.151076875093e-01
2.499999817180e-01 2.499999816499e-01 3.151076924093e-01
-2.499999789882e-01 -2.499999789897e-01 3.801076874721e-01
-1.249999839559e-01 -2.499999803561e-01 3.801076853520e-01
4.993852722272e-13 -2.499999831005e-01 3.801076844940e-01
1.249999839569e-01 -2.499999803563e-01 3.801076857507e-01
2.499999789892e-01 -2.499999789900e-01 3.801076882696e-01
-2.499999803545e-01 -1.249999839574e-01 3.801076852249e-01
-1.249999839045e-01 -1.249999839061e-01 3.801076836677e-01
5.684323214469e-13 -1.249999848872e-01 3.801076833264e-01
1.249999839056e-01 -1.249999839063e-01 3.801076840664e-01
2.499999803556e-01 -1.249999839576e-01 3.801076860223e-01
-2.499999830988e-01 -9.754718977768e-13 3.801076842398e-01
-1.249999848855e-01 -1.044686121946e-12 3.801076831993e-01
6.375921931951e-13 -1.113857069188e-12 3.801076832903e-01
1.249999848867e-01 -1.183022790027e-12 3.801076835980e-01
2.499999831000e-01 -1.252149331217e-12 3.801076850372e-01
-2.499999803544e-01 1.249999839554e-01 3.801076853694e-01
-1.249999839044e-01 1.249999839040e-01 3.801076838121e-01
7.067705502843e-13 1.249999848850e-01 3.801076834709e-01
1.249999839058e-01 1.249999839039e-01 3.801076842108e-01
2.499999803558e-01 1.249999839551e-01 3.801076861668e-01
-2.499999789879e-01 2.499999789877e-01 3.801076877611e-01
-1.249999839556e-01 2.499999803540e-01 3.801076856410e-01
7.760591957660e-13 2.499999830983e-01 3.801076847829e-01
1.249999839572e-01 2.499999803539e-01 3.801076860397e-01
2.499999789895e-01 2.499999789875e-01 3.801076885585e-01
-2.499999781998e-01 -2.499999781351e-01 4.451076863655e-01
-1.249999842185e-01 -2.499999795861e-01 4.451076864273e-01
-1.031651620130e-10 -2.499999823361e-01 4.451076865203e-01
1.249999840122e-01 -2.499999795862e-01 4.451076868260e-01
2.499999779934e-01 -2.499999781354e-01 4.451076871629e-01
-2.499999796506e-01 -1.249999841539e-01 4.451076863002e-01
-1.249999842096e-01 -1.249999841451e-01 4.451076874457e-01
-1.030960558981e-10 -1.249999852283e-01 4.451076883385e-01
1.249999840034e-01 -1.249999841452e-01 4.451076878444e-01
2.499999794444e-01 -1.249999841542e-01 4.451076870976e-01
-2.499999824005e-01 -3.853917236256e-11 4.451076862661e-01
-1.249999852926e-01 -3.860836497490e-11 4.451076882114e-01
-1.030268802958e-10 -3.867753295474e-11 4.451076897203e-01
1.249999850866e-01 -3.874671045570e-11 4.451076886101e-01
2.499999821944e-01 -3.881585669376e-11 4.451076870635e-01
-2.499999796504e-01 1.249999840768e-01 4.451076864447e-01
-1.249999842094e-01 1.249999840679e-01 4.451076875902e-01
-1.029577258117e-10 1.249999851509e-01 4.451076884830e-01
1.249999840035e-01 1.249999840677e-01 4.451076879889e-01
2.499999794445e-01 1.249999840765e-01 4.451076872421e-01
-2.499999781995e-01 2.499999780581e-01 4.451076866544e-01
-1.249999842182e-01 2.499999795089e-01 4.451076867163e-01
-1.028884947295e-10 2.499999822588e-01 4.451076868093e-01
1.249999840124e-01 2.499999795087e-01 4.451076871150e-01
2.499999779937e-01 2.499999780578e-01 4.451076874518e-01
-2.499999788448e-01 -2.499999787141e-01 5.101076874616e-01
-1.249999850077e-01 -2.499999806527e-01 5.101076890065e-01
-2.068294291615e-10 -2.499999837120e-01 5.101076900864e-01
1.249999845940e-01 -2.499999806529e-01 5.101076894052e-01
2.499999784311e-01 -2.499999787143e-01 5.101076882590e-01
-2.499999807833e-01 -1.249999848769e-01 5.101076888793e-01
-1.249999853582e-01 -1.249999852276e-01 5.101076919972e-01
-2.067603416323e-10 -1.249999866561e-01 5.101076941521e-01
1.249999849447e-01 -1.249999852278e-01 5.101076923959e-01
2.499999803698e-01 -1.249999848772e-01 5.101076896768e-01
-2.499999838424e-01 -7.610276934165e-11 5.101076898322e-01
-1.249999867866e-01 -7.617196877019e-11 5.101076940250e-01
-2.066911904886e-10 -7.624115012041e-11 5.101076969064e-01
1.249999863732e-01 -7.631032520712e-11 5.101076944237e-01
2.499999834291e-01 -7.637946430558e-11 5.101076906296e-01
-2.499999807832e-01 1.249999847247e-01 5.101076890238e-01
-1.249999853581e-01 1.249999850753e-01 5.101076921417e-01
-2.066220230401e-10 1.249999865036e-01 5.101076942966e-01
1.249999849448e-01 1.249999850751e-01 5.101076925404e-01
2.499999803699e-01 1.249999847245e-01 5.101076898212e-01
-2.499999788445e-01 2.499999785619e-01 5.101076877505e-01
-1.249999850074e-01 2.499999805004e-01 5.101076892954e-01
-2.065527757789e-10 2.499999835595e-01 5.101076903754e-01
1.249999845943e-01 2.499999805003e-01 5.101076896941e-01
2.499999784314e-01 2.499999785616e-01 5.101076885480e-01
CELLS 128 1152
8 0 1 6 5 25 26 31 30
8 1 2 7 6 26 27 32 31
8 2 3 8 7 27 28 33 32
8 3 4 9 8 28 29 34 33
8 5 6 11 10 30 31 36 35
8 6 7 12 11 31 32 37 36
8 7 8 13 12 32 33 38 37
8 8 9 14 13 33 34 39 38
8 10 11 16 15 35 36 41 40
8 11 12 17 16 36 37 42 41
8 12 13 18 17 37 38 43 42
8 13 14 19 18 38 39 44 43
8 15 16 21 20 40 41 46 45
8 16 17 22 21 41 42 47 46
8 17 18 23 22 42 43 48 47
8 18 19 24 23 43 44 49 48
8 25 26 31 30 50 51 56 55
8 26 27 32 31 51 52 57 56
8 27 28 33 32 52 53 58 57
8 28 29 34 33 53 54 59 58
8 30 31 36 35 55 56 61 60
8 31 32 37 36 56 57 62 61
8 32 33 38 37 57 58 63 62
8 33 34 39 38 58 59 64 63
8 35 36 41 40 60 61 66 65
8 36 37 42 41 61 62 67 66
8 37 38 43 42 62 63 68 67
8 38 39 44 43 63 64 69 68
8 40 41 46 45 65 66 71 70
8 41 42 47 46 66 67 72 71
8 42 43 48 47 67 68 73 72
8 43 44 49 48 68 69 74 73
8 50 51 56 55 75 76 81 80
8 51 52 57 56 76 77 82 81
8 52 53 58 57 77 78 83 82
8 53 54 59 58 78 79 84 83
8 55 56 61 60 80 81 86 85
8 56 57 62 61 81 82 87 86
8 57 58 63 62 82 83 88 87
8 58 59 64 63 83 84 89 88
8 60 61 66 65 85 86 91 90
8 61 62 67 66 86 87 92 91
8 62 63 68 67 87 88 93 92
8 63 64 69 68 88 89 94 93
8 65 66 71 70 90 91 96 95
8 66 67 72 71 91 92 97 96
8 67 68 73 72 92 93 98 97
8 68 69 74 73 93 94 99 98
8 75 76 81 80 100 101 106 105
8 76 77 82 81 101 102 107 106
8 77 78 83 82 102 103 108 107
8 78 79 84 83 103 104 109 108
8 80 81 86 85 105 106 111 110
8 81 82 87 86 106 107 112 111
8 82 83 88 87 107 108 113 112
8 83 84 89 88 108 109 114 113
8 85 86 91 90 110 111 116 115
8 86 87 92 91 111 112 117 116
8 87 88 93 92 112 113 118 117
8 88 89 94 93 113 114 119 118
8 90 91 96 95 115 116 121 120
8 91 92 97 96 116 117 122 121
8 92 93 98 97 117 118 123 122
8 93 94 99 98 118 119 124 123
8 125 126 131 130 150 151 156 155
8 126 127 132 131 151 152 157 156
8 127 128 133 132 152 153 158 157
8 128 129 134 133 153 154 159 158
8 130 131 136 135 155 156 161 160
8 131 132 137 136 156 157 162 161
8 132 133 138 137 157 158 163 162
8 133 134 139 138 158 159 164 163
8 135 136 141 140 160 161 166 165
8 136 137 142 141 161 162 167 166
8 137 138 143 142 162 163 168 167
8 138 139 144 143 163 164 169 168
8 140 141 146 145 165 166 171 170
8 141 142 147 146 166 167 172 171
8 142 143 148 147 167 168 173 172
8 143 144 149 148 168 169 174 173
8 150 151 156 155 175 176 181 180
8 151 152 157 156 176 177 182 181
8 152 153 158 157 177 178 183 182
8 153 154 159 158 178 179 184 183
8 155 156 161 160 180 181 186 185
8 156 157 162 161 181 182 187 186
8 157 158 163 162 182 183 188 187
8 158 159 164 163 183 184 189 188
8 160 161 166 165 185 186 191 190
8 161 162 167 166 186 187 192 191
8 162 163 168 167 187 188 193 192
8 163 164 169 168 188 189 194 193
8 165 166 171 170 190 191 196 195
8 166 167 172 171 191 192 197 196
8 167 168 173 172 192 193 198 197
8 168 169 174 173 193 194 199 198
8 175 176 181 180 200 201 206 205
8 176 177 182 181 201 202 207 206
8 177 178 183 182 202 203 208 207
8 178 179 184 183 203 204 209 208
8 180 181 186 185 205 206 211 210
8 181 182 187 186 206 207 212 211
8 182 183 188 187 207 208 213 212
8 183 184 189 188 208 209 214 213
8 185 186 191 190 210 211 216 215
8 186 187 192 191 211 212 217 216
8 187 188 193 192 212 213 218 217
8 188 189 194 193 213 214 219 218
8 190 191 196 195 215 216 221 220
8 191 192 197 196 216 217 222 221
8 192 193 198 197 217 218 223 222
8 193 194 199 198 218 219 224 223
8 200 201 206 205 225 226 231 230
8 201 202 207 206 226 227 232 231
8 202 203 208 207 227 228 233 232
8 203 204 209 208 228 229 234 233
8 205 206 211 210 230 231 236 235
8 206 207 212 211 231 232 237 236
8 207 208 213 212 232 233 238 237
8 208 209 214 213 233 234 239 238
8 210 211 216 215 235 236 241 240
8 211 212 217 216 236 237 242 241
8 212 213 218 217 237 238 243 242
8 213 214 219 218 238 239 244 243
8 215 216 221 220 240 241 246 245
8 216 217 222 221 241 242 247 246
8 217 218 223 222 242 243 248 247
8 218 219 224 223 243 244 249 248
CELL_TYPES 128
12
12
12
12
12
12
12
12
12
12
12
12
12
12
12
12
12
12
12
12
12
12
12
12
12
12
12
12
12
12
12
12
12
12
12
12
12
12
12
12
12
12
12
12
12
12
12
12
12
12
12
12
12
12
12
12
12
12
12
12
12
12
12
12
12
12
12
12
12
12
12
12
12
12
12
12
12
12
12
12
12
12
12
12
12
12
12
12
12
12
12
12
12
12
12
12
12
12
12
12
12
12
12
12
12
12
12
12
12
12
12
12
12
12
12
12
12
12
12
12
12
12
12
12
12
12
12
12
POINT_DATA 250
VECTORS displacement float
0.000000000000e+00 0.000000000000e+00 0.000000000000e+00
0.000000000000e+00 0.000000000000e+00 0.000000000000e+00
0.000000000000e+00 0.000000000000e+00 0.000000000000e+00
0.000000000000e+00 0.000000000000e+00 0.000000000000e+00
0.000000000000e+00 0.000000000000e+00 0.000000000000e+00
0.000000000000e+00 0.000000000000e+00 0.000000000000e+00
0.000000000000e+00 0.000000000000e+00 0.000000000000e+00
0.000000000000e+00 0.000000000000e+00 0.000000000000e+00
0.000000000000e+00 0.000000000000e+00 0.000000000000e+00
0.000000000000e+00 0.000000000000e+00 0.000000000000e+00
0.000000000000e+00 0.000000000000e+00 0.000000000000e+00
0.000000000000e+00 0.000000000000e+00 0.000000000000e+00
0.000000000000e+00 0.000000000000e+00 0.000000000000e+00
0.000000000000e+00 0.000000000000e+00 0.000000000000e+00
0.000000000000e+00 0.000000000000e+00 0.000000000000e+00
0.000000000000e+00 0.000000000000e+00 0.000000000000e+00
0.000000000000e+00 0.000000000000e+00 0.000000000000e+00
0.000000000000e+00 0.000000000000e+00 0.000000000000e+00
0.000000000000e+00 0.000000000000e+00 0.000000000000e+00
0.000000000000e+00 0.000000000000e+00 0.000000000000e+00
0.000000000000e+00 0.000000000000e+00 0.000000000000e+00
0.000000000000e+00 0.000000000000e+00 0.000000000000e+00
0.000000000000e+00 0.000000000000e+00 0.000000000000e+00
0.000000000000e+00 0.000000000000e+00 0.000000000000e+00
0.000000000000e+00 0.000000000000e+00 0.000000000000e+00
0.000000000000e+00 0.000000000000e+00 0.000000000000e+00
0.000000000000e+00 0.000000000000e+00 0.000000000000e+00
0.000000000000e+00 0.000000000000e+00 0.000000000000e+00
0.000000000000e+00 0.000000000000e+00 0.000000000000e+00
0.000000000000e+00 0.000000000000e+00 0.000000000000e+00
0.000000000000e+00 0.000000000000e+00 0.000000000000e+00
0.000000000000e+00 0.000000000000e+00 0.000000000000e+00
0.000000000000e+00 0.000000000000e+00 0.000000000000e+00
0.000000000000e+00 0.000000000000e+00 0.000000000000e+00
0.000000000000e+00 0.000000000000e+00 0.000000000000e+00
0.000000000000e+00 0.000000000000e+00 0.000000000000e+00
0.000000000000e+00 0.000000000000e+00 0.000000000000e+00
0.000000000000e+00 0.000000000000e+00 0.000000000000e+00
0.000000000000e+00 0.000000000000e+00 0.000000000000e+00
0.000000000000e+00 0.000000000000e+00 0.000000000000e+00
0.000000000000e+00 0.000000000000e+00 0.000000000000e+00
0.000000000000e+00 0.000000000000e+00 0.000000000000e+00
0.000000000000e+00 0.000000000000e+00 0.000000000000e+00
0.000000000000e+00 0.000000000000e+00 0.000000000000e+00
0.000000000000e+00 0.000000000000e+00 0.000000000000e+00
0.000000000000e+00 0.000000000000e+00 0.000000000000e+00
0.000000000000e+00 0.000000000000e+00 0.000000000000e+00
0.000000000000e+00 0.000000000000e+00 0.000000000000e+00
0.000000000000e+00 0.000000000000e+00 0.000000000000e+00
0.000000000000e+00 0.000000000000e+00 0.000000000000e+00
0.000000000000e+00 0.000000000000e+00 0.000000000000e+00
0.000000000000e+00 0.000000000000e+00 0.000000000000e+00
0.000000000000e+00 0.000000000000e+00 0.000000000000e+00
0.000000000000e+00 0.000000000000e+00 0.000000000000e+00
0.000000000000e+00 0.000000000000e+00 0.000000000000e+00
0.000000000000e+00 0.000000000000e+00 0.000000000000e+00
0.000000000000e+00 0.000000000000e+00 0.000000000000e+00
0.000000000000e+00 0.000000000000e+00 0.000000000000e+00
0.000000000000e+00 0.000000000000e+00 0.000000000000e+00
0.000000000000e+00 0.000000000000e+00 0.000000000000e+00
0.000000000000e+00 0.000000000000e+00 0.000000000000e+00
0.000000000000e+00 0.000000000000e+00 0.000000000000e+00
0.000000000000e+00 0.000000000000e+00 0.000000000000e+00
0.000000000000e+00 0.000000000000e+00 0.000000000000e+00
0.000000000000e+00 0.000000000000e+00 0.000000000000e+00
0.000000000000e+00 0.000000000000e+00 0.000000000000e+00
0.000000000000e+00 0.000000000000e+00 0.000000000000e+00
0.000000000000e+00 0.000000000000e+00 0.000000000000e+00
0.000000000000e+00 0.000000000000e+00 0.000000000000e+00
0.000000000000e+00 0.000000000000e+00 0.000000000000e+00
0.000000000000e+00 0.000000000000e+00 0.000000000000e+00
0.000000000000e+00 0.000000000000e+00 0.000000000000e+00
0.000000000000e+00 0.000000000000e+00 0.000000000000e+00
0.000000000000e+00 0.000000000000e+00 0.000000000000e+00
0.000000000000e+00 0.000000000000e+00 0.000000000000e+00
0.000000000000e+00 0.000000000000e+00 0.000000000000e+00
0.000000000000e+00 0.000000000000e+00 0.000000000000e+00
0.000000000000e+00 0.000000000000e+00 0.000000000000e+00
0.000000000000e+00 0.000000000000e+00 0.000000000000e+00
0.000000000000e+00 0.000000000000e+00 0.000000000000e+00
0.000000000000e+00 0.000000000000e+00 0.000000000000e+00
0.000000000000e+00 0.000000000000e+00 0.000000000000e+00
0.000000000000e+00 0.000000000000e+00 0.000000000000e+00
0.000000000000e+00 0.000000000000e+00 0.000000000000e+00
0.000000000000e+00 0.000000000000e+00 0.000000000000e+00
0.000000000000e+00 0.000000000000e+00 0.000000000000e+00
0.000000000000e+00 0.000000000000e+00 0.000000000000e+00
0.000000000000e+00 0.000000000000e+00 0.000000000000e+00
0.000000000000e+00 0.000000000000e+00 0.000000000000e+00
0.000000000000e+00 0.000000000000e+00 0.000000000000e+00
0.000000000000e+00 0.000000000000e+00 0.000000000000e+00
0.000000000000e+00 0.000000000000e+00 0.000000000000e+00
0.000000000000e+00 0.000000000000e+00 0.000000000000e+00
0.000000000000e+00 0.000000000000e+00 0.000000000000e+00
0.000000000000e+00 0.000000000000e+00 0.000000000000e+00
0.000000000000e+00 0.000000000000e+00 0.000000000000e+00
0.000000000000e+00 0.000000000000e+00 0.000000000000e+00
0.000000000000e+00 0.000000000000e+00 0.000000000000e+00
0.000000000000e+00 0.000000000000e+00 0.000000000000e+00
0.000000000000e+00 0.000000000000e+00 0.000000000000e+00
0.000000000000e+00 0.000000000000e+00 0.000000000000e+00
0.000000000000e+00 0.000000000000e+00 0.000000000000e+00
0.000000000000e+00 0.000000000000e+00 0.000000000000e+00
0.000000000000e+00 0.000000000000e+00 0.000000000000e+00
0.000000000000e+00 0.000000000000e+00 0.000000000000e+00
0.000000000000e+00 0.000000000000e+00 0.000000000000e+00
0.000000000000e+00 0.000000000000e+00 0.000000000000e+00
0.000000000000e+00 0.000000000000e+00 0.000000000000e+00
0.000000000000e+00 0.000000000000e+00 0.000000000000e+00
0.000000000000e+00 0.000000000000e+00 0.000000000000e+00
0.000000000000e+00 0.000000000000e+00 0.000000000000e+00
0.000000000000e+00 0.000000000000e+00 0.000000000000e+00
0.000000000000e+00 0.000000000000e+00 0.000000000000e+00
0.000000000000e+00 0.000000000000e+00 0.000000000000e+00
0.000000000000e+00 0.000000000000e+00 0.000000000000e+00
0.000000000000e+00 0.000000000000e+00 0.000000000000e+00
0.000000000000e+00 0.000000000000e+00 0.000000000000e+00
0.000000000000e+00 0.000000000000e+00 0.000000000000e+00
0.000000000000e+00 0.000000000000e+00 0.000000000000e+00
0.000000000000e+00 0.000000000000e+00 0.000000000000e+00
0.000000000000e+00 0.000000000000e+00 0.000000000000e+00
0.000000000000e+00 0.000000000000e+00 0.000000000000e+00
0.000000000000e+00 0.000000000000e+00 0.000000000000e+00
0.000000000000e+00 0.000000000000e+00 0.000000000000e+00
0.000000000000e+00 0.000000000000e+00 0.000000000000e+00
1.517206059796e-08 1.503838370192e-08 -4.892305420827e-03
1.275966558078e-08 1.337954859469e-08 -4.892311688805e-03
2.078280861054e-10 1.069184640292e-08 -4.892315182688e-03
-1.234400899787e-08 1.337941089260e-08 -4.892311290097e-03
-1.475640335145e-08 1.503810786663e-08 -4.892304623409e-03
1.351336373615e-08 1.262598893771e-08 -4.892311815922e-03
1.279248006595e-08 1.265866522284e-08 -4.892318435711e-03
2.078970900745e-10 1.167124794928e-08 -4.892322063320e-03
-1.237668538786e-08 1.265852739979e-08 -4.892318037003e-03
-1.309756823453e-08 1.262571297110e-08 -4.892311018504e-03
1.082579970250e-08 7.415178304785e-11 -4.892315436922e-03
1.180520096552e-08 7.408255632644e-11 -4.892322190437e-03
2.079662488507e-10 7.401338840039e-11 -4.892325913629e-03
-1.138926794859e-08 7.394423653863e-11 -4.892321791728e-03
-1.040986576941e-08 7.387512993309e-11 -4.892314639504e-03
1.351350231808e-08 -1.247768522165e-08 -4.892311671447e-03
1.279261860123e-08 -1.251049992871e-08 -4.892318291236e-03
2.080354439793e-10 -1.152322098009e-08 -4.892321918845e-03
-1.237654721352e-08 -1.251063874693e-08 -4.892317892528e-03
-1.309743010610e-08 -1.247796256449e-08 -4.892310874028e-03
1.517233759021e-08 -1.489007974477e-08 -4.892305131876e-03
1.275994252706e-08 -1.323138300069e-08 -4.892311399854e-03
2.081047825351e-10 -1.054381909635e-08 -4.892314893737e-03
-1.234373255649e-08 -1.323152194242e-08 -4.892311001146e-03
-1.475612695803e-08 -1.489035722192e-08 -4.892304334458e-03
1.849060930346e-08 1.842303334546e-08 -4.892308677066e-03
1.505469088595e-08 1.688259855860e-08 -4.892313178408e-03
1.041638477260e-10 1.412952027248e-08 -4.892315290857e-03
-1.484636313712e-08 1.688246070858e-08 -4.892312779700e-03
-1.828228129833e-08 1.842275735272e-08 -4.892307879649e-03
1.695031276404e-08 1.498711503729e-08 -4.892313305525e-03
1.512786212033e-08 1.506014806441e-08 -4.892317675255e-03
1.042328428584e-10 1.409877425333e-08 -4.892319557258e-03
-1.491939627962e-08 1.506001015133e-08 -4.892317276546e-03
-1.674184651203e-08 1.498683894732e-08 -4.892312508107e-03
1.419737268817e-08 3.658819801031e-11 -4.892315545090e-03
1.416662650815e-08 3.651896505018e-11 -4.892319684374e-03
1.043019860831e-10 3.644978990567e-11 -4.892321390883e-03
-1.395802234518e-08 3.638063581063e-11 -4.892319285666e-03
-1.398876801034e-08 3.631152877647e-11 -4.892314747672e-03
1.695045128250e-08 -1.491393862383e-08 -4.892313161050e-03
1.512800061593e-08 -1.498711007722e-08 -4.892317530779e-03
1.043711878790e-10 -1.402587460440e-08 -4.892319412782e-03
-1.491925808705e-08 -1.498724882370e-08 -4.892317132071e-03
-1.674170834107e-08 -1.491421586796e-08 -4.892312363632e-03
1.849088623088e-08 -1.834985684184e-08 -4.892308388115e-03
1.505496777775e-08 -1.680956041951e-08 -4.892312889457e-03
1.044405302307e-10 -1.405662043471e-08 -4.892315001906e-03
-1.484608666574e-08 -1.680969923095e-08 -4.892312490749e-03
-1.828200486353e-08 -1.835013417727e-08 -4.892307590698e-03
2.101179485841e-08 2.101031986340e-08 -4.892312527853e-03
1.604411563797e-08 1.964388718523e-08 -4.892314647979e-03
4.993852722272e-13 1.689948861510e-08 -4.892315506006e-03
-1.604311697029e-08 1.964374922924e-08 -4.892314249271e-03
-2.101079619703e-08 2.101004373193e-08 -4.892311730436e-03
1.964550045236e-08 1.604264067609e-08 -4.892314775096e-03
1.609549358672e-08 1.609388037188e-08 -4.892316332338e-03
5.684323214469e-13 1.511278052059e-08 -4.892316673585e-03
-1.609435674337e-08 1.609374235931e-08 -4.892315933630e-03
-1.964436350567e-08 1.604236443300e-08 -4.892313977679e-03
1.690124013064e-08 -9.754718977768e-13 -4.892315760240e-03
1.511453197565e-08 -1.044686121946e-12 -4.892316800702e-03
6.375921931951e-13 -1.113857069188e-12 -4.892316709678e-03
-1.511325677802e-08 -1.183022790027e-12 -4.892316401993e-03
-1.689996474533e-08 -1.252149331217e-12 -4.892314962822e-03
1.964563892447e-08 -1.604459165789e-08 -4.892314630621e-03
1.609563204191e-08 -1.609596975035e-08 -4.892316187863e-03
7.067705502843e-13 -1.511500823089e-08 -4.892316529110e-03
-1.609421852586e-08 -1.609610841360e-08 -4.892315789155e-03
-1.964422530621e-08 -1.604486876587e-08 -4.892313833203e-03
2.101207173022e-08 -2.101227084828e-08 -4.892312238902e-03
1.604439246859e-08 -1.964597652537e-08 -4.892314359028e-03
7.760591957660e-13 -1.690171625882e-08 -4.892315217055e-03
-1.604284045477e-08 -1.964611524627e-08 -4.892313960321e-03
-2.101051972203e-08 -2.101254806152e-08 -4.892311441485e-03
2.180023047813e-08 2.186485649813e-08 -4.892313634542e-03
1.578150034270e-08 2.041391925001e-08 -4.892313572691e-03
-1.031651620130e-10 1.766387684292e-08 -4.892313479685e-03
-1.598783088347e-08 2.041378114028e-08 -4.892313173983e-03
-2.200656123105e-08 2.186458013041e-08 -4.892312837124e-03
2.034943154677e-08 1.584612632319e-08 -4.892313699808e-03
1.579043085983e-08 1.585491852871e-08 -4.892312554282e-03
-1.030960558981e-10 1.477174177266e-08 -4.892311661496e-03
-1.599662312507e-08 1.585478039330e-08 -4.892312155574e-03
-2.055562394767e-08 1.584584988278e-08 -4.892312902390e-03
1.759952744674e-08 -3.853917236256e-11 -4.892313733918e-03
1.470739239326e-08 -3.860836497490e-11 -4.892311788612e-03
-1.030268802958e-10 -3.867753295474e-11 -4.892310279677e-03
-1.491344627011e-08 -3.874671045570e-11 -4.892311389904e-03
-1.780558139196e-08 -3.881585669376e-11 -4.892312936500e-03
2.034956996002e-08 -1.592320474686e-08 -4.892313555333e-03
1.579056926675e-08 -1.593213531392e-08 -4.892312409807e-03
-1.029577258117e-10 -1.484909688211e-08 -4.892311517021e-03
-1.599648487166e-08 -1.593227386784e-08 -4.892312011099e-03
-2.055548569955e-08 -1.592348167273e-08 -4.892312757915e-03
2.180050725855e-08 -2.194193500110e-08 -4.892313345591e-03
1.578177709860e-08 -2.049113608373e-08 -4.892313283740e-03
-1.028884947295e-10 -1.774123198078e-08 -4.892313190734e-03
-1.598755430621e-08 -2.049127466186e-08 -4.892312885032e-03
-2.200628467917e-08 -2.194221199495e-08 -4.892312548174e-03
2.115521678478e-08 2.128594377628e-08 -4.892312538402e-03
1.499234046903e-08 1.934726620858e-08 -4.892310993546e-03
-2.068294291615e-10 1.628800183729e-08 -4.892309913555e-03
-1.540599984902e-08 1.934712786396e-08 -4.892310594838e-03
-2.156887672502e-08 2.128566709770e-08 -4.892311740984e-03
1.921667756576e-08 1.512306726870e-08 -4.892311120663e-03
1.464178149361e-08 1.477236996862e-08 -4.892308002814e-03
-2.067603416323e-10 1.334388609273e-08 -4.892305847916e-03
-1.505530260593e-08 1.477223169487e-08 -4.892307604106e-03
-1.963019913586e-08 1.512279063103e-08 -4.892310323245e-03
1.615755158713e-08 -7.610276934165e-11 -4.892310167789e-03
1.321343594831e-08 -7.617196877019e-11 -4.892305975033e-03
-2.066911904886e-10 -7.624115012041e-11 -4.892303093583e-03
-1.362681869101e-08 -7.631032520712e-11 -4.892305576324e-03
-1.657093469916e-08 -7.637946430558e-11 -4.892309370371e-03
1.921681589757e-08 -1.527527299798e-08 -4.892310976188e-03
1.464191984442e-08 -1.492471406419e-08 -4.892307858339e-03
-2.066220230401e-10 -1.349636852689e-08 -4.892305703441e-03
-1.505516431034e-08 -1.492485249614e-08 -4.892307459631e-03
-1.963006080727e-08 -1.527554974878e-08 -4.892310178770e-03
2.115549345137e-08 -2.143814971067e-08 -4.892312249451e-03
1.499261714551e-08 -1.949961047204e-08 -4.892310704595e-03
-2.065527757789e-10 -1.644048440834e-08 -4.892309624604e-03
-1.540572321101e-08 -1.949974883028e-08 -4.892310305887e-03
-2.156860006739e-08 -2.143842641648e-08 -4.892311452034e-03
SCALARS displacement_magnitude float 1
LOOKUP_TABLE default
0.000000000000e+00
0.000000000000e+00
0.000000000000e+00
0.000000000000e+00
0.000000000000e+00
0.000000000000e+00
0.000000000000e+00
0.000000000000e+00
0.000000000000e+00
0.000000000000e+00
0.000000000000e+00
0.000000000000e+00
0.000000000000e+00
0.000000000000e+00
0.000000000000e+00
0.000000000000e+00
0.000000000000e+00
0.000000000000e+00
0.000000000000e+00
0.000000000000e+00
0.000000000000e+00
0.000000000000e+00
0.000000000000e+00
0.000000000000e+00
0.000000000000e+00
0.000000000000e+00
0.000000000000e+00
0.000000000000e+00
0.000000000000e+00
0.000000000000e+00
0.000000000000e+00
0.000000000000e+00
0.000000000000e+00
0.000000000000e+00
0.000000000000e+00
0.000000000000e+00
0.000000000000e+00
0.000000000000e+00
0.000000000000e+00
0.000000000000e+00
0.000000000000e+00
0.000000000000e+00
0.000000000000e+00
0.000000000000e+00
0.000000000000e+00
0.000000000000e+00
0.000000000000e+00
0.000000000000e+00
0.000000000000e+00
0.000000000000e+00
0.000000000000e+00
0.000000000000e+00
0.000000000000e+00
0.000000000000e+00
0.000000000000e+00
0.000000000000e+00
0.000000000000e+00
0.000000000000e+00
0.000000000000e+00
0.000000000000e+00
0.000000000000e+00
0.000000000000e+00
0.000000000000e+00
0.000000000000e+00
0.000000000000e+00
0.000000000000e+00
0.000000000000e+00
0.000000000000e+00
0.000000000000e+00
0.000000000000e+00
0.000000000000e+00
0.000000000000e+00
0.000000000000e+00
0.000000000000e+00
0.000000000000e+00
0.000000000000e+00
0.000000000000e+00
0.000000000000e+00
0.000000000000e+00
0.000000000000e+00
0.000000000000e+00
0.000000000000e+00
0.000000000000e+00
0.000000000000e+00
0.000000000000e+00
0.000000000000e+00
0.000000000000e+00
0.000000000000e+00
0.000000000000e+00
0.000000000000e+00
0.000000000000e+00
0.000000000000e+00
0.000000000000e+00
0.000000000000e+00
0.000000000000e+00
0.000000000000e+00
0.000000000000e+00
0.000000000000e+00
0.000000000000e+00
0.000000000000e+00
0.000000000000e+00
0.000000000000e+00
0.000000000000e+00
0.000000000000e+00
0.000000000000e+00
0.000000000000e+00
0.000000000000e+00
0.000000000000e+00
0.000000000000e+00
0.000000000000e+00
0.000000000000e+00
0.000000000000e+00
0.000000000000e+00
0.000000000000e+00
0.000000000000e+00
0.000000000000e+00
0.000000000000e+00
0.000000000000e+00
0.000000000000e+00
0.000000000000e+00
0.000000000000e+00
0.000000000000e+00
0.000000000000e+00
0.000000000000e+00
0.000000000000e+00
4.892305420874e-03
4.892311688840e-03
4.892315182700e-03
4.892311290131e-03
4.892304623455e-03
4.892311815957e-03
4.892318435745e-03
4.892322063334e-03
4.892318037035e-03
4.892311018537e-03
4.892315436934e-03
4.892322190451e-03
4.892325913629e-03
4.892321791742e-03
4.892314639515e-03
4.892311671481e-03
4.892318291269e-03
4.892321918859e-03
4.892317892559e-03
4.892310874062e-03
4.892305131923e-03
4.892311399888e-03
4.892314893749e-03
4.892311001179e-03
4.892304334503e-03
4.892308677136e-03
4.892313178461e-03
4.892315290877e-03
4.892312779752e-03
4.892307879717e-03
4.892313305578e-03
4.892317675301e-03
4.892319557278e-03
4.892317276592e-03
4.892312508159e-03
4.892315545111e-03
4.892319684395e-03
4.892321390883e-03
4.892319285686e-03
4.892314747692e-03
4.892313161102e-03
4.892317530826e-03
4.892319412802e-03
4.892317132117e-03
4.892312363684e-03
4.892308388185e-03
4.892312889509e-03
4.892315001926e-03
4.892312490801e-03
4.892307590766e-03
4.892312527943e-03
4.892314648045e-03
4.892315506035e-03
4.892314249337e-03
4.892311730526e-03
4.892314775162e-03
4.892316332391e-03
4.892316673608e-03
4.892315933683e-03
4.892313977744e-03
4.892315760269e-03
4.892316800725e-03
4.892316709678e-03
4.892316402017e-03
4.892314962851e-03
4.892314630687e-03
4.892316187916e-03
4.892316529133e-03
4.892315789208e-03
4.892313833269e-03
4.892312238993e-03
4.892314359094e-03
4.892315217084e-03
4.892313960386e-03
4.892311441575e-03
4.892313634639e-03
4.892313572759e-03
4.892313479717e-03
4.892313174052e-03
4.892312837223e-03
4.892313699876e-03
4.892312554333e-03
4.892311661518e-03
4.892312155626e-03
4.892312902459e-03
4.892313733950e-03
4.892311788635e-03
4.892310279677e-03
4.892311389927e-03
4.892312936533e-03
4.892313555401e-03
4.892312409858e-03
4.892311517043e-03
4.892312011151e-03
4.892312757984e-03
4.892313345689e-03
4.892313283809e-03
4.892313190766e-03
4.892312885101e-03
4.892312548272e-03
4.892312538494e-03
4.892310993607e-03
4.892309913582e-03
4.892310594900e-03
4.892311741078e-03
4.892311120724e-03
4.892308002859e-03
4.892305847934e-03
4.892307604152e-03
4.892310323308e-03
4.892310167815e-03
4.892305975050e-03
4.892303093583e-03
4.892305576343e-03
4.892309370399e-03
4.892310976249e-03
4.892307858384e-03
4.892305703459e-03
4.892307459677e-03
4.892310178833e-03
4.892312249544e-03
4.892310704657e-03
4.892309624632e-03
4.892310305950e-03
4.892311452128e-03
CELL_DATA 128
SCALARS displacement_magnitude float 1
LOOKUP_TABLE default
0.000000000000e+00
0.000000000000e+00
0.000000000000e+00
0.000000000000e+00
0.000000000000e+00
0.000000000000e+00
0.000000000000e+00
0.000000000000e+00
0.000000000000e+00
0.000000000000e+00
0.000000000000e+00
0.000000000000e+00
0.000000000000e+00
0.000000000000e+00
0.000000000000e+00
0.000000000000e+00
0.000000000000e+00
0.000000000000e+00
0.000000000000e+00
0.000000000000e+00
0.000000000000e+00
0.000000000000e+00
0.000000000000e+00
0.000000000000e+00
0.000000000000e+00
0.000000000000e+00
0.000000000000e+00
0.000000000000e+00
0.000000000000e+00
0.000000000000e+00
0.000000000000e+00
0.000000000000e+00
0.000000000000e+00
0.000000000000e+00
0.000000000000e+00
0.000000000000e+00
0.000000000000e+00
0.000000000000e+00
0.000000000000e+00
0.000000000000e+00
0.000000000000e+00
0.000000000000e+00
0.000000000000e+00
0.000000000000e+00
0.000000000000e+00
0.000000000000e+00
0.000000000000e+00
0.000000000000e+00
0.000000000000e+00
0.000000000000e+00
0.000000000000e+00
0.000000000000e+00
0.000000000000e+00
0.000000000000e+00
0.000000000000e+00
0.000000000000e+00
0.000000000000e+00
0.000000000000e+00
0.000000000000e+00
0.000000000000e+00
0.000000000000e+00
0.000000000000e+00
0.000000000000e+00
0.000000000000e+00
4.892312524736e-03
4.892316634067e-03
4.892316434712e-03
4.892311926672e-03
4.892316761184e-03
4.892320863877e-03
4.892320664522e-03
4.892316163120e-03
4.892316688946e-03
4.892320791639e-03
4.892320592285e-03
4.892316090882e-03
4.892312308023e-03
4.892316417354e-03
4.892316217999e-03
4.892311709959e-03
4.892313890002e-03
4.892316107750e-03
4.892315908395e-03
4.892313291939e-03
4.892316234866e-03
4.892318103032e-03
4.892317903678e-03
4.892315636803e-03
4.892316162629e-03
4.892318030795e-03
4.892317831440e-03
4.892315564565e-03
4.892313673289e-03
4.892315891036e-03
4.892315691682e-03
4.892313075226e-03
4.892313968144e-03
4.892314303551e-03
4.892314104197e-03
4.892313370081e-03
4.892314430668e-03
4.892314100071e-03
4.892313900717e-03
4.892313832605e-03
4.892314358430e-03
4.892314027833e-03
4.892313828479e-03
4.892313760367e-03
4.892313751431e-03
4.892314086838e-03
4.892313887484e-03
4.892313153368e-03
4.892312014661e-03
4.892310753289e-03
4.892310553935e-03
4.892311416600e-03
4.892310880405e-03
4.892308650449e-03
4.892308451095e-03
4.892310282343e-03
4.892310808168e-03
4.892308578211e-03
4.892308378858e-03
4.892310210106e-03
4.892311797949e-03
4.892310536576e-03
4.892310337222e-03
4.892311199887e-03
SCALARS engineering_strain_norm float 1
LOOKUP_TABLE default
0.000000000000e+00
0.000000000000e+00
0.000000000000e+00
0.000000000000e+00
0.000000000000e+00
0.000000000000e+00
0.000000000000e+00
0.000000000000e+00
0.000000000000e+00
0.000000000000e+00
0.000000000000e+00
0.000000000000e+00
0.000000000000e+00
0.000000000000e+00
0.000000000000e+00
0.000000000000e+00
0.000000000000e+00
0.000000000000e+00
0.000000000000e+00
0.000000000000e+00
0.000000000000e+00
0.000000000000e+00
0.000000000000e+00
0.000000000000e+00
0.000000000000e+00
0.000000000000e+00
0.000000000000e+00
0.000000000000e+00
0.000000000000e+00
0.000000000000e+00
0.000000000000e+00
0.000000000000e+00
0.000000000000e+00
0.000000000000e+00
0.000000000000e+00
0.000000000000e+00
0.000000000000e+00
0.000000000000e+00
0.000000000000e+00
0.000000000000e+00
0.000000000000e+00
0.000000000000e+00
0.000000000000e+00
0.000000000000e+00
0.000000000000e+00
0.000000000000e+00
0.000000000000e+00
0.000000000000e+00
0.000000000000e+00
0.000000000000e+00
0.000000000000e+00
0.000000000000e+00
0.000000000000e+00
0.000000000000e+00
0.000000000000e+00
0.000000000000e+00
0.000000000000e+00
0.000000000000e+00
0.000000000000e+00
0.000000000000e+00
0.000000000000e+00
0.000000000000e+00
0.000000000000e+00
0.000000000000e+00
3.405917641994e-08
1.115336223407e-07
1.115336200076e-07
3.405917750104e-08
1.115336203518e-07
1.561117704931e-07
1.561117694833e-07
1.115336244045e-07
1.115336195127e-07
1.561117701302e-07
1.561117690991e-07
1.115336235450e-07
3.405917682021e-08
1.115336238217e-07
1.115336214799e-07
3.405917789118e-08
4.575407259776e-08
1.264783761835e-07
1.264783757660e-07
4.575407395857e-08
1.264783750769e-07
1.766444971199e-07
1.766444974064e-07
1.264783781640e-07
1.264783749236e-07
1.766444972171e-07
1.766444975185e-07
1.264783780023e-07
4.575407309419e-08
1.264783772941e-07
1.264783768975e-07
4.575407444669e-08
5.819348513710e-08
1.390582341369e-07
1.390582347820e-07
5.819348544390e-08
1.390582336459e-07
1.918078316246e-07
1.918078327551e-07
1.390582358274e-07
1.390582338570e-07
1.918078320357e-07
1.918078331933e-07
1.390582360466e-07
5.819348523396e-08
1.390582349217e-07
1.390582355992e-07
5.819348552583e-08
7.481911280303e-08
1.432456965017e-07
1.432456990742e-07
7.481911482792e-08
1.432456966454e-07
1.898139239590e-07
1.898139261595e-07
1.432456986619e-07
1.432456975880e-07
1.898139247691e-07
1.898139269506e-07
1.432456995724e-07
7.481911355710e-08
1.432456972399e-07
1.432456998014e-07
7.481911552219e-08
SCALARS von_mises float 1
LOOKUP_TABLE default
0.000000000000e+00
0.000000000000e+00
0.000000000000e+00
0.000000000000e+00
0.000000000000e+00
0.000000000000e+00
0.000000000000e+00
0.000000000000e+00
0.000000000000e+00
0.000000000000e+00
0.000000000000e+00
0.000000000000e+00
0.000000000000e+00
0.000000000000e+00
0.000000000000e+00
0.000000000000e+00
0.000000000000e+00
0.000000000000e+00
0.000000000000e+00
0.000000000000e+00
0.000000000000e+00
0.000000000000e+00
0.000000000000e+00
0.000000000000e+00
0.000000000000e+00
0.000000000000e+00
0.000000000000e+00
0.000000000000e+00
0.000000000000e+00
0.000000000000e+00
0.000000000000e+00
0.000000000000e+00
0.000000000000e+00
0.000000000000e+00
0.000000000000e+00
0.000000000000e+00
0.000000000000e+00
0.000000000000e+00
0.000000000000e+00
0.000000000000e+00
0.000000000000e+00
0.000000000000e+00
0.000000000000e+00
0.000000000000e+00
0.000000000000e+00
0.000000000000e+00
0.000000000000e+00
0.000000000000e+00
0.000000000000e+00
0.000000000000e+00
0.000000000000e+00
0.000000000000e+00
0.000000000000e+00
0.000000000000e+00
0.000000000000e+00
0.000000000000e+00
0.000000000000e+00
0.000000000000e+00
0.000000000000e+00
0.000000000000e+00
0.000000000000e+00
0.000000000000e+00
0.000000000000e+00
0.000000000000e+00
8.877996835717e-04
8.687947380478e-03
8.687947124089e-03
8.877998702387e-04
8.687947190738e-03
1.126136667351e-02
1.126136653142e-02
8.687947546068e-03
8.687947098264e-03
1.126136662310e-02
1.126136647819e-02
8.687947451669e-03
8.877997532221e-04
8.687947510630e-03
8.687947253445e-03
8.877999371471e-04
9.288508578698e-04
9.576810246139e-03
9.576810154609e-03
9.288507364444e-04
9.576810158685e-03
1.277563348015e-02
1.277563343177e-02
9.576810344647e-03
9.576810125837e-03
1.277563346096e-02
1.277563341512e-02
9.576810309765e-03
9.288508160034e-04
9.576810312211e-03
9.576810223270e-03
9.288506908524e-04
4.427689312980e-03
1.167150899990e-02
1.167150904459e-02
4.427689278072e-03
1.167150896838e-02
1.552082625819e-02
1.552082632303e-02
1.167150911257e-02
1.167150898199e-02
1.552082628196e-02
1.552082635058e-02
1.167150912669e-02
4.427689298242e-03
1.167150905194e-02
1.167150909943e-02
4.427689262074e-03
6.556600543949e-03
1.252105071220e-02
1.252105093127e-02
6.556600716857e-03
1.252105072970e-02
1.600360327210e-02
1.600360344138e-02
1.252105088394e-02
1.252105081068e-02
1.600360333486e-02
1.600360350131e-02
1.252105096061e-02
6.556600608754e-03
1.252105076910e-02
1.252105098640e-02
6.556600775136e-03
SCALARS sdf_gap float 1
LOOKUP_TABLE default
0.000000000000e+00
0.000000000000e+00
0.000000000000e+00
0.000000000000e+00
0.000000000000e+00
0.000000000000e+00
0.000000000000e+00
0.000000000000e+00
0.000000000000e+00
0.000000000000e+00
0.000000000000e+00
0.000000000000e+00
0.000000000000e+00
0.000000000000e+00
0.000000000000e+00
0.000000000000e+00
0.000000000000e+00
0.000000000000e+00
0.000000000000e+00
0.000000000000e+00
0.000000000000e+00
0.000000000000e+00
0.000000000000e+00
0.000000000000e+00
0.000000000000e+00
0.000000000000e+00
0.000000000000e+00
0.000000000000e+00
0.000000000000e+00
0.000000000000e+00
0.000000000000e+00
0.000000000000e+00
0.000000000000e+00
0.000000000000e+00
0.000000000000e+00
0.000000000000e+00
0.000000000000e+00
0.000000000000e+00
0.000000000000e+00
0.000000000000e+00
0.000000000000e+00
0.000000000000e+00
0.000000000000e+00
0.000000000000e+00
0.000000000000e+00
0.000000000000e+00
0.000000000000e+00
0.000000000000e+00
0.000000000000e+00
0.000000000000e+00
0.000000000000e+00
0.000000000000e+00
0.000000000000e+00
0.000000000000e+00
0.000000000000e+00
0.000000000000e+00
0.000000000000e+00
0.000000000000e+00
0.000000000000e+00
0.000000000000e+00
0.000000000000e+00
0.000000000000e+00
0.000000000000e+00
0.000000000000e+00
1.010768815968e-02
1.010768315737e-02
1.010768335672e-02
1.010768875775e-02
1.010768303025e-02
1.010767784923e-02
1.010767804858e-02
1.010768362832e-02
1.010768310249e-02
1.010767792146e-02
1.010767812082e-02
1.010768370055e-02
1.010768837640e-02
1.010768337408e-02
1.010768357344e-02
1.010768897446e-02
0.000000000000e+00
0.000000000000e+00
0.000000000000e+00
0.000000000000e+00
0.000000000000e+00
0.000000000000e+00
0.000000000000e+00
0.000000000000e+00
0.000000000000e+00
0.000000000000e+00
0.000000000000e+00
0.000000000000e+00
0.000000000000e+00
0.000000000000e+00
0.000000000000e+00
0.000000000000e+00
0.000000000000e+00
0.000000000000e+00
0.000000000000e+00
0.000000000000e+00
0.000000000000e+00
0.000000000000e+00
0.000000000000e+00
0.000000000000e+00
0.000000000000e+00
0.000000000000e+00
0.000000000000e+00
0.000000000000e+00
0.000000000000e+00
0.000000000000e+00
0.000000000000e+00
0.000000000000e+00
0.000000000000e+00
0.000000000000e+00
0.000000000000e+00
0.000000000000e+00
0.000000000000e+00
0.000000000000e+00
0.000000000000e+00
0.000000000000e+00
0.000000000000e+00
0.000000000000e+00
0.000000000000e+00
0.000000000000e+00
0.000000000000e+00
0.000000000000e+00
0.000000000000e+00
0.000000000000e+00
SCALARS contact_pressure float 1
LOOKUP_TABLE default
0.000000000000e+00
0.000000000000e+00
0.000000000000e+00
0.000000000000e+00
0.000000000000e+00
0.000000000000e+00
0.000000000000e+00
0.000000000000e+00
0.000000000000e+00
0.000000000000e+00
0.000000000000e+00
0.000000000000e+00
0.000000000000e+00
0.000000000000e+00
0.000000000000e+00
0.000000000000e+00
0.000000000000e+00
0.000000000000e+00
0.000000000000e+00
0.000000000000e+00
0.000000000000e+00
0.000000000000e+00
0.000000000000e+00
0.000000000000e+00
0.000000000000e+00
0.000000000000e+00
0.000000000000e+00
0.000000000000e+00
0.000000000000e+00
0.000000000000e+00
0.000000000000e+00
0.000000000000e+00
0.000000000000e+00
0.000000000000e+00
0.000000000000e+00
0.000000000000e+00
0.000000000000e+00
0.000000000000e+00
0.000000000000e+00
0.000000000000e+00
0.000000000000e+00
0.000000000000e+00
0.000000000000e+00
0.000000000000e+00
0.000000000000e+00
0.000000000000e+00
0.000000000000e+00
0.000000000000e+00
0.000000000000e+00
0.000000000000e+00
0.000000000000e+00
0.000000000000e+00
0.000000000000e+00
0.000000000000e+00
0.000000000000e+00
0.000000000000e+00
0.000000000000e+00
0.000000000000e+00
0.000000000000e+00
0.000000000000e+00
0.000000000000e+00
0.000000000000e+00
0.000000000000e+00
0.000000000000e+00
0.000000000000e+00
0.000000000000e+00
0.000000000000e+00
0.000000000000e+00
0.000000000000e+00
0.000000000000e+00
0.000000000000e+00
0.000000000000e+00
0.000000000000e+00
0.000000000000e+00
0.000000000000e+00
0.000000000000e+00
0.000000000000e+00
0.000000000000e+00
0.000000000000e+00
0.000000000000e+00
0.000000000000e+00
0.000000000000e+00
0.000000000000e+00
0.000000000000e+00
0.000000000000e+00
0.000000000000e+00
0.000000000000e+00
0.000000000000e+00
0.000000000000e+00
0.000000000000e+00
0.000000000000e+00
0.000000000000e+00
0.000000000000e+00
0.000000000000e+00
0.000000000000e+00
0.000000000000e+00
0.000000000000e+00
0.000000000000e+00
0.000000000000e+00
0.000000000000e+00
0.000000000000e+00
0.000000000000e+00
0.000000000000e+00
0.000000000000e+00
0.000000000000e+00
0.000000000000e+00
0.000000000000e+00
0.000000000000e+00
0.000000000000e+00
0.000000000000e+00
0.000000000000e+00
0.000000000000e+00
0.000000000000e+00
0.000000000000e+00
0.000000000000e+00
0.000000000000e+00
0.000000000000e+00
0.000000000000e+00
0.000000000000e+00
0.000000000000e+00
0.000000000000e+00
0.000000000000e+00
0.000000000000e+00
0.000000000000e+00
0.000000000000e+00
0.000000000000e+00
0.000000000000e+00
0.000000000000e+00
SCALARS active_contact float 1
LOOKUP_TABLE default
0.000000000000e+00
0.000000000000e+00
0.000000000000e+00
0.000000000000e+00
0.000000000000e+00
0.000000000000e+00
0.000000000000e+00
0.000000000000e+00
0.000000000000e+00
0.000000000000e+00
0.000000000000e+00
0.000000000000e+00
0.000000000000e+00
0.000000000000e+00
0.000000000000e+00
0.000000000000e+00
0.000000000000e+00
0.000000000000e+00
0.000000000000e+00
0.000000000000e+00
0.000000000000e+00
0.000000000000e+00
0.000000000000e+00
0.000000000000e+00
0.000000000000e+00
0.000000000000e+00
0.000000000000e+00
0.000000000000e+00
0.000000000000e+00
0.000000000000e+00
0.000000000000e+00
0.000000000000e+00
0.000000000000e+00
0.000000000000e+00
0.000000000000e+00
0.000000000000e+00
0.000000000000e+00
0.000000000000e+00
0.000000000000e+00
0.000000000000e+00
0.000000000000e+00
0.000000000000e+00
0.000000000000e+00
0.000000000000e+00
0.000000000000e+00
0.000000000000e+00
0.000000000000e+00
0.000000000000e+00
0.000000000000e+00
0.000000000000e+00
0.000000000000e+00
0.000000000000e+00
0.000000000000e+00
0.000000000000e+00
0.000000000000e+00
0.000000000000e+00
0.000000000000e+00
0.000000000000e+00
0.000000000000e+00
0.000000000000e+00
0.000000000000e+00
0.000000000000e+00
0.000000000000e+00
0.000000000000e+00
0.000000000000e+00
0.000000000000e+00
0.000000000000e+00
0.000000000000e+00
0.000000000000e+00
0.000000000000e+00
0.000000000000e+00
0.000000000000e+00
0.000000000000e+00
0.000000000000e+00
0.000000000000e+00
0.000000000000e+00
0.000000000000e+00
0.000000000000e+00
0.000000000000e+00
0.000000000000e+00
0.000000000000e+00
0.000000000000e+00
0.000000000000e+00
0.000000000000e+00
0.000000000000e+00
0.000000000000e+00
0.000000000000e+00
0.000000000000e+00
0.000000000000e+00
0.000000000000e+00
0.000000000000e+00
0.000000000000e+00
0.000000000000e+00
0.000000000000e+00
0.000000000000e+00
0.000000000000e+00
0.000000000000e+00
0.000000000000e+00
0.000000000000e+00
0.000000000000e+00
0.000000000000e+00
0.000000000000e+00
0.000000000000e+00
0.000000000000e+00
0.000000000000e+00
0.000000000000e+00
0.000000000000e+00
0.000000000000e+00
0.000000000000e+00
0.000000000000e+00
0.000000000000e+00
0.000000000000e+00
0.000000000000e+00
0.000000000000e+00
0.000000000000e+00
0.000000000000e+00
0.000000000000e+00
0.000000000000e+00
0.000000000000e+00
0.000000000000e+00
0.000000000000e+00
0.000000000000e+00
0.000000000000e+00
0.000000000000e+00
0.000000000000e+00
0.000000000000e+00
0.000000000000e+00
0.000000000000e+00
