# vtk DataFile Version 3.0
SFC long-time C3D8 dynamic frame 129 t=2.580000000000e+00
ASCII
DATASET UNSTRUCTURED_GRID
POINTS 250 float
-2.500000000000e-01 -2.500000000000e-01 0.000000000000e+00
-1.250000000000e-01 -2.500000000000e-01 0.000000000000e+00
0.000000000000e+00 -2.500000000000e-01 0.000000000000e+00
1.250000000000e-01 -2.500000000000e-01 0.000000000000e+00
2.500000000000e-01 -2.500000000000e-01 0.000000000000e+00
-2.500000000000e-01 -1.250000000000e-01 0.000000000000e+00
-1.250000000000e-01 -1.250000000000e-01 0.000000000000e+00
0.000000000000e+00 -1.250000000000e-01 0.000000000000e+00
1.250000000000e-01 -1.250000000000e-01 0.000000000000e+00
2.500000000000e-01 -1.250000000000e-01 0.000000000000e+00
-2.500000000000e-01 0.000000000000e+00 0.000000000000e+00
-1.250000000000e-01 0.000000000000e+00 0.000000000000e+00
0.000000000000e+00 0.000000000000e+00 0.000000000000e+00
1.250000000000e-01 0.000000000000e+00 0.000000000000e+00
2.500000000000e-01 0.000000000000e+00 0.000000000000e+00
-2.500000000000e-01 1.250000000000e-01 0.000000000000e+00
-1.250000000000e-01 1.250000000000e-01 0.000000000000e+00
0.000000000000e+00 1.250000000000e-01 0.000000000000e+00
1.250000000000e-01 1.250000000000e-01 0.000000000000e+00
2.500000000000e-01 1.250000000000e-01 0.000000000000e+00
-2.500000000000e-01 2.500000000000e-01 0.000000000000e+00
-1.250000000000e-01 2.500000000000e-01 0.000000000000e+00
0.000000000000e+00 2.500000000000e-01 0.000000000000e+00
1.250000000000e-01 2.500000000000e-01 0.000000000000e+00
2.500000000000e-01 2.500000000000e-01 0.000000000000e+00
-2.500000000000e-01 -2.500000000000e-01 6.000000000000e-02
-1.250000000000e-01 -2.500000000000e-01 6.000000000000e-02
0.000000000000e+00 -2.500000000000e-01 6.000000000000e-02
1.250000000000e-01 -2.500000000000e-01 6.000000000000e-02
2.500000000000e-01 -2.500000000000e-01 6.000000000000e-02
-2.500000000000e-01 -1.250000000000e-01 6.000000000000e-02
-1.250000000000e-01 -1.250000000000e-01 6.000000000000e-02
0.000000000000e+00 -1.250000000000e-01 6.000000000000e-02
1.250000000000e-01 -1.250000000000e-01 6.000000000000e-02
2.500000000000e-01 -1.250000000000e-01 6.000000000000e-02
-2.500000000000e-01 0.000000000000e+00 6.000000000000e-02
-1.250000000000e-01 0.000000000000e+00 6.000000000000e-02
0.000000000000e+00 0.000000000000e+00 6.000000000000e-02
1.250000000000e-01 0.000000000000e+00 6.000000000000e-02
2.500000000000e-01 0.000000000000e+00 6.000000000000e-02
-2.500000000000e-01 1.250000000000e-01 6.000000000000e-02
-1.250000000000e-01 1.250000000000e-01 6.000000000000e-02
0.000000000000e+00 1.250000000000e-01 6.000000000000e-02
1.250000000000e-01 1.250000000000e-01 6.000000000000e-02
2.500000000000e-01 1.250000000000e-01 6.000000000000e-02
-2.500000000000e-01 2.500000000000e-01 6.000000000000e-02
-1.250000000000e-01 2.500000000000e-01 6.000000000000e-02
0.000000000000e+00 2.500000000000e-01 6.000000000000e-02
1.250000000000e-01 2.500000000000e-01 6.000000000000e-02
2.500000000000e-01 2.500000000000e-01 6.000000000000e-02
-2.500000000000e-01 -2.500000000000e-01 1.200000000000e-01
-1.250000000000e-01 -2.500000000000e-01 1.200000000000e-01
0.000000000000e+00 -2.500000000000e-01 1.200000000000e-01
1.250000000000e-01 -2.500000000000e-01 1.200000000000e-01
2.500000000000e-01 -2.500000000000e-01 1.200000000000e-01
-2.500000000000e-01 -1.250000000000e-01 1.200000000000e-01
-1.250000000000e-01 -1.250000000000e-01 1.200000000000e-01
0.000000000000e+00 -1.250000000000e-01 1.200000000000e-01
1.250000000000e-01 -1.250000000000e-01 1.200000000000e-01
2.500000000000e-01 -1.250000000000e-01 1.200000000000e-01
-2.500000000000e-01 0.000000000000e+00 1.200000000000e-01
-1.250000000000e-01 0.000000000000e+00 1.200000000000e-01
0.000000000000e+00 0.000000000000e+00 1.200000000000e-01
1.250000000000e-01 0.000000000000e+00 1.200000000000e-01
2.500000000000e-01 0.000000000000e+00 1.200000000000e-01
-2.500000000000e-01 1.250000000000e-01 1.200000000000e-01
-1.250000000000e-01 1.250000000000e-01 1.200000000000e-01
0.000000000000e+00 1.250000000000e-01 1.200000000000e-01
1.250000000000e-01 1.250000000000e-01 1.200000000000e-01
2.500000000000e-01 1.250000000000e-01 1.200000000000e-01
-2.500000000000e-01 2.500000000000e-01 1.200000000000e-01
-1.250000000000e-01 2.500000000000e-01 1.200000000000e-01
0.000000000000e+00 2.500000000000e-01 1.200000000000e-01
1.250000000000e-01 2.500000000000e-01 1.200000000000e-01
2.500000000000e-01 2.500000000000e-01 1.200000000000e-01
-2.500000000000e-01 -2.500000000000e-01 1.800000000000e-01
-1.250000000000e-01 -2.500000000000e-01 1.800000000000e-01
0.000000000000e+00 -2.500000000000e-01 1.800000000000e-01
1.250000000000e-01 -2.500000000000e-01 1.800000000000e-01
2.500000000000e-01 -2.500000000000e-01 1.800000000000e-01
-2.500000000000e-01 -1.250000000000e-01 1.800000000000e-01
-1.250000000000e-01 -1.250000000000e-01 1.800000000000e-01
0.000000000000e+00 -1.250000000000e-01 1.800000000000e-01
1.250000000000e-01 -1.250000000000e-01 1.800000000000e-01
2.500000000000e-01 -1.250000000000e-01 1.800000000000e-01
-2.500000000000e-01 0.000000000000e+00 1.800000000000e-01
-1.250000000000e-01 0.000000000000e+00 1.800000000000e-01
0.000000000000e+00 0.000000000000e+00 1.800000000000e-01
1.250000000000e-01 0.000000000000e+00 1.800000000000e-01
2.500000000000e-01 0.000000000000e+00 1.800000000000e-01
-2.500000000000e-01 1.250000000000e-01 1.800000000000e-01
-1.250000000000e-01 1.250000000000e-01 1.800000000000e-01
0.000000000000e+00 1.250000000000e-01 1.800000000000e-01
1.250000000000e-01 1.250000000000e-01 1.800000000000e-01
2.500000000000e-01 1.250000000000e-01 1.800000000000e-01
-2.500000000000e-01 2.500000000000e-01 1.800000000000e-01
-1.250000000000e-01 2.500000000000e-01 1.800000000000e-01
0.000000000000e+00 2.500000000000e-01 1.800000000000e-01
1.250000000000e-01 2.500000000000e-01 1.800000000000e-01
2.500000000000e-01 2.500000000000e-01 1.800000000000e-01
-2.500000000000e-01 -2.500000000000e-01 2.400000000000e-01
-1.250000000000e-01 -2.500000000000e-01 2.400000000000e-01
0.000000000000e+00 -2.500000000000e-01 2.400000000000e-01
1.250000000000e-01 -2.500000000000e-01 2.400000000000e-01
2.500000000000e-01 -2.500000000000e-01 2.400000000000e-01
-2.500000000000e-01 -1.250000000000e-01 2.400000000000e-01
-1.250000000000e-01 -1.250000000000e-01 2.400000000000e-01
0.000000000000e+00 -1.250000000000e-01 2.400000000000e-01
1.250000000000e-01 -1.250000000000e-01 2.400000000000e-01
2.500000000000e-01 -1.250000000000e-01 2.400000000000e-01
-2.500000000000e-01 0.000000000000e+00 2.400000000000e-01
-1.250000000000e-01 0.000000000000e+00 2.400000000000e-01
0.000000000000e+00 0.000000000000e+00 2.400000000000e-01
1.250000000000e-01 0.000000000000e+00 2.400000000000e-01
2.500000000000e-01 0.000000000000e+00 2.400000000000e-01
-2.500000000000e-01 1.250000000000e-01 2.400000000000e-01
-1.250000000000e-01 1.250000000000e-01 2.400000000000e-01
0.000000000000e+00 1.250000000000e-01 2.400000000000e-01
1.250000000000e-01 1.250000000000e-01 2.400000000000e-01
2.500000000000e-01 1.250000000000e-01 2.400000000000e-01
-2.500000000000e-01 2.500000000000e-01 2.400000000000e-01
-1.250000000000e-01 2.500000000000e-01 2.400000000000e-01
0.000000000000e+00 2.500000000000e-01 2.400000000000e-01
1.250000000000e-01 2.500000000000e-01 2.400000000000e-01
2.500000000000e-01 2.500000000000e-01 2.400000000000e-01
-2.500000088685e-01 -2.500000090195e-01 2.472694470464e-01
-1.250000055612e-01 -2.500000071317e-01 2.472694432939e-01
2.345834615980e-10 -2.500000040234e-01 2.472694403650e-01
1.250000060304e-01 -2.500000071319e-01 2.472694437438e-01
2.500000093377e-01 -2.500000090199e-01 2.472694479462e-01
-2.500000069805e-01 -1.250000057122e-01 2.472694431505e-01
-1.250000048851e-01 -1.250000050363e-01 2.472694413865e-01
2.346704354448e-10 -1.250000030303e-01 2.472694396181e-01
1.250000053544e-01 -1.250000050365e-01 2.472694418364e-01
2.500000074498e-01 -1.250000057126e-01 2.472694440504e-01
-2.500000038720e-01 8.356506899675e-11 2.472694400781e-01
-1.250000028790e-01 8.347882584744e-11 2.472694394747e-01
2.347571930270e-10 8.339250352814e-11 2.472694380129e-01
1.250000033485e-01 8.330594305776e-11 2.472694399246e-01
2.500000043415e-01 8.321930847604e-11 2.472694409780e-01
-2.500000069803e-01 1.250000058794e-01 2.472694433135e-01
-1.250000048849e-01 1.250000052032e-01 2.472694415495e-01
2.348433045189e-10 1.250000031971e-01 2.472694397812e-01
1.250000053546e-01 1.250000052031e-01 2.472694419995e-01
2.500000074500e-01 1.250000058790e-01 2.472694442134e-01
-2.500000088682e-01 2.500000091867e-01 2.472694473725e-01
-1.250000055609e-01 2.500000072986e-01 2.472694436201e-01
2.349292028582e-10 2.500000041902e-01 2.472694406911e-01
1.250000060307e-01 2.500000072985e-01 2.472694440700e-01
2.500000093380e-01 2.500000091863e-01 2.472694482724e-01
-2.500000069049e-01 -2.500000069813e-01 3.122694447944e-01
-1.250000049725e-01 -2.500000057746e-01 3.122694406662e-01
1.175984414363e-10 -2.500000033476e-01 3.122694371244e-01
1.250000052077e-01 -2.500000057747e-01 3.122694411161e-01
2.500000071401e-01 -2.500000069817e-01 3.122694456943e-01
-2.500000056980e-01 -1.250000050489e-01 3.122694405227e-01
-1.250000047731e-01 -1.250000048497e-01 3.122694380349e-01
1.176854682929e-10 -1.250000032828e-01 3.122694355811e-01
1.250000050085e-01 -1.250000048499e-01 3.122694384848e-01
2.500000059333e-01 -1.250000050493e-01 3.122694414226e-01
-2.500000032708e-01 4.116554667488e-11 3.122694368375e-01
-1.250000032060e-01 4.107932264949e-11 3.122694354376e-01
1.177722914413e-10 4.099302337336e-11 3.122694334568e-01
1.250000034415e-01 4.090644292123e-11 3.122694358876e-01
2.500000035063e-01 4.081979080076e-11 3.122694377374e-01
-2.500000056978e-01 1.250000051312e-01 3.122694406858e-01
-1.250000047729e-01 1.250000049319e-01 3.122694381980e-01
1.178583395357e-10 1.250000033647e-01 3.122694357441e-01
1.250000050086e-01 1.250000049317e-01 3.122694386479e-01
2.500000059335e-01 1.250000051309e-01 3.122694415857e-01
-2.500000069046e-01 2.500000070637e-01 3.122694451206e-01
-1.250000049721e-01 2.500000058567e-01 3.122694409923e-01
1.179441886587e-10 2.500000034296e-01 3.122694374505e-01
1.250000052080e-01 2.500000058565e-01 3.122694414423e-01
2.500000071404e-01 2.500000070633e-01 3.122694460205e-01
-2.500000054947e-01 -2.500000054965e-01 3.772694462684e-01
-1.250000056142e-01 -2.500000045778e-01 3.772694408816e-01
6.134391636085e-13 -2.500000025598e-01 3.772694357988e-01
1.250000056154e-01 -2.500000045780e-01 3.772694413315e-01
2.500000054959e-01 -2.500000054969e-01 3.772694471683e-01
-2.500000045758e-01 -1.250000056160e-01 3.772694407381e-01
-1.250000055294e-01 -1.250000055314e-01 3.772694365467e-01
7.004227097525e-13 -1.250000043232e-01 3.772694323206e-01
1.250000055308e-01 -1.250000055316e-01 3.772694369966e-01
2.500000045772e-01 -1.250000056164e-01 3.772694416380e-01
-2.500000025576e-01 -1.233971940876e-12 3.772694355119e-01
-1.250000043210e-01 -1.320209496054e-12 3.772694321772e-01
7.872837157367e-13 -1.406493803573e-12 3.772694283722e-01
1.250000043226e-01 -1.493085949449e-12 3.772694326271e-01
2.500000025592e-01 -1.579722618822e-12 3.772694364118e-01
-2.500000045756e-01 1.250000056136e-01 3.772694409012e-01
-1.250000055292e-01 1.250000055288e-01 3.772694367097e-01
8.732961545512e-13 1.250000043204e-01 3.772694324837e-01
1.250000055309e-01 1.250000055286e-01 3.772694371597e-01
2.500000045774e-01 1.250000056132e-01 3.772694418011e-01
-2.500000054943e-01 2.500000054941e-01 3.772694465946e-01
-1.250000056139e-01 2.500000045752e-01 3.772694412077e-01
9.591882471228e-13 2.500000025570e-01 3.772694361249e-01
1.250000056158e-01 2.500000045750e-01 3.772694416577e-01
2.500000054963e-01 2.500000054937e-01 3.772694474944e-01
-2.500000048323e-01 -2.500000047596e-01 4.422694512713e-01
-1.250000051731e-01 -2.500000040796e-01 4.422694437345e-01
-1.163719166299e-10 -2.500000023776e-01 4.422694368232e-01
1.250000049404e-01 -2.500000040798e-01 4.422694441845e-01
2.500000045996e-01 -2.500000047599e-01 4.422694521712e-01
-2.500000041522e-01 -1.250000051004e-01 4.422694435911e-01
-1.250000051175e-01 -1.250000050449e-01 4.422694370065e-01
-1.162849574856e-10 -1.250000040885e-01 4.422694307480e-01
1.250000048849e-01 -1.250000050451e-01 4.422694374564e-01
2.500000039196e-01 -1.250000051007e-01 4.422694444910e-01
-2.500000024500e-01 -4.363361785092e-11 4.422694365363e-01
-1.250000041609e-01 -4.371986404547e-11 4.422694306046e-01
-1.161980494553e-10 -4.380613021560e-11 4.422694246073e-01
1.250000039285e-01 -4.389273631165e-11 4.422694310545e-01
2.500000022176e-01 -4.397936383152e-11 4.422694374362e-01
-2.500000041520e-01 1.250000050131e-01 4.422694437542e-01
-1.250000051173e-01 1.250000049574e-01 4.422694371695e-01
-1.161120793303e-10 1.250000040009e-01 4.422694309111e-01
1.250000048851e-01 1.250000049573e-01 4.422694376195e-01
2.500000039198e-01 1.250000050128e-01 4.422694446541e-01
-2.500000048320e-01 2.500000046723e-01 4.422694515974e-01
-1.250000051728e-01 2.500000039922e-01 4.422694440607e-01
-1.160261638920e-10 2.500000022900e-01 4.422694371494e-01
1.250000049407e-01 2.500000039920e-01 4.422694445106e-01
2.500000045999e-01 2.500000046720e-01 4.422694524973e-01
-2.500000020180e-01 -2.500000018706e-01 5.072694540852e-01
-1.250000018420e-01 -2.500000016354e-01 5.072694452588e-01
-2.333574488309e-10 -2.500000004385e-01 5.072694374621e-01
1.250000013753e-01 -2.500000016356e-01 5.072694457087e-01
2.500000015512e-01 -2.500000018710e-01 5.072694549851e-01
-2.500000017826e-01 -1.250000016947e-01 5.072694451153e-01
-1.250000019347e-01 -1.250000017875e-01 5.072694371112e-01
-2.332704033898e-10 -1.250000010376e-01 5.072694298817e-01
1.250000014681e-01 -1.250000017877e-01 5.072694375611e-01
2.500000013160e-01 -1.250000016951e-01 5.072694460152e-01
-2.500000005855e-01 -8.603332600939e-11 5.072694371753e-01
-1.250000011846e-01 -8.611954309271e-11 5.072694297383e-01
-2.331833984472e-10 -8.620576955529e-11 5.072694227312e-01
1.250000007182e-01 -8.629240982307e-11 5.072694301883e-01
2.500000001192e-01 -8.637906592526e-11 5.072694380752e-01
-2.500000017824e-01 1.250000015226e-01 5.072694452784e-01
-1.250000019345e-01 1.250000016153e-01 5.072694372742e-01
-2.330975205519e-10 1.250000008652e-01 5.072694300448e-01
1.250000014683e-01 1.250000016151e-01 5.072694377242e-01
2.500000013162e-01 1.250000015223e-01 5.072694461783e-01
-2.500000020176e-01 2.500000016986e-01 5.072694544114e-01
-1.250000018417e-01 2.500000014632e-01 5.072694455849e-01
-2.330116877685e-10 2.500000002661e-01 5.072694377883e-01
1.250000013757e-01 2.500000014630e-01 5.072694460349e-01
2.500000015516e-01 2.500000016982e-01 5.072694553113e-01
CELLS 128 1152
8 0 1 6 5 25 26 31 30
8 1 2 7 6 26 27 32 31
8 2 3 8 7 27 28 33 32
8 3 4 9 8 28 29 34 33
8 5 6 11 10 30 31 36 35
8 6 7 12 11 31 32 37 36
8 7 8 13 12 32 33 38 37
8 8 9 14 13 33 34 39 38
8 10 11 16 15 35 36 41 40
8 11 12 17 16 36 37 42 41
8 12 13 18 17 37 38 43 42
8 13 14 19 18 38 39 44 43
8 15 16 21 20 40 41 46 45
8 16 17 22 21 41 42 47 46
8 17 18 23 22 42 43 48 47
8 18 19 24 23 43 44 49 48
8 25 26 31 30 50 51 56 55
8 26 27 32 31 51 52 57 56
8 27 28 33 32 52 53 58 57
8 28 29 34 33 53 54 59 58
8 30 31 36 35 55 56 61 60
8 31 32 37 36 56 57 62 61
8 32 33 38 37 57 58 63 62
8 33 34 39 38 58 59 64 63
8 35 36 41 40 60 61 66 65
8 36 37 42 41 61 62 67 66
8 37 38 43 42 62 63 68 67
8 38 39 44 43 63 64 69 68
8 40 41 46 45 65 66 71 70
8 41 42 47 46 66 67 72 71
8 42 43 48 47 67 68 73 72
8 43 44 49 48 68 69 74 73
8 50 51 56 55 75 76 81 80
8 51 52 57 56 76 77 82 81
8 52 53 58 57 77 78 83 82
8 53 54 59 58 78 79 84 83
8 55 56 61 60 80 81 86 85
8 56 57 62 61 81 82 87 86
8 57 58 63 62 82 83 88 87
8 58 59 64 63 83 84 89 88
8 60 61 66 65 85 86 91 90
8 61 62 67 66 86 87 92 91
8 62 63 68 67 87 88 93 92
8 63 64 69 68 88 89 94 93
8 65 66 71 70 90 91 96 95
8 66 67 72 71 91 92 97 96
8 67 68 73 72 92 93 98 97
8 68 69 74 73 93 94 99 98
8 75 76 81 80 100 101 106 105
8 76 77 82 81 101 102 107 106
8 77 78 83 82 102 103 108 107
8 78 79 84 83 103 104 109 108
8 80 81 86 85 105 106 111 110
8 81 82 87 86 106 107 112 111
8 82 83 88 87 107 108 113 112
8 83 84 89 88 108 109 114 113
8 85 86 91 90 110 111 116 115
8 86 87 92 91 111 112 117 116
8 87 88 93 92 112 113 118 117
8 88 89 94 93 113 114 119 118
8 90 91 96 95 115 116 121 120
8 91 92 97 96 116 117 122 121
8 92 93 98 97 117 118 123 122
8 93 94 99 98 118 119 124 123
8 125 126 131 130 150 151 156 155
8 126 127 132 131 151 152 157 156
8 127 128 133 132 152 153 158 157
8 128 129 134 133 153 154 159 158
8 130 131 136 135 155 156 161 160
8 131 132 137 136 156 157 162 161
8 132 133 138 137 157 158 163 162
8 133 134 139 138 158 159 164 163
8 135 136 141 140 160 161 166 165
8 136 137 142 141 161 162 167 166
8 137 138 143 142 162 163 168 167
8 138 139 144 143 163 164 169 168
8 140 141 146 145 165 166 171 170
8 141 142 147 146 166 167 172 171
8 142 143 148 147 167 168 173 172
8 143 144 149 148 168 169 174 173
8 150 151 156 155 175 176 181 180
8 151 152 157 156 176 177 182 181
8 152 153 158 157 177 178 183 182
8 153 154 159 158 178 179 184 183
8 155 156 161 160 180 181 186 185
8 156 157 162 161 181 182 187 186
8 157 158 163 162 182 183 188 187
8 158 159 164 163 183 184 189 188
8 160 161 166 165 185 186 191 190
8 161 162 167 166 186 187 192 191
8 162 163 168 167 187 188 193 192
8 163 164 169 168 188 189 194 193
8 165 166 171 170 190 191 196 195
8 166 167 172 171 191 192 197 196
8 167 168 173 172 192 193 198 197
8 168 169 174 173 193 194 199 198
8 175 176 181 180 200 201 206 205
8 176 177 182 181 201 202 207 206
8 177 178 183 182 202 203 208 207
8 178 179 184 183 203 204 209 208
8 180 181 186 185 205 206 211 210
8 181 182 187 186 206 207 212 211
8 182 183 188 187 207 208 213 212
8 183 184 189 188 208 209 214 213
8 185 186 191 190 210 211 216 215
8 186 187 192 191 211 212 217 216
8 187 188 193 192 212 213 218 217
8 188 189 194 193 213 214 219 218
8 190 191 196 195 215 216 221 220
8 191 192 197 196 216 217 222 221
8 192 193 198 197 217 218 223 222
8 193 194 199 198 218 219 224 223
8 200 201 206 205 225 226 231 230
8 201 202 207 206 226 227 232 231
8 202 203 208 207 227 228 233 232
8 203 204 209 208 228 229 234 233
8 205 206 211 210 230 231 236 235
8 206 207 212 211 231 232 237 236
8 207 208 213 212 232 233 238 237
8 208 209 214 213 233 234 239 238
8 210 211 216 215 235 236 241 240
8 211 212 217 216 236 237 242 241
8 212 213 218 217 237 238 243 242
8 213 214 219 218 238 239 244 243
8 215 216 221 220 240 241 246 245
8 216 217 222 221 241 242 247 246
8 217 218 223 222 242 243 248 247
8 218 219 224 223 243 244 249 248
CELL_TYPES 128
12
12
12
12
12
12
12
12
12
12
12
12
12
12
12
12
12
12
12
12
12
12
12
12
12
12
12
12
12
12
12
12
12
12
12
12
12
12
12
12
12
12
12
12
12
12
12
12
12
12
12
12
12
12
12
12
12
12
12
12
12
12
12
12
12
12
12
12
12
12
12
12
12
12
12
12
12
12
12
12
12
12
12
12
12
12
12
12
12
12
12
12
12
12
12
12
12
12
12
12
12
12
12
12
12
12
12
12
12
12
12
12
12
12
12
12
12
12
12
12
12
12
12
12
12
12
12
12
POINT_DATA 250
VECTORS displacement float
0.000000000000e+00 0.000000000000e+00 0.000000000000e+00
0.000000000000e+00 0.000000000000e+00 0.000000000000e+00
0.000000000000e+00 0.000000000000e+00 0.000000000000e+00
0.000000000000e+00 0.000000000000e+00 0.000000000000e+00
0.000000000000e+00 0.000000000000e+00 0.000000000000e+00
0.000000000000e+00 0.000000000000e+00 0.000000000000e+00
0.000000000000e+00 0.000000000000e+00 0.000000000000e+00
0.000000000000e+00 0.000000000000e+00 0.000000000000e+00
0.000000000000e+00 0.000000000000e+00 0.000000000000e+00
0.000000000000e+00 0.000000000000e+00 0.000000000000e+00
0.000000000000e+00 0.000000000000e+00 0.000000000000e+00
0.000000000000e+00 0.000000000000e+00 0.000000000000e+00
0.000000000000e+00 0.000000000000e+00 0.000000000000e+00
0.000000000000e+00 0.000000000000e+00 0.000000000000e+00
0.000000000000e+00 0.000000000000e+00 0.000000000000e+00
0.000000000000e+00 0.000000000000e+00 0.000000000000e+00
0.000000000000e+00 0.000000000000e+00 0.000000000000e+00
0.000000000000e+00 0.000000000000e+00 0.000000000000e+00
0.000000000000e+00 0.000000000000e+00 0.000000000000e+00
0.000000000000e+00 0.000000000000e+00 0.000000000000e+00
0.000000000000e+00 0.000000000000e+00 0.000000000000e+00
0.000000000000e+00 0.000000000000e+00 0.000000000000e+00
0.000000000000e+00 0.000000000000e+00 0.000000000000e+00
0.000000000000e+00 0.000000000000e+00 0.000000000000e+00
0.000000000000e+00 0.000000000000e+00 0.000000000000e+00
0.000000000000e+00 0.000000000000e+00 0.000000000000e+00
0.000000000000e+00 0.000000000000e+00 0.000000000000e+00
0.000000000000e+00 0.000000000000e+00 0.000000000000e+00
0.000000000000e+00 0.000000000000e+00 0.000000000000e+00
0.000000000000e+00 0.000000000000e+00 0.000000000000e+00
0.000000000000e+00 0.000000000000e+00 0.000000000000e+00
0.000000000000e+00 0.000000000000e+00 0.000000000000e+00
0.000000000000e+00 0.000000000000e+00 0.000000000000e+00
0.000000000000e+00 0.000000000000e+00 0.000000000000e+00
0.000000000000e+00 0.000000000000e+00 0.000000000000e+00
0.000000000000e+00 0.000000000000e+00 0.000000000000e+00
0.000000000000e+00 0.000000000000e+00 0.000000000000e+00
0.000000000000e+00 0.000000000000e+00 0.000000000000e+00
0.000000000000e+00 0.000000000000e+00 0.000000000000e+00
0.000000000000e+00 0.000000000000e+00 0.000000000000e+00
0.000000000000e+00 0.000000000000e+00 0.000000000000e+00
0.000000000000e+00 0.000000000000e+00 0.000000000000e+00
0.000000000000e+00 0.000000000000e+00 0.000000000000e+00
0.000000000000e+00 0.000000000000e+00 0.000000000000e+00
0.000000000000e+00 0.000000000000e+00 0.000000000000e+00
0.000000000000e+00 0.000000000000e+00 0.000000000000e+00
0.000000000000e+00 0.000000000000e+00 0.000000000000e+00
0.000000000000e+00 0.000000000000e+00 0.000000000000e+00
0.000000000000e+00 0.000000000000e+00 0.000000000000e+00
0.000000000000e+00 0.000000000000e+00 0.000000000000e+00
0.000000000000e+00 0.000000000000e+00 0.000000000000e+00
0.000000000000e+00 0.000000000000e+00 0.000000000000e+00
0.000000000000e+00 0.000000000000e+00 0.000000000000e+00
0.000000000000e+00 0.000000000000e+00 0.000000000000e+00
0.000000000000e+00 0.000000000000e+00 0.000000000000e+00
0.000000000000e+00 0.000000000000e+00 0.000000000000e+00
0.000000000000e+00 0.000000000000e+00 0.000000000000e+00
0.000000000000e+00 0.000000000000e+00 0.000000000000e+00
0.000000000000e+00 0.000000000000e+00 0.000000000000e+00
0.000000000000e+00 0.000000000000e+00 0.000000000000e+00
0.000000000000e+00 0.000000000000e+00 0.000000000000e+00
0.000000000000e+00 0.000000000000e+00 0.000000000000e+00
0.000000000000e+00 0.000000000000e+00 0.000000000000e+00
0.000000000000e+00 0.000000000000e+00 0.000000000000e+00
0.000000000000e+00 0.000000000000e+00 0.000000000000e+00
0.000000000000e+00 0.000000000000e+00 0.000000000000e+00
0.000000000000e+00 0.000000000000e+00 0.000000000000e+00
0.000000000000e+00 0.000000000000e+00 0.000000000000e+00
0.000000000000e+00 0.000000000000e+00 0.000000000000e+00
0.000000000000e+00 0.000000000000e+00 0.000000000000e+00
0.000000000000e+00 0.000000000000e+00 0.000000000000e+00
0.000000000000e+00 0.000000000000e+00 0.000000000000e+00
0.000000000000e+00 0.000000000000e+00 0.000000000000e+00
0.000000000000e+00 0.000000000000e+00 0.000000000000e+00
0.000000000000e+00 0.000000000000e+00 0.000000000000e+00
0.000000000000e+00 0.000000000000e+00 0.000000000000e+00
0.000000000000e+00 0.000000000000e+00 0.000000000000e+00
0.000000000000e+00 0.000000000000e+00 0.000000000000e+00
0.000000000000e+00 0.000000000000e+00 0.000000000000e+00
0.000000000000e+00 0.000000000000e+00 0.000000000000e+00
0.000000000000e+00 0.000000000000e+00 0.000000000000e+00
0.000000000000e+00 0.000000000000e+00 0.000000000000e+00
0.000000000000e+00 0.000000000000e+00 0.000000000000e+00
0.000000000000e+00 0.000000000000e+00 0.000000000000e+00
0.000000000000e+00 0.000000000000e+00 0.000000000000e+00
0.000000000000e+00 0.000000000000e+00 0.000000000000e+00
0.000000000000e+00 0.000000000000e+00 0.000000000000e+00
0.000000000000e+00 0.000000000000e+00 0.000000000000e+00
0.000000000000e+00 0.000000000000e+00 0.000000000000e+00
0.000000000000e+00 0.000000000000e+00 0.000000000000e+00
0.000000000000e+00 0.000000000000e+00 0.000000000000e+00
0.000000000000e+00 0.000000000000e+00 0.000000000000e+00
0.000000000000e+00 0.000000000000e+00 0.000000000000e+00
0.000000000000e+00 0.000000000000e+00 0.000000000000e+00
0.000000000000e+00 0.000000000000e+00 0.000000000000e+00
0.000000000000e+00 0.000000000000e+00 0.000000000000e+00
0.000000000000e+00 0.000000000000e+00 0.000000000000e+00
0.000000000000e+00 0.000000000000e+00 0.000000000000e+00
0.000000000000e+00 0.000000000000e+00 0.000000000000e+00
0.000000000000e+00 0.000000000000e+00 0.000000000000e+00
0.000000000000e+00 0.000000000000e+00 0.000000000000e+00
0.000000000000e+00 0.000000000000e+00 0.000000000000e+00
0.000000000000e+00 0.000000000000e+00 0.000000000000e+00
0.000000000000e+00 0.000000000000e+00 0.000000000000e+00
0.000000000000e+00 0.000000000000e+00 0.000000000000e+00
0.000000000000e+00 0.000000000000e+00 0.000000000000e+00
0.000000000000e+00 0.000000000000e+00 0.000000000000e+00
0.000000000000e+00 0.000000000000e+00 0.000000000000e+00
0.000000000000e+00 0.000000000000e+00 0.000000000000e+00
0.000000000000e+00 0.000000000000e+00 0.000000000000e+00
0.000000000000e+00 0.000000000000e+00 0.000000000000e+00
0.000000000000e+00 0.000000000000e+00 0.000000000000e+00
0.000000000000e+00 0.000000000000e+00 0.000000000000e+00
0.000000000000e+00 0.000000000000e+00 0.000000000000e+00
0.000000000000e+00 0.000000000000e+00 0.000000000000e+00
0.000000000000e+00 0.000000000000e+00 0.000000000000e+00
0.000000000000e+00 0.000000000000e+00 0.000000000000e+00
0.000000000000e+00 0.000000000000e+00 0.000000000000e+00
0.000000000000e+00 0.000000000000e+00 0.000000000000e+00
0.000000000000e+00 0.000000000000e+00 0.000000000000e+00
0.000000000000e+00 0.000000000000e+00 0.000000000000e+00
0.000000000000e+00 0.000000000000e+00 0.000000000000e+00
0.000000000000e+00 0.000000000000e+00 0.000000000000e+00
0.000000000000e+00 0.000000000000e+00 0.000000000000e+00
0.000000000000e+00 0.000000000000e+00 0.000000000000e+00
-8.868514766578e-09 -9.019532028092e-09 -7.730552953637e-03
-5.561221202345e-09 -7.131688327306e-09 -7.730556706097e-03
2.345834615980e-10 -4.023377502576e-09 -7.730559635039e-03
6.030387454421e-09 -7.131862433141e-09 -7.730556256154e-03
9.337680292696e-09 -9.019879978031e-09 -7.730552053751e-03
-6.980497565095e-09 -5.712238936428e-09 -7.730556849530e-03
-4.885094588552e-09 -5.036285771060e-09 -7.730558613526e-03
2.346704354448e-10 -3.030344637573e-09 -7.730560381861e-03
5.354434799209e-09 -5.036459358325e-09 -7.730558163584e-03
7.449836983905e-09 -5.712586119568e-09 -7.730555949646e-03
-3.872013268141e-09 8.356506899675e-11 -7.730559921906e-03
-2.878980141823e-09 8.347882584744e-11 -7.730560525295e-03
2.347571930270e-10 8.339250352814e-11 -7.730561987062e-03
3.348493893285e-09 8.330594305776e-11 -7.730560075352e-03
4.341526194700e-09 8.321930847604e-11 -7.730559022021e-03
-6.980325132961e-09 5.879368831496e-09 -7.730556686455e-03
-4.884921973189e-09 5.203243185234e-09 -7.730558450451e-03
2.348433045189e-10 3.197129412855e-09 -7.730560218786e-03
5.354607920089e-09 5.203071005183e-09 -7.730558000509e-03
7.450010290709e-09 5.879024487888e-09 -7.730555786570e-03
-8.868169814190e-09 9.186661658234e-09 -7.730552627486e-03
-5.560875975949e-09 7.298645459792e-09 -7.730556379947e-03
2.349292028582e-10 4.190161981167e-09 -7.730559308889e-03
6.030733710147e-09 7.298473793912e-09 -7.730555930004e-03
9.338026822289e-09 9.186318080219e-09 -7.730551727601e-03
-6.904902864321e-09 -6.981334857379e-09 -7.730555205563e-03
-4.972477586650e-09 -5.774558888135e-09 -7.730559333833e-03
1.175984414363e-10 -3.347570871096e-09 -7.730562875638e-03
5.207673932850e-09 -5.774732572982e-09 -7.730558883889e-03
7.140098497854e-09 -6.981682231134e-09 -7.730554305677e-03
-5.697953432142e-09 -5.048909947839e-09 -7.730559477266e-03
-4.773103350667e-09 -4.849709164966e-09 -7.730561965096e-03
1.176854682929e-10 -3.282757138642e-09 -7.730564418933e-03
5.008473730071e-09 -4.849882540543e-09 -7.730561515153e-03
5.933322991283e-09 -5.049256862849e-09 -7.730558577381e-03
-3.270792068524e-09 4.116554667488e-11 -7.730563162505e-03
-3.205978050639e-09 4.107932264949e-11 -7.730564562366e-03
1.177722914413e-10 4.099302337336e-11 -7.730566543229e-03
3.441522058594e-09 4.090644292123e-11 -7.730564112424e-03
3.506335180132e-09 4.081979080076e-11 -7.730562262621e-03
-5.697780851072e-09 5.131240844180e-09 -7.730559314190e-03
-4.772930658669e-09 4.931867606907e-09 -7.730561802021e-03
1.178583395357e-10 3.364742978797e-09 -7.730564255858e-03
5.008646780592e-09 4.931695222473e-09 -7.730561352078e-03
5.933496156664e-09 5.130896247572e-09 -7.730558414306e-03
-6.904557707431e-09 7.063665491830e-09 -7.730554879412e-03
-4.972132262551e-09 5.856717033448e-09 -7.730559007682e-03
1.179441886587e-10 3.429556387517e-09 -7.730562549488e-03
5.208020101740e-09 5.856544960196e-09 -7.730558557739e-03
7.140444835663e-09 7.063321353482e-09 -7.730553979527e-03
-5.494692221974e-09 -5.496538847966e-09 -7.730553731595e-03
-5.614201697395e-09 -4.577824808730e-09 -7.730559118418e-03
6.134391636085e-13 -2.559832137529e-09 -7.730564201208e-03
5.615428063789e-09 -4.577998101237e-09 -7.730558668474e-03
5.495917741715e-09 -5.496885719967e-09 -7.730552831709e-03
-4.575804744177e-09 -5.616048634107e-09 -7.730559261851e-03
-5.529370446619e-09 -5.531390823374e-09 -7.730563453348e-03
7.004227097525e-13 -4.323238663175e-09 -7.730567679401e-03
5.530770820193e-09 -5.531564032291e-09 -7.730563003405e-03
4.577204218209e-09 -5.616395372747e-09 -7.730558361966e-03
-2.557638831769e-09 -1.233971940876e-12 -7.730564488075e-03
-4.321045043760e-09 -1.320209496054e-12 -7.730567822834e-03
7.872837157367e-13 -1.406493803573e-12 -7.730571627776e-03
4.322619118686e-09 -1.493085949449e-12 -7.730567372892e-03
2.559211921917e-09 -1.579722618822e-12 -7.730563588191e-03
-4.575632021933e-09 5.613580504575e-09 -7.730559098775e-03
-5.529197693800e-09 5.528750231410e-09 -7.730563290273e-03
8.732961545512e-13 4.320425499203e-09 -7.730567516326e-03
5.530943817166e-09 5.528577689010e-09 -7.730562840330e-03
4.577377248030e-09 5.613235742508e-09 -7.730558198890e-03
-5.494346883984e-09 5.494070409363e-09 -7.730553405445e-03
-5.613856309733e-09 4.575183887735e-09 -7.730558792267e-03
9.591882471228e-13 2.557018614706e-09 -7.730563875058e-03
5.615774176490e-09 4.575011433236e-09 -7.730558342324e-03
5.496263904603e-09 5.493725779497e-09 -7.730552505559e-03
-4.832304191452e-09 -4.759565272651e-09 -7.730548728728e-03
-5.173105395187e-09 -4.079647060669e-09 -7.730556265468e-03
-1.163719166299e-10 -2.377648713490e-09 -7.730563176796e-03
4.940361157795e-09 -4.079820068661e-09 -7.730555815524e-03
4.599559283980e-09 -4.759911889679e-09 -7.730547828841e-03
-4.152212492948e-09 -5.100366709006e-09 -7.730556408902e-03
-5.117453482953e-09 -5.044888245341e-09 -7.730562993542e-03
-1.162849574856e-10 -4.088494124833e-09 -7.730569251977e-03
4.884883274858e-09 -5.045061264345e-09 -7.730562543599e-03
3.919641668975e-09 -5.100713264290e-09 -7.730555509016e-03
-2.450040964036e-09 -4.363361785092e-11 -7.730563463663e-03
-4.160886150195e-09 -4.371986404547e-11 -7.730569395410e-03
-1.161980494553e-10 -4.380613021560e-11 -7.730575392693e-03
3.928489739246e-09 -4.389273631165e-11 -7.730568945468e-03
2.217643858435e-09 -4.397936383152e-11 -7.730562563779e-03
-4.152039666966e-09 5.013099326313e-09 -7.730556245826e-03
-5.117280660626e-09 4.957448409862e-09 -7.730562830467e-03
-1.161120793303e-10 4.000881753978e-09 -7.730569088901e-03
4.885056209437e-09 4.957275686611e-09 -7.730562380524e-03
3.919814601115e-09 5.012754392138e-09 -7.730555345941e-03
-4.831958760673e-09 4.672297643061e-09 -7.730548402577e-03
-5.172759939013e-09 3.992207002269e-09 -7.730555939318e-03
-1.160261638920e-10 2.290036089855e-09 -7.730562850646e-03
4.940707209795e-09 3.992034268582e-09 -7.730555489374e-03
4.599905362812e-09 4.671952773979e-09 -7.730547502690e-03
-2.017953686942e-09 -1.870629288776e-09 -7.730545914776e-03
-1.842037153643e-09 -1.635404650461e-09 -7.730554741229e-03
-2.333574488309e-10 -4.385417832931e-10 -7.730562537852e-03
1.375322137332e-09 -1.635577294864e-09 -7.730554291284e-03
1.551238388290e-09 -1.870975467366e-09 -7.730545014889e-03
-1.782555517590e-09 -1.694712860329e-09 -7.730554884662e-03
-1.934656882431e-09 -1.787506052002e-09 -7.730562888845e-03
-2.332704033898e-10 -1.037631453155e-09 -7.730570118251e-03
1.468116065126e-09 -1.787678776602e-09 -7.730562438902e-03
1.316014516672e-09 -1.695058998599e-09 -7.730553984776e-03
-5.855195232726e-10 -8.603332600939e-11 -7.730562824720e-03
-1.184609107941e-09 -8.611954309271e-11 -7.730570261685e-03
-2.331833984472e-10 -8.620576955529e-11 -7.730577268766e-03
7.182422667250e-10 -8.629240982307e-11 -7.730569811742e-03
1.191524255823e-10 -8.637906592526e-11 -7.730561924835e-03
-1.782382561231e-09 1.522646161255e-09 -7.730554721586e-03
-1.934483951649e-09 1.615266963247e-09 -7.730562725770e-03
-2.330975205519e-10 8.652198956132e-10 -7.730569955176e-03
1.468288898522e-09 1.615093956934e-09 -7.730562275827e-03
1.316187321344e-09 1.522300822610e-09 -7.730553821701e-03
-2.017608093180e-09 1.698562484142e-09 -7.730545588625e-03
-1.841691543797e-09 1.463165497282e-09 -7.730554415078e-03
-2.330116877685e-10 2.661301261634e-10 -7.730562211702e-03
1.375668047701e-09 1.462992406135e-09 -7.730553965134e-03
1.551584312902e-09 1.698217191415e-09 -7.730544688738e-03
SCALARS displacement_magnitude float 1
LOOKUP_TABLE default
0.000000000000e+00
0.000000000000e+00
0.000000000000e+00
0.000000000000e+00
0.000000000000e+00
0.000000000000e+00
0.000000000000e+00
0.000000000000e+00
0.000000000000e+00
0.000000000000e+00
0.000000000000e+00
0.000000000000e+00
0.000000000000e+00
0.000000000000e+00
0.000000000000e+00
0.000000000000e+00
0.000000000000e+00
0.000000000000e+00
0.000000000000e+00
0.000000000000e+00
0.000000000000e+00
0.000000000000e+00
0.000000000000e+00
0.000000000000e+00
0.000000000000e+00
0.000000000000e+00
0.000000000000e+00
0.000000000000e+00
0.000000000000e+00
0.000000000000e+00
0.000000000000e+00
0.000000000000e+00
0.000000000000e+00
0.000000000000e+00
0.000000000000e+00
0.000000000000e+00
0.000000000000e+00
0.000000000000e+00
0.000000000000e+00
0.000000000000e+00
0.000000000000e+00
0.000000000000e+00
0.000000000000e+00
0.000000000000e+00
0.000000000000e+00
0.000000000000e+00
0.000000000000e+00
0.000000000000e+00
0.000000000000e+00
0.000000000000e+00
0.000000000000e+00
0.000000000000e+00
0.000000000000e+00
0.000000000000e+00
0.000000000000e+00
0.000000000000e+00
0.000000000000e+00
0.000000000000e+00
0.000000000000e+00
0.000000000000e+00
0.000000000000e+00
0.000000000000e+00
0.000000000000e+00
0.000000000000e+00
0.000000000000e+00
0.000000000000e+00
0.000000000000e+00
0.000000000000e+00
0.000000000000e+00
0.000000000000e+00
0.000000000000e+00
0.000000000000e+00
0.000000000000e+00
0.000000000000e+00
0.000000000000e+00
0.000000000000e+00
0.000000000000e+00
0.000000000000e+00
0.000000000000e+00
0.000000000000e+00
0.000000000000e+00
0.000000000000e+00
0.000000000000e+00
0.000000000000e+00
0.000000000000e+00
0.000000000000e+00
0.000000000000e+00
0.000000000000e+00
0.000000000000e+00
0.000000000000e+00
0.000000000000e+00
0.000000000000e+00
0.000000000000e+00
0.000000000000e+00
0.000000000000e+00
0.000000000000e+00
0.000000000000e+00
0.000000000000e+00
0.000000000000e+00
0.000000000000e+00
0.000000000000e+00
0.000000000000e+00
0.000000000000e+00
0.000000000000e+00
0.000000000000e+00
0.000000000000e+00
0.000000000000e+00
0.000000000000e+00
0.000000000000e+00
0.000000000000e+00
0.000000000000e+00
0.000000000000e+00
0.000000000000e+00
0.000000000000e+00
0.000000000000e+00
0.000000000000e+00
0.000000000000e+00
0.000000000000e+00
0.000000000000e+00
0.000000000000e+00
0.000000000000e+00
0.000000000000e+00
0.000000000000e+00
0.000000000000e+00
0.000000000000e+00
7.730552953647e-03
7.730556706102e-03
7.730559635040e-03
7.730556256159e-03
7.730552053762e-03
7.730556849535e-03
7.730558613530e-03
7.730560381862e-03
7.730558163587e-03
7.730555949651e-03
7.730559921907e-03
7.730560525295e-03
7.730561987062e-03
7.730560075353e-03
7.730559022023e-03
7.730556686460e-03
7.730558450455e-03
7.730560218787e-03
7.730558000512e-03
7.730555786576e-03
7.730552627497e-03
7.730556379952e-03
7.730559308890e-03
7.730555930009e-03
7.730551727612e-03
7.730555205569e-03
7.730559333836e-03
7.730562875639e-03
7.730558883893e-03
7.730554305683e-03
7.730559477270e-03
7.730561965099e-03
7.730564418934e-03
7.730561515157e-03
7.730558577385e-03
7.730563162506e-03
7.730564562367e-03
7.730566543229e-03
7.730564112425e-03
7.730562262622e-03
7.730559314194e-03
7.730561802024e-03
7.730564255859e-03
7.730561352081e-03
7.730558414310e-03
7.730554879418e-03
7.730559007686e-03
7.730562549489e-03
7.730558557743e-03
7.730553979533e-03
7.730553731599e-03
7.730559118421e-03
7.730564201209e-03
7.730558668477e-03
7.730552831713e-03
7.730559261854e-03
7.730563453352e-03
7.730567679402e-03
7.730563003409e-03
7.730558361969e-03
7.730564488076e-03
7.730567822836e-03
7.730571627776e-03
7.730567372893e-03
7.730563588192e-03
7.730559098779e-03
7.730563290277e-03
7.730567516327e-03
7.730562840334e-03
7.730558198894e-03
7.730553405449e-03
7.730558792271e-03
7.730563875059e-03
7.730558342327e-03
7.730552505563e-03
7.730548728731e-03
7.730556265471e-03
7.730563176796e-03
7.730555815527e-03
7.730547828844e-03
7.730556408905e-03
7.730562993546e-03
7.730569251978e-03
7.730562543602e-03
7.730555509019e-03
7.730563463664e-03
7.730569395411e-03
7.730575392693e-03
7.730568945469e-03
7.730562563779e-03
7.730556245829e-03
7.730562830470e-03
7.730569088902e-03
7.730562380527e-03
7.730555345943e-03
7.730548402580e-03
7.730555939321e-03
7.730562850646e-03
7.730555489377e-03
7.730547502693e-03
7.730545914776e-03
7.730554741229e-03
7.730562537852e-03
7.730554291285e-03
7.730545014889e-03
7.730554884663e-03
7.730562888846e-03
7.730570118251e-03
7.730562438902e-03
7.730553984777e-03
7.730562824720e-03
7.730570261685e-03
7.730577268766e-03
7.730569811742e-03
7.730561924835e-03
7.730554721587e-03
7.730562725770e-03
7.730569955176e-03
7.730562275827e-03
7.730553821701e-03
7.730545588625e-03
7.730554415078e-03
7.730562211702e-03
7.730553965134e-03
7.730544688738e-03
CELL_DATA 128
SCALARS displacement_magnitude float 1
LOOKUP_TABLE default
0.000000000000e+00
0.000000000000e+00
0.000000000000e+00
0.000000000000e+00
0.000000000000e+00
0.000000000000e+00
0.000000000000e+00
0.000000000000e+00
0.000000000000e+00
0.000000000000e+00
0.000000000000e+00
0.000000000000e+00
0.000000000000e+00
0.000000000000e+00
0.000000000000e+00
0.000000000000e+00
0.000000000000e+00
0.000000000000e+00
0.000000000000e+00
0.000000000000e+00
0.000000000000e+00
0.000000000000e+00
0.000000000000e+00
0.000000000000e+00
0.000000000000e+00
0.000000000000e+00
0.000000000000e+00
0.000000000000e+00
0.000000000000e+00
0.000000000000e+00
0.000000000000e+00
0.000000000000e+00
0.000000000000e+00
0.000000000000e+00
0.000000000000e+00
0.000000000000e+00
0.000000000000e+00
0.000000000000e+00
0.000000000000e+00
0.000000000000e+00
0.000000000000e+00
0.000000000000e+00
0.000000000000e+00
0.000000000000e+00
0.000000000000e+00
0.000000000000e+00
0.000000000000e+00
0.000000000000e+00
0.000000000000e+00
0.000000000000e+00
0.000000000000e+00
0.000000000000e+00
0.000000000000e+00
0.000000000000e+00
0.000000000000e+00
0.000000000000e+00
0.000000000000e+00
0.000000000000e+00
0.000000000000e+00
0.000000000000e+00
0.000000000000e+00
0.000000000000e+00
0.000000000000e+00
0.000000000000e+00
7.730557638074e-03
7.730560491255e-03
7.730560266284e-03
7.730556963160e-03
7.730560634689e-03
7.730562374672e-03
7.730562149701e-03
7.730559959775e-03
7.730560553151e-03
7.730562293135e-03
7.730562068164e-03
7.730559878238e-03
7.730557393461e-03
7.730560246643e-03
7.730560021671e-03
7.730556718547e-03
7.730558943375e-03
7.730562880736e-03
7.730562655765e-03
7.730558268461e-03
7.730563024170e-03
7.730566009124e-03
7.730565784153e-03
7.730562349256e-03
7.730562942632e-03
7.730565927587e-03
7.730565702615e-03
7.730562267719e-03
7.730558698762e-03
7.730562636124e-03
7.730562411152e-03
7.730558023848e-03
7.730557495235e-03
7.730563267522e-03
7.730563042550e-03
7.730556820320e-03
7.730563410955e-03
7.730568452124e-03
7.730568227153e-03
7.730562736041e-03
7.730563329418e-03
7.730568370587e-03
7.730568145615e-03
7.730562654504e-03
7.730557250622e-03
7.730563022909e-03
7.730562797937e-03
7.730556575707e-03
7.730555353271e-03
7.730562746746e-03
7.730562521774e-03
7.730554678356e-03
7.730562890180e-03
7.730569696397e-03
7.730569471425e-03
7.730562215266e-03
7.730562808642e-03
7.730569614859e-03
7.730569389888e-03
7.730562133728e-03
7.730555108657e-03
7.730562502133e-03
7.730562277161e-03
7.730554433742e-03
SCALARS engineering_strain_norm float 1
LOOKUP_TABLE default
0.000000000000e+00
0.000000000000e+00
0.000000000000e+00
0.000000000000e+00
0.000000000000e+00
0.000000000000e+00
0.000000000000e+00
0.000000000000e+00
0.000000000000e+00
0.000000000000e+00
0.000000000000e+00
0.000000000000e+00
0.000000000000e+00
0.000000000000e+00
0.000000000000e+00
0.000000000000e+00
0.000000000000e+00
0.000000000000e+00
0.000000000000e+00
0.000000000000e+00
0.000000000000e+00
0.000000000000e+00
0.000000000000e+00
0.000000000000e+00
0.000000000000e+00
0.000000000000e+00
0.000000000000e+00
0.000000000000e+00
0.000000000000e+00
0.000000000000e+00
0.000000000000e+00
0.000000000000e+00
0.000000000000e+00
0.000000000000e+00
0.000000000000e+00
0.000000000000e+00
0.000000000000e+00
0.000000000000e+00
0.000000000000e+00
0.000000000000e+00
0.000000000000e+00
0.000000000000e+00
0.000000000000e+00
0.000000000000e+00
0.000000000000e+00
0.000000000000e+00
0.000000000000e+00
0.000000000000e+00
0.000000000000e+00
0.000000000000e+00
0.000000000000e+00
0.000000000000e+00
0.000000000000e+00
0.000000000000e+00
0.000000000000e+00
0.000000000000e+00
0.000000000000e+00
0.000000000000e+00
0.000000000000e+00
0.000000000000e+00
0.000000000000e+00
0.000000000000e+00
0.000000000000e+00
0.000000000000e+00
5.203276986062e-08
7.233666994044e-08
7.233666786258e-08
5.203276848916e-08
7.233666823955e-08
8.202942706354e-08
8.202942608829e-08
7.233667177629e-08
7.233666747907e-08
8.202942672543e-08
8.202942570603e-08
7.233667096102e-08
5.203276937047e-08
7.233667128101e-08
7.233666913836e-08
5.203276799583e-08
4.113198330250e-08
6.646951396414e-08
6.646951259948e-08
4.113198273812e-08
6.646951291839e-08
8.632716143550e-08
8.632715956053e-08
6.646951510155e-08
6.646951239715e-08
8.632716074983e-08
8.632715889761e-08
6.646951458348e-08
4.113198311233e-08
6.646951479426e-08
6.646951339093e-08
4.113198243844e-08
7.162108369133e-08
7.259636187828e-08
7.259635866657e-08
7.162108738758e-08
7.259636022137e-08
8.143826105742e-08
8.143825632669e-08
7.259636237162e-08
7.259635901898e-08
8.143825934063e-08
8.143825460442e-08
7.259636118387e-08
7.162108502693e-08
7.259636269623e-08
7.259635943566e-08
7.162108867574e-08
3.353003452645e-08
4.655909007264e-08
4.655908629568e-08
3.353003583283e-08
4.655908850113e-08
5.609477636033e-08
5.609477267690e-08
4.655908966724e-08
4.655908709469e-08
5.609477502677e-08
5.609477135291e-08
4.655908830153e-08
3.353003500523e-08
4.655909051758e-08
4.655908672756e-08
3.353003627134e-08
SCALARS von_mises float 1
LOOKUP_TABLE default
0.000000000000e+00
0.000000000000e+00
0.000000000000e+00
0.000000000000e+00
0.000000000000e+00
0.000000000000e+00
0.000000000000e+00
0.000000000000e+00
0.000000000000e+00
0.000000000000e+00
0.000000000000e+00
0.000000000000e+00
0.000000000000e+00
0.000000000000e+00
0.000000000000e+00
0.000000000000e+00
0.000000000000e+00
0.000000000000e+00
0.000000000000e+00
0.000000000000e+00
0.000000000000e+00
0.000000000000e+00
0.000000000000e+00
0.000000000000e+00
0.000000000000e+00
0.000000000000e+00
0.000000000000e+00
0.000000000000e+00
0.000000000000e+00
0.000000000000e+00
0.000000000000e+00
0.000000000000e+00
0.000000000000e+00
0.000000000000e+00
0.000000000000e+00
0.000000000000e+00
0.000000000000e+00
0.000000000000e+00
0.000000000000e+00
0.000000000000e+00
0.000000000000e+00
0.000000000000e+00
0.000000000000e+00
0.000000000000e+00
0.000000000000e+00
0.000000000000e+00
0.000000000000e+00
0.000000000000e+00
0.000000000000e+00
0.000000000000e+00
0.000000000000e+00
0.000000000000e+00
0.000000000000e+00
0.000000000000e+00
0.000000000000e+00
0.000000000000e+00
0.000000000000e+00
0.000000000000e+00
0.000000000000e+00
0.000000000000e+00
0.000000000000e+00
0.000000000000e+00
0.000000000000e+00
0.000000000000e+00
4.685433800246e-03
6.542370557574e-03
6.542370312277e-03
4.685433678287e-03
6.542370369315e-03
7.495288356429e-03
7.495288256213e-03
6.542370738468e-03
6.542370279909e-03
7.495288321369e-03
7.495288218465e-03
6.542370645054e-03
4.685433756664e-03
6.542370695675e-03
6.542370446244e-03
4.685433635899e-03
2.721513175690e-03
5.390157530872e-03
5.390157281042e-03
2.721513114724e-03
5.390157384630e-03
7.382162450389e-03
7.382162249394e-03
5.390157616063e-03
5.390157291685e-03
7.382162376627e-03
7.382162179218e-03
5.390157524765e-03
2.721513154577e-03
5.390157617424e-03
5.390157366570e-03
2.721513086434e-03
5.276922942183e-03
5.206256498397e-03
5.206256207147e-03
5.276923435963e-03
5.206256312499e-03
6.100284085255e-03
6.100283686645e-03
5.206256614299e-03
5.206256204780e-03
6.100283941622e-03
6.100283541693e-03
5.206256506802e-03
5.276923120732e-03
5.206256610602e-03
5.206256316675e-03
5.276923611386e-03
2.538812875811e-03
3.352656986931e-03
3.352656712255e-03
2.538813121401e-03
3.352656844645e-03
4.042884012143e-03
4.042883726952e-03
3.352657012635e-03
3.352656742477e-03
4.042883910264e-03
4.042883625401e-03
3.352656913577e-03
2.538812964969e-03
3.352657049742e-03
3.352656774987e-03
2.538813207331e-03
SCALARS sdf_gap float 1
LOOKUP_TABLE default
0.000000000000e+00
0.000000000000e+00
0.000000000000e+00
0.000000000000e+00
0.000000000000e+00
0.000000000000e+00
0.000000000000e+00
0.000000000000e+00
0.000000000000e+00
0.000000000000e+00
0.000000000000e+00
0.000000000000e+00
0.000000000000e+00
0.000000000000e+00
0.000000000000e+00
0.000000000000e+00
0.000000000000e+00
0.000000000000e+00
0.000000000000e+00
0.000000000000e+00
0.000000000000e+00
0.000000000000e+00
0.000000000000e+00
0.000000000000e+00
0.000000000000e+00
0.000000000000e+00
0.000000000000e+00
0.000000000000e+00
0.000000000000e+00
0.000000000000e+00
0.000000000000e+00
0.000000000000e+00
0.000000000000e+00
0.000000000000e+00
0.000000000000e+00
0.000000000000e+00
0.000000000000e+00
0.000000000000e+00
0.000000000000e+00
0.000000000000e+00
0.000000000000e+00
0.000000000000e+00
0.000000000000e+00
0.000000000000e+00
0.000000000000e+00
0.000000000000e+00
0.000000000000e+00
0.000000000000e+00
0.000000000000e+00
0.000000000000e+00
0.000000000000e+00
0.000000000000e+00
0.000000000000e+00
0.000000000000e+00
0.000000000000e+00
0.000000000000e+00
0.000000000000e+00
0.000000000000e+00
0.000000000000e+00
0.000000000000e+00
0.000000000000e+00
0.000000000000e+00
0.000000000000e+00
0.000000000000e+00
7.269443719302e-03
7.269441165869e-03
7.269441390841e-03
7.269444394216e-03
7.269441022436e-03
7.269439623064e-03
7.269439848035e-03
7.269441697349e-03
7.269441103973e-03
7.269439704601e-03
7.269439929573e-03
7.269441778887e-03
7.269443963915e-03
7.269441410482e-03
7.269441635453e-03
7.269444638829e-03
0.000000000000e+00
0.000000000000e+00
0.000000000000e+00
0.000000000000e+00
0.000000000000e+00
0.000000000000e+00
0.000000000000e+00
0.000000000000e+00
0.000000000000e+00
0.000000000000e+00
0.000000000000e+00
0.000000000000e+00
0.000000000000e+00
0.000000000000e+00
0.000000000000e+00
0.000000000000e+00
0.000000000000e+00
0.000000000000e+00
0.000000000000e+00
0.000000000000e+00
0.000000000000e+00
0.000000000000e+00
0.000000000000e+00
0.000000000000e+00
0.000000000000e+00
0.000000000000e+00
0.000000000000e+00
0.000000000000e+00
0.000000000000e+00
0.000000000000e+00
0.000000000000e+00
0.000000000000e+00
0.000000000000e+00
0.000000000000e+00
0.000000000000e+00
0.000000000000e+00
0.000000000000e+00
0.000000000000e+00
0.000000000000e+00
0.000000000000e+00
0.000000000000e+00
0.000000000000e+00
0.000000000000e+00
0.000000000000e+00
0.000000000000e+00
0.000000000000e+00
0.000000000000e+00
0.000000000000e+00
SCALARS contact_pressure float 1
LOOKUP_TABLE default
0.000000000000e+00
0.000000000000e+00
0.000000000000e+00
0.000000000000e+00
0.000000000000e+00
0.000000000000e+00
0.000000000000e+00
0.000000000000e+00
0.000000000000e+00
0.000000000000e+00
0.000000000000e+00
0.000000000000e+00
0.000000000000e+00
0.000000000000e+00
0.000000000000e+00
0.000000000000e+00
0.000000000000e+00
0.000000000000e+00
0.000000000000e+00
0.000000000000e+00
0.000000000000e+00
0.000000000000e+00
0.000000000000e+00
0.000000000000e+00
0.000000000000e+00
0.000000000000e+00
0.000000000000e+00
0.000000000000e+00
0.000000000000e+00
0.000000000000e+00
0.000000000000e+00
0.000000000000e+00
0.000000000000e+00
0.000000000000e+00
0.000000000000e+00
0.000000000000e+00
0.000000000000e+00
0.000000000000e+00
0.000000000000e+00
0.000000000000e+00
0.000000000000e+00
0.000000000000e+00
0.000000000000e+00
0.000000000000e+00
0.000000000000e+00
0.000000000000e+00
0.000000000000e+00
0.000000000000e+00
0.000000000000e+00
0.000000000000e+00
0.000000000000e+00
0.000000000000e+00
0.000000000000e+00
0.000000000000e+00
0.000000000000e+00
0.000000000000e+00
0.000000000000e+00
0.000000000000e+00
0.000000000000e+00
0.000000000000e+00
0.000000000000e+00
0.000000000000e+00
0.000000000000e+00
0.000000000000e+00
0.000000000000e+00
0.000000000000e+00
0.000000000000e+00
0.000000000000e+00
0.000000000000e+00
0.000000000000e+00
0.000000000000e+00
0.000000000000e+00
0.000000000000e+00
0.000000000000e+00
0.000000000000e+00
0.000000000000e+00
0.000000000000e+00
0.000000000000e+00
0.000000000000e+00
0.000000000000e+00
0.000000000000e+00
0.000000000000e+00
0.000000000000e+00
0.000000000000e+00
0.000000000000e+00
0.000000000000e+00
0.000000000000e+00
0.000000000000e+00
0.000000000000e+00
0.000000000000e+00
0.000000000000e+00
0.000000000000e+00
0.000000000000e+00
0.000000000000e+00
0.000000000000e+00
0.000000000000e+00
0.000000000000e+00
0.000000000000e+00
0.000000000000e+00
0.000000000000e+00
0.000000000000e+00
0.000000000000e+00
0.000000000000e+00
0.000000000000e+00
0.000000000000e+00
0.000000000000e+00
0.000000000000e+00
0.000000000000e+00
0.000000000000e+00
0.000000000000e+00
0.000000000000e+00
0.000000000000e+00
0.000000000000e+00
0.000000000000e+00
0.000000000000e+00
0.000000000000e+00
0.000000000000e+00
0.000000000000e+00
0.000000000000e+00
0.000000000000e+00
0.000000000000e+00
0.000000000000e+00
0.000000000000e+00
0.000000000000e+00
0.000000000000e+00
0.000000000000e+00
0.000000000000e+00
0.000000000000e+00
SCALARS active_contact float 1
LOOKUP_TABLE default
0.000000000000e+00
0.000000000000e+00
0.000000000000e+00
0.000000000000e+00
0.000000000000e+00
0.000000000000e+00
0.000000000000e+00
0.000000000000e+00
0.000000000000e+00
0.000000000000e+00
0.000000000000e+00
0.000000000000e+00
0.000000000000e+00
0.000000000000e+00
0.000000000000e+00
0.000000000000e+00
0.000000000000e+00
0.000000000000e+00
0.000000000000e+00
0.000000000000e+00
0.000000000000e+00
0.000000000000e+00
0.000000000000e+00
0.000000000000e+00
0.000000000000e+00
0.000000000000e+00
0.000000000000e+00
0.000000000000e+00
0.000000000000e+00
0.000000000000e+00
0.000000000000e+00
0.000000000000e+00
0.000000000000e+00
0.000000000000e+00
0.000000000000e+00
0.000000000000e+00
0.000000000000e+00
0.000000000000e+00
0.000000000000e+00
0.000000000000e+00
0.000000000000e+00
0.000000000000e+00
0.000000000000e+00
0.000000000000e+00
0.000000000000e+00
0.000000000000e+00
0.000000000000e+00
0.000000000000e+00
0.000000000000e+00
0.000000000000e+00
0.000000000000e+00
0.000000000000e+00
0.000000000000e+00
0.000000000000e+00
0.000000000000e+00
0.000000000000e+00
0.000000000000e+00
0.000000000000e+00
0.000000000000e+00
0.000000000000e+00
0.000000000000e+00
0.000000000000e+00
0.000000000000e+00
0.000000000000e+00
0.000000000000e+00
0.000000000000e+00
0.000000000000e+00
0.000000000000e+00
0.000000000000e+00
0.000000000000e+00
0.000000000000e+00
0.000000000000e+00
0.000000000000e+00
0.000000000000e+00
0.000000000000e+00
0.000000000000e+00
0.000000000000e+00
0.000000000000e+00
0.000000000000e+00
0.000000000000e+00
0.000000000000e+00
0.000000000000e+00
0.000000000000e+00
0.000000000000e+00
0.000000000000e+00
0.000000000000e+00
0.000000000000e+00
0.000000000000e+00
0.000000000000e+00
0.000000000000e+00
0.000000000000e+00
0.000000000000e+00
0.000000000000e+00
0.000000000000e+00
0.000000000000e+00
0.000000000000e+00
0.000000000000e+00
0.000000000000e+00
0.000000000000e+00
0.000000000000e+00
0.000000000000e+00
0.000000000000e+00
0.000000000000e+00
0.000000000000e+00
0.000000000000e+00
0.000000000000e+00
0.000000000000e+00
0.000000000000e+00
0.000000000000e+00
0.000000000000e+00
0.000000000000e+00
0.000000000000e+00
0.000000000000e+00
0.000000000000e+00
0.000000000000e+00
0.000000000000e+00
0.000000000000e+00
0.000000000000e+00
0.000000000000e+00
0.000000000000e+00
0.000000000000e+00
0.000000000000e+00
0.000000000000e+00
0.000000000000e+00
0.000000000000e+00
0.000000000000e+00
0.000000000000e+00
0.000000000000e+00
