# vtk DataFile Version 3.0
SFC long-time C3D8 dynamic frame 3 t=6.000000000000e-02
ASCII
DATASET UNSTRUCTURED_GRID
POINTS 250 float
-2.500000000000e-01 -2.500000000000e-01 0.000000000000e+00
-1.250000000000e-01 -2.500000000000e-01 0.000000000000e+00
0.000000000000e+00 -2.500000000000e-01 0.000000000000e+00
1.250000000000e-01 -2.500000000000e-01 0.000000000000e+00
2.500000000000e-01 -2.500000000000e-01 0.000000000000e+00
-2.500000000000e-01 -1.250000000000e-01 0.000000000000e+00
-1.250000000000e-01 -1.250000000000e-01 0.000000000000e+00
0.000000000000e+00 -1.250000000000e-01 0.000000000000e+00
1.250000000000e-01 -1.250000000000e-01 0.000000000000e+00
2.500000000000e-01 -1.250000000000e-01 0.000000000000e+00
-2.500000000000e-01 0.000000000000e+00 0.000000000000e+00
-1.250000000000e-01 0.000000000000e+00 0.000000000000e+00
0.000000000000e+00 0.000000000000e+00 0.000000000000e+00
1.250000000000e-01 0.000000000000e+00 0.000000000000e+00
2.500000000000e-01 0.000000000000e+00 0.000000000000e+00
-2.500000000000e-01 1.250000000000e-01 0.000000000000e+00
-1.250000000000e-01 1.250000000000e-01 0.000000000000e+00
0.000000000000e+00 1.250000000000e-01 0.000000000000e+00
1.250000000000e-01 1.250000000000e-01 0.000000000000e+00
2.500000000000e-01 1.250000000000e-01 0.000000000000e+00
-2.500000000000e-01 2.500000000000e-01 0.000000000000e+00
-1.250000000000e-01 2.500000000000e-01 0.000000000000e+00
0.000000000000e+00 2.500000000000e-01 0.000000000000e+00
1.250000000000e-01 2.500000000000e-01 0.000000000000e+00
2.500000000000e-01 2.500000000000e-01 0.000000000000e+00
-2.500000000000e-01 -2.500000000000e-01 6.000000000000e-02
-1.250000000000e-01 -2.500000000000e-01 6.000000000000e-02
0.000000000000e+00 -2.500000000000e-01 6.000000000000e-02
1.250000000000e-01 -2.500000000000e-01 6.000000000000e-02
2.500000000000e-01 -2.500000000000e-01 6.000000000000e-02
-2.500000000000e-01 -1.250000000000e-01 6.000000000000e-02
-1.250000000000e-01 -1.250000000000e-01 6.000000000000e-02
0.000000000000e+00 -1.250000000000e-01 6.000000000000e-02
1.250000000000e-01 -1.250000000000e-01 6.000000000000e-02
2.500000000000e-01 -1.250000000000e-01 6.000000000000e-02
-2.500000000000e-01 0.000000000000e+00 6.000000000000e-02
-1.250000000000e-01 0.000000000000e+00 6.000000000000e-02
0.000000000000e+00 0.000000000000e+00 6.000000000000e-02
1.250000000000e-01 0.000000000000e+00 6.000000000000e-02
2.500000000000e-01 0.000000000000e+00 6.000000000000e-02
-2.500000000000e-01 1.250000000000e-01 6.000000000000e-02
-1.250000000000e-01 1.250000000000e-01 6.000000000000e-02
0.000000000000e+00 1.250000000000e-01 6.000000000000e-02
1.250000000000e-01 1.250000000000e-01 6.000000000000e-02
2.500000000000e-01 1.250000000000e-01 6.000000000000e-02
-2.500000000000e-01 2.500000000000e-01 6.000000000000e-02
-1.250000000000e-01 2.500000000000e-01 6.000000000000e-02
0.000000000000e+00 2.500000000000e-01 6.000000000000e-02
1.250000000000e-01 2.500000000000e-01 6.000000000000e-02
2.500000000000e-01 2.500000000000e-01 6.000000000000e-02
-2.500000000000e-01 -2.500000000000e-01 1.200000000000e-01
-1.250000000000e-01 -2.500000000000e-01 1.200000000000e-01
0.000000000000e+00 -2.500000000000e-01 1.200000000000e-01
1.250000000000e-01 -2.500000000000e-01 1.200000000000e-01
2.500000000000e-01 -2.500000000000e-01 1.200000000000e-01
-2.500000000000e-01 -1.250000000000e-01 1.200000000000e-01
-1.250000000000e-01 -1.250000000000e-01 1.200000000000e-01
0.000000000000e+00 -1.250000000000e-01 1.200000000000e-01
1.250000000000e-01 -1.250000000000e-01 1.200000000000e-01
2.500000000000e-01 -1.250000000000e-01 1.200000000000e-01
-2.500000000000e-01 0.000000000000e+00 1.200000000000e-01
-1.250000000000e-01 0.000000000000e+00 1.200000000000e-01
0.000000000000e+00 0.000000000000e+00 1.200000000000e-01
1.250000000000e-01 0.000000000000e+00 1.200000000000e-01
2.500000000000e-01 0.000000000000e+00 1.200000000000e-01
-2.500000000000e-01 1.250000000000e-01 1.200000000000e-01
-1.250000000000e-01 1.250000000000e-01 1.200000000000e-01
0.000000000000e+00 1.250000000000e-01 1.200000000000e-01
1.250000000000e-01 1.250000000000e-01 1.200000000000e-01
2.500000000000e-01 1.250000000000e-01 1.200000000000e-01
-2.500000000000e-01 2.500000000000e-01 1.200000000000e-01
-1.250000000000e-01 2.500000000000e-01 1.200000000000e-01
0.000000000000e+00 2.500000000000e-01 1.200000000000e-01
1.250000000000e-01 2.500000000000e-01 1.200000000000e-01
2.500000000000e-01 2.500000000000e-01 1.200000000000e-01
-2.500000000000e-01 -2.500000000000e-01 1.800000000000e-01
-1.250000000000e-01 -2.500000000000e-01 1.800000000000e-01
0.000000000000e+00 -2.500000000000e-01 1.800000000000e-01
1.250000000000e-01 -2.500000000000e-01 1.800000000000e-01
2.500000000000e-01 -2.500000000000e-01 1.800000000000e-01
-2.500000000000e-01 -1.250000000000e-01 1.800000000000e-01
-1.250000000000e-01 -1.250000000000e-01 1.800000000000e-01
0.000000000000e+00 -1.250000000000e-01 1.800000000000e-01
1.250000000000e-01 -1.250000000000e-01 1.800000000000e-01
2.500000000000e-01 -1.250000000000e-01 1.800000000000e-01
-2.500000000000e-01 0.000000000000e+00 1.800000000000e-01
-1.250000000000e-01 0.000000000000e+00 1.800000000000e-01
0.000000000000e+00 0.000000000000e+00 1.800000000000e-01
1.250000000000e-01 0.000000000000e+00 1.800000000000e-01
2.500000000000e-01 0.000000000000e+00 1.800000000000e-01
-2.500000000000e-01 1.250000000000e-01 1.800000000000e-01
-1.250000000000e-01 1.250000000000e-01 1.800000000000e-01
0.000000000000e+00 1.250000000000e-01 1.800000000000e-01
1.250000000000e-01 1.250000000000e-01 1.800000000000e-01
2.500000000000e-01 1.250000000000e-01 1.800000000000e-01
-2.500000000000e-01 2.500000000000e-01 1.800000000000e-01
-1.250000000000e-01 2.500000000000e-01 1.800000000000e-01
0.000000000000e+00 2.500000000000e-01 1.800000000000e-01
1.250000000000e-01 2.500000000000e-01 1.800000000000e-01
2.500000000000e-01 2.500000000000e-01 1.800000000000e-01
-2.500000000000e-01 -2.500000000000e-01 2.400000000000e-01
-1.250000000000e-01 -2.500000000000e-01 2.400000000000e-01
0.000000000000e+00 -2.500000000000e-01 2.400000000000e-01
1.250000000000e-01 -2.500000000000e-01 2.400000000000e-01
2.500000000000e-01 -2.500000000000e-01 2.400000000000e-01
-2.500000000000e-01 -1.250000000000e-01 2.400000000000e-01
-1.250000000000e-01 -1.250000000000e-01 2.400000000000e-01
0.000000000000e+00 -1.250000000000e-01 2.400000000000e-01
1.250000000000e-01 -1.250000000000e-01 2.400000000000e-01
2.500000000000e-01 -1.250000000000e-01 2.400000000000e-01
-2.500000000000e-01 0.000000000000e+00 2.400000000000e-01
-1.250000000000e-01 0.000000000000e+00 2.400000000000e-01
0.000000000000e+00 0.000000000000e+00 2.400000000000e-01
1.250000000000e-01 0.000000000000e+00 2.400000000000e-01
2.500000000000e-01 0.000000000000e+00 2.400000000000e-01
-2.500000000000e-01 1.250000000000e-01 2.400000000000e-01
-1.250000000000e-01 1.250000000000e-01 2.400000000000e-01
0.000000000000e+00 1.250000000000e-01 2.400000000000e-01
1.250000000000e-01 1.250000000000e-01 2.400000000000e-01
2.500000000000e-01 1.250000000000e-01 2.400000000000e-01
-2.500000000000e-01 2.500000000000e-01 2.400000000000e-01
-1.250000000000e-01 2.500000000000e-01 2.400000000000e-01
0.000000000000e+00 2.500000000000e-01 2.400000000000e-01
1.250000000000e-01 2.500000000000e-01 2.400000000000e-01
2.500000000000e-01 2.500000000000e-01 2.400000000000e-01
-2.500000000000e-01 -2.500000000000e-01 2.507767618332e-01
-1.250000000000e-01 -2.500000000000e-01 2.507767618332e-01
2.221537335749e-16 -2.500000000000e-01 2.507767618332e-01
1.250000000000e-01 -2.500000000000e-01 2.507767618332e-01
2.500000000000e-01 -2.500000000000e-01 2.507767618332e-01
-2.500000000000e-01 -1.250000000000e-01 2.507767618332e-01
-1.250000000000e-01 -1.250000000000e-01 2.507767618332e-01
2.394863998742e-16 -1.250000000000e-01 2.507767618332e-01
1.250000000000e-01 -1.250000000000e-01 2.507767618332e-01
2.500000000000e-01 -1.250000000000e-01 2.507767618332e-01
-2.500000000000e-01 -2.205932646973e-17 2.507767618332e-01
-1.250000000000e-01 -4.166914585798e-17 2.507767618332e-01
2.573189428648e-16 -6.290244710133e-17 2.507767618332e-01
1.250000000000e-01 -8.546960086082e-17 2.507767618332e-01
2.500000000000e-01 -1.067984782357e-16 2.507767618332e-01
-2.500000000000e-01 1.250000000000e-01 2.507767618332e-01
-1.250000000000e-01 1.250000000000e-01 2.507767618332e-01
2.740391655004e-16 1.250000000000e-01 2.507767618332e-01
1.250000000000e-01 1.250000000000e-01 2.507767618332e-01
2.500000000000e-01 1.250000000000e-01 2.507767618332e-01
-2.500000000000e-01 2.500000000000e-01 2.507767618332e-01
-1.250000000000e-01 2.500000000000e-01 2.507767618332e-01
2.947423794303e-16 2.500000000000e-01 2.507767618332e-01
1.250000000000e-01 2.500000000000e-01 2.507767618332e-01
2.500000000000e-01 2.500000000000e-01 2.507767618332e-01
-2.500000000000e-01 -2.500000000000e-01 3.157767618332e-01
-1.250000000000e-01 -2.500000000000e-01 3.157767618332e-01
1.102370440556e-16 -2.500000000000e-01 3.157767618332e-01
1.250000000000e-01 -2.500000000000e-01 3.157767618332e-01
2.500000000000e-01 -2.500000000000e-01 3.157767618332e-01
-2.500000000000e-01 -1.250000000000e-01 3.157767618332e-01
-1.250000000000e-01 -1.250000000000e-01 3.157767618332e-01
1.292423081214e-16 -1.250000000000e-01 3.157767618332e-01
1.250000000000e-01 -1.250000000000e-01 3.157767618332e-01
2.500000000000e-01 -1.250000000000e-01 3.157767618332e-01
-2.500000000000e-01 -8.769640659791e-18 3.157767618332e-01
-1.250000000000e-01 -2.936399755214e-17 3.157767618332e-01
1.478784430569e-16 -4.967349145627e-17 3.157767618332e-01
1.250000000000e-01 -6.999333323460e-17 3.157767618332e-01
2.500000000000e-01 -8.848179478893e-17 3.157767618332e-01
-2.500000000000e-01 1.250000000000e-01 3.157767618332e-01
-1.250000000000e-01 1.250000000000e-01 3.157767618332e-01
1.667311463442e-16 1.250000000000e-01 3.157767618332e-01
1.250000000000e-01 1.250000000000e-01 3.157767618332e-01
2.500000000000e-01 1.250000000000e-01 3.157767618332e-01
-2.500000000000e-01 2.500000000000e-01 3.157767618332e-01
-1.250000000000e-01 2.500000000000e-01 3.157767618332e-01
1.869517930872e-16 2.500000000000e-01 3.157767618332e-01
1.250000000000e-01 2.500000000000e-01 3.157767618332e-01
2.500000000000e-01 2.500000000000e-01 3.157767618332e-01
-2.500000000000e-01 -2.500000000000e-01 3.807767618332e-01
-1.250000000000e-01 -2.500000000000e-01 3.807767618332e-01
-5.741015253178e-19 -2.500000000000e-01 3.807767618332e-01
1.250000000000e-01 -2.500000000000e-01 3.807767618332e-01
2.500000000000e-01 -2.500000000000e-01 3.807767618332e-01
-2.500000000000e-01 -1.250000000000e-01 3.807767618332e-01
-1.250000000000e-01 -1.250000000000e-01 3.807767618332e-01
1.862119339305e-17 -1.250000000000e-01 3.807767618332e-01
1.250000000000e-01 -1.250000000000e-01 3.807767618332e-01
2.500000000000e-01 -1.250000000000e-01 3.807767618332e-01
-2.500000000000e-01 3.762835739224e-18 3.807767618332e-01
-1.250000000000e-01 -1.519633234044e-17 3.807767618332e-01
3.858152187680e-17 -3.492391972928e-17 3.807767618332e-01
1.250000000000e-01 -5.371693543153e-17 3.807767618332e-01
2.500000000000e-01 -7.347988098354e-17 3.807767618332e-01
-2.500000000000e-01 1.250000000000e-01 3.807767618332e-01
-1.250000000000e-01 1.250000000000e-01 3.807767618332e-01
5.777520216122e-17 1.250000000000e-01 3.807767618332e-01
1.250000000000e-01 1.250000000000e-01 3.807767618332e-01
2.500000000000e-01 1.250000000000e-01 3.807767618332e-01
-2.500000000000e-01 2.500000000000e-01 3.807767618332e-01
-1.250000000000e-01 2.500000000000e-01 3.807767618332e-01
7.720326616278e-17 2.500000000000e-01 3.807767618332e-01
1.250000000000e-01 2.500000000000e-01 3.807767618332e-01
2.500000000000e-01 2.500000000000e-01 3.807767618332e-01
-2.500000000000e-01 -2.500000000000e-01 4.457767618332e-01
-1.250000000000e-01 -2.500000000000e-01 4.457767618332e-01
-1.115069594703e-16 -2.500000000000e-01 4.457767618332e-01
1.250000000000e-01 -2.500000000000e-01 4.457767618332e-01
2.500000000000e-01 -2.500000000000e-01 4.457767618332e-01
-2.500000000000e-01 -1.250000000000e-01 4.457767618332e-01
-1.250000000000e-01 -1.250000000000e-01 4.457767618332e-01
-9.226752774992e-17 -1.250000000000e-01 4.457767618332e-01
1.250000000000e-01 -1.250000000000e-01 4.457767618332e-01
2.500000000000e-01 -1.250000000000e-01 4.457767618332e-01
-2.500000000000e-01 1.769498270964e-17 4.457767618332e-01
-1.250000000000e-01 -1.532156562825e-18 4.457767618332e-01
-7.126792901066e-17 -2.011684192086e-17 4.457767618332e-01
1.250000000000e-01 -3.800278507801e-17 4.457767618332e-01
2.500000000000e-01 -5.809995017045e-17 4.457767618332e-01
-2.500000000000e-01 1.250000000000e-01 4.457767618332e-01
-1.250000000000e-01 1.250000000000e-01 4.457767618332e-01
-5.092404451345e-17 1.250000000000e-01 4.457767618332e-01
1.250000000000e-01 1.250000000000e-01 4.457767618332e-01
2.500000000000e-01 1.250000000000e-01 4.457767618332e-01
-2.500000000000e-01 2.500000000000e-01 4.457767618332e-01
-1.250000000000e-01 2.500000000000e-01 4.457767618332e-01
-3.191338506292e-17 2.500000000000e-01 4.457767618332e-01
1.250000000000e-01 2.500000000000e-01 4.457767618332e-01
2.500000000000e-01 2.500000000000e-01 4.457767618332e-01
-2.500000000000e-01 -2.500000000000e-01 5.107767618332e-01
-1.250000000000e-01 -2.500000000000e-01 5.107767618332e-01
-2.241030510687e-16 -2.500000000000e-01 5.107767618332e-01
1.250000000000e-01 -2.500000000000e-01 5.107767618332e-01
2.500000000000e-01 -2.500000000000e-01 5.107767618332e-01
-2.500000000000e-01 -1.250000000000e-01 5.107767618332e-01
-1.250000000000e-01 -1.250000000000e-01 5.107767618332e-01
-2.042778576429e-16 -1.250000000000e-01 5.107767618332e-01
1.250000000000e-01 -1.250000000000e-01 5.107767618332e-01
2.500000000000e-01 -1.250000000000e-01 5.107767618332e-01
-2.500000000000e-01 3.202077232790e-17 5.107767618332e-01
-1.250000000000e-01 1.141649883134e-17 5.107767618332e-01
-1.822002662694e-16 -4.238351584249e-18 5.107767618332e-01
1.250000000000e-01 -2.123368924718e-17 5.107767618332e-01
2.500000000000e-01 -4.019553950441e-17 5.107767618332e-01
-2.500000000000e-01 1.250000000000e-01 5.107767618332e-01
-1.250000000000e-01 1.250000000000e-01 5.107767618332e-01
-1.587302866523e-16 1.250000000000e-01 5.107767618332e-01
1.250000000000e-01 1.250000000000e-01 5.107767618332e-01
2.500000000000e-01 1.250000000000e-01 5.107767618332e-01
-2.500000000000e-01 2.500000000000e-01 5.107767618332e-01
-1.250000000000e-01 2.500000000000e-01 5.107767618332e-01
-1.395370227928e-16 2.500000000000e-01 5.107767618332e-01
1.250000000000e-01 2.500000000000e-01 5.107767618332e-01
2.500000000000e-01 2.500000000000e-01 5.107767618332e-01
CELLS 128 1152
8 0 1 6 5 25 26 31 30
8 1 2 7 6 26 27 32 31
8 2 3 8 7 27 28 33 32
8 3 4 9 8 28 29 34 33
8 5 6 11 10 30 31 36 35
8 6 7 12 11 31 32 37 36
8 7 8 13 12 32 33 38 37
8 8 9 14 13 33 34 39 38
8 10 11 16 15 35 36 41 40
8 11 12 17 16 36 37 42 41
8 12 13 18 17 37 38 43 42
8 13 14 19 18 38 39 44 43
8 15 16 21 20 40 41 46 45
8 16 17 22 21 41 42 47 46
8 17 18 23 22 42 43 48 47
8 18 19 24 23 43 44 49 48
8 25 26 31 30 50 51 56 55
8 26 27 32 31 51 52 57 56
8 27 28 33 32 52 53 58 57
8 28 29 34 33 53 54 59 58
8 30 31 36 35 55 56 61 60
8 31 32 37 36 56 57 62 61
8 32 33 38 37 57 58 63 62
8 33 34 39 38 58 59 64 63
8 35 36 41 40 60 61 66 65
8 36 37 42 41 61 62 67 66
8 37 38 43 42 62 63 68 67
8 38 39 44 43 63 64 69 68
8 40 41 46 45 65 66 71 70
8 41 42 47 46 66 67 72 71
8 42 43 48 47 67 68 73 72
8 43 44 49 48 68 69 74 73
8 50 51 56 55 75 76 81 80
8 51 52 57 56 76 77 82 81
8 52 53 58 57 77 78 83 82
8 53 54 59 58 78 79 84 83
8 55 56 61 60 80 81 86 85
8 56 57 62 61 81 82 87 86
8 57 58 63 62 82 83 88 87
8 58 59 64 63 83 84 89 88
8 60 61 66 65 85 86 91 90
8 61 62 67 66 86 87 92 91
8 62 63 68 67 87 88 93 92
8 63 64 69 68 88 89 94 93
8 65 66 71 70 90 91 96 95
8 66 67 72 71 91 92 97 96
8 67 68 73 72 92 93 98 97
8 68 69 74 73 93 94 99 98
8 75 76 81 80 100 101 106 105
8 76 77 82 81 101 102 107 106
8 77 78 83 82 102 103 108 107
8 78 79 84 83 103 104 109 108
8 80 81 86 85 105 106 111 110
8 81 82 87 86 106 107 112 111
8 82 83 88 87 107 108 113 112
8 83 84 89 88 108 109 114 113
8 85 86 91 90 110 111 116 115
8 86 87 92 91 111 112 117 116
8 87 88 93 92 112 113 118 117
8 88 89 94 93 113 114 119 118
8 90 91 96 95 115 116 121 120
8 91 92 97 96 116 117 122 121
8 92 93 98 97 117 118 123 122
8 93 94 99 98 118 119 124 123
8 125 126 131 130 150 151 156 155
8 126 127 132 131 151 152 157 156
8 127 128 133 132 152 153 158 157
8 128 129 134 133 153 154 159 158
8 130 131 136 135 155 156 161 160
8 131 132 137 136 156 157 162 161
8 132 133 138 137 157 158 163 162
8 133 134 139 138 158 159 164 163
8 135 136 141 140 160 161 166 165
8 136 137 142 141 161 162 167 166
8 137 138 143 142 162 163 168 167
8 138 139 144 143 163 164 169 168
8 140 141 146 145 165 166 171 170
8 141 142 147 146 166 167 172 171
8 142 143 148 147 167 168 173 172
8 143 144 149 148 168 169 174 173
8 150 151 156 155 175 176 181 180
8 151 152 157 156 176 177 182 181
8 152 153 158 157 177 178 183 182
8 153 154 159 158 178 179 184 183
8 155 156 161 160 180 181 186 185
8 156 157 162 161 181 182 187 186
8 157 158 163 162 182 183 188 187
8 158 159 164 163 183 184 189 188
8 160 161 166 165 185 186 191 190
8 161 162 167 166 186 187 192 191
8 162 163 168 167 187 188 193 192
8 163 164 169 168 188 189 194 193
8 165 166 171 170 190 191 196 195
8 166 167 172 171 191 192 197 196
8 167 168 173 172 192 193 198 197
8 168 169 174 173 193 194 199 198
8 175 176 181 180 200 201 206 205
8 176 177 182 181 201 202 207 206
8 177 178 183 182 202 203 208 207
8 178 179 184 183 203 204 209 208
8 180 181 186 185 205 206 211 210
8 181 182 187 186 206 207 212 211
8 182 183 188 187 207 208 213 212
8 183 184 189 188 208 209 214 213
8 185 186 191 190 210 211 216 215
8 186 187 192 191 211 212 217 216
8 187 188 193 192 212 213 218 217
8 188 189 194 193 213 214 219 218
8 190 191 196 195 215 216 221 220
8 191 192 197 196 216 217 222 221
8 192 193 198 197 217 218 223 222
8 193 194 199 198 218 219 224 223
8 200 201 206 205 225 226 231 230
8 201 202 207 206 226 227 232 231
8 202 203 208 207 227 228 233 232
8 203 204 209 208 228 229 234 233
8 205 206 211 210 230 231 236 235
8 206 207 212 211 231 232 237 236
8 207 208 213 212 232 233 238 237
8 208 209 214 213 233 234 239 238
8 210 211 216 215 235 236 241 240
8 211 212 217 216 236 237 242 241
8 212 213 218 217 237 238 243 242
8 213 214 219 218 238 239 244 243
8 215 216 221 220 240 241 246 245
8 216 217 222 221 241 242 247 246
8 217 218 223 222 242 243 248 247
8 218 219 224 223 243 244 249 248
CELL_TYPES 128
12
12
12
12
12
12
12
12
12
12
12
12
12
12
12
12
12
12
12
12
12
12
12
12
12
12
12
12
12
12
12
12
12
12
12
12
12
12
12
12
12
12
12
12
12
12
12
12
12
12
12
12
12
12
12
12
12
12
12
12
12
12
12
12
12
12
12
12
12
12
12
12
12
12
12
12
12
12
12
12
12
12
12
12
12
12
12
12
12
12
12
12
12
12
12
12
12
12
12
12
12
12
12
12
12
12
12
12
12
12
12
12
12
12
12
12
12
12
12
12
12
12
12
12
12
12
12
12
POINT_DATA 250
VECTORS displacement float
0.000000000000e+00 0.000000000000e+00 0.000000000000e+00
0.000000000000e+00 0.000000000000e+00 0.000000000000e+00
0.000000000000e+00 0.000000000000e+00 0.000000000000e+00
0.000000000000e+00 0.000000000000e+00 0.000000000000e+00
0.000000000000e+00 0.000000000000e+00 0.000000000000e+00
0.000000000000e+00 0.000000000000e+00 0.000000000000e+00
0.000000000000e+00 0.000000000000e+00 0.000000000000e+00
0.000000000000e+00 0.000000000000e+00 0.000000000000e+00
0.000000000000e+00 0.000000000000e+00 0.000000000000e+00
0.000000000000e+00 0.000000000000e+00 0.000000000000e+00
0.000000000000e+00 0.000000000000e+00 0.000000000000e+00
0.000000000000e+00 0.000000000000e+00 0.000000000000e+00
0.000000000000e+00 0.000000000000e+00 0.000000000000e+00
0.000000000000e+00 0.000000000000e+00 0.000000000000e+00
0.000000000000e+00 0.000000000000e+00 0.000000000000e+00
0.000000000000e+00 0.000000000000e+00 0.000000000000e+00
0.000000000000e+00 0.000000000000e+00 0.000000000000e+00
0.000000000000e+00 0.000000000000e+00 0.000000000000e+00
0.000000000000e+00 0.000000000000e+00 0.000000000000e+00
0.000000000000e+00 0.000000000000e+00 0.000000000000e+00
0.000000000000e+00 0.000000000000e+00 0.000000000000e+00
0.000000000000e+00 0.000000000000e+00 0.000000000000e+00
0.000000000000e+00 0.000000000000e+00 0.000000000000e+00
0.000000000000e+00 0.000000000000e+00 0.000000000000e+00
0.000000000000e+00 0.000000000000e+00 0.000000000000e+00
0.000000000000e+00 0.000000000000e+00 0.000000000000e+00
0.000000000000e+00 0.000000000000e+00 0.000000000000e+00
0.000000000000e+00 0.000000000000e+00 0.000000000000e+00
0.000000000000e+00 0.000000000000e+00 0.000000000000e+00
0.000000000000e+00 0.000000000000e+00 0.000000000000e+00
0.000000000000e+00 0.000000000000e+00 0.000000000000e+00
0.000000000000e+00 0.000000000000e+00 0.000000000000e+00
0.000000000000e+00 0.000000000000e+00 0.000000000000e+00
0.000000000000e+00 0.000000000000e+00 0.000000000000e+00
0.000000000000e+00 0.000000000000e+00 0.000000000000e+00
0.000000000000e+00 0.000000000000e+00 0.000000000000e+00
0.000000000000e+00 0.000000000000e+00 0.000000000000e+00
0.000000000000e+00 0.000000000000e+00 0.000000000000e+00
0.000000000000e+00 0.000000000000e+00 0.000000000000e+00
0.000000000000e+00 0.000000000000e+00 0.000000000000e+00
0.000000000000e+00 0.000000000000e+00 0.000000000000e+00
0.000000000000e+00 0.000000000000e+00 0.000000000000e+00
0.000000000000e+00 0.000000000000e+00 0.000000000000e+00
0.000000000000e+00 0.000000000000e+00 0.000000000000e+00
0.000000000000e+00 0.000000000000e+00 0.000000000000e+00
0.000000000000e+00 0.000000000000e+00 0.000000000000e+00
0.000000000000e+00 0.000000000000e+00 0.000000000000e+00
0.000000000000e+00 0.000000000000e+00 0.000000000000e+00
0.000000000000e+00 0.000000000000e+00 0.000000000000e+00
0.000000000000e+00 0.000000000000e+00 0.000000000000e+00
0.000000000000e+00 0.000000000000e+00 0.000000000000e+00
0.000000000000e+00 0.000000000000e+00 0.000000000000e+00
0.000000000000e+00 0.000000000000e+00 0.000000000000e+00
0.000000000000e+00 0.000000000000e+00 0.000000000000e+00
0.000000000000e+00 0.000000000000e+00 0.000000000000e+00
0.000000000000e+00 0.000000000000e+00 0.000000000000e+00
0.000000000000e+00 0.000000000000e+00 0.000000000000e+00
0.000000000000e+00 0.000000000000e+00 0.000000000000e+00
0.000000000000e+00 0.000000000000e+00 0.000000000000e+00
0.000000000000e+00 0.000000000000e+00 0.000000000000e+00
0.000000000000e+00 0.000000000000e+00 0.000000000000e+00
0.000000000000e+00 0.000000000000e+00 0.000000000000e+00
0.000000000000e+00 0.000000000000e+00 0.000000000000e+00
0.000000000000e+00 0.000000000000e+00 0.000000000000e+00
0.000000000000e+00 0.000000000000e+00 0.000000000000e+00
0.000000000000e+00 0.000000000000e+00 0.000000000000e+00
0.000000000000e+00 0.000000000000e+00 0.000000000000e+00
0.000000000000e+00 0.000000000000e+00 0.000000000000e+00
0.000000000000e+00 0.000000000000e+00 0.000000000000e+00
0.000000000000e+00 0.000000000000e+00 0.000000000000e+00
0.000000000000e+00 0.000000000000e+00 0.000000000000e+00
0.000000000000e+00 0.000000000000e+00 0.000000000000e+00
0.000000000000e+00 0.000000000000e+00 0.000000000000e+00
0.000000000000e+00 0.000000000000e+00 0.000000000000e+00
0.000000000000e+00 0.000000000000e+00 0.000000000000e+00
0.000000000000e+00 0.000000000000e+00 0.000000000000e+00
0.000000000000e+00 0.000000000000e+00 0.000000000000e+00
0.000000000000e+00 0.000000000000e+00 0.000000000000e+00
0.000000000000e+00 0.000000000000e+00 0.000000000000e+00
0.000000000000e+00 0.000000000000e+00 0.000000000000e+00
0.000000000000e+00 0.000000000000e+00 0.000000000000e+00
0.000000000000e+00 0.000000000000e+00 0.000000000000e+00
0.000000000000e+00 0.000000000000e+00 0.000000000000e+00
0.000000000000e+00 0.000000000000e+00 0.000000000000e+00
0.000000000000e+00 0.000000000000e+00 0.000000000000e+00
0.000000000000e+00 0.000000000000e+00 0.000000000000e+00
0.000000000000e+00 0.000000000000e+00 0.000000000000e+00
0.000000000000e+00 0.000000000000e+00 0.000000000000e+00
0.000000000000e+00 0.000000000000e+00 0.000000000000e+00
0.000000000000e+00 0.000000000000e+00 0.000000000000e+00
0.000000000000e+00 0.000000000000e+00 0.000000000000e+00
0.000000000000e+00 0.000000000000e+00 0.000000000000e+00
0.000000000000e+00 0.000000000000e+00 0.000000000000e+00
0.000000000000e+00 0.000000000000e+00 0.000000000000e+00
0.000000000000e+00 0.000000000000e+00 0.000000000000e+00
0.000000000000e+00 0.000000000000e+00 0.000000000000e+00
0.000000000000e+00 0.000000000000e+00 0.000000000000e+00
0.000000000000e+00 0.000000000000e+00 0.000000000000e+00
0.000000000000e+00 0.000000000000e+00 0.000000000000e+00
0.000000000000e+00 0.000000000000e+00 0.000000000000e+00
0.000000000000e+00 0.000000000000e+00 0.000000000000e+00
0.000000000000e+00 0.000000000000e+00 0.000000000000e+00
0.000000000000e+00 0.000000000000e+00 0.000000000000e+00
0.000000000000e+00 0.000000000000e+00 0.000000000000e+00
0.000000000000e+00 0.000000000000e+00 0.000000000000e+00
0.000000000000e+00 0.000000000000e+00 0.000000000000e+00
0.000000000000e+00 0.000000000000e+00 0.000000000000e+00
0.000000000000e+00 0.000000000000e+00 0.000000000000e+00
0.000000000000e+00 0.000000000000e+00 0.000000000000e+00
0.000000000000e+00 0.000000000000e+00 0.000000000000e+00
0.000000000000e+00 0.000000000000e+00 0.000000000000e+00
0.000000000000e+00 0.000000000000e+00 0.000000000000e+00
0.000000000000e+00 0.000000000000e+00 0.000000000000e+00
0.000000000000e+00 0.000000000000e+00 0.000000000000e+00
0.000000000000e+00 0.000000000000e+00 0.000000000000e+00
0.000000000000e+00 0.000000000000e+00 0.000000000000e+00
0.000000000000e+00 0.000000000000e+00 0.000000000000e+00
0.000000000000e+00 0.000000000000e+00 0.000000000000e+00
0.000000000000e+00 0.000000000000e+00 0.000000000000e+00
0.000000000000e+00 0.000000000000e+00 0.000000000000e+00
0.000000000000e+00 0.000000000000e+00 0.000000000000e+00
0.000000000000e+00 0.000000000000e+00 0.000000000000e+00
0.000000000000e+00 0.000000000000e+00 0.000000000000e+00
0.000000000000e+00 0.000000000000e+00 0.000000000000e+00
0.000000000000e+00 0.000000000000e+00 0.000000000000e+00
2.184177813758e-16 -2.749703861214e-17 -4.223238166793e-03
2.205146925104e-16 -4.435469589609e-17 -4.223238166793e-03
2.221537335749e-16 -6.188632668556e-17 -4.223238166793e-03
2.228210482570e-16 -8.368242679960e-17 -4.223238166792e-03
2.227068891917e-16 -1.055720594420e-16 -4.223238166792e-03
2.390712190859e-16 -2.477144596977e-17 -4.223238166793e-03
2.394234597872e-16 -4.335744865526e-17 -4.223238166793e-03
2.394863998742e-16 -6.322578391323e-17 -4.223238166793e-03
2.409321370618e-16 -8.499243508471e-17 -4.223238166793e-03
2.428138023781e-16 -1.064241492392e-16 -4.223238166792e-03
2.569905895772e-16 -2.205932646973e-17 -4.223238166793e-03
2.582573817647e-16 -4.166914585798e-17 -4.223238166793e-03
2.573189428648e-16 -6.290244710133e-17 -4.223238166793e-03
2.571698780717e-16 -8.546960086082e-17 -4.223238166793e-03
2.587542795528e-16 -1.067984782357e-16 -4.223238166792e-03
2.814844141751e-16 -2.191115534968e-17 -4.223238166793e-03
2.782393688136e-16 -4.126561332518e-17 -4.223238166793e-03
2.740391655004e-16 -6.171193697964e-17 -4.223238166793e-03
2.737652816483e-16 -8.339935045014e-17 -4.223238166793e-03
2.740810362646e-16 -1.041593149522e-16 -4.223238166792e-03
3.004237504765e-16 -2.151195270053e-17 -4.223238166793e-03
2.980594587239e-16 -4.272188529620e-17 -4.223238166793e-03
2.947423794303e-16 -5.939655980478e-17 -4.223238166793e-03
2.935847932525e-16 -8.230583475429e-17 -4.223238166793e-03
2.951153878064e-16 -1.028221767636e-16 -4.223238166792e-03
1.092184794650e-16 -1.038456384078e-17 -4.223238166793e-03
1.105549544607e-16 -2.983535278164e-17 -4.223238166793e-03
1.102370440556e-16 -4.774049131426e-17 -4.223238166793e-03
1.100765059555e-16 -6.853793898614e-17 -4.223238166792e-03
1.098014359650e-16 -8.887554161275e-17 -4.223238166792e-03
1.285995302770e-16 -1.057316572084e-17 -4.223238166793e-03
1.292139844388e-16 -2.945159922942e-17 -4.223238166793e-03
1.292423081214e-16 -4.926076880739e-17 -4.223238166793e-03
1.285529533227e-16 -6.909504473758e-17 -4.223238166793e-03
1.289384678944e-16 -8.917643574142e-17 -4.223238166792e-03
1.477925934016e-16 -8.769640659791e-18 -4.223238166793e-03
1.480456309192e-16 -2.936399755214e-17 -4.223238166793e-03
1.478784430569e-16 -4.967349145627e-17 -4.223238166793e-03
1.479156711102e-16 -6.999333323460e-17 -4.223238166793e-03
1.484162617765e-16 -8.848179478893e-17 -4.223238166792e-03
1.666983825177e-16 -7.204572759766e-18 -4.223238166793e-03
1.671314443770e-16 -2.791731329548e-17 -4.223238166793e-03
1.667311463442e-16 -4.887766356548e-17 -4.223238166793e-03
1.663431491544e-16 -6.855755192719e-17 -4.223238166793e-03
1.662388031754e-16 -8.900458732018e-17 -4.223238166792e-03
1.883216706900e-16 -8.526222946523e-18 -4.223238166793e-03
1.861267958046e-16 -2.600233027657e-17 -4.223238166793e-03
1.869517930872e-16 -4.671943922200e-17 -4.223238166793e-03
1.866814877837e-16 -6.740995691368e-17 -4.223238166793e-03
1.852496732844e-16 -8.902720090673e-17 -4.223238166792e-03
-1.559236453998e-18 4.600275763563e-18 -4.223238166793e-03
-1.239840953047e-20 -1.578744789256e-17 -4.223238166793e-03
-5.741015253178e-19 -3.378454110744e-17 -4.223238166793e-03
-1.374185101303e-18 -5.280234379925e-17 -4.223238166792e-03
-1.933863155162e-18 -7.308836834255e-17 -4.223238166792e-03
1.837869179899e-17 3.912714525682e-18 -4.223238166793e-03
1.823670097500e-17 -1.524864562283e-17 -4.223238166793e-03
1.862119339305e-17 -3.453520093699e-17 -4.223238166793e-03
1.783159560494e-17 -5.309687344783e-17 -4.223238166793e-03
1.753888728471e-17 -7.312302737576e-17 -4.223238166792e-03
3.718598086908e-17 3.762835739224e-18 -4.223238166793e-03
3.733275717369e-17 -1.519633234044e-17 -4.223238166793e-03
3.858152187680e-17 -3.492391972928e-17 -4.223238166793e-03
3.855861649355e-17 -5.371693543153e-17 -4.223238166793e-03
3.717629459402e-17 -7.347988098354e-17 -4.223238166792e-03
5.662519500813e-17 5.366393584408e-18 -4.223238166793e-03
5.722359086444e-17 -1.441956612483e-17 -4.223238166793e-03
5.777520216122e-17 -3.396986907555e-17 -4.223238166793e-03
5.820789414986e-17 -5.393611960285e-17 -4.223238166793e-03
5.821124695047e-17 -7.402208435251e-17 -4.223238166792e-03
7.771433292891e-17 5.597636270566e-18 -4.223238166793e-03
7.584706586181e-17 -1.450780583130e-17 -4.223238166793e-03
7.720326616278e-17 -3.347923102053e-17 -4.223238166793e-03
7.852317049615e-17 -5.399794338670e-17 -4.223238166793e-03
7.759606875160e-17 -7.390317103246e-17 -4.223238166792e-03
-1.113345981804e-16 1.859658739657e-17 -4.223238166793e-03
-1.110275085807e-16 -1.702146555530e-18 -4.223238166793e-03
-1.115069594703e-16 -1.895886032136e-17 -4.223238166793e-03
-1.128016428661e-16 -3.565622343689e-17 -4.223238166792e-03
-1.141582061800e-16 -5.553462394462e-17 -4.223238166792e-03
-9.250780330906e-17 1.828617957825e-17 -4.223238166793e-03
-9.272069324824e-17 -1.452530275576e-18 -4.223238166793e-03
-9.226752774992e-17 -1.985557084152e-17 -4.223238166793e-03
-9.286531439301e-17 -3.688807791685e-17 -4.223238166793e-03
-9.348943138849e-17 -5.643501610561e-17 -4.223238166792e-03
-7.339036055574e-17 1.769498270964e-17 -4.223238166793e-03
-7.298748422788e-17 -1.532156562825e-18 -4.223238166793e-03
-7.126792901066e-17 -2.011684192086e-17 -4.223238166793e-03
-7.064221533344e-17 -3.800278507801e-17 -4.223238166793e-03
-7.197682565774e-17 -5.809995017045e-17 -4.223238166792e-03
-5.314082985287e-17 1.757946319249e-17 -4.223238166793e-03
-5.311603084774e-17 -2.127441533396e-18 -4.223238166793e-03
-5.092404451345e-17 -1.914288417465e-17 -4.223238166793e-03
-4.988467287776e-17 -3.935054500795e-17 -4.223238166793e-03
-4.933646462919e-17 -5.864592053174e-17 -4.223238166792e-03
-3.450070923531e-17 1.682658293390e-17 -4.223238166793e-03
-3.284672419800e-17 -2.836201217132e-18 -4.223238166793e-03
-3.191338506292e-17 -2.010426678964e-17 -4.223238166793e-03
-3.002714145136e-17 -3.965990054801e-17 -4.223238166793e-03
-2.887269976911e-17 -5.916879168577e-17 -4.223238166792e-03
-2.227492626823e-16 3.138366079074e-17 -4.223238166793e-03
-2.225600947468e-16 1.411150166688e-17 -4.223238166793e-03
-2.241030510687e-16 -5.439419020953e-18 -4.223238166793e-03
-2.262903128460e-16 -1.892219941347e-17 -4.223238166792e-03
-2.254009407022e-16 -3.884694054021e-17 -4.223238166792e-03
-2.019944354726e-16 3.208169294724e-17 -4.223238166793e-03
-2.035846355971e-16 1.410759215525e-17 -4.223238166793e-03
-2.042778576429e-16 -3.436084276632e-18 -4.223238166793e-03
-2.041328784901e-16 -2.006839566194e-17 -4.223238166793e-03
-2.054940054611e-16 -3.896546178744e-17 -4.223238166792e-03
-1.841046437815e-16 3.202077232790e-17 -4.223238166793e-03
-1.832037220133e-16 1.141649883134e-17 -4.223238166793e-03
-1.822002662694e-16 -4.238351584249e-18 -4.223238166793e-03
-1.817223488250e-16 -2.123368924718e-17 -4.223238166793e-03
-1.803573877025e-16 -4.019553950441e-17 -4.223238166792e-03
-1.665699793189e-16 2.885980858511e-17 -4.223238166793e-03
-1.629327496673e-16 1.002041201234e-17 -4.223238166793e-03
-1.587302866523e-16 -6.836755515921e-18 -4.223238166793e-03
-1.581165187074e-16 -2.414210058611e-17 -4.223238166793e-03
-1.578634253638e-16 -4.338732820642e-17 -4.223238166792e-03
-1.464776051715e-16 2.680263296381e-17 -4.223238166793e-03
-1.433637703019e-16 1.103978655197e-17 -4.223238166793e-03
-1.395370227928e-16 -8.650112496294e-18 -4.223238166793e-03
-1.375082100181e-16 -2.627807412951e-17 -4.223238166793e-03
-1.381072753072e-16 -4.530997198237e-17 -4.223238166792e-03
SCALARS displacement_magnitude float 1
LOOKUP_TABLE default
0.000000000000e+00
0.000000000000e+00
0.000000000000e+00
0.000000000000e+00
0.000000000000e+00
0.000000000000e+00
0.000000000000e+00
0.000000000000e+00
0.000000000000e+00
0.000000000000e+00
0.000000000000e+00
0.000000000000e+00
0.000000000000e+00
0.000000000000e+00
0.000000000000e+00
0.000000000000e+00
0.000000000000e+00
0.000000000000e+00
0.000000000000e+00
0.000000000000e+00
0.000000000000e+00
0.000000000000e+00
0.000000000000e+00
0.000000000000e+00
0.000000000000e+00
0.000000000000e+00
0.000000000000e+00
0.000000000000e+00
0.000000000000e+00
0.000000000000e+00
0.000000000000e+00
0.000000000000e+00
0.000000000000e+00
0.000000000000e+00
0.000000000000e+00
0.000000000000e+00
0.000000000000e+00
0.000000000000e+00
0.000000000000e+00
0.000000000000e+00
0.000000000000e+00
0.000000000000e+00
0.000000000000e+00
0.000000000000e+00
0.000000000000e+00
0.000000000000e+00
0.000000000000e+00
0.000000000000e+00
0.000000000000e+00
0.000000000000e+00
0.000000000000e+00
0.000000000000e+00
0.000000000000e+00
0.000000000000e+00
0.000000000000e+00
0.000000000000e+00
0.000000000000e+00
0.000000000000e+00
0.000000000000e+00
0.000000000000e+00
0.000000000000e+00
0.000000000000e+00
0.000000000000e+00
0.000000000000e+00
0.000000000000e+00
0.000000000000e+00
0.000000000000e+00
0.000000000000e+00
0.000000000000e+00
0.000000000000e+00
0.000000000000e+00
0.000000000000e+00
0.000000000000e+00
0.000000000000e+00
0.000000000000e+00
0.000000000000e+00
0.000000000000e+00
0.000000000000e+00
0.000000000000e+00
0.000000000000e+00
0.000000000000e+00
0.000000000000e+00
0.000000000000e+00
0.000000000000e+00
0.000000000000e+00
0.000000000000e+00
0.000000000000e+00
0.000000000000e+00
0.000000000000e+00
0.000000000000e+00
0.000000000000e+00
0.000000000000e+00
0.000000000000e+00
0.000000000000e+00
0.000000000000e+00
0.000000000000e+00
0.000000000000e+00
0.000000000000e+00
0.000000000000e+00
0.000000000000e+00
0.000000000000e+00
0.000000000000e+00
0.000000000000e+00
0.000000000000e+00
0.000000000000e+00
0.000000000000e+00
0.000000000000e+00
0.000000000000e+00
0.000000000000e+00
0.000000000000e+00
0.000000000000e+00
0.000000000000e+00
0.000000000000e+00
0.000000000000e+00
0.000000000000e+00
0.000000000000e+00
0.000000000000e+00
0.000000000000e+00
0.000000000000e+00
0.000000000000e+00
0.000000000000e+00
0.000000000000e+00
0.000000000000e+00
0.000000000000e+00
0.000000000000e+00
4.223238166793e-03
4.223238166793e-03
4.223238166793e-03
4.223238166792e-03
4.223238166792e-03
4.223238166793e-03
4.223238166793e-03
4.223238166793e-03
4.223238166793e-03
4.223238166792e-03
4.223238166793e-03
4.223238166793e-03
4.223238166793e-03
4.223238166793e-03
4.223238166792e-03
4.223238166793e-03
4.223238166793e-03
4.223238166793e-03
4.223238166793e-03
4.223238166792e-03
4.223238166793e-03
4.223238166793e-03
4.223238166793e-03
4.223238166793e-03
4.223238166792e-03
4.223238166793e-03
4.223238166793e-03
4.223238166793e-03
4.223238166792e-03
4.223238166792e-03
4.223238166793e-03
4.223238166793e-03
4.223238166793e-03
4.223238166793e-03
4.223238166792e-03
4.223238166793e-03
4.223238166793e-03
4.223238166793e-03
4.223238166793e-03
4.223238166792e-03
4.223238166793e-03
4.223238166793e-03
4.223238166793e-03
4.223238166793e-03
4.223238166792e-03
4.223238166793e-03
4.223238166793e-03
4.223238166793e-03
4.223238166793e-03
4.223238166792e-03
4.223238166793e-03
4.223238166793e-03
4.223238166793e-03
4.223238166792e-03
4.223238166792e-03
4.223238166793e-03
4.223238166793e-03
4.223238166793e-03
4.223238166793e-03
4.223238166792e-03
4.223238166793e-03
4.223238166793e-03
4.223238166793e-03
4.223238166793e-03
4.223238166792e-03
4.223238166793e-03
4.223238166793e-03
4.223238166793e-03
4.223238166793e-03
4.223238166792e-03
4.223238166793e-03
4.223238166793e-03
4.223238166793e-03
4.223238166793e-03
4.223238166792e-03
4.223238166793e-03
4.223238166793e-03
4.223238166793e-03
4.223238166792e-03
4.223238166792e-03
4.223238166793e-03
4.223238166793e-03
4.223238166793e-03
4.223238166793e-03
4.223238166792e-03
4.223238166793e-03
4.223238166793e-03
4.223238166793e-03
4.223238166793e-03
4.223238166792e-03
4.223238166793e-03
4.223238166793e-03
4.223238166793e-03
4.223238166793e-03
4.223238166792e-03
4.223238166793e-03
4.223238166793e-03
4.223238166793e-03
4.223238166793e-03
4.223238166792e-03
4.223238166793e-03
4.223238166793e-03
4.223238166793e-03
4.223238166792e-03
4.223238166792e-03
4.223238166793e-03
4.223238166793e-03
4.223238166793e-03
4.223238166793e-03
4.223238166792e-03
4.223238166793e-03
4.223238166793e-03
4.223238166793e-03
4.223238166793e-03
4.223238166792e-03
4.223238166793e-03
4.223238166793e-03
4.223238166793e-03
4.223238166793e-03
4.223238166792e-03
4.223238166793e-03
4.223238166793e-03
4.223238166793e-03
4.223238166793e-03
4.223238166792e-03
CELL_DATA 128
SCALARS displacement_magnitude float 1
LOOKUP_TABLE default
0.000000000000e+00
0.000000000000e+00
0.000000000000e+00
0.000000000000e+00
0.000000000000e+00
0.000000000000e+00
0.000000000000e+00
0.000000000000e+00
0.000000000000e+00
0.000000000000e+00
0.000000000000e+00
0.000000000000e+00
0.000000000000e+00
0.000000000000e+00
0.000000000000e+00
0.000000000000e+00
0.000000000000e+00
0.000000000000e+00
0.000000000000e+00
0.000000000000e+00
0.000000000000e+00
0.000000000000e+00
0.000000000000e+00
0.000000000000e+00
0.000000000000e+00
0.000000000000e+00
0.000000000000e+00
0.000000000000e+00
0.000000000000e+00
0.000000000000e+00
0.000000000000e+00
0.000000000000e+00
0.000000000000e+00
0.000000000000e+00
0.000000000000e+00
0.000000000000e+00
0.000000000000e+00
0.000000000000e+00
0.000000000000e+00
0.000000000000e+00
0.000000000000e+00
0.000000000000e+00
0.000000000000e+00
0.000000000000e+00
0.000000000000e+00
0.000000000000e+00
0.000000000000e+00
0.000000000000e+00
0.000000000000e+00
0.000000000000e+00
0.000000000000e+00
0.000000000000e+00
0.000000000000e+00
0.000000000000e+00
0.000000000000e+00
0.000000000000e+00
0.000000000000e+00
0.000000000000e+00
0.000000000000e+00
0.000000000000e+00
0.000000000000e+00
0.000000000000e+00
0.000000000000e+00
0.000000000000e+00
4.223238166793e-03
4.223238166793e-03
4.223238166793e-03
4.223238166792e-03
4.223238166793e-03
4.223238166793e-03
4.223238166793e-03
4.223238166792e-03
4.223238166793e-03
4.223238166793e-03
4.223238166793e-03
4.223238166792e-03
4.223238166793e-03
4.223238166793e-03
4.223238166793e-03
4.223238166792e-03
4.223238166793e-03
4.223238166793e-03
4.223238166793e-03
4.223238166792e-03
4.223238166793e-03
4.223238166793e-03
4.223238166793e-03
4.223238166792e-03
4.223238166793e-03
4.223238166793e-03
4.223238166793e-03
4.223238166792e-03
4.223238166793e-03
4.223238166793e-03
4.223238166793e-03
4.223238166792e-03
4.223238166793e-03
4.223238166793e-03
4.223238166793e-03
4.223238166792e-03
4.223238166793e-03
4.223238166793e-03
4.223238166793e-03
4.223238166792e-03
4.223238166793e-03
4.223238166793e-03
4.223238166793e-03
4.223238166792e-03
4.223238166793e-03
4.223238166793e-03
4.223238166793e-03
4.223238166792e-03
4.223238166793e-03
4.223238166793e-03
4.223238166793e-03
4.223238166792e-03
4.223238166793e-03
4.223238166793e-03
4.223238166793e-03
4.223238166792e-03
4.223238166793e-03
4.223238166793e-03
4.223238166793e-03
4.223238166792e-03
4.223238166793e-03
4.223238166793e-03
4.223238166793e-03
4.223238166792e-03
SCALARS engineering_strain_norm float 1
LOOKUP_TABLE default
0.000000000000e+00
0.000000000000e+00
0.000000000000e+00
0.000000000000e+00
0.000000000000e+00
0.000000000000e+00
0.000000000000e+00
0.000000000000e+00
0.000000000000e+00
0.000000000000e+00
0.000000000000e+00
0.000000000000e+00
0.000000000000e+00
0.000000000000e+00
0.000000000000e+00
0.000000000000e+00
0.000000000000e+00
0.000000000000e+00
0.000000000000e+00
0.000000000000e+00
0.000000000000e+00
0.000000000000e+00
0.000000000000e+00
0.000000000000e+00
0.000000000000e+00
0.000000000000e+00
0.000000000000e+00
0.000000000000e+00
0.000000000000e+00
0.000000000000e+00
0.000000000000e+00
0.000000000000e+00
0.000000000000e+00
0.000000000000e+00
0.000000000000e+00
0.000000000000e+00
0.000000000000e+00
0.000000000000e+00
0.000000000000e+00
0.000000000000e+00
0.000000000000e+00
0.000000000000e+00
0.000000000000e+00
0.000000000000e+00
0.000000000000e+00
0.000000000000e+00
0.000000000000e+00
0.000000000000e+00
0.000000000000e+00
0.000000000000e+00
0.000000000000e+00
0.000000000000e+00
0.000000000000e+00
0.000000000000e+00
0.000000000000e+00
0.000000000000e+00
0.000000000000e+00
0.000000000000e+00
0.000000000000e+00
0.000000000000e+00
0.000000000000e+00
0.000000000000e+00
0.000000000000e+00
0.000000000000e+00
3.452770848916e-17
2.529551938765e-17
4.082002909533e-17
3.353830560053e-17
2.653184290405e-17
2.341859226622e-17
3.187101093916e-17
4.348851543011e-17
2.349534367643e-17
3.135616527354e-17
5.017565858970e-17
4.404965504054e-17
3.344533770106e-17
2.388879408315e-17
5.306165880784e-17
3.645707345208e-17
3.082088320668e-17
2.453729233177e-17
1.784391806932e-17
4.773606264420e-17
2.081396584841e-17
2.344725122514e-17
1.810426607409e-17
5.332519572259e-17
3.113717530816e-17
4.553944384483e-17
4.990714858005e-17
4.311055306570e-17
5.133432687045e-17
3.620142872586e-17
5.574741480448e-17
2.829777062492e-17
2.395228938436e-17
3.161794677203e-17
3.411494089558e-17
3.828958004651e-17
2.004464916849e-17
4.999368889627e-17
3.909531998404e-17
4.577290373803e-17
3.295132960895e-17
5.340472178222e-17
2.398176114325e-17
5.391507827092e-17
4.430617875876e-17
3.105933764212e-17
4.454418914035e-17
3.277178217754e-17
1.591466401436e-17
2.628858864677e-17
5.112229211124e-17
2.889644400864e-17
2.180623552082e-17
3.952126926499e-17
4.791525321999e-17
3.409388306536e-17
3.019309755645e-17
6.052472662079e-17
3.943523034411e-17
4.719369778680e-17
3.562578198500e-17
3.501711361904e-17
3.003241298578e-17
2.825997389214e-17
SCALARS von_mises float 1
LOOKUP_TABLE default
0.000000000000e+00
0.000000000000e+00
0.000000000000e+00
0.000000000000e+00
0.000000000000e+00
0.000000000000e+00
0.000000000000e+00
0.000000000000e+00
0.000000000000e+00
0.000000000000e+00
0.000000000000e+00
0.000000000000e+00
0.000000000000e+00
0.000000000000e+00
0.000000000000e+00
0.000000000000e+00
0.000000000000e+00
0.000000000000e+00
0.000000000000e+00
0.000000000000e+00
0.000000000000e+00
0.000000000000e+00
0.000000000000e+00
0.000000000000e+00
0.000000000000e+00
0.000000000000e+00
0.000000000000e+00
0.000000000000e+00
0.000000000000e+00
0.000000000000e+00
0.000000000000e+00
0.000000000000e+00
0.000000000000e+00
0.000000000000e+00
0.000000000000e+00
0.000000000000e+00
0.000000000000e+00
0.000000000000e+00
0.000000000000e+00
0.000000000000e+00
0.000000000000e+00
0.000000000000e+00
0.000000000000e+00
0.000000000000e+00
0.000000000000e+00
0.000000000000e+00
0.000000000000e+00
0.000000000000e+00
0.000000000000e+00
0.000000000000e+00
0.000000000000e+00
0.000000000000e+00
0.000000000000e+00
0.000000000000e+00
0.000000000000e+00
0.000000000000e+00
0.000000000000e+00
0.000000000000e+00
0.000000000000e+00
0.000000000000e+00
0.000000000000e+00
0.000000000000e+00
0.000000000000e+00
0.000000000000e+00
2.333956856116e-12
1.889755480178e-12
3.155153761674e-12
2.316438640161e-12
1.953605905281e-12
1.577175106303e-12
2.192399489551e-12
2.915976322278e-12
1.817077005755e-12
2.256376167803e-12
3.587373684400e-12
3.040604233428e-12
2.516217825153e-12
1.931915610316e-12
3.650678263962e-12
2.366275213137e-12
2.106207141386e-12
1.661755655671e-12
1.473441174333e-12
3.193818594294e-12
1.703385364787e-12
1.590920576825e-12
1.261698708118e-12
3.550958703019e-12
2.389486193046e-12
3.399813069077e-12
3.447208224278e-12
2.883596396020e-12
3.530838518645e-12
3.015876158440e-12
3.775254532716e-12
1.933094698125e-12
1.656552528704e-12
2.143701994267e-12
2.616536825214e-12
2.690172336802e-12
1.335888262208e-12
3.661773946717e-12
2.603083706919e-12
3.194863198974e-12
2.258653210384e-12
4.113856651980e-12
1.559498703930e-12
3.729628425896e-12
2.955060873484e-12
2.182652598333e-12
3.068993753888e-12
2.204218190642e-12
1.132522764650e-12
1.798796344502e-12
3.866164103725e-12
2.386286695949e-12
1.374685857391e-12
2.758106757814e-12
3.230681677869e-12
2.477633664956e-12
2.237217625811e-12
4.379626466607e-12
2.708994418916e-12
3.228590003150e-12
2.801348544212e-12
2.690548929082e-12
2.243964630061e-12
1.930382718974e-12
SCALARS sdf_gap float 1
LOOKUP_TABLE default
0.000000000000e+00
0.000000000000e+00
0.000000000000e+00
0.000000000000e+00
0.000000000000e+00
0.000000000000e+00
0.000000000000e+00
0.000000000000e+00
0.000000000000e+00
0.000000000000e+00
0.000000000000e+00
0.000000000000e+00
0.000000000000e+00
0.000000000000e+00
0.000000000000e+00
0.000000000000e+00
0.000000000000e+00
0.000000000000e+00
0.000000000000e+00
0.000000000000e+00
0.000000000000e+00
0.000000000000e+00
0.000000000000e+00
0.000000000000e+00
0.000000000000e+00
0.000000000000e+00
0.000000000000e+00
0.000000000000e+00
0.000000000000e+00
0.000000000000e+00
0.000000000000e+00
0.000000000000e+00
0.000000000000e+00
0.000000000000e+00
0.000000000000e+00
0.000000000000e+00
0.000000000000e+00
0.000000000000e+00
0.000000000000e+00
0.000000000000e+00
0.000000000000e+00
0.000000000000e+00
0.000000000000e+00
0.000000000000e+00
0.000000000000e+00
0.000000000000e+00
0.000000000000e+00
0.000000000000e+00
0.000000000000e+00
0.000000000000e+00
0.000000000000e+00
0.000000000000e+00
0.000000000000e+00
0.000000000000e+00
0.000000000000e+00
0.000000000000e+00
0.000000000000e+00
0.000000000000e+00
0.000000000000e+00
0.000000000000e+00
0.000000000000e+00
0.000000000000e+00
0.000000000000e+00
0.000000000000e+00
1.077676183321e-02
1.077676183321e-02
1.077676183321e-02
1.077676183321e-02
1.077676183321e-02
1.077676183321e-02
1.077676183321e-02
1.077676183321e-02
1.077676183321e-02
1.077676183321e-02
1.077676183321e-02
1.077676183321e-02
1.077676183321e-02
1.077676183321e-02
1.077676183321e-02
1.077676183321e-02
0.000000000000e+00
0.000000000000e+00
0.000000000000e+00
0.000000000000e+00
0.000000000000e+00
0.000000000000e+00
0.000000000000e+00
0.000000000000e+00
0.000000000000e+00
0.000000000000e+00
0.000000000000e+00
0.000000000000e+00
0.000000000000e+00
0.000000000000e+00
0.000000000000e+00
0.000000000000e+00
0.000000000000e+00
0.000000000000e+00
0.000000000000e+00
0.000000000000e+00
0.000000000000e+00
0.000000000000e+00
0.000000000000e+00
0.000000000000e+00
0.000000000000e+00
0.000000000000e+00
0.000000000000e+00
0.000000000000e+00
0.000000000000e+00
0.000000000000e+00
0.000000000000e+00
0.000000000000e+00
0.000000000000e+00
0.000000000000e+00
0.000000000000e+00
0.000000000000e+00
0.000000000000e+00
0.000000000000e+00
0.000000000000e+00
0.000000000000e+00
0.000000000000e+00
0.000000000000e+00
0.000000000000e+00
0.000000000000e+00
0.000000000000e+00
0.000000000000e+00
0.000000000000e+00
0.000000000000e+00
SCALARS contact_pressure float 1
LOOKUP_TABLE default
0.000000000000e+00
0.000000000000e+00
0.000000000000e+00
0.000000000000e+00
0.000000000000e+00
0.000000000000e+00
0.000000000000e+00
0.000000000000e+00
0.000000000000e+00
0.000000000000e+00
0.000000000000e+00
0.000000000000e+00
0.000000000000e+00
0.000000000000e+00
0.000000000000e+00
0.000000000000e+00
0.000000000000e+00
0.000000000000e+00
0.000000000000e+00
0.000000000000e+00
0.000000000000e+00
0.000000000000e+00
0.000000000000e+00
0.000000000000e+00
0.000000000000e+00
0.000000000000e+00
0.000000000000e+00
0.000000000000e+00
0.000000000000e+00
0.000000000000e+00
0.000000000000e+00
0.000000000000e+00
0.000000000000e+00
0.000000000000e+00
0.000000000000e+00
0.000000000000e+00
0.000000000000e+00
0.000000000000e+00
0.000000000000e+00
0.000000000000e+00
0.000000000000e+00
0.000000000000e+00
0.000000000000e+00
0.000000000000e+00
0.000000000000e+00
0.000000000000e+00
0.000000000000e+00
0.000000000000e+00
0.000000000000e+00
0.000000000000e+00
0.000000000000e+00
0.000000000000e+00
0.000000000000e+00
0.000000000000e+00
0.000000000000e+00
0.000000000000e+00
0.000000000000e+00
0.000000000000e+00
0.000000000000e+00
0.000000000000e+00
0.000000000000e+00
0.000000000000e+00
0.000000000000e+00
0.000000000000e+00
0.000000000000e+00
0.000000000000e+00
0.000000000000e+00
0.000000000000e+00
0.000000000000e+00
0.000000000000e+00
0.000000000000e+00
0.000000000000e+00
0.000000000000e+00
0.000000000000e+00
0.000000000000e+00
0.000000000000e+00
0.000000000000e+00
0.000000000000e+00
0.000000000000e+00
0.000000000000e+00
0.000000000000e+00
0.000000000000e+00
0.000000000000e+00
0.000000000000e+00
0.000000000000e+00
0.000000000000e+00
0.000000000000e+00
0.000000000000e+00
0.000000000000e+00
0.000000000000e+00
0.000000000000e+00
0.000000000000e+00
0.000000000000e+00
0.000000000000e+00
0.000000000000e+00
0.000000000000e+00
0.000000000000e+00
0.000000000000e+00
0.000000000000e+00
0.000000000000e+00
0.000000000000e+00
0.000000000000e+00
0.000000000000e+00
0.000000000000e+00
0.000000000000e+00
0.000000000000e+00
0.000000000000e+00
0.000000000000e+00
0.000000000000e+00
0.000000000000e+00
0.000000000000e+00
0.000000000000e+00
0.000000000000e+00
0.000000000000e+00
0.000000000000e+00
0.000000000000e+00
0.000000000000e+00
0.000000000000e+00
0.000000000000e+00
0.000000000000e+00
0.000000000000e+00
0.000000000000e+00
0.000000000000e+00
0.000000000000e+00
0.000000000000e+00
0.000000000000e+00
0.000000000000e+00
0.000000000000e+00
SCALARS active_contact float 1
LOOKUP_TABLE default
0.000000000000e+00
0.000000000000e+00
0.000000000000e+00
0.000000000000e+00
0.000000000000e+00
0.000000000000e+00
0.000000000000e+00
0.000000000000e+00
0.000000000000e+00
0.000000000000e+00
0.000000000000e+00
0.000000000000e+00
0.000000000000e+00
0.000000000000e+00
0.000000000000e+00
0.000000000000e+00
0.000000000000e+00
0.000000000000e+00
0.000000000000e+00
0.000000000000e+00
0.000000000000e+00
0.000000000000e+00
0.000000000000e+00
0.000000000000e+00
0.000000000000e+00
0.000000000000e+00
0.000000000000e+00
0.000000000000e+00
0.000000000000e+00
0.000000000000e+00
0.000000000000e+00
0.000000000000e+00
0.000000000000e+00
0.000000000000e+00
0.000000000000e+00
0.000000000000e+00
0.000000000000e+00
0.000000000000e+00
0.000000000000e+00
0.000000000000e+00
0.000000000000e+00
0.000000000000e+00
0.000000000000e+00
0.000000000000e+00
0.000000000000e+00
0.000000000000e+00
0.000000000000e+00
0.000000000000e+00
0.000000000000e+00
0.000000000000e+00
0.000000000000e+00
0.000000000000e+00
0.000000000000e+00
0.000000000000e+00
0.000000000000e+00
0.000000000000e+00
0.000000000000e+00
0.000000000000e+00
0.000000000000e+00
0.000000000000e+00
0.000000000000e+00
0.000000000000e+00
0.000000000000e+00
0.000000000000e+00
0.000000000000e+00
0.000000000000e+00
0.000000000000e+00
0.000000000000e+00
0.000000000000e+00
0.000000000000e+00
0.000000000000e+00
0.000000000000e+00
0.000000000000e+00
0.000000000000e+00
0.000000000000e+00
0.000000000000e+00
0.000000000000e+00
0.000000000000e+00
0.000000000000e+00
0.000000000000e+00
0.000000000000e+00
0.000000000000e+00
0.000000000000e+00
0.000000000000e+00
0.000000000000e+00
0.000000000000e+00
0.000000000000e+00
0.000000000000e+00
0.000000000000e+00
0.000000000000e+00
0.000000000000e+00
0.000000000000e+00
0.000000000000e+00
0.000000000000e+00
0.000000000000e+00
0.000000000000e+00
0.000000000000e+00
0.000000000000e+00
0.000000000000e+00
0.000000000000e+00
0.000000000000e+00
0.000000000000e+00
0.000000000000e+00
0.000000000000e+00
0.000000000000e+00
0.000000000000e+00
0.000000000000e+00
0.000000000000e+00
0.000000000000e+00
0.000000000000e+00
0.000000000000e+00
0.000000000000e+00
0.000000000000e+00
0.000000000000e+00
0.000000000000e+00
0.000000000000e+00
0.000000000000e+00
0.000000000000e+00
0.000000000000e+00
0.000000000000e+00
0.000000000000e+00
0.000000000000e+00
0.000000000000e+00
0.000000000000e+00
0.000000000000e+00
0.000000000000e+00
0.000000000000e+00
0.000000000000e+00
