# vtk DataFile Version 3.0
SFC long-time C3D8 dynamic frame 20 t=4.000000000000e-01
ASCII
DATASET UNSTRUCTURED_GRID
POINTS 250 float
-2.500000000000e-01 -2.500000000000e-01 0.000000000000e+00
-1.250000000000e-01 -2.500000000000e-01 0.000000000000e+00
0.000000000000e+00 -2.500000000000e-01 0.000000000000e+00
1.250000000000e-01 -2.500000000000e-01 0.000000000000e+00
2.500000000000e-01 -2.500000000000e-01 0.000000000000e+00
-2.500000000000e-01 -1.250000000000e-01 0.000000000000e+00
-1.250000000000e-01 -1.250000000000e-01 0.000000000000e+00
0.000000000000e+00 -1.250000000000e-01 0.000000000000e+00
1.250000000000e-01 -1.250000000000e-01 0.000000000000e+00
2.500000000000e-01 -1.250000000000e-01 0.000000000000e+00
-2.500000000000e-01 0.000000000000e+00 0.000000000000e+00
-1.250000000000e-01 0.000000000000e+00 0.000000000000e+00
0.000000000000e+00 0.000000000000e+00 0.000000000000e+00
1.250000000000e-01 0.000000000000e+00 0.000000000000e+00
2.500000000000e-01 0.000000000000e+00 0.000000000000e+00
-2.500000000000e-01 1.250000000000e-01 0.000000000000e+00
-1.250000000000e-01 1.250000000000e-01 0.000000000000e+00
0.000000000000e+00 1.250000000000e-01 0.000000000000e+00
1.250000000000e-01 1.250000000000e-01 0.000000000000e+00
2.500000000000e-01 1.250000000000e-01 0.000000000000e+00
-2.500000000000e-01 2.500000000000e-01 0.000000000000e+00
-1.250000000000e-01 2.500000000000e-01 0.000000000000e+00
0.000000000000e+00 2.500000000000e-01 0.000000000000e+00
1.250000000000e-01 2.500000000000e-01 0.000000000000e+00
2.500000000000e-01 2.500000000000e-01 0.000000000000e+00
-2.500000000000e-01 -2.500000000000e-01 6.000000000000e-02
-1.250000000000e-01 -2.500000000000e-01 6.000000000000e-02
0.000000000000e+00 -2.500000000000e-01 6.000000000000e-02
1.250000000000e-01 -2.500000000000e-01 6.000000000000e-02
2.500000000000e-01 -2.500000000000e-01 6.000000000000e-02
-2.500000000000e-01 -1.250000000000e-01 6.000000000000e-02
-1.250000000000e-01 -1.250000000000e-01 6.000000000000e-02
0.000000000000e+00 -1.250000000000e-01 6.000000000000e-02
1.250000000000e-01 -1.250000000000e-01 6.000000000000e-02
2.500000000000e-01 -1.250000000000e-01 6.000000000000e-02
-2.500000000000e-01 0.000000000000e+00 6.000000000000e-02
-1.250000000000e-01 0.000000000000e+00 6.000000000000e-02
0.000000000000e+00 0.000000000000e+00 6.000000000000e-02
1.250000000000e-01 0.000000000000e+00 6.000000000000e-02
2.500000000000e-01 0.000000000000e+00 6.000000000000e-02
-2.500000000000e-01 1.250000000000e-01 6.000000000000e-02
-1.250000000000e-01 1.250000000000e-01 6.000000000000e-02
0.000000000000e+00 1.250000000000e-01 6.000000000000e-02
1.250000000000e-01 1.250000000000e-01 6.000000000000e-02
2.500000000000e-01 1.250000000000e-01 6.000000000000e-02
-2.500000000000e-01 2.500000000000e-01 6.000000000000e-02
-1.250000000000e-01 2.500000000000e-01 6.000000000000e-02
0.000000000000e+00 2.500000000000e-01 6.000000000000e-02
1.250000000000e-01 2.500000000000e-01 6.000000000000e-02
2.500000000000e-01 2.500000000000e-01 6.000000000000e-02
-2.500000000000e-01 -2.500000000000e-01 1.200000000000e-01
-1.250000000000e-01 -2.500000000000e-01 1.200000000000e-01
0.000000000000e+00 -2.500000000000e-01 1.200000000000e-01
1.250000000000e-01 -2.500000000000e-01 1.200000000000e-01
2.500000000000e-01 -2.500000000000e-01 1.200000000000e-01
-2.500000000000e-01 -1.250000000000e-01 1.200000000000e-01
-1.250000000000e-01 -1.250000000000e-01 1.200000000000e-01
0.000000000000e+00 -1.250000000000e-01 1.200000000000e-01
1.250000000000e-01 -1.250000000000e-01 1.200000000000e-01
2.500000000000e-01 -1.250000000000e-01 1.200000000000e-01
-2.500000000000e-01 0.000000000000e+00 1.200000000000e-01
-1.250000000000e-01 0.000000000000e+00 1.200000000000e-01
0.000000000000e+00 0.000000000000e+00 1.200000000000e-01
1.250000000000e-01 0.000000000000e+00 1.200000000000e-01
2.500000000000e-01 0.000000000000e+00 1.200000000000e-01
-2.500000000000e-01 1.250000000000e-01 1.200000000000e-01
-1.250000000000e-01 1.250000000000e-01 1.200000000000e-01
0.000000000000e+00 1.250000000000e-01 1.200000000000e-01
1.250000000000e-01 1.250000000000e-01 1.200000000000e-01
2.500000000000e-01 1.250000000000e-01 1.200000000000e-01
-2.500000000000e-01 2.500000000000e-01 1.200000000000e-01
-1.250000000000e-01 2.500000000000e-01 1.200000000000e-01
0.000000000000e+00 2.500000000000e-01 1.200000000000e-01
1.250000000000e-01 2.500000000000e-01 1.200000000000e-01
2.500000000000e-01 2.500000000000e-01 1.200000000000e-01
-2.500000000000e-01 -2.500000000000e-01 1.800000000000e-01
-1.250000000000e-01 -2.500000000000e-01 1.800000000000e-01
0.000000000000e+00 -2.500000000000e-01 1.800000000000e-01
1.250000000000e-01 -2.500000000000e-01 1.800000000000e-01
2.500000000000e-01 -2.500000000000e-01 1.800000000000e-01
-2.500000000000e-01 -1.250000000000e-01 1.800000000000e-01
-1.250000000000e-01 -1.250000000000e-01 1.800000000000e-01
0.000000000000e+00 -1.250000000000e-01 1.800000000000e-01
1.250000000000e-01 -1.250000000000e-01 1.800000000000e-01
2.500000000000e-01 -1.250000000000e-01 1.800000000000e-01
-2.500000000000e-01 0.000000000000e+00 1.800000000000e-01
-1.250000000000e-01 0.000000000000e+00 1.800000000000e-01
0.000000000000e+00 0.000000000000e+00 1.800000000000e-01
1.250000000000e-01 0.000000000000e+00 1.800000000000e-01
2.500000000000e-01 0.000000000000e+00 1.800000000000e-01
-2.500000000000e-01 1.250000000000e-01 1.800000000000e-01
-1.250000000000e-01 1.250000000000e-01 1.800000000000e-01
0.000000000000e+00 1.250000000000e-01 1.800000000000e-01
1.250000000000e-01 1.250000000000e-01 1.800000000000e-01
2.500000000000e-01 1.250000000000e-01 1.800000000000e-01
-2.500000000000e-01 2.500000000000e-01 1.800000000000e-01
-1.250000000000e-01 2.500000000000e-01 1.800000000000e-01
0.000000000000e+00 2.500000000000e-01 1.800000000000e-01
1.250000000000e-01 2.500000000000e-01 1.800000000000e-01
2.500000000000e-01 2.500000000000e-01 1.800000000000e-01
-2.500000000000e-01 -2.500000000000e-01 2.400000000000e-01
-1.250000000000e-01 -2.500000000000e-01 2.400000000000e-01
0.000000000000e+00 -2.500000000000e-01 2.400000000000e-01
1.250000000000e-01 -2.500000000000e-01 2.400000000000e-01
2.500000000000e-01 -2.500000000000e-01 2.400000000000e-01
-2.500000000000e-01 -1.250000000000e-01 2.400000000000e-01
-1.250000000000e-01 -1.250000000000e-01 2.400000000000e-01
0.000000000000e+00 -1.250000000000e-01 2.400000000000e-01
1.250000000000e-01 -1.250000000000e-01 2.400000000000e-01
2.500000000000e-01 -1.250000000000e-01 2.400000000000e-01
-2.500000000000e-01 0.000000000000e+00 2.400000000000e-01
-1.250000000000e-01 0.000000000000e+00 2.400000000000e-01
0.000000000000e+00 0.000000000000e+00 2.400000000000e-01
1.250000000000e-01 0.000000000000e+00 2.400000000000e-01
2.500000000000e-01 0.000000000000e+00 2.400000000000e-01
-2.500000000000e-01 1.250000000000e-01 2.400000000000e-01
-1.250000000000e-01 1.250000000000e-01 2.400000000000e-01
0.000000000000e+00 1.250000000000e-01 2.400000000000e-01
1.250000000000e-01 1.250000000000e-01 2.400000000000e-01
2.500000000000e-01 1.250000000000e-01 2.400000000000e-01
-2.500000000000e-01 2.500000000000e-01 2.400000000000e-01
-1.250000000000e-01 2.500000000000e-01 2.400000000000e-01
0.000000000000e+00 2.500000000000e-01 2.400000000000e-01
1.250000000000e-01 2.500000000000e-01 2.400000000000e-01
2.500000000000e-01 2.500000000000e-01 2.400000000000e-01
-2.499999999999e-01 -2.500000000000e-01 2.491653188183e-01
-1.249999999999e-01 -2.500000000000e-01 2.491653188184e-01
9.359977065216e-14 -2.500000000000e-01 2.491653188185e-01
1.250000000001e-01 -2.500000000000e-01 2.491653188186e-01
2.500000000001e-01 -2.500000000000e-01 2.491653188187e-01
-2.499999999999e-01 -1.250000000000e-01 2.491653188183e-01
-1.249999999999e-01 -1.250000000000e-01 2.491653188184e-01
9.693463627189e-14 -1.250000000000e-01 2.491653188185e-01
1.250000000001e-01 -1.250000000000e-01 2.491653188186e-01
2.500000000001e-01 -1.250000000000e-01 2.491653188187e-01
-2.499999999999e-01 4.766097914508e-15 2.491653188183e-01
-1.249999999999e-01 1.429929003632e-15 2.491653188184e-01
1.002669456450e-13 -1.909852432075e-15 2.491653188185e-01
1.250000000001e-01 -5.246893227585e-15 2.491653188186e-01
2.500000000001e-01 -8.580670613794e-15 2.491653188187e-01
-2.499999999999e-01 1.250000000000e-01 2.491653188184e-01
-1.249999999999e-01 1.250000000000e-01 2.491653188184e-01
1.035981521808e-13 1.250000000000e-01 2.491653188185e-01
1.250000000001e-01 1.250000000000e-01 2.491653188186e-01
2.500000000001e-01 1.250000000000e-01 2.491653188187e-01
-2.499999999999e-01 2.500000000000e-01 2.491653188184e-01
-1.249999999999e-01 2.500000000000e-01 2.491653188185e-01
1.069345871003e-13 2.500000000000e-01 2.491653188185e-01
1.250000000001e-01 2.500000000000e-01 2.491653188186e-01
2.500000000001e-01 2.500000000000e-01 2.491653188187e-01
-2.500000000000e-01 -2.500000000000e-01 3.141653188183e-01
-1.250000000000e-01 -2.500000000000e-01 3.141653188184e-01
4.891946240826e-14 -2.500000000000e-01 3.141653188185e-01
1.250000000000e-01 -2.500000000000e-01 3.141653188186e-01
2.500000000000e-01 -2.500000000000e-01 3.141653188187e-01
-2.499999999999e-01 -1.250000000000e-01 3.141653188183e-01
-1.249999999999e-01 -1.250000000000e-01 3.141653188184e-01
5.225332426192e-14 -1.250000000000e-01 3.141653188185e-01
1.250000000001e-01 -1.250000000000e-01 3.141653188186e-01
2.500000000001e-01 -1.250000000000e-01 3.141653188187e-01
-2.499999999999e-01 -1.386558636749e-15 3.141653188183e-01
-1.249999999999e-01 -4.723811572046e-15 3.141653188184e-01
5.558799322746e-14 -8.060492831137e-15 3.141653188185e-01
1.250000000001e-01 -1.139606209922e-14 3.141653188186e-01
2.500000000001e-01 -1.473392887536e-14 3.141653188187e-01
-2.499999999999e-01 1.250000000000e-01 3.141653188184e-01
-1.249999999999e-01 1.250000000000e-01 3.141653188184e-01
5.892197331187e-14 1.250000000000e-01 3.141653188185e-01
1.250000000001e-01 1.250000000000e-01 3.141653188186e-01
2.500000000001e-01 1.250000000000e-01 3.141653188187e-01
-2.499999999999e-01 2.500000000000e-01 3.141653188184e-01
-1.249999999999e-01 2.500000000000e-01 3.141653188185e-01
6.226001494741e-14 2.500000000000e-01 3.141653188185e-01
1.250000000001e-01 2.500000000000e-01 3.141653188186e-01
2.500000000001e-01 2.500000000000e-01 3.141653188187e-01
-2.500000000000e-01 -2.500000000000e-01 3.791653188183e-01
-1.250000000000e-01 -2.500000000000e-01 3.791653188184e-01
4.239921115970e-15 -2.500000000000e-01 3.791653188185e-01
1.250000000000e-01 -2.500000000000e-01 3.791653188186e-01
2.500000000000e-01 -2.500000000000e-01 3.791653188187e-01
-2.500000000000e-01 -1.250000000000e-01 3.791653188183e-01
-1.250000000000e-01 -1.250000000000e-01 3.791653188184e-01
7.573991254783e-15 -1.250000000000e-01 3.791653188185e-01
1.250000000000e-01 -1.250000000000e-01 3.791653188186e-01
2.500000000000e-01 -1.250000000000e-01 3.791653188187e-01
-2.500000000000e-01 -7.540879605346e-15 3.791653188183e-01
-1.250000000000e-01 -1.087627618684e-14 3.791653188184e-01
1.090909123286e-14 -1.421058568691e-14 3.791653188185e-01
1.250000000000e-01 -1.754618636886e-14 3.791653188186e-01
2.500000000000e-01 -2.088300013760e-14 3.791653188187e-01
-2.500000000000e-01 1.250000000000e-01 3.791653188184e-01
-1.250000000000e-01 1.250000000000e-01 3.791653188184e-01
1.424482520669e-14 1.250000000000e-01 3.791653188185e-01
1.250000000000e-01 1.250000000000e-01 3.791653188186e-01
2.500000000000e-01 1.250000000000e-01 3.791653188187e-01
-2.500000000000e-01 2.500000000000e-01 3.791653188184e-01
-1.250000000000e-01 2.500000000000e-01 3.791653188185e-01
1.758103713678e-14 2.500000000000e-01 3.791653188185e-01
1.250000000000e-01 2.500000000000e-01 3.791653188186e-01
2.500000000000e-01 2.500000000000e-01 3.791653188187e-01
-2.500000000000e-01 -2.500000000000e-01 4.441653188183e-01
-1.250000000000e-01 -2.500000000000e-01 4.441653188184e-01
-4.043956352905e-14 -2.500000000000e-01 4.441653188185e-01
1.250000000000e-01 -2.500000000000e-01 4.441653188186e-01
2.500000000000e-01 -2.500000000000e-01 4.441653188187e-01
-2.500000000000e-01 -1.250000000000e-01 4.441653188183e-01
-1.250000000000e-01 -1.250000000000e-01 4.441653188184e-01
-3.710521004219e-14 -1.250000000000e-01 4.441653188185e-01
1.250000000000e-01 -1.250000000000e-01 4.441653188186e-01
2.500000000000e-01 -1.250000000000e-01 4.441653188187e-01
-2.500000000000e-01 -1.369359038281e-14 4.441653188183e-01
-1.250000000000e-01 -1.702843704251e-14 4.441653188184e-01
-3.376943330070e-14 -2.036237398798e-14 4.441653188185e-01
1.250000000000e-01 -2.369617132083e-14 4.441653188186e-01
2.500000000000e-01 -2.703148920416e-14 4.441653188187e-01
-2.500000000000e-01 1.250000000000e-01 4.441653188184e-01
-1.250000000000e-01 1.250000000000e-01 4.441653188184e-01
-3.043239192097e-14 1.250000000000e-01 4.441653188185e-01
1.250000000000e-01 1.250000000000e-01 4.441653188186e-01
2.500000000000e-01 1.250000000000e-01 4.441653188187e-01
-2.500000000000e-01 2.500000000000e-01 4.441653188184e-01
-1.250000000000e-01 2.500000000000e-01 4.441653188185e-01
-2.709699087388e-14 2.500000000000e-01 4.441653188185e-01
1.250000000000e-01 2.500000000000e-01 4.441653188186e-01
2.500000000000e-01 2.500000000000e-01 4.441653188187e-01
-2.500000000001e-01 -2.500000000000e-01 5.091653188183e-01
-1.250000000001e-01 -2.500000000000e-01 5.091653188184e-01
-8.512118690958e-14 -2.500000000000e-01 5.091653188185e-01
1.249999999999e-01 -2.500000000000e-01 5.091653188186e-01
2.499999999999e-01 -2.500000000000e-01 5.091653188187e-01
-2.500000000001e-01 -1.250000000000e-01 5.091653188183e-01
-1.250000000001e-01 -1.250000000000e-01 5.091653188184e-01
-8.178504289632e-14 -1.250000000000e-01 5.091653188185e-01
1.249999999999e-01 -1.250000000000e-01 5.091653188186e-01
2.499999999999e-01 -1.250000000000e-01 5.091653188187e-01
-2.500000000001e-01 -1.984506608487e-14 5.091653188183e-01
-1.250000000001e-01 -2.317902814143e-14 5.091653188184e-01
-7.844771707884e-14 -2.651336581678e-14 5.091653188185e-01
1.249999999999e-01 -2.984246349430e-14 5.091653188186e-01
2.499999999999e-01 -3.317952359593e-14 5.091653188187e-01
-2.500000000001e-01 1.250000000000e-01 5.091653188184e-01
-1.250000000001e-01 1.250000000000e-01 5.091653188184e-01
-7.510777635679e-14 1.250000000000e-01 5.091653188185e-01
1.249999999999e-01 1.250000000000e-01 5.091653188186e-01
2.499999999999e-01 1.250000000000e-01 5.091653188187e-01
-2.500000000001e-01 2.500000000000e-01 5.091653188184e-01
-1.250000000001e-01 2.500000000000e-01 5.091653188185e-01
-7.177297254801e-14 2.500000000000e-01 5.091653188185e-01
1.249999999999e-01 2.500000000000e-01 5.091653188186e-01
2.499999999999e-01 2.500000000000e-01 5.091653188187e-01
CELLS 128 1152
8 0 1 6 5 25 26 31 30
8 1 2 7 6 26 27 32 31
8 2 3 8 7 27 28 33 32
8 3 4 9 8 28 29 34 33
8 5 6 11 10 30 31 36 35
8 6 7 12 11 31 32 37 36
8 7 8 13 12 32 33 38 37
8 8 9 14 13 33 34 39 38
8 10 11 16 15 35 36 41 40
8 11 12 17 16 36 37 42 41
8 12 13 18 17 37 38 43 42
8 13 14 19 18 38 39 44 43
8 15 16 21 20 40 41 46 45
8 16 17 22 21 41 42 47 46
8 17 18 23 22 42 43 48 47
8 18 19 24 23 43 44 49 48
8 25 26 31 30 50 51 56 55
8 26 27 32 31 51 52 57 56
8 27 28 33 32 52 53 58 57
8 28 29 34 33 53 54 59 58
8 30 31 36 35 55 56 61 60
8 31 32 37 36 56 57 62 61
8 32 33 38 37 57 58 63 62
8 33 34 39 38 58 59 64 63
8 35 36 41 40 60 61 66 65
8 36 37 42 41 61 62 67 66
8 37 38 43 42 62 63 68 67
8 38 39 44 43 63 64 69 68
8 40 41 46 45 65 66 71 70
8 41 42 47 46 66 67 72 71
8 42 43 48 47 67 68 73 72
8 43 44 49 48 68 69 74 73
8 50 51 56 55 75 76 81 80
8 51 52 57 56 76 77 82 81
8 52 53 58 57 77 78 83 82
8 53 54 59 58 78 79 84 83
8 55 56 61 60 80 81 86 85
8 56 57 62 61 81 82 87 86
8 57 58 63 62 82 83 88 87
8 58 59 64 63 83 84 89 88
8 60 61 66 65 85 86 91 90
8 61 62 67 66 86 87 92 91
8 62 63 68 67 87 88 93 92
8 63 64 69 68 88 89 94 93
8 65 66 71 70 90 91 96 95
8 66 67 72 71 91 92 97 96
8 67 68 73 72 92 93 98 97
8 68 69 74 73 93 94 99 98
8 75 76 81 80 100 101 106 105
8 76 77 82 81 101 102 107 106
8 77 78 83 82 102 103 108 107
8 78 79 84 83 103 104 109 108
8 80 81 86 85 105 106 111 110
8 81 82 87 86 106 107 112 111
8 82 83 88 87 107 108 113 112
8 83 84 89 88 108 109 114 113
8 85 86 91 90 110 111 116 115
8 86 87 92 91 111 112 117 116
8 87 88 93 92 112 113 118 117
8 88 89 94 93 113 114 119 118
8 90 91 96 95 115 116 121 120
8 91 92 97 96 116 117 122 121
8 92 93 98 97 117 118 123 122
8 93 94 99 98 118 119 124 123
8 125 126 131 130 150 151 156 155
8 126 127 132 131 151 152 157 156
8 127 128 133 132 152 153 158 157
8 128 129 134 133 153 154 159 158
8 130 131 136 135 155 156 161 160
8 131 132 137 136 156 157 162 161
8 132 133 138 137 157 158 163 162
8 133 134 139 138 158 159 164 163
8 135 136 141 140 160 161 166 165
8 136 137 142 141 161 162 167 166
8 137 138 143 142 162 163 168 167
8 138 139 144 143 163 164 169 168
8 140 141 146 145 165 166 171 170
8 141 142 147 146 166 167 172 171
8 142 143 148 147 167 168 173 172
8 143 144 149 148 168 169 174 173
8 150 151 156 155 175 176 181 180
8 151 152 157 156 176 177 182 181
8 152 153 158 157 177 178 183 182
8 153 154 159 158 178 179 184 183
8 155 156 161 160 180 181 186 185
8 156 157 162 161 181 182 187 186
8 157 158 163 162 182 183 188 187
8 158 159 164 163 183 184 189 188
8 160 161 166 165 185 186 191 190
8 161 162 167 166 186 187 192 191
8 162 163 168 167 187 188 193 192
8 163 164 169 168 188 189 194 193
8 165 166 171 170 190 191 196 195
8 166 167 172 171 191 192 197 196
8 167 168 173 172 192 193 198 197
8 168 169 174 173 193 194 199 198
8 175 176 181 180 200 201 206 205
8 176 177 182 181 201 202 207 206
8 177 178 183 182 202 203 208 207
8 178 179 184 183 203 204 209 208
8 180 181 186 185 205 206 211 210
8 181 182 187 186 206 207 212 211
8 182 183 188 187 207 208 213 212
8 183 184 189 188 208 209 214 213
8 185 186 191 190 210 211 216 215
8 186 187 192 191 211 212 217 216
8 187 188 193 192 212 213 218 217
8 188 189 194 193 213 214 219 218
8 190 191 196 195 215 216 221 220
8 191 192 197 196 216 217 222 221
8 192 193 198 197 217 218 223 222
8 193 194 199 198 218 219 224 223
8 200 201 206 205 225 226 231 230
8 201 202 207 206 226 227 232 231
8 202 203 208 207 227 228 233 232
8 203 204 209 208 228 229 234 233
8 205 206 211 210 230 231 236 235
8 206 207 212 211 231 232 237 236
8 207 208 213 212 232 233 238 237
8 208 209 214 213 233 234 239 238
8 210 211 216 215 235 236 241 240
8 211 212 217 216 236 237 242 241
8 212 213 218 217 237 238 243 242
8 213 214 219 218 238 239 244 243
8 215 216 221 220 240 241 246 245
8 216 217 222 221 241 242 247 246
8 217 218 223 222 242 243 248 247
8 218 219 224 223 243 244 249 248
CELL_TYPES 128
12
12
12
12
12
12
12
12
12
12
12
12
12
12
12
12
12
12
12
12
12
12
12
12
12
12
12
12
12
12
12
12
12
12
12
12
12
12
12
12
12
12
12
12
12
12
12
12
12
12
12
12
12
12
12
12
12
12
12
12
12
12
12
12
12
12
12
12
12
12
12
12
12
12
12
12
12
12
12
12
12
12
12
12
12
12
12
12
12
12
12
12
12
12
12
12
12
12
12
12
12
12
12
12
12
12
12
12
12
12
12
12
12
12
12
12
12
12
12
12
12
12
12
12
12
12
12
12
POINT_DATA 250
VECTORS displacement float
0.000000000000e+00 0.000000000000e+00 0.000000000000e+00
0.000000000000e+00 0.000000000000e+00 0.000000000000e+00
0.000000000000e+00 0.000000000000e+00 0.000000000000e+00
0.000000000000e+00 0.000000000000e+00 0.000000000000e+00
0.000000000000e+00 0.000000000000e+00 0.000000000000e+00
0.000000000000e+00 0.000000000000e+00 0.000000000000e+00
0.000000000000e+00 0.000000000000e+00 0.000000000000e+00
0.000000000000e+00 0.000000000000e+00 0.000000000000e+00
0.000000000000e+00 0.000000000000e+00 0.000000000000e+00
0.000000000000e+00 0.000000000000e+00 0.000000000000e+00
0.000000000000e+00 0.000000000000e+00 0.000000000000e+00
0.000000000000e+00 0.000000000000e+00 0.000000000000e+00
0.000000000000e+00 0.000000000000e+00 0.000000000000e+00
0.000000000000e+00 0.000000000000e+00 0.000000000000e+00
0.000000000000e+00 0.000000000000e+00 0.000000000000e+00
0.000000000000e+00 0.000000000000e+00 0.000000000000e+00
0.000000000000e+00 0.000000000000e+00 0.000000000000e+00
0.000000000000e+00 0.000000000000e+00 0.000000000000e+00
0.000000000000e+00 0.000000000000e+00 0.000000000000e+00
0.000000000000e+00 0.000000000000e+00 0.000000000000e+00
0.000000000000e+00 0.000000000000e+00 0.000000000000e+00
0.000000000000e+00 0.000000000000e+00 0.000000000000e+00
0.000000000000e+00 0.000000000000e+00 0.000000000000e+00
0.000000000000e+00 0.000000000000e+00 0.000000000000e+00
0.000000000000e+00 0.000000000000e+00 0.000000000000e+00
0.000000000000e+00 0.000000000000e+00 0.000000000000e+00
0.000000000000e+00 0.000000000000e+00 0.000000000000e+00
0.000000000000e+00 0.000000000000e+00 0.000000000000e+00
0.000000000000e+00 0.000000000000e+00 0.000000000000e+00
0.000000000000e+00 0.000000000000e+00 0.000000000000e+00
0.000000000000e+00 0.000000000000e+00 0.000000000000e+00
0.000000000000e+00 0.000000000000e+00 0.000000000000e+00
0.000000000000e+00 0.000000000000e+00 0.000000000000e+00
0.000000000000e+00 0.000000000000e+00 0.000000000000e+00
0.000000000000e+00 0.000000000000e+00 0.000000000000e+00
0.000000000000e+00 0.000000000000e+00 0.000000000000e+00
0.000000000000e+00 0.000000000000e+00 0.000000000000e+00
0.000000000000e+00 0.000000000000e+00 0.000000000000e+00
0.000000000000e+00 0.000000000000e+00 0.000000000000e+00
0.000000000000e+00 0.000000000000e+00 0.000000000000e+00
0.000000000000e+00 0.000000000000e+00 0.000000000000e+00
0.000000000000e+00 0.000000000000e+00 0.000000000000e+00
0.000000000000e+00 0.000000000000e+00 0.000000000000e+00
0.000000000000e+00 0.000000000000e+00 0.000000000000e+00
0.000000000000e+00 0.000000000000e+00 0.000000000000e+00
0.000000000000e+00 0.000000000000e+00 0.000000000000e+00
0.000000000000e+00 0.000000000000e+00 0.000000000000e+00
0.000000000000e+00 0.000000000000e+00 0.000000000000e+00
0.000000000000e+00 0.000000000000e+00 0.000000000000e+00
0.000000000000e+00 0.000000000000e+00 0.000000000000e+00
0.000000000000e+00 0.000000000000e+00 0.000000000000e+00
0.000000000000e+00 0.000000000000e+00 0.000000000000e+00
0.000000000000e+00 0.000000000000e+00 0.000000000000e+00
0.000000000000e+00 0.000000000000e+00 0.000000000000e+00
0.000000000000e+00 0.000000000000e+00 0.000000000000e+00
0.000000000000e+00 0.000000000000e+00 0.000000000000e+00
0.000000000000e+00 0.000000000000e+00 0.000000000000e+00
0.000000000000e+00 0.000000000000e+00 0.000000000000e+00
0.000000000000e+00 0.000000000000e+00 0.000000000000e+00
0.000000000000e+00 0.000000000000e+00 0.000000000000e+00
0.000000000000e+00 0.000000000000e+00 0.000000000000e+00
0.000000000000e+00 0.000000000000e+00 0.000000000000e+00
0.000000000000e+00 0.000000000000e+00 0.000000000000e+00
0.000000000000e+00 0.000000000000e+00 0.000000000000e+00
0.000000000000e+00 0.000000000000e+00 0.000000000000e+00
0.000000000000e+00 0.000000000000e+00 0.000000000000e+00
0.000000000000e+00 0.000000000000e+00 0.000000000000e+00
0.000000000000e+00 0.000000000000e+00 0.000000000000e+00
0.000000000000e+00 0.000000000000e+00 0.000000000000e+00
0.000000000000e+00 0.000000000000e+00 0.000000000000e+00
0.000000000000e+00 0.000000000000e+00 0.000000000000e+00
0.000000000000e+00 0.000000000000e+00 0.000000000000e+00
0.000000000000e+00 0.000000000000e+00 0.000000000000e+00
0.000000000000e+00 0.000000000000e+00 0.000000000000e+00
0.000000000000e+00 0.000000000000e+00 0.000000000000e+00
0.000000000000e+00 0.000000000000e+00 0.000000000000e+00
0.000000000000e+00 0.000000000000e+00 0.000000000000e+00
0.000000000000e+00 0.000000000000e+00 0.000000000000e+00
0.000000000000e+00 0.000000000000e+00 0.000000000000e+00
0.000000000000e+00 0.000000000000e+00 0.000000000000e+00
0.000000000000e+00 0.000000000000e+00 0.000000000000e+00
0.000000000000e+00 0.000000000000e+00 0.000000000000e+00
0.000000000000e+00 0.000000000000e+00 0.000000000000e+00
0.000000000000e+00 0.000000000000e+00 0.000000000000e+00
0.000000000000e+00 0.000000000000e+00 0.000000000000e+00
0.000000000000e+00 0.000000000000e+00 0.000000000000e+00
0.000000000000e+00 0.000000000000e+00 0.000000000000e+00
0.000000000000e+00 0.000000000000e+00 0.000000000000e+00
0.000000000000e+00 0.000000000000e+00 0.000000000000e+00
0.000000000000e+00 0.000000000000e+00 0.000000000000e+00
0.000000000000e+00 0.000000000000e+00 0.000000000000e+00
0.000000000000e+00 0.000000000000e+00 0.000000000000e+00
0.000000000000e+00 0.000000000000e+00 0.000000000000e+00
0.000000000000e+00 0.000000000000e+00 0.000000000000e+00
0.000000000000e+00 0.000000000000e+00 0.000000000000e+00
0.000000000000e+00 0.000000000000e+00 0.000000000000e+00
0.000000000000e+00 0.000000000000e+00 0.000000000000e+00
0.000000000000e+00 0.000000000000e+00 0.000000000000e+00
0.000000000000e+00 0.000000000000e+00 0.000000000000e+00
0.000000000000e+00 0.000000000000e+00 0.000000000000e+00
0.000000000000e+00 0.000000000000e+00 0.000000000000e+00
0.000000000000e+00 0.000000000000e+00 0.000000000000e+00
0.000000000000e+00 0.000000000000e+00 0.000000000000e+00
0.000000000000e+00 0.000000000000e+00 0.000000000000e+00
0.000000000000e+00 0.000000000000e+00 0.000000000000e+00
0.000000000000e+00 0.000000000000e+00 0.000000000000e+00
0.000000000000e+00 0.000000000000e+00 0.000000000000e+00
0.000000000000e+00 0.000000000000e+00 0.000000000000e+00
0.000000000000e+00 0.000000000000e+00 0.000000000000e+00
0.000000000000e+00 0.000000000000e+00 0.000000000000e+00
0.000000000000e+00 0.000000000000e+00 0.000000000000e+00
0.000000000000e+00 0.000000000000e+00 0.000000000000e+00
0.000000000000e+00 0.000000000000e+00 0.000000000000e+00
0.000000000000e+00 0.000000000000e+00 0.000000000000e+00
0.000000000000e+00 0.000000000000e+00 0.000000000000e+00
0.000000000000e+00 0.000000000000e+00 0.000000000000e+00
0.000000000000e+00 0.000000000000e+00 0.000000000000e+00
0.000000000000e+00 0.000000000000e+00 0.000000000000e+00
0.000000000000e+00 0.000000000000e+00 0.000000000000e+00
0.000000000000e+00 0.000000000000e+00 0.000000000000e+00
0.000000000000e+00 0.000000000000e+00 0.000000000000e+00
0.000000000000e+00 0.000000000000e+00 0.000000000000e+00
0.000000000000e+00 0.000000000000e+00 0.000000000000e+00
0.000000000000e+00 0.000000000000e+00 0.000000000000e+00
0.000000000000e+00 0.000000000000e+00 0.000000000000e+00
9.359766310986e-14 4.764197990279e-15 -5.834681181677e-03
9.359756427431e-14 1.425624742815e-15 -5.834681181591e-03
9.359977065216e-14 -1.910604013346e-15 -5.834681181506e-03
9.360039018112e-14 -5.248812244071e-15 -5.834681181420e-03
9.360063210383e-14 -8.581660800971e-15 -5.834681181334e-03
9.693197966771e-14 4.763415245832e-15 -5.834681181666e-03
9.693366581625e-14 1.427172905045e-15 -5.834681181580e-03
9.693463627189e-14 -1.910864604768e-15 -5.834681181494e-03
9.693234683175e-14 -5.246974753674e-15 -5.834681181408e-03
9.692625403468e-14 -8.582407322503e-15 -5.834681181322e-03
1.002711755500e-13 4.766097914508e-15 -5.834681181654e-03
1.002672547911e-13 1.429929003632e-15 -5.834681181568e-03
1.002669456450e-13 -1.909852432075e-15 -5.834681181482e-03
1.002673393179e-13 -5.246893227585e-15 -5.834681181396e-03
1.002658037171e-13 -8.580670613794e-15 -5.834681181310e-03
1.036044776629e-13 4.769453055243e-15 -5.834681181642e-03
1.035994466109e-13 1.434309531494e-15 -5.834681181556e-03
1.035981521808e-13 -1.905392084226e-15 -5.834681181470e-03
1.036032839179e-13 -5.246536437684e-15 -5.834681181384e-03
1.036078061639e-13 -8.586127646600e-15 -5.834681181298e-03
1.069380300958e-13 4.771648126566e-15 -5.834681181630e-03
1.069358447012e-13 1.437328859330e-15 -5.834681181544e-03
1.069345871003e-13 -1.903695070459e-15 -5.834681181458e-03
1.069374950054e-13 -5.246692982664e-15 -5.834681181372e-03
1.069381215106e-13 -8.590362235954e-15 -5.834681181286e-03
4.891605142276e-14 -1.386991307687e-15 -5.834681181677e-03
4.891808904412e-14 -4.722582450280e-15 -5.834681181591e-03
4.891946240826e-14 -8.058517070434e-15 -5.834681181506e-03
4.892024426760e-14 -1.139460290361e-14 -5.834681181420e-03
4.892220075464e-14 -1.472994848499e-14 -5.834681181334e-03
5.225578262073e-14 -1.388185749873e-15 -5.834681181666e-03
5.225444626117e-14 -4.723076246306e-15 -5.834681181580e-03
5.225332426192e-14 -8.060163063322e-15 -5.834681181494e-03
5.225408683097e-14 -1.139613954130e-14 -5.834681181408e-03
5.225290478416e-14 -1.472979269001e-14 -5.834681181322e-03
5.558842635062e-14 -1.386558636749e-15 -5.834681181654e-03
5.558849115753e-14 -4.723811572046e-15 -5.834681181568e-03
5.558799322746e-14 -8.060492831137e-15 -5.834681181482e-03
5.558838495822e-14 -1.139606209922e-14 -5.834681181396e-03
5.558841449506e-14 -1.473392887536e-14 -5.834681181310e-03
5.892268889160e-14 -1.384232346293e-15 -5.834681181642e-03
5.892261264973e-14 -4.721058993949e-15 -5.834681181556e-03
5.892197331187e-14 -8.058216267943e-15 -5.834681181470e-03
5.892341917400e-14 -1.139679668987e-14 -5.834681181384e-03
5.892518985959e-14 -1.473367035797e-14 -5.834681181298e-03
6.225805727233e-14 -1.383299168188e-15 -5.834681181630e-03
6.225868920533e-14 -4.719589802960e-15 -5.834681181544e-03
6.226001494741e-14 -8.056889188516e-15 -5.834681181458e-03
6.225975124500e-14 -1.139796458588e-14 -5.834681181372e-03
6.226080204702e-14 -1.473155393507e-14 -5.834681181286e-03
4.239171075720e-15 -7.539547118028e-15 -5.834681181677e-03
4.239717535864e-15 -1.087427548646e-14 -5.834681181591e-03
4.239921115970e-15 -1.421014005742e-14 -5.834681181506e-03
4.240498704675e-15 -1.754642777656e-14 -5.834681181420e-03
4.242646910308e-15 -2.087752380996e-14 -5.834681181334e-03
7.574439009440e-15 -7.540354479029e-15 -5.834681181666e-03
7.574441685299e-15 -1.087486505078e-14 -5.834681181580e-03
7.573991254783e-15 -1.421012450403e-14 -5.834681181494e-03
7.575277133796e-15 -1.754550867944e-14 -5.834681181408e-03
7.573817054066e-15 -2.087865635552e-14 -5.834681181322e-03
1.090917041790e-14 -7.540879605346e-15 -5.834681181654e-03
1.090957423054e-14 -1.087627618684e-14 -5.834681181568e-03
1.090909123286e-14 -1.421058568691e-14 -5.834681181482e-03
1.091002369209e-14 -1.754618636886e-14 -5.834681181396e-03
1.090993901430e-14 -2.088300013760e-14 -5.834681181310e-03
1.424363720099e-14 -7.538568633355e-15 -5.834681181642e-03
1.424533612231e-14 -1.087502075616e-14 -5.834681181556e-03
1.424482520669e-14 -1.421027134816e-14 -5.834681181470e-03
1.424430233418e-14 -1.754607129634e-14 -5.834681181384e-03
1.424764795432e-14 -2.088290107776e-14 -5.834681181298e-03
1.758109433653e-14 -7.537476171503e-15 -5.834681181630e-03
1.758026913122e-14 -1.087392120443e-14 -5.834681181544e-03
1.758103713678e-14 -1.421044105264e-14 -5.834681181458e-03
1.758122374757e-14 -1.754540264072e-14 -5.834681181372e-03
1.758024819857e-14 -2.087996525295e-14 -5.834681181286e-03
-4.043955669959e-14 -1.369214284991e-14 -5.834681181677e-03
-4.043943505350e-14 -1.702765513003e-14 -5.834681181591e-03
-4.043956352905e-14 -2.036048648099e-14 -5.834681181506e-03
-4.043916212612e-14 -2.369548506476e-14 -5.834681181420e-03
-4.043844718465e-14 -2.702729471208e-14 -5.834681181334e-03
-3.710448954316e-14 -1.369317251948e-14 -5.834681181666e-03
-3.710556565415e-14 -1.702694268553e-14 -5.834681181580e-03
-3.710521004219e-14 -2.036137390522e-14 -5.834681181494e-03
-3.710429271761e-14 -2.369569353066e-14 -5.834681181408e-03
-3.710474640602e-14 -2.702839005959e-14 -5.834681181322e-03
-3.377165419052e-14 -1.369359038281e-14 -5.834681181654e-03
-3.376944557680e-14 -1.702843704251e-14 -5.834681181568e-03
-3.376943330070e-14 -2.036237398798e-14 -5.834681181482e-03
-3.376912215753e-14 -2.369617132083e-14 -5.834681181396e-03
-3.376948447806e-14 -2.703148920416e-14 -5.834681181310e-03
-3.043465369452e-14 -1.369294191942e-14 -5.834681181642e-03
-3.043259260827e-14 -1.702888180355e-14 -5.834681181556e-03
-3.043239192097e-14 -2.036372063424e-14 -5.834681181470e-03
-3.043231341027e-14 -2.369498326316e-14 -5.834681181384e-03
-3.043116863901e-14 -2.703236086640e-14 -5.834681181298e-03
-2.709703173182e-14 -1.369463107102e-14 -5.834681181630e-03
-2.709813166686e-14 -1.703082497173e-14 -5.834681181544e-03
-2.709699087388e-14 -2.036471295932e-14 -5.834681181458e-03
-2.709664691502e-14 -2.369553195816e-14 -5.834681181372e-03
-2.709623233631e-14 -2.702938257519e-14 -5.834681181286e-03
-8.511941796750e-14 -1.984514627388e-14 -5.834681181677e-03
-8.512049452188e-14 -2.317998125982e-14 -5.834681181591e-03
-8.512118690958e-14 -2.651201131416e-14 -5.834681181506e-03
-8.512031478180e-14 -2.984580244033e-14 -5.834681181420e-03
-8.511821665077e-14 -3.317924178206e-14 -5.834681181334e-03
-8.178523610328e-14 -1.984390684322e-14 -5.834681181666e-03
-8.178439165814e-14 -2.317851098678e-14 -5.834681181580e-03
-8.178504289632e-14 -2.651064517258e-14 -5.834681181494e-03
-8.178468987570e-14 -2.984504027234e-14 -5.834681181408e-03
-8.178659562739e-14 -3.317942518482e-14 -5.834681181322e-03
-7.845321033350e-14 -1.984506608487e-14 -5.834681181654e-03
-7.844999780909e-14 -2.317902814143e-14 -5.834681181568e-03
-7.844771707884e-14 -2.651336581678e-14 -5.834681181482e-03
-7.845093264417e-14 -2.984246349430e-14 -5.834681181396e-03
-7.845182074704e-14 -3.317952359593e-14 -5.834681181310e-03
-7.511526153818e-14 -1.985102594823e-14 -5.834681181642e-03
-7.511166883503e-14 -2.318471377494e-14 -5.834681181556e-03
-7.510777635679e-14 -2.651696704389e-14 -5.834681181470e-03
-7.510938999296e-14 -2.984585486460e-14 -5.834681181384e-03
-7.511249707333e-14 -3.317753675529e-14 -5.834681181298e-03
-7.177394307777e-14 -1.985342961085e-14 -5.834681181630e-03
-7.177447776025e-14 -2.318803597347e-14 -5.834681181544e-03
-7.177297254801e-14 -2.651682517343e-14 -5.834681181458e-03
-7.177228585088e-14 -2.984780804191e-14 -5.834681181372e-03
-7.177189985863e-14 -3.317565188772e-14 -5.834681181286e-03
SCALARS displacement_magnitude float 1
LOOKUP_TABLE default
0.000000000000e+00
0.000000000000e+00
0.000000000000e+00
0.000000000000e+00
0.000000000000e+00
0.000000000000e+00
0.000000000000e+00
0.000000000000e+00
0.000000000000e+00
0.000000000000e+00
0.000000000000e+00
0.000000000000e+00
0.000000000000e+00
0.000000000000e+00
0.000000000000e+00
0.000000000000e+00
0.000000000000e+00
0.000000000000e+00
0.000000000000e+00
0.000000000000e+00
0.000000000000e+00
0.000000000000e+00
0.000000000000e+00
0.000000000000e+00
0.000000000000e+00
0.000000000000e+00
0.000000000000e+00
0.000000000000e+00
0.000000000000e+00
0.000000000000e+00
0.000000000000e+00
0.000000000000e+00
0.000000000000e+00
0.000000000000e+00
0.000000000000e+00
0.000000000000e+00
0.000000000000e+00
0.000000000000e+00
0.000000000000e+00
0.000000000000e+00
0.000000000000e+00
0.000000000000e+00
0.000000000000e+00
0.000000000000e+00
0.000000000000e+00
0.000000000000e+00
0.000000000000e+00
0.000000000000e+00
0.000000000000e+00
0.000000000000e+00
0.000000000000e+00
0.000000000000e+00
0.000000000000e+00
0.000000000000e+00
0.000000000000e+00
0.000000000000e+00
0.000000000000e+00
0.000000000000e+00
0.000000000000e+00
0.000000000000e+00
0.000000000000e+00
0.000000000000e+00
0.000000000000e+00
0.000000000000e+00
0.000000000000e+00
0.000000000000e+00
0.000000000000e+00
0.000000000000e+00
0.000000000000e+00
0.000000000000e+00
0.000000000000e+00
0.000000000000e+00
0.000000000000e+00
0.000000000000e+00
0.000000000000e+00
0.000000000000e+00
0.000000000000e+00
0.000000000000e+00
0.000000000000e+00
0.000000000000e+00
0.000000000000e+00
0.000000000000e+00
0.000000000000e+00
0.000000000000e+00
0.000000000000e+00
0.000000000000e+00
0.000000000000e+00
0.000000000000e+00
0.000000000000e+00
0.000000000000e+00
0.000000000000e+00
0.000000000000e+00
0.000000000000e+00
0.000000000000e+00
0.000000000000e+00
0.000000000000e+00
0.000000000000e+00
0.000000000000e+00
0.000000000000e+00
0.000000000000e+00
0.000000000000e+00
0.000000000000e+00
0.000000000000e+00
0.000000000000e+00
0.000000000000e+00
0.000000000000e+00
0.000000000000e+00
0.000000000000e+00
0.000000000000e+00
0.000000000000e+00
0.000000000000e+00
0.000000000000e+00
0.000000000000e+00
0.000000000000e+00
0.000000000000e+00
0.000000000000e+00
0.000000000000e+00
0.000000000000e+00
0.000000000000e+00
0.000000000000e+00
0.000000000000e+00
0.000000000000e+00
0.000000000000e+00
0.000000000000e+00
0.000000000000e+00
5.834681181677e-03
5.834681181591e-03
5.834681181506e-03
5.834681181420e-03
5.834681181334e-03
5.834681181666e-03
5.834681181580e-03
5.834681181494e-03
5.834681181408e-03
5.834681181322e-03
5.834681181654e-03
5.834681181568e-03
5.834681181482e-03
5.834681181396e-03
5.834681181310e-03
5.834681181642e-03
5.834681181556e-03
5.834681181470e-03
5.834681181384e-03
5.834681181298e-03
5.834681181630e-03
5.834681181544e-03
5.834681181458e-03
5.834681181372e-03
5.834681181286e-03
5.834681181677e-03
5.834681181591e-03
5.834681181506e-03
5.834681181420e-03
5.834681181334e-03
5.834681181666e-03
5.834681181580e-03
5.834681181494e-03
5.834681181408e-03
5.834681181322e-03
5.834681181654e-03
5.834681181568e-03
5.834681181482e-03
5.834681181396e-03
5.834681181310e-03
5.834681181642e-03
5.834681181556e-03
5.834681181470e-03
5.834681181384e-03
5.834681181298e-03
5.834681181630e-03
5.834681181544e-03
5.834681181458e-03
5.834681181372e-03
5.834681181286e-03
5.834681181677e-03
5.834681181591e-03
5.834681181506e-03
5.834681181420e-03
5.834681181334e-03
5.834681181666e-03
5.834681181580e-03
5.834681181494e-03
5.834681181408e-03
5.834681181322e-03
5.834681181654e-03
5.834681181568e-03
5.834681181482e-03
5.834681181396e-03
5.834681181310e-03
5.834681181642e-03
5.834681181556e-03
5.834681181470e-03
5.834681181384e-03
5.834681181298e-03
5.834681181630e-03
5.834681181544e-03
5.834681181458e-03
5.834681181372e-03
5.834681181286e-03
5.834681181677e-03
5.834681181591e-03
5.834681181506e-03
5.834681181420e-03
5.834681181334e-03
5.834681181666e-03
5.834681181580e-03
5.834681181494e-03
5.834681181408e-03
5.834681181322e-03
5.834681181654e-03
5.834681181568e-03
5.834681181482e-03
5.834681181396e-03
5.834681181310e-03
5.834681181642e-03
5.834681181556e-03
5.834681181470e-03
5.834681181384e-03
5.834681181298e-03
5.834681181630e-03
5.834681181544e-03
5.834681181458e-03
5.834681181372e-03
5.834681181286e-03
5.834681181677e-03
5.834681181591e-03
5.834681181506e-03
5.834681181420e-03
5.834681181334e-03
5.834681181666e-03
5.834681181580e-03
5.834681181494e-03
5.834681181408e-03
5.834681181322e-03
5.834681181654e-03
5.834681181568e-03
5.834681181482e-03
5.834681181396e-03
5.834681181310e-03
5.834681181642e-03
5.834681181556e-03
5.834681181470e-03
5.834681181384e-03
5.834681181298e-03
5.834681181630e-03
5.834681181544e-03
5.834681181458e-03
5.834681181372e-03
5.834681181286e-03
CELL_DATA 128
SCALARS displacement_magnitude float 1
LOOKUP_TABLE default
0.000000000000e+00
0.000000000000e+00
0.000000000000e+00
0.000000000000e+00
0.000000000000e+00
0.000000000000e+00
0.000000000000e+00
0.000000000000e+00
0.000000000000e+00
0.000000000000e+00
0.000000000000e+00
0.000000000000e+00
0.000000000000e+00
0.000000000000e+00
0.000000000000e+00
0.000000000000e+00
0.000000000000e+00
0.000000000000e+00
0.000000000000e+00
0.000000000000e+00
0.000000000000e+00
0.000000000000e+00
0.000000000000e+00
0.000000000000e+00
0.000000000000e+00
0.000000000000e+00
0.000000000000e+00
0.000000000000e+00
0.000000000000e+00
0.000000000000e+00
0.000000000000e+00
0.000000000000e+00
0.000000000000e+00
0.000000000000e+00
0.000000000000e+00
0.000000000000e+00
0.000000000000e+00
0.000000000000e+00
0.000000000000e+00
0.000000000000e+00
0.000000000000e+00
0.000000000000e+00
0.000000000000e+00
0.000000000000e+00
0.000000000000e+00
0.000000000000e+00
0.000000000000e+00
0.000000000000e+00
0.000000000000e+00
0.000000000000e+00
0.000000000000e+00
0.000000000000e+00
0.000000000000e+00
0.000000000000e+00
0.000000000000e+00
0.000000000000e+00
0.000000000000e+00
0.000000000000e+00
0.000000000000e+00
0.000000000000e+00
0.000000000000e+00
0.000000000000e+00
0.000000000000e+00
0.000000000000e+00
5.834681181629e-03
5.834681181543e-03
5.834681181457e-03
5.834681181371e-03
5.834681181617e-03
5.834681181531e-03
5.834681181445e-03
5.834681181359e-03
5.834681181605e-03
5.834681181519e-03
5.834681181433e-03
5.834681181347e-03
5.834681181593e-03
5.834681181507e-03
5.834681181421e-03
5.834681181335e-03
5.834681181629e-03
5.834681181543e-03
5.834681181457e-03
5.834681181371e-03
5.834681181617e-03
5.834681181531e-03
5.834681181445e-03
5.834681181359e-03
5.834681181605e-03
5.834681181519e-03
5.834681181433e-03
5.834681181347e-03
5.834681181593e-03
5.834681181507e-03
5.834681181421e-03
5.834681181335e-03
5.834681181629e-03
5.834681181543e-03
5.834681181457e-03
5.834681181371e-03
5.834681181617e-03
5.834681181531e-03
5.834681181445e-03
5.834681181359e-03
5.834681181605e-03
5.834681181519e-03
5.834681181433e-03
5.834681181347e-03
5.834681181593e-03
5.834681181507e-03
5.834681181421e-03
5.834681181335e-03
5.834681181629e-03
5.834681181543e-03
5.834681181457e-03
5.834681181371e-03
5.834681181617e-03
5.834681181531e-03
5.834681181445e-03
5.834681181359e-03
5.834681181605e-03
5.834681181519e-03
5.834681181433e-03
5.834681181347e-03
5.834681181593e-03
5.834681181507e-03
5.834681181421e-03
5.834681181335e-03
SCALARS engineering_strain_norm float 1
LOOKUP_TABLE default
0.000000000000e+00
0.000000000000e+00
0.000000000000e+00
0.000000000000e+00
0.000000000000e+00
0.000000000000e+00
0.000000000000e+00
0.000000000000e+00
0.000000000000e+00
0.000000000000e+00
0.000000000000e+00
0.000000000000e+00
0.000000000000e+00
0.000000000000e+00
0.000000000000e+00
0.000000000000e+00
0.000000000000e+00
0.000000000000e+00
0.000000000000e+00
0.000000000000e+00
0.000000000000e+00
0.000000000000e+00
0.000000000000e+00
0.000000000000e+00
0.000000000000e+00
0.000000000000e+00
0.000000000000e+00
0.000000000000e+00
0.000000000000e+00
0.000000000000e+00
0.000000000000e+00
0.000000000000e+00
0.000000000000e+00
0.000000000000e+00
0.000000000000e+00
0.000000000000e+00
0.000000000000e+00
0.000000000000e+00
0.000000000000e+00
0.000000000000e+00
0.000000000000e+00
0.000000000000e+00
0.000000000000e+00
0.000000000000e+00
0.000000000000e+00
0.000000000000e+00
0.000000000000e+00
0.000000000000e+00
0.000000000000e+00
0.000000000000e+00
0.000000000000e+00
0.000000000000e+00
0.000000000000e+00
0.000000000000e+00
0.000000000000e+00
0.000000000000e+00
0.000000000000e+00
0.000000000000e+00
0.000000000000e+00
0.000000000000e+00
0.000000000000e+00
0.000000000000e+00
0.000000000000e+00
0.000000000000e+00
3.839010573089e-17
3.182016770959e-17
4.413153496421e-17
5.132767171469e-17
2.498074290405e-17
3.566962196875e-17
4.671075568093e-17
4.553478273640e-17
4.170587862900e-17
6.112532222680e-17
5.073013759122e-17
5.156649913396e-17
3.422506861793e-17
6.126281696616e-17
6.420921763020e-17
5.748763071478e-17
3.712554767055e-17
2.902726944448e-17
4.246231257834e-17
3.434427240439e-17
3.158530931028e-17
2.948841799774e-17
6.636292438152e-17
3.388222154761e-17
4.149699542734e-17
4.995576660528e-17
3.566105173934e-17
7.192069744155e-17
4.235380332397e-17
6.939348372969e-17
7.637705025097e-17
5.090654923463e-17
8.198679013014e-18
2.412537210324e-17
4.165418191404e-17
2.420186927856e-17
6.956168196637e-17
6.390243314741e-17
8.618011533003e-17
4.915240685229e-17
5.919278116199e-17
3.382230218165e-17
2.927455801062e-17
8.643987988876e-17
3.852833181562e-17
4.329381784416e-17
6.942603184303e-17
4.780068567017e-17
2.384227968477e-17
3.099658105257e-17
2.297873025932e-17
2.120806914006e-17
6.880834545631e-17
5.241638965976e-17
4.328215005546e-17
1.627870606052e-17
4.943625612806e-17
4.344029222894e-17
7.914342302739e-17
8.503992700607e-17
4.895795612402e-17
3.507487418318e-17
6.649332976461e-17
4.584524633046e-17
SCALARS von_mises float 1
LOOKUP_TABLE default
0.000000000000e+00
0.000000000000e+00
0.000000000000e+00
0.000000000000e+00
0.000000000000e+00
0.000000000000e+00
0.000000000000e+00
0.000000000000e+00
0.000000000000e+00
0.000000000000e+00
0.000000000000e+00
0.000000000000e+00
0.000000000000e+00
0.000000000000e+00
0.000000000000e+00
0.000000000000e+00
0.000000000000e+00
0.000000000000e+00
0.000000000000e+00
0.000000000000e+00
0.000000000000e+00
0.000000000000e+00
0.000000000000e+00
0.000000000000e+00
0.000000000000e+00
0.000000000000e+00
0.000000000000e+00
0.000000000000e+00
0.000000000000e+00
0.000000000000e+00
0.000000000000e+00
0.000000000000e+00
0.000000000000e+00
0.000000000000e+00
0.000000000000e+00
0.000000000000e+00
0.000000000000e+00
0.000000000000e+00
0.000000000000e+00
0.000000000000e+00
0.000000000000e+00
0.000000000000e+00
0.000000000000e+00
0.000000000000e+00
0.000000000000e+00
0.000000000000e+00
0.000000000000e+00
0.000000000000e+00
0.000000000000e+00
0.000000000000e+00
0.000000000000e+00
0.000000000000e+00
0.000000000000e+00
0.000000000000e+00
0.000000000000e+00
0.000000000000e+00
0.000000000000e+00
0.000000000000e+00
0.000000000000e+00
0.000000000000e+00
0.000000000000e+00
0.000000000000e+00
0.000000000000e+00
0.000000000000e+00
2.566247142350e-12
2.217925072917e-12
2.941822316672e-12
3.711182948596e-12
1.976809985125e-12
2.417817756129e-12
3.117511277247e-12
3.739202409754e-12
3.396639664519e-12
4.558122618933e-12
3.566988605166e-12
3.568966330991e-12
2.645304828219e-12
4.630486350906e-12
4.738915090810e-12
3.970118138247e-12
2.488811348129e-12
1.977924354966e-12
2.889129280821e-12
2.310995028349e-12
2.114237628227e-12
2.146560573554e-12
4.442336961868e-12
2.466634921556e-12
3.514035844028e-12
3.781477138476e-12
2.563092413269e-12
5.133651135633e-12
3.172916327037e-12
4.702128911049e-12
5.083087820525e-12
4.033176030893e-12
7.385734028116e-13
1.603809818886e-12
2.844562075438e-12
1.792814588392e-12
4.788099517747e-12
4.352723634479e-12
5.773759072911e-12
4.423862584535e-12
4.871145283897e-12
2.393214812837e-12
2.023463968396e-12
5.851738041284e-12
2.651823178935e-12
2.965558773315e-12
4.625121092446e-12
3.874250661664e-12
1.612579382555e-12
2.140458606876e-12
1.578091761328e-12
1.427283464766e-12
4.832520834608e-12
3.542094983698e-12
2.973817820237e-12
8.641167598485e-13
4.014049940604e-12
3.271463033768e-12
5.287617618788e-12
5.701182072220e-12
3.455380327869e-12
2.639819868609e-12
4.404988723972e-12
3.220232676402e-12
SCALARS sdf_gap float 1
LOOKUP_TABLE default
0.000000000000e+00
0.000000000000e+00
0.000000000000e+00
0.000000000000e+00
0.000000000000e+00
0.000000000000e+00
0.000000000000e+00
0.000000000000e+00
0.000000000000e+00
0.000000000000e+00
0.000000000000e+00
0.000000000000e+00
0.000000000000e+00
0.000000000000e+00
0.000000000000e+00
0.000000000000e+00
0.000000000000e+00
0.000000000000e+00
0.000000000000e+00
0.000000000000e+00
0.000000000000e+00
0.000000000000e+00
0.000000000000e+00
0.000000000000e+00
0.000000000000e+00
0.000000000000e+00
0.000000000000e+00
0.000000000000e+00
0.000000000000e+00
0.000000000000e+00
0.000000000000e+00
0.000000000000e+00
0.000000000000e+00
0.000000000000e+00
0.000000000000e+00
0.000000000000e+00
0.000000000000e+00
0.000000000000e+00
0.000000000000e+00
0.000000000000e+00
0.000000000000e+00
0.000000000000e+00
0.000000000000e+00
0.000000000000e+00
0.000000000000e+00
0.000000000000e+00
0.000000000000e+00
0.000000000000e+00
0.000000000000e+00
0.000000000000e+00
0.000000000000e+00
0.000000000000e+00
0.000000000000e+00
0.000000000000e+00
0.000000000000e+00
0.000000000000e+00
0.000000000000e+00
0.000000000000e+00
0.000000000000e+00
0.000000000000e+00
0.000000000000e+00
0.000000000000e+00
0.000000000000e+00
0.000000000000e+00
9.165318818371e-03
9.165318818457e-03
9.165318818543e-03
9.165318818629e-03
9.165318818383e-03
9.165318818469e-03
9.165318818555e-03
9.165318818641e-03
9.165318818395e-03
9.165318818481e-03
9.165318818567e-03
9.165318818653e-03
9.165318818407e-03
9.165318818493e-03
9.165318818579e-03
9.165318818665e-03
0.000000000000e+00
0.000000000000e+00
0.000000000000e+00
0.000000000000e+00
0.000000000000e+00
0.000000000000e+00
0.000000000000e+00
0.000000000000e+00
0.000000000000e+00
0.000000000000e+00
0.000000000000e+00
0.000000000000e+00
0.000000000000e+00
0.000000000000e+00
0.000000000000e+00
0.000000000000e+00
0.000000000000e+00
0.000000000000e+00
0.000000000000e+00
0.000000000000e+00
0.000000000000e+00
0.000000000000e+00
0.000000000000e+00
0.000000000000e+00
0.000000000000e+00
0.000000000000e+00
0.000000000000e+00
0.000000000000e+00
0.000000000000e+00
0.000000000000e+00
0.000000000000e+00
0.000000000000e+00
0.000000000000e+00
0.000000000000e+00
0.000000000000e+00
0.000000000000e+00
0.000000000000e+00
0.000000000000e+00
0.000000000000e+00
0.000000000000e+00
0.000000000000e+00
0.000000000000e+00
0.000000000000e+00
0.000000000000e+00
0.000000000000e+00
0.000000000000e+00
0.000000000000e+00
0.000000000000e+00
SCALARS contact_pressure float 1
LOOKUP_TABLE default
0.000000000000e+00
0.000000000000e+00
0.000000000000e+00
0.000000000000e+00
0.000000000000e+00
0.000000000000e+00
0.000000000000e+00
0.000000000000e+00
0.000000000000e+00
0.000000000000e+00
0.000000000000e+00
0.000000000000e+00
0.000000000000e+00
0.000000000000e+00
0.000000000000e+00
0.000000000000e+00
0.000000000000e+00
0.000000000000e+00
0.000000000000e+00
0.000000000000e+00
0.000000000000e+00
0.000000000000e+00
0.000000000000e+00
0.000000000000e+00
0.000000000000e+00
0.000000000000e+00
0.000000000000e+00
0.000000000000e+00
0.000000000000e+00
0.000000000000e+00
0.000000000000e+00
0.000000000000e+00
0.000000000000e+00
0.000000000000e+00
0.000000000000e+00
0.000000000000e+00
0.000000000000e+00
0.000000000000e+00
0.000000000000e+00
0.000000000000e+00
0.000000000000e+00
0.000000000000e+00
0.000000000000e+00
0.000000000000e+00
0.000000000000e+00
0.000000000000e+00
0.000000000000e+00
0.000000000000e+00
0.000000000000e+00
0.000000000000e+00
0.000000000000e+00
0.000000000000e+00
0.000000000000e+00
0.000000000000e+00
0.000000000000e+00
0.000000000000e+00
0.000000000000e+00
0.000000000000e+00
0.000000000000e+00
0.000000000000e+00
0.000000000000e+00
0.000000000000e+00
0.000000000000e+00
0.000000000000e+00
0.000000000000e+00
0.000000000000e+00
0.000000000000e+00
0.000000000000e+00
0.000000000000e+00
0.000000000000e+00
0.000000000000e+00
0.000000000000e+00
0.000000000000e+00
0.000000000000e+00
0.000000000000e+00
0.000000000000e+00
0.000000000000e+00
0.000000000000e+00
0.000000000000e+00
0.000000000000e+00
0.000000000000e+00
0.000000000000e+00
0.000000000000e+00
0.000000000000e+00
0.000000000000e+00
0.000000000000e+00
0.000000000000e+00
0.000000000000e+00
0.000000000000e+00
0.000000000000e+00
0.000000000000e+00
0.000000000000e+00
0.000000000000e+00
0.000000000000e+00
0.000000000000e+00
0.000000000000e+00
0.000000000000e+00
0.000000000000e+00
0.000000000000e+00
0.000000000000e+00
0.000000000000e+00
0.000000000000e+00
0.000000000000e+00
0.000000000000e+00
0.000000000000e+00
0.000000000000e+00
0.000000000000e+00
0.000000000000e+00
0.000000000000e+00
0.000000000000e+00
0.000000000000e+00
0.000000000000e+00
0.000000000000e+00
0.000000000000e+00
0.000000000000e+00
0.000000000000e+00
0.000000000000e+00
0.000000000000e+00
0.000000000000e+00
0.000000000000e+00
0.000000000000e+00
0.000000000000e+00
0.000000000000e+00
0.000000000000e+00
0.000000000000e+00
0.000000000000e+00
0.000000000000e+00
0.000000000000e+00
SCALARS active_contact float 1
LOOKUP_TABLE default
0.000000000000e+00
0.000000000000e+00
0.000000000000e+00
0.000000000000e+00
0.000000000000e+00
0.000000000000e+00
0.000000000000e+00
0.000000000000e+00
0.000000000000e+00
0.000000000000e+00
0.000000000000e+00
0.000000000000e+00
0.000000000000e+00
0.000000000000e+00
0.000000000000e+00
0.000000000000e+00
0.000000000000e+00
0.000000000000e+00
0.000000000000e+00
0.000000000000e+00
0.000000000000e+00
0.000000000000e+00
0.000000000000e+00
0.000000000000e+00
0.000000000000e+00
0.000000000000e+00
0.000000000000e+00
0.000000000000e+00
0.000000000000e+00
0.000000000000e+00
0.000000000000e+00
0.000000000000e+00
0.000000000000e+00
0.000000000000e+00
0.000000000000e+00
0.000000000000e+00
0.000000000000e+00
0.000000000000e+00
0.000000000000e+00
0.000000000000e+00
0.000000000000e+00
0.000000000000e+00
0.000000000000e+00
0.000000000000e+00
0.000000000000e+00
0.000000000000e+00
0.000000000000e+00
0.000000000000e+00
0.000000000000e+00
0.000000000000e+00
0.000000000000e+00
0.000000000000e+00
0.000000000000e+00
0.000000000000e+00
0.000000000000e+00
0.000000000000e+00
0.000000000000e+00
0.000000000000e+00
0.000000000000e+00
0.000000000000e+00
0.000000000000e+00
0.000000000000e+00
0.000000000000e+00
0.000000000000e+00
0.000000000000e+00
0.000000000000e+00
0.000000000000e+00
0.000000000000e+00
0.000000000000e+00
0.000000000000e+00
0.000000000000e+00
0.000000000000e+00
0.000000000000e+00
0.000000000000e+00
0.000000000000e+00
0.000000000000e+00
0.000000000000e+00
0.000000000000e+00
0.000000000000e+00
0.000000000000e+00
0.000000000000e+00
0.000000000000e+00
0.000000000000e+00
0.000000000000e+00
0.000000000000e+00
0.000000000000e+00
0.000000000000e+00
0.000000000000e+00
0.000000000000e+00
0.000000000000e+00
0.000000000000e+00
0.000000000000e+00
0.000000000000e+00
0.000000000000e+00
0.000000000000e+00
0.000000000000e+00
0.000000000000e+00
0.000000000000e+00
0.000000000000e+00
0.000000000000e+00
0.000000000000e+00
0.000000000000e+00
0.000000000000e+00
0.000000000000e+00
0.000000000000e+00
0.000000000000e+00
0.000000000000e+00
0.000000000000e+00
0.000000000000e+00
0.000000000000e+00
0.000000000000e+00
0.000000000000e+00
0.000000000000e+00
0.000000000000e+00
0.000000000000e+00
0.000000000000e+00
0.000000000000e+00
0.000000000000e+00
0.000000000000e+00
0.000000000000e+00
0.000000000000e+00
0.000000000000e+00
0.000000000000e+00
0.000000000000e+00
0.000000000000e+00
0.000000000000e+00
0.000000000000e+00
0.000000000000e+00
