# vtk DataFile Version 3.0
SFC long-time C3D8 dynamic frame 142 t=2.840000000000e+00
ASCII
DATASET UNSTRUCTURED_GRID
POINTS 250 float
-2.500000000000e-01 -2.500000000000e-01 0.000000000000e+00
-1.250000000000e-01 -2.500000000000e-01 0.000000000000e+00
0.000000000000e+00 -2.500000000000e-01 0.000000000000e+00
1.250000000000e-01 -2.500000000000e-01 0.000000000000e+00
2.500000000000e-01 -2.500000000000e-01 0.000000000000e+00
-2.500000000000e-01 -1.250000000000e-01 0.000000000000e+00
-1.250000000000e-01 -1.250000000000e-01 0.000000000000e+00
0.000000000000e+00 -1.250000000000e-01 0.000000000000e+00
1.250000000000e-01 -1.250000000000e-01 0.000000000000e+00
2.500000000000e-01 -1.250000000000e-01 0.000000000000e+00
-2.500000000000e-01 0.000000000000e+00 0.000000000000e+00
-1.250000000000e-01 0.000000000000e+00 0.000000000000e+00
0.000000000000e+00 0.000000000000e+00 0.000000000000e+00
1.250000000000e-01 0.000000000000e+00 0.000000000000e+00
2.500000000000e-01 0.000000000000e+00 0.000000000000e+00
-2.500000000000e-01 1.250000000000e-01 0.000000000000e+00
-1.250000000000e-01 1.250000000000e-01 0.000000000000e+00
0.000000000000e+00 1.250000000000e-01 0.000000000000e+00
1.250000000000e-01 1.250000000000e-01 0.000000000000e+00
2.500000000000e-01 1.250000000000e-01 0.000000000000e+00
-2.500000000000e-01 2.500000000000e-01 0.000000000000e+00
-1.250000000000e-01 2.500000000000e-01 0.000000000000e+00
0.000000000000e+00 2.500000000000e-01 0.000000000000e+00
1.250000000000e-01 2.500000000000e-01 0.000000000000e+00
2.500000000000e-01 2.500000000000e-01 0.000000000000e+00
-2.500000000000e-01 -2.500000000000e-01 6.000000000000e-02
-1.250000000000e-01 -2.500000000000e-01 6.000000000000e-02
0.000000000000e+00 -2.500000000000e-01 6.000000000000e-02
1.250000000000e-01 -2.500000000000e-01 6.000000000000e-02
2.500000000000e-01 -2.500000000000e-01 6.000000000000e-02
-2.500000000000e-01 -1.250000000000e-01 6.000000000000e-02
-1.250000000000e-01 -1.250000000000e-01 6.000000000000e-02
0.000000000000e+00 -1.250000000000e-01 6.000000000000e-02
1.250000000000e-01 -1.250000000000e-01 6.000000000000e-02
2.500000000000e-01 -1.250000000000e-01 6.000000000000e-02
-2.500000000000e-01 0.000000000000e+00 6.000000000000e-02
-1.250000000000e-01 0.000000000000e+00 6.000000000000e-02
0.000000000000e+00 0.000000000000e+00 6.000000000000e-02
1.250000000000e-01 0.000000000000e+00 6.000000000000e-02
2.500000000000e-01 0.000000000000e+00 6.000000000000e-02
-2.500000000000e-01 1.250000000000e-01 6.000000000000e-02
-1.250000000000e-01 1.250000000000e-01 6.000000000000e-02
0.000000000000e+00 1.250000000000e-01 6.000000000000e-02
1.250000000000e-01 1.250000000000e-01 6.000000000000e-02
2.500000000000e-01 1.250000000000e-01 6.000000000000e-02
-2.500000000000e-01 2.500000000000e-01 6.000000000000e-02
-1.250000000000e-01 2.500000000000e-01 6.000000000000e-02
0.000000000000e+00 2.500000000000e-01 6.000000000000e-02
1.250000000000e-01 2.500000000000e-01 6.000000000000e-02
2.500000000000e-01 2.500000000000e-01 6.000000000000e-02
-2.500000000000e-01 -2.500000000000e-01 1.200000000000e-01
-1.250000000000e-01 -2.500000000000e-01 1.200000000000e-01
0.000000000000e+00 -2.500000000000e-01 1.200000000000e-01
1.250000000000e-01 -2.500000000000e-01 1.200000000000e-01
2.500000000000e-01 -2.500000000000e-01 1.200000000000e-01
-2.500000000000e-01 -1.250000000000e-01 1.200000000000e-01
-1.250000000000e-01 -1.250000000000e-01 1.200000000000e-01
0.000000000000e+00 -1.250000000000e-01 1.200000000000e-01
1.250000000000e-01 -1.250000000000e-01 1.200000000000e-01
2.500000000000e-01 -1.250000000000e-01 1.200000000000e-01
-2.500000000000e-01 0.000000000000e+00 1.200000000000e-01
-1.250000000000e-01 0.000000000000e+00 1.200000000000e-01
0.000000000000e+00 0.000000000000e+00 1.200000000000e-01
1.250000000000e-01 0.000000000000e+00 1.200000000000e-01
2.500000000000e-01 0.000000000000e+00 1.200000000000e-01
-2.500000000000e-01 1.250000000000e-01 1.200000000000e-01
-1.250000000000e-01 1.250000000000e-01 1.200000000000e-01
0.000000000000e+00 1.250000000000e-01 1.200000000000e-01
1.250000000000e-01 1.250000000000e-01 1.200000000000e-01
2.500000000000e-01 1.250000000000e-01 1.200000000000e-01
-2.500000000000e-01 2.500000000000e-01 1.200000000000e-01
-1.250000000000e-01 2.500000000000e-01 1.200000000000e-01
0.000000000000e+00 2.500000000000e-01 1.200000000000e-01
1.250000000000e-01 2.500000000000e-01 1.200000000000e-01
2.500000000000e-01 2.500000000000e-01 1.200000000000e-01
-2.500000000000e-01 -2.500000000000e-01 1.800000000000e-01
-1.250000000000e-01 -2.500000000000e-01 1.800000000000e-01
0.000000000000e+00 -2.500000000000e-01 1.800000000000e-01
1.250000000000e-01 -2.500000000000e-01 1.800000000000e-01
2.500000000000e-01 -2.500000000000e-01 1.800000000000e-01
-2.500000000000e-01 -1.250000000000e-01 1.800000000000e-01
-1.250000000000e-01 -1.250000000000e-01 1.800000000000e-01
0.000000000000e+00 -1.250000000000e-01 1.800000000000e-01
1.250000000000e-01 -1.250000000000e-01 1.800000000000e-01
2.500000000000e-01 -1.250000000000e-01 1.800000000000e-01
-2.500000000000e-01 0.000000000000e+00 1.800000000000e-01
-1.250000000000e-01 0.000000000000e+00 1.800000000000e-01
0.000000000000e+00 0.000000000000e+00 1.800000000000e-01
1.250000000000e-01 0.000000000000e+00 1.800000000000e-01
2.500000000000e-01 0.000000000000e+00 1.800000000000e-01
-2.500000000000e-01 1.250000000000e-01 1.800000000000e-01
-1.250000000000e-01 1.250000000000e-01 1.800000000000e-01
0.000000000000e+00 1.250000000000e-01 1.800000000000e-01
1.250000000000e-01 1.250000000000e-01 1.800000000000e-01
2.500000000000e-01 1.250000000000e-01 1.800000000000e-01
-2.500000000000e-01 2.500000000000e-01 1.800000000000e-01
-1.250000000000e-01 2.500000000000e-01 1.800000000000e-01
0.000000000000e+00 2.500000000000e-01 1.800000000000e-01
1.250000000000e-01 2.500000000000e-01 1.800000000000e-01
2.500000000000e-01 2.500000000000e-01 1.800000000000e-01
-2.500000000000e-01 -2.500000000000e-01 2.400000000000e-01
-1.250000000000e-01 -2.500000000000e-01 2.400000000000e-01
0.000000000000e+00 -2.500000000000e-01 2.400000000000e-01
1.250000000000e-01 -2.500000000000e-01 2.400000000000e-01
2.500000000000e-01 -2.500000000000e-01 2.400000000000e-01
-2.500000000000e-01 -1.250000000000e-01 2.400000000000e-01
-1.250000000000e-01 -1.250000000000e-01 2.400000000000e-01
0.000000000000e+00 -1.250000000000e-01 2.400000000000e-01
1.250000000000e-01 -1.250000000000e-01 2.400000000000e-01
2.500000000000e-01 -1.250000000000e-01 2.400000000000e-01
-2.500000000000e-01 0.000000000000e+00 2.400000000000e-01
-1.250000000000e-01 0.000000000000e+00 2.400000000000e-01
0.000000000000e+00 0.000000000000e+00 2.400000000000e-01
1.250000000000e-01 0.000000000000e+00 2.400000000000e-01
2.500000000000e-01 0.000000000000e+00 2.400000000000e-01
-2.500000000000e-01 1.250000000000e-01 2.400000000000e-01
-1.250000000000e-01 1.250000000000e-01 2.400000000000e-01
0.000000000000e+00 1.250000000000e-01 2.400000000000e-01
1.250000000000e-01 1.250000000000e-01 2.400000000000e-01
2.500000000000e-01 1.250000000000e-01 2.400000000000e-01
-2.500000000000e-01 2.500000000000e-01 2.400000000000e-01
-1.250000000000e-01 2.500000000000e-01 2.400000000000e-01
0.000000000000e+00 2.500000000000e-01 2.400000000000e-01
1.250000000000e-01 2.500000000000e-01 2.400000000000e-01
2.500000000000e-01 2.500000000000e-01 2.400000000000e-01
-2.499999953477e-01 -2.499999955050e-01 2.448489870816e-01
-1.249999969958e-01 -2.499999970232e-01 2.448489676761e-01
2.441857535143e-10 -2.500000003023e-01 2.448489578725e-01
1.249999974841e-01 -2.499999970234e-01 2.448489681444e-01
2.499999958361e-01 -2.499999955054e-01 2.448489880182e-01
-2.499999968657e-01 -1.249999971531e-01 2.448489675269e-01
-1.249999973542e-01 -1.249999975116e-01 2.448489477226e-01
2.442805094701e-10 -1.249999996147e-01 2.448489377959e-01
1.249999978427e-01 -1.249999975118e-01 2.448489481909e-01
2.499999973543e-01 -1.249999971534e-01 2.448489684634e-01
-2.500000001446e-01 8.690050873475e-11 2.448489575739e-01
-1.249999994571e-01 8.680611041541e-11 2.448489376466e-01
2.443751424965e-10 8.671167452709e-11 2.448489276598e-01
1.249999999458e-01 8.661711872203e-11 2.448489381149e-01
2.500000006334e-01 8.652252785176e-11 2.448489585105e-01
-2.499999968655e-01 1.249999973269e-01 2.448489676967e-01
-1.249999973540e-01 1.249999976852e-01 2.448489478924e-01
2.444694642579e-10 1.249999997882e-01 2.448489379656e-01
1.249999978429e-01 1.249999976851e-01 2.448489483606e-01
2.499999973544e-01 1.249999973265e-01 2.448489686332e-01
-2.499999953473e-01 2.499999956788e-01 2.448489874212e-01
-1.249999969954e-01 2.499999971968e-01 2.448489680157e-01
2.445636757928e-10 2.500000004757e-01 2.448489582120e-01
1.249999974845e-01 2.499999971966e-01 2.448489684840e-01
2.499999958365e-01 2.499999956784e-01 2.448489883577e-01
-2.499999866799e-01 -2.499999867596e-01 3.098489871971e-01
-1.249999891874e-01 -2.499999885047e-01 3.098489690667e-01
1.224350638307e-10 -2.499999922105e-01 3.098489601717e-01
1.249999894323e-01 -2.499999885048e-01 3.098489695350e-01
2.499999869248e-01 -2.499999867599e-01 3.098489881337e-01
-2.499999884248e-01 -1.249999892671e-01 3.098489689175e-01
-1.249999893598e-01 -1.249999894397e-01 3.098489507881e-01
1.225298321000e-10 -1.249999914916e-01 3.098489419302e-01
1.249999896049e-01 -1.249999894399e-01 3.098489512564e-01
2.499999886698e-01 -1.249999892675e-01 3.098489698540e-01
-2.499999921304e-01 4.276077440156e-11 3.098489598732e-01
-1.249999914116e-01 4.266638707305e-11 3.098489417810e-01
1.226244725234e-10 4.257195150015e-11 3.098489327922e-01
1.249999916568e-01 4.247740023318e-11 3.098489422492e-01
2.499999923757e-01 4.238281144954e-11 3.098489608098e-01
-2.499999884246e-01 1.249999893526e-01 3.098489690872e-01
-1.249999893596e-01 1.249999895250e-01 3.098489509579e-01
1.227187941177e-10 1.249999915768e-01 3.098489421000e-01
1.249999896051e-01 1.249999895248e-01 3.098489514261e-01
2.499999886700e-01 1.249999893523e-01 3.098489700238e-01
-2.499999866795e-01 2.499999868451e-01 3.098489875367e-01
-1.249999891871e-01 2.499999885900e-01 3.098489694062e-01
1.228130062189e-10 2.499999922956e-01 3.098489605113e-01
1.249999894327e-01 2.499999885898e-01 3.098489698745e-01
2.499999869251e-01 2.499999868447e-01 3.098489884732e-01
-2.499999799895e-01 -2.499999799916e-01 3.748489824484e-01
-1.249999828901e-01 -2.499999821091e-01 3.748489674658e-01
6.843015176643e-13 -2.499999864107e-01 3.748489610972e-01
1.249999828914e-01 -2.499999821093e-01 3.748489679340e-01
2.499999799909e-01 -2.499999799920e-01 3.748489833849e-01
-2.499999821069e-01 -1.249999828921e-01 3.748489673165e-01
-1.249999829506e-01 -1.249999829528e-01 3.748489529722e-01
7.790807836015e-13 -1.249999850627e-01 3.748489470625e-01
1.249999829521e-01 -1.249999829530e-01 3.748489534405e-01
2.499999821085e-01 -1.249999828925e-01 3.748489682530e-01
-2.499999864083e-01 -1.378983941084e-12 3.748489607987e-01
-1.249999850603e-01 -1.473364103161e-12 3.748489469133e-01
8.737313139264e-13 -1.567797568169e-12 3.748489411353e-01
1.249999850621e-01 -1.662342976544e-12 3.748489473815e-01
2.499999864100e-01 -1.756936275657e-12 3.748489617352e-01
-2.499999821067e-01 1.249999828894e-01 3.748489674863e-01
-1.249999829504e-01 1.249999829499e-01 3.748489531420e-01
9.680517789131e-13 1.249999850596e-01 3.748489472323e-01
1.249999829523e-01 1.249999829497e-01 3.748489536103e-01
2.499999821086e-01 1.249999828890e-01 3.748489684228e-01
-2.499999799891e-01 2.499999799888e-01 3.748489827879e-01
-1.249999828897e-01 2.499999821062e-01 3.748489678053e-01
1.062252300755e-12 2.499999864076e-01 3.748489614367e-01
1.249999828918e-01 2.499999821060e-01 3.748489682736e-01
2.499999799913e-01 2.499999799884e-01 3.748489837245e-01
-2.499999729529e-01 -2.499999728774e-01 4.398489763792e-01
-1.249999785505e-01 -2.499999755056e-01 4.398489649813e-01
-1.210660862081e-10 -2.499999804676e-01 4.398489616203e-01
1.249999783084e-01 -2.499999755057e-01 4.398489654495e-01
2.499999727108e-01 -2.499999728777e-01 4.398489773158e-01
-2.499999755809e-01 -1.249999784750e-01 4.398489648320e-01
-1.249999786232e-01 -1.249999785478e-01 4.398489549112e-01
-1.209713117097e-10 -1.249999808886e-01 4.398489525542e-01
1.249999783813e-01 -1.249999785480e-01 4.398489553795e-01
2.499999753390e-01 -1.249999784754e-01 4.398489657685e-01
-2.499999805428e-01 -4.551860466748e-11 4.398489613218e-01
-1.249999809638e-01 -4.561298708953e-11 4.398489524049e-01
-1.208766430487e-10 -4.570741064821e-11 4.398489505535e-01
1.249999807220e-01 -4.580195584867e-11 4.398489528732e-01
2.499999803011e-01 -4.589654597385e-11 4.398489622583e-01
-2.499999755807e-01 1.249999783840e-01 4.398489650018e-01
-1.249999786230e-01 1.249999784566e-01 4.398489550810e-01
-1.207823283798e-10 1.249999807972e-01 4.398489527239e-01
1.249999783814e-01 1.249999784564e-01 4.398489555492e-01
2.499999753392e-01 1.249999783836e-01 4.398489659383e-01
-2.499999729525e-01 2.499999727863e-01 4.398489767188e-01
-1.249999785502e-01 2.499999754143e-01 4.398489653208e-01
-1.206881239461e-10 2.499999803762e-01 4.398489619598e-01
1.249999783088e-01 2.499999754141e-01 4.398489657891e-01
2.499999727111e-01 2.499999727859e-01 4.398489776553e-01
-2.499999671848e-01 -2.499999670316e-01 5.048489749851e-01
-1.249999758296e-01 -2.499999704912e-01 5.048489662855e-01
-2.428161971210e-10 -2.499999762224e-01 5.048489653189e-01
1.249999753440e-01 -2.499999704914e-01 5.048489667538e-01
2.499999666991e-01 -2.499999670320e-01 5.048489759217e-01
-2.499999706442e-01 -1.249999756764e-01 5.048489661363e-01
-1.249999764043e-01 -1.249999762513e-01 5.048489597520e-01
-2.427214150334e-10 -1.249999790897e-01 5.048489602714e-01
1.249999759188e-01 -1.249999762515e-01 5.048489602203e-01
2.499999701588e-01 -1.249999756768e-01 5.048489670728e-01
-2.499999763752e-01 -8.965812590432e-11 5.048489650204e-01
-1.249999792425e-01 -8.975250919983e-11 5.048489601222e-01
-2.426267407117e-10 -8.984692028701e-11 5.048489613483e-01
1.249999787572e-01 -8.994146136316e-11 5.048489605904e-01
2.499999758899e-01 -9.003605088026e-11 5.048489659569e-01
-2.499999706440e-01 1.249999754971e-01 5.048489663060e-01
-1.249999764041e-01 1.249999760718e-01 5.048489599218e-01
-2.425324155511e-10 1.249999789100e-01 5.048489604412e-01
1.249999759190e-01 1.249999760716e-01 5.048489603901e-01
2.499999701590e-01 1.249999754967e-01 5.048489672426e-01
-2.499999671844e-01 2.499999668523e-01 5.048489753247e-01
-1.249999758292e-01 2.499999703117e-01 5.048489666250e-01
-2.424382178541e-10 2.499999760427e-01 5.048489656584e-01
1.249999753443e-01 2.499999703116e-01 5.048489670933e-01
2.499999666995e-01 2.499999668519e-01 5.048489762612e-01
CELLS 128 1152
8 0 1 6 5 25 26 31 30
8 1 2 7 6 26 27 32 31
8 2 3 8 7 27 28 33 32
8 3 4 9 8 28 29 34 33
8 5 6 11 10 30 31 36 35
8 6 7 12 11 31 32 37 36
8 7 8 13 12 32 33 38 37
8 8 9 14 13 33 34 39 38
8 10 11 16 15 35 36 41 40
8 11 12 17 16 36 37 42 41
8 12 13 18 17 37 38 43 42
8 13 14 19 18 38 39 44 43
8 15 16 21 20 40 41 46 45
8 16 17 22 21 41 42 47 46
8 17 18 23 22 42 43 48 47
8 18 19 24 23 43 44 49 48
8 25 26 31 30 50 51 56 55
8 26 27 32 31 51 52 57 56
8 27 28 33 32 52 53 58 57
8 28 29 34 33 53 54 59 58
8 30 31 36 35 55 56 61 60
8 31 32 37 36 56 57 62 61
8 32 33 38 37 57 58 63 62
8 33 34 39 38 58 59 64 63
8 35 36 41 40 60 61 66 65
8 36 37 42 41 61 62 67 66
8 37 38 43 42 62 63 68 67
8 38 39 44 43 63 64 69 68
8 40 41 46 45 65 66 71 70
8 41 42 47 46 66 67 72 71
8 42 43 48 47 67 68 73 72
8 43 44 49 48 68 69 74 73
8 50 51 56 55 75 76 81 80
8 51 52 57 56 76 77 82 81
8 52 53 58 57 77 78 83 82
8 53 54 59 58 78 79 84 83
8 55 56 61 60 80 81 86 85
8 56 57 62 61 81 82 87 86
8 57 58 63 62 82 83 88 87
8 58 59 64 63 83 84 89 88
8 60 61 66 65 85 86 91 90
8 61 62 67 66 86 87 92 91
8 62 63 68 67 87 88 93 92
8 63 64 69 68 88 89 94 93
8 65 66 71 70 90 91 96 95
8 66 67 72 71 91 92 97 96
8 67 68 73 72 92 93 98 97
8 68 69 74 73 93 94 99 98
8 75 76 81 80 100 101 106 105
8 76 77 82 81 101 102 107 106
8 77 78 83 82 102 103 108 107
8 78 79 84 83 103 104 109 108
8 80 81 86 85 105 106 111 110
8 81 82 87 86 106 107 112 111
8 82 83 88 87 107 108 113 112
8 83 84 89 88 108 109 114 113
8 85 86 91 90 110 111 116 115
8 86 87 92 91 111 112 117 116
8 87 88 93 92 112 113 118 117
8 88 89 94 93 113 114 119 118
8 90 91 96 95 115 116 121 120
8 91 92 97 96 116 117 122 121
8 92 93 98 97 117 118 123 122
8 93 94 99 98 118 119 124 123
8 125 126 131 130 150 151 156 155
8 126 127 132 131 151 152 157 156
8 127 128 133 132 152 153 158 157
8 128 129 134 133 153 154 159 158
8 130 131 136 135 155 156 161 160
8 131 132 137 136 156 157 162 161
8 132 133 138 137 157 158 163 162
8 133 134 139 138 158 159 164 163
8 135 136 141 140 160 161 166 165
8 136 137 142 141 161 162 167 166
8 137 138 143 142 162 163 168 167
8 138 139 144 143 163 164 169 168
8 140 141 146 145 165 166 171 170
8 141 142 147 146 166 167 172 171
8 142 143 148 147 167 168 173 172
8 143 144 149 148 168 169 174 173
8 150 151 156 155 175 176 181 180
8 151 152 157 156 176 177 182 181
8 152 153 158 157 177 178 183 182
8 153 154 159 158 178 179 184 183
8 155 156 161 160 180 181 186 185
8 156 157 162 161 181 182 187 186
8 157 158 163 162 182 183 188 187
8 158 159 164 163 183 184 189 188
8 160 161 166 165 185 186 191 190
8 161 162 167 166 186 187 192 191
8 162 163 168 167 187 188 193 192
8 163 164 169 168 188 189 194 193
8 165 166 171 170 190 191 196 195
8 166 167 172 171 191 192 197 196
8 167 168 173 172 192 193 198 197
8 168 169 174 173 193 194 199 198
8 175 176 181 180 200 201 206 205
8 176 177 182 181 201 202 207 206
8 177 178 183 182 202 203 208 207
8 178 179 184 183 203 204 209 208
8 180 181 186 185 205 206 211 210
8 181 182 187 186 206 207 212 211
8 182 183 188 187 207 208 213 212
8 183 184 189 188 208 209 214 213
8 185 186 191 190 210 211 216 215
8 186 187 192 191 211 212 217 216
8 187 188 193 192 212 213 218 217
8 188 189 194 193 213 214 219 218
8 190 191 196 195 215 216 221 220
8 191 192 197 196 216 217 222 221
8 192 193 198 197 217 218 223 222
8 193 194 199 198 218 219 224 223
8 200 201 206 205 225 226 231 230
8 201 202 207 206 226 227 232 231
8 202 203 208 207 227 228 233 232
8 203 204 209 208 228 229 234 233
8 205 206 211 210 230 231 236 235
8 206 207 212 211 231 232 237 236
8 207 208 213 212 232 233 238 237
8 208 209 214 213 233 234 239 238
8 210 211 216 215 235 236 241 240
8 211 212 217 216 236 237 242 241
8 212 213 218 217 237 238 243 242
8 213 214 219 218 238 239 244 243
8 215 216 221 220 240 241 246 245
8 216 217 222 221 241 242 247 246
8 217 218 223 222 242 243 248 247
8 218 219 224 223 243 244 249 248
CELL_TYPES 128
12
12
12
12
12
12
12
12
12
12
12
12
12
12
12
12
12
12
12
12
12
12
12
12
12
12
12
12
12
12
12
12
12
12
12
12
12
12
12
12
12
12
12
12
12
12
12
12
12
12
12
12
12
12
12
12
12
12
12
12
12
12
12
12
12
12
12
12
12
12
12
12
12
12
12
12
12
12
12
12
12
12
12
12
12
12
12
12
12
12
12
12
12
12
12
12
12
12
12
12
12
12
12
12
12
12
12
12
12
12
12
12
12
12
12
12
12
12
12
12
12
12
12
12
12
12
12
12
POINT_DATA 250
VECTORS displacement float
0.000000000000e+00 0.000000000000e+00 0.000000000000e+00
0.000000000000e+00 0.000000000000e+00 0.000000000000e+00
0.000000000000e+00 0.000000000000e+00 0.000000000000e+00
0.000000000000e+00 0.000000000000e+00 0.000000000000e+00
0.000000000000e+00 0.000000000000e+00 0.000000000000e+00
0.000000000000e+00 0.000000000000e+00 0.000000000000e+00
0.000000000000e+00 0.000000000000e+00 0.000000000000e+00
0.000000000000e+00 0.000000000000e+00 0.000000000000e+00
0.000000000000e+00 0.000000000000e+00 0.000000000000e+00
0.000000000000e+00 0.000000000000e+00 0.000000000000e+00
0.000000000000e+00 0.000000000000e+00 0.000000000000e+00
0.000000000000e+00 0.000000000000e+00 0.000000000000e+00
0.000000000000e+00 0.000000000000e+00 0.000000000000e+00
0.000000000000e+00 0.000000000000e+00 0.000000000000e+00
0.000000000000e+00 0.000000000000e+00 0.000000000000e+00
0.000000000000e+00 0.000000000000e+00 0.000000000000e+00
0.000000000000e+00 0.000000000000e+00 0.000000000000e+00
0.000000000000e+00 0.000000000000e+00 0.000000000000e+00
0.000000000000e+00 0.000000000000e+00 0.000000000000e+00
0.000000000000e+00 0.000000000000e+00 0.000000000000e+00
0.000000000000e+00 0.000000000000e+00 0.000000000000e+00
0.000000000000e+00 0.000000000000e+00 0.000000000000e+00
0.000000000000e+00 0.000000000000e+00 0.000000000000e+00
0.000000000000e+00 0.000000000000e+00 0.000000000000e+00
0.000000000000e+00 0.000000000000e+00 0.000000000000e+00
0.000000000000e+00 0.000000000000e+00 0.000000000000e+00
0.000000000000e+00 0.000000000000e+00 0.000000000000e+00
0.000000000000e+00 0.000000000000e+00 0.000000000000e+00
0.000000000000e+00 0.000000000000e+00 0.000000000000e+00
0.000000000000e+00 0.000000000000e+00 0.000000000000e+00
0.000000000000e+00 0.000000000000e+00 0.000000000000e+00
0.000000000000e+00 0.000000000000e+00 0.000000000000e+00
0.000000000000e+00 0.000000000000e+00 0.000000000000e+00
0.000000000000e+00 0.000000000000e+00 0.000000000000e+00
0.000000000000e+00 0.000000000000e+00 0.000000000000e+00
0.000000000000e+00 0.000000000000e+00 0.000000000000e+00
0.000000000000e+00 0.000000000000e+00 0.000000000000e+00
0.000000000000e+00 0.000000000000e+00 0.000000000000e+00
0.000000000000e+00 0.000000000000e+00 0.000000000000e+00
0.000000000000e+00 0.000000000000e+00 0.000000000000e+00
0.000000000000e+00 0.000000000000e+00 0.000000000000e+00
0.000000000000e+00 0.000000000000e+00 0.000000000000e+00
0.000000000000e+00 0.000000000000e+00 0.000000000000e+00
0.000000000000e+00 0.000000000000e+00 0.000000000000e+00
0.000000000000e+00 0.000000000000e+00 0.000000000000e+00
0.000000000000e+00 0.000000000000e+00 0.000000000000e+00
0.000000000000e+00 0.000000000000e+00 0.000000000000e+00
0.000000000000e+00 0.000000000000e+00 0.000000000000e+00
0.000000000000e+00 0.000000000000e+00 0.000000000000e+00
0.000000000000e+00 0.000000000000e+00 0.000000000000e+00
0.000000000000e+00 0.000000000000e+00 0.000000000000e+00
0.000000000000e+00 0.000000000000e+00 0.000000000000e+00
0.000000000000e+00 0.000000000000e+00 0.000000000000e+00
0.000000000000e+00 0.000000000000e+00 0.000000000000e+00
0.000000000000e+00 0.000000000000e+00 0.000000000000e+00
0.000000000000e+00 0.000000000000e+00 0.000000000000e+00
0.000000000000e+00 0.000000000000e+00 0.000000000000e+00
0.000000000000e+00 0.000000000000e+00 0.000000000000e+00
0.000000000000e+00 0.000000000000e+00 0.000000000000e+00
0.000000000000e+00 0.000000000000e+00 0.000000000000e+00
0.000000000000e+00 0.000000000000e+00 0.000000000000e+00
0.000000000000e+00 0.000000000000e+00 0.000000000000e+00
0.000000000000e+00 0.000000000000e+00 0.000000000000e+00
0.000000000000e+00 0.000000000000e+00 0.000000000000e+00
0.000000000000e+00 0.000000000000e+00 0.000000000000e+00
0.000000000000e+00 0.000000000000e+00 0.000000000000e+00
0.000000000000e+00 0.000000000000e+00 0.000000000000e+00
0.000000000000e+00 0.000000000000e+00 0.000000000000e+00
0.000000000000e+00 0.000000000000e+00 0.000000000000e+00
0.000000000000e+00 0.000000000000e+00 0.000000000000e+00
0.000000000000e+00 0.000000000000e+00 0.000000000000e+00
0.000000000000e+00 0.000000000000e+00 0.000000000000e+00
0.000000000000e+00 0.000000000000e+00 0.000000000000e+00
0.000000000000e+00 0.000000000000e+00 0.000000000000e+00
0.000000000000e+00 0.000000000000e+00 0.000000000000e+00
0.000000000000e+00 0.000000000000e+00 0.000000000000e+00
0.000000000000e+00 0.000000000000e+00 0.000000000000e+00
0.000000000000e+00 0.000000000000e+00 0.000000000000e+00
0.000000000000e+00 0.000000000000e+00 0.000000000000e+00
0.000000000000e+00 0.000000000000e+00 0.000000000000e+00
0.000000000000e+00 0.000000000000e+00 0.000000000000e+00
0.000000000000e+00 0.000000000000e+00 0.000000000000e+00
0.000000000000e+00 0.000000000000e+00 0.000000000000e+00
0.000000000000e+00 0.000000000000e+00 0.000000000000e+00
0.000000000000e+00 0.000000000000e+00 0.000000000000e+00
0.000000000000e+00 0.000000000000e+00 0.000000000000e+00
0.000000000000e+00 0.000000000000e+00 0.000000000000e+00
0.000000000000e+00 0.000000000000e+00 0.000000000000e+00
0.000000000000e+00 0.000000000000e+00 0.000000000000e+00
0.000000000000e+00 0.000000000000e+00 0.000000000000e+00
0.000000000000e+00 0.000000000000e+00 0.000000000000e+00
0.000000000000e+00 0.000000000000e+00 0.000000000000e+00
0.000000000000e+00 0.000000000000e+00 0.000000000000e+00
0.000000000000e+00 0.000000000000e+00 0.000000000000e+00
0.000000000000e+00 0.000000000000e+00 0.000000000000e+00
0.000000000000e+00 0.000000000000e+00 0.000000000000e+00
0.000000000000e+00 0.000000000000e+00 0.000000000000e+00
0.000000000000e+00 0.000000000000e+00 0.000000000000e+00
0.000000000000e+00 0.000000000000e+00 0.000000000000e+00
0.000000000000e+00 0.000000000000e+00 0.000000000000e+00
0.000000000000e+00 0.000000000000e+00 0.000000000000e+00
0.000000000000e+00 0.000000000000e+00 0.000000000000e+00
0.000000000000e+00 0.000000000000e+00 0.000000000000e+00
0.000000000000e+00 0.000000000000e+00 0.000000000000e+00
0.000000000000e+00 0.000000000000e+00 0.000000000000e+00
0.000000000000e+00 0.000000000000e+00 0.000000000000e+00
0.000000000000e+00 0.000000000000e+00 0.000000000000e+00
0.000000000000e+00 0.000000000000e+00 0.000000000000e+00
0.000000000000e+00 0.000000000000e+00 0.000000000000e+00
0.000000000000e+00 0.000000000000e+00 0.000000000000e+00
0.000000000000e+00 0.000000000000e+00 0.000000000000e+00
0.000000000000e+00 0.000000000000e+00 0.000000000000e+00
0.000000000000e+00 0.000000000000e+00 0.000000000000e+00
0.000000000000e+00 0.000000000000e+00 0.000000000000e+00
0.000000000000e+00 0.000000000000e+00 0.000000000000e+00
0.000000000000e+00 0.000000000000e+00 0.000000000000e+00
0.000000000000e+00 0.000000000000e+00 0.000000000000e+00
0.000000000000e+00 0.000000000000e+00 0.000000000000e+00
0.000000000000e+00 0.000000000000e+00 0.000000000000e+00
0.000000000000e+00 0.000000000000e+00 0.000000000000e+00
0.000000000000e+00 0.000000000000e+00 0.000000000000e+00
0.000000000000e+00 0.000000000000e+00 0.000000000000e+00
0.000000000000e+00 0.000000000000e+00 0.000000000000e+00
0.000000000000e+00 0.000000000000e+00 0.000000000000e+00
0.000000000000e+00 0.000000000000e+00 0.000000000000e+00
4.652297239155e-09 4.495011839880e-09 -1.015101291839e-02
3.004224462025e-09 2.976835281368e-09 -1.015103232385e-02
2.441857535143e-10 -3.023103301801e-10 -1.015104212755e-02
-2.515852142540e-09 2.976646064962e-09 -1.015103185558e-02
-4.163924097080e-09 4.494632733618e-09 -1.015101198184e-02
3.134310212553e-09 2.846939243758e-09 -1.015103247311e-02
2.645841731416e-09 2.488367118436e-09 -1.015105227739e-02
2.442805094701e-10 3.852692662294e-10 -1.015106220412e-02
-2.157279731494e-09 2.488177845018e-09 -1.015105180912e-02
-2.645747262443e-09 2.846560383125e-09 -1.015103153656e-02
-1.446462526042e-10 8.690050873475e-11 -1.015104242605e-02
5.429330528847e-10 8.680611041541e-11 -1.015106235337e-02
2.443751424965e-10 8.671167452709e-11 -1.015107234019e-02
-5.418176541954e-11 8.661711872203e-11 -1.015106188510e-02
6.333984442337e-10 8.652252785176e-11 -1.015104148951e-02
3.134499093922e-09 -2.673137934934e-09 -1.015103230334e-02
2.646030592579e-09 -2.314754533144e-09 -1.015105210763e-02
2.444694642579e-10 -2.118455576382e-10 -1.015106203435e-02
-2.157090679790e-09 -2.314943251169e-09 -1.015105163935e-02
-2.645558231934e-09 -2.673515027262e-09 -1.015103136679e-02
4.652674775062e-09 -4.321210239503e-09 -1.015101257885e-02
3.004602076717e-09 -2.803222340411e-09 -1.015103198432e-02
2.445636757928e-10 4.757343612608e-10 -1.015104178801e-02
-2.515473900740e-09 -2.803411128103e-09 -1.015103151605e-02
-4.163545762143e-09 -4.321587071501e-09 -1.015101164231e-02
1.332010615264e-08 1.324043195650e-08 -1.015101280288e-02
1.081255090559e-08 1.149534847040e-08 -1.015103093329e-02
1.224350638307e-10 7.789524222051e-09 -1.015103982826e-02
-1.056768033316e-08 1.149515912705e-08 -1.015103046502e-02
-1.307523498424e-08 1.324005267281e-08 -1.015101186634e-02
1.157521222934e-08 1.073287674214e-08 -1.015103108254e-02
1.064018074142e-08 1.056031718132e-08 -1.015104921190e-02
1.225298321000e-10 8.508388889624e-09 -1.015105806979e-02
-1.039512046596e-08 1.056012795022e-08 -1.015104874363e-02
-1.133015120806e-08 1.073249794604e-08 -1.015103014600e-02
7.869577177388e-09 4.276077440156e-11 -1.015104012676e-02
8.588441614136e-09 4.266638707305e-11 -1.015105821904e-02
1.226244725234e-10 4.257195150015e-11 -1.015106720776e-02
-8.343192027021e-09 4.247740023318e-11 -1.015105775077e-02
-7.624326855296e-09 4.238281144954e-11 -1.015103919022e-02
1.157540107323e-08 -1.064735503107e-08 -1.015103091277e-02
1.064036961951e-08 -1.047498418493e-08 -1.015104904213e-02
1.227187941177e-10 -8.423244755164e-09 -1.015105790002e-02
-1.039493141320e-08 -1.047517292337e-08 -1.015104857386e-02
-1.132996210986e-08 -1.064773216142e-08 -1.015102997623e-02
1.332048361783e-08 -1.315491002891e-08 -1.015101246335e-02
1.081292854671e-08 -1.141001520106e-08 -1.015103059375e-02
1.228130062189e-10 -7.704379819849e-09 -1.015103948872e-02
-1.056730209631e-08 -1.141020382628e-08 -1.015103012548e-02
-1.307485657382e-08 -1.315528667092e-08 -1.015101152680e-02
2.001049179826e-08 2.000842871084e-08 -1.015101755161e-02
1.710992170712e-08 1.789085263391e-08 -1.015103253424e-02
6.843015176643e-13 1.358929108770e-08 -1.015103890285e-02
-1.710855283462e-08 1.789066318920e-08 -1.015103206597e-02
-2.000912234077e-08 2.000804929558e-08 -1.015101661507e-02
1.789310531116e-08 1.710785857962e-08 -1.015103268349e-02
1.704941015328e-08 1.704715763106e-08 -1.015104702778e-02
7.790807836015e-13 1.493725607233e-08 -1.015105293749e-02
-1.704785156484e-08 1.704696846055e-08 -1.015104655951e-02
-1.789154596747e-08 1.710747987160e-08 -1.015103174695e-02
1.359173300771e-08 -1.378983941084e-12 -1.015103920135e-02
1.493969774646e-08 -1.473364103161e-12 -1.015105308675e-02
8.737313139264e-13 -1.567797568169e-12 -1.015105886472e-02
-1.493794981588e-08 -1.662342976544e-12 -1.015105261848e-02
-1.358998430179e-08 -1.756936275657e-12 -1.015103826481e-02
1.789329411975e-08 -1.711061644742e-08 -1.015103251373e-02
1.704959905698e-08 -1.705010420867e-08 -1.015104685801e-02
9.680517789131e-13 -1.494039149020e-08 -1.015105276773e-02
-1.704766251838e-08 -1.705029298829e-08 -1.015104638974e-02
-1.789135681852e-08 -1.711099364749e-08 -1.015103157718e-02
2.001086922140e-08 -2.001118636334e-08 -1.015101721208e-02
1.711029938624e-08 -1.789379894175e-08 -1.015103219471e-02
1.062252300755e-12 -1.359242622209e-08 -1.015103856331e-02
-1.710817461792e-08 -1.789398744197e-08 -1.015103172644e-02
-2.000874386812e-08 -2.001156285160e-08 -1.015101627554e-02
2.704709659537e-08 2.712264440242e-08 -1.015102362075e-02
2.144945802126e-08 2.449444168918e-08 -1.015103501874e-02
-1.210660862081e-10 1.953235135265e-08 -1.015103837973e-02
-2.169159016888e-08 2.449425230780e-08 -1.015103455047e-02
-2.728922851782e-08 2.712226518898e-08 -1.015102268421e-02
2.441908341655e-08 2.152500570786e-08 -1.015103516799e-02
2.137680158822e-08 2.145215989803e-08 -1.015104508882e-02
-1.209713117097e-10 1.911140874115e-08 -1.015104744585e-02
-2.161874403614e-08 2.145197078860e-08 -1.015104462055e-02
-2.466102547953e-08 2.152462709818e-08 -1.015103423145e-02
1.945718232410e-08 -4.551860466748e-11 -1.015103867823e-02
1.903623957859e-08 -4.561298708953e-11 -1.015104759510e-02
-1.208766430487e-10 -4.570741064821e-11 -1.015104944651e-02
-1.927799264479e-08 -4.580195584867e-11 -1.015104712683e-02
-1.969893497324e-08 -4.589654597385e-11 -1.015103774169e-02
2.441927225039e-08 -2.161604290874e-08 -1.015103499823e-02
2.137699051760e-08 -2.154338581152e-08 -1.015104491905e-02
-1.207823283798e-10 -1.920282347790e-08 -1.015104727608e-02
-2.161855499627e-08 -2.154357463530e-08 -1.015104445078e-02
-2.466083634179e-08 -2.161642018337e-08 -1.015103406168e-02
2.704747409521e-08 -2.721368152164e-08 -1.015102328122e-02
2.144983574180e-08 -2.458566746579e-08 -1.015103467921e-02
-1.206881239461e-10 -1.962376593730e-08 -1.015103804019e-02
-2.169121196902e-08 -2.458585602090e-08 -1.015103421094e-02
-2.728885009555e-08 -2.721405818784e-08 -1.015102234468e-02
3.281523784529e-08 3.296839651879e-08 -1.015102501487e-02
2.417041223628e-08 2.950875321608e-08 -1.015103371449e-02
-2.428161971210e-10 2.377761135105e-08 -1.015103468110e-02
-2.465604508095e-08 2.950856389914e-08 -1.015103324622e-02
-3.330087107582e-08 3.296801751501e-08 -1.015102407833e-02
2.935578403148e-08 2.432357063612e-08 -1.015103386374e-02
2.359574894520e-08 2.374871797924e-08 -1.015104024797e-02
-2.427214150334e-10 2.091031426888e-08 -1.015103972857e-02
-2.408119207279e-08 2.374852891346e-08 -1.015103977970e-02
-2.984122738879e-08 2.432319211119e-08 -1.015103292720e-02
2.362483141506e-08 -8.965812590432e-11 -1.015103497960e-02
2.075753438176e-08 -8.975250919983e-11 -1.015103987782e-02
-2.426267407117e-10 -8.984692028701e-11 -1.015103865173e-02
-2.124278809957e-08 -8.994146136316e-11 -1.015103940955e-02
-2.411008530653e-08 -9.003605088026e-11 -1.015103404306e-02
2.935597288470e-08 -2.450288705290e-08 -1.015103369398e-02
2.359593789651e-08 -2.392822310057e-08 -1.015104007820e-02
-2.425324155511e-10 -2.109000820426e-08 -1.015103955881e-02
-2.408100303413e-08 -2.392841194942e-08 -1.015103960993e-02
-2.984103826293e-08 -2.450326438047e-08 -1.015103275744e-02
3.281561542346e-08 -3.314771307152e-08 -1.015102467533e-02
2.417078998910e-08 -2.968825841958e-08 -1.015103337496e-02
-2.424382178541e-10 -2.395730535709e-08 -1.015103434157e-02
-2.465566687891e-08 -2.968844702926e-08 -1.015103290669e-02
-3.330049268799e-08 -3.314808992380e-08 -1.015102373879e-02
SCALARS displacement_magnitude float 1
LOOKUP_TABLE default
0.000000000000e+00
0.000000000000e+00
0.000000000000e+00
0.000000000000e+00
0.000000000000e+00
0.000000000000e+00
0.000000000000e+00
0.000000000000e+00
0.000000000000e+00
0.000000000000e+00
0.000000000000e+00
0.000000000000e+00
0.000000000000e+00
0.000000000000e+00
0.000000000000e+00
0.000000000000e+00
0.000000000000e+00
0.000000000000e+00
0.000000000000e+00
0.000000000000e+00
0.000000000000e+00
0.000000000000e+00
0.000000000000e+00
0.000000000000e+00
0.000000000000e+00
0.000000000000e+00
0.000000000000e+00
0.000000000000e+00
0.000000000000e+00
0.000000000000e+00
0.000000000000e+00
0.000000000000e+00
0.000000000000e+00
0.000000000000e+00
0.000000000000e+00
0.000000000000e+00
0.000000000000e+00
0.000000000000e+00
0.000000000000e+00
0.000000000000e+00
0.000000000000e+00
0.000000000000e+00
0.000000000000e+00
0.000000000000e+00
0.000000000000e+00
0.000000000000e+00
0.000000000000e+00
0.000000000000e+00
0.000000000000e+00
0.000000000000e+00
0.000000000000e+00
0.000000000000e+00
0.000000000000e+00
0.000000000000e+00
0.000000000000e+00
0.000000000000e+00
0.000000000000e+00
0.000000000000e+00
0.000000000000e+00
0.000000000000e+00
0.000000000000e+00
0.000000000000e+00
0.000000000000e+00
0.000000000000e+00
0.000000000000e+00
0.000000000000e+00
0.000000000000e+00
0.000000000000e+00
0.000000000000e+00
0.000000000000e+00
0.000000000000e+00
0.000000000000e+00
0.000000000000e+00
0.000000000000e+00
0.000000000000e+00
0.000000000000e+00
0.000000000000e+00
0.000000000000e+00
0.000000000000e+00
0.000000000000e+00
0.000000000000e+00
0.000000000000e+00
0.000000000000e+00
0.000000000000e+00
0.000000000000e+00
0.000000000000e+00
0.000000000000e+00
0.000000000000e+00
0.000000000000e+00
0.000000000000e+00
0.000000000000e+00
0.000000000000e+00
0.000000000000e+00
0.000000000000e+00
0.000000000000e+00
0.000000000000e+00
0.000000000000e+00
0.000000000000e+00
0.000000000000e+00
0.000000000000e+00
0.000000000000e+00
0.000000000000e+00
0.000000000000e+00
0.000000000000e+00
0.000000000000e+00
0.000000000000e+00
0.000000000000e+00
0.000000000000e+00
0.000000000000e+00
0.000000000000e+00
0.000000000000e+00
0.000000000000e+00
0.000000000000e+00
0.000000000000e+00
0.000000000000e+00
0.000000000000e+00
0.000000000000e+00
0.000000000000e+00
0.000000000000e+00
0.000000000000e+00
0.000000000000e+00
0.000000000000e+00
0.000000000000e+00
0.000000000000e+00
0.000000000000e+00
1.015101291839e-02
1.015103232385e-02
1.015104212755e-02
1.015103185558e-02
1.015101198184e-02
1.015103247311e-02
1.015105227739e-02
1.015106220412e-02
1.015105180912e-02
1.015103153656e-02
1.015104242605e-02
1.015106235337e-02
1.015107234019e-02
1.015106188510e-02
1.015104148951e-02
1.015103230334e-02
1.015105210763e-02
1.015106203435e-02
1.015105163935e-02
1.015103136679e-02
1.015101257885e-02
1.015103198432e-02
1.015104178801e-02
1.015103151605e-02
1.015101164231e-02
1.015101280290e-02
1.015103093330e-02
1.015103982826e-02
1.015103046503e-02
1.015101186636e-02
1.015103108255e-02
1.015104921191e-02
1.015105806980e-02
1.015104874364e-02
1.015103014601e-02
1.015104012677e-02
1.015105821905e-02
1.015106720776e-02
1.015105775078e-02
1.015103919022e-02
1.015103091278e-02
1.015104904214e-02
1.015105790003e-02
1.015104857387e-02
1.015102997624e-02
1.015101246336e-02
1.015103059376e-02
1.015103948873e-02
1.015103012549e-02
1.015101152682e-02
1.015101755165e-02
1.015103253427e-02
1.015103890285e-02
1.015103206600e-02
1.015101661511e-02
1.015103268352e-02
1.015104702781e-02
1.015105293751e-02
1.015104655954e-02
1.015103174698e-02
1.015103920136e-02
1.015105308676e-02
1.015105886472e-02
1.015105261849e-02
1.015103826482e-02
1.015103251376e-02
1.015104685804e-02
1.015105276774e-02
1.015104638977e-02
1.015103157721e-02
1.015101721212e-02
1.015103219474e-02
1.015103856332e-02
1.015103172647e-02
1.015101627557e-02
1.015102362083e-02
1.015103501879e-02
1.015103837975e-02
1.015103455052e-02
1.015102268428e-02
1.015103516805e-02
1.015104508886e-02
1.015104744586e-02
1.015104462059e-02
1.015103423150e-02
1.015103867825e-02
1.015104759512e-02
1.015104944651e-02
1.015104712685e-02
1.015103774171e-02
1.015103499828e-02
1.015104491909e-02
1.015104727610e-02
1.015104445082e-02
1.015103406174e-02
1.015102328129e-02
1.015103467926e-02
1.015103804021e-02
1.015103421099e-02
1.015102234475e-02
1.015102501497e-02
1.015103371456e-02
1.015103468113e-02
1.015103324630e-02
1.015102407843e-02
1.015103386382e-02
1.015104024803e-02
1.015103972859e-02
1.015103977976e-02
1.015103292728e-02
1.015103497963e-02
1.015103987785e-02
1.015103865173e-02
1.015103940958e-02
1.015103404309e-02
1.015103369405e-02
1.015104007826e-02
1.015103955883e-02
1.015103960999e-02
1.015103275751e-02
1.015102467544e-02
1.015103337503e-02
1.015103434159e-02
1.015103290676e-02
1.015102373890e-02
CELL_DATA 128
SCALARS displacement_magnitude float 1
LOOKUP_TABLE default
0.000000000000e+00
0.000000000000e+00
0.000000000000e+00
0.000000000000e+00
0.000000000000e+00
0.000000000000e+00
0.000000000000e+00
0.000000000000e+00
0.000000000000e+00
0.000000000000e+00
0.000000000000e+00
0.000000000000e+00
0.000000000000e+00
0.000000000000e+00
0.000000000000e+00
0.000000000000e+00
0.000000000000e+00
0.000000000000e+00
0.000000000000e+00
0.000000000000e+00
0.000000000000e+00
0.000000000000e+00
0.000000000000e+00
0.000000000000e+00
0.000000000000e+00
0.000000000000e+00
0.000000000000e+00
0.000000000000e+00
0.000000000000e+00
0.000000000000e+00
0.000000000000e+00
0.000000000000e+00
0.000000000000e+00
0.000000000000e+00
0.000000000000e+00
0.000000000000e+00
0.000000000000e+00
0.000000000000e+00
0.000000000000e+00
0.000000000000e+00
0.000000000000e+00
0.000000000000e+00
0.000000000000e+00
0.000000000000e+00
0.000000000000e+00
0.000000000000e+00
0.000000000000e+00
0.000000000000e+00
0.000000000000e+00
0.000000000000e+00
0.000000000000e+00
0.000000000000e+00
0.000000000000e+00
0.000000000000e+00
0.000000000000e+00
0.000000000000e+00
0.000000000000e+00
0.000000000000e+00
0.000000000000e+00
0.000000000000e+00
0.000000000000e+00
0.000000000000e+00
0.000000000000e+00
0.000000000000e+00
1.015103175293e-02
1.015104587202e-02
1.015104563789e-02
1.015103105052e-02
1.015104602127e-02
1.015106023545e-02
1.015106000131e-02
1.015104531887e-02
1.015104593639e-02
1.015106015057e-02
1.015105991643e-02
1.015104523398e-02
1.015103149827e-02
1.015104561737e-02
1.015104538324e-02
1.015103079587e-02
1.015103172849e-02
1.015104368071e-02
1.015104344658e-02
1.015103102608e-02
1.015104382996e-02
1.015105557816e-02
1.015105534403e-02
1.015104312756e-02
1.015104374508e-02
1.015105549328e-02
1.015105525914e-02
1.015104304267e-02
1.015103147384e-02
1.015104342606e-02
1.015104319193e-02
1.015103077143e-02
1.015103358672e-02
1.015104216696e-02
1.015104193283e-02
1.015103288432e-02
1.015104231621e-02
1.015105018664e-02
1.015104995251e-02
1.015104161381e-02
1.015104223133e-02
1.015105010176e-02
1.015104986762e-02
1.015104152893e-02
1.015103333207e-02
1.015104191231e-02
1.015104167818e-02
1.015103262967e-02
1.015103396724e-02
1.015103928820e-02
1.015103905406e-02
1.015103326483e-02
1.015103943745e-02
1.015104351032e-02
1.015104327618e-02
1.015103873504e-02
1.015103935257e-02
1.015104342543e-02
1.015104319130e-02
1.015103865016e-02
1.015103371259e-02
1.015103903355e-02
1.015103879941e-02
1.015103301018e-02
SCALARS engineering_strain_norm float 1
LOOKUP_TABLE default
0.000000000000e+00
0.000000000000e+00
0.000000000000e+00
0.000000000000e+00
0.000000000000e+00
0.000000000000e+00
0.000000000000e+00
0.000000000000e+00
0.000000000000e+00
0.000000000000e+00
0.000000000000e+00
0.000000000000e+00
0.000000000000e+00
0.000000000000e+00
0.000000000000e+00
0.000000000000e+00
0.000000000000e+00
0.000000000000e+00
0.000000000000e+00
0.000000000000e+00
0.000000000000e+00
0.000000000000e+00
0.000000000000e+00
0.000000000000e+00
0.000000000000e+00
0.000000000000e+00
0.000000000000e+00
0.000000000000e+00
0.000000000000e+00
0.000000000000e+00
0.000000000000e+00
0.000000000000e+00
0.000000000000e+00
0.000000000000e+00
0.000000000000e+00
0.000000000000e+00
0.000000000000e+00
0.000000000000e+00
0.000000000000e+00
0.000000000000e+00
0.000000000000e+00
0.000000000000e+00
0.000000000000e+00
0.000000000000e+00
0.000000000000e+00
0.000000000000e+00
0.000000000000e+00
0.000000000000e+00
0.000000000000e+00
0.000000000000e+00
0.000000000000e+00
0.000000000000e+00
0.000000000000e+00
0.000000000000e+00
0.000000000000e+00
0.000000000000e+00
0.000000000000e+00
0.000000000000e+00
0.000000000000e+00
0.000000000000e+00
0.000000000000e+00
0.000000000000e+00
0.000000000000e+00
0.000000000000e+00
4.681536437067e-08
7.767963041228e-08
7.767962461477e-08
4.681536094405e-08
7.767963039216e-08
9.211252138749e-08
9.211251502012e-08
7.767962464779e-08
7.767962829353e-08
9.211251906227e-08
9.211251278770e-08
7.767962258140e-08
4.681536312503e-08
7.767962834455e-08
7.767962255308e-08
4.681535968682e-08
5.706301818475e-08
1.216542406717e-07
1.216542361017e-07
5.706302071755e-08
1.216542410001e-07
1.664184152184e-07
1.664184096580e-07
1.216542353761e-07
1.216542393722e-07
1.664184132196e-07
1.664184076024e-07
1.216542336836e-07
5.706301901088e-08
1.216542386618e-07
1.216542340423e-07
5.706302158156e-08
5.771869163209e-08
1.590945386961e-07
1.590945367386e-07
5.771869644716e-08
1.590945395273e-07
2.234177407730e-07
2.234177373922e-07
1.590945349646e-07
1.590945388348e-07
2.234177395414e-07
2.234177360963e-07
1.590945342413e-07
5.771869333844e-08
1.590945370715e-07
1.590945350900e-07
5.771869818259e-08
7.639297090968e-08
1.993235414799e-07
1.993235424751e-07
7.639296876031e-08
1.993235430652e-07
2.708419934102e-07
2.708419929686e-07
1.993235390200e-07
1.993235434349e-07
2.708419932474e-07
2.708419927729e-07
1.993235393666e-07
7.639297010776e-08
1.993235399802e-07
1.993235409878e-07
7.639296788075e-08
SCALARS von_mises float 1
LOOKUP_TABLE default
0.000000000000e+00
0.000000000000e+00
0.000000000000e+00
0.000000000000e+00
0.000000000000e+00
0.000000000000e+00
0.000000000000e+00
0.000000000000e+00
0.000000000000e+00
0.000000000000e+00
0.000000000000e+00
0.000000000000e+00
0.000000000000e+00
0.000000000000e+00
0.000000000000e+00
0.000000000000e+00
0.000000000000e+00
0.000000000000e+00
0.000000000000e+00
0.000000000000e+00
0.000000000000e+00
0.000000000000e+00
0.000000000000e+00
0.000000000000e+00
0.000000000000e+00
0.000000000000e+00
0.000000000000e+00
0.000000000000e+00
0.000000000000e+00
0.000000000000e+00
0.000000000000e+00
0.000000000000e+00
0.000000000000e+00
0.000000000000e+00
0.000000000000e+00
0.000000000000e+00
0.000000000000e+00
0.000000000000e+00
0.000000000000e+00
0.000000000000e+00
0.000000000000e+00
0.000000000000e+00
0.000000000000e+00
0.000000000000e+00
0.000000000000e+00
0.000000000000e+00
0.000000000000e+00
0.000000000000e+00
0.000000000000e+00
0.000000000000e+00
0.000000000000e+00
0.000000000000e+00
0.000000000000e+00
0.000000000000e+00
0.000000000000e+00
0.000000000000e+00
0.000000000000e+00
0.000000000000e+00
0.000000000000e+00
0.000000000000e+00
0.000000000000e+00
0.000000000000e+00
0.000000000000e+00
0.000000000000e+00
3.628219683139e-03
6.823210468617e-03
6.823209950431e-03
3.628219263694e-03
6.823210480219e-03
8.398047599311e-03
8.398047089806e-03
6.823209927871e-03
6.823210293036e-03
8.398047414231e-03
8.398046909640e-03
6.823209741934e-03
3.628219531898e-03
6.823210271637e-03
6.823209752523e-03
3.628219108760e-03
3.285461096717e-03
1.009004307582e-02
1.009004264387e-02
3.285461360081e-03
1.009004313042e-02
1.407465580954e-02
1.407465530841e-02
1.009004252304e-02
1.009004297692e-02
1.407465563068e-02
1.407465512197e-02
1.009004236340e-02
3.285461185898e-03
1.009004285795e-02
1.009004242180e-02
3.285461452543e-03
2.126773158309e-03
1.276227667159e-02
1.276227640318e-02
2.126773736378e-03
1.276227678583e-02
1.782487147824e-02
1.782487107560e-02
1.276227615728e-02
1.276227669011e-02
1.782487133220e-02
1.782487092204e-02
1.276227606097e-02
2.126773362085e-03
1.276227644798e-02
1.276227617804e-02
2.126773943840e-03
5.754946799090e-03
1.702350463548e-02
1.702350467005e-02
5.754946420221e-03
1.702350479354e-02
2.240489218543e-02
2.240489208855e-02
1.702350432469e-02
1.702350480781e-02
2.240489215048e-02
2.240489204974e-02
1.702350433678e-02
5.754946660591e-03
1.702350446174e-02
1.702350449881e-02
5.754946272707e-03
SCALARS sdf_gap float 1
LOOKUP_TABLE default
0.000000000000e+00
0.000000000000e+00
0.000000000000e+00
0.000000000000e+00
0.000000000000e+00
0.000000000000e+00
0.000000000000e+00
0.000000000000e+00
0.000000000000e+00
0.000000000000e+00
0.000000000000e+00
0.000000000000e+00
0.000000000000e+00
0.000000000000e+00
0.000000000000e+00
0.000000000000e+00
0.000000000000e+00
0.000000000000e+00
0.000000000000e+00
0.000000000000e+00
0.000000000000e+00
0.000000000000e+00
0.000000000000e+00
0.000000000000e+00
0.000000000000e+00
0.000000000000e+00
0.000000000000e+00
0.000000000000e+00
0.000000000000e+00
0.000000000000e+00
0.000000000000e+00
0.000000000000e+00
0.000000000000e+00
0.000000000000e+00
0.000000000000e+00
0.000000000000e+00
0.000000000000e+00
0.000000000000e+00
0.000000000000e+00
0.000000000000e+00
0.000000000000e+00
0.000000000000e+00
0.000000000000e+00
0.000000000000e+00
0.000000000000e+00
0.000000000000e+00
0.000000000000e+00
0.000000000000e+00
0.000000000000e+00
0.000000000000e+00
0.000000000000e+00
0.000000000000e+00
0.000000000000e+00
0.000000000000e+00
0.000000000000e+00
0.000000000000e+00
0.000000000000e+00
0.000000000000e+00
0.000000000000e+00
0.000000000000e+00
0.000000000000e+00
0.000000000000e+00
0.000000000000e+00
0.000000000000e+00
4.848967501815e-03
4.848952766771e-03
4.848953000907e-03
4.848968204223e-03
4.848952617519e-03
4.848937706230e-03
4.848937940365e-03
4.848953319927e-03
4.848952702403e-03
4.848937791114e-03
4.848938025249e-03
4.848953404811e-03
4.848967756467e-03
4.848953021423e-03
4.848953255559e-03
4.848968458875e-03
0.000000000000e+00
0.000000000000e+00
0.000000000000e+00
0.000000000000e+00
0.000000000000e+00
0.000000000000e+00
0.000000000000e+00
0.000000000000e+00
0.000000000000e+00
0.000000000000e+00
0.000000000000e+00
0.000000000000e+00
0.000000000000e+00
0.000000000000e+00
0.000000000000e+00
0.000000000000e+00
0.000000000000e+00
0.000000000000e+00
0.000000000000e+00
0.000000000000e+00
0.000000000000e+00
0.000000000000e+00
0.000000000000e+00
0.000000000000e+00
0.000000000000e+00
0.000000000000e+00
0.000000000000e+00
0.000000000000e+00
0.000000000000e+00
0.000000000000e+00
0.000000000000e+00
0.000000000000e+00
0.000000000000e+00
0.000000000000e+00
0.000000000000e+00
0.000000000000e+00
0.000000000000e+00
0.000000000000e+00
0.000000000000e+00
0.000000000000e+00
0.000000000000e+00
0.000000000000e+00
0.000000000000e+00
0.000000000000e+00
0.000000000000e+00
0.000000000000e+00
0.000000000000e+00
0.000000000000e+00
SCALARS contact_pressure float 1
LOOKUP_TABLE default
0.000000000000e+00
0.000000000000e+00
0.000000000000e+00
0.000000000000e+00
0.000000000000e+00
0.000000000000e+00
0.000000000000e+00
0.000000000000e+00
0.000000000000e+00
0.000000000000e+00
0.000000000000e+00
0.000000000000e+00
0.000000000000e+00
0.000000000000e+00
0.000000000000e+00
0.000000000000e+00
0.000000000000e+00
0.000000000000e+00
0.000000000000e+00
0.000000000000e+00
0.000000000000e+00
0.000000000000e+00
0.000000000000e+00
0.000000000000e+00
0.000000000000e+00
0.000000000000e+00
0.000000000000e+00
0.000000000000e+00
0.000000000000e+00
0.000000000000e+00
0.000000000000e+00
0.000000000000e+00
0.000000000000e+00
0.000000000000e+00
0.000000000000e+00
0.000000000000e+00
0.000000000000e+00
0.000000000000e+00
0.000000000000e+00
0.000000000000e+00
0.000000000000e+00
0.000000000000e+00
0.000000000000e+00
0.000000000000e+00
0.000000000000e+00
0.000000000000e+00
0.000000000000e+00
0.000000000000e+00
0.000000000000e+00
0.000000000000e+00
0.000000000000e+00
0.000000000000e+00
0.000000000000e+00
0.000000000000e+00
0.000000000000e+00
0.000000000000e+00
0.000000000000e+00
0.000000000000e+00
0.000000000000e+00
0.000000000000e+00
0.000000000000e+00
0.000000000000e+00
0.000000000000e+00
0.000000000000e+00
0.000000000000e+00
0.000000000000e+00
0.000000000000e+00
0.000000000000e+00
0.000000000000e+00
0.000000000000e+00
0.000000000000e+00
0.000000000000e+00
0.000000000000e+00
0.000000000000e+00
0.000000000000e+00
0.000000000000e+00
0.000000000000e+00
0.000000000000e+00
0.000000000000e+00
0.000000000000e+00
0.000000000000e+00
0.000000000000e+00
0.000000000000e+00
0.000000000000e+00
0.000000000000e+00
0.000000000000e+00
0.000000000000e+00
0.000000000000e+00
0.000000000000e+00
0.000000000000e+00
0.000000000000e+00
0.000000000000e+00
0.000000000000e+00
0.000000000000e+00
0.000000000000e+00
0.000000000000e+00
0.000000000000e+00
0.000000000000e+00
0.000000000000e+00
0.000000000000e+00
0.000000000000e+00
0.000000000000e+00
0.000000000000e+00
0.000000000000e+00
0.000000000000e+00
0.000000000000e+00
0.000000000000e+00
0.000000000000e+00
0.000000000000e+00
0.000000000000e+00
0.000000000000e+00
0.000000000000e+00
0.000000000000e+00
0.000000000000e+00
0.000000000000e+00
0.000000000000e+00
0.000000000000e+00
0.000000000000e+00
0.000000000000e+00
0.000000000000e+00
0.000000000000e+00
0.000000000000e+00
0.000000000000e+00
0.000000000000e+00
0.000000000000e+00
0.000000000000e+00
0.000000000000e+00
0.000000000000e+00
SCALARS active_contact float 1
LOOKUP_TABLE default
0.000000000000e+00
0.000000000000e+00
0.000000000000e+00
0.000000000000e+00
0.000000000000e+00
0.000000000000e+00
0.000000000000e+00
0.000000000000e+00
0.000000000000e+00
0.000000000000e+00
0.000000000000e+00
0.000000000000e+00
0.000000000000e+00
0.000000000000e+00
0.000000000000e+00
0.000000000000e+00
0.000000000000e+00
0.000000000000e+00
0.000000000000e+00
0.000000000000e+00
0.000000000000e+00
0.000000000000e+00
0.000000000000e+00
0.000000000000e+00
0.000000000000e+00
0.000000000000e+00
0.000000000000e+00
0.000000000000e+00
0.000000000000e+00
0.000000000000e+00
0.000000000000e+00
0.000000000000e+00
0.000000000000e+00
0.000000000000e+00
0.000000000000e+00
0.000000000000e+00
0.000000000000e+00
0.000000000000e+00
0.000000000000e+00
0.000000000000e+00
0.000000000000e+00
0.000000000000e+00
0.000000000000e+00
0.000000000000e+00
0.000000000000e+00
0.000000000000e+00
0.000000000000e+00
0.000000000000e+00
0.000000000000e+00
0.000000000000e+00
0.000000000000e+00
0.000000000000e+00
0.000000000000e+00
0.000000000000e+00
0.000000000000e+00
0.000000000000e+00
0.000000000000e+00
0.000000000000e+00
0.000000000000e+00
0.000000000000e+00
0.000000000000e+00
0.000000000000e+00
0.000000000000e+00
0.000000000000e+00
0.000000000000e+00
0.000000000000e+00
0.000000000000e+00
0.000000000000e+00
0.000000000000e+00
0.000000000000e+00
0.000000000000e+00
0.000000000000e+00
0.000000000000e+00
0.000000000000e+00
0.000000000000e+00
0.000000000000e+00
0.000000000000e+00
0.000000000000e+00
0.000000000000e+00
0.000000000000e+00
0.000000000000e+00
0.000000000000e+00
0.000000000000e+00
0.000000000000e+00
0.000000000000e+00
0.000000000000e+00
0.000000000000e+00
0.000000000000e+00
0.000000000000e+00
0.000000000000e+00
0.000000000000e+00
0.000000000000e+00
0.000000000000e+00
0.000000000000e+00
0.000000000000e+00
0.000000000000e+00
0.000000000000e+00
0.000000000000e+00
0.000000000000e+00
0.000000000000e+00
0.000000000000e+00
0.000000000000e+00
0.000000000000e+00
0.000000000000e+00
0.000000000000e+00
0.000000000000e+00
0.000000000000e+00
0.000000000000e+00
0.000000000000e+00
0.000000000000e+00
0.000000000000e+00
0.000000000000e+00
0.000000000000e+00
0.000000000000e+00
0.000000000000e+00
0.000000000000e+00
0.000000000000e+00
0.000000000000e+00
0.000000000000e+00
0.000000000000e+00
0.000000000000e+00
0.000000000000e+00
0.000000000000e+00
0.000000000000e+00
0.000000000000e+00
0.000000000000e+00
0.000000000000e+00
0.000000000000e+00
