# vtk DataFile Version 3.0
SFC long-time C3D8 dynamic frame 73 t=1.460000000000e+00
ASCII
DATASET UNSTRUCTURED_GRID
POINTS 250 float
-2.500000000000e-01 -2.500000000000e-01 0.000000000000e+00
-1.250000000000e-01 -2.500000000000e-01 0.000000000000e+00
0.000000000000e+00 -2.500000000000e-01 0.000000000000e+00
1.250000000000e-01 -2.500000000000e-01 0.000000000000e+00
2.500000000000e-01 -2.500000000000e-01 0.000000000000e+00
-2.500000000000e-01 -1.250000000000e-01 0.000000000000e+00
-1.250000000000e-01 -1.250000000000e-01 0.000000000000e+00
0.000000000000e+00 -1.250000000000e-01 0.000000000000e+00
1.250000000000e-01 -1.250000000000e-01 0.000000000000e+00
2.500000000000e-01 -1.250000000000e-01 0.000000000000e+00
-2.500000000000e-01 0.000000000000e+00 0.000000000000e+00
-1.250000000000e-01 0.000000000000e+00 0.000000000000e+00
0.000000000000e+00 0.000000000000e+00 0.000000000000e+00
1.250000000000e-01 0.000000000000e+00 0.000000000000e+00
2.500000000000e-01 0.000000000000e+00 0.000000000000e+00
-2.500000000000e-01 1.250000000000e-01 0.000000000000e+00
-1.250000000000e-01 1.250000000000e-01 0.000000000000e+00
0.000000000000e+00 1.250000000000e-01 0.000000000000e+00
1.250000000000e-01 1.250000000000e-01 0.000000000000e+00
2.500000000000e-01 1.250000000000e-01 0.000000000000e+00
-2.500000000000e-01 2.500000000000e-01 0.000000000000e+00
-1.250000000000e-01 2.500000000000e-01 0.000000000000e+00
0.000000000000e+00 2.500000000000e-01 0.000000000000e+00
1.250000000000e-01 2.500000000000e-01 0.000000000000e+00
2.500000000000e-01 2.500000000000e-01 0.000000000000e+00
-2.500000000000e-01 -2.500000000000e-01 6.000000000000e-02
-1.250000000000e-01 -2.500000000000e-01 6.000000000000e-02
0.000000000000e+00 -2.500000000000e-01 6.000000000000e-02
1.250000000000e-01 -2.500000000000e-01 6.000000000000e-02
2.500000000000e-01 -2.500000000000e-01 6.000000000000e-02
-2.500000000000e-01 -1.250000000000e-01 6.000000000000e-02
-1.250000000000e-01 -1.250000000000e-01 6.000000000000e-02
0.000000000000e+00 -1.250000000000e-01 6.000000000000e-02
1.250000000000e-01 -1.250000000000e-01 6.000000000000e-02
2.500000000000e-01 -1.250000000000e-01 6.000000000000e-02
-2.500000000000e-01 0.000000000000e+00 6.000000000000e-02
-1.250000000000e-01 0.000000000000e+00 6.000000000000e-02
0.000000000000e+00 0.000000000000e+00 6.000000000000e-02
1.250000000000e-01 0.000000000000e+00 6.000000000000e-02
2.500000000000e-01 0.000000000000e+00 6.000000000000e-02
-2.500000000000e-01 1.250000000000e-01 6.000000000000e-02
-1.250000000000e-01 1.250000000000e-01 6.000000000000e-02
0.000000000000e+00 1.250000000000e-01 6.000000000000e-02
1.250000000000e-01 1.250000000000e-01 6.000000000000e-02
2.500000000000e-01 1.250000000000e-01 6.000000000000e-02
-2.500000000000e-01 2.500000000000e-01 6.000000000000e-02
-1.250000000000e-01 2.500000000000e-01 6.000000000000e-02
0.000000000000e+00 2.500000000000e-01 6.000000000000e-02
1.250000000000e-01 2.500000000000e-01 6.000000000000e-02
2.500000000000e-01 2.500000000000e-01 6.000000000000e-02
-2.500000000000e-01 -2.500000000000e-01 1.200000000000e-01
-1.250000000000e-01 -2.500000000000e-01 1.200000000000e-01
0.000000000000e+00 -2.500000000000e-01 1.200000000000e-01
1.250000000000e-01 -2.500000000000e-01 1.200000000000e-01
2.500000000000e-01 -2.500000000000e-01 1.200000000000e-01
-2.500000000000e-01 -1.250000000000e-01 1.200000000000e-01
-1.250000000000e-01 -1.250000000000e-01 1.200000000000e-01
0.000000000000e+00 -1.250000000000e-01 1.200000000000e-01
1.250000000000e-01 -1.250000000000e-01 1.200000000000e-01
2.500000000000e-01 -1.250000000000e-01 1.200000000000e-01
-2.500000000000e-01 0.000000000000e+00 1.200000000000e-01
-1.250000000000e-01 0.000000000000e+00 1.200000000000e-01
0.000000000000e+00 0.000000000000e+00 1.200000000000e-01
1.250000000000e-01 0.000000000000e+00 1.200000000000e-01
2.500000000000e-01 0.000000000000e+00 1.200000000000e-01
-2.500000000000e-01 1.250000000000e-01 1.200000000000e-01
-1.250000000000e-01 1.250000000000e-01 1.200000000000e-01
0.000000000000e+00 1.250000000000e-01 1.200000000000e-01
1.250000000000e-01 1.250000000000e-01 1.200000000000e-01
2.500000000000e-01 1.250000000000e-01 1.200000000000e-01
-2.500000000000e-01 2.500000000000e-01 1.200000000000e-01
-1.250000000000e-01 2.500000000000e-01 1.200000000000e-01
0.000000000000e+00 2.500000000000e-01 1.200000000000e-01
1.250000000000e-01 2.500000000000e-01 1.200000000000e-01
2.500000000000e-01 2.500000000000e-01 1.200000000000e-01
-2.500000000000e-01 -2.500000000000e-01 1.800000000000e-01
-1.250000000000e-01 -2.500000000000e-01 1.800000000000e-01
0.000000000000e+00 -2.500000000000e-01 1.800000000000e-01
1.250000000000e-01 -2.500000000000e-01 1.800000000000e-01
2.500000000000e-01 -2.500000000000e-01 1.800000000000e-01
-2.500000000000e-01 -1.250000000000e-01 1.800000000000e-01
-1.250000000000e-01 -1.250000000000e-01 1.800000000000e-01
0.000000000000e+00 -1.250000000000e-01 1.800000000000e-01
1.250000000000e-01 -1.250000000000e-01 1.800000000000e-01
2.500000000000e-01 -1.250000000000e-01 1.800000000000e-01
-2.500000000000e-01 0.000000000000e+00 1.800000000000e-01
-1.250000000000e-01 0.000000000000e+00 1.800000000000e-01
0.000000000000e+00 0.000000000000e+00 1.800000000000e-01
1.250000000000e-01 0.000000000000e+00 1.800000000000e-01
2.500000000000e-01 0.000000000000e+00 1.800000000000e-01
-2.500000000000e-01 1.250000000000e-01 1.800000000000e-01
-1.250000000000e-01 1.250000000000e-01 1.800000000000e-01
0.000000000000e+00 1.250000000000e-01 1.800000000000e-01
1.250000000000e-01 1.250000000000e-01 1.800000000000e-01
2.500000000000e-01 1.250000000000e-01 1.800000000000e-01
-2.500000000000e-01 2.500000000000e-01 1.800000000000e-01
-1.250000000000e-01 2.500000000000e-01 1.800000000000e-01
0.000000000000e+00 2.500000000000e-01 1.800000000000e-01
1.250000000000e-01 2.500000000000e-01 1.800000000000e-01
2.500000000000e-01 2.500000000000e-01 1.800000000000e-01
-2.500000000000e-01 -2.500000000000e-01 2.400000000000e-01
-1.250000000000e-01 -2.500000000000e-01 2.400000000000e-01
0.000000000000e+00 -2.500000000000e-01 2.400000000000e-01
1.250000000000e-01 -2.500000000000e-01 2.400000000000e-01
2.500000000000e-01 -2.500000000000e-01 2.400000000000e-01
-2.500000000000e-01 -1.250000000000e-01 2.400000000000e-01
-1.250000000000e-01 -1.250000000000e-01 2.400000000000e-01
0.000000000000e+00 -1.250000000000e-01 2.400000000000e-01
1.250000000000e-01 -1.250000000000e-01 2.400000000000e-01
2.500000000000e-01 -1.250000000000e-01 2.400000000000e-01
-2.500000000000e-01 0.000000000000e+00 2.400000000000e-01
-1.250000000000e-01 0.000000000000e+00 2.400000000000e-01
0.000000000000e+00 0.000000000000e+00 2.400000000000e-01
1.250000000000e-01 0.000000000000e+00 2.400000000000e-01
2.500000000000e-01 0.000000000000e+00 2.400000000000e-01
-2.500000000000e-01 1.250000000000e-01 2.400000000000e-01
-1.250000000000e-01 1.250000000000e-01 2.400000000000e-01
0.000000000000e+00 1.250000000000e-01 2.400000000000e-01
1.250000000000e-01 1.250000000000e-01 2.400000000000e-01
2.500000000000e-01 1.250000000000e-01 2.400000000000e-01
-2.500000000000e-01 2.500000000000e-01 2.400000000000e-01
-1.250000000000e-01 2.500000000000e-01 2.400000000000e-01
0.000000000000e+00 2.500000000000e-01 2.400000000000e-01
1.250000000000e-01 2.500000000000e-01 2.400000000000e-01
2.500000000000e-01 2.500000000000e-01 2.400000000000e-01
-2.500017547352e-01 -2.500017547352e-01 2.399497093061e-01
-1.250009030022e-01 -2.500017619483e-01 2.399492727027e-01
1.851239772019e-14 -2.500017629964e-01 2.399491481596e-01
1.250009030022e-01 -2.500017619483e-01 2.399492727027e-01
2.500017547352e-01 -2.500017547352e-01 2.399497093061e-01
-2.500017619483e-01 -1.250009030022e-01 2.399492727027e-01
-1.250009069356e-01 -1.250009069356e-01 2.399488246712e-01
1.792812410462e-14 -1.250009111960e-01 2.399486934579e-01
1.250009069356e-01 -1.250009069356e-01 2.399488246712e-01
2.500017619483e-01 -1.250009030022e-01 2.399492727027e-01
-2.500017629964e-01 -2.359135612025e-14 2.399491481596e-01
-1.250009111960e-01 -2.302733730020e-14 2.399486934579e-01
1.734144189827e-14 -2.247089663250e-14 2.399485605737e-01
1.250009111960e-01 -2.191444154505e-14 2.399486934579e-01
2.500017629964e-01 -2.134512710578e-14 2.399491481596e-01
-2.500017619483e-01 1.250009030022e-01 2.399492727027e-01
-1.250009069356e-01 1.250009069356e-01 2.399488246712e-01
1.676057559505e-14 1.250009111960e-01 2.399486934579e-01
1.250009069356e-01 1.250009069356e-01 2.399488246712e-01
2.500017619483e-01 1.250009030022e-01 2.399492727027e-01
-2.500017547352e-01 2.500017547352e-01 2.399497093061e-01
-1.250009030022e-01 2.500017619483e-01 2.399492727027e-01
1.619350347065e-14 2.500017629964e-01 2.399491481596e-01
1.250009030022e-01 2.500017619483e-01 2.399492727027e-01
2.500017547352e-01 2.500017547352e-01 2.399497093061e-01
-2.500014502248e-01 -2.500014502249e-01 3.049483333328e-01
-1.250007417493e-01 -2.500014545119e-01 3.049478706647e-01
1.845963011150e-14 -2.500014519147e-01 3.049477422039e-01
1.250007417494e-01 -2.500014545119e-01 3.049478706647e-01
2.500014502249e-01 -2.500014502249e-01 3.049483333328e-01
-2.500014545119e-01 -1.250007417494e-01 3.049478706647e-01
-1.250007427507e-01 -1.250007427507e-01 3.049473957683e-01
1.788071626404e-14 -1.250007442336e-01 3.049472598888e-01
1.250007427507e-01 -1.250007427507e-01 3.049473957683e-01
2.500014545119e-01 -1.250007417494e-01 3.049478706647e-01
-2.500014519147e-01 -2.360198697944e-14 3.049477422039e-01
-1.250007442336e-01 -2.303189152756e-14 3.049472598888e-01
1.729732133235e-14 -2.247006399207e-14 3.049471208875e-01
1.250007442336e-01 -2.190378256150e-14 3.049472598888e-01
2.500014519147e-01 -2.132896592329e-14 3.049477422039e-01
-2.500014545119e-01 1.250007417493e-01 3.049478706647e-01
-1.250007427507e-01 1.250007427507e-01 3.049473957683e-01
1.672623974569e-14 1.250007442336e-01 3.049472598888e-01
1.250007427507e-01 1.250007427507e-01 3.049473957683e-01
2.500014545119e-01 1.250007417493e-01 3.049478706647e-01
-2.500014502248e-01 2.500014502248e-01 3.049483333328e-01
-1.250007417493e-01 2.500014545119e-01 3.049478706647e-01
1.616640073643e-14 2.500014519147e-01 3.049477422039e-01
1.250007417494e-01 2.500014545119e-01 3.049478706647e-01
2.500014502249e-01 2.500014502248e-01 3.049483333328e-01
-2.500010643721e-01 -2.500010643722e-01 3.699473352313e-01
-1.250005579805e-01 -2.500010605993e-01 3.699468492593e-01
1.841266944121e-14 -2.500010516363e-01 3.699467207877e-01
1.250005579806e-01 -2.500010605993e-01 3.699468492593e-01
2.500010643722e-01 -2.500010643722e-01 3.699473352313e-01
-2.500010605992e-01 -1.250005579806e-01 3.699468492593e-01
-1.250005585225e-01 -1.250005585226e-01 3.699463498824e-01
1.783264106727e-14 -1.250005566956e-01 3.699462136603e-01
1.250005585226e-01 -1.250005585226e-01 3.699463498824e-01
2.500010605993e-01 -1.250005579806e-01 3.699468492593e-01
-2.500010516362e-01 -2.360685665004e-14 3.699467207877e-01
-1.250005566956e-01 -2.303573884016e-14 3.699462136603e-01
1.725507502011e-14 -2.246581143452e-14 3.699460736359e-01
1.250005566956e-01 -2.189320755754e-14 3.699462136603e-01
2.500010516363e-01 -2.131949482167e-14 3.699467207877e-01
-2.500010605992e-01 1.250005579805e-01 3.699468492593e-01
-1.250005585225e-01 1.250005585225e-01 3.699463498824e-01
1.669154688751e-14 1.250005566956e-01 3.699462136603e-01
1.250005585226e-01 1.250005585225e-01 3.699463498824e-01
2.500010605993e-01 1.250005579805e-01 3.699468492593e-01
-2.500010643721e-01 2.500010643721e-01 3.699473352313e-01
-1.250005579805e-01 2.500010605992e-01 3.699468492593e-01
1.612545169288e-14 2.500010516362e-01 3.699467207877e-01
1.250005579806e-01 2.500010605992e-01 3.699468492593e-01
2.500010643722e-01 2.500010643721e-01 3.699473352313e-01
-2.500006648288e-01 -2.500006648288e-01 4.349466956047e-01
-1.250003689459e-01 -2.500006520864e-01 4.349462057794e-01
1.836466513720e-14 -2.500006371571e-01 4.349460688350e-01
1.250003689459e-01 -2.500006520864e-01 4.349462057794e-01
2.500006648288e-01 -2.500006648288e-01 4.349466956047e-01
-2.500006520863e-01 -1.250003689459e-01 4.349462057794e-01
-1.250003690946e-01 -1.250003690946e-01 4.349457007911e-01
1.778588703619e-14 -1.250003638482e-01 4.349455545199e-01
1.250003690946e-01 -1.250003690946e-01 4.349457007911e-01
2.500006520864e-01 -1.250003689459e-01 4.349462057794e-01
-2.500006371571e-01 -2.360836283945e-14 4.349460688350e-01
-1.250003638481e-01 -2.303771312516e-14 4.349455545199e-01
1.721480155520e-14 -2.246161714507e-14 4.349454031034e-01
1.250003638482e-01 -2.188235308302e-14 4.349455545199e-01
2.500006371571e-01 -2.130919096534e-14 4.349460688350e-01
-2.500006520863e-01 1.250003689459e-01 4.349462057794e-01
-1.250003690946e-01 1.250003690946e-01 4.349457007911e-01
1.665723756687e-14 1.250003638481e-01 4.349455545199e-01
1.250003690946e-01 1.250003690946e-01 4.349457007911e-01
2.500006520864e-01 1.250003689459e-01 4.349462057794e-01
-2.500006648288e-01 2.500006648288e-01 4.349466956047e-01
-1.250003689459e-01 2.500006520863e-01 4.349462057794e-01
1.609103740170e-14 2.500006371571e-01 4.349460688350e-01
1.250003689459e-01 2.500006520863e-01 4.349462057794e-01
2.500006648288e-01 2.500006648288e-01 4.349466956047e-01
-2.500003323932e-01 -2.500003323933e-01 4.999464383882e-01
-1.250001921585e-01 -2.500003148127e-01 4.999459491132e-01
1.830773629727e-14 -2.500002958957e-01 4.999458019691e-01
1.250001921585e-01 -2.500003148127e-01 4.999459491132e-01
2.500003323933e-01 -2.500003323933e-01 4.999464383882e-01
-2.500003148126e-01 -1.250001921585e-01 4.999459491132e-01
-1.250001881239e-01 -1.250001881240e-01 4.999454420864e-01
1.773525251716e-14 -1.250001787552e-01 4.999452836017e-01
1.250001881240e-01 -1.250001881240e-01 4.999454420864e-01
2.500003148127e-01 -1.250001921585e-01 4.999459491132e-01
-2.500002958957e-01 -2.361054734829e-14 4.999458019691e-01
-1.250001787551e-01 -2.303745090029e-14 4.999452836017e-01
1.717376582288e-14 -2.245666130803e-14 4.999451190218e-01
1.250001787552e-01 -2.186943191483e-14 4.999452836017e-01
2.500002958957e-01 -2.129128792355e-14 4.999458019691e-01
-2.500003148126e-01 1.250001921585e-01 4.999459491132e-01
-1.250001881239e-01 1.250001881239e-01 4.999454420864e-01
1.662037115218e-14 1.250001787551e-01 4.999452836017e-01
1.250001881240e-01 1.250001881239e-01 4.999454420864e-01
2.500003148126e-01 1.250001921585e-01 4.999459491132e-01
-2.500003323932e-01 2.500003323932e-01 4.999464383882e-01
-1.250001921585e-01 2.500003148126e-01 4.999459491132e-01
1.606247299844e-14 2.500002958957e-01 4.999458019691e-01
1.250001921585e-01 2.500003148126e-01 4.999459491132e-01
2.500003323933e-01 2.500003323932e-01 4.999464383882e-01
CELLS 128 1152
8 0 1 6 5 25 26 31 30
8 1 2 7 6 26 27 32 31
8 2 3 8 7 27 28 33 32
8 3 4 9 8 28 29 34 33
8 5 6 11 10 30 31 36 35
8 6 7 12 11 31 32 37 36
8 7 8 13 12 32 33 38 37
8 8 9 14 13 33 34 39 38
8 10 11 16 15 35 36 41 40
8 11 12 17 16 36 37 42 41
8 12 13 18 17 37 38 43 42
8 13 14 19 18 38 39 44 43
8 15 16 21 20 40 41 46 45
8 16 17 22 21 41 42 47 46
8 17 18 23 22 42 43 48 47
8 18 19 24 23 43 44 49 48
8 25 26 31 30 50 51 56 55
8 26 27 32 31 51 52 57 56
8 27 28 33 32 52 53 58 57
8 28 29 34 33 53 54 59 58
8 30 31 36 35 55 56 61 60
8 31 32 37 36 56 57 62 61
8 32 33 38 37 57 58 63 62
8 33 34 39 38 58 59 64 63
8 35 36 41 40 60 61 66 65
8 36 37 42 41 61 62 67 66
8 37 38 43 42 62 63 68 67
8 38 39 44 43 63 64 69 68
8 40 41 46 45 65 66 71 70
8 41 42 47 46 66 67 72 71
8 42 43 48 47 67 68 73 72
8 43 44 49 48 68 69 74 73
8 50 51 56 55 75 76 81 80
8 51 52 57 56 76 77 82 81
8 52 53 58 57 77 78 83 82
8 53 54 59 58 78 79 84 83
8 55 56 61 60 80 81 86 85
8 56 57 62 61 81 82 87 86
8 57 58 63 62 82 83 88 87
8 58 59 64 63 83 84 89 88
8 60 61 66 65 85 86 91 90
8 61 62 67 66 86 87 92 91
8 62 63 68 67 87 88 93 92
8 63 64 69 68 88 89 94 93
8 65 66 71 70 90 91 96 95
8 66 67 72 71 91 92 97 96
8 67 68 73 72 92 93 98 97
8 68 69 74 73 93 94 99 98
8 75 76 81 80 100 101 106 105
8 76 77 82 81 101 102 107 106
8 77 78 83 82 102 103 108 107
8 78 79 84 83 103 104 109 108
8 80 81 86 85 105 106 111 110
8 81 82 87 86 106 107 112 111
8 82 83 88 87 107 108 113 112
8 83 84 89 88 108 109 114 113
8 85 86 91 90 110 111 116 115
8 86 87 92 91 111 112 117 116
8 87 88 93 92 112 113 118 117
8 88 89 94 93 113 114 119 118
8 90 91 96 95 115 116 121 120
8 91 92 97 96 116 117 122 121
8 92 93 98 97 117 118 123 122
8 93 94 99 98 118 119 124 123
8 125 126 131 130 150 151 156 155
8 126 127 132 131 151 152 157 156
8 127 128 133 132 152 153 158 157
8 128 129 134 133 153 154 159 158
8 130 131 136 135 155 156 161 160
8 131 132 137 136 156 157 162 161
8 132 133 138 137 157 158 163 162
8 133 134 139 138 158 159 164 163
8 135 136 141 140 160 161 166 165
8 136 137 142 141 161 162 167 166
8 137 138 143 142 162 163 168 167
8 138 139 144 143 163 164 169 168
8 140 141 146 145 165 166 171 170
8 141 142 147 146 166 167 172 171
8 142 143 148 147 167 168 173 172
8 143 144 149 148 168 169 174 173
8 150 151 156 155 175 176 181 180
8 151 152 157 156 176 177 182 181
8 152 153 158 157 177 178 183 182
8 153 154 159 158 178 179 184 183
8 155 156 161 160 180 181 186 185
8 156 157 162 161 181 182 187 186
8 157 158 163 162 182 183 188 187
8 158 159 164 163 183 184 189 188
8 160 161 166 165 185 186 191 190
8 161 162 167 166 186 187 192 191
8 162 163 168 167 187 188 193 192
8 163 164 169 168 188 189 194 193
8 165 166 171 170 190 191 196 195
8 166 167 172 171 191 192 197 196
8 167 168 173 172 192 193 198 197
8 168 169 174 173 193 194 199 198
8 175 176 181 180 200 201 206 205
8 176 177 182 181 201 202 207 206
8 177 178 183 182 202 203 208 207
8 178 179 184 183 203 204 209 208
8 180 181 186 185 205 206 211 210
8 181 182 187 186 206 207 212 211
8 182 183 188 187 207 208 213 212
8 183 184 189 188 208 209 214 213
8 185 186 191 190 210 211 216 215
8 186 187 192 191 211 212 217 216
8 187 188 193 192 212 213 218 217
8 188 189 194 193 213 214 219 218
8 190 191 196 195 215 216 221 220
8 191 192 197 196 216 217 222 221
8 192 193 198 197 217 218 223 222
8 193 194 199 198 218 219 224 223
8 200 201 206 205 225 226 231 230
8 201 202 207 206 226 227 232 231
8 202 203 208 207 227 228 233 232
8 203 204 209 208 228 229 234 233
8 205 206 211 210 230 231 236 235
8 206 207 212 211 231 232 237 236
8 207 208 213 212 232 233 238 237
8 208 209 214 213 233 234 239 238
8 210 211 216 215 235 236 241 240
8 211 212 217 216 236 237 242 241
8 212 213 218 217 237 238 243 242
8 213 214 219 218 238 239 244 243
8 215 216 221 220 240 241 246 245
8 216 217 222 221 241 242 247 246
8 217 218 223 222 242 243 248 247
8 218 219 224 223 243 244 249 248
CELL_TYPES 128
12
12
12
12
12
12
12
12
12
12
12
12
12
12
12
12
12
12
12
12
12
12
12
12
12
12
12
12
12
12
12
12
12
12
12
12
12
12
12
12
12
12
12
12
12
12
12
12
12
12
12
12
12
12
12
12
12
12
12
12
12
12
12
12
12
12
12
12
12
12
12
12
12
12
12
12
12
12
12
12
12
12
12
12
12
12
12
12
12
12
12
12
12
12
12
12
12
12
12
12
12
12
12
12
12
12
12
12
12
12
12
12
12
12
12
12
12
12
12
12
12
12
12
12
12
12
12
12
POINT_DATA 250
VECTORS displacement float
0.000000000000e+00 0.000000000000e+00 0.000000000000e+00
0.000000000000e+00 0.000000000000e+00 0.000000000000e+00
0.000000000000e+00 0.000000000000e+00 0.000000000000e+00
0.000000000000e+00 0.000000000000e+00 0.000000000000e+00
0.000000000000e+00 0.000000000000e+00 0.000000000000e+00
0.000000000000e+00 0.000000000000e+00 0.000000000000e+00
0.000000000000e+00 0.000000000000e+00 0.000000000000e+00
0.000000000000e+00 0.000000000000e+00 0.000000000000e+00
0.000000000000e+00 0.000000000000e+00 0.000000000000e+00
0.000000000000e+00 0.000000000000e+00 0.000000000000e+00
0.000000000000e+00 0.000000000000e+00 0.000000000000e+00
0.000000000000e+00 0.000000000000e+00 0.000000000000e+00
0.000000000000e+00 0.000000000000e+00 0.000000000000e+00
0.000000000000e+00 0.000000000000e+00 0.000000000000e+00
0.000000000000e+00 0.000000000000e+00 0.000000000000e+00
0.000000000000e+00 0.000000000000e+00 0.000000000000e+00
0.000000000000e+00 0.000000000000e+00 0.000000000000e+00
0.000000000000e+00 0.000000000000e+00 0.000000000000e+00
0.000000000000e+00 0.000000000000e+00 0.000000000000e+00
0.000000000000e+00 0.000000000000e+00 0.000000000000e+00
0.000000000000e+00 0.000000000000e+00 0.000000000000e+00
0.000000000000e+00 0.000000000000e+00 0.000000000000e+00
0.000000000000e+00 0.000000000000e+00 0.000000000000e+00
0.000000000000e+00 0.000000000000e+00 0.000000000000e+00
0.000000000000e+00 0.000000000000e+00 0.000000000000e+00
0.000000000000e+00 0.000000000000e+00 0.000000000000e+00
0.000000000000e+00 0.000000000000e+00 0.000000000000e+00
0.000000000000e+00 0.000000000000e+00 0.000000000000e+00
0.000000000000e+00 0.000000000000e+00 0.000000000000e+00
0.000000000000e+00 0.000000000000e+00 0.000000000000e+00
0.000000000000e+00 0.000000000000e+00 0.000000000000e+00
0.000000000000e+00 0.000000000000e+00 0.000000000000e+00
0.000000000000e+00 0.000000000000e+00 0.000000000000e+00
0.000000000000e+00 0.000000000000e+00 0.000000000000e+00
0.000000000000e+00 0.000000000000e+00 0.000000000000e+00
0.000000000000e+00 0.000000000000e+00 0.000000000000e+00
0.000000000000e+00 0.000000000000e+00 0.000000000000e+00
0.000000000000e+00 0.000000000000e+00 0.000000000000e+00
0.000000000000e+00 0.000000000000e+00 0.000000000000e+00
0.000000000000e+00 0.000000000000e+00 0.000000000000e+00
0.000000000000e+00 0.000000000000e+00 0.000000000000e+00
0.000000000000e+00 0.000000000000e+00 0.000000000000e+00
0.000000000000e+00 0.000000000000e+00 0.000000000000e+00
0.000000000000e+00 0.000000000000e+00 0.000000000000e+00
0.000000000000e+00 0.000000000000e+00 0.000000000000e+00
0.000000000000e+00 0.000000000000e+00 0.000000000000e+00
0.000000000000e+00 0.000000000000e+00 0.000000000000e+00
0.000000000000e+00 0.000000000000e+00 0.000000000000e+00
0.000000000000e+00 0.000000000000e+00 0.000000000000e+00
0.000000000000e+00 0.000000000000e+00 0.000000000000e+00
0.000000000000e+00 0.000000000000e+00 0.000000000000e+00
0.000000000000e+00 0.000000000000e+00 0.000000000000e+00
0.000000000000e+00 0.000000000000e+00 0.000000000000e+00
0.000000000000e+00 0.000000000000e+00 0.000000000000e+00
0.000000000000e+00 0.000000000000e+00 0.000000000000e+00
0.000000000000e+00 0.000000000000e+00 0.000000000000e+00
0.000000000000e+00 0.000000000000e+00 0.000000000000e+00
0.000000000000e+00 0.000000000000e+00 0.000000000000e+00
0.000000000000e+00 0.000000000000e+00 0.000000000000e+00
0.000000000000e+00 0.000000000000e+00 0.000000000000e+00
0.000000000000e+00 0.000000000000e+00 0.000000000000e+00
0.000000000000e+00 0.000000000000e+00 0.000000000000e+00
0.000000000000e+00 0.000000000000e+00 0.000000000000e+00
0.000000000000e+00 0.000000000000e+00 0.000000000000e+00
0.000000000000e+00 0.000000000000e+00 0.000000000000e+00
0.000000000000e+00 0.000000000000e+00 0.000000000000e+00
0.000000000000e+00 0.000000000000e+00 0.000000000000e+00
0.000000000000e+00 0.000000000000e+00 0.000000000000e+00
0.000000000000e+00 0.000000000000e+00 0.000000000000e+00
0.000000000000e+00 0.000000000000e+00 0.000000000000e+00
0.000000000000e+00 0.000000000000e+00 0.000000000000e+00
0.000000000000e+00 0.000000000000e+00 0.000000000000e+00
0.000000000000e+00 0.000000000000e+00 0.000000000000e+00
0.000000000000e+00 0.000000000000e+00 0.000000000000e+00
0.000000000000e+00 0.000000000000e+00 0.000000000000e+00
0.000000000000e+00 0.000000000000e+00 0.000000000000e+00
0.000000000000e+00 0.000000000000e+00 0.000000000000e+00
0.000000000000e+00 0.000000000000e+00 0.000000000000e+00
0.000000000000e+00 0.000000000000e+00 0.000000000000e+00
0.000000000000e+00 0.000000000000e+00 0.000000000000e+00
0.000000000000e+00 0.000000000000e+00 0.000000000000e+00
0.000000000000e+00 0.000000000000e+00 0.000000000000e+00
0.000000000000e+00 0.000000000000e+00 0.000000000000e+00
0.000000000000e+00 0.000000000000e+00 0.000000000000e+00
0.000000000000e+00 0.000000000000e+00 0.000000000000e+00
0.000000000000e+00 0.000000000000e+00 0.000000000000e+00
0.000000000000e+00 0.000000000000e+00 0.000000000000e+00
0.000000000000e+00 0.000000000000e+00 0.000000000000e+00
0.000000000000e+00 0.000000000000e+00 0.000000000000e+00
0.000000000000e+00 0.000000000000e+00 0.000000000000e+00
0.000000000000e+00 0.000000000000e+00 0.000000000000e+00
0.000000000000e+00 0.000000000000e+00 0.000000000000e+00
0.000000000000e+00 0.000000000000e+00 0.000000000000e+00
0.000000000000e+00 0.000000000000e+00 0.000000000000e+00
0.000000000000e+00 0.000000000000e+00 0.000000000000e+00
0.000000000000e+00 0.000000000000e+00 0.000000000000e+00
0.000000000000e+00 0.000000000000e+00 0.000000000000e+00
0.000000000000e+00 0.000000000000e+00 0.000000000000e+00
0.000000000000e+00 0.000000000000e+00 0.000000000000e+00
0.000000000000e+00 0.000000000000e+00 0.000000000000e+00
0.000000000000e+00 0.000000000000e+00 0.000000000000e+00
0.000000000000e+00 0.000000000000e+00 0.000000000000e+00
0.000000000000e+00 0.000000000000e+00 0.000000000000e+00
0.000000000000e+00 0.000000000000e+00 0.000000000000e+00
0.000000000000e+00 0.000000000000e+00 0.000000000000e+00
0.000000000000e+00 0.000000000000e+00 0.000000000000e+00
0.000000000000e+00 0.000000000000e+00 0.000000000000e+00
0.000000000000e+00 0.000000000000e+00 0.000000000000e+00
0.000000000000e+00 0.000000000000e+00 0.000000000000e+00
0.000000000000e+00 0.000000000000e+00 0.000000000000e+00
0.000000000000e+00 0.000000000000e+00 0.000000000000e+00
0.000000000000e+00 0.000000000000e+00 0.000000000000e+00
0.000000000000e+00 0.000000000000e+00 0.000000000000e+00
0.000000000000e+00 0.000000000000e+00 0.000000000000e+00
0.000000000000e+00 0.000000000000e+00 0.000000000000e+00
0.000000000000e+00 0.000000000000e+00 0.000000000000e+00
0.000000000000e+00 0.000000000000e+00 0.000000000000e+00
0.000000000000e+00 0.000000000000e+00 0.000000000000e+00
0.000000000000e+00 0.000000000000e+00 0.000000000000e+00
0.000000000000e+00 0.000000000000e+00 0.000000000000e+00
0.000000000000e+00 0.000000000000e+00 0.000000000000e+00
0.000000000000e+00 0.000000000000e+00 0.000000000000e+00
0.000000000000e+00 0.000000000000e+00 0.000000000000e+00
0.000000000000e+00 0.000000000000e+00 0.000000000000e+00
0.000000000000e+00 0.000000000000e+00 0.000000000000e+00
-1.754735156014e-06 -1.754735198136e-06 -1.505029069393e-02
-9.030021900304e-07 -1.761948307257e-06 -1.505072729732e-02
1.851239772019e-14 -1.762996445281e-06 -1.505085184042e-02
9.030022270500e-07 -1.761948306134e-06 -1.505072729732e-02
1.754735193027e-06 -1.754735195858e-06 -1.505029069393e-02
-1.761948266290e-06 -9.030022321417e-07 -1.505072729732e-02
-9.069356037308e-07 -9.069356446981e-07 -1.505117532878e-02
1.792812410462e-14 -9.111960480922e-07 -1.505130654214e-02
9.069356395875e-07 -9.069356435756e-07 -1.505117532878e-02
1.761948302145e-06 -9.030022298785e-07 -1.505072729732e-02
-1.762996405468e-06 -2.359135612025e-14 -1.505085184042e-02
-9.111960082751e-07 -2.302733730020e-14 -1.505130654214e-02
1.734144189827e-14 -2.247089663250e-14 -1.505143942628e-02
9.111960429585e-07 -2.191444154505e-14 -1.505130654214e-02
1.762996440147e-06 -2.134512710578e-14 -1.505085184042e-02
-1.761948267461e-06 9.030021849569e-07 -1.505072729732e-02
-9.069356048988e-07 9.069355986428e-07 -1.505117532878e-02
1.676057559505e-14 9.111960031475e-07 -1.505130654214e-02
9.069356384229e-07 9.069355997542e-07 -1.505117532878e-02
1.761948300982e-06 9.030021871909e-07 -1.505072729732e-02
-1.754735158305e-06 1.754735150944e-06 -1.505029069393e-02
-9.030021923359e-07 1.761948261210e-06 -1.505072729732e-02
1.619350347065e-14 1.762996400338e-06 -1.505085184042e-02
9.030022247335e-07 1.761948262312e-06 -1.505072729732e-02
1.754735190716e-06 1.754735153180e-06 -1.505029069393e-02
-1.450224816543e-06 -1.450224858609e-06 -1.505166666717e-02
-7.417493405619e-07 -1.454511912874e-06 -1.505212933533e-02
1.845963011150e-14 -1.451914694944e-06 -1.505225779607e-02
7.417493774822e-07 -1.454511911733e-06 -1.505212933533e-02
1.450224853457e-06 -1.450224856321e-06 -1.505166666717e-02
-1.454511871955e-06 -7.417493826288e-07 -1.505212933534e-02
-7.427506840261e-07 -7.427507249440e-07 -1.505260423169e-02
1.788071626404e-14 -7.442336312069e-07 -1.505274011123e-02
7.427507197870e-07 -7.427507238119e-07 -1.505260423169e-02
1.454511907713e-06 -7.417493803478e-07 -1.505212933533e-02
-1.451914655174e-06 -2.360198697944e-14 -1.505225779607e-02
-7.442335914365e-07 -2.303189152756e-14 -1.505274011123e-02
1.729732133235e-14 -2.247006399207e-14 -1.505287911253e-02
7.442336260358e-07 -2.190378256150e-14 -1.505274011123e-02
1.451914689778e-06 -2.132896592329e-14 -1.505225779607e-02
-1.454511873107e-06 7.417493354353e-07 -1.505212933533e-02
-7.427506851797e-07 7.427506788820e-07 -1.505260423169e-02
1.672623974569e-14 7.442335862720e-07 -1.505274011123e-02
7.427507186365e-07 7.427506800088e-07 -1.505260423169e-02
1.454511906560e-06 7.417493376884e-07 -1.505212933533e-02
-1.450224818825e-06 1.450224811419e-06 -1.505166666717e-02
-7.417493428521e-07 1.454511866814e-06 -1.505212933533e-02
1.616640073643e-14 1.451914650011e-06 -1.505225779607e-02
7.417493751800e-07 1.454511867937e-06 -1.505212933533e-02
1.450224851156e-06 1.450224813663e-06 -1.505166666717e-02
-1.064372129565e-06 -1.064372171576e-06 -1.505266476869e-02
-5.579805385343e-07 -1.060599283654e-06 -1.505315074067e-02
1.841266944121e-14 -1.051636261589e-06 -1.505327921228e-02
5.579805753591e-07 -1.060599282496e-06 -1.505315074067e-02
1.064372166386e-06 -1.064372169278e-06 -1.505266476869e-02
-1.060599242779e-06 -5.579805805544e-07 -1.505315074067e-02
-5.585225160881e-07 -5.585225569539e-07 -1.505365011762e-02
1.783264106727e-14 -5.566955997157e-07 -1.505378633968e-02
5.585225517553e-07 -5.585225558104e-07 -1.505365011762e-02
1.060599278448e-06 -5.579805782606e-07 -1.505315074067e-02
-1.051636221863e-06 -2.360685665004e-14 -1.505327921228e-02
-5.566955599937e-07 -2.303573884016e-14 -1.505378633968e-02
1.725507502011e-14 -2.246581143452e-14 -1.505392636407e-02
5.566955945061e-07 -2.189320755754e-14 -1.505378633968e-02
1.051636256383e-06 -2.131949482167e-14 -1.505327921228e-02
-1.060599243923e-06 5.579805333521e-07 -1.505315074067e-02
-5.585225172286e-07 5.585225108899e-07 -1.505365011762e-02
1.669154688751e-14 5.566955547886e-07 -1.505378633968e-02
5.585225506122e-07 5.585225120282e-07 -1.505365011762e-02
1.060599277304e-06 5.579805356243e-07 -1.505315074067e-02
-1.064372131833e-06 1.064372124390e-06 -1.505266476869e-02
-5.579805408111e-07 1.060599237586e-06 -1.505315074067e-02
1.612545169288e-14 1.051636216662e-06 -1.505327921228e-02
5.579805730676e-07 1.060599238717e-06 -1.505315074067e-02
1.064372164092e-06 1.064372126646e-06 -1.505266476869e-02
-6.648287763165e-07 -6.648288182897e-07 -1.505330439525e-02
-3.689458739884e-07 -6.520863689247e-07 -1.505379422058e-02
1.836466513720e-14 -6.371571311750e-07 -1.505393116499e-02
3.689459107198e-07 -6.520863677592e-07 -1.505379422058e-02
6.648288130504e-07 -6.648288159709e-07 -1.505330439525e-02
-6.520863281028e-07 -3.689459159604e-07 -1.505379422058e-02
-3.690945647164e-07 -3.690946055372e-07 -1.505429920889e-02
1.778588703619e-14 -3.638481841090e-07 -1.505444548007e-02
3.690946002913e-07 -3.690946043773e-07 -1.505429920889e-02
6.520863636807e-07 -3.689459136486e-07 -1.505379422058e-02
-6.371570915005e-07 -2.360836283945e-14 -1.505393116499e-02
-3.638481444370e-07 -2.303771312516e-14 -1.505444548007e-02
1.721480155520e-14 -2.246161714507e-14 -1.505459689663e-02
3.638481788677e-07 -2.188235308302e-14 -1.505444548007e-02
6.371571259403e-07 -2.130919096534e-14 -1.505393116499e-02
-6.520863292367e-07 3.689458687510e-07 -1.505379422058e-02
-3.690945658452e-07 3.690945594651e-07 -1.505429920889e-02
1.665723756687e-14 3.638481391883e-07 -1.505444548007e-02
3.690945991576e-07 3.690945606145e-07 -1.505429920889e-02
6.520863625460e-07 3.689458710393e-07 -1.505379422058e-02
-6.648287785781e-07 6.648287710847e-07 -1.505330439525e-02
-3.689458762535e-07 6.520863228581e-07 -1.505379422058e-02
1.609103740170e-14 6.371570862559e-07 -1.505393116499e-02
3.689459084381e-07 6.520863239991e-07 -1.505379422058e-02
6.648288107660e-07 6.648287733681e-07 -1.505330439525e-02
-3.323932183843e-07 -3.323932603184e-07 -1.505356161176e-02
-1.921584935407e-07 -3.148126559797e-07 -1.505405088677e-02
1.830773629727e-14 -2.958957335334e-07 -1.505419803094e-02
1.921585301645e-07 -3.148126547960e-07 -1.505405088677e-02
3.323932550170e-07 -3.323932579742e-07 -1.505356161176e-02
-3.148126151983e-07 -1.921585354625e-07 -1.505405088677e-02
-1.881239368368e-07 -1.881239776130e-07 -1.505455791358e-02
1.773525251716e-14 -1.787551840609e-07 -1.505471639834e-02
1.881239723146e-07 -1.881239764345e-07 -1.505455791358e-02
3.148126506907e-07 -1.921585331270e-07 -1.505405088677e-02
-2.958956939138e-07 -2.361054734829e-14 -1.505419803094e-02
-1.787551444406e-07 -2.303745090029e-14 -1.505471639834e-02
1.717376582288e-14 -2.245666130803e-14 -1.505488097820e-02
1.787551787877e-07 -2.186943191483e-14 -1.505471639834e-02
2.958957282635e-07 -2.129128792355e-14 -1.505419803094e-02
-3.148126163219e-07 1.921584882402e-07 -1.505405088677e-02
-1.881239379578e-07 1.881239315277e-07 -1.505455791358e-02
1.662037115218e-14 1.787551391457e-07 -1.505471639834e-02
1.881239711952e-07 1.881239326926e-07 -1.505455791358e-02
3.148126495666e-07 1.921584905428e-07 -1.505405088677e-02
-3.323932206494e-07 3.323932130901e-07 -1.505356161176e-02
-1.921584957901e-07 3.148126098860e-07 -1.505405088677e-02
1.606247299844e-14 2.958956886093e-07 -1.505419803094e-02
1.921585279065e-07 3.148126110542e-07 -1.505405088677e-02
3.323932527471e-07 3.323932153982e-07 -1.505356161176e-02
SCALARS displacement_magnitude float 1
LOOKUP_TABLE default
0.000000000000e+00
0.000000000000e+00
0.000000000000e+00
0.000000000000e+00
0.000000000000e+00
0.000000000000e+00
0.000000000000e+00
0.000000000000e+00
0.000000000000e+00
0.000000000000e+00
0.000000000000e+00
0.000000000000e+00
0.000000000000e+00
0.000000000000e+00
0.000000000000e+00
0.000000000000e+00
0.000000000000e+00
0.000000000000e+00
0.000000000000e+00
0.000000000000e+00
0.000000000000e+00
0.000000000000e+00
0.000000000000e+00
0.000000000000e+00
0.000000000000e+00
0.000000000000e+00
0.000000000000e+00
0.000000000000e+00
0.000000000000e+00
0.000000000000e+00
0.000000000000e+00
0.000000000000e+00
0.000000000000e+00
0.000000000000e+00
0.000000000000e+00
0.000000000000e+00
0.000000000000e+00
0.000000000000e+00
0.000000000000e+00
0.000000000000e+00
0.000000000000e+00
0.000000000000e+00
0.000000000000e+00
0.000000000000e+00
0.000000000000e+00
0.000000000000e+00
0.000000000000e+00
0.000000000000e+00
0.000000000000e+00
0.000000000000e+00
0.000000000000e+00
0.000000000000e+00
0.000000000000e+00
0.000000000000e+00
0.000000000000e+00
0.000000000000e+00
0.000000000000e+00
0.000000000000e+00
0.000000000000e+00
0.000000000000e+00
0.000000000000e+00
0.000000000000e+00
0.000000000000e+00
0.000000000000e+00
0.000000000000e+00
0.000000000000e+00
0.000000000000e+00
0.000000000000e+00
0.000000000000e+00
0.000000000000e+00
0.000000000000e+00
0.000000000000e+00
0.000000000000e+00
0.000000000000e+00
0.000000000000e+00
0.000000000000e+00
0.000000000000e+00
0.000000000000e+00
0.000000000000e+00
0.000000000000e+00
0.000000000000e+00
0.000000000000e+00
0.000000000000e+00
0.000000000000e+00
0.000000000000e+00
0.000000000000e+00
0.000000000000e+00
0.000000000000e+00
0.000000000000e+00
0.000000000000e+00
0.000000000000e+00
0.000000000000e+00
0.000000000000e+00
0.000000000000e+00
0.000000000000e+00
0.000000000000e+00
0.000000000000e+00
0.000000000000e+00
0.000000000000e+00
0.000000000000e+00
0.000000000000e+00
0.000000000000e+00
0.000000000000e+00
0.000000000000e+00
0.000000000000e+00
0.000000000000e+00
0.000000000000e+00
0.000000000000e+00
0.000000000000e+00
0.000000000000e+00
0.000000000000e+00
0.000000000000e+00
0.000000000000e+00
0.000000000000e+00
0.000000000000e+00
0.000000000000e+00
0.000000000000e+00
0.000000000000e+00
0.000000000000e+00
0.000000000000e+00
0.000000000000e+00
0.000000000000e+00
0.000000000000e+00
0.000000000000e+00
0.000000000000e+00
1.505029089852e-02
1.505072742754e-02
1.505085194368e-02
1.505072742754e-02
1.505029089851e-02
1.505072742754e-02
1.505117538343e-02
1.505130656973e-02
1.505117538343e-02
1.505072742754e-02
1.505085194368e-02
1.505130656973e-02
1.505143942628e-02
1.505130656973e-02
1.505085194368e-02
1.505072742754e-02
1.505117538343e-02
1.505130656973e-02
1.505117538343e-02
1.505072742754e-02
1.505029089852e-02
1.505072742754e-02
1.505085194368e-02
1.505072742754e-02
1.505029089851e-02
1.505166680690e-02
1.505212942389e-02
1.505225786610e-02
1.505212942389e-02
1.505166680690e-02
1.505212942389e-02
1.505260426834e-02
1.505274012963e-02
1.505260426834e-02
1.505212942389e-02
1.505225786610e-02
1.505274012963e-02
1.505287911253e-02
1.505274012963e-02
1.505225786610e-02
1.505212942389e-02
1.505260426834e-02
1.505274012963e-02
1.505260426834e-02
1.505212942389e-02
1.505166680690e-02
1.505212942389e-02
1.505225786610e-02
1.505212942389e-02
1.505166680690e-02
1.505266484395e-02
1.505315078837e-02
1.505327924901e-02
1.505315078837e-02
1.505266484395e-02
1.505315078837e-02
1.505365013835e-02
1.505378634997e-02
1.505365013835e-02
1.505315078837e-02
1.505327924901e-02
1.505378634997e-02
1.505392636407e-02
1.505378634997e-02
1.505327924901e-02
1.505315078837e-02
1.505365013835e-02
1.505378634997e-02
1.505365013835e-02
1.505315078837e-02
1.505266484395e-02
1.505315078837e-02
1.505327924901e-02
1.505315078837e-02
1.505266484395e-02
1.505330442462e-02
1.505379423923e-02
1.505393117847e-02
1.505379423923e-02
1.505330442462e-02
1.505379423923e-02
1.505429921794e-02
1.505444548447e-02
1.505429921794e-02
1.505379423923e-02
1.505393117847e-02
1.505444548447e-02
1.505459689663e-02
1.505444548447e-02
1.505393117847e-02
1.505379423923e-02
1.505429921794e-02
1.505444548447e-02
1.505429921794e-02
1.505379423923e-02
1.505330442462e-02
1.505379423923e-02
1.505393117847e-02
1.505379423923e-02
1.505330442462e-02
1.505356161910e-02
1.505405089129e-02
1.505419803385e-02
1.505405089129e-02
1.505356161910e-02
1.505405089129e-02
1.505455791593e-02
1.505471639940e-02
1.505455791593e-02
1.505405089129e-02
1.505419803385e-02
1.505471639940e-02
1.505488097820e-02
1.505471639940e-02
1.505419803385e-02
1.505405089129e-02
1.505455791593e-02
1.505471639940e-02
1.505455791593e-02
1.505405089129e-02
1.505356161910e-02
1.505405089129e-02
1.505419803385e-02
1.505405089129e-02
1.505356161910e-02
CELL_DATA 128
SCALARS displacement_magnitude float 1
LOOKUP_TABLE default
0.000000000000e+00
0.000000000000e+00
0.000000000000e+00
0.000000000000e+00
0.000000000000e+00
0.000000000000e+00
0.000000000000e+00
0.000000000000e+00
0.000000000000e+00
0.000000000000e+00
0.000000000000e+00
0.000000000000e+00
0.000000000000e+00
0.000000000000e+00
0.000000000000e+00
0.000000000000e+00
0.000000000000e+00
0.000000000000e+00
0.000000000000e+00
0.000000000000e+00
0.000000000000e+00
0.000000000000e+00
0.000000000000e+00
0.000000000000e+00
0.000000000000e+00
0.000000000000e+00
0.000000000000e+00
0.000000000000e+00
0.000000000000e+00
0.000000000000e+00
0.000000000000e+00
0.000000000000e+00
0.000000000000e+00
0.000000000000e+00
0.000000000000e+00
0.000000000000e+00
0.000000000000e+00
0.000000000000e+00
0.000000000000e+00
0.000000000000e+00
0.000000000000e+00
0.000000000000e+00
0.000000000000e+00
0.000000000000e+00
0.000000000000e+00
0.000000000000e+00
0.000000000000e+00
0.000000000000e+00
0.000000000000e+00
0.000000000000e+00
0.000000000000e+00
0.000000000000e+00
0.000000000000e+00
0.000000000000e+00
0.000000000000e+00
0.000000000000e+00
0.000000000000e+00
0.000000000000e+00
0.000000000000e+00
0.000000000000e+00
0.000000000000e+00
0.000000000000e+00
0.000000000000e+00
0.000000000000e+00
1.505143138251e-02
1.505172412654e-02
1.505172412654e-02
1.505143138251e-02
1.505172412654e-02
1.505202394866e-02
1.505202394866e-02
1.505172412654e-02
1.505172412654e-02
1.505202394866e-02
1.505202394866e-02
1.505172412654e-02
1.505143138251e-02
1.505172412654e-02
1.505172412654e-02
1.505143138251e-02
1.505264331026e-02
1.505294977671e-02
1.505294977671e-02
1.505264331026e-02
1.505294977671e-02
1.505326410531e-02
1.505326410531e-02
1.505294977671e-02
1.505294977671e-02
1.505326410531e-02
1.505326410531e-02
1.505294977671e-02
1.505264331026e-02
1.505294977671e-02
1.505294977671e-02
1.505264331026e-02
1.505347608501e-02
1.505379208073e-02
1.505379208073e-02
1.505347608501e-02
1.505379208073e-02
1.505411703573e-02
1.505411703573e-02
1.505379208073e-02
1.505379208073e-02
1.505411703573e-02
1.505411703573e-02
1.505379208073e-02
1.505347608501e-02
1.505379208073e-02
1.505379208073e-02
1.505347608501e-02
1.505392667983e-02
1.505424917007e-02
1.505424917007e-02
1.505392667983e-02
1.505424917007e-02
1.505458234705e-02
1.505458234705e-02
1.505424917007e-02
1.505424917007e-02
1.505458234705e-02
1.505458234705e-02
1.505424917007e-02
1.505392667983e-02
1.505424917007e-02
1.505424917007e-02
1.505392667983e-02
SCALARS engineering_strain_norm float 1
LOOKUP_TABLE default
0.000000000000e+00
0.000000000000e+00
0.000000000000e+00
0.000000000000e+00
0.000000000000e+00
0.000000000000e+00
0.000000000000e+00
0.000000000000e+00
0.000000000000e+00
0.000000000000e+00
0.000000000000e+00
0.000000000000e+00
0.000000000000e+00
0.000000000000e+00
0.000000000000e+00
0.000000000000e+00
0.000000000000e+00
0.000000000000e+00
0.000000000000e+00
0.000000000000e+00
0.000000000000e+00
0.000000000000e+00
0.000000000000e+00
0.000000000000e+00
0.000000000000e+00
0.000000000000e+00
0.000000000000e+00
0.000000000000e+00
0.000000000000e+00
0.000000000000e+00
0.000000000000e+00
0.000000000000e+00
0.000000000000e+00
0.000000000000e+00
0.000000000000e+00
0.000000000000e+00
0.000000000000e+00
0.000000000000e+00
0.000000000000e+00
0.000000000000e+00
0.000000000000e+00
0.000000000000e+00
0.000000000000e+00
0.000000000000e+00
0.000000000000e+00
0.000000000000e+00
0.000000000000e+00
0.000000000000e+00
0.000000000000e+00
0.000000000000e+00
0.000000000000e+00
0.000000000000e+00
0.000000000000e+00
0.000000000000e+00
0.000000000000e+00
0.000000000000e+00
0.000000000000e+00
0.000000000000e+00
0.000000000000e+00
0.000000000000e+00
0.000000000000e+00
0.000000000000e+00
0.000000000000e+00
0.000000000000e+00
2.331568648402e-05
2.362647524127e-05
2.362647524120e-05
2.331568648379e-05
2.362647524140e-05
2.396106543764e-05
2.396106543762e-05
2.362647524125e-05
2.362647524140e-05
2.396106543770e-05
2.396106543771e-05
2.362647524124e-05
2.331568648396e-05
2.362647524127e-05
2.362647524124e-05
2.331568648383e-05
1.717281123533e-05
1.742930942469e-05
1.742930942457e-05
1.717281123519e-05
1.742930942465e-05
1.770723269650e-05
1.770723269646e-05
1.742930942462e-05
1.742930942472e-05
1.770723269651e-05
1.770723269655e-05
1.742930942459e-05
1.717281123533e-05
1.742930942456e-05
1.742930942453e-05
1.717281123516e-05
1.090994011079e-05
1.114292596141e-05
1.114292596135e-05
1.090994011069e-05
1.114292596138e-05
1.142240312236e-05
1.142240312240e-05
1.114292596138e-05
1.114292596153e-05
1.142240312243e-05
1.142240312238e-05
1.114292596140e-05
1.090994011084e-05
1.114292596135e-05
1.114292596135e-05
1.090994011071e-05
4.627593366116e-06
4.901650321512e-06
4.901650321467e-06
4.627593366082e-06
4.901650321437e-06
5.209428656107e-06
5.209428656069e-06
4.901650321402e-06
4.901650321470e-06
5.209428656085e-06
5.209428656074e-06
4.901650321501e-06
4.627593366181e-06
4.901650321484e-06
4.901650321443e-06
4.627593366142e-06
SCALARS von_mises float 1
LOOKUP_TABLE default
0.000000000000e+00
0.000000000000e+00
0.000000000000e+00
0.000000000000e+00
0.000000000000e+00
0.000000000000e+00
0.000000000000e+00
0.000000000000e+00
0.000000000000e+00
0.000000000000e+00
0.000000000000e+00
0.000000000000e+00
0.000000000000e+00
0.000000000000e+00
0.000000000000e+00
0.000000000000e+00
0.000000000000e+00
0.000000000000e+00
0.000000000000e+00
0.000000000000e+00
0.000000000000e+00
0.000000000000e+00
0.000000000000e+00
0.000000000000e+00
0.000000000000e+00
0.000000000000e+00
0.000000000000e+00
0.000000000000e+00
0.000000000000e+00
0.000000000000e+00
0.000000000000e+00
0.000000000000e+00
0.000000000000e+00
0.000000000000e+00
0.000000000000e+00
0.000000000000e+00
0.000000000000e+00
0.000000000000e+00
0.000000000000e+00
0.000000000000e+00
0.000000000000e+00
0.000000000000e+00
0.000000000000e+00
0.000000000000e+00
0.000000000000e+00
0.000000000000e+00
0.000000000000e+00
0.000000000000e+00
0.000000000000e+00
0.000000000000e+00
0.000000000000e+00
0.000000000000e+00
0.000000000000e+00
0.000000000000e+00
0.000000000000e+00
0.000000000000e+00
0.000000000000e+00
0.000000000000e+00
0.000000000000e+00
0.000000000000e+00
0.000000000000e+00
0.000000000000e+00
0.000000000000e+00
0.000000000000e+00
2.140535156445e+00
2.171718324000e+00
2.171718323993e+00
2.140535156425e+00
2.171718324012e+00
2.205517717361e+00
2.205517717359e+00
2.171718323997e+00
2.171718324012e+00
2.205517717367e+00
2.205517717367e+00
2.171718323997e+00
2.140535156439e+00
2.171718324000e+00
2.171718323997e+00
2.140535156429e+00
1.583665271921e+00
1.610104553549e+00
1.610104553539e+00
1.583665271908e+00
1.610104553546e+00
1.638971011271e+00
1.638971011268e+00
1.610104553544e+00
1.610104553553e+00
1.638971011273e+00
1.638971011276e+00
1.610104553541e+00
1.583665271921e+00
1.610104553539e+00
1.610104553536e+00
1.583665271906e+00
1.007853721112e+00
1.034255729671e+00
1.034255729666e+00
1.007853721102e+00
1.034255729668e+00
1.065212444139e+00
1.065212444143e+00
1.034255729668e+00
1.034255729682e+00
1.065212444146e+00
1.065212444141e+00
1.034255729670e+00
1.007853721117e+00
1.034255729666e+00
1.034255729666e+00
1.007853721104e+00
4.347407056784e-01
4.613772897210e-01
4.613772897173e-01
4.347407056753e-01
4.613772897142e-01
4.903639074473e-01
4.903639074440e-01
4.613772897113e-01
4.613772897172e-01
4.903639074452e-01
4.903639074441e-01
4.613772897199e-01
4.347407056843e-01
4.613772897186e-01
4.613772897144e-01
4.347407056806e-01
SCALARS sdf_gap float 1
LOOKUP_TABLE default
0.000000000000e+00
0.000000000000e+00
0.000000000000e+00
0.000000000000e+00
0.000000000000e+00
0.000000000000e+00
0.000000000000e+00
0.000000000000e+00
0.000000000000e+00
0.000000000000e+00
0.000000000000e+00
0.000000000000e+00
0.000000000000e+00
0.000000000000e+00
0.000000000000e+00
0.000000000000e+00
0.000000000000e+00
0.000000000000e+00
0.000000000000e+00
0.000000000000e+00
0.000000000000e+00
0.000000000000e+00
0.000000000000e+00
0.000000000000e+00
0.000000000000e+00
0.000000000000e+00
0.000000000000e+00
0.000000000000e+00
0.000000000000e+00
0.000000000000e+00
0.000000000000e+00
0.000000000000e+00
0.000000000000e+00
0.000000000000e+00
0.000000000000e+00
0.000000000000e+00
0.000000000000e+00
0.000000000000e+00
0.000000000000e+00
0.000000000000e+00
0.000000000000e+00
0.000000000000e+00
0.000000000000e+00
0.000000000000e+00
0.000000000000e+00
0.000000000000e+00
0.000000000000e+00
0.000000000000e+00
0.000000000000e+00
0.000000000000e+00
0.000000000000e+00
0.000000000000e+00
0.000000000000e+00
0.000000000000e+00
0.000000000000e+00
0.000000000000e+00
0.000000000000e+00
0.000000000000e+00
0.000000000000e+00
0.000000000000e+00
0.000000000000e+00
0.000000000000e+00
0.000000000000e+00
0.000000000000e+00
-5.073015433570e-05
-5.101525216567e-05
-5.101525216556e-05
-5.073015433543e-05
-5.101525216575e-05
-5.130695983610e-05
-5.130695983600e-05
-5.101525216549e-05
-5.101525216572e-05
-5.130695983609e-05
-5.130695983604e-05
-5.101525216552e-05
-5.073015433567e-05
-5.101525216567e-05
-5.101525216562e-05
-5.073015433550e-05
0.000000000000e+00
0.000000000000e+00
0.000000000000e+00
0.000000000000e+00
0.000000000000e+00
0.000000000000e+00
0.000000000000e+00
0.000000000000e+00
0.000000000000e+00
0.000000000000e+00
0.000000000000e+00
0.000000000000e+00
0.000000000000e+00
0.000000000000e+00
0.000000000000e+00
0.000000000000e+00
0.000000000000e+00
0.000000000000e+00
0.000000000000e+00
0.000000000000e+00
0.000000000000e+00
0.000000000000e+00
0.000000000000e+00
0.000000000000e+00
0.000000000000e+00
0.000000000000e+00
0.000000000000e+00
0.000000000000e+00
0.000000000000e+00
0.000000000000e+00
0.000000000000e+00
0.000000000000e+00
0.000000000000e+00
0.000000000000e+00
0.000000000000e+00
0.000000000000e+00
0.000000000000e+00
0.000000000000e+00
0.000000000000e+00
0.000000000000e+00
0.000000000000e+00
0.000000000000e+00
0.000000000000e+00
0.000000000000e+00
0.000000000000e+00
0.000000000000e+00
0.000000000000e+00
0.000000000000e+00
SCALARS contact_pressure float 1
LOOKUP_TABLE default
0.000000000000e+00
0.000000000000e+00
0.000000000000e+00
0.000000000000e+00
0.000000000000e+00
0.000000000000e+00
0.000000000000e+00
0.000000000000e+00
0.000000000000e+00
0.000000000000e+00
0.000000000000e+00
0.000000000000e+00
0.000000000000e+00
0.000000000000e+00
0.000000000000e+00
0.000000000000e+00
0.000000000000e+00
0.000000000000e+00
0.000000000000e+00
0.000000000000e+00
0.000000000000e+00
0.000000000000e+00
0.000000000000e+00
0.000000000000e+00
0.000000000000e+00
0.000000000000e+00
0.000000000000e+00
0.000000000000e+00
0.000000000000e+00
0.000000000000e+00
0.000000000000e+00
0.000000000000e+00
0.000000000000e+00
0.000000000000e+00
0.000000000000e+00
0.000000000000e+00
0.000000000000e+00
0.000000000000e+00
0.000000000000e+00
0.000000000000e+00
0.000000000000e+00
0.000000000000e+00
0.000000000000e+00
0.000000000000e+00
0.000000000000e+00
0.000000000000e+00
0.000000000000e+00
0.000000000000e+00
0.000000000000e+00
0.000000000000e+00
0.000000000000e+00
0.000000000000e+00
0.000000000000e+00
0.000000000000e+00
0.000000000000e+00
0.000000000000e+00
0.000000000000e+00
0.000000000000e+00
0.000000000000e+00
0.000000000000e+00
0.000000000000e+00
0.000000000000e+00
0.000000000000e+00
0.000000000000e+00
2.536507716785e+00
2.550762608283e+00
2.550762608278e+00
2.536507716771e+00
2.550762608287e+00
2.565347991805e+00
2.565347991800e+00
2.550762608274e+00
2.550762608286e+00
2.565347991805e+00
2.565347991802e+00
2.550762608276e+00
2.536507716783e+00
2.550762608283e+00
2.550762608281e+00
2.536507716775e+00
0.000000000000e+00
0.000000000000e+00
0.000000000000e+00
0.000000000000e+00
0.000000000000e+00
0.000000000000e+00
0.000000000000e+00
0.000000000000e+00
0.000000000000e+00
0.000000000000e+00
0.000000000000e+00
0.000000000000e+00
0.000000000000e+00
0.000000000000e+00
0.000000000000e+00
0.000000000000e+00
0.000000000000e+00
0.000000000000e+00
0.000000000000e+00
0.000000000000e+00
0.000000000000e+00
0.000000000000e+00
0.000000000000e+00
0.000000000000e+00
0.000000000000e+00
0.000000000000e+00
0.000000000000e+00
0.000000000000e+00
0.000000000000e+00
0.000000000000e+00
0.000000000000e+00
0.000000000000e+00
0.000000000000e+00
0.000000000000e+00
0.000000000000e+00
0.000000000000e+00
0.000000000000e+00
0.000000000000e+00
0.000000000000e+00
0.000000000000e+00
0.000000000000e+00
0.000000000000e+00
0.000000000000e+00
0.000000000000e+00
0.000000000000e+00
0.000000000000e+00
0.000000000000e+00
0.000000000000e+00
SCALARS active_contact float 1
LOOKUP_TABLE default
0.000000000000e+00
0.000000000000e+00
0.000000000000e+00
0.000000000000e+00
0.000000000000e+00
0.000000000000e+00
0.000000000000e+00
0.000000000000e+00
0.000000000000e+00
0.000000000000e+00
0.000000000000e+00
0.000000000000e+00
0.000000000000e+00
0.000000000000e+00
0.000000000000e+00
0.000000000000e+00
0.000000000000e+00
0.000000000000e+00
0.000000000000e+00
0.000000000000e+00
0.000000000000e+00
0.000000000000e+00
0.000000000000e+00
0.000000000000e+00
0.000000000000e+00
0.000000000000e+00
0.000000000000e+00
0.000000000000e+00
0.000000000000e+00
0.000000000000e+00
0.000000000000e+00
0.000000000000e+00
0.000000000000e+00
0.000000000000e+00
0.000000000000e+00
0.000000000000e+00
0.000000000000e+00
0.000000000000e+00
0.000000000000e+00
0.000000000000e+00
0.000000000000e+00
0.000000000000e+00
0.000000000000e+00
0.000000000000e+00
0.000000000000e+00
0.000000000000e+00
0.000000000000e+00
0.000000000000e+00
0.000000000000e+00
0.000000000000e+00
0.000000000000e+00
0.000000000000e+00
0.000000000000e+00
0.000000000000e+00
0.000000000000e+00
0.000000000000e+00
0.000000000000e+00
0.000000000000e+00
0.000000000000e+00
0.000000000000e+00
0.000000000000e+00
0.000000000000e+00
0.000000000000e+00
0.000000000000e+00
1.000000000000e+00
1.000000000000e+00
1.000000000000e+00
1.000000000000e+00
1.000000000000e+00
1.000000000000e+00
1.000000000000e+00
1.000000000000e+00
1.000000000000e+00
1.000000000000e+00
1.000000000000e+00
1.000000000000e+00
1.000000000000e+00
1.000000000000e+00
1.000000000000e+00
1.000000000000e+00
0.000000000000e+00
0.000000000000e+00
0.000000000000e+00
0.000000000000e+00
0.000000000000e+00
0.000000000000e+00
0.000000000000e+00
0.000000000000e+00
0.000000000000e+00
0.000000000000e+00
0.000000000000e+00
0.000000000000e+00
0.000000000000e+00
0.000000000000e+00
0.000000000000e+00
0.000000000000e+00
0.000000000000e+00
0.000000000000e+00
0.000000000000e+00
0.000000000000e+00
0.000000000000e+00
0.000000000000e+00
0.000000000000e+00
0.000000000000e+00
0.000000000000e+00
0.000000000000e+00
0.000000000000e+00
0.000000000000e+00
0.000000000000e+00
0.000000000000e+00
0.000000000000e+00
0.000000000000e+00
0.000000000000e+00
0.000000000000e+00
0.000000000000e+00
0.000000000000e+00
0.000000000000e+00
0.000000000000e+00
0.000000000000e+00
0.000000000000e+00
0.000000000000e+00
0.000000000000e+00
0.000000000000e+00
0.000000000000e+00
0.000000000000e+00
0.000000000000e+00
0.000000000000e+00
0.000000000000e+00
