# vtk DataFile Version 3.0
SFC long-time C3D8 dynamic frame 59 t=1.180000000000e+00
ASCII
DATASET UNSTRUCTURED_GRID
POINTS 250 float
-2.500000000000e-01 -2.500000000000e-01 0.000000000000e+00
-1.250000000000e-01 -2.500000000000e-01 0.000000000000e+00
0.000000000000e+00 -2.500000000000e-01 0.000000000000e+00
1.250000000000e-01 -2.500000000000e-01 0.000000000000e+00
2.500000000000e-01 -2.500000000000e-01 0.000000000000e+00
-2.500000000000e-01 -1.250000000000e-01 0.000000000000e+00
-1.250000000000e-01 -1.250000000000e-01 0.000000000000e+00
0.000000000000e+00 -1.250000000000e-01 0.000000000000e+00
1.250000000000e-01 -1.250000000000e-01 0.000000000000e+00
2.500000000000e-01 -1.250000000000e-01 0.000000000000e+00
-2.500000000000e-01 0.000000000000e+00 0.000000000000e+00
-1.250000000000e-01 0.000000000000e+00 0.000000000000e+00
0.000000000000e+00 0.000000000000e+00 0.000000000000e+00
1.250000000000e-01 0.000000000000e+00 0.000000000000e+00
2.500000000000e-01 0.000000000000e+00 0.000000000000e+00
-2.500000000000e-01 1.250000000000e-01 0.000000000000e+00
-1.250000000000e-01 1.250000000000e-01 0.000000000000e+00
0.000000000000e+00 1.250000000000e-01 0.000000000000e+00
1.250000000000e-01 1.250000000000e-01 0.000000000000e+00
2.500000000000e-01 1.250000000000e-01 0.000000000000e+00
-2.500000000000e-01 2.500000000000e-01 0.000000000000e+00
-1.250000000000e-01 2.500000000000e-01 0.000000000000e+00
0.000000000000e+00 2.500000000000e-01 0.000000000000e+00
1.250000000000e-01 2.500000000000e-01 0.000000000000e+00
2.500000000000e-01 2.500000000000e-01 0.000000000000e+00
-2.500000000000e-01 -2.500000000000e-01 6.000000000000e-02
-1.250000000000e-01 -2.500000000000e-01 6.000000000000e-02
0.000000000000e+00 -2.500000000000e-01 6.000000000000e-02
1.250000000000e-01 -2.500000000000e-01 6.000000000000e-02
2.500000000000e-01 -2.500000000000e-01 6.000000000000e-02
-2.500000000000e-01 -1.250000000000e-01 6.000000000000e-02
-1.250000000000e-01 -1.250000000000e-01 6.000000000000e-02
0.000000000000e+00 -1.250000000000e-01 6.000000000000e-02
1.250000000000e-01 -1.250000000000e-01 6.000000000000e-02
2.500000000000e-01 -1.250000000000e-01 6.000000000000e-02
-2.500000000000e-01 0.000000000000e+00 6.000000000000e-02
-1.250000000000e-01 0.000000000000e+00 6.000000000000e-02
0.000000000000e+00 0.000000000000e+00 6.000000000000e-02
1.250000000000e-01 0.000000000000e+00 6.000000000000e-02
2.500000000000e-01 0.000000000000e+00 6.000000000000e-02
-2.500000000000e-01 1.250000000000e-01 6.000000000000e-02
-1.250000000000e-01 1.250000000000e-01 6.000000000000e-02
0.000000000000e+00 1.250000000000e-01 6.000000000000e-02
1.250000000000e-01 1.250000000000e-01 6.000000000000e-02
2.500000000000e-01 1.250000000000e-01 6.000000000000e-02
-2.500000000000e-01 2.500000000000e-01 6.000000000000e-02
-1.250000000000e-01 2.500000000000e-01 6.000000000000e-02
0.000000000000e+00 2.500000000000e-01 6.000000000000e-02
1.250000000000e-01 2.500000000000e-01 6.000000000000e-02
2.500000000000e-01 2.500000000000e-01 6.000000000000e-02
-2.500000000000e-01 -2.500000000000e-01 1.200000000000e-01
-1.250000000000e-01 -2.500000000000e-01 1.200000000000e-01
0.000000000000e+00 -2.500000000000e-01 1.200000000000e-01
1.250000000000e-01 -2.500000000000e-01 1.200000000000e-01
2.500000000000e-01 -2.500000000000e-01 1.200000000000e-01
-2.500000000000e-01 -1.250000000000e-01 1.200000000000e-01
-1.250000000000e-01 -1.250000000000e-01 1.200000000000e-01
0.000000000000e+00 -1.250000000000e-01 1.200000000000e-01
1.250000000000e-01 -1.250000000000e-01 1.200000000000e-01
2.500000000000e-01 -1.250000000000e-01 1.200000000000e-01
-2.500000000000e-01 0.000000000000e+00 1.200000000000e-01
-1.250000000000e-01 0.000000000000e+00 1.200000000000e-01
0.000000000000e+00 0.000000000000e+00 1.200000000000e-01
1.250000000000e-01 0.000000000000e+00 1.200000000000e-01
2.500000000000e-01 0.000000000000e+00 1.200000000000e-01
-2.500000000000e-01 1.250000000000e-01 1.200000000000e-01
-1.250000000000e-01 1.250000000000e-01 1.200000000000e-01
0.000000000000e+00 1.250000000000e-01 1.200000000000e-01
1.250000000000e-01 1.250000000000e-01 1.200000000000e-01
2.500000000000e-01 1.250000000000e-01 1.200000000000e-01
-2.500000000000e-01 2.500000000000e-01 1.200000000000e-01
-1.250000000000e-01 2.500000000000e-01 1.200000000000e-01
0.000000000000e+00 2.500000000000e-01 1.200000000000e-01
1.250000000000e-01 2.500000000000e-01 1.200000000000e-01
2.500000000000e-01 2.500000000000e-01 1.200000000000e-01
-2.500000000000e-01 -2.500000000000e-01 1.800000000000e-01
-1.250000000000e-01 -2.500000000000e-01 1.800000000000e-01
0.000000000000e+00 -2.500000000000e-01 1.800000000000e-01
1.250000000000e-01 -2.500000000000e-01 1.800000000000e-01
2.500000000000e-01 -2.500000000000e-01 1.800000000000e-01
-2.500000000000e-01 -1.250000000000e-01 1.800000000000e-01
-1.250000000000e-01 -1.250000000000e-01 1.800000000000e-01
0.000000000000e+00 -1.250000000000e-01 1.800000000000e-01
1.250000000000e-01 -1.250000000000e-01 1.800000000000e-01
2.500000000000e-01 -1.250000000000e-01 1.800000000000e-01
-2.500000000000e-01 0.000000000000e+00 1.800000000000e-01
-1.250000000000e-01 0.000000000000e+00 1.800000000000e-01
0.000000000000e+00 0.000000000000e+00 1.800000000000e-01
1.250000000000e-01 0.000000000000e+00 1.800000000000e-01
2.500000000000e-01 0.000000000000e+00 1.800000000000e-01
-2.500000000000e-01 1.250000000000e-01 1.800000000000e-01
-1.250000000000e-01 1.250000000000e-01 1.800000000000e-01
0.000000000000e+00 1.250000000000e-01 1.800000000000e-01
1.250000000000e-01 1.250000000000e-01 1.800000000000e-01
2.500000000000e-01 1.250000000000e-01 1.800000000000e-01
-2.500000000000e-01 2.500000000000e-01 1.800000000000e-01
-1.250000000000e-01 2.500000000000e-01 1.800000000000e-01
0.000000000000e+00 2.500000000000e-01 1.800000000000e-01
1.250000000000e-01 2.500000000000e-01 1.800000000000e-01
2.500000000000e-01 2.500000000000e-01 1.800000000000e-01
-2.500000000000e-01 -2.500000000000e-01 2.400000000000e-01
-1.250000000000e-01 -2.500000000000e-01 2.400000000000e-01
0.000000000000e+00 -2.500000000000e-01 2.400000000000e-01
1.250000000000e-01 -2.500000000000e-01 2.400000000000e-01
2.500000000000e-01 -2.500000000000e-01 2.400000000000e-01
-2.500000000000e-01 -1.250000000000e-01 2.400000000000e-01
-1.250000000000e-01 -1.250000000000e-01 2.400000000000e-01
0.000000000000e+00 -1.250000000000e-01 2.400000000000e-01
1.250000000000e-01 -1.250000000000e-01 2.400000000000e-01
2.500000000000e-01 -1.250000000000e-01 2.400000000000e-01
-2.500000000000e-01 0.000000000000e+00 2.400000000000e-01
-1.250000000000e-01 0.000000000000e+00 2.400000000000e-01
0.000000000000e+00 0.000000000000e+00 2.400000000000e-01
1.250000000000e-01 0.000000000000e+00 2.400000000000e-01
2.500000000000e-01 0.000000000000e+00 2.400000000000e-01
-2.500000000000e-01 1.250000000000e-01 2.400000000000e-01
-1.250000000000e-01 1.250000000000e-01 2.400000000000e-01
0.000000000000e+00 1.250000000000e-01 2.400000000000e-01
1.250000000000e-01 1.250000000000e-01 2.400000000000e-01
2.500000000000e-01 1.250000000000e-01 2.400000000000e-01
-2.500000000000e-01 2.500000000000e-01 2.400000000000e-01
-1.250000000000e-01 2.500000000000e-01 2.400000000000e-01
0.000000000000e+00 2.500000000000e-01 2.400000000000e-01
1.250000000000e-01 2.500000000000e-01 2.400000000000e-01
2.500000000000e-01 2.500000000000e-01 2.400000000000e-01
-2.500000152782e-01 -2.500000152999e-01 2.427183091318e-01
-1.250000104797e-01 -2.500000143959e-01 2.427183013963e-01
3.344148440123e-11 -2.500000131642e-01 2.427182976246e-01
1.250000105466e-01 -2.500000143960e-01 2.427183014603e-01
2.500000153451e-01 -2.500000153000e-01 2.427183092598e-01
-2.500000143742e-01 -1.250000105014e-01 2.427183013759e-01
-1.250000103875e-01 -1.250000104093e-01 2.427182943317e-01
3.346719511544e-11 -1.250000099650e-01 2.427182909604e-01
1.250000104545e-01 -1.250000104093e-01 2.427182943957e-01
2.500000144411e-01 -1.250000105015e-01 2.427183015040e-01
-2.500000131424e-01 1.176539583212e-11 2.427182975839e-01
-1.250000099432e-01 1.174014075985e-11 2.427182909401e-01
3.349270692412e-11 1.171482167329e-11 2.427182876664e-01
1.250000100102e-01 1.168939734589e-11 2.427182910041e-01
2.500000132094e-01 1.166390662123e-11 2.427182977120e-01
-2.500000143741e-01 1.250000105249e-01 2.427183013992e-01
-1.250000103875e-01 1.250000104327e-01 2.427182943550e-01
3.351794799815e-11 1.250000099884e-01 2.427182909837e-01
1.250000104545e-01 1.250000104327e-01 2.427182944190e-01
2.500000144412e-01 1.250000105248e-01 2.427183015273e-01
-2.500000152781e-01 2.500000153234e-01 2.427183091784e-01
-1.250000104796e-01 2.500000144194e-01 2.427183014429e-01
3.354298379680e-11 2.500000131876e-01 2.427182976712e-01
1.250000105467e-01 2.500000144193e-01 2.427183015069e-01
2.500000153452e-01 2.500000153233e-01 2.427183093064e-01
-2.500000116416e-01 -2.500000116527e-01 3.077183065812e-01
-1.250000076427e-01 -2.500000111281e-01 3.077182982758e-01
1.679427465489e-11 -2.500000102685e-01 3.077182939425e-01
1.250000076762e-01 -2.500000111282e-01 3.077182983398e-01
2.500000116752e-01 -2.500000116528e-01 3.077183067093e-01
-2.500000111170e-01 -1.250000076537e-01 3.077182982555e-01
-1.250000076609e-01 -1.250000076720e-01 3.077182904323e-01
1.681999940514e-11 -1.250000073651e-01 3.077182863631e-01
1.250000076945e-01 -1.250000076721e-01 3.077182904963e-01
2.500000111506e-01 -1.250000076538e-01 3.077182983835e-01
-2.500000102574e-01 5.709195799283e-12 3.077182939017e-01
-1.250000073539e-01 5.683951624403e-12 3.077182863427e-01
1.684553325874e-11 5.658639015210e-12 3.077182822835e-01
1.250000073876e-01 5.633206413152e-12 3.077182864068e-01
2.500000102911e-01 5.607706447470e-12 3.077182940298e-01
-2.500000111169e-01 1.250000076652e-01 3.077182982787e-01
-1.250000076608e-01 1.250000076834e-01 3.077182904556e-01
1.687074802101e-11 1.250000073764e-01 3.077182863864e-01
1.250000076946e-01 1.250000076833e-01 3.077182905196e-01
2.500000111507e-01 1.250000076651e-01 3.077182984068e-01
-2.500000116415e-01 2.500000116641e-01 3.077183066278e-01
-1.250000076426e-01 2.500000111395e-01 3.077182983224e-01
1.689577365362e-11 2.500000102799e-01 3.077182939891e-01
1.250000076763e-01 2.500000111394e-01 3.077182983864e-01
2.500000116753e-01 2.500000116640e-01 3.077183067559e-01
-2.500000082341e-01 -2.500000082345e-01 3.727183034099e-01
-1.250000051893e-01 -2.500000079995e-01 3.727182946258e-01
1.472799307759e-13 -2.500000074944e-01 3.727182900375e-01
1.250000051896e-01 -2.500000079995e-01 3.727182946898e-01
2.500000082343e-01 -2.500000082346e-01 3.727183035380e-01
-2.500000079989e-01 -1.250000051898e-01 3.727182946054e-01
-1.250000051991e-01 -1.250000051996e-01 3.727182861656e-01
1.729655758386e-13 -1.250000050267e-01 3.727182817717e-01
1.250000051994e-01 -1.250000051997e-01 3.727182862297e-01
2.500000079993e-01 -1.250000051899e-01 3.727182947335e-01
-2.500000074938e-01 -3.469249098334e-13 3.727182899968e-01
-1.250000050261e-01 -3.721800140975e-13 3.727182817513e-01
1.985004645598e-13 -3.974948728333e-13 3.727182773220e-01
1.250000050265e-01 -4.229241544639e-13 3.727182818153e-01
2.500000074942e-01 -4.484130799166e-13 3.727182901248e-01
-2.500000079989e-01 1.250000051891e-01 3.727182946287e-01
-1.250000051990e-01 1.250000051989e-01 3.727182861889e-01
2.237146441651e-13 1.250000050259e-01 3.727182817950e-01
1.250000051995e-01 1.250000051988e-01 3.727182862530e-01
2.500000079993e-01 1.250000051890e-01 3.727182947568e-01
-2.500000082340e-01 2.500000082339e-01 3.727183034565e-01
-1.250000051892e-01 2.500000079987e-01 3.727182946724e-01
2.487743394185e-13 2.500000074936e-01 3.727182900841e-01
1.250000051897e-01 2.500000079987e-01 3.727182947364e-01
2.500000082344e-01 2.500000082338e-01 3.727183035846e-01
-2.500000040571e-01 -2.500000040470e-01 4.377183012035e-01
-1.250000025130e-01 -2.500000040150e-01 4.377182919156e-01
-1.649962683611e-11 -2.500000038368e-01 4.377182872220e-01
1.250000024800e-01 -2.500000040151e-01 4.377182919796e-01
2.500000040241e-01 -2.500000040471e-01 4.377183013316e-01
-2.500000040251e-01 -1.250000025029e-01 4.377182918952e-01
-1.250000025172e-01 -1.250000025072e-01 4.377182829140e-01
-1.647398151880e-11 -1.250000024530e-01 4.377182783901e-01
1.250000024843e-01 -1.250000025072e-01 4.377182829780e-01
2.500000039921e-01 -1.250000025030e-01 4.377182920233e-01
-2.500000038468e-01 -6.403010044908e-12 4.377182871812e-01
-1.250000024630e-01 -6.428281079124e-12 4.377182783697e-01
-1.644844247847e-11 -6.453596501855e-12 4.377182737895e-01
1.250000024301e-01 -6.479025897575e-12 4.377182784338e-01
2.500000038139e-01 -6.504500939782e-12 4.377182873093e-01
-2.500000040250e-01 1.250000024901e-01 4.377182919185e-01
-1.250000025172e-01 1.250000024943e-01 4.377182829373e-01
-1.642323406975e-11 1.250000024401e-01 4.377182784134e-01
1.250000024843e-01 1.250000024943e-01 4.377182830013e-01
2.500000039922e-01 1.250000024900e-01 4.377182920466e-01
-2.500000040570e-01 2.500000040342e-01 4.377183012501e-01
-1.250000025129e-01 2.500000040022e-01 4.377182919622e-01
-1.639813847854e-11 2.500000038239e-01 4.377182872685e-01
1.250000024801e-01 2.500000040021e-01 4.377182920262e-01
2.500000040242e-01 2.500000040341e-01 4.377183013782e-01
-2.499999991762e-01 -2.499999991555e-01 5.027183003852e-01
-1.249999990794e-01 -2.499999993533e-01 5.027182909336e-01
-3.314667540245e-11 -2.499999994797e-01 5.027182862747e-01
1.249999990131e-01 -2.499999993533e-01 5.027182909977e-01
2.499999991099e-01 -2.499999991556e-01 5.027183005132e-01
-2.499999993739e-01 -1.249999990588e-01 5.027182909133e-01
-1.249999991284e-01 -1.249999991078e-01 5.027182817896e-01
-3.312099685280e-11 -1.249999991252e-01 5.027182773104e-01
1.249999990622e-01 -1.249999991078e-01 5.027182818537e-01
2.499999993077e-01 -1.249999990589e-01 5.027182910413e-01
-2.499999995003e-01 -1.245914211547e-11 5.027182862340e-01
-1.249999991457e-01 -1.248440343862e-11 5.027182772901e-01
-3.309543578326e-11 -1.250971435988e-11 5.027182727627e-01
1.249999990796e-01 -1.253515896799e-11 5.027182773541e-01
2.499999994341e-01 -1.256063912581e-11 5.027182863620e-01
-2.499999993739e-01 1.249999990338e-01 5.027182909366e-01
-1.249999991284e-01 1.249999990828e-01 5.027182818129e-01
-3.307026038191e-11 1.249999991001e-01 5.027182773337e-01
1.249999990622e-01 1.249999990828e-01 5.027182818770e-01
2.499999993077e-01 1.249999990337e-01 5.027182910646e-01
-2.499999991761e-01 2.499999991306e-01 5.027183004318e-01
-1.249999990793e-01 2.499999993283e-01 5.027182909802e-01
-3.304518660532e-11 2.499999994547e-01 5.027182863213e-01
1.249999990132e-01 2.499999993283e-01 5.027182910442e-01
2.499999991100e-01 2.499999991305e-01 5.027183005598e-01
CELLS 128 1152
8 0 1 6 5 25 26 31 30
8 1 2 7 6 26 27 32 31
8 2 3 8 7 27 28 33 32
8 3 4 9 8 28 29 34 33
8 5 6 11 10 30 31 36 35
8 6 7 12 11 31 32 37 36
8 7 8 13 12 32 33 38 37
8 8 9 14 13 33 34 39 38
8 10 11 16 15 35 36 41 40
8 11 12 17 16 36 37 42 41
8 12 13 18 17 37 38 43 42
8 13 14 19 18 38 39 44 43
8 15 16 21 20 40 41 46 45
8 16 17 22 21 41 42 47 46
8 17 18 23 22 42 43 48 47
8 18 19 24 23 43 44 49 48
8 25 26 31 30 50 51 56 55
8 26 27 32 31 51 52 57 56
8 27 28 33 32 52 53 58 57
8 28 29 34 33 53 54 59 58
8 30 31 36 35 55 56 61 60
8 31 32 37 36 56 57 62 61
8 32 33 38 37 57 58 63 62
8 33 34 39 38 58 59 64 63
8 35 36 41 40 60 61 66 65
8 36 37 42 41 61 62 67 66
8 37 38 43 42 62 63 68 67
8 38 39 44 43 63 64 69 68
8 40 41 46 45 65 66 71 70
8 41 42 47 46 66 67 72 71
8 42 43 48 47 67 68 73 72
8 43 44 49 48 68 69 74 73
8 50 51 56 55 75 76 81 80
8 51 52 57 56 76 77 82 81
8 52 53 58 57 77 78 83 82
8 53 54 59 58 78 79 84 83
8 55 56 61 60 80 81 86 85
8 56 57 62 61 81 82 87 86
8 57 58 63 62 82 83 88 87
8 58 59 64 63 83 84 89 88
8 60 61 66 65 85 86 91 90
8 61 62 67 66 86 87 92 91
8 62 63 68 67 87 88 93 92
8 63 64 69 68 88 89 94 93
8 65 66 71 70 90 91 96 95
8 66 67 72 71 91 92 97 96
8 67 68 73 72 92 93 98 97
8 68 69 74 73 93 94 99 98
8 75 76 81 80 100 101 106 105
8 76 77 82 81 101 102 107 106
8 77 78 83 82 102 103 108 107
8 78 79 84 83 103 104 109 108
8 80 81 86 85 105 106 111 110
8 81 82 87 86 106 107 112 111
8 82 83 88 87 107 108 113 112
8 83 84 89 88 108 109 114 113
8 85 86 91 90 110 111 116 115
8 86 87 92 91 111 112 117 116
8 87 88 93 92 112 113 118 117
8 88 89 94 93 113 114 119 118
8 90 91 96 95 115 116 121 120
8 91 92 97 96 116 117 122 121
8 92 93 98 97 117 118 123 122
8 93 94 99 98 118 119 124 123
8 125 126 131 130 150 151 156 155
8 126 127 132 131 151 152 157 156
8 127 128 133 132 152 153 158 157
8 128 129 134 133 153 154 159 158
8 130 131 136 135 155 156 161 160
8 131 132 137 136 156 157 162 161
8 132 133 138 137 157 158 163 162
8 133 134 139 138 158 159 164 163
8 135 136 141 140 160 161 166 165
8 136 137 142 141 161 162 167 166
8 137 138 143 142 162 163 168 167
8 138 139 144 143 163 164 169 168
8 140 141 146 145 165 166 171 170
8 141 142 147 146 166 167 172 171
8 142 143 148 147 167 168 173 172
8 143 144 149 148 168 169 174 173
8 150 151 156 155 175 176 181 180
8 151 152 157 156 176 177 182 181
8 152 153 158 157 177 178 183 182
8 153 154 159 158 178 179 184 183
8 155 156 161 160 180 181 186 185
8 156 157 162 161 181 182 187 186
8 157 158 163 162 182 183 188 187
8 158 159 164 163 183 184 189 188
8 160 161 166 165 185 186 191 190
8 161 162 167 166 186 187 192 191
8 162 163 168 167 187 188 193 192
8 163 164 169 168 188 189 194 193
8 165 166 171 170 190 191 196 195
8 166 167 172 171 191 192 197 196
8 167 168 173 172 192 193 198 197
8 168 169 174 173 193 194 199 198
8 175 176 181 180 200 201 206 205
8 176 177 182 181 201 202 207 206
8 177 178 183 182 202 203 208 207
8 178 179 184 183 203 204 209 208
8 180 181 186 185 205 206 211 210
8 181 182 187 186 206 207 212 211
8 182 183 188 187 207 208 213 212
8 183 184 189 188 208 209 214 213
8 185 186 191 190 210 211 216 215
8 186 187 192 191 211 212 217 216
8 187 188 193 192 212 213 218 217
8 188 189 194 193 213 214 219 218
8 190 191 196 195 215 216 221 220
8 191 192 197 196 216 217 222 221
8 192 193 198 197 217 218 223 222
8 193 194 199 198 218 219 224 223
8 200 201 206 205 225 226 231 230
8 201 202 207 206 226 227 232 231
8 202 203 208 207 227 228 233 232
8 203 204 209 208 228 229 234 233
8 205 206 211 210 230 231 236 235
8 206 207 212 211 231 232 237 236
8 207 208 213 212 232 233 238 237
8 208 209 214 213 233 234 239 238
8 210 211 216 215 235 236 241 240
8 211 212 217 216 236 237 242 241
8 212 213 218 217 237 238 243 242
8 213 214 219 218 238 239 244 243
8 215 216 221 220 240 241 246 245
8 216 217 222 221 241 242 247 246
8 217 218 223 222 242 243 248 247
8 218 219 224 223 243 244 249 248
CELL_TYPES 128
12
12
12
12
12
12
12
12
12
12
12
12
12
12
12
12
12
12
12
12
12
12
12
12
12
12
12
12
12
12
12
12
12
12
12
12
12
12
12
12
12
12
12
12
12
12
12
12
12
12
12
12
12
12
12
12
12
12
12
12
12
12
12
12
12
12
12
12
12
12
12
12
12
12
12
12
12
12
12
12
12
12
12
12
12
12
12
12
12
12
12
12
12
12
12
12
12
12
12
12
12
12
12
12
12
12
12
12
12
12
12
12
12
12
12
12
12
12
12
12
12
12
12
12
12
12
12
12
POINT_DATA 250
VECTORS displacement float
0.000000000000e+00 0.000000000000e+00 0.000000000000e+00
0.000000000000e+00 0.000000000000e+00 0.000000000000e+00
0.000000000000e+00 0.000000000000e+00 0.000000000000e+00
0.000000000000e+00 0.000000000000e+00 0.000000000000e+00
0.000000000000e+00 0.000000000000e+00 0.000000000000e+00
0.000000000000e+00 0.000000000000e+00 0.000000000000e+00
0.000000000000e+00 0.000000000000e+00 0.000000000000e+00
0.000000000000e+00 0.000000000000e+00 0.000000000000e+00
0.000000000000e+00 0.000000000000e+00 0.000000000000e+00
0.000000000000e+00 0.000000000000e+00 0.000000000000e+00
0.000000000000e+00 0.000000000000e+00 0.000000000000e+00
0.000000000000e+00 0.000000000000e+00 0.000000000000e+00
0.000000000000e+00 0.000000000000e+00 0.000000000000e+00
0.000000000000e+00 0.000000000000e+00 0.000000000000e+00
0.000000000000e+00 0.000000000000e+00 0.000000000000e+00
0.000000000000e+00 0.000000000000e+00 0.000000000000e+00
0.000000000000e+00 0.000000000000e+00 0.000000000000e+00
0.000000000000e+00 0.000000000000e+00 0.000000000000e+00
0.000000000000e+00 0.000000000000e+00 0.000000000000e+00
0.000000000000e+00 0.000000000000e+00 0.000000000000e+00
0.000000000000e+00 0.000000000000e+00 0.000000000000e+00
0.000000000000e+00 0.000000000000e+00 0.000000000000e+00
0.000000000000e+00 0.000000000000e+00 0.000000000000e+00
0.000000000000e+00 0.000000000000e+00 0.000000000000e+00
0.000000000000e+00 0.000000000000e+00 0.000000000000e+00
0.000000000000e+00 0.000000000000e+00 0.000000000000e+00
0.000000000000e+00 0.000000000000e+00 0.000000000000e+00
0.000000000000e+00 0.000000000000e+00 0.000000000000e+00
0.000000000000e+00 0.000000000000e+00 0.000000000000e+00
0.000000000000e+00 0.000000000000e+00 0.000000000000e+00
0.000000000000e+00 0.000000000000e+00 0.000000000000e+00
0.000000000000e+00 0.000000000000e+00 0.000000000000e+00
0.000000000000e+00 0.000000000000e+00 0.000000000000e+00
0.000000000000e+00 0.000000000000e+00 0.000000000000e+00
0.000000000000e+00 0.000000000000e+00 0.000000000000e+00
0.000000000000e+00 0.000000000000e+00 0.000000000000e+00
0.000000000000e+00 0.000000000000e+00 0.000000000000e+00
0.000000000000e+00 0.000000000000e+00 0.000000000000e+00
0.000000000000e+00 0.000000000000e+00 0.000000000000e+00
0.000000000000e+00 0.000000000000e+00 0.000000000000e+00
0.000000000000e+00 0.000000000000e+00 0.000000000000e+00
0.000000000000e+00 0.000000000000e+00 0.000000000000e+00
0.000000000000e+00 0.000000000000e+00 0.000000000000e+00
0.000000000000e+00 0.000000000000e+00 0.000000000000e+00
0.000000000000e+00 0.000000000000e+00 0.000000000000e+00
0.000000000000e+00 0.000000000000e+00 0.000000000000e+00
0.000000000000e+00 0.000000000000e+00 0.000000000000e+00
0.000000000000e+00 0.000000000000e+00 0.000000000000e+00
0.000000000000e+00 0.000000000000e+00 0.000000000000e+00
0.000000000000e+00 0.000000000000e+00 0.000000000000e+00
0.000000000000e+00 0.000000000000e+00 0.000000000000e+00
0.000000000000e+00 0.000000000000e+00 0.000000000000e+00
0.000000000000e+00 0.000000000000e+00 0.000000000000e+00
0.000000000000e+00 0.000000000000e+00 0.000000000000e+00
0.000000000000e+00 0.000000000000e+00 0.000000000000e+00
0.000000000000e+00 0.000000000000e+00 0.000000000000e+00
0.000000000000e+00 0.000000000000e+00 0.000000000000e+00
0.000000000000e+00 0.000000000000e+00 0.000000000000e+00
0.000000000000e+00 0.000000000000e+00 0.000000000000e+00
0.000000000000e+00 0.000000000000e+00 0.000000000000e+00
0.000000000000e+00 0.000000000000e+00 0.000000000000e+00
0.000000000000e+00 0.000000000000e+00 0.000000000000e+00
0.000000000000e+00 0.000000000000e+00 0.000000000000e+00
0.000000000000e+00 0.000000000000e+00 0.000000000000e+00
0.000000000000e+00 0.000000000000e+00 0.000000000000e+00
0.000000000000e+00 0.000000000000e+00 0.000000000000e+00
0.000000000000e+00 0.000000000000e+00 0.000000000000e+00
0.000000000000e+00 0.000000000000e+00 0.000000000000e+00
0.000000000000e+00 0.000000000000e+00 0.000000000000e+00
0.000000000000e+00 0.000000000000e+00 0.000000000000e+00
0.000000000000e+00 0.000000000000e+00 0.000000000000e+00
0.000000000000e+00 0.000000000000e+00 0.000000000000e+00
0.000000000000e+00 0.000000000000e+00 0.000000000000e+00
0.000000000000e+00 0.000000000000e+00 0.000000000000e+00
0.000000000000e+00 0.000000000000e+00 0.000000000000e+00
0.000000000000e+00 0.000000000000e+00 0.000000000000e+00
0.000000000000e+00 0.000000000000e+00 0.000000000000e+00
0.000000000000e+00 0.000000000000e+00 0.000000000000e+00
0.000000000000e+00 0.000000000000e+00 0.000000000000e+00
0.000000000000e+00 0.000000000000e+00 0.000000000000e+00
0.000000000000e+00 0.000000000000e+00 0.000000000000e+00
0.000000000000e+00 0.000000000000e+00 0.000000000000e+00
0.000000000000e+00 0.000000000000e+00 0.000000000000e+00
0.000000000000e+00 0.000000000000e+00 0.000000000000e+00
0.000000000000e+00 0.000000000000e+00 0.000000000000e+00
0.000000000000e+00 0.000000000000e+00 0.000000000000e+00
0.000000000000e+00 0.000000000000e+00 0.000000000000e+00
0.000000000000e+00 0.000000000000e+00 0.000000000000e+00
0.000000000000e+00 0.000000000000e+00 0.000000000000e+00
0.000000000000e+00 0.000000000000e+00 0.000000000000e+00
0.000000000000e+00 0.000000000000e+00 0.000000000000e+00
0.000000000000e+00 0.000000000000e+00 0.000000000000e+00
0.000000000000e+00 0.000000000000e+00 0.000000000000e+00
0.000000000000e+00 0.000000000000e+00 0.000000000000e+00
0.000000000000e+00 0.000000000000e+00 0.000000000000e+00
0.000000000000e+00 0.000000000000e+00 0.000000000000e+00
0.000000000000e+00 0.000000000000e+00 0.000000000000e+00
0.000000000000e+00 0.000000000000e+00 0.000000000000e+00
0.000000000000e+00 0.000000000000e+00 0.000000000000e+00
0.000000000000e+00 0.000000000000e+00 0.000000000000e+00
0.000000000000e+00 0.000000000000e+00 0.000000000000e+00
0.000000000000e+00 0.000000000000e+00 0.000000000000e+00
0.000000000000e+00 0.000000000000e+00 0.000000000000e+00
0.000000000000e+00 0.000000000000e+00 0.000000000000e+00
0.000000000000e+00 0.000000000000e+00 0.000000000000e+00
0.000000000000e+00 0.000000000000e+00 0.000000000000e+00
0.000000000000e+00 0.000000000000e+00 0.000000000000e+00
0.000000000000e+00 0.000000000000e+00 0.000000000000e+00
0.000000000000e+00 0.000000000000e+00 0.000000000000e+00
0.000000000000e+00 0.000000000000e+00 0.000000000000e+00
0.000000000000e+00 0.000000000000e+00 0.000000000000e+00
0.000000000000e+00 0.000000000000e+00 0.000000000000e+00
0.000000000000e+00 0.000000000000e+00 0.000000000000e+00
0.000000000000e+00 0.000000000000e+00 0.000000000000e+00
0.000000000000e+00 0.000000000000e+00 0.000000000000e+00
0.000000000000e+00 0.000000000000e+00 0.000000000000e+00
0.000000000000e+00 0.000000000000e+00 0.000000000000e+00
0.000000000000e+00 0.000000000000e+00 0.000000000000e+00
0.000000000000e+00 0.000000000000e+00 0.000000000000e+00
0.000000000000e+00 0.000000000000e+00 0.000000000000e+00
0.000000000000e+00 0.000000000000e+00 0.000000000000e+00
0.000000000000e+00 0.000000000000e+00 0.000000000000e+00
0.000000000000e+00 0.000000000000e+00 0.000000000000e+00
0.000000000000e+00 0.000000000000e+00 0.000000000000e+00
0.000000000000e+00 0.000000000000e+00 0.000000000000e+00
-1.527817847991e-08 -1.529985399894e-08 -1.228169086821e-02
-1.047973902306e-08 -1.439591492493e-08 -1.228169860371e-02
3.344148440123e-11 -1.316421837309e-08 -1.228170237535e-02
1.054662191807e-08 -1.439596653427e-08 -1.228169853968e-02
1.534506131288e-08 -1.529995711904e-08 -1.228169074015e-02
-1.437418820883e-08 -1.050141474074e-08 -1.228169862407e-02
-1.038753890816e-08 -1.040926575128e-08 -1.228170566832e-02
3.346719511544e-11 -9.964953673839e-09 -1.228170903958e-02
1.045447323313e-08 -1.040931706026e-08 -1.228170560429e-02
1.444112243515e-08 -1.050151729536e-08 -1.228169849602e-02
-1.314244057041e-08 1.176539583212e-11 -1.228170241609e-02
-9.943175813729e-09 1.174014075985e-11 -1.228170905994e-02
3.349270692412e-11 1.171482167329e-11 -1.228171233362e-02
1.001016116908e-08 1.168939734589e-11 -1.228170899592e-02
1.320942577589e-08 1.166390662123e-11 -1.228170228803e-02
-1.437413777308e-08 1.052494549909e-08 -1.228169860078e-02
-1.038748835714e-08 1.043274601725e-08 -1.228170564503e-02
3.351794799815e-11 9.988383299933e-09 -1.228170901628e-02
1.045452418773e-08 1.043269583813e-08 -1.228170558100e-02
1.444117350740e-08 1.052484507338e-08 -1.228169847272e-02
-1.527807755729e-08 1.532338472981e-08 -1.228169082162e-02
-1.047963789678e-08 1.441939515928e-08 -1.228169855712e-02
3.354298379680e-11 1.318764795581e-08 -1.228170232877e-02
1.054672379895e-08 1.441934527848e-08 -1.228169849309e-02
1.534516340274e-08 1.532328487236e-08 -1.228169069357e-02
-1.164159191136e-08 -1.165267655070e-08 -1.228169341876e-02
-7.642652822220e-09 -1.112812422958e-08 -1.228170172418e-02
1.679427465489e-11 -1.026854593470e-08 -1.228170605754e-02
7.676241406963e-09 -1.112817570391e-08 -1.228170166015e-02
1.167518057161e-08 -1.165277949576e-08 -1.228169329070e-02
-1.111698840418e-08 -7.653737610697e-09 -1.228170174455e-02
-7.660873961350e-09 -7.672009862456e-09 -1.228170956771e-02
1.681999940514e-11 -7.365095641013e-09 -1.228171363690e-02
7.694513986996e-09 -7.672061072892e-09 -1.228170950368e-02
1.115062846194e-08 -7.653840027558e-09 -1.228170161649e-02
-1.025735904930e-08 5.709195799283e-12 -1.228170609827e-02
-7.353908745558e-09 5.683951624403e-12 -1.228171365727e-02
1.684553325874e-11 5.658639015210e-12 -1.228171771655e-02
7.387599825103e-09 5.633206413152e-12 -1.228171359324e-02
1.029105009895e-08 5.607706447470e-12 -1.228170597021e-02
-1.111693791610e-08 7.665156020067e-09 -1.228170172126e-02
-7.660823375772e-09 7.683377778253e-09 -1.228170954442e-02
1.687074802101e-11 7.376412924123e-09 -1.228171361361e-02
7.694564902020e-09 7.683327496384e-09 -1.228170948039e-02
1.115067947632e-08 7.665055451667e-09 -1.228170159320e-02
-1.164149093435e-08 1.166409499089e-08 -1.228169337217e-02
-7.642551658817e-09 1.113949216172e-08 -1.228170167760e-02
1.689577365362e-11 1.027986320539e-08 -1.228170601095e-02
7.676343237123e-09 1.113944214549e-08 -1.228170161357e-02
1.167528259055e-08 1.166399494785e-08 -1.228169324412e-02
-8.234051775429e-09 -8.234545623932e-09 -1.228169659007e-02
-5.189315848082e-09 -7.999452029440e-09 -1.228170537422e-02
1.472799307759e-13 -7.494427605657e-09 -1.228170996248e-02
5.189610448944e-09 -7.999503354940e-09 -1.228170531019e-02
8.234346482304e-09 -8.234648347161e-09 -1.228169646201e-02
-7.998907022189e-09 -5.189809812988e-09 -1.228170539459e-02
-5.199054632499e-09 -5.199599677666e-09 -1.228171383436e-02
1.729655758386e-13 -5.026666920869e-09 -1.228171822832e-02
5.199400614458e-09 -5.199650784145e-09 -1.228171377033e-02
7.999253093419e-09 -5.189912078375e-09 -1.228170526653e-02
-7.493831585750e-09 -3.469249098334e-13 -1.228171000322e-02
-5.026070915510e-09 -3.721800140975e-13 -1.228171824868e-02
1.985004645598e-13 -3.974948728333e-13 -1.228172267803e-02
5.026467951407e-09 -4.229241544639e-13 -1.228171818466e-02
7.494228651464e-09 -4.484130799166e-13 -1.228170987516e-02
-7.998856486544e-09 5.189115987531e-09 -1.228170537129e-02
-5.199004014249e-09 5.198855335757e-09 -1.228171381106e-02
2.237146441651e-13 5.025871945941e-09 -1.228171820502e-02
5.199451490183e-09 5.198804950413e-09 -1.228171374704e-02
7.999304048296e-09 5.189015266693e-09 -1.228170524324e-02
-8.233950724444e-09 8.233851845834e-09 -1.228169654348e-02
-5.189214633923e-09 7.998707718860e-09 -1.228170532763e-02
2.487743394185e-13 7.493632639789e-09 -1.228170991590e-02
5.189712221578e-09 7.998657547485e-09 -1.228170526360e-02
8.234448414649e-09 8.233751576679e-09 -1.228169641542e-02
-4.057137532680e-09 -4.047040661594e-09 -1.228169879647e-02
-2.512964148691e-09 -4.015049020342e-09 -1.228170808439e-02
-1.649962683611e-11 -3.836798145131e-09 -1.228171277805e-02
2.479964933042e-09 -4.015100151083e-09 -1.228170802037e-02
4.024138384942e-09 -4.047143069376e-09 -1.228169866841e-02
-4.025094790710e-09 -2.502867348228e-09 -1.228170810476e-02
-2.517212089990e-09 -2.507166338436e-09 -1.228171708602e-02
-1.647398151880e-11 -2.452997094100e-09 -1.228172160990e-02
2.484264194387e-09 -2.507217329069e-09 -1.228171702199e-02
3.992146971265e-09 -2.502969447041e-09 -1.228170797671e-02
-3.846792958439e-09 -6.403010044908e-12 -1.228171281878e-02
-2.462991924026e-09 -6.428281079124e-12 -1.228172163026e-02
-1.644844247847e-11 -6.453596501855e-12 -1.228172621053e-02
2.430095087916e-09 -6.479025897575e-12 -1.228172156624e-02
3.813896151691e-09 -6.504500939782e-12 -1.228171269073e-02
-4.025044190071e-09 2.490061348680e-09 -1.228170808147e-02
-2.517161435521e-09 2.494309796861e-09 -1.228171706273e-02
-1.642323406975e-11 2.440089922930e-09 -1.228172158660e-02
2.484315027667e-09 2.494259291573e-09 -1.228171699870e-02
3.992197849937e-09 2.489960462749e-09 -1.228170795341e-02
-4.057036378763e-09 4.034234685723e-09 -1.228169874988e-02
-2.512862879117e-09 4.002192507151e-09 -1.228170803781e-02
-1.639813847854e-11 3.823890977425e-09 -1.228171273146e-02
2.480066643602e-09 4.002142135394e-09 -1.228170797378e-02
4.024240214151e-09 4.034134111097e-09 -1.228169862183e-02
8.238331602732e-10 8.445207772631e-10 -1.228169961481e-02
9.205603658394e-10 6.467187995385e-10 -1.228170906636e-02
-3.314667540245e-11 5.203224307242e-10 -1.228171372531e-02
-9.868535831046e-10 6.466679071781e-10 -1.228170900234e-02
-8.901262288741e-10 8.444186989623e-10 -1.228169948676e-02
6.260822593334e-10 9.412479760325e-10 -1.228170908673e-02
8.715740416347e-10 8.922106144371e-10 -1.228171821037e-02
-3.312099685280e-11 8.748394904123e-10 -1.228172268957e-02
-9.378158991282e-10 8.921597571936e-10 -1.228171814634e-02
-6.923239830651e-10 9.411460720371e-10 -1.228170895868e-02
4.997367880552e-10 -1.245914211547e-11 -1.228171376604e-02
8.542538135688e-10 -1.248440343862e-11 -1.228172270993e-02
-3.309543578326e-11 -1.250971435988e-11 -1.228172723728e-02
-9.204445694745e-10 -1.253515896799e-11 -1.228172264591e-02
-5.659274532692e-10 -1.256063912581e-11 -1.228171363799e-02
6.261329365820e-10 -9.661662134739e-10 -1.228170906344e-02
8.716247365179e-10 -9.171793831774e-10 -1.228171818707e-02
-3.307026038191e-11 -8.998588821102e-10 -1.228172266627e-02
-9.377651154037e-10 -9.172300214861e-10 -1.228171812305e-02
-6.922731824993e-10 -9.662673015250e-10 -1.228170893538e-02
8.239344236068e-10 -8.694389705280e-10 -1.228169956823e-02
9.206616929604e-10 -6.716875275835e-10 -1.228170901978e-02
-3.304518660532e-11 -5.453417958096e-10 -1.228171367872e-02
-9.867519390722e-10 -6.717381157510e-10 -1.228170895575e-02
-8.900245265400e-10 -8.695398727316e-10 -1.228169944017e-02
SCALARS displacement_magnitude float 1
LOOKUP_TABLE default
0.000000000000e+00
0.000000000000e+00
0.000000000000e+00
0.000000000000e+00
0.000000000000e+00
0.000000000000e+00
0.000000000000e+00
0.000000000000e+00
0.000000000000e+00
0.000000000000e+00
0.000000000000e+00
0.000000000000e+00
0.000000000000e+00
0.000000000000e+00
0.000000000000e+00
0.000000000000e+00
0.000000000000e+00
0.000000000000e+00
0.000000000000e+00
0.000000000000e+00
0.000000000000e+00
0.000000000000e+00
0.000000000000e+00
0.000000000000e+00
0.000000000000e+00
0.000000000000e+00
0.000000000000e+00
0.000000000000e+00
0.000000000000e+00
0.000000000000e+00
0.000000000000e+00
0.000000000000e+00
0.000000000000e+00
0.000000000000e+00
0.000000000000e+00
0.000000000000e+00
0.000000000000e+00
0.000000000000e+00
0.000000000000e+00
0.000000000000e+00
0.000000000000e+00
0.000000000000e+00
0.000000000000e+00
0.000000000000e+00
0.000000000000e+00
0.000000000000e+00
0.000000000000e+00
0.000000000000e+00
0.000000000000e+00
0.000000000000e+00
0.000000000000e+00
0.000000000000e+00
0.000000000000e+00
0.000000000000e+00
0.000000000000e+00
0.000000000000e+00
0.000000000000e+00
0.000000000000e+00
0.000000000000e+00
0.000000000000e+00
0.000000000000e+00
0.000000000000e+00
0.000000000000e+00
0.000000000000e+00
0.000000000000e+00
0.000000000000e+00
0.000000000000e+00
0.000000000000e+00
0.000000000000e+00
0.000000000000e+00
0.000000000000e+00
0.000000000000e+00
0.000000000000e+00
0.000000000000e+00
0.000000000000e+00
0.000000000000e+00
0.000000000000e+00
0.000000000000e+00
0.000000000000e+00
0.000000000000e+00
0.000000000000e+00
0.000000000000e+00
0.000000000000e+00
0.000000000000e+00
0.000000000000e+00
0.000000000000e+00
0.000000000000e+00
0.000000000000e+00
0.000000000000e+00
0.000000000000e+00
0.000000000000e+00
0.000000000000e+00
0.000000000000e+00
0.000000000000e+00
0.000000000000e+00
0.000000000000e+00
0.000000000000e+00
0.000000000000e+00
0.000000000000e+00
0.000000000000e+00
0.000000000000e+00
0.000000000000e+00
0.000000000000e+00
0.000000000000e+00
0.000000000000e+00
0.000000000000e+00
0.000000000000e+00
0.000000000000e+00
0.000000000000e+00
0.000000000000e+00
0.000000000000e+00
0.000000000000e+00
0.000000000000e+00
0.000000000000e+00
0.000000000000e+00
0.000000000000e+00
0.000000000000e+00
0.000000000000e+00
0.000000000000e+00
0.000000000000e+00
0.000000000000e+00
0.000000000000e+00
0.000000000000e+00
0.000000000000e+00
0.000000000000e+00
1.228169086823e-02
1.228169860372e-02
1.228170237536e-02
1.228169853969e-02
1.228169074017e-02
1.228169862409e-02
1.228170566833e-02
1.228170903958e-02
1.228170560430e-02
1.228169849603e-02
1.228170241610e-02
1.228170905995e-02
1.228171233362e-02
1.228170899592e-02
1.228170228804e-02
1.228169860079e-02
1.228170564504e-02
1.228170901629e-02
1.228170558101e-02
1.228169847274e-02
1.228169082164e-02
1.228169855713e-02
1.228170232877e-02
1.228169849310e-02
1.228169069358e-02
1.228169341877e-02
1.228170172419e-02
1.228170605754e-02
1.228170166016e-02
1.228169329072e-02
1.228170174456e-02
1.228170956772e-02
1.228171363690e-02
1.228170950369e-02
1.228170161650e-02
1.228170609827e-02
1.228171365727e-02
1.228171771655e-02
1.228171359324e-02
1.228170597022e-02
1.228170172126e-02
1.228170954442e-02
1.228171361361e-02
1.228170948040e-02
1.228170159321e-02
1.228169337219e-02
1.228170167760e-02
1.228170601095e-02
1.228170161358e-02
1.228169324413e-02
1.228169659007e-02
1.228170537422e-02
1.228170996249e-02
1.228170531019e-02
1.228169646202e-02
1.228170539459e-02
1.228171383436e-02
1.228171822832e-02
1.228171377033e-02
1.228170526653e-02
1.228171000322e-02
1.228171824868e-02
1.228172267803e-02
1.228171818466e-02
1.228170987517e-02
1.228170537130e-02
1.228171381106e-02
1.228171820502e-02
1.228171374704e-02
1.228170524324e-02
1.228169654348e-02
1.228170532764e-02
1.228170991590e-02
1.228170526361e-02
1.228169641543e-02
1.228169879647e-02
1.228170808440e-02
1.228171277805e-02
1.228170802037e-02
1.228169866842e-02
1.228170810476e-02
1.228171708602e-02
1.228172160990e-02
1.228171702199e-02
1.228170797671e-02
1.228171281878e-02
1.228172163026e-02
1.228172621053e-02
1.228172156624e-02
1.228171269073e-02
1.228170808147e-02
1.228171706273e-02
1.228172158660e-02
1.228171699870e-02
1.228170795342e-02
1.228169874988e-02
1.228170803781e-02
1.228171273146e-02
1.228170797378e-02
1.228169862183e-02
1.228169961481e-02
1.228170906636e-02
1.228171372531e-02
1.228170900234e-02
1.228169948676e-02
1.228170908673e-02
1.228171821037e-02
1.228172268957e-02
1.228171814634e-02
1.228170895868e-02
1.228171376604e-02
1.228172270993e-02
1.228172723728e-02
1.228172264591e-02
1.228171363799e-02
1.228170906344e-02
1.228171818707e-02
1.228172266627e-02
1.228171812305e-02
1.228170893538e-02
1.228169956823e-02
1.228170901978e-02
1.228171367872e-02
1.228170895575e-02
1.228169944017e-02
CELL_DATA 128
SCALARS displacement_magnitude float 1
LOOKUP_TABLE default
0.000000000000e+00
0.000000000000e+00
0.000000000000e+00
0.000000000000e+00
0.000000000000e+00
0.000000000000e+00
0.000000000000e+00
0.000000000000e+00
0.000000000000e+00
0.000000000000e+00
0.000000000000e+00
0.000000000000e+00
0.000000000000e+00
0.000000000000e+00
0.000000000000e+00
0.000000000000e+00
0.000000000000e+00
0.000000000000e+00
0.000000000000e+00
0.000000000000e+00
0.000000000000e+00
0.000000000000e+00
0.000000000000e+00
0.000000000000e+00
0.000000000000e+00
0.000000000000e+00
0.000000000000e+00
0.000000000000e+00
0.000000000000e+00
0.000000000000e+00
0.000000000000e+00
0.000000000000e+00
0.000000000000e+00
0.000000000000e+00
0.000000000000e+00
0.000000000000e+00
0.000000000000e+00
0.000000000000e+00
0.000000000000e+00
0.000000000000e+00
0.000000000000e+00
0.000000000000e+00
0.000000000000e+00
0.000000000000e+00
0.000000000000e+00
0.000000000000e+00
0.000000000000e+00
0.000000000000e+00
0.000000000000e+00
0.000000000000e+00
0.000000000000e+00
0.000000000000e+00
0.000000000000e+00
0.000000000000e+00
0.000000000000e+00
0.000000000000e+00
0.000000000000e+00
0.000000000000e+00
0.000000000000e+00
0.000000000000e+00
0.000000000000e+00
0.000000000000e+00
0.000000000000e+00
0.000000000000e+00
1.228170002745e-02
1.228170583417e-02
1.228170580215e-02
1.228169993141e-02
1.228170585453e-02
1.228171133499e-02
1.228171130298e-02
1.228170575849e-02
1.228170584289e-02
1.228171132334e-02
1.228171129133e-02
1.228170574685e-02
1.228169999251e-02
1.228170579923e-02
1.228170576721e-02
1.228169989647e-02
1.228170345606e-02
1.228170979822e-02
1.228170976620e-02
1.228170336002e-02
1.228170981858e-02
1.228171594598e-02
1.228171591396e-02
1.228170972254e-02
1.228170980694e-02
1.228171593433e-02
1.228171590232e-02
1.228170971090e-02
1.228170342112e-02
1.228170976328e-02
1.228170973126e-02
1.228170332508e-02
1.228170665811e-02
1.228171336972e-02
1.228171333770e-02
1.228170656207e-02
1.228171339008e-02
1.228171994076e-02
1.228171990875e-02
1.228171329404e-02
1.228171337844e-02
1.228171992912e-02
1.228171989710e-02
1.228171328240e-02
1.228170662317e-02
1.228171333478e-02
1.228171330276e-02
1.228170652713e-02
1.228170850624e-02
1.228171540625e-02
1.228171537423e-02
1.228170841020e-02
1.228171542661e-02
1.228172217298e-02
1.228172214097e-02
1.228171533057e-02
1.228171541497e-02
1.228172216134e-02
1.228172212932e-02
1.228171531893e-02
1.228170847130e-02
1.228171537131e-02
1.228171533929e-02
1.228170837526e-02
SCALARS engineering_strain_norm float 1
LOOKUP_TABLE default
0.000000000000e+00
0.000000000000e+00
0.000000000000e+00
0.000000000000e+00
0.000000000000e+00
0.000000000000e+00
0.000000000000e+00
0.000000000000e+00
0.000000000000e+00
0.000000000000e+00
0.000000000000e+00
0.000000000000e+00
0.000000000000e+00
0.000000000000e+00
0.000000000000e+00
0.000000000000e+00
0.000000000000e+00
0.000000000000e+00
0.000000000000e+00
0.000000000000e+00
0.000000000000e+00
0.000000000000e+00
0.000000000000e+00
0.000000000000e+00
0.000000000000e+00
0.000000000000e+00
0.000000000000e+00
0.000000000000e+00
0.000000000000e+00
0.000000000000e+00
0.000000000000e+00
0.000000000000e+00
0.000000000000e+00
0.000000000000e+00
0.000000000000e+00
0.000000000000e+00
0.000000000000e+00
0.000000000000e+00
0.000000000000e+00
0.000000000000e+00
0.000000000000e+00
0.000000000000e+00
0.000000000000e+00
0.000000000000e+00
0.000000000000e+00
0.000000000000e+00
0.000000000000e+00
0.000000000000e+00
0.000000000000e+00
0.000000000000e+00
0.000000000000e+00
0.000000000000e+00
0.000000000000e+00
0.000000000000e+00
0.000000000000e+00
0.000000000000e+00
0.000000000000e+00
0.000000000000e+00
0.000000000000e+00
0.000000000000e+00
0.000000000000e+00
0.000000000000e+00
0.000000000000e+00
0.000000000000e+00
7.010829984594e-08
9.893116660812e-08
9.893116769250e-08
7.010830348903e-08
9.893116481687e-08
1.236166201439e-07
1.236166220421e-07
9.893117129685e-08
9.893116524449e-08
1.236166208025e-07
1.236166227011e-07
9.893117171498e-08
7.010830115092e-08
9.893116894053e-08
9.893117002591e-08
7.010830483728e-08
7.528298962865e-08
8.930433693924e-08
8.930433961840e-08
7.528299519955e-08
8.930433555876e-08
1.030313075029e-07
1.030313102340e-07
8.930434247187e-08
8.930433661052e-08
1.030313084550e-07
1.030313111674e-07
8.930434344748e-08
7.528299167467e-08
8.930433945393e-08
8.930434211179e-08
7.528299720786e-08
5.575852092242e-08
6.352947449729e-08
6.352947778248e-08
5.575852582281e-08
6.352947369922e-08
7.111534928193e-08
7.111535215921e-08
6.352947946585e-08
6.352947494647e-08
7.111535029382e-08
7.111535313938e-08
6.352948062496e-08
5.575852270557e-08
6.352947663626e-08
6.352947982326e-08
5.575852750335e-08
2.348233085473e-08
2.411287598970e-08
2.411287859700e-08
2.348233341045e-08
2.411287593389e-08
2.402949787354e-08
2.402950000004e-08
2.411287873331e-08
2.411287680920e-08
2.402949861548e-08
2.402950082467e-08
2.411287969459e-08
2.348233177732e-08
2.411287701444e-08
2.411287961061e-08
2.348233427030e-08
SCALARS von_mises float 1
LOOKUP_TABLE default
0.000000000000e+00
0.000000000000e+00
0.000000000000e+00
0.000000000000e+00
0.000000000000e+00
0.000000000000e+00
0.000000000000e+00
0.000000000000e+00
0.000000000000e+00
0.000000000000e+00
0.000000000000e+00
0.000000000000e+00
0.000000000000e+00
0.000000000000e+00
0.000000000000e+00
0.000000000000e+00
0.000000000000e+00
0.000000000000e+00
0.000000000000e+00
0.000000000000e+00
0.000000000000e+00
0.000000000000e+00
0.000000000000e+00
0.000000000000e+00
0.000000000000e+00
0.000000000000e+00
0.000000000000e+00
0.000000000000e+00
0.000000000000e+00
0.000000000000e+00
0.000000000000e+00
0.000000000000e+00
0.000000000000e+00
0.000000000000e+00
0.000000000000e+00
0.000000000000e+00
0.000000000000e+00
0.000000000000e+00
0.000000000000e+00
0.000000000000e+00
0.000000000000e+00
0.000000000000e+00
0.000000000000e+00
0.000000000000e+00
0.000000000000e+00
0.000000000000e+00
0.000000000000e+00
0.000000000000e+00
0.000000000000e+00
0.000000000000e+00
0.000000000000e+00
0.000000000000e+00
0.000000000000e+00
0.000000000000e+00
0.000000000000e+00
0.000000000000e+00
0.000000000000e+00
0.000000000000e+00
0.000000000000e+00
0.000000000000e+00
0.000000000000e+00
0.000000000000e+00
0.000000000000e+00
0.000000000000e+00
6.401426989559e-03
8.971629023723e-03
8.971629116993e-03
6.401427338753e-03
8.971628852217e-03
1.095619674306e-02
1.095619691414e-02
8.971629459752e-03
8.971628889122e-03
1.095619680137e-02
1.095619697180e-02
8.971629495376e-03
6.401427115484e-03
8.971629242147e-03
8.971629335492e-03
6.401427468277e-03
6.756858895864e-03
8.174941660085e-03
8.174941862275e-03
6.756859398930e-03
8.174941516456e-03
9.451319830352e-03
9.451320060811e-03
8.174942161494e-03
8.174941597424e-03
9.451319911432e-03
9.451320138733e-03
8.174942232902e-03
6.756859082386e-03
8.174941893990e-03
8.174942094480e-03
6.756859581284e-03
4.925511805559e-03
5.744608172207e-03
5.744608397774e-03
4.925512231734e-03
5.744608074287e-03
6.515192855823e-03
6.515193076223e-03
5.744608603567e-03
5.744608162988e-03
6.515192934554e-03
6.515193149701e-03
5.744608680785e-03
4.925511962441e-03
5.744608367756e-03
5.744608584725e-03
4.925512378592e-03
1.962619277430e-03
2.018067802175e-03
2.018067981139e-03
1.962619507215e-03
2.018067771560e-03
2.022217064509e-03
2.022217228321e-03
2.018068048151e-03
2.018067832080e-03
2.022217122454e-03
2.022217290718e-03
2.018068113381e-03
1.962619360314e-03
2.018067902906e-03
2.018068082308e-03
1.962619586477e-03
SCALARS sdf_gap float 1
LOOKUP_TABLE default
0.000000000000e+00
0.000000000000e+00
0.000000000000e+00
0.000000000000e+00
0.000000000000e+00
0.000000000000e+00
0.000000000000e+00
0.000000000000e+00
0.000000000000e+00
0.000000000000e+00
0.000000000000e+00
0.000000000000e+00
0.000000000000e+00
0.000000000000e+00
0.000000000000e+00
0.000000000000e+00
0.000000000000e+00
0.000000000000e+00
0.000000000000e+00
0.000000000000e+00
0.000000000000e+00
0.000000000000e+00
0.000000000000e+00
0.000000000000e+00
0.000000000000e+00
0.000000000000e+00
0.000000000000e+00
0.000000000000e+00
0.000000000000e+00
0.000000000000e+00
0.000000000000e+00
0.000000000000e+00
0.000000000000e+00
0.000000000000e+00
0.000000000000e+00
0.000000000000e+00
0.000000000000e+00
0.000000000000e+00
0.000000000000e+00
0.000000000000e+00
0.000000000000e+00
0.000000000000e+00
0.000000000000e+00
0.000000000000e+00
0.000000000000e+00
0.000000000000e+00
0.000000000000e+00
0.000000000000e+00
0.000000000000e+00
0.000000000000e+00
0.000000000000e+00
0.000000000000e+00
0.000000000000e+00
0.000000000000e+00
0.000000000000e+00
0.000000000000e+00
0.000000000000e+00
0.000000000000e+00
0.000000000000e+00
0.000000000000e+00
0.000000000000e+00
0.000000000000e+00
0.000000000000e+00
0.000000000000e+00
2.718301558924e-03
2.718296078261e-03
2.718296110275e-03
2.718301654965e-03
2.718296057894e-03
2.718290974634e-03
2.718291006648e-03
2.718296153935e-03
2.718296069540e-03
2.718290986281e-03
2.718291018295e-03
2.718296165582e-03
2.718301593863e-03
2.718296113200e-03
2.718296145214e-03
2.718301689905e-03
0.000000000000e+00
0.000000000000e+00
0.000000000000e+00
0.000000000000e+00
0.000000000000e+00
0.000000000000e+00
0.000000000000e+00
0.000000000000e+00
0.000000000000e+00
0.000000000000e+00
0.000000000000e+00
0.000000000000e+00
0.000000000000e+00
0.000000000000e+00
0.000000000000e+00
0.000000000000e+00
0.000000000000e+00
0.000000000000e+00
0.000000000000e+00
0.000000000000e+00
0.000000000000e+00
0.000000000000e+00
0.000000000000e+00
0.000000000000e+00
0.000000000000e+00
0.000000000000e+00
0.000000000000e+00
0.000000000000e+00
0.000000000000e+00
0.000000000000e+00
0.000000000000e+00
0.000000000000e+00
0.000000000000e+00
0.000000000000e+00
0.000000000000e+00
0.000000000000e+00
0.000000000000e+00
0.000000000000e+00
0.000000000000e+00
0.000000000000e+00
0.000000000000e+00
0.000000000000e+00
0.000000000000e+00
0.000000000000e+00
0.000000000000e+00
0.000000000000e+00
0.000000000000e+00
0.000000000000e+00
SCALARS contact_pressure float 1
LOOKUP_TABLE default
0.000000000000e+00
0.000000000000e+00
0.000000000000e+00
0.000000000000e+00
0.000000000000e+00
0.000000000000e+00
0.000000000000e+00
0.000000000000e+00
0.000000000000e+00
0.000000000000e+00
0.000000000000e+00
0.000000000000e+00
0.000000000000e+00
0.000000000000e+00
0.000000000000e+00
0.000000000000e+00
0.000000000000e+00
0.000000000000e+00
0.000000000000e+00
0.000000000000e+00
0.000000000000e+00
0.000000000000e+00
0.000000000000e+00
0.000000000000e+00
0.000000000000e+00
0.000000000000e+00
0.000000000000e+00
0.000000000000e+00
0.000000000000e+00
0.000000000000e+00
0.000000000000e+00
0.000000000000e+00
0.000000000000e+00
0.000000000000e+00
0.000000000000e+00
0.000000000000e+00
0.000000000000e+00
0.000000000000e+00
0.000000000000e+00
0.000000000000e+00
0.000000000000e+00
0.000000000000e+00
0.000000000000e+00
0.000000000000e+00
0.000000000000e+00
0.000000000000e+00
0.000000000000e+00
0.000000000000e+00
0.000000000000e+00
0.000000000000e+00
0.000000000000e+00
0.000000000000e+00
0.000000000000e+00
0.000000000000e+00
0.000000000000e+00
0.000000000000e+00
0.000000000000e+00
0.000000000000e+00
0.000000000000e+00
0.000000000000e+00
0.000000000000e+00
0.000000000000e+00
0.000000000000e+00
0.000000000000e+00
0.000000000000e+00
0.000000000000e+00
0.000000000000e+00
0.000000000000e+00
0.000000000000e+00
0.000000000000e+00
0.000000000000e+00
0.000000000000e+00
0.000000000000e+00
0.000000000000e+00
0.000000000000e+00
0.000000000000e+00
0.000000000000e+00
0.000000000000e+00
0.000000000000e+00
0.000000000000e+00
0.000000000000e+00
0.000000000000e+00
0.000000000000e+00
0.000000000000e+00
0.000000000000e+00
0.000000000000e+00
0.000000000000e+00
0.000000000000e+00
0.000000000000e+00
0.000000000000e+00
0.000000000000e+00
0.000000000000e+00
0.000000000000e+00
0.000000000000e+00
0.000000000000e+00
0.000000000000e+00
0.000000000000e+00
0.000000000000e+00
0.000000000000e+00
0.000000000000e+00
0.000000000000e+00
0.000000000000e+00
0.000000000000e+00
0.000000000000e+00
0.000000000000e+00
0.000000000000e+00
0.000000000000e+00
0.000000000000e+00
0.000000000000e+00
0.000000000000e+00
0.000000000000e+00
0.000000000000e+00
0.000000000000e+00
0.000000000000e+00
0.000000000000e+00
0.000000000000e+00
0.000000000000e+00
0.000000000000e+00
0.000000000000e+00
0.000000000000e+00
0.000000000000e+00
0.000000000000e+00
0.000000000000e+00
0.000000000000e+00
0.000000000000e+00
0.000000000000e+00
0.000000000000e+00
0.000000000000e+00
SCALARS active_contact float 1
LOOKUP_TABLE default
0.000000000000e+00
0.000000000000e+00
0.000000000000e+00
0.000000000000e+00
0.000000000000e+00
0.000000000000e+00
0.000000000000e+00
0.000000000000e+00
0.000000000000e+00
0.000000000000e+00
0.000000000000e+00
0.000000000000e+00
0.000000000000e+00
0.000000000000e+00
0.000000000000e+00
0.000000000000e+00
0.000000000000e+00
0.000000000000e+00
0.000000000000e+00
0.000000000000e+00
0.000000000000e+00
0.000000000000e+00
0.000000000000e+00
0.000000000000e+00
0.000000000000e+00
0.000000000000e+00
0.000000000000e+00
0.000000000000e+00
0.000000000000e+00
0.000000000000e+00
0.000000000000e+00
0.000000000000e+00
0.000000000000e+00
0.000000000000e+00
0.000000000000e+00
0.000000000000e+00
0.000000000000e+00
0.000000000000e+00
0.000000000000e+00
0.000000000000e+00
0.000000000000e+00
0.000000000000e+00
0.000000000000e+00
0.000000000000e+00
0.000000000000e+00
0.000000000000e+00
0.000000000000e+00
0.000000000000e+00
0.000000000000e+00
0.000000000000e+00
0.000000000000e+00
0.000000000000e+00
0.000000000000e+00
0.000000000000e+00
0.000000000000e+00
0.000000000000e+00
0.000000000000e+00
0.000000000000e+00
0.000000000000e+00
0.000000000000e+00
0.000000000000e+00
0.000000000000e+00
0.000000000000e+00
0.000000000000e+00
0.000000000000e+00
0.000000000000e+00
0.000000000000e+00
0.000000000000e+00
0.000000000000e+00
0.000000000000e+00
0.000000000000e+00
0.000000000000e+00
0.000000000000e+00
0.000000000000e+00
0.000000000000e+00
0.000000000000e+00
0.000000000000e+00
0.000000000000e+00
0.000000000000e+00
0.000000000000e+00
0.000000000000e+00
0.000000000000e+00
0.000000000000e+00
0.000000000000e+00
0.000000000000e+00
0.000000000000e+00
0.000000000000e+00
0.000000000000e+00
0.000000000000e+00
0.000000000000e+00
0.000000000000e+00
0.000000000000e+00
0.000000000000e+00
0.000000000000e+00
0.000000000000e+00
0.000000000000e+00
0.000000000000e+00
0.000000000000e+00
0.000000000000e+00
0.000000000000e+00
0.000000000000e+00
0.000000000000e+00
0.000000000000e+00
0.000000000000e+00
0.000000000000e+00
0.000000000000e+00
0.000000000000e+00
0.000000000000e+00
0.000000000000e+00
0.000000000000e+00
0.000000000000e+00
0.000000000000e+00
0.000000000000e+00
0.000000000000e+00
0.000000000000e+00
0.000000000000e+00
0.000000000000e+00
0.000000000000e+00
0.000000000000e+00
0.000000000000e+00
0.000000000000e+00
0.000000000000e+00
0.000000000000e+00
0.000000000000e+00
0.000000000000e+00
0.000000000000e+00
0.000000000000e+00
0.000000000000e+00
