# vtk DataFile Version 3.0
SFC long-time C3D8 dynamic frame 122 t=2.440000000000e+00
ASCII
DATASET UNSTRUCTURED_GRID
POINTS 250 float
-2.500000000000e-01 -2.500000000000e-01 0.000000000000e+00
-1.250000000000e-01 -2.500000000000e-01 0.000000000000e+00
0.000000000000e+00 -2.500000000000e-01 0.000000000000e+00
1.250000000000e-01 -2.500000000000e-01 0.000000000000e+00
2.500000000000e-01 -2.500000000000e-01 0.000000000000e+00
-2.500000000000e-01 -1.250000000000e-01 0.000000000000e+00
-1.250000000000e-01 -1.250000000000e-01 0.000000000000e+00
0.000000000000e+00 -1.250000000000e-01 0.000000000000e+00
1.250000000000e-01 -1.250000000000e-01 0.000000000000e+00
2.500000000000e-01 -1.250000000000e-01 0.000000000000e+00
-2.500000000000e-01 0.000000000000e+00 0.000000000000e+00
-1.250000000000e-01 0.000000000000e+00 0.000000000000e+00
0.000000000000e+00 0.000000000000e+00 0.000000000000e+00
1.250000000000e-01 0.000000000000e+00 0.000000000000e+00
2.500000000000e-01 0.000000000000e+00 0.000000000000e+00
-2.500000000000e-01 1.250000000000e-01 0.000000000000e+00
-1.250000000000e-01 1.250000000000e-01 0.000000000000e+00
0.000000000000e+00 1.250000000000e-01 0.000000000000e+00
1.250000000000e-01 1.250000000000e-01 0.000000000000e+00
2.500000000000e-01 1.250000000000e-01 0.000000000000e+00
-2.500000000000e-01 2.500000000000e-01 0.000000000000e+00
-1.250000000000e-01 2.500000000000e-01 0.000000000000e+00
0.000000000000e+00 2.500000000000e-01 0.000000000000e+00
1.250000000000e-01 2.500000000000e-01 0.000000000000e+00
2.500000000000e-01 2.500000000000e-01 0.000000000000e+00
-2.500000000000e-01 -2.500000000000e-01 6.000000000000e-02
-1.250000000000e-01 -2.500000000000e-01 6.000000000000e-02
0.000000000000e+00 -2.500000000000e-01 6.000000000000e-02
1.250000000000e-01 -2.500000000000e-01 6.000000000000e-02
2.500000000000e-01 -2.500000000000e-01 6.000000000000e-02
-2.500000000000e-01 -1.250000000000e-01 6.000000000000e-02
-1.250000000000e-01 -1.250000000000e-01 6.000000000000e-02
0.000000000000e+00 -1.250000000000e-01 6.000000000000e-02
1.250000000000e-01 -1.250000000000e-01 6.000000000000e-02
2.500000000000e-01 -1.250000000000e-01 6.000000000000e-02
-2.500000000000e-01 0.000000000000e+00 6.000000000000e-02
-1.250000000000e-01 0.000000000000e+00 6.000000000000e-02
0.000000000000e+00 0.000000000000e+00 6.000000000000e-02
1.250000000000e-01 0.000000000000e+00 6.000000000000e-02
2.500000000000e-01 0.000000000000e+00 6.000000000000e-02
-2.500000000000e-01 1.250000000000e-01 6.000000000000e-02
-1.250000000000e-01 1.250000000000e-01 6.000000000000e-02
0.000000000000e+00 1.250000000000e-01 6.000000000000e-02
1.250000000000e-01 1.250000000000e-01 6.000000000000e-02
2.500000000000e-01 1.250000000000e-01 6.000000000000e-02
-2.500000000000e-01 2.500000000000e-01 6.000000000000e-02
-1.250000000000e-01 2.500000000000e-01 6.000000000000e-02
0.000000000000e+00 2.500000000000e-01 6.000000000000e-02
1.250000000000e-01 2.500000000000e-01 6.000000000000e-02
2.500000000000e-01 2.500000000000e-01 6.000000000000e-02
-2.500000000000e-01 -2.500000000000e-01 1.200000000000e-01
-1.250000000000e-01 -2.500000000000e-01 1.200000000000e-01
0.000000000000e+00 -2.500000000000e-01 1.200000000000e-01
1.250000000000e-01 -2.500000000000e-01 1.200000000000e-01
2.500000000000e-01 -2.500000000000e-01 1.200000000000e-01
-2.500000000000e-01 -1.250000000000e-01 1.200000000000e-01
-1.250000000000e-01 -1.250000000000e-01 1.200000000000e-01
0.000000000000e+00 -1.250000000000e-01 1.200000000000e-01
1.250000000000e-01 -1.250000000000e-01 1.200000000000e-01
2.500000000000e-01 -1.250000000000e-01 1.200000000000e-01
-2.500000000000e-01 0.000000000000e+00 1.200000000000e-01
-1.250000000000e-01 0.000000000000e+00 1.200000000000e-01
0.000000000000e+00 0.000000000000e+00 1.200000000000e-01
1.250000000000e-01 0.000000000000e+00 1.200000000000e-01
2.500000000000e-01 0.000000000000e+00 1.200000000000e-01
-2.500000000000e-01 1.250000000000e-01 1.200000000000e-01
-1.250000000000e-01 1.250000000000e-01 1.200000000000e-01
0.000000000000e+00 1.250000000000e-01 1.200000000000e-01
1.250000000000e-01 1.250000000000e-01 1.200000000000e-01
2.500000000000e-01 1.250000000000e-01 1.200000000000e-01
-2.500000000000e-01 2.500000000000e-01 1.200000000000e-01
-1.250000000000e-01 2.500000000000e-01 1.200000000000e-01
0.000000000000e+00 2.500000000000e-01 1.200000000000e-01
1.250000000000e-01 2.500000000000e-01 1.200000000000e-01
2.500000000000e-01 2.500000000000e-01 1.200000000000e-01
-2.500000000000e-01 -2.500000000000e-01 1.800000000000e-01
-1.250000000000e-01 -2.500000000000e-01 1.800000000000e-01
0.000000000000e+00 -2.500000000000e-01 1.800000000000e-01
1.250000000000e-01 -2.500000000000e-01 1.800000000000e-01
2.500000000000e-01 -2.500000000000e-01 1.800000000000e-01
-2.500000000000e-01 -1.250000000000e-01 1.800000000000e-01
-1.250000000000e-01 -1.250000000000e-01 1.800000000000e-01
0.000000000000e+00 -1.250000000000e-01 1.800000000000e-01
1.250000000000e-01 -1.250000000000e-01 1.800000000000e-01
2.500000000000e-01 -1.250000000000e-01 1.800000000000e-01
-2.500000000000e-01 0.000000000000e+00 1.800000000000e-01
-1.250000000000e-01 0.000000000000e+00 1.800000000000e-01
0.000000000000e+00 0.000000000000e+00 1.800000000000e-01
1.250000000000e-01 0.000000000000e+00 1.800000000000e-01
2.500000000000e-01 0.000000000000e+00 1.800000000000e-01
-2.500000000000e-01 1.250000000000e-01 1.800000000000e-01
-1.250000000000e-01 1.250000000000e-01 1.800000000000e-01
0.000000000000e+00 1.250000000000e-01 1.800000000000e-01
1.250000000000e-01 1.250000000000e-01 1.800000000000e-01
2.500000000000e-01 1.250000000000e-01 1.800000000000e-01
-2.500000000000e-01 2.500000000000e-01 1.800000000000e-01
-1.250000000000e-01 2.500000000000e-01 1.800000000000e-01
0.000000000000e+00 2.500000000000e-01 1.800000000000e-01
1.250000000000e-01 2.500000000000e-01 1.800000000000e-01
2.500000000000e-01 2.500000000000e-01 1.800000000000e-01
-2.500000000000e-01 -2.500000000000e-01 2.400000000000e-01
-1.250000000000e-01 -2.500000000000e-01 2.400000000000e-01
0.000000000000e+00 -2.500000000000e-01 2.400000000000e-01
1.250000000000e-01 -2.500000000000e-01 2.400000000000e-01
2.500000000000e-01 -2.500000000000e-01 2.400000000000e-01
-2.500000000000e-01 -1.250000000000e-01 2.400000000000e-01
-1.250000000000e-01 -1.250000000000e-01 2.400000000000e-01
0.000000000000e+00 -1.250000000000e-01 2.400000000000e-01
1.250000000000e-01 -1.250000000000e-01 2.400000000000e-01
2.500000000000e-01 -1.250000000000e-01 2.400000000000e-01
-2.500000000000e-01 0.000000000000e+00 2.400000000000e-01
-1.250000000000e-01 0.000000000000e+00 2.400000000000e-01
0.000000000000e+00 0.000000000000e+00 2.400000000000e-01
1.250000000000e-01 0.000000000000e+00 2.400000000000e-01
2.500000000000e-01 0.000000000000e+00 2.400000000000e-01
-2.500000000000e-01 1.250000000000e-01 2.400000000000e-01
-1.250000000000e-01 1.250000000000e-01 2.400000000000e-01
0.000000000000e+00 1.250000000000e-01 2.400000000000e-01
1.250000000000e-01 1.250000000000e-01 2.400000000000e-01
2.500000000000e-01 1.250000000000e-01 2.400000000000e-01
-2.500000000000e-01 2.500000000000e-01 2.400000000000e-01
-1.250000000000e-01 2.500000000000e-01 2.400000000000e-01
0.000000000000e+00 2.500000000000e-01 2.400000000000e-01
1.250000000000e-01 2.500000000000e-01 2.400000000000e-01
2.500000000000e-01 2.500000000000e-01 2.400000000000e-01
-2.500017541180e-01 -2.500017541181e-01 2.399499026928e-01
-1.250009000107e-01 -2.500017553744e-01 2.399493369967e-01
3.231112662996e-14 -2.500017492240e-01 2.399491397165e-01
1.250009000107e-01 -2.500017553744e-01 2.399493369967e-01
2.500017541181e-01 -2.500017541181e-01 2.399499026928e-01
-2.500017553743e-01 -1.250009000108e-01 2.399493369967e-01
-1.250009011894e-01 -1.250009011894e-01 2.399487688095e-01
3.109008468036e-14 -1.250009003785e-01 2.399485699415e-01
1.250009011894e-01 -1.250009011894e-01 2.399487688095e-01
2.500017553744e-01 -1.250009000108e-01 2.399493369967e-01
-2.500017492239e-01 -4.115866958969e-14 2.399491397165e-01
-1.250009003785e-01 -3.994426267267e-14 2.399485699415e-01
2.987086012636e-14 -3.873250046196e-14 2.399483689549e-01
1.250009003785e-01 -3.752191065563e-14 2.399485699415e-01
2.500017492240e-01 -3.631271297102e-14 2.399491397165e-01
-2.500017553743e-01 1.250009000107e-01 2.399493369967e-01
-1.250009011894e-01 1.250009011894e-01 2.399487688095e-01
2.864077467954e-14 1.250009003784e-01 2.399485699415e-01
1.250009011894e-01 1.250009011894e-01 2.399487688095e-01
2.500017553744e-01 1.250009000107e-01 2.399493369967e-01
-2.500017541180e-01 2.500017541180e-01 2.399499026928e-01
-1.250009000107e-01 2.500017553743e-01 2.399493369967e-01
2.742080124629e-14 2.500017492239e-01 2.399491397165e-01
1.250009000107e-01 2.500017553743e-01 2.399493369967e-01
2.500017541181e-01 2.500017541180e-01 2.399499026928e-01
-2.500013765369e-01 -2.500013765370e-01 3.049485151677e-01
-1.250006942056e-01 -2.500013783298e-01 3.049479266573e-01
3.223724869617e-14 -2.500013737093e-01 3.049477240181e-01
1.250006942057e-01 -2.500013783298e-01 3.049479266573e-01
2.500013765370e-01 -2.500013765370e-01 3.049485151677e-01
-2.500013783297e-01 -1.250006942057e-01 3.049479266573e-01
-1.250006944755e-01 -1.250006944756e-01 3.049473342900e-01
3.101678483969e-14 -1.250006930977e-01 3.049471292840e-01
1.250006944756e-01 -1.250006944756e-01 3.049473342900e-01
2.500013783298e-01 -1.250006942057e-01 3.049479266573e-01
-2.500013737093e-01 -4.110919662144e-14 3.049477240181e-01
-1.250006930976e-01 -3.988712334752e-14 3.049471292840e-01
2.979533972378e-14 -3.867578760289e-14 3.049469210022e-01
1.250006930977e-01 -3.745848288408e-14 3.049471292840e-01
2.500013737093e-01 -3.624867786072e-14 3.049477240181e-01
-2.500013783297e-01 1.250006942056e-01 3.049479266573e-01
-1.250006944755e-01 1.250006944755e-01 3.049473342900e-01
2.857647324560e-14 1.250006930976e-01 3.049471292840e-01
1.250006944756e-01 1.250006944755e-01 3.049473342900e-01
2.500013783298e-01 1.250006942056e-01 3.049479266573e-01
-2.500013765369e-01 2.500013765369e-01 3.049485151677e-01
-1.250006942056e-01 2.500013783297e-01 3.049479266573e-01
2.736574236810e-14 2.500013737092e-01 3.049477240181e-01
1.250006942057e-01 2.500013783297e-01 3.049479266573e-01
2.500013765370e-01 2.500013765369e-01 3.049485151677e-01
-2.500009325897e-01 -2.500009325898e-01 3.699475510158e-01
-1.250004838558e-01 -2.500009288974e-01 3.699469464619e-01
3.216366974645e-14 -2.500009230512e-01 3.699467394054e-01
1.250004838558e-01 -2.500009288974e-01 3.699469464619e-01
2.500009325898e-01 -2.500009325898e-01 3.699475510158e-01
-2.500009288974e-01 -1.250004838558e-01 3.699469464619e-01
-1.250004843202e-01 -1.250004843203e-01 3.699463367660e-01
3.094303848744e-14 -1.250004830100e-01 3.699461264492e-01
1.250004843203e-01 -1.250004843203e-01 3.699463367660e-01
2.500009288974e-01 -1.250004838558e-01 3.699469464619e-01
-2.500009230511e-01 -4.105256645379e-14 3.699467394054e-01
-1.250004830099e-01 -3.983268752175e-14 3.699461264492e-01
2.972455894952e-14 -3.861630051994e-14 3.699459113776e-01
1.250004830100e-01 -3.739709206394e-14 3.699461264492e-01
2.500009230512e-01 -3.618439722529e-14 3.699467394054e-01
-2.500009288974e-01 1.250004838557e-01 3.699469464619e-01
-1.250004843202e-01 1.250004843202e-01 3.699463367660e-01
2.850909630749e-14 1.250004830099e-01 3.699461264492e-01
1.250004843203e-01 1.250004843202e-01 3.699463367660e-01
2.500009288974e-01 1.250004838558e-01 3.699469464619e-01
-2.500009325897e-01 2.500009325897e-01 3.699475510158e-01
-1.250004838558e-01 2.500009288973e-01 3.699469464619e-01
2.729490028506e-14 2.500009230511e-01 3.699467394054e-01
1.250004838558e-01 2.500009288973e-01 3.699469464619e-01
2.500009325898e-01 2.500009325897e-01 3.699475510158e-01
-2.500005043342e-01 -2.500005043343e-01 4.349469819595e-01
-1.250002714185e-01 -2.500004979467e-01 4.349463765629e-01
3.208818364959e-14 -2.500004933743e-01 4.349461583844e-01
1.250002714185e-01 -2.500004979467e-01 4.349463765629e-01
2.500005043343e-01 -2.500005043343e-01 4.349469819595e-01
-2.500004979466e-01 -1.250002714185e-01 4.349463765629e-01
-1.250002717073e-01 -1.250002717074e-01 4.349457658703e-01
3.086816478567e-14 -1.250002707435e-01 4.349455427564e-01
1.250002717074e-01 -1.250002717074e-01 4.349457658703e-01
2.500004979466e-01 -1.250002714185e-01 4.349463765629e-01
-2.500004933743e-01 -4.099353373090e-14 4.349461583844e-01
-1.250002707434e-01 -3.977802867713e-14 4.349455427564e-01
2.965294231472e-14 -3.855380023306e-14 4.349453125895e-01
1.250002707435e-01 -3.733507443627e-14 4.349455427564e-01
2.500004933743e-01 -3.611831938712e-14 4.349461583844e-01
-2.500004979466e-01 1.250002714185e-01 4.349463765629e-01
-1.250002717073e-01 1.250002717073e-01 4.349457658703e-01
2.844163582736e-14 1.250002707434e-01 4.349455427564e-01
1.250002717074e-01 1.250002717073e-01 4.349457658703e-01
2.500004979466e-01 1.250002714185e-01 4.349463765629e-01
-2.500005043342e-01 2.500005043342e-01 4.349469819595e-01
-1.250002714185e-01 2.500004979466e-01 4.349463765629e-01
2.722701546895e-14 2.500004933743e-01 4.349461583844e-01
1.250002714185e-01 2.500004979466e-01 4.349463765629e-01
2.500005043343e-01 2.500005043342e-01 4.349469819595e-01
-2.500001324266e-01 -2.500001324267e-01 4.999467718555e-01
-1.250000545205e-01 -2.500001291292e-01 4.999461712538e-01
3.200813894967e-14 -2.500001280683e-01 4.999459482742e-01
1.250000545206e-01 -2.500001291292e-01 4.999461712538e-01
2.500001324266e-01 -2.500001324267e-01 4.999467718555e-01
-2.500001291292e-01 -1.250000545206e-01 4.999461712538e-01
-1.250000524991e-01 -1.250000524992e-01 4.999455655707e-01
3.079203642855e-14 -1.250000498030e-01 4.999453370545e-01
1.250000524992e-01 -1.250000524992e-01 4.999455655707e-01
2.500001291292e-01 -1.250000545206e-01 4.999461712538e-01
-2.500001280682e-01 -4.094115412337e-14 4.999459482742e-01
-1.250000498029e-01 -3.971675492902e-14 4.999453370545e-01
2.957829102333e-14 -3.849600027060e-14 4.999451009911e-01
1.250000498030e-01 -3.726652556678e-14 4.999453370545e-01
2.500001280683e-01 -3.604967181861e-14 4.999459482742e-01
-2.500001291292e-01 1.250000545205e-01 4.999461712538e-01
-1.250000524991e-01 1.250000524991e-01 4.999455655707e-01
2.837502396160e-14 1.250000498029e-01 4.999453370545e-01
1.250000524992e-01 1.250000524991e-01 4.999455655707e-01
2.500001291292e-01 1.250000545205e-01 4.999461712538e-01
-2.500001324266e-01 2.500001324266e-01 4.999467718555e-01
-1.250000545205e-01 2.500001291292e-01 4.999461712538e-01
2.716092067077e-14 2.500001280682e-01 4.999459482742e-01
1.250000545206e-01 2.500001291292e-01 4.999461712538e-01
2.500001324266e-01 2.500001324266e-01 4.999467718555e-01
CELLS 128 1152
8 0 1 6 5 25 26 31 30
8 1 2 7 6 26 27 32 31
8 2 3 8 7 27 28 33 32
8 3 4 9 8 28 29 34 33
8 5 6 11 10 30 31 36 35
8 6 7 12 11 31 32 37 36
8 7 8 13 12 32 33 38 37
8 8 9 14 13 33 34 39 38
8 10 11 16 15 35 36 41 40
8 11 12 17 16 36 37 42 41
8 12 13 18 17 37 38 43 42
8 13 14 19 18 38 39 44 43
8 15 16 21 20 40 41 46 45
8 16 17 22 21 41 42 47 46
8 17 18 23 22 42 43 48 47
8 18 19 24 23 43 44 49 48
8 25 26 31 30 50 51 56 55
8 26 27 32 31 51 52 57 56
8 27 28 33 32 52 53 58 57
8 28 29 34 33 53 54 59 58
8 30 31 36 35 55 56 61 60
8 31 32 37 36 56 57 62 61
8 32 33 38 37 57 58 63 62
8 33 34 39 38 58 59 64 63
8 35 36 41 40 60 61 66 65
8 36 37 42 41 61 62 67 66
8 37 38 43 42 62 63 68 67
8 38 39 44 43 63 64 69 68
8 40 41 46 45 65 66 71 70
8 41 42 47 46 66 67 72 71
8 42 43 48 47 67 68 73 72
8 43 44 49 48 68 69 74 73
8 50 51 56 55 75 76 81 80
8 51 52 57 56 76 77 82 81
8 52 53 58 57 77 78 83 82
8 53 54 59 58 78 79 84 83
8 55 56 61 60 80 81 86 85
8 56 57 62 61 81 82 87 86
8 57 58 63 62 82 83 88 87
8 58 59 64 63 83 84 89 88
8 60 61 66 65 85 86 91 90
8 61 62 67 66 86 87 92 91
8 62 63 68 67 87 88 93 92
8 63 64 69 68 88 89 94 93
8 65 66 71 70 90 91 96 95
8 66 67 72 71 91 92 97 96
8 67 68 73 72 92 93 98 97
8 68 69 74 73 93 94 99 98
8 75 76 81 80 100 101 106 105
8 76 77 82 81 101 102 107 106
8 77 78 83 82 102 103 108 107
8 78 79 84 83 103 104 109 108
8 80 81 86 85 105 106 111 110
8 81 82 87 86 106 107 112 111
8 82 83 88 87 107 108 113 112
8 83 84 89 88 108 109 114 113
8 85 86 91 90 110 111 116 115
8 86 87 92 91 111 112 117 116
8 87 88 93 92 112 113 118 117
8 88 89 94 93 113 114 119 118
8 90 91 96 95 115 116 121 120
8 91 92 97 96 116 117 122 121
8 92 93 98 97 117 118 123 122
8 93 94 99 98 118 119 124 123
8 125 126 131 130 150 151 156 155
8 126 127 132 131 151 152 157 156
8 127 128 133 132 152 153 158 157
8 128 129 134 133 153 154 159 158
8 130 131 136 135 155 156 161 160
8 131 132 137 136 156 157 162 161
8 132 133 138 137 157 158 163 162
8 133 134 139 138 158 159 164 163
8 135 136 141 140 160 161 166 165
8 136 137 142 141 161 162 167 166
8 137 138 143 142 162 163 168 167
8 138 139 144 143 163 164 169 168
8 140 141 146 145 165 166 171 170
8 141 142 147 146 166 167 172 171
8 142 143 148 147 167 168 173 172
8 143 144 149 148 168 169 174 173
8 150 151 156 155 175 176 181 180
8 151 152 157 156 176 177 182 181
8 152 153 158 157 177 178 183 182
8 153 154 159 158 178 179 184 183
8 155 156 161 160 180 181 186 185
8 156 157 162 161 181 182 187 186
8 157 158 163 162 182 183 188 187
8 158 159 164 163 183 184 189 188
8 160 161 166 165 185 186 191 190
8 161 162 167 166 186 187 192 191
8 162 163 168 167 187 188 193 192
8 163 164 169 168 188 189 194 193
8 165 166 171 170 190 191 196 195
8 166 167 172 171 191 192 197 196
8 167 168 173 172 192 193 198 197
8 168 169 174 173 193 194 199 198
8 175 176 181 180 200 201 206 205
8 176 177 182 181 201 202 207 206
8 177 178 183 182 202 203 208 207
8 178 179 184 183 203 204 209 208
8 180 181 186 185 205 206 211 210
8 181 182 187 186 206 207 212 211
8 182 183 188 187 207 208 213 212
8 183 184 189 188 208 209 214 213
8 185 186 191 190 210 211 216 215
8 186 187 192 191 211 212 217 216
8 187 188 193 192 212 213 218 217
8 188 189 194 193 213 214 219 218
8 190 191 196 195 215 216 221 220
8 191 192 197 196 216 217 222 221
8 192 193 198 197 217 218 223 222
8 193 194 199 198 218 219 224 223
8 200 201 206 205 225 226 231 230
8 201 202 207 206 226 227 232 231
8 202 203 208 207 227 228 233 232
8 203 204 209 208 228 229 234 233
8 205 206 211 210 230 231 236 235
8 206 207 212 211 231 232 237 236
8 207 208 213 212 232 233 238 237
8 208 209 214 213 233 234 239 238
8 210 211 216 215 235 236 241 240
8 211 212 217 216 236 237 242 241
8 212 213 218 217 237 238 243 242
8 213 214 219 218 238 239 244 243
8 215 216 221 220 240 241 246 245
8 216 217 222 221 241 242 247 246
8 217 218 223 222 242 243 248 247
8 218 219 224 223 243 244 249 248
CELL_TYPES 128
12
12
12
12
12
12
12
12
12
12
12
12
12
12
12
12
12
12
12
12
12
12
12
12
12
12
12
12
12
12
12
12
12
12
12
12
12
12
12
12
12
12
12
12
12
12
12
12
12
12
12
12
12
12
12
12
12
12
12
12
12
12
12
12
12
12
12
12
12
12
12
12
12
12
12
12
12
12
12
12
12
12
12
12
12
12
12
12
12
12
12
12
12
12
12
12
12
12
12
12
12
12
12
12
12
12
12
12
12
12
12
12
12
12
12
12
12
12
12
12
12
12
12
12
12
12
12
12
POINT_DATA 250
VECTORS displacement float
0.000000000000e+00 0.000000000000e+00 0.000000000000e+00
0.000000000000e+00 0.000000000000e+00 0.000000000000e+00
0.000000000000e+00 0.000000000000e+00 0.000000000000e+00
0.000000000000e+00 0.000000000000e+00 0.000000000000e+00
0.000000000000e+00 0.000000000000e+00 0.000000000000e+00
0.000000000000e+00 0.000000000000e+00 0.000000000000e+00
0.000000000000e+00 0.000000000000e+00 0.000000000000e+00
0.000000000000e+00 0.000000000000e+00 0.000000000000e+00
0.000000000000e+00 0.000000000000e+00 0.000000000000e+00
0.000000000000e+00 0.000000000000e+00 0.000000000000e+00
0.000000000000e+00 0.000000000000e+00 0.000000000000e+00
0.000000000000e+00 0.000000000000e+00 0.000000000000e+00
0.000000000000e+00 0.000000000000e+00 0.000000000000e+00
0.000000000000e+00 0.000000000000e+00 0.000000000000e+00
0.000000000000e+00 0.000000000000e+00 0.000000000000e+00
0.000000000000e+00 0.000000000000e+00 0.000000000000e+00
0.000000000000e+00 0.000000000000e+00 0.000000000000e+00
0.000000000000e+00 0.000000000000e+00 0.000000000000e+00
0.000000000000e+00 0.000000000000e+00 0.000000000000e+00
0.000000000000e+00 0.000000000000e+00 0.000000000000e+00
0.000000000000e+00 0.000000000000e+00 0.000000000000e+00
0.000000000000e+00 0.000000000000e+00 0.000000000000e+00
0.000000000000e+00 0.000000000000e+00 0.000000000000e+00
0.000000000000e+00 0.000000000000e+00 0.000000000000e+00
0.000000000000e+00 0.000000000000e+00 0.000000000000e+00
0.000000000000e+00 0.000000000000e+00 0.000000000000e+00
0.000000000000e+00 0.000000000000e+00 0.000000000000e+00
0.000000000000e+00 0.000000000000e+00 0.000000000000e+00
0.000000000000e+00 0.000000000000e+00 0.000000000000e+00
0.000000000000e+00 0.000000000000e+00 0.000000000000e+00
0.000000000000e+00 0.000000000000e+00 0.000000000000e+00
0.000000000000e+00 0.000000000000e+00 0.000000000000e+00
0.000000000000e+00 0.000000000000e+00 0.000000000000e+00
0.000000000000e+00 0.000000000000e+00 0.000000000000e+00
0.000000000000e+00 0.000000000000e+00 0.000000000000e+00
0.000000000000e+00 0.000000000000e+00 0.000000000000e+00
0.000000000000e+00 0.000000000000e+00 0.000000000000e+00
0.000000000000e+00 0.000000000000e+00 0.000000000000e+00
0.000000000000e+00 0.000000000000e+00 0.000000000000e+00
0.000000000000e+00 0.000000000000e+00 0.000000000000e+00
0.000000000000e+00 0.000000000000e+00 0.000000000000e+00
0.000000000000e+00 0.000000000000e+00 0.000000000000e+00
0.000000000000e+00 0.000000000000e+00 0.000000000000e+00
0.000000000000e+00 0.000000000000e+00 0.000000000000e+00
0.000000000000e+00 0.000000000000e+00 0.000000000000e+00
0.000000000000e+00 0.000000000000e+00 0.000000000000e+00
0.000000000000e+00 0.000000000000e+00 0.000000000000e+00
0.000000000000e+00 0.000000000000e+00 0.000000000000e+00
0.000000000000e+00 0.000000000000e+00 0.000000000000e+00
0.000000000000e+00 0.000000000000e+00 0.000000000000e+00
0.000000000000e+00 0.000000000000e+00 0.000000000000e+00
0.000000000000e+00 0.000000000000e+00 0.000000000000e+00
0.000000000000e+00 0.000000000000e+00 0.000000000000e+00
0.000000000000e+00 0.000000000000e+00 0.000000000000e+00
0.000000000000e+00 0.000000000000e+00 0.000000000000e+00
0.000000000000e+00 0.000000000000e+00 0.000000000000e+00
0.000000000000e+00 0.000000000000e+00 0.000000000000e+00
0.000000000000e+00 0.000000000000e+00 0.000000000000e+00
0.000000000000e+00 0.000000000000e+00 0.000000000000e+00
0.000000000000e+00 0.000000000000e+00 0.000000000000e+00
0.000000000000e+00 0.000000000000e+00 0.000000000000e+00
0.000000000000e+00 0.000000000000e+00 0.000000000000e+00
0.000000000000e+00 0.000000000000e+00 0.000000000000e+00
0.000000000000e+00 0.000000000000e+00 0.000000000000e+00
0.000000000000e+00 0.000000000000e+00 0.000000000000e+00
0.000000000000e+00 0.000000000000e+00 0.000000000000e+00
0.000000000000e+00 0.000000000000e+00 0.000000000000e+00
0.000000000000e+00 0.000000000000e+00 0.000000000000e+00
0.000000000000e+00 0.000000000000e+00 0.000000000000e+00
0.000000000000e+00 0.000000000000e+00 0.000000000000e+00
0.000000000000e+00 0.000000000000e+00 0.000000000000e+00
0.000000000000e+00 0.000000000000e+00 0.000000000000e+00
0.000000000000e+00 0.000000000000e+00 0.000000000000e+00
0.000000000000e+00 0.000000000000e+00 0.000000000000e+00
0.000000000000e+00 0.000000000000e+00 0.000000000000e+00
0.000000000000e+00 0.000000000000e+00 0.000000000000e+00
0.000000000000e+00 0.000000000000e+00 0.000000000000e+00
0.000000000000e+00 0.000000000000e+00 0.000000000000e+00
0.000000000000e+00 0.000000000000e+00 0.000000000000e+00
0.000000000000e+00 0.000000000000e+00 0.000000000000e+00
0.000000000000e+00 0.000000000000e+00 0.000000000000e+00
0.000000000000e+00 0.000000000000e+00 0.000000000000e+00
0.000000000000e+00 0.000000000000e+00 0.000000000000e+00
0.000000000000e+00 0.000000000000e+00 0.000000000000e+00
0.000000000000e+00 0.000000000000e+00 0.000000000000e+00
0.000000000000e+00 0.000000000000e+00 0.000000000000e+00
0.000000000000e+00 0.000000000000e+00 0.000000000000e+00
0.000000000000e+00 0.000000000000e+00 0.000000000000e+00
0.000000000000e+00 0.000000000000e+00 0.000000000000e+00
0.000000000000e+00 0.000000000000e+00 0.000000000000e+00
0.000000000000e+00 0.000000000000e+00 0.000000000000e+00
0.000000000000e+00 0.000000000000e+00 0.000000000000e+00
0.000000000000e+00 0.000000000000e+00 0.000000000000e+00
0.000000000000e+00 0.000000000000e+00 0.000000000000e+00
0.000000000000e+00 0.000000000000e+00 0.000000000000e+00
0.000000000000e+00 0.000000000000e+00 0.000000000000e+00
0.000000000000e+00 0.000000000000e+00 0.000000000000e+00
0.000000000000e+00 0.000000000000e+00 0.000000000000e+00
0.000000000000e+00 0.000000000000e+00 0.000000000000e+00
0.000000000000e+00 0.000000000000e+00 0.000000000000e+00
0.000000000000e+00 0.000000000000e+00 0.000000000000e+00
0.000000000000e+00 0.000000000000e+00 0.000000000000e+00
0.000000000000e+00 0.000000000000e+00 0.000000000000e+00
0.000000000000e+00 0.000000000000e+00 0.000000000000e+00
0.000000000000e+00 0.000000000000e+00 0.000000000000e+00
0.000000000000e+00 0.000000000000e+00 0.000000000000e+00
0.000000000000e+00 0.000000000000e+00 0.000000000000e+00
0.000000000000e+00 0.000000000000e+00 0.000000000000e+00
0.000000000000e+00 0.000000000000e+00 0.000000000000e+00
0.000000000000e+00 0.000000000000e+00 0.000000000000e+00
0.000000000000e+00 0.000000000000e+00 0.000000000000e+00
0.000000000000e+00 0.000000000000e+00 0.000000000000e+00
0.000000000000e+00 0.000000000000e+00 0.000000000000e+00
0.000000000000e+00 0.000000000000e+00 0.000000000000e+00
0.000000000000e+00 0.000000000000e+00 0.000000000000e+00
0.000000000000e+00 0.000000000000e+00 0.000000000000e+00
0.000000000000e+00 0.000000000000e+00 0.000000000000e+00
0.000000000000e+00 0.000000000000e+00 0.000000000000e+00
0.000000000000e+00 0.000000000000e+00 0.000000000000e+00
0.000000000000e+00 0.000000000000e+00 0.000000000000e+00
0.000000000000e+00 0.000000000000e+00 0.000000000000e+00
0.000000000000e+00 0.000000000000e+00 0.000000000000e+00
0.000000000000e+00 0.000000000000e+00 0.000000000000e+00
0.000000000000e+00 0.000000000000e+00 0.000000000000e+00
0.000000000000e+00 0.000000000000e+00 0.000000000000e+00
-1.754118041550e-06 -1.754118115044e-06 -1.505009730723e-02
-9.000106823045e-07 -1.755374405491e-06 -1.505066300333e-02
3.231112662996e-14 -1.749224015478e-06 -1.505086028346e-02
9.000107469172e-07 -1.755374403046e-06 -1.505066300333e-02
1.754118106151e-06 -1.754118110146e-06 -1.505009730723e-02
-1.755374334446e-06 -9.000107557885e-07 -1.505066300333e-02
-9.011893679954e-07 -9.011894390372e-07 -1.505123119048e-02
3.109008468036e-14 -9.003785240713e-07 -1.505143005846e-02
9.011894301700e-07 -9.011894365956e-07 -1.505123119048e-02
1.755374396609e-06 -9.000107509121e-07 -1.505066300333e-02
-1.749223946884e-06 -4.115866958969e-14 -1.505086028346e-02
-9.003784554753e-07 -3.994426267267e-14 -1.505143005846e-02
2.987086012636e-14 -3.873250046196e-14 -1.505163104513e-02
9.003785152105e-07 -3.752191065563e-14 -1.505143005846e-02
1.749224006610e-06 -3.631271297102e-14 -1.505086028346e-02
-1.755374336911e-06 9.000106734708e-07 -1.505066300333e-02
-9.011893704496e-07 9.011893591519e-07 -1.505123119048e-02
2.864077467954e-14 9.003784466045e-07 -1.505143005846e-02
9.011894277299e-07 9.011893615535e-07 -1.505123119048e-02
1.755374394186e-06 9.000106782914e-07 -1.505066300333e-02
-1.754118046443e-06 1.754118032722e-06 -1.505009730723e-02
-9.000106872010e-07 1.755374325617e-06 -1.505066300333e-02
2.742080124629e-14 1.749223938019e-06 -1.505086028346e-02
9.000107420467e-07 1.755374328001e-06 -1.505066300333e-02
1.754118101290e-06 1.754118037543e-06 -1.505009730723e-02
-1.376536933893e-06 -1.376537007245e-06 -1.505148483234e-02
-6.942056068957e-07 -1.378329815271e-06 -1.505207334268e-02
3.223724869617e-14 -1.373709320828e-06 -1.505227598190e-02
6.942056713689e-07 -1.378329812828e-06 -1.505207334268e-02
1.376536998354e-06 -1.376537002367e-06 -1.505148483234e-02
-1.378329744360e-06 -6.942056802483e-07 -1.505207334268e-02
-6.944754983033e-07 -6.944755692149e-07 -1.505266571004e-02
3.101678483969e-14 -6.930977020139e-07 -1.505287071597e-02
6.944755603371e-07 -6.944755667807e-07 -1.505266571004e-02
1.378329806387e-06 -6.942056753769e-07 -1.505207334268e-02
-1.373709252367e-06 -4.110919662144e-14 -1.505227598190e-02
-6.930976335460e-07 -3.988712334752e-14 -1.505287071597e-02
2.979533972378e-14 -3.867578760289e-14 -1.505307899784e-02
6.930976931400e-07 -3.745848288408e-14 -1.505287071597e-02
1.373709311958e-06 -3.624867786072e-14 -1.505227598190e-02
-1.378329746806e-06 6.942055980364e-07 -1.505207334268e-02
-6.944755007513e-07 6.944754894378e-07 -1.505266571004e-02
2.857647324560e-14 6.930976246650e-07 -1.505287071597e-02
6.944755579039e-07 6.944754918636e-07 -1.505266571004e-02
1.378329803953e-06 6.942056028853e-07 -1.505207334268e-02
-1.376536938781e-06 1.376536925040e-06 -1.505148483234e-02
-6.942056117792e-07 1.378329735493e-06 -1.505207334268e-02
2.736574236810e-14 1.373709243489e-06 -1.505227598190e-02
6.942056664991e-07 1.378329737911e-06 -1.505207334268e-02
1.376536993492e-06 1.376536929884e-06 -1.505148483234e-02
-9.325896975825e-07 -9.325897707912e-07 -1.505244898423e-02
-4.838557551489e-07 -9.288974225022e-07 -1.505305353813e-02
3.216366974645e-14 -9.230511881165e-07 -1.505326059456e-02
4.838558194754e-07 -9.288974200638e-07 -1.505305353813e-02
9.325897618991e-07 -9.325897659203e-07 -1.505244898423e-02
-9.288973517234e-07 -4.838558283670e-07 -1.505305353813e-02
-4.843202449056e-07 -4.843203156785e-07 -1.505366323396e-02
3.094303848744e-14 -4.830099617933e-07 -1.505387355077e-02
4.843203067925e-07 -4.843203132480e-07 -1.505366323396e-02
9.288974136065e-07 -4.838558235004e-07 -1.505305353813e-02
-9.230511197814e-07 -4.105256645379e-14 -1.505326059456e-02
-4.830098934573e-07 -3.983268752175e-14 -1.505387355077e-02
2.972455894952e-14 -3.861630051994e-14 -1.505408862243e-02
4.830099529058e-07 -3.739709206394e-14 -1.505387355077e-02
9.230511792244e-07 -3.618439722529e-14 -1.505326059456e-02
-9.288973541641e-07 4.838557462686e-07 -1.505305353813e-02
-4.843202473431e-07 4.843202360156e-07 -1.505366323396e-02
2.850909630749e-14 4.830098845667e-07 -1.505387355077e-02
4.843203043618e-07 4.843202384561e-07 -1.505366323396e-02
9.288974111807e-07 4.838557511359e-07 -1.505305353813e-02
-9.325897024521e-07 9.325896886972e-07 -1.505244898423e-02
-4.838557600223e-07 9.288973428373e-07 -1.505305353813e-02
2.729490028506e-14 9.230511108847e-07 -1.505326059456e-02
4.838558146084e-07 9.288973452731e-07 -1.505305353813e-02
9.325897570296e-07 9.325896935637e-07 -1.505244898423e-02
-5.043342100522e-07 -5.043342831287e-07 -1.505301804046e-02
-2.714184626587e-07 -4.979466562811e-07 -1.505362343710e-02
3.208818364959e-14 -4.933743333043e-07 -1.505384161563e-02
2.714185268340e-07 -4.979466538496e-07 -1.505362343710e-02
5.043342742258e-07 -5.043342782617e-07 -1.505301804046e-02
-4.979465856416e-07 -2.714185357419e-07 -1.505362343710e-02
-2.717073238810e-07 -2.717073945196e-07 -1.505423412974e-02
3.086816478567e-14 -2.707434916577e-07 -1.505445724357e-02
2.717073856204e-07 -2.717073920879e-07 -1.505423412974e-02
4.979466473804e-07 -2.714185308715e-07 -1.505362343710e-02
-4.933742651065e-07 -4.099353373090e-14 -1.505384161563e-02
-2.707434234554e-07 -3.977802867713e-14 -1.505445724357e-02
2.965294231472e-14 -3.855380023306e-14 -1.505468741050e-02
2.707434827588e-07 -3.733507443627e-14 -1.505445724357e-02
4.933743244053e-07 -3.611831938712e-14 -1.505384161563e-02
-4.979465880758e-07 2.714184537527e-07 -1.505362343710e-02
-2.717073263105e-07 2.717073149690e-07 -1.505423412974e-02
2.844163582736e-14 2.707434145490e-07 -1.505445724357e-02
2.717073831957e-07 2.717073174206e-07 -1.505423412974e-02
4.979466449616e-07 2.714184586379e-07 -1.505362343710e-02
-5.043342149125e-07 5.043342011443e-07 -1.505301804046e-02
-2.714184675204e-07 4.979465767266e-07 -1.505362343710e-02
2.722701546895e-14 4.933742561959e-07 -1.505384161563e-02
2.714185219727e-07 4.979465791811e-07 -1.505362343710e-02
5.043342693631e-07 5.043342060327e-07 -1.505301804046e-02
-1.324265838257e-07 -1.324266567810e-07 -1.505322814450e-02
-5.452049865637e-08 -1.291292460334e-07 -1.505382874624e-02
3.200813894967e-14 -1.280682720867e-07 -1.505405172578e-02
5.452056267865e-08 -1.291292436008e-07 -1.505382874624e-02
1.324266478597e-07 -1.324266519094e-07 -1.505322814450e-02
-1.291291755307e-07 -5.452057160050e-08 -1.505382874624e-02
-5.249910864092e-08 -5.249917914597e-08 -1.505443442934e-02
3.079203642855e-14 -4.980301053824e-08 -1.505466294551e-02
5.249917022920e-08 -5.249917671265e-08 -1.505443442934e-02
1.291292371201e-07 -5.452056672921e-08 -1.505382874624e-02
-1.280682040346e-07 -4.094115412337e-14 -1.505405172578e-02
-4.980294247260e-08 -3.971675492902e-14 -1.505466294551e-02
2.957829102333e-14 -3.849600027060e-14 -1.505489900892e-02
4.980300162688e-08 -3.726652556678e-14 -1.505466294551e-02
1.280682631911e-07 -3.604967181861e-14 -1.505405172578e-02
-1.291291779549e-07 5.452048971685e-08 -1.505382874624e-02
-5.249911106238e-08 5.249909970113e-08 -1.505443442934e-02
2.837502396160e-14 4.980293354496e-08 -1.505466294551e-02
5.249916781330e-08 5.249910216956e-08 -1.505443442934e-02
1.291292347072e-07 5.452049462641e-08 -1.505382874624e-02
-1.324265886818e-07 1.324265748945e-07 -1.505322814450e-02
-5.452050350410e-08 1.291291665830e-07 -1.505382874624e-02
2.716092067077e-14 1.280681950924e-07 -1.505405172578e-02
5.452055783161e-08 1.291291690455e-07 -1.505382874624e-02
1.324266430191e-07 1.324265798097e-07 -1.505322814450e-02
SCALARS displacement_magnitude float 1
LOOKUP_TABLE default
0.000000000000e+00
0.000000000000e+00
0.000000000000e+00
0.000000000000e+00
0.000000000000e+00
0.000000000000e+00
0.000000000000e+00
0.000000000000e+00
0.000000000000e+00
0.000000000000e+00
0.000000000000e+00
0.000000000000e+00
0.000000000000e+00
0.000000000000e+00
0.000000000000e+00
0.000000000000e+00
0.000000000000e+00
0.000000000000e+00
0.000000000000e+00
0.000000000000e+00
0.000000000000e+00
0.000000000000e+00
0.000000000000e+00
0.000000000000e+00
0.000000000000e+00
0.000000000000e+00
0.000000000000e+00
0.000000000000e+00
0.000000000000e+00
0.000000000000e+00
0.000000000000e+00
0.000000000000e+00
0.000000000000e+00
0.000000000000e+00
0.000000000000e+00
0.000000000000e+00
0.000000000000e+00
0.000000000000e+00
0.000000000000e+00
0.000000000000e+00
0.000000000000e+00
0.000000000000e+00
0.000000000000e+00
0.000000000000e+00
0.000000000000e+00
0.000000000000e+00
0.000000000000e+00
0.000000000000e+00
0.000000000000e+00
0.000000000000e+00
0.000000000000e+00
0.000000000000e+00
0.000000000000e+00
0.000000000000e+00
0.000000000000e+00
0.000000000000e+00
0.000000000000e+00
0.000000000000e+00
0.000000000000e+00
0.000000000000e+00
0.000000000000e+00
0.000000000000e+00
0.000000000000e+00
0.000000000000e+00
0.000000000000e+00
0.000000000000e+00
0.000000000000e+00
0.000000000000e+00
0.000000000000e+00
0.000000000000e+00
0.000000000000e+00
0.000000000000e+00
0.000000000000e+00
0.000000000000e+00
0.000000000000e+00
0.000000000000e+00
0.000000000000e+00
0.000000000000e+00
0.000000000000e+00
0.000000000000e+00
0.000000000000e+00
0.000000000000e+00
0.000000000000e+00
0.000000000000e+00
0.000000000000e+00
0.000000000000e+00
0.000000000000e+00
0.000000000000e+00
0.000000000000e+00
0.000000000000e+00
0.000000000000e+00
0.000000000000e+00
0.000000000000e+00
0.000000000000e+00
0.000000000000e+00
0.000000000000e+00
0.000000000000e+00
0.000000000000e+00
0.000000000000e+00
0.000000000000e+00
0.000000000000e+00
0.000000000000e+00
0.000000000000e+00
0.000000000000e+00
0.000000000000e+00
0.000000000000e+00
0.000000000000e+00
0.000000000000e+00
0.000000000000e+00
0.000000000000e+00
0.000000000000e+00
0.000000000000e+00
0.000000000000e+00
0.000000000000e+00
0.000000000000e+00
0.000000000000e+00
0.000000000000e+00
0.000000000000e+00
0.000000000000e+00
0.000000000000e+00
0.000000000000e+00
0.000000000000e+00
0.000000000000e+00
0.000000000000e+00
0.000000000000e+00
1.505009751168e-02
1.505066313261e-02
1.505086038511e-02
1.505066313261e-02
1.505009751168e-02
1.505066313261e-02
1.505123124444e-02
1.505143008539e-02
1.505123124444e-02
1.505066313261e-02
1.505086038511e-02
1.505143008539e-02
1.505163104513e-02
1.505143008539e-02
1.505086038511e-02
1.505066313261e-02
1.505123124444e-02
1.505143008539e-02
1.505123124444e-02
1.505066313261e-02
1.505009751168e-02
1.505066313261e-02
1.505086038511e-02
1.505066313261e-02
1.505009751168e-02
1.505148495823e-02
1.505207342179e-02
1.505227604459e-02
1.505207342179e-02
1.505148495823e-02
1.505207342179e-02
1.505266574208e-02
1.505287073193e-02
1.505266574208e-02
1.505207342179e-02
1.505227604459e-02
1.505287073193e-02
1.505307899784e-02
1.505287073193e-02
1.505227604459e-02
1.505207342179e-02
1.505266574208e-02
1.505287073193e-02
1.505266574208e-02
1.505207342179e-02
1.505148495823e-02
1.505207342179e-02
1.505227604459e-02
1.505207342179e-02
1.505148495823e-02
1.505244904201e-02
1.505305357457e-02
1.505326062286e-02
1.505305357457e-02
1.505244904201e-02
1.505305357457e-02
1.505366324954e-02
1.505387355851e-02
1.505366324954e-02
1.505305357457e-02
1.505326062286e-02
1.505387355851e-02
1.505408862243e-02
1.505387355851e-02
1.505326062286e-02
1.505305357457e-02
1.505366324954e-02
1.505387355851e-02
1.505366324954e-02
1.505305357457e-02
1.505244904201e-02
1.505305357457e-02
1.505326062286e-02
1.505305357457e-02
1.505244904201e-02
1.505301805736e-02
1.505362344778e-02
1.505384162372e-02
1.505362344778e-02
1.505301805736e-02
1.505362344778e-02
1.505423413464e-02
1.505445724600e-02
1.505423413464e-02
1.505362344778e-02
1.505384162372e-02
1.505445724600e-02
1.505468741050e-02
1.505445724600e-02
1.505384162372e-02
1.505362344779e-02
1.505423413464e-02
1.505445724600e-02
1.505423413464e-02
1.505362344778e-02
1.505301805736e-02
1.505362344779e-02
1.505384162372e-02
1.505362344778e-02
1.505301805736e-02
1.505322814566e-02
1.505382874689e-02
1.505405172632e-02
1.505382874689e-02
1.505322814566e-02
1.505382874689e-02
1.505443442952e-02
1.505466294559e-02
1.505443442952e-02
1.505382874689e-02
1.505405172632e-02
1.505466294559e-02
1.505489900892e-02
1.505466294559e-02
1.505405172632e-02
1.505382874689e-02
1.505443442952e-02
1.505466294559e-02
1.505443442952e-02
1.505382874689e-02
1.505322814566e-02
1.505382874689e-02
1.505405172632e-02
1.505382874689e-02
1.505322814566e-02
CELL_DATA 128
SCALARS displacement_magnitude float 1
LOOKUP_TABLE default
0.000000000000e+00
0.000000000000e+00
0.000000000000e+00
0.000000000000e+00
0.000000000000e+00
0.000000000000e+00
0.000000000000e+00
0.000000000000e+00
0.000000000000e+00
0.000000000000e+00
0.000000000000e+00
0.000000000000e+00
0.000000000000e+00
0.000000000000e+00
0.000000000000e+00
0.000000000000e+00
0.000000000000e+00
0.000000000000e+00
0.000000000000e+00
0.000000000000e+00
0.000000000000e+00
0.000000000000e+00
0.000000000000e+00
0.000000000000e+00
0.000000000000e+00
0.000000000000e+00
0.000000000000e+00
0.000000000000e+00
0.000000000000e+00
0.000000000000e+00
0.000000000000e+00
0.000000000000e+00
0.000000000000e+00
0.000000000000e+00
0.000000000000e+00
0.000000000000e+00
0.000000000000e+00
0.000000000000e+00
0.000000000000e+00
0.000000000000e+00
0.000000000000e+00
0.000000000000e+00
0.000000000000e+00
0.000000000000e+00
0.000000000000e+00
0.000000000000e+00
0.000000000000e+00
0.000000000000e+00
0.000000000000e+00
0.000000000000e+00
0.000000000000e+00
0.000000000000e+00
0.000000000000e+00
0.000000000000e+00
0.000000000000e+00
0.000000000000e+00
0.000000000000e+00
0.000000000000e+00
0.000000000000e+00
0.000000000000e+00
0.000000000000e+00
0.000000000000e+00
0.000000000000e+00
0.000000000000e+00
1.505136907065e-02
1.505175884849e-02
1.505175884849e-02
1.505136907065e-02
1.505175884849e-02
1.505215108302e-02
1.505215108302e-02
1.505175884849e-02
1.505175884849e-02
1.505215108302e-02
1.505215108302e-02
1.505175884849e-02
1.505136907065e-02
1.505175884849e-02
1.505175884849e-02
1.505136907065e-02
1.505256462307e-02
1.505296711823e-02
1.505296711823e-02
1.505256462307e-02
1.505296711823e-02
1.505337314910e-02
1.505337314910e-02
1.505296711823e-02
1.505296711823e-02
1.505337314910e-02
1.505337314910e-02
1.505296711823e-02
1.505256462307e-02
1.505296711823e-02
1.505296711823e-02
1.505256462307e-02
1.505333981603e-02
1.505375093220e-02
1.505375093220e-02
1.505333981603e-02
1.505375093220e-02
1.505416687827e-02
1.505416687827e-02
1.505375093220e-02
1.505375093220e-02
1.505416687827e-02
1.505416687827e-02
1.505375093220e-02
1.505333981603e-02
1.505375093220e-02
1.505375093220e-02
1.505333981603e-02
1.505372739457e-02
1.505414178756e-02
1.505414178756e-02
1.505372739457e-02
1.505414178756e-02
1.505456192085e-02
1.505456192085e-02
1.505414178756e-02
1.505414178756e-02
1.505456192085e-02
1.505456192085e-02
1.505414178756e-02
1.505372739457e-02
1.505414178756e-02
1.505414178756e-02
1.505372739457e-02
SCALARS engineering_strain_norm float 1
LOOKUP_TABLE default
0.000000000000e+00
0.000000000000e+00
0.000000000000e+00
0.000000000000e+00
0.000000000000e+00
0.000000000000e+00
0.000000000000e+00
0.000000000000e+00
0.000000000000e+00
0.000000000000e+00
0.000000000000e+00
0.000000000000e+00
0.000000000000e+00
0.000000000000e+00
0.000000000000e+00
0.000000000000e+00
0.000000000000e+00
0.000000000000e+00
0.000000000000e+00
0.000000000000e+00
0.000000000000e+00
0.000000000000e+00
0.000000000000e+00
0.000000000000e+00
0.000000000000e+00
0.000000000000e+00
0.000000000000e+00
0.000000000000e+00
0.000000000000e+00
0.000000000000e+00
0.000000000000e+00
0.000000000000e+00
0.000000000000e+00
0.000000000000e+00
0.000000000000e+00
0.000000000000e+00
0.000000000000e+00
0.000000000000e+00
0.000000000000e+00
0.000000000000e+00
0.000000000000e+00
0.000000000000e+00
0.000000000000e+00
0.000000000000e+00
0.000000000000e+00
0.000000000000e+00
0.000000000000e+00
0.000000000000e+00
0.000000000000e+00
0.000000000000e+00
0.000000000000e+00
0.000000000000e+00
0.000000000000e+00
0.000000000000e+00
0.000000000000e+00
0.000000000000e+00
0.000000000000e+00
0.000000000000e+00
0.000000000000e+00
0.000000000000e+00
0.000000000000e+00
0.000000000000e+00
0.000000000000e+00
0.000000000000e+00
2.338097247979e-05
2.364726967873e-05
2.364726967872e-05
2.338097247955e-05
2.364726967889e-05
2.393336317716e-05
2.393336317716e-05
2.364726967866e-05
2.364726967893e-05
2.393336317725e-05
2.393336317721e-05
2.364726967872e-05
2.338097247994e-05
2.364726967894e-05
2.364726967887e-05
2.338097247974e-05
1.638702163377e-05
1.658623843810e-05
1.658623843807e-05
1.638702163351e-05
1.658623843818e-05
1.681005298307e-05
1.681005298303e-05
1.658623843806e-05
1.658623843820e-05
1.681005298313e-05
1.681005298310e-05
1.658623843811e-05
1.638702163374e-05
1.658623843816e-05
1.658623843805e-05
1.638702163359e-05
9.567113420631e-06
9.741055336339e-06
9.741055336318e-06
9.567113420554e-06
9.741055336334e-06
9.953049082567e-06
9.953049082617e-06
9.741055336327e-06
9.741055336397e-06
9.953049082604e-06
9.953049082612e-06
9.741055336384e-06
9.567113420652e-06
9.741055336303e-06
9.741055336274e-06
9.567113420571e-06
3.631724788954e-06
3.644070109339e-06
3.644070109369e-06
3.631724788927e-06
3.644070109380e-06
3.659738258669e-06
3.659738258691e-06
3.644070109404e-06
3.644070109345e-06
3.659738258628e-06
3.659738258669e-06
3.644070109447e-06
3.631724788968e-06
3.644070109348e-06
3.644070109334e-06
3.631724788970e-06
SCALARS von_mises float 1
LOOKUP_TABLE default
0.000000000000e+00
0.000000000000e+00
0.000000000000e+00
0.000000000000e+00
0.000000000000e+00
0.000000000000e+00
0.000000000000e+00
0.000000000000e+00
0.000000000000e+00
0.000000000000e+00
0.000000000000e+00
0.000000000000e+00
0.000000000000e+00
0.000000000000e+00
0.000000000000e+00
0.000000000000e+00
0.000000000000e+00
0.000000000000e+00
0.000000000000e+00
0.000000000000e+00
0.000000000000e+00
0.000000000000e+00
0.000000000000e+00
0.000000000000e+00
0.000000000000e+00
0.000000000000e+00
0.000000000000e+00
0.000000000000e+00
0.000000000000e+00
0.000000000000e+00
0.000000000000e+00
0.000000000000e+00
0.000000000000e+00
0.000000000000e+00
0.000000000000e+00
0.000000000000e+00
0.000000000000e+00
0.000000000000e+00
0.000000000000e+00
0.000000000000e+00
0.000000000000e+00
0.000000000000e+00
0.000000000000e+00
0.000000000000e+00
0.000000000000e+00
0.000000000000e+00
0.000000000000e+00
0.000000000000e+00
0.000000000000e+00
0.000000000000e+00
0.000000000000e+00
0.000000000000e+00
0.000000000000e+00
0.000000000000e+00
0.000000000000e+00
0.000000000000e+00
0.000000000000e+00
0.000000000000e+00
0.000000000000e+00
0.000000000000e+00
0.000000000000e+00
0.000000000000e+00
0.000000000000e+00
0.000000000000e+00
2.142482607543e+00
2.168176322196e+00
2.168176322195e+00
2.142482607520e+00
2.168176322211e+00
2.195902011522e+00
2.195902011520e+00
2.168176322188e+00
2.168176322215e+00
2.195902011529e+00
2.195902011525e+00
2.168176322194e+00
2.142482607556e+00
2.168176322215e+00
2.168176322209e+00
2.142482607538e+00
1.508193437857e+00
1.527596626069e+00
1.527596626066e+00
1.508193437833e+00
1.527596626076e+00
1.549527952908e+00
1.549527952905e+00
1.527596626065e+00
1.527596626078e+00
1.549527952913e+00
1.549527952911e+00
1.527596626069e+00
1.508193437855e+00
1.527596626075e+00
1.527596626064e+00
1.508193437841e+00
8.825886360740e-01
9.012680576657e-01
9.012680576637e-01
8.825886360668e-01
9.012680576651e-01
9.237877730067e-01
9.237877730113e-01
9.012680576647e-01
9.012680576709e-01
9.237877730103e-01
9.237877730113e-01
9.012680576702e-01
8.825886360760e-01
9.012680576627e-01
9.012680576601e-01
8.825886360688e-01
3.386653353064e-01
3.405079359638e-01
3.405079359665e-01
3.386653353042e-01
3.405079359676e-01
3.430386484008e-01
3.430386484032e-01
3.405079359706e-01
3.405079359644e-01
3.430386483974e-01
3.430386484014e-01
3.405079359744e-01
3.386653353073e-01
3.405079359642e-01
3.405079359629e-01
3.386653353081e-01
SCALARS sdf_gap float 1
LOOKUP_TABLE default
0.000000000000e+00
0.000000000000e+00
0.000000000000e+00
0.000000000000e+00
0.000000000000e+00
0.000000000000e+00
0.000000000000e+00
0.000000000000e+00
0.000000000000e+00
0.000000000000e+00
0.000000000000e+00
0.000000000000e+00
0.000000000000e+00
0.000000000000e+00
0.000000000000e+00
0.000000000000e+00
0.000000000000e+00
0.000000000000e+00
0.000000000000e+00
0.000000000000e+00
0.000000000000e+00
0.000000000000e+00
0.000000000000e+00
0.000000000000e+00
0.000000000000e+00
0.000000000000e+00
0.000000000000e+00
0.000000000000e+00
0.000000000000e+00
0.000000000000e+00
0.000000000000e+00
0.000000000000e+00
0.000000000000e+00
0.000000000000e+00
0.000000000000e+00
0.000000000000e+00
0.000000000000e+00
0.000000000000e+00
0.000000000000e+00
0.000000000000e+00
0.000000000000e+00
0.000000000000e+00
0.000000000000e+00
0.000000000000e+00
0.000000000000e+00
0.000000000000e+00
0.000000000000e+00
0.000000000000e+00
0.000000000000e+00
0.000000000000e+00
0.000000000000e+00
0.000000000000e+00
0.000000000000e+00
0.000000000000e+00
0.000000000000e+00
0.000000000000e+00
0.000000000000e+00
0.000000000000e+00
0.000000000000e+00
0.000000000000e+00
0.000000000000e+00
0.000000000000e+00
0.000000000000e+00
0.000000000000e+00
-5.066362609406e-05
-5.104613393423e-05
-5.104613393410e-05
-5.066362609365e-05
-5.104613393449e-05
-5.143058813475e-05
-5.143058813459e-05
-5.104613393406e-05
-5.104613393458e-05
-5.143058813484e-05
-5.143058813469e-05
-5.104613393417e-05
-5.066362609436e-05
-5.104613393453e-05
-5.104613393447e-05
-5.066362609402e-05
0.000000000000e+00
0.000000000000e+00
0.000000000000e+00
0.000000000000e+00
0.000000000000e+00
0.000000000000e+00
0.000000000000e+00
0.000000000000e+00
0.000000000000e+00
0.000000000000e+00
0.000000000000e+00
0.000000000000e+00
0.000000000000e+00
0.000000000000e+00
0.000000000000e+00
0.000000000000e+00
0.000000000000e+00
0.000000000000e+00
0.000000000000e+00
0.000000000000e+00
0.000000000000e+00
0.000000000000e+00
0.000000000000e+00
0.000000000000e+00
0.000000000000e+00
0.000000000000e+00
0.000000000000e+00
0.000000000000e+00
0.000000000000e+00
0.000000000000e+00
0.000000000000e+00
0.000000000000e+00
0.000000000000e+00
0.000000000000e+00
0.000000000000e+00
0.000000000000e+00
0.000000000000e+00
0.000000000000e+00
0.000000000000e+00
0.000000000000e+00
0.000000000000e+00
0.000000000000e+00
0.000000000000e+00
0.000000000000e+00
0.000000000000e+00
0.000000000000e+00
0.000000000000e+00
0.000000000000e+00
SCALARS contact_pressure float 1
LOOKUP_TABLE default
0.000000000000e+00
0.000000000000e+00
0.000000000000e+00
0.000000000000e+00
0.000000000000e+00
0.000000000000e+00
0.000000000000e+00
0.000000000000e+00
0.000000000000e+00
0.000000000000e+00
0.000000000000e+00
0.000000000000e+00
0.000000000000e+00
0.000000000000e+00
0.000000000000e+00
0.000000000000e+00
0.000000000000e+00
0.000000000000e+00
0.000000000000e+00
0.000000000000e+00
0.000000000000e+00
0.000000000000e+00
0.000000000000e+00
0.000000000000e+00
0.000000000000e+00
0.000000000000e+00
0.000000000000e+00
0.000000000000e+00
0.000000000000e+00
0.000000000000e+00
0.000000000000e+00
0.000000000000e+00
0.000000000000e+00
0.000000000000e+00
0.000000000000e+00
0.000000000000e+00
0.000000000000e+00
0.000000000000e+00
0.000000000000e+00
0.000000000000e+00
0.000000000000e+00
0.000000000000e+00
0.000000000000e+00
0.000000000000e+00
0.000000000000e+00
0.000000000000e+00
0.000000000000e+00
0.000000000000e+00
0.000000000000e+00
0.000000000000e+00
0.000000000000e+00
0.000000000000e+00
0.000000000000e+00
0.000000000000e+00
0.000000000000e+00
0.000000000000e+00
0.000000000000e+00
0.000000000000e+00
0.000000000000e+00
0.000000000000e+00
0.000000000000e+00
0.000000000000e+00
0.000000000000e+00
0.000000000000e+00
2.533181304703e+00
2.552306696711e+00
2.552306696705e+00
2.533181304682e+00
2.552306696724e+00
2.571529406738e+00
2.571529406729e+00
2.552306696703e+00
2.552306696729e+00
2.571529406742e+00
2.571529406734e+00
2.552306696709e+00
2.533181304718e+00
2.552306696727e+00
2.552306696723e+00
2.533181304701e+00
0.000000000000e+00
0.000000000000e+00
0.000000000000e+00
0.000000000000e+00
0.000000000000e+00
0.000000000000e+00
0.000000000000e+00
0.000000000000e+00
0.000000000000e+00
0.000000000000e+00
0.000000000000e+00
0.000000000000e+00
0.000000000000e+00
0.000000000000e+00
0.000000000000e+00
0.000000000000e+00
0.000000000000e+00
0.000000000000e+00
0.000000000000e+00
0.000000000000e+00
0.000000000000e+00
0.000000000000e+00
0.000000000000e+00
0.000000000000e+00
0.000000000000e+00
0.000000000000e+00
0.000000000000e+00
0.000000000000e+00
0.000000000000e+00
0.000000000000e+00
0.000000000000e+00
0.000000000000e+00
0.000000000000e+00
0.000000000000e+00
0.000000000000e+00
0.000000000000e+00
0.000000000000e+00
0.000000000000e+00
0.000000000000e+00
0.000000000000e+00
0.000000000000e+00
0.000000000000e+00
0.000000000000e+00
0.000000000000e+00
0.000000000000e+00
0.000000000000e+00
0.000000000000e+00
0.000000000000e+00
SCALARS active_contact float 1
LOOKUP_TABLE default
0.000000000000e+00
0.000000000000e+00
0.000000000000e+00
0.000000000000e+00
0.000000000000e+00
0.000000000000e+00
0.000000000000e+00
0.000000000000e+00
0.000000000000e+00
0.000000000000e+00
0.000000000000e+00
0.000000000000e+00
0.000000000000e+00
0.000000000000e+00
0.000000000000e+00
0.000000000000e+00
0.000000000000e+00
0.000000000000e+00
0.000000000000e+00
0.000000000000e+00
0.000000000000e+00
0.000000000000e+00
0.000000000000e+00
0.000000000000e+00
0.000000000000e+00
0.000000000000e+00
0.000000000000e+00
0.000000000000e+00
0.000000000000e+00
0.000000000000e+00
0.000000000000e+00
0.000000000000e+00
0.000000000000e+00
0.000000000000e+00
0.000000000000e+00
0.000000000000e+00
0.000000000000e+00
0.000000000000e+00
0.000000000000e+00
0.000000000000e+00
0.000000000000e+00
0.000000000000e+00
0.000000000000e+00
0.000000000000e+00
0.000000000000e+00
0.000000000000e+00
0.000000000000e+00
0.000000000000e+00
0.000000000000e+00
0.000000000000e+00
0.000000000000e+00
0.000000000000e+00
0.000000000000e+00
0.000000000000e+00
0.000000000000e+00
0.000000000000e+00
0.000000000000e+00
0.000000000000e+00
0.000000000000e+00
0.000000000000e+00
0.000000000000e+00
0.000000000000e+00
0.000000000000e+00
0.000000000000e+00
1.000000000000e+00
1.000000000000e+00
1.000000000000e+00
1.000000000000e+00
1.000000000000e+00
1.000000000000e+00
1.000000000000e+00
1.000000000000e+00
1.000000000000e+00
1.000000000000e+00
1.000000000000e+00
1.000000000000e+00
1.000000000000e+00
1.000000000000e+00
1.000000000000e+00
1.000000000000e+00
0.000000000000e+00
0.000000000000e+00
0.000000000000e+00
0.000000000000e+00
0.000000000000e+00
0.000000000000e+00
0.000000000000e+00
0.000000000000e+00
0.000000000000e+00
0.000000000000e+00
0.000000000000e+00
0.000000000000e+00
0.000000000000e+00
0.000000000000e+00
0.000000000000e+00
0.000000000000e+00
0.000000000000e+00
0.000000000000e+00
0.000000000000e+00
0.000000000000e+00
0.000000000000e+00
0.000000000000e+00
0.000000000000e+00
0.000000000000e+00
0.000000000000e+00
0.000000000000e+00
0.000000000000e+00
0.000000000000e+00
0.000000000000e+00
0.000000000000e+00
0.000000000000e+00
0.000000000000e+00
0.000000000000e+00
0.000000000000e+00
0.000000000000e+00
0.000000000000e+00
0.000000000000e+00
0.000000000000e+00
0.000000000000e+00
0.000000000000e+00
0.000000000000e+00
0.000000000000e+00
0.000000000000e+00
0.000000000000e+00
0.000000000000e+00
0.000000000000e+00
0.000000000000e+00
0.000000000000e+00
