# vtk DataFile Version 3.0
SFC long-time C3D8 dynamic frame 98 t=1.960000000000e+00
ASCII
DATASET UNSTRUCTURED_GRID
POINTS 250 float
-2.500000000000e-01 -2.500000000000e-01 0.000000000000e+00
-1.250000000000e-01 -2.500000000000e-01 0.000000000000e+00
0.000000000000e+00 -2.500000000000e-01 0.000000000000e+00
1.250000000000e-01 -2.500000000000e-01 0.000000000000e+00
2.500000000000e-01 -2.500000000000e-01 0.000000000000e+00
-2.500000000000e-01 -1.250000000000e-01 0.000000000000e+00
-1.250000000000e-01 -1.250000000000e-01 0.000000000000e+00
0.000000000000e+00 -1.250000000000e-01 0.000000000000e+00
1.250000000000e-01 -1.250000000000e-01 0.000000000000e+00
2.500000000000e-01 -1.250000000000e-01 0.000000000000e+00
-2.500000000000e-01 0.000000000000e+00 0.000000000000e+00
-1.250000000000e-01 0.000000000000e+00 0.000000000000e+00
0.000000000000e+00 0.000000000000e+00 0.000000000000e+00
1.250000000000e-01 0.000000000000e+00 0.000000000000e+00
2.500000000000e-01 0.000000000000e+00 0.000000000000e+00
-2.500000000000e-01 1.250000000000e-01 0.000000000000e+00
-1.250000000000e-01 1.250000000000e-01 0.000000000000e+00
0.000000000000e+00 1.250000000000e-01 0.000000000000e+00
1.250000000000e-01 1.250000000000e-01 0.000000000000e+00
2.500000000000e-01 1.250000000000e-01 0.000000000000e+00
-2.500000000000e-01 2.500000000000e-01 0.000000000000e+00
-1.250000000000e-01 2.500000000000e-01 0.000000000000e+00
0.000000000000e+00 2.500000000000e-01 0.000000000000e+00
1.250000000000e-01 2.500000000000e-01 0.000000000000e+00
2.500000000000e-01 2.500000000000e-01 0.000000000000e+00
-2.500000000000e-01 -2.500000000000e-01 6.000000000000e-02
-1.250000000000e-01 -2.500000000000e-01 6.000000000000e-02
0.000000000000e+00 -2.500000000000e-01 6.000000000000e-02
1.250000000000e-01 -2.500000000000e-01 6.000000000000e-02
2.500000000000e-01 -2.500000000000e-01 6.000000000000e-02
-2.500000000000e-01 -1.250000000000e-01 6.000000000000e-02
-1.250000000000e-01 -1.250000000000e-01 6.000000000000e-02
0.000000000000e+00 -1.250000000000e-01 6.000000000000e-02
1.250000000000e-01 -1.250000000000e-01 6.000000000000e-02
2.500000000000e-01 -1.250000000000e-01 6.000000000000e-02
-2.500000000000e-01 0.000000000000e+00 6.000000000000e-02
-1.250000000000e-01 0.000000000000e+00 6.000000000000e-02
0.000000000000e+00 0.000000000000e+00 6.000000000000e-02
1.250000000000e-01 0.000000000000e+00 6.000000000000e-02
2.500000000000e-01 0.000000000000e+00 6.000000000000e-02
-2.500000000000e-01 1.250000000000e-01 6.000000000000e-02
-1.250000000000e-01 1.250000000000e-01 6.000000000000e-02
0.000000000000e+00 1.250000000000e-01 6.000000000000e-02
1.250000000000e-01 1.250000000000e-01 6.000000000000e-02
2.500000000000e-01 1.250000000000e-01 6.000000000000e-02
-2.500000000000e-01 2.500000000000e-01 6.000000000000e-02
-1.250000000000e-01 2.500000000000e-01 6.000000000000e-02
0.000000000000e+00 2.500000000000e-01 6.000000000000e-02
1.250000000000e-01 2.500000000000e-01 6.000000000000e-02
2.500000000000e-01 2.500000000000e-01 6.000000000000e-02
-2.500000000000e-01 -2.500000000000e-01 1.200000000000e-01
-1.250000000000e-01 -2.500000000000e-01 1.200000000000e-01
0.000000000000e+00 -2.500000000000e-01 1.200000000000e-01
1.250000000000e-01 -2.500000000000e-01 1.200000000000e-01
2.500000000000e-01 -2.500000000000e-01 1.200000000000e-01
-2.500000000000e-01 -1.250000000000e-01 1.200000000000e-01
-1.250000000000e-01 -1.250000000000e-01 1.200000000000e-01
0.000000000000e+00 -1.250000000000e-01 1.200000000000e-01
1.250000000000e-01 -1.250000000000e-01 1.200000000000e-01
2.500000000000e-01 -1.250000000000e-01 1.200000000000e-01
-2.500000000000e-01 0.000000000000e+00 1.200000000000e-01
-1.250000000000e-01 0.000000000000e+00 1.200000000000e-01
0.000000000000e+00 0.000000000000e+00 1.200000000000e-01
1.250000000000e-01 0.000000000000e+00 1.200000000000e-01
2.500000000000e-01 0.000000000000e+00 1.200000000000e-01
-2.500000000000e-01 1.250000000000e-01 1.200000000000e-01
-1.250000000000e-01 1.250000000000e-01 1.200000000000e-01
0.000000000000e+00 1.250000000000e-01 1.200000000000e-01
1.250000000000e-01 1.250000000000e-01 1.200000000000e-01
2.500000000000e-01 1.250000000000e-01 1.200000000000e-01
-2.500000000000e-01 2.500000000000e-01 1.200000000000e-01
-1.250000000000e-01 2.500000000000e-01 1.200000000000e-01
0.000000000000e+00 2.500000000000e-01 1.200000000000e-01
1.250000000000e-01 2.500000000000e-01 1.200000000000e-01
2.500000000000e-01 2.500000000000e-01 1.200000000000e-01
-2.500000000000e-01 -2.500000000000e-01 1.800000000000e-01
-1.250000000000e-01 -2.500000000000e-01 1.800000000000e-01
0.000000000000e+00 -2.500000000000e-01 1.800000000000e-01
1.250000000000e-01 -2.500000000000e-01 1.800000000000e-01
2.500000000000e-01 -2.500000000000e-01 1.800000000000e-01
-2.500000000000e-01 -1.250000000000e-01 1.800000000000e-01
-1.250000000000e-01 -1.250000000000e-01 1.800000000000e-01
0.000000000000e+00 -1.250000000000e-01 1.800000000000e-01
1.250000000000e-01 -1.250000000000e-01 1.800000000000e-01
2.500000000000e-01 -1.250000000000e-01 1.800000000000e-01
-2.500000000000e-01 0.000000000000e+00 1.800000000000e-01
-1.250000000000e-01 0.000000000000e+00 1.800000000000e-01
0.000000000000e+00 0.000000000000e+00 1.800000000000e-01
1.250000000000e-01 0.000000000000e+00 1.800000000000e-01
2.500000000000e-01 0.000000000000e+00 1.800000000000e-01
-2.500000000000e-01 1.250000000000e-01 1.800000000000e-01
-1.250000000000e-01 1.250000000000e-01 1.800000000000e-01
0.000000000000e+00 1.250000000000e-01 1.800000000000e-01
1.250000000000e-01 1.250000000000e-01 1.800000000000e-01
2.500000000000e-01 1.250000000000e-01 1.800000000000e-01
-2.500000000000e-01 2.500000000000e-01 1.800000000000e-01
-1.250000000000e-01 2.500000000000e-01 1.800000000000e-01
0.000000000000e+00 2.500000000000e-01 1.800000000000e-01
1.250000000000e-01 2.500000000000e-01 1.800000000000e-01
2.500000000000e-01 2.500000000000e-01 1.800000000000e-01
-2.500000000000e-01 -2.500000000000e-01 2.400000000000e-01
-1.250000000000e-01 -2.500000000000e-01 2.400000000000e-01
0.000000000000e+00 -2.500000000000e-01 2.400000000000e-01
1.250000000000e-01 -2.500000000000e-01 2.400000000000e-01
2.500000000000e-01 -2.500000000000e-01 2.400000000000e-01
-2.500000000000e-01 -1.250000000000e-01 2.400000000000e-01
-1.250000000000e-01 -1.250000000000e-01 2.400000000000e-01
0.000000000000e+00 -1.250000000000e-01 2.400000000000e-01
1.250000000000e-01 -1.250000000000e-01 2.400000000000e-01
2.500000000000e-01 -1.250000000000e-01 2.400000000000e-01
-2.500000000000e-01 0.000000000000e+00 2.400000000000e-01
-1.250000000000e-01 0.000000000000e+00 2.400000000000e-01
0.000000000000e+00 0.000000000000e+00 2.400000000000e-01
1.250000000000e-01 0.000000000000e+00 2.400000000000e-01
2.500000000000e-01 0.000000000000e+00 2.400000000000e-01
-2.500000000000e-01 1.250000000000e-01 2.400000000000e-01
-1.250000000000e-01 1.250000000000e-01 2.400000000000e-01
0.000000000000e+00 1.250000000000e-01 2.400000000000e-01
1.250000000000e-01 1.250000000000e-01 2.400000000000e-01
2.500000000000e-01 1.250000000000e-01 2.400000000000e-01
-2.500000000000e-01 2.500000000000e-01 2.400000000000e-01
-1.250000000000e-01 2.500000000000e-01 2.400000000000e-01
0.000000000000e+00 2.500000000000e-01 2.400000000000e-01
1.250000000000e-01 2.500000000000e-01 2.400000000000e-01
2.500000000000e-01 2.500000000000e-01 2.400000000000e-01
-2.500017714782e-01 -2.500017714783e-01 2.399499790576e-01
-1.250009039128e-01 -2.500017664272e-01 2.399495338933e-01
2.535386746285e-14 -2.500017455891e-01 2.399493954446e-01
1.250009039128e-01 -2.500017664272e-01 2.399495338933e-01
2.500017714783e-01 -2.500017714783e-01 2.399499790576e-01
-2.500017664271e-01 -1.250009039129e-01 2.399495338933e-01
-1.250009019472e-01 -1.250009019473e-01 2.399490909416e-01
2.458129428093e-14 -1.250008895848e-01 2.399489535215e-01
1.250009019472e-01 -1.250009019473e-01 2.399490909416e-01
2.500017664272e-01 -1.250009039129e-01 2.399495338933e-01
-2.500017455890e-01 -3.248331260189e-14 2.399493954446e-01
-1.250008895848e-01 -3.171518613947e-14 2.399489535215e-01
2.381701725858e-14 -3.093702558967e-14 2.399488159029e-01
1.250008895848e-01 -3.015656260969e-14 2.399489535215e-01
2.500017455891e-01 -2.938878308438e-14 2.399493954446e-01
-2.500017664271e-01 1.250009039128e-01 2.399495338933e-01
-1.250009019472e-01 1.250009019472e-01 2.399490909416e-01
2.305666467504e-14 1.250008895848e-01 2.399489535215e-01
1.250009019472e-01 1.250009019472e-01 2.399490909416e-01
2.500017664272e-01 1.250009039128e-01 2.399495338933e-01
-2.500017714782e-01 2.500017714782e-01 2.399499790576e-01
-1.250009039128e-01 2.500017664271e-01 2.399495338933e-01
2.228738685045e-14 2.500017455890e-01 2.399493954446e-01
1.250009039128e-01 2.500017664271e-01 2.399495338933e-01
2.500017714783e-01 2.500017714782e-01 2.399499790576e-01
-2.500014582082e-01 -2.500014582083e-01 3.049485814441e-01
-1.250007472752e-01 -2.500014541065e-01 3.049481109111e-01
2.534480184411e-14 -2.500014337003e-01 3.049479662742e-01
1.250007472753e-01 -2.500014541065e-01 3.049481109111e-01
2.500014582083e-01 -2.500014582083e-01 3.049485814441e-01
-2.500014541064e-01 -1.250007472753e-01 3.049481109111e-01
-1.250007460241e-01 -1.250007460242e-01 3.049476401587e-01
2.456974007669e-14 -1.250007339906e-01 3.049474962449e-01
1.250007460242e-01 -1.250007460242e-01 3.049476401587e-01
2.500014541065e-01 -1.250007472753e-01 3.049481109111e-01
-2.500014337003e-01 -3.246646704899e-14 3.049479662742e-01
-1.250007339906e-01 -3.169961468296e-14 3.049474962449e-01
2.380330590859e-14 -3.092746140482e-14 3.049473530076e-01
1.250007339906e-01 -3.015287071213e-14 3.049474962449e-01
2.500014337003e-01 -2.938115598419e-14 3.049479662742e-01
-2.500014541064e-01 1.250007472752e-01 3.049481109111e-01
-1.250007460241e-01 1.250007460241e-01 3.049476401587e-01
2.303503294421e-14 1.250007339906e-01 3.049474962449e-01
1.250007460242e-01 1.250007460241e-01 3.049476401587e-01
2.500014541065e-01 1.250007472752e-01 3.049481109111e-01
-2.500014582082e-01 2.500014582082e-01 3.049485814441e-01
-1.250007472752e-01 2.500014541064e-01 3.049481109111e-01
2.227078481075e-14 2.500014337003e-01 3.049479662742e-01
1.250007472753e-01 2.500014541064e-01 3.049481109111e-01
2.500014582083e-01 2.500014582082e-01 3.049485814441e-01
-2.500010668631e-01 -2.500010668632e-01 3.699476023273e-01
-1.250005790591e-01 -2.500010555379e-01 3.699471000985e-01
2.533188587286e-14 -2.500010305121e-01 3.699469414006e-01
1.250005790592e-01 -2.500010555379e-01 3.699471000985e-01
2.500010668632e-01 -2.500010668632e-01 3.699476023273e-01
-2.500010555379e-01 -1.250005790592e-01 3.699471000985e-01
-1.250005785882e-01 -1.250005785883e-01 3.699465934015e-01
2.455812410063e-14 -1.250005659693e-01 3.699464334536e-01
1.250005785883e-01 -1.250005785883e-01 3.699465934015e-01
2.500010555379e-01 -1.250005790592e-01 3.699471000985e-01
-2.500010305121e-01 -3.245373285518e-14 3.699469414006e-01
-1.250005659693e-01 -3.168516655149e-14 3.699464334536e-01
2.378640701308e-14 -3.091386571577e-14 3.699462733036e-01
1.250005659693e-01 -3.014457209992e-14 3.699464334536e-01
2.500010305121e-01 -2.937498156377e-14 3.699469414006e-01
-2.500010555379e-01 1.250005790591e-01 3.699471000985e-01
-1.250005785882e-01 1.250005785882e-01 3.699465934015e-01
2.301565637911e-14 1.250005659693e-01 3.699464334536e-01
1.250005785882e-01 1.250005785882e-01 3.699465934015e-01
2.500010555379e-01 1.250005790591e-01 3.699471000985e-01
-2.500010668631e-01 2.500010668631e-01 3.699476023273e-01
-1.250005790591e-01 2.500010555379e-01 3.699471000985e-01
2.224889405282e-14 2.500010305121e-01 3.699469414006e-01
1.250005790592e-01 2.500010555379e-01 3.699471000985e-01
2.500010668631e-01 2.500010668631e-01 3.699476023273e-01
-2.500006767835e-01 -2.500006767836e-01 4.349470216951e-01
-1.250003969223e-01 -2.500006578245e-01 4.349464983210e-01
2.531336401579e-14 -2.500006280445e-01 4.349463129034e-01
1.250003969224e-01 -2.500006578245e-01 4.349464983210e-01
2.500006767836e-01 -2.500006767836e-01 4.349470216951e-01
-2.500006578245e-01 -1.250003969224e-01 4.349464983210e-01
-1.250003964278e-01 -1.250003964278e-01 4.349459667985e-01
2.454206058820e-14 -1.250003822671e-01 4.349457767396e-01
1.250003964278e-01 -1.250003964278e-01 4.349459667985e-01
2.500006578245e-01 -1.250003969224e-01 4.349464983210e-01
-2.500006280444e-01 -3.244056374059e-14 4.349463129034e-01
-1.250003822670e-01 -3.167143262583e-14 4.349457767396e-01
2.376658425790e-14 -3.090281802342e-14 4.349455836279e-01
1.250003822671e-01 -3.013774186681e-14 4.349457767396e-01
2.500006280445e-01 -2.936694814645e-14 4.349463129034e-01
-2.500006578245e-01 1.250003969223e-01 4.349464983210e-01
-1.250003964278e-01 1.250003964278e-01 4.349459667985e-01
2.299344236598e-14 1.250003822670e-01 4.349457767396e-01
1.250003964278e-01 1.250003964278e-01 4.349459667985e-01
2.500006578245e-01 1.250003969223e-01 4.349464983210e-01
-2.500006767835e-01 2.500006767835e-01 4.349470216951e-01
-1.250003969224e-01 2.500006578245e-01 4.349464983210e-01
2.222735633659e-14 2.500006280444e-01 4.349463129034e-01
1.250003969224e-01 2.500006578245e-01 4.349464983210e-01
2.500006767836e-01 2.500006767835e-01 4.349470216951e-01
-2.500003386562e-01 -2.500003386563e-01 4.999467983362e-01
-1.250002022838e-01 -2.500003181263e-01 4.999462645051e-01
2.529739470695e-14 -2.500002875542e-01 4.999460600290e-01
1.250002022839e-01 -2.500003181263e-01 4.999462645051e-01
2.500003386563e-01 -2.500003386563e-01 4.999467983362e-01
-2.500003181263e-01 -1.250002022839e-01 4.999462645051e-01
-1.250001986394e-01 -1.250001986394e-01 4.999457187577e-01
2.452606359255e-14 -1.250001818060e-01 4.999455068745e-01
1.250001986394e-01 -1.250001986394e-01 4.999457187577e-01
2.500003181263e-01 -1.250002022839e-01 4.999462645051e-01
-2.500002875542e-01 -3.242361773756e-14 4.999460600290e-01
-1.250001818060e-01 -3.165687825381e-14 4.999455068745e-01
2.374345558171e-14 -3.089794964909e-14 4.999452906614e-01
1.250001818060e-01 -3.012973128350e-14 4.999455068745e-01
2.500002875542e-01 -2.935894469078e-14 4.999460600290e-01
-2.500003181263e-01 1.250002022838e-01 4.999462645051e-01
-1.250001986394e-01 1.250001986394e-01 4.999457187577e-01
2.296976349201e-14 1.250001818060e-01 4.999455068745e-01
1.250001986394e-01 1.250001986394e-01 4.999457187577e-01
2.500003181263e-01 1.250002022838e-01 4.999462645051e-01
-2.500003386562e-01 2.500003386562e-01 4.999467983362e-01
-1.250002022839e-01 2.500003181263e-01 4.999462645051e-01
2.220177463101e-14 2.500002875542e-01 4.999460600290e-01
1.250002022839e-01 2.500003181263e-01 4.999462645051e-01
2.500003386563e-01 2.500003386562e-01 4.999467983362e-01
CELLS 128 1152
8 0 1 6 5 25 26 31 30
8 1 2 7 6 26 27 32 31
8 2 3 8 7 27 28 33 32
8 3 4 9 8 28 29 34 33
8 5 6 11 10 30 31 36 35
8 6 7 12 11 31 32 37 36
8 7 8 13 12 32 33 38 37
8 8 9 14 13 33 34 39 38
8 10 11 16 15 35 36 41 40
8 11 12 17 16 36 37 42 41
8 12 13 18 17 37 38 43 42
8 13 14 19 18 38 39 44 43
8 15 16 21 20 40 41 46 45
8 16 17 22 21 41 42 47 46
8 17 18 23 22 42 43 48 47
8 18 19 24 23 43 44 49 48
8 25 26 31 30 50 51 56 55
8 26 27 32 31 51 52 57 56
8 27 28 33 32 52 53 58 57
8 28 29 34 33 53 54 59 58
8 30 31 36 35 55 56 61 60
8 31 32 37 36 56 57 62 61
8 32 33 38 37 57 58 63 62
8 33 34 39 38 58 59 64 63
8 35 36 41 40 60 61 66 65
8 36 37 42 41 61 62 67 66
8 37 38 43 42 62 63 68 67
8 38 39 44 43 63 64 69 68
8 40 41 46 45 65 66 71 70
8 41 42 47 46 66 67 72 71
8 42 43 48 47 67 68 73 72
8 43 44 49 48 68 69 74 73
8 50 51 56 55 75 76 81 80
8 51 52 57 56 76 77 82 81
8 52 53 58 57 77 78 83 82
8 53 54 59 58 78 79 84 83
8 55 56 61 60 80 81 86 85
8 56 57 62 61 81 82 87 86
8 57 58 63 62 82 83 88 87
8 58 59 64 63 83 84 89 88
8 60 61 66 65 85 86 91 90
8 61 62 67 66 86 87 92 91
8 62 63 68 67 87 88 93 92
8 63 64 69 68 88 89 94 93
8 65 66 71 70 90 91 96 95
8 66 67 72 71 91 92 97 96
8 67 68 73 72 92 93 98 97
8 68 69 74 73 93 94 99 98
8 75 76 81 80 100 101 106 105
8 76 77 82 81 101 102 107 106
8 77 78 83 82 102 103 108 107
8 78 79 84 83 103 104 109 108
8 80 81 86 85 105 106 111 110
8 81 82 87 86 106 107 112 111
8 82 83 88 87 107 108 113 112
8 83 84 89 88 108 109 114 113
8 85 86 91 90 110 111 116 115
8 86 87 92 91 111 112 117 116
8 87 88 93 92 112 113 118 117
8 88 89 94 93 113 114 119 118
8 90 91 96 95 115 116 121 120
8 91 92 97 96 116 117 122 121
8 92 93 98 97 117 118 123 122
8 93 94 99 98 118 119 124 123
8 125 126 131 130 150 151 156 155
8 126 127 132 131 151 152 157 156
8 127 128 133 132 152 153 158 157
8 128 129 134 133 153 154 159 158
8 130 131 136 135 155 156 161 160
8 131 132 137 136 156 157 162 161
8 132 133 138 137 157 158 163 162
8 133 134 139 138 158 159 164 163
8 135 136 141 140 160 161 166 165
8 136 137 142 141 161 162 167 166
8 137 138 143 142 162 163 168 167
8 138 139 144 143 163 164 169 168
8 140 141 146 145 165 166 171 170
8 141 142 147 146 166 167 172 171
8 142 143 148 147 167 168 173 172
8 143 144 149 148 168 169 174 173
8 150 151 156 155 175 176 181 180
8 151 152 157 156 176 177 182 181
8 152 153 158 157 177 178 183 182
8 153 154 159 158 178 179 184 183
8 155 156 161 160 180 181 186 185
8 156 157 162 161 181 182 187 186
8 157 158 163 162 182 183 188 187
8 158 159 164 163 183 184 189 188
8 160 161 166 165 185 186 191 190
8 161 162 167 166 186 187 192 191
8 162 163 168 167 187 188 193 192
8 163 164 169 168 188 189 194 193
8 165 166 171 170 190 191 196 195
8 166 167 172 171 191 192 197 196
8 167 168 173 172 192 193 198 197
8 168 169 174 173 193 194 199 198
8 175 176 181 180 200 201 206 205
8 176 177 182 181 201 202 207 206
8 177 178 183 182 202 203 208 207
8 178 179 184 183 203 204 209 208
8 180 181 186 185 205 206 211 210
8 181 182 187 186 206 207 212 211
8 182 183 188 187 207 208 213 212
8 183 184 189 188 208 209 214 213
8 185 186 191 190 210 211 216 215
8 186 187 192 191 211 212 217 216
8 187 188 193 192 212 213 218 217
8 188 189 194 193 213 214 219 218
8 190 191 196 195 215 216 221 220
8 191 192 197 196 216 217 222 221
8 192 193 198 197 217 218 223 222
8 193 194 199 198 218 219 224 223
8 200 201 206 205 225 226 231 230
8 201 202 207 206 226 227 232 231
8 202 203 208 207 227 228 233 232
8 203 204 209 208 228 229 234 233
8 205 206 211 210 230 231 236 235
8 206 207 212 211 231 232 237 236
8 207 208 213 212 232 233 238 237
8 208 209 214 213 233 234 239 238
8 210 211 216 215 235 236 241 240
8 211 212 217 216 236 237 242 241
8 212 213 218 217 237 238 243 242
8 213 214 219 218 238 239 244 243
8 215 216 221 220 240 241 246 245
8 216 217 222 221 241 242 247 246
8 217 218 223 222 242 243 248 247
8 218 219 224 223 243 244 249 248
CELL_TYPES 128
12
12
12
12
12
12
12
12
12
12
12
12
12
12
12
12
12
12
12
12
12
12
12
12
12
12
12
12
12
12
12
12
12
12
12
12
12
12
12
12
12
12
12
12
12
12
12
12
12
12
12
12
12
12
12
12
12
12
12
12
12
12
12
12
12
12
12
12
12
12
12
12
12
12
12
12
12
12
12
12
12
12
12
12
12
12
12
12
12
12
12
12
12
12
12
12
12
12
12
12
12
12
12
12
12
12
12
12
12
12
12
12
12
12
12
12
12
12
12
12
12
12
12
12
12
12
12
12
POINT_DATA 250
VECTORS displacement float
0.000000000000e+00 0.000000000000e+00 0.000000000000e+00
0.000000000000e+00 0.000000000000e+00 0.000000000000e+00
0.000000000000e+00 0.000000000000e+00 0.000000000000e+00
0.000000000000e+00 0.000000000000e+00 0.000000000000e+00
0.000000000000e+00 0.000000000000e+00 0.000000000000e+00
0.000000000000e+00 0.000000000000e+00 0.000000000000e+00
0.000000000000e+00 0.000000000000e+00 0.000000000000e+00
0.000000000000e+00 0.000000000000e+00 0.000000000000e+00
0.000000000000e+00 0.000000000000e+00 0.000000000000e+00
0.000000000000e+00 0.000000000000e+00 0.000000000000e+00
0.000000000000e+00 0.000000000000e+00 0.000000000000e+00
0.000000000000e+00 0.000000000000e+00 0.000000000000e+00
0.000000000000e+00 0.000000000000e+00 0.000000000000e+00
0.000000000000e+00 0.000000000000e+00 0.000000000000e+00
0.000000000000e+00 0.000000000000e+00 0.000000000000e+00
0.000000000000e+00 0.000000000000e+00 0.000000000000e+00
0.000000000000e+00 0.000000000000e+00 0.000000000000e+00
0.000000000000e+00 0.000000000000e+00 0.000000000000e+00
0.000000000000e+00 0.000000000000e+00 0.000000000000e+00
0.000000000000e+00 0.000000000000e+00 0.000000000000e+00
0.000000000000e+00 0.000000000000e+00 0.000000000000e+00
0.000000000000e+00 0.000000000000e+00 0.000000000000e+00
0.000000000000e+00 0.000000000000e+00 0.000000000000e+00
0.000000000000e+00 0.000000000000e+00 0.000000000000e+00
0.000000000000e+00 0.000000000000e+00 0.000000000000e+00
0.000000000000e+00 0.000000000000e+00 0.000000000000e+00
0.000000000000e+00 0.000000000000e+00 0.000000000000e+00
0.000000000000e+00 0.000000000000e+00 0.000000000000e+00
0.000000000000e+00 0.000000000000e+00 0.000000000000e+00
0.000000000000e+00 0.000000000000e+00 0.000000000000e+00
0.000000000000e+00 0.000000000000e+00 0.000000000000e+00
0.000000000000e+00 0.000000000000e+00 0.000000000000e+00
0.000000000000e+00 0.000000000000e+00 0.000000000000e+00
0.000000000000e+00 0.000000000000e+00 0.000000000000e+00
0.000000000000e+00 0.000000000000e+00 0.000000000000e+00
0.000000000000e+00 0.000000000000e+00 0.000000000000e+00
0.000000000000e+00 0.000000000000e+00 0.000000000000e+00
0.000000000000e+00 0.000000000000e+00 0.000000000000e+00
0.000000000000e+00 0.000000000000e+00 0.000000000000e+00
0.000000000000e+00 0.000000000000e+00 0.000000000000e+00
0.000000000000e+00 0.000000000000e+00 0.000000000000e+00
0.000000000000e+00 0.000000000000e+00 0.000000000000e+00
0.000000000000e+00 0.000000000000e+00 0.000000000000e+00
0.000000000000e+00 0.000000000000e+00 0.000000000000e+00
0.000000000000e+00 0.000000000000e+00 0.000000000000e+00
0.000000000000e+00 0.000000000000e+00 0.000000000000e+00
0.000000000000e+00 0.000000000000e+00 0.000000000000e+00
0.000000000000e+00 0.000000000000e+00 0.000000000000e+00
0.000000000000e+00 0.000000000000e+00 0.000000000000e+00
0.000000000000e+00 0.000000000000e+00 0.000000000000e+00
0.000000000000e+00 0.000000000000e+00 0.000000000000e+00
0.000000000000e+00 0.000000000000e+00 0.000000000000e+00
0.000000000000e+00 0.000000000000e+00 0.000000000000e+00
0.000000000000e+00 0.000000000000e+00 0.000000000000e+00
0.000000000000e+00 0.000000000000e+00 0.000000000000e+00
0.000000000000e+00 0.000000000000e+00 0.000000000000e+00
0.000000000000e+00 0.000000000000e+00 0.000000000000e+00
0.000000000000e+00 0.000000000000e+00 0.000000000000e+00
0.000000000000e+00 0.000000000000e+00 0.000000000000e+00
0.000000000000e+00 0.000000000000e+00 0.000000000000e+00
0.000000000000e+00 0.000000000000e+00 0.000000000000e+00
0.000000000000e+00 0.000000000000e+00 0.000000000000e+00
0.000000000000e+00 0.000000000000e+00 0.000000000000e+00
0.000000000000e+00 0.000000000000e+00 0.000000000000e+00
0.000000000000e+00 0.000000000000e+00 0.000000000000e+00
0.000000000000e+00 0.000000000000e+00 0.000000000000e+00
0.000000000000e+00 0.000000000000e+00 0.000000000000e+00
0.000000000000e+00 0.000000000000e+00 0.000000000000e+00
0.000000000000e+00 0.000000000000e+00 0.000000000000e+00
0.000000000000e+00 0.000000000000e+00 0.000000000000e+00
0.000000000000e+00 0.000000000000e+00 0.000000000000e+00
0.000000000000e+00 0.000000000000e+00 0.000000000000e+00
0.000000000000e+00 0.000000000000e+00 0.000000000000e+00
0.000000000000e+00 0.000000000000e+00 0.000000000000e+00
0.000000000000e+00 0.000000000000e+00 0.000000000000e+00
0.000000000000e+00 0.000000000000e+00 0.000000000000e+00
0.000000000000e+00 0.000000000000e+00 0.000000000000e+00
0.000000000000e+00 0.000000000000e+00 0.000000000000e+00
0.000000000000e+00 0.000000000000e+00 0.000000000000e+00
0.000000000000e+00 0.000000000000e+00 0.000000000000e+00
0.000000000000e+00 0.000000000000e+00 0.000000000000e+00
0.000000000000e+00 0.000000000000e+00 0.000000000000e+00
0.000000000000e+00 0.000000000000e+00 0.000000000000e+00
0.000000000000e+00 0.000000000000e+00 0.000000000000e+00
0.000000000000e+00 0.000000000000e+00 0.000000000000e+00
0.000000000000e+00 0.000000000000e+00 0.000000000000e+00
0.000000000000e+00 0.000000000000e+00 0.000000000000e+00
0.000000000000e+00 0.000000000000e+00 0.000000000000e+00
0.000000000000e+00 0.000000000000e+00 0.000000000000e+00
0.000000000000e+00 0.000000000000e+00 0.000000000000e+00
0.000000000000e+00 0.000000000000e+00 0.000000000000e+00
0.000000000000e+00 0.000000000000e+00 0.000000000000e+00
0.000000000000e+00 0.000000000000e+00 0.000000000000e+00
0.000000000000e+00 0.000000000000e+00 0.000000000000e+00
0.000000000000e+00 0.000000000000e+00 0.000000000000e+00
0.000000000000e+00 0.000000000000e+00 0.000000000000e+00
0.000000000000e+00 0.000000000000e+00 0.000000000000e+00
0.000000000000e+00 0.000000000000e+00 0.000000000000e+00
0.000000000000e+00 0.000000000000e+00 0.000000000000e+00
0.000000000000e+00 0.000000000000e+00 0.000000000000e+00
0.000000000000e+00 0.000000000000e+00 0.000000000000e+00
0.000000000000e+00 0.000000000000e+00 0.000000000000e+00
0.000000000000e+00 0.000000000000e+00 0.000000000000e+00
0.000000000000e+00 0.000000000000e+00 0.000000000000e+00
0.000000000000e+00 0.000000000000e+00 0.000000000000e+00
0.000000000000e+00 0.000000000000e+00 0.000000000000e+00
0.000000000000e+00 0.000000000000e+00 0.000000000000e+00
0.000000000000e+00 0.000000000000e+00 0.000000000000e+00
0.000000000000e+00 0.000000000000e+00 0.000000000000e+00
0.000000000000e+00 0.000000000000e+00 0.000000000000e+00
0.000000000000e+00 0.000000000000e+00 0.000000000000e+00
0.000000000000e+00 0.000000000000e+00 0.000000000000e+00
0.000000000000e+00 0.000000000000e+00 0.000000000000e+00
0.000000000000e+00 0.000000000000e+00 0.000000000000e+00
0.000000000000e+00 0.000000000000e+00 0.000000000000e+00
0.000000000000e+00 0.000000000000e+00 0.000000000000e+00
0.000000000000e+00 0.000000000000e+00 0.000000000000e+00
0.000000000000e+00 0.000000000000e+00 0.000000000000e+00
0.000000000000e+00 0.000000000000e+00 0.000000000000e+00
0.000000000000e+00 0.000000000000e+00 0.000000000000e+00
0.000000000000e+00 0.000000000000e+00 0.000000000000e+00
0.000000000000e+00 0.000000000000e+00 0.000000000000e+00
0.000000000000e+00 0.000000000000e+00 0.000000000000e+00
0.000000000000e+00 0.000000000000e+00 0.000000000000e+00
0.000000000000e+00 0.000000000000e+00 0.000000000000e+00
-1.771478220037e-06 -1.771478277869e-06 -1.505002094245e-02
-9.039127985832e-07 -1.766427172002e-06 -1.505046610674e-02
2.535386746285e-14 -1.745589102656e-06 -1.505060455541e-02
9.039128492857e-07 -1.766427170451e-06 -1.505046610674e-02
1.771478270735e-06 -1.771478274764e-06 -1.505002094245e-02
-1.766427115723e-06 -9.039128564147e-07 -1.505046610674e-02
-9.019471993327e-07 -9.019472556271e-07 -1.505090905840e-02
2.458129428093e-14 -8.895848218663e-07 -1.505104647849e-02
9.019472484890e-07 -9.019472540708e-07 -1.505090905840e-02
1.766427164870e-06 -9.039128533157e-07 -1.505046610674e-02
-1.745589047904e-06 -3.248331260189e-14 -1.505060455541e-02
-8.895847671120e-07 -3.171518613947e-14 -1.505104647849e-02
2.381701725858e-14 -3.093702558967e-14 -1.505118409711e-02
8.895848147358e-07 -3.015656260969e-14 -1.505104647849e-02
1.745589095517e-06 -2.938878308438e-14 -1.505060455541e-02
-1.766427117234e-06 9.039127914493e-07 -1.505046610674e-02
-9.019472008545e-07 9.019471921972e-07 -1.505090905840e-02
2.305666467504e-14 8.895847599871e-07 -1.505104647849e-02
9.019472469591e-07 9.019471937488e-07 -1.505090905840e-02
1.766427163332e-06 9.039127945328e-07 -1.505046610674e-02
-1.771478223077e-06 1.771478212899e-06 -1.505002094245e-02
-9.039128016348e-07 1.766427108578e-06 -1.505046610674e-02
2.228738685045e-14 1.745589040775e-06 -1.505060455541e-02
9.039128462182e-07 1.766427110118e-06 -1.505046610674e-02
1.771478267666e-06 1.771478215979e-06 -1.505002094245e-02
-1.458208239938e-06 -1.458208297749e-06 -1.505141855591e-02
-7.472752373122e-07 -1.454106462923e-06 -1.505188908890e-02
2.534480184411e-14 -1.433700347192e-06 -1.505203372578e-02
7.472752879972e-07 -1.454106461374e-06 -1.505188908890e-02
1.458208290612e-06 -1.458208294648e-06 -1.505141855591e-02
-1.454106406656e-06 -7.472752951265e-07 -1.505188908890e-02
-7.460241470653e-07 -7.460242033361e-07 -1.505235984128e-02
2.456974007669e-14 -7.339906393367e-07 -1.505250375509e-02
7.460241962031e-07 -7.460242017862e-07 -1.505235984128e-02
1.454106455788e-06 -7.472752920310e-07 -1.505188908890e-02
-1.433700292464e-06 -3.246646704899e-14 -1.505203372578e-02
-7.339905846060e-07 -3.169961468296e-14 -1.505250375509e-02
2.380330590859e-14 -3.092746140482e-14 -1.505264699243e-02
7.339906322040e-07 -3.015287071213e-14 -1.505250375509e-02
1.433700340051e-06 -2.938115598419e-14 -1.505203372578e-02
-1.454106408186e-06 7.472752301930e-07 -1.505188908890e-02
-7.460241485979e-07 7.460241399392e-07 -1.505235984128e-02
2.303503294421e-14 7.339905774813e-07 -1.505250375509e-02
7.460241946669e-07 7.460241414804e-07 -1.505235984128e-02
1.454106454252e-06 7.472752332649e-07 -1.505188908890e-02
-1.458208242995e-06 1.458208232815e-06 -1.505141855591e-02
-7.472752403815e-07 1.454106399523e-06 -1.505188908890e-02
2.227078481075e-14 1.433700285337e-06 -1.505203372578e-02
7.472752849200e-07 1.454106401069e-06 -1.505188908890e-02
1.458208287534e-06 1.458208235878e-06 -1.505141855591e-02
-1.066863100969e-06 -1.066863158759e-06 -1.505239767268e-02
-5.790591168072e-07 -1.055537913828e-06 -1.505289990149e-02
2.533188587286e-14 -1.030512134138e-06 -1.505305859939e-02
5.790591674696e-07 -1.055537912280e-06 -1.505289990149e-02
1.066863151625e-06 -1.066863155661e-06 -1.505239767268e-02
-1.055537857589e-06 -5.790591745955e-07 -1.505289990149e-02
-5.785882012732e-07 -5.785882575149e-07 -1.505340659847e-02
2.455812410063e-14 -5.659693309136e-07 -1.505356654644e-02
5.785882503869e-07 -5.785882559728e-07 -1.505340659847e-02
1.055537906688e-06 -5.790591715061e-07 -1.505289990149e-02
-1.030512079440e-06 -3.245373285518e-14 -1.505305859939e-02
-5.659692762134e-07 -3.168516655149e-14 -1.505356654644e-02
2.378640701308e-14 -3.091386571577e-14 -1.505372669637e-02
5.659693237798e-07 -3.014457209992e-14 -1.505356654644e-02
1.030512126996e-06 -2.937498156377e-14 -1.505305859939e-02
-1.055537859126e-06 5.790591096930e-07 -1.505289990149e-02
-5.785882028119e-07 5.785881941457e-07 -1.505340659847e-02
2.301565637911e-14 5.659692690844e-07 -1.505356654644e-02
5.785882488423e-07 5.785881956865e-07 -1.505340659847e-02
1.055537905149e-06 5.790591127580e-07 -1.505289990149e-02
-1.066863104044e-06 1.066863093851e-06 -1.505239767268e-02
-5.790591198870e-07 1.055537850456e-06 -1.505289990149e-02
2.224889405282e-14 1.030512072305e-06 -1.505305859939e-02
5.790591643813e-07 1.055537851992e-06 -1.505289990149e-02
1.066863148531e-06 1.066863096918e-06 -1.505239767268e-02
-6.767835175306e-07 -6.767835752950e-07 -1.505297830489e-02
-3.969223495098e-07 -6.578245224055e-07 -1.505350167898e-02
2.531336401579e-14 -6.280444742701e-07 -1.505368709657e-02
3.969224001408e-07 -6.578245208678e-07 -1.505350167898e-02
6.767835681606e-07 -6.767835721986e-07 -1.505297830489e-02
-6.578244661965e-07 -3.969224072695e-07 -1.505350167898e-02
-3.964277890978e-07 -3.964278453084e-07 -1.505403320149e-02
2.454206058820e-14 -3.822670644857e-07 -1.505422326040e-02
3.964278381773e-07 -3.964278437694e-07 -1.505403320149e-02
6.578245152705e-07 -3.969224041861e-07 -1.505350167898e-02
-6.280444196075e-07 -3.244056374059e-14 -1.505368709657e-02
-3.822670098182e-07 -3.167143262583e-14 -1.505422326040e-02
2.376658425790e-14 -3.090281802342e-14 -1.505441637208e-02
3.822670573471e-07 -3.013774186681e-14 -1.505422326040e-02
6.280444671294e-07 -2.936694814645e-14 -1.505368709657e-02
-6.578244677418e-07 3.969223423869e-07 -1.505350167898e-02
-3.964277906428e-07 3.964277819642e-07 -1.505403320149e-02
2.299344236598e-14 3.822670026767e-07 -1.505422326040e-02
3.964278366274e-07 3.964277834999e-07 -1.505403320149e-02
6.578245137264e-07 3.969223454562e-07 -1.505350167898e-02
-6.767835206216e-07 6.767835104047e-07 -1.505297830489e-02
-3.969223525987e-07 6.578244590620e-07 -1.505350167898e-02
2.222735633659e-14 6.280444124573e-07 -1.505368709657e-02
3.969223970467e-07 6.578244605935e-07 -1.505350167898e-02
6.767835650593e-07 6.767835134781e-07 -1.505297830489e-02
-3.386562127735e-07 -3.386562705129e-07 -1.505320166382e-02
-2.022838491177e-07 -3.181263137724e-07 -1.505373549487e-02
2.529739470695e-14 -2.875542421053e-07 -1.505393997099e-02
2.022838997084e-07 -3.181263122440e-07 -1.505373549487e-02
3.386562633598e-07 -3.386562674170e-07 -1.505320166382e-02
-3.181262575977e-07 -2.022839068455e-07 -1.505373549487e-02
-1.986393810284e-07 -1.986394372117e-07 -1.505428124231e-02
2.452606359255e-14 -1.818060278623e-07 -1.505449312554e-02
1.986394300736e-07 -1.986394356827e-07 -1.505428124231e-02
3.181263066341e-07 -2.022839037663e-07 -1.505373549487e-02
-2.875541874700e-07 -3.242361773756e-14 -1.505393997099e-02
-1.818059732287e-07 -3.165687825381e-14 -1.505449312554e-02
2.374345558171e-14 -3.089794964909e-14 -1.505470933858e-02
1.818060207158e-07 -3.012973128350e-14 -1.505449312554e-02
2.875542349629e-07 -2.935894469078e-14 -1.505393997099e-02
-3.181262591558e-07 2.022838419888e-07 -1.505373549487e-02
-1.986393825878e-07 1.986393738880e-07 -1.505428124231e-02
2.296976349201e-14 1.818059660708e-07 -1.505449312554e-02
1.986394285255e-07 1.986393754230e-07 -1.505428124231e-02
3.181263050894e-07 2.022838450497e-07 -1.505373549487e-02
-3.386562158772e-07 3.386562056336e-07 -1.505320166382e-02
-2.022838522149e-07 3.181262504536e-07 -1.505373549487e-02
2.220177463101e-14 2.875541803166e-07 -1.505393997099e-02
2.022838966132e-07 3.181262519798e-07 -1.505373549487e-02
3.386562602742e-07 3.386562087114e-07 -1.505320166382e-02
SCALARS displacement_magnitude float 1
LOOKUP_TABLE default
0.000000000000e+00
0.000000000000e+00
0.000000000000e+00
0.000000000000e+00
0.000000000000e+00
0.000000000000e+00
0.000000000000e+00
0.000000000000e+00
0.000000000000e+00
0.000000000000e+00
0.000000000000e+00
0.000000000000e+00
0.000000000000e+00
0.000000000000e+00
0.000000000000e+00
0.000000000000e+00
0.000000000000e+00
0.000000000000e+00
0.000000000000e+00
0.000000000000e+00
0.000000000000e+00
0.000000000000e+00
0.000000000000e+00
0.000000000000e+00
0.000000000000e+00
0.000000000000e+00
0.000000000000e+00
0.000000000000e+00
0.000000000000e+00
0.000000000000e+00
0.000000000000e+00
0.000000000000e+00
0.000000000000e+00
0.000000000000e+00
0.000000000000e+00
0.000000000000e+00
0.000000000000e+00
0.000000000000e+00
0.000000000000e+00
0.000000000000e+00
0.000000000000e+00
0.000000000000e+00
0.000000000000e+00
0.000000000000e+00
0.000000000000e+00
0.000000000000e+00
0.000000000000e+00
0.000000000000e+00
0.000000000000e+00
0.000000000000e+00
0.000000000000e+00
0.000000000000e+00
0.000000000000e+00
0.000000000000e+00
0.000000000000e+00
0.000000000000e+00
0.000000000000e+00
0.000000000000e+00
0.000000000000e+00
0.000000000000e+00
0.000000000000e+00
0.000000000000e+00
0.000000000000e+00
0.000000000000e+00
0.000000000000e+00
0.000000000000e+00
0.000000000000e+00
0.000000000000e+00
0.000000000000e+00
0.000000000000e+00
0.000000000000e+00
0.000000000000e+00
0.000000000000e+00
0.000000000000e+00
0.000000000000e+00
0.000000000000e+00
0.000000000000e+00
0.000000000000e+00
0.000000000000e+00
0.000000000000e+00
0.000000000000e+00
0.000000000000e+00
0.000000000000e+00
0.000000000000e+00
0.000000000000e+00
0.000000000000e+00
0.000000000000e+00
0.000000000000e+00
0.000000000000e+00
0.000000000000e+00
0.000000000000e+00
0.000000000000e+00
0.000000000000e+00
0.000000000000e+00
0.000000000000e+00
0.000000000000e+00
0.000000000000e+00
0.000000000000e+00
0.000000000000e+00
0.000000000000e+00
0.000000000000e+00
0.000000000000e+00
0.000000000000e+00
0.000000000000e+00
0.000000000000e+00
0.000000000000e+00
0.000000000000e+00
0.000000000000e+00
0.000000000000e+00
0.000000000000e+00
0.000000000000e+00
0.000000000000e+00
0.000000000000e+00
0.000000000000e+00
0.000000000000e+00
0.000000000000e+00
0.000000000000e+00
0.000000000000e+00
0.000000000000e+00
0.000000000000e+00
0.000000000000e+00
0.000000000000e+00
0.000000000000e+00
0.000000000000e+00
0.000000000000e+00
1.505002115096e-02
1.505046623755e-02
1.505060465664e-02
1.505046623755e-02
1.505002115096e-02
1.505046623755e-02
1.505090911246e-02
1.505104650478e-02
1.505090911246e-02
1.505046623755e-02
1.505060465664e-02
1.505104650478e-02
1.505118409711e-02
1.505104650478e-02
1.505060465664e-02
1.505046623755e-02
1.505090911246e-02
1.505104650478e-02
1.505090911246e-02
1.505046623755e-02
1.505002115096e-02
1.505046623755e-02
1.505060465664e-02
1.505046623755e-02
1.505002115096e-02
1.505141869718e-02
1.505188917769e-02
1.505203379406e-02
1.505188917769e-02
1.505141869718e-02
1.505188917769e-02
1.505235987825e-02
1.505250377298e-02
1.505235987825e-02
1.505188917769e-02
1.505203379406e-02
1.505250377298e-02
1.505264699243e-02
1.505250377298e-02
1.505203379406e-02
1.505188917769e-02
1.505235987825e-02
1.505250377298e-02
1.505235987825e-02
1.505188917769e-02
1.505141869718e-02
1.505188917769e-02
1.505203379406e-02
1.505188917769e-02
1.505141869718e-02
1.505239774829e-02
1.505289994963e-02
1.505305863466e-02
1.505289994963e-02
1.505239774829e-02
1.505289994963e-02
1.505340662071e-02
1.505356655708e-02
1.505340662071e-02
1.505289994963e-02
1.505305863466e-02
1.505356655708e-02
1.505372669637e-02
1.505356655708e-02
1.505305863466e-02
1.505289994963e-02
1.505340662071e-02
1.505356655708e-02
1.505340662071e-02
1.505289994963e-02
1.505239774829e-02
1.505289994963e-02
1.505305863466e-02
1.505289994963e-02
1.505239774829e-02
1.505297833532e-02
1.505350169858e-02
1.505368710967e-02
1.505350169858e-02
1.505297833532e-02
1.505350169858e-02
1.505403321193e-02
1.505422326526e-02
1.505403321193e-02
1.505350169858e-02
1.505368710967e-02
1.505422326526e-02
1.505441637208e-02
1.505422326526e-02
1.505368710967e-02
1.505350169858e-02
1.505403321193e-02
1.505422326526e-02
1.505403321193e-02
1.505350169858e-02
1.505297833532e-02
1.505350169858e-02
1.505368710967e-02
1.505350169858e-02
1.505297833532e-02
1.505320167143e-02
1.505373549959e-02
1.505393997374e-02
1.505373549959e-02
1.505320167143e-02
1.505373549959e-02
1.505428124494e-02
1.505449312663e-02
1.505428124494e-02
1.505373549959e-02
1.505393997374e-02
1.505449312663e-02
1.505470933858e-02
1.505449312663e-02
1.505393997374e-02
1.505373549959e-02
1.505428124494e-02
1.505449312663e-02
1.505428124494e-02
1.505373549959e-02
1.505320167143e-02
1.505373549959e-02
1.505393997374e-02
1.505373549959e-02
1.505320167143e-02
CELL_DATA 128
SCALARS displacement_magnitude float 1
LOOKUP_TABLE default
0.000000000000e+00
0.000000000000e+00
0.000000000000e+00
0.000000000000e+00
0.000000000000e+00
0.000000000000e+00
0.000000000000e+00
0.000000000000e+00
0.000000000000e+00
0.000000000000e+00
0.000000000000e+00
0.000000000000e+00
0.000000000000e+00
0.000000000000e+00
0.000000000000e+00
0.000000000000e+00
0.000000000000e+00
0.000000000000e+00
0.000000000000e+00
0.000000000000e+00
0.000000000000e+00
0.000000000000e+00
0.000000000000e+00
0.000000000000e+00
0.000000000000e+00
0.000000000000e+00
0.000000000000e+00
0.000000000000e+00
0.000000000000e+00
0.000000000000e+00
0.000000000000e+00
0.000000000000e+00
0.000000000000e+00
0.000000000000e+00
0.000000000000e+00
0.000000000000e+00
0.000000000000e+00
0.000000000000e+00
0.000000000000e+00
0.000000000000e+00
0.000000000000e+00
0.000000000000e+00
0.000000000000e+00
0.000000000000e+00
0.000000000000e+00
0.000000000000e+00
0.000000000000e+00
0.000000000000e+00
0.000000000000e+00
0.000000000000e+00
0.000000000000e+00
0.000000000000e+00
0.000000000000e+00
0.000000000000e+00
0.000000000000e+00
0.000000000000e+00
0.000000000000e+00
0.000000000000e+00
0.000000000000e+00
0.000000000000e+00
0.000000000000e+00
0.000000000000e+00
0.000000000000e+00
0.000000000000e+00
1.505117745867e-02
1.505147664180e-02
1.505147664180e-02
1.505117745866e-02
1.505147664180e-02
1.505177507947e-02
1.505177507947e-02
1.505147664180e-02
1.505147664180e-02
1.505177507947e-02
1.505177507947e-02
1.505147664180e-02
1.505117745867e-02
1.505147664180e-02
1.505147664180e-02
1.505117745866e-02
1.505239514989e-02
1.505271479813e-02
1.505271479813e-02
1.505239514989e-02
1.505271479813e-02
1.505303510599e-02
1.505303510599e-02
1.505271479813e-02
1.505271479813e-02
1.505303510599e-02
1.505303510599e-02
1.505271479813e-02
1.505239514989e-02
1.505271479813e-02
1.505271479813e-02
1.505239514989e-02
1.505320240159e-02
1.505354713094e-02
1.505354713094e-02
1.505320240159e-02
1.505354713094e-02
1.505389531822e-02
1.505389531822e-02
1.505354713094e-02
1.505354713094e-02
1.505389531822e-02
1.505389531822e-02
1.505354713094e-02
1.505320240159e-02
1.505354713094e-02
1.505354713094e-02
1.505320240159e-02
1.505362110750e-02
1.505398689129e-02
1.505398689129e-02
1.505362110750e-02
1.505398689129e-02
1.505435911891e-02
1.505435911891e-02
1.505398689129e-02
1.505398689129e-02
1.505435911891e-02
1.505435911891e-02
1.505398689129e-02
1.505362110750e-02
1.505398689129e-02
1.505398689129e-02
1.505362110750e-02
SCALARS engineering_strain_norm float 1
LOOKUP_TABLE default
0.000000000000e+00
0.000000000000e+00
0.000000000000e+00
0.000000000000e+00
0.000000000000e+00
0.000000000000e+00
0.000000000000e+00
0.000000000000e+00
0.000000000000e+00
0.000000000000e+00
0.000000000000e+00
0.000000000000e+00
0.000000000000e+00
0.000000000000e+00
0.000000000000e+00
0.000000000000e+00
0.000000000000e+00
0.000000000000e+00
0.000000000000e+00
0.000000000000e+00
0.000000000000e+00
0.000000000000e+00
0.000000000000e+00
0.000000000000e+00
0.000000000000e+00
0.000000000000e+00
0.000000000000e+00
0.000000000000e+00
0.000000000000e+00
0.000000000000e+00
0.000000000000e+00
0.000000000000e+00
0.000000000000e+00
0.000000000000e+00
0.000000000000e+00
0.000000000000e+00
0.000000000000e+00
0.000000000000e+00
0.000000000000e+00
0.000000000000e+00
0.000000000000e+00
0.000000000000e+00
0.000000000000e+00
0.000000000000e+00
0.000000000000e+00
0.000000000000e+00
0.000000000000e+00
0.000000000000e+00
0.000000000000e+00
0.000000000000e+00
0.000000000000e+00
0.000000000000e+00
0.000000000000e+00
0.000000000000e+00
0.000000000000e+00
0.000000000000e+00
0.000000000000e+00
0.000000000000e+00
0.000000000000e+00
0.000000000000e+00
0.000000000000e+00
0.000000000000e+00
0.000000000000e+00
0.000000000000e+00
2.364554451426e-05
2.394866112760e-05
2.394866112761e-05
2.364554451416e-05
2.394866112773e-05
2.425147253277e-05
2.425147253275e-05
2.394866112762e-05
2.394866112773e-05
2.425147253277e-05
2.425147253271e-05
2.394866112758e-05
2.364554451420e-05
2.394866112765e-05
2.394866112765e-05
2.364554451411e-05
1.697563053506e-05
1.745317997025e-05
1.745317997023e-05
1.697563053486e-05
1.745317997032e-05
1.796056874520e-05
1.796056874515e-05
1.745317997015e-05
1.745317997031e-05
1.796056874519e-05
1.796056874516e-05
1.745317997017e-05
1.697563053493e-05
1.745317997021e-05
1.745317997021e-05
1.697563053487e-05
1.021368544582e-05
1.082652585044e-05
1.082652585040e-05
1.021368544560e-05
1.082652585052e-05
1.148480969786e-05
1.148480969781e-05
1.082652585033e-05
1.082652585054e-05
1.148480969784e-05
1.148480969780e-05
1.082652585039e-05
1.021368544575e-05
1.082652585041e-05
1.082652585034e-05
1.021368544564e-05
4.266646956681e-06
4.780835897524e-06
4.780835897515e-06
4.266646956519e-06
4.780835897598e-06
5.297048627405e-06
5.297048627356e-06
4.780835897439e-06
4.780835897516e-06
5.297048627328e-06
5.297048627342e-06
4.780835897505e-06
4.266646956617e-06
4.780835897524e-06
4.780835897454e-06
4.266646956576e-06
SCALARS von_mises float 1
LOOKUP_TABLE default
0.000000000000e+00
0.000000000000e+00
0.000000000000e+00
0.000000000000e+00
0.000000000000e+00
0.000000000000e+00
0.000000000000e+00
0.000000000000e+00
0.000000000000e+00
0.000000000000e+00
0.000000000000e+00
0.000000000000e+00
0.000000000000e+00
0.000000000000e+00
0.000000000000e+00
0.000000000000e+00
0.000000000000e+00
0.000000000000e+00
0.000000000000e+00
0.000000000000e+00
0.000000000000e+00
0.000000000000e+00
0.000000000000e+00
0.000000000000e+00
0.000000000000e+00
0.000000000000e+00
0.000000000000e+00
0.000000000000e+00
0.000000000000e+00
0.000000000000e+00
0.000000000000e+00
0.000000000000e+00
0.000000000000e+00
0.000000000000e+00
0.000000000000e+00
0.000000000000e+00
0.000000000000e+00
0.000000000000e+00
0.000000000000e+00
0.000000000000e+00
0.000000000000e+00
0.000000000000e+00
0.000000000000e+00
0.000000000000e+00
0.000000000000e+00
0.000000000000e+00
0.000000000000e+00
0.000000000000e+00
0.000000000000e+00
0.000000000000e+00
0.000000000000e+00
0.000000000000e+00
0.000000000000e+00
0.000000000000e+00
0.000000000000e+00
0.000000000000e+00
0.000000000000e+00
0.000000000000e+00
0.000000000000e+00
0.000000000000e+00
0.000000000000e+00
0.000000000000e+00
0.000000000000e+00
0.000000000000e+00
2.169508366474e+00
2.198768070489e+00
2.198768070490e+00
2.169508366465e+00
2.198768070501e+00
2.227664033285e+00
2.227664033282e+00
2.198768070490e+00
2.198768070500e+00
2.227664033284e+00
2.227664033279e+00
2.198768070486e+00
2.169508366468e+00
2.198768070493e+00
2.198768070492e+00
2.169508366460e+00
1.564746574619e+00
1.611866924654e+00
1.611866924652e+00
1.564746574600e+00
1.611866924660e+00
1.661809788788e+00
1.661809788783e+00
1.611866924644e+00
1.611866924659e+00
1.661809788787e+00
1.661809788784e+00
1.611866924646e+00
1.564746574607e+00
1.611866924649e+00
1.611866924649e+00
1.564746574601e+00
9.454147051269e-01
1.007690549271e+00
1.007690549267e+00
9.454147051077e-01
1.007690549278e+00
1.073928408122e+00
1.073928408117e+00
1.007690549260e+00
1.007690549280e+00
1.073928408120e+00
1.073928408116e+00
1.007690549266e+00
9.454147051207e-01
1.007690549268e+00
1.007690549261e+00
9.454147051109e-01
4.008799514213e-01
4.500313818362e-01
4.500313818352e-01
4.008799514060e-01
4.500313818432e-01
4.982160411129e-01
4.982160411081e-01
4.500313818282e-01
4.500313818353e-01
4.982160411053e-01
4.982160411068e-01
4.500313818345e-01
4.008799514152e-01
4.500313818362e-01
4.500313818297e-01
4.008799514114e-01
SCALARS sdf_gap float 1
LOOKUP_TABLE default
0.000000000000e+00
0.000000000000e+00
0.000000000000e+00
0.000000000000e+00
0.000000000000e+00
0.000000000000e+00
0.000000000000e+00
0.000000000000e+00
0.000000000000e+00
0.000000000000e+00
0.000000000000e+00
0.000000000000e+00
0.000000000000e+00
0.000000000000e+00
0.000000000000e+00
0.000000000000e+00
0.000000000000e+00
0.000000000000e+00
0.000000000000e+00
0.000000000000e+00
0.000000000000e+00
0.000000000000e+00
0.000000000000e+00
0.000000000000e+00
0.000000000000e+00
0.000000000000e+00
0.000000000000e+00
0.000000000000e+00
0.000000000000e+00
0.000000000000e+00
0.000000000000e+00
0.000000000000e+00
0.000000000000e+00
0.000000000000e+00
0.000000000000e+00
0.000000000000e+00
0.000000000000e+00
0.000000000000e+00
0.000000000000e+00
0.000000000000e+00
0.000000000000e+00
0.000000000000e+00
0.000000000000e+00
0.000000000000e+00
0.000000000000e+00
0.000000000000e+00
0.000000000000e+00
0.000000000000e+00
0.000000000000e+00
0.000000000000e+00
0.000000000000e+00
0.000000000000e+00
0.000000000000e+00
0.000000000000e+00
0.000000000000e+00
0.000000000000e+00
0.000000000000e+00
0.000000000000e+00
0.000000000000e+00
0.000000000000e+00
0.000000000000e+00
0.000000000000e+00
0.000000000000e+00
0.000000000000e+00
-5.046555358415e-05
-5.075654976155e-05
-5.075654976151e-05
-5.046555358405e-05
-5.075654976157e-05
-5.104652812124e-05
-5.104652812119e-05
-5.075654976149e-05
-5.075654976159e-05
-5.104652812124e-05
-5.104652812119e-05
-5.075654976151e-05
-5.046555358424e-05
-5.075654976159e-05
-5.075654976154e-05
-5.046555358409e-05
0.000000000000e+00
0.000000000000e+00
0.000000000000e+00
0.000000000000e+00
0.000000000000e+00
0.000000000000e+00
0.000000000000e+00
0.000000000000e+00
0.000000000000e+00
0.000000000000e+00
0.000000000000e+00
0.000000000000e+00
0.000000000000e+00
0.000000000000e+00
0.000000000000e+00
0.000000000000e+00
0.000000000000e+00
0.000000000000e+00
0.000000000000e+00
0.000000000000e+00
0.000000000000e+00
0.000000000000e+00
0.000000000000e+00
0.000000000000e+00
0.000000000000e+00
0.000000000000e+00
0.000000000000e+00
0.000000000000e+00
0.000000000000e+00
0.000000000000e+00
0.000000000000e+00
0.000000000000e+00
0.000000000000e+00
0.000000000000e+00
0.000000000000e+00
0.000000000000e+00
0.000000000000e+00
0.000000000000e+00
0.000000000000e+00
0.000000000000e+00
0.000000000000e+00
0.000000000000e+00
0.000000000000e+00
0.000000000000e+00
0.000000000000e+00
0.000000000000e+00
0.000000000000e+00
0.000000000000e+00
SCALARS contact_pressure float 1
LOOKUP_TABLE default
0.000000000000e+00
0.000000000000e+00
0.000000000000e+00
0.000000000000e+00
0.000000000000e+00
0.000000000000e+00
0.000000000000e+00
0.000000000000e+00
0.000000000000e+00
0.000000000000e+00
0.000000000000e+00
0.000000000000e+00
0.000000000000e+00
0.000000000000e+00
0.000000000000e+00
0.000000000000e+00
0.000000000000e+00
0.000000000000e+00
0.000000000000e+00
0.000000000000e+00
0.000000000000e+00
0.000000000000e+00
0.000000000000e+00
0.000000000000e+00
0.000000000000e+00
0.000000000000e+00
0.000000000000e+00
0.000000000000e+00
0.000000000000e+00
0.000000000000e+00
0.000000000000e+00
0.000000000000e+00
0.000000000000e+00
0.000000000000e+00
0.000000000000e+00
0.000000000000e+00
0.000000000000e+00
0.000000000000e+00
0.000000000000e+00
0.000000000000e+00
0.000000000000e+00
0.000000000000e+00
0.000000000000e+00
0.000000000000e+00
0.000000000000e+00
0.000000000000e+00
0.000000000000e+00
0.000000000000e+00
0.000000000000e+00
0.000000000000e+00
0.000000000000e+00
0.000000000000e+00
0.000000000000e+00
0.000000000000e+00
0.000000000000e+00
0.000000000000e+00
0.000000000000e+00
0.000000000000e+00
0.000000000000e+00
0.000000000000e+00
0.000000000000e+00
0.000000000000e+00
0.000000000000e+00
0.000000000000e+00
2.523277679208e+00
2.537827488077e+00
2.537827488076e+00
2.523277679202e+00
2.537827488078e+00
2.552326406062e+00
2.552326406060e+00
2.537827488075e+00
2.537827488080e+00
2.552326406062e+00
2.552326406060e+00
2.537827488076e+00
2.523277679212e+00
2.537827488080e+00
2.537827488077e+00
2.523277679205e+00
0.000000000000e+00
0.000000000000e+00
0.000000000000e+00
0.000000000000e+00
0.000000000000e+00
0.000000000000e+00
0.000000000000e+00
0.000000000000e+00
0.000000000000e+00
0.000000000000e+00
0.000000000000e+00
0.000000000000e+00
0.000000000000e+00
0.000000000000e+00
0.000000000000e+00
0.000000000000e+00
0.000000000000e+00
0.000000000000e+00
0.000000000000e+00
0.000000000000e+00
0.000000000000e+00
0.000000000000e+00
0.000000000000e+00
0.000000000000e+00
0.000000000000e+00
0.000000000000e+00
0.000000000000e+00
0.000000000000e+00
0.000000000000e+00
0.000000000000e+00
0.000000000000e+00
0.000000000000e+00
0.000000000000e+00
0.000000000000e+00
0.000000000000e+00
0.000000000000e+00
0.000000000000e+00
0.000000000000e+00
0.000000000000e+00
0.000000000000e+00
0.000000000000e+00
0.000000000000e+00
0.000000000000e+00
0.000000000000e+00
0.000000000000e+00
0.000000000000e+00
0.000000000000e+00
0.000000000000e+00
SCALARS active_contact float 1
LOOKUP_TABLE default
0.000000000000e+00
0.000000000000e+00
0.000000000000e+00
0.000000000000e+00
0.000000000000e+00
0.000000000000e+00
0.000000000000e+00
0.000000000000e+00
0.000000000000e+00
0.000000000000e+00
0.000000000000e+00
0.000000000000e+00
0.000000000000e+00
0.000000000000e+00
0.000000000000e+00
0.000000000000e+00
0.000000000000e+00
0.000000000000e+00
0.000000000000e+00
0.000000000000e+00
0.000000000000e+00
0.000000000000e+00
0.000000000000e+00
0.000000000000e+00
0.000000000000e+00
0.000000000000e+00
0.000000000000e+00
0.000000000000e+00
0.000000000000e+00
0.000000000000e+00
0.000000000000e+00
0.000000000000e+00
0.000000000000e+00
0.000000000000e+00
0.000000000000e+00
0.000000000000e+00
0.000000000000e+00
0.000000000000e+00
0.000000000000e+00
0.000000000000e+00
0.000000000000e+00
0.000000000000e+00
0.000000000000e+00
0.000000000000e+00
0.000000000000e+00
0.000000000000e+00
0.000000000000e+00
0.000000000000e+00
0.000000000000e+00
0.000000000000e+00
0.000000000000e+00
0.000000000000e+00
0.000000000000e+00
0.000000000000e+00
0.000000000000e+00
0.000000000000e+00
0.000000000000e+00
0.000000000000e+00
0.000000000000e+00
0.000000000000e+00
0.000000000000e+00
0.000000000000e+00
0.000000000000e+00
0.000000000000e+00
1.000000000000e+00
1.000000000000e+00
1.000000000000e+00
1.000000000000e+00
1.000000000000e+00
1.000000000000e+00
1.000000000000e+00
1.000000000000e+00
1.000000000000e+00
1.000000000000e+00
1.000000000000e+00
1.000000000000e+00
1.000000000000e+00
1.000000000000e+00
1.000000000000e+00
1.000000000000e+00
0.000000000000e+00
0.000000000000e+00
0.000000000000e+00
0.000000000000e+00
0.000000000000e+00
0.000000000000e+00
0.000000000000e+00
0.000000000000e+00
0.000000000000e+00
0.000000000000e+00
0.000000000000e+00
0.000000000000e+00
0.000000000000e+00
0.000000000000e+00
0.000000000000e+00
0.000000000000e+00
0.000000000000e+00
0.000000000000e+00
0.000000000000e+00
0.000000000000e+00
0.000000000000e+00
0.000000000000e+00
0.000000000000e+00
0.000000000000e+00
0.000000000000e+00
0.000000000000e+00
0.000000000000e+00
0.000000000000e+00
0.000000000000e+00
0.000000000000e+00
0.000000000000e+00
0.000000000000e+00
0.000000000000e+00
0.000000000000e+00
0.000000000000e+00
0.000000000000e+00
0.000000000000e+00
0.000000000000e+00
0.000000000000e+00
0.000000000000e+00
0.000000000000e+00
0.000000000000e+00
0.000000000000e+00
0.000000000000e+00
0.000000000000e+00
0.000000000000e+00
0.000000000000e+00
0.000000000000e+00
