# vtk DataFile Version 3.0
SFC long-time C3D8 dynamic frame 44 t=8.800000000000e-01
ASCII
DATASET UNSTRUCTURED_GRID
POINTS 250 float
-2.500000000000e-01 -2.500000000000e-01 0.000000000000e+00
-1.250000000000e-01 -2.500000000000e-01 0.000000000000e+00
0.000000000000e+00 -2.500000000000e-01 0.000000000000e+00
1.250000000000e-01 -2.500000000000e-01 0.000000000000e+00
2.500000000000e-01 -2.500000000000e-01 0.000000000000e+00
-2.500000000000e-01 -1.250000000000e-01 0.000000000000e+00
-1.250000000000e-01 -1.250000000000e-01 0.000000000000e+00
0.000000000000e+00 -1.250000000000e-01 0.000000000000e+00
1.250000000000e-01 -1.250000000000e-01 0.000000000000e+00
2.500000000000e-01 -1.250000000000e-01 0.000000000000e+00
-2.500000000000e-01 0.000000000000e+00 0.000000000000e+00
-1.250000000000e-01 0.000000000000e+00 0.000000000000e+00
0.000000000000e+00 0.000000000000e+00 0.000000000000e+00
1.250000000000e-01 0.000000000000e+00 0.000000000000e+00
2.500000000000e-01 0.000000000000e+00 0.000000000000e+00
-2.500000000000e-01 1.250000000000e-01 0.000000000000e+00
-1.250000000000e-01 1.250000000000e-01 0.000000000000e+00
0.000000000000e+00 1.250000000000e-01 0.000000000000e+00
1.250000000000e-01 1.250000000000e-01 0.000000000000e+00
2.500000000000e-01 1.250000000000e-01 0.000000000000e+00
-2.500000000000e-01 2.500000000000e-01 0.000000000000e+00
-1.250000000000e-01 2.500000000000e-01 0.000000000000e+00
0.000000000000e+00 2.500000000000e-01 0.000000000000e+00
1.250000000000e-01 2.500000000000e-01 0.000000000000e+00
2.500000000000e-01 2.500000000000e-01 0.000000000000e+00
-2.500000000000e-01 -2.500000000000e-01 6.000000000000e-02
-1.250000000000e-01 -2.500000000000e-01 6.000000000000e-02
0.000000000000e+00 -2.500000000000e-01 6.000000000000e-02
1.250000000000e-01 -2.500000000000e-01 6.000000000000e-02
2.500000000000e-01 -2.500000000000e-01 6.000000000000e-02
-2.500000000000e-01 -1.250000000000e-01 6.000000000000e-02
-1.250000000000e-01 -1.250000000000e-01 6.000000000000e-02
0.000000000000e+00 -1.250000000000e-01 6.000000000000e-02
1.250000000000e-01 -1.250000000000e-01 6.000000000000e-02
2.500000000000e-01 -1.250000000000e-01 6.000000000000e-02
-2.500000000000e-01 0.000000000000e+00 6.000000000000e-02
-1.250000000000e-01 0.000000000000e+00 6.000000000000e-02
0.000000000000e+00 0.000000000000e+00 6.000000000000e-02
1.250000000000e-01 0.000000000000e+00 6.000000000000e-02
2.500000000000e-01 0.000000000000e+00 6.000000000000e-02
-2.500000000000e-01 1.250000000000e-01 6.000000000000e-02
-1.250000000000e-01 1.250000000000e-01 6.000000000000e-02
0.000000000000e+00 1.250000000000e-01 6.000000000000e-02
1.250000000000e-01 1.250000000000e-01 6.000000000000e-02
2.500000000000e-01 1.250000000000e-01 6.000000000000e-02
-2.500000000000e-01 2.500000000000e-01 6.000000000000e-02
-1.250000000000e-01 2.500000000000e-01 6.000000000000e-02
0.000000000000e+00 2.500000000000e-01 6.000000000000e-02
1.250000000000e-01 2.500000000000e-01 6.000000000000e-02
2.500000000000e-01 2.500000000000e-01 6.000000000000e-02
-2.500000000000e-01 -2.500000000000e-01 1.200000000000e-01
-1.250000000000e-01 -2.500000000000e-01 1.200000000000e-01
0.000000000000e+00 -2.500000000000e-01 1.200000000000e-01
1.250000000000e-01 -2.500000000000e-01 1.200000000000e-01
2.500000000000e-01 -2.500000000000e-01 1.200000000000e-01
-2.500000000000e-01 -1.250000000000e-01 1.200000000000e-01
-1.250000000000e-01 -1.250000000000e-01 1.200000000000e-01
0.000000000000e+00 -1.250000000000e-01 1.200000000000e-01
1.250000000000e-01 -1.250000000000e-01 1.200000000000e-01
2.500000000000e-01 -1.250000000000e-01 1.200000000000e-01
-2.500000000000e-01 0.000000000000e+00 1.200000000000e-01
-1.250000000000e-01 0.000000000000e+00 1.200000000000e-01
0.000000000000e+00 0.000000000000e+00 1.200000000000e-01
1.250000000000e-01 0.000000000000e+00 1.200000000000e-01
2.500000000000e-01 0.000000000000e+00 1.200000000000e-01
-2.500000000000e-01 1.250000000000e-01 1.200000000000e-01
-1.250000000000e-01 1.250000000000e-01 1.200000000000e-01
0.000000000000e+00 1.250000000000e-01 1.200000000000e-01
1.250000000000e-01 1.250000000000e-01 1.200000000000e-01
2.500000000000e-01 1.250000000000e-01 1.200000000000e-01
-2.500000000000e-01 2.500000000000e-01 1.200000000000e-01
-1.250000000000e-01 2.500000000000e-01 1.200000000000e-01
0.000000000000e+00 2.500000000000e-01 1.200000000000e-01
1.250000000000e-01 2.500000000000e-01 1.200000000000e-01
2.500000000000e-01 2.500000000000e-01 1.200000000000e-01
-2.500000000000e-01 -2.500000000000e-01 1.800000000000e-01
-1.250000000000e-01 -2.500000000000e-01 1.800000000000e-01
0.000000000000e+00 -2.500000000000e-01 1.800000000000e-01
1.250000000000e-01 -2.500000000000e-01 1.800000000000e-01
2.500000000000e-01 -2.500000000000e-01 1.800000000000e-01
-2.500000000000e-01 -1.250000000000e-01 1.800000000000e-01
-1.250000000000e-01 -1.250000000000e-01 1.800000000000e-01
0.000000000000e+00 -1.250000000000e-01 1.800000000000e-01
1.250000000000e-01 -1.250000000000e-01 1.800000000000e-01
2.500000000000e-01 -1.250000000000e-01 1.800000000000e-01
-2.500000000000e-01 0.000000000000e+00 1.800000000000e-01
-1.250000000000e-01 0.000000000000e+00 1.800000000000e-01
0.000000000000e+00 0.000000000000e+00 1.800000000000e-01
1.250000000000e-01 0.000000000000e+00 1.800000000000e-01
2.500000000000e-01 0.000000000000e+00 1.800000000000e-01
-2.500000000000e-01 1.250000000000e-01 1.800000000000e-01
-1.250000000000e-01 1.250000000000e-01 1.800000000000e-01
0.000000000000e+00 1.250000000000e-01 1.800000000000e-01
1.250000000000e-01 1.250000000000e-01 1.800000000000e-01
2.500000000000e-01 1.250000000000e-01 1.800000000000e-01
-2.500000000000e-01 2.500000000000e-01 1.800000000000e-01
-1.250000000000e-01 2.500000000000e-01 1.800000000000e-01
0.000000000000e+00 2.500000000000e-01 1.800000000000e-01
1.250000000000e-01 2.500000000000e-01 1.800000000000e-01
2.500000000000e-01 2.500000000000e-01 1.800000000000e-01
-2.500000000000e-01 -2.500000000000e-01 2.400000000000e-01
-1.250000000000e-01 -2.500000000000e-01 2.400000000000e-01
0.000000000000e+00 -2.500000000000e-01 2.400000000000e-01
1.250000000000e-01 -2.500000000000e-01 2.400000000000e-01
2.500000000000e-01 -2.500000000000e-01 2.400000000000e-01
-2.500000000000e-01 -1.250000000000e-01 2.400000000000e-01
-1.250000000000e-01 -1.250000000000e-01 2.400000000000e-01
0.000000000000e+00 -1.250000000000e-01 2.400000000000e-01
1.250000000000e-01 -1.250000000000e-01 2.400000000000e-01
2.500000000000e-01 -1.250000000000e-01 2.400000000000e-01
-2.500000000000e-01 0.000000000000e+00 2.400000000000e-01
-1.250000000000e-01 0.000000000000e+00 2.400000000000e-01
0.000000000000e+00 0.000000000000e+00 2.400000000000e-01
1.250000000000e-01 0.000000000000e+00 2.400000000000e-01
2.500000000000e-01 0.000000000000e+00 2.400000000000e-01
-2.500000000000e-01 1.250000000000e-01 2.400000000000e-01
-1.250000000000e-01 1.250000000000e-01 2.400000000000e-01
0.000000000000e+00 1.250000000000e-01 2.400000000000e-01
1.250000000000e-01 1.250000000000e-01 2.400000000000e-01
2.500000000000e-01 1.250000000000e-01 2.400000000000e-01
-2.500000000000e-01 2.500000000000e-01 2.400000000000e-01
-1.250000000000e-01 2.500000000000e-01 2.400000000000e-01
0.000000000000e+00 2.500000000000e-01 2.400000000000e-01
1.250000000000e-01 2.500000000000e-01 2.400000000000e-01
2.500000000000e-01 2.500000000000e-01 2.400000000000e-01
-2.499999999992e-01 -2.499999999999e-01 2.424523431676e-01
-1.249999999992e-01 -2.499999999999e-01 2.424523431683e-01
8.129378662649e-13 -2.499999999999e-01 2.424523431690e-01
1.250000000008e-01 -2.500000000000e-01 2.424523431697e-01
2.500000000008e-01 -2.500000000000e-01 2.424523431704e-01
-2.499999999992e-01 -1.249999999999e-01 2.424523431678e-01
-1.249999999992e-01 -1.249999999999e-01 2.424523431685e-01
8.260714704315e-13 -1.249999999999e-01 2.424523431692e-01
1.250000000008e-01 -1.250000000000e-01 2.424523431700e-01
2.500000000008e-01 -1.250000000000e-01 2.424523431707e-01
-2.499999999992e-01 8.915757555755e-14 2.424523431681e-01
-1.249999999992e-01 7.601699265181e-14 2.424523431688e-01
8.392077010882e-13 6.287525030994e-14 2.424523431695e-01
1.250000000008e-01 4.973520598366e-14 2.424523431702e-01
2.500000000008e-01 3.659520157113e-14 2.424523431709e-01
-2.499999999991e-01 1.250000000001e-01 2.424523431683e-01
-1.249999999991e-01 1.250000000001e-01 2.424523431690e-01
8.523422923316e-13 1.250000000001e-01 2.424523431697e-01
1.250000000009e-01 1.250000000000e-01 2.424523431705e-01
2.500000000009e-01 1.250000000000e-01 2.424523431712e-01
-2.499999999991e-01 2.500000000001e-01 2.424523431685e-01
-1.249999999991e-01 2.500000000001e-01 2.424523431693e-01
8.654782449533e-13 2.500000000001e-01 2.424523431700e-01
1.250000000009e-01 2.500000000000e-01 2.424523431707e-01
2.500000000009e-01 2.500000000000e-01 2.424523431714e-01
-2.499999999996e-01 -2.500000000000e-01 3.074523431676e-01
-1.249999999996e-01 -2.500000000001e-01 3.074523431683e-01
4.389467899972e-13 -2.500000000001e-01 3.074523431690e-01
1.250000000004e-01 -2.500000000001e-01 3.074523431697e-01
2.500000000004e-01 -2.500000000001e-01 3.074523431704e-01
-2.499999999995e-01 -1.250000000000e-01 3.074523431678e-01
-1.249999999995e-01 -1.250000000001e-01 3.074523431685e-01
4.520846087739e-13 -1.250000000001e-01 3.074523431692e-01
1.250000000005e-01 -1.250000000001e-01 3.074523431700e-01
2.500000000005e-01 -1.250000000001e-01 3.074523431707e-01
-2.499999999995e-01 -3.691783717031e-14 3.074523431681e-01
-1.249999999995e-01 -5.005878663982e-14 3.074523431688e-01
4.652190616845e-13 -6.319788019638e-14 3.074523431695e-01
1.250000000005e-01 -7.633856769648e-14 3.074523431702e-01
2.500000000005e-01 -8.947528841509e-14 3.074523431709e-01
-2.499999999995e-01 1.250000000000e-01 3.074523431683e-01
-1.249999999995e-01 1.249999999999e-01 3.074523431690e-01
4.783558133466e-13 1.249999999999e-01 3.074523431697e-01
1.250000000005e-01 1.249999999999e-01 3.074523431705e-01
2.500000000005e-01 1.249999999999e-01 3.074523431712e-01
-2.499999999995e-01 2.500000000000e-01 3.074523431685e-01
-1.249999999995e-01 2.499999999999e-01 3.074523431693e-01
4.914937938930e-13 2.499999999999e-01 3.074523431700e-01
1.250000000005e-01 2.499999999999e-01 3.074523431707e-01
2.500000000005e-01 2.499999999999e-01 3.074523431714e-01
-2.499999999999e-01 -2.500000000002e-01 3.724523431676e-01
-1.249999999999e-01 -2.500000000002e-01 3.724523431683e-01
6.495761177650e-14 -2.500000000002e-01 3.724523431690e-01
1.250000000001e-01 -2.500000000002e-01 3.724523431697e-01
2.500000000001e-01 -2.500000000002e-01 3.724523431704e-01
-2.499999999999e-01 -1.250000000002e-01 3.724523431678e-01
-1.249999999999e-01 -1.250000000002e-01 3.724523431685e-01
7.809630053150e-14 -1.250000000002e-01 3.724523431692e-01
1.250000000001e-01 -1.250000000002e-01 3.724523431700e-01
2.500000000001e-01 -1.250000000002e-01 3.724523431707e-01
-2.499999999999e-01 -1.629964886579e-13 3.724523431681e-01
-1.249999999999e-01 -1.761315761292e-13 3.724523431688e-01
9.123286277625e-14 -1.892711116073e-13 3.724523431695e-01
1.250000000001e-01 -2.024085080173e-13 3.724523431702e-01
2.500000000001e-01 -2.155480388619e-13 3.724523431709e-01
-2.499999999999e-01 1.249999999998e-01 3.724523431683e-01
-1.249999999999e-01 1.249999999998e-01 3.724523431690e-01
1.043694639277e-13 1.249999999998e-01 3.724523431697e-01
1.250000000001e-01 1.249999999998e-01 3.724523431705e-01
2.500000000001e-01 1.249999999998e-01 3.724523431712e-01
-2.499999999999e-01 2.499999999998e-01 3.724523431685e-01
-1.249999999999e-01 2.499999999998e-01 3.724523431693e-01
1.175066352569e-13 2.499999999998e-01 3.724523431700e-01
1.250000000001e-01 2.499999999998e-01 3.724523431707e-01
2.500000000001e-01 2.499999999998e-01 3.724523431714e-01
-2.500000000003e-01 -2.500000000003e-01 4.374523431676e-01
-1.250000000003e-01 -2.500000000003e-01 4.374523431683e-01
-3.090320191147e-13 -2.500000000003e-01 4.374523431690e-01
1.249999999997e-01 -2.500000000003e-01 4.374523431697e-01
2.499999999997e-01 -2.500000000003e-01 4.374523431704e-01
-2.500000000003e-01 -1.250000000003e-01 4.374523431678e-01
-1.250000000003e-01 -1.250000000003e-01 4.374523431685e-01
-2.958937798670e-13 -1.250000000003e-01 4.374523431692e-01
1.249999999997e-01 -1.250000000003e-01 4.374523431700e-01
2.499999999997e-01 -1.250000000003e-01 4.374523431707e-01
-2.500000000003e-01 -2.890704209820e-13 4.374523431681e-01
-1.250000000003e-01 -3.022091049856e-13 4.374523431688e-01
-2.827545125216e-13 -3.153462575392e-13 4.374523431695e-01
1.249999999997e-01 -3.284812196371e-13 4.374523431702e-01
2.499999999997e-01 -3.416188878988e-13 4.374523431709e-01
-2.500000000003e-01 1.249999999997e-01 4.374523431683e-01
-1.250000000003e-01 1.249999999997e-01 4.374523431690e-01
-2.696157202094e-13 1.249999999997e-01 4.374523431697e-01
1.249999999997e-01 1.249999999997e-01 4.374523431705e-01
2.499999999997e-01 1.249999999997e-01 4.374523431712e-01
-2.500000000003e-01 2.499999999997e-01 4.374523431685e-01
-1.250000000003e-01 2.499999999997e-01 4.374523431693e-01
-2.564784833913e-13 2.499999999997e-01 4.374523431700e-01
1.249999999997e-01 2.499999999997e-01 4.374523431707e-01
2.499999999997e-01 2.499999999997e-01 4.374523431714e-01
-2.500000000007e-01 -2.500000000004e-01 5.024523431676e-01
-1.250000000007e-01 -2.500000000004e-01 5.024523431683e-01
-6.830249404946e-13 -2.500000000004e-01 5.024523431690e-01
1.249999999993e-01 -2.500000000005e-01 5.024523431697e-01
2.499999999993e-01 -2.500000000005e-01 5.024523431704e-01
-2.500000000007e-01 -1.250000000004e-01 5.024523431678e-01
-1.250000000007e-01 -1.250000000004e-01 5.024523431685e-01
-6.698874678148e-13 -1.250000000004e-01 5.024523431692e-01
1.249999999993e-01 -1.250000000005e-01 5.024523431700e-01
2.499999999993e-01 -1.250000000005e-01 5.024523431707e-01
-2.500000000007e-01 -4.151469806108e-13 5.024523431681e-01
-1.250000000007e-01 -4.282840966683e-13 5.024523431688e-01
-6.567469374441e-13 -4.414180662545e-13 5.024523431695e-01
1.249999999993e-01 -4.545532783182e-13 5.024523431702e-01
2.499999999993e-01 -4.676868982772e-13 5.024523431709e-01
-2.500000000006e-01 1.249999999996e-01 5.024523431683e-01
-1.250000000006e-01 1.249999999996e-01 5.024523431690e-01
-6.436037055656e-13 1.249999999996e-01 5.024523431697e-01
1.249999999994e-01 1.249999999995e-01 5.024523431705e-01
2.499999999994e-01 1.249999999995e-01 5.024523431712e-01
-2.500000000006e-01 2.499999999996e-01 5.024523431685e-01
-1.250000000006e-01 2.499999999996e-01 5.024523431693e-01
-6.304652490904e-13 2.499999999996e-01 5.024523431700e-01
1.249999999994e-01 2.499999999995e-01 5.024523431707e-01
2.499999999994e-01 2.499999999995e-01 5.024523431714e-01
CELLS 128 1152
8 0 1 6 5 25 26 31 30
8 1 2 7 6 26 27 32 31
8 2 3 8 7 27 28 33 32
8 3 4 9 8 28 29 34 33
8 5 6 11 10 30 31 36 35
8 6 7 12 11 31 32 37 36
8 7 8 13 12 32 33 38 37
8 8 9 14 13 33 34 39 38
8 10 11 16 15 35 36 41 40
8 11 12 17 16 36 37 42 41
8 12 13 18 17 37 38 43 42
8 13 14 19 18 38 39 44 43
8 15 16 21 20 40 41 46 45
8 16 17 22 21 41 42 47 46
8 17 18 23 22 42 43 48 47
8 18 19 24 23 43 44 49 48
8 25 26 31 30 50 51 56 55
8 26 27 32 31 51 52 57 56
8 27 28 33 32 52 53 58 57
8 28 29 34 33 53 54 59 58
8 30 31 36 35 55 56 61 60
8 31 32 37 36 56 57 62 61
8 32 33 38 37 57 58 63 62
8 33 34 39 38 58 59 64 63
8 35 36 41 40 60 61 66 65
8 36 37 42 41 61 62 67 66
8 37 38 43 42 62 63 68 67
8 38 39 44 43 63 64 69 68
8 40 41 46 45 65 66 71 70
8 41 42 47 46 66 67 72 71
8 42 43 48 47 67 68 73 72
8 43 44 49 48 68 69 74 73
8 50 51 56 55 75 76 81 80
8 51 52 57 56 76 77 82 81
8 52 53 58 57 77 78 83 82
8 53 54 59 58 78 79 84 83
8 55 56 61 60 80 81 86 85
8 56 57 62 61 81 82 87 86
8 57 58 63 62 82 83 88 87
8 58 59 64 63 83 84 89 88
8 60 61 66 65 85 86 91 90
8 61 62 67 66 86 87 92 91
8 62 63 68 67 87 88 93 92
8 63 64 69 68 88 89 94 93
8 65 66 71 70 90 91 96 95
8 66 67 72 71 91 92 97 96
8 67 68 73 72 92 93 98 97
8 68 69 74 73 93 94 99 98
8 75 76 81 80 100 101 106 105
8 76 77 82 81 101 102 107 106
8 77 78 83 82 102 103 108 107
8 78 79 84 83 103 104 109 108
8 80 81 86 85 105 106 111 110
8 81 82 87 86 106 107 112 111
8 82 83 88 87 107 108 113 112
8 83 84 89 88 108 109 114 113
8 85 86 91 90 110 111 116 115
8 86 87 92 91 111 112 117 116
8 87 88 93 92 112 113 118 117
8 88 89 94 93 113 114 119 118
8 90 91 96 95 115 116 121 120
8 91 92 97 96 116 117 122 121
8 92 93 98 97 117 118 123 122
8 93 94 99 98 118 119 124 123
8 125 126 131 130 150 151 156 155
8 126 127 132 131 151 152 157 156
8 127 128 133 132 152 153 158 157
8 128 129 134 133 153 154 159 158
8 130 131 136 135 155 156 161 160
8 131 132 137 136 156 157 162 161
8 132 133 138 137 157 158 163 162
8 133 134 139 138 158 159 164 163
8 135 136 141 140 160 161 166 165
8 136 137 142 141 161 162 167 166
8 137 138 143 142 162 163 168 167
8 138 139 144 143 163 164 169 168
8 140 141 146 145 165 166 171 170
8 141 142 147 146 166 167 172 171
8 142 143 148 147 167 168 173 172
8 143 144 149 148 168 169 174 173
8 150 151 156 155 175 176 181 180
8 151 152 157 156 176 177 182 181
8 152 153 158 157 177 178 183 182
8 153 154 159 158 178 179 184 183
8 155 156 161 160 180 181 186 185
8 156 157 162 161 181 182 187 186
8 157 158 163 162 182 183 188 187
8 158 159 164 163 183 184 189 188
8 160 161 166 165 185 186 191 190
8 161 162 167 166 186 187 192 191
8 162 163 168 167 187 188 193 192
8 163 164 169 168 188 189 194 193
8 165 166 171 170 190 191 196 195
8 166 167 172 171 191 192 197 196
8 167 168 173 172 192 193 198 197
8 168 169 174 173 193 194 199 198
8 175 176 181 180 200 201 206 205
8 176 177 182 181 201 202 207 206
8 177 178 183 182 202 203 208 207
8 178 179 184 183 203 204 209 208
8 180 181 186 185 205 206 211 210
8 181 182 187 186 206 207 212 211
8 182 183 188 187 207 208 213 212
8 183 184 189 188 208 209 214 213
8 185 186 191 190 210 211 216 215
8 186 187 192 191 211 212 217 216
8 187 188 193 192 212 213 218 217
8 188 189 194 193 213 214 219 218
8 190 191 196 195 215 216 221 220
8 191 192 197 196 216 217 222 221
8 192 193 198 197 217 218 223 222
8 193 194 199 198 218 219 224 223
8 200 201 206 205 225 226 231 230
8 201 202 207 206 226 227 232 231
8 202 203 208 207 227 228 233 232
8 203 204 209 208 228 229 234 233
8 205 206 211 210 230 231 236 235
8 206 207 212 211 231 232 237 236
8 207 208 213 212 232 233 238 237
8 208 209 214 213 233 234 239 238
8 210 211 216 215 235 236 241 240
8 211 212 217 216 236 237 242 241
8 212 213 218 217 237 238 243 242
8 213 214 219 218 238 239 244 243
8 215 216 221 220 240 241 246 245
8 216 217 222 221 241 242 247 246
8 217 218 223 222 242 243 248 247
8 218 219 224 223 243 244 249 248
CELL_TYPES 128
12
12
12
12
12
12
12
12
12
12
12
12
12
12
12
12
12
12
12
12
12
12
12
12
12
12
12
12
12
12
12
12
12
12
12
12
12
12
12
12
12
12
12
12
12
12
12
12
12
12
12
12
12
12
12
12
12
12
12
12
12
12
12
12
12
12
12
12
12
12
12
12
12
12
12
12
12
12
12
12
12
12
12
12
12
12
12
12
12
12
12
12
12
12
12
12
12
12
12
12
12
12
12
12
12
12
12
12
12
12
12
12
12
12
12
12
12
12
12
12
12
12
12
12
12
12
12
12
POINT_DATA 250
VECTORS displacement float
0.000000000000e+00 0.000000000000e+00 0.000000000000e+00
0.000000000000e+00 0.000000000000e+00 0.000000000000e+00
0.000000000000e+00 0.000000000000e+00 0.000000000000e+00
0.000000000000e+00 0.000000000000e+00 0.000000000000e+00
0.000000000000e+00 0.000000000000e+00 0.000000000000e+00
0.000000000000e+00 0.000000000000e+00 0.000000000000e+00
0.000000000000e+00 0.000000000000e+00 0.000000000000e+00
0.000000000000e+00 0.000000000000e+00 0.000000000000e+00
0.000000000000e+00 0.000000000000e+00 0.000000000000e+00
0.000000000000e+00 0.000000000000e+00 0.000000000000e+00
0.000000000000e+00 0.000000000000e+00 0.000000000000e+00
0.000000000000e+00 0.000000000000e+00 0.000000000000e+00
0.000000000000e+00 0.000000000000e+00 0.000000000000e+00
0.000000000000e+00 0.000000000000e+00 0.000000000000e+00
0.000000000000e+00 0.000000000000e+00 0.000000000000e+00
0.000000000000e+00 0.000000000000e+00 0.000000000000e+00
0.000000000000e+00 0.000000000000e+00 0.000000000000e+00
0.000000000000e+00 0.000000000000e+00 0.000000000000e+00
0.000000000000e+00 0.000000000000e+00 0.000000000000e+00
0.000000000000e+00 0.000000000000e+00 0.000000000000e+00
0.000000000000e+00 0.000000000000e+00 0.000000000000e+00
0.000000000000e+00 0.000000000000e+00 0.000000000000e+00
0.000000000000e+00 0.000000000000e+00 0.000000000000e+00
0.000000000000e+00 0.000000000000e+00 0.000000000000e+00
0.000000000000e+00 0.000000000000e+00 0.000000000000e+00
0.000000000000e+00 0.000000000000e+00 0.000000000000e+00
0.000000000000e+00 0.000000000000e+00 0.000000000000e+00
0.000000000000e+00 0.000000000000e+00 0.000000000000e+00
0.000000000000e+00 0.000000000000e+00 0.000000000000e+00
0.000000000000e+00 0.000000000000e+00 0.000000000000e+00
0.000000000000e+00 0.000000000000e+00 0.000000000000e+00
0.000000000000e+00 0.000000000000e+00 0.000000000000e+00
0.000000000000e+00 0.000000000000e+00 0.000000000000e+00
0.000000000000e+00 0.000000000000e+00 0.000000000000e+00
0.000000000000e+00 0.000000000000e+00 0.000000000000e+00
0.000000000000e+00 0.000000000000e+00 0.000000000000e+00
0.000000000000e+00 0.000000000000e+00 0.000000000000e+00
0.000000000000e+00 0.000000000000e+00 0.000000000000e+00
0.000000000000e+00 0.000000000000e+00 0.000000000000e+00
0.000000000000e+00 0.000000000000e+00 0.000000000000e+00
0.000000000000e+00 0.000000000000e+00 0.000000000000e+00
0.000000000000e+00 0.000000000000e+00 0.000000000000e+00
0.000000000000e+00 0.000000000000e+00 0.000000000000e+00
0.000000000000e+00 0.000000000000e+00 0.000000000000e+00
0.000000000000e+00 0.000000000000e+00 0.000000000000e+00
0.000000000000e+00 0.000000000000e+00 0.000000000000e+00
0.000000000000e+00 0.000000000000e+00 0.000000000000e+00
0.000000000000e+00 0.000000000000e+00 0.000000000000e+00
0.000000000000e+00 0.000000000000e+00 0.000000000000e+00
0.000000000000e+00 0.000000000000e+00 0.000000000000e+00
0.000000000000e+00 0.000000000000e+00 0.000000000000e+00
0.000000000000e+00 0.000000000000e+00 0.000000000000e+00
0.000000000000e+00 0.000000000000e+00 0.000000000000e+00
0.000000000000e+00 0.000000000000e+00 0.000000000000e+00
0.000000000000e+00 0.000000000000e+00 0.000000000000e+00
0.000000000000e+00 0.000000000000e+00 0.000000000000e+00
0.000000000000e+00 0.000000000000e+00 0.000000000000e+00
0.000000000000e+00 0.000000000000e+00 0.000000000000e+00
0.000000000000e+00 0.000000000000e+00 0.000000000000e+00
0.000000000000e+00 0.000000000000e+00 0.000000000000e+00
0.000000000000e+00 0.000000000000e+00 0.000000000000e+00
0.000000000000e+00 0.000000000000e+00 0.000000000000e+00
0.000000000000e+00 0.000000000000e+00 0.000000000000e+00
0.000000000000e+00 0.000000000000e+00 0.000000000000e+00
0.000000000000e+00 0.000000000000e+00 0.000000000000e+00
0.000000000000e+00 0.000000000000e+00 0.000000000000e+00
0.000000000000e+00 0.000000000000e+00 0.000000000000e+00
0.000000000000e+00 0.000000000000e+00 0.000000000000e+00
0.000000000000e+00 0.000000000000e+00 0.000000000000e+00
0.000000000000e+00 0.000000000000e+00 0.000000000000e+00
0.000000000000e+00 0.000000000000e+00 0.000000000000e+00
0.000000000000e+00 0.000000000000e+00 0.000000000000e+00
0.000000000000e+00 0.000000000000e+00 0.000000000000e+00
0.000000000000e+00 0.000000000000e+00 0.000000000000e+00
0.000000000000e+00 0.000000000000e+00 0.000000000000e+00
0.000000000000e+00 0.000000000000e+00 0.000000000000e+00
0.000000000000e+00 0.000000000000e+00 0.000000000000e+00
0.000000000000e+00 0.000000000000e+00 0.000000000000e+00
0.000000000000e+00 0.000000000000e+00 0.000000000000e+00
0.000000000000e+00 0.000000000000e+00 0.000000000000e+00
0.000000000000e+00 0.000000000000e+00 0.000000000000e+00
0.000000000000e+00 0.000000000000e+00 0.000000000000e+00
0.000000000000e+00 0.000000000000e+00 0.000000000000e+00
0.000000000000e+00 0.000000000000e+00 0.000000000000e+00
0.000000000000e+00 0.000000000000e+00 0.000000000000e+00
0.000000000000e+00 0.000000000000e+00 0.000000000000e+00
0.000000000000e+00 0.000000000000e+00 0.000000000000e+00
0.000000000000e+00 0.000000000000e+00 0.000000000000e+00
0.000000000000e+00 0.000000000000e+00 0.000000000000e+00
0.000000000000e+00 0.000000000000e+00 0.000000000000e+00
0.000000000000e+00 0.000000000000e+00 0.000000000000e+00
0.000000000000e+00 0.000000000000e+00 0.000000000000e+00
0.000000000000e+00 0.000000000000e+00 0.000000000000e+00
0.000000000000e+00 0.000000000000e+00 0.000000000000e+00
0.000000000000e+00 0.000000000000e+00 0.000000000000e+00
0.000000000000e+00 0.000000000000e+00 0.000000000000e+00
0.000000000000e+00 0.000000000000e+00 0.000000000000e+00
0.000000000000e+00 0.000000000000e+00 0.000000000000e+00
0.000000000000e+00 0.000000000000e+00 0.000000000000e+00
0.000000000000e+00 0.000000000000e+00 0.000000000000e+00
0.000000000000e+00 0.000000000000e+00 0.000000000000e+00
0.000000000000e+00 0.000000000000e+00 0.000000000000e+00
0.000000000000e+00 0.000000000000e+00 0.000000000000e+00
0.000000000000e+00 0.000000000000e+00 0.000000000000e+00
0.000000000000e+00 0.000000000000e+00 0.000000000000e+00
0.000000000000e+00 0.000000000000e+00 0.000000000000e+00
0.000000000000e+00 0.000000000000e+00 0.000000000000e+00
0.000000000000e+00 0.000000000000e+00 0.000000000000e+00
0.000000000000e+00 0.000000000000e+00 0.000000000000e+00
0.000000000000e+00 0.000000000000e+00 0.000000000000e+00
0.000000000000e+00 0.000000000000e+00 0.000000000000e+00
0.000000000000e+00 0.000000000000e+00 0.000000000000e+00
0.000000000000e+00 0.000000000000e+00 0.000000000000e+00
0.000000000000e+00 0.000000000000e+00 0.000000000000e+00
0.000000000000e+00 0.000000000000e+00 0.000000000000e+00
0.000000000000e+00 0.000000000000e+00 0.000000000000e+00
0.000000000000e+00 0.000000000000e+00 0.000000000000e+00
0.000000000000e+00 0.000000000000e+00 0.000000000000e+00
0.000000000000e+00 0.000000000000e+00 0.000000000000e+00
0.000000000000e+00 0.000000000000e+00 0.000000000000e+00
0.000000000000e+00 0.000000000000e+00 0.000000000000e+00
0.000000000000e+00 0.000000000000e+00 0.000000000000e+00
0.000000000000e+00 0.000000000000e+00 0.000000000000e+00
0.000000000000e+00 0.000000000000e+00 0.000000000000e+00
0.000000000000e+00 0.000000000000e+00 0.000000000000e+00
8.129220837059e-13 8.914243706501e-14 -1.254765683243e-02
8.129233982063e-13 7.601290240292e-14 -1.254765683171e-02
8.129378662649e-13 6.288509738719e-14 -1.254765683099e-02
8.129476061290e-13 4.972686529144e-14 -1.254765683027e-02
8.129492189718e-13 3.659066628364e-14 -1.254765682956e-02
8.260677024022e-13 8.915247514860e-14 -1.254765683219e-02
8.260676806499e-13 7.601433112462e-14 -1.254765683147e-02
8.260714704315e-13 6.287482642756e-14 -1.254765683075e-02
8.260796893724e-13 4.973355379397e-14 -1.254765683003e-02
8.260761193382e-13 3.659392125962e-14 -1.254765682931e-02
8.392022185722e-13 8.915757555755e-14 -1.254765683195e-02
8.392014116044e-13 7.601699265181e-14 -1.254765683123e-02
8.392077010882e-13 6.287525030994e-14 -1.254765683051e-02
8.392130757713e-13 4.973520598366e-14 -1.254765682979e-02
8.392167636119e-13 3.659520157113e-14 -1.254765682907e-02
8.523445140523e-13 8.915846125420e-14 -1.254765683170e-02
8.523396980062e-13 7.601991921017e-14 -1.254765683099e-02
8.523422923316e-13 6.288055592186e-14 -1.254765683027e-02
8.523458708198e-13 4.974011597394e-14 -1.254765682955e-02
8.523407476333e-13 3.659710497319e-14 -1.254765682883e-02
8.654821657240e-13 8.915909917087e-14 -1.254765683146e-02
8.654808443882e-13 7.601907941363e-14 -1.254765683074e-02
8.654782449533e-13 6.287753478847e-14 -1.254765683002e-02
8.654832233468e-13 4.974086799481e-14 -1.254765682930e-02
8.654908932510e-13 3.660473241589e-14 -1.254765682859e-02
4.389356228312e-13 -3.691993769995e-14 -1.254765683243e-02
4.389416275877e-13 -5.006372192245e-14 -1.254765683171e-02
4.389467899972e-13 -6.319932485396e-14 -1.254765683099e-02
4.389510508126e-13 -7.633626343938e-14 -1.254765683027e-02
4.389532440950e-13 -8.947561787986e-14 -1.254765682956e-02
4.520765017050e-13 -3.692145722482e-14 -1.254765683219e-02
4.520796565758e-13 -5.006007389838e-14 -1.254765683147e-02
4.520846087739e-13 -6.320086482530e-14 -1.254765683075e-02
4.520875333882e-13 -7.633883645755e-14 -1.254765683003e-02
4.520887658276e-13 -8.947686251836e-14 -1.254765682931e-02
4.652126780678e-13 -3.691783717031e-14 -1.254765683195e-02
4.652159226914e-13 -5.005878663982e-14 -1.254765683123e-02
4.652190616845e-13 -6.319788019638e-14 -1.254765683051e-02
4.652218524401e-13 -7.633856769648e-14 -1.254765682979e-02
4.652250669879e-13 -8.947528841509e-14 -1.254765682907e-02
4.783501314547e-13 -3.691596585024e-14 -1.254765683170e-02
4.783533188757e-13 -5.005344667661e-14 -1.254765683099e-02
4.783558133466e-13 -6.319451611761e-14 -1.254765683027e-02
4.783582396162e-13 -7.633104754034e-14 -1.254765682955e-02
4.783615015532e-13 -8.947192587904e-14 -1.254765682883e-02
4.914961040998e-13 -3.691551009757e-14 -1.254765683146e-02
4.914923461668e-13 -5.005273608710e-14 -1.254765683074e-02
4.914937938930e-13 -6.319081567790e-14 -1.254765683002e-02
4.914954685761e-13 -7.632795414419e-14 -1.254765682930e-02
4.914929638314e-13 -8.947277704300e-14 -1.254765682859e-02
6.495057215507e-14 -1.629925683323e-13 -1.254765683243e-02
6.495503061257e-14 -1.761411463019e-13 -1.254765683171e-02
6.495761177650e-14 -1.892794470180e-13 -1.254765683099e-02
6.495843877437e-14 -2.024122320109e-13 -1.254765683027e-02
6.495995320718e-14 -2.155485524166e-13 -1.254765682956e-02
7.808973150159e-14 -1.629959050883e-13 -1.254765683219e-02
7.809193095204e-14 -1.761348194365e-13 -1.254765683147e-02
7.809630053150e-14 -1.892739499472e-13 -1.254765683075e-02
7.809565649178e-14 -2.024094223230e-13 -1.254765683003e-02
7.809376965202e-14 -2.155482494463e-13 -1.254765682931e-02
9.122749906575e-14 -1.629964886579e-13 -1.254765683195e-02
9.122900177162e-14 -1.761315761292e-13 -1.254765683123e-02
9.123286277625e-14 -1.892711116073e-13 -1.254765683051e-02
9.123186931326e-14 -2.024085080173e-13 -1.254765682979e-02
9.123065386774e-14 -2.155480388619e-13 -1.254765682907e-02
1.043671402383e-13 -1.629908004022e-13 -1.254765683170e-02
1.043667942486e-13 -1.761298839966e-13 -1.254765683099e-02
1.043694639277e-13 -1.892666053958e-13 -1.254765683027e-02
1.043704667214e-13 -2.024045703330e-13 -1.254765682955e-02
1.043692432293e-13 -2.155443365497e-13 -1.254765682883e-02
1.175061769010e-13 -1.629893072863e-13 -1.254765683146e-02
1.175058606577e-13 -1.761283656440e-13 -1.254765683074e-02
1.175066352569e-13 -1.892643509873e-13 -1.254765683002e-02
1.175072819863e-13 -2.024057382405e-13 -1.254765682930e-02
1.175062328258e-13 -2.155406420769e-13 -1.254765682859e-02
-3.090338587973e-13 -2.890696794277e-13 -1.254765683243e-02
-3.090331841306e-13 -3.022153683120e-13 -1.254765683171e-02
-3.090320191147e-13 -3.153532979028e-13 -1.254765683099e-02
-3.090325886776e-13 -3.284848100686e-13 -1.254765683027e-02
-3.090347986621e-13 -3.416201258227e-13 -1.254765682956e-02
-2.958925902850e-13 -2.890701877567e-13 -1.254765683219e-02
-2.958938313991e-13 -3.022120065433e-13 -1.254765683147e-02
-2.958937798670e-13 -3.153483918183e-13 -1.254765683075e-02
-2.958971255073e-13 -3.284839002619e-13 -1.254765683003e-02
-2.958981434918e-13 -3.416191244212e-13 -1.254765682931e-02
-2.827554363774e-13 -2.890704209820e-13 -1.254765683195e-02
-2.827552411504e-13 -3.022091049856e-13 -1.254765683123e-02
-2.827545125216e-13 -3.153462575392e-13 -1.254765683051e-02
-2.827581603832e-13 -3.284812196371e-13 -1.254765682979e-02
-2.827588368817e-13 -3.416188878988e-13 -1.254765682907e-02
-2.696159755275e-13 -2.890697966097e-13 -1.254765683170e-02
-2.696176355089e-13 -3.022084105675e-13 -1.254765683099e-02
-2.696157202094e-13 -3.153429578242e-13 -1.254765683027e-02
-2.696167732256e-13 -3.284795323062e-13 -1.254765682955e-02
-2.696177217120e-13 -3.416170908920e-13 -1.254765682883e-02
-2.564814701177e-13 -2.890749274375e-13 -1.254765683146e-02
-2.564801114581e-13 -3.022056490041e-13 -1.254765683074e-02
-2.564784833913e-13 -3.153433021746e-13 -1.254765683002e-02
-2.564795157255e-13 -3.284798979231e-13 -1.254765682930e-02
-2.564793342695e-13 -3.416183900802e-13 -1.254765682859e-02
-6.830170050417e-13 -4.151456708545e-13 -1.254765683243e-02
-6.830167072381e-13 -4.282859813428e-13 -1.254765683171e-02
-6.830249404946e-13 -4.414377997171e-13 -1.254765683099e-02
-6.830321617889e-13 -4.545584743518e-13 -1.254765683027e-02
-6.830294657239e-13 -4.676885902255e-13 -1.254765682956e-02
-6.698702438537e-13 -4.151439905333e-13 -1.254765683219e-02
-6.698787711135e-13 -4.282855459608e-13 -1.254765683147e-02
-6.698874678148e-13 -4.414240559455e-13 -1.254765683075e-02
-6.698907064852e-13 -4.545561353385e-13 -1.254765683003e-02
-6.698897854849e-13 -4.676889526041e-13 -1.254765682931e-02
-6.567347197543e-13 -4.151469806108e-13 -1.254765683195e-02
-6.567391464157e-13 -4.282840966683e-13 -1.254765683123e-02
-6.567469374441e-13 -4.414180662545e-13 -1.254765683051e-02
-6.567497743082e-13 -4.545532783182e-13 -1.254765682979e-02
-6.567462683671e-13 -4.676868982772e-13 -1.254765682907e-02
-6.435975584047e-13 -4.151490646720e-13 -1.254765683170e-02
-6.435999106504e-13 -4.282881609263e-13 -1.254765683099e-02
-6.436037055656e-13 -4.414228262125e-13 -1.254765683027e-02
-6.436051967575e-13 -4.545538295094e-13 -1.254765682955e-02
-6.436061575363e-13 -4.676914172474e-13 -1.254765682883e-02
-6.304640915926e-13 -4.151513620875e-13 -1.254765683146e-02
-6.304659621458e-13 -4.282886471618e-13 -1.254765683074e-02
-6.304652490904e-13 -4.414189497206e-13 -1.254765683002e-02
-6.304660000486e-13 -4.545577656421e-13 -1.254765682930e-02
-6.304638991070e-13 -4.676995309549e-13 -1.254765682859e-02
SCALARS displacement_magnitude float 1
LOOKUP_TABLE default
0.000000000000e+00
0.000000000000e+00
0.000000000000e+00
0.000000000000e+00
0.000000000000e+00
0.000000000000e+00
0.000000000000e+00
0.000000000000e+00
0.000000000000e+00
0.000000000000e+00
0.000000000000e+00
0.000000000000e+00
0.000000000000e+00
0.000000000000e+00
0.000000000000e+00
0.000000000000e+00
0.000000000000e+00
0.000000000000e+00
0.000000000000e+00
0.000000000000e+00
0.000000000000e+00
0.000000000000e+00
0.000000000000e+00
0.000000000000e+00
0.000000000000e+00
0.000000000000e+00
0.000000000000e+00
0.000000000000e+00
0.000000000000e+00
0.000000000000e+00
0.000000000000e+00
0.000000000000e+00
0.000000000000e+00
0.000000000000e+00
0.000000000000e+00
0.000000000000e+00
0.000000000000e+00
0.000000000000e+00
0.000000000000e+00
0.000000000000e+00
0.000000000000e+00
0.000000000000e+00
0.000000000000e+00
0.000000000000e+00
0.000000000000e+00
0.000000000000e+00
0.000000000000e+00
0.000000000000e+00
0.000000000000e+00
0.000000000000e+00
0.000000000000e+00
0.000000000000e+00
0.000000000000e+00
0.000000000000e+00
0.000000000000e+00
0.000000000000e+00
0.000000000000e+00
0.000000000000e+00
0.000000000000e+00
0.000000000000e+00
0.000000000000e+00
0.000000000000e+00
0.000000000000e+00
0.000000000000e+00
0.000000000000e+00
0.000000000000e+00
0.000000000000e+00
0.000000000000e+00
0.000000000000e+00
0.000000000000e+00
0.000000000000e+00
0.000000000000e+00
0.000000000000e+00
0.000000000000e+00
0.000000000000e+00
0.000000000000e+00
0.000000000000e+00
0.000000000000e+00
0.000000000000e+00
0.000000000000e+00
0.000000000000e+00
0.000000000000e+00
0.000000000000e+00
0.000000000000e+00
0.000000000000e+00
0.000000000000e+00
0.000000000000e+00
0.000000000000e+00
0.000000000000e+00
0.000000000000e+00
0.000000000000e+00
0.000000000000e+00
0.000000000000e+00
0.000000000000e+00
0.000000000000e+00
0.000000000000e+00
0.000000000000e+00
0.000000000000e+00
0.000000000000e+00
0.000000000000e+00
0.000000000000e+00
0.000000000000e+00
0.000000000000e+00
0.000000000000e+00
0.000000000000e+00
0.000000000000e+00
0.000000000000e+00
0.000000000000e+00
0.000000000000e+00
0.000000000000e+00
0.000000000000e+00
0.000000000000e+00
0.000000000000e+00
0.000000000000e+00
0.000000000000e+00
0.000000000000e+00
0.000000000000e+00
0.000000000000e+00
0.000000000000e+00
0.000000000000e+00
0.000000000000e+00
0.000000000000e+00
0.000000000000e+00
0.000000000000e+00
0.000000000000e+00
1.254765683243e-02
1.254765683171e-02
1.254765683099e-02
1.254765683027e-02
1.254765682956e-02
1.254765683219e-02
1.254765683147e-02
1.254765683075e-02
1.254765683003e-02
1.254765682931e-02
1.254765683195e-02
1.254765683123e-02
1.254765683051e-02
1.254765682979e-02
1.254765682907e-02
1.254765683170e-02
1.254765683099e-02
1.254765683027e-02
1.254765682955e-02
1.254765682883e-02
1.254765683146e-02
1.254765683074e-02
1.254765683002e-02
1.254765682930e-02
1.254765682859e-02
1.254765683243e-02
1.254765683171e-02
1.254765683099e-02
1.254765683027e-02
1.254765682956e-02
1.254765683219e-02
1.254765683147e-02
1.254765683075e-02
1.254765683003e-02
1.254765682931e-02
1.254765683195e-02
1.254765683123e-02
1.254765683051e-02
1.254765682979e-02
1.254765682907e-02
1.254765683170e-02
1.254765683099e-02
1.254765683027e-02
1.254765682955e-02
1.254765682883e-02
1.254765683146e-02
1.254765683074e-02
1.254765683002e-02
1.254765682930e-02
1.254765682859e-02
1.254765683243e-02
1.254765683171e-02
1.254765683099e-02
1.254765683027e-02
1.254765682956e-02
1.254765683219e-02
1.254765683147e-02
1.254765683075e-02
1.254765683003e-02
1.254765682931e-02
1.254765683195e-02
1.254765683123e-02
1.254765683051e-02
1.254765682979e-02
1.254765682907e-02
1.254765683170e-02
1.254765683099e-02
1.254765683027e-02
1.254765682955e-02
1.254765682883e-02
1.254765683146e-02
1.254765683074e-02
1.254765683002e-02
1.254765682930e-02
1.254765682859e-02
1.254765683243e-02
1.254765683171e-02
1.254765683099e-02
1.254765683027e-02
1.254765682956e-02
1.254765683219e-02
1.254765683147e-02
1.254765683075e-02
1.254765683003e-02
1.254765682931e-02
1.254765683195e-02
1.254765683123e-02
1.254765683051e-02
1.254765682979e-02
1.254765682907e-02
1.254765683170e-02
1.254765683099e-02
1.254765683027e-02
1.254765682955e-02
1.254765682883e-02
1.254765683146e-02
1.254765683074e-02
1.254765683002e-02
1.254765682930e-02
1.254765682859e-02
1.254765683243e-02
1.254765683171e-02
1.254765683099e-02
1.254765683027e-02
1.254765682956e-02
1.254765683219e-02
1.254765683147e-02
1.254765683075e-02
1.254765683003e-02
1.254765682931e-02
1.254765683195e-02
1.254765683123e-02
1.254765683051e-02
1.254765682979e-02
1.254765682907e-02
1.254765683170e-02
1.254765683099e-02
1.254765683027e-02
1.254765682955e-02
1.254765682883e-02
1.254765683146e-02
1.254765683074e-02
1.254765683002e-02
1.254765682930e-02
1.254765682859e-02
CELL_DATA 128
SCALARS displacement_magnitude float 1
LOOKUP_TABLE default
0.000000000000e+00
0.000000000000e+00
0.000000000000e+00
0.000000000000e+00
0.000000000000e+00
0.000000000000e+00
0.000000000000e+00
0.000000000000e+00
0.000000000000e+00
0.000000000000e+00
0.000000000000e+00
0.000000000000e+00
0.000000000000e+00
0.000000000000e+00
0.000000000000e+00
0.000000000000e+00
0.000000000000e+00
0.000000000000e+00
0.000000000000e+00
0.000000000000e+00
0.000000000000e+00
0.000000000000e+00
0.000000000000e+00
0.000000000000e+00
0.000000000000e+00
0.000000000000e+00
0.000000000000e+00
0.000000000000e+00
0.000000000000e+00
0.000000000000e+00
0.000000000000e+00
0.000000000000e+00
0.000000000000e+00
0.000000000000e+00
0.000000000000e+00
0.000000000000e+00
0.000000000000e+00
0.000000000000e+00
0.000000000000e+00
0.000000000000e+00
0.000000000000e+00
0.000000000000e+00
0.000000000000e+00
0.000000000000e+00
0.000000000000e+00
0.000000000000e+00
0.000000000000e+00
0.000000000000e+00
0.000000000000e+00
0.000000000000e+00
0.000000000000e+00
0.000000000000e+00
0.000000000000e+00
0.000000000000e+00
0.000000000000e+00
0.000000000000e+00
0.000000000000e+00
0.000000000000e+00
0.000000000000e+00
0.000000000000e+00
0.000000000000e+00
0.000000000000e+00
0.000000000000e+00
0.000000000000e+00
1.254765683195e-02
1.254765683123e-02
1.254765683051e-02
1.254765682979e-02
1.254765683171e-02
1.254765683099e-02
1.254765683027e-02
1.254765682955e-02
1.254765683147e-02
1.254765683075e-02
1.254765683003e-02
1.254765682931e-02
1.254765683122e-02
1.254765683050e-02
1.254765682979e-02
1.254765682907e-02
1.254765683195e-02
1.254765683123e-02
1.254765683051e-02
1.254765682979e-02
1.254765683171e-02
1.254765683099e-02
1.254765683027e-02
1.254765682955e-02
1.254765683147e-02
1.254765683075e-02
1.254765683003e-02
1.254765682931e-02
1.254765683122e-02
1.254765683050e-02
1.254765682979e-02
1.254765682907e-02
1.254765683195e-02
1.254765683123e-02
1.254765683051e-02
1.254765682979e-02
1.254765683171e-02
1.254765683099e-02
1.254765683027e-02
1.254765682955e-02
1.254765683147e-02
1.254765683075e-02
1.254765683003e-02
1.254765682931e-02
1.254765683122e-02
1.254765683050e-02
1.254765682979e-02
1.254765682907e-02
1.254765683195e-02
1.254765683123e-02
1.254765683051e-02
1.254765682979e-02
1.254765683171e-02
1.254765683099e-02
1.254765683027e-02
1.254765682955e-02
1.254765683147e-02
1.254765683075e-02
1.254765683003e-02
1.254765682931e-02
1.254765683122e-02
1.254765683050e-02
1.254765682979e-02
1.254765682907e-02
SCALARS engineering_strain_norm float 1
LOOKUP_TABLE default
0.000000000000e+00
0.000000000000e+00
0.000000000000e+00
0.000000000000e+00
0.000000000000e+00
0.000000000000e+00
0.000000000000e+00
0.000000000000e+00
0.000000000000e+00
0.000000000000e+00
0.000000000000e+00
0.000000000000e+00
0.000000000000e+00
0.000000000000e+00
0.000000000000e+00
0.000000000000e+00
0.000000000000e+00
0.000000000000e+00
0.000000000000e+00
0.000000000000e+00
0.000000000000e+00
0.000000000000e+00
0.000000000000e+00
0.000000000000e+00
0.000000000000e+00
0.000000000000e+00
0.000000000000e+00
0.000000000000e+00
0.000000000000e+00
0.000000000000e+00
0.000000000000e+00
0.000000000000e+00
0.000000000000e+00
0.000000000000e+00
0.000000000000e+00
0.000000000000e+00
0.000000000000e+00
0.000000000000e+00
0.000000000000e+00
0.000000000000e+00
0.000000000000e+00
0.000000000000e+00
0.000000000000e+00
0.000000000000e+00
0.000000000000e+00
0.000000000000e+00
0.000000000000e+00
0.000000000000e+00
0.000000000000e+00
0.000000000000e+00
0.000000000000e+00
0.000000000000e+00
0.000000000000e+00
0.000000000000e+00
0.000000000000e+00
0.000000000000e+00
0.000000000000e+00
0.000000000000e+00
0.000000000000e+00
0.000000000000e+00
0.000000000000e+00
0.000000000000e+00
0.000000000000e+00
0.000000000000e+00
1.106308632868e-16
1.257753954401e-16
1.314051937858e-16
9.438494759735e-17
9.885941608519e-17
1.246877166541e-16
8.339671002988e-17
1.163380650700e-16
6.088951919615e-17
1.182131216875e-16
1.407926177671e-16
1.660463215172e-16
4.448817206780e-17
4.996341210554e-17
6.694766629447e-17
4.421861161798e-17
1.491262099812e-16
1.320727324452e-16
1.163244856369e-16
1.084446183682e-16
9.991073260075e-17
1.530970790885e-16
8.662010501717e-17
3.749462287646e-17
5.625055287924e-17
1.454916667935e-16
1.303240039599e-16
1.280243410465e-16
4.078784070918e-17
5.550569085978e-17
4.891355500879e-17
6.252008822354e-17
1.243776582748e-16
1.105351660044e-16
1.389618247529e-16
9.197195396484e-17
8.529488754613e-17
1.211913815664e-16
1.181847264747e-16
2.989838777336e-17
5.963786785969e-17
8.999429926440e-17
9.671155322883e-17
9.883061814852e-17
3.492791032642e-17
6.697273325579e-17
6.062799582479e-17
6.790383552329e-17
6.427693514778e-17
9.450517694816e-17
1.448947529652e-16
4.957787287611e-17
4.506705983696e-17
7.271469049530e-17
9.490622577446e-17
6.471377137301e-17
4.820573250812e-17
4.403512264194e-17
1.021368243115e-16
8.581721597187e-17
3.891522401767e-17
7.334397751449e-17
8.930900930062e-17
5.410680048039e-17
SCALARS von_mises float 1
LOOKUP_TABLE default
0.000000000000e+00
0.000000000000e+00
0.000000000000e+00
0.000000000000e+00
0.000000000000e+00
0.000000000000e+00
0.000000000000e+00
0.000000000000e+00
0.000000000000e+00
0.000000000000e+00
0.000000000000e+00
0.000000000000e+00
0.000000000000e+00
0.000000000000e+00
0.000000000000e+00
0.000000000000e+00
0.000000000000e+00
0.000000000000e+00
0.000000000000e+00
0.000000000000e+00
0.000000000000e+00
0.000000000000e+00
0.000000000000e+00
0.000000000000e+00
0.000000000000e+00
0.000000000000e+00
0.000000000000e+00
0.000000000000e+00
0.000000000000e+00
0.000000000000e+00
0.000000000000e+00
0.000000000000e+00
0.000000000000e+00
0.000000000000e+00
0.000000000000e+00
0.000000000000e+00
0.000000000000e+00
0.000000000000e+00
0.000000000000e+00
0.000000000000e+00
0.000000000000e+00
0.000000000000e+00
0.000000000000e+00
0.000000000000e+00
0.000000000000e+00
0.000000000000e+00
0.000000000000e+00
0.000000000000e+00
0.000000000000e+00
0.000000000000e+00
0.000000000000e+00
0.000000000000e+00
0.000000000000e+00
0.000000000000e+00
0.000000000000e+00
0.000000000000e+00
0.000000000000e+00
0.000000000000e+00
0.000000000000e+00
0.000000000000e+00
0.000000000000e+00
0.000000000000e+00
0.000000000000e+00
0.000000000000e+00
8.731234112048e-12
9.381131683942e-12
9.499522227680e-12
6.212437342244e-12
8.241922297677e-12
9.456954957561e-12
6.961083506455e-12
8.396496244252e-12
5.412674467943e-12
9.389159630371e-12
1.200772748753e-11
1.305211043460e-11
2.937815160575e-12
3.986934739536e-12
5.954021424078e-12
3.339285079233e-12
1.168077280288e-11
1.094452024313e-11
8.246531369056e-12
7.278050670520e-12
8.621583118571e-12
1.283490660581e-11
6.853539336870e-12
2.683370691467e-12
5.149191416587e-12
1.225593190636e-11
1.121831959740e-11
1.045058942135e-11
2.728847089190e-12
3.975299624943e-12
4.403222477550e-12
4.243130892266e-12
9.100655801203e-12
9.135068436063e-12
9.440953249859e-12
6.195281355331e-12
7.091224212618e-12
9.044483183541e-12
8.110013176167e-12
2.195392386508e-12
4.960772205288e-12
8.011400029586e-12
6.707150787202e-12
6.774795910952e-12
2.449175563692e-12
5.156398552141e-12
4.039599507013e-12
4.525058881939e-12
4.492549850979e-12
7.635984421741e-12
1.046669216024e-11
3.557712492859e-12
3.248748226718e-12
5.551595198353e-12
6.807072188135e-12
4.528257912481e-12
3.148094931424e-12
3.065371561097e-12
6.895546177915e-12
5.736995738622e-12
3.281058213096e-12
5.325859309053e-12
6.269434402264e-12
4.260833910526e-12
SCALARS sdf_gap float 1
LOOKUP_TABLE default
0.000000000000e+00
0.000000000000e+00
0.000000000000e+00
0.000000000000e+00
0.000000000000e+00
0.000000000000e+00
0.000000000000e+00
0.000000000000e+00
0.000000000000e+00
0.000000000000e+00
0.000000000000e+00
0.000000000000e+00
0.000000000000e+00
0.000000000000e+00
0.000000000000e+00
0.000000000000e+00
0.000000000000e+00
0.000000000000e+00
0.000000000000e+00
0.000000000000e+00
0.000000000000e+00
0.000000000000e+00
0.000000000000e+00
0.000000000000e+00
0.000000000000e+00
0.000000000000e+00
0.000000000000e+00
0.000000000000e+00
0.000000000000e+00
0.000000000000e+00
0.000000000000e+00
0.000000000000e+00
0.000000000000e+00
0.000000000000e+00
0.000000000000e+00
0.000000000000e+00
0.000000000000e+00
0.000000000000e+00
0.000000000000e+00
0.000000000000e+00
0.000000000000e+00
0.000000000000e+00
0.000000000000e+00
0.000000000000e+00
0.000000000000e+00
0.000000000000e+00
0.000000000000e+00
0.000000000000e+00
0.000000000000e+00
0.000000000000e+00
0.000000000000e+00
0.000000000000e+00
0.000000000000e+00
0.000000000000e+00
0.000000000000e+00
0.000000000000e+00
0.000000000000e+00
0.000000000000e+00
0.000000000000e+00
0.000000000000e+00
0.000000000000e+00
0.000000000000e+00
0.000000000000e+00
0.000000000000e+00
2.452343168049e-03
2.452343168768e-03
2.452343169487e-03
2.452343170206e-03
2.452343168291e-03
2.452343169010e-03
2.452343169729e-03
2.452343170449e-03
2.452343168534e-03
2.452343169253e-03
2.452343169972e-03
2.452343170691e-03
2.452343168776e-03
2.452343169495e-03
2.452343170214e-03
2.452343170934e-03
0.000000000000e+00
0.000000000000e+00
0.000000000000e+00
0.000000000000e+00
0.000000000000e+00
0.000000000000e+00
0.000000000000e+00
0.000000000000e+00
0.000000000000e+00
0.000000000000e+00
0.000000000000e+00
0.000000000000e+00
0.000000000000e+00
0.000000000000e+00
0.000000000000e+00
0.000000000000e+00
0.000000000000e+00
0.000000000000e+00
0.000000000000e+00
0.000000000000e+00
0.000000000000e+00
0.000000000000e+00
0.000000000000e+00
0.000000000000e+00
0.000000000000e+00
0.000000000000e+00
0.000000000000e+00
0.000000000000e+00
0.000000000000e+00
0.000000000000e+00
0.000000000000e+00
0.000000000000e+00
0.000000000000e+00
0.000000000000e+00
0.000000000000e+00
0.000000000000e+00
0.000000000000e+00
0.000000000000e+00
0.000000000000e+00
0.000000000000e+00
0.000000000000e+00
0.000000000000e+00
0.000000000000e+00
0.000000000000e+00
0.000000000000e+00
0.000000000000e+00
0.000000000000e+00
0.000000000000e+00
SCALARS contact_pressure float 1
LOOKUP_TABLE default
0.000000000000e+00
0.000000000000e+00
0.000000000000e+00
0.000000000000e+00
0.000000000000e+00
0.000000000000e+00
0.000000000000e+00
0.000000000000e+00
0.000000000000e+00
0.000000000000e+00
0.000000000000e+00
0.000000000000e+00
0.000000000000e+00
0.000000000000e+00
0.000000000000e+00
0.000000000000e+00
0.000000000000e+00
0.000000000000e+00
0.000000000000e+00
0.000000000000e+00
0.000000000000e+00
0.000000000000e+00
0.000000000000e+00
0.000000000000e+00
0.000000000000e+00
0.000000000000e+00
0.000000000000e+00
0.000000000000e+00
0.000000000000e+00
0.000000000000e+00
0.000000000000e+00
0.000000000000e+00
0.000000000000e+00
0.000000000000e+00
0.000000000000e+00
0.000000000000e+00
0.000000000000e+00
0.000000000000e+00
0.000000000000e+00
0.000000000000e+00
0.000000000000e+00
0.000000000000e+00
0.000000000000e+00
0.000000000000e+00
0.000000000000e+00
0.000000000000e+00
0.000000000000e+00
0.000000000000e+00
0.000000000000e+00
0.000000000000e+00
0.000000000000e+00
0.000000000000e+00
0.000000000000e+00
0.000000000000e+00
0.000000000000e+00
0.000000000000e+00
0.000000000000e+00
0.000000000000e+00
0.000000000000e+00
0.000000000000e+00
0.000000000000e+00
0.000000000000e+00
0.000000000000e+00
0.000000000000e+00
0.000000000000e+00
0.000000000000e+00
0.000000000000e+00
0.000000000000e+00
0.000000000000e+00
0.000000000000e+00
0.000000000000e+00
0.000000000000e+00
0.000000000000e+00
0.000000000000e+00
0.000000000000e+00
0.000000000000e+00
0.000000000000e+00
0.000000000000e+00
0.000000000000e+00
0.000000000000e+00
0.000000000000e+00
0.000000000000e+00
0.000000000000e+00
0.000000000000e+00
0.000000000000e+00
0.000000000000e+00
0.000000000000e+00
0.000000000000e+00
0.000000000000e+00
0.000000000000e+00
0.000000000000e+00
0.000000000000e+00
0.000000000000e+00
0.000000000000e+00
0.000000000000e+00
0.000000000000e+00
0.000000000000e+00
0.000000000000e+00
0.000000000000e+00
0.000000000000e+00
0.000000000000e+00
0.000000000000e+00
0.000000000000e+00
0.000000000000e+00
0.000000000000e+00
0.000000000000e+00
0.000000000000e+00
0.000000000000e+00
0.000000000000e+00
0.000000000000e+00
0.000000000000e+00
0.000000000000e+00
0.000000000000e+00
0.000000000000e+00
0.000000000000e+00
0.000000000000e+00
0.000000000000e+00
0.000000000000e+00
0.000000000000e+00
0.000000000000e+00
0.000000000000e+00
0.000000000000e+00
0.000000000000e+00
0.000000000000e+00
0.000000000000e+00
0.000000000000e+00
0.000000000000e+00
0.000000000000e+00
SCALARS active_contact float 1
LOOKUP_TABLE default
0.000000000000e+00
0.000000000000e+00
0.000000000000e+00
0.000000000000e+00
0.000000000000e+00
0.000000000000e+00
0.000000000000e+00
0.000000000000e+00
0.000000000000e+00
0.000000000000e+00
0.000000000000e+00
0.000000000000e+00
0.000000000000e+00
0.000000000000e+00
0.000000000000e+00
0.000000000000e+00
0.000000000000e+00
0.000000000000e+00
0.000000000000e+00
0.000000000000e+00
0.000000000000e+00
0.000000000000e+00
0.000000000000e+00
0.000000000000e+00
0.000000000000e+00
0.000000000000e+00
0.000000000000e+00
0.000000000000e+00
0.000000000000e+00
0.000000000000e+00
0.000000000000e+00
0.000000000000e+00
0.000000000000e+00
0.000000000000e+00
0.000000000000e+00
0.000000000000e+00
0.000000000000e+00
0.000000000000e+00
0.000000000000e+00
0.000000000000e+00
0.000000000000e+00
0.000000000000e+00
0.000000000000e+00
0.000000000000e+00
0.000000000000e+00
0.000000000000e+00
0.000000000000e+00
0.000000000000e+00
0.000000000000e+00
0.000000000000e+00
0.000000000000e+00
0.000000000000e+00
0.000000000000e+00
0.000000000000e+00
0.000000000000e+00
0.000000000000e+00
0.000000000000e+00
0.000000000000e+00
0.000000000000e+00
0.000000000000e+00
0.000000000000e+00
0.000000000000e+00
0.000000000000e+00
0.000000000000e+00
0.000000000000e+00
0.000000000000e+00
0.000000000000e+00
0.000000000000e+00
0.000000000000e+00
0.000000000000e+00
0.000000000000e+00
0.000000000000e+00
0.000000000000e+00
0.000000000000e+00
0.000000000000e+00
0.000000000000e+00
0.000000000000e+00
0.000000000000e+00
0.000000000000e+00
0.000000000000e+00
0.000000000000e+00
0.000000000000e+00
0.000000000000e+00
0.000000000000e+00
0.000000000000e+00
0.000000000000e+00
0.000000000000e+00
0.000000000000e+00
0.000000000000e+00
0.000000000000e+00
0.000000000000e+00
0.000000000000e+00
0.000000000000e+00
0.000000000000e+00
0.000000000000e+00
0.000000000000e+00
0.000000000000e+00
0.000000000000e+00
0.000000000000e+00
0.000000000000e+00
0.000000000000e+00
0.000000000000e+00
0.000000000000e+00
0.000000000000e+00
0.000000000000e+00
0.000000000000e+00
0.000000000000e+00
0.000000000000e+00
0.000000000000e+00
0.000000000000e+00
0.000000000000e+00
0.000000000000e+00
0.000000000000e+00
0.000000000000e+00
0.000000000000e+00
0.000000000000e+00
0.000000000000e+00
0.000000000000e+00
0.000000000000e+00
0.000000000000e+00
0.000000000000e+00
0.000000000000e+00
0.000000000000e+00
0.000000000000e+00
0.000000000000e+00
0.000000000000e+00
0.000000000000e+00
0.000000000000e+00
