# vtk DataFile Version 3.0
SFC long-time C3D8 dynamic frame 136 t=2.720000000000e+00
ASCII
DATASET UNSTRUCTURED_GRID
POINTS 250 float
-2.500000000000e-01 -2.500000000000e-01 0.000000000000e+00
-1.250000000000e-01 -2.500000000000e-01 0.000000000000e+00
0.000000000000e+00 -2.500000000000e-01 0.000000000000e+00
1.250000000000e-01 -2.500000000000e-01 0.000000000000e+00
2.500000000000e-01 -2.500000000000e-01 0.000000000000e+00
-2.500000000000e-01 -1.250000000000e-01 0.000000000000e+00
-1.250000000000e-01 -1.250000000000e-01 0.000000000000e+00
0.000000000000e+00 -1.250000000000e-01 0.000000000000e+00
1.250000000000e-01 -1.250000000000e-01 0.000000000000e+00
2.500000000000e-01 -1.250000000000e-01 0.000000000000e+00
-2.500000000000e-01 0.000000000000e+00 0.000000000000e+00
-1.250000000000e-01 0.000000000000e+00 0.000000000000e+00
0.000000000000e+00 0.000000000000e+00 0.000000000000e+00
1.250000000000e-01 0.000000000000e+00 0.000000000000e+00
2.500000000000e-01 0.000000000000e+00 0.000000000000e+00
-2.500000000000e-01 1.250000000000e-01 0.000000000000e+00
-1.250000000000e-01 1.250000000000e-01 0.000000000000e+00
0.000000000000e+00 1.250000000000e-01 0.000000000000e+00
1.250000000000e-01 1.250000000000e-01 0.000000000000e+00
2.500000000000e-01 1.250000000000e-01 0.000000000000e+00
-2.500000000000e-01 2.500000000000e-01 0.000000000000e+00
-1.250000000000e-01 2.500000000000e-01 0.000000000000e+00
0.000000000000e+00 2.500000000000e-01 0.000000000000e+00
1.250000000000e-01 2.500000000000e-01 0.000000000000e+00
2.500000000000e-01 2.500000000000e-01 0.000000000000e+00
-2.500000000000e-01 -2.500000000000e-01 6.000000000000e-02
-1.250000000000e-01 -2.500000000000e-01 6.000000000000e-02
0.000000000000e+00 -2.500000000000e-01 6.000000000000e-02
1.250000000000e-01 -2.500000000000e-01 6.000000000000e-02
2.500000000000e-01 -2.500000000000e-01 6.000000000000e-02
-2.500000000000e-01 -1.250000000000e-01 6.000000000000e-02
-1.250000000000e-01 -1.250000000000e-01 6.000000000000e-02
0.000000000000e+00 -1.250000000000e-01 6.000000000000e-02
1.250000000000e-01 -1.250000000000e-01 6.000000000000e-02
2.500000000000e-01 -1.250000000000e-01 6.000000000000e-02
-2.500000000000e-01 0.000000000000e+00 6.000000000000e-02
-1.250000000000e-01 0.000000000000e+00 6.000000000000e-02
0.000000000000e+00 0.000000000000e+00 6.000000000000e-02
1.250000000000e-01 0.000000000000e+00 6.000000000000e-02
2.500000000000e-01 0.000000000000e+00 6.000000000000e-02
-2.500000000000e-01 1.250000000000e-01 6.000000000000e-02
-1.250000000000e-01 1.250000000000e-01 6.000000000000e-02
0.000000000000e+00 1.250000000000e-01 6.000000000000e-02
1.250000000000e-01 1.250000000000e-01 6.000000000000e-02
2.500000000000e-01 1.250000000000e-01 6.000000000000e-02
-2.500000000000e-01 2.500000000000e-01 6.000000000000e-02
-1.250000000000e-01 2.500000000000e-01 6.000000000000e-02
0.000000000000e+00 2.500000000000e-01 6.000000000000e-02
1.250000000000e-01 2.500000000000e-01 6.000000000000e-02
2.500000000000e-01 2.500000000000e-01 6.000000000000e-02
-2.500000000000e-01 -2.500000000000e-01 1.200000000000e-01
-1.250000000000e-01 -2.500000000000e-01 1.200000000000e-01
0.000000000000e+00 -2.500000000000e-01 1.200000000000e-01
1.250000000000e-01 -2.500000000000e-01 1.200000000000e-01
2.500000000000e-01 -2.500000000000e-01 1.200000000000e-01
-2.500000000000e-01 -1.250000000000e-01 1.200000000000e-01
-1.250000000000e-01 -1.250000000000e-01 1.200000000000e-01
0.000000000000e+00 -1.250000000000e-01 1.200000000000e-01
1.250000000000e-01 -1.250000000000e-01 1.200000000000e-01
2.500000000000e-01 -1.250000000000e-01 1.200000000000e-01
-2.500000000000e-01 0.000000000000e+00 1.200000000000e-01
-1.250000000000e-01 0.000000000000e+00 1.200000000000e-01
0.000000000000e+00 0.000000000000e+00 1.200000000000e-01
1.250000000000e-01 0.000000000000e+00 1.200000000000e-01
2.500000000000e-01 0.000000000000e+00 1.200000000000e-01
-2.500000000000e-01 1.250000000000e-01 1.200000000000e-01
-1.250000000000e-01 1.250000000000e-01 1.200000000000e-01
0.000000000000e+00 1.250000000000e-01 1.200000000000e-01
1.250000000000e-01 1.250000000000e-01 1.200000000000e-01
2.500000000000e-01 1.250000000000e-01 1.200000000000e-01
-2.500000000000e-01 2.500000000000e-01 1.200000000000e-01
-1.250000000000e-01 2.500000000000e-01 1.200000000000e-01
0.000000000000e+00 2.500000000000e-01 1.200000000000e-01
1.250000000000e-01 2.500000000000e-01 1.200000000000e-01
2.500000000000e-01 2.500000000000e-01 1.200000000000e-01
-2.500000000000e-01 -2.500000000000e-01 1.800000000000e-01
-1.250000000000e-01 -2.500000000000e-01 1.800000000000e-01
0.000000000000e+00 -2.500000000000e-01 1.800000000000e-01
1.250000000000e-01 -2.500000000000e-01 1.800000000000e-01
2.500000000000e-01 -2.500000000000e-01 1.800000000000e-01
-2.500000000000e-01 -1.250000000000e-01 1.800000000000e-01
-1.250000000000e-01 -1.250000000000e-01 1.800000000000e-01
0.000000000000e+00 -1.250000000000e-01 1.800000000000e-01
1.250000000000e-01 -1.250000000000e-01 1.800000000000e-01
2.500000000000e-01 -1.250000000000e-01 1.800000000000e-01
-2.500000000000e-01 0.000000000000e+00 1.800000000000e-01
-1.250000000000e-01 0.000000000000e+00 1.800000000000e-01
0.000000000000e+00 0.000000000000e+00 1.800000000000e-01
1.250000000000e-01 0.000000000000e+00 1.800000000000e-01
2.500000000000e-01 0.000000000000e+00 1.800000000000e-01
-2.500000000000e-01 1.250000000000e-01 1.800000000000e-01
-1.250000000000e-01 1.250000000000e-01 1.800000000000e-01
0.000000000000e+00 1.250000000000e-01 1.800000000000e-01
1.250000000000e-01 1.250000000000e-01 1.800000000000e-01
2.500000000000e-01 1.250000000000e-01 1.800000000000e-01
-2.500000000000e-01 2.500000000000e-01 1.800000000000e-01
-1.250000000000e-01 2.500000000000e-01 1.800000000000e-01
0.000000000000e+00 2.500000000000e-01 1.800000000000e-01
1.250000000000e-01 2.500000000000e-01 1.800000000000e-01
2.500000000000e-01 2.500000000000e-01 1.800000000000e-01
-2.500000000000e-01 -2.500000000000e-01 2.400000000000e-01
-1.250000000000e-01 -2.500000000000e-01 2.400000000000e-01
0.000000000000e+00 -2.500000000000e-01 2.400000000000e-01
1.250000000000e-01 -2.500000000000e-01 2.400000000000e-01
2.500000000000e-01 -2.500000000000e-01 2.400000000000e-01
-2.500000000000e-01 -1.250000000000e-01 2.400000000000e-01
-1.250000000000e-01 -1.250000000000e-01 2.400000000000e-01
0.000000000000e+00 -1.250000000000e-01 2.400000000000e-01
1.250000000000e-01 -1.250000000000e-01 2.400000000000e-01
2.500000000000e-01 -1.250000000000e-01 2.400000000000e-01
-2.500000000000e-01 0.000000000000e+00 2.400000000000e-01
-1.250000000000e-01 0.000000000000e+00 2.400000000000e-01
0.000000000000e+00 0.000000000000e+00 2.400000000000e-01
1.250000000000e-01 0.000000000000e+00 2.400000000000e-01
2.500000000000e-01 0.000000000000e+00 2.400000000000e-01
-2.500000000000e-01 1.250000000000e-01 2.400000000000e-01
-1.250000000000e-01 1.250000000000e-01 2.400000000000e-01
0.000000000000e+00 1.250000000000e-01 2.400000000000e-01
1.250000000000e-01 1.250000000000e-01 2.400000000000e-01
2.500000000000e-01 1.250000000000e-01 2.400000000000e-01
-2.500000000000e-01 2.500000000000e-01 2.400000000000e-01
-1.250000000000e-01 2.500000000000e-01 2.400000000000e-01
0.000000000000e+00 2.500000000000e-01 2.400000000000e-01
1.250000000000e-01 2.500000000000e-01 2.400000000000e-01
2.500000000000e-01 2.500000000000e-01 2.400000000000e-01
-2.500016979883e-01 -2.500016979884e-01 2.399499359030e-01
-1.250008616795e-01 -2.500017095739e-01 2.399493331744e-01
3.644155861000e-14 -2.500017227632e-01 2.399491185140e-01
1.250008616796e-01 -2.500017095739e-01 2.399493331744e-01
2.500016979884e-01 -2.500016979884e-01 2.399499359030e-01
-2.500017095738e-01 -1.250008616796e-01 2.399493331744e-01
-1.250008653335e-01 -1.250008653336e-01 2.399487232008e-01
3.524170793055e-14 -1.250008765077e-01 2.399485050552e-01
1.250008653336e-01 -1.250008653336e-01 2.399487232008e-01
2.500017095739e-01 -1.250008616796e-01 2.399493331744e-01
-2.500017227632e-01 -4.600163252778e-14 2.399491185140e-01
-1.250008765077e-01 -4.480092142910e-14 2.399485050552e-01
3.403501494062e-14 -4.360364737327e-14 2.399482851900e-01
1.250008765077e-01 -4.240349616628e-14 2.399485050552e-01
2.500017227632e-01 -4.120769281715e-14 2.399491185140e-01
-2.500017095738e-01 1.250008616795e-01 2.399493331744e-01
-1.250008653335e-01 1.250008653335e-01 2.399487232008e-01
3.283149503864e-14 1.250008765076e-01 2.399485050552e-01
1.250008653335e-01 1.250008653335e-01 2.399487232008e-01
2.500017095739e-01 1.250008616795e-01 2.399493331744e-01
-2.500016979883e-01 2.500016979883e-01 2.399499359030e-01
-1.250008616795e-01 2.500017095738e-01 2.399493331744e-01
3.163175539946e-14 2.500017227632e-01 2.399491185140e-01
1.250008616796e-01 2.500017095738e-01 2.399493331744e-01
2.500016979884e-01 2.500016979883e-01 2.399499359030e-01
-2.500013020735e-01 -2.500013020735e-01 3.049485493115e-01
-1.250006383260e-01 -2.500013130400e-01 3.049479285409e-01
3.644112013584e-14 -2.500013272540e-01 3.049477133795e-01
1.250006383261e-01 -2.500013130400e-01 3.049479285409e-01
2.500013020735e-01 -2.500013020735e-01 3.049485493115e-01
-2.500013130399e-01 -1.250006383261e-01 3.049479285409e-01
-1.250006398033e-01 -1.250006398034e-01 3.049473013540e-01
3.524246929547e-14 -1.250006496717e-01 3.049470826385e-01
1.250006398034e-01 -1.250006398034e-01 3.049473013540e-01
2.500013130400e-01 -1.250006383261e-01 3.049479285409e-01
-2.500013272539e-01 -4.600451123621e-14 3.049477133795e-01
-1.250006496716e-01 -4.480668247367e-14 3.049470826385e-01
3.404223197192e-14 -4.360334042608e-14 3.049468603080e-01
1.250006496716e-01 -4.240261572413e-14 3.049470826385e-01
2.500013272540e-01 -4.120270622998e-14 3.049477133795e-01
-2.500013130399e-01 1.250006383260e-01 3.049479285409e-01
-1.250006398033e-01 1.250006398033e-01 3.049473013540e-01
3.283832366153e-14 1.250006496716e-01 3.049470826385e-01
1.250006398034e-01 1.250006398033e-01 3.049473013540e-01
2.500013130400e-01 1.250006383260e-01 3.049479285409e-01
-2.500013020735e-01 2.500013020734e-01 3.049485493115e-01
-1.250006383260e-01 2.500013130399e-01 3.049479285409e-01
3.163350692696e-14 2.500013272539e-01 3.049477133795e-01
1.250006383261e-01 2.500013130399e-01 3.049479285409e-01
2.500013020735e-01 2.500013020734e-01 3.049485493115e-01
-2.500008436435e-01 -2.500008436436e-01 3.699475726214e-01
-1.250004111200e-01 -2.500008491695e-01 3.699469485535e-01
3.644413742825e-14 -2.500008627253e-01 3.699467405400e-01
1.250004111201e-01 -2.500008491695e-01 3.699469485535e-01
2.500008436436e-01 -2.500008436436e-01 3.699475726214e-01
-2.500008491694e-01 -1.250004111201e-01 3.699469485535e-01
-1.250004122803e-01 -1.250004122804e-01 3.699463199489e-01
3.524350842921e-14 -1.250004217861e-01 3.699461093240e-01
1.250004122803e-01 -1.250004122804e-01 3.699463199489e-01
2.500008491695e-01 -1.250004111201e-01 3.699469485535e-01
-2.500008627252e-01 -4.601029667539e-14 3.699467405400e-01
-1.250004217860e-01 -4.480721593325e-14 3.699461093240e-01
3.404447181621e-14 -4.360688627609e-14 3.699458941706e-01
1.250004217861e-01 -4.240186983868e-14 3.699461093240e-01
2.500008627253e-01 -4.120194554892e-14 3.699467405400e-01
-2.500008491695e-01 1.250004111200e-01 3.699469485535e-01
-1.250004122803e-01 1.250004122803e-01 3.699463199489e-01
3.284132376332e-14 1.250004217860e-01 3.699461093240e-01
1.250004122803e-01 1.250004122803e-01 3.699463199489e-01
2.500008491695e-01 1.250004111200e-01 3.699469485535e-01
-2.500008436435e-01 2.500008436435e-01 3.699475726214e-01
-1.250004111200e-01 2.500008491694e-01 3.699469485535e-01
3.163713560002e-14 2.500008627252e-01 3.699467405400e-01
1.250004111201e-01 2.500008491694e-01 3.699469485535e-01
2.500008436436e-01 2.500008436435e-01 3.699475726214e-01
-2.500004032772e-01 -2.500004032773e-01 4.349469827140e-01
-1.250001904982e-01 -2.500004075432e-01 4.349463745038e-01
3.644785223578e-14 -2.500004244458e-01 4.349461695738e-01
1.250001904982e-01 -2.500004075432e-01 4.349463745038e-01
2.500004032773e-01 -2.500004032773e-01 4.349469827140e-01
-2.500004075431e-01 -1.250001904982e-01 4.349463745038e-01
-1.250001915591e-01 -1.250001915592e-01 4.349457651525e-01
3.524775102233e-14 -1.250002020357e-01 4.349455581914e-01
1.250001915592e-01 -1.250001915592e-01 4.349457651525e-01
2.500004075432e-01 -1.250001904982e-01 4.349463745038e-01
-2.500004244457e-01 -4.601226910710e-14 4.349461695738e-01
-1.250002020356e-01 -4.480794764817e-14 4.349455581914e-01
3.404900051824e-14 -4.360588453204e-14 4.349453456138e-01
1.250002020357e-01 -4.240122920392e-14 4.349455581914e-01
2.500004244458e-01 -4.120210117965e-14 4.349461695738e-01
-2.500004075431e-01 1.250001904981e-01 4.349463745038e-01
-1.250001915591e-01 1.250001915591e-01 4.349457651525e-01
3.284549747593e-14 1.250002020356e-01 4.349455581914e-01
1.250001915592e-01 1.250001915591e-01 4.349457651525e-01
2.500004075432e-01 1.250001904981e-01 4.349463745038e-01
-2.500004032772e-01 2.500004032772e-01 4.349469827140e-01
-1.250001904982e-01 2.500004075431e-01 4.349463745038e-01
3.164766051137e-14 2.500004244457e-01 4.349461695738e-01
1.250001904982e-01 2.500004075431e-01 4.349463745038e-01
2.500004032773e-01 2.500004032772e-01 4.349469827140e-01
-2.500000291870e-01 -2.500000291871e-01 4.999467657417e-01
-1.249999786877e-01 -2.500000387819e-01 4.999461735722e-01
3.645044887769e-14 -2.500000612380e-01 4.999459735821e-01
1.249999786878e-01 -2.500000387819e-01 4.999461735722e-01
2.500000291871e-01 -2.500000291871e-01 4.999467657417e-01
-2.500000387819e-01 -1.249999786878e-01 4.999461735722e-01
-1.249999791583e-01 -1.249999791584e-01 4.999455835353e-01
3.525267879602e-14 -1.249999895060e-01 4.999453824571e-01
1.249999791584e-01 -1.249999791584e-01 4.999455835353e-01
2.500000387819e-01 -1.249999786878e-01 4.999461735722e-01
-2.500000612380e-01 -4.601635389634e-14 4.999459735821e-01
-1.249999895060e-01 -4.480676884115e-14 4.999453824571e-01
3.405550059798e-14 -4.360693183949e-14 4.999451755337e-01
1.249999895060e-01 -4.239712365482e-14 4.999453824571e-01
2.500000612380e-01 -4.119346358310e-14 4.999459735821e-01
-2.500000387819e-01 1.249999786877e-01 4.999461735722e-01
-1.249999791583e-01 1.249999791583e-01 4.999455835353e-01
3.285445099009e-14 1.249999895060e-01 4.999453824571e-01
1.249999791584e-01 1.249999791583e-01 4.999455835353e-01
2.500000387819e-01 1.249999786877e-01 4.999461735722e-01
-2.500000291870e-01 2.500000291870e-01 4.999467657417e-01
-1.249999786877e-01 2.500000387818e-01 4.999461735722e-01
3.165216593319e-14 2.500000612380e-01 4.999459735821e-01
1.249999786878e-01 2.500000387818e-01 4.999461735722e-01
2.500000291871e-01 2.500000291870e-01 4.999467657417e-01
CELLS 128 1152
8 0 1 6 5 25 26 31 30
8 1 2 7 6 26 27 32 31
8 2 3 8 7 27 28 33 32
8 3 4 9 8 28 29 34 33
8 5 6 11 10 30 31 36 35
8 6 7 12 11 31 32 37 36
8 7 8 13 12 32 33 38 37
8 8 9 14 13 33 34 39 38
8 10 11 16 15 35 36 41 40
8 11 12 17 16 36 37 42 41
8 12 13 18 17 37 38 43 42
8 13 14 19 18 38 39 44 43
8 15 16 21 20 40 41 46 45
8 16 17 22 21 41 42 47 46
8 17 18 23 22 42 43 48 47
8 18 19 24 23 43 44 49 48
8 25 26 31 30 50 51 56 55
8 26 27 32 31 51 52 57 56
8 27 28 33 32 52 53 58 57
8 28 29 34 33 53 54 59 58
8 30 31 36 35 55 56 61 60
8 31 32 37 36 56 57 62 61
8 32 33 38 37 57 58 63 62
8 33 34 39 38 58 59 64 63
8 35 36 41 40 60 61 66 65
8 36 37 42 41 61 62 67 66
8 37 38 43 42 62 63 68 67
8 38 39 44 43 63 64 69 68
8 40 41 46 45 65 66 71 70
8 41 42 47 46 66 67 72 71
8 42 43 48 47 67 68 73 72
8 43 44 49 48 68 69 74 73
8 50 51 56 55 75 76 81 80
8 51 52 57 56 76 77 82 81
8 52 53 58 57 77 78 83 82
8 53 54 59 58 78 79 84 83
8 55 56 61 60 80 81 86 85
8 56 57 62 61 81 82 87 86
8 57 58 63 62 82 83 88 87
8 58 59 64 63 83 84 89 88
8 60 61 66 65 85 86 91 90
8 61 62 67 66 86 87 92 91
8 62 63 68 67 87 88 93 92
8 63 64 69 68 88 89 94 93
8 65 66 71 70 90 91 96 95
8 66 67 72 71 91 92 97 96
8 67 68 73 72 92 93 98 97
8 68 69 74 73 93 94 99 98
8 75 76 81 80 100 101 106 105
8 76 77 82 81 101 102 107 106
8 77 78 83 82 102 103 108 107
8 78 79 84 83 103 104 109 108
8 80 81 86 85 105 106 111 110
8 81 82 87 86 106 107 112 111
8 82 83 88 87 107 108 113 112
8 83 84 89 88 108 109 114 113
8 85 86 91 90 110 111 116 115
8 86 87 92 91 111 112 117 116
8 87 88 93 92 112 113 118 117
8 88 89 94 93 113 114 119 118
8 90 91 96 95 115 116 121 120
8 91 92 97 96 116 117 122 121
8 92 93 98 97 117 118 123 122
8 93 94 99 98 118 119 124 123
8 125 126 131 130 150 151 156 155
8 126 127 132 131 151 152 157 156
8 127 128 133 132 152 153 158 157
8 128 129 134 133 153 154 159 158
8 130 131 136 135 155 156 161 160
8 131 132 137 136 156 157 162 161
8 132 133 138 137 157 158 163 162
8 133 134 139 138 158 159 164 163
8 135 136 141 140 160 161 166 165
8 136 137 142 141 161 162 167 166
8 137 138 143 142 162 163 168 167
8 138 139 144 143 163 164 169 168
8 140 141 146 145 165 166 171 170
8 141 142 147 146 166 167 172 171
8 142 143 148 147 167 168 173 172
8 143 144 149 148 168 169 174 173
8 150 151 156 155 175 176 181 180
8 151 152 157 156 176 177 182 181
8 152 153 158 157 177 178 183 182
8 153 154 159 158 178 179 184 183
8 155 156 161 160 180 181 186 185
8 156 157 162 161 181 182 187 186
8 157 158 163 162 182 183 188 187
8 158 159 164 163 183 184 189 188
8 160 161 166 165 185 186 191 190
8 161 162 167 166 186 187 192 191
8 162 163 168 167 187 188 193 192
8 163 164 169 168 188 189 194 193
8 165 166 171 170 190 191 196 195
8 166 167 172 171 191 192 197 196
8 167 168 173 172 192 193 198 197
8 168 169 174 173 193 194 199 198
8 175 176 181 180 200 201 206 205
8 176 177 182 181 201 202 207 206
8 177 178 183 182 202 203 208 207
8 178 179 184 183 203 204 209 208
8 180 181 186 185 205 206 211 210
8 181 182 187 186 206 207 212 211
8 182 183 188 187 207 208 213 212
8 183 184 189 188 208 209 214 213
8 185 186 191 190 210 211 216 215
8 186 187 192 191 211 212 217 216
8 187 188 193 192 212 213 218 217
8 188 189 194 193 213 214 219 218
8 190 191 196 195 215 216 221 220
8 191 192 197 196 216 217 222 221
8 192 193 198 197 217 218 223 222
8 193 194 199 198 218 219 224 223
8 200 201 206 205 225 226 231 230
8 201 202 207 206 226 227 232 231
8 202 203 208 207 227 228 233 232
8 203 204 209 208 228 229 234 233
8 205 206 211 210 230 231 236 235
8 206 207 212 211 231 232 237 236
8 207 208 213 212 232 233 238 237
8 208 209 214 213 233 234 239 238
8 210 211 216 215 235 236 241 240
8 211 212 217 216 236 237 242 241
8 212 213 218 217 237 238 243 242
8 213 214 219 218 238 239 244 243
8 215 216 221 220 240 241 246 245
8 216 217 222 221 241 242 247 246
8 217 218 223 222 242 243 248 247
8 218 219 224 223 243 244 249 248
CELL_TYPES 128
12
12
12
12
12
12
12
12
12
12
12
12
12
12
12
12
12
12
12
12
12
12
12
12
12
12
12
12
12
12
12
12
12
12
12
12
12
12
12
12
12
12
12
12
12
12
12
12
12
12
12
12
12
12
12
12
12
12
12
12
12
12
12
12
12
12
12
12
12
12
12
12
12
12
12
12
12
12
12
12
12
12
12
12
12
12
12
12
12
12
12
12
12
12
12
12
12
12
12
12
12
12
12
12
12
12
12
12
12
12
12
12
12
12
12
12
12
12
12
12
12
12
12
12
12
12
12
12
POINT_DATA 250
VECTORS displacement float
0.000000000000e+00 0.000000000000e+00 0.000000000000e+00
0.000000000000e+00 0.000000000000e+00 0.000000000000e+00
0.000000000000e+00 0.000000000000e+00 0.000000000000e+00
0.000000000000e+00 0.000000000000e+00 0.000000000000e+00
0.000000000000e+00 0.000000000000e+00 0.000000000000e+00
0.000000000000e+00 0.000000000000e+00 0.000000000000e+00
0.000000000000e+00 0.000000000000e+00 0.000000000000e+00
0.000000000000e+00 0.000000000000e+00 0.000000000000e+00
0.000000000000e+00 0.000000000000e+00 0.000000000000e+00
0.000000000000e+00 0.000000000000e+00 0.000000000000e+00
0.000000000000e+00 0.000000000000e+00 0.000000000000e+00
0.000000000000e+00 0.000000000000e+00 0.000000000000e+00
0.000000000000e+00 0.000000000000e+00 0.000000000000e+00
0.000000000000e+00 0.000000000000e+00 0.000000000000e+00
0.000000000000e+00 0.000000000000e+00 0.000000000000e+00
0.000000000000e+00 0.000000000000e+00 0.000000000000e+00
0.000000000000e+00 0.000000000000e+00 0.000000000000e+00
0.000000000000e+00 0.000000000000e+00 0.000000000000e+00
0.000000000000e+00 0.000000000000e+00 0.000000000000e+00
0.000000000000e+00 0.000000000000e+00 0.000000000000e+00
0.000000000000e+00 0.000000000000e+00 0.000000000000e+00
0.000000000000e+00 0.000000000000e+00 0.000000000000e+00
0.000000000000e+00 0.000000000000e+00 0.000000000000e+00
0.000000000000e+00 0.000000000000e+00 0.000000000000e+00
0.000000000000e+00 0.000000000000e+00 0.000000000000e+00
0.000000000000e+00 0.000000000000e+00 0.000000000000e+00
0.000000000000e+00 0.000000000000e+00 0.000000000000e+00
0.000000000000e+00 0.000000000000e+00 0.000000000000e+00
0.000000000000e+00 0.000000000000e+00 0.000000000000e+00
0.000000000000e+00 0.000000000000e+00 0.000000000000e+00
0.000000000000e+00 0.000000000000e+00 0.000000000000e+00
0.000000000000e+00 0.000000000000e+00 0.000000000000e+00
0.000000000000e+00 0.000000000000e+00 0.000000000000e+00
0.000000000000e+00 0.000000000000e+00 0.000000000000e+00
0.000000000000e+00 0.000000000000e+00 0.000000000000e+00
0.000000000000e+00 0.000000000000e+00 0.000000000000e+00
0.000000000000e+00 0.000000000000e+00 0.000000000000e+00
0.000000000000e+00 0.000000000000e+00 0.000000000000e+00
0.000000000000e+00 0.000000000000e+00 0.000000000000e+00
0.000000000000e+00 0.000000000000e+00 0.000000000000e+00
0.000000000000e+00 0.000000000000e+00 0.000000000000e+00
0.000000000000e+00 0.000000000000e+00 0.000000000000e+00
0.000000000000e+00 0.000000000000e+00 0.000000000000e+00
0.000000000000e+00 0.000000000000e+00 0.000000000000e+00
0.000000000000e+00 0.000000000000e+00 0.000000000000e+00
0.000000000000e+00 0.000000000000e+00 0.000000000000e+00
0.000000000000e+00 0.000000000000e+00 0.000000000000e+00
0.000000000000e+00 0.000000000000e+00 0.000000000000e+00
0.000000000000e+00 0.000000000000e+00 0.000000000000e+00
0.000000000000e+00 0.000000000000e+00 0.000000000000e+00
0.000000000000e+00 0.000000000000e+00 0.000000000000e+00
0.000000000000e+00 0.000000000000e+00 0.000000000000e+00
0.000000000000e+00 0.000000000000e+00 0.000000000000e+00
0.000000000000e+00 0.000000000000e+00 0.000000000000e+00
0.000000000000e+00 0.000000000000e+00 0.000000000000e+00
0.000000000000e+00 0.000000000000e+00 0.000000000000e+00
0.000000000000e+00 0.000000000000e+00 0.000000000000e+00
0.000000000000e+00 0.000000000000e+00 0.000000000000e+00
0.000000000000e+00 0.000000000000e+00 0.000000000000e+00
0.000000000000e+00 0.000000000000e+00 0.000000000000e+00
0.000000000000e+00 0.000000000000e+00 0.000000000000e+00
0.000000000000e+00 0.000000000000e+00 0.000000000000e+00
0.000000000000e+00 0.000000000000e+00 0.000000000000e+00
0.000000000000e+00 0.000000000000e+00 0.000000000000e+00
0.000000000000e+00 0.000000000000e+00 0.000000000000e+00
0.000000000000e+00 0.000000000000e+00 0.000000000000e+00
0.000000000000e+00 0.000000000000e+00 0.000000000000e+00
0.000000000000e+00 0.000000000000e+00 0.000000000000e+00
0.000000000000e+00 0.000000000000e+00 0.000000000000e+00
0.000000000000e+00 0.000000000000e+00 0.000000000000e+00
0.000000000000e+00 0.000000000000e+00 0.000000000000e+00
0.000000000000e+00 0.000000000000e+00 0.000000000000e+00
0.000000000000e+00 0.000000000000e+00 0.000000000000e+00
0.000000000000e+00 0.000000000000e+00 0.000000000000e+00
0.000000000000e+00 0.000000000000e+00 0.000000000000e+00
0.000000000000e+00 0.000000000000e+00 0.000000000000e+00
0.000000000000e+00 0.000000000000e+00 0.000000000000e+00
0.000000000000e+00 0.000000000000e+00 0.000000000000e+00
0.000000000000e+00 0.000000000000e+00 0.000000000000e+00
0.000000000000e+00 0.000000000000e+00 0.000000000000e+00
0.000000000000e+00 0.000000000000e+00 0.000000000000e+00
0.000000000000e+00 0.000000000000e+00 0.000000000000e+00
0.000000000000e+00 0.000000000000e+00 0.000000000000e+00
0.000000000000e+00 0.000000000000e+00 0.000000000000e+00
0.000000000000e+00 0.000000000000e+00 0.000000000000e+00
0.000000000000e+00 0.000000000000e+00 0.000000000000e+00
0.000000000000e+00 0.000000000000e+00 0.000000000000e+00
0.000000000000e+00 0.000000000000e+00 0.000000000000e+00
0.000000000000e+00 0.000000000000e+00 0.000000000000e+00
0.000000000000e+00 0.000000000000e+00 0.000000000000e+00
0.000000000000e+00 0.000000000000e+00 0.000000000000e+00
0.000000000000e+00 0.000000000000e+00 0.000000000000e+00
0.000000000000e+00 0.000000000000e+00 0.000000000000e+00
0.000000000000e+00 0.000000000000e+00 0.000000000000e+00
0.000000000000e+00 0.000000000000e+00 0.000000000000e+00
0.000000000000e+00 0.000000000000e+00 0.000000000000e+00
0.000000000000e+00 0.000000000000e+00 0.000000000000e+00
0.000000000000e+00 0.000000000000e+00 0.000000000000e+00
0.000000000000e+00 0.000000000000e+00 0.000000000000e+00
0.000000000000e+00 0.000000000000e+00 0.000000000000e+00
0.000000000000e+00 0.000000000000e+00 0.000000000000e+00
0.000000000000e+00 0.000000000000e+00 0.000000000000e+00
0.000000000000e+00 0.000000000000e+00 0.000000000000e+00
0.000000000000e+00 0.000000000000e+00 0.000000000000e+00
0.000000000000e+00 0.000000000000e+00 0.000000000000e+00
0.000000000000e+00 0.000000000000e+00 0.000000000000e+00
0.000000000000e+00 0.000000000000e+00 0.000000000000e+00
0.000000000000e+00 0.000000000000e+00 0.000000000000e+00
0.000000000000e+00 0.000000000000e+00 0.000000000000e+00
0.000000000000e+00 0.000000000000e+00 0.000000000000e+00
0.000000000000e+00 0.000000000000e+00 0.000000000000e+00
0.000000000000e+00 0.000000000000e+00 0.000000000000e+00
0.000000000000e+00 0.000000000000e+00 0.000000000000e+00
0.000000000000e+00 0.000000000000e+00 0.000000000000e+00
0.000000000000e+00 0.000000000000e+00 0.000000000000e+00
0.000000000000e+00 0.000000000000e+00 0.000000000000e+00
0.000000000000e+00 0.000000000000e+00 0.000000000000e+00
0.000000000000e+00 0.000000000000e+00 0.000000000000e+00
0.000000000000e+00 0.000000000000e+00 0.000000000000e+00
0.000000000000e+00 0.000000000000e+00 0.000000000000e+00
0.000000000000e+00 0.000000000000e+00 0.000000000000e+00
0.000000000000e+00 0.000000000000e+00 0.000000000000e+00
0.000000000000e+00 0.000000000000e+00 0.000000000000e+00
0.000000000000e+00 0.000000000000e+00 0.000000000000e+00
0.000000000000e+00 0.000000000000e+00 0.000000000000e+00
-1.697988337658e-06 -1.697988420110e-06 -1.505006409703e-02
-8.616795427114e-07 -1.709573925988e-06 -1.505066682563e-02
3.644155861000e-14 -1.722763238487e-06 -1.505088148604e-02
8.616796155960e-07 -1.709573923596e-06 -1.505066682563e-02
1.697988410543e-06 -1.697988415328e-06 -1.505006409703e-02
-1.709573845941e-06 -8.616796251584e-07 -1.505066682563e-02
-8.653334814455e-07 -8.653335614931e-07 -1.505127679919e-02
3.524170793055e-14 -8.765077330622e-07 -1.505149494484e-02
8.653335519316e-07 -8.653335591030e-07 -1.505127679919e-02
1.709573916420e-06 -8.616796203700e-07 -1.505066682563e-02
-1.722763160813e-06 -4.600163252778e-14 -1.505088148604e-02
-8.765076554098e-07 -4.480092142910e-14 -1.505149494484e-02
3.403501494062e-14 -4.360364737327e-14 -1.505171481002e-02
8.765077234899e-07 -4.240349616628e-14 -1.505149494484e-02
1.722763228903e-06 -4.120769281715e-14 -1.505088148604e-02
-1.709573848335e-06 8.616795331532e-07 -1.505066682563e-02
-8.653334838523e-07 8.653334718875e-07 -1.505127679919e-02
3.283149503864e-14 8.765076458553e-07 -1.505149494484e-02
8.653335495207e-07 8.653334742991e-07 -1.505127679919e-02
1.709573914005e-06 8.616795379633e-07 -1.505066682563e-02
-1.697988342469e-06 1.697988328107e-06 -1.505006409703e-02
-8.616795475197e-07 1.709573836381e-06 -1.505066682563e-02
3.163175539946e-14 1.722763151270e-06 -1.505088148604e-02
8.616796107814e-07 1.709573838800e-06 -1.505066682563e-02
1.697988405730e-06 1.697988332931e-06 -1.505006409703e-02
-1.302073453052e-06 -1.302073535500e-06 -1.505145068850e-02
-6.383260060769e-07 -1.313039974425e-06 -1.505207145910e-02
3.644112013584e-14 -1.327254002740e-06 -1.505228662045e-02
6.383260789621e-07 -1.313039972027e-06 -1.505207145910e-02
1.302073525937e-06 -1.302073530708e-06 -1.505145068850e-02
-1.313039894374e-06 -6.383260885218e-07 -1.505207145910e-02
-6.398032854461e-07 -6.398033654987e-07 -1.505269864604e-02
3.524246929547e-14 -6.496716525272e-07 -1.505291736148e-02
6.398033559359e-07 -6.398033630987e-07 -1.505269864604e-02
1.313039964865e-06 -6.383260837274e-07 -1.505207145910e-02
-1.327253925090e-06 -4.600451123621e-14 -1.505228662045e-02
-6.496715748781e-07 -4.480668247367e-14 -1.505291736148e-02
3.404223197192e-14 -4.360334042608e-14 -1.505313969198e-02
6.496716429631e-07 -4.240261572413e-14 -1.505291736148e-02
1.327253993176e-06 -4.120270622998e-14 -1.505228662045e-02
-1.313039896783e-06 6.383259965097e-07 -1.505207145910e-02
-6.398032878516e-07 6.398032758924e-07 -1.505269864604e-02
3.283832366153e-14 6.496715653199e-07 -1.505291736148e-02
6.398033535297e-07 6.398032782969e-07 -1.505269864604e-02
1.313039962458e-06 6.383260013249e-07 -1.505207145910e-02
-1.302073457852e-06 1.302073443489e-06 -1.505145068850e-02
-6.383260108793e-07 1.313039884822e-06 -1.505207145910e-02
3.163350692696e-14 1.327253915535e-06 -1.505228662045e-02
6.383260741491e-07 1.313039887228e-06 -1.505207145910e-02
1.302073521129e-06 1.302073448307e-06 -1.505145068850e-02
-8.436435088448e-07 -8.436435912957e-07 -1.505242737864e-02
-4.111200217854e-07 -8.491695294837e-07 -1.505305144651e-02
3.644413742825e-14 -8.627253038773e-07 -1.505325945997e-02
4.111200946746e-07 -8.491695270811e-07 -1.505305144651e-02
8.436435817375e-07 -8.436435864976e-07 -1.505242737864e-02
-8.491694494288e-07 -4.111201042369e-07 -1.505305144651e-02
-4.122802743500e-07 -4.122803544021e-07 -1.505368005110e-02
3.524350842921e-14 -4.217860644277e-07 -1.505389067595e-02
4.122803448420e-07 -4.122803519996e-07 -1.505368005110e-02
8.491695199230e-07 -4.111200994354e-07 -1.505305144651e-02
-8.627252262332e-07 -4.601029667539e-14 -1.505325945997e-02
-4.217859867822e-07 -4.480721593325e-14 -1.505389067595e-02
3.404447181621e-14 -4.360688627609e-14 -1.505410582940e-02
4.217860548705e-07 -4.240186983868e-14 -1.505389067595e-02
8.627252943234e-07 -4.120194554892e-14 -1.505325945997e-02
-8.491694518347e-07 4.111200122192e-07 -1.505305144651e-02
-4.122802767540e-07 4.122802647906e-07 -1.505368005110e-02
3.284132376332e-14 4.217859772235e-07 -1.505389067595e-02
4.122803424395e-07 4.122802671948e-07 -1.505368005110e-02
8.491695175210e-07 4.111200170339e-07 -1.505305144651e-02
-8.436435136533e-07 8.436434992803e-07 -1.505242737864e-02
-4.111200265880e-07 8.491694398721e-07 -1.505305144651e-02
3.163713560002e-14 8.627252166677e-07 -1.505325945997e-02
4.111200898657e-07 8.491694422788e-07 -1.505305144651e-02
8.436435769316e-07 8.436435040999e-07 -1.505242737864e-02
-4.032772062998e-07 -4.032772887541e-07 -1.505301728595e-02
-1.904981504907e-07 -4.075431736189e-07 -1.505362549618e-02
3.644785223578e-14 -4.244457770833e-07 -1.505383042616e-02
1.904982233898e-07 -4.075431712145e-07 -1.505362549618e-02
4.032772792014e-07 -4.032772839479e-07 -1.505301728595e-02
-4.075430935690e-07 -1.904982329468e-07 -1.505362549618e-02
-1.915591217885e-07 -1.915592018415e-07 -1.505423484745e-02
3.524775102233e-14 -2.020356893262e-07 -1.505444180864e-02
1.915591922875e-07 -1.915591994330e-07 -1.505423484745e-02
4.075431640739e-07 -1.904982281380e-07 -1.505362549618e-02
-4.244456994439e-07 -4.601226910710e-14 -1.505383042616e-02
-2.020356116797e-07 -4.480794764817e-14 -1.505444180864e-02
3.404900051824e-14 -4.360588453204e-14 -1.505465438619e-02
2.020356797779e-07 -4.240122920392e-14 -1.505444180864e-02
4.244457675418e-07 -4.120210117965e-14 -1.505383042616e-02
-4.075430959692e-07 1.904981409263e-07 -1.505362549618e-02
-1.915591241900e-07 1.915591122261e-07 -1.505423484745e-02
3.284549747593e-14 2.020356021168e-07 -1.505444180864e-02
1.915591898878e-07 1.915591146323e-07 -1.505423484745e-02
4.075431616814e-07 1.904981457387e-07 -1.505362549618e-02
-4.032772111095e-07 4.032771967397e-07 -1.505301728595e-02
-1.904981552944e-07 4.075430840062e-07 -1.505362549618e-02
3.164766051137e-14 4.244456898740e-07 -1.505383042616e-02
1.904982185862e-07 4.075430864130e-07 -1.505362549618e-02
4.032772743989e-07 4.032772015539e-07 -1.505301728595e-02
-2.918698209802e-08 -2.918706455457e-08 -1.505323425834e-02
2.131228715497e-08 -3.878193271987e-08 -1.505382642775e-02
3.645044887769e-14 -6.123804351198e-08 -1.505402641790e-02
-2.131221425348e-08 -3.878193030788e-08 -1.505382642775e-02
2.918705500328e-08 -2.918705973726e-08 -1.505323425834e-02
-3.878185267709e-08 2.131220469846e-08 -1.505382642775e-02
2.084170937222e-08 2.084162931918e-08 -1.505441646473e-02
3.525267879602e-14 1.049396223641e-08 -1.505461754287e-02
-2.084163886469e-08 2.084163173326e-08 -1.505441646473e-02
3.878192318440e-08 2.131220951378e-08 -1.505382642775e-02
-6.123796587500e-08 -4.601635389634e-14 -1.505402641790e-02
1.049403988195e-08 -4.480676884115e-14 -1.505461754287e-02
3.405550059798e-14 -4.360693183949e-14 -1.505482446626e-02
-1.049397177446e-08 -4.239712365482e-14 -1.505461754287e-02
6.123803398316e-08 -4.119346358310e-14 -1.505402641790e-02
-3.878185507696e-08 -2.131229671781e-08 -1.505382642775e-02
2.084170697098e-08 -2.084171893605e-08 -1.505441646473e-02
3.285445099009e-14 -1.049404944987e-08 -1.505461754287e-02
-2.084164125722e-08 -2.084171652916e-08 -1.505441646473e-02
3.878192079779e-08 -2.131229190815e-08 -1.505382642775e-02
-2.918698690130e-08 2.918697254072e-08 -1.505323425834e-02
2.131228234777e-08 3.878184311459e-08 -1.505382642775e-02
3.165216593319e-14 6.123795629305e-08 -1.505402641790e-02
-2.131221904195e-08 3.878184550328e-08 -1.505382642775e-02
2.918705022040e-08 2.918697733946e-08 -1.505323425834e-02
SCALARS displacement_magnitude float 1
LOOKUP_TABLE default
0.000000000000e+00
0.000000000000e+00
0.000000000000e+00
0.000000000000e+00
0.000000000000e+00
0.000000000000e+00
0.000000000000e+00
0.000000000000e+00
0.000000000000e+00
0.000000000000e+00
0.000000000000e+00
0.000000000000e+00
0.000000000000e+00
0.000000000000e+00
0.000000000000e+00
0.000000000000e+00
0.000000000000e+00
0.000000000000e+00
0.000000000000e+00
0.000000000000e+00
0.000000000000e+00
0.000000000000e+00
0.000000000000e+00
0.000000000000e+00
0.000000000000e+00
0.000000000000e+00
0.000000000000e+00
0.000000000000e+00
0.000000000000e+00
0.000000000000e+00
0.000000000000e+00
0.000000000000e+00
0.000000000000e+00
0.000000000000e+00
0.000000000000e+00
0.000000000000e+00
0.000000000000e+00
0.000000000000e+00
0.000000000000e+00
0.000000000000e+00
0.000000000000e+00
0.000000000000e+00
0.000000000000e+00
0.000000000000e+00
0.000000000000e+00
0.000000000000e+00
0.000000000000e+00
0.000000000000e+00
0.000000000000e+00
0.000000000000e+00
0.000000000000e+00
0.000000000000e+00
0.000000000000e+00
0.000000000000e+00
0.000000000000e+00
0.000000000000e+00
0.000000000000e+00
0.000000000000e+00
0.000000000000e+00
0.000000000000e+00
0.000000000000e+00
0.000000000000e+00
0.000000000000e+00
0.000000000000e+00
0.000000000000e+00
0.000000000000e+00
0.000000000000e+00
0.000000000000e+00
0.000000000000e+00
0.000000000000e+00
0.000000000000e+00
0.000000000000e+00
0.000000000000e+00
0.000000000000e+00
0.000000000000e+00
0.000000000000e+00
0.000000000000e+00
0.000000000000e+00
0.000000000000e+00
0.000000000000e+00
0.000000000000e+00
0.000000000000e+00
0.000000000000e+00
0.000000000000e+00
0.000000000000e+00
0.000000000000e+00
0.000000000000e+00
0.000000000000e+00
0.000000000000e+00
0.000000000000e+00
0.000000000000e+00
0.000000000000e+00
0.000000000000e+00
0.000000000000e+00
0.000000000000e+00
0.000000000000e+00
0.000000000000e+00
0.000000000000e+00
0.000000000000e+00
0.000000000000e+00
0.000000000000e+00
0.000000000000e+00
0.000000000000e+00
0.000000000000e+00
0.000000000000e+00
0.000000000000e+00
0.000000000000e+00
0.000000000000e+00
0.000000000000e+00
0.000000000000e+00
0.000000000000e+00
0.000000000000e+00
0.000000000000e+00
0.000000000000e+00
0.000000000000e+00
0.000000000000e+00
0.000000000000e+00
0.000000000000e+00
0.000000000000e+00
0.000000000000e+00
0.000000000000e+00
0.000000000000e+00
0.000000000000e+00
0.000000000000e+00
0.000000000000e+00
1.505006428860e-02
1.505066694739e-02
1.505088158464e-02
1.505066694739e-02
1.505006428860e-02
1.505066694739e-02
1.505127684894e-02
1.505149497036e-02
1.505127684894e-02
1.505066694739e-02
1.505088158464e-02
1.505149497036e-02
1.505171481002e-02
1.505149497036e-02
1.505088158464e-02
1.505066694739e-02
1.505127684894e-02
1.505149497036e-02
1.505127684894e-02
1.505066694739e-02
1.505006428860e-02
1.505066694739e-02
1.505088158464e-02
1.505066694739e-02
1.505006428860e-02
1.505145080114e-02
1.505207152991e-02
1.505228667897e-02
1.505207152991e-02
1.505145080114e-02
1.505207152991e-02
1.505269867324e-02
1.505291737550e-02
1.505269867324e-02
1.505207152991e-02
1.505228667897e-02
1.505291737550e-02
1.505313969198e-02
1.505291737550e-02
1.505228667897e-02
1.505207152991e-02
1.505269867324e-02
1.505291737550e-02
1.505269867324e-02
1.505207152991e-02
1.505145080114e-02
1.505207152991e-02
1.505228667897e-02
1.505207152991e-02
1.505145080114e-02
1.505242742592e-02
1.505305147607e-02
1.505325948469e-02
1.505305147607e-02
1.505242742592e-02
1.505305147607e-02
1.505368006240e-02
1.505389068186e-02
1.505368006240e-02
1.505305147607e-02
1.505325948469e-02
1.505389068186e-02
1.505410582940e-02
1.505389068186e-02
1.505325948469e-02
1.505305147607e-02
1.505368006240e-02
1.505389068186e-02
1.505368006240e-02
1.505305147607e-02
1.505242742592e-02
1.505305147607e-02
1.505325948469e-02
1.505305147607e-02
1.505242742592e-02
1.505301729676e-02
1.505362550290e-02
1.505383043215e-02
1.505362550290e-02
1.505301729676e-02
1.505362550290e-02
1.505423484989e-02
1.505444181000e-02
1.505423484989e-02
1.505362550290e-02
1.505383043215e-02
1.505444181000e-02
1.505465438619e-02
1.505444181000e-02
1.505383043215e-02
1.505362550290e-02
1.505423484989e-02
1.505444181000e-02
1.505423484989e-02
1.505362550290e-02
1.505301729676e-02
1.505362550290e-02
1.505383043215e-02
1.505362550290e-02
1.505301729676e-02
1.505323425839e-02
1.505382642782e-02
1.505402641802e-02
1.505382642782e-02
1.505323425839e-02
1.505382642782e-02
1.505441646475e-02
1.505461754288e-02
1.505441646475e-02
1.505382642782e-02
1.505402641802e-02
1.505461754288e-02
1.505482446626e-02
1.505461754288e-02
1.505402641802e-02
1.505382642782e-02
1.505441646475e-02
1.505461754288e-02
1.505441646475e-02
1.505382642782e-02
1.505323425839e-02
1.505382642782e-02
1.505402641802e-02
1.505382642782e-02
1.505323425839e-02
CELL_DATA 128
SCALARS displacement_magnitude float 1
LOOKUP_TABLE default
0.000000000000e+00
0.000000000000e+00
0.000000000000e+00
0.000000000000e+00
0.000000000000e+00
0.000000000000e+00
0.000000000000e+00
0.000000000000e+00
0.000000000000e+00
0.000000000000e+00
0.000000000000e+00
0.000000000000e+00
0.000000000000e+00
0.000000000000e+00
0.000000000000e+00
0.000000000000e+00
0.000000000000e+00
0.000000000000e+00
0.000000000000e+00
0.000000000000e+00
0.000000000000e+00
0.000000000000e+00
0.000000000000e+00
0.000000000000e+00
0.000000000000e+00
0.000000000000e+00
0.000000000000e+00
0.000000000000e+00
0.000000000000e+00
0.000000000000e+00
0.000000000000e+00
0.000000000000e+00
0.000000000000e+00
0.000000000000e+00
0.000000000000e+00
0.000000000000e+00
0.000000000000e+00
0.000000000000e+00
0.000000000000e+00
0.000000000000e+00
0.000000000000e+00
0.000000000000e+00
0.000000000000e+00
0.000000000000e+00
0.000000000000e+00
0.000000000000e+00
0.000000000000e+00
0.000000000000e+00
0.000000000000e+00
0.000000000000e+00
0.000000000000e+00
0.000000000000e+00
0.000000000000e+00
0.000000000000e+00
0.000000000000e+00
0.000000000000e+00
0.000000000000e+00
0.000000000000e+00
0.000000000000e+00
0.000000000000e+00
0.000000000000e+00
0.000000000000e+00
0.000000000000e+00
0.000000000000e+00
1.505137094581e-02
1.505178682612e-02
1.505178682612e-02
1.505137094581e-02
1.505178682612e-02
1.505220683949e-02
1.505220683949e-02
1.505178682612e-02
1.505178682612e-02
1.505220683949e-02
1.505220683949e-02
1.505178682612e-02
1.505137094581e-02
1.505178682612e-02
1.505178682612e-02
1.505137094581e-02
1.505256287183e-02
1.505298199533e-02
1.505298199533e-02
1.505256287183e-02
1.505298199533e-02
1.505340504647e-02
1.505340504647e-02
1.505298199533e-02
1.505298199533e-02
1.505340504647e-02
1.505340504647e-02
1.505298199533e-02
1.505256287183e-02
1.505298199533e-02
1.505298199533e-02
1.505256287183e-02
1.505333919911e-02
1.505375178749e-02
1.505375178749e-02
1.505333919911e-02
1.505375178749e-02
1.505416751395e-02
1.505416751395e-02
1.505375178749e-02
1.505375178749e-02
1.505416751395e-02
1.505416751395e-02
1.505375178749e-02
1.505333919911e-02
1.505375178749e-02
1.505375178749e-02
1.505333919911e-02
1.505372584140e-02
1.505412743105e-02
1.505412743105e-02
1.505372584140e-02
1.505412743105e-02
1.505453110910e-02
1.505453110910e-02
1.505412743105e-02
1.505412743105e-02
1.505453110910e-02
1.505453110910e-02
1.505412743105e-02
1.505372584140e-02
1.505412743105e-02
1.505412743105e-02
1.505372584140e-02
SCALARS engineering_strain_norm float 1
LOOKUP_TABLE default
0.000000000000e+00
0.000000000000e+00
0.000000000000e+00
0.000000000000e+00
0.000000000000e+00
0.000000000000e+00
0.000000000000e+00
0.000000000000e+00
0.000000000000e+00
0.000000000000e+00
0.000000000000e+00
0.000000000000e+00
0.000000000000e+00
0.000000000000e+00
0.000000000000e+00
0.000000000000e+00
0.000000000000e+00
0.000000000000e+00
0.000000000000e+00
0.000000000000e+00
0.000000000000e+00
0.000000000000e+00
0.000000000000e+00
0.000000000000e+00
0.000000000000e+00
0.000000000000e+00
0.000000000000e+00
0.000000000000e+00
0.000000000000e+00
0.000000000000e+00
0.000000000000e+00
0.000000000000e+00
0.000000000000e+00
0.000000000000e+00
0.000000000000e+00
0.000000000000e+00
0.000000000000e+00
0.000000000000e+00
0.000000000000e+00
0.000000000000e+00
0.000000000000e+00
0.000000000000e+00
0.000000000000e+00
0.000000000000e+00
0.000000000000e+00
0.000000000000e+00
0.000000000000e+00
0.000000000000e+00
0.000000000000e+00
0.000000000000e+00
0.000000000000e+00
0.000000000000e+00
0.000000000000e+00
0.000000000000e+00
0.000000000000e+00
0.000000000000e+00
0.000000000000e+00
0.000000000000e+00
0.000000000000e+00
0.000000000000e+00
0.000000000000e+00
0.000000000000e+00
0.000000000000e+00
0.000000000000e+00
2.323236727611e-05
2.336803493464e-05
2.336803493468e-05
2.323236727612e-05
2.336803493462e-05
2.350995891778e-05
2.350995891781e-05
2.336803493465e-05
2.336803493458e-05
2.350995891774e-05
2.350995891780e-05
2.336803493469e-05
2.323236727617e-05
2.336803493459e-05
2.336803493462e-05
2.323236727621e-05
1.631610361354e-05
1.623264896702e-05
1.623264896703e-05
1.631610361354e-05
1.623264896707e-05
1.613722533559e-05
1.613722533560e-05
1.623264896702e-05
1.623264896707e-05
1.613722533570e-05
1.613722533563e-05
1.623264896706e-05
1.631610361355e-05
1.623264896698e-05
1.623264896702e-05
1.631610361361e-05
9.554811874124e-06
9.365917830593e-06
9.365917830601e-06
9.554811874140e-06
9.365917830633e-06
9.166647692354e-06
9.166647692353e-06
9.365917830687e-06
9.365917830626e-06
9.166647692318e-06
9.166647692380e-06
9.365917830696e-06
9.554811874240e-06
9.365917830623e-06
9.365917830604e-06
9.554811874237e-06
3.463868437171e-06
3.212076627355e-06
3.212076627353e-06
3.463868437231e-06
3.212076627363e-06
2.893420892650e-06
2.893420892579e-06
3.212076627332e-06
3.212076627350e-06
2.893420892619e-06
2.893420892613e-06
3.212076627406e-06
3.463868437252e-06
3.212076627359e-06
3.212076627341e-06
3.463868437260e-06
SCALARS von_mises float 1
LOOKUP_TABLE default
0.000000000000e+00
0.000000000000e+00
0.000000000000e+00
0.000000000000e+00
0.000000000000e+00
0.000000000000e+00
0.000000000000e+00
0.000000000000e+00
0.000000000000e+00
0.000000000000e+00
0.000000000000e+00
0.000000000000e+00
0.000000000000e+00
0.000000000000e+00
0.000000000000e+00
0.000000000000e+00
0.000000000000e+00
0.000000000000e+00
0.000000000000e+00
0.000000000000e+00
0.000000000000e+00
0.000000000000e+00
0.000000000000e+00
0.000000000000e+00
0.000000000000e+00
0.000000000000e+00
0.000000000000e+00
0.000000000000e+00
0.000000000000e+00
0.000000000000e+00
0.000000000000e+00
0.000000000000e+00
0.000000000000e+00
0.000000000000e+00
0.000000000000e+00
0.000000000000e+00
0.000000000000e+00
0.000000000000e+00
0.000000000000e+00
0.000000000000e+00
0.000000000000e+00
0.000000000000e+00
0.000000000000e+00
0.000000000000e+00
0.000000000000e+00
0.000000000000e+00
0.000000000000e+00
0.000000000000e+00
0.000000000000e+00
0.000000000000e+00
0.000000000000e+00
0.000000000000e+00
0.000000000000e+00
0.000000000000e+00
0.000000000000e+00
0.000000000000e+00
0.000000000000e+00
0.000000000000e+00
0.000000000000e+00
0.000000000000e+00
0.000000000000e+00
0.000000000000e+00
0.000000000000e+00
0.000000000000e+00
2.126336727734e+00
2.137952189666e+00
2.137952189670e+00
2.126336727735e+00
2.137952189664e+00
2.150258443079e+00
2.150258443083e+00
2.137952189667e+00
2.137952189661e+00
2.150258443076e+00
2.150258443082e+00
2.137952189671e+00
2.126336727739e+00
2.137952189662e+00
2.137952189664e+00
2.126336727744e+00
1.498904323224e+00
1.489405914223e+00
1.489405914225e+00
1.498904323225e+00
1.489405914227e+00
1.478830351226e+00
1.478830351227e+00
1.489405914224e+00
1.489405914228e+00
1.478830351236e+00
1.478830351230e+00
1.489405914228e+00
1.498904323226e+00
1.489405914220e+00
1.489405914224e+00
1.498904323231e+00
8.781818864497e-01
8.601295679636e-01
8.601295679649e-01
8.781818864519e-01
8.601295679669e-01
8.414377109316e-01
8.414377109318e-01
8.601295679721e-01
8.601295679667e-01
8.414377109292e-01
8.414377109346e-01
8.601295679733e-01
8.781818864601e-01
8.601295679661e-01
8.601295679648e-01
8.781818864606e-01
3.210903364809e-01
2.957842875329e-01
2.957842875331e-01
3.210903364860e-01
2.957842875339e-01
2.638349864379e-01
2.638349864318e-01
2.957842875313e-01
2.957842875331e-01
2.638349864354e-01
2.638349864352e-01
2.957842875380e-01
3.210903364885e-01
2.957842875339e-01
2.957842875316e-01
3.210903364887e-01
SCALARS sdf_gap float 1
LOOKUP_TABLE default
0.000000000000e+00
0.000000000000e+00
0.000000000000e+00
0.000000000000e+00
0.000000000000e+00
0.000000000000e+00
0.000000000000e+00
0.000000000000e+00
0.000000000000e+00
0.000000000000e+00
0.000000000000e+00
0.000000000000e+00
0.000000000000e+00
0.000000000000e+00
0.000000000000e+00
0.000000000000e+00
0.000000000000e+00
0.000000000000e+00
0.000000000000e+00
0.000000000000e+00
0.000000000000e+00
0.000000000000e+00
0.000000000000e+00
0.000000000000e+00
0.000000000000e+00
0.000000000000e+00
0.000000000000e+00
0.000000000000e+00
0.000000000000e+00
0.000000000000e+00
0.000000000000e+00
0.000000000000e+00
0.000000000000e+00
0.000000000000e+00
0.000000000000e+00
0.000000000000e+00
0.000000000000e+00
0.000000000000e+00
0.000000000000e+00
0.000000000000e+00
0.000000000000e+00
0.000000000000e+00
0.000000000000e+00
0.000000000000e+00
0.000000000000e+00
0.000000000000e+00
0.000000000000e+00
0.000000000000e+00
0.000000000000e+00
0.000000000000e+00
0.000000000000e+00
0.000000000000e+00
0.000000000000e+00
0.000000000000e+00
0.000000000000e+00
0.000000000000e+00
0.000000000000e+00
0.000000000000e+00
0.000000000000e+00
0.000000000000e+00
0.000000000000e+00
0.000000000000e+00
0.000000000000e+00
0.000000000000e+00
-5.066863687186e-05
-5.108001392483e-05
-5.108001392483e-05
-5.066863687185e-05
-5.108001392482e-05
-5.149537471959e-05
-5.149537471958e-05
-5.108001392483e-05
-5.108001392482e-05
-5.149537471959e-05
-5.149537471961e-05
-5.108001392485e-05
-5.066863687185e-05
-5.108001392483e-05
-5.108001392485e-05
-5.066863687189e-05
0.000000000000e+00
0.000000000000e+00
0.000000000000e+00
0.000000000000e+00
0.000000000000e+00
0.000000000000e+00
0.000000000000e+00
0.000000000000e+00
0.000000000000e+00
0.000000000000e+00
0.000000000000e+00
0.000000000000e+00
0.000000000000e+00
0.000000000000e+00
0.000000000000e+00
0.000000000000e+00
0.000000000000e+00
0.000000000000e+00
0.000000000000e+00
0.000000000000e+00
0.000000000000e+00
0.000000000000e+00
0.000000000000e+00
0.000000000000e+00
0.000000000000e+00
0.000000000000e+00
0.000000000000e+00
0.000000000000e+00
0.000000000000e+00
0.000000000000e+00
0.000000000000e+00
0.000000000000e+00
0.000000000000e+00
0.000000000000e+00
0.000000000000e+00
0.000000000000e+00
0.000000000000e+00
0.000000000000e+00
0.000000000000e+00
0.000000000000e+00
0.000000000000e+00
0.000000000000e+00
0.000000000000e+00
0.000000000000e+00
0.000000000000e+00
0.000000000000e+00
0.000000000000e+00
0.000000000000e+00
SCALARS contact_pressure float 1
LOOKUP_TABLE default
0.000000000000e+00
0.000000000000e+00
0.000000000000e+00
0.000000000000e+00
0.000000000000e+00
0.000000000000e+00
0.000000000000e+00
0.000000000000e+00
0.000000000000e+00
0.000000000000e+00
0.000000000000e+00
0.000000000000e+00
0.000000000000e+00
0.000000000000e+00
0.000000000000e+00
0.000000000000e+00
0.000000000000e+00
0.000000000000e+00
0.000000000000e+00
0.000000000000e+00
0.000000000000e+00
0.000000000000e+00
0.000000000000e+00
0.000000000000e+00
0.000000000000e+00
0.000000000000e+00
0.000000000000e+00
0.000000000000e+00
0.000000000000e+00
0.000000000000e+00
0.000000000000e+00
0.000000000000e+00
0.000000000000e+00
0.000000000000e+00
0.000000000000e+00
0.000000000000e+00
0.000000000000e+00
0.000000000000e+00
0.000000000000e+00
0.000000000000e+00
0.000000000000e+00
0.000000000000e+00
0.000000000000e+00
0.000000000000e+00
0.000000000000e+00
0.000000000000e+00
0.000000000000e+00
0.000000000000e+00
0.000000000000e+00
0.000000000000e+00
0.000000000000e+00
0.000000000000e+00
0.000000000000e+00
0.000000000000e+00
0.000000000000e+00
0.000000000000e+00
0.000000000000e+00
0.000000000000e+00
0.000000000000e+00
0.000000000000e+00
0.000000000000e+00
0.000000000000e+00
0.000000000000e+00
0.000000000000e+00
2.533431843593e+00
2.554000696241e+00
2.554000696241e+00
2.533431843593e+00
2.554000696241e+00
2.574768735979e+00
2.574768735979e+00
2.554000696241e+00
2.554000696241e+00
2.574768735979e+00
2.574768735981e+00
2.554000696243e+00
2.533431843592e+00
2.554000696241e+00
2.554000696243e+00
2.533431843594e+00
0.000000000000e+00
0.000000000000e+00
0.000000000000e+00
0.000000000000e+00
0.000000000000e+00
0.000000000000e+00
0.000000000000e+00
0.000000000000e+00
0.000000000000e+00
0.000000000000e+00
0.000000000000e+00
0.000000000000e+00
0.000000000000e+00
0.000000000000e+00
0.000000000000e+00
0.000000000000e+00
0.000000000000e+00
0.000000000000e+00
0.000000000000e+00
0.000000000000e+00
0.000000000000e+00
0.000000000000e+00
0.000000000000e+00
0.000000000000e+00
0.000000000000e+00
0.000000000000e+00
0.000000000000e+00
0.000000000000e+00
0.000000000000e+00
0.000000000000e+00
0.000000000000e+00
0.000000000000e+00
0.000000000000e+00
0.000000000000e+00
0.000000000000e+00
0.000000000000e+00
0.000000000000e+00
0.000000000000e+00
0.000000000000e+00
0.000000000000e+00
0.000000000000e+00
0.000000000000e+00
0.000000000000e+00
0.000000000000e+00
0.000000000000e+00
0.000000000000e+00
0.000000000000e+00
0.000000000000e+00
SCALARS active_contact float 1
LOOKUP_TABLE default
0.000000000000e+00
0.000000000000e+00
0.000000000000e+00
0.000000000000e+00
0.000000000000e+00
0.000000000000e+00
0.000000000000e+00
0.000000000000e+00
0.000000000000e+00
0.000000000000e+00
0.000000000000e+00
0.000000000000e+00
0.000000000000e+00
0.000000000000e+00
0.000000000000e+00
0.000000000000e+00
0.000000000000e+00
0.000000000000e+00
0.000000000000e+00
0.000000000000e+00
0.000000000000e+00
0.000000000000e+00
0.000000000000e+00
0.000000000000e+00
0.000000000000e+00
0.000000000000e+00
0.000000000000e+00
0.000000000000e+00
0.000000000000e+00
0.000000000000e+00
0.000000000000e+00
0.000000000000e+00
0.000000000000e+00
0.000000000000e+00
0.000000000000e+00
0.000000000000e+00
0.000000000000e+00
0.000000000000e+00
0.000000000000e+00
0.000000000000e+00
0.000000000000e+00
0.000000000000e+00
0.000000000000e+00
0.000000000000e+00
0.000000000000e+00
0.000000000000e+00
0.000000000000e+00
0.000000000000e+00
0.000000000000e+00
0.000000000000e+00
0.000000000000e+00
0.000000000000e+00
0.000000000000e+00
0.000000000000e+00
0.000000000000e+00
0.000000000000e+00
0.000000000000e+00
0.000000000000e+00
0.000000000000e+00
0.000000000000e+00
0.000000000000e+00
0.000000000000e+00
0.000000000000e+00
0.000000000000e+00
1.000000000000e+00
1.000000000000e+00
1.000000000000e+00
1.000000000000e+00
1.000000000000e+00
1.000000000000e+00
1.000000000000e+00
1.000000000000e+00
1.000000000000e+00
1.000000000000e+00
1.000000000000e+00
1.000000000000e+00
1.000000000000e+00
1.000000000000e+00
1.000000000000e+00
1.000000000000e+00
0.000000000000e+00
0.000000000000e+00
0.000000000000e+00
0.000000000000e+00
0.000000000000e+00
0.000000000000e+00
0.000000000000e+00
0.000000000000e+00
0.000000000000e+00
0.000000000000e+00
0.000000000000e+00
0.000000000000e+00
0.000000000000e+00
0.000000000000e+00
0.000000000000e+00
0.000000000000e+00
0.000000000000e+00
0.000000000000e+00
0.000000000000e+00
0.000000000000e+00
0.000000000000e+00
0.000000000000e+00
0.000000000000e+00
0.000000000000e+00
0.000000000000e+00
0.000000000000e+00
0.000000000000e+00
0.000000000000e+00
0.000000000000e+00
0.000000000000e+00
0.000000000000e+00
0.000000000000e+00
0.000000000000e+00
0.000000000000e+00
0.000000000000e+00
0.000000000000e+00
0.000000000000e+00
0.000000000000e+00
0.000000000000e+00
0.000000000000e+00
0.000000000000e+00
0.000000000000e+00
0.000000000000e+00
0.000000000000e+00
0.000000000000e+00
0.000000000000e+00
0.000000000000e+00
0.000000000000e+00
