# vtk DataFile Version 3.0
SFC long-time C3D8 dynamic frame 13 t=2.600000000000e-01
ASCII
DATASET UNSTRUCTURED_GRID
POINTS 250 float
-2.500000000000e-01 -2.500000000000e-01 0.000000000000e+00
-1.250000000000e-01 -2.500000000000e-01 0.000000000000e+00
0.000000000000e+00 -2.500000000000e-01 0.000000000000e+00
1.250000000000e-01 -2.500000000000e-01 0.000000000000e+00
2.500000000000e-01 -2.500000000000e-01 0.000000000000e+00
-2.500000000000e-01 -1.250000000000e-01 0.000000000000e+00
-1.250000000000e-01 -1.250000000000e-01 0.000000000000e+00
0.000000000000e+00 -1.250000000000e-01 0.000000000000e+00
1.250000000000e-01 -1.250000000000e-01 0.000000000000e+00
2.500000000000e-01 -1.250000000000e-01 0.000000000000e+00
-2.500000000000e-01 0.000000000000e+00 0.000000000000e+00
-1.250000000000e-01 0.000000000000e+00 0.000000000000e+00
0.000000000000e+00 0.000000000000e+00 0.000000000000e+00
1.250000000000e-01 0.000000000000e+00 0.000000000000e+00
2.500000000000e-01 0.000000000000e+00 0.000000000000e+00
-2.500000000000e-01 1.250000000000e-01 0.000000000000e+00
-1.250000000000e-01 1.250000000000e-01 0.000000000000e+00
0.000000000000e+00 1.250000000000e-01 0.000000000000e+00
1.250000000000e-01 1.250000000000e-01 0.000000000000e+00
2.500000000000e-01 1.250000000000e-01 0.000000000000e+00
-2.500000000000e-01 2.500000000000e-01 0.000000000000e+00
-1.250000000000e-01 2.500000000000e-01 0.000000000000e+00
0.000000000000e+00 2.500000000000e-01 0.000000000000e+00
1.250000000000e-01 2.500000000000e-01 0.000000000000e+00
2.500000000000e-01 2.500000000000e-01 0.000000000000e+00
-2.500000000000e-01 -2.500000000000e-01 6.000000000000e-02
-1.250000000000e-01 -2.500000000000e-01 6.000000000000e-02
0.000000000000e+00 -2.500000000000e-01 6.000000000000e-02
1.250000000000e-01 -2.500000000000e-01 6.000000000000e-02
2.500000000000e-01 -2.500000000000e-01 6.000000000000e-02
-2.500000000000e-01 -1.250000000000e-01 6.000000000000e-02
-1.250000000000e-01 -1.250000000000e-01 6.000000000000e-02
0.000000000000e+00 -1.250000000000e-01 6.000000000000e-02
1.250000000000e-01 -1.250000000000e-01 6.000000000000e-02
2.500000000000e-01 -1.250000000000e-01 6.000000000000e-02
-2.500000000000e-01 0.000000000000e+00 6.000000000000e-02
-1.250000000000e-01 0.000000000000e+00 6.000000000000e-02
0.000000000000e+00 0.000000000000e+00 6.000000000000e-02
1.250000000000e-01 0.000000000000e+00 6.000000000000e-02
2.500000000000e-01 0.000000000000e+00 6.000000000000e-02
-2.500000000000e-01 1.250000000000e-01 6.000000000000e-02
-1.250000000000e-01 1.250000000000e-01 6.000000000000e-02
0.000000000000e+00 1.250000000000e-01 6.000000000000e-02
1.250000000000e-01 1.250000000000e-01 6.000000000000e-02
2.500000000000e-01 1.250000000000e-01 6.000000000000e-02
-2.500000000000e-01 2.500000000000e-01 6.000000000000e-02
-1.250000000000e-01 2.500000000000e-01 6.000000000000e-02
0.000000000000e+00 2.500000000000e-01 6.000000000000e-02
1.250000000000e-01 2.500000000000e-01 6.000000000000e-02
2.500000000000e-01 2.500000000000e-01 6.000000000000e-02
-2.500000000000e-01 -2.500000000000e-01 1.200000000000e-01
-1.250000000000e-01 -2.500000000000e-01 1.200000000000e-01
0.000000000000e+00 -2.500000000000e-01 1.200000000000e-01
1.250000000000e-01 -2.500000000000e-01 1.200000000000e-01
2.500000000000e-01 -2.500000000000e-01 1.200000000000e-01
-2.500000000000e-01 -1.250000000000e-01 1.200000000000e-01
-1.250000000000e-01 -1.250000000000e-01 1.200000000000e-01
0.000000000000e+00 -1.250000000000e-01 1.200000000000e-01
1.250000000000e-01 -1.250000000000e-01 1.200000000000e-01
2.500000000000e-01 -1.250000000000e-01 1.200000000000e-01
-2.500000000000e-01 0.000000000000e+00 1.200000000000e-01
-1.250000000000e-01 0.000000000000e+00 1.200000000000e-01
0.000000000000e+00 0.000000000000e+00 1.200000000000e-01
1.250000000000e-01 0.000000000000e+00 1.200000000000e-01
2.500000000000e-01 0.000000000000e+00 1.200000000000e-01
-2.500000000000e-01 1.250000000000e-01 1.200000000000e-01
-1.250000000000e-01 1.250000000000e-01 1.200000000000e-01
0.000000000000e+00 1.250000000000e-01 1.200000000000e-01
1.250000000000e-01 1.250000000000e-01 1.200000000000e-01
2.500000000000e-01 1.250000000000e-01 1.200000000000e-01
-2.500000000000e-01 2.500000000000e-01 1.200000000000e-01
-1.250000000000e-01 2.500000000000e-01 1.200000000000e-01
0.000000000000e+00 2.500000000000e-01 1.200000000000e-01
1.250000000000e-01 2.500000000000e-01 1.200000000000e-01
2.500000000000e-01 2.500000000000e-01 1.200000000000e-01
-2.500000000000e-01 -2.500000000000e-01 1.800000000000e-01
-1.250000000000e-01 -2.500000000000e-01 1.800000000000e-01
0.000000000000e+00 -2.500000000000e-01 1.800000000000e-01
1.250000000000e-01 -2.500000000000e-01 1.800000000000e-01
2.500000000000e-01 -2.500000000000e-01 1.800000000000e-01
-2.500000000000e-01 -1.250000000000e-01 1.800000000000e-01
-1.250000000000e-01 -1.250000000000e-01 1.800000000000e-01
0.000000000000e+00 -1.250000000000e-01 1.800000000000e-01
1.250000000000e-01 -1.250000000000e-01 1.800000000000e-01
2.500000000000e-01 -1.250000000000e-01 1.800000000000e-01
-2.500000000000e-01 0.000000000000e+00 1.800000000000e-01
-1.250000000000e-01 0.000000000000e+00 1.800000000000e-01
0.000000000000e+00 0.000000000000e+00 1.800000000000e-01
1.250000000000e-01 0.000000000000e+00 1.800000000000e-01
2.500000000000e-01 0.000000000000e+00 1.800000000000e-01
-2.500000000000e-01 1.250000000000e-01 1.800000000000e-01
-1.250000000000e-01 1.250000000000e-01 1.800000000000e-01
0.000000000000e+00 1.250000000000e-01 1.800000000000e-01
1.250000000000e-01 1.250000000000e-01 1.800000000000e-01
2.500000000000e-01 1.250000000000e-01 1.800000000000e-01
-2.500000000000e-01 2.500000000000e-01 1.800000000000e-01
-1.250000000000e-01 2.500000000000e-01 1.800000000000e-01
0.000000000000e+00 2.500000000000e-01 1.800000000000e-01
1.250000000000e-01 2.500000000000e-01 1.800000000000e-01
2.500000000000e-01 2.500000000000e-01 1.800000000000e-01
-2.500000000000e-01 -2.500000000000e-01 2.400000000000e-01
-1.250000000000e-01 -2.500000000000e-01 2.400000000000e-01
0.000000000000e+00 -2.500000000000e-01 2.400000000000e-01
1.250000000000e-01 -2.500000000000e-01 2.400000000000e-01
2.500000000000e-01 -2.500000000000e-01 2.400000000000e-01
-2.500000000000e-01 -1.250000000000e-01 2.400000000000e-01
-1.250000000000e-01 -1.250000000000e-01 2.400000000000e-01
0.000000000000e+00 -1.250000000000e-01 2.400000000000e-01
1.250000000000e-01 -1.250000000000e-01 2.400000000000e-01
2.500000000000e-01 -1.250000000000e-01 2.400000000000e-01
-2.500000000000e-01 0.000000000000e+00 2.400000000000e-01
-1.250000000000e-01 0.000000000000e+00 2.400000000000e-01
0.000000000000e+00 0.000000000000e+00 2.400000000000e-01
1.250000000000e-01 0.000000000000e+00 2.400000000000e-01
2.500000000000e-01 0.000000000000e+00 2.400000000000e-01
-2.500000000000e-01 1.250000000000e-01 2.400000000000e-01
-1.250000000000e-01 1.250000000000e-01 2.400000000000e-01
0.000000000000e+00 1.250000000000e-01 2.400000000000e-01
1.250000000000e-01 1.250000000000e-01 2.400000000000e-01
2.500000000000e-01 1.250000000000e-01 2.400000000000e-01
-2.500000000000e-01 2.500000000000e-01 2.400000000000e-01
-1.250000000000e-01 2.500000000000e-01 2.400000000000e-01
0.000000000000e+00 2.500000000000e-01 2.400000000000e-01
1.250000000000e-01 2.500000000000e-01 2.400000000000e-01
2.500000000000e-01 2.500000000000e-01 2.400000000000e-01
-2.500030930264e-01 -2.500030930264e-01 2.399112964329e-01
-1.250015731243e-01 -2.500031059044e-01 2.399103401878e-01
3.719406142085e-16 -2.500031105969e-01 2.399100140620e-01
1.250015731243e-01 -2.500031059044e-01 2.399103401878e-01
2.500030930264e-01 -2.500030930264e-01 2.399112964329e-01
-2.500031059044e-01 -1.250015731243e-01 2.399103401878e-01
-1.250015751969e-01 -1.250015751969e-01 2.399093774597e-01
4.162677913142e-16 -1.250015797391e-01 2.399090482704e-01
1.250015751969e-01 -1.250015751969e-01 2.399093774597e-01
2.500031059044e-01 -1.250015731243e-01 2.399103401878e-01
-2.500031105969e-01 -3.177497740839e-15 2.399100140620e-01
-1.250015797391e-01 -3.200397352894e-15 2.399090482704e-01
4.523265258159e-16 -3.235033164893e-15 2.399087174173e-01
1.250015797391e-01 -3.269984825088e-15 2.399090482704e-01
2.500031105969e-01 -3.305002039842e-15 2.399100140620e-01
-2.500031059044e-01 1.250015731243e-01 2.399103401878e-01
-1.250015751969e-01 1.250015751969e-01 2.399093774597e-01
4.763823119334e-16 1.250015797391e-01 2.399090482704e-01
1.250015751969e-01 1.250015751969e-01 2.399093774597e-01
2.500031059044e-01 1.250015731243e-01 2.399103401878e-01
-2.500030930264e-01 2.500030930264e-01 2.399112964329e-01
-1.250015731243e-01 2.500031059044e-01 2.399103401878e-01
4.994221767140e-16 2.500031105969e-01 2.399100140620e-01
1.250015731243e-01 2.500031059044e-01 2.399103401878e-01
2.500030930264e-01 2.500030930264e-01 2.399112964329e-01
-2.500024626531e-01 -2.500024626531e-01 3.049088221947e-01
-1.250012234568e-01 -2.500024768582e-01 3.049078285662e-01
7.992094808633e-16 -2.500024838527e-01 3.049074990435e-01
1.250012234568e-01 -2.500024768582e-01 3.049078285662e-01
2.500024626531e-01 -2.500024626531e-01 3.049088221947e-01
-2.500024768582e-01 -1.250012234568e-01 3.049078285662e-01
-1.250012235183e-01 -1.250012235183e-01 3.049068291130e-01
8.394464283143e-16 -1.250012267113e-01 3.049064978325e-01
1.250012235183e-01 -1.250012235183e-01 3.049068291130e-01
2.500024768582e-01 -1.250012234568e-01 3.049078285662e-01
-2.500024838527e-01 -2.897715815087e-15 3.049074990435e-01
-1.250012267113e-01 -2.923883806875e-15 3.049064978325e-01
8.718122625000e-16 -2.955531337048e-15 3.049061653202e-01
1.250012267113e-01 -2.988117892836e-15 3.049064978325e-01
2.500024838527e-01 -3.024506890504e-15 3.049074990435e-01
-2.500024768582e-01 1.250012234568e-01 3.049078285662e-01
-1.250012235183e-01 1.250012235183e-01 3.049068291130e-01
9.002169654150e-16 1.250012267113e-01 3.049064978325e-01
1.250012235183e-01 1.250012235183e-01 3.049068291130e-01
2.500024768582e-01 1.250012234568e-01 3.049078285662e-01
-2.500024626531e-01 2.500024626531e-01 3.049088221947e-01
-1.250012234568e-01 2.500024768582e-01 3.049078285662e-01
9.218043101875e-16 2.500024838527e-01 3.049074990435e-01
1.250012234568e-01 2.500024768582e-01 3.049078285662e-01
2.500024626531e-01 2.500024626531e-01 3.049088221947e-01
-2.500017069595e-01 -2.500017069595e-01 3.699070290569e-01
-1.250008607269e-01 -2.500017103612e-01 3.699060083755e-01
1.244468726404e-15 -2.500017129599e-01 3.699056806729e-01
1.250008607269e-01 -2.500017103612e-01 3.699060083755e-01
2.500017069595e-01 -2.500017069595e-01 3.699070290569e-01
-2.500017103612e-01 -1.250008607270e-01 3.699060083755e-01
-1.250008607390e-01 -1.250008607391e-01 3.699049817097e-01
1.283111636670e-15 -1.250008620737e-01 3.699046534689e-01
1.250008607391e-01 -1.250008607391e-01 3.699049817097e-01
2.500017103612e-01 -1.250008607270e-01 3.699060083755e-01
-2.500017129599e-01 -2.607613293765e-15 3.699056806729e-01
-1.250008620737e-01 -2.632341496714e-15 3.699046534689e-01
1.317372783360e-15 -2.663259243579e-15 3.699043251019e-01
1.250008620737e-01 -2.696297884407e-15 3.699046534689e-01
2.500017129599e-01 -2.731039004915e-15 3.699056806729e-01
-2.500017103612e-01 1.250008607269e-01 3.699060083755e-01
-1.250008607390e-01 1.250008607390e-01 3.699049817097e-01
1.344542704614e-15 1.250008620737e-01 3.699046534689e-01
1.250008607391e-01 1.250008607390e-01 3.699049817097e-01
2.500017103612e-01 1.250008607269e-01 3.699060083755e-01
-2.500017069595e-01 2.500017069595e-01 3.699070290569e-01
-1.250008607269e-01 2.500017103612e-01 3.699060083755e-01
1.366642508287e-15 2.500017129599e-01 3.699056806729e-01
1.250008607269e-01 2.500017103612e-01 3.699060083755e-01
2.500017069595e-01 2.500017069595e-01 3.699070290569e-01
-2.500009446505e-01 -2.500009446505e-01 4.349059187534e-01
-1.250004942076e-01 -2.500009378690e-01 4.349048986132e-01
1.696061800561e-15 -2.500009367257e-01 4.349045564338e-01
1.250004942076e-01 -2.500009378690e-01 4.349048986132e-01
2.500009446505e-01 -2.500009446505e-01 4.349059187534e-01
-2.500009378690e-01 -1.250004942076e-01 4.349048986132e-01
-1.250004941779e-01 -1.250004941779e-01 4.349038746310e-01
1.733755324015e-15 -1.250004939121e-01 4.349035316595e-01
1.250004941779e-01 -1.250004941779e-01 4.349038746310e-01
2.500009378690e-01 -1.250004942076e-01 4.349048986132e-01
-2.500009367257e-01 -2.311673179281e-15 4.349045564338e-01
-1.250004939121e-01 -2.338369048295e-15 4.349035316595e-01
1.768582304315e-15 -2.368778219368e-15 4.349031874926e-01
1.250004939121e-01 -2.401833626954e-15 4.349035316595e-01
2.500009367257e-01 -2.435588775315e-15 4.349045564338e-01
-2.500009378690e-01 1.250004942076e-01 4.349048986132e-01
-1.250004941779e-01 1.250004941779e-01 4.349038746310e-01
1.796902102911e-15 1.250004939121e-01 4.349035316595e-01
1.250004941779e-01 1.250004941779e-01 4.349038746310e-01
2.500009378690e-01 1.250004942076e-01 4.349048986132e-01
-2.500009446505e-01 2.500009446505e-01 4.349059187534e-01
-1.250004942076e-01 2.500009378690e-01 4.349048986132e-01
1.820779556706e-15 2.500009367257e-01 4.349045564338e-01
1.250004942076e-01 2.500009378690e-01 4.349048986132e-01
2.500009446505e-01 2.500009446505e-01 4.349059187534e-01
-2.500002932932e-01 -2.500002932932e-01 4.999054967186e-01
-1.250001299330e-01 -2.500002898165e-01 4.999044865843e-01
2.138703655602e-15 -2.500002927112e-01 4.999041352580e-01
1.250001299330e-01 -2.500002898165e-01 4.999044865843e-01
2.500002932932e-01 -2.500002932932e-01 4.999054967186e-01
-2.500002898165e-01 -1.250001299330e-01 4.999044865843e-01
-1.250001285387e-01 -1.250001285387e-01 4.999034742050e-01
2.174278585289e-15 -1.250001274953e-01 4.999031219511e-01
1.250001285387e-01 -1.250001285387e-01 4.999034742050e-01
2.500002898165e-01 -1.250001299330e-01 4.999044865843e-01
-2.500002927112e-01 -2.019401104659e-15 4.999041352580e-01
-1.250001274952e-01 -2.050146699461e-15 4.999031219511e-01
2.204843163993e-15 -2.077527864702e-15 4.999027682080e-01
1.250001274953e-01 -2.107951022598e-15 4.999031219511e-01
2.500002927112e-01 -2.143196319400e-15 4.999041352580e-01
-2.500002898165e-01 1.250001299330e-01 4.999044865843e-01
-1.250001285387e-01 1.250001285387e-01 4.999034742050e-01
2.241484975007e-15 1.250001274952e-01 4.999031219511e-01
1.250001285387e-01 1.250001285387e-01 4.999034742050e-01
2.500002898165e-01 1.250001299330e-01 4.999044865843e-01
-2.500002932932e-01 2.500002932932e-01 4.999054967186e-01
-1.250001299330e-01 2.500002898165e-01 4.999044865843e-01
2.265958155027e-15 2.500002927112e-01 4.999041352580e-01
1.250001299330e-01 2.500002898165e-01 4.999044865843e-01
2.500002932932e-01 2.500002932932e-01 4.999054967186e-01
CELLS 128 1152
8 0 1 6 5 25 26 31 30
8 1 2 7 6 26 27 32 31
8 2 3 8 7 27 28 33 32
8 3 4 9 8 28 29 34 33
8 5 6 11 10 30 31 36 35
8 6 7 12 11 31 32 37 36
8 7 8 13 12 32 33 38 37
8 8 9 14 13 33 34 39 38
8 10 11 16 15 35 36 41 40
8 11 12 17 16 36 37 42 41
8 12 13 18 17 37 38 43 42
8 13 14 19 18 38 39 44 43
8 15 16 21 20 40 41 46 45
8 16 17 22 21 41 42 47 46
8 17 18 23 22 42 43 48 47
8 18 19 24 23 43 44 49 48
8 25 26 31 30 50 51 56 55
8 26 27 32 31 51 52 57 56
8 27 28 33 32 52 53 58 57
8 28 29 34 33 53 54 59 58
8 30 31 36 35 55 56 61 60
8 31 32 37 36 56 57 62 61
8 32 33 38 37 57 58 63 62
8 33 34 39 38 58 59 64 63
8 35 36 41 40 60 61 66 65
8 36 37 42 41 61 62 67 66
8 37 38 43 42 62 63 68 67
8 38 39 44 43 63 64 69 68
8 40 41 46 45 65 66 71 70
8 41 42 47 46 66 67 72 71
8 42 43 48 47 67 68 73 72
8 43 44 49 48 68 69 74 73
8 50 51 56 55 75 76 81 80
8 51 52 57 56 76 77 82 81
8 52 53 58 57 77 78 83 82
8 53 54 59 58 78 79 84 83
8 55 56 61 60 80 81 86 85
8 56 57 62 61 81 82 87 86
8 57 58 63 62 82 83 88 87
8 58 59 64 63 83 84 89 88
8 60 61 66 65 85 86 91 90
8 61 62 67 66 86 87 92 91
8 62 63 68 67 87 88 93 92
8 63 64 69 68 88 89 94 93
8 65 66 71 70 90 91 96 95
8 66 67 72 71 91 92 97 96
8 67 68 73 72 92 93 98 97
8 68 69 74 73 93 94 99 98
8 75 76 81 80 100 101 106 105
8 76 77 82 81 101 102 107 106
8 77 78 83 82 102 103 108 107
8 78 79 84 83 103 104 109 108
8 80 81 86 85 105 106 111 110
8 81 82 87 86 106 107 112 111
8 82 83 88 87 107 108 113 112
8 83 84 89 88 108 109 114 113
8 85 86 91 90 110 111 116 115
8 86 87 92 91 111 112 117 116
8 87 88 93 92 112 113 118 117
8 88 89 94 93 113 114 119 118
8 90 91 96 95 115 116 121 120
8 91 92 97 96 116 117 122 121
8 92 93 98 97 117 118 123 122
8 93 94 99 98 118 119 124 123
8 125 126 131 130 150 151 156 155
8 126 127 132 131 151 152 157 156
8 127 128 133 132 152 153 158 157
8 128 129 134 133 153 154 159 158
8 130 131 136 135 155 156 161 160
8 131 132 137 136 156 157 162 161
8 132 133 138 137 157 158 163 162
8 133 134 139 138 158 159 164 163
8 135 136 141 140 160 161 166 165
8 136 137 142 141 161 162 167 166
8 137 138 143 142 162 163 168 167
8 138 139 144 143 163 164 169 168
8 140 141 146 145 165 166 171 170
8 141 142 147 146 166 167 172 171
8 142 143 148 147 167 168 173 172
8 143 144 149 148 168 169 174 173
8 150 151 156 155 175 176 181 180
8 151 152 157 156 176 177 182 181
8 152 153 158 157 177 178 183 182
8 153 154 159 158 178 179 184 183
8 155 156 161 160 180 181 186 185
8 156 157 162 161 181 182 187 186
8 157 158 163 162 182 183 188 187
8 158 159 164 163 183 184 189 188
8 160 161 166 165 185 186 191 190
8 161 162 167 166 186 187 192 191
8 162 163 168 167 187 188 193 192
8 163 164 169 168 188 189 194 193
8 165 166 171 170 190 191 196 195
8 166 167 172 171 191 192 197 196
8 167 168 173 172 192 193 198 197
8 168 169 174 173 193 194 199 198
8 175 176 181 180 200 201 206 205
8 176 177 182 181 201 202 207 206
8 177 178 183 182 202 203 208 207
8 178 179 184 183 203 204 209 208
8 180 181 186 185 205 206 211 210
8 181 182 187 186 206 207 212 211
8 182 183 188 187 207 208 213 212
8 183 184 189 188 208 209 214 213
8 185 186 191 190 210 211 216 215
8 186 187 192 191 211 212 217 216
8 187 188 193 192 212 213 218 217
8 188 189 194 193 213 214 219 218
8 190 191 196 195 215 216 221 220
8 191 192 197 196 216 217 222 221
8 192 193 198 197 217 218 223 222
8 193 194 199 198 218 219 224 223
8 200 201 206 205 225 226 231 230
8 201 202 207 206 226 227 232 231
8 202 203 208 207 227 228 233 232
8 203 204 209 208 228 229 234 233
8 205 206 211 210 230 231 236 235
8 206 207 212 211 231 232 237 236
8 207 208 213 212 232 233 238 237
8 208 209 214 213 233 234 239 238
8 210 211 216 215 235 236 241 240
8 211 212 217 216 236 237 242 241
8 212 213 218 217 237 238 243 242
8 213 214 219 218 238 239 244 243
8 215 216 221 220 240 241 246 245
8 216 217 222 221 241 242 247 246
8 217 218 223 222 242 243 248 247
8 218 219 224 223 243 244 249 248
CELL_TYPES 128
12
12
12
12
12
12
12
12
12
12
12
12
12
12
12
12
12
12
12
12
12
12
12
12
12
12
12
12
12
12
12
12
12
12
12
12
12
12
12
12
12
12
12
12
12
12
12
12
12
12
12
12
12
12
12
12
12
12
12
12
12
12
12
12
12
12
12
12
12
12
12
12
12
12
12
12
12
12
12
12
12
12
12
12
12
12
12
12
12
12
12
12
12
12
12
12
12
12
12
12
12
12
12
12
12
12
12
12
12
12
12
12
12
12
12
12
12
12
12
12
12
12
12
12
12
12
12
12
POINT_DATA 250
VECTORS displacement float
0.000000000000e+00 0.000000000000e+00 0.000000000000e+00
0.000000000000e+00 0.000000000000e+00 0.000000000000e+00
0.000000000000e+00 0.000000000000e+00 0.000000000000e+00
0.000000000000e+00 0.000000000000e+00 0.000000000000e+00
0.000000000000e+00 0.000000000000e+00 0.000000000000e+00
0.000000000000e+00 0.000000000000e+00 0.000000000000e+00
0.000000000000e+00 0.000000000000e+00 0.000000000000e+00
0.000000000000e+00 0.000000000000e+00 0.000000000000e+00
0.000000000000e+00 0.000000000000e+00 0.000000000000e+00
0.000000000000e+00 0.000000000000e+00 0.000000000000e+00
0.000000000000e+00 0.000000000000e+00 0.000000000000e+00
0.000000000000e+00 0.000000000000e+00 0.000000000000e+00
0.000000000000e+00 0.000000000000e+00 0.000000000000e+00
0.000000000000e+00 0.000000000000e+00 0.000000000000e+00
0.000000000000e+00 0.000000000000e+00 0.000000000000e+00
0.000000000000e+00 0.000000000000e+00 0.000000000000e+00
0.000000000000e+00 0.000000000000e+00 0.000000000000e+00
0.000000000000e+00 0.000000000000e+00 0.000000000000e+00
0.000000000000e+00 0.000000000000e+00 0.000000000000e+00
0.000000000000e+00 0.000000000000e+00 0.000000000000e+00
0.000000000000e+00 0.000000000000e+00 0.000000000000e+00
0.000000000000e+00 0.000000000000e+00 0.000000000000e+00
0.000000000000e+00 0.000000000000e+00 0.000000000000e+00
0.000000000000e+00 0.000000000000e+00 0.000000000000e+00
0.000000000000e+00 0.000000000000e+00 0.000000000000e+00
0.000000000000e+00 0.000000000000e+00 0.000000000000e+00
0.000000000000e+00 0.000000000000e+00 0.000000000000e+00
0.000000000000e+00 0.000000000000e+00 0.000000000000e+00
0.000000000000e+00 0.000000000000e+00 0.000000000000e+00
0.000000000000e+00 0.000000000000e+00 0.000000000000e+00
0.000000000000e+00 0.000000000000e+00 0.000000000000e+00
0.000000000000e+00 0.000000000000e+00 0.000000000000e+00
0.000000000000e+00 0.000000000000e+00 0.000000000000e+00
0.000000000000e+00 0.000000000000e+00 0.000000000000e+00
0.000000000000e+00 0.000000000000e+00 0.000000000000e+00
0.000000000000e+00 0.000000000000e+00 0.000000000000e+00
0.000000000000e+00 0.000000000000e+00 0.000000000000e+00
0.000000000000e+00 0.000000000000e+00 0.000000000000e+00
0.000000000000e+00 0.000000000000e+00 0.000000000000e+00
0.000000000000e+00 0.000000000000e+00 0.000000000000e+00
0.000000000000e+00 0.000000000000e+00 0.000000000000e+00
0.000000000000e+00 0.000000000000e+00 0.000000000000e+00
0.000000000000e+00 0.000000000000e+00 0.000000000000e+00
0.000000000000e+00 0.000000000000e+00 0.000000000000e+00
0.000000000000e+00 0.000000000000e+00 0.000000000000e+00
0.000000000000e+00 0.000000000000e+00 0.000000000000e+00
0.000000000000e+00 0.000000000000e+00 0.000000000000e+00
0.000000000000e+00 0.000000000000e+00 0.000000000000e+00
0.000000000000e+00 0.000000000000e+00 0.000000000000e+00
0.000000000000e+00 0.000000000000e+00 0.000000000000e+00
0.000000000000e+00 0.000000000000e+00 0.000000000000e+00
0.000000000000e+00 0.000000000000e+00 0.000000000000e+00
0.000000000000e+00 0.000000000000e+00 0.000000000000e+00
0.000000000000e+00 0.000000000000e+00 0.000000000000e+00
0.000000000000e+00 0.000000000000e+00 0.000000000000e+00
0.000000000000e+00 0.000000000000e+00 0.000000000000e+00
0.000000000000e+00 0.000000000000e+00 0.000000000000e+00
0.000000000000e+00 0.000000000000e+00 0.000000000000e+00
0.000000000000e+00 0.000000000000e+00 0.000000000000e+00
0.000000000000e+00 0.000000000000e+00 0.000000000000e+00
0.000000000000e+00 0.000000000000e+00 0.000000000000e+00
0.000000000000e+00 0.000000000000e+00 0.000000000000e+00
0.000000000000e+00 0.000000000000e+00 0.000000000000e+00
0.000000000000e+00 0.000000000000e+00 0.000000000000e+00
0.000000000000e+00 0.000000000000e+00 0.000000000000e+00
0.000000000000e+00 0.000000000000e+00 0.000000000000e+00
0.000000000000e+00 0.000000000000e+00 0.000000000000e+00
0.000000000000e+00 0.000000000000e+00 0.000000000000e+00
0.000000000000e+00 0.000000000000e+00 0.000000000000e+00
0.000000000000e+00 0.000000000000e+00 0.000000000000e+00
0.000000000000e+00 0.000000000000e+00 0.000000000000e+00
0.000000000000e+00 0.000000000000e+00 0.000000000000e+00
0.000000000000e+00 0.000000000000e+00 0.000000000000e+00
0.000000000000e+00 0.000000000000e+00 0.000000000000e+00
0.000000000000e+00 0.000000000000e+00 0.000000000000e+00
0.000000000000e+00 0.000000000000e+00 0.000000000000e+00
0.000000000000e+00 0.000000000000e+00 0.000000000000e+00
0.000000000000e+00 0.000000000000e+00 0.000000000000e+00
0.000000000000e+00 0.000000000000e+00 0.000000000000e+00
0.000000000000e+00 0.000000000000e+00 0.000000000000e+00
0.000000000000e+00 0.000000000000e+00 0.000000000000e+00
0.000000000000e+00 0.000000000000e+00 0.000000000000e+00
0.000000000000e+00 0.000000000000e+00 0.000000000000e+00
0.000000000000e+00 0.000000000000e+00 0.000000000000e+00
0.000000000000e+00 0.000000000000e+00 0.000000000000e+00
0.000000000000e+00 0.000000000000e+00 0.000000000000e+00
0.000000000000e+00 0.000000000000e+00 0.000000000000e+00
0.000000000000e+00 0.000000000000e+00 0.000000000000e+00
0.000000000000e+00 0.000000000000e+00 0.000000000000e+00
0.000000000000e+00 0.000000000000e+00 0.000000000000e+00
0.000000000000e+00 0.000000000000e+00 0.000000000000e+00
0.000000000000e+00 0.000000000000e+00 0.000000000000e+00
0.000000000000e+00 0.000000000000e+00 0.000000000000e+00
0.000000000000e+00 0.000000000000e+00 0.000000000000e+00
0.000000000000e+00 0.000000000000e+00 0.000000000000e+00
0.000000000000e+00 0.000000000000e+00 0.000000000000e+00
0.000000000000e+00 0.000000000000e+00 0.000000000000e+00
0.000000000000e+00 0.000000000000e+00 0.000000000000e+00
0.000000000000e+00 0.000000000000e+00 0.000000000000e+00
0.000000000000e+00 0.000000000000e+00 0.000000000000e+00
0.000000000000e+00 0.000000000000e+00 0.000000000000e+00
0.000000000000e+00 0.000000000000e+00 0.000000000000e+00
0.000000000000e+00 0.000000000000e+00 0.000000000000e+00
0.000000000000e+00 0.000000000000e+00 0.000000000000e+00
0.000000000000e+00 0.000000000000e+00 0.000000000000e+00
0.000000000000e+00 0.000000000000e+00 0.000000000000e+00
0.000000000000e+00 0.000000000000e+00 0.000000000000e+00
0.000000000000e+00 0.000000000000e+00 0.000000000000e+00
0.000000000000e+00 0.000000000000e+00 0.000000000000e+00
0.000000000000e+00 0.000000000000e+00 0.000000000000e+00
0.000000000000e+00 0.000000000000e+00 0.000000000000e+00
0.000000000000e+00 0.000000000000e+00 0.000000000000e+00
0.000000000000e+00 0.000000000000e+00 0.000000000000e+00
0.000000000000e+00 0.000000000000e+00 0.000000000000e+00
0.000000000000e+00 0.000000000000e+00 0.000000000000e+00
0.000000000000e+00 0.000000000000e+00 0.000000000000e+00
0.000000000000e+00 0.000000000000e+00 0.000000000000e+00
0.000000000000e+00 0.000000000000e+00 0.000000000000e+00
0.000000000000e+00 0.000000000000e+00 0.000000000000e+00
0.000000000000e+00 0.000000000000e+00 0.000000000000e+00
0.000000000000e+00 0.000000000000e+00 0.000000000000e+00
0.000000000000e+00 0.000000000000e+00 0.000000000000e+00
0.000000000000e+00 0.000000000000e+00 0.000000000000e+00
0.000000000000e+00 0.000000000000e+00 0.000000000000e+00
0.000000000000e+00 0.000000000000e+00 0.000000000000e+00
-3.093026357162e-06 -3.093026360700e-06 -1.508870356707e-02
-1.573124287427e-06 -3.105904368965e-06 -1.508965981216e-02
3.719406142085e-16 -3.110596877228e-06 -1.508998593798e-02
1.573124288185e-06 -3.105904369052e-06 -1.508965981217e-02
3.093026357969e-06 -3.093026360903e-06 -1.508870356708e-02
-3.105904365355e-06 -1.573124290967e-06 -1.508965981216e-02
-1.575196895169e-06 -1.575196898779e-06 -1.509062254025e-02
4.162677913142e-16 -1.579739114280e-06 -1.509095172957e-02
1.575196896008e-06 -1.575196898851e-06 -1.509062254026e-02
3.105904366226e-06 -1.573124291123e-06 -1.508965981217e-02
-3.110596873556e-06 -3.177497740839e-15 -1.508998593798e-02
-1.579739110608e-06 -3.200397352894e-15 -1.509095172957e-02
4.523265258159e-16 -3.235033164893e-15 -1.509128258271e-02
1.579739111512e-06 -3.269984825088e-15 -1.509095172957e-02
3.110596874487e-06 -3.305002039842e-15 -1.508998593798e-02
-3.105904365327e-06 1.573124284626e-06 -1.508965981216e-02
-1.575196895121e-06 1.575196892376e-06 -1.509062254025e-02
4.763823119334e-16 1.579739107813e-06 -1.509095172957e-02
1.575196896078e-06 1.575196892326e-06 -1.509062254026e-02
3.105904366317e-06 1.573124284515e-06 -1.508965981217e-02
-3.093026357102e-06 3.093026354387e-06 -1.508870356707e-02
-1.573124287329e-06 3.105904362584e-06 -1.508965981217e-02
4.994221767140e-16 3.110596870773e-06 -1.508998593798e-02
1.573124288328e-06 3.105904362560e-06 -1.508965981217e-02
3.093026358127e-06 3.093026354320e-06 -1.508870356708e-02
-2.462653085342e-06 -2.462653089028e-06 -1.509117780531e-02
-1.223456845428e-06 -2.476858186284e-06 -1.509217143382e-02
7.992094808633e-16 -2.483852686390e-06 -1.509250095650e-02
1.223456847036e-06 -2.476858186375e-06 -1.509217143382e-02
2.462653086977e-06 -2.462653089223e-06 -1.509117780531e-02
-2.476858182524e-06 -1.223456849122e-06 -1.509217143382e-02
-1.223518289664e-06 -1.223518293423e-06 -1.509317088698e-02
8.394464283143e-16 -1.226711278085e-06 -1.509350216747e-02
1.223518291353e-06 -1.223518293502e-06 -1.509317088698e-02
2.476858184249e-06 -1.223456849272e-06 -1.509217143382e-02
-2.483852682570e-06 -2.897715815087e-15 -1.509250095649e-02
-1.226711274262e-06 -2.923883806875e-15 -1.509350216747e-02
8.718122625000e-16 -2.955531337048e-15 -1.509383467977e-02
1.226711276018e-06 -2.988117892836e-15 -1.509350216748e-02
2.483852684363e-06 -3.024506890504e-15 -1.509250095650e-02
-2.476858182487e-06 1.223456843333e-06 -1.509217143382e-02
-1.223518289614e-06 1.223518287584e-06 -1.509317088698e-02
9.002169654150e-16 1.226711272182e-06 -1.509350216748e-02
1.223518291424e-06 1.223518287533e-06 -1.509317088698e-02
2.476858184328e-06 1.223456843230e-06 -1.509217143382e-02
-2.462653085255e-06 2.462653083264e-06 -1.509117780531e-02
-1.223456845321e-06 2.476858180465e-06 -1.509217143382e-02
9.218043101875e-16 2.483852680512e-06 -1.509250095650e-02
1.223456847177e-06 2.476858180433e-06 -1.509217143382e-02
2.462653087147e-06 2.462653083197e-06 -1.509117780532e-02
-1.706959467619e-06 -1.706959471474e-06 -1.509297094313e-02
-8.607269470503e-07 -1.710361201871e-06 -1.509399162454e-02
1.244468726404e-15 -1.712959930146e-06 -1.509431932707e-02
8.607269495441e-07 -1.710361201959e-06 -1.509399162455e-02
1.706959470136e-06 -1.706959471650e-06 -1.509297094313e-02
-1.710361197959e-06 -8.607269509023e-07 -1.509399162454e-02
-8.607390494181e-07 -8.607390533312e-07 -1.509501829028e-02
1.283111636670e-15 -8.620736600147e-07 -1.509534653106e-02
8.607390519923e-07 -8.607390534071e-07 -1.509501829028e-02
1.710361200551e-06 -8.607269510486e-07 -1.509399162455e-02
-1.712959926163e-06 -2.607613293765e-15 -1.509431932707e-02
-8.620736560361e-07 -2.632341496714e-15 -1.509534653106e-02
1.317372783360e-15 -2.663259243579e-15 -1.509567489808e-02
8.620736586769e-07 -2.696297884407e-15 -1.509534653107e-02
1.712959928826e-06 -2.731039004915e-15 -1.509431932707e-02
-1.710361197909e-06 8.607269456937e-07 -1.509399162455e-02
-8.607390493630e-07 8.607390480734e-07 -1.509501829028e-02
1.344542704614e-15 8.620736546947e-07 -1.509534653107e-02
8.607390520610e-07 8.607390480209e-07 -1.509501829028e-02
1.710361200628e-06 8.607269455884e-07 -1.509399162455e-02
-1.706959467522e-06 1.706959466279e-06 -1.509297094313e-02
-8.607269469382e-07 1.710361196622e-06 -1.509399162455e-02
1.366642508287e-15 1.712959924836e-06 -1.509431932707e-02
8.607269496852e-07 1.710361196586e-06 -1.509399162455e-02
1.706959470291e-06 1.706959466199e-06 -1.509297094314e-02
-9.446505012707e-07 -9.446505052834e-07 -1.509408124663e-02
-4.942075632041e-07 -9.378689877266e-07 -1.509510138679e-02
1.696061800561e-15 -9.367257264559e-07 -1.509544356620e-02
4.942075665980e-07 -9.378689878065e-07 -1.509510138679e-02
9.446505046769e-07 -9.446505054462e-07 -1.509408124664e-02
-9.378689836527e-07 -4.942075672121e-07 -1.509510138679e-02
-4.941779160922e-07 -4.941779201660e-07 -1.509612536899e-02
1.733755324015e-15 -4.939121398825e-07 -1.509646834052e-02
4.941779195635e-07 -4.941779202373e-07 -1.509612536899e-02
9.378689871359e-07 -4.942075673565e-07 -1.509510138680e-02
-9.367257223215e-07 -2.311673179281e-15 -1.509544356620e-02
-4.939121357481e-07 -2.338369048295e-15 -1.509646834052e-02
1.768582304315e-15 -2.368778219368e-15 -1.509681250741e-02
4.939121392854e-07 -2.401833626954e-15 -1.509646834052e-02
9.367257258655e-07 -2.435588775315e-15 -1.509544356621e-02
-9.378689835954e-07 4.942075625910e-07 -1.509510138679e-02
-4.941779160338e-07 4.941779154893e-07 -1.509612536899e-02
1.796902102911e-15 4.939121351519e-07 -1.509646834052e-02
4.941779196312e-07 4.941779154372e-07 -1.509612536899e-02
9.378689872041e-07 4.942075624878e-07 -1.509510138680e-02
-9.446505011616e-07 9.446505006684e-07 -1.509408124664e-02
-4.942075630852e-07 9.378689830572e-07 -1.509510138680e-02
1.820779556706e-15 9.367257217313e-07 -1.509544356620e-02
4.942075667351e-07 9.378689830114e-07 -1.509510138680e-02
9.446505048250e-07 9.446505005810e-07 -1.509408124664e-02
-2.932931971903e-07 -2.932932013632e-07 -1.509450328141e-02
-1.299330206087e-07 -2.898165247208e-07 -1.509551341573e-02
2.138703655602e-15 -2.927112306012e-07 -1.509586474203e-02
1.299330248887e-07 -2.898165248014e-07 -1.509551341573e-02
2.932932014802e-07 -2.932932015158e-07 -1.509450328141e-02
-2.898165204916e-07 -1.299330247700e-07 -1.509551341573e-02
-1.285387042066e-07 -1.285387084325e-07 -1.509652579503e-02
2.174278585289e-15 -1.274952504839e-07 -1.509687804891e-02
1.285387085672e-07 -1.285387085121e-07 -1.509652579503e-02
2.898165248654e-07 -1.299330249172e-07 -1.509551341573e-02
-2.927112262997e-07 -2.019401104659e-15 -1.509586474203e-02
-1.274952461965e-07 -2.050146699461e-15 -1.509687804891e-02
2.204843163993e-15 -2.077527864702e-15 -1.509723179198e-02
1.274952506168e-07 -2.107951022598e-15 -1.509687804891e-02
2.927112307380e-07 -2.143196319400e-15 -1.509586474203e-02
-2.898165204363e-07 1.299330207276e-07 -1.509551341573e-02
-1.285387041477e-07 1.285387043384e-07 -1.509652579503e-02
2.241484975007e-15 1.274952463353e-07 -1.509687804891e-02
1.285387086330e-07 1.285387042923e-07 -1.509652579503e-02
2.898165249325e-07 1.299330206306e-07 -1.509551341573e-02
-2.932931970687e-07 2.932931973185e-07 -1.509450328141e-02
-1.299330204842e-07 2.898165206409e-07 -1.509551341573e-02
2.265958155027e-15 2.927112264532e-07 -1.509586474203e-02
1.299330250246e-07 2.898165205899e-07 -1.509551341573e-02
2.932932016222e-07 2.932931972238e-07 -1.509450328142e-02
SCALARS displacement_magnitude float 1
LOOKUP_TABLE default
0.000000000000e+00
0.000000000000e+00
0.000000000000e+00
0.000000000000e+00
0.000000000000e+00
0.000000000000e+00
0.000000000000e+00
0.000000000000e+00
0.000000000000e+00
0.000000000000e+00
0.000000000000e+00
0.000000000000e+00
0.000000000000e+00
0.000000000000e+00
0.000000000000e+00
0.000000000000e+00
0.000000000000e+00
0.000000000000e+00
0.000000000000e+00
0.000000000000e+00
0.000000000000e+00
0.000000000000e+00
0.000000000000e+00
0.000000000000e+00
0.000000000000e+00
0.000000000000e+00
0.000000000000e+00
0.000000000000e+00
0.000000000000e+00
0.000000000000e+00
0.000000000000e+00
0.000000000000e+00
0.000000000000e+00
0.000000000000e+00
0.000000000000e+00
0.000000000000e+00
0.000000000000e+00
0.000000000000e+00
0.000000000000e+00
0.000000000000e+00
0.000000000000e+00
0.000000000000e+00
0.000000000000e+00
0.000000000000e+00
0.000000000000e+00
0.000000000000e+00
0.000000000000e+00
0.000000000000e+00
0.000000000000e+00
0.000000000000e+00
0.000000000000e+00
0.000000000000e+00
0.000000000000e+00
0.000000000000e+00
0.000000000000e+00
0.000000000000e+00
0.000000000000e+00
0.000000000000e+00
0.000000000000e+00
0.000000000000e+00
0.000000000000e+00
0.000000000000e+00
0.000000000000e+00
0.000000000000e+00
0.000000000000e+00
0.000000000000e+00
0.000000000000e+00
0.000000000000e+00
0.000000000000e+00
0.000000000000e+00
0.000000000000e+00
0.000000000000e+00
0.000000000000e+00
0.000000000000e+00
0.000000000000e+00
0.000000000000e+00
0.000000000000e+00
0.000000000000e+00
0.000000000000e+00
0.000000000000e+00
0.000000000000e+00
0.000000000000e+00
0.000000000000e+00
0.000000000000e+00
0.000000000000e+00
0.000000000000e+00
0.000000000000e+00
0.000000000000e+00
0.000000000000e+00
0.000000000000e+00
0.000000000000e+00
0.000000000000e+00
0.000000000000e+00
0.000000000000e+00
0.000000000000e+00
0.000000000000e+00
0.000000000000e+00
0.000000000000e+00
0.000000000000e+00
0.000000000000e+00
0.000000000000e+00
0.000000000000e+00
0.000000000000e+00
0.000000000000e+00
0.000000000000e+00
0.000000000000e+00
0.000000000000e+00
0.000000000000e+00
0.000000000000e+00
0.000000000000e+00
0.000000000000e+00
0.000000000000e+00
0.000000000000e+00
0.000000000000e+00
0.000000000000e+00
0.000000000000e+00
0.000000000000e+00
0.000000000000e+00
0.000000000000e+00
0.000000000000e+00
0.000000000000e+00
0.000000000000e+00
0.000000000000e+00
0.000000000000e+00
0.000000000000e+00
1.508870420111e-02
1.508966021381e-02
1.508998625859e-02
1.508966021381e-02
1.508870420111e-02
1.508966021381e-02
1.509062270468e-02
1.509095181225e-02
1.509062270468e-02
1.508966021381e-02
1.508998625858e-02
1.509095181225e-02
1.509128258271e-02
1.509095181225e-02
1.508998625859e-02
1.508966021381e-02
1.509062270468e-02
1.509095181225e-02
1.509062270468e-02
1.508966021381e-02
1.508870420111e-02
1.508966021381e-02
1.508998625859e-02
1.508966021381e-02
1.508870420112e-02
1.509117820718e-02
1.509217168665e-02
1.509250116089e-02
1.509217168666e-02
1.509117820718e-02
1.509217168665e-02
1.509317098617e-02
1.509350221732e-02
1.509317098617e-02
1.509217168666e-02
1.509250116089e-02
1.509350221732e-02
1.509383467977e-02
1.509350221733e-02
1.509250116089e-02
1.509217168666e-02
1.509317098617e-02
1.509350221733e-02
1.509317098617e-02
1.509217168666e-02
1.509117820718e-02
1.509217168666e-02
1.509250116089e-02
1.509217168666e-02
1.509117820718e-02
1.509297113618e-02
1.509399174599e-02
1.509431942426e-02
1.509399174599e-02
1.509297113618e-02
1.509399174599e-02
1.509501833936e-02
1.509534655568e-02
1.509501833936e-02
1.509399174599e-02
1.509431942426e-02
1.509534655568e-02
1.509567489808e-02
1.509534655568e-02
1.509431942427e-02
1.509399174599e-02
1.509501833936e-02
1.509534655568e-02
1.509501833936e-02
1.509399174599e-02
1.509297113618e-02
1.509399174599e-02
1.509431942427e-02
1.509399174599e-02
1.509297113619e-02
1.509408130575e-02
1.509510142402e-02
1.509544359527e-02
1.509510142402e-02
1.509408130576e-02
1.509510142402e-02
1.509612538517e-02
1.509646834860e-02
1.509612538517e-02
1.509510142402e-02
1.509544359527e-02
1.509646834860e-02
1.509681250741e-02
1.509646834860e-02
1.509544359527e-02
1.509510142402e-02
1.509612538517e-02
1.509646834860e-02
1.509612538517e-02
1.509510142402e-02
1.509408130576e-02
1.509510142402e-02
1.509544359527e-02
1.509510142402e-02
1.509408130576e-02
1.509450328711e-02
1.509551341907e-02
1.509586474486e-02
1.509551341907e-02
1.509450328711e-02
1.509551341907e-02
1.509652579612e-02
1.509687804945e-02
1.509652579613e-02
1.509551341907e-02
1.509586474486e-02
1.509687804945e-02
1.509723179198e-02
1.509687804945e-02
1.509586474487e-02
1.509551341907e-02
1.509652579613e-02
1.509687804945e-02
1.509652579613e-02
1.509551341907e-02
1.509450328711e-02
1.509551341907e-02
1.509586474487e-02
1.509551341907e-02
1.509450328711e-02
CELL_DATA 128
SCALARS displacement_magnitude float 1
LOOKUP_TABLE default
0.000000000000e+00
0.000000000000e+00
0.000000000000e+00
0.000000000000e+00
0.000000000000e+00
0.000000000000e+00
0.000000000000e+00
0.000000000000e+00
0.000000000000e+00
0.000000000000e+00
0.000000000000e+00
0.000000000000e+00
0.000000000000e+00
0.000000000000e+00
0.000000000000e+00
0.000000000000e+00
0.000000000000e+00
0.000000000000e+00
0.000000000000e+00
0.000000000000e+00
0.000000000000e+00
0.000000000000e+00
0.000000000000e+00
0.000000000000e+00
0.000000000000e+00
0.000000000000e+00
0.000000000000e+00
0.000000000000e+00
0.000000000000e+00
0.000000000000e+00
0.000000000000e+00
0.000000000000e+00
0.000000000000e+00
0.000000000000e+00
0.000000000000e+00
0.000000000000e+00
0.000000000000e+00
0.000000000000e+00
0.000000000000e+00
0.000000000000e+00
0.000000000000e+00
0.000000000000e+00
0.000000000000e+00
0.000000000000e+00
0.000000000000e+00
0.000000000000e+00
0.000000000000e+00
0.000000000000e+00
0.000000000000e+00
0.000000000000e+00
0.000000000000e+00
0.000000000000e+00
0.000000000000e+00
0.000000000000e+00
0.000000000000e+00
0.000000000000e+00
0.000000000000e+00
0.000000000000e+00
0.000000000000e+00
0.000000000000e+00
0.000000000000e+00
0.000000000000e+00
0.000000000000e+00
0.000000000000e+00
1.509091748751e-02
1.509157088004e-02
1.509157088004e-02
1.509091748751e-02
1.509157088004e-02
1.509222737656e-02
1.509222737656e-02
1.509157088005e-02
1.509157088004e-02
1.509222737656e-02
1.509222737656e-02
1.509157088005e-02
1.509091748751e-02
1.509157088005e-02
1.509157088005e-02
1.509091748751e-02
1.509308319177e-02
1.509375276454e-02
1.509375276454e-02
1.509308319177e-02
1.509375276454e-02
1.509442455617e-02
1.509442455617e-02
1.509375276454e-02
1.509375276454e-02
1.509442455617e-02
1.509442455617e-02
1.509375276454e-02
1.509308319177e-02
1.509375276454e-02
1.509375276454e-02
1.509308319178e-02
1.509454781331e-02
1.509522685229e-02
1.509522685229e-02
1.509454781331e-02
1.509522685229e-02
1.509590761732e-02
1.509590761732e-02
1.509522685229e-02
1.509522685229e-02
1.509590761732e-02
1.509590761732e-02
1.509522685230e-02
1.509454781331e-02
1.509522685229e-02
1.509522685229e-02
1.509454781331e-02
1.509530818254e-02
1.509599009532e-02
1.509599009532e-02
1.509530818254e-02
1.509599009532e-02
1.509667353460e-02
1.509667353460e-02
1.509599009532e-02
1.509599009532e-02
1.509667353460e-02
1.509667353460e-02
1.509599009532e-02
1.509530818254e-02
1.509599009532e-02
1.509599009532e-02
1.509530818255e-02
SCALARS engineering_strain_norm float 1
LOOKUP_TABLE default
0.000000000000e+00
0.000000000000e+00
0.000000000000e+00
0.000000000000e+00
0.000000000000e+00
0.000000000000e+00
0.000000000000e+00
0.000000000000e+00
0.000000000000e+00
0.000000000000e+00
0.000000000000e+00
0.000000000000e+00
0.000000000000e+00
0.000000000000e+00
0.000000000000e+00
0.000000000000e+00
0.000000000000e+00
0.000000000000e+00
0.000000000000e+00
0.000000000000e+00
0.000000000000e+00
0.000000000000e+00
0.000000000000e+00
0.000000000000e+00
0.000000000000e+00
0.000000000000e+00
0.000000000000e+00
0.000000000000e+00
0.000000000000e+00
0.000000000000e+00
0.000000000000e+00
0.000000000000e+00
0.000000000000e+00
0.000000000000e+00
0.000000000000e+00
0.000000000000e+00
0.000000000000e+00
0.000000000000e+00
0.000000000000e+00
0.000000000000e+00
0.000000000000e+00
0.000000000000e+00
0.000000000000e+00
0.000000000000e+00
0.000000000000e+00
0.000000000000e+00
0.000000000000e+00
0.000000000000e+00
0.000000000000e+00
0.000000000000e+00
0.000000000000e+00
0.000000000000e+00
0.000000000000e+00
0.000000000000e+00
0.000000000000e+00
0.000000000000e+00
0.000000000000e+00
0.000000000000e+00
0.000000000000e+00
0.000000000000e+00
0.000000000000e+00
0.000000000000e+00
0.000000000000e+00
0.000000000000e+00
4.169969884553e-05
4.202568256716e-05
4.202568256747e-05
4.169969884663e-05
4.202568256709e-05
4.231788492182e-05
4.231788492216e-05
4.202568256807e-05
4.202568256734e-05
4.231788492205e-05
4.231788492239e-05
4.202568256830e-05
4.169969884627e-05
4.202568256781e-05
4.202568256813e-05
4.169969884732e-05
3.041679095112e-05
3.058918495377e-05
3.058918495404e-05
3.041679095192e-05
3.058918495376e-05
3.072870355681e-05
3.072870355707e-05
3.058918495446e-05
3.058918495392e-05
3.072870355698e-05
3.072870355726e-05
3.058918495463e-05
3.041679095156e-05
3.058918495417e-05
3.058918495447e-05
3.041679095233e-05
1.858661176619e-05
1.873850776553e-05
1.873850776563e-05
1.858661176664e-05
1.873850776547e-05
1.888999011258e-05
1.888999011267e-05
1.873850776588e-05
1.873850776562e-05
1.888999011270e-05
1.888999011282e-05
1.873850776597e-05
1.858661176644e-05
1.873850776571e-05
1.873850776591e-05
1.858661176687e-05
7.225284307606e-06
7.224021434334e-06
7.224021434375e-06
7.225284307792e-06
7.224021434317e-06
7.220052539460e-06
7.220052539515e-06
7.224021434585e-06
7.224021434331e-06
7.220052539542e-06
7.220052539599e-06
7.224021434559e-06
7.225284307703e-06
7.224021434422e-06
7.224021434500e-06
7.225284307878e-06
SCALARS von_mises float 1
LOOKUP_TABLE default
0.000000000000e+00
0.000000000000e+00
0.000000000000e+00
0.000000000000e+00
0.000000000000e+00
0.000000000000e+00
0.000000000000e+00
0.000000000000e+00
0.000000000000e+00
0.000000000000e+00
0.000000000000e+00
0.000000000000e+00
0.000000000000e+00
0.000000000000e+00
0.000000000000e+00
0.000000000000e+00
0.000000000000e+00
0.000000000000e+00
0.000000000000e+00
0.000000000000e+00
0.000000000000e+00
0.000000000000e+00
0.000000000000e+00
0.000000000000e+00
0.000000000000e+00
0.000000000000e+00
0.000000000000e+00
0.000000000000e+00
0.000000000000e+00
0.000000000000e+00
0.000000000000e+00
0.000000000000e+00
0.000000000000e+00
0.000000000000e+00
0.000000000000e+00
0.000000000000e+00
0.000000000000e+00
0.000000000000e+00
0.000000000000e+00
0.000000000000e+00
0.000000000000e+00
0.000000000000e+00
0.000000000000e+00
0.000000000000e+00
0.000000000000e+00
0.000000000000e+00
0.000000000000e+00
0.000000000000e+00
0.000000000000e+00
0.000000000000e+00
0.000000000000e+00
0.000000000000e+00
0.000000000000e+00
0.000000000000e+00
0.000000000000e+00
0.000000000000e+00
0.000000000000e+00
0.000000000000e+00
0.000000000000e+00
0.000000000000e+00
0.000000000000e+00
0.000000000000e+00
0.000000000000e+00
0.000000000000e+00
3.825030836189e+00
3.854777160019e+00
3.854777160046e+00
3.825030836289e+00
3.854777160012e+00
3.880480110536e+00
3.880480110566e+00
3.854777160100e+00
3.854777160034e+00
3.880480110557e+00
3.880480110587e+00
3.854777160121e+00
3.825030836257e+00
3.854777160077e+00
3.854777160106e+00
3.825030836352e+00
2.798995530549e+00
2.813619084741e+00
2.813619084764e+00
2.798995530621e+00
2.813619084739e+00
2.824397180929e+00
2.824397180953e+00
2.813619084803e+00
2.813619084753e+00
2.824397180945e+00
2.824397180970e+00
2.813619084819e+00
2.798995530589e+00
2.813619084777e+00
2.813619084804e+00
2.798995530660e+00
1.711909538116e+00
1.728362253681e+00
1.728362253690e+00
1.711909538158e+00
1.728362253676e+00
1.745012140200e+00
1.745012140208e+00
1.728362253714e+00
1.728362253689e+00
1.745012140210e+00
1.745012140222e+00
1.728362253722e+00
1.711909538139e+00
1.728362253698e+00
1.728362253716e+00
1.711909538178e+00
6.753543788539e-01
6.758673593382e-01
6.758673593424e-01
6.753543788715e-01
6.758673593364e-01
6.763583632725e-01
6.763583632784e-01
6.758673593619e-01
6.758673593380e-01
6.763583632804e-01
6.763583632860e-01
6.758673593596e-01
6.753543788632e-01
6.758673593467e-01
6.758673593540e-01
6.753543788794e-01
SCALARS sdf_gap float 1
LOOKUP_TABLE default
0.000000000000e+00
0.000000000000e+00
0.000000000000e+00
0.000000000000e+00
0.000000000000e+00
0.000000000000e+00
0.000000000000e+00
0.000000000000e+00
0.000000000000e+00
0.000000000000e+00
0.000000000000e+00
0.000000000000e+00
0.000000000000e+00
0.000000000000e+00
0.000000000000e+00
0.000000000000e+00
0.000000000000e+00
0.000000000000e+00
0.000000000000e+00
0.000000000000e+00
0.000000000000e+00
0.000000000000e+00
0.000000000000e+00
0.000000000000e+00
0.000000000000e+00
0.000000000000e+00
0.000000000000e+00
0.000000000000e+00
0.000000000000e+00
0.000000000000e+00
0.000000000000e+00
0.000000000000e+00
0.000000000000e+00
0.000000000000e+00
0.000000000000e+00
0.000000000000e+00
0.000000000000e+00
0.000000000000e+00
0.000000000000e+00
0.000000000000e+00
0.000000000000e+00
0.000000000000e+00
0.000000000000e+00
0.000000000000e+00
0.000000000000e+00
0.000000000000e+00
0.000000000000e+00
0.000000000000e+00
0.000000000000e+00
0.000000000000e+00
0.000000000000e+00
0.000000000000e+00
0.000000000000e+00
0.000000000000e+00
0.000000000000e+00
0.000000000000e+00
0.000000000000e+00
0.000000000000e+00
0.000000000000e+00
0.000000000000e+00
0.000000000000e+00
0.000000000000e+00
0.000000000000e+00
0.000000000000e+00
-8.966143291338e-05
-9.030500499130e-05
-9.030500499208e-05
-8.966143291575e-05
-9.030500499101e-05
-9.095214552283e-05
-9.095214552359e-05
-9.030500499335e-05
-9.030500499151e-05
-9.095214552335e-05
-9.095214552413e-05
-9.030500499389e-05
-8.966143291495e-05
-9.030500499286e-05
-9.030500499365e-05
-8.966143291732e-05
0.000000000000e+00
0.000000000000e+00
0.000000000000e+00
0.000000000000e+00
0.000000000000e+00
0.000000000000e+00
0.000000000000e+00
0.000000000000e+00
0.000000000000e+00
0.000000000000e+00
0.000000000000e+00
0.000000000000e+00
0.000000000000e+00
0.000000000000e+00
0.000000000000e+00
0.000000000000e+00
0.000000000000e+00
0.000000000000e+00
0.000000000000e+00
0.000000000000e+00
0.000000000000e+00
0.000000000000e+00
0.000000000000e+00
0.000000000000e+00
0.000000000000e+00
0.000000000000e+00
0.000000000000e+00
0.000000000000e+00
0.000000000000e+00
0.000000000000e+00
0.000000000000e+00
0.000000000000e+00
0.000000000000e+00
0.000000000000e+00
0.000000000000e+00
0.000000000000e+00
0.000000000000e+00
0.000000000000e+00
0.000000000000e+00
0.000000000000e+00
0.000000000000e+00
0.000000000000e+00
0.000000000000e+00
0.000000000000e+00
0.000000000000e+00
0.000000000000e+00
0.000000000000e+00
0.000000000000e+00
SCALARS contact_pressure float 1
LOOKUP_TABLE default
0.000000000000e+00
0.000000000000e+00
0.000000000000e+00
0.000000000000e+00
0.000000000000e+00
0.000000000000e+00
0.000000000000e+00
0.000000000000e+00
0.000000000000e+00
0.000000000000e+00
0.000000000000e+00
0.000000000000e+00
0.000000000000e+00
0.000000000000e+00
0.000000000000e+00
0.000000000000e+00
0.000000000000e+00
0.000000000000e+00
0.000000000000e+00
0.000000000000e+00
0.000000000000e+00
0.000000000000e+00
0.000000000000e+00
0.000000000000e+00
0.000000000000e+00
0.000000000000e+00
0.000000000000e+00
0.000000000000e+00
0.000000000000e+00
0.000000000000e+00
0.000000000000e+00
0.000000000000e+00
0.000000000000e+00
0.000000000000e+00
0.000000000000e+00
0.000000000000e+00
0.000000000000e+00
0.000000000000e+00
0.000000000000e+00
0.000000000000e+00
0.000000000000e+00
0.000000000000e+00
0.000000000000e+00
0.000000000000e+00
0.000000000000e+00
0.000000000000e+00
0.000000000000e+00
0.000000000000e+00
0.000000000000e+00
0.000000000000e+00
0.000000000000e+00
0.000000000000e+00
0.000000000000e+00
0.000000000000e+00
0.000000000000e+00
0.000000000000e+00
0.000000000000e+00
0.000000000000e+00
0.000000000000e+00
0.000000000000e+00
0.000000000000e+00
0.000000000000e+00
0.000000000000e+00
0.000000000000e+00
4.483071645669e+00
4.515250249565e+00
4.515250249604e+00
4.483071645788e+00
4.515250249550e+00
4.547607276142e+00
4.547607276180e+00
4.515250249668e+00
4.515250249576e+00
4.547607276167e+00
4.547607276207e+00
4.515250249695e+00
4.483071645747e+00
4.515250249643e+00
4.515250249683e+00
4.483071645866e+00
0.000000000000e+00
0.000000000000e+00
0.000000000000e+00
0.000000000000e+00
0.000000000000e+00
0.000000000000e+00
0.000000000000e+00
0.000000000000e+00
0.000000000000e+00
0.000000000000e+00
0.000000000000e+00
0.000000000000e+00
0.000000000000e+00
0.000000000000e+00
0.000000000000e+00
0.000000000000e+00
0.000000000000e+00
0.000000000000e+00
0.000000000000e+00
0.000000000000e+00
0.000000000000e+00
0.000000000000e+00
0.000000000000e+00
0.000000000000e+00
0.000000000000e+00
0.000000000000e+00
0.000000000000e+00
0.000000000000e+00
0.000000000000e+00
0.000000000000e+00
0.000000000000e+00
0.000000000000e+00
0.000000000000e+00
0.000000000000e+00
0.000000000000e+00
0.000000000000e+00
0.000000000000e+00
0.000000000000e+00
0.000000000000e+00
0.000000000000e+00
0.000000000000e+00
0.000000000000e+00
0.000000000000e+00
0.000000000000e+00
0.000000000000e+00
0.000000000000e+00
0.000000000000e+00
0.000000000000e+00
SCALARS active_contact float 1
LOOKUP_TABLE default
0.000000000000e+00
0.000000000000e+00
0.000000000000e+00
0.000000000000e+00
0.000000000000e+00
0.000000000000e+00
0.000000000000e+00
0.000000000000e+00
0.000000000000e+00
0.000000000000e+00
0.000000000000e+00
0.000000000000e+00
0.000000000000e+00
0.000000000000e+00
0.000000000000e+00
0.000000000000e+00
0.000000000000e+00
0.000000000000e+00
0.000000000000e+00
0.000000000000e+00
0.000000000000e+00
0.000000000000e+00
0.000000000000e+00
0.000000000000e+00
0.000000000000e+00
0.000000000000e+00
0.000000000000e+00
0.000000000000e+00
0.000000000000e+00
0.000000000000e+00
0.000000000000e+00
0.000000000000e+00
0.000000000000e+00
0.000000000000e+00
0.000000000000e+00
0.000000000000e+00
0.000000000000e+00
0.000000000000e+00
0.000000000000e+00
0.000000000000e+00
0.000000000000e+00
0.000000000000e+00
0.000000000000e+00
0.000000000000e+00
0.000000000000e+00
0.000000000000e+00
0.000000000000e+00
0.000000000000e+00
0.000000000000e+00
0.000000000000e+00
0.000000000000e+00
0.000000000000e+00
0.000000000000e+00
0.000000000000e+00
0.000000000000e+00
0.000000000000e+00
0.000000000000e+00
0.000000000000e+00
0.000000000000e+00
0.000000000000e+00
0.000000000000e+00
0.000000000000e+00
0.000000000000e+00
0.000000000000e+00
1.000000000000e+00
1.000000000000e+00
1.000000000000e+00
1.000000000000e+00
1.000000000000e+00
1.000000000000e+00
1.000000000000e+00
1.000000000000e+00
1.000000000000e+00
1.000000000000e+00
1.000000000000e+00
1.000000000000e+00
1.000000000000e+00
1.000000000000e+00
1.000000000000e+00
1.000000000000e+00
0.000000000000e+00
0.000000000000e+00
0.000000000000e+00
0.000000000000e+00
0.000000000000e+00
0.000000000000e+00
0.000000000000e+00
0.000000000000e+00
0.000000000000e+00
0.000000000000e+00
0.000000000000e+00
0.000000000000e+00
0.000000000000e+00
0.000000000000e+00
0.000000000000e+00
0.000000000000e+00
0.000000000000e+00
0.000000000000e+00
0.000000000000e+00
0.000000000000e+00
0.000000000000e+00
0.000000000000e+00
0.000000000000e+00
0.000000000000e+00
0.000000000000e+00
0.000000000000e+00
0.000000000000e+00
0.000000000000e+00
0.000000000000e+00
0.000000000000e+00
0.000000000000e+00
0.000000000000e+00
0.000000000000e+00
0.000000000000e+00
0.000000000000e+00
0.000000000000e+00
0.000000000000e+00
0.000000000000e+00
0.000000000000e+00
0.000000000000e+00
0.000000000000e+00
0.000000000000e+00
0.000000000000e+00
0.000000000000e+00
0.000000000000e+00
0.000000000000e+00
0.000000000000e+00
0.000000000000e+00
