# vtk DataFile Version 3.0
SFC long-time C3D8 dynamic frame 39 t=7.800000000000e-01
ASCII
DATASET UNSTRUCTURED_GRID
POINTS 250 float
-2.500000000000e-01 -2.500000000000e-01 0.000000000000e+00
-1.250000000000e-01 -2.500000000000e-01 0.000000000000e+00
0.000000000000e+00 -2.500000000000e-01 0.000000000000e+00
1.250000000000e-01 -2.500000000000e-01 0.000000000000e+00
2.500000000000e-01 -2.500000000000e-01 0.000000000000e+00
-2.500000000000e-01 -1.250000000000e-01 0.000000000000e+00
-1.250000000000e-01 -1.250000000000e-01 0.000000000000e+00
0.000000000000e+00 -1.250000000000e-01 0.000000000000e+00
1.250000000000e-01 -1.250000000000e-01 0.000000000000e+00
2.500000000000e-01 -1.250000000000e-01 0.000000000000e+00
-2.500000000000e-01 0.000000000000e+00 0.000000000000e+00
-1.250000000000e-01 0.000000000000e+00 0.000000000000e+00
0.000000000000e+00 0.000000000000e+00 0.000000000000e+00
1.250000000000e-01 0.000000000000e+00 0.000000000000e+00
2.500000000000e-01 0.000000000000e+00 0.000000000000e+00
-2.500000000000e-01 1.250000000000e-01 0.000000000000e+00
-1.250000000000e-01 1.250000000000e-01 0.000000000000e+00
0.000000000000e+00 1.250000000000e-01 0.000000000000e+00
1.250000000000e-01 1.250000000000e-01 0.000000000000e+00
2.500000000000e-01 1.250000000000e-01 0.000000000000e+00
-2.500000000000e-01 2.500000000000e-01 0.000000000000e+00
-1.250000000000e-01 2.500000000000e-01 0.000000000000e+00
0.000000000000e+00 2.500000000000e-01 0.000000000000e+00
1.250000000000e-01 2.500000000000e-01 0.000000000000e+00
2.500000000000e-01 2.500000000000e-01 0.000000000000e+00
-2.500000000000e-01 -2.500000000000e-01 6.000000000000e-02
-1.250000000000e-01 -2.500000000000e-01 6.000000000000e-02
0.000000000000e+00 -2.500000000000e-01 6.000000000000e-02
1.250000000000e-01 -2.500000000000e-01 6.000000000000e-02
2.500000000000e-01 -2.500000000000e-01 6.000000000000e-02
-2.500000000000e-01 -1.250000000000e-01 6.000000000000e-02
-1.250000000000e-01 -1.250000000000e-01 6.000000000000e-02
0.000000000000e+00 -1.250000000000e-01 6.000000000000e-02
1.250000000000e-01 -1.250000000000e-01 6.000000000000e-02
2.500000000000e-01 -1.250000000000e-01 6.000000000000e-02
-2.500000000000e-01 0.000000000000e+00 6.000000000000e-02
-1.250000000000e-01 0.000000000000e+00 6.000000000000e-02
0.000000000000e+00 0.000000000000e+00 6.000000000000e-02
1.250000000000e-01 0.000000000000e+00 6.000000000000e-02
2.500000000000e-01 0.000000000000e+00 6.000000000000e-02
-2.500000000000e-01 1.250000000000e-01 6.000000000000e-02
-1.250000000000e-01 1.250000000000e-01 6.000000000000e-02
0.000000000000e+00 1.250000000000e-01 6.000000000000e-02
1.250000000000e-01 1.250000000000e-01 6.000000000000e-02
2.500000000000e-01 1.250000000000e-01 6.000000000000e-02
-2.500000000000e-01 2.500000000000e-01 6.000000000000e-02
-1.250000000000e-01 2.500000000000e-01 6.000000000000e-02
0.000000000000e+00 2.500000000000e-01 6.000000000000e-02
1.250000000000e-01 2.500000000000e-01 6.000000000000e-02
2.500000000000e-01 2.500000000000e-01 6.000000000000e-02
-2.500000000000e-01 -2.500000000000e-01 1.200000000000e-01
-1.250000000000e-01 -2.500000000000e-01 1.200000000000e-01
0.000000000000e+00 -2.500000000000e-01 1.200000000000e-01
1.250000000000e-01 -2.500000000000e-01 1.200000000000e-01
2.500000000000e-01 -2.500000000000e-01 1.200000000000e-01
-2.500000000000e-01 -1.250000000000e-01 1.200000000000e-01
-1.250000000000e-01 -1.250000000000e-01 1.200000000000e-01
0.000000000000e+00 -1.250000000000e-01 1.200000000000e-01
1.250000000000e-01 -1.250000000000e-01 1.200000000000e-01
2.500000000000e-01 -1.250000000000e-01 1.200000000000e-01
-2.500000000000e-01 0.000000000000e+00 1.200000000000e-01
-1.250000000000e-01 0.000000000000e+00 1.200000000000e-01
0.000000000000e+00 0.000000000000e+00 1.200000000000e-01
1.250000000000e-01 0.000000000000e+00 1.200000000000e-01
2.500000000000e-01 0.000000000000e+00 1.200000000000e-01
-2.500000000000e-01 1.250000000000e-01 1.200000000000e-01
-1.250000000000e-01 1.250000000000e-01 1.200000000000e-01
0.000000000000e+00 1.250000000000e-01 1.200000000000e-01
1.250000000000e-01 1.250000000000e-01 1.200000000000e-01
2.500000000000e-01 1.250000000000e-01 1.200000000000e-01
-2.500000000000e-01 2.500000000000e-01 1.200000000000e-01
-1.250000000000e-01 2.500000000000e-01 1.200000000000e-01
0.000000000000e+00 2.500000000000e-01 1.200000000000e-01
1.250000000000e-01 2.500000000000e-01 1.200000000000e-01
2.500000000000e-01 2.500000000000e-01 1.200000000000e-01
-2.500000000000e-01 -2.500000000000e-01 1.800000000000e-01
-1.250000000000e-01 -2.500000000000e-01 1.800000000000e-01
0.000000000000e+00 -2.500000000000e-01 1.800000000000e-01
1.250000000000e-01 -2.500000000000e-01 1.800000000000e-01
2.500000000000e-01 -2.500000000000e-01 1.800000000000e-01
-2.500000000000e-01 -1.250000000000e-01 1.800000000000e-01
-1.250000000000e-01 -1.250000000000e-01 1.800000000000e-01
0.000000000000e+00 -1.250000000000e-01 1.800000000000e-01
1.250000000000e-01 -1.250000000000e-01 1.800000000000e-01
2.500000000000e-01 -1.250000000000e-01 1.800000000000e-01
-2.500000000000e-01 0.000000000000e+00 1.800000000000e-01
-1.250000000000e-01 0.000000000000e+00 1.800000000000e-01
0.000000000000e+00 0.000000000000e+00 1.800000000000e-01
1.250000000000e-01 0.000000000000e+00 1.800000000000e-01
2.500000000000e-01 0.000000000000e+00 1.800000000000e-01
-2.500000000000e-01 1.250000000000e-01 1.800000000000e-01
-1.250000000000e-01 1.250000000000e-01 1.800000000000e-01
0.000000000000e+00 1.250000000000e-01 1.800000000000e-01
1.250000000000e-01 1.250000000000e-01 1.800000000000e-01
2.500000000000e-01 1.250000000000e-01 1.800000000000e-01
-2.500000000000e-01 2.500000000000e-01 1.800000000000e-01
-1.250000000000e-01 2.500000000000e-01 1.800000000000e-01
0.000000000000e+00 2.500000000000e-01 1.800000000000e-01
1.250000000000e-01 2.500000000000e-01 1.800000000000e-01
2.500000000000e-01 2.500000000000e-01 1.800000000000e-01
-2.500000000000e-01 -2.500000000000e-01 2.400000000000e-01
-1.250000000000e-01 -2.500000000000e-01 2.400000000000e-01
0.000000000000e+00 -2.500000000000e-01 2.400000000000e-01
1.250000000000e-01 -2.500000000000e-01 2.400000000000e-01
2.500000000000e-01 -2.500000000000e-01 2.400000000000e-01
-2.500000000000e-01 -1.250000000000e-01 2.400000000000e-01
-1.250000000000e-01 -1.250000000000e-01 2.400000000000e-01
0.000000000000e+00 -1.250000000000e-01 2.400000000000e-01
1.250000000000e-01 -1.250000000000e-01 2.400000000000e-01
2.500000000000e-01 -1.250000000000e-01 2.400000000000e-01
-2.500000000000e-01 0.000000000000e+00 2.400000000000e-01
-1.250000000000e-01 0.000000000000e+00 2.400000000000e-01
0.000000000000e+00 0.000000000000e+00 2.400000000000e-01
1.250000000000e-01 0.000000000000e+00 2.400000000000e-01
2.500000000000e-01 0.000000000000e+00 2.400000000000e-01
-2.500000000000e-01 1.250000000000e-01 2.400000000000e-01
-1.250000000000e-01 1.250000000000e-01 2.400000000000e-01
0.000000000000e+00 1.250000000000e-01 2.400000000000e-01
1.250000000000e-01 1.250000000000e-01 2.400000000000e-01
2.500000000000e-01 1.250000000000e-01 2.400000000000e-01
-2.500000000000e-01 2.500000000000e-01 2.400000000000e-01
-1.250000000000e-01 2.500000000000e-01 2.400000000000e-01
0.000000000000e+00 2.500000000000e-01 2.400000000000e-01
1.250000000000e-01 2.500000000000e-01 2.400000000000e-01
2.500000000000e-01 2.500000000000e-01 2.400000000000e-01
-2.500017380963e-01 -2.500017380963e-01 2.399474244371e-01
-1.250008816507e-01 -2.500017415778e-01 2.399468421732e-01
8.680336787371e-15 -2.500017391178e-01 2.399466306922e-01
1.250008816507e-01 -2.500017415778e-01 2.399468421732e-01
2.500017380963e-01 -2.500017380963e-01 2.399474244371e-01
-2.500017415778e-01 -1.250008816507e-01 2.399468421732e-01
-1.250008809431e-01 -1.250008809431e-01 2.399462622262e-01
8.216427649636e-15 -1.250008798047e-01 2.399460525687e-01
1.250008809431e-01 -1.250008809431e-01 2.399462622262e-01
2.500017415778e-01 -1.250008816507e-01 2.399468421732e-01
-2.500017391178e-01 -1.181064799543e-14 2.399466306922e-01
-1.250008798047e-01 -1.134246278879e-14 2.399460525687e-01
7.749411450048e-15 -1.087854305275e-14 2.399458425948e-01
1.250008798047e-01 -1.041051958173e-14 2.399460525687e-01
2.500017391178e-01 -9.944389695845e-15 2.399466306922e-01
-2.500017415778e-01 1.250008816507e-01 2.399468421732e-01
-1.250008809431e-01 1.250008809431e-01 2.399462622262e-01
7.277510667219e-15 1.250008798047e-01 2.399460525687e-01
1.250008809431e-01 1.250008809431e-01 2.399462622262e-01
2.500017415778e-01 1.250008816507e-01 2.399468421732e-01
-2.500017380963e-01 2.500017380963e-01 2.399474244371e-01
-1.250008816507e-01 2.500017415778e-01 2.399468421732e-01
6.806941320951e-15 2.500017391178e-01 2.399466306922e-01
1.250008816507e-01 2.500017415778e-01 2.399468421732e-01
2.500017380963e-01 2.500017380963e-01 2.399474244371e-01
-2.500013583562e-01 -2.500013583562e-01 3.049460045703e-01
-1.250006711358e-01 -2.500013649119e-01 3.049454022487e-01
8.742950500168e-15 -2.500013665474e-01 3.049451880064e-01
1.250006711358e-01 -2.500013649119e-01 3.049454022487e-01
2.500013583562e-01 -2.500013583562e-01 3.049460045703e-01
-2.500013649119e-01 -1.250006711358e-01 3.049454022487e-01
-1.250006706767e-01 -1.250006706767e-01 3.049448022521e-01
8.283041267562e-15 -1.250006702304e-01 3.049445906756e-01
1.250006706767e-01 -1.250006706767e-01 3.049448022521e-01
2.500013649119e-01 -1.250006711358e-01 3.049454022487e-01
-2.500013665474e-01 -1.177359280360e-14 3.049451880064e-01
-1.250006702303e-01 -1.130396591169e-14 3.049445906756e-01
7.814596598040e-15 -1.083974650965e-14 3.049443794933e-01
1.250006702304e-01 -1.037636496472e-14 3.049445906756e-01
2.500013665474e-01 -9.910651437294e-15 3.049451880063e-01
-2.500013649119e-01 1.250006711358e-01 3.049454022487e-01
-1.250006706767e-01 1.250006706767e-01 3.049448022521e-01
7.341086645895e-15 1.250006702303e-01 3.049445906756e-01
1.250006706767e-01 1.250006706767e-01 3.049448022521e-01
2.500013649119e-01 1.250006711358e-01 3.049454022487e-01
-2.500013583562e-01 2.500013583562e-01 3.049460045703e-01
-1.250006711358e-01 2.500013649119e-01 3.049454022487e-01
6.873164980647e-15 2.500013665474e-01 3.049451880064e-01
1.250006711358e-01 2.500013649119e-01 3.049454022487e-01
2.500013583562e-01 2.500013583562e-01 3.049460045703e-01
-2.500009154519e-01 -2.500009154519e-01 3.699450127802e-01
-1.250004608921e-01 -2.500009174674e-01 3.699443960727e-01
8.810646458587e-15 -2.500009190361e-01 3.699441801496e-01
1.250004608921e-01 -2.500009174674e-01 3.699443960727e-01
2.500009154519e-01 -2.500009154519e-01 3.699450127802e-01
-2.500009174674e-01 -1.250004608921e-01 3.699443960727e-01
-1.250004607296e-01 -1.250004607296e-01 3.699437812615e-01
8.347100394110e-15 -1.250004608367e-01 3.699435685468e-01
1.250004607296e-01 -1.250004607296e-01 3.699437812615e-01
2.500009174674e-01 -1.250004608921e-01 3.699443960727e-01
-2.500009190361e-01 -1.173992293435e-14 3.699441801496e-01
-1.250004608367e-01 -1.127137750674e-14 3.699435685468e-01
7.881078067093e-15 -1.080469902212e-14 3.699433568835e-01
1.250004608367e-01 -1.034010291306e-14 3.699435685468e-01
2.500009190361e-01 -9.874267888708e-15 3.699441801496e-01
-2.500009174674e-01 1.250004608921e-01 3.699443960727e-01
-1.250004607296e-01 1.250004607296e-01 3.699437812615e-01
7.408970120252e-15 1.250004608367e-01 3.699435685468e-01
1.250004607296e-01 1.250004607296e-01 3.699437812615e-01
2.500009174674e-01 1.250004608921e-01 3.699443960727e-01
-2.500009154519e-01 2.500009154519e-01 3.699450127802e-01
-1.250004608921e-01 2.500009174674e-01 3.699443960727e-01
6.935798453618e-15 2.500009190361e-01 3.699441801496e-01
1.250004608921e-01 2.500009174674e-01 3.699443960727e-01
2.500009154519e-01 2.500009154519e-01 3.699450127802e-01
-2.500004789287e-01 -2.500004789287e-01 4.349444179902e-01
-1.250002472206e-01 -2.500004775760e-01 4.349437997714e-01
8.875253486016e-15 -2.500004798891e-01 4.349435735423e-01
1.250002472206e-01 -2.500004775760e-01 4.349437997714e-01
2.500004789287e-01 -2.500004789287e-01 4.349444179902e-01
-2.500004775759e-01 -1.250002472206e-01 4.349437997714e-01
-1.250002471675e-01 -1.250002471675e-01 4.349431853054e-01
8.409099112695e-15 -1.250002479513e-01 4.349429623064e-01
1.250002471675e-01 -1.250002471675e-01 4.349431853054e-01
2.500004775760e-01 -1.250002472206e-01 4.349437997714e-01
-2.500004798891e-01 -1.170759595978e-14 4.349435735423e-01
-1.250002479513e-01 -1.124085923424e-14 4.349429623064e-01
7.944300698516e-15 -1.076887762482e-14 4.349427396515e-01
1.250002479513e-01 -1.030292528868e-14 4.349429623064e-01
2.500004798891e-01 -9.836326203166e-15 4.349435735423e-01
-2.500004775759e-01 1.250002472206e-01 4.349437997714e-01
-1.250002471675e-01 1.250002471675e-01 4.349431853054e-01
7.477897912988e-15 1.250002479513e-01 4.349429623064e-01
1.250002471675e-01 1.250002471675e-01 4.349431853054e-01
2.500004775760e-01 1.250002472206e-01 4.349437997714e-01
-2.500004789287e-01 2.500004789287e-01 4.349444179902e-01
-1.250002472206e-01 2.500004775759e-01 4.349437997714e-01
7.002017474786e-15 2.500004798891e-01 4.349435735423e-01
1.250002472206e-01 2.500004775759e-01 4.349437997714e-01
2.500004789287e-01 2.500004789287e-01 4.349444179902e-01
-2.500000970103e-01 -2.500000970103e-01 4.999441986569e-01
-1.250000260994e-01 -2.500001009364e-01 4.999435859867e-01
8.934055472915e-15 -2.500001090097e-01 4.999433559458e-01
1.250000260994e-01 -2.500001009364e-01 4.999435859867e-01
2.500000970103e-01 -2.500000970103e-01 4.999441986569e-01
-2.500001009364e-01 -1.250000260994e-01 4.999435859867e-01
-1.250000266002e-01 -1.250000266002e-01 4.999429790802e-01
8.471350000219e-15 -1.250000285063e-01 4.999427527962e-01
1.250000266002e-01 -1.250000266002e-01 4.999429790802e-01
2.500001009364e-01 -1.250000260994e-01 4.999435859867e-01
-2.500001090097e-01 -1.167464101786e-14 4.999433559458e-01
-1.250000285063e-01 -1.120254727544e-14 4.999427527962e-01
8.004319592381e-15 -1.073415811060e-14 4.999425269114e-01
1.250000285063e-01 -1.026484892235e-14 4.999427527962e-01
2.500001090097e-01 -9.796445993186e-15 4.999433559458e-01
-2.500001009364e-01 1.250000260994e-01 4.999435859867e-01
-1.250000266002e-01 1.250000266002e-01 4.999429790802e-01
7.541418381429e-15 1.250000285063e-01 4.999427527962e-01
1.250000266002e-01 1.250000266002e-01 4.999429790802e-01
2.500001009364e-01 1.250000260994e-01 4.999435859867e-01
-2.500000970103e-01 2.500000970103e-01 4.999441986569e-01
-1.250000260994e-01 2.500001009364e-01 4.999435859867e-01
7.072291091580e-15 2.500001090097e-01 4.999433559458e-01
1.250000260994e-01 2.500001009364e-01 4.999435859867e-01
2.500000970103e-01 2.500000970103e-01 4.999441986569e-01
CELLS 128 1152
8 0 1 6 5 25 26 31 30
8 1 2 7 6 26 27 32 31
8 2 3 8 7 27 28 33 32
8 3 4 9 8 28 29 34 33
8 5 6 11 10 30 31 36 35
8 6 7 12 11 31 32 37 36
8 7 8 13 12 32 33 38 37
8 8 9 14 13 33 34 39 38
8 10 11 16 15 35 36 41 40
8 11 12 17 16 36 37 42 41
8 12 13 18 17 37 38 43 42
8 13 14 19 18 38 39 44 43
8 15 16 21 20 40 41 46 45
8 16 17 22 21 41 42 47 46
8 17 18 23 22 42 43 48 47
8 18 19 24 23 43 44 49 48
8 25 26 31 30 50 51 56 55
8 26 27 32 31 51 52 57 56
8 27 28 33 32 52 53 58 57
8 28 29 34 33 53 54 59 58
8 30 31 36 35 55 56 61 60
8 31 32 37 36 56 57 62 61
8 32 33 38 37 57 58 63 62
8 33 34 39 38 58 59 64 63
8 35 36 41 40 60 61 66 65
8 36 37 42 41 61 62 67 66
8 37 38 43 42 62 63 68 67
8 38 39 44 43 63 64 69 68
8 40 41 46 45 65 66 71 70
8 41 42 47 46 66 67 72 71
8 42 43 48 47 67 68 73 72
8 43 44 49 48 68 69 74 73
8 50 51 56 55 75 76 81 80
8 51 52 57 56 76 77 82 81
8 52 53 58 57 77 78 83 82
8 53 54 59 58 78 79 84 83
8 55 56 61 60 80 81 86 85
8 56 57 62 61 81 82 87 86
8 57 58 63 62 82 83 88 87
8 58 59 64 63 83 84 89 88
8 60 61 66 65 85 86 91 90
8 61 62 67 66 86 87 92 91
8 62 63 68 67 87 88 93 92
8 63 64 69 68 88 89 94 93
8 65 66 71 70 90 91 96 95
8 66 67 72 71 91 92 97 96
8 67 68 73 72 92 93 98 97
8 68 69 74 73 93 94 99 98
8 75 76 81 80 100 101 106 105
8 76 77 82 81 101 102 107 106
8 77 78 83 82 102 103 108 107
8 78 79 84 83 103 104 109 108
8 80 81 86 85 105 106 111 110
8 81 82 87 86 106 107 112 111
8 82 83 88 87 107 108 113 112
8 83 84 89 88 108 109 114 113
8 85 86 91 90 110 111 116 115
8 86 87 92 91 111 112 117 116
8 87 88 93 92 112 113 118 117
8 88 89 94 93 113 114 119 118
8 90 91 96 95 115 116 121 120
8 91 92 97 96 116 117 122 121
8 92 93 98 97 117 118 123 122
8 93 94 99 98 118 119 124 123
8 125 126 131 130 150 151 156 155
8 126 127 132 131 151 152 157 156
8 127 128 133 132 152 153 158 157
8 128 129 134 133 153 154 159 158
8 130 131 136 135 155 156 161 160
8 131 132 137 136 156 157 162 161
8 132 133 138 137 157 158 163 162
8 133 134 139 138 158 159 164 163
8 135 136 141 140 160 161 166 165
8 136 137 142 141 161 162 167 166
8 137 138 143 142 162 163 168 167
8 138 139 144 143 163 164 169 168
8 140 141 146 145 165 166 171 170
8 141 142 147 146 166 167 172 171
8 142 143 148 147 167 168 173 172
8 143 144 149 148 168 169 174 173
8 150 151 156 155 175 176 181 180
8 151 152 157 156 176 177 182 181
8 152 153 158 157 177 178 183 182
8 153 154 159 158 178 179 184 183
8 155 156 161 160 180 181 186 185
8 156 157 162 161 181 182 187 186
8 157 158 163 162 182 183 188 187
8 158 159 164 163 183 184 189 188
8 160 161 166 165 185 186 191 190
8 161 162 167 166 186 187 192 191
8 162 163 168 167 187 188 193 192
8 163 164 169 168 188 189 194 193
8 165 166 171 170 190 191 196 195
8 166 167 172 171 191 192 197 196
8 167 168 173 172 192 193 198 197
8 168 169 174 173 193 194 199 198
8 175 176 181 180 200 201 206 205
8 176 177 182 181 201 202 207 206
8 177 178 183 182 202 203 208 207
8 178 179 184 183 203 204 209 208
8 180 181 186 185 205 206 211 210
8 181 182 187 186 206 207 212 211
8 182 183 188 187 207 208 213 212
8 183 184 189 188 208 209 214 213
8 185 186 191 190 210 211 216 215
8 186 187 192 191 211 212 217 216
8 187 188 193 192 212 213 218 217
8 188 189 194 193 213 214 219 218
8 190 191 196 195 215 216 221 220
8 191 192 197 196 216 217 222 221
8 192 193 198 197 217 218 223 222
8 193 194 199 198 218 219 224 223
8 200 201 206 205 225 226 231 230
8 201 202 207 206 226 227 232 231
8 202 203 208 207 227 228 233 232
8 203 204 209 208 228 229 234 233
8 205 206 211 210 230 231 236 235
8 206 207 212 211 231 232 237 236
8 207 208 213 212 232 233 238 237
8 208 209 214 213 233 234 239 238
8 210 211 216 215 235 236 241 240
8 211 212 217 216 236 237 242 241
8 212 213 218 217 237 238 243 242
8 213 214 219 218 238 239 244 243
8 215 216 221 220 240 241 246 245
8 216 217 222 221 241 242 247 246
8 217 218 223 222 242 243 248 247
8 218 219 224 223 243 244 249 248
CELL_TYPES 128
12
12
12
12
12
12
12
12
12
12
12
12
12
12
12
12
12
12
12
12
12
12
12
12
12
12
12
12
12
12
12
12
12
12
12
12
12
12
12
12
12
12
12
12
12
12
12
12
12
12
12
12
12
12
12
12
12
12
12
12
12
12
12
12
12
12
12
12
12
12
12
12
12
12
12
12
12
12
12
12
12
12
12
12
12
12
12
12
12
12
12
12
12
12
12
12
12
12
12
12
12
12
12
12
12
12
12
12
12
12
12
12
12
12
12
12
12
12
12
12
12
12
12
12
12
12
12
12
POINT_DATA 250
VECTORS displacement float
0.000000000000e+00 0.000000000000e+00 0.000000000000e+00
0.000000000000e+00 0.000000000000e+00 0.000000000000e+00
0.000000000000e+00 0.000000000000e+00 0.000000000000e+00
0.000000000000e+00 0.000000000000e+00 0.000000000000e+00
0.000000000000e+00 0.000000000000e+00 0.000000000000e+00
0.000000000000e+00 0.000000000000e+00 0.000000000000e+00
0.000000000000e+00 0.000000000000e+00 0.000000000000e+00
0.000000000000e+00 0.000000000000e+00 0.000000000000e+00
0.000000000000e+00 0.000000000000e+00 0.000000000000e+00
0.000000000000e+00 0.000000000000e+00 0.000000000000e+00
0.000000000000e+00 0.000000000000e+00 0.000000000000e+00
0.000000000000e+00 0.000000000000e+00 0.000000000000e+00
0.000000000000e+00 0.000000000000e+00 0.000000000000e+00
0.000000000000e+00 0.000000000000e+00 0.000000000000e+00
0.000000000000e+00 0.000000000000e+00 0.000000000000e+00
0.000000000000e+00 0.000000000000e+00 0.000000000000e+00
0.000000000000e+00 0.000000000000e+00 0.000000000000e+00
0.000000000000e+00 0.000000000000e+00 0.000000000000e+00
0.000000000000e+00 0.000000000000e+00 0.000000000000e+00
0.000000000000e+00 0.000000000000e+00 0.000000000000e+00
0.000000000000e+00 0.000000000000e+00 0.000000000000e+00
0.000000000000e+00 0.000000000000e+00 0.000000000000e+00
0.000000000000e+00 0.000000000000e+00 0.000000000000e+00
0.000000000000e+00 0.000000000000e+00 0.000000000000e+00
0.000000000000e+00 0.000000000000e+00 0.000000000000e+00
0.000000000000e+00 0.000000000000e+00 0.000000000000e+00
0.000000000000e+00 0.000000000000e+00 0.000000000000e+00
0.000000000000e+00 0.000000000000e+00 0.000000000000e+00
0.000000000000e+00 0.000000000000e+00 0.000000000000e+00
0.000000000000e+00 0.000000000000e+00 0.000000000000e+00
0.000000000000e+00 0.000000000000e+00 0.000000000000e+00
0.000000000000e+00 0.000000000000e+00 0.000000000000e+00
0.000000000000e+00 0.000000000000e+00 0.000000000000e+00
0.000000000000e+00 0.000000000000e+00 0.000000000000e+00
0.000000000000e+00 0.000000000000e+00 0.000000000000e+00
0.000000000000e+00 0.000000000000e+00 0.000000000000e+00
0.000000000000e+00 0.000000000000e+00 0.000000000000e+00
0.000000000000e+00 0.000000000000e+00 0.000000000000e+00
0.000000000000e+00 0.000000000000e+00 0.000000000000e+00
0.000000000000e+00 0.000000000000e+00 0.000000000000e+00
0.000000000000e+00 0.000000000000e+00 0.000000000000e+00
0.000000000000e+00 0.000000000000e+00 0.000000000000e+00
0.000000000000e+00 0.000000000000e+00 0.000000000000e+00
0.000000000000e+00 0.000000000000e+00 0.000000000000e+00
0.000000000000e+00 0.000000000000e+00 0.000000000000e+00
0.000000000000e+00 0.000000000000e+00 0.000000000000e+00
0.000000000000e+00 0.000000000000e+00 0.000000000000e+00
0.000000000000e+00 0.000000000000e+00 0.000000000000e+00
0.000000000000e+00 0.000000000000e+00 0.000000000000e+00
0.000000000000e+00 0.000000000000e+00 0.000000000000e+00
0.000000000000e+00 0.000000000000e+00 0.000000000000e+00
0.000000000000e+00 0.000000000000e+00 0.000000000000e+00
0.000000000000e+00 0.000000000000e+00 0.000000000000e+00
0.000000000000e+00 0.000000000000e+00 0.000000000000e+00
0.000000000000e+00 0.000000000000e+00 0.000000000000e+00
0.000000000000e+00 0.000000000000e+00 0.000000000000e+00
0.000000000000e+00 0.000000000000e+00 0.000000000000e+00
0.000000000000e+00 0.000000000000e+00 0.000000000000e+00
0.000000000000e+00 0.000000000000e+00 0.000000000000e+00
0.000000000000e+00 0.000000000000e+00 0.000000000000e+00
0.000000000000e+00 0.000000000000e+00 0.000000000000e+00
0.000000000000e+00 0.000000000000e+00 0.000000000000e+00
0.000000000000e+00 0.000000000000e+00 0.000000000000e+00
0.000000000000e+00 0.000000000000e+00 0.000000000000e+00
0.000000000000e+00 0.000000000000e+00 0.000000000000e+00
0.000000000000e+00 0.000000000000e+00 0.000000000000e+00
0.000000000000e+00 0.000000000000e+00 0.000000000000e+00
0.000000000000e+00 0.000000000000e+00 0.000000000000e+00
0.000000000000e+00 0.000000000000e+00 0.000000000000e+00
0.000000000000e+00 0.000000000000e+00 0.000000000000e+00
0.000000000000e+00 0.000000000000e+00 0.000000000000e+00
0.000000000000e+00 0.000000000000e+00 0.000000000000e+00
0.000000000000e+00 0.000000000000e+00 0.000000000000e+00
0.000000000000e+00 0.000000000000e+00 0.000000000000e+00
0.000000000000e+00 0.000000000000e+00 0.000000000000e+00
0.000000000000e+00 0.000000000000e+00 0.000000000000e+00
0.000000000000e+00 0.000000000000e+00 0.000000000000e+00
0.000000000000e+00 0.000000000000e+00 0.000000000000e+00
0.000000000000e+00 0.000000000000e+00 0.000000000000e+00
0.000000000000e+00 0.000000000000e+00 0.000000000000e+00
0.000000000000e+00 0.000000000000e+00 0.000000000000e+00
0.000000000000e+00 0.000000000000e+00 0.000000000000e+00
0.000000000000e+00 0.000000000000e+00 0.000000000000e+00
0.000000000000e+00 0.000000000000e+00 0.000000000000e+00
0.000000000000e+00 0.000000000000e+00 0.000000000000e+00
0.000000000000e+00 0.000000000000e+00 0.000000000000e+00
0.000000000000e+00 0.000000000000e+00 0.000000000000e+00
0.000000000000e+00 0.000000000000e+00 0.000000000000e+00
0.000000000000e+00 0.000000000000e+00 0.000000000000e+00
0.000000000000e+00 0.000000000000e+00 0.000000000000e+00
0.000000000000e+00 0.000000000000e+00 0.000000000000e+00
0.000000000000e+00 0.000000000000e+00 0.000000000000e+00
0.000000000000e+00 0.000000000000e+00 0.000000000000e+00
0.000000000000e+00 0.000000000000e+00 0.000000000000e+00
0.000000000000e+00 0.000000000000e+00 0.000000000000e+00
0.000000000000e+00 0.000000000000e+00 0.000000000000e+00
0.000000000000e+00 0.000000000000e+00 0.000000000000e+00
0.000000000000e+00 0.000000000000e+00 0.000000000000e+00
0.000000000000e+00 0.000000000000e+00 0.000000000000e+00
0.000000000000e+00 0.000000000000e+00 0.000000000000e+00
0.000000000000e+00 0.000000000000e+00 0.000000000000e+00
0.000000000000e+00 0.000000000000e+00 0.000000000000e+00
0.000000000000e+00 0.000000000000e+00 0.000000000000e+00
0.000000000000e+00 0.000000000000e+00 0.000000000000e+00
0.000000000000e+00 0.000000000000e+00 0.000000000000e+00
0.000000000000e+00 0.000000000000e+00 0.000000000000e+00
0.000000000000e+00 0.000000000000e+00 0.000000000000e+00
0.000000000000e+00 0.000000000000e+00 0.000000000000e+00
0.000000000000e+00 0.000000000000e+00 0.000000000000e+00
0.000000000000e+00 0.000000000000e+00 0.000000000000e+00
0.000000000000e+00 0.000000000000e+00 0.000000000000e+00
0.000000000000e+00 0.000000000000e+00 0.000000000000e+00
0.000000000000e+00 0.000000000000e+00 0.000000000000e+00
0.000000000000e+00 0.000000000000e+00 0.000000000000e+00
0.000000000000e+00 0.000000000000e+00 0.000000000000e+00
0.000000000000e+00 0.000000000000e+00 0.000000000000e+00
0.000000000000e+00 0.000000000000e+00 0.000000000000e+00
0.000000000000e+00 0.000000000000e+00 0.000000000000e+00
0.000000000000e+00 0.000000000000e+00 0.000000000000e+00
0.000000000000e+00 0.000000000000e+00 0.000000000000e+00
0.000000000000e+00 0.000000000000e+00 0.000000000000e+00
0.000000000000e+00 0.000000000000e+00 0.000000000000e+00
0.000000000000e+00 0.000000000000e+00 0.000000000000e+00
0.000000000000e+00 0.000000000000e+00 0.000000000000e+00
0.000000000000e+00 0.000000000000e+00 0.000000000000e+00
-1.738096285870e-06 -1.738096306362e-06 -1.505257556287e-02
-8.816506616405e-07 -1.741577849482e-06 -1.505315782676e-02
8.680336787371e-15 -1.739117793973e-06 -1.505336930783e-02
8.816506789965e-07 -1.741577848569e-06 -1.505315782676e-02
1.738096303221e-06 -1.738096304519e-06 -1.505257556287e-02
-1.741577829938e-06 -8.816506821323e-07 -1.505315782676e-02
-8.809430640676e-07 -8.809430836302e-07 -1.505373777383e-02
8.216427649636e-15 -8.798047086653e-07 -1.505394743126e-02
8.809430804891e-07 -8.809430827005e-07 -1.505373777383e-02
1.741577846344e-06 -8.816506802787e-07 -1.505315782676e-02
-1.739117775354e-06 -1.181064799543e-14 -1.505336930783e-02
-8.798046900388e-07 -1.134246278879e-14 -1.505394743126e-02
7.749411450048e-15 -1.087854305275e-14 -1.505415740525e-02
8.798047055286e-07 -1.041051958173e-14 -1.505394743126e-02
1.739117790842e-06 -9.944389695845e-15 -1.505336930783e-02
-1.741577830872e-06 8.816506585184e-07 -1.505315782676e-02
-8.809430650063e-07 8.809430609522e-07 -1.505373777383e-02
7.277510667219e-15 8.798046869168e-07 -1.505394743126e-02
8.809430795554e-07 8.809430618798e-07 -1.505373777383e-02
1.741577845416e-06 8.816506603832e-07 -1.505315782676e-02
-1.738096287730e-06 1.738096282748e-06 -1.505257556287e-02
-8.816506635107e-07 1.741577826815e-06 -1.505315782676e-02
6.806941320951e-15 1.739117772235e-06 -1.505336930783e-02
8.816506771239e-07 1.741577827750e-06 -1.505315782676e-02
1.738096301343e-06 1.738096284617e-06 -1.505257556287e-02
-1.358356214926e-06 -1.358356235454e-06 -1.505399542968e-02
-6.711358045987e-07 -1.364911888472e-06 -1.505459775128e-02
8.742950500168e-15 -1.366547387408e-06 -1.505481199365e-02
6.711358220864e-07 -1.364911887540e-06 -1.505459775128e-02
1.358356232413e-06 -1.358356233594e-06 -1.505399542968e-02
-1.364911868887e-06 -6.711358251203e-07 -1.505459775127e-02
-6.706766688638e-07 -6.706766884556e-07 -1.505519774795e-02
8.283041267562e-15 -6.702303604223e-07 -1.505540932439e-02
6.706766854226e-07 -6.706766875236e-07 -1.505519774795e-02
1.364911885436e-06 -6.711358232621e-07 -1.505459775128e-02
-1.366547368756e-06 -1.177359280360e-14 -1.505481199365e-02
-6.702303417698e-07 -1.130396591169e-14 -1.505540932439e-02
7.814596598040e-15 -1.083974650965e-14 -1.505562050667e-02
6.702303573925e-07 -1.037636496472e-14 -1.505540932439e-02
1.366547384377e-06 -9.910651437294e-15 -1.505481199365e-02
-1.364911869823e-06 6.711358015759e-07 -1.505459775128e-02
-6.706766698031e-07 6.706766658426e-07 -1.505519774795e-02
7.341086645895e-15 6.702303387446e-07 -1.505540932439e-02
6.706766844868e-07 6.706766667729e-07 -1.505519774795e-02
1.364911884506e-06 6.711358034438e-07 -1.505459775128e-02
-1.358356216799e-06 1.358356211906e-06 -1.505399542968e-02
-6.711358064738e-07 1.364911865859e-06 -1.505459775128e-02
6.873164980647e-15 1.366547365730e-06 -1.505481199365e-02
6.711358202158e-07 1.364911866792e-06 -1.505459775128e-02
1.358356230546e-06 1.358356213775e-06 -1.505399542968e-02
-9.154518858003e-07 -9.154519063543e-07 -1.505498721981e-02
-4.608921051943e-07 -9.174673773102e-07 -1.505560392729e-02
8.810646458587e-15 -9.190360850255e-07 -1.505581985040e-02
4.608921228146e-07 -9.174673763761e-07 -1.505560392729e-02
9.154519034176e-07 -9.154519044858e-07 -1.505498721981e-02
-9.174673576936e-07 -4.608921257504e-07 -1.505560392728e-02
-4.607295540384e-07 -4.607295736534e-07 -1.505621873847e-02
8.347100394110e-15 -4.608367283699e-07 -1.505643145324e-02
4.607295707305e-07 -4.607295727216e-07 -1.505621873847e-02
9.174673743757e-07 -4.608921238854e-07 -1.505560392729e-02
-9.190360663454e-07 -1.173992293435e-14 -1.505581985040e-02
-4.608367096867e-07 -1.127137750674e-14 -1.505643145324e-02
7.881078067093e-15 -1.080469902212e-14 -1.505664311647e-02
4.608367254435e-07 -1.034010291306e-14 -1.505643145325e-02
9.190360820936e-07 -9.874267888708e-15 -1.505581985040e-02
-9.174673586309e-07 4.608921022677e-07 -1.505560392729e-02
-4.607295549763e-07 4.607295511126e-07 -1.505621873847e-02
7.408970120252e-15 4.608367067624e-07 -1.505643145325e-02
4.607295697935e-07 4.607295520430e-07 -1.505621873847e-02
9.174673734462e-07 4.608921041402e-07 -1.505560392729e-02
-9.154518876734e-07 9.154518828690e-07 -1.505498721981e-02
-4.608921070689e-07 9.174673547644e-07 -1.505560392729e-02
6.935798453618e-15 9.190360634124e-07 -1.505581985040e-02
4.608921209455e-07 9.174673556986e-07 -1.505560392729e-02
9.154519015499e-07 9.154518847433e-07 -1.505498721981e-02
-4.789287193836e-07 -4.789287399608e-07 -1.505558200980e-02
-2.472206175712e-07 -4.775759551844e-07 -1.505620022857e-02
8.875253486016e-15 -4.798891297020e-07 -1.505642645770e-02
2.472206353190e-07 -4.775759542483e-07 -1.505620022857e-02
4.789287371266e-07 -4.789287380893e-07 -1.505558200980e-02
-4.775759355436e-07 -2.472206381511e-07 -1.505620022857e-02
-2.471675007768e-07 -2.471675204184e-07 -1.505681469464e-02
8.409099112695e-15 -2.479512801616e-07 -1.505703769360e-02
2.471675175974e-07 -2.471675194861e-07 -1.505681469464e-02
4.775759523616e-07 -2.472206362829e-07 -1.505620022857e-02
-4.798891109942e-07 -1.170759595978e-14 -1.505642645770e-02
-2.479512614528e-07 -1.124085923424e-14 -1.505703769360e-02
7.944300698516e-15 -1.076887762482e-14 -1.505726034848e-02
2.479512773433e-07 -1.030292528868e-14 -1.505703769360e-02
4.798891268848e-07 -9.836326203166e-15 -1.505642645770e-02
-4.775759364846e-07 2.472206147330e-07 -1.505620022857e-02
-2.471675017131e-07 2.471674979400e-07 -1.505681469464e-02
7.477897912988e-15 2.479512586213e-07 -1.505703769360e-02
2.471675166634e-07 2.471674988799e-07 -1.505681469464e-02
4.775759514292e-07 2.472206166115e-07 -1.505620022857e-02
-4.789287212509e-07 4.789287165403e-07 -1.505558200980e-02
-2.472206194440e-07 4.775759327022e-07 -1.505620022857e-02
7.002017474786e-15 4.798891081604e-07 -1.505642645770e-02
2.472206334521e-07 4.775759336413e-07 -1.505620022857e-02
4.789287352642e-07 4.789287184217e-07 -1.505558200980e-02
-9.701032659767e-08 -9.701034719927e-08 -1.505580134313e-02
-2.609940802366e-08 -1.009363748964e-07 -1.505641401331e-02
8.934055472915e-15 -1.090096729814e-07 -1.505664405416e-02
2.609942589422e-08 -1.009363739625e-07 -1.505641401331e-02
9.701034446779e-08 -9.701034532477e-08 -1.505580134313e-02
-1.009363552399e-07 -2.609942862466e-08 -1.505641401331e-02
-2.660021240627e-08 -2.660023206597e-08 -1.505702091976e-02
8.471350000219e-15 -2.850634874563e-08 -1.505724720377e-02
2.660022935352e-08 -2.660023113432e-08 -1.505702091976e-02
1.009363721865e-07 -2.609942675067e-08 -1.505641401331e-02
-1.090096542552e-07 -1.167464101786e-14 -1.505664405416e-02
-2.850633001479e-08 -1.120254727544e-14 -1.505724720377e-02
8.004319592381e-15 -1.073415811060e-14 -1.505747308862e-02
2.850634603518e-08 -1.026484892235e-14 -1.505724720377e-02
1.090096702874e-07 -9.796445993186e-15 -1.505664405416e-02
-1.009363561769e-07 2.609940527090e-08 -1.505641401331e-02
-2.660021334052e-08 2.660020965170e-08 -1.505702091976e-02
7.541418381429e-15 2.850632727111e-08 -1.505724720377e-02
2.660022842322e-08 2.660021059987e-08 -1.505702091976e-02
1.009363712540e-07 2.609940715416e-08 -1.505641401331e-02
-9.701032847583e-08 9.701032384621e-08 -1.505580134313e-02
-2.609940989694e-08 1.009363524702e-07 -1.505641401331e-02
7.072291091580e-15 1.090096514967e-07 -1.505664405416e-02
2.609942403377e-08 1.009363534349e-07 -1.505641401331e-02
9.701034261400e-08 9.701032572489e-08 -1.505580134313e-02
SCALARS displacement_magnitude float 1
LOOKUP_TABLE default
0.000000000000e+00
0.000000000000e+00
0.000000000000e+00
0.000000000000e+00
0.000000000000e+00
0.000000000000e+00
0.000000000000e+00
0.000000000000e+00
0.000000000000e+00
0.000000000000e+00
0.000000000000e+00
0.000000000000e+00
0.000000000000e+00
0.000000000000e+00
0.000000000000e+00
0.000000000000e+00
0.000000000000e+00
0.000000000000e+00
0.000000000000e+00
0.000000000000e+00
0.000000000000e+00
0.000000000000e+00
0.000000000000e+00
0.000000000000e+00
0.000000000000e+00
0.000000000000e+00
0.000000000000e+00
0.000000000000e+00
0.000000000000e+00
0.000000000000e+00
0.000000000000e+00
0.000000000000e+00
0.000000000000e+00
0.000000000000e+00
0.000000000000e+00
0.000000000000e+00
0.000000000000e+00
0.000000000000e+00
0.000000000000e+00
0.000000000000e+00
0.000000000000e+00
0.000000000000e+00
0.000000000000e+00
0.000000000000e+00
0.000000000000e+00
0.000000000000e+00
0.000000000000e+00
0.000000000000e+00
0.000000000000e+00
0.000000000000e+00
0.000000000000e+00
0.000000000000e+00
0.000000000000e+00
0.000000000000e+00
0.000000000000e+00
0.000000000000e+00
0.000000000000e+00
0.000000000000e+00
0.000000000000e+00
0.000000000000e+00
0.000000000000e+00
0.000000000000e+00
0.000000000000e+00
0.000000000000e+00
0.000000000000e+00
0.000000000000e+00
0.000000000000e+00
0.000000000000e+00
0.000000000000e+00
0.000000000000e+00
0.000000000000e+00
0.000000000000e+00
0.000000000000e+00
0.000000000000e+00
0.000000000000e+00
0.000000000000e+00
0.000000000000e+00
0.000000000000e+00
0.000000000000e+00
0.000000000000e+00
0.000000000000e+00
0.000000000000e+00
0.000000000000e+00
0.000000000000e+00
0.000000000000e+00
0.000000000000e+00
0.000000000000e+00
0.000000000000e+00
0.000000000000e+00
0.000000000000e+00
0.000000000000e+00
0.000000000000e+00
0.000000000000e+00
0.000000000000e+00
0.000000000000e+00
0.000000000000e+00
0.000000000000e+00
0.000000000000e+00
0.000000000000e+00
0.000000000000e+00
0.000000000000e+00
0.000000000000e+00
0.000000000000e+00
0.000000000000e+00
0.000000000000e+00
0.000000000000e+00
0.000000000000e+00
0.000000000000e+00
0.000000000000e+00
0.000000000000e+00
0.000000000000e+00
0.000000000000e+00
0.000000000000e+00
0.000000000000e+00
0.000000000000e+00
0.000000000000e+00
0.000000000000e+00
0.000000000000e+00
0.000000000000e+00
0.000000000000e+00
0.000000000000e+00
0.000000000000e+00
0.000000000000e+00
0.000000000000e+00
0.000000000000e+00
1.505257576357e-02
1.505315795332e-02
1.505336940829e-02
1.505315795332e-02
1.505257576357e-02
1.505315795332e-02
1.505373782538e-02
1.505394745697e-02
1.505373782538e-02
1.505315795332e-02
1.505336940829e-02
1.505394745697e-02
1.505415740525e-02
1.505394745697e-02
1.505336940829e-02
1.505315795332e-02
1.505373782538e-02
1.505394745697e-02
1.505373782538e-02
1.505315795332e-02
1.505257576357e-02
1.505315795332e-02
1.505336940829e-02
1.505315795332e-02
1.505257576357e-02
1.505399555224e-02
1.505459782811e-02
1.505481205567e-02
1.505459782811e-02
1.505399555224e-02
1.505459782811e-02
1.505519777783e-02
1.505540933931e-02
1.505519777783e-02
1.505459782811e-02
1.505481205567e-02
1.505540933931e-02
1.505562050667e-02
1.505540933931e-02
1.505481205567e-02
1.505459782811e-02
1.505519777783e-02
1.505540933931e-02
1.505519777783e-02
1.505459782811e-02
1.505399555224e-02
1.505459782811e-02
1.505481205567e-02
1.505459782811e-02
1.505399555225e-02
1.505498727548e-02
1.505560396229e-02
1.505581987845e-02
1.505560396229e-02
1.505498727548e-02
1.505560396229e-02
1.505621875256e-02
1.505643146030e-02
1.505621875256e-02
1.505560396229e-02
1.505581987845e-02
1.505643146030e-02
1.505664311647e-02
1.505643146030e-02
1.505581987845e-02
1.505560396229e-02
1.505621875256e-02
1.505643146030e-02
1.505621875257e-02
1.505560396229e-02
1.505498727548e-02
1.505560396229e-02
1.505581987845e-02
1.505560396229e-02
1.505498727548e-02
1.505558202504e-02
1.505620023818e-02
1.505642646535e-02
1.505620023818e-02
1.505558202504e-02
1.505620023818e-02
1.505681469870e-02
1.505703769565e-02
1.505681469870e-02
1.505620023818e-02
1.505642646535e-02
1.505703769565e-02
1.505726034848e-02
1.505703769565e-02
1.505642646535e-02
1.505620023818e-02
1.505681469870e-02
1.505703769565e-02
1.505681469870e-02
1.505620023818e-02
1.505558202504e-02
1.505620023818e-02
1.505642646535e-02
1.505620023818e-02
1.505558202504e-02
1.505580134376e-02
1.505641401367e-02
1.505664405456e-02
1.505641401367e-02
1.505580134376e-02
1.505641401367e-02
1.505702091981e-02
1.505724720380e-02
1.505702091981e-02
1.505641401367e-02
1.505664405456e-02
1.505724720380e-02
1.505747308862e-02
1.505724720380e-02
1.505664405456e-02
1.505641401367e-02
1.505702091981e-02
1.505724720380e-02
1.505702091981e-02
1.505641401367e-02
1.505580134376e-02
1.505641401367e-02
1.505664405456e-02
1.505641401367e-02
1.505580134376e-02
CELL_DATA 128
SCALARS displacement_magnitude float 1
LOOKUP_TABLE default
0.000000000000e+00
0.000000000000e+00
0.000000000000e+00
0.000000000000e+00
0.000000000000e+00
0.000000000000e+00
0.000000000000e+00
0.000000000000e+00
0.000000000000e+00
0.000000000000e+00
0.000000000000e+00
0.000000000000e+00
0.000000000000e+00
0.000000000000e+00
0.000000000000e+00
0.000000000000e+00
0.000000000000e+00
0.000000000000e+00
0.000000000000e+00
0.000000000000e+00
0.000000000000e+00
0.000000000000e+00
0.000000000000e+00
0.000000000000e+00
0.000000000000e+00
0.000000000000e+00
0.000000000000e+00
0.000000000000e+00
0.000000000000e+00
0.000000000000e+00
0.000000000000e+00
0.000000000000e+00
0.000000000000e+00
0.000000000000e+00
0.000000000000e+00
0.000000000000e+00
0.000000000000e+00
0.000000000000e+00
0.000000000000e+00
0.000000000000e+00
0.000000000000e+00
0.000000000000e+00
0.000000000000e+00
0.000000000000e+00
0.000000000000e+00
0.000000000000e+00
0.000000000000e+00
0.000000000000e+00
0.000000000000e+00
0.000000000000e+00
0.000000000000e+00
0.000000000000e+00
0.000000000000e+00
0.000000000000e+00
0.000000000000e+00
0.000000000000e+00
0.000000000000e+00
0.000000000000e+00
0.000000000000e+00
0.000000000000e+00
0.000000000000e+00
0.000000000000e+00
0.000000000000e+00
0.000000000000e+00
1.505387731024e-02
1.505427870561e-02
1.505427870561e-02
1.505387731024e-02
1.505427870561e-02
1.505467838846e-02
1.505467838846e-02
1.505427870561e-02
1.505427870561e-02
1.505467838846e-02
1.505467838846e-02
1.505427870561e-02
1.505387731024e-02
1.505427870561e-02
1.505427870561e-02
1.505387731024e-02
1.505510036736e-02
1.505551138181e-02
1.505551138182e-02
1.505510036736e-02
1.505551138181e-02
1.505592021909e-02
1.505592021909e-02
1.505551138182e-02
1.505551138181e-02
1.505592021909e-02
1.505592021909e-02
1.505551138182e-02
1.505510036736e-02
1.505551138182e-02
1.505551138182e-02
1.505510036737e-02
1.505590139409e-02
1.505631914393e-02
1.505631914393e-02
1.505590139409e-02
1.505631914393e-02
1.505673440351e-02
1.505673440351e-02
1.505631914393e-02
1.505631914393e-02
1.505673440351e-02
1.505673440351e-02
1.505631914393e-02
1.505590139409e-02
1.505631914393e-02
1.505631914393e-02
1.505590139409e-02
1.505630593637e-02
1.505672566121e-02
1.505672566121e-02
1.505630593637e-02
1.505672566121e-02
1.505714235681e-02
1.505714235681e-02
1.505672566121e-02
1.505672566121e-02
1.505714235681e-02
1.505714235681e-02
1.505672566121e-02
1.505630593637e-02
1.505672566121e-02
1.505672566121e-02
1.505630593637e-02
SCALARS engineering_strain_norm float 1
LOOKUP_TABLE default
0.000000000000e+00
0.000000000000e+00
0.000000000000e+00
0.000000000000e+00
0.000000000000e+00
0.000000000000e+00
0.000000000000e+00
0.000000000000e+00
0.000000000000e+00
0.000000000000e+00
0.000000000000e+00
0.000000000000e+00
0.000000000000e+00
0.000000000000e+00
0.000000000000e+00
0.000000000000e+00
0.000000000000e+00
0.000000000000e+00
0.000000000000e+00
0.000000000000e+00
0.000000000000e+00
0.000000000000e+00
0.000000000000e+00
0.000000000000e+00
0.000000000000e+00
0.000000000000e+00
0.000000000000e+00
0.000000000000e+00
0.000000000000e+00
0.000000000000e+00
0.000000000000e+00
0.000000000000e+00
0.000000000000e+00
0.000000000000e+00
0.000000000000e+00
0.000000000000e+00
0.000000000000e+00
0.000000000000e+00
0.000000000000e+00
0.000000000000e+00
0.000000000000e+00
0.000000000000e+00
0.000000000000e+00
0.000000000000e+00
0.000000000000e+00
0.000000000000e+00
0.000000000000e+00
0.000000000000e+00
0.000000000000e+00
0.000000000000e+00
0.000000000000e+00
0.000000000000e+00
0.000000000000e+00
0.000000000000e+00
0.000000000000e+00
0.000000000000e+00
0.000000000000e+00
0.000000000000e+00
0.000000000000e+00
0.000000000000e+00
0.000000000000e+00
0.000000000000e+00
0.000000000000e+00
0.000000000000e+00
2.382498400623e-05
2.399382565893e-05
2.399382565892e-05
2.382498400626e-05
2.399382565900e-05
2.413874350286e-05
2.413874350280e-05
2.399382565903e-05
2.399382565897e-05
2.413874350284e-05
2.413874350287e-05
2.399382565908e-05
2.382498400623e-05
2.399382565898e-05
2.399382565905e-05
2.382498400634e-05
1.678643878676e-05
1.689093324886e-05
1.689093324881e-05
1.678643878667e-05
1.689093324900e-05
1.697532097212e-05
1.697532097200e-05
1.689093324885e-05
1.689093324891e-05
1.697532097207e-05
1.697532097207e-05
1.689093324892e-05
1.678643878673e-05
1.689093324879e-05
1.689093324888e-05
1.678643878680e-05
9.956588863898e-06
1.006003764878e-05
1.006003764874e-05
9.956588863745e-06
1.006003764877e-05
1.015457676547e-05
1.015457676551e-05
1.006003764871e-05
1.006003764884e-05
1.015457676553e-05
1.015457676545e-05
1.006003764875e-05
9.956588863864e-06
1.006003764870e-05
1.006003764874e-05
9.956588863853e-06
3.726131060482e-06
3.666358519583e-06
3.666358519584e-06
3.726131060402e-06
3.666358519591e-06
3.582081055195e-06
3.582081055303e-06
3.666358519611e-06
3.666358519613e-06
3.582081055244e-06
3.582081055240e-06
3.666358519588e-06
3.726131060472e-06
3.666358519536e-06
3.666358519550e-06
3.726131060468e-06
SCALARS von_mises float 1
LOOKUP_TABLE default
0.000000000000e+00
0.000000000000e+00
0.000000000000e+00
0.000000000000e+00
0.000000000000e+00
0.000000000000e+00
0.000000000000e+00
0.000000000000e+00
0.000000000000e+00
0.000000000000e+00
0.000000000000e+00
0.000000000000e+00
0.000000000000e+00
0.000000000000e+00
0.000000000000e+00
0.000000000000e+00
0.000000000000e+00
0.000000000000e+00
0.000000000000e+00
0.000000000000e+00
0.000000000000e+00
0.000000000000e+00
0.000000000000e+00
0.000000000000e+00
0.000000000000e+00
0.000000000000e+00
0.000000000000e+00
0.000000000000e+00
0.000000000000e+00
0.000000000000e+00
0.000000000000e+00
0.000000000000e+00
0.000000000000e+00
0.000000000000e+00
0.000000000000e+00
0.000000000000e+00
0.000000000000e+00
0.000000000000e+00
0.000000000000e+00
0.000000000000e+00
0.000000000000e+00
0.000000000000e+00
0.000000000000e+00
0.000000000000e+00
0.000000000000e+00
0.000000000000e+00
0.000000000000e+00
0.000000000000e+00
0.000000000000e+00
0.000000000000e+00
0.000000000000e+00
0.000000000000e+00
0.000000000000e+00
0.000000000000e+00
0.000000000000e+00
0.000000000000e+00
0.000000000000e+00
0.000000000000e+00
0.000000000000e+00
0.000000000000e+00
0.000000000000e+00
0.000000000000e+00
0.000000000000e+00
0.000000000000e+00
2.180831965597e+00
2.195423180043e+00
2.195423180042e+00
2.180831965599e+00
2.195423180050e+00
2.207028325719e+00
2.207028325713e+00
2.195423180052e+00
2.195423180048e+00
2.207028325718e+00
2.207028325720e+00
2.195423180056e+00
2.180831965597e+00
2.195423180048e+00
2.195423180053e+00
2.180831965606e+00
1.543686275841e+00
1.551880548583e+00
1.551880548578e+00
1.543686275832e+00
1.551880548596e+00
1.557517160855e+00
1.557517160844e+00
1.551880548582e+00
1.551880548588e+00
1.557517160851e+00
1.557517160851e+00
1.551880548588e+00
1.543686275838e+00
1.551880548578e+00
1.551880548585e+00
1.543686275844e+00
9.164627566487e-01
9.265158803117e-01
9.265158803078e-01
9.164627566349e-01
9.265158803103e-01
9.356524191355e-01
9.356524191383e-01
9.265158803051e-01
9.265158803168e-01
9.356524191404e-01
9.356524191334e-01
9.265158803089e-01
9.164627566453e-01
9.265158803044e-01
9.265158803081e-01
9.164627566446e-01
3.469102980599e-01
3.410030915820e-01
3.410030915821e-01
3.469102980526e-01
3.410030915819e-01
3.327178909631e-01
3.327178909731e-01
3.410030915846e-01
3.410030915836e-01
3.327178909673e-01
3.327178909674e-01
3.410030915824e-01
3.469102980590e-01
3.410030915775e-01
3.410030915790e-01
3.469102980587e-01
SCALARS sdf_gap float 1
LOOKUP_TABLE default
0.000000000000e+00
0.000000000000e+00
0.000000000000e+00
0.000000000000e+00
0.000000000000e+00
0.000000000000e+00
0.000000000000e+00
0.000000000000e+00
0.000000000000e+00
0.000000000000e+00
0.000000000000e+00
0.000000000000e+00
0.000000000000e+00
0.000000000000e+00
0.000000000000e+00
0.000000000000e+00
0.000000000000e+00
0.000000000000e+00
0.000000000000e+00
0.000000000000e+00
0.000000000000e+00
0.000000000000e+00
0.000000000000e+00
0.000000000000e+00
0.000000000000e+00
0.000000000000e+00
0.000000000000e+00
0.000000000000e+00
0.000000000000e+00
0.000000000000e+00
0.000000000000e+00
0.000000000000e+00
0.000000000000e+00
0.000000000000e+00
0.000000000000e+00
0.000000000000e+00
0.000000000000e+00
0.000000000000e+00
0.000000000000e+00
0.000000000000e+00
0.000000000000e+00
0.000000000000e+00
0.000000000000e+00
0.000000000000e+00
0.000000000000e+00
0.000000000000e+00
0.000000000000e+00
0.000000000000e+00
0.000000000000e+00
0.000000000000e+00
0.000000000000e+00
0.000000000000e+00
0.000000000000e+00
0.000000000000e+00
0.000000000000e+00
0.000000000000e+00
0.000000000000e+00
0.000000000000e+00
0.000000000000e+00
0.000000000000e+00
0.000000000000e+00
0.000000000000e+00
0.000000000000e+00
0.000000000000e+00
-5.315724755462e-05
-5.355308492040e-05
-5.355308492052e-05
-5.315724755497e-05
-5.355308492036e-05
-5.394751040003e-05
-5.394751040014e-05
-5.355308492074e-05
-5.355308492042e-05
-5.394751040010e-05
-5.394751040021e-05
-5.355308492080e-05
-5.315724755483e-05
-5.355308492059e-05
-5.355308492073e-05
-5.315724755518e-05
0.000000000000e+00
0.000000000000e+00
0.000000000000e+00
0.000000000000e+00
0.000000000000e+00
0.000000000000e+00
0.000000000000e+00
0.000000000000e+00
0.000000000000e+00
0.000000000000e+00
0.000000000000e+00
0.000000000000e+00
0.000000000000e+00
0.000000000000e+00
0.000000000000e+00
0.000000000000e+00
0.000000000000e+00
0.000000000000e+00
0.000000000000e+00
0.000000000000e+00
0.000000000000e+00
0.000000000000e+00
0.000000000000e+00
0.000000000000e+00
0.000000000000e+00
0.000000000000e+00
0.000000000000e+00
0.000000000000e+00
0.000000000000e+00
0.000000000000e+00
0.000000000000e+00
0.000000000000e+00
0.000000000000e+00
0.000000000000e+00
0.000000000000e+00
0.000000000000e+00
0.000000000000e+00
0.000000000000e+00
0.000000000000e+00
0.000000000000e+00
0.000000000000e+00
0.000000000000e+00
0.000000000000e+00
0.000000000000e+00
0.000000000000e+00
0.000000000000e+00
0.000000000000e+00
0.000000000000e+00
SCALARS contact_pressure float 1
LOOKUP_TABLE default
0.000000000000e+00
0.000000000000e+00
0.000000000000e+00
0.000000000000e+00
0.000000000000e+00
0.000000000000e+00
0.000000000000e+00
0.000000000000e+00
0.000000000000e+00
0.000000000000e+00
0.000000000000e+00
0.000000000000e+00
0.000000000000e+00
0.000000000000e+00
0.000000000000e+00
0.000000000000e+00
0.000000000000e+00
0.000000000000e+00
0.000000000000e+00
0.000000000000e+00
0.000000000000e+00
0.000000000000e+00
0.000000000000e+00
0.000000000000e+00
0.000000000000e+00
0.000000000000e+00
0.000000000000e+00
0.000000000000e+00
0.000000000000e+00
0.000000000000e+00
0.000000000000e+00
0.000000000000e+00
0.000000000000e+00
0.000000000000e+00
0.000000000000e+00
0.000000000000e+00
0.000000000000e+00
0.000000000000e+00
0.000000000000e+00
0.000000000000e+00
0.000000000000e+00
0.000000000000e+00
0.000000000000e+00
0.000000000000e+00
0.000000000000e+00
0.000000000000e+00
0.000000000000e+00
0.000000000000e+00
0.000000000000e+00
0.000000000000e+00
0.000000000000e+00
0.000000000000e+00
0.000000000000e+00
0.000000000000e+00
0.000000000000e+00
0.000000000000e+00
0.000000000000e+00
0.000000000000e+00
0.000000000000e+00
0.000000000000e+00
0.000000000000e+00
0.000000000000e+00
0.000000000000e+00
0.000000000000e+00
2.657862377731e+00
2.677654246020e+00
2.677654246026e+00
2.657862377748e+00
2.677654246018e+00
2.697375520002e+00
2.697375520007e+00
2.677654246037e+00
2.677654246021e+00
2.697375520005e+00
2.697375520011e+00
2.677654246040e+00
2.657862377741e+00
2.677654246030e+00
2.677654246036e+00
2.657862377759e+00
0.000000000000e+00
0.000000000000e+00
0.000000000000e+00
0.000000000000e+00
0.000000000000e+00
0.000000000000e+00
0.000000000000e+00
0.000000000000e+00
0.000000000000e+00
0.000000000000e+00
0.000000000000e+00
0.000000000000e+00
0.000000000000e+00
0.000000000000e+00
0.000000000000e+00
0.000000000000e+00
0.000000000000e+00
0.000000000000e+00
0.000000000000e+00
0.000000000000e+00
0.000000000000e+00
0.000000000000e+00
0.000000000000e+00
0.000000000000e+00
0.000000000000e+00
0.000000000000e+00
0.000000000000e+00
0.000000000000e+00
0.000000000000e+00
0.000000000000e+00
0.000000000000e+00
0.000000000000e+00
0.000000000000e+00
0.000000000000e+00
0.000000000000e+00
0.000000000000e+00
0.000000000000e+00
0.000000000000e+00
0.000000000000e+00
0.000000000000e+00
0.000000000000e+00
0.000000000000e+00
0.000000000000e+00
0.000000000000e+00
0.000000000000e+00
0.000000000000e+00
0.000000000000e+00
0.000000000000e+00
SCALARS active_contact float 1
LOOKUP_TABLE default
0.000000000000e+00
0.000000000000e+00
0.000000000000e+00
0.000000000000e+00
0.000000000000e+00
0.000000000000e+00
0.000000000000e+00
0.000000000000e+00
0.000000000000e+00
0.000000000000e+00
0.000000000000e+00
0.000000000000e+00
0.000000000000e+00
0.000000000000e+00
0.000000000000e+00
0.000000000000e+00
0.000000000000e+00
0.000000000000e+00
0.000000000000e+00
0.000000000000e+00
0.000000000000e+00
0.000000000000e+00
0.000000000000e+00
0.000000000000e+00
0.000000000000e+00
0.000000000000e+00
0.000000000000e+00
0.000000000000e+00
0.000000000000e+00
0.000000000000e+00
0.000000000000e+00
0.000000000000e+00
0.000000000000e+00
0.000000000000e+00
0.000000000000e+00
0.000000000000e+00
0.000000000000e+00
0.000000000000e+00
0.000000000000e+00
0.000000000000e+00
0.000000000000e+00
0.000000000000e+00
0.000000000000e+00
0.000000000000e+00
0.000000000000e+00
0.000000000000e+00
0.000000000000e+00
0.000000000000e+00
0.000000000000e+00
0.000000000000e+00
0.000000000000e+00
0.000000000000e+00
0.000000000000e+00
0.000000000000e+00
0.000000000000e+00
0.000000000000e+00
0.000000000000e+00
0.000000000000e+00
0.000000000000e+00
0.000000000000e+00
0.000000000000e+00
0.000000000000e+00
0.000000000000e+00
0.000000000000e+00
1.000000000000e+00
1.000000000000e+00
1.000000000000e+00
1.000000000000e+00
1.000000000000e+00
1.000000000000e+00
1.000000000000e+00
1.000000000000e+00
1.000000000000e+00
1.000000000000e+00
1.000000000000e+00
1.000000000000e+00
1.000000000000e+00
1.000000000000e+00
1.000000000000e+00
1.000000000000e+00
0.000000000000e+00
0.000000000000e+00
0.000000000000e+00
0.000000000000e+00
0.000000000000e+00
0.000000000000e+00
0.000000000000e+00
0.000000000000e+00
0.000000000000e+00
0.000000000000e+00
0.000000000000e+00
0.000000000000e+00
0.000000000000e+00
0.000000000000e+00
0.000000000000e+00
0.000000000000e+00
0.000000000000e+00
0.000000000000e+00
0.000000000000e+00
0.000000000000e+00
0.000000000000e+00
0.000000000000e+00
0.000000000000e+00
0.000000000000e+00
0.000000000000e+00
0.000000000000e+00
0.000000000000e+00
0.000000000000e+00
0.000000000000e+00
0.000000000000e+00
0.000000000000e+00
0.000000000000e+00
0.000000000000e+00
0.000000000000e+00
0.000000000000e+00
0.000000000000e+00
0.000000000000e+00
0.000000000000e+00
0.000000000000e+00
0.000000000000e+00
0.000000000000e+00
0.000000000000e+00
0.000000000000e+00
0.000000000000e+00
0.000000000000e+00
0.000000000000e+00
0.000000000000e+00
0.000000000000e+00
