# vtk DataFile Version 3.0
SFC long-time C3D8 dynamic frame 15 t=3.000000000000e-01
ASCII
DATASET UNSTRUCTURED_GRID
POINTS 250 float
-2.500000000000e-01 -2.500000000000e-01 0.000000000000e+00
-1.250000000000e-01 -2.500000000000e-01 0.000000000000e+00
0.000000000000e+00 -2.500000000000e-01 0.000000000000e+00
1.250000000000e-01 -2.500000000000e-01 0.000000000000e+00
2.500000000000e-01 -2.500000000000e-01 0.000000000000e+00
-2.500000000000e-01 -1.250000000000e-01 0.000000000000e+00
-1.250000000000e-01 -1.250000000000e-01 0.000000000000e+00
0.000000000000e+00 -1.250000000000e-01 0.000000000000e+00
1.250000000000e-01 -1.250000000000e-01 0.000000000000e+00
2.500000000000e-01 -1.250000000000e-01 0.000000000000e+00
-2.500000000000e-01 0.000000000000e+00 0.000000000000e+00
-1.250000000000e-01 0.000000000000e+00 0.000000000000e+00
0.000000000000e+00 0.000000000000e+00 0.000000000000e+00
1.250000000000e-01 0.000000000000e+00 0.000000000000e+00
2.500000000000e-01 0.000000000000e+00 0.000000000000e+00
-2.500000000000e-01 1.250000000000e-01 0.000000000000e+00
-1.250000000000e-01 1.250000000000e-01 0.000000000000e+00
0.000000000000e+00 1.250000000000e-01 0.000000000000e+00
1.250000000000e-01 1.250000000000e-01 0.000000000000e+00
2.500000000000e-01 1.250000000000e-01 0.000000000000e+00
-2.500000000000e-01 2.500000000000e-01 0.000000000000e+00
-1.250000000000e-01 2.500000000000e-01 0.000000000000e+00
0.000000000000e+00 2.500000000000e-01 0.000000000000e+00
1.250000000000e-01 2.500000000000e-01 0.000000000000e+00
2.500000000000e-01 2.500000000000e-01 0.000000000000e+00
-2.500000000000e-01 -2.500000000000e-01 6.000000000000e-02
-1.250000000000e-01 -2.500000000000e-01 6.000000000000e-02
0.000000000000e+00 -2.500000000000e-01 6.000000000000e-02
1.250000000000e-01 -2.500000000000e-01 6.000000000000e-02
2.500000000000e-01 -2.500000000000e-01 6.000000000000e-02
-2.500000000000e-01 -1.250000000000e-01 6.000000000000e-02
-1.250000000000e-01 -1.250000000000e-01 6.000000000000e-02
0.000000000000e+00 -1.250000000000e-01 6.000000000000e-02
1.250000000000e-01 -1.250000000000e-01 6.000000000000e-02
2.500000000000e-01 -1.250000000000e-01 6.000000000000e-02
-2.500000000000e-01 0.000000000000e+00 6.000000000000e-02
-1.250000000000e-01 0.000000000000e+00 6.000000000000e-02
0.000000000000e+00 0.000000000000e+00 6.000000000000e-02
1.250000000000e-01 0.000000000000e+00 6.000000000000e-02
2.500000000000e-01 0.000000000000e+00 6.000000000000e-02
-2.500000000000e-01 1.250000000000e-01 6.000000000000e-02
-1.250000000000e-01 1.250000000000e-01 6.000000000000e-02
0.000000000000e+00 1.250000000000e-01 6.000000000000e-02
1.250000000000e-01 1.250000000000e-01 6.000000000000e-02
2.500000000000e-01 1.250000000000e-01 6.000000000000e-02
-2.500000000000e-01 2.500000000000e-01 6.000000000000e-02
-1.250000000000e-01 2.500000000000e-01 6.000000000000e-02
0.000000000000e+00 2.500000000000e-01 6.000000000000e-02
1.250000000000e-01 2.500000000000e-01 6.000000000000e-02
2.500000000000e-01 2.500000000000e-01 6.000000000000e-02
-2.500000000000e-01 -2.500000000000e-01 1.200000000000e-01
-1.250000000000e-01 -2.500000000000e-01 1.200000000000e-01
0.000000000000e+00 -2.500000000000e-01 1.200000000000e-01
1.250000000000e-01 -2.500000000000e-01 1.200000000000e-01
2.500000000000e-01 -2.500000000000e-01 1.200000000000e-01
-2.500000000000e-01 -1.250000000000e-01 1.200000000000e-01
-1.250000000000e-01 -1.250000000000e-01 1.200000000000e-01
0.000000000000e+00 -1.250000000000e-01 1.200000000000e-01
1.250000000000e-01 -1.250000000000e-01 1.200000000000e-01
2.500000000000e-01 -1.250000000000e-01 1.200000000000e-01
-2.500000000000e-01 0.000000000000e+00 1.200000000000e-01
-1.250000000000e-01 0.000000000000e+00 1.200000000000e-01
0.000000000000e+00 0.000000000000e+00 1.200000000000e-01
1.250000000000e-01 0.000000000000e+00 1.200000000000e-01
2.500000000000e-01 0.000000000000e+00 1.200000000000e-01
-2.500000000000e-01 1.250000000000e-01 1.200000000000e-01
-1.250000000000e-01 1.250000000000e-01 1.200000000000e-01
0.000000000000e+00 1.250000000000e-01 1.200000000000e-01
1.250000000000e-01 1.250000000000e-01 1.200000000000e-01
2.500000000000e-01 1.250000000000e-01 1.200000000000e-01
-2.500000000000e-01 2.500000000000e-01 1.200000000000e-01
-1.250000000000e-01 2.500000000000e-01 1.200000000000e-01
0.000000000000e+00 2.500000000000e-01 1.200000000000e-01
1.250000000000e-01 2.500000000000e-01 1.200000000000e-01
2.500000000000e-01 2.500000000000e-01 1.200000000000e-01
-2.500000000000e-01 -2.500000000000e-01 1.800000000000e-01
-1.250000000000e-01 -2.500000000000e-01 1.800000000000e-01
0.000000000000e+00 -2.500000000000e-01 1.800000000000e-01
1.250000000000e-01 -2.500000000000e-01 1.800000000000e-01
2.500000000000e-01 -2.500000000000e-01 1.800000000000e-01
-2.500000000000e-01 -1.250000000000e-01 1.800000000000e-01
-1.250000000000e-01 -1.250000000000e-01 1.800000000000e-01
0.000000000000e+00 -1.250000000000e-01 1.800000000000e-01
1.250000000000e-01 -1.250000000000e-01 1.800000000000e-01
2.500000000000e-01 -1.250000000000e-01 1.800000000000e-01
-2.500000000000e-01 0.000000000000e+00 1.800000000000e-01
-1.250000000000e-01 0.000000000000e+00 1.800000000000e-01
0.000000000000e+00 0.000000000000e+00 1.800000000000e-01
1.250000000000e-01 0.000000000000e+00 1.800000000000e-01
2.500000000000e-01 0.000000000000e+00 1.800000000000e-01
-2.500000000000e-01 1.250000000000e-01 1.800000000000e-01
-1.250000000000e-01 1.250000000000e-01 1.800000000000e-01
0.000000000000e+00 1.250000000000e-01 1.800000000000e-01
1.250000000000e-01 1.250000000000e-01 1.800000000000e-01
2.500000000000e-01 1.250000000000e-01 1.800000000000e-01
-2.500000000000e-01 2.500000000000e-01 1.800000000000e-01
-1.250000000000e-01 2.500000000000e-01 1.800000000000e-01
0.000000000000e+00 2.500000000000e-01 1.800000000000e-01
1.250000000000e-01 2.500000000000e-01 1.800000000000e-01
2.500000000000e-01 2.500000000000e-01 1.800000000000e-01
-2.500000000000e-01 -2.500000000000e-01 2.400000000000e-01
-1.250000000000e-01 -2.500000000000e-01 2.400000000000e-01
0.000000000000e+00 -2.500000000000e-01 2.400000000000e-01
1.250000000000e-01 -2.500000000000e-01 2.400000000000e-01
2.500000000000e-01 -2.500000000000e-01 2.400000000000e-01
-2.500000000000e-01 -1.250000000000e-01 2.400000000000e-01
-1.250000000000e-01 -1.250000000000e-01 2.400000000000e-01
0.000000000000e+00 -1.250000000000e-01 2.400000000000e-01
1.250000000000e-01 -1.250000000000e-01 2.400000000000e-01
2.500000000000e-01 -1.250000000000e-01 2.400000000000e-01
-2.500000000000e-01 0.000000000000e+00 2.400000000000e-01
-1.250000000000e-01 0.000000000000e+00 2.400000000000e-01
0.000000000000e+00 0.000000000000e+00 2.400000000000e-01
1.250000000000e-01 0.000000000000e+00 2.400000000000e-01
2.500000000000e-01 0.000000000000e+00 2.400000000000e-01
-2.500000000000e-01 1.250000000000e-01 2.400000000000e-01
-1.250000000000e-01 1.250000000000e-01 2.400000000000e-01
0.000000000000e+00 1.250000000000e-01 2.400000000000e-01
1.250000000000e-01 1.250000000000e-01 2.400000000000e-01
2.500000000000e-01 1.250000000000e-01 2.400000000000e-01
-2.500000000000e-01 2.500000000000e-01 2.400000000000e-01
-1.250000000000e-01 2.500000000000e-01 2.400000000000e-01
0.000000000000e+00 2.500000000000e-01 2.400000000000e-01
1.250000000000e-01 2.500000000000e-01 2.400000000000e-01
2.500000000000e-01 2.500000000000e-01 2.400000000000e-01
-2.500000000000e-01 -2.500000000000e-01 2.505973406989e-01
-1.250000000000e-01 -2.500000000000e-01 2.505973406989e-01
4.495285340890e-14 -2.500000000000e-01 2.505973406990e-01
1.250000000000e-01 -2.500000000000e-01 2.505973406990e-01
2.500000000000e-01 -2.500000000000e-01 2.505973406991e-01
-2.500000000000e-01 -1.250000000000e-01 2.505973406989e-01
-1.250000000000e-01 -1.250000000000e-01 2.505973406989e-01
4.685235024521e-14 -1.250000000000e-01 2.505973406990e-01
1.250000000000e-01 -1.250000000000e-01 2.505973406990e-01
2.500000000000e-01 -1.250000000000e-01 2.505973406991e-01
-2.500000000000e-01 -4.271090451061e-15 2.505973406989e-01
-1.250000000000e-01 -6.170658557434e-15 2.505973406989e-01
4.875103390395e-14 -8.070863817286e-15 2.505973406990e-01
1.250000000000e-01 -9.970452441345e-15 2.505973406990e-01
2.500000000000e-01 -1.187170031773e-14 2.505973406991e-01
-2.499999999999e-01 1.250000000000e-01 2.505973406989e-01
-1.249999999999e-01 1.250000000000e-01 2.505973406989e-01
5.065058038802e-14 1.250000000000e-01 2.505973406990e-01
1.250000000001e-01 1.250000000000e-01 2.505973406990e-01
2.500000000001e-01 1.250000000000e-01 2.505973406991e-01
-2.499999999999e-01 2.500000000000e-01 2.505973406989e-01
-1.249999999999e-01 2.500000000000e-01 2.505973406989e-01
5.255061331729e-14 2.500000000000e-01 2.505973406990e-01
1.250000000001e-01 2.500000000000e-01 2.505973406990e-01
2.500000000001e-01 2.500000000000e-01 2.505973406991e-01
-2.500000000000e-01 -2.500000000000e-01 3.155973406989e-01
-1.250000000000e-01 -2.500000000000e-01 3.155973406989e-01
2.271761261554e-14 -2.500000000000e-01 3.155973406990e-01
1.250000000000e-01 -2.500000000000e-01 3.155973406990e-01
2.500000000000e-01 -2.500000000000e-01 3.155973406991e-01
-2.500000000000e-01 -1.250000000000e-01 3.155973406989e-01
-1.250000000000e-01 -1.250000000000e-01 3.155973406989e-01
2.461714028823e-14 -1.250000000000e-01 3.155973406990e-01
1.250000000000e-01 -1.250000000000e-01 3.155973406990e-01
2.500000000000e-01 -1.250000000000e-01 3.155973406991e-01
-2.500000000000e-01 -3.399379914558e-15 3.155973406989e-01
-1.250000000000e-01 -5.298390102933e-15 3.155973406989e-01
2.651590847218e-14 -7.197927544477e-15 3.155973406990e-01
1.250000000000e-01 -9.099000787261e-15 3.155973406990e-01
2.500000000000e-01 -1.099855590846e-14 3.155973406991e-01
-2.500000000000e-01 1.250000000000e-01 3.155973406989e-01
-1.250000000000e-01 1.250000000000e-01 3.155973406989e-01
2.841488028325e-14 1.250000000000e-01 3.155973406990e-01
1.250000000000e-01 1.250000000000e-01 3.155973406990e-01
2.500000000000e-01 1.250000000000e-01 3.155973406991e-01
-2.500000000000e-01 2.500000000000e-01 3.155973406989e-01
-1.250000000000e-01 2.500000000000e-01 3.155973406989e-01
3.031606218547e-14 2.500000000000e-01 3.155973406990e-01
1.250000000000e-01 2.500000000000e-01 3.155973406990e-01
2.500000000000e-01 2.500000000000e-01 3.155973406991e-01
-2.500000000000e-01 -2.500000000000e-01 3.805973406989e-01
-1.250000000000e-01 -2.500000000000e-01 3.805973406989e-01
4.827362994642e-16 -2.500000000000e-01 3.805973406990e-01
1.250000000000e-01 -2.500000000000e-01 3.805973406990e-01
2.500000000000e-01 -2.500000000000e-01 3.805973406991e-01
-2.500000000000e-01 -1.250000000000e-01 3.805973406989e-01
-1.250000000000e-01 -1.250000000000e-01 3.805973406989e-01
2.382711516895e-15 -1.250000000000e-01 3.805973406990e-01
1.250000000000e-01 -1.250000000000e-01 3.805973406990e-01
2.500000000000e-01 -1.250000000000e-01 3.805973406991e-01
-2.500000000000e-01 -2.526960221320e-15 3.805973406989e-01
-1.250000000000e-01 -4.426783192690e-15 3.805973406989e-01
4.281549891835e-15 -6.325979421471e-15 3.805973406990e-01
1.250000000000e-01 -8.225794363180e-15 3.805973406990e-01
2.500000000000e-01 -1.012529476266e-14 3.805973406991e-01
-2.500000000000e-01 1.250000000000e-01 3.805973406989e-01
-1.250000000000e-01 1.250000000000e-01 3.805973406989e-01
6.180425204019e-15 1.250000000000e-01 3.805973406990e-01
1.250000000000e-01 1.250000000000e-01 3.805973406990e-01
2.500000000000e-01 1.250000000000e-01 3.805973406991e-01
-2.500000000000e-01 2.500000000000e-01 3.805973406989e-01
-1.250000000000e-01 2.500000000000e-01 3.805973406989e-01
8.080477538452e-15 2.500000000000e-01 3.805973406990e-01
1.250000000000e-01 2.500000000000e-01 3.805973406990e-01
2.500000000000e-01 2.500000000000e-01 3.805973406991e-01
-2.500000000000e-01 -2.500000000000e-01 4.455973406989e-01
-1.250000000000e-01 -2.500000000000e-01 4.455973406989e-01
-2.175188042535e-14 -2.500000000000e-01 4.455973406990e-01
1.250000000000e-01 -2.500000000000e-01 4.455973406990e-01
2.500000000000e-01 -2.500000000000e-01 4.455973406991e-01
-2.500000000000e-01 -1.250000000000e-01 4.455973406989e-01
-1.250000000000e-01 -1.250000000000e-01 4.455973406989e-01
-1.985258011403e-14 -1.250000000000e-01 4.455973406990e-01
1.250000000000e-01 -1.250000000000e-01 4.455973406990e-01
2.500000000000e-01 -1.250000000000e-01 4.455973406991e-01
-2.500000000000e-01 -1.654091903304e-15 4.455973406989e-01
-1.250000000000e-01 -3.554406689256e-15 4.455973406989e-01
-1.795258412279e-14 -5.453409634770e-15 4.455973406990e-01
1.250000000000e-01 -7.352803114243e-15 4.455973406990e-01
2.500000000000e-01 -9.251348929279e-15 4.455973406991e-01
-2.500000000000e-01 1.250000000000e-01 4.455973406989e-01
-1.250000000000e-01 1.250000000000e-01 4.455973406989e-01
-1.605301294999e-14 1.250000000000e-01 4.455973406990e-01
1.250000000000e-01 1.250000000000e-01 4.455973406990e-01
2.500000000000e-01 1.250000000000e-01 4.455973406991e-01
-2.500000000000e-01 2.500000000000e-01 4.455973406989e-01
-1.250000000000e-01 2.500000000000e-01 4.455973406989e-01
-1.415415676386e-14 2.500000000000e-01 4.455973406990e-01
1.250000000000e-01 2.500000000000e-01 4.455973406990e-01
2.500000000000e-01 2.500000000000e-01 4.455973406991e-01
-2.500000000000e-01 -2.500000000000e-01 5.105973406989e-01
-1.250000000000e-01 -2.500000000000e-01 5.105973406989e-01
-4.398853464945e-14 -2.500000000000e-01 5.105973406990e-01
1.250000000000e-01 -2.500000000000e-01 5.105973406990e-01
2.500000000000e-01 -2.500000000000e-01 5.105973406991e-01
-2.500000000000e-01 -1.250000000000e-01 5.105973406989e-01
-1.250000000000e-01 -1.250000000000e-01 5.105973406989e-01
-4.208868504247e-14 -1.250000000000e-01 5.105973406990e-01
1.250000000000e-01 -1.250000000000e-01 5.105973406990e-01
2.500000000000e-01 -1.250000000000e-01 5.105973406991e-01
-2.500000000000e-01 -7.818092065915e-16 5.105973406989e-01
-1.250000000000e-01 -2.682437579150e-15 5.105973406989e-01
-4.018850906300e-14 -4.580653062631e-15 5.105973406990e-01
1.250000000000e-01 -6.478507155587e-15 5.105973406990e-01
2.500000000000e-01 -8.378381124993e-15 5.105973406991e-01
-2.500000000000e-01 1.250000000000e-01 5.105973406989e-01
-1.250000000000e-01 1.250000000000e-01 5.105973406989e-01
-3.828706145725e-14 1.250000000000e-01 5.105973406990e-01
1.250000000000e-01 1.250000000000e-01 5.105973406990e-01
2.500000000000e-01 1.250000000000e-01 5.105973406991e-01
-2.500000000000e-01 2.500000000000e-01 5.105973406989e-01
-1.250000000000e-01 2.500000000000e-01 5.105973406989e-01
-3.638712217138e-14 2.500000000000e-01 5.105973406990e-01
1.250000000000e-01 2.500000000000e-01 5.105973406990e-01
2.500000000000e-01 2.500000000000e-01 5.105973406991e-01
CELLS 128 1152
8 0 1 6 5 25 26 31 30
8 1 2 7 6 26 27 32 31
8 2 3 8 7 27 28 33 32
8 3 4 9 8 28 29 34 33
8 5 6 11 10 30 31 36 35
8 6 7 12 11 31 32 37 36
8 7 8 13 12 32 33 38 37
8 8 9 14 13 33 34 39 38
8 10 11 16 15 35 36 41 40
8 11 12 17 16 36 37 42 41
8 12 13 18 17 37 38 43 42
8 13 14 19 18 38 39 44 43
8 15 16 21 20 40 41 46 45
8 16 17 22 21 41 42 47 46
8 17 18 23 22 42 43 48 47
8 18 19 24 23 43 44 49 48
8 25 26 31 30 50 51 56 55
8 26 27 32 31 51 52 57 56
8 27 28 33 32 52 53 58 57
8 28 29 34 33 53 54 59 58
8 30 31 36 35 55 56 61 60
8 31 32 37 36 56 57 62 61
8 32 33 38 37 57 58 63 62
8 33 34 39 38 58 59 64 63
8 35 36 41 40 60 61 66 65
8 36 37 42 41 61 62 67 66
8 37 38 43 42 62 63 68 67
8 38 39 44 43 63 64 69 68
8 40 41 46 45 65 66 71 70
8 41 42 47 46 66 67 72 71
8 42 43 48 47 67 68 73 72
8 43 44 49 48 68 69 74 73
8 50 51 56 55 75 76 81 80
8 51 52 57 56 76 77 82 81
8 52 53 58 57 77 78 83 82
8 53 54 59 58 78 79 84 83
8 55 56 61 60 80 81 86 85
8 56 57 62 61 81 82 87 86
8 57 58 63 62 82 83 88 87
8 58 59 64 63 83 84 89 88
8 60 61 66 65 85 86 91 90
8 61 62 67 66 86 87 92 91
8 62 63 68 67 87 88 93 92
8 63 64 69 68 88 89 94 93
8 65 66 71 70 90 91 96 95
8 66 67 72 71 91 92 97 96
8 67 68 73 72 92 93 98 97
8 68 69 74 73 93 94 99 98
8 75 76 81 80 100 101 106 105
8 76 77 82 81 101 102 107 106
8 77 78 83 82 102 103 108 107
8 78 79 84 83 103 104 109 108
8 80 81 86 85 105 106 111 110
8 81 82 87 86 106 107 112 111
8 82 83 88 87 107 108 113 112
8 83 84 89 88 108 109 114 113
8 85 86 91 90 110 111 116 115
8 86 87 92 91 111 112 117 116
8 87 88 93 92 112 113 118 117
8 88 89 94 93 113 114 119 118
8 90 91 96 95 115 116 121 120
8 91 92 97 96 116 117 122 121
8 92 93 98 97 117 118 123 122
8 93 94 99 98 118 119 124 123
8 125 126 131 130 150 151 156 155
8 126 127 132 131 151 152 157 156
8 127 128 133 132 152 153 158 157
8 128 129 134 133 153 154 159 158
8 130 131 136 135 155 156 161 160
8 131 132 137 136 156 157 162 161
8 132 133 138 137 157 158 163 162
8 133 134 139 138 158 159 164 163
8 135 136 141 140 160 161 166 165
8 136 137 142 141 161 162 167 166
8 137 138 143 142 162 163 168 167
8 138 139 144 143 163 164 169 168
8 140 141 146 145 165 166 171 170
8 141 142 147 146 166 167 172 171
8 142 143 148 147 167 168 173 172
8 143 144 149 148 168 169 174 173
8 150 151 156 155 175 176 181 180
8 151 152 157 156 176 177 182 181
8 152 153 158 157 177 178 183 182
8 153 154 159 158 178 179 184 183
8 155 156 161 160 180 181 186 185
8 156 157 162 161 181 182 187 186
8 157 158 163 162 182 183 188 187
8 158 159 164 163 183 184 189 188
8 160 161 166 165 185 186 191 190
8 161 162 167 166 186 187 192 191
8 162 163 168 167 187 188 193 192
8 163 164 169 168 188 189 194 193
8 165 166 171 170 190 191 196 195
8 166 167 172 171 191 192 197 196
8 167 168 173 172 192 193 198 197
8 168 169 174 173 193 194 199 198
8 175 176 181 180 200 201 206 205
8 176 177 182 181 201 202 207 206
8 177 178 183 182 202 203 208 207
8 178 179 184 183 203 204 209 208
8 180 181 186 185 205 206 211 210
8 181 182 187 186 206 207 212 211
8 182 183 188 187 207 208 213 212
8 183 184 189 188 208 209 214 213
8 185 186 191 190 210 211 216 215
8 186 187 192 191 211 212 217 216
8 187 188 193 192 212 213 218 217
8 188 189 194 193 213 214 219 218
8 190 191 196 195 215 216 221 220
8 191 192 197 196 216 217 222 221
8 192 193 198 197 217 218 223 222
8 193 194 199 198 218 219 224 223
8 200 201 206 205 225 226 231 230
8 201 202 207 206 226 227 232 231
8 202 203 208 207 227 228 233 232
8 203 204 209 208 228 229 234 233
8 205 206 211 210 230 231 236 235
8 206 207 212 211 231 232 237 236
8 207 208 213 212 232 233 238 237
8 208 209 214 213 233 234 239 238
8 210 211 216 215 235 236 241 240
8 211 212 217 216 236 237 242 241
8 212 213 218 217 237 238 243 242
8 213 214 219 218 238 239 244 243
8 215 216 221 220 240 241 246 245
8 216 217 222 221 241 242 247 246
8 217 218 223 222 242 243 248 247
8 218 219 224 223 243 244 249 248
CELL_TYPES 128
12
12
12
12
12
12
12
12
12
12
12
12
12
12
12
12
12
12
12
12
12
12
12
12
12
12
12
12
12
12
12
12
12
12
12
12
12
12
12
12
12
12
12
12
12
12
12
12
12
12
12
12
12
12
12
12
12
12
12
12
12
12
12
12
12
12
12
12
12
12
12
12
12
12
12
12
12
12
12
12
12
12
12
12
12
12
12
12
12
12
12
12
12
12
12
12
12
12
12
12
12
12
12
12
12
12
12
12
12
12
12
12
12
12
12
12
12
12
12
12
12
12
12
12
12
12
12
12
POINT_DATA 250
VECTORS displacement float
0.000000000000e+00 0.000000000000e+00 0.000000000000e+00
0.000000000000e+00 0.000000000000e+00 0.000000000000e+00
0.000000000000e+00 0.000000000000e+00 0.000000000000e+00
0.000000000000e+00 0.000000000000e+00 0.000000000000e+00
0.000000000000e+00 0.000000000000e+00 0.000000000000e+00
0.000000000000e+00 0.000000000000e+00 0.000000000000e+00
0.000000000000e+00 0.000000000000e+00 0.000000000000e+00
0.000000000000e+00 0.000000000000e+00 0.000000000000e+00
0.000000000000e+00 0.000000000000e+00 0.000000000000e+00
0.000000000000e+00 0.000000000000e+00 0.000000000000e+00
0.000000000000e+00 0.000000000000e+00 0.000000000000e+00
0.000000000000e+00 0.000000000000e+00 0.000000000000e+00
0.000000000000e+00 0.000000000000e+00 0.000000000000e+00
0.000000000000e+00 0.000000000000e+00 0.000000000000e+00
0.000000000000e+00 0.000000000000e+00 0.000000000000e+00
0.000000000000e+00 0.000000000000e+00 0.000000000000e+00
0.000000000000e+00 0.000000000000e+00 0.000000000000e+00
0.000000000000e+00 0.000000000000e+00 0.000000000000e+00
0.000000000000e+00 0.000000000000e+00 0.000000000000e+00
0.000000000000e+00 0.000000000000e+00 0.000000000000e+00
0.000000000000e+00 0.000000000000e+00 0.000000000000e+00
0.000000000000e+00 0.000000000000e+00 0.000000000000e+00
0.000000000000e+00 0.000000000000e+00 0.000000000000e+00
0.000000000000e+00 0.000000000000e+00 0.000000000000e+00
0.000000000000e+00 0.000000000000e+00 0.000000000000e+00
0.000000000000e+00 0.000000000000e+00 0.000000000000e+00
0.000000000000e+00 0.000000000000e+00 0.000000000000e+00
0.000000000000e+00 0.000000000000e+00 0.000000000000e+00
0.000000000000e+00 0.000000000000e+00 0.000000000000e+00
0.000000000000e+00 0.000000000000e+00 0.000000000000e+00
0.000000000000e+00 0.000000000000e+00 0.000000000000e+00
0.000000000000e+00 0.000000000000e+00 0.000000000000e+00
0.000000000000e+00 0.000000000000e+00 0.000000000000e+00
0.000000000000e+00 0.000000000000e+00 0.000000000000e+00
0.000000000000e+00 0.000000000000e+00 0.000000000000e+00
0.000000000000e+00 0.000000000000e+00 0.000000000000e+00
0.000000000000e+00 0.000000000000e+00 0.000000000000e+00
0.000000000000e+00 0.000000000000e+00 0.000000000000e+00
0.000000000000e+00 0.000000000000e+00 0.000000000000e+00
0.000000000000e+00 0.000000000000e+00 0.000000000000e+00
0.000000000000e+00 0.000000000000e+00 0.000000000000e+00
0.000000000000e+00 0.000000000000e+00 0.000000000000e+00
0.000000000000e+00 0.000000000000e+00 0.000000000000e+00
0.000000000000e+00 0.000000000000e+00 0.000000000000e+00
0.000000000000e+00 0.000000000000e+00 0.000000000000e+00
0.000000000000e+00 0.000000000000e+00 0.000000000000e+00
0.000000000000e+00 0.000000000000e+00 0.000000000000e+00
0.000000000000e+00 0.000000000000e+00 0.000000000000e+00
0.000000000000e+00 0.000000000000e+00 0.000000000000e+00
0.000000000000e+00 0.000000000000e+00 0.000000000000e+00
0.000000000000e+00 0.000000000000e+00 0.000000000000e+00
0.000000000000e+00 0.000000000000e+00 0.000000000000e+00
0.000000000000e+00 0.000000000000e+00 0.000000000000e+00
0.000000000000e+00 0.000000000000e+00 0.000000000000e+00
0.000000000000e+00 0.000000000000e+00 0.000000000000e+00
0.000000000000e+00 0.000000000000e+00 0.000000000000e+00
0.000000000000e+00 0.000000000000e+00 0.000000000000e+00
0.000000000000e+00 0.000000000000e+00 0.000000000000e+00
0.000000000000e+00 0.000000000000e+00 0.000000000000e+00
0.000000000000e+00 0.000000000000e+00 0.000000000000e+00
0.000000000000e+00 0.000000000000e+00 0.000000000000e+00
0.000000000000e+00 0.000000000000e+00 0.000000000000e+00
0.000000000000e+00 0.000000000000e+00 0.000000000000e+00
0.000000000000e+00 0.000000000000e+00 0.000000000000e+00
0.000000000000e+00 0.000000000000e+00 0.000000000000e+00
0.000000000000e+00 0.000000000000e+00 0.000000000000e+00
0.000000000000e+00 0.000000000000e+00 0.000000000000e+00
0.000000000000e+00 0.000000000000e+00 0.000000000000e+00
0.000000000000e+00 0.000000000000e+00 0.000000000000e+00
0.000000000000e+00 0.000000000000e+00 0.000000000000e+00
0.000000000000e+00 0.000000000000e+00 0.000000000000e+00
0.000000000000e+00 0.000000000000e+00 0.000000000000e+00
0.000000000000e+00 0.000000000000e+00 0.000000000000e+00
0.000000000000e+00 0.000000000000e+00 0.000000000000e+00
0.000000000000e+00 0.000000000000e+00 0.000000000000e+00
0.000000000000e+00 0.000000000000e+00 0.000000000000e+00
0.000000000000e+00 0.000000000000e+00 0.000000000000e+00
0.000000000000e+00 0.000000000000e+00 0.000000000000e+00
0.000000000000e+00 0.000000000000e+00 0.000000000000e+00
0.000000000000e+00 0.000000000000e+00 0.000000000000e+00
0.000000000000e+00 0.000000000000e+00 0.000000000000e+00
0.000000000000e+00 0.000000000000e+00 0.000000000000e+00
0.000000000000e+00 0.000000000000e+00 0.000000000000e+00
0.000000000000e+00 0.000000000000e+00 0.000000000000e+00
0.000000000000e+00 0.000000000000e+00 0.000000000000e+00
0.000000000000e+00 0.000000000000e+00 0.000000000000e+00
0.000000000000e+00 0.000000000000e+00 0.000000000000e+00
0.000000000000e+00 0.000000000000e+00 0.000000000000e+00
0.000000000000e+00 0.000000000000e+00 0.000000000000e+00
0.000000000000e+00 0.000000000000e+00 0.000000000000e+00
0.000000000000e+00 0.000000000000e+00 0.000000000000e+00
0.000000000000e+00 0.000000000000e+00 0.000000000000e+00
0.000000000000e+00 0.000000000000e+00 0.000000000000e+00
0.000000000000e+00 0.000000000000e+00 0.000000000000e+00
0.000000000000e+00 0.000000000000e+00 0.000000000000e+00
0.000000000000e+00 0.000000000000e+00 0.000000000000e+00
0.000000000000e+00 0.000000000000e+00 0.000000000000e+00
0.000000000000e+00 0.000000000000e+00 0.000000000000e+00
0.000000000000e+00 0.000000000000e+00 0.000000000000e+00
0.000000000000e+00 0.000000000000e+00 0.000000000000e+00
0.000000000000e+00 0.000000000000e+00 0.000000000000e+00
0.000000000000e+00 0.000000000000e+00 0.000000000000e+00
0.000000000000e+00 0.000000000000e+00 0.000000000000e+00
0.000000000000e+00 0.000000000000e+00 0.000000000000e+00
0.000000000000e+00 0.000000000000e+00 0.000000000000e+00
0.000000000000e+00 0.000000000000e+00 0.000000000000e+00
0.000000000000e+00 0.000000000000e+00 0.000000000000e+00
0.000000000000e+00 0.000000000000e+00 0.000000000000e+00
0.000000000000e+00 0.000000000000e+00 0.000000000000e+00
0.000000000000e+00 0.000000000000e+00 0.000000000000e+00
0.000000000000e+00 0.000000000000e+00 0.000000000000e+00
0.000000000000e+00 0.000000000000e+00 0.000000000000e+00
0.000000000000e+00 0.000000000000e+00 0.000000000000e+00
0.000000000000e+00 0.000000000000e+00 0.000000000000e+00
0.000000000000e+00 0.000000000000e+00 0.000000000000e+00
0.000000000000e+00 0.000000000000e+00 0.000000000000e+00
0.000000000000e+00 0.000000000000e+00 0.000000000000e+00
0.000000000000e+00 0.000000000000e+00 0.000000000000e+00
0.000000000000e+00 0.000000000000e+00 0.000000000000e+00
0.000000000000e+00 0.000000000000e+00 0.000000000000e+00
0.000000000000e+00 0.000000000000e+00 0.000000000000e+00
0.000000000000e+00 0.000000000000e+00 0.000000000000e+00
0.000000000000e+00 0.000000000000e+00 0.000000000000e+00
0.000000000000e+00 0.000000000000e+00 0.000000000000e+00
0.000000000000e+00 0.000000000000e+00 0.000000000000e+00
4.495160305185e-14 -4.275602903610e-15 -4.402659301112e-03
4.495217647110e-14 -6.173383872584e-15 -4.402659301069e-03
4.495285340890e-14 -8.075133269660e-15 -4.402659301027e-03
4.495429289525e-14 -9.974567597679e-15 -4.402659300984e-03
4.495569301572e-14 -1.187554942315e-14 -4.402659300941e-03
4.685184513756e-14 -4.274205061951e-15 -4.402659301114e-03
4.685164392833e-14 -6.173832438426e-15 -4.402659301071e-03
4.685235024521e-14 -8.073645549633e-15 -4.402659301028e-03
4.685176281521e-14 -9.974021692027e-15 -4.402659300986e-03
4.685033873750e-14 -1.187343551552e-14 -4.402659300943e-03
4.875072818028e-14 -4.271090451061e-15 -4.402659301115e-03
4.875035705142e-14 -6.170658557434e-15 -4.402659301073e-03
4.875103390395e-14 -8.070863817286e-15 -4.402659301030e-03
4.875043234806e-14 -9.970452441345e-15 -4.402659300987e-03
4.874797544929e-14 -1.187170031773e-14 -4.402659300944e-03
5.065137338122e-14 -4.267673342780e-15 -4.402659301117e-03
5.065076096462e-14 -6.168212311412e-15 -4.402659301074e-03
5.065058038802e-14 -8.068136074142e-15 -4.402659301032e-03
5.064943359075e-14 -9.968329396354e-15 -4.402659300989e-03
5.064860031480e-14 -1.187058603227e-14 -4.402659300946e-03
5.255234310787e-14 -4.267292718762e-15 -4.402659301119e-03
5.255250723085e-14 -6.166929262132e-15 -4.402659301076e-03
5.255061331729e-14 -8.065832224309e-15 -4.402659301033e-03
5.254930494586e-14 -9.969026622291e-15 -4.402659300991e-03
5.254878989229e-14 -1.186935851362e-14 -4.402659300948e-03
2.271648817527e-14 -3.401118034207e-15 -4.402659301112e-03
2.271717065746e-14 -5.301613550525e-15 -4.402659301069e-03
2.271761261554e-14 -7.200803049657e-15 -4.402659301027e-03
2.271839922908e-14 -9.099927314388e-15 -4.402659300984e-03
2.271900490267e-14 -1.099787602177e-14 -4.402659300941e-03
2.461658870583e-14 -3.400971405310e-15 -4.402659301114e-03
2.461598356759e-14 -5.300641130547e-15 -4.402659301071e-03
2.461714028823e-14 -7.200113927452e-15 -4.402659301028e-03
2.461786341743e-14 -9.099410015218e-15 -4.402659300986e-03
2.461673939314e-14 -1.099772190676e-14 -4.402659300943e-03
2.651377614627e-14 -3.399379914558e-15 -4.402659301115e-03
2.651484995484e-14 -5.298390102933e-15 -4.402659301073e-03
2.651590847218e-14 -7.197927544477e-15 -4.402659301030e-03
2.651729681317e-14 -9.099000787261e-15 -4.402659300987e-03
2.651748843767e-14 -1.099855590846e-14 -4.402659300944e-03
2.841573179847e-14 -3.396517385348e-15 -4.402659301117e-03
2.841594643392e-14 -5.296714247748e-15 -4.402659301074e-03
2.841488028325e-14 -7.196566462911e-15 -4.402659301032e-03
2.841555688093e-14 -9.096871925817e-15 -4.402659300989e-03
2.841758153699e-14 -1.099809507789e-14 -4.402659300946e-03
3.031748880259e-14 -3.395327987219e-15 -4.402659301119e-03
3.031648806378e-14 -5.296300892244e-15 -4.402659301076e-03
3.031606218547e-14 -7.196131828027e-15 -4.402659301033e-03
3.031588506358e-14 -9.094683731649e-15 -4.402659300991e-03
3.031571457851e-14 -1.099798167644e-14 -4.402659300948e-03
4.821989710464e-16 -2.528429996540e-15 -4.402659301112e-03
4.823116475700e-16 -4.427781190171e-15 -4.402659301069e-03
4.827362994642e-16 -6.326824475387e-15 -4.402659301027e-03
4.832583668141e-16 -8.225565886040e-15 -4.402659300984e-03
4.839310125866e-16 -1.012319941061e-14 -4.402659300941e-03
2.381001259527e-15 -2.528621071655e-15 -4.402659301114e-03
2.380869637352e-15 -4.427105267542e-15 -4.402659301071e-03
2.382711516895e-15 -6.326393883745e-15 -4.402659301028e-03
2.382897473769e-15 -8.225678315592e-15 -4.402659300986e-03
2.381299945883e-15 -1.012381595701e-14 -4.402659300943e-03
4.278535070452e-15 -2.526960221320e-15 -4.402659301115e-03
4.279800838756e-15 -4.426783192690e-15 -4.402659301073e-03
4.281549891835e-15 -6.325979421471e-15 -4.402659301030e-03
4.282740699869e-15 -8.225794363180e-15 -4.402659300987e-03
4.282821435604e-15 -1.012529476266e-14 -4.402659300944e-03
6.180301426456e-15 -2.525234699915e-15 -4.402659301117e-03
6.180594863825e-15 -4.424897277348e-15 -4.402659301074e-03
6.180425204019e-15 -6.324794682829e-15 -4.402659301032e-03
6.182389950509e-15 -8.224526377631e-15 -4.402659300989e-03
6.183347558101e-15 -1.012605721828e-14 -4.402659300946e-03
8.082817809019e-15 -2.523801593172e-15 -4.402659301119e-03
8.081781365324e-15 -4.425387387485e-15 -4.402659301076e-03
8.080477538452e-15 -6.324484441646e-15 -4.402659301033e-03
8.081140786246e-15 -8.223747166680e-15 -4.402659300991e-03
8.082012586368e-15 -1.012500245135e-14 -4.402659300948e-03
-2.175213853695e-14 -1.655524895832e-15 -4.402659301112e-03
-2.175231580314e-14 -3.552763457978e-15 -4.402659301069e-03
-2.175188042535e-14 -5.452185562919e-15 -4.402659301027e-03
-2.175207060745e-14 -7.350364469716e-15 -4.402659300984e-03
-2.175269774316e-14 -9.250464740366e-15 -4.402659300941e-03
-1.985423041163e-14 -1.654602926590e-15 -4.402659301114e-03
-1.985359897348e-14 -3.554262590259e-15 -4.402659301071e-03
-1.985258011403e-14 -5.452241504554e-15 -4.402659301028e-03
-1.985228591409e-14 -7.351916564350e-15 -4.402659300986e-03
-1.985318352715e-14 -9.249953115791e-15 -4.402659300943e-03
-1.795608639299e-14 -1.654091903304e-15 -4.402659301115e-03
-1.795463589884e-14 -3.554406689256e-15 -4.402659301073e-03
-1.795258412279e-14 -5.453409634770e-15 -4.402659301030e-03
-1.795215272960e-14 -7.352803114243e-15 -4.402659300987e-03
-1.795253834754e-14 -9.251348929279e-15 -4.402659300944e-03
-1.605459722919e-14 -1.654790303399e-15 -4.402659301117e-03
-1.605483507891e-14 -3.553970155519e-15 -4.402659301074e-03
-1.605301294999e-14 -5.454265788168e-15 -4.402659301032e-03
-1.605163023710e-14 -7.352667735691e-15 -4.402659300989e-03
-1.605171274366e-14 -9.253397402647e-15 -4.402659300946e-03
-1.415276437138e-14 -1.655558229852e-15 -4.402659301119e-03
-1.415278760172e-14 -3.555773224132e-15 -4.402659301076e-03
-1.415415676386e-14 -5.454540197201e-15 -4.402659301033e-03
-1.415308154233e-14 -7.352524283098e-15 -4.402659300991e-03
-1.415097397712e-14 -9.253745811306e-15 -4.402659300948e-03
-4.398667412159e-14 -7.814035946126e-16 -4.402659301112e-03
-4.398785162062e-14 -2.677373567386e-15 -4.402659301069e-03
-4.398853464945e-14 -4.577262741950e-15 -4.402659301027e-03
-4.398830566306e-14 -6.475795862364e-15 -4.402659300984e-03
-4.398882774552e-14 -8.374277772334e-15 -4.402659300941e-03
-4.208878436101e-14 -7.810168214114e-16 -4.402659301114e-03
-4.208786392556e-14 -2.679410897578e-15 -4.402659301071e-03
-4.208868504247e-14 -4.577136044081e-15 -4.402659301028e-03
-4.208853476811e-14 -6.476666133251e-15 -4.402659300985e-03
-4.208718613615e-14 -8.376727969470e-15 -4.402659300943e-03
-4.018626025966e-14 -7.818092065915e-16 -4.402659301115e-03
-4.018931933599e-14 -2.682437579150e-15 -4.402659301073e-03
-4.018850906300e-14 -4.580653062631e-15 -4.402659301030e-03
-4.018885780348e-14 -6.478507155587e-15 -4.402659300987e-03
-4.019060645741e-14 -8.378381124993e-15 -4.402659300944e-03
-3.828909106801e-14 -7.848705506022e-16 -4.402659301117e-03
-3.828925119259e-14 -2.685793391828e-15 -4.402659301074e-03
-3.828706145725e-14 -4.585896530936e-15 -4.402659301032e-03
-3.828682280892e-14 -6.481574598655e-15 -4.402659300989e-03
-3.828920242665e-14 -8.379464425252e-15 -4.402659300946e-03
-3.639003427616e-14 -7.838655187926e-16 -4.402659301119e-03
-3.639028721198e-14 -2.688536936213e-15 -4.402659301076e-03
-3.638712217138e-14 -4.589700975607e-15 -4.402659301033e-03
-3.638514040892e-14 -6.481562612445e-15 -4.402659300991e-03
-3.638369144562e-14 -8.380025742368e-15 -4.402659300948e-03
SCALARS displacement_magnitude float 1
LOOKUP_TABLE default
0.000000000000e+00
0.000000000000e+00
0.000000000000e+00
0.000000000000e+00
0.000000000000e+00
0.000000000000e+00
0.000000000000e+00
0.000000000000e+00
0.000000000000e+00
0.000000000000e+00
0.000000000000e+00
0.000000000000e+00
0.000000000000e+00
0.000000000000e+00
0.000000000000e+00
0.000000000000e+00
0.000000000000e+00
0.000000000000e+00
0.000000000000e+00
0.000000000000e+00
0.000000000000e+00
0.000000000000e+00
0.000000000000e+00
0.000000000000e+00
0.000000000000e+00
0.000000000000e+00
0.000000000000e+00
0.000000000000e+00
0.000000000000e+00
0.000000000000e+00
0.000000000000e+00
0.000000000000e+00
0.000000000000e+00
0.000000000000e+00
0.000000000000e+00
0.000000000000e+00
0.000000000000e+00
0.000000000000e+00
0.000000000000e+00
0.000000000000e+00
0.000000000000e+00
0.000000000000e+00
0.000000000000e+00
0.000000000000e+00
0.000000000000e+00
0.000000000000e+00
0.000000000000e+00
0.000000000000e+00
0.000000000000e+00
0.000000000000e+00
0.000000000000e+00
0.000000000000e+00
0.000000000000e+00
0.000000000000e+00
0.000000000000e+00
0.000000000000e+00
0.000000000000e+00
0.000000000000e+00
0.000000000000e+00
0.000000000000e+00
0.000000000000e+00
0.000000000000e+00
0.000000000000e+00
0.000000000000e+00
0.000000000000e+00
0.000000000000e+00
0.000000000000e+00
0.000000000000e+00
0.000000000000e+00
0.000000000000e+00
0.000000000000e+00
0.000000000000e+00
0.000000000000e+00
0.000000000000e+00
0.000000000000e+00
0.000000000000e+00
0.000000000000e+00
0.000000000000e+00
0.000000000000e+00
0.000000000000e+00
0.000000000000e+00
0.000000000000e+00
0.000000000000e+00
0.000000000000e+00
0.000000000000e+00
0.000000000000e+00
0.000000000000e+00
0.000000000000e+00
0.000000000000e+00
0.000000000000e+00
0.000000000000e+00
0.000000000000e+00
0.000000000000e+00
0.000000000000e+00
0.000000000000e+00
0.000000000000e+00
0.000000000000e+00
0.000000000000e+00
0.000000000000e+00
0.000000000000e+00
0.000000000000e+00
0.000000000000e+00
0.000000000000e+00
0.000000000000e+00
0.000000000000e+00
0.000000000000e+00
0.000000000000e+00
0.000000000000e+00
0.000000000000e+00
0.000000000000e+00
0.000000000000e+00
0.000000000000e+00
0.000000000000e+00
0.000000000000e+00
0.000000000000e+00
0.000000000000e+00
0.000000000000e+00
0.000000000000e+00
0.000000000000e+00
0.000000000000e+00
0.000000000000e+00
0.000000000000e+00
0.000000000000e+00
0.000000000000e+00
0.000000000000e+00
4.402659301112e-03
4.402659301069e-03
4.402659301027e-03
4.402659300984e-03
4.402659300941e-03
4.402659301114e-03
4.402659301071e-03
4.402659301028e-03
4.402659300986e-03
4.402659300943e-03
4.402659301115e-03
4.402659301073e-03
4.402659301030e-03
4.402659300987e-03
4.402659300944e-03
4.402659301117e-03
4.402659301074e-03
4.402659301032e-03
4.402659300989e-03
4.402659300946e-03
4.402659301119e-03
4.402659301076e-03
4.402659301033e-03
4.402659300991e-03
4.402659300948e-03
4.402659301112e-03
4.402659301069e-03
4.402659301027e-03
4.402659300984e-03
4.402659300941e-03
4.402659301114e-03
4.402659301071e-03
4.402659301028e-03
4.402659300986e-03
4.402659300943e-03
4.402659301115e-03
4.402659301073e-03
4.402659301030e-03
4.402659300987e-03
4.402659300944e-03
4.402659301117e-03
4.402659301074e-03
4.402659301032e-03
4.402659300989e-03
4.402659300946e-03
4.402659301119e-03
4.402659301076e-03
4.402659301033e-03
4.402659300991e-03
4.402659300948e-03
4.402659301112e-03
4.402659301069e-03
4.402659301027e-03
4.402659300984e-03
4.402659300941e-03
4.402659301114e-03
4.402659301071e-03
4.402659301028e-03
4.402659300986e-03
4.402659300943e-03
4.402659301115e-03
4.402659301073e-03
4.402659301030e-03
4.402659300987e-03
4.402659300944e-03
4.402659301117e-03
4.402659301074e-03
4.402659301032e-03
4.402659300989e-03
4.402659300946e-03
4.402659301119e-03
4.402659301076e-03
4.402659301033e-03
4.402659300991e-03
4.402659300948e-03
4.402659301112e-03
4.402659301069e-03
4.402659301027e-03
4.402659300984e-03
4.402659300941e-03
4.402659301114e-03
4.402659301071e-03
4.402659301028e-03
4.402659300986e-03
4.402659300943e-03
4.402659301115e-03
4.402659301073e-03
4.402659301030e-03
4.402659300987e-03
4.402659300944e-03
4.402659301117e-03
4.402659301074e-03
4.402659301032e-03
4.402659300989e-03
4.402659300946e-03
4.402659301119e-03
4.402659301076e-03
4.402659301033e-03
4.402659300991e-03
4.402659300948e-03
4.402659301112e-03
4.402659301069e-03
4.402659301027e-03
4.402659300984e-03
4.402659300941e-03
4.402659301114e-03
4.402659301071e-03
4.402659301028e-03
4.402659300985e-03
4.402659300943e-03
4.402659301115e-03
4.402659301073e-03
4.402659301030e-03
4.402659300987e-03
4.402659300944e-03
4.402659301117e-03
4.402659301074e-03
4.402659301032e-03
4.402659300989e-03
4.402659300946e-03
4.402659301119e-03
4.402659301076e-03
4.402659301033e-03
4.402659300991e-03
4.402659300948e-03
CELL_DATA 128
SCALARS displacement_magnitude float 1
LOOKUP_TABLE default
0.000000000000e+00
0.000000000000e+00
0.000000000000e+00
0.000000000000e+00
0.000000000000e+00
0.000000000000e+00
0.000000000000e+00
0.000000000000e+00
0.000000000000e+00
0.000000000000e+00
0.000000000000e+00
0.000000000000e+00
0.000000000000e+00
0.000000000000e+00
0.000000000000e+00
0.000000000000e+00
0.000000000000e+00
0.000000000000e+00
0.000000000000e+00
0.000000000000e+00
0.000000000000e+00
0.000000000000e+00
0.000000000000e+00
0.000000000000e+00
0.000000000000e+00
0.000000000000e+00
0.000000000000e+00
0.000000000000e+00
0.000000000000e+00
0.000000000000e+00
0.000000000000e+00
0.000000000000e+00
0.000000000000e+00
0.000000000000e+00
0.000000000000e+00
0.000000000000e+00
0.000000000000e+00
0.000000000000e+00
0.000000000000e+00
0.000000000000e+00
0.000000000000e+00
0.000000000000e+00
0.000000000000e+00
0.000000000000e+00
0.000000000000e+00
0.000000000000e+00
0.000000000000e+00
0.000000000000e+00
0.000000000000e+00
0.000000000000e+00
0.000000000000e+00
0.000000000000e+00
0.000000000000e+00
0.000000000000e+00
0.000000000000e+00
0.000000000000e+00
0.000000000000e+00
0.000000000000e+00
0.000000000000e+00
0.000000000000e+00
0.000000000000e+00
0.000000000000e+00
0.000000000000e+00
0.000000000000e+00
4.402659301092e-03
4.402659301049e-03
4.402659301006e-03
4.402659300963e-03
4.402659301093e-03
4.402659301050e-03
4.402659301008e-03
4.402659300965e-03
4.402659301095e-03
4.402659301052e-03
4.402659301009e-03
4.402659300967e-03
4.402659301097e-03
4.402659301054e-03
4.402659301011e-03
4.402659300968e-03
4.402659301092e-03
4.402659301049e-03
4.402659301006e-03
4.402659300963e-03
4.402659301093e-03
4.402659301050e-03
4.402659301008e-03
4.402659300965e-03
4.402659301095e-03
4.402659301052e-03
4.402659301009e-03
4.402659300967e-03
4.402659301097e-03
4.402659301054e-03
4.402659301011e-03
4.402659300968e-03
4.402659301092e-03
4.402659301049e-03
4.402659301006e-03
4.402659300963e-03
4.402659301093e-03
4.402659301050e-03
4.402659301008e-03
4.402659300965e-03
4.402659301095e-03
4.402659301052e-03
4.402659301009e-03
4.402659300967e-03
4.402659301097e-03
4.402659301054e-03
4.402659301011e-03
4.402659300968e-03
4.402659301092e-03
4.402659301049e-03
4.402659301006e-03
4.402659300963e-03
4.402659301093e-03
4.402659301050e-03
4.402659301008e-03
4.402659300965e-03
4.402659301095e-03
4.402659301052e-03
4.402659301009e-03
4.402659300967e-03
4.402659301097e-03
4.402659301054e-03
4.402659301011e-03
4.402659300968e-03
SCALARS engineering_strain_norm float 1
LOOKUP_TABLE default
0.000000000000e+00
0.000000000000e+00
0.000000000000e+00
0.000000000000e+00
0.000000000000e+00
0.000000000000e+00
0.000000000000e+00
0.000000000000e+00
0.000000000000e+00
0.000000000000e+00
0.000000000000e+00
0.000000000000e+00
0.000000000000e+00
0.000000000000e+00
0.000000000000e+00
0.000000000000e+00
0.000000000000e+00
0.000000000000e+00
0.000000000000e+00
0.000000000000e+00
0.000000000000e+00
0.000000000000e+00
0.000000000000e+00
0.000000000000e+00
0.000000000000e+00
0.000000000000e+00
0.000000000000e+00
0.000000000000e+00
0.000000000000e+00
0.000000000000e+00
0.000000000000e+00
0.000000000000e+00
0.000000000000e+00
0.000000000000e+00
0.000000000000e+00
0.000000000000e+00
0.000000000000e+00
0.000000000000e+00
0.000000000000e+00
0.000000000000e+00
0.000000000000e+00
0.000000000000e+00
0.000000000000e+00
0.000000000000e+00
0.000000000000e+00
0.000000000000e+00
0.000000000000e+00
0.000000000000e+00
0.000000000000e+00
0.000000000000e+00
0.000000000000e+00
0.000000000000e+00
0.000000000000e+00
0.000000000000e+00
0.000000000000e+00
0.000000000000e+00
0.000000000000e+00
0.000000000000e+00
0.000000000000e+00
0.000000000000e+00
0.000000000000e+00
0.000000000000e+00
0.000000000000e+00
0.000000000000e+00
2.011083394664e-17
3.122143180688e-17
1.494046627756e-17
3.153406154268e-17
2.441186707268e-17
4.528243660421e-17
3.771328228439e-17
1.883085446073e-17
2.686515538012e-17
2.492877404987e-17
4.844773724575e-17
3.065608383846e-17
1.480932676095e-17
3.616315510863e-17
2.053469123219e-17
2.716951399053e-17
2.692526025796e-17
3.805663226411e-17
1.816415004336e-17
3.257899077600e-17
2.734783347429e-17
3.101146481589e-17
2.927452531679e-17
2.158003912129e-17
3.603688248625e-17
3.470681704501e-17
5.187722056299e-17
1.655379699116e-17
1.654571757065e-17
4.201577392328e-17
4.015330586621e-17
3.765364679267e-17
2.456189679307e-17
3.984074726488e-17
2.328522133871e-17
2.583875523346e-17
4.198707613667e-17
4.217376628153e-17
3.705112201107e-17
3.118739939795e-17
3.401467515621e-17
4.810909781718e-17
5.397559201778e-17
3.246266598782e-17
2.538740587523e-17
6.343474863565e-17
6.148987713203e-17
1.858882391294e-17
1.950408241192e-17
2.347725865162e-17
2.399846518541e-17
3.243645627997e-17
3.435970920543e-17
3.520487828815e-17
2.814058712227e-17
2.949694857901e-17
2.421589260297e-17
3.693806051079e-17
3.512456444056e-17
4.302124659128e-17
3.138675522960e-17
4.351373900809e-17
5.650200587586e-17
2.259193985084e-17
SCALARS von_mises float 1
LOOKUP_TABLE default
0.000000000000e+00
0.000000000000e+00
0.000000000000e+00
0.000000000000e+00
0.000000000000e+00
0.000000000000e+00
0.000000000000e+00
0.000000000000e+00
0.000000000000e+00
0.000000000000e+00
0.000000000000e+00
0.000000000000e+00
0.000000000000e+00
0.000000000000e+00
0.000000000000e+00
0.000000000000e+00
0.000000000000e+00
0.000000000000e+00
0.000000000000e+00
0.000000000000e+00
0.000000000000e+00
0.000000000000e+00
0.000000000000e+00
0.000000000000e+00
0.000000000000e+00
0.000000000000e+00
0.000000000000e+00
0.000000000000e+00
0.000000000000e+00
0.000000000000e+00
0.000000000000e+00
0.000000000000e+00
0.000000000000e+00
0.000000000000e+00
0.000000000000e+00
0.000000000000e+00
0.000000000000e+00
0.000000000000e+00
0.000000000000e+00
0.000000000000e+00
0.000000000000e+00
0.000000000000e+00
0.000000000000e+00
0.000000000000e+00
0.000000000000e+00
0.000000000000e+00
0.000000000000e+00
0.000000000000e+00
0.000000000000e+00
0.000000000000e+00
0.000000000000e+00
0.000000000000e+00
0.000000000000e+00
0.000000000000e+00
0.000000000000e+00
0.000000000000e+00
0.000000000000e+00
0.000000000000e+00
0.000000000000e+00
0.000000000000e+00
0.000000000000e+00
0.000000000000e+00
0.000000000000e+00
0.000000000000e+00
1.385844671082e-12
2.183796225275e-12
1.198268185345e-12
2.126773755602e-12
2.161556227111e-12
4.171828034918e-12
3.418253981728e-12
1.572693115709e-12
2.290791587449e-12
2.072461894956e-12
3.758582022687e-12
2.364754173824e-12
1.245565342706e-12
2.520297312164e-12
1.566373777657e-12
1.906916338214e-12
1.946343346187e-12
2.771680895288e-12
1.525308699955e-12
2.162608994801e-12
2.095076585544e-12
2.694585945900e-12
2.332649868380e-12
1.740142268689e-12
3.112597062512e-12
3.103846720930e-12
4.333091131776e-12
1.172841491158e-12
1.191126337786e-12
2.862819939918e-12
2.978096634593e-12
3.038541965707e-12
1.697623454568e-12
2.780303773140e-12
1.728586377202e-12
2.055638657776e-12
3.272067307065e-12
3.539495598761e-12
2.562378070309e-12
2.118221996356e-12
2.767412398409e-12
4.087039969220e-12
4.585094790405e-12
2.170110815286e-12
1.824204307953e-12
4.433309430292e-12
4.254447371109e-12
1.131874884718e-12
1.352543920762e-12
1.515123172015e-12
1.791266031316e-12
2.741150746365e-12
2.243492108499e-12
2.439320099680e-12
1.983326295390e-12
2.619514595719e-12
1.716803382121e-12
2.897578640751e-12
2.410138776086e-12
3.061040372351e-12
2.506879720354e-12
3.218981960806e-12
3.856375343792e-12
1.623521370844e-12
SCALARS sdf_gap float 1
LOOKUP_TABLE default
0.000000000000e+00
0.000000000000e+00
0.000000000000e+00
0.000000000000e+00
0.000000000000e+00
0.000000000000e+00
0.000000000000e+00
0.000000000000e+00
0.000000000000e+00
0.000000000000e+00
0.000000000000e+00
0.000000000000e+00
0.000000000000e+00
0.000000000000e+00
0.000000000000e+00
0.000000000000e+00
0.000000000000e+00
0.000000000000e+00
0.000000000000e+00
0.000000000000e+00
0.000000000000e+00
0.000000000000e+00
0.000000000000e+00
0.000000000000e+00
0.000000000000e+00
0.000000000000e+00
0.000000000000e+00
0.000000000000e+00
0.000000000000e+00
0.000000000000e+00
0.000000000000e+00
0.000000000000e+00
0.000000000000e+00
0.000000000000e+00
0.000000000000e+00
0.000000000000e+00
0.000000000000e+00
0.000000000000e+00
0.000000000000e+00
0.000000000000e+00
0.000000000000e+00
0.000000000000e+00
0.000000000000e+00
0.000000000000e+00
0.000000000000e+00
0.000000000000e+00
0.000000000000e+00
0.000000000000e+00
0.000000000000e+00
0.000000000000e+00
0.000000000000e+00
0.000000000000e+00
0.000000000000e+00
0.000000000000e+00
0.000000000000e+00
0.000000000000e+00
0.000000000000e+00
0.000000000000e+00
0.000000000000e+00
0.000000000000e+00
0.000000000000e+00
0.000000000000e+00
0.000000000000e+00
0.000000000000e+00
1.059734069891e-02
1.059734069895e-02
1.059734069899e-02
1.059734069904e-02
1.059734069891e-02
1.059734069895e-02
1.059734069899e-02
1.059734069904e-02
1.059734069891e-02
1.059734069895e-02
1.059734069899e-02
1.059734069903e-02
1.059734069890e-02
1.059734069895e-02
1.059734069899e-02
1.059734069903e-02
0.000000000000e+00
0.000000000000e+00
0.000000000000e+00
0.000000000000e+00
0.000000000000e+00
0.000000000000e+00
0.000000000000e+00
0.000000000000e+00
0.000000000000e+00
0.000000000000e+00
0.000000000000e+00
0.000000000000e+00
0.000000000000e+00
0.000000000000e+00
0.000000000000e+00
0.000000000000e+00
0.000000000000e+00
0.000000000000e+00
0.000000000000e+00
0.000000000000e+00
0.000000000000e+00
0.000000000000e+00
0.000000000000e+00
0.000000000000e+00
0.000000000000e+00
0.000000000000e+00
0.000000000000e+00
0.000000000000e+00
0.000000000000e+00
0.000000000000e+00
0.000000000000e+00
0.000000000000e+00
0.000000000000e+00
0.000000000000e+00
0.000000000000e+00
0.000000000000e+00
0.000000000000e+00
0.000000000000e+00
0.000000000000e+00
0.000000000000e+00
0.000000000000e+00
0.000000000000e+00
0.000000000000e+00
0.000000000000e+00
0.000000000000e+00
0.000000000000e+00
0.000000000000e+00
0.000000000000e+00
SCALARS contact_pressure float 1
LOOKUP_TABLE default
0.000000000000e+00
0.000000000000e+00
0.000000000000e+00
0.000000000000e+00
0.000000000000e+00
0.000000000000e+00
0.000000000000e+00
0.000000000000e+00
0.000000000000e+00
0.000000000000e+00
0.000000000000e+00
0.000000000000e+00
0.000000000000e+00
0.000000000000e+00
0.000000000000e+00
0.000000000000e+00
0.000000000000e+00
0.000000000000e+00
0.000000000000e+00
0.000000000000e+00
0.000000000000e+00
0.000000000000e+00
0.000000000000e+00
0.000000000000e+00
0.000000000000e+00
0.000000000000e+00
0.000000000000e+00
0.000000000000e+00
0.000000000000e+00
0.000000000000e+00
0.000000000000e+00
0.000000000000e+00
0.000000000000e+00
0.000000000000e+00
0.000000000000e+00
0.000000000000e+00
0.000000000000e+00
0.000000000000e+00
0.000000000000e+00
0.000000000000e+00
0.000000000000e+00
0.000000000000e+00
0.000000000000e+00
0.000000000000e+00
0.000000000000e+00
0.000000000000e+00
0.000000000000e+00
0.000000000000e+00
0.000000000000e+00
0.000000000000e+00
0.000000000000e+00
0.000000000000e+00
0.000000000000e+00
0.000000000000e+00
0.000000000000e+00
0.000000000000e+00
0.000000000000e+00
0.000000000000e+00
0.000000000000e+00
0.000000000000e+00
0.000000000000e+00
0.000000000000e+00
0.000000000000e+00
0.000000000000e+00
0.000000000000e+00
0.000000000000e+00
0.000000000000e+00
0.000000000000e+00
0.000000000000e+00
0.000000000000e+00
0.000000000000e+00
0.000000000000e+00
0.000000000000e+00
0.000000000000e+00
0.000000000000e+00
0.000000000000e+00
0.000000000000e+00
0.000000000000e+00
0.000000000000e+00
0.000000000000e+00
0.000000000000e+00
0.000000000000e+00
0.000000000000e+00
0.000000000000e+00
0.000000000000e+00
0.000000000000e+00
0.000000000000e+00
0.000000000000e+00
0.000000000000e+00
0.000000000000e+00
0.000000000000e+00
0.000000000000e+00
0.000000000000e+00
0.000000000000e+00
0.000000000000e+00
0.000000000000e+00
0.000000000000e+00
0.000000000000e+00
0.000000000000e+00
0.000000000000e+00
0.000000000000e+00
0.000000000000e+00
0.000000000000e+00
0.000000000000e+00
0.000000000000e+00
0.000000000000e+00
0.000000000000e+00
0.000000000000e+00
0.000000000000e+00
0.000000000000e+00
0.000000000000e+00
0.000000000000e+00
0.000000000000e+00
0.000000000000e+00
0.000000000000e+00
0.000000000000e+00
0.000000000000e+00
0.000000000000e+00
0.000000000000e+00
0.000000000000e+00
0.000000000000e+00
0.000000000000e+00
0.000000000000e+00
0.000000000000e+00
0.000000000000e+00
0.000000000000e+00
0.000000000000e+00
0.000000000000e+00
SCALARS active_contact float 1
LOOKUP_TABLE default
0.000000000000e+00
0.000000000000e+00
0.000000000000e+00
0.000000000000e+00
0.000000000000e+00
0.000000000000e+00
0.000000000000e+00
0.000000000000e+00
0.000000000000e+00
0.000000000000e+00
0.000000000000e+00
0.000000000000e+00
0.000000000000e+00
0.000000000000e+00
0.000000000000e+00
0.000000000000e+00
0.000000000000e+00
0.000000000000e+00
0.000000000000e+00
0.000000000000e+00
0.000000000000e+00
0.000000000000e+00
0.000000000000e+00
0.000000000000e+00
0.000000000000e+00
0.000000000000e+00
0.000000000000e+00
0.000000000000e+00
0.000000000000e+00
0.000000000000e+00
0.000000000000e+00
0.000000000000e+00
0.000000000000e+00
0.000000000000e+00
0.000000000000e+00
0.000000000000e+00
0.000000000000e+00
0.000000000000e+00
0.000000000000e+00
0.000000000000e+00
0.000000000000e+00
0.000000000000e+00
0.000000000000e+00
0.000000000000e+00
0.000000000000e+00
0.000000000000e+00
0.000000000000e+00
0.000000000000e+00
0.000000000000e+00
0.000000000000e+00
0.000000000000e+00
0.000000000000e+00
0.000000000000e+00
0.000000000000e+00
0.000000000000e+00
0.000000000000e+00
0.000000000000e+00
0.000000000000e+00
0.000000000000e+00
0.000000000000e+00
0.000000000000e+00
0.000000000000e+00
0.000000000000e+00
0.000000000000e+00
0.000000000000e+00
0.000000000000e+00
0.000000000000e+00
0.000000000000e+00
0.000000000000e+00
0.000000000000e+00
0.000000000000e+00
0.000000000000e+00
0.000000000000e+00
0.000000000000e+00
0.000000000000e+00
0.000000000000e+00
0.000000000000e+00
0.000000000000e+00
0.000000000000e+00
0.000000000000e+00
0.000000000000e+00
0.000000000000e+00
0.000000000000e+00
0.000000000000e+00
0.000000000000e+00
0.000000000000e+00
0.000000000000e+00
0.000000000000e+00
0.000000000000e+00
0.000000000000e+00
0.000000000000e+00
0.000000000000e+00
0.000000000000e+00
0.000000000000e+00
0.000000000000e+00
0.000000000000e+00
0.000000000000e+00
0.000000000000e+00
0.000000000000e+00
0.000000000000e+00
0.000000000000e+00
0.000000000000e+00
0.000000000000e+00
0.000000000000e+00
0.000000000000e+00
0.000000000000e+00
0.000000000000e+00
0.000000000000e+00
0.000000000000e+00
0.000000000000e+00
0.000000000000e+00
0.000000000000e+00
0.000000000000e+00
0.000000000000e+00
0.000000000000e+00
0.000000000000e+00
0.000000000000e+00
0.000000000000e+00
0.000000000000e+00
0.000000000000e+00
0.000000000000e+00
0.000000000000e+00
0.000000000000e+00
0.000000000000e+00
0.000000000000e+00
0.000000000000e+00
0.000000000000e+00
0.000000000000e+00
