# vtk DataFile Version 3.0
SFC long-time C3D8 dynamic frame 43 t=8.600000000000e-01
ASCII
DATASET UNSTRUCTURED_GRID
POINTS 250 float
-2.500000000000e-01 -2.500000000000e-01 0.000000000000e+00
-1.250000000000e-01 -2.500000000000e-01 0.000000000000e+00
0.000000000000e+00 -2.500000000000e-01 0.000000000000e+00
1.250000000000e-01 -2.500000000000e-01 0.000000000000e+00
2.500000000000e-01 -2.500000000000e-01 0.000000000000e+00
-2.500000000000e-01 -1.250000000000e-01 0.000000000000e+00
-1.250000000000e-01 -1.250000000000e-01 0.000000000000e+00
0.000000000000e+00 -1.250000000000e-01 0.000000000000e+00
1.250000000000e-01 -1.250000000000e-01 0.000000000000e+00
2.500000000000e-01 -1.250000000000e-01 0.000000000000e+00
-2.500000000000e-01 0.000000000000e+00 0.000000000000e+00
-1.250000000000e-01 0.000000000000e+00 0.000000000000e+00
0.000000000000e+00 0.000000000000e+00 0.000000000000e+00
1.250000000000e-01 0.000000000000e+00 0.000000000000e+00
2.500000000000e-01 0.000000000000e+00 0.000000000000e+00
-2.500000000000e-01 1.250000000000e-01 0.000000000000e+00
-1.250000000000e-01 1.250000000000e-01 0.000000000000e+00
0.000000000000e+00 1.250000000000e-01 0.000000000000e+00
1.250000000000e-01 1.250000000000e-01 0.000000000000e+00
2.500000000000e-01 1.250000000000e-01 0.000000000000e+00
-2.500000000000e-01 2.500000000000e-01 0.000000000000e+00
-1.250000000000e-01 2.500000000000e-01 0.000000000000e+00
0.000000000000e+00 2.500000000000e-01 0.000000000000e+00
1.250000000000e-01 2.500000000000e-01 0.000000000000e+00
2.500000000000e-01 2.500000000000e-01 0.000000000000e+00
-2.500000000000e-01 -2.500000000000e-01 6.000000000000e-02
-1.250000000000e-01 -2.500000000000e-01 6.000000000000e-02
0.000000000000e+00 -2.500000000000e-01 6.000000000000e-02
1.250000000000e-01 -2.500000000000e-01 6.000000000000e-02
2.500000000000e-01 -2.500000000000e-01 6.000000000000e-02
-2.500000000000e-01 -1.250000000000e-01 6.000000000000e-02
-1.250000000000e-01 -1.250000000000e-01 6.000000000000e-02
0.000000000000e+00 -1.250000000000e-01 6.000000000000e-02
1.250000000000e-01 -1.250000000000e-01 6.000000000000e-02
2.500000000000e-01 -1.250000000000e-01 6.000000000000e-02
-2.500000000000e-01 0.000000000000e+00 6.000000000000e-02
-1.250000000000e-01 0.000000000000e+00 6.000000000000e-02
0.000000000000e+00 0.000000000000e+00 6.000000000000e-02
1.250000000000e-01 0.000000000000e+00 6.000000000000e-02
2.500000000000e-01 0.000000000000e+00 6.000000000000e-02
-2.500000000000e-01 1.250000000000e-01 6.000000000000e-02
-1.250000000000e-01 1.250000000000e-01 6.000000000000e-02
0.000000000000e+00 1.250000000000e-01 6.000000000000e-02
1.250000000000e-01 1.250000000000e-01 6.000000000000e-02
2.500000000000e-01 1.250000000000e-01 6.000000000000e-02
-2.500000000000e-01 2.500000000000e-01 6.000000000000e-02
-1.250000000000e-01 2.500000000000e-01 6.000000000000e-02
0.000000000000e+00 2.500000000000e-01 6.000000000000e-02
1.250000000000e-01 2.500000000000e-01 6.000000000000e-02
2.500000000000e-01 2.500000000000e-01 6.000000000000e-02
-2.500000000000e-01 -2.500000000000e-01 1.200000000000e-01
-1.250000000000e-01 -2.500000000000e-01 1.200000000000e-01
0.000000000000e+00 -2.500000000000e-01 1.200000000000e-01
1.250000000000e-01 -2.500000000000e-01 1.200000000000e-01
2.500000000000e-01 -2.500000000000e-01 1.200000000000e-01
-2.500000000000e-01 -1.250000000000e-01 1.200000000000e-01
-1.250000000000e-01 -1.250000000000e-01 1.200000000000e-01
0.000000000000e+00 -1.250000000000e-01 1.200000000000e-01
1.250000000000e-01 -1.250000000000e-01 1.200000000000e-01
2.500000000000e-01 -1.250000000000e-01 1.200000000000e-01
-2.500000000000e-01 0.000000000000e+00 1.200000000000e-01
-1.250000000000e-01 0.000000000000e+00 1.200000000000e-01
0.000000000000e+00 0.000000000000e+00 1.200000000000e-01
1.250000000000e-01 0.000000000000e+00 1.200000000000e-01
2.500000000000e-01 0.000000000000e+00 1.200000000000e-01
-2.500000000000e-01 1.250000000000e-01 1.200000000000e-01
-1.250000000000e-01 1.250000000000e-01 1.200000000000e-01
0.000000000000e+00 1.250000000000e-01 1.200000000000e-01
1.250000000000e-01 1.250000000000e-01 1.200000000000e-01
2.500000000000e-01 1.250000000000e-01 1.200000000000e-01
-2.500000000000e-01 2.500000000000e-01 1.200000000000e-01
-1.250000000000e-01 2.500000000000e-01 1.200000000000e-01
0.000000000000e+00 2.500000000000e-01 1.200000000000e-01
1.250000000000e-01 2.500000000000e-01 1.200000000000e-01
2.500000000000e-01 2.500000000000e-01 1.200000000000e-01
-2.500000000000e-01 -2.500000000000e-01 1.800000000000e-01
-1.250000000000e-01 -2.500000000000e-01 1.800000000000e-01
0.000000000000e+00 -2.500000000000e-01 1.800000000000e-01
1.250000000000e-01 -2.500000000000e-01 1.800000000000e-01
2.500000000000e-01 -2.500000000000e-01 1.800000000000e-01
-2.500000000000e-01 -1.250000000000e-01 1.800000000000e-01
-1.250000000000e-01 -1.250000000000e-01 1.800000000000e-01
0.000000000000e+00 -1.250000000000e-01 1.800000000000e-01
1.250000000000e-01 -1.250000000000e-01 1.800000000000e-01
2.500000000000e-01 -1.250000000000e-01 1.800000000000e-01
-2.500000000000e-01 0.000000000000e+00 1.800000000000e-01
-1.250000000000e-01 0.000000000000e+00 1.800000000000e-01
0.000000000000e+00 0.000000000000e+00 1.800000000000e-01
1.250000000000e-01 0.000000000000e+00 1.800000000000e-01
2.500000000000e-01 0.000000000000e+00 1.800000000000e-01
-2.500000000000e-01 1.250000000000e-01 1.800000000000e-01
-1.250000000000e-01 1.250000000000e-01 1.800000000000e-01
0.000000000000e+00 1.250000000000e-01 1.800000000000e-01
1.250000000000e-01 1.250000000000e-01 1.800000000000e-01
2.500000000000e-01 1.250000000000e-01 1.800000000000e-01
-2.500000000000e-01 2.500000000000e-01 1.800000000000e-01
-1.250000000000e-01 2.500000000000e-01 1.800000000000e-01
0.000000000000e+00 2.500000000000e-01 1.800000000000e-01
1.250000000000e-01 2.500000000000e-01 1.800000000000e-01
2.500000000000e-01 2.500000000000e-01 1.800000000000e-01
-2.500000000000e-01 -2.500000000000e-01 2.400000000000e-01
-1.250000000000e-01 -2.500000000000e-01 2.400000000000e-01
0.000000000000e+00 -2.500000000000e-01 2.400000000000e-01
1.250000000000e-01 -2.500000000000e-01 2.400000000000e-01
2.500000000000e-01 -2.500000000000e-01 2.400000000000e-01
-2.500000000000e-01 -1.250000000000e-01 2.400000000000e-01
-1.250000000000e-01 -1.250000000000e-01 2.400000000000e-01
0.000000000000e+00 -1.250000000000e-01 2.400000000000e-01
1.250000000000e-01 -1.250000000000e-01 2.400000000000e-01
2.500000000000e-01 -1.250000000000e-01 2.400000000000e-01
-2.500000000000e-01 0.000000000000e+00 2.400000000000e-01
-1.250000000000e-01 0.000000000000e+00 2.400000000000e-01
0.000000000000e+00 0.000000000000e+00 2.400000000000e-01
1.250000000000e-01 0.000000000000e+00 2.400000000000e-01
2.500000000000e-01 0.000000000000e+00 2.400000000000e-01
-2.500000000000e-01 1.250000000000e-01 2.400000000000e-01
-1.250000000000e-01 1.250000000000e-01 2.400000000000e-01
0.000000000000e+00 1.250000000000e-01 2.400000000000e-01
1.250000000000e-01 1.250000000000e-01 2.400000000000e-01
2.500000000000e-01 1.250000000000e-01 2.400000000000e-01
-2.500000000000e-01 2.500000000000e-01 2.400000000000e-01
-1.250000000000e-01 2.500000000000e-01 2.400000000000e-01
0.000000000000e+00 2.500000000000e-01 2.400000000000e-01
1.250000000000e-01 2.500000000000e-01 2.400000000000e-01
2.500000000000e-01 2.500000000000e-01 2.400000000000e-01
-2.500019463075e-01 -2.500019463075e-01 2.399438025486e-01
-1.250010057069e-01 -2.500019438286e-01 2.399431401791e-01
1.079450339628e-14 -2.500019322755e-01 2.399428940073e-01
1.250010057069e-01 -2.500019438286e-01 2.399431401791e-01
2.500019463075e-01 -2.500019463075e-01 2.399438025486e-01
-2.500019438286e-01 -1.250010057069e-01 2.399431401791e-01
-1.250010042417e-01 -1.250010042417e-01 2.399424847595e-01
1.020554137021e-14 -1.250009995360e-01 2.399422431122e-01
1.250010042417e-01 -1.250010042417e-01 2.399424847595e-01
2.500019438286e-01 -1.250010057069e-01 2.399431401791e-01
-2.500019322755e-01 -1.380960223682e-14 2.399428940073e-01
-1.250009995360e-01 -1.322561312631e-14 2.399422431122e-01
9.615113349445e-15 -1.263639010332e-14 2.399420017791e-01
1.250009995360e-01 -1.205412082129e-14 2.399422431122e-01
2.500019322755e-01 -1.146764791017e-14 2.399428940073e-01
-2.500019438286e-01 1.250010057069e-01 2.399431401791e-01
-1.250010042417e-01 1.250010042417e-01 2.399424847595e-01
9.020521460511e-15 1.250009995360e-01 2.399422431122e-01
1.250010042417e-01 1.250010042417e-01 2.399424847595e-01
2.500019438286e-01 1.250010057069e-01 2.399431401791e-01
-2.500019463075e-01 2.500019463075e-01 2.399438025486e-01
-1.250010057069e-01 2.500019438286e-01 2.399431401791e-01
8.430881794288e-15 2.500019322755e-01 2.399428940073e-01
1.250010057069e-01 2.500019438286e-01 2.399431401791e-01
2.500019463075e-01 2.500019463075e-01 2.399438025486e-01
-2.500015215341e-01 -2.500015215341e-01 3.049422762359e-01
-1.250007660323e-01 -2.500015246557e-01 3.049415873468e-01
1.074588011557e-14 -2.500015197067e-01 3.049413336200e-01
1.250007660323e-01 -2.500015246557e-01 3.049415873468e-01
2.500015215341e-01 -2.500015215341e-01 3.049422762359e-01
-2.500015246557e-01 -1.250007660323e-01 3.049415873468e-01
-1.250007655998e-01 -1.250007655998e-01 3.049409040560e-01
1.016359749738e-14 -1.250007625448e-01 3.049406548764e-01
1.250007655998e-01 -1.250007655998e-01 3.049409040560e-01
2.500015246557e-01 -1.250007660323e-01 3.049415873468e-01
-2.500015197066e-01 -1.383563753056e-14 3.049413336200e-01
-1.250007625448e-01 -1.324830711214e-14 3.049406548764e-01
9.574279137450e-15 -1.265644843838e-14 3.049404062175e-01
1.250007625448e-01 -1.207210837667e-14 3.049406548764e-01
2.500015197066e-01 -1.148473598752e-14 3.049413336200e-01
-2.500015246557e-01 1.250007660323e-01 3.049415873468e-01
-1.250007655998e-01 1.250007655998e-01 3.049409040560e-01
8.982207134208e-15 1.250007625448e-01 3.049406548764e-01
1.250007655998e-01 1.250007655998e-01 3.049409040560e-01
2.500015246557e-01 1.250007660323e-01 3.049415873468e-01
-2.500015215341e-01 2.500015215341e-01 3.049422762359e-01
-1.250007660323e-01 2.500015246557e-01 3.049415873468e-01
8.390387345781e-15 2.500015197066e-01 3.049413336200e-01
1.250007660323e-01 2.500015246557e-01 3.049415873468e-01
2.500015215341e-01 2.500015215341e-01 3.049422762359e-01
-2.500010304768e-01 -2.500010304769e-01 3.699412068605e-01
-1.250005283555e-01 -2.500010305505e-01 3.699404978038e-01
1.069913732709e-14 -2.500010276858e-01 3.699402393434e-01
1.250005283555e-01 -2.500010305505e-01 3.699404978038e-01
2.500010304769e-01 -2.500010304769e-01 3.699412068605e-01
-2.500010305504e-01 -1.250005283555e-01 3.699404978038e-01
-1.250005282301e-01 -1.250005282301e-01 3.699397928849e-01
1.011295917640e-14 -1.250005266536e-01 3.699395390125e-01
1.250005282301e-01 -1.250005282301e-01 3.699397928849e-01
2.500010305505e-01 -1.250005283555e-01 3.699404978038e-01
-2.500010276858e-01 -1.386363294522e-14 3.699402393434e-01
-1.250005266536e-01 -1.327419147853e-14 3.699395390125e-01
9.528139088270e-15 -1.268285540758e-14 3.699392859762e-01
1.250005266536e-01 -1.209393117574e-14 3.699395390125e-01
2.500010276858e-01 -1.150796319749e-14 3.699402393434e-01
-2.500010305505e-01 1.250005283555e-01 3.699404978038e-01
-1.250005282301e-01 1.250005282301e-01 3.699397928849e-01
8.936254539919e-15 1.250005266536e-01 3.699395390125e-01
1.250005282301e-01 1.250005282301e-01 3.699397928849e-01
2.500010305505e-01 1.250005283555e-01 3.699404978038e-01
-2.500010304768e-01 2.500010304768e-01 3.699412068605e-01
-1.250005283555e-01 2.500010305504e-01 3.699404978038e-01
8.345071928330e-15 2.500010276858e-01 3.699402393434e-01
1.250005283555e-01 2.500010305504e-01 3.699404978038e-01
2.500010304769e-01 2.500010304768e-01 3.699412068605e-01
-2.500005416502e-01 -2.500005416502e-01 4.349405652515e-01
-1.250002846607e-01 -2.500005393859e-01 4.349398497096e-01
1.064961592206e-14 -2.500005393750e-01 4.349395785182e-01
1.250002846607e-01 -2.500005393859e-01 4.349398497096e-01
2.500005416502e-01 -2.500005416502e-01 4.349405652515e-01
-2.500005393858e-01 -1.250002846607e-01 4.349398497096e-01
-1.250002846202e-01 -1.250002846203e-01 4.349391398520e-01
1.006084273372e-14 -1.250002845207e-01 4.349388729913e-01
1.250002846203e-01 -1.250002846203e-01 4.349391398520e-01
2.500005393858e-01 -1.250002846607e-01 4.349398497096e-01
-2.500005393750e-01 -1.388990018008e-14 4.349395785182e-01
-1.250002845207e-01 -1.330299012401e-14 4.349388729913e-01
9.479026781195e-15 -1.270994651449e-14 4.349386059664e-01
1.250002845207e-01 -1.211660565476e-14 4.349388729913e-01
2.500005393750e-01 -1.153310893752e-14 4.349395785182e-01
-2.500005393858e-01 1.250002846607e-01 4.349398497096e-01
-1.250002846202e-01 1.250002846202e-01 4.349391398520e-01
8.891034381187e-15 1.250002845207e-01 4.349388729913e-01
1.250002846203e-01 1.250002846202e-01 4.349391398520e-01
2.500005393858e-01 1.250002846607e-01 4.349398497096e-01
-2.500005416502e-01 2.500005416502e-01 4.349405652515e-01
-1.250002846607e-01 2.500005393858e-01 4.349398497096e-01
8.298479796529e-15 2.500005393750e-01 4.349395785182e-01
1.250002846607e-01 2.500005393858e-01 4.349398497096e-01
2.500005416502e-01 2.500005416502e-01 4.349405652515e-01
-2.500001052281e-01 -2.500001052281e-01 4.999403284539e-01
-1.250000274175e-01 -2.500001099144e-01 4.999396167636e-01
1.059648759446e-14 -2.500001179184e-01 4.999393410724e-01
1.250000274175e-01 -2.500001099144e-01 4.999396167636e-01
2.500001052281e-01 -2.500001052281e-01 4.999403284539e-01
-2.500001099144e-01 -1.250000274175e-01 4.999396167636e-01
-1.250000281485e-01 -1.250000281485e-01 4.999389128412e-01
1.001521048363e-14 -1.250000296062e-01 4.999386419916e-01
1.250000281485e-01 -1.250000281485e-01 4.999389128412e-01
2.500001099144e-01 -1.250000274175e-01 4.999396167636e-01
-2.500001179184e-01 -1.392018385943e-14 4.999393410724e-01
-1.250000296062e-01 -1.332678884175e-14 4.999386419916e-01
9.432360481278e-15 -1.273347732472e-14 4.999383710320e-01
1.250000296062e-01 -1.214075095115e-14 4.999386419916e-01
2.500001179184e-01 -1.154994105927e-14 4.999393410724e-01
-2.500001099144e-01 1.250000274175e-01 4.999396167636e-01
-1.250000281485e-01 1.250000281485e-01 4.999389128412e-01
8.846456363817e-15 1.250000296062e-01 4.999386419916e-01
1.250000281485e-01 1.250000281485e-01 4.999389128412e-01
2.500001099144e-01 1.250000274175e-01 4.999396167636e-01
-2.500001052281e-01 2.500001052281e-01 4.999403284539e-01
-1.250000274175e-01 2.500001099143e-01 4.999396167636e-01
8.251055242661e-15 2.500001179184e-01 4.999393410724e-01
1.250000274175e-01 2.500001099143e-01 4.999396167636e-01
2.500001052281e-01 2.500001052281e-01 4.999403284539e-01
CELLS 128 1152
8 0 1 6 5 25 26 31 30
8 1 2 7 6 26 27 32 31
8 2 3 8 7 27 28 33 32
8 3 4 9 8 28 29 34 33
8 5 6 11 10 30 31 36 35
8 6 7 12 11 31 32 37 36
8 7 8 13 12 32 33 38 37
8 8 9 14 13 33 34 39 38
8 10 11 16 15 35 36 41 40
8 11 12 17 16 36 37 42 41
8 12 13 18 17 37 38 43 42
8 13 14 19 18 38 39 44 43
8 15 16 21 20 40 41 46 45
8 16 17 22 21 41 42 47 46
8 17 18 23 22 42 43 48 47
8 18 19 24 23 43 44 49 48
8 25 26 31 30 50 51 56 55
8 26 27 32 31 51 52 57 56
8 27 28 33 32 52 53 58 57
8 28 29 34 33 53 54 59 58
8 30 31 36 35 55 56 61 60
8 31 32 37 36 56 57 62 61
8 32 33 38 37 57 58 63 62
8 33 34 39 38 58 59 64 63
8 35 36 41 40 60 61 66 65
8 36 37 42 41 61 62 67 66
8 37 38 43 42 62 63 68 67
8 38 39 44 43 63 64 69 68
8 40 41 46 45 65 66 71 70
8 41 42 47 46 66 67 72 71
8 42 43 48 47 67 68 73 72
8 43 44 49 48 68 69 74 73
8 50 51 56 55 75 76 81 80
8 51 52 57 56 76 77 82 81
8 52 53 58 57 77 78 83 82
8 53 54 59 58 78 79 84 83
8 55 56 61 60 80 81 86 85
8 56 57 62 61 81 82 87 86
8 57 58 63 62 82 83 88 87
8 58 59 64 63 83 84 89 88
8 60 61 66 65 85 86 91 90
8 61 62 67 66 86 87 92 91
8 62 63 68 67 87 88 93 92
8 63 64 69 68 88 89 94 93
8 65 66 71 70 90 91 96 95
8 66 67 72 71 91 92 97 96
8 67 68 73 72 92 93 98 97
8 68 69 74 73 93 94 99 98
8 75 76 81 80 100 101 106 105
8 76 77 82 81 101 102 107 106
8 77 78 83 82 102 103 108 107
8 78 79 84 83 103 104 109 108
8 80 81 86 85 105 106 111 110
8 81 82 87 86 106 107 112 111
8 82 83 88 87 107 108 113 112
8 83 84 89 88 108 109 114 113
8 85 86 91 90 110 111 116 115
8 86 87 92 91 111 112 117 116
8 87 88 93 92 112 113 118 117
8 88 89 94 93 113 114 119 118
8 90 91 96 95 115 116 121 120
8 91 92 97 96 116 117 122 121
8 92 93 98 97 117 118 123 122
8 93 94 99 98 118 119 124 123
8 125 126 131 130 150 151 156 155
8 126 127 132 131 151 152 157 156
8 127 128 133 132 152 153 158 157
8 128 129 134 133 153 154 159 158
8 130 131 136 135 155 156 161 160
8 131 132 137 136 156 157 162 161
8 132 133 138 137 157 158 163 162
8 133 134 139 138 158 159 164 163
8 135 136 141 140 160 161 166 165
8 136 137 142 141 161 162 167 166
8 137 138 143 142 162 163 168 167
8 138 139 144 143 163 164 169 168
8 140 141 146 145 165 166 171 170
8 141 142 147 146 166 167 172 171
8 142 143 148 147 167 168 173 172
8 143 144 149 148 168 169 174 173
8 150 151 156 155 175 176 181 180
8 151 152 157 156 176 177 182 181
8 152 153 158 157 177 178 183 182
8 153 154 159 158 178 179 184 183
8 155 156 161 160 180 181 186 185
8 156 157 162 161 181 182 187 186
8 157 158 163 162 182 183 188 187
8 158 159 164 163 183 184 189 188
8 160 161 166 165 185 186 191 190
8 161 162 167 166 186 187 192 191
8 162 163 168 167 187 188 193 192
8 163 164 169 168 188 189 194 193
8 165 166 171 170 190 191 196 195
8 166 167 172 171 191 192 197 196
8 167 168 173 172 192 193 198 197
8 168 169 174 173 193 194 199 198
8 175 176 181 180 200 201 206 205
8 176 177 182 181 201 202 207 206
8 177 178 183 182 202 203 208 207
8 178 179 184 183 203 204 209 208
8 180 181 186 185 205 206 211 210
8 181 182 187 186 206 207 212 211
8 182 183 188 187 207 208 213 212
8 183 184 189 188 208 209 214 213
8 185 186 191 190 210 211 216 215
8 186 187 192 191 211 212 217 216
8 187 188 193 192 212 213 218 217
8 188 189 194 193 213 214 219 218
8 190 191 196 195 215 216 221 220
8 191 192 197 196 216 217 222 221
8 192 193 198 197 217 218 223 222
8 193 194 199 198 218 219 224 223
8 200 201 206 205 225 226 231 230
8 201 202 207 206 226 227 232 231
8 202 203 208 207 227 228 233 232
8 203 204 209 208 228 229 234 233
8 205 206 211 210 230 231 236 235
8 206 207 212 211 231 232 237 236
8 207 208 213 212 232 233 238 237
8 208 209 214 213 233 234 239 238
8 210 211 216 215 235 236 241 240
8 211 212 217 216 236 237 242 241
8 212 213 218 217 237 238 243 242
8 213 214 219 218 238 239 244 243
8 215 216 221 220 240 241 246 245
8 216 217 222 221 241 242 247 246
8 217 218 223 222 242 243 248 247
8 218 219 224 223 243 244 249 248
CELL_TYPES 128
12
12
12
12
12
12
12
12
12
12
12
12
12
12
12
12
12
12
12
12
12
12
12
12
12
12
12
12
12
12
12
12
12
12
12
12
12
12
12
12
12
12
12
12
12
12
12
12
12
12
12
12
12
12
12
12
12
12
12
12
12
12
12
12
12
12
12
12
12
12
12
12
12
12
12
12
12
12
12
12
12
12
12
12
12
12
12
12
12
12
12
12
12
12
12
12
12
12
12
12
12
12
12
12
12
12
12
12
12
12
12
12
12
12
12
12
12
12
12
12
12
12
12
12
12
12
12
12
POINT_DATA 250
VECTORS displacement float
0.000000000000e+00 0.000000000000e+00 0.000000000000e+00
0.000000000000e+00 0.000000000000e+00 0.000000000000e+00
0.000000000000e+00 0.000000000000e+00 0.000000000000e+00
0.000000000000e+00 0.000000000000e+00 0.000000000000e+00
0.000000000000e+00 0.000000000000e+00 0.000000000000e+00
0.000000000000e+00 0.000000000000e+00 0.000000000000e+00
0.000000000000e+00 0.000000000000e+00 0.000000000000e+00
0.000000000000e+00 0.000000000000e+00 0.000000000000e+00
0.000000000000e+00 0.000000000000e+00 0.000000000000e+00
0.000000000000e+00 0.000000000000e+00 0.000000000000e+00
0.000000000000e+00 0.000000000000e+00 0.000000000000e+00
0.000000000000e+00 0.000000000000e+00 0.000000000000e+00
0.000000000000e+00 0.000000000000e+00 0.000000000000e+00
0.000000000000e+00 0.000000000000e+00 0.000000000000e+00
0.000000000000e+00 0.000000000000e+00 0.000000000000e+00
0.000000000000e+00 0.000000000000e+00 0.000000000000e+00
0.000000000000e+00 0.000000000000e+00 0.000000000000e+00
0.000000000000e+00 0.000000000000e+00 0.000000000000e+00
0.000000000000e+00 0.000000000000e+00 0.000000000000e+00
0.000000000000e+00 0.000000000000e+00 0.000000000000e+00
0.000000000000e+00 0.000000000000e+00 0.000000000000e+00
0.000000000000e+00 0.000000000000e+00 0.000000000000e+00
0.000000000000e+00 0.000000000000e+00 0.000000000000e+00
0.000000000000e+00 0.000000000000e+00 0.000000000000e+00
0.000000000000e+00 0.000000000000e+00 0.000000000000e+00
0.000000000000e+00 0.000000000000e+00 0.000000000000e+00
0.000000000000e+00 0.000000000000e+00 0.000000000000e+00
0.000000000000e+00 0.000000000000e+00 0.000000000000e+00
0.000000000000e+00 0.000000000000e+00 0.000000000000e+00
0.000000000000e+00 0.000000000000e+00 0.000000000000e+00
0.000000000000e+00 0.000000000000e+00 0.000000000000e+00
0.000000000000e+00 0.000000000000e+00 0.000000000000e+00
0.000000000000e+00 0.000000000000e+00 0.000000000000e+00
0.000000000000e+00 0.000000000000e+00 0.000000000000e+00
0.000000000000e+00 0.000000000000e+00 0.000000000000e+00
0.000000000000e+00 0.000000000000e+00 0.000000000000e+00
0.000000000000e+00 0.000000000000e+00 0.000000000000e+00
0.000000000000e+00 0.000000000000e+00 0.000000000000e+00
0.000000000000e+00 0.000000000000e+00 0.000000000000e+00
0.000000000000e+00 0.000000000000e+00 0.000000000000e+00
0.000000000000e+00 0.000000000000e+00 0.000000000000e+00
0.000000000000e+00 0.000000000000e+00 0.000000000000e+00
0.000000000000e+00 0.000000000000e+00 0.000000000000e+00
0.000000000000e+00 0.000000000000e+00 0.000000000000e+00
0.000000000000e+00 0.000000000000e+00 0.000000000000e+00
0.000000000000e+00 0.000000000000e+00 0.000000000000e+00
0.000000000000e+00 0.000000000000e+00 0.000000000000e+00
0.000000000000e+00 0.000000000000e+00 0.000000000000e+00
0.000000000000e+00 0.000000000000e+00 0.000000000000e+00
0.000000000000e+00 0.000000000000e+00 0.000000000000e+00
0.000000000000e+00 0.000000000000e+00 0.000000000000e+00
0.000000000000e+00 0.000000000000e+00 0.000000000000e+00
0.000000000000e+00 0.000000000000e+00 0.000000000000e+00
0.000000000000e+00 0.000000000000e+00 0.000000000000e+00
0.000000000000e+00 0.000000000000e+00 0.000000000000e+00
0.000000000000e+00 0.000000000000e+00 0.000000000000e+00
0.000000000000e+00 0.000000000000e+00 0.000000000000e+00
0.000000000000e+00 0.000000000000e+00 0.000000000000e+00
0.000000000000e+00 0.000000000000e+00 0.000000000000e+00
0.000000000000e+00 0.000000000000e+00 0.000000000000e+00
0.000000000000e+00 0.000000000000e+00 0.000000000000e+00
0.000000000000e+00 0.000000000000e+00 0.000000000000e+00
0.000000000000e+00 0.000000000000e+00 0.000000000000e+00
0.000000000000e+00 0.000000000000e+00 0.000000000000e+00
0.000000000000e+00 0.000000000000e+00 0.000000000000e+00
0.000000000000e+00 0.000000000000e+00 0.000000000000e+00
0.000000000000e+00 0.000000000000e+00 0.000000000000e+00
0.000000000000e+00 0.000000000000e+00 0.000000000000e+00
0.000000000000e+00 0.000000000000e+00 0.000000000000e+00
0.000000000000e+00 0.000000000000e+00 0.000000000000e+00
0.000000000000e+00 0.000000000000e+00 0.000000000000e+00
0.000000000000e+00 0.000000000000e+00 0.000000000000e+00
0.000000000000e+00 0.000000000000e+00 0.000000000000e+00
0.000000000000e+00 0.000000000000e+00 0.000000000000e+00
0.000000000000e+00 0.000000000000e+00 0.000000000000e+00
0.000000000000e+00 0.000000000000e+00 0.000000000000e+00
0.000000000000e+00 0.000000000000e+00 0.000000000000e+00
0.000000000000e+00 0.000000000000e+00 0.000000000000e+00
0.000000000000e+00 0.000000000000e+00 0.000000000000e+00
0.000000000000e+00 0.000000000000e+00 0.000000000000e+00
0.000000000000e+00 0.000000000000e+00 0.000000000000e+00
0.000000000000e+00 0.000000000000e+00 0.000000000000e+00
0.000000000000e+00 0.000000000000e+00 0.000000000000e+00
0.000000000000e+00 0.000000000000e+00 0.000000000000e+00
0.000000000000e+00 0.000000000000e+00 0.000000000000e+00
0.000000000000e+00 0.000000000000e+00 0.000000000000e+00
0.000000000000e+00 0.000000000000e+00 0.000000000000e+00
0.000000000000e+00 0.000000000000e+00 0.000000000000e+00
0.000000000000e+00 0.000000000000e+00 0.000000000000e+00
0.000000000000e+00 0.000000000000e+00 0.000000000000e+00
0.000000000000e+00 0.000000000000e+00 0.000000000000e+00
0.000000000000e+00 0.000000000000e+00 0.000000000000e+00
0.000000000000e+00 0.000000000000e+00 0.000000000000e+00
0.000000000000e+00 0.000000000000e+00 0.000000000000e+00
0.000000000000e+00 0.000000000000e+00 0.000000000000e+00
0.000000000000e+00 0.000000000000e+00 0.000000000000e+00
0.000000000000e+00 0.000000000000e+00 0.000000000000e+00
0.000000000000e+00 0.000000000000e+00 0.000000000000e+00
0.000000000000e+00 0.000000000000e+00 0.000000000000e+00
0.000000000000e+00 0.000000000000e+00 0.000000000000e+00
0.000000000000e+00 0.000000000000e+00 0.000000000000e+00
0.000000000000e+00 0.000000000000e+00 0.000000000000e+00
0.000000000000e+00 0.000000000000e+00 0.000000000000e+00
0.000000000000e+00 0.000000000000e+00 0.000000000000e+00
0.000000000000e+00 0.000000000000e+00 0.000000000000e+00
0.000000000000e+00 0.000000000000e+00 0.000000000000e+00
0.000000000000e+00 0.000000000000e+00 0.000000000000e+00
0.000000000000e+00 0.000000000000e+00 0.000000000000e+00
0.000000000000e+00 0.000000000000e+00 0.000000000000e+00
0.000000000000e+00 0.000000000000e+00 0.000000000000e+00
0.000000000000e+00 0.000000000000e+00 0.000000000000e+00
0.000000000000e+00 0.000000000000e+00 0.000000000000e+00
0.000000000000e+00 0.000000000000e+00 0.000000000000e+00
0.000000000000e+00 0.000000000000e+00 0.000000000000e+00
0.000000000000e+00 0.000000000000e+00 0.000000000000e+00
0.000000000000e+00 0.000000000000e+00 0.000000000000e+00
0.000000000000e+00 0.000000000000e+00 0.000000000000e+00
0.000000000000e+00 0.000000000000e+00 0.000000000000e+00
0.000000000000e+00 0.000000000000e+00 0.000000000000e+00
0.000000000000e+00 0.000000000000e+00 0.000000000000e+00
0.000000000000e+00 0.000000000000e+00 0.000000000000e+00
0.000000000000e+00 0.000000000000e+00 0.000000000000e+00
0.000000000000e+00 0.000000000000e+00 0.000000000000e+00
0.000000000000e+00 0.000000000000e+00 0.000000000000e+00
0.000000000000e+00 0.000000000000e+00 0.000000000000e+00
-1.946307488637e-06 -1.946307513232e-06 -1.505619745136e-02
-1.005706865509e-06 -1.943828599435e-06 -1.505685982086e-02
1.079450339628e-14 -1.932275510530e-06 -1.505710599271e-02
1.005706887089e-06 -1.943828598275e-06 -1.505685982086e-02
1.946307510210e-06 -1.946307510892e-06 -1.505619745136e-02
-1.943828576019e-06 -1.005706890109e-06 -1.505685982086e-02
-1.004241719424e-06 -1.004241742852e-06 -1.505751524051e-02
1.020554137021e-14 -9.995360082569e-07 -1.505775688777e-02
1.004241739833e-06 -1.004241741684e-06 -1.505751524051e-02
1.943828596415e-06 -1.005706887768e-06 -1.505685982086e-02
-1.932275488273e-06 -1.380960223682e-14 -1.505710599271e-02
-9.995359860039e-07 -1.322561312631e-14 -1.505775688777e-02
9.615113349445e-15 -1.263639010332e-14 -1.505799822085e-02
9.995360052343e-07 -1.205412082129e-14 -1.505775688777e-02
1.932275507499e-06 -1.146764791017e-14 -1.505710599271e-02
-1.943828577194e-06 1.005706862480e-06 -1.505685982086e-02
-1.004241720603e-06 1.004241716403e-06 -1.505751524051e-02
9.020521460511e-15 9.995359829855e-07 -1.505775688777e-02
1.004241738644e-06 1.004241717581e-06 -1.505751524051e-02
1.943828595233e-06 1.005706864833e-06 -1.505685982086e-02
-1.946307490972e-06 1.946307485594e-06 -1.505619745136e-02
-1.005706867860e-06 1.943828572989e-06 -1.505685982086e-02
8.430881794288e-15 1.932275485256e-06 -1.505710599271e-02
1.005706884718e-06 1.943828574173e-06 -1.505685982086e-02
1.946307507824e-06 1.946307487955e-06 -1.505619745136e-02
-1.521534087056e-06 -1.521534111639e-06 -1.505772376409e-02
-7.660322679287e-07 -1.524655693591e-06 -1.505841265317e-02
1.074588011557e-14 -1.519706652656e-06 -1.505866637996e-02
7.660322894203e-07 -1.524655692416e-06 -1.505841265317e-02
1.521534108539e-06 -1.521534109286e-06 -1.505772376409e-02
-1.524655670186e-06 -7.660322925097e-07 -1.505841265317e-02
-7.655998164480e-07 -7.655998398572e-07 -1.505909594399e-02
1.016359749738e-14 -7.625448472521e-07 -1.505934512361e-02
7.655998367704e-07 -7.655998386835e-07 -1.505909594398e-02
1.524655690494e-06 -7.660322901636e-07 -1.505841265317e-02
-1.519706630431e-06 -1.383563753056e-14 -1.505866637996e-02
-7.625448250212e-07 -1.324830711214e-14 -1.505934512361e-02
9.574279137450e-15 -1.265644843838e-14 -1.505959378250e-02
7.625448441666e-07 -1.207210837667e-14 -1.505934512361e-02
1.519706649565e-06 -1.148473598752e-14 -1.505866637996e-02
-1.524655671363e-06 7.660322648381e-07 -1.505841265317e-02
-7.655998176262e-07 7.655998133606e-07 -1.505909594399e-02
8.982207134208e-15 7.625448219351e-07 -1.505934512361e-02
7.655998355870e-07 7.655998145390e-07 -1.505909594398e-02
1.524655689312e-06 7.660322671940e-07 -1.505841265317e-02
-1.521534089405e-06 1.521534083956e-06 -1.505772376409e-02
-7.660322702866e-07 1.524655667094e-06 -1.505841265317e-02
8.390387345781e-15 1.519706627336e-06 -1.505866637996e-02
7.660322870609e-07 1.524655668267e-06 -1.505841265317e-02
1.521534106171e-06 1.521534086313e-06 -1.505772376409e-02
-1.030476846418e-06 -1.030476870980e-06 -1.505879313950e-02
-5.283554798562e-07 -1.030550472718e-06 -1.505950219624e-02
1.069913732709e-14 -1.027685787967e-06 -1.505976065661e-02
5.283555012520e-07 -1.030550471536e-06 -1.505950219624e-02
1.030476867805e-06 -1.030476868626e-06 -1.505879313950e-02
-1.030550449330e-06 -5.283555044185e-07 -1.505950219624e-02
-5.282300588229e-07 -5.282300822091e-07 -1.506020711512e-02
1.011295917640e-14 -5.266535969026e-07 -1.506046098748e-02
5.282300790490e-07 -5.282300810323e-07 -1.506020711512e-02
1.030550469545e-06 -5.283555020675e-07 -1.505950219624e-02
-1.027685765759e-06 -1.386363294522e-14 -1.505976065661e-02
-5.266535746969e-07 -1.327419147853e-14 -1.506046098748e-02
9.528139088270e-15 -1.268285540758e-14 -1.506071402381e-02
5.266535937475e-07 -1.209393117574e-14 -1.506046098748e-02
1.027685784802e-06 -1.150796319749e-14 -1.505976065661e-02
-1.030550450507e-06 5.283554766915e-07 -1.505950219624e-02
-5.282300599999e-07 5.282300556611e-07 -1.506020711512e-02
8.936254539919e-15 5.266535715371e-07 -1.506046098748e-02
5.282300778707e-07 5.282300568387e-07 -1.506020711512e-02
1.030550468370e-06 5.283554790525e-07 -1.505950219624e-02
-1.030476848774e-06 1.030476843244e-06 -1.505879313950e-02
-5.283554822155e-07 1.030550446162e-06 -1.505950219624e-02
8.345071928330e-15 1.027685762593e-06 -1.505976065661e-02
5.283554988992e-07 1.030550447339e-06 -1.505950219624e-02
1.030476865447e-06 1.030476845604e-06 -1.505879313950e-02
-5.416502066720e-07 -5.416502312149e-07 -1.505943474847e-02
-2.846606985897e-07 -5.393858525983e-07 -1.506015029045e-02
1.064961592206e-14 -5.393749866336e-07 -1.506042148177e-02
2.846607198821e-07 -5.393858514204e-07 -1.506015029045e-02
5.416502279579e-07 -5.416502288543e-07 -1.505943474846e-02
-5.393858292390e-07 -2.846607231258e-07 -1.506015029045e-02
-2.846202366926e-07 -2.846202600562e-07 -1.506086014805e-02
1.006084273372e-14 -2.845206948577e-07 -1.506112700870e-02
2.846202568177e-07 -2.846202588745e-07 -1.506086014805e-02
5.393858493602e-07 -2.846607207704e-07 -1.506015029045e-02
-5.393749644534e-07 -1.388990018008e-14 -1.506042148177e-02
-2.845206726761e-07 -1.330299012401e-14 -1.506112700870e-02
9.479026781195e-15 -1.270994651449e-14 -1.506139403362e-02
2.845206916304e-07 -1.211660565476e-14 -1.506112700870e-02
5.393749834029e-07 -1.153310893752e-14 -1.506042148177e-02
-5.393858304151e-07 2.846606953405e-07 -1.506015029045e-02
-2.846202378694e-07 2.846202334494e-07 -1.506086014805e-02
8.891034381187e-15 2.845206694406e-07 -1.506112700870e-02
2.846202556468e-07 2.846202346324e-07 -1.506086014805e-02
5.393858481857e-07 2.846606977064e-07 -1.506015029045e-02
-5.416502090273e-07 5.416502034178e-07 -1.505943474846e-02
-2.846607009421e-07 5.393858259913e-07 -1.506015029045e-02
8.298479796529e-15 5.393749612103e-07 -1.506042148177e-02
2.846607175340e-07 5.393858271663e-07 -1.506015029045e-02
5.416502256135e-07 5.416502057842e-07 -1.505943474846e-02
-1.052281140046e-07 -1.052281385128e-07 -1.505967154609e-02
-2.741750350415e-08 -1.099143744616e-07 -1.506038323643e-02
1.059648759446e-14 -1.179184261162e-07 -1.506065892755e-02
2.741752469064e-08 -1.099143732704e-07 -1.506038323643e-02
1.052281351885e-07 -1.052281361583e-07 -1.505967154609e-02
-1.099143511371e-07 -2.741752802012e-08 -1.506038323643e-02
-2.814849966581e-08 -2.814852300319e-08 -1.506108715882e-02
1.001521048363e-14 -2.960623265147e-08 -1.506135800843e-02
2.814851968775e-08 -2.814852181492e-08 -1.506108715882e-02
1.099143711385e-07 -2.741752565326e-08 -1.506038323643e-02
-1.179184039524e-07 -1.392018385943e-14 -1.506065892755e-02
-2.960621049218e-08 -1.332678884175e-14 -1.506135800843e-02
9.432360481278e-15 -1.273347732472e-14 -1.506162896801e-02
2.960622935255e-08 -1.214075095115e-14 -1.506135800843e-02
1.179184228097e-07 -1.154994105927e-14 -1.506065892755e-02
-1.099143522982e-07 2.741750017506e-08 -1.506038323643e-02
-2.814850083782e-08 2.814849634312e-08 -1.506108715882e-02
8.846456363817e-15 2.960620717751e-08 -1.506135800843e-02
2.814851852369e-08 2.814849752307e-08 -1.506108715882e-02
1.099143699823e-07 2.741750254208e-08 -1.506038323643e-02
-1.052281163548e-07 1.052281106681e-07 -1.505967154609e-02
-2.741750585474e-08 1.099143477918e-07 -1.506038323643e-02
8.251055242661e-15 1.179184006322e-07 -1.506065892755e-02
2.741752235627e-08 1.099143489716e-07 -1.506038323643e-02
1.052281328556e-07 1.052281130354e-07 -1.505967154609e-02
SCALARS displacement_magnitude float 1
LOOKUP_TABLE default
0.000000000000e+00
0.000000000000e+00
0.000000000000e+00
0.000000000000e+00
0.000000000000e+00
0.000000000000e+00
0.000000000000e+00
0.000000000000e+00
0.000000000000e+00
0.000000000000e+00
0.000000000000e+00
0.000000000000e+00
0.000000000000e+00
0.000000000000e+00
0.000000000000e+00
0.000000000000e+00
0.000000000000e+00
0.000000000000e+00
0.000000000000e+00
0.000000000000e+00
0.000000000000e+00
0.000000000000e+00
0.000000000000e+00
0.000000000000e+00
0.000000000000e+00
0.000000000000e+00
0.000000000000e+00
0.000000000000e+00
0.000000000000e+00
0.000000000000e+00
0.000000000000e+00
0.000000000000e+00
0.000000000000e+00
0.000000000000e+00
0.000000000000e+00
0.000000000000e+00
0.000000000000e+00
0.000000000000e+00
0.000000000000e+00
0.000000000000e+00
0.000000000000e+00
0.000000000000e+00
0.000000000000e+00
0.000000000000e+00
0.000000000000e+00
0.000000000000e+00
0.000000000000e+00
0.000000000000e+00
0.000000000000e+00
0.000000000000e+00
0.000000000000e+00
0.000000000000e+00
0.000000000000e+00
0.000000000000e+00
0.000000000000e+00
0.000000000000e+00
0.000000000000e+00
0.000000000000e+00
0.000000000000e+00
0.000000000000e+00
0.000000000000e+00
0.000000000000e+00
0.000000000000e+00
0.000000000000e+00
0.000000000000e+00
0.000000000000e+00
0.000000000000e+00
0.000000000000e+00
0.000000000000e+00
0.000000000000e+00
0.000000000000e+00
0.000000000000e+00
0.000000000000e+00
0.000000000000e+00
0.000000000000e+00
0.000000000000e+00
0.000000000000e+00
0.000000000000e+00
0.000000000000e+00
0.000000000000e+00
0.000000000000e+00
0.000000000000e+00
0.000000000000e+00
0.000000000000e+00
0.000000000000e+00
0.000000000000e+00
0.000000000000e+00
0.000000000000e+00
0.000000000000e+00
0.000000000000e+00
0.000000000000e+00
0.000000000000e+00
0.000000000000e+00
0.000000000000e+00
0.000000000000e+00
0.000000000000e+00
0.000000000000e+00
0.000000000000e+00
0.000000000000e+00
0.000000000000e+00
0.000000000000e+00
0.000000000000e+00
0.000000000000e+00
0.000000000000e+00
0.000000000000e+00
0.000000000000e+00
0.000000000000e+00
0.000000000000e+00
0.000000000000e+00
0.000000000000e+00
0.000000000000e+00
0.000000000000e+00
0.000000000000e+00
0.000000000000e+00
0.000000000000e+00
0.000000000000e+00
0.000000000000e+00
0.000000000000e+00
0.000000000000e+00
0.000000000000e+00
0.000000000000e+00
0.000000000000e+00
0.000000000000e+00
0.000000000000e+00
0.000000000000e+00
1.505619770295e-02
1.505685997992e-02
1.505710611670e-02
1.505685997992e-02
1.505619770295e-02
1.505685997992e-02
1.505751530749e-02
1.505775692095e-02
1.505751530749e-02
1.505685997992e-02
1.505710611670e-02
1.505775692095e-02
1.505799822085e-02
1.505775692095e-02
1.505710611670e-02
1.505685997992e-02
1.505751530749e-02
1.505775692095e-02
1.505751530749e-02
1.505685997992e-02
1.505619770295e-02
1.505685997992e-02
1.505710611670e-02
1.505685997992e-02
1.505619770295e-02
1.505772391784e-02
1.505841274984e-02
1.505866645664e-02
1.505841274984e-02
1.505772391784e-02
1.505841274984e-02
1.505909598291e-02
1.505934514291e-02
1.505909598291e-02
1.505841274984e-02
1.505866645664e-02
1.505934514291e-02
1.505959378250e-02
1.505934514291e-02
1.505866645664e-02
1.505841274984e-02
1.505909598291e-02
1.505934514291e-02
1.505909598291e-02
1.505841274984e-02
1.505772391784e-02
1.505841274984e-02
1.505866645664e-02
1.505841274984e-02
1.505772391784e-02
1.505879321001e-02
1.505950224077e-02
1.505976069168e-02
1.505950224077e-02
1.505879321001e-02
1.505950224077e-02
1.506020713365e-02
1.506046099669e-02
1.506020713365e-02
1.505950224077e-02
1.505976069168e-02
1.506046099669e-02
1.506071402381e-02
1.506046099669e-02
1.505976069168e-02
1.505950224077e-02
1.506020713365e-02
1.506046099669e-02
1.506020713365e-02
1.505950224077e-02
1.505879321001e-02
1.505950224077e-02
1.505976069168e-02
1.505950224077e-02
1.505879321001e-02
1.505943476795e-02
1.506015030280e-02
1.506042149143e-02
1.506015030280e-02
1.505943476795e-02
1.506015030280e-02
1.506086015343e-02
1.506112701139e-02
1.506086015343e-02
1.506015030280e-02
1.506042149143e-02
1.506112701139e-02
1.506139403362e-02
1.506112701139e-02
1.506042149143e-02
1.506015030280e-02
1.506086015343e-02
1.506112701139e-02
1.506086015343e-02
1.506015030280e-02
1.505943476795e-02
1.506015030280e-02
1.506042149143e-02
1.506015030280e-02
1.505943476795e-02
1.505967154683e-02
1.506038323686e-02
1.506065892802e-02
1.506038323686e-02
1.505967154683e-02
1.506038323686e-02
1.506108715887e-02
1.506135800846e-02
1.506108715887e-02
1.506038323686e-02
1.506065892802e-02
1.506135800846e-02
1.506162896801e-02
1.506135800846e-02
1.506065892802e-02
1.506038323686e-02
1.506108715887e-02
1.506135800846e-02
1.506108715887e-02
1.506038323686e-02
1.505967154683e-02
1.506038323686e-02
1.506065892802e-02
1.506038323686e-02
1.505967154682e-02
CELL_DATA 128
SCALARS displacement_magnitude float 1
LOOKUP_TABLE default
0.000000000000e+00
0.000000000000e+00
0.000000000000e+00
0.000000000000e+00
0.000000000000e+00
0.000000000000e+00
0.000000000000e+00
0.000000000000e+00
0.000000000000e+00
0.000000000000e+00
0.000000000000e+00
0.000000000000e+00
0.000000000000e+00
0.000000000000e+00
0.000000000000e+00
0.000000000000e+00
0.000000000000e+00
0.000000000000e+00
0.000000000000e+00
0.000000000000e+00
0.000000000000e+00
0.000000000000e+00
0.000000000000e+00
0.000000000000e+00
0.000000000000e+00
0.000000000000e+00
0.000000000000e+00
0.000000000000e+00
0.000000000000e+00
0.000000000000e+00
0.000000000000e+00
0.000000000000e+00
0.000000000000e+00
0.000000000000e+00
0.000000000000e+00
0.000000000000e+00
0.000000000000e+00
0.000000000000e+00
0.000000000000e+00
0.000000000000e+00
0.000000000000e+00
0.000000000000e+00
0.000000000000e+00
0.000000000000e+00
0.000000000000e+00
0.000000000000e+00
0.000000000000e+00
0.000000000000e+00
0.000000000000e+00
0.000000000000e+00
0.000000000000e+00
0.000000000000e+00
0.000000000000e+00
0.000000000000e+00
0.000000000000e+00
0.000000000000e+00
0.000000000000e+00
0.000000000000e+00
0.000000000000e+00
0.000000000000e+00
0.000000000000e+00
0.000000000000e+00
0.000000000000e+00
0.000000000000e+00
1.505763479634e-02
1.505809483217e-02
1.505809483217e-02
1.505763479634e-02
1.505809483217e-02
1.505855092768e-02
1.505855092768e-02
1.505809483217e-02
1.505809483217e-02
1.505855092768e-02
1.505855092768e-02
1.505809483217e-02
1.505763479634e-02
1.505809483217e-02
1.505809483217e-02
1.505763479634e-02
1.505895627820e-02
1.505943142439e-02
1.505943142439e-02
1.505895627820e-02
1.505943142439e-02
1.505990290026e-02
1.505990290026e-02
1.505943142439e-02
1.505943142439e-02
1.505990290026e-02
1.505990290026e-02
1.505943142439e-02
1.505895627820e-02
1.505943142439e-02
1.505943142439e-02
1.505895627820e-02
1.505982504402e-02
1.506031125273e-02
1.506031125273e-02
1.505982504402e-02
1.506031125273e-02
1.506079392008e-02
1.506079392008e-02
1.506031125273e-02
1.506031125273e-02
1.506079392008e-02
1.506079392008e-02
1.506031125273e-02
1.505982504402e-02
1.506031125273e-02
1.506031125273e-02
1.505982504402e-02
1.506026508830e-02
1.506075578641e-02
1.506075578641e-02
1.506026508830e-02
1.506075578641e-02
1.506124254420e-02
1.506124254420e-02
1.506075578641e-02
1.506075578641e-02
1.506124254420e-02
1.506124254420e-02
1.506075578641e-02
1.506026508830e-02
1.506075578641e-02
1.506075578641e-02
1.506026508830e-02
SCALARS engineering_strain_norm float 1
LOOKUP_TABLE default
0.000000000000e+00
0.000000000000e+00
0.000000000000e+00
0.000000000000e+00
0.000000000000e+00
0.000000000000e+00
0.000000000000e+00
0.000000000000e+00
0.000000000000e+00
0.000000000000e+00
0.000000000000e+00
0.000000000000e+00
0.000000000000e+00
0.000000000000e+00
0.000000000000e+00
0.000000000000e+00
0.000000000000e+00
0.000000000000e+00
0.000000000000e+00
0.000000000000e+00
0.000000000000e+00
0.000000000000e+00
0.000000000000e+00
0.000000000000e+00
0.000000000000e+00
0.000000000000e+00
0.000000000000e+00
0.000000000000e+00
0.000000000000e+00
0.000000000000e+00
0.000000000000e+00
0.000000000000e+00
0.000000000000e+00
0.000000000000e+00
0.000000000000e+00
0.000000000000e+00
0.000000000000e+00
0.000000000000e+00
0.000000000000e+00
0.000000000000e+00
0.000000000000e+00
0.000000000000e+00
0.000000000000e+00
0.000000000000e+00
0.000000000000e+00
0.000000000000e+00
0.000000000000e+00
0.000000000000e+00
0.000000000000e+00
0.000000000000e+00
0.000000000000e+00
0.000000000000e+00
0.000000000000e+00
0.000000000000e+00
0.000000000000e+00
0.000000000000e+00
0.000000000000e+00
0.000000000000e+00
0.000000000000e+00
0.000000000000e+00
0.000000000000e+00
0.000000000000e+00
0.000000000000e+00
0.000000000000e+00
2.575529312643e-05
2.607733635660e-05
2.607733635657e-05
2.575529312627e-05
2.607733635668e-05
2.639758934927e-05
2.639758934922e-05
2.607733635649e-05
2.607733635666e-05
2.639758934925e-05
2.639758934916e-05
2.607733635650e-05
2.575529312636e-05
2.607733635655e-05
2.607733635644e-05
2.575529312620e-05
1.821885144217e-05
1.844022593489e-05
1.844022593484e-05
1.821885144197e-05
1.844022593490e-05
1.865789929237e-05
1.865789929227e-05
1.844022593475e-05
1.844022593492e-05
1.865789929230e-05
1.865789929225e-05
1.844022593478e-05
1.821885144198e-05
1.844022593479e-05
1.844022593475e-05
1.821885144183e-05
1.084846936854e-05
1.104286779485e-05
1.104286779482e-05
1.084846936841e-05
1.104286779487e-05
1.123654491015e-05
1.123654491015e-05
1.104286779479e-05
1.104286779484e-05
1.123654491016e-05
1.123654491007e-05
1.104286779471e-05
1.084846936844e-05
1.104286779477e-05
1.104286779467e-05
1.084846936829e-05
4.083416172795e-06
4.044209549491e-06
4.044209549485e-06
4.083416172674e-06
4.044209549515e-06
3.980002258652e-06
3.980002258672e-06
4.044209549470e-06
4.044209549432e-06
3.980002258744e-06
3.980002258613e-06
4.044209549367e-06
4.083416172710e-06
4.044209549455e-06
4.044209549354e-06
4.083416172594e-06
SCALARS von_mises float 1
LOOKUP_TABLE default
0.000000000000e+00
0.000000000000e+00
0.000000000000e+00
0.000000000000e+00
0.000000000000e+00
0.000000000000e+00
0.000000000000e+00
0.000000000000e+00
0.000000000000e+00
0.000000000000e+00
0.000000000000e+00
0.000000000000e+00
0.000000000000e+00
0.000000000000e+00
0.000000000000e+00
0.000000000000e+00
0.000000000000e+00
0.000000000000e+00
0.000000000000e+00
0.000000000000e+00
0.000000000000e+00
0.000000000000e+00
0.000000000000e+00
0.000000000000e+00
0.000000000000e+00
0.000000000000e+00
0.000000000000e+00
0.000000000000e+00
0.000000000000e+00
0.000000000000e+00
0.000000000000e+00
0.000000000000e+00
0.000000000000e+00
0.000000000000e+00
0.000000000000e+00
0.000000000000e+00
0.000000000000e+00
0.000000000000e+00
0.000000000000e+00
0.000000000000e+00
0.000000000000e+00
0.000000000000e+00
0.000000000000e+00
0.000000000000e+00
0.000000000000e+00
0.000000000000e+00
0.000000000000e+00
0.000000000000e+00
0.000000000000e+00
0.000000000000e+00
0.000000000000e+00
0.000000000000e+00
0.000000000000e+00
0.000000000000e+00
0.000000000000e+00
0.000000000000e+00
0.000000000000e+00
0.000000000000e+00
0.000000000000e+00
0.000000000000e+00
0.000000000000e+00
0.000000000000e+00
0.000000000000e+00
0.000000000000e+00
2.360502616989e+00
2.391909694091e+00
2.391909694088e+00
2.360502616975e+00
2.391909694098e+00
2.422913534120e+00
2.422913534115e+00
2.391909694081e+00
2.391909694096e+00
2.422913534118e+00
2.422913534110e+00
2.391909694083e+00
2.360502616982e+00
2.391909694086e+00
2.391909694077e+00
2.360502616968e+00
1.677375769951e+00
1.697980988119e+00
1.697980988114e+00
1.677375769932e+00
1.697980988120e+00
1.717937629335e+00
1.717937629327e+00
1.697980988107e+00
1.697980988121e+00
1.717937629329e+00
1.717937629325e+00
1.697980988109e+00
1.677375769933e+00
1.697980988110e+00
1.697980988106e+00
1.677375769920e+00
9.997846264673e-01
1.019179107715e+00
1.019179107712e+00
9.997846264546e-01
1.019179107716e+00
1.038531291967e+00
1.038531291967e+00
1.019179107709e+00
1.019179107714e+00
1.038531291969e+00
1.038531291961e+00
1.019179107702e+00
9.997846264580e-01
1.019179107708e+00
1.019179107699e+00
9.997846264437e-01
3.799952369110e-01
3.762506680518e-01
3.762506680507e-01
3.799952368997e-01
3.762506680541e-01
3.702104220347e-01
3.702104220366e-01
3.762506680491e-01
3.762506680462e-01
3.702104220428e-01
3.702104220312e-01
3.762506680400e-01
3.799952369029e-01
3.762506680484e-01
3.762506680388e-01
3.799952368922e-01
SCALARS sdf_gap float 1
LOOKUP_TABLE default
0.000000000000e+00
0.000000000000e+00
0.000000000000e+00
0.000000000000e+00
0.000000000000e+00
0.000000000000e+00
0.000000000000e+00
0.000000000000e+00
0.000000000000e+00
0.000000000000e+00
0.000000000000e+00
0.000000000000e+00
0.000000000000e+00
0.000000000000e+00
0.000000000000e+00
0.000000000000e+00
0.000000000000e+00
0.000000000000e+00
0.000000000000e+00
0.000000000000e+00
0.000000000000e+00
0.000000000000e+00
0.000000000000e+00
0.000000000000e+00
0.000000000000e+00
0.000000000000e+00
0.000000000000e+00
0.000000000000e+00
0.000000000000e+00
0.000000000000e+00
0.000000000000e+00
0.000000000000e+00
0.000000000000e+00
0.000000000000e+00
0.000000000000e+00
0.000000000000e+00
0.000000000000e+00
0.000000000000e+00
0.000000000000e+00
0.000000000000e+00
0.000000000000e+00
0.000000000000e+00
0.000000000000e+00
0.000000000000e+00
0.000000000000e+00
0.000000000000e+00
0.000000000000e+00
0.000000000000e+00
0.000000000000e+00
0.000000000000e+00
0.000000000000e+00
0.000000000000e+00
0.000000000000e+00
0.000000000000e+00
0.000000000000e+00
0.000000000000e+00
0.000000000000e+00
0.000000000000e+00
0.000000000000e+00
0.000000000000e+00
0.000000000000e+00
0.000000000000e+00
0.000000000000e+00
0.000000000000e+00
-5.685808339557e-05
-5.730948546357e-05
-5.730948546349e-05
-5.685808339533e-05
-5.730948546359e-05
-5.775680922652e-05
-5.775680922645e-05
-5.730948546338e-05
-5.730948546356e-05
-5.775680922649e-05
-5.775680922644e-05
-5.730948546336e-05
-5.685808339546e-05
-5.730948546345e-05
-5.730948546338e-05
-5.685808339523e-05
0.000000000000e+00
0.000000000000e+00
0.000000000000e+00
0.000000000000e+00
0.000000000000e+00
0.000000000000e+00
0.000000000000e+00
0.000000000000e+00
0.000000000000e+00
0.000000000000e+00
0.000000000000e+00
0.000000000000e+00
0.000000000000e+00
0.000000000000e+00
0.000000000000e+00
0.000000000000e+00
0.000000000000e+00
0.000000000000e+00
0.000000000000e+00
0.000000000000e+00
0.000000000000e+00
0.000000000000e+00
0.000000000000e+00
0.000000000000e+00
0.000000000000e+00
0.000000000000e+00
0.000000000000e+00
0.000000000000e+00
0.000000000000e+00
0.000000000000e+00
0.000000000000e+00
0.000000000000e+00
0.000000000000e+00
0.000000000000e+00
0.000000000000e+00
0.000000000000e+00
0.000000000000e+00
0.000000000000e+00
0.000000000000e+00
0.000000000000e+00
0.000000000000e+00
0.000000000000e+00
0.000000000000e+00
0.000000000000e+00
0.000000000000e+00
0.000000000000e+00
0.000000000000e+00
0.000000000000e+00
SCALARS contact_pressure float 1
LOOKUP_TABLE default
0.000000000000e+00
0.000000000000e+00
0.000000000000e+00
0.000000000000e+00
0.000000000000e+00
0.000000000000e+00
0.000000000000e+00
0.000000000000e+00
0.000000000000e+00
0.000000000000e+00
0.000000000000e+00
0.000000000000e+00
0.000000000000e+00
0.000000000000e+00
0.000000000000e+00
0.000000000000e+00
0.000000000000e+00
0.000000000000e+00
0.000000000000e+00
0.000000000000e+00
0.000000000000e+00
0.000000000000e+00
0.000000000000e+00
0.000000000000e+00
0.000000000000e+00
0.000000000000e+00
0.000000000000e+00
0.000000000000e+00
0.000000000000e+00
0.000000000000e+00
0.000000000000e+00
0.000000000000e+00
0.000000000000e+00
0.000000000000e+00
0.000000000000e+00
0.000000000000e+00
0.000000000000e+00
0.000000000000e+00
0.000000000000e+00
0.000000000000e+00
0.000000000000e+00
0.000000000000e+00
0.000000000000e+00
0.000000000000e+00
0.000000000000e+00
0.000000000000e+00
0.000000000000e+00
0.000000000000e+00
0.000000000000e+00
0.000000000000e+00
0.000000000000e+00
0.000000000000e+00
0.000000000000e+00
0.000000000000e+00
0.000000000000e+00
0.000000000000e+00
0.000000000000e+00
0.000000000000e+00
0.000000000000e+00
0.000000000000e+00
0.000000000000e+00
0.000000000000e+00
0.000000000000e+00
0.000000000000e+00
2.842904169778e+00
2.865474273178e+00
2.865474273175e+00
2.842904169766e+00
2.865474273180e+00
2.887840461326e+00
2.887840461323e+00
2.865474273169e+00
2.865474273178e+00
2.887840461324e+00
2.887840461322e+00
2.865474273168e+00
2.842904169773e+00
2.865474273172e+00
2.865474273169e+00
2.842904169761e+00
0.000000000000e+00
0.000000000000e+00
0.000000000000e+00
0.000000000000e+00
0.000000000000e+00
0.000000000000e+00
0.000000000000e+00
0.000000000000e+00
0.000000000000e+00
0.000000000000e+00
0.000000000000e+00
0.000000000000e+00
0.000000000000e+00
0.000000000000e+00
0.000000000000e+00
0.000000000000e+00
0.000000000000e+00
0.000000000000e+00
0.000000000000e+00
0.000000000000e+00
0.000000000000e+00
0.000000000000e+00
0.000000000000e+00
0.000000000000e+00
0.000000000000e+00
0.000000000000e+00
0.000000000000e+00
0.000000000000e+00
0.000000000000e+00
0.000000000000e+00
0.000000000000e+00
0.000000000000e+00
0.000000000000e+00
0.000000000000e+00
0.000000000000e+00
0.000000000000e+00
0.000000000000e+00
0.000000000000e+00
0.000000000000e+00
0.000000000000e+00
0.000000000000e+00
0.000000000000e+00
0.000000000000e+00
0.000000000000e+00
0.000000000000e+00
0.000000000000e+00
0.000000000000e+00
0.000000000000e+00
SCALARS active_contact float 1
LOOKUP_TABLE default
0.000000000000e+00
0.000000000000e+00
0.000000000000e+00
0.000000000000e+00
0.000000000000e+00
0.000000000000e+00
0.000000000000e+00
0.000000000000e+00
0.000000000000e+00
0.000000000000e+00
0.000000000000e+00
0.000000000000e+00
0.000000000000e+00
0.000000000000e+00
0.000000000000e+00
0.000000000000e+00
0.000000000000e+00
0.000000000000e+00
0.000000000000e+00
0.000000000000e+00
0.000000000000e+00
0.000000000000e+00
0.000000000000e+00
0.000000000000e+00
0.000000000000e+00
0.000000000000e+00
0.000000000000e+00
0.000000000000e+00
0.000000000000e+00
0.000000000000e+00
0.000000000000e+00
0.000000000000e+00
0.000000000000e+00
0.000000000000e+00
0.000000000000e+00
0.000000000000e+00
0.000000000000e+00
0.000000000000e+00
0.000000000000e+00
0.000000000000e+00
0.000000000000e+00
0.000000000000e+00
0.000000000000e+00
0.000000000000e+00
0.000000000000e+00
0.000000000000e+00
0.000000000000e+00
0.000000000000e+00
0.000000000000e+00
0.000000000000e+00
0.000000000000e+00
0.000000000000e+00
0.000000000000e+00
0.000000000000e+00
0.000000000000e+00
0.000000000000e+00
0.000000000000e+00
0.000000000000e+00
0.000000000000e+00
0.000000000000e+00
0.000000000000e+00
0.000000000000e+00
0.000000000000e+00
0.000000000000e+00
1.000000000000e+00
1.000000000000e+00
1.000000000000e+00
1.000000000000e+00
1.000000000000e+00
1.000000000000e+00
1.000000000000e+00
1.000000000000e+00
1.000000000000e+00
1.000000000000e+00
1.000000000000e+00
1.000000000000e+00
1.000000000000e+00
1.000000000000e+00
1.000000000000e+00
1.000000000000e+00
0.000000000000e+00
0.000000000000e+00
0.000000000000e+00
0.000000000000e+00
0.000000000000e+00
0.000000000000e+00
0.000000000000e+00
0.000000000000e+00
0.000000000000e+00
0.000000000000e+00
0.000000000000e+00
0.000000000000e+00
0.000000000000e+00
0.000000000000e+00
0.000000000000e+00
0.000000000000e+00
0.000000000000e+00
0.000000000000e+00
0.000000000000e+00
0.000000000000e+00
0.000000000000e+00
0.000000000000e+00
0.000000000000e+00
0.000000000000e+00
0.000000000000e+00
0.000000000000e+00
0.000000000000e+00
0.000000000000e+00
0.000000000000e+00
0.000000000000e+00
0.000000000000e+00
0.000000000000e+00
0.000000000000e+00
0.000000000000e+00
0.000000000000e+00
0.000000000000e+00
0.000000000000e+00
0.000000000000e+00
0.000000000000e+00
0.000000000000e+00
0.000000000000e+00
0.000000000000e+00
0.000000000000e+00
0.000000000000e+00
0.000000000000e+00
0.000000000000e+00
0.000000000000e+00
0.000000000000e+00
