# vtk DataFile Version 3.0
SFC long-time C3D8 dynamic frame 25 t=5.000000000000e-01
ASCII
DATASET UNSTRUCTURED_GRID
POINTS 250 float
-2.500000000000e-01 -2.500000000000e-01 0.000000000000e+00
-1.250000000000e-01 -2.500000000000e-01 0.000000000000e+00
0.000000000000e+00 -2.500000000000e-01 0.000000000000e+00
1.250000000000e-01 -2.500000000000e-01 0.000000000000e+00
2.500000000000e-01 -2.500000000000e-01 0.000000000000e+00
-2.500000000000e-01 -1.250000000000e-01 0.000000000000e+00
-1.250000000000e-01 -1.250000000000e-01 0.000000000000e+00
0.000000000000e+00 -1.250000000000e-01 0.000000000000e+00
1.250000000000e-01 -1.250000000000e-01 0.000000000000e+00
2.500000000000e-01 -1.250000000000e-01 0.000000000000e+00
-2.500000000000e-01 0.000000000000e+00 0.000000000000e+00
-1.250000000000e-01 0.000000000000e+00 0.000000000000e+00
0.000000000000e+00 0.000000000000e+00 0.000000000000e+00
1.250000000000e-01 0.000000000000e+00 0.000000000000e+00
2.500000000000e-01 0.000000000000e+00 0.000000000000e+00
-2.500000000000e-01 1.250000000000e-01 0.000000000000e+00
-1.250000000000e-01 1.250000000000e-01 0.000000000000e+00
0.000000000000e+00 1.250000000000e-01 0.000000000000e+00
1.250000000000e-01 1.250000000000e-01 0.000000000000e+00
2.500000000000e-01 1.250000000000e-01 0.000000000000e+00
-2.500000000000e-01 2.500000000000e-01 0.000000000000e+00
-1.250000000000e-01 2.500000000000e-01 0.000000000000e+00
0.000000000000e+00 2.500000000000e-01 0.000000000000e+00
1.250000000000e-01 2.500000000000e-01 0.000000000000e+00
2.500000000000e-01 2.500000000000e-01 0.000000000000e+00
-2.500000000000e-01 -2.500000000000e-01 6.000000000000e-02
-1.250000000000e-01 -2.500000000000e-01 6.000000000000e-02
0.000000000000e+00 -2.500000000000e-01 6.000000000000e-02
1.250000000000e-01 -2.500000000000e-01 6.000000000000e-02
2.500000000000e-01 -2.500000000000e-01 6.000000000000e-02
-2.500000000000e-01 -1.250000000000e-01 6.000000000000e-02
-1.250000000000e-01 -1.250000000000e-01 6.000000000000e-02
0.000000000000e+00 -1.250000000000e-01 6.000000000000e-02
1.250000000000e-01 -1.250000000000e-01 6.000000000000e-02
2.500000000000e-01 -1.250000000000e-01 6.000000000000e-02
-2.500000000000e-01 0.000000000000e+00 6.000000000000e-02
-1.250000000000e-01 0.000000000000e+00 6.000000000000e-02
0.000000000000e+00 0.000000000000e+00 6.000000000000e-02
1.250000000000e-01 0.000000000000e+00 6.000000000000e-02
2.500000000000e-01 0.000000000000e+00 6.000000000000e-02
-2.500000000000e-01 1.250000000000e-01 6.000000000000e-02
-1.250000000000e-01 1.250000000000e-01 6.000000000000e-02
0.000000000000e+00 1.250000000000e-01 6.000000000000e-02
1.250000000000e-01 1.250000000000e-01 6.000000000000e-02
2.500000000000e-01 1.250000000000e-01 6.000000000000e-02
-2.500000000000e-01 2.500000000000e-01 6.000000000000e-02
-1.250000000000e-01 2.500000000000e-01 6.000000000000e-02
0.000000000000e+00 2.500000000000e-01 6.000000000000e-02
1.250000000000e-01 2.500000000000e-01 6.000000000000e-02
2.500000000000e-01 2.500000000000e-01 6.000000000000e-02
-2.500000000000e-01 -2.500000000000e-01 1.200000000000e-01
-1.250000000000e-01 -2.500000000000e-01 1.200000000000e-01
0.000000000000e+00 -2.500000000000e-01 1.200000000000e-01
1.250000000000e-01 -2.500000000000e-01 1.200000000000e-01
2.500000000000e-01 -2.500000000000e-01 1.200000000000e-01
-2.500000000000e-01 -1.250000000000e-01 1.200000000000e-01
-1.250000000000e-01 -1.250000000000e-01 1.200000000000e-01
0.000000000000e+00 -1.250000000000e-01 1.200000000000e-01
1.250000000000e-01 -1.250000000000e-01 1.200000000000e-01
2.500000000000e-01 -1.250000000000e-01 1.200000000000e-01
-2.500000000000e-01 0.000000000000e+00 1.200000000000e-01
-1.250000000000e-01 0.000000000000e+00 1.200000000000e-01
0.000000000000e+00 0.000000000000e+00 1.200000000000e-01
1.250000000000e-01 0.000000000000e+00 1.200000000000e-01
2.500000000000e-01 0.000000000000e+00 1.200000000000e-01
-2.500000000000e-01 1.250000000000e-01 1.200000000000e-01
-1.250000000000e-01 1.250000000000e-01 1.200000000000e-01
0.000000000000e+00 1.250000000000e-01 1.200000000000e-01
1.250000000000e-01 1.250000000000e-01 1.200000000000e-01
2.500000000000e-01 1.250000000000e-01 1.200000000000e-01
-2.500000000000e-01 2.500000000000e-01 1.200000000000e-01
-1.250000000000e-01 2.500000000000e-01 1.200000000000e-01
0.000000000000e+00 2.500000000000e-01 1.200000000000e-01
1.250000000000e-01 2.500000000000e-01 1.200000000000e-01
2.500000000000e-01 2.500000000000e-01 1.200000000000e-01
-2.500000000000e-01 -2.500000000000e-01 1.800000000000e-01
-1.250000000000e-01 -2.500000000000e-01 1.800000000000e-01
0.000000000000e+00 -2.500000000000e-01 1.800000000000e-01
1.250000000000e-01 -2.500000000000e-01 1.800000000000e-01
2.500000000000e-01 -2.500000000000e-01 1.800000000000e-01
-2.500000000000e-01 -1.250000000000e-01 1.800000000000e-01
-1.250000000000e-01 -1.250000000000e-01 1.800000000000e-01
0.000000000000e+00 -1.250000000000e-01 1.800000000000e-01
1.250000000000e-01 -1.250000000000e-01 1.800000000000e-01
2.500000000000e-01 -1.250000000000e-01 1.800000000000e-01
-2.500000000000e-01 0.000000000000e+00 1.800000000000e-01
-1.250000000000e-01 0.000000000000e+00 1.800000000000e-01
0.000000000000e+00 0.000000000000e+00 1.800000000000e-01
1.250000000000e-01 0.000000000000e+00 1.800000000000e-01
2.500000000000e-01 0.000000000000e+00 1.800000000000e-01
-2.500000000000e-01 1.250000000000e-01 1.800000000000e-01
-1.250000000000e-01 1.250000000000e-01 1.800000000000e-01
0.000000000000e+00 1.250000000000e-01 1.800000000000e-01
1.250000000000e-01 1.250000000000e-01 1.800000000000e-01
2.500000000000e-01 1.250000000000e-01 1.800000000000e-01
-2.500000000000e-01 2.500000000000e-01 1.800000000000e-01
-1.250000000000e-01 2.500000000000e-01 1.800000000000e-01
0.000000000000e+00 2.500000000000e-01 1.800000000000e-01
1.250000000000e-01 2.500000000000e-01 1.800000000000e-01
2.500000000000e-01 2.500000000000e-01 1.800000000000e-01
-2.500000000000e-01 -2.500000000000e-01 2.400000000000e-01
-1.250000000000e-01 -2.500000000000e-01 2.400000000000e-01
0.000000000000e+00 -2.500000000000e-01 2.400000000000e-01
1.250000000000e-01 -2.500000000000e-01 2.400000000000e-01
2.500000000000e-01 -2.500000000000e-01 2.400000000000e-01
-2.500000000000e-01 -1.250000000000e-01 2.400000000000e-01
-1.250000000000e-01 -1.250000000000e-01 2.400000000000e-01
0.000000000000e+00 -1.250000000000e-01 2.400000000000e-01
1.250000000000e-01 -1.250000000000e-01 2.400000000000e-01
2.500000000000e-01 -1.250000000000e-01 2.400000000000e-01
-2.500000000000e-01 0.000000000000e+00 2.400000000000e-01
-1.250000000000e-01 0.000000000000e+00 2.400000000000e-01
0.000000000000e+00 0.000000000000e+00 2.400000000000e-01
1.250000000000e-01 0.000000000000e+00 2.400000000000e-01
2.500000000000e-01 0.000000000000e+00 2.400000000000e-01
-2.500000000000e-01 1.250000000000e-01 2.400000000000e-01
-1.250000000000e-01 1.250000000000e-01 2.400000000000e-01
0.000000000000e+00 1.250000000000e-01 2.400000000000e-01
1.250000000000e-01 1.250000000000e-01 2.400000000000e-01
2.500000000000e-01 1.250000000000e-01 2.400000000000e-01
-2.500000000000e-01 2.500000000000e-01 2.400000000000e-01
-1.250000000000e-01 2.500000000000e-01 2.400000000000e-01
0.000000000000e+00 2.500000000000e-01 2.400000000000e-01
1.250000000000e-01 2.500000000000e-01 2.400000000000e-01
2.500000000000e-01 2.500000000000e-01 2.400000000000e-01
-2.499999999998e-01 -2.500000000000e-01 2.477470444208e-01
-1.249999999998e-01 -2.500000000000e-01 2.477470444209e-01
1.673651963273e-13 -2.500000000000e-01 2.477470444211e-01
1.250000000002e-01 -2.500000000000e-01 2.477470444213e-01
2.500000000002e-01 -2.500000000000e-01 2.477470444214e-01
-2.499999999998e-01 -1.250000000000e-01 2.477470444208e-01
-1.249999999998e-01 -1.250000000000e-01 2.477470444210e-01
1.726402587644e-13 -1.250000000000e-01 2.477470444211e-01
1.250000000002e-01 -1.250000000000e-01 2.477470444213e-01
2.500000000002e-01 -1.250000000000e-01 2.477470444214e-01
-2.499999999998e-01 1.664825054057e-14 2.477470444209e-01
-1.249999999998e-01 1.137018010571e-14 2.477470444210e-01
1.779155178427e-13 6.093962318671e-15 2.477470444212e-01
1.250000000002e-01 8.183838811267e-16 2.477470444213e-01
2.500000000002e-01 -4.456653365747e-15 2.477470444215e-01
-2.499999999998e-01 1.250000000000e-01 2.477470444209e-01
-1.249999999998e-01 1.250000000000e-01 2.477470444211e-01
1.831926626895e-13 1.250000000000e-01 2.477470444212e-01
1.250000000002e-01 1.250000000000e-01 2.477470444214e-01
2.500000000002e-01 1.250000000000e-01 2.477470444215e-01
-2.499999999998e-01 2.500000000000e-01 2.477470444209e-01
-1.249999999998e-01 2.500000000000e-01 2.477470444211e-01
1.884696531140e-13 2.500000000000e-01 2.477470444213e-01
1.250000000002e-01 2.500000000000e-01 2.477470444214e-01
2.500000000002e-01 2.500000000000e-01 2.477470444216e-01
-2.499999999999e-01 -2.500000000000e-01 3.127470444208e-01
-1.249999999999e-01 -2.500000000000e-01 3.127470444209e-01
8.827336836407e-14 -2.500000000000e-01 3.127470444211e-01
1.250000000001e-01 -2.500000000000e-01 3.127470444213e-01
2.500000000001e-01 -2.500000000000e-01 3.127470444214e-01
-2.499999999999e-01 -1.250000000000e-01 3.127470444208e-01
-1.249999999999e-01 -1.250000000000e-01 3.127470444210e-01
9.354832806481e-14 -1.250000000000e-01 3.127470444211e-01
1.250000000001e-01 -1.250000000000e-01 3.127470444213e-01
2.500000000001e-01 -1.250000000000e-01 3.127470444214e-01
-2.499999999999e-01 -2.858578168161e-15 3.127470444209e-01
-1.249999999999e-01 -8.135517673358e-15 3.127470444210e-01
9.882359884005e-14 -1.341204826515e-14 3.127470444212e-01
1.250000000001e-01 -1.868833429508e-14 3.127470444213e-01
2.500000000001e-01 -2.396507613138e-14 3.127470444215e-01
-2.499999999999e-01 1.250000000000e-01 3.127470444209e-01
-1.249999999999e-01 1.250000000000e-01 3.127470444211e-01
1.040998998336e-13 1.250000000000e-01 3.127470444212e-01
1.250000000001e-01 1.250000000000e-01 3.127470444214e-01
2.500000000001e-01 1.250000000000e-01 3.127470444215e-01
-2.499999999999e-01 2.500000000000e-01 3.127470444209e-01
-1.249999999999e-01 2.500000000000e-01 3.127470444211e-01
1.093780070874e-13 2.500000000000e-01 3.127470444213e-01
1.250000000001e-01 2.500000000000e-01 3.127470444214e-01
2.500000000001e-01 2.500000000000e-01 3.127470444216e-01
-2.500000000000e-01 -2.500000000000e-01 3.777470444208e-01
-1.250000000000e-01 -2.500000000000e-01 3.777470444209e-01
9.181978511288e-15 -2.500000000000e-01 3.777470444211e-01
1.250000000000e-01 -2.500000000000e-01 3.777470444213e-01
2.500000000000e-01 -2.500000000000e-01 3.777470444214e-01
-2.500000000000e-01 -1.250000000000e-01 3.777470444208e-01
-1.250000000000e-01 -1.250000000000e-01 3.777470444210e-01
1.445794309609e-14 -1.250000000000e-01 3.777470444211e-01
1.250000000000e-01 -1.250000000000e-01 3.777470444213e-01
2.500000000000e-01 -1.250000000000e-01 3.777470444214e-01
-2.500000000000e-01 -2.236554332855e-14 3.777470444209e-01
-1.250000000000e-01 -2.764239376662e-14 3.777470444210e-01
1.973225050428e-14 -3.291860977957e-14 3.777470444212e-01
1.250000000000e-01 -3.819558688036e-14 3.777470444213e-01
2.500000000000e-01 -4.347085518795e-14 3.777470444215e-01
-2.500000000000e-01 1.250000000000e-01 3.777470444209e-01
-1.250000000000e-01 1.250000000000e-01 3.777470444211e-01
2.500863991081e-14 1.250000000000e-01 3.777470444212e-01
1.250000000000e-01 1.250000000000e-01 3.777470444214e-01
2.500000000000e-01 1.250000000000e-01 3.777470444215e-01
-2.500000000000e-01 2.500000000000e-01 3.777470444209e-01
-1.250000000000e-01 2.500000000000e-01 3.777470444211e-01
3.028478527490e-14 2.500000000000e-01 3.777470444213e-01
1.250000000000e-01 2.500000000000e-01 3.777470444214e-01
2.500000000000e-01 2.500000000000e-01 3.777470444216e-01
-2.500000000001e-01 -2.500000000000e-01 4.427470444208e-01
-1.250000000001e-01 -2.500000000000e-01 4.427470444209e-01
-6.990943813665e-14 -2.500000000001e-01 4.427470444211e-01
1.249999999999e-01 -2.500000000001e-01 4.427470444213e-01
2.499999999999e-01 -2.500000000001e-01 4.427470444214e-01
-2.500000000001e-01 -1.250000000000e-01 4.427470444208e-01
-1.250000000001e-01 -1.250000000000e-01 4.427470444210e-01
-6.463359903440e-14 -1.250000000001e-01 4.427470444211e-01
1.249999999999e-01 -1.250000000001e-01 4.427470444213e-01
2.499999999999e-01 -1.250000000001e-01 4.427470444214e-01
-2.500000000001e-01 -4.187289672341e-14 4.427470444209e-01
-1.250000000001e-01 -4.714876512468e-14 4.427470444210e-01
-5.935867549849e-14 -5.242543368782e-14 4.427470444212e-01
1.249999999999e-01 -5.770059269772e-14 4.427470444213e-01
2.499999999999e-01 -6.297651687732e-14 4.427470444215e-01
-2.500000000001e-01 1.250000000000e-01 4.427470444209e-01
-1.250000000001e-01 1.250000000000e-01 4.427470444211e-01
-5.408206078974e-14 1.249999999999e-01 4.427470444212e-01
1.249999999999e-01 1.249999999999e-01 4.427470444214e-01
2.499999999999e-01 1.249999999999e-01 4.427470444215e-01
-2.500000000000e-01 2.500000000000e-01 4.427470444209e-01
-1.250000000000e-01 2.500000000000e-01 4.427470444211e-01
-4.880668243142e-14 2.499999999999e-01 4.427470444213e-01
1.250000000000e-01 2.499999999999e-01 4.427470444214e-01
2.500000000000e-01 2.499999999999e-01 4.427470444216e-01
-2.500000000001e-01 -2.500000000001e-01 5.077470444208e-01
-1.250000000001e-01 -2.500000000001e-01 5.077470444209e-01
-1.490023742839e-13 -2.500000000001e-01 5.077470444211e-01
1.249999999999e-01 -2.500000000001e-01 5.077470444213e-01
2.499999999999e-01 -2.500000000001e-01 5.077470444214e-01
-2.500000000001e-01 -1.250000000001e-01 5.077470444208e-01
-1.250000000001e-01 -1.250000000001e-01 5.077470444210e-01
-1.437281528287e-13 -1.250000000001e-01 5.077470444211e-01
1.249999999999e-01 -1.250000000001e-01 5.077470444213e-01
2.499999999999e-01 -1.250000000001e-01 5.077470444214e-01
-2.500000000001e-01 -6.138008559549e-14 5.077470444209e-01
-1.250000000001e-01 -6.665612142254e-14 5.077470444210e-01
-1.384497484096e-13 -7.193186474461e-14 5.077470444212e-01
1.249999999999e-01 -7.720778624462e-14 5.077470444213e-01
2.499999999999e-01 -8.248175192287e-14 5.077470444215e-01
-2.500000000001e-01 1.249999999999e-01 5.077470444209e-01
-1.250000000001e-01 1.249999999999e-01 5.077470444211e-01
-1.331742378028e-13 1.249999999999e-01 5.077470444212e-01
1.249999999999e-01 1.249999999999e-01 5.077470444214e-01
2.499999999999e-01 1.249999999999e-01 5.077470444215e-01
-2.500000000001e-01 2.499999999999e-01 5.077470444209e-01
-1.250000000001e-01 2.499999999999e-01 5.077470444211e-01
-1.278975847176e-13 2.499999999999e-01 5.077470444213e-01
1.249999999999e-01 2.499999999999e-01 5.077470444214e-01
2.499999999999e-01 2.499999999999e-01 5.077470444216e-01
CELLS 128 1152
8 0 1 6 5 25 26 31 30
8 1 2 7 6 26 27 32 31
8 2 3 8 7 27 28 33 32
8 3 4 9 8 28 29 34 33
8 5 6 11 10 30 31 36 35
8 6 7 12 11 31 32 37 36
8 7 8 13 12 32 33 38 37
8 8 9 14 13 33 34 39 38
8 10 11 16 15 35 36 41 40
8 11 12 17 16 36 37 42 41
8 12 13 18 17 37 38 43 42
8 13 14 19 18 38 39 44 43
8 15 16 21 20 40 41 46 45
8 16 17 22 21 41 42 47 46
8 17 18 23 22 42 43 48 47
8 18 19 24 23 43 44 49 48
8 25 26 31 30 50 51 56 55
8 26 27 32 31 51 52 57 56
8 27 28 33 32 52 53 58 57
8 28 29 34 33 53 54 59 58
8 30 31 36 35 55 56 61 60
8 31 32 37 36 56 57 62 61
8 32 33 38 37 57 58 63 62
8 33 34 39 38 58 59 64 63
8 35 36 41 40 60 61 66 65
8 36 37 42 41 61 62 67 66
8 37 38 43 42 62 63 68 67
8 38 39 44 43 63 64 69 68
8 40 41 46 45 65 66 71 70
8 41 42 47 46 66 67 72 71
8 42 43 48 47 67 68 73 72
8 43 44 49 48 68 69 74 73
8 50 51 56 55 75 76 81 80
8 51 52 57 56 76 77 82 81
8 52 53 58 57 77 78 83 82
8 53 54 59 58 78 79 84 83
8 55 56 61 60 80 81 86 85
8 56 57 62 61 81 82 87 86
8 57 58 63 62 82 83 88 87
8 58 59 64 63 83 84 89 88
8 60 61 66 65 85 86 91 90
8 61 62 67 66 86 87 92 91
8 62 63 68 67 87 88 93 92
8 63 64 69 68 88 89 94 93
8 65 66 71 70 90 91 96 95
8 66 67 72 71 91 92 97 96
8 67 68 73 72 92 93 98 97
8 68 69 74 73 93 94 99 98
8 75 76 81 80 100 101 106 105
8 76 77 82 81 101 102 107 106
8 77 78 83 82 102 103 108 107
8 78 79 84 83 103 104 109 108
8 80 81 86 85 105 106 111 110
8 81 82 87 86 106 107 112 111
8 82 83 88 87 107 108 113 112
8 83 84 89 88 108 109 114 113
8 85 86 91 90 110 111 116 115
8 86 87 92 91 111 112 117 116
8 87 88 93 92 112 113 118 117
8 88 89 94 93 113 114 119 118
8 90 91 96 95 115 116 121 120
8 91 92 97 96 116 117 122 121
8 92 93 98 97 117 118 123 122
8 93 94 99 98 118 119 124 123
8 125 126 131 130 150 151 156 155
8 126 127 132 131 151 152 157 156
8 127 128 133 132 152 153 158 157
8 128 129 134 133 153 154 159 158
8 130 131 136 135 155 156 161 160
8 131 132 137 136 156 157 162 161
8 132 133 138 137 157 158 163 162
8 133 134 139 138 158 159 164 163
8 135 136 141 140 160 161 166 165
8 136 137 142 141 161 162 167 166
8 137 138 143 142 162 163 168 167
8 138 139 144 143 163 164 169 168
8 140 141 146 145 165 166 171 170
8 141 142 147 146 166 167 172 171
8 142 143 148 147 167 168 173 172
8 143 144 149 148 168 169 174 173
8 150 151 156 155 175 176 181 180
8 151 152 157 156 176 177 182 181
8 152 153 158 157 177 178 183 182
8 153 154 159 158 178 179 184 183
8 155 156 161 160 180 181 186 185
8 156 157 162 161 181 182 187 186
8 157 158 163 162 182 183 188 187
8 158 159 164 163 183 184 189 188
8 160 161 166 165 185 186 191 190
8 161 162 167 166 186 187 192 191
8 162 163 168 167 187 188 193 192
8 163 164 169 168 188 189 194 193
8 165 166 171 170 190 191 196 195
8 166 167 172 171 191 192 197 196
8 167 168 173 172 192 193 198 197
8 168 169 174 173 193 194 199 198
8 175 176 181 180 200 201 206 205
8 176 177 182 181 201 202 207 206
8 177 178 183 182 202 203 208 207
8 178 179 184 183 203 204 209 208
8 180 181 186 185 205 206 211 210
8 181 182 187 186 206 207 212 211
8 182 183 188 187 207 208 213 212
8 183 184 189 188 208 209 214 213
8 185 186 191 190 210 211 216 215
8 186 187 192 191 211 212 217 216
8 187 188 193 192 212 213 218 217
8 188 189 194 193 213 214 219 218
8 190 191 196 195 215 216 221 220
8 191 192 197 196 216 217 222 221
8 192 193 198 197 217 218 223 222
8 193 194 199 198 218 219 224 223
8 200 201 206 205 225 226 231 230
8 201 202 207 206 226 227 232 231
8 202 203 208 207 227 228 233 232
8 203 204 209 208 228 229 234 233
8 205 206 211 210 230 231 236 235
8 206 207 212 211 231 232 237 236
8 207 208 213 212 232 233 238 237
8 208 209 214 213 233 234 239 238
8 210 211 216 215 235 236 241 240
8 211 212 217 216 236 237 242 241
8 212 213 218 217 237 238 243 242
8 213 214 219 218 238 239 244 243
8 215 216 221 220 240 241 246 245
8 216 217 222 221 241 242 247 246
8 217 218 223 222 242 243 248 247
8 218 219 224 223 243 244 249 248
CELL_TYPES 128
12
12
12
12
12
12
12
12
12
12
12
12
12
12
12
12
12
12
12
12
12
12
12
12
12
12
12
12
12
12
12
12
12
12
12
12
12
12
12
12
12
12
12
12
12
12
12
12
12
12
12
12
12
12
12
12
12
12
12
12
12
12
12
12
12
12
12
12
12
12
12
12
12
12
12
12
12
12
12
12
12
12
12
12
12
12
12
12
12
12
12
12
12
12
12
12
12
12
12
12
12
12
12
12
12
12
12
12
12
12
12
12
12
12
12
12
12
12
12
12
12
12
12
12
12
12
12
12
POINT_DATA 250
VECTORS displacement float
0.000000000000e+00 0.000000000000e+00 0.000000000000e+00
0.000000000000e+00 0.000000000000e+00 0.000000000000e+00
0.000000000000e+00 0.000000000000e+00 0.000000000000e+00
0.000000000000e+00 0.000000000000e+00 0.000000000000e+00
0.000000000000e+00 0.000000000000e+00 0.000000000000e+00
0.000000000000e+00 0.000000000000e+00 0.000000000000e+00
0.000000000000e+00 0.000000000000e+00 0.000000000000e+00
0.000000000000e+00 0.000000000000e+00 0.000000000000e+00
0.000000000000e+00 0.000000000000e+00 0.000000000000e+00
0.000000000000e+00 0.000000000000e+00 0.000000000000e+00
0.000000000000e+00 0.000000000000e+00 0.000000000000e+00
0.000000000000e+00 0.000000000000e+00 0.000000000000e+00
0.000000000000e+00 0.000000000000e+00 0.000000000000e+00
0.000000000000e+00 0.000000000000e+00 0.000000000000e+00
0.000000000000e+00 0.000000000000e+00 0.000000000000e+00
0.000000000000e+00 0.000000000000e+00 0.000000000000e+00
0.000000000000e+00 0.000000000000e+00 0.000000000000e+00
0.000000000000e+00 0.000000000000e+00 0.000000000000e+00
0.000000000000e+00 0.000000000000e+00 0.000000000000e+00
0.000000000000e+00 0.000000000000e+00 0.000000000000e+00
0.000000000000e+00 0.000000000000e+00 0.000000000000e+00
0.000000000000e+00 0.000000000000e+00 0.000000000000e+00
0.000000000000e+00 0.000000000000e+00 0.000000000000e+00
0.000000000000e+00 0.000000000000e+00 0.000000000000e+00
0.000000000000e+00 0.000000000000e+00 0.000000000000e+00
0.000000000000e+00 0.000000000000e+00 0.000000000000e+00
0.000000000000e+00 0.000000000000e+00 0.000000000000e+00
0.000000000000e+00 0.000000000000e+00 0.000000000000e+00
0.000000000000e+00 0.000000000000e+00 0.000000000000e+00
0.000000000000e+00 0.000000000000e+00 0.000000000000e+00
0.000000000000e+00 0.000000000000e+00 0.000000000000e+00
0.000000000000e+00 0.000000000000e+00 0.000000000000e+00
0.000000000000e+00 0.000000000000e+00 0.000000000000e+00
0.000000000000e+00 0.000000000000e+00 0.000000000000e+00
0.000000000000e+00 0.000000000000e+00 0.000000000000e+00
0.000000000000e+00 0.000000000000e+00 0.000000000000e+00
0.000000000000e+00 0.000000000000e+00 0.000000000000e+00
0.000000000000e+00 0.000000000000e+00 0.000000000000e+00
0.000000000000e+00 0.000000000000e+00 0.000000000000e+00
0.000000000000e+00 0.000000000000e+00 0.000000000000e+00
0.000000000000e+00 0.000000000000e+00 0.000000000000e+00
0.000000000000e+00 0.000000000000e+00 0.000000000000e+00
0.000000000000e+00 0.000000000000e+00 0.000000000000e+00
0.000000000000e+00 0.000000000000e+00 0.000000000000e+00
0.000000000000e+00 0.000000000000e+00 0.000000000000e+00
0.000000000000e+00 0.000000000000e+00 0.000000000000e+00
0.000000000000e+00 0.000000000000e+00 0.000000000000e+00
0.000000000000e+00 0.000000000000e+00 0.000000000000e+00
0.000000000000e+00 0.000000000000e+00 0.000000000000e+00
0.000000000000e+00 0.000000000000e+00 0.000000000000e+00
0.000000000000e+00 0.000000000000e+00 0.000000000000e+00
0.000000000000e+00 0.000000000000e+00 0.000000000000e+00
0.000000000000e+00 0.000000000000e+00 0.000000000000e+00
0.000000000000e+00 0.000000000000e+00 0.000000000000e+00
0.000000000000e+00 0.000000000000e+00 0.000000000000e+00
0.000000000000e+00 0.000000000000e+00 0.000000000000e+00
0.000000000000e+00 0.000000000000e+00 0.000000000000e+00
0.000000000000e+00 0.000000000000e+00 0.000000000000e+00
0.000000000000e+00 0.000000000000e+00 0.000000000000e+00
0.000000000000e+00 0.000000000000e+00 0.000000000000e+00
0.000000000000e+00 0.000000000000e+00 0.000000000000e+00
0.000000000000e+00 0.000000000000e+00 0.000000000000e+00
0.000000000000e+00 0.000000000000e+00 0.000000000000e+00
0.000000000000e+00 0.000000000000e+00 0.000000000000e+00
0.000000000000e+00 0.000000000000e+00 0.000000000000e+00
0.000000000000e+00 0.000000000000e+00 0.000000000000e+00
0.000000000000e+00 0.000000000000e+00 0.000000000000e+00
0.000000000000e+00 0.000000000000e+00 0.000000000000e+00
0.000000000000e+00 0.000000000000e+00 0.000000000000e+00
0.000000000000e+00 0.000000000000e+00 0.000000000000e+00
0.000000000000e+00 0.000000000000e+00 0.000000000000e+00
0.000000000000e+00 0.000000000000e+00 0.000000000000e+00
0.000000000000e+00 0.000000000000e+00 0.000000000000e+00
0.000000000000e+00 0.000000000000e+00 0.000000000000e+00
0.000000000000e+00 0.000000000000e+00 0.000000000000e+00
0.000000000000e+00 0.000000000000e+00 0.000000000000e+00
0.000000000000e+00 0.000000000000e+00 0.000000000000e+00
0.000000000000e+00 0.000000000000e+00 0.000000000000e+00
0.000000000000e+00 0.000000000000e+00 0.000000000000e+00
0.000000000000e+00 0.000000000000e+00 0.000000000000e+00
0.000000000000e+00 0.000000000000e+00 0.000000000000e+00
0.000000000000e+00 0.000000000000e+00 0.000000000000e+00
0.000000000000e+00 0.000000000000e+00 0.000000000000e+00
0.000000000000e+00 0.000000000000e+00 0.000000000000e+00
0.000000000000e+00 0.000000000000e+00 0.000000000000e+00
0.000000000000e+00 0.000000000000e+00 0.000000000000e+00
0.000000000000e+00 0.000000000000e+00 0.000000000000e+00
0.000000000000e+00 0.000000000000e+00 0.000000000000e+00
0.000000000000e+00 0.000000000000e+00 0.000000000000e+00
0.000000000000e+00 0.000000000000e+00 0.000000000000e+00
0.000000000000e+00 0.000000000000e+00 0.000000000000e+00
0.000000000000e+00 0.000000000000e+00 0.000000000000e+00
0.000000000000e+00 0.000000000000e+00 0.000000000000e+00
0.000000000000e+00 0.000000000000e+00 0.000000000000e+00
0.000000000000e+00 0.000000000000e+00 0.000000000000e+00
0.000000000000e+00 0.000000000000e+00 0.000000000000e+00
0.000000000000e+00 0.000000000000e+00 0.000000000000e+00
0.000000000000e+00 0.000000000000e+00 0.000000000000e+00
0.000000000000e+00 0.000000000000e+00 0.000000000000e+00
0.000000000000e+00 0.000000000000e+00 0.000000000000e+00
0.000000000000e+00 0.000000000000e+00 0.000000000000e+00
0.000000000000e+00 0.000000000000e+00 0.000000000000e+00
0.000000000000e+00 0.000000000000e+00 0.000000000000e+00
0.000000000000e+00 0.000000000000e+00 0.000000000000e+00
0.000000000000e+00 0.000000000000e+00 0.000000000000e+00
0.000000000000e+00 0.000000000000e+00 0.000000000000e+00
0.000000000000e+00 0.000000000000e+00 0.000000000000e+00
0.000000000000e+00 0.000000000000e+00 0.000000000000e+00
0.000000000000e+00 0.000000000000e+00 0.000000000000e+00
0.000000000000e+00 0.000000000000e+00 0.000000000000e+00
0.000000000000e+00 0.000000000000e+00 0.000000000000e+00
0.000000000000e+00 0.000000000000e+00 0.000000000000e+00
0.000000000000e+00 0.000000000000e+00 0.000000000000e+00
0.000000000000e+00 0.000000000000e+00 0.000000000000e+00
0.000000000000e+00 0.000000000000e+00 0.000000000000e+00
0.000000000000e+00 0.000000000000e+00 0.000000000000e+00
0.000000000000e+00 0.000000000000e+00 0.000000000000e+00
0.000000000000e+00 0.000000000000e+00 0.000000000000e+00
0.000000000000e+00 0.000000000000e+00 0.000000000000e+00
0.000000000000e+00 0.000000000000e+00 0.000000000000e+00
0.000000000000e+00 0.000000000000e+00 0.000000000000e+00
0.000000000000e+00 0.000000000000e+00 0.000000000000e+00
0.000000000000e+00 0.000000000000e+00 0.000000000000e+00
0.000000000000e+00 0.000000000000e+00 0.000000000000e+00
0.000000000000e+00 0.000000000000e+00 0.000000000000e+00
1.673659684647e-13 1.665137552533e-14 -7.252955579202e-03
1.673644002130e-13 1.137231444759e-14 -7.252955579050e-03
1.673651963273e-13 6.094990254202e-15 -7.252955578898e-03
1.673666912429e-13 8.157506300463e-16 -7.252955578746e-03
1.673693204450e-13 -4.461697497157e-15 -7.252955578594e-03
1.726356044846e-13 1.664848471852e-14 -7.252955579165e-03
1.726396597551e-13 1.137118540608e-14 -7.252955579013e-03
1.726402587644e-13 6.092573575116e-15 -7.252955578861e-03
1.726391918693e-13 8.163477475134e-16 -7.252955578709e-03
1.726370338939e-13 -4.461138648217e-15 -7.252955578557e-03
1.779162465047e-13 1.664825054057e-14 -7.252955579127e-03
1.779146264141e-13 1.137018010571e-14 -7.252955578975e-03
1.779155178427e-13 6.093962318671e-15 -7.252955578823e-03
1.779143171624e-13 8.183838811267e-16 -7.252955578671e-03
1.779122082331e-13 -4.456653365747e-15 -7.252955578519e-03
1.831903981814e-13 1.664869983454e-14 -7.252955579090e-03
1.831921835956e-13 1.137292488239e-14 -7.252955578938e-03
1.831926626895e-13 6.098381616630e-15 -7.252955578786e-03
1.831913959082e-13 8.222520637380e-16 -7.252955578634e-03
1.831902726679e-13 -4.455679844199e-15 -7.252955578481e-03
1.884697300941e-13 1.664956275856e-14 -7.252955579052e-03
1.884703265737e-13 1.137567530381e-14 -7.252955578900e-03
1.884696531140e-13 6.098576534710e-15 -7.252955578748e-03
1.884689904960e-13 8.242628326815e-16 -7.252955578596e-03
1.884708321412e-13 -4.455811656342e-15 -7.252955578444e-03
8.827148594592e-14 -2.860479038326e-15 -7.252955579202e-03
8.827061278200e-14 -8.137117802061e-15 -7.252955579050e-03
8.827336836407e-14 -1.341147538898e-14 -7.252955578898e-03
8.827485882478e-14 -1.869007108026e-14 -7.252955578746e-03
8.827374351039e-14 -2.396361626338e-14 -7.252955578594e-03
9.354605468513e-14 -2.860582260860e-15 -7.252955579165e-03
9.354821800069e-14 -8.135999131507e-15 -7.252955579013e-03
9.354832806481e-14 -1.341308872701e-14 -7.252955578861e-03
9.354954938838e-14 -1.868905614698e-14 -7.252955578709e-03
9.354912489368e-14 -2.396382104703e-14 -7.252955578556e-03
9.882432266355e-14 -2.858578168161e-15 -7.252955579127e-03
9.882371283996e-14 -8.135517673358e-15 -7.252955578975e-03
9.882359884005e-14 -1.341204826515e-14 -7.252955578823e-03
9.882417553339e-14 -1.868833429508e-14 -7.252955578671e-03
9.882451379703e-14 -2.396507613138e-14 -7.252955578519e-03
1.041004215482e-13 -2.857337946322e-15 -7.252955579090e-03
1.041009639041e-13 -8.134001198927e-15 -7.252955578938e-03
1.040998998336e-13 -1.341045150693e-14 -7.252955578786e-03
1.040992112251e-13 -1.868646907279e-14 -7.252955578634e-03
1.041008068509e-13 -2.396433059735e-14 -7.252955578481e-03
1.093776179314e-13 -2.856861531112e-15 -7.252955579052e-03
1.093773446615e-13 -8.132216035477e-15 -7.252955578900e-03
1.093780070874e-13 -1.340893517597e-14 -7.252955578748e-03
1.093769064918e-13 -1.868282930720e-14 -7.252955578596e-03
1.093768213655e-13 -2.396421147614e-14 -7.252955578444e-03
9.180841347116e-15 -2.236934211029e-14 -7.252955579202e-03
9.180117898482e-15 -2.764452398947e-14 -7.252955579050e-03
9.181978511288e-15 -3.292064981000e-14 -7.252955578898e-03
9.183893262701e-15 -3.819431129667e-14 -7.252955578746e-03
9.183572321991e-15 -4.346768577213e-14 -7.252955578594e-03
1.445504894837e-14 -2.236771792930e-14 -7.252955579165e-03
1.445584458844e-14 -2.764247130335e-14 -7.252955579013e-03
1.445794309609e-14 -3.291796282302e-14 -7.252955578861e-03
1.445829707062e-14 -3.819533629396e-14 -7.252955578709e-03
1.445694900945e-14 -4.346841713816e-14 -7.252955578556e-03
1.973300730777e-14 -2.236554332855e-14 -7.252955579127e-03
1.973337628257e-14 -2.764239376662e-14 -7.252955578975e-03
1.973225050428e-14 -3.291860977957e-14 -7.252955578823e-03
1.973295550951e-14 -3.819558688036e-14 -7.252955578671e-03
1.973300673916e-14 -4.347085518795e-14 -7.252955578519e-03
2.501059803787e-14 -2.236451044150e-14 -7.252955579090e-03
2.500945605607e-14 -2.764023361273e-14 -7.252955578938e-03
2.500863991081e-14 -3.291798647874e-14 -7.252955578786e-03
2.500815747288e-14 -3.819322054722e-14 -7.252955578634e-03
2.500943987375e-14 -4.347282357379e-14 -7.252955578481e-03
3.028745909023e-14 -2.236405064419e-14 -7.252955579052e-03
3.028606341557e-14 -2.764062985642e-14 -7.252955578900e-03
3.028478527490e-14 -3.291582174020e-14 -7.252955578748e-03
3.028489829320e-14 -3.819447176418e-14 -7.252955578596e-03
3.028478931602e-14 -4.346982229534e-14 -7.252955578444e-03
-6.991038577353e-14 -4.187412341058e-14 -7.252955579202e-03
-6.991166686205e-14 -4.715192357694e-14 -7.252955579050e-03
-6.990943813665e-14 -5.242482618403e-14 -7.252955578898e-03
-6.990768229872e-14 -5.770024289257e-14 -7.252955578746e-03
-6.990803902097e-14 -6.297149658043e-14 -7.252955578594e-03
-6.463630294059e-14 -4.187415891684e-14 -7.252955579165e-03
-6.463478746791e-14 -4.715123099937e-14 -7.252955579013e-03
-6.463359903440e-14 -5.242416233537e-14 -7.252955578861e-03
-6.463401182452e-14 -5.770085045766e-14 -7.252955578709e-03
-6.463430700152e-14 -6.297328657815e-14 -7.252955578556e-03
-5.935799692910e-14 -4.187289672341e-14 -7.252955579127e-03
-5.935794528719e-14 -4.714876512468e-14 -7.252955578975e-03
-5.935867549849e-14 -5.242543368782e-14 -7.252955578823e-03
-5.935843784236e-14 -5.770059269772e-14 -7.252955578671e-03
-5.935838855813e-14 -6.297651687732e-14 -7.252955578519e-03
-5.408043952393e-14 -4.187197916048e-14 -7.252955579090e-03
-5.408175533072e-14 -4.714871224484e-14 -7.252955578938e-03
-5.408206078974e-14 -5.242513594282e-14 -7.252955578786e-03
-5.408227580477e-14 -5.770259362792e-14 -7.252955578634e-03
-5.408159150488e-14 -6.297866657109e-14 -7.252955578481e-03
-4.880356215504e-14 -4.187212520635e-14 -7.252955579052e-03
-4.880447269065e-14 -4.715035276836e-14 -7.252955578900e-03
-4.880668243142e-14 -5.242522028122e-14 -7.252955578748e-03
-4.880638377523e-14 -5.770375653871e-14 -7.252955578596e-03
-4.880568172304e-14 -6.297795656473e-14 -7.252955578444e-03
-1.490061106686e-13 -6.138396577056e-14 -7.252955579202e-03
-1.490030207766e-13 -6.665721761259e-14 -7.252955579050e-03
-1.490023742839e-13 -7.193713230713e-14 -7.252955578898e-03
-1.490031847505e-13 -7.720369433033e-14 -7.252955578746e-03
-1.490022347799e-13 -8.247689017307e-14 -7.252955578594e-03
-1.437222685614e-13 -6.138099812676e-14 -7.252955579165e-03
-1.437261563570e-13 -6.665734738039e-14 -7.252955579013e-03
-1.437281528287e-13 -7.193312393646e-14 -7.252955578861e-03
-1.437266228775e-13 -7.720379309672e-14 -7.252955578709e-03
-1.437264637498e-13 -8.247933267059e-14 -7.252955578556e-03
-1.384518566741e-13 -6.138008559549e-14 -7.252955579127e-03
-1.384510047819e-13 -6.665612142254e-14 -7.252955578975e-03
-1.384497484096e-13 -7.193186474461e-14 -7.252955578823e-03
-1.384506454815e-13 -7.720778624462e-14 -7.252955578671e-03
-1.384523218789e-13 -8.248175192287e-14 -7.252955578519e-03
-1.331717905668e-13 -6.138003419957e-14 -7.252955579090e-03
-1.331734280491e-13 -6.665766396668e-14 -7.252955578938e-03
-1.331742378028e-13 -7.193334486142e-14 -7.252955578786e-03
-1.331730545537e-13 -7.721139483774e-14 -7.252955578634e-03
-1.331733509769e-13 -8.248519919468e-14 -7.252955578481e-03
-1.278992747241e-13 -6.137742135492e-14 -7.252955579052e-03
-1.278983852888e-13 -6.666174787366e-14 -7.252955578900e-03
-1.278975847176e-13 -7.193682006267e-14 -7.252955578748e-03
-1.278966034670e-13 -7.720862849818e-14 -7.252955578596e-03
-1.278941708810e-13 -8.248643837194e-14 -7.252955578444e-03
SCALARS displacement_magnitude float 1
LOOKUP_TABLE default
0.000000000000e+00
0.000000000000e+00
0.000000000000e+00
0.000000000000e+00
0.000000000000e+00
0.000000000000e+00
0.000000000000e+00
0.000000000000e+00
0.000000000000e+00
0.000000000000e+00
0.000000000000e+00
0.000000000000e+00
0.000000000000e+00
0.000000000000e+00
0.000000000000e+00
0.000000000000e+00
0.000000000000e+00
0.000000000000e+00
0.000000000000e+00
0.000000000000e+00
0.000000000000e+00
0.000000000000e+00
0.000000000000e+00
0.000000000000e+00
0.000000000000e+00
0.000000000000e+00
0.000000000000e+00
0.000000000000e+00
0.000000000000e+00
0.000000000000e+00
0.000000000000e+00
0.000000000000e+00
0.000000000000e+00
0.000000000000e+00
0.000000000000e+00
0.000000000000e+00
0.000000000000e+00
0.000000000000e+00
0.000000000000e+00
0.000000000000e+00
0.000000000000e+00
0.000000000000e+00
0.000000000000e+00
0.000000000000e+00
0.000000000000e+00
0.000000000000e+00
0.000000000000e+00
0.000000000000e+00
0.000000000000e+00
0.000000000000e+00
0.000000000000e+00
0.000000000000e+00
0.000000000000e+00
0.000000000000e+00
0.000000000000e+00
0.000000000000e+00
0.000000000000e+00
0.000000000000e+00
0.000000000000e+00
0.000000000000e+00
0.000000000000e+00
0.000000000000e+00
0.000000000000e+00
0.000000000000e+00
0.000000000000e+00
0.000000000000e+00
0.000000000000e+00
0.000000000000e+00
0.000000000000e+00
0.000000000000e+00
0.000000000000e+00
0.000000000000e+00
0.000000000000e+00
0.000000000000e+00
0.000000000000e+00
0.000000000000e+00
0.000000000000e+00
0.000000000000e+00
0.000000000000e+00
0.000000000000e+00
0.000000000000e+00
0.000000000000e+00
0.000000000000e+00
0.000000000000e+00
0.000000000000e+00
0.000000000000e+00
0.000000000000e+00
0.000000000000e+00
0.000000000000e+00
0.000000000000e+00
0.000000000000e+00
0.000000000000e+00
0.000000000000e+00
0.000000000000e+00
0.000000000000e+00
0.000000000000e+00
0.000000000000e+00
0.000000000000e+00
0.000000000000e+00
0.000000000000e+00
0.000000000000e+00
0.000000000000e+00
0.000000000000e+00
0.000000000000e+00
0.000000000000e+00
0.000000000000e+00
0.000000000000e+00
0.000000000000e+00
0.000000000000e+00
0.000000000000e+00
0.000000000000e+00
0.000000000000e+00
0.000000000000e+00
0.000000000000e+00
0.000000000000e+00
0.000000000000e+00
0.000000000000e+00
0.000000000000e+00
0.000000000000e+00
0.000000000000e+00
0.000000000000e+00
0.000000000000e+00
0.000000000000e+00
0.000000000000e+00
0.000000000000e+00
7.252955579202e-03
7.252955579050e-03
7.252955578898e-03
7.252955578746e-03
7.252955578594e-03
7.252955579165e-03
7.252955579013e-03
7.252955578861e-03
7.252955578709e-03
7.252955578557e-03
7.252955579127e-03
7.252955578975e-03
7.252955578823e-03
7.252955578671e-03
7.252955578519e-03
7.252955579090e-03
7.252955578938e-03
7.252955578786e-03
7.252955578634e-03
7.252955578481e-03
7.252955579052e-03
7.252955578900e-03
7.252955578748e-03
7.252955578596e-03
7.252955578444e-03
7.252955579202e-03
7.252955579050e-03
7.252955578898e-03
7.252955578746e-03
7.252955578594e-03
7.252955579165e-03
7.252955579013e-03
7.252955578861e-03
7.252955578709e-03
7.252955578556e-03
7.252955579127e-03
7.252955578975e-03
7.252955578823e-03
7.252955578671e-03
7.252955578519e-03
7.252955579090e-03
7.252955578938e-03
7.252955578786e-03
7.252955578634e-03
7.252955578481e-03
7.252955579052e-03
7.252955578900e-03
7.252955578748e-03
7.252955578596e-03
7.252955578444e-03
7.252955579202e-03
7.252955579050e-03
7.252955578898e-03
7.252955578746e-03
7.252955578594e-03
7.252955579165e-03
7.252955579013e-03
7.252955578861e-03
7.252955578709e-03
7.252955578556e-03
7.252955579127e-03
7.252955578975e-03
7.252955578823e-03
7.252955578671e-03
7.252955578519e-03
7.252955579090e-03
7.252955578938e-03
7.252955578786e-03
7.252955578634e-03
7.252955578481e-03
7.252955579052e-03
7.252955578900e-03
7.252955578748e-03
7.252955578596e-03
7.252955578444e-03
7.252955579202e-03
7.252955579050e-03
7.252955578898e-03
7.252955578746e-03
7.252955578594e-03
7.252955579165e-03
7.252955579013e-03
7.252955578861e-03
7.252955578709e-03
7.252955578556e-03
7.252955579127e-03
7.252955578975e-03
7.252955578823e-03
7.252955578671e-03
7.252955578519e-03
7.252955579090e-03
7.252955578938e-03
7.252955578786e-03
7.252955578634e-03
7.252955578481e-03
7.252955579052e-03
7.252955578900e-03
7.252955578748e-03
7.252955578596e-03
7.252955578444e-03
7.252955579202e-03
7.252955579050e-03
7.252955578898e-03
7.252955578746e-03
7.252955578594e-03
7.252955579165e-03
7.252955579013e-03
7.252955578861e-03
7.252955578709e-03
7.252955578556e-03
7.252955579127e-03
7.252955578975e-03
7.252955578823e-03
7.252955578671e-03
7.252955578519e-03
7.252955579090e-03
7.252955578938e-03
7.252955578786e-03
7.252955578634e-03
7.252955578481e-03
7.252955579052e-03
7.252955578900e-03
7.252955578748e-03
7.252955578596e-03
7.252955578444e-03
CELL_DATA 128
SCALARS displacement_magnitude float 1
LOOKUP_TABLE default
0.000000000000e+00
0.000000000000e+00
0.000000000000e+00
0.000000000000e+00
0.000000000000e+00
0.000000000000e+00
0.000000000000e+00
0.000000000000e+00
0.000000000000e+00
0.000000000000e+00
0.000000000000e+00
0.000000000000e+00
0.000000000000e+00
0.000000000000e+00
0.000000000000e+00
0.000000000000e+00
0.000000000000e+00
0.000000000000e+00
0.000000000000e+00
0.000000000000e+00
0.000000000000e+00
0.000000000000e+00
0.000000000000e+00
0.000000000000e+00
0.000000000000e+00
0.000000000000e+00
0.000000000000e+00
0.000000000000e+00
0.000000000000e+00
0.000000000000e+00
0.000000000000e+00
0.000000000000e+00
0.000000000000e+00
0.000000000000e+00
0.000000000000e+00
0.000000000000e+00
0.000000000000e+00
0.000000000000e+00
0.000000000000e+00
0.000000000000e+00
0.000000000000e+00
0.000000000000e+00
0.000000000000e+00
0.000000000000e+00
0.000000000000e+00
0.000000000000e+00
0.000000000000e+00
0.000000000000e+00
0.000000000000e+00
0.000000000000e+00
0.000000000000e+00
0.000000000000e+00
0.000000000000e+00
0.000000000000e+00
0.000000000000e+00
0.000000000000e+00
0.000000000000e+00
0.000000000000e+00
0.000000000000e+00
0.000000000000e+00
0.000000000000e+00
0.000000000000e+00
0.000000000000e+00
0.000000000000e+00
7.252955579108e-03
7.252955578956e-03
7.252955578803e-03
7.252955578651e-03
7.252955579070e-03
7.252955578918e-03
7.252955578766e-03
7.252955578614e-03
7.252955579033e-03
7.252955578880e-03
7.252955578728e-03
7.252955578576e-03
7.252955578995e-03
7.252955578843e-03
7.252955578691e-03
7.252955578539e-03
7.252955579108e-03
7.252955578956e-03
7.252955578803e-03
7.252955578651e-03
7.252955579070e-03
7.252955578918e-03
7.252955578766e-03
7.252955578614e-03
7.252955579033e-03
7.252955578880e-03
7.252955578728e-03
7.252955578576e-03
7.252955578995e-03
7.252955578843e-03
7.252955578691e-03
7.252955578539e-03
7.252955579108e-03
7.252955578956e-03
7.252955578803e-03
7.252955578651e-03
7.252955579070e-03
7.252955578918e-03
7.252955578766e-03
7.252955578614e-03
7.252955579033e-03
7.252955578880e-03
7.252955578728e-03
7.252955578576e-03
7.252955578995e-03
7.252955578843e-03
7.252955578691e-03
7.252955578539e-03
7.252955579108e-03
7.252955578956e-03
7.252955578803e-03
7.252955578651e-03
7.252955579070e-03
7.252955578918e-03
7.252955578766e-03
7.252955578614e-03
7.252955579033e-03
7.252955578880e-03
7.252955578728e-03
7.252955578576e-03
7.252955578995e-03
7.252955578843e-03
7.252955578691e-03
7.252955578539e-03
SCALARS engineering_strain_norm float 1
LOOKUP_TABLE default
0.000000000000e+00
0.000000000000e+00
0.000000000000e+00
0.000000000000e+00
0.000000000000e+00
0.000000000000e+00
0.000000000000e+00
0.000000000000e+00
0.000000000000e+00
0.000000000000e+00
0.000000000000e+00
0.000000000000e+00
0.000000000000e+00
0.000000000000e+00
0.000000000000e+00
0.000000000000e+00
0.000000000000e+00
0.000000000000e+00
0.000000000000e+00
0.000000000000e+00
0.000000000000e+00
0.000000000000e+00
0.000000000000e+00
0.000000000000e+00
0.000000000000e+00
0.000000000000e+00
0.000000000000e+00
0.000000000000e+00
0.000000000000e+00
0.000000000000e+00
0.000000000000e+00
0.000000000000e+00
0.000000000000e+00
0.000000000000e+00
0.000000000000e+00
0.000000000000e+00
0.000000000000e+00
0.000000000000e+00
0.000000000000e+00
0.000000000000e+00
0.000000000000e+00
0.000000000000e+00
0.000000000000e+00
0.000000000000e+00
0.000000000000e+00
0.000000000000e+00
0.000000000000e+00
0.000000000000e+00
0.000000000000e+00
0.000000000000e+00
0.000000000000e+00
0.000000000000e+00
0.000000000000e+00
0.000000000000e+00
0.000000000000e+00
0.000000000000e+00
0.000000000000e+00
0.000000000000e+00
0.000000000000e+00
0.000000000000e+00
0.000000000000e+00
0.000000000000e+00
0.000000000000e+00
0.000000000000e+00
3.402348357711e-17
4.932242560620e-17
4.883251692232e-17
4.531932862691e-17
2.171779396309e-17
2.746707172653e-17
5.035640654301e-17
2.831410658452e-17
1.751315877346e-17
2.802105581415e-17
3.952775147461e-17
4.534397295372e-17
4.150996226202e-17
3.884811625018e-17
3.152301165034e-17
3.259154557574e-17
2.278704343119e-17
8.273054623025e-17
2.839253834069e-17
6.393100014903e-17
3.825258134001e-17
3.640831701236e-17
4.401358381739e-17
3.919462151406e-17
3.347880429545e-17
3.296365797276e-17
5.074501900135e-17
4.343837677465e-17
1.413317770312e-17
5.387958578677e-17
3.317452359385e-17
4.401946864394e-17
3.124357858565e-17
5.449466193476e-17
4.626054063816e-17
5.691814051838e-17
3.215111726837e-17
3.937084402564e-17
3.889050413046e-17
3.234862510149e-17
3.298789808968e-17
4.348940239673e-17
2.868115958901e-17
4.778395792422e-17
2.352627982890e-17
4.388160500151e-17
3.623066160237e-17
1.499822647042e-17
3.486299507644e-17
3.727242435124e-17
5.041344136675e-17
3.321750607210e-17
3.458998123972e-17
5.475629266778e-17
6.067900236880e-17
4.409431881498e-17
1.795845993876e-17
4.116617412821e-17
2.347700146260e-17
5.609377387558e-17
3.726957103210e-17
5.070839454430e-17
2.164339614150e-17
2.066036586074e-17
SCALARS von_mises float 1
LOOKUP_TABLE default
0.000000000000e+00
0.000000000000e+00
0.000000000000e+00
0.000000000000e+00
0.000000000000e+00
0.000000000000e+00
0.000000000000e+00
0.000000000000e+00
0.000000000000e+00
0.000000000000e+00
0.000000000000e+00
0.000000000000e+00
0.000000000000e+00
0.000000000000e+00
0.000000000000e+00
0.000000000000e+00
0.000000000000e+00
0.000000000000e+00
0.000000000000e+00
0.000000000000e+00
0.000000000000e+00
0.000000000000e+00
0.000000000000e+00
0.000000000000e+00
0.000000000000e+00
0.000000000000e+00
0.000000000000e+00
0.000000000000e+00
0.000000000000e+00
0.000000000000e+00
0.000000000000e+00
0.000000000000e+00
0.000000000000e+00
0.000000000000e+00
0.000000000000e+00
0.000000000000e+00
0.000000000000e+00
0.000000000000e+00
0.000000000000e+00
0.000000000000e+00
0.000000000000e+00
0.000000000000e+00
0.000000000000e+00
0.000000000000e+00
0.000000000000e+00
0.000000000000e+00
0.000000000000e+00
0.000000000000e+00
0.000000000000e+00
0.000000000000e+00
0.000000000000e+00
0.000000000000e+00
0.000000000000e+00
0.000000000000e+00
0.000000000000e+00
0.000000000000e+00
0.000000000000e+00
0.000000000000e+00
0.000000000000e+00
0.000000000000e+00
0.000000000000e+00
0.000000000000e+00
0.000000000000e+00
0.000000000000e+00
2.387818704180e-12
3.378793820544e-12
3.314472764845e-12
3.134238826125e-12
1.795408385489e-12
2.039016232764e-12
3.828469206487e-12
2.204706871864e-12
1.247779042695e-12
2.015668217476e-12
3.130055327340e-12
3.585145028650e-12
3.578438817442e-12
2.806235408006e-12
2.372288468906e-12
2.890947202797e-12
1.691963187277e-12
6.394910447097e-12
2.209789510932e-12
4.494374806315e-12
3.347740453403e-12
2.701199010825e-12
3.185774219442e-12
3.071968039012e-12
2.765332044352e-12
2.556596530913e-12
4.095803501892e-12
3.160926672643e-12
1.107712475258e-12
3.721420402400e-12
2.804283033619e-12
3.785021902416e-12
2.149573363383e-12
3.892823625276e-12
3.073268532291e-12
4.189203103591e-12
2.691419044199e-12
2.699212619659e-12
2.603529354048e-12
2.302983384671e-12
2.644845014990e-12
2.977567562949e-12
1.920068715490e-12
3.349091669012e-12
1.737180509260e-12
3.020297415946e-12
2.461882951152e-12
1.266396309116e-12
2.759921682332e-12
3.199566147416e-12
3.784613087800e-12
2.220262937454e-12
2.804744946093e-12
3.740290146720e-12
4.043222840369e-12
3.041715507396e-12
1.309483917830e-12
2.771173374589e-12
1.664086813964e-12
4.340142696771e-12
2.788305348487e-12
4.246558652217e-12
1.510873287855e-12
1.216157635685e-12
SCALARS sdf_gap float 1
LOOKUP_TABLE default
0.000000000000e+00
0.000000000000e+00
0.000000000000e+00
0.000000000000e+00
0.000000000000e+00
0.000000000000e+00
0.000000000000e+00
0.000000000000e+00
0.000000000000e+00
0.000000000000e+00
0.000000000000e+00
0.000000000000e+00
0.000000000000e+00
0.000000000000e+00
0.000000000000e+00
0.000000000000e+00
0.000000000000e+00
0.000000000000e+00
0.000000000000e+00
0.000000000000e+00
0.000000000000e+00
0.000000000000e+00
0.000000000000e+00
0.000000000000e+00
0.000000000000e+00
0.000000000000e+00
0.000000000000e+00
0.000000000000e+00
0.000000000000e+00
0.000000000000e+00
0.000000000000e+00
0.000000000000e+00
0.000000000000e+00
0.000000000000e+00
0.000000000000e+00
0.000000000000e+00
0.000000000000e+00
0.000000000000e+00
0.000000000000e+00
0.000000000000e+00
0.000000000000e+00
0.000000000000e+00
0.000000000000e+00
0.000000000000e+00
0.000000000000e+00
0.000000000000e+00
0.000000000000e+00
0.000000000000e+00
0.000000000000e+00
0.000000000000e+00
0.000000000000e+00
0.000000000000e+00
0.000000000000e+00
0.000000000000e+00
0.000000000000e+00
0.000000000000e+00
0.000000000000e+00
0.000000000000e+00
0.000000000000e+00
0.000000000000e+00
0.000000000000e+00
0.000000000000e+00
0.000000000000e+00
0.000000000000e+00
7.747044420892e-03
7.747044421045e-03
7.747044421197e-03
7.747044421349e-03
7.747044420930e-03
7.747044421082e-03
7.747044421234e-03
7.747044421386e-03
7.747044420967e-03
7.747044421120e-03
7.747044421272e-03
7.747044421424e-03
7.747044421005e-03
7.747044421157e-03
7.747044421309e-03
7.747044421461e-03
0.000000000000e+00
0.000000000000e+00
0.000000000000e+00
0.000000000000e+00
0.000000000000e+00
0.000000000000e+00
0.000000000000e+00
0.000000000000e+00
0.000000000000e+00
0.000000000000e+00
0.000000000000e+00
0.000000000000e+00
0.000000000000e+00
0.000000000000e+00
0.000000000000e+00
0.000000000000e+00
0.000000000000e+00
0.000000000000e+00
0.000000000000e+00
0.000000000000e+00
0.000000000000e+00
0.000000000000e+00
0.000000000000e+00
0.000000000000e+00
0.000000000000e+00
0.000000000000e+00
0.000000000000e+00
0.000000000000e+00
0.000000000000e+00
0.000000000000e+00
0.000000000000e+00
0.000000000000e+00
0.000000000000e+00
0.000000000000e+00
0.000000000000e+00
0.000000000000e+00
0.000000000000e+00
0.000000000000e+00
0.000000000000e+00
0.000000000000e+00
0.000000000000e+00
0.000000000000e+00
0.000000000000e+00
0.000000000000e+00
0.000000000000e+00
0.000000000000e+00
0.000000000000e+00
0.000000000000e+00
SCALARS contact_pressure float 1
LOOKUP_TABLE default
0.000000000000e+00
0.000000000000e+00
0.000000000000e+00
0.000000000000e+00
0.000000000000e+00
0.000000000000e+00
0.000000000000e+00
0.000000000000e+00
0.000000000000e+00
0.000000000000e+00
0.000000000000e+00
0.000000000000e+00
0.000000000000e+00
0.000000000000e+00
0.000000000000e+00
0.000000000000e+00
0.000000000000e+00
0.000000000000e+00
0.000000000000e+00
0.000000000000e+00
0.000000000000e+00
0.000000000000e+00
0.000000000000e+00
0.000000000000e+00
0.000000000000e+00
0.000000000000e+00
0.000000000000e+00
0.000000000000e+00
0.000000000000e+00
0.000000000000e+00
0.000000000000e+00
0.000000000000e+00
0.000000000000e+00
0.000000000000e+00
0.000000000000e+00
0.000000000000e+00
0.000000000000e+00
0.000000000000e+00
0.000000000000e+00
0.000000000000e+00
0.000000000000e+00
0.000000000000e+00
0.000000000000e+00
0.000000000000e+00
0.000000000000e+00
0.000000000000e+00
0.000000000000e+00
0.000000000000e+00
0.000000000000e+00
0.000000000000e+00
0.000000000000e+00
0.000000000000e+00
0.000000000000e+00
0.000000000000e+00
0.000000000000e+00
0.000000000000e+00
0.000000000000e+00
0.000000000000e+00
0.000000000000e+00
0.000000000000e+00
0.000000000000e+00
0.000000000000e+00
0.000000000000e+00
0.000000000000e+00
0.000000000000e+00
0.000000000000e+00
0.000000000000e+00
0.000000000000e+00
0.000000000000e+00
0.000000000000e+00
0.000000000000e+00
0.000000000000e+00
0.000000000000e+00
0.000000000000e+00
0.000000000000e+00
0.000000000000e+00
0.000000000000e+00
0.000000000000e+00
0.000000000000e+00
0.000000000000e+00
0.000000000000e+00
0.000000000000e+00
0.000000000000e+00
0.000000000000e+00
0.000000000000e+00
0.000000000000e+00
0.000000000000e+00
0.000000000000e+00
0.000000000000e+00
0.000000000000e+00
0.000000000000e+00
0.000000000000e+00
0.000000000000e+00
0.000000000000e+00
0.000000000000e+00
0.000000000000e+00
0.000000000000e+00
0.000000000000e+00
0.000000000000e+00
0.000000000000e+00
0.000000000000e+00
0.000000000000e+00
0.000000000000e+00
0.000000000000e+00
0.000000000000e+00
0.000000000000e+00
0.000000000000e+00
0.000000000000e+00
0.000000000000e+00
0.000000000000e+00
0.000000000000e+00
0.000000000000e+00
0.000000000000e+00
0.000000000000e+00
0.000000000000e+00
0.000000000000e+00
0.000000000000e+00
0.000000000000e+00
0.000000000000e+00
0.000000000000e+00
0.000000000000e+00
0.000000000000e+00
0.000000000000e+00
0.000000000000e+00
0.000000000000e+00
0.000000000000e+00
0.000000000000e+00
0.000000000000e+00
SCALARS active_contact float 1
LOOKUP_TABLE default
0.000000000000e+00
0.000000000000e+00
0.000000000000e+00
0.000000000000e+00
0.000000000000e+00
0.000000000000e+00
0.000000000000e+00
0.000000000000e+00
0.000000000000e+00
0.000000000000e+00
0.000000000000e+00
0.000000000000e+00
0.000000000000e+00
0.000000000000e+00
0.000000000000e+00
0.000000000000e+00
0.000000000000e+00
0.000000000000e+00
0.000000000000e+00
0.000000000000e+00
0.000000000000e+00
0.000000000000e+00
0.000000000000e+00
0.000000000000e+00
0.000000000000e+00
0.000000000000e+00
0.000000000000e+00
0.000000000000e+00
0.000000000000e+00
0.000000000000e+00
0.000000000000e+00
0.000000000000e+00
0.000000000000e+00
0.000000000000e+00
0.000000000000e+00
0.000000000000e+00
0.000000000000e+00
0.000000000000e+00
0.000000000000e+00
0.000000000000e+00
0.000000000000e+00
0.000000000000e+00
0.000000000000e+00
0.000000000000e+00
0.000000000000e+00
0.000000000000e+00
0.000000000000e+00
0.000000000000e+00
0.000000000000e+00
0.000000000000e+00
0.000000000000e+00
0.000000000000e+00
0.000000000000e+00
0.000000000000e+00
0.000000000000e+00
0.000000000000e+00
0.000000000000e+00
0.000000000000e+00
0.000000000000e+00
0.000000000000e+00
0.000000000000e+00
0.000000000000e+00
0.000000000000e+00
0.000000000000e+00
0.000000000000e+00
0.000000000000e+00
0.000000000000e+00
0.000000000000e+00
0.000000000000e+00
0.000000000000e+00
0.000000000000e+00
0.000000000000e+00
0.000000000000e+00
0.000000000000e+00
0.000000000000e+00
0.000000000000e+00
0.000000000000e+00
0.000000000000e+00
0.000000000000e+00
0.000000000000e+00
0.000000000000e+00
0.000000000000e+00
0.000000000000e+00
0.000000000000e+00
0.000000000000e+00
0.000000000000e+00
0.000000000000e+00
0.000000000000e+00
0.000000000000e+00
0.000000000000e+00
0.000000000000e+00
0.000000000000e+00
0.000000000000e+00
0.000000000000e+00
0.000000000000e+00
0.000000000000e+00
0.000000000000e+00
0.000000000000e+00
0.000000000000e+00
0.000000000000e+00
0.000000000000e+00
0.000000000000e+00
0.000000000000e+00
0.000000000000e+00
0.000000000000e+00
0.000000000000e+00
0.000000000000e+00
0.000000000000e+00
0.000000000000e+00
0.000000000000e+00
0.000000000000e+00
0.000000000000e+00
0.000000000000e+00
0.000000000000e+00
0.000000000000e+00
0.000000000000e+00
0.000000000000e+00
0.000000000000e+00
0.000000000000e+00
0.000000000000e+00
0.000000000000e+00
0.000000000000e+00
0.000000000000e+00
0.000000000000e+00
0.000000000000e+00
0.000000000000e+00
0.000000000000e+00
0.000000000000e+00
