# vtk DataFile Version 3.0
SFC long-time C3D8 dynamic frame 78 t=1.560000000000e+00
ASCII
DATASET UNSTRUCTURED_GRID
POINTS 250 float
-2.500000000000e-01 -2.500000000000e-01 0.000000000000e+00
-1.250000000000e-01 -2.500000000000e-01 0.000000000000e+00
0.000000000000e+00 -2.500000000000e-01 0.000000000000e+00
1.250000000000e-01 -2.500000000000e-01 0.000000000000e+00
2.500000000000e-01 -2.500000000000e-01 0.000000000000e+00
-2.500000000000e-01 -1.250000000000e-01 0.000000000000e+00
-1.250000000000e-01 -1.250000000000e-01 0.000000000000e+00
0.000000000000e+00 -1.250000000000e-01 0.000000000000e+00
1.250000000000e-01 -1.250000000000e-01 0.000000000000e+00
2.500000000000e-01 -1.250000000000e-01 0.000000000000e+00
-2.500000000000e-01 0.000000000000e+00 0.000000000000e+00
-1.250000000000e-01 0.000000000000e+00 0.000000000000e+00
0.000000000000e+00 0.000000000000e+00 0.000000000000e+00
1.250000000000e-01 0.000000000000e+00 0.000000000000e+00
2.500000000000e-01 0.000000000000e+00 0.000000000000e+00
-2.500000000000e-01 1.250000000000e-01 0.000000000000e+00
-1.250000000000e-01 1.250000000000e-01 0.000000000000e+00
0.000000000000e+00 1.250000000000e-01 0.000000000000e+00
1.250000000000e-01 1.250000000000e-01 0.000000000000e+00
2.500000000000e-01 1.250000000000e-01 0.000000000000e+00
-2.500000000000e-01 2.500000000000e-01 0.000000000000e+00
-1.250000000000e-01 2.500000000000e-01 0.000000000000e+00
0.000000000000e+00 2.500000000000e-01 0.000000000000e+00
1.250000000000e-01 2.500000000000e-01 0.000000000000e+00
2.500000000000e-01 2.500000000000e-01 0.000000000000e+00
-2.500000000000e-01 -2.500000000000e-01 6.000000000000e-02
-1.250000000000e-01 -2.500000000000e-01 6.000000000000e-02
0.000000000000e+00 -2.500000000000e-01 6.000000000000e-02
1.250000000000e-01 -2.500000000000e-01 6.000000000000e-02
2.500000000000e-01 -2.500000000000e-01 6.000000000000e-02
-2.500000000000e-01 -1.250000000000e-01 6.000000000000e-02
-1.250000000000e-01 -1.250000000000e-01 6.000000000000e-02
0.000000000000e+00 -1.250000000000e-01 6.000000000000e-02
1.250000000000e-01 -1.250000000000e-01 6.000000000000e-02
2.500000000000e-01 -1.250000000000e-01 6.000000000000e-02
-2.500000000000e-01 0.000000000000e+00 6.000000000000e-02
-1.250000000000e-01 0.000000000000e+00 6.000000000000e-02
0.000000000000e+00 0.000000000000e+00 6.000000000000e-02
1.250000000000e-01 0.000000000000e+00 6.000000000000e-02
2.500000000000e-01 0.000000000000e+00 6.000000000000e-02
-2.500000000000e-01 1.250000000000e-01 6.000000000000e-02
-1.250000000000e-01 1.250000000000e-01 6.000000000000e-02
0.000000000000e+00 1.250000000000e-01 6.000000000000e-02
1.250000000000e-01 1.250000000000e-01 6.000000000000e-02
2.500000000000e-01 1.250000000000e-01 6.000000000000e-02
-2.500000000000e-01 2.500000000000e-01 6.000000000000e-02
-1.250000000000e-01 2.500000000000e-01 6.000000000000e-02
0.000000000000e+00 2.500000000000e-01 6.000000000000e-02
1.250000000000e-01 2.500000000000e-01 6.000000000000e-02
2.500000000000e-01 2.500000000000e-01 6.000000000000e-02
-2.500000000000e-01 -2.500000000000e-01 1.200000000000e-01
-1.250000000000e-01 -2.500000000000e-01 1.200000000000e-01
0.000000000000e+00 -2.500000000000e-01 1.200000000000e-01
1.250000000000e-01 -2.500000000000e-01 1.200000000000e-01
2.500000000000e-01 -2.500000000000e-01 1.200000000000e-01
-2.500000000000e-01 -1.250000000000e-01 1.200000000000e-01
-1.250000000000e-01 -1.250000000000e-01 1.200000000000e-01
0.000000000000e+00 -1.250000000000e-01 1.200000000000e-01
1.250000000000e-01 -1.250000000000e-01 1.200000000000e-01
2.500000000000e-01 -1.250000000000e-01 1.200000000000e-01
-2.500000000000e-01 0.000000000000e+00 1.200000000000e-01
-1.250000000000e-01 0.000000000000e+00 1.200000000000e-01
0.000000000000e+00 0.000000000000e+00 1.200000000000e-01
1.250000000000e-01 0.000000000000e+00 1.200000000000e-01
2.500000000000e-01 0.000000000000e+00 1.200000000000e-01
-2.500000000000e-01 1.250000000000e-01 1.200000000000e-01
-1.250000000000e-01 1.250000000000e-01 1.200000000000e-01
0.000000000000e+00 1.250000000000e-01 1.200000000000e-01
1.250000000000e-01 1.250000000000e-01 1.200000000000e-01
2.500000000000e-01 1.250000000000e-01 1.200000000000e-01
-2.500000000000e-01 2.500000000000e-01 1.200000000000e-01
-1.250000000000e-01 2.500000000000e-01 1.200000000000e-01
0.000000000000e+00 2.500000000000e-01 1.200000000000e-01
1.250000000000e-01 2.500000000000e-01 1.200000000000e-01
2.500000000000e-01 2.500000000000e-01 1.200000000000e-01
-2.500000000000e-01 -2.500000000000e-01 1.800000000000e-01
-1.250000000000e-01 -2.500000000000e-01 1.800000000000e-01
0.000000000000e+00 -2.500000000000e-01 1.800000000000e-01
1.250000000000e-01 -2.500000000000e-01 1.800000000000e-01
2.500000000000e-01 -2.500000000000e-01 1.800000000000e-01
-2.500000000000e-01 -1.250000000000e-01 1.800000000000e-01
-1.250000000000e-01 -1.250000000000e-01 1.800000000000e-01
0.000000000000e+00 -1.250000000000e-01 1.800000000000e-01
1.250000000000e-01 -1.250000000000e-01 1.800000000000e-01
2.500000000000e-01 -1.250000000000e-01 1.800000000000e-01
-2.500000000000e-01 0.000000000000e+00 1.800000000000e-01
-1.250000000000e-01 0.000000000000e+00 1.800000000000e-01
0.000000000000e+00 0.000000000000e+00 1.800000000000e-01
1.250000000000e-01 0.000000000000e+00 1.800000000000e-01
2.500000000000e-01 0.000000000000e+00 1.800000000000e-01
-2.500000000000e-01 1.250000000000e-01 1.800000000000e-01
-1.250000000000e-01 1.250000000000e-01 1.800000000000e-01
0.000000000000e+00 1.250000000000e-01 1.800000000000e-01
1.250000000000e-01 1.250000000000e-01 1.800000000000e-01
2.500000000000e-01 1.250000000000e-01 1.800000000000e-01
-2.500000000000e-01 2.500000000000e-01 1.800000000000e-01
-1.250000000000e-01 2.500000000000e-01 1.800000000000e-01
0.000000000000e+00 2.500000000000e-01 1.800000000000e-01
1.250000000000e-01 2.500000000000e-01 1.800000000000e-01
2.500000000000e-01 2.500000000000e-01 1.800000000000e-01
-2.500000000000e-01 -2.500000000000e-01 2.400000000000e-01
-1.250000000000e-01 -2.500000000000e-01 2.400000000000e-01
0.000000000000e+00 -2.500000000000e-01 2.400000000000e-01
1.250000000000e-01 -2.500000000000e-01 2.400000000000e-01
2.500000000000e-01 -2.500000000000e-01 2.400000000000e-01
-2.500000000000e-01 -1.250000000000e-01 2.400000000000e-01
-1.250000000000e-01 -1.250000000000e-01 2.400000000000e-01
0.000000000000e+00 -1.250000000000e-01 2.400000000000e-01
1.250000000000e-01 -1.250000000000e-01 2.400000000000e-01
2.500000000000e-01 -1.250000000000e-01 2.400000000000e-01
-2.500000000000e-01 0.000000000000e+00 2.400000000000e-01
-1.250000000000e-01 0.000000000000e+00 2.400000000000e-01
0.000000000000e+00 0.000000000000e+00 2.400000000000e-01
1.250000000000e-01 0.000000000000e+00 2.400000000000e-01
2.500000000000e-01 0.000000000000e+00 2.400000000000e-01
-2.500000000000e-01 1.250000000000e-01 2.400000000000e-01
-1.250000000000e-01 1.250000000000e-01 2.400000000000e-01
0.000000000000e+00 1.250000000000e-01 2.400000000000e-01
1.250000000000e-01 1.250000000000e-01 2.400000000000e-01
2.500000000000e-01 1.250000000000e-01 2.400000000000e-01
-2.500000000000e-01 2.500000000000e-01 2.400000000000e-01
-1.250000000000e-01 2.500000000000e-01 2.400000000000e-01
0.000000000000e+00 2.500000000000e-01 2.400000000000e-01
1.250000000000e-01 2.500000000000e-01 2.400000000000e-01
2.500000000000e-01 2.500000000000e-01 2.400000000000e-01
-2.499999802311e-01 -2.499999803161e-01 2.491472023107e-01
-1.249999879811e-01 -2.499999802941e-01 2.491472039667e-01
1.323676440802e-10 -2.499999803503e-01 2.491472035066e-01
1.249999882459e-01 -2.499999802942e-01 2.491472042206e-01
2.499999804958e-01 -2.499999803163e-01 2.491472028186e-01
-2.499999802090e-01 -1.249999880662e-01 2.491472038858e-01
-1.249999877876e-01 -1.249999878727e-01 2.491472059782e-01
1.324079859485e-10 -1.249999876622e-01 2.491472057860e-01
1.249999880524e-01 -1.249999878728e-01 2.491472062322e-01
2.499999804738e-01 -1.249999880663e-01 2.491472043937e-01
-2.499999802651e-01 4.731570397067e-11 2.491472033448e-01
-1.249999875770e-01 4.727512964830e-11 2.491472057051e-01
1.324485123436e-10 4.723461848072e-11 2.491472055532e-01
1.249999878419e-01 4.719409441998e-11 2.491472059591e-01
2.499999805300e-01 4.715364302126e-11 2.491472038527e-01
-2.499999802089e-01 1.249999881608e-01 2.491472039779e-01
-1.249999877875e-01 1.249999879673e-01 2.491472060704e-01
1.324889980840e-10 1.249999877566e-01 2.491472058782e-01
1.249999880525e-01 1.249999879672e-01 2.491472063243e-01
2.499999804739e-01 1.249999881606e-01 2.491472044859e-01
-2.499999802309e-01 2.499999804108e-01 2.491472024950e-01
-1.249999879810e-01 2.499999803887e-01 2.491472041510e-01
1.325296767841e-10 2.499999804448e-01 2.491472036909e-01
1.249999882460e-01 2.499999803886e-01 2.491472044050e-01
2.499999804960e-01 2.499999804106e-01 2.491472030030e-01
-2.499999811742e-01 -2.499999812171e-01 3.141472088702e-01
-1.249999888973e-01 -2.499999812913e-01 3.141472112568e-01
6.634008221544e-11 -2.499999815118e-01 3.141472111398e-01
1.249999890300e-01 -2.499999812914e-01 3.141472115108e-01
2.499999813068e-01 -2.499999812173e-01 3.141472093781e-01
-2.499999812482e-01 -1.249999889403e-01 3.141472111759e-01
-1.249999888305e-01 -1.249999888736e-01 3.141472140508e-01
6.638041492747e-11 -1.249999887818e-01 3.141472142759e-01
1.249999889633e-01 -1.249999888737e-01 3.141472143047e-01
2.499999813810e-01 -1.249999889405e-01 3.141472116838e-01
-2.499999814687e-01 2.334866052052e-11 3.141472109781e-01
-1.249999887386e-01 2.330808253614e-11 3.141472141950e-01
6.642093262205e-11 2.326757105475e-11 3.141472145633e-01
1.249999888714e-01 2.322705332935e-11 3.141472144490e-01
2.499999816015e-01 2.318660638568e-11 3.141472114860e-01
-2.499999812481e-01 1.249999889870e-01 3.141472112681e-01
-1.249999888305e-01 1.249999889202e-01 3.141472141429e-01
6.646143183806e-11 1.249999888283e-01 3.141472143681e-01
1.249999889634e-01 1.249999889201e-01 3.141472143969e-01
2.499999813811e-01 1.249999889869e-01 3.141472117760e-01
-2.499999811740e-01 2.499999812638e-01 3.141472090546e-01
-1.249999888972e-01 2.499999813379e-01 3.141472114412e-01
6.650212294987e-11 2.499999815584e-01 3.141472113242e-01
1.249999890302e-01 2.499999813378e-01 3.141472116951e-01
2.499999813070e-01 2.499999812637e-01 3.141472095625e-01
-2.499999834467e-01 -2.499999834476e-01 3.791472184914e-01
-1.249999907112e-01 -2.499999835970e-01 3.791472215752e-01
3.120692343070e-13 -2.499999839544e-01 3.791472214170e-01
1.249999907118e-01 -2.499999835971e-01 3.791472218291e-01
2.499999834473e-01 -2.499999834478e-01 3.791472189993e-01
-2.499999835960e-01 -1.249999907122e-01 3.791472214943e-01
-1.249999906877e-01 -1.249999906887e-01 3.791472250934e-01
3.524526547457e-13 -1.249999907324e-01 3.791472252887e-01
1.249999906884e-01 -1.249999906888e-01 3.791472253474e-01
2.499999835967e-01 -1.249999907123e-01 3.791472220022e-01
-2.499999839534e-01 -6.185469022495e-13 3.791472212552e-01
-1.249999907313e-01 -6.591065398614e-13 3.791472252078e-01
3.929771034167e-13 -6.996143791970e-13 3.791472255747e-01
1.249999907320e-01 -7.401300365235e-13 3.791472254617e-01
2.499999839541e-01 -7.805961826073e-13 3.791472217631e-01
-2.499999835959e-01 1.249999907109e-01 3.791472215865e-01
-1.249999906876e-01 1.249999906874e-01 3.791472251856e-01
4.334753203230e-13 1.249999907310e-01 3.791472253809e-01
1.249999906885e-01 1.249999906873e-01 3.791472254395e-01
2.499999835967e-01 1.249999907108e-01 3.791472220944e-01
-2.499999834466e-01 2.499999834464e-01 3.791472186758e-01
-1.249999907111e-01 2.499999835957e-01 3.791472217595e-01
4.741149409252e-13 2.499999839530e-01 3.791472216014e-01
1.249999907120e-01 2.499999835956e-01 3.791472220135e-01
2.499999834475e-01 2.499999834462e-01 3.791472191837e-01
-2.499999874481e-01 -2.499999874069e-01 4.441472268465e-01
-1.249999926252e-01 -2.499999877863e-01 4.441472301832e-01
-6.571617732998e-11 -2.499999883403e-01 4.441472299952e-01
1.249999924937e-01 -2.499999877864e-01 4.441472304371e-01
2.499999873166e-01 -2.499999874071e-01 4.441472273544e-01
-2.499999878273e-01 -1.249999925840e-01 4.441472301023e-01
-1.249999926198e-01 -1.249999925788e-01 4.441472340537e-01
-6.567573786340e-11 -1.249999927619e-01 4.441472342552e-01
1.249999924885e-01 -1.249999925788e-01 4.441472343077e-01
2.499999876960e-01 -1.249999925842e-01 4.441472306102e-01
-2.499999883813e-01 -2.458584048832e-11 4.441472298335e-01
-1.249999928029e-01 -2.462637870264e-11 4.441472341743e-01
-6.563520607804e-11 -2.466688400916e-11 4.441472345547e-01
1.249999926716e-01 -2.470739435780e-11 4.441472344282e-01
2.499999882500e-01 -2.474788298152e-11 4.441472303414e-01
-2.499999878273e-01 1.249999925349e-01 4.441472301945e-01
-1.249999926197e-01 1.249999925295e-01 4.441472341459e-01
-6.559470759639e-11 1.249999927126e-01 4.441472343473e-01
1.249999924885e-01 1.249999925294e-01 4.441472343998e-01
2.499999876961e-01 1.249999925347e-01 4.441472307024e-01
-2.499999874479e-01 2.499999873578e-01 4.441472270308e-01
-1.249999926250e-01 2.499999877370e-01 4.441472303675e-01
-6.555412606767e-11 2.499999882910e-01 4.441472301796e-01
1.249999924939e-01 2.499999877370e-01 4.441472306215e-01
2.499999873168e-01 2.499999873576e-01 4.441472275387e-01
-2.499999905811e-01 -2.499999904979e-01 5.091472308639e-01
-1.249999939327e-01 -2.499999911805e-01 5.091472343512e-01
-1.317442143442e-10 -2.499999919939e-01 5.091472344113e-01
1.249999936692e-01 -2.499999911806e-01 5.091472346051e-01
2.499999903176e-01 -2.499999904980e-01 5.091472313719e-01
-2.499999912636e-01 -1.249999938495e-01 5.091472342703e-01
-1.249999940807e-01 -1.249999939976e-01 5.091472385024e-01
-1.317037737233e-10 -1.249999943473e-01 5.091472390266e-01
1.249999938173e-01 -1.249999939977e-01 5.091472387564e-01
2.499999910002e-01 -1.249999938496e-01 5.091472347782e-01
-2.499999920769e-01 -4.855305552262e-11 5.091472342495e-01
-1.249999944303e-01 -4.859359643588e-11 5.091472389457e-01
-1.316632492825e-10 -4.863409838666e-11 5.091472396758e-01
1.249999941670e-01 -4.867460588156e-11 5.091472391997e-01
2.499999918136e-01 -4.871508775556e-11 5.091472347574e-01
-2.499999912635e-01 1.249999937524e-01 5.091472343624e-01
-1.249999940806e-01 1.249999939004e-01 5.091472385946e-01
-1.316227382685e-10 1.249999942500e-01 5.091472391188e-01
1.249999938174e-01 1.249999939003e-01 5.091472388486e-01
2.499999910003e-01 1.249999937522e-01 5.091472348704e-01
-2.499999905809e-01 2.499999904008e-01 5.091472310483e-01
-1.249999939325e-01 2.499999910833e-01 5.091472345355e-01
-1.315821494173e-10 2.499999918966e-01 5.091472345956e-01
1.249999936693e-01 2.499999910832e-01 5.091472347895e-01
2.499999903177e-01 2.499999904006e-01 5.091472315562e-01
CELLS 128 1152
8 0 1 6 5 25 26 31 30
8 1 2 7 6 26 27 32 31
8 2 3 8 7 27 28 33 32
8 3 4 9 8 28 29 34 33
8 5 6 11 10 30 31 36 35
8 6 7 12 11 31 32 37 36
8 7 8 13 12 32 33 38 37
8 8 9 14 13 33 34 39 38
8 10 11 16 15 35 36 41 40
8 11 12 17 16 36 37 42 41
8 12 13 18 17 37 38 43 42
8 13 14 19 18 38 39 44 43
8 15 16 21 20 40 41 46 45
8 16 17 22 21 41 42 47 46
8 17 18 23 22 42 43 48 47
8 18 19 24 23 43 44 49 48
8 25 26 31 30 50 51 56 55
8 26 27 32 31 51 52 57 56
8 27 28 33 32 52 53 58 57
8 28 29 34 33 53 54 59 58
8 30 31 36 35 55 56 61 60
8 31 32 37 36 56 57 62 61
8 32 33 38 37 57 58 63 62
8 33 34 39 38 58 59 64 63
8 35 36 41 40 60 61 66 65
8 36 37 42 41 61 62 67 66
8 37 38 43 42 62 63 68 67
8 38 39 44 43 63 64 69 68
8 40 41 46 45 65 66 71 70
8 41 42 47 46 66 67 72 71
8 42 43 48 47 67 68 73 72
8 43 44 49 48 68 69 74 73
8 50 51 56 55 75 76 81 80
8 51 52 57 56 76 77 82 81
8 52 53 58 57 77 78 83 82
8 53 54 59 58 78 79 84 83
8 55 56 61 60 80 81 86 85
8 56 57 62 61 81 82 87 86
8 57 58 63 62 82 83 88 87
8 58 59 64 63 83 84 89 88
8 60 61 66 65 85 86 91 90
8 61 62 67 66 86 87 92 91
8 62 63 68 67 87 88 93 92
8 63 64 69 68 88 89 94 93
8 65 66 71 70 90 91 96 95
8 66 67 72 71 91 92 97 96
8 67 68 73 72 92 93 98 97
8 68 69 74 73 93 94 99 98
8 75 76 81 80 100 101 106 105
8 76 77 82 81 101 102 107 106
8 77 78 83 82 102 103 108 107
8 78 79 84 83 103 104 109 108
8 80 81 86 85 105 106 111 110
8 81 82 87 86 106 107 112 111
8 82 83 88 87 107 108 113 112
8 83 84 89 88 108 109 114 113
8 85 86 91 90 110 111 116 115
8 86 87 92 91 111 112 117 116
8 87 88 93 92 112 113 118 117
8 88 89 94 93 113 114 119 118
8 90 91 96 95 115 116 121 120
8 91 92 97 96 116 117 122 121
8 92 93 98 97 117 118 123 122
8 93 94 99 98 118 119 124 123
8 125 126 131 130 150 151 156 155
8 126 127 132 131 151 152 157 156
8 127 128 133 132 152 153 158 157
8 128 129 134 133 153 154 159 158
8 130 131 136 135 155 156 161 160
8 131 132 137 136 156 157 162 161
8 132 133 138 137 157 158 163 162
8 133 134 139 138 158 159 164 163
8 135 136 141 140 160 161 166 165
8 136 137 142 141 161 162 167 166
8 137 138 143 142 162 163 168 167
8 138 139 144 143 163 164 169 168
8 140 141 146 145 165 166 171 170
8 141 142 147 146 166 167 172 171
8 142 143 148 147 167 168 173 172
8 143 144 149 148 168 169 174 173
8 150 151 156 155 175 176 181 180
8 151 152 157 156 176 177 182 181
8 152 153 158 157 177 178 183 182
8 153 154 159 158 178 179 184 183
8 155 156 161 160 180 181 186 185
8 156 157 162 161 181 182 187 186
8 157 158 163 162 182 183 188 187
8 158 159 164 163 183 184 189 188
8 160 161 166 165 185 186 191 190
8 161 162 167 166 186 187 192 191
8 162 163 168 167 187 188 193 192
8 163 164 169 168 188 189 194 193
8 165 166 171 170 190 191 196 195
8 166 167 172 171 191 192 197 196
8 167 168 173 172 192 193 198 197
8 168 169 174 173 193 194 199 198
8 175 176 181 180 200 201 206 205
8 176 177 182 181 201 202 207 206
8 177 178 183 182 202 203 208 207
8 178 179 184 183 203 204 209 208
8 180 181 186 185 205 206 211 210
8 181 182 187 186 206 207 212 211
8 182 183 188 187 207 208 213 212
8 183 184 189 188 208 209 214 213
8 185 186 191 190 210 211 216 215
8 186 187 192 191 211 212 217 216
8 187 188 193 192 212 213 218 217
8 188 189 194 193 213 214 219 218
8 190 191 196 195 215 216 221 220
8 191 192 197 196 216 217 222 221
8 192 193 198 197 217 218 223 222
8 193 194 199 198 218 219 224 223
8 200 201 206 205 225 226 231 230
8 201 202 207 206 226 227 232 231
8 202 203 208 207 227 228 233 232
8 203 204 209 208 228 229 234 233
8 205 206 211 210 230 231 236 235
8 206 207 212 211 231 232 237 236
8 207 208 213 212 232 233 238 237
8 208 209 214 213 233 234 239 238
8 210 211 216 215 235 236 241 240
8 211 212 217 216 236 237 242 241
8 212 213 218 217 237 238 243 242
8 213 214 219 218 238 239 244 243
8 215 216 221 220 240 241 246 245
8 216 217 222 221 241 242 247 246
8 217 218 223 222 242 243 248 247
8 218 219 224 223 243 244 249 248
CELL_TYPES 128
12
12
12
12
12
12
12
12
12
12
12
12
12
12
12
12
12
12
12
12
12
12
12
12
12
12
12
12
12
12
12
12
12
12
12
12
12
12
12
12
12
12
12
12
12
12
12
12
12
12
12
12
12
12
12
12
12
12
12
12
12
12
12
12
12
12
12
12
12
12
12
12
12
12
12
12
12
12
12
12
12
12
12
12
12
12
12
12
12
12
12
12
12
12
12
12
12
12
12
12
12
12
12
12
12
12
12
12
12
12
12
12
12
12
12
12
12
12
12
12
12
12
12
12
12
12
12
12
POINT_DATA 250
VECTORS displacement float
0.000000000000e+00 0.000000000000e+00 0.000000000000e+00
0.000000000000e+00 0.000000000000e+00 0.000000000000e+00
0.000000000000e+00 0.000000000000e+00 0.000000000000e+00
0.000000000000e+00 0.000000000000e+00 0.000000000000e+00
0.000000000000e+00 0.000000000000e+00 0.000000000000e+00
0.000000000000e+00 0.000000000000e+00 0.000000000000e+00
0.000000000000e+00 0.000000000000e+00 0.000000000000e+00
0.000000000000e+00 0.000000000000e+00 0.000000000000e+00
0.000000000000e+00 0.000000000000e+00 0.000000000000e+00
0.000000000000e+00 0.000000000000e+00 0.000000000000e+00
0.000000000000e+00 0.000000000000e+00 0.000000000000e+00
0.000000000000e+00 0.000000000000e+00 0.000000000000e+00
0.000000000000e+00 0.000000000000e+00 0.000000000000e+00
0.000000000000e+00 0.000000000000e+00 0.000000000000e+00
0.000000000000e+00 0.000000000000e+00 0.000000000000e+00
0.000000000000e+00 0.000000000000e+00 0.000000000000e+00
0.000000000000e+00 0.000000000000e+00 0.000000000000e+00
0.000000000000e+00 0.000000000000e+00 0.000000000000e+00
0.000000000000e+00 0.000000000000e+00 0.000000000000e+00
0.000000000000e+00 0.000000000000e+00 0.000000000000e+00
0.000000000000e+00 0.000000000000e+00 0.000000000000e+00
0.000000000000e+00 0.000000000000e+00 0.000000000000e+00
0.000000000000e+00 0.000000000000e+00 0.000000000000e+00
0.000000000000e+00 0.000000000000e+00 0.000000000000e+00
0.000000000000e+00 0.000000000000e+00 0.000000000000e+00
0.000000000000e+00 0.000000000000e+00 0.000000000000e+00
0.000000000000e+00 0.000000000000e+00 0.000000000000e+00
0.000000000000e+00 0.000000000000e+00 0.000000000000e+00
0.000000000000e+00 0.000000000000e+00 0.000000000000e+00
0.000000000000e+00 0.000000000000e+00 0.000000000000e+00
0.000000000000e+00 0.000000000000e+00 0.000000000000e+00
0.000000000000e+00 0.000000000000e+00 0.000000000000e+00
0.000000000000e+00 0.000000000000e+00 0.000000000000e+00
0.000000000000e+00 0.000000000000e+00 0.000000000000e+00
0.000000000000e+00 0.000000000000e+00 0.000000000000e+00
0.000000000000e+00 0.000000000000e+00 0.000000000000e+00
0.000000000000e+00 0.000000000000e+00 0.000000000000e+00
0.000000000000e+00 0.000000000000e+00 0.000000000000e+00
0.000000000000e+00 0.000000000000e+00 0.000000000000e+00
0.000000000000e+00 0.000000000000e+00 0.000000000000e+00
0.000000000000e+00 0.000000000000e+00 0.000000000000e+00
0.000000000000e+00 0.000000000000e+00 0.000000000000e+00
0.000000000000e+00 0.000000000000e+00 0.000000000000e+00
0.000000000000e+00 0.000000000000e+00 0.000000000000e+00
0.000000000000e+00 0.000000000000e+00 0.000000000000e+00
0.000000000000e+00 0.000000000000e+00 0.000000000000e+00
0.000000000000e+00 0.000000000000e+00 0.000000000000e+00
0.000000000000e+00 0.000000000000e+00 0.000000000000e+00
0.000000000000e+00 0.000000000000e+00 0.000000000000e+00
0.000000000000e+00 0.000000000000e+00 0.000000000000e+00
0.000000000000e+00 0.000000000000e+00 0.000000000000e+00
0.000000000000e+00 0.000000000000e+00 0.000000000000e+00
0.000000000000e+00 0.000000000000e+00 0.000000000000e+00
0.000000000000e+00 0.000000000000e+00 0.000000000000e+00
0.000000000000e+00 0.000000000000e+00 0.000000000000e+00
0.000000000000e+00 0.000000000000e+00 0.000000000000e+00
0.000000000000e+00 0.000000000000e+00 0.000000000000e+00
0.000000000000e+00 0.000000000000e+00 0.000000000000e+00
0.000000000000e+00 0.000000000000e+00 0.000000000000e+00
0.000000000000e+00 0.000000000000e+00 0.000000000000e+00
0.000000000000e+00 0.000000000000e+00 0.000000000000e+00
0.000000000000e+00 0.000000000000e+00 0.000000000000e+00
0.000000000000e+00 0.000000000000e+00 0.000000000000e+00
0.000000000000e+00 0.000000000000e+00 0.000000000000e+00
0.000000000000e+00 0.000000000000e+00 0.000000000000e+00
0.000000000000e+00 0.000000000000e+00 0.000000000000e+00
0.000000000000e+00 0.000000000000e+00 0.000000000000e+00
0.000000000000e+00 0.000000000000e+00 0.000000000000e+00
0.000000000000e+00 0.000000000000e+00 0.000000000000e+00
0.000000000000e+00 0.000000000000e+00 0.000000000000e+00
0.000000000000e+00 0.000000000000e+00 0.000000000000e+00
0.000000000000e+00 0.000000000000e+00 0.000000000000e+00
0.000000000000e+00 0.000000000000e+00 0.000000000000e+00
0.000000000000e+00 0.000000000000e+00 0.000000000000e+00
0.000000000000e+00 0.000000000000e+00 0.000000000000e+00
0.000000000000e+00 0.000000000000e+00 0.000000000000e+00
0.000000000000e+00 0.000000000000e+00 0.000000000000e+00
0.000000000000e+00 0.000000000000e+00 0.000000000000e+00
0.000000000000e+00 0.000000000000e+00 0.000000000000e+00
0.000000000000e+00 0.000000000000e+00 0.000000000000e+00
0.000000000000e+00 0.000000000000e+00 0.000000000000e+00
0.000000000000e+00 0.000000000000e+00 0.000000000000e+00
0.000000000000e+00 0.000000000000e+00 0.000000000000e+00
0.000000000000e+00 0.000000000000e+00 0.000000000000e+00
0.000000000000e+00 0.000000000000e+00 0.000000000000e+00
0.000000000000e+00 0.000000000000e+00 0.000000000000e+00
0.000000000000e+00 0.000000000000e+00 0.000000000000e+00
0.000000000000e+00 0.000000000000e+00 0.000000000000e+00
0.000000000000e+00 0.000000000000e+00 0.000000000000e+00
0.000000000000e+00 0.000000000000e+00 0.000000000000e+00
0.000000000000e+00 0.000000000000e+00 0.000000000000e+00
0.000000000000e+00 0.000000000000e+00 0.000000000000e+00
0.000000000000e+00 0.000000000000e+00 0.000000000000e+00
0.000000000000e+00 0.000000000000e+00 0.000000000000e+00
0.000000000000e+00 0.000000000000e+00 0.000000000000e+00
0.000000000000e+00 0.000000000000e+00 0.000000000000e+00
0.000000000000e+00 0.000000000000e+00 0.000000000000e+00
0.000000000000e+00 0.000000000000e+00 0.000000000000e+00
0.000000000000e+00 0.000000000000e+00 0.000000000000e+00
0.000000000000e+00 0.000000000000e+00 0.000000000000e+00
0.000000000000e+00 0.000000000000e+00 0.000000000000e+00
0.000000000000e+00 0.000000000000e+00 0.000000000000e+00
0.000000000000e+00 0.000000000000e+00 0.000000000000e+00
0.000000000000e+00 0.000000000000e+00 0.000000000000e+00
0.000000000000e+00 0.000000000000e+00 0.000000000000e+00
0.000000000000e+00 0.000000000000e+00 0.000000000000e+00
0.000000000000e+00 0.000000000000e+00 0.000000000000e+00
0.000000000000e+00 0.000000000000e+00 0.000000000000e+00
0.000000000000e+00 0.000000000000e+00 0.000000000000e+00
0.000000000000e+00 0.000000000000e+00 0.000000000000e+00
0.000000000000e+00 0.000000000000e+00 0.000000000000e+00
0.000000000000e+00 0.000000000000e+00 0.000000000000e+00
0.000000000000e+00 0.000000000000e+00 0.000000000000e+00
0.000000000000e+00 0.000000000000e+00 0.000000000000e+00
0.000000000000e+00 0.000000000000e+00 0.000000000000e+00
0.000000000000e+00 0.000000000000e+00 0.000000000000e+00
0.000000000000e+00 0.000000000000e+00 0.000000000000e+00
0.000000000000e+00 0.000000000000e+00 0.000000000000e+00
0.000000000000e+00 0.000000000000e+00 0.000000000000e+00
0.000000000000e+00 0.000000000000e+00 0.000000000000e+00
0.000000000000e+00 0.000000000000e+00 0.000000000000e+00
0.000000000000e+00 0.000000000000e+00 0.000000000000e+00
0.000000000000e+00 0.000000000000e+00 0.000000000000e+00
0.000000000000e+00 0.000000000000e+00 0.000000000000e+00
0.000000000000e+00 0.000000000000e+00 0.000000000000e+00
1.976891796151e-08 1.968386572138e-08 -5.852797689313e-03
1.201887446780e-08 1.970589511534e-08 -5.852796033348e-03
1.323676440802e-10 1.964966043628e-08 -5.852796493447e-03
-1.175413934233e-08 1.970581494429e-08 -5.852795779396e-03
-1.950418320356e-08 1.968370514686e-08 -5.852797181409e-03
1.979102807911e-08 1.193382232664e-08 -5.852796114233e-03
1.221239626566e-08 1.212726329911e-08 -5.852794021794e-03
1.324079859485e-10 1.233782798338e-08 -5.852794214008e-03
-1.194758044573e-08 1.212718276170e-08 -5.852793767842e-03
-1.952621261582e-08 1.193366107082e-08 -5.852795606329e-03
1.973487416037e-08 4.731570397067e-11 -5.852796655218e-03
1.242304182492e-08 4.727512964830e-11 -5.852794294893e-03
1.324485123436e-10 4.723461848072e-11 -5.852794446811e-03
-1.215814496553e-08 4.719409441998e-11 -5.852794040942e-03
-1.946997766203e-08 4.715364302126e-11 -5.852796147314e-03
1.979110941285e-08 -1.183919097555e-08 -5.852796022053e-03
1.221247746230e-08 -1.203271309302e-08 -5.852793929613e-03
1.324889980840e-10 -1.224335880266e-08 -5.852794121827e-03
-1.194749961694e-08 -1.203279462625e-08 -5.852793675661e-03
-1.952613192197e-08 -1.183935384847e-08 -5.852795514149e-03
1.976908054810e-08 -1.958923450058e-08 -5.852797504951e-03
1.201903679981e-08 -1.961134503547e-08 -5.852795848986e-03
1.325296767841e-10 -1.955519137763e-08 -5.852796309085e-03
-1.175397760875e-08 -1.961142693394e-08 -5.852795595035e-03
-1.950402172366e-08 -1.958939806547e-08 -5.852796997048e-03
1.882584597772e-08 1.878285442626e-08 -5.852791129798e-03
1.110265392390e-08 1.870870737445e-08 -5.852788743195e-03
6.634008221544e-11 1.848817650753e-08 -5.852788860156e-03
-1.096997405824e-08 1.870862706795e-08 -5.852788489243e-03
-1.869316670481e-08 1.878269367943e-08 -5.852790621893e-03
1.875177967042e-08 1.105966239126e-08 -5.852788824081e-03
1.116946372061e-08 1.112639134584e-08 -5.852785949248e-03
6.638041492747e-11 1.121824387047e-08 -5.852785724082e-03
-1.103670315766e-08 1.112631071500e-08 -5.852785695296e-03
-1.861901967505e-08 1.105950099124e-08 -5.852788316176e-03
1.853132960440e-08 2.334866052052e-11 -5.852789021928e-03
1.126139714718e-08 2.330808253614e-11 -5.852785804968e-03
6.642093262205e-11 2.326757105475e-11 -5.852785436684e-03
-1.112855555259e-08 2.322705332935e-11 -5.852785551016e-03
-1.839848857743e-08 2.318660638568e-11 -5.852788514023e-03
1.875186095350e-08 -1.101296517625e-08 -5.852788731900e-03
1.116954488526e-08 -1.107977527722e-08 -5.852785857067e-03
6.646143183806e-11 -1.117170882545e-08 -5.852785631901e-03
-1.103662228710e-08 -1.107985670701e-08 -5.852785603115e-03
-1.861893892170e-08 -1.101312788608e-08 -5.852788223995e-03
1.882600849848e-08 -1.873615742648e-08 -5.852790945436e-03
1.110281620365e-08 -1.866209151035e-08 -5.852788558833e-03
6.650212294987e-11 -1.844164166739e-08 -5.852788675794e-03
-1.096981225496e-08 -1.866217326384e-08 -5.852788304881e-03
-1.869300513966e-08 -1.873632079130e-08 -5.852790437531e-03
1.655328704793e-08 1.655235638686e-08 -5.852781508607e-03
9.288774418820e-09 1.640302914777e-08 -5.852778424843e-03
3.120692343070e-13 1.604555660441e-08 -5.852778582987e-03
-9.288150550249e-09 1.640294868268e-08 -5.852778170891e-03
-1.655266377395e-08 1.655219535385e-08 -5.852781000701e-03
1.640404062641e-08 9.287843744408e-09 -5.852778505729e-03
9.312275686002e-09 9.311264115268e-09 -5.852774906585e-03
3.524526547457e-13 9.267645762681e-09 -5.852774711317e-03
-9.311571022862e-09 9.311183370602e-09 -5.852774652632e-03
-1.640333654320e-08 9.287682147880e-09 -5.852777997823e-03
1.604664893672e-08 -6.185469022495e-13 -5.852778744758e-03
9.268738279485e-09 -6.591065398614e-13 -5.852774792203e-03
3.929771034167e-13 -6.996143791970e-13 -5.852774425312e-03
-9.267952566387e-09 -7.401300365235e-13 -5.852774538250e-03
-1.604586380783e-08 -7.805961826073e-13 -5.852778236852e-03
1.640412185329e-08 -9.289080936456e-09 -5.852778413548e-03
9.312356811371e-09 -9.312582415701e-09 -5.852774814404e-03
4.334753203230e-13 -9.269045078765e-09 -5.852774619136e-03
-9.311490101829e-09 -9.312663718532e-09 -5.852774560451e-03
-1.640325572256e-08 -9.289243436203e-09 -5.852777905642e-03
1.655344946787e-08 -1.655359379475e-08 -5.852781324244e-03
9.288936628495e-09 -1.640434766010e-08 -5.852778240481e-03
4.741149409252e-13 -1.604695613039e-08 -5.852778398624e-03
-9.287988665718e-09 -1.640442924405e-08 -5.852777986528e-03
-1.655250209429e-08 -1.655375685488e-08 -5.852780816339e-03
1.255193505756e-08 1.259306541868e-08 -5.852773153525e-03
7.374824938491e-09 1.221371311944e-08 -5.852769816843e-03
-6.571617732998e-11 1.165966591056e-08 -5.852770004772e-03
-7.506257518971e-09 1.221363241707e-08 -5.852769562890e-03
-1.268336804906e-08 1.259290393718e-08 -5.852772645618e-03
1.217266367538e-08 7.415955266417e-09 -5.852769897729e-03
7.380192956686e-09 7.421242323202e-09 -5.852765946292e-03
-6.567573786340e-11 7.238094836550e-09 -5.852765744840e-03
-7.511544630641e-09 7.421161473594e-09 -5.852765692339e-03
-1.230401573855e-08 7.415793480267e-09 -5.852769389822e-03
1.161869740574e-08 -2.458584048832e-11 -5.852770166544e-03
7.197126452480e-09 -2.462637870264e-11 -5.852765825725e-03
-6.563520607804e-11 -2.466688400916e-11 -5.852765445323e-03
-7.328397059388e-09 -2.470739435780e-11 -5.852765571772e-03
-1.174996839534e-08 -2.474788298152e-11 -5.852769658637e-03
1.217274482266e-08 -7.465127029554e-09 -5.852769805548e-03
7.380274045615e-09 -7.470495154031e-09 -5.852765854110e-03
-6.559470759639e-11 -7.287428670727e-09 -5.852765652658e-03
-7.511463660659e-09 -7.470576339939e-09 -5.852765600157e-03
-1.230393482407e-08 -7.465289323358e-09 -5.852769297641e-03
1.255209731547e-08 -1.264223733414e-08 -5.852772969162e-03
7.374987085118e-09 -1.226296609165e-08 -5.852769632480e-03
-6.555412606767e-11 -1.170899988405e-08 -5.852769820409e-03
-7.506095556827e-09 -1.226304742659e-08 -5.852769378527e-03
-1.268320619353e-08 -1.264239992806e-08 -5.852772461256e-03
9.418937392430e-09 9.502128700851e-09 -5.852769136051e-03
6.067324931927e-09 8.819497520098e-09 -5.852765648849e-03
-1.317442143442e-10 8.006128289121e-09 -5.852765588717e-03
-6.330813664724e-09 8.819416617686e-09 -5.852765394896e-03
-9.682426533905e-09 9.501966892531e-09 -5.852768628144e-03
8.736387185979e-09 6.150516144206e-09 -5.852765729735e-03
5.919274309378e-09 6.002384542830e-09 -5.852761497580e-03
-1.317037737233e-10 5.652706706699e-09 -5.852760973386e-03
-6.182682116023e-09 6.002303614541e-09 -5.852761243626e-03
-8.999795350681e-09 6.150354238191e-09 -5.852765221828e-03
7.923098962519e-09 -4.855305552262e-11 -5.852765750489e-03
5.569677483335e-09 -4.859359643588e-11 -5.852761054272e-03
-1.316632492825e-10 -4.863409838666e-11 -5.852760324200e-03
-5.833004218875e-09 -4.867460588156e-11 -5.852760800319e-03
-8.186426028785e-09 -4.871508775556e-11 -5.852765242582e-03
8.736468255904e-09 -6.247622373352e-09 -5.852765637554e-03
5.919355374984e-09 -6.099571828331e-09 -5.852761405398e-03
-1.316227382685e-10 -5.749974992518e-09 -5.852760881205e-03
-6.182601108496e-09 -6.099652920469e-09 -5.852761151445e-03
-8.999714346103e-09 -6.247784527950e-09 -5.852765129647e-03
9.419099534078e-09 -9.599235083495e-09 -5.852768951688e-03
6.067487040549e-09 -8.916684937431e-09 -5.852765464486e-03
-1.315821494173e-10 -8.103396701395e-09 -5.852765404354e-03
-6.330651644846e-09 -8.916766046877e-09 -5.852765210533e-03
-9.682264548112e-09 -9.599397333682e-09 -5.852768443781e-03
SCALARS displacement_magnitude float 1
LOOKUP_TABLE default
0.000000000000e+00
0.000000000000e+00
0.000000000000e+00
0.000000000000e+00
0.000000000000e+00
0.000000000000e+00
0.000000000000e+00
0.000000000000e+00
0.000000000000e+00
0.000000000000e+00
0.000000000000e+00
0.000000000000e+00
0.000000000000e+00
0.000000000000e+00
0.000000000000e+00
0.000000000000e+00
0.000000000000e+00
0.000000000000e+00
0.000000000000e+00
0.000000000000e+00
0.000000000000e+00
0.000000000000e+00
0.000000000000e+00
0.000000000000e+00
0.000000000000e+00
0.000000000000e+00
0.000000000000e+00
0.000000000000e+00
0.000000000000e+00
0.000000000000e+00
0.000000000000e+00
0.000000000000e+00
0.000000000000e+00
0.000000000000e+00
0.000000000000e+00
0.000000000000e+00
0.000000000000e+00
0.000000000000e+00
0.000000000000e+00
0.000000000000e+00
0.000000000000e+00
0.000000000000e+00
0.000000000000e+00
0.000000000000e+00
0.000000000000e+00
0.000000000000e+00
0.000000000000e+00
0.000000000000e+00
0.000000000000e+00
0.000000000000e+00
0.000000000000e+00
0.000000000000e+00
0.000000000000e+00
0.000000000000e+00
0.000000000000e+00
0.000000000000e+00
0.000000000000e+00
0.000000000000e+00
0.000000000000e+00
0.000000000000e+00
0.000000000000e+00
0.000000000000e+00
0.000000000000e+00
0.000000000000e+00
0.000000000000e+00
0.000000000000e+00
0.000000000000e+00
0.000000000000e+00
0.000000000000e+00
0.000000000000e+00
0.000000000000e+00
0.000000000000e+00
0.000000000000e+00
0.000000000000e+00
0.000000000000e+00
0.000000000000e+00
0.000000000000e+00
0.000000000000e+00
0.000000000000e+00
0.000000000000e+00
0.000000000000e+00
0.000000000000e+00
0.000000000000e+00
0.000000000000e+00
0.000000000000e+00
0.000000000000e+00
0.000000000000e+00
0.000000000000e+00
0.000000000000e+00
0.000000000000e+00
0.000000000000e+00
0.000000000000e+00
0.000000000000e+00
0.000000000000e+00
0.000000000000e+00
0.000000000000e+00
0.000000000000e+00
0.000000000000e+00
0.000000000000e+00
0.000000000000e+00
0.000000000000e+00
0.000000000000e+00
0.000000000000e+00
0.000000000000e+00
0.000000000000e+00
0.000000000000e+00
0.000000000000e+00
0.000000000000e+00
0.000000000000e+00
0.000000000000e+00
0.000000000000e+00
0.000000000000e+00
0.000000000000e+00
0.000000000000e+00
0.000000000000e+00
0.000000000000e+00
0.000000000000e+00
0.000000000000e+00
0.000000000000e+00
0.000000000000e+00
0.000000000000e+00
0.000000000000e+00
0.000000000000e+00
0.000000000000e+00
0.000000000000e+00
5.852797689380e-03
5.852796033393e-03
5.852796493480e-03
5.852795779441e-03
5.852797181475e-03
5.852796114279e-03
5.852794021819e-03
5.852794214021e-03
5.852793767867e-03
5.852795606374e-03
5.852796655252e-03
5.852794294907e-03
5.852794446811e-03
5.852794040954e-03
5.852796147347e-03
5.852796022098e-03
5.852793929638e-03
5.852794121840e-03
5.852793675686e-03
5.852795514193e-03
5.852797505018e-03
5.852795849031e-03
5.852796309118e-03
5.852795595079e-03
5.852796997113e-03
5.852791129858e-03
5.852788743236e-03
5.852788860185e-03
5.852788489283e-03
5.852790621953e-03
5.852788824121e-03
5.852785949269e-03
5.852785724093e-03
5.852785695317e-03
5.852788316216e-03
5.852789021957e-03
5.852785804979e-03
5.852785436684e-03
5.852785551026e-03
5.852788514052e-03
5.852788731941e-03
5.852785857088e-03
5.852785631912e-03
5.852785603136e-03
5.852788224035e-03
5.852790945496e-03
5.852788558873e-03
5.852788675823e-03
5.852788304921e-03
5.852790437591e-03
5.852781508653e-03
5.852778424873e-03
5.852778583009e-03
5.852778170921e-03
5.852781000748e-03
5.852778505759e-03
5.852774906600e-03
5.852774711324e-03
5.852774652647e-03
5.852777997854e-03
5.852778744780e-03
5.852774792210e-03
5.852774425312e-03
5.852774538258e-03
5.852778236874e-03
5.852778413578e-03
5.852774814419e-03
5.852774619143e-03
5.852774560466e-03
5.852777905673e-03
5.852781324291e-03
5.852778240511e-03
5.852778398646e-03
5.852777986559e-03
5.852780816386e-03
5.852773153552e-03
5.852769816860e-03
5.852770004783e-03
5.852769562908e-03
5.852772645645e-03
5.852769897746e-03
5.852765946301e-03
5.852765744844e-03
5.852765692348e-03
5.852769389840e-03
5.852770166555e-03
5.852765825730e-03
5.852765445323e-03
5.852765571777e-03
5.852769658649e-03
5.852769805565e-03
5.852765854120e-03
5.852765652663e-03
5.852765600167e-03
5.852769297659e-03
5.852772969189e-03
5.852769632498e-03
5.852769820421e-03
5.852769378545e-03
5.852772461283e-03
5.852769136066e-03
5.852765648859e-03
5.852765588722e-03
5.852765394906e-03
5.852768628160e-03
5.852765729745e-03
5.852761497586e-03
5.852760973389e-03
5.852761243633e-03
5.852765221839e-03
5.852765750494e-03
5.852761054275e-03
5.852760324200e-03
5.852760800322e-03
5.852765242587e-03
5.852765637564e-03
5.852761405404e-03
5.852760881207e-03
5.852761151451e-03
5.852765129657e-03
5.852768951703e-03
5.852765464496e-03
5.852765404359e-03
5.852765210544e-03
5.852768443797e-03
CELL_DATA 128
SCALARS displacement_magnitude float 1
LOOKUP_TABLE default
0.000000000000e+00
0.000000000000e+00
0.000000000000e+00
0.000000000000e+00
0.000000000000e+00
0.000000000000e+00
0.000000000000e+00
0.000000000000e+00
0.000000000000e+00
0.000000000000e+00
0.000000000000e+00
0.000000000000e+00
0.000000000000e+00
0.000000000000e+00
0.000000000000e+00
0.000000000000e+00
0.000000000000e+00
0.000000000000e+00
0.000000000000e+00
0.000000000000e+00
0.000000000000e+00
0.000000000000e+00
0.000000000000e+00
0.000000000000e+00
0.000000000000e+00
0.000000000000e+00
0.000000000000e+00
0.000000000000e+00
0.000000000000e+00
0.000000000000e+00
0.000000000000e+00
0.000000000000e+00
0.000000000000e+00
0.000000000000e+00
0.000000000000e+00
0.000000000000e+00
0.000000000000e+00
0.000000000000e+00
0.000000000000e+00
0.000000000000e+00
0.000000000000e+00
0.000000000000e+00
0.000000000000e+00
0.000000000000e+00
0.000000000000e+00
0.000000000000e+00
0.000000000000e+00
0.000000000000e+00
0.000000000000e+00
0.000000000000e+00
0.000000000000e+00
0.000000000000e+00
0.000000000000e+00
0.000000000000e+00
0.000000000000e+00
0.000000000000e+00
0.000000000000e+00
0.000000000000e+00
0.000000000000e+00
0.000000000000e+00
0.000000000000e+00
0.000000000000e+00
0.000000000000e+00
0.000000000000e+00
5.852792313169e-03
5.852791254937e-03
5.852791127961e-03
5.852791932241e-03
5.852791335823e-03
5.852789986573e-03
5.852789859597e-03
5.852790954894e-03
5.852791289732e-03
5.852789940482e-03
5.852789813506e-03
5.852790908804e-03
5.852792174898e-03
5.852791116665e-03
5.852790989689e-03
5.852791793969e-03
5.852783499046e-03
5.852781987824e-03
5.852781860848e-03
5.852783118117e-03
5.852782068710e-03
5.852780218809e-03
5.852780091833e-03
5.852781687780e-03
5.852782022619e-03
5.852780172718e-03
5.852780045742e-03
5.852781641690e-03
5.852783360775e-03
5.852781849552e-03
5.852781722576e-03
5.852782979846e-03
5.852774020043e-03
5.852772267324e-03
5.852772140348e-03
5.852773639114e-03
5.852772348210e-03
5.852770224706e-03
5.852770097729e-03
5.852771967281e-03
5.852772302120e-03
5.852770178615e-03
5.852770051639e-03
5.852771921190e-03
5.852773881771e-03
5.852772129053e-03
5.852772002076e-03
5.852773500842e-03
5.852767603339e-03
5.852765652668e-03
5.852765525692e-03
5.852767222410e-03
5.852765733554e-03
5.852763351456e-03
5.852763224479e-03
5.852765352624e-03
5.852765687463e-03
5.852763305365e-03
5.852763178389e-03
5.852765306534e-03
5.852767465068e-03
5.852765514396e-03
5.852765387420e-03
5.852767084138e-03
SCALARS engineering_strain_norm float 1
LOOKUP_TABLE default
0.000000000000e+00
0.000000000000e+00
0.000000000000e+00
0.000000000000e+00
0.000000000000e+00
0.000000000000e+00
0.000000000000e+00
0.000000000000e+00
0.000000000000e+00
0.000000000000e+00
0.000000000000e+00
0.000000000000e+00
0.000000000000e+00
0.000000000000e+00
0.000000000000e+00
0.000000000000e+00
0.000000000000e+00
0.000000000000e+00
0.000000000000e+00
0.000000000000e+00
0.000000000000e+00
0.000000000000e+00
0.000000000000e+00
0.000000000000e+00
0.000000000000e+00
0.000000000000e+00
0.000000000000e+00
0.000000000000e+00
0.000000000000e+00
0.000000000000e+00
0.000000000000e+00
0.000000000000e+00
0.000000000000e+00
0.000000000000e+00
0.000000000000e+00
0.000000000000e+00
0.000000000000e+00
0.000000000000e+00
0.000000000000e+00
0.000000000000e+00
0.000000000000e+00
0.000000000000e+00
0.000000000000e+00
0.000000000000e+00
0.000000000000e+00
0.000000000000e+00
0.000000000000e+00
0.000000000000e+00
0.000000000000e+00
0.000000000000e+00
0.000000000000e+00
0.000000000000e+00
0.000000000000e+00
0.000000000000e+00
0.000000000000e+00
0.000000000000e+00
0.000000000000e+00
0.000000000000e+00
0.000000000000e+00
0.000000000000e+00
0.000000000000e+00
0.000000000000e+00
0.000000000000e+00
0.000000000000e+00
1.419450026681e-07
1.637261111792e-07
1.637261145414e-07
1.419450126193e-07
1.637261089970e-07
1.863674059273e-07
1.863674095709e-07
1.637261192050e-07
1.637261102042e-07
1.863674072473e-07
1.863674108981e-07
1.637261204565e-07
1.419450063024e-07
1.637261148982e-07
1.637261182209e-07
1.419450162498e-07
1.799991000012e-07
1.925931786610e-07
1.925931826438e-07
1.799991135913e-07
1.925931757007e-07
2.060321803085e-07
2.060321844877e-07
1.925931890239e-07
1.925931771446e-07
2.060321818492e-07
2.060321860033e-07
1.925931904365e-07
1.799991049648e-07
1.925931834966e-07
1.925931874348e-07
1.799991184828e-07
1.518645917948e-07
1.593137166482e-07
1.593137191940e-07
1.518646016575e-07
1.593137144315e-07
1.681481128227e-07
1.681481155745e-07
1.593137239696e-07
1.593137153774e-07
1.681481137999e-07
1.681481165679e-07
1.593137248898e-07
1.518645954323e-07
1.593137201447e-07
1.593137226414e-07
1.518646052115e-07
7.970325795227e-08
9.274697017382e-08
9.274697184348e-08
7.970326300741e-08
9.274696920267e-08
1.056487772819e-07
1.056487790394e-07
9.274697388666e-08
9.274696984038e-08
1.056487779070e-07
1.056487796811e-07
9.274697451716e-08
7.970325981652e-08
9.274697191719e-08
9.274697354287e-08
7.970326481896e-08
SCALARS von_mises float 1
LOOKUP_TABLE default
0.000000000000e+00
0.000000000000e+00
0.000000000000e+00
0.000000000000e+00
0.000000000000e+00
0.000000000000e+00
0.000000000000e+00
0.000000000000e+00
0.000000000000e+00
0.000000000000e+00
0.000000000000e+00
0.000000000000e+00
0.000000000000e+00
0.000000000000e+00
0.000000000000e+00
0.000000000000e+00
0.000000000000e+00
0.000000000000e+00
0.000000000000e+00
0.000000000000e+00
0.000000000000e+00
0.000000000000e+00
0.000000000000e+00
0.000000000000e+00
0.000000000000e+00
0.000000000000e+00
0.000000000000e+00
0.000000000000e+00
0.000000000000e+00
0.000000000000e+00
0.000000000000e+00
0.000000000000e+00
0.000000000000e+00
0.000000000000e+00
0.000000000000e+00
0.000000000000e+00
0.000000000000e+00
0.000000000000e+00
0.000000000000e+00
0.000000000000e+00
0.000000000000e+00
0.000000000000e+00
0.000000000000e+00
0.000000000000e+00
0.000000000000e+00
0.000000000000e+00
0.000000000000e+00
0.000000000000e+00
0.000000000000e+00
0.000000000000e+00
0.000000000000e+00
0.000000000000e+00
0.000000000000e+00
0.000000000000e+00
0.000000000000e+00
0.000000000000e+00
0.000000000000e+00
0.000000000000e+00
0.000000000000e+00
0.000000000000e+00
0.000000000000e+00
0.000000000000e+00
0.000000000000e+00
0.000000000000e+00
1.335849647648e-02
1.532036004192e-02
1.532036037082e-02
1.335849741547e-02
1.532035983855e-02
1.727616770748e-02
1.727616805805e-02
1.532036080536e-02
1.532035995669e-02
1.727616783442e-02
1.727616818593e-02
1.532036092796e-02
1.335849681942e-02
1.532036039412e-02
1.532036071923e-02
1.335849775794e-02
1.679940939967e-02
1.806300983351e-02
1.806301025019e-02
1.679941067379e-02
1.806300956987e-02
1.936905234835e-02
1.936905277224e-02
1.806301081809e-02
1.806300972107e-02
1.936905250447e-02
1.936905292600e-02
1.806301096656e-02
1.679940986503e-02
1.806301028638e-02
1.806301069927e-02
1.679941113293e-02
1.406801470538e-02
1.488360784013e-02
1.488360814629e-02
1.406801566380e-02
1.488360764474e-02
1.578709175562e-02
1.578709206462e-02
1.488360856578e-02
1.488360775829e-02
1.578709186582e-02
1.578709217618e-02
1.488360867709e-02
1.406801505864e-02
1.488360817712e-02
1.488360847929e-02
1.406801601007e-02
7.481454442352e-03
8.666145838771e-03
8.666146033749e-03
7.481454929502e-03
8.666145756665e-03
9.761192969022e-03
9.761193157524e-03
8.666146204335e-03
8.666145830734e-03
9.761193035785e-03
9.761193225984e-03
8.666146278391e-03
7.481454621900e-03
8.666146004866e-03
8.666146196400e-03
7.481455104547e-03
SCALARS sdf_gap float 1
LOOKUP_TABLE default
0.000000000000e+00
0.000000000000e+00
0.000000000000e+00
0.000000000000e+00
0.000000000000e+00
0.000000000000e+00
0.000000000000e+00
0.000000000000e+00
0.000000000000e+00
0.000000000000e+00
0.000000000000e+00
0.000000000000e+00
0.000000000000e+00
0.000000000000e+00
0.000000000000e+00
0.000000000000e+00
0.000000000000e+00
0.000000000000e+00
0.000000000000e+00
0.000000000000e+00
0.000000000000e+00
0.000000000000e+00
0.000000000000e+00
0.000000000000e+00
0.000000000000e+00
0.000000000000e+00
0.000000000000e+00
0.000000000000e+00
0.000000000000e+00
0.000000000000e+00
0.000000000000e+00
0.000000000000e+00
0.000000000000e+00
0.000000000000e+00
0.000000000000e+00
0.000000000000e+00
0.000000000000e+00
0.000000000000e+00
0.000000000000e+00
0.000000000000e+00
0.000000000000e+00
0.000000000000e+00
0.000000000000e+00
0.000000000000e+00
0.000000000000e+00
0.000000000000e+00
0.000000000000e+00
0.000000000000e+00
0.000000000000e+00
0.000000000000e+00
0.000000000000e+00
0.000000000000e+00
0.000000000000e+00
0.000000000000e+00
0.000000000000e+00
0.000000000000e+00
0.000000000000e+00
0.000000000000e+00
0.000000000000e+00
0.000000000000e+00
0.000000000000e+00
0.000000000000e+00
0.000000000000e+00
0.000000000000e+00
9.147204035328e-03
9.147204809351e-03
9.147204936327e-03
9.147204416256e-03
9.147204728465e-03
9.147205755624e-03
9.147205882599e-03
9.147205109393e-03
9.147204774556e-03
9.147205801714e-03
9.147205928690e-03
9.147205155483e-03
9.147204173599e-03
9.147204947622e-03
9.147205074598e-03
9.147204554527e-03
0.000000000000e+00
0.000000000000e+00
0.000000000000e+00
0.000000000000e+00
0.000000000000e+00
0.000000000000e+00
0.000000000000e+00
0.000000000000e+00
0.000000000000e+00
0.000000000000e+00
0.000000000000e+00
0.000000000000e+00
0.000000000000e+00
0.000000000000e+00
0.000000000000e+00
0.000000000000e+00
0.000000000000e+00
0.000000000000e+00
0.000000000000e+00
0.000000000000e+00
0.000000000000e+00
0.000000000000e+00
0.000000000000e+00
0.000000000000e+00
0.000000000000e+00
0.000000000000e+00
0.000000000000e+00
0.000000000000e+00
0.000000000000e+00
0.000000000000e+00
0.000000000000e+00
0.000000000000e+00
0.000000000000e+00
0.000000000000e+00
0.000000000000e+00
0.000000000000e+00
0.000000000000e+00
0.000000000000e+00
0.000000000000e+00
0.000000000000e+00
0.000000000000e+00
0.000000000000e+00
0.000000000000e+00
0.000000000000e+00
0.000000000000e+00
0.000000000000e+00
0.000000000000e+00
0.000000000000e+00
SCALARS contact_pressure float 1
LOOKUP_TABLE default
0.000000000000e+00
0.000000000000e+00
0.000000000000e+00
0.000000000000e+00
0.000000000000e+00
0.000000000000e+00
0.000000000000e+00
0.000000000000e+00
0.000000000000e+00
0.000000000000e+00
0.000000000000e+00
0.000000000000e+00
0.000000000000e+00
0.000000000000e+00
0.000000000000e+00
0.000000000000e+00
0.000000000000e+00
0.000000000000e+00
0.000000000000e+00
0.000000000000e+00
0.000000000000e+00
0.000000000000e+00
0.000000000000e+00
0.000000000000e+00
0.000000000000e+00
0.000000000000e+00
0.000000000000e+00
0.000000000000e+00
0.000000000000e+00
0.000000000000e+00
0.000000000000e+00
0.000000000000e+00
0.000000000000e+00
0.000000000000e+00
0.000000000000e+00
0.000000000000e+00
0.000000000000e+00
0.000000000000e+00
0.000000000000e+00
0.000000000000e+00
0.000000000000e+00
0.000000000000e+00
0.000000000000e+00
0.000000000000e+00
0.000000000000e+00
0.000000000000e+00
0.000000000000e+00
0.000000000000e+00
0.000000000000e+00
0.000000000000e+00
0.000000000000e+00
0.000000000000e+00
0.000000000000e+00
0.000000000000e+00
0.000000000000e+00
0.000000000000e+00
0.000000000000e+00
0.000000000000e+00
0.000000000000e+00
0.000000000000e+00
0.000000000000e+00
0.000000000000e+00
0.000000000000e+00
0.000000000000e+00
0.000000000000e+00
0.000000000000e+00
0.000000000000e+00
0.000000000000e+00
0.000000000000e+00
0.000000000000e+00
0.000000000000e+00
0.000000000000e+00
0.000000000000e+00
0.000000000000e+00
0.000000000000e+00
0.000000000000e+00
0.000000000000e+00
0.000000000000e+00
0.000000000000e+00
0.000000000000e+00
0.000000000000e+00
0.000000000000e+00
0.000000000000e+00
0.000000000000e+00
0.000000000000e+00
0.000000000000e+00
0.000000000000e+00
0.000000000000e+00
0.000000000000e+00
0.000000000000e+00
0.000000000000e+00
0.000000000000e+00
0.000000000000e+00
0.000000000000e+00
0.000000000000e+00
0.000000000000e+00
0.000000000000e+00
0.000000000000e+00
0.000000000000e+00
0.000000000000e+00
0.000000000000e+00
0.000000000000e+00
0.000000000000e+00
0.000000000000e+00
0.000000000000e+00
0.000000000000e+00
0.000000000000e+00
0.000000000000e+00
0.000000000000e+00
0.000000000000e+00
0.000000000000e+00
0.000000000000e+00
0.000000000000e+00
0.000000000000e+00
0.000000000000e+00
0.000000000000e+00
0.000000000000e+00
0.000000000000e+00
0.000000000000e+00
0.000000000000e+00
0.000000000000e+00
0.000000000000e+00
0.000000000000e+00
0.000000000000e+00
0.000000000000e+00
0.000000000000e+00
0.000000000000e+00
0.000000000000e+00
SCALARS active_contact float 1
LOOKUP_TABLE default
0.000000000000e+00
0.000000000000e+00
0.000000000000e+00
0.000000000000e+00
0.000000000000e+00
0.000000000000e+00
0.000000000000e+00
0.000000000000e+00
0.000000000000e+00
0.000000000000e+00
0.000000000000e+00
0.000000000000e+00
0.000000000000e+00
0.000000000000e+00
0.000000000000e+00
0.000000000000e+00
0.000000000000e+00
0.000000000000e+00
0.000000000000e+00
0.000000000000e+00
0.000000000000e+00
0.000000000000e+00
0.000000000000e+00
0.000000000000e+00
0.000000000000e+00
0.000000000000e+00
0.000000000000e+00
0.000000000000e+00
0.000000000000e+00
0.000000000000e+00
0.000000000000e+00
0.000000000000e+00
0.000000000000e+00
0.000000000000e+00
0.000000000000e+00
0.000000000000e+00
0.000000000000e+00
0.000000000000e+00
0.000000000000e+00
0.000000000000e+00
0.000000000000e+00
0.000000000000e+00
0.000000000000e+00
0.000000000000e+00
0.000000000000e+00
0.000000000000e+00
0.000000000000e+00
0.000000000000e+00
0.000000000000e+00
0.000000000000e+00
0.000000000000e+00
0.000000000000e+00
0.000000000000e+00
0.000000000000e+00
0.000000000000e+00
0.000000000000e+00
0.000000000000e+00
0.000000000000e+00
0.000000000000e+00
0.000000000000e+00
0.000000000000e+00
0.000000000000e+00
0.000000000000e+00
0.000000000000e+00
0.000000000000e+00
0.000000000000e+00
0.000000000000e+00
0.000000000000e+00
0.000000000000e+00
0.000000000000e+00
0.000000000000e+00
0.000000000000e+00
0.000000000000e+00
0.000000000000e+00
0.000000000000e+00
0.000000000000e+00
0.000000000000e+00
0.000000000000e+00
0.000000000000e+00
0.000000000000e+00
0.000000000000e+00
0.000000000000e+00
0.000000000000e+00
0.000000000000e+00
0.000000000000e+00
0.000000000000e+00
0.000000000000e+00
0.000000000000e+00
0.000000000000e+00
0.000000000000e+00
0.000000000000e+00
0.000000000000e+00
0.000000000000e+00
0.000000000000e+00
0.000000000000e+00
0.000000000000e+00
0.000000000000e+00
0.000000000000e+00
0.000000000000e+00
0.000000000000e+00
0.000000000000e+00
0.000000000000e+00
0.000000000000e+00
0.000000000000e+00
0.000000000000e+00
0.000000000000e+00
0.000000000000e+00
0.000000000000e+00
0.000000000000e+00
0.000000000000e+00
0.000000000000e+00
0.000000000000e+00
0.000000000000e+00
0.000000000000e+00
0.000000000000e+00
0.000000000000e+00
0.000000000000e+00
0.000000000000e+00
0.000000000000e+00
0.000000000000e+00
0.000000000000e+00
0.000000000000e+00
0.000000000000e+00
0.000000000000e+00
0.000000000000e+00
0.000000000000e+00
0.000000000000e+00
0.000000000000e+00
