# vtk DataFile Version 3.0
SFC long-time C3D8 dynamic frame 144 t=2.880000000000e+00
ASCII
DATASET UNSTRUCTURED_GRID
POINTS 250 float
-2.500000000000e-01 -2.500000000000e-01 0.000000000000e+00
-1.250000000000e-01 -2.500000000000e-01 0.000000000000e+00
0.000000000000e+00 -2.500000000000e-01 0.000000000000e+00
1.250000000000e-01 -2.500000000000e-01 0.000000000000e+00
2.500000000000e-01 -2.500000000000e-01 0.000000000000e+00
-2.500000000000e-01 -1.250000000000e-01 0.000000000000e+00
-1.250000000000e-01 -1.250000000000e-01 0.000000000000e+00
0.000000000000e+00 -1.250000000000e-01 0.000000000000e+00
1.250000000000e-01 -1.250000000000e-01 0.000000000000e+00
2.500000000000e-01 -1.250000000000e-01 0.000000000000e+00
-2.500000000000e-01 0.000000000000e+00 0.000000000000e+00
-1.250000000000e-01 0.000000000000e+00 0.000000000000e+00
0.000000000000e+00 0.000000000000e+00 0.000000000000e+00
1.250000000000e-01 0.000000000000e+00 0.000000000000e+00
2.500000000000e-01 0.000000000000e+00 0.000000000000e+00
-2.500000000000e-01 1.250000000000e-01 0.000000000000e+00
-1.250000000000e-01 1.250000000000e-01 0.000000000000e+00
0.000000000000e+00 1.250000000000e-01 0.000000000000e+00
1.250000000000e-01 1.250000000000e-01 0.000000000000e+00
2.500000000000e-01 1.250000000000e-01 0.000000000000e+00
-2.500000000000e-01 2.500000000000e-01 0.000000000000e+00
-1.250000000000e-01 2.500000000000e-01 0.000000000000e+00
0.000000000000e+00 2.500000000000e-01 0.000000000000e+00
1.250000000000e-01 2.500000000000e-01 0.000000000000e+00
2.500000000000e-01 2.500000000000e-01 0.000000000000e+00
-2.500000000000e-01 -2.500000000000e-01 6.000000000000e-02
-1.250000000000e-01 -2.500000000000e-01 6.000000000000e-02
0.000000000000e+00 -2.500000000000e-01 6.000000000000e-02
1.250000000000e-01 -2.500000000000e-01 6.000000000000e-02
2.500000000000e-01 -2.500000000000e-01 6.000000000000e-02
-2.500000000000e-01 -1.250000000000e-01 6.000000000000e-02
-1.250000000000e-01 -1.250000000000e-01 6.000000000000e-02
0.000000000000e+00 -1.250000000000e-01 6.000000000000e-02
1.250000000000e-01 -1.250000000000e-01 6.000000000000e-02
2.500000000000e-01 -1.250000000000e-01 6.000000000000e-02
-2.500000000000e-01 0.000000000000e+00 6.000000000000e-02
-1.250000000000e-01 0.000000000000e+00 6.000000000000e-02
0.000000000000e+00 0.000000000000e+00 6.000000000000e-02
1.250000000000e-01 0.000000000000e+00 6.000000000000e-02
2.500000000000e-01 0.000000000000e+00 6.000000000000e-02
-2.500000000000e-01 1.250000000000e-01 6.000000000000e-02
-1.250000000000e-01 1.250000000000e-01 6.000000000000e-02
0.000000000000e+00 1.250000000000e-01 6.000000000000e-02
1.250000000000e-01 1.250000000000e-01 6.000000000000e-02
2.500000000000e-01 1.250000000000e-01 6.000000000000e-02
-2.500000000000e-01 2.500000000000e-01 6.000000000000e-02
-1.250000000000e-01 2.500000000000e-01 6.000000000000e-02
0.000000000000e+00 2.500000000000e-01 6.000000000000e-02
1.250000000000e-01 2.500000000000e-01 6.000000000000e-02
2.500000000000e-01 2.500000000000e-01 6.000000000000e-02
-2.500000000000e-01 -2.500000000000e-01 1.200000000000e-01
-1.250000000000e-01 -2.500000000000e-01 1.200000000000e-01
0.000000000000e+00 -2.500000000000e-01 1.200000000000e-01
1.250000000000e-01 -2.500000000000e-01 1.200000000000e-01
2.500000000000e-01 -2.500000000000e-01 1.200000000000e-01
-2.500000000000e-01 -1.250000000000e-01 1.200000000000e-01
-1.250000000000e-01 -1.250000000000e-01 1.200000000000e-01
0.000000000000e+00 -1.250000000000e-01 1.200000000000e-01
1.250000000000e-01 -1.250000000000e-01 1.200000000000e-01
2.500000000000e-01 -1.250000000000e-01 1.200000000000e-01
-2.500000000000e-01 0.000000000000e+00 1.200000000000e-01
-1.250000000000e-01 0.000000000000e+00 1.200000000000e-01
0.000000000000e+00 0.000000000000e+00 1.200000000000e-01
1.250000000000e-01 0.000000000000e+00 1.200000000000e-01
2.500000000000e-01 0.000000000000e+00 1.200000000000e-01
-2.500000000000e-01 1.250000000000e-01 1.200000000000e-01
-1.250000000000e-01 1.250000000000e-01 1.200000000000e-01
0.000000000000e+00 1.250000000000e-01 1.200000000000e-01
1.250000000000e-01 1.250000000000e-01 1.200000000000e-01
2.500000000000e-01 1.250000000000e-01 1.200000000000e-01
-2.500000000000e-01 2.500000000000e-01 1.200000000000e-01
-1.250000000000e-01 2.500000000000e-01 1.200000000000e-01
0.000000000000e+00 2.500000000000e-01 1.200000000000e-01
1.250000000000e-01 2.500000000000e-01 1.200000000000e-01
2.500000000000e-01 2.500000000000e-01 1.200000000000e-01
-2.500000000000e-01 -2.500000000000e-01 1.800000000000e-01
-1.250000000000e-01 -2.500000000000e-01 1.800000000000e-01
0.000000000000e+00 -2.500000000000e-01 1.800000000000e-01
1.250000000000e-01 -2.500000000000e-01 1.800000000000e-01
2.500000000000e-01 -2.500000000000e-01 1.800000000000e-01
-2.500000000000e-01 -1.250000000000e-01 1.800000000000e-01
-1.250000000000e-01 -1.250000000000e-01 1.800000000000e-01
0.000000000000e+00 -1.250000000000e-01 1.800000000000e-01
1.250000000000e-01 -1.250000000000e-01 1.800000000000e-01
2.500000000000e-01 -1.250000000000e-01 1.800000000000e-01
-2.500000000000e-01 0.000000000000e+00 1.800000000000e-01
-1.250000000000e-01 0.000000000000e+00 1.800000000000e-01
0.000000000000e+00 0.000000000000e+00 1.800000000000e-01
1.250000000000e-01 0.000000000000e+00 1.800000000000e-01
2.500000000000e-01 0.000000000000e+00 1.800000000000e-01
-2.500000000000e-01 1.250000000000e-01 1.800000000000e-01
-1.250000000000e-01 1.250000000000e-01 1.800000000000e-01
0.000000000000e+00 1.250000000000e-01 1.800000000000e-01
1.250000000000e-01 1.250000000000e-01 1.800000000000e-01
2.500000000000e-01 1.250000000000e-01 1.800000000000e-01
-2.500000000000e-01 2.500000000000e-01 1.800000000000e-01
-1.250000000000e-01 2.500000000000e-01 1.800000000000e-01
0.000000000000e+00 2.500000000000e-01 1.800000000000e-01
1.250000000000e-01 2.500000000000e-01 1.800000000000e-01
2.500000000000e-01 2.500000000000e-01 1.800000000000e-01
-2.500000000000e-01 -2.500000000000e-01 2.400000000000e-01
-1.250000000000e-01 -2.500000000000e-01 2.400000000000e-01
0.000000000000e+00 -2.500000000000e-01 2.400000000000e-01
1.250000000000e-01 -2.500000000000e-01 2.400000000000e-01
2.500000000000e-01 -2.500000000000e-01 2.400000000000e-01
-2.500000000000e-01 -1.250000000000e-01 2.400000000000e-01
-1.250000000000e-01 -1.250000000000e-01 2.400000000000e-01
0.000000000000e+00 -1.250000000000e-01 2.400000000000e-01
1.250000000000e-01 -1.250000000000e-01 2.400000000000e-01
2.500000000000e-01 -1.250000000000e-01 2.400000000000e-01
-2.500000000000e-01 0.000000000000e+00 2.400000000000e-01
-1.250000000000e-01 0.000000000000e+00 2.400000000000e-01
0.000000000000e+00 0.000000000000e+00 2.400000000000e-01
1.250000000000e-01 0.000000000000e+00 2.400000000000e-01
2.500000000000e-01 0.000000000000e+00 2.400000000000e-01
-2.500000000000e-01 1.250000000000e-01 2.400000000000e-01
-1.250000000000e-01 1.250000000000e-01 2.400000000000e-01
0.000000000000e+00 1.250000000000e-01 2.400000000000e-01
1.250000000000e-01 1.250000000000e-01 2.400000000000e-01
2.500000000000e-01 1.250000000000e-01 2.400000000000e-01
-2.500000000000e-01 2.500000000000e-01 2.400000000000e-01
-1.250000000000e-01 2.500000000000e-01 2.400000000000e-01
0.000000000000e+00 2.500000000000e-01 2.400000000000e-01
1.250000000000e-01 2.500000000000e-01 2.400000000000e-01
2.500000000000e-01 2.500000000000e-01 2.400000000000e-01
-2.499999957617e-01 -2.499999959198e-01 2.444433842741e-01
-1.249999972031e-01 -2.499999973886e-01 2.444433639520e-01
2.453936740854e-10 -2.500000006120e-01 2.444433535754e-01
1.249999976939e-01 -2.499999973888e-01 2.444433644226e-01
2.499999962525e-01 -2.499999959202e-01 2.444433852153e-01
-2.499999972303e-01 -1.249999973612e-01 2.444433638021e-01
-1.249999975154e-01 -1.249999976737e-01 2.444433432391e-01
2.454912388136e-10 -1.249999997198e-01 2.444433328441e-01
1.249999980064e-01 -1.249999976739e-01 2.444433437097e-01
2.499999977213e-01 -1.249999973616e-01 2.444433647432e-01
-2.500000004535e-01 8.731354908302e-11 2.444433532754e-01
-1.249999995613e-01 8.721649337729e-11 2.444433326941e-01
2.455886372513e-10 8.711937646825e-11 2.444433222810e-01
1.250000000525e-01 8.702210749592e-11 2.444433331646e-01
2.500000009447e-01 8.692478081784e-11 2.444433542166e-01
-2.499999972301e-01 1.249999975358e-01 2.444433639727e-01
-1.249999975152e-01 1.249999978481e-01 2.444433434097e-01
2.456856014074e-10 1.249999998940e-01 2.444433330147e-01
1.249999980066e-01 1.249999978479e-01 2.444433438803e-01
2.499999977215e-01 1.249999975355e-01 2.444433649138e-01
-2.499999957613e-01 2.499999960944e-01 2.444433846153e-01
-1.249999972028e-01 2.499999975630e-01 2.444433642933e-01
2.457824064146e-10 2.500000007862e-01 2.444433539166e-01
1.249999976943e-01 2.499999975628e-01 2.444433647638e-01
2.499999962529e-01 2.499999960940e-01 2.444433855565e-01
-2.499999867310e-01 -2.499999868111e-01 3.094433841357e-01
-1.249999890867e-01 -2.499999885794e-01 3.094433651224e-01
1.230431961669e-10 -2.499999923073e-01 3.094433556679e-01
1.249999893328e-01 -2.499999885796e-01 3.094433655930e-01
2.499999869771e-01 -2.499999868115e-01 3.094433850769e-01
-2.499999884992e-01 -1.249999891668e-01 3.094433649725e-01
-1.249999892482e-01 -1.249999893284e-01 3.094433461194e-01
1.231407820869e-10 -1.249999913616e-01 3.094433368196e-01
1.249999894944e-01 -1.249999893286e-01 3.094433465900e-01
2.499999887454e-01 -1.249999891672e-01 3.094433659136e-01
-2.499999922268e-01 4.295619999681e-11 3.094433553680e-01
-1.249999912812e-01 4.285915760486e-11 3.094433366696e-01
1.232381958765e-10 4.276204889142e-11 3.094433273033e-01
1.249999915276e-01 4.266477651340e-11 3.094433371401e-01
2.499999924733e-01 4.256744505162e-11 3.094433563091e-01
-2.499999884990e-01 1.249999892527e-01 3.094433651431e-01
-1.249999892480e-01 1.249999894142e-01 3.094433462900e-01
1.233351486874e-10 1.249999914472e-01 3.094433369902e-01
1.249999894946e-01 1.249999894140e-01 3.094433467606e-01
2.499999887456e-01 1.249999892523e-01 3.094433660842e-01
-2.499999867307e-01 2.499999868970e-01 3.094433844769e-01
-1.249999890863e-01 2.499999886652e-01 3.094433654636e-01
1.234319413226e-10 2.499999923928e-01 3.094433560092e-01
1.249999893332e-01 2.499999886650e-01 3.094433659342e-01
2.499999869775e-01 2.499999868967e-01 3.094433854181e-01
-2.499999797725e-01 -2.499999797746e-01 3.744433789921e-01
-1.249999826254e-01 -2.499999819518e-01 3.744433631535e-01
6.926497373088e-13 -2.499999863275e-01 3.744433562396e-01
1.249999826268e-01 -2.499999819520e-01 3.744433636241e-01
2.499999797739e-01 -2.499999797750e-01 3.744433799333e-01
-2.499999819495e-01 -1.249999826275e-01 3.744433630036e-01
-1.249999826790e-01 -1.249999826813e-01 3.744433479605e-01
7.902378055764e-13 -1.249999847993e-01 3.744433416333e-01
1.249999826805e-01 -1.249999826814e-01 3.744433484311e-01
2.499999819511e-01 -1.249999826279e-01 3.744433639447e-01
-2.499999863250e-01 -1.401167077876e-12 3.744433559396e-01
-1.249999847968e-01 -1.498209868116e-12 3.744433414834e-01
8.876674434579e-13 -1.595310071493e-12 3.744433353744e-01
1.249999847986e-01 -1.692584504051e-12 3.744433419539e-01
2.499999863268e-01 -1.789917117435e-12 3.744433568808e-01
-2.499999819493e-01 1.249999826247e-01 3.744433631742e-01
-1.249999826788e-01 1.249999826783e-01 3.744433481311e-01
9.846113192462e-13 1.249999847961e-01 3.744433418040e-01
1.249999826807e-01 1.249999826781e-01 3.744433486017e-01
2.499999819513e-01 1.249999826243e-01 3.744433641153e-01
-2.499999797721e-01 2.499999797718e-01 3.744433793333e-01
-1.249999826250e-01 2.499999819488e-01 3.744433634948e-01
1.081398641894e-12 2.499999863243e-01 3.744433565808e-01
1.249999826272e-01 2.499999819486e-01 3.744433639653e-01
2.499999797743e-01 2.499999797714e-01 3.744433802745e-01
-2.499999723820e-01 -2.499999723061e-01 4.394433727080e-01
-1.249999781066e-01 -2.499999750145e-01 4.394433604257e-01
-1.216575358615e-10 -2.499999800840e-01 4.394433565111e-01
1.249999778633e-01 -2.499999750147e-01 4.394433608963e-01
2.499999721387e-01 -2.499999723065e-01 4.394433736492e-01
-2.499999750902e-01 -1.249999780307e-01 4.394433602757e-01
-1.249999781771e-01 -1.249999781014e-01 4.394433496552e-01
-1.215599605726e-10 -1.249999804750e-01 4.394433468908e-01
1.249999779340e-01 -1.249999781016e-01 4.394433501257e-01
2.499999748471e-01 -1.249999780311e-01 4.394433612169e-01
-2.499999801595e-01 -4.575840195002e-11 4.394433562111e-01
-1.249999805505e-01 -4.585545010623e-11 4.394433467408e-01
-1.214625055130e-10 -4.595253893575e-11 4.394433445828e-01
1.249999803076e-01 -4.604981740465e-11 4.394433472113e-01
2.499999799165e-01 -4.614714851367e-11 4.394433571523e-01
-2.499999750900e-01 1.249999779392e-01 4.394433604463e-01
-1.249999781769e-01 1.249999780097e-01 4.394433498258e-01
-1.213655784620e-10 1.249999803831e-01 4.394433470614e-01
1.249999779342e-01 1.249999780095e-01 4.394433502963e-01
2.499999748473e-01 1.249999779388e-01 4.394433613875e-01
-2.499999723816e-01 2.499999722146e-01 4.394433730492e-01
-1.249999781063e-01 2.499999749228e-01 4.394433607669e-01
-1.212687815207e-10 2.499999799921e-01 4.394433568523e-01
1.249999778637e-01 2.499999749226e-01 4.394433612375e-01
2.499999721391e-01 2.499999722142e-01 4.394433739904e-01
-2.499999661756e-01 -2.499999660217e-01 5.044433713048e-01
-1.249999750724e-01 -2.499999696309e-01 5.044433617279e-01
-2.440074550086e-10 -2.499999755422e-01 5.044433602301e-01
1.249999745843e-01 -2.499999696311e-01 5.044433621984e-01
2.499999656876e-01 -2.499999660221e-01 5.044433722459e-01
-2.499999697846e-01 -1.249999749185e-01 5.044433615779e-01
-1.249999756952e-01 -1.249999755415e-01 5.044433545323e-01
-2.439098566967e-10 -1.249999784662e-01 5.044433546837e-01
1.249999752074e-01 -1.249999755417e-01 5.044433550029e-01
2.499999692967e-01 -1.249999749189e-01 5.044433625190e-01
-2.499999756957e-01 -9.011554347039e-11 5.044433599301e-01
-1.249999786197e-01 -9.021258182827e-11 5.044433545337e-01
-2.438123767676e-10 -9.030965851681e-11 5.044433554985e-01
1.249999781321e-01 -9.040694222014e-11 5.044433550043e-01
2.499999752080e-01 -9.050428006107e-11 5.044433608713e-01
-2.499999697844e-01 1.249999747382e-01 5.044433617485e-01
-1.249999756950e-01 1.249999753611e-01 5.044433547029e-01
-2.437154688103e-10 1.249999782856e-01 5.044433548543e-01
1.249999752075e-01 1.249999753609e-01 5.044433551735e-01
2.499999692969e-01 1.249999747378e-01 5.044433626896e-01
-2.499999661752e-01 2.499999658415e-01 5.044433716460e-01
-1.249999750720e-01 2.499999694504e-01 5.044433620691e-01
-2.436186902867e-10 2.499999753615e-01 5.044433605713e-01
1.249999745847e-01 2.499999694502e-01 5.044433625396e-01
2.499999656880e-01 2.499999658411e-01 5.044433725872e-01
CELLS 128 1152
8 0 1 6 5 25 26 31 30
8 1 2 7 6 26 27 32 31
8 2 3 8 7 27 28 33 32
8 3 4 9 8 28 29 34 33
8 5 6 11 10 30 31 36 35
8 6 7 12 11 31 32 37 36
8 7 8 13 12 32 33 38 37
8 8 9 14 13 33 34 39 38
8 10 11 16 15 35 36 41 40
8 11 12 17 16 36 37 42 41
8 12 13 18 17 37 38 43 42
8 13 14 19 18 38 39 44 43
8 15 16 21 20 40 41 46 45
8 16 17 22 21 41 42 47 46
8 17 18 23 22 42 43 48 47
8 18 19 24 23 43 44 49 48
8 25 26 31 30 50 51 56 55
8 26 27 32 31 51 52 57 56
8 27 28 33 32 52 53 58 57
8 28 29 34 33 53 54 59 58
8 30 31 36 35 55 56 61 60
8 31 32 37 36 56 57 62 61
8 32 33 38 37 57 58 63 62
8 33 34 39 38 58 59 64 63
8 35 36 41 40 60 61 66 65
8 36 37 42 41 61 62 67 66
8 37 38 43 42 62 63 68 67
8 38 39 44 43 63 64 69 68
8 40 41 46 45 65 66 71 70
8 41 42 47 46 66 67 72 71
8 42 43 48 47 67 68 73 72
8 43 44 49 48 68 69 74 73
8 50 51 56 55 75 76 81 80
8 51 52 57 56 76 77 82 81
8 52 53 58 57 77 78 83 82
8 53 54 59 58 78 79 84 83
8 55 56 61 60 80 81 86 85
8 56 57 62 61 81 82 87 86
8 57 58 63 62 82 83 88 87
8 58 59 64 63 83 84 89 88
8 60 61 66 65 85 86 91 90
8 61 62 67 66 86 87 92 91
8 62 63 68 67 87 88 93 92
8 63 64 69 68 88 89 94 93
8 65 66 71 70 90 91 96 95
8 66 67 72 71 91 92 97 96
8 67 68 73 72 92 93 98 97
8 68 69 74 73 93 94 99 98
8 75 76 81 80 100 101 106 105
8 76 77 82 81 101 102 107 106
8 77 78 83 82 102 103 108 107
8 78 79 84 83 103 104 109 108
8 80 81 86 85 105 106 111 110
8 81 82 87 86 106 107 112 111
8 82 83 88 87 107 108 113 112
8 83 84 89 88 108 109 114 113
8 85 86 91 90 110 111 116 115
8 86 87 92 91 111 112 117 116
8 87 88 93 92 112 113 118 117
8 88 89 94 93 113 114 119 118
8 90 91 96 95 115 116 121 120
8 91 92 97 96 116 117 122 121
8 92 93 98 97 117 118 123 122
8 93 94 99 98 118 119 124 123
8 125 126 131 130 150 151 156 155
8 126 127 132 131 151 152 157 156
8 127 128 133 132 152 153 158 157
8 128 129 134 133 153 154 159 158
8 130 131 136 135 155 156 161 160
8 131 132 137 136 156 157 162 161
8 132 133 138 137 157 158 163 162
8 133 134 139 138 158 159 164 163
8 135 136 141 140 160 161 166 165
8 136 137 142 141 161 162 167 166
8 137 138 143 142 162 163 168 167
8 138 139 144 143 163 164 169 168
8 140 141 146 145 165 166 171 170
8 141 142 147 146 166 167 172 171
8 142 143 148 147 167 168 173 172
8 143 144 149 148 168 169 174 173
8 150 151 156 155 175 176 181 180
8 151 152 157 156 176 177 182 181
8 152 153 158 157 177 178 183 182
8 153 154 159 158 178 179 184 183
8 155 156 161 160 180 181 186 185
8 156 157 162 161 181 182 187 186
8 157 158 163 162 182 183 188 187
8 158 159 164 163 183 184 189 188
8 160 161 166 165 185 186 191 190
8 161 162 167 166 186 187 192 191
8 162 163 168 167 187 188 193 192
8 163 164 169 168 188 189 194 193
8 165 166 171 170 190 191 196 195
8 166 167 172 171 191 192 197 196
8 167 168 173 172 192 193 198 197
8 168 169 174 173 193 194 199 198
8 175 176 181 180 200 201 206 205
8 176 177 182 181 201 202 207 206
8 177 178 183 182 202 203 208 207
8 178 179 184 183 203 204 209 208
8 180 181 186 185 205 206 211 210
8 181 182 187 186 206 207 212 211
8 182 183 188 187 207 208 213 212
8 183 184 189 188 208 209 214 213
8 185 186 191 190 210 211 216 215
8 186 187 192 191 211 212 217 216
8 187 188 193 192 212 213 218 217
8 188 189 194 193 213 214 219 218
8 190 191 196 195 215 216 221 220
8 191 192 197 196 216 217 222 221
8 192 193 198 197 217 218 223 222
8 193 194 199 198 218 219 224 223
8 200 201 206 205 225 226 231 230
8 201 202 207 206 226 227 232 231
8 202 203 208 207 227 228 233 232
8 203 204 209 208 228 229 234 233
8 205 206 211 210 230 231 236 235
8 206 207 212 211 231 232 237 236
8 207 208 213 212 232 233 238 237
8 208 209 214 213 233 234 239 238
8 210 211 216 215 235 236 241 240
8 211 212 217 216 236 237 242 241
8 212 213 218 217 237 238 243 242
8 213 214 219 218 238 239 244 243
8 215 216 221 220 240 241 246 245
8 216 217 222 221 241 242 247 246
8 217 218 223 222 242 243 248 247
8 218 219 224 223 243 244 249 248
CELL_TYPES 128
12
12
12
12
12
12
12
12
12
12
12
12
12
12
12
12
12
12
12
12
12
12
12
12
12
12
12
12
12
12
12
12
12
12
12
12
12
12
12
12
12
12
12
12
12
12
12
12
12
12
12
12
12
12
12
12
12
12
12
12
12
12
12
12
12
12
12
12
12
12
12
12
12
12
12
12
12
12
12
12
12
12
12
12
12
12
12
12
12
12
12
12
12
12
12
12
12
12
12
12
12
12
12
12
12
12
12
12
12
12
12
12
12
12
12
12
12
12
12
12
12
12
12
12
12
12
12
12
POINT_DATA 250
VECTORS displacement float
0.000000000000e+00 0.000000000000e+00 0.000000000000e+00
0.000000000000e+00 0.000000000000e+00 0.000000000000e+00
0.000000000000e+00 0.000000000000e+00 0.000000000000e+00
0.000000000000e+00 0.000000000000e+00 0.000000000000e+00
0.000000000000e+00 0.000000000000e+00 0.000000000000e+00
0.000000000000e+00 0.000000000000e+00 0.000000000000e+00
0.000000000000e+00 0.000000000000e+00 0.000000000000e+00
0.000000000000e+00 0.000000000000e+00 0.000000000000e+00
0.000000000000e+00 0.000000000000e+00 0.000000000000e+00
0.000000000000e+00 0.000000000000e+00 0.000000000000e+00
0.000000000000e+00 0.000000000000e+00 0.000000000000e+00
0.000000000000e+00 0.000000000000e+00 0.000000000000e+00
0.000000000000e+00 0.000000000000e+00 0.000000000000e+00
0.000000000000e+00 0.000000000000e+00 0.000000000000e+00
0.000000000000e+00 0.000000000000e+00 0.000000000000e+00
0.000000000000e+00 0.000000000000e+00 0.000000000000e+00
0.000000000000e+00 0.000000000000e+00 0.000000000000e+00
0.000000000000e+00 0.000000000000e+00 0.000000000000e+00
0.000000000000e+00 0.000000000000e+00 0.000000000000e+00
0.000000000000e+00 0.000000000000e+00 0.000000000000e+00
0.000000000000e+00 0.000000000000e+00 0.000000000000e+00
0.000000000000e+00 0.000000000000e+00 0.000000000000e+00
0.000000000000e+00 0.000000000000e+00 0.000000000000e+00
0.000000000000e+00 0.000000000000e+00 0.000000000000e+00
0.000000000000e+00 0.000000000000e+00 0.000000000000e+00
0.000000000000e+00 0.000000000000e+00 0.000000000000e+00
0.000000000000e+00 0.000000000000e+00 0.000000000000e+00
0.000000000000e+00 0.000000000000e+00 0.000000000000e+00
0.000000000000e+00 0.000000000000e+00 0.000000000000e+00
0.000000000000e+00 0.000000000000e+00 0.000000000000e+00
0.000000000000e+00 0.000000000000e+00 0.000000000000e+00
0.000000000000e+00 0.000000000000e+00 0.000000000000e+00
0.000000000000e+00 0.000000000000e+00 0.000000000000e+00
0.000000000000e+00 0.000000000000e+00 0.000000000000e+00
0.000000000000e+00 0.000000000000e+00 0.000000000000e+00
0.000000000000e+00 0.000000000000e+00 0.000000000000e+00
0.000000000000e+00 0.000000000000e+00 0.000000000000e+00
0.000000000000e+00 0.000000000000e+00 0.000000000000e+00
0.000000000000e+00 0.000000000000e+00 0.000000000000e+00
0.000000000000e+00 0.000000000000e+00 0.000000000000e+00
0.000000000000e+00 0.000000000000e+00 0.000000000000e+00
0.000000000000e+00 0.000000000000e+00 0.000000000000e+00
0.000000000000e+00 0.000000000000e+00 0.000000000000e+00
0.000000000000e+00 0.000000000000e+00 0.000000000000e+00
0.000000000000e+00 0.000000000000e+00 0.000000000000e+00
0.000000000000e+00 0.000000000000e+00 0.000000000000e+00
0.000000000000e+00 0.000000000000e+00 0.000000000000e+00
0.000000000000e+00 0.000000000000e+00 0.000000000000e+00
0.000000000000e+00 0.000000000000e+00 0.000000000000e+00
0.000000000000e+00 0.000000000000e+00 0.000000000000e+00
0.000000000000e+00 0.000000000000e+00 0.000000000000e+00
0.000000000000e+00 0.000000000000e+00 0.000000000000e+00
0.000000000000e+00 0.000000000000e+00 0.000000000000e+00
0.000000000000e+00 0.000000000000e+00 0.000000000000e+00
0.000000000000e+00 0.000000000000e+00 0.000000000000e+00
0.000000000000e+00 0.000000000000e+00 0.000000000000e+00
0.000000000000e+00 0.000000000000e+00 0.000000000000e+00
0.000000000000e+00 0.000000000000e+00 0.000000000000e+00
0.000000000000e+00 0.000000000000e+00 0.000000000000e+00
0.000000000000e+00 0.000000000000e+00 0.000000000000e+00
0.000000000000e+00 0.000000000000e+00 0.000000000000e+00
0.000000000000e+00 0.000000000000e+00 0.000000000000e+00
0.000000000000e+00 0.000000000000e+00 0.000000000000e+00
0.000000000000e+00 0.000000000000e+00 0.000000000000e+00
0.000000000000e+00 0.000000000000e+00 0.000000000000e+00
0.000000000000e+00 0.000000000000e+00 0.000000000000e+00
0.000000000000e+00 0.000000000000e+00 0.000000000000e+00
0.000000000000e+00 0.000000000000e+00 0.000000000000e+00
0.000000000000e+00 0.000000000000e+00 0.000000000000e+00
0.000000000000e+00 0.000000000000e+00 0.000000000000e+00
0.000000000000e+00 0.000000000000e+00 0.000000000000e+00
0.000000000000e+00 0.000000000000e+00 0.000000000000e+00
0.000000000000e+00 0.000000000000e+00 0.000000000000e+00
0.000000000000e+00 0.000000000000e+00 0.000000000000e+00
0.000000000000e+00 0.000000000000e+00 0.000000000000e+00
0.000000000000e+00 0.000000000000e+00 0.000000000000e+00
0.000000000000e+00 0.000000000000e+00 0.000000000000e+00
0.000000000000e+00 0.000000000000e+00 0.000000000000e+00
0.000000000000e+00 0.000000000000e+00 0.000000000000e+00
0.000000000000e+00 0.000000000000e+00 0.000000000000e+00
0.000000000000e+00 0.000000000000e+00 0.000000000000e+00
0.000000000000e+00 0.000000000000e+00 0.000000000000e+00
0.000000000000e+00 0.000000000000e+00 0.000000000000e+00
0.000000000000e+00 0.000000000000e+00 0.000000000000e+00
0.000000000000e+00 0.000000000000e+00 0.000000000000e+00
0.000000000000e+00 0.000000000000e+00 0.000000000000e+00
0.000000000000e+00 0.000000000000e+00 0.000000000000e+00
0.000000000000e+00 0.000000000000e+00 0.000000000000e+00
0.000000000000e+00 0.000000000000e+00 0.000000000000e+00
0.000000000000e+00 0.000000000000e+00 0.000000000000e+00
0.000000000000e+00 0.000000000000e+00 0.000000000000e+00
0.000000000000e+00 0.000000000000e+00 0.000000000000e+00
0.000000000000e+00 0.000000000000e+00 0.000000000000e+00
0.000000000000e+00 0.000000000000e+00 0.000000000000e+00
0.000000000000e+00 0.000000000000e+00 0.000000000000e+00
0.000000000000e+00 0.000000000000e+00 0.000000000000e+00
0.000000000000e+00 0.000000000000e+00 0.000000000000e+00
0.000000000000e+00 0.000000000000e+00 0.000000000000e+00
0.000000000000e+00 0.000000000000e+00 0.000000000000e+00
0.000000000000e+00 0.000000000000e+00 0.000000000000e+00
0.000000000000e+00 0.000000000000e+00 0.000000000000e+00
0.000000000000e+00 0.000000000000e+00 0.000000000000e+00
0.000000000000e+00 0.000000000000e+00 0.000000000000e+00
0.000000000000e+00 0.000000000000e+00 0.000000000000e+00
0.000000000000e+00 0.000000000000e+00 0.000000000000e+00
0.000000000000e+00 0.000000000000e+00 0.000000000000e+00
0.000000000000e+00 0.000000000000e+00 0.000000000000e+00
0.000000000000e+00 0.000000000000e+00 0.000000000000e+00
0.000000000000e+00 0.000000000000e+00 0.000000000000e+00
0.000000000000e+00 0.000000000000e+00 0.000000000000e+00
0.000000000000e+00 0.000000000000e+00 0.000000000000e+00
0.000000000000e+00 0.000000000000e+00 0.000000000000e+00
0.000000000000e+00 0.000000000000e+00 0.000000000000e+00
0.000000000000e+00 0.000000000000e+00 0.000000000000e+00
0.000000000000e+00 0.000000000000e+00 0.000000000000e+00
0.000000000000e+00 0.000000000000e+00 0.000000000000e+00
0.000000000000e+00 0.000000000000e+00 0.000000000000e+00
0.000000000000e+00 0.000000000000e+00 0.000000000000e+00
0.000000000000e+00 0.000000000000e+00 0.000000000000e+00
0.000000000000e+00 0.000000000000e+00 0.000000000000e+00
0.000000000000e+00 0.000000000000e+00 0.000000000000e+00
0.000000000000e+00 0.000000000000e+00 0.000000000000e+00
0.000000000000e+00 0.000000000000e+00 0.000000000000e+00
0.000000000000e+00 0.000000000000e+00 0.000000000000e+00
0.000000000000e+00 0.000000000000e+00 0.000000000000e+00
4.238287129401e-09 4.080206998379e-09 -1.055661572590e-02
2.796858300055e-09 2.611395811669e-09 -1.055663604796e-02
2.453936740854e-10 -6.119603137822e-10 -1.055664642461e-02
-2.306070154928e-09 2.611200980889e-09 -1.055663557738e-02
-3.747498185479e-09 4.079816608666e-09 -1.055661478475e-02
2.769671020185e-09 2.638778303883e-09 -1.055663619794e-02
2.484565017813e-09 2.326290089400e-09 -1.055665676089e-02
2.454912388136e-10 2.802436384121e-10 -1.055666715595e-02
-1.993581558521e-09 2.326095274974e-09 -1.055665629031e-02
-2.278686648374e-09 2.638388317041e-09 -1.055663525679e-02
-4.534904562140e-10 8.731354908302e-11 -1.055664672458e-02
4.387132181765e-10 8.721649337729e-11 -1.055666730593e-02
2.455886372513e-10 8.711937646825e-11 -1.055667771896e-02
5.246506160412e-11 8.702210749592e-11 -1.055666683535e-02
9.446695993234e-10 8.692478081784e-11 -1.055664578342e-02
2.769865207799e-09 -2.464150922248e-09 -1.055663602734e-02
2.484759218706e-09 -2.151856749326e-09 -1.055665659028e-02
2.456856014074e-10 -1.060045167785e-10 -1.055666698534e-02
-1.993387034243e-09 -2.152050702145e-09 -1.055665611970e-02
-2.278492115812e-09 -2.464538466014e-09 -1.055663508618e-02
4.238675269634e-09 -3.905579345545e-09 -1.055661538469e-02
2.797246586328e-09 -2.436962125776e-09 -1.055663570675e-02
2.457824064146e-10 7.861997419598e-10 -1.055664608340e-02
-2.305680973138e-09 -2.437156071091e-09 -1.055663523617e-02
-3.747108854987e-09 -3.905966469967e-09 -1.055661444354e-02
1.326895810420e-08 1.318887135530e-08 -1.055661586429e-02
1.091328051147e-08 1.142055419280e-08 -1.055663487756e-02
1.230431961669e-10 7.692741426523e-09 -1.055664433205e-02
-1.066719371244e-08 1.142035929227e-08 -1.055663440698e-02
-1.302287075968e-08 1.318848087990e-08 -1.055661492313e-02
1.150083606515e-08 1.083319373855e-08 -1.055663502755e-02
1.075184481965e-08 1.067156311668e-08 -1.055665388059e-02
1.231407820869e-10 8.638362543192e-09 -1.055666318045e-02
-1.050556266376e-08 1.067136838356e-08 -1.055665341002e-02
-1.125455320861e-08 1.083280387891e-08 -1.055663408639e-02
7.773217983031e-09 4.295619999681e-11 -1.055664463203e-02
8.718838887645e-09 4.285915760486e-11 -1.055666333044e-02
1.232381958765e-10 4.276204889142e-11 -1.055667269672e-02
-8.472361869166e-09 4.266477651340e-11 -1.055666285986e-02
-7.526740284054e-09 4.256744505162e-11 -1.055664369087e-02
1.150103024300e-08 -1.074728118797e-08 -1.055663485694e-02
1.075203905844e-08 -1.058584458698e-08 -1.055665370999e-02
1.233351486874e-10 -8.552838213894e-09 -1.055666300984e-02
-1.050536816426e-08 -1.058603861141e-08 -1.055665323941e-02
-1.125435864345e-08 -1.074766884151e-08 -1.055663391579e-02
1.326934622239e-08 -1.310295860188e-08 -1.055661552308e-02
1.091366885205e-08 -1.133483541205e-08 -1.055663453635e-02
1.234319413226e-10 -7.607216846117e-09 -1.055664399084e-02
-1.066680457154e-08 -1.133502926348e-08 -1.055663406577e-02
-1.302248139736e-08 -1.310334564094e-08 -1.055661458192e-02
2.022747375403e-08 2.022538027142e-08 -1.055662100788e-02
1.737461864616e-08 1.804820599728e-08 -1.055663684645e-02
6.926497373088e-13 1.367251335406e-08 -1.055664376041e-02
-1.737323313266e-08 1.804801104497e-08 -1.055663637587e-02
-2.022608772064e-08 2.022498974810e-08 -1.055662006672e-02
1.805049460885e-08 1.737252507438e-08 -1.055663699644e-02
1.732103565523e-08 1.731874716637e-08 -1.055665203948e-02
7.902378055764e-13 1.520066963539e-08 -1.055665836665e-02
-1.731945477962e-08 1.731855253071e-08 -1.055665156890e-02
-1.804891302590e-08 1.737213535150e-08 -1.055663605528e-02
1.367499670530e-08 -1.401167077876e-12 -1.055664406038e-02
1.520315275412e-08 -1.498209868116e-12 -1.055665851664e-02
8.876674434579e-13 -1.595310071493e-12 -1.055666462558e-02
-1.520137697030e-08 -1.692584504051e-12 -1.055665804606e-02
-1.367322019931e-08 -1.789917117435e-12 -1.055664311923e-02
1.805068877796e-08 -1.737532732929e-08 -1.055663682583e-02
1.732122993779e-08 -1.732174343746e-08 -1.055665186887e-02
9.846113192462e-13 -1.520386008768e-08 -1.055665819605e-02
-1.731926031265e-08 -1.732193755188e-08 -1.055665139829e-02
-1.804871844694e-08 -1.737571510732e-08 -1.055663588468e-02
2.022786185848e-08 -2.022818233512e-08 -1.055662066667e-02
1.737500704530e-08 -1.805120200854e-08 -1.055663650524e-02
1.081398641894e-12 -1.367570354399e-08 -1.055664341920e-02
-1.737284403613e-08 -1.805139580949e-08 -1.055663603466e-02
-2.022569833289e-08 -2.022856931192e-08 -1.055661972551e-02
2.761798328398e-08 2.769388287292e-08 -1.055662729199e-02
2.189335743071e-08 2.498548641040e-08 -1.055663957431e-02
-1.216575358615e-10 1.991603710767e-08 -1.055664348891e-02
-2.213667254323e-08 2.498529158800e-08 -1.055663910373e-02
-2.786129824678e-08 2.769349262770e-08 -1.055662635084e-02
2.490978190926e-08 2.196925684858e-08 -1.055663972430e-02
2.182288362916e-08 2.189858814581e-08 -1.055665034483e-02
-1.215599605726e-10 1.952502869787e-08 -1.055665310925e-02
-2.206600339703e-08 2.189839361390e-08 -1.055664987426e-02
-2.515290133707e-08 2.196886727350e-08 -1.055663878314e-02
1.984052732744e-08 -4.575840195002e-11 -1.055664378888e-02
1.944951879824e-08 -4.585545010623e-11 -1.055665325923e-02
-1.214625055130e-10 -4.595253893575e-11 -1.055665541722e-02
-1.969244359953e-08 -4.604981740465e-11 -1.055665278866e-02
-2.008345175022e-08 -4.614714851367e-11 -1.055664284773e-02
2.490997613248e-08 -2.206077366715e-08 -1.055663955369e-02
2.182307795586e-08 -2.199029898921e-08 -1.055665017423e-02
-1.213655784620e-10 -1.961693369846e-08 -1.055665293864e-02
-2.206580896310e-08 -2.199049320015e-08 -1.055664970365e-02
-2.515270679783e-08 -2.206116157923e-08 -1.055663861254e-02
2.761837150340e-08 -2.778539963738e-08 -1.055662695078e-02
2.189374589101e-08 -2.507719712646e-08 -1.055663923310e-02
-1.212687815207e-10 -2.000794197345e-08 -1.055664314770e-02
-2.213628349133e-08 -2.507739105228e-08 -1.055663876252e-02
-2.786090895307e-08 -2.778578687619e-08 -1.055662600963e-02
3.382438098814e-08 3.397827360128e-08 -1.055662869521e-02
2.492764293425e-08 3.036913734325e-08 -1.055663827215e-02
-2.440074550086e-10 2.445783192212e-08 -1.055663976992e-02
-2.541565835457e-08 3.036894266854e-08 -1.055663780157e-02
-3.431239686120e-08 3.397788367975e-08 -1.055662775405e-02
3.021543977665e-08 2.508153523008e-08 -1.055663842214e-02
2.430482495906e-08 2.445852236310e-08 -1.055664546772e-02
-2.439098566967e-10 2.153381056010e-08 -1.055664531630e-02
-2.479264498617e-08 2.445832793252e-08 -1.055664499715e-02
-3.070326006878e-08 2.508114582328e-08 -1.055663748098e-02
2.430432906541e-08 -9.011554347039e-11 -1.055664006989e-02
2.138030776243e-08 -9.021258182827e-11 -1.055664546629e-02
-2.438123767676e-10 -9.030965851681e-11 -1.055664450150e-02
-2.186793276613e-08 -9.040694222014e-11 -1.055664499571e-02
-2.479195427368e-08 -9.050428006107e-11 -1.055663912874e-02
3.021563406525e-08 -2.526176650073e-08 -1.055663825153e-02
2.430501932936e-08 -2.463894763789e-08 -1.055664529712e-02
-2.437154688103e-10 -2.171442997142e-08 -1.055664514570e-02
-2.479245058378e-08 -2.463914194020e-08 -1.055664482654e-02
-3.070306557388e-08 -2.526215456258e-08 -1.055663731038e-02
3.382476933250e-08 -3.415850503282e-08 -1.055662835400e-02
2.492803146108e-08 -3.054956270983e-08 -1.055663793094e-02
-2.436186902867e-10 -2.463845141896e-08 -1.055663942871e-02
-2.541526934675e-08 -3.054975676941e-08 -1.055663746036e-02
-3.431200766840e-08 -3.415889258349e-08 -1.055662741284e-02
SCALARS displacement_magnitude float 1
LOOKUP_TABLE default
0.000000000000e+00
0.000000000000e+00
0.000000000000e+00
0.000000000000e+00
0.000000000000e+00
0.000000000000e+00
0.000000000000e+00
0.000000000000e+00
0.000000000000e+00
0.000000000000e+00
0.000000000000e+00
0.000000000000e+00
0.000000000000e+00
0.000000000000e+00
0.000000000000e+00
0.000000000000e+00
0.000000000000e+00
0.000000000000e+00
0.000000000000e+00
0.000000000000e+00
0.000000000000e+00
0.000000000000e+00
0.000000000000e+00
0.000000000000e+00
0.000000000000e+00
0.000000000000e+00
0.000000000000e+00
0.000000000000e+00
0.000000000000e+00
0.000000000000e+00
0.000000000000e+00
0.000000000000e+00
0.000000000000e+00
0.000000000000e+00
0.000000000000e+00
0.000000000000e+00
0.000000000000e+00
0.000000000000e+00
0.000000000000e+00
0.000000000000e+00
0.000000000000e+00
0.000000000000e+00
0.000000000000e+00
0.000000000000e+00
0.000000000000e+00
0.000000000000e+00
0.000000000000e+00
0.000000000000e+00
0.000000000000e+00
0.000000000000e+00
0.000000000000e+00
0.000000000000e+00
0.000000000000e+00
0.000000000000e+00
0.000000000000e+00
0.000000000000e+00
0.000000000000e+00
0.000000000000e+00
0.000000000000e+00
0.000000000000e+00
0.000000000000e+00
0.000000000000e+00
0.000000000000e+00
0.000000000000e+00
0.000000000000e+00
0.000000000000e+00
0.000000000000e+00
0.000000000000e+00
0.000000000000e+00
0.000000000000e+00
0.000000000000e+00
0.000000000000e+00
0.000000000000e+00
0.000000000000e+00
0.000000000000e+00
0.000000000000e+00
0.000000000000e+00
0.000000000000e+00
0.000000000000e+00
0.000000000000e+00
0.000000000000e+00
0.000000000000e+00
0.000000000000e+00
0.000000000000e+00
0.000000000000e+00
0.000000000000e+00
0.000000000000e+00
0.000000000000e+00
0.000000000000e+00
0.000000000000e+00
0.000000000000e+00
0.000000000000e+00
0.000000000000e+00
0.000000000000e+00
0.000000000000e+00
0.000000000000e+00
0.000000000000e+00
0.000000000000e+00
0.000000000000e+00
0.000000000000e+00
0.000000000000e+00
0.000000000000e+00
0.000000000000e+00
0.000000000000e+00
0.000000000000e+00
0.000000000000e+00
0.000000000000e+00
0.000000000000e+00
0.000000000000e+00
0.000000000000e+00
0.000000000000e+00
0.000000000000e+00
0.000000000000e+00
0.000000000000e+00
0.000000000000e+00
0.000000000000e+00
0.000000000000e+00
0.000000000000e+00
0.000000000000e+00
0.000000000000e+00
0.000000000000e+00
0.000000000000e+00
0.000000000000e+00
0.000000000000e+00
0.000000000000e+00
1.055661572591e-02
1.055663604796e-02
1.055664642461e-02
1.055663557738e-02
1.055661478475e-02
1.055663619795e-02
1.055665676089e-02
1.055666715595e-02
1.055665629031e-02
1.055663525679e-02
1.055664672458e-02
1.055666730593e-02
1.055667771896e-02
1.055666683535e-02
1.055664578342e-02
1.055663602734e-02
1.055665659028e-02
1.055666698534e-02
1.055665611970e-02
1.055663508618e-02
1.055661538470e-02
1.055663570675e-02
1.055664608340e-02
1.055663523617e-02
1.055661444354e-02
1.055661586431e-02
1.055663487757e-02
1.055664433206e-02
1.055663440700e-02
1.055661492315e-02
1.055663502756e-02
1.055665388060e-02
1.055666318045e-02
1.055665341003e-02
1.055663408640e-02
1.055664463203e-02
1.055666333044e-02
1.055667269672e-02
1.055666285986e-02
1.055664369087e-02
1.055663485696e-02
1.055665371000e-02
1.055666300985e-02
1.055665323942e-02
1.055663391580e-02
1.055661552310e-02
1.055663453636e-02
1.055664399085e-02
1.055663406579e-02
1.055661458194e-02
1.055662100792e-02
1.055663684648e-02
1.055664376042e-02
1.055663637590e-02
1.055662006676e-02
1.055663699647e-02
1.055665203950e-02
1.055665836666e-02
1.055665156893e-02
1.055663605531e-02
1.055664406039e-02
1.055665851665e-02
1.055666462558e-02
1.055665804607e-02
1.055664311924e-02
1.055663682586e-02
1.055665186890e-02
1.055665819606e-02
1.055665139832e-02
1.055663588471e-02
1.055662066671e-02
1.055663650527e-02
1.055664341921e-02
1.055663603469e-02
1.055661972555e-02
1.055662729207e-02
1.055663957436e-02
1.055664348893e-02
1.055663910379e-02
1.055662635091e-02
1.055663972435e-02
1.055665034488e-02
1.055665310926e-02
1.055664987430e-02
1.055663878319e-02
1.055664378890e-02
1.055665325925e-02
1.055665541722e-02
1.055665278867e-02
1.055664284774e-02
1.055663955375e-02
1.055665017428e-02
1.055665293866e-02
1.055664970370e-02
1.055663861259e-02
1.055662695086e-02
1.055663923315e-02
1.055664314772e-02
1.055663876258e-02
1.055662600970e-02
1.055662869532e-02
1.055663827222e-02
1.055663976995e-02
1.055663780165e-02
1.055662775416e-02
1.055663842221e-02
1.055664546778e-02
1.055664531632e-02
1.055664499720e-02
1.055663748105e-02
1.055664006992e-02
1.055664546631e-02
1.055664450150e-02
1.055664499573e-02
1.055663912877e-02
1.055663825160e-02
1.055664529717e-02
1.055664514572e-02
1.055664482660e-02
1.055663731045e-02
1.055662835411e-02
1.055663793101e-02
1.055663942874e-02
1.055663746044e-02
1.055662741296e-02
CELL_DATA 128
SCALARS displacement_magnitude float 1
LOOKUP_TABLE default
0.000000000000e+00
0.000000000000e+00
0.000000000000e+00
0.000000000000e+00
0.000000000000e+00
0.000000000000e+00
0.000000000000e+00
0.000000000000e+00
0.000000000000e+00
0.000000000000e+00
0.000000000000e+00
0.000000000000e+00
0.000000000000e+00
0.000000000000e+00
0.000000000000e+00
0.000000000000e+00
0.000000000000e+00
0.000000000000e+00
0.000000000000e+00
0.000000000000e+00
0.000000000000e+00
0.000000000000e+00
0.000000000000e+00
0.000000000000e+00
0.000000000000e+00
0.000000000000e+00
0.000000000000e+00
0.000000000000e+00
0.000000000000e+00
0.000000000000e+00
0.000000000000e+00
0.000000000000e+00
0.000000000000e+00
0.000000000000e+00
0.000000000000e+00
0.000000000000e+00
0.000000000000e+00
0.000000000000e+00
0.000000000000e+00
0.000000000000e+00
0.000000000000e+00
0.000000000000e+00
0.000000000000e+00
0.000000000000e+00
0.000000000000e+00
0.000000000000e+00
0.000000000000e+00
0.000000000000e+00
0.000000000000e+00
0.000000000000e+00
0.000000000000e+00
0.000000000000e+00
0.000000000000e+00
0.000000000000e+00
0.000000000000e+00
0.000000000000e+00
0.000000000000e+00
0.000000000000e+00
0.000000000000e+00
0.000000000000e+00
0.000000000000e+00
0.000000000000e+00
0.000000000000e+00
0.000000000000e+00
1.055663554784e-02
1.055665033251e-02
1.055665009722e-02
1.055663484198e-02
1.055665048250e-02
1.055666525374e-02
1.055666501845e-02
1.055664977663e-02
1.055665039719e-02
1.055666516844e-02
1.055666493315e-02
1.055664969133e-02
1.055663529194e-02
1.055665007660e-02
1.055664984131e-02
1.055663458607e-02
1.055663581755e-02
1.055664841047e-02
1.055664817518e-02
1.055663511169e-02
1.055664856046e-02
1.055666082958e-02
1.055666059429e-02
1.055664785459e-02
1.055664847515e-02
1.055666074427e-02
1.055666050899e-02
1.055664776929e-02
1.055663556164e-02
1.055664815456e-02
1.055664791927e-02
1.055663485578e-02
1.055663797825e-02
1.055664719131e-02
1.055664695602e-02
1.055663727239e-02
1.055664734130e-02
1.055665570988e-02
1.055665547459e-02
1.055664663543e-02
1.055664725600e-02
1.055665562457e-02
1.055665538928e-02
1.055664655013e-02
1.055663772235e-02
1.055664693541e-02
1.055664670012e-02
1.055663701648e-02
1.055663847415e-02
1.055664441796e-02
1.055664418267e-02
1.055663776828e-02
1.055664456795e-02
1.055664911031e-02
1.055664887503e-02
1.055664386208e-02
1.055664448265e-02
1.055664902501e-02
1.055664878973e-02
1.055664377678e-02
1.055663821824e-02
1.055664416206e-02
1.055664392677e-02
1.055663751238e-02
SCALARS engineering_strain_norm float 1
LOOKUP_TABLE default
0.000000000000e+00
0.000000000000e+00
0.000000000000e+00
0.000000000000e+00
0.000000000000e+00
0.000000000000e+00
0.000000000000e+00
0.000000000000e+00
0.000000000000e+00
0.000000000000e+00
0.000000000000e+00
0.000000000000e+00
0.000000000000e+00
0.000000000000e+00
0.000000000000e+00
0.000000000000e+00
0.000000000000e+00
0.000000000000e+00
0.000000000000e+00
0.000000000000e+00
0.000000000000e+00
0.000000000000e+00
0.000000000000e+00
0.000000000000e+00
0.000000000000e+00
0.000000000000e+00
0.000000000000e+00
0.000000000000e+00
0.000000000000e+00
0.000000000000e+00
0.000000000000e+00
0.000000000000e+00
0.000000000000e+00
0.000000000000e+00
0.000000000000e+00
0.000000000000e+00
0.000000000000e+00
0.000000000000e+00
0.000000000000e+00
0.000000000000e+00
0.000000000000e+00
0.000000000000e+00
0.000000000000e+00
0.000000000000e+00
0.000000000000e+00
0.000000000000e+00
0.000000000000e+00
0.000000000000e+00
0.000000000000e+00
0.000000000000e+00
0.000000000000e+00
0.000000000000e+00
0.000000000000e+00
0.000000000000e+00
0.000000000000e+00
0.000000000000e+00
0.000000000000e+00
0.000000000000e+00
0.000000000000e+00
0.000000000000e+00
0.000000000000e+00
0.000000000000e+00
0.000000000000e+00
0.000000000000e+00
4.646855831817e-08
7.678728605782e-08
7.678728029513e-08
4.646855557687e-08
7.678728634633e-08
9.090688800473e-08
9.090688113022e-08
7.678727955502e-08
7.678728429715e-08
9.090688546337e-08
9.090687858926e-08
7.678727750048e-08
4.646855733183e-08
7.678728354772e-08
7.678727781338e-08
4.646855455942e-08
6.260873009024e-08
1.230668498540e-07
1.230668456558e-07
6.260873399437e-08
1.230668505479e-07
1.663744771919e-07
1.663744713929e-07
1.230668442180e-07
1.230668490473e-07
1.663744750445e-07
1.663744692275e-07
1.230668426831e-07
6.260873154920e-08
1.230668475879e-07
1.230668433759e-07
6.260873536552e-08
6.144879871406e-08
1.616770102362e-07
1.616770088456e-07
6.144880433749e-08
1.616770114465e-07
2.257645359515e-07
2.257645326200e-07
1.616770063627e-07
1.616770109459e-07
2.257645347463e-07
2.257645314231e-07
1.616770058636e-07
6.144880078014e-08
1.616770084382e-07
1.616770070476e-07
6.144880633995e-08
7.850708233214e-08
2.040113130877e-07
2.040113147534e-07
7.850708076781e-08
2.040113150240e-07
2.768937983706e-07
2.768937981548e-07
2.040113107600e-07
2.040113156353e-07
2.768937983288e-07
2.768937981458e-07
2.040113113554e-07
7.850708177660e-08
2.040113116114e-07
2.040113132427e-07
7.850708014367e-08
SCALARS von_mises float 1
LOOKUP_TABLE default
0.000000000000e+00
0.000000000000e+00
0.000000000000e+00
0.000000000000e+00
0.000000000000e+00
0.000000000000e+00
0.000000000000e+00
0.000000000000e+00
0.000000000000e+00
0.000000000000e+00
0.000000000000e+00
0.000000000000e+00
0.000000000000e+00
0.000000000000e+00
0.000000000000e+00
0.000000000000e+00
0.000000000000e+00
0.000000000000e+00
0.000000000000e+00
0.000000000000e+00
0.000000000000e+00
0.000000000000e+00
0.000000000000e+00
0.000000000000e+00
0.000000000000e+00
0.000000000000e+00
0.000000000000e+00
0.000000000000e+00
0.000000000000e+00
0.000000000000e+00
0.000000000000e+00
0.000000000000e+00
0.000000000000e+00
0.000000000000e+00
0.000000000000e+00
0.000000000000e+00
0.000000000000e+00
0.000000000000e+00
0.000000000000e+00
0.000000000000e+00
0.000000000000e+00
0.000000000000e+00
0.000000000000e+00
0.000000000000e+00
0.000000000000e+00
0.000000000000e+00
0.000000000000e+00
0.000000000000e+00
0.000000000000e+00
0.000000000000e+00
0.000000000000e+00
0.000000000000e+00
0.000000000000e+00
0.000000000000e+00
0.000000000000e+00
0.000000000000e+00
0.000000000000e+00
0.000000000000e+00
0.000000000000e+00
0.000000000000e+00
0.000000000000e+00
0.000000000000e+00
0.000000000000e+00
0.000000000000e+00
3.479552447291e-03
6.683995509068e-03
6.683994995904e-03
3.479552071690e-03
6.683995552415e-03
8.238873794629e-03
8.238873245645e-03
6.683994888820e-03
6.683995369836e-03
8.238873592842e-03
8.238873041433e-03
6.683994703757e-03
3.479552311636e-03
6.683995263823e-03
6.683994751868e-03
3.479551932484e-03
3.688676866912e-03
1.004827266657e-02
1.004827227128e-02
3.688677300002e-03
1.004827275920e-02
1.384031168661e-02
1.384031116505e-02
1.004827207788e-02
1.004827261632e-02
1.384031149222e-02
1.384031096850e-02
1.004827193087e-02
3.688677027489e-03
1.004827242086e-02
1.004827202437e-02
3.688677453861e-03
2.411220460963e-03
1.283547750932e-02
1.283547729035e-02
2.411221153274e-03
1.283547766357e-02
1.776844917851e-02
1.776844877253e-02
1.283547697303e-02
1.283547758297e-02
1.776844903212e-02
1.776844862702e-02
1.283547689380e-02
2.411220714528e-03
1.283547726491e-02
1.283547704512e-02
2.411221399563e-03
5.884527856893e-03
1.739053589894e-02
1.739053598257e-02
5.884527514262e-03
1.739053608947e-02
2.283164503833e-02
2.283164495249e-02
1.739053558834e-02
1.739053611921e-02
2.283164501092e-02
2.283164492968e-02
1.739053561787e-02
5.884527733760e-03
1.739053572494e-02
1.739053580468e-02
5.884527387440e-03
SCALARS sdf_gap float 1
LOOKUP_TABLE default
0.000000000000e+00
0.000000000000e+00
0.000000000000e+00
0.000000000000e+00
0.000000000000e+00
0.000000000000e+00
0.000000000000e+00
0.000000000000e+00
0.000000000000e+00
0.000000000000e+00
0.000000000000e+00
0.000000000000e+00
0.000000000000e+00
0.000000000000e+00
0.000000000000e+00
0.000000000000e+00
0.000000000000e+00
0.000000000000e+00
0.000000000000e+00
0.000000000000e+00
0.000000000000e+00
0.000000000000e+00
0.000000000000e+00
0.000000000000e+00
0.000000000000e+00
0.000000000000e+00
0.000000000000e+00
0.000000000000e+00
0.000000000000e+00
0.000000000000e+00
0.000000000000e+00
0.000000000000e+00
0.000000000000e+00
0.000000000000e+00
0.000000000000e+00
0.000000000000e+00
0.000000000000e+00
0.000000000000e+00
0.000000000000e+00
0.000000000000e+00
0.000000000000e+00
0.000000000000e+00
0.000000000000e+00
0.000000000000e+00
0.000000000000e+00
0.000000000000e+00
0.000000000000e+00
0.000000000000e+00
0.000000000000e+00
0.000000000000e+00
0.000000000000e+00
0.000000000000e+00
0.000000000000e+00
0.000000000000e+00
0.000000000000e+00
0.000000000000e+00
0.000000000000e+00
0.000000000000e+00
0.000000000000e+00
0.000000000000e+00
0.000000000000e+00
0.000000000000e+00
0.000000000000e+00
0.000000000000e+00
4.443363816827e-03
4.443348402651e-03
4.443348637940e-03
4.443364522694e-03
4.443348252664e-03
4.443332764569e-03
4.443332999858e-03
4.443348958532e-03
4.443348337967e-03
4.443332849871e-03
4.443333085160e-03
4.443349043834e-03
4.443364072734e-03
4.443348658559e-03
4.443348893848e-03
4.443364778602e-03
0.000000000000e+00
0.000000000000e+00
0.000000000000e+00
0.000000000000e+00
0.000000000000e+00
0.000000000000e+00
0.000000000000e+00
0.000000000000e+00
0.000000000000e+00
0.000000000000e+00
0.000000000000e+00
0.000000000000e+00
0.000000000000e+00
0.000000000000e+00
0.000000000000e+00
0.000000000000e+00
0.000000000000e+00
0.000000000000e+00
0.000000000000e+00
0.000000000000e+00
0.000000000000e+00
0.000000000000e+00
0.000000000000e+00
0.000000000000e+00
0.000000000000e+00
0.000000000000e+00
0.000000000000e+00
0.000000000000e+00
0.000000000000e+00
0.000000000000e+00
0.000000000000e+00
0.000000000000e+00
0.000000000000e+00
0.000000000000e+00
0.000000000000e+00
0.000000000000e+00
0.000000000000e+00
0.000000000000e+00
0.000000000000e+00
0.000000000000e+00
0.000000000000e+00
0.000000000000e+00
0.000000000000e+00
0.000000000000e+00
0.000000000000e+00
0.000000000000e+00
0.000000000000e+00
0.000000000000e+00
SCALARS contact_pressure float 1
LOOKUP_TABLE default
0.000000000000e+00
0.000000000000e+00
0.000000000000e+00
0.000000000000e+00
0.000000000000e+00
0.000000000000e+00
0.000000000000e+00
0.000000000000e+00
0.000000000000e+00
0.000000000000e+00
0.000000000000e+00
0.000000000000e+00
0.000000000000e+00
0.000000000000e+00
0.000000000000e+00
0.000000000000e+00
0.000000000000e+00
0.000000000000e+00
0.000000000000e+00
0.000000000000e+00
0.000000000000e+00
0.000000000000e+00
0.000000000000e+00
0.000000000000e+00
0.000000000000e+00
0.000000000000e+00
0.000000000000e+00
0.000000000000e+00
0.000000000000e+00
0.000000000000e+00
0.000000000000e+00
0.000000000000e+00
0.000000000000e+00
0.000000000000e+00
0.000000000000e+00
0.000000000000e+00
0.000000000000e+00
0.000000000000e+00
0.000000000000e+00
0.000000000000e+00
0.000000000000e+00
0.000000000000e+00
0.000000000000e+00
0.000000000000e+00
0.000000000000e+00
0.000000000000e+00
0.000000000000e+00
0.000000000000e+00
0.000000000000e+00
0.000000000000e+00
0.000000000000e+00
0.000000000000e+00
0.000000000000e+00
0.000000000000e+00
0.000000000000e+00
0.000000000000e+00
0.000000000000e+00
0.000000000000e+00
0.000000000000e+00
0.000000000000e+00
0.000000000000e+00
0.000000000000e+00
0.000000000000e+00
0.000000000000e+00
0.000000000000e+00
0.000000000000e+00
0.000000000000e+00
0.000000000000e+00
0.000000000000e+00
0.000000000000e+00
0.000000000000e+00
0.000000000000e+00
0.000000000000e+00
0.000000000000e+00
0.000000000000e+00
0.000000000000e+00
0.000000000000e+00
0.000000000000e+00
0.000000000000e+00
0.000000000000e+00
0.000000000000e+00
0.000000000000e+00
0.000000000000e+00
0.000000000000e+00
0.000000000000e+00
0.000000000000e+00
0.000000000000e+00
0.000000000000e+00
0.000000000000e+00
0.000000000000e+00
0.000000000000e+00
0.000000000000e+00
0.000000000000e+00
0.000000000000e+00
0.000000000000e+00
0.000000000000e+00
0.000000000000e+00
0.000000000000e+00
0.000000000000e+00
0.000000000000e+00
0.000000000000e+00
0.000000000000e+00
0.000000000000e+00
0.000000000000e+00
0.000000000000e+00
0.000000000000e+00
0.000000000000e+00
0.000000000000e+00
0.000000000000e+00
0.000000000000e+00
0.000000000000e+00
0.000000000000e+00
0.000000000000e+00
0.000000000000e+00
0.000000000000e+00
0.000000000000e+00
0.000000000000e+00
0.000000000000e+00
0.000000000000e+00
0.000000000000e+00
0.000000000000e+00
0.000000000000e+00
0.000000000000e+00
0.000000000000e+00
0.000000000000e+00
0.000000000000e+00
0.000000000000e+00
0.000000000000e+00
SCALARS active_contact float 1
LOOKUP_TABLE default
0.000000000000e+00
0.000000000000e+00
0.000000000000e+00
0.000000000000e+00
0.000000000000e+00
0.000000000000e+00
0.000000000000e+00
0.000000000000e+00
0.000000000000e+00
0.000000000000e+00
0.000000000000e+00
0.000000000000e+00
0.000000000000e+00
0.000000000000e+00
0.000000000000e+00
0.000000000000e+00
0.000000000000e+00
0.000000000000e+00
0.000000000000e+00
0.000000000000e+00
0.000000000000e+00
0.000000000000e+00
0.000000000000e+00
0.000000000000e+00
0.000000000000e+00
0.000000000000e+00
0.000000000000e+00
0.000000000000e+00
0.000000000000e+00
0.000000000000e+00
0.000000000000e+00
0.000000000000e+00
0.000000000000e+00
0.000000000000e+00
0.000000000000e+00
0.000000000000e+00
0.000000000000e+00
0.000000000000e+00
0.000000000000e+00
0.000000000000e+00
0.000000000000e+00
0.000000000000e+00
0.000000000000e+00
0.000000000000e+00
0.000000000000e+00
0.000000000000e+00
0.000000000000e+00
0.000000000000e+00
0.000000000000e+00
0.000000000000e+00
0.000000000000e+00
0.000000000000e+00
0.000000000000e+00
0.000000000000e+00
0.000000000000e+00
0.000000000000e+00
0.000000000000e+00
0.000000000000e+00
0.000000000000e+00
0.000000000000e+00
0.000000000000e+00
0.000000000000e+00
0.000000000000e+00
0.000000000000e+00
0.000000000000e+00
0.000000000000e+00
0.000000000000e+00
0.000000000000e+00
0.000000000000e+00
0.000000000000e+00
0.000000000000e+00
0.000000000000e+00
0.000000000000e+00
0.000000000000e+00
0.000000000000e+00
0.000000000000e+00
0.000000000000e+00
0.000000000000e+00
0.000000000000e+00
0.000000000000e+00
0.000000000000e+00
0.000000000000e+00
0.000000000000e+00
0.000000000000e+00
0.000000000000e+00
0.000000000000e+00
0.000000000000e+00
0.000000000000e+00
0.000000000000e+00
0.000000000000e+00
0.000000000000e+00
0.000000000000e+00
0.000000000000e+00
0.000000000000e+00
0.000000000000e+00
0.000000000000e+00
0.000000000000e+00
0.000000000000e+00
0.000000000000e+00
0.000000000000e+00
0.000000000000e+00
0.000000000000e+00
0.000000000000e+00
0.000000000000e+00
0.000000000000e+00
0.000000000000e+00
0.000000000000e+00
0.000000000000e+00
0.000000000000e+00
0.000000000000e+00
0.000000000000e+00
0.000000000000e+00
0.000000000000e+00
0.000000000000e+00
0.000000000000e+00
0.000000000000e+00
0.000000000000e+00
0.000000000000e+00
0.000000000000e+00
0.000000000000e+00
0.000000000000e+00
0.000000000000e+00
0.000000000000e+00
0.000000000000e+00
0.000000000000e+00
0.000000000000e+00
0.000000000000e+00
0.000000000000e+00
