# vtk DataFile Version 3.0
SFC long-time C3D8 dynamic frame 19 t=3.800000000000e-01
ASCII
DATASET UNSTRUCTURED_GRID
POINTS 250 float
-2.500000000000e-01 -2.500000000000e-01 0.000000000000e+00
-1.250000000000e-01 -2.500000000000e-01 0.000000000000e+00
0.000000000000e+00 -2.500000000000e-01 0.000000000000e+00
1.250000000000e-01 -2.500000000000e-01 0.000000000000e+00
2.500000000000e-01 -2.500000000000e-01 0.000000000000e+00
-2.500000000000e-01 -1.250000000000e-01 0.000000000000e+00
-1.250000000000e-01 -1.250000000000e-01 0.000000000000e+00
0.000000000000e+00 -1.250000000000e-01 0.000000000000e+00
1.250000000000e-01 -1.250000000000e-01 0.000000000000e+00
2.500000000000e-01 -1.250000000000e-01 0.000000000000e+00
-2.500000000000e-01 0.000000000000e+00 0.000000000000e+00
-1.250000000000e-01 0.000000000000e+00 0.000000000000e+00
0.000000000000e+00 0.000000000000e+00 0.000000000000e+00
1.250000000000e-01 0.000000000000e+00 0.000000000000e+00
2.500000000000e-01 0.000000000000e+00 0.000000000000e+00
-2.500000000000e-01 1.250000000000e-01 0.000000000000e+00
-1.250000000000e-01 1.250000000000e-01 0.000000000000e+00
0.000000000000e+00 1.250000000000e-01 0.000000000000e+00
1.250000000000e-01 1.250000000000e-01 0.000000000000e+00
2.500000000000e-01 1.250000000000e-01 0.000000000000e+00
-2.500000000000e-01 2.500000000000e-01 0.000000000000e+00
-1.250000000000e-01 2.500000000000e-01 0.000000000000e+00
0.000000000000e+00 2.500000000000e-01 0.000000000000e+00
1.250000000000e-01 2.500000000000e-01 0.000000000000e+00
2.500000000000e-01 2.500000000000e-01 0.000000000000e+00
-2.500000000000e-01 -2.500000000000e-01 6.000000000000e-02
-1.250000000000e-01 -2.500000000000e-01 6.000000000000e-02
0.000000000000e+00 -2.500000000000e-01 6.000000000000e-02
1.250000000000e-01 -2.500000000000e-01 6.000000000000e-02
2.500000000000e-01 -2.500000000000e-01 6.000000000000e-02
-2.500000000000e-01 -1.250000000000e-01 6.000000000000e-02
-1.250000000000e-01 -1.250000000000e-01 6.000000000000e-02
0.000000000000e+00 -1.250000000000e-01 6.000000000000e-02
1.250000000000e-01 -1.250000000000e-01 6.000000000000e-02
2.500000000000e-01 -1.250000000000e-01 6.000000000000e-02
-2.500000000000e-01 0.000000000000e+00 6.000000000000e-02
-1.250000000000e-01 0.000000000000e+00 6.000000000000e-02
0.000000000000e+00 0.000000000000e+00 6.000000000000e-02
1.250000000000e-01 0.000000000000e+00 6.000000000000e-02
2.500000000000e-01 0.000000000000e+00 6.000000000000e-02
-2.500000000000e-01 1.250000000000e-01 6.000000000000e-02
-1.250000000000e-01 1.250000000000e-01 6.000000000000e-02
0.000000000000e+00 1.250000000000e-01 6.000000000000e-02
1.250000000000e-01 1.250000000000e-01 6.000000000000e-02
2.500000000000e-01 1.250000000000e-01 6.000000000000e-02
-2.500000000000e-01 2.500000000000e-01 6.000000000000e-02
-1.250000000000e-01 2.500000000000e-01 6.000000000000e-02
0.000000000000e+00 2.500000000000e-01 6.000000000000e-02
1.250000000000e-01 2.500000000000e-01 6.000000000000e-02
2.500000000000e-01 2.500000000000e-01 6.000000000000e-02
-2.500000000000e-01 -2.500000000000e-01 1.200000000000e-01
-1.250000000000e-01 -2.500000000000e-01 1.200000000000e-01
0.000000000000e+00 -2.500000000000e-01 1.200000000000e-01
1.250000000000e-01 -2.500000000000e-01 1.200000000000e-01
2.500000000000e-01 -2.500000000000e-01 1.200000000000e-01
-2.500000000000e-01 -1.250000000000e-01 1.200000000000e-01
-1.250000000000e-01 -1.250000000000e-01 1.200000000000e-01
0.000000000000e+00 -1.250000000000e-01 1.200000000000e-01
1.250000000000e-01 -1.250000000000e-01 1.200000000000e-01
2.500000000000e-01 -1.250000000000e-01 1.200000000000e-01
-2.500000000000e-01 0.000000000000e+00 1.200000000000e-01
-1.250000000000e-01 0.000000000000e+00 1.200000000000e-01
0.000000000000e+00 0.000000000000e+00 1.200000000000e-01
1.250000000000e-01 0.000000000000e+00 1.200000000000e-01
2.500000000000e-01 0.000000000000e+00 1.200000000000e-01
-2.500000000000e-01 1.250000000000e-01 1.200000000000e-01
-1.250000000000e-01 1.250000000000e-01 1.200000000000e-01
0.000000000000e+00 1.250000000000e-01 1.200000000000e-01
1.250000000000e-01 1.250000000000e-01 1.200000000000e-01
2.500000000000e-01 1.250000000000e-01 1.200000000000e-01
-2.500000000000e-01 2.500000000000e-01 1.200000000000e-01
-1.250000000000e-01 2.500000000000e-01 1.200000000000e-01
0.000000000000e+00 2.500000000000e-01 1.200000000000e-01
1.250000000000e-01 2.500000000000e-01 1.200000000000e-01
2.500000000000e-01 2.500000000000e-01 1.200000000000e-01
-2.500000000000e-01 -2.500000000000e-01 1.800000000000e-01
-1.250000000000e-01 -2.500000000000e-01 1.800000000000e-01
0.000000000000e+00 -2.500000000000e-01 1.800000000000e-01
1.250000000000e-01 -2.500000000000e-01 1.800000000000e-01
2.500000000000e-01 -2.500000000000e-01 1.800000000000e-01
-2.500000000000e-01 -1.250000000000e-01 1.800000000000e-01
-1.250000000000e-01 -1.250000000000e-01 1.800000000000e-01
0.000000000000e+00 -1.250000000000e-01 1.800000000000e-01
1.250000000000e-01 -1.250000000000e-01 1.800000000000e-01
2.500000000000e-01 -1.250000000000e-01 1.800000000000e-01
-2.500000000000e-01 0.000000000000e+00 1.800000000000e-01
-1.250000000000e-01 0.000000000000e+00 1.800000000000e-01
0.000000000000e+00 0.000000000000e+00 1.800000000000e-01
1.250000000000e-01 0.000000000000e+00 1.800000000000e-01
2.500000000000e-01 0.000000000000e+00 1.800000000000e-01
-2.500000000000e-01 1.250000000000e-01 1.800000000000e-01
-1.250000000000e-01 1.250000000000e-01 1.800000000000e-01
0.000000000000e+00 1.250000000000e-01 1.800000000000e-01
1.250000000000e-01 1.250000000000e-01 1.800000000000e-01
2.500000000000e-01 1.250000000000e-01 1.800000000000e-01
-2.500000000000e-01 2.500000000000e-01 1.800000000000e-01
-1.250000000000e-01 2.500000000000e-01 1.800000000000e-01
0.000000000000e+00 2.500000000000e-01 1.800000000000e-01
1.250000000000e-01 2.500000000000e-01 1.800000000000e-01
2.500000000000e-01 2.500000000000e-01 1.800000000000e-01
-2.500000000000e-01 -2.500000000000e-01 2.400000000000e-01
-1.250000000000e-01 -2.500000000000e-01 2.400000000000e-01
0.000000000000e+00 -2.500000000000e-01 2.400000000000e-01
1.250000000000e-01 -2.500000000000e-01 2.400000000000e-01
2.500000000000e-01 -2.500000000000e-01 2.400000000000e-01
-2.500000000000e-01 -1.250000000000e-01 2.400000000000e-01
-1.250000000000e-01 -1.250000000000e-01 2.400000000000e-01
0.000000000000e+00 -1.250000000000e-01 2.400000000000e-01
1.250000000000e-01 -1.250000000000e-01 2.400000000000e-01
2.500000000000e-01 -1.250000000000e-01 2.400000000000e-01
-2.500000000000e-01 0.000000000000e+00 2.400000000000e-01
-1.250000000000e-01 0.000000000000e+00 2.400000000000e-01
0.000000000000e+00 0.000000000000e+00 2.400000000000e-01
1.250000000000e-01 0.000000000000e+00 2.400000000000e-01
2.500000000000e-01 0.000000000000e+00 2.400000000000e-01
-2.500000000000e-01 1.250000000000e-01 2.400000000000e-01
-1.250000000000e-01 1.250000000000e-01 2.400000000000e-01
0.000000000000e+00 1.250000000000e-01 2.400000000000e-01
1.250000000000e-01 1.250000000000e-01 2.400000000000e-01
2.500000000000e-01 1.250000000000e-01 2.400000000000e-01
-2.500000000000e-01 2.500000000000e-01 2.400000000000e-01
-1.250000000000e-01 2.500000000000e-01 2.400000000000e-01
0.000000000000e+00 2.500000000000e-01 2.400000000000e-01
1.250000000000e-01 2.500000000000e-01 2.400000000000e-01
2.500000000000e-01 2.500000000000e-01 2.400000000000e-01
-2.499999999999e-01 -2.500000000000e-01 2.494505569550e-01
-1.249999999999e-01 -2.500000000000e-01 2.494505569551e-01
8.214361745667e-14 -2.500000000000e-01 2.494505569551e-01
1.250000000001e-01 -2.500000000000e-01 2.494505569552e-01
2.500000000001e-01 -2.500000000000e-01 2.494505569553e-01
-2.499999999999e-01 -1.250000000000e-01 2.494505569550e-01
-1.249999999999e-01 -1.250000000000e-01 2.494505569551e-01
8.507839566017e-14 -1.250000000000e-01 2.494505569551e-01
1.250000000001e-01 -1.250000000000e-01 2.494505569552e-01
2.500000000001e-01 -1.250000000000e-01 2.494505569553e-01
-2.499999999999e-01 2.156038593714e-15 2.494505569550e-01
-1.249999999999e-01 -7.824498289173e-16 2.494505569551e-01
8.801266011855e-14 -3.724005100216e-15 2.494505569551e-01
1.250000000001e-01 -6.664065852809e-15 2.494505569552e-01
2.500000000001e-01 -9.601476305008e-15 2.494505569553e-01
-2.499999999999e-01 1.250000000000e-01 2.494505569550e-01
-1.249999999999e-01 1.250000000000e-01 2.494505569551e-01
9.094467799128e-14 1.250000000000e-01 2.494505569552e-01
1.250000000001e-01 1.250000000000e-01 2.494505569552e-01
2.500000000001e-01 1.250000000000e-01 2.494505569553e-01
-2.499999999999e-01 2.500000000000e-01 2.494505569550e-01
-1.249999999999e-01 2.500000000000e-01 2.494505569551e-01
9.388144039661e-14 2.500000000000e-01 2.494505569552e-01
1.250000000001e-01 2.500000000000e-01 2.494505569552e-01
2.500000000001e-01 2.500000000000e-01 2.494505569553e-01
-2.500000000000e-01 -2.500000000000e-01 3.144505569550e-01
-1.250000000000e-01 -2.500000000000e-01 3.144505569551e-01
4.288925336450e-14 -2.500000000000e-01 3.144505569551e-01
1.250000000000e-01 -2.500000000000e-01 3.144505569552e-01
2.500000000000e-01 -2.500000000000e-01 3.144505569553e-01
-2.500000000000e-01 -1.250000000000e-01 3.144505569550e-01
-1.250000000000e-01 -1.250000000000e-01 3.144505569551e-01
4.582528521453e-14 -1.250000000000e-01 3.144505569551e-01
1.250000000000e-01 -1.250000000000e-01 3.144505569552e-01
2.500000000000e-01 -1.250000000000e-01 3.144505569553e-01
-2.500000000000e-01 -1.806140154094e-15 3.144505569550e-01
-1.250000000000e-01 -4.743496811859e-15 3.144505569551e-01
4.876067436418e-14 -7.682230670936e-15 3.144505569551e-01
1.250000000000e-01 -1.062035467401e-14 3.144505569552e-01
2.500000000000e-01 -1.355686434112e-14 3.144505569553e-01
-2.499999999999e-01 1.250000000000e-01 3.144505569550e-01
-1.249999999999e-01 1.250000000000e-01 3.144505569551e-01
5.169555599290e-14 1.250000000000e-01 3.144505569552e-01
1.250000000001e-01 1.250000000000e-01 3.144505569552e-01
2.500000000001e-01 1.250000000000e-01 3.144505569553e-01
-2.499999999999e-01 2.500000000000e-01 3.144505569550e-01
-1.249999999999e-01 2.500000000000e-01 3.144505569551e-01
5.463310235455e-14 2.500000000000e-01 3.144505569552e-01
1.250000000001e-01 2.500000000000e-01 3.144505569552e-01
2.500000000001e-01 2.500000000000e-01 3.144505569553e-01
-2.500000000000e-01 -2.500000000000e-01 3.794505569550e-01
-1.250000000000e-01 -2.500000000000e-01 3.794505569551e-01
3.635860386707e-15 -2.500000000000e-01 3.794505569551e-01
1.250000000000e-01 -2.500000000000e-01 3.794505569552e-01
2.500000000000e-01 -2.500000000000e-01 3.794505569553e-01
-2.500000000000e-01 -1.250000000000e-01 3.794505569550e-01
-1.250000000000e-01 -1.250000000000e-01 3.794505569551e-01
6.572467734900e-15 -1.250000000000e-01 3.794505569551e-01
1.250000000000e-01 -1.250000000000e-01 3.794505569552e-01
2.500000000000e-01 -1.250000000000e-01 3.794505569553e-01
-2.500000000000e-01 -5.767465203969e-15 3.794505569550e-01
-1.250000000000e-01 -8.703992101220e-15 3.794505569551e-01
9.509649588385e-15 -1.164110705354e-14 3.794505569551e-01
1.250000000000e-01 -1.457693909090e-14 3.794505569552e-01
2.500000000000e-01 -1.751421528683e-14 3.794505569553e-01
-2.500000000000e-01 1.250000000000e-01 3.794505569550e-01
-1.250000000000e-01 1.250000000000e-01 3.794505569551e-01
1.244594778564e-14 1.250000000000e-01 3.794505569552e-01
1.250000000000e-01 1.250000000000e-01 3.794505569552e-01
2.500000000000e-01 1.250000000000e-01 3.794505569553e-01
-2.500000000000e-01 2.500000000000e-01 3.794505569550e-01
-1.250000000000e-01 2.500000000000e-01 3.794505569551e-01
1.538226113710e-14 2.500000000000e-01 3.794505569552e-01
1.250000000000e-01 2.500000000000e-01 3.794505569552e-01
2.500000000000e-01 2.500000000000e-01 3.794505569553e-01
-2.500000000000e-01 -2.500000000000e-01 4.444505569550e-01
-1.250000000000e-01 -2.500000000000e-01 4.444505569551e-01
-3.561658156497e-14 -2.500000000000e-01 4.444505569551e-01
1.250000000000e-01 -2.500000000000e-01 4.444505569552e-01
2.500000000000e-01 -2.500000000000e-01 4.444505569553e-01
-2.500000000000e-01 -1.250000000000e-01 4.444505569550e-01
-1.250000000000e-01 -1.250000000000e-01 4.444505569551e-01
-3.268019219379e-14 -1.250000000000e-01 4.444505569551e-01
1.250000000000e-01 -1.250000000000e-01 4.444505569552e-01
2.500000000000e-01 -1.250000000000e-01 4.444505569553e-01
-2.500000000000e-01 -9.728463264100e-15 4.444505569550e-01
-1.250000000000e-01 -1.266526289280e-14 4.444505569551e-01
-2.974152521284e-14 -1.560020266464e-14 4.444505569551e-01
1.250000000000e-01 -1.853443939467e-14 4.444505569552e-01
2.500000000000e-01 -2.147071232382e-14 4.444505569553e-01
-2.500000000000e-01 1.250000000000e-01 4.444505569550e-01
-1.250000000000e-01 1.250000000000e-01 4.444505569551e-01
-2.680279961867e-14 1.250000000000e-01 4.444505569552e-01
1.250000000000e-01 1.250000000000e-01 4.444505569552e-01
2.500000000000e-01 1.250000000000e-01 4.444505569553e-01
-2.500000000000e-01 2.500000000000e-01 4.444505569550e-01
-1.250000000000e-01 2.500000000000e-01 4.444505569551e-01
-2.386735111280e-14 2.500000000000e-01 4.444505569552e-01
1.250000000000e-01 2.500000000000e-01 4.444505569552e-01
2.500000000000e-01 2.500000000000e-01 4.444505569553e-01
-2.500000000001e-01 -2.500000000000e-01 5.094505569550e-01
-1.250000000001e-01 -2.500000000000e-01 5.094505569551e-01
-7.487049693747e-14 -2.500000000000e-01 5.094505569551e-01
1.249999999999e-01 -2.500000000000e-01 5.094505569552e-01
2.499999999999e-01 -2.500000000000e-01 5.094505569553e-01
-2.500000000001e-01 -1.250000000000e-01 5.094505569550e-01
-1.250000000001e-01 -1.250000000000e-01 5.094505569551e-01
-7.193201383079e-14 -1.250000000000e-01 5.094505569551e-01
1.249999999999e-01 -1.250000000000e-01 5.094505569552e-01
2.499999999999e-01 -1.250000000000e-01 5.094505569553e-01
-2.500000000001e-01 -1.369077073680e-14 5.094505569550e-01
-1.250000000001e-01 -1.662547968516e-14 5.094505569551e-01
-6.899149803088e-14 -1.955852387151e-14 5.094505569551e-01
1.249999999999e-01 -2.249063894855e-14 5.094505569552e-01
2.499999999999e-01 -2.542630717827e-14 5.094505569553e-01
-2.500000000001e-01 1.250000000000e-01 5.094505569550e-01
-1.250000000001e-01 1.250000000000e-01 5.094505569551e-01
-6.605119307658e-14 1.250000000000e-01 5.094505569552e-01
1.249999999999e-01 1.250000000000e-01 5.094505569552e-01
2.499999999999e-01 1.250000000000e-01 5.094505569553e-01
-2.500000000001e-01 2.500000000000e-01 5.094505569550e-01
-1.250000000001e-01 2.500000000000e-01 5.094505569551e-01
-6.311350250593e-14 2.500000000000e-01 5.094505569552e-01
1.249999999999e-01 2.500000000000e-01 5.094505569552e-01
2.499999999999e-01 2.500000000000e-01 5.094505569553e-01
CELLS 128 1152
8 0 1 6 5 25 26 31 30
8 1 2 7 6 26 27 32 31
8 2 3 8 7 27 28 33 32
8 3 4 9 8 28 29 34 33
8 5 6 11 10 30 31 36 35
8 6 7 12 11 31 32 37 36
8 7 8 13 12 32 33 38 37
8 8 9 14 13 33 34 39 38
8 10 11 16 15 35 36 41 40
8 11 12 17 16 36 37 42 41
8 12 13 18 17 37 38 43 42
8 13 14 19 18 38 39 44 43
8 15 16 21 20 40 41 46 45
8 16 17 22 21 41 42 47 46
8 17 18 23 22 42 43 48 47
8 18 19 24 23 43 44 49 48
8 25 26 31 30 50 51 56 55
8 26 27 32 31 51 52 57 56
8 27 28 33 32 52 53 58 57
8 28 29 34 33 53 54 59 58
8 30 31 36 35 55 56 61 60
8 31 32 37 36 56 57 62 61
8 32 33 38 37 57 58 63 62
8 33 34 39 38 58 59 64 63
8 35 36 41 40 60 61 66 65
8 36 37 42 41 61 62 67 66
8 37 38 43 42 62 63 68 67
8 38 39 44 43 63 64 69 68
8 40 41 46 45 65 66 71 70
8 41 42 47 46 66 67 72 71
8 42 43 48 47 67 68 73 72
8 43 44 49 48 68 69 74 73
8 50 51 56 55 75 76 81 80
8 51 52 57 56 76 77 82 81
8 52 53 58 57 77 78 83 82
8 53 54 59 58 78 79 84 83
8 55 56 61 60 80 81 86 85
8 56 57 62 61 81 82 87 86
8 57 58 63 62 82 83 88 87
8 58 59 64 63 83 84 89 88
8 60 61 66 65 85 86 91 90
8 61 62 67 66 86 87 92 91
8 62 63 68 67 87 88 93 92
8 63 64 69 68 88 89 94 93
8 65 66 71 70 90 91 96 95
8 66 67 72 71 91 92 97 96
8 67 68 73 72 92 93 98 97
8 68 69 74 73 93 94 99 98
8 75 76 81 80 100 101 106 105
8 76 77 82 81 101 102 107 106
8 77 78 83 82 102 103 108 107
8 78 79 84 83 103 104 109 108
8 80 81 86 85 105 106 111 110
8 81 82 87 86 106 107 112 111
8 82 83 88 87 107 108 113 112
8 83 84 89 88 108 109 114 113
8 85 86 91 90 110 111 116 115
8 86 87 92 91 111 112 117 116
8 87 88 93 92 112 113 118 117
8 88 89 94 93 113 114 119 118
8 90 91 96 95 115 116 121 120
8 91 92 97 96 116 117 122 121
8 92 93 98 97 117 118 123 122
8 93 94 99 98 118 119 124 123
8 125 126 131 130 150 151 156 155
8 126 127 132 131 151 152 157 156
8 127 128 133 132 152 153 158 157
8 128 129 134 133 153 154 159 158
8 130 131 136 135 155 156 161 160
8 131 132 137 136 156 157 162 161
8 132 133 138 137 157 158 163 162
8 133 134 139 138 158 159 164 163
8 135 136 141 140 160 161 166 165
8 136 137 142 141 161 162 167 166
8 137 138 143 142 162 163 168 167
8 138 139 144 143 163 164 169 168
8 140 141 146 145 165 166 171 170
8 141 142 147 146 166 167 172 171
8 142 143 148 147 167 168 173 172
8 143 144 149 148 168 169 174 173
8 150 151 156 155 175 176 181 180
8 151 152 157 156 176 177 182 181
8 152 153 158 157 177 178 183 182
8 153 154 159 158 178 179 184 183
8 155 156 161 160 180 181 186 185
8 156 157 162 161 181 182 187 186
8 157 158 163 162 182 183 188 187
8 158 159 164 163 183 184 189 188
8 160 161 166 165 185 186 191 190
8 161 162 167 166 186 187 192 191
8 162 163 168 167 187 188 193 192
8 163 164 169 168 188 189 194 193
8 165 166 171 170 190 191 196 195
8 166 167 172 171 191 192 197 196
8 167 168 173 172 192 193 198 197
8 168 169 174 173 193 194 199 198
8 175 176 181 180 200 201 206 205
8 176 177 182 181 201 202 207 206
8 177 178 183 182 202 203 208 207
8 178 179 184 183 203 204 209 208
8 180 181 186 185 205 206 211 210
8 181 182 187 186 206 207 212 211
8 182 183 188 187 207 208 213 212
8 183 184 189 188 208 209 214 213
8 185 186 191 190 210 211 216 215
8 186 187 192 191 211 212 217 216
8 187 188 193 192 212 213 218 217
8 188 189 194 193 213 214 219 218
8 190 191 196 195 215 216 221 220
8 191 192 197 196 216 217 222 221
8 192 193 198 197 217 218 223 222
8 193 194 199 198 218 219 224 223
8 200 201 206 205 225 226 231 230
8 201 202 207 206 226 227 232 231
8 202 203 208 207 227 228 233 232
8 203 204 209 208 228 229 234 233
8 205 206 211 210 230 231 236 235
8 206 207 212 211 231 232 237 236
8 207 208 213 212 232 233 238 237
8 208 209 214 213 233 234 239 238
8 210 211 216 215 235 236 241 240
8 211 212 217 216 236 237 242 241
8 212 213 218 217 237 238 243 242
8 213 214 219 218 238 239 244 243
8 215 216 221 220 240 241 246 245
8 216 217 222 221 241 242 247 246
8 217 218 223 222 242 243 248 247
8 218 219 224 223 243 244 249 248
CELL_TYPES 128
12
12
12
12
12
12
12
12
12
12
12
12
12
12
12
12
12
12
12
12
12
12
12
12
12
12
12
12
12
12
12
12
12
12
12
12
12
12
12
12
12
12
12
12
12
12
12
12
12
12
12
12
12
12
12
12
12
12
12
12
12
12
12
12
12
12
12
12
12
12
12
12
12
12
12
12
12
12
12
12
12
12
12
12
12
12
12
12
12
12
12
12
12
12
12
12
12
12
12
12
12
12
12
12
12
12
12
12
12
12
12
12
12
12
12
12
12
12
12
12
12
12
12
12
12
12
12
12
POINT_DATA 250
VECTORS displacement float
0.000000000000e+00 0.000000000000e+00 0.000000000000e+00
0.000000000000e+00 0.000000000000e+00 0.000000000000e+00
0.000000000000e+00 0.000000000000e+00 0.000000000000e+00
0.000000000000e+00 0.000000000000e+00 0.000000000000e+00
0.000000000000e+00 0.000000000000e+00 0.000000000000e+00
0.000000000000e+00 0.000000000000e+00 0.000000000000e+00
0.000000000000e+00 0.000000000000e+00 0.000000000000e+00
0.000000000000e+00 0.000000000000e+00 0.000000000000e+00
0.000000000000e+00 0.000000000000e+00 0.000000000000e+00
0.000000000000e+00 0.000000000000e+00 0.000000000000e+00
0.000000000000e+00 0.000000000000e+00 0.000000000000e+00
0.000000000000e+00 0.000000000000e+00 0.000000000000e+00
0.000000000000e+00 0.000000000000e+00 0.000000000000e+00
0.000000000000e+00 0.000000000000e+00 0.000000000000e+00
0.000000000000e+00 0.000000000000e+00 0.000000000000e+00
0.000000000000e+00 0.000000000000e+00 0.000000000000e+00
0.000000000000e+00 0.000000000000e+00 0.000000000000e+00
0.000000000000e+00 0.000000000000e+00 0.000000000000e+00
0.000000000000e+00 0.000000000000e+00 0.000000000000e+00
0.000000000000e+00 0.000000000000e+00 0.000000000000e+00
0.000000000000e+00 0.000000000000e+00 0.000000000000e+00
0.000000000000e+00 0.000000000000e+00 0.000000000000e+00
0.000000000000e+00 0.000000000000e+00 0.000000000000e+00
0.000000000000e+00 0.000000000000e+00 0.000000000000e+00
0.000000000000e+00 0.000000000000e+00 0.000000000000e+00
0.000000000000e+00 0.000000000000e+00 0.000000000000e+00
0.000000000000e+00 0.000000000000e+00 0.000000000000e+00
0.000000000000e+00 0.000000000000e+00 0.000000000000e+00
0.000000000000e+00 0.000000000000e+00 0.000000000000e+00
0.000000000000e+00 0.000000000000e+00 0.000000000000e+00
0.000000000000e+00 0.000000000000e+00 0.000000000000e+00
0.000000000000e+00 0.000000000000e+00 0.000000000000e+00
0.000000000000e+00 0.000000000000e+00 0.000000000000e+00
0.000000000000e+00 0.000000000000e+00 0.000000000000e+00
0.000000000000e+00 0.000000000000e+00 0.000000000000e+00
0.000000000000e+00 0.000000000000e+00 0.000000000000e+00
0.000000000000e+00 0.000000000000e+00 0.000000000000e+00
0.000000000000e+00 0.000000000000e+00 0.000000000000e+00
0.000000000000e+00 0.000000000000e+00 0.000000000000e+00
0.000000000000e+00 0.000000000000e+00 0.000000000000e+00
0.000000000000e+00 0.000000000000e+00 0.000000000000e+00
0.000000000000e+00 0.000000000000e+00 0.000000000000e+00
0.000000000000e+00 0.000000000000e+00 0.000000000000e+00
0.000000000000e+00 0.000000000000e+00 0.000000000000e+00
0.000000000000e+00 0.000000000000e+00 0.000000000000e+00
0.000000000000e+00 0.000000000000e+00 0.000000000000e+00
0.000000000000e+00 0.000000000000e+00 0.000000000000e+00
0.000000000000e+00 0.000000000000e+00 0.000000000000e+00
0.000000000000e+00 0.000000000000e+00 0.000000000000e+00
0.000000000000e+00 0.000000000000e+00 0.000000000000e+00
0.000000000000e+00 0.000000000000e+00 0.000000000000e+00
0.000000000000e+00 0.000000000000e+00 0.000000000000e+00
0.000000000000e+00 0.000000000000e+00 0.000000000000e+00
0.000000000000e+00 0.000000000000e+00 0.000000000000e+00
0.000000000000e+00 0.000000000000e+00 0.000000000000e+00
0.000000000000e+00 0.000000000000e+00 0.000000000000e+00
0.000000000000e+00 0.000000000000e+00 0.000000000000e+00
0.000000000000e+00 0.000000000000e+00 0.000000000000e+00
0.000000000000e+00 0.000000000000e+00 0.000000000000e+00
0.000000000000e+00 0.000000000000e+00 0.000000000000e+00
0.000000000000e+00 0.000000000000e+00 0.000000000000e+00
0.000000000000e+00 0.000000000000e+00 0.000000000000e+00
0.000000000000e+00 0.000000000000e+00 0.000000000000e+00
0.000000000000e+00 0.000000000000e+00 0.000000000000e+00
0.000000000000e+00 0.000000000000e+00 0.000000000000e+00
0.000000000000e+00 0.000000000000e+00 0.000000000000e+00
0.000000000000e+00 0.000000000000e+00 0.000000000000e+00
0.000000000000e+00 0.000000000000e+00 0.000000000000e+00
0.000000000000e+00 0.000000000000e+00 0.000000000000e+00
0.000000000000e+00 0.000000000000e+00 0.000000000000e+00
0.000000000000e+00 0.000000000000e+00 0.000000000000e+00
0.000000000000e+00 0.000000000000e+00 0.000000000000e+00
0.000000000000e+00 0.000000000000e+00 0.000000000000e+00
0.000000000000e+00 0.000000000000e+00 0.000000000000e+00
0.000000000000e+00 0.000000000000e+00 0.000000000000e+00
0.000000000000e+00 0.000000000000e+00 0.000000000000e+00
0.000000000000e+00 0.000000000000e+00 0.000000000000e+00
0.000000000000e+00 0.000000000000e+00 0.000000000000e+00
0.000000000000e+00 0.000000000000e+00 0.000000000000e+00
0.000000000000e+00 0.000000000000e+00 0.000000000000e+00
0.000000000000e+00 0.000000000000e+00 0.000000000000e+00
0.000000000000e+00 0.000000000000e+00 0.000000000000e+00
0.000000000000e+00 0.000000000000e+00 0.000000000000e+00
0.000000000000e+00 0.000000000000e+00 0.000000000000e+00
0.000000000000e+00 0.000000000000e+00 0.000000000000e+00
0.000000000000e+00 0.000000000000e+00 0.000000000000e+00
0.000000000000e+00 0.000000000000e+00 0.000000000000e+00
0.000000000000e+00 0.000000000000e+00 0.000000000000e+00
0.000000000000e+00 0.000000000000e+00 0.000000000000e+00
0.000000000000e+00 0.000000000000e+00 0.000000000000e+00
0.000000000000e+00 0.000000000000e+00 0.000000000000e+00
0.000000000000e+00 0.000000000000e+00 0.000000000000e+00
0.000000000000e+00 0.000000000000e+00 0.000000000000e+00
0.000000000000e+00 0.000000000000e+00 0.000000000000e+00
0.000000000000e+00 0.000000000000e+00 0.000000000000e+00
0.000000000000e+00 0.000000000000e+00 0.000000000000e+00
0.000000000000e+00 0.000000000000e+00 0.000000000000e+00
0.000000000000e+00 0.000000000000e+00 0.000000000000e+00
0.000000000000e+00 0.000000000000e+00 0.000000000000e+00
0.000000000000e+00 0.000000000000e+00 0.000000000000e+00
0.000000000000e+00 0.000000000000e+00 0.000000000000e+00
0.000000000000e+00 0.000000000000e+00 0.000000000000e+00
0.000000000000e+00 0.000000000000e+00 0.000000000000e+00
0.000000000000e+00 0.000000000000e+00 0.000000000000e+00
0.000000000000e+00 0.000000000000e+00 0.000000000000e+00
0.000000000000e+00 0.000000000000e+00 0.000000000000e+00
0.000000000000e+00 0.000000000000e+00 0.000000000000e+00
0.000000000000e+00 0.000000000000e+00 0.000000000000e+00
0.000000000000e+00 0.000000000000e+00 0.000000000000e+00
0.000000000000e+00 0.000000000000e+00 0.000000000000e+00
0.000000000000e+00 0.000000000000e+00 0.000000000000e+00
0.000000000000e+00 0.000000000000e+00 0.000000000000e+00
0.000000000000e+00 0.000000000000e+00 0.000000000000e+00
0.000000000000e+00 0.000000000000e+00 0.000000000000e+00
0.000000000000e+00 0.000000000000e+00 0.000000000000e+00
0.000000000000e+00 0.000000000000e+00 0.000000000000e+00
0.000000000000e+00 0.000000000000e+00 0.000000000000e+00
0.000000000000e+00 0.000000000000e+00 0.000000000000e+00
0.000000000000e+00 0.000000000000e+00 0.000000000000e+00
0.000000000000e+00 0.000000000000e+00 0.000000000000e+00
0.000000000000e+00 0.000000000000e+00 0.000000000000e+00
0.000000000000e+00 0.000000000000e+00 0.000000000000e+00
0.000000000000e+00 0.000000000000e+00 0.000000000000e+00
0.000000000000e+00 0.000000000000e+00 0.000000000000e+00
0.000000000000e+00 0.000000000000e+00 0.000000000000e+00
8.214544493588e-14 2.155398839346e-15 -5.549443045024e-03
8.214368734939e-14 -7.791502400655e-16 -5.549443044948e-03
8.214361745667e-14 -3.715516235292e-15 -5.549443044873e-03
8.214432066388e-14 -6.660763823107e-15 -5.549443044797e-03
8.214677075392e-14 -9.597311253958e-15 -5.549443044722e-03
8.508092762618e-14 2.156853895242e-15 -5.549443045016e-03
8.508038818816e-14 -7.801634265222e-16 -5.549443044941e-03
8.507839566017e-14 -3.720958787511e-15 -5.549443044865e-03
8.507812763906e-14 -6.660879331299e-15 -5.549443044790e-03
8.507629402464e-14 -9.599530786864e-15 -5.549443044714e-03
8.801335719706e-14 2.156038593714e-15 -5.549443045008e-03
8.801213800234e-14 -7.824498289173e-16 -5.549443044933e-03
8.801266011855e-14 -3.724005100216e-15 -5.549443044857e-03
8.801192576124e-14 -6.664065852809e-15 -5.549443044782e-03
8.801143579001e-14 -9.601476305008e-15 -5.549443044706e-03
9.094713676511e-14 2.154790343859e-15 -5.549443045001e-03
9.094585246026e-14 -7.856630267462e-16 -5.549443044925e-03
9.094467799128e-14 -3.726181656933e-15 -5.549443044850e-03
9.094481615757e-14 -6.664899527545e-15 -5.549443044774e-03
9.094418006859e-14 -9.602343553073e-15 -5.549443044699e-03
9.388402749900e-14 2.153223133663e-15 -5.549443044993e-03
9.388250102445e-14 -7.876508397336e-16 -5.549443044918e-03
9.388144039661e-14 -3.723609689234e-15 -5.549443044842e-03
9.388114625338e-14 -6.667498272730e-15 -5.549443044767e-03
9.388107469265e-14 -9.601198995032e-15 -5.549443044691e-03
4.288980010431e-14 -1.806566928115e-15 -5.549443045024e-03
4.288983082393e-14 -4.741107038928e-15 -5.549443044948e-03
4.288925336450e-14 -7.680727820494e-15 -5.549443044873e-03
4.288985319595e-14 -1.061818651209e-14 -5.549443044797e-03
4.289170617858e-14 -1.355429145636e-14 -5.549443044722e-03
4.582703146758e-14 -1.807202996985e-15 -5.549443045016e-03
4.582593843777e-14 -4.743174555059e-15 -5.549443044941e-03
4.582528521453e-14 -7.682052828500e-15 -5.549443044865e-03
4.582743111915e-14 -1.062086073447e-14 -5.549443044790e-03
4.582697198593e-14 -1.355526010932e-14 -5.549443044714e-03
4.875860258638e-14 -1.806140154094e-15 -5.549443045008e-03
4.876055634611e-14 -4.743496811859e-15 -5.549443044933e-03
4.876067436418e-14 -7.682230670936e-15 -5.549443044857e-03
4.876232489908e-14 -1.062035467401e-14 -5.549443044782e-03
4.876472539981e-14 -1.355686434112e-14 -5.549443044706e-03
5.169623791574e-14 -1.805110170157e-15 -5.549443045001e-03
5.169534828093e-14 -4.743532939246e-15 -5.549443044925e-03
5.169555599290e-14 -7.682313323630e-15 -5.549443044850e-03
5.169687331578e-14 -1.061968016928e-14 -5.549443044774e-03
5.169712540431e-14 -1.355781433740e-14 -5.549443044699e-03
5.463478508445e-14 -1.805164194174e-15 -5.549443044993e-03
5.463370831433e-14 -4.744905082942e-15 -5.549443044918e-03
5.463310235455e-14 -7.681671624626e-15 -5.549443044842e-03
5.463237664466e-14 -1.062179183107e-14 -5.549443044767e-03
5.463268770810e-14 -1.355721622104e-14 -5.549443044691e-03
3.635147392609e-15 -5.768550837569e-15 -5.549443045024e-03
3.636127128950e-15 -8.704658501093e-15 -5.549443044948e-03
3.635860386707e-15 -1.164341371176e-14 -5.549443044873e-03
3.637511155873e-15 -1.457905388215e-14 -5.549443044797e-03
3.638983180608e-15 -1.751311401097e-14 -5.549443044722e-03
6.572767349434e-15 -5.768069570495e-15 -5.549443045016e-03
6.571951887157e-15 -8.704918163226e-15 -5.549443044941e-03
6.572467734900e-15 -1.164195889416e-14 -5.549443044865e-03
6.575111741710e-15 -1.457791048868e-14 -5.549443044790e-03
6.575276073411e-15 -1.751359228204e-14 -5.549443044714e-03
9.507912555902e-15 -5.767465203969e-15 -5.549443045008e-03
9.508252271921e-15 -8.703992101220e-15 -5.549443044933e-03
9.509649588385e-15 -1.164110705354e-14 -5.549443044857e-03
9.512486267533e-15 -1.457693909090e-14 -5.549443044782e-03
9.513110858420e-15 -1.751421528683e-14 -5.549443044706e-03
1.244566069428e-14 -5.765473242335e-15 -5.549443045001e-03
1.244565083601e-14 -8.703148990704e-15 -5.549443044925e-03
1.244594778564e-14 -1.163953917661e-14 -5.549443044850e-03
1.244791633666e-14 -1.457640660969e-14 -5.549443044774e-03
1.244988582774e-14 -1.751430503230e-14 -5.549443044699e-03
1.538606769954e-14 -5.764933003683e-15 -5.549443044993e-03
1.538390302481e-14 -8.702719513066e-15 -5.549443044918e-03
1.538226113710e-14 -1.163967859650e-14 -5.549443044842e-03
1.538290762733e-14 -1.457737323886e-14 -5.549443044767e-03
1.538221574905e-14 -1.751339864685e-14 -5.549443044691e-03
-3.561933383806e-14 -9.728740766386e-15 -5.549443045024e-03
-3.561805207864e-14 -1.266701561564e-14 -5.549443044948e-03
-3.561658156497e-14 -1.560344556058e-14 -5.549443044873e-03
-3.561605825826e-14 -1.853782413826e-14 -5.549443044797e-03
-3.561552805253e-14 -2.147086314651e-14 -5.549443044722e-03
-3.268117628603e-14 -9.729170951220e-15 -5.549443045016e-03
-3.268178572001e-14 -1.266606194321e-14 -5.549443044941e-03
-3.268019219379e-14 -1.560207677626e-14 -5.549443044865e-03
-3.267805661438e-14 -1.853665487785e-14 -5.549443044790e-03
-3.267962678655e-14 -2.147159765228e-14 -5.549443044714e-03
-2.974342517929e-14 -9.728463264100e-15 -5.549443045008e-03
-2.974363908732e-14 -1.266526289280e-14 -5.549443044933e-03
-2.974152521284e-14 -1.560020266464e-14 -5.549443044857e-03
-2.973890232215e-14 -1.853443939467e-14 -5.549443044782e-03
-2.973939856180e-14 -2.147071232382e-14 -5.549443044706e-03
-2.680393173098e-14 -9.726905842084e-15 -5.549443045001e-03
-2.680498937416e-14 -1.266399090043e-14 -5.549443044925e-03
-2.680279961867e-14 -1.559878295909e-14 -5.549443044850e-03
-2.680051770112e-14 -1.853382282482e-14 -5.549443044774e-03
-2.680108080753e-14 -2.147065997448e-14 -5.549443044699e-03
-2.386560963411e-14 -9.726009672234e-15 -5.549443044993e-03
-2.386548421504e-14 -1.266558176007e-14 -5.549443044918e-03
-2.386735111280e-14 -1.559995261344e-14 -5.549443044842e-03
-2.386661746117e-14 -1.853494603052e-14 -5.549443044767e-03
-2.386455288345e-14 -2.147019282461e-14 -5.549443044691e-03
-7.487720770843e-14 -1.369102861644e-14 -5.549443045024e-03
-7.487331727357e-14 -1.662943499196e-14 -5.549443044948e-03
-7.487049693747e-14 -1.956259686347e-14 -5.549443044873e-03
-7.487120801648e-14 -2.249742896214e-14 -5.549443044797e-03
-7.487154682370e-14 -2.543228257466e-14 -5.549443044722e-03
-7.193837657959e-14 -1.369179143738e-14 -5.549443045016e-03
-7.193518577062e-14 -1.662757121393e-14 -5.549443044941e-03
-7.193201383079e-14 -1.956124347532e-14 -5.549443044865e-03
-7.193260677058e-14 -2.249363128353e-14 -5.549443044790e-03
-7.193975552746e-14 -2.543084469163e-14 -5.549443044714e-03
-6.899895796490e-14 -1.369077073680e-14 -5.549443045008e-03
-6.899527546085e-14 -1.662547968516e-14 -5.549443044933e-03
-6.899149803088e-14 -1.955852387151e-14 -5.549443044857e-03
-6.899319317232e-14 -2.249063894855e-14 -5.549443044782e-03
-6.899247207281e-14 -2.542630717827e-14 -5.549443044706e-03
-6.605744407094e-14 -1.368909947523e-14 -5.549443045001e-03
-6.605376028442e-14 -1.662613553561e-14 -5.549443044925e-03
-6.605119307658e-14 -1.956031974491e-14 -5.549443044850e-03
-6.605086135980e-14 -2.249086250537e-14 -5.549443044774e-03
-6.605404725887e-14 -2.542508786064e-14 -5.549443044699e-03
-6.311944315984e-14 -1.368564542826e-14 -5.549443044993e-03
-6.311709768153e-14 -1.662822339402e-14 -5.549443044918e-03
-6.311350250593e-14 -1.956148825186e-14 -5.549443044842e-03
-6.311377882649e-14 -2.248941071965e-14 -5.549443044767e-03
-6.311161510601e-14 -2.542371351966e-14 -5.549443044691e-03
SCALARS displacement_magnitude float 1
LOOKUP_TABLE default
0.000000000000e+00
0.000000000000e+00
0.000000000000e+00
0.000000000000e+00
0.000000000000e+00
0.000000000000e+00
0.000000000000e+00
0.000000000000e+00
0.000000000000e+00
0.000000000000e+00
0.000000000000e+00
0.000000000000e+00
0.000000000000e+00
0.000000000000e+00
0.000000000000e+00
0.000000000000e+00
0.000000000000e+00
0.000000000000e+00
0.000000000000e+00
0.000000000000e+00
0.000000000000e+00
0.000000000000e+00
0.000000000000e+00
0.000000000000e+00
0.000000000000e+00
0.000000000000e+00
0.000000000000e+00
0.000000000000e+00
0.000000000000e+00
0.000000000000e+00
0.000000000000e+00
0.000000000000e+00
0.000000000000e+00
0.000000000000e+00
0.000000000000e+00
0.000000000000e+00
0.000000000000e+00
0.000000000000e+00
0.000000000000e+00
0.000000000000e+00
0.000000000000e+00
0.000000000000e+00
0.000000000000e+00
0.000000000000e+00
0.000000000000e+00
0.000000000000e+00
0.000000000000e+00
0.000000000000e+00
0.000000000000e+00
0.000000000000e+00
0.000000000000e+00
0.000000000000e+00
0.000000000000e+00
0.000000000000e+00
0.000000000000e+00
0.000000000000e+00
0.000000000000e+00
0.000000000000e+00
0.000000000000e+00
0.000000000000e+00
0.000000000000e+00
0.000000000000e+00
0.000000000000e+00
0.000000000000e+00
0.000000000000e+00
0.000000000000e+00
0.000000000000e+00
0.000000000000e+00
0.000000000000e+00
0.000000000000e+00
0.000000000000e+00
0.000000000000e+00
0.000000000000e+00
0.000000000000e+00
0.000000000000e+00
0.000000000000e+00
0.000000000000e+00
0.000000000000e+00
0.000000000000e+00
0.000000000000e+00
0.000000000000e+00
0.000000000000e+00
0.000000000000e+00
0.000000000000e+00
0.000000000000e+00
0.000000000000e+00
0.000000000000e+00
0.000000000000e+00
0.000000000000e+00
0.000000000000e+00
0.000000000000e+00
0.000000000000e+00
0.000000000000e+00
0.000000000000e+00
0.000000000000e+00
0.000000000000e+00
0.000000000000e+00
0.000000000000e+00
0.000000000000e+00
0.000000000000e+00
0.000000000000e+00
0.000000000000e+00
0.000000000000e+00
0.000000000000e+00
0.000000000000e+00
0.000000000000e+00
0.000000000000e+00
0.000000000000e+00
0.000000000000e+00
0.000000000000e+00
0.000000000000e+00
0.000000000000e+00
0.000000000000e+00
0.000000000000e+00
0.000000000000e+00
0.000000000000e+00
0.000000000000e+00
0.000000000000e+00
0.000000000000e+00
0.000000000000e+00
0.000000000000e+00
0.000000000000e+00
0.000000000000e+00
0.000000000000e+00
0.000000000000e+00
5.549443045024e-03
5.549443044948e-03
5.549443044873e-03
5.549443044797e-03
5.549443044722e-03
5.549443045016e-03
5.549443044941e-03
5.549443044865e-03
5.549443044790e-03
5.549443044714e-03
5.549443045008e-03
5.549443044933e-03
5.549443044857e-03
5.549443044782e-03
5.549443044706e-03
5.549443045001e-03
5.549443044925e-03
5.549443044850e-03
5.549443044774e-03
5.549443044699e-03
5.549443044993e-03
5.549443044918e-03
5.549443044842e-03
5.549443044767e-03
5.549443044691e-03
5.549443045024e-03
5.549443044948e-03
5.549443044873e-03
5.549443044797e-03
5.549443044722e-03
5.549443045016e-03
5.549443044941e-03
5.549443044865e-03
5.549443044790e-03
5.549443044714e-03
5.549443045008e-03
5.549443044933e-03
5.549443044857e-03
5.549443044782e-03
5.549443044706e-03
5.549443045001e-03
5.549443044925e-03
5.549443044850e-03
5.549443044774e-03
5.549443044699e-03
5.549443044993e-03
5.549443044918e-03
5.549443044842e-03
5.549443044767e-03
5.549443044691e-03
5.549443045024e-03
5.549443044948e-03
5.549443044873e-03
5.549443044797e-03
5.549443044722e-03
5.549443045016e-03
5.549443044941e-03
5.549443044865e-03
5.549443044790e-03
5.549443044714e-03
5.549443045008e-03
5.549443044933e-03
5.549443044857e-03
5.549443044782e-03
5.549443044706e-03
5.549443045001e-03
5.549443044925e-03
5.549443044850e-03
5.549443044774e-03
5.549443044699e-03
5.549443044993e-03
5.549443044918e-03
5.549443044842e-03
5.549443044767e-03
5.549443044691e-03
5.549443045024e-03
5.549443044948e-03
5.549443044873e-03
5.549443044797e-03
5.549443044722e-03
5.549443045016e-03
5.549443044941e-03
5.549443044865e-03
5.549443044790e-03
5.549443044714e-03
5.549443045008e-03
5.549443044933e-03
5.549443044857e-03
5.549443044782e-03
5.549443044706e-03
5.549443045001e-03
5.549443044925e-03
5.549443044850e-03
5.549443044774e-03
5.549443044699e-03
5.549443044993e-03
5.549443044918e-03
5.549443044842e-03
5.549443044767e-03
5.549443044691e-03
5.549443045024e-03
5.549443044948e-03
5.549443044873e-03
5.549443044797e-03
5.549443044722e-03
5.549443045016e-03
5.549443044941e-03
5.549443044865e-03
5.549443044790e-03
5.549443044714e-03
5.549443045008e-03
5.549443044933e-03
5.549443044857e-03
5.549443044782e-03
5.549443044706e-03
5.549443045001e-03
5.549443044925e-03
5.549443044850e-03
5.549443044774e-03
5.549443044699e-03
5.549443044993e-03
5.549443044918e-03
5.549443044842e-03
5.549443044767e-03
5.549443044691e-03
CELL_DATA 128
SCALARS displacement_magnitude float 1
LOOKUP_TABLE default
0.000000000000e+00
0.000000000000e+00
0.000000000000e+00
0.000000000000e+00
0.000000000000e+00
0.000000000000e+00
0.000000000000e+00
0.000000000000e+00
0.000000000000e+00
0.000000000000e+00
0.000000000000e+00
0.000000000000e+00
0.000000000000e+00
0.000000000000e+00
0.000000000000e+00
0.000000000000e+00
0.000000000000e+00
0.000000000000e+00
0.000000000000e+00
0.000000000000e+00
0.000000000000e+00
0.000000000000e+00
0.000000000000e+00
0.000000000000e+00
0.000000000000e+00
0.000000000000e+00
0.000000000000e+00
0.000000000000e+00
0.000000000000e+00
0.000000000000e+00
0.000000000000e+00
0.000000000000e+00
0.000000000000e+00
0.000000000000e+00
0.000000000000e+00
0.000000000000e+00
0.000000000000e+00
0.000000000000e+00
0.000000000000e+00
0.000000000000e+00
0.000000000000e+00
0.000000000000e+00
0.000000000000e+00
0.000000000000e+00
0.000000000000e+00
0.000000000000e+00
0.000000000000e+00
0.000000000000e+00
0.000000000000e+00
0.000000000000e+00
0.000000000000e+00
0.000000000000e+00
0.000000000000e+00
0.000000000000e+00
0.000000000000e+00
0.000000000000e+00
0.000000000000e+00
0.000000000000e+00
0.000000000000e+00
0.000000000000e+00
0.000000000000e+00
0.000000000000e+00
0.000000000000e+00
0.000000000000e+00
5.549443044982e-03
5.549443044907e-03
5.549443044831e-03
5.549443044756e-03
5.549443044974e-03
5.549443044899e-03
5.549443044823e-03
5.549443044748e-03
5.549443044967e-03
5.549443044891e-03
5.549443044816e-03
5.549443044740e-03
5.549443044959e-03
5.549443044884e-03
5.549443044808e-03
5.549443044733e-03
5.549443044982e-03
5.549443044907e-03
5.549443044831e-03
5.549443044756e-03
5.549443044974e-03
5.549443044899e-03
5.549443044823e-03
5.549443044748e-03
5.549443044967e-03
5.549443044891e-03
5.549443044816e-03
5.549443044740e-03
5.549443044959e-03
5.549443044884e-03
5.549443044808e-03
5.549443044733e-03
5.549443044982e-03
5.549443044907e-03
5.549443044831e-03
5.549443044756e-03
5.549443044974e-03
5.549443044899e-03
5.549443044823e-03
5.549443044748e-03
5.549443044967e-03
5.549443044891e-03
5.549443044816e-03
5.549443044740e-03
5.549443044959e-03
5.549443044884e-03
5.549443044808e-03
5.549443044733e-03
5.549443044982e-03
5.549443044907e-03
5.549443044831e-03
5.549443044756e-03
5.549443044974e-03
5.549443044899e-03
5.549443044823e-03
5.549443044748e-03
5.549443044967e-03
5.549443044891e-03
5.549443044816e-03
5.549443044740e-03
5.549443044959e-03
5.549443044884e-03
5.549443044808e-03
5.549443044733e-03
SCALARS engineering_strain_norm float 1
LOOKUP_TABLE default
0.000000000000e+00
0.000000000000e+00
0.000000000000e+00
0.000000000000e+00
0.000000000000e+00
0.000000000000e+00
0.000000000000e+00
0.000000000000e+00
0.000000000000e+00
0.000000000000e+00
0.000000000000e+00
0.000000000000e+00
0.000000000000e+00
0.000000000000e+00
0.000000000000e+00
0.000000000000e+00
0.000000000000e+00
0.000000000000e+00
0.000000000000e+00
0.000000000000e+00
0.000000000000e+00
0.000000000000e+00
0.000000000000e+00
0.000000000000e+00
0.000000000000e+00
0.000000000000e+00
0.000000000000e+00
0.000000000000e+00
0.000000000000e+00
0.000000000000e+00
0.000000000000e+00
0.000000000000e+00
0.000000000000e+00
0.000000000000e+00
0.000000000000e+00
0.000000000000e+00
0.000000000000e+00
0.000000000000e+00
0.000000000000e+00
0.000000000000e+00
0.000000000000e+00
0.000000000000e+00
0.000000000000e+00
0.000000000000e+00
0.000000000000e+00
0.000000000000e+00
0.000000000000e+00
0.000000000000e+00
0.000000000000e+00
0.000000000000e+00
0.000000000000e+00
0.000000000000e+00
0.000000000000e+00
0.000000000000e+00
0.000000000000e+00
0.000000000000e+00
0.000000000000e+00
0.000000000000e+00
0.000000000000e+00
0.000000000000e+00
0.000000000000e+00
0.000000000000e+00
0.000000000000e+00
0.000000000000e+00
2.550387043000e-17
5.215491596122e-17
6.961069197187e-17
3.238365436959e-17
5.222952439839e-17
4.961617064451e-17
4.521491245349e-17
2.148224434655e-17
3.897833158428e-17
6.053864254669e-17
5.653757764979e-17
5.962968746995e-17
3.030830302444e-17
2.514243724796e-17
3.909362501452e-17
2.167489310759e-17
4.043646871668e-17
3.501167903314e-17
5.619434779754e-17
3.557431771869e-17
7.164831398810e-17
3.317267231244e-17
4.705468451564e-17
2.261168720043e-17
4.606022276144e-17
4.050876536541e-17
6.683579010339e-17
6.342146185576e-17
2.732404844633e-17
4.517476513711e-17
3.358055653261e-17
2.955918884456e-17
6.102570285068e-17
3.078679419404e-17
3.998534664850e-17
4.232804248777e-17
6.424728776130e-17
4.132851976252e-17
6.625076417231e-17
4.055248831514e-17
5.085458447379e-17
5.726376013670e-17
4.665548488759e-17
5.367860952281e-17
3.640546557881e-17
4.823408287305e-17
3.439829009575e-17
3.185745964575e-17
5.547641875104e-17
5.283950748855e-17
4.826352672186e-17
3.019389678842e-17
5.152789487436e-17
7.101939408540e-17
7.474156099308e-17
6.068883417874e-17
4.379315443629e-17
9.018297209638e-17
7.175610613346e-17
4.040558170804e-17
3.765422575342e-17
5.942993763866e-17
4.456259263137e-17
3.118297993467e-17
SCALARS von_mises float 1
LOOKUP_TABLE default
0.000000000000e+00
0.000000000000e+00
0.000000000000e+00
0.000000000000e+00
0.000000000000e+00
0.000000000000e+00
0.000000000000e+00
0.000000000000e+00
0.000000000000e+00
0.000000000000e+00
0.000000000000e+00
0.000000000000e+00
0.000000000000e+00
0.000000000000e+00
0.000000000000e+00
0.000000000000e+00
0.000000000000e+00
0.000000000000e+00
0.000000000000e+00
0.000000000000e+00
0.000000000000e+00
0.000000000000e+00
0.000000000000e+00
0.000000000000e+00
0.000000000000e+00
0.000000000000e+00
0.000000000000e+00
0.000000000000e+00
0.000000000000e+00
0.000000000000e+00
0.000000000000e+00
0.000000000000e+00
0.000000000000e+00
0.000000000000e+00
0.000000000000e+00
0.000000000000e+00
0.000000000000e+00
0.000000000000e+00
0.000000000000e+00
0.000000000000e+00
0.000000000000e+00
0.000000000000e+00
0.000000000000e+00
0.000000000000e+00
0.000000000000e+00
0.000000000000e+00
0.000000000000e+00
0.000000000000e+00
0.000000000000e+00
0.000000000000e+00
0.000000000000e+00
0.000000000000e+00
0.000000000000e+00
0.000000000000e+00
0.000000000000e+00
0.000000000000e+00
0.000000000000e+00
0.000000000000e+00
0.000000000000e+00
0.000000000000e+00
0.000000000000e+00
0.000000000000e+00
0.000000000000e+00
0.000000000000e+00
2.098316596381e-12
4.270885531992e-12
5.052662911972e-12
2.313982294315e-12
3.445265123917e-12
3.297456388304e-12
3.080543002100e-12
1.684166586441e-12
2.525085174850e-12
3.980398714196e-12
3.976723911298e-12
4.029992987383e-12
2.383860896603e-12
1.723177272352e-12
2.640193001233e-12
1.880088616084e-12
2.755657197937e-12
2.277289995283e-12
4.460382555364e-12
2.450214542331e-12
5.113369702976e-12
2.549229536402e-12
4.252683693844e-12
1.510372631417e-12
3.429384628131e-12
2.988537022119e-12
5.672734384454e-12
4.421452249161e-12
1.954491929286e-12
3.249257137565e-12
2.311644748982e-12
2.018412958045e-12
4.089133702913e-12
2.089718810815e-12
3.101514496896e-12
2.855770105796e-12
4.390692825332e-12
3.131278665811e-12
5.729475271792e-12
2.780647595454e-12
3.806497311048e-12
4.356687960223e-12
3.990933214698e-12
3.552237224731e-12
2.502660126829e-12
3.548823095924e-12
2.426144074029e-12
2.149771893106e-12
4.236903107729e-12
4.115529722266e-12
3.815995513259e-12
2.473204175385e-12
3.924713016466e-12
5.347668816165e-12
6.032178236702e-12
4.416808281604e-12
3.025094462323e-12
6.815617863599e-12
5.165726923366e-12
2.927996571159e-12
2.573369760740e-12
4.155577671156e-12
3.196272786849e-12
2.078435646580e-12
SCALARS sdf_gap float 1
LOOKUP_TABLE default
0.000000000000e+00
0.000000000000e+00
0.000000000000e+00
0.000000000000e+00
0.000000000000e+00
0.000000000000e+00
0.000000000000e+00
0.000000000000e+00
0.000000000000e+00
0.000000000000e+00
0.000000000000e+00
0.000000000000e+00
0.000000000000e+00
0.000000000000e+00
0.000000000000e+00
0.000000000000e+00
0.000000000000e+00
0.000000000000e+00
0.000000000000e+00
0.000000000000e+00
0.000000000000e+00
0.000000000000e+00
0.000000000000e+00
0.000000000000e+00
0.000000000000e+00
0.000000000000e+00
0.000000000000e+00
0.000000000000e+00
0.000000000000e+00
0.000000000000e+00
0.000000000000e+00
0.000000000000e+00
0.000000000000e+00
0.000000000000e+00
0.000000000000e+00
0.000000000000e+00
0.000000000000e+00
0.000000000000e+00
0.000000000000e+00
0.000000000000e+00
0.000000000000e+00
0.000000000000e+00
0.000000000000e+00
0.000000000000e+00
0.000000000000e+00
0.000000000000e+00
0.000000000000e+00
0.000000000000e+00
0.000000000000e+00
0.000000000000e+00
0.000000000000e+00
0.000000000000e+00
0.000000000000e+00
0.000000000000e+00
0.000000000000e+00
0.000000000000e+00
0.000000000000e+00
0.000000000000e+00
0.000000000000e+00
0.000000000000e+00
0.000000000000e+00
0.000000000000e+00
0.000000000000e+00
0.000000000000e+00
9.450556955018e-03
9.450556955093e-03
9.450556955169e-03
9.450556955244e-03
9.450556955026e-03
9.450556955101e-03
9.450556955176e-03
9.450556955252e-03
9.450556955033e-03
9.450556955109e-03
9.450556955184e-03
9.450556955260e-03
9.450556955041e-03
9.450556955116e-03
9.450556955192e-03
9.450556955267e-03
0.000000000000e+00
0.000000000000e+00
0.000000000000e+00
0.000000000000e+00
0.000000000000e+00
0.000000000000e+00
0.000000000000e+00
0.000000000000e+00
0.000000000000e+00
0.000000000000e+00
0.000000000000e+00
0.000000000000e+00
0.000000000000e+00
0.000000000000e+00
0.000000000000e+00
0.000000000000e+00
0.000000000000e+00
0.000000000000e+00
0.000000000000e+00
0.000000000000e+00
0.000000000000e+00
0.000000000000e+00
0.000000000000e+00
0.000000000000e+00
0.000000000000e+00
0.000000000000e+00
0.000000000000e+00
0.000000000000e+00
0.000000000000e+00
0.000000000000e+00
0.000000000000e+00
0.000000000000e+00
0.000000000000e+00
0.000000000000e+00
0.000000000000e+00
0.000000000000e+00
0.000000000000e+00
0.000000000000e+00
0.000000000000e+00
0.000000000000e+00
0.000000000000e+00
0.000000000000e+00
0.000000000000e+00
0.000000000000e+00
0.000000000000e+00
0.000000000000e+00
0.000000000000e+00
0.000000000000e+00
SCALARS contact_pressure float 1
LOOKUP_TABLE default
0.000000000000e+00
0.000000000000e+00
0.000000000000e+00
0.000000000000e+00
0.000000000000e+00
0.000000000000e+00
0.000000000000e+00
0.000000000000e+00
0.000000000000e+00
0.000000000000e+00
0.000000000000e+00
0.000000000000e+00
0.000000000000e+00
0.000000000000e+00
0.000000000000e+00
0.000000000000e+00
0.000000000000e+00
0.000000000000e+00
0.000000000000e+00
0.000000000000e+00
0.000000000000e+00
0.000000000000e+00
0.000000000000e+00
0.000000000000e+00
0.000000000000e+00
0.000000000000e+00
0.000000000000e+00
0.000000000000e+00
0.000000000000e+00
0.000000000000e+00
0.000000000000e+00
0.000000000000e+00
0.000000000000e+00
0.000000000000e+00
0.000000000000e+00
0.000000000000e+00
0.000000000000e+00
0.000000000000e+00
0.000000000000e+00
0.000000000000e+00
0.000000000000e+00
0.000000000000e+00
0.000000000000e+00
0.000000000000e+00
0.000000000000e+00
0.000000000000e+00
0.000000000000e+00
0.000000000000e+00
0.000000000000e+00
0.000000000000e+00
0.000000000000e+00
0.000000000000e+00
0.000000000000e+00
0.000000000000e+00
0.000000000000e+00
0.000000000000e+00
0.000000000000e+00
0.000000000000e+00
0.000000000000e+00
0.000000000000e+00
0.000000000000e+00
0.000000000000e+00
0.000000000000e+00
0.000000000000e+00
0.000000000000e+00
0.000000000000e+00
0.000000000000e+00
0.000000000000e+00
0.000000000000e+00
0.000000000000e+00
0.000000000000e+00
0.000000000000e+00
0.000000000000e+00
0.000000000000e+00
0.000000000000e+00
0.000000000000e+00
0.000000000000e+00
0.000000000000e+00
0.000000000000e+00
0.000000000000e+00
0.000000000000e+00
0.000000000000e+00
0.000000000000e+00
0.000000000000e+00
0.000000000000e+00
0.000000000000e+00
0.000000000000e+00
0.000000000000e+00
0.000000000000e+00
0.000000000000e+00
0.000000000000e+00
0.000000000000e+00
0.000000000000e+00
0.000000000000e+00
0.000000000000e+00
0.000000000000e+00
0.000000000000e+00
0.000000000000e+00
0.000000000000e+00
0.000000000000e+00
0.000000000000e+00
0.000000000000e+00
0.000000000000e+00
0.000000000000e+00
0.000000000000e+00
0.000000000000e+00
0.000000000000e+00
0.000000000000e+00
0.000000000000e+00
0.000000000000e+00
0.000000000000e+00
0.000000000000e+00
0.000000000000e+00
0.000000000000e+00
0.000000000000e+00
0.000000000000e+00
0.000000000000e+00
0.000000000000e+00
0.000000000000e+00
0.000000000000e+00
0.000000000000e+00
0.000000000000e+00
0.000000000000e+00
0.000000000000e+00
0.000000000000e+00
0.000000000000e+00
0.000000000000e+00
0.000000000000e+00
SCALARS active_contact float 1
LOOKUP_TABLE default
0.000000000000e+00
0.000000000000e+00
0.000000000000e+00
0.000000000000e+00
0.000000000000e+00
0.000000000000e+00
0.000000000000e+00
0.000000000000e+00
0.000000000000e+00
0.000000000000e+00
0.000000000000e+00
0.000000000000e+00
0.000000000000e+00
0.000000000000e+00
0.000000000000e+00
0.000000000000e+00
0.000000000000e+00
0.000000000000e+00
0.000000000000e+00
0.000000000000e+00
0.000000000000e+00
0.000000000000e+00
0.000000000000e+00
0.000000000000e+00
0.000000000000e+00
0.000000000000e+00
0.000000000000e+00
0.000000000000e+00
0.000000000000e+00
0.000000000000e+00
0.000000000000e+00
0.000000000000e+00
0.000000000000e+00
0.000000000000e+00
0.000000000000e+00
0.000000000000e+00
0.000000000000e+00
0.000000000000e+00
0.000000000000e+00
0.000000000000e+00
0.000000000000e+00
0.000000000000e+00
0.000000000000e+00
0.000000000000e+00
0.000000000000e+00
0.000000000000e+00
0.000000000000e+00
0.000000000000e+00
0.000000000000e+00
0.000000000000e+00
0.000000000000e+00
0.000000000000e+00
0.000000000000e+00
0.000000000000e+00
0.000000000000e+00
0.000000000000e+00
0.000000000000e+00
0.000000000000e+00
0.000000000000e+00
0.000000000000e+00
0.000000000000e+00
0.000000000000e+00
0.000000000000e+00
0.000000000000e+00
0.000000000000e+00
0.000000000000e+00
0.000000000000e+00
0.000000000000e+00
0.000000000000e+00
0.000000000000e+00
0.000000000000e+00
0.000000000000e+00
0.000000000000e+00
0.000000000000e+00
0.000000000000e+00
0.000000000000e+00
0.000000000000e+00
0.000000000000e+00
0.000000000000e+00
0.000000000000e+00
0.000000000000e+00
0.000000000000e+00
0.000000000000e+00
0.000000000000e+00
0.000000000000e+00
0.000000000000e+00
0.000000000000e+00
0.000000000000e+00
0.000000000000e+00
0.000000000000e+00
0.000000000000e+00
0.000000000000e+00
0.000000000000e+00
0.000000000000e+00
0.000000000000e+00
0.000000000000e+00
0.000000000000e+00
0.000000000000e+00
0.000000000000e+00
0.000000000000e+00
0.000000000000e+00
0.000000000000e+00
0.000000000000e+00
0.000000000000e+00
0.000000000000e+00
0.000000000000e+00
0.000000000000e+00
0.000000000000e+00
0.000000000000e+00
0.000000000000e+00
0.000000000000e+00
0.000000000000e+00
0.000000000000e+00
0.000000000000e+00
0.000000000000e+00
0.000000000000e+00
0.000000000000e+00
0.000000000000e+00
0.000000000000e+00
0.000000000000e+00
0.000000000000e+00
0.000000000000e+00
0.000000000000e+00
0.000000000000e+00
0.000000000000e+00
0.000000000000e+00
0.000000000000e+00
0.000000000000e+00
