# vtk DataFile Version 3.0
SFC long-time C3D8 dynamic frame 53 t=1.060000000000e+00
ASCII
DATASET UNSTRUCTURED_GRID
POINTS 250 float
-2.500000000000e-01 -2.500000000000e-01 0.000000000000e+00
-1.250000000000e-01 -2.500000000000e-01 0.000000000000e+00
0.000000000000e+00 -2.500000000000e-01 0.000000000000e+00
1.250000000000e-01 -2.500000000000e-01 0.000000000000e+00
2.500000000000e-01 -2.500000000000e-01 0.000000000000e+00
-2.500000000000e-01 -1.250000000000e-01 0.000000000000e+00
-1.250000000000e-01 -1.250000000000e-01 0.000000000000e+00
0.000000000000e+00 -1.250000000000e-01 0.000000000000e+00
1.250000000000e-01 -1.250000000000e-01 0.000000000000e+00
2.500000000000e-01 -1.250000000000e-01 0.000000000000e+00
-2.500000000000e-01 0.000000000000e+00 0.000000000000e+00
-1.250000000000e-01 0.000000000000e+00 0.000000000000e+00
0.000000000000e+00 0.000000000000e+00 0.000000000000e+00
1.250000000000e-01 0.000000000000e+00 0.000000000000e+00
2.500000000000e-01 0.000000000000e+00 0.000000000000e+00
-2.500000000000e-01 1.250000000000e-01 0.000000000000e+00
-1.250000000000e-01 1.250000000000e-01 0.000000000000e+00
0.000000000000e+00 1.250000000000e-01 0.000000000000e+00
1.250000000000e-01 1.250000000000e-01 0.000000000000e+00
2.500000000000e-01 1.250000000000e-01 0.000000000000e+00
-2.500000000000e-01 2.500000000000e-01 0.000000000000e+00
-1.250000000000e-01 2.500000000000e-01 0.000000000000e+00
0.000000000000e+00 2.500000000000e-01 0.000000000000e+00
1.250000000000e-01 2.500000000000e-01 0.000000000000e+00
2.500000000000e-01 2.500000000000e-01 0.000000000000e+00
-2.500000000000e-01 -2.500000000000e-01 6.000000000000e-02
-1.250000000000e-01 -2.500000000000e-01 6.000000000000e-02
0.000000000000e+00 -2.500000000000e-01 6.000000000000e-02
1.250000000000e-01 -2.500000000000e-01 6.000000000000e-02
2.500000000000e-01 -2.500000000000e-01 6.000000000000e-02
-2.500000000000e-01 -1.250000000000e-01 6.000000000000e-02
-1.250000000000e-01 -1.250000000000e-01 6.000000000000e-02
0.000000000000e+00 -1.250000000000e-01 6.000000000000e-02
1.250000000000e-01 -1.250000000000e-01 6.000000000000e-02
2.500000000000e-01 -1.250000000000e-01 6.000000000000e-02
-2.500000000000e-01 0.000000000000e+00 6.000000000000e-02
-1.250000000000e-01 0.000000000000e+00 6.000000000000e-02
0.000000000000e+00 0.000000000000e+00 6.000000000000e-02
1.250000000000e-01 0.000000000000e+00 6.000000000000e-02
2.500000000000e-01 0.000000000000e+00 6.000000000000e-02
-2.500000000000e-01 1.250000000000e-01 6.000000000000e-02
-1.250000000000e-01 1.250000000000e-01 6.000000000000e-02
0.000000000000e+00 1.250000000000e-01 6.000000000000e-02
1.250000000000e-01 1.250000000000e-01 6.000000000000e-02
2.500000000000e-01 1.250000000000e-01 6.000000000000e-02
-2.500000000000e-01 2.500000000000e-01 6.000000000000e-02
-1.250000000000e-01 2.500000000000e-01 6.000000000000e-02
0.000000000000e+00 2.500000000000e-01 6.000000000000e-02
1.250000000000e-01 2.500000000000e-01 6.000000000000e-02
2.500000000000e-01 2.500000000000e-01 6.000000000000e-02
-2.500000000000e-01 -2.500000000000e-01 1.200000000000e-01
-1.250000000000e-01 -2.500000000000e-01 1.200000000000e-01
0.000000000000e+00 -2.500000000000e-01 1.200000000000e-01
1.250000000000e-01 -2.500000000000e-01 1.200000000000e-01
2.500000000000e-01 -2.500000000000e-01 1.200000000000e-01
-2.500000000000e-01 -1.250000000000e-01 1.200000000000e-01
-1.250000000000e-01 -1.250000000000e-01 1.200000000000e-01
0.000000000000e+00 -1.250000000000e-01 1.200000000000e-01
1.250000000000e-01 -1.250000000000e-01 1.200000000000e-01
2.500000000000e-01 -1.250000000000e-01 1.200000000000e-01
-2.500000000000e-01 0.000000000000e+00 1.200000000000e-01
-1.250000000000e-01 0.000000000000e+00 1.200000000000e-01
0.000000000000e+00 0.000000000000e+00 1.200000000000e-01
1.250000000000e-01 0.000000000000e+00 1.200000000000e-01
2.500000000000e-01 0.000000000000e+00 1.200000000000e-01
-2.500000000000e-01 1.250000000000e-01 1.200000000000e-01
-1.250000000000e-01 1.250000000000e-01 1.200000000000e-01
0.000000000000e+00 1.250000000000e-01 1.200000000000e-01
1.250000000000e-01 1.250000000000e-01 1.200000000000e-01
2.500000000000e-01 1.250000000000e-01 1.200000000000e-01
-2.500000000000e-01 2.500000000000e-01 1.200000000000e-01
-1.250000000000e-01 2.500000000000e-01 1.200000000000e-01
0.000000000000e+00 2.500000000000e-01 1.200000000000e-01
1.250000000000e-01 2.500000000000e-01 1.200000000000e-01
2.500000000000e-01 2.500000000000e-01 1.200000000000e-01
-2.500000000000e-01 -2.500000000000e-01 1.800000000000e-01
-1.250000000000e-01 -2.500000000000e-01 1.800000000000e-01
0.000000000000e+00 -2.500000000000e-01 1.800000000000e-01
1.250000000000e-01 -2.500000000000e-01 1.800000000000e-01
2.500000000000e-01 -2.500000000000e-01 1.800000000000e-01
-2.500000000000e-01 -1.250000000000e-01 1.800000000000e-01
-1.250000000000e-01 -1.250000000000e-01 1.800000000000e-01
0.000000000000e+00 -1.250000000000e-01 1.800000000000e-01
1.250000000000e-01 -1.250000000000e-01 1.800000000000e-01
2.500000000000e-01 -1.250000000000e-01 1.800000000000e-01
-2.500000000000e-01 0.000000000000e+00 1.800000000000e-01
-1.250000000000e-01 0.000000000000e+00 1.800000000000e-01
0.000000000000e+00 0.000000000000e+00 1.800000000000e-01
1.250000000000e-01 0.000000000000e+00 1.800000000000e-01
2.500000000000e-01 0.000000000000e+00 1.800000000000e-01
-2.500000000000e-01 1.250000000000e-01 1.800000000000e-01
-1.250000000000e-01 1.250000000000e-01 1.800000000000e-01
0.000000000000e+00 1.250000000000e-01 1.800000000000e-01
1.250000000000e-01 1.250000000000e-01 1.800000000000e-01
2.500000000000e-01 1.250000000000e-01 1.800000000000e-01
-2.500000000000e-01 2.500000000000e-01 1.800000000000e-01
-1.250000000000e-01 2.500000000000e-01 1.800000000000e-01
0.000000000000e+00 2.500000000000e-01 1.800000000000e-01
1.250000000000e-01 2.500000000000e-01 1.800000000000e-01
2.500000000000e-01 2.500000000000e-01 1.800000000000e-01
-2.500000000000e-01 -2.500000000000e-01 2.400000000000e-01
-1.250000000000e-01 -2.500000000000e-01 2.400000000000e-01
0.000000000000e+00 -2.500000000000e-01 2.400000000000e-01
1.250000000000e-01 -2.500000000000e-01 2.400000000000e-01
2.500000000000e-01 -2.500000000000e-01 2.400000000000e-01
-2.500000000000e-01 -1.250000000000e-01 2.400000000000e-01
-1.250000000000e-01 -1.250000000000e-01 2.400000000000e-01
0.000000000000e+00 -1.250000000000e-01 2.400000000000e-01
1.250000000000e-01 -1.250000000000e-01 2.400000000000e-01
2.500000000000e-01 -1.250000000000e-01 2.400000000000e-01
-2.500000000000e-01 0.000000000000e+00 2.400000000000e-01
-1.250000000000e-01 0.000000000000e+00 2.400000000000e-01
0.000000000000e+00 0.000000000000e+00 2.400000000000e-01
1.250000000000e-01 0.000000000000e+00 2.400000000000e-01
2.500000000000e-01 0.000000000000e+00 2.400000000000e-01
-2.500000000000e-01 1.250000000000e-01 2.400000000000e-01
-1.250000000000e-01 1.250000000000e-01 2.400000000000e-01
0.000000000000e+00 1.250000000000e-01 2.400000000000e-01
1.250000000000e-01 1.250000000000e-01 2.400000000000e-01
2.500000000000e-01 1.250000000000e-01 2.400000000000e-01
-2.500000000000e-01 2.500000000000e-01 2.400000000000e-01
-1.250000000000e-01 2.500000000000e-01 2.400000000000e-01
0.000000000000e+00 2.500000000000e-01 2.400000000000e-01
1.250000000000e-01 2.500000000000e-01 2.400000000000e-01
2.500000000000e-01 2.500000000000e-01 2.400000000000e-01
-2.500019054032e-01 -2.500019054032e-01 2.399487364679e-01
-1.250010123410e-01 -2.500018935302e-01 2.399481098995e-01
1.314784484952e-14 -2.500018683431e-01 2.399478759308e-01
1.250010123410e-01 -2.500018935302e-01 2.399481098995e-01
2.500019054032e-01 -2.500019054032e-01 2.399487364679e-01
-2.500018935301e-01 -1.250010123410e-01 2.399481098995e-01
-1.250010104653e-01 -1.250010104654e-01 2.399474944775e-01
1.263620158387e-14 -1.250010006104e-01 2.399472672604e-01
1.250010104654e-01 -1.250010104654e-01 2.399474944775e-01
2.500018935302e-01 -1.250010123410e-01 2.399481098995e-01
-2.500018683431e-01 -1.672957698053e-14 2.399478759308e-01
-1.250010006104e-01 -1.621218749514e-14 2.399472672604e-01
1.212561377623e-14 -1.568750016147e-14 2.399470411840e-01
1.250010006104e-01 -1.515961812681e-14 2.399472672604e-01
2.500018683431e-01 -1.464137188756e-14 2.399478759308e-01
-2.500018935301e-01 1.250010123410e-01 2.399481098995e-01
-1.250010104653e-01 1.250010104653e-01 2.399474944775e-01
1.161201824082e-14 1.250010006104e-01 2.399472672604e-01
1.250010104654e-01 1.250010104653e-01 2.399474944775e-01
2.500018935302e-01 1.250010123410e-01 2.399481098995e-01
-2.500019054032e-01 2.500019054032e-01 2.399487364679e-01
-1.250010123410e-01 2.500018935301e-01 2.399481098995e-01
1.108829709676e-14 2.500018683431e-01 2.399478759308e-01
1.250010123410e-01 2.500018935301e-01 2.399481098995e-01
2.500019054032e-01 2.500019054032e-01 2.399487364679e-01
-2.500015081734e-01 -2.500015081734e-01 3.049473372710e-01
-1.250007855005e-01 -2.500015037827e-01 3.049466777239e-01
1.311838783806e-14 -2.500014864476e-01 3.049464295721e-01
1.250007855005e-01 -2.500015037827e-01 3.049466777239e-01
2.500015081734e-01 -2.500015081734e-01 3.049473372710e-01
-2.500015037827e-01 -1.250007855005e-01 3.049466777239e-01
-1.250007853374e-01 -1.250007853374e-01 3.049460256877e-01
1.260360081113e-14 -1.250007778518e-01 3.049457826379e-01
1.250007853374e-01 -1.250007853374e-01 3.049460256877e-01
2.500015037827e-01 -1.250007855005e-01 3.049466777239e-01
-2.500014864475e-01 -1.672218571670e-14 3.049464295721e-01
-1.250007778518e-01 -1.619703818168e-14 3.049457826379e-01
1.209309874240e-14 -1.567657219175e-14 3.049455397765e-01
1.250007778518e-01 -1.515217595473e-14 3.049457826379e-01
2.500014864476e-01 -1.463774300742e-14 3.049464295721e-01
-2.500015037827e-01 1.250007855005e-01 3.049466777239e-01
-1.250007853374e-01 1.250007853374e-01 3.049460256877e-01
1.157011408670e-14 1.250007778518e-01 3.049457826379e-01
1.250007853374e-01 1.250007853374e-01 3.049460256877e-01
2.500015037827e-01 1.250007855005e-01 3.049466777239e-01
-2.500015081734e-01 2.500015081734e-01 3.049473372710e-01
-1.250007855005e-01 2.500015037827e-01 3.049466777239e-01
1.104883890451e-14 2.500014864475e-01 3.049464295721e-01
1.250007855005e-01 2.500015037827e-01 3.049466777239e-01
2.500015081734e-01 2.500015081734e-01 3.049473372710e-01
-2.500010487882e-01 -2.500010487883e-01 3.699463533107e-01
-1.250005585967e-01 -2.500010435779e-01 3.699456652585e-01
1.308653957530e-14 -2.500010300173e-01 3.699454073608e-01
1.250005585967e-01 -2.500010435779e-01 3.699456652585e-01
2.500010487883e-01 -2.500010487883e-01 3.699463533107e-01
-2.500010435778e-01 -1.250005585967e-01 3.699456652585e-01
-1.250005586443e-01 -1.250005586444e-01 3.699449813972e-01
1.257077102113e-14 -1.250005531960e-01 3.699447274505e-01
1.250005586443e-01 -1.250005586444e-01 3.699449813972e-01
2.500010435779e-01 -1.250005585967e-01 3.699456652585e-01
-2.500010300172e-01 -1.670770240602e-14 3.699454073608e-01
-1.250005531960e-01 -1.618700516854e-14 3.699447274505e-01
1.205789839648e-14 -1.566372642185e-14 3.699444730313e-01
1.250005531960e-01 -1.514582365949e-14 3.699447274505e-01
2.500010300173e-01 -1.462920516188e-14 3.699454073608e-01
-2.500010435778e-01 1.250005585967e-01 3.699456652585e-01
-1.250005586443e-01 1.250005586443e-01 3.699449813972e-01
1.153219084303e-14 1.250005531960e-01 3.699447274505e-01
1.250005586443e-01 1.250005586443e-01 3.699449813972e-01
2.500010435779e-01 1.250005585967e-01 3.699456652585e-01
-2.500010487882e-01 2.500010487882e-01 3.699463533107e-01
-1.250005585967e-01 2.500010435778e-01 3.699456652585e-01
1.100678342782e-14 2.500010300172e-01 3.699454073608e-01
1.250005585967e-01 2.500010435778e-01 3.699456652585e-01
2.500010487883e-01 2.500010487882e-01 3.699463533107e-01
-2.500005821678e-01 -2.500005821678e-01 4.349457582271e-01
-1.250003211684e-01 -2.500005755697e-01 4.349450546721e-01
1.305289277642e-14 -2.500005662681e-01 4.349447813293e-01
1.250003211685e-01 -2.500005755697e-01 4.349450546721e-01
2.500005821678e-01 -2.500005821678e-01 4.349457582271e-01
-2.500005755697e-01 -1.250003211685e-01 4.349450546721e-01
-1.250003211594e-01 -1.250003211594e-01 4.349443550031e-01
1.253904929581e-14 -1.250003174087e-01 4.349440844042e-01
1.250003211594e-01 -1.250003211594e-01 4.349443550031e-01
2.500005755697e-01 -1.250003211685e-01 4.349450546721e-01
-2.500005662681e-01 -1.669318693250e-14 4.349447813293e-01
-1.250003174087e-01 -1.617421171856e-14 4.349440844042e-01
1.201990049127e-14 -1.565418612612e-14 4.349438117535e-01
1.250003174087e-01 -1.514139436342e-14 4.349440844042e-01
2.500005662681e-01 -1.461987857969e-14 4.349447813293e-01
-2.500005755697e-01 1.250003211684e-01 4.349450546721e-01
-1.250003211594e-01 1.250003211594e-01 4.349443550031e-01
1.149374415613e-14 1.250003174087e-01 4.349440844042e-01
1.250003211594e-01 1.250003211594e-01 4.349443550031e-01
2.500005755697e-01 1.250003211684e-01 4.349450546721e-01
-2.500005821678e-01 2.500005821678e-01 4.349457582271e-01
-1.250003211684e-01 2.500005755697e-01 4.349450546721e-01
1.096955699901e-14 2.500005662681e-01 4.349447813293e-01
1.250003211685e-01 2.500005755697e-01 4.349450546721e-01
2.500005821678e-01 2.500005821678e-01 4.349457582271e-01
-2.500001554229e-01 -2.500001554229e-01 4.999455342941e-01
-1.250000654010e-01 -2.500001550179e-01 4.999448287792e-01
1.302017285338e-14 -2.500001538050e-01 4.999445483608e-01
1.250000654010e-01 -2.500001550179e-01 4.999448287792e-01
2.500001554229e-01 -2.500001554229e-01 4.999455342941e-01
-2.500001550178e-01 -1.250000654010e-01 4.999448287792e-01
-1.250000653432e-01 -1.250000653432e-01 4.999441277231e-01
1.250830576745e-14 -1.250000624492e-01 4.999438497475e-01
1.250000653432e-01 -1.250000653432e-01 4.999441277231e-01
2.500001550179e-01 -1.250000654010e-01 4.999448287792e-01
-2.500001538050e-01 -1.668220835507e-14 4.999445483608e-01
-1.250000624492e-01 -1.615831415730e-14 4.999438497475e-01
1.198040782706e-14 -1.564607837238e-14 4.999435694773e-01
1.250000624492e-01 -1.513503090382e-14 4.999438497475e-01
2.500001538050e-01 -1.461791339627e-14 4.999445483608e-01
-2.500001550178e-01 1.250000654010e-01 4.999448287792e-01
-1.250000653432e-01 1.250000653432e-01 4.999441277231e-01
1.145315919666e-14 1.250000624492e-01 4.999438497475e-01
1.250000653432e-01 1.250000653432e-01 4.999441277231e-01
2.500001550178e-01 1.250000654010e-01 4.999448287792e-01
-2.500001554229e-01 2.500001554229e-01 4.999455342941e-01
-1.250000654010e-01 2.500001550178e-01 4.999448287792e-01
1.092723283181e-14 2.500001538049e-01 4.999445483608e-01
1.250000654010e-01 2.500001550178e-01 4.999448287792e-01
2.500001554229e-01 2.500001554229e-01 4.999455342941e-01
CELLS 128 1152
8 0 1 6 5 25 26 31 30
8 1 2 7 6 26 27 32 31
8 2 3 8 7 27 28 33 32
8 3 4 9 8 28 29 34 33
8 5 6 11 10 30 31 36 35
8 6 7 12 11 31 32 37 36
8 7 8 13 12 32 33 38 37
8 8 9 14 13 33 34 39 38
8 10 11 16 15 35 36 41 40
8 11 12 17 16 36 37 42 41
8 12 13 18 17 37 38 43 42
8 13 14 19 18 38 39 44 43
8 15 16 21 20 40 41 46 45
8 16 17 22 21 41 42 47 46
8 17 18 23 22 42 43 48 47
8 18 19 24 23 43 44 49 48
8 25 26 31 30 50 51 56 55
8 26 27 32 31 51 52 57 56
8 27 28 33 32 52 53 58 57
8 28 29 34 33 53 54 59 58
8 30 31 36 35 55 56 61 60
8 31 32 37 36 56 57 62 61
8 32 33 38 37 57 58 63 62
8 33 34 39 38 58 59 64 63
8 35 36 41 40 60 61 66 65
8 36 37 42 41 61 62 67 66
8 37 38 43 42 62 63 68 67
8 38 39 44 43 63 64 69 68
8 40 41 46 45 65 66 71 70
8 41 42 47 46 66 67 72 71
8 42 43 48 47 67 68 73 72
8 43 44 49 48 68 69 74 73
8 50 51 56 55 75 76 81 80
8 51 52 57 56 76 77 82 81
8 52 53 58 57 77 78 83 82
8 53 54 59 58 78 79 84 83
8 55 56 61 60 80 81 86 85
8 56 57 62 61 81 82 87 86
8 57 58 63 62 82 83 88 87
8 58 59 64 63 83 84 89 88
8 60 61 66 65 85 86 91 90
8 61 62 67 66 86 87 92 91
8 62 63 68 67 87 88 93 92
8 63 64 69 68 88 89 94 93
8 65 66 71 70 90 91 96 95
8 66 67 72 71 91 92 97 96
8 67 68 73 72 92 93 98 97
8 68 69 74 73 93 94 99 98
8 75 76 81 80 100 101 106 105
8 76 77 82 81 101 102 107 106
8 77 78 83 82 102 103 108 107
8 78 79 84 83 103 104 109 108
8 80 81 86 85 105 106 111 110
8 81 82 87 86 106 107 112 111
8 82 83 88 87 107 108 113 112
8 83 84 89 88 108 109 114 113
8 85 86 91 90 110 111 116 115
8 86 87 92 91 111 112 117 116
8 87 88 93 92 112 113 118 117
8 88 89 94 93 113 114 119 118
8 90 91 96 95 115 116 121 120
8 91 92 97 96 116 117 122 121
8 92 93 98 97 117 118 123 122
8 93 94 99 98 118 119 124 123
8 125 126 131 130 150 151 156 155
8 126 127 132 131 151 152 157 156
8 127 128 133 132 152 153 158 157
8 128 129 134 133 153 154 159 158
8 130 131 136 135 155 156 161 160
8 131 132 137 136 156 157 162 161
8 132 133 138 137 157 158 163 162
8 133 134 139 138 158 159 164 163
8 135 136 141 140 160 161 166 165
8 136 137 142 141 161 162 167 166
8 137 138 143 142 162 163 168 167
8 138 139 144 143 163 164 169 168
8 140 141 146 145 165 166 171 170
8 141 142 147 146 166 167 172 171
8 142 143 148 147 167 168 173 172
8 143 144 149 148 168 169 174 173
8 150 151 156 155 175 176 181 180
8 151 152 157 156 176 177 182 181
8 152 153 158 157 177 178 183 182
8 153 154 159 158 178 179 184 183
8 155 156 161 160 180 181 186 185
8 156 157 162 161 181 182 187 186
8 157 158 163 162 182 183 188 187
8 158 159 164 163 183 184 189 188
8 160 161 166 165 185 186 191 190
8 161 162 167 166 186 187 192 191
8 162 163 168 167 187 188 193 192
8 163 164 169 168 188 189 194 193
8 165 166 171 170 190 191 196 195
8 166 167 172 171 191 192 197 196
8 167 168 173 172 192 193 198 197
8 168 169 174 173 193 194 199 198
8 175 176 181 180 200 201 206 205
8 176 177 182 181 201 202 207 206
8 177 178 183 182 202 203 208 207
8 178 179 184 183 203 204 209 208
8 180 181 186 185 205 206 211 210
8 181 182 187 186 206 207 212 211
8 182 183 188 187 207 208 213 212
8 183 184 189 188 208 209 214 213
8 185 186 191 190 210 211 216 215
8 186 187 192 191 211 212 217 216
8 187 188 193 192 212 213 218 217
8 188 189 194 193 213 214 219 218
8 190 191 196 195 215 216 221 220
8 191 192 197 196 216 217 222 221
8 192 193 198 197 217 218 223 222
8 193 194 199 198 218 219 224 223
8 200 201 206 205 225 226 231 230
8 201 202 207 206 226 227 232 231
8 202 203 208 207 227 228 233 232
8 203 204 209 208 228 229 234 233
8 205 206 211 210 230 231 236 235
8 206 207 212 211 231 232 237 236
8 207 208 213 212 232 233 238 237
8 208 209 214 213 233 234 239 238
8 210 211 216 215 235 236 241 240
8 211 212 217 216 236 237 242 241
8 212 213 218 217 237 238 243 242
8 213 214 219 218 238 239 244 243
8 215 216 221 220 240 241 246 245
8 216 217 222 221 241 242 247 246
8 217 218 223 222 242 243 248 247
8 218 219 224 223 243 244 249 248
CELL_TYPES 128
12
12
12
12
12
12
12
12
12
12
12
12
12
12
12
12
12
12
12
12
12
12
12
12
12
12
12
12
12
12
12
12
12
12
12
12
12
12
12
12
12
12
12
12
12
12
12
12
12
12
12
12
12
12
12
12
12
12
12
12
12
12
12
12
12
12
12
12
12
12
12
12
12
12
12
12
12
12
12
12
12
12
12
12
12
12
12
12
12
12
12
12
12
12
12
12
12
12
12
12
12
12
12
12
12
12
12
12
12
12
12
12
12
12
12
12
12
12
12
12
12
12
12
12
12
12
12
12
POINT_DATA 250
VECTORS displacement float
0.000000000000e+00 0.000000000000e+00 0.000000000000e+00
0.000000000000e+00 0.000000000000e+00 0.000000000000e+00
0.000000000000e+00 0.000000000000e+00 0.000000000000e+00
0.000000000000e+00 0.000000000000e+00 0.000000000000e+00
0.000000000000e+00 0.000000000000e+00 0.000000000000e+00
0.000000000000e+00 0.000000000000e+00 0.000000000000e+00
0.000000000000e+00 0.000000000000e+00 0.000000000000e+00
0.000000000000e+00 0.000000000000e+00 0.000000000000e+00
0.000000000000e+00 0.000000000000e+00 0.000000000000e+00
0.000000000000e+00 0.000000000000e+00 0.000000000000e+00
0.000000000000e+00 0.000000000000e+00 0.000000000000e+00
0.000000000000e+00 0.000000000000e+00 0.000000000000e+00
0.000000000000e+00 0.000000000000e+00 0.000000000000e+00
0.000000000000e+00 0.000000000000e+00 0.000000000000e+00
0.000000000000e+00 0.000000000000e+00 0.000000000000e+00
0.000000000000e+00 0.000000000000e+00 0.000000000000e+00
0.000000000000e+00 0.000000000000e+00 0.000000000000e+00
0.000000000000e+00 0.000000000000e+00 0.000000000000e+00
0.000000000000e+00 0.000000000000e+00 0.000000000000e+00
0.000000000000e+00 0.000000000000e+00 0.000000000000e+00
0.000000000000e+00 0.000000000000e+00 0.000000000000e+00
0.000000000000e+00 0.000000000000e+00 0.000000000000e+00
0.000000000000e+00 0.000000000000e+00 0.000000000000e+00
0.000000000000e+00 0.000000000000e+00 0.000000000000e+00
0.000000000000e+00 0.000000000000e+00 0.000000000000e+00
0.000000000000e+00 0.000000000000e+00 0.000000000000e+00
0.000000000000e+00 0.000000000000e+00 0.000000000000e+00
0.000000000000e+00 0.000000000000e+00 0.000000000000e+00
0.000000000000e+00 0.000000000000e+00 0.000000000000e+00
0.000000000000e+00 0.000000000000e+00 0.000000000000e+00
0.000000000000e+00 0.000000000000e+00 0.000000000000e+00
0.000000000000e+00 0.000000000000e+00 0.000000000000e+00
0.000000000000e+00 0.000000000000e+00 0.000000000000e+00
0.000000000000e+00 0.000000000000e+00 0.000000000000e+00
0.000000000000e+00 0.000000000000e+00 0.000000000000e+00
0.000000000000e+00 0.000000000000e+00 0.000000000000e+00
0.000000000000e+00 0.000000000000e+00 0.000000000000e+00
0.000000000000e+00 0.000000000000e+00 0.000000000000e+00
0.000000000000e+00 0.000000000000e+00 0.000000000000e+00
0.000000000000e+00 0.000000000000e+00 0.000000000000e+00
0.000000000000e+00 0.000000000000e+00 0.000000000000e+00
0.000000000000e+00 0.000000000000e+00 0.000000000000e+00
0.000000000000e+00 0.000000000000e+00 0.000000000000e+00
0.000000000000e+00 0.000000000000e+00 0.000000000000e+00
0.000000000000e+00 0.000000000000e+00 0.000000000000e+00
0.000000000000e+00 0.000000000000e+00 0.000000000000e+00
0.000000000000e+00 0.000000000000e+00 0.000000000000e+00
0.000000000000e+00 0.000000000000e+00 0.000000000000e+00
0.000000000000e+00 0.000000000000e+00 0.000000000000e+00
0.000000000000e+00 0.000000000000e+00 0.000000000000e+00
0.000000000000e+00 0.000000000000e+00 0.000000000000e+00
0.000000000000e+00 0.000000000000e+00 0.000000000000e+00
0.000000000000e+00 0.000000000000e+00 0.000000000000e+00
0.000000000000e+00 0.000000000000e+00 0.000000000000e+00
0.000000000000e+00 0.000000000000e+00 0.000000000000e+00
0.000000000000e+00 0.000000000000e+00 0.000000000000e+00
0.000000000000e+00 0.000000000000e+00 0.000000000000e+00
0.000000000000e+00 0.000000000000e+00 0.000000000000e+00
0.000000000000e+00 0.000000000000e+00 0.000000000000e+00
0.000000000000e+00 0.000000000000e+00 0.000000000000e+00
0.000000000000e+00 0.000000000000e+00 0.000000000000e+00
0.000000000000e+00 0.000000000000e+00 0.000000000000e+00
0.000000000000e+00 0.000000000000e+00 0.000000000000e+00
0.000000000000e+00 0.000000000000e+00 0.000000000000e+00
0.000000000000e+00 0.000000000000e+00 0.000000000000e+00
0.000000000000e+00 0.000000000000e+00 0.000000000000e+00
0.000000000000e+00 0.000000000000e+00 0.000000000000e+00
0.000000000000e+00 0.000000000000e+00 0.000000000000e+00
0.000000000000e+00 0.000000000000e+00 0.000000000000e+00
0.000000000000e+00 0.000000000000e+00 0.000000000000e+00
0.000000000000e+00 0.000000000000e+00 0.000000000000e+00
0.000000000000e+00 0.000000000000e+00 0.000000000000e+00
0.000000000000e+00 0.000000000000e+00 0.000000000000e+00
0.000000000000e+00 0.000000000000e+00 0.000000000000e+00
0.000000000000e+00 0.000000000000e+00 0.000000000000e+00
0.000000000000e+00 0.000000000000e+00 0.000000000000e+00
0.000000000000e+00 0.000000000000e+00 0.000000000000e+00
0.000000000000e+00 0.000000000000e+00 0.000000000000e+00
0.000000000000e+00 0.000000000000e+00 0.000000000000e+00
0.000000000000e+00 0.000000000000e+00 0.000000000000e+00
0.000000000000e+00 0.000000000000e+00 0.000000000000e+00
0.000000000000e+00 0.000000000000e+00 0.000000000000e+00
0.000000000000e+00 0.000000000000e+00 0.000000000000e+00
0.000000000000e+00 0.000000000000e+00 0.000000000000e+00
0.000000000000e+00 0.000000000000e+00 0.000000000000e+00
0.000000000000e+00 0.000000000000e+00 0.000000000000e+00
0.000000000000e+00 0.000000000000e+00 0.000000000000e+00
0.000000000000e+00 0.000000000000e+00 0.000000000000e+00
0.000000000000e+00 0.000000000000e+00 0.000000000000e+00
0.000000000000e+00 0.000000000000e+00 0.000000000000e+00
0.000000000000e+00 0.000000000000e+00 0.000000000000e+00
0.000000000000e+00 0.000000000000e+00 0.000000000000e+00
0.000000000000e+00 0.000000000000e+00 0.000000000000e+00
0.000000000000e+00 0.000000000000e+00 0.000000000000e+00
0.000000000000e+00 0.000000000000e+00 0.000000000000e+00
0.000000000000e+00 0.000000000000e+00 0.000000000000e+00
0.000000000000e+00 0.000000000000e+00 0.000000000000e+00
0.000000000000e+00 0.000000000000e+00 0.000000000000e+00
0.000000000000e+00 0.000000000000e+00 0.000000000000e+00
0.000000000000e+00 0.000000000000e+00 0.000000000000e+00
0.000000000000e+00 0.000000000000e+00 0.000000000000e+00
0.000000000000e+00 0.000000000000e+00 0.000000000000e+00
0.000000000000e+00 0.000000000000e+00 0.000000000000e+00
0.000000000000e+00 0.000000000000e+00 0.000000000000e+00
0.000000000000e+00 0.000000000000e+00 0.000000000000e+00
0.000000000000e+00 0.000000000000e+00 0.000000000000e+00
0.000000000000e+00 0.000000000000e+00 0.000000000000e+00
0.000000000000e+00 0.000000000000e+00 0.000000000000e+00
0.000000000000e+00 0.000000000000e+00 0.000000000000e+00
0.000000000000e+00 0.000000000000e+00 0.000000000000e+00
0.000000000000e+00 0.000000000000e+00 0.000000000000e+00
0.000000000000e+00 0.000000000000e+00 0.000000000000e+00
0.000000000000e+00 0.000000000000e+00 0.000000000000e+00
0.000000000000e+00 0.000000000000e+00 0.000000000000e+00
0.000000000000e+00 0.000000000000e+00 0.000000000000e+00
0.000000000000e+00 0.000000000000e+00 0.000000000000e+00
0.000000000000e+00 0.000000000000e+00 0.000000000000e+00
0.000000000000e+00 0.000000000000e+00 0.000000000000e+00
0.000000000000e+00 0.000000000000e+00 0.000000000000e+00
0.000000000000e+00 0.000000000000e+00 0.000000000000e+00
0.000000000000e+00 0.000000000000e+00 0.000000000000e+00
0.000000000000e+00 0.000000000000e+00 0.000000000000e+00
0.000000000000e+00 0.000000000000e+00 0.000000000000e+00
0.000000000000e+00 0.000000000000e+00 0.000000000000e+00
0.000000000000e+00 0.000000000000e+00 0.000000000000e+00
-1.905403212736e-06 -1.905403242603e-06 -1.505126353213e-02
-1.012340997995e-06 -1.893530166162e-06 -1.505189010053e-02
1.314784484952e-14 -1.868343136149e-06 -1.505212406923e-02
1.012341024285e-06 -1.893530165100e-06 -1.505189010053e-02
1.905403239012e-06 -1.905403240528e-06 -1.505126353212e-02
-1.893530137318e-06 -1.012341027869e-06 -1.505189010053e-02
-1.010465338899e-06 -1.010465367739e-06 -1.505250552251e-02
1.263620158387e-14 -1.000610435737e-06 -1.505273273958e-02
1.010465364163e-06 -1.010465366694e-06 -1.505250552251e-02
1.893530162570e-06 -1.012341025785e-06 -1.505189010053e-02
-1.868343108349e-06 -1.672957698053e-14 -1.505212406923e-02
-1.000610407932e-06 -1.621218749514e-14 -1.505273273958e-02
1.212561377623e-14 -1.568750016147e-14 -1.505295881598e-02
1.000610432179e-06 -1.515961812681e-14 -1.505273273958e-02
1.868343132584e-06 -1.464137188756e-14 -1.505212406923e-02
-1.893530138358e-06 1.012340994395e-06 -1.505189010053e-02
-1.010465339932e-06 1.010465335311e-06 -1.505250552251e-02
1.161201824082e-14 1.000610404365e-06 -1.505273273958e-02
1.010465363143e-06 1.010465336373e-06 -1.505250552251e-02
1.893530161543e-06 1.012340996493e-06 -1.505189010053e-02
-1.905403214795e-06 1.905403209117e-06 -1.505126353213e-02
-1.012341000059e-06 1.893530133726e-06 -1.505189010053e-02
1.108829709676e-14 1.868343104771e-06 -1.505212406923e-02
1.012341022229e-06 1.893530134783e-06 -1.505189010053e-02
1.905403236956e-06 1.905403211226e-06 -1.505126353212e-02
-1.508173389009e-06 -1.508173418837e-06 -1.505266272903e-02
-7.855004899773e-07 -1.503782716872e-06 -1.505332227608e-02
1.311838783806e-14 -1.486447566408e-06 -1.505357042792e-02
7.855005162104e-07 -1.503782715832e-06 -1.505332227608e-02
1.508173415229e-06 -1.508173416766e-06 -1.505266272903e-02
-1.503782688077e-06 -7.855005198059e-07 -1.505332227608e-02
-7.853373691943e-07 -7.853373979968e-07 -1.505397431235e-02
1.260360081113e-14 -7.778518160033e-07 -1.505421736212e-02
7.853373944002e-07 -7.853373969540e-07 -1.505397431235e-02
1.503782713275e-06 -7.855005177358e-07 -1.505332227608e-02
-1.486447538651e-06 -1.672218571670e-14 -1.505357042792e-02
-7.778517882417e-07 -1.619703818168e-14 -1.505421736212e-02
1.209309874240e-14 -1.567657219175e-14 -1.505446022345e-02
7.778518124198e-07 -1.515217595473e-14 -1.505421736212e-02
1.486447562814e-06 -1.463774300742e-14 -1.505357042792e-02
-1.503782689114e-06 7.855004863681e-07 -1.505332227608e-02
-7.853373702306e-07 7.853373655947e-07 -1.505397431235e-02
1.157011408670e-14 7.778517846533e-07 -1.505421736212e-02
7.853373933706e-07 7.853373666441e-07 -1.505397431235e-02
1.503782712245e-06 7.855004884598e-07 -1.505332227608e-02
-1.508173391083e-06 1.508173385395e-06 -1.505266272903e-02
-7.855004920525e-07 1.503782684466e-06 -1.505332227608e-02
1.104883890451e-14 1.486447535054e-06 -1.505357042792e-02
7.855005141440e-07 1.503782685523e-06 -1.505332227608e-02
1.508173413168e-06 1.508173387484e-06 -1.505266272903e-02
-1.048788227556e-06 -1.048788257343e-06 -1.505364668934e-02
-5.585966823962e-07 -1.043577856020e-06 -1.505433474146e-02
1.308653957530e-14 -1.030017262727e-06 -1.505459263919e-02
5.585967085681e-07 -1.043577854989e-06 -1.505433474146e-02
1.048788253726e-06 -1.048788255278e-06 -1.505364668934e-02
-1.043577827268e-06 -5.585967121848e-07 -1.505433474146e-02
-5.586443223820e-07 -5.586443511350e-07 -1.505501860278e-02
1.257077102113e-14 -5.531960004916e-07 -1.505527254949e-02
5.586443475268e-07 -5.586443501026e-07 -1.505501860278e-02
1.043577852404e-06 -5.585967101166e-07 -1.505433474146e-02
-1.030017235006e-06 -1.670770240602e-14 -1.505459263919e-02
-5.531959727733e-07 -1.618700516854e-14 -1.505527254949e-02
1.205789839648e-14 -1.566372642185e-14 -1.505552696870e-02
5.531959968819e-07 -1.514582365949e-14 -1.505527254949e-02
1.030017259103e-06 -1.462920516188e-14 -1.505459263919e-02
-1.043577828310e-06 5.585966787720e-07 -1.505433474146e-02
-5.586443234211e-07 5.586443187654e-07 -1.505501860278e-02
1.153219084303e-14 5.531959691624e-07 -1.505527254949e-02
5.586443464868e-07 5.586443198088e-07 -1.505501860278e-02
1.043577851370e-06 5.585966808582e-07 -1.505433474146e-02
-1.048788229638e-06 1.048788223932e-06 -1.505364668934e-02
-5.585966844777e-07 1.043577823646e-06 -1.505433474146e-02
1.100678342782e-14 1.030017231388e-06 -1.505459263919e-02
5.585967064929e-07 1.043577824694e-06 -1.505433474146e-02
1.048788251649e-06 1.048788226018e-06 -1.505364668934e-02
-5.821678192036e-07 -5.821678489479e-07 -1.505424177289e-02
-3.211684292081e-07 -5.755697493405e-07 -1.505494532788e-02
1.305289277642e-14 -5.662681361323e-07 -1.505521867068e-02
3.211684553170e-07 -5.755697483185e-07 -1.505494532788e-02
5.821678453148e-07 -5.821678468894e-07 -1.505424177289e-02
-5.755697206358e-07 -3.211684589507e-07 -1.505494532788e-02
-3.211593942219e-07 -3.211594229308e-07 -1.505564499694e-02
1.253904929581e-14 -3.174086995666e-07 -1.505591559577e-02
3.211594193010e-07 -3.211594219033e-07 -1.505564499694e-02
5.755697457142e-07 -3.211684568909e-07 -1.505494532788e-02
-5.662681084563e-07 -1.669318693250e-14 -1.505521867068e-02
-3.174086718917e-07 -1.617421171856e-14 -1.505591559577e-02
1.201990049127e-14 -1.565418612612e-14 -1.505618824653e-02
3.174086959312e-07 -1.514139436342e-14 -1.505591559577e-02
5.662681324934e-07 -1.461987857969e-14 -1.505521867068e-02
-5.755697216819e-07 3.211684255648e-07 -1.505494532788e-02
-3.211593952663e-07 3.211593905856e-07 -1.505564499694e-02
1.149374415613e-14 3.174086682593e-07 -1.505591559577e-02
3.211594182559e-07 3.211593916247e-07 -1.505564499694e-02
5.755697446669e-07 3.211684276480e-07 -1.505494532788e-02
-5.821678212918e-07 5.821678155610e-07 -1.505424177289e-02
-3.211684312940e-07 5.755697169984e-07 -1.505494532788e-02
1.096955699901e-14 5.662681048219e-07 -1.505521867068e-02
3.211684532308e-07 5.755697180431e-07 -1.505494532788e-02
5.821678432316e-07 5.821678176438e-07 -1.505424177289e-02
-1.554229086808e-07 -1.554229383633e-07 -1.505446570592e-02
-6.540101484611e-08 -1.550178539982e-07 -1.505517122076e-02
1.302017285338e-14 -1.538049788356e-07 -1.505545163923e-02
6.540104088862e-08 -1.550178529821e-07 -1.505517122076e-02
1.554229347211e-07 -1.554229363171e-07 -1.505446570592e-02
-1.550178253452e-07 -6.540104454480e-08 -1.505517122076e-02
-6.534317460873e-08 -6.534320327019e-08 -1.505587227686e-02
1.250830576745e-14 -6.244918307916e-08 -1.505615025249e-02
6.534319962078e-08 -6.534320225235e-08 -1.505587227686e-02
1.550178503560e-07 -6.540104249316e-08 -1.505517122076e-02
-1.538049512104e-07 -1.668220835507e-14 -1.505545163923e-02
-6.244915544558e-08 -1.615831415730e-14 -1.505615025249e-02
1.198040782706e-14 -1.564607837238e-14 -1.505643052270e-02
6.244917941125e-08 -1.513503090382e-14 -1.505615025249e-02
1.538049751761e-07 -1.461791339627e-14 -1.505545163923e-02
-1.550178263850e-07 6.540101118659e-08 -1.505517122076e-02
-6.534317565965e-08 6.534317095247e-08 -1.505587227686e-02
1.145315919666e-14 6.244915178452e-08 -1.505615025249e-02
6.534319856732e-08 6.534317198831e-08 -1.505587227686e-02
1.550178492979e-07 6.540101325997e-08 -1.505517122076e-02
-1.554229107667e-07 1.554229050057e-07 -1.505446570592e-02
-6.540101694119e-08 1.550178216842e-07 -1.505517122076e-02
1.092723283181e-14 1.538049475471e-07 -1.505545163923e-02
6.540103879748e-08 1.550178227114e-07 -1.505517122076e-02
1.554229326249e-07 1.554229070983e-07 -1.505446570592e-02
SCALARS displacement_magnitude float 1
LOOKUP_TABLE default
0.000000000000e+00
0.000000000000e+00
0.000000000000e+00
0.000000000000e+00
0.000000000000e+00
0.000000000000e+00
0.000000000000e+00
0.000000000000e+00
0.000000000000e+00
0.000000000000e+00
0.000000000000e+00
0.000000000000e+00
0.000000000000e+00
0.000000000000e+00
0.000000000000e+00
0.000000000000e+00
0.000000000000e+00
0.000000000000e+00
0.000000000000e+00
0.000000000000e+00
0.000000000000e+00
0.000000000000e+00
0.000000000000e+00
0.000000000000e+00
0.000000000000e+00
0.000000000000e+00
0.000000000000e+00
0.000000000000e+00
0.000000000000e+00
0.000000000000e+00
0.000000000000e+00
0.000000000000e+00
0.000000000000e+00
0.000000000000e+00
0.000000000000e+00
0.000000000000e+00
0.000000000000e+00
0.000000000000e+00
0.000000000000e+00
0.000000000000e+00
0.000000000000e+00
0.000000000000e+00
0.000000000000e+00
0.000000000000e+00
0.000000000000e+00
0.000000000000e+00
0.000000000000e+00
0.000000000000e+00
0.000000000000e+00
0.000000000000e+00
0.000000000000e+00
0.000000000000e+00
0.000000000000e+00
0.000000000000e+00
0.000000000000e+00
0.000000000000e+00
0.000000000000e+00
0.000000000000e+00
0.000000000000e+00
0.000000000000e+00
0.000000000000e+00
0.000000000000e+00
0.000000000000e+00
0.000000000000e+00
0.000000000000e+00
0.000000000000e+00
0.000000000000e+00
0.000000000000e+00
0.000000000000e+00
0.000000000000e+00
0.000000000000e+00
0.000000000000e+00
0.000000000000e+00
0.000000000000e+00
0.000000000000e+00
0.000000000000e+00
0.000000000000e+00
0.000000000000e+00
0.000000000000e+00
0.000000000000e+00
0.000000000000e+00
0.000000000000e+00
0.000000000000e+00
0.000000000000e+00
0.000000000000e+00
0.000000000000e+00
0.000000000000e+00
0.000000000000e+00
0.000000000000e+00
0.000000000000e+00
0.000000000000e+00
0.000000000000e+00
0.000000000000e+00
0.000000000000e+00
0.000000000000e+00
0.000000000000e+00
0.000000000000e+00
0.000000000000e+00
0.000000000000e+00
0.000000000000e+00
0.000000000000e+00
0.000000000000e+00
0.000000000000e+00
0.000000000000e+00
0.000000000000e+00
0.000000000000e+00
0.000000000000e+00
0.000000000000e+00
0.000000000000e+00
0.000000000000e+00
0.000000000000e+00
0.000000000000e+00
0.000000000000e+00
0.000000000000e+00
0.000000000000e+00
0.000000000000e+00
0.000000000000e+00
0.000000000000e+00
0.000000000000e+00
0.000000000000e+00
0.000000000000e+00
0.000000000000e+00
0.000000000000e+00
0.000000000000e+00
0.000000000000e+00
1.505126377334e-02
1.505189025368e-02
1.505212418518e-02
1.505189025368e-02
1.505126377334e-02
1.505189025368e-02
1.505250559035e-02
1.505273277284e-02
1.505250559034e-02
1.505189025368e-02
1.505212418518e-02
1.505273277284e-02
1.505295881598e-02
1.505273277284e-02
1.505212418518e-02
1.505189025368e-02
1.505250559035e-02
1.505273277284e-02
1.505250559034e-02
1.505189025368e-02
1.505126377334e-02
1.505189025368e-02
1.505212418518e-02
1.505189025368e-02
1.505126377334e-02
1.505266288013e-02
1.505332237169e-02
1.505357050131e-02
1.505332237169e-02
1.505266288013e-02
1.505332237169e-02
1.505397435332e-02
1.505421738221e-02
1.505397435332e-02
1.505332237169e-02
1.505357050131e-02
1.505421738221e-02
1.505446022345e-02
1.505421738221e-02
1.505357050131e-02
1.505332237169e-02
1.505397435332e-02
1.505421738221e-02
1.505397435332e-02
1.505332237169e-02
1.505266288014e-02
1.505332237169e-02
1.505357050131e-02
1.505332237169e-02
1.505266288013e-02
1.505364676241e-02
1.505433478799e-02
1.505459267443e-02
1.505433478799e-02
1.505364676241e-02
1.505433478799e-02
1.505501862351e-02
1.505527255966e-02
1.505501862351e-02
1.505433478799e-02
1.505459267443e-02
1.505527255966e-02
1.505552696870e-02
1.505527255966e-02
1.505459267443e-02
1.505433478799e-02
1.505501862351e-02
1.505527255966e-02
1.505501862351e-02
1.505433478799e-02
1.505364676241e-02
1.505433478799e-02
1.505459267443e-02
1.505433478799e-02
1.505364676241e-02
1.505424179540e-02
1.505494534230e-02
1.505521868133e-02
1.505494534230e-02
1.505424179540e-02
1.505494534230e-02
1.505564500379e-02
1.505591559912e-02
1.505564500379e-02
1.505494534230e-02
1.505521868133e-02
1.505591559912e-02
1.505618824653e-02
1.505591559912e-02
1.505521868133e-02
1.505494534230e-02
1.505564500379e-02
1.505591559912e-02
1.505564500379e-02
1.505494534230e-02
1.505424179540e-02
1.505494534230e-02
1.505521868133e-02
1.505494534230e-02
1.505424179540e-02
1.505446570752e-02
1.505517122170e-02
1.505545164002e-02
1.505517122170e-02
1.505446570752e-02
1.505517122170e-02
1.505587227714e-02
1.505615025262e-02
1.505587227714e-02
1.505517122170e-02
1.505545164002e-02
1.505615025262e-02
1.505643052270e-02
1.505615025262e-02
1.505545164002e-02
1.505517122170e-02
1.505587227714e-02
1.505615025262e-02
1.505587227714e-02
1.505517122170e-02
1.505446570752e-02
1.505517122170e-02
1.505545164002e-02
1.505517122170e-02
1.505446570752e-02
CELL_DATA 128
SCALARS displacement_magnitude float 1
LOOKUP_TABLE default
0.000000000000e+00
0.000000000000e+00
0.000000000000e+00
0.000000000000e+00
0.000000000000e+00
0.000000000000e+00
0.000000000000e+00
0.000000000000e+00
0.000000000000e+00
0.000000000000e+00
0.000000000000e+00
0.000000000000e+00
0.000000000000e+00
0.000000000000e+00
0.000000000000e+00
0.000000000000e+00
0.000000000000e+00
0.000000000000e+00
0.000000000000e+00
0.000000000000e+00
0.000000000000e+00
0.000000000000e+00
0.000000000000e+00
0.000000000000e+00
0.000000000000e+00
0.000000000000e+00
0.000000000000e+00
0.000000000000e+00
0.000000000000e+00
0.000000000000e+00
0.000000000000e+00
0.000000000000e+00
0.000000000000e+00
0.000000000000e+00
0.000000000000e+00
0.000000000000e+00
0.000000000000e+00
0.000000000000e+00
0.000000000000e+00
0.000000000000e+00
0.000000000000e+00
0.000000000000e+00
0.000000000000e+00
0.000000000000e+00
0.000000000000e+00
0.000000000000e+00
0.000000000000e+00
0.000000000000e+00
0.000000000000e+00
0.000000000000e+00
0.000000000000e+00
0.000000000000e+00
0.000000000000e+00
0.000000000000e+00
0.000000000000e+00
0.000000000000e+00
0.000000000000e+00
0.000000000000e+00
0.000000000000e+00
0.000000000000e+00
0.000000000000e+00
0.000000000000e+00
0.000000000000e+00
0.000000000000e+00
1.505260398098e-02
1.505304217632e-02
1.505304217632e-02
1.505260398098e-02
1.505304217632e-02
1.505347491165e-02
1.505347491165e-02
1.505304217632e-02
1.505304217632e-02
1.505347491165e-02
1.505347491165e-02
1.505304217632e-02
1.505260398098e-02
1.505304217632e-02
1.505304217632e-02
1.505260398098e-02
1.505382711734e-02
1.505428790676e-02
1.505428790676e-02
1.505382711734e-02
1.505428790676e-02
1.505474500659e-02
1.505474500659e-02
1.505428790676e-02
1.505428790676e-02
1.505474500659e-02
1.505474500659e-02
1.505428790676e-02
1.505382711734e-02
1.505428790676e-02
1.505428790676e-02
1.505382711734e-02
1.505463905571e-02
1.505511790902e-02
1.505511790902e-02
1.505463905571e-02
1.505511790902e-02
1.505559439501e-02
1.505559439501e-02
1.505511790902e-02
1.505511790902e-02
1.505559439501e-02
1.505559439501e-02
1.505511790902e-02
1.505463905571e-02
1.505511790902e-02
1.505511790902e-02
1.505463905571e-02
1.505505723898e-02
1.505554625225e-02
1.505554625225e-02
1.505505723898e-02
1.505554625225e-02
1.505603346921e-02
1.505603346921e-02
1.505554625225e-02
1.505554625225e-02
1.505603346921e-02
1.505603346921e-02
1.505554625225e-02
1.505505723898e-02
1.505554625225e-02
1.505554625225e-02
1.505505723898e-02
SCALARS engineering_strain_norm float 1
LOOKUP_TABLE default
0.000000000000e+00
0.000000000000e+00
0.000000000000e+00
0.000000000000e+00
0.000000000000e+00
0.000000000000e+00
0.000000000000e+00
0.000000000000e+00
0.000000000000e+00
0.000000000000e+00
0.000000000000e+00
0.000000000000e+00
0.000000000000e+00
0.000000000000e+00
0.000000000000e+00
0.000000000000e+00
0.000000000000e+00
0.000000000000e+00
0.000000000000e+00
0.000000000000e+00
0.000000000000e+00
0.000000000000e+00
0.000000000000e+00
0.000000000000e+00
0.000000000000e+00
0.000000000000e+00
0.000000000000e+00
0.000000000000e+00
0.000000000000e+00
0.000000000000e+00
0.000000000000e+00
0.000000000000e+00
0.000000000000e+00
0.000000000000e+00
0.000000000000e+00
0.000000000000e+00
0.000000000000e+00
0.000000000000e+00
0.000000000000e+00
0.000000000000e+00
0.000000000000e+00
0.000000000000e+00
0.000000000000e+00
0.000000000000e+00
0.000000000000e+00
0.000000000000e+00
0.000000000000e+00
0.000000000000e+00
0.000000000000e+00
0.000000000000e+00
0.000000000000e+00
0.000000000000e+00
0.000000000000e+00
0.000000000000e+00
0.000000000000e+00
0.000000000000e+00
0.000000000000e+00
0.000000000000e+00
0.000000000000e+00
0.000000000000e+00
0.000000000000e+00
0.000000000000e+00
0.000000000000e+00
0.000000000000e+00
2.385654577808e-05
2.439982463167e-05
2.439982463160e-05
2.385654577793e-05
2.439982463172e-05
2.498209463891e-05
2.498209463887e-05
2.439982463161e-05
2.439982463168e-05
2.498209463893e-05
2.498209463890e-05
2.439982463154e-05
2.385654577801e-05
2.439982463167e-05
2.439982463160e-05
2.385654577790e-05
1.702186484870e-05
1.745386905640e-05
1.745386905639e-05
1.702186484859e-05
1.745386905641e-05
1.791620898177e-05
1.791620898170e-05
1.745386905629e-05
1.745386905644e-05
1.791620898178e-05
1.791620898172e-05
1.745386905629e-05
1.702186484867e-05
1.745386905639e-05
1.745386905633e-05
1.702186484855e-05
1.029910093819e-05
1.067580149467e-05
1.067580149471e-05
1.029910093816e-05
1.067580149467e-05
1.107542261320e-05
1.107542261322e-05
1.067580149462e-05
1.067580149472e-05
1.107542261321e-05
1.107542261323e-05
1.067580149465e-05
1.029910093821e-05
1.067580149462e-05
1.067580149467e-05
1.029910093817e-05
4.029579149942e-06
4.128354242789e-06
4.128354242833e-06
4.029579149975e-06
4.128354242807e-06
4.225221115402e-06
4.225221115411e-06
4.128354242861e-06
4.128354242788e-06
4.225221115348e-06
4.225221115403e-06
4.128354242828e-06
4.029579149914e-06
4.128354242787e-06
4.128354242754e-06
4.029579149949e-06
SCALARS von_mises float 1
LOOKUP_TABLE default
0.000000000000e+00
0.000000000000e+00
0.000000000000e+00
0.000000000000e+00
0.000000000000e+00
0.000000000000e+00
0.000000000000e+00
0.000000000000e+00
0.000000000000e+00
0.000000000000e+00
0.000000000000e+00
0.000000000000e+00
0.000000000000e+00
0.000000000000e+00
0.000000000000e+00
0.000000000000e+00
0.000000000000e+00
0.000000000000e+00
0.000000000000e+00
0.000000000000e+00
0.000000000000e+00
0.000000000000e+00
0.000000000000e+00
0.000000000000e+00
0.000000000000e+00
0.000000000000e+00
0.000000000000e+00
0.000000000000e+00
0.000000000000e+00
0.000000000000e+00
0.000000000000e+00
0.000000000000e+00
0.000000000000e+00
0.000000000000e+00
0.000000000000e+00
0.000000000000e+00
0.000000000000e+00
0.000000000000e+00
0.000000000000e+00
0.000000000000e+00
0.000000000000e+00
0.000000000000e+00
0.000000000000e+00
0.000000000000e+00
0.000000000000e+00
0.000000000000e+00
0.000000000000e+00
0.000000000000e+00
0.000000000000e+00
0.000000000000e+00
0.000000000000e+00
0.000000000000e+00
0.000000000000e+00
0.000000000000e+00
0.000000000000e+00
0.000000000000e+00
0.000000000000e+00
0.000000000000e+00
0.000000000000e+00
0.000000000000e+00
0.000000000000e+00
0.000000000000e+00
0.000000000000e+00
0.000000000000e+00
2.191161038168e+00
2.247161704968e+00
2.247161704961e+00
2.191161038154e+00
2.247161704972e+00
2.307169688651e+00
2.307169688647e+00
2.247161704962e+00
2.247161704968e+00
2.307169688652e+00
2.307169688650e+00
2.247161704956e+00
2.191161038162e+00
2.247161704968e+00
2.247161704962e+00
2.191161038151e+00
1.570918646392e+00
1.614254289148e+00
1.614254289147e+00
1.570918646382e+00
1.614254289148e+00
1.660655093991e+00
1.660655093985e+00
1.614254289138e+00
1.614254289151e+00
1.660655093991e+00
1.660655093987e+00
1.614254289138e+00
1.570918646389e+00
1.614254289147e+00
1.614254289142e+00
1.570918646378e+00
9.520734066511e-01
9.904826370540e-01
9.904826370576e-01
9.520734066481e-01
9.904826370539e-01
1.031109961915e+00
1.031109961918e+00
9.904826370500e-01
9.904826370584e-01
1.031109961917e+00
1.031109961918e+00
9.904826370525e-01
9.520734066527e-01
9.904826370495e-01
9.904826370543e-01
9.520734066493e-01
3.759324460082e-01
3.860787876768e-01
3.860787876810e-01
3.759324460113e-01
3.860787876792e-01
3.963149220301e-01
3.963149220310e-01
3.860787876845e-01
3.860787876774e-01
3.963149220253e-01
3.963149220306e-01
3.860787876811e-01
3.759324460055e-01
3.860787876771e-01
3.860787876740e-01
3.759324460091e-01
SCALARS sdf_gap float 1
LOOKUP_TABLE default
0.000000000000e+00
0.000000000000e+00
0.000000000000e+00
0.000000000000e+00
0.000000000000e+00
0.000000000000e+00
0.000000000000e+00
0.000000000000e+00
0.000000000000e+00
0.000000000000e+00
0.000000000000e+00
0.000000000000e+00
0.000000000000e+00
0.000000000000e+00
0.000000000000e+00
0.000000000000e+00
0.000000000000e+00
0.000000000000e+00
0.000000000000e+00
0.000000000000e+00
0.000000000000e+00
0.000000000000e+00
0.000000000000e+00
0.000000000000e+00
0.000000000000e+00
0.000000000000e+00
0.000000000000e+00
0.000000000000e+00
0.000000000000e+00
0.000000000000e+00
0.000000000000e+00
0.000000000000e+00
0.000000000000e+00
0.000000000000e+00
0.000000000000e+00
0.000000000000e+00
0.000000000000e+00
0.000000000000e+00
0.000000000000e+00
0.000000000000e+00
0.000000000000e+00
0.000000000000e+00
0.000000000000e+00
0.000000000000e+00
0.000000000000e+00
0.000000000000e+00
0.000000000000e+00
0.000000000000e+00
0.000000000000e+00
0.000000000000e+00
0.000000000000e+00
0.000000000000e+00
0.000000000000e+00
0.000000000000e+00
0.000000000000e+00
0.000000000000e+00
0.000000000000e+00
0.000000000000e+00
0.000000000000e+00
0.000000000000e+00
0.000000000000e+00
0.000000000000e+00
0.000000000000e+00
0.000000000000e+00
-5.188731392495e-05
-5.231310796342e-05
-5.231310796336e-05
-5.188731392479e-05
-5.231310796350e-05
-5.273245441394e-05
-5.273245441390e-05
-5.231310796329e-05
-5.231310796351e-05
-5.273245441396e-05
-5.273245441391e-05
-5.231310796332e-05
-5.188731392506e-05
-5.231310796348e-05
-5.231310796341e-05
-5.188731392482e-05
0.000000000000e+00
0.000000000000e+00
0.000000000000e+00
0.000000000000e+00
0.000000000000e+00
0.000000000000e+00
0.000000000000e+00
0.000000000000e+00
0.000000000000e+00
0.000000000000e+00
0.000000000000e+00
0.000000000000e+00
0.000000000000e+00
0.000000000000e+00
0.000000000000e+00
0.000000000000e+00
0.000000000000e+00
0.000000000000e+00
0.000000000000e+00
0.000000000000e+00
0.000000000000e+00
0.000000000000e+00
0.000000000000e+00
0.000000000000e+00
0.000000000000e+00
0.000000000000e+00
0.000000000000e+00
0.000000000000e+00
0.000000000000e+00
0.000000000000e+00
0.000000000000e+00
0.000000000000e+00
0.000000000000e+00
0.000000000000e+00
0.000000000000e+00
0.000000000000e+00
0.000000000000e+00
0.000000000000e+00
0.000000000000e+00
0.000000000000e+00
0.000000000000e+00
0.000000000000e+00
0.000000000000e+00
0.000000000000e+00
0.000000000000e+00
0.000000000000e+00
0.000000000000e+00
0.000000000000e+00
SCALARS contact_pressure float 1
LOOKUP_TABLE default
0.000000000000e+00
0.000000000000e+00
0.000000000000e+00
0.000000000000e+00
0.000000000000e+00
0.000000000000e+00
0.000000000000e+00
0.000000000000e+00
0.000000000000e+00
0.000000000000e+00
0.000000000000e+00
0.000000000000e+00
0.000000000000e+00
0.000000000000e+00
0.000000000000e+00
0.000000000000e+00
0.000000000000e+00
0.000000000000e+00
0.000000000000e+00
0.000000000000e+00
0.000000000000e+00
0.000000000000e+00
0.000000000000e+00
0.000000000000e+00
0.000000000000e+00
0.000000000000e+00
0.000000000000e+00
0.000000000000e+00
0.000000000000e+00
0.000000000000e+00
0.000000000000e+00
0.000000000000e+00
0.000000000000e+00
0.000000000000e+00
0.000000000000e+00
0.000000000000e+00
0.000000000000e+00
0.000000000000e+00
0.000000000000e+00
0.000000000000e+00
0.000000000000e+00
0.000000000000e+00
0.000000000000e+00
0.000000000000e+00
0.000000000000e+00
0.000000000000e+00
0.000000000000e+00
0.000000000000e+00
0.000000000000e+00
0.000000000000e+00
0.000000000000e+00
0.000000000000e+00
0.000000000000e+00
0.000000000000e+00
0.000000000000e+00
0.000000000000e+00
0.000000000000e+00
0.000000000000e+00
0.000000000000e+00
0.000000000000e+00
0.000000000000e+00
0.000000000000e+00
0.000000000000e+00
0.000000000000e+00
2.594365696248e+00
2.615655398171e+00
2.615655398168e+00
2.594365696239e+00
2.615655398175e+00
2.636622720697e+00
2.636622720695e+00
2.615655398165e+00
2.615655398175e+00
2.636622720698e+00
2.636622720695e+00
2.615655398166e+00
2.594365696253e+00
2.615655398174e+00
2.615655398170e+00
2.594365696241e+00
0.000000000000e+00
0.000000000000e+00
0.000000000000e+00
0.000000000000e+00
0.000000000000e+00
0.000000000000e+00
0.000000000000e+00
0.000000000000e+00
0.000000000000e+00
0.000000000000e+00
0.000000000000e+00
0.000000000000e+00
0.000000000000e+00
0.000000000000e+00
0.000000000000e+00
0.000000000000e+00
0.000000000000e+00
0.000000000000e+00
0.000000000000e+00
0.000000000000e+00
0.000000000000e+00
0.000000000000e+00
0.000000000000e+00
0.000000000000e+00
0.000000000000e+00
0.000000000000e+00
0.000000000000e+00
0.000000000000e+00
0.000000000000e+00
0.000000000000e+00
0.000000000000e+00
0.000000000000e+00
0.000000000000e+00
0.000000000000e+00
0.000000000000e+00
0.000000000000e+00
0.000000000000e+00
0.000000000000e+00
0.000000000000e+00
0.000000000000e+00
0.000000000000e+00
0.000000000000e+00
0.000000000000e+00
0.000000000000e+00
0.000000000000e+00
0.000000000000e+00
0.000000000000e+00
0.000000000000e+00
SCALARS active_contact float 1
LOOKUP_TABLE default
0.000000000000e+00
0.000000000000e+00
0.000000000000e+00
0.000000000000e+00
0.000000000000e+00
0.000000000000e+00
0.000000000000e+00
0.000000000000e+00
0.000000000000e+00
0.000000000000e+00
0.000000000000e+00
0.000000000000e+00
0.000000000000e+00
0.000000000000e+00
0.000000000000e+00
0.000000000000e+00
0.000000000000e+00
0.000000000000e+00
0.000000000000e+00
0.000000000000e+00
0.000000000000e+00
0.000000000000e+00
0.000000000000e+00
0.000000000000e+00
0.000000000000e+00
0.000000000000e+00
0.000000000000e+00
0.000000000000e+00
0.000000000000e+00
0.000000000000e+00
0.000000000000e+00
0.000000000000e+00
0.000000000000e+00
0.000000000000e+00
0.000000000000e+00
0.000000000000e+00
0.000000000000e+00
0.000000000000e+00
0.000000000000e+00
0.000000000000e+00
0.000000000000e+00
0.000000000000e+00
0.000000000000e+00
0.000000000000e+00
0.000000000000e+00
0.000000000000e+00
0.000000000000e+00
0.000000000000e+00
0.000000000000e+00
0.000000000000e+00
0.000000000000e+00
0.000000000000e+00
0.000000000000e+00
0.000000000000e+00
0.000000000000e+00
0.000000000000e+00
0.000000000000e+00
0.000000000000e+00
0.000000000000e+00
0.000000000000e+00
0.000000000000e+00
0.000000000000e+00
0.000000000000e+00
0.000000000000e+00
1.000000000000e+00
1.000000000000e+00
1.000000000000e+00
1.000000000000e+00
1.000000000000e+00
1.000000000000e+00
1.000000000000e+00
1.000000000000e+00
1.000000000000e+00
1.000000000000e+00
1.000000000000e+00
1.000000000000e+00
1.000000000000e+00
1.000000000000e+00
1.000000000000e+00
1.000000000000e+00
0.000000000000e+00
0.000000000000e+00
0.000000000000e+00
0.000000000000e+00
0.000000000000e+00
0.000000000000e+00
0.000000000000e+00
0.000000000000e+00
0.000000000000e+00
0.000000000000e+00
0.000000000000e+00
0.000000000000e+00
0.000000000000e+00
0.000000000000e+00
0.000000000000e+00
0.000000000000e+00
0.000000000000e+00
0.000000000000e+00
0.000000000000e+00
0.000000000000e+00
0.000000000000e+00
0.000000000000e+00
0.000000000000e+00
0.000000000000e+00
0.000000000000e+00
0.000000000000e+00
0.000000000000e+00
0.000000000000e+00
0.000000000000e+00
0.000000000000e+00
0.000000000000e+00
0.000000000000e+00
0.000000000000e+00
0.000000000000e+00
0.000000000000e+00
0.000000000000e+00
0.000000000000e+00
0.000000000000e+00
0.000000000000e+00
0.000000000000e+00
0.000000000000e+00
0.000000000000e+00
0.000000000000e+00
0.000000000000e+00
0.000000000000e+00
0.000000000000e+00
0.000000000000e+00
0.000000000000e+00
