# vtk DataFile Version 3.0
SFC long-time C3D8 dynamic frame 108 t=2.160000000000e+00
ASCII
DATASET UNSTRUCTURED_GRID
POINTS 250 float
-2.500000000000e-01 -2.500000000000e-01 0.000000000000e+00
-1.250000000000e-01 -2.500000000000e-01 0.000000000000e+00
0.000000000000e+00 -2.500000000000e-01 0.000000000000e+00
1.250000000000e-01 -2.500000000000e-01 0.000000000000e+00
2.500000000000e-01 -2.500000000000e-01 0.000000000000e+00
-2.500000000000e-01 -1.250000000000e-01 0.000000000000e+00
-1.250000000000e-01 -1.250000000000e-01 0.000000000000e+00
0.000000000000e+00 -1.250000000000e-01 0.000000000000e+00
1.250000000000e-01 -1.250000000000e-01 0.000000000000e+00
2.500000000000e-01 -1.250000000000e-01 0.000000000000e+00
-2.500000000000e-01 0.000000000000e+00 0.000000000000e+00
-1.250000000000e-01 0.000000000000e+00 0.000000000000e+00
0.000000000000e+00 0.000000000000e+00 0.000000000000e+00
1.250000000000e-01 0.000000000000e+00 0.000000000000e+00
2.500000000000e-01 0.000000000000e+00 0.000000000000e+00
-2.500000000000e-01 1.250000000000e-01 0.000000000000e+00
-1.250000000000e-01 1.250000000000e-01 0.000000000000e+00
0.000000000000e+00 1.250000000000e-01 0.000000000000e+00
1.250000000000e-01 1.250000000000e-01 0.000000000000e+00
2.500000000000e-01 1.250000000000e-01 0.000000000000e+00
-2.500000000000e-01 2.500000000000e-01 0.000000000000e+00
-1.250000000000e-01 2.500000000000e-01 0.000000000000e+00
0.000000000000e+00 2.500000000000e-01 0.000000000000e+00
1.250000000000e-01 2.500000000000e-01 0.000000000000e+00
2.500000000000e-01 2.500000000000e-01 0.000000000000e+00
-2.500000000000e-01 -2.500000000000e-01 6.000000000000e-02
-1.250000000000e-01 -2.500000000000e-01 6.000000000000e-02
0.000000000000e+00 -2.500000000000e-01 6.000000000000e-02
1.250000000000e-01 -2.500000000000e-01 6.000000000000e-02
2.500000000000e-01 -2.500000000000e-01 6.000000000000e-02
-2.500000000000e-01 -1.250000000000e-01 6.000000000000e-02
-1.250000000000e-01 -1.250000000000e-01 6.000000000000e-02
0.000000000000e+00 -1.250000000000e-01 6.000000000000e-02
1.250000000000e-01 -1.250000000000e-01 6.000000000000e-02
2.500000000000e-01 -1.250000000000e-01 6.000000000000e-02
-2.500000000000e-01 0.000000000000e+00 6.000000000000e-02
-1.250000000000e-01 0.000000000000e+00 6.000000000000e-02
0.000000000000e+00 0.000000000000e+00 6.000000000000e-02
1.250000000000e-01 0.000000000000e+00 6.000000000000e-02
2.500000000000e-01 0.000000000000e+00 6.000000000000e-02
-2.500000000000e-01 1.250000000000e-01 6.000000000000e-02
-1.250000000000e-01 1.250000000000e-01 6.000000000000e-02
0.000000000000e+00 1.250000000000e-01 6.000000000000e-02
1.250000000000e-01 1.250000000000e-01 6.000000000000e-02
2.500000000000e-01 1.250000000000e-01 6.000000000000e-02
-2.500000000000e-01 2.500000000000e-01 6.000000000000e-02
-1.250000000000e-01 2.500000000000e-01 6.000000000000e-02
0.000000000000e+00 2.500000000000e-01 6.000000000000e-02
1.250000000000e-01 2.500000000000e-01 6.000000000000e-02
2.500000000000e-01 2.500000000000e-01 6.000000000000e-02
-2.500000000000e-01 -2.500000000000e-01 1.200000000000e-01
-1.250000000000e-01 -2.500000000000e-01 1.200000000000e-01
0.000000000000e+00 -2.500000000000e-01 1.200000000000e-01
1.250000000000e-01 -2.500000000000e-01 1.200000000000e-01
2.500000000000e-01 -2.500000000000e-01 1.200000000000e-01
-2.500000000000e-01 -1.250000000000e-01 1.200000000000e-01
-1.250000000000e-01 -1.250000000000e-01 1.200000000000e-01
0.000000000000e+00 -1.250000000000e-01 1.200000000000e-01
1.250000000000e-01 -1.250000000000e-01 1.200000000000e-01
2.500000000000e-01 -1.250000000000e-01 1.200000000000e-01
-2.500000000000e-01 0.000000000000e+00 1.200000000000e-01
-1.250000000000e-01 0.000000000000e+00 1.200000000000e-01
0.000000000000e+00 0.000000000000e+00 1.200000000000e-01
1.250000000000e-01 0.000000000000e+00 1.200000000000e-01
2.500000000000e-01 0.000000000000e+00 1.200000000000e-01
-2.500000000000e-01 1.250000000000e-01 1.200000000000e-01
-1.250000000000e-01 1.250000000000e-01 1.200000000000e-01
0.000000000000e+00 1.250000000000e-01 1.200000000000e-01
1.250000000000e-01 1.250000000000e-01 1.200000000000e-01
2.500000000000e-01 1.250000000000e-01 1.200000000000e-01
-2.500000000000e-01 2.500000000000e-01 1.200000000000e-01
-1.250000000000e-01 2.500000000000e-01 1.200000000000e-01
0.000000000000e+00 2.500000000000e-01 1.200000000000e-01
1.250000000000e-01 2.500000000000e-01 1.200000000000e-01
2.500000000000e-01 2.500000000000e-01 1.200000000000e-01
-2.500000000000e-01 -2.500000000000e-01 1.800000000000e-01
-1.250000000000e-01 -2.500000000000e-01 1.800000000000e-01
0.000000000000e+00 -2.500000000000e-01 1.800000000000e-01
1.250000000000e-01 -2.500000000000e-01 1.800000000000e-01
2.500000000000e-01 -2.500000000000e-01 1.800000000000e-01
-2.500000000000e-01 -1.250000000000e-01 1.800000000000e-01
-1.250000000000e-01 -1.250000000000e-01 1.800000000000e-01
0.000000000000e+00 -1.250000000000e-01 1.800000000000e-01
1.250000000000e-01 -1.250000000000e-01 1.800000000000e-01
2.500000000000e-01 -1.250000000000e-01 1.800000000000e-01
-2.500000000000e-01 0.000000000000e+00 1.800000000000e-01
-1.250000000000e-01 0.000000000000e+00 1.800000000000e-01
0.000000000000e+00 0.000000000000e+00 1.800000000000e-01
1.250000000000e-01 0.000000000000e+00 1.800000000000e-01
2.500000000000e-01 0.000000000000e+00 1.800000000000e-01
-2.500000000000e-01 1.250000000000e-01 1.800000000000e-01
-1.250000000000e-01 1.250000000000e-01 1.800000000000e-01
0.000000000000e+00 1.250000000000e-01 1.800000000000e-01
1.250000000000e-01 1.250000000000e-01 1.800000000000e-01
2.500000000000e-01 1.250000000000e-01 1.800000000000e-01
-2.500000000000e-01 2.500000000000e-01 1.800000000000e-01
-1.250000000000e-01 2.500000000000e-01 1.800000000000e-01
0.000000000000e+00 2.500000000000e-01 1.800000000000e-01
1.250000000000e-01 2.500000000000e-01 1.800000000000e-01
2.500000000000e-01 2.500000000000e-01 1.800000000000e-01
-2.500000000000e-01 -2.500000000000e-01 2.400000000000e-01
-1.250000000000e-01 -2.500000000000e-01 2.400000000000e-01
0.000000000000e+00 -2.500000000000e-01 2.400000000000e-01
1.250000000000e-01 -2.500000000000e-01 2.400000000000e-01
2.500000000000e-01 -2.500000000000e-01 2.400000000000e-01
-2.500000000000e-01 -1.250000000000e-01 2.400000000000e-01
-1.250000000000e-01 -1.250000000000e-01 2.400000000000e-01
0.000000000000e+00 -1.250000000000e-01 2.400000000000e-01
1.250000000000e-01 -1.250000000000e-01 2.400000000000e-01
2.500000000000e-01 -1.250000000000e-01 2.400000000000e-01
-2.500000000000e-01 0.000000000000e+00 2.400000000000e-01
-1.250000000000e-01 0.000000000000e+00 2.400000000000e-01
0.000000000000e+00 0.000000000000e+00 2.400000000000e-01
1.250000000000e-01 0.000000000000e+00 2.400000000000e-01
2.500000000000e-01 0.000000000000e+00 2.400000000000e-01
-2.500000000000e-01 1.250000000000e-01 2.400000000000e-01
-1.250000000000e-01 1.250000000000e-01 2.400000000000e-01
0.000000000000e+00 1.250000000000e-01 2.400000000000e-01
1.250000000000e-01 1.250000000000e-01 2.400000000000e-01
2.500000000000e-01 1.250000000000e-01 2.400000000000e-01
-2.500000000000e-01 2.500000000000e-01 2.400000000000e-01
-1.250000000000e-01 2.500000000000e-01 2.400000000000e-01
0.000000000000e+00 2.500000000000e-01 2.400000000000e-01
1.250000000000e-01 2.500000000000e-01 2.400000000000e-01
2.500000000000e-01 2.500000000000e-01 2.400000000000e-01
-2.500017614236e-01 -2.500017614236e-01 2.399497403123e-01
-1.250008983780e-01 -2.500017583418e-01 2.399493029015e-01
2.880327804928e-14 -2.500017406810e-01 2.399491714855e-01
1.250008983780e-01 -2.500017583418e-01 2.399493029015e-01
2.500017614236e-01 -2.500017614236e-01 2.399497403123e-01
-2.500017583417e-01 -1.250008983780e-01 2.399493029015e-01
-1.250008978915e-01 -1.250008978915e-01 2.399488634932e-01
2.760011121030e-14 -1.250008882966e-01 2.399487304091e-01
1.250008978915e-01 -1.250008978915e-01 2.399488634932e-01
2.500017583418e-01 -1.250008983780e-01 2.399493029015e-01
-2.500017406810e-01 -3.612748897790e-14 2.399491714855e-01
-1.250008882966e-01 -3.493739232546e-14 2.399487304091e-01
2.639532261338e-14 -3.376438899082e-14 2.399485959886e-01
1.250008882966e-01 -3.257517058170e-14 2.399487304091e-01
2.500017406810e-01 -3.138905027371e-14 2.399491714855e-01
-2.500017583417e-01 1.250008983780e-01 2.399493029015e-01
-1.250008978915e-01 1.250008978915e-01 2.399488634932e-01
2.519189412693e-14 1.250008882966e-01 2.399487304091e-01
1.250008978915e-01 1.250008978915e-01 2.399488634932e-01
2.500017583418e-01 1.250008983780e-01 2.399493029015e-01
-2.500017614236e-01 2.500017614236e-01 2.399497403123e-01
-1.250008983780e-01 2.500017583417e-01 2.399493029015e-01
2.400517226014e-14 2.500017406810e-01 2.399491714855e-01
1.250008983780e-01 2.500017583417e-01 2.399493029015e-01
2.500017614236e-01 2.500017614236e-01 2.399497403123e-01
-2.500014489430e-01 -2.500014489430e-01 3.049483445076e-01
-1.250007434510e-01 -2.500014450181e-01 3.049478819392e-01
2.876862191846e-14 -2.500014260533e-01 3.049477446888e-01
1.250007434511e-01 -2.500014450181e-01 3.049478819392e-01
2.500014489430e-01 -2.500014489430e-01 3.049483445076e-01
-2.500014450181e-01 -1.250007434511e-01 3.049478819392e-01
-1.250007426810e-01 -1.250007426811e-01 3.049474149440e-01
2.757130547545e-14 -1.250007324198e-01 3.049472752924e-01
1.250007426810e-01 -1.250007426811e-01 3.049474149440e-01
2.500014450181e-01 -1.250007434511e-01 3.049478819392e-01
-2.500014260533e-01 -3.610440618497e-14 3.049477446888e-01
-1.250007324198e-01 -3.490970719658e-14 3.049472752924e-01
2.636956947868e-14 -3.372522000015e-14 3.049471343785e-01
1.250007324198e-01 -3.253675927746e-14 3.049472752924e-01
2.500014260533e-01 -3.134884762943e-14 3.049477446888e-01
-2.500014450181e-01 1.250007434510e-01 3.049478819392e-01
-1.250007426810e-01 1.250007426810e-01 3.049474149440e-01
2.517376437606e-14 1.250007324198e-01 3.049472752924e-01
1.250007426810e-01 1.250007426810e-01 3.049474149440e-01
2.500014450181e-01 1.250007434510e-01 3.049478819392e-01
-2.500014489430e-01 2.500014489430e-01 3.049483445076e-01
-1.250007434510e-01 2.500014450181e-01 3.049478819392e-01
2.399145489627e-14 2.500014260533e-01 3.049477446888e-01
1.250007434511e-01 2.500014450181e-01 3.049478819392e-01
2.500014489430e-01 2.500014489430e-01 3.049483445076e-01
-2.500010573448e-01 -2.500010573448e-01 3.699473732511e-01
-1.250005743332e-01 -2.500010454506e-01 3.699468807617e-01
2.873839651439e-14 -2.500010209471e-01 3.699467306296e-01
1.250005743333e-01 -2.500010454506e-01 3.699468807617e-01
2.500010573448e-01 -2.500010573448e-01 3.699473732511e-01
-2.500010454506e-01 -1.250005743333e-01 3.699468807617e-01
-1.250005741762e-01 -1.250005741762e-01 3.699463798969e-01
2.754169526414e-14 -1.250005627371e-01 3.699462251942e-01
1.250005741762e-01 -1.250005741762e-01 3.699463798969e-01
2.500010454506e-01 -1.250005743333e-01 3.699468807617e-01
-2.500010209471e-01 -3.607270903852e-14 3.699467306296e-01
-1.250005627370e-01 -3.488031164080e-14 3.699462251942e-01
2.634441480292e-14 -3.368794980115e-14 3.699460677079e-01
1.250005627371e-01 -3.249726397560e-14 3.699462251942e-01
2.500010209471e-01 -3.130664548266e-14 3.699467306296e-01
-2.500010454506e-01 1.250005743332e-01 3.699468807617e-01
-1.250005741762e-01 1.250005741762e-01 3.699463798969e-01
2.515482823531e-14 1.250005627370e-01 3.699462251942e-01
1.250005741762e-01 1.250005741762e-01 3.699463798969e-01
2.500010454506e-01 1.250005743332e-01 3.699468807617e-01
-2.500010573448e-01 2.500010573448e-01 3.699473732511e-01
-1.250005743332e-01 2.500010454506e-01 3.699468807617e-01
2.396916131201e-14 2.500010209470e-01 3.699467306296e-01
1.250005743333e-01 2.500010454506e-01 3.699468807617e-01
2.500010573448e-01 2.500010573448e-01 3.699473732511e-01
-2.500006713108e-01 -2.500006713109e-01 4.349467971486e-01
-1.250003932815e-01 -2.500006518050e-01 4.349462870922e-01
2.870663961241e-14 -2.500006223669e-01 4.349461124716e-01
1.250003932816e-01 -2.500006518050e-01 4.349462870922e-01
2.500006713109e-01 -2.500006713109e-01 4.349467971486e-01
-2.500006518050e-01 -1.250003932816e-01 4.349462870922e-01
-1.250003929514e-01 -1.250003929514e-01 4.349457646606e-01
2.750835059015e-14 -1.250003795549e-01 4.349455817768e-01
1.250003929514e-01 -1.250003929514e-01 4.349457646606e-01
2.500006518050e-01 -1.250003932816e-01 4.349462870922e-01
-2.500006223668e-01 -3.604153942608e-14 4.349461124716e-01
-1.250003795548e-01 -3.485307355691e-14 4.349455817768e-01
2.631881012653e-14 -3.365233775150e-14 4.349453929441e-01
1.250003795549e-01 -3.245969065566e-14 4.349455817768e-01
2.500006223669e-01 -3.126430990254e-14 4.349461124716e-01
-2.500006518050e-01 1.250003932815e-01 4.349462870922e-01
-1.250003929514e-01 1.250003929514e-01 4.349457646606e-01
2.513342076863e-14 1.250003795548e-01 4.349455817768e-01
1.250003929514e-01 1.250003929514e-01 4.349457646606e-01
2.500006518050e-01 1.250003932815e-01 4.349462870922e-01
-2.500006713108e-01 2.500006713108e-01 4.349467971486e-01
-1.250003932815e-01 2.500006518050e-01 4.349462870922e-01
2.394857398469e-14 2.500006223668e-01 4.349461124716e-01
1.250003932816e-01 2.500006518050e-01 4.349462870922e-01
2.500006713109e-01 2.500006713108e-01 4.349467971486e-01
-2.500003404432e-01 -2.500003404433e-01 4.999465747493e-01
-1.250002043152e-01 -2.500003181677e-01 4.999460560520e-01
2.866905674177e-14 -2.500002865813e-01 4.999458635340e-01
1.250002043153e-01 -2.500003181677e-01 4.999460560520e-01
2.500003404433e-01 -2.500003404433e-01 4.999465747493e-01
-2.500003181676e-01 -1.250002043153e-01 4.999460560520e-01
-1.250001996810e-01 -1.250001996811e-01 4.999455208709e-01
2.747405843798e-14 -1.250001823912e-01 4.999453171287e-01
1.250001996811e-01 -1.250001996811e-01 4.999455208709e-01
2.500003181677e-01 -1.250002043153e-01 4.999460560520e-01
-2.500002865812e-01 -3.601828046401e-14 4.999458635340e-01
-1.250001823911e-01 -3.482466213997e-14 4.999453171287e-01
2.628852456986e-14 -3.362194128936e-14 4.999451060869e-01
1.250001823912e-01 -3.241408568138e-14 4.999453171287e-01
2.500002865813e-01 -3.121991893522e-14 4.999458635340e-01
-2.500003181676e-01 1.250002043152e-01 4.999460560520e-01
-1.250001996810e-01 1.250001996810e-01 4.999455208709e-01
2.511521691892e-14 1.250001823911e-01 4.999453171287e-01
1.250001996811e-01 1.250001996810e-01 4.999455208709e-01
2.500003181677e-01 1.250002043152e-01 4.999460560520e-01
-2.500003404432e-01 2.500003404432e-01 4.999465747493e-01
-1.250002043152e-01 2.500003181676e-01 4.999460560520e-01
2.392959607457e-14 2.500002865812e-01 4.999458635340e-01
1.250002043153e-01 2.500003181676e-01 4.999460560520e-01
2.500003404433e-01 2.500003404432e-01 4.999465747493e-01
CELLS 128 1152
8 0 1 6 5 25 26 31 30
8 1 2 7 6 26 27 32 31
8 2 3 8 7 27 28 33 32
8 3 4 9 8 28 29 34 33
8 5 6 11 10 30 31 36 35
8 6 7 12 11 31 32 37 36
8 7 8 13 12 32 33 38 37
8 8 9 14 13 33 34 39 38
8 10 11 16 15 35 36 41 40
8 11 12 17 16 36 37 42 41
8 12 13 18 17 37 38 43 42
8 13 14 19 18 38 39 44 43
8 15 16 21 20 40 41 46 45
8 16 17 22 21 41 42 47 46
8 17 18 23 22 42 43 48 47
8 18 19 24 23 43 44 49 48
8 25 26 31 30 50 51 56 55
8 26 27 32 31 51 52 57 56
8 27 28 33 32 52 53 58 57
8 28 29 34 33 53 54 59 58
8 30 31 36 35 55 56 61 60
8 31 32 37 36 56 57 62 61
8 32 33 38 37 57 58 63 62
8 33 34 39 38 58 59 64 63
8 35 36 41 40 60 61 66 65
8 36 37 42 41 61 62 67 66
8 37 38 43 42 62 63 68 67
8 38 39 44 43 63 64 69 68
8 40 41 46 45 65 66 71 70
8 41 42 47 46 66 67 72 71
8 42 43 48 47 67 68 73 72
8 43 44 49 48 68 69 74 73
8 50 51 56 55 75 76 81 80
8 51 52 57 56 76 77 82 81
8 52 53 58 57 77 78 83 82
8 53 54 59 58 78 79 84 83
8 55 56 61 60 80 81 86 85
8 56 57 62 61 81 82 87 86
8 57 58 63 62 82 83 88 87
8 58 59 64 63 83 84 89 88
8 60 61 66 65 85 86 91 90
8 61 62 67 66 86 87 92 91
8 62 63 68 67 87 88 93 92
8 63 64 69 68 88 89 94 93
8 65 66 71 70 90 91 96 95
8 66 67 72 71 91 92 97 96
8 67 68 73 72 92 93 98 97
8 68 69 74 73 93 94 99 98
8 75 76 81 80 100 101 106 105
8 76 77 82 81 101 102 107 106
8 77 78 83 82 102 103 108 107
8 78 79 84 83 103 104 109 108
8 80 81 86 85 105 106 111 110
8 81 82 87 86 106 107 112 111
8 82 83 88 87 107 108 113 112
8 83 84 89 88 108 109 114 113
8 85 86 91 90 110 111 116 115
8 86 87 92 91 111 112 117 116
8 87 88 93 92 112 113 118 117
8 88 89 94 93 113 114 119 118
8 90 91 96 95 115 116 121 120
8 91 92 97 96 116 117 122 121
8 92 93 98 97 117 118 123 122
8 93 94 99 98 118 119 124 123
8 125 126 131 130 150 151 156 155
8 126 127 132 131 151 152 157 156
8 127 128 133 132 152 153 158 157
8 128 129 134 133 153 154 159 158
8 130 131 136 135 155 156 161 160
8 131 132 137 136 156 157 162 161
8 132 133 138 137 157 158 163 162
8 133 134 139 138 158 159 164 163
8 135 136 141 140 160 161 166 165
8 136 137 142 141 161 162 167 166
8 137 138 143 142 162 163 168 167
8 138 139 144 143 163 164 169 168
8 140 141 146 145 165 166 171 170
8 141 142 147 146 166 167 172 171
8 142 143 148 147 167 168 173 172
8 143 144 149 148 168 169 174 173
8 150 151 156 155 175 176 181 180
8 151 152 157 156 176 177 182 181
8 152 153 158 157 177 178 183 182
8 153 154 159 158 178 179 184 183
8 155 156 161 160 180 181 186 185
8 156 157 162 161 181 182 187 186
8 157 158 163 162 182 183 188 187
8 158 159 164 163 183 184 189 188
8 160 161 166 165 185 186 191 190
8 161 162 167 166 186 187 192 191
8 162 163 168 167 187 188 193 192
8 163 164 169 168 188 189 194 193
8 165 166 171 170 190 191 196 195
8 166 167 172 171 191 192 197 196
8 167 168 173 172 192 193 198 197
8 168 169 174 173 193 194 199 198
8 175 176 181 180 200 201 206 205
8 176 177 182 181 201 202 207 206
8 177 178 183 182 202 203 208 207
8 178 179 184 183 203 204 209 208
8 180 181 186 185 205 206 211 210
8 181 182 187 186 206 207 212 211
8 182 183 188 187 207 208 213 212
8 183 184 189 188 208 209 214 213
8 185 186 191 190 210 211 216 215
8 186 187 192 191 211 212 217 216
8 187 188 193 192 212 213 218 217
8 188 189 194 193 213 214 219 218
8 190 191 196 195 215 216 221 220
8 191 192 197 196 216 217 222 221
8 192 193 198 197 217 218 223 222
8 193 194 199 198 218 219 224 223
8 200 201 206 205 225 226 231 230
8 201 202 207 206 226 227 232 231
8 202 203 208 207 227 228 233 232
8 203 204 209 208 228 229 234 233
8 205 206 211 210 230 231 236 235
8 206 207 212 211 231 232 237 236
8 207 208 213 212 232 233 238 237
8 208 209 214 213 233 234 239 238
8 210 211 216 215 235 236 241 240
8 211 212 217 216 236 237 242 241
8 212 213 218 217 237 238 243 242
8 213 214 219 218 238 239 244 243
8 215 216 221 220 240 241 246 245
8 216 217 222 221 241 242 247 246
8 217 218 223 222 242 243 248 247
8 218 219 224 223 243 244 249 248
CELL_TYPES 128
12
12
12
12
12
12
12
12
12
12
12
12
12
12
12
12
12
12
12
12
12
12
12
12
12
12
12
12
12
12
12
12
12
12
12
12
12
12
12
12
12
12
12
12
12
12
12
12
12
12
12
12
12
12
12
12
12
12
12
12
12
12
12
12
12
12
12
12
12
12
12
12
12
12
12
12
12
12
12
12
12
12
12
12
12
12
12
12
12
12
12
12
12
12
12
12
12
12
12
12
12
12
12
12
12
12
12
12
12
12
12
12
12
12
12
12
12
12
12
12
12
12
12
12
12
12
12
12
POINT_DATA 250
VECTORS displacement float
0.000000000000e+00 0.000000000000e+00 0.000000000000e+00
0.000000000000e+00 0.000000000000e+00 0.000000000000e+00
0.000000000000e+00 0.000000000000e+00 0.000000000000e+00
0.000000000000e+00 0.000000000000e+00 0.000000000000e+00
0.000000000000e+00 0.000000000000e+00 0.000000000000e+00
0.000000000000e+00 0.000000000000e+00 0.000000000000e+00
0.000000000000e+00 0.000000000000e+00 0.000000000000e+00
0.000000000000e+00 0.000000000000e+00 0.000000000000e+00
0.000000000000e+00 0.000000000000e+00 0.000000000000e+00
0.000000000000e+00 0.000000000000e+00 0.000000000000e+00
0.000000000000e+00 0.000000000000e+00 0.000000000000e+00
0.000000000000e+00 0.000000000000e+00 0.000000000000e+00
0.000000000000e+00 0.000000000000e+00 0.000000000000e+00
0.000000000000e+00 0.000000000000e+00 0.000000000000e+00
0.000000000000e+00 0.000000000000e+00 0.000000000000e+00
0.000000000000e+00 0.000000000000e+00 0.000000000000e+00
0.000000000000e+00 0.000000000000e+00 0.000000000000e+00
0.000000000000e+00 0.000000000000e+00 0.000000000000e+00
0.000000000000e+00 0.000000000000e+00 0.000000000000e+00
0.000000000000e+00 0.000000000000e+00 0.000000000000e+00
0.000000000000e+00 0.000000000000e+00 0.000000000000e+00
0.000000000000e+00 0.000000000000e+00 0.000000000000e+00
0.000000000000e+00 0.000000000000e+00 0.000000000000e+00
0.000000000000e+00 0.000000000000e+00 0.000000000000e+00
0.000000000000e+00 0.000000000000e+00 0.000000000000e+00
0.000000000000e+00 0.000000000000e+00 0.000000000000e+00
0.000000000000e+00 0.000000000000e+00 0.000000000000e+00
0.000000000000e+00 0.000000000000e+00 0.000000000000e+00
0.000000000000e+00 0.000000000000e+00 0.000000000000e+00
0.000000000000e+00 0.000000000000e+00 0.000000000000e+00
0.000000000000e+00 0.000000000000e+00 0.000000000000e+00
0.000000000000e+00 0.000000000000e+00 0.000000000000e+00
0.000000000000e+00 0.000000000000e+00 0.000000000000e+00
0.000000000000e+00 0.000000000000e+00 0.000000000000e+00
0.000000000000e+00 0.000000000000e+00 0.000000000000e+00
0.000000000000e+00 0.000000000000e+00 0.000000000000e+00
0.000000000000e+00 0.000000000000e+00 0.000000000000e+00
0.000000000000e+00 0.000000000000e+00 0.000000000000e+00
0.000000000000e+00 0.000000000000e+00 0.000000000000e+00
0.000000000000e+00 0.000000000000e+00 0.000000000000e+00
0.000000000000e+00 0.000000000000e+00 0.000000000000e+00
0.000000000000e+00 0.000000000000e+00 0.000000000000e+00
0.000000000000e+00 0.000000000000e+00 0.000000000000e+00
0.000000000000e+00 0.000000000000e+00 0.000000000000e+00
0.000000000000e+00 0.000000000000e+00 0.000000000000e+00
0.000000000000e+00 0.000000000000e+00 0.000000000000e+00
0.000000000000e+00 0.000000000000e+00 0.000000000000e+00
0.000000000000e+00 0.000000000000e+00 0.000000000000e+00
0.000000000000e+00 0.000000000000e+00 0.000000000000e+00
0.000000000000e+00 0.000000000000e+00 0.000000000000e+00
0.000000000000e+00 0.000000000000e+00 0.000000000000e+00
0.000000000000e+00 0.000000000000e+00 0.000000000000e+00
0.000000000000e+00 0.000000000000e+00 0.000000000000e+00
0.000000000000e+00 0.000000000000e+00 0.000000000000e+00
0.000000000000e+00 0.000000000000e+00 0.000000000000e+00
0.000000000000e+00 0.000000000000e+00 0.000000000000e+00
0.000000000000e+00 0.000000000000e+00 0.000000000000e+00
0.000000000000e+00 0.000000000000e+00 0.000000000000e+00
0.000000000000e+00 0.000000000000e+00 0.000000000000e+00
0.000000000000e+00 0.000000000000e+00 0.000000000000e+00
0.000000000000e+00 0.000000000000e+00 0.000000000000e+00
0.000000000000e+00 0.000000000000e+00 0.000000000000e+00
0.000000000000e+00 0.000000000000e+00 0.000000000000e+00
0.000000000000e+00 0.000000000000e+00 0.000000000000e+00
0.000000000000e+00 0.000000000000e+00 0.000000000000e+00
0.000000000000e+00 0.000000000000e+00 0.000000000000e+00
0.000000000000e+00 0.000000000000e+00 0.000000000000e+00
0.000000000000e+00 0.000000000000e+00 0.000000000000e+00
0.000000000000e+00 0.000000000000e+00 0.000000000000e+00
0.000000000000e+00 0.000000000000e+00 0.000000000000e+00
0.000000000000e+00 0.000000000000e+00 0.000000000000e+00
0.000000000000e+00 0.000000000000e+00 0.000000000000e+00
0.000000000000e+00 0.000000000000e+00 0.000000000000e+00
0.000000000000e+00 0.000000000000e+00 0.000000000000e+00
0.000000000000e+00 0.000000000000e+00 0.000000000000e+00
0.000000000000e+00 0.000000000000e+00 0.000000000000e+00
0.000000000000e+00 0.000000000000e+00 0.000000000000e+00
0.000000000000e+00 0.000000000000e+00 0.000000000000e+00
0.000000000000e+00 0.000000000000e+00 0.000000000000e+00
0.000000000000e+00 0.000000000000e+00 0.000000000000e+00
0.000000000000e+00 0.000000000000e+00 0.000000000000e+00
0.000000000000e+00 0.000000000000e+00 0.000000000000e+00
0.000000000000e+00 0.000000000000e+00 0.000000000000e+00
0.000000000000e+00 0.000000000000e+00 0.000000000000e+00
0.000000000000e+00 0.000000000000e+00 0.000000000000e+00
0.000000000000e+00 0.000000000000e+00 0.000000000000e+00
0.000000000000e+00 0.000000000000e+00 0.000000000000e+00
0.000000000000e+00 0.000000000000e+00 0.000000000000e+00
0.000000000000e+00 0.000000000000e+00 0.000000000000e+00
0.000000000000e+00 0.000000000000e+00 0.000000000000e+00
0.000000000000e+00 0.000000000000e+00 0.000000000000e+00
0.000000000000e+00 0.000000000000e+00 0.000000000000e+00
0.000000000000e+00 0.000000000000e+00 0.000000000000e+00
0.000000000000e+00 0.000000000000e+00 0.000000000000e+00
0.000000000000e+00 0.000000000000e+00 0.000000000000e+00
0.000000000000e+00 0.000000000000e+00 0.000000000000e+00
0.000000000000e+00 0.000000000000e+00 0.000000000000e+00
0.000000000000e+00 0.000000000000e+00 0.000000000000e+00
0.000000000000e+00 0.000000000000e+00 0.000000000000e+00
0.000000000000e+00 0.000000000000e+00 0.000000000000e+00
0.000000000000e+00 0.000000000000e+00 0.000000000000e+00
0.000000000000e+00 0.000000000000e+00 0.000000000000e+00
0.000000000000e+00 0.000000000000e+00 0.000000000000e+00
0.000000000000e+00 0.000000000000e+00 0.000000000000e+00
0.000000000000e+00 0.000000000000e+00 0.000000000000e+00
0.000000000000e+00 0.000000000000e+00 0.000000000000e+00
0.000000000000e+00 0.000000000000e+00 0.000000000000e+00
0.000000000000e+00 0.000000000000e+00 0.000000000000e+00
0.000000000000e+00 0.000000000000e+00 0.000000000000e+00
0.000000000000e+00 0.000000000000e+00 0.000000000000e+00
0.000000000000e+00 0.000000000000e+00 0.000000000000e+00
0.000000000000e+00 0.000000000000e+00 0.000000000000e+00
0.000000000000e+00 0.000000000000e+00 0.000000000000e+00
0.000000000000e+00 0.000000000000e+00 0.000000000000e+00
0.000000000000e+00 0.000000000000e+00 0.000000000000e+00
0.000000000000e+00 0.000000000000e+00 0.000000000000e+00
0.000000000000e+00 0.000000000000e+00 0.000000000000e+00
0.000000000000e+00 0.000000000000e+00 0.000000000000e+00
0.000000000000e+00 0.000000000000e+00 0.000000000000e+00
0.000000000000e+00 0.000000000000e+00 0.000000000000e+00
0.000000000000e+00 0.000000000000e+00 0.000000000000e+00
0.000000000000e+00 0.000000000000e+00 0.000000000000e+00
0.000000000000e+00 0.000000000000e+00 0.000000000000e+00
0.000000000000e+00 0.000000000000e+00 0.000000000000e+00
0.000000000000e+00 0.000000000000e+00 0.000000000000e+00
-1.761423570466e-06 -1.761423635404e-06 -1.505025968767e-02
-8.983779666556e-07 -1.758341804341e-06 -1.505069709846e-02
2.880327804928e-14 -1.740681039602e-06 -1.505082851448e-02
8.983780242552e-07 -1.758341801981e-06 -1.505069709846e-02
1.761423628059e-06 -1.761423630638e-06 -1.505025968767e-02
-1.758341741796e-06 -8.983780315905e-07 -1.505069709846e-02
-8.978914857910e-07 -8.978915483407e-07 -1.505113650682e-02
2.760011121030e-14 -8.882966483389e-07 -1.505126959086e-02
8.978915409856e-07 -8.978915459717e-07 -1.505113650682e-02
1.758341796983e-06 -8.983780268396e-07 -1.505069709846e-02
-1.740680979457e-06 -3.612748897790e-14 -1.505082851448e-02
-8.882965881857e-07 -3.493739232546e-14 -1.505126959086e-02
2.639532261338e-14 -3.376438899082e-14 -1.505140401139e-02
8.882966409624e-07 -3.257517058170e-14 -1.505126959086e-02
1.740681032218e-06 -3.138905027371e-14 -1.505082851448e-02
-1.758341744217e-06 8.983779593320e-07 -1.505069709846e-02
-8.978914882056e-07 8.978914784549e-07 -1.505113650682e-02
2.519189412693e-14 8.882965808130e-07 -1.505126959086e-02
8.978915385854e-07 8.978914808156e-07 -1.505113650682e-02
1.758341794586e-06 8.983779640602e-07 -1.505069709846e-02
-1.761423575254e-06 1.761423563133e-06 -1.505025968767e-02
-8.983779714526e-07 1.758341734461e-06 -1.505069709846e-02
2.400517226014e-14 1.740680972086e-06 -1.505082851448e-02
8.983780194590e-07 1.758341736818e-06 -1.505069709846e-02
1.761423623259e-06 1.761423567861e-06 -1.505025968767e-02
-1.448942960517e-06 -1.448943025394e-06 -1.505165549240e-02
-7.434510180370e-07 -1.445018143429e-06 -1.505211806080e-02
2.876862191846e-14 -1.426053334732e-06 -1.505225531119e-02
7.434510755751e-07 -1.445018141043e-06 -1.505211806080e-02
1.448943018049e-06 -1.448943020614e-06 -1.505165549240e-02
-1.445018080943e-06 -7.434510829135e-07 -1.505211806080e-02
-7.426809914354e-07 -7.426810539224e-07 -1.505258505599e-02
2.757130547545e-14 -7.324198291138e-07 -1.505272470757e-02
7.426810465743e-07 -7.426810515420e-07 -1.505258505598e-02
1.445018136075e-06 -7.434510781403e-07 -1.505211806080e-02
-1.426053274640e-06 -3.610440618497e-14 -1.505225531119e-02
-7.324197690205e-07 -3.490970719658e-14 -1.505272470757e-02
2.636956947868e-14 -3.372522000015e-14 -1.505286562153e-02
7.324198217561e-07 -3.253675927746e-14 -1.505272470757e-02
1.426053327366e-06 -3.134884762943e-14 -1.505225531119e-02
-1.445018083339e-06 7.434510107104e-07 -1.505211806080e-02
-7.426809938310e-07 7.426809840921e-07 -1.505258505599e-02
2.517376437606e-14 7.324197616619e-07 -1.505272470757e-02
7.426810441777e-07 7.426809864665e-07 -1.505258505599e-02
1.445018133684e-06 7.434510154489e-07 -1.505211806080e-02
-1.448942965294e-06 1.448942953191e-06 -1.505165549240e-02
-7.434510228159e-07 1.445018073597e-06 -1.505211806080e-02
2.399145489627e-14 1.426053267278e-06 -1.505225531119e-02
7.434510707915e-07 1.445018075969e-06 -1.505211806080e-02
1.448943013264e-06 1.448942957930e-06 -1.505165549240e-02
-1.057344772853e-06 -1.057344837667e-06 -1.505262674894e-02
-5.743332384307e-07 -1.045450629672e-06 -1.505311923830e-02
2.873839651439e-14 -1.020947114214e-06 -1.505326937039e-02
5.743332959105e-07 -1.045450627273e-06 -1.505311923830e-02
1.057344830332e-06 -1.057344832873e-06 -1.505262674894e-02
-1.045450567247e-06 -5.743333032455e-07 -1.505311923830e-02
-5.741761791214e-07 -5.741762415430e-07 -1.505362010314e-02
2.754169526414e-14 -5.627370893951e-07 -1.505377480579e-02
5.741762342027e-07 -5.741762391538e-07 -1.505362010314e-02
1.045450622316e-06 -5.743332984634e-07 -1.505311923830e-02
-1.020947054177e-06 -3.607270903852e-14 -1.505326937039e-02
-5.627370293619e-07 -3.488031164080e-14 -1.505377480579e-02
2.634441480292e-14 -3.368794980115e-14 -1.505393229214e-02
5.627370820483e-07 -3.249726397560e-14 -1.505377480579e-02
1.020947106861e-06 -3.130664548266e-14 -1.505326937039e-02
-1.045450569628e-06 5.743332311038e-07 -1.505311923830e-02
-5.741761815039e-07 5.741761717805e-07 -1.505362010314e-02
2.515482823531e-14 5.627370220133e-07 -1.505377480579e-02
5.741762318150e-07 5.741761741619e-07 -1.505362010314e-02
1.045450619935e-06 5.743332358579e-07 -1.505311923830e-02
-1.057344777613e-06 1.057344765532e-06 -1.505262674894e-02
-5.743332431947e-07 1.045450559899e-06 -1.505311923830e-02
2.396916131201e-14 1.020947046824e-06 -1.505326937039e-02
5.743332911356e-07 1.045450562279e-06 -1.505311923830e-02
1.057344825551e-06 1.057344770277e-06 -1.505262674894e-02
-6.713108070524e-07 -6.713108718031e-07 -1.505320285141e-02
-3.932815060733e-07 -6.518050382094e-07 -1.505371290781e-02
2.870663961241e-14 -6.223668908669e-07 -1.505388752836e-02
3.932815634863e-07 -6.518050358059e-07 -1.505371290781e-02
6.713108644647e-07 -6.713108669948e-07 -1.505320285141e-02
-6.518049758488e-07 -3.932815708235e-07 -1.505371290781e-02
-3.929513585560e-07 -3.929514209162e-07 -1.505423533941e-02
2.750835059015e-14 -3.795548741441e-07 -1.505441822320e-02
3.929514135736e-07 -3.929514185149e-07 -1.505423533941e-02
6.518050308614e-07 -3.932815660329e-07 -1.505371290781e-02
-6.223668308963e-07 -3.604153942608e-14 -1.505388752836e-02
-3.795548141733e-07 -3.485307355691e-14 -1.505441822320e-02
2.631881012653e-14 -3.365233775150e-14 -1.505460705592e-02
3.795548668052e-07 -3.245969065566e-14 -1.505441822320e-02
6.223668835286e-07 -3.126430990254e-14 -1.505388752836e-02
-6.518049782222e-07 3.932814987422e-07 -1.505371290781e-02
-3.929513609256e-07 3.929513512114e-07 -1.505423533941e-02
2.513342076863e-14 3.795548068331e-07 -1.505441822320e-02
3.929514111972e-07 3.929513536025e-07 -1.505423533941e-02
6.518050284934e-07 3.932815035109e-07 -1.505371290781e-02
-6.713108117937e-07 6.713107997209e-07 -1.505320285141e-02
-3.932815108237e-07 6.518049685076e-07 -1.505371290781e-02
2.394857398469e-14 6.223668235487e-07 -1.505388752836e-02
3.932815587242e-07 6.518049708954e-07 -1.505371290781e-02
6.713108596973e-07 6.713108044785e-07 -1.505320285141e-02
-3.404432375417e-07 -3.404433022286e-07 -1.505342525067e-02
-2.043152445884e-07 -3.181676922272e-07 -1.505394394796e-02
2.866905674177e-14 -2.865812927998e-07 -1.505413646597e-02
2.043153019210e-07 -3.181676898142e-07 -1.505394394796e-02
3.404432948807e-07 -3.404432974144e-07 -1.505342525067e-02
-3.181676299367e-07 -2.043153092742e-07 -1.505394394796e-02
-1.996810189645e-07 -1.996810812579e-07 -1.505447912910e-02
2.747405843798e-14 -1.823911783334e-07 -1.505468287129e-02
1.996810739106e-07 -1.996810788492e-07 -1.505447912910e-02
3.181676848719e-07 -2.043153044601e-07 -1.505394394796e-02
-2.865812328855e-07 -3.601828046401e-14 -1.505413646597e-02
-1.823911184274e-07 -3.482466213997e-14 -1.505468287129e-02
2.628852456986e-14 -3.362194128936e-14 -1.505489391312e-02
1.823911710049e-07 -3.241408568138e-14 -1.505468287129e-02
2.865812854781e-07 -3.121991893522e-14 -1.505413646597e-02
-3.181676322975e-07 2.043152372422e-07 -1.505394394796e-02
-1.996810213236e-07 1.996810116095e-07 -1.505447912910e-02
2.511521691892e-14 1.823911110885e-07 -1.505468287129e-02
1.996810715492e-07 1.996810140101e-07 -1.505447912910e-02
3.181676825185e-07 2.043152420218e-07 -1.505394394796e-02
-3.404432422713e-07 3.404432301984e-07 -1.505342525067e-02
-2.043152493186e-07 3.181676225813e-07 -1.505394394796e-02
2.392959607457e-14 2.865812255515e-07 -1.505413646597e-02
2.043152971800e-07 3.181676249731e-07 -1.505394394796e-02
3.404432901355e-07 3.404432349739e-07 -1.505342525067e-02
SCALARS displacement_magnitude float 1
LOOKUP_TABLE default
0.000000000000e+00
0.000000000000e+00
0.000000000000e+00
0.000000000000e+00
0.000000000000e+00
0.000000000000e+00
0.000000000000e+00
0.000000000000e+00
0.000000000000e+00
0.000000000000e+00
0.000000000000e+00
0.000000000000e+00
0.000000000000e+00
0.000000000000e+00
0.000000000000e+00
0.000000000000e+00
0.000000000000e+00
0.000000000000e+00
0.000000000000e+00
0.000000000000e+00
0.000000000000e+00
0.000000000000e+00
0.000000000000e+00
0.000000000000e+00
0.000000000000e+00
0.000000000000e+00
0.000000000000e+00
0.000000000000e+00
0.000000000000e+00
0.000000000000e+00
0.000000000000e+00
0.000000000000e+00
0.000000000000e+00
0.000000000000e+00
0.000000000000e+00
0.000000000000e+00
0.000000000000e+00
0.000000000000e+00
0.000000000000e+00
0.000000000000e+00
0.000000000000e+00
0.000000000000e+00
0.000000000000e+00
0.000000000000e+00
0.000000000000e+00
0.000000000000e+00
0.000000000000e+00
0.000000000000e+00
0.000000000000e+00
0.000000000000e+00
0.000000000000e+00
0.000000000000e+00
0.000000000000e+00
0.000000000000e+00
0.000000000000e+00
0.000000000000e+00
0.000000000000e+00
0.000000000000e+00
0.000000000000e+00
0.000000000000e+00
0.000000000000e+00
0.000000000000e+00
0.000000000000e+00
0.000000000000e+00
0.000000000000e+00
0.000000000000e+00
0.000000000000e+00
0.000000000000e+00
0.000000000000e+00
0.000000000000e+00
0.000000000000e+00
0.000000000000e+00
0.000000000000e+00
0.000000000000e+00
0.000000000000e+00
0.000000000000e+00
0.000000000000e+00
0.000000000000e+00
0.000000000000e+00
0.000000000000e+00
0.000000000000e+00
0.000000000000e+00
0.000000000000e+00
0.000000000000e+00
0.000000000000e+00
0.000000000000e+00
0.000000000000e+00
0.000000000000e+00
0.000000000000e+00
0.000000000000e+00
0.000000000000e+00
0.000000000000e+00
0.000000000000e+00
0.000000000000e+00
0.000000000000e+00
0.000000000000e+00
0.000000000000e+00
0.000000000000e+00
0.000000000000e+00
0.000000000000e+00
0.000000000000e+00
0.000000000000e+00
0.000000000000e+00
0.000000000000e+00
0.000000000000e+00
0.000000000000e+00
0.000000000000e+00
0.000000000000e+00
0.000000000000e+00
0.000000000000e+00
0.000000000000e+00
0.000000000000e+00
0.000000000000e+00
0.000000000000e+00
0.000000000000e+00
0.000000000000e+00
0.000000000000e+00
0.000000000000e+00
0.000000000000e+00
0.000000000000e+00
0.000000000000e+00
0.000000000000e+00
0.000000000000e+00
0.000000000000e+00
0.000000000000e+00
1.505025989382e-02
1.505069722798e-02
1.505082861514e-02
1.505069722798e-02
1.505025989382e-02
1.505069722798e-02
1.505113656038e-02
1.505126961707e-02
1.505113656038e-02
1.505069722798e-02
1.505082861514e-02
1.505126961707e-02
1.505140401139e-02
1.505126961707e-02
1.505082861514e-02
1.505069722798e-02
1.505113656038e-02
1.505126961707e-02
1.505113656038e-02
1.505069722798e-02
1.505025989382e-02
1.505069722798e-02
1.505082861514e-02
1.505069722798e-02
1.505025989382e-02
1.505165563189e-02
1.505211814852e-02
1.505225537875e-02
1.505211814852e-02
1.505165563189e-02
1.505211814852e-02
1.505258509263e-02
1.505272472538e-02
1.505258509263e-02
1.505211814852e-02
1.505225537875e-02
1.505272472538e-02
1.505286562153e-02
1.505272472538e-02
1.505225537875e-02
1.505211814852e-02
1.505258509263e-02
1.505272472538e-02
1.505258509263e-02
1.505211814852e-02
1.505165563189e-02
1.505211814852e-02
1.505225537875e-02
1.505211814852e-02
1.505165563189e-02
1.505262682321e-02
1.505311928556e-02
1.505326940501e-02
1.505311928556e-02
1.505262682321e-02
1.505311928556e-02
1.505362012504e-02
1.505377481631e-02
1.505362012504e-02
1.505311928556e-02
1.505326940501e-02
1.505377481631e-02
1.505393229214e-02
1.505377481631e-02
1.505326940501e-02
1.505311928556e-02
1.505362012504e-02
1.505377481631e-02
1.505362012504e-02
1.505311928556e-02
1.505262682321e-02
1.505311928556e-02
1.505326940501e-02
1.505311928556e-02
1.505262682321e-02
1.505320288135e-02
1.505371292706e-02
1.505388754122e-02
1.505371292706e-02
1.505320288135e-02
1.505371292706e-02
1.505423534967e-02
1.505441822798e-02
1.505423534967e-02
1.505371292706e-02
1.505388754122e-02
1.505441822798e-02
1.505460705592e-02
1.505441822798e-02
1.505388754122e-02
1.505371292706e-02
1.505423534967e-02
1.505441822798e-02
1.505423534967e-02
1.505371292706e-02
1.505320288135e-02
1.505371292706e-02
1.505388754122e-02
1.505371292706e-02
1.505320288135e-02
1.505342525837e-02
1.505394395271e-02
1.505413646869e-02
1.505394395271e-02
1.505342525837e-02
1.505394395271e-02
1.505447913175e-02
1.505468287240e-02
1.505447913175e-02
1.505394395271e-02
1.505413646870e-02
1.505468287240e-02
1.505489391312e-02
1.505468287240e-02
1.505413646869e-02
1.505394395271e-02
1.505447913175e-02
1.505468287240e-02
1.505447913175e-02
1.505394395271e-02
1.505342525837e-02
1.505394395271e-02
1.505413646870e-02
1.505394395271e-02
1.505342525837e-02
CELL_DATA 128
SCALARS displacement_magnitude float 1
LOOKUP_TABLE default
0.000000000000e+00
0.000000000000e+00
0.000000000000e+00
0.000000000000e+00
0.000000000000e+00
0.000000000000e+00
0.000000000000e+00
0.000000000000e+00
0.000000000000e+00
0.000000000000e+00
0.000000000000e+00
0.000000000000e+00
0.000000000000e+00
0.000000000000e+00
0.000000000000e+00
0.000000000000e+00
0.000000000000e+00
0.000000000000e+00
0.000000000000e+00
0.000000000000e+00
0.000000000000e+00
0.000000000000e+00
0.000000000000e+00
0.000000000000e+00
0.000000000000e+00
0.000000000000e+00
0.000000000000e+00
0.000000000000e+00
0.000000000000e+00
0.000000000000e+00
0.000000000000e+00
0.000000000000e+00
0.000000000000e+00
0.000000000000e+00
0.000000000000e+00
0.000000000000e+00
0.000000000000e+00
0.000000000000e+00
0.000000000000e+00
0.000000000000e+00
0.000000000000e+00
0.000000000000e+00
0.000000000000e+00
0.000000000000e+00
0.000000000000e+00
0.000000000000e+00
0.000000000000e+00
0.000000000000e+00
0.000000000000e+00
0.000000000000e+00
0.000000000000e+00
0.000000000000e+00
0.000000000000e+00
0.000000000000e+00
0.000000000000e+00
0.000000000000e+00
0.000000000000e+00
0.000000000000e+00
0.000000000000e+00
0.000000000000e+00
0.000000000000e+00
0.000000000000e+00
0.000000000000e+00
0.000000000000e+00
1.505140849146e-02
1.505170192073e-02
1.505170192073e-02
1.505140849146e-02
1.505170192073e-02
1.505199749635e-02
1.505199749635e-02
1.505170192073e-02
1.505170192073e-02
1.505199749635e-02
1.505199749635e-02
1.505170192073e-02
1.505140849146e-02
1.505170192073e-02
1.505170192073e-02
1.505140849146e-02
1.505262031762e-02
1.505293337215e-02
1.505293337215e-02
1.505262031762e-02
1.505293337215e-02
1.505325027684e-02
1.505325027684e-02
1.505293337215e-02
1.505293337215e-02
1.505325027684e-02
1.505325027684e-02
1.505293337215e-02
1.505262031762e-02
1.505293337215e-02
1.505293337215e-02
1.505262031762e-02
1.505341870056e-02
1.505375470973e-02
1.505375470973e-02
1.505341870056e-02
1.505375470973e-02
1.505409761392e-02
1.505409761392e-02
1.505375470973e-02
1.505375470973e-02
1.505409761392e-02
1.505409761392e-02
1.505375470973e-02
1.505341870056e-02
1.505375470973e-02
1.505375470973e-02
1.505341870056e-02
1.505383204758e-02
1.505418705893e-02
1.505418705893e-02
1.505383204758e-02
1.505418705893e-02
1.505455220640e-02
1.505455220640e-02
1.505418705893e-02
1.505418705893e-02
1.505455220640e-02
1.505455220640e-02
1.505418705893e-02
1.505383204758e-02
1.505418705893e-02
1.505418705893e-02
1.505383204758e-02
SCALARS engineering_strain_norm float 1
LOOKUP_TABLE default
0.000000000000e+00
0.000000000000e+00
0.000000000000e+00
0.000000000000e+00
0.000000000000e+00
0.000000000000e+00
0.000000000000e+00
0.000000000000e+00
0.000000000000e+00
0.000000000000e+00
0.000000000000e+00
0.000000000000e+00
0.000000000000e+00
0.000000000000e+00
0.000000000000e+00
0.000000000000e+00
0.000000000000e+00
0.000000000000e+00
0.000000000000e+00
0.000000000000e+00
0.000000000000e+00
0.000000000000e+00
0.000000000000e+00
0.000000000000e+00
0.000000000000e+00
0.000000000000e+00
0.000000000000e+00
0.000000000000e+00
0.000000000000e+00
0.000000000000e+00
0.000000000000e+00
0.000000000000e+00
0.000000000000e+00
0.000000000000e+00
0.000000000000e+00
0.000000000000e+00
0.000000000000e+00
0.000000000000e+00
0.000000000000e+00
0.000000000000e+00
0.000000000000e+00
0.000000000000e+00
0.000000000000e+00
0.000000000000e+00
0.000000000000e+00
0.000000000000e+00
0.000000000000e+00
0.000000000000e+00
0.000000000000e+00
0.000000000000e+00
0.000000000000e+00
0.000000000000e+00
0.000000000000e+00
0.000000000000e+00
0.000000000000e+00
0.000000000000e+00
0.000000000000e+00
0.000000000000e+00
0.000000000000e+00
0.000000000000e+00
0.000000000000e+00
0.000000000000e+00
0.000000000000e+00
0.000000000000e+00
2.359561642118e-05
2.389798992688e-05
2.389798992687e-05
2.359561642106e-05
2.389798992698e-05
2.421266451527e-05
2.421266451519e-05
2.389798992679e-05
2.389798992700e-05
2.421266451521e-05
2.421266451524e-05
2.389798992684e-05
2.359561642120e-05
2.389798992695e-05
2.389798992689e-05
2.359561642114e-05
1.681798840656e-05
1.727447126578e-05
1.727447126574e-05
1.681798840641e-05
1.727447126582e-05
1.777075358385e-05
1.777075358378e-05
1.727447126562e-05
1.727447126581e-05
1.777075358377e-05
1.777075358378e-05
1.727447126570e-05
1.681798840653e-05
1.727447126573e-05
1.727447126570e-05
1.681798840647e-05
1.008645549061e-05
1.065783346039e-05
1.065783346042e-05
1.008645549045e-05
1.065783346043e-05
1.128739186237e-05
1.128739186232e-05
1.065783346029e-05
1.065783346046e-05
1.128739186230e-05
1.128739186231e-05
1.065783346034e-05
1.008645549058e-05
1.065783346031e-05
1.065783346034e-05
1.008645549045e-05
4.223341545695e-06
4.721596234810e-06
4.721596234790e-06
4.223341545577e-06
4.721596234821e-06
5.225817658653e-06
5.225817658593e-06
4.721596234706e-06
4.721596234879e-06
5.225817658611e-06
5.225817658568e-06
4.721596234802e-06
4.223341545688e-06
4.721596234697e-06
4.721596234761e-06
4.223341545635e-06
SCALARS von_mises float 1
LOOKUP_TABLE default
0.000000000000e+00
0.000000000000e+00
0.000000000000e+00
0.000000000000e+00
0.000000000000e+00
0.000000000000e+00
0.000000000000e+00
0.000000000000e+00
0.000000000000e+00
0.000000000000e+00
0.000000000000e+00
0.000000000000e+00
0.000000000000e+00
0.000000000000e+00
0.000000000000e+00
0.000000000000e+00
0.000000000000e+00
0.000000000000e+00
0.000000000000e+00
0.000000000000e+00
0.000000000000e+00
0.000000000000e+00
0.000000000000e+00
0.000000000000e+00
0.000000000000e+00
0.000000000000e+00
0.000000000000e+00
0.000000000000e+00
0.000000000000e+00
0.000000000000e+00
0.000000000000e+00
0.000000000000e+00
0.000000000000e+00
0.000000000000e+00
0.000000000000e+00
0.000000000000e+00
0.000000000000e+00
0.000000000000e+00
0.000000000000e+00
0.000000000000e+00
0.000000000000e+00
0.000000000000e+00
0.000000000000e+00
0.000000000000e+00
0.000000000000e+00
0.000000000000e+00
0.000000000000e+00
0.000000000000e+00
0.000000000000e+00
0.000000000000e+00
0.000000000000e+00
0.000000000000e+00
0.000000000000e+00
0.000000000000e+00
0.000000000000e+00
0.000000000000e+00
0.000000000000e+00
0.000000000000e+00
0.000000000000e+00
0.000000000000e+00
0.000000000000e+00
0.000000000000e+00
0.000000000000e+00
0.000000000000e+00
2.164074698171e+00
2.193384484880e+00
2.193384484879e+00
2.164074698160e+00
2.193384484889e+00
2.223772831269e+00
2.223772831261e+00
2.193384484871e+00
2.193384484891e+00
2.223772831264e+00
2.223772831265e+00
2.193384484876e+00
2.164074698172e+00
2.193384484886e+00
2.193384484881e+00
2.164074698166e+00
1.550105942066e+00
1.595620435333e+00
1.595620435329e+00
1.550105942052e+00
1.595620435337e+00
1.645064176904e+00
1.645064176898e+00
1.595620435317e+00
1.595620435336e+00
1.645064176897e+00
1.645064176898e+00
1.595620435325e+00
1.550105942064e+00
1.595620435328e+00
1.595620435326e+00
1.550105942058e+00
9.337511408390e-01
9.924077402640e-01
9.924077402665e-01
9.337511408238e-01
9.924077402680e-01
1.056159546626e+00
1.056159546621e+00
9.924077402544e-01
9.924077402706e-01
1.056159546619e+00
1.056159546620e+00
9.924077402592e-01
9.337511408358e-01
9.924077402566e-01
9.924077402590e-01
9.337511408244e-01
3.968414639447e-01
4.444449254604e-01
4.444449254587e-01
3.968414639336e-01
4.444449254613e-01
4.913340892807e-01
4.913340892752e-01
4.444449254507e-01
4.444449254670e-01
4.913340892770e-01
4.913340892727e-01
4.444449254594e-01
3.968414639442e-01
4.444449254499e-01
4.444449254555e-01
3.968414639388e-01
SCALARS sdf_gap float 1
LOOKUP_TABLE default
0.000000000000e+00
0.000000000000e+00
0.000000000000e+00
0.000000000000e+00
0.000000000000e+00
0.000000000000e+00
0.000000000000e+00
0.000000000000e+00
0.000000000000e+00
0.000000000000e+00
0.000000000000e+00
0.000000000000e+00
0.000000000000e+00
0.000000000000e+00
0.000000000000e+00
0.000000000000e+00
0.000000000000e+00
0.000000000000e+00
0.000000000000e+00
0.000000000000e+00
0.000000000000e+00
0.000000000000e+00
0.000000000000e+00
0.000000000000e+00
0.000000000000e+00
0.000000000000e+00
0.000000000000e+00
0.000000000000e+00
0.000000000000e+00
0.000000000000e+00
0.000000000000e+00
0.000000000000e+00
0.000000000000e+00
0.000000000000e+00
0.000000000000e+00
0.000000000000e+00
0.000000000000e+00
0.000000000000e+00
0.000000000000e+00
0.000000000000e+00
0.000000000000e+00
0.000000000000e+00
0.000000000000e+00
0.000000000000e+00
0.000000000000e+00
0.000000000000e+00
0.000000000000e+00
0.000000000000e+00
0.000000000000e+00
0.000000000000e+00
0.000000000000e+00
0.000000000000e+00
0.000000000000e+00
0.000000000000e+00
0.000000000000e+00
0.000000000000e+00
0.000000000000e+00
0.000000000000e+00
0.000000000000e+00
0.000000000000e+00
0.000000000000e+00
0.000000000000e+00
0.000000000000e+00
0.000000000000e+00
-5.069759785082e-05
-5.098292765326e-05
-5.098292765321e-05
-5.069759785059e-05
-5.098292765340e-05
-5.126992498087e-05
-5.126992498081e-05
-5.098292765322e-05
-5.098292765342e-05
-5.126992498094e-05
-5.126992498088e-05
-5.098292765329e-05
-5.069759785094e-05
-5.098292765344e-05
-5.098292765341e-05
-5.069759785084e-05
0.000000000000e+00
0.000000000000e+00
0.000000000000e+00
0.000000000000e+00
0.000000000000e+00
0.000000000000e+00
0.000000000000e+00
0.000000000000e+00
0.000000000000e+00
0.000000000000e+00
0.000000000000e+00
0.000000000000e+00
0.000000000000e+00
0.000000000000e+00
0.000000000000e+00
0.000000000000e+00
0.000000000000e+00
0.000000000000e+00
0.000000000000e+00
0.000000000000e+00
0.000000000000e+00
0.000000000000e+00
0.000000000000e+00
0.000000000000e+00
0.000000000000e+00
0.000000000000e+00
0.000000000000e+00
0.000000000000e+00
0.000000000000e+00
0.000000000000e+00
0.000000000000e+00
0.000000000000e+00
0.000000000000e+00
0.000000000000e+00
0.000000000000e+00
0.000000000000e+00
0.000000000000e+00
0.000000000000e+00
0.000000000000e+00
0.000000000000e+00
0.000000000000e+00
0.000000000000e+00
0.000000000000e+00
0.000000000000e+00
0.000000000000e+00
0.000000000000e+00
0.000000000000e+00
0.000000000000e+00
SCALARS contact_pressure float 1
LOOKUP_TABLE default
0.000000000000e+00
0.000000000000e+00
0.000000000000e+00
0.000000000000e+00
0.000000000000e+00
0.000000000000e+00
0.000000000000e+00
0.000000000000e+00
0.000000000000e+00
0.000000000000e+00
0.000000000000e+00
0.000000000000e+00
0.000000000000e+00
0.000000000000e+00
0.000000000000e+00
0.000000000000e+00
0.000000000000e+00
0.000000000000e+00
0.000000000000e+00
0.000000000000e+00
0.000000000000e+00
0.000000000000e+00
0.000000000000e+00
0.000000000000e+00
0.000000000000e+00
0.000000000000e+00
0.000000000000e+00
0.000000000000e+00
0.000000000000e+00
0.000000000000e+00
0.000000000000e+00
0.000000000000e+00
0.000000000000e+00
0.000000000000e+00
0.000000000000e+00
0.000000000000e+00
0.000000000000e+00
0.000000000000e+00
0.000000000000e+00
0.000000000000e+00
0.000000000000e+00
0.000000000000e+00
0.000000000000e+00
0.000000000000e+00
0.000000000000e+00
0.000000000000e+00
0.000000000000e+00
0.000000000000e+00
0.000000000000e+00
0.000000000000e+00
0.000000000000e+00
0.000000000000e+00
0.000000000000e+00
0.000000000000e+00
0.000000000000e+00
0.000000000000e+00
0.000000000000e+00
0.000000000000e+00
0.000000000000e+00
0.000000000000e+00
0.000000000000e+00
0.000000000000e+00
0.000000000000e+00
0.000000000000e+00
2.534879892541e+00
2.549146382663e+00
2.549146382660e+00
2.534879892529e+00
2.549146382670e+00
2.563496249044e+00
2.563496249040e+00
2.549146382661e+00
2.549146382671e+00
2.563496249047e+00
2.563496249044e+00
2.549146382664e+00
2.534879892547e+00
2.549146382672e+00
2.549146382671e+00
2.534879892542e+00
0.000000000000e+00
0.000000000000e+00
0.000000000000e+00
0.000000000000e+00
0.000000000000e+00
0.000000000000e+00
0.000000000000e+00
0.000000000000e+00
0.000000000000e+00
0.000000000000e+00
0.000000000000e+00
0.000000000000e+00
0.000000000000e+00
0.000000000000e+00
0.000000000000e+00
0.000000000000e+00
0.000000000000e+00
0.000000000000e+00
0.000000000000e+00
0.000000000000e+00
0.000000000000e+00
0.000000000000e+00
0.000000000000e+00
0.000000000000e+00
0.000000000000e+00
0.000000000000e+00
0.000000000000e+00
0.000000000000e+00
0.000000000000e+00
0.000000000000e+00
0.000000000000e+00
0.000000000000e+00
0.000000000000e+00
0.000000000000e+00
0.000000000000e+00
0.000000000000e+00
0.000000000000e+00
0.000000000000e+00
0.000000000000e+00
0.000000000000e+00
0.000000000000e+00
0.000000000000e+00
0.000000000000e+00
0.000000000000e+00
0.000000000000e+00
0.000000000000e+00
0.000000000000e+00
0.000000000000e+00
SCALARS active_contact float 1
LOOKUP_TABLE default
0.000000000000e+00
0.000000000000e+00
0.000000000000e+00
0.000000000000e+00
0.000000000000e+00
0.000000000000e+00
0.000000000000e+00
0.000000000000e+00
0.000000000000e+00
0.000000000000e+00
0.000000000000e+00
0.000000000000e+00
0.000000000000e+00
0.000000000000e+00
0.000000000000e+00
0.000000000000e+00
0.000000000000e+00
0.000000000000e+00
0.000000000000e+00
0.000000000000e+00
0.000000000000e+00
0.000000000000e+00
0.000000000000e+00
0.000000000000e+00
0.000000000000e+00
0.000000000000e+00
0.000000000000e+00
0.000000000000e+00
0.000000000000e+00
0.000000000000e+00
0.000000000000e+00
0.000000000000e+00
0.000000000000e+00
0.000000000000e+00
0.000000000000e+00
0.000000000000e+00
0.000000000000e+00
0.000000000000e+00
0.000000000000e+00
0.000000000000e+00
0.000000000000e+00
0.000000000000e+00
0.000000000000e+00
0.000000000000e+00
0.000000000000e+00
0.000000000000e+00
0.000000000000e+00
0.000000000000e+00
0.000000000000e+00
0.000000000000e+00
0.000000000000e+00
0.000000000000e+00
0.000000000000e+00
0.000000000000e+00
0.000000000000e+00
0.000000000000e+00
0.000000000000e+00
0.000000000000e+00
0.000000000000e+00
0.000000000000e+00
0.000000000000e+00
0.000000000000e+00
0.000000000000e+00
0.000000000000e+00
1.000000000000e+00
1.000000000000e+00
1.000000000000e+00
1.000000000000e+00
1.000000000000e+00
1.000000000000e+00
1.000000000000e+00
1.000000000000e+00
1.000000000000e+00
1.000000000000e+00
1.000000000000e+00
1.000000000000e+00
1.000000000000e+00
1.000000000000e+00
1.000000000000e+00
1.000000000000e+00
0.000000000000e+00
0.000000000000e+00
0.000000000000e+00
0.000000000000e+00
0.000000000000e+00
0.000000000000e+00
0.000000000000e+00
0.000000000000e+00
0.000000000000e+00
0.000000000000e+00
0.000000000000e+00
0.000000000000e+00
0.000000000000e+00
0.000000000000e+00
0.000000000000e+00
0.000000000000e+00
0.000000000000e+00
0.000000000000e+00
0.000000000000e+00
0.000000000000e+00
0.000000000000e+00
0.000000000000e+00
0.000000000000e+00
0.000000000000e+00
0.000000000000e+00
0.000000000000e+00
0.000000000000e+00
0.000000000000e+00
0.000000000000e+00
0.000000000000e+00
0.000000000000e+00
0.000000000000e+00
0.000000000000e+00
0.000000000000e+00
0.000000000000e+00
0.000000000000e+00
0.000000000000e+00
0.000000000000e+00
0.000000000000e+00
0.000000000000e+00
0.000000000000e+00
0.000000000000e+00
0.000000000000e+00
0.000000000000e+00
0.000000000000e+00
0.000000000000e+00
0.000000000000e+00
0.000000000000e+00
