# vtk DataFile Version 3.0
SFC long-time C3D8 dynamic frame 132 t=2.640000000000e+00
ASCII
DATASET UNSTRUCTURED_GRID
POINTS 250 float
-2.500000000000e-01 -2.500000000000e-01 0.000000000000e+00
-1.250000000000e-01 -2.500000000000e-01 0.000000000000e+00
0.000000000000e+00 -2.500000000000e-01 0.000000000000e+00
1.250000000000e-01 -2.500000000000e-01 0.000000000000e+00
2.500000000000e-01 -2.500000000000e-01 0.000000000000e+00
-2.500000000000e-01 -1.250000000000e-01 0.000000000000e+00
-1.250000000000e-01 -1.250000000000e-01 0.000000000000e+00
0.000000000000e+00 -1.250000000000e-01 0.000000000000e+00
1.250000000000e-01 -1.250000000000e-01 0.000000000000e+00
2.500000000000e-01 -1.250000000000e-01 0.000000000000e+00
-2.500000000000e-01 0.000000000000e+00 0.000000000000e+00
-1.250000000000e-01 0.000000000000e+00 0.000000000000e+00
0.000000000000e+00 0.000000000000e+00 0.000000000000e+00
1.250000000000e-01 0.000000000000e+00 0.000000000000e+00
2.500000000000e-01 0.000000000000e+00 0.000000000000e+00
-2.500000000000e-01 1.250000000000e-01 0.000000000000e+00
-1.250000000000e-01 1.250000000000e-01 0.000000000000e+00
0.000000000000e+00 1.250000000000e-01 0.000000000000e+00
1.250000000000e-01 1.250000000000e-01 0.000000000000e+00
2.500000000000e-01 1.250000000000e-01 0.000000000000e+00
-2.500000000000e-01 2.500000000000e-01 0.000000000000e+00
-1.250000000000e-01 2.500000000000e-01 0.000000000000e+00
0.000000000000e+00 2.500000000000e-01 0.000000000000e+00
1.250000000000e-01 2.500000000000e-01 0.000000000000e+00
2.500000000000e-01 2.500000000000e-01 0.000000000000e+00
-2.500000000000e-01 -2.500000000000e-01 6.000000000000e-02
-1.250000000000e-01 -2.500000000000e-01 6.000000000000e-02
0.000000000000e+00 -2.500000000000e-01 6.000000000000e-02
1.250000000000e-01 -2.500000000000e-01 6.000000000000e-02
2.500000000000e-01 -2.500000000000e-01 6.000000000000e-02
-2.500000000000e-01 -1.250000000000e-01 6.000000000000e-02
-1.250000000000e-01 -1.250000000000e-01 6.000000000000e-02
0.000000000000e+00 -1.250000000000e-01 6.000000000000e-02
1.250000000000e-01 -1.250000000000e-01 6.000000000000e-02
2.500000000000e-01 -1.250000000000e-01 6.000000000000e-02
-2.500000000000e-01 0.000000000000e+00 6.000000000000e-02
-1.250000000000e-01 0.000000000000e+00 6.000000000000e-02
0.000000000000e+00 0.000000000000e+00 6.000000000000e-02
1.250000000000e-01 0.000000000000e+00 6.000000000000e-02
2.500000000000e-01 0.000000000000e+00 6.000000000000e-02
-2.500000000000e-01 1.250000000000e-01 6.000000000000e-02
-1.250000000000e-01 1.250000000000e-01 6.000000000000e-02
0.000000000000e+00 1.250000000000e-01 6.000000000000e-02
1.250000000000e-01 1.250000000000e-01 6.000000000000e-02
2.500000000000e-01 1.250000000000e-01 6.000000000000e-02
-2.500000000000e-01 2.500000000000e-01 6.000000000000e-02
-1.250000000000e-01 2.500000000000e-01 6.000000000000e-02
0.000000000000e+00 2.500000000000e-01 6.000000000000e-02
1.250000000000e-01 2.500000000000e-01 6.000000000000e-02
2.500000000000e-01 2.500000000000e-01 6.000000000000e-02
-2.500000000000e-01 -2.500000000000e-01 1.200000000000e-01
-1.250000000000e-01 -2.500000000000e-01 1.200000000000e-01
0.000000000000e+00 -2.500000000000e-01 1.200000000000e-01
1.250000000000e-01 -2.500000000000e-01 1.200000000000e-01
2.500000000000e-01 -2.500000000000e-01 1.200000000000e-01
-2.500000000000e-01 -1.250000000000e-01 1.200000000000e-01
-1.250000000000e-01 -1.250000000000e-01 1.200000000000e-01
0.000000000000e+00 -1.250000000000e-01 1.200000000000e-01
1.250000000000e-01 -1.250000000000e-01 1.200000000000e-01
2.500000000000e-01 -1.250000000000e-01 1.200000000000e-01
-2.500000000000e-01 0.000000000000e+00 1.200000000000e-01
-1.250000000000e-01 0.000000000000e+00 1.200000000000e-01
0.000000000000e+00 0.000000000000e+00 1.200000000000e-01
1.250000000000e-01 0.000000000000e+00 1.200000000000e-01
2.500000000000e-01 0.000000000000e+00 1.200000000000e-01
-2.500000000000e-01 1.250000000000e-01 1.200000000000e-01
-1.250000000000e-01 1.250000000000e-01 1.200000000000e-01
0.000000000000e+00 1.250000000000e-01 1.200000000000e-01
1.250000000000e-01 1.250000000000e-01 1.200000000000e-01
2.500000000000e-01 1.250000000000e-01 1.200000000000e-01
-2.500000000000e-01 2.500000000000e-01 1.200000000000e-01
-1.250000000000e-01 2.500000000000e-01 1.200000000000e-01
0.000000000000e+00 2.500000000000e-01 1.200000000000e-01
1.250000000000e-01 2.500000000000e-01 1.200000000000e-01
2.500000000000e-01 2.500000000000e-01 1.200000000000e-01
-2.500000000000e-01 -2.500000000000e-01 1.800000000000e-01
-1.250000000000e-01 -2.500000000000e-01 1.800000000000e-01
0.000000000000e+00 -2.500000000000e-01 1.800000000000e-01
1.250000000000e-01 -2.500000000000e-01 1.800000000000e-01
2.500000000000e-01 -2.500000000000e-01 1.800000000000e-01
-2.500000000000e-01 -1.250000000000e-01 1.800000000000e-01
-1.250000000000e-01 -1.250000000000e-01 1.800000000000e-01
0.000000000000e+00 -1.250000000000e-01 1.800000000000e-01
1.250000000000e-01 -1.250000000000e-01 1.800000000000e-01
2.500000000000e-01 -1.250000000000e-01 1.800000000000e-01
-2.500000000000e-01 0.000000000000e+00 1.800000000000e-01
-1.250000000000e-01 0.000000000000e+00 1.800000000000e-01
0.000000000000e+00 0.000000000000e+00 1.800000000000e-01
1.250000000000e-01 0.000000000000e+00 1.800000000000e-01
2.500000000000e-01 0.000000000000e+00 1.800000000000e-01
-2.500000000000e-01 1.250000000000e-01 1.800000000000e-01
-1.250000000000e-01 1.250000000000e-01 1.800000000000e-01
0.000000000000e+00 1.250000000000e-01 1.800000000000e-01
1.250000000000e-01 1.250000000000e-01 1.800000000000e-01
2.500000000000e-01 1.250000000000e-01 1.800000000000e-01
-2.500000000000e-01 2.500000000000e-01 1.800000000000e-01
-1.250000000000e-01 2.500000000000e-01 1.800000000000e-01
0.000000000000e+00 2.500000000000e-01 1.800000000000e-01
1.250000000000e-01 2.500000000000e-01 1.800000000000e-01
2.500000000000e-01 2.500000000000e-01 1.800000000000e-01
-2.500000000000e-01 -2.500000000000e-01 2.400000000000e-01
-1.250000000000e-01 -2.500000000000e-01 2.400000000000e-01
0.000000000000e+00 -2.500000000000e-01 2.400000000000e-01
1.250000000000e-01 -2.500000000000e-01 2.400000000000e-01
2.500000000000e-01 -2.500000000000e-01 2.400000000000e-01
-2.500000000000e-01 -1.250000000000e-01 2.400000000000e-01
-1.250000000000e-01 -1.250000000000e-01 2.400000000000e-01
0.000000000000e+00 -1.250000000000e-01 2.400000000000e-01
1.250000000000e-01 -1.250000000000e-01 2.400000000000e-01
2.500000000000e-01 -1.250000000000e-01 2.400000000000e-01
-2.500000000000e-01 0.000000000000e+00 2.400000000000e-01
-1.250000000000e-01 0.000000000000e+00 2.400000000000e-01
0.000000000000e+00 0.000000000000e+00 2.400000000000e-01
1.250000000000e-01 0.000000000000e+00 2.400000000000e-01
2.500000000000e-01 0.000000000000e+00 2.400000000000e-01
-2.500000000000e-01 1.250000000000e-01 2.400000000000e-01
-1.250000000000e-01 1.250000000000e-01 2.400000000000e-01
0.000000000000e+00 1.250000000000e-01 2.400000000000e-01
1.250000000000e-01 1.250000000000e-01 2.400000000000e-01
2.500000000000e-01 1.250000000000e-01 2.400000000000e-01
-2.500000000000e-01 2.500000000000e-01 2.400000000000e-01
-1.250000000000e-01 2.500000000000e-01 2.400000000000e-01
0.000000000000e+00 2.500000000000e-01 2.400000000000e-01
1.250000000000e-01 2.500000000000e-01 2.400000000000e-01
2.500000000000e-01 2.500000000000e-01 2.400000000000e-01
-2.500017204434e-01 -2.500017204435e-01 2.399499192125e-01
-1.250008777912e-01 -2.500017285894e-01 2.399493061170e-01
3.465670705755e-14 -2.500017359769e-01 2.399490853393e-01
1.250008777913e-01 -2.500017285894e-01 2.399493061170e-01
2.500017204434e-01 -2.500017204435e-01 2.399499192125e-01
-2.500017285893e-01 -1.250008777913e-01 2.399493061170e-01
-1.250008806401e-01 -1.250008806402e-01 2.399486878907e-01
3.366006992896e-14 -1.250008884290e-01 2.399484645955e-01
1.250008806401e-01 -1.250008806402e-01 2.399486878907e-01
2.500017285894e-01 -1.250008777913e-01 2.399493061170e-01
-2.500017359768e-01 -4.436584585707e-14 2.399490853393e-01
-1.250008884289e-01 -4.336216499787e-14 2.399484645955e-01
3.266367616988e-14 -4.235495497839e-14 2.399482393388e-01
1.250008884290e-01 -4.135673378316e-14 2.399484645955e-01
2.500017359769e-01 -4.035947294983e-14 2.399490853393e-01
-2.500017285893e-01 1.250008777912e-01 2.399493061170e-01
-1.250008806401e-01 1.250008806401e-01 2.399486878907e-01
3.166679859574e-14 1.250008884289e-01 2.399484645955e-01
1.250008806401e-01 1.250008806401e-01 2.399486878907e-01
2.500017285894e-01 1.250008777912e-01 2.399493061170e-01
-2.500017204434e-01 2.500017204434e-01 2.399499192125e-01
-1.250008777912e-01 2.500017285893e-01 2.399493061170e-01
3.066761760537e-14 2.500017359768e-01 2.399490853393e-01
1.250008777913e-01 2.500017285893e-01 2.399493061170e-01
2.500017204434e-01 2.500017204434e-01 2.399499192125e-01
-2.500013191698e-01 -2.500013191698e-01 3.049485324068e-01
-1.250006516117e-01 -2.500013275362e-01 3.049478998484e-01
3.464401492456e-14 -2.500013368104e-01 3.049476767319e-01
1.250006516118e-01 -2.500013275362e-01 3.049478998484e-01
2.500013191698e-01 -2.500013191698e-01 3.049485324068e-01
-2.500013275361e-01 -1.250006516118e-01 3.049478998484e-01
-1.250006527514e-01 -1.250006527515e-01 3.049472623196e-01
3.364678569979e-14 -1.250006596223e-01 3.049470363694e-01
1.250006527515e-01 -1.250006527515e-01 3.049472623196e-01
2.500013275362e-01 -1.250006516118e-01 3.049478998484e-01
-2.500013368103e-01 -4.434115438906e-14 3.049476767319e-01
-1.250006596223e-01 -4.333418985649e-14 3.049470363694e-01
3.265047328280e-14 -4.233285337382e-14 3.049468067031e-01
1.250006596223e-01 -4.133055149709e-14 3.049470363694e-01
2.500013368104e-01 -4.033741427960e-14 3.049476767319e-01
-2.500013275361e-01 1.250006516117e-01 3.049478998484e-01
-1.250006527514e-01 1.250006527514e-01 3.049472623196e-01
3.165175324657e-14 1.250006596223e-01 3.049470363694e-01
1.250006527515e-01 1.250006527514e-01 3.049472623196e-01
2.500013275362e-01 1.250006516117e-01 3.049478998484e-01
-2.500013191698e-01 2.500013191698e-01 3.049485324068e-01
-1.250006516117e-01 2.500013275361e-01 3.049478998484e-01
3.065240599120e-14 2.500013368103e-01 3.049476767319e-01
1.250006516117e-01 2.500013275361e-01 3.049478998484e-01
2.500013191698e-01 2.500013191698e-01 3.049485324068e-01
-2.500008562764e-01 -2.500008562765e-01 3.699475608403e-01
-1.250004233685e-01 -2.500008596795e-01 3.699469224265e-01
3.463282000021e-14 -2.500008689365e-01 3.699467033014e-01
1.250004233685e-01 -2.500008596795e-01 3.699469224265e-01
2.500008562765e-01 -2.500008562765e-01 3.699475608403e-01
-2.500008596795e-01 -1.250004233685e-01 3.699469224265e-01
-1.250004243367e-01 -1.250004243368e-01 3.699462801337e-01
3.363279245715e-14 -1.250004313004e-01 3.699460586321e-01
1.250004243368e-01 -1.250004243368e-01 3.699462801337e-01
2.500008596795e-01 -1.250004233685e-01 3.699469224265e-01
-2.500008689364e-01 -4.431730584490e-14 3.699467033014e-01
-1.250004313003e-01 -4.331024154006e-14 3.699460586321e-01
3.263555403075e-14 -4.230906947949e-14 3.699458323298e-01
1.250004313004e-01 -4.130883045562e-14 3.699460586321e-01
2.500008689364e-01 -4.031473928197e-14 3.699467033014e-01
-2.500008596795e-01 1.250004233684e-01 3.699469224265e-01
-1.250004243367e-01 1.250004243367e-01 3.699462801337e-01
3.163456021499e-14 1.250004313003e-01 3.699460586321e-01
1.250004243368e-01 1.250004243367e-01 3.699462801337e-01
2.500008596795e-01 1.250004233685e-01 3.699469224265e-01
-2.500008562764e-01 2.500008562764e-01 3.699475608403e-01
-1.250004233685e-01 2.500008596795e-01 3.699469224265e-01
3.063226712687e-14 2.500008689364e-01 3.699467033014e-01
1.250004233685e-01 2.500008596795e-01 3.699469224265e-01
2.500008562765e-01 2.500008562764e-01 3.699475608403e-01
-2.500004123098e-01 -2.500004123099e-01 4.349469801590e-01
-1.250001999867e-01 -2.500004147996e-01 4.349463538397e-01
3.462293922403e-14 -2.500004277423e-01 4.349461343850e-01
1.250001999868e-01 -2.500004147995e-01 4.349463538397e-01
2.500004123099e-01 -2.500004123099e-01 4.349469801590e-01
-2.500004147995e-01 -1.250001999868e-01 4.349463538397e-01
-1.250002008375e-01 -1.250002008376e-01 4.349457263609e-01
3.362305995812e-14 -1.250002089895e-01 4.349455045961e-01
1.250002008376e-01 -1.250002008376e-01 4.349457263609e-01
2.500004147995e-01 -1.250001999868e-01 4.349463538397e-01
-2.500004277422e-01 -4.429039632321e-14 4.349461343850e-01
-1.250002089894e-01 -4.328580160815e-14 4.349455045961e-01
3.262221640960e-14 -4.228593498886e-14 4.349452766337e-01
1.250002089895e-01 -4.128863628546e-14 4.349455045961e-01
2.500004277423e-01 -4.029021392685e-14 4.349461343850e-01
-2.500004147995e-01 1.250001999867e-01 4.349463538397e-01
-1.250002008375e-01 1.250002008375e-01 4.349457263609e-01
3.161995572552e-14 1.250002089894e-01 4.349455045961e-01
1.250002008376e-01 1.250002008375e-01 4.349457263609e-01
2.500004147995e-01 1.250001999867e-01 4.349463538397e-01
-2.500004123099e-01 2.500004123098e-01 4.349469801590e-01
-1.250001999867e-01 2.500004147995e-01 4.349463538397e-01
3.061780034132e-14 2.500004277422e-01 4.349461343850e-01
1.250001999868e-01 2.500004147995e-01 4.349463538397e-01
2.500004123099e-01 2.500004123098e-01 4.349469801590e-01
-2.500000307161e-01 -2.500000307161e-01 4.999467682573e-01
-1.249999803576e-01 -2.500000388426e-01 4.999461558918e-01
3.461200577334e-14 -2.500000576829e-01 4.999459398318e-01
1.249999803576e-01 -2.500000388426e-01 4.999461558918e-01
2.500000307161e-01 -2.500000307161e-01 4.999467682573e-01
-2.500000388425e-01 -1.249999803576e-01 4.999461558918e-01
-1.249999803859e-01 -1.249999803860e-01 4.999455452545e-01
3.361585934827e-14 -1.249999882599e-01 4.999453276663e-01
1.249999803860e-01 -1.249999803860e-01 4.999455452545e-01
2.500000388426e-01 -1.249999803576e-01 4.999461558918e-01
-2.500000576828e-01 -4.425862764664e-14 4.999459398318e-01
-1.249999882598e-01 -4.325210103112e-14 4.999453276663e-01
3.261423847356e-14 -4.225621306316e-14 4.999451037130e-01
1.249999882599e-01 -4.126276078814e-14 4.999453276663e-01
2.500000576829e-01 -4.026697888453e-14 4.999459398318e-01
-2.500000388425e-01 1.249999803575e-01 4.999461558918e-01
-1.249999803859e-01 1.249999803859e-01 4.999455452545e-01
3.160676082514e-14 1.249999882598e-01 4.999453276663e-01
1.249999803860e-01 1.249999803859e-01 4.999455452545e-01
2.500000388426e-01 1.249999803575e-01 4.999461558918e-01
-2.500000307161e-01 2.500000307161e-01 4.999467682573e-01
-1.249999803576e-01 2.500000388425e-01 4.999461558918e-01
3.060350721226e-14 2.500000576828e-01 4.999459398318e-01
1.249999803576e-01 2.500000388425e-01 4.999461558918e-01
2.500000307161e-01 2.500000307161e-01 4.999467682573e-01
CELLS 128 1152
8 0 1 6 5 25 26 31 30
8 1 2 7 6 26 27 32 31
8 2 3 8 7 27 28 33 32
8 3 4 9 8 28 29 34 33
8 5 6 11 10 30 31 36 35
8 6 7 12 11 31 32 37 36
8 7 8 13 12 32 33 38 37
8 8 9 14 13 33 34 39 38
8 10 11 16 15 35 36 41 40
8 11 12 17 16 36 37 42 41
8 12 13 18 17 37 38 43 42
8 13 14 19 18 38 39 44 43
8 15 16 21 20 40 41 46 45
8 16 17 22 21 41 42 47 46
8 17 18 23 22 42 43 48 47
8 18 19 24 23 43 44 49 48
8 25 26 31 30 50 51 56 55
8 26 27 32 31 51 52 57 56
8 27 28 33 32 52 53 58 57
8 28 29 34 33 53 54 59 58
8 30 31 36 35 55 56 61 60
8 31 32 37 36 56 57 62 61
8 32 33 38 37 57 58 63 62
8 33 34 39 38 58 59 64 63
8 35 36 41 40 60 61 66 65
8 36 37 42 41 61 62 67 66
8 37 38 43 42 62 63 68 67
8 38 39 44 43 63 64 69 68
8 40 41 46 45 65 66 71 70
8 41 42 47 46 66 67 72 71
8 42 43 48 47 67 68 73 72
8 43 44 49 48 68 69 74 73
8 50 51 56 55 75 76 81 80
8 51 52 57 56 76 77 82 81
8 52 53 58 57 77 78 83 82
8 53 54 59 58 78 79 84 83
8 55 56 61 60 80 81 86 85
8 56 57 62 61 81 82 87 86
8 57 58 63 62 82 83 88 87
8 58 59 64 63 83 84 89 88
8 60 61 66 65 85 86 91 90
8 61 62 67 66 86 87 92 91
8 62 63 68 67 87 88 93 92
8 63 64 69 68 88 89 94 93
8 65 66 71 70 90 91 96 95
8 66 67 72 71 91 92 97 96
8 67 68 73 72 92 93 98 97
8 68 69 74 73 93 94 99 98
8 75 76 81 80 100 101 106 105
8 76 77 82 81 101 102 107 106
8 77 78 83 82 102 103 108 107
8 78 79 84 83 103 104 109 108
8 80 81 86 85 105 106 111 110
8 81 82 87 86 106 107 112 111
8 82 83 88 87 107 108 113 112
8 83 84 89 88 108 109 114 113
8 85 86 91 90 110 111 116 115
8 86 87 92 91 111 112 117 116
8 87 88 93 92 112 113 118 117
8 88 89 94 93 113 114 119 118
8 90 91 96 95 115 116 121 120
8 91 92 97 96 116 117 122 121
8 92 93 98 97 117 118 123 122
8 93 94 99 98 118 119 124 123
8 125 126 131 130 150 151 156 155
8 126 127 132 131 151 152 157 156
8 127 128 133 132 152 153 158 157
8 128 129 134 133 153 154 159 158
8 130 131 136 135 155 156 161 160
8 131 132 137 136 156 157 162 161
8 132 133 138 137 157 158 163 162
8 133 134 139 138 158 159 164 163
8 135 136 141 140 160 161 166 165
8 136 137 142 141 161 162 167 166
8 137 138 143 142 162 163 168 167
8 138 139 144 143 163 164 169 168
8 140 141 146 145 165 166 171 170
8 141 142 147 146 166 167 172 171
8 142 143 148 147 167 168 173 172
8 143 144 149 148 168 169 174 173
8 150 151 156 155 175 176 181 180
8 151 152 157 156 176 177 182 181
8 152 153 158 157 177 178 183 182
8 153 154 159 158 178 179 184 183
8 155 156 161 160 180 181 186 185
8 156 157 162 161 181 182 187 186
8 157 158 163 162 182 183 188 187
8 158 159 164 163 183 184 189 188
8 160 161 166 165 185 186 191 190
8 161 162 167 166 186 187 192 191
8 162 163 168 167 187 188 193 192
8 163 164 169 168 188 189 194 193
8 165 166 171 170 190 191 196 195
8 166 167 172 171 191 192 197 196
8 167 168 173 172 192 193 198 197
8 168 169 174 173 193 194 199 198
8 175 176 181 180 200 201 206 205
8 176 177 182 181 201 202 207 206
8 177 178 183 182 202 203 208 207
8 178 179 184 183 203 204 209 208
8 180 181 186 185 205 206 211 210
8 181 182 187 186 206 207 212 211
8 182 183 188 187 207 208 213 212
8 183 184 189 188 208 209 214 213
8 185 186 191 190 210 211 216 215
8 186 187 192 191 211 212 217 216
8 187 188 193 192 212 213 218 217
8 188 189 194 193 213 214 219 218
8 190 191 196 195 215 216 221 220
8 191 192 197 196 216 217 222 221
8 192 193 198 197 217 218 223 222
8 193 194 199 198 218 219 224 223
8 200 201 206 205 225 226 231 230
8 201 202 207 206 226 227 232 231
8 202 203 208 207 227 228 233 232
8 203 204 209 208 228 229 234 233
8 205 206 211 210 230 231 236 235
8 206 207 212 211 231 232 237 236
8 207 208 213 212 232 233 238 237
8 208 209 214 213 233 234 239 238
8 210 211 216 215 235 236 241 240
8 211 212 217 216 236 237 242 241
8 212 213 218 217 237 238 243 242
8 213 214 219 218 238 239 244 243
8 215 216 221 220 240 241 246 245
8 216 217 222 221 241 242 247 246
8 217 218 223 222 242 243 248 247
8 218 219 224 223 243 244 249 248
CELL_TYPES 128
12
12
12
12
12
12
12
12
12
12
12
12
12
12
12
12
12
12
12
12
12
12
12
12
12
12
12
12
12
12
12
12
12
12
12
12
12
12
12
12
12
12
12
12
12
12
12
12
12
12
12
12
12
12
12
12
12
12
12
12
12
12
12
12
12
12
12
12
12
12
12
12
12
12
12
12
12
12
12
12
12
12
12
12
12
12
12
12
12
12
12
12
12
12
12
12
12
12
12
12
12
12
12
12
12
12
12
12
12
12
12
12
12
12
12
12
12
12
12
12
12
12
12
12
12
12
12
12
POINT_DATA 250
VECTORS displacement float
0.000000000000e+00 0.000000000000e+00 0.000000000000e+00
0.000000000000e+00 0.000000000000e+00 0.000000000000e+00
0.000000000000e+00 0.000000000000e+00 0.000000000000e+00
0.000000000000e+00 0.000000000000e+00 0.000000000000e+00
0.000000000000e+00 0.000000000000e+00 0.000000000000e+00
0.000000000000e+00 0.000000000000e+00 0.000000000000e+00
0.000000000000e+00 0.000000000000e+00 0.000000000000e+00
0.000000000000e+00 0.000000000000e+00 0.000000000000e+00
0.000000000000e+00 0.000000000000e+00 0.000000000000e+00
0.000000000000e+00 0.000000000000e+00 0.000000000000e+00
0.000000000000e+00 0.000000000000e+00 0.000000000000e+00
0.000000000000e+00 0.000000000000e+00 0.000000000000e+00
0.000000000000e+00 0.000000000000e+00 0.000000000000e+00
0.000000000000e+00 0.000000000000e+00 0.000000000000e+00
0.000000000000e+00 0.000000000000e+00 0.000000000000e+00
0.000000000000e+00 0.000000000000e+00 0.000000000000e+00
0.000000000000e+00 0.000000000000e+00 0.000000000000e+00
0.000000000000e+00 0.000000000000e+00 0.000000000000e+00
0.000000000000e+00 0.000000000000e+00 0.000000000000e+00
0.000000000000e+00 0.000000000000e+00 0.000000000000e+00
0.000000000000e+00 0.000000000000e+00 0.000000000000e+00
0.000000000000e+00 0.000000000000e+00 0.000000000000e+00
0.000000000000e+00 0.000000000000e+00 0.000000000000e+00
0.000000000000e+00 0.000000000000e+00 0.000000000000e+00
0.000000000000e+00 0.000000000000e+00 0.000000000000e+00
0.000000000000e+00 0.000000000000e+00 0.000000000000e+00
0.000000000000e+00 0.000000000000e+00 0.000000000000e+00
0.000000000000e+00 0.000000000000e+00 0.000000000000e+00
0.000000000000e+00 0.000000000000e+00 0.000000000000e+00
0.000000000000e+00 0.000000000000e+00 0.000000000000e+00
0.000000000000e+00 0.000000000000e+00 0.000000000000e+00
0.000000000000e+00 0.000000000000e+00 0.000000000000e+00
0.000000000000e+00 0.000000000000e+00 0.000000000000e+00
0.000000000000e+00 0.000000000000e+00 0.000000000000e+00
0.000000000000e+00 0.000000000000e+00 0.000000000000e+00
0.000000000000e+00 0.000000000000e+00 0.000000000000e+00
0.000000000000e+00 0.000000000000e+00 0.000000000000e+00
0.000000000000e+00 0.000000000000e+00 0.000000000000e+00
0.000000000000e+00 0.000000000000e+00 0.000000000000e+00
0.000000000000e+00 0.000000000000e+00 0.000000000000e+00
0.000000000000e+00 0.000000000000e+00 0.000000000000e+00
0.000000000000e+00 0.000000000000e+00 0.000000000000e+00
0.000000000000e+00 0.000000000000e+00 0.000000000000e+00
0.000000000000e+00 0.000000000000e+00 0.000000000000e+00
0.000000000000e+00 0.000000000000e+00 0.000000000000e+00
0.000000000000e+00 0.000000000000e+00 0.000000000000e+00
0.000000000000e+00 0.000000000000e+00 0.000000000000e+00
0.000000000000e+00 0.000000000000e+00 0.000000000000e+00
0.000000000000e+00 0.000000000000e+00 0.000000000000e+00
0.000000000000e+00 0.000000000000e+00 0.000000000000e+00
0.000000000000e+00 0.000000000000e+00 0.000000000000e+00
0.000000000000e+00 0.000000000000e+00 0.000000000000e+00
0.000000000000e+00 0.000000000000e+00 0.000000000000e+00
0.000000000000e+00 0.000000000000e+00 0.000000000000e+00
0.000000000000e+00 0.000000000000e+00 0.000000000000e+00
0.000000000000e+00 0.000000000000e+00 0.000000000000e+00
0.000000000000e+00 0.000000000000e+00 0.000000000000e+00
0.000000000000e+00 0.000000000000e+00 0.000000000000e+00
0.000000000000e+00 0.000000000000e+00 0.000000000000e+00
0.000000000000e+00 0.000000000000e+00 0.000000000000e+00
0.000000000000e+00 0.000000000000e+00 0.000000000000e+00
0.000000000000e+00 0.000000000000e+00 0.000000000000e+00
0.000000000000e+00 0.000000000000e+00 0.000000000000e+00
0.000000000000e+00 0.000000000000e+00 0.000000000000e+00
0.000000000000e+00 0.000000000000e+00 0.000000000000e+00
0.000000000000e+00 0.000000000000e+00 0.000000000000e+00
0.000000000000e+00 0.000000000000e+00 0.000000000000e+00
0.000000000000e+00 0.000000000000e+00 0.000000000000e+00
0.000000000000e+00 0.000000000000e+00 0.000000000000e+00
0.000000000000e+00 0.000000000000e+00 0.000000000000e+00
0.000000000000e+00 0.000000000000e+00 0.000000000000e+00
0.000000000000e+00 0.000000000000e+00 0.000000000000e+00
0.000000000000e+00 0.000000000000e+00 0.000000000000e+00
0.000000000000e+00 0.000000000000e+00 0.000000000000e+00
0.000000000000e+00 0.000000000000e+00 0.000000000000e+00
0.000000000000e+00 0.000000000000e+00 0.000000000000e+00
0.000000000000e+00 0.000000000000e+00 0.000000000000e+00
0.000000000000e+00 0.000000000000e+00 0.000000000000e+00
0.000000000000e+00 0.000000000000e+00 0.000000000000e+00
0.000000000000e+00 0.000000000000e+00 0.000000000000e+00
0.000000000000e+00 0.000000000000e+00 0.000000000000e+00
0.000000000000e+00 0.000000000000e+00 0.000000000000e+00
0.000000000000e+00 0.000000000000e+00 0.000000000000e+00
0.000000000000e+00 0.000000000000e+00 0.000000000000e+00
0.000000000000e+00 0.000000000000e+00 0.000000000000e+00
0.000000000000e+00 0.000000000000e+00 0.000000000000e+00
0.000000000000e+00 0.000000000000e+00 0.000000000000e+00
0.000000000000e+00 0.000000000000e+00 0.000000000000e+00
0.000000000000e+00 0.000000000000e+00 0.000000000000e+00
0.000000000000e+00 0.000000000000e+00 0.000000000000e+00
0.000000000000e+00 0.000000000000e+00 0.000000000000e+00
0.000000000000e+00 0.000000000000e+00 0.000000000000e+00
0.000000000000e+00 0.000000000000e+00 0.000000000000e+00
0.000000000000e+00 0.000000000000e+00 0.000000000000e+00
0.000000000000e+00 0.000000000000e+00 0.000000000000e+00
0.000000000000e+00 0.000000000000e+00 0.000000000000e+00
0.000000000000e+00 0.000000000000e+00 0.000000000000e+00
0.000000000000e+00 0.000000000000e+00 0.000000000000e+00
0.000000000000e+00 0.000000000000e+00 0.000000000000e+00
0.000000000000e+00 0.000000000000e+00 0.000000000000e+00
0.000000000000e+00 0.000000000000e+00 0.000000000000e+00
0.000000000000e+00 0.000000000000e+00 0.000000000000e+00
0.000000000000e+00 0.000000000000e+00 0.000000000000e+00
0.000000000000e+00 0.000000000000e+00 0.000000000000e+00
0.000000000000e+00 0.000000000000e+00 0.000000000000e+00
0.000000000000e+00 0.000000000000e+00 0.000000000000e+00
0.000000000000e+00 0.000000000000e+00 0.000000000000e+00
0.000000000000e+00 0.000000000000e+00 0.000000000000e+00
0.000000000000e+00 0.000000000000e+00 0.000000000000e+00
0.000000000000e+00 0.000000000000e+00 0.000000000000e+00
0.000000000000e+00 0.000000000000e+00 0.000000000000e+00
0.000000000000e+00 0.000000000000e+00 0.000000000000e+00
0.000000000000e+00 0.000000000000e+00 0.000000000000e+00
0.000000000000e+00 0.000000000000e+00 0.000000000000e+00
0.000000000000e+00 0.000000000000e+00 0.000000000000e+00
0.000000000000e+00 0.000000000000e+00 0.000000000000e+00
0.000000000000e+00 0.000000000000e+00 0.000000000000e+00
0.000000000000e+00 0.000000000000e+00 0.000000000000e+00
0.000000000000e+00 0.000000000000e+00 0.000000000000e+00
0.000000000000e+00 0.000000000000e+00 0.000000000000e+00
0.000000000000e+00 0.000000000000e+00 0.000000000000e+00
0.000000000000e+00 0.000000000000e+00 0.000000000000e+00
0.000000000000e+00 0.000000000000e+00 0.000000000000e+00
0.000000000000e+00 0.000000000000e+00 0.000000000000e+00
0.000000000000e+00 0.000000000000e+00 0.000000000000e+00
-1.720443375699e-06 -1.720443454716e-06 -1.505008078754e-02
-8.777912171254e-07 -1.728589378149e-06 -1.505069388303e-02
3.465670705755e-14 -1.735976871941e-06 -1.505091466069e-02
8.777912864345e-07 -1.728589376149e-06 -1.505069388303e-02
1.720443445000e-06 -1.720443450719e-06 -1.505008078754e-02
-1.728589301139e-06 -8.777912961495e-07 -1.505069388303e-02
-8.806400778188e-07 -8.806401548369e-07 -1.505131210931e-02
3.366006992896e-14 -8.884290216894e-07 -1.505153540450e-02
8.806401451359e-07 -8.806401528365e-07 -1.505131210931e-02
1.728589368450e-06 -8.777912921494e-07 -1.505069388303e-02
-1.735976796922e-06 -4.436584585707e-14 -1.505091466069e-02
-8.884289466702e-07 -4.336216499787e-14 -1.505153540450e-02
3.266367616988e-14 -4.235495497839e-14 -1.505176066116e-02
8.884290120028e-07 -4.135673378316e-14 -1.505153540450e-02
1.735976862260e-06 -4.035947294983e-14 -1.505091466069e-02
-1.728589303136e-06 8.777912074181e-07 -1.505069388303e-02
-8.806400798106e-07 8.806400681177e-07 -1.505131210931e-02
3.166679859574e-14 8.884289369871e-07 -1.505153540450e-02
8.806401431501e-07 8.806400701368e-07 -1.505131210931e-02
1.728589366468e-06 8.777912114366e-07 -1.505069388303e-02
-1.720443379672e-06 1.720443365986e-06 -1.505008078754e-02
-8.777912211113e-07 1.728589291452e-06 -1.505069388303e-02
3.066761760537e-14 1.735976787242e-06 -1.505091466069e-02
8.777912824533e-07 1.728589293465e-06 -1.505069388303e-02
1.720443441024e-06 1.720443370018e-06 -1.505008078754e-02
-1.319169770980e-06 -1.319169849972e-06 -1.505146759324e-02
-6.516116822217e-07 -1.327536163103e-06 -1.505210015161e-02
3.464401492456e-14 -1.336810420033e-06 -1.505232326808e-02
6.516117515106e-07 -1.327536161106e-06 -1.505210015161e-02
1.319169840267e-06 -1.319169845983e-06 -1.505146759324e-02
-1.327536086121e-06 -6.516117612089e-07 -1.505210015161e-02
-6.527513871687e-07 -6.527514641563e-07 -1.505273768036e-02
3.364678569979e-14 -6.596223366295e-07 -1.505296363062e-02
6.527514544654e-07 -6.527514621562e-07 -1.505273768036e-02
1.327536153418e-06 -6.516117572139e-07 -1.505210015161e-02
-1.336810345055e-06 -4.434115438906e-14 -1.505232326808e-02
-6.596222616482e-07 -4.333418985649e-14 -1.505296363062e-02
3.265047328280e-14 -4.233285337382e-14 -1.505319329686e-02
6.596223269532e-07 -4.133055149709e-14 -1.505296363062e-02
1.336810410360e-06 -4.033741427960e-14 -1.505232326808e-02
-1.327536088119e-06 6.516116725344e-07 -1.505210015161e-02
-6.527513891679e-07 6.527513774844e-07 -1.505273768036e-02
3.165175324657e-14 6.596222519714e-07 -1.505296363062e-02
6.527514524749e-07 6.527513794960e-07 -1.505273768036e-02
1.327536151425e-06 6.516116765426e-07 -1.505210015161e-02
-1.319169774983e-06 1.319169761302e-06 -1.505146759324e-02
-6.516116862213e-07 1.327536076435e-06 -1.505210015161e-02
3.065240599120e-14 1.336810335382e-06 -1.505232326808e-02
6.516117475224e-07 1.327536078446e-06 -1.505210015161e-02
1.319169836289e-06 1.319169765316e-06 -1.505146759324e-02
-8.562764374654e-07 -8.562765164183e-07 -1.505243915970e-02
-4.233684587716e-07 -8.596795410023e-07 -1.505307757355e-02
3.463282000021e-14 -8.689364592435e-07 -1.505329669857e-02
4.233685280386e-07 -8.596795390101e-07 -1.505307757355e-02
8.562765067305e-07 -8.562765124328e-07 -1.505243915970e-02
-8.596794640523e-07 -4.233685377251e-07 -1.505307757355e-02
-4.243367353374e-07 -4.243368122813e-07 -1.505371986627e-02
3.363279245715e-14 -4.313004044132e-07 -1.505394136795e-02
4.243368026107e-07 -4.243368102883e-07 -1.505371986627e-02
8.596795313330e-07 -4.233685337316e-07 -1.505307757355e-02
-8.689363843014e-07 -4.431730584490e-14 -1.505329669857e-02
-4.313003294714e-07 -4.331024154006e-14 -1.505394136795e-02
3.263555403075e-14 -4.230906947949e-14 -1.505416767015e-02
4.313003947449e-07 -4.130883045562e-14 -1.505394136795e-02
8.689364495763e-07 -4.031473928197e-14 -1.505329669857e-02
-8.596794660604e-07 4.233684490980e-07 -1.505307757355e-02
-4.243367373413e-07 4.243367256638e-07 -1.505371986627e-02
3.163456021499e-14 4.313003198010e-07 -1.505394136795e-02
4.243368006148e-07 4.243367276692e-07 -1.505371986627e-02
8.596795293329e-07 4.233684531033e-07 -1.505307757355e-02
-8.562764414771e-07 8.562764277958e-07 -1.505243915970e-02
-4.233684627803e-07 8.596794543857e-07 -1.505307757355e-02
3.063226712687e-14 8.689363746315e-07 -1.505329669857e-02
4.233685240465e-07 8.596794563890e-07 -1.505307757355e-02
8.562765027454e-07 8.562764318070e-07 -1.505243915970e-02
-4.123098485285e-07 -4.123099274454e-07 -1.505301984104e-02
-1.999866990460e-07 -4.147995502354e-07 -1.505364616028e-02
3.462293922403e-14 -4.277422979171e-07 -1.505386561500e-02
1.999867682962e-07 -4.147995482440e-07 -1.505364616028e-02
4.123099177838e-07 -4.123099234583e-07 -1.505301984104e-02
-4.147994733232e-07 -1.999867779610e-07 -1.505364616028e-02
-2.008375275182e-07 -2.008376044276e-07 -1.505427363907e-02
3.362305995812e-14 -2.089894713416e-07 -1.505449540395e-02
2.008375947721e-07 -2.008376024350e-07 -1.505427363907e-02
4.147995405836e-07 -1.999867739696e-07 -1.505364616028e-02
-4.277422230157e-07 -4.429039632321e-14 -1.505386561500e-02
-2.089893964384e-07 -4.328580160815e-14 -1.505449540395e-02
3.262221640960e-14 -4.228593498886e-14 -1.505472336631e-02
2.089894616860e-07 -4.128863628546e-14 -1.505449540395e-02
4.277422882661e-07 -4.029021392685e-14 -1.505386561500e-02
-4.147994753406e-07 1.999866893868e-07 -1.505364616028e-02
-2.008375295298e-07 2.008375178598e-07 -1.505427363907e-02
3.161995572552e-14 2.089893867754e-07 -1.505449540395e-02
2.008375927718e-07 2.008375198578e-07 -1.505427363907e-02
4.147995385869e-07 1.999866933892e-07 -1.505364616028e-02
-4.123098525512e-07 4.123098388730e-07 -1.505301984104e-02
-1.999867030610e-07 4.147994636711e-07 -1.505364616028e-02
3.061780034132e-14 4.277422133482e-07 -1.505386561500e-02
1.999867642989e-07 4.147994656689e-07 -1.505364616028e-02
4.123099137914e-07 4.123098428760e-07 -1.505301984104e-02
-3.071606508778e-08 -3.071614396808e-08 -1.505323174273e-02
1.964244854815e-08 -3.884259959882e-08 -1.505384410823e-02
3.461200577334e-14 -5.768287742608e-08 -1.505406016824e-02
-1.964237931565e-08 -3.884259760294e-08 -1.505384410823e-02
3.071613432807e-08 -3.071613998476e-08 -1.505323174273e-02
-3.884252272144e-08 1.964236967058e-08 -1.505384410823e-02
1.961406693385e-08 1.961399006292e-08 -1.505445474555e-02
3.361585934827e-14 1.174011780125e-08 -1.505467233373e-02
-1.961399969809e-08 1.961399205559e-08 -1.505445474555e-02
3.884258996349e-08 1.964237365709e-08 -1.505384410823e-02
-5.768280256514e-08 -4.425862764664e-14 -1.505406016824e-02
1.174019266396e-08 -4.325210103112e-14 -1.505467233373e-02
3.261423847356e-14 -4.225621306316e-14 -1.505489628703e-02
-1.174012744501e-08 -4.126276078814e-14 -1.505467233373e-02
5.768286777697e-08 -4.026697888453e-14 -1.505406016824e-02
-3.884252475082e-08 -1.964245818773e-08 -1.505384410823e-02
1.961406491536e-08 -1.961407657755e-08 -1.505445474555e-02
3.160676082514e-14 -1.174020232649e-08 -1.505467233373e-02
-1.961400170479e-08 -1.961407458651e-08 -1.505445474555e-02
3.884258795750e-08 -1.964245419389e-08 -1.505384410823e-02
-3.071606913188e-08 3.071605545329e-08 -1.505323174273e-02
1.964244451824e-08 3.884251307630e-08 -1.505384410823e-02
3.060350721226e-14 5.768279287831e-08 -1.505406016824e-02
-1.964238331375e-08 3.884251506416e-08 -1.505384410823e-02
3.071613033766e-08 3.071605944281e-08 -1.505323174273e-02
SCALARS displacement_magnitude float 1
LOOKUP_TABLE default
0.000000000000e+00
0.000000000000e+00
0.000000000000e+00
0.000000000000e+00
0.000000000000e+00
0.000000000000e+00
0.000000000000e+00
0.000000000000e+00
0.000000000000e+00
0.000000000000e+00
0.000000000000e+00
0.000000000000e+00
0.000000000000e+00
0.000000000000e+00
0.000000000000e+00
0.000000000000e+00
0.000000000000e+00
0.000000000000e+00
0.000000000000e+00
0.000000000000e+00
0.000000000000e+00
0.000000000000e+00
0.000000000000e+00
0.000000000000e+00
0.000000000000e+00
0.000000000000e+00
0.000000000000e+00
0.000000000000e+00
0.000000000000e+00
0.000000000000e+00
0.000000000000e+00
0.000000000000e+00
0.000000000000e+00
0.000000000000e+00
0.000000000000e+00
0.000000000000e+00
0.000000000000e+00
0.000000000000e+00
0.000000000000e+00
0.000000000000e+00
0.000000000000e+00
0.000000000000e+00
0.000000000000e+00
0.000000000000e+00
0.000000000000e+00
0.000000000000e+00
0.000000000000e+00
0.000000000000e+00
0.000000000000e+00
0.000000000000e+00
0.000000000000e+00
0.000000000000e+00
0.000000000000e+00
0.000000000000e+00
0.000000000000e+00
0.000000000000e+00
0.000000000000e+00
0.000000000000e+00
0.000000000000e+00
0.000000000000e+00
0.000000000000e+00
0.000000000000e+00
0.000000000000e+00
0.000000000000e+00
0.000000000000e+00
0.000000000000e+00
0.000000000000e+00
0.000000000000e+00
0.000000000000e+00
0.000000000000e+00
0.000000000000e+00
0.000000000000e+00
0.000000000000e+00
0.000000000000e+00
0.000000000000e+00
0.000000000000e+00
0.000000000000e+00
0.000000000000e+00
0.000000000000e+00
0.000000000000e+00
0.000000000000e+00
0.000000000000e+00
0.000000000000e+00
0.000000000000e+00
0.000000000000e+00
0.000000000000e+00
0.000000000000e+00
0.000000000000e+00
0.000000000000e+00
0.000000000000e+00
0.000000000000e+00
0.000000000000e+00
0.000000000000e+00
0.000000000000e+00
0.000000000000e+00
0.000000000000e+00
0.000000000000e+00
0.000000000000e+00
0.000000000000e+00
0.000000000000e+00
0.000000000000e+00
0.000000000000e+00
0.000000000000e+00
0.000000000000e+00
0.000000000000e+00
0.000000000000e+00
0.000000000000e+00
0.000000000000e+00
0.000000000000e+00
0.000000000000e+00
0.000000000000e+00
0.000000000000e+00
0.000000000000e+00
0.000000000000e+00
0.000000000000e+00
0.000000000000e+00
0.000000000000e+00
0.000000000000e+00
0.000000000000e+00
0.000000000000e+00
0.000000000000e+00
0.000000000000e+00
0.000000000000e+00
0.000000000000e+00
0.000000000000e+00
1.505008098421e-02
1.505069400789e-02
1.505091476080e-02
1.505069400789e-02
1.505008098421e-02
1.505069400789e-02
1.505131216083e-02
1.505153543072e-02
1.505131216083e-02
1.505069400789e-02
1.505091476080e-02
1.505153543072e-02
1.505176066116e-02
1.505153543072e-02
1.505091476080e-02
1.505069400789e-02
1.505131216083e-02
1.505153543072e-02
1.505131216083e-02
1.505069400789e-02
1.505008098421e-02
1.505069400789e-02
1.505091476080e-02
1.505069400789e-02
1.505008098421e-02
1.505146770886e-02
1.505210022425e-02
1.505232332744e-02
1.505210022425e-02
1.505146770886e-02
1.505210022425e-02
1.505273770866e-02
1.505296364507e-02
1.505273770866e-02
1.505210022425e-02
1.505232332744e-02
1.505296364507e-02
1.505319329686e-02
1.505296364507e-02
1.505232332744e-02
1.505210022425e-02
1.505273770866e-02
1.505296364507e-02
1.505273770866e-02
1.505210022425e-02
1.505146770886e-02
1.505210022425e-02
1.505232332744e-02
1.505210022425e-02
1.505146770886e-02
1.505243920841e-02
1.505307760405e-02
1.505329672364e-02
1.505307760405e-02
1.505243920841e-02
1.505307760405e-02
1.505371987823e-02
1.505394137413e-02
1.505371987823e-02
1.505307760405e-02
1.505329672365e-02
1.505394137413e-02
1.505416767015e-02
1.505394137413e-02
1.505329672364e-02
1.505307760405e-02
1.505371987823e-02
1.505394137413e-02
1.505371987823e-02
1.505307760405e-02
1.505243920841e-02
1.505307760405e-02
1.505329672365e-02
1.505307760405e-02
1.505243920841e-02
1.505301985234e-02
1.505364616732e-02
1.505386562108e-02
1.505364616732e-02
1.505301985234e-02
1.505364616732e-02
1.505427364175e-02
1.505449540540e-02
1.505427364175e-02
1.505364616732e-02
1.505386562108e-02
1.505449540540e-02
1.505472336631e-02
1.505449540540e-02
1.505386562108e-02
1.505364616732e-02
1.505427364175e-02
1.505449540540e-02
1.505427364175e-02
1.505364616732e-02
1.505301985234e-02
1.505364616732e-02
1.505386562108e-02
1.505364616732e-02
1.505301985234e-02
1.505323174279e-02
1.505384410829e-02
1.505406016835e-02
1.505384410829e-02
1.505323174279e-02
1.505384410829e-02
1.505445474557e-02
1.505467233374e-02
1.505445474557e-02
1.505384410829e-02
1.505406016835e-02
1.505467233374e-02
1.505489628703e-02
1.505467233374e-02
1.505406016835e-02
1.505384410829e-02
1.505445474557e-02
1.505467233374e-02
1.505445474557e-02
1.505384410829e-02
1.505323174279e-02
1.505384410829e-02
1.505406016835e-02
1.505384410829e-02
1.505323174279e-02
CELL_DATA 128
SCALARS displacement_magnitude float 1
LOOKUP_TABLE default
0.000000000000e+00
0.000000000000e+00
0.000000000000e+00
0.000000000000e+00
0.000000000000e+00
0.000000000000e+00
0.000000000000e+00
0.000000000000e+00
0.000000000000e+00
0.000000000000e+00
0.000000000000e+00
0.000000000000e+00
0.000000000000e+00
0.000000000000e+00
0.000000000000e+00
0.000000000000e+00
0.000000000000e+00
0.000000000000e+00
0.000000000000e+00
0.000000000000e+00
0.000000000000e+00
0.000000000000e+00
0.000000000000e+00
0.000000000000e+00
0.000000000000e+00
0.000000000000e+00
0.000000000000e+00
0.000000000000e+00
0.000000000000e+00
0.000000000000e+00
0.000000000000e+00
0.000000000000e+00
0.000000000000e+00
0.000000000000e+00
0.000000000000e+00
0.000000000000e+00
0.000000000000e+00
0.000000000000e+00
0.000000000000e+00
0.000000000000e+00
0.000000000000e+00
0.000000000000e+00
0.000000000000e+00
0.000000000000e+00
0.000000000000e+00
0.000000000000e+00
0.000000000000e+00
0.000000000000e+00
0.000000000000e+00
0.000000000000e+00
0.000000000000e+00
0.000000000000e+00
0.000000000000e+00
0.000000000000e+00
0.000000000000e+00
0.000000000000e+00
0.000000000000e+00
0.000000000000e+00
0.000000000000e+00
0.000000000000e+00
0.000000000000e+00
0.000000000000e+00
0.000000000000e+00
0.000000000000e+00
1.505139837836e-02
1.505182265821e-02
1.505182265821e-02
1.505139837836e-02
1.505182265821e-02
1.505225024739e-02
1.505225024739e-02
1.505182265821e-02
1.505182265821e-02
1.505225024739e-02
1.505225024739e-02
1.505182265821e-02
1.505139837836e-02
1.505182265821e-02
1.505182265821e-02
1.505139837836e-02
1.505259002010e-02
1.505302006069e-02
1.505302006069e-02
1.505259002010e-02
1.505302006069e-02
1.505345357404e-02
1.505345357404e-02
1.505302006069e-02
1.505302006069e-02
1.505345357404e-02
1.505345357404e-02
1.505302006069e-02
1.505259002010e-02
1.505302006069e-02
1.505302006069e-02
1.505259002010e-02
1.505336251543e-02
1.505378955195e-02
1.505378955195e-02
1.505336251543e-02
1.505378955195e-02
1.505421976444e-02
1.505421976444e-02
1.505378955195e-02
1.505378955195e-02
1.505421976444e-02
1.505421976444e-02
1.505378955195e-02
1.505336251543e-02
1.505378955195e-02
1.505378955195e-02
1.505336251543e-02
1.505374506671e-02
1.505416402394e-02
1.505416402394e-02
1.505374506671e-02
1.505416402394e-02
1.505458543987e-02
1.505458543987e-02
1.505416402394e-02
1.505416402394e-02
1.505458543987e-02
1.505458543987e-02
1.505416402394e-02
1.505374506671e-02
1.505416402394e-02
1.505416402394e-02
1.505374506671e-02
SCALARS engineering_strain_norm float 1
LOOKUP_TABLE default
0.000000000000e+00
0.000000000000e+00
0.000000000000e+00
0.000000000000e+00
0.000000000000e+00
0.000000000000e+00
0.000000000000e+00
0.000000000000e+00
0.000000000000e+00
0.000000000000e+00
0.000000000000e+00
0.000000000000e+00
0.000000000000e+00
0.000000000000e+00
0.000000000000e+00
0.000000000000e+00
0.000000000000e+00
0.000000000000e+00
0.000000000000e+00
0.000000000000e+00
0.000000000000e+00
0.000000000000e+00
0.000000000000e+00
0.000000000000e+00
0.000000000000e+00
0.000000000000e+00
0.000000000000e+00
0.000000000000e+00
0.000000000000e+00
0.000000000000e+00
0.000000000000e+00
0.000000000000e+00
0.000000000000e+00
0.000000000000e+00
0.000000000000e+00
0.000000000000e+00
0.000000000000e+00
0.000000000000e+00
0.000000000000e+00
0.000000000000e+00
0.000000000000e+00
0.000000000000e+00
0.000000000000e+00
0.000000000000e+00
0.000000000000e+00
0.000000000000e+00
0.000000000000e+00
0.000000000000e+00
0.000000000000e+00
0.000000000000e+00
0.000000000000e+00
0.000000000000e+00
0.000000000000e+00
0.000000000000e+00
0.000000000000e+00
0.000000000000e+00
0.000000000000e+00
0.000000000000e+00
0.000000000000e+00
0.000000000000e+00
0.000000000000e+00
0.000000000000e+00
0.000000000000e+00
0.000000000000e+00
2.327438815086e-05
2.345357898709e-05
2.345357898711e-05
2.327438815083e-05
2.345357898721e-05
2.364461213182e-05
2.364461213187e-05
2.345357898722e-05
2.345357898727e-05
2.364461213186e-05
2.364461213189e-05
2.345357898726e-05
2.327438815097e-05
2.345357898725e-05
2.345357898724e-05
2.327438815098e-05
1.628495959076e-05
1.626740992408e-05
1.626740992407e-05
1.628495959080e-05
1.626740992411e-05
1.624810538106e-05
1.624810538110e-05
1.626740992418e-05
1.626740992414e-05
1.624810538108e-05
1.624810538115e-05
1.626740992417e-05
1.628495959082e-05
1.626740992412e-05
1.626740992414e-05
1.628495959085e-05
9.473783463646e-06
9.361691245308e-06
9.361691245314e-06
9.473783463689e-06
9.361691245295e-06
9.250496506578e-06
9.250496506724e-06
9.361691245423e-06
9.361691245414e-06
9.250496506749e-06
9.250496506712e-06
9.361691245371e-06
9.473783463773e-06
9.361691245390e-06
9.361691245362e-06
9.473783463739e-06
3.426469784911e-06
3.206384755557e-06
3.206384755602e-06
3.426469784972e-06
3.206384755631e-06
2.928737460558e-06
2.928737460596e-06
3.206384755623e-06
3.206384755620e-06
2.928737460594e-06
2.928737460604e-06
3.206384755659e-06
3.426469784959e-06
3.206384755561e-06
3.206384755581e-06
3.426469784990e-06
SCALARS von_mises float 1
LOOKUP_TABLE default
0.000000000000e+00
0.000000000000e+00
0.000000000000e+00
0.000000000000e+00
0.000000000000e+00
0.000000000000e+00
0.000000000000e+00
0.000000000000e+00
0.000000000000e+00
0.000000000000e+00
0.000000000000e+00
0.000000000000e+00
0.000000000000e+00
0.000000000000e+00
0.000000000000e+00
0.000000000000e+00
0.000000000000e+00
0.000000000000e+00
0.000000000000e+00
0.000000000000e+00
0.000000000000e+00
0.000000000000e+00
0.000000000000e+00
0.000000000000e+00
0.000000000000e+00
0.000000000000e+00
0.000000000000e+00
0.000000000000e+00
0.000000000000e+00
0.000000000000e+00
0.000000000000e+00
0.000000000000e+00
0.000000000000e+00
0.000000000000e+00
0.000000000000e+00
0.000000000000e+00
0.000000000000e+00
0.000000000000e+00
0.000000000000e+00
0.000000000000e+00
0.000000000000e+00
0.000000000000e+00
0.000000000000e+00
0.000000000000e+00
0.000000000000e+00
0.000000000000e+00
0.000000000000e+00
0.000000000000e+00
0.000000000000e+00
0.000000000000e+00
0.000000000000e+00
0.000000000000e+00
0.000000000000e+00
0.000000000000e+00
0.000000000000e+00
0.000000000000e+00
0.000000000000e+00
0.000000000000e+00
0.000000000000e+00
0.000000000000e+00
0.000000000000e+00
0.000000000000e+00
0.000000000000e+00
0.000000000000e+00
2.130850077171e+00
2.147191434850e+00
2.147191434851e+00
2.130850077169e+00
2.147191434860e+00
2.164804660304e+00
2.164804660308e+00
2.147191434862e+00
2.147191434865e+00
2.164804660308e+00
2.164804660312e+00
2.147191434866e+00
2.130850077181e+00
2.147191434864e+00
2.147191434864e+00
2.130850077182e+00
1.496648498280e+00
1.493843302417e+00
1.493843302417e+00
1.496648498283e+00
1.493843302420e+00
1.490958647362e+00
1.490958647366e+00
1.493843302427e+00
1.493843302423e+00
1.490958647364e+00
1.490958647371e+00
1.493843302426e+00
1.496648498285e+00
1.493843302421e+00
1.493843302423e+00
1.496648498289e+00
8.712647830008e-01
8.608298762705e-01
8.608298762718e-01
8.712647830053e-01
8.608298762694e-01
8.508072524627e-01
8.508072524760e-01
8.608298762816e-01
8.608298762803e-01
8.508072524780e-01
8.508072524755e-01
8.608298762773e-01
8.712647830123e-01
8.608298762784e-01
8.608298762764e-01
8.712647830099e-01
3.174325930837e-01
2.954498746729e-01
2.954498746771e-01
3.174325930895e-01
2.954498746792e-01
2.678162942612e-01
2.678162942648e-01
2.954498746787e-01
2.954498746788e-01
2.678162942645e-01
2.678162942652e-01
2.954498746815e-01
3.174325930888e-01
2.954498746731e-01
2.954498746745e-01
3.174325930910e-01
SCALARS sdf_gap float 1
LOOKUP_TABLE default
0.000000000000e+00
0.000000000000e+00
0.000000000000e+00
0.000000000000e+00
0.000000000000e+00
0.000000000000e+00
0.000000000000e+00
0.000000000000e+00
0.000000000000e+00
0.000000000000e+00
0.000000000000e+00
0.000000000000e+00
0.000000000000e+00
0.000000000000e+00
0.000000000000e+00
0.000000000000e+00
0.000000000000e+00
0.000000000000e+00
0.000000000000e+00
0.000000000000e+00
0.000000000000e+00
0.000000000000e+00
0.000000000000e+00
0.000000000000e+00
0.000000000000e+00
0.000000000000e+00
0.000000000000e+00
0.000000000000e+00
0.000000000000e+00
0.000000000000e+00
0.000000000000e+00
0.000000000000e+00
0.000000000000e+00
0.000000000000e+00
0.000000000000e+00
0.000000000000e+00
0.000000000000e+00
0.000000000000e+00
0.000000000000e+00
0.000000000000e+00
0.000000000000e+00
0.000000000000e+00
0.000000000000e+00
0.000000000000e+00
0.000000000000e+00
0.000000000000e+00
0.000000000000e+00
0.000000000000e+00
0.000000000000e+00
0.000000000000e+00
0.000000000000e+00
0.000000000000e+00
0.000000000000e+00
0.000000000000e+00
0.000000000000e+00
0.000000000000e+00
0.000000000000e+00
0.000000000000e+00
0.000000000000e+00
0.000000000000e+00
0.000000000000e+00
0.000000000000e+00
0.000000000000e+00
0.000000000000e+00
-5.069516572642e-05
-5.111401438252e-05
-5.111401438251e-05
-5.069516572633e-05
-5.111401438259e-05
-5.153589486895e-05
-5.153589486891e-05
-5.111401438251e-05
-5.111401438264e-05
-5.153589486900e-05
-5.153589486899e-05
-5.111401438255e-05
-5.069516572657e-05
-5.111401438265e-05
-5.111401438264e-05
-5.069516572647e-05
0.000000000000e+00
0.000000000000e+00
0.000000000000e+00
0.000000000000e+00
0.000000000000e+00
0.000000000000e+00
0.000000000000e+00
0.000000000000e+00
0.000000000000e+00
0.000000000000e+00
0.000000000000e+00
0.000000000000e+00
0.000000000000e+00
0.000000000000e+00
0.000000000000e+00
0.000000000000e+00
0.000000000000e+00
0.000000000000e+00
0.000000000000e+00
0.000000000000e+00
0.000000000000e+00
0.000000000000e+00
0.000000000000e+00
0.000000000000e+00
0.000000000000e+00
0.000000000000e+00
0.000000000000e+00
0.000000000000e+00
0.000000000000e+00
0.000000000000e+00
0.000000000000e+00
0.000000000000e+00
0.000000000000e+00
0.000000000000e+00
0.000000000000e+00
0.000000000000e+00
0.000000000000e+00
0.000000000000e+00
0.000000000000e+00
0.000000000000e+00
0.000000000000e+00
0.000000000000e+00
0.000000000000e+00
0.000000000000e+00
0.000000000000e+00
0.000000000000e+00
0.000000000000e+00
0.000000000000e+00
SCALARS contact_pressure float 1
LOOKUP_TABLE default
0.000000000000e+00
0.000000000000e+00
0.000000000000e+00
0.000000000000e+00
0.000000000000e+00
0.000000000000e+00
0.000000000000e+00
0.000000000000e+00
0.000000000000e+00
0.000000000000e+00
0.000000000000e+00
0.000000000000e+00
0.000000000000e+00
0.000000000000e+00
0.000000000000e+00
0.000000000000e+00
0.000000000000e+00
0.000000000000e+00
0.000000000000e+00
0.000000000000e+00
0.000000000000e+00
0.000000000000e+00
0.000000000000e+00
0.000000000000e+00
0.000000000000e+00
0.000000000000e+00
0.000000000000e+00
0.000000000000e+00
0.000000000000e+00
0.000000000000e+00
0.000000000000e+00
0.000000000000e+00
0.000000000000e+00
0.000000000000e+00
0.000000000000e+00
0.000000000000e+00
0.000000000000e+00
0.000000000000e+00
0.000000000000e+00
0.000000000000e+00
0.000000000000e+00
0.000000000000e+00
0.000000000000e+00
0.000000000000e+00
0.000000000000e+00
0.000000000000e+00
0.000000000000e+00
0.000000000000e+00
0.000000000000e+00
0.000000000000e+00
0.000000000000e+00
0.000000000000e+00
0.000000000000e+00
0.000000000000e+00
0.000000000000e+00
0.000000000000e+00
0.000000000000e+00
0.000000000000e+00
0.000000000000e+00
0.000000000000e+00
0.000000000000e+00
0.000000000000e+00
0.000000000000e+00
0.000000000000e+00
2.534758286321e+00
2.555700719126e+00
2.555700719125e+00
2.534758286317e+00
2.555700719129e+00
2.576794743448e+00
2.576794743445e+00
2.555700719125e+00
2.555700719132e+00
2.576794743450e+00
2.576794743449e+00
2.555700719128e+00
2.534758286329e+00
2.555700719133e+00
2.555700719132e+00
2.534758286323e+00
0.000000000000e+00
0.000000000000e+00
0.000000000000e+00
0.000000000000e+00
0.000000000000e+00
0.000000000000e+00
0.000000000000e+00
0.000000000000e+00
0.000000000000e+00
0.000000000000e+00
0.000000000000e+00
0.000000000000e+00
0.000000000000e+00
0.000000000000e+00
0.000000000000e+00
0.000000000000e+00
0.000000000000e+00
0.000000000000e+00
0.000000000000e+00
0.000000000000e+00
0.000000000000e+00
0.000000000000e+00
0.000000000000e+00
0.000000000000e+00
0.000000000000e+00
0.000000000000e+00
0.000000000000e+00
0.000000000000e+00
0.000000000000e+00
0.000000000000e+00
0.000000000000e+00
0.000000000000e+00
0.000000000000e+00
0.000000000000e+00
0.000000000000e+00
0.000000000000e+00
0.000000000000e+00
0.000000000000e+00
0.000000000000e+00
0.000000000000e+00
0.000000000000e+00
0.000000000000e+00
0.000000000000e+00
0.000000000000e+00
0.000000000000e+00
0.000000000000e+00
0.000000000000e+00
0.000000000000e+00
SCALARS active_contact float 1
LOOKUP_TABLE default
0.000000000000e+00
0.000000000000e+00
0.000000000000e+00
0.000000000000e+00
0.000000000000e+00
0.000000000000e+00
0.000000000000e+00
0.000000000000e+00
0.000000000000e+00
0.000000000000e+00
0.000000000000e+00
0.000000000000e+00
0.000000000000e+00
0.000000000000e+00
0.000000000000e+00
0.000000000000e+00
0.000000000000e+00
0.000000000000e+00
0.000000000000e+00
0.000000000000e+00
0.000000000000e+00
0.000000000000e+00
0.000000000000e+00
0.000000000000e+00
0.000000000000e+00
0.000000000000e+00
0.000000000000e+00
0.000000000000e+00
0.000000000000e+00
0.000000000000e+00
0.000000000000e+00
0.000000000000e+00
0.000000000000e+00
0.000000000000e+00
0.000000000000e+00
0.000000000000e+00
0.000000000000e+00
0.000000000000e+00
0.000000000000e+00
0.000000000000e+00
0.000000000000e+00
0.000000000000e+00
0.000000000000e+00
0.000000000000e+00
0.000000000000e+00
0.000000000000e+00
0.000000000000e+00
0.000000000000e+00
0.000000000000e+00
0.000000000000e+00
0.000000000000e+00
0.000000000000e+00
0.000000000000e+00
0.000000000000e+00
0.000000000000e+00
0.000000000000e+00
0.000000000000e+00
0.000000000000e+00
0.000000000000e+00
0.000000000000e+00
0.000000000000e+00
0.000000000000e+00
0.000000000000e+00
0.000000000000e+00
1.000000000000e+00
1.000000000000e+00
1.000000000000e+00
1.000000000000e+00
1.000000000000e+00
1.000000000000e+00
1.000000000000e+00
1.000000000000e+00
1.000000000000e+00
1.000000000000e+00
1.000000000000e+00
1.000000000000e+00
1.000000000000e+00
1.000000000000e+00
1.000000000000e+00
1.000000000000e+00
0.000000000000e+00
0.000000000000e+00
0.000000000000e+00
0.000000000000e+00
0.000000000000e+00
0.000000000000e+00
0.000000000000e+00
0.000000000000e+00
0.000000000000e+00
0.000000000000e+00
0.000000000000e+00
0.000000000000e+00
0.000000000000e+00
0.000000000000e+00
0.000000000000e+00
0.000000000000e+00
0.000000000000e+00
0.000000000000e+00
0.000000000000e+00
0.000000000000e+00
0.000000000000e+00
0.000000000000e+00
0.000000000000e+00
0.000000000000e+00
0.000000000000e+00
0.000000000000e+00
0.000000000000e+00
0.000000000000e+00
0.000000000000e+00
0.000000000000e+00
0.000000000000e+00
0.000000000000e+00
0.000000000000e+00
0.000000000000e+00
0.000000000000e+00
0.000000000000e+00
0.000000000000e+00
0.000000000000e+00
0.000000000000e+00
0.000000000000e+00
0.000000000000e+00
0.000000000000e+00
0.000000000000e+00
0.000000000000e+00
0.000000000000e+00
0.000000000000e+00
0.000000000000e+00
0.000000000000e+00
