# vtk DataFile Version 3.0
SFC long-time C3D8 dynamic frame 14 t=2.800000000000e-01
ASCII
DATASET UNSTRUCTURED_GRID
POINTS 250 float
-2.500000000000e-01 -2.500000000000e-01 0.000000000000e+00
-1.250000000000e-01 -2.500000000000e-01 0.000000000000e+00
0.000000000000e+00 -2.500000000000e-01 0.000000000000e+00
1.250000000000e-01 -2.500000000000e-01 0.000000000000e+00
2.500000000000e-01 -2.500000000000e-01 0.000000000000e+00
-2.500000000000e-01 -1.250000000000e-01 0.000000000000e+00
-1.250000000000e-01 -1.250000000000e-01 0.000000000000e+00
0.000000000000e+00 -1.250000000000e-01 0.000000000000e+00
1.250000000000e-01 -1.250000000000e-01 0.000000000000e+00
2.500000000000e-01 -1.250000000000e-01 0.000000000000e+00
-2.500000000000e-01 0.000000000000e+00 0.000000000000e+00
-1.250000000000e-01 0.000000000000e+00 0.000000000000e+00
0.000000000000e+00 0.000000000000e+00 0.000000000000e+00
1.250000000000e-01 0.000000000000e+00 0.000000000000e+00
2.500000000000e-01 0.000000000000e+00 0.000000000000e+00
-2.500000000000e-01 1.250000000000e-01 0.000000000000e+00
-1.250000000000e-01 1.250000000000e-01 0.000000000000e+00
0.000000000000e+00 1.250000000000e-01 0.000000000000e+00
1.250000000000e-01 1.250000000000e-01 0.000000000000e+00
2.500000000000e-01 1.250000000000e-01 0.000000000000e+00
-2.500000000000e-01 2.500000000000e-01 0.000000000000e+00
-1.250000000000e-01 2.500000000000e-01 0.000000000000e+00
0.000000000000e+00 2.500000000000e-01 0.000000000000e+00
1.250000000000e-01 2.500000000000e-01 0.000000000000e+00
2.500000000000e-01 2.500000000000e-01 0.000000000000e+00
-2.500000000000e-01 -2.500000000000e-01 6.000000000000e-02
-1.250000000000e-01 -2.500000000000e-01 6.000000000000e-02
0.000000000000e+00 -2.500000000000e-01 6.000000000000e-02
1.250000000000e-01 -2.500000000000e-01 6.000000000000e-02
2.500000000000e-01 -2.500000000000e-01 6.000000000000e-02
-2.500000000000e-01 -1.250000000000e-01 6.000000000000e-02
-1.250000000000e-01 -1.250000000000e-01 6.000000000000e-02
0.000000000000e+00 -1.250000000000e-01 6.000000000000e-02
1.250000000000e-01 -1.250000000000e-01 6.000000000000e-02
2.500000000000e-01 -1.250000000000e-01 6.000000000000e-02
-2.500000000000e-01 0.000000000000e+00 6.000000000000e-02
-1.250000000000e-01 0.000000000000e+00 6.000000000000e-02
0.000000000000e+00 0.000000000000e+00 6.000000000000e-02
1.250000000000e-01 0.000000000000e+00 6.000000000000e-02
2.500000000000e-01 0.000000000000e+00 6.000000000000e-02
-2.500000000000e-01 1.250000000000e-01 6.000000000000e-02
-1.250000000000e-01 1.250000000000e-01 6.000000000000e-02
0.000000000000e+00 1.250000000000e-01 6.000000000000e-02
1.250000000000e-01 1.250000000000e-01 6.000000000000e-02
2.500000000000e-01 1.250000000000e-01 6.000000000000e-02
-2.500000000000e-01 2.500000000000e-01 6.000000000000e-02
-1.250000000000e-01 2.500000000000e-01 6.000000000000e-02
0.000000000000e+00 2.500000000000e-01 6.000000000000e-02
1.250000000000e-01 2.500000000000e-01 6.000000000000e-02
2.500000000000e-01 2.500000000000e-01 6.000000000000e-02
-2.500000000000e-01 -2.500000000000e-01 1.200000000000e-01
-1.250000000000e-01 -2.500000000000e-01 1.200000000000e-01
0.000000000000e+00 -2.500000000000e-01 1.200000000000e-01
1.250000000000e-01 -2.500000000000e-01 1.200000000000e-01
2.500000000000e-01 -2.500000000000e-01 1.200000000000e-01
-2.500000000000e-01 -1.250000000000e-01 1.200000000000e-01
-1.250000000000e-01 -1.250000000000e-01 1.200000000000e-01
0.000000000000e+00 -1.250000000000e-01 1.200000000000e-01
1.250000000000e-01 -1.250000000000e-01 1.200000000000e-01
2.500000000000e-01 -1.250000000000e-01 1.200000000000e-01
-2.500000000000e-01 0.000000000000e+00 1.200000000000e-01
-1.250000000000e-01 0.000000000000e+00 1.200000000000e-01
0.000000000000e+00 0.000000000000e+00 1.200000000000e-01
1.250000000000e-01 0.000000000000e+00 1.200000000000e-01
2.500000000000e-01 0.000000000000e+00 1.200000000000e-01
-2.500000000000e-01 1.250000000000e-01 1.200000000000e-01
-1.250000000000e-01 1.250000000000e-01 1.200000000000e-01
0.000000000000e+00 1.250000000000e-01 1.200000000000e-01
1.250000000000e-01 1.250000000000e-01 1.200000000000e-01
2.500000000000e-01 1.250000000000e-01 1.200000000000e-01
-2.500000000000e-01 2.500000000000e-01 1.200000000000e-01
-1.250000000000e-01 2.500000000000e-01 1.200000000000e-01
0.000000000000e+00 2.500000000000e-01 1.200000000000e-01
1.250000000000e-01 2.500000000000e-01 1.200000000000e-01
2.500000000000e-01 2.500000000000e-01 1.200000000000e-01
-2.500000000000e-01 -2.500000000000e-01 1.800000000000e-01
-1.250000000000e-01 -2.500000000000e-01 1.800000000000e-01
0.000000000000e+00 -2.500000000000e-01 1.800000000000e-01
1.250000000000e-01 -2.500000000000e-01 1.800000000000e-01
2.500000000000e-01 -2.500000000000e-01 1.800000000000e-01
-2.500000000000e-01 -1.250000000000e-01 1.800000000000e-01
-1.250000000000e-01 -1.250000000000e-01 1.800000000000e-01
0.000000000000e+00 -1.250000000000e-01 1.800000000000e-01
1.250000000000e-01 -1.250000000000e-01 1.800000000000e-01
2.500000000000e-01 -1.250000000000e-01 1.800000000000e-01
-2.500000000000e-01 0.000000000000e+00 1.800000000000e-01
-1.250000000000e-01 0.000000000000e+00 1.800000000000e-01
0.000000000000e+00 0.000000000000e+00 1.800000000000e-01
1.250000000000e-01 0.000000000000e+00 1.800000000000e-01
2.500000000000e-01 0.000000000000e+00 1.800000000000e-01
-2.500000000000e-01 1.250000000000e-01 1.800000000000e-01
-1.250000000000e-01 1.250000000000e-01 1.800000000000e-01
0.000000000000e+00 1.250000000000e-01 1.800000000000e-01
1.250000000000e-01 1.250000000000e-01 1.800000000000e-01
2.500000000000e-01 1.250000000000e-01 1.800000000000e-01
-2.500000000000e-01 2.500000000000e-01 1.800000000000e-01
-1.250000000000e-01 2.500000000000e-01 1.800000000000e-01
0.000000000000e+00 2.500000000000e-01 1.800000000000e-01
1.250000000000e-01 2.500000000000e-01 1.800000000000e-01
2.500000000000e-01 2.500000000000e-01 1.800000000000e-01
-2.500000000000e-01 -2.500000000000e-01 2.400000000000e-01
-1.250000000000e-01 -2.500000000000e-01 2.400000000000e-01
0.000000000000e+00 -2.500000000000e-01 2.400000000000e-01
1.250000000000e-01 -2.500000000000e-01 2.400000000000e-01
2.500000000000e-01 -2.500000000000e-01 2.400000000000e-01
-2.500000000000e-01 -1.250000000000e-01 2.400000000000e-01
-1.250000000000e-01 -1.250000000000e-01 2.400000000000e-01
0.000000000000e+00 -1.250000000000e-01 2.400000000000e-01
1.250000000000e-01 -1.250000000000e-01 2.400000000000e-01
2.500000000000e-01 -1.250000000000e-01 2.400000000000e-01
-2.500000000000e-01 0.000000000000e+00 2.400000000000e-01
-1.250000000000e-01 0.000000000000e+00 2.400000000000e-01
0.000000000000e+00 0.000000000000e+00 2.400000000000e-01
1.250000000000e-01 0.000000000000e+00 2.400000000000e-01
2.500000000000e-01 0.000000000000e+00 2.400000000000e-01
-2.500000000000e-01 1.250000000000e-01 2.400000000000e-01
-1.250000000000e-01 1.250000000000e-01 2.400000000000e-01
0.000000000000e+00 1.250000000000e-01 2.400000000000e-01
1.250000000000e-01 1.250000000000e-01 2.400000000000e-01
2.500000000000e-01 1.250000000000e-01 2.400000000000e-01
-2.500000000000e-01 2.500000000000e-01 2.400000000000e-01
-1.250000000000e-01 2.500000000000e-01 2.400000000000e-01
0.000000000000e+00 2.500000000000e-01 2.400000000000e-01
1.250000000000e-01 2.500000000000e-01 2.400000000000e-01
2.500000000000e-01 2.500000000000e-01 2.400000000000e-01
-2.500000000000e-01 -2.500000000000e-01 2.508855845781e-01
-1.250000000000e-01 -2.500000000000e-01 2.508855845781e-01
3.863252074351e-14 -2.500000000000e-01 2.508855845781e-01
1.250000000000e-01 -2.500000000000e-01 2.508855845782e-01
2.500000000000e-01 -2.500000000000e-01 2.508855845782e-01
-2.500000000000e-01 -1.250000000000e-01 2.508855845781e-01
-1.250000000000e-01 -1.250000000000e-01 2.508855845781e-01
4.027698860536e-14 -1.250000000000e-01 2.508855845781e-01
1.250000000000e-01 -1.250000000000e-01 2.508855845782e-01
2.500000000000e-01 -1.250000000000e-01 2.508855845782e-01
-2.500000000000e-01 -4.322915722279e-15 2.508855845781e-01
-1.250000000000e-01 -5.972113730386e-15 2.508855845781e-01
4.191775527958e-14 -7.624610123300e-15 2.508855845781e-01
1.250000000000e-01 -9.276747980148e-15 2.508855845782e-01
2.500000000000e-01 -1.092392189400e-14 2.508855845782e-01
-2.500000000000e-01 1.250000000000e-01 2.508855845781e-01
-1.250000000000e-01 1.250000000000e-01 2.508855845781e-01
4.355964726685e-14 1.250000000000e-01 2.508855845781e-01
1.250000000000e-01 1.250000000000e-01 2.508855845782e-01
2.500000000000e-01 1.250000000000e-01 2.508855845782e-01
-2.500000000000e-01 2.500000000000e-01 2.508855845781e-01
-1.250000000000e-01 2.500000000000e-01 2.508855845781e-01
4.520538936601e-14 2.500000000000e-01 2.508855845781e-01
1.250000000000e-01 2.500000000000e-01 2.508855845782e-01
2.500000000000e-01 2.500000000000e-01 2.508855845782e-01
-2.500000000000e-01 -2.500000000000e-01 3.158855845781e-01
-1.250000000000e-01 -2.500000000000e-01 3.158855845781e-01
1.936759871846e-14 -2.500000000000e-01 3.158855845781e-01
1.250000000000e-01 -2.500000000000e-01 3.158855845782e-01
2.500000000000e-01 -2.500000000000e-01 3.158855845782e-01
-2.500000000000e-01 -1.250000000000e-01 3.158855845781e-01
-1.250000000000e-01 -1.250000000000e-01 3.158855845781e-01
2.101362216623e-14 -1.250000000000e-01 3.158855845781e-01
1.250000000000e-01 -1.250000000000e-01 3.158855845782e-01
2.500000000000e-01 -1.250000000000e-01 3.158855845782e-01
-2.500000000000e-01 -3.125868967087e-15 3.158855845781e-01
-1.250000000000e-01 -4.772052526459e-15 3.158855845781e-01
2.265762566299e-14 -6.422076427310e-15 3.158855845781e-01
1.250000000000e-01 -8.070606494773e-15 3.158855845782e-01
2.500000000000e-01 -9.716052632365e-15 3.158855845782e-01
-2.500000000000e-01 1.250000000000e-01 3.158855845781e-01
-1.250000000000e-01 1.250000000000e-01 3.158855845781e-01
2.430194287347e-14 1.250000000000e-01 3.158855845781e-01
1.250000000000e-01 1.250000000000e-01 3.158855845782e-01
2.500000000000e-01 1.250000000000e-01 3.158855845782e-01
-2.500000000000e-01 2.500000000000e-01 3.158855845781e-01
-1.250000000000e-01 2.500000000000e-01 3.158855845781e-01
2.594841709615e-14 2.500000000000e-01 3.158855845781e-01
1.250000000000e-01 2.500000000000e-01 3.158855845782e-01
2.500000000000e-01 2.500000000000e-01 3.158855845782e-01
-2.500000000000e-01 -2.500000000000e-01 3.808855845781e-01
-1.250000000000e-01 -2.500000000000e-01 3.808855845781e-01
1.045925208415e-16 -2.500000000000e-01 3.808855845781e-01
1.250000000000e-01 -2.500000000000e-01 3.808855845782e-01
2.500000000000e-01 -2.500000000000e-01 3.808855845782e-01
-2.500000000000e-01 -1.250000000000e-01 3.808855845781e-01
-1.250000000000e-01 -1.250000000000e-01 3.808855845781e-01
1.750184620774e-15 -1.250000000000e-01 3.808855845781e-01
1.250000000000e-01 -1.250000000000e-01 3.808855845782e-01
2.500000000000e-01 -1.250000000000e-01 3.808855845782e-01
-2.500000000000e-01 -1.925941797256e-15 3.808855845781e-01
-1.250000000000e-01 -3.572094787939e-15 3.808855845781e-01
3.397369036393e-15 -5.219490741049e-15 3.808855845781e-01
1.250000000000e-01 -6.864581724819e-15 3.808855845782e-01
2.500000000000e-01 -8.511270071760e-15 3.808855845782e-01
-2.500000000000e-01 1.250000000000e-01 3.808855845781e-01
-1.250000000000e-01 1.250000000000e-01 3.808855845781e-01
5.043226731304e-15 1.250000000000e-01 3.808855845781e-01
1.250000000000e-01 1.250000000000e-01 3.808855845782e-01
2.500000000000e-01 1.250000000000e-01 3.808855845782e-01
-2.500000000000e-01 2.500000000000e-01 3.808855845781e-01
-1.250000000000e-01 2.500000000000e-01 3.808855845781e-01
6.689887916123e-15 2.500000000000e-01 3.808855845781e-01
1.250000000000e-01 2.500000000000e-01 3.808855845782e-01
2.500000000000e-01 2.500000000000e-01 3.808855845782e-01
-2.500000000000e-01 -2.500000000000e-01 4.458855845781e-01
-1.250000000000e-01 -2.500000000000e-01 4.458855845781e-01
-1.915902425053e-14 -2.500000000000e-01 4.458855845781e-01
1.250000000000e-01 -2.500000000000e-01 4.458855845782e-01
2.500000000000e-01 -2.500000000000e-01 4.458855845782e-01
-2.500000000000e-01 -1.250000000000e-01 4.458855845781e-01
-1.250000000000e-01 -1.250000000000e-01 4.458855845781e-01
-1.751301977200e-14 -1.250000000000e-01 4.458855845781e-01
1.250000000000e-01 -1.250000000000e-01 4.458855845782e-01
2.500000000000e-01 -1.250000000000e-01 4.458855845782e-01
-2.500000000000e-01 -7.261751107483e-16 4.458855845781e-01
-1.250000000000e-01 -2.371237290183e-15 4.458855845781e-01
-1.586339220628e-14 -4.016890561316e-15 4.458855845781e-01
1.250000000000e-01 -5.659351612006e-15 4.458855845782e-01
2.500000000000e-01 -7.306597683575e-15 4.458855845782e-01
-2.500000000000e-01 1.250000000000e-01 4.458855845781e-01
-1.250000000000e-01 1.250000000000e-01 4.458855845781e-01
-1.421475612906e-14 1.250000000000e-01 4.458855845781e-01
1.250000000000e-01 1.250000000000e-01 4.458855845782e-01
2.500000000000e-01 1.250000000000e-01 4.458855845782e-01
-2.500000000000e-01 2.500000000000e-01 4.458855845781e-01
-1.250000000000e-01 2.500000000000e-01 4.458855845781e-01
-1.256827855302e-14 2.500000000000e-01 4.458855845781e-01
1.250000000000e-01 2.500000000000e-01 4.458855845782e-01
2.500000000000e-01 2.500000000000e-01 4.458855845782e-01
-2.500000000000e-01 -2.500000000000e-01 5.108855845781e-01
-1.250000000000e-01 -2.500000000000e-01 5.108855845781e-01
-3.842484989617e-14 -2.500000000000e-01 5.108855845781e-01
1.250000000000e-01 -2.500000000000e-01 5.108855845782e-01
2.500000000000e-01 -2.500000000000e-01 5.108855845782e-01
-2.500000000000e-01 -1.250000000000e-01 5.108855845781e-01
-1.250000000000e-01 -1.250000000000e-01 5.108855845781e-01
-3.677774823727e-14 -1.250000000000e-01 5.108855845781e-01
1.250000000000e-01 -1.250000000000e-01 5.108855845782e-01
2.500000000000e-01 -1.250000000000e-01 5.108855845782e-01
-2.500000000000e-01 4.728094270400e-16 5.108855845781e-01
-1.250000000000e-01 -1.174558777660e-15 5.108855845781e-01
-3.512457277549e-14 -2.812916681240e-15 5.108855845781e-01
1.250000000000e-01 -4.453993973935e-15 5.108855845782e-01
2.500000000000e-01 -6.099524489525e-15 5.108855845782e-01
-2.500000000000e-01 1.250000000000e-01 5.108855845781e-01
-1.250000000000e-01 1.250000000000e-01 5.108855845781e-01
-3.347162783891e-14 1.250000000000e-01 5.108855845781e-01
1.250000000000e-01 1.250000000000e-01 5.108855845782e-01
2.500000000000e-01 1.250000000000e-01 5.108855845782e-01
-2.500000000000e-01 2.500000000000e-01 5.108855845781e-01
-1.250000000000e-01 2.500000000000e-01 5.108855845781e-01
-3.182431871709e-14 2.500000000000e-01 5.108855845781e-01
1.250000000000e-01 2.500000000000e-01 5.108855845782e-01
2.500000000000e-01 2.500000000000e-01 5.108855845782e-01
CELLS 128 1152
8 0 1 6 5 25 26 31 30
8 1 2 7 6 26 27 32 31
8 2 3 8 7 27 28 33 32
8 3 4 9 8 28 29 34 33
8 5 6 11 10 30 31 36 35
8 6 7 12 11 31 32 37 36
8 7 8 13 12 32 33 38 37
8 8 9 14 13 33 34 39 38
8 10 11 16 15 35 36 41 40
8 11 12 17 16 36 37 42 41
8 12 13 18 17 37 38 43 42
8 13 14 19 18 38 39 44 43
8 15 16 21 20 40 41 46 45
8 16 17 22 21 41 42 47 46
8 17 18 23 22 42 43 48 47
8 18 19 24 23 43 44 49 48
8 25 26 31 30 50 51 56 55
8 26 27 32 31 51 52 57 56
8 27 28 33 32 52 53 58 57
8 28 29 34 33 53 54 59 58
8 30 31 36 35 55 56 61 60
8 31 32 37 36 56 57 62 61
8 32 33 38 37 57 58 63 62
8 33 34 39 38 58 59 64 63
8 35 36 41 40 60 61 66 65
8 36 37 42 41 61 62 67 66
8 37 38 43 42 62 63 68 67
8 38 39 44 43 63 64 69 68
8 40 41 46 45 65 66 71 70
8 41 42 47 46 66 67 72 71
8 42 43 48 47 67 68 73 72
8 43 44 49 48 68 69 74 73
8 50 51 56 55 75 76 81 80
8 51 52 57 56 76 77 82 81
8 52 53 58 57 77 78 83 82
8 53 54 59 58 78 79 84 83
8 55 56 61 60 80 81 86 85
8 56 57 62 61 81 82 87 86
8 57 58 63 62 82 83 88 87
8 58 59 64 63 83 84 89 88
8 60 61 66 65 85 86 91 90
8 61 62 67 66 86 87 92 91
8 62 63 68 67 87 88 93 92
8 63 64 69 68 88 89 94 93
8 65 66 71 70 90 91 96 95
8 66 67 72 71 91 92 97 96
8 67 68 73 72 92 93 98 97
8 68 69 74 73 93 94 99 98
8 75 76 81 80 100 101 106 105
8 76 77 82 81 101 102 107 106
8 77 78 83 82 102 103 108 107
8 78 79 84 83 103 104 109 108
8 80 81 86 85 105 106 111 110
8 81 82 87 86 106 107 112 111
8 82 83 88 87 107 108 113 112
8 83 84 89 88 108 109 114 113
8 85 86 91 90 110 111 116 115
8 86 87 92 91 111 112 117 116
8 87 88 93 92 112 113 118 117
8 88 89 94 93 113 114 119 118
8 90 91 96 95 115 116 121 120
8 91 92 97 96 116 117 122 121
8 92 93 98 97 117 118 123 122
8 93 94 99 98 118 119 124 123
8 125 126 131 130 150 151 156 155
8 126 127 132 131 151 152 157 156
8 127 128 133 132 152 153 158 157
8 128 129 134 133 153 154 159 158
8 130 131 136 135 155 156 161 160
8 131 132 137 136 156 157 162 161
8 132 133 138 137 157 158 163 162
8 133 134 139 138 158 159 164 163
8 135 136 141 140 160 161 166 165
8 136 137 142 141 161 162 167 166
8 137 138 143 142 162 163 168 167
8 138 139 144 143 163 164 169 168
8 140 141 146 145 165 166 171 170
8 141 142 147 146 166 167 172 171
8 142 143 148 147 167 168 173 172
8 143 144 149 148 168 169 174 173
8 150 151 156 155 175 176 181 180
8 151 152 157 156 176 177 182 181
8 152 153 158 157 177 178 183 182
8 153 154 159 158 178 179 184 183
8 155 156 161 160 180 181 186 185
8 156 157 162 161 181 182 187 186
8 157 158 163 162 182 183 188 187
8 158 159 164 163 183 184 189 188
8 160 161 166 165 185 186 191 190
8 161 162 167 166 186 187 192 191
8 162 163 168 167 187 188 193 192
8 163 164 169 168 188 189 194 193
8 165 166 171 170 190 191 196 195
8 166 167 172 171 191 192 197 196
8 167 168 173 172 192 193 198 197
8 168 169 174 173 193 194 199 198
8 175 176 181 180 200 201 206 205
8 176 177 182 181 201 202 207 206
8 177 178 183 182 202 203 208 207
8 178 179 184 183 203 204 209 208
8 180 181 186 185 205 206 211 210
8 181 182 187 186 206 207 212 211
8 182 183 188 187 207 208 213 212
8 183 184 189 188 208 209 214 213
8 185 186 191 190 210 211 216 215
8 186 187 192 191 211 212 217 216
8 187 188 193 192 212 213 218 217
8 188 189 194 193 213 214 219 218
8 190 191 196 195 215 216 221 220
8 191 192 197 196 216 217 222 221
8 192 193 198 197 217 218 223 222
8 193 194 199 198 218 219 224 223
8 200 201 206 205 225 226 231 230
8 201 202 207 206 226 227 232 231
8 202 203 208 207 227 228 233 232
8 203 204 209 208 228 229 234 233
8 205 206 211 210 230 231 236 235
8 206 207 212 211 231 232 237 236
8 207 208 213 212 232 233 238 237
8 208 209 214 213 233 234 239 238
8 210 211 216 215 235 236 241 240
8 211 212 217 216 236 237 242 241
8 212 213 218 217 237 238 243 242
8 213 214 219 218 238 239 244 243
8 215 216 221 220 240 241 246 245
8 216 217 222 221 241 242 247 246
8 217 218 223 222 242 243 248 247
8 218 219 224 223 243 244 249 248
CELL_TYPES 128
12
12
12
12
12
12
12
12
12
12
12
12
12
12
12
12
12
12
12
12
12
12
12
12
12
12
12
12
12
12
12
12
12
12
12
12
12
12
12
12
12
12
12
12
12
12
12
12
12
12
12
12
12
12
12
12
12
12
12
12
12
12
12
12
12
12
12
12
12
12
12
12
12
12
12
12
12
12
12
12
12
12
12
12
12
12
12
12
12
12
12
12
12
12
12
12
12
12
12
12
12
12
12
12
12
12
12
12
12
12
12
12
12
12
12
12
12
12
12
12
12
12
12
12
12
12
12
12
POINT_DATA 250
VECTORS displacement float
0.000000000000e+00 0.000000000000e+00 0.000000000000e+00
0.000000000000e+00 0.000000000000e+00 0.000000000000e+00
0.000000000000e+00 0.000000000000e+00 0.000000000000e+00
0.000000000000e+00 0.000000000000e+00 0.000000000000e+00
0.000000000000e+00 0.000000000000e+00 0.000000000000e+00
0.000000000000e+00 0.000000000000e+00 0.000000000000e+00
0.000000000000e+00 0.000000000000e+00 0.000000000000e+00
0.000000000000e+00 0.000000000000e+00 0.000000000000e+00
0.000000000000e+00 0.000000000000e+00 0.000000000000e+00
0.000000000000e+00 0.000000000000e+00 0.000000000000e+00
0.000000000000e+00 0.000000000000e+00 0.000000000000e+00
0.000000000000e+00 0.000000000000e+00 0.000000000000e+00
0.000000000000e+00 0.000000000000e+00 0.000000000000e+00
0.000000000000e+00 0.000000000000e+00 0.000000000000e+00
0.000000000000e+00 0.000000000000e+00 0.000000000000e+00
0.000000000000e+00 0.000000000000e+00 0.000000000000e+00
0.000000000000e+00 0.000000000000e+00 0.000000000000e+00
0.000000000000e+00 0.000000000000e+00 0.000000000000e+00
0.000000000000e+00 0.000000000000e+00 0.000000000000e+00
0.000000000000e+00 0.000000000000e+00 0.000000000000e+00
0.000000000000e+00 0.000000000000e+00 0.000000000000e+00
0.000000000000e+00 0.000000000000e+00 0.000000000000e+00
0.000000000000e+00 0.000000000000e+00 0.000000000000e+00
0.000000000000e+00 0.000000000000e+00 0.000000000000e+00
0.000000000000e+00 0.000000000000e+00 0.000000000000e+00
0.000000000000e+00 0.000000000000e+00 0.000000000000e+00
0.000000000000e+00 0.000000000000e+00 0.000000000000e+00
0.000000000000e+00 0.000000000000e+00 0.000000000000e+00
0.000000000000e+00 0.000000000000e+00 0.000000000000e+00
0.000000000000e+00 0.000000000000e+00 0.000000000000e+00
0.000000000000e+00 0.000000000000e+00 0.000000000000e+00
0.000000000000e+00 0.000000000000e+00 0.000000000000e+00
0.000000000000e+00 0.000000000000e+00 0.000000000000e+00
0.000000000000e+00 0.000000000000e+00 0.000000000000e+00
0.000000000000e+00 0.000000000000e+00 0.000000000000e+00
0.000000000000e+00 0.000000000000e+00 0.000000000000e+00
0.000000000000e+00 0.000000000000e+00 0.000000000000e+00
0.000000000000e+00 0.000000000000e+00 0.000000000000e+00
0.000000000000e+00 0.000000000000e+00 0.000000000000e+00
0.000000000000e+00 0.000000000000e+00 0.000000000000e+00
0.000000000000e+00 0.000000000000e+00 0.000000000000e+00
0.000000000000e+00 0.000000000000e+00 0.000000000000e+00
0.000000000000e+00 0.000000000000e+00 0.000000000000e+00
0.000000000000e+00 0.000000000000e+00 0.000000000000e+00
0.000000000000e+00 0.000000000000e+00 0.000000000000e+00
0.000000000000e+00 0.000000000000e+00 0.000000000000e+00
0.000000000000e+00 0.000000000000e+00 0.000000000000e+00
0.000000000000e+00 0.000000000000e+00 0.000000000000e+00
0.000000000000e+00 0.000000000000e+00 0.000000000000e+00
0.000000000000e+00 0.000000000000e+00 0.000000000000e+00
0.000000000000e+00 0.000000000000e+00 0.000000000000e+00
0.000000000000e+00 0.000000000000e+00 0.000000000000e+00
0.000000000000e+00 0.000000000000e+00 0.000000000000e+00
0.000000000000e+00 0.000000000000e+00 0.000000000000e+00
0.000000000000e+00 0.000000000000e+00 0.000000000000e+00
0.000000000000e+00 0.000000000000e+00 0.000000000000e+00
0.000000000000e+00 0.000000000000e+00 0.000000000000e+00
0.000000000000e+00 0.000000000000e+00 0.000000000000e+00
0.000000000000e+00 0.000000000000e+00 0.000000000000e+00
0.000000000000e+00 0.000000000000e+00 0.000000000000e+00
0.000000000000e+00 0.000000000000e+00 0.000000000000e+00
0.000000000000e+00 0.000000000000e+00 0.000000000000e+00
0.000000000000e+00 0.000000000000e+00 0.000000000000e+00
0.000000000000e+00 0.000000000000e+00 0.000000000000e+00
0.000000000000e+00 0.000000000000e+00 0.000000000000e+00
0.000000000000e+00 0.000000000000e+00 0.000000000000e+00
0.000000000000e+00 0.000000000000e+00 0.000000000000e+00
0.000000000000e+00 0.000000000000e+00 0.000000000000e+00
0.000000000000e+00 0.000000000000e+00 0.000000000000e+00
0.000000000000e+00 0.000000000000e+00 0.000000000000e+00
0.000000000000e+00 0.000000000000e+00 0.000000000000e+00
0.000000000000e+00 0.000000000000e+00 0.000000000000e+00
0.000000000000e+00 0.000000000000e+00 0.000000000000e+00
0.000000000000e+00 0.000000000000e+00 0.000000000000e+00
0.000000000000e+00 0.000000000000e+00 0.000000000000e+00
0.000000000000e+00 0.000000000000e+00 0.000000000000e+00
0.000000000000e+00 0.000000000000e+00 0.000000000000e+00
0.000000000000e+00 0.000000000000e+00 0.000000000000e+00
0.000000000000e+00 0.000000000000e+00 0.000000000000e+00
0.000000000000e+00 0.000000000000e+00 0.000000000000e+00
0.000000000000e+00 0.000000000000e+00 0.000000000000e+00
0.000000000000e+00 0.000000000000e+00 0.000000000000e+00
0.000000000000e+00 0.000000000000e+00 0.000000000000e+00
0.000000000000e+00 0.000000000000e+00 0.000000000000e+00
0.000000000000e+00 0.000000000000e+00 0.000000000000e+00
0.000000000000e+00 0.000000000000e+00 0.000000000000e+00
0.000000000000e+00 0.000000000000e+00 0.000000000000e+00
0.000000000000e+00 0.000000000000e+00 0.000000000000e+00
0.000000000000e+00 0.000000000000e+00 0.000000000000e+00
0.000000000000e+00 0.000000000000e+00 0.000000000000e+00
0.000000000000e+00 0.000000000000e+00 0.000000000000e+00
0.000000000000e+00 0.000000000000e+00 0.000000000000e+00
0.000000000000e+00 0.000000000000e+00 0.000000000000e+00
0.000000000000e+00 0.000000000000e+00 0.000000000000e+00
0.000000000000e+00 0.000000000000e+00 0.000000000000e+00
0.000000000000e+00 0.000000000000e+00 0.000000000000e+00
0.000000000000e+00 0.000000000000e+00 0.000000000000e+00
0.000000000000e+00 0.000000000000e+00 0.000000000000e+00
0.000000000000e+00 0.000000000000e+00 0.000000000000e+00
0.000000000000e+00 0.000000000000e+00 0.000000000000e+00
0.000000000000e+00 0.000000000000e+00 0.000000000000e+00
0.000000000000e+00 0.000000000000e+00 0.000000000000e+00
0.000000000000e+00 0.000000000000e+00 0.000000000000e+00
0.000000000000e+00 0.000000000000e+00 0.000000000000e+00
0.000000000000e+00 0.000000000000e+00 0.000000000000e+00
0.000000000000e+00 0.000000000000e+00 0.000000000000e+00
0.000000000000e+00 0.000000000000e+00 0.000000000000e+00
0.000000000000e+00 0.000000000000e+00 0.000000000000e+00
0.000000000000e+00 0.000000000000e+00 0.000000000000e+00
0.000000000000e+00 0.000000000000e+00 0.000000000000e+00
0.000000000000e+00 0.000000000000e+00 0.000000000000e+00
0.000000000000e+00 0.000000000000e+00 0.000000000000e+00
0.000000000000e+00 0.000000000000e+00 0.000000000000e+00
0.000000000000e+00 0.000000000000e+00 0.000000000000e+00
0.000000000000e+00 0.000000000000e+00 0.000000000000e+00
0.000000000000e+00 0.000000000000e+00 0.000000000000e+00
0.000000000000e+00 0.000000000000e+00 0.000000000000e+00
0.000000000000e+00 0.000000000000e+00 0.000000000000e+00
0.000000000000e+00 0.000000000000e+00 0.000000000000e+00
0.000000000000e+00 0.000000000000e+00 0.000000000000e+00
0.000000000000e+00 0.000000000000e+00 0.000000000000e+00
0.000000000000e+00 0.000000000000e+00 0.000000000000e+00
0.000000000000e+00 0.000000000000e+00 0.000000000000e+00
0.000000000000e+00 0.000000000000e+00 0.000000000000e+00
0.000000000000e+00 0.000000000000e+00 0.000000000000e+00
3.862828097602e-14 -4.328396467838e-15 -4.114415421928e-03
3.863026696990e-14 -5.977187032236e-15 -4.114415421891e-03
3.863252074351e-14 -7.623629007114e-15 -4.114415421854e-03
3.863412497189e-14 -9.275457415276e-15 -4.114415421817e-03
3.863678621485e-14 -1.092895372571e-14 -4.114415421780e-03
4.027562777255e-14 -4.326875923606e-15 -4.114415421931e-03
4.027599962347e-14 -5.974927677749e-15 -4.114415421894e-03
4.027698860536e-14 -7.626091094717e-15 -4.114415421857e-03
4.027737541049e-14 -9.278649175075e-15 -4.114415421820e-03
4.027674867996e-14 -1.092749569388e-14 -4.114415421782e-03
4.191867422011e-14 -4.322915722279e-15 -4.114415421933e-03
4.191697172607e-14 -5.972113730386e-15 -4.114415421896e-03
4.191775527958e-14 -7.624610123300e-15 -4.114415421859e-03
4.191752602529e-14 -9.276747980148e-15 -4.114415421822e-03
4.191591490419e-14 -1.092392189400e-14 -4.114415421785e-03
4.355780179170e-14 -4.322962363372e-15 -4.114415421935e-03
4.355899108523e-14 -5.969715035434e-15 -4.114415421898e-03
4.355964726685e-14 -7.620907599641e-15 -4.114415421861e-03
4.356022051385e-14 -9.270048087398e-15 -4.114415421824e-03
4.356027427610e-14 -1.092005667674e-14 -4.114415421787e-03
4.520585499934e-14 -4.324171649419e-15 -4.114415421938e-03
4.520547789275e-14 -5.969944602302e-15 -4.114415421901e-03
4.520538936601e-14 -7.617143358066e-15 -4.114415421863e-03
4.520647917667e-14 -9.265764403435e-15 -4.114415421826e-03
4.520622851378e-14 -1.091746207744e-14 -4.114415421789e-03
1.936723425902e-14 -3.127585292129e-15 -4.114415421928e-03
1.936770947694e-14 -4.774796546749e-15 -4.114415421891e-03
1.936759871846e-14 -6.422776414483e-15 -4.114415421854e-03
1.936713121709e-14 -8.070542214775e-15 -4.114415421817e-03
1.936690455379e-14 -9.719159859741e-15 -4.114415421780e-03
2.101196082384e-14 -3.125906351404e-15 -4.114415421931e-03
2.101323330346e-14 -4.774447955384e-15 -4.114415421894e-03
2.101362216623e-14 -6.423128911944e-15 -4.114415421857e-03
2.101319851846e-14 -8.071415242895e-15 -4.114415421820e-03
2.101305981122e-14 -9.716920690019e-15 -4.114415421782e-03
2.265642213249e-14 -3.125868967087e-15 -4.114415421933e-03
2.265654907439e-14 -4.772052526459e-15 -4.114415421896e-03
2.265762566299e-14 -6.422076427310e-15 -4.114415421859e-03
2.265767178888e-14 -8.070606494773e-15 -4.114415421822e-03
2.265664095744e-14 -9.716052632365e-15 -4.114415421785e-03
2.430162715939e-14 -3.125011045314e-15 -4.114415421935e-03
2.430139829381e-14 -4.771564763766e-15 -4.114415421898e-03
2.430194287347e-14 -6.420305509334e-15 -4.114415421861e-03
2.430256551007e-14 -8.068706661442e-15 -4.114415421824e-03
2.430144853097e-14 -9.716927100108e-15 -4.114415421787e-03
2.594809867124e-14 -3.124253439230e-15 -4.114415421938e-03
2.594772275601e-14 -4.770832046142e-15 -4.114415421901e-03
2.594841709615e-14 -6.418521272892e-15 -4.114415421863e-03
2.594912051745e-14 -8.067251503608e-15 -4.114415421826e-03
2.595027892354e-14 -9.717095058151e-15 -4.114415421789e-03
1.038292770478e-16 -1.925465185250e-15 -4.114415421928e-03
1.048816439393e-16 -3.574846421976e-15 -4.114415421891e-03
1.045925208415e-16 -5.219530167996e-15 -4.114415421854e-03
1.035172878214e-16 -6.865515159215e-15 -4.114415421817e-03
1.030714431018e-16 -8.510670614916e-15 -4.114415421780e-03
1.748695139268e-15 -1.925537612445e-15 -4.114415421931e-03
1.750059384572e-15 -3.572975184314e-15 -4.114415421894e-03
1.750184620774e-15 -5.219642475086e-15 -4.114415421857e-03
1.749907639272e-15 -6.865196630535e-15 -4.114415421820e-03
1.750388651833e-15 -8.510579571200e-15 -4.114415421782e-03
3.396334338871e-15 -1.925941797256e-15 -4.114415421933e-03
3.395877520918e-15 -3.572094787939e-15 -4.114415421896e-03
3.397369036393e-15 -5.219490741049e-15 -4.114415421859e-03
3.397003967174e-15 -6.864581724819e-15 -4.114415421822e-03
3.395690994551e-15 -8.511270071760e-15 -4.114415421785e-03
5.043928449617e-15 -1.925422998739e-15 -4.114415421935e-03
5.043362547626e-15 -3.572429543010e-15 -4.114415421898e-03
5.043226731304e-15 -5.218969768596e-15 -4.114415421861e-03
5.044191932237e-15 -6.865619259651e-15 -4.114415421824e-03
5.043740999335e-15 -8.513355567692e-15 -4.114415421787e-03
6.690531305088e-15 -1.925404023692e-15 -4.114415421938e-03
6.690046404719e-15 -3.572191361627e-15 -4.114415421901e-03
6.689887916123e-15 -5.218173688047e-15 -4.114415421863e-03
6.690804742398e-15 -6.865447252592e-15 -4.114415421826e-03
6.692059812613e-15 -8.514084450534e-15 -4.114415421789e-03
-1.915951789049e-14 -7.254901899705e-16 -4.114415421928e-03
-1.915884818838e-14 -2.371521964548e-15 -4.114415421891e-03
-1.915902425053e-14 -4.015241170483e-15 -4.114415421854e-03
-1.915982616720e-14 -5.657593795748e-15 -4.114415421817e-03
-1.916048474124e-14 -7.301761715979e-15 -4.114415421780e-03
-1.751298917198e-14 -7.244957587279e-16 -4.114415421931e-03
-1.751294330606e-14 -2.372222146303e-15 -4.114415421894e-03
-1.751301977200e-14 -4.015829249744e-15 -4.114415421857e-03
-1.751321240527e-14 -5.658227773585e-15 -4.114415421820e-03
-1.751266829144e-14 -7.303884382719e-15 -4.114415421782e-03
-1.586319074578e-14 -7.261751107483e-16 -4.114415421933e-03
-1.586381796268e-14 -2.371237290183e-15 -4.114415421896e-03
-1.586339220628e-14 -4.016890561316e-15 -4.114415421859e-03
-1.586375032976e-14 -5.659351612006e-15 -4.114415421822e-03
-1.586359177901e-14 -7.306597683575e-15 -4.114415421785e-03
-1.421350699597e-14 -7.262127468282e-16 -4.114415421935e-03
-1.421450983539e-14 -2.373509827158e-15 -4.114415421898e-03
-1.421475612906e-14 -4.017341949492e-15 -4.114415421861e-03
-1.421451085154e-14 -5.662526980338e-15 -4.114415421824e-03
-1.421610930518e-14 -7.308359245986e-15 -4.114415421787e-03
-1.256578892644e-14 -7.259507127228e-16 -4.114415421938e-03
-1.256722547526e-14 -2.374946466018e-15 -4.114415421901e-03
-1.256827855302e-14 -4.016884776936e-15 -4.114415421863e-03
-1.256750299725e-14 -5.663213627618e-15 -4.114415421826e-03
-1.256587234560e-14 -7.309999793334e-15 -4.114415421789e-03
-3.842559890507e-14 4.735464471422e-16 -4.114415421928e-03
-3.842458328323e-14 -1.167972571863e-15 -4.114415421891e-03
-3.842484989617e-14 -2.811328472779e-15 -4.114415421854e-03
-3.842578495608e-14 -4.449124069330e-15 -4.114415421817e-03
-3.842624831209e-14 -6.091271379324e-15 -4.114415421780e-03
-3.677197968917e-14 4.729424525109e-16 -4.114415421931e-03
-3.677608578327e-14 -1.169132733341e-15 -4.114415421894e-03
-3.677774823727e-14 -2.810799007606e-15 -4.114415421857e-03
-3.677697457165e-14 -4.449918336326e-15 -4.114415421820e-03
-3.677661105798e-14 -6.093946661336e-15 -4.114415421782e-03
-3.512092509314e-14 4.728094270400e-16 -4.114415421933e-03
-3.512272545530e-14 -1.174558777660e-15 -4.114415421896e-03
-3.512457277549e-14 -2.812916681240e-15 -4.114415421859e-03
-3.512496448558e-14 -4.453993973935e-15 -4.114415421822e-03
-3.512335391234e-14 -6.099524489525e-15 -4.114415421785e-03
-3.347109093032e-14 4.723370297366e-16 -4.114415421935e-03
-3.347096435429e-14 -1.175551865111e-15 -4.114415421898e-03
-3.347162783891e-14 -2.817510945809e-15 -4.114415421861e-03
-3.347462092981e-14 -4.458815282685e-15 -4.114415421824e-03
-3.347365348520e-14 -6.104381015015e-15 -4.114415421787e-03
-3.182369678316e-14 4.708392451308e-16 -4.114415421938e-03
-3.182406613550e-14 -1.173446956749e-15 -4.114415421901e-03
-3.182431871709e-14 -2.819301410159e-15 -4.114415421863e-03
-3.182500401922e-14 -4.460300028841e-15 -4.114415421826e-03
-3.182695052889e-14 -6.106670168326e-15 -4.114415421789e-03
SCALARS displacement_magnitude float 1
LOOKUP_TABLE default
0.000000000000e+00
0.000000000000e+00
0.000000000000e+00
0.000000000000e+00
0.000000000000e+00
0.000000000000e+00
0.000000000000e+00
0.000000000000e+00
0.000000000000e+00
0.000000000000e+00
0.000000000000e+00
0.000000000000e+00
0.000000000000e+00
0.000000000000e+00
0.000000000000e+00
0.000000000000e+00
0.000000000000e+00
0.000000000000e+00
0.000000000000e+00
0.000000000000e+00
0.000000000000e+00
0.000000000000e+00
0.000000000000e+00
0.000000000000e+00
0.000000000000e+00
0.000000000000e+00
0.000000000000e+00
0.000000000000e+00
0.000000000000e+00
0.000000000000e+00
0.000000000000e+00
0.000000000000e+00
0.000000000000e+00
0.000000000000e+00
0.000000000000e+00
0.000000000000e+00
0.000000000000e+00
0.000000000000e+00
0.000000000000e+00
0.000000000000e+00
0.000000000000e+00
0.000000000000e+00
0.000000000000e+00
0.000000000000e+00
0.000000000000e+00
0.000000000000e+00
0.000000000000e+00
0.000000000000e+00
0.000000000000e+00
0.000000000000e+00
0.000000000000e+00
0.000000000000e+00
0.000000000000e+00
0.000000000000e+00
0.000000000000e+00
0.000000000000e+00
0.000000000000e+00
0.000000000000e+00
0.000000000000e+00
0.000000000000e+00
0.000000000000e+00
0.000000000000e+00
0.000000000000e+00
0.000000000000e+00
0.000000000000e+00
0.000000000000e+00
0.000000000000e+00
0.000000000000e+00
0.000000000000e+00
0.000000000000e+00
0.000000000000e+00
0.000000000000e+00
0.000000000000e+00
0.000000000000e+00
0.000000000000e+00
0.000000000000e+00
0.000000000000e+00
0.000000000000e+00
0.000000000000e+00
0.000000000000e+00
0.000000000000e+00
0.000000000000e+00
0.000000000000e+00
0.000000000000e+00
0.000000000000e+00
0.000000000000e+00
0.000000000000e+00
0.000000000000e+00
0.000000000000e+00
0.000000000000e+00
0.000000000000e+00
0.000000000000e+00
0.000000000000e+00
0.000000000000e+00
0.000000000000e+00
0.000000000000e+00
0.000000000000e+00
0.000000000000e+00
0.000000000000e+00
0.000000000000e+00
0.000000000000e+00
0.000000000000e+00
0.000000000000e+00
0.000000000000e+00
0.000000000000e+00
0.000000000000e+00
0.000000000000e+00
0.000000000000e+00
0.000000000000e+00
0.000000000000e+00
0.000000000000e+00
0.000000000000e+00
0.000000000000e+00
0.000000000000e+00
0.000000000000e+00
0.000000000000e+00
0.000000000000e+00
0.000000000000e+00
0.000000000000e+00
0.000000000000e+00
0.000000000000e+00
0.000000000000e+00
0.000000000000e+00
0.000000000000e+00
0.000000000000e+00
4.114415421928e-03
4.114415421891e-03
4.114415421854e-03
4.114415421817e-03
4.114415421780e-03
4.114415421931e-03
4.114415421894e-03
4.114415421857e-03
4.114415421820e-03
4.114415421782e-03
4.114415421933e-03
4.114415421896e-03
4.114415421859e-03
4.114415421822e-03
4.114415421785e-03
4.114415421935e-03
4.114415421898e-03
4.114415421861e-03
4.114415421824e-03
4.114415421787e-03
4.114415421938e-03
4.114415421901e-03
4.114415421863e-03
4.114415421826e-03
4.114415421789e-03
4.114415421928e-03
4.114415421891e-03
4.114415421854e-03
4.114415421817e-03
4.114415421780e-03
4.114415421931e-03
4.114415421894e-03
4.114415421857e-03
4.114415421820e-03
4.114415421782e-03
4.114415421933e-03
4.114415421896e-03
4.114415421859e-03
4.114415421822e-03
4.114415421785e-03
4.114415421935e-03
4.114415421898e-03
4.114415421861e-03
4.114415421824e-03
4.114415421787e-03
4.114415421938e-03
4.114415421901e-03
4.114415421863e-03
4.114415421826e-03
4.114415421789e-03
4.114415421928e-03
4.114415421891e-03
4.114415421854e-03
4.114415421817e-03
4.114415421780e-03
4.114415421931e-03
4.114415421894e-03
4.114415421857e-03
4.114415421820e-03
4.114415421782e-03
4.114415421933e-03
4.114415421896e-03
4.114415421859e-03
4.114415421822e-03
4.114415421785e-03
4.114415421935e-03
4.114415421898e-03
4.114415421861e-03
4.114415421824e-03
4.114415421787e-03
4.114415421938e-03
4.114415421901e-03
4.114415421863e-03
4.114415421826e-03
4.114415421789e-03
4.114415421928e-03
4.114415421891e-03
4.114415421854e-03
4.114415421817e-03
4.114415421780e-03
4.114415421931e-03
4.114415421894e-03
4.114415421857e-03
4.114415421820e-03
4.114415421782e-03
4.114415421933e-03
4.114415421896e-03
4.114415421859e-03
4.114415421822e-03
4.114415421785e-03
4.114415421935e-03
4.114415421898e-03
4.114415421861e-03
4.114415421824e-03
4.114415421787e-03
4.114415421938e-03
4.114415421901e-03
4.114415421863e-03
4.114415421826e-03
4.114415421789e-03
4.114415421928e-03
4.114415421891e-03
4.114415421854e-03
4.114415421817e-03
4.114415421780e-03
4.114415421931e-03
4.114415421894e-03
4.114415421857e-03
4.114415421820e-03
4.114415421782e-03
4.114415421933e-03
4.114415421896e-03
4.114415421859e-03
4.114415421822e-03
4.114415421785e-03
4.114415421935e-03
4.114415421898e-03
4.114415421861e-03
4.114415421824e-03
4.114415421787e-03
4.114415421938e-03
4.114415421901e-03
4.114415421863e-03
4.114415421826e-03
4.114415421789e-03
CELL_DATA 128
SCALARS displacement_magnitude float 1
LOOKUP_TABLE default
0.000000000000e+00
0.000000000000e+00
0.000000000000e+00
0.000000000000e+00
0.000000000000e+00
0.000000000000e+00
0.000000000000e+00
0.000000000000e+00
0.000000000000e+00
0.000000000000e+00
0.000000000000e+00
0.000000000000e+00
0.000000000000e+00
0.000000000000e+00
0.000000000000e+00
0.000000000000e+00
0.000000000000e+00
0.000000000000e+00
0.000000000000e+00
0.000000000000e+00
0.000000000000e+00
0.000000000000e+00
0.000000000000e+00
0.000000000000e+00
0.000000000000e+00
0.000000000000e+00
0.000000000000e+00
0.000000000000e+00
0.000000000000e+00
0.000000000000e+00
0.000000000000e+00
0.000000000000e+00
0.000000000000e+00
0.000000000000e+00
0.000000000000e+00
0.000000000000e+00
0.000000000000e+00
0.000000000000e+00
0.000000000000e+00
0.000000000000e+00
0.000000000000e+00
0.000000000000e+00
0.000000000000e+00
0.000000000000e+00
0.000000000000e+00
0.000000000000e+00
0.000000000000e+00
0.000000000000e+00
0.000000000000e+00
0.000000000000e+00
0.000000000000e+00
0.000000000000e+00
0.000000000000e+00
0.000000000000e+00
0.000000000000e+00
0.000000000000e+00
0.000000000000e+00
0.000000000000e+00
0.000000000000e+00
0.000000000000e+00
0.000000000000e+00
0.000000000000e+00
0.000000000000e+00
0.000000000000e+00
4.114415421911e-03
4.114415421874e-03
4.114415421837e-03
4.114415421800e-03
4.114415421913e-03
4.114415421876e-03
4.114415421839e-03
4.114415421802e-03
4.114415421916e-03
4.114415421879e-03
4.114415421842e-03
4.114415421804e-03
4.114415421918e-03
4.114415421881e-03
4.114415421844e-03
4.114415421807e-03
4.114415421911e-03
4.114415421874e-03
4.114415421837e-03
4.114415421800e-03
4.114415421913e-03
4.114415421876e-03
4.114415421839e-03
4.114415421802e-03
4.114415421916e-03
4.114415421879e-03
4.114415421842e-03
4.114415421804e-03
4.114415421918e-03
4.114415421881e-03
4.114415421844e-03
4.114415421807e-03
4.114415421911e-03
4.114415421874e-03
4.114415421837e-03
4.114415421800e-03
4.114415421913e-03
4.114415421876e-03
4.114415421839e-03
4.114415421802e-03
4.114415421916e-03
4.114415421879e-03
4.114415421842e-03
4.114415421804e-03
4.114415421918e-03
4.114415421881e-03
4.114415421844e-03
4.114415421807e-03
4.114415421911e-03
4.114415421874e-03
4.114415421837e-03
4.114415421800e-03
4.114415421913e-03
4.114415421876e-03
4.114415421839e-03
4.114415421802e-03
4.114415421916e-03
4.114415421879e-03
4.114415421842e-03
4.114415421804e-03
4.114415421918e-03
4.114415421881e-03
4.114415421844e-03
4.114415421807e-03
SCALARS engineering_strain_norm float 1
LOOKUP_TABLE default
0.000000000000e+00
0.000000000000e+00
0.000000000000e+00
0.000000000000e+00
0.000000000000e+00
0.000000000000e+00
0.000000000000e+00
0.000000000000e+00
0.000000000000e+00
0.000000000000e+00
0.000000000000e+00
0.000000000000e+00
0.000000000000e+00
0.000000000000e+00
0.000000000000e+00
0.000000000000e+00
0.000000000000e+00
0.000000000000e+00
0.000000000000e+00
0.000000000000e+00
0.000000000000e+00
0.000000000000e+00
0.000000000000e+00
0.000000000000e+00
0.000000000000e+00
0.000000000000e+00
0.000000000000e+00
0.000000000000e+00
0.000000000000e+00
0.000000000000e+00
0.000000000000e+00
0.000000000000e+00
0.000000000000e+00
0.000000000000e+00
0.000000000000e+00
0.000000000000e+00
0.000000000000e+00
0.000000000000e+00
0.000000000000e+00
0.000000000000e+00
0.000000000000e+00
0.000000000000e+00
0.000000000000e+00
0.000000000000e+00
0.000000000000e+00
0.000000000000e+00
0.000000000000e+00
0.000000000000e+00
0.000000000000e+00
0.000000000000e+00
0.000000000000e+00
0.000000000000e+00
0.000000000000e+00
0.000000000000e+00
0.000000000000e+00
0.000000000000e+00
0.000000000000e+00
0.000000000000e+00
0.000000000000e+00
0.000000000000e+00
0.000000000000e+00
0.000000000000e+00
0.000000000000e+00
0.000000000000e+00
3.784747346608e-17
3.539173670168e-17
5.501190622818e-17
5.468652252785e-17
5.261759011326e-17
7.073766030362e-17
7.540353507436e-17
6.212929464574e-17
5.463911157070e-17
6.226361138085e-17
6.079315027546e-17
4.834212675139e-17
1.767507109709e-17
3.444603830295e-17
5.471798641509e-17
4.593687688413e-17
3.683447564906e-17
4.289678360913e-17
5.260558609117e-17
5.758753889050e-17
5.116945593683e-17
3.764878833454e-17
5.515343590062e-17
7.722823221210e-17
6.720198734415e-17
4.650063440541e-17
2.563047347943e-17
4.248023957616e-17
1.601731909493e-17
5.491618065489e-17
6.268623699092e-17
3.723247994084e-17
2.520595473189e-17
5.595860030830e-17
4.974566646045e-17
5.503310234529e-17
6.828776940836e-17
4.133578315791e-17
6.368074752869e-17
6.524183385091e-17
6.832867670998e-17
5.382522706886e-17
2.683676906559e-17
3.663818338992e-17
1.385432855633e-17
5.863361491461e-17
6.101950578103e-17
2.411503232320e-17
3.820988173648e-17
5.408757598694e-17
5.622439018129e-17
4.624586028534e-17
7.609597113676e-17
8.379020487293e-17
8.904613108521e-17
6.371581657635e-17
4.701873181307e-17
8.667038255555e-17
7.905997441895e-17
4.255794544477e-17
2.353026127453e-17
5.912337759552e-17
5.030660647232e-17
3.567261311507e-17
SCALARS von_mises float 1
LOOKUP_TABLE default
0.000000000000e+00
0.000000000000e+00
0.000000000000e+00
0.000000000000e+00
0.000000000000e+00
0.000000000000e+00
0.000000000000e+00
0.000000000000e+00
0.000000000000e+00
0.000000000000e+00
0.000000000000e+00
0.000000000000e+00
0.000000000000e+00
0.000000000000e+00
0.000000000000e+00
0.000000000000e+00
0.000000000000e+00
0.000000000000e+00
0.000000000000e+00
0.000000000000e+00
0.000000000000e+00
0.000000000000e+00
0.000000000000e+00
0.000000000000e+00
0.000000000000e+00
0.000000000000e+00
0.000000000000e+00
0.000000000000e+00
0.000000000000e+00
0.000000000000e+00
0.000000000000e+00
0.000000000000e+00
0.000000000000e+00
0.000000000000e+00
0.000000000000e+00
0.000000000000e+00
0.000000000000e+00
0.000000000000e+00
0.000000000000e+00
0.000000000000e+00
0.000000000000e+00
0.000000000000e+00
0.000000000000e+00
0.000000000000e+00
0.000000000000e+00
0.000000000000e+00
0.000000000000e+00
0.000000000000e+00
0.000000000000e+00
0.000000000000e+00
0.000000000000e+00
0.000000000000e+00
0.000000000000e+00
0.000000000000e+00
0.000000000000e+00
0.000000000000e+00
0.000000000000e+00
0.000000000000e+00
0.000000000000e+00
0.000000000000e+00
0.000000000000e+00
0.000000000000e+00
0.000000000000e+00
0.000000000000e+00
3.029029691330e-12
2.334236601449e-12
4.053423395840e-12
3.647433384032e-12
3.818593386048e-12
4.852060686701e-12
4.996411326231e-12
4.251885348886e-12
3.633735344806e-12
4.076365109545e-12
4.152367519760e-12
3.384182227671e-12
1.276255709510e-12
2.524105467734e-12
3.990613576735e-12
3.243220622869e-12
2.725904030607e-12
2.849717796376e-12
3.617136413834e-12
3.865297445690e-12
3.561458709315e-12
2.939816374797e-12
3.689172216807e-12
5.176160134742e-12
4.483873300287e-12
3.525914127730e-12
1.895803297133e-12
3.323298221564e-12
1.114144988985e-12
3.890084193174e-12
4.238541694321e-12
2.469393385676e-12
1.972669776597e-12
3.765575150080e-12
3.334701007945e-12
3.796343187600e-12
4.568467000296e-12
2.934539607521e-12
4.222994868116e-12
4.325251236927e-12
4.544717402963e-12
3.644887171923e-12
1.874805996730e-12
3.034307409147e-12
1.134131626750e-12
3.933403477857e-12
4.065245141133e-12
1.711900051471e-12
2.510527035714e-12
3.548079826621e-12
3.742889583176e-12
3.157767857645e-12
5.191125291984e-12
5.608075269193e-12
6.286334101577e-12
4.826538464538e-12
3.270633366120e-12
5.735792549170e-12
5.696814292371e-12
3.593716322399e-12
1.617655618952e-12
4.033318749345e-12
3.582653185838e-12
3.031635109625e-12
SCALARS sdf_gap float 1
LOOKUP_TABLE default
0.000000000000e+00
0.000000000000e+00
0.000000000000e+00
0.000000000000e+00
0.000000000000e+00
0.000000000000e+00
0.000000000000e+00
0.000000000000e+00
0.000000000000e+00
0.000000000000e+00
0.000000000000e+00
0.000000000000e+00
0.000000000000e+00
0.000000000000e+00
0.000000000000e+00
0.000000000000e+00
0.000000000000e+00
0.000000000000e+00
0.000000000000e+00
0.000000000000e+00
0.000000000000e+00
0.000000000000e+00
0.000000000000e+00
0.000000000000e+00
0.000000000000e+00
0.000000000000e+00
0.000000000000e+00
0.000000000000e+00
0.000000000000e+00
0.000000000000e+00
0.000000000000e+00
0.000000000000e+00
0.000000000000e+00
0.000000000000e+00
0.000000000000e+00
0.000000000000e+00
0.000000000000e+00
0.000000000000e+00
0.000000000000e+00
0.000000000000e+00
0.000000000000e+00
0.000000000000e+00
0.000000000000e+00
0.000000000000e+00
0.000000000000e+00
0.000000000000e+00
0.000000000000e+00
0.000000000000e+00
0.000000000000e+00
0.000000000000e+00
0.000000000000e+00
0.000000000000e+00
0.000000000000e+00
0.000000000000e+00
0.000000000000e+00
0.000000000000e+00
0.000000000000e+00
0.000000000000e+00
0.000000000000e+00
0.000000000000e+00
0.000000000000e+00
0.000000000000e+00
0.000000000000e+00
0.000000000000e+00
1.088558457809e-02
1.088558457813e-02
1.088558457816e-02
1.088558457820e-02
1.088558457809e-02
1.088558457812e-02
1.088558457816e-02
1.088558457820e-02
1.088558457808e-02
1.088558457812e-02
1.088558457816e-02
1.088558457820e-02
1.088558457808e-02
1.088558457812e-02
1.088558457816e-02
1.088558457819e-02
0.000000000000e+00
0.000000000000e+00
0.000000000000e+00
0.000000000000e+00
0.000000000000e+00
0.000000000000e+00
0.000000000000e+00
0.000000000000e+00
0.000000000000e+00
0.000000000000e+00
0.000000000000e+00
0.000000000000e+00
0.000000000000e+00
0.000000000000e+00
0.000000000000e+00
0.000000000000e+00
0.000000000000e+00
0.000000000000e+00
0.000000000000e+00
0.000000000000e+00
0.000000000000e+00
0.000000000000e+00
0.000000000000e+00
0.000000000000e+00
0.000000000000e+00
0.000000000000e+00
0.000000000000e+00
0.000000000000e+00
0.000000000000e+00
0.000000000000e+00
0.000000000000e+00
0.000000000000e+00
0.000000000000e+00
0.000000000000e+00
0.000000000000e+00
0.000000000000e+00
0.000000000000e+00
0.000000000000e+00
0.000000000000e+00
0.000000000000e+00
0.000000000000e+00
0.000000000000e+00
0.000000000000e+00
0.000000000000e+00
0.000000000000e+00
0.000000000000e+00
0.000000000000e+00
0.000000000000e+00
SCALARS contact_pressure float 1
LOOKUP_TABLE default
0.000000000000e+00
0.000000000000e+00
0.000000000000e+00
0.000000000000e+00
0.000000000000e+00
0.000000000000e+00
0.000000000000e+00
0.000000000000e+00
0.000000000000e+00
0.000000000000e+00
0.000000000000e+00
0.000000000000e+00
0.000000000000e+00
0.000000000000e+00
0.000000000000e+00
0.000000000000e+00
0.000000000000e+00
0.000000000000e+00
0.000000000000e+00
0.000000000000e+00
0.000000000000e+00
0.000000000000e+00
0.000000000000e+00
0.000000000000e+00
0.000000000000e+00
0.000000000000e+00
0.000000000000e+00
0.000000000000e+00
0.000000000000e+00
0.000000000000e+00
0.000000000000e+00
0.000000000000e+00
0.000000000000e+00
0.000000000000e+00
0.000000000000e+00
0.000000000000e+00
0.000000000000e+00
0.000000000000e+00
0.000000000000e+00
0.000000000000e+00
0.000000000000e+00
0.000000000000e+00
0.000000000000e+00
0.000000000000e+00
0.000000000000e+00
0.000000000000e+00
0.000000000000e+00
0.000000000000e+00
0.000000000000e+00
0.000000000000e+00
0.000000000000e+00
0.000000000000e+00
0.000000000000e+00
0.000000000000e+00
0.000000000000e+00
0.000000000000e+00
0.000000000000e+00
0.000000000000e+00
0.000000000000e+00
0.000000000000e+00
0.000000000000e+00
0.000000000000e+00
0.000000000000e+00
0.000000000000e+00
0.000000000000e+00
0.000000000000e+00
0.000000000000e+00
0.000000000000e+00
0.000000000000e+00
0.000000000000e+00
0.000000000000e+00
0.000000000000e+00
0.000000000000e+00
0.000000000000e+00
0.000000000000e+00
0.000000000000e+00
0.000000000000e+00
0.000000000000e+00
0.000000000000e+00
0.000000000000e+00
0.000000000000e+00
0.000000000000e+00
0.000000000000e+00
0.000000000000e+00
0.000000000000e+00
0.000000000000e+00
0.000000000000e+00
0.000000000000e+00
0.000000000000e+00
0.000000000000e+00
0.000000000000e+00
0.000000000000e+00
0.000000000000e+00
0.000000000000e+00
0.000000000000e+00
0.000000000000e+00
0.000000000000e+00
0.000000000000e+00
0.000000000000e+00
0.000000000000e+00
0.000000000000e+00
0.000000000000e+00
0.000000000000e+00
0.000000000000e+00
0.000000000000e+00
0.000000000000e+00
0.000000000000e+00
0.000000000000e+00
0.000000000000e+00
0.000000000000e+00
0.000000000000e+00
0.000000000000e+00
0.000000000000e+00
0.000000000000e+00
0.000000000000e+00
0.000000000000e+00
0.000000000000e+00
0.000000000000e+00
0.000000000000e+00
0.000000000000e+00
0.000000000000e+00
0.000000000000e+00
0.000000000000e+00
0.000000000000e+00
0.000000000000e+00
0.000000000000e+00
0.000000000000e+00
0.000000000000e+00
SCALARS active_contact float 1
LOOKUP_TABLE default
0.000000000000e+00
0.000000000000e+00
0.000000000000e+00
0.000000000000e+00
0.000000000000e+00
0.000000000000e+00
0.000000000000e+00
0.000000000000e+00
0.000000000000e+00
0.000000000000e+00
0.000000000000e+00
0.000000000000e+00
0.000000000000e+00
0.000000000000e+00
0.000000000000e+00
0.000000000000e+00
0.000000000000e+00
0.000000000000e+00
0.000000000000e+00
0.000000000000e+00
0.000000000000e+00
0.000000000000e+00
0.000000000000e+00
0.000000000000e+00
0.000000000000e+00
0.000000000000e+00
0.000000000000e+00
0.000000000000e+00
0.000000000000e+00
0.000000000000e+00
0.000000000000e+00
0.000000000000e+00
0.000000000000e+00
0.000000000000e+00
0.000000000000e+00
0.000000000000e+00
0.000000000000e+00
0.000000000000e+00
0.000000000000e+00
0.000000000000e+00
0.000000000000e+00
0.000000000000e+00
0.000000000000e+00
0.000000000000e+00
0.000000000000e+00
0.000000000000e+00
0.000000000000e+00
0.000000000000e+00
0.000000000000e+00
0.000000000000e+00
0.000000000000e+00
0.000000000000e+00
0.000000000000e+00
0.000000000000e+00
0.000000000000e+00
0.000000000000e+00
0.000000000000e+00
0.000000000000e+00
0.000000000000e+00
0.000000000000e+00
0.000000000000e+00
0.000000000000e+00
0.000000000000e+00
0.000000000000e+00
0.000000000000e+00
0.000000000000e+00
0.000000000000e+00
0.000000000000e+00
0.000000000000e+00
0.000000000000e+00
0.000000000000e+00
0.000000000000e+00
0.000000000000e+00
0.000000000000e+00
0.000000000000e+00
0.000000000000e+00
0.000000000000e+00
0.000000000000e+00
0.000000000000e+00
0.000000000000e+00
0.000000000000e+00
0.000000000000e+00
0.000000000000e+00
0.000000000000e+00
0.000000000000e+00
0.000000000000e+00
0.000000000000e+00
0.000000000000e+00
0.000000000000e+00
0.000000000000e+00
0.000000000000e+00
0.000000000000e+00
0.000000000000e+00
0.000000000000e+00
0.000000000000e+00
0.000000000000e+00
0.000000000000e+00
0.000000000000e+00
0.000000000000e+00
0.000000000000e+00
0.000000000000e+00
0.000000000000e+00
0.000000000000e+00
0.000000000000e+00
0.000000000000e+00
0.000000000000e+00
0.000000000000e+00
0.000000000000e+00
0.000000000000e+00
0.000000000000e+00
0.000000000000e+00
0.000000000000e+00
0.000000000000e+00
0.000000000000e+00
0.000000000000e+00
0.000000000000e+00
0.000000000000e+00
0.000000000000e+00
0.000000000000e+00
0.000000000000e+00
0.000000000000e+00
0.000000000000e+00
0.000000000000e+00
0.000000000000e+00
0.000000000000e+00
0.000000000000e+00
0.000000000000e+00
0.000000000000e+00
