# vtk DataFile Version 3.0
SFC long-time C3D8 dynamic frame 85 t=1.700000000000e+00
ASCII
DATASET UNSTRUCTURED_GRID
POINTS 250 float
-2.500000000000e-01 -2.500000000000e-01 0.000000000000e+00
-1.250000000000e-01 -2.500000000000e-01 0.000000000000e+00
0.000000000000e+00 -2.500000000000e-01 0.000000000000e+00
1.250000000000e-01 -2.500000000000e-01 0.000000000000e+00
2.500000000000e-01 -2.500000000000e-01 0.000000000000e+00
-2.500000000000e-01 -1.250000000000e-01 0.000000000000e+00
-1.250000000000e-01 -1.250000000000e-01 0.000000000000e+00
0.000000000000e+00 -1.250000000000e-01 0.000000000000e+00
1.250000000000e-01 -1.250000000000e-01 0.000000000000e+00
2.500000000000e-01 -1.250000000000e-01 0.000000000000e+00
-2.500000000000e-01 0.000000000000e+00 0.000000000000e+00
-1.250000000000e-01 0.000000000000e+00 0.000000000000e+00
0.000000000000e+00 0.000000000000e+00 0.000000000000e+00
1.250000000000e-01 0.000000000000e+00 0.000000000000e+00
2.500000000000e-01 0.000000000000e+00 0.000000000000e+00
-2.500000000000e-01 1.250000000000e-01 0.000000000000e+00
-1.250000000000e-01 1.250000000000e-01 0.000000000000e+00
0.000000000000e+00 1.250000000000e-01 0.000000000000e+00
1.250000000000e-01 1.250000000000e-01 0.000000000000e+00
2.500000000000e-01 1.250000000000e-01 0.000000000000e+00
-2.500000000000e-01 2.500000000000e-01 0.000000000000e+00
-1.250000000000e-01 2.500000000000e-01 0.000000000000e+00
0.000000000000e+00 2.500000000000e-01 0.000000000000e+00
1.250000000000e-01 2.500000000000e-01 0.000000000000e+00
2.500000000000e-01 2.500000000000e-01 0.000000000000e+00
-2.500000000000e-01 -2.500000000000e-01 6.000000000000e-02
-1.250000000000e-01 -2.500000000000e-01 6.000000000000e-02
0.000000000000e+00 -2.500000000000e-01 6.000000000000e-02
1.250000000000e-01 -2.500000000000e-01 6.000000000000e-02
2.500000000000e-01 -2.500000000000e-01 6.000000000000e-02
-2.500000000000e-01 -1.250000000000e-01 6.000000000000e-02
-1.250000000000e-01 -1.250000000000e-01 6.000000000000e-02
0.000000000000e+00 -1.250000000000e-01 6.000000000000e-02
1.250000000000e-01 -1.250000000000e-01 6.000000000000e-02
2.500000000000e-01 -1.250000000000e-01 6.000000000000e-02
-2.500000000000e-01 0.000000000000e+00 6.000000000000e-02
-1.250000000000e-01 0.000000000000e+00 6.000000000000e-02
0.000000000000e+00 0.000000000000e+00 6.000000000000e-02
1.250000000000e-01 0.000000000000e+00 6.000000000000e-02
2.500000000000e-01 0.000000000000e+00 6.000000000000e-02
-2.500000000000e-01 1.250000000000e-01 6.000000000000e-02
-1.250000000000e-01 1.250000000000e-01 6.000000000000e-02
0.000000000000e+00 1.250000000000e-01 6.000000000000e-02
1.250000000000e-01 1.250000000000e-01 6.000000000000e-02
2.500000000000e-01 1.250000000000e-01 6.000000000000e-02
-2.500000000000e-01 2.500000000000e-01 6.000000000000e-02
-1.250000000000e-01 2.500000000000e-01 6.000000000000e-02
0.000000000000e+00 2.500000000000e-01 6.000000000000e-02
1.250000000000e-01 2.500000000000e-01 6.000000000000e-02
2.500000000000e-01 2.500000000000e-01 6.000000000000e-02
-2.500000000000e-01 -2.500000000000e-01 1.200000000000e-01
-1.250000000000e-01 -2.500000000000e-01 1.200000000000e-01
0.000000000000e+00 -2.500000000000e-01 1.200000000000e-01
1.250000000000e-01 -2.500000000000e-01 1.200000000000e-01
2.500000000000e-01 -2.500000000000e-01 1.200000000000e-01
-2.500000000000e-01 -1.250000000000e-01 1.200000000000e-01
-1.250000000000e-01 -1.250000000000e-01 1.200000000000e-01
0.000000000000e+00 -1.250000000000e-01 1.200000000000e-01
1.250000000000e-01 -1.250000000000e-01 1.200000000000e-01
2.500000000000e-01 -1.250000000000e-01 1.200000000000e-01
-2.500000000000e-01 0.000000000000e+00 1.200000000000e-01
-1.250000000000e-01 0.000000000000e+00 1.200000000000e-01
0.000000000000e+00 0.000000000000e+00 1.200000000000e-01
1.250000000000e-01 0.000000000000e+00 1.200000000000e-01
2.500000000000e-01 0.000000000000e+00 1.200000000000e-01
-2.500000000000e-01 1.250000000000e-01 1.200000000000e-01
-1.250000000000e-01 1.250000000000e-01 1.200000000000e-01
0.000000000000e+00 1.250000000000e-01 1.200000000000e-01
1.250000000000e-01 1.250000000000e-01 1.200000000000e-01
2.500000000000e-01 1.250000000000e-01 1.200000000000e-01
-2.500000000000e-01 2.500000000000e-01 1.200000000000e-01
-1.250000000000e-01 2.500000000000e-01 1.200000000000e-01
0.000000000000e+00 2.500000000000e-01 1.200000000000e-01
1.250000000000e-01 2.500000000000e-01 1.200000000000e-01
2.500000000000e-01 2.500000000000e-01 1.200000000000e-01
-2.500000000000e-01 -2.500000000000e-01 1.800000000000e-01
-1.250000000000e-01 -2.500000000000e-01 1.800000000000e-01
0.000000000000e+00 -2.500000000000e-01 1.800000000000e-01
1.250000000000e-01 -2.500000000000e-01 1.800000000000e-01
2.500000000000e-01 -2.500000000000e-01 1.800000000000e-01
-2.500000000000e-01 -1.250000000000e-01 1.800000000000e-01
-1.250000000000e-01 -1.250000000000e-01 1.800000000000e-01
0.000000000000e+00 -1.250000000000e-01 1.800000000000e-01
1.250000000000e-01 -1.250000000000e-01 1.800000000000e-01
2.500000000000e-01 -1.250000000000e-01 1.800000000000e-01
-2.500000000000e-01 0.000000000000e+00 1.800000000000e-01
-1.250000000000e-01 0.000000000000e+00 1.800000000000e-01
0.000000000000e+00 0.000000000000e+00 1.800000000000e-01
1.250000000000e-01 0.000000000000e+00 1.800000000000e-01
2.500000000000e-01 0.000000000000e+00 1.800000000000e-01
-2.500000000000e-01 1.250000000000e-01 1.800000000000e-01
-1.250000000000e-01 1.250000000000e-01 1.800000000000e-01
0.000000000000e+00 1.250000000000e-01 1.800000000000e-01
1.250000000000e-01 1.250000000000e-01 1.800000000000e-01
2.500000000000e-01 1.250000000000e-01 1.800000000000e-01
-2.500000000000e-01 2.500000000000e-01 1.800000000000e-01
-1.250000000000e-01 2.500000000000e-01 1.800000000000e-01
0.000000000000e+00 2.500000000000e-01 1.800000000000e-01
1.250000000000e-01 2.500000000000e-01 1.800000000000e-01
2.500000000000e-01 2.500000000000e-01 1.800000000000e-01
-2.500000000000e-01 -2.500000000000e-01 2.400000000000e-01
-1.250000000000e-01 -2.500000000000e-01 2.400000000000e-01
0.000000000000e+00 -2.500000000000e-01 2.400000000000e-01
1.250000000000e-01 -2.500000000000e-01 2.400000000000e-01
2.500000000000e-01 -2.500000000000e-01 2.400000000000e-01
-2.500000000000e-01 -1.250000000000e-01 2.400000000000e-01
-1.250000000000e-01 -1.250000000000e-01 2.400000000000e-01
0.000000000000e+00 -1.250000000000e-01 2.400000000000e-01
1.250000000000e-01 -1.250000000000e-01 2.400000000000e-01
2.500000000000e-01 -1.250000000000e-01 2.400000000000e-01
-2.500000000000e-01 0.000000000000e+00 2.400000000000e-01
-1.250000000000e-01 0.000000000000e+00 2.400000000000e-01
0.000000000000e+00 0.000000000000e+00 2.400000000000e-01
1.250000000000e-01 0.000000000000e+00 2.400000000000e-01
2.500000000000e-01 0.000000000000e+00 2.400000000000e-01
-2.500000000000e-01 1.250000000000e-01 2.400000000000e-01
-1.250000000000e-01 1.250000000000e-01 2.400000000000e-01
0.000000000000e+00 1.250000000000e-01 2.400000000000e-01
1.250000000000e-01 1.250000000000e-01 2.400000000000e-01
2.500000000000e-01 1.250000000000e-01 2.400000000000e-01
-2.500000000000e-01 2.500000000000e-01 2.400000000000e-01
-1.250000000000e-01 2.500000000000e-01 2.400000000000e-01
0.000000000000e+00 2.500000000000e-01 2.400000000000e-01
1.250000000000e-01 2.500000000000e-01 2.400000000000e-01
2.500000000000e-01 2.500000000000e-01 2.400000000000e-01
-2.500016883180e-01 -2.500016883180e-01 2.399493850922e-01
-1.250008492183e-01 -2.500017078193e-01 2.399488990117e-01
2.268121421667e-14 -2.500017298218e-01 2.399487506887e-01
1.250008492183e-01 -2.500017078193e-01 2.399488990117e-01
2.500016883180e-01 -2.500016883180e-01 2.399493850922e-01
-2.500017078193e-01 -1.250008492183e-01 2.399488990117e-01
-1.250008549661e-01 -1.250008549661e-01 2.399483956498e-01
2.160763832170e-14 -1.250008700581e-01 2.399482376554e-01
1.250008549661e-01 -1.250008549661e-01 2.399483956498e-01
2.500017078193e-01 -1.250008492183e-01 2.399488990117e-01
-2.500017298217e-01 -2.830956402543e-14 2.399487506887e-01
-1.250008700580e-01 -2.724515370414e-14 2.399482376554e-01
2.053538977702e-14 -2.618485301514e-14 2.399480768998e-01
1.250008700581e-01 -2.512422593719e-14 2.399482376554e-01
2.500017298218e-01 -2.405632936010e-14 2.399487506887e-01
-2.500017078193e-01 1.250008492183e-01 2.399488990117e-01
-1.250008549661e-01 1.250008549661e-01 2.399483956498e-01
1.947253799228e-14 1.250008700580e-01 2.399482376554e-01
1.250008549661e-01 1.250008549661e-01 2.399483956498e-01
2.500017078193e-01 1.250008492183e-01 2.399488990117e-01
-2.500016883180e-01 2.500016883180e-01 2.399493850922e-01
-1.250008492183e-01 2.500017078193e-01 2.399488990117e-01
1.841481325567e-14 2.500017298217e-01 2.399487506887e-01
1.250008492183e-01 2.500017078193e-01 2.399488990117e-01
2.500016883180e-01 2.500016883180e-01 2.399493850922e-01
-2.500013589480e-01 -2.500013589480e-01 3.049479944630e-01
-1.250006668339e-01 -2.500013740187e-01 3.049474899678e-01
2.266743532275e-14 -2.500013918760e-01 3.049473444813e-01
1.250006668339e-01 -2.500013740187e-01 3.049474899678e-01
2.500013589480e-01 -2.500013589480e-01 3.049479944630e-01
-2.500013740186e-01 -1.250006668339e-01 3.049474899678e-01
-1.250006682638e-01 -1.250006682639e-01 3.049469703494e-01
2.159391188865e-14 -1.250006795156e-01 3.049468160818e-01
1.250006682639e-01 -1.250006682639e-01 3.049469703494e-01
2.500013740186e-01 -1.250006668339e-01 3.049474899678e-01
-2.500013918760e-01 -2.830732201466e-14 3.049473444813e-01
-1.250006795156e-01 -2.724626032392e-14 3.049468160818e-01
2.052792775572e-14 -2.618422004508e-14 3.049466580778e-01
1.250006795156e-01 -2.511847064441e-14 3.049468160818e-01
2.500013918760e-01 -2.405457211581e-14 3.049473444813e-01
-2.500013740186e-01 1.250006668339e-01 3.049474899678e-01
-1.250006682638e-01 1.250006682638e-01 3.049469703494e-01
1.946366460071e-14 1.250006795156e-01 3.049468160818e-01
1.250006682639e-01 1.250006682638e-01 3.049469703494e-01
2.500013740186e-01 1.250006668339e-01 3.049474899678e-01
-2.500013589480e-01 2.500013589480e-01 3.049479944630e-01
-1.250006668339e-01 2.500013740186e-01 3.049474899678e-01
1.840448993792e-14 2.500013918760e-01 3.049473444813e-01
1.250006668339e-01 2.500013740186e-01 3.049474899678e-01
2.500013589480e-01 2.500013589480e-01 3.049479944630e-01
-2.500009522989e-01 -2.500009522990e-01 3.699469685577e-01
-1.250004661308e-01 -2.500009585662e-01 3.699464557207e-01
2.265438896404e-14 -2.500009700856e-01 3.699463210490e-01
1.250004661308e-01 -2.500009585662e-01 3.699464557207e-01
2.500009522990e-01 -2.500009522990e-01 3.699469685577e-01
-2.500009585662e-01 -1.250004661308e-01 3.699464557207e-01
-1.250004667776e-01 -1.250004667777e-01 3.699459299468e-01
2.158313040706e-14 -1.250004741639e-01 3.699457882398e-01
1.250004667777e-01 -1.250004667777e-01 3.699459299468e-01
2.500009585662e-01 -1.250004661308e-01 3.699464557207e-01
-2.500009700856e-01 -2.830555176231e-14 3.699463210490e-01
-1.250004741638e-01 -2.724403099743e-14 3.699457882398e-01
2.051465706949e-14 -2.618100146651e-14 3.699456434643e-01
1.250004741639e-01 -2.511588200248e-14 3.699457882398e-01
2.500009700856e-01 -2.405049946103e-14 3.699463210490e-01
-2.500009585662e-01 1.250004661308e-01 3.699464557207e-01
-1.250004667776e-01 1.250004667776e-01 3.699459299468e-01
1.945290774318e-14 1.250004741638e-01 3.699457882398e-01
1.250004667777e-01 1.250004667776e-01 3.699459299468e-01
2.500009585662e-01 1.250004661308e-01 3.699464557207e-01
-2.500009522989e-01 2.500009522989e-01 3.699469685577e-01
-1.250004661308e-01 2.500009585662e-01 3.699464557207e-01
1.839090387376e-14 2.500009700856e-01 3.699463210490e-01
1.250004661308e-01 2.500009585662e-01 3.699464557207e-01
2.500009522990e-01 2.500009522989e-01 3.699469685577e-01
-2.500005365423e-01 -2.500005365423e-01 4.349463042468e-01
-1.250002696512e-01 -2.500005344566e-01 4.349458047210e-01
2.264679161052e-14 -2.500005404807e-01 4.349456728950e-01
1.250002696513e-01 -2.500005344565e-01 4.349458047210e-01
2.500005365423e-01 -2.500005365423e-01 4.349463042468e-01
-2.500005344565e-01 -1.250002696513e-01 4.349458047210e-01
-1.250002700000e-01 -1.250002700000e-01 4.349452941286e-01
2.157357548999e-14 -1.250002741965e-01 4.349451559018e-01
1.250002700000e-01 -1.250002700000e-01 4.349452941286e-01
2.500005344565e-01 -1.250002696513e-01 4.349458047210e-01
-2.500005404806e-01 -2.830038494299e-14 4.349456728950e-01
-1.250002741965e-01 -2.723960565343e-14 4.349451559018e-01
2.050441507431e-14 -2.617738434643e-14 4.349450147460e-01
1.250002741965e-01 -2.511012593783e-14 4.349451559018e-01
2.500005404806e-01 -2.404309915872e-14 4.349456728950e-01
-2.500005344565e-01 1.250002696512e-01 4.349458047210e-01
-1.250002700000e-01 1.250002700000e-01 4.349452941286e-01
1.944560422039e-14 1.250002741965e-01 4.349451559018e-01
1.250002700000e-01 1.250002700000e-01 4.349452941286e-01
2.500005344565e-01 1.250002696512e-01 4.349458047210e-01
-2.500005365423e-01 2.500005365423e-01 4.349463042468e-01
-1.250002696512e-01 2.500005344565e-01 4.349458047210e-01
1.838485567832e-14 2.500005404806e-01 4.349456728950e-01
1.250002696513e-01 2.500005344565e-01 4.349458047210e-01
2.500005365423e-01 2.500005365423e-01 4.349463042468e-01
-2.500001992239e-01 -2.500001992239e-01 4.999460429626e-01
-1.250000952411e-01 -2.500001944916e-01 4.999455559545e-01
2.263390435919e-14 -2.500001978806e-01 4.999454228991e-01
1.250000952412e-01 -2.500001944916e-01 4.999455559545e-01
2.500001992239e-01 -2.500001992239e-01 4.999460429626e-01
-2.500001944916e-01 -1.250000952412e-01 4.999455559545e-01
-1.250000931059e-01 -1.250000931059e-01 4.999450586257e-01
2.156483373169e-14 -1.250000947105e-01 4.999449190653e-01
1.250000931059e-01 -1.250000931059e-01 4.999450586257e-01
2.500001944916e-01 -1.250000952412e-01 4.999455559545e-01
-2.500001978805e-01 -2.830054388816e-14 4.999454228991e-01
-1.250000947105e-01 -2.723200943820e-14 4.999449190653e-01
2.049791571484e-14 -2.617215083656e-14 4.999447764086e-01
1.250000947105e-01 -2.510031078293e-14 4.999449190653e-01
2.500001978806e-01 -2.403470439938e-14 4.999454228991e-01
-2.500001944916e-01 1.250000952411e-01 4.999455559545e-01
-1.250000931059e-01 1.250000931059e-01 4.999450586257e-01
1.944047133539e-14 1.250000947105e-01 4.999449190653e-01
1.250000931059e-01 1.250000931059e-01 4.999450586257e-01
2.500001944916e-01 1.250000952411e-01 4.999455559545e-01
-2.500001992239e-01 2.500001992239e-01 4.999460429626e-01
-1.250000952411e-01 2.500001944915e-01 4.999455559545e-01
1.838357142287e-14 2.500001978805e-01 4.999454228991e-01
1.250000952412e-01 2.500001944915e-01 4.999455559545e-01
2.500001992239e-01 2.500001992239e-01 4.999460429626e-01
CELLS 128 1152
8 0 1 6 5 25 26 31 30
8 1 2 7 6 26 27 32 31
8 2 3 8 7 27 28 33 32
8 3 4 9 8 28 29 34 33
8 5 6 11 10 30 31 36 35
8 6 7 12 11 31 32 37 36
8 7 8 13 12 32 33 38 37
8 8 9 14 13 33 34 39 38
8 10 11 16 15 35 36 41 40
8 11 12 17 16 36 37 42 41
8 12 13 18 17 37 38 43 42
8 13 14 19 18 38 39 44 43
8 15 16 21 20 40 41 46 45
8 16 17 22 21 41 42 47 46
8 17 18 23 22 42 43 48 47
8 18 19 24 23 43 44 49 48
8 25 26 31 30 50 51 56 55
8 26 27 32 31 51 52 57 56
8 27 28 33 32 52 53 58 57
8 28 29 34 33 53 54 59 58
8 30 31 36 35 55 56 61 60
8 31 32 37 36 56 57 62 61
8 32 33 38 37 57 58 63 62
8 33 34 39 38 58 59 64 63
8 35 36 41 40 60 61 66 65
8 36 37 42 41 61 62 67 66
8 37 38 43 42 62 63 68 67
8 38 39 44 43 63 64 69 68
8 40 41 46 45 65 66 71 70
8 41 42 47 46 66 67 72 71
8 42 43 48 47 67 68 73 72
8 43 44 49 48 68 69 74 73
8 50 51 56 55 75 76 81 80
8 51 52 57 56 76 77 82 81
8 52 53 58 57 77 78 83 82
8 53 54 59 58 78 79 84 83
8 55 56 61 60 80 81 86 85
8 56 57 62 61 81 82 87 86
8 57 58 63 62 82 83 88 87
8 58 59 64 63 83 84 89 88
8 60 61 66 65 85 86 91 90
8 61 62 67 66 86 87 92 91
8 62 63 68 67 87 88 93 92
8 63 64 69 68 88 89 94 93
8 65 66 71 70 90 91 96 95
8 66 67 72 71 91 92 97 96
8 67 68 73 72 92 93 98 97
8 68 69 74 73 93 94 99 98
8 75 76 81 80 100 101 106 105
8 76 77 82 81 101 102 107 106
8 77 78 83 82 102 103 108 107
8 78 79 84 83 103 104 109 108
8 80 81 86 85 105 106 111 110
8 81 82 87 86 106 107 112 111
8 82 83 88 87 107 108 113 112
8 83 84 89 88 108 109 114 113
8 85 86 91 90 110 111 116 115
8 86 87 92 91 111 112 117 116
8 87 88 93 92 112 113 118 117
8 88 89 94 93 113 114 119 118
8 90 91 96 95 115 116 121 120
8 91 92 97 96 116 117 122 121
8 92 93 98 97 117 118 123 122
8 93 94 99 98 118 119 124 123
8 125 126 131 130 150 151 156 155
8 126 127 132 131 151 152 157 156
8 127 128 133 132 152 153 158 157
8 128 129 134 133 153 154 159 158
8 130 131 136 135 155 156 161 160
8 131 132 137 136 156 157 162 161
8 132 133 138 137 157 158 163 162
8 133 134 139 138 158 159 164 163
8 135 136 141 140 160 161 166 165
8 136 137 142 141 161 162 167 166
8 137 138 143 142 162 163 168 167
8 138 139 144 143 163 164 169 168
8 140 141 146 145 165 166 171 170
8 141 142 147 146 166 167 172 171
8 142 143 148 147 167 168 173 172
8 143 144 149 148 168 169 174 173
8 150 151 156 155 175 176 181 180
8 151 152 157 156 176 177 182 181
8 152 153 158 157 177 178 183 182
8 153 154 159 158 178 179 184 183
8 155 156 161 160 180 181 186 185
8 156 157 162 161 181 182 187 186
8 157 158 163 162 182 183 188 187
8 158 159 164 163 183 184 189 188
8 160 161 166 165 185 186 191 190
8 161 162 167 166 186 187 192 191
8 162 163 168 167 187 188 193 192
8 163 164 169 168 188 189 194 193
8 165 166 171 170 190 191 196 195
8 166 167 172 171 191 192 197 196
8 167 168 173 172 192 193 198 197
8 168 169 174 173 193 194 199 198
8 175 176 181 180 200 201 206 205
8 176 177 182 181 201 202 207 206
8 177 178 183 182 202 203 208 207
8 178 179 184 183 203 204 209 208
8 180 181 186 185 205 206 211 210
8 181 182 187 186 206 207 212 211
8 182 183 188 187 207 208 213 212
8 183 184 189 188 208 209 214 213
8 185 186 191 190 210 211 216 215
8 186 187 192 191 211 212 217 216
8 187 188 193 192 212 213 218 217
8 188 189 194 193 213 214 219 218
8 190 191 196 195 215 216 221 220
8 191 192 197 196 216 217 222 221
8 192 193 198 197 217 218 223 222
8 193 194 199 198 218 219 224 223
8 200 201 206 205 225 226 231 230
8 201 202 207 206 226 227 232 231
8 202 203 208 207 227 228 233 232
8 203 204 209 208 228 229 234 233
8 205 206 211 210 230 231 236 235
8 206 207 212 211 231 232 237 236
8 207 208 213 212 232 233 238 237
8 208 209 214 213 233 234 239 238
8 210 211 216 215 235 236 241 240
8 211 212 217 216 236 237 242 241
8 212 213 218 217 237 238 243 242
8 213 214 219 218 238 239 244 243
8 215 216 221 220 240 241 246 245
8 216 217 222 221 241 242 247 246
8 217 218 223 222 242 243 248 247
8 218 219 224 223 243 244 249 248
CELL_TYPES 128
12
12
12
12
12
12
12
12
12
12
12
12
12
12
12
12
12
12
12
12
12
12
12
12
12
12
12
12
12
12
12
12
12
12
12
12
12
12
12
12
12
12
12
12
12
12
12
12
12
12
12
12
12
12
12
12
12
12
12
12
12
12
12
12
12
12
12
12
12
12
12
12
12
12
12
12
12
12
12
12
12
12
12
12
12
12
12
12
12
12
12
12
12
12
12
12
12
12
12
12
12
12
12
12
12
12
12
12
12
12
12
12
12
12
12
12
12
12
12
12
12
12
12
12
12
12
12
12
POINT_DATA 250
VECTORS displacement float
0.000000000000e+00 0.000000000000e+00 0.000000000000e+00
0.000000000000e+00 0.000000000000e+00 0.000000000000e+00
0.000000000000e+00 0.000000000000e+00 0.000000000000e+00
0.000000000000e+00 0.000000000000e+00 0.000000000000e+00
0.000000000000e+00 0.000000000000e+00 0.000000000000e+00
0.000000000000e+00 0.000000000000e+00 0.000000000000e+00
0.000000000000e+00 0.000000000000e+00 0.000000000000e+00
0.000000000000e+00 0.000000000000e+00 0.000000000000e+00
0.000000000000e+00 0.000000000000e+00 0.000000000000e+00
0.000000000000e+00 0.000000000000e+00 0.000000000000e+00
0.000000000000e+00 0.000000000000e+00 0.000000000000e+00
0.000000000000e+00 0.000000000000e+00 0.000000000000e+00
0.000000000000e+00 0.000000000000e+00 0.000000000000e+00
0.000000000000e+00 0.000000000000e+00 0.000000000000e+00
0.000000000000e+00 0.000000000000e+00 0.000000000000e+00
0.000000000000e+00 0.000000000000e+00 0.000000000000e+00
0.000000000000e+00 0.000000000000e+00 0.000000000000e+00
0.000000000000e+00 0.000000000000e+00 0.000000000000e+00
0.000000000000e+00 0.000000000000e+00 0.000000000000e+00
0.000000000000e+00 0.000000000000e+00 0.000000000000e+00
0.000000000000e+00 0.000000000000e+00 0.000000000000e+00
0.000000000000e+00 0.000000000000e+00 0.000000000000e+00
0.000000000000e+00 0.000000000000e+00 0.000000000000e+00
0.000000000000e+00 0.000000000000e+00 0.000000000000e+00
0.000000000000e+00 0.000000000000e+00 0.000000000000e+00
0.000000000000e+00 0.000000000000e+00 0.000000000000e+00
0.000000000000e+00 0.000000000000e+00 0.000000000000e+00
0.000000000000e+00 0.000000000000e+00 0.000000000000e+00
0.000000000000e+00 0.000000000000e+00 0.000000000000e+00
0.000000000000e+00 0.000000000000e+00 0.000000000000e+00
0.000000000000e+00 0.000000000000e+00 0.000000000000e+00
0.000000000000e+00 0.000000000000e+00 0.000000000000e+00
0.000000000000e+00 0.000000000000e+00 0.000000000000e+00
0.000000000000e+00 0.000000000000e+00 0.000000000000e+00
0.000000000000e+00 0.000000000000e+00 0.000000000000e+00
0.000000000000e+00 0.000000000000e+00 0.000000000000e+00
0.000000000000e+00 0.000000000000e+00 0.000000000000e+00
0.000000000000e+00 0.000000000000e+00 0.000000000000e+00
0.000000000000e+00 0.000000000000e+00 0.000000000000e+00
0.000000000000e+00 0.000000000000e+00 0.000000000000e+00
0.000000000000e+00 0.000000000000e+00 0.000000000000e+00
0.000000000000e+00 0.000000000000e+00 0.000000000000e+00
0.000000000000e+00 0.000000000000e+00 0.000000000000e+00
0.000000000000e+00 0.000000000000e+00 0.000000000000e+00
0.000000000000e+00 0.000000000000e+00 0.000000000000e+00
0.000000000000e+00 0.000000000000e+00 0.000000000000e+00
0.000000000000e+00 0.000000000000e+00 0.000000000000e+00
0.000000000000e+00 0.000000000000e+00 0.000000000000e+00
0.000000000000e+00 0.000000000000e+00 0.000000000000e+00
0.000000000000e+00 0.000000000000e+00 0.000000000000e+00
0.000000000000e+00 0.000000000000e+00 0.000000000000e+00
0.000000000000e+00 0.000000000000e+00 0.000000000000e+00
0.000000000000e+00 0.000000000000e+00 0.000000000000e+00
0.000000000000e+00 0.000000000000e+00 0.000000000000e+00
0.000000000000e+00 0.000000000000e+00 0.000000000000e+00
0.000000000000e+00 0.000000000000e+00 0.000000000000e+00
0.000000000000e+00 0.000000000000e+00 0.000000000000e+00
0.000000000000e+00 0.000000000000e+00 0.000000000000e+00
0.000000000000e+00 0.000000000000e+00 0.000000000000e+00
0.000000000000e+00 0.000000000000e+00 0.000000000000e+00
0.000000000000e+00 0.000000000000e+00 0.000000000000e+00
0.000000000000e+00 0.000000000000e+00 0.000000000000e+00
0.000000000000e+00 0.000000000000e+00 0.000000000000e+00
0.000000000000e+00 0.000000000000e+00 0.000000000000e+00
0.000000000000e+00 0.000000000000e+00 0.000000000000e+00
0.000000000000e+00 0.000000000000e+00 0.000000000000e+00
0.000000000000e+00 0.000000000000e+00 0.000000000000e+00
0.000000000000e+00 0.000000000000e+00 0.000000000000e+00
0.000000000000e+00 0.000000000000e+00 0.000000000000e+00
0.000000000000e+00 0.000000000000e+00 0.000000000000e+00
0.000000000000e+00 0.000000000000e+00 0.000000000000e+00
0.000000000000e+00 0.000000000000e+00 0.000000000000e+00
0.000000000000e+00 0.000000000000e+00 0.000000000000e+00
0.000000000000e+00 0.000000000000e+00 0.000000000000e+00
0.000000000000e+00 0.000000000000e+00 0.000000000000e+00
0.000000000000e+00 0.000000000000e+00 0.000000000000e+00
0.000000000000e+00 0.000000000000e+00 0.000000000000e+00
0.000000000000e+00 0.000000000000e+00 0.000000000000e+00
0.000000000000e+00 0.000000000000e+00 0.000000000000e+00
0.000000000000e+00 0.000000000000e+00 0.000000000000e+00
0.000000000000e+00 0.000000000000e+00 0.000000000000e+00
0.000000000000e+00 0.000000000000e+00 0.000000000000e+00
0.000000000000e+00 0.000000000000e+00 0.000000000000e+00
0.000000000000e+00 0.000000000000e+00 0.000000000000e+00
0.000000000000e+00 0.000000000000e+00 0.000000000000e+00
0.000000000000e+00 0.000000000000e+00 0.000000000000e+00
0.000000000000e+00 0.000000000000e+00 0.000000000000e+00
0.000000000000e+00 0.000000000000e+00 0.000000000000e+00
0.000000000000e+00 0.000000000000e+00 0.000000000000e+00
0.000000000000e+00 0.000000000000e+00 0.000000000000e+00
0.000000000000e+00 0.000000000000e+00 0.000000000000e+00
0.000000000000e+00 0.000000000000e+00 0.000000000000e+00
0.000000000000e+00 0.000000000000e+00 0.000000000000e+00
0.000000000000e+00 0.000000000000e+00 0.000000000000e+00
0.000000000000e+00 0.000000000000e+00 0.000000000000e+00
0.000000000000e+00 0.000000000000e+00 0.000000000000e+00
0.000000000000e+00 0.000000000000e+00 0.000000000000e+00
0.000000000000e+00 0.000000000000e+00 0.000000000000e+00
0.000000000000e+00 0.000000000000e+00 0.000000000000e+00
0.000000000000e+00 0.000000000000e+00 0.000000000000e+00
0.000000000000e+00 0.000000000000e+00 0.000000000000e+00
0.000000000000e+00 0.000000000000e+00 0.000000000000e+00
0.000000000000e+00 0.000000000000e+00 0.000000000000e+00
0.000000000000e+00 0.000000000000e+00 0.000000000000e+00
0.000000000000e+00 0.000000000000e+00 0.000000000000e+00
0.000000000000e+00 0.000000000000e+00 0.000000000000e+00
0.000000000000e+00 0.000000000000e+00 0.000000000000e+00
0.000000000000e+00 0.000000000000e+00 0.000000000000e+00
0.000000000000e+00 0.000000000000e+00 0.000000000000e+00
0.000000000000e+00 0.000000000000e+00 0.000000000000e+00
0.000000000000e+00 0.000000000000e+00 0.000000000000e+00
0.000000000000e+00 0.000000000000e+00 0.000000000000e+00
0.000000000000e+00 0.000000000000e+00 0.000000000000e+00
0.000000000000e+00 0.000000000000e+00 0.000000000000e+00
0.000000000000e+00 0.000000000000e+00 0.000000000000e+00
0.000000000000e+00 0.000000000000e+00 0.000000000000e+00
0.000000000000e+00 0.000000000000e+00 0.000000000000e+00
0.000000000000e+00 0.000000000000e+00 0.000000000000e+00
0.000000000000e+00 0.000000000000e+00 0.000000000000e+00
0.000000000000e+00 0.000000000000e+00 0.000000000000e+00
0.000000000000e+00 0.000000000000e+00 0.000000000000e+00
0.000000000000e+00 0.000000000000e+00 0.000000000000e+00
0.000000000000e+00 0.000000000000e+00 0.000000000000e+00
0.000000000000e+00 0.000000000000e+00 0.000000000000e+00
0.000000000000e+00 0.000000000000e+00 0.000000000000e+00
-1.688317958336e-06 -1.688318009327e-06 -1.505061490782e-02
-8.492182873939e-07 -1.707819331013e-06 -1.505110098831e-02
2.268121421667e-14 -1.729821792991e-06 -1.505124931131e-02
8.492183327581e-07 -1.707819328866e-06 -1.505110098831e-02
1.688318003710e-06 -1.688318005060e-06 -1.505061490782e-02
-1.707819282157e-06 -8.492183383850e-07 -1.505110098831e-02
-8.549661010171e-07 -8.549661498686e-07 -1.505160435021e-02
2.160763832170e-14 -8.700580699877e-07 -1.505176234457e-02
8.549661442408e-07 -8.549661477402e-07 -1.505160435021e-02
1.707819325386e-06 -8.492183341154e-07 -1.505110098831e-02
-1.729821746250e-06 -2.830956402543e-14 -1.505124931131e-02
-8.700580232632e-07 -2.724515370414e-14 -1.505176234457e-02
2.053538977702e-14 -2.618485301514e-14 -1.505192310019e-02
8.700580643510e-07 -2.512422593719e-14 -1.505176234457e-02
1.729821787357e-06 -2.405632936010e-14 -1.505124931131e-02
-1.707819284275e-06 8.492182817615e-07 -1.505110098831e-02
-8.549661031469e-07 8.549660953739e-07 -1.505160435021e-02
1.947253799228e-14 8.700580176197e-07 -1.505176234457e-02
8.549661421079e-07 8.549660974979e-07 -1.505160435021e-02
1.707819323256e-06 8.492182860017e-07 -1.505110098831e-02
-1.688317962581e-06 1.688317952702e-06 -1.505061490782e-02
-8.492182916435e-07 1.707819276512e-06 -1.505110098831e-02
1.841481325567e-14 1.729821740618e-06 -1.505124931131e-02
8.492183284902e-07 1.707819278640e-06 -1.505110098831e-02
1.688317999444e-06 1.688317956944e-06 -1.505061490782e-02
-1.358947974778e-06 -1.358948025757e-06 -1.505200553701e-02
-6.668338674032e-07 -1.374018653002e-06 -1.505251003223e-02
2.266743532275e-14 -1.391876023590e-06 -1.505265551875e-02
6.668339127405e-07 -1.374018650867e-06 -1.505251003223e-02
1.358948020118e-06 -1.358948021486e-06 -1.505200553701e-02
-1.374018604159e-06 -6.668339183767e-07 -1.505251003223e-02
-6.682638449079e-07 -6.682638937540e-07 -1.505302965062e-02
2.159391188865e-14 -6.795156089800e-07 -1.505318391819e-02
6.682638881069e-07 -6.682638916214e-07 -1.505302965062e-02
1.374018647367e-06 -6.668339141105e-07 -1.505251003223e-02
-1.391875976884e-06 -2.830732201466e-14 -1.505265551875e-02
-6.795155622717e-07 -2.724626032392e-14 -1.505318391819e-02
2.052792775572e-14 -2.618422004508e-14 -1.505334192222e-02
6.795156033291e-07 -2.511847064441e-14 -1.505318391819e-02
1.391876017949e-06 -2.405457211581e-14 -1.505265551875e-02
-1.374018606289e-06 6.668338617628e-07 -1.505251003223e-02
-6.682638470391e-07 6.682638392648e-07 -1.505302965062e-02
1.946366460071e-14 6.795155566151e-07 -1.505318391819e-02
6.682638859741e-07 6.682638413850e-07 -1.505302965062e-02
1.374018645232e-06 6.668338660085e-07 -1.505251003223e-02
-1.358947979026e-06 1.358947969143e-06 -1.505200553701e-02
-6.668338716579e-07 1.374018598516e-06 -1.505251003223e-02
1.840448993792e-14 1.391875971229e-06 -1.505265551875e-02
6.668339084749e-07 1.374018600641e-06 -1.505251003223e-02
1.358948015857e-06 1.358947973384e-06 -1.505200553701e-02
-9.522989191098e-07 -9.522989700751e-07 -1.505303144233e-02
-4.661307933754e-07 -9.585662170636e-07 -1.505354427935e-02
2.265438896404e-14 -9.700856432851e-07 -1.505367895102e-02
4.661308386889e-07 -9.585662149313e-07 -1.505354427935e-02
9.522989644319e-07 -9.522989658051e-07 -1.505303144233e-02
-9.585661682295e-07 -4.661308443384e-07 -1.505354427935e-02
-4.667776286853e-07 -4.667776775135e-07 -1.505407005318e-02
2.158313040706e-14 -4.741638603783e-07 -1.505421176016e-02
4.667776718588e-07 -4.667776753849e-07 -1.505407005318e-02
9.585662114107e-07 -4.661308400718e-07 -1.505354427935e-02
-9.700855965880e-07 -2.830555176231e-14 -1.505367895102e-02
-4.741638136860e-07 -2.724403099743e-14 -1.505421176016e-02
2.051465706949e-14 -2.618100146651e-14 -1.505435653566e-02
4.741638547167e-07 -2.511588200248e-14 -1.505421176016e-02
9.700856376275e-07 -2.405049946103e-14 -1.505367895102e-02
-9.585661703636e-07 4.661307877312e-07 -1.505354427935e-02
-4.667776308174e-07 4.667776230346e-07 -1.505407005318e-02
1.945290774318e-14 4.741638080215e-07 -1.505421176016e-02
4.667776697261e-07 4.667776251565e-07 -1.505407005318e-02
9.585662092834e-07 4.661307919766e-07 -1.505354427935e-02
-9.522989233619e-07 9.522989134732e-07 -1.505303144233e-02
-4.661307976329e-07 9.585661625858e-07 -1.505354427935e-02
1.839090387376e-14 9.700855909263e-07 -1.505367895102e-02
4.661308344236e-07 9.585661647094e-07 -1.505354427935e-02
9.522989601621e-07 9.522989177190e-07 -1.505303144233e-02
-5.365422930556e-07 -5.365423440103e-07 -1.505369575322e-02
-2.696512130734e-07 -5.344565519051e-07 -1.505419527899e-02
2.264679161052e-14 -5.404806520992e-07 -1.505432710501e-02
2.696512583661e-07 -5.344565497767e-07 -1.505419527899e-02
5.365423383527e-07 -5.365423397405e-07 -1.505369575321e-02
-5.344565030875e-07 -2.696512640241e-07 -1.505419527899e-02
-2.699999650010e-07 -2.700000138184e-07 -1.505470587143e-02
2.157357548999e-14 -2.741965245335e-07 -1.505484409818e-02
2.700000081530e-07 -2.700000116881e-07 -1.505470587143e-02
5.344565462457e-07 -2.696512597564e-07 -1.505419527899e-02
-5.404806054145e-07 -2.830038494299e-14 -1.505432710501e-02
-2.741964778499e-07 -2.723960565343e-14 -1.505484409818e-02
2.050441507431e-14 -2.617738434643e-14 -1.505498525398e-02
2.741965188631e-07 -2.511012593783e-14 -1.505484409818e-02
5.404806464345e-07 -2.404309915872e-14 -1.505432710501e-02
-5.344565052203e-07 2.696512074251e-07 -1.505419527899e-02
-2.699999671329e-07 2.699999593447e-07 -1.505470587143e-02
1.944560422039e-14 2.741964721831e-07 -1.505484409818e-02
2.700000060237e-07 2.699999614686e-07 -1.505470587143e-02
5.344565441168e-07 2.696512116744e-07 -1.505419527899e-02
-5.365422973085e-07 5.365422874113e-07 -1.505369575322e-02
-2.696512173298e-07 5.344564974349e-07 -1.505419527899e-02
1.838485567832e-14 5.404805997503e-07 -1.505432710501e-02
2.696512541029e-07 5.344564995593e-07 -1.505419527899e-02
5.365423340886e-07 5.365422916619e-07 -1.505369575321e-02
-1.992238715261e-07 -1.992239224674e-07 -1.505395703745e-02
-9.524111958995e-08 -1.944915995822e-07 -1.505444404550e-02
2.263390435919e-14 -1.978805621648e-07 -1.505457710090e-02
9.524116485968e-08 -1.944915974366e-07 -1.505444404550e-02
1.992239168055e-07 -1.992239182107e-07 -1.505395703745e-02
-1.944915507722e-07 -9.524117053130e-08 -1.505444404550e-02
-9.310586255370e-08 -9.310591135863e-08 -1.505494137431e-02
2.156483373169e-14 -9.471052840973e-08 -1.505508093475e-02
9.310590568339e-08 -9.310590922700e-08 -1.505494137431e-02
1.944915938993e-07 -9.524116626534e-08 -1.505444404550e-02
-1.978805154887e-07 -2.830054388816e-14 -1.505457710090e-02
-9.471048173708e-08 -2.723200943820e-14 -1.505508093475e-02
2.049791571484e-14 -2.617215083656e-14 -1.505522359138e-02
9.471052272690e-08 -2.510031078293e-14 -1.505508093475e-02
1.978805564747e-07 -2.403470439938e-14 -1.505457710090e-02
-1.944915528956e-07 9.524111393780e-08 -1.505444404550e-02
-9.310586468328e-08 9.310585688722e-08 -1.505494137431e-02
1.944047133539e-14 9.471047606166e-08 -1.505508093475e-02
9.310590355713e-08 9.310585901780e-08 -1.505494137431e-02
1.944915917666e-07 9.524111819326e-08 -1.505444404550e-02
-1.992238757939e-07 1.992238658888e-07 -1.505395703745e-02
-9.524112384969e-08 1.944915450994e-07 -1.505444404550e-02
1.838357142287e-14 1.978805098180e-07 -1.505457710090e-02
9.524116060739e-08 1.944915472257e-07 -1.505444404550e-02
1.992239125416e-07 1.992238701387e-07 -1.505395703745e-02
SCALARS displacement_magnitude float 1
LOOKUP_TABLE default
0.000000000000e+00
0.000000000000e+00
0.000000000000e+00
0.000000000000e+00
0.000000000000e+00
0.000000000000e+00
0.000000000000e+00
0.000000000000e+00
0.000000000000e+00
0.000000000000e+00
0.000000000000e+00
0.000000000000e+00
0.000000000000e+00
0.000000000000e+00
0.000000000000e+00
0.000000000000e+00
0.000000000000e+00
0.000000000000e+00
0.000000000000e+00
0.000000000000e+00
0.000000000000e+00
0.000000000000e+00
0.000000000000e+00
0.000000000000e+00
0.000000000000e+00
0.000000000000e+00
0.000000000000e+00
0.000000000000e+00
0.000000000000e+00
0.000000000000e+00
0.000000000000e+00
0.000000000000e+00
0.000000000000e+00
0.000000000000e+00
0.000000000000e+00
0.000000000000e+00
0.000000000000e+00
0.000000000000e+00
0.000000000000e+00
0.000000000000e+00
0.000000000000e+00
0.000000000000e+00
0.000000000000e+00
0.000000000000e+00
0.000000000000e+00
0.000000000000e+00
0.000000000000e+00
0.000000000000e+00
0.000000000000e+00
0.000000000000e+00
0.000000000000e+00
0.000000000000e+00
0.000000000000e+00
0.000000000000e+00
0.000000000000e+00
0.000000000000e+00
0.000000000000e+00
0.000000000000e+00
0.000000000000e+00
0.000000000000e+00
0.000000000000e+00
0.000000000000e+00
0.000000000000e+00
0.000000000000e+00
0.000000000000e+00
0.000000000000e+00
0.000000000000e+00
0.000000000000e+00
0.000000000000e+00
0.000000000000e+00
0.000000000000e+00
0.000000000000e+00
0.000000000000e+00
0.000000000000e+00
0.000000000000e+00
0.000000000000e+00
0.000000000000e+00
0.000000000000e+00
0.000000000000e+00
0.000000000000e+00
0.000000000000e+00
0.000000000000e+00
0.000000000000e+00
0.000000000000e+00
0.000000000000e+00
0.000000000000e+00
0.000000000000e+00
0.000000000000e+00
0.000000000000e+00
0.000000000000e+00
0.000000000000e+00
0.000000000000e+00
0.000000000000e+00
0.000000000000e+00
0.000000000000e+00
0.000000000000e+00
0.000000000000e+00
0.000000000000e+00
0.000000000000e+00
0.000000000000e+00
0.000000000000e+00
0.000000000000e+00
0.000000000000e+00
0.000000000000e+00
0.000000000000e+00
0.000000000000e+00
0.000000000000e+00
0.000000000000e+00
0.000000000000e+00
0.000000000000e+00
0.000000000000e+00
0.000000000000e+00
0.000000000000e+00
0.000000000000e+00
0.000000000000e+00
0.000000000000e+00
0.000000000000e+00
0.000000000000e+00
0.000000000000e+00
0.000000000000e+00
0.000000000000e+00
0.000000000000e+00
0.000000000000e+00
0.000000000000e+00
0.000000000000e+00
1.505061509720e-02
1.505110110916e-02
1.505124941072e-02
1.505110110916e-02
1.505061509720e-02
1.505110110916e-02
1.505160439877e-02
1.505176236972e-02
1.505160439877e-02
1.505110110916e-02
1.505124941072e-02
1.505176236972e-02
1.505192310019e-02
1.505176236972e-02
1.505124941072e-02
1.505110110916e-02
1.505160439877e-02
1.505176236972e-02
1.505160439877e-02
1.505110110916e-02
1.505061509720e-02
1.505110110916e-02
1.505124941072e-02
1.505110110916e-02
1.505061509720e-02
1.505200565970e-02
1.505251010971e-02
1.505265558310e-02
1.505251010971e-02
1.505200565970e-02
1.505251010971e-02
1.505302968028e-02
1.505318393352e-02
1.505302968028e-02
1.505251010971e-02
1.505265558310e-02
1.505318393352e-02
1.505334192222e-02
1.505318393352e-02
1.505265558310e-02
1.505251010971e-02
1.505302968028e-02
1.505318393352e-02
1.505302968028e-02
1.505251010971e-02
1.505200565970e-02
1.505251010971e-02
1.505265558310e-02
1.505251010971e-02
1.505200565970e-02
1.505303150257e-02
1.505354431708e-02
1.505367898228e-02
1.505354431708e-02
1.505303150257e-02
1.505354431708e-02
1.505407006765e-02
1.505421176763e-02
1.505407006765e-02
1.505354431708e-02
1.505367898228e-02
1.505421176763e-02
1.505435653566e-02
1.505421176763e-02
1.505367898228e-02
1.505354431708e-02
1.505407006765e-02
1.505421176763e-02
1.505407006765e-02
1.505354431708e-02
1.505303150257e-02
1.505354431708e-02
1.505367898228e-02
1.505354431708e-02
1.505303150257e-02
1.505369577234e-02
1.505419529089e-02
1.505432711471e-02
1.505419529089e-02
1.505369577234e-02
1.505419529089e-02
1.505470587627e-02
1.505484410068e-02
1.505470587627e-02
1.505419529089e-02
1.505432711471e-02
1.505484410068e-02
1.505498525398e-02
1.505484410068e-02
1.505432711471e-02
1.505419529089e-02
1.505470587627e-02
1.505484410068e-02
1.505470587627e-02
1.505419529089e-02
1.505369577234e-02
1.505419529089e-02
1.505432711471e-02
1.505419529089e-02
1.505369577234e-02
1.505395704009e-02
1.505444404706e-02
1.505457710221e-02
1.505444404706e-02
1.505395704009e-02
1.505444404706e-02
1.505494137488e-02
1.505508093504e-02
1.505494137488e-02
1.505444404706e-02
1.505457710221e-02
1.505508093504e-02
1.505522359138e-02
1.505508093504e-02
1.505457710221e-02
1.505444404706e-02
1.505494137488e-02
1.505508093504e-02
1.505494137488e-02
1.505444404706e-02
1.505395704009e-02
1.505444404706e-02
1.505457710221e-02
1.505444404706e-02
1.505395704009e-02
CELL_DATA 128
SCALARS displacement_magnitude float 1
LOOKUP_TABLE default
0.000000000000e+00
0.000000000000e+00
0.000000000000e+00
0.000000000000e+00
0.000000000000e+00
0.000000000000e+00
0.000000000000e+00
0.000000000000e+00
0.000000000000e+00
0.000000000000e+00
0.000000000000e+00
0.000000000000e+00
0.000000000000e+00
0.000000000000e+00
0.000000000000e+00
0.000000000000e+00
0.000000000000e+00
0.000000000000e+00
0.000000000000e+00
0.000000000000e+00
0.000000000000e+00
0.000000000000e+00
0.000000000000e+00
0.000000000000e+00
0.000000000000e+00
0.000000000000e+00
0.000000000000e+00
0.000000000000e+00
0.000000000000e+00
0.000000000000e+00
0.000000000000e+00
0.000000000000e+00
0.000000000000e+00
0.000000000000e+00
0.000000000000e+00
0.000000000000e+00
0.000000000000e+00
0.000000000000e+00
0.000000000000e+00
0.000000000000e+00
0.000000000000e+00
0.000000000000e+00
0.000000000000e+00
0.000000000000e+00
0.000000000000e+00
0.000000000000e+00
0.000000000000e+00
0.000000000000e+00
0.000000000000e+00
0.000000000000e+00
0.000000000000e+00
0.000000000000e+00
0.000000000000e+00
0.000000000000e+00
0.000000000000e+00
0.000000000000e+00
0.000000000000e+00
0.000000000000e+00
0.000000000000e+00
0.000000000000e+00
0.000000000000e+00
0.000000000000e+00
0.000000000000e+00
0.000000000000e+00
1.505180965921e-02
1.505213707437e-02
1.505213707437e-02
1.505180965921e-02
1.505213707437e-02
1.505247396349e-02
1.505247396349e-02
1.505213707437e-02
1.505213707437e-02
1.505247396349e-02
1.505247396349e-02
1.505213707437e-02
1.505180965921e-02
1.505213707437e-02
1.505213707437e-02
1.505180965921e-02
1.505303072047e-02
1.505336055516e-02
1.505336055516e-02
1.505303072047e-02
1.505336055516e-02
1.505369870101e-02
1.505369870101e-02
1.505336055516e-02
1.505336055516e-02
1.505369870101e-02
1.505369870101e-02
1.505336055516e-02
1.505303072047e-02
1.505336055516e-02
1.505336055516e-02
1.505303072047e-02
1.505387280435e-02
1.505419718965e-02
1.505419718965e-02
1.505387280435e-02
1.505419718965e-02
1.505452868377e-02
1.505452868377e-02
1.505419718965e-02
1.505419718965e-02
1.505452868377e-02
1.505452868377e-02
1.505419718965e-02
1.505387280435e-02
1.505419718965e-02
1.505419718965e-02
1.505387280435e-02
1.505432234244e-02
1.505463948022e-02
1.505463948022e-02
1.505432234244e-02
1.505463948022e-02
1.505496327099e-02
1.505496327099e-02
1.505463948022e-02
1.505463948022e-02
1.505496327099e-02
1.505496327099e-02
1.505463948022e-02
1.505432234244e-02
1.505463948022e-02
1.505463948022e-02
1.505432234244e-02
SCALARS engineering_strain_norm float 1
LOOKUP_TABLE default
0.000000000000e+00
0.000000000000e+00
0.000000000000e+00
0.000000000000e+00
0.000000000000e+00
0.000000000000e+00
0.000000000000e+00
0.000000000000e+00
0.000000000000e+00
0.000000000000e+00
0.000000000000e+00
0.000000000000e+00
0.000000000000e+00
0.000000000000e+00
0.000000000000e+00
0.000000000000e+00
0.000000000000e+00
0.000000000000e+00
0.000000000000e+00
0.000000000000e+00
0.000000000000e+00
0.000000000000e+00
0.000000000000e+00
0.000000000000e+00
0.000000000000e+00
0.000000000000e+00
0.000000000000e+00
0.000000000000e+00
0.000000000000e+00
0.000000000000e+00
0.000000000000e+00
0.000000000000e+00
0.000000000000e+00
0.000000000000e+00
0.000000000000e+00
0.000000000000e+00
0.000000000000e+00
0.000000000000e+00
0.000000000000e+00
0.000000000000e+00
0.000000000000e+00
0.000000000000e+00
0.000000000000e+00
0.000000000000e+00
0.000000000000e+00
0.000000000000e+00
0.000000000000e+00
0.000000000000e+00
0.000000000000e+00
0.000000000000e+00
0.000000000000e+00
0.000000000000e+00
0.000000000000e+00
0.000000000000e+00
0.000000000000e+00
0.000000000000e+00
0.000000000000e+00
0.000000000000e+00
0.000000000000e+00
0.000000000000e+00
0.000000000000e+00
0.000000000000e+00
0.000000000000e+00
0.000000000000e+00
2.336597558963e-05
2.346238912035e-05
2.346238912037e-05
2.336597558964e-05
2.346238912041e-05
2.353925046274e-05
2.353925046277e-05
2.346238912038e-05
2.346238912036e-05
2.353925046281e-05
2.353925046279e-05
2.346238912038e-05
2.336597558958e-05
2.346238912031e-05
2.346238912043e-05
2.336597558969e-05
1.728449837153e-05
1.720590656721e-05
1.720590656728e-05
1.728449837152e-05
1.720590656723e-05
1.709238167893e-05
1.709238167894e-05
1.720590656725e-05
1.720590656730e-05
1.709238167897e-05
1.709238167897e-05
1.720590656732e-05
1.728449837151e-05
1.720590656722e-05
1.720590656726e-05
1.728449837163e-05
1.091884171398e-05
1.076955712295e-05
1.076955712300e-05
1.091884171401e-05
1.076955712294e-05
1.061070085724e-05
1.061070085730e-05
1.076955712300e-05
1.076955712303e-05
1.061070085734e-05
1.061070085736e-05
1.076955712305e-05
1.091884171395e-05
1.076955712296e-05
1.076955712299e-05
1.091884171411e-05
4.355533793639e-06
4.278787724803e-06
4.278787724760e-06
4.355533793667e-06
4.278787724827e-06
4.206017251101e-06
4.206017251169e-06
4.278787724879e-06
4.278787724790e-06
4.206017251132e-06
4.206017251179e-06
4.278787724801e-06
4.355533793680e-06
4.278787724837e-06
4.278787724787e-06
4.355533793670e-06
SCALARS von_mises float 1
LOOKUP_TABLE default
0.000000000000e+00
0.000000000000e+00
0.000000000000e+00
0.000000000000e+00
0.000000000000e+00
0.000000000000e+00
0.000000000000e+00
0.000000000000e+00
0.000000000000e+00
0.000000000000e+00
0.000000000000e+00
0.000000000000e+00
0.000000000000e+00
0.000000000000e+00
0.000000000000e+00
0.000000000000e+00
0.000000000000e+00
0.000000000000e+00
0.000000000000e+00
0.000000000000e+00
0.000000000000e+00
0.000000000000e+00
0.000000000000e+00
0.000000000000e+00
0.000000000000e+00
0.000000000000e+00
0.000000000000e+00
0.000000000000e+00
0.000000000000e+00
0.000000000000e+00
0.000000000000e+00
0.000000000000e+00
0.000000000000e+00
0.000000000000e+00
0.000000000000e+00
0.000000000000e+00
0.000000000000e+00
0.000000000000e+00
0.000000000000e+00
0.000000000000e+00
0.000000000000e+00
0.000000000000e+00
0.000000000000e+00
0.000000000000e+00
0.000000000000e+00
0.000000000000e+00
0.000000000000e+00
0.000000000000e+00
0.000000000000e+00
0.000000000000e+00
0.000000000000e+00
0.000000000000e+00
0.000000000000e+00
0.000000000000e+00
0.000000000000e+00
0.000000000000e+00
0.000000000000e+00
0.000000000000e+00
0.000000000000e+00
0.000000000000e+00
0.000000000000e+00
0.000000000000e+00
0.000000000000e+00
0.000000000000e+00
2.142261841365e+00
2.149911834489e+00
2.149911834490e+00
2.142261841366e+00
2.149911834493e+00
2.155448077840e+00
2.155448077844e+00
2.149911834490e+00
2.149911834488e+00
2.155448077846e+00
2.155448077846e+00
2.149911834491e+00
2.142261841360e+00
2.149911834484e+00
2.149911834496e+00
2.142261841371e+00
1.589788363194e+00
1.581011301591e+00
1.581011301597e+00
1.589788363193e+00
1.581011301592e+00
1.568683806700e+00
1.568683806702e+00
1.581011301594e+00
1.581011301599e+00
1.568683806704e+00
1.568683806704e+00
1.581011301600e+00
1.589788363192e+00
1.581011301591e+00
1.581011301596e+00
1.589788363204e+00
1.003904717039e+00
9.909680591705e-01
9.909680591750e-01
1.003904717042e+00
9.909680591696e-01
9.774811979058e-01
9.774811979112e-01
9.909680591747e-01
9.909680591774e-01
9.774811979150e-01
9.774811979160e-01
9.909680591799e-01
1.003904717036e+00
9.909680591715e-01
9.909680591746e-01
1.003904717051e+00
4.075366562562e-01
4.002875003674e-01
4.002875003636e-01
4.075366562588e-01
4.002875003696e-01
3.936409847640e-01
3.936409847701e-01
4.002875003740e-01
4.002875003664e-01
3.936409847668e-01
3.936409847706e-01
4.002875003668e-01
4.075366562599e-01
4.002875003703e-01
4.002875003654e-01
4.075366562588e-01
SCALARS sdf_gap float 1
LOOKUP_TABLE default
0.000000000000e+00
0.000000000000e+00
0.000000000000e+00
0.000000000000e+00
0.000000000000e+00
0.000000000000e+00
0.000000000000e+00
0.000000000000e+00
0.000000000000e+00
0.000000000000e+00
0.000000000000e+00
0.000000000000e+00
0.000000000000e+00
0.000000000000e+00
0.000000000000e+00
0.000000000000e+00
0.000000000000e+00
0.000000000000e+00
0.000000000000e+00
0.000000000000e+00
0.000000000000e+00
0.000000000000e+00
0.000000000000e+00
0.000000000000e+00
0.000000000000e+00
0.000000000000e+00
0.000000000000e+00
0.000000000000e+00
0.000000000000e+00
0.000000000000e+00
0.000000000000e+00
0.000000000000e+00
0.000000000000e+00
0.000000000000e+00
0.000000000000e+00
0.000000000000e+00
0.000000000000e+00
0.000000000000e+00
0.000000000000e+00
0.000000000000e+00
0.000000000000e+00
0.000000000000e+00
0.000000000000e+00
0.000000000000e+00
0.000000000000e+00
0.000000000000e+00
0.000000000000e+00
0.000000000000e+00
0.000000000000e+00
0.000000000000e+00
0.000000000000e+00
0.000000000000e+00
0.000000000000e+00
0.000000000000e+00
0.000000000000e+00
0.000000000000e+00
0.000000000000e+00
0.000000000000e+00
0.000000000000e+00
0.000000000000e+00
0.000000000000e+00
0.000000000000e+00
0.000000000000e+00
0.000000000000e+00
-5.110530866403e-05
-5.142924860348e-05
-5.142924860347e-05
-5.110530866397e-05
-5.142924860352e-05
-5.176303488646e-05
-5.176303488645e-05
-5.142924860346e-05
-5.142924860351e-05
-5.176303488646e-05
-5.176303488646e-05
-5.142924860348e-05
-5.110530866405e-05
-5.142924860349e-05
-5.142924860348e-05
-5.110530866401e-05
0.000000000000e+00
0.000000000000e+00
0.000000000000e+00
0.000000000000e+00
0.000000000000e+00
0.000000000000e+00
0.000000000000e+00
0.000000000000e+00
0.000000000000e+00
0.000000000000e+00
0.000000000000e+00
0.000000000000e+00
0.000000000000e+00
0.000000000000e+00
0.000000000000e+00
0.000000000000e+00
0.000000000000e+00
0.000000000000e+00
0.000000000000e+00
0.000000000000e+00
0.000000000000e+00
0.000000000000e+00
0.000000000000e+00
0.000000000000e+00
0.000000000000e+00
0.000000000000e+00
0.000000000000e+00
0.000000000000e+00
0.000000000000e+00
0.000000000000e+00
0.000000000000e+00
0.000000000000e+00
0.000000000000e+00
0.000000000000e+00
0.000000000000e+00
0.000000000000e+00
0.000000000000e+00
0.000000000000e+00
0.000000000000e+00
0.000000000000e+00
0.000000000000e+00
0.000000000000e+00
0.000000000000e+00
0.000000000000e+00
0.000000000000e+00
0.000000000000e+00
0.000000000000e+00
0.000000000000e+00
SCALARS contact_pressure float 1
LOOKUP_TABLE default
0.000000000000e+00
0.000000000000e+00
0.000000000000e+00
0.000000000000e+00
0.000000000000e+00
0.000000000000e+00
0.000000000000e+00
0.000000000000e+00
0.000000000000e+00
0.000000000000e+00
0.000000000000e+00
0.000000000000e+00
0.000000000000e+00
0.000000000000e+00
0.000000000000e+00
0.000000000000e+00
0.000000000000e+00
0.000000000000e+00
0.000000000000e+00
0.000000000000e+00
0.000000000000e+00
0.000000000000e+00
0.000000000000e+00
0.000000000000e+00
0.000000000000e+00
0.000000000000e+00
0.000000000000e+00
0.000000000000e+00
0.000000000000e+00
0.000000000000e+00
0.000000000000e+00
0.000000000000e+00
0.000000000000e+00
0.000000000000e+00
0.000000000000e+00
0.000000000000e+00
0.000000000000e+00
0.000000000000e+00
0.000000000000e+00
0.000000000000e+00
0.000000000000e+00
0.000000000000e+00
0.000000000000e+00
0.000000000000e+00
0.000000000000e+00
0.000000000000e+00
0.000000000000e+00
0.000000000000e+00
0.000000000000e+00
0.000000000000e+00
0.000000000000e+00
0.000000000000e+00
0.000000000000e+00
0.000000000000e+00
0.000000000000e+00
0.000000000000e+00
0.000000000000e+00
0.000000000000e+00
0.000000000000e+00
0.000000000000e+00
0.000000000000e+00
0.000000000000e+00
0.000000000000e+00
0.000000000000e+00
2.555265433202e+00
2.571462430174e+00
2.571462430174e+00
2.555265433198e+00
2.571462430176e+00
2.588151744323e+00
2.588151744323e+00
2.571462430173e+00
2.571462430176e+00
2.588151744323e+00
2.588151744323e+00
2.571462430174e+00
2.555265433203e+00
2.571462430174e+00
2.571462430174e+00
2.555265433200e+00
0.000000000000e+00
0.000000000000e+00
0.000000000000e+00
0.000000000000e+00
0.000000000000e+00
0.000000000000e+00
0.000000000000e+00
0.000000000000e+00
0.000000000000e+00
0.000000000000e+00
0.000000000000e+00
0.000000000000e+00
0.000000000000e+00
0.000000000000e+00
0.000000000000e+00
0.000000000000e+00
0.000000000000e+00
0.000000000000e+00
0.000000000000e+00
0.000000000000e+00
0.000000000000e+00
0.000000000000e+00
0.000000000000e+00
0.000000000000e+00
0.000000000000e+00
0.000000000000e+00
0.000000000000e+00
0.000000000000e+00
0.000000000000e+00
0.000000000000e+00
0.000000000000e+00
0.000000000000e+00
0.000000000000e+00
0.000000000000e+00
0.000000000000e+00
0.000000000000e+00
0.000000000000e+00
0.000000000000e+00
0.000000000000e+00
0.000000000000e+00
0.000000000000e+00
0.000000000000e+00
0.000000000000e+00
0.000000000000e+00
0.000000000000e+00
0.000000000000e+00
0.000000000000e+00
0.000000000000e+00
SCALARS active_contact float 1
LOOKUP_TABLE default
0.000000000000e+00
0.000000000000e+00
0.000000000000e+00
0.000000000000e+00
0.000000000000e+00
0.000000000000e+00
0.000000000000e+00
0.000000000000e+00
0.000000000000e+00
0.000000000000e+00
0.000000000000e+00
0.000000000000e+00
0.000000000000e+00
0.000000000000e+00
0.000000000000e+00
0.000000000000e+00
0.000000000000e+00
0.000000000000e+00
0.000000000000e+00
0.000000000000e+00
0.000000000000e+00
0.000000000000e+00
0.000000000000e+00
0.000000000000e+00
0.000000000000e+00
0.000000000000e+00
0.000000000000e+00
0.000000000000e+00
0.000000000000e+00
0.000000000000e+00
0.000000000000e+00
0.000000000000e+00
0.000000000000e+00
0.000000000000e+00
0.000000000000e+00
0.000000000000e+00
0.000000000000e+00
0.000000000000e+00
0.000000000000e+00
0.000000000000e+00
0.000000000000e+00
0.000000000000e+00
0.000000000000e+00
0.000000000000e+00
0.000000000000e+00
0.000000000000e+00
0.000000000000e+00
0.000000000000e+00
0.000000000000e+00
0.000000000000e+00
0.000000000000e+00
0.000000000000e+00
0.000000000000e+00
0.000000000000e+00
0.000000000000e+00
0.000000000000e+00
0.000000000000e+00
0.000000000000e+00
0.000000000000e+00
0.000000000000e+00
0.000000000000e+00
0.000000000000e+00
0.000000000000e+00
0.000000000000e+00
1.000000000000e+00
1.000000000000e+00
1.000000000000e+00
1.000000000000e+00
1.000000000000e+00
1.000000000000e+00
1.000000000000e+00
1.000000000000e+00
1.000000000000e+00
1.000000000000e+00
1.000000000000e+00
1.000000000000e+00
1.000000000000e+00
1.000000000000e+00
1.000000000000e+00
1.000000000000e+00
0.000000000000e+00
0.000000000000e+00
0.000000000000e+00
0.000000000000e+00
0.000000000000e+00
0.000000000000e+00
0.000000000000e+00
0.000000000000e+00
0.000000000000e+00
0.000000000000e+00
0.000000000000e+00
0.000000000000e+00
0.000000000000e+00
0.000000000000e+00
0.000000000000e+00
0.000000000000e+00
0.000000000000e+00
0.000000000000e+00
0.000000000000e+00
0.000000000000e+00
0.000000000000e+00
0.000000000000e+00
0.000000000000e+00
0.000000000000e+00
0.000000000000e+00
0.000000000000e+00
0.000000000000e+00
0.000000000000e+00
0.000000000000e+00
0.000000000000e+00
0.000000000000e+00
0.000000000000e+00
0.000000000000e+00
0.000000000000e+00
0.000000000000e+00
0.000000000000e+00
0.000000000000e+00
0.000000000000e+00
0.000000000000e+00
0.000000000000e+00
0.000000000000e+00
0.000000000000e+00
0.000000000000e+00
0.000000000000e+00
0.000000000000e+00
0.000000000000e+00
0.000000000000e+00
0.000000000000e+00
