# vtk DataFile Version 3.0
SFC long-time C3D8 dynamic frame 117 t=2.340000000000e+00
ASCII
DATASET UNSTRUCTURED_GRID
POINTS 250 float
-2.500000000000e-01 -2.500000000000e-01 0.000000000000e+00
-1.250000000000e-01 -2.500000000000e-01 0.000000000000e+00
0.000000000000e+00 -2.500000000000e-01 0.000000000000e+00
1.250000000000e-01 -2.500000000000e-01 0.000000000000e+00
2.500000000000e-01 -2.500000000000e-01 0.000000000000e+00
-2.500000000000e-01 -1.250000000000e-01 0.000000000000e+00
-1.250000000000e-01 -1.250000000000e-01 0.000000000000e+00
0.000000000000e+00 -1.250000000000e-01 0.000000000000e+00
1.250000000000e-01 -1.250000000000e-01 0.000000000000e+00
2.500000000000e-01 -1.250000000000e-01 0.000000000000e+00
-2.500000000000e-01 0.000000000000e+00 0.000000000000e+00
-1.250000000000e-01 0.000000000000e+00 0.000000000000e+00
0.000000000000e+00 0.000000000000e+00 0.000000000000e+00
1.250000000000e-01 0.000000000000e+00 0.000000000000e+00
2.500000000000e-01 0.000000000000e+00 0.000000000000e+00
-2.500000000000e-01 1.250000000000e-01 0.000000000000e+00
-1.250000000000e-01 1.250000000000e-01 0.000000000000e+00
0.000000000000e+00 1.250000000000e-01 0.000000000000e+00
1.250000000000e-01 1.250000000000e-01 0.000000000000e+00
2.500000000000e-01 1.250000000000e-01 0.000000000000e+00
-2.500000000000e-01 2.500000000000e-01 0.000000000000e+00
-1.250000000000e-01 2.500000000000e-01 0.000000000000e+00
0.000000000000e+00 2.500000000000e-01 0.000000000000e+00
1.250000000000e-01 2.500000000000e-01 0.000000000000e+00
2.500000000000e-01 2.500000000000e-01 0.000000000000e+00
-2.500000000000e-01 -2.500000000000e-01 6.000000000000e-02
-1.250000000000e-01 -2.500000000000e-01 6.000000000000e-02
0.000000000000e+00 -2.500000000000e-01 6.000000000000e-02
1.250000000000e-01 -2.500000000000e-01 6.000000000000e-02
2.500000000000e-01 -2.500000000000e-01 6.000000000000e-02
-2.500000000000e-01 -1.250000000000e-01 6.000000000000e-02
-1.250000000000e-01 -1.250000000000e-01 6.000000000000e-02
0.000000000000e+00 -1.250000000000e-01 6.000000000000e-02
1.250000000000e-01 -1.250000000000e-01 6.000000000000e-02
2.500000000000e-01 -1.250000000000e-01 6.000000000000e-02
-2.500000000000e-01 0.000000000000e+00 6.000000000000e-02
-1.250000000000e-01 0.000000000000e+00 6.000000000000e-02
0.000000000000e+00 0.000000000000e+00 6.000000000000e-02
1.250000000000e-01 0.000000000000e+00 6.000000000000e-02
2.500000000000e-01 0.000000000000e+00 6.000000000000e-02
-2.500000000000e-01 1.250000000000e-01 6.000000000000e-02
-1.250000000000e-01 1.250000000000e-01 6.000000000000e-02
0.000000000000e+00 1.250000000000e-01 6.000000000000e-02
1.250000000000e-01 1.250000000000e-01 6.000000000000e-02
2.500000000000e-01 1.250000000000e-01 6.000000000000e-02
-2.500000000000e-01 2.500000000000e-01 6.000000000000e-02
-1.250000000000e-01 2.500000000000e-01 6.000000000000e-02
0.000000000000e+00 2.500000000000e-01 6.000000000000e-02
1.250000000000e-01 2.500000000000e-01 6.000000000000e-02
2.500000000000e-01 2.500000000000e-01 6.000000000000e-02
-2.500000000000e-01 -2.500000000000e-01 1.200000000000e-01
-1.250000000000e-01 -2.500000000000e-01 1.200000000000e-01
0.000000000000e+00 -2.500000000000e-01 1.200000000000e-01
1.250000000000e-01 -2.500000000000e-01 1.200000000000e-01
2.500000000000e-01 -2.500000000000e-01 1.200000000000e-01
-2.500000000000e-01 -1.250000000000e-01 1.200000000000e-01
-1.250000000000e-01 -1.250000000000e-01 1.200000000000e-01
0.000000000000e+00 -1.250000000000e-01 1.200000000000e-01
1.250000000000e-01 -1.250000000000e-01 1.200000000000e-01
2.500000000000e-01 -1.250000000000e-01 1.200000000000e-01
-2.500000000000e-01 0.000000000000e+00 1.200000000000e-01
-1.250000000000e-01 0.000000000000e+00 1.200000000000e-01
0.000000000000e+00 0.000000000000e+00 1.200000000000e-01
1.250000000000e-01 0.000000000000e+00 1.200000000000e-01
2.500000000000e-01 0.000000000000e+00 1.200000000000e-01
-2.500000000000e-01 1.250000000000e-01 1.200000000000e-01
-1.250000000000e-01 1.250000000000e-01 1.200000000000e-01
0.000000000000e+00 1.250000000000e-01 1.200000000000e-01
1.250000000000e-01 1.250000000000e-01 1.200000000000e-01
2.500000000000e-01 1.250000000000e-01 1.200000000000e-01
-2.500000000000e-01 2.500000000000e-01 1.200000000000e-01
-1.250000000000e-01 2.500000000000e-01 1.200000000000e-01
0.000000000000e+00 2.500000000000e-01 1.200000000000e-01
1.250000000000e-01 2.500000000000e-01 1.200000000000e-01
2.500000000000e-01 2.500000000000e-01 1.200000000000e-01
-2.500000000000e-01 -2.500000000000e-01 1.800000000000e-01
-1.250000000000e-01 -2.500000000000e-01 1.800000000000e-01
0.000000000000e+00 -2.500000000000e-01 1.800000000000e-01
1.250000000000e-01 -2.500000000000e-01 1.800000000000e-01
2.500000000000e-01 -2.500000000000e-01 1.800000000000e-01
-2.500000000000e-01 -1.250000000000e-01 1.800000000000e-01
-1.250000000000e-01 -1.250000000000e-01 1.800000000000e-01
0.000000000000e+00 -1.250000000000e-01 1.800000000000e-01
1.250000000000e-01 -1.250000000000e-01 1.800000000000e-01
2.500000000000e-01 -1.250000000000e-01 1.800000000000e-01
-2.500000000000e-01 0.000000000000e+00 1.800000000000e-01
-1.250000000000e-01 0.000000000000e+00 1.800000000000e-01
0.000000000000e+00 0.000000000000e+00 1.800000000000e-01
1.250000000000e-01 0.000000000000e+00 1.800000000000e-01
2.500000000000e-01 0.000000000000e+00 1.800000000000e-01
-2.500000000000e-01 1.250000000000e-01 1.800000000000e-01
-1.250000000000e-01 1.250000000000e-01 1.800000000000e-01
0.000000000000e+00 1.250000000000e-01 1.800000000000e-01
1.250000000000e-01 1.250000000000e-01 1.800000000000e-01
2.500000000000e-01 1.250000000000e-01 1.800000000000e-01
-2.500000000000e-01 2.500000000000e-01 1.800000000000e-01
-1.250000000000e-01 2.500000000000e-01 1.800000000000e-01
0.000000000000e+00 2.500000000000e-01 1.800000000000e-01
1.250000000000e-01 2.500000000000e-01 1.800000000000e-01
2.500000000000e-01 2.500000000000e-01 1.800000000000e-01
-2.500000000000e-01 -2.500000000000e-01 2.400000000000e-01
-1.250000000000e-01 -2.500000000000e-01 2.400000000000e-01
0.000000000000e+00 -2.500000000000e-01 2.400000000000e-01
1.250000000000e-01 -2.500000000000e-01 2.400000000000e-01
2.500000000000e-01 -2.500000000000e-01 2.400000000000e-01
-2.500000000000e-01 -1.250000000000e-01 2.400000000000e-01
-1.250000000000e-01 -1.250000000000e-01 2.400000000000e-01
0.000000000000e+00 -1.250000000000e-01 2.400000000000e-01
1.250000000000e-01 -1.250000000000e-01 2.400000000000e-01
2.500000000000e-01 -1.250000000000e-01 2.400000000000e-01
-2.500000000000e-01 0.000000000000e+00 2.400000000000e-01
-1.250000000000e-01 0.000000000000e+00 2.400000000000e-01
0.000000000000e+00 0.000000000000e+00 2.400000000000e-01
1.250000000000e-01 0.000000000000e+00 2.400000000000e-01
2.500000000000e-01 0.000000000000e+00 2.400000000000e-01
-2.500000000000e-01 1.250000000000e-01 2.400000000000e-01
-1.250000000000e-01 1.250000000000e-01 2.400000000000e-01
0.000000000000e+00 1.250000000000e-01 2.400000000000e-01
1.250000000000e-01 1.250000000000e-01 2.400000000000e-01
2.500000000000e-01 1.250000000000e-01 2.400000000000e-01
-2.500000000000e-01 2.500000000000e-01 2.400000000000e-01
-1.250000000000e-01 2.500000000000e-01 2.400000000000e-01
0.000000000000e+00 2.500000000000e-01 2.400000000000e-01
1.250000000000e-01 2.500000000000e-01 2.400000000000e-01
2.500000000000e-01 2.500000000000e-01 2.400000000000e-01
-2.500017047582e-01 -2.500017047583e-01 2.399500079073e-01
-1.250008554655e-01 -2.500017215891e-01 2.399494568971e-01
3.132605830571e-14 -2.500017402843e-01 2.399492663272e-01
1.250008554656e-01 -2.500017215891e-01 2.399494568971e-01
2.500017047583e-01 -2.500017047583e-01 2.399500079073e-01
-2.500017215890e-01 -1.250008554656e-01 2.399494568971e-01
-1.250008573872e-01 -1.250008573872e-01 2.399488999084e-01
3.010289455020e-14 -1.250008677802e-01 2.399487070168e-01
1.250008573872e-01 -1.250008573872e-01 2.399488999084e-01
2.500017215891e-01 -1.250008554656e-01 2.399494568971e-01
-2.500017402843e-01 -3.852868752828e-14 2.399492663272e-01
-1.250008677801e-01 -3.730898970627e-14 2.399487070168e-01
2.888972376155e-14 -3.608017135071e-14 2.399485140670e-01
1.250008677802e-01 -3.485221732906e-14 2.399487070168e-01
2.500017402843e-01 -3.362784878832e-14 2.399492663272e-01
-2.500017215890e-01 1.250008554655e-01 2.399494568971e-01
-1.250008573872e-01 1.250008573872e-01 2.399488999084e-01
2.767920647170e-14 1.250008677801e-01 2.399487070168e-01
1.250008573872e-01 1.250008573872e-01 2.399488999084e-01
2.500017215891e-01 1.250008554655e-01 2.399494568971e-01
-2.500017047582e-01 2.500017047582e-01 2.399500079073e-01
-1.250008554655e-01 2.500017215890e-01 2.399494568971e-01
2.646295724660e-14 2.500017402843e-01 2.399492663272e-01
1.250008554655e-01 2.500017215890e-01 2.399494568971e-01
2.500017047583e-01 2.500017047582e-01 2.399500079073e-01
-2.500013517454e-01 -2.500013517455e-01 3.049486090104e-01
-1.250006514558e-01 -2.500013695305e-01 3.049480411545e-01
3.124199349675e-14 -2.500013898698e-01 3.049478537706e-01
1.250006514558e-01 -2.500013695305e-01 3.049480411545e-01
2.500013517454e-01 -2.500013517454e-01 3.049486090104e-01
-2.500013695305e-01 -1.250006514558e-01 3.049480411545e-01
-1.250006516348e-01 -1.250006516349e-01 3.049474702890e-01
3.001939797578e-14 -1.250006609422e-01 3.049472831286e-01
1.250006516349e-01 -1.250006516349e-01 3.049474702890e-01
2.500013695305e-01 -1.250006514558e-01 3.049480411545e-01
-2.500013898698e-01 -3.848167713181e-14 3.049478537706e-01
-1.250006609421e-01 -3.725687526497e-14 3.049472831286e-01
2.880120830867e-14 -3.603707480348e-14 3.049470972901e-01
1.250006609422e-01 -3.481222505202e-14 3.049472831286e-01
2.500013898698e-01 -3.359362523590e-14 3.049478537706e-01
-2.500013695305e-01 1.250006514558e-01 3.049480411545e-01
-1.250006516348e-01 1.250006516348e-01 3.049474702890e-01
2.758125256114e-14 1.250006609421e-01 3.049472831286e-01
1.250006516349e-01 1.250006516348e-01 3.049474702890e-01
2.500013695305e-01 1.250006514558e-01 3.049480411545e-01
-2.500013517454e-01 2.500013517454e-01 3.049486090104e-01
-1.250006514558e-01 2.500013695305e-01 3.049480411545e-01
2.636523438877e-14 2.500013898698e-01 3.049478537706e-01
1.250006514558e-01 2.500013695305e-01 3.049480411545e-01
2.500013517454e-01 2.500013517454e-01 3.049486090104e-01
-2.500009284625e-01 -2.500009284626e-01 3.699475552584e-01
-1.250004406234e-01 -2.500009400435e-01 3.699469797842e-01
3.115372239887e-14 -2.500009577649e-01 3.699468031908e-01
1.250004406234e-01 -2.500009400435e-01 3.699469797842e-01
2.500009284626e-01 -2.500009284626e-01 3.699475552584e-01
-2.500009400434e-01 -1.250004406235e-01 3.699469797842e-01
-1.250004403983e-01 -1.250004403984e-01 3.699464037739e-01
2.993264339178e-14 -1.250004478106e-01 3.699462303881e-01
1.250004403984e-01 -1.250004403984e-01 3.699464037739e-01
2.500009400435e-01 -1.250004406234e-01 3.699469797842e-01
-2.500009577649e-01 -3.843474281985e-14 3.699468031908e-01
-1.250004478105e-01 -3.721247166940e-14 3.699462303881e-01
2.870920696449e-14 -3.599163649146e-14 3.699460612454e-01
1.250004478106e-01 -3.477254415841e-14 3.699462303881e-01
2.500009577649e-01 -3.355035020251e-14 3.699468031908e-01
-2.500009400434e-01 1.250004406234e-01 3.699469797842e-01
-1.250004403983e-01 1.250004403983e-01 3.699464037739e-01
2.748535936746e-14 1.250004478105e-01 3.699462303881e-01
1.250004403984e-01 1.250004403983e-01 3.699464037739e-01
2.500009400434e-01 1.250004406234e-01 3.699469797842e-01
-2.500009284625e-01 2.500009284625e-01 3.699475552584e-01
-1.250004406234e-01 2.500009400434e-01 3.699469797842e-01
2.626647025782e-14 2.500009577649e-01 3.699468031908e-01
1.250004406234e-01 2.500009400434e-01 3.699469797842e-01
2.500009284626e-01 2.500009284625e-01 3.699475552584e-01
-2.500004870185e-01 -2.500004870186e-01 4.349468756054e-01
-1.250002320414e-01 -2.500004913664e-01 4.349463094958e-01
3.106601072391e-14 -2.500005054660e-01 4.349461335308e-01
1.250002320415e-01 -2.500004913664e-01 4.349463094958e-01
2.500004870186e-01 -2.500004870186e-01 4.349468756054e-01
-2.500004913663e-01 -1.250002320415e-01 4.349463094958e-01
-1.250002319734e-01 -1.250002319734e-01 4.349457471545e-01
2.984259808390e-14 -1.250002379646e-01 4.349455767377e-01
1.250002319734e-01 -1.250002319734e-01 4.349457471545e-01
2.500004913664e-01 -1.250002320415e-01 4.349463094958e-01
-2.500005054660e-01 -3.838618820626e-14 4.349461335308e-01
-1.250002379646e-01 -3.716813391866e-14 4.349455767377e-01
2.861827464369e-14 -3.594691966090e-14 4.349454121180e-01
1.250002379646e-01 -3.472983708437e-14 4.349455767377e-01
2.500005054660e-01 -3.350792988428e-14 4.349461335308e-01
-2.500004913663e-01 1.250002320414e-01 4.349463094958e-01
-1.250002319734e-01 1.250002319734e-01 4.349457471545e-01
2.739100226368e-14 1.250002379646e-01 4.349455767377e-01
1.250002319734e-01 1.250002319734e-01 4.349457471545e-01
2.500004913664e-01 1.250002320414e-01 4.349463094958e-01
-2.500004870185e-01 2.500004870185e-01 4.349468756054e-01
-1.250002320414e-01 2.500004913663e-01 4.349463094958e-01
2.617001010476e-14 2.500005054660e-01 4.349461335308e-01
1.250002320415e-01 2.500004913663e-01 4.349463094958e-01
2.500004870186e-01 2.500004870185e-01 4.349468756054e-01
-2.500001165056e-01 -2.500001165057e-01 4.999466147727e-01
-1.250000334300e-01 -2.500001235342e-01 4.999460609887e-01
3.097932513771e-14 -2.500001405076e-01 4.999458847901e-01
1.250000334300e-01 -2.500001235342e-01 4.999460609887e-01
2.500001165057e-01 -2.500001165057e-01 4.999466147727e-01
-2.500001235342e-01 -1.250000334300e-01 4.999460609887e-01
-1.250000350226e-01 -1.250000350227e-01 4.999455143429e-01
2.975380319289e-14 -1.250000427748e-01 4.999453451083e-01
1.250000350227e-01 -1.250000350227e-01 4.999455143429e-01
2.500001235342e-01 -1.250000334300e-01 4.999460609887e-01
-2.500001405076e-01 -3.833856063481e-14 4.999458847901e-01
-1.250000427747e-01 -3.711989559407e-14 4.999453451083e-01
2.852794142905e-14 -3.589994161753e-14 4.999451821574e-01
1.250000427748e-01 -3.468810169806e-14 4.999453451083e-01
2.500001405076e-01 -3.346887520275e-14 4.999458847901e-01
-2.500001235342e-01 1.250000334300e-01 4.999460609887e-01
-1.250000350226e-01 1.250000350226e-01 4.999455143429e-01
2.729604736472e-14 1.250000427747e-01 4.999453451083e-01
1.250000350227e-01 1.250000350226e-01 4.999455143429e-01
2.500001235342e-01 1.250000334300e-01 4.999460609887e-01
-2.500001165056e-01 2.500001165056e-01 4.999466147727e-01
-1.250000334300e-01 2.500001235342e-01 4.999460609887e-01
2.607366122059e-14 2.500001405075e-01 4.999458847901e-01
1.250000334300e-01 2.500001235342e-01 4.999460609887e-01
2.500001165057e-01 2.500001165056e-01 4.999466147727e-01
CELLS 128 1152
8 0 1 6 5 25 26 31 30
8 1 2 7 6 26 27 32 31
8 2 3 8 7 27 28 33 32
8 3 4 9 8 28 29 34 33
8 5 6 11 10 30 31 36 35
8 6 7 12 11 31 32 37 36
8 7 8 13 12 32 33 38 37
8 8 9 14 13 33 34 39 38
8 10 11 16 15 35 36 41 40
8 11 12 17 16 36 37 42 41
8 12 13 18 17 37 38 43 42
8 13 14 19 18 38 39 44 43
8 15 16 21 20 40 41 46 45
8 16 17 22 21 41 42 47 46
8 17 18 23 22 42 43 48 47
8 18 19 24 23 43 44 49 48
8 25 26 31 30 50 51 56 55
8 26 27 32 31 51 52 57 56
8 27 28 33 32 52 53 58 57
8 28 29 34 33 53 54 59 58
8 30 31 36 35 55 56 61 60
8 31 32 37 36 56 57 62 61
8 32 33 38 37 57 58 63 62
8 33 34 39 38 58 59 64 63
8 35 36 41 40 60 61 66 65
8 36 37 42 41 61 62 67 66
8 37 38 43 42 62 63 68 67
8 38 39 44 43 63 64 69 68
8 40 41 46 45 65 66 71 70
8 41 42 47 46 66 67 72 71
8 42 43 48 47 67 68 73 72
8 43 44 49 48 68 69 74 73
8 50 51 56 55 75 76 81 80
8 51 52 57 56 76 77 82 81
8 52 53 58 57 77 78 83 82
8 53 54 59 58 78 79 84 83
8 55 56 61 60 80 81 86 85
8 56 57 62 61 81 82 87 86
8 57 58 63 62 82 83 88 87
8 58 59 64 63 83 84 89 88
8 60 61 66 65 85 86 91 90
8 61 62 67 66 86 87 92 91
8 62 63 68 67 87 88 93 92
8 63 64 69 68 88 89 94 93
8 65 66 71 70 90 91 96 95
8 66 67 72 71 91 92 97 96
8 67 68 73 72 92 93 98 97
8 68 69 74 73 93 94 99 98
8 75 76 81 80 100 101 106 105
8 76 77 82 81 101 102 107 106
8 77 78 83 82 102 103 108 107
8 78 79 84 83 103 104 109 108
8 80 81 86 85 105 106 111 110
8 81 82 87 86 106 107 112 111
8 82 83 88 87 107 108 113 112
8 83 84 89 88 108 109 114 113
8 85 86 91 90 110 111 116 115
8 86 87 92 91 111 112 117 116
8 87 88 93 92 112 113 118 117
8 88 89 94 93 113 114 119 118
8 90 91 96 95 115 116 121 120
8 91 92 97 96 116 117 122 121
8 92 93 98 97 117 118 123 122
8 93 94 99 98 118 119 124 123
8 125 126 131 130 150 151 156 155
8 126 127 132 131 151 152 157 156
8 127 128 133 132 152 153 158 157
8 128 129 134 133 153 154 159 158
8 130 131 136 135 155 156 161 160
8 131 132 137 136 156 157 162 161
8 132 133 138 137 157 158 163 162
8 133 134 139 138 158 159 164 163
8 135 136 141 140 160 161 166 165
8 136 137 142 141 161 162 167 166
8 137 138 143 142 162 163 168 167
8 138 139 144 143 163 164 169 168
8 140 141 146 145 165 166 171 170
8 141 142 147 146 166 167 172 171
8 142 143 148 147 167 168 173 172
8 143 144 149 148 168 169 174 173
8 150 151 156 155 175 176 181 180
8 151 152 157 156 176 177 182 181
8 152 153 158 157 177 178 183 182
8 153 154 159 158 178 179 184 183
8 155 156 161 160 180 181 186 185
8 156 157 162 161 181 182 187 186
8 157 158 163 162 182 183 188 187
8 158 159 164 163 183 184 189 188
8 160 161 166 165 185 186 191 190
8 161 162 167 166 186 187 192 191
8 162 163 168 167 187 188 193 192
8 163 164 169 168 188 189 194 193
8 165 166 171 170 190 191 196 195
8 166 167 172 171 191 192 197 196
8 167 168 173 172 192 193 198 197
8 168 169 174 173 193 194 199 198
8 175 176 181 180 200 201 206 205
8 176 177 182 181 201 202 207 206
8 177 178 183 182 202 203 208 207
8 178 179 184 183 203 204 209 208
8 180 181 186 185 205 206 211 210
8 181 182 187 186 206 207 212 211
8 182 183 188 187 207 208 213 212
8 183 184 189 188 208 209 214 213
8 185 186 191 190 210 211 216 215
8 186 187 192 191 211 212 217 216
8 187 188 193 192 212 213 218 217
8 188 189 194 193 213 214 219 218
8 190 191 196 195 215 216 221 220
8 191 192 197 196 216 217 222 221
8 192 193 198 197 217 218 223 222
8 193 194 199 198 218 219 224 223
8 200 201 206 205 225 226 231 230
8 201 202 207 206 226 227 232 231
8 202 203 208 207 227 228 233 232
8 203 204 209 208 228 229 234 233
8 205 206 211 210 230 231 236 235
8 206 207 212 211 231 232 237 236
8 207 208 213 212 232 233 238 237
8 208 209 214 213 233 234 239 238
8 210 211 216 215 235 236 241 240
8 211 212 217 216 236 237 242 241
8 212 213 218 217 237 238 243 242
8 213 214 219 218 238 239 244 243
8 215 216 221 220 240 241 246 245
8 216 217 222 221 241 242 247 246
8 217 218 223 222 242 243 248 247
8 218 219 224 223 243 244 249 248
CELL_TYPES 128
12
12
12
12
12
12
12
12
12
12
12
12
12
12
12
12
12
12
12
12
12
12
12
12
12
12
12
12
12
12
12
12
12
12
12
12
12
12
12
12
12
12
12
12
12
12
12
12
12
12
12
12
12
12
12
12
12
12
12
12
12
12
12
12
12
12
12
12
12
12
12
12
12
12
12
12
12
12
12
12
12
12
12
12
12
12
12
12
12
12
12
12
12
12
12
12
12
12
12
12
12
12
12
12
12
12
12
12
12
12
12
12
12
12
12
12
12
12
12
12
12
12
12
12
12
12
12
12
POINT_DATA 250
VECTORS displacement float
0.000000000000e+00 0.000000000000e+00 0.000000000000e+00
0.000000000000e+00 0.000000000000e+00 0.000000000000e+00
0.000000000000e+00 0.000000000000e+00 0.000000000000e+00
0.000000000000e+00 0.000000000000e+00 0.000000000000e+00
0.000000000000e+00 0.000000000000e+00 0.000000000000e+00
0.000000000000e+00 0.000000000000e+00 0.000000000000e+00
0.000000000000e+00 0.000000000000e+00 0.000000000000e+00
0.000000000000e+00 0.000000000000e+00 0.000000000000e+00
0.000000000000e+00 0.000000000000e+00 0.000000000000e+00
0.000000000000e+00 0.000000000000e+00 0.000000000000e+00
0.000000000000e+00 0.000000000000e+00 0.000000000000e+00
0.000000000000e+00 0.000000000000e+00 0.000000000000e+00
0.000000000000e+00 0.000000000000e+00 0.000000000000e+00
0.000000000000e+00 0.000000000000e+00 0.000000000000e+00
0.000000000000e+00 0.000000000000e+00 0.000000000000e+00
0.000000000000e+00 0.000000000000e+00 0.000000000000e+00
0.000000000000e+00 0.000000000000e+00 0.000000000000e+00
0.000000000000e+00 0.000000000000e+00 0.000000000000e+00
0.000000000000e+00 0.000000000000e+00 0.000000000000e+00
0.000000000000e+00 0.000000000000e+00 0.000000000000e+00
0.000000000000e+00 0.000000000000e+00 0.000000000000e+00
0.000000000000e+00 0.000000000000e+00 0.000000000000e+00
0.000000000000e+00 0.000000000000e+00 0.000000000000e+00
0.000000000000e+00 0.000000000000e+00 0.000000000000e+00
0.000000000000e+00 0.000000000000e+00 0.000000000000e+00
0.000000000000e+00 0.000000000000e+00 0.000000000000e+00
0.000000000000e+00 0.000000000000e+00 0.000000000000e+00
0.000000000000e+00 0.000000000000e+00 0.000000000000e+00
0.000000000000e+00 0.000000000000e+00 0.000000000000e+00
0.000000000000e+00 0.000000000000e+00 0.000000000000e+00
0.000000000000e+00 0.000000000000e+00 0.000000000000e+00
0.000000000000e+00 0.000000000000e+00 0.000000000000e+00
0.000000000000e+00 0.000000000000e+00 0.000000000000e+00
0.000000000000e+00 0.000000000000e+00 0.000000000000e+00
0.000000000000e+00 0.000000000000e+00 0.000000000000e+00
0.000000000000e+00 0.000000000000e+00 0.000000000000e+00
0.000000000000e+00 0.000000000000e+00 0.000000000000e+00
0.000000000000e+00 0.000000000000e+00 0.000000000000e+00
0.000000000000e+00 0.000000000000e+00 0.000000000000e+00
0.000000000000e+00 0.000000000000e+00 0.000000000000e+00
0.000000000000e+00 0.000000000000e+00 0.000000000000e+00
0.000000000000e+00 0.000000000000e+00 0.000000000000e+00
0.000000000000e+00 0.000000000000e+00 0.000000000000e+00
0.000000000000e+00 0.000000000000e+00 0.000000000000e+00
0.000000000000e+00 0.000000000000e+00 0.000000000000e+00
0.000000000000e+00 0.000000000000e+00 0.000000000000e+00
0.000000000000e+00 0.000000000000e+00 0.000000000000e+00
0.000000000000e+00 0.000000000000e+00 0.000000000000e+00
0.000000000000e+00 0.000000000000e+00 0.000000000000e+00
0.000000000000e+00 0.000000000000e+00 0.000000000000e+00
0.000000000000e+00 0.000000000000e+00 0.000000000000e+00
0.000000000000e+00 0.000000000000e+00 0.000000000000e+00
0.000000000000e+00 0.000000000000e+00 0.000000000000e+00
0.000000000000e+00 0.000000000000e+00 0.000000000000e+00
0.000000000000e+00 0.000000000000e+00 0.000000000000e+00
0.000000000000e+00 0.000000000000e+00 0.000000000000e+00
0.000000000000e+00 0.000000000000e+00 0.000000000000e+00
0.000000000000e+00 0.000000000000e+00 0.000000000000e+00
0.000000000000e+00 0.000000000000e+00 0.000000000000e+00
0.000000000000e+00 0.000000000000e+00 0.000000000000e+00
0.000000000000e+00 0.000000000000e+00 0.000000000000e+00
0.000000000000e+00 0.000000000000e+00 0.000000000000e+00
0.000000000000e+00 0.000000000000e+00 0.000000000000e+00
0.000000000000e+00 0.000000000000e+00 0.000000000000e+00
0.000000000000e+00 0.000000000000e+00 0.000000000000e+00
0.000000000000e+00 0.000000000000e+00 0.000000000000e+00
0.000000000000e+00 0.000000000000e+00 0.000000000000e+00
0.000000000000e+00 0.000000000000e+00 0.000000000000e+00
0.000000000000e+00 0.000000000000e+00 0.000000000000e+00
0.000000000000e+00 0.000000000000e+00 0.000000000000e+00
0.000000000000e+00 0.000000000000e+00 0.000000000000e+00
0.000000000000e+00 0.000000000000e+00 0.000000000000e+00
0.000000000000e+00 0.000000000000e+00 0.000000000000e+00
0.000000000000e+00 0.000000000000e+00 0.000000000000e+00
0.000000000000e+00 0.000000000000e+00 0.000000000000e+00
0.000000000000e+00 0.000000000000e+00 0.000000000000e+00
0.000000000000e+00 0.000000000000e+00 0.000000000000e+00
0.000000000000e+00 0.000000000000e+00 0.000000000000e+00
0.000000000000e+00 0.000000000000e+00 0.000000000000e+00
0.000000000000e+00 0.000000000000e+00 0.000000000000e+00
0.000000000000e+00 0.000000000000e+00 0.000000000000e+00
0.000000000000e+00 0.000000000000e+00 0.000000000000e+00
0.000000000000e+00 0.000000000000e+00 0.000000000000e+00
0.000000000000e+00 0.000000000000e+00 0.000000000000e+00
0.000000000000e+00 0.000000000000e+00 0.000000000000e+00
0.000000000000e+00 0.000000000000e+00 0.000000000000e+00
0.000000000000e+00 0.000000000000e+00 0.000000000000e+00
0.000000000000e+00 0.000000000000e+00 0.000000000000e+00
0.000000000000e+00 0.000000000000e+00 0.000000000000e+00
0.000000000000e+00 0.000000000000e+00 0.000000000000e+00
0.000000000000e+00 0.000000000000e+00 0.000000000000e+00
0.000000000000e+00 0.000000000000e+00 0.000000000000e+00
0.000000000000e+00 0.000000000000e+00 0.000000000000e+00
0.000000000000e+00 0.000000000000e+00 0.000000000000e+00
0.000000000000e+00 0.000000000000e+00 0.000000000000e+00
0.000000000000e+00 0.000000000000e+00 0.000000000000e+00
0.000000000000e+00 0.000000000000e+00 0.000000000000e+00
0.000000000000e+00 0.000000000000e+00 0.000000000000e+00
0.000000000000e+00 0.000000000000e+00 0.000000000000e+00
0.000000000000e+00 0.000000000000e+00 0.000000000000e+00
0.000000000000e+00 0.000000000000e+00 0.000000000000e+00
0.000000000000e+00 0.000000000000e+00 0.000000000000e+00
0.000000000000e+00 0.000000000000e+00 0.000000000000e+00
0.000000000000e+00 0.000000000000e+00 0.000000000000e+00
0.000000000000e+00 0.000000000000e+00 0.000000000000e+00
0.000000000000e+00 0.000000000000e+00 0.000000000000e+00
0.000000000000e+00 0.000000000000e+00 0.000000000000e+00
0.000000000000e+00 0.000000000000e+00 0.000000000000e+00
0.000000000000e+00 0.000000000000e+00 0.000000000000e+00
0.000000000000e+00 0.000000000000e+00 0.000000000000e+00
0.000000000000e+00 0.000000000000e+00 0.000000000000e+00
0.000000000000e+00 0.000000000000e+00 0.000000000000e+00
0.000000000000e+00 0.000000000000e+00 0.000000000000e+00
0.000000000000e+00 0.000000000000e+00 0.000000000000e+00
0.000000000000e+00 0.000000000000e+00 0.000000000000e+00
0.000000000000e+00 0.000000000000e+00 0.000000000000e+00
0.000000000000e+00 0.000000000000e+00 0.000000000000e+00
0.000000000000e+00 0.000000000000e+00 0.000000000000e+00
0.000000000000e+00 0.000000000000e+00 0.000000000000e+00
0.000000000000e+00 0.000000000000e+00 0.000000000000e+00
0.000000000000e+00 0.000000000000e+00 0.000000000000e+00
0.000000000000e+00 0.000000000000e+00 0.000000000000e+00
0.000000000000e+00 0.000000000000e+00 0.000000000000e+00
0.000000000000e+00 0.000000000000e+00 0.000000000000e+00
0.000000000000e+00 0.000000000000e+00 0.000000000000e+00
-1.704758243471e-06 -1.704758313312e-06 -1.504999209273e-02
-8.554654913704e-07 -1.721589107638e-06 -1.505054310287e-02
3.132605830571e-14 -1.740284344025e-06 -1.505073367278e-02
8.554655540222e-07 -1.721589105179e-06 -1.505054310287e-02
1.704758306112e-06 -1.704758308418e-06 -1.504999209273e-02
-1.721589040244e-06 -8.554655612196e-07 -1.505054310287e-02
-8.573871771371e-07 -8.573872445398e-07 -1.505110009161e-02
3.010289455020e-14 -8.677801886493e-07 -1.505129298315e-02
8.573872373392e-07 -8.573872420875e-07 -1.505110009161e-02
1.721589100431e-06 -8.554655563199e-07 -1.505054310287e-02
-1.740284279072e-06 -3.852868752828e-14 -1.505073367278e-02
-8.677801236866e-07 -3.730898970627e-14 -1.505129298315e-02
2.888972376155e-14 -3.608017135071e-14 -1.505148593296e-02
8.677801814616e-07 -3.485221732906e-14 -1.505129298315e-02
1.740284336840e-06 -3.362784878832e-14 -1.505073367278e-02
-1.721589042687e-06 8.554654841689e-07 -1.505054310287e-02
-8.573871795657e-07 8.573871699385e-07 -1.505110009161e-02
2.767920647170e-14 8.677801164992e-07 -1.505129298315e-02
8.573872349157e-07 8.573871723902e-07 -1.505110009161e-02
1.721589098019e-06 8.554654890619e-07 -1.505054310287e-02
-1.704758248337e-06 1.704758236272e-06 -1.504999209273e-02
-8.554654962387e-07 1.721589033052e-06 -1.505054310287e-02
2.646295724660e-14 1.740284271889e-06 -1.505073367278e-02
8.554655491623e-07 1.721589035497e-06 -1.505054310287e-02
1.704758301255e-06 1.704758241157e-06 -1.504999209273e-02
-1.351745381065e-06 -1.351745450793e-06 -1.505139098958e-02
-6.514557585736e-07 -1.369530532675e-06 -1.505195884552e-02
3.124199349675e-14 -1.389869839857e-06 -1.505214622937e-02
6.514558210588e-07 -1.369530530221e-06 -1.505195884552e-02
1.351745443544e-06 -1.351745445888e-06 -1.505139098958e-02
-1.369530465404e-06 -6.514558282992e-07 -1.505195884552e-02
-6.516348222456e-07 -6.516348895262e-07 -1.505252971101e-02
3.001939797578e-14 -6.609421784029e-07 -1.505271687144e-02
6.516348822848e-07 -6.516348870739e-07 -1.505252971101e-02
1.369530525435e-06 -6.514558234029e-07 -1.505195884552e-02
-1.389869775029e-06 -3.848167713181e-14 -1.505214622937e-02
-6.609421135666e-07 -3.725687526497e-14 -1.505271687144e-02
2.880120830867e-14 -3.603707480348e-14 -1.505290270985e-02
6.609421711695e-07 -3.481222505202e-14 -1.505271687144e-02
1.389869832626e-06 -3.359362523590e-14 -1.505214622937e-02
-1.369530467837e-06 6.514557513420e-07 -1.505195884552e-02
-6.516348246822e-07 6.516348150114e-07 -1.505252971101e-02
2.758125256114e-14 6.609421063370e-07 -1.505271687144e-02
6.516348798504e-07 6.516348174518e-07 -1.505252971101e-02
1.369530523003e-06 6.514557562200e-07 -1.505195884552e-02
-1.351745385950e-06 1.351745373841e-06 -1.505139098958e-02
-6.514557634533e-07 1.369530458166e-06 -1.505195884552e-02
2.636523438877e-14 1.389869767803e-06 -1.505214622937e-02
6.514558161835e-07 1.369530460611e-06 -1.505195884552e-02
1.351745438679e-06 1.351745378709e-06 -1.505139098958e-02
-9.284625370771e-07 -9.284626066855e-07 -1.505244474163e-02
-4.406233825292e-07 -9.400434585299e-07 -1.505302021583e-02
3.115372239887e-14 -9.577649453404e-07 -1.505319680923e-02
4.406234448392e-07 -9.400434560771e-07 -1.505302021583e-02
9.284625993914e-07 -9.284626017766e-07 -1.505244474163e-02
-9.400433913832e-07 -4.406234521309e-07 -1.505302021583e-02
-4.403983414398e-07 -4.403984085873e-07 -1.505359622606e-02
2.993264339178e-14 -4.478105659528e-07 -1.505376961188e-02
4.403984013038e-07 -4.403984061398e-07 -1.505359622606e-02
9.400434512373e-07 -4.406234472311e-07 -1.505302021583e-02
-9.577648806364e-07 -3.843474281985e-14 -1.505319680923e-02
-4.478105012474e-07 -3.721247166940e-14 -1.505376961188e-02
2.870920696449e-14 -3.599163649146e-14 -1.505393875462e-02
4.478105586700e-07 -3.477254415841e-14 -1.505376961188e-02
9.577649380576e-07 -3.355035020251e-14 -1.505319680923e-02
-9.400433938211e-07 4.406233752583e-07 -1.505302021583e-02
-4.403983438823e-07 4.403983341623e-07 -1.505359622606e-02
2.748535936746e-14 4.478104939713e-07 -1.505376961188e-02
4.403983988599e-07 4.403983365975e-07 -1.505359622606e-02
9.400434488005e-07 4.406233801294e-07 -1.505302021583e-02
-9.284625419725e-07 9.284625298109e-07 -1.505244474163e-02
-4.406233874199e-07 9.400433841044e-07 -1.505302021583e-02
2.626647025782e-14 9.577648733606e-07 -1.505319680923e-02
4.406234399543e-07 9.400433865386e-07 -1.505302021583e-02
9.284625945092e-07 9.284625346777e-07 -1.505244474163e-02
-4.870185052345e-07 -4.870185747025e-07 -1.505312439458e-02
-2.320414397835e-07 -4.913664003345e-07 -1.505369050419e-02
3.106601072391e-14 -5.054660293296e-07 -1.505386646917e-02
2.320415019130e-07 -4.913663978870e-07 -1.505369050419e-02
4.870185673623e-07 -4.870185698030e-07 -1.505312439458e-02
-4.913663333177e-07 -2.320415092494e-07 -1.505369050419e-02
-2.319733654216e-07 -2.319734324356e-07 -1.505425284554e-02
2.984259808390e-14 -2.379646494749e-07 -1.505442326235e-02
2.319734251074e-07 -2.319734299908e-07 -1.505425284554e-02
4.913663930027e-07 -2.320415043543e-07 -1.505369050419e-02
-5.054659647622e-07 -3.838618820626e-14 -1.505386646917e-02
-2.379645849058e-07 -3.716813391866e-14 -1.505442326235e-02
2.861827464369e-14 -3.594691966090e-14 -1.505458788202e-02
2.379646421439e-07 -3.472983708437e-14 -1.505442326235e-02
5.054660219980e-07 -3.350792988428e-14 -1.505386646917e-02
-4.913663357652e-07 2.320414324661e-07 -1.505369050419e-02
-2.319733678702e-07 2.319733581003e-07 -1.505425284554e-02
2.739100226368e-14 2.379645775793e-07 -1.505442326235e-02
2.319734226545e-07 2.319733605302e-07 -1.505425284554e-02
4.913663905517e-07 2.320414373392e-07 -1.505369050419e-02
-4.870185101320e-07 4.870184979115e-07 -1.505312439458e-02
-2.320414446804e-07 4.913663259975e-07 -1.505369050419e-02
2.617001010476e-14 5.054659574349e-07 -1.505386646917e-02
2.320414970195e-07 4.913663284265e-07 -1.505369050419e-02
4.870185624677e-07 4.870185027877e-07 -1.505312439458e-02
-1.165056203763e-07 -1.165056897088e-07 -1.505338522728e-02
-3.342997774726e-08 -1.235342478879e-07 -1.505393901132e-02
3.097932513771e-14 -1.405076200552e-07 -1.505411520987e-02
3.343003969986e-08 -1.235342454556e-07 -1.505393901132e-02
1.165056823282e-07 -1.165056848186e-07 -1.505338522728e-02
-1.235341810137e-07 -3.343004706900e-08 -1.505393901132e-02
-3.502264213437e-08 -3.502270901395e-08 -1.505448565707e-02
2.975380319289e-14 -4.277481348604e-08 -1.505465489169e-02
3.502270164484e-08 -3.502270657568e-08 -1.505448565707e-02
1.235342405204e-07 -3.343004218898e-08 -1.505393901132e-02
-1.405075556346e-07 -3.833856063481e-14 -1.505411520987e-02
-4.277474906005e-08 -3.711989559407e-14 -1.505465489169e-02
2.852794142905e-14 -3.589994161753e-14 -1.505481784259e-02
4.277480610891e-08 -3.468810169806e-14 -1.505465489169e-02
1.405076126812e-07 -3.346887520275e-14 -1.505411520987e-02
-1.235341834617e-07 3.342997038142e-08 -1.505393901132e-02
-3.502264458994e-08 3.502263477293e-08 -1.505448565707e-02
2.729604736472e-14 4.277474167832e-08 -1.505465489169e-02
3.502269918030e-08 3.502263719902e-08 -1.505448565707e-02
1.235342380492e-07 3.342997525308e-08 -1.505393901132e-02
-1.165056252822e-07 1.165056130165e-07 -1.505338522728e-02
-3.342998265131e-08 1.235341736516e-07 -1.505393901132e-02
2.607366122059e-14 1.405075482486e-07 -1.505411520987e-02
3.343003479295e-08 1.235341760729e-07 -1.505393901132e-02
1.165056774193e-07 1.165056178925e-07 -1.505338522728e-02
SCALARS displacement_magnitude float 1
LOOKUP_TABLE default
0.000000000000e+00
0.000000000000e+00
0.000000000000e+00
0.000000000000e+00
0.000000000000e+00
0.000000000000e+00
0.000000000000e+00
0.000000000000e+00
0.000000000000e+00
0.000000000000e+00
0.000000000000e+00
0.000000000000e+00
0.000000000000e+00
0.000000000000e+00
0.000000000000e+00
0.000000000000e+00
0.000000000000e+00
0.000000000000e+00
0.000000000000e+00
0.000000000000e+00
0.000000000000e+00
0.000000000000e+00
0.000000000000e+00
0.000000000000e+00
0.000000000000e+00
0.000000000000e+00
0.000000000000e+00
0.000000000000e+00
0.000000000000e+00
0.000000000000e+00
0.000000000000e+00
0.000000000000e+00
0.000000000000e+00
0.000000000000e+00
0.000000000000e+00
0.000000000000e+00
0.000000000000e+00
0.000000000000e+00
0.000000000000e+00
0.000000000000e+00
0.000000000000e+00
0.000000000000e+00
0.000000000000e+00
0.000000000000e+00
0.000000000000e+00
0.000000000000e+00
0.000000000000e+00
0.000000000000e+00
0.000000000000e+00
0.000000000000e+00
0.000000000000e+00
0.000000000000e+00
0.000000000000e+00
0.000000000000e+00
0.000000000000e+00
0.000000000000e+00
0.000000000000e+00
0.000000000000e+00
0.000000000000e+00
0.000000000000e+00
0.000000000000e+00
0.000000000000e+00
0.000000000000e+00
0.000000000000e+00
0.000000000000e+00
0.000000000000e+00
0.000000000000e+00
0.000000000000e+00
0.000000000000e+00
0.000000000000e+00
0.000000000000e+00
0.000000000000e+00
0.000000000000e+00
0.000000000000e+00
0.000000000000e+00
0.000000000000e+00
0.000000000000e+00
0.000000000000e+00
0.000000000000e+00
0.000000000000e+00
0.000000000000e+00
0.000000000000e+00
0.000000000000e+00
0.000000000000e+00
0.000000000000e+00
0.000000000000e+00
0.000000000000e+00
0.000000000000e+00
0.000000000000e+00
0.000000000000e+00
0.000000000000e+00
0.000000000000e+00
0.000000000000e+00
0.000000000000e+00
0.000000000000e+00
0.000000000000e+00
0.000000000000e+00
0.000000000000e+00
0.000000000000e+00
0.000000000000e+00
0.000000000000e+00
0.000000000000e+00
0.000000000000e+00
0.000000000000e+00
0.000000000000e+00
0.000000000000e+00
0.000000000000e+00
0.000000000000e+00
0.000000000000e+00
0.000000000000e+00
0.000000000000e+00
0.000000000000e+00
0.000000000000e+00
0.000000000000e+00
0.000000000000e+00
0.000000000000e+00
0.000000000000e+00
0.000000000000e+00
0.000000000000e+00
0.000000000000e+00
0.000000000000e+00
0.000000000000e+00
0.000000000000e+00
0.000000000000e+00
0.000000000000e+00
1.504999228583e-02
1.505054322565e-02
1.505073377339e-02
1.505054322565e-02
1.504999228583e-02
1.505054322565e-02
1.505110014045e-02
1.505129300817e-02
1.505110014045e-02
1.505054322565e-02
1.505073377339e-02
1.505129300817e-02
1.505148593296e-02
1.505129300817e-02
1.505073377339e-02
1.505054322565e-02
1.505110014045e-02
1.505129300817e-02
1.505110014045e-02
1.505054322565e-02
1.504999228583e-02
1.505054322565e-02
1.505073377339e-02
1.505054322565e-02
1.504999228583e-02
1.505139111098e-02
1.505195892192e-02
1.505214629354e-02
1.505195892192e-02
1.505139111098e-02
1.505195892193e-02
1.505252973922e-02
1.505271688595e-02
1.505252973922e-02
1.505195892192e-02
1.505214629354e-02
1.505271688595e-02
1.505290270985e-02
1.505271688595e-02
1.505214629354e-02
1.505195892193e-02
1.505252973922e-02
1.505271688595e-02
1.505252973922e-02
1.505195892192e-02
1.505139111098e-02
1.505195892193e-02
1.505214629354e-02
1.505195892192e-02
1.505139111098e-02
1.505244479890e-02
1.505302025163e-02
1.505319683970e-02
1.505302025163e-02
1.505244479890e-02
1.505302025163e-02
1.505359623895e-02
1.505376961854e-02
1.505359623895e-02
1.505302025163e-02
1.505319683970e-02
1.505376961854e-02
1.505393875462e-02
1.505376961854e-02
1.505319683970e-02
1.505302025163e-02
1.505359623895e-02
1.505376961854e-02
1.505359623895e-02
1.505302025163e-02
1.505244479890e-02
1.505302025163e-02
1.505319683970e-02
1.505302025163e-02
1.505244479890e-02
1.505312441034e-02
1.505369051400e-02
1.505386647766e-02
1.505369051400e-02
1.505312441034e-02
1.505369051400e-02
1.505425284912e-02
1.505442326423e-02
1.505425284911e-02
1.505369051400e-02
1.505386647766e-02
1.505442326423e-02
1.505458788202e-02
1.505442326423e-02
1.505386647766e-02
1.505369051400e-02
1.505425284912e-02
1.505442326423e-02
1.505425284912e-02
1.505369051400e-02
1.505312441034e-02
1.505369051400e-02
1.505386647766e-02
1.505369051400e-02
1.505312441034e-02
1.505338522818e-02
1.505393901186e-02
1.505411521052e-02
1.505393901186e-02
1.505338522818e-02
1.505393901186e-02
1.505448565715e-02
1.505465489175e-02
1.505448565715e-02
1.505393901186e-02
1.505411521052e-02
1.505465489175e-02
1.505481784259e-02
1.505465489175e-02
1.505411521052e-02
1.505393901186e-02
1.505448565715e-02
1.505465489175e-02
1.505448565715e-02
1.505393901186e-02
1.505338522819e-02
1.505393901186e-02
1.505411521052e-02
1.505393901186e-02
1.505338522818e-02
CELL_DATA 128
SCALARS displacement_magnitude float 1
LOOKUP_TABLE default
0.000000000000e+00
0.000000000000e+00
0.000000000000e+00
0.000000000000e+00
0.000000000000e+00
0.000000000000e+00
0.000000000000e+00
0.000000000000e+00
0.000000000000e+00
0.000000000000e+00
0.000000000000e+00
0.000000000000e+00
0.000000000000e+00
0.000000000000e+00
0.000000000000e+00
0.000000000000e+00
0.000000000000e+00
0.000000000000e+00
0.000000000000e+00
0.000000000000e+00
0.000000000000e+00
0.000000000000e+00
0.000000000000e+00
0.000000000000e+00
0.000000000000e+00
0.000000000000e+00
0.000000000000e+00
0.000000000000e+00
0.000000000000e+00
0.000000000000e+00
0.000000000000e+00
0.000000000000e+00
0.000000000000e+00
0.000000000000e+00
0.000000000000e+00
0.000000000000e+00
0.000000000000e+00
0.000000000000e+00
0.000000000000e+00
0.000000000000e+00
0.000000000000e+00
0.000000000000e+00
0.000000000000e+00
0.000000000000e+00
0.000000000000e+00
0.000000000000e+00
0.000000000000e+00
0.000000000000e+00
0.000000000000e+00
0.000000000000e+00
0.000000000000e+00
0.000000000000e+00
0.000000000000e+00
0.000000000000e+00
0.000000000000e+00
0.000000000000e+00
0.000000000000e+00
0.000000000000e+00
0.000000000000e+00
0.000000000000e+00
0.000000000000e+00
0.000000000000e+00
0.000000000000e+00
0.000000000000e+00
1.505125219645e-02
1.505162774854e-02
1.505162774854e-02
1.505125219645e-02
1.505162774854e-02
1.505200478884e-02
1.505200478884e-02
1.505162774854e-02
1.505162774854e-02
1.505200478884e-02
1.505200478884e-02
1.505162774854e-02
1.505125219645e-02
1.505162774854e-02
1.505162774854e-02
1.505125219645e-02
1.505249002939e-02
1.505286684868e-02
1.505286684868e-02
1.505249002939e-02
1.505286684868e-02
1.505324255645e-02
1.505324255645e-02
1.505286684868e-02
1.505286684868e-02
1.505324255645e-02
1.505324255645e-02
1.505286684868e-02
1.505249002939e-02
1.505286684868e-02
1.505286684868e-02
1.505249002939e-02
1.505335497857e-02
1.505372700673e-02
1.505372700673e-02
1.505335497857e-02
1.505372700673e-02
1.505409518628e-02
1.505409518628e-02
1.505372700673e-02
1.505372700673e-02
1.505409518628e-02
1.505409518628e-02
1.505372700673e-02
1.505335497857e-02
1.505372700673e-02
1.505372700673e-02
1.505335497857e-02
1.505381339956e-02
1.505417848454e-02
1.505417848454e-02
1.505381339956e-02
1.505417848454e-02
1.505453756785e-02
1.505453756785e-02
1.505417848454e-02
1.505417848454e-02
1.505453756785e-02
1.505453756785e-02
1.505417848454e-02
1.505381339956e-02
1.505417848454e-02
1.505417848454e-02
1.505381339956e-02
SCALARS engineering_strain_norm float 1
LOOKUP_TABLE default
0.000000000000e+00
0.000000000000e+00
0.000000000000e+00
0.000000000000e+00
0.000000000000e+00
0.000000000000e+00
0.000000000000e+00
0.000000000000e+00
0.000000000000e+00
0.000000000000e+00
0.000000000000e+00
0.000000000000e+00
0.000000000000e+00
0.000000000000e+00
0.000000000000e+00
0.000000000000e+00
0.000000000000e+00
0.000000000000e+00
0.000000000000e+00
0.000000000000e+00
0.000000000000e+00
0.000000000000e+00
0.000000000000e+00
0.000000000000e+00
0.000000000000e+00
0.000000000000e+00
0.000000000000e+00
0.000000000000e+00
0.000000000000e+00
0.000000000000e+00
0.000000000000e+00
0.000000000000e+00
0.000000000000e+00
0.000000000000e+00
0.000000000000e+00
0.000000000000e+00
0.000000000000e+00
0.000000000000e+00
0.000000000000e+00
0.000000000000e+00
0.000000000000e+00
0.000000000000e+00
0.000000000000e+00
0.000000000000e+00
0.000000000000e+00
0.000000000000e+00
0.000000000000e+00
0.000000000000e+00
0.000000000000e+00
0.000000000000e+00
0.000000000000e+00
0.000000000000e+00
0.000000000000e+00
0.000000000000e+00
0.000000000000e+00
0.000000000000e+00
0.000000000000e+00
0.000000000000e+00
0.000000000000e+00
0.000000000000e+00
0.000000000000e+00
0.000000000000e+00
0.000000000000e+00
0.000000000000e+00
2.350457714602e-05
2.354890911643e-05
2.354890911636e-05
2.350457714574e-05
2.354890911657e-05
2.352611395921e-05
2.352611395910e-05
2.354890911623e-05
2.354890911663e-05
2.352611395929e-05
2.352611395917e-05
2.354890911634e-05
2.350457714614e-05
2.354890911659e-05
2.354890911649e-05
2.350457714592e-05
1.768723830805e-05
1.755653909339e-05
1.755653909333e-05
1.768723830786e-05
1.755653909350e-05
1.734300693244e-05
1.734300693235e-05
1.755653909328e-05
1.755653909350e-05
1.734300693242e-05
1.734300693246e-05
1.755653909334e-05
1.768723830809e-05
1.755653909341e-05
1.755653909347e-05
1.768723830800e-05
1.115726103477e-05
1.099646490528e-05
1.099646490525e-05
1.115726103466e-05
1.099646490545e-05
1.076541710948e-05
1.076541710945e-05
1.099646490527e-05
1.099646490541e-05
1.076541710944e-05
1.076541710944e-05
1.099646490527e-05
1.115726103475e-05
1.099646490530e-05
1.099646490532e-05
1.115726103474e-05
4.278250912320e-06
4.109034523301e-06
4.109034523290e-06
4.278250912252e-06
4.109034523370e-06
3.892163913181e-06
3.892163913178e-06
4.109034523307e-06
4.109034523267e-06
3.892163913153e-06
3.892163913148e-06
4.109034523274e-06
4.278250912272e-06
4.109034523295e-06
4.109034523279e-06
4.278250912287e-06
SCALARS von_mises float 1
LOOKUP_TABLE default
0.000000000000e+00
0.000000000000e+00
0.000000000000e+00
0.000000000000e+00
0.000000000000e+00
0.000000000000e+00
0.000000000000e+00
0.000000000000e+00
0.000000000000e+00
0.000000000000e+00
0.000000000000e+00
0.000000000000e+00
0.000000000000e+00
0.000000000000e+00
0.000000000000e+00
0.000000000000e+00
0.000000000000e+00
0.000000000000e+00
0.000000000000e+00
0.000000000000e+00
0.000000000000e+00
0.000000000000e+00
0.000000000000e+00
0.000000000000e+00
0.000000000000e+00
0.000000000000e+00
0.000000000000e+00
0.000000000000e+00
0.000000000000e+00
0.000000000000e+00
0.000000000000e+00
0.000000000000e+00
0.000000000000e+00
0.000000000000e+00
0.000000000000e+00
0.000000000000e+00
0.000000000000e+00
0.000000000000e+00
0.000000000000e+00
0.000000000000e+00
0.000000000000e+00
0.000000000000e+00
0.000000000000e+00
0.000000000000e+00
0.000000000000e+00
0.000000000000e+00
0.000000000000e+00
0.000000000000e+00
0.000000000000e+00
0.000000000000e+00
0.000000000000e+00
0.000000000000e+00
0.000000000000e+00
0.000000000000e+00
0.000000000000e+00
0.000000000000e+00
0.000000000000e+00
0.000000000000e+00
0.000000000000e+00
0.000000000000e+00
0.000000000000e+00
0.000000000000e+00
0.000000000000e+00
0.000000000000e+00
2.156462781242e+00
2.158077861210e+00
2.158077861203e+00
2.156462781217e+00
2.158077861222e+00
2.152028096173e+00
2.152028096164e+00
2.158077861193e+00
2.158077861229e+00
2.152028096181e+00
2.152028096171e+00
2.158077861203e+00
2.156462781253e+00
2.158077861225e+00
2.158077861216e+00
2.156462781234e+00
1.625733989668e+00
1.609451744820e+00
1.609451744816e+00
1.625733989651e+00
1.609451744831e+00
1.583684531202e+00
1.583684531194e+00
1.609451744811e+00
1.609451744831e+00
1.583684531199e+00
1.583684531203e+00
1.609451744816e+00
1.625733989672e+00
1.609451744823e+00
1.609451744828e+00
1.625733989664e+00
1.023978018627e+00
1.006822420616e+00
1.006822420613e+00
1.023978018616e+00
1.006822420631e+00
9.823338417015e-01
9.823338416987e-01
1.006822420614e+00
1.006822420627e+00
9.823338416985e-01
9.823338416981e-01
1.006822420614e+00
1.023978018625e+00
1.006822420617e+00
1.006822420619e+00
1.023978018624e+00
3.987447557950e-01
3.813019426570e-01
3.813019426560e-01
3.987447557888e-01
3.813019426639e-01
3.586332504507e-01
3.586332504501e-01
3.813019426572e-01
3.813019426543e-01
3.586332504480e-01
3.586332504467e-01
3.813019426543e-01
3.987447557905e-01
3.813019426565e-01
3.813019426548e-01
3.987447557916e-01
SCALARS sdf_gap float 1
LOOKUP_TABLE default
0.000000000000e+00
0.000000000000e+00
0.000000000000e+00
0.000000000000e+00
0.000000000000e+00
0.000000000000e+00
0.000000000000e+00
0.000000000000e+00
0.000000000000e+00
0.000000000000e+00
0.000000000000e+00
0.000000000000e+00
0.000000000000e+00
0.000000000000e+00
0.000000000000e+00
0.000000000000e+00
0.000000000000e+00
0.000000000000e+00
0.000000000000e+00
0.000000000000e+00
0.000000000000e+00
0.000000000000e+00
0.000000000000e+00
0.000000000000e+00
0.000000000000e+00
0.000000000000e+00
0.000000000000e+00
0.000000000000e+00
0.000000000000e+00
0.000000000000e+00
0.000000000000e+00
0.000000000000e+00
0.000000000000e+00
0.000000000000e+00
0.000000000000e+00
0.000000000000e+00
0.000000000000e+00
0.000000000000e+00
0.000000000000e+00
0.000000000000e+00
0.000000000000e+00
0.000000000000e+00
0.000000000000e+00
0.000000000000e+00
0.000000000000e+00
0.000000000000e+00
0.000000000000e+00
0.000000000000e+00
0.000000000000e+00
0.000000000000e+00
0.000000000000e+00
0.000000000000e+00
0.000000000000e+00
0.000000000000e+00
0.000000000000e+00
0.000000000000e+00
0.000000000000e+00
0.000000000000e+00
0.000000000000e+00
0.000000000000e+00
0.000000000000e+00
0.000000000000e+00
0.000000000000e+00
0.000000000000e+00
-5.054459752207e-05
-5.091746260300e-05
-5.091746260282e-05
-5.054459752159e-05
-5.091746260323e-05
-5.129299771669e-05
-5.129299771651e-05
-5.091746260274e-05
-5.091746260332e-05
-5.129299771677e-05
-5.129299771658e-05
-5.091746260281e-05
-5.054459752234e-05
-5.091746260323e-05
-5.091746260306e-05
-5.054459752179e-05
0.000000000000e+00
0.000000000000e+00
0.000000000000e+00
0.000000000000e+00
0.000000000000e+00
0.000000000000e+00
0.000000000000e+00
0.000000000000e+00
0.000000000000e+00
0.000000000000e+00
0.000000000000e+00
0.000000000000e+00
0.000000000000e+00
0.000000000000e+00
0.000000000000e+00
0.000000000000e+00
0.000000000000e+00
0.000000000000e+00
0.000000000000e+00
0.000000000000e+00
0.000000000000e+00
0.000000000000e+00
0.000000000000e+00
0.000000000000e+00
0.000000000000e+00
0.000000000000e+00
0.000000000000e+00
0.000000000000e+00
0.000000000000e+00
0.000000000000e+00
0.000000000000e+00
0.000000000000e+00
0.000000000000e+00
0.000000000000e+00
0.000000000000e+00
0.000000000000e+00
0.000000000000e+00
0.000000000000e+00
0.000000000000e+00
0.000000000000e+00
0.000000000000e+00
0.000000000000e+00
0.000000000000e+00
0.000000000000e+00
0.000000000000e+00
0.000000000000e+00
0.000000000000e+00
0.000000000000e+00
SCALARS contact_pressure float 1
LOOKUP_TABLE default
0.000000000000e+00
0.000000000000e+00
0.000000000000e+00
0.000000000000e+00
0.000000000000e+00
0.000000000000e+00
0.000000000000e+00
0.000000000000e+00
0.000000000000e+00
0.000000000000e+00
0.000000000000e+00
0.000000000000e+00
0.000000000000e+00
0.000000000000e+00
0.000000000000e+00
0.000000000000e+00
0.000000000000e+00
0.000000000000e+00
0.000000000000e+00
0.000000000000e+00
0.000000000000e+00
0.000000000000e+00
0.000000000000e+00
0.000000000000e+00
0.000000000000e+00
0.000000000000e+00
0.000000000000e+00
0.000000000000e+00
0.000000000000e+00
0.000000000000e+00
0.000000000000e+00
0.000000000000e+00
0.000000000000e+00
0.000000000000e+00
0.000000000000e+00
0.000000000000e+00
0.000000000000e+00
0.000000000000e+00
0.000000000000e+00
0.000000000000e+00
0.000000000000e+00
0.000000000000e+00
0.000000000000e+00
0.000000000000e+00
0.000000000000e+00
0.000000000000e+00
0.000000000000e+00
0.000000000000e+00
0.000000000000e+00
0.000000000000e+00
0.000000000000e+00
0.000000000000e+00
0.000000000000e+00
0.000000000000e+00
0.000000000000e+00
0.000000000000e+00
0.000000000000e+00
0.000000000000e+00
0.000000000000e+00
0.000000000000e+00
0.000000000000e+00
0.000000000000e+00
0.000000000000e+00
0.000000000000e+00
2.527229876104e+00
2.545873130150e+00
2.545873130141e+00
2.527229876080e+00
2.545873130161e+00
2.564649885835e+00
2.564649885826e+00
2.545873130137e+00
2.545873130166e+00
2.564649885839e+00
2.564649885829e+00
2.545873130141e+00
2.527229876117e+00
2.545873130161e+00
2.545873130153e+00
2.527229876089e+00
0.000000000000e+00
0.000000000000e+00
0.000000000000e+00
0.000000000000e+00
0.000000000000e+00
0.000000000000e+00
0.000000000000e+00
0.000000000000e+00
0.000000000000e+00
0.000000000000e+00
0.000000000000e+00
0.000000000000e+00
0.000000000000e+00
0.000000000000e+00
0.000000000000e+00
0.000000000000e+00
0.000000000000e+00
0.000000000000e+00
0.000000000000e+00
0.000000000000e+00
0.000000000000e+00
0.000000000000e+00
0.000000000000e+00
0.000000000000e+00
0.000000000000e+00
0.000000000000e+00
0.000000000000e+00
0.000000000000e+00
0.000000000000e+00
0.000000000000e+00
0.000000000000e+00
0.000000000000e+00
0.000000000000e+00
0.000000000000e+00
0.000000000000e+00
0.000000000000e+00
0.000000000000e+00
0.000000000000e+00
0.000000000000e+00
0.000000000000e+00
0.000000000000e+00
0.000000000000e+00
0.000000000000e+00
0.000000000000e+00
0.000000000000e+00
0.000000000000e+00
0.000000000000e+00
0.000000000000e+00
SCALARS active_contact float 1
LOOKUP_TABLE default
0.000000000000e+00
0.000000000000e+00
0.000000000000e+00
0.000000000000e+00
0.000000000000e+00
0.000000000000e+00
0.000000000000e+00
0.000000000000e+00
0.000000000000e+00
0.000000000000e+00
0.000000000000e+00
0.000000000000e+00
0.000000000000e+00
0.000000000000e+00
0.000000000000e+00
0.000000000000e+00
0.000000000000e+00
0.000000000000e+00
0.000000000000e+00
0.000000000000e+00
0.000000000000e+00
0.000000000000e+00
0.000000000000e+00
0.000000000000e+00
0.000000000000e+00
0.000000000000e+00
0.000000000000e+00
0.000000000000e+00
0.000000000000e+00
0.000000000000e+00
0.000000000000e+00
0.000000000000e+00
0.000000000000e+00
0.000000000000e+00
0.000000000000e+00
0.000000000000e+00
0.000000000000e+00
0.000000000000e+00
0.000000000000e+00
0.000000000000e+00
0.000000000000e+00
0.000000000000e+00
0.000000000000e+00
0.000000000000e+00
0.000000000000e+00
0.000000000000e+00
0.000000000000e+00
0.000000000000e+00
0.000000000000e+00
0.000000000000e+00
0.000000000000e+00
0.000000000000e+00
0.000000000000e+00
0.000000000000e+00
0.000000000000e+00
0.000000000000e+00
0.000000000000e+00
0.000000000000e+00
0.000000000000e+00
0.000000000000e+00
0.000000000000e+00
0.000000000000e+00
0.000000000000e+00
0.000000000000e+00
1.000000000000e+00
1.000000000000e+00
1.000000000000e+00
1.000000000000e+00
1.000000000000e+00
1.000000000000e+00
1.000000000000e+00
1.000000000000e+00
1.000000000000e+00
1.000000000000e+00
1.000000000000e+00
1.000000000000e+00
1.000000000000e+00
1.000000000000e+00
1.000000000000e+00
1.000000000000e+00
0.000000000000e+00
0.000000000000e+00
0.000000000000e+00
0.000000000000e+00
0.000000000000e+00
0.000000000000e+00
0.000000000000e+00
0.000000000000e+00
0.000000000000e+00
0.000000000000e+00
0.000000000000e+00
0.000000000000e+00
0.000000000000e+00
0.000000000000e+00
0.000000000000e+00
0.000000000000e+00
0.000000000000e+00
0.000000000000e+00
0.000000000000e+00
0.000000000000e+00
0.000000000000e+00
0.000000000000e+00
0.000000000000e+00
0.000000000000e+00
0.000000000000e+00
0.000000000000e+00
0.000000000000e+00
0.000000000000e+00
0.000000000000e+00
0.000000000000e+00
0.000000000000e+00
0.000000000000e+00
0.000000000000e+00
0.000000000000e+00
0.000000000000e+00
0.000000000000e+00
0.000000000000e+00
0.000000000000e+00
0.000000000000e+00
0.000000000000e+00
0.000000000000e+00
0.000000000000e+00
0.000000000000e+00
0.000000000000e+00
0.000000000000e+00
0.000000000000e+00
0.000000000000e+00
0.000000000000e+00
