# vtk DataFile Version 3.0
SFC long-time C3D8 dynamic frame 56 t=1.120000000000e+00
ASCII
DATASET UNSTRUCTURED_GRID
POINTS 250 float
-2.500000000000e-01 -2.500000000000e-01 0.000000000000e+00
-1.250000000000e-01 -2.500000000000e-01 0.000000000000e+00
0.000000000000e+00 -2.500000000000e-01 0.000000000000e+00
1.250000000000e-01 -2.500000000000e-01 0.000000000000e+00
2.500000000000e-01 -2.500000000000e-01 0.000000000000e+00
-2.500000000000e-01 -1.250000000000e-01 0.000000000000e+00
-1.250000000000e-01 -1.250000000000e-01 0.000000000000e+00
0.000000000000e+00 -1.250000000000e-01 0.000000000000e+00
1.250000000000e-01 -1.250000000000e-01 0.000000000000e+00
2.500000000000e-01 -1.250000000000e-01 0.000000000000e+00
-2.500000000000e-01 0.000000000000e+00 0.000000000000e+00
-1.250000000000e-01 0.000000000000e+00 0.000000000000e+00
0.000000000000e+00 0.000000000000e+00 0.000000000000e+00
1.250000000000e-01 0.000000000000e+00 0.000000000000e+00
2.500000000000e-01 0.000000000000e+00 0.000000000000e+00
-2.500000000000e-01 1.250000000000e-01 0.000000000000e+00
-1.250000000000e-01 1.250000000000e-01 0.000000000000e+00
0.000000000000e+00 1.250000000000e-01 0.000000000000e+00
1.250000000000e-01 1.250000000000e-01 0.000000000000e+00
2.500000000000e-01 1.250000000000e-01 0.000000000000e+00
-2.500000000000e-01 2.500000000000e-01 0.000000000000e+00
-1.250000000000e-01 2.500000000000e-01 0.000000000000e+00
0.000000000000e+00 2.500000000000e-01 0.000000000000e+00
1.250000000000e-01 2.500000000000e-01 0.000000000000e+00
2.500000000000e-01 2.500000000000e-01 0.000000000000e+00
-2.500000000000e-01 -2.500000000000e-01 6.000000000000e-02
-1.250000000000e-01 -2.500000000000e-01 6.000000000000e-02
0.000000000000e+00 -2.500000000000e-01 6.000000000000e-02
1.250000000000e-01 -2.500000000000e-01 6.000000000000e-02
2.500000000000e-01 -2.500000000000e-01 6.000000000000e-02
-2.500000000000e-01 -1.250000000000e-01 6.000000000000e-02
-1.250000000000e-01 -1.250000000000e-01 6.000000000000e-02
0.000000000000e+00 -1.250000000000e-01 6.000000000000e-02
1.250000000000e-01 -1.250000000000e-01 6.000000000000e-02
2.500000000000e-01 -1.250000000000e-01 6.000000000000e-02
-2.500000000000e-01 0.000000000000e+00 6.000000000000e-02
-1.250000000000e-01 0.000000000000e+00 6.000000000000e-02
0.000000000000e+00 0.000000000000e+00 6.000000000000e-02
1.250000000000e-01 0.000000000000e+00 6.000000000000e-02
2.500000000000e-01 0.000000000000e+00 6.000000000000e-02
-2.500000000000e-01 1.250000000000e-01 6.000000000000e-02
-1.250000000000e-01 1.250000000000e-01 6.000000000000e-02
0.000000000000e+00 1.250000000000e-01 6.000000000000e-02
1.250000000000e-01 1.250000000000e-01 6.000000000000e-02
2.500000000000e-01 1.250000000000e-01 6.000000000000e-02
-2.500000000000e-01 2.500000000000e-01 6.000000000000e-02
-1.250000000000e-01 2.500000000000e-01 6.000000000000e-02
0.000000000000e+00 2.500000000000e-01 6.000000000000e-02
1.250000000000e-01 2.500000000000e-01 6.000000000000e-02
2.500000000000e-01 2.500000000000e-01 6.000000000000e-02
-2.500000000000e-01 -2.500000000000e-01 1.200000000000e-01
-1.250000000000e-01 -2.500000000000e-01 1.200000000000e-01
0.000000000000e+00 -2.500000000000e-01 1.200000000000e-01
1.250000000000e-01 -2.500000000000e-01 1.200000000000e-01
2.500000000000e-01 -2.500000000000e-01 1.200000000000e-01
-2.500000000000e-01 -1.250000000000e-01 1.200000000000e-01
-1.250000000000e-01 -1.250000000000e-01 1.200000000000e-01
0.000000000000e+00 -1.250000000000e-01 1.200000000000e-01
1.250000000000e-01 -1.250000000000e-01 1.200000000000e-01
2.500000000000e-01 -1.250000000000e-01 1.200000000000e-01
-2.500000000000e-01 0.000000000000e+00 1.200000000000e-01
-1.250000000000e-01 0.000000000000e+00 1.200000000000e-01
0.000000000000e+00 0.000000000000e+00 1.200000000000e-01
1.250000000000e-01 0.000000000000e+00 1.200000000000e-01
2.500000000000e-01 0.000000000000e+00 1.200000000000e-01
-2.500000000000e-01 1.250000000000e-01 1.200000000000e-01
-1.250000000000e-01 1.250000000000e-01 1.200000000000e-01
0.000000000000e+00 1.250000000000e-01 1.200000000000e-01
1.250000000000e-01 1.250000000000e-01 1.200000000000e-01
2.500000000000e-01 1.250000000000e-01 1.200000000000e-01
-2.500000000000e-01 2.500000000000e-01 1.200000000000e-01
-1.250000000000e-01 2.500000000000e-01 1.200000000000e-01
0.000000000000e+00 2.500000000000e-01 1.200000000000e-01
1.250000000000e-01 2.500000000000e-01 1.200000000000e-01
2.500000000000e-01 2.500000000000e-01 1.200000000000e-01
-2.500000000000e-01 -2.500000000000e-01 1.800000000000e-01
-1.250000000000e-01 -2.500000000000e-01 1.800000000000e-01
0.000000000000e+00 -2.500000000000e-01 1.800000000000e-01
1.250000000000e-01 -2.500000000000e-01 1.800000000000e-01
2.500000000000e-01 -2.500000000000e-01 1.800000000000e-01
-2.500000000000e-01 -1.250000000000e-01 1.800000000000e-01
-1.250000000000e-01 -1.250000000000e-01 1.800000000000e-01
0.000000000000e+00 -1.250000000000e-01 1.800000000000e-01
1.250000000000e-01 -1.250000000000e-01 1.800000000000e-01
2.500000000000e-01 -1.250000000000e-01 1.800000000000e-01
-2.500000000000e-01 0.000000000000e+00 1.800000000000e-01
-1.250000000000e-01 0.000000000000e+00 1.800000000000e-01
0.000000000000e+00 0.000000000000e+00 1.800000000000e-01
1.250000000000e-01 0.000000000000e+00 1.800000000000e-01
2.500000000000e-01 0.000000000000e+00 1.800000000000e-01
-2.500000000000e-01 1.250000000000e-01 1.800000000000e-01
-1.250000000000e-01 1.250000000000e-01 1.800000000000e-01
0.000000000000e+00 1.250000000000e-01 1.800000000000e-01
1.250000000000e-01 1.250000000000e-01 1.800000000000e-01
2.500000000000e-01 1.250000000000e-01 1.800000000000e-01
-2.500000000000e-01 2.500000000000e-01 1.800000000000e-01
-1.250000000000e-01 2.500000000000e-01 1.800000000000e-01
0.000000000000e+00 2.500000000000e-01 1.800000000000e-01
1.250000000000e-01 2.500000000000e-01 1.800000000000e-01
2.500000000000e-01 2.500000000000e-01 1.800000000000e-01
-2.500000000000e-01 -2.500000000000e-01 2.400000000000e-01
-1.250000000000e-01 -2.500000000000e-01 2.400000000000e-01
0.000000000000e+00 -2.500000000000e-01 2.400000000000e-01
1.250000000000e-01 -2.500000000000e-01 2.400000000000e-01
2.500000000000e-01 -2.500000000000e-01 2.400000000000e-01
-2.500000000000e-01 -1.250000000000e-01 2.400000000000e-01
-1.250000000000e-01 -1.250000000000e-01 2.400000000000e-01
0.000000000000e+00 -1.250000000000e-01 2.400000000000e-01
1.250000000000e-01 -1.250000000000e-01 2.400000000000e-01
2.500000000000e-01 -1.250000000000e-01 2.400000000000e-01
-2.500000000000e-01 0.000000000000e+00 2.400000000000e-01
-1.250000000000e-01 0.000000000000e+00 2.400000000000e-01
0.000000000000e+00 0.000000000000e+00 2.400000000000e-01
1.250000000000e-01 0.000000000000e+00 2.400000000000e-01
2.500000000000e-01 0.000000000000e+00 2.400000000000e-01
-2.500000000000e-01 1.250000000000e-01 2.400000000000e-01
-1.250000000000e-01 1.250000000000e-01 2.400000000000e-01
0.000000000000e+00 1.250000000000e-01 2.400000000000e-01
1.250000000000e-01 1.250000000000e-01 2.400000000000e-01
2.500000000000e-01 1.250000000000e-01 2.400000000000e-01
-2.500000000000e-01 2.500000000000e-01 2.400000000000e-01
-1.250000000000e-01 2.500000000000e-01 2.400000000000e-01
0.000000000000e+00 2.500000000000e-01 2.400000000000e-01
1.250000000000e-01 2.500000000000e-01 2.400000000000e-01
2.500000000000e-01 2.500000000000e-01 2.400000000000e-01
-2.499999937758e-01 -2.499999937839e-01 2.410265017336e-01
-1.249999957150e-01 -2.499999941565e-01 2.410265049481e-01
1.209387072892e-11 -2.499999946635e-01 2.410265065353e-01
1.249999957392e-01 -2.499999941565e-01 2.410265049711e-01
2.499999938000e-01 -2.499999937840e-01 2.410265017796e-01
-2.499999941484e-01 -1.249999957231e-01 2.410265049408e-01
-1.249999957540e-01 -1.249999957621e-01 2.410265078678e-01
1.211670734186e-11 -1.249999959462e-01 2.410265092884e-01
1.249999957783e-01 -1.249999957622e-01 2.410265078908e-01
2.499999941726e-01 -1.249999957232e-01 2.410265049868e-01
-2.499999946554e-01 4.047526250577e-12 2.410265065207e-01
-1.249999959380e-01 4.024473574923e-12 2.410265092811e-01
1.213963609381e-11 4.001457912890e-12 2.410265106612e-01
1.249999959623e-01 3.978484880351e-12 2.410265093041e-01
2.499999946796e-01 3.955552491221e-12 2.410265065667e-01
-2.499999941484e-01 1.249999957312e-01 2.410265049491e-01
-1.249999957540e-01 1.249999957702e-01 2.410265078761e-01
1.216269004718e-11 1.249999959542e-01 2.410265092967e-01
1.249999957783e-01 1.249999957701e-01 2.410265078992e-01
2.499999941727e-01 1.249999957311e-01 2.410265049952e-01
-2.499999937758e-01 2.499999937920e-01 2.410265017503e-01
-1.249999957149e-01 2.499999941646e-01 2.410265049648e-01
1.218583851956e-11 2.499999946715e-01 2.410265065521e-01
1.249999957393e-01 2.499999941645e-01 2.410265049879e-01
2.499999938001e-01 2.499999937919e-01 2.410265017964e-01
-2.499999952876e-01 -2.499999952918e-01 3.060265027532e-01
-1.249999968963e-01 -2.499999955073e-01 3.060265061984e-01
6.110356993982e-12 -2.499999958598e-01 3.060265080151e-01
1.249999969085e-01 -2.499999955074e-01 3.060265062214e-01
2.499999952998e-01 -2.499999952919e-01 3.060265027992e-01
-2.499999955031e-01 -1.249999969005e-01 3.060265061911e-01
-1.249999968891e-01 -1.249999968934e-01 3.060265094345e-01
6.133186932205e-12 -1.249999970201e-01 3.060265111404e-01
1.249999969014e-01 -1.249999968934e-01 3.060265094576e-01
2.499999955153e-01 -1.249999969006e-01 3.060265062371e-01
-2.499999958554e-01 1.870155141048e-12 3.060265080005e-01
-1.249999970158e-01 1.847098993116e-12 3.060265111330e-01
6.156104932956e-12 1.824080763888e-12 3.060265128340e-01
1.249999970281e-01 1.801112871456e-12 3.060265111561e-01
2.499999958678e-01 1.778177955339e-12 3.060265080465e-01
-2.499999955030e-01 1.249999969043e-01 3.060265061994e-01
-1.249999968891e-01 1.249999968971e-01 3.060265094429e-01
6.179172796558e-12 1.249999970237e-01 3.060265111487e-01
1.249999969014e-01 1.249999968970e-01 3.060265094659e-01
2.499999955154e-01 1.249999969042e-01 3.060265062455e-01
-2.499999952875e-01 2.499999952956e-01 3.060265027700e-01
-1.249999968962e-01 2.499999955110e-01 3.060265062151e-01
6.202326796938e-12 2.499999958634e-01 3.060265080319e-01
1.249999969086e-01 2.499999955110e-01 3.060265062381e-01
2.499999952999e-01 2.499999952955e-01 3.060265028160e-01
-2.499999966973e-01 -2.499999966977e-01 3.710265040134e-01
-1.249999979138e-01 -2.499999967934e-01 3.710265076514e-01
1.267485357997e-13 -2.499999969987e-01 3.710265095730e-01
1.249999979141e-01 -2.499999967934e-01 3.710265076744e-01
2.499999966975e-01 -2.499999966978e-01 3.710265040595e-01
-2.499999967929e-01 -1.249999979142e-01 3.710265076441e-01
-1.249999979099e-01 -1.249999979104e-01 3.710265111370e-01
1.495954343477e-13 -1.249999979810e-01 3.710265129762e-01
1.249999979102e-01 -1.249999979104e-01 3.710265111600e-01
2.499999967932e-01 -1.249999979143e-01 3.710265076901e-01
-2.499999969981e-01 -3.072579853584e-13 3.710265095583e-01
-1.249999979805e-01 -3.303013157044e-13 3.710265129689e-01
1.725151061573e-13 -3.533229371404e-13 3.710265148217e-01
1.249999979809e-01 -3.762882790899e-13 3.710265129919e-01
2.499999969985e-01 -3.992290725988e-13 3.710265096043e-01
-2.499999967928e-01 1.249999979136e-01 3.710265076525e-01
-1.249999979098e-01 1.249999979097e-01 3.710265111453e-01
1.955812187730e-13 1.249999979803e-01 3.710265129846e-01
1.249999979102e-01 1.249999979097e-01 3.710265111684e-01
2.499999967932e-01 1.249999979135e-01 3.710265076985e-01
-2.499999966972e-01 2.499999966971e-01 3.710265040302e-01
-1.249999979137e-01 2.499999967927e-01 3.710265076682e-01
2.187183732149e-13 2.499999969979e-01 3.710265095897e-01
1.249999979142e-01 2.499999967927e-01 3.710265076912e-01
2.499999966976e-01 2.499999966970e-01 3.710265040762e-01
-2.499999984148e-01 -2.499999984114e-01 4.360265048810e-01
-1.249999990222e-01 -2.499999984219e-01 4.360265087245e-01
-5.856897971183e-12 -2.499999984912e-01 4.360265106891e-01
1.249999990105e-01 -2.499999984220e-01 4.360265087476e-01
2.499999984031e-01 -2.499999984115e-01 4.360265049271e-01
-2.499999984252e-01 -1.249999990188e-01 4.360265087172e-01
-1.249999990205e-01 -1.249999990171e-01 4.360265124304e-01
-5.834033257972e-12 -1.249999990380e-01 4.360265143225e-01
1.249999990088e-01 -1.249999990172e-01 4.360265124534e-01
2.499999984136e-01 -1.249999990189e-01 4.360265087633e-01
-2.499999984945e-01 -2.484681417907e-12 4.360265106745e-01
-1.249999990412e-01 -2.507719977967e-12 4.360265143152e-01
-5.811115475684e-12 -2.530740923774e-12 4.360265162294e-01
1.249999990296e-01 -2.553705656466e-12 4.360265143382e-01
2.499999984829e-01 -2.576649257299e-12 4.360265107205e-01
-2.499999984252e-01 1.249999990139e-01 4.360265087256e-01
-1.249999990204e-01 1.249999990121e-01 4.360265124388e-01
-5.788047120128e-12 1.249999990329e-01 4.360265143309e-01
1.249999990088e-01 1.249999990121e-01 4.360265124618e-01
2.499999984136e-01 1.249999990138e-01 4.360265087716e-01
-2.499999984147e-01 2.499999984065e-01 4.360265048978e-01
-1.249999990221e-01 2.499999984169e-01 4.360265087413e-01
-5.764927187334e-12 2.499999984861e-01 4.360265107059e-01
1.249999990106e-01 2.499999984169e-01 4.360265087643e-01
2.499999984032e-01 2.499999984064e-01 4.360265049438e-01
-2.500000004269e-01 -2.500000004197e-01 5.010265051973e-01
-1.250000004461e-01 -2.500000003335e-01 5.010265091068e-01
-1.184048560978e-11 -2.500000002755e-01 5.010265110552e-01
1.250000004224e-01 -2.500000003336e-01 5.010265091298e-01
2.500000004032e-01 -2.500000004198e-01 5.010265052434e-01
-2.500000003407e-01 -1.250000004389e-01 5.010265090995e-01
-1.250000004249e-01 -1.250000004178e-01 5.010265128689e-01
-1.181762842135e-11 -1.250000004080e-01 5.010265147402e-01
1.250000004013e-01 -1.250000004178e-01 5.010265128919e-01
2.500000003170e-01 -1.250000004390e-01 5.010265091455e-01
-2.500000002826e-01 -4.662081147658e-12 5.010265110405e-01
-1.250000004151e-01 -4.685124103042e-12 5.010265147328e-01
-1.179472563577e-11 -4.708147839920e-12 5.010265166226e-01
1.250000003915e-01 -4.731107996180e-12 5.010265147559e-01
2.500000002590e-01 -4.754047802005e-12 5.010265110866e-01
-2.500000003406e-01 1.250000004296e-01 5.010265091079e-01
-1.250000004248e-01 1.250000004084e-01 5.010265128773e-01
-1.177164074259e-11 1.250000003986e-01 5.010265147485e-01
1.250000004013e-01 1.250000004083e-01 5.010265129003e-01
2.500000003171e-01 1.250000004295e-01 5.010265091539e-01
-2.500000004268e-01 2.500000004104e-01 5.010265052141e-01
-1.250000004460e-01 2.500000003242e-01 5.010265091235e-01
-1.174851265510e-11 2.500000002661e-01 5.010265110719e-01
1.250000004225e-01 2.500000003241e-01 5.010265091466e-01
2.500000004033e-01 2.500000004103e-01 5.010265052601e-01
CELLS 128 1152
8 0 1 6 5 25 26 31 30
8 1 2 7 6 26 27 32 31
8 2 3 8 7 27 28 33 32
8 3 4 9 8 28 29 34 33
8 5 6 11 10 30 31 36 35
8 6 7 12 11 31 32 37 36
8 7 8 13 12 32 33 38 37
8 8 9 14 13 33 34 39 38
8 10 11 16 15 35 36 41 40
8 11 12 17 16 36 37 42 41
8 12 13 18 17 37 38 43 42
8 13 14 19 18 38 39 44 43
8 15 16 21 20 40 41 46 45
8 16 17 22 21 41 42 47 46
8 17 18 23 22 42 43 48 47
8 18 19 24 23 43 44 49 48
8 25 26 31 30 50 51 56 55
8 26 27 32 31 51 52 57 56
8 27 28 33 32 52 53 58 57
8 28 29 34 33 53 54 59 58
8 30 31 36 35 55 56 61 60
8 31 32 37 36 56 57 62 61
8 32 33 38 37 57 58 63 62
8 33 34 39 38 58 59 64 63
8 35 36 41 40 60 61 66 65
8 36 37 42 41 61 62 67 66
8 37 38 43 42 62 63 68 67
8 38 39 44 43 63 64 69 68
8 40 41 46 45 65 66 71 70
8 41 42 47 46 66 67 72 71
8 42 43 48 47 67 68 73 72
8 43 44 49 48 68 69 74 73
8 50 51 56 55 75 76 81 80
8 51 52 57 56 76 77 82 81
8 52 53 58 57 77 78 83 82
8 53 54 59 58 78 79 84 83
8 55 56 61 60 80 81 86 85
8 56 57 62 61 81 82 87 86
8 57 58 63 62 82 83 88 87
8 58 59 64 63 83 84 89 88
8 60 61 66 65 85 86 91 90
8 61 62 67 66 86 87 92 91
8 62 63 68 67 87 88 93 92
8 63 64 69 68 88 89 94 93
8 65 66 71 70 90 91 96 95
8 66 67 72 71 91 92 97 96
8 67 68 73 72 92 93 98 97
8 68 69 74 73 93 94 99 98
8 75 76 81 80 100 101 106 105
8 76 77 82 81 101 102 107 106
8 77 78 83 82 102 103 108 107
8 78 79 84 83 103 104 109 108
8 80 81 86 85 105 106 111 110
8 81 82 87 86 106 107 112 111
8 82 83 88 87 107 108 113 112
8 83 84 89 88 108 109 114 113
8 85 86 91 90 110 111 116 115
8 86 87 92 91 111 112 117 116
8 87 88 93 92 112 113 118 117
8 88 89 94 93 113 114 119 118
8 90 91 96 95 115 116 121 120
8 91 92 97 96 116 117 122 121
8 92 93 98 97 117 118 123 122
8 93 94 99 98 118 119 124 123
8 125 126 131 130 150 151 156 155
8 126 127 132 131 151 152 157 156
8 127 128 133 132 152 153 158 157
8 128 129 134 133 153 154 159 158
8 130 131 136 135 155 156 161 160
8 131 132 137 136 156 157 162 161
8 132 133 138 137 157 158 163 162
8 133 134 139 138 158 159 164 163
8 135 136 141 140 160 161 166 165
8 136 137 142 141 161 162 167 166
8 137 138 143 142 162 163 168 167
8 138 139 144 143 163 164 169 168
8 140 141 146 145 165 166 171 170
8 141 142 147 146 166 167 172 171
8 142 143 148 147 167 168 173 172
8 143 144 149 148 168 169 174 173
8 150 151 156 155 175 176 181 180
8 151 152 157 156 176 177 182 181
8 152 153 158 157 177 178 183 182
8 153 154 159 158 178 179 184 183
8 155 156 161 160 180 181 186 185
8 156 157 162 161 181 182 187 186
8 157 158 163 162 182 183 188 187
8 158 159 164 163 183 184 189 188
8 160 161 166 165 185 186 191 190
8 161 162 167 166 186 187 192 191
8 162 163 168 167 187 188 193 192
8 163 164 169 168 188 189 194 193
8 165 166 171 170 190 191 196 195
8 166 167 172 171 191 192 197 196
8 167 168 173 172 192 193 198 197
8 168 169 174 173 193 194 199 198
8 175 176 181 180 200 201 206 205
8 176 177 182 181 201 202 207 206
8 177 178 183 182 202 203 208 207
8 178 179 184 183 203 204 209 208
8 180 181 186 185 205 206 211 210
8 181 182 187 186 206 207 212 211
8 182 183 188 187 207 208 213 212
8 183 184 189 188 208 209 214 213
8 185 186 191 190 210 211 216 215
8 186 187 192 191 211 212 217 216
8 187 188 193 192 212 213 218 217
8 188 189 194 193 213 214 219 218
8 190 191 196 195 215 216 221 220
8 191 192 197 196 216 217 222 221
8 192 193 198 197 217 218 223 222
8 193 194 199 198 218 219 224 223
8 200 201 206 205 225 226 231 230
8 201 202 207 206 226 227 232 231
8 202 203 208 207 227 228 233 232
8 203 204 209 208 228 229 234 233
8 205 206 211 210 230 231 236 235
8 206 207 212 211 231 232 237 236
8 207 208 213 212 232 233 238 237
8 208 209 214 213 233 234 239 238
8 210 211 216 215 235 236 241 240
8 211 212 217 216 236 237 242 241
8 212 213 218 217 237 238 243 242
8 213 214 219 218 238 239 244 243
8 215 216 221 220 240 241 246 245
8 216 217 222 221 241 242 247 246
8 217 218 223 222 242 243 248 247
8 218 219 224 223 243 244 249 248
CELL_TYPES 128
12
12
12
12
12
12
12
12
12
12
12
12
12
12
12
12
12
12
12
12
12
12
12
12
12
12
12
12
12
12
12
12
12
12
12
12
12
12
12
12
12
12
12
12
12
12
12
12
12
12
12
12
12
12
12
12
12
12
12
12
12
12
12
12
12
12
12
12
12
12
12
12
12
12
12
12
12
12
12
12
12
12
12
12
12
12
12
12
12
12
12
12
12
12
12
12
12
12
12
12
12
12
12
12
12
12
12
12
12
12
12
12
12
12
12
12
12
12
12
12
12
12
12
12
12
12
12
12
POINT_DATA 250
VECTORS displacement float
0.000000000000e+00 0.000000000000e+00 0.000000000000e+00
0.000000000000e+00 0.000000000000e+00 0.000000000000e+00
0.000000000000e+00 0.000000000000e+00 0.000000000000e+00
0.000000000000e+00 0.000000000000e+00 0.000000000000e+00
0.000000000000e+00 0.000000000000e+00 0.000000000000e+00
0.000000000000e+00 0.000000000000e+00 0.000000000000e+00
0.000000000000e+00 0.000000000000e+00 0.000000000000e+00
0.000000000000e+00 0.000000000000e+00 0.000000000000e+00
0.000000000000e+00 0.000000000000e+00 0.000000000000e+00
0.000000000000e+00 0.000000000000e+00 0.000000000000e+00
0.000000000000e+00 0.000000000000e+00 0.000000000000e+00
0.000000000000e+00 0.000000000000e+00 0.000000000000e+00
0.000000000000e+00 0.000000000000e+00 0.000000000000e+00
0.000000000000e+00 0.000000000000e+00 0.000000000000e+00
0.000000000000e+00 0.000000000000e+00 0.000000000000e+00
0.000000000000e+00 0.000000000000e+00 0.000000000000e+00
0.000000000000e+00 0.000000000000e+00 0.000000000000e+00
0.000000000000e+00 0.000000000000e+00 0.000000000000e+00
0.000000000000e+00 0.000000000000e+00 0.000000000000e+00
0.000000000000e+00 0.000000000000e+00 0.000000000000e+00
0.000000000000e+00 0.000000000000e+00 0.000000000000e+00
0.000000000000e+00 0.000000000000e+00 0.000000000000e+00
0.000000000000e+00 0.000000000000e+00 0.000000000000e+00
0.000000000000e+00 0.000000000000e+00 0.000000000000e+00
0.000000000000e+00 0.000000000000e+00 0.000000000000e+00
0.000000000000e+00 0.000000000000e+00 0.000000000000e+00
0.000000000000e+00 0.000000000000e+00 0.000000000000e+00
0.000000000000e+00 0.000000000000e+00 0.000000000000e+00
0.000000000000e+00 0.000000000000e+00 0.000000000000e+00
0.000000000000e+00 0.000000000000e+00 0.000000000000e+00
0.000000000000e+00 0.000000000000e+00 0.000000000000e+00
0.000000000000e+00 0.000000000000e+00 0.000000000000e+00
0.000000000000e+00 0.000000000000e+00 0.000000000000e+00
0.000000000000e+00 0.000000000000e+00 0.000000000000e+00
0.000000000000e+00 0.000000000000e+00 0.000000000000e+00
0.000000000000e+00 0.000000000000e+00 0.000000000000e+00
0.000000000000e+00 0.000000000000e+00 0.000000000000e+00
0.000000000000e+00 0.000000000000e+00 0.000000000000e+00
0.000000000000e+00 0.000000000000e+00 0.000000000000e+00
0.000000000000e+00 0.000000000000e+00 0.000000000000e+00
0.000000000000e+00 0.000000000000e+00 0.000000000000e+00
0.000000000000e+00 0.000000000000e+00 0.000000000000e+00
0.000000000000e+00 0.000000000000e+00 0.000000000000e+00
0.000000000000e+00 0.000000000000e+00 0.000000000000e+00
0.000000000000e+00 0.000000000000e+00 0.000000000000e+00
0.000000000000e+00 0.000000000000e+00 0.000000000000e+00
0.000000000000e+00 0.000000000000e+00 0.000000000000e+00
0.000000000000e+00 0.000000000000e+00 0.000000000000e+00
0.000000000000e+00 0.000000000000e+00 0.000000000000e+00
0.000000000000e+00 0.000000000000e+00 0.000000000000e+00
0.000000000000e+00 0.000000000000e+00 0.000000000000e+00
0.000000000000e+00 0.000000000000e+00 0.000000000000e+00
0.000000000000e+00 0.000000000000e+00 0.000000000000e+00
0.000000000000e+00 0.000000000000e+00 0.000000000000e+00
0.000000000000e+00 0.000000000000e+00 0.000000000000e+00
0.000000000000e+00 0.000000000000e+00 0.000000000000e+00
0.000000000000e+00 0.000000000000e+00 0.000000000000e+00
0.000000000000e+00 0.000000000000e+00 0.000000000000e+00
0.000000000000e+00 0.000000000000e+00 0.000000000000e+00
0.000000000000e+00 0.000000000000e+00 0.000000000000e+00
0.000000000000e+00 0.000000000000e+00 0.000000000000e+00
0.000000000000e+00 0.000000000000e+00 0.000000000000e+00
0.000000000000e+00 0.000000000000e+00 0.000000000000e+00
0.000000000000e+00 0.000000000000e+00 0.000000000000e+00
0.000000000000e+00 0.000000000000e+00 0.000000000000e+00
0.000000000000e+00 0.000000000000e+00 0.000000000000e+00
0.000000000000e+00 0.000000000000e+00 0.000000000000e+00
0.000000000000e+00 0.000000000000e+00 0.000000000000e+00
0.000000000000e+00 0.000000000000e+00 0.000000000000e+00
0.000000000000e+00 0.000000000000e+00 0.000000000000e+00
0.000000000000e+00 0.000000000000e+00 0.000000000000e+00
0.000000000000e+00 0.000000000000e+00 0.000000000000e+00
0.000000000000e+00 0.000000000000e+00 0.000000000000e+00
0.000000000000e+00 0.000000000000e+00 0.000000000000e+00
0.000000000000e+00 0.000000000000e+00 0.000000000000e+00
0.000000000000e+00 0.000000000000e+00 0.000000000000e+00
0.000000000000e+00 0.000000000000e+00 0.000000000000e+00
0.000000000000e+00 0.000000000000e+00 0.000000000000e+00
0.000000000000e+00 0.000000000000e+00 0.000000000000e+00
0.000000000000e+00 0.000000000000e+00 0.000000000000e+00
0.000000000000e+00 0.000000000000e+00 0.000000000000e+00
0.000000000000e+00 0.000000000000e+00 0.000000000000e+00
0.000000000000e+00 0.000000000000e+00 0.000000000000e+00
0.000000000000e+00 0.000000000000e+00 0.000000000000e+00
0.000000000000e+00 0.000000000000e+00 0.000000000000e+00
0.000000000000e+00 0.000000000000e+00 0.000000000000e+00
0.000000000000e+00 0.000000000000e+00 0.000000000000e+00
0.000000000000e+00 0.000000000000e+00 0.000000000000e+00
0.000000000000e+00 0.000000000000e+00 0.000000000000e+00
0.000000000000e+00 0.000000000000e+00 0.000000000000e+00
0.000000000000e+00 0.000000000000e+00 0.000000000000e+00
0.000000000000e+00 0.000000000000e+00 0.000000000000e+00
0.000000000000e+00 0.000000000000e+00 0.000000000000e+00
0.000000000000e+00 0.000000000000e+00 0.000000000000e+00
0.000000000000e+00 0.000000000000e+00 0.000000000000e+00
0.000000000000e+00 0.000000000000e+00 0.000000000000e+00
0.000000000000e+00 0.000000000000e+00 0.000000000000e+00
0.000000000000e+00 0.000000000000e+00 0.000000000000e+00
0.000000000000e+00 0.000000000000e+00 0.000000000000e+00
0.000000000000e+00 0.000000000000e+00 0.000000000000e+00
0.000000000000e+00 0.000000000000e+00 0.000000000000e+00
0.000000000000e+00 0.000000000000e+00 0.000000000000e+00
0.000000000000e+00 0.000000000000e+00 0.000000000000e+00
0.000000000000e+00 0.000000000000e+00 0.000000000000e+00
0.000000000000e+00 0.000000000000e+00 0.000000000000e+00
0.000000000000e+00 0.000000000000e+00 0.000000000000e+00
0.000000000000e+00 0.000000000000e+00 0.000000000000e+00
0.000000000000e+00 0.000000000000e+00 0.000000000000e+00
0.000000000000e+00 0.000000000000e+00 0.000000000000e+00
0.000000000000e+00 0.000000000000e+00 0.000000000000e+00
0.000000000000e+00 0.000000000000e+00 0.000000000000e+00
0.000000000000e+00 0.000000000000e+00 0.000000000000e+00
0.000000000000e+00 0.000000000000e+00 0.000000000000e+00
0.000000000000e+00 0.000000000000e+00 0.000000000000e+00
0.000000000000e+00 0.000000000000e+00 0.000000000000e+00
0.000000000000e+00 0.000000000000e+00 0.000000000000e+00
0.000000000000e+00 0.000000000000e+00 0.000000000000e+00
0.000000000000e+00 0.000000000000e+00 0.000000000000e+00
0.000000000000e+00 0.000000000000e+00 0.000000000000e+00
0.000000000000e+00 0.000000000000e+00 0.000000000000e+00
0.000000000000e+00 0.000000000000e+00 0.000000000000e+00
0.000000000000e+00 0.000000000000e+00 0.000000000000e+00
0.000000000000e+00 0.000000000000e+00 0.000000000000e+00
0.000000000000e+00 0.000000000000e+00 0.000000000000e+00
0.000000000000e+00 0.000000000000e+00 0.000000000000e+00
6.224150346384e-09 6.216103730201e-09 -1.397349826640e-02
4.284987445871e-09 5.843495618798e-09 -1.397349505191e-02
1.209387072892e-11 5.336509781198e-09 -1.397349346468e-02
-4.260799671311e-09 5.843450015735e-09 -1.397349502890e-02
-6.199962540200e-09 6.216012485327e-09 -1.397349822038e-02
5.851588012433e-09 4.276940922399e-09 -1.397349505923e-02
4.245963311287e-09 4.237870974474e-09 -1.397349213223e-02
1.211670734186e-11 4.053837226653e-09 -1.397349071163e-02
-4.221729869863e-09 4.237825239070e-09 -1.397349210921e-02
-5.827354530606e-09 4.276849425389e-09 -1.397349501320e-02
5.344648001055e-09 4.047526250577e-12 -1.397349347932e-02
4.061975427101e-09 4.024473574923e-12 -1.397349071895e-02
1.213963609381e-11 4.001457912890e-12 -1.397348933879e-02
-4.037696131389e-09 3.978484880351e-12 -1.397349069593e-02
-5.320368637487e-09 3.955552491221e-12 -1.397349343329e-02
5.851634153922e-09 -4.268845855767e-09 -1.397349505085e-02
4.246009390885e-09 -4.229822003306e-09 -1.397349212385e-02
1.216269004718e-11 -4.045834298171e-09 -1.397349070325e-02
-4.221683978794e-09 -4.229868250096e-09 -1.397349210084e-02
-5.827308685003e-09 -4.268938314615e-09 -1.397349500483e-02
6.224242597936e-09 -6.208008643562e-09 -1.397349824966e-02
4.285079593035e-09 -5.835446619348e-09 -1.397349503516e-02
1.218583851956e-11 -5.328506819966e-09 -1.397349344793e-02
-4.260707879359e-09 -5.835492999946e-09 -1.397349501215e-02
-6.199870853585e-09 -6.208101363330e-09 -1.397349820363e-02
4.712409153056e-09 4.708168743345e-09 -1.397349724680e-02
3.103697150097e-09 4.492660556357e-09 -1.397349380162e-02
6.110356993982e-12 4.140220716442e-09 -1.397349198488e-02
-3.091476448561e-09 4.492614895691e-09 -1.397349377861e-02
-4.700188484931e-09 4.708077431662e-09 -1.397349720077e-02
4.496946748147e-09 3.099456810451e-09 -1.397349380894e-02
3.110890172206e-09 3.106604016222e-09 -1.397349056546e-02
6.133186932205e-12 2.979898624439e-09 -1.397348885964e-02
-3.098623807634e-09 3.106558236549e-09 -1.397349054244e-02
-4.484680395280e-09 3.099365258528e-09 -1.397349376291e-02
4.144552753860e-09 1.870155141048e-12 -1.397349199952e-02
2.984230654589e-09 1.847098993116e-12 -1.397348886696e-02
6.156104932956e-12 1.824080763888e-12 -1.397348716601e-02
-2.971918445247e-09 1.801112871456e-12 -1.397348884394e-02
-4.132240527457e-09 1.778177955339e-12 -1.397349195349e-02
4.496992853168e-09 -3.095716507640e-09 -1.397349380057e-02
3.110936234797e-09 -3.102909817505e-09 -1.397349055708e-02
6.179172796558e-12 -2.976250464304e-09 -1.397348885126e-02
-3.098577901821e-09 -3.102956015523e-09 -1.397349053407e-02
-4.484634531836e-09 -3.095808906779e-09 -1.397349375454e-02
4.712501364652e-09 -4.704428457881e-09 -1.397349723005e-02
3.103789275694e-09 -4.488966357721e-09 -1.397349378487e-02
6.202326796938e-12 -4.136572551322e-09 -1.397349196813e-02
-3.091384637190e-09 -4.489012674087e-09 -1.397349376186e-02
-4.700096760250e-09 -4.704521090176e-09 -1.397349718402e-02
3.302716063730e-09 3.302281896197e-09 -1.397349598656e-02
2.086191647445e-09 3.206637568964e-09 -1.397349234857e-02
1.267485357997e-13 3.001343551986e-09 -1.397349042704e-02
-2.085938163385e-09 3.206591844908e-09 -1.397349232556e-02
-3.302462619350e-09 3.302190490293e-09 -1.397349594053e-02
3.207117532634e-09 2.085757535062e-09 -1.397349235589e-02
2.090109524466e-09 2.089629580749e-09 -1.397348886303e-02
1.495954343477e-13 2.018964690721e-09 -1.397348702378e-02
-2.089810350175e-09 2.089583756031e-09 -1.397348884002e-02
-3.206818393714e-09 2.085665920462e-09 -1.397349230987e-02
3.001869382071e-09 -3.072579853584e-13 -1.397349044168e-02
2.019490520510e-09 -3.303013157044e-13 -1.397348703110e-02
1.725151061573e-13 -3.533229371404e-13 -1.397348517827e-02
-2.019145504713e-09 -3.762882790899e-13 -1.397348700808e-02
-3.001524380176e-09 -3.992290725988e-13 -1.397349039565e-02
3.207163613945e-09 -2.086372054361e-09 -1.397349234752e-02
2.090155568715e-09 -2.090290194189e-09 -1.397348885466e-02
1.955812187730e-13 -2.019671338374e-09 -1.397348701540e-02
-2.089764427525e-09 -2.090336343378e-09 -1.397348883165e-02
-3.206772508184e-09 -2.086464383671e-09 -1.397349230149e-02
3.302808235723e-09 -3.302896436399e-09 -1.397349596981e-02
2.086283746302e-09 -3.207298198577e-09 -1.397349233183e-02
2.187183732149e-13 -3.002050211801e-09 -1.397349041029e-02
-2.085846328845e-09 -3.207344445017e-09 -1.397349230881e-02
-3.302370861419e-09 -3.302988966542e-09 -1.397349592378e-02
1.585205125724e-09 1.588577231035e-09 -1.397349511896e-02
9.777870648089e-10 1.578080925542e-09 -1.397349127546e-02
-5.856897971183e-12 1.508797583808e-09 -1.397348931086e-02
-9.895008760874e-10 1.578035114177e-09 -1.397349125244e-02
-1.596918961362e-09 1.588485691976e-09 -1.397349507293e-02
1.574754636544e-09 9.811592090752e-10 -1.397349128278e-02
9.795487709004e-10 9.828750649093e-10 -1.397348756961e-02
-5.834033257972e-12 9.620353238772e-10 -1.397348567749e-02
-9.912168620065e-10 9.828291936322e-10 -1.397348754659e-02
-1.586422757531e-09 9.810675219031e-10 -1.397349123675e-02
1.505517186993e-09 -2.484681417907e-12 -1.397348932550e-02
9.587549323007e-10 -2.507719977967e-12 -1.397348568481e-02
-5.811115475684e-12 -2.530740923774e-12 -1.397348377059e-02
-9.703771858244e-10 -2.553705656466e-12 -1.397348566180e-02
-1.517139449859e-09 -2.576649257299e-12 -1.397348927947e-02
1.574800683695e-09 -9.861285790196e-10 -1.397349127440e-02
9.795947969003e-10 -9.878905177901e-10 -1.397348756123e-02
-5.788047120128e-12 -9.670968143723e-10 -1.397348566912e-02
-9.911709173562e-10 -9.879366110869e-10 -1.397348753822e-02
-1.586376838612e-09 -9.862208269089e-10 -1.397349122837e-02
1.585297247014e-09 -1.593546618375e-09 -1.397349510221e-02
9.778791386976e-10 -1.583096391914e-09 -1.397349125871e-02
-5.764927187334e-12 -1.513859082744e-09 -1.397348929411e-02
-9.894090114979e-10 -1.583142545212e-09 -1.397349123569e-02
-1.596827146615e-09 -1.593639010051e-09 -1.397349505618e-02
-4.269197635626e-10 -4.197413868011e-10 -1.397349480267e-02
-4.460905052485e-10 -3.335209315138e-10 -1.397349089320e-02
-1.184048560978e-11 -2.754898466345e-10 -1.397348894482e-02
4.224094746655e-10 -3.335668354640e-10 -1.397349087019e-02
4.032386737406e-10 -4.198330670799e-10 -1.397349475665e-02
-3.406534797362e-10 -4.389121261426e-10 -1.397349090052e-02
-4.248885926913e-10 -4.177560628726e-10 -1.397348713109e-02
-1.181762842135e-11 -4.080264574699e-10 -1.397348525984e-02
4.012532716580e-10 -4.178019926892e-10 -1.397348710808e-02
3.170180978119e-10 -4.390038961079e-10 -1.397349085450e-02
-2.825764661685e-10 -4.662081147658e-12 -1.397348895946e-02
-4.151130685955e-10 -4.685124103042e-12 -1.397348526716e-02
-1.179472563577e-11 -4.708147839920e-12 -1.397348337740e-02
3.915235637708e-10 -4.731107996180e-12 -1.397348524414e-02
2.589869212935e-10 -4.754047802005e-12 -1.397348891343e-02
-3.406074689043e-10 4.295879338210e-10 -1.397349089215e-02
-4.248425892623e-10 4.083857824740e-10 -1.397348712272e-02
-1.177164074259e-11 3.986101318479e-10 -1.397348525146e-02
4.012992389669e-10 4.083397519199e-10 -1.397348709970e-02
3.170640514960e-10 4.294957812678e-10 -1.397349084612e-02
-4.268276894331e-10 4.104171635103e-10 -1.397349478593e-02
-4.459984638492e-10 3.241506240018e-10 -1.397349087645e-02
-1.174851265510e-11 2.660734937090e-10 -1.397348892807e-02
4.225013832281e-10 3.241045729483e-10 -1.397349085344e-02
4.033305517030e-10 4.103249267324e-10 -1.397349473990e-02
SCALARS displacement_magnitude float 1
LOOKUP_TABLE default
0.000000000000e+00
0.000000000000e+00
0.000000000000e+00
0.000000000000e+00
0.000000000000e+00
0.000000000000e+00
0.000000000000e+00
0.000000000000e+00
0.000000000000e+00
0.000000000000e+00
0.000000000000e+00
0.000000000000e+00
0.000000000000e+00
0.000000000000e+00
0.000000000000e+00
0.000000000000e+00
0.000000000000e+00
0.000000000000e+00
0.000000000000e+00
0.000000000000e+00
0.000000000000e+00
0.000000000000e+00
0.000000000000e+00
0.000000000000e+00
0.000000000000e+00
0.000000000000e+00
0.000000000000e+00
0.000000000000e+00
0.000000000000e+00
0.000000000000e+00
0.000000000000e+00
0.000000000000e+00
0.000000000000e+00
0.000000000000e+00
0.000000000000e+00
0.000000000000e+00
0.000000000000e+00
0.000000000000e+00
0.000000000000e+00
0.000000000000e+00
0.000000000000e+00
0.000000000000e+00
0.000000000000e+00
0.000000000000e+00
0.000000000000e+00
0.000000000000e+00
0.000000000000e+00
0.000000000000e+00
0.000000000000e+00
0.000000000000e+00
0.000000000000e+00
0.000000000000e+00
0.000000000000e+00
0.000000000000e+00
0.000000000000e+00
0.000000000000e+00
0.000000000000e+00
0.000000000000e+00
0.000000000000e+00
0.000000000000e+00
0.000000000000e+00
0.000000000000e+00
0.000000000000e+00
0.000000000000e+00
0.000000000000e+00
0.000000000000e+00
0.000000000000e+00
0.000000000000e+00
0.000000000000e+00
0.000000000000e+00
0.000000000000e+00
0.000000000000e+00
0.000000000000e+00
0.000000000000e+00
0.000000000000e+00
0.000000000000e+00
0.000000000000e+00
0.000000000000e+00
0.000000000000e+00
0.000000000000e+00
0.000000000000e+00
0.000000000000e+00
0.000000000000e+00
0.000000000000e+00
0.000000000000e+00
0.000000000000e+00
0.000000000000e+00
0.000000000000e+00
0.000000000000e+00
0.000000000000e+00
0.000000000000e+00
0.000000000000e+00
0.000000000000e+00
0.000000000000e+00
0.000000000000e+00
0.000000000000e+00
0.000000000000e+00
0.000000000000e+00
0.000000000000e+00
0.000000000000e+00
0.000000000000e+00
0.000000000000e+00
0.000000000000e+00
0.000000000000e+00
0.000000000000e+00
0.000000000000e+00
0.000000000000e+00
0.000000000000e+00
0.000000000000e+00
0.000000000000e+00
0.000000000000e+00
0.000000000000e+00
0.000000000000e+00
0.000000000000e+00
0.000000000000e+00
0.000000000000e+00
0.000000000000e+00
0.000000000000e+00
0.000000000000e+00
0.000000000000e+00
0.000000000000e+00
0.000000000000e+00
0.000000000000e+00
0.000000000000e+00
0.000000000000e+00
1.397349826641e-02
1.397349505191e-02
1.397349346468e-02
1.397349502890e-02
1.397349822038e-02
1.397349505923e-02
1.397349213223e-02
1.397349071163e-02
1.397349210921e-02
1.397349501320e-02
1.397349347932e-02
1.397349071895e-02
1.397348933879e-02
1.397349069593e-02
1.397349343330e-02
1.397349505086e-02
1.397349212385e-02
1.397349070325e-02
1.397349210084e-02
1.397349500483e-02
1.397349824966e-02
1.397349503516e-02
1.397349344793e-02
1.397349501215e-02
1.397349820363e-02
1.397349724680e-02
1.397349380162e-02
1.397349198488e-02
1.397349377861e-02
1.397349720077e-02
1.397349380894e-02
1.397349056546e-02
1.397348885964e-02
1.397349054244e-02
1.397349376292e-02
1.397349199952e-02
1.397348886696e-02
1.397348716601e-02
1.397348884394e-02
1.397349195349e-02
1.397349380057e-02
1.397349055708e-02
1.397348885126e-02
1.397349053407e-02
1.397349375454e-02
1.397349723005e-02
1.397349378487e-02
1.397349196813e-02
1.397349376186e-02
1.397349718402e-02
1.397349598656e-02
1.397349234858e-02
1.397349042704e-02
1.397349232556e-02
1.397349594053e-02
1.397349235589e-02
1.397348886303e-02
1.397348702378e-02
1.397348884002e-02
1.397349230987e-02
1.397349044168e-02
1.397348703110e-02
1.397348517827e-02
1.397348700808e-02
1.397349039565e-02
1.397349234752e-02
1.397348885466e-02
1.397348701540e-02
1.397348883165e-02
1.397349230149e-02
1.397349596981e-02
1.397349233183e-02
1.397349041029e-02
1.397349230881e-02
1.397349592378e-02
1.397349511896e-02
1.397349127546e-02
1.397348931086e-02
1.397349125244e-02
1.397349507293e-02
1.397349128278e-02
1.397348756961e-02
1.397348567749e-02
1.397348754659e-02
1.397349123675e-02
1.397348932550e-02
1.397348568481e-02
1.397348377059e-02
1.397348566180e-02
1.397348927947e-02
1.397349127440e-02
1.397348756123e-02
1.397348566912e-02
1.397348753822e-02
1.397349122837e-02
1.397349510221e-02
1.397349125871e-02
1.397348929411e-02
1.397349123569e-02
1.397349505618e-02
1.397349480267e-02
1.397349089320e-02
1.397348894482e-02
1.397349087019e-02
1.397349475665e-02
1.397349090052e-02
1.397348713109e-02
1.397348525984e-02
1.397348710808e-02
1.397349085450e-02
1.397348895946e-02
1.397348526716e-02
1.397348337740e-02
1.397348524414e-02
1.397348891343e-02
1.397349089215e-02
1.397348712272e-02
1.397348525146e-02
1.397348709970e-02
1.397349084612e-02
1.397349478593e-02
1.397349087645e-02
1.397348892807e-02
1.397349085344e-02
1.397349473990e-02
CELL_DATA 128
SCALARS displacement_magnitude float 1
LOOKUP_TABLE default
0.000000000000e+00
0.000000000000e+00
0.000000000000e+00
0.000000000000e+00
0.000000000000e+00
0.000000000000e+00
0.000000000000e+00
0.000000000000e+00
0.000000000000e+00
0.000000000000e+00
0.000000000000e+00
0.000000000000e+00
0.000000000000e+00
0.000000000000e+00
0.000000000000e+00
0.000000000000e+00
0.000000000000e+00
0.000000000000e+00
0.000000000000e+00
0.000000000000e+00
0.000000000000e+00
0.000000000000e+00
0.000000000000e+00
0.000000000000e+00
0.000000000000e+00
0.000000000000e+00
0.000000000000e+00
0.000000000000e+00
0.000000000000e+00
0.000000000000e+00
0.000000000000e+00
0.000000000000e+00
0.000000000000e+00
0.000000000000e+00
0.000000000000e+00
0.000000000000e+00
0.000000000000e+00
0.000000000000e+00
0.000000000000e+00
0.000000000000e+00
0.000000000000e+00
0.000000000000e+00
0.000000000000e+00
0.000000000000e+00
0.000000000000e+00
0.000000000000e+00
0.000000000000e+00
0.000000000000e+00
0.000000000000e+00
0.000000000000e+00
0.000000000000e+00
0.000000000000e+00
0.000000000000e+00
0.000000000000e+00
0.000000000000e+00
0.000000000000e+00
0.000000000000e+00
0.000000000000e+00
0.000000000000e+00
0.000000000000e+00
0.000000000000e+00
0.000000000000e+00
0.000000000000e+00
0.000000000000e+00
1.397349449157e-02
1.397349207151e-02
1.397349206000e-02
1.397349445705e-02
1.397349207883e-02
1.397348979496e-02
1.397348978345e-02
1.397349204431e-02
1.397349207464e-02
1.397348979077e-02
1.397348977926e-02
1.397349204012e-02
1.397349447901e-02
1.397349205894e-02
1.397349204744e-02
1.397349444449e-02
1.397349312211e-02
1.397349048425e-02
1.397349047275e-02
1.397349308759e-02
1.397349049157e-02
1.397348794428e-02
1.397348793277e-02
1.397349045705e-02
1.397349048739e-02
1.397348794009e-02
1.397348792859e-02
1.397349045287e-02
1.397349310955e-02
1.397349047169e-02
1.397349046018e-02
1.397349307503e-02
1.397349185011e-02
1.397348906198e-02
1.397348905047e-02
1.397349181559e-02
1.397348906930e-02
1.397348634983e-02
1.397348633833e-02
1.397348903478e-02
1.397348906511e-02
1.397348634565e-02
1.397348633414e-02
1.397348903059e-02
1.397349183755e-02
1.397348904942e-02
1.397348903791e-02
1.397349180303e-02
1.397349112179e-02
1.397348825780e-02
1.397348824629e-02
1.397349108727e-02
1.397348826512e-02
1.397348546725e-02
1.397348545574e-02
1.397348823060e-02
1.397348826093e-02
1.397348546306e-02
1.397348545155e-02
1.397348822641e-02
1.397349110922e-02
1.397348824523e-02
1.397348823373e-02
1.397349107470e-02
SCALARS engineering_strain_norm float 1
LOOKUP_TABLE default
0.000000000000e+00
0.000000000000e+00
0.000000000000e+00
0.000000000000e+00
0.000000000000e+00
0.000000000000e+00
0.000000000000e+00
0.000000000000e+00
0.000000000000e+00
0.000000000000e+00
0.000000000000e+00
0.000000000000e+00
0.000000000000e+00
0.000000000000e+00
0.000000000000e+00
0.000000000000e+00
0.000000000000e+00
0.000000000000e+00
0.000000000000e+00
0.000000000000e+00
0.000000000000e+00
0.000000000000e+00
0.000000000000e+00
0.000000000000e+00
0.000000000000e+00
0.000000000000e+00
0.000000000000e+00
0.000000000000e+00
0.000000000000e+00
0.000000000000e+00
0.000000000000e+00
0.000000000000e+00
0.000000000000e+00
0.000000000000e+00
0.000000000000e+00
0.000000000000e+00
0.000000000000e+00
0.000000000000e+00
0.000000000000e+00
0.000000000000e+00
0.000000000000e+00
0.000000000000e+00
0.000000000000e+00
0.000000000000e+00
0.000000000000e+00
0.000000000000e+00
0.000000000000e+00
0.000000000000e+00
0.000000000000e+00
0.000000000000e+00
0.000000000000e+00
0.000000000000e+00
0.000000000000e+00
0.000000000000e+00
0.000000000000e+00
0.000000000000e+00
0.000000000000e+00
0.000000000000e+00
0.000000000000e+00
0.000000000000e+00
0.000000000000e+00
0.000000000000e+00
0.000000000000e+00
0.000000000000e+00
2.822521008236e-08
3.998782655127e-08
3.998782699300e-08
2.822521166724e-08
3.998782566761e-08
5.002104749135e-08
5.002104829401e-08
3.998782859491e-08
3.998782583310e-08
5.002104775747e-08
5.002104864577e-08
3.998782873603e-08
2.822521069854e-08
3.998782756974e-08
3.998782801768e-08
2.822521226142e-08
3.025582953493e-08
3.591708101855e-08
3.591708221991e-08
3.025583199562e-08
3.591708034794e-08
4.145220185509e-08
4.145220300659e-08
3.591708350288e-08
3.591708083728e-08
4.145220229645e-08
4.145220348985e-08
3.591708393325e-08
3.025583044710e-08
3.591708217091e-08
3.591708338423e-08
3.025583285900e-08
2.238863719695e-08
2.547411329345e-08
2.547411470060e-08
2.238863927087e-08
2.547411289608e-08
2.848350679964e-08
2.848350809814e-08
2.547411547066e-08
2.547411345167e-08
2.848350731838e-08
2.848350860812e-08
2.547411602830e-08
2.238863798254e-08
2.547411425558e-08
2.547411566315e-08
2.238864007666e-08
9.392352183587e-09
9.602688870328e-09
9.602690056922e-09
9.392353234158e-09
9.602688796551e-09
9.495285866706e-09
9.495286880121e-09
9.602690115136e-09
9.602689310131e-09
9.495286275211e-09
9.495287231377e-09
9.602690563745e-09
9.392352581567e-09
9.602689342506e-09
9.602690480679e-09
9.392353678780e-09
SCALARS von_mises float 1
LOOKUP_TABLE default
0.000000000000e+00
0.000000000000e+00
0.000000000000e+00
0.000000000000e+00
0.000000000000e+00
0.000000000000e+00
0.000000000000e+00
0.000000000000e+00
0.000000000000e+00
0.000000000000e+00
0.000000000000e+00
0.000000000000e+00
0.000000000000e+00
0.000000000000e+00
0.000000000000e+00
0.000000000000e+00
0.000000000000e+00
0.000000000000e+00
0.000000000000e+00
0.000000000000e+00
0.000000000000e+00
0.000000000000e+00
0.000000000000e+00
0.000000000000e+00
0.000000000000e+00
0.000000000000e+00
0.000000000000e+00
0.000000000000e+00
0.000000000000e+00
0.000000000000e+00
0.000000000000e+00
0.000000000000e+00
0.000000000000e+00
0.000000000000e+00
0.000000000000e+00
0.000000000000e+00
0.000000000000e+00
0.000000000000e+00
0.000000000000e+00
0.000000000000e+00
0.000000000000e+00
0.000000000000e+00
0.000000000000e+00
0.000000000000e+00
0.000000000000e+00
0.000000000000e+00
0.000000000000e+00
0.000000000000e+00
0.000000000000e+00
0.000000000000e+00
0.000000000000e+00
0.000000000000e+00
0.000000000000e+00
0.000000000000e+00
0.000000000000e+00
0.000000000000e+00
0.000000000000e+00
0.000000000000e+00
0.000000000000e+00
0.000000000000e+00
0.000000000000e+00
0.000000000000e+00
0.000000000000e+00
0.000000000000e+00
2.573712672061e-03
3.622746748724e-03
3.622746785641e-03
2.573712823698e-03
3.622746665748e-03
4.428178506187e-03
4.428178577377e-03
3.622746940038e-03
3.622746679475e-03
4.428178529471e-03
4.428178610770e-03
3.622746951495e-03
2.573712730306e-03
3.622746845413e-03
3.622746883099e-03
2.573712880216e-03
2.706817837276e-03
3.281174518533e-03
3.281174609336e-03
2.706818061513e-03
3.281174451588e-03
3.796406606342e-03
3.796406702518e-03
3.281174744927e-03
3.281174488322e-03
3.796406642614e-03
3.796406742387e-03
3.281174777112e-03
2.706817920028e-03
3.281174628416e-03
3.281174719467e-03
2.706818138318e-03
1.966985352632e-03
2.295096943649e-03
2.295097038244e-03
1.966985535875e-03
2.295096899775e-03
2.603404705007e-03
2.603404803640e-03
2.295097135227e-03
2.295096936202e-03
2.603404743895e-03
2.603404841813e-03
2.295097173860e-03
1.966985423052e-03
2.295097033663e-03
2.295097128682e-03
1.966985605717e-03
7.761778851203e-04
7.930941855353e-04
7.930942672144e-04
7.761779835392e-04
7.930941717605e-04
7.859681202864e-04
7.859681981773e-04
7.930943016366e-04
7.930942074563e-04
7.859681509586e-04
7.859682230381e-04
7.930943331850e-04
7.761779238867e-04
7.930942335444e-04
7.930943121773e-04
7.761780238118e-04
SCALARS sdf_gap float 1
LOOKUP_TABLE default
0.000000000000e+00
0.000000000000e+00
0.000000000000e+00
0.000000000000e+00
0.000000000000e+00
0.000000000000e+00
0.000000000000e+00
0.000000000000e+00
0.000000000000e+00
0.000000000000e+00
0.000000000000e+00
0.000000000000e+00
0.000000000000e+00
0.000000000000e+00
0.000000000000e+00
0.000000000000e+00
0.000000000000e+00
0.000000000000e+00
0.000000000000e+00
0.000000000000e+00
0.000000000000e+00
0.000000000000e+00
0.000000000000e+00
0.000000000000e+00
0.000000000000e+00
0.000000000000e+00
0.000000000000e+00
0.000000000000e+00
0.000000000000e+00
0.000000000000e+00
0.000000000000e+00
0.000000000000e+00
0.000000000000e+00
0.000000000000e+00
0.000000000000e+00
0.000000000000e+00
0.000000000000e+00
0.000000000000e+00
0.000000000000e+00
0.000000000000e+00
0.000000000000e+00
0.000000000000e+00
0.000000000000e+00
0.000000000000e+00
0.000000000000e+00
0.000000000000e+00
0.000000000000e+00
0.000000000000e+00
0.000000000000e+00
0.000000000000e+00
0.000000000000e+00
0.000000000000e+00
0.000000000000e+00
0.000000000000e+00
0.000000000000e+00
0.000000000000e+00
0.000000000000e+00
0.000000000000e+00
0.000000000000e+00
0.000000000000e+00
0.000000000000e+00
0.000000000000e+00
0.000000000000e+00
0.000000000000e+00
1.026504872558e-03
1.026507159889e-03
1.026507171396e-03
1.026504907078e-03
1.026507152569e-03
1.026509274604e-03
1.026509286110e-03
1.026507187090e-03
1.026507156757e-03
1.026509278791e-03
1.026509290298e-03
1.026507191277e-03
1.026504885120e-03
1.026507172451e-03
1.026507183957e-03
1.026504919640e-03
0.000000000000e+00
0.000000000000e+00
0.000000000000e+00
0.000000000000e+00
0.000000000000e+00
0.000000000000e+00
0.000000000000e+00
0.000000000000e+00
0.000000000000e+00
0.000000000000e+00
0.000000000000e+00
0.000000000000e+00
0.000000000000e+00
0.000000000000e+00
0.000000000000e+00
0.000000000000e+00
0.000000000000e+00
0.000000000000e+00
0.000000000000e+00
0.000000000000e+00
0.000000000000e+00
0.000000000000e+00
0.000000000000e+00
0.000000000000e+00
0.000000000000e+00
0.000000000000e+00
0.000000000000e+00
0.000000000000e+00
0.000000000000e+00
0.000000000000e+00
0.000000000000e+00
0.000000000000e+00
0.000000000000e+00
0.000000000000e+00
0.000000000000e+00
0.000000000000e+00
0.000000000000e+00
0.000000000000e+00
0.000000000000e+00
0.000000000000e+00
0.000000000000e+00
0.000000000000e+00
0.000000000000e+00
0.000000000000e+00
0.000000000000e+00
0.000000000000e+00
0.000000000000e+00
0.000000000000e+00
SCALARS contact_pressure float 1
LOOKUP_TABLE default
0.000000000000e+00
0.000000000000e+00
0.000000000000e+00
0.000000000000e+00
0.000000000000e+00
0.000000000000e+00
0.000000000000e+00
0.000000000000e+00
0.000000000000e+00
0.000000000000e+00
0.000000000000e+00
0.000000000000e+00
0.000000000000e+00
0.000000000000e+00
0.000000000000e+00
0.000000000000e+00
0.000000000000e+00
0.000000000000e+00
0.000000000000e+00
0.000000000000e+00
0.000000000000e+00
0.000000000000e+00
0.000000000000e+00
0.000000000000e+00
0.000000000000e+00
0.000000000000e+00
0.000000000000e+00
0.000000000000e+00
0.000000000000e+00
0.000000000000e+00
0.000000000000e+00
0.000000000000e+00
0.000000000000e+00
0.000000000000e+00
0.000000000000e+00
0.000000000000e+00
0.000000000000e+00
0.000000000000e+00
0.000000000000e+00
0.000000000000e+00
0.000000000000e+00
0.000000000000e+00
0.000000000000e+00
0.000000000000e+00
0.000000000000e+00
0.000000000000e+00
0.000000000000e+00
0.000000000000e+00
0.000000000000e+00
0.000000000000e+00
0.000000000000e+00
0.000000000000e+00
0.000000000000e+00
0.000000000000e+00
0.000000000000e+00
0.000000000000e+00
0.000000000000e+00
0.000000000000e+00
0.000000000000e+00
0.000000000000e+00
0.000000000000e+00
0.000000000000e+00
0.000000000000e+00
0.000000000000e+00
0.000000000000e+00
0.000000000000e+00
0.000000000000e+00
0.000000000000e+00
0.000000000000e+00
0.000000000000e+00
0.000000000000e+00
0.000000000000e+00
0.000000000000e+00
0.000000000000e+00
0.000000000000e+00
0.000000000000e+00
0.000000000000e+00
0.000000000000e+00
0.000000000000e+00
0.000000000000e+00
0.000000000000e+00
0.000000000000e+00
0.000000000000e+00
0.000000000000e+00
0.000000000000e+00
0.000000000000e+00
0.000000000000e+00
0.000000000000e+00
0.000000000000e+00
0.000000000000e+00
0.000000000000e+00
0.000000000000e+00
0.000000000000e+00
0.000000000000e+00
0.000000000000e+00
0.000000000000e+00
0.000000000000e+00
0.000000000000e+00
0.000000000000e+00
0.000000000000e+00
0.000000000000e+00
0.000000000000e+00
0.000000000000e+00
0.000000000000e+00
0.000000000000e+00
0.000000000000e+00
0.000000000000e+00
0.000000000000e+00
0.000000000000e+00
0.000000000000e+00
0.000000000000e+00
0.000000000000e+00
0.000000000000e+00
0.000000000000e+00
0.000000000000e+00
0.000000000000e+00
0.000000000000e+00
0.000000000000e+00
0.000000000000e+00
0.000000000000e+00
0.000000000000e+00
0.000000000000e+00
0.000000000000e+00
0.000000000000e+00
0.000000000000e+00
0.000000000000e+00
0.000000000000e+00
0.000000000000e+00
SCALARS active_contact float 1
LOOKUP_TABLE default
0.000000000000e+00
0.000000000000e+00
0.000000000000e+00
0.000000000000e+00
0.000000000000e+00
0.000000000000e+00
0.000000000000e+00
0.000000000000e+00
0.000000000000e+00
0.000000000000e+00
0.000000000000e+00
0.000000000000e+00
0.000000000000e+00
0.000000000000e+00
0.000000000000e+00
0.000000000000e+00
0.000000000000e+00
0.000000000000e+00
0.000000000000e+00
0.000000000000e+00
0.000000000000e+00
0.000000000000e+00
0.000000000000e+00
0.000000000000e+00
0.000000000000e+00
0.000000000000e+00
0.000000000000e+00
0.000000000000e+00
0.000000000000e+00
0.000000000000e+00
0.000000000000e+00
0.000000000000e+00
0.000000000000e+00
0.000000000000e+00
0.000000000000e+00
0.000000000000e+00
0.000000000000e+00
0.000000000000e+00
0.000000000000e+00
0.000000000000e+00
0.000000000000e+00
0.000000000000e+00
0.000000000000e+00
0.000000000000e+00
0.000000000000e+00
0.000000000000e+00
0.000000000000e+00
0.000000000000e+00
0.000000000000e+00
0.000000000000e+00
0.000000000000e+00
0.000000000000e+00
0.000000000000e+00
0.000000000000e+00
0.000000000000e+00
0.000000000000e+00
0.000000000000e+00
0.000000000000e+00
0.000000000000e+00
0.000000000000e+00
0.000000000000e+00
0.000000000000e+00
0.000000000000e+00
0.000000000000e+00
0.000000000000e+00
0.000000000000e+00
0.000000000000e+00
0.000000000000e+00
0.000000000000e+00
0.000000000000e+00
0.000000000000e+00
0.000000000000e+00
0.000000000000e+00
0.000000000000e+00
0.000000000000e+00
0.000000000000e+00
0.000000000000e+00
0.000000000000e+00
0.000000000000e+00
0.000000000000e+00
0.000000000000e+00
0.000000000000e+00
0.000000000000e+00
0.000000000000e+00
0.000000000000e+00
0.000000000000e+00
0.000000000000e+00
0.000000000000e+00
0.000000000000e+00
0.000000000000e+00
0.000000000000e+00
0.000000000000e+00
0.000000000000e+00
0.000000000000e+00
0.000000000000e+00
0.000000000000e+00
0.000000000000e+00
0.000000000000e+00
0.000000000000e+00
0.000000000000e+00
0.000000000000e+00
0.000000000000e+00
0.000000000000e+00
0.000000000000e+00
0.000000000000e+00
0.000000000000e+00
0.000000000000e+00
0.000000000000e+00
0.000000000000e+00
0.000000000000e+00
0.000000000000e+00
0.000000000000e+00
0.000000000000e+00
0.000000000000e+00
0.000000000000e+00
0.000000000000e+00
0.000000000000e+00
0.000000000000e+00
0.000000000000e+00
0.000000000000e+00
0.000000000000e+00
0.000000000000e+00
0.000000000000e+00
0.000000000000e+00
0.000000000000e+00
0.000000000000e+00
0.000000000000e+00
0.000000000000e+00
