# vtk DataFile Version 3.0
SFC long-time C3D8 dynamic frame 75 t=1.500000000000e+00
ASCII
DATASET UNSTRUCTURED_GRID
POINTS 250 float
-2.500000000000e-01 -2.500000000000e-01 0.000000000000e+00
-1.250000000000e-01 -2.500000000000e-01 0.000000000000e+00
0.000000000000e+00 -2.500000000000e-01 0.000000000000e+00
1.250000000000e-01 -2.500000000000e-01 0.000000000000e+00
2.500000000000e-01 -2.500000000000e-01 0.000000000000e+00
-2.500000000000e-01 -1.250000000000e-01 0.000000000000e+00
-1.250000000000e-01 -1.250000000000e-01 0.000000000000e+00
0.000000000000e+00 -1.250000000000e-01 0.000000000000e+00
1.250000000000e-01 -1.250000000000e-01 0.000000000000e+00
2.500000000000e-01 -1.250000000000e-01 0.000000000000e+00
-2.500000000000e-01 0.000000000000e+00 0.000000000000e+00
-1.250000000000e-01 0.000000000000e+00 0.000000000000e+00
0.000000000000e+00 0.000000000000e+00 0.000000000000e+00
1.250000000000e-01 0.000000000000e+00 0.000000000000e+00
2.500000000000e-01 0.000000000000e+00 0.000000000000e+00
-2.500000000000e-01 1.250000000000e-01 0.000000000000e+00
-1.250000000000e-01 1.250000000000e-01 0.000000000000e+00
0.000000000000e+00 1.250000000000e-01 0.000000000000e+00
1.250000000000e-01 1.250000000000e-01 0.000000000000e+00
2.500000000000e-01 1.250000000000e-01 0.000000000000e+00
-2.500000000000e-01 2.500000000000e-01 0.000000000000e+00
-1.250000000000e-01 2.500000000000e-01 0.000000000000e+00
0.000000000000e+00 2.500000000000e-01 0.000000000000e+00
1.250000000000e-01 2.500000000000e-01 0.000000000000e+00
2.500000000000e-01 2.500000000000e-01 0.000000000000e+00
-2.500000000000e-01 -2.500000000000e-01 6.000000000000e-02
-1.250000000000e-01 -2.500000000000e-01 6.000000000000e-02
0.000000000000e+00 -2.500000000000e-01 6.000000000000e-02
1.250000000000e-01 -2.500000000000e-01 6.000000000000e-02
2.500000000000e-01 -2.500000000000e-01 6.000000000000e-02
-2.500000000000e-01 -1.250000000000e-01 6.000000000000e-02
-1.250000000000e-01 -1.250000000000e-01 6.000000000000e-02
0.000000000000e+00 -1.250000000000e-01 6.000000000000e-02
1.250000000000e-01 -1.250000000000e-01 6.000000000000e-02
2.500000000000e-01 -1.250000000000e-01 6.000000000000e-02
-2.500000000000e-01 0.000000000000e+00 6.000000000000e-02
-1.250000000000e-01 0.000000000000e+00 6.000000000000e-02
0.000000000000e+00 0.000000000000e+00 6.000000000000e-02
1.250000000000e-01 0.000000000000e+00 6.000000000000e-02
2.500000000000e-01 0.000000000000e+00 6.000000000000e-02
-2.500000000000e-01 1.250000000000e-01 6.000000000000e-02
-1.250000000000e-01 1.250000000000e-01 6.000000000000e-02
0.000000000000e+00 1.250000000000e-01 6.000000000000e-02
1.250000000000e-01 1.250000000000e-01 6.000000000000e-02
2.500000000000e-01 1.250000000000e-01 6.000000000000e-02
-2.500000000000e-01 2.500000000000e-01 6.000000000000e-02
-1.250000000000e-01 2.500000000000e-01 6.000000000000e-02
0.000000000000e+00 2.500000000000e-01 6.000000000000e-02
1.250000000000e-01 2.500000000000e-01 6.000000000000e-02
2.500000000000e-01 2.500000000000e-01 6.000000000000e-02
-2.500000000000e-01 -2.500000000000e-01 1.200000000000e-01
-1.250000000000e-01 -2.500000000000e-01 1.200000000000e-01
0.000000000000e+00 -2.500000000000e-01 1.200000000000e-01
1.250000000000e-01 -2.500000000000e-01 1.200000000000e-01
2.500000000000e-01 -2.500000000000e-01 1.200000000000e-01
-2.500000000000e-01 -1.250000000000e-01 1.200000000000e-01
-1.250000000000e-01 -1.250000000000e-01 1.200000000000e-01
0.000000000000e+00 -1.250000000000e-01 1.200000000000e-01
1.250000000000e-01 -1.250000000000e-01 1.200000000000e-01
2.500000000000e-01 -1.250000000000e-01 1.200000000000e-01
-2.500000000000e-01 0.000000000000e+00 1.200000000000e-01
-1.250000000000e-01 0.000000000000e+00 1.200000000000e-01
0.000000000000e+00 0.000000000000e+00 1.200000000000e-01
1.250000000000e-01 0.000000000000e+00 1.200000000000e-01
2.500000000000e-01 0.000000000000e+00 1.200000000000e-01
-2.500000000000e-01 1.250000000000e-01 1.200000000000e-01
-1.250000000000e-01 1.250000000000e-01 1.200000000000e-01
0.000000000000e+00 1.250000000000e-01 1.200000000000e-01
1.250000000000e-01 1.250000000000e-01 1.200000000000e-01
2.500000000000e-01 1.250000000000e-01 1.200000000000e-01
-2.500000000000e-01 2.500000000000e-01 1.200000000000e-01
-1.250000000000e-01 2.500000000000e-01 1.200000000000e-01
0.000000000000e+00 2.500000000000e-01 1.200000000000e-01
1.250000000000e-01 2.500000000000e-01 1.200000000000e-01
2.500000000000e-01 2.500000000000e-01 1.200000000000e-01
-2.500000000000e-01 -2.500000000000e-01 1.800000000000e-01
-1.250000000000e-01 -2.500000000000e-01 1.800000000000e-01
0.000000000000e+00 -2.500000000000e-01 1.800000000000e-01
1.250000000000e-01 -2.500000000000e-01 1.800000000000e-01
2.500000000000e-01 -2.500000000000e-01 1.800000000000e-01
-2.500000000000e-01 -1.250000000000e-01 1.800000000000e-01
-1.250000000000e-01 -1.250000000000e-01 1.800000000000e-01
0.000000000000e+00 -1.250000000000e-01 1.800000000000e-01
1.250000000000e-01 -1.250000000000e-01 1.800000000000e-01
2.500000000000e-01 -1.250000000000e-01 1.800000000000e-01
-2.500000000000e-01 0.000000000000e+00 1.800000000000e-01
-1.250000000000e-01 0.000000000000e+00 1.800000000000e-01
0.000000000000e+00 0.000000000000e+00 1.800000000000e-01
1.250000000000e-01 0.000000000000e+00 1.800000000000e-01
2.500000000000e-01 0.000000000000e+00 1.800000000000e-01
-2.500000000000e-01 1.250000000000e-01 1.800000000000e-01
-1.250000000000e-01 1.250000000000e-01 1.800000000000e-01
0.000000000000e+00 1.250000000000e-01 1.800000000000e-01
1.250000000000e-01 1.250000000000e-01 1.800000000000e-01
2.500000000000e-01 1.250000000000e-01 1.800000000000e-01
-2.500000000000e-01 2.500000000000e-01 1.800000000000e-01
-1.250000000000e-01 2.500000000000e-01 1.800000000000e-01
0.000000000000e+00 2.500000000000e-01 1.800000000000e-01
1.250000000000e-01 2.500000000000e-01 1.800000000000e-01
2.500000000000e-01 2.500000000000e-01 1.800000000000e-01
-2.500000000000e-01 -2.500000000000e-01 2.400000000000e-01
-1.250000000000e-01 -2.500000000000e-01 2.400000000000e-01
0.000000000000e+00 -2.500000000000e-01 2.400000000000e-01
1.250000000000e-01 -2.500000000000e-01 2.400000000000e-01
2.500000000000e-01 -2.500000000000e-01 2.400000000000e-01
-2.500000000000e-01 -1.250000000000e-01 2.400000000000e-01
-1.250000000000e-01 -1.250000000000e-01 2.400000000000e-01
0.000000000000e+00 -1.250000000000e-01 2.400000000000e-01
1.250000000000e-01 -1.250000000000e-01 2.400000000000e-01
2.500000000000e-01 -1.250000000000e-01 2.400000000000e-01
-2.500000000000e-01 0.000000000000e+00 2.400000000000e-01
-1.250000000000e-01 0.000000000000e+00 2.400000000000e-01
0.000000000000e+00 0.000000000000e+00 2.400000000000e-01
1.250000000000e-01 0.000000000000e+00 2.400000000000e-01
2.500000000000e-01 0.000000000000e+00 2.400000000000e-01
-2.500000000000e-01 1.250000000000e-01 2.400000000000e-01
-1.250000000000e-01 1.250000000000e-01 2.400000000000e-01
0.000000000000e+00 1.250000000000e-01 2.400000000000e-01
1.250000000000e-01 1.250000000000e-01 2.400000000000e-01
2.500000000000e-01 1.250000000000e-01 2.400000000000e-01
-2.500000000000e-01 2.500000000000e-01 2.400000000000e-01
-1.250000000000e-01 2.500000000000e-01 2.400000000000e-01
0.000000000000e+00 2.500000000000e-01 2.400000000000e-01
1.250000000000e-01 2.500000000000e-01 2.400000000000e-01
2.500000000000e-01 2.500000000000e-01 2.400000000000e-01
-2.500000256886e-01 -2.500000257659e-01 2.485381468535e-01
-1.250000164246e-01 -2.500000251215e-01 2.485381405475e-01
1.201940166436e-10 -2.500000241681e-01 2.485381385387e-01
1.250000166649e-01 -2.500000251216e-01 2.485381407781e-01
2.500000259290e-01 -2.500000257660e-01 2.485381473147e-01
-2.500000250442e-01 -1.250000165018e-01 2.485381404741e-01
-1.250000165057e-01 -1.250000165830e-01 2.485381343282e-01
1.202317506820e-10 -1.250000164106e-01 2.485381323996e-01
1.250000167462e-01 -1.250000165831e-01 2.485381345588e-01
2.500000252847e-01 -1.250000165019e-01 2.485381409353e-01
-2.500000240908e-01 4.296338041952e-11 2.485381383919e-01
-1.250000163332e-01 4.292613237692e-11 2.485381323262e-01
1.202692052665e-10 4.288878276686e-11 2.485381304376e-01
1.250000165737e-01 4.285137510396e-11 2.485381325568e-01
2.500000243313e-01 4.281386879718e-11 2.485381388530e-01
-2.500000250442e-01 1.250000165877e-01 2.485381405578e-01
-1.250000165056e-01 1.250000166689e-01 2.485381344120e-01
1.203065053691e-10 1.250000164964e-01 2.485381324833e-01
1.250000167462e-01 1.250000166688e-01 2.485381346425e-01
2.500000252848e-01 1.250000165876e-01 2.485381410190e-01
-2.500000256885e-01 2.500000258518e-01 2.485381470210e-01
-1.250000164244e-01 2.500000252074e-01 2.485381407150e-01
1.203435296105e-10 2.500000242539e-01 2.485381387062e-01
1.250000166651e-01 2.500000252073e-01 2.485381409456e-01
2.500000259292e-01 2.500000258516e-01 2.485381474821e-01
-2.500000226151e-01 -2.500000226541e-01 3.135381401514e-01
-1.250000139095e-01 -2.500000222036e-01 3.135381328632e-01
6.024047772796e-11 -2.500000213838e-01 3.135381301787e-01
1.250000140300e-01 -2.500000222037e-01 3.135381330938e-01
2.500000227356e-01 -2.500000226543e-01 3.135381406126e-01
-2.500000221645e-01 -1.250000139486e-01 3.135381327898e-01
-1.250000139733e-01 -1.250000140125e-01 3.135381254681e-01
6.027822750211e-11 -1.250000138470e-01 3.135381227066e-01
1.250000140939e-01 -1.250000140125e-01 3.135381256987e-01
2.500000222850e-01 -1.250000139487e-01 3.135381332510e-01
-2.500000213446e-01 2.119299497188e-11 3.135381300319e-01
-1.250000138078e-01 2.115575159071e-11 3.135381226332e-01
6.031570335078e-11 2.111841054443e-11 3.135381197690e-01
1.250000139284e-01 2.108099677138e-11 3.135381228638e-01
2.500000214653e-01 2.104348371361e-11 3.135381304930e-01
-2.500000221644e-01 1.250000139910e-01 3.135381328735e-01
-1.250000139733e-01 1.250000140548e-01 3.135381255518e-01
6.035298447877e-11 1.250000138892e-01 3.135381227903e-01
1.250000140940e-01 1.250000140547e-01 3.135381257824e-01
2.500000222851e-01 1.250000139908e-01 3.135381333347e-01
-2.500000226149e-01 2.500000226965e-01 3.135381403189e-01
-1.250000139094e-01 2.500000222459e-01 3.135381330307e-01
6.038999021091e-11 2.500000214261e-01 3.135381303462e-01
1.250000140302e-01 2.500000222459e-01 3.135381332613e-01
2.500000227357e-01 2.500000226964e-01 3.135381407801e-01
-2.500000186759e-01 -2.500000186768e-01 3.785381307158e-01
-1.250000109581e-01 -2.500000183732e-01 3.785381225188e-01
2.874274927963e-13 -2.500000176957e-01 3.785381196611e-01
1.250000109586e-01 -2.500000183732e-01 3.785381227494e-01
2.500000186765e-01 -2.500000186769e-01 3.785381311770e-01
-2.500000183722e-01 -1.250000109589e-01 3.785381224454e-01
-1.250000109832e-01 -1.250000109841e-01 3.785381140896e-01
3.251119435729e-13 -1.250000108092e-01 3.785381110922e-01
1.250000109838e-01 -1.250000109842e-01 3.785381143202e-01
2.500000183729e-01 -1.250000109591e-01 3.785381229066e-01
-2.500000176947e-01 -5.772162246531e-13 3.785381195143e-01
-1.250000108082e-01 -6.144809053239e-13 3.785381110187e-01
3.625861528867e-13 -6.518238951432e-13 3.785381078610e-01
1.250000108089e-01 -6.892355613117e-13 3.785381112493e-01
2.500000176954e-01 -7.267263821994e-13 3.785381199755e-01
-2.500000183721e-01 1.250000109578e-01 3.785381225291e-01
-1.250000109831e-01 1.250000109829e-01 3.785381141734e-01
3.998674361872e-13 1.250000108079e-01 3.785381111759e-01
1.250000109839e-01 1.250000109828e-01 3.785381144040e-01
2.500000183729e-01 1.250000109576e-01 3.785381229903e-01
-2.500000186758e-01 2.500000186756e-01 3.785381308832e-01
-1.250000109579e-01 2.500000183719e-01 3.785381226863e-01
4.369381733216e-13 2.500000176944e-01 3.785381198286e-01
1.250000109588e-01 2.500000183719e-01 3.785381229169e-01
2.500000186766e-01 2.500000186755e-01 3.785381313444e-01
-2.500000128613e-01 -2.500000128240e-01 4.435381228743e-01
-1.250000077494e-01 -2.500000124849e-01 4.435381140891e-01
-5.966538905839e-11 -2.500000118845e-01 4.435381111567e-01
1.250000076301e-01 -2.500000124849e-01 4.435381143197e-01
2.500000127420e-01 -2.500000128242e-01 4.435381233355e-01
-2.500000125221e-01 -1.250000077121e-01 4.435381140156e-01
-1.250000077563e-01 -1.250000077191e-01 4.435381049597e-01
-5.962777427161e-11 -1.250000075192e-01 4.435381018375e-01
1.250000076371e-01 -1.250000077191e-01 4.435381051903e-01
2.500000124029e-01 -1.250000077122e-01 4.435381144768e-01
-2.500000119217e-01 -2.234734038820e-11 4.435381110098e-01
-1.250000075564e-01 -2.238463158802e-11 4.435381017641e-01
-5.959029961430e-11 -2.242197266374e-11 4.435380984576e-01
1.250000074372e-01 -2.245938693618e-11 4.435381019947e-01
2.500000118025e-01 -2.249685030531e-11 4.435381114710e-01
-2.500000125220e-01 1.250000076674e-01 4.435381140994e-01
-1.250000077562e-01 1.250000076743e-01 4.435381050434e-01
-5.955301968023e-11 1.250000074743e-01 4.435381019212e-01
1.250000076371e-01 1.250000076742e-01 4.435381052740e-01
2.500000124029e-01 1.250000076673e-01 4.435381145606e-01
-2.500000128612e-01 2.500000127793e-01 4.435381230418e-01
-1.250000077493e-01 2.500000124401e-01 4.435381142565e-01
-5.951587957163e-11 2.500000118396e-01 4.435381113242e-01
1.250000076302e-01 2.500000124400e-01 4.435381144871e-01
2.500000127422e-01 2.500000127792e-01 4.435381235030e-01
-2.500000071871e-01 -2.500000071116e-01 5.085381192437e-01
-1.250000044583e-01 -2.500000066935e-01 5.085381101989e-01
-1.196184654959e-10 -2.500000061027e-01 5.085381070803e-01
1.250000042191e-01 -2.500000066936e-01 5.085381104295e-01
2.500000069478e-01 -2.500000071117e-01 5.085381197049e-01
-2.500000067689e-01 -1.250000043828e-01 5.085381101255e-01
-1.250000043738e-01 -1.250000042984e-01 5.085381007165e-01
-1.195808297129e-10 -1.250000040161e-01 5.085380973528e-01
1.250000041347e-01 -1.250000042985e-01 5.085381009470e-01
2.500000065298e-01 -1.250000043830e-01 5.085381105867e-01
-2.500000061781e-01 -4.411755760000e-11 5.085381069334e-01
-1.250000040915e-01 -4.415484179653e-11 5.085380972793e-01
-1.195433300579e-10 -4.419217527325e-11 5.085380937145e-01
1.250000038524e-01 -4.422959636256e-11 5.085380975099e-01
2.500000059390e-01 -4.426706743739e-11 5.085381073946e-01
-2.500000067688e-01 1.250000042946e-01 5.085381102092e-01
-1.250000043737e-01 1.250000042101e-01 5.085381008002e-01
-1.195060746049e-10 1.250000039277e-01 5.085380974365e-01
1.250000041347e-01 1.250000042100e-01 5.085381010308e-01
2.500000065298e-01 1.250000042944e-01 5.085381106704e-01
-2.500000071869e-01 2.500000070233e-01 5.085381194112e-01
-1.250000044582e-01 2.500000066052e-01 5.085381103664e-01
-1.194689547403e-10 2.500000060144e-01 5.085381072478e-01
1.250000042192e-01 2.500000066051e-01 5.085381105970e-01
2.500000069480e-01 2.500000070232e-01 5.085381198724e-01
CELLS 128 1152
8 0 1 6 5 25 26 31 30
8 1 2 7 6 26 27 32 31
8 2 3 8 7 27 28 33 32
8 3 4 9 8 28 29 34 33
8 5 6 11 10 30 31 36 35
8 6 7 12 11 31 32 37 36
8 7 8 13 12 32 33 38 37
8 8 9 14 13 33 34 39 38
8 10 11 16 15 35 36 41 40
8 11 12 17 16 36 37 42 41
8 12 13 18 17 37 38 43 42
8 13 14 19 18 38 39 44 43
8 15 16 21 20 40 41 46 45
8 16 17 22 21 41 42 47 46
8 17 18 23 22 42 43 48 47
8 18 19 24 23 43 44 49 48
8 25 26 31 30 50 51 56 55
8 26 27 32 31 51 52 57 56
8 27 28 33 32 52 53 58 57
8 28 29 34 33 53 54 59 58
8 30 31 36 35 55 56 61 60
8 31 32 37 36 56 57 62 61
8 32 33 38 37 57 58 63 62
8 33 34 39 38 58 59 64 63
8 35 36 41 40 60 61 66 65
8 36 37 42 41 61 62 67 66
8 37 38 43 42 62 63 68 67
8 38 39 44 43 63 64 69 68
8 40 41 46 45 65 66 71 70
8 41 42 47 46 66 67 72 71
8 42 43 48 47 67 68 73 72
8 43 44 49 48 68 69 74 73
8 50 51 56 55 75 76 81 80
8 51 52 57 56 76 77 82 81
8 52 53 58 57 77 78 83 82
8 53 54 59 58 78 79 84 83
8 55 56 61 60 80 81 86 85
8 56 57 62 61 81 82 87 86
8 57 58 63 62 82 83 88 87
8 58 59 64 63 83 84 89 88
8 60 61 66 65 85 86 91 90
8 61 62 67 66 86 87 92 91
8 62 63 68 67 87 88 93 92
8 63 64 69 68 88 89 94 93
8 65 66 71 70 90 91 96 95
8 66 67 72 71 91 92 97 96
8 67 68 73 72 92 93 98 97
8 68 69 74 73 93 94 99 98
8 75 76 81 80 100 101 106 105
8 76 77 82 81 101 102 107 106
8 77 78 83 82 102 103 108 107
8 78 79 84 83 103 104 109 108
8 80 81 86 85 105 106 111 110
8 81 82 87 86 106 107 112 111
8 82 83 88 87 107 108 113 112
8 83 84 89 88 108 109 114 113
8 85 86 91 90 110 111 116 115
8 86 87 92 91 111 112 117 116
8 87 88 93 92 112 113 118 117
8 88 89 94 93 113 114 119 118
8 90 91 96 95 115 116 121 120
8 91 92 97 96 116 117 122 121
8 92 93 98 97 117 118 123 122
8 93 94 99 98 118 119 124 123
8 125 126 131 130 150 151 156 155
8 126 127 132 131 151 152 157 156
8 127 128 133 132 152 153 158 157
8 128 129 134 133 153 154 159 158
8 130 131 136 135 155 156 161 160
8 131 132 137 136 156 157 162 161
8 132 133 138 137 157 158 163 162
8 133 134 139 138 158 159 164 163
8 135 136 141 140 160 161 166 165
8 136 137 142 141 161 162 167 166
8 137 138 143 142 162 163 168 167
8 138 139 144 143 163 164 169 168
8 140 141 146 145 165 166 171 170
8 141 142 147 146 166 167 172 171
8 142 143 148 147 167 168 173 172
8 143 144 149 148 168 169 174 173
8 150 151 156 155 175 176 181 180
8 151 152 157 156 176 177 182 181
8 152 153 158 157 177 178 183 182
8 153 154 159 158 178 179 184 183
8 155 156 161 160 180 181 186 185
8 156 157 162 161 181 182 187 186
8 157 158 163 162 182 183 188 187
8 158 159 164 163 183 184 189 188
8 160 161 166 165 185 186 191 190
8 161 162 167 166 186 187 192 191
8 162 163 168 167 187 188 193 192
8 163 164 169 168 188 189 194 193
8 165 166 171 170 190 191 196 195
8 166 167 172 171 191 192 197 196
8 167 168 173 172 192 193 198 197
8 168 169 174 173 193 194 199 198
8 175 176 181 180 200 201 206 205
8 176 177 182 181 201 202 207 206
8 177 178 183 182 202 203 208 207
8 178 179 184 183 203 204 209 208
8 180 181 186 185 205 206 211 210
8 181 182 187 186 206 207 212 211
8 182 183 188 187 207 208 213 212
8 183 184 189 188 208 209 214 213
8 185 186 191 190 210 211 216 215
8 186 187 192 191 211 212 217 216
8 187 188 193 192 212 213 218 217
8 188 189 194 193 213 214 219 218
8 190 191 196 195 215 216 221 220
8 191 192 197 196 216 217 222 221
8 192 193 198 197 217 218 223 222
8 193 194 199 198 218 219 224 223
8 200 201 206 205 225 226 231 230
8 201 202 207 206 226 227 232 231
8 202 203 208 207 227 228 233 232
8 203 204 209 208 228 229 234 233
8 205 206 211 210 230 231 236 235
8 206 207 212 211 231 232 237 236
8 207 208 213 212 232 233 238 237
8 208 209 214 213 233 234 239 238
8 210 211 216 215 235 236 241 240
8 211 212 217 216 236 237 242 241
8 212 213 218 217 237 238 243 242
8 213 214 219 218 238 239 244 243
8 215 216 221 220 240 241 246 245
8 216 217 222 221 241 242 247 246
8 217 218 223 222 242 243 248 247
8 218 219 224 223 243 244 249 248
CELL_TYPES 128
12
12
12
12
12
12
12
12
12
12
12
12
12
12
12
12
12
12
12
12
12
12
12
12
12
12
12
12
12
12
12
12
12
12
12
12
12
12
12
12
12
12
12
12
12
12
12
12
12
12
12
12
12
12
12
12
12
12
12
12
12
12
12
12
12
12
12
12
12
12
12
12
12
12
12
12
12
12
12
12
12
12
12
12
12
12
12
12
12
12
12
12
12
12
12
12
12
12
12
12
12
12
12
12
12
12
12
12
12
12
12
12
12
12
12
12
12
12
12
12
12
12
12
12
12
12
12
12
POINT_DATA 250
VECTORS displacement float
0.000000000000e+00 0.000000000000e+00 0.000000000000e+00
0.000000000000e+00 0.000000000000e+00 0.000000000000e+00
0.000000000000e+00 0.000000000000e+00 0.000000000000e+00
0.000000000000e+00 0.000000000000e+00 0.000000000000e+00
0.000000000000e+00 0.000000000000e+00 0.000000000000e+00
0.000000000000e+00 0.000000000000e+00 0.000000000000e+00
0.000000000000e+00 0.000000000000e+00 0.000000000000e+00
0.000000000000e+00 0.000000000000e+00 0.000000000000e+00
0.000000000000e+00 0.000000000000e+00 0.000000000000e+00
0.000000000000e+00 0.000000000000e+00 0.000000000000e+00
0.000000000000e+00 0.000000000000e+00 0.000000000000e+00
0.000000000000e+00 0.000000000000e+00 0.000000000000e+00
0.000000000000e+00 0.000000000000e+00 0.000000000000e+00
0.000000000000e+00 0.000000000000e+00 0.000000000000e+00
0.000000000000e+00 0.000000000000e+00 0.000000000000e+00
0.000000000000e+00 0.000000000000e+00 0.000000000000e+00
0.000000000000e+00 0.000000000000e+00 0.000000000000e+00
0.000000000000e+00 0.000000000000e+00 0.000000000000e+00
0.000000000000e+00 0.000000000000e+00 0.000000000000e+00
0.000000000000e+00 0.000000000000e+00 0.000000000000e+00
0.000000000000e+00 0.000000000000e+00 0.000000000000e+00
0.000000000000e+00 0.000000000000e+00 0.000000000000e+00
0.000000000000e+00 0.000000000000e+00 0.000000000000e+00
0.000000000000e+00 0.000000000000e+00 0.000000000000e+00
0.000000000000e+00 0.000000000000e+00 0.000000000000e+00
0.000000000000e+00 0.000000000000e+00 0.000000000000e+00
0.000000000000e+00 0.000000000000e+00 0.000000000000e+00
0.000000000000e+00 0.000000000000e+00 0.000000000000e+00
0.000000000000e+00 0.000000000000e+00 0.000000000000e+00
0.000000000000e+00 0.000000000000e+00 0.000000000000e+00
0.000000000000e+00 0.000000000000e+00 0.000000000000e+00
0.000000000000e+00 0.000000000000e+00 0.000000000000e+00
0.000000000000e+00 0.000000000000e+00 0.000000000000e+00
0.000000000000e+00 0.000000000000e+00 0.000000000000e+00
0.000000000000e+00 0.000000000000e+00 0.000000000000e+00
0.000000000000e+00 0.000000000000e+00 0.000000000000e+00
0.000000000000e+00 0.000000000000e+00 0.000000000000e+00
0.000000000000e+00 0.000000000000e+00 0.000000000000e+00
0.000000000000e+00 0.000000000000e+00 0.000000000000e+00
0.000000000000e+00 0.000000000000e+00 0.000000000000e+00
0.000000000000e+00 0.000000000000e+00 0.000000000000e+00
0.000000000000e+00 0.000000000000e+00 0.000000000000e+00
0.000000000000e+00 0.000000000000e+00 0.000000000000e+00
0.000000000000e+00 0.000000000000e+00 0.000000000000e+00
0.000000000000e+00 0.000000000000e+00 0.000000000000e+00
0.000000000000e+00 0.000000000000e+00 0.000000000000e+00
0.000000000000e+00 0.000000000000e+00 0.000000000000e+00
0.000000000000e+00 0.000000000000e+00 0.000000000000e+00
0.000000000000e+00 0.000000000000e+00 0.000000000000e+00
0.000000000000e+00 0.000000000000e+00 0.000000000000e+00
0.000000000000e+00 0.000000000000e+00 0.000000000000e+00
0.000000000000e+00 0.000000000000e+00 0.000000000000e+00
0.000000000000e+00 0.000000000000e+00 0.000000000000e+00
0.000000000000e+00 0.000000000000e+00 0.000000000000e+00
0.000000000000e+00 0.000000000000e+00 0.000000000000e+00
0.000000000000e+00 0.000000000000e+00 0.000000000000e+00
0.000000000000e+00 0.000000000000e+00 0.000000000000e+00
0.000000000000e+00 0.000000000000e+00 0.000000000000e+00
0.000000000000e+00 0.000000000000e+00 0.000000000000e+00
0.000000000000e+00 0.000000000000e+00 0.000000000000e+00
0.000000000000e+00 0.000000000000e+00 0.000000000000e+00
0.000000000000e+00 0.000000000000e+00 0.000000000000e+00
0.000000000000e+00 0.000000000000e+00 0.000000000000e+00
0.000000000000e+00 0.000000000000e+00 0.000000000000e+00
0.000000000000e+00 0.000000000000e+00 0.000000000000e+00
0.000000000000e+00 0.000000000000e+00 0.000000000000e+00
0.000000000000e+00 0.000000000000e+00 0.000000000000e+00
0.000000000000e+00 0.000000000000e+00 0.000000000000e+00
0.000000000000e+00 0.000000000000e+00 0.000000000000e+00
0.000000000000e+00 0.000000000000e+00 0.000000000000e+00
0.000000000000e+00 0.000000000000e+00 0.000000000000e+00
0.000000000000e+00 0.000000000000e+00 0.000000000000e+00
0.000000000000e+00 0.000000000000e+00 0.000000000000e+00
0.000000000000e+00 0.000000000000e+00 0.000000000000e+00
0.000000000000e+00 0.000000000000e+00 0.000000000000e+00
0.000000000000e+00 0.000000000000e+00 0.000000000000e+00
0.000000000000e+00 0.000000000000e+00 0.000000000000e+00
0.000000000000e+00 0.000000000000e+00 0.000000000000e+00
0.000000000000e+00 0.000000000000e+00 0.000000000000e+00
0.000000000000e+00 0.000000000000e+00 0.000000000000e+00
0.000000000000e+00 0.000000000000e+00 0.000000000000e+00
0.000000000000e+00 0.000000000000e+00 0.000000000000e+00
0.000000000000e+00 0.000000000000e+00 0.000000000000e+00
0.000000000000e+00 0.000000000000e+00 0.000000000000e+00
0.000000000000e+00 0.000000000000e+00 0.000000000000e+00
0.000000000000e+00 0.000000000000e+00 0.000000000000e+00
0.000000000000e+00 0.000000000000e+00 0.000000000000e+00
0.000000000000e+00 0.000000000000e+00 0.000000000000e+00
0.000000000000e+00 0.000000000000e+00 0.000000000000e+00
0.000000000000e+00 0.000000000000e+00 0.000000000000e+00
0.000000000000e+00 0.000000000000e+00 0.000000000000e+00
0.000000000000e+00 0.000000000000e+00 0.000000000000e+00
0.000000000000e+00 0.000000000000e+00 0.000000000000e+00
0.000000000000e+00 0.000000000000e+00 0.000000000000e+00
0.000000000000e+00 0.000000000000e+00 0.000000000000e+00
0.000000000000e+00 0.000000000000e+00 0.000000000000e+00
0.000000000000e+00 0.000000000000e+00 0.000000000000e+00
0.000000000000e+00 0.000000000000e+00 0.000000000000e+00
0.000000000000e+00 0.000000000000e+00 0.000000000000e+00
0.000000000000e+00 0.000000000000e+00 0.000000000000e+00
0.000000000000e+00 0.000000000000e+00 0.000000000000e+00
0.000000000000e+00 0.000000000000e+00 0.000000000000e+00
0.000000000000e+00 0.000000000000e+00 0.000000000000e+00
0.000000000000e+00 0.000000000000e+00 0.000000000000e+00
0.000000000000e+00 0.000000000000e+00 0.000000000000e+00
0.000000000000e+00 0.000000000000e+00 0.000000000000e+00
0.000000000000e+00 0.000000000000e+00 0.000000000000e+00
0.000000000000e+00 0.000000000000e+00 0.000000000000e+00
0.000000000000e+00 0.000000000000e+00 0.000000000000e+00
0.000000000000e+00 0.000000000000e+00 0.000000000000e+00
0.000000000000e+00 0.000000000000e+00 0.000000000000e+00
0.000000000000e+00 0.000000000000e+00 0.000000000000e+00
0.000000000000e+00 0.000000000000e+00 0.000000000000e+00
0.000000000000e+00 0.000000000000e+00 0.000000000000e+00
0.000000000000e+00 0.000000000000e+00 0.000000000000e+00
0.000000000000e+00 0.000000000000e+00 0.000000000000e+00
0.000000000000e+00 0.000000000000e+00 0.000000000000e+00
0.000000000000e+00 0.000000000000e+00 0.000000000000e+00
0.000000000000e+00 0.000000000000e+00 0.000000000000e+00
0.000000000000e+00 0.000000000000e+00 0.000000000000e+00
0.000000000000e+00 0.000000000000e+00 0.000000000000e+00
0.000000000000e+00 0.000000000000e+00 0.000000000000e+00
0.000000000000e+00 0.000000000000e+00 0.000000000000e+00
0.000000000000e+00 0.000000000000e+00 0.000000000000e+00
0.000000000000e+00 0.000000000000e+00 0.000000000000e+00
-2.568862297244e-08 -2.576585299330e-08 -6.461853146511e-03
-1.642455538769e-08 -2.512154551876e-08 -6.461859452469e-03
1.201940166436e-10 -2.416813491228e-08 -6.461861461275e-03
1.666494349232e-08 -2.512162151222e-08 -6.461859221878e-03
2.592901130803e-08 -2.576600473315e-08 -6.461852685329e-03
-2.504424022281e-08 -1.650178562326e-08 -6.461859525898e-03
-1.650569584595e-08 -1.658300124130e-08 -6.461865671776e-03
1.202317506820e-10 -1.641058888207e-08 -6.461867600406e-03
1.674615940453e-08 -1.658307675216e-08 -6.461865441185e-03
2.528470396420e-08 -1.650193646062e-08 -6.461859064717e-03
-2.409075441361e-08 4.296338041952e-11 -6.461861608133e-03
-1.633320843488e-08 4.292613237692e-11 -6.461867673835e-03
1.202692052665e-10 4.288878276686e-11 -6.461869562420e-03
1.657374691735e-08 4.285137510396e-11 -6.461867443245e-03
2.433129305227e-08 4.281386879718e-11 -6.461861146953e-03
-2.504416590572e-08 1.658771241093e-08 -6.461859442165e-03
-1.650562135818e-08 1.666885353016e-08 -6.461865588044e-03
1.203065053691e-10 1.649636647569e-08 -6.461867516674e-03
1.674623443165e-08 1.666877952956e-08 -6.461865357453e-03
2.528477916447e-08 1.658756422420e-08 -6.461858980984e-03
-2.568847425863e-08 2.585177986479e-08 -6.461852979046e-03
-1.642440635018e-08 2.520739787764e-08 -6.461859285004e-03
1.203435296105e-10 2.425391256316e-08 -6.461861293811e-03
1.666509348050e-08 2.520732436390e-08 -6.461859054413e-03
2.592916161868e-08 2.585163258503e-08 -6.461852517865e-03
-2.261507567112e-08 -2.265412276781e-08 -6.461859848590e-03
-1.390954322653e-08 -2.220361365588e-08 -6.461867136770e-03
6.024047772796e-11 -2.138383631984e-08 -6.461869821278e-03
1.403002442918e-08 -2.220368944560e-08 -6.461866906179e-03
2.273555737011e-08 -2.265427423662e-08 -6.461859387409e-03
-2.216449130216e-08 -1.394859043256e-08 -6.461867210199e-03
-1.397333747960e-08 -1.401245982835e-08 -6.461874531893e-03
6.027822750211e-11 -1.384699869950e-08 -6.461877293403e-03
1.409389415010e-08 -1.401253519977e-08 -6.461874301303e-03
2.228504841366e-08 -1.394874106017e-08 -6.461866749018e-03
-2.134463883061e-08 2.119299497188e-11 -6.461869968136e-03
-1.380780133880e-08 2.115575159071e-11 -6.461877366832e-03
6.031570335078e-11 2.111841054443e-11 -6.461880231037e-03
1.392843295666e-08 2.108099677138e-11 -6.461877136242e-03
2.146527085337e-08 2.104348371361e-11 -6.461869506955e-03
-2.216441691859e-08 1.399097651167e-08 -6.461867126466e-03
-1.397326294544e-08 1.405477141052e-08 -6.461874448161e-03
6.035298447877e-11 1.388923559646e-08 -6.461877209671e-03
1.409396912896e-08 1.405469727039e-08 -6.461874217570e-03
2.228512354233e-08 1.399082811655e-08 -6.461866665286e-03
-2.261492686663e-08 2.269650902731e-08 -6.461859681125e-03
-1.390939411785e-08 2.224592540049e-08 -6.461866969306e-03
6.038999021091e-11 2.142607336413e-08 -6.461869653813e-03
1.403017434448e-08 2.224585167901e-08 -6.461866738715e-03
2.273570759192e-08 2.269636147239e-08 -6.461859219944e-03
-1.867590942216e-08 -1.867677379924e-08 -6.461869284226e-03
-1.095806841008e-08 -1.837315383453e-08 -6.461877481158e-03
2.874274927963e-13 -1.769572884073e-08 -6.461880338854e-03
1.095864349554e-08 -1.837322940086e-08 -6.461877250567e-03
1.867648502322e-08 -1.867692489357e-08 -6.461868823046e-03
-1.837221427442e-08 -1.095893285500e-08 -6.461877554587e-03
-1.098315827289e-08 -1.098409778774e-08 -6.461885910369e-03
3.251119435729e-13 -1.080918595376e-08 -6.461888907843e-03
1.098380871101e-08 -1.098417299884e-08 -6.461885679779e-03
1.837286520190e-08 -1.095908322482e-08 -6.461877093407e-03
-1.769471421931e-08 -5.772162246531e-13 -6.461880485712e-03
-1.080817147926e-08 -6.144809053239e-13 -6.461888981272e-03
3.625861528867e-13 -6.518238951432e-13 -6.461892139035e-03
1.080889685615e-08 -6.892355613117e-13 -6.461888750682e-03
1.769544005504e-08 -7.267263821994e-13 -6.461880024532e-03
-1.837213981447e-08 1.095777850767e-08 -6.461877470854e-03
-1.098308368326e-08 1.098286890469e-08 -6.461885826637e-03
3.998674361872e-13 1.080788238255e-08 -6.461888824111e-03
1.098388363179e-08 1.098279460330e-08 -6.461885596047e-03
1.837294025208e-08 1.095762985515e-08 -6.461877009675e-03
-1.867576048706e-08 1.867561964005e-08 -6.461869116762e-03
-1.095791921293e-08 1.837192512823e-08 -6.461877313694e-03
4.369381733216e-13 1.769442543283e-08 -6.461880171390e-03
1.095879331976e-08 1.837185118303e-08 -6.461877083104e-03
1.867663511030e-08 1.867547170971e-08 -6.461868655582e-03
-1.286134019386e-08 -1.282402199531e-08 -6.461877125670e-03
-7.749416690602e-09 -1.248487378322e-08 -6.461885910927e-03
-5.966538905839e-11 -1.188448270700e-08 -6.461888843293e-03
7.630086108304e-09 -1.248494903497e-08 -6.461885680337e-03
1.274200996883e-08 -1.282417253724e-08 -6.461876664491e-03
-1.252211691343e-08 -7.712098516007e-09 -6.461885984355e-03
-7.756317066927e-09 -7.719073891278e-09 -6.461895040288e-03
-5.962777427161e-11 -7.519192217032e-09 -6.461898162509e-03
7.637061712482e-09 -7.719148939329e-09 -6.461894809698e-03
1.240286190049e-08 -7.712248622623e-09 -6.461885523177e-03
-1.192165087766e-08 -2.234734038820e-11 -6.461888990151e-03
-7.556360487831e-09 -2.238463158802e-11 -6.461898235938e-03
-5.959029961430e-11 -2.242197266374e-11 -6.461901542366e-03
7.437180069538e-09 -2.245938693618e-11 -6.461898005349e-03
1.180247076714e-08 -2.249685030531e-11 -6.461888528972e-03
-1.252204234518e-08 7.667403905518e-09 -6.461885900623e-03
-7.756242420911e-09 7.674304700276e-09 -6.461894956556e-03
-5.955301968023e-11 7.474348334879e-09 -6.461898078778e-03
7.637136575423e-09 7.674230237029e-09 -6.461894725966e-03
1.240293683908e-08 7.667254991759e-09 -6.461885439445e-03
-1.286119106237e-08 1.277932751394e-08 -6.461876958206e-03
-7.749267401559e-09 1.244010471321e-08 -6.461885743463e-03
-5.951587957163e-11 1.183963893421e-08 -6.461888675830e-03
7.630235839347e-09 1.244003045221e-08 -6.461885512873e-03
1.274215985879e-08 1.277917903362e-08 -6.461876497027e-03
-7.187080317488e-09 -7.111579474048e-09 -6.461880756291e-03
-4.458302592435e-09 -6.693494475680e-09 -6.461889801060e-03
-1.196184654959e-10 -6.102743018388e-09 -6.461892919694e-03
4.219065986424e-09 -6.693569419212e-09 -6.461889570470e-03
6.947844127231e-09 -7.111729538474e-09 -6.461880295112e-03
-6.768920315819e-09 -4.382801672556e-09 -6.461889874488e-03
-4.373811590735e-09 -4.298385651428e-09 -6.461899283545e-03
-1.195808297129e-10 -4.016122362892e-09 -6.461902647227e-03
4.134650227566e-09 -4.298460545686e-09 -6.461899052956e-03
6.529759317687e-09 -4.382951548684e-09 -6.461889413310e-03
-6.178093995438e-09 -4.411755760000e-11 -6.461893066551e-03
-4.091473437290e-09 -4.415484179653e-11 -6.461902720656e-03
-1.195433300579e-10 -4.419217527325e-11 -6.461906285500e-03
3.852387042298e-09 -4.422959636256e-11 -6.461902490067e-03
5.939007917428e-09 -4.426706743739e-11 -6.461892605373e-03
-6.768845637676e-09 4.294566671695e-09 -6.461889790756e-03
-4.373736892984e-09 4.210076073692e-09 -6.461899199814e-03
-1.195060746049e-10 3.927738105534e-09 -6.461902563496e-03
4.134725036967e-09 4.210001457290e-09 -6.461898969224e-03
6.529834141372e-09 4.294417528782e-09 -6.461889329578e-03
-7.186931024035e-09 7.023344620386e-09 -6.461880588827e-03
-4.458153222664e-09 6.605185027887e-09 -6.461889633596e-03
-1.194689547403e-10 6.014358874019e-09 -6.461892752230e-03
4.219215637439e-09 6.605110457145e-09 -6.461889403007e-03
6.947993852633e-09 7.023195668200e-09 -6.461880127648e-03
SCALARS displacement_magnitude float 1
LOOKUP_TABLE default
0.000000000000e+00
0.000000000000e+00
0.000000000000e+00
0.000000000000e+00
0.000000000000e+00
0.000000000000e+00
0.000000000000e+00
0.000000000000e+00
0.000000000000e+00
0.000000000000e+00
0.000000000000e+00
0.000000000000e+00
0.000000000000e+00
0.000000000000e+00
0.000000000000e+00
0.000000000000e+00
0.000000000000e+00
0.000000000000e+00
0.000000000000e+00
0.000000000000e+00
0.000000000000e+00
0.000000000000e+00
0.000000000000e+00
0.000000000000e+00
0.000000000000e+00
0.000000000000e+00
0.000000000000e+00
0.000000000000e+00
0.000000000000e+00
0.000000000000e+00
0.000000000000e+00
0.000000000000e+00
0.000000000000e+00
0.000000000000e+00
0.000000000000e+00
0.000000000000e+00
0.000000000000e+00
0.000000000000e+00
0.000000000000e+00
0.000000000000e+00
0.000000000000e+00
0.000000000000e+00
0.000000000000e+00
0.000000000000e+00
0.000000000000e+00
0.000000000000e+00
0.000000000000e+00
0.000000000000e+00
0.000000000000e+00
0.000000000000e+00
0.000000000000e+00
0.000000000000e+00
0.000000000000e+00
0.000000000000e+00
0.000000000000e+00
0.000000000000e+00
0.000000000000e+00
0.000000000000e+00
0.000000000000e+00
0.000000000000e+00
0.000000000000e+00
0.000000000000e+00
0.000000000000e+00
0.000000000000e+00
0.000000000000e+00
0.000000000000e+00
0.000000000000e+00
0.000000000000e+00
0.000000000000e+00
0.000000000000e+00
0.000000000000e+00
0.000000000000e+00
0.000000000000e+00
0.000000000000e+00
0.000000000000e+00
0.000000000000e+00
0.000000000000e+00
0.000000000000e+00
0.000000000000e+00
0.000000000000e+00
0.000000000000e+00
0.000000000000e+00
0.000000000000e+00
0.000000000000e+00
0.000000000000e+00
0.000000000000e+00
0.000000000000e+00
0.000000000000e+00
0.000000000000e+00
0.000000000000e+00
0.000000000000e+00
0.000000000000e+00
0.000000000000e+00
0.000000000000e+00
0.000000000000e+00
0.000000000000e+00
0.000000000000e+00
0.000000000000e+00
0.000000000000e+00
0.000000000000e+00
0.000000000000e+00
0.000000000000e+00
0.000000000000e+00
0.000000000000e+00
0.000000000000e+00
0.000000000000e+00
0.000000000000e+00
0.000000000000e+00
0.000000000000e+00
0.000000000000e+00
0.000000000000e+00
0.000000000000e+00
0.000000000000e+00
0.000000000000e+00
0.000000000000e+00
0.000000000000e+00
0.000000000000e+00
0.000000000000e+00
0.000000000000e+00
0.000000000000e+00
0.000000000000e+00
0.000000000000e+00
0.000000000000e+00
0.000000000000e+00
0.000000000000e+00
6.461853146613e-03
6.461859452539e-03
6.461861461320e-03
6.461859221948e-03
6.461852685433e-03
6.461859525967e-03
6.461865671819e-03
6.461867600427e-03
6.461865441228e-03
6.461859064787e-03
6.461861608178e-03
6.461867673856e-03
6.461869562420e-03
6.461867443266e-03
6.461861146998e-03
6.461859442235e-03
6.461865588087e-03
6.461867516695e-03
6.461865357496e-03
6.461858981055e-03
6.461852979149e-03
6.461859285074e-03
6.461861293856e-03
6.461859054484e-03
6.461852517968e-03
6.461859848669e-03
6.461867136823e-03
6.461869821313e-03
6.461866906232e-03
6.461859387488e-03
6.461867210252e-03
6.461874531924e-03
6.461877293418e-03
6.461874301333e-03
6.461866749072e-03
6.461869968171e-03
6.461877366847e-03
6.461880231037e-03
6.461877136257e-03
6.461869506991e-03
6.461867126519e-03
6.461874448191e-03
6.461877209686e-03
6.461874217601e-03
6.461866665339e-03
6.461859681205e-03
6.461866969359e-03
6.461869653849e-03
6.461866738768e-03
6.461859220024e-03
6.461869284280e-03
6.461877481193e-03
6.461880338878e-03
6.461877250603e-03
6.461868823100e-03
6.461877554622e-03
6.461885910388e-03
6.461888907852e-03
6.461885679798e-03
6.461877093443e-03
6.461880485736e-03
6.461888981281e-03
6.461892139035e-03
6.461888750691e-03
6.461880024557e-03
6.461877470890e-03
6.461885826656e-03
6.461888824120e-03
6.461885596066e-03
6.461877009710e-03
6.461869116816e-03
6.461877313729e-03
6.461880171414e-03
6.461877083139e-03
6.461868655636e-03
6.461877125696e-03
6.461885910943e-03
6.461888843304e-03
6.461885680353e-03
6.461876664516e-03
6.461885984372e-03
6.461895040297e-03
6.461898162514e-03
6.461894809707e-03
6.461885523193e-03
6.461888990162e-03
6.461898235943e-03
6.461901542366e-03
6.461898005353e-03
6.461888528983e-03
6.461885900640e-03
6.461894956565e-03
6.461898078782e-03
6.461894725975e-03
6.461885439461e-03
6.461876958232e-03
6.461885743480e-03
6.461888675841e-03
6.461885512890e-03
6.461876497052e-03
6.461880756299e-03
6.461889801065e-03
6.461892919697e-03
6.461889570475e-03
6.461880295120e-03
6.461889874493e-03
6.461899283548e-03
6.461902647229e-03
6.461899052959e-03
6.461889413315e-03
6.461893066554e-03
6.461902720657e-03
6.461906285500e-03
6.461902490068e-03
6.461892605376e-03
6.461889790761e-03
6.461899199816e-03
6.461902563497e-03
6.461898969227e-03
6.461889329583e-03
6.461880588835e-03
6.461889633601e-03
6.461892752233e-03
6.461889403011e-03
6.461880127656e-03
CELL_DATA 128
SCALARS displacement_magnitude float 1
LOOKUP_TABLE default
0.000000000000e+00
0.000000000000e+00
0.000000000000e+00
0.000000000000e+00
0.000000000000e+00
0.000000000000e+00
0.000000000000e+00
0.000000000000e+00
0.000000000000e+00
0.000000000000e+00
0.000000000000e+00
0.000000000000e+00
0.000000000000e+00
0.000000000000e+00
0.000000000000e+00
0.000000000000e+00
0.000000000000e+00
0.000000000000e+00
0.000000000000e+00
0.000000000000e+00
0.000000000000e+00
0.000000000000e+00
0.000000000000e+00
0.000000000000e+00
0.000000000000e+00
0.000000000000e+00
0.000000000000e+00
0.000000000000e+00
0.000000000000e+00
0.000000000000e+00
0.000000000000e+00
0.000000000000e+00
0.000000000000e+00
0.000000000000e+00
0.000000000000e+00
0.000000000000e+00
0.000000000000e+00
0.000000000000e+00
0.000000000000e+00
0.000000000000e+00
0.000000000000e+00
0.000000000000e+00
0.000000000000e+00
0.000000000000e+00
0.000000000000e+00
0.000000000000e+00
0.000000000000e+00
0.000000000000e+00
0.000000000000e+00
0.000000000000e+00
0.000000000000e+00
0.000000000000e+00
0.000000000000e+00
0.000000000000e+00
0.000000000000e+00
0.000000000000e+00
0.000000000000e+00
0.000000000000e+00
0.000000000000e+00
0.000000000000e+00
0.000000000000e+00
0.000000000000e+00
0.000000000000e+00
0.000000000000e+00
6.461863315576e-03
6.461867871198e-03
6.461867755903e-03
6.461862969690e-03
6.461867944627e-03
6.461872491468e-03
6.461872376173e-03
6.461867598742e-03
6.461867902761e-03
6.461872449602e-03
6.461872334307e-03
6.461867556875e-03
6.461863189977e-03
6.461867745600e-03
6.461867630304e-03
6.461862844092e-03
6.461872369769e-03
6.461877677724e-03
6.461877562428e-03
6.461872023884e-03
6.461877751153e-03
6.461883170223e-03
6.461883054928e-03
6.461877405268e-03
6.461877709286e-03
6.461883128357e-03
6.461883013062e-03
6.461877363402e-03
6.461872244171e-03
6.461877552126e-03
6.461877436830e-03
6.461871898285e-03
6.461881786474e-03
6.461887574421e-03
6.461887459126e-03
6.461881440589e-03
6.461887647850e-03
6.461893614959e-03
6.461893499665e-03
6.461887301966e-03
6.461887605984e-03
6.461893573093e-03
6.461893457799e-03
6.461887260100e-03
6.461881660876e-03
6.461887448823e-03
6.461887333528e-03
6.461881314991e-03
6.461887972089e-03
6.461894076075e-03
6.461893960780e-03
6.461887626205e-03
6.461894149503e-03
6.461900489757e-03
6.461900374462e-03
6.461893803619e-03
6.461894107637e-03
6.461900447891e-03
6.461900332596e-03
6.461893761753e-03
6.461887846491e-03
6.461893950477e-03
6.461893835182e-03
6.461887500607e-03
SCALARS engineering_strain_norm float 1
LOOKUP_TABLE default
0.000000000000e+00
0.000000000000e+00
0.000000000000e+00
0.000000000000e+00
0.000000000000e+00
0.000000000000e+00
0.000000000000e+00
0.000000000000e+00
0.000000000000e+00
0.000000000000e+00
0.000000000000e+00
0.000000000000e+00
0.000000000000e+00
0.000000000000e+00
0.000000000000e+00
0.000000000000e+00
0.000000000000e+00
0.000000000000e+00
0.000000000000e+00
0.000000000000e+00
0.000000000000e+00
0.000000000000e+00
0.000000000000e+00
0.000000000000e+00
0.000000000000e+00
0.000000000000e+00
0.000000000000e+00
0.000000000000e+00
0.000000000000e+00
0.000000000000e+00
0.000000000000e+00
0.000000000000e+00
0.000000000000e+00
0.000000000000e+00
0.000000000000e+00
0.000000000000e+00
0.000000000000e+00
0.000000000000e+00
0.000000000000e+00
0.000000000000e+00
0.000000000000e+00
0.000000000000e+00
0.000000000000e+00
0.000000000000e+00
0.000000000000e+00
0.000000000000e+00
0.000000000000e+00
0.000000000000e+00
0.000000000000e+00
0.000000000000e+00
0.000000000000e+00
0.000000000000e+00
0.000000000000e+00
0.000000000000e+00
0.000000000000e+00
0.000000000000e+00
0.000000000000e+00
0.000000000000e+00
0.000000000000e+00
0.000000000000e+00
0.000000000000e+00
0.000000000000e+00
0.000000000000e+00
0.000000000000e+00
1.551723095687e-07
1.922412818520e-07
1.922412851800e-07
1.551723195294e-07
1.922412791806e-07
2.283706626287e-07
2.283706666452e-07
1.922412908845e-07
1.922412803879e-07
2.283706640799e-07
2.283706681186e-07
1.922412920756e-07
1.551723131977e-07
1.922412860770e-07
1.922412894207e-07
1.551723231675e-07
1.840410971148e-07
2.053619531856e-07
2.053619579478e-07
1.840411111551e-07
2.053619500816e-07
2.275227908654e-07
2.275227959449e-07
2.053619646499e-07
2.053619518013e-07
2.275227927302e-07
2.275227977625e-07
2.053619663432e-07
1.840411021922e-07
2.053619584660e-07
2.053619632544e-07
1.840411162253e-07
1.480949183755e-07
1.619543341884e-07
1.619543380553e-07
1.480949291358e-07
1.619543318562e-07
1.767619378490e-07
1.767619419696e-07
1.619543430618e-07
1.619543332983e-07
1.767619393571e-07
1.767619434707e-07
1.619543444879e-07
1.480949222915e-07
1.619543382519e-07
1.619543421305e-07
1.480949330305e-07
7.385268018513e-08
8.481666949791e-08
8.481667202893e-08
7.385268580607e-08
8.481666838416e-08
9.572023399731e-08
9.572023665703e-08
8.481667441239e-08
8.481666929294e-08
9.572023497705e-08
9.572023762085e-08
8.481667530872e-08
7.385268222200e-08
8.481667171975e-08
8.481667422571e-08
7.385268782066e-08
SCALARS von_mises float 1
LOOKUP_TABLE default
0.000000000000e+00
0.000000000000e+00
0.000000000000e+00
0.000000000000e+00
0.000000000000e+00
0.000000000000e+00
0.000000000000e+00
0.000000000000e+00
0.000000000000e+00
0.000000000000e+00
0.000000000000e+00
0.000000000000e+00
0.000000000000e+00
0.000000000000e+00
0.000000000000e+00
0.000000000000e+00
0.000000000000e+00
0.000000000000e+00
0.000000000000e+00
0.000000000000e+00
0.000000000000e+00
0.000000000000e+00
0.000000000000e+00
0.000000000000e+00
0.000000000000e+00
0.000000000000e+00
0.000000000000e+00
0.000000000000e+00
0.000000000000e+00
0.000000000000e+00
0.000000000000e+00
0.000000000000e+00
0.000000000000e+00
0.000000000000e+00
0.000000000000e+00
0.000000000000e+00
0.000000000000e+00
0.000000000000e+00
0.000000000000e+00
0.000000000000e+00
0.000000000000e+00
0.000000000000e+00
0.000000000000e+00
0.000000000000e+00
0.000000000000e+00
0.000000000000e+00
0.000000000000e+00
0.000000000000e+00
0.000000000000e+00
0.000000000000e+00
0.000000000000e+00
0.000000000000e+00
0.000000000000e+00
0.000000000000e+00
0.000000000000e+00
0.000000000000e+00
0.000000000000e+00
0.000000000000e+00
0.000000000000e+00
0.000000000000e+00
0.000000000000e+00
0.000000000000e+00
0.000000000000e+00
0.000000000000e+00
1.453436024103e-02
1.785528121256e-02
1.785528152703e-02
1.453436118094e-02
1.785528095998e-02
2.089514298068e-02
2.089514335838e-02
1.785528206601e-02
1.785528107413e-02
2.089514311712e-02
2.089514349713e-02
1.785528217825e-02
1.453436058384e-02
1.785528161186e-02
1.785528192759e-02
1.453436152441e-02
1.722793908855e-02
1.932495618785e-02
1.932495663453e-02
1.722794038268e-02
1.932495589970e-02
2.140752494183e-02
2.140752541977e-02
1.932495725676e-02
1.932495606106e-02
2.140752511735e-02
2.140752559077e-02
1.932495741557e-02
1.722793955676e-02
1.932495667967e-02
1.932495712867e-02
1.722794085030e-02
1.385410553969e-02
1.523623471671e-02
1.523623508246e-02
1.385410654453e-02
1.523623449932e-02
1.664985143538e-02
1.664985182141e-02
1.523623554895e-02
1.523623463564e-02
1.664985157667e-02
1.664985196206e-02
1.523623568374e-02
1.385410590531e-02
1.523623509733e-02
1.523623546414e-02
1.385410690820e-02
6.948546374435e-03
7.960067938065e-03
7.960068178086e-03
6.948546900386e-03
7.960067835878e-03
8.916670174722e-03
8.916670418015e-03
7.960068396900e-03
7.960067921936e-03
8.916670264446e-03
8.916670506225e-03
7.960068481835e-03
6.948546565057e-03
7.960068144773e-03
7.960068382397e-03
6.948547088810e-03
SCALARS sdf_gap float 1
LOOKUP_TABLE default
0.000000000000e+00
0.000000000000e+00
0.000000000000e+00
0.000000000000e+00
0.000000000000e+00
0.000000000000e+00
0.000000000000e+00
0.000000000000e+00
0.000000000000e+00
0.000000000000e+00
0.000000000000e+00
0.000000000000e+00
0.000000000000e+00
0.000000000000e+00
0.000000000000e+00
0.000000000000e+00
0.000000000000e+00
0.000000000000e+00
0.000000000000e+00
0.000000000000e+00
0.000000000000e+00
0.000000000000e+00
0.000000000000e+00
0.000000000000e+00
0.000000000000e+00
0.000000000000e+00
0.000000000000e+00
0.000000000000e+00
0.000000000000e+00
0.000000000000e+00
0.000000000000e+00
0.000000000000e+00
0.000000000000e+00
0.000000000000e+00
0.000000000000e+00
0.000000000000e+00
0.000000000000e+00
0.000000000000e+00
0.000000000000e+00
0.000000000000e+00
0.000000000000e+00
0.000000000000e+00
0.000000000000e+00
0.000000000000e+00
0.000000000000e+00
0.000000000000e+00
0.000000000000e+00
0.000000000000e+00
0.000000000000e+00
0.000000000000e+00
0.000000000000e+00
0.000000000000e+00
0.000000000000e+00
0.000000000000e+00
0.000000000000e+00
0.000000000000e+00
0.000000000000e+00
0.000000000000e+00
0.000000000000e+00
0.000000000000e+00
0.000000000000e+00
0.000000000000e+00
0.000000000000e+00
0.000000000000e+00
8.538140550836e-03
8.538136453518e-03
8.538136568814e-03
8.538140896723e-03
8.538136380089e-03
8.538132372891e-03
8.538132488186e-03
8.538136725975e-03
8.538136421955e-03
8.538132414757e-03
8.538132530052e-03
8.538136767841e-03
8.538140676435e-03
8.538136579117e-03
8.538136694412e-03
8.538141022321e-03
0.000000000000e+00
0.000000000000e+00
0.000000000000e+00
0.000000000000e+00
0.000000000000e+00
0.000000000000e+00
0.000000000000e+00
0.000000000000e+00
0.000000000000e+00
0.000000000000e+00
0.000000000000e+00
0.000000000000e+00
0.000000000000e+00
0.000000000000e+00
0.000000000000e+00
0.000000000000e+00
0.000000000000e+00
0.000000000000e+00
0.000000000000e+00
0.000000000000e+00
0.000000000000e+00
0.000000000000e+00
0.000000000000e+00
0.000000000000e+00
0.000000000000e+00
0.000000000000e+00
0.000000000000e+00
0.000000000000e+00
0.000000000000e+00
0.000000000000e+00
0.000000000000e+00
0.000000000000e+00
0.000000000000e+00
0.000000000000e+00
0.000000000000e+00
0.000000000000e+00
0.000000000000e+00
0.000000000000e+00
0.000000000000e+00
0.000000000000e+00
0.000000000000e+00
0.000000000000e+00
0.000000000000e+00
0.000000000000e+00
0.000000000000e+00
0.000000000000e+00
0.000000000000e+00
0.000000000000e+00
SCALARS contact_pressure float 1
LOOKUP_TABLE default
0.000000000000e+00
0.000000000000e+00
0.000000000000e+00
0.000000000000e+00
0.000000000000e+00
0.000000000000e+00
0.000000000000e+00
0.000000000000e+00
0.000000000000e+00
0.000000000000e+00
0.000000000000e+00
0.000000000000e+00
0.000000000000e+00
0.000000000000e+00
0.000000000000e+00
0.000000000000e+00
0.000000000000e+00
0.000000000000e+00
0.000000000000e+00
0.000000000000e+00
0.000000000000e+00
0.000000000000e+00
0.000000000000e+00
0.000000000000e+00
0.000000000000e+00
0.000000000000e+00
0.000000000000e+00
0.000000000000e+00
0.000000000000e+00
0.000000000000e+00
0.000000000000e+00
0.000000000000e+00
0.000000000000e+00
0.000000000000e+00
0.000000000000e+00
0.000000000000e+00
0.000000000000e+00
0.000000000000e+00
0.000000000000e+00
0.000000000000e+00
0.000000000000e+00
0.000000000000e+00
0.000000000000e+00
0.000000000000e+00
0.000000000000e+00
0.000000000000e+00
0.000000000000e+00
0.000000000000e+00
0.000000000000e+00
0.000000000000e+00
0.000000000000e+00
0.000000000000e+00
0.000000000000e+00
0.000000000000e+00
0.000000000000e+00
0.000000000000e+00
0.000000000000e+00
0.000000000000e+00
0.000000000000e+00
0.000000000000e+00
0.000000000000e+00
0.000000000000e+00
0.000000000000e+00
0.000000000000e+00
0.000000000000e+00
0.000000000000e+00
0.000000000000e+00
0.000000000000e+00
0.000000000000e+00
0.000000000000e+00
0.000000000000e+00
0.000000000000e+00
0.000000000000e+00
0.000000000000e+00
0.000000000000e+00
0.000000000000e+00
0.000000000000e+00
0.000000000000e+00
0.000000000000e+00
0.000000000000e+00
0.000000000000e+00
0.000000000000e+00
0.000000000000e+00
0.000000000000e+00
0.000000000000e+00
0.000000000000e+00
0.000000000000e+00
0.000000000000e+00
0.000000000000e+00
0.000000000000e+00
0.000000000000e+00
0.000000000000e+00
0.000000000000e+00
0.000000000000e+00
0.000000000000e+00
0.000000000000e+00
0.000000000000e+00
0.000000000000e+00
0.000000000000e+00
0.000000000000e+00
0.000000000000e+00
0.000000000000e+00
0.000000000000e+00
0.000000000000e+00
0.000000000000e+00
0.000000000000e+00
0.000000000000e+00
0.000000000000e+00
0.000000000000e+00
0.000000000000e+00
0.000000000000e+00
0.000000000000e+00
0.000000000000e+00
0.000000000000e+00
0.000000000000e+00
0.000000000000e+00
0.000000000000e+00
0.000000000000e+00
0.000000000000e+00
0.000000000000e+00
0.000000000000e+00
0.000000000000e+00
0.000000000000e+00
0.000000000000e+00
0.000000000000e+00
0.000000000000e+00
0.000000000000e+00
0.000000000000e+00
SCALARS active_contact float 1
LOOKUP_TABLE default
0.000000000000e+00
0.000000000000e+00
0.000000000000e+00
0.000000000000e+00
0.000000000000e+00
0.000000000000e+00
0.000000000000e+00
0.000000000000e+00
0.000000000000e+00
0.000000000000e+00
0.000000000000e+00
0.000000000000e+00
0.000000000000e+00
0.000000000000e+00
0.000000000000e+00
0.000000000000e+00
0.000000000000e+00
0.000000000000e+00
0.000000000000e+00
0.000000000000e+00
0.000000000000e+00
0.000000000000e+00
0.000000000000e+00
0.000000000000e+00
0.000000000000e+00
0.000000000000e+00
0.000000000000e+00
0.000000000000e+00
0.000000000000e+00
0.000000000000e+00
0.000000000000e+00
0.000000000000e+00
0.000000000000e+00
0.000000000000e+00
0.000000000000e+00
0.000000000000e+00
0.000000000000e+00
0.000000000000e+00
0.000000000000e+00
0.000000000000e+00
0.000000000000e+00
0.000000000000e+00
0.000000000000e+00
0.000000000000e+00
0.000000000000e+00
0.000000000000e+00
0.000000000000e+00
0.000000000000e+00
0.000000000000e+00
0.000000000000e+00
0.000000000000e+00
0.000000000000e+00
0.000000000000e+00
0.000000000000e+00
0.000000000000e+00
0.000000000000e+00
0.000000000000e+00
0.000000000000e+00
0.000000000000e+00
0.000000000000e+00
0.000000000000e+00
0.000000000000e+00
0.000000000000e+00
0.000000000000e+00
0.000000000000e+00
0.000000000000e+00
0.000000000000e+00
0.000000000000e+00
0.000000000000e+00
0.000000000000e+00
0.000000000000e+00
0.000000000000e+00
0.000000000000e+00
0.000000000000e+00
0.000000000000e+00
0.000000000000e+00
0.000000000000e+00
0.000000000000e+00
0.000000000000e+00
0.000000000000e+00
0.000000000000e+00
0.000000000000e+00
0.000000000000e+00
0.000000000000e+00
0.000000000000e+00
0.000000000000e+00
0.000000000000e+00
0.000000000000e+00
0.000000000000e+00
0.000000000000e+00
0.000000000000e+00
0.000000000000e+00
0.000000000000e+00
0.000000000000e+00
0.000000000000e+00
0.000000000000e+00
0.000000000000e+00
0.000000000000e+00
0.000000000000e+00
0.000000000000e+00
0.000000000000e+00
0.000000000000e+00
0.000000000000e+00
0.000000000000e+00
0.000000000000e+00
0.000000000000e+00
0.000000000000e+00
0.000000000000e+00
0.000000000000e+00
0.000000000000e+00
0.000000000000e+00
0.000000000000e+00
0.000000000000e+00
0.000000000000e+00
0.000000000000e+00
0.000000000000e+00
0.000000000000e+00
0.000000000000e+00
0.000000000000e+00
0.000000000000e+00
0.000000000000e+00
0.000000000000e+00
0.000000000000e+00
0.000000000000e+00
0.000000000000e+00
0.000000000000e+00
0.000000000000e+00
0.000000000000e+00
