# vtk DataFile Version 3.0
SFC long-time C3D8 dynamic frame 52 t=1.040000000000e+00
ASCII
DATASET UNSTRUCTURED_GRID
POINTS 250 float
-2.500000000000e-01 -2.500000000000e-01 0.000000000000e+00
-1.250000000000e-01 -2.500000000000e-01 0.000000000000e+00
0.000000000000e+00 -2.500000000000e-01 0.000000000000e+00
1.250000000000e-01 -2.500000000000e-01 0.000000000000e+00
2.500000000000e-01 -2.500000000000e-01 0.000000000000e+00
-2.500000000000e-01 -1.250000000000e-01 0.000000000000e+00
-1.250000000000e-01 -1.250000000000e-01 0.000000000000e+00
0.000000000000e+00 -1.250000000000e-01 0.000000000000e+00
1.250000000000e-01 -1.250000000000e-01 0.000000000000e+00
2.500000000000e-01 -1.250000000000e-01 0.000000000000e+00
-2.500000000000e-01 0.000000000000e+00 0.000000000000e+00
-1.250000000000e-01 0.000000000000e+00 0.000000000000e+00
0.000000000000e+00 0.000000000000e+00 0.000000000000e+00
1.250000000000e-01 0.000000000000e+00 0.000000000000e+00
2.500000000000e-01 0.000000000000e+00 0.000000000000e+00
-2.500000000000e-01 1.250000000000e-01 0.000000000000e+00
-1.250000000000e-01 1.250000000000e-01 0.000000000000e+00
0.000000000000e+00 1.250000000000e-01 0.000000000000e+00
1.250000000000e-01 1.250000000000e-01 0.000000000000e+00
2.500000000000e-01 1.250000000000e-01 0.000000000000e+00
-2.500000000000e-01 2.500000000000e-01 0.000000000000e+00
-1.250000000000e-01 2.500000000000e-01 0.000000000000e+00
0.000000000000e+00 2.500000000000e-01 0.000000000000e+00
1.250000000000e-01 2.500000000000e-01 0.000000000000e+00
2.500000000000e-01 2.500000000000e-01 0.000000000000e+00
-2.500000000000e-01 -2.500000000000e-01 6.000000000000e-02
-1.250000000000e-01 -2.500000000000e-01 6.000000000000e-02
0.000000000000e+00 -2.500000000000e-01 6.000000000000e-02
1.250000000000e-01 -2.500000000000e-01 6.000000000000e-02
2.500000000000e-01 -2.500000000000e-01 6.000000000000e-02
-2.500000000000e-01 -1.250000000000e-01 6.000000000000e-02
-1.250000000000e-01 -1.250000000000e-01 6.000000000000e-02
0.000000000000e+00 -1.250000000000e-01 6.000000000000e-02
1.250000000000e-01 -1.250000000000e-01 6.000000000000e-02
2.500000000000e-01 -1.250000000000e-01 6.000000000000e-02
-2.500000000000e-01 0.000000000000e+00 6.000000000000e-02
-1.250000000000e-01 0.000000000000e+00 6.000000000000e-02
0.000000000000e+00 0.000000000000e+00 6.000000000000e-02
1.250000000000e-01 0.000000000000e+00 6.000000000000e-02
2.500000000000e-01 0.000000000000e+00 6.000000000000e-02
-2.500000000000e-01 1.250000000000e-01 6.000000000000e-02
-1.250000000000e-01 1.250000000000e-01 6.000000000000e-02
0.000000000000e+00 1.250000000000e-01 6.000000000000e-02
1.250000000000e-01 1.250000000000e-01 6.000000000000e-02
2.500000000000e-01 1.250000000000e-01 6.000000000000e-02
-2.500000000000e-01 2.500000000000e-01 6.000000000000e-02
-1.250000000000e-01 2.500000000000e-01 6.000000000000e-02
0.000000000000e+00 2.500000000000e-01 6.000000000000e-02
1.250000000000e-01 2.500000000000e-01 6.000000000000e-02
2.500000000000e-01 2.500000000000e-01 6.000000000000e-02
-2.500000000000e-01 -2.500000000000e-01 1.200000000000e-01
-1.250000000000e-01 -2.500000000000e-01 1.200000000000e-01
0.000000000000e+00 -2.500000000000e-01 1.200000000000e-01
1.250000000000e-01 -2.500000000000e-01 1.200000000000e-01
2.500000000000e-01 -2.500000000000e-01 1.200000000000e-01
-2.500000000000e-01 -1.250000000000e-01 1.200000000000e-01
-1.250000000000e-01 -1.250000000000e-01 1.200000000000e-01
0.000000000000e+00 -1.250000000000e-01 1.200000000000e-01
1.250000000000e-01 -1.250000000000e-01 1.200000000000e-01
2.500000000000e-01 -1.250000000000e-01 1.200000000000e-01
-2.500000000000e-01 0.000000000000e+00 1.200000000000e-01
-1.250000000000e-01 0.000000000000e+00 1.200000000000e-01
0.000000000000e+00 0.000000000000e+00 1.200000000000e-01
1.250000000000e-01 0.000000000000e+00 1.200000000000e-01
2.500000000000e-01 0.000000000000e+00 1.200000000000e-01
-2.500000000000e-01 1.250000000000e-01 1.200000000000e-01
-1.250000000000e-01 1.250000000000e-01 1.200000000000e-01
0.000000000000e+00 1.250000000000e-01 1.200000000000e-01
1.250000000000e-01 1.250000000000e-01 1.200000000000e-01
2.500000000000e-01 1.250000000000e-01 1.200000000000e-01
-2.500000000000e-01 2.500000000000e-01 1.200000000000e-01
-1.250000000000e-01 2.500000000000e-01 1.200000000000e-01
0.000000000000e+00 2.500000000000e-01 1.200000000000e-01
1.250000000000e-01 2.500000000000e-01 1.200000000000e-01
2.500000000000e-01 2.500000000000e-01 1.200000000000e-01
-2.500000000000e-01 -2.500000000000e-01 1.800000000000e-01
-1.250000000000e-01 -2.500000000000e-01 1.800000000000e-01
0.000000000000e+00 -2.500000000000e-01 1.800000000000e-01
1.250000000000e-01 -2.500000000000e-01 1.800000000000e-01
2.500000000000e-01 -2.500000000000e-01 1.800000000000e-01
-2.500000000000e-01 -1.250000000000e-01 1.800000000000e-01
-1.250000000000e-01 -1.250000000000e-01 1.800000000000e-01
0.000000000000e+00 -1.250000000000e-01 1.800000000000e-01
1.250000000000e-01 -1.250000000000e-01 1.800000000000e-01
2.500000000000e-01 -1.250000000000e-01 1.800000000000e-01
-2.500000000000e-01 0.000000000000e+00 1.800000000000e-01
-1.250000000000e-01 0.000000000000e+00 1.800000000000e-01
0.000000000000e+00 0.000000000000e+00 1.800000000000e-01
1.250000000000e-01 0.000000000000e+00 1.800000000000e-01
2.500000000000e-01 0.000000000000e+00 1.800000000000e-01
-2.500000000000e-01 1.250000000000e-01 1.800000000000e-01
-1.250000000000e-01 1.250000000000e-01 1.800000000000e-01
0.000000000000e+00 1.250000000000e-01 1.800000000000e-01
1.250000000000e-01 1.250000000000e-01 1.800000000000e-01
2.500000000000e-01 1.250000000000e-01 1.800000000000e-01
-2.500000000000e-01 2.500000000000e-01 1.800000000000e-01
-1.250000000000e-01 2.500000000000e-01 1.800000000000e-01
0.000000000000e+00 2.500000000000e-01 1.800000000000e-01
1.250000000000e-01 2.500000000000e-01 1.800000000000e-01
2.500000000000e-01 2.500000000000e-01 1.800000000000e-01
-2.500000000000e-01 -2.500000000000e-01 2.400000000000e-01
-1.250000000000e-01 -2.500000000000e-01 2.400000000000e-01
0.000000000000e+00 -2.500000000000e-01 2.400000000000e-01
1.250000000000e-01 -2.500000000000e-01 2.400000000000e-01
2.500000000000e-01 -2.500000000000e-01 2.400000000000e-01
-2.500000000000e-01 -1.250000000000e-01 2.400000000000e-01
-1.250000000000e-01 -1.250000000000e-01 2.400000000000e-01
0.000000000000e+00 -1.250000000000e-01 2.400000000000e-01
1.250000000000e-01 -1.250000000000e-01 2.400000000000e-01
2.500000000000e-01 -1.250000000000e-01 2.400000000000e-01
-2.500000000000e-01 0.000000000000e+00 2.400000000000e-01
-1.250000000000e-01 0.000000000000e+00 2.400000000000e-01
0.000000000000e+00 0.000000000000e+00 2.400000000000e-01
1.250000000000e-01 0.000000000000e+00 2.400000000000e-01
2.500000000000e-01 0.000000000000e+00 2.400000000000e-01
-2.500000000000e-01 1.250000000000e-01 2.400000000000e-01
-1.250000000000e-01 1.250000000000e-01 2.400000000000e-01
0.000000000000e+00 1.250000000000e-01 2.400000000000e-01
1.250000000000e-01 1.250000000000e-01 2.400000000000e-01
2.500000000000e-01 1.250000000000e-01 2.400000000000e-01
-2.500000000000e-01 2.500000000000e-01 2.400000000000e-01
-1.250000000000e-01 2.500000000000e-01 2.400000000000e-01
0.000000000000e+00 2.500000000000e-01 2.400000000000e-01
1.250000000000e-01 2.500000000000e-01 2.400000000000e-01
2.500000000000e-01 2.500000000000e-01 2.400000000000e-01
-2.500016307076e-01 -2.500016307076e-01 2.399493140830e-01
-1.250007828756e-01 -2.500016584619e-01 2.399488577719e-01
1.326611343191e-14 -2.500016904185e-01 2.399487253478e-01
1.250007828757e-01 -2.500016584619e-01 2.399488577719e-01
2.500016307076e-01 -2.500016307076e-01 2.399493140830e-01
-2.500016584619e-01 -1.250007828757e-01 2.399488577719e-01
-1.250007873678e-01 -1.250007873678e-01 2.399483816344e-01
1.266005994530e-14 -1.250008029982e-01 2.399482381988e-01
1.250007873678e-01 -1.250007873678e-01 2.399483816344e-01
2.500016584619e-01 -1.250007828757e-01 2.399488577719e-01
-2.500016904185e-01 -1.658517405966e-14 2.399487253478e-01
-1.250008029982e-01 -1.599793846811e-14 2.399482381988e-01
1.205859405713e-14 -1.541699219318e-14 2.399480915635e-01
1.250008029982e-01 -1.482691323400e-14 2.399482381988e-01
2.500016904185e-01 -1.423339994073e-14 2.399487253478e-01
-2.500016584619e-01 1.250007828756e-01 2.399488577719e-01
-1.250007873678e-01 1.250007873678e-01 2.399483816344e-01
1.146426660996e-14 1.250008029982e-01 2.399482381988e-01
1.250007873678e-01 1.250007873678e-01 2.399483816344e-01
2.500016584619e-01 1.250007828756e-01 2.399488577719e-01
-2.500016307076e-01 2.500016307076e-01 2.399493140830e-01
-1.250007828756e-01 2.500016584619e-01 2.399488577719e-01
1.088068427273e-14 2.500016904185e-01 2.399487253478e-01
1.250007828757e-01 2.500016584619e-01 2.399488577719e-01
2.500016307076e-01 2.500016307076e-01 2.399493140830e-01
-2.500013112553e-01 -2.500013112554e-01 3.049478731489e-01
-1.250006137799e-01 -2.500013323804e-01 3.049474075903e-01
1.317554419133e-14 -2.500013583863e-01 3.049472862391e-01
1.250006137799e-01 -2.500013323804e-01 3.049474075903e-01
2.500013112554e-01 -2.500013112554e-01 3.049478731489e-01
-2.500013323804e-01 -1.250006137799e-01 3.049474075903e-01
-1.250006140294e-01 -1.250006140295e-01 3.049469267735e-01
1.257070699399e-14 -1.250006254659e-01 3.049467976508e-01
1.250006140295e-01 -1.250006140295e-01 3.049469267735e-01
2.500013323804e-01 -1.250006137799e-01 3.049474075903e-01
-2.500013583862e-01 -1.661853717038e-14 3.049472862391e-01
-1.250006254658e-01 -1.603298321237e-14 3.049467976508e-01
1.197026391978e-14 -1.544568186162e-14 3.049466668188e-01
1.250006254659e-01 -1.485517184939e-14 3.049467976508e-01
2.500013583863e-01 -1.425711795724e-14 3.049472862391e-01
-2.500013323804e-01 1.250006137799e-01 3.049474075903e-01
-1.250006140294e-01 1.250006140294e-01 3.049469267735e-01
1.138047309368e-14 1.250006254658e-01 3.049467976508e-01
1.250006140295e-01 1.250006140294e-01 3.049469267735e-01
2.500013323804e-01 1.250006137799e-01 3.049474075903e-01
-2.500013112553e-01 2.500013112553e-01 3.049478731489e-01
-1.250006137799e-01 2.500013323804e-01 3.049474075903e-01
1.079943834190e-14 2.500013583862e-01 3.049472862391e-01
1.250006137799e-01 2.500013323804e-01 3.049474075903e-01
2.500013112554e-01 2.500013112553e-01 3.049478731489e-01
-2.500009090016e-01 -2.500009090016e-01 3.699468000216e-01
-1.250004284787e-01 -2.500009180311e-01 3.699463321520e-01
1.307947798942e-14 -2.500009345111e-01 3.699462229416e-01
1.250004284787e-01 -2.500009180311e-01 3.699463321520e-01
2.500009090016e-01 -2.500009090016e-01 3.699468000216e-01
-2.500009180311e-01 -1.250004284787e-01 3.699463321520e-01
-1.250004284540e-01 -1.250004284540e-01 3.699458522397e-01
1.247664565624e-14 -1.250004354179e-01 3.699457378260e-01
1.250004284540e-01 -1.250004284540e-01 3.699458522397e-01
2.500009180311e-01 -1.250004284787e-01 3.699463321520e-01
-2.500009345111e-01 -1.665655827390e-14 3.699462229416e-01
-1.250004354179e-01 -1.606799419405e-14 3.699457378260e-01
1.187947767490e-14 -1.547854830324e-14 3.699456236257e-01
1.250004354179e-01 -1.488389669607e-14 3.699457378260e-01
2.500009345111e-01 -1.428798712249e-14 3.699462229416e-01
-2.500009180311e-01 1.250004284787e-01 3.699463321520e-01
-1.250004284540e-01 1.250004284540e-01 3.699458522397e-01
1.129096544101e-14 1.250004354179e-01 3.699457378260e-01
1.250004284540e-01 1.250004284540e-01 3.699458522397e-01
2.500009180311e-01 1.250004284787e-01 3.699463321520e-01
-2.500009090016e-01 2.500009090016e-01 3.699468000216e-01
-1.250004284787e-01 2.500009180311e-01 3.699463321520e-01
1.070919544045e-14 2.500009345111e-01 3.699462229416e-01
1.250004284787e-01 2.500009180311e-01 3.699463321520e-01
2.500009090016e-01 2.500009090016e-01 3.699468000216e-01
-2.500005068353e-01 -2.500005068353e-01 4.349461205983e-01
-1.250002494442e-01 -2.500005050718e-01 4.349456692516e-01
1.298273967507e-14 -2.500005123000e-01 4.349455588706e-01
1.250002494442e-01 -2.500005050718e-01 4.349456692516e-01
2.500005068353e-01 -2.500005068353e-01 4.349461205983e-01
-2.500005050717e-01 -1.250002494442e-01 4.349456692516e-01
-1.250002494163e-01 -1.250002494163e-01 4.349452084785e-01
1.238207154953e-14 -1.250002525375e-01 4.349450937397e-01
1.250002494163e-01 -1.250002494163e-01 4.349452084785e-01
2.500005050718e-01 -1.250002494442e-01 4.349456692516e-01
-2.500005123000e-01 -1.669262690437e-14 4.349455588706e-01
-1.250002525375e-01 -1.610413124946e-14 4.349450937397e-01
1.178838121204e-14 -1.550809931455e-14 4.349449795426e-01
1.250002525375e-01 -1.491466064188e-14 4.349450937397e-01
2.500005123000e-01 -1.431765360802e-14 4.349455588706e-01
-2.500005050717e-01 1.250002494442e-01 4.349456692516e-01
-1.250002494163e-01 1.250002494163e-01 4.349452084785e-01
1.120220500066e-14 1.250002525375e-01 4.349450937397e-01
1.250002494163e-01 1.250002494163e-01 4.349452084785e-01
2.500005050718e-01 1.250002494442e-01 4.349456692516e-01
-2.500005068353e-01 2.500005068353e-01 4.349461205983e-01
-1.250002494442e-01 2.500005050717e-01 4.349456692516e-01
1.062060531502e-14 2.500005123000e-01 4.349455588706e-01
1.250002494442e-01 2.500005050717e-01 4.349456692516e-01
2.500005068353e-01 2.500005068353e-01 4.349461205983e-01
-2.500001935727e-01 -2.500001935727e-01 4.999458592695e-01
-1.250000928565e-01 -2.500001887170e-01 4.999454212413e-01
1.288768385841e-14 -2.500001917171e-01 4.999453069894e-01
1.250000928565e-01 -2.500001887170e-01 4.999454212413e-01
2.500001935727e-01 -2.500001935727e-01 4.999458592695e-01
-2.500001887170e-01 -1.250000928566e-01 4.999454212413e-01
-1.250000910566e-01 -1.250000910566e-01 4.999449747932e-01
1.228943668000e-14 -1.250000921249e-01 4.999448561883e-01
1.250000910566e-01 -1.250000910566e-01 4.999449747932e-01
2.500001887170e-01 -1.250000928566e-01 4.999454212413e-01
-2.500001917170e-01 -1.672908991176e-14 4.999453069894e-01
-1.250000921249e-01 -1.613911847937e-14 4.999448561883e-01
1.169704550797e-14 -1.554126900602e-14 4.999447379683e-01
1.250000921249e-01 -1.493859395753e-14 4.999448561883e-01
2.500001917171e-01 -1.434122332083e-14 4.999453069894e-01
-2.500001887170e-01 1.250000928565e-01 4.999454212413e-01
-1.250000910566e-01 1.250000910566e-01 4.999449747932e-01
1.111812372169e-14 1.250000921249e-01 4.999448561883e-01
1.250000910566e-01 1.250000910566e-01 4.999449747932e-01
2.500001887170e-01 1.250000928565e-01 4.999454212413e-01
-2.500001935727e-01 2.500001935727e-01 4.999458592695e-01
-1.250000928565e-01 2.500001887170e-01 4.999454212413e-01
1.053850232940e-14 2.500001917170e-01 4.999453069894e-01
1.250000928565e-01 2.500001887170e-01 4.999454212413e-01
2.500001935727e-01 2.500001935727e-01 4.999458592695e-01
CELLS 128 1152
8 0 1 6 5 25 26 31 30
8 1 2 7 6 26 27 32 31
8 2 3 8 7 27 28 33 32
8 3 4 9 8 28 29 34 33
8 5 6 11 10 30 31 36 35
8 6 7 12 11 31 32 37 36
8 7 8 13 12 32 33 38 37
8 8 9 14 13 33 34 39 38
8 10 11 16 15 35 36 41 40
8 11 12 17 16 36 37 42 41
8 12 13 18 17 37 38 43 42
8 13 14 19 18 38 39 44 43
8 15 16 21 20 40 41 46 45
8 16 17 22 21 41 42 47 46
8 17 18 23 22 42 43 48 47
8 18 19 24 23 43 44 49 48
8 25 26 31 30 50 51 56 55
8 26 27 32 31 51 52 57 56
8 27 28 33 32 52 53 58 57
8 28 29 34 33 53 54 59 58
8 30 31 36 35 55 56 61 60
8 31 32 37 36 56 57 62 61
8 32 33 38 37 57 58 63 62
8 33 34 39 38 58 59 64 63
8 35 36 41 40 60 61 66 65
8 36 37 42 41 61 62 67 66
8 37 38 43 42 62 63 68 67
8 38 39 44 43 63 64 69 68
8 40 41 46 45 65 66 71 70
8 41 42 47 46 66 67 72 71
8 42 43 48 47 67 68 73 72
8 43 44 49 48 68 69 74 73
8 50 51 56 55 75 76 81 80
8 51 52 57 56 76 77 82 81
8 52 53 58 57 77 78 83 82
8 53 54 59 58 78 79 84 83
8 55 56 61 60 80 81 86 85
8 56 57 62 61 81 82 87 86
8 57 58 63 62 82 83 88 87
8 58 59 64 63 83 84 89 88
8 60 61 66 65 85 86 91 90
8 61 62 67 66 86 87 92 91
8 62 63 68 67 87 88 93 92
8 63 64 69 68 88 89 94 93
8 65 66 71 70 90 91 96 95
8 66 67 72 71 91 92 97 96
8 67 68 73 72 92 93 98 97
8 68 69 74 73 93 94 99 98
8 75 76 81 80 100 101 106 105
8 76 77 82 81 101 102 107 106
8 77 78 83 82 102 103 108 107
8 78 79 84 83 103 104 109 108
8 80 81 86 85 105 106 111 110
8 81 82 87 86 106 107 112 111
8 82 83 88 87 107 108 113 112
8 83 84 89 88 108 109 114 113
8 85 86 91 90 110 111 116 115
8 86 87 92 91 111 112 117 116
8 87 88 93 92 112 113 118 117
8 88 89 94 93 113 114 119 118
8 90 91 96 95 115 116 121 120
8 91 92 97 96 116 117 122 121
8 92 93 98 97 117 118 123 122
8 93 94 99 98 118 119 124 123
8 125 126 131 130 150 151 156 155
8 126 127 132 131 151 152 157 156
8 127 128 133 132 152 153 158 157
8 128 129 134 133 153 154 159 158
8 130 131 136 135 155 156 161 160
8 131 132 137 136 156 157 162 161
8 132 133 138 137 157 158 163 162
8 133 134 139 138 158 159 164 163
8 135 136 141 140 160 161 166 165
8 136 137 142 141 161 162 167 166
8 137 138 143 142 162 163 168 167
8 138 139 144 143 163 164 169 168
8 140 141 146 145 165 166 171 170
8 141 142 147 146 166 167 172 171
8 142 143 148 147 167 168 173 172
8 143 144 149 148 168 169 174 173
8 150 151 156 155 175 176 181 180
8 151 152 157 156 176 177 182 181
8 152 153 158 157 177 178 183 182
8 153 154 159 158 178 179 184 183
8 155 156 161 160 180 181 186 185
8 156 157 162 161 181 182 187 186
8 157 158 163 162 182 183 188 187
8 158 159 164 163 183 184 189 188
8 160 161 166 165 185 186 191 190
8 161 162 167 166 186 187 192 191
8 162 163 168 167 187 188 193 192
8 163 164 169 168 188 189 194 193
8 165 166 171 170 190 191 196 195
8 166 167 172 171 191 192 197 196
8 167 168 173 172 192 193 198 197
8 168 169 174 173 193 194 199 198
8 175 176 181 180 200 201 206 205
8 176 177 182 181 201 202 207 206
8 177 178 183 182 202 203 208 207
8 178 179 184 183 203 204 209 208
8 180 181 186 185 205 206 211 210
8 181 182 187 186 206 207 212 211
8 182 183 188 187 207 208 213 212
8 183 184 189 188 208 209 214 213
8 185 186 191 190 210 211 216 215
8 186 187 192 191 211 212 217 216
8 187 188 193 192 212 213 218 217
8 188 189 194 193 213 214 219 218
8 190 191 196 195 215 216 221 220
8 191 192 197 196 216 217 222 221
8 192 193 198 197 217 218 223 222
8 193 194 199 198 218 219 224 223
8 200 201 206 205 225 226 231 230
8 201 202 207 206 226 227 232 231
8 202 203 208 207 227 228 233 232
8 203 204 209 208 228 229 234 233
8 205 206 211 210 230 231 236 235
8 206 207 212 211 231 232 237 236
8 207 208 213 212 232 233 238 237
8 208 209 214 213 233 234 239 238
8 210 211 216 215 235 236 241 240
8 211 212 217 216 236 237 242 241
8 212 213 218 217 237 238 243 242
8 213 214 219 218 238 239 244 243
8 215 216 221 220 240 241 246 245
8 216 217 222 221 241 242 247 246
8 217 218 223 222 242 243 248 247
8 218 219 224 223 243 244 249 248
CELL_TYPES 128
12
12
12
12
12
12
12
12
12
12
12
12
12
12
12
12
12
12
12
12
12
12
12
12
12
12
12
12
12
12
12
12
12
12
12
12
12
12
12
12
12
12
12
12
12
12
12
12
12
12
12
12
12
12
12
12
12
12
12
12
12
12
12
12
12
12
12
12
12
12
12
12
12
12
12
12
12
12
12
12
12
12
12
12
12
12
12
12
12
12
12
12
12
12
12
12
12
12
12
12
12
12
12
12
12
12
12
12
12
12
12
12
12
12
12
12
12
12
12
12
12
12
12
12
12
12
12
12
POINT_DATA 250
VECTORS displacement float
0.000000000000e+00 0.000000000000e+00 0.000000000000e+00
0.000000000000e+00 0.000000000000e+00 0.000000000000e+00
0.000000000000e+00 0.000000000000e+00 0.000000000000e+00
0.000000000000e+00 0.000000000000e+00 0.000000000000e+00
0.000000000000e+00 0.000000000000e+00 0.000000000000e+00
0.000000000000e+00 0.000000000000e+00 0.000000000000e+00
0.000000000000e+00 0.000000000000e+00 0.000000000000e+00
0.000000000000e+00 0.000000000000e+00 0.000000000000e+00
0.000000000000e+00 0.000000000000e+00 0.000000000000e+00
0.000000000000e+00 0.000000000000e+00 0.000000000000e+00
0.000000000000e+00 0.000000000000e+00 0.000000000000e+00
0.000000000000e+00 0.000000000000e+00 0.000000000000e+00
0.000000000000e+00 0.000000000000e+00 0.000000000000e+00
0.000000000000e+00 0.000000000000e+00 0.000000000000e+00
0.000000000000e+00 0.000000000000e+00 0.000000000000e+00
0.000000000000e+00 0.000000000000e+00 0.000000000000e+00
0.000000000000e+00 0.000000000000e+00 0.000000000000e+00
0.000000000000e+00 0.000000000000e+00 0.000000000000e+00
0.000000000000e+00 0.000000000000e+00 0.000000000000e+00
0.000000000000e+00 0.000000000000e+00 0.000000000000e+00
0.000000000000e+00 0.000000000000e+00 0.000000000000e+00
0.000000000000e+00 0.000000000000e+00 0.000000000000e+00
0.000000000000e+00 0.000000000000e+00 0.000000000000e+00
0.000000000000e+00 0.000000000000e+00 0.000000000000e+00
0.000000000000e+00 0.000000000000e+00 0.000000000000e+00
0.000000000000e+00 0.000000000000e+00 0.000000000000e+00
0.000000000000e+00 0.000000000000e+00 0.000000000000e+00
0.000000000000e+00 0.000000000000e+00 0.000000000000e+00
0.000000000000e+00 0.000000000000e+00 0.000000000000e+00
0.000000000000e+00 0.000000000000e+00 0.000000000000e+00
0.000000000000e+00 0.000000000000e+00 0.000000000000e+00
0.000000000000e+00 0.000000000000e+00 0.000000000000e+00
0.000000000000e+00 0.000000000000e+00 0.000000000000e+00
0.000000000000e+00 0.000000000000e+00 0.000000000000e+00
0.000000000000e+00 0.000000000000e+00 0.000000000000e+00
0.000000000000e+00 0.000000000000e+00 0.000000000000e+00
0.000000000000e+00 0.000000000000e+00 0.000000000000e+00
0.000000000000e+00 0.000000000000e+00 0.000000000000e+00
0.000000000000e+00 0.000000000000e+00 0.000000000000e+00
0.000000000000e+00 0.000000000000e+00 0.000000000000e+00
0.000000000000e+00 0.000000000000e+00 0.000000000000e+00
0.000000000000e+00 0.000000000000e+00 0.000000000000e+00
0.000000000000e+00 0.000000000000e+00 0.000000000000e+00
0.000000000000e+00 0.000000000000e+00 0.000000000000e+00
0.000000000000e+00 0.000000000000e+00 0.000000000000e+00
0.000000000000e+00 0.000000000000e+00 0.000000000000e+00
0.000000000000e+00 0.000000000000e+00 0.000000000000e+00
0.000000000000e+00 0.000000000000e+00 0.000000000000e+00
0.000000000000e+00 0.000000000000e+00 0.000000000000e+00
0.000000000000e+00 0.000000000000e+00 0.000000000000e+00
0.000000000000e+00 0.000000000000e+00 0.000000000000e+00
0.000000000000e+00 0.000000000000e+00 0.000000000000e+00
0.000000000000e+00 0.000000000000e+00 0.000000000000e+00
0.000000000000e+00 0.000000000000e+00 0.000000000000e+00
0.000000000000e+00 0.000000000000e+00 0.000000000000e+00
0.000000000000e+00 0.000000000000e+00 0.000000000000e+00
0.000000000000e+00 0.000000000000e+00 0.000000000000e+00
0.000000000000e+00 0.000000000000e+00 0.000000000000e+00
0.000000000000e+00 0.000000000000e+00 0.000000000000e+00
0.000000000000e+00 0.000000000000e+00 0.000000000000e+00
0.000000000000e+00 0.000000000000e+00 0.000000000000e+00
0.000000000000e+00 0.000000000000e+00 0.000000000000e+00
0.000000000000e+00 0.000000000000e+00 0.000000000000e+00
0.000000000000e+00 0.000000000000e+00 0.000000000000e+00
0.000000000000e+00 0.000000000000e+00 0.000000000000e+00
0.000000000000e+00 0.000000000000e+00 0.000000000000e+00
0.000000000000e+00 0.000000000000e+00 0.000000000000e+00
0.000000000000e+00 0.000000000000e+00 0.000000000000e+00
0.000000000000e+00 0.000000000000e+00 0.000000000000e+00
0.000000000000e+00 0.000000000000e+00 0.000000000000e+00
0.000000000000e+00 0.000000000000e+00 0.000000000000e+00
0.000000000000e+00 0.000000000000e+00 0.000000000000e+00
0.000000000000e+00 0.000000000000e+00 0.000000000000e+00
0.000000000000e+00 0.000000000000e+00 0.000000000000e+00
0.000000000000e+00 0.000000000000e+00 0.000000000000e+00
0.000000000000e+00 0.000000000000e+00 0.000000000000e+00
0.000000000000e+00 0.000000000000e+00 0.000000000000e+00
0.000000000000e+00 0.000000000000e+00 0.000000000000e+00
0.000000000000e+00 0.000000000000e+00 0.000000000000e+00
0.000000000000e+00 0.000000000000e+00 0.000000000000e+00
0.000000000000e+00 0.000000000000e+00 0.000000000000e+00
0.000000000000e+00 0.000000000000e+00 0.000000000000e+00
0.000000000000e+00 0.000000000000e+00 0.000000000000e+00
0.000000000000e+00 0.000000000000e+00 0.000000000000e+00
0.000000000000e+00 0.000000000000e+00 0.000000000000e+00
0.000000000000e+00 0.000000000000e+00 0.000000000000e+00
0.000000000000e+00 0.000000000000e+00 0.000000000000e+00
0.000000000000e+00 0.000000000000e+00 0.000000000000e+00
0.000000000000e+00 0.000000000000e+00 0.000000000000e+00
0.000000000000e+00 0.000000000000e+00 0.000000000000e+00
0.000000000000e+00 0.000000000000e+00 0.000000000000e+00
0.000000000000e+00 0.000000000000e+00 0.000000000000e+00
0.000000000000e+00 0.000000000000e+00 0.000000000000e+00
0.000000000000e+00 0.000000000000e+00 0.000000000000e+00
0.000000000000e+00 0.000000000000e+00 0.000000000000e+00
0.000000000000e+00 0.000000000000e+00 0.000000000000e+00
0.000000000000e+00 0.000000000000e+00 0.000000000000e+00
0.000000000000e+00 0.000000000000e+00 0.000000000000e+00
0.000000000000e+00 0.000000000000e+00 0.000000000000e+00
0.000000000000e+00 0.000000000000e+00 0.000000000000e+00
0.000000000000e+00 0.000000000000e+00 0.000000000000e+00
0.000000000000e+00 0.000000000000e+00 0.000000000000e+00
0.000000000000e+00 0.000000000000e+00 0.000000000000e+00
0.000000000000e+00 0.000000000000e+00 0.000000000000e+00
0.000000000000e+00 0.000000000000e+00 0.000000000000e+00
0.000000000000e+00 0.000000000000e+00 0.000000000000e+00
0.000000000000e+00 0.000000000000e+00 0.000000000000e+00
0.000000000000e+00 0.000000000000e+00 0.000000000000e+00
0.000000000000e+00 0.000000000000e+00 0.000000000000e+00
0.000000000000e+00 0.000000000000e+00 0.000000000000e+00
0.000000000000e+00 0.000000000000e+00 0.000000000000e+00
0.000000000000e+00 0.000000000000e+00 0.000000000000e+00
0.000000000000e+00 0.000000000000e+00 0.000000000000e+00
0.000000000000e+00 0.000000000000e+00 0.000000000000e+00
0.000000000000e+00 0.000000000000e+00 0.000000000000e+00
0.000000000000e+00 0.000000000000e+00 0.000000000000e+00
0.000000000000e+00 0.000000000000e+00 0.000000000000e+00
0.000000000000e+00 0.000000000000e+00 0.000000000000e+00
0.000000000000e+00 0.000000000000e+00 0.000000000000e+00
0.000000000000e+00 0.000000000000e+00 0.000000000000e+00
0.000000000000e+00 0.000000000000e+00 0.000000000000e+00
0.000000000000e+00 0.000000000000e+00 0.000000000000e+00
0.000000000000e+00 0.000000000000e+00 0.000000000000e+00
0.000000000000e+00 0.000000000000e+00 0.000000000000e+00
0.000000000000e+00 0.000000000000e+00 0.000000000000e+00
-1.630707560173e-06 -1.630707590069e-06 -1.505068591701e-02
-7.828756432765e-07 -1.658461892493e-06 -1.505114222809e-02
1.326611343191e-14 -1.690418511392e-06 -1.505127465218e-02
7.828756698173e-07 -1.658461891282e-06 -1.505114222809e-02
1.630707586730e-06 -1.630707587664e-06 -1.505068591701e-02
-1.658461863797e-06 -7.828756731547e-07 -1.505114222809e-02
-7.873677753189e-07 -7.873678039989e-07 -1.505161836557e-02
1.266005994530e-14 -8.029981979721e-07 -1.505176180121e-02
7.873678006483e-07 -7.873678028063e-07 -1.505161836556e-02
1.658461889132e-06 -7.828756707669e-07 -1.505114222809e-02
-1.690418483897e-06 -1.658517405966e-14 -1.505127465218e-02
-8.029981704859e-07 -1.599793846811e-14 -1.505176180121e-02
1.205859405713e-14 -1.541699219318e-14 -1.505190843646e-02
8.029981946115e-07 -1.482691323400e-14 -1.505176180121e-02
1.690418508035e-06 -1.423339994073e-14 -1.505127465218e-02
-1.658461864980e-06 7.828756399913e-07 -1.505114222809e-02
-7.873677765064e-07 7.873677720089e-07 -1.505161836556e-02
1.146426660996e-14 8.029981671486e-07 -1.505176180121e-02
7.873677994418e-07 7.873677731579e-07 -1.505161836556e-02
1.658461887922e-06 7.828756422992e-07 -1.505114222809e-02
-1.630707562538e-06 1.630707556911e-06 -1.505068591701e-02
-7.828756456475e-07 1.658461860505e-06 -1.505114222809e-02
1.088068427273e-14 1.690418480582e-06 -1.505127465218e-02
7.828756674147e-07 1.658461861644e-06 -1.505114222809e-02
1.630707584306e-06 1.630707559202e-06 -1.505068591701e-02
-1.311255342821e-06 -1.311255372645e-06 -1.505212685114e-02
-6.137798942914e-07 -1.332380429461e-06 -1.505259240968e-02
1.317554419133e-14 -1.358386256904e-06 -1.505271376090e-02
6.137799206445e-07 -1.332380428257e-06 -1.505259240968e-02
1.311255369176e-06 -1.311255370236e-06 -1.505212685114e-02
-1.332380400845e-06 -6.137799241016e-07 -1.505259240968e-02
-6.140294319570e-07 -6.140294605707e-07 -1.505307322649e-02
1.257070699399e-14 -6.254658621957e-07 -1.505320234915e-02
6.140294571018e-07 -6.140294593782e-07 -1.505307322649e-02
1.332380425990e-06 -6.137799217101e-07 -1.505259240968e-02
-1.358386229483e-06 -1.661853717038e-14 -1.505271376090e-02
-6.254658347781e-07 -1.603298321237e-14 -1.505320234915e-02
1.197026391978e-14 -1.544568186162e-14 -1.505333318120e-02
6.254658587215e-07 -1.485517184939e-14 -1.505320234915e-02
1.358386253433e-06 -1.425711795724e-14 -1.505271376090e-02
-1.332380402027e-06 6.137798908630e-07 -1.505259240968e-02
-6.140294331423e-07 6.140294285105e-07 -1.505307322649e-02
1.138047309368e-14 6.254658313070e-07 -1.505320234915e-02
6.140294559063e-07 6.140294296705e-07 -1.505307322649e-02
1.332380424791e-06 6.137798931946e-07 -1.505259240968e-02
-1.311255345180e-06 1.311255339406e-06 -1.505212685114e-02
-6.137798966562e-07 1.332380397403e-06 -1.505259240968e-02
1.079943834190e-14 1.358386226022e-06 -1.505271376090e-02
6.137799182552e-07 1.332380398556e-06 -1.505259240968e-02
1.311255366781e-06 1.311255341717e-06 -1.505212685114e-02
-9.090015540605e-07 -9.090015838097e-07 -1.505319997843e-02
-4.284786695515e-07 -9.180310975277e-07 -1.505366784799e-02
1.307947798942e-14 -9.345111391835e-07 -1.505377705839e-02
4.284786957113e-07 -9.180310963262e-07 -1.505366784799e-02
9.090015802211e-07 -9.090015814024e-07 -1.505319997843e-02
-9.180310689779e-07 -4.284786992980e-07 -1.505366784799e-02
-4.284539989934e-07 -4.284540275373e-07 -1.505414776026e-02
1.247664565624e-14 -4.354179202315e-07 -1.505426217401e-02
4.284540239478e-07 -4.284540263443e-07 -1.505414776026e-02
9.180310939321e-07 -4.284786969047e-07 -1.505366784799e-02
-9.345111118279e-07 -1.665655827390e-14 -1.505377705839e-02
-4.354178928795e-07 -1.606799419405e-14 -1.505426217401e-02
1.187947767490e-14 -1.547854830324e-14 -1.505437637432e-02
4.354179166374e-07 -1.488389669607e-14 -1.505426217401e-02
9.345111355888e-07 -1.428798712249e-14 -1.505377705839e-02
-9.180310701572e-07 4.284786659850e-07 -1.505366784799e-02
-4.284540001736e-07 4.284539954024e-07 -1.505414776026e-02
1.129096544101e-14 4.354178892789e-07 -1.505426217401e-02
4.284540227595e-07 4.284539965762e-07 -1.505414776026e-02
9.180310927489e-07 4.284786683313e-07 -1.505366784799e-02
-9.090015564178e-07 9.090015504966e-07 -1.505319997843e-02
-4.284786719117e-07 9.180310653929e-07 -1.505366784799e-02
1.070919544045e-14 9.345111082266e-07 -1.505377705839e-02
4.284786933320e-07 9.180310665617e-07 -1.505366784799e-02
9.090015778358e-07 9.090015528314e-07 -1.505319997843e-02
-5.068352759727e-07 -5.068353056515e-07 -1.505387940174e-02
-2.494441842611e-07 -5.050717622908e-07 -1.505433074841e-02
1.298273967507e-14 -5.122999923512e-07 -1.505444112940e-02
2.494442102243e-07 -5.050717610961e-07 -1.505433074841e-02
5.068353019358e-07 -5.068353032434e-07 -1.505387940174e-02
-5.050717338177e-07 -2.494442139399e-07 -1.505433074841e-02
-2.494162907337e-07 -2.494163192106e-07 -1.505479152151e-02
1.238207154953e-14 -2.525375214349e-07 -1.505490626034e-02
2.494163154959e-07 -2.494163180139e-07 -1.505479152151e-02
5.050717585759e-07 -2.494442115459e-07 -1.505433074841e-02
-5.122999650683e-07 -1.669262690437e-14 -1.505444112940e-02
-2.525374941455e-07 -1.610413124946e-14 -1.505490626034e-02
1.178838121204e-14 -1.550809931455e-14 -1.505502045740e-02
2.525375177186e-07 -1.491466064188e-14 -1.505490626034e-02
5.122999886418e-07 -1.431765360802e-14 -1.505444112940e-02
-5.050717349906e-07 2.494441805512e-07 -1.505433074841e-02
-2.494162919063e-07 2.494162870020e-07 -1.505479152151e-02
1.120220500066e-14 2.525374904120e-07 -1.505490626034e-02
2.494163143150e-07 2.494162881888e-07 -1.505479152151e-02
5.050717574005e-07 2.494441829142e-07 -1.505433074841e-02
-5.068352783244e-07 5.068352722574e-07 -1.505387940174e-02
-2.494441866165e-07 5.050717300839e-07 -1.505433074841e-02
1.062060531502e-14 5.122999613263e-07 -1.505444112940e-02
2.494442078567e-07 5.050717312694e-07 -1.505433074841e-02
5.068352995630e-07 5.068352746177e-07 -1.505387940174e-02
-1.935726585342e-07 -1.935726881389e-07 -1.505414073047e-02
-9.285652325349e-08 -1.887170068275e-07 -1.505457875868e-02
1.288768385841e-14 -1.917170752516e-07 -1.505469301063e-02
9.285654901993e-08 -1.887170056344e-07 -1.505457875868e-02
1.935726842968e-07 -1.935726857443e-07 -1.505414073047e-02
-1.887169784295e-07 -9.285655286147e-08 -1.505457875868e-02
-9.105655657312e-08 -9.105658498041e-08 -1.505502520676e-02
1.228943668000e-14 -9.212490944896e-08 -1.505514381171e-02
9.105658114055e-08 -9.105658378502e-08 -1.505502520676e-02
1.887170029834e-07 -9.285655046423e-08 -1.505457875868e-02
-1.917170480446e-07 -1.672908991176e-14 -1.505469301063e-02
-9.212488222959e-08 -1.613911847937e-14 -1.505514381171e-02
1.169704550797e-14 -1.554126900602e-14 -1.505526203173e-02
9.212490561439e-08 -1.493859395753e-14 -1.505514381171e-02
1.917170714192e-07 -1.434122332083e-14 -1.505469301063e-02
-1.887169795925e-07 9.285651939728e-08 -1.505457875868e-02
-9.105655774309e-08 9.105655269747e-08 -1.505502520676e-02
1.111812372169e-14 9.212487835765e-08 -1.505514381171e-02
9.105657997209e-08 9.105655389695e-08 -1.505502520676e-02
1.887170018170e-07 9.285652178091e-08 -1.505457875868e-02
-1.935726608867e-07 1.935726546689e-07 -1.505414073047e-02
-9.285652560343e-08 1.887169745491e-07 -1.505457875868e-02
1.053850232940e-14 1.917170441546e-07 -1.505469301063e-02
9.285654667091e-08 1.887169757398e-07 -1.505457875868e-02
1.935726819432e-07 1.935726570537e-07 -1.505414073047e-02
SCALARS displacement_magnitude float 1
LOOKUP_TABLE default
0.000000000000e+00
0.000000000000e+00
0.000000000000e+00
0.000000000000e+00
0.000000000000e+00
0.000000000000e+00
0.000000000000e+00
0.000000000000e+00
0.000000000000e+00
0.000000000000e+00
0.000000000000e+00
0.000000000000e+00
0.000000000000e+00
0.000000000000e+00
0.000000000000e+00
0.000000000000e+00
0.000000000000e+00
0.000000000000e+00
0.000000000000e+00
0.000000000000e+00
0.000000000000e+00
0.000000000000e+00
0.000000000000e+00
0.000000000000e+00
0.000000000000e+00
0.000000000000e+00
0.000000000000e+00
0.000000000000e+00
0.000000000000e+00
0.000000000000e+00
0.000000000000e+00
0.000000000000e+00
0.000000000000e+00
0.000000000000e+00
0.000000000000e+00
0.000000000000e+00
0.000000000000e+00
0.000000000000e+00
0.000000000000e+00
0.000000000000e+00
0.000000000000e+00
0.000000000000e+00
0.000000000000e+00
0.000000000000e+00
0.000000000000e+00
0.000000000000e+00
0.000000000000e+00
0.000000000000e+00
0.000000000000e+00
0.000000000000e+00
0.000000000000e+00
0.000000000000e+00
0.000000000000e+00
0.000000000000e+00
0.000000000000e+00
0.000000000000e+00
0.000000000000e+00
0.000000000000e+00
0.000000000000e+00
0.000000000000e+00
0.000000000000e+00
0.000000000000e+00
0.000000000000e+00
0.000000000000e+00
0.000000000000e+00
0.000000000000e+00
0.000000000000e+00
0.000000000000e+00
0.000000000000e+00
0.000000000000e+00
0.000000000000e+00
0.000000000000e+00
0.000000000000e+00
0.000000000000e+00
0.000000000000e+00
0.000000000000e+00
0.000000000000e+00
0.000000000000e+00
0.000000000000e+00
0.000000000000e+00
0.000000000000e+00
0.000000000000e+00
0.000000000000e+00
0.000000000000e+00
0.000000000000e+00
0.000000000000e+00
0.000000000000e+00
0.000000000000e+00
0.000000000000e+00
0.000000000000e+00
0.000000000000e+00
0.000000000000e+00
0.000000000000e+00
0.000000000000e+00
0.000000000000e+00
0.000000000000e+00
0.000000000000e+00
0.000000000000e+00
0.000000000000e+00
0.000000000000e+00
0.000000000000e+00
0.000000000000e+00
0.000000000000e+00
0.000000000000e+00
0.000000000000e+00
0.000000000000e+00
0.000000000000e+00
0.000000000000e+00
0.000000000000e+00
0.000000000000e+00
0.000000000000e+00
0.000000000000e+00
0.000000000000e+00
0.000000000000e+00
0.000000000000e+00
0.000000000000e+00
0.000000000000e+00
0.000000000000e+00
0.000000000000e+00
0.000000000000e+00
0.000000000000e+00
0.000000000000e+00
0.000000000000e+00
0.000000000000e+00
0.000000000000e+00
1.505068609370e-02
1.505114233983e-02
1.505127474711e-02
1.505114233983e-02
1.505068609370e-02
1.505114233983e-02
1.505161840675e-02
1.505176182263e-02
1.505161840675e-02
1.505114233982e-02
1.505127474711e-02
1.505176182263e-02
1.505190843646e-02
1.505176182263e-02
1.505127474711e-02
1.505114233983e-02
1.505161840675e-02
1.505176182263e-02
1.505161840675e-02
1.505114233982e-02
1.505068609370e-02
1.505114233983e-02
1.505127474711e-02
1.505114233982e-02
1.505068609370e-02
1.505212696537e-02
1.505259248116e-02
1.505271382219e-02
1.505259248116e-02
1.505212696537e-02
1.505259248116e-02
1.505307325154e-02
1.505320236215e-02
1.505307325154e-02
1.505259248116e-02
1.505271382219e-02
1.505320236215e-02
1.505333318120e-02
1.505320236215e-02
1.505271382219e-02
1.505259248116e-02
1.505307325154e-02
1.505320236215e-02
1.505307325154e-02
1.505259248116e-02
1.505212696537e-02
1.505259248116e-02
1.505271382219e-02
1.505259248116e-02
1.505212696537e-02
1.505320003332e-02
1.505366788208e-02
1.505377708739e-02
1.505366788208e-02
1.505320003332e-02
1.505366788208e-02
1.505414777245e-02
1.505426218031e-02
1.505414777245e-02
1.505366788208e-02
1.505377708739e-02
1.505426218031e-02
1.505437637432e-02
1.505426218031e-02
1.505377708739e-02
1.505366788208e-02
1.505414777245e-02
1.505426218031e-02
1.505414777245e-02
1.505366788208e-02
1.505320003332e-02
1.505366788208e-02
1.505377708739e-02
1.505366788208e-02
1.505320003332e-02
1.505387941881e-02
1.505433075895e-02
1.505444113812e-02
1.505433075895e-02
1.505387941881e-02
1.505433075895e-02
1.505479152565e-02
1.505490626246e-02
1.505479152565e-02
1.505433075895e-02
1.505444113812e-02
1.505490626246e-02
1.505502045740e-02
1.505490626246e-02
1.505444113812e-02
1.505433075895e-02
1.505479152565e-02
1.505490626246e-02
1.505479152565e-02
1.505433075895e-02
1.505387941881e-02
1.505433075895e-02
1.505444113812e-02
1.505433075895e-02
1.505387941881e-02
1.505414073296e-02
1.505457876015e-02
1.505469301185e-02
1.505457876015e-02
1.505414073296e-02
1.505457876015e-02
1.505502520731e-02
1.505514381200e-02
1.505502520731e-02
1.505457876015e-02
1.505469301185e-02
1.505514381200e-02
1.505526203173e-02
1.505514381200e-02
1.505469301185e-02
1.505457876015e-02
1.505502520731e-02
1.505514381200e-02
1.505502520731e-02
1.505457876015e-02
1.505414073296e-02
1.505457876015e-02
1.505469301185e-02
1.505457876015e-02
1.505414073296e-02
CELL_DATA 128
SCALARS displacement_magnitude float 1
LOOKUP_TABLE default
0.000000000000e+00
0.000000000000e+00
0.000000000000e+00
0.000000000000e+00
0.000000000000e+00
0.000000000000e+00
0.000000000000e+00
0.000000000000e+00
0.000000000000e+00
0.000000000000e+00
0.000000000000e+00
0.000000000000e+00
0.000000000000e+00
0.000000000000e+00
0.000000000000e+00
0.000000000000e+00
0.000000000000e+00
0.000000000000e+00
0.000000000000e+00
0.000000000000e+00
0.000000000000e+00
0.000000000000e+00
0.000000000000e+00
0.000000000000e+00
0.000000000000e+00
0.000000000000e+00
0.000000000000e+00
0.000000000000e+00
0.000000000000e+00
0.000000000000e+00
0.000000000000e+00
0.000000000000e+00
0.000000000000e+00
0.000000000000e+00
0.000000000000e+00
0.000000000000e+00
0.000000000000e+00
0.000000000000e+00
0.000000000000e+00
0.000000000000e+00
0.000000000000e+00
0.000000000000e+00
0.000000000000e+00
0.000000000000e+00
0.000000000000e+00
0.000000000000e+00
0.000000000000e+00
0.000000000000e+00
0.000000000000e+00
0.000000000000e+00
0.000000000000e+00
0.000000000000e+00
0.000000000000e+00
0.000000000000e+00
0.000000000000e+00
0.000000000000e+00
0.000000000000e+00
0.000000000000e+00
0.000000000000e+00
0.000000000000e+00
0.000000000000e+00
0.000000000000e+00
0.000000000000e+00
0.000000000000e+00
1.505187179492e-02
1.505217240417e-02
1.505217240417e-02
1.505187179492e-02
1.505217240417e-02
1.505248270569e-02
1.505248270569e-02
1.505217240417e-02
1.505217240417e-02
1.505248270569e-02
1.505248270569e-02
1.505217240417e-02
1.505187179492e-02
1.505217240417e-02
1.505217240417e-02
1.505187179492e-02
1.505313359365e-02
1.505342960491e-02
1.505342960491e-02
1.505313359364e-02
1.505342960491e-02
1.505373245805e-02
1.505373245805e-02
1.505342960491e-02
1.505342960491e-02
1.505373245805e-02
1.505373245805e-02
1.505342960491e-02
1.505313359365e-02
1.505342960491e-02
1.505342960491e-02
1.505313359364e-02
1.505400200404e-02
1.505429057593e-02
1.505429057593e-02
1.505400200403e-02
1.505429057593e-02
1.505458412692e-02
1.505458412692e-02
1.505429057593e-02
1.505429057593e-02
1.505458412692e-02
1.505458412692e-02
1.505429057593e-02
1.505400200403e-02
1.505429057593e-02
1.505429057593e-02
1.505400200403e-02
1.505445699037e-02
1.505473880956e-02
1.505473880956e-02
1.505445699037e-02
1.505473880956e-02
1.505502492137e-02
1.505502492137e-02
1.505473880956e-02
1.505473880956e-02
1.505502492137e-02
1.505502492137e-02
1.505473880956e-02
1.505445699037e-02
1.505473880956e-02
1.505473880956e-02
1.505445699037e-02
SCALARS engineering_strain_norm float 1
LOOKUP_TABLE default
0.000000000000e+00
0.000000000000e+00
0.000000000000e+00
0.000000000000e+00
0.000000000000e+00
0.000000000000e+00
0.000000000000e+00
0.000000000000e+00
0.000000000000e+00
0.000000000000e+00
0.000000000000e+00
0.000000000000e+00
0.000000000000e+00
0.000000000000e+00
0.000000000000e+00
0.000000000000e+00
0.000000000000e+00
0.000000000000e+00
0.000000000000e+00
0.000000000000e+00
0.000000000000e+00
0.000000000000e+00
0.000000000000e+00
0.000000000000e+00
0.000000000000e+00
0.000000000000e+00
0.000000000000e+00
0.000000000000e+00
0.000000000000e+00
0.000000000000e+00
0.000000000000e+00
0.000000000000e+00
0.000000000000e+00
0.000000000000e+00
0.000000000000e+00
0.000000000000e+00
0.000000000000e+00
0.000000000000e+00
0.000000000000e+00
0.000000000000e+00
0.000000000000e+00
0.000000000000e+00
0.000000000000e+00
0.000000000000e+00
0.000000000000e+00
0.000000000000e+00
0.000000000000e+00
0.000000000000e+00
0.000000000000e+00
0.000000000000e+00
0.000000000000e+00
0.000000000000e+00
0.000000000000e+00
0.000000000000e+00
0.000000000000e+00
0.000000000000e+00
0.000000000000e+00
0.000000000000e+00
0.000000000000e+00
0.000000000000e+00
0.000000000000e+00
0.000000000000e+00
0.000000000000e+00
0.000000000000e+00
2.399243772385e-05
2.382521102208e-05
2.382521102204e-05
2.399243772367e-05
2.382521102215e-05
2.356084782954e-05
2.356084782948e-05
2.382521102195e-05
2.382521102219e-05
2.356084782952e-05
2.356084782945e-05
2.382521102192e-05
2.399243772384e-05
2.382521102205e-05
2.382521102200e-05
2.399243772364e-05
1.789145180163e-05
1.766889043262e-05
1.766889043258e-05
1.789145180151e-05
1.766889043266e-05
1.736225004770e-05
1.736225004764e-05
1.766889043252e-05
1.766889043262e-05
1.736225004775e-05
1.736225004772e-05
1.766889043250e-05
1.789145180160e-05
1.766889043258e-05
1.766889043258e-05
1.789145180149e-05
1.107512195076e-05
1.088374442958e-05
1.088374442959e-05
1.107512195064e-05
1.088374442960e-05
1.065570188318e-05
1.065570188320e-05
1.088374442946e-05
1.088374442961e-05
1.065570188314e-05
1.065570188314e-05
1.088374442955e-05
1.107512195074e-05
1.088374442947e-05
1.088374442952e-05
1.107512195072e-05
4.310698514650e-06
4.235103820624e-06
4.235103820540e-06
4.310698514546e-06
4.235103820641e-06
4.158104338416e-06
4.158104338345e-06
4.235103820489e-06
4.235103820551e-06
4.158104338314e-06
4.158104338300e-06
4.235103820518e-06
4.310698514618e-06
4.235103820555e-06
4.235103820588e-06
4.310698514545e-06
SCALARS von_mises float 1
LOOKUP_TABLE default
0.000000000000e+00
0.000000000000e+00
0.000000000000e+00
0.000000000000e+00
0.000000000000e+00
0.000000000000e+00
0.000000000000e+00
0.000000000000e+00
0.000000000000e+00
0.000000000000e+00
0.000000000000e+00
0.000000000000e+00
0.000000000000e+00
0.000000000000e+00
0.000000000000e+00
0.000000000000e+00
0.000000000000e+00
0.000000000000e+00
0.000000000000e+00
0.000000000000e+00
0.000000000000e+00
0.000000000000e+00
0.000000000000e+00
0.000000000000e+00
0.000000000000e+00
0.000000000000e+00
0.000000000000e+00
0.000000000000e+00
0.000000000000e+00
0.000000000000e+00
0.000000000000e+00
0.000000000000e+00
0.000000000000e+00
0.000000000000e+00
0.000000000000e+00
0.000000000000e+00
0.000000000000e+00
0.000000000000e+00
0.000000000000e+00
0.000000000000e+00
0.000000000000e+00
0.000000000000e+00
0.000000000000e+00
0.000000000000e+00
0.000000000000e+00
0.000000000000e+00
0.000000000000e+00
0.000000000000e+00
0.000000000000e+00
0.000000000000e+00
0.000000000000e+00
0.000000000000e+00
0.000000000000e+00
0.000000000000e+00
0.000000000000e+00
0.000000000000e+00
0.000000000000e+00
0.000000000000e+00
0.000000000000e+00
0.000000000000e+00
0.000000000000e+00
0.000000000000e+00
0.000000000000e+00
0.000000000000e+00
2.197159378676e+00
2.174387488892e+00
2.174387488888e+00
2.197159378660e+00
2.174387488899e+00
2.139854049142e+00
2.139854049137e+00
2.174387488880e+00
2.174387488902e+00
2.139854049141e+00
2.139854049134e+00
2.174387488877e+00
2.197159378674e+00
2.174387488889e+00
2.174387488885e+00
2.197159378656e+00
1.640484398479e+00
1.614190812365e+00
1.614190812361e+00
1.640484398468e+00
1.614190812369e+00
1.577879292352e+00
1.577879292347e+00
1.614190812355e+00
1.614190812366e+00
1.577879292357e+00
1.577879292353e+00
1.614190812354e+00
1.640484398477e+00
1.614190812361e+00
1.614190812360e+00
1.640484398465e+00
1.014652387962e+00
9.958341401290e-01
9.958341401290e-01
1.014652387950e+00
9.958341401312e-01
9.733034825406e-01
9.733034825411e-01
9.958341401177e-01
9.958341401317e-01
9.733034825370e-01
9.733034825359e-01
9.958341401255e-01
1.014652387960e+00
9.958341401193e-01
9.958341401227e-01
1.014652387957e+00
4.026788896842e-01
3.951766471926e-01
3.951766471845e-01
4.026788896745e-01
3.951766471939e-01
3.875738675833e-01
3.875738675764e-01
3.951766471797e-01
3.951766471856e-01
3.875738675737e-01
3.875738675717e-01
3.951766471820e-01
4.026788896810e-01
3.951766471861e-01
3.951766471881e-01
4.026788896742e-01
SCALARS sdf_gap float 1
LOOKUP_TABLE default
0.000000000000e+00
0.000000000000e+00
0.000000000000e+00
0.000000000000e+00
0.000000000000e+00
0.000000000000e+00
0.000000000000e+00
0.000000000000e+00
0.000000000000e+00
0.000000000000e+00
0.000000000000e+00
0.000000000000e+00
0.000000000000e+00
0.000000000000e+00
0.000000000000e+00
0.000000000000e+00
0.000000000000e+00
0.000000000000e+00
0.000000000000e+00
0.000000000000e+00
0.000000000000e+00
0.000000000000e+00
0.000000000000e+00
0.000000000000e+00
0.000000000000e+00
0.000000000000e+00
0.000000000000e+00
0.000000000000e+00
0.000000000000e+00
0.000000000000e+00
0.000000000000e+00
0.000000000000e+00
0.000000000000e+00
0.000000000000e+00
0.000000000000e+00
0.000000000000e+00
0.000000000000e+00
0.000000000000e+00
0.000000000000e+00
0.000000000000e+00
0.000000000000e+00
0.000000000000e+00
0.000000000000e+00
0.000000000000e+00
0.000000000000e+00
0.000000000000e+00
0.000000000000e+00
0.000000000000e+00
0.000000000000e+00
0.000000000000e+00
0.000000000000e+00
0.000000000000e+00
0.000000000000e+00
0.000000000000e+00
0.000000000000e+00
0.000000000000e+00
0.000000000000e+00
0.000000000000e+00
0.000000000000e+00
0.000000000000e+00
0.000000000000e+00
0.000000000000e+00
0.000000000000e+00
0.000000000000e+00
-5.114718469144e-05
-5.144926176370e-05
-5.144926176352e-05
-5.114718469091e-05
-5.144926176384e-05
-5.176260111392e-05
-5.176260111374e-05
-5.144926176330e-05
-5.144926176374e-05
-5.176260111387e-05
-5.176260111371e-05
-5.144926176326e-05
-5.114718469125e-05
-5.144926176353e-05
-5.144926176336e-05
-5.114718469079e-05
0.000000000000e+00
0.000000000000e+00
0.000000000000e+00
0.000000000000e+00
0.000000000000e+00
0.000000000000e+00
0.000000000000e+00
0.000000000000e+00
0.000000000000e+00
0.000000000000e+00
0.000000000000e+00
0.000000000000e+00
0.000000000000e+00
0.000000000000e+00
0.000000000000e+00
0.000000000000e+00
0.000000000000e+00
0.000000000000e+00
0.000000000000e+00
0.000000000000e+00
0.000000000000e+00
0.000000000000e+00
0.000000000000e+00
0.000000000000e+00
0.000000000000e+00
0.000000000000e+00
0.000000000000e+00
0.000000000000e+00
0.000000000000e+00
0.000000000000e+00
0.000000000000e+00
0.000000000000e+00
0.000000000000e+00
0.000000000000e+00
0.000000000000e+00
0.000000000000e+00
0.000000000000e+00
0.000000000000e+00
0.000000000000e+00
0.000000000000e+00
0.000000000000e+00
0.000000000000e+00
0.000000000000e+00
0.000000000000e+00
0.000000000000e+00
0.000000000000e+00
0.000000000000e+00
0.000000000000e+00
SCALARS contact_pressure float 1
LOOKUP_TABLE default
0.000000000000e+00
0.000000000000e+00
0.000000000000e+00
0.000000000000e+00
0.000000000000e+00
0.000000000000e+00
0.000000000000e+00
0.000000000000e+00
0.000000000000e+00
0.000000000000e+00
0.000000000000e+00
0.000000000000e+00
0.000000000000e+00
0.000000000000e+00
0.000000000000e+00
0.000000000000e+00
0.000000000000e+00
0.000000000000e+00
0.000000000000e+00
0.000000000000e+00
0.000000000000e+00
0.000000000000e+00
0.000000000000e+00
0.000000000000e+00
0.000000000000e+00
0.000000000000e+00
0.000000000000e+00
0.000000000000e+00
0.000000000000e+00
0.000000000000e+00
0.000000000000e+00
0.000000000000e+00
0.000000000000e+00
0.000000000000e+00
0.000000000000e+00
0.000000000000e+00
0.000000000000e+00
0.000000000000e+00
0.000000000000e+00
0.000000000000e+00
0.000000000000e+00
0.000000000000e+00
0.000000000000e+00
0.000000000000e+00
0.000000000000e+00
0.000000000000e+00
0.000000000000e+00
0.000000000000e+00
0.000000000000e+00
0.000000000000e+00
0.000000000000e+00
0.000000000000e+00
0.000000000000e+00
0.000000000000e+00
0.000000000000e+00
0.000000000000e+00
0.000000000000e+00
0.000000000000e+00
0.000000000000e+00
0.000000000000e+00
0.000000000000e+00
0.000000000000e+00
0.000000000000e+00
0.000000000000e+00
2.557359234572e+00
2.572463088185e+00
2.572463088176e+00
2.557359234545e+00
2.572463088192e+00
2.588130055696e+00
2.588130055687e+00
2.572463088165e+00
2.572463088187e+00
2.588130055693e+00
2.588130055686e+00
2.572463088163e+00
2.557359234563e+00
2.572463088176e+00
2.572463088168e+00
2.557359234539e+00
0.000000000000e+00
0.000000000000e+00
0.000000000000e+00
0.000000000000e+00
0.000000000000e+00
0.000000000000e+00
0.000000000000e+00
0.000000000000e+00
0.000000000000e+00
0.000000000000e+00
0.000000000000e+00
0.000000000000e+00
0.000000000000e+00
0.000000000000e+00
0.000000000000e+00
0.000000000000e+00
0.000000000000e+00
0.000000000000e+00
0.000000000000e+00
0.000000000000e+00
0.000000000000e+00
0.000000000000e+00
0.000000000000e+00
0.000000000000e+00
0.000000000000e+00
0.000000000000e+00
0.000000000000e+00
0.000000000000e+00
0.000000000000e+00
0.000000000000e+00
0.000000000000e+00
0.000000000000e+00
0.000000000000e+00
0.000000000000e+00
0.000000000000e+00
0.000000000000e+00
0.000000000000e+00
0.000000000000e+00
0.000000000000e+00
0.000000000000e+00
0.000000000000e+00
0.000000000000e+00
0.000000000000e+00
0.000000000000e+00
0.000000000000e+00
0.000000000000e+00
0.000000000000e+00
0.000000000000e+00
SCALARS active_contact float 1
LOOKUP_TABLE default
0.000000000000e+00
0.000000000000e+00
0.000000000000e+00
0.000000000000e+00
0.000000000000e+00
0.000000000000e+00
0.000000000000e+00
0.000000000000e+00
0.000000000000e+00
0.000000000000e+00
0.000000000000e+00
0.000000000000e+00
0.000000000000e+00
0.000000000000e+00
0.000000000000e+00
0.000000000000e+00
0.000000000000e+00
0.000000000000e+00
0.000000000000e+00
0.000000000000e+00
0.000000000000e+00
0.000000000000e+00
0.000000000000e+00
0.000000000000e+00
0.000000000000e+00
0.000000000000e+00
0.000000000000e+00
0.000000000000e+00
0.000000000000e+00
0.000000000000e+00
0.000000000000e+00
0.000000000000e+00
0.000000000000e+00
0.000000000000e+00
0.000000000000e+00
0.000000000000e+00
0.000000000000e+00
0.000000000000e+00
0.000000000000e+00
0.000000000000e+00
0.000000000000e+00
0.000000000000e+00
0.000000000000e+00
0.000000000000e+00
0.000000000000e+00
0.000000000000e+00
0.000000000000e+00
0.000000000000e+00
0.000000000000e+00
0.000000000000e+00
0.000000000000e+00
0.000000000000e+00
0.000000000000e+00
0.000000000000e+00
0.000000000000e+00
0.000000000000e+00
0.000000000000e+00
0.000000000000e+00
0.000000000000e+00
0.000000000000e+00
0.000000000000e+00
0.000000000000e+00
0.000000000000e+00
0.000000000000e+00
1.000000000000e+00
1.000000000000e+00
1.000000000000e+00
1.000000000000e+00
1.000000000000e+00
1.000000000000e+00
1.000000000000e+00
1.000000000000e+00
1.000000000000e+00
1.000000000000e+00
1.000000000000e+00
1.000000000000e+00
1.000000000000e+00
1.000000000000e+00
1.000000000000e+00
1.000000000000e+00
0.000000000000e+00
0.000000000000e+00
0.000000000000e+00
0.000000000000e+00
0.000000000000e+00
0.000000000000e+00
0.000000000000e+00
0.000000000000e+00
0.000000000000e+00
0.000000000000e+00
0.000000000000e+00
0.000000000000e+00
0.000000000000e+00
0.000000000000e+00
0.000000000000e+00
0.000000000000e+00
0.000000000000e+00
0.000000000000e+00
0.000000000000e+00
0.000000000000e+00
0.000000000000e+00
0.000000000000e+00
0.000000000000e+00
0.000000000000e+00
0.000000000000e+00
0.000000000000e+00
0.000000000000e+00
0.000000000000e+00
0.000000000000e+00
0.000000000000e+00
0.000000000000e+00
0.000000000000e+00
0.000000000000e+00
0.000000000000e+00
0.000000000000e+00
0.000000000000e+00
0.000000000000e+00
0.000000000000e+00
0.000000000000e+00
0.000000000000e+00
0.000000000000e+00
0.000000000000e+00
0.000000000000e+00
0.000000000000e+00
0.000000000000e+00
0.000000000000e+00
0.000000000000e+00
0.000000000000e+00
