# vtk DataFile Version 3.0
SFC long-time C3D8 dynamic frame 66 t=1.320000000000e+00
ASCII
DATASET UNSTRUCTURED_GRID
POINTS 250 float
-2.500000000000e-01 -2.500000000000e-01 0.000000000000e+00
-1.250000000000e-01 -2.500000000000e-01 0.000000000000e+00
0.000000000000e+00 -2.500000000000e-01 0.000000000000e+00
1.250000000000e-01 -2.500000000000e-01 0.000000000000e+00
2.500000000000e-01 -2.500000000000e-01 0.000000000000e+00
-2.500000000000e-01 -1.250000000000e-01 0.000000000000e+00
-1.250000000000e-01 -1.250000000000e-01 0.000000000000e+00
0.000000000000e+00 -1.250000000000e-01 0.000000000000e+00
1.250000000000e-01 -1.250000000000e-01 0.000000000000e+00
2.500000000000e-01 -1.250000000000e-01 0.000000000000e+00
-2.500000000000e-01 0.000000000000e+00 0.000000000000e+00
-1.250000000000e-01 0.000000000000e+00 0.000000000000e+00
0.000000000000e+00 0.000000000000e+00 0.000000000000e+00
1.250000000000e-01 0.000000000000e+00 0.000000000000e+00
2.500000000000e-01 0.000000000000e+00 0.000000000000e+00
-2.500000000000e-01 1.250000000000e-01 0.000000000000e+00
-1.250000000000e-01 1.250000000000e-01 0.000000000000e+00
0.000000000000e+00 1.250000000000e-01 0.000000000000e+00
1.250000000000e-01 1.250000000000e-01 0.000000000000e+00
2.500000000000e-01 1.250000000000e-01 0.000000000000e+00
-2.500000000000e-01 2.500000000000e-01 0.000000000000e+00
-1.250000000000e-01 2.500000000000e-01 0.000000000000e+00
0.000000000000e+00 2.500000000000e-01 0.000000000000e+00
1.250000000000e-01 2.500000000000e-01 0.000000000000e+00
2.500000000000e-01 2.500000000000e-01 0.000000000000e+00
-2.500000000000e-01 -2.500000000000e-01 6.000000000000e-02
-1.250000000000e-01 -2.500000000000e-01 6.000000000000e-02
0.000000000000e+00 -2.500000000000e-01 6.000000000000e-02
1.250000000000e-01 -2.500000000000e-01 6.000000000000e-02
2.500000000000e-01 -2.500000000000e-01 6.000000000000e-02
-2.500000000000e-01 -1.250000000000e-01 6.000000000000e-02
-1.250000000000e-01 -1.250000000000e-01 6.000000000000e-02
0.000000000000e+00 -1.250000000000e-01 6.000000000000e-02
1.250000000000e-01 -1.250000000000e-01 6.000000000000e-02
2.500000000000e-01 -1.250000000000e-01 6.000000000000e-02
-2.500000000000e-01 0.000000000000e+00 6.000000000000e-02
-1.250000000000e-01 0.000000000000e+00 6.000000000000e-02
0.000000000000e+00 0.000000000000e+00 6.000000000000e-02
1.250000000000e-01 0.000000000000e+00 6.000000000000e-02
2.500000000000e-01 0.000000000000e+00 6.000000000000e-02
-2.500000000000e-01 1.250000000000e-01 6.000000000000e-02
-1.250000000000e-01 1.250000000000e-01 6.000000000000e-02
0.000000000000e+00 1.250000000000e-01 6.000000000000e-02
1.250000000000e-01 1.250000000000e-01 6.000000000000e-02
2.500000000000e-01 1.250000000000e-01 6.000000000000e-02
-2.500000000000e-01 2.500000000000e-01 6.000000000000e-02
-1.250000000000e-01 2.500000000000e-01 6.000000000000e-02
0.000000000000e+00 2.500000000000e-01 6.000000000000e-02
1.250000000000e-01 2.500000000000e-01 6.000000000000e-02
2.500000000000e-01 2.500000000000e-01 6.000000000000e-02
-2.500000000000e-01 -2.500000000000e-01 1.200000000000e-01
-1.250000000000e-01 -2.500000000000e-01 1.200000000000e-01
0.000000000000e+00 -2.500000000000e-01 1.200000000000e-01
1.250000000000e-01 -2.500000000000e-01 1.200000000000e-01
2.500000000000e-01 -2.500000000000e-01 1.200000000000e-01
-2.500000000000e-01 -1.250000000000e-01 1.200000000000e-01
-1.250000000000e-01 -1.250000000000e-01 1.200000000000e-01
0.000000000000e+00 -1.250000000000e-01 1.200000000000e-01
1.250000000000e-01 -1.250000000000e-01 1.200000000000e-01
2.500000000000e-01 -1.250000000000e-01 1.200000000000e-01
-2.500000000000e-01 0.000000000000e+00 1.200000000000e-01
-1.250000000000e-01 0.000000000000e+00 1.200000000000e-01
0.000000000000e+00 0.000000000000e+00 1.200000000000e-01
1.250000000000e-01 0.000000000000e+00 1.200000000000e-01
2.500000000000e-01 0.000000000000e+00 1.200000000000e-01
-2.500000000000e-01 1.250000000000e-01 1.200000000000e-01
-1.250000000000e-01 1.250000000000e-01 1.200000000000e-01
0.000000000000e+00 1.250000000000e-01 1.200000000000e-01
1.250000000000e-01 1.250000000000e-01 1.200000000000e-01
2.500000000000e-01 1.250000000000e-01 1.200000000000e-01
-2.500000000000e-01 2.500000000000e-01 1.200000000000e-01
-1.250000000000e-01 2.500000000000e-01 1.200000000000e-01
0.000000000000e+00 2.500000000000e-01 1.200000000000e-01
1.250000000000e-01 2.500000000000e-01 1.200000000000e-01
2.500000000000e-01 2.500000000000e-01 1.200000000000e-01
-2.500000000000e-01 -2.500000000000e-01 1.800000000000e-01
-1.250000000000e-01 -2.500000000000e-01 1.800000000000e-01
0.000000000000e+00 -2.500000000000e-01 1.800000000000e-01
1.250000000000e-01 -2.500000000000e-01 1.800000000000e-01
2.500000000000e-01 -2.500000000000e-01 1.800000000000e-01
-2.500000000000e-01 -1.250000000000e-01 1.800000000000e-01
-1.250000000000e-01 -1.250000000000e-01 1.800000000000e-01
0.000000000000e+00 -1.250000000000e-01 1.800000000000e-01
1.250000000000e-01 -1.250000000000e-01 1.800000000000e-01
2.500000000000e-01 -1.250000000000e-01 1.800000000000e-01
-2.500000000000e-01 0.000000000000e+00 1.800000000000e-01
-1.250000000000e-01 0.000000000000e+00 1.800000000000e-01
0.000000000000e+00 0.000000000000e+00 1.800000000000e-01
1.250000000000e-01 0.000000000000e+00 1.800000000000e-01
2.500000000000e-01 0.000000000000e+00 1.800000000000e-01
-2.500000000000e-01 1.250000000000e-01 1.800000000000e-01
-1.250000000000e-01 1.250000000000e-01 1.800000000000e-01
0.000000000000e+00 1.250000000000e-01 1.800000000000e-01
1.250000000000e-01 1.250000000000e-01 1.800000000000e-01
2.500000000000e-01 1.250000000000e-01 1.800000000000e-01
-2.500000000000e-01 2.500000000000e-01 1.800000000000e-01
-1.250000000000e-01 2.500000000000e-01 1.800000000000e-01
0.000000000000e+00 2.500000000000e-01 1.800000000000e-01
1.250000000000e-01 2.500000000000e-01 1.800000000000e-01
2.500000000000e-01 2.500000000000e-01 1.800000000000e-01
-2.500000000000e-01 -2.500000000000e-01 2.400000000000e-01
-1.250000000000e-01 -2.500000000000e-01 2.400000000000e-01
0.000000000000e+00 -2.500000000000e-01 2.400000000000e-01
1.250000000000e-01 -2.500000000000e-01 2.400000000000e-01
2.500000000000e-01 -2.500000000000e-01 2.400000000000e-01
-2.500000000000e-01 -1.250000000000e-01 2.400000000000e-01
-1.250000000000e-01 -1.250000000000e-01 2.400000000000e-01
0.000000000000e+00 -1.250000000000e-01 2.400000000000e-01
1.250000000000e-01 -1.250000000000e-01 2.400000000000e-01
2.500000000000e-01 -1.250000000000e-01 2.400000000000e-01
-2.500000000000e-01 0.000000000000e+00 2.400000000000e-01
-1.250000000000e-01 0.000000000000e+00 2.400000000000e-01
0.000000000000e+00 0.000000000000e+00 2.400000000000e-01
1.250000000000e-01 0.000000000000e+00 2.400000000000e-01
2.500000000000e-01 0.000000000000e+00 2.400000000000e-01
-2.500000000000e-01 1.250000000000e-01 2.400000000000e-01
-1.250000000000e-01 1.250000000000e-01 2.400000000000e-01
0.000000000000e+00 1.250000000000e-01 2.400000000000e-01
1.250000000000e-01 1.250000000000e-01 2.400000000000e-01
2.500000000000e-01 1.250000000000e-01 2.400000000000e-01
-2.500000000000e-01 2.500000000000e-01 2.400000000000e-01
-1.250000000000e-01 2.500000000000e-01 2.400000000000e-01
0.000000000000e+00 2.500000000000e-01 2.400000000000e-01
1.250000000000e-01 2.500000000000e-01 2.400000000000e-01
2.500000000000e-01 2.500000000000e-01 2.400000000000e-01
-2.499999705029e-01 -2.499999705520e-01 2.458633241967e-01
-1.249999799651e-01 -2.499999721044e-01 2.458633376310e-01
7.646878511690e-11 -2.499999742401e-01 2.458633440221e-01
1.249999801181e-01 -2.499999721044e-01 2.458633377776e-01
2.499999706558e-01 -2.499999705522e-01 2.458633244901e-01
-2.499999720551e-01 -1.249999800143e-01 2.458633375843e-01
-1.249999800907e-01 -1.249999801400e-01 2.458633499097e-01
7.649929042139e-11 -1.249999808747e-01 2.458633556616e-01
1.249999802437e-01 -1.249999801401e-01 2.458633500563e-01
2.499999722081e-01 -1.249999800144e-01 2.458633378776e-01
-2.499999741908e-01 2.728977277761e-11 2.458633439288e-01
-1.249999808254e-01 2.725847317370e-11 2.458633556150e-01
7.653016652962e-11 2.722731254308e-11 2.458633612061e-01
1.249999809785e-01 2.719631781787e-11 2.458633557616e-01
2.499999743438e-01 2.716544503068e-11 2.458633442221e-01
-2.499999720551e-01 1.249999800689e-01 2.458633376377e-01
-1.249999800907e-01 1.249999801945e-01 2.458633499630e-01
7.656149019693e-11 1.249999809291e-01 2.458633557150e-01
1.249999802438e-01 1.249999801944e-01 2.458633501097e-01
2.499999722082e-01 1.249999800688e-01 2.458633379310e-01
-2.499999705027e-01 2.499999706066e-01 2.458633243034e-01
-1.249999799650e-01 2.499999721589e-01 2.458633377376e-01
7.659316438854e-11 2.499999742945e-01 2.458633441288e-01
1.249999801182e-01 2.499999721588e-01 2.458633378843e-01
2.499999706559e-01 2.499999706065e-01 2.458633245967e-01
-2.499999768471e-01 -2.499999768720e-01 3.108633295844e-01
-1.249999849577e-01 -2.499999777938e-01 3.108633441272e-01
3.833785056779e-11 -2.499999793248e-01 3.108633515446e-01
1.249999850344e-01 -2.499999777939e-01 3.108633442738e-01
2.499999769238e-01 -2.499999768721e-01 3.108633298777e-01
-2.499999777688e-01 -1.249999849826e-01 3.108633440805e-01
-1.249999849154e-01 -1.249999849403e-01 3.108633578836e-01
3.836833349268e-11 -1.249999854603e-01 3.108633649094e-01
1.249999849921e-01 -1.249999849404e-01 3.108633580303e-01
2.499999778456e-01 -1.249999849827e-01 3.108633443738e-01
-2.499999792997e-01 1.342405415536e-11 3.108633514513e-01
-1.249999854353e-01 1.339274339466e-11 3.108633648627e-01
3.839917468157e-11 1.336156650593e-11 3.108633718958e-01
1.249999855121e-01 1.333057450814e-11 3.108633650094e-01
2.499999793765e-01 1.329970671784e-11 3.108633517446e-01
-2.499999777688e-01 1.249999850095e-01 3.108633441339e-01
-1.249999849153e-01 1.249999849671e-01 3.108633579369e-01
3.843051980158e-11 1.249999854870e-01 3.108633649627e-01
1.249999849922e-01 1.249999849671e-01 3.108633580836e-01
2.499999778456e-01 1.249999850093e-01 3.108633444272e-01
-2.499999768469e-01 2.499999768988e-01 3.108633296911e-01
-1.249999849576e-01 2.499999778206e-01 3.108633442338e-01
3.846221810022e-11 2.499999793515e-01 3.108633516513e-01
1.249999850345e-01 2.499999778205e-01 3.108633443805e-01
2.499999769239e-01 2.499999768987e-01 3.108633299844e-01
-2.499999830320e-01 -2.499999830327e-01 3.758633365193e-01
-1.249999894604e-01 -2.499999834736e-01 3.758633520198e-01
2.064916712138e-13 -2.499999844250e-01 3.758633598805e-01
1.249999894609e-01 -2.499999834736e-01 3.758633521665e-01
2.499999830324e-01 -2.499999830328e-01 3.758633368126e-01
-2.499999834728e-01 -1.249999894611e-01 3.758633519732e-01
-1.249999894396e-01 -1.249999894403e-01 3.758633669782e-01
2.370477164221e-13 -1.249999897549e-01 3.758633745713e-01
1.249999894401e-01 -1.249999894404e-01 3.758633671249e-01
2.499999834733e-01 -1.249999894612e-01 3.758633522665e-01
-2.499999844242e-01 -4.418260464543e-13 3.758633597872e-01
-1.249999897542e-01 -4.731090093957e-13 3.758633745247e-01
2.678796082543e-13 -5.042914992223e-13 3.758633822095e-01
1.249999897547e-01 -5.352883932400e-13 3.758633746713e-01
2.499999844248e-01 -5.661801799168e-13 3.758633600805e-01
-2.499999834728e-01 1.249999894602e-01 3.758633520265e-01
-1.249999894396e-01 1.249999894394e-01 3.758633670316e-01
2.992232292817e-13 1.249999897539e-01 3.758633746247e-01
1.249999894402e-01 1.249999894393e-01 3.758633671782e-01
2.499999834734e-01 1.249999894601e-01 3.758633523198e-01
-2.499999830319e-01 2.499999830318e-01 3.758633366260e-01
-1.249999894603e-01 2.499999834726e-01 3.758633521265e-01
3.308469987882e-13 2.499999844240e-01 3.758633599872e-01
1.249999894610e-01 2.499999834725e-01 3.758633522732e-01
2.499999830326e-01 2.499999830317e-01 3.758633369193e-01
-2.499999908275e-01 -2.499999908039e-01 4.408633416285e-01
-1.249999943749e-01 -2.499999909392e-01 4.408633580555e-01
-3.792504604742e-11 -2.499999913687e-01 4.408633661054e-01
1.249999942991e-01 -2.499999909392e-01 4.408633582021e-01
2.499999907517e-01 -2.499999908040e-01 4.408633419218e-01
-2.499999909627e-01 -1.249999943513e-01 4.408633580088e-01
-1.249999943668e-01 -1.249999943433e-01 4.408633740272e-01
-3.789441729421e-11 -1.249999944802e-01 4.408633818607e-01
1.249999942910e-01 -1.249999943433e-01 4.408633741739e-01
2.499999908869e-01 -1.249999943514e-01 4.408633583021e-01
-2.499999913922e-01 -1.430777063813e-11 4.408633660121e-01
-1.249999945037e-01 -1.433902526127e-11 4.408633818140e-01
-3.786359901551e-11 -1.437021756500e-11 4.408633897785e-01
1.249999944280e-01 -1.440121425400e-11 4.408633819607e-01
2.499999913164e-01 -1.443213203528e-11 4.408633663054e-01
-2.499999909627e-01 1.249999943227e-01 4.408633580621e-01
-1.249999943668e-01 1.249999943146e-01 4.408633740805e-01
-3.783225219281e-11 1.249999944515e-01 4.408633819140e-01
1.249999942911e-01 1.249999943145e-01 4.408633742272e-01
2.499999908870e-01 1.249999943226e-01 4.408633583555e-01
-2.499999908274e-01 2.499999907753e-01 4.408633417351e-01
-1.249999943748e-01 2.499999909105e-01 4.408633581621e-01
-3.780070054902e-11 2.499999913399e-01 4.408633662120e-01
1.249999942992e-01 2.499999909104e-01 4.408633583088e-01
2.499999907518e-01 2.499999907752e-01 4.408633420284e-01
-2.499999996936e-01 -2.499999996458e-01 5.058633436909e-01
-1.250000004857e-01 -2.499999994461e-01 5.058633604405e-01
-7.605631870538e-11 -2.499999994043e-01 5.058633684863e-01
1.250000003336e-01 -2.499999994462e-01 5.058633605871e-01
2.499999995415e-01 -2.499999996459e-01 5.058633439842e-01
-2.499999994939e-01 -1.250000004378e-01 5.058633603938e-01
-1.250000004307e-01 -1.250000003829e-01 5.058633767262e-01
-7.602573811220e-11 -1.250000004294e-01 5.058633845544e-01
1.250000002787e-01 -1.250000003830e-01 5.058633768728e-01
2.499999993419e-01 -1.250000004380e-01 5.058633606871e-01
-2.499999994520e-01 -2.817361145217e-11 5.058633683930e-01
-1.250000004772e-01 -2.820488963403e-11 5.058633845078e-01
-7.599497141699e-11 -2.823610093742e-11 5.058633924589e-01
1.250000003252e-01 -2.826708450456e-11 5.058633846544e-01
2.499999993000e-01 -2.829799285623e-11 5.058633686863e-01
-2.499999994939e-01 1.250000003815e-01 5.058633604471e-01
-1.250000004307e-01 1.250000003265e-01 5.058633767795e-01
-7.596358059522e-11 1.250000003729e-01 5.058633846078e-01
1.250000002787e-01 1.250000003264e-01 5.058633769262e-01
2.499999993419e-01 1.250000003814e-01 5.058633607405e-01
-2.499999996935e-01 2.499999995894e-01 5.058633437975e-01
-1.250000004856e-01 2.499999993897e-01 5.058633605471e-01
-7.593199088015e-11 2.499999993478e-01 5.058633685930e-01
1.250000003337e-01 2.499999993896e-01 5.058633606938e-01
2.499999995417e-01 2.499999995893e-01 5.058633440909e-01
CELLS 128 1152
8 0 1 6 5 25 26 31 30
8 1 2 7 6 26 27 32 31
8 2 3 8 7 27 28 33 32
8 3 4 9 8 28 29 34 33
8 5 6 11 10 30 31 36 35
8 6 7 12 11 31 32 37 36
8 7 8 13 12 32 33 38 37
8 8 9 14 13 33 34 39 38
8 10 11 16 15 35 36 41 40
8 11 12 17 16 36 37 42 41
8 12 13 18 17 37 38 43 42
8 13 14 19 18 38 39 44 43
8 15 16 21 20 40 41 46 45
8 16 17 22 21 41 42 47 46
8 17 18 23 22 42 43 48 47
8 18 19 24 23 43 44 49 48
8 25 26 31 30 50 51 56 55
8 26 27 32 31 51 52 57 56
8 27 28 33 32 52 53 58 57
8 28 29 34 33 53 54 59 58
8 30 31 36 35 55 56 61 60
8 31 32 37 36 56 57 62 61
8 32 33 38 37 57 58 63 62
8 33 34 39 38 58 59 64 63
8 35 36 41 40 60 61 66 65
8 36 37 42 41 61 62 67 66
8 37 38 43 42 62 63 68 67
8 38 39 44 43 63 64 69 68
8 40 41 46 45 65 66 71 70
8 41 42 47 46 66 67 72 71
8 42 43 48 47 67 68 73 72
8 43 44 49 48 68 69 74 73
8 50 51 56 55 75 76 81 80
8 51 52 57 56 76 77 82 81
8 52 53 58 57 77 78 83 82
8 53 54 59 58 78 79 84 83
8 55 56 61 60 80 81 86 85
8 56 57 62 61 81 82 87 86
8 57 58 63 62 82 83 88 87
8 58 59 64 63 83 84 89 88
8 60 61 66 65 85 86 91 90
8 61 62 67 66 86 87 92 91
8 62 63 68 67 87 88 93 92
8 63 64 69 68 88 89 94 93
8 65 66 71 70 90 91 96 95
8 66 67 72 71 91 92 97 96
8 67 68 73 72 92 93 98 97
8 68 69 74 73 93 94 99 98
8 75 76 81 80 100 101 106 105
8 76 77 82 81 101 102 107 106
8 77 78 83 82 102 103 108 107
8 78 79 84 83 103 104 109 108
8 80 81 86 85 105 106 111 110
8 81 82 87 86 106 107 112 111
8 82 83 88 87 107 108 113 112
8 83 84 89 88 108 109 114 113
8 85 86 91 90 110 111 116 115
8 86 87 92 91 111 112 117 116
8 87 88 93 92 112 113 118 117
8 88 89 94 93 113 114 119 118
8 90 91 96 95 115 116 121 120
8 91 92 97 96 116 117 122 121
8 92 93 98 97 117 118 123 122
8 93 94 99 98 118 119 124 123
8 125 126 131 130 150 151 156 155
8 126 127 132 131 151 152 157 156
8 127 128 133 132 152 153 158 157
8 128 129 134 133 153 154 159 158
8 130 131 136 135 155 156 161 160
8 131 132 137 136 156 157 162 161
8 132 133 138 137 157 158 163 162
8 133 134 139 138 158 159 164 163
8 135 136 141 140 160 161 166 165
8 136 137 142 141 161 162 167 166
8 137 138 143 142 162 163 168 167
8 138 139 144 143 163 164 169 168
8 140 141 146 145 165 166 171 170
8 141 142 147 146 166 167 172 171
8 142 143 148 147 167 168 173 172
8 143 144 149 148 168 169 174 173
8 150 151 156 155 175 176 181 180
8 151 152 157 156 176 177 182 181
8 152 153 158 157 177 178 183 182
8 153 154 159 158 178 179 184 183
8 155 156 161 160 180 181 186 185
8 156 157 162 161 181 182 187 186
8 157 158 163 162 182 183 188 187
8 158 159 164 163 183 184 189 188
8 160 161 166 165 185 186 191 190
8 161 162 167 166 186 187 192 191
8 162 163 168 167 187 188 193 192
8 163 164 169 168 188 189 194 193
8 165 166 171 170 190 191 196 195
8 166 167 172 171 191 192 197 196
8 167 168 173 172 192 193 198 197
8 168 169 174 173 193 194 199 198
8 175 176 181 180 200 201 206 205
8 176 177 182 181 201 202 207 206
8 177 178 183 182 202 203 208 207
8 178 179 184 183 203 204 209 208
8 180 181 186 185 205 206 211 210
8 181 182 187 186 206 207 212 211
8 182 183 188 187 207 208 213 212
8 183 184 189 188 208 209 214 213
8 185 186 191 190 210 211 216 215
8 186 187 192 191 211 212 217 216
8 187 188 193 192 212 213 218 217
8 188 189 194 193 213 214 219 218
8 190 191 196 195 215 216 221 220
8 191 192 197 196 216 217 222 221
8 192 193 198 197 217 218 223 222
8 193 194 199 198 218 219 224 223
8 200 201 206 205 225 226 231 230
8 201 202 207 206 226 227 232 231
8 202 203 208 207 227 228 233 232
8 203 204 209 208 228 229 234 233
8 205 206 211 210 230 231 236 235
8 206 207 212 211 231 232 237 236
8 207 208 213 212 232 233 238 237
8 208 209 214 213 233 234 239 238
8 210 211 216 215 235 236 241 240
8 211 212 217 216 236 237 242 241
8 212 213 218 217 237 238 243 242
8 213 214 219 218 238 239 244 243
8 215 216 221 220 240 241 246 245
8 216 217 222 221 241 242 247 246
8 217 218 223 222 242 243 248 247
8 218 219 224 223 243 244 249 248
CELL_TYPES 128
12
12
12
12
12
12
12
12
12
12
12
12
12
12
12
12
12
12
12
12
12
12
12
12
12
12
12
12
12
12
12
12
12
12
12
12
12
12
12
12
12
12
12
12
12
12
12
12
12
12
12
12
12
12
12
12
12
12
12
12
12
12
12
12
12
12
12
12
12
12
12
12
12
12
12
12
12
12
12
12
12
12
12
12
12
12
12
12
12
12
12
12
12
12
12
12
12
12
12
12
12
12
12
12
12
12
12
12
12
12
12
12
12
12
12
12
12
12
12
12
12
12
12
12
12
12
12
12
POINT_DATA 250
VECTORS displacement float
0.000000000000e+00 0.000000000000e+00 0.000000000000e+00
0.000000000000e+00 0.000000000000e+00 0.000000000000e+00
0.000000000000e+00 0.000000000000e+00 0.000000000000e+00
0.000000000000e+00 0.000000000000e+00 0.000000000000e+00
0.000000000000e+00 0.000000000000e+00 0.000000000000e+00
0.000000000000e+00 0.000000000000e+00 0.000000000000e+00
0.000000000000e+00 0.000000000000e+00 0.000000000000e+00
0.000000000000e+00 0.000000000000e+00 0.000000000000e+00
0.000000000000e+00 0.000000000000e+00 0.000000000000e+00
0.000000000000e+00 0.000000000000e+00 0.000000000000e+00
0.000000000000e+00 0.000000000000e+00 0.000000000000e+00
0.000000000000e+00 0.000000000000e+00 0.000000000000e+00
0.000000000000e+00 0.000000000000e+00 0.000000000000e+00
0.000000000000e+00 0.000000000000e+00 0.000000000000e+00
0.000000000000e+00 0.000000000000e+00 0.000000000000e+00
0.000000000000e+00 0.000000000000e+00 0.000000000000e+00
0.000000000000e+00 0.000000000000e+00 0.000000000000e+00
0.000000000000e+00 0.000000000000e+00 0.000000000000e+00
0.000000000000e+00 0.000000000000e+00 0.000000000000e+00
0.000000000000e+00 0.000000000000e+00 0.000000000000e+00
0.000000000000e+00 0.000000000000e+00 0.000000000000e+00
0.000000000000e+00 0.000000000000e+00 0.000000000000e+00
0.000000000000e+00 0.000000000000e+00 0.000000000000e+00
0.000000000000e+00 0.000000000000e+00 0.000000000000e+00
0.000000000000e+00 0.000000000000e+00 0.000000000000e+00
0.000000000000e+00 0.000000000000e+00 0.000000000000e+00
0.000000000000e+00 0.000000000000e+00 0.000000000000e+00
0.000000000000e+00 0.000000000000e+00 0.000000000000e+00
0.000000000000e+00 0.000000000000e+00 0.000000000000e+00
0.000000000000e+00 0.000000000000e+00 0.000000000000e+00
0.000000000000e+00 0.000000000000e+00 0.000000000000e+00
0.000000000000e+00 0.000000000000e+00 0.000000000000e+00
0.000000000000e+00 0.000000000000e+00 0.000000000000e+00
0.000000000000e+00 0.000000000000e+00 0.000000000000e+00
0.000000000000e+00 0.000000000000e+00 0.000000000000e+00
0.000000000000e+00 0.000000000000e+00 0.000000000000e+00
0.000000000000e+00 0.000000000000e+00 0.000000000000e+00
0.000000000000e+00 0.000000000000e+00 0.000000000000e+00
0.000000000000e+00 0.000000000000e+00 0.000000000000e+00
0.000000000000e+00 0.000000000000e+00 0.000000000000e+00
0.000000000000e+00 0.000000000000e+00 0.000000000000e+00
0.000000000000e+00 0.000000000000e+00 0.000000000000e+00
0.000000000000e+00 0.000000000000e+00 0.000000000000e+00
0.000000000000e+00 0.000000000000e+00 0.000000000000e+00
0.000000000000e+00 0.000000000000e+00 0.000000000000e+00
0.000000000000e+00 0.000000000000e+00 0.000000000000e+00
0.000000000000e+00 0.000000000000e+00 0.000000000000e+00
0.000000000000e+00 0.000000000000e+00 0.000000000000e+00
0.000000000000e+00 0.000000000000e+00 0.000000000000e+00
0.000000000000e+00 0.000000000000e+00 0.000000000000e+00
0.000000000000e+00 0.000000000000e+00 0.000000000000e+00
0.000000000000e+00 0.000000000000e+00 0.000000000000e+00
0.000000000000e+00 0.000000000000e+00 0.000000000000e+00
0.000000000000e+00 0.000000000000e+00 0.000000000000e+00
0.000000000000e+00 0.000000000000e+00 0.000000000000e+00
0.000000000000e+00 0.000000000000e+00 0.000000000000e+00
0.000000000000e+00 0.000000000000e+00 0.000000000000e+00
0.000000000000e+00 0.000000000000e+00 0.000000000000e+00
0.000000000000e+00 0.000000000000e+00 0.000000000000e+00
0.000000000000e+00 0.000000000000e+00 0.000000000000e+00
0.000000000000e+00 0.000000000000e+00 0.000000000000e+00
0.000000000000e+00 0.000000000000e+00 0.000000000000e+00
0.000000000000e+00 0.000000000000e+00 0.000000000000e+00
0.000000000000e+00 0.000000000000e+00 0.000000000000e+00
0.000000000000e+00 0.000000000000e+00 0.000000000000e+00
0.000000000000e+00 0.000000000000e+00 0.000000000000e+00
0.000000000000e+00 0.000000000000e+00 0.000000000000e+00
0.000000000000e+00 0.000000000000e+00 0.000000000000e+00
0.000000000000e+00 0.000000000000e+00 0.000000000000e+00
0.000000000000e+00 0.000000000000e+00 0.000000000000e+00
0.000000000000e+00 0.000000000000e+00 0.000000000000e+00
0.000000000000e+00 0.000000000000e+00 0.000000000000e+00
0.000000000000e+00 0.000000000000e+00 0.000000000000e+00
0.000000000000e+00 0.000000000000e+00 0.000000000000e+00
0.000000000000e+00 0.000000000000e+00 0.000000000000e+00
0.000000000000e+00 0.000000000000e+00 0.000000000000e+00
0.000000000000e+00 0.000000000000e+00 0.000000000000e+00
0.000000000000e+00 0.000000000000e+00 0.000000000000e+00
0.000000000000e+00 0.000000000000e+00 0.000000000000e+00
0.000000000000e+00 0.000000000000e+00 0.000000000000e+00
0.000000000000e+00 0.000000000000e+00 0.000000000000e+00
0.000000000000e+00 0.000000000000e+00 0.000000000000e+00
0.000000000000e+00 0.000000000000e+00 0.000000000000e+00
0.000000000000e+00 0.000000000000e+00 0.000000000000e+00
0.000000000000e+00 0.000000000000e+00 0.000000000000e+00
0.000000000000e+00 0.000000000000e+00 0.000000000000e+00
0.000000000000e+00 0.000000000000e+00 0.000000000000e+00
0.000000000000e+00 0.000000000000e+00 0.000000000000e+00
0.000000000000e+00 0.000000000000e+00 0.000000000000e+00
0.000000000000e+00 0.000000000000e+00 0.000000000000e+00
0.000000000000e+00 0.000000000000e+00 0.000000000000e+00
0.000000000000e+00 0.000000000000e+00 0.000000000000e+00
0.000000000000e+00 0.000000000000e+00 0.000000000000e+00
0.000000000000e+00 0.000000000000e+00 0.000000000000e+00
0.000000000000e+00 0.000000000000e+00 0.000000000000e+00
0.000000000000e+00 0.000000000000e+00 0.000000000000e+00
0.000000000000e+00 0.000000000000e+00 0.000000000000e+00
0.000000000000e+00 0.000000000000e+00 0.000000000000e+00
0.000000000000e+00 0.000000000000e+00 0.000000000000e+00
0.000000000000e+00 0.000000000000e+00 0.000000000000e+00
0.000000000000e+00 0.000000000000e+00 0.000000000000e+00
0.000000000000e+00 0.000000000000e+00 0.000000000000e+00
0.000000000000e+00 0.000000000000e+00 0.000000000000e+00
0.000000000000e+00 0.000000000000e+00 0.000000000000e+00
0.000000000000e+00 0.000000000000e+00 0.000000000000e+00
0.000000000000e+00 0.000000000000e+00 0.000000000000e+00
0.000000000000e+00 0.000000000000e+00 0.000000000000e+00
0.000000000000e+00 0.000000000000e+00 0.000000000000e+00
0.000000000000e+00 0.000000000000e+00 0.000000000000e+00
0.000000000000e+00 0.000000000000e+00 0.000000000000e+00
0.000000000000e+00 0.000000000000e+00 0.000000000000e+00
0.000000000000e+00 0.000000000000e+00 0.000000000000e+00
0.000000000000e+00 0.000000000000e+00 0.000000000000e+00
0.000000000000e+00 0.000000000000e+00 0.000000000000e+00
0.000000000000e+00 0.000000000000e+00 0.000000000000e+00
0.000000000000e+00 0.000000000000e+00 0.000000000000e+00
0.000000000000e+00 0.000000000000e+00 0.000000000000e+00
0.000000000000e+00 0.000000000000e+00 0.000000000000e+00
0.000000000000e+00 0.000000000000e+00 0.000000000000e+00
0.000000000000e+00 0.000000000000e+00 0.000000000000e+00
0.000000000000e+00 0.000000000000e+00 0.000000000000e+00
0.000000000000e+00 0.000000000000e+00 0.000000000000e+00
0.000000000000e+00 0.000000000000e+00 0.000000000000e+00
0.000000000000e+00 0.000000000000e+00 0.000000000000e+00
0.000000000000e+00 0.000000000000e+00 0.000000000000e+00
2.949714775583e-08 2.944796775938e-08 -9.136675803262e-03
2.003485535693e-08 2.789564056472e-08 -9.136662369011e-03
7.646878511690e-11 2.575993059629e-08 -9.136655977902e-03
-1.988191770052e-08 2.789557995480e-08 -9.136662222354e-03
-2.934421006174e-08 2.944784633641e-08 -9.136675509948e-03
2.794488196851e-08 1.998567570756e-08 -9.136662415675e-03
1.990925007698e-08 1.986000890083e-08 -9.136650090333e-03
7.649929042139e-11 1.912530719879e-08 -9.136644338360e-03
-1.975625140943e-08 1.985994773419e-08 -9.136649943676e-03
-2.779188318869e-08 1.998555323879e-08 -9.136662122360e-03
2.580923356650e-08 2.728977277761e-11 -9.136656071230e-03
1.917461009442e-08 2.725847317370e-11 -9.136644385024e-03
7.653016652962e-11 2.722731254308e-11 -9.136638793927e-03
-1.902154968600e-08 2.719631781787e-11 -9.136644238367e-03
-2.565617296880e-08 2.716544503068e-11 -9.136655777915e-03
2.794494473227e-08 -1.993109612608e-08 -9.136662362346e-03
1.990931263527e-08 -1.980549191797e-08 -9.136650037004e-03
7.656149019693e-11 -1.907085254570e-08 -9.136644285031e-03
-1.975618956548e-08 -1.980555506770e-08 -9.136649890347e-03
-2.779182154106e-08 -1.993122231650e-08 -9.136662069030e-03
2.949727319802e-08 -2.939338815877e-08 -9.136675696603e-03
2.003498041418e-08 -2.784112353976e-08 -9.136662262351e-03
7.659316438854e-11 -2.570547587170e-08 -9.136655871243e-03
-1.988179398894e-08 -2.784118725681e-08 -9.136662115695e-03
-2.934408672510e-08 -2.939351539816e-08 -9.136675403288e-03
2.315292485683e-08 2.312801032511e-08 -9.136670415598e-03
1.504229440342e-08 2.220617732390e-08 -9.136655872810e-03
3.833785056779e-11 2.067522538747e-08 -9.136648455387e-03
-1.496561880367e-08 2.220611645722e-08 -9.136655726153e-03
-2.307624947912e-08 2.312788856608e-08 -9.136670122283e-03
2.223115326778e-08 1.501738011313e-08 -9.136655919475e-03
1.508462982198e-08 1.505965398347e-08 -9.136642116405e-03
3.836833349268e-11 1.453970620959e-08 -9.136635090641e-03
-1.500789323487e-08 1.505959264369e-08 -9.136641969747e-03
-2.215441682382e-08 1.501725739437e-08 -9.136655626159e-03
2.070026297026e-08 1.342405415536e-11 -9.136648548715e-03
1.456474380371e-08 1.339274339466e-11 -9.136635137305e-03
3.839917468157e-11 1.336156650593e-11 -9.136628104188e-03
-1.448794552526e-08 1.333057450814e-11 -9.136634990647e-03
-2.062346474499e-08 1.329970671784e-11 -9.136648255399e-03
2.223121593039e-08 -1.499053204378e-08 -9.136655866145e-03
1.508469230929e-08 -1.503286852565e-08 -9.136642063075e-03
3.843051980158e-11 -1.451298310339e-08 -9.136635037311e-03
-1.500783134740e-08 -1.503293152067e-08 -9.136641916418e-03
-2.215435510657e-08 -1.499065801362e-08 -9.136655572829e-03
2.315305016479e-08 -2.310116234096e-08 -9.136670308939e-03
1.504241936217e-08 -2.217939191650e-08 -9.136655766151e-03
3.846221810022e-11 -2.064850230178e-08 -9.136648348727e-03
-1.496549502905e-08 -2.217945538368e-08 -9.136655619494e-03
-2.307612605435e-08 -2.310128926506e-08 -9.136670015624e-03
1.696797493691e-08 1.696732604356e-08 -9.136663480688e-03
1.053956050984e-08 1.652644225118e-08 -9.136647980153e-03
2.064916712138e-13 1.557499655761e-08 -9.136640119476e-03
-1.053914763132e-08 1.652638111433e-08 -9.136647833496e-03
-1.696756232324e-08 1.696720386397e-08 -9.136663187372e-03
1.652715262630e-08 1.053891179623e-08 -9.136648026818e-03
1.056037626453e-08 1.055966594139e-08 -9.136633021751e-03
2.370477164221e-13 1.024506547139e-08 -9.136625428676e-03
-1.055990228699e-08 1.055960440454e-08 -9.136632875093e-03
-1.652667888282e-08 1.053878879042e-08 -9.136647733501e-03
1.557576864830e-08 -4.418260464543e-13 -9.136640212805e-03
1.024583761008e-08 -4.731090093957e-13 -9.136625475340e-03
2.678796082543e-13 -5.042914992223e-13 -9.136617790489e-03
-1.024530195117e-08 -5.352883932400e-13 -9.136625328682e-03
-1.557523314093e-08 -5.661801799168e-13 -9.136639919488e-03
1.652721518458e-08 -1.053979548634e-08 -9.136647973488e-03
1.056043867659e-08 -1.056061220304e-08 -9.136632968421e-03
2.992232292817e-13 -1.024607409062e-08 -9.136625375346e-03
-1.055984034469e-08 -1.056067501912e-08 -9.136632821763e-03
-1.652661708523e-08 -1.053992118818e-08 -9.136647680172e-03
1.696810008523e-08 -1.696820982813e-08 -9.136663374028e-03
1.053968535615e-08 -1.652738859709e-08 -9.136647873493e-03
3.308469987882e-13 -1.557600523450e-08 -9.136640012816e-03
-1.053902377261e-08 -1.652745181199e-08 -9.136647726836e-03
-1.696743876807e-08 -1.696833635383e-08 -9.136663080712e-03
9.172475758730e-09 9.196092627302e-09 -9.136658371529e-03
5.625060384126e-09 9.060818141067e-09 -9.136641944518e-03
-3.792504604742e-11 8.631338751855e-09 -9.136633894619e-03
-5.700910574046e-09 9.060756636160e-09 -9.136641797861e-03
-9.248326126263e-09 9.195969864365e-09 -9.136658078213e-03
9.037262852639e-09 5.648677372321e-09 -9.136641991183e-03
5.633176756049e-09 5.656732062455e-09 -9.136625972791e-03
-3.789441729421e-11 5.519789965738e-09 -9.136618139307e-03
-5.708965730003e-09 5.656670310165e-09 -9.136625826133e-03
-9.113052006286e-09 5.648554047305e-09 -9.136641697866e-03
8.607845281949e-09 -1.430777063813e-11 -9.136633987948e-03
5.496296535755e-09 -1.433902526127e-11 -9.136618185971e-03
-3.786359901551e-11 -1.437021756500e-11 -9.136610221476e-03
-5.572023852701e-09 -1.440121425400e-11 -9.136618039313e-03
-8.683572707694e-09 -1.443213203528e-11 -9.136633694630e-03
9.037325271663e-09 -5.677292945613e-09 -9.136641937853e-03
5.633239084236e-09 -5.685410167341e-09 -9.136625919461e-03
-3.783225219281e-11 -5.548530442431e-09 -9.136618085977e-03
-5.708903723745e-09 -5.685472785816e-09 -9.136625772803e-03
-9.112990091159e-09 -5.677418348080e-09 -9.136641644536e-03
9.172600684216e-09 -9.224708265234e-09 -9.136658264869e-03
5.625185110281e-09 -9.089496316097e-09 -9.136641837858e-03
-3.780070054902e-11 -8.660079268912e-09 -9.136633787959e-03
-5.700786618806e-09 -9.089559178842e-09 -9.136641691200e-03
-9.248202377456e-09 -9.224834228327e-09 -9.136657971553e-03
3.063588950179e-10 3.542414918167e-10 -9.136656309113e-03
-4.857276927451e-10 5.538896775694e-10 -9.136639559531e-03
-7.605631870538e-11 5.957310564437e-10 -9.136631513681e-03
3.336147859902e-10 5.538277603953e-10 -9.136639412873e-03
-4.584721093281e-10 3.541181282698e-10 -9.136656015796e-03
5.060687101730e-10 -4.378451047402e-10 -9.136639606195e-03
-4.307265175301e-10 -3.829056264936e-10 -9.136623273831e-03
-7.602573811220e-11 -4.293963077721e-10 -9.136615445580e-03
2.786747693566e-10 -3.829676218713e-10 -9.136623127172e-03
-6.581207376187e-10 -4.379687849006e-10 -9.136639312878e-03
5.479720236011e-10 -2.817361145217e-11 -9.136631607010e-03
-4.771552737452e-10 -2.820488963403e-11 -9.136615492244e-03
-7.599497141699e-11 -2.823610093742e-11 -9.136607541132e-03
3.251650920413e-10 -2.826708450456e-11 -9.136615345586e-03
-6.999624016585e-10 -2.829799285623e-11 -9.136631313692e-03
5.061309658416e-10 3.814977769217e-10 -9.136639552866e-03
-4.306642843217e-10 3.264957459017e-10 -9.136623220501e-03
-7.596358059522e-11 3.729240153729e-10 -9.136615392250e-03
2.787368449610e-10 3.264333452746e-10 -9.136623073842e-03
-6.580586940200e-10 3.813727016442e-10 -9.136639259548e-03
3.064835996397e-10 -4.105889385336e-10 -9.136656202453e-03
-4.856031076055e-10 -6.102996585573e-10 -9.136639452870e-03
-7.593199088015e-11 -6.522034312720e-10 -9.136631407021e-03
3.337388508377e-10 -6.103621407713e-10 -9.136639306213e-03
-4.583481690754e-10 -4.107143252181e-10 -9.136655909136e-03
SCALARS displacement_magnitude float 1
LOOKUP_TABLE default
0.000000000000e+00
0.000000000000e+00
0.000000000000e+00
0.000000000000e+00
0.000000000000e+00
0.000000000000e+00
0.000000000000e+00
0.000000000000e+00
0.000000000000e+00
0.000000000000e+00
0.000000000000e+00
0.000000000000e+00
0.000000000000e+00
0.000000000000e+00
0.000000000000e+00
0.000000000000e+00
0.000000000000e+00
0.000000000000e+00
0.000000000000e+00
0.000000000000e+00
0.000000000000e+00
0.000000000000e+00
0.000000000000e+00
0.000000000000e+00
0.000000000000e+00
0.000000000000e+00
0.000000000000e+00
0.000000000000e+00
0.000000000000e+00
0.000000000000e+00
0.000000000000e+00
0.000000000000e+00
0.000000000000e+00
0.000000000000e+00
0.000000000000e+00
0.000000000000e+00
0.000000000000e+00
0.000000000000e+00
0.000000000000e+00
0.000000000000e+00
0.000000000000e+00
0.000000000000e+00
0.000000000000e+00
0.000000000000e+00
0.000000000000e+00
0.000000000000e+00
0.000000000000e+00
0.000000000000e+00
0.000000000000e+00
0.000000000000e+00
0.000000000000e+00
0.000000000000e+00
0.000000000000e+00
0.000000000000e+00
0.000000000000e+00
0.000000000000e+00
0.000000000000e+00
0.000000000000e+00
0.000000000000e+00
0.000000000000e+00
0.000000000000e+00
0.000000000000e+00
0.000000000000e+00
0.000000000000e+00
0.000000000000e+00
0.000000000000e+00
0.000000000000e+00
0.000000000000e+00
0.000000000000e+00
0.000000000000e+00
0.000000000000e+00
0.000000000000e+00
0.000000000000e+00
0.000000000000e+00
0.000000000000e+00
0.000000000000e+00
0.000000000000e+00
0.000000000000e+00
0.000000000000e+00
0.000000000000e+00
0.000000000000e+00
0.000000000000e+00
0.000000000000e+00
0.000000000000e+00
0.000000000000e+00
0.000000000000e+00
0.000000000000e+00
0.000000000000e+00
0.000000000000e+00
0.000000000000e+00
0.000000000000e+00
0.000000000000e+00
0.000000000000e+00
0.000000000000e+00
0.000000000000e+00
0.000000000000e+00
0.000000000000e+00
0.000000000000e+00
0.000000000000e+00
0.000000000000e+00
0.000000000000e+00
0.000000000000e+00
0.000000000000e+00
0.000000000000e+00
0.000000000000e+00
0.000000000000e+00
0.000000000000e+00
0.000000000000e+00
0.000000000000e+00
0.000000000000e+00
0.000000000000e+00
0.000000000000e+00
0.000000000000e+00
0.000000000000e+00
0.000000000000e+00
0.000000000000e+00
0.000000000000e+00
0.000000000000e+00
0.000000000000e+00
0.000000000000e+00
0.000000000000e+00
0.000000000000e+00
0.000000000000e+00
0.000000000000e+00
0.000000000000e+00
9.136675803357e-03
9.136662369075e-03
9.136655977939e-03
9.136662222418e-03
9.136675510042e-03
9.136662415740e-03
9.136650090377e-03
9.136644338380e-03
9.136649943719e-03
9.136662122424e-03
9.136656071267e-03
9.136644385044e-03
9.136638793927e-03
9.136644238387e-03
9.136655777951e-03
9.136662362410e-03
9.136650037047e-03
9.136644285051e-03
9.136649890389e-03
9.136662069094e-03
9.136675696698e-03
9.136662262416e-03
9.136655871279e-03
9.136662115759e-03
9.136675403383e-03
9.136670415657e-03
9.136655872850e-03
9.136648455411e-03
9.136655726193e-03
9.136670122342e-03
9.136655919514e-03
9.136642116430e-03
9.136635090653e-03
9.136641969772e-03
9.136655626198e-03
9.136648548739e-03
9.136635137317e-03
9.136628104188e-03
9.136634990659e-03
9.136648255423e-03
9.136655866184e-03
9.136642063100e-03
9.136635037323e-03
9.136641916442e-03
9.136655572868e-03
9.136670308997e-03
9.136655766190e-03
9.136648348751e-03
9.136655619533e-03
9.136670015682e-03
9.136663480719e-03
9.136647980174e-03
9.136640119490e-03
9.136647833517e-03
9.136663187404e-03
9.136648026839e-03
9.136633021763e-03
9.136625428681e-03
9.136632875105e-03
9.136647733522e-03
9.136640212818e-03
9.136625475346e-03
9.136617790489e-03
9.136625328687e-03
9.136639919501e-03
9.136647973509e-03
9.136632968433e-03
9.136625375351e-03
9.136632821775e-03
9.136647680193e-03
9.136663374060e-03
9.136647873514e-03
9.136640012830e-03
9.136647726857e-03
9.136663080744e-03
9.136658371538e-03
9.136641944524e-03
9.136633894623e-03
9.136641797867e-03
9.136658078222e-03
9.136641991189e-03
9.136625972794e-03
9.136618139309e-03
9.136625826136e-03
9.136641697872e-03
9.136633987952e-03
9.136618185973e-03
9.136610221476e-03
9.136618039314e-03
9.136633694634e-03
9.136641937859e-03
9.136625919464e-03
9.136618085978e-03
9.136625772806e-03
9.136641644542e-03
9.136658264878e-03
9.136641837864e-03
9.136633787963e-03
9.136641691207e-03
9.136657971562e-03
9.136656309113e-03
9.136639559531e-03
9.136631513681e-03
9.136639412873e-03
9.136656015796e-03
9.136639606195e-03
9.136623273831e-03
9.136615445580e-03
9.136623127172e-03
9.136639312878e-03
9.136631607010e-03
9.136615492244e-03
9.136607541132e-03
9.136615345586e-03
9.136631313692e-03
9.136639552866e-03
9.136623220501e-03
9.136615392250e-03
9.136623073842e-03
9.136639259548e-03
9.136656202453e-03
9.136639452870e-03
9.136631407021e-03
9.136639306213e-03
9.136655909136e-03
CELL_DATA 128
SCALARS displacement_magnitude float 1
LOOKUP_TABLE default
0.000000000000e+00
0.000000000000e+00
0.000000000000e+00
0.000000000000e+00
0.000000000000e+00
0.000000000000e+00
0.000000000000e+00
0.000000000000e+00
0.000000000000e+00
0.000000000000e+00
0.000000000000e+00
0.000000000000e+00
0.000000000000e+00
0.000000000000e+00
0.000000000000e+00
0.000000000000e+00
0.000000000000e+00
0.000000000000e+00
0.000000000000e+00
0.000000000000e+00
0.000000000000e+00
0.000000000000e+00
0.000000000000e+00
0.000000000000e+00
0.000000000000e+00
0.000000000000e+00
0.000000000000e+00
0.000000000000e+00
0.000000000000e+00
0.000000000000e+00
0.000000000000e+00
0.000000000000e+00
0.000000000000e+00
0.000000000000e+00
0.000000000000e+00
0.000000000000e+00
0.000000000000e+00
0.000000000000e+00
0.000000000000e+00
0.000000000000e+00
0.000000000000e+00
0.000000000000e+00
0.000000000000e+00
0.000000000000e+00
0.000000000000e+00
0.000000000000e+00
0.000000000000e+00
0.000000000000e+00
0.000000000000e+00
0.000000000000e+00
0.000000000000e+00
0.000000000000e+00
0.000000000000e+00
0.000000000000e+00
0.000000000000e+00
0.000000000000e+00
0.000000000000e+00
0.000000000000e+00
0.000000000000e+00
0.000000000000e+00
0.000000000000e+00
0.000000000000e+00
0.000000000000e+00
0.000000000000e+00
9.136659375375e-03
9.136649288889e-03
9.136649215561e-03
9.136659155389e-03
9.136649335553e-03
9.136639757039e-03
9.136639683711e-03
9.136649115567e-03
9.136649308888e-03
9.136639730374e-03
9.136639657046e-03
9.136649088902e-03
9.136659295380e-03
9.136649208894e-03
9.136649135566e-03
9.136659075394e-03
9.136652104243e-03
9.136641010681e-03
9.136640937353e-03
9.136651884257e-03
9.136641057346e-03
9.136630270608e-03
9.136630197279e-03
9.136640837358e-03
9.136641030681e-03
9.136630243943e-03
9.136630170614e-03
9.136640810694e-03
9.136652024248e-03
9.136640930686e-03
9.136640857358e-03
9.136651804262e-03
9.136645098693e-03
9.136633312670e-03
9.136633239341e-03
9.136644878706e-03
9.136633359334e-03
9.136621779479e-03
9.136621706150e-03
9.136633139347e-03
9.136633332669e-03
9.136621752814e-03
9.136621679485e-03
9.136633112682e-03
9.136645018698e-03
9.136633232675e-03
9.136633159346e-03
9.136644798711e-03
9.136640878589e-03
9.136628717984e-03
9.136628644655e-03
9.136640658602e-03
9.136628764649e-03
9.136616784042e-03
9.136616710713e-03
9.136628544661e-03
9.136628737984e-03
9.136616757377e-03
9.136616684048e-03
9.136628517996e-03
9.136640798595e-03
9.136628637989e-03
9.136628564660e-03
9.136640578607e-03
SCALARS engineering_strain_norm float 1
LOOKUP_TABLE default
0.000000000000e+00
0.000000000000e+00
0.000000000000e+00
0.000000000000e+00
0.000000000000e+00
0.000000000000e+00
0.000000000000e+00
0.000000000000e+00
0.000000000000e+00
0.000000000000e+00
0.000000000000e+00
0.000000000000e+00
0.000000000000e+00
0.000000000000e+00
0.000000000000e+00
0.000000000000e+00
0.000000000000e+00
0.000000000000e+00
0.000000000000e+00
0.000000000000e+00
0.000000000000e+00
0.000000000000e+00
0.000000000000e+00
0.000000000000e+00
0.000000000000e+00
0.000000000000e+00
0.000000000000e+00
0.000000000000e+00
0.000000000000e+00
0.000000000000e+00
0.000000000000e+00
0.000000000000e+00
0.000000000000e+00
0.000000000000e+00
0.000000000000e+00
0.000000000000e+00
0.000000000000e+00
0.000000000000e+00
0.000000000000e+00
0.000000000000e+00
0.000000000000e+00
0.000000000000e+00
0.000000000000e+00
0.000000000000e+00
0.000000000000e+00
0.000000000000e+00
0.000000000000e+00
0.000000000000e+00
0.000000000000e+00
0.000000000000e+00
0.000000000000e+00
0.000000000000e+00
0.000000000000e+00
0.000000000000e+00
0.000000000000e+00
0.000000000000e+00
0.000000000000e+00
0.000000000000e+00
0.000000000000e+00
0.000000000000e+00
0.000000000000e+00
0.000000000000e+00
0.000000000000e+00
0.000000000000e+00
1.418493933835e-07
1.949484256126e-07
1.949484278575e-07
1.418494010358e-07
1.949484224124e-07
2.416560034438e-07
2.416560071289e-07
1.949484344904e-07
1.949484232638e-07
2.416560047855e-07
2.416560084478e-07
1.949484352482e-07
1.418493961711e-07
1.949484299843e-07
1.949484322347e-07
1.418494037478e-07
1.545754851247e-07
1.819544337874e-07
1.819544387337e-07
1.545754964680e-07
1.819544309786e-07
2.090327912239e-07
2.090327964469e-07
1.819544445829e-07
1.819544328283e-07
2.090327931349e-07
2.090327983214e-07
1.819544462987e-07
1.545754892686e-07
1.819544387129e-07
1.819544436499e-07
1.545755004768e-07
1.157399481420e-07
1.321951842600e-07
1.321951898660e-07
1.157399577489e-07
1.321951824985e-07
1.484093132731e-07
1.484093186072e-07
1.321951937231e-07
1.321951845771e-07
1.484093152669e-07
1.484093205183e-07
1.321951956911e-07
1.157399516335e-07
1.321951883840e-07
1.321951939806e-07
1.157399611606e-07
5.046425898650e-08
5.357518998784e-08
5.357519431453e-08
5.046426416730e-08
5.357518946799e-08
5.601440280554e-08
5.601440671974e-08
5.357519563890e-08
5.357519107646e-08
5.601440424330e-08
5.601440816085e-08
5.357519716133e-08
5.046426089271e-08
5.357519228596e-08
5.357519655322e-08
5.046426601515e-08
SCALARS von_mises float 1
LOOKUP_TABLE default
0.000000000000e+00
0.000000000000e+00
0.000000000000e+00
0.000000000000e+00
0.000000000000e+00
0.000000000000e+00
0.000000000000e+00
0.000000000000e+00
0.000000000000e+00
0.000000000000e+00
0.000000000000e+00
0.000000000000e+00
0.000000000000e+00
0.000000000000e+00
0.000000000000e+00
0.000000000000e+00
0.000000000000e+00
0.000000000000e+00
0.000000000000e+00
0.000000000000e+00
0.000000000000e+00
0.000000000000e+00
0.000000000000e+00
0.000000000000e+00
0.000000000000e+00
0.000000000000e+00
0.000000000000e+00
0.000000000000e+00
0.000000000000e+00
0.000000000000e+00
0.000000000000e+00
0.000000000000e+00
0.000000000000e+00
0.000000000000e+00
0.000000000000e+00
0.000000000000e+00
0.000000000000e+00
0.000000000000e+00
0.000000000000e+00
0.000000000000e+00
0.000000000000e+00
0.000000000000e+00
0.000000000000e+00
0.000000000000e+00
0.000000000000e+00
0.000000000000e+00
0.000000000000e+00
0.000000000000e+00
0.000000000000e+00
0.000000000000e+00
0.000000000000e+00
0.000000000000e+00
0.000000000000e+00
0.000000000000e+00
0.000000000000e+00
0.000000000000e+00
0.000000000000e+00
0.000000000000e+00
0.000000000000e+00
0.000000000000e+00
0.000000000000e+00
0.000000000000e+00
0.000000000000e+00
0.000000000000e+00
1.305294263891e-02
1.778638337743e-02
1.778638357310e-02
1.305294336596e-02
1.778638307127e-02
2.157705720564e-02
2.157705754170e-02
1.778638420764e-02
1.778638314572e-02
2.157705732801e-02
2.157705766224e-02
1.778638427396e-02
1.305294290349e-02
1.778638378872e-02
1.778638398616e-02
1.305294362469e-02
1.411467857905e-02
1.684044169663e-02
1.684044208635e-02
1.411467960430e-02
1.684044141225e-02
1.934773893916e-02
1.934773938799e-02
1.684044267921e-02
1.684044155747e-02
1.934773910262e-02
1.934773954840e-02
1.684044281419e-02
1.411467895298e-02
1.684044215556e-02
1.684044254514e-02
1.411467996885e-02
1.051372003422e-02
1.217771045207e-02
1.217771085447e-02
1.051372087866e-02
1.217771025599e-02
1.376059371108e-02
1.376059413275e-02
1.217771128178e-02
1.217771040458e-02
1.376059386869e-02
1.376059428185e-02
1.217771142330e-02
1.051372034026e-02
1.217771082892e-02
1.217771123291e-02
1.051372118126e-02
4.464264725582e-03
4.771681444247e-03
4.771681751887e-03
4.464265193476e-03
4.771681363721e-03
5.040897848923e-03
5.040898151565e-03
4.771681945175e-03
4.771681476794e-03
5.040897960343e-03
5.040898261150e-03
4.771682053144e-03
4.464264897448e-03
4.771681661422e-03
4.771681965817e-03
4.464265362264e-03
SCALARS sdf_gap float 1
LOOKUP_TABLE default
0.000000000000e+00
0.000000000000e+00
0.000000000000e+00
0.000000000000e+00
0.000000000000e+00
0.000000000000e+00
0.000000000000e+00
0.000000000000e+00
0.000000000000e+00
0.000000000000e+00
0.000000000000e+00
0.000000000000e+00
0.000000000000e+00
0.000000000000e+00
0.000000000000e+00
0.000000000000e+00
0.000000000000e+00
0.000000000000e+00
0.000000000000e+00
0.000000000000e+00
0.000000000000e+00
0.000000000000e+00
0.000000000000e+00
0.000000000000e+00
0.000000000000e+00
0.000000000000e+00
0.000000000000e+00
0.000000000000e+00
0.000000000000e+00
0.000000000000e+00
0.000000000000e+00
0.000000000000e+00
0.000000000000e+00
0.000000000000e+00
0.000000000000e+00
0.000000000000e+00
0.000000000000e+00
0.000000000000e+00
0.000000000000e+00
0.000000000000e+00
0.000000000000e+00
0.000000000000e+00
0.000000000000e+00
0.000000000000e+00
0.000000000000e+00
0.000000000000e+00
0.000000000000e+00
0.000000000000e+00
0.000000000000e+00
0.000000000000e+00
0.000000000000e+00
0.000000000000e+00
0.000000000000e+00
0.000000000000e+00
0.000000000000e+00
0.000000000000e+00
0.000000000000e+00
0.000000000000e+00
0.000000000000e+00
0.000000000000e+00
0.000000000000e+00
0.000000000000e+00
0.000000000000e+00
0.000000000000e+00
5.863337330430e-03
5.863346806098e-03
5.863346879427e-03
5.863337550416e-03
5.863346759434e-03
5.863355598089e-03
5.863355671417e-03
5.863346979421e-03
5.863346786099e-03
5.863355624754e-03
5.863355698082e-03
5.863347006085e-03
5.863337410424e-03
5.863346886093e-03
5.863346959421e-03
5.863337630410e-03
0.000000000000e+00
0.000000000000e+00
0.000000000000e+00
0.000000000000e+00
0.000000000000e+00
0.000000000000e+00
0.000000000000e+00
0.000000000000e+00
0.000000000000e+00
0.000000000000e+00
0.000000000000e+00
0.000000000000e+00
0.000000000000e+00
0.000000000000e+00
0.000000000000e+00
0.000000000000e+00
0.000000000000e+00
0.000000000000e+00
0.000000000000e+00
0.000000000000e+00
0.000000000000e+00
0.000000000000e+00
0.000000000000e+00
0.000000000000e+00
0.000000000000e+00
0.000000000000e+00
0.000000000000e+00
0.000000000000e+00
0.000000000000e+00
0.000000000000e+00
0.000000000000e+00
0.000000000000e+00
0.000000000000e+00
0.000000000000e+00
0.000000000000e+00
0.000000000000e+00
0.000000000000e+00
0.000000000000e+00
0.000000000000e+00
0.000000000000e+00
0.000000000000e+00
0.000000000000e+00
0.000000000000e+00
0.000000000000e+00
0.000000000000e+00
0.000000000000e+00
0.000000000000e+00
0.000000000000e+00
SCALARS contact_pressure float 1
LOOKUP_TABLE default
0.000000000000e+00
0.000000000000e+00
0.000000000000e+00
0.000000000000e+00
0.000000000000e+00
0.000000000000e+00
0.000000000000e+00
0.000000000000e+00
0.000000000000e+00
0.000000000000e+00
0.000000000000e+00
0.000000000000e+00
0.000000000000e+00
0.000000000000e+00
0.000000000000e+00
0.000000000000e+00
0.000000000000e+00
0.000000000000e+00
0.000000000000e+00
0.000000000000e+00
0.000000000000e+00
0.000000000000e+00
0.000000000000e+00
0.000000000000e+00
0.000000000000e+00
0.000000000000e+00
0.000000000000e+00
0.000000000000e+00
0.000000000000e+00
0.000000000000e+00
0.000000000000e+00
0.000000000000e+00
0.000000000000e+00
0.000000000000e+00
0.000000000000e+00
0.000000000000e+00
0.000000000000e+00
0.000000000000e+00
0.000000000000e+00
0.000000000000e+00
0.000000000000e+00
0.000000000000e+00
0.000000000000e+00
0.000000000000e+00
0.000000000000e+00
0.000000000000e+00
0.000000000000e+00
0.000000000000e+00
0.000000000000e+00
0.000000000000e+00
0.000000000000e+00
0.000000000000e+00
0.000000000000e+00
0.000000000000e+00
0.000000000000e+00
0.000000000000e+00
0.000000000000e+00
0.000000000000e+00
0.000000000000e+00
0.000000000000e+00
0.000000000000e+00
0.000000000000e+00
0.000000000000e+00
0.000000000000e+00
0.000000000000e+00
0.000000000000e+00
0.000000000000e+00
0.000000000000e+00
0.000000000000e+00
0.000000000000e+00
0.000000000000e+00
0.000000000000e+00
0.000000000000e+00
0.000000000000e+00
0.000000000000e+00
0.000000000000e+00
0.000000000000e+00
0.000000000000e+00
0.000000000000e+00
0.000000000000e+00
0.000000000000e+00
0.000000000000e+00
0.000000000000e+00
0.000000000000e+00
0.000000000000e+00
0.000000000000e+00
0.000000000000e+00
0.000000000000e+00
0.000000000000e+00
0.000000000000e+00
0.000000000000e+00
0.000000000000e+00
0.000000000000e+00
0.000000000000e+00
0.000000000000e+00
0.000000000000e+00
0.000000000000e+00
0.000000000000e+00
0.000000000000e+00
0.000000000000e+00
0.000000000000e+00
0.000000000000e+00
0.000000000000e+00
0.000000000000e+00
0.000000000000e+00
0.000000000000e+00
0.000000000000e+00
0.000000000000e+00
0.000000000000e+00
0.000000000000e+00
0.000000000000e+00
0.000000000000e+00
0.000000000000e+00
0.000000000000e+00
0.000000000000e+00
0.000000000000e+00
0.000000000000e+00
0.000000000000e+00
0.000000000000e+00
0.000000000000e+00
0.000000000000e+00
0.000000000000e+00
0.000000000000e+00
0.000000000000e+00
0.000000000000e+00
0.000000000000e+00
0.000000000000e+00
0.000000000000e+00
SCALARS active_contact float 1
LOOKUP_TABLE default
0.000000000000e+00
0.000000000000e+00
0.000000000000e+00
0.000000000000e+00
0.000000000000e+00
0.000000000000e+00
0.000000000000e+00
0.000000000000e+00
0.000000000000e+00
0.000000000000e+00
0.000000000000e+00
0.000000000000e+00
0.000000000000e+00
0.000000000000e+00
0.000000000000e+00
0.000000000000e+00
0.000000000000e+00
0.000000000000e+00
0.000000000000e+00
0.000000000000e+00
0.000000000000e+00
0.000000000000e+00
0.000000000000e+00
0.000000000000e+00
0.000000000000e+00
0.000000000000e+00
0.000000000000e+00
0.000000000000e+00
0.000000000000e+00
0.000000000000e+00
0.000000000000e+00
0.000000000000e+00
0.000000000000e+00
0.000000000000e+00
0.000000000000e+00
0.000000000000e+00
0.000000000000e+00
0.000000000000e+00
0.000000000000e+00
0.000000000000e+00
0.000000000000e+00
0.000000000000e+00
0.000000000000e+00
0.000000000000e+00
0.000000000000e+00
0.000000000000e+00
0.000000000000e+00
0.000000000000e+00
0.000000000000e+00
0.000000000000e+00
0.000000000000e+00
0.000000000000e+00
0.000000000000e+00
0.000000000000e+00
0.000000000000e+00
0.000000000000e+00
0.000000000000e+00
0.000000000000e+00
0.000000000000e+00
0.000000000000e+00
0.000000000000e+00
0.000000000000e+00
0.000000000000e+00
0.000000000000e+00
0.000000000000e+00
0.000000000000e+00
0.000000000000e+00
0.000000000000e+00
0.000000000000e+00
0.000000000000e+00
0.000000000000e+00
0.000000000000e+00
0.000000000000e+00
0.000000000000e+00
0.000000000000e+00
0.000000000000e+00
0.000000000000e+00
0.000000000000e+00
0.000000000000e+00
0.000000000000e+00
0.000000000000e+00
0.000000000000e+00
0.000000000000e+00
0.000000000000e+00
0.000000000000e+00
0.000000000000e+00
0.000000000000e+00
0.000000000000e+00
0.000000000000e+00
0.000000000000e+00
0.000000000000e+00
0.000000000000e+00
0.000000000000e+00
0.000000000000e+00
0.000000000000e+00
0.000000000000e+00
0.000000000000e+00
0.000000000000e+00
0.000000000000e+00
0.000000000000e+00
0.000000000000e+00
0.000000000000e+00
0.000000000000e+00
0.000000000000e+00
0.000000000000e+00
0.000000000000e+00
0.000000000000e+00
0.000000000000e+00
0.000000000000e+00
0.000000000000e+00
0.000000000000e+00
0.000000000000e+00
0.000000000000e+00
0.000000000000e+00
0.000000000000e+00
0.000000000000e+00
0.000000000000e+00
0.000000000000e+00
0.000000000000e+00
0.000000000000e+00
0.000000000000e+00
0.000000000000e+00
0.000000000000e+00
0.000000000000e+00
0.000000000000e+00
0.000000000000e+00
0.000000000000e+00
0.000000000000e+00
