# vtk DataFile Version 3.0
SFC long-time C3D8 dynamic frame 103 t=2.060000000000e+00
ASCII
DATASET UNSTRUCTURED_GRID
POINTS 250 float
-2.500000000000e-01 -2.500000000000e-01 0.000000000000e+00
-1.250000000000e-01 -2.500000000000e-01 0.000000000000e+00
0.000000000000e+00 -2.500000000000e-01 0.000000000000e+00
1.250000000000e-01 -2.500000000000e-01 0.000000000000e+00
2.500000000000e-01 -2.500000000000e-01 0.000000000000e+00
-2.500000000000e-01 -1.250000000000e-01 0.000000000000e+00
-1.250000000000e-01 -1.250000000000e-01 0.000000000000e+00
0.000000000000e+00 -1.250000000000e-01 0.000000000000e+00
1.250000000000e-01 -1.250000000000e-01 0.000000000000e+00
2.500000000000e-01 -1.250000000000e-01 0.000000000000e+00
-2.500000000000e-01 0.000000000000e+00 0.000000000000e+00
-1.250000000000e-01 0.000000000000e+00 0.000000000000e+00
0.000000000000e+00 0.000000000000e+00 0.000000000000e+00
1.250000000000e-01 0.000000000000e+00 0.000000000000e+00
2.500000000000e-01 0.000000000000e+00 0.000000000000e+00
-2.500000000000e-01 1.250000000000e-01 0.000000000000e+00
-1.250000000000e-01 1.250000000000e-01 0.000000000000e+00
0.000000000000e+00 1.250000000000e-01 0.000000000000e+00
1.250000000000e-01 1.250000000000e-01 0.000000000000e+00
2.500000000000e-01 1.250000000000e-01 0.000000000000e+00
-2.500000000000e-01 2.500000000000e-01 0.000000000000e+00
-1.250000000000e-01 2.500000000000e-01 0.000000000000e+00
0.000000000000e+00 2.500000000000e-01 0.000000000000e+00
1.250000000000e-01 2.500000000000e-01 0.000000000000e+00
2.500000000000e-01 2.500000000000e-01 0.000000000000e+00
-2.500000000000e-01 -2.500000000000e-01 6.000000000000e-02
-1.250000000000e-01 -2.500000000000e-01 6.000000000000e-02
0.000000000000e+00 -2.500000000000e-01 6.000000000000e-02
1.250000000000e-01 -2.500000000000e-01 6.000000000000e-02
2.500000000000e-01 -2.500000000000e-01 6.000000000000e-02
-2.500000000000e-01 -1.250000000000e-01 6.000000000000e-02
-1.250000000000e-01 -1.250000000000e-01 6.000000000000e-02
0.000000000000e+00 -1.250000000000e-01 6.000000000000e-02
1.250000000000e-01 -1.250000000000e-01 6.000000000000e-02
2.500000000000e-01 -1.250000000000e-01 6.000000000000e-02
-2.500000000000e-01 0.000000000000e+00 6.000000000000e-02
-1.250000000000e-01 0.000000000000e+00 6.000000000000e-02
0.000000000000e+00 0.000000000000e+00 6.000000000000e-02
1.250000000000e-01 0.000000000000e+00 6.000000000000e-02
2.500000000000e-01 0.000000000000e+00 6.000000000000e-02
-2.500000000000e-01 1.250000000000e-01 6.000000000000e-02
-1.250000000000e-01 1.250000000000e-01 6.000000000000e-02
0.000000000000e+00 1.250000000000e-01 6.000000000000e-02
1.250000000000e-01 1.250000000000e-01 6.000000000000e-02
2.500000000000e-01 1.250000000000e-01 6.000000000000e-02
-2.500000000000e-01 2.500000000000e-01 6.000000000000e-02
-1.250000000000e-01 2.500000000000e-01 6.000000000000e-02
0.000000000000e+00 2.500000000000e-01 6.000000000000e-02
1.250000000000e-01 2.500000000000e-01 6.000000000000e-02
2.500000000000e-01 2.500000000000e-01 6.000000000000e-02
-2.500000000000e-01 -2.500000000000e-01 1.200000000000e-01
-1.250000000000e-01 -2.500000000000e-01 1.200000000000e-01
0.000000000000e+00 -2.500000000000e-01 1.200000000000e-01
1.250000000000e-01 -2.500000000000e-01 1.200000000000e-01
2.500000000000e-01 -2.500000000000e-01 1.200000000000e-01
-2.500000000000e-01 -1.250000000000e-01 1.200000000000e-01
-1.250000000000e-01 -1.250000000000e-01 1.200000000000e-01
0.000000000000e+00 -1.250000000000e-01 1.200000000000e-01
1.250000000000e-01 -1.250000000000e-01 1.200000000000e-01
2.500000000000e-01 -1.250000000000e-01 1.200000000000e-01
-2.500000000000e-01 0.000000000000e+00 1.200000000000e-01
-1.250000000000e-01 0.000000000000e+00 1.200000000000e-01
0.000000000000e+00 0.000000000000e+00 1.200000000000e-01
1.250000000000e-01 0.000000000000e+00 1.200000000000e-01
2.500000000000e-01 0.000000000000e+00 1.200000000000e-01
-2.500000000000e-01 1.250000000000e-01 1.200000000000e-01
-1.250000000000e-01 1.250000000000e-01 1.200000000000e-01
0.000000000000e+00 1.250000000000e-01 1.200000000000e-01
1.250000000000e-01 1.250000000000e-01 1.200000000000e-01
2.500000000000e-01 1.250000000000e-01 1.200000000000e-01
-2.500000000000e-01 2.500000000000e-01 1.200000000000e-01
-1.250000000000e-01 2.500000000000e-01 1.200000000000e-01
0.000000000000e+00 2.500000000000e-01 1.200000000000e-01
1.250000000000e-01 2.500000000000e-01 1.200000000000e-01
2.500000000000e-01 2.500000000000e-01 1.200000000000e-01
-2.500000000000e-01 -2.500000000000e-01 1.800000000000e-01
-1.250000000000e-01 -2.500000000000e-01 1.800000000000e-01
0.000000000000e+00 -2.500000000000e-01 1.800000000000e-01
1.250000000000e-01 -2.500000000000e-01 1.800000000000e-01
2.500000000000e-01 -2.500000000000e-01 1.800000000000e-01
-2.500000000000e-01 -1.250000000000e-01 1.800000000000e-01
-1.250000000000e-01 -1.250000000000e-01 1.800000000000e-01
0.000000000000e+00 -1.250000000000e-01 1.800000000000e-01
1.250000000000e-01 -1.250000000000e-01 1.800000000000e-01
2.500000000000e-01 -1.250000000000e-01 1.800000000000e-01
-2.500000000000e-01 0.000000000000e+00 1.800000000000e-01
-1.250000000000e-01 0.000000000000e+00 1.800000000000e-01
0.000000000000e+00 0.000000000000e+00 1.800000000000e-01
1.250000000000e-01 0.000000000000e+00 1.800000000000e-01
2.500000000000e-01 0.000000000000e+00 1.800000000000e-01
-2.500000000000e-01 1.250000000000e-01 1.800000000000e-01
-1.250000000000e-01 1.250000000000e-01 1.800000000000e-01
0.000000000000e+00 1.250000000000e-01 1.800000000000e-01
1.250000000000e-01 1.250000000000e-01 1.800000000000e-01
2.500000000000e-01 1.250000000000e-01 1.800000000000e-01
-2.500000000000e-01 2.500000000000e-01 1.800000000000e-01
-1.250000000000e-01 2.500000000000e-01 1.800000000000e-01
0.000000000000e+00 2.500000000000e-01 1.800000000000e-01
1.250000000000e-01 2.500000000000e-01 1.800000000000e-01
2.500000000000e-01 2.500000000000e-01 1.800000000000e-01
-2.500000000000e-01 -2.500000000000e-01 2.400000000000e-01
-1.250000000000e-01 -2.500000000000e-01 2.400000000000e-01
0.000000000000e+00 -2.500000000000e-01 2.400000000000e-01
1.250000000000e-01 -2.500000000000e-01 2.400000000000e-01
2.500000000000e-01 -2.500000000000e-01 2.400000000000e-01
-2.500000000000e-01 -1.250000000000e-01 2.400000000000e-01
-1.250000000000e-01 -1.250000000000e-01 2.400000000000e-01
0.000000000000e+00 -1.250000000000e-01 2.400000000000e-01
1.250000000000e-01 -1.250000000000e-01 2.400000000000e-01
2.500000000000e-01 -1.250000000000e-01 2.400000000000e-01
-2.500000000000e-01 0.000000000000e+00 2.400000000000e-01
-1.250000000000e-01 0.000000000000e+00 2.400000000000e-01
0.000000000000e+00 0.000000000000e+00 2.400000000000e-01
1.250000000000e-01 0.000000000000e+00 2.400000000000e-01
2.500000000000e-01 0.000000000000e+00 2.400000000000e-01
-2.500000000000e-01 1.250000000000e-01 2.400000000000e-01
-1.250000000000e-01 1.250000000000e-01 2.400000000000e-01
0.000000000000e+00 1.250000000000e-01 2.400000000000e-01
1.250000000000e-01 1.250000000000e-01 2.400000000000e-01
2.500000000000e-01 1.250000000000e-01 2.400000000000e-01
-2.500000000000e-01 2.500000000000e-01 2.400000000000e-01
-1.250000000000e-01 2.500000000000e-01 2.400000000000e-01
0.000000000000e+00 2.500000000000e-01 2.400000000000e-01
1.250000000000e-01 2.500000000000e-01 2.400000000000e-01
2.500000000000e-01 2.500000000000e-01 2.400000000000e-01
-2.499999800610e-01 -2.499999801902e-01 2.503751659610e-01
-1.249999835306e-01 -2.499999826646e-01 2.503751675690e-01
2.008595221956e-10 -2.499999864057e-01 2.503751686807e-01
1.249999839323e-01 -2.499999826647e-01 2.503751679543e-01
2.499999804627e-01 -2.499999801904e-01 2.503751667317e-01
-2.499999825352e-01 -1.249999836598e-01 2.503751674461e-01
-1.249999837236e-01 -1.249999838529e-01 2.503751677385e-01
2.009242080005e-10 -1.249999853790e-01 2.503751681413e-01
1.249999841255e-01 -1.249999838531e-01 2.503751681239e-01
2.499999829371e-01 -1.249999836601e-01 2.503751682168e-01
-2.499999862763e-01 7.167560879569e-11 2.503751684350e-01
-1.249999852496e-01 7.161032931367e-11 2.503751680184e-01
2.009891466080e-10 7.154514631519e-11 2.503751682000e-01
1.249999856516e-01 7.148009906413e-11 2.503751684038e-01
2.499999866783e-01 7.141513849898e-11 2.503751692057e-01
-2.499999825351e-01 1.249999838032e-01 2.503751675857e-01
-1.249999837235e-01 1.249999839962e-01 2.503751678782e-01
2.010544593838e-10 1.249999855221e-01 2.503751682809e-01
1.249999841256e-01 1.249999839960e-01 2.503751682635e-01
2.499999829372e-01 1.249999838029e-01 2.503751683564e-01
-2.499999800607e-01 2.499999803335e-01 2.503751662403e-01
-1.249999835304e-01 2.499999828078e-01 2.503751678482e-01
2.011200152579e-10 2.499999865488e-01 2.503751689600e-01
1.249999839326e-01 2.499999828076e-01 2.503751682336e-01
2.499999804630e-01 2.499999803332e-01 2.503751670110e-01
-2.499999804218e-01 -2.499999804871e-01 3.153751627069e-01
-1.249999839522e-01 -2.499999823970e-01 3.153751661207e-01
1.006688027095e-10 -2.499999857122e-01 3.153751688809e-01
1.249999841535e-01 -2.499999823971e-01 3.153751665060e-01
2.499999806231e-01 -2.499999804873e-01 3.153751634776e-01
-2.499999823315e-01 -1.249999840174e-01 3.153751659978e-01
-1.249999839126e-01 -1.249999839780e-01 3.153751687243e-01
1.007334682903e-10 -1.249999852636e-01 3.153751711999e-01
1.249999841141e-01 -1.249999839782e-01 3.153751691097e-01
2.499999825330e-01 -1.249999840177e-01 3.153751667685e-01
-2.499999856467e-01 3.537259011078e-11 3.153751686351e-01
-1.249999851981e-01 3.530730368808e-11 3.153751710770e-01
1.007983791896e-10 3.524210819138e-11 3.153751735982e-01
1.249999853997e-01 3.517706591176e-11 3.153751714624e-01
2.499999858483e-01 3.511211124548e-11 3.153751694058e-01
-2.499999823314e-01 1.249999840882e-01 3.153751661375e-01
-1.249999839125e-01 1.249999840486e-01 3.153751688640e-01
1.008637120724e-10 1.249999853341e-01 3.153751713395e-01
1.249999841142e-01 1.249999840485e-01 3.153751692493e-01
2.499999825331e-01 1.249999840879e-01 3.153751669081e-01
-2.499999804215e-01 2.499999805578e-01 3.153751629862e-01
-1.249999839519e-01 2.499999824676e-01 3.153751663999e-01
1.009292890684e-10 2.499999857827e-01 3.153751691601e-01
1.249999841537e-01 2.499999824674e-01 3.153751667853e-01
2.499999806234e-01 2.499999805575e-01 3.153751637569e-01
-2.499999806196e-01 -2.499999806210e-01 3.803751579274e-01
-1.249999846648e-01 -2.499999820407e-01 3.803751636714e-01
4.778941623426e-13 -2.499999849125e-01 3.803751678988e-01
1.249999846657e-01 -2.499999820408e-01 3.803751640568e-01
2.499999806205e-01 -2.499999806213e-01 3.803751586981e-01
-2.499999820392e-01 -1.249999846662e-01 3.803751635486e-01
-1.249999846259e-01 -1.249999846275e-01 3.803751691356e-01
5.426226002144e-13 -1.249999857149e-01 3.803751734074e-01
1.249999846270e-01 -1.249999846276e-01 3.803751695209e-01
2.499999820403e-01 -1.249999846664e-01 3.803751643193e-01
-2.499999849108e-01 -9.304984797764e-13 3.803751676531e-01
-1.249999857132e-01 -9.957620865428e-13 3.803751732846e-01
6.075441093967e-13 -1.060955532552e-12 3.803751778616e-01
1.249999857145e-01 -1.126004729908e-12 3.803751736699e-01
2.499999849120e-01 -1.190981730388e-12 3.803751684238e-01
-2.499999820390e-01 1.249999846643e-01 3.803751636882e-01
-1.249999846258e-01 1.249999846255e-01 3.803751692752e-01
6.728617886625e-13 1.249999857128e-01 3.803751735470e-01
1.249999846271e-01 1.249999846253e-01 3.803751696606e-01
2.499999820404e-01 1.249999846641e-01 3.803751644589e-01
-2.499999806193e-01 2.499999806191e-01 3.803751582067e-01
-1.249999846645e-01 2.499999820387e-01 3.803751639507e-01
7.383749467398e-13 2.499999849103e-01 3.803751681780e-01
1.249999846660e-01 2.499999820386e-01 3.803751643360e-01
2.499999806208e-01 2.499999806189e-01 3.803751589774e-01
-2.499999822784e-01 -2.499999822159e-01 4.453751550033e-01
-1.249999867241e-01 -2.499999833924e-01 4.453751631852e-01
-9.971303984099e-11 -2.499999858403e-01 4.453751684792e-01
1.249999865246e-01 -2.499999833926e-01 4.453751635706e-01
2.499999820790e-01 -2.499999822162e-01 4.453751557740e-01
-2.499999834548e-01 -1.249999866616e-01 4.453751630624e-01
-1.249999867177e-01 -1.249999866553e-01 4.453751715519e-01
-9.964824668199e-11 -1.249999876370e-01 4.453751771587e-01
1.249999865184e-01 -1.249999866555e-01 4.453751719372e-01
2.499999832555e-01 -1.249999866618e-01 4.453751638331e-01
-2.499999859025e-01 -3.723359678337e-11 4.453751682334e-01
-1.249999876992e-01 -3.729883652767e-11 4.453751770358e-01
-9.958332053841e-11 -3.736403077883e-11 4.453751831359e-01
1.249999875001e-01 -3.742908301014e-11 4.453751774212e-01
2.499999857033e-01 -3.749408393762e-11 4.453751690041e-01
-2.499999834547e-01 1.249999865871e-01 4.453751632020e-01
-1.249999867175e-01 1.249999865807e-01 4.453751716915e-01
-9.951801126061e-11 1.249999875623e-01 4.453751772983e-01
1.249999865185e-01 1.249999865806e-01 4.453751720769e-01
2.499999832556e-01 1.249999865869e-01 4.453751639727e-01
-2.499999822781e-01 2.499999821414e-01 4.453751552825e-01
-1.249999867238e-01 2.499999833178e-01 4.453751634645e-01
-9.945256288441e-11 2.499999857655e-01 4.453751687584e-01
1.249999865249e-01 2.499999833177e-01 4.453751638498e-01
2.499999820792e-01 2.499999821412e-01 4.453751560532e-01
-2.499999864225e-01 -2.499999862961e-01 5.103751547745e-01
-1.249999904430e-01 -2.499999875108e-01 5.103751644373e-01
-1.999036863663e-10 -2.499999897817e-01 5.103751705096e-01
1.249999900432e-01 -2.499999875109e-01 5.103751648227e-01
2.499999860227e-01 -2.499999862964e-01 5.103751555452e-01
-2.499999876370e-01 -1.249999903167e-01 5.103751643145e-01
-1.249999906280e-01 -1.249999905017e-01 5.103751746434e-01
-1.998389387405e-10 -1.249999916264e-01 5.103751812323e-01
1.249999902283e-01 -1.249999905018e-01 5.103751750287e-01
2.499999872373e-01 -1.249999903169e-01 5.103751650852e-01
-2.499999899078e-01 -7.353658880549e-11 5.103751702639e-01
-1.249999917525e-01 -7.360184663844e-11 5.103751811094e-01
-1.997740641152e-10 -7.366705939646e-11 5.103751882713e-01
1.249999913530e-01 -7.373209701506e-11 5.103751814948e-01
2.499999895082e-01 -7.379708329097e-11 5.103751710346e-01
-2.499999876369e-01 1.249999901696e-01 5.103751644541e-01
-1.249999906278e-01 1.249999903545e-01 5.103751747830e-01
-1.997087060955e-10 1.249999914791e-01 5.103751813719e-01
1.249999902284e-01 1.249999903544e-01 5.103751751684e-01
2.499999872375e-01 1.249999901693e-01 5.103751652248e-01
-2.499999864222e-01 2.499999861491e-01 5.103751550537e-01
-1.249999904428e-01 2.499999873636e-01 5.103751647166e-01
-1.996432166773e-10 2.499999896343e-01 5.103751707889e-01
1.249999900435e-01 2.499999873634e-01 5.103751651019e-01
2.499999860230e-01 2.499999861488e-01 5.103751558244e-01
CELLS 128 1152
8 0 1 6 5 25 26 31 30
8 1 2 7 6 26 27 32 31
8 2 3 8 7 27 28 33 32
8 3 4 9 8 28 29 34 33
8 5 6 11 10 30 31 36 35
8 6 7 12 11 31 32 37 36
8 7 8 13 12 32 33 38 37
8 8 9 14 13 33 34 39 38
8 10 11 16 15 35 36 41 40
8 11 12 17 16 36 37 42 41
8 12 13 18 17 37 38 43 42
8 13 14 19 18 38 39 44 43
8 15 16 21 20 40 41 46 45
8 16 17 22 21 41 42 47 46
8 17 18 23 22 42 43 48 47
8 18 19 24 23 43 44 49 48
8 25 26 31 30 50 51 56 55
8 26 27 32 31 51 52 57 56
8 27 28 33 32 52 53 58 57
8 28 29 34 33 53 54 59 58
8 30 31 36 35 55 56 61 60
8 31 32 37 36 56 57 62 61
8 32 33 38 37 57 58 63 62
8 33 34 39 38 58 59 64 63
8 35 36 41 40 60 61 66 65
8 36 37 42 41 61 62 67 66
8 37 38 43 42 62 63 68 67
8 38 39 44 43 63 64 69 68
8 40 41 46 45 65 66 71 70
8 41 42 47 46 66 67 72 71
8 42 43 48 47 67 68 73 72
8 43 44 49 48 68 69 74 73
8 50 51 56 55 75 76 81 80
8 51 52 57 56 76 77 82 81
8 52 53 58 57 77 78 83 82
8 53 54 59 58 78 79 84 83
8 55 56 61 60 80 81 86 85
8 56 57 62 61 81 82 87 86
8 57 58 63 62 82 83 88 87
8 58 59 64 63 83 84 89 88
8 60 61 66 65 85 86 91 90
8 61 62 67 66 86 87 92 91
8 62 63 68 67 87 88 93 92
8 63 64 69 68 88 89 94 93
8 65 66 71 70 90 91 96 95
8 66 67 72 71 91 92 97 96
8 67 68 73 72 92 93 98 97
8 68 69 74 73 93 94 99 98
8 75 76 81 80 100 101 106 105
8 76 77 82 81 101 102 107 106
8 77 78 83 82 102 103 108 107
8 78 79 84 83 103 104 109 108
8 80 81 86 85 105 106 111 110
8 81 82 87 86 106 107 112 111
8 82 83 88 87 107 108 113 112
8 83 84 89 88 108 109 114 113
8 85 86 91 90 110 111 116 115
8 86 87 92 91 111 112 117 116
8 87 88 93 92 112 113 118 117
8 88 89 94 93 113 114 119 118
8 90 91 96 95 115 116 121 120
8 91 92 97 96 116 117 122 121
8 92 93 98 97 117 118 123 122
8 93 94 99 98 118 119 124 123
8 125 126 131 130 150 151 156 155
8 126 127 132 131 151 152 157 156
8 127 128 133 132 152 153 158 157
8 128 129 134 133 153 154 159 158
8 130 131 136 135 155 156 161 160
8 131 132 137 136 156 157 162 161
8 132 133 138 137 157 158 163 162
8 133 134 139 138 158 159 164 163
8 135 136 141 140 160 161 166 165
8 136 137 142 141 161 162 167 166
8 137 138 143 142 162 163 168 167
8 138 139 144 143 163 164 169 168
8 140 141 146 145 165 166 171 170
8 141 142 147 146 166 167 172 171
8 142 143 148 147 167 168 173 172
8 143 144 149 148 168 169 174 173
8 150 151 156 155 175 176 181 180
8 151 152 157 156 176 177 182 181
8 152 153 158 157 177 178 183 182
8 153 154 159 158 178 179 184 183
8 155 156 161 160 180 181 186 185
8 156 157 162 161 181 182 187 186
8 157 158 163 162 182 183 188 187
8 158 159 164 163 183 184 189 188
8 160 161 166 165 185 186 191 190
8 161 162 167 166 186 187 192 191
8 162 163 168 167 187 188 193 192
8 163 164 169 168 188 189 194 193
8 165 166 171 170 190 191 196 195
8 166 167 172 171 191 192 197 196
8 167 168 173 172 192 193 198 197
8 168 169 174 173 193 194 199 198
8 175 176 181 180 200 201 206 205
8 176 177 182 181 201 202 207 206
8 177 178 183 182 202 203 208 207
8 178 179 184 183 203 204 209 208
8 180 181 186 185 205 206 211 210
8 181 182 187 186 206 207 212 211
8 182 183 188 187 207 208 213 212
8 183 184 189 188 208 209 214 213
8 185 186 191 190 210 211 216 215
8 186 187 192 191 211 212 217 216
8 187 188 193 192 212 213 218 217
8 188 189 194 193 213 214 219 218
8 190 191 196 195 215 216 221 220
8 191 192 197 196 216 217 222 221
8 192 193 198 197 217 218 223 222
8 193 194 199 198 218 219 224 223
8 200 201 206 205 225 226 231 230
8 201 202 207 206 226 227 232 231
8 202 203 208 207 227 228 233 232
8 203 204 209 208 228 229 234 233
8 205 206 211 210 230 231 236 235
8 206 207 212 211 231 232 237 236
8 207 208 213 212 232 233 238 237
8 208 209 214 213 233 234 239 238
8 210 211 216 215 235 236 241 240
8 211 212 217 216 236 237 242 241
8 212 213 218 217 237 238 243 242
8 213 214 219 218 238 239 244 243
8 215 216 221 220 240 241 246 245
8 216 217 222 221 241 242 247 246
8 217 218 223 222 242 243 248 247
8 218 219 224 223 243 244 249 248
CELL_TYPES 128
12
12
12
12
12
12
12
12
12
12
12
12
12
12
12
12
12
12
12
12
12
12
12
12
12
12
12
12
12
12
12
12
12
12
12
12
12
12
12
12
12
12
12
12
12
12
12
12
12
12
12
12
12
12
12
12
12
12
12
12
12
12
12
12
12
12
12
12
12
12
12
12
12
12
12
12
12
12
12
12
12
12
12
12
12
12
12
12
12
12
12
12
12
12
12
12
12
12
12
12
12
12
12
12
12
12
12
12
12
12
12
12
12
12
12
12
12
12
12
12
12
12
12
12
12
12
12
12
POINT_DATA 250
VECTORS displacement float
0.000000000000e+00 0.000000000000e+00 0.000000000000e+00
0.000000000000e+00 0.000000000000e+00 0.000000000000e+00
0.000000000000e+00 0.000000000000e+00 0.000000000000e+00
0.000000000000e+00 0.000000000000e+00 0.000000000000e+00
0.000000000000e+00 0.000000000000e+00 0.000000000000e+00
0.000000000000e+00 0.000000000000e+00 0.000000000000e+00
0.000000000000e+00 0.000000000000e+00 0.000000000000e+00
0.000000000000e+00 0.000000000000e+00 0.000000000000e+00
0.000000000000e+00 0.000000000000e+00 0.000000000000e+00
0.000000000000e+00 0.000000000000e+00 0.000000000000e+00
0.000000000000e+00 0.000000000000e+00 0.000000000000e+00
0.000000000000e+00 0.000000000000e+00 0.000000000000e+00
0.000000000000e+00 0.000000000000e+00 0.000000000000e+00
0.000000000000e+00 0.000000000000e+00 0.000000000000e+00
0.000000000000e+00 0.000000000000e+00 0.000000000000e+00
0.000000000000e+00 0.000000000000e+00 0.000000000000e+00
0.000000000000e+00 0.000000000000e+00 0.000000000000e+00
0.000000000000e+00 0.000000000000e+00 0.000000000000e+00
0.000000000000e+00 0.000000000000e+00 0.000000000000e+00
0.000000000000e+00 0.000000000000e+00 0.000000000000e+00
0.000000000000e+00 0.000000000000e+00 0.000000000000e+00
0.000000000000e+00 0.000000000000e+00 0.000000000000e+00
0.000000000000e+00 0.000000000000e+00 0.000000000000e+00
0.000000000000e+00 0.000000000000e+00 0.000000000000e+00
0.000000000000e+00 0.000000000000e+00 0.000000000000e+00
0.000000000000e+00 0.000000000000e+00 0.000000000000e+00
0.000000000000e+00 0.000000000000e+00 0.000000000000e+00
0.000000000000e+00 0.000000000000e+00 0.000000000000e+00
0.000000000000e+00 0.000000000000e+00 0.000000000000e+00
0.000000000000e+00 0.000000000000e+00 0.000000000000e+00
0.000000000000e+00 0.000000000000e+00 0.000000000000e+00
0.000000000000e+00 0.000000000000e+00 0.000000000000e+00
0.000000000000e+00 0.000000000000e+00 0.000000000000e+00
0.000000000000e+00 0.000000000000e+00 0.000000000000e+00
0.000000000000e+00 0.000000000000e+00 0.000000000000e+00
0.000000000000e+00 0.000000000000e+00 0.000000000000e+00
0.000000000000e+00 0.000000000000e+00 0.000000000000e+00
0.000000000000e+00 0.000000000000e+00 0.000000000000e+00
0.000000000000e+00 0.000000000000e+00 0.000000000000e+00
0.000000000000e+00 0.000000000000e+00 0.000000000000e+00
0.000000000000e+00 0.000000000000e+00 0.000000000000e+00
0.000000000000e+00 0.000000000000e+00 0.000000000000e+00
0.000000000000e+00 0.000000000000e+00 0.000000000000e+00
0.000000000000e+00 0.000000000000e+00 0.000000000000e+00
0.000000000000e+00 0.000000000000e+00 0.000000000000e+00
0.000000000000e+00 0.000000000000e+00 0.000000000000e+00
0.000000000000e+00 0.000000000000e+00 0.000000000000e+00
0.000000000000e+00 0.000000000000e+00 0.000000000000e+00
0.000000000000e+00 0.000000000000e+00 0.000000000000e+00
0.000000000000e+00 0.000000000000e+00 0.000000000000e+00
0.000000000000e+00 0.000000000000e+00 0.000000000000e+00
0.000000000000e+00 0.000000000000e+00 0.000000000000e+00
0.000000000000e+00 0.000000000000e+00 0.000000000000e+00
0.000000000000e+00 0.000000000000e+00 0.000000000000e+00
0.000000000000e+00 0.000000000000e+00 0.000000000000e+00
0.000000000000e+00 0.000000000000e+00 0.000000000000e+00
0.000000000000e+00 0.000000000000e+00 0.000000000000e+00
0.000000000000e+00 0.000000000000e+00 0.000000000000e+00
0.000000000000e+00 0.000000000000e+00 0.000000000000e+00
0.000000000000e+00 0.000000000000e+00 0.000000000000e+00
0.000000000000e+00 0.000000000000e+00 0.000000000000e+00
0.000000000000e+00 0.000000000000e+00 0.000000000000e+00
0.000000000000e+00 0.000000000000e+00 0.000000000000e+00
0.000000000000e+00 0.000000000000e+00 0.000000000000e+00
0.000000000000e+00 0.000000000000e+00 0.000000000000e+00
0.000000000000e+00 0.000000000000e+00 0.000000000000e+00
0.000000000000e+00 0.000000000000e+00 0.000000000000e+00
0.000000000000e+00 0.000000000000e+00 0.000000000000e+00
0.000000000000e+00 0.000000000000e+00 0.000000000000e+00
0.000000000000e+00 0.000000000000e+00 0.000000000000e+00
0.000000000000e+00 0.000000000000e+00 0.000000000000e+00
0.000000000000e+00 0.000000000000e+00 0.000000000000e+00
0.000000000000e+00 0.000000000000e+00 0.000000000000e+00
0.000000000000e+00 0.000000000000e+00 0.000000000000e+00
0.000000000000e+00 0.000000000000e+00 0.000000000000e+00
0.000000000000e+00 0.000000000000e+00 0.000000000000e+00
0.000000000000e+00 0.000000000000e+00 0.000000000000e+00
0.000000000000e+00 0.000000000000e+00 0.000000000000e+00
0.000000000000e+00 0.000000000000e+00 0.000000000000e+00
0.000000000000e+00 0.000000000000e+00 0.000000000000e+00
0.000000000000e+00 0.000000000000e+00 0.000000000000e+00
0.000000000000e+00 0.000000000000e+00 0.000000000000e+00
0.000000000000e+00 0.000000000000e+00 0.000000000000e+00
0.000000000000e+00 0.000000000000e+00 0.000000000000e+00
0.000000000000e+00 0.000000000000e+00 0.000000000000e+00
0.000000000000e+00 0.000000000000e+00 0.000000000000e+00
0.000000000000e+00 0.000000000000e+00 0.000000000000e+00
0.000000000000e+00 0.000000000000e+00 0.000000000000e+00
0.000000000000e+00 0.000000000000e+00 0.000000000000e+00
0.000000000000e+00 0.000000000000e+00 0.000000000000e+00
0.000000000000e+00 0.000000000000e+00 0.000000000000e+00
0.000000000000e+00 0.000000000000e+00 0.000000000000e+00
0.000000000000e+00 0.000000000000e+00 0.000000000000e+00
0.000000000000e+00 0.000000000000e+00 0.000000000000e+00
0.000000000000e+00 0.000000000000e+00 0.000000000000e+00
0.000000000000e+00 0.000000000000e+00 0.000000000000e+00
0.000000000000e+00 0.000000000000e+00 0.000000000000e+00
0.000000000000e+00 0.000000000000e+00 0.000000000000e+00
0.000000000000e+00 0.000000000000e+00 0.000000000000e+00
0.000000000000e+00 0.000000000000e+00 0.000000000000e+00
0.000000000000e+00 0.000000000000e+00 0.000000000000e+00
0.000000000000e+00 0.000000000000e+00 0.000000000000e+00
0.000000000000e+00 0.000000000000e+00 0.000000000000e+00
0.000000000000e+00 0.000000000000e+00 0.000000000000e+00
0.000000000000e+00 0.000000000000e+00 0.000000000000e+00
0.000000000000e+00 0.000000000000e+00 0.000000000000e+00
0.000000000000e+00 0.000000000000e+00 0.000000000000e+00
0.000000000000e+00 0.000000000000e+00 0.000000000000e+00
0.000000000000e+00 0.000000000000e+00 0.000000000000e+00
0.000000000000e+00 0.000000000000e+00 0.000000000000e+00
0.000000000000e+00 0.000000000000e+00 0.000000000000e+00
0.000000000000e+00 0.000000000000e+00 0.000000000000e+00
0.000000000000e+00 0.000000000000e+00 0.000000000000e+00
0.000000000000e+00 0.000000000000e+00 0.000000000000e+00
0.000000000000e+00 0.000000000000e+00 0.000000000000e+00
0.000000000000e+00 0.000000000000e+00 0.000000000000e+00
0.000000000000e+00 0.000000000000e+00 0.000000000000e+00
0.000000000000e+00 0.000000000000e+00 0.000000000000e+00
0.000000000000e+00 0.000000000000e+00 0.000000000000e+00
0.000000000000e+00 0.000000000000e+00 0.000000000000e+00
0.000000000000e+00 0.000000000000e+00 0.000000000000e+00
0.000000000000e+00 0.000000000000e+00 0.000000000000e+00
0.000000000000e+00 0.000000000000e+00 0.000000000000e+00
0.000000000000e+00 0.000000000000e+00 0.000000000000e+00
0.000000000000e+00 0.000000000000e+00 0.000000000000e+00
1.993902735140e-08 1.980984244313e-08 -4.624834038959e-03
1.646937101191e-08 1.733544877917e-08 -4.624832431017e-03
2.008595221956e-10 1.359425515740e-08 -4.624831319272e-03
-1.606765142587e-08 1.733531961150e-08 -4.624832045668e-03
-1.953730690732e-08 1.980958373976e-08 -4.624833268261e-03
1.746476350813e-08 1.634018650171e-08 -4.624832553878e-03
1.627638216214e-08 1.614706784647e-08 -4.624832261471e-03
2.009242080005e-10 1.462095634550e-08 -4.624831858716e-03
-1.587453313941e-08 1.614693841127e-08 -4.624831876122e-03
-1.706291345152e-08 1.633992739489e-08 -4.624831783179e-03
1.372369971529e-08 7.167560879569e-11 -4.624831564995e-03
1.475040053718e-08 7.161032931367e-11 -4.624831981577e-03
2.009891466080e-10 7.154514631519e-11 -4.624831800023e-03
-1.434842161234e-08 7.148009906413e-11 -4.624831596228e-03
-1.332171961858e-08 7.141513849898e-11 -4.624830794295e-03
1.746489414464e-08 -1.619683508552e-08 -4.624832414252e-03
1.627651270027e-08 -1.600384696311e-08 -4.624832121844e-03
2.010544593838e-10 -1.447786582482e-08 -4.624831719089e-03
-1.587440317623e-08 -1.600397799257e-08 -4.624831736495e-03
-1.706278358539e-08 -1.619709692167e-08 -4.624831643552e-03
1.993928848806e-08 -1.966649071292e-08 -4.624833759705e-03
1.646963200020e-08 -1.719222751624e-08 -4.624832151762e-03
2.011200152579e-10 -1.345116420904e-08 -4.624831040018e-03
-1.606739142603e-08 -1.719235881744e-08 -4.624831766414e-03
-1.953704705486e-08 -1.966675295373e-08 -4.624832989007e-03
1.957823094643e-08 1.951293405089e-08 -4.624837293065e-03
1.604784919988e-08 1.760304462630e-08 -4.624833879315e-03
1.006688027095e-10 1.428778635489e-08 -4.624831119136e-03
-1.584651140444e-08 1.760291522954e-08 -4.624833493967e-03
-1.937689267940e-08 1.951267507659e-08 -4.624836522366e-03
1.766847134671e-08 1.598255255213e-08 -4.624834002177e-03
1.608739319343e-08 1.602196673375e-08 -4.624831275657e-03
1.007334682903e-10 1.473638939315e-08 -4.624828800097e-03
-1.588592598442e-08 1.602183716090e-08 -4.624830890308e-03
-1.746700348581e-08 1.598229326179e-08 -4.624833231478e-03
1.435334297912e-08 3.537259011078e-11 -4.624831364859e-03
1.480194576245e-08 3.530730368808e-11 -4.624828922958e-03
1.007983791896e-10 3.524210819138e-11 -4.624826401821e-03
-1.460034868599e-08 3.517706591176e-11 -4.624828537609e-03
-1.415174509830e-08 3.511211124548e-11 -4.624830594159e-03
1.766860189811e-08 -1.591180730291e-08 -4.624833862550e-03
1.608752368012e-08 -1.595135202702e-08 -4.624831136030e-03
1.008637120724e-10 -1.466590506228e-08 -4.624828660470e-03
-1.588579598070e-08 -1.595148292896e-08 -4.624830750681e-03
-1.746687354343e-08 -1.591206896965e-08 -4.624833091851e-03
1.957849198047e-08 -1.944218863021e-08 -4.624837013810e-03
1.604811011822e-08 -1.753242968032e-08 -4.624833600061e-03
1.009292890684e-10 -1.421730173449e-08 -4.624830839882e-03
-1.584625135156e-08 -1.753256075770e-08 -4.624833214713e-03
-1.937663274000e-08 -1.944245061039e-08 -4.624836243112e-03
1.938040668360e-08 1.937899780230e-08 -4.624842072577e-03
1.533522687476e-08 1.795929105069e-08 -4.624836328565e-03
4.778941623426e-13 1.508753598307e-08 -4.624832101219e-03
-1.533427105229e-08 1.795916146853e-08 -4.624835943217e-03
-1.937945062958e-08 1.937873859550e-08 -4.624841301879e-03
1.796082978004e-08 1.533381815538e-08 -4.624836451426e-03
1.537407456790e-08 1.537253599024e-08 -4.624830864410e-03
5.426226002144e-13 1.428508962149e-08 -4.624826592582e-03
-1.537298924298e-08 1.537240627623e-08 -4.624830479062e-03
-1.795974411573e-08 1.533355866746e-08 -4.624835680728e-03
1.508920467224e-08 -9.304984797764e-13 -4.624832346941e-03
1.428675816018e-08 -9.957620865428e-13 -4.624826715443e-03
6.075441093967e-13 -1.060955532552e-12 -4.624822138423e-03
-1.428554295216e-08 -1.126004729908e-12 -4.624826330094e-03
-1.508798899510e-08 -1.190981730388e-12 -4.624831576242e-03
1.796096026312e-08 -1.533567913993e-08 -4.624836311799e-03
1.537420500159e-08 -1.537452748556e-08 -4.624830724783e-03
6.728617886625e-13 -1.428721148909e-08 -4.624826452955e-03
-1.537285919577e-08 -1.537465825427e-08 -4.624830339435e-03
-1.795961411407e-08 -1.533594061791e-08 -4.624835541101e-03
1.938066763163e-08 -1.938085870213e-08 -4.624841793323e-03
1.533548772028e-08 -1.796128242345e-08 -4.624836049311e-03
7.383749467398e-13 -1.508965768070e-08 -4.624831821965e-03
-1.533401093596e-08 -1.796141332099e-08 -4.624835663963e-03
-1.937919061734e-08 -1.938112046103e-08 -4.624841022625e-03
1.772161385147e-08 1.778409301497e-08 -4.624844996734e-03
1.327593297644e-08 1.660755734172e-08 -4.624836814774e-03
-9.971303984099e-11 1.415973344679e-08 -4.624831520833e-03
-1.347535914785e-08 1.660742752861e-08 -4.624836429427e-03
-1.792104003585e-08 1.778383350162e-08 -4.624844226036e-03
1.654520806207e-08 1.333841221064e-08 -4.624836937636e-03
1.328232440055e-08 1.334467372048e-08 -4.624828448124e-03
-9.964824668199e-11 1.236298299341e-08 -4.624822841311e-03
-1.348162097557e-08 1.334454382605e-08 -4.624828062776e-03
-1.674450460022e-08 1.333815246689e-08 -4.624836166938e-03
1.409751419335e-08 -3.723359678337e-11 -4.624831766555e-03
1.230076369330e-08 -3.729883652767e-11 -4.624822964172e-03
-9.958332053841e-11 -3.736403077883e-11 -4.624816864071e-03
-1.249993037797e-08 -3.742908301014e-11 -4.624822578823e-03
-1.429668074362e-08 -3.749408393762e-11 -4.624830995856e-03
1.654533845936e-08 -1.341287943689e-08 -4.624836798009e-03
1.328245476604e-08 -1.341927142498e-08 -4.624828308497e-03
-9.951801126061e-11 -1.243771106819e-08 -4.624822701684e-03
-1.348149086778e-08 -1.341940202069e-08 -4.624827923149e-03
-1.674437452292e-08 -1.341314066683e-08 -4.624836027311e-03
1.772187468665e-08 -1.785856024610e-08 -4.624844717480e-03
1.327619372755e-08 -1.668215503433e-08 -4.624836535520e-03
-9.945256288441e-11 -1.423446147299e-08 -4.624831241578e-03
-1.347509894586e-08 -1.668228570982e-08 -4.624836150172e-03
-1.792077991749e-08 -1.785882170401e-08 -4.624843946783e-03
1.357749834704e-08 1.370386553309e-08 -4.624845225511e-03
9.556965271500e-09 1.248923764460e-08 -4.624835562660e-03
-1.999036863663e-10 1.021833415497e-08 -4.624829490372e-03
-9.956773070614e-09 1.248910748446e-08 -4.624835177312e-03
-1.397730655846e-08 1.370360556139e-08 -4.624844454814e-03
1.236300036191e-08 9.683332363282e-09 -4.624835685521e-03
9.372047732327e-09 9.498284896957e-09 -4.624825356615e-03
-1.998389387405e-10 8.373584961395e-09 -4.624818767690e-03
-9.771725994972e-09 9.498154770846e-09 -4.624824971267e-03
-1.276267897023e-08 9.683072286150e-09 -4.624834914823e-03
1.009222699038e-08 -7.353658880549e-11 -4.624829736094e-03
8.247477866935e-09 -7.360184663844e-11 -4.624818890551e-03
-1.997740641152e-10 -7.366705939646e-11 -4.624811728746e-03
-8.647026314667e-09 -7.373209701506e-11 -4.624818505202e-03
-1.049177567873e-08 -7.379708329097e-11 -4.624828965395e-03
1.236313062810e-08 -9.830405697473e-09 -4.624835545894e-03
9.372178011097e-09 -9.645488733066e-09 -4.624825216988e-03
-1.997087060955e-10 -8.520919198740e-09 -4.624818628063e-03
-9.771595810742e-09 -9.645619106903e-09 -4.624824831640e-03
-1.276254877744e-08 -9.830666606077e-09 -4.624834775196e-03
1.357775901104e-08 -1.385093901833e-08 -4.624844946257e-03
9.557225897323e-09 -1.263644160691e-08 -4.624835283405e-03
-1.996432166773e-10 -1.036566848378e-08 -4.624829211117e-03
-9.956512754284e-09 -1.263657194951e-08 -4.624834898058e-03
-1.397704627735e-08 -1.385120003059e-08 -4.624844175560e-03
SCALARS displacement_magnitude float 1
LOOKUP_TABLE default
0.000000000000e+00
0.000000000000e+00
0.000000000000e+00
0.000000000000e+00
0.000000000000e+00
0.000000000000e+00
0.000000000000e+00
0.000000000000e+00
0.000000000000e+00
0.000000000000e+00
0.000000000000e+00
0.000000000000e+00
0.000000000000e+00
0.000000000000e+00
0.000000000000e+00
0.000000000000e+00
0.000000000000e+00
0.000000000000e+00
0.000000000000e+00
0.000000000000e+00
0.000000000000e+00
0.000000000000e+00
0.000000000000e+00
0.000000000000e+00
0.000000000000e+00
0.000000000000e+00
0.000000000000e+00
0.000000000000e+00
0.000000000000e+00
0.000000000000e+00
0.000000000000e+00
0.000000000000e+00
0.000000000000e+00
0.000000000000e+00
0.000000000000e+00
0.000000000000e+00
0.000000000000e+00
0.000000000000e+00
0.000000000000e+00
0.000000000000e+00
0.000000000000e+00
0.000000000000e+00
0.000000000000e+00
0.000000000000e+00
0.000000000000e+00
0.000000000000e+00
0.000000000000e+00
0.000000000000e+00
0.000000000000e+00
0.000000000000e+00
0.000000000000e+00
0.000000000000e+00
0.000000000000e+00
0.000000000000e+00
0.000000000000e+00
0.000000000000e+00
0.000000000000e+00
0.000000000000e+00
0.000000000000e+00
0.000000000000e+00
0.000000000000e+00
0.000000000000e+00
0.000000000000e+00
0.000000000000e+00
0.000000000000e+00
0.000000000000e+00
0.000000000000e+00
0.000000000000e+00
0.000000000000e+00
0.000000000000e+00
0.000000000000e+00
0.000000000000e+00
0.000000000000e+00
0.000000000000e+00
0.000000000000e+00
0.000000000000e+00
0.000000000000e+00
0.000000000000e+00
0.000000000000e+00
0.000000000000e+00
0.000000000000e+00
0.000000000000e+00
0.000000000000e+00
0.000000000000e+00
0.000000000000e+00
0.000000000000e+00
0.000000000000e+00
0.000000000000e+00
0.000000000000e+00
0.000000000000e+00
0.000000000000e+00
0.000000000000e+00
0.000000000000e+00
0.000000000000e+00
0.000000000000e+00
0.000000000000e+00
0.000000000000e+00
0.000000000000e+00
0.000000000000e+00
0.000000000000e+00
0.000000000000e+00
0.000000000000e+00
0.000000000000e+00
0.000000000000e+00
0.000000000000e+00
0.000000000000e+00
0.000000000000e+00
0.000000000000e+00
0.000000000000e+00
0.000000000000e+00
0.000000000000e+00
0.000000000000e+00
0.000000000000e+00
0.000000000000e+00
0.000000000000e+00
0.000000000000e+00
0.000000000000e+00
0.000000000000e+00
0.000000000000e+00
0.000000000000e+00
0.000000000000e+00
0.000000000000e+00
0.000000000000e+00
0.000000000000e+00
0.000000000000e+00
4.624834039045e-03
4.624832431079e-03
4.624831319292e-03
4.624832045729e-03
4.624833268345e-03
4.624832553940e-03
4.624832261527e-03
4.624831858740e-03
4.624831876177e-03
4.624831783240e-03
4.624831565015e-03
4.624831981601e-03
4.624831800023e-03
4.624831596251e-03
4.624830794315e-03
4.624832414313e-03
4.624832121900e-03
4.624831719112e-03
4.624831736550e-03
4.624831643612e-03
4.624833759790e-03
4.624832151824e-03
4.624831040037e-03
4.624831766474e-03
4.624832989090e-03
4.624837293147e-03
4.624833879376e-03
4.624831119158e-03
4.624833494028e-03
4.624836522448e-03
4.624834002238e-03
4.624831275713e-03
4.624828800120e-03
4.624830890363e-03
4.624833231538e-03
4.624831364881e-03
4.624828922981e-03
4.624826401821e-03
4.624828537632e-03
4.624830594181e-03
4.624833862611e-03
4.624831136086e-03
4.624828660493e-03
4.624830750736e-03
4.624833091911e-03
4.624837013893e-03
4.624833600122e-03
4.624830839904e-03
4.624833214773e-03
4.624836243194e-03
4.624842072658e-03
4.624836328625e-03
4.624832101244e-03
4.624835943277e-03
4.624841301960e-03
4.624836451486e-03
4.624830864461e-03
4.624826592604e-03
4.624830479113e-03
4.624835680788e-03
4.624832346966e-03
4.624826715465e-03
4.624822138423e-03
4.624826330116e-03
4.624831576267e-03
4.624836311860e-03
4.624830724835e-03
4.624826452977e-03
4.624830339486e-03
4.624835541161e-03
4.624841793404e-03
4.624836049371e-03
4.624831821989e-03
4.624835664023e-03
4.624841022706e-03
4.624844996802e-03
4.624836814823e-03
4.624831520854e-03
4.624836429476e-03
4.624844226105e-03
4.624836937685e-03
4.624828448162e-03
4.624822841327e-03
4.624828062815e-03
4.624836166987e-03
4.624831766576e-03
4.624822964188e-03
4.624816864071e-03
4.624822578840e-03
4.624830995878e-03
4.624836798058e-03
4.624828308536e-03
4.624822701700e-03
4.624827923188e-03
4.624836027361e-03
4.624844717548e-03
4.624836535569e-03
4.624831241600e-03
4.624836150222e-03
4.624843946852e-03
4.624845225551e-03
4.624835562686e-03
4.624829490383e-03
4.624835177339e-03
4.624844454855e-03
4.624835685548e-03
4.624825356634e-03
4.624818767698e-03
4.624824971287e-03
4.624834914851e-03
4.624829736105e-03
4.624818890558e-03
4.624811728746e-03
4.624818505210e-03
4.624828965407e-03
4.624835545921e-03
4.624825217008e-03
4.624818628071e-03
4.624824831660e-03
4.624834775224e-03
4.624844946298e-03
4.624835283433e-03
4.624829211129e-03
4.624834898086e-03
4.624844175602e-03
CELL_DATA 128
SCALARS displacement_magnitude float 1
LOOKUP_TABLE default
0.000000000000e+00
0.000000000000e+00
0.000000000000e+00
0.000000000000e+00
0.000000000000e+00
0.000000000000e+00
0.000000000000e+00
0.000000000000e+00
0.000000000000e+00
0.000000000000e+00
0.000000000000e+00
0.000000000000e+00
0.000000000000e+00
0.000000000000e+00
0.000000000000e+00
0.000000000000e+00
0.000000000000e+00
0.000000000000e+00
0.000000000000e+00
0.000000000000e+00
0.000000000000e+00
0.000000000000e+00
0.000000000000e+00
0.000000000000e+00
0.000000000000e+00
0.000000000000e+00
0.000000000000e+00
0.000000000000e+00
0.000000000000e+00
0.000000000000e+00
0.000000000000e+00
0.000000000000e+00
0.000000000000e+00
0.000000000000e+00
0.000000000000e+00
0.000000000000e+00
0.000000000000e+00
0.000000000000e+00
0.000000000000e+00
0.000000000000e+00
0.000000000000e+00
0.000000000000e+00
0.000000000000e+00
0.000000000000e+00
0.000000000000e+00
0.000000000000e+00
0.000000000000e+00
0.000000000000e+00
0.000000000000e+00
0.000000000000e+00
0.000000000000e+00
0.000000000000e+00
0.000000000000e+00
0.000000000000e+00
0.000000000000e+00
0.000000000000e+00
0.000000000000e+00
0.000000000000e+00
0.000000000000e+00
0.000000000000e+00
0.000000000000e+00
0.000000000000e+00
0.000000000000e+00
0.000000000000e+00
4.624833467008e-03
4.624831618126e-03
4.624831425451e-03
4.624832888983e-03
4.624831740987e-03
4.624830412816e-03
4.624830220141e-03
4.624831162962e-03
4.624831671173e-03
4.624830343002e-03
4.624830150327e-03
4.624831093148e-03
4.624833257567e-03
4.624831408685e-03
4.624831216010e-03
4.624832679542e-03
4.624835270963e-03
4.624831370163e-03
4.624831177488e-03
4.624834692939e-03
4.624831493024e-03
4.624827713949e-03
4.624827521274e-03
4.624830915000e-03
4.624831423210e-03
4.624827644135e-03
4.624827451461e-03
4.624830845186e-03
4.624835061523e-03
4.624831160722e-03
4.624830968048e-03
4.624834483499e-03
4.624836614338e-03
4.624830689013e-03
4.624830496339e-03
4.624836036315e-03
4.624830811874e-03
4.624824678588e-03
4.624824485914e-03
4.624830233851e-03
4.624830742060e-03
4.624824608774e-03
4.624824416100e-03
4.624830164037e-03
4.624836404898e-03
4.624830479572e-03
4.624830286898e-03
4.624835826875e-03
4.624836128487e-03
4.624828600321e-03
4.624828407647e-03
4.624835550464e-03
4.624828723182e-03
4.624820732673e-03
4.624820539999e-03
4.624828145159e-03
4.624828653369e-03
4.624820662860e-03
4.624820470186e-03
4.624828075346e-03
4.624835919046e-03
4.624828390881e-03
4.624828198207e-03
4.624835341024e-03
SCALARS engineering_strain_norm float 1
LOOKUP_TABLE default
0.000000000000e+00
0.000000000000e+00
0.000000000000e+00
0.000000000000e+00
0.000000000000e+00
0.000000000000e+00
0.000000000000e+00
0.000000000000e+00
0.000000000000e+00
0.000000000000e+00
0.000000000000e+00
0.000000000000e+00
0.000000000000e+00
0.000000000000e+00
0.000000000000e+00
0.000000000000e+00
0.000000000000e+00
0.000000000000e+00
0.000000000000e+00
0.000000000000e+00
0.000000000000e+00
0.000000000000e+00
0.000000000000e+00
0.000000000000e+00
0.000000000000e+00
0.000000000000e+00
0.000000000000e+00
0.000000000000e+00
0.000000000000e+00
0.000000000000e+00
0.000000000000e+00
0.000000000000e+00
0.000000000000e+00
0.000000000000e+00
0.000000000000e+00
0.000000000000e+00
0.000000000000e+00
0.000000000000e+00
0.000000000000e+00
0.000000000000e+00
0.000000000000e+00
0.000000000000e+00
0.000000000000e+00
0.000000000000e+00
0.000000000000e+00
0.000000000000e+00
0.000000000000e+00
0.000000000000e+00
0.000000000000e+00
0.000000000000e+00
0.000000000000e+00
0.000000000000e+00
0.000000000000e+00
0.000000000000e+00
0.000000000000e+00
0.000000000000e+00
0.000000000000e+00
0.000000000000e+00
0.000000000000e+00
0.000000000000e+00
0.000000000000e+00
0.000000000000e+00
0.000000000000e+00
0.000000000000e+00
4.280600783540e-08
1.316106305981e-07
1.316106278012e-07
4.280600808009e-08
1.316106274263e-07
1.808503016845e-07
1.808503010300e-07
1.316106347706e-07
1.316106264022e-07
1.808503014523e-07
1.808503007824e-07
1.316106337284e-07
4.280600792932e-08
1.316106332618e-07
1.316106304406e-07
4.280600816109e-08
6.573714880763e-08
1.324753821567e-07
1.324753829534e-07
6.573715242570e-08
1.324753803877e-07
1.772911051587e-07
1.772911063449e-07
1.324753867921e-07
1.324753806839e-07
1.772911056057e-07
1.772911067669e-07
1.324753870444e-07
6.573715013226e-08
1.324753844949e-07
1.324753852515e-07
6.573715372045e-08
5.808513696973e-08
1.257234572646e-07
1.257234595243e-07
5.808513953253e-08
1.257234564591e-07
1.711422134409e-07
1.711422155925e-07
1.257234612418e-07
1.257234572910e-07
1.711422142415e-07
1.711422163826e-07
1.257234620207e-07
5.808513791901e-08
1.257234590313e-07
1.257234612404e-07
5.808514041054e-08
5.050961062594e-08
1.058639091187e-07
1.058639117338e-07
5.050961193492e-08
1.058639088653e-07
1.419414061572e-07
1.419414085864e-07
1.058639121638e-07
1.058639098318e-07
1.419414070510e-07
1.419414094885e-07
1.058639131150e-07
5.050961110944e-08
1.058639103364e-07
1.058639129383e-07
5.050961239753e-08
SCALARS von_mises float 1
LOOKUP_TABLE default
0.000000000000e+00
0.000000000000e+00
0.000000000000e+00
0.000000000000e+00
0.000000000000e+00
0.000000000000e+00
0.000000000000e+00
0.000000000000e+00
0.000000000000e+00
0.000000000000e+00
0.000000000000e+00
0.000000000000e+00
0.000000000000e+00
0.000000000000e+00
0.000000000000e+00
0.000000000000e+00
0.000000000000e+00
0.000000000000e+00
0.000000000000e+00
0.000000000000e+00
0.000000000000e+00
0.000000000000e+00
0.000000000000e+00
0.000000000000e+00
0.000000000000e+00
0.000000000000e+00
0.000000000000e+00
0.000000000000e+00
0.000000000000e+00
0.000000000000e+00
0.000000000000e+00
0.000000000000e+00
0.000000000000e+00
0.000000000000e+00
0.000000000000e+00
0.000000000000e+00
0.000000000000e+00
0.000000000000e+00
0.000000000000e+00
0.000000000000e+00
0.000000000000e+00
0.000000000000e+00
0.000000000000e+00
0.000000000000e+00
0.000000000000e+00
0.000000000000e+00
0.000000000000e+00
0.000000000000e+00
0.000000000000e+00
0.000000000000e+00
0.000000000000e+00
0.000000000000e+00
0.000000000000e+00
0.000000000000e+00
0.000000000000e+00
0.000000000000e+00
0.000000000000e+00
0.000000000000e+00
0.000000000000e+00
0.000000000000e+00
0.000000000000e+00
0.000000000000e+00
0.000000000000e+00
0.000000000000e+00
1.729916519961e-03
1.038630866265e-02
1.038630833564e-02
1.729916491090e-03
1.038630834765e-02
1.318545067692e-02
1.318545055164e-02
1.038630902804e-02
1.038630822756e-02
1.318545063278e-02
1.318545050571e-02
1.038630890691e-02
1.729916510370e-03
1.038630890971e-02
1.038630858075e-02
1.729916479106e-03
3.085169817817e-03
9.594259182424e-03
9.594259113779e-03
3.085170086377e-03
9.594259002314e-03
1.217113658542e-02
1.217113656717e-02
9.594259504901e-03
9.594258977662e-03
1.217113658013e-02
1.217113655797e-02
9.594259476549e-03
3.085169916177e-03
9.594259366217e-03
9.594259294701e-03
3.085170182437e-03
3.264140898364e-03
9.912742323261e-03
9.912742407554e-03
3.264140970720e-03
9.912742237465e-03
1.324158000436e-02
1.324158010395e-02
9.912742591733e-03
9.912742267922e-03
1.324158004290e-02
1.324158014128e-02
9.912742619353e-03
3.264140926987e-03
9.912742456241e-03
9.912742536246e-03
3.264140991721e-03
4.071836451332e-03
9.005535674695e-03
9.005535866084e-03
4.071836546264e-03
9.005535645395e-03
1.174151954761e-02
1.174151971639e-02
9.005535917542e-03
9.005535716282e-03
1.174151961016e-02
1.174151977845e-02
9.005535986781e-03
4.071836486376e-03
9.005535775415e-03
9.005535965085e-03
4.071836579430e-03
SCALARS sdf_gap float 1
LOOKUP_TABLE default
0.000000000000e+00
0.000000000000e+00
0.000000000000e+00
0.000000000000e+00
0.000000000000e+00
0.000000000000e+00
0.000000000000e+00
0.000000000000e+00
0.000000000000e+00
0.000000000000e+00
0.000000000000e+00
0.000000000000e+00
0.000000000000e+00
0.000000000000e+00
0.000000000000e+00
0.000000000000e+00
0.000000000000e+00
0.000000000000e+00
0.000000000000e+00
0.000000000000e+00
0.000000000000e+00
0.000000000000e+00
0.000000000000e+00
0.000000000000e+00
0.000000000000e+00
0.000000000000e+00
0.000000000000e+00
0.000000000000e+00
0.000000000000e+00
0.000000000000e+00
0.000000000000e+00
0.000000000000e+00
0.000000000000e+00
0.000000000000e+00
0.000000000000e+00
0.000000000000e+00
0.000000000000e+00
0.000000000000e+00
0.000000000000e+00
0.000000000000e+00
0.000000000000e+00
0.000000000000e+00
0.000000000000e+00
0.000000000000e+00
0.000000000000e+00
0.000000000000e+00
0.000000000000e+00
0.000000000000e+00
0.000000000000e+00
0.000000000000e+00
0.000000000000e+00
0.000000000000e+00
0.000000000000e+00
0.000000000000e+00
0.000000000000e+00
0.000000000000e+00
0.000000000000e+00
0.000000000000e+00
0.000000000000e+00
0.000000000000e+00
0.000000000000e+00
0.000000000000e+00
0.000000000000e+00
0.000000000000e+00
1.037516717867e-02
1.037516803238e-02
1.037516822506e-02
1.037516775669e-02
1.037516790952e-02
1.037516802455e-02
1.037516821723e-02
1.037516848754e-02
1.037516797933e-02
1.037516809437e-02
1.037516828704e-02
1.037516855736e-02
1.037516738811e-02
1.037516824182e-02
1.037516843450e-02
1.037516796613e-02
0.000000000000e+00
0.000000000000e+00
0.000000000000e+00
0.000000000000e+00
0.000000000000e+00
0.000000000000e+00
0.000000000000e+00
0.000000000000e+00
0.000000000000e+00
0.000000000000e+00
0.000000000000e+00
0.000000000000e+00
0.000000000000e+00
0.000000000000e+00
0.000000000000e+00
0.000000000000e+00
0.000000000000e+00
0.000000000000e+00
0.000000000000e+00
0.000000000000e+00
0.000000000000e+00
0.000000000000e+00
0.000000000000e+00
0.000000000000e+00
0.000000000000e+00
0.000000000000e+00
0.000000000000e+00
0.000000000000e+00
0.000000000000e+00
0.000000000000e+00
0.000000000000e+00
0.000000000000e+00
0.000000000000e+00
0.000000000000e+00
0.000000000000e+00
0.000000000000e+00
0.000000000000e+00
0.000000000000e+00
0.000000000000e+00
0.000000000000e+00
0.000000000000e+00
0.000000000000e+00
0.000000000000e+00
0.000000000000e+00
0.000000000000e+00
0.000000000000e+00
0.000000000000e+00
0.000000000000e+00
SCALARS contact_pressure float 1
LOOKUP_TABLE default
0.000000000000e+00
0.000000000000e+00
0.000000000000e+00
0.000000000000e+00
0.000000000000e+00
0.000000000000e+00
0.000000000000e+00
0.000000000000e+00
0.000000000000e+00
0.000000000000e+00
0.000000000000e+00
0.000000000000e+00
0.000000000000e+00
0.000000000000e+00
0.000000000000e+00
0.000000000000e+00
0.000000000000e+00
0.000000000000e+00
0.000000000000e+00
0.000000000000e+00
0.000000000000e+00
0.000000000000e+00
0.000000000000e+00
0.000000000000e+00
0.000000000000e+00
0.000000000000e+00
0.000000000000e+00
0.000000000000e+00
0.000000000000e+00
0.000000000000e+00
0.000000000000e+00
0.000000000000e+00
0.000000000000e+00
0.000000000000e+00
0.000000000000e+00
0.000000000000e+00
0.000000000000e+00
0.000000000000e+00
0.000000000000e+00
0.000000000000e+00
0.000000000000e+00
0.000000000000e+00
0.000000000000e+00
0.000000000000e+00
0.000000000000e+00
0.000000000000e+00
0.000000000000e+00
0.000000000000e+00
0.000000000000e+00
0.000000000000e+00
0.000000000000e+00
0.000000000000e+00
0.000000000000e+00
0.000000000000e+00
0.000000000000e+00
0.000000000000e+00
0.000000000000e+00
0.000000000000e+00
0.000000000000e+00
0.000000000000e+00
0.000000000000e+00
0.000000000000e+00
0.000000000000e+00
0.000000000000e+00
0.000000000000e+00
0.000000000000e+00
0.000000000000e+00
0.000000000000e+00
0.000000000000e+00
0.000000000000e+00
0.000000000000e+00
0.000000000000e+00
0.000000000000e+00
0.000000000000e+00
0.000000000000e+00
0.000000000000e+00
0.000000000000e+00
0.000000000000e+00
0.000000000000e+00
0.000000000000e+00
0.000000000000e+00
0.000000000000e+00
0.000000000000e+00
0.000000000000e+00
0.000000000000e+00
0.000000000000e+00
0.000000000000e+00
0.000000000000e+00
0.000000000000e+00
0.000000000000e+00
0.000000000000e+00
0.000000000000e+00
0.000000000000e+00
0.000000000000e+00
0.000000000000e+00
0.000000000000e+00
0.000000000000e+00
0.000000000000e+00
0.000000000000e+00
0.000000000000e+00
0.000000000000e+00
0.000000000000e+00
0.000000000000e+00
0.000000000000e+00
0.000000000000e+00
0.000000000000e+00
0.000000000000e+00
0.000000000000e+00
0.000000000000e+00
0.000000000000e+00
0.000000000000e+00
0.000000000000e+00
0.000000000000e+00
0.000000000000e+00
0.000000000000e+00
0.000000000000e+00
0.000000000000e+00
0.000000000000e+00
0.000000000000e+00
0.000000000000e+00
0.000000000000e+00
0.000000000000e+00
0.000000000000e+00
0.000000000000e+00
0.000000000000e+00
0.000000000000e+00
0.000000000000e+00
0.000000000000e+00
SCALARS active_contact float 1
LOOKUP_TABLE default
0.000000000000e+00
0.000000000000e+00
0.000000000000e+00
0.000000000000e+00
0.000000000000e+00
0.000000000000e+00
0.000000000000e+00
0.000000000000e+00
0.000000000000e+00
0.000000000000e+00
0.000000000000e+00
0.000000000000e+00
0.000000000000e+00
0.000000000000e+00
0.000000000000e+00
0.000000000000e+00
0.000000000000e+00
0.000000000000e+00
0.000000000000e+00
0.000000000000e+00
0.000000000000e+00
0.000000000000e+00
0.000000000000e+00
0.000000000000e+00
0.000000000000e+00
0.000000000000e+00
0.000000000000e+00
0.000000000000e+00
0.000000000000e+00
0.000000000000e+00
0.000000000000e+00
0.000000000000e+00
0.000000000000e+00
0.000000000000e+00
0.000000000000e+00
0.000000000000e+00
0.000000000000e+00
0.000000000000e+00
0.000000000000e+00
0.000000000000e+00
0.000000000000e+00
0.000000000000e+00
0.000000000000e+00
0.000000000000e+00
0.000000000000e+00
0.000000000000e+00
0.000000000000e+00
0.000000000000e+00
0.000000000000e+00
0.000000000000e+00
0.000000000000e+00
0.000000000000e+00
0.000000000000e+00
0.000000000000e+00
0.000000000000e+00
0.000000000000e+00
0.000000000000e+00
0.000000000000e+00
0.000000000000e+00
0.000000000000e+00
0.000000000000e+00
0.000000000000e+00
0.000000000000e+00
0.000000000000e+00
0.000000000000e+00
0.000000000000e+00
0.000000000000e+00
0.000000000000e+00
0.000000000000e+00
0.000000000000e+00
0.000000000000e+00
0.000000000000e+00
0.000000000000e+00
0.000000000000e+00
0.000000000000e+00
0.000000000000e+00
0.000000000000e+00
0.000000000000e+00
0.000000000000e+00
0.000000000000e+00
0.000000000000e+00
0.000000000000e+00
0.000000000000e+00
0.000000000000e+00
0.000000000000e+00
0.000000000000e+00
0.000000000000e+00
0.000000000000e+00
0.000000000000e+00
0.000000000000e+00
0.000000000000e+00
0.000000000000e+00
0.000000000000e+00
0.000000000000e+00
0.000000000000e+00
0.000000000000e+00
0.000000000000e+00
0.000000000000e+00
0.000000000000e+00
0.000000000000e+00
0.000000000000e+00
0.000000000000e+00
0.000000000000e+00
0.000000000000e+00
0.000000000000e+00
0.000000000000e+00
0.000000000000e+00
0.000000000000e+00
0.000000000000e+00
0.000000000000e+00
0.000000000000e+00
0.000000000000e+00
0.000000000000e+00
0.000000000000e+00
0.000000000000e+00
0.000000000000e+00
0.000000000000e+00
0.000000000000e+00
0.000000000000e+00
0.000000000000e+00
0.000000000000e+00
0.000000000000e+00
0.000000000000e+00
0.000000000000e+00
0.000000000000e+00
0.000000000000e+00
0.000000000000e+00
0.000000000000e+00
