# vtk DataFile Version 3.0
SFC long-time C3D8 dynamic frame 83 t=1.660000000000e+00
ASCII
DATASET UNSTRUCTURED_GRID
POINTS 250 float
-2.500000000000e-01 -2.500000000000e-01 0.000000000000e+00
-1.250000000000e-01 -2.500000000000e-01 0.000000000000e+00
0.000000000000e+00 -2.500000000000e-01 0.000000000000e+00
1.250000000000e-01 -2.500000000000e-01 0.000000000000e+00
2.500000000000e-01 -2.500000000000e-01 0.000000000000e+00
-2.500000000000e-01 -1.250000000000e-01 0.000000000000e+00
-1.250000000000e-01 -1.250000000000e-01 0.000000000000e+00
0.000000000000e+00 -1.250000000000e-01 0.000000000000e+00
1.250000000000e-01 -1.250000000000e-01 0.000000000000e+00
2.500000000000e-01 -1.250000000000e-01 0.000000000000e+00
-2.500000000000e-01 0.000000000000e+00 0.000000000000e+00
-1.250000000000e-01 0.000000000000e+00 0.000000000000e+00
0.000000000000e+00 0.000000000000e+00 0.000000000000e+00
1.250000000000e-01 0.000000000000e+00 0.000000000000e+00
2.500000000000e-01 0.000000000000e+00 0.000000000000e+00
-2.500000000000e-01 1.250000000000e-01 0.000000000000e+00
-1.250000000000e-01 1.250000000000e-01 0.000000000000e+00
0.000000000000e+00 1.250000000000e-01 0.000000000000e+00
1.250000000000e-01 1.250000000000e-01 0.000000000000e+00
2.500000000000e-01 1.250000000000e-01 0.000000000000e+00
-2.500000000000e-01 2.500000000000e-01 0.000000000000e+00
-1.250000000000e-01 2.500000000000e-01 0.000000000000e+00
0.000000000000e+00 2.500000000000e-01 0.000000000000e+00
1.250000000000e-01 2.500000000000e-01 0.000000000000e+00
2.500000000000e-01 2.500000000000e-01 0.000000000000e+00
-2.500000000000e-01 -2.500000000000e-01 6.000000000000e-02
-1.250000000000e-01 -2.500000000000e-01 6.000000000000e-02
0.000000000000e+00 -2.500000000000e-01 6.000000000000e-02
1.250000000000e-01 -2.500000000000e-01 6.000000000000e-02
2.500000000000e-01 -2.500000000000e-01 6.000000000000e-02
-2.500000000000e-01 -1.250000000000e-01 6.000000000000e-02
-1.250000000000e-01 -1.250000000000e-01 6.000000000000e-02
0.000000000000e+00 -1.250000000000e-01 6.000000000000e-02
1.250000000000e-01 -1.250000000000e-01 6.000000000000e-02
2.500000000000e-01 -1.250000000000e-01 6.000000000000e-02
-2.500000000000e-01 0.000000000000e+00 6.000000000000e-02
-1.250000000000e-01 0.000000000000e+00 6.000000000000e-02
0.000000000000e+00 0.000000000000e+00 6.000000000000e-02
1.250000000000e-01 0.000000000000e+00 6.000000000000e-02
2.500000000000e-01 0.000000000000e+00 6.000000000000e-02
-2.500000000000e-01 1.250000000000e-01 6.000000000000e-02
-1.250000000000e-01 1.250000000000e-01 6.000000000000e-02
0.000000000000e+00 1.250000000000e-01 6.000000000000e-02
1.250000000000e-01 1.250000000000e-01 6.000000000000e-02
2.500000000000e-01 1.250000000000e-01 6.000000000000e-02
-2.500000000000e-01 2.500000000000e-01 6.000000000000e-02
-1.250000000000e-01 2.500000000000e-01 6.000000000000e-02
0.000000000000e+00 2.500000000000e-01 6.000000000000e-02
1.250000000000e-01 2.500000000000e-01 6.000000000000e-02
2.500000000000e-01 2.500000000000e-01 6.000000000000e-02
-2.500000000000e-01 -2.500000000000e-01 1.200000000000e-01
-1.250000000000e-01 -2.500000000000e-01 1.200000000000e-01
0.000000000000e+00 -2.500000000000e-01 1.200000000000e-01
1.250000000000e-01 -2.500000000000e-01 1.200000000000e-01
2.500000000000e-01 -2.500000000000e-01 1.200000000000e-01
-2.500000000000e-01 -1.250000000000e-01 1.200000000000e-01
-1.250000000000e-01 -1.250000000000e-01 1.200000000000e-01
0.000000000000e+00 -1.250000000000e-01 1.200000000000e-01
1.250000000000e-01 -1.250000000000e-01 1.200000000000e-01
2.500000000000e-01 -1.250000000000e-01 1.200000000000e-01
-2.500000000000e-01 0.000000000000e+00 1.200000000000e-01
-1.250000000000e-01 0.000000000000e+00 1.200000000000e-01
0.000000000000e+00 0.000000000000e+00 1.200000000000e-01
1.250000000000e-01 0.000000000000e+00 1.200000000000e-01
2.500000000000e-01 0.000000000000e+00 1.200000000000e-01
-2.500000000000e-01 1.250000000000e-01 1.200000000000e-01
-1.250000000000e-01 1.250000000000e-01 1.200000000000e-01
0.000000000000e+00 1.250000000000e-01 1.200000000000e-01
1.250000000000e-01 1.250000000000e-01 1.200000000000e-01
2.500000000000e-01 1.250000000000e-01 1.200000000000e-01
-2.500000000000e-01 2.500000000000e-01 1.200000000000e-01
-1.250000000000e-01 2.500000000000e-01 1.200000000000e-01
0.000000000000e+00 2.500000000000e-01 1.200000000000e-01
1.250000000000e-01 2.500000000000e-01 1.200000000000e-01
2.500000000000e-01 2.500000000000e-01 1.200000000000e-01
-2.500000000000e-01 -2.500000000000e-01 1.800000000000e-01
-1.250000000000e-01 -2.500000000000e-01 1.800000000000e-01
0.000000000000e+00 -2.500000000000e-01 1.800000000000e-01
1.250000000000e-01 -2.500000000000e-01 1.800000000000e-01
2.500000000000e-01 -2.500000000000e-01 1.800000000000e-01
-2.500000000000e-01 -1.250000000000e-01 1.800000000000e-01
-1.250000000000e-01 -1.250000000000e-01 1.800000000000e-01
0.000000000000e+00 -1.250000000000e-01 1.800000000000e-01
1.250000000000e-01 -1.250000000000e-01 1.800000000000e-01
2.500000000000e-01 -1.250000000000e-01 1.800000000000e-01
-2.500000000000e-01 0.000000000000e+00 1.800000000000e-01
-1.250000000000e-01 0.000000000000e+00 1.800000000000e-01
0.000000000000e+00 0.000000000000e+00 1.800000000000e-01
1.250000000000e-01 0.000000000000e+00 1.800000000000e-01
2.500000000000e-01 0.000000000000e+00 1.800000000000e-01
-2.500000000000e-01 1.250000000000e-01 1.800000000000e-01
-1.250000000000e-01 1.250000000000e-01 1.800000000000e-01
0.000000000000e+00 1.250000000000e-01 1.800000000000e-01
1.250000000000e-01 1.250000000000e-01 1.800000000000e-01
2.500000000000e-01 1.250000000000e-01 1.800000000000e-01
-2.500000000000e-01 2.500000000000e-01 1.800000000000e-01
-1.250000000000e-01 2.500000000000e-01 1.800000000000e-01
0.000000000000e+00 2.500000000000e-01 1.800000000000e-01
1.250000000000e-01 2.500000000000e-01 1.800000000000e-01
2.500000000000e-01 2.500000000000e-01 1.800000000000e-01
-2.500000000000e-01 -2.500000000000e-01 2.400000000000e-01
-1.250000000000e-01 -2.500000000000e-01 2.400000000000e-01
0.000000000000e+00 -2.500000000000e-01 2.400000000000e-01
1.250000000000e-01 -2.500000000000e-01 2.400000000000e-01
2.500000000000e-01 -2.500000000000e-01 2.400000000000e-01
-2.500000000000e-01 -1.250000000000e-01 2.400000000000e-01
-1.250000000000e-01 -1.250000000000e-01 2.400000000000e-01
0.000000000000e+00 -1.250000000000e-01 2.400000000000e-01
1.250000000000e-01 -1.250000000000e-01 2.400000000000e-01
2.500000000000e-01 -1.250000000000e-01 2.400000000000e-01
-2.500000000000e-01 0.000000000000e+00 2.400000000000e-01
-1.250000000000e-01 0.000000000000e+00 2.400000000000e-01
0.000000000000e+00 0.000000000000e+00 2.400000000000e-01
1.250000000000e-01 0.000000000000e+00 2.400000000000e-01
2.500000000000e-01 0.000000000000e+00 2.400000000000e-01
-2.500000000000e-01 1.250000000000e-01 2.400000000000e-01
-1.250000000000e-01 1.250000000000e-01 2.400000000000e-01
0.000000000000e+00 1.250000000000e-01 2.400000000000e-01
1.250000000000e-01 1.250000000000e-01 2.400000000000e-01
2.500000000000e-01 1.250000000000e-01 2.400000000000e-01
-2.500000000000e-01 2.500000000000e-01 2.400000000000e-01
-1.250000000000e-01 2.500000000000e-01 2.400000000000e-01
0.000000000000e+00 2.500000000000e-01 2.400000000000e-01
1.250000000000e-01 2.500000000000e-01 2.400000000000e-01
2.500000000000e-01 2.500000000000e-01 2.400000000000e-01
-2.500000062956e-01 -2.500000063922e-01 2.498980611948e-01
-1.250000019810e-01 -2.500000076694e-01 2.498980682692e-01
1.503843240718e-10 -2.500000093346e-01 2.498980735731e-01
1.250000022818e-01 -2.500000076695e-01 2.498980685578e-01
2.500000065964e-01 -2.500000063924e-01 2.498980617719e-01
-2.500000075727e-01 -1.250000020776e-01 2.498980681773e-01
-1.250000023600e-01 -1.250000024567e-01 2.498980737718e-01
1.504312755762e-10 -1.250000033818e-01 2.498980782029e-01
1.250000026609e-01 -1.250000024568e-01 2.498980740603e-01
2.500000078735e-01 -1.250000020778e-01 2.498980687544e-01
-2.500000092378e-01 5.375327653980e-11 2.498980733892e-01
-1.250000032850e-01 5.370606520291e-11 2.498980781110e-01
1.504782195253e-10 5.365885590144e-11 2.498980823567e-01
1.250000035860e-01 5.361178189976e-11 2.498980783995e-01
2.500000095387e-01 5.356470981010e-11 2.498980739663e-01
-2.500000075726e-01 1.250000021851e-01 2.498980682820e-01
-1.250000023599e-01 1.250000025641e-01 2.498980738765e-01
1.505255568610e-10 1.250000034891e-01 2.498980783076e-01
1.250000026609e-01 1.250000025640e-01 2.498980741650e-01
2.500000078736e-01 1.250000021849e-01 2.498980688591e-01
-2.500000062954e-01 2.500000064998e-01 2.498980614042e-01
-1.250000019808e-01 2.500000077768e-01 2.498980684786e-01
1.505728867726e-10 2.500000094419e-01 2.498980737824e-01
1.250000022819e-01 2.500000077767e-01 2.498980687671e-01
2.500000065966e-01 2.500000064996e-01 2.498980619812e-01
-2.500000093911e-01 -2.500000094399e-01 3.148980553117e-01
-1.250000042028e-01 -2.500000101088e-01 3.148980622375e-01
7.536444546336e-11 -2.500000110974e-01 3.148980678750e-01
1.250000043535e-01 -2.500000101089e-01 3.148980625260e-01
2.500000095418e-01 -2.500000094401e-01 3.148980558887e-01
-2.500000100599e-01 -1.250000042516e-01 3.148980621455e-01
-1.250000042677e-01 -1.250000043166e-01 3.148980678166e-01
7.541139191842e-11 -1.250000049073e-01 3.148980726750e-01
1.250000044185e-01 -1.250000043167e-01 3.148980681051e-01
2.500000102107e-01 -1.250000042518e-01 3.148980627226e-01
-2.500000110484e-01 2.653519437812e-11 3.148980676911e-01
-1.250000048583e-01 2.648798372024e-11 3.148980725831e-01
7.545833085636e-11 2.644076962359e-11 3.148980772420e-01
1.250000050092e-01 2.639370194241e-11 3.148980728716e-01
2.500000111993e-01 2.634662803958e-11 3.148980682682e-01
-2.500000100598e-01 1.250000043047e-01 3.148980622502e-01
-1.250000042676e-01 1.250000043696e-01 3.148980679213e-01
7.550567521856e-11 1.250000049602e-01 3.148980727797e-01
1.250000044186e-01 1.250000043695e-01 3.148980682098e-01
2.500000102108e-01 1.250000043045e-01 3.148980628273e-01
-2.500000093909e-01 2.500000094930e-01 3.148980555210e-01
-1.250000042026e-01 2.500000101618e-01 3.148980624468e-01
7.555301103713e-11 2.500000111503e-01 3.148980680844e-01
1.250000043537e-01 2.500000101617e-01 3.148980627354e-01
2.500000095420e-01 2.500000094928e-01 3.148980560981e-01
-2.500000104844e-01 -2.500000104855e-01 3.798980459931e-01
-1.250000048390e-01 -2.500000106858e-01 3.798980527654e-01
3.449096013845e-13 -2.500000110550e-01 3.798980588839e-01
1.250000048397e-01 -2.500000106859e-01 3.798980530540e-01
2.500000104851e-01 -2.500000104857e-01 3.798980465702e-01
-2.500000106847e-01 -1.250000048401e-01 3.798980526735e-01
-1.250000048561e-01 -1.250000048572e-01 3.798980583609e-01
3.918391519882e-13 -1.250000051004e-01 3.798980637944e-01
1.250000048569e-01 -1.250000048573e-01 3.798980586494e-01
2.500000106854e-01 -1.250000048403e-01 3.798980532506e-01
-2.500000110538e-01 -6.827637401883e-13 3.798980587000e-01
-1.250000050992e-01 -7.299796763285e-13 3.798980637025e-01
4.387717305316e-13 -7.771973683852e-13 3.798980689727e-01
1.250000051001e-01 -8.242622617801e-13 3.798980639910e-01
2.500000110546e-01 -8.713297414167e-13 3.798980592771e-01
-2.500000106846e-01 1.250000048387e-01 3.798980527782e-01
-1.250000048560e-01 1.250000048558e-01 3.798980584656e-01
4.861212611325e-13 1.250000050988e-01 3.798980638991e-01
1.250000048570e-01 1.250000048557e-01 3.798980587541e-01
2.500000106855e-01 1.250000048385e-01 3.798980533553e-01
-2.500000104843e-01 2.500000104841e-01 3.798980462025e-01
-1.250000048389e-01 2.500000106843e-01 3.798980529748e-01
5.334746905974e-13 2.500000110534e-01 3.798980590932e-01
1.250000048399e-01 2.500000106842e-01 3.798980532633e-01
2.500000104853e-01 2.500000104839e-01 3.798980467795e-01
-2.500000103219e-01 -2.500000102751e-01 4.448980373493e-01
-1.250000057232e-01 -2.500000099253e-01 4.448980445918e-01
-7.467441362790e-11 -2.500000096320e-01 4.448980509775e-01
1.250000055738e-01 -2.500000099254e-01 4.448980448803e-01
2.500000101725e-01 -2.500000102753e-01 4.448980379264e-01
-2.500000099720e-01 -1.250000056764e-01 4.448980444998e-01
-1.250000057253e-01 -1.250000056786e-01 4.448980506125e-01
-7.462750787753e-11 -1.250000055951e-01 4.448980563188e-01
1.250000055760e-01 -1.250000056787e-01 4.448980509010e-01
2.500000098227e-01 -1.250000056766e-01 4.448980450769e-01
-2.500000096786e-01 -2.790064444777e-11 4.448980507936e-01
-1.250000056417e-01 -2.794786910079e-11 4.448980562269e-01
-7.458058680146e-11 -2.799509051430e-11 4.448980618015e-01
1.250000054925e-01 -2.804215223954e-11 4.448980565155e-01
2.500000095295e-01 -2.808920884613e-11 4.448980513707e-01
-2.500000099719e-01 1.250000056206e-01 4.448980446045e-01
-1.250000057252e-01 1.250000056227e-01 4.448980507172e-01
-7.453322650838e-11 1.250000055391e-01 4.448980564235e-01
1.250000055761e-01 1.250000056226e-01 4.448980510057e-01
2.500000098228e-01 1.250000056204e-01 4.448980451816e-01
-2.500000103217e-01 2.500000102193e-01 4.448980375587e-01
-1.250000057230e-01 2.500000098694e-01 4.448980448011e-01
-7.448584997655e-11 2.500000095760e-01 4.448980511869e-01
1.250000055740e-01 2.500000098693e-01 4.448980450897e-01
2.500000101727e-01 2.500000102191e-01 4.448980381358e-01
-2.500000123128e-01 -2.500000122183e-01 5.098980330149e-01
-1.250000084191e-01 -2.500000112140e-01 5.098980403863e-01
-1.496938400645e-10 -2.500000102201e-01 5.098980464868e-01
1.250000081197e-01 -2.500000112141e-01 5.098980406748e-01
2.500000120134e-01 -2.500000122184e-01 5.098980335920e-01
-2.500000113085e-01 -1.250000083245e-01 5.098980402943e-01
-1.250000081855e-01 -1.250000080910e-01 5.098980463745e-01
-1.496469645722e-10 -1.250000077200e-01 5.098980517057e-01
1.250000078862e-01 -1.250000080911e-01 5.098980466631e-01
2.500000110092e-01 -1.250000083247e-01 5.098980408714e-01
-2.500000103145e-01 -5.511856072477e-11 5.098980463030e-01
-1.250000078144e-01 -5.516579634258e-11 5.098980516138e-01
-1.496000667466e-10 -5.521302638368e-11 5.098980567762e-01
1.250000075152e-01 -5.526007811903e-11 5.098980519023e-01
2.500000100153e-01 -5.530712290900e-11 5.098980468801e-01
-2.500000113084e-01 1.250000082142e-01 5.098980403990e-01
-1.250000081854e-01 1.250000079807e-01 5.098980464792e-01
-1.495526812981e-10 1.250000076096e-01 5.098980518104e-01
1.250000078863e-01 1.250000079806e-01 5.098980467677e-01
2.500000110093e-01 1.250000082141e-01 5.098980409761e-01
-2.500000123126e-01 2.500000121080e-01 5.098980332243e-01
-1.250000084189e-01 2.500000111037e-01 5.098980405956e-01
-1.495052752978e-10 2.500000101096e-01 5.098980466962e-01
1.250000081199e-01 2.500000111036e-01 5.098980408842e-01
2.500000120136e-01 2.500000121078e-01 5.098980338014e-01
CELLS 128 1152
8 0 1 6 5 25 26 31 30
8 1 2 7 6 26 27 32 31
8 2 3 8 7 27 28 33 32
8 3 4 9 8 28 29 34 33
8 5 6 11 10 30 31 36 35
8 6 7 12 11 31 32 37 36
8 7 8 13 12 32 33 38 37
8 8 9 14 13 33 34 39 38
8 10 11 16 15 35 36 41 40
8 11 12 17 16 36 37 42 41
8 12 13 18 17 37 38 43 42
8 13 14 19 18 38 39 44 43
8 15 16 21 20 40 41 46 45
8 16 17 22 21 41 42 47 46
8 17 18 23 22 42 43 48 47
8 18 19 24 23 43 44 49 48
8 25 26 31 30 50 51 56 55
8 26 27 32 31 51 52 57 56
8 27 28 33 32 52 53 58 57
8 28 29 34 33 53 54 59 58
8 30 31 36 35 55 56 61 60
8 31 32 37 36 56 57 62 61
8 32 33 38 37 57 58 63 62
8 33 34 39 38 58 59 64 63
8 35 36 41 40 60 61 66 65
8 36 37 42 41 61 62 67 66
8 37 38 43 42 62 63 68 67
8 38 39 44 43 63 64 69 68
8 40 41 46 45 65 66 71 70
8 41 42 47 46 66 67 72 71
8 42 43 48 47 67 68 73 72
8 43 44 49 48 68 69 74 73
8 50 51 56 55 75 76 81 80
8 51 52 57 56 76 77 82 81
8 52 53 58 57 77 78 83 82
8 53 54 59 58 78 79 84 83
8 55 56 61 60 80 81 86 85
8 56 57 62 61 81 82 87 86
8 57 58 63 62 82 83 88 87
8 58 59 64 63 83 84 89 88
8 60 61 66 65 85 86 91 90
8 61 62 67 66 86 87 92 91
8 62 63 68 67 87 88 93 92
8 63 64 69 68 88 89 94 93
8 65 66 71 70 90 91 96 95
8 66 67 72 71 91 92 97 96
8 67 68 73 72 92 93 98 97
8 68 69 74 73 93 94 99 98
8 75 76 81 80 100 101 106 105
8 76 77 82 81 101 102 107 106
8 77 78 83 82 102 103 108 107
8 78 79 84 83 103 104 109 108
8 80 81 86 85 105 106 111 110
8 81 82 87 86 106 107 112 111
8 82 83 88 87 107 108 113 112
8 83 84 89 88 108 109 114 113
8 85 86 91 90 110 111 116 115
8 86 87 92 91 111 112 117 116
8 87 88 93 92 112 113 118 117
8 88 89 94 93 113 114 119 118
8 90 91 96 95 115 116 121 120
8 91 92 97 96 116 117 122 121
8 92 93 98 97 117 118 123 122
8 93 94 99 98 118 119 124 123
8 125 126 131 130 150 151 156 155
8 126 127 132 131 151 152 157 156
8 127 128 133 132 152 153 158 157
8 128 129 134 133 153 154 159 158
8 130 131 136 135 155 156 161 160
8 131 132 137 136 156 157 162 161
8 132 133 138 137 157 158 163 162
8 133 134 139 138 158 159 164 163
8 135 136 141 140 160 161 166 165
8 136 137 142 141 161 162 167 166
8 137 138 143 142 162 163 168 167
8 138 139 144 143 163 164 169 168
8 140 141 146 145 165 166 171 170
8 141 142 147 146 166 167 172 171
8 142 143 148 147 167 168 173 172
8 143 144 149 148 168 169 174 173
8 150 151 156 155 175 176 181 180
8 151 152 157 156 176 177 182 181
8 152 153 158 157 177 178 183 182
8 153 154 159 158 178 179 184 183
8 155 156 161 160 180 181 186 185
8 156 157 162 161 181 182 187 186
8 157 158 163 162 182 183 188 187
8 158 159 164 163 183 184 189 188
8 160 161 166 165 185 186 191 190
8 161 162 167 166 186 187 192 191
8 162 163 168 167 187 188 193 192
8 163 164 169 168 188 189 194 193
8 165 166 171 170 190 191 196 195
8 166 167 172 171 191 192 197 196
8 167 168 173 172 192 193 198 197
8 168 169 174 173 193 194 199 198
8 175 176 181 180 200 201 206 205
8 176 177 182 181 201 202 207 206
8 177 178 183 182 202 203 208 207
8 178 179 184 183 203 204 209 208
8 180 181 186 185 205 206 211 210
8 181 182 187 186 206 207 212 211
8 182 183 188 187 207 208 213 212
8 183 184 189 188 208 209 214 213
8 185 186 191 190 210 211 216 215
8 186 187 192 191 211 212 217 216
8 187 188 193 192 212 213 218 217
8 188 189 194 193 213 214 219 218
8 190 191 196 195 215 216 221 220
8 191 192 197 196 216 217 222 221
8 192 193 198 197 217 218 223 222
8 193 194 199 198 218 219 224 223
8 200 201 206 205 225 226 231 230
8 201 202 207 206 226 227 232 231
8 202 203 208 207 227 228 233 232
8 203 204 209 208 228 229 234 233
8 205 206 211 210 230 231 236 235
8 206 207 212 211 231 232 237 236
8 207 208 213 212 232 233 238 237
8 208 209 214 213 233 234 239 238
8 210 211 216 215 235 236 241 240
8 211 212 217 216 236 237 242 241
8 212 213 218 217 237 238 243 242
8 213 214 219 218 238 239 244 243
8 215 216 221 220 240 241 246 245
8 216 217 222 221 241 242 247 246
8 217 218 223 222 242 243 248 247
8 218 219 224 223 243 244 249 248
CELL_TYPES 128
12
12
12
12
12
12
12
12
12
12
12
12
12
12
12
12
12
12
12
12
12
12
12
12
12
12
12
12
12
12
12
12
12
12
12
12
12
12
12
12
12
12
12
12
12
12
12
12
12
12
12
12
12
12
12
12
12
12
12
12
12
12
12
12
12
12
12
12
12
12
12
12
12
12
12
12
12
12
12
12
12
12
12
12
12
12
12
12
12
12
12
12
12
12
12
12
12
12
12
12
12
12
12
12
12
12
12
12
12
12
12
12
12
12
12
12
12
12
12
12
12
12
12
12
12
12
12
12
POINT_DATA 250
VECTORS displacement float
0.000000000000e+00 0.000000000000e+00 0.000000000000e+00
0.000000000000e+00 0.000000000000e+00 0.000000000000e+00
0.000000000000e+00 0.000000000000e+00 0.000000000000e+00
0.000000000000e+00 0.000000000000e+00 0.000000000000e+00
0.000000000000e+00 0.000000000000e+00 0.000000000000e+00
0.000000000000e+00 0.000000000000e+00 0.000000000000e+00
0.000000000000e+00 0.000000000000e+00 0.000000000000e+00
0.000000000000e+00 0.000000000000e+00 0.000000000000e+00
0.000000000000e+00 0.000000000000e+00 0.000000000000e+00
0.000000000000e+00 0.000000000000e+00 0.000000000000e+00
0.000000000000e+00 0.000000000000e+00 0.000000000000e+00
0.000000000000e+00 0.000000000000e+00 0.000000000000e+00
0.000000000000e+00 0.000000000000e+00 0.000000000000e+00
0.000000000000e+00 0.000000000000e+00 0.000000000000e+00
0.000000000000e+00 0.000000000000e+00 0.000000000000e+00
0.000000000000e+00 0.000000000000e+00 0.000000000000e+00
0.000000000000e+00 0.000000000000e+00 0.000000000000e+00
0.000000000000e+00 0.000000000000e+00 0.000000000000e+00
0.000000000000e+00 0.000000000000e+00 0.000000000000e+00
0.000000000000e+00 0.000000000000e+00 0.000000000000e+00
0.000000000000e+00 0.000000000000e+00 0.000000000000e+00
0.000000000000e+00 0.000000000000e+00 0.000000000000e+00
0.000000000000e+00 0.000000000000e+00 0.000000000000e+00
0.000000000000e+00 0.000000000000e+00 0.000000000000e+00
0.000000000000e+00 0.000000000000e+00 0.000000000000e+00
0.000000000000e+00 0.000000000000e+00 0.000000000000e+00
0.000000000000e+00 0.000000000000e+00 0.000000000000e+00
0.000000000000e+00 0.000000000000e+00 0.000000000000e+00
0.000000000000e+00 0.000000000000e+00 0.000000000000e+00
0.000000000000e+00 0.000000000000e+00 0.000000000000e+00
0.000000000000e+00 0.000000000000e+00 0.000000000000e+00
0.000000000000e+00 0.000000000000e+00 0.000000000000e+00
0.000000000000e+00 0.000000000000e+00 0.000000000000e+00
0.000000000000e+00 0.000000000000e+00 0.000000000000e+00
0.000000000000e+00 0.000000000000e+00 0.000000000000e+00
0.000000000000e+00 0.000000000000e+00 0.000000000000e+00
0.000000000000e+00 0.000000000000e+00 0.000000000000e+00
0.000000000000e+00 0.000000000000e+00 0.000000000000e+00
0.000000000000e+00 0.000000000000e+00 0.000000000000e+00
0.000000000000e+00 0.000000000000e+00 0.000000000000e+00
0.000000000000e+00 0.000000000000e+00 0.000000000000e+00
0.000000000000e+00 0.000000000000e+00 0.000000000000e+00
0.000000000000e+00 0.000000000000e+00 0.000000000000e+00
0.000000000000e+00 0.000000000000e+00 0.000000000000e+00
0.000000000000e+00 0.000000000000e+00 0.000000000000e+00
0.000000000000e+00 0.000000000000e+00 0.000000000000e+00
0.000000000000e+00 0.000000000000e+00 0.000000000000e+00
0.000000000000e+00 0.000000000000e+00 0.000000000000e+00
0.000000000000e+00 0.000000000000e+00 0.000000000000e+00
0.000000000000e+00 0.000000000000e+00 0.000000000000e+00
0.000000000000e+00 0.000000000000e+00 0.000000000000e+00
0.000000000000e+00 0.000000000000e+00 0.000000000000e+00
0.000000000000e+00 0.000000000000e+00 0.000000000000e+00
0.000000000000e+00 0.000000000000e+00 0.000000000000e+00
0.000000000000e+00 0.000000000000e+00 0.000000000000e+00
0.000000000000e+00 0.000000000000e+00 0.000000000000e+00
0.000000000000e+00 0.000000000000e+00 0.000000000000e+00
0.000000000000e+00 0.000000000000e+00 0.000000000000e+00
0.000000000000e+00 0.000000000000e+00 0.000000000000e+00
0.000000000000e+00 0.000000000000e+00 0.000000000000e+00
0.000000000000e+00 0.000000000000e+00 0.000000000000e+00
0.000000000000e+00 0.000000000000e+00 0.000000000000e+00
0.000000000000e+00 0.000000000000e+00 0.000000000000e+00
0.000000000000e+00 0.000000000000e+00 0.000000000000e+00
0.000000000000e+00 0.000000000000e+00 0.000000000000e+00
0.000000000000e+00 0.000000000000e+00 0.000000000000e+00
0.000000000000e+00 0.000000000000e+00 0.000000000000e+00
0.000000000000e+00 0.000000000000e+00 0.000000000000e+00
0.000000000000e+00 0.000000000000e+00 0.000000000000e+00
0.000000000000e+00 0.000000000000e+00 0.000000000000e+00
0.000000000000e+00 0.000000000000e+00 0.000000000000e+00
0.000000000000e+00 0.000000000000e+00 0.000000000000e+00
0.000000000000e+00 0.000000000000e+00 0.000000000000e+00
0.000000000000e+00 0.000000000000e+00 0.000000000000e+00
0.000000000000e+00 0.000000000000e+00 0.000000000000e+00
0.000000000000e+00 0.000000000000e+00 0.000000000000e+00
0.000000000000e+00 0.000000000000e+00 0.000000000000e+00
0.000000000000e+00 0.000000000000e+00 0.000000000000e+00
0.000000000000e+00 0.000000000000e+00 0.000000000000e+00
0.000000000000e+00 0.000000000000e+00 0.000000000000e+00
0.000000000000e+00 0.000000000000e+00 0.000000000000e+00
0.000000000000e+00 0.000000000000e+00 0.000000000000e+00
0.000000000000e+00 0.000000000000e+00 0.000000000000e+00
0.000000000000e+00 0.000000000000e+00 0.000000000000e+00
0.000000000000e+00 0.000000000000e+00 0.000000000000e+00
0.000000000000e+00 0.000000000000e+00 0.000000000000e+00
0.000000000000e+00 0.000000000000e+00 0.000000000000e+00
0.000000000000e+00 0.000000000000e+00 0.000000000000e+00
0.000000000000e+00 0.000000000000e+00 0.000000000000e+00
0.000000000000e+00 0.000000000000e+00 0.000000000000e+00
0.000000000000e+00 0.000000000000e+00 0.000000000000e+00
0.000000000000e+00 0.000000000000e+00 0.000000000000e+00
0.000000000000e+00 0.000000000000e+00 0.000000000000e+00
0.000000000000e+00 0.000000000000e+00 0.000000000000e+00
0.000000000000e+00 0.000000000000e+00 0.000000000000e+00
0.000000000000e+00 0.000000000000e+00 0.000000000000e+00
0.000000000000e+00 0.000000000000e+00 0.000000000000e+00
0.000000000000e+00 0.000000000000e+00 0.000000000000e+00
0.000000000000e+00 0.000000000000e+00 0.000000000000e+00
0.000000000000e+00 0.000000000000e+00 0.000000000000e+00
0.000000000000e+00 0.000000000000e+00 0.000000000000e+00
0.000000000000e+00 0.000000000000e+00 0.000000000000e+00
0.000000000000e+00 0.000000000000e+00 0.000000000000e+00
0.000000000000e+00 0.000000000000e+00 0.000000000000e+00
0.000000000000e+00 0.000000000000e+00 0.000000000000e+00
0.000000000000e+00 0.000000000000e+00 0.000000000000e+00
0.000000000000e+00 0.000000000000e+00 0.000000000000e+00
0.000000000000e+00 0.000000000000e+00 0.000000000000e+00
0.000000000000e+00 0.000000000000e+00 0.000000000000e+00
0.000000000000e+00 0.000000000000e+00 0.000000000000e+00
0.000000000000e+00 0.000000000000e+00 0.000000000000e+00
0.000000000000e+00 0.000000000000e+00 0.000000000000e+00
0.000000000000e+00 0.000000000000e+00 0.000000000000e+00
0.000000000000e+00 0.000000000000e+00 0.000000000000e+00
0.000000000000e+00 0.000000000000e+00 0.000000000000e+00
0.000000000000e+00 0.000000000000e+00 0.000000000000e+00
0.000000000000e+00 0.000000000000e+00 0.000000000000e+00
0.000000000000e+00 0.000000000000e+00 0.000000000000e+00
0.000000000000e+00 0.000000000000e+00 0.000000000000e+00
0.000000000000e+00 0.000000000000e+00 0.000000000000e+00
0.000000000000e+00 0.000000000000e+00 0.000000000000e+00
0.000000000000e+00 0.000000000000e+00 0.000000000000e+00
0.000000000000e+00 0.000000000000e+00 0.000000000000e+00
0.000000000000e+00 0.000000000000e+00 0.000000000000e+00
0.000000000000e+00 0.000000000000e+00 0.000000000000e+00
-6.295616977547e-09 -6.392248337577e-09 -5.101938805209e-03
-1.980988388971e-09 -7.669386066584e-09 -5.101931730776e-03
1.503843240718e-10 -9.334605938540e-09 -5.101926426923e-03
2.281757371410e-09 -7.669480432845e-09 -5.101931442238e-03
6.596386581126e-09 -6.392436910527e-09 -5.101938228132e-03
-7.572660564932e-09 -2.077619621371e-09 -5.101931822703e-03
-2.359990930649e-09 -2.456716254629e-09 -5.101926228211e-03
1.504312755762e-10 -3.381815726204e-09 -5.101921797105e-03
2.660853800288e-09 -2.456810509523e-09 -5.101925939672e-03
7.873524094483e-09 -2.077807964530e-09 -5.101931245626e-03
-9.237786226834e-09 5.375327653980e-11 -5.101926610777e-03
-3.284996248847e-09 5.370606520291e-11 -5.101921889032e-03
1.504782195253e-10 5.365885590144e-11 -5.101917643282e-03
3.585953025025e-09 5.361178189976e-11 -5.101921600493e-03
9.538743736053e-09 5.356470981010e-11 -5.101926033700e-03
-7.572566315555e-09 2.185126298419e-09 -5.101931718017e-03
-2.359896636595e-09 2.564128508874e-09 -5.101926123526e-03
1.505255568610e-10 3.489133559584e-09 -5.101921692420e-03
2.660948073786e-09 2.564034197370e-09 -5.101925834987e-03
7.873618417206e-09 2.184937508986e-09 -5.101931140941e-03
-6.295428410095e-09 6.499755240185e-09 -5.101938595839e-03
-1.980799742788e-09 7.776798567960e-09 -5.101931521406e-03
1.505728867726e-10 9.441924038224e-09 -5.101926217553e-03
2.281945857977e-09 7.776704369965e-09 -5.101931232868e-03
6.596575153629e-09 6.499566682449e-09 -5.101938018762e-03
-9.391065354776e-09 -9.439894964094e-09 -5.101944688348e-03
-4.202802806166e-09 -1.010878370556e-08 -5.101937762534e-03
7.536444546336e-11 -1.109740168274e-08 -5.101932125012e-03
4.353532069661e-09 -1.010887807109e-08 -5.101937473996e-03
9.541795347041e-09 -9.440083522522e-09 -5.101944111273e-03
-1.005985996631e-08 -4.251632262206e-09 -5.101937854460e-03
-4.267697413894e-09 -4.316620949472e-09 -5.101932183428e-03
7.541139191842e-11 -4.907274713168e-09 -5.101927325007e-03
4.418520549561e-09 -4.316715190306e-09 -5.101931894890e-03
1.021068386741e-08 -4.251820566055e-09 -5.101937277385e-03
-1.104838373476e-08 2.653519437812e-11 -5.101932308865e-03
-4.858257034279e-09 2.648798372024e-11 -5.101927416934e-03
7.545833085636e-11 2.644076962359e-11 -5.101922758004e-03
5.009174063920e-09 2.639370194241e-11 -5.101927128395e-03
1.119930160589e-08 2.634662803958e-11 -5.101931731789e-03
-1.005976571321e-08 4.304702788586e-09 -5.101937749775e-03
-4.267603116544e-09 4.369597045164e-09 -5.101932078743e-03
7.550567521856e-11 4.960156387212e-09 -5.101927220322e-03
4.418614816618e-09 4.369502720476e-09 -5.101931790205e-03
1.021077817952e-08 4.304513960629e-09 -5.101937172700e-03
-9.390876789087e-09 9.492965756767e-09 -5.101944478979e-03
-4.202614146598e-09 1.016176008183e-08 -5.101937553164e-03
7.555301103713e-11 1.115028366288e-08 -5.101931915642e-03
4.353720540016e-09 1.016166588131e-08 -5.101937264626e-03
9.541983910917e-09 9.492777183838e-09 -5.101943901903e-03
-1.048444561199e-08 -1.048547364630e-08 -5.101954006906e-03
-4.839042233922e-09 -1.068577776680e-08 -5.101947234562e-03
3.449096013845e-13 -1.105497116659e-08 -5.101941116137e-03
4.839732372100e-09 -1.068587209641e-08 -5.101946946024e-03
1.048513643838e-08 -1.048566208566e-08 -5.101953429831e-03
-1.068465565274e-08 -4.840070118267e-09 -5.101947326488e-03
-4.856116366364e-09 -4.857238295633e-09 -5.101941639114e-03
3.918391519882e-13 -5.100393086418e-09 -5.101936205605e-03
4.856900322284e-09 -4.857332505080e-09 -5.101941350576e-03
1.068544030911e-08 -4.840258337694e-09 -5.101946749413e-03
-1.105375486332e-08 -6.827637401883e-13 -5.101941299990e-03
-5.099177029092e-09 -7.299796763285e-13 -5.101936297531e-03
4.387717305316e-13 -7.771973683852e-13 -5.101931027322e-03
5.100054861678e-09 -8.242622617801e-13 -5.101936008994e-03
1.105463346316e-08 -8.713297414167e-13 -5.101940722915e-03
-1.068456138852e-08 4.838704708283e-09 -5.101947221803e-03
-4.856022057719e-09 4.855778435291e-09 -5.101941534429e-03
4.861212611325e-13 5.098838800120e-09 -5.101936100920e-03
4.856994576766e-09 4.855684079595e-09 -5.101941245892e-03
1.068553460630e-08 4.838515796692e-09 -5.101946644728e-03
-1.048425700420e-08 1.048410848691e-08 -5.101953797536e-03
-4.838853544535e-09 1.068431816085e-08 -5.101947025192e-03
5.334746905974e-13 1.105341715694e-08 -5.101940906767e-03
4.839920809643e-09 1.068422392454e-08 -5.101946736655e-03
1.048532495633e-08 1.048391979615e-08 -5.101953220461e-03
-1.032188687507e-08 -1.027511344283e-08 -5.101962650689e-03
-5.723170298419e-09 -9.925279928503e-09 -5.101955408241e-03
-7.467441362790e-11 -9.632039783903e-09 -5.101949022499e-03
5.573821721614e-09 -9.925374174668e-09 -5.101955119704e-03
1.017253876351e-08 -1.027530164875e-08 -5.101962073615e-03
-9.971959363222e-09 -5.676396731930e-09 -5.101955500168e-03
-5.725253966343e-09 -5.678574405765e-09 -5.101949387529e-03
-7.462750787753e-11 -5.595122147398e-09 -5.101943681152e-03
5.575999136087e-09 -5.678668611410e-09 -5.101949098992e-03
9.822704968672e-09 -5.676584898241e-09 -5.101954923093e-03
-9.678625071265e-09 -2.790064444777e-11 -5.101949206352e-03
-5.641707587520e-09 -2.794786910079e-11 -5.101943773079e-03
-7.458058680146e-11 -2.799509051430e-11 -5.101938198478e-03
5.492546609101e-09 -2.804215223954e-11 -5.101943484541e-03
9.529464577465e-09 -2.808920884613e-11 -5.101948629277e-03
-9.971865069912e-09 5.620595534712e-09 -5.101955395483e-03
-5.725159657538e-09 5.622678733446e-09 -5.101949282845e-03
-7.453322650838e-11 5.539132038169e-09 -5.101943576468e-03
5.576093389559e-09 5.622584373121e-09 -5.101948994307e-03
9.822799239518e-09 5.620406572265e-09 -5.101954818409e-03
-1.032169818341e-08 1.021931241377e-08 -5.101962441320e-03
-5.722981590226e-09 9.869384413088e-09 -5.101955198872e-03
-7.448584997655e-11 9.576049846786e-09 -5.101948813130e-03
5.574010140611e-09 9.869290094056e-09 -5.101954910335e-03
1.017272719795e-08 1.021912349012e-08 -5.101961864246e-03
-1.231282920751e-08 -1.221825422889e-08 -5.101966985080e-03
-8.419061955650e-09 -1.121402424916e-08 -5.101959613737e-03
-1.496938400645e-10 -1.022006784269e-08 -5.101953513167e-03
8.119674496077e-09 -1.121411849752e-08 -5.101959325200e-03
1.201344209565e-08 -1.221844238901e-08 -5.101966408006e-03
-1.130850527631e-08 -8.324486842549e-09 -5.101959705664e-03
-8.185522175114e-09 -8.091041054672e-09 -5.101953625475e-03
-1.496469645722e-10 -7.720036738103e-09 -5.101948294298e-03
7.886228399135e-09 -8.091135316130e-09 -5.101953336938e-03
1.100921179147e-08 -8.324675087522e-09 -5.101959128590e-03
-1.031445474864e-08 -5.511856072477e-11 -5.101953697020e-03
-7.814423738939e-09 -5.516579634258e-11 -5.101948386224e-03
-1.496000667466e-10 -5.521302638368e-11 -5.101943223844e-03
7.515223756033e-09 -5.526007811903e-11 -5.101948097687e-03
1.001525507538e-08 -5.530712290900e-11 -5.101953119945e-03
-1.130841098361e-08 8.214249799033e-09 -5.101959600979e-03
-8.185427887938e-09 7.980709512861e-09 -5.101953520791e-03
-1.495526812981e-10 7.609610734226e-09 -5.101948189613e-03
7.886322674641e-09 7.980615209136e-09 -5.101953232254e-03
1.100930606121e-08 8.214060914134e-09 -5.101959023905e-03
-1.231264050171e-08 1.210801731027e-08 -5.101966775711e-03
-8.418873279630e-09 1.110369280629e-08 -5.101959404368e-03
-1.495052752978e-10 1.010964194602e-08 -5.101953303798e-03
8.119862948180e-09 1.110359848716e-08 -5.101959115831e-03
1.201363051274e-08 1.210782833717e-08 -5.101966198637e-03
SCALARS displacement_magnitude float 1
LOOKUP_TABLE default
0.000000000000e+00
0.000000000000e+00
0.000000000000e+00
0.000000000000e+00
0.000000000000e+00
0.000000000000e+00
0.000000000000e+00
0.000000000000e+00
0.000000000000e+00
0.000000000000e+00
0.000000000000e+00
0.000000000000e+00
0.000000000000e+00
0.000000000000e+00
0.000000000000e+00
0.000000000000e+00
0.000000000000e+00
0.000000000000e+00
0.000000000000e+00
0.000000000000e+00
0.000000000000e+00
0.000000000000e+00
0.000000000000e+00
0.000000000000e+00
0.000000000000e+00
0.000000000000e+00
0.000000000000e+00
0.000000000000e+00
0.000000000000e+00
0.000000000000e+00
0.000000000000e+00
0.000000000000e+00
0.000000000000e+00
0.000000000000e+00
0.000000000000e+00
0.000000000000e+00
0.000000000000e+00
0.000000000000e+00
0.000000000000e+00
0.000000000000e+00
0.000000000000e+00
0.000000000000e+00
0.000000000000e+00
0.000000000000e+00
0.000000000000e+00
0.000000000000e+00
0.000000000000e+00
0.000000000000e+00
0.000000000000e+00
0.000000000000e+00
0.000000000000e+00
0.000000000000e+00
0.000000000000e+00
0.000000000000e+00
0.000000000000e+00
0.000000000000e+00
0.000000000000e+00
0.000000000000e+00
0.000000000000e+00
0.000000000000e+00
0.000000000000e+00
0.000000000000e+00
0.000000000000e+00
0.000000000000e+00
0.000000000000e+00
0.000000000000e+00
0.000000000000e+00
0.000000000000e+00
0.000000000000e+00
0.000000000000e+00
0.000000000000e+00
0.000000000000e+00
0.000000000000e+00
0.000000000000e+00
0.000000000000e+00
0.000000000000e+00
0.000000000000e+00
0.000000000000e+00
0.000000000000e+00
0.000000000000e+00
0.000000000000e+00
0.000000000000e+00
0.000000000000e+00
0.000000000000e+00
0.000000000000e+00
0.000000000000e+00
0.000000000000e+00
0.000000000000e+00
0.000000000000e+00
0.000000000000e+00
0.000000000000e+00
0.000000000000e+00
0.000000000000e+00
0.000000000000e+00
0.000000000000e+00
0.000000000000e+00
0.000000000000e+00
0.000000000000e+00
0.000000000000e+00
0.000000000000e+00
0.000000000000e+00
0.000000000000e+00
0.000000000000e+00
0.000000000000e+00
0.000000000000e+00
0.000000000000e+00
0.000000000000e+00
0.000000000000e+00
0.000000000000e+00
0.000000000000e+00
0.000000000000e+00
0.000000000000e+00
0.000000000000e+00
0.000000000000e+00
0.000000000000e+00
0.000000000000e+00
0.000000000000e+00
0.000000000000e+00
0.000000000000e+00
0.000000000000e+00
0.000000000000e+00
0.000000000000e+00
0.000000000000e+00
0.000000000000e+00
0.000000000000e+00
5.101938805217e-03
5.101931730782e-03
5.101926426932e-03
5.101931442244e-03
5.101938228140e-03
5.101931822709e-03
5.101926228212e-03
5.101921797106e-03
5.101925939674e-03
5.101931245633e-03
5.101926610785e-03
5.101921889033e-03
5.101917643282e-03
5.101921600494e-03
5.101926033709e-03
5.101931718024e-03
5.101926123527e-03
5.101921692421e-03
5.101925834989e-03
5.101931140948e-03
5.101938595847e-03
5.101931521412e-03
5.101926217562e-03
5.101931232874e-03
5.101938018770e-03
5.101944688366e-03
5.101937762546e-03
5.101932125024e-03
5.101937474008e-03
5.101944111290e-03
5.101937854472e-03
5.101932183432e-03
5.101927325009e-03
5.101931894894e-03
5.101937277397e-03
5.101932308877e-03
5.101927416936e-03
5.101922758004e-03
5.101927128398e-03
5.101931731801e-03
5.101937749787e-03
5.101932078747e-03
5.101927220324e-03
5.101931790209e-03
5.101937172712e-03
5.101944478996e-03
5.101937553176e-03
5.101931915654e-03
5.101937264638e-03
5.101943901921e-03
5.101954006927e-03
5.101947234575e-03
5.101941116149e-03
5.101946946038e-03
5.101953429852e-03
5.101947326501e-03
5.101941639119e-03
5.101936205607e-03
5.101941350581e-03
5.101946749427e-03
5.101941300002e-03
5.101936297534e-03
5.101931027322e-03
5.101936008996e-03
5.101940722927e-03
5.101947221817e-03
5.101941534434e-03
5.101936100922e-03
5.101941245896e-03
5.101946644742e-03
5.101953797558e-03
5.101947025206e-03
5.101940906779e-03
5.101946736668e-03
5.101953220483e-03
5.101962650710e-03
5.101955408254e-03
5.101949022508e-03
5.101955119717e-03
5.101962073636e-03
5.101955500180e-03
5.101949387536e-03
5.101943681155e-03
5.101949098998e-03
5.101954923106e-03
5.101949206361e-03
5.101943773082e-03
5.101938198478e-03
5.101943484544e-03
5.101948629286e-03
5.101955395496e-03
5.101949282851e-03
5.101943576471e-03
5.101948994314e-03
5.101954818421e-03
5.101962441341e-03
5.101955198885e-03
5.101948813139e-03
5.101954910348e-03
5.101961864266e-03
5.101966985109e-03
5.101959613757e-03
5.101953513177e-03
5.101959325219e-03
5.101966408035e-03
5.101959705683e-03
5.101953625488e-03
5.101948294304e-03
5.101953336951e-03
5.101959128608e-03
5.101953697030e-03
5.101948386230e-03
5.101943223844e-03
5.101948097693e-03
5.101953119955e-03
5.101959600998e-03
5.101953520804e-03
5.101948189619e-03
5.101953232266e-03
5.101959023924e-03
5.101966775740e-03
5.101959404387e-03
5.101953303808e-03
5.101959115850e-03
5.101966198666e-03
CELL_DATA 128
SCALARS displacement_magnitude float 1
LOOKUP_TABLE default
0.000000000000e+00
0.000000000000e+00
0.000000000000e+00
0.000000000000e+00
0.000000000000e+00
0.000000000000e+00
0.000000000000e+00
0.000000000000e+00
0.000000000000e+00
0.000000000000e+00
0.000000000000e+00
0.000000000000e+00
0.000000000000e+00
0.000000000000e+00
0.000000000000e+00
0.000000000000e+00
0.000000000000e+00
0.000000000000e+00
0.000000000000e+00
0.000000000000e+00
0.000000000000e+00
0.000000000000e+00
0.000000000000e+00
0.000000000000e+00
0.000000000000e+00
0.000000000000e+00
0.000000000000e+00
0.000000000000e+00
0.000000000000e+00
0.000000000000e+00
0.000000000000e+00
0.000000000000e+00
0.000000000000e+00
0.000000000000e+00
0.000000000000e+00
0.000000000000e+00
0.000000000000e+00
0.000000000000e+00
0.000000000000e+00
0.000000000000e+00
0.000000000000e+00
0.000000000000e+00
0.000000000000e+00
0.000000000000e+00
0.000000000000e+00
0.000000000000e+00
0.000000000000e+00
0.000000000000e+00
0.000000000000e+00
0.000000000000e+00
0.000000000000e+00
0.000000000000e+00
0.000000000000e+00
0.000000000000e+00
0.000000000000e+00
0.000000000000e+00
0.000000000000e+00
0.000000000000e+00
0.000000000000e+00
0.000000000000e+00
0.000000000000e+00
0.000000000000e+00
0.000000000000e+00
0.000000000000e+00
5.101935134467e-03
5.101929447380e-03
5.101929303111e-03
5.101934701660e-03
5.101929539307e-03
5.101924655127e-03
5.101924510858e-03
5.101929106500e-03
5.101929486964e-03
5.101924602784e-03
5.101924458515e-03
5.101929054157e-03
5.101934977439e-03
5.101929290353e-03
5.101929146084e-03
5.101934544632e-03
5.101942836992e-03
5.101936948933e-03
5.101936804664e-03
5.101942404186e-03
5.101937040859e-03
5.101931856620e-03
5.101931712351e-03
5.101936608052e-03
5.101936988517e-03
5.101931804278e-03
5.101931660009e-03
5.101936555710e-03
5.101942679965e-03
5.101936791905e-03
5.101936647636e-03
5.101942247159e-03
5.101951644225e-03
5.101945461863e-03
5.101945317594e-03
5.101951211419e-03
5.101945553789e-03
5.101940026229e-03
5.101939881960e-03
5.101945120983e-03
5.101945501447e-03
5.101939973887e-03
5.101939829618e-03
5.101945068641e-03
5.101951487198e-03
5.101945304836e-03
5.101945160567e-03
5.101951054392e-03
5.101957859590e-03
5.101951568272e-03
5.101951424004e-03
5.101957426784e-03
5.101951660199e-03
5.101946071265e-03
5.101945926996e-03
5.101951227393e-03
5.101951607856e-03
5.101946018922e-03
5.101945874654e-03
5.101951175050e-03
5.101957702563e-03
5.101951411245e-03
5.101951266977e-03
5.101957269757e-03
SCALARS engineering_strain_norm float 1
LOOKUP_TABLE default
0.000000000000e+00
0.000000000000e+00
0.000000000000e+00
0.000000000000e+00
0.000000000000e+00
0.000000000000e+00
0.000000000000e+00
0.000000000000e+00
0.000000000000e+00
0.000000000000e+00
0.000000000000e+00
0.000000000000e+00
0.000000000000e+00
0.000000000000e+00
0.000000000000e+00
0.000000000000e+00
0.000000000000e+00
0.000000000000e+00
0.000000000000e+00
0.000000000000e+00
0.000000000000e+00
0.000000000000e+00
0.000000000000e+00
0.000000000000e+00
0.000000000000e+00
0.000000000000e+00
0.000000000000e+00
0.000000000000e+00
0.000000000000e+00
0.000000000000e+00
0.000000000000e+00
0.000000000000e+00
0.000000000000e+00
0.000000000000e+00
0.000000000000e+00
0.000000000000e+00
0.000000000000e+00
0.000000000000e+00
0.000000000000e+00
0.000000000000e+00
0.000000000000e+00
0.000000000000e+00
0.000000000000e+00
0.000000000000e+00
0.000000000000e+00
0.000000000000e+00
0.000000000000e+00
0.000000000000e+00
0.000000000000e+00
0.000000000000e+00
0.000000000000e+00
0.000000000000e+00
0.000000000000e+00
0.000000000000e+00
0.000000000000e+00
0.000000000000e+00
0.000000000000e+00
0.000000000000e+00
0.000000000000e+00
0.000000000000e+00
0.000000000000e+00
0.000000000000e+00
0.000000000000e+00
0.000000000000e+00
1.106994448846e-07
1.077931181268e-07
1.077931205374e-07
1.106994538218e-07
1.077931162598e-07
1.006877811021e-07
1.006877834646e-07
1.077931244838e-07
1.077931171619e-07
1.006877819789e-07
1.006877843631e-07
1.077931253874e-07
1.106994481552e-07
1.077931210963e-07
1.077931235424e-07
1.106994571096e-07
1.676410172810e-07
1.628544591715e-07
1.628544615149e-07
1.676410286985e-07
1.628544566169e-07
1.558486019735e-07
1.558486040346e-07
1.628544669394e-07
1.628544574816e-07
1.558486027537e-07
1.558486048397e-07
1.628544678219e-07
1.676410214398e-07
1.628544629087e-07
1.628544652674e-07
1.676410328490e-07
1.543247000470e-07
1.472531251023e-07
1.472531257452e-07
1.543247076639e-07
1.472531234005e-07
1.402443869940e-07
1.402443870820e-07
1.472531292858e-07
1.472531236508e-07
1.402443870617e-07
1.402443871547e-07
1.472531295557e-07
1.543247028369e-07
1.472531272063e-07
1.472531278625e-07
1.543247103870e-07
8.485575034443e-08
9.757353395524e-08
9.757353463311e-08
8.485575398128e-08
9.757353356732e-08
1.101028648273e-07
1.101028650825e-07
9.757353536286e-08
9.757353380563e-08
1.101028649384e-07
1.101028652191e-07
9.757353563386e-08
8.485575164331e-08
9.757353458907e-08
9.757353530155e-08
8.485575526108e-08
SCALARS von_mises float 1
LOOKUP_TABLE default
0.000000000000e+00
0.000000000000e+00
0.000000000000e+00
0.000000000000e+00
0.000000000000e+00
0.000000000000e+00
0.000000000000e+00
0.000000000000e+00
0.000000000000e+00
0.000000000000e+00
0.000000000000e+00
0.000000000000e+00
0.000000000000e+00
0.000000000000e+00
0.000000000000e+00
0.000000000000e+00
0.000000000000e+00
0.000000000000e+00
0.000000000000e+00
0.000000000000e+00
0.000000000000e+00
0.000000000000e+00
0.000000000000e+00
0.000000000000e+00
0.000000000000e+00
0.000000000000e+00
0.000000000000e+00
0.000000000000e+00
0.000000000000e+00
0.000000000000e+00
0.000000000000e+00
0.000000000000e+00
0.000000000000e+00
0.000000000000e+00
0.000000000000e+00
0.000000000000e+00
0.000000000000e+00
0.000000000000e+00
0.000000000000e+00
0.000000000000e+00
0.000000000000e+00
0.000000000000e+00
0.000000000000e+00
0.000000000000e+00
0.000000000000e+00
0.000000000000e+00
0.000000000000e+00
0.000000000000e+00
0.000000000000e+00
0.000000000000e+00
0.000000000000e+00
0.000000000000e+00
0.000000000000e+00
0.000000000000e+00
0.000000000000e+00
0.000000000000e+00
0.000000000000e+00
0.000000000000e+00
0.000000000000e+00
0.000000000000e+00
0.000000000000e+00
0.000000000000e+00
0.000000000000e+00
0.000000000000e+00
1.032133398571e-02
9.938427025821e-03
9.938427298315e-03
1.032133484408e-02
9.938426862212e-03
9.144557013119e-03
9.144557275273e-03
9.938427645956e-03
9.938426963537e-03
9.144557109092e-03
9.144557372355e-03
9.938427747260e-03
1.032133429974e-02
9.938427309409e-03
9.938427584353e-03
1.032133516023e-02
1.506601722500e-02
1.458920518771e-02
1.458920550680e-02
1.506601834532e-02
1.458920497359e-02
1.389604426178e-02
1.389604454247e-02
1.458920596248e-02
1.458920509044e-02
1.389604436550e-02
1.389604464728e-02
1.458920608038e-02
1.506601763333e-02
1.458920554637e-02
1.458920586547e-02
1.506601875347e-02
1.359493241011e-02
1.308429312557e-02
1.308429331819e-02
1.359493320741e-02
1.308429298600e-02
1.261277974761e-02
1.261277988577e-02
1.308429360811e-02
1.308429305693e-02
1.261277979996e-02
1.261277993739e-02
1.308429368054e-02
1.359493270225e-02
1.308429334886e-02
1.308429354170e-02
1.359493349479e-02
7.733867885410e-03
8.871909422971e-03
8.871909548933e-03
7.733868256704e-03
8.871909398368e-03
9.900143435524e-03
9.900143517222e-03
8.871909591998e-03
8.871909443018e-03
9.900143466348e-03
9.900143550349e-03
8.871909639319e-03
7.733868018412e-03
8.871909491438e-03
8.871909620556e-03
7.733868388639e-03
SCALARS sdf_gap float 1
LOOKUP_TABLE default
0.000000000000e+00
0.000000000000e+00
0.000000000000e+00
0.000000000000e+00
0.000000000000e+00
0.000000000000e+00
0.000000000000e+00
0.000000000000e+00
0.000000000000e+00
0.000000000000e+00
0.000000000000e+00
0.000000000000e+00
0.000000000000e+00
0.000000000000e+00
0.000000000000e+00
0.000000000000e+00
0.000000000000e+00
0.000000000000e+00
0.000000000000e+00
0.000000000000e+00
0.000000000000e+00
0.000000000000e+00
0.000000000000e+00
0.000000000000e+00
0.000000000000e+00
0.000000000000e+00
0.000000000000e+00
0.000000000000e+00
0.000000000000e+00
0.000000000000e+00
0.000000000000e+00
0.000000000000e+00
0.000000000000e+00
0.000000000000e+00
0.000000000000e+00
0.000000000000e+00
0.000000000000e+00
0.000000000000e+00
0.000000000000e+00
0.000000000000e+00
0.000000000000e+00
0.000000000000e+00
0.000000000000e+00
0.000000000000e+00
0.000000000000e+00
0.000000000000e+00
0.000000000000e+00
0.000000000000e+00
0.000000000000e+00
0.000000000000e+00
0.000000000000e+00
0.000000000000e+00
0.000000000000e+00
0.000000000000e+00
0.000000000000e+00
0.000000000000e+00
0.000000000000e+00
0.000000000000e+00
0.000000000000e+00
0.000000000000e+00
0.000000000000e+00
0.000000000000e+00
0.000000000000e+00
0.000000000000e+00
9.898067853275e-03
9.898073454246e-03
9.898073598515e-03
9.898068286083e-03
9.898073362319e-03
9.898078110593e-03
9.898078254862e-03
9.898073795127e-03
9.898073414662e-03
9.898078162935e-03
9.898078307204e-03
9.898073847470e-03
9.898068010303e-03
9.898073611274e-03
9.898073755543e-03
9.898068443110e-03
0.000000000000e+00
0.000000000000e+00
0.000000000000e+00
0.000000000000e+00
0.000000000000e+00
0.000000000000e+00
0.000000000000e+00
0.000000000000e+00
0.000000000000e+00
0.000000000000e+00
0.000000000000e+00
0.000000000000e+00
0.000000000000e+00
0.000000000000e+00
0.000000000000e+00
0.000000000000e+00
0.000000000000e+00
0.000000000000e+00
0.000000000000e+00
0.000000000000e+00
0.000000000000e+00
0.000000000000e+00
0.000000000000e+00
0.000000000000e+00
0.000000000000e+00
0.000000000000e+00
0.000000000000e+00
0.000000000000e+00
0.000000000000e+00
0.000000000000e+00
0.000000000000e+00
0.000000000000e+00
0.000000000000e+00
0.000000000000e+00
0.000000000000e+00
0.000000000000e+00
0.000000000000e+00
0.000000000000e+00
0.000000000000e+00
0.000000000000e+00
0.000000000000e+00
0.000000000000e+00
0.000000000000e+00
0.000000000000e+00
0.000000000000e+00
0.000000000000e+00
0.000000000000e+00
0.000000000000e+00
SCALARS contact_pressure float 1
LOOKUP_TABLE default
0.000000000000e+00
0.000000000000e+00
0.000000000000e+00
0.000000000000e+00
0.000000000000e+00
0.000000000000e+00
0.000000000000e+00
0.000000000000e+00
0.000000000000e+00
0.000000000000e+00
0.000000000000e+00
0.000000000000e+00
0.000000000000e+00
0.000000000000e+00
0.000000000000e+00
0.000000000000e+00
0.000000000000e+00
0.000000000000e+00
0.000000000000e+00
0.000000000000e+00
0.000000000000e+00
0.000000000000e+00
0.000000000000e+00
0.000000000000e+00
0.000000000000e+00
0.000000000000e+00
0.000000000000e+00
0.000000000000e+00
0.000000000000e+00
0.000000000000e+00
0.000000000000e+00
0.000000000000e+00
0.000000000000e+00
0.000000000000e+00
0.000000000000e+00
0.000000000000e+00
0.000000000000e+00
0.000000000000e+00
0.000000000000e+00
0.000000000000e+00
0.000000000000e+00
0.000000000000e+00
0.000000000000e+00
0.000000000000e+00
0.000000000000e+00
0.000000000000e+00
0.000000000000e+00
0.000000000000e+00
0.000000000000e+00
0.000000000000e+00
0.000000000000e+00
0.000000000000e+00
0.000000000000e+00
0.000000000000e+00
0.000000000000e+00
0.000000000000e+00
0.000000000000e+00
0.000000000000e+00
0.000000000000e+00
0.000000000000e+00
0.000000000000e+00
0.000000000000e+00
0.000000000000e+00
0.000000000000e+00
0.000000000000e+00
0.000000000000e+00
0.000000000000e+00
0.000000000000e+00
0.000000000000e+00
0.000000000000e+00
0.000000000000e+00
0.000000000000e+00
0.000000000000e+00
0.000000000000e+00
0.000000000000e+00
0.000000000000e+00
0.000000000000e+00
0.000000000000e+00
0.000000000000e+00
0.000000000000e+00
0.000000000000e+00
0.000000000000e+00
0.000000000000e+00
0.000000000000e+00
0.000000000000e+00
0.000000000000e+00
0.000000000000e+00
0.000000000000e+00
0.000000000000e+00
0.000000000000e+00
0.000000000000e+00
0.000000000000e+00
0.000000000000e+00
0.000000000000e+00
0.000000000000e+00
0.000000000000e+00
0.000000000000e+00
0.000000000000e+00
0.000000000000e+00
0.000000000000e+00
0.000000000000e+00
0.000000000000e+00
0.000000000000e+00
0.000000000000e+00
0.000000000000e+00
0.000000000000e+00
0.000000000000e+00
0.000000000000e+00
0.000000000000e+00
0.000000000000e+00
0.000000000000e+00
0.000000000000e+00
0.000000000000e+00
0.000000000000e+00
0.000000000000e+00
0.000000000000e+00
0.000000000000e+00
0.000000000000e+00
0.000000000000e+00
0.000000000000e+00
0.000000000000e+00
0.000000000000e+00
0.000000000000e+00
0.000000000000e+00
0.000000000000e+00
0.000000000000e+00
0.000000000000e+00
0.000000000000e+00
SCALARS active_contact float 1
LOOKUP_TABLE default
0.000000000000e+00
0.000000000000e+00
0.000000000000e+00
0.000000000000e+00
0.000000000000e+00
0.000000000000e+00
0.000000000000e+00
0.000000000000e+00
0.000000000000e+00
0.000000000000e+00
0.000000000000e+00
0.000000000000e+00
0.000000000000e+00
0.000000000000e+00
0.000000000000e+00
0.000000000000e+00
0.000000000000e+00
0.000000000000e+00
0.000000000000e+00
0.000000000000e+00
0.000000000000e+00
0.000000000000e+00
0.000000000000e+00
0.000000000000e+00
0.000000000000e+00
0.000000000000e+00
0.000000000000e+00
0.000000000000e+00
0.000000000000e+00
0.000000000000e+00
0.000000000000e+00
0.000000000000e+00
0.000000000000e+00
0.000000000000e+00
0.000000000000e+00
0.000000000000e+00
0.000000000000e+00
0.000000000000e+00
0.000000000000e+00
0.000000000000e+00
0.000000000000e+00
0.000000000000e+00
0.000000000000e+00
0.000000000000e+00
0.000000000000e+00
0.000000000000e+00
0.000000000000e+00
0.000000000000e+00
0.000000000000e+00
0.000000000000e+00
0.000000000000e+00
0.000000000000e+00
0.000000000000e+00
0.000000000000e+00
0.000000000000e+00
0.000000000000e+00
0.000000000000e+00
0.000000000000e+00
0.000000000000e+00
0.000000000000e+00
0.000000000000e+00
0.000000000000e+00
0.000000000000e+00
0.000000000000e+00
0.000000000000e+00
0.000000000000e+00
0.000000000000e+00
0.000000000000e+00
0.000000000000e+00
0.000000000000e+00
0.000000000000e+00
0.000000000000e+00
0.000000000000e+00
0.000000000000e+00
0.000000000000e+00
0.000000000000e+00
0.000000000000e+00
0.000000000000e+00
0.000000000000e+00
0.000000000000e+00
0.000000000000e+00
0.000000000000e+00
0.000000000000e+00
0.000000000000e+00
0.000000000000e+00
0.000000000000e+00
0.000000000000e+00
0.000000000000e+00
0.000000000000e+00
0.000000000000e+00
0.000000000000e+00
0.000000000000e+00
0.000000000000e+00
0.000000000000e+00
0.000000000000e+00
0.000000000000e+00
0.000000000000e+00
0.000000000000e+00
0.000000000000e+00
0.000000000000e+00
0.000000000000e+00
0.000000000000e+00
0.000000000000e+00
0.000000000000e+00
0.000000000000e+00
0.000000000000e+00
0.000000000000e+00
0.000000000000e+00
0.000000000000e+00
0.000000000000e+00
0.000000000000e+00
0.000000000000e+00
0.000000000000e+00
0.000000000000e+00
0.000000000000e+00
0.000000000000e+00
0.000000000000e+00
0.000000000000e+00
0.000000000000e+00
0.000000000000e+00
0.000000000000e+00
0.000000000000e+00
0.000000000000e+00
0.000000000000e+00
0.000000000000e+00
0.000000000000e+00
0.000000000000e+00
0.000000000000e+00
