# vtk DataFile Version 3.0
SFC long-time C3D8 dynamic frame 42 t=8.400000000000e-01
ASCII
DATASET UNSTRUCTURED_GRID
POINTS 250 float
-2.500000000000e-01 -2.500000000000e-01 0.000000000000e+00
-1.250000000000e-01 -2.500000000000e-01 0.000000000000e+00
0.000000000000e+00 -2.500000000000e-01 0.000000000000e+00
1.250000000000e-01 -2.500000000000e-01 0.000000000000e+00
2.500000000000e-01 -2.500000000000e-01 0.000000000000e+00
-2.500000000000e-01 -1.250000000000e-01 0.000000000000e+00
-1.250000000000e-01 -1.250000000000e-01 0.000000000000e+00
0.000000000000e+00 -1.250000000000e-01 0.000000000000e+00
1.250000000000e-01 -1.250000000000e-01 0.000000000000e+00
2.500000000000e-01 -1.250000000000e-01 0.000000000000e+00
-2.500000000000e-01 0.000000000000e+00 0.000000000000e+00
-1.250000000000e-01 0.000000000000e+00 0.000000000000e+00
0.000000000000e+00 0.000000000000e+00 0.000000000000e+00
1.250000000000e-01 0.000000000000e+00 0.000000000000e+00
2.500000000000e-01 0.000000000000e+00 0.000000000000e+00
-2.500000000000e-01 1.250000000000e-01 0.000000000000e+00
-1.250000000000e-01 1.250000000000e-01 0.000000000000e+00
0.000000000000e+00 1.250000000000e-01 0.000000000000e+00
1.250000000000e-01 1.250000000000e-01 0.000000000000e+00
2.500000000000e-01 1.250000000000e-01 0.000000000000e+00
-2.500000000000e-01 2.500000000000e-01 0.000000000000e+00
-1.250000000000e-01 2.500000000000e-01 0.000000000000e+00
0.000000000000e+00 2.500000000000e-01 0.000000000000e+00
1.250000000000e-01 2.500000000000e-01 0.000000000000e+00
2.500000000000e-01 2.500000000000e-01 0.000000000000e+00
-2.500000000000e-01 -2.500000000000e-01 6.000000000000e-02
-1.250000000000e-01 -2.500000000000e-01 6.000000000000e-02
0.000000000000e+00 -2.500000000000e-01 6.000000000000e-02
1.250000000000e-01 -2.500000000000e-01 6.000000000000e-02
2.500000000000e-01 -2.500000000000e-01 6.000000000000e-02
-2.500000000000e-01 -1.250000000000e-01 6.000000000000e-02
-1.250000000000e-01 -1.250000000000e-01 6.000000000000e-02
0.000000000000e+00 -1.250000000000e-01 6.000000000000e-02
1.250000000000e-01 -1.250000000000e-01 6.000000000000e-02
2.500000000000e-01 -1.250000000000e-01 6.000000000000e-02
-2.500000000000e-01 0.000000000000e+00 6.000000000000e-02
-1.250000000000e-01 0.000000000000e+00 6.000000000000e-02
0.000000000000e+00 0.000000000000e+00 6.000000000000e-02
1.250000000000e-01 0.000000000000e+00 6.000000000000e-02
2.500000000000e-01 0.000000000000e+00 6.000000000000e-02
-2.500000000000e-01 1.250000000000e-01 6.000000000000e-02
-1.250000000000e-01 1.250000000000e-01 6.000000000000e-02
0.000000000000e+00 1.250000000000e-01 6.000000000000e-02
1.250000000000e-01 1.250000000000e-01 6.000000000000e-02
2.500000000000e-01 1.250000000000e-01 6.000000000000e-02
-2.500000000000e-01 2.500000000000e-01 6.000000000000e-02
-1.250000000000e-01 2.500000000000e-01 6.000000000000e-02
0.000000000000e+00 2.500000000000e-01 6.000000000000e-02
1.250000000000e-01 2.500000000000e-01 6.000000000000e-02
2.500000000000e-01 2.500000000000e-01 6.000000000000e-02
-2.500000000000e-01 -2.500000000000e-01 1.200000000000e-01
-1.250000000000e-01 -2.500000000000e-01 1.200000000000e-01
0.000000000000e+00 -2.500000000000e-01 1.200000000000e-01
1.250000000000e-01 -2.500000000000e-01 1.200000000000e-01
2.500000000000e-01 -2.500000000000e-01 1.200000000000e-01
-2.500000000000e-01 -1.250000000000e-01 1.200000000000e-01
-1.250000000000e-01 -1.250000000000e-01 1.200000000000e-01
0.000000000000e+00 -1.250000000000e-01 1.200000000000e-01
1.250000000000e-01 -1.250000000000e-01 1.200000000000e-01
2.500000000000e-01 -1.250000000000e-01 1.200000000000e-01
-2.500000000000e-01 0.000000000000e+00 1.200000000000e-01
-1.250000000000e-01 0.000000000000e+00 1.200000000000e-01
0.000000000000e+00 0.000000000000e+00 1.200000000000e-01
1.250000000000e-01 0.000000000000e+00 1.200000000000e-01
2.500000000000e-01 0.000000000000e+00 1.200000000000e-01
-2.500000000000e-01 1.250000000000e-01 1.200000000000e-01
-1.250000000000e-01 1.250000000000e-01 1.200000000000e-01
0.000000000000e+00 1.250000000000e-01 1.200000000000e-01
1.250000000000e-01 1.250000000000e-01 1.200000000000e-01
2.500000000000e-01 1.250000000000e-01 1.200000000000e-01
-2.500000000000e-01 2.500000000000e-01 1.200000000000e-01
-1.250000000000e-01 2.500000000000e-01 1.200000000000e-01
0.000000000000e+00 2.500000000000e-01 1.200000000000e-01
1.250000000000e-01 2.500000000000e-01 1.200000000000e-01
2.500000000000e-01 2.500000000000e-01 1.200000000000e-01
-2.500000000000e-01 -2.500000000000e-01 1.800000000000e-01
-1.250000000000e-01 -2.500000000000e-01 1.800000000000e-01
0.000000000000e+00 -2.500000000000e-01 1.800000000000e-01
1.250000000000e-01 -2.500000000000e-01 1.800000000000e-01
2.500000000000e-01 -2.500000000000e-01 1.800000000000e-01
-2.500000000000e-01 -1.250000000000e-01 1.800000000000e-01
-1.250000000000e-01 -1.250000000000e-01 1.800000000000e-01
0.000000000000e+00 -1.250000000000e-01 1.800000000000e-01
1.250000000000e-01 -1.250000000000e-01 1.800000000000e-01
2.500000000000e-01 -1.250000000000e-01 1.800000000000e-01
-2.500000000000e-01 0.000000000000e+00 1.800000000000e-01
-1.250000000000e-01 0.000000000000e+00 1.800000000000e-01
0.000000000000e+00 0.000000000000e+00 1.800000000000e-01
1.250000000000e-01 0.000000000000e+00 1.800000000000e-01
2.500000000000e-01 0.000000000000e+00 1.800000000000e-01
-2.500000000000e-01 1.250000000000e-01 1.800000000000e-01
-1.250000000000e-01 1.250000000000e-01 1.800000000000e-01
0.000000000000e+00 1.250000000000e-01 1.800000000000e-01
1.250000000000e-01 1.250000000000e-01 1.800000000000e-01
2.500000000000e-01 1.250000000000e-01 1.800000000000e-01
-2.500000000000e-01 2.500000000000e-01 1.800000000000e-01
-1.250000000000e-01 2.500000000000e-01 1.800000000000e-01
0.000000000000e+00 2.500000000000e-01 1.800000000000e-01
1.250000000000e-01 2.500000000000e-01 1.800000000000e-01
2.500000000000e-01 2.500000000000e-01 1.800000000000e-01
-2.500000000000e-01 -2.500000000000e-01 2.400000000000e-01
-1.250000000000e-01 -2.500000000000e-01 2.400000000000e-01
0.000000000000e+00 -2.500000000000e-01 2.400000000000e-01
1.250000000000e-01 -2.500000000000e-01 2.400000000000e-01
2.500000000000e-01 -2.500000000000e-01 2.400000000000e-01
-2.500000000000e-01 -1.250000000000e-01 2.400000000000e-01
-1.250000000000e-01 -1.250000000000e-01 2.400000000000e-01
0.000000000000e+00 -1.250000000000e-01 2.400000000000e-01
1.250000000000e-01 -1.250000000000e-01 2.400000000000e-01
2.500000000000e-01 -1.250000000000e-01 2.400000000000e-01
-2.500000000000e-01 0.000000000000e+00 2.400000000000e-01
-1.250000000000e-01 0.000000000000e+00 2.400000000000e-01
0.000000000000e+00 0.000000000000e+00 2.400000000000e-01
1.250000000000e-01 0.000000000000e+00 2.400000000000e-01
2.500000000000e-01 0.000000000000e+00 2.400000000000e-01
-2.500000000000e-01 1.250000000000e-01 2.400000000000e-01
-1.250000000000e-01 1.250000000000e-01 2.400000000000e-01
0.000000000000e+00 1.250000000000e-01 2.400000000000e-01
1.250000000000e-01 1.250000000000e-01 2.400000000000e-01
2.500000000000e-01 1.250000000000e-01 2.400000000000e-01
-2.500000000000e-01 2.500000000000e-01 2.400000000000e-01
-1.250000000000e-01 2.500000000000e-01 2.400000000000e-01
0.000000000000e+00 2.500000000000e-01 2.400000000000e-01
1.250000000000e-01 2.500000000000e-01 2.400000000000e-01
2.500000000000e-01 2.500000000000e-01 2.400000000000e-01
-2.500014903929e-01 -2.500014903929e-01 2.399573191964e-01
-1.250007411024e-01 -2.500015073060e-01 2.399569212964e-01
1.007506348357e-14 -2.500015241492e-01 2.399568063644e-01
1.250007411025e-01 -2.500015073060e-01 2.399569212964e-01
2.500014903929e-01 -2.500014903929e-01 2.399573191964e-01
-2.500015073060e-01 -1.250007411025e-01 2.399569212964e-01
-1.250007448548e-01 -1.250007448548e-01 2.399565091250e-01
9.547002566103e-15 -1.250007545470e-01 2.399563861891e-01
1.250007448548e-01 -1.250007448548e-01 2.399565091250e-01
2.500015073060e-01 -1.250007411025e-01 2.399569212964e-01
-2.500015241492e-01 -1.323552935632e-14 2.399568063644e-01
-1.250007545470e-01 -1.271035023021e-14 2.399563861891e-01
9.022744553892e-15 -1.218294421246e-14 2.399562610752e-01
1.250007545470e-01 -1.164843219221e-14 2.399563861891e-01
2.500015241492e-01 -1.111469644984e-14 2.399568063644e-01
-2.500015073060e-01 1.250007411024e-01 2.399569212964e-01
-1.250007448548e-01 1.250007448548e-01 2.399565091250e-01
8.500832001315e-15 1.250007545470e-01 2.399563861891e-01
1.250007448548e-01 1.250007448548e-01 2.399565091250e-01
2.500015073060e-01 1.250007411024e-01 2.399569212964e-01
-2.500014903929e-01 2.500014903929e-01 2.399573191964e-01
-1.250007411024e-01 2.500015073060e-01 2.399569212964e-01
7.978926679830e-15 2.500015241492e-01 2.399568063644e-01
1.250007411025e-01 2.500015073060e-01 2.399569212964e-01
2.500014903929e-01 2.500014903929e-01 2.399573191964e-01
-2.500012153150e-01 -2.500012153150e-01 3.049560913102e-01
-1.250005932276e-01 -2.500012279874e-01 3.049556785598e-01
1.008326006937e-14 -2.500012406585e-01 3.049555675860e-01
1.250005932276e-01 -2.500012279874e-01 3.049556785598e-01
2.500012153150e-01 -2.500012153150e-01 3.049560913102e-01
-2.500012279874e-01 -1.250005932276e-01 3.049556785598e-01
-1.250005937079e-01 -1.250005937080e-01 3.049552536413e-01
9.553911409667e-15 -1.250006002279e-01 3.049551361161e-01
1.250005937080e-01 -1.250005937080e-01 3.049552536413e-01
2.500012279874e-01 -1.250005932276e-01 3.049556785598e-01
-2.500012406585e-01 -1.322405799760e-14 3.049555675860e-01
-1.250006002279e-01 -1.269914824448e-14 3.049551361161e-01
9.024311152846e-15 -1.216900353509e-14 3.049550167187e-01
1.250006002279e-01 -1.163810635182e-14 3.049551361161e-01
2.500012406585e-01 -1.110989272153e-14 3.049555675860e-01
-2.500012279874e-01 1.250005932276e-01 3.049556785598e-01
-1.250005937079e-01 1.250005937079e-01 3.049552536413e-01
8.504589358584e-15 1.250006002279e-01 3.049551361161e-01
1.250005937080e-01 1.250005937079e-01 3.049552536413e-01
2.500012279874e-01 1.250005932276e-01 3.049556785598e-01
-2.500012153150e-01 2.500012153150e-01 3.049560913102e-01
-1.250005932276e-01 2.500012279874e-01 3.049556785598e-01
7.982562288799e-15 2.500012406585e-01 3.049555675860e-01
1.250005932276e-01 2.500012279874e-01 3.049556785598e-01
2.500012153150e-01 2.500012153150e-01 3.049560913102e-01
-2.500008670086e-01 -2.500008670087e-01 3.699551671326e-01
-1.250004286836e-01 -2.500008706051e-01 3.699547444407e-01
1.009379809205e-14 -2.500008761622e-01 3.699546401125e-01
1.250004286836e-01 -2.500008706051e-01 3.699547444407e-01
2.500008670086e-01 -2.500008670086e-01 3.699551671326e-01
-2.500008706051e-01 -1.250004286836e-01 3.699547444407e-01
-1.250004288176e-01 -1.250004288176e-01 3.699543108458e-01
9.562455590955e-15 -1.250004317639e-01 3.699542012632e-01
1.250004288176e-01 -1.250004288176e-01 3.699543108458e-01
2.500008706051e-01 -1.250004286836e-01 3.699547444407e-01
-2.500008761622e-01 -1.321107221446e-14 3.699546401125e-01
-1.250004317639e-01 -1.268552347658e-14 3.699542012632e-01
9.030321235484e-15 -1.215790273153e-14 3.699540907095e-01
1.250004317639e-01 -1.162945955609e-14 3.699542012632e-01
2.500008761622e-01 -1.110020749888e-14 3.699546401125e-01
-2.500008706051e-01 1.250004286836e-01 3.699547444407e-01
-1.250004288176e-01 1.250004288176e-01 3.699543108458e-01
8.509292036059e-15 1.250004317639e-01 3.699542012632e-01
1.250004288176e-01 1.250004288176e-01 3.699543108458e-01
2.500008706051e-01 1.250004286836e-01 3.699547444407e-01
-2.500008670086e-01 2.500008670086e-01 3.699551671326e-01
-1.250004286836e-01 2.500008706051e-01 3.699547444407e-01
7.986175367928e-15 2.500008761622e-01 3.699546401125e-01
1.250004286836e-01 2.500008706051e-01 3.699547444407e-01
2.500008670086e-01 2.500008670086e-01 3.699551671326e-01
-2.500005097191e-01 -2.500005097191e-01 4.349545750480e-01
-1.250002658246e-01 -2.500005042549e-01 4.349541593486e-01
1.010616443945e-14 -2.500005026776e-01 4.349540514477e-01
1.250002658247e-01 -2.500005042549e-01 4.349541593486e-01
2.500005097191e-01 -2.500005097191e-01 4.349545750480e-01
-2.500005042548e-01 -1.250002658247e-01 4.349541593486e-01
-1.250002658282e-01 -1.250002658283e-01 4.349537335293e-01
9.572353864486e-15 -1.250002654795e-01 4.349536203125e-01
1.250002658283e-01 -1.250002658283e-01 4.349537335293e-01
2.500005042549e-01 -1.250002658247e-01 4.349541593486e-01
-2.500005026776e-01 -1.319418666957e-14 4.349540514477e-01
-1.250002654795e-01 -1.267273134837e-14 4.349536203125e-01
9.040578438678e-15 -1.214493824256e-14 4.349535059089e-01
1.250002654795e-01 -1.161999059614e-14 4.349536203125e-01
2.500005026776e-01 -1.108883901776e-14 4.349540514477e-01
-2.500005042548e-01 1.250002658246e-01 4.349541593486e-01
-1.250002658282e-01 1.250002658282e-01 4.349537335293e-01
8.516317116281e-15 1.250002654795e-01 4.349536203125e-01
1.250002658283e-01 1.250002658282e-01 4.349537335293e-01
2.500005042549e-01 1.250002658246e-01 4.349541593486e-01
-2.500005097191e-01 2.500005097191e-01 4.349545750480e-01
-1.250002658246e-01 2.500005042548e-01 4.349541593486e-01
7.992617952702e-15 2.500005026775e-01 4.349540514477e-01
1.250002658247e-01 2.500005042548e-01 4.349541593486e-01
2.500005097191e-01 2.500005097191e-01 4.349545750480e-01
-2.500002235038e-01 -2.500002235038e-01 4.999543428833e-01
-1.250001190670e-01 -2.500002146601e-01 4.999539343093e-01
1.011935124392e-14 -2.500002094370e-01 4.999538205574e-01
1.250001190670e-01 -2.500002146601e-01 4.999539343093e-01
2.500002235038e-01 -2.500002235038e-01 4.999543428833e-01
-2.500002146601e-01 -1.250001190670e-01 4.999539343093e-01
-1.250001167374e-01 -1.250001167374e-01 4.999535152407e-01
9.585008871915e-15 -1.250001139180e-01 4.999533954724e-01
1.250001167374e-01 -1.250001167374e-01 4.999535152407e-01
2.500002146601e-01 -1.250001190670e-01 4.999539343093e-01
-2.500002094369e-01 -1.317651673626e-14 4.999538205574e-01
-1.250001139180e-01 -1.265476419500e-14 4.999533954724e-01
9.052352684562e-15 -1.214034512123e-14 4.999532741169e-01
1.250001139180e-01 -1.160968743000e-14 4.999533954724e-01
2.500002094370e-01 -1.108033898686e-14 4.999538205574e-01
-2.500002146601e-01 1.250001190670e-01 4.999539343093e-01
-1.250001167374e-01 1.250001167374e-01 4.999535152407e-01
8.519256480702e-15 1.250001139180e-01 4.999533954724e-01
1.250001167374e-01 1.250001167374e-01 4.999535152407e-01
2.500002146601e-01 1.250001190670e-01 4.999539343093e-01
-2.500002235038e-01 2.500002235038e-01 4.999543428833e-01
-1.250001190670e-01 2.500002146601e-01 4.999539343093e-01
7.996018914012e-15 2.500002094369e-01 4.999538205574e-01
1.250001190670e-01 2.500002146601e-01 4.999539343093e-01
2.500002235038e-01 2.500002235038e-01 4.999543428833e-01
CELLS 128 1152
8 0 1 6 5 25 26 31 30
8 1 2 7 6 26 27 32 31
8 2 3 8 7 27 28 33 32
8 3 4 9 8 28 29 34 33
8 5 6 11 10 30 31 36 35
8 6 7 12 11 31 32 37 36
8 7 8 13 12 32 33 38 37
8 8 9 14 13 33 34 39 38
8 10 11 16 15 35 36 41 40
8 11 12 17 16 36 37 42 41
8 12 13 18 17 37 38 43 42
8 13 14 19 18 38 39 44 43
8 15 16 21 20 40 41 46 45
8 16 17 22 21 41 42 47 46
8 17 18 23 22 42 43 48 47
8 18 19 24 23 43 44 49 48
8 25 26 31 30 50 51 56 55
8 26 27 32 31 51 52 57 56
8 27 28 33 32 52 53 58 57
8 28 29 34 33 53 54 59 58
8 30 31 36 35 55 56 61 60
8 31 32 37 36 56 57 62 61
8 32 33 38 37 57 58 63 62
8 33 34 39 38 58 59 64 63
8 35 36 41 40 60 61 66 65
8 36 37 42 41 61 62 67 66
8 37 38 43 42 62 63 68 67
8 38 39 44 43 63 64 69 68
8 40 41 46 45 65 66 71 70
8 41 42 47 46 66 67 72 71
8 42 43 48 47 67 68 73 72
8 43 44 49 48 68 69 74 73
8 50 51 56 55 75 76 81 80
8 51 52 57 56 76 77 82 81
8 52 53 58 57 77 78 83 82
8 53 54 59 58 78 79 84 83
8 55 56 61 60 80 81 86 85
8 56 57 62 61 81 82 87 86
8 57 58 63 62 82 83 88 87
8 58 59 64 63 83 84 89 88
8 60 61 66 65 85 86 91 90
8 61 62 67 66 86 87 92 91
8 62 63 68 67 87 88 93 92
8 63 64 69 68 88 89 94 93
8 65 66 71 70 90 91 96 95
8 66 67 72 71 91 92 97 96
8 67 68 73 72 92 93 98 97
8 68 69 74 73 93 94 99 98
8 75 76 81 80 100 101 106 105
8 76 77 82 81 101 102 107 106
8 77 78 83 82 102 103 108 107
8 78 79 84 83 103 104 109 108
8 80 81 86 85 105 106 111 110
8 81 82 87 86 106 107 112 111
8 82 83 88 87 107 108 113 112
8 83 84 89 88 108 109 114 113
8 85 86 91 90 110 111 116 115
8 86 87 92 91 111 112 117 116
8 87 88 93 92 112 113 118 117
8 88 89 94 93 113 114 119 118
8 90 91 96 95 115 116 121 120
8 91 92 97 96 116 117 122 121
8 92 93 98 97 117 118 123 122
8 93 94 99 98 118 119 124 123
8 125 126 131 130 150 151 156 155
8 126 127 132 131 151 152 157 156
8 127 128 133 132 152 153 158 157
8 128 129 134 133 153 154 159 158
8 130 131 136 135 155 156 161 160
8 131 132 137 136 156 157 162 161
8 132 133 138 137 157 158 163 162
8 133 134 139 138 158 159 164 163
8 135 136 141 140 160 161 166 165
8 136 137 142 141 161 162 167 166
8 137 138 143 142 162 163 168 167
8 138 139 144 143 163 164 169 168
8 140 141 146 145 165 166 171 170
8 141 142 147 146 166 167 172 171
8 142 143 148 147 167 168 173 172
8 143 144 149 148 168 169 174 173
8 150 151 156 155 175 176 181 180
8 151 152 157 156 176 177 182 181
8 152 153 158 157 177 178 183 182
8 153 154 159 158 178 179 184 183
8 155 156 161 160 180 181 186 185
8 156 157 162 161 181 182 187 186
8 157 158 163 162 182 183 188 187
8 158 159 164 163 183 184 189 188
8 160 161 166 165 185 186 191 190
8 161 162 167 166 186 187 192 191
8 162 163 168 167 187 188 193 192
8 163 164 169 168 188 189 194 193
8 165 166 171 170 190 191 196 195
8 166 167 172 171 191 192 197 196
8 167 168 173 172 192 193 198 197
8 168 169 174 173 193 194 199 198
8 175 176 181 180 200 201 206 205
8 176 177 182 181 201 202 207 206
8 177 178 183 182 202 203 208 207
8 178 179 184 183 203 204 209 208
8 180 181 186 185 205 206 211 210
8 181 182 187 186 206 207 212 211
8 182 183 188 187 207 208 213 212
8 183 184 189 188 208 209 214 213
8 185 186 191 190 210 211 216 215
8 186 187 192 191 211 212 217 216
8 187 188 193 192 212 213 218 217
8 188 189 194 193 213 214 219 218
8 190 191 196 195 215 216 221 220
8 191 192 197 196 216 217 222 221
8 192 193 198 197 217 218 223 222
8 193 194 199 198 218 219 224 223
8 200 201 206 205 225 226 231 230
8 201 202 207 206 226 227 232 231
8 202 203 208 207 227 228 233 232
8 203 204 209 208 228 229 234 233
8 205 206 211 210 230 231 236 235
8 206 207 212 211 231 232 237 236
8 207 208 213 212 232 233 238 237
8 208 209 214 213 233 234 239 238
8 210 211 216 215 235 236 241 240
8 211 212 217 216 236 237 242 241
8 212 213 218 217 237 238 243 242
8 213 214 219 218 238 239 244 243
8 215 216 221 220 240 241 246 245
8 216 217 222 221 241 242 247 246
8 217 218 223 222 242 243 248 247
8 218 219 224 223 243 244 249 248
CELL_TYPES 128
12
12
12
12
12
12
12
12
12
12
12
12
12
12
12
12
12
12
12
12
12
12
12
12
12
12
12
12
12
12
12
12
12
12
12
12
12
12
12
12
12
12
12
12
12
12
12
12
12
12
12
12
12
12
12
12
12
12
12
12
12
12
12
12
12
12
12
12
12
12
12
12
12
12
12
12
12
12
12
12
12
12
12
12
12
12
12
12
12
12
12
12
12
12
12
12
12
12
12
12
12
12
12
12
12
12
12
12
12
12
12
12
12
12
12
12
12
12
12
12
12
12
12
12
12
12
12
12
POINT_DATA 250
VECTORS displacement float
0.000000000000e+00 0.000000000000e+00 0.000000000000e+00
0.000000000000e+00 0.000000000000e+00 0.000000000000e+00
0.000000000000e+00 0.000000000000e+00 0.000000000000e+00
0.000000000000e+00 0.000000000000e+00 0.000000000000e+00
0.000000000000e+00 0.000000000000e+00 0.000000000000e+00
0.000000000000e+00 0.000000000000e+00 0.000000000000e+00
0.000000000000e+00 0.000000000000e+00 0.000000000000e+00
0.000000000000e+00 0.000000000000e+00 0.000000000000e+00
0.000000000000e+00 0.000000000000e+00 0.000000000000e+00
0.000000000000e+00 0.000000000000e+00 0.000000000000e+00
0.000000000000e+00 0.000000000000e+00 0.000000000000e+00
0.000000000000e+00 0.000000000000e+00 0.000000000000e+00
0.000000000000e+00 0.000000000000e+00 0.000000000000e+00
0.000000000000e+00 0.000000000000e+00 0.000000000000e+00
0.000000000000e+00 0.000000000000e+00 0.000000000000e+00
0.000000000000e+00 0.000000000000e+00 0.000000000000e+00
0.000000000000e+00 0.000000000000e+00 0.000000000000e+00
0.000000000000e+00 0.000000000000e+00 0.000000000000e+00
0.000000000000e+00 0.000000000000e+00 0.000000000000e+00
0.000000000000e+00 0.000000000000e+00 0.000000000000e+00
0.000000000000e+00 0.000000000000e+00 0.000000000000e+00
0.000000000000e+00 0.000000000000e+00 0.000000000000e+00
0.000000000000e+00 0.000000000000e+00 0.000000000000e+00
0.000000000000e+00 0.000000000000e+00 0.000000000000e+00
0.000000000000e+00 0.000000000000e+00 0.000000000000e+00
0.000000000000e+00 0.000000000000e+00 0.000000000000e+00
0.000000000000e+00 0.000000000000e+00 0.000000000000e+00
0.000000000000e+00 0.000000000000e+00 0.000000000000e+00
0.000000000000e+00 0.000000000000e+00 0.000000000000e+00
0.000000000000e+00 0.000000000000e+00 0.000000000000e+00
0.000000000000e+00 0.000000000000e+00 0.000000000000e+00
0.000000000000e+00 0.000000000000e+00 0.000000000000e+00
0.000000000000e+00 0.000000000000e+00 0.000000000000e+00
0.000000000000e+00 0.000000000000e+00 0.000000000000e+00
0.000000000000e+00 0.000000000000e+00 0.000000000000e+00
0.000000000000e+00 0.000000000000e+00 0.000000000000e+00
0.000000000000e+00 0.000000000000e+00 0.000000000000e+00
0.000000000000e+00 0.000000000000e+00 0.000000000000e+00
0.000000000000e+00 0.000000000000e+00 0.000000000000e+00
0.000000000000e+00 0.000000000000e+00 0.000000000000e+00
0.000000000000e+00 0.000000000000e+00 0.000000000000e+00
0.000000000000e+00 0.000000000000e+00 0.000000000000e+00
0.000000000000e+00 0.000000000000e+00 0.000000000000e+00
0.000000000000e+00 0.000000000000e+00 0.000000000000e+00
0.000000000000e+00 0.000000000000e+00 0.000000000000e+00
0.000000000000e+00 0.000000000000e+00 0.000000000000e+00
0.000000000000e+00 0.000000000000e+00 0.000000000000e+00
0.000000000000e+00 0.000000000000e+00 0.000000000000e+00
0.000000000000e+00 0.000000000000e+00 0.000000000000e+00
0.000000000000e+00 0.000000000000e+00 0.000000000000e+00
0.000000000000e+00 0.000000000000e+00 0.000000000000e+00
0.000000000000e+00 0.000000000000e+00 0.000000000000e+00
0.000000000000e+00 0.000000000000e+00 0.000000000000e+00
0.000000000000e+00 0.000000000000e+00 0.000000000000e+00
0.000000000000e+00 0.000000000000e+00 0.000000000000e+00
0.000000000000e+00 0.000000000000e+00 0.000000000000e+00
0.000000000000e+00 0.000000000000e+00 0.000000000000e+00
0.000000000000e+00 0.000000000000e+00 0.000000000000e+00
0.000000000000e+00 0.000000000000e+00 0.000000000000e+00
0.000000000000e+00 0.000000000000e+00 0.000000000000e+00
0.000000000000e+00 0.000000000000e+00 0.000000000000e+00
0.000000000000e+00 0.000000000000e+00 0.000000000000e+00
0.000000000000e+00 0.000000000000e+00 0.000000000000e+00
0.000000000000e+00 0.000000000000e+00 0.000000000000e+00
0.000000000000e+00 0.000000000000e+00 0.000000000000e+00
0.000000000000e+00 0.000000000000e+00 0.000000000000e+00
0.000000000000e+00 0.000000000000e+00 0.000000000000e+00
0.000000000000e+00 0.000000000000e+00 0.000000000000e+00
0.000000000000e+00 0.000000000000e+00 0.000000000000e+00
0.000000000000e+00 0.000000000000e+00 0.000000000000e+00
0.000000000000e+00 0.000000000000e+00 0.000000000000e+00
0.000000000000e+00 0.000000000000e+00 0.000000000000e+00
0.000000000000e+00 0.000000000000e+00 0.000000000000e+00
0.000000000000e+00 0.000000000000e+00 0.000000000000e+00
0.000000000000e+00 0.000000000000e+00 0.000000000000e+00
0.000000000000e+00 0.000000000000e+00 0.000000000000e+00
0.000000000000e+00 0.000000000000e+00 0.000000000000e+00
0.000000000000e+00 0.000000000000e+00 0.000000000000e+00
0.000000000000e+00 0.000000000000e+00 0.000000000000e+00
0.000000000000e+00 0.000000000000e+00 0.000000000000e+00
0.000000000000e+00 0.000000000000e+00 0.000000000000e+00
0.000000000000e+00 0.000000000000e+00 0.000000000000e+00
0.000000000000e+00 0.000000000000e+00 0.000000000000e+00
0.000000000000e+00 0.000000000000e+00 0.000000000000e+00
0.000000000000e+00 0.000000000000e+00 0.000000000000e+00
0.000000000000e+00 0.000000000000e+00 0.000000000000e+00
0.000000000000e+00 0.000000000000e+00 0.000000000000e+00
0.000000000000e+00 0.000000000000e+00 0.000000000000e+00
0.000000000000e+00 0.000000000000e+00 0.000000000000e+00
0.000000000000e+00 0.000000000000e+00 0.000000000000e+00
0.000000000000e+00 0.000000000000e+00 0.000000000000e+00
0.000000000000e+00 0.000000000000e+00 0.000000000000e+00
0.000000000000e+00 0.000000000000e+00 0.000000000000e+00
0.000000000000e+00 0.000000000000e+00 0.000000000000e+00
0.000000000000e+00 0.000000000000e+00 0.000000000000e+00
0.000000000000e+00 0.000000000000e+00 0.000000000000e+00
0.000000000000e+00 0.000000000000e+00 0.000000000000e+00
0.000000000000e+00 0.000000000000e+00 0.000000000000e+00
0.000000000000e+00 0.000000000000e+00 0.000000000000e+00
0.000000000000e+00 0.000000000000e+00 0.000000000000e+00
0.000000000000e+00 0.000000000000e+00 0.000000000000e+00
0.000000000000e+00 0.000000000000e+00 0.000000000000e+00
0.000000000000e+00 0.000000000000e+00 0.000000000000e+00
0.000000000000e+00 0.000000000000e+00 0.000000000000e+00
0.000000000000e+00 0.000000000000e+00 0.000000000000e+00
0.000000000000e+00 0.000000000000e+00 0.000000000000e+00
0.000000000000e+00 0.000000000000e+00 0.000000000000e+00
0.000000000000e+00 0.000000000000e+00 0.000000000000e+00
0.000000000000e+00 0.000000000000e+00 0.000000000000e+00
0.000000000000e+00 0.000000000000e+00 0.000000000000e+00
0.000000000000e+00 0.000000000000e+00 0.000000000000e+00
0.000000000000e+00 0.000000000000e+00 0.000000000000e+00
0.000000000000e+00 0.000000000000e+00 0.000000000000e+00
0.000000000000e+00 0.000000000000e+00 0.000000000000e+00
0.000000000000e+00 0.000000000000e+00 0.000000000000e+00
0.000000000000e+00 0.000000000000e+00 0.000000000000e+00
0.000000000000e+00 0.000000000000e+00 0.000000000000e+00
0.000000000000e+00 0.000000000000e+00 0.000000000000e+00
0.000000000000e+00 0.000000000000e+00 0.000000000000e+00
0.000000000000e+00 0.000000000000e+00 0.000000000000e+00
0.000000000000e+00 0.000000000000e+00 0.000000000000e+00
0.000000000000e+00 0.000000000000e+00 0.000000000000e+00
0.000000000000e+00 0.000000000000e+00 0.000000000000e+00
0.000000000000e+00 0.000000000000e+00 0.000000000000e+00
0.000000000000e+00 0.000000000000e+00 0.000000000000e+00
-1.490392879854e-06 -1.490392903154e-06 -1.504268080365e-02
-7.411024408204e-07 -1.507305977617e-06 -1.504307870362e-02
1.007506348357e-14 -1.524149177123e-06 -1.504319363562e-02
7.411024609746e-07 -1.507305976544e-06 -1.504307870362e-02
1.490392900014e-06 -1.490392901014e-06 -1.504268080365e-02
-1.507305955374e-06 -7.411024641243e-07 -1.504307870362e-02
-7.448547600007e-07 -7.448547822524e-07 -1.504349087502e-02
9.547002566103e-15 -7.545470008985e-07 -1.504361381091e-02
7.448547790965e-07 -7.448547811806e-07 -1.504349087502e-02
1.507305974474e-06 -7.411024619889e-07 -1.504307870362e-02
-1.524149155932e-06 -1.323552935632e-14 -1.504319363562e-02
-7.545469797044e-07 -1.271035023021e-14 -1.504361381091e-02
9.022744553892e-15 -1.218294421246e-14 -1.504373892480e-02
7.545469977525e-07 -1.164843219221e-14 -1.504361381091e-02
1.524149173992e-06 -1.111469644984e-14 -1.504319363562e-02
-1.507305956408e-06 7.411024376505e-07 -1.504307870362e-02
-7.448547610385e-07 7.448547568287e-07 -1.504349087502e-02
8.500832001315e-15 7.545469765440e-07 -1.504361381091e-02
7.448547780492e-07 7.448547578921e-07 -1.504349087502e-02
1.507305973428e-06 7.411024397622e-07 -1.504307870362e-02
-1.490392881921e-06 1.490392876670e-06 -1.504268080365e-02
-7.411024428975e-07 1.507305952204e-06 -1.504307870362e-02
7.978926679830e-15 1.524149152793e-06 -1.504319363562e-02
7.411024588667e-07 1.507305953267e-06 -1.504307870362e-02
1.490392897909e-06 1.490392878793e-06 -1.504268080365e-02
-1.215314989126e-06 -1.215315012427e-06 -1.504390868976e-02
-5.932275764774e-07 -1.227987419992e-06 -1.504432144016e-02
1.008326006937e-14 -1.240658515171e-06 -1.504443241403e-02
5.932275966530e-07 -1.227987418928e-06 -1.504432144016e-02
1.215315009308e-06 -1.215315010303e-06 -1.504390868976e-02
-1.227987397749e-06 -5.932275997805e-07 -1.504432144016e-02
-5.937079467749e-07 -5.937079690215e-07 -1.504474635870e-02
9.553911409667e-15 -6.002279456288e-07 -1.504486388387e-02
5.937079658861e-07 -5.937079679586e-07 -1.504474635870e-02
1.227987416868e-06 -5.932275976589e-07 -1.504432144016e-02
-1.240658493974e-06 -1.322405799760e-14 -1.504443241403e-02
-6.002279244333e-07 -1.269914824448e-14 -1.504486388387e-02
9.024311152846e-15 -1.216900353509e-14 -1.504498328134e-02
6.002279424887e-07 -1.163810635182e-14 -1.504486388387e-02
1.240658512049e-06 -1.110989272153e-14 -1.504443241403e-02
-1.227987398789e-06 5.932275733381e-07 -1.504432144016e-02
-5.937079478166e-07 5.937079436258e-07 -1.504474635870e-02
8.504589358584e-15 6.002279212866e-07 -1.504486388387e-02
5.937079648296e-07 5.937079446839e-07 -1.504474635870e-02
1.227987415808e-06 5.932275754442e-07 -1.504432144016e-02
-1.215314991216e-06 1.215314985991e-06 -1.504390868976e-02
-5.932275785738e-07 1.227987394602e-06 -1.504432144016e-02
7.982562288799e-15 1.240658490839e-06 -1.504443241403e-02
5.932275945387e-07 1.227987395661e-06 -1.504432144016e-02
1.215315007189e-06 1.215314988097e-06 -1.504390868976e-02
-8.670086271314e-07 -8.670086504286e-07 -1.504483286737e-02
-4.286836026425e-07 -8.706051191519e-07 -1.504525555929e-02
1.009379809205e-14 -8.761622369618e-07 -1.504535988752e-02
4.286836228387e-07 -8.706051180968e-07 -1.504525555929e-02
8.670086473347e-07 -8.670086483128e-07 -1.504483286737e-02
-8.706050969027e-07 -4.286836259452e-07 -1.504525555929e-02
-4.288175762118e-07 -4.288175984540e-07 -1.504568915421e-02
9.562455590955e-15 -4.317638961953e-07 -1.504579873683e-02
4.288175953417e-07 -4.288175974016e-07 -1.504568915421e-02
8.706051160425e-07 -4.286836238297e-07 -1.504525555930e-02
-8.761622157576e-07 -1.321107221446e-14 -1.504535988752e-02
-4.317638750024e-07 -1.268552347658e-14 -1.504579873683e-02
9.030321235484e-15 -1.215790273153e-14 -1.504590929052e-02
4.317638930722e-07 -1.162945955609e-14 -1.504579873683e-02
8.761622338406e-07 -1.110020749888e-14 -1.504535988752e-02
-8.706050979570e-07 4.286835995320e-07 -1.504525555929e-02
-4.288175772601e-07 4.288175730879e-07 -1.504568915421e-02
8.509292036059e-15 4.317638718761e-07 -1.504579873683e-02
4.288175942793e-07 4.288175741431e-07 -1.504568915421e-02
8.706051149808e-07 4.286836016340e-07 -1.504525555930e-02
-8.670086292275e-07 8.670086240219e-07 -1.504483286737e-02
-4.286836047457e-07 8.706050937915e-07 -1.504525555930e-02
7.986175367928e-15 8.761622126363e-07 -1.504535988752e-02
4.286836207174e-07 8.706050948407e-07 -1.504525555930e-02
8.670086452032e-07 8.670086261276e-07 -1.504483286737e-02
-5.097190888104e-07 -5.097191121124e-07 -1.504542495204e-02
-2.658246476772e-07 -5.042548646204e-07 -1.504584065136e-02
1.010616443945e-14 -5.026775740687e-07 -1.504594855228e-02
2.658246678944e-07 -5.042548635721e-07 -1.504584065136e-02
5.097191090323e-07 -5.097191100003e-07 -1.504542495204e-02
-5.042548423681e-07 -2.658246709800e-07 -1.504584065136e-02
-2.658282394602e-07 -2.658282617033e-07 -1.504626647072e-02
9.572353864486e-15 -2.654795426966e-07 -1.504637968751e-02
2.658282586132e-07 -2.658282606538e-07 -1.504626647072e-02
5.042548615294e-07 -2.658246688711e-07 -1.504584065136e-02
-5.026775528676e-07 -1.319418666957e-14 -1.504594855228e-02
-2.654795215032e-07 -1.267273134837e-14 -1.504637968751e-02
9.040578438678e-15 -1.214493824256e-14 -1.504649409110e-02
2.654795395888e-07 -1.161999059614e-14 -1.504637968751e-02
5.026775709613e-07 -1.108883901776e-14 -1.504594855228e-02
-5.042548434311e-07 2.658246445950e-07 -1.504584065136e-02
-2.658282405161e-07 2.658282363673e-07 -1.504626647072e-02
8.516317116281e-15 2.654795183970e-07 -1.504637968751e-02
2.658282575478e-07 2.658282374158e-07 -1.504626647072e-02
5.042548604667e-07 2.658246466924e-07 -1.504584065136e-02
-5.097190909179e-07 5.097190857300e-07 -1.504542495204e-02
-2.658246497870e-07 5.042548392860e-07 -1.504584065136e-02
7.992617952702e-15 5.026775497676e-07 -1.504594855228e-02
2.658246657708e-07 5.042548403295e-07 -1.504584065136e-02
5.097191069016e-07 5.097190878305e-07 -1.504542495204e-02
-2.235038249718e-07 -2.235038482846e-07 -1.504565711673e-02
-1.190669965671e-07 -2.146600833575e-07 -1.504606569072e-02
1.011935124392e-14 -2.094369593707e-07 -1.504617944265e-02
1.190670168013e-07 -2.146600823172e-07 -1.504606569072e-02
2.235038451997e-07 -2.235038461729e-07 -1.504565711673e-02
-2.146600611103e-07 -1.190670198663e-07 -1.504606569072e-02
-1.167373768792e-07 -1.167373991336e-07 -1.504648475933e-02
9.585008871915e-15 -1.139179890756e-07 -1.504660452765e-02
1.167373960537e-07 -1.167373980885e-07 -1.504648475933e-02
2.146600802839e-07 -1.190670177664e-07 -1.504606569072e-02
-2.094369381766e-07 -1.317651673626e-14 -1.504617944265e-02
-1.139179678855e-07 -1.265476419500e-14 -1.504660452765e-02
9.052352684562e-15 -1.214034512123e-14 -1.504672588310e-02
1.139179859814e-07 -1.160968743000e-14 -1.504660452765e-02
2.094369562743e-07 -1.108033898686e-14 -1.504617944265e-02
-2.146600621787e-07 1.190669935120e-07 -1.504606569072e-02
-1.167373779503e-07 1.167373738214e-07 -1.504648475933e-02
8.519256480702e-15 1.139179647951e-07 -1.504660452765e-02
1.167373949919e-07 1.167373748621e-07 -1.504648475933e-02
2.146600792144e-07 1.190669956074e-07 -1.504606569072e-02
-2.235038270933e-07 2.235038219285e-07 -1.504565711673e-02
-1.190669986888e-07 2.146600580424e-07 -1.504606569072e-02
7.996018914012e-15 2.094369350904e-07 -1.504617944265e-02
1.190670146806e-07 2.146600590852e-07 -1.504606569072e-02
2.235038430974e-07 2.235038240184e-07 -1.504565711673e-02
SCALARS displacement_magnitude float 1
LOOKUP_TABLE default
0.000000000000e+00
0.000000000000e+00
0.000000000000e+00
0.000000000000e+00
0.000000000000e+00
0.000000000000e+00
0.000000000000e+00
0.000000000000e+00
0.000000000000e+00
0.000000000000e+00
0.000000000000e+00
0.000000000000e+00
0.000000000000e+00
0.000000000000e+00
0.000000000000e+00
0.000000000000e+00
0.000000000000e+00
0.000000000000e+00
0.000000000000e+00
0.000000000000e+00
0.000000000000e+00
0.000000000000e+00
0.000000000000e+00
0.000000000000e+00
0.000000000000e+00
0.000000000000e+00
0.000000000000e+00
0.000000000000e+00
0.000000000000e+00
0.000000000000e+00
0.000000000000e+00
0.000000000000e+00
0.000000000000e+00
0.000000000000e+00
0.000000000000e+00
0.000000000000e+00
0.000000000000e+00
0.000000000000e+00
0.000000000000e+00
0.000000000000e+00
0.000000000000e+00
0.000000000000e+00
0.000000000000e+00
0.000000000000e+00
0.000000000000e+00
0.000000000000e+00
0.000000000000e+00
0.000000000000e+00
0.000000000000e+00
0.000000000000e+00
0.000000000000e+00
0.000000000000e+00
0.000000000000e+00
0.000000000000e+00
0.000000000000e+00
0.000000000000e+00
0.000000000000e+00
0.000000000000e+00
0.000000000000e+00
0.000000000000e+00
0.000000000000e+00
0.000000000000e+00
0.000000000000e+00
0.000000000000e+00
0.000000000000e+00
0.000000000000e+00
0.000000000000e+00
0.000000000000e+00
0.000000000000e+00
0.000000000000e+00
0.000000000000e+00
0.000000000000e+00
0.000000000000e+00
0.000000000000e+00
0.000000000000e+00
0.000000000000e+00
0.000000000000e+00
0.000000000000e+00
0.000000000000e+00
0.000000000000e+00
0.000000000000e+00
0.000000000000e+00
0.000000000000e+00
0.000000000000e+00
0.000000000000e+00
0.000000000000e+00
0.000000000000e+00
0.000000000000e+00
0.000000000000e+00
0.000000000000e+00
0.000000000000e+00
0.000000000000e+00
0.000000000000e+00
0.000000000000e+00
0.000000000000e+00
0.000000000000e+00
0.000000000000e+00
0.000000000000e+00
0.000000000000e+00
0.000000000000e+00
0.000000000000e+00
0.000000000000e+00
0.000000000000e+00
0.000000000000e+00
0.000000000000e+00
0.000000000000e+00
0.000000000000e+00
0.000000000000e+00
0.000000000000e+00
0.000000000000e+00
0.000000000000e+00
0.000000000000e+00
0.000000000000e+00
0.000000000000e+00
0.000000000000e+00
0.000000000000e+00
0.000000000000e+00
0.000000000000e+00
0.000000000000e+00
0.000000000000e+00
0.000000000000e+00
0.000000000000e+00
0.000000000000e+00
0.000000000000e+00
0.000000000000e+00
1.504268095131e-02
1.504307879739e-02
1.504319371283e-02
1.504307879739e-02
1.504268095131e-02
1.504307879739e-02
1.504349091190e-02
1.504361382983e-02
1.504349091190e-02
1.504307879739e-02
1.504319371283e-02
1.504361382983e-02
1.504373892480e-02
1.504361382983e-02
1.504319371283e-02
1.504307879739e-02
1.504349091190e-02
1.504361382983e-02
1.504349091190e-02
1.504307879739e-02
1.504268095131e-02
1.504307879739e-02
1.504319371283e-02
1.504307879739e-02
1.504268095131e-02
1.504390878794e-02
1.504432150198e-02
1.504443246519e-02
1.504432150198e-02
1.504390878794e-02
1.504432150198e-02
1.504474638212e-02
1.504486389585e-02
1.504474638212e-02
1.504432150198e-02
1.504443246519e-02
1.504486389585e-02
1.504498328134e-02
1.504486389585e-02
1.504443246519e-02
1.504432150198e-02
1.504474638212e-02
1.504486389585e-02
1.504474638212e-02
1.504432150198e-02
1.504390878794e-02
1.504432150198e-02
1.504443246519e-02
1.504432150198e-02
1.504390878794e-02
1.504483291734e-02
1.504525559059e-02
1.504535991303e-02
1.504525559059e-02
1.504483291734e-02
1.504525559059e-02
1.504568916644e-02
1.504579874303e-02
1.504568916644e-02
1.504525559059e-02
1.504535991303e-02
1.504579874303e-02
1.504590929052e-02
1.504579874303e-02
1.504535991303e-02
1.504525559059e-02
1.504568916644e-02
1.504579874303e-02
1.504568916644e-02
1.504525559059e-02
1.504483291734e-02
1.504525559059e-02
1.504535991303e-02
1.504525559059e-02
1.504483291734e-02
1.504542496931e-02
1.504584066215e-02
1.504594856067e-02
1.504584066215e-02
1.504542496931e-02
1.504584066215e-02
1.504626647542e-02
1.504637968985e-02
1.504626647542e-02
1.504584066215e-02
1.504594856067e-02
1.504637968985e-02
1.504649409110e-02
1.504637968985e-02
1.504594856067e-02
1.504584066215e-02
1.504626647542e-02
1.504637968985e-02
1.504626647542e-02
1.504584066215e-02
1.504542496931e-02
1.504584066215e-02
1.504594856067e-02
1.504584066215e-02
1.504542496931e-02
1.504565712005e-02
1.504606569272e-02
1.504617944411e-02
1.504606569272e-02
1.504565712005e-02
1.504606569272e-02
1.504648476023e-02
1.504660452808e-02
1.504648476023e-02
1.504606569272e-02
1.504617944411e-02
1.504660452808e-02
1.504672588310e-02
1.504660452808e-02
1.504617944411e-02
1.504606569272e-02
1.504648476023e-02
1.504660452808e-02
1.504648476023e-02
1.504606569272e-02
1.504565712005e-02
1.504606569272e-02
1.504617944411e-02
1.504606569272e-02
1.504565712005e-02
CELL_DATA 128
SCALARS displacement_magnitude float 1
LOOKUP_TABLE default
0.000000000000e+00
0.000000000000e+00
0.000000000000e+00
0.000000000000e+00
0.000000000000e+00
0.000000000000e+00
0.000000000000e+00
0.000000000000e+00
0.000000000000e+00
0.000000000000e+00
0.000000000000e+00
0.000000000000e+00
0.000000000000e+00
0.000000000000e+00
0.000000000000e+00
0.000000000000e+00
0.000000000000e+00
0.000000000000e+00
0.000000000000e+00
0.000000000000e+00
0.000000000000e+00
0.000000000000e+00
0.000000000000e+00
0.000000000000e+00
0.000000000000e+00
0.000000000000e+00
0.000000000000e+00
0.000000000000e+00
0.000000000000e+00
0.000000000000e+00
0.000000000000e+00
0.000000000000e+00
0.000000000000e+00
0.000000000000e+00
0.000000000000e+00
0.000000000000e+00
0.000000000000e+00
0.000000000000e+00
0.000000000000e+00
0.000000000000e+00
0.000000000000e+00
0.000000000000e+00
0.000000000000e+00
0.000000000000e+00
0.000000000000e+00
0.000000000000e+00
0.000000000000e+00
0.000000000000e+00
0.000000000000e+00
0.000000000000e+00
0.000000000000e+00
0.000000000000e+00
0.000000000000e+00
0.000000000000e+00
0.000000000000e+00
0.000000000000e+00
0.000000000000e+00
0.000000000000e+00
0.000000000000e+00
0.000000000000e+00
0.000000000000e+00
0.000000000000e+00
0.000000000000e+00
0.000000000000e+00
1.504370345400e-02
1.504396768714e-02
1.504396768714e-02
1.504370345400e-02
1.504396768714e-02
1.504423936894e-02
1.504423936894e-02
1.504396768714e-02
1.504396768714e-02
1.504423936894e-02
1.504423936894e-02
1.504396768714e-02
1.504370345400e-02
1.504396768714e-02
1.504396768714e-02
1.504370345400e-02
1.504479142987e-02
1.504505845728e-02
1.504505845728e-02
1.504479142987e-02
1.504505845728e-02
1.504533167477e-02
1.504533167477e-02
1.504505845728e-02
1.504505845728e-02
1.504533167477e-02
1.504533167477e-02
1.504505845728e-02
1.504479142987e-02
1.504505845728e-02
1.504505845728e-02
1.504479142987e-02
1.504555075425e-02
1.504581735015e-02
1.504581735015e-02
1.504555075425e-02
1.504581735015e-02
1.504608948615e-02
1.504608948615e-02
1.504581735015e-02
1.504581735015e-02
1.504608948615e-02
1.504608948615e-02
1.504581735015e-02
1.504555075425e-02
1.504581735015e-02
1.504581735015e-02
1.504555075425e-02
1.504595575435e-02
1.504622122666e-02
1.504622122666e-02
1.504595575435e-02
1.504622122666e-02
1.504649245571e-02
1.504649245571e-02
1.504622122666e-02
1.504622122666e-02
1.504649245571e-02
1.504649245571e-02
1.504622122666e-02
1.504595575435e-02
1.504622122666e-02
1.504622122666e-02
1.504595575435e-02
SCALARS engineering_strain_norm float 1
LOOKUP_TABLE default
0.000000000000e+00
0.000000000000e+00
0.000000000000e+00
0.000000000000e+00
0.000000000000e+00
0.000000000000e+00
0.000000000000e+00
0.000000000000e+00
0.000000000000e+00
0.000000000000e+00
0.000000000000e+00
0.000000000000e+00
0.000000000000e+00
0.000000000000e+00
0.000000000000e+00
0.000000000000e+00
0.000000000000e+00
0.000000000000e+00
0.000000000000e+00
0.000000000000e+00
0.000000000000e+00
0.000000000000e+00
0.000000000000e+00
0.000000000000e+00
0.000000000000e+00
0.000000000000e+00
0.000000000000e+00
0.000000000000e+00
0.000000000000e+00
0.000000000000e+00
0.000000000000e+00
0.000000000000e+00
0.000000000000e+00
0.000000000000e+00
0.000000000000e+00
0.000000000000e+00
0.000000000000e+00
0.000000000000e+00
0.000000000000e+00
0.000000000000e+00
0.000000000000e+00
0.000000000000e+00
0.000000000000e+00
0.000000000000e+00
0.000000000000e+00
0.000000000000e+00
0.000000000000e+00
0.000000000000e+00
0.000000000000e+00
0.000000000000e+00
0.000000000000e+00
0.000000000000e+00
0.000000000000e+00
0.000000000000e+00
0.000000000000e+00
0.000000000000e+00
0.000000000000e+00
0.000000000000e+00
0.000000000000e+00
0.000000000000e+00
0.000000000000e+00
0.000000000000e+00
0.000000000000e+00
0.000000000000e+00
2.065298631210e-05
2.068961679382e-05
2.068961679387e-05
2.065298631217e-05
2.068961679382e-05
2.068673901863e-05
2.068673901864e-05
2.068961679385e-05
2.068961679381e-05
2.068673901856e-05
2.068673901859e-05
2.068961679388e-05
2.065298631213e-05
2.068961679392e-05
2.068961679392e-05
2.065298631223e-05
1.560809511250e-05
1.558012786502e-05
1.558012786507e-05
1.560809511262e-05
1.558012786491e-05
1.551750712185e-05
1.551750712191e-05
1.558012786507e-05
1.558012786501e-05
1.551750712182e-05
1.551750712187e-05
1.558012786512e-05
1.560809511262e-05
1.558012786505e-05
1.558012786502e-05
1.560809511266e-05
9.830696877512e-06
9.806095419880e-06
9.806095419966e-06
9.830696877598e-06
9.806095419809e-06
9.781180140136e-06
9.781180140232e-06
9.806095419899e-06
9.806095419899e-06
9.781180140114e-06
9.781180140120e-06
9.806095419936e-06
9.830696877596e-06
9.806095419899e-06
9.806095419823e-06
9.830696877603e-06
3.968822209597e-06
4.019531640033e-06
4.019531640094e-06
3.968822209583e-06
4.019531640010e-06
4.088587921922e-06
4.088587922000e-06
4.019531640065e-06
4.019531640086e-06
4.088587921965e-06
4.088587921947e-06
4.019531640069e-06
3.968822209575e-06
4.019531640033e-06
4.019531640009e-06
3.968822209585e-06
SCALARS von_mises float 1
LOOKUP_TABLE default
0.000000000000e+00
0.000000000000e+00
0.000000000000e+00
0.000000000000e+00
0.000000000000e+00
0.000000000000e+00
0.000000000000e+00
0.000000000000e+00
0.000000000000e+00
0.000000000000e+00
0.000000000000e+00
0.000000000000e+00
0.000000000000e+00
0.000000000000e+00
0.000000000000e+00
0.000000000000e+00
0.000000000000e+00
0.000000000000e+00
0.000000000000e+00
0.000000000000e+00
0.000000000000e+00
0.000000000000e+00
0.000000000000e+00
0.000000000000e+00
0.000000000000e+00
0.000000000000e+00
0.000000000000e+00
0.000000000000e+00
0.000000000000e+00
0.000000000000e+00
0.000000000000e+00
0.000000000000e+00
0.000000000000e+00
0.000000000000e+00
0.000000000000e+00
0.000000000000e+00
0.000000000000e+00
0.000000000000e+00
0.000000000000e+00
0.000000000000e+00
0.000000000000e+00
0.000000000000e+00
0.000000000000e+00
0.000000000000e+00
0.000000000000e+00
0.000000000000e+00
0.000000000000e+00
0.000000000000e+00
0.000000000000e+00
0.000000000000e+00
0.000000000000e+00
0.000000000000e+00
0.000000000000e+00
0.000000000000e+00
0.000000000000e+00
0.000000000000e+00
0.000000000000e+00
0.000000000000e+00
0.000000000000e+00
0.000000000000e+00
0.000000000000e+00
0.000000000000e+00
0.000000000000e+00
0.000000000000e+00
1.895956521818e+00
1.897129449484e+00
1.897129449488e+00
1.895956521824e+00
1.897129449483e+00
1.893748821999e+00
1.893748821999e+00
1.897129449486e+00
1.897129449482e+00
1.893748821993e+00
1.893748821996e+00
1.897129449489e+00
1.895956521820e+00
1.897129449492e+00
1.897129449493e+00
1.895956521830e+00
1.434877553062e+00
1.430647545215e+00
1.430647545219e+00
1.434877553073e+00
1.430647545204e+00
1.422572628019e+00
1.422572628025e+00
1.430647545219e+00
1.430647545214e+00
1.422572628016e+00
1.422572628021e+00
1.430647545223e+00
1.434877553072e+00
1.430647545217e+00
1.430647545214e+00
1.434877553077e+00
9.038092963564e-01
9.029786957370e-01
9.029786957447e-01
9.038092963643e-01
9.029786957296e-01
9.023933720538e-01
9.023933720631e-01
9.029786957384e-01
9.029786957383e-01
9.023933720519e-01
9.023933720528e-01
9.029786957420e-01
9.038092963638e-01
9.029786957381e-01
9.029786957316e-01
9.038092963650e-01
3.717938967946e-01
3.770349466239e-01
3.770349466294e-01
3.717938967933e-01
3.770349466219e-01
3.839815094308e-01
3.839815094381e-01
3.770349466267e-01
3.770349466286e-01
3.839815094345e-01
3.839815094329e-01
3.770349466271e-01
3.717938967926e-01
3.770349466236e-01
3.770349466216e-01
3.717938967935e-01
SCALARS sdf_gap float 1
LOOKUP_TABLE default
0.000000000000e+00
0.000000000000e+00
0.000000000000e+00
0.000000000000e+00
0.000000000000e+00
0.000000000000e+00
0.000000000000e+00
0.000000000000e+00
0.000000000000e+00
0.000000000000e+00
0.000000000000e+00
0.000000000000e+00
0.000000000000e+00
0.000000000000e+00
0.000000000000e+00
0.000000000000e+00
0.000000000000e+00
0.000000000000e+00
0.000000000000e+00
0.000000000000e+00
0.000000000000e+00
0.000000000000e+00
0.000000000000e+00
0.000000000000e+00
0.000000000000e+00
0.000000000000e+00
0.000000000000e+00
0.000000000000e+00
0.000000000000e+00
0.000000000000e+00
0.000000000000e+00
0.000000000000e+00
0.000000000000e+00
0.000000000000e+00
0.000000000000e+00
0.000000000000e+00
0.000000000000e+00
0.000000000000e+00
0.000000000000e+00
0.000000000000e+00
0.000000000000e+00
0.000000000000e+00
0.000000000000e+00
0.000000000000e+00
0.000000000000e+00
0.000000000000e+00
0.000000000000e+00
0.000000000000e+00
0.000000000000e+00
0.000000000000e+00
0.000000000000e+00
0.000000000000e+00
0.000000000000e+00
0.000000000000e+00
0.000000000000e+00
0.000000000000e+00
0.000000000000e+00
0.000000000000e+00
0.000000000000e+00
0.000000000000e+00
0.000000000000e+00
0.000000000000e+00
0.000000000000e+00
0.000000000000e+00
-4.308227147520e-05
-4.334425629035e-05
-4.334425629036e-05
-4.308227147522e-05
-4.334425629034e-05
-4.361435540741e-05
-4.361435540742e-05
-4.334425629036e-05
-4.334425629037e-05
-4.361435540745e-05
-4.361435540747e-05
-4.334425629038e-05
-4.308227147529e-05
-4.334425629041e-05
-4.334425629042e-05
-4.308227147528e-05
0.000000000000e+00
0.000000000000e+00
0.000000000000e+00
0.000000000000e+00
0.000000000000e+00
0.000000000000e+00
0.000000000000e+00
0.000000000000e+00
0.000000000000e+00
0.000000000000e+00
0.000000000000e+00
0.000000000000e+00
0.000000000000e+00
0.000000000000e+00
0.000000000000e+00
0.000000000000e+00
0.000000000000e+00
0.000000000000e+00
0.000000000000e+00
0.000000000000e+00
0.000000000000e+00
0.000000000000e+00
0.000000000000e+00
0.000000000000e+00
0.000000000000e+00
0.000000000000e+00
0.000000000000e+00
0.000000000000e+00
0.000000000000e+00
0.000000000000e+00
0.000000000000e+00
0.000000000000e+00
0.000000000000e+00
0.000000000000e+00
0.000000000000e+00
0.000000000000e+00
0.000000000000e+00
0.000000000000e+00
0.000000000000e+00
0.000000000000e+00
0.000000000000e+00
0.000000000000e+00
0.000000000000e+00
0.000000000000e+00
0.000000000000e+00
0.000000000000e+00
0.000000000000e+00
0.000000000000e+00
SCALARS contact_pressure float 1
LOOKUP_TABLE default
0.000000000000e+00
0.000000000000e+00
0.000000000000e+00
0.000000000000e+00
0.000000000000e+00
0.000000000000e+00
0.000000000000e+00
0.000000000000e+00
0.000000000000e+00
0.000000000000e+00
0.000000000000e+00
0.000000000000e+00
0.000000000000e+00
0.000000000000e+00
0.000000000000e+00
0.000000000000e+00
0.000000000000e+00
0.000000000000e+00
0.000000000000e+00
0.000000000000e+00
0.000000000000e+00
0.000000000000e+00
0.000000000000e+00
0.000000000000e+00
0.000000000000e+00
0.000000000000e+00
0.000000000000e+00
0.000000000000e+00
0.000000000000e+00
0.000000000000e+00
0.000000000000e+00
0.000000000000e+00
0.000000000000e+00
0.000000000000e+00
0.000000000000e+00
0.000000000000e+00
0.000000000000e+00
0.000000000000e+00
0.000000000000e+00
0.000000000000e+00
0.000000000000e+00
0.000000000000e+00
0.000000000000e+00
0.000000000000e+00
0.000000000000e+00
0.000000000000e+00
0.000000000000e+00
0.000000000000e+00
0.000000000000e+00
0.000000000000e+00
0.000000000000e+00
0.000000000000e+00
0.000000000000e+00
0.000000000000e+00
0.000000000000e+00
0.000000000000e+00
0.000000000000e+00
0.000000000000e+00
0.000000000000e+00
0.000000000000e+00
0.000000000000e+00
0.000000000000e+00
0.000000000000e+00
0.000000000000e+00
2.154113573760e+00
2.167212814517e+00
2.167212814518e+00
2.154113573761e+00
2.167212814517e+00
2.180717770371e+00
2.180717770371e+00
2.167212814518e+00
2.167212814519e+00
2.180717770372e+00
2.180717770373e+00
2.167212814519e+00
2.154113573764e+00
2.167212814521e+00
2.167212814521e+00
2.154113573764e+00
0.000000000000e+00
0.000000000000e+00
0.000000000000e+00
0.000000000000e+00
0.000000000000e+00
0.000000000000e+00
0.000000000000e+00
0.000000000000e+00
0.000000000000e+00
0.000000000000e+00
0.000000000000e+00
0.000000000000e+00
0.000000000000e+00
0.000000000000e+00
0.000000000000e+00
0.000000000000e+00
0.000000000000e+00
0.000000000000e+00
0.000000000000e+00
0.000000000000e+00
0.000000000000e+00
0.000000000000e+00
0.000000000000e+00
0.000000000000e+00
0.000000000000e+00
0.000000000000e+00
0.000000000000e+00
0.000000000000e+00
0.000000000000e+00
0.000000000000e+00
0.000000000000e+00
0.000000000000e+00
0.000000000000e+00
0.000000000000e+00
0.000000000000e+00
0.000000000000e+00
0.000000000000e+00
0.000000000000e+00
0.000000000000e+00
0.000000000000e+00
0.000000000000e+00
0.000000000000e+00
0.000000000000e+00
0.000000000000e+00
0.000000000000e+00
0.000000000000e+00
0.000000000000e+00
0.000000000000e+00
SCALARS active_contact float 1
LOOKUP_TABLE default
0.000000000000e+00
0.000000000000e+00
0.000000000000e+00
0.000000000000e+00
0.000000000000e+00
0.000000000000e+00
0.000000000000e+00
0.000000000000e+00
0.000000000000e+00
0.000000000000e+00
0.000000000000e+00
0.000000000000e+00
0.000000000000e+00
0.000000000000e+00
0.000000000000e+00
0.000000000000e+00
0.000000000000e+00
0.000000000000e+00
0.000000000000e+00
0.000000000000e+00
0.000000000000e+00
0.000000000000e+00
0.000000000000e+00
0.000000000000e+00
0.000000000000e+00
0.000000000000e+00
0.000000000000e+00
0.000000000000e+00
0.000000000000e+00
0.000000000000e+00
0.000000000000e+00
0.000000000000e+00
0.000000000000e+00
0.000000000000e+00
0.000000000000e+00
0.000000000000e+00
0.000000000000e+00
0.000000000000e+00
0.000000000000e+00
0.000000000000e+00
0.000000000000e+00
0.000000000000e+00
0.000000000000e+00
0.000000000000e+00
0.000000000000e+00
0.000000000000e+00
0.000000000000e+00
0.000000000000e+00
0.000000000000e+00
0.000000000000e+00
0.000000000000e+00
0.000000000000e+00
0.000000000000e+00
0.000000000000e+00
0.000000000000e+00
0.000000000000e+00
0.000000000000e+00
0.000000000000e+00
0.000000000000e+00
0.000000000000e+00
0.000000000000e+00
0.000000000000e+00
0.000000000000e+00
0.000000000000e+00
1.000000000000e+00
1.000000000000e+00
1.000000000000e+00
1.000000000000e+00
1.000000000000e+00
1.000000000000e+00
1.000000000000e+00
1.000000000000e+00
1.000000000000e+00
1.000000000000e+00
1.000000000000e+00
1.000000000000e+00
1.000000000000e+00
1.000000000000e+00
1.000000000000e+00
1.000000000000e+00
0.000000000000e+00
0.000000000000e+00
0.000000000000e+00
0.000000000000e+00
0.000000000000e+00
0.000000000000e+00
0.000000000000e+00
0.000000000000e+00
0.000000000000e+00
0.000000000000e+00
0.000000000000e+00
0.000000000000e+00
0.000000000000e+00
0.000000000000e+00
0.000000000000e+00
0.000000000000e+00
0.000000000000e+00
0.000000000000e+00
0.000000000000e+00
0.000000000000e+00
0.000000000000e+00
0.000000000000e+00
0.000000000000e+00
0.000000000000e+00
0.000000000000e+00
0.000000000000e+00
0.000000000000e+00
0.000000000000e+00
0.000000000000e+00
0.000000000000e+00
0.000000000000e+00
0.000000000000e+00
0.000000000000e+00
0.000000000000e+00
0.000000000000e+00
0.000000000000e+00
0.000000000000e+00
0.000000000000e+00
0.000000000000e+00
0.000000000000e+00
0.000000000000e+00
0.000000000000e+00
0.000000000000e+00
0.000000000000e+00
0.000000000000e+00
0.000000000000e+00
0.000000000000e+00
0.000000000000e+00
