# vtk DataFile Version 3.0
SFC long-time C3D8 dynamic frame 51 t=1.020000000000e+00
ASCII
DATASET UNSTRUCTURED_GRID
POINTS 250 float
-2.500000000000e-01 -2.500000000000e-01 0.000000000000e+00
-1.250000000000e-01 -2.500000000000e-01 0.000000000000e+00
0.000000000000e+00 -2.500000000000e-01 0.000000000000e+00
1.250000000000e-01 -2.500000000000e-01 0.000000000000e+00
2.500000000000e-01 -2.500000000000e-01 0.000000000000e+00
-2.500000000000e-01 -1.250000000000e-01 0.000000000000e+00
-1.250000000000e-01 -1.250000000000e-01 0.000000000000e+00
0.000000000000e+00 -1.250000000000e-01 0.000000000000e+00
1.250000000000e-01 -1.250000000000e-01 0.000000000000e+00
2.500000000000e-01 -1.250000000000e-01 0.000000000000e+00
-2.500000000000e-01 0.000000000000e+00 0.000000000000e+00
-1.250000000000e-01 0.000000000000e+00 0.000000000000e+00
0.000000000000e+00 0.000000000000e+00 0.000000000000e+00
1.250000000000e-01 0.000000000000e+00 0.000000000000e+00
2.500000000000e-01 0.000000000000e+00 0.000000000000e+00
-2.500000000000e-01 1.250000000000e-01 0.000000000000e+00
-1.250000000000e-01 1.250000000000e-01 0.000000000000e+00
0.000000000000e+00 1.250000000000e-01 0.000000000000e+00
1.250000000000e-01 1.250000000000e-01 0.000000000000e+00
2.500000000000e-01 1.250000000000e-01 0.000000000000e+00
-2.500000000000e-01 2.500000000000e-01 0.000000000000e+00
-1.250000000000e-01 2.500000000000e-01 0.000000000000e+00
0.000000000000e+00 2.500000000000e-01 0.000000000000e+00
1.250000000000e-01 2.500000000000e-01 0.000000000000e+00
2.500000000000e-01 2.500000000000e-01 0.000000000000e+00
-2.500000000000e-01 -2.500000000000e-01 6.000000000000e-02
-1.250000000000e-01 -2.500000000000e-01 6.000000000000e-02
0.000000000000e+00 -2.500000000000e-01 6.000000000000e-02
1.250000000000e-01 -2.500000000000e-01 6.000000000000e-02
2.500000000000e-01 -2.500000000000e-01 6.000000000000e-02
-2.500000000000e-01 -1.250000000000e-01 6.000000000000e-02
-1.250000000000e-01 -1.250000000000e-01 6.000000000000e-02
0.000000000000e+00 -1.250000000000e-01 6.000000000000e-02
1.250000000000e-01 -1.250000000000e-01 6.000000000000e-02
2.500000000000e-01 -1.250000000000e-01 6.000000000000e-02
-2.500000000000e-01 0.000000000000e+00 6.000000000000e-02
-1.250000000000e-01 0.000000000000e+00 6.000000000000e-02
0.000000000000e+00 0.000000000000e+00 6.000000000000e-02
1.250000000000e-01 0.000000000000e+00 6.000000000000e-02
2.500000000000e-01 0.000000000000e+00 6.000000000000e-02
-2.500000000000e-01 1.250000000000e-01 6.000000000000e-02
-1.250000000000e-01 1.250000000000e-01 6.000000000000e-02
0.000000000000e+00 1.250000000000e-01 6.000000000000e-02
1.250000000000e-01 1.250000000000e-01 6.000000000000e-02
2.500000000000e-01 1.250000000000e-01 6.000000000000e-02
-2.500000000000e-01 2.500000000000e-01 6.000000000000e-02
-1.250000000000e-01 2.500000000000e-01 6.000000000000e-02
0.000000000000e+00 2.500000000000e-01 6.000000000000e-02
1.250000000000e-01 2.500000000000e-01 6.000000000000e-02
2.500000000000e-01 2.500000000000e-01 6.000000000000e-02
-2.500000000000e-01 -2.500000000000e-01 1.200000000000e-01
-1.250000000000e-01 -2.500000000000e-01 1.200000000000e-01
0.000000000000e+00 -2.500000000000e-01 1.200000000000e-01
1.250000000000e-01 -2.500000000000e-01 1.200000000000e-01
2.500000000000e-01 -2.500000000000e-01 1.200000000000e-01
-2.500000000000e-01 -1.250000000000e-01 1.200000000000e-01
-1.250000000000e-01 -1.250000000000e-01 1.200000000000e-01
0.000000000000e+00 -1.250000000000e-01 1.200000000000e-01
1.250000000000e-01 -1.250000000000e-01 1.200000000000e-01
2.500000000000e-01 -1.250000000000e-01 1.200000000000e-01
-2.500000000000e-01 0.000000000000e+00 1.200000000000e-01
-1.250000000000e-01 0.000000000000e+00 1.200000000000e-01
0.000000000000e+00 0.000000000000e+00 1.200000000000e-01
1.250000000000e-01 0.000000000000e+00 1.200000000000e-01
2.500000000000e-01 0.000000000000e+00 1.200000000000e-01
-2.500000000000e-01 1.250000000000e-01 1.200000000000e-01
-1.250000000000e-01 1.250000000000e-01 1.200000000000e-01
0.000000000000e+00 1.250000000000e-01 1.200000000000e-01
1.250000000000e-01 1.250000000000e-01 1.200000000000e-01
2.500000000000e-01 1.250000000000e-01 1.200000000000e-01
-2.500000000000e-01 2.500000000000e-01 1.200000000000e-01
-1.250000000000e-01 2.500000000000e-01 1.200000000000e-01
0.000000000000e+00 2.500000000000e-01 1.200000000000e-01
1.250000000000e-01 2.500000000000e-01 1.200000000000e-01
2.500000000000e-01 2.500000000000e-01 1.200000000000e-01
-2.500000000000e-01 -2.500000000000e-01 1.800000000000e-01
-1.250000000000e-01 -2.500000000000e-01 1.800000000000e-01
0.000000000000e+00 -2.500000000000e-01 1.800000000000e-01
1.250000000000e-01 -2.500000000000e-01 1.800000000000e-01
2.500000000000e-01 -2.500000000000e-01 1.800000000000e-01
-2.500000000000e-01 -1.250000000000e-01 1.800000000000e-01
-1.250000000000e-01 -1.250000000000e-01 1.800000000000e-01
0.000000000000e+00 -1.250000000000e-01 1.800000000000e-01
1.250000000000e-01 -1.250000000000e-01 1.800000000000e-01
2.500000000000e-01 -1.250000000000e-01 1.800000000000e-01
-2.500000000000e-01 0.000000000000e+00 1.800000000000e-01
-1.250000000000e-01 0.000000000000e+00 1.800000000000e-01
0.000000000000e+00 0.000000000000e+00 1.800000000000e-01
1.250000000000e-01 0.000000000000e+00 1.800000000000e-01
2.500000000000e-01 0.000000000000e+00 1.800000000000e-01
-2.500000000000e-01 1.250000000000e-01 1.800000000000e-01
-1.250000000000e-01 1.250000000000e-01 1.800000000000e-01
0.000000000000e+00 1.250000000000e-01 1.800000000000e-01
1.250000000000e-01 1.250000000000e-01 1.800000000000e-01
2.500000000000e-01 1.250000000000e-01 1.800000000000e-01
-2.500000000000e-01 2.500000000000e-01 1.800000000000e-01
-1.250000000000e-01 2.500000000000e-01 1.800000000000e-01
0.000000000000e+00 2.500000000000e-01 1.800000000000e-01
1.250000000000e-01 2.500000000000e-01 1.800000000000e-01
2.500000000000e-01 2.500000000000e-01 1.800000000000e-01
-2.500000000000e-01 -2.500000000000e-01 2.400000000000e-01
-1.250000000000e-01 -2.500000000000e-01 2.400000000000e-01
0.000000000000e+00 -2.500000000000e-01 2.400000000000e-01
1.250000000000e-01 -2.500000000000e-01 2.400000000000e-01
2.500000000000e-01 -2.500000000000e-01 2.400000000000e-01
-2.500000000000e-01 -1.250000000000e-01 2.400000000000e-01
-1.250000000000e-01 -1.250000000000e-01 2.400000000000e-01
0.000000000000e+00 -1.250000000000e-01 2.400000000000e-01
1.250000000000e-01 -1.250000000000e-01 2.400000000000e-01
2.500000000000e-01 -1.250000000000e-01 2.400000000000e-01
-2.500000000000e-01 0.000000000000e+00 2.400000000000e-01
-1.250000000000e-01 0.000000000000e+00 2.400000000000e-01
0.000000000000e+00 0.000000000000e+00 2.400000000000e-01
1.250000000000e-01 0.000000000000e+00 2.400000000000e-01
2.500000000000e-01 0.000000000000e+00 2.400000000000e-01
-2.500000000000e-01 1.250000000000e-01 2.400000000000e-01
-1.250000000000e-01 1.250000000000e-01 2.400000000000e-01
0.000000000000e+00 1.250000000000e-01 2.400000000000e-01
1.250000000000e-01 1.250000000000e-01 2.400000000000e-01
2.500000000000e-01 1.250000000000e-01 2.400000000000e-01
-2.500000000000e-01 2.500000000000e-01 2.400000000000e-01
-1.250000000000e-01 2.500000000000e-01 2.400000000000e-01
0.000000000000e+00 2.500000000000e-01 2.400000000000e-01
1.250000000000e-01 2.500000000000e-01 2.400000000000e-01
2.500000000000e-01 2.500000000000e-01 2.400000000000e-01
-2.500017604220e-01 -2.500017604220e-01 2.399522885298e-01
-1.250009346923e-01 -2.500017489903e-01 2.399516960706e-01
1.291854857919e-14 -2.500017252574e-01 2.399514718976e-01
1.250009346924e-01 -2.500017489903e-01 2.399516960706e-01
2.500017604220e-01 -2.500017604220e-01 2.399522885298e-01
-2.500017489902e-01 -1.250009346924e-01 2.399516960706e-01
-1.250009325871e-01 -1.250009325871e-01 2.399511151310e-01
1.235193764522e-14 -1.250009230216e-01 2.399508979443e-01
1.250009325871e-01 -1.250009325871e-01 2.399511151310e-01
2.500017489902e-01 -1.250009346924e-01 2.399516960706e-01
-2.500017252573e-01 -1.646453105939e-14 2.399514718976e-01
-1.250009230215e-01 -1.588985149386e-14 2.399508979443e-01
1.179062511229e-14 -1.531003442496e-14 2.399506819258e-01
1.250009230215e-01 -1.472907928818e-14 2.399508979443e-01
2.500017252573e-01 -1.416210257652e-14 2.399514718976e-01
-2.500017489902e-01 1.250009346923e-01 2.399516960706e-01
-1.250009325871e-01 1.250009325871e-01 2.399511151310e-01
1.122459686813e-14 1.250009230215e-01 2.399508979443e-01
1.250009325871e-01 1.250009325871e-01 2.399511151310e-01
2.500017489902e-01 1.250009346923e-01 2.399516960706e-01
-2.500017604220e-01 2.500017604220e-01 2.399522885298e-01
-1.250009346923e-01 2.500017489902e-01 2.399516960706e-01
1.064813284918e-14 2.500017252573e-01 2.399514718976e-01
1.250009346924e-01 2.500017489902e-01 2.399516960706e-01
2.500017604220e-01 2.500017604220e-01 2.399522885298e-01
-2.500013863042e-01 -2.500013863042e-01 3.049509910006e-01
-1.250007204861e-01 -2.500013823320e-01 3.049503684506e-01
1.292743257997e-14 -2.500013665483e-01 3.049501311391e-01
1.250007204861e-01 -2.500013823320e-01 3.049503684506e-01
2.500013863042e-01 -2.500013863042e-01 3.049509910006e-01
-2.500013823319e-01 -1.250007204861e-01 3.049503684506e-01
-1.250007202346e-01 -1.250007202346e-01 3.049497540856e-01
1.236188983528e-14 -1.250007131632e-01 3.049495223259e-01
1.250007202346e-01 -1.250007202346e-01 3.049497540856e-01
2.500013823320e-01 -1.250007204861e-01 3.049503684506e-01
-2.500013665483e-01 -1.646554944010e-14 3.049501311391e-01
-1.250007131632e-01 -1.589324541480e-14 3.049495223259e-01
1.179698685522e-14 -1.531619818497e-14 3.049492909877e-01
1.250007131632e-01 -1.474095178427e-14 3.049495223259e-01
2.500013665483e-01 -1.417109959381e-14 3.049501311391e-01
-2.500013823319e-01 1.250007204861e-01 3.049503684506e-01
-1.250007202346e-01 1.250007202346e-01 3.049497540856e-01
1.122586274531e-14 1.250007131632e-01 3.049495223259e-01
1.250007202346e-01 1.250007202346e-01 3.049497540856e-01
2.500013823320e-01 1.250007204861e-01 3.049503684506e-01
-2.500013863042e-01 2.500013863042e-01 3.049509910006e-01
-1.250007204861e-01 2.500013823319e-01 3.049503684506e-01
1.064479574394e-14 2.500013665483e-01 3.049501311391e-01
1.250007204861e-01 2.500013823319e-01 3.049503684506e-01
2.500013863042e-01 2.500013863042e-01 3.049509910006e-01
-2.500009564869e-01 -2.500009564870e-01 3.699500832484e-01
-1.250005081794e-01 -2.500009521192e-01 3.699494350611e-01
1.293650257192e-14 -2.500009404282e-01 3.699491885682e-01
1.250005081794e-01 -2.500009521192e-01 3.699494350611e-01
2.500009564869e-01 -2.500009564869e-01 3.699500832484e-01
-2.500009521192e-01 -1.250005081794e-01 3.699494350611e-01
-1.250005081798e-01 -1.250005081799e-01 3.699487920403e-01
1.237233912360e-14 -1.250005033423e-01 3.699485500925e-01
1.250005081798e-01 -1.250005081799e-01 3.699487920403e-01
2.500009521192e-01 -1.250005081794e-01 3.699494350611e-01
-2.500009404282e-01 -1.646979895936e-14 3.699491885682e-01
-1.250005033423e-01 -1.589493869217e-14 3.699485500925e-01
1.180216949567e-14 -1.532087943540e-14 3.699483080373e-01
1.250005033423e-01 -1.474963244529e-14 3.699485500925e-01
2.500009404282e-01 -1.418038555386e-14 3.699491885682e-01
-2.500009521192e-01 1.250005081794e-01 3.699494350611e-01
-1.250005081798e-01 1.250005081798e-01 3.699487920403e-01
1.122821218846e-14 1.250005033423e-01 3.699485500925e-01
1.250005081798e-01 1.250005081798e-01 3.699487920403e-01
2.500009521192e-01 1.250005081794e-01 3.699494350611e-01
-2.500009564869e-01 2.500009564869e-01 3.699500832484e-01
-1.250005081794e-01 2.500009521192e-01 3.699494350611e-01
1.064777659199e-14 2.500009404282e-01 3.699491885682e-01
1.250005081794e-01 2.500009521192e-01 3.699494350611e-01
2.500009564869e-01 2.500009564869e-01 3.699500832484e-01
-2.500005218466e-01 -2.500005218467e-01 4.349495378459e-01
-1.250002862665e-01 -2.500005167507e-01 4.349488755257e-01
1.294662302455e-14 -2.500005096712e-01 4.349486146973e-01
1.250002862665e-01 -2.500005167507e-01 4.349488755257e-01
2.500005218467e-01 -2.500005218467e-01 4.349495378459e-01
-2.500005167507e-01 -1.250002862665e-01 4.349488755257e-01
-1.250002862511e-01 -1.250002862512e-01 4.349482183925e-01
1.238069410134e-14 -1.250002833573e-01 4.349479611273e-01
1.250002862512e-01 -1.250002862512e-01 4.349482183925e-01
2.500005167507e-01 -1.250002862665e-01 4.349488755257e-01
-2.500005096712e-01 -1.647270859446e-14 4.349486146973e-01
-1.250002833573e-01 -1.589945059328e-14 4.349479611273e-01
1.180846588712e-14 -1.532731377439e-14 4.349477023413e-01
1.250002833573e-01 -1.475837514444e-14 4.349479611273e-01
2.500005096712e-01 -1.419027259095e-14 4.349486146973e-01
-2.500005167507e-01 1.250002862665e-01 4.349488755257e-01
-1.250002862511e-01 1.250002862511e-01 4.349482183925e-01
1.123224219555e-14 1.250002833573e-01 4.349479611273e-01
1.250002862512e-01 1.250002862511e-01 4.349482183925e-01
2.500005167507e-01 1.250002862665e-01 4.349488755257e-01
-2.500005218466e-01 2.500005218466e-01 4.349495378459e-01
-1.250002862665e-01 2.500005167507e-01 4.349488755257e-01
1.065172377944e-14 2.500005096712e-01 4.349486146973e-01
1.250002862665e-01 2.500005167507e-01 4.349488755257e-01
2.500005218467e-01 2.500005218466e-01 4.349495378459e-01
-2.500001227548e-01 -2.500001227548e-01 4.999493343710e-01
-1.250000457015e-01 -2.500001242791e-01 4.999486706894e-01
1.295711348338e-14 -2.500001255599e-01 4.999484039637e-01
1.250000457015e-01 -2.500001242791e-01 4.999486706894e-01
2.500001227548e-01 -2.500001227548e-01 4.999493343710e-01
-2.500001242791e-01 -1.250000457015e-01 4.999486706894e-01
-1.250000460328e-01 -1.250000460328e-01 4.999480131240e-01
1.238876812058e-14 -1.250000443710e-01 4.999477499044e-01
1.250000460328e-01 -1.250000460328e-01 4.999480131240e-01
2.500001242791e-01 -1.250000457015e-01 4.999486706894e-01
-2.500001255598e-01 -1.647370615369e-14 4.999484039637e-01
-1.250000443710e-01 -1.590464645158e-14 4.999477499044e-01
1.181760967170e-14 -1.533620952850e-14 4.999474850275e-01
1.250000443710e-01 -1.477032057670e-14 4.999477499044e-01
2.500001255599e-01 -1.419988654661e-14 4.999484039637e-01
-2.500001242791e-01 1.250000457015e-01 4.999486706894e-01
-1.250000460328e-01 1.250000460328e-01 4.999480131240e-01
1.123189204774e-14 1.250000443710e-01 4.999477499044e-01
1.250000460328e-01 1.250000460328e-01 4.999480131240e-01
2.500001242791e-01 1.250000457015e-01 4.999486706894e-01
-2.500001227548e-01 2.500001227548e-01 4.999493343710e-01
-1.250000457015e-01 2.500001242790e-01 4.999486706894e-01
1.065197348112e-14 2.500001255598e-01 4.999484039637e-01
1.250000457015e-01 2.500001242791e-01 4.999486706894e-01
2.500001227548e-01 2.500001227548e-01 4.999493343710e-01
CELLS 128 1152
8 0 1 6 5 25 26 31 30
8 1 2 7 6 26 27 32 31
8 2 3 8 7 27 28 33 32
8 3 4 9 8 28 29 34 33
8 5 6 11 10 30 31 36 35
8 6 7 12 11 31 32 37 36
8 7 8 13 12 32 33 38 37
8 8 9 14 13 33 34 39 38
8 10 11 16 15 35 36 41 40
8 11 12 17 16 36 37 42 41
8 12 13 18 17 37 38 43 42
8 13 14 19 18 38 39 44 43
8 15 16 21 20 40 41 46 45
8 16 17 22 21 41 42 47 46
8 17 18 23 22 42 43 48 47
8 18 19 24 23 43 44 49 48
8 25 26 31 30 50 51 56 55
8 26 27 32 31 51 52 57 56
8 27 28 33 32 52 53 58 57
8 28 29 34 33 53 54 59 58
8 30 31 36 35 55 56 61 60
8 31 32 37 36 56 57 62 61
8 32 33 38 37 57 58 63 62
8 33 34 39 38 58 59 64 63
8 35 36 41 40 60 61 66 65
8 36 37 42 41 61 62 67 66
8 37 38 43 42 62 63 68 67
8 38 39 44 43 63 64 69 68
8 40 41 46 45 65 66 71 70
8 41 42 47 46 66 67 72 71
8 42 43 48 47 67 68 73 72
8 43 44 49 48 68 69 74 73
8 50 51 56 55 75 76 81 80
8 51 52 57 56 76 77 82 81
8 52 53 58 57 77 78 83 82
8 53 54 59 58 78 79 84 83
8 55 56 61 60 80 81 86 85
8 56 57 62 61 81 82 87 86
8 57 58 63 62 82 83 88 87
8 58 59 64 63 83 84 89 88
8 60 61 66 65 85 86 91 90
8 61 62 67 66 86 87 92 91
8 62 63 68 67 87 88 93 92
8 63 64 69 68 88 89 94 93
8 65 66 71 70 90 91 96 95
8 66 67 72 71 91 92 97 96
8 67 68 73 72 92 93 98 97
8 68 69 74 73 93 94 99 98
8 75 76 81 80 100 101 106 105
8 76 77 82 81 101 102 107 106
8 77 78 83 82 102 103 108 107
8 78 79 84 83 103 104 109 108
8 80 81 86 85 105 106 111 110
8 81 82 87 86 106 107 112 111
8 82 83 88 87 107 108 113 112
8 83 84 89 88 108 109 114 113
8 85 86 91 90 110 111 116 115
8 86 87 92 91 111 112 117 116
8 87 88 93 92 112 113 118 117
8 88 89 94 93 113 114 119 118
8 90 91 96 95 115 116 121 120
8 91 92 97 96 116 117 122 121
8 92 93 98 97 117 118 123 122
8 93 94 99 98 118 119 124 123
8 125 126 131 130 150 151 156 155
8 126 127 132 131 151 152 157 156
8 127 128 133 132 152 153 158 157
8 128 129 134 133 153 154 159 158
8 130 131 136 135 155 156 161 160
8 131 132 137 136 156 157 162 161
8 132 133 138 137 157 158 163 162
8 133 134 139 138 158 159 164 163
8 135 136 141 140 160 161 166 165
8 136 137 142 141 161 162 167 166
8 137 138 143 142 162 163 168 167
8 138 139 144 143 163 164 169 168
8 140 141 146 145 165 166 171 170
8 141 142 147 146 166 167 172 171
8 142 143 148 147 167 168 173 172
8 143 144 149 148 168 169 174 173
8 150 151 156 155 175 176 181 180
8 151 152 157 156 176 177 182 181
8 152 153 158 157 177 178 183 182
8 153 154 159 158 178 179 184 183
8 155 156 161 160 180 181 186 185
8 156 157 162 161 181 182 187 186
8 157 158 163 162 182 183 188 187
8 158 159 164 163 183 184 189 188
8 160 161 166 165 185 186 191 190
8 161 162 167 166 186 187 192 191
8 162 163 168 167 187 188 193 192
8 163 164 169 168 188 189 194 193
8 165 166 171 170 190 191 196 195
8 166 167 172 171 191 192 197 196
8 167 168 173 172 192 193 198 197
8 168 169 174 173 193 194 199 198
8 175 176 181 180 200 201 206 205
8 176 177 182 181 201 202 207 206
8 177 178 183 182 202 203 208 207
8 178 179 184 183 203 204 209 208
8 180 181 186 185 205 206 211 210
8 181 182 187 186 206 207 212 211
8 182 183 188 187 207 208 213 212
8 183 184 189 188 208 209 214 213
8 185 186 191 190 210 211 216 215
8 186 187 192 191 211 212 217 216
8 187 188 193 192 212 213 218 217
8 188 189 194 193 213 214 219 218
8 190 191 196 195 215 216 221 220
8 191 192 197 196 216 217 222 221
8 192 193 198 197 217 218 223 222
8 193 194 199 198 218 219 224 223
8 200 201 206 205 225 226 231 230
8 201 202 207 206 226 227 232 231
8 202 203 208 207 227 228 233 232
8 203 204 209 208 228 229 234 233
8 205 206 211 210 230 231 236 235
8 206 207 212 211 231 232 237 236
8 207 208 213 212 232 233 238 237
8 208 209 214 213 233 234 239 238
8 210 211 216 215 235 236 241 240
8 211 212 217 216 236 237 242 241
8 212 213 218 217 237 238 243 242
8 213 214 219 218 238 239 244 243
8 215 216 221 220 240 241 246 245
8 216 217 222 221 241 242 247 246
8 217 218 223 222 242 243 248 247
8 218 219 224 223 243 244 249 248
CELL_TYPES 128
12
12
12
12
12
12
12
12
12
12
12
12
12
12
12
12
12
12
12
12
12
12
12
12
12
12
12
12
12
12
12
12
12
12
12
12
12
12
12
12
12
12
12
12
12
12
12
12
12
12
12
12
12
12
12
12
12
12
12
12
12
12
12
12
12
12
12
12
12
12
12
12
12
12
12
12
12
12
12
12
12
12
12
12
12
12
12
12
12
12
12
12
12
12
12
12
12
12
12
12
12
12
12
12
12
12
12
12
12
12
12
12
12
12
12
12
12
12
12
12
12
12
12
12
12
12
12
12
POINT_DATA 250
VECTORS displacement float
0.000000000000e+00 0.000000000000e+00 0.000000000000e+00
0.000000000000e+00 0.000000000000e+00 0.000000000000e+00
0.000000000000e+00 0.000000000000e+00 0.000000000000e+00
0.000000000000e+00 0.000000000000e+00 0.000000000000e+00
0.000000000000e+00 0.000000000000e+00 0.000000000000e+00
0.000000000000e+00 0.000000000000e+00 0.000000000000e+00
0.000000000000e+00 0.000000000000e+00 0.000000000000e+00
0.000000000000e+00 0.000000000000e+00 0.000000000000e+00
0.000000000000e+00 0.000000000000e+00 0.000000000000e+00
0.000000000000e+00 0.000000000000e+00 0.000000000000e+00
0.000000000000e+00 0.000000000000e+00 0.000000000000e+00
0.000000000000e+00 0.000000000000e+00 0.000000000000e+00
0.000000000000e+00 0.000000000000e+00 0.000000000000e+00
0.000000000000e+00 0.000000000000e+00 0.000000000000e+00
0.000000000000e+00 0.000000000000e+00 0.000000000000e+00
0.000000000000e+00 0.000000000000e+00 0.000000000000e+00
0.000000000000e+00 0.000000000000e+00 0.000000000000e+00
0.000000000000e+00 0.000000000000e+00 0.000000000000e+00
0.000000000000e+00 0.000000000000e+00 0.000000000000e+00
0.000000000000e+00 0.000000000000e+00 0.000000000000e+00
0.000000000000e+00 0.000000000000e+00 0.000000000000e+00
0.000000000000e+00 0.000000000000e+00 0.000000000000e+00
0.000000000000e+00 0.000000000000e+00 0.000000000000e+00
0.000000000000e+00 0.000000000000e+00 0.000000000000e+00
0.000000000000e+00 0.000000000000e+00 0.000000000000e+00
0.000000000000e+00 0.000000000000e+00 0.000000000000e+00
0.000000000000e+00 0.000000000000e+00 0.000000000000e+00
0.000000000000e+00 0.000000000000e+00 0.000000000000e+00
0.000000000000e+00 0.000000000000e+00 0.000000000000e+00
0.000000000000e+00 0.000000000000e+00 0.000000000000e+00
0.000000000000e+00 0.000000000000e+00 0.000000000000e+00
0.000000000000e+00 0.000000000000e+00 0.000000000000e+00
0.000000000000e+00 0.000000000000e+00 0.000000000000e+00
0.000000000000e+00 0.000000000000e+00 0.000000000000e+00
0.000000000000e+00 0.000000000000e+00 0.000000000000e+00
0.000000000000e+00 0.000000000000e+00 0.000000000000e+00
0.000000000000e+00 0.000000000000e+00 0.000000000000e+00
0.000000000000e+00 0.000000000000e+00 0.000000000000e+00
0.000000000000e+00 0.000000000000e+00 0.000000000000e+00
0.000000000000e+00 0.000000000000e+00 0.000000000000e+00
0.000000000000e+00 0.000000000000e+00 0.000000000000e+00
0.000000000000e+00 0.000000000000e+00 0.000000000000e+00
0.000000000000e+00 0.000000000000e+00 0.000000000000e+00
0.000000000000e+00 0.000000000000e+00 0.000000000000e+00
0.000000000000e+00 0.000000000000e+00 0.000000000000e+00
0.000000000000e+00 0.000000000000e+00 0.000000000000e+00
0.000000000000e+00 0.000000000000e+00 0.000000000000e+00
0.000000000000e+00 0.000000000000e+00 0.000000000000e+00
0.000000000000e+00 0.000000000000e+00 0.000000000000e+00
0.000000000000e+00 0.000000000000e+00 0.000000000000e+00
0.000000000000e+00 0.000000000000e+00 0.000000000000e+00
0.000000000000e+00 0.000000000000e+00 0.000000000000e+00
0.000000000000e+00 0.000000000000e+00 0.000000000000e+00
0.000000000000e+00 0.000000000000e+00 0.000000000000e+00
0.000000000000e+00 0.000000000000e+00 0.000000000000e+00
0.000000000000e+00 0.000000000000e+00 0.000000000000e+00
0.000000000000e+00 0.000000000000e+00 0.000000000000e+00
0.000000000000e+00 0.000000000000e+00 0.000000000000e+00
0.000000000000e+00 0.000000000000e+00 0.000000000000e+00
0.000000000000e+00 0.000000000000e+00 0.000000000000e+00
0.000000000000e+00 0.000000000000e+00 0.000000000000e+00
0.000000000000e+00 0.000000000000e+00 0.000000000000e+00
0.000000000000e+00 0.000000000000e+00 0.000000000000e+00
0.000000000000e+00 0.000000000000e+00 0.000000000000e+00
0.000000000000e+00 0.000000000000e+00 0.000000000000e+00
0.000000000000e+00 0.000000000000e+00 0.000000000000e+00
0.000000000000e+00 0.000000000000e+00 0.000000000000e+00
0.000000000000e+00 0.000000000000e+00 0.000000000000e+00
0.000000000000e+00 0.000000000000e+00 0.000000000000e+00
0.000000000000e+00 0.000000000000e+00 0.000000000000e+00
0.000000000000e+00 0.000000000000e+00 0.000000000000e+00
0.000000000000e+00 0.000000000000e+00 0.000000000000e+00
0.000000000000e+00 0.000000000000e+00 0.000000000000e+00
0.000000000000e+00 0.000000000000e+00 0.000000000000e+00
0.000000000000e+00 0.000000000000e+00 0.000000000000e+00
0.000000000000e+00 0.000000000000e+00 0.000000000000e+00
0.000000000000e+00 0.000000000000e+00 0.000000000000e+00
0.000000000000e+00 0.000000000000e+00 0.000000000000e+00
0.000000000000e+00 0.000000000000e+00 0.000000000000e+00
0.000000000000e+00 0.000000000000e+00 0.000000000000e+00
0.000000000000e+00 0.000000000000e+00 0.000000000000e+00
0.000000000000e+00 0.000000000000e+00 0.000000000000e+00
0.000000000000e+00 0.000000000000e+00 0.000000000000e+00
0.000000000000e+00 0.000000000000e+00 0.000000000000e+00
0.000000000000e+00 0.000000000000e+00 0.000000000000e+00
0.000000000000e+00 0.000000000000e+00 0.000000000000e+00
0.000000000000e+00 0.000000000000e+00 0.000000000000e+00
0.000000000000e+00 0.000000000000e+00 0.000000000000e+00
0.000000000000e+00 0.000000000000e+00 0.000000000000e+00
0.000000000000e+00 0.000000000000e+00 0.000000000000e+00
0.000000000000e+00 0.000000000000e+00 0.000000000000e+00
0.000000000000e+00 0.000000000000e+00 0.000000000000e+00
0.000000000000e+00 0.000000000000e+00 0.000000000000e+00
0.000000000000e+00 0.000000000000e+00 0.000000000000e+00
0.000000000000e+00 0.000000000000e+00 0.000000000000e+00
0.000000000000e+00 0.000000000000e+00 0.000000000000e+00
0.000000000000e+00 0.000000000000e+00 0.000000000000e+00
0.000000000000e+00 0.000000000000e+00 0.000000000000e+00
0.000000000000e+00 0.000000000000e+00 0.000000000000e+00
0.000000000000e+00 0.000000000000e+00 0.000000000000e+00
0.000000000000e+00 0.000000000000e+00 0.000000000000e+00
0.000000000000e+00 0.000000000000e+00 0.000000000000e+00
0.000000000000e+00 0.000000000000e+00 0.000000000000e+00
0.000000000000e+00 0.000000000000e+00 0.000000000000e+00
0.000000000000e+00 0.000000000000e+00 0.000000000000e+00
0.000000000000e+00 0.000000000000e+00 0.000000000000e+00
0.000000000000e+00 0.000000000000e+00 0.000000000000e+00
0.000000000000e+00 0.000000000000e+00 0.000000000000e+00
0.000000000000e+00 0.000000000000e+00 0.000000000000e+00
0.000000000000e+00 0.000000000000e+00 0.000000000000e+00
0.000000000000e+00 0.000000000000e+00 0.000000000000e+00
0.000000000000e+00 0.000000000000e+00 0.000000000000e+00
0.000000000000e+00 0.000000000000e+00 0.000000000000e+00
0.000000000000e+00 0.000000000000e+00 0.000000000000e+00
0.000000000000e+00 0.000000000000e+00 0.000000000000e+00
0.000000000000e+00 0.000000000000e+00 0.000000000000e+00
0.000000000000e+00 0.000000000000e+00 0.000000000000e+00
0.000000000000e+00 0.000000000000e+00 0.000000000000e+00
0.000000000000e+00 0.000000000000e+00 0.000000000000e+00
0.000000000000e+00 0.000000000000e+00 0.000000000000e+00
0.000000000000e+00 0.000000000000e+00 0.000000000000e+00
0.000000000000e+00 0.000000000000e+00 0.000000000000e+00
0.000000000000e+00 0.000000000000e+00 0.000000000000e+00
0.000000000000e+00 0.000000000000e+00 0.000000000000e+00
0.000000000000e+00 0.000000000000e+00 0.000000000000e+00
-1.760421983979e-06 -1.760422013325e-06 -1.504771147018e-02
-9.346923434784e-07 -1.748990253048e-06 -1.504830392944e-02
1.291854857919e-14 -1.725257350201e-06 -1.504852810244e-02
9.346923693053e-07 -1.748990251914e-06 -1.504830392944e-02
1.760422009792e-06 -1.760422011053e-06 -1.504771147018e-02
-1.748990224833e-06 -9.346923728420e-07 -1.504830392944e-02
-9.325870903981e-07 -9.325871186263e-07 -1.504888486900e-02
1.235193764522e-14 -9.230215508337e-07 -1.504910205571e-02
9.325871150937e-07 -9.325871174797e-07 -1.504888486900e-02
1.748990249514e-06 -9.346923705620e-07 -1.504830392944e-02
-1.725257323120e-06 -1.646453105939e-14 -1.504852810244e-02
-9.230215237416e-07 -1.588985149386e-14 -1.504910205571e-02
1.179062511229e-14 -1.531003442496e-14 -1.504931807417e-02
9.230215473117e-07 -1.472907928818e-14 -1.504910205571e-02
1.725257346666e-06 -1.416210257652e-14 -1.504852810244e-02
-1.748990225957e-06 9.346923399074e-07 -1.504830392944e-02
-9.325870915258e-07 9.325870868414e-07 -1.504888486900e-02
1.122459686813e-14 9.230215202143e-07 -1.504910205571e-02
9.325871139619e-07 9.325870880176e-07 -1.504888486900e-02
1.748990248384e-06 9.346923422357e-07 -1.504830392944e-02
-1.760421986237e-06 1.760421980384e-06 -1.504771147018e-02
-9.346923457426e-07 1.748990221258e-06 -1.504830392944e-02
1.064813284918e-14 1.725257319576e-06 -1.504852810244e-02
9.346923670346e-07 1.748990222449e-06 -1.504830392944e-02
1.760422007511e-06 1.760421982728e-06 -1.504771147018e-02
-1.386304211669e-06 -1.386304241052e-06 -1.504900899943e-02
-7.204860897595e-07 -1.382331972871e-06 -1.504963154935e-02
1.292743257997e-14 -1.366548335272e-06 -1.504986886091e-02
7.204861156107e-07 -1.382331971733e-06 -1.504963154935e-02
1.386304237512e-06 -1.386304238773e-06 -1.504900899943e-02
-1.382331944633e-06 -7.204861191439e-07 -1.504963154935e-02
-7.202345541634e-07 -7.202345824124e-07 -1.505024591437e-02
1.236188983528e-14 -7.131632021912e-07 -1.505047767410e-02
7.202345788848e-07 -7.202345812709e-07 -1.505024591437e-02
1.382331969343e-06 -7.204861168653e-07 -1.504963154935e-02
-1.366548308171e-06 -1.646554944010e-14 -1.504986886091e-02
-7.131631750806e-07 -1.589324541480e-14 -1.505047767410e-02
1.179698685522e-14 -1.531619818497e-14 -1.505070901232e-02
7.131631986687e-07 -1.474095178427e-14 -1.505047767410e-02
1.366548331747e-06 -1.417109959381e-14 -1.504986886091e-02
-1.382331945769e-06 7.204860862109e-07 -1.504963154935e-02
-7.202345553010e-07 7.202345506271e-07 -1.505024591437e-02
1.122586274531e-14 7.131631715581e-07 -1.505047767410e-02
7.202345777491e-07 7.202345517894e-07 -1.505024591437e-02
1.382331968204e-06 7.204860885232e-07 -1.504963154935e-02
-1.386304213942e-06 1.386304208110e-06 -1.504900899943e-02
-7.204860920394e-07 1.382331941085e-06 -1.504963154935e-02
1.064479574394e-14 1.366548304637e-06 -1.504986886091e-02
7.204861133320e-07 1.382331942256e-06 -1.504963154935e-02
1.386304235238e-06 1.386304210426e-06 -1.504900899943e-02
-9.564869218832e-07 -9.564869512908e-07 -1.504991675165e-02
-5.081794091179e-07 -9.521191925100e-07 -1.505056493889e-02
1.293650257192e-14 -9.404282016320e-07 -1.505081143182e-02
5.081794349945e-07 -9.521191913750e-07 -1.505056493889e-02
9.564869477608e-07 -9.564869490131e-07 -1.504991675165e-02
-9.521191642487e-07 -5.081794385216e-07 -1.505056493889e-02
-5.081798244597e-07 -5.081798527253e-07 -1.505120795973e-02
1.237233912360e-14 -5.033422846611e-07 -1.505144990751e-02
5.081798492023e-07 -5.081798515876e-07 -1.505120795973e-02
9.521191889826e-07 -5.081794362460e-07 -1.505056493889e-02
-9.404281745067e-07 -1.646979895936e-14 -1.505081143182e-02
-5.033422575377e-07 -1.589493869217e-14 -1.505144990751e-02
1.180216949567e-14 -1.532087943540e-14 -1.505169196274e-02
5.033422811423e-07 -1.474963244529e-14 -1.505144990751e-02
9.404281981071e-07 -1.418038555386e-14 -1.505081143182e-02
-9.521191653940e-07 5.081794055844e-07 -1.505056493889e-02
-5.081798256030e-07 5.081798209343e-07 -1.505120795973e-02
1.122821218846e-14 5.033422540187e-07 -1.505144990751e-02
5.081798480584e-07 5.081798220884e-07 -1.505120795973e-02
9.521191878411e-07 5.081794078855e-07 -1.505056493889e-02
-9.564869241713e-07 9.564869183492e-07 -1.504991675165e-02
-5.081794114081e-07 9.521191607145e-07 -1.505056493889e-02
1.064777659199e-14 9.404281709780e-07 -1.505081143182e-02
5.081794327082e-07 9.521191618713e-07 -1.505056493889e-02
9.564869454722e-07 9.564869206531e-07 -1.504991675165e-02
-5.218466419910e-07 -5.218466714147e-07 -1.505046215410e-02
-2.862664667634e-07 -5.167506862120e-07 -1.505112447435e-02
1.294662302455e-14 -5.096712437735e-07 -1.505138530266e-02
2.862664926620e-07 -5.167506850807e-07 -1.505112447435e-02
5.218466678902e-07 -5.218466691403e-07 -1.505046215410e-02
-5.167506579334e-07 -2.862664961843e-07 -1.505112447435e-02
-2.862511367714e-07 -2.862511650522e-07 -1.505178160750e-02
1.238069410134e-14 -2.833573423920e-07 -1.505203887273e-02
2.862511615331e-07 -2.862511639193e-07 -1.505178160750e-02
5.167506826921e-07 -2.862664939073e-07 -1.505112447435e-02
-5.096712166345e-07 -1.647270859446e-14 -1.505138530266e-02
-2.833573152510e-07 -1.589945059328e-14 -1.505203887273e-02
1.180846588712e-14 -1.532731377439e-14 -1.505229765868e-02
2.833573388721e-07 -1.475837514444e-14 -1.505203887273e-02
5.096712402539e-07 -1.419027259095e-14 -1.505138530266e-02
-5.167506590833e-07 2.862664632385e-07 -1.505112447435e-02
-2.862511379210e-07 2.862511332530e-07 -1.505178160750e-02
1.123224219555e-14 2.833573117352e-07 -1.505203887273e-02
2.862511603838e-07 2.862511343977e-07 -1.505178160750e-02
5.167506815414e-07 2.862664655305e-07 -1.505112447435e-02
-5.218466442911e-07 5.218466384652e-07 -1.505046215410e-02
-2.862664690596e-07 5.167506544108e-07 -1.505112447435e-02
1.065172377944e-14 5.096712131104e-07 -1.505138530266e-02
2.862664903681e-07 5.167506555553e-07 -1.505112447435e-02
5.218466656017e-07 5.218466407647e-07 -1.505046215410e-02
-1.227547664800e-07 -1.227547959183e-07 -1.505066562899e-02
-4.570150023345e-08 -1.242790811971e-07 -1.505132931065e-02
1.295711348338e-14 -1.255598558989e-07 -1.505159603632e-02
4.570152614344e-08 -1.242790800629e-07 -1.505132931065e-02
1.227547923951e-07 -1.227547936403e-07 -1.505066562899e-02
-1.242790528986e-07 -4.570152966960e-08 -1.505132931065e-02
-4.603280578952e-08 -4.603283408481e-08 -1.505198687605e-02
1.238876812058e-14 -4.437098756178e-08 -1.505225009559e-02
4.603283057094e-08 -4.603283295421e-08 -1.505198687605e-02
1.242790776753e-07 -4.570152739584e-08 -1.505132931065e-02
-1.255598287395e-07 -1.647370615369e-14 -1.505159603632e-02
-4.437096040717e-08 -1.590464645158e-14 -1.505225009559e-02
1.181760967170e-14 -1.533620952850e-14 -1.505251497252e-02
4.437098403808e-08 -1.477032057670e-14 -1.505225009559e-02
1.255598523663e-07 -1.419988654661e-14 -1.505159603632e-02
-1.242790540568e-07 4.570149671878e-08 -1.505132931065e-02
-4.603280695152e-08 4.603280227841e-08 -1.505198687605e-02
1.123189204774e-14 4.437095688514e-08 -1.505225009559e-02
4.603282941916e-08 4.603280341086e-08 -1.505198687605e-02
1.242790765363e-07 4.570149899487e-08 -1.505132931065e-02
-1.227547687959e-07 1.227547629684e-07 -1.505066562899e-02
-4.570150254402e-08 1.242790493864e-07 -1.505132931065e-02
1.065197348112e-14 1.255598252237e-07 -1.505159603632e-02
4.570152384916e-08 1.242790505240e-07 -1.505132931065e-02
1.227547900969e-07 1.227547652407e-07 -1.505066562899e-02
SCALARS displacement_magnitude float 1
LOOKUP_TABLE default
0.000000000000e+00
0.000000000000e+00
0.000000000000e+00
0.000000000000e+00
0.000000000000e+00
0.000000000000e+00
0.000000000000e+00
0.000000000000e+00
0.000000000000e+00
0.000000000000e+00
0.000000000000e+00
0.000000000000e+00
0.000000000000e+00
0.000000000000e+00
0.000000000000e+00
0.000000000000e+00
0.000000000000e+00
0.000000000000e+00
0.000000000000e+00
0.000000000000e+00
0.000000000000e+00
0.000000000000e+00
0.000000000000e+00
0.000000000000e+00
0.000000000000e+00
0.000000000000e+00
0.000000000000e+00
0.000000000000e+00
0.000000000000e+00
0.000000000000e+00
0.000000000000e+00
0.000000000000e+00
0.000000000000e+00
0.000000000000e+00
0.000000000000e+00
0.000000000000e+00
0.000000000000e+00
0.000000000000e+00
0.000000000000e+00
0.000000000000e+00
0.000000000000e+00
0.000000000000e+00
0.000000000000e+00
0.000000000000e+00
0.000000000000e+00
0.000000000000e+00
0.000000000000e+00
0.000000000000e+00
0.000000000000e+00
0.000000000000e+00
0.000000000000e+00
0.000000000000e+00
0.000000000000e+00
0.000000000000e+00
0.000000000000e+00
0.000000000000e+00
0.000000000000e+00
0.000000000000e+00
0.000000000000e+00
0.000000000000e+00
0.000000000000e+00
0.000000000000e+00
0.000000000000e+00
0.000000000000e+00
0.000000000000e+00
0.000000000000e+00
0.000000000000e+00
0.000000000000e+00
0.000000000000e+00
0.000000000000e+00
0.000000000000e+00
0.000000000000e+00
0.000000000000e+00
0.000000000000e+00
0.000000000000e+00
0.000000000000e+00
0.000000000000e+00
0.000000000000e+00
0.000000000000e+00
0.000000000000e+00
0.000000000000e+00
0.000000000000e+00
0.000000000000e+00
0.000000000000e+00
0.000000000000e+00
0.000000000000e+00
0.000000000000e+00
0.000000000000e+00
0.000000000000e+00
0.000000000000e+00
0.000000000000e+00
0.000000000000e+00
0.000000000000e+00
0.000000000000e+00
0.000000000000e+00
0.000000000000e+00
0.000000000000e+00
0.000000000000e+00
0.000000000000e+00
0.000000000000e+00
0.000000000000e+00
0.000000000000e+00
0.000000000000e+00
0.000000000000e+00
0.000000000000e+00
0.000000000000e+00
0.000000000000e+00
0.000000000000e+00
0.000000000000e+00
0.000000000000e+00
0.000000000000e+00
0.000000000000e+00
0.000000000000e+00
0.000000000000e+00
0.000000000000e+00
0.000000000000e+00
0.000000000000e+00
0.000000000000e+00
0.000000000000e+00
0.000000000000e+00
0.000000000000e+00
0.000000000000e+00
0.000000000000e+00
0.000000000000e+00
0.000000000000e+00
1.504771167613e-02
1.504830406010e-02
1.504852820133e-02
1.504830406010e-02
1.504771167613e-02
1.504830406010e-02
1.504888492679e-02
1.504910208402e-02
1.504888492679e-02
1.504830406010e-02
1.504852820133e-02
1.504910208402e-02
1.504931807417e-02
1.504910208402e-02
1.504852820133e-02
1.504830406010e-02
1.504888492679e-02
1.504910208402e-02
1.504888492679e-02
1.504830406010e-02
1.504771167613e-02
1.504830406010e-02
1.504852820133e-02
1.504830406010e-02
1.504771167613e-02
1.504900912713e-02
1.504963163008e-02
1.504986892295e-02
1.504963163008e-02
1.504900912713e-02
1.504963163008e-02
1.505024594884e-02
1.505047769100e-02
1.505024594884e-02
1.504963163008e-02
1.504986892295e-02
1.505047769100e-02
1.505070901232e-02
1.505047769100e-02
1.504986892295e-02
1.504963163008e-02
1.505024594884e-02
1.505047769100e-02
1.505024594884e-02
1.504963163008e-02
1.504900912713e-02
1.504963163008e-02
1.504986892295e-02
1.504963163008e-02
1.504900912713e-02
1.504991681244e-02
1.505056497758e-02
1.505081146120e-02
1.505056497758e-02
1.504991681244e-02
1.505056497758e-02
1.505120797688e-02
1.505144991593e-02
1.505120797688e-02
1.505056497758e-02
1.505081146120e-02
1.505144991593e-02
1.505169196274e-02
1.505144991593e-02
1.505081146120e-02
1.505056497758e-02
1.505120797688e-02
1.505144991593e-02
1.505120797688e-02
1.505056497758e-02
1.504991681244e-02
1.505056497758e-02
1.505081146120e-02
1.505056497758e-02
1.504991681244e-02
1.505046217220e-02
1.505112448594e-02
1.505138531129e-02
1.505112448594e-02
1.505046217220e-02
1.505112448594e-02
1.505178161294e-02
1.505203887540e-02
1.505178161294e-02
1.505112448594e-02
1.505138531129e-02
1.505203887540e-02
1.505229765868e-02
1.505203887540e-02
1.505138531129e-02
1.505112448594e-02
1.505178161294e-02
1.505203887540e-02
1.505178161294e-02
1.505112448594e-02
1.505046217220e-02
1.505112448594e-02
1.505138531129e-02
1.505112448594e-02
1.505046217220e-02
1.505066562999e-02
1.505132931123e-02
1.505159603684e-02
1.505132931123e-02
1.505066562999e-02
1.505132931123e-02
1.505198687619e-02
1.505225009565e-02
1.505198687619e-02
1.505132931123e-02
1.505159603684e-02
1.505225009565e-02
1.505251497252e-02
1.505225009565e-02
1.505159603684e-02
1.505132931123e-02
1.505198687619e-02
1.505225009565e-02
1.505198687619e-02
1.505132931123e-02
1.505066562999e-02
1.505132931123e-02
1.505159603684e-02
1.505132931123e-02
1.505066562999e-02
CELL_DATA 128
SCALARS displacement_magnitude float 1
LOOKUP_TABLE default
0.000000000000e+00
0.000000000000e+00
0.000000000000e+00
0.000000000000e+00
0.000000000000e+00
0.000000000000e+00
0.000000000000e+00
0.000000000000e+00
0.000000000000e+00
0.000000000000e+00
0.000000000000e+00
0.000000000000e+00
0.000000000000e+00
0.000000000000e+00
0.000000000000e+00
0.000000000000e+00
0.000000000000e+00
0.000000000000e+00
0.000000000000e+00
0.000000000000e+00
0.000000000000e+00
0.000000000000e+00
0.000000000000e+00
0.000000000000e+00
0.000000000000e+00
0.000000000000e+00
0.000000000000e+00
0.000000000000e+00
0.000000000000e+00
0.000000000000e+00
0.000000000000e+00
0.000000000000e+00
0.000000000000e+00
0.000000000000e+00
0.000000000000e+00
0.000000000000e+00
0.000000000000e+00
0.000000000000e+00
0.000000000000e+00
0.000000000000e+00
0.000000000000e+00
0.000000000000e+00
0.000000000000e+00
0.000000000000e+00
0.000000000000e+00
0.000000000000e+00
0.000000000000e+00
0.000000000000e+00
0.000000000000e+00
0.000000000000e+00
0.000000000000e+00
0.000000000000e+00
0.000000000000e+00
0.000000000000e+00
0.000000000000e+00
0.000000000000e+00
0.000000000000e+00
0.000000000000e+00
0.000000000000e+00
0.000000000000e+00
0.000000000000e+00
0.000000000000e+00
0.000000000000e+00
0.000000000000e+00
1.504896538241e-02
1.504938043314e-02
1.504938043314e-02
1.504896538241e-02
1.504938043314e-02
1.504978968902e-02
1.504978968902e-02
1.504938043314e-02
1.504938043314e-02
1.504978968902e-02
1.504978968902e-02
1.504938043314e-02
1.504896538241e-02
1.504938043314e-02
1.504938043314e-02
1.504896538241e-02
1.505009663508e-02
1.505053231556e-02
1.505053231556e-02
1.505009663508e-02
1.505053231556e-02
1.505096376433e-02
1.505096376433e-02
1.505053231556e-02
1.505053231556e-02
1.505096376433e-02
1.505096376433e-02
1.505053231556e-02
1.505009663508e-02
1.505053231556e-02
1.505053231556e-02
1.505009663508e-02
1.505084343769e-02
1.505129557715e-02
1.505129557715e-02
1.505084343769e-02
1.505129557715e-02
1.505174459924e-02
1.505174459924e-02
1.505129557715e-02
1.505129557715e-02
1.505174459924e-02
1.505174459924e-02
1.505129557715e-02
1.505084343769e-02
1.505129557715e-02
1.505129557715e-02
1.505084343769e-02
1.505122548571e-02
1.505168657569e-02
1.505168657569e-02
1.505122548571e-02
1.505168657569e-02
1.505214488280e-02
1.505214488280e-02
1.505168657569e-02
1.505168657569e-02
1.505214488280e-02
1.505214488280e-02
1.505168657569e-02
1.505122548571e-02
1.505168657569e-02
1.505168657569e-02
1.505122548571e-02
SCALARS engineering_strain_norm float 1
LOOKUP_TABLE default
0.000000000000e+00
0.000000000000e+00
0.000000000000e+00
0.000000000000e+00
0.000000000000e+00
0.000000000000e+00
0.000000000000e+00
0.000000000000e+00
0.000000000000e+00
0.000000000000e+00
0.000000000000e+00
0.000000000000e+00
0.000000000000e+00
0.000000000000e+00
0.000000000000e+00
0.000000000000e+00
0.000000000000e+00
0.000000000000e+00
0.000000000000e+00
0.000000000000e+00
0.000000000000e+00
0.000000000000e+00
0.000000000000e+00
0.000000000000e+00
0.000000000000e+00
0.000000000000e+00
0.000000000000e+00
0.000000000000e+00
0.000000000000e+00
0.000000000000e+00
0.000000000000e+00
0.000000000000e+00
0.000000000000e+00
0.000000000000e+00
0.000000000000e+00
0.000000000000e+00
0.000000000000e+00
0.000000000000e+00
0.000000000000e+00
0.000000000000e+00
0.000000000000e+00
0.000000000000e+00
0.000000000000e+00
0.000000000000e+00
0.000000000000e+00
0.000000000000e+00
0.000000000000e+00
0.000000000000e+00
0.000000000000e+00
0.000000000000e+00
0.000000000000e+00
0.000000000000e+00
0.000000000000e+00
0.000000000000e+00
0.000000000000e+00
0.000000000000e+00
0.000000000000e+00
0.000000000000e+00
0.000000000000e+00
0.000000000000e+00
0.000000000000e+00
0.000000000000e+00
0.000000000000e+00
0.000000000000e+00
2.210192389728e-05
2.259508831607e-05
2.259508831602e-05
2.210192389717e-05
2.259508831610e-05
2.312166170560e-05
2.312166170562e-05
2.259508831604e-05
2.259508831608e-05
2.312166170564e-05
2.312166170559e-05
2.259508831603e-05
2.210192389719e-05
2.259508831599e-05
2.259508831605e-05
2.210192389719e-05
1.568437842460e-05
1.607186054100e-05
1.607186054097e-05
1.568437842449e-05
1.607186054106e-05
1.648504348435e-05
1.648504348435e-05
1.607186054101e-05
1.607186054104e-05
1.648504348439e-05
1.648504348438e-05
1.607186054097e-05
1.568437842450e-05
1.607186054090e-05
1.607186054095e-05
1.568437842448e-05
9.429672180413e-06
9.765303854145e-06
9.765303854172e-06
9.429672180366e-06
9.765303854168e-06
1.011837897524e-05
1.011837897526e-05
9.765303854149e-06
9.765303854179e-06
1.011837897518e-05
1.011837897523e-05
9.765303854151e-06
9.429672180365e-06
9.765303854037e-06
9.765303853999e-06
9.429672180295e-06
3.646660978956e-06
3.709289570599e-06
3.709289570623e-06
3.646660978947e-06
3.709289570645e-06
3.764134819219e-06
3.764134819321e-06
3.709289570655e-06
3.709289570633e-06
3.764134819202e-06
3.764134819220e-06
3.709289570648e-06
3.646660978941e-06
3.709289570513e-06
3.709289570582e-06
3.646660978993e-06
SCALARS von_mises float 1
LOOKUP_TABLE default
0.000000000000e+00
0.000000000000e+00
0.000000000000e+00
0.000000000000e+00
0.000000000000e+00
0.000000000000e+00
0.000000000000e+00
0.000000000000e+00
0.000000000000e+00
0.000000000000e+00
0.000000000000e+00
0.000000000000e+00
0.000000000000e+00
0.000000000000e+00
0.000000000000e+00
0.000000000000e+00
0.000000000000e+00
0.000000000000e+00
0.000000000000e+00
0.000000000000e+00
0.000000000000e+00
0.000000000000e+00
0.000000000000e+00
0.000000000000e+00
0.000000000000e+00
0.000000000000e+00
0.000000000000e+00
0.000000000000e+00
0.000000000000e+00
0.000000000000e+00
0.000000000000e+00
0.000000000000e+00
0.000000000000e+00
0.000000000000e+00
0.000000000000e+00
0.000000000000e+00
0.000000000000e+00
0.000000000000e+00
0.000000000000e+00
0.000000000000e+00
0.000000000000e+00
0.000000000000e+00
0.000000000000e+00
0.000000000000e+00
0.000000000000e+00
0.000000000000e+00
0.000000000000e+00
0.000000000000e+00
0.000000000000e+00
0.000000000000e+00
0.000000000000e+00
0.000000000000e+00
0.000000000000e+00
0.000000000000e+00
0.000000000000e+00
0.000000000000e+00
0.000000000000e+00
0.000000000000e+00
0.000000000000e+00
0.000000000000e+00
0.000000000000e+00
0.000000000000e+00
0.000000000000e+00
0.000000000000e+00
2.029309910956e+00
2.080059028787e+00
2.080059028783e+00
2.029309910947e+00
2.080059028790e+00
2.134236468934e+00
2.134236468935e+00
2.080059028785e+00
2.080059028788e+00
2.134236468937e+00
2.134236468932e+00
2.080059028784e+00
2.029309910948e+00
2.080059028780e+00
2.080059028786e+00
2.029309910948e+00
1.447102767769e+00
1.485805534535e+00
1.485805534533e+00
1.447102767759e+00
1.485805534540e+00
1.527087785499e+00
1.527087785499e+00
1.485805534536e+00
1.485805534539e+00
1.527087785502e+00
1.527087785502e+00
1.485805534533e+00
1.447102767759e+00
1.485805534527e+00
1.485805534531e+00
1.447102767758e+00
8.712868565287e-01
9.053400105860e-01
9.053400105886e-01
8.712868565246e-01
9.053400105880e-01
9.410972508155e-01
9.410972508176e-01
9.053400105869e-01
9.053400105891e-01
9.410972508098e-01
9.410972508143e-01
9.053400105870e-01
8.712868565246e-01
9.053400105764e-01
9.053400105731e-01
8.712868565185e-01
3.397028126691e-01
3.462301014952e-01
3.462301014975e-01
3.397028126679e-01
3.462301014994e-01
3.523089224998e-01
3.523089225090e-01
3.462301015000e-01
3.462301014983e-01
3.523089224983e-01
3.523089224999e-01
3.462301014995e-01
3.397028126680e-01
3.462301014877e-01
3.462301014941e-01
3.397028126723e-01
SCALARS sdf_gap float 1
LOOKUP_TABLE default
0.000000000000e+00
0.000000000000e+00
0.000000000000e+00
0.000000000000e+00
0.000000000000e+00
0.000000000000e+00
0.000000000000e+00
0.000000000000e+00
0.000000000000e+00
0.000000000000e+00
0.000000000000e+00
0.000000000000e+00
0.000000000000e+00
0.000000000000e+00
0.000000000000e+00
0.000000000000e+00
0.000000000000e+00
0.000000000000e+00
0.000000000000e+00
0.000000000000e+00
0.000000000000e+00
0.000000000000e+00
0.000000000000e+00
0.000000000000e+00
0.000000000000e+00
0.000000000000e+00
0.000000000000e+00
0.000000000000e+00
0.000000000000e+00
0.000000000000e+00
0.000000000000e+00
0.000000000000e+00
0.000000000000e+00
0.000000000000e+00
0.000000000000e+00
0.000000000000e+00
0.000000000000e+00
0.000000000000e+00
0.000000000000e+00
0.000000000000e+00
0.000000000000e+00
0.000000000000e+00
0.000000000000e+00
0.000000000000e+00
0.000000000000e+00
0.000000000000e+00
0.000000000000e+00
0.000000000000e+00
0.000000000000e+00
0.000000000000e+00
0.000000000000e+00
0.000000000000e+00
0.000000000000e+00
0.000000000000e+00
0.000000000000e+00
0.000000000000e+00
0.000000000000e+00
0.000000000000e+00
0.000000000000e+00
0.000000000000e+00
0.000000000000e+00
0.000000000000e+00
0.000000000000e+00
0.000000000000e+00
-4.830104951355e-05
-4.870473914553e-05
-4.870473914554e-05
-4.830104951359e-05
-4.870473914548e-05
-4.910176364668e-05
-4.910176364669e-05
-4.870473914553e-05
-4.870473914548e-05
-4.910176364665e-05
-4.910176364666e-05
-4.870473914551e-05
-4.830104951356e-05
-4.870473914550e-05
-4.870473914549e-05
-4.830104951355e-05
0.000000000000e+00
0.000000000000e+00
0.000000000000e+00
0.000000000000e+00
0.000000000000e+00
0.000000000000e+00
0.000000000000e+00
0.000000000000e+00
0.000000000000e+00
0.000000000000e+00
0.000000000000e+00
0.000000000000e+00
0.000000000000e+00
0.000000000000e+00
0.000000000000e+00
0.000000000000e+00
0.000000000000e+00
0.000000000000e+00
0.000000000000e+00
0.000000000000e+00
0.000000000000e+00
0.000000000000e+00
0.000000000000e+00
0.000000000000e+00
0.000000000000e+00
0.000000000000e+00
0.000000000000e+00
0.000000000000e+00
0.000000000000e+00
0.000000000000e+00
0.000000000000e+00
0.000000000000e+00
0.000000000000e+00
0.000000000000e+00
0.000000000000e+00
0.000000000000e+00
0.000000000000e+00
0.000000000000e+00
0.000000000000e+00
0.000000000000e+00
0.000000000000e+00
0.000000000000e+00
0.000000000000e+00
0.000000000000e+00
0.000000000000e+00
0.000000000000e+00
0.000000000000e+00
0.000000000000e+00
SCALARS contact_pressure float 1
LOOKUP_TABLE default
0.000000000000e+00
0.000000000000e+00
0.000000000000e+00
0.000000000000e+00
0.000000000000e+00
0.000000000000e+00
0.000000000000e+00
0.000000000000e+00
0.000000000000e+00
0.000000000000e+00
0.000000000000e+00
0.000000000000e+00
0.000000000000e+00
0.000000000000e+00
0.000000000000e+00
0.000000000000e+00
0.000000000000e+00
0.000000000000e+00
0.000000000000e+00
0.000000000000e+00
0.000000000000e+00
0.000000000000e+00
0.000000000000e+00
0.000000000000e+00
0.000000000000e+00
0.000000000000e+00
0.000000000000e+00
0.000000000000e+00
0.000000000000e+00
0.000000000000e+00
0.000000000000e+00
0.000000000000e+00
0.000000000000e+00
0.000000000000e+00
0.000000000000e+00
0.000000000000e+00
0.000000000000e+00
0.000000000000e+00
0.000000000000e+00
0.000000000000e+00
0.000000000000e+00
0.000000000000e+00
0.000000000000e+00
0.000000000000e+00
0.000000000000e+00
0.000000000000e+00
0.000000000000e+00
0.000000000000e+00
0.000000000000e+00
0.000000000000e+00
0.000000000000e+00
0.000000000000e+00
0.000000000000e+00
0.000000000000e+00
0.000000000000e+00
0.000000000000e+00
0.000000000000e+00
0.000000000000e+00
0.000000000000e+00
0.000000000000e+00
0.000000000000e+00
0.000000000000e+00
0.000000000000e+00
0.000000000000e+00
2.415052475677e+00
2.435236957276e+00
2.435236957277e+00
2.415052475679e+00
2.435236957274e+00
2.455088182334e+00
2.455088182335e+00
2.435236957277e+00
2.435236957274e+00
2.455088182332e+00
2.455088182333e+00
2.435236957276e+00
2.415052475678e+00
2.435236957275e+00
2.435236957274e+00
2.415052475677e+00
0.000000000000e+00
0.000000000000e+00
0.000000000000e+00
0.000000000000e+00
0.000000000000e+00
0.000000000000e+00
0.000000000000e+00
0.000000000000e+00
0.000000000000e+00
0.000000000000e+00
0.000000000000e+00
0.000000000000e+00
0.000000000000e+00
0.000000000000e+00
0.000000000000e+00
0.000000000000e+00
0.000000000000e+00
0.000000000000e+00
0.000000000000e+00
0.000000000000e+00
0.000000000000e+00
0.000000000000e+00
0.000000000000e+00
0.000000000000e+00
0.000000000000e+00
0.000000000000e+00
0.000000000000e+00
0.000000000000e+00
0.000000000000e+00
0.000000000000e+00
0.000000000000e+00
0.000000000000e+00
0.000000000000e+00
0.000000000000e+00
0.000000000000e+00
0.000000000000e+00
0.000000000000e+00
0.000000000000e+00
0.000000000000e+00
0.000000000000e+00
0.000000000000e+00
0.000000000000e+00
0.000000000000e+00
0.000000000000e+00
0.000000000000e+00
0.000000000000e+00
0.000000000000e+00
0.000000000000e+00
SCALARS active_contact float 1
LOOKUP_TABLE default
0.000000000000e+00
0.000000000000e+00
0.000000000000e+00
0.000000000000e+00
0.000000000000e+00
0.000000000000e+00
0.000000000000e+00
0.000000000000e+00
0.000000000000e+00
0.000000000000e+00
0.000000000000e+00
0.000000000000e+00
0.000000000000e+00
0.000000000000e+00
0.000000000000e+00
0.000000000000e+00
0.000000000000e+00
0.000000000000e+00
0.000000000000e+00
0.000000000000e+00
0.000000000000e+00
0.000000000000e+00
0.000000000000e+00
0.000000000000e+00
0.000000000000e+00
0.000000000000e+00
0.000000000000e+00
0.000000000000e+00
0.000000000000e+00
0.000000000000e+00
0.000000000000e+00
0.000000000000e+00
0.000000000000e+00
0.000000000000e+00
0.000000000000e+00
0.000000000000e+00
0.000000000000e+00
0.000000000000e+00
0.000000000000e+00
0.000000000000e+00
0.000000000000e+00
0.000000000000e+00
0.000000000000e+00
0.000000000000e+00
0.000000000000e+00
0.000000000000e+00
0.000000000000e+00
0.000000000000e+00
0.000000000000e+00
0.000000000000e+00
0.000000000000e+00
0.000000000000e+00
0.000000000000e+00
0.000000000000e+00
0.000000000000e+00
0.000000000000e+00
0.000000000000e+00
0.000000000000e+00
0.000000000000e+00
0.000000000000e+00
0.000000000000e+00
0.000000000000e+00
0.000000000000e+00
0.000000000000e+00
1.000000000000e+00
1.000000000000e+00
1.000000000000e+00
1.000000000000e+00
1.000000000000e+00
1.000000000000e+00
1.000000000000e+00
1.000000000000e+00
1.000000000000e+00
1.000000000000e+00
1.000000000000e+00
1.000000000000e+00
1.000000000000e+00
1.000000000000e+00
1.000000000000e+00
1.000000000000e+00
0.000000000000e+00
0.000000000000e+00
0.000000000000e+00
0.000000000000e+00
0.000000000000e+00
0.000000000000e+00
0.000000000000e+00
0.000000000000e+00
0.000000000000e+00
0.000000000000e+00
0.000000000000e+00
0.000000000000e+00
0.000000000000e+00
0.000000000000e+00
0.000000000000e+00
0.000000000000e+00
0.000000000000e+00
0.000000000000e+00
0.000000000000e+00
0.000000000000e+00
0.000000000000e+00
0.000000000000e+00
0.000000000000e+00
0.000000000000e+00
0.000000000000e+00
0.000000000000e+00
0.000000000000e+00
0.000000000000e+00
0.000000000000e+00
0.000000000000e+00
0.000000000000e+00
0.000000000000e+00
0.000000000000e+00
0.000000000000e+00
0.000000000000e+00
0.000000000000e+00
0.000000000000e+00
0.000000000000e+00
0.000000000000e+00
0.000000000000e+00
0.000000000000e+00
0.000000000000e+00
0.000000000000e+00
0.000000000000e+00
0.000000000000e+00
0.000000000000e+00
0.000000000000e+00
0.000000000000e+00
