# vtk DataFile Version 3.0
SFC long-time C3D8 dynamic frame 63 t=1.260000000000e+00
ASCII
DATASET UNSTRUCTURED_GRID
POINTS 250 float
-2.500000000000e-01 -2.500000000000e-01 0.000000000000e+00
-1.250000000000e-01 -2.500000000000e-01 0.000000000000e+00
0.000000000000e+00 -2.500000000000e-01 0.000000000000e+00
1.250000000000e-01 -2.500000000000e-01 0.000000000000e+00
2.500000000000e-01 -2.500000000000e-01 0.000000000000e+00
-2.500000000000e-01 -1.250000000000e-01 0.000000000000e+00
-1.250000000000e-01 -1.250000000000e-01 0.000000000000e+00
0.000000000000e+00 -1.250000000000e-01 0.000000000000e+00
1.250000000000e-01 -1.250000000000e-01 0.000000000000e+00
2.500000000000e-01 -1.250000000000e-01 0.000000000000e+00
-2.500000000000e-01 0.000000000000e+00 0.000000000000e+00
-1.250000000000e-01 0.000000000000e+00 0.000000000000e+00
0.000000000000e+00 0.000000000000e+00 0.000000000000e+00
1.250000000000e-01 0.000000000000e+00 0.000000000000e+00
2.500000000000e-01 0.000000000000e+00 0.000000000000e+00
-2.500000000000e-01 1.250000000000e-01 0.000000000000e+00
-1.250000000000e-01 1.250000000000e-01 0.000000000000e+00
0.000000000000e+00 1.250000000000e-01 0.000000000000e+00
1.250000000000e-01 1.250000000000e-01 0.000000000000e+00
2.500000000000e-01 1.250000000000e-01 0.000000000000e+00
-2.500000000000e-01 2.500000000000e-01 0.000000000000e+00
-1.250000000000e-01 2.500000000000e-01 0.000000000000e+00
0.000000000000e+00 2.500000000000e-01 0.000000000000e+00
1.250000000000e-01 2.500000000000e-01 0.000000000000e+00
2.500000000000e-01 2.500000000000e-01 0.000000000000e+00
-2.500000000000e-01 -2.500000000000e-01 6.000000000000e-02
-1.250000000000e-01 -2.500000000000e-01 6.000000000000e-02
0.000000000000e+00 -2.500000000000e-01 6.000000000000e-02
1.250000000000e-01 -2.500000000000e-01 6.000000000000e-02
2.500000000000e-01 -2.500000000000e-01 6.000000000000e-02
-2.500000000000e-01 -1.250000000000e-01 6.000000000000e-02
-1.250000000000e-01 -1.250000000000e-01 6.000000000000e-02
0.000000000000e+00 -1.250000000000e-01 6.000000000000e-02
1.250000000000e-01 -1.250000000000e-01 6.000000000000e-02
2.500000000000e-01 -1.250000000000e-01 6.000000000000e-02
-2.500000000000e-01 0.000000000000e+00 6.000000000000e-02
-1.250000000000e-01 0.000000000000e+00 6.000000000000e-02
0.000000000000e+00 0.000000000000e+00 6.000000000000e-02
1.250000000000e-01 0.000000000000e+00 6.000000000000e-02
2.500000000000e-01 0.000000000000e+00 6.000000000000e-02
-2.500000000000e-01 1.250000000000e-01 6.000000000000e-02
-1.250000000000e-01 1.250000000000e-01 6.000000000000e-02
0.000000000000e+00 1.250000000000e-01 6.000000000000e-02
1.250000000000e-01 1.250000000000e-01 6.000000000000e-02
2.500000000000e-01 1.250000000000e-01 6.000000000000e-02
-2.500000000000e-01 2.500000000000e-01 6.000000000000e-02
-1.250000000000e-01 2.500000000000e-01 6.000000000000e-02
0.000000000000e+00 2.500000000000e-01 6.000000000000e-02
1.250000000000e-01 2.500000000000e-01 6.000000000000e-02
2.500000000000e-01 2.500000000000e-01 6.000000000000e-02
-2.500000000000e-01 -2.500000000000e-01 1.200000000000e-01
-1.250000000000e-01 -2.500000000000e-01 1.200000000000e-01
0.000000000000e+00 -2.500000000000e-01 1.200000000000e-01
1.250000000000e-01 -2.500000000000e-01 1.200000000000e-01
2.500000000000e-01 -2.500000000000e-01 1.200000000000e-01
-2.500000000000e-01 -1.250000000000e-01 1.200000000000e-01
-1.250000000000e-01 -1.250000000000e-01 1.200000000000e-01
0.000000000000e+00 -1.250000000000e-01 1.200000000000e-01
1.250000000000e-01 -1.250000000000e-01 1.200000000000e-01
2.500000000000e-01 -1.250000000000e-01 1.200000000000e-01
-2.500000000000e-01 0.000000000000e+00 1.200000000000e-01
-1.250000000000e-01 0.000000000000e+00 1.200000000000e-01
0.000000000000e+00 0.000000000000e+00 1.200000000000e-01
1.250000000000e-01 0.000000000000e+00 1.200000000000e-01
2.500000000000e-01 0.000000000000e+00 1.200000000000e-01
-2.500000000000e-01 1.250000000000e-01 1.200000000000e-01
-1.250000000000e-01 1.250000000000e-01 1.200000000000e-01
0.000000000000e+00 1.250000000000e-01 1.200000000000e-01
1.250000000000e-01 1.250000000000e-01 1.200000000000e-01
2.500000000000e-01 1.250000000000e-01 1.200000000000e-01
-2.500000000000e-01 2.500000000000e-01 1.200000000000e-01
-1.250000000000e-01 2.500000000000e-01 1.200000000000e-01
0.000000000000e+00 2.500000000000e-01 1.200000000000e-01
1.250000000000e-01 2.500000000000e-01 1.200000000000e-01
2.500000000000e-01 2.500000000000e-01 1.200000000000e-01
-2.500000000000e-01 -2.500000000000e-01 1.800000000000e-01
-1.250000000000e-01 -2.500000000000e-01 1.800000000000e-01
0.000000000000e+00 -2.500000000000e-01 1.800000000000e-01
1.250000000000e-01 -2.500000000000e-01 1.800000000000e-01
2.500000000000e-01 -2.500000000000e-01 1.800000000000e-01
-2.500000000000e-01 -1.250000000000e-01 1.800000000000e-01
-1.250000000000e-01 -1.250000000000e-01 1.800000000000e-01
0.000000000000e+00 -1.250000000000e-01 1.800000000000e-01
1.250000000000e-01 -1.250000000000e-01 1.800000000000e-01
2.500000000000e-01 -1.250000000000e-01 1.800000000000e-01
-2.500000000000e-01 0.000000000000e+00 1.800000000000e-01
-1.250000000000e-01 0.000000000000e+00 1.800000000000e-01
0.000000000000e+00 0.000000000000e+00 1.800000000000e-01
1.250000000000e-01 0.000000000000e+00 1.800000000000e-01
2.500000000000e-01 0.000000000000e+00 1.800000000000e-01
-2.500000000000e-01 1.250000000000e-01 1.800000000000e-01
-1.250000000000e-01 1.250000000000e-01 1.800000000000e-01
0.000000000000e+00 1.250000000000e-01 1.800000000000e-01
1.250000000000e-01 1.250000000000e-01 1.800000000000e-01
2.500000000000e-01 1.250000000000e-01 1.800000000000e-01
-2.500000000000e-01 2.500000000000e-01 1.800000000000e-01
-1.250000000000e-01 2.500000000000e-01 1.800000000000e-01
0.000000000000e+00 2.500000000000e-01 1.800000000000e-01
1.250000000000e-01 2.500000000000e-01 1.800000000000e-01
2.500000000000e-01 2.500000000000e-01 1.800000000000e-01
-2.500000000000e-01 -2.500000000000e-01 2.400000000000e-01
-1.250000000000e-01 -2.500000000000e-01 2.400000000000e-01
0.000000000000e+00 -2.500000000000e-01 2.400000000000e-01
1.250000000000e-01 -2.500000000000e-01 2.400000000000e-01
2.500000000000e-01 -2.500000000000e-01 2.400000000000e-01
-2.500000000000e-01 -1.250000000000e-01 2.400000000000e-01
-1.250000000000e-01 -1.250000000000e-01 2.400000000000e-01
0.000000000000e+00 -1.250000000000e-01 2.400000000000e-01
1.250000000000e-01 -1.250000000000e-01 2.400000000000e-01
2.500000000000e-01 -1.250000000000e-01 2.400000000000e-01
-2.500000000000e-01 0.000000000000e+00 2.400000000000e-01
-1.250000000000e-01 0.000000000000e+00 2.400000000000e-01
0.000000000000e+00 0.000000000000e+00 2.400000000000e-01
1.250000000000e-01 0.000000000000e+00 2.400000000000e-01
2.500000000000e-01 0.000000000000e+00 2.400000000000e-01
-2.500000000000e-01 1.250000000000e-01 2.400000000000e-01
-1.250000000000e-01 1.250000000000e-01 2.400000000000e-01
0.000000000000e+00 1.250000000000e-01 2.400000000000e-01
1.250000000000e-01 1.250000000000e-01 2.400000000000e-01
2.500000000000e-01 1.250000000000e-01 2.400000000000e-01
-2.500000000000e-01 2.500000000000e-01 2.400000000000e-01
-1.250000000000e-01 2.500000000000e-01 2.400000000000e-01
0.000000000000e+00 2.500000000000e-01 2.400000000000e-01
1.250000000000e-01 2.500000000000e-01 2.400000000000e-01
2.500000000000e-01 2.500000000000e-01 2.400000000000e-01
-2.500000248944e-01 -2.500000249325e-01 2.446436292620e-01
-1.250000169849e-01 -2.500000235278e-01 2.446436172513e-01
5.911299795021e-11 -2.500000216057e-01 2.446436114828e-01
1.250000171031e-01 -2.500000235278e-01 2.446436173646e-01
2.500000250127e-01 -2.500000249326e-01 2.446436294887e-01
-2.500000234896e-01 -1.250000170230e-01 2.446436172152e-01
-1.250000168538e-01 -1.250000168920e-01 2.446436062491e-01
5.914216517167e-11 -1.250000162119e-01 2.446436010846e-01
1.250000169721e-01 -1.250000168920e-01 2.446436063625e-01
2.500000236079e-01 -1.250000170231e-01 2.446436174419e-01
-2.500000215675e-01 2.103291096275e-11 2.446436114107e-01
-1.250000161737e-01 2.100444105591e-11 2.446436010485e-01
5.917100813548e-11 2.097584965554e-11 2.446435960330e-01
1.250000162920e-01 2.094710113637e-11 2.446436011618e-01
2.500000216859e-01 2.091825546670e-11 2.446436116373e-01
-2.500000234896e-01 1.250000170650e-01 2.446436172564e-01
-1.250000168538e-01 1.250000169340e-01 2.446436062904e-01
5.919944053115e-11 1.250000162538e-01 2.446436011258e-01
1.250000169722e-01 1.250000169339e-01 2.446436064037e-01
2.500000236080e-01 1.250000170649e-01 2.446436174831e-01
-2.500000248943e-01 2.500000249746e-01 2.446436293444e-01
-1.250000169848e-01 2.500000235698e-01 2.446436173337e-01
5.922757470418e-11 2.500000216477e-01 2.446436115652e-01
1.250000171032e-01 2.500000235697e-01 2.446436174470e-01
2.500000250128e-01 2.500000249745e-01 2.446436295711e-01
-2.500000192403e-01 -2.500000192596e-01 3.096436249261e-01
-1.250000125639e-01 -2.500000184363e-01 3.096436119809e-01
2.964608834640e-11 -2.500000170794e-01 3.096436053164e-01
1.250000126232e-01 -2.500000184363e-01 3.096436120942e-01
2.500000192995e-01 -2.500000192597e-01 3.096436251527e-01
-2.500000184169e-01 -1.250000125832e-01 3.096436119449e-01
-1.250000125963e-01 -1.250000126157e-01 3.096435997157e-01
2.967528522105e-11 -1.250000121411e-01 3.096435934383e-01
1.250000126557e-01 -1.250000126157e-01 3.096435998290e-01
2.500000184762e-01 -1.250000125833e-01 3.096436121715e-01
-2.500000170599e-01 1.031584468871e-11 3.096436052443e-01
-1.250000121216e-01 1.028738706515e-11 3.096435934022e-01
2.970416388821e-11 1.025881063035e-11 3.096435871311e-01
1.250000121811e-01 1.023006179800e-11 3.096435935155e-01
2.500000171193e-01 1.020121243457e-11 3.096436054709e-01
-2.500000184168e-01 1.250000126039e-01 3.096436119861e-01
-1.250000125962e-01 1.250000126363e-01 3.096435997569e-01
2.973257524899e-11 1.250000121616e-01 3.096435934795e-01
1.250000126557e-01 1.250000126362e-01 3.096435998703e-01
2.500000184763e-01 1.250000126037e-01 3.096436122127e-01
-2.500000192401e-01 2.500000192802e-01 3.096436250085e-01
-1.250000125638e-01 2.500000184569e-01 3.096436120634e-01
2.976069477527e-11 2.500000170999e-01 3.096436053988e-01
1.250000126233e-01 2.500000184568e-01 3.096436121767e-01
2.500000192997e-01 2.500000192801e-01 3.096436252352e-01
-2.500000138540e-01 -2.500000138545e-01 3.746436194471e-01
-1.250000086751e-01 -2.500000134748e-01 3.746436057065e-01
1.795372157636e-13 -2.500000126576e-01 3.746435986433e-01
1.250000086755e-01 -2.500000134749e-01 3.746436058199e-01
2.500000138543e-01 -2.500000138547e-01 3.746436196738e-01
-2.500000134742e-01 -1.250000086757e-01 3.746436056705e-01
-1.250000086918e-01 -1.250000086924e-01 3.746435924287e-01
2.086718201771e-13 -1.250000084167e-01 3.746435856424e-01
1.250000086922e-01 -1.250000086925e-01 3.746435925421e-01
2.500000134746e-01 -1.250000086758e-01 3.746436058971e-01
-2.500000126569e-01 -4.010920749891e-13 3.746435985712e-01
-1.250000084160e-01 -4.295713495020e-13 3.746435856064e-01
2.375619912770e-13 -4.581400330671e-13 3.746435787534e-01
1.250000084164e-01 -4.868817530535e-13 3.746435857197e-01
2.500000126573e-01 -5.157086109941e-13 3.746435987978e-01
-2.500000134741e-01 1.250000086749e-01 3.746436057117e-01
-1.250000086917e-01 1.250000086916e-01 3.746435924700e-01
2.659769598138e-13 1.250000084157e-01 3.746435856836e-01
1.250000086922e-01 1.250000086915e-01 3.746435925833e-01
2.500000134747e-01 1.250000086748e-01 3.746436059384e-01
-2.500000138538e-01 2.500000138537e-01 3.746436195296e-01
-1.250000086750e-01 2.500000134740e-01 3.746436057890e-01
2.941541579127e-13 2.500000126566e-01 3.746435987257e-01
1.250000086756e-01 2.500000134739e-01 3.746436059023e-01
2.500000138544e-01 2.500000138536e-01 3.746436197562e-01
-2.500000071640e-01 -2.500000071459e-01 4.396436155287e-01
-1.250000044285e-01 -2.500000070654e-01 4.396436009815e-01
-2.928687014787e-11 -2.500000067410e-01 4.396435937508e-01
1.250000043700e-01 -2.500000070654e-01 4.396436010949e-01
2.500000071055e-01 -2.500000071460e-01 4.396436157554e-01
-2.500000070835e-01 -1.250000044104e-01 4.396436009455e-01
-1.250000044354e-01 -1.250000044173e-01 4.396435868300e-01
-2.925779870351e-11 -1.250000043161e-01 4.396435798347e-01
1.250000043769e-01 -1.250000044174e-01 4.396435869434e-01
2.500000070250e-01 -1.250000044105e-01 4.396436011721e-01
-2.500000067590e-01 -1.111797427418e-11 4.396435936787e-01
-1.250000043342e-01 -1.114647734694e-11 4.396435797986e-01
-2.922889456903e-11 -1.117503655013e-11 4.396435727026e-01
1.250000042757e-01 -1.120377114151e-11 4.396435799119e-01
2.500000067005e-01 -1.123257628486e-11 4.396435939054e-01
-2.500000070834e-01 1.250000043881e-01 4.396436009867e-01
-1.250000044354e-01 1.250000043950e-01 4.396435868713e-01
-2.920047695366e-11 1.250000042938e-01 4.396435798759e-01
1.250000043770e-01 1.250000043950e-01 4.396435869846e-01
2.500000070250e-01 1.250000043880e-01 4.396436012134e-01
-2.500000071639e-01 2.500000071236e-01 4.396436156111e-01
-1.250000044284e-01 2.500000070431e-01 4.396436010640e-01
-2.917224135098e-11 2.500000067186e-01 4.396435938333e-01
1.250000043701e-01 2.500000070430e-01 4.396436011773e-01
2.500000071056e-01 2.500000071235e-01 4.396436158378e-01
-2.499999994315e-01 -2.499999993946e-01 5.046436140122e-01
-1.249999990444e-01 -2.499999996485e-01 5.046435991945e-01
-5.875350321808e-11 -2.499999997777e-01 5.046435919963e-01
1.249999989269e-01 -2.499999996486e-01 5.046435993078e-01
2.499999993140e-01 -2.499999993947e-01 5.046436142388e-01
-2.499999996854e-01 -1.249999990074e-01 5.046435991584e-01
-1.249999991094e-01 -1.249999990725e-01 5.046435847948e-01
-5.872439178963e-11 -1.249999990702e-01 5.046435778413e-01
1.249999989919e-01 -1.249999990726e-01 5.046435849081e-01
2.499999995679e-01 -1.249999990076e-01 5.046435993851e-01
-2.499999998145e-01 -2.183493837951e-11 5.046435919242e-01
-1.249999991070e-01 -2.186342629924e-11 5.046435778053e-01
-5.869543320602e-11 -2.189196195274e-11 5.046435707617e-01
1.249999989896e-01 -2.192070095299e-11 5.046435779186e-01
2.499999996971e-01 -2.194951515800e-11 5.046435921509e-01
-2.499999996853e-01 1.249999989638e-01 5.046435991996e-01
-1.249999991093e-01 1.249999990288e-01 5.046435848360e-01
-5.866705115347e-11 1.249999990264e-01 5.046435778825e-01
1.249999989920e-01 1.249999990287e-01 5.046435849493e-01
2.499999995680e-01 1.249999989637e-01 5.046435994263e-01
-2.499999994314e-01 2.499999993509e-01 5.046436140946e-01
-1.249999990442e-01 2.499999996048e-01 5.046435992769e-01
-5.863885131980e-11 2.499999997339e-01 5.046435920788e-01
1.249999989270e-01 2.499999996047e-01 5.046435993903e-01
2.499999993141e-01 2.499999993508e-01 5.046436143213e-01
CELLS 128 1152
8 0 1 6 5 25 26 31 30
8 1 2 7 6 26 27 32 31
8 2 3 8 7 27 28 33 32
8 3 4 9 8 28 29 34 33
8 5 6 11 10 30 31 36 35
8 6 7 12 11 31 32 37 36
8 7 8 13 12 32 33 38 37
8 8 9 14 13 33 34 39 38
8 10 11 16 15 35 36 41 40
8 11 12 17 16 36 37 42 41
8 12 13 18 17 37 38 43 42
8 13 14 19 18 38 39 44 43
8 15 16 21 20 40 41 46 45
8 16 17 22 21 41 42 47 46
8 17 18 23 22 42 43 48 47
8 18 19 24 23 43 44 49 48
8 25 26 31 30 50 51 56 55
8 26 27 32 31 51 52 57 56
8 27 28 33 32 52 53 58 57
8 28 29 34 33 53 54 59 58
8 30 31 36 35 55 56 61 60
8 31 32 37 36 56 57 62 61
8 32 33 38 37 57 58 63 62
8 33 34 39 38 58 59 64 63
8 35 36 41 40 60 61 66 65
8 36 37 42 41 61 62 67 66
8 37 38 43 42 62 63 68 67
8 38 39 44 43 63 64 69 68
8 40 41 46 45 65 66 71 70
8 41 42 47 46 66 67 72 71
8 42 43 48 47 67 68 73 72
8 43 44 49 48 68 69 74 73
8 50 51 56 55 75 76 81 80
8 51 52 57 56 76 77 82 81
8 52 53 58 57 77 78 83 82
8 53 54 59 58 78 79 84 83
8 55 56 61 60 80 81 86 85
8 56 57 62 61 81 82 87 86
8 57 58 63 62 82 83 88 87
8 58 59 64 63 83 84 89 88
8 60 61 66 65 85 86 91 90
8 61 62 67 66 86 87 92 91
8 62 63 68 67 87 88 93 92
8 63 64 69 68 88 89 94 93
8 65 66 71 70 90 91 96 95
8 66 67 72 71 91 92 97 96
8 67 68 73 72 92 93 98 97
8 68 69 74 73 93 94 99 98
8 75 76 81 80 100 101 106 105
8 76 77 82 81 101 102 107 106
8 77 78 83 82 102 103 108 107
8 78 79 84 83 103 104 109 108
8 80 81 86 85 105 106 111 110
8 81 82 87 86 106 107 112 111
8 82 83 88 87 107 108 113 112
8 83 84 89 88 108 109 114 113
8 85 86 91 90 110 111 116 115
8 86 87 92 91 111 112 117 116
8 87 88 93 92 112 113 118 117
8 88 89 94 93 113 114 119 118
8 90 91 96 95 115 116 121 120
8 91 92 97 96 116 117 122 121
8 92 93 98 97 117 118 123 122
8 93 94 99 98 118 119 124 123
8 125 126 131 130 150 151 156 155
8 126 127 132 131 151 152 157 156
8 127 128 133 132 152 153 158 157
8 128 129 134 133 153 154 159 158
8 130 131 136 135 155 156 161 160
8 131 132 137 136 156 157 162 161
8 132 133 138 137 157 158 163 162
8 133 134 139 138 158 159 164 163
8 135 136 141 140 160 161 166 165
8 136 137 142 141 161 162 167 166
8 137 138 143 142 162 163 168 167
8 138 139 144 143 163 164 169 168
8 140 141 146 145 165 166 171 170
8 141 142 147 146 166 167 172 171
8 142 143 148 147 167 168 173 172
8 143 144 149 148 168 169 174 173
8 150 151 156 155 175 176 181 180
8 151 152 157 156 176 177 182 181
8 152 153 158 157 177 178 183 182
8 153 154 159 158 178 179 184 183
8 155 156 161 160 180 181 186 185
8 156 157 162 161 181 182 187 186
8 157 158 163 162 182 183 188 187
8 158 159 164 163 183 184 189 188
8 160 161 166 165 185 186 191 190
8 161 162 167 166 186 187 192 191
8 162 163 168 167 187 188 193 192
8 163 164 169 168 188 189 194 193
8 165 166 171 170 190 191 196 195
8 166 167 172 171 191 192 197 196
8 167 168 173 172 192 193 198 197
8 168 169 174 173 193 194 199 198
8 175 176 181 180 200 201 206 205
8 176 177 182 181 201 202 207 206
8 177 178 183 182 202 203 208 207
8 178 179 184 183 203 204 209 208
8 180 181 186 185 205 206 211 210
8 181 182 187 186 206 207 212 211
8 182 183 188 187 207 208 213 212
8 183 184 189 188 208 209 214 213
8 185 186 191 190 210 211 216 215
8 186 187 192 191 211 212 217 216
8 187 188 193 192 212 213 218 217
8 188 189 194 193 213 214 219 218
8 190 191 196 195 215 216 221 220
8 191 192 197 196 216 217 222 221
8 192 193 198 197 217 218 223 222
8 193 194 199 198 218 219 224 223
8 200 201 206 205 225 226 231 230
8 201 202 207 206 226 227 232 231
8 202 203 208 207 227 228 233 232
8 203 204 209 208 228 229 234 233
8 205 206 211 210 230 231 236 235
8 206 207 212 211 231 232 237 236
8 207 208 213 212 232 233 238 237
8 208 209 214 213 233 234 239 238
8 210 211 216 215 235 236 241 240
8 211 212 217 216 236 237 242 241
8 212 213 218 217 237 238 243 242
8 213 214 219 218 238 239 244 243
8 215 216 221 220 240 241 246 245
8 216 217 222 221 241 242 247 246
8 217 218 223 222 242 243 248 247
8 218 219 224 223 243 244 249 248
CELL_TYPES 128
12
12
12
12
12
12
12
12
12
12
12
12
12
12
12
12
12
12
12
12
12
12
12
12
12
12
12
12
12
12
12
12
12
12
12
12
12
12
12
12
12
12
12
12
12
12
12
12
12
12
12
12
12
12
12
12
12
12
12
12
12
12
12
12
12
12
12
12
12
12
12
12
12
12
12
12
12
12
12
12
12
12
12
12
12
12
12
12
12
12
12
12
12
12
12
12
12
12
12
12
12
12
12
12
12
12
12
12
12
12
12
12
12
12
12
12
12
12
12
12
12
12
12
12
12
12
12
12
POINT_DATA 250
VECTORS displacement float
0.000000000000e+00 0.000000000000e+00 0.000000000000e+00
0.000000000000e+00 0.000000000000e+00 0.000000000000e+00
0.000000000000e+00 0.000000000000e+00 0.000000000000e+00
0.000000000000e+00 0.000000000000e+00 0.000000000000e+00
0.000000000000e+00 0.000000000000e+00 0.000000000000e+00
0.000000000000e+00 0.000000000000e+00 0.000000000000e+00
0.000000000000e+00 0.000000000000e+00 0.000000000000e+00
0.000000000000e+00 0.000000000000e+00 0.000000000000e+00
0.000000000000e+00 0.000000000000e+00 0.000000000000e+00
0.000000000000e+00 0.000000000000e+00 0.000000000000e+00
0.000000000000e+00 0.000000000000e+00 0.000000000000e+00
0.000000000000e+00 0.000000000000e+00 0.000000000000e+00
0.000000000000e+00 0.000000000000e+00 0.000000000000e+00
0.000000000000e+00 0.000000000000e+00 0.000000000000e+00
0.000000000000e+00 0.000000000000e+00 0.000000000000e+00
0.000000000000e+00 0.000000000000e+00 0.000000000000e+00
0.000000000000e+00 0.000000000000e+00 0.000000000000e+00
0.000000000000e+00 0.000000000000e+00 0.000000000000e+00
0.000000000000e+00 0.000000000000e+00 0.000000000000e+00
0.000000000000e+00 0.000000000000e+00 0.000000000000e+00
0.000000000000e+00 0.000000000000e+00 0.000000000000e+00
0.000000000000e+00 0.000000000000e+00 0.000000000000e+00
0.000000000000e+00 0.000000000000e+00 0.000000000000e+00
0.000000000000e+00 0.000000000000e+00 0.000000000000e+00
0.000000000000e+00 0.000000000000e+00 0.000000000000e+00
0.000000000000e+00 0.000000000000e+00 0.000000000000e+00
0.000000000000e+00 0.000000000000e+00 0.000000000000e+00
0.000000000000e+00 0.000000000000e+00 0.000000000000e+00
0.000000000000e+00 0.000000000000e+00 0.000000000000e+00
0.000000000000e+00 0.000000000000e+00 0.000000000000e+00
0.000000000000e+00 0.000000000000e+00 0.000000000000e+00
0.000000000000e+00 0.000000000000e+00 0.000000000000e+00
0.000000000000e+00 0.000000000000e+00 0.000000000000e+00
0.000000000000e+00 0.000000000000e+00 0.000000000000e+00
0.000000000000e+00 0.000000000000e+00 0.000000000000e+00
0.000000000000e+00 0.000000000000e+00 0.000000000000e+00
0.000000000000e+00 0.000000000000e+00 0.000000000000e+00
0.000000000000e+00 0.000000000000e+00 0.000000000000e+00
0.000000000000e+00 0.000000000000e+00 0.000000000000e+00
0.000000000000e+00 0.000000000000e+00 0.000000000000e+00
0.000000000000e+00 0.000000000000e+00 0.000000000000e+00
0.000000000000e+00 0.000000000000e+00 0.000000000000e+00
0.000000000000e+00 0.000000000000e+00 0.000000000000e+00
0.000000000000e+00 0.000000000000e+00 0.000000000000e+00
0.000000000000e+00 0.000000000000e+00 0.000000000000e+00
0.000000000000e+00 0.000000000000e+00 0.000000000000e+00
0.000000000000e+00 0.000000000000e+00 0.000000000000e+00
0.000000000000e+00 0.000000000000e+00 0.000000000000e+00
0.000000000000e+00 0.000000000000e+00 0.000000000000e+00
0.000000000000e+00 0.000000000000e+00 0.000000000000e+00
0.000000000000e+00 0.000000000000e+00 0.000000000000e+00
0.000000000000e+00 0.000000000000e+00 0.000000000000e+00
0.000000000000e+00 0.000000000000e+00 0.000000000000e+00
0.000000000000e+00 0.000000000000e+00 0.000000000000e+00
0.000000000000e+00 0.000000000000e+00 0.000000000000e+00
0.000000000000e+00 0.000000000000e+00 0.000000000000e+00
0.000000000000e+00 0.000000000000e+00 0.000000000000e+00
0.000000000000e+00 0.000000000000e+00 0.000000000000e+00
0.000000000000e+00 0.000000000000e+00 0.000000000000e+00
0.000000000000e+00 0.000000000000e+00 0.000000000000e+00
0.000000000000e+00 0.000000000000e+00 0.000000000000e+00
0.000000000000e+00 0.000000000000e+00 0.000000000000e+00
0.000000000000e+00 0.000000000000e+00 0.000000000000e+00
0.000000000000e+00 0.000000000000e+00 0.000000000000e+00
0.000000000000e+00 0.000000000000e+00 0.000000000000e+00
0.000000000000e+00 0.000000000000e+00 0.000000000000e+00
0.000000000000e+00 0.000000000000e+00 0.000000000000e+00
0.000000000000e+00 0.000000000000e+00 0.000000000000e+00
0.000000000000e+00 0.000000000000e+00 0.000000000000e+00
0.000000000000e+00 0.000000000000e+00 0.000000000000e+00
0.000000000000e+00 0.000000000000e+00 0.000000000000e+00
0.000000000000e+00 0.000000000000e+00 0.000000000000e+00
0.000000000000e+00 0.000000000000e+00 0.000000000000e+00
0.000000000000e+00 0.000000000000e+00 0.000000000000e+00
0.000000000000e+00 0.000000000000e+00 0.000000000000e+00
0.000000000000e+00 0.000000000000e+00 0.000000000000e+00
0.000000000000e+00 0.000000000000e+00 0.000000000000e+00
0.000000000000e+00 0.000000000000e+00 0.000000000000e+00
0.000000000000e+00 0.000000000000e+00 0.000000000000e+00
0.000000000000e+00 0.000000000000e+00 0.000000000000e+00
0.000000000000e+00 0.000000000000e+00 0.000000000000e+00
0.000000000000e+00 0.000000000000e+00 0.000000000000e+00
0.000000000000e+00 0.000000000000e+00 0.000000000000e+00
0.000000000000e+00 0.000000000000e+00 0.000000000000e+00
0.000000000000e+00 0.000000000000e+00 0.000000000000e+00
0.000000000000e+00 0.000000000000e+00 0.000000000000e+00
0.000000000000e+00 0.000000000000e+00 0.000000000000e+00
0.000000000000e+00 0.000000000000e+00 0.000000000000e+00
0.000000000000e+00 0.000000000000e+00 0.000000000000e+00
0.000000000000e+00 0.000000000000e+00 0.000000000000e+00
0.000000000000e+00 0.000000000000e+00 0.000000000000e+00
0.000000000000e+00 0.000000000000e+00 0.000000000000e+00
0.000000000000e+00 0.000000000000e+00 0.000000000000e+00
0.000000000000e+00 0.000000000000e+00 0.000000000000e+00
0.000000000000e+00 0.000000000000e+00 0.000000000000e+00
0.000000000000e+00 0.000000000000e+00 0.000000000000e+00
0.000000000000e+00 0.000000000000e+00 0.000000000000e+00
0.000000000000e+00 0.000000000000e+00 0.000000000000e+00
0.000000000000e+00 0.000000000000e+00 0.000000000000e+00
0.000000000000e+00 0.000000000000e+00 0.000000000000e+00
0.000000000000e+00 0.000000000000e+00 0.000000000000e+00
0.000000000000e+00 0.000000000000e+00 0.000000000000e+00
0.000000000000e+00 0.000000000000e+00 0.000000000000e+00
0.000000000000e+00 0.000000000000e+00 0.000000000000e+00
0.000000000000e+00 0.000000000000e+00 0.000000000000e+00
0.000000000000e+00 0.000000000000e+00 0.000000000000e+00
0.000000000000e+00 0.000000000000e+00 0.000000000000e+00
0.000000000000e+00 0.000000000000e+00 0.000000000000e+00
0.000000000000e+00 0.000000000000e+00 0.000000000000e+00
0.000000000000e+00 0.000000000000e+00 0.000000000000e+00
0.000000000000e+00 0.000000000000e+00 0.000000000000e+00
0.000000000000e+00 0.000000000000e+00 0.000000000000e+00
0.000000000000e+00 0.000000000000e+00 0.000000000000e+00
0.000000000000e+00 0.000000000000e+00 0.000000000000e+00
0.000000000000e+00 0.000000000000e+00 0.000000000000e+00
0.000000000000e+00 0.000000000000e+00 0.000000000000e+00
0.000000000000e+00 0.000000000000e+00 0.000000000000e+00
0.000000000000e+00 0.000000000000e+00 0.000000000000e+00
0.000000000000e+00 0.000000000000e+00 0.000000000000e+00
0.000000000000e+00 0.000000000000e+00 0.000000000000e+00
0.000000000000e+00 0.000000000000e+00 0.000000000000e+00
0.000000000000e+00 0.000000000000e+00 0.000000000000e+00
0.000000000000e+00 0.000000000000e+00 0.000000000000e+00
0.000000000000e+00 0.000000000000e+00 0.000000000000e+00
0.000000000000e+00 0.000000000000e+00 0.000000000000e+00
-2.489444283623e-08 -2.493252204313e-08 -1.035637073802e-02
-1.698487247791e-08 -2.352778072939e-08 -1.035638274875e-02
5.911299795021e-11 -2.160574192145e-08 -1.035638851722e-02
1.710309837224e-08 -2.352783942289e-08 -1.035638263541e-02
2.501266866077e-08 -2.493263924402e-08 -1.035637051135e-02
-2.348964353750e-08 -1.702295199658e-08 -1.035638278480e-02
-1.685382930468e-08 -1.689196670652e-08 -1.035639375086e-02
5.914216517167e-11 -1.621185168861e-08 -1.035639891545e-02
1.697211353807e-08 -1.689202491803e-08 -1.035639363752e-02
2.360792762980e-08 -1.702306829317e-08 -1.035638255814e-02
-2.156754685984e-08 2.103291096275e-11 -1.035638858934e-02
-1.617365656293e-08 2.100444105591e-11 -1.035639895151e-02
5.917100813548e-11 2.097584965554e-11 -1.035640396697e-02
1.629199849668e-08 2.094710113637e-11 -1.035639883817e-02
2.168588859318e-08 2.091825546670e-11 -1.035638836267e-02
-2.348958673524e-08 1.706501778839e-08 -1.035638274358e-02
-1.685377232992e-08 1.693397555973e-08 -1.035639370964e-02
5.919944053115e-11 1.625380336008e-08 -1.035639887423e-02
1.697217112343e-08 1.693391908931e-08 -1.035639359631e-02
2.360798539679e-08 1.706490476615e-08 -1.035638251692e-02
-2.489432916488e-08 2.497458780574e-08 -1.035637065558e-02
-1.698475848309e-08 2.356978954500e-08 -1.035638266631e-02
5.922757470418e-11 2.164769353035e-08 -1.035638843478e-02
1.710321353252e-08 2.356973354908e-08 -1.035638255297e-02
2.501278414742e-08 2.497447568699e-08 -1.035637042891e-02
-1.924025157408e-08 -1.925958116889e-08 -1.035637507392e-02
-1.256388861201e-08 -1.843627997867e-08 -1.035638801909e-02
2.964608834640e-11 -1.707935081523e-08 -1.035639468362e-02
1.262318086220e-08 -1.843633843242e-08 -1.035638790575e-02
1.929954398283e-08 -1.925969805623e-08 -1.035637484726e-02
-1.841689241303e-08 -1.258321841794e-08 -1.035638805514e-02
-1.259630144176e-08 -1.261568912216e-08 -1.035640028430e-02
2.967528522105e-11 -1.214109148309e-08 -1.035640656173e-02
1.265565206055e-08 -1.261574716654e-08 -1.035640017096e-02
1.847624310910e-08 -1.258333447972e-08 -1.035638782848e-02
-1.705990545723e-08 1.031584468871e-11 -1.035639475574e-02
-1.212164612167e-08 1.028738706515e-11 -1.035640659779e-02
2.970416388821e-11 1.025881063035e-11 -1.035641286894e-02
1.218105448930e-08 1.023006179800e-11 -1.035640648445e-02
1.711931382176e-08 1.020121243457e-11 -1.035639452907e-02
-1.841683551990e-08 1.260385013738e-08 -1.035638801392e-02
-1.259624440578e-08 1.263626391586e-08 -1.035640024308e-02
2.973257524899e-11 1.216160912079e-08 -1.035640652051e-02
1.265570961168e-08 1.263620731446e-08 -1.035640012974e-02
1.847630080947e-08 1.260373693105e-08 -1.035638778726e-02
-1.924013779003e-08 1.928021294970e-08 -1.035637499148e-02
-1.256377452787e-08 1.845685480534e-08 -1.035638793665e-02
2.976069477527e-11 1.709986845372e-08 -1.035639460119e-02
1.262329597677e-08 1.845679861361e-08 -1.035638782331e-02
1.929965938625e-08 1.928010056515e-08 -1.035637476482e-02
-1.385395724034e-08 -1.385453735271e-08 -1.035638055288e-02
-8.675125808981e-09 -1.347482430710e-08 -1.035639429346e-02
1.795372157636e-13 -1.265755914152e-08 -1.035640135671e-02
8.675484962884e-09 -1.347488251384e-08 -1.035639418013e-02
1.385431659037e-08 -1.385465386445e-08 -1.035638032621e-02
-1.347418627112e-08 -8.675706085409e-09 -1.035639432952e-02
-8.691773549287e-09 -8.692411641349e-09 -1.035640757126e-02
2.086718201771e-13 -8.416665680459e-09 -1.035641435758e-02
8.692190978122e-09 -8.692469509219e-09 -1.035640745793e-02
1.347460385775e-08 -8.675821891978e-09 -1.035639410285e-02
-1.265686339352e-08 -4.010920749891e-13 -1.035640142882e-02
-8.415969958807e-09 -4.295713495020e-13 -1.035641439364e-02
2.375619912770e-13 -4.581400330671e-13 -1.035642124663e-02
8.416445148318e-09 -4.868817530535e-13 -1.035641428031e-02
1.265733867190e-08 -5.157086109941e-13 -1.035640120216e-02
-1.347412929151e-08 8.674903932294e-09 -1.035639428830e-02
-8.691716445371e-09 8.691552531812e-09 -1.035640753004e-02
2.659769598138e-13 8.415749428254e-09 -1.035641431636e-02
8.692248486265e-09 8.691495783490e-09 -1.035640741671e-02
1.347466149212e-08 8.674790506804e-09 -1.035639406164e-02
-1.385384331299e-08 1.385373527458e-08 -1.035638047044e-02
-8.675011626995e-09 1.347396525488e-08 -1.035639421103e-02
2.941541579127e-13 1.265664292314e-08 -1.035640127427e-02
8.675600009803e-09 1.347390884749e-08 -1.035639409769e-02
1.385443188591e-08 1.385362255529e-08 -1.035638024377e-02
-7.164027897310e-09 -7.145858630816e-09 -1.035638447131e-02
-4.428530043852e-09 -7.065389639095e-09 -1.035639901847e-02
-2.928687014787e-11 -6.740951084565e-09 -1.035640624916e-02
4.369956377835e-09 -7.065447528752e-09 -1.035639890514e-02
7.105454362677e-09 -7.145974634492e-09 -1.035638424464e-02
-7.083501067567e-09 -4.410360883922e-09 -1.035639905453e-02
-4.435413625188e-09 -4.417302221496e-09 -1.035641316995e-02
-2.925779870351e-11 -4.316140432244e-09 -1.035642016535e-02
4.376898137282e-09 -4.417359897072e-09 -1.035641305662e-02
7.024985708619e-09 -4.410476408022e-09 -1.035639882786e-02
-6.759004885276e-09 -1.111797427418e-11 -1.035640632127e-02
-4.334194258211e-09 -1.114647734694e-11 -1.035642020141e-02
-2.922889456903e-11 -1.117503655013e-11 -1.035642729738e-02
4.275736561753e-09 -1.120377114151e-11 -1.035642008807e-02
6.700547255871e-09 -1.123257628486e-11 -1.035640609461e-02
-7.083443971002e-09 4.388124958781e-09 -1.035639901331e-02
-4.435356447492e-09 4.395009307839e-09 -1.035641312873e-02
-2.920047695366e-11 4.293790392867e-09 -1.035642012413e-02
4.376955597423e-09 4.394952392528e-09 -1.035641301540e-02
7.025043248586e-09 4.388011287262e-09 -1.035639878664e-02
-7.163913785875e-09 7.123622751692e-09 -1.035638438887e-02
-4.428415754749e-09 7.043096772613e-09 -1.035639893604e-02
-2.917224135098e-11 6.718601066172e-09 -1.035640616672e-02
4.370071348354e-09 7.043040072034e-09 -1.035639882270e-02
7.105569510775e-09 7.123509562886e-09 -1.035638416220e-02
5.684618404484e-10 6.053805254943e-10 -1.035638598783e-02
9.556379036814e-10 3.514916838101e-10 -1.035640080552e-02
-5.875350321808e-11 2.223035359864e-10 -1.035640800367e-02
-1.073144692229e-09 3.514341524532e-10 -1.035640069219e-02
-6.859683788890e-10 6.052650478307e-10 -1.035638576116e-02
3.146307978947e-10 9.925565820130e-10 -1.035640084158e-02
8.906165224945e-10 9.274774601962e-10 -1.035641520521e-02
-5.872439178963e-11 9.297861451626e-10 -1.035642215869e-02
-1.008065070303e-09 9.274200040071e-10 -1.035641509187e-02
-4.320791145417e-10 9.924413855521e-10 -1.035640061491e-02
1.855001867266e-10 -2.183493837951e-11 -1.035640807578e-02
8.929827421025e-10 -2.186342629924e-11 -1.035642219474e-02
-5.869543320602e-11 -2.189196195274e-11 -1.035642923830e-02
-1.010373412089e-09 -2.192070095299e-11 -1.035642208141e-02
-3.028906997726e-10 -2.194951515800e-11 -1.035640784912e-02
3.146880254469e-10 -1.036226388223e-09 -1.035640080036e-02
8.906737813982e-10 -9.712042296017e-10 -1.035641516399e-02
-5.866705115347e-11 -9.735700039888e-10 -1.035642211747e-02
-1.008007662296e-09 -9.712613337728e-10 -1.035641505065e-02
-4.320216801896e-10 -1.036340343044e-09 -1.035640057369e-02
5.685761445630e-10 -6.490502491528e-10 -1.035638590539e-02
9.557523169686e-10 -3.952183773485e-10 -1.035640072308e-02
-5.863885131980e-11 -2.660873415090e-10 -1.035640792123e-02
-1.073029800891e-09 -3.952754084316e-10 -1.035640060975e-02
-6.858533824204e-10 -6.491639190159e-10 -1.035638567872e-02
SCALARS displacement_magnitude float 1
LOOKUP_TABLE default
0.000000000000e+00
0.000000000000e+00
0.000000000000e+00
0.000000000000e+00
0.000000000000e+00
0.000000000000e+00
0.000000000000e+00
0.000000000000e+00
0.000000000000e+00
0.000000000000e+00
0.000000000000e+00
0.000000000000e+00
0.000000000000e+00
0.000000000000e+00
0.000000000000e+00
0.000000000000e+00
0.000000000000e+00
0.000000000000e+00
0.000000000000e+00
0.000000000000e+00
0.000000000000e+00
0.000000000000e+00
0.000000000000e+00
0.000000000000e+00
0.000000000000e+00
0.000000000000e+00
0.000000000000e+00
0.000000000000e+00
0.000000000000e+00
0.000000000000e+00
0.000000000000e+00
0.000000000000e+00
0.000000000000e+00
0.000000000000e+00
0.000000000000e+00
0.000000000000e+00
0.000000000000e+00
0.000000000000e+00
0.000000000000e+00
0.000000000000e+00
0.000000000000e+00
0.000000000000e+00
0.000000000000e+00
0.000000000000e+00
0.000000000000e+00
0.000000000000e+00
0.000000000000e+00
0.000000000000e+00
0.000000000000e+00
0.000000000000e+00
0.000000000000e+00
0.000000000000e+00
0.000000000000e+00
0.000000000000e+00
0.000000000000e+00
0.000000000000e+00
0.000000000000e+00
0.000000000000e+00
0.000000000000e+00
0.000000000000e+00
0.000000000000e+00
0.000000000000e+00
0.000000000000e+00
0.000000000000e+00
0.000000000000e+00
0.000000000000e+00
0.000000000000e+00
0.000000000000e+00
0.000000000000e+00
0.000000000000e+00
0.000000000000e+00
0.000000000000e+00
0.000000000000e+00
0.000000000000e+00
0.000000000000e+00
0.000000000000e+00
0.000000000000e+00
0.000000000000e+00
0.000000000000e+00
0.000000000000e+00
0.000000000000e+00
0.000000000000e+00
0.000000000000e+00
0.000000000000e+00
0.000000000000e+00
0.000000000000e+00
0.000000000000e+00
0.000000000000e+00
0.000000000000e+00
0.000000000000e+00
0.000000000000e+00
0.000000000000e+00
0.000000000000e+00
0.000000000000e+00
0.000000000000e+00
0.000000000000e+00
0.000000000000e+00
0.000000000000e+00
0.000000000000e+00
0.000000000000e+00
0.000000000000e+00
0.000000000000e+00
0.000000000000e+00
0.000000000000e+00
0.000000000000e+00
0.000000000000e+00
0.000000000000e+00
0.000000000000e+00
0.000000000000e+00
0.000000000000e+00
0.000000000000e+00
0.000000000000e+00
0.000000000000e+00
0.000000000000e+00
0.000000000000e+00
0.000000000000e+00
0.000000000000e+00
0.000000000000e+00
0.000000000000e+00
0.000000000000e+00
0.000000000000e+00
0.000000000000e+00
0.000000000000e+00
0.000000000000e+00
0.000000000000e+00
1.035637073808e-02
1.035638274879e-02
1.035638851725e-02
1.035638263545e-02
1.035637051141e-02
1.035638278484e-02
1.035639375089e-02
1.035639891546e-02
1.035639363755e-02
1.035638255818e-02
1.035638858936e-02
1.035639895152e-02
1.035640396697e-02
1.035639883818e-02
1.035638836269e-02
1.035638274362e-02
1.035639370967e-02
1.035639887424e-02
1.035639359633e-02
1.035638251696e-02
1.035637065564e-02
1.035638266635e-02
1.035638843481e-02
1.035638255301e-02
1.035637042897e-02
1.035637507396e-02
1.035638801911e-02
1.035639468364e-02
1.035638790578e-02
1.035637484729e-02
1.035638805517e-02
1.035640028431e-02
1.035640656174e-02
1.035640017098e-02
1.035638782850e-02
1.035639475575e-02
1.035640659779e-02
1.035641286894e-02
1.035640648446e-02
1.035639452909e-02
1.035638801395e-02
1.035640024309e-02
1.035640652052e-02
1.035640012976e-02
1.035638778728e-02
1.035637499152e-02
1.035638793667e-02
1.035639460120e-02
1.035638782334e-02
1.035637476485e-02
1.035638055290e-02
1.035639429348e-02
1.035640135672e-02
1.035639418014e-02
1.035638032623e-02
1.035639432953e-02
1.035640757127e-02
1.035641435759e-02
1.035640745794e-02
1.035639410287e-02
1.035640142883e-02
1.035641439364e-02
1.035642124663e-02
1.035641428031e-02
1.035640120217e-02
1.035639428831e-02
1.035640753005e-02
1.035641431637e-02
1.035640741672e-02
1.035639406165e-02
1.035638047046e-02
1.035639421104e-02
1.035640127428e-02
1.035639409770e-02
1.035638024379e-02
1.035638447131e-02
1.035639901848e-02
1.035640624916e-02
1.035639890514e-02
1.035638424465e-02
1.035639905453e-02
1.035641316996e-02
1.035642016535e-02
1.035641305662e-02
1.035639882787e-02
1.035640632127e-02
1.035642020141e-02
1.035642729738e-02
1.035642008807e-02
1.035640609461e-02
1.035639901331e-02
1.035641312874e-02
1.035642012413e-02
1.035641301540e-02
1.035639878665e-02
1.035638438887e-02
1.035639893604e-02
1.035640616672e-02
1.035639882271e-02
1.035638416221e-02
1.035638598783e-02
1.035640080552e-02
1.035640800367e-02
1.035640069219e-02
1.035638576116e-02
1.035640084158e-02
1.035641520521e-02
1.035642215869e-02
1.035641509187e-02
1.035640061491e-02
1.035640807578e-02
1.035642219474e-02
1.035642923830e-02
1.035642208141e-02
1.035640784912e-02
1.035640080036e-02
1.035641516399e-02
1.035642211747e-02
1.035641505065e-02
1.035640057369e-02
1.035638590539e-02
1.035640072308e-02
1.035640792123e-02
1.035640060975e-02
1.035638567872e-02
CELL_DATA 128
SCALARS displacement_magnitude float 1
LOOKUP_TABLE default
0.000000000000e+00
0.000000000000e+00
0.000000000000e+00
0.000000000000e+00
0.000000000000e+00
0.000000000000e+00
0.000000000000e+00
0.000000000000e+00
0.000000000000e+00
0.000000000000e+00
0.000000000000e+00
0.000000000000e+00
0.000000000000e+00
0.000000000000e+00
0.000000000000e+00
0.000000000000e+00
0.000000000000e+00
0.000000000000e+00
0.000000000000e+00
0.000000000000e+00
0.000000000000e+00
0.000000000000e+00
0.000000000000e+00
0.000000000000e+00
0.000000000000e+00
0.000000000000e+00
0.000000000000e+00
0.000000000000e+00
0.000000000000e+00
0.000000000000e+00
0.000000000000e+00
0.000000000000e+00
0.000000000000e+00
0.000000000000e+00
0.000000000000e+00
0.000000000000e+00
0.000000000000e+00
0.000000000000e+00
0.000000000000e+00
0.000000000000e+00
0.000000000000e+00
0.000000000000e+00
0.000000000000e+00
0.000000000000e+00
0.000000000000e+00
0.000000000000e+00
0.000000000000e+00
0.000000000000e+00
0.000000000000e+00
0.000000000000e+00
0.000000000000e+00
0.000000000000e+00
0.000000000000e+00
0.000000000000e+00
0.000000000000e+00
0.000000000000e+00
0.000000000000e+00
0.000000000000e+00
0.000000000000e+00
0.000000000000e+00
0.000000000000e+00
0.000000000000e+00
0.000000000000e+00
0.000000000000e+00
1.035638518189e-02
1.035639418515e-02
1.035639412848e-02
1.035638501189e-02
1.035639422120e-02
1.035640273720e-02
1.035640268054e-02
1.035639405120e-02
1.035639420059e-02
1.035640271659e-02
1.035640265993e-02
1.035639403059e-02
1.035638512006e-02
1.035639412332e-02
1.035639406665e-02
1.035638495006e-02
1.035639102247e-02
1.035640089098e-02
1.035640083431e-02
1.035639085247e-02
1.035640092704e-02
1.035641048524e-02
1.035641042857e-02
1.035640075704e-02
1.035640090643e-02
1.035641046463e-02
1.035641040796e-02
1.035640073643e-02
1.035639096064e-02
1.035640082915e-02
1.035640077249e-02
1.035639079064e-02
1.035639655768e-02
1.035640702275e-02
1.035640696608e-02
1.035639638768e-02
1.035640705881e-02
1.035641730040e-02
1.035641724374e-02
1.035640688881e-02
1.035640703820e-02
1.035641727979e-02
1.035641722313e-02
1.035640686820e-02
1.035639649585e-02
1.035640696092e-02
1.035640690425e-02
1.035639632585e-02
1.035639981930e-02
1.035641059700e-02
1.035641054034e-02
1.035639964930e-02
1.035641063306e-02
1.035642120388e-02
1.035642114721e-02
1.035641046306e-02
1.035641061245e-02
1.035642118327e-02
1.035642112660e-02
1.035641044245e-02
1.035639975747e-02
1.035641053517e-02
1.035641047851e-02
1.035639958747e-02
SCALARS engineering_strain_norm float 1
LOOKUP_TABLE default
0.000000000000e+00
0.000000000000e+00
0.000000000000e+00
0.000000000000e+00
0.000000000000e+00
0.000000000000e+00
0.000000000000e+00
0.000000000000e+00
0.000000000000e+00
0.000000000000e+00
0.000000000000e+00
0.000000000000e+00
0.000000000000e+00
0.000000000000e+00
0.000000000000e+00
0.000000000000e+00
0.000000000000e+00
0.000000000000e+00
0.000000000000e+00
0.000000000000e+00
0.000000000000e+00
0.000000000000e+00
0.000000000000e+00
0.000000000000e+00
0.000000000000e+00
0.000000000000e+00
0.000000000000e+00
0.000000000000e+00
0.000000000000e+00
0.000000000000e+00
0.000000000000e+00
0.000000000000e+00
0.000000000000e+00
0.000000000000e+00
0.000000000000e+00
0.000000000000e+00
0.000000000000e+00
0.000000000000e+00
0.000000000000e+00
0.000000000000e+00
0.000000000000e+00
0.000000000000e+00
0.000000000000e+00
0.000000000000e+00
0.000000000000e+00
0.000000000000e+00
0.000000000000e+00
0.000000000000e+00
0.000000000000e+00
0.000000000000e+00
0.000000000000e+00
0.000000000000e+00
0.000000000000e+00
0.000000000000e+00
0.000000000000e+00
0.000000000000e+00
0.000000000000e+00
0.000000000000e+00
0.000000000000e+00
0.000000000000e+00
0.000000000000e+00
0.000000000000e+00
0.000000000000e+00
0.000000000000e+00
1.168616422907e-07
1.630052992420e-07
1.630053010348e-07
1.168616484276e-07
1.630052965227e-07
2.029934370599e-07
2.029934401220e-07
1.630053067542e-07
1.630052972083e-07
2.029934381519e-07
2.029934412320e-07
1.630053074125e-07
1.168616445274e-07
1.630053029651e-07
1.630053046888e-07
1.168616506400e-07
1.262222323068e-07
1.493075905214e-07
1.493075947864e-07
1.262222414016e-07
1.493075883711e-07
1.720030756517e-07
1.720030799753e-07
1.493075995149e-07
1.493075899180e-07
1.720030772280e-07
1.720030815861e-07
1.493076010740e-07
1.262222356307e-07
1.493075946321e-07
1.493075987970e-07
1.262222446443e-07
9.384889702725e-08
1.071816652737e-07
1.071816702451e-07
9.384890488005e-08
1.071816639143e-07
1.202405738275e-07
1.202405783991e-07
1.071816732009e-07
1.071816657322e-07
1.202405755118e-07
1.202405800625e-07
1.071816750031e-07
9.384889990653e-08
1.071816686476e-07
1.071816735856e-07
9.384890768048e-08
4.007179672059e-08
4.173763245525e-08
4.173763642635e-08
4.007180091392e-08
4.173763218367e-08
4.253640278244e-08
4.253640628790e-08
4.173763706698e-08
4.173763357659e-08
4.253640405352e-08
4.253640744238e-08
4.173763842832e-08
4.007179825623e-08
4.173763429341e-08
4.173763818443e-08
4.007180242866e-08
SCALARS von_mises float 1
LOOKUP_TABLE default
0.000000000000e+00
0.000000000000e+00
0.000000000000e+00
0.000000000000e+00
0.000000000000e+00
0.000000000000e+00
0.000000000000e+00
0.000000000000e+00
0.000000000000e+00
0.000000000000e+00
0.000000000000e+00
0.000000000000e+00
0.000000000000e+00
0.000000000000e+00
0.000000000000e+00
0.000000000000e+00
0.000000000000e+00
0.000000000000e+00
0.000000000000e+00
0.000000000000e+00
0.000000000000e+00
0.000000000000e+00
0.000000000000e+00
0.000000000000e+00
0.000000000000e+00
0.000000000000e+00
0.000000000000e+00
0.000000000000e+00
0.000000000000e+00
0.000000000000e+00
0.000000000000e+00
0.000000000000e+00
0.000000000000e+00
0.000000000000e+00
0.000000000000e+00
0.000000000000e+00
0.000000000000e+00
0.000000000000e+00
0.000000000000e+00
0.000000000000e+00
0.000000000000e+00
0.000000000000e+00
0.000000000000e+00
0.000000000000e+00
0.000000000000e+00
0.000000000000e+00
0.000000000000e+00
0.000000000000e+00
0.000000000000e+00
0.000000000000e+00
0.000000000000e+00
0.000000000000e+00
0.000000000000e+00
0.000000000000e+00
0.000000000000e+00
0.000000000000e+00
0.000000000000e+00
0.000000000000e+00
0.000000000000e+00
0.000000000000e+00
0.000000000000e+00
0.000000000000e+00
0.000000000000e+00
0.000000000000e+00
1.070930443495e-02
1.482302002651e-02
1.482302018013e-02
1.070930501912e-02
1.482301976661e-02
1.805136368007e-02
1.805136395775e-02
1.482302072817e-02
1.482301982600e-02
1.805136377885e-02
1.805136405945e-02
1.482302078616e-02
1.070930464780e-02
1.482302037687e-02
1.482302052580e-02
1.070930523181e-02
1.142423840346e-02
1.374067249008e-02
1.374067281757e-02
1.142423922380e-02
1.374067226756e-02
1.584585194199e-02
1.584585230697e-02
1.374067330689e-02
1.374067238716e-02
1.584585207508e-02
1.584585244550e-02
1.374067342916e-02
1.142423870320e-02
1.374067287330e-02
1.374067319392e-02
1.142423951944e-02
8.406422632789e-03
9.781916719782e-03
9.781917065761e-03
8.406423318190e-03
9.781916560817e-03
1.108148453397e-02
1.108148488578e-02
9.781917410255e-03
9.781916689332e-03
1.108148466406e-02
1.108148501669e-02
9.781917538788e-03
8.406422883807e-03
9.781917027929e-03
9.781917373300e-03
8.406423564880e-03
3.446396769588e-03
3.608227952611e-03
3.608228229546e-03
3.446397149011e-03
3.608227894641e-03
3.715490676369e-03
3.715490943629e-03
3.608228363411e-03
3.608227991997e-03
3.715490773724e-03
3.715491031641e-03
3.608228459013e-03
3.446396907758e-03
3.608228129413e-03
3.608228400133e-03
3.446397287085e-03
SCALARS sdf_gap float 1
LOOKUP_TABLE default
0.000000000000e+00
0.000000000000e+00
0.000000000000e+00
0.000000000000e+00
0.000000000000e+00
0.000000000000e+00
0.000000000000e+00
0.000000000000e+00
0.000000000000e+00
0.000000000000e+00
0.000000000000e+00
0.000000000000e+00
0.000000000000e+00
0.000000000000e+00
0.000000000000e+00
0.000000000000e+00
0.000000000000e+00
0.000000000000e+00
0.000000000000e+00
0.000000000000e+00
0.000000000000e+00
0.000000000000e+00
0.000000000000e+00
0.000000000000e+00
0.000000000000e+00
0.000000000000e+00
0.000000000000e+00
0.000000000000e+00
0.000000000000e+00
0.000000000000e+00
0.000000000000e+00
0.000000000000e+00
0.000000000000e+00
0.000000000000e+00
0.000000000000e+00
0.000000000000e+00
0.000000000000e+00
0.000000000000e+00
0.000000000000e+00
0.000000000000e+00
0.000000000000e+00
0.000000000000e+00
0.000000000000e+00
0.000000000000e+00
0.000000000000e+00
0.000000000000e+00
0.000000000000e+00
0.000000000000e+00
0.000000000000e+00
0.000000000000e+00
0.000000000000e+00
0.000000000000e+00
0.000000000000e+00
0.000000000000e+00
0.000000000000e+00
0.000000000000e+00
0.000000000000e+00
0.000000000000e+00
0.000000000000e+00
0.000000000000e+00
0.000000000000e+00
0.000000000000e+00
0.000000000000e+00
0.000000000000e+00
4.643617494394e-03
4.643609016931e-03
4.643609073598e-03
4.643617664396e-03
4.643608980874e-03
4.643601103805e-03
4.643601160472e-03
4.643609150875e-03
4.643609001483e-03
4.643601124415e-03
4.643601181082e-03
4.643609171485e-03
4.643617556223e-03
4.643609078760e-03
4.643609135427e-03
4.643617726225e-03
0.000000000000e+00
0.000000000000e+00
0.000000000000e+00
0.000000000000e+00
0.000000000000e+00
0.000000000000e+00
0.000000000000e+00
0.000000000000e+00
0.000000000000e+00
0.000000000000e+00
0.000000000000e+00
0.000000000000e+00
0.000000000000e+00
0.000000000000e+00
0.000000000000e+00
0.000000000000e+00
0.000000000000e+00
0.000000000000e+00
0.000000000000e+00
0.000000000000e+00
0.000000000000e+00
0.000000000000e+00
0.000000000000e+00
0.000000000000e+00
0.000000000000e+00
0.000000000000e+00
0.000000000000e+00
0.000000000000e+00
0.000000000000e+00
0.000000000000e+00
0.000000000000e+00
0.000000000000e+00
0.000000000000e+00
0.000000000000e+00
0.000000000000e+00
0.000000000000e+00
0.000000000000e+00
0.000000000000e+00
0.000000000000e+00
0.000000000000e+00
0.000000000000e+00
0.000000000000e+00
0.000000000000e+00
0.000000000000e+00
0.000000000000e+00
0.000000000000e+00
0.000000000000e+00
0.000000000000e+00
SCALARS contact_pressure float 1
LOOKUP_TABLE default
0.000000000000e+00
0.000000000000e+00
0.000000000000e+00
0.000000000000e+00
0.000000000000e+00
0.000000000000e+00
0.000000000000e+00
0.000000000000e+00
0.000000000000e+00
0.000000000000e+00
0.000000000000e+00
0.000000000000e+00
0.000000000000e+00
0.000000000000e+00
0.000000000000e+00
0.000000000000e+00
0.000000000000e+00
0.000000000000e+00
0.000000000000e+00
0.000000000000e+00
0.000000000000e+00
0.000000000000e+00
0.000000000000e+00
0.000000000000e+00
0.000000000000e+00
0.000000000000e+00
0.000000000000e+00
0.000000000000e+00
0.000000000000e+00
0.000000000000e+00
0.000000000000e+00
0.000000000000e+00
0.000000000000e+00
0.000000000000e+00
0.000000000000e+00
0.000000000000e+00
0.000000000000e+00
0.000000000000e+00
0.000000000000e+00
0.000000000000e+00
0.000000000000e+00
0.000000000000e+00
0.000000000000e+00
0.000000000000e+00
0.000000000000e+00
0.000000000000e+00
0.000000000000e+00
0.000000000000e+00
0.000000000000e+00
0.000000000000e+00
0.000000000000e+00
0.000000000000e+00
0.000000000000e+00
0.000000000000e+00
0.000000000000e+00
0.000000000000e+00
0.000000000000e+00
0.000000000000e+00
0.000000000000e+00
0.000000000000e+00
0.000000000000e+00
0.000000000000e+00
0.000000000000e+00
0.000000000000e+00
0.000000000000e+00
0.000000000000e+00
0.000000000000e+00
0.000000000000e+00
0.000000000000e+00
0.000000000000e+00
0.000000000000e+00
0.000000000000e+00
0.000000000000e+00
0.000000000000e+00
0.000000000000e+00
0.000000000000e+00
0.000000000000e+00
0.000000000000e+00
0.000000000000e+00
0.000000000000e+00
0.000000000000e+00
0.000000000000e+00
0.000000000000e+00
0.000000000000e+00
0.000000000000e+00
0.000000000000e+00
0.000000000000e+00
0.000000000000e+00
0.000000000000e+00
0.000000000000e+00
0.000000000000e+00
0.000000000000e+00
0.000000000000e+00
0.000000000000e+00
0.000000000000e+00
0.000000000000e+00
0.000000000000e+00
0.000000000000e+00
0.000000000000e+00
0.000000000000e+00
0.000000000000e+00
0.000000000000e+00
0.000000000000e+00
0.000000000000e+00
0.000000000000e+00
0.000000000000e+00
0.000000000000e+00
0.000000000000e+00
0.000000000000e+00
0.000000000000e+00
0.000000000000e+00
0.000000000000e+00
0.000000000000e+00
0.000000000000e+00
0.000000000000e+00
0.000000000000e+00
0.000000000000e+00
0.000000000000e+00
0.000000000000e+00
0.000000000000e+00
0.000000000000e+00
0.000000000000e+00
0.000000000000e+00
0.000000000000e+00
0.000000000000e+00
0.000000000000e+00
0.000000000000e+00
0.000000000000e+00
SCALARS active_contact float 1
LOOKUP_TABLE default
0.000000000000e+00
0.000000000000e+00
0.000000000000e+00
0.000000000000e+00
0.000000000000e+00
0.000000000000e+00
0.000000000000e+00
0.000000000000e+00
0.000000000000e+00
0.000000000000e+00
0.000000000000e+00
0.000000000000e+00
0.000000000000e+00
0.000000000000e+00
0.000000000000e+00
0.000000000000e+00
0.000000000000e+00
0.000000000000e+00
0.000000000000e+00
0.000000000000e+00
0.000000000000e+00
0.000000000000e+00
0.000000000000e+00
0.000000000000e+00
0.000000000000e+00
0.000000000000e+00
0.000000000000e+00
0.000000000000e+00
0.000000000000e+00
0.000000000000e+00
0.000000000000e+00
0.000000000000e+00
0.000000000000e+00
0.000000000000e+00
0.000000000000e+00
0.000000000000e+00
0.000000000000e+00
0.000000000000e+00
0.000000000000e+00
0.000000000000e+00
0.000000000000e+00
0.000000000000e+00
0.000000000000e+00
0.000000000000e+00
0.000000000000e+00
0.000000000000e+00
0.000000000000e+00
0.000000000000e+00
0.000000000000e+00
0.000000000000e+00
0.000000000000e+00
0.000000000000e+00
0.000000000000e+00
0.000000000000e+00
0.000000000000e+00
0.000000000000e+00
0.000000000000e+00
0.000000000000e+00
0.000000000000e+00
0.000000000000e+00
0.000000000000e+00
0.000000000000e+00
0.000000000000e+00
0.000000000000e+00
0.000000000000e+00
0.000000000000e+00
0.000000000000e+00
0.000000000000e+00
0.000000000000e+00
0.000000000000e+00
0.000000000000e+00
0.000000000000e+00
0.000000000000e+00
0.000000000000e+00
0.000000000000e+00
0.000000000000e+00
0.000000000000e+00
0.000000000000e+00
0.000000000000e+00
0.000000000000e+00
0.000000000000e+00
0.000000000000e+00
0.000000000000e+00
0.000000000000e+00
0.000000000000e+00
0.000000000000e+00
0.000000000000e+00
0.000000000000e+00
0.000000000000e+00
0.000000000000e+00
0.000000000000e+00
0.000000000000e+00
0.000000000000e+00
0.000000000000e+00
0.000000000000e+00
0.000000000000e+00
0.000000000000e+00
0.000000000000e+00
0.000000000000e+00
0.000000000000e+00
0.000000000000e+00
0.000000000000e+00
0.000000000000e+00
0.000000000000e+00
0.000000000000e+00
0.000000000000e+00
0.000000000000e+00
0.000000000000e+00
0.000000000000e+00
0.000000000000e+00
0.000000000000e+00
0.000000000000e+00
0.000000000000e+00
0.000000000000e+00
0.000000000000e+00
0.000000000000e+00
0.000000000000e+00
0.000000000000e+00
0.000000000000e+00
0.000000000000e+00
0.000000000000e+00
0.000000000000e+00
0.000000000000e+00
0.000000000000e+00
0.000000000000e+00
0.000000000000e+00
0.000000000000e+00
0.000000000000e+00
