# vtk DataFile Version 3.0
SFC long-time C3D8 dynamic frame 97 t=1.940000000000e+00
ASCII
DATASET UNSTRUCTURED_GRID
POINTS 250 float
-2.500000000000e-01 -2.500000000000e-01 0.000000000000e+00
-1.250000000000e-01 -2.500000000000e-01 0.000000000000e+00
0.000000000000e+00 -2.500000000000e-01 0.000000000000e+00
1.250000000000e-01 -2.500000000000e-01 0.000000000000e+00
2.500000000000e-01 -2.500000000000e-01 0.000000000000e+00
-2.500000000000e-01 -1.250000000000e-01 0.000000000000e+00
-1.250000000000e-01 -1.250000000000e-01 0.000000000000e+00
0.000000000000e+00 -1.250000000000e-01 0.000000000000e+00
1.250000000000e-01 -1.250000000000e-01 0.000000000000e+00
2.500000000000e-01 -1.250000000000e-01 0.000000000000e+00
-2.500000000000e-01 0.000000000000e+00 0.000000000000e+00
-1.250000000000e-01 0.000000000000e+00 0.000000000000e+00
0.000000000000e+00 0.000000000000e+00 0.000000000000e+00
1.250000000000e-01 0.000000000000e+00 0.000000000000e+00
2.500000000000e-01 0.000000000000e+00 0.000000000000e+00
-2.500000000000e-01 1.250000000000e-01 0.000000000000e+00
-1.250000000000e-01 1.250000000000e-01 0.000000000000e+00
0.000000000000e+00 1.250000000000e-01 0.000000000000e+00
1.250000000000e-01 1.250000000000e-01 0.000000000000e+00
2.500000000000e-01 1.250000000000e-01 0.000000000000e+00
-2.500000000000e-01 2.500000000000e-01 0.000000000000e+00
-1.250000000000e-01 2.500000000000e-01 0.000000000000e+00
0.000000000000e+00 2.500000000000e-01 0.000000000000e+00
1.250000000000e-01 2.500000000000e-01 0.000000000000e+00
2.500000000000e-01 2.500000000000e-01 0.000000000000e+00
-2.500000000000e-01 -2.500000000000e-01 6.000000000000e-02
-1.250000000000e-01 -2.500000000000e-01 6.000000000000e-02
0.000000000000e+00 -2.500000000000e-01 6.000000000000e-02
1.250000000000e-01 -2.500000000000e-01 6.000000000000e-02
2.500000000000e-01 -2.500000000000e-01 6.000000000000e-02
-2.500000000000e-01 -1.250000000000e-01 6.000000000000e-02
-1.250000000000e-01 -1.250000000000e-01 6.000000000000e-02
0.000000000000e+00 -1.250000000000e-01 6.000000000000e-02
1.250000000000e-01 -1.250000000000e-01 6.000000000000e-02
2.500000000000e-01 -1.250000000000e-01 6.000000000000e-02
-2.500000000000e-01 0.000000000000e+00 6.000000000000e-02
-1.250000000000e-01 0.000000000000e+00 6.000000000000e-02
0.000000000000e+00 0.000000000000e+00 6.000000000000e-02
1.250000000000e-01 0.000000000000e+00 6.000000000000e-02
2.500000000000e-01 0.000000000000e+00 6.000000000000e-02
-2.500000000000e-01 1.250000000000e-01 6.000000000000e-02
-1.250000000000e-01 1.250000000000e-01 6.000000000000e-02
0.000000000000e+00 1.250000000000e-01 6.000000000000e-02
1.250000000000e-01 1.250000000000e-01 6.000000000000e-02
2.500000000000e-01 1.250000000000e-01 6.000000000000e-02
-2.500000000000e-01 2.500000000000e-01 6.000000000000e-02
-1.250000000000e-01 2.500000000000e-01 6.000000000000e-02
0.000000000000e+00 2.500000000000e-01 6.000000000000e-02
1.250000000000e-01 2.500000000000e-01 6.000000000000e-02
2.500000000000e-01 2.500000000000e-01 6.000000000000e-02
-2.500000000000e-01 -2.500000000000e-01 1.200000000000e-01
-1.250000000000e-01 -2.500000000000e-01 1.200000000000e-01
0.000000000000e+00 -2.500000000000e-01 1.200000000000e-01
1.250000000000e-01 -2.500000000000e-01 1.200000000000e-01
2.500000000000e-01 -2.500000000000e-01 1.200000000000e-01
-2.500000000000e-01 -1.250000000000e-01 1.200000000000e-01
-1.250000000000e-01 -1.250000000000e-01 1.200000000000e-01
0.000000000000e+00 -1.250000000000e-01 1.200000000000e-01
1.250000000000e-01 -1.250000000000e-01 1.200000000000e-01
2.500000000000e-01 -1.250000000000e-01 1.200000000000e-01
-2.500000000000e-01 0.000000000000e+00 1.200000000000e-01
-1.250000000000e-01 0.000000000000e+00 1.200000000000e-01
0.000000000000e+00 0.000000000000e+00 1.200000000000e-01
1.250000000000e-01 0.000000000000e+00 1.200000000000e-01
2.500000000000e-01 0.000000000000e+00 1.200000000000e-01
-2.500000000000e-01 1.250000000000e-01 1.200000000000e-01
-1.250000000000e-01 1.250000000000e-01 1.200000000000e-01
0.000000000000e+00 1.250000000000e-01 1.200000000000e-01
1.250000000000e-01 1.250000000000e-01 1.200000000000e-01
2.500000000000e-01 1.250000000000e-01 1.200000000000e-01
-2.500000000000e-01 2.500000000000e-01 1.200000000000e-01
-1.250000000000e-01 2.500000000000e-01 1.200000000000e-01
0.000000000000e+00 2.500000000000e-01 1.200000000000e-01
1.250000000000e-01 2.500000000000e-01 1.200000000000e-01
2.500000000000e-01 2.500000000000e-01 1.200000000000e-01
-2.500000000000e-01 -2.500000000000e-01 1.800000000000e-01
-1.250000000000e-01 -2.500000000000e-01 1.800000000000e-01
0.000000000000e+00 -2.500000000000e-01 1.800000000000e-01
1.250000000000e-01 -2.500000000000e-01 1.800000000000e-01
2.500000000000e-01 -2.500000000000e-01 1.800000000000e-01
-2.500000000000e-01 -1.250000000000e-01 1.800000000000e-01
-1.250000000000e-01 -1.250000000000e-01 1.800000000000e-01
0.000000000000e+00 -1.250000000000e-01 1.800000000000e-01
1.250000000000e-01 -1.250000000000e-01 1.800000000000e-01
2.500000000000e-01 -1.250000000000e-01 1.800000000000e-01
-2.500000000000e-01 0.000000000000e+00 1.800000000000e-01
-1.250000000000e-01 0.000000000000e+00 1.800000000000e-01
0.000000000000e+00 0.000000000000e+00 1.800000000000e-01
1.250000000000e-01 0.000000000000e+00 1.800000000000e-01
2.500000000000e-01 0.000000000000e+00 1.800000000000e-01
-2.500000000000e-01 1.250000000000e-01 1.800000000000e-01
-1.250000000000e-01 1.250000000000e-01 1.800000000000e-01
0.000000000000e+00 1.250000000000e-01 1.800000000000e-01
1.250000000000e-01 1.250000000000e-01 1.800000000000e-01
2.500000000000e-01 1.250000000000e-01 1.800000000000e-01
-2.500000000000e-01 2.500000000000e-01 1.800000000000e-01
-1.250000000000e-01 2.500000000000e-01 1.800000000000e-01
0.000000000000e+00 2.500000000000e-01 1.800000000000e-01
1.250000000000e-01 2.500000000000e-01 1.800000000000e-01
2.500000000000e-01 2.500000000000e-01 1.800000000000e-01
-2.500000000000e-01 -2.500000000000e-01 2.400000000000e-01
-1.250000000000e-01 -2.500000000000e-01 2.400000000000e-01
0.000000000000e+00 -2.500000000000e-01 2.400000000000e-01
1.250000000000e-01 -2.500000000000e-01 2.400000000000e-01
2.500000000000e-01 -2.500000000000e-01 2.400000000000e-01
-2.500000000000e-01 -1.250000000000e-01 2.400000000000e-01
-1.250000000000e-01 -1.250000000000e-01 2.400000000000e-01
0.000000000000e+00 -1.250000000000e-01 2.400000000000e-01
1.250000000000e-01 -1.250000000000e-01 2.400000000000e-01
2.500000000000e-01 -1.250000000000e-01 2.400000000000e-01
-2.500000000000e-01 0.000000000000e+00 2.400000000000e-01
-1.250000000000e-01 0.000000000000e+00 2.400000000000e-01
0.000000000000e+00 0.000000000000e+00 2.400000000000e-01
1.250000000000e-01 0.000000000000e+00 2.400000000000e-01
2.500000000000e-01 0.000000000000e+00 2.400000000000e-01
-2.500000000000e-01 1.250000000000e-01 2.400000000000e-01
-1.250000000000e-01 1.250000000000e-01 2.400000000000e-01
0.000000000000e+00 1.250000000000e-01 2.400000000000e-01
1.250000000000e-01 1.250000000000e-01 2.400000000000e-01
2.500000000000e-01 1.250000000000e-01 2.400000000000e-01
-2.500000000000e-01 2.500000000000e-01 2.400000000000e-01
-1.250000000000e-01 2.500000000000e-01 2.400000000000e-01
0.000000000000e+00 2.500000000000e-01 2.400000000000e-01
1.250000000000e-01 2.500000000000e-01 2.400000000000e-01
2.500000000000e-01 2.500000000000e-01 2.400000000000e-01
-2.500016935976e-01 -2.500016935977e-01 2.399497466131e-01
-1.250008530663e-01 -2.500017148209e-01 2.399491318737e-01
2.506246778318e-14 -2.500017430828e-01 2.399489124167e-01
1.250008530663e-01 -2.500017148209e-01 2.399491318737e-01
2.500016935976e-01 -2.500016935977e-01 2.399497466131e-01
-2.500017148209e-01 -1.250008530664e-01 2.399491318737e-01
-1.250008576746e-01 -1.250008576747e-01 2.399485058802e-01
2.420840907699e-14 -1.250008759784e-01 2.399482808898e-01
1.250008576747e-01 -1.250008576747e-01 2.399485058802e-01
2.500017148209e-01 -1.250008530663e-01 2.399491318737e-01
-2.500017430827e-01 -3.229523476582e-14 2.399489124167e-01
-1.250008759784e-01 -3.144521165488e-14 2.399482808898e-01
2.335454286185e-14 -3.059622351099e-14 2.399480539459e-01
1.250008759784e-01 -2.974173013747e-14 2.399482808898e-01
2.500017430828e-01 -2.888675747581e-14 2.399489124167e-01
-2.500017148209e-01 1.250008530663e-01 2.399491318737e-01
-1.250008576746e-01 1.250008576746e-01 2.399485058802e-01
2.249964658751e-14 1.250008759784e-01 2.399482808898e-01
1.250008576747e-01 1.250008576746e-01 2.399485058802e-01
2.500017148209e-01 1.250008530663e-01 2.399491318737e-01
-2.500016935976e-01 2.500016935976e-01 2.399497466131e-01
-1.250008530663e-01 2.500017148208e-01 2.399491318737e-01
2.164001883507e-14 2.500017430827e-01 2.399489124167e-01
1.250008530663e-01 2.500017148208e-01 2.399491318737e-01
2.500016935976e-01 2.500016935976e-01 2.399497466131e-01
-2.500013042111e-01 -2.500013042111e-01 3.049483531504e-01
-1.250006222512e-01 -2.500013250279e-01 3.049477228624e-01
2.506075903022e-14 -2.500013544515e-01 3.049475070071e-01
1.250006222513e-01 -2.500013250279e-01 3.049477228624e-01
2.500013042111e-01 -2.500013042111e-01 3.049483531504e-01
-2.500013250279e-01 -1.250006222513e-01 3.049477228624e-01
-1.250006235752e-01 -1.250006235752e-01 3.049470847816e-01
2.420653007903e-14 -1.250006396499e-01 3.049468653298e-01
1.250006235752e-01 -1.250006235752e-01 3.049470847816e-01
2.500013250279e-01 -1.250006222513e-01 3.049477228624e-01
-2.500013544515e-01 -3.231604430207e-14 3.049475070071e-01
-1.250006396499e-01 -3.146158929280e-14 3.049468653298e-01
2.335116060570e-14 -3.060963624502e-14 3.049466436190e-01
1.250006396499e-01 -2.975608072603e-14 3.049468653298e-01
2.500013544515e-01 -2.890421559791e-14 3.049475070071e-01
-2.500013250279e-01 1.250006222512e-01 3.049477228624e-01
-1.250006235752e-01 1.250006235752e-01 3.049470847816e-01
2.249665063058e-14 1.250006396499e-01 3.049468653298e-01
1.250006235752e-01 1.250006235752e-01 3.049470847816e-01
2.500013250279e-01 1.250006222512e-01 3.049477228624e-01
-2.500013042111e-01 2.500013042111e-01 3.049483531504e-01
-1.250006222512e-01 2.500013250279e-01 3.049477228624e-01
2.164251812374e-14 2.500013544515e-01 3.049475070071e-01
1.250006222513e-01 2.500013250279e-01 3.049477228624e-01
2.500013042111e-01 2.500013042111e-01 3.049483531504e-01
-2.500008503849e-01 -2.500008503850e-01 3.699473128581e-01
-1.250003869069e-01 -2.500008655152e-01 3.699466844897e-01
2.505719749558e-14 -2.500008936603e-01 3.699464851837e-01
1.250003869069e-01 -2.500008655152e-01 3.699466844897e-01
2.500008503850e-01 -2.500008503850e-01 3.699473128581e-01
-2.500008655151e-01 -1.250003869069e-01 3.699466844897e-01
-1.250003874004e-01 -1.250003874004e-01 3.699460525486e-01
2.420275867195e-14 -1.250004015893e-01 3.699458530250e-01
1.250003874004e-01 -1.250003874004e-01 3.699460525486e-01
2.500008655152e-01 -1.250003869069e-01 3.699466844897e-01
-2.500008936603e-01 -3.233609887213e-14 3.699464851837e-01
-1.250004015892e-01 -3.147940189178e-14 3.699458530250e-01
2.334962184755e-14 -3.062559149557e-14 3.699456533505e-01
1.250004015893e-01 -2.977202946223e-14 3.699458530250e-01
2.500008936603e-01 -2.891789118896e-14 3.699464851837e-01
-2.500008655151e-01 1.250003869068e-01 3.699466844897e-01
-1.250003874004e-01 1.250003874004e-01 3.699460525486e-01
2.249302747679e-14 1.250004015892e-01 3.699458530250e-01
1.250003874004e-01 1.250003874004e-01 3.699460525486e-01
2.500008655152e-01 1.250003869068e-01 3.699466844897e-01
-2.500008503849e-01 2.500008503849e-01 3.699473128581e-01
-1.250003869069e-01 2.500008655151e-01 3.699466844897e-01
2.163927637794e-14 2.500008936603e-01 3.699464851837e-01
1.250003869069e-01 2.500008655151e-01 3.699466844897e-01
2.500008503850e-01 2.500008503849e-01 3.699473128581e-01
-2.500003894714e-01 -2.500003894715e-01 4.349466433236e-01
-1.250001615279e-01 -2.500004001797e-01 4.349460375798e-01
2.505692367620e-14 -2.500004279890e-01 4.349458486914e-01
1.250001615279e-01 -2.500004001797e-01 4.349460375798e-01
2.500003894715e-01 -2.500003894715e-01 4.349466433236e-01
-2.500004001796e-01 -1.250001615279e-01 4.349460375798e-01
-1.250001619850e-01 -1.250001619850e-01 4.349454342105e-01
2.420132897831e-14 -1.250001755419e-01 4.349452481192e-01
1.250001619850e-01 -1.250001619850e-01 4.349454342105e-01
2.500004001797e-01 -1.250001615279e-01 4.349460375798e-01
-2.500004279890e-01 -3.235231316446e-14 4.349458486914e-01
-1.250001755418e-01 -3.149702215254e-14 4.349452481192e-01
2.335153108887e-14 -3.064031491600e-14 4.349450634756e-01
1.250001755419e-01 -2.978576981647e-14 4.349452481192e-01
2.500004279890e-01 -2.893233985624e-14 4.349458486914e-01
-2.500004001796e-01 1.250001615279e-01 4.349460375798e-01
-1.250001619850e-01 1.250001619849e-01 4.349454342105e-01
2.249477086454e-14 1.250001755418e-01 4.349452481192e-01
1.250001619850e-01 1.250001619849e-01 4.349454342105e-01
2.500004001797e-01 1.250001615279e-01 4.349460375798e-01
-2.500003894714e-01 2.500003894714e-01 4.349466433236e-01
-1.250001615279e-01 2.500004001796e-01 4.349460375798e-01
2.164222340245e-14 2.500004279890e-01 4.349458486914e-01
1.250001615279e-01 2.500004001796e-01 4.349460375798e-01
2.500003894715e-01 2.500003894714e-01 4.349466433236e-01
-2.500000036821e-01 -2.500000036821e-01 4.999463908955e-01
-1.249999531258e-01 -2.500000188648e-01 4.999458069434e-01
2.505424944861e-14 -2.500000510462e-01 4.999456263589e-01
1.249999531258e-01 -2.500000188648e-01 4.999458069434e-01
2.500000036821e-01 -2.500000036821e-01 4.999463908955e-01
-2.500000188648e-01 -1.249999531259e-01 4.999458069434e-01
-1.249999548654e-01 -1.249999548654e-01 4.999452306583e-01
2.420527812179e-14 -1.249999698269e-01 4.999450553306e-01
1.249999548654e-01 -1.249999548654e-01 4.999452306583e-01
2.500000188648e-01 -1.249999531259e-01 4.999458069434e-01
-2.500000510462e-01 -3.236668677967e-14 4.999456263589e-01
-1.249999698268e-01 -3.151245062336e-14 4.999450553306e-01
2.335354115207e-14 -3.065437274277e-14 4.999448823284e-01
1.249999698269e-01 -2.979921239254e-14 4.999450553306e-01
2.500000510462e-01 -2.894211305086e-14 4.999456263589e-01
-2.500000188648e-01 1.249999531258e-01 4.999458069434e-01
-1.249999548654e-01 1.249999548654e-01 4.999452306583e-01
2.250196969598e-14 1.249999698268e-01 4.999450553306e-01
1.249999548654e-01 1.249999548654e-01 4.999452306583e-01
2.500000188648e-01 1.249999531258e-01 4.999458069434e-01
-2.500000036821e-01 2.500000036821e-01 4.999463908955e-01
-1.249999531258e-01 2.500000188648e-01 4.999458069434e-01
2.164859792120e-14 2.500000510462e-01 4.999456263589e-01
1.249999531258e-01 2.500000188648e-01 4.999458069434e-01
2.500000036821e-01 2.500000036821e-01 4.999463908955e-01
CELLS 128 1152
8 0 1 6 5 25 26 31 30
8 1 2 7 6 26 27 32 31
8 2 3 8 7 27 28 33 32
8 3 4 9 8 28 29 34 33
8 5 6 11 10 30 31 36 35
8 6 7 12 11 31 32 37 36
8 7 8 13 12 32 33 38 37
8 8 9 14 13 33 34 39 38
8 10 11 16 15 35 36 41 40
8 11 12 17 16 36 37 42 41
8 12 13 18 17 37 38 43 42
8 13 14 19 18 38 39 44 43
8 15 16 21 20 40 41 46 45
8 16 17 22 21 41 42 47 46
8 17 18 23 22 42 43 48 47
8 18 19 24 23 43 44 49 48
8 25 26 31 30 50 51 56 55
8 26 27 32 31 51 52 57 56
8 27 28 33 32 52 53 58 57
8 28 29 34 33 53 54 59 58
8 30 31 36 35 55 56 61 60
8 31 32 37 36 56 57 62 61
8 32 33 38 37 57 58 63 62
8 33 34 39 38 58 59 64 63
8 35 36 41 40 60 61 66 65
8 36 37 42 41 61 62 67 66
8 37 38 43 42 62 63 68 67
8 38 39 44 43 63 64 69 68
8 40 41 46 45 65 66 71 70
8 41 42 47 46 66 67 72 71
8 42 43 48 47 67 68 73 72
8 43 44 49 48 68 69 74 73
8 50 51 56 55 75 76 81 80
8 51 52 57 56 76 77 82 81
8 52 53 58 57 77 78 83 82
8 53 54 59 58 78 79 84 83
8 55 56 61 60 80 81 86 85
8 56 57 62 61 81 82 87 86
8 57 58 63 62 82 83 88 87
8 58 59 64 63 83 84 89 88
8 60 61 66 65 85 86 91 90
8 61 62 67 66 86 87 92 91
8 62 63 68 67 87 88 93 92
8 63 64 69 68 88 89 94 93
8 65 66 71 70 90 91 96 95
8 66 67 72 71 91 92 97 96
8 67 68 73 72 92 93 98 97
8 68 69 74 73 93 94 99 98
8 75 76 81 80 100 101 106 105
8 76 77 82 81 101 102 107 106
8 77 78 83 82 102 103 108 107
8 78 79 84 83 103 104 109 108
8 80 81 86 85 105 106 111 110
8 81 82 87 86 106 107 112 111
8 82 83 88 87 107 108 113 112
8 83 84 89 88 108 109 114 113
8 85 86 91 90 110 111 116 115
8 86 87 92 91 111 112 117 116
8 87 88 93 92 112 113 118 117
8 88 89 94 93 113 114 119 118
8 90 91 96 95 115 116 121 120
8 91 92 97 96 116 117 122 121
8 92 93 98 97 117 118 123 122
8 93 94 99 98 118 119 124 123
8 125 126 131 130 150 151 156 155
8 126 127 132 131 151 152 157 156
8 127 128 133 132 152 153 158 157
8 128 129 134 133 153 154 159 158
8 130 131 136 135 155 156 161 160
8 131 132 137 136 156 157 162 161
8 132 133 138 137 157 158 163 162
8 133 134 139 138 158 159 164 163
8 135 136 141 140 160 161 166 165
8 136 137 142 141 161 162 167 166
8 137 138 143 142 162 163 168 167
8 138 139 144 143 163 164 169 168
8 140 141 146 145 165 166 171 170
8 141 142 147 146 166 167 172 171
8 142 143 148 147 167 168 173 172
8 143 144 149 148 168 169 174 173
8 150 151 156 155 175 176 181 180
8 151 152 157 156 176 177 182 181
8 152 153 158 157 177 178 183 182
8 153 154 159 158 178 179 184 183
8 155 156 161 160 180 181 186 185
8 156 157 162 161 181 182 187 186
8 157 158 163 162 182 183 188 187
8 158 159 164 163 183 184 189 188
8 160 161 166 165 185 186 191 190
8 161 162 167 166 186 187 192 191
8 162 163 168 167 187 188 193 192
8 163 164 169 168 188 189 194 193
8 165 166 171 170 190 191 196 195
8 166 167 172 171 191 192 197 196
8 167 168 173 172 192 193 198 197
8 168 169 174 173 193 194 199 198
8 175 176 181 180 200 201 206 205
8 176 177 182 181 201 202 207 206
8 177 178 183 182 202 203 208 207
8 178 179 184 183 203 204 209 208
8 180 181 186 185 205 206 211 210
8 181 182 187 186 206 207 212 211
8 182 183 188 187 207 208 213 212
8 183 184 189 188 208 209 214 213
8 185 186 191 190 210 211 216 215
8 186 187 192 191 211 212 217 216
8 187 188 193 192 212 213 218 217
8 188 189 194 193 213 214 219 218
8 190 191 196 195 215 216 221 220
8 191 192 197 196 216 217 222 221
8 192 193 198 197 217 218 223 222
8 193 194 199 198 218 219 224 223
8 200 201 206 205 225 226 231 230
8 201 202 207 206 226 227 232 231
8 202 203 208 207 227 228 233 232
8 203 204 209 208 228 229 234 233
8 205 206 211 210 230 231 236 235
8 206 207 212 211 231 232 237 236
8 207 208 213 212 232 233 238 237
8 208 209 214 213 233 234 239 238
8 210 211 216 215 235 236 241 240
8 211 212 217 216 236 237 242 241
8 212 213 218 217 237 238 243 242
8 213 214 219 218 238 239 244 243
8 215 216 221 220 240 241 246 245
8 216 217 222 221 241 242 247 246
8 217 218 223 222 242 243 248 247
8 218 219 224 223 243 244 249 248
CELL_TYPES 128
12
12
12
12
12
12
12
12
12
12
12
12
12
12
12
12
12
12
12
12
12
12
12
12
12
12
12
12
12
12
12
12
12
12
12
12
12
12
12
12
12
12
12
12
12
12
12
12
12
12
12
12
12
12
12
12
12
12
12
12
12
12
12
12
12
12
12
12
12
12
12
12
12
12
12
12
12
12
12
12
12
12
12
12
12
12
12
12
12
12
12
12
12
12
12
12
12
12
12
12
12
12
12
12
12
12
12
12
12
12
12
12
12
12
12
12
12
12
12
12
12
12
12
12
12
12
12
12
POINT_DATA 250
VECTORS displacement float
0.000000000000e+00 0.000000000000e+00 0.000000000000e+00
0.000000000000e+00 0.000000000000e+00 0.000000000000e+00
0.000000000000e+00 0.000000000000e+00 0.000000000000e+00
0.000000000000e+00 0.000000000000e+00 0.000000000000e+00
0.000000000000e+00 0.000000000000e+00 0.000000000000e+00
0.000000000000e+00 0.000000000000e+00 0.000000000000e+00
0.000000000000e+00 0.000000000000e+00 0.000000000000e+00
0.000000000000e+00 0.000000000000e+00 0.000000000000e+00
0.000000000000e+00 0.000000000000e+00 0.000000000000e+00
0.000000000000e+00 0.000000000000e+00 0.000000000000e+00
0.000000000000e+00 0.000000000000e+00 0.000000000000e+00
0.000000000000e+00 0.000000000000e+00 0.000000000000e+00
0.000000000000e+00 0.000000000000e+00 0.000000000000e+00
0.000000000000e+00 0.000000000000e+00 0.000000000000e+00
0.000000000000e+00 0.000000000000e+00 0.000000000000e+00
0.000000000000e+00 0.000000000000e+00 0.000000000000e+00
0.000000000000e+00 0.000000000000e+00 0.000000000000e+00
0.000000000000e+00 0.000000000000e+00 0.000000000000e+00
0.000000000000e+00 0.000000000000e+00 0.000000000000e+00
0.000000000000e+00 0.000000000000e+00 0.000000000000e+00
0.000000000000e+00 0.000000000000e+00 0.000000000000e+00
0.000000000000e+00 0.000000000000e+00 0.000000000000e+00
0.000000000000e+00 0.000000000000e+00 0.000000000000e+00
0.000000000000e+00 0.000000000000e+00 0.000000000000e+00
0.000000000000e+00 0.000000000000e+00 0.000000000000e+00
0.000000000000e+00 0.000000000000e+00 0.000000000000e+00
0.000000000000e+00 0.000000000000e+00 0.000000000000e+00
0.000000000000e+00 0.000000000000e+00 0.000000000000e+00
0.000000000000e+00 0.000000000000e+00 0.000000000000e+00
0.000000000000e+00 0.000000000000e+00 0.000000000000e+00
0.000000000000e+00 0.000000000000e+00 0.000000000000e+00
0.000000000000e+00 0.000000000000e+00 0.000000000000e+00
0.000000000000e+00 0.000000000000e+00 0.000000000000e+00
0.000000000000e+00 0.000000000000e+00 0.000000000000e+00
0.000000000000e+00 0.000000000000e+00 0.000000000000e+00
0.000000000000e+00 0.000000000000e+00 0.000000000000e+00
0.000000000000e+00 0.000000000000e+00 0.000000000000e+00
0.000000000000e+00 0.000000000000e+00 0.000000000000e+00
0.000000000000e+00 0.000000000000e+00 0.000000000000e+00
0.000000000000e+00 0.000000000000e+00 0.000000000000e+00
0.000000000000e+00 0.000000000000e+00 0.000000000000e+00
0.000000000000e+00 0.000000000000e+00 0.000000000000e+00
0.000000000000e+00 0.000000000000e+00 0.000000000000e+00
0.000000000000e+00 0.000000000000e+00 0.000000000000e+00
0.000000000000e+00 0.000000000000e+00 0.000000000000e+00
0.000000000000e+00 0.000000000000e+00 0.000000000000e+00
0.000000000000e+00 0.000000000000e+00 0.000000000000e+00
0.000000000000e+00 0.000000000000e+00 0.000000000000e+00
0.000000000000e+00 0.000000000000e+00 0.000000000000e+00
0.000000000000e+00 0.000000000000e+00 0.000000000000e+00
0.000000000000e+00 0.000000000000e+00 0.000000000000e+00
0.000000000000e+00 0.000000000000e+00 0.000000000000e+00
0.000000000000e+00 0.000000000000e+00 0.000000000000e+00
0.000000000000e+00 0.000000000000e+00 0.000000000000e+00
0.000000000000e+00 0.000000000000e+00 0.000000000000e+00
0.000000000000e+00 0.000000000000e+00 0.000000000000e+00
0.000000000000e+00 0.000000000000e+00 0.000000000000e+00
0.000000000000e+00 0.000000000000e+00 0.000000000000e+00
0.000000000000e+00 0.000000000000e+00 0.000000000000e+00
0.000000000000e+00 0.000000000000e+00 0.000000000000e+00
0.000000000000e+00 0.000000000000e+00 0.000000000000e+00
0.000000000000e+00 0.000000000000e+00 0.000000000000e+00
0.000000000000e+00 0.000000000000e+00 0.000000000000e+00
0.000000000000e+00 0.000000000000e+00 0.000000000000e+00
0.000000000000e+00 0.000000000000e+00 0.000000000000e+00
0.000000000000e+00 0.000000000000e+00 0.000000000000e+00
0.000000000000e+00 0.000000000000e+00 0.000000000000e+00
0.000000000000e+00 0.000000000000e+00 0.000000000000e+00
0.000000000000e+00 0.000000000000e+00 0.000000000000e+00
0.000000000000e+00 0.000000000000e+00 0.000000000000e+00
0.000000000000e+00 0.000000000000e+00 0.000000000000e+00
0.000000000000e+00 0.000000000000e+00 0.000000000000e+00
0.000000000000e+00 0.000000000000e+00 0.000000000000e+00
0.000000000000e+00 0.000000000000e+00 0.000000000000e+00
0.000000000000e+00 0.000000000000e+00 0.000000000000e+00
0.000000000000e+00 0.000000000000e+00 0.000000000000e+00
0.000000000000e+00 0.000000000000e+00 0.000000000000e+00
0.000000000000e+00 0.000000000000e+00 0.000000000000e+00
0.000000000000e+00 0.000000000000e+00 0.000000000000e+00
0.000000000000e+00 0.000000000000e+00 0.000000000000e+00
0.000000000000e+00 0.000000000000e+00 0.000000000000e+00
0.000000000000e+00 0.000000000000e+00 0.000000000000e+00
0.000000000000e+00 0.000000000000e+00 0.000000000000e+00
0.000000000000e+00 0.000000000000e+00 0.000000000000e+00
0.000000000000e+00 0.000000000000e+00 0.000000000000e+00
0.000000000000e+00 0.000000000000e+00 0.000000000000e+00
0.000000000000e+00 0.000000000000e+00 0.000000000000e+00
0.000000000000e+00 0.000000000000e+00 0.000000000000e+00
0.000000000000e+00 0.000000000000e+00 0.000000000000e+00
0.000000000000e+00 0.000000000000e+00 0.000000000000e+00
0.000000000000e+00 0.000000000000e+00 0.000000000000e+00
0.000000000000e+00 0.000000000000e+00 0.000000000000e+00
0.000000000000e+00 0.000000000000e+00 0.000000000000e+00
0.000000000000e+00 0.000000000000e+00 0.000000000000e+00
0.000000000000e+00 0.000000000000e+00 0.000000000000e+00
0.000000000000e+00 0.000000000000e+00 0.000000000000e+00
0.000000000000e+00 0.000000000000e+00 0.000000000000e+00
0.000000000000e+00 0.000000000000e+00 0.000000000000e+00
0.000000000000e+00 0.000000000000e+00 0.000000000000e+00
0.000000000000e+00 0.000000000000e+00 0.000000000000e+00
0.000000000000e+00 0.000000000000e+00 0.000000000000e+00
0.000000000000e+00 0.000000000000e+00 0.000000000000e+00
0.000000000000e+00 0.000000000000e+00 0.000000000000e+00
0.000000000000e+00 0.000000000000e+00 0.000000000000e+00
0.000000000000e+00 0.000000000000e+00 0.000000000000e+00
0.000000000000e+00 0.000000000000e+00 0.000000000000e+00
0.000000000000e+00 0.000000000000e+00 0.000000000000e+00
0.000000000000e+00 0.000000000000e+00 0.000000000000e+00
0.000000000000e+00 0.000000000000e+00 0.000000000000e+00
0.000000000000e+00 0.000000000000e+00 0.000000000000e+00
0.000000000000e+00 0.000000000000e+00 0.000000000000e+00
0.000000000000e+00 0.000000000000e+00 0.000000000000e+00
0.000000000000e+00 0.000000000000e+00 0.000000000000e+00
0.000000000000e+00 0.000000000000e+00 0.000000000000e+00
0.000000000000e+00 0.000000000000e+00 0.000000000000e+00
0.000000000000e+00 0.000000000000e+00 0.000000000000e+00
0.000000000000e+00 0.000000000000e+00 0.000000000000e+00
0.000000000000e+00 0.000000000000e+00 0.000000000000e+00
0.000000000000e+00 0.000000000000e+00 0.000000000000e+00
0.000000000000e+00 0.000000000000e+00 0.000000000000e+00
0.000000000000e+00 0.000000000000e+00 0.000000000000e+00
0.000000000000e+00 0.000000000000e+00 0.000000000000e+00
0.000000000000e+00 0.000000000000e+00 0.000000000000e+00
0.000000000000e+00 0.000000000000e+00 0.000000000000e+00
0.000000000000e+00 0.000000000000e+00 0.000000000000e+00
-1.693597596895e-06 -1.693597654250e-06 -1.505025338692e-02
-8.530662946784e-07 -1.714820908808e-06 -1.505086812634e-02
2.506246778318e-14 -1.743082802944e-06 -1.505108758329e-02
8.530663448171e-07 -1.714820907096e-06 -1.505086812634e-02
1.693597647044e-06 -1.693597650840e-06 -1.505025338692e-02
-1.714820853153e-06 -8.530663520393e-07 -1.505086812634e-02
-8.576746422694e-07 -8.576746979196e-07 -1.505149411976e-02
2.420840907699e-14 -8.759784433298e-07 -1.505171911018e-02
8.576746907007e-07 -8.576746962124e-07 -1.505149411976e-02
1.714820901599e-06 -8.530663486280e-07 -1.505086812634e-02
-1.743082749004e-06 -3.229523476582e-14 -1.505108758329e-02
-8.759783893892e-07 -3.144521165488e-14 -1.505171911018e-02
2.335454286185e-14 -3.059622351099e-14 -1.505194605408e-02
8.759784361177e-07 -2.974173013747e-14 -1.505171911018e-02
1.743082795747e-06 -2.888675747581e-14 -1.505108758329e-02
-1.714820854875e-06 8.530662874460e-07 -1.505086812634e-02
-8.576746439824e-07 8.576746350330e-07 -1.505149411976e-02
2.249964658751e-14 8.759783821513e-07 -1.505171911018e-02
8.576746889893e-07 8.576746367310e-07 -1.505149411976e-02
1.714820899890e-06 8.530662908485e-07 -1.505086812634e-02
-1.693597600293e-06 1.693597589649e-06 -1.505025338692e-02
-8.530662980940e-07 1.714820845930e-06 -1.505086812634e-02
2.164001883507e-14 1.743082741781e-06 -1.505108758329e-02
8.530663413923e-07 1.714820847623e-06 -1.505086812634e-02
1.693597643610e-06 1.693597593053e-06 -1.505025338692e-02
-1.304211083050e-06 -1.304211140419e-06 -1.505164684957e-02
-6.222512135181e-07 -1.325027942373e-06 -1.505227713761e-02
2.506075903022e-14 -1.354451543476e-06 -1.505249299288e-02
6.222512636441e-07 -1.325027940663e-06 -1.505227713761e-02
1.304211133178e-06 -1.304211137015e-06 -1.505164684957e-02
-1.325027886703e-06 -6.222512708919e-07 -1.505227713761e-02
-6.235751669090e-07 -6.235752225769e-07 -1.505291521836e-02
2.420653007903e-14 -6.396499439940e-07 -1.505313467020e-02
6.235752153321e-07 -6.235752208725e-07 -1.505291521836e-02
1.325027935136e-06 -6.222512674831e-07 -1.505227713761e-02
-1.354451489524e-06 -3.231604430207e-14 -1.505249299288e-02
-6.396498900361e-07 -3.146158929280e-14 -1.505313467020e-02
2.335116060570e-14 -3.060963624502e-14 -1.505335638104e-02
6.396499367498e-07 -2.975608072603e-14 -1.505313467020e-02
1.354451536252e-06 -2.890421559791e-14 -1.505249299288e-02
-1.325027888411e-06 6.222512062652e-07 -1.505227713761e-02
-6.235751686181e-07 6.235751596589e-07 -1.505291521836e-02
2.249665063058e-14 6.396498827770e-07 -1.505313467020e-02
6.235752136203e-07 6.235751613605e-07 -1.505291521836e-02
1.325027933422e-06 6.222512096791e-07 -1.505227713761e-02
-1.304211086461e-06 1.304211075799e-06 -1.505164684957e-02
-6.222512169385e-07 1.325027879451e-06 -1.505227713761e-02
2.164251812374e-14 1.354451482271e-06 -1.505249299288e-02
6.222512602274e-07 1.325027881154e-06 -1.505227713761e-02
1.304211129761e-06 1.304211079211e-06 -1.505164684957e-02
-8.503849158884e-07 -8.503849732777e-07 -1.505268714185e-02
-3.869068531845e-07 -8.655151682624e-07 -1.505331551031e-02
2.505719749558e-14 -8.936603452492e-07 -1.505351481626e-02
3.869069032985e-07 -8.655151665604e-07 -1.505331551031e-02
8.503849660031e-07 -8.503849698739e-07 -1.505268714185e-02
-8.655151125783e-07 -3.869069105774e-07 -1.505331551031e-02
-3.874003785448e-07 -3.874004342268e-07 -1.505394745138e-02
2.420275867195e-14 -4.015892979562e-07 -1.505414697496e-02
3.874004269547e-07 -3.874004325210e-07 -1.505394745138e-02
8.655151609967e-07 -3.869069071680e-07 -1.505331551031e-02
-8.936602912702e-07 -3.233609887213e-14 -1.505351481626e-02
-4.015892439816e-07 -3.147940189178e-14 -1.505414697496e-02
2.334962184755e-14 -3.062559149557e-14 -1.505434664948e-02
4.015892906851e-07 -2.977202946223e-14 -1.505414697496e-02
8.936603379826e-07 -2.891789118896e-14 -1.505351481626e-02
-8.655151142813e-07 3.869068459132e-07 -1.505331551031e-02
-3.874003802504e-07 3.874003712697e-07 -1.505394745138e-02
2.249302747679e-14 4.015892367057e-07 -1.505414697496e-02
3.874004252462e-07 3.874003729771e-07 -1.505394745138e-02
8.655151592909e-07 3.869068493339e-07 -1.505331551031e-02
-8.503849193019e-07 8.503849086133e-07 -1.505268714185e-02
-3.869068566041e-07 8.655151053068e-07 -1.505331551031e-02
2.163927637794e-14 8.936602839981e-07 -1.505351481626e-02
3.869068998855e-07 8.655151070157e-07 -1.505331551031e-02
8.503849625889e-07 8.503849120427e-07 -1.505268714185e-02
-3.894714147279e-07 -3.894714721381e-07 -1.505335667638e-02
-1.615278578072e-07 -4.001796801135e-07 -1.505396242023e-02
2.505692367620e-14 -4.279890394586e-07 -1.505415130863e-02
1.615279079159e-07 -4.001796784085e-07 -1.505396242023e-02
3.894714648316e-07 -3.894714687333e-07 -1.505335667638e-02
-4.001796244112e-07 -1.615279152191e-07 -1.505396242023e-02
-1.619849510470e-07 -1.619850067478e-07 -1.505456578951e-02
2.420132897831e-14 -1.755418763001e-07 -1.505475188078e-02
1.619849994532e-07 -1.619850050387e-07 -1.505456578951e-02
4.001796728215e-07 -1.615279118048e-07 -1.505396242023e-02
-4.279889854607e-07 -3.235231316446e-14 -1.505415130863e-02
-1.755418223058e-07 -3.149702215254e-14 -1.505475188078e-02
2.335153108887e-14 -3.064031491600e-14 -1.505493652442e-02
1.755418690072e-07 -2.978576981647e-14 -1.505475188078e-02
4.279890321652e-07 -2.893233985624e-14 -1.505415130863e-02
-4.001796261133e-07 1.615278505153e-07 -1.505396242023e-02
-1.619849527498e-07 1.619849437537e-07 -1.505456578951e-02
2.249477086454e-14 1.755418150157e-07 -1.505475188078e-02
1.619849977473e-07 1.619849454674e-07 -1.505456578951e-02
4.001796711178e-07 1.615278539444e-07 -1.505396242023e-02
-3.894714181371e-07 3.894714074356e-07 -1.505335667638e-02
-1.615278612229e-07 4.001796171164e-07 -1.505396242023e-02
2.164222340245e-14 4.279889781735e-07 -1.505415130863e-02
1.615279045048e-07 4.001796188408e-07 -1.505396242023e-02
3.894714614236e-07 3.894714108710e-07 -1.505335667638e-02
-3.682075112438e-09 -3.682132545231e-09 -1.505360910446e-02
4.687420084635e-08 -1.886481446271e-08 -1.505419305660e-02
2.505424944861e-14 -5.104624690094e-08 -1.505437364112e-02
-4.687415074335e-08 -1.886481274409e-08 -1.505419305660e-02
3.682125216991e-09 -3.682129137882e-09 -1.505360910446e-02
-1.886475873948e-08 4.687414342272e-08 -1.505419305660e-02
4.513462605947e-08 4.513457034184e-08 -1.505476934174e-02
2.420527812179e-14 3.017313279152e-08 -1.505494466935e-02
-4.513457765427e-08 4.513457205241e-08 -1.505476934174e-02
1.886480713455e-08 4.687414683562e-08 -1.505419305660e-02
-5.104619289354e-08 -3.236668677967e-14 -1.505437364112e-02
3.017318679998e-08 -3.151245062336e-14 -1.505494466935e-02
2.335354115207e-14 -3.065437274277e-14 -1.505511767156e-02
-3.017314010140e-08 -2.979921239254e-14 -1.505494466935e-02
5.104623958344e-08 -2.894211305086e-14 -1.505437364112e-02
-1.886476044323e-08 -4.687420816483e-08 -1.505419305660e-02
4.513462435911e-08 -4.513463337056e-08 -1.505476934174e-02
2.250196969598e-14 -3.017319410782e-08 -1.505494466935e-02
-4.513457935974e-08 -4.513463164927e-08 -1.505476934174e-02
1.886480543730e-08 -4.687420472332e-08 -1.505419305660e-02
-3.682078518619e-09 3.682067797882e-09 -1.505360910446e-02
4.687419744012e-08 1.886475142455e-08 -1.505419305660e-02
2.164859792120e-14 5.104618558173e-08 -1.505437364112e-02
-4.687415415109e-08 1.886475315075e-08 -1.505419305660e-02
3.682121803764e-09 3.682071248597e-09 -1.505360910446e-02
SCALARS displacement_magnitude float 1
LOOKUP_TABLE default
0.000000000000e+00
0.000000000000e+00
0.000000000000e+00
0.000000000000e+00
0.000000000000e+00
0.000000000000e+00
0.000000000000e+00
0.000000000000e+00
0.000000000000e+00
0.000000000000e+00
0.000000000000e+00
0.000000000000e+00
0.000000000000e+00
0.000000000000e+00
0.000000000000e+00
0.000000000000e+00
0.000000000000e+00
0.000000000000e+00
0.000000000000e+00
0.000000000000e+00
0.000000000000e+00
0.000000000000e+00
0.000000000000e+00
0.000000000000e+00
0.000000000000e+00
0.000000000000e+00
0.000000000000e+00
0.000000000000e+00
0.000000000000e+00
0.000000000000e+00
0.000000000000e+00
0.000000000000e+00
0.000000000000e+00
0.000000000000e+00
0.000000000000e+00
0.000000000000e+00
0.000000000000e+00
0.000000000000e+00
0.000000000000e+00
0.000000000000e+00
0.000000000000e+00
0.000000000000e+00
0.000000000000e+00
0.000000000000e+00
0.000000000000e+00
0.000000000000e+00
0.000000000000e+00
0.000000000000e+00
0.000000000000e+00
0.000000000000e+00
0.000000000000e+00
0.000000000000e+00
0.000000000000e+00
0.000000000000e+00
0.000000000000e+00
0.000000000000e+00
0.000000000000e+00
0.000000000000e+00
0.000000000000e+00
0.000000000000e+00
0.000000000000e+00
0.000000000000e+00
0.000000000000e+00
0.000000000000e+00
0.000000000000e+00
0.000000000000e+00
0.000000000000e+00
0.000000000000e+00
0.000000000000e+00
0.000000000000e+00
0.000000000000e+00
0.000000000000e+00
0.000000000000e+00
0.000000000000e+00
0.000000000000e+00
0.000000000000e+00
0.000000000000e+00
0.000000000000e+00
0.000000000000e+00
0.000000000000e+00
0.000000000000e+00
0.000000000000e+00
0.000000000000e+00
0.000000000000e+00
0.000000000000e+00
0.000000000000e+00
0.000000000000e+00
0.000000000000e+00
0.000000000000e+00
0.000000000000e+00
0.000000000000e+00
0.000000000000e+00
0.000000000000e+00
0.000000000000e+00
0.000000000000e+00
0.000000000000e+00
0.000000000000e+00
0.000000000000e+00
0.000000000000e+00
0.000000000000e+00
0.000000000000e+00
0.000000000000e+00
0.000000000000e+00
0.000000000000e+00
0.000000000000e+00
0.000000000000e+00
0.000000000000e+00
0.000000000000e+00
0.000000000000e+00
0.000000000000e+00
0.000000000000e+00
0.000000000000e+00
0.000000000000e+00
0.000000000000e+00
0.000000000000e+00
0.000000000000e+00
0.000000000000e+00
0.000000000000e+00
0.000000000000e+00
0.000000000000e+00
0.000000000000e+00
0.000000000000e+00
0.000000000000e+00
0.000000000000e+00
0.000000000000e+00
1.505025357750e-02
1.505086824821e-02
1.505108768422e-02
1.505086824821e-02
1.505025357750e-02
1.505086824821e-02
1.505149416863e-02
1.505171913567e-02
1.505149416863e-02
1.505086824821e-02
1.505108768422e-02
1.505171913567e-02
1.505194605408e-02
1.505171913567e-02
1.505108768422e-02
1.505086824821e-02
1.505149416863e-02
1.505171913567e-02
1.505149416863e-02
1.505086824821e-02
1.505025357750e-02
1.505086824821e-02
1.505108768422e-02
1.505086824821e-02
1.505025357750e-02
1.505164696258e-02
1.505227720880e-02
1.505249305382e-02
1.505227720880e-02
1.505164696258e-02
1.505227720880e-02
1.505291524419e-02
1.505313468379e-02
1.505291524419e-02
1.505227720880e-02
1.505249305382e-02
1.505313468379e-02
1.505335638104e-02
1.505313468379e-02
1.505249305382e-02
1.505227720880e-02
1.505291524419e-02
1.505313468379e-02
1.505291524419e-02
1.505227720880e-02
1.505164696258e-02
1.505227720880e-02
1.505249305382e-02
1.505227720880e-02
1.505164696258e-02
1.505268718990e-02
1.505331554016e-02
1.505351484279e-02
1.505331554016e-02
1.505268718990e-02
1.505331554016e-02
1.505394746135e-02
1.505414698032e-02
1.505394746135e-02
1.505331554016e-02
1.505351484279e-02
1.505414698032e-02
1.505434664948e-02
1.505414698032e-02
1.505351484279e-02
1.505331554016e-02
1.505394746135e-02
1.505414698032e-02
1.505394746135e-02
1.505331554016e-02
1.505268718990e-02
1.505331554016e-02
1.505351484279e-02
1.505331554016e-02
1.505268718990e-02
1.505335668645e-02
1.505396242642e-02
1.505415131471e-02
1.505396242642e-02
1.505335668645e-02
1.505396242642e-02
1.505456579125e-02
1.505475188180e-02
1.505456579125e-02
1.505396242642e-02
1.505415131471e-02
1.505475188180e-02
1.505493652442e-02
1.505475188180e-02
1.505415131471e-02
1.505396242642e-02
1.505456579125e-02
1.505475188180e-02
1.505456579125e-02
1.505396242642e-02
1.505335668645e-02
1.505396242642e-02
1.505415131471e-02
1.505396242642e-02
1.505335668645e-02
1.505360910446e-02
1.505419305669e-02
1.505437364120e-02
1.505419305669e-02
1.505360910446e-02
1.505419305669e-02
1.505476934188e-02
1.505494466939e-02
1.505476934188e-02
1.505419305669e-02
1.505437364120e-02
1.505494466939e-02
1.505511767156e-02
1.505494466939e-02
1.505437364120e-02
1.505419305669e-02
1.505476934188e-02
1.505494466939e-02
1.505476934188e-02
1.505419305669e-02
1.505360910446e-02
1.505419305669e-02
1.505437364120e-02
1.505419305669e-02
1.505360910446e-02
CELL_DATA 128
SCALARS displacement_magnitude float 1
LOOKUP_TABLE default
0.000000000000e+00
0.000000000000e+00
0.000000000000e+00
0.000000000000e+00
0.000000000000e+00
0.000000000000e+00
0.000000000000e+00
0.000000000000e+00
0.000000000000e+00
0.000000000000e+00
0.000000000000e+00
0.000000000000e+00
0.000000000000e+00
0.000000000000e+00
0.000000000000e+00
0.000000000000e+00
0.000000000000e+00
0.000000000000e+00
0.000000000000e+00
0.000000000000e+00
0.000000000000e+00
0.000000000000e+00
0.000000000000e+00
0.000000000000e+00
0.000000000000e+00
0.000000000000e+00
0.000000000000e+00
0.000000000000e+00
0.000000000000e+00
0.000000000000e+00
0.000000000000e+00
0.000000000000e+00
0.000000000000e+00
0.000000000000e+00
0.000000000000e+00
0.000000000000e+00
0.000000000000e+00
0.000000000000e+00
0.000000000000e+00
0.000000000000e+00
0.000000000000e+00
0.000000000000e+00
0.000000000000e+00
0.000000000000e+00
0.000000000000e+00
0.000000000000e+00
0.000000000000e+00
0.000000000000e+00
0.000000000000e+00
0.000000000000e+00
0.000000000000e+00
0.000000000000e+00
0.000000000000e+00
0.000000000000e+00
0.000000000000e+00
0.000000000000e+00
0.000000000000e+00
0.000000000000e+00
0.000000000000e+00
0.000000000000e+00
0.000000000000e+00
0.000000000000e+00
0.000000000000e+00
0.000000000000e+00
1.505157510836e-02
1.505199867842e-02
1.505199867842e-02
1.505157510836e-02
1.505199867842e-02
1.505242743586e-02
1.505242743586e-02
1.505199867842e-02
1.505199867842e-02
1.505242743586e-02
1.505242743586e-02
1.505199867842e-02
1.505157510836e-02
1.505199867842e-02
1.505199867842e-02
1.505157510836e-02
1.505279779449e-02
1.505321812690e-02
1.505321812690e-02
1.505279779449e-02
1.505321812690e-02
1.505364113303e-02
1.505364113303e-02
1.505321812690e-02
1.505321812690e-02
1.505364113303e-02
1.505364113303e-02
1.505321812690e-02
1.505279779449e-02
1.505321812690e-02
1.505321812690e-02
1.505279779449e-02
1.505363913276e-02
1.505404452985e-02
1.505404452985e-02
1.505363913276e-02
1.505404452985e-02
1.505444926884e-02
1.505444926884e-02
1.505404452985e-02
1.505404452985e-02
1.505444926884e-02
1.505444926884e-02
1.505404452985e-02
1.505363913276e-02
1.505404452985e-02
1.505404452985e-02
1.505363913276e-02
1.505407648628e-02
1.505446401542e-02
1.505446401542e-02
1.505407648628e-02
1.505446401542e-02
1.505484780394e-02
1.505484780394e-02
1.505446401542e-02
1.505446401542e-02
1.505484780394e-02
1.505484780394e-02
1.505446401542e-02
1.505407648628e-02
1.505446401542e-02
1.505446401542e-02
1.505407648628e-02
SCALARS engineering_strain_norm float 1
LOOKUP_TABLE default
0.000000000000e+00
0.000000000000e+00
0.000000000000e+00
0.000000000000e+00
0.000000000000e+00
0.000000000000e+00
0.000000000000e+00
0.000000000000e+00
0.000000000000e+00
0.000000000000e+00
0.000000000000e+00
0.000000000000e+00
0.000000000000e+00
0.000000000000e+00
0.000000000000e+00
0.000000000000e+00
0.000000000000e+00
0.000000000000e+00
0.000000000000e+00
0.000000000000e+00
0.000000000000e+00
0.000000000000e+00
0.000000000000e+00
0.000000000000e+00
0.000000000000e+00
0.000000000000e+00
0.000000000000e+00
0.000000000000e+00
0.000000000000e+00
0.000000000000e+00
0.000000000000e+00
0.000000000000e+00
0.000000000000e+00
0.000000000000e+00
0.000000000000e+00
0.000000000000e+00
0.000000000000e+00
0.000000000000e+00
0.000000000000e+00
0.000000000000e+00
0.000000000000e+00
0.000000000000e+00
0.000000000000e+00
0.000000000000e+00
0.000000000000e+00
0.000000000000e+00
0.000000000000e+00
0.000000000000e+00
0.000000000000e+00
0.000000000000e+00
0.000000000000e+00
0.000000000000e+00
0.000000000000e+00
0.000000000000e+00
0.000000000000e+00
0.000000000000e+00
0.000000000000e+00
0.000000000000e+00
0.000000000000e+00
0.000000000000e+00
0.000000000000e+00
0.000000000000e+00
0.000000000000e+00
0.000000000000e+00
2.335401611264e-05
2.338666001159e-05
2.338666001165e-05
2.335401611263e-05
2.338666001160e-05
2.337083631709e-05
2.337083631717e-05
2.338666001166e-05
2.338666001163e-05
2.337083631709e-05
2.337083631715e-05
2.338666001170e-05
2.335401611253e-05
2.338666001164e-05
2.338666001168e-05
2.335401611255e-05
1.726539705794e-05
1.698460214538e-05
1.698460214541e-05
1.726539705802e-05
1.698460214541e-05
1.661453797882e-05
1.661453797889e-05
1.698460214556e-05
1.698460214546e-05
1.661453797885e-05
1.661453797888e-05
1.698460214555e-05
1.726539705787e-05
1.698460214543e-05
1.698460214546e-05
1.726539705799e-05
1.071062103451e-05
1.032053031256e-05
1.032053031256e-05
1.071062103459e-05
1.032053031255e-05
9.835326494041e-06
9.835326494051e-06
1.032053031267e-05
1.032053031255e-05
9.835326493922e-06
9.835326494062e-06
1.032053031271e-05
1.071062103446e-05
1.032053031251e-05
1.032053031260e-05
1.071062103467e-05
3.902387052939e-06
3.548662116578e-06
3.548662116588e-06
3.902387052978e-06
3.548662116588e-06
3.063480368333e-06
3.063480368374e-06
3.548662116635e-06
3.548662116565e-06
3.063480368308e-06
3.063480368365e-06
3.548662116670e-06
3.902387052883e-06
3.548662116529e-06
3.548662116607e-06
3.902387052981e-06
SCALARS von_mises float 1
LOOKUP_TABLE default
0.000000000000e+00
0.000000000000e+00
0.000000000000e+00
0.000000000000e+00
0.000000000000e+00
0.000000000000e+00
0.000000000000e+00
0.000000000000e+00
0.000000000000e+00
0.000000000000e+00
0.000000000000e+00
0.000000000000e+00
0.000000000000e+00
0.000000000000e+00
0.000000000000e+00
0.000000000000e+00
0.000000000000e+00
0.000000000000e+00
0.000000000000e+00
0.000000000000e+00
0.000000000000e+00
0.000000000000e+00
0.000000000000e+00
0.000000000000e+00
0.000000000000e+00
0.000000000000e+00
0.000000000000e+00
0.000000000000e+00
0.000000000000e+00
0.000000000000e+00
0.000000000000e+00
0.000000000000e+00
0.000000000000e+00
0.000000000000e+00
0.000000000000e+00
0.000000000000e+00
0.000000000000e+00
0.000000000000e+00
0.000000000000e+00
0.000000000000e+00
0.000000000000e+00
0.000000000000e+00
0.000000000000e+00
0.000000000000e+00
0.000000000000e+00
0.000000000000e+00
0.000000000000e+00
0.000000000000e+00
0.000000000000e+00
0.000000000000e+00
0.000000000000e+00
0.000000000000e+00
0.000000000000e+00
0.000000000000e+00
0.000000000000e+00
0.000000000000e+00
0.000000000000e+00
0.000000000000e+00
0.000000000000e+00
0.000000000000e+00
0.000000000000e+00
0.000000000000e+00
0.000000000000e+00
0.000000000000e+00
2.140609713011e+00
2.141179751936e+00
2.141179751942e+00
2.140609713011e+00
2.141179751937e+00
2.136388282668e+00
2.136388282676e+00
2.141179751944e+00
2.141179751940e+00
2.136388282669e+00
2.136388282675e+00
2.141179751947e+00
2.140609713001e+00
2.141179751941e+00
2.141179751946e+00
2.140609713005e+00
1.585522536031e+00
1.554336701178e+00
1.554336701181e+00
1.585522536039e+00
1.554336701180e+00
1.513177146780e+00
1.513177146787e+00
1.554336701195e+00
1.554336701185e+00
1.513177146783e+00
1.513177146787e+00
1.554336701194e+00
1.585522536025e+00
1.554336701183e+00
1.554336701186e+00
1.585522536037e+00
9.809926138297e-01
9.401682853503e-01
9.401682853507e-01
9.809926138373e-01
9.401682853491e-01
8.889257526800e-01
8.889257526813e-01
9.401682853602e-01
9.401682853491e-01
8.889257526698e-01
8.889257526822e-01
9.401682853643e-01
9.809926138247e-01
9.401682853463e-01
9.401682853546e-01
9.809926138441e-01
3.612362264556e-01
3.231511035733e-01
3.231511035732e-01
3.612362264587e-01
3.231511035741e-01
2.687118281700e-01
2.687118281726e-01
3.231511035779e-01
3.231511035718e-01
2.687118281669e-01
2.687118281715e-01
3.231511035814e-01
3.612362264503e-01
3.231511035684e-01
3.231511035753e-01
3.612362264594e-01
SCALARS sdf_gap float 1
LOOKUP_TABLE default
0.000000000000e+00
0.000000000000e+00
0.000000000000e+00
0.000000000000e+00
0.000000000000e+00
0.000000000000e+00
0.000000000000e+00
0.000000000000e+00
0.000000000000e+00
0.000000000000e+00
0.000000000000e+00
0.000000000000e+00
0.000000000000e+00
0.000000000000e+00
0.000000000000e+00
0.000000000000e+00
0.000000000000e+00
0.000000000000e+00
0.000000000000e+00
0.000000000000e+00
0.000000000000e+00
0.000000000000e+00
0.000000000000e+00
0.000000000000e+00
0.000000000000e+00
0.000000000000e+00
0.000000000000e+00
0.000000000000e+00
0.000000000000e+00
0.000000000000e+00
0.000000000000e+00
0.000000000000e+00
0.000000000000e+00
0.000000000000e+00
0.000000000000e+00
0.000000000000e+00
0.000000000000e+00
0.000000000000e+00
0.000000000000e+00
0.000000000000e+00
0.000000000000e+00
0.000000000000e+00
0.000000000000e+00
0.000000000000e+00
0.000000000000e+00
0.000000000000e+00
0.000000000000e+00
0.000000000000e+00
0.000000000000e+00
0.000000000000e+00
0.000000000000e+00
0.000000000000e+00
0.000000000000e+00
0.000000000000e+00
0.000000000000e+00
0.000000000000e+00
0.000000000000e+00
0.000000000000e+00
0.000000000000e+00
0.000000000000e+00
0.000000000000e+00
0.000000000000e+00
0.000000000000e+00
0.000000000000e+00
-5.087093984143e-05
-5.129223489434e-05
-5.129223489433e-05
-5.087093984140e-05
-5.129223489430e-05
-5.171959855163e-05
-5.171959855163e-05
-5.129223489429e-05
-5.129223489426e-05
-5.171959855162e-05
-5.171959855161e-05
-5.129223489425e-05
-5.087093984133e-05
-5.129223489425e-05
-5.129223489426e-05
-5.087093984133e-05
0.000000000000e+00
0.000000000000e+00
0.000000000000e+00
0.000000000000e+00
0.000000000000e+00
0.000000000000e+00
0.000000000000e+00
0.000000000000e+00
0.000000000000e+00
0.000000000000e+00
0.000000000000e+00
0.000000000000e+00
0.000000000000e+00
0.000000000000e+00
0.000000000000e+00
0.000000000000e+00
0.000000000000e+00
0.000000000000e+00
0.000000000000e+00
0.000000000000e+00
0.000000000000e+00
0.000000000000e+00
0.000000000000e+00
0.000000000000e+00
0.000000000000e+00
0.000000000000e+00
0.000000000000e+00
0.000000000000e+00
0.000000000000e+00
0.000000000000e+00
0.000000000000e+00
0.000000000000e+00
0.000000000000e+00
0.000000000000e+00
0.000000000000e+00
0.000000000000e+00
0.000000000000e+00
0.000000000000e+00
0.000000000000e+00
0.000000000000e+00
0.000000000000e+00
0.000000000000e+00
0.000000000000e+00
0.000000000000e+00
0.000000000000e+00
0.000000000000e+00
0.000000000000e+00
0.000000000000e+00
SCALARS contact_pressure float 1
LOOKUP_TABLE default
0.000000000000e+00
0.000000000000e+00
0.000000000000e+00
0.000000000000e+00
0.000000000000e+00
0.000000000000e+00
0.000000000000e+00
0.000000000000e+00
0.000000000000e+00
0.000000000000e+00
0.000000000000e+00
0.000000000000e+00
0.000000000000e+00
0.000000000000e+00
0.000000000000e+00
0.000000000000e+00
0.000000000000e+00
0.000000000000e+00
0.000000000000e+00
0.000000000000e+00
0.000000000000e+00
0.000000000000e+00
0.000000000000e+00
0.000000000000e+00
0.000000000000e+00
0.000000000000e+00
0.000000000000e+00
0.000000000000e+00
0.000000000000e+00
0.000000000000e+00
0.000000000000e+00
0.000000000000e+00
0.000000000000e+00
0.000000000000e+00
0.000000000000e+00
0.000000000000e+00
0.000000000000e+00
0.000000000000e+00
0.000000000000e+00
0.000000000000e+00
0.000000000000e+00
0.000000000000e+00
0.000000000000e+00
0.000000000000e+00
0.000000000000e+00
0.000000000000e+00
0.000000000000e+00
0.000000000000e+00
0.000000000000e+00
0.000000000000e+00
0.000000000000e+00
0.000000000000e+00
0.000000000000e+00
0.000000000000e+00
0.000000000000e+00
0.000000000000e+00
0.000000000000e+00
0.000000000000e+00
0.000000000000e+00
0.000000000000e+00
0.000000000000e+00
0.000000000000e+00
0.000000000000e+00
0.000000000000e+00
2.543546992072e+00
2.564611744717e+00
2.564611744717e+00
2.543546992070e+00
2.564611744715e+00
2.585979927582e+00
2.585979927582e+00
2.564611744715e+00
2.564611744713e+00
2.585979927581e+00
2.585979927581e+00
2.564611744712e+00
2.543546992066e+00
2.564611744712e+00
2.564611744713e+00
2.543546992066e+00
0.000000000000e+00
0.000000000000e+00
0.000000000000e+00
0.000000000000e+00
0.000000000000e+00
0.000000000000e+00
0.000000000000e+00
0.000000000000e+00
0.000000000000e+00
0.000000000000e+00
0.000000000000e+00
0.000000000000e+00
0.000000000000e+00
0.000000000000e+00
0.000000000000e+00
0.000000000000e+00
0.000000000000e+00
0.000000000000e+00
0.000000000000e+00
0.000000000000e+00
0.000000000000e+00
0.000000000000e+00
0.000000000000e+00
0.000000000000e+00
0.000000000000e+00
0.000000000000e+00
0.000000000000e+00
0.000000000000e+00
0.000000000000e+00
0.000000000000e+00
0.000000000000e+00
0.000000000000e+00
0.000000000000e+00
0.000000000000e+00
0.000000000000e+00
0.000000000000e+00
0.000000000000e+00
0.000000000000e+00
0.000000000000e+00
0.000000000000e+00
0.000000000000e+00
0.000000000000e+00
0.000000000000e+00
0.000000000000e+00
0.000000000000e+00
0.000000000000e+00
0.000000000000e+00
0.000000000000e+00
SCALARS active_contact float 1
LOOKUP_TABLE default
0.000000000000e+00
0.000000000000e+00
0.000000000000e+00
0.000000000000e+00
0.000000000000e+00
0.000000000000e+00
0.000000000000e+00
0.000000000000e+00
0.000000000000e+00
0.000000000000e+00
0.000000000000e+00
0.000000000000e+00
0.000000000000e+00
0.000000000000e+00
0.000000000000e+00
0.000000000000e+00
0.000000000000e+00
0.000000000000e+00
0.000000000000e+00
0.000000000000e+00
0.000000000000e+00
0.000000000000e+00
0.000000000000e+00
0.000000000000e+00
0.000000000000e+00
0.000000000000e+00
0.000000000000e+00
0.000000000000e+00
0.000000000000e+00
0.000000000000e+00
0.000000000000e+00
0.000000000000e+00
0.000000000000e+00
0.000000000000e+00
0.000000000000e+00
0.000000000000e+00
0.000000000000e+00
0.000000000000e+00
0.000000000000e+00
0.000000000000e+00
0.000000000000e+00
0.000000000000e+00
0.000000000000e+00
0.000000000000e+00
0.000000000000e+00
0.000000000000e+00
0.000000000000e+00
0.000000000000e+00
0.000000000000e+00
0.000000000000e+00
0.000000000000e+00
0.000000000000e+00
0.000000000000e+00
0.000000000000e+00
0.000000000000e+00
0.000000000000e+00
0.000000000000e+00
0.000000000000e+00
0.000000000000e+00
0.000000000000e+00
0.000000000000e+00
0.000000000000e+00
0.000000000000e+00
0.000000000000e+00
1.000000000000e+00
1.000000000000e+00
1.000000000000e+00
1.000000000000e+00
1.000000000000e+00
1.000000000000e+00
1.000000000000e+00
1.000000000000e+00
1.000000000000e+00
1.000000000000e+00
1.000000000000e+00
1.000000000000e+00
1.000000000000e+00
1.000000000000e+00
1.000000000000e+00
1.000000000000e+00
0.000000000000e+00
0.000000000000e+00
0.000000000000e+00
0.000000000000e+00
0.000000000000e+00
0.000000000000e+00
0.000000000000e+00
0.000000000000e+00
0.000000000000e+00
0.000000000000e+00
0.000000000000e+00
0.000000000000e+00
0.000000000000e+00
0.000000000000e+00
0.000000000000e+00
0.000000000000e+00
0.000000000000e+00
0.000000000000e+00
0.000000000000e+00
0.000000000000e+00
0.000000000000e+00
0.000000000000e+00
0.000000000000e+00
0.000000000000e+00
0.000000000000e+00
0.000000000000e+00
0.000000000000e+00
0.000000000000e+00
0.000000000000e+00
0.000000000000e+00
0.000000000000e+00
0.000000000000e+00
0.000000000000e+00
0.000000000000e+00
0.000000000000e+00
0.000000000000e+00
0.000000000000e+00
0.000000000000e+00
0.000000000000e+00
0.000000000000e+00
0.000000000000e+00
0.000000000000e+00
0.000000000000e+00
0.000000000000e+00
0.000000000000e+00
0.000000000000e+00
0.000000000000e+00
0.000000000000e+00
