# vtk DataFile Version 3.0
SFC long-time C3D8 dynamic frame 145 t=2.900000000000e+00
ASCII
DATASET UNSTRUCTURED_GRID
POINTS 250 float
-2.500000000000e-01 -2.500000000000e-01 0.000000000000e+00
-1.250000000000e-01 -2.500000000000e-01 0.000000000000e+00
0.000000000000e+00 -2.500000000000e-01 0.000000000000e+00
1.250000000000e-01 -2.500000000000e-01 0.000000000000e+00
2.500000000000e-01 -2.500000000000e-01 0.000000000000e+00
-2.500000000000e-01 -1.250000000000e-01 0.000000000000e+00
-1.250000000000e-01 -1.250000000000e-01 0.000000000000e+00
0.000000000000e+00 -1.250000000000e-01 0.000000000000e+00
1.250000000000e-01 -1.250000000000e-01 0.000000000000e+00
2.500000000000e-01 -1.250000000000e-01 0.000000000000e+00
-2.500000000000e-01 0.000000000000e+00 0.000000000000e+00
-1.250000000000e-01 0.000000000000e+00 0.000000000000e+00
0.000000000000e+00 0.000000000000e+00 0.000000000000e+00
1.250000000000e-01 0.000000000000e+00 0.000000000000e+00
2.500000000000e-01 0.000000000000e+00 0.000000000000e+00
-2.500000000000e-01 1.250000000000e-01 0.000000000000e+00
-1.250000000000e-01 1.250000000000e-01 0.000000000000e+00
0.000000000000e+00 1.250000000000e-01 0.000000000000e+00
1.250000000000e-01 1.250000000000e-01 0.000000000000e+00
2.500000000000e-01 1.250000000000e-01 0.000000000000e+00
-2.500000000000e-01 2.500000000000e-01 0.000000000000e+00
-1.250000000000e-01 2.500000000000e-01 0.000000000000e+00
0.000000000000e+00 2.500000000000e-01 0.000000000000e+00
1.250000000000e-01 2.500000000000e-01 0.000000000000e+00
2.500000000000e-01 2.500000000000e-01 0.000000000000e+00
-2.500000000000e-01 -2.500000000000e-01 6.000000000000e-02
-1.250000000000e-01 -2.500000000000e-01 6.000000000000e-02
0.000000000000e+00 -2.500000000000e-01 6.000000000000e-02
1.250000000000e-01 -2.500000000000e-01 6.000000000000e-02
2.500000000000e-01 -2.500000000000e-01 6.000000000000e-02
-2.500000000000e-01 -1.250000000000e-01 6.000000000000e-02
-1.250000000000e-01 -1.250000000000e-01 6.000000000000e-02
0.000000000000e+00 -1.250000000000e-01 6.000000000000e-02
1.250000000000e-01 -1.250000000000e-01 6.000000000000e-02
2.500000000000e-01 -1.250000000000e-01 6.000000000000e-02
-2.500000000000e-01 0.000000000000e+00 6.000000000000e-02
-1.250000000000e-01 0.000000000000e+00 6.000000000000e-02
0.000000000000e+00 0.000000000000e+00 6.000000000000e-02
1.250000000000e-01 0.000000000000e+00 6.000000000000e-02
2.500000000000e-01 0.000000000000e+00 6.000000000000e-02
-2.500000000000e-01 1.250000000000e-01 6.000000000000e-02
-1.250000000000e-01 1.250000000000e-01 6.000000000000e-02
0.000000000000e+00 1.250000000000e-01 6.000000000000e-02
1.250000000000e-01 1.250000000000e-01 6.000000000000e-02
2.500000000000e-01 1.250000000000e-01 6.000000000000e-02
-2.500000000000e-01 2.500000000000e-01 6.000000000000e-02
-1.250000000000e-01 2.500000000000e-01 6.000000000000e-02
0.000000000000e+00 2.500000000000e-01 6.000000000000e-02
1.250000000000e-01 2.500000000000e-01 6.000000000000e-02
2.500000000000e-01 2.500000000000e-01 6.000000000000e-02
-2.500000000000e-01 -2.500000000000e-01 1.200000000000e-01
-1.250000000000e-01 -2.500000000000e-01 1.200000000000e-01
0.000000000000e+00 -2.500000000000e-01 1.200000000000e-01
1.250000000000e-01 -2.500000000000e-01 1.200000000000e-01
2.500000000000e-01 -2.500000000000e-01 1.200000000000e-01
-2.500000000000e-01 -1.250000000000e-01 1.200000000000e-01
-1.250000000000e-01 -1.250000000000e-01 1.200000000000e-01
0.000000000000e+00 -1.250000000000e-01 1.200000000000e-01
1.250000000000e-01 -1.250000000000e-01 1.200000000000e-01
2.500000000000e-01 -1.250000000000e-01 1.200000000000e-01
-2.500000000000e-01 0.000000000000e+00 1.200000000000e-01
-1.250000000000e-01 0.000000000000e+00 1.200000000000e-01
0.000000000000e+00 0.000000000000e+00 1.200000000000e-01
1.250000000000e-01 0.000000000000e+00 1.200000000000e-01
2.500000000000e-01 0.000000000000e+00 1.200000000000e-01
-2.500000000000e-01 1.250000000000e-01 1.200000000000e-01
-1.250000000000e-01 1.250000000000e-01 1.200000000000e-01
0.000000000000e+00 1.250000000000e-01 1.200000000000e-01
1.250000000000e-01 1.250000000000e-01 1.200000000000e-01
2.500000000000e-01 1.250000000000e-01 1.200000000000e-01
-2.500000000000e-01 2.500000000000e-01 1.200000000000e-01
-1.250000000000e-01 2.500000000000e-01 1.200000000000e-01
0.000000000000e+00 2.500000000000e-01 1.200000000000e-01
1.250000000000e-01 2.500000000000e-01 1.200000000000e-01
2.500000000000e-01 2.500000000000e-01 1.200000000000e-01
-2.500000000000e-01 -2.500000000000e-01 1.800000000000e-01
-1.250000000000e-01 -2.500000000000e-01 1.800000000000e-01
0.000000000000e+00 -2.500000000000e-01 1.800000000000e-01
1.250000000000e-01 -2.500000000000e-01 1.800000000000e-01
2.500000000000e-01 -2.500000000000e-01 1.800000000000e-01
-2.500000000000e-01 -1.250000000000e-01 1.800000000000e-01
-1.250000000000e-01 -1.250000000000e-01 1.800000000000e-01
0.000000000000e+00 -1.250000000000e-01 1.800000000000e-01
1.250000000000e-01 -1.250000000000e-01 1.800000000000e-01
2.500000000000e-01 -1.250000000000e-01 1.800000000000e-01
-2.500000000000e-01 0.000000000000e+00 1.800000000000e-01
-1.250000000000e-01 0.000000000000e+00 1.800000000000e-01
0.000000000000e+00 0.000000000000e+00 1.800000000000e-01
1.250000000000e-01 0.000000000000e+00 1.800000000000e-01
2.500000000000e-01 0.000000000000e+00 1.800000000000e-01
-2.500000000000e-01 1.250000000000e-01 1.800000000000e-01
-1.250000000000e-01 1.250000000000e-01 1.800000000000e-01
0.000000000000e+00 1.250000000000e-01 1.800000000000e-01
1.250000000000e-01 1.250000000000e-01 1.800000000000e-01
2.500000000000e-01 1.250000000000e-01 1.800000000000e-01
-2.500000000000e-01 2.500000000000e-01 1.800000000000e-01
-1.250000000000e-01 2.500000000000e-01 1.800000000000e-01
0.000000000000e+00 2.500000000000e-01 1.800000000000e-01
1.250000000000e-01 2.500000000000e-01 1.800000000000e-01
2.500000000000e-01 2.500000000000e-01 1.800000000000e-01
-2.500000000000e-01 -2.500000000000e-01 2.400000000000e-01
-1.250000000000e-01 -2.500000000000e-01 2.400000000000e-01
0.000000000000e+00 -2.500000000000e-01 2.400000000000e-01
1.250000000000e-01 -2.500000000000e-01 2.400000000000e-01
2.500000000000e-01 -2.500000000000e-01 2.400000000000e-01
-2.500000000000e-01 -1.250000000000e-01 2.400000000000e-01
-1.250000000000e-01 -1.250000000000e-01 2.400000000000e-01
0.000000000000e+00 -1.250000000000e-01 2.400000000000e-01
1.250000000000e-01 -1.250000000000e-01 2.400000000000e-01
2.500000000000e-01 -1.250000000000e-01 2.400000000000e-01
-2.500000000000e-01 0.000000000000e+00 2.400000000000e-01
-1.250000000000e-01 0.000000000000e+00 2.400000000000e-01
0.000000000000e+00 0.000000000000e+00 2.400000000000e-01
1.250000000000e-01 0.000000000000e+00 2.400000000000e-01
2.500000000000e-01 0.000000000000e+00 2.400000000000e-01
-2.500000000000e-01 1.250000000000e-01 2.400000000000e-01
-1.250000000000e-01 1.250000000000e-01 2.400000000000e-01
0.000000000000e+00 1.250000000000e-01 2.400000000000e-01
1.250000000000e-01 1.250000000000e-01 2.400000000000e-01
2.500000000000e-01 1.250000000000e-01 2.400000000000e-01
-2.500000000000e-01 2.500000000000e-01 2.400000000000e-01
-1.250000000000e-01 2.500000000000e-01 2.400000000000e-01
0.000000000000e+00 2.500000000000e-01 2.400000000000e-01
1.250000000000e-01 2.500000000000e-01 2.400000000000e-01
2.500000000000e-01 2.500000000000e-01 2.400000000000e-01
-2.500000036375e-01 -2.500000037960e-01 2.442377000333e-01
-1.250000022769e-01 -2.500000023440e-01 2.442377208923e-01
2.459736085242e-10 -2.499999991493e-01 2.442377318139e-01
1.250000027689e-01 -2.500000023442e-01 2.442377213640e-01
2.500000041295e-01 -2.500000037964e-01 2.442377009767e-01
-2.500000021853e-01 -1.250000024354e-01 2.442377207419e-01
-1.250000019852e-01 -1.250000021438e-01 2.442377417822e-01
2.460718920790e-10 -1.250000001306e-01 2.442377526820e-01
1.250000024773e-01 -1.250000021440e-01 2.442377422538e-01
2.500000026775e-01 -1.250000024358e-01 2.442377216853e-01
-2.499999989905e-01 8.751315093207e-11 2.442377315132e-01
-1.249999999718e-01 8.741429337458e-11 2.442377525316e-01
2.461703500381e-10 8.731549700503e-11 2.442377634295e-01
1.250000004641e-01 8.721687041472e-11 2.442377530033e-01
2.499999994828e-01 8.711831679533e-11 2.442377324566e-01
-2.500000021851e-01 1.250000026104e-01 2.442377209130e-01
-1.250000019850e-01 1.250000023187e-01 2.442377419532e-01
2.462692928193e-10 1.250000003052e-01 2.442377528530e-01
1.250000024775e-01 1.250000023185e-01 2.442377424249e-01
2.500000026776e-01 1.250000026100e-01 2.442377218563e-01
-2.500000036371e-01 2.500000039710e-01 2.442377003753e-01
-1.250000022765e-01 2.500000025188e-01 2.442377212343e-01
2.463684241834e-10 2.499999993240e-01 2.442377321559e-01
1.250000027693e-01 2.500000025186e-01 2.442377217060e-01
2.500000041299e-01 2.500000039706e-01 2.442377013187e-01
-2.500000129074e-01 -2.500000129877e-01 3.092377002837e-01
-1.250000106469e-01 -2.500000112121e-01 3.092377198283e-01
1.233363218895e-10 -2.500000074897e-01 3.092377298222e-01
1.250000108935e-01 -2.500000112123e-01 3.092377203000e-01
2.500000131541e-01 -2.500000129881e-01 3.092377012271e-01
-2.500000111316e-01 -1.250000107271e-01 3.092377196780e-01
-1.250000104913e-01 -1.250000105718e-01 3.092377390016e-01
1.234345775597e-10 -1.250000085568e-01 3.092377487937e-01
1.250000107382e-01 -1.250000105720e-01 3.092377394733e-01
2.500000113785e-01 -1.250000107275e-01 3.092377206213e-01
-2.500000074090e-01 4.305080883818e-11 3.092377295216e-01
-1.250000084761e-01 4.295193812281e-11 3.092377486434e-01
1.235330186276e-10 4.285313472417e-11 3.092377584701e-01
1.250000087232e-01 4.275452001764e-11 3.092377491151e-01
2.500000076561e-01 4.265597645774e-11 3.092377304649e-01
-2.500000111314e-01 1.250000108132e-01 3.092377198490e-01
-1.250000104911e-01 1.250000106577e-01 3.092377391726e-01
1.236319843946e-10 1.250000086425e-01 3.092377489647e-01
1.250000107384e-01 1.250000106575e-01 3.092377396443e-01
2.500000113787e-01 1.250000108128e-01 3.092377207923e-01
-2.500000129070e-01 2.500000130738e-01 3.092377006257e-01
-1.250000106465e-01 2.500000112980e-01 3.092377201703e-01
1.237311443856e-10 2.500000075754e-01 3.092377301642e-01
1.250000108939e-01 2.500000112978e-01 3.092377206420e-01
2.500000131545e-01 2.500000130734e-01 3.092377015691e-01
-2.500000201000e-01 -2.500000201021e-01 3.742377056081e-01
-1.250000173306e-01 -2.500000179101e-01 3.742377219955e-01
6.990991150345e-13 -2.500000135299e-01 3.742377294569e-01
1.250000173320e-01 -2.500000179103e-01 3.742377224672e-01
2.500000201014e-01 -2.500000201025e-01 3.742377065515e-01
-2.500000179078e-01 -1.250000173327e-01 3.742377218452e-01
-1.250000172806e-01 -1.250000172829e-01 3.742377373802e-01
7.973580519985e-13 -1.250000151759e-01 3.742377442044e-01
1.250000172822e-01 -1.250000172831e-01 3.742377378519e-01
2.500000179094e-01 -1.250000173331e-01 3.742377227886e-01
-2.500000135274e-01 -1.411515161846e-12 3.742377291562e-01
-1.250000151734e-01 -1.510382042089e-12 3.742377440541e-01
8.957818942958e-13 -1.609194288316e-12 3.742377506184e-01
1.250000151752e-01 -1.707795238564e-12 3.742377445258e-01
2.500000135291e-01 -1.806339725403e-12 3.742377300995e-01
-2.500000179076e-01 1.250000173299e-01 3.742377220162e-01
-1.250000172804e-01 1.250000172799e-01 3.742377375512e-01
9.947681261724e-13 1.250000151727e-01 3.742377443755e-01
1.250000172824e-01 1.250000172797e-01 3.742377380229e-01
2.500000179096e-01 1.250000173295e-01 3.742377229596e-01
-2.500000200996e-01 2.500000200993e-01 3.742377059501e-01
-1.250000173302e-01 2.500000179071e-01 3.742377223375e-01
1.093922694283e-12 2.500000135266e-01 3.742377297989e-01
1.250000173324e-01 2.500000179069e-01 3.742377228092e-01
2.500000201018e-01 2.500000200989e-01 3.742377068935e-01
-2.500000277837e-01 -2.500000277076e-01 4.392377120096e-01
-1.250000220960e-01 -2.500000249881e-01 4.392377248819e-01
-1.219384748923e-10 -2.500000199151e-01 4.392377293701e-01
1.250000218521e-01 -2.500000249883e-01 4.392377253536e-01
2.500000275398e-01 -2.500000277080e-01 4.392377129530e-01
-2.500000250640e-01 -1.250000220200e-01 4.392377247316e-01
-1.250000220271e-01 -1.250000219512e-01 4.392377358798e-01
-1.218402006111e-10 -1.250000195841e-01 4.392377391626e-01
1.250000217834e-01 -1.250000219514e-01 4.392377363515e-01
2.500000248203e-01 -1.250000220203e-01 4.392377256750e-01
-2.500000199907e-01 -4.587396817366e-11 4.392377290694e-01
-1.250000196598e-01 -4.597282683128e-11 4.392377390123e-01
-1.217418002641e-10 -4.607164652529e-11 4.392377416422e-01
1.250000194163e-01 -4.617023818620e-11 4.392377394840e-01
2.500000197473e-01 -4.626878451530e-11 4.392377300128e-01
-2.500000250638e-01 1.250000219282e-01 4.392377249026e-01
-1.250000220269e-01 1.250000218592e-01 4.392377360508e-01
-1.216427877135e-10 1.250000194919e-01 4.392377393336e-01
1.250000217836e-01 1.250000218590e-01 4.392377365225e-01
2.500000248205e-01 1.250000219278e-01 4.392377258460e-01
-2.500000277833e-01 2.500000276159e-01 4.392377123516e-01
-1.250000220956e-01 2.500000248961e-01 4.392377252239e-01
-1.215436491245e-10 2.500000198229e-01 4.392377297121e-01
1.250000218525e-01 2.500000248959e-01 4.392377256956e-01
2.500000275402e-01 2.500000276155e-01 4.392377132950e-01
-2.500000343109e-01 -2.500000341566e-01 5.042377134500e-01
-1.250000254276e-01 -2.500000305207e-01 5.042377236382e-01
-2.445763131519e-10 -2.500000245885e-01 5.042377257249e-01
1.250000249385e-01 -2.500000305209e-01 5.042377241098e-01
2.500000338217e-01 -2.500000341570e-01 5.042377143934e-01
-2.500000306748e-01 -1.250000252734e-01 5.042377234878e-01
-1.250000247888e-01 -1.250000246348e-01 5.042377310771e-01
-2.444780647815e-10 -1.250000216983e-01 5.042377314568e-01
1.250000242999e-01 -1.250000246350e-01 5.042377315488e-01
2.500000301858e-01 -1.250000252738e-01 5.042377244312e-01
-2.500000247423e-01 -9.033650805377e-11 5.042377254242e-01
-1.250000218522e-01 -9.043538374515e-11 5.042377313065e-01
-2.443796850443e-10 -9.053420892263e-11 5.042377308260e-01
1.250000213634e-01 -9.063279056969e-11 5.042377317782e-01
2.500000242536e-01 -9.073132478352e-11 5.042377263676e-01
-2.500000306746e-01 1.250000250927e-01 5.042377236588e-01
-1.250000247886e-01 1.250000244539e-01 5.042377312481e-01
-2.442806467160e-10 1.250000215172e-01 5.042377316279e-01
1.250000243001e-01 1.250000244537e-01 5.042377317198e-01
2.500000301860e-01 1.250000250923e-01 5.042377246022e-01
-2.500000343105e-01 2.500000339759e-01 5.042377137920e-01
-1.250000254273e-01 2.500000303398e-01 5.042377239802e-01
-2.441814819489e-10 2.500000244074e-01 5.042377260669e-01
1.250000249389e-01 2.500000303396e-01 5.042377244519e-01
2.500000338221e-01 2.500000339755e-01 5.042377147354e-01
CELLS 128 1152
8 0 1 6 5 25 26 31 30
8 1 2 7 6 26 27 32 31
8 2 3 8 7 27 28 33 32
8 3 4 9 8 28 29 34 33
8 5 6 11 10 30 31 36 35
8 6 7 12 11 31 32 37 36
8 7 8 13 12 32 33 38 37
8 8 9 14 13 33 34 39 38
8 10 11 16 15 35 36 41 40
8 11 12 17 16 36 37 42 41
8 12 13 18 17 37 38 43 42
8 13 14 19 18 38 39 44 43
8 15 16 21 20 40 41 46 45
8 16 17 22 21 41 42 47 46
8 17 18 23 22 42 43 48 47
8 18 19 24 23 43 44 49 48
8 25 26 31 30 50 51 56 55
8 26 27 32 31 51 52 57 56
8 27 28 33 32 52 53 58 57
8 28 29 34 33 53 54 59 58
8 30 31 36 35 55 56 61 60
8 31 32 37 36 56 57 62 61
8 32 33 38 37 57 58 63 62
8 33 34 39 38 58 59 64 63
8 35 36 41 40 60 61 66 65
8 36 37 42 41 61 62 67 66
8 37 38 43 42 62 63 68 67
8 38 39 44 43 63 64 69 68
8 40 41 46 45 65 66 71 70
8 41 42 47 46 66 67 72 71
8 42 43 48 47 67 68 73 72
8 43 44 49 48 68 69 74 73
8 50 51 56 55 75 76 81 80
8 51 52 57 56 76 77 82 81
8 52 53 58 57 77 78 83 82
8 53 54 59 58 78 79 84 83
8 55 56 61 60 80 81 86 85
8 56 57 62 61 81 82 87 86
8 57 58 63 62 82 83 88 87
8 58 59 64 63 83 84 89 88
8 60 61 66 65 85 86 91 90
8 61 62 67 66 86 87 92 91
8 62 63 68 67 87 88 93 92
8 63 64 69 68 88 89 94 93
8 65 66 71 70 90 91 96 95
8 66 67 72 71 91 92 97 96
8 67 68 73 72 92 93 98 97
8 68 69 74 73 93 94 99 98
8 75 76 81 80 100 101 106 105
8 76 77 82 81 101 102 107 106
8 77 78 83 82 102 103 108 107
8 78 79 84 83 103 104 109 108
8 80 81 86 85 105 106 111 110
8 81 82 87 86 106 107 112 111
8 82 83 88 87 107 108 113 112
8 83 84 89 88 108 109 114 113
8 85 86 91 90 110 111 116 115
8 86 87 92 91 111 112 117 116
8 87 88 93 92 112 113 118 117
8 88 89 94 93 113 114 119 118
8 90 91 96 95 115 116 121 120
8 91 92 97 96 116 117 122 121
8 92 93 98 97 117 118 123 122
8 93 94 99 98 118 119 124 123
8 125 126 131 130 150 151 156 155
8 126 127 132 131 151 152 157 156
8 127 128 133 132 152 153 158 157
8 128 129 134 133 153 154 159 158
8 130 131 136 135 155 156 161 160
8 131 132 137 136 156 157 162 161
8 132 133 138 137 157 158 163 162
8 133 134 139 138 158 159 164 163
8 135 136 141 140 160 161 166 165
8 136 137 142 141 161 162 167 166
8 137 138 143 142 162 163 168 167
8 138 139 144 143 163 164 169 168
8 140 141 146 145 165 166 171 170
8 141 142 147 146 166 167 172 171
8 142 143 148 147 167 168 173 172
8 143 144 149 148 168 169 174 173
8 150 151 156 155 175 176 181 180
8 151 152 157 156 176 177 182 181
8 152 153 158 157 177 178 183 182
8 153 154 159 158 178 179 184 183
8 155 156 161 160 180 181 186 185
8 156 157 162 161 181 182 187 186
8 157 158 163 162 182 183 188 187
8 158 159 164 163 183 184 189 188
8 160 161 166 165 185 186 191 190
8 161 162 167 166 186 187 192 191
8 162 163 168 167 187 188 193 192
8 163 164 169 168 188 189 194 193
8 165 166 171 170 190 191 196 195
8 166 167 172 171 191 192 197 196
8 167 168 173 172 192 193 198 197
8 168 169 174 173 193 194 199 198
8 175 176 181 180 200 201 206 205
8 176 177 182 181 201 202 207 206
8 177 178 183 182 202 203 208 207
8 178 179 184 183 203 204 209 208
8 180 181 186 185 205 206 211 210
8 181 182 187 186 206 207 212 211
8 182 183 188 187 207 208 213 212
8 183 184 189 188 208 209 214 213
8 185 186 191 190 210 211 216 215
8 186 187 192 191 211 212 217 216
8 187 188 193 192 212 213 218 217
8 188 189 194 193 213 214 219 218
8 190 191 196 195 215 216 221 220
8 191 192 197 196 216 217 222 221
8 192 193 198 197 217 218 223 222
8 193 194 199 198 218 219 224 223
8 200 201 206 205 225 226 231 230
8 201 202 207 206 226 227 232 231
8 202 203 208 207 227 228 233 232
8 203 204 209 208 228 229 234 233
8 205 206 211 210 230 231 236 235
8 206 207 212 211 231 232 237 236
8 207 208 213 212 232 233 238 237
8 208 209 214 213 233 234 239 238
8 210 211 216 215 235 236 241 240
8 211 212 217 216 236 237 242 241
8 212 213 218 217 237 238 243 242
8 213 214 219 218 238 239 244 243
8 215 216 221 220 240 241 246 245
8 216 217 222 221 241 242 247 246
8 217 218 223 222 242 243 248 247
8 218 219 224 223 243 244 249 248
CELL_TYPES 128
12
12
12
12
12
12
12
12
12
12
12
12
12
12
12
12
12
12
12
12
12
12
12
12
12
12
12
12
12
12
12
12
12
12
12
12
12
12
12
12
12
12
12
12
12
12
12
12
12
12
12
12
12
12
12
12
12
12
12
12
12
12
12
12
12
12
12
12
12
12
12
12
12
12
12
12
12
12
12
12
12
12
12
12
12
12
12
12
12
12
12
12
12
12
12
12
12
12
12
12
12
12
12
12
12
12
12
12
12
12
12
12
12
12
12
12
12
12
12
12
12
12
12
12
12
12
12
12
POINT_DATA 250
VECTORS displacement float
0.000000000000e+00 0.000000000000e+00 0.000000000000e+00
0.000000000000e+00 0.000000000000e+00 0.000000000000e+00
0.000000000000e+00 0.000000000000e+00 0.000000000000e+00
0.000000000000e+00 0.000000000000e+00 0.000000000000e+00
0.000000000000e+00 0.000000000000e+00 0.000000000000e+00
0.000000000000e+00 0.000000000000e+00 0.000000000000e+00
0.000000000000e+00 0.000000000000e+00 0.000000000000e+00
0.000000000000e+00 0.000000000000e+00 0.000000000000e+00
0.000000000000e+00 0.000000000000e+00 0.000000000000e+00
0.000000000000e+00 0.000000000000e+00 0.000000000000e+00
0.000000000000e+00 0.000000000000e+00 0.000000000000e+00
0.000000000000e+00 0.000000000000e+00 0.000000000000e+00
0.000000000000e+00 0.000000000000e+00 0.000000000000e+00
0.000000000000e+00 0.000000000000e+00 0.000000000000e+00
0.000000000000e+00 0.000000000000e+00 0.000000000000e+00
0.000000000000e+00 0.000000000000e+00 0.000000000000e+00
0.000000000000e+00 0.000000000000e+00 0.000000000000e+00
0.000000000000e+00 0.000000000000e+00 0.000000000000e+00
0.000000000000e+00 0.000000000000e+00 0.000000000000e+00
0.000000000000e+00 0.000000000000e+00 0.000000000000e+00
0.000000000000e+00 0.000000000000e+00 0.000000000000e+00
0.000000000000e+00 0.000000000000e+00 0.000000000000e+00
0.000000000000e+00 0.000000000000e+00 0.000000000000e+00
0.000000000000e+00 0.000000000000e+00 0.000000000000e+00
0.000000000000e+00 0.000000000000e+00 0.000000000000e+00
0.000000000000e+00 0.000000000000e+00 0.000000000000e+00
0.000000000000e+00 0.000000000000e+00 0.000000000000e+00
0.000000000000e+00 0.000000000000e+00 0.000000000000e+00
0.000000000000e+00 0.000000000000e+00 0.000000000000e+00
0.000000000000e+00 0.000000000000e+00 0.000000000000e+00
0.000000000000e+00 0.000000000000e+00 0.000000000000e+00
0.000000000000e+00 0.000000000000e+00 0.000000000000e+00
0.000000000000e+00 0.000000000000e+00 0.000000000000e+00
0.000000000000e+00 0.000000000000e+00 0.000000000000e+00
0.000000000000e+00 0.000000000000e+00 0.000000000000e+00
0.000000000000e+00 0.000000000000e+00 0.000000000000e+00
0.000000000000e+00 0.000000000000e+00 0.000000000000e+00
0.000000000000e+00 0.000000000000e+00 0.000000000000e+00
0.000000000000e+00 0.000000000000e+00 0.000000000000e+00
0.000000000000e+00 0.000000000000e+00 0.000000000000e+00
0.000000000000e+00 0.000000000000e+00 0.000000000000e+00
0.000000000000e+00 0.000000000000e+00 0.000000000000e+00
0.000000000000e+00 0.000000000000e+00 0.000000000000e+00
0.000000000000e+00 0.000000000000e+00 0.000000000000e+00
0.000000000000e+00 0.000000000000e+00 0.000000000000e+00
0.000000000000e+00 0.000000000000e+00 0.000000000000e+00
0.000000000000e+00 0.000000000000e+00 0.000000000000e+00
0.000000000000e+00 0.000000000000e+00 0.000000000000e+00
0.000000000000e+00 0.000000000000e+00 0.000000000000e+00
0.000000000000e+00 0.000000000000e+00 0.000000000000e+00
0.000000000000e+00 0.000000000000e+00 0.000000000000e+00
0.000000000000e+00 0.000000000000e+00 0.000000000000e+00
0.000000000000e+00 0.000000000000e+00 0.000000000000e+00
0.000000000000e+00 0.000000000000e+00 0.000000000000e+00
0.000000000000e+00 0.000000000000e+00 0.000000000000e+00
0.000000000000e+00 0.000000000000e+00 0.000000000000e+00
0.000000000000e+00 0.000000000000e+00 0.000000000000e+00
0.000000000000e+00 0.000000000000e+00 0.000000000000e+00
0.000000000000e+00 0.000000000000e+00 0.000000000000e+00
0.000000000000e+00 0.000000000000e+00 0.000000000000e+00
0.000000000000e+00 0.000000000000e+00 0.000000000000e+00
0.000000000000e+00 0.000000000000e+00 0.000000000000e+00
0.000000000000e+00 0.000000000000e+00 0.000000000000e+00
0.000000000000e+00 0.000000000000e+00 0.000000000000e+00
0.000000000000e+00 0.000000000000e+00 0.000000000000e+00
0.000000000000e+00 0.000000000000e+00 0.000000000000e+00
0.000000000000e+00 0.000000000000e+00 0.000000000000e+00
0.000000000000e+00 0.000000000000e+00 0.000000000000e+00
0.000000000000e+00 0.000000000000e+00 0.000000000000e+00
0.000000000000e+00 0.000000000000e+00 0.000000000000e+00
0.000000000000e+00 0.000000000000e+00 0.000000000000e+00
0.000000000000e+00 0.000000000000e+00 0.000000000000e+00
0.000000000000e+00 0.000000000000e+00 0.000000000000e+00
0.000000000000e+00 0.000000000000e+00 0.000000000000e+00
0.000000000000e+00 0.000000000000e+00 0.000000000000e+00
0.000000000000e+00 0.000000000000e+00 0.000000000000e+00
0.000000000000e+00 0.000000000000e+00 0.000000000000e+00
0.000000000000e+00 0.000000000000e+00 0.000000000000e+00
0.000000000000e+00 0.000000000000e+00 0.000000000000e+00
0.000000000000e+00 0.000000000000e+00 0.000000000000e+00
0.000000000000e+00 0.000000000000e+00 0.000000000000e+00
0.000000000000e+00 0.000000000000e+00 0.000000000000e+00
0.000000000000e+00 0.000000000000e+00 0.000000000000e+00
0.000000000000e+00 0.000000000000e+00 0.000000000000e+00
0.000000000000e+00 0.000000000000e+00 0.000000000000e+00
0.000000000000e+00 0.000000000000e+00 0.000000000000e+00
0.000000000000e+00 0.000000000000e+00 0.000000000000e+00
0.000000000000e+00 0.000000000000e+00 0.000000000000e+00
0.000000000000e+00 0.000000000000e+00 0.000000000000e+00
0.000000000000e+00 0.000000000000e+00 0.000000000000e+00
0.000000000000e+00 0.000000000000e+00 0.000000000000e+00
0.000000000000e+00 0.000000000000e+00 0.000000000000e+00
0.000000000000e+00 0.000000000000e+00 0.000000000000e+00
0.000000000000e+00 0.000000000000e+00 0.000000000000e+00
0.000000000000e+00 0.000000000000e+00 0.000000000000e+00
0.000000000000e+00 0.000000000000e+00 0.000000000000e+00
0.000000000000e+00 0.000000000000e+00 0.000000000000e+00
0.000000000000e+00 0.000000000000e+00 0.000000000000e+00
0.000000000000e+00 0.000000000000e+00 0.000000000000e+00
0.000000000000e+00 0.000000000000e+00 0.000000000000e+00
0.000000000000e+00 0.000000000000e+00 0.000000000000e+00
0.000000000000e+00 0.000000000000e+00 0.000000000000e+00
0.000000000000e+00 0.000000000000e+00 0.000000000000e+00
0.000000000000e+00 0.000000000000e+00 0.000000000000e+00
0.000000000000e+00 0.000000000000e+00 0.000000000000e+00
0.000000000000e+00 0.000000000000e+00 0.000000000000e+00
0.000000000000e+00 0.000000000000e+00 0.000000000000e+00
0.000000000000e+00 0.000000000000e+00 0.000000000000e+00
0.000000000000e+00 0.000000000000e+00 0.000000000000e+00
0.000000000000e+00 0.000000000000e+00 0.000000000000e+00
0.000000000000e+00 0.000000000000e+00 0.000000000000e+00
0.000000000000e+00 0.000000000000e+00 0.000000000000e+00
0.000000000000e+00 0.000000000000e+00 0.000000000000e+00
0.000000000000e+00 0.000000000000e+00 0.000000000000e+00
0.000000000000e+00 0.000000000000e+00 0.000000000000e+00
0.000000000000e+00 0.000000000000e+00 0.000000000000e+00
0.000000000000e+00 0.000000000000e+00 0.000000000000e+00
0.000000000000e+00 0.000000000000e+00 0.000000000000e+00
0.000000000000e+00 0.000000000000e+00 0.000000000000e+00
0.000000000000e+00 0.000000000000e+00 0.000000000000e+00
0.000000000000e+00 0.000000000000e+00 0.000000000000e+00
0.000000000000e+00 0.000000000000e+00 0.000000000000e+00
0.000000000000e+00 0.000000000000e+00 0.000000000000e+00
0.000000000000e+00 0.000000000000e+00 0.000000000000e+00
0.000000000000e+00 0.000000000000e+00 0.000000000000e+00
-3.637520530341e-09 -3.795981070523e-09 -1.076229996669e-02
-2.276924823573e-09 -2.343966765930e-09 -1.076227910772e-02
2.459736085242e-10 8.506738689153e-10 -1.076226818613e-02
2.768871264431e-09 -2.344163634686e-09 -1.076227863603e-02
4.129466205145e-09 -3.796374078091e-09 -1.076229902333e-02
-2.185309614804e-09 -2.435385459493e-09 -1.076227925805e-02
-1.985164402970e-09 -2.143821837170e-09 -1.076225821784e-02
2.460718920790e-10 -1.306089438893e-10 -1.076224731804e-02
2.477307207216e-09 -2.144018762932e-09 -1.076225774615e-02
2.677451517403e-09 -2.435778933202e-09 -1.076227831469e-02
1.009528128858e-09 8.751315093207e-11 -1.076226848680e-02
2.824558472572e-11 8.741429337458e-11 -1.076224746837e-02
2.461703500381e-10 8.731549700503e-11 -1.076223657050e-02
4.640941126985e-10 8.721687041472e-11 -1.076224699669e-02
-5.171892652723e-10 8.711831679533e-11 -1.076226754344e-02
-2.185111987729e-09 2.610411482473e-09 -1.076227908704e-02
-1.984966803570e-09 2.318650070154e-09 -1.076225804683e-02
2.462692928193e-10 3.052395724541e-10 -1.076224714703e-02
2.477504418033e-09 2.318452149555e-09 -1.076225757514e-02
2.677648711628e-09 2.610015274443e-09 -1.076227814368e-02
-3.637125018697e-09 3.971006810421e-09 -1.076229962467e-02
-2.276529496048e-09 2.518794680872e-09 -1.076227876570e-02
2.463684241834e-10 -6.760435434285e-10 -1.076226784411e-02
2.769265568998e-09 2.518596699382e-09 -1.076227829402e-02
4.129860326192e-09 3.970610128492e-09 -1.076229868131e-02
-1.290739827864e-08 -1.298768410297e-08 -1.076229971631e-02
-1.064685051095e-08 -1.121209643901e-08 -1.076228017170e-02
1.233363218895e-10 -7.489667622427e-09 -1.076227017778e-02
1.089352276642e-08 -1.121229326639e-08 -1.076227970002e-02
1.315407001267e-08 -1.298807705052e-08 -1.076229877295e-02
-1.113161402207e-08 -1.072713628538e-08 -1.076228032204e-02
-1.049129273960e-08 -1.057177531886e-08 -1.076226099841e-02
1.234345775597e-10 -8.556818286369e-09 -1.076225120626e-02
1.073816131899e-08 -1.057197234162e-08 -1.076226052672e-02
1.137848192194e-08 -1.072752990126e-08 -1.076227937868e-02
-7.408988147094e-09 4.305080883818e-11 -1.076227047845e-02
-8.476138605110e-09 4.295193812281e-11 -1.076225135660e-02
1.235330186276e-10 4.285313472417e-11 -1.076224152995e-02
8.723204028708e-09 4.275452001764e-11 -1.076225088492e-02
7.656052930854e-09 4.265597645774e-11 -1.076226953508e-02
-1.113141639215e-08 1.081323776309e-08 -1.076228015103e-02
-1.049109518588e-08 1.065767898389e-08 -1.076226082740e-02
1.236319843946e-10 8.642524333516e-09 -1.076225103525e-02
1.073835857883e-08 1.065748117001e-08 -1.076226035571e-02
1.137867910878e-08 1.081284171584e-08 -1.076227920767e-02
-1.290700276738e-08 1.307378538623e-08 -1.076229937429e-02
-1.064645524645e-08 1.129799986370e-08 -1.076227982968e-02
1.237311443856e-10 7.575373438086e-09 -1.076226983576e-02
1.089391714325e-08 1.129780185287e-08 -1.076227935800e-02
1.315446414194e-08 1.307338866817e-08 -1.076229843093e-02
-2.009997049330e-08 -2.010208149983e-08 -1.076229439189e-02
-1.733059594801e-08 -1.791014045699e-08 -1.076227800448e-02
6.990991150345e-13 -1.352985930908e-08 -1.076227054315e-02
1.733199395972e-08 -1.791033726169e-08 -1.076227753279e-02
2.010136801785e-08 -2.010247442671e-08 -1.076229344853e-02
-1.790783286187e-08 -1.733270684382e-08 -1.076227815481e-02
-1.728059361347e-08 -1.728290131783e-08 -1.076226261978e-02
7.973580519985e-13 -1.517590945194e-08 -1.076225579556e-02
1.728218794502e-08 -1.728309845574e-08 -1.076226214810e-02
1.790942651432e-08 -1.733310060948e-08 -1.076227721145e-02
-1.352735469779e-08 -1.411515161846e-12 -1.076227084382e-02
-1.517340461897e-08 -1.510382042089e-12 -1.076225594590e-02
8.957818942958e-13 -1.609194288316e-12 -1.076224938155e-02
1.517519575399e-08 -1.707795238564e-12 -1.076225547421e-02
1.352914514942e-08 -1.806339725403e-12 -1.076226990046e-02
-1.790763523116e-08 1.732988374734e-08 -1.076227798380e-02
-1.728039610458e-08 1.727988041333e-08 -1.076226244878e-02
9.947681261724e-13 1.517269091263e-08 -1.076225562455e-02
1.728238525504e-08 1.727968272198e-08 -1.076226197709e-02
1.790962370272e-08 1.732948786025e-08 -1.076227704044e-02
-2.009957498303e-08 2.009925822520e-08 -1.076229404987e-02
-1.733020074509e-08 1.790711930148e-08 -1.076227766246e-02
1.093922694283e-12 1.352664052420e-08 -1.076227020113e-02
1.733238840095e-08 1.790692127636e-08 -1.076227719078e-02
2.010176214882e-08 2.009886149801e-08 -1.076229310651e-02
-2.778370623061e-08 -2.770764221618e-08 -1.076228799038e-02
-2.209601719690e-08 -2.498808276038e-08 -1.076227511808e-02
-1.219384748923e-10 -1.991506557530e-08 -1.076227062994e-02
2.185214031561e-08 -2.498827972007e-08 -1.076227464639e-02
2.753982923324e-08 -2.770803544760e-08 -1.076228704701e-02
-2.506395013215e-08 -2.201995299679e-08 -1.076227526841e-02
-2.202705317608e-08 -2.195118581115e-08 -1.076226412019e-02
-1.218402006111e-10 -1.958408864614e-08 -1.076226083737e-02
2.178337263658e-08 -2.195138306271e-08 -1.076226364851e-02
2.482026927831e-08 -2.202034692402e-08 -1.076227432505e-02
-1.999073591151e-08 -4.587396817366e-11 -1.076227093061e-02
-1.965975886711e-08 -4.597282683128e-11 -1.076226098771e-02
-1.217418002641e-10 -4.607164652529e-11 -1.076225835782e-02
1.941627507270e-08 -4.617023818620e-11 -1.076226051602e-02
1.974725177035e-08 -4.626878451530e-11 -1.076226998725e-02
-2.506375256449e-08 2.192820509169e-08 -1.076227509740e-02
-2.202685571204e-08 2.185924010340e-08 -1.076226394918e-02
-1.216427877135e-10 1.949194528482e-08 -1.076226066636e-02
2.178356999807e-08 2.185904253558e-08 -1.076226347750e-02
2.482046652547e-08 2.192780937816e-08 -1.076227415404e-02
-2.778331083556e-08 2.761589426921e-08 -1.076228764836e-02
-2.209562205506e-08 2.489613693566e-08 -1.076227477606e-02
-1.215436491245e-10 1.982292209045e-08 -1.076227028792e-02
2.185253482087e-08 2.489593907132e-08 -1.076227430437e-02
2.754022348752e-08 2.761549785872e-08 -1.076228670499e-02
-3.431085523679e-08 -3.415661615817e-08 -1.076228655000e-02
-2.542764845065e-08 -3.052071622457e-08 -1.076227636184e-02
-2.445763131519e-10 -2.458850159234e-08 -1.076227427512e-02
2.493849635323e-08 -3.052091335251e-08 -1.076227589016e-02
3.382170361935e-08 -3.415700974325e-08 -1.076228560663e-02
-3.067475861861e-08 -2.527340904809e-08 -1.076227651218e-02
-2.478881359178e-08 -2.463477102596e-08 -1.076226892293e-02
-2.444780647815e-10 -2.169831431504e-08 -1.076226854315e-02
2.429985778838e-08 -2.463496839257e-08 -1.076226845125e-02
3.018580309273e-08 -2.527380316234e-08 -1.076227556881e-02
-2.474234691645e-08 -9.033650805377e-11 -1.076227457579e-02
-2.185215971873e-08 -9.043538374515e-11 -1.076226869349e-02
-2.443796850443e-10 -9.053420892263e-11 -1.076226917404e-02
2.136340059412e-08 -9.063279056969e-11 -1.076226822180e-02
2.425358800559e-08 -9.073132478352e-11 -1.076227363242e-02
-3.067456113531e-08 2.509273621687e-08 -1.076227634117e-02
-2.478861617373e-08 2.445390037752e-08 -1.076226875192e-02
-2.442806467160e-10 2.151724598974e-08 -1.076226837214e-02
2.430005519674e-08 2.445370293105e-08 -1.076226828024e-02
3.018600041879e-08 2.509234070488e-08 -1.076227539780e-02
-3.431045997991e-08 3.397594348912e-08 -1.076228620798e-02
-2.542725337988e-08 3.033984567310e-08 -1.076227601982e-02
-2.441814819489e-10 2.440743333427e-08 -1.076227393310e-02
2.493889094327e-08 3.033964799697e-08 -1.076227554814e-02
3.382209802448e-08 3.397554746073e-08 -1.076228526462e-02
SCALARS displacement_magnitude float 1
LOOKUP_TABLE default
0.000000000000e+00
0.000000000000e+00
0.000000000000e+00
0.000000000000e+00
0.000000000000e+00
0.000000000000e+00
0.000000000000e+00
0.000000000000e+00
0.000000000000e+00
0.000000000000e+00
0.000000000000e+00
0.000000000000e+00
0.000000000000e+00
0.000000000000e+00
0.000000000000e+00
0.000000000000e+00
0.000000000000e+00
0.000000000000e+00
0.000000000000e+00
0.000000000000e+00
0.000000000000e+00
0.000000000000e+00
0.000000000000e+00
0.000000000000e+00
0.000000000000e+00
0.000000000000e+00
0.000000000000e+00
0.000000000000e+00
0.000000000000e+00
0.000000000000e+00
0.000000000000e+00
0.000000000000e+00
0.000000000000e+00
0.000000000000e+00
0.000000000000e+00
0.000000000000e+00
0.000000000000e+00
0.000000000000e+00
0.000000000000e+00
0.000000000000e+00
0.000000000000e+00
0.000000000000e+00
0.000000000000e+00
0.000000000000e+00
0.000000000000e+00
0.000000000000e+00
0.000000000000e+00
0.000000000000e+00
0.000000000000e+00
0.000000000000e+00
0.000000000000e+00
0.000000000000e+00
0.000000000000e+00
0.000000000000e+00
0.000000000000e+00
0.000000000000e+00
0.000000000000e+00
0.000000000000e+00
0.000000000000e+00
0.000000000000e+00
0.000000000000e+00
0.000000000000e+00
0.000000000000e+00
0.000000000000e+00
0.000000000000e+00
0.000000000000e+00
0.000000000000e+00
0.000000000000e+00
0.000000000000e+00
0.000000000000e+00
0.000000000000e+00
0.000000000000e+00
0.000000000000e+00
0.000000000000e+00
0.000000000000e+00
0.000000000000e+00
0.000000000000e+00
0.000000000000e+00
0.000000000000e+00
0.000000000000e+00
0.000000000000e+00
0.000000000000e+00
0.000000000000e+00
0.000000000000e+00
0.000000000000e+00
0.000000000000e+00
0.000000000000e+00
0.000000000000e+00
0.000000000000e+00
0.000000000000e+00
0.000000000000e+00
0.000000000000e+00
0.000000000000e+00
0.000000000000e+00
0.000000000000e+00
0.000000000000e+00
0.000000000000e+00
0.000000000000e+00
0.000000000000e+00
0.000000000000e+00
0.000000000000e+00
0.000000000000e+00
0.000000000000e+00
0.000000000000e+00
0.000000000000e+00
0.000000000000e+00
0.000000000000e+00
0.000000000000e+00
0.000000000000e+00
0.000000000000e+00
0.000000000000e+00
0.000000000000e+00
0.000000000000e+00
0.000000000000e+00
0.000000000000e+00
0.000000000000e+00
0.000000000000e+00
0.000000000000e+00
0.000000000000e+00
0.000000000000e+00
0.000000000000e+00
0.000000000000e+00
0.000000000000e+00
0.000000000000e+00
0.000000000000e+00
1.076229996669e-02
1.076227910772e-02
1.076226818613e-02
1.076227863603e-02
1.076229902333e-02
1.076227925805e-02
1.076225821784e-02
1.076224731804e-02
1.076225774615e-02
1.076227831469e-02
1.076226848680e-02
1.076224746837e-02
1.076223657050e-02
1.076224699669e-02
1.076226754344e-02
1.076227908704e-02
1.076225804683e-02
1.076224714703e-02
1.076225757514e-02
1.076227814368e-02
1.076229962467e-02
1.076227876570e-02
1.076226784411e-02
1.076227829402e-02
1.076229868131e-02
1.076229971633e-02
1.076228017171e-02
1.076227017778e-02
1.076227970003e-02
1.076229877296e-02
1.076228032205e-02
1.076226099842e-02
1.076225120626e-02
1.076226052673e-02
1.076227937869e-02
1.076227047845e-02
1.076225135660e-02
1.076224152995e-02
1.076225088492e-02
1.076226953509e-02
1.076228015104e-02
1.076226082741e-02
1.076225103526e-02
1.076226035572e-02
1.076227920768e-02
1.076229937431e-02
1.076227982970e-02
1.076226983576e-02
1.076227935801e-02
1.076229843095e-02
1.076229439193e-02
1.076227800451e-02
1.076227054316e-02
1.076227753282e-02
1.076229344857e-02
1.076227815484e-02
1.076226261981e-02
1.076225579557e-02
1.076226214813e-02
1.076227721148e-02
1.076227084383e-02
1.076225594591e-02
1.076224938155e-02
1.076225547422e-02
1.076226990046e-02
1.076227798383e-02
1.076226244880e-02
1.076225562456e-02
1.076226197712e-02
1.076227704047e-02
1.076229404991e-02
1.076227766249e-02
1.076227020114e-02
1.076227719080e-02
1.076229310655e-02
1.076228799045e-02
1.076227511813e-02
1.076227062996e-02
1.076227464644e-02
1.076228704708e-02
1.076227526846e-02
1.076226412024e-02
1.076226083739e-02
1.076226364855e-02
1.076227432510e-02
1.076227093063e-02
1.076226098772e-02
1.076225835782e-02
1.076226051604e-02
1.076226998727e-02
1.076227509745e-02
1.076226394923e-02
1.076226066638e-02
1.076226347754e-02
1.076227415409e-02
1.076228764843e-02
1.076227477611e-02
1.076227028794e-02
1.076227430442e-02
1.076228670506e-02
1.076228655011e-02
1.076227636192e-02
1.076227427515e-02
1.076227589023e-02
1.076228560674e-02
1.076227651225e-02
1.076226892299e-02
1.076226854317e-02
1.076226845130e-02
1.076227556888e-02
1.076227457582e-02
1.076226869351e-02
1.076226917404e-02
1.076226822182e-02
1.076227363245e-02
1.076227634124e-02
1.076226875198e-02
1.076226837216e-02
1.076226828029e-02
1.076227539787e-02
1.076228620809e-02
1.076227601990e-02
1.076227393313e-02
1.076227554821e-02
1.076228526472e-02
CELL_DATA 128
SCALARS displacement_magnitude float 1
LOOKUP_TABLE default
0.000000000000e+00
0.000000000000e+00
0.000000000000e+00
0.000000000000e+00
0.000000000000e+00
0.000000000000e+00
0.000000000000e+00
0.000000000000e+00
0.000000000000e+00
0.000000000000e+00
0.000000000000e+00
0.000000000000e+00
0.000000000000e+00
0.000000000000e+00
0.000000000000e+00
0.000000000000e+00
0.000000000000e+00
0.000000000000e+00
0.000000000000e+00
0.000000000000e+00
0.000000000000e+00
0.000000000000e+00
0.000000000000e+00
0.000000000000e+00
0.000000000000e+00
0.000000000000e+00
0.000000000000e+00
0.000000000000e+00
0.000000000000e+00
0.000000000000e+00
0.000000000000e+00
0.000000000000e+00
0.000000000000e+00
0.000000000000e+00
0.000000000000e+00
0.000000000000e+00
0.000000000000e+00
0.000000000000e+00
0.000000000000e+00
0.000000000000e+00
0.000000000000e+00
0.000000000000e+00
0.000000000000e+00
0.000000000000e+00
0.000000000000e+00
0.000000000000e+00
0.000000000000e+00
0.000000000000e+00
0.000000000000e+00
0.000000000000e+00
0.000000000000e+00
0.000000000000e+00
0.000000000000e+00
0.000000000000e+00
0.000000000000e+00
0.000000000000e+00
0.000000000000e+00
0.000000000000e+00
0.000000000000e+00
0.000000000000e+00
0.000000000000e+00
0.000000000000e+00
0.000000000000e+00
0.000000000000e+00
1.076227971985e-02
1.076226442299e-02
1.076226418714e-02
1.076227901233e-02
1.076226457332e-02
1.076224933325e-02
1.076224909740e-02
1.076226386580e-02
1.076226448782e-02
1.076224924774e-02
1.076224901190e-02
1.076226378029e-02
1.076227946334e-02
1.076226416647e-02
1.076226393063e-02
1.076227875581e-02
1.076227929745e-02
1.076226618965e-02
1.076226595381e-02
1.076227858993e-02
1.076226633999e-02
1.076225360426e-02
1.076225336842e-02
1.076226563246e-02
1.076226625448e-02
1.076225351875e-02
1.076225328291e-02
1.076226554696e-02
1.076227904094e-02
1.076226593314e-02
1.076226569730e-02
1.076227833341e-02
1.076227695855e-02
1.076226720859e-02
1.076226697275e-02
1.076227625102e-02
1.076226735893e-02
1.076225850575e-02
1.076225826991e-02
1.076226665141e-02
1.076226727343e-02
1.076225842025e-02
1.076225818440e-02
1.076226656590e-02
1.076227670203e-02
1.076226695208e-02
1.076226671624e-02
1.076227599451e-02
1.076227635557e-02
1.076226985112e-02
1.076226961527e-02
1.076227564804e-02
1.076227000145e-02
1.076226495461e-02
1.076226471877e-02
1.076226929393e-02
1.076226991595e-02
1.076226486910e-02
1.076226463326e-02
1.076226920842e-02
1.076227609905e-02
1.076226959460e-02
1.076226935876e-02
1.076227539153e-02
SCALARS engineering_strain_norm float 1
LOOKUP_TABLE default
0.000000000000e+00
0.000000000000e+00
0.000000000000e+00
0.000000000000e+00
0.000000000000e+00
0.000000000000e+00
0.000000000000e+00
0.000000000000e+00
0.000000000000e+00
0.000000000000e+00
0.000000000000e+00
0.000000000000e+00
0.000000000000e+00
0.000000000000e+00
0.000000000000e+00
0.000000000000e+00
0.000000000000e+00
0.000000000000e+00
0.000000000000e+00
0.000000000000e+00
0.000000000000e+00
0.000000000000e+00
0.000000000000e+00
0.000000000000e+00
0.000000000000e+00
0.000000000000e+00
0.000000000000e+00
0.000000000000e+00
0.000000000000e+00
0.000000000000e+00
0.000000000000e+00
0.000000000000e+00
0.000000000000e+00
0.000000000000e+00
0.000000000000e+00
0.000000000000e+00
0.000000000000e+00
0.000000000000e+00
0.000000000000e+00
0.000000000000e+00
0.000000000000e+00
0.000000000000e+00
0.000000000000e+00
0.000000000000e+00
0.000000000000e+00
0.000000000000e+00
0.000000000000e+00
0.000000000000e+00
0.000000000000e+00
0.000000000000e+00
0.000000000000e+00
0.000000000000e+00
0.000000000000e+00
0.000000000000e+00
0.000000000000e+00
0.000000000000e+00
0.000000000000e+00
0.000000000000e+00
0.000000000000e+00
0.000000000000e+00
0.000000000000e+00
0.000000000000e+00
0.000000000000e+00
0.000000000000e+00
4.590949006757e-08
7.607609894620e-08
7.607609336962e-08
4.590948764048e-08
7.607609940610e-08
9.009903563716e-08
9.009902864866e-08
7.607609225908e-08
7.607609736716e-08
9.009903306764e-08
9.009902608013e-08
7.607609016945e-08
4.590948920474e-08
7.607609630766e-08
7.607609073159e-08
4.590948679170e-08
6.441044125008e-08
1.225172419204e-07
1.225172380135e-07
6.441044573603e-08
1.225172427084e-07
1.646964216028e-07
1.646964158546e-07
1.225172362389e-07
1.225172413227e-07
1.646964195251e-07
1.646964137496e-07
1.225172348068e-07
6.441044300984e-08
1.225172395768e-07
1.225172356676e-07
6.441044755940e-08
6.268970380179e-08
1.610450105098e-07
1.610450094556e-07
6.268970986489e-08
1.610450118169e-07
2.242125772283e-07
2.242125740889e-07
1.610450066693e-07
1.610450114572e-07
2.242125761105e-07
2.242125729619e-07
1.610450062769e-07
6.268970608566e-08
1.610450086821e-07
1.610450076158e-07
6.268971217393e-08
7.799537132763e-08
2.034552557619e-07
2.034552577204e-07
7.799536999482e-08
2.034552577525e-07
2.760758381251e-07
2.760758381102e-07
2.034552534913e-07
2.034552584990e-07
2.760758381826e-07
2.760758381496e-07
2.034552542096e-07
7.799537085976e-08
2.034552543032e-07
2.034552562440e-07
7.799536958963e-08
SCALARS von_mises float 1
LOOKUP_TABLE default
0.000000000000e+00
0.000000000000e+00
0.000000000000e+00
0.000000000000e+00
0.000000000000e+00
0.000000000000e+00
0.000000000000e+00
0.000000000000e+00
0.000000000000e+00
0.000000000000e+00
0.000000000000e+00
0.000000000000e+00
0.000000000000e+00
0.000000000000e+00
0.000000000000e+00
0.000000000000e+00
0.000000000000e+00
0.000000000000e+00
0.000000000000e+00
0.000000000000e+00
0.000000000000e+00
0.000000000000e+00
0.000000000000e+00
0.000000000000e+00
0.000000000000e+00
0.000000000000e+00
0.000000000000e+00
0.000000000000e+00
0.000000000000e+00
0.000000000000e+00
0.000000000000e+00
0.000000000000e+00
0.000000000000e+00
0.000000000000e+00
0.000000000000e+00
0.000000000000e+00
0.000000000000e+00
0.000000000000e+00
0.000000000000e+00
0.000000000000e+00
0.000000000000e+00
0.000000000000e+00
0.000000000000e+00
0.000000000000e+00
0.000000000000e+00
0.000000000000e+00
0.000000000000e+00
0.000000000000e+00
0.000000000000e+00
0.000000000000e+00
0.000000000000e+00
0.000000000000e+00
0.000000000000e+00
0.000000000000e+00
0.000000000000e+00
0.000000000000e+00
0.000000000000e+00
0.000000000000e+00
0.000000000000e+00
0.000000000000e+00
0.000000000000e+00
0.000000000000e+00
0.000000000000e+00
0.000000000000e+00
3.388923971793e-03
6.602105338392e-03
6.602104838710e-03
3.388923619553e-03
6.602105400588e-03
8.144973966112e-03
8.144973408607e-03
6.602104695604e-03
6.602105217275e-03
8.144973760715e-03
8.144973205528e-03
6.602104510661e-03
3.388923843240e-03
6.602105077808e-03
6.602104578782e-03
3.388923492781e-03
3.840314787937e-03
9.923210484027e-03
9.923210111020e-03
3.840315298625e-03
9.923210586257e-03
1.356928913061e-02
1.356928861301e-02
9.923209887701e-03
9.923210453200e-03
1.356928894415e-02
1.356928842321e-02
9.923209751426e-03
3.840314983585e-03
9.923210230743e-03
9.923209857122e-03
3.840315499366e-03
2.533245183257e-03
1.270040726799e-02
1.270040707604e-02
2.533245948865e-03
1.270040743328e-02
1.749384006760e-02
1.749383967822e-02
1.270040673322e-02
1.270040736402e-02
1.749383992831e-02
1.749383953723e-02
1.270040666071e-02
2.533245470151e-03
1.270040701805e-02
1.270040682567e-02
2.533246241328e-03
5.807312042952e-03
1.731705575220e-02
1.731705585530e-02
5.807311716851e-03
1.731705594660e-02
2.271457724630e-02
2.271457717763e-02
1.731705544315e-02
1.731705598655e-02
2.271457722822e-02
2.271457715667e-02
1.731705547931e-02
5.807311925934e-03
1.731705557783e-02
1.731705567910e-02
5.807311602461e-03
SCALARS sdf_gap float 1
LOOKUP_TABLE default
0.000000000000e+00
0.000000000000e+00
0.000000000000e+00
0.000000000000e+00
0.000000000000e+00
0.000000000000e+00
0.000000000000e+00
0.000000000000e+00
0.000000000000e+00
0.000000000000e+00
0.000000000000e+00
0.000000000000e+00
0.000000000000e+00
0.000000000000e+00
0.000000000000e+00
0.000000000000e+00
0.000000000000e+00
0.000000000000e+00
0.000000000000e+00
0.000000000000e+00
0.000000000000e+00
0.000000000000e+00
0.000000000000e+00
0.000000000000e+00
0.000000000000e+00
0.000000000000e+00
0.000000000000e+00
0.000000000000e+00
0.000000000000e+00
0.000000000000e+00
0.000000000000e+00
0.000000000000e+00
0.000000000000e+00
0.000000000000e+00
0.000000000000e+00
0.000000000000e+00
0.000000000000e+00
0.000000000000e+00
0.000000000000e+00
0.000000000000e+00
0.000000000000e+00
0.000000000000e+00
0.000000000000e+00
0.000000000000e+00
0.000000000000e+00
0.000000000000e+00
0.000000000000e+00
0.000000000000e+00
0.000000000000e+00
0.000000000000e+00
0.000000000000e+00
0.000000000000e+00
0.000000000000e+00
0.000000000000e+00
0.000000000000e+00
0.000000000000e+00
0.000000000000e+00
0.000000000000e+00
0.000000000000e+00
0.000000000000e+00
0.000000000000e+00
0.000000000000e+00
0.000000000000e+00
0.000000000000e+00
4.237720862426e-03
4.237736792571e-03
4.237737028412e-03
4.237721569950e-03
4.237736642234e-03
4.237752606315e-03
4.237752842156e-03
4.237737349758e-03
4.237736727739e-03
4.237752691820e-03
4.237752927661e-03
4.237737435262e-03
4.237721118940e-03
4.237737049085e-03
4.237737284926e-03
4.237721826463e-03
0.000000000000e+00
0.000000000000e+00
0.000000000000e+00
0.000000000000e+00
0.000000000000e+00
0.000000000000e+00
0.000000000000e+00
0.000000000000e+00
0.000000000000e+00
0.000000000000e+00
0.000000000000e+00
0.000000000000e+00
0.000000000000e+00
0.000000000000e+00
0.000000000000e+00
0.000000000000e+00
0.000000000000e+00
0.000000000000e+00
0.000000000000e+00
0.000000000000e+00
0.000000000000e+00
0.000000000000e+00
0.000000000000e+00
0.000000000000e+00
0.000000000000e+00
0.000000000000e+00
0.000000000000e+00
0.000000000000e+00
0.000000000000e+00
0.000000000000e+00
0.000000000000e+00
0.000000000000e+00
0.000000000000e+00
0.000000000000e+00
0.000000000000e+00
0.000000000000e+00
0.000000000000e+00
0.000000000000e+00
0.000000000000e+00
0.000000000000e+00
0.000000000000e+00
0.000000000000e+00
0.000000000000e+00
0.000000000000e+00
0.000000000000e+00
0.000000000000e+00
0.000000000000e+00
0.000000000000e+00
SCALARS contact_pressure float 1
LOOKUP_TABLE default
0.000000000000e+00
0.000000000000e+00
0.000000000000e+00
0.000000000000e+00
0.000000000000e+00
0.000000000000e+00
0.000000000000e+00
0.000000000000e+00
0.000000000000e+00
0.000000000000e+00
0.000000000000e+00
0.000000000000e+00
0.000000000000e+00
0.000000000000e+00
0.000000000000e+00
0.000000000000e+00
0.000000000000e+00
0.000000000000e+00
0.000000000000e+00
0.000000000000e+00
0.000000000000e+00
0.000000000000e+00
0.000000000000e+00
0.000000000000e+00
0.000000000000e+00
0.000000000000e+00
0.000000000000e+00
0.000000000000e+00
0.000000000000e+00
0.000000000000e+00
0.000000000000e+00
0.000000000000e+00
0.000000000000e+00
0.000000000000e+00
0.000000000000e+00
0.000000000000e+00
0.000000000000e+00
0.000000000000e+00
0.000000000000e+00
0.000000000000e+00
0.000000000000e+00
0.000000000000e+00
0.000000000000e+00
0.000000000000e+00
0.000000000000e+00
0.000000000000e+00
0.000000000000e+00
0.000000000000e+00
0.000000000000e+00
0.000000000000e+00
0.000000000000e+00
0.000000000000e+00
0.000000000000e+00
0.000000000000e+00
0.000000000000e+00
0.000000000000e+00
0.000000000000e+00
0.000000000000e+00
0.000000000000e+00
0.000000000000e+00
0.000000000000e+00
0.000000000000e+00
0.000000000000e+00
0.000000000000e+00
0.000000000000e+00
0.000000000000e+00
0.000000000000e+00
0.000000000000e+00
0.000000000000e+00
0.000000000000e+00
0.000000000000e+00
0.000000000000e+00
0.000000000000e+00
0.000000000000e+00
0.000000000000e+00
0.000000000000e+00
0.000000000000e+00
0.000000000000e+00
0.000000000000e+00
0.000000000000e+00
0.000000000000e+00
0.000000000000e+00
0.000000000000e+00
0.000000000000e+00
0.000000000000e+00
0.000000000000e+00
0.000000000000e+00
0.000000000000e+00
0.000000000000e+00
0.000000000000e+00
0.000000000000e+00
0.000000000000e+00
0.000000000000e+00
0.000000000000e+00
0.000000000000e+00
0.000000000000e+00
0.000000000000e+00
0.000000000000e+00
0.000000000000e+00
0.000000000000e+00
0.000000000000e+00
0.000000000000e+00
0.000000000000e+00
0.000000000000e+00
0.000000000000e+00
0.000000000000e+00
0.000000000000e+00
0.000000000000e+00
0.000000000000e+00
0.000000000000e+00
0.000000000000e+00
0.000000000000e+00
0.000000000000e+00
0.000000000000e+00
0.000000000000e+00
0.000000000000e+00
0.000000000000e+00
0.000000000000e+00
0.000000000000e+00
0.000000000000e+00
0.000000000000e+00
0.000000000000e+00
0.000000000000e+00
0.000000000000e+00
0.000000000000e+00
0.000000000000e+00
0.000000000000e+00
0.000000000000e+00
SCALARS active_contact float 1
LOOKUP_TABLE default
0.000000000000e+00
0.000000000000e+00
0.000000000000e+00
0.000000000000e+00
0.000000000000e+00
0.000000000000e+00
0.000000000000e+00
0.000000000000e+00
0.000000000000e+00
0.000000000000e+00
0.000000000000e+00
0.000000000000e+00
0.000000000000e+00
0.000000000000e+00
0.000000000000e+00
0.000000000000e+00
0.000000000000e+00
0.000000000000e+00
0.000000000000e+00
0.000000000000e+00
0.000000000000e+00
0.000000000000e+00
0.000000000000e+00
0.000000000000e+00
0.000000000000e+00
0.000000000000e+00
0.000000000000e+00
0.000000000000e+00
0.000000000000e+00
0.000000000000e+00
0.000000000000e+00
0.000000000000e+00
0.000000000000e+00
0.000000000000e+00
0.000000000000e+00
0.000000000000e+00
0.000000000000e+00
0.000000000000e+00
0.000000000000e+00
0.000000000000e+00
0.000000000000e+00
0.000000000000e+00
0.000000000000e+00
0.000000000000e+00
0.000000000000e+00
0.000000000000e+00
0.000000000000e+00
0.000000000000e+00
0.000000000000e+00
0.000000000000e+00
0.000000000000e+00
0.000000000000e+00
0.000000000000e+00
0.000000000000e+00
0.000000000000e+00
0.000000000000e+00
0.000000000000e+00
0.000000000000e+00
0.000000000000e+00
0.000000000000e+00
0.000000000000e+00
0.000000000000e+00
0.000000000000e+00
0.000000000000e+00
0.000000000000e+00
0.000000000000e+00
0.000000000000e+00
0.000000000000e+00
0.000000000000e+00
0.000000000000e+00
0.000000000000e+00
0.000000000000e+00
0.000000000000e+00
0.000000000000e+00
0.000000000000e+00
0.000000000000e+00
0.000000000000e+00
0.000000000000e+00
0.000000000000e+00
0.000000000000e+00
0.000000000000e+00
0.000000000000e+00
0.000000000000e+00
0.000000000000e+00
0.000000000000e+00
0.000000000000e+00
0.000000000000e+00
0.000000000000e+00
0.000000000000e+00
0.000000000000e+00
0.000000000000e+00
0.000000000000e+00
0.000000000000e+00
0.000000000000e+00
0.000000000000e+00
0.000000000000e+00
0.000000000000e+00
0.000000000000e+00
0.000000000000e+00
0.000000000000e+00
0.000000000000e+00
0.000000000000e+00
0.000000000000e+00
0.000000000000e+00
0.000000000000e+00
0.000000000000e+00
0.000000000000e+00
0.000000000000e+00
0.000000000000e+00
0.000000000000e+00
0.000000000000e+00
0.000000000000e+00
0.000000000000e+00
0.000000000000e+00
0.000000000000e+00
0.000000000000e+00
0.000000000000e+00
0.000000000000e+00
0.000000000000e+00
0.000000000000e+00
0.000000000000e+00
0.000000000000e+00
0.000000000000e+00
0.000000000000e+00
0.000000000000e+00
0.000000000000e+00
0.000000000000e+00
0.000000000000e+00
