# vtk DataFile Version 3.0
SFC long-time C3D8 dynamic frame 49 t=9.800000000000e-01
ASCII
DATASET UNSTRUCTURED_GRID
POINTS 250 float
-2.500000000000e-01 -2.500000000000e-01 0.000000000000e+00
-1.250000000000e-01 -2.500000000000e-01 0.000000000000e+00
0.000000000000e+00 -2.500000000000e-01 0.000000000000e+00
1.250000000000e-01 -2.500000000000e-01 0.000000000000e+00
2.500000000000e-01 -2.500000000000e-01 0.000000000000e+00
-2.500000000000e-01 -1.250000000000e-01 0.000000000000e+00
-1.250000000000e-01 -1.250000000000e-01 0.000000000000e+00
0.000000000000e+00 -1.250000000000e-01 0.000000000000e+00
1.250000000000e-01 -1.250000000000e-01 0.000000000000e+00
2.500000000000e-01 -1.250000000000e-01 0.000000000000e+00
-2.500000000000e-01 0.000000000000e+00 0.000000000000e+00
-1.250000000000e-01 0.000000000000e+00 0.000000000000e+00
0.000000000000e+00 0.000000000000e+00 0.000000000000e+00
1.250000000000e-01 0.000000000000e+00 0.000000000000e+00
2.500000000000e-01 0.000000000000e+00 0.000000000000e+00
-2.500000000000e-01 1.250000000000e-01 0.000000000000e+00
-1.250000000000e-01 1.250000000000e-01 0.000000000000e+00
0.000000000000e+00 1.250000000000e-01 0.000000000000e+00
1.250000000000e-01 1.250000000000e-01 0.000000000000e+00
2.500000000000e-01 1.250000000000e-01 0.000000000000e+00
-2.500000000000e-01 2.500000000000e-01 0.000000000000e+00
-1.250000000000e-01 2.500000000000e-01 0.000000000000e+00
0.000000000000e+00 2.500000000000e-01 0.000000000000e+00
1.250000000000e-01 2.500000000000e-01 0.000000000000e+00
2.500000000000e-01 2.500000000000e-01 0.000000000000e+00
-2.500000000000e-01 -2.500000000000e-01 6.000000000000e-02
-1.250000000000e-01 -2.500000000000e-01 6.000000000000e-02
0.000000000000e+00 -2.500000000000e-01 6.000000000000e-02
1.250000000000e-01 -2.500000000000e-01 6.000000000000e-02
2.500000000000e-01 -2.500000000000e-01 6.000000000000e-02
-2.500000000000e-01 -1.250000000000e-01 6.000000000000e-02
-1.250000000000e-01 -1.250000000000e-01 6.000000000000e-02
0.000000000000e+00 -1.250000000000e-01 6.000000000000e-02
1.250000000000e-01 -1.250000000000e-01 6.000000000000e-02
2.500000000000e-01 -1.250000000000e-01 6.000000000000e-02
-2.500000000000e-01 0.000000000000e+00 6.000000000000e-02
-1.250000000000e-01 0.000000000000e+00 6.000000000000e-02
0.000000000000e+00 0.000000000000e+00 6.000000000000e-02
1.250000000000e-01 0.000000000000e+00 6.000000000000e-02
2.500000000000e-01 0.000000000000e+00 6.000000000000e-02
-2.500000000000e-01 1.250000000000e-01 6.000000000000e-02
-1.250000000000e-01 1.250000000000e-01 6.000000000000e-02
0.000000000000e+00 1.250000000000e-01 6.000000000000e-02
1.250000000000e-01 1.250000000000e-01 6.000000000000e-02
2.500000000000e-01 1.250000000000e-01 6.000000000000e-02
-2.500000000000e-01 2.500000000000e-01 6.000000000000e-02
-1.250000000000e-01 2.500000000000e-01 6.000000000000e-02
0.000000000000e+00 2.500000000000e-01 6.000000000000e-02
1.250000000000e-01 2.500000000000e-01 6.000000000000e-02
2.500000000000e-01 2.500000000000e-01 6.000000000000e-02
-2.500000000000e-01 -2.500000000000e-01 1.200000000000e-01
-1.250000000000e-01 -2.500000000000e-01 1.200000000000e-01
0.000000000000e+00 -2.500000000000e-01 1.200000000000e-01
1.250000000000e-01 -2.500000000000e-01 1.200000000000e-01
2.500000000000e-01 -2.500000000000e-01 1.200000000000e-01
-2.500000000000e-01 -1.250000000000e-01 1.200000000000e-01
-1.250000000000e-01 -1.250000000000e-01 1.200000000000e-01
0.000000000000e+00 -1.250000000000e-01 1.200000000000e-01
1.250000000000e-01 -1.250000000000e-01 1.200000000000e-01
2.500000000000e-01 -1.250000000000e-01 1.200000000000e-01
-2.500000000000e-01 0.000000000000e+00 1.200000000000e-01
-1.250000000000e-01 0.000000000000e+00 1.200000000000e-01
0.000000000000e+00 0.000000000000e+00 1.200000000000e-01
1.250000000000e-01 0.000000000000e+00 1.200000000000e-01
2.500000000000e-01 0.000000000000e+00 1.200000000000e-01
-2.500000000000e-01 1.250000000000e-01 1.200000000000e-01
-1.250000000000e-01 1.250000000000e-01 1.200000000000e-01
0.000000000000e+00 1.250000000000e-01 1.200000000000e-01
1.250000000000e-01 1.250000000000e-01 1.200000000000e-01
2.500000000000e-01 1.250000000000e-01 1.200000000000e-01
-2.500000000000e-01 2.500000000000e-01 1.200000000000e-01
-1.250000000000e-01 2.500000000000e-01 1.200000000000e-01
0.000000000000e+00 2.500000000000e-01 1.200000000000e-01
1.250000000000e-01 2.500000000000e-01 1.200000000000e-01
2.500000000000e-01 2.500000000000e-01 1.200000000000e-01
-2.500000000000e-01 -2.500000000000e-01 1.800000000000e-01
-1.250000000000e-01 -2.500000000000e-01 1.800000000000e-01
0.000000000000e+00 -2.500000000000e-01 1.800000000000e-01
1.250000000000e-01 -2.500000000000e-01 1.800000000000e-01
2.500000000000e-01 -2.500000000000e-01 1.800000000000e-01
-2.500000000000e-01 -1.250000000000e-01 1.800000000000e-01
-1.250000000000e-01 -1.250000000000e-01 1.800000000000e-01
0.000000000000e+00 -1.250000000000e-01 1.800000000000e-01
1.250000000000e-01 -1.250000000000e-01 1.800000000000e-01
2.500000000000e-01 -1.250000000000e-01 1.800000000000e-01
-2.500000000000e-01 0.000000000000e+00 1.800000000000e-01
-1.250000000000e-01 0.000000000000e+00 1.800000000000e-01
0.000000000000e+00 0.000000000000e+00 1.800000000000e-01
1.250000000000e-01 0.000000000000e+00 1.800000000000e-01
2.500000000000e-01 0.000000000000e+00 1.800000000000e-01
-2.500000000000e-01 1.250000000000e-01 1.800000000000e-01
-1.250000000000e-01 1.250000000000e-01 1.800000000000e-01
0.000000000000e+00 1.250000000000e-01 1.800000000000e-01
1.250000000000e-01 1.250000000000e-01 1.800000000000e-01
2.500000000000e-01 1.250000000000e-01 1.800000000000e-01
-2.500000000000e-01 2.500000000000e-01 1.800000000000e-01
-1.250000000000e-01 2.500000000000e-01 1.800000000000e-01
0.000000000000e+00 2.500000000000e-01 1.800000000000e-01
1.250000000000e-01 2.500000000000e-01 1.800000000000e-01
2.500000000000e-01 2.500000000000e-01 1.800000000000e-01
-2.500000000000e-01 -2.500000000000e-01 2.400000000000e-01
-1.250000000000e-01 -2.500000000000e-01 2.400000000000e-01
0.000000000000e+00 -2.500000000000e-01 2.400000000000e-01
1.250000000000e-01 -2.500000000000e-01 2.400000000000e-01
2.500000000000e-01 -2.500000000000e-01 2.400000000000e-01
-2.500000000000e-01 -1.250000000000e-01 2.400000000000e-01
-1.250000000000e-01 -1.250000000000e-01 2.400000000000e-01
0.000000000000e+00 -1.250000000000e-01 2.400000000000e-01
1.250000000000e-01 -1.250000000000e-01 2.400000000000e-01
2.500000000000e-01 -1.250000000000e-01 2.400000000000e-01
-2.500000000000e-01 0.000000000000e+00 2.400000000000e-01
-1.250000000000e-01 0.000000000000e+00 2.400000000000e-01
0.000000000000e+00 0.000000000000e+00 2.400000000000e-01
1.250000000000e-01 0.000000000000e+00 2.400000000000e-01
2.500000000000e-01 0.000000000000e+00 2.400000000000e-01
-2.500000000000e-01 1.250000000000e-01 2.400000000000e-01
-1.250000000000e-01 1.250000000000e-01 2.400000000000e-01
0.000000000000e+00 1.250000000000e-01 2.400000000000e-01
1.250000000000e-01 1.250000000000e-01 2.400000000000e-01
2.500000000000e-01 1.250000000000e-01 2.400000000000e-01
-2.500000000000e-01 2.500000000000e-01 2.400000000000e-01
-1.250000000000e-01 2.500000000000e-01 2.400000000000e-01
0.000000000000e+00 2.500000000000e-01 2.400000000000e-01
1.250000000000e-01 2.500000000000e-01 2.400000000000e-01
2.500000000000e-01 2.500000000000e-01 2.400000000000e-01
-2.500016472237e-01 -2.500016472237e-01 2.399547877310e-01
-1.250008719745e-01 -2.500016369205e-01 2.399542227387e-01
1.282718554807e-14 -2.500016154274e-01 2.399540071342e-01
1.250008719746e-01 -2.500016369205e-01 2.399542227387e-01
2.500016472237e-01 -2.500016472237e-01 2.399547877310e-01
-2.500016369205e-01 -1.250008719746e-01 2.399542227387e-01
-1.250008697817e-01 -1.250008697817e-01 2.399536690247e-01
1.220287845785e-14 -1.250008608963e-01 2.399534602875e-01
1.250008697817e-01 -1.250008697817e-01 2.399536690247e-01
2.500016369205e-01 -1.250008719746e-01 2.399542227387e-01
-2.500016154274e-01 -1.597806042733e-14 2.399540071342e-01
-1.250008608963e-01 -1.535757507376e-14 2.399534602875e-01
1.157390014808e-14 -1.474319041353e-14 2.399532526575e-01
1.250008608963e-01 -1.412464138351e-14 2.399534602875e-01
2.500016154274e-01 -1.350524829497e-14 2.399540071342e-01
-2.500016369205e-01 1.250008719745e-01 2.399542227387e-01
-1.250008697817e-01 1.250008697817e-01 2.399536690247e-01
1.093722719527e-14 1.250008608963e-01 2.399534602875e-01
1.250008697817e-01 1.250008697817e-01 2.399536690247e-01
2.500016369205e-01 1.250008719745e-01 2.399542227387e-01
-2.500016472237e-01 2.500016472237e-01 2.399547877310e-01
-1.250008719746e-01 2.500016369205e-01 2.399542227387e-01
1.030351719685e-14 2.500016154274e-01 2.399540071342e-01
1.250008719746e-01 2.500016369205e-01 2.399542227387e-01
2.500016472237e-01 2.500016472237e-01 2.399547877310e-01
-2.500012909699e-01 -2.500012909700e-01 3.049535625874e-01
-1.250006679217e-01 -2.500012878576e-01 3.049529702361e-01
1.280218672688e-14 -2.500012741589e-01 3.049527428353e-01
1.250006679217e-01 -2.500012878576e-01 3.049529702361e-01
2.500012909700e-01 -2.500012909700e-01 3.049535625874e-01
-2.500012878575e-01 -1.250006679217e-01 3.049529702361e-01
-1.250006675965e-01 -1.250006675965e-01 3.049523862310e-01
1.218242633010e-14 -1.250006611950e-01 3.049521645412e-01
1.250006675965e-01 -1.250006675965e-01 3.049523862310e-01
2.500012878576e-01 -1.250006679217e-01 3.049529702361e-01
-2.500012741589e-01 -1.600896000100e-14 3.049527428353e-01
-1.250006611950e-01 -1.538550974752e-14 3.049521645412e-01
1.155634551308e-14 -1.476171239283e-14 3.049519434381e-01
1.250006611950e-01 -1.414483328969e-14 3.049521645412e-01
2.500012741589e-01 -1.352405556074e-14 3.049527428353e-01
-2.500012878575e-01 1.250006679217e-01 3.049529702361e-01
-1.250006675965e-01 1.250006675964e-01 3.049523862310e-01
1.092570851797e-14 1.250006611950e-01 3.049521645412e-01
1.250006675965e-01 1.250006675964e-01 3.049523862310e-01
2.500012878576e-01 1.250006679217e-01 3.049529702361e-01
-2.500012909699e-01 2.500012909699e-01 3.049535625874e-01
-1.250006679217e-01 2.500012878575e-01 3.049529702361e-01
1.029392486311e-14 2.500012741589e-01 3.049527428353e-01
1.250006679217e-01 2.500012878575e-01 3.049529702361e-01
2.500012909700e-01 2.500012909699e-01 3.049535625874e-01
-2.500008835520e-01 -2.500008835520e-01 3.699527093814e-01
-1.250004671148e-01 -2.500008801432e-01 3.699520941591e-01
1.277993510315e-14 -2.500008705427e-01 3.699518584068e-01
1.250004671148e-01 -2.500008801432e-01 3.699520941591e-01
2.500008835520e-01 -2.500008835520e-01 3.699527093814e-01
-2.500008801431e-01 -1.250004671148e-01 3.699520941591e-01
-1.250004670730e-01 -1.250004670730e-01 3.699514846288e-01
1.216034417380e-14 -1.250004629555e-01 3.699512537692e-01
1.250004670730e-01 -1.250004670730e-01 3.699514846288e-01
2.500008801432e-01 -1.250004671148e-01 3.699520941591e-01
-2.500008705427e-01 -1.604015384785e-14 3.699518584068e-01
-1.250004629555e-01 -1.541239116995e-14 3.699512537692e-01
1.153961244770e-14 -1.478546774198e-14 3.699510231253e-01
1.250004629555e-01 -1.416575427374e-14 3.699512537692e-01
2.500008705427e-01 -1.354213112707e-14 3.699518584068e-01
-2.500008801431e-01 1.250004671148e-01 3.699520941591e-01
-1.250004670730e-01 1.250004670730e-01 3.699514846288e-01
1.090800997662e-14 1.250004629555e-01 3.699512537692e-01
1.250004670730e-01 1.250004670730e-01 3.699514846288e-01
2.500008801432e-01 1.250004671148e-01 3.699520941591e-01
-2.500008835520e-01 2.500008835520e-01 3.699527093814e-01
-1.250004671148e-01 2.500008801431e-01 3.699520941591e-01
1.027779151636e-14 2.500008705427e-01 3.699518584068e-01
1.250004671148e-01 2.500008801431e-01 3.699520941591e-01
2.500008835520e-01 2.500008835520e-01 3.699527093814e-01
-2.500004736900e-01 -2.500004736900e-01 4.349521996747e-01
-1.250002577237e-01 -2.500004699047e-01 4.349515720231e-01
1.275657549942e-14 -2.500004649622e-01 4.349513230073e-01
1.250002577237e-01 -2.500004699047e-01 4.349515720231e-01
2.500004736900e-01 -2.500004736900e-01 4.349521996747e-01
-2.500004699047e-01 -1.250002577237e-01 4.349515720231e-01
-1.250002577023e-01 -1.250002577023e-01 4.349509504169e-01
1.213795199634e-14 -1.250002556376e-01 4.349507055312e-01
1.250002577023e-01 -1.250002577023e-01 4.349509504169e-01
2.500004699047e-01 -1.250002577237e-01 4.349515720231e-01
-2.500004649621e-01 -1.607087201687e-14 4.349513230073e-01
-1.250002556375e-01 -1.544324472601e-14 4.349507055312e-01
1.152046171237e-14 -1.481342950119e-14 4.349504596101e-01
1.250002556376e-01 -1.418856459519e-14 4.349507055312e-01
2.500004649622e-01 -1.356201677707e-14 4.349513230073e-01
-2.500004699047e-01 1.250002577237e-01 4.349515720231e-01
-1.250002577023e-01 1.250002577023e-01 4.349509504169e-01
1.089279741748e-14 1.250002556375e-01 4.349507055312e-01
1.250002577023e-01 1.250002577023e-01 4.349509504169e-01
2.500004699047e-01 1.250002577237e-01 4.349515720231e-01
-2.500004736900e-01 2.500004736900e-01 4.349521996747e-01
-1.250002577237e-01 2.500004699047e-01 4.349515720231e-01
1.026105192627e-14 2.500004649621e-01 4.349513230073e-01
1.250002577237e-01 2.500004699047e-01 4.349515720231e-01
2.500004736900e-01 2.500004736900e-01 4.349521996747e-01
-2.500000970657e-01 -2.500000970658e-01 4.999520110579e-01
-1.250000300934e-01 -2.500001001226e-01 4.999513828458e-01
1.272766788212e-14 -2.500001035778e-01 4.999511289265e-01
1.250000300934e-01 -2.500001001226e-01 4.999513828458e-01
2.500000970658e-01 -2.500000970658e-01 4.999520110579e-01
-2.500001001226e-01 -1.250000300934e-01 4.999513828458e-01
-1.250000307166e-01 -1.250000307166e-01 4.999507619219e-01
1.211254779469e-14 -1.250000301479e-01 4.999505122848e-01
1.250000307166e-01 -1.250000307166e-01 4.999507619219e-01
2.500001001226e-01 -1.250000300934e-01 4.999513828458e-01
-2.500001035778e-01 -1.610174186585e-14 4.999511289265e-01
-1.250000301479e-01 -1.547425005485e-14 4.999505122848e-01
1.149888921500e-14 -1.484472401753e-14 4.999502615636e-01
1.250000301479e-01 -1.420784513868e-14 4.999505122848e-01
2.500001035778e-01 -1.357817616872e-14 4.999511289265e-01
-2.500001001226e-01 1.250000300934e-01 4.999513828458e-01
-1.250000307166e-01 1.250000307166e-01 4.999507619219e-01
1.087945810979e-14 1.250000301479e-01 4.999505122848e-01
1.250000307166e-01 1.250000307166e-01 4.999507619219e-01
2.500001001226e-01 1.250000300934e-01 4.999513828458e-01
-2.500000970657e-01 2.500000970657e-01 4.999520110579e-01
-1.250000300934e-01 2.500001001226e-01 4.999513828458e-01
1.025130960740e-14 2.500001035778e-01 4.999511289265e-01
1.250000300934e-01 2.500001001226e-01 4.999513828458e-01
2.500000970658e-01 2.500000970657e-01 4.999520110579e-01
CELLS 128 1152
8 0 1 6 5 25 26 31 30
8 1 2 7 6 26 27 32 31
8 2 3 8 7 27 28 33 32
8 3 4 9 8 28 29 34 33
8 5 6 11 10 30 31 36 35
8 6 7 12 11 31 32 37 36
8 7 8 13 12 32 33 38 37
8 8 9 14 13 33 34 39 38
8 10 11 16 15 35 36 41 40
8 11 12 17 16 36 37 42 41
8 12 13 18 17 37 38 43 42
8 13 14 19 18 38 39 44 43
8 15 16 21 20 40 41 46 45
8 16 17 22 21 41 42 47 46
8 17 18 23 22 42 43 48 47
8 18 19 24 23 43 44 49 48
8 25 26 31 30 50 51 56 55
8 26 27 32 31 51 52 57 56
8 27 28 33 32 52 53 58 57
8 28 29 34 33 53 54 59 58
8 30 31 36 35 55 56 61 60
8 31 32 37 36 56 57 62 61
8 32 33 38 37 57 58 63 62
8 33 34 39 38 58 59 64 63
8 35 36 41 40 60 61 66 65
8 36 37 42 41 61 62 67 66
8 37 38 43 42 62 63 68 67
8 38 39 44 43 63 64 69 68
8 40 41 46 45 65 66 71 70
8 41 42 47 46 66 67 72 71
8 42 43 48 47 67 68 73 72
8 43 44 49 48 68 69 74 73
8 50 51 56 55 75 76 81 80
8 51 52 57 56 76 77 82 81
8 52 53 58 57 77 78 83 82
8 53 54 59 58 78 79 84 83
8 55 56 61 60 80 81 86 85
8 56 57 62 61 81 82 87 86
8 57 58 63 62 82 83 88 87
8 58 59 64 63 83 84 89 88
8 60 61 66 65 85 86 91 90
8 61 62 67 66 86 87 92 91
8 62 63 68 67 87 88 93 92
8 63 64 69 68 88 89 94 93
8 65 66 71 70 90 91 96 95
8 66 67 72 71 91 92 97 96
8 67 68 73 72 92 93 98 97
8 68 69 74 73 93 94 99 98
8 75 76 81 80 100 101 106 105
8 76 77 82 81 101 102 107 106
8 77 78 83 82 102 103 108 107
8 78 79 84 83 103 104 109 108
8 80 81 86 85 105 106 111 110
8 81 82 87 86 106 107 112 111
8 82 83 88 87 107 108 113 112
8 83 84 89 88 108 109 114 113
8 85 86 91 90 110 111 116 115
8 86 87 92 91 111 112 117 116
8 87 88 93 92 112 113 118 117
8 88 89 94 93 113 114 119 118
8 90 91 96 95 115 116 121 120
8 91 92 97 96 116 117 122 121
8 92 93 98 97 117 118 123 122
8 93 94 99 98 118 119 124 123
8 125 126 131 130 150 151 156 155
8 126 127 132 131 151 152 157 156
8 127 128 133 132 152 153 158 157
8 128 129 134 133 153 154 159 158
8 130 131 136 135 155 156 161 160
8 131 132 137 136 156 157 162 161
8 132 133 138 137 157 158 163 162
8 133 134 139 138 158 159 164 163
8 135 136 141 140 160 161 166 165
8 136 137 142 141 161 162 167 166
8 137 138 143 142 162 163 168 167
8 138 139 144 143 163 164 169 168
8 140 141 146 145 165 166 171 170
8 141 142 147 146 166 167 172 171
8 142 143 148 147 167 168 173 172
8 143 144 149 148 168 169 174 173
8 150 151 156 155 175 176 181 180
8 151 152 157 156 176 177 182 181
8 152 153 158 157 177 178 183 182
8 153 154 159 158 178 179 184 183
8 155 156 161 160 180 181 186 185
8 156 157 162 161 181 182 187 186
8 157 158 163 162 182 183 188 187
8 158 159 164 163 183 184 189 188
8 160 161 166 165 185 186 191 190
8 161 162 167 166 186 187 192 191
8 162 163 168 167 187 188 193 192
8 163 164 169 168 188 189 194 193
8 165 166 171 170 190 191 196 195
8 166 167 172 171 191 192 197 196
8 167 168 173 172 192 193 198 197
8 168 169 174 173 193 194 199 198
8 175 176 181 180 200 201 206 205
8 176 177 182 181 201 202 207 206
8 177 178 183 182 202 203 208 207
8 178 179 184 183 203 204 209 208
8 180 181 186 185 205 206 211 210
8 181 182 187 186 206 207 212 211
8 182 183 188 187 207 208 213 212
8 183 184 189 188 208 209 214 213
8 185 186 191 190 210 211 216 215
8 186 187 192 191 211 212 217 216
8 187 188 193 192 212 213 218 217
8 188 189 194 193 213 214 219 218
8 190 191 196 195 215 216 221 220
8 191 192 197 196 216 217 222 221
8 192 193 198 197 217 218 223 222
8 193 194 199 198 218 219 224 223
8 200 201 206 205 225 226 231 230
8 201 202 207 206 226 227 232 231
8 202 203 208 207 227 228 233 232
8 203 204 209 208 228 229 234 233
8 205 206 211 210 230 231 236 235
8 206 207 212 211 231 232 237 236
8 207 208 213 212 232 233 238 237
8 208 209 214 213 233 234 239 238
8 210 211 216 215 235 236 241 240
8 211 212 217 216 236 237 242 241
8 212 213 218 217 237 238 243 242
8 213 214 219 218 238 239 244 243
8 215 216 221 220 240 241 246 245
8 216 217 222 221 241 242 247 246
8 217 218 223 222 242 243 248 247
8 218 219 224 223 243 244 249 248
CELL_TYPES 128
12
12
12
12
12
12
12
12
12
12
12
12
12
12
12
12
12
12
12
12
12
12
12
12
12
12
12
12
12
12
12
12
12
12
12
12
12
12
12
12
12
12
12
12
12
12
12
12
12
12
12
12
12
12
12
12
12
12
12
12
12
12
12
12
12
12
12
12
12
12
12
12
12
12
12
12
12
12
12
12
12
12
12
12
12
12
12
12
12
12
12
12
12
12
12
12
12
12
12
12
12
12
12
12
12
12
12
12
12
12
12
12
12
12
12
12
12
12
12
12
12
12
12
12
12
12
12
12
POINT_DATA 250
VECTORS displacement float
0.000000000000e+00 0.000000000000e+00 0.000000000000e+00
0.000000000000e+00 0.000000000000e+00 0.000000000000e+00
0.000000000000e+00 0.000000000000e+00 0.000000000000e+00
0.000000000000e+00 0.000000000000e+00 0.000000000000e+00
0.000000000000e+00 0.000000000000e+00 0.000000000000e+00
0.000000000000e+00 0.000000000000e+00 0.000000000000e+00
0.000000000000e+00 0.000000000000e+00 0.000000000000e+00
0.000000000000e+00 0.000000000000e+00 0.000000000000e+00
0.000000000000e+00 0.000000000000e+00 0.000000000000e+00
0.000000000000e+00 0.000000000000e+00 0.000000000000e+00
0.000000000000e+00 0.000000000000e+00 0.000000000000e+00
0.000000000000e+00 0.000000000000e+00 0.000000000000e+00
0.000000000000e+00 0.000000000000e+00 0.000000000000e+00
0.000000000000e+00 0.000000000000e+00 0.000000000000e+00
0.000000000000e+00 0.000000000000e+00 0.000000000000e+00
0.000000000000e+00 0.000000000000e+00 0.000000000000e+00
0.000000000000e+00 0.000000000000e+00 0.000000000000e+00
0.000000000000e+00 0.000000000000e+00 0.000000000000e+00
0.000000000000e+00 0.000000000000e+00 0.000000000000e+00
0.000000000000e+00 0.000000000000e+00 0.000000000000e+00
0.000000000000e+00 0.000000000000e+00 0.000000000000e+00
0.000000000000e+00 0.000000000000e+00 0.000000000000e+00
0.000000000000e+00 0.000000000000e+00 0.000000000000e+00
0.000000000000e+00 0.000000000000e+00 0.000000000000e+00
0.000000000000e+00 0.000000000000e+00 0.000000000000e+00
0.000000000000e+00 0.000000000000e+00 0.000000000000e+00
0.000000000000e+00 0.000000000000e+00 0.000000000000e+00
0.000000000000e+00 0.000000000000e+00 0.000000000000e+00
0.000000000000e+00 0.000000000000e+00 0.000000000000e+00
0.000000000000e+00 0.000000000000e+00 0.000000000000e+00
0.000000000000e+00 0.000000000000e+00 0.000000000000e+00
0.000000000000e+00 0.000000000000e+00 0.000000000000e+00
0.000000000000e+00 0.000000000000e+00 0.000000000000e+00
0.000000000000e+00 0.000000000000e+00 0.000000000000e+00
0.000000000000e+00 0.000000000000e+00 0.000000000000e+00
0.000000000000e+00 0.000000000000e+00 0.000000000000e+00
0.000000000000e+00 0.000000000000e+00 0.000000000000e+00
0.000000000000e+00 0.000000000000e+00 0.000000000000e+00
0.000000000000e+00 0.000000000000e+00 0.000000000000e+00
0.000000000000e+00 0.000000000000e+00 0.000000000000e+00
0.000000000000e+00 0.000000000000e+00 0.000000000000e+00
0.000000000000e+00 0.000000000000e+00 0.000000000000e+00
0.000000000000e+00 0.000000000000e+00 0.000000000000e+00
0.000000000000e+00 0.000000000000e+00 0.000000000000e+00
0.000000000000e+00 0.000000000000e+00 0.000000000000e+00
0.000000000000e+00 0.000000000000e+00 0.000000000000e+00
0.000000000000e+00 0.000000000000e+00 0.000000000000e+00
0.000000000000e+00 0.000000000000e+00 0.000000000000e+00
0.000000000000e+00 0.000000000000e+00 0.000000000000e+00
0.000000000000e+00 0.000000000000e+00 0.000000000000e+00
0.000000000000e+00 0.000000000000e+00 0.000000000000e+00
0.000000000000e+00 0.000000000000e+00 0.000000000000e+00
0.000000000000e+00 0.000000000000e+00 0.000000000000e+00
0.000000000000e+00 0.000000000000e+00 0.000000000000e+00
0.000000000000e+00 0.000000000000e+00 0.000000000000e+00
0.000000000000e+00 0.000000000000e+00 0.000000000000e+00
0.000000000000e+00 0.000000000000e+00 0.000000000000e+00
0.000000000000e+00 0.000000000000e+00 0.000000000000e+00
0.000000000000e+00 0.000000000000e+00 0.000000000000e+00
0.000000000000e+00 0.000000000000e+00 0.000000000000e+00
0.000000000000e+00 0.000000000000e+00 0.000000000000e+00
0.000000000000e+00 0.000000000000e+00 0.000000000000e+00
0.000000000000e+00 0.000000000000e+00 0.000000000000e+00
0.000000000000e+00 0.000000000000e+00 0.000000000000e+00
0.000000000000e+00 0.000000000000e+00 0.000000000000e+00
0.000000000000e+00 0.000000000000e+00 0.000000000000e+00
0.000000000000e+00 0.000000000000e+00 0.000000000000e+00
0.000000000000e+00 0.000000000000e+00 0.000000000000e+00
0.000000000000e+00 0.000000000000e+00 0.000000000000e+00
0.000000000000e+00 0.000000000000e+00 0.000000000000e+00
0.000000000000e+00 0.000000000000e+00 0.000000000000e+00
0.000000000000e+00 0.000000000000e+00 0.000000000000e+00
0.000000000000e+00 0.000000000000e+00 0.000000000000e+00
0.000000000000e+00 0.000000000000e+00 0.000000000000e+00
0.000000000000e+00 0.000000000000e+00 0.000000000000e+00
0.000000000000e+00 0.000000000000e+00 0.000000000000e+00
0.000000000000e+00 0.000000000000e+00 0.000000000000e+00
0.000000000000e+00 0.000000000000e+00 0.000000000000e+00
0.000000000000e+00 0.000000000000e+00 0.000000000000e+00
0.000000000000e+00 0.000000000000e+00 0.000000000000e+00
0.000000000000e+00 0.000000000000e+00 0.000000000000e+00
0.000000000000e+00 0.000000000000e+00 0.000000000000e+00
0.000000000000e+00 0.000000000000e+00 0.000000000000e+00
0.000000000000e+00 0.000000000000e+00 0.000000000000e+00
0.000000000000e+00 0.000000000000e+00 0.000000000000e+00
0.000000000000e+00 0.000000000000e+00 0.000000000000e+00
0.000000000000e+00 0.000000000000e+00 0.000000000000e+00
0.000000000000e+00 0.000000000000e+00 0.000000000000e+00
0.000000000000e+00 0.000000000000e+00 0.000000000000e+00
0.000000000000e+00 0.000000000000e+00 0.000000000000e+00
0.000000000000e+00 0.000000000000e+00 0.000000000000e+00
0.000000000000e+00 0.000000000000e+00 0.000000000000e+00
0.000000000000e+00 0.000000000000e+00 0.000000000000e+00
0.000000000000e+00 0.000000000000e+00 0.000000000000e+00
0.000000000000e+00 0.000000000000e+00 0.000000000000e+00
0.000000000000e+00 0.000000000000e+00 0.000000000000e+00
0.000000000000e+00 0.000000000000e+00 0.000000000000e+00
0.000000000000e+00 0.000000000000e+00 0.000000000000e+00
0.000000000000e+00 0.000000000000e+00 0.000000000000e+00
0.000000000000e+00 0.000000000000e+00 0.000000000000e+00
0.000000000000e+00 0.000000000000e+00 0.000000000000e+00
0.000000000000e+00 0.000000000000e+00 0.000000000000e+00
0.000000000000e+00 0.000000000000e+00 0.000000000000e+00
0.000000000000e+00 0.000000000000e+00 0.000000000000e+00
0.000000000000e+00 0.000000000000e+00 0.000000000000e+00
0.000000000000e+00 0.000000000000e+00 0.000000000000e+00
0.000000000000e+00 0.000000000000e+00 0.000000000000e+00
0.000000000000e+00 0.000000000000e+00 0.000000000000e+00
0.000000000000e+00 0.000000000000e+00 0.000000000000e+00
0.000000000000e+00 0.000000000000e+00 0.000000000000e+00
0.000000000000e+00 0.000000000000e+00 0.000000000000e+00
0.000000000000e+00 0.000000000000e+00 0.000000000000e+00
0.000000000000e+00 0.000000000000e+00 0.000000000000e+00
0.000000000000e+00 0.000000000000e+00 0.000000000000e+00
0.000000000000e+00 0.000000000000e+00 0.000000000000e+00
0.000000000000e+00 0.000000000000e+00 0.000000000000e+00
0.000000000000e+00 0.000000000000e+00 0.000000000000e+00
0.000000000000e+00 0.000000000000e+00 0.000000000000e+00
0.000000000000e+00 0.000000000000e+00 0.000000000000e+00
0.000000000000e+00 0.000000000000e+00 0.000000000000e+00
0.000000000000e+00 0.000000000000e+00 0.000000000000e+00
0.000000000000e+00 0.000000000000e+00 0.000000000000e+00
0.000000000000e+00 0.000000000000e+00 0.000000000000e+00
0.000000000000e+00 0.000000000000e+00 0.000000000000e+00
0.000000000000e+00 0.000000000000e+00 0.000000000000e+00
-1.647223670164e-06 -1.647223698947e-06 -1.504521226903e-02
-8.719745497040e-07 -1.636920525664e-06 -1.504577726133e-02
1.282718554807e-14 -1.615427410521e-06 -1.504599286575e-02
8.719745753410e-07 -1.636920524438e-06 -1.504577726133e-02
1.647223695783e-06 -1.647223696476e-06 -1.504521226903e-02
-1.636920498121e-06 -8.719745784896e-07 -1.504577726133e-02
-8.697817122927e-07 -8.697817398440e-07 -1.504633097529e-02
1.220287845785e-14 -8.608962980298e-07 -1.504653971246e-02
8.697817366927e-07 -8.697817386156e-07 -1.504633097529e-02
1.636920522503e-06 -8.719745760260e-07 -1.504577726133e-02
-1.615427384225e-06 -1.597806042733e-14 -1.504599286575e-02
-8.608962717220e-07 -1.535757507376e-14 -1.504653971246e-02
1.157390014808e-14 -1.474319041353e-14 -1.504674734254e-02
8.608962948632e-07 -1.412464138351e-14 -1.504653971246e-02
1.615427407355e-06 -1.350524829497e-14 -1.504599286575e-02
-1.636920499375e-06 8.719745465216e-07 -1.504577726133e-02
-8.697817135564e-07 8.697817091243e-07 -1.504633097529e-02
1.093722719527e-14 8.608962685484e-07 -1.504653971246e-02
8.697817354244e-07 8.697817103604e-07 -1.504633097529e-02
1.636920521238e-06 8.719745490091e-07 -1.504577726133e-02
-1.647223672654e-06 1.647223666962e-06 -1.504521226903e-02
-8.719745522067e-07 1.636920494934e-06 -1.504577726133e-02
1.030351719685e-14 1.615427381046e-06 -1.504599286575e-02
8.719745728161e-07 1.636920496174e-06 -1.504577726133e-02
1.647223693256e-06 1.647223669452e-06 -1.504521226903e-02
-1.290969934903e-06 -1.290969963693e-06 -1.504643741255e-02
-6.679216968360e-07 -1.287857568375e-06 -1.504702976394e-02
1.280218672688e-14 -1.274158943846e-06 -1.504725716474e-02
6.679217224347e-07 -1.287857567134e-06 -1.504702976394e-02
1.290969960485e-06 -1.290969961223e-06 -1.504643741255e-02
-1.287857540820e-06 -6.679217256353e-07 -1.504702976394e-02
-6.675964511214e-07 -6.675964786815e-07 -1.504761376903e-02
1.218242633010e-14 -6.611950210309e-07 -1.504783545878e-02
6.675964754830e-07 -6.675964774468e-07 -1.504761376903e-02
1.287857565168e-06 -6.679217231595e-07 -1.504702976394e-02
-1.274158917535e-06 -1.600896000100e-14 -1.504725716474e-02
-6.611949947110e-07 -1.538550974752e-14 -1.504783545878e-02
1.155634551308e-14 -1.476171239283e-14 -1.504805656190e-02
6.611950178222e-07 -1.414483328969e-14 -1.504783545878e-02
1.274158940635e-06 -1.352405556074e-14 -1.504725716474e-02
-1.287857542075e-06 6.679216936150e-07 -1.504702976394e-02
-6.675964523751e-07 6.675964479101e-07 -1.504761376903e-02
1.092570851797e-14 6.611949914977e-07 -1.504783545878e-02
6.675964742188e-07 6.675964491562e-07 -1.504761376903e-02
1.287857563907e-06 6.679216961129e-07 -1.504702976394e-02
-1.290969937393e-06 1.290969931667e-06 -1.504643741255e-02
-6.679216993385e-07 1.287857537593e-06 -1.504702976394e-02
1.029392486311e-14 1.274158914312e-06 -1.504725716474e-02
6.679217199240e-07 1.287857538839e-06 -1.504702976394e-02
1.290969957973e-06 1.290969934170e-06 -1.504643741255e-02
-8.835519914675e-07 -8.835520202700e-07 -1.504729061864e-02
-4.671148058622e-07 -8.801431609619e-07 -1.504790584091e-02
1.277993510315e-14 -8.705427349612e-07 -1.504814159321e-02
4.671148314204e-07 -8.801431597192e-07 -1.504790584091e-02
8.835520170178e-07 -8.835520177885e-07 -1.504729061864e-02
-8.801431333921e-07 -4.671148346725e-07 -1.504790584091e-02
-4.670729591531e-07 -4.670729867206e-07 -1.504851537116e-02
1.216034417380e-14 -4.629555459995e-07 -1.504874623082e-02
4.670729834732e-07 -4.670729854784e-07 -1.504851537116e-02
8.801431577039e-07 -4.671148321890e-07 -1.504790584091e-02
-8.705427086376e-07 -1.604015384785e-14 -1.504814159321e-02
-4.629555196743e-07 -1.541239116995e-14 -1.504874623082e-02
1.153961244770e-14 -1.478546774198e-14 -1.504897687473e-02
4.629555427482e-07 -1.416575427374e-14 -1.504874623082e-02
8.705427316960e-07 -1.354213112707e-14 -1.504814159321e-02
-8.801431346409e-07 4.671148025971e-07 -1.504790584091e-02
-4.670729603993e-07 4.670729558935e-07 -1.504851537116e-02
1.090800997662e-14 4.629555164215e-07 -1.504874623082e-02
4.670729822166e-07 4.670729571463e-07 -1.504851537116e-02
8.801431564513e-07 4.671148051034e-07 -1.504790584091e-02
-8.835519939560e-07 8.835519881929e-07 -1.504729061864e-02
-4.671148083605e-07 8.801431301253e-07 -1.504790584091e-02
1.027779151636e-14 8.705427053672e-07 -1.504814159321e-02
4.671148289154e-07 8.801431313809e-07 -1.504790584091e-02
8.835520145084e-07 8.835519907055e-07 -1.504729061864e-02
-4.736900184659e-07 -4.736900472795e-07 -1.504780032534e-02
-2.577236611425e-07 -4.699047013803e-07 -1.504842797687e-02
1.275657549942e-14 -4.649621757989e-07 -1.504867699268e-02
2.577236866542e-07 -4.699047001360e-07 -1.504842797687e-02
4.736900439707e-07 -4.736900447875e-07 -1.504780032534e-02
-4.699046738042e-07 -2.577236899612e-07 -1.504842797687e-02
-2.577022659269e-07 -2.577022935051e-07 -1.504904958305e-02
1.213795199634e-14 -2.556375698104e-07 -1.504929446883e-02
2.577022902005e-07 -2.577022922523e-07 -1.504904958305e-02
4.699046980752e-07 -2.577236874710e-07 -1.504842797687e-02
-4.649621494670e-07 -1.607087201687e-14 -1.504867699268e-02
-2.556375434748e-07 -1.544324472601e-14 -1.504929446883e-02
1.152046171237e-14 -1.481342950119e-14 -1.504954038991e-02
2.556375665112e-07 -1.418856459519e-14 -1.504929446883e-02
4.649621724953e-07 -1.356201677707e-14 -1.504867699268e-02
-4.699046750511e-07 2.577236578264e-07 -1.504842797687e-02
-2.577022671707e-07 2.577022626196e-07 -1.504904958305e-02
1.089279741748e-14 2.556375401783e-07 -1.504929446883e-02
2.577022889579e-07 2.577022638803e-07 -1.504904958305e-02
4.699046968367e-07 2.577236603458e-07 -1.504842797687e-02
-4.736900209556e-07 4.736900151450e-07 -1.504780032534e-02
-2.577236636355e-07 4.699046704920e-07 -1.504842797687e-02
1.026105192627e-14 4.649621461593e-07 -1.504867699268e-02
2.577236841609e-07 4.699046717581e-07 -1.504842797687e-02
4.736900414805e-07 4.736900176668e-07 -1.504780032534e-02
-9.706574244475e-08 -9.706577127080e-08 -1.504798894209e-02
-3.009339851099e-08 -1.001226039603e-07 -1.504861715416e-02
1.272766788212e-14 -1.035777927266e-07 -1.504887107348e-02
3.009342396557e-08 -1.001226026965e-07 -1.504861715416e-02
9.706576789703e-08 -9.706576877460e-08 -1.504798894209e-02
-1.001225763664e-07 -3.009342733819e-08 -1.504861715416e-02
-3.071659833829e-08 -3.071662592853e-08 -1.504923807811e-02
1.211254779469e-14 -3.014790545571e-08 -1.504948771522e-02
3.071662256352e-08 -3.071662466962e-08 -1.504923807811e-02
1.001226005897e-07 -3.009342483029e-08 -1.504861715416e-02
-1.035777663847e-07 -1.610174186585e-14 -1.504887107348e-02
-3.014787911513e-08 -1.547425005485e-14 -1.504948771522e-02
1.149888921500e-14 -1.484472401753e-14 -1.504973843639e-02
3.014790211275e-08 -1.420784513868e-14 -1.504948771522e-02
1.035777893836e-07 -1.357817616872e-14 -1.504887107348e-02
-1.001225776175e-07 3.009339513914e-08 -1.504861715416e-02
-3.071659958481e-08 3.071659497862e-08 -1.504923807811e-02
1.087945810979e-14 3.014787576783e-08 -1.504948771522e-02
3.071662133860e-08 3.071659625070e-08 -1.504923807811e-02
1.001225993674e-07 3.009339767211e-08 -1.504861715416e-02
-9.706574494544e-08 9.706573907925e-08 -1.504798894209e-02
-3.009340100136e-08 1.001225730006e-07 -1.504861715416e-02
1.025130960740e-14 1.035777630381e-07 -1.504887107348e-02
3.009342149833e-08 1.001225742767e-07 -1.504861715416e-02
9.706576543136e-08 9.706574161262e-08 -1.504798894209e-02
SCALARS displacement_magnitude float 1
LOOKUP_TABLE default
0.000000000000e+00
0.000000000000e+00
0.000000000000e+00
0.000000000000e+00
0.000000000000e+00
0.000000000000e+00
0.000000000000e+00
0.000000000000e+00
0.000000000000e+00
0.000000000000e+00
0.000000000000e+00
0.000000000000e+00
0.000000000000e+00
0.000000000000e+00
0.000000000000e+00
0.000000000000e+00
0.000000000000e+00
0.000000000000e+00
0.000000000000e+00
0.000000000000e+00
0.000000000000e+00
0.000000000000e+00
0.000000000000e+00
0.000000000000e+00
0.000000000000e+00
0.000000000000e+00
0.000000000000e+00
0.000000000000e+00
0.000000000000e+00
0.000000000000e+00
0.000000000000e+00
0.000000000000e+00
0.000000000000e+00
0.000000000000e+00
0.000000000000e+00
0.000000000000e+00
0.000000000000e+00
0.000000000000e+00
0.000000000000e+00
0.000000000000e+00
0.000000000000e+00
0.000000000000e+00
0.000000000000e+00
0.000000000000e+00
0.000000000000e+00
0.000000000000e+00
0.000000000000e+00
0.000000000000e+00
0.000000000000e+00
0.000000000000e+00
0.000000000000e+00
0.000000000000e+00
0.000000000000e+00
0.000000000000e+00
0.000000000000e+00
0.000000000000e+00
0.000000000000e+00
0.000000000000e+00
0.000000000000e+00
0.000000000000e+00
0.000000000000e+00
0.000000000000e+00
0.000000000000e+00
0.000000000000e+00
0.000000000000e+00
0.000000000000e+00
0.000000000000e+00
0.000000000000e+00
0.000000000000e+00
0.000000000000e+00
0.000000000000e+00
0.000000000000e+00
0.000000000000e+00
0.000000000000e+00
0.000000000000e+00
0.000000000000e+00
0.000000000000e+00
0.000000000000e+00
0.000000000000e+00
0.000000000000e+00
0.000000000000e+00
0.000000000000e+00
0.000000000000e+00
0.000000000000e+00
0.000000000000e+00
0.000000000000e+00
0.000000000000e+00
0.000000000000e+00
0.000000000000e+00
0.000000000000e+00
0.000000000000e+00
0.000000000000e+00
0.000000000000e+00
0.000000000000e+00
0.000000000000e+00
0.000000000000e+00
0.000000000000e+00
0.000000000000e+00
0.000000000000e+00
0.000000000000e+00
0.000000000000e+00
0.000000000000e+00
0.000000000000e+00
0.000000000000e+00
0.000000000000e+00
0.000000000000e+00
0.000000000000e+00
0.000000000000e+00
0.000000000000e+00
0.000000000000e+00
0.000000000000e+00
0.000000000000e+00
0.000000000000e+00
0.000000000000e+00
0.000000000000e+00
0.000000000000e+00
0.000000000000e+00
0.000000000000e+00
0.000000000000e+00
0.000000000000e+00
0.000000000000e+00
0.000000000000e+00
0.000000000000e+00
0.000000000000e+00
0.000000000000e+00
1.504521244938e-02
1.504577737564e-02
1.504599295247e-02
1.504577737564e-02
1.504521244938e-02
1.504577737564e-02
1.504633102557e-02
1.504653973709e-02
1.504633102557e-02
1.504577737564e-02
1.504599295247e-02
1.504653973709e-02
1.504674734254e-02
1.504653973709e-02
1.504599295247e-02
1.504577737564e-02
1.504633102557e-02
1.504653973709e-02
1.504633102557e-02
1.504577737564e-02
1.504521244938e-02
1.504577737564e-02
1.504599295247e-02
1.504577737564e-02
1.504521244938e-02
1.504643752332e-02
1.504702983388e-02
1.504725721869e-02
1.504702983388e-02
1.504643752332e-02
1.504702983388e-02
1.504761379865e-02
1.504783547330e-02
1.504761379865e-02
1.504702983388e-02
1.504725721869e-02
1.504783547330e-02
1.504805656190e-02
1.504783547330e-02
1.504725721869e-02
1.504702983388e-02
1.504761379865e-02
1.504783547330e-02
1.504761379865e-02
1.504702983388e-02
1.504643752332e-02
1.504702983388e-02
1.504725721869e-02
1.504702983388e-02
1.504643752332e-02
1.504729067052e-02
1.504790587390e-02
1.504814161839e-02
1.504790587390e-02
1.504729067052e-02
1.504790587390e-02
1.504851538565e-02
1.504874623794e-02
1.504851538565e-02
1.504790587390e-02
1.504814161839e-02
1.504874623794e-02
1.504897687473e-02
1.504874623794e-02
1.504814161839e-02
1.504790587390e-02
1.504851538565e-02
1.504874623794e-02
1.504851538565e-02
1.504790587390e-02
1.504729067052e-02
1.504790587390e-02
1.504814161839e-02
1.504790587390e-02
1.504729067052e-02
1.504780034025e-02
1.504842798641e-02
1.504867699987e-02
1.504842798641e-02
1.504780034025e-02
1.504842798641e-02
1.504904958746e-02
1.504929447100e-02
1.504904958746e-02
1.504842798641e-02
1.504867699987e-02
1.504929447100e-02
1.504954038991e-02
1.504929447100e-02
1.504867699987e-02
1.504842798641e-02
1.504904958746e-02
1.504929447100e-02
1.504904958746e-02
1.504842798641e-02
1.504780034025e-02
1.504842798641e-02
1.504867699987e-02
1.504842798641e-02
1.504780034025e-02
1.504798894271e-02
1.504861715452e-02
1.504887107383e-02
1.504861715452e-02
1.504798894271e-02
1.504861715452e-02
1.504923807817e-02
1.504948771525e-02
1.504923807817e-02
1.504861715452e-02
1.504887107383e-02
1.504948771525e-02
1.504973843639e-02
1.504948771525e-02
1.504887107383e-02
1.504861715452e-02
1.504923807817e-02
1.504948771525e-02
1.504923807817e-02
1.504861715452e-02
1.504798894271e-02
1.504861715452e-02
1.504887107383e-02
1.504861715452e-02
1.504798894271e-02
CELL_DATA 128
SCALARS displacement_magnitude float 1
LOOKUP_TABLE default
0.000000000000e+00
0.000000000000e+00
0.000000000000e+00
0.000000000000e+00
0.000000000000e+00
0.000000000000e+00
0.000000000000e+00
0.000000000000e+00
0.000000000000e+00
0.000000000000e+00
0.000000000000e+00
0.000000000000e+00
0.000000000000e+00
0.000000000000e+00
0.000000000000e+00
0.000000000000e+00
0.000000000000e+00
0.000000000000e+00
0.000000000000e+00
0.000000000000e+00
0.000000000000e+00
0.000000000000e+00
0.000000000000e+00
0.000000000000e+00
0.000000000000e+00
0.000000000000e+00
0.000000000000e+00
0.000000000000e+00
0.000000000000e+00
0.000000000000e+00
0.000000000000e+00
0.000000000000e+00
0.000000000000e+00
0.000000000000e+00
0.000000000000e+00
0.000000000000e+00
0.000000000000e+00
0.000000000000e+00
0.000000000000e+00
0.000000000000e+00
0.000000000000e+00
0.000000000000e+00
0.000000000000e+00
0.000000000000e+00
0.000000000000e+00
0.000000000000e+00
0.000000000000e+00
0.000000000000e+00
0.000000000000e+00
0.000000000000e+00
0.000000000000e+00
0.000000000000e+00
0.000000000000e+00
0.000000000000e+00
0.000000000000e+00
0.000000000000e+00
0.000000000000e+00
0.000000000000e+00
0.000000000000e+00
0.000000000000e+00
0.000000000000e+00
0.000000000000e+00
0.000000000000e+00
0.000000000000e+00
1.504640115199e-02
1.504679717691e-02
1.504679717691e-02
1.504640115199e-02
1.504679717691e-02
1.504718739368e-02
1.504718739368e-02
1.504679717691e-02
1.504679717691e-02
1.504718739368e-02
1.504718739368e-02
1.504679717691e-02
1.504640115199e-02
1.504679717691e-02
1.504679717691e-02
1.504640115199e-02
1.504746609921e-02
1.504788068005e-02
1.504788068005e-02
1.504746609921e-02
1.504788068005e-02
1.504829075543e-02
1.504829075543e-02
1.504788068005e-02
1.504788068005e-02
1.504829075543e-02
1.504829075543e-02
1.504788068005e-02
1.504746609921e-02
1.504788068005e-02
1.504788068005e-02
1.504746609921e-02
1.504816546306e-02
1.504859477008e-02
1.504859477008e-02
1.504816546306e-02
1.504859477008e-02
1.504902045696e-02
1.504902045696e-02
1.504859477008e-02
1.504859477008e-02
1.504902045696e-02
1.504902045696e-02
1.504859477008e-02
1.504816546306e-02
1.504859477008e-02
1.504859477008e-02
1.504816546306e-02
1.504852090381e-02
1.504895788331e-02
1.504895788331e-02
1.504852090381e-02
1.504895788331e-02
1.504939135805e-02
1.504939135805e-02
1.504895788331e-02
1.504895788331e-02
1.504939135805e-02
1.504939135805e-02
1.504895788331e-02
1.504852090381e-02
1.504895788331e-02
1.504895788331e-02
1.504852090381e-02
SCALARS engineering_strain_norm float 1
LOOKUP_TABLE default
0.000000000000e+00
0.000000000000e+00
0.000000000000e+00
0.000000000000e+00
0.000000000000e+00
0.000000000000e+00
0.000000000000e+00
0.000000000000e+00
0.000000000000e+00
0.000000000000e+00
0.000000000000e+00
0.000000000000e+00
0.000000000000e+00
0.000000000000e+00
0.000000000000e+00
0.000000000000e+00
0.000000000000e+00
0.000000000000e+00
0.000000000000e+00
0.000000000000e+00
0.000000000000e+00
0.000000000000e+00
0.000000000000e+00
0.000000000000e+00
0.000000000000e+00
0.000000000000e+00
0.000000000000e+00
0.000000000000e+00
0.000000000000e+00
0.000000000000e+00
0.000000000000e+00
0.000000000000e+00
0.000000000000e+00
0.000000000000e+00
0.000000000000e+00
0.000000000000e+00
0.000000000000e+00
0.000000000000e+00
0.000000000000e+00
0.000000000000e+00
0.000000000000e+00
0.000000000000e+00
0.000000000000e+00
0.000000000000e+00
0.000000000000e+00
0.000000000000e+00
0.000000000000e+00
0.000000000000e+00
0.000000000000e+00
0.000000000000e+00
0.000000000000e+00
0.000000000000e+00
0.000000000000e+00
0.000000000000e+00
0.000000000000e+00
0.000000000000e+00
0.000000000000e+00
0.000000000000e+00
0.000000000000e+00
0.000000000000e+00
0.000000000000e+00
0.000000000000e+00
0.000000000000e+00
0.000000000000e+00
2.083321405662e-05
2.127082026126e-05
2.127082026118e-05
2.083321405640e-05
2.127082026126e-05
2.173505457557e-05
2.173505457561e-05
2.127082026118e-05
2.127082026124e-05
2.173505457555e-05
2.173505457551e-05
2.127082026115e-05
2.083321405646e-05
2.127082026115e-05
2.127082026113e-05
2.083321405637e-05
1.470844966370e-05
1.504711106762e-05
1.504711106756e-05
1.470844966350e-05
1.504711106759e-05
1.540596404666e-05
1.540596404661e-05
1.504711106744e-05
1.504711106758e-05
1.540596404657e-05
1.540596404652e-05
1.504711106745e-05
1.470844966355e-05
1.504711106739e-05
1.504711106737e-05
1.470844966347e-05
8.787887085616e-06
9.080082939567e-06
9.080082939568e-06
8.787887085449e-06
9.080082939496e-06
9.384577792288e-06
9.384577792254e-06
9.080082939483e-06
9.080082939597e-06
9.384577792208e-06
9.384577792191e-06
9.080082939465e-06
8.787887085507e-06
9.080082939342e-06
9.080082939369e-06
8.787887085492e-06
3.358186971135e-06
3.388332824884e-06
3.388332824863e-06
3.358186971106e-06
3.388332824891e-06
3.405133517598e-06
3.405133517564e-06
3.388332824890e-06
3.388332824903e-06
3.405133517624e-06
3.405133517637e-06
3.388332824926e-06
3.358186971143e-06
3.388332824810e-06
3.388332824851e-06
3.358186971134e-06
SCALARS von_mises float 1
LOOKUP_TABLE default
0.000000000000e+00
0.000000000000e+00
0.000000000000e+00
0.000000000000e+00
0.000000000000e+00
0.000000000000e+00
0.000000000000e+00
0.000000000000e+00
0.000000000000e+00
0.000000000000e+00
0.000000000000e+00
0.000000000000e+00
0.000000000000e+00
0.000000000000e+00
0.000000000000e+00
0.000000000000e+00
0.000000000000e+00
0.000000000000e+00
0.000000000000e+00
0.000000000000e+00
0.000000000000e+00
0.000000000000e+00
0.000000000000e+00
0.000000000000e+00
0.000000000000e+00
0.000000000000e+00
0.000000000000e+00
0.000000000000e+00
0.000000000000e+00
0.000000000000e+00
0.000000000000e+00
0.000000000000e+00
0.000000000000e+00
0.000000000000e+00
0.000000000000e+00
0.000000000000e+00
0.000000000000e+00
0.000000000000e+00
0.000000000000e+00
0.000000000000e+00
0.000000000000e+00
0.000000000000e+00
0.000000000000e+00
0.000000000000e+00
0.000000000000e+00
0.000000000000e+00
0.000000000000e+00
0.000000000000e+00
0.000000000000e+00
0.000000000000e+00
0.000000000000e+00
0.000000000000e+00
0.000000000000e+00
0.000000000000e+00
0.000000000000e+00
0.000000000000e+00
0.000000000000e+00
0.000000000000e+00
0.000000000000e+00
0.000000000000e+00
0.000000000000e+00
0.000000000000e+00
0.000000000000e+00
0.000000000000e+00
1.911922801875e+00
1.956768454361e+00
1.956768454354e+00
1.911922801854e+00
1.956768454361e+00
2.004339296994e+00
2.004339296997e+00
1.956768454353e+00
1.956768454359e+00
2.004339296992e+00
2.004339296988e+00
1.956768454351e+00
1.911922801859e+00
1.956768454351e+00
1.956768454349e+00
1.911922801851e+00
1.356508796638e+00
1.390101433215e+00
1.390101433210e+00
1.356508796620e+00
1.390101433212e+00
1.425695214054e+00
1.425695214050e+00
1.390101433200e+00
1.390101433211e+00
1.425695214046e+00
1.425695214042e+00
1.390101433201e+00
1.356508796624e+00
1.390101433195e+00
1.390101433193e+00
1.356508796617e+00
8.114822802097e-01
8.409791933083e-01
8.409791933082e-01
8.114822801950e-01
8.409791933017e-01
8.716951043731e-01
8.716951043700e-01
8.409791933006e-01
8.409791933106e-01
8.716951043657e-01
8.716951043644e-01
8.409791932995e-01
8.114822801999e-01
8.409791932878e-01
8.409791932906e-01
8.114822801988e-01
3.123948929295e-01
3.156340530828e-01
3.156340530809e-01
3.123948929269e-01
3.156340530832e-01
3.178672453150e-01
3.178672453121e-01
3.156340530837e-01
3.156340530846e-01
3.178672453173e-01
3.178672453188e-01
3.156340530871e-01
3.123948929308e-01
3.156340530763e-01
3.156340530803e-01
3.123948929297e-01
SCALARS sdf_gap float 1
LOOKUP_TABLE default
0.000000000000e+00
0.000000000000e+00
0.000000000000e+00
0.000000000000e+00
0.000000000000e+00
0.000000000000e+00
0.000000000000e+00
0.000000000000e+00
0.000000000000e+00
0.000000000000e+00
0.000000000000e+00
0.000000000000e+00
0.000000000000e+00
0.000000000000e+00
0.000000000000e+00
0.000000000000e+00
0.000000000000e+00
0.000000000000e+00
0.000000000000e+00
0.000000000000e+00
0.000000000000e+00
0.000000000000e+00
0.000000000000e+00
0.000000000000e+00
0.000000000000e+00
0.000000000000e+00
0.000000000000e+00
0.000000000000e+00
0.000000000000e+00
0.000000000000e+00
0.000000000000e+00
0.000000000000e+00
0.000000000000e+00
0.000000000000e+00
0.000000000000e+00
0.000000000000e+00
0.000000000000e+00
0.000000000000e+00
0.000000000000e+00
0.000000000000e+00
0.000000000000e+00
0.000000000000e+00
0.000000000000e+00
0.000000000000e+00
0.000000000000e+00
0.000000000000e+00
0.000000000000e+00
0.000000000000e+00
0.000000000000e+00
0.000000000000e+00
0.000000000000e+00
0.000000000000e+00
0.000000000000e+00
0.000000000000e+00
0.000000000000e+00
0.000000000000e+00
0.000000000000e+00
0.000000000000e+00
0.000000000000e+00
0.000000000000e+00
0.000000000000e+00
0.000000000000e+00
0.000000000000e+00
0.000000000000e+00
-4.577444174644e-05
-4.616020370747e-05
-4.616020370744e-05
-4.577444174632e-05
-4.616020370745e-05
-4.653943568562e-05
-4.653943568559e-05
-4.616020370732e-05
-4.616020370738e-05
-4.653943568557e-05
-4.653943568553e-05
-4.616020370731e-05
-4.577444174628e-05
-4.616020370730e-05
-4.616020370728e-05
-4.577444174622e-05
0.000000000000e+00
0.000000000000e+00
0.000000000000e+00
0.000000000000e+00
0.000000000000e+00
0.000000000000e+00
0.000000000000e+00
0.000000000000e+00
0.000000000000e+00
0.000000000000e+00
0.000000000000e+00
0.000000000000e+00
0.000000000000e+00
0.000000000000e+00
0.000000000000e+00
0.000000000000e+00
0.000000000000e+00
0.000000000000e+00
0.000000000000e+00
0.000000000000e+00
0.000000000000e+00
0.000000000000e+00
0.000000000000e+00
0.000000000000e+00
0.000000000000e+00
0.000000000000e+00
0.000000000000e+00
0.000000000000e+00
0.000000000000e+00
0.000000000000e+00
0.000000000000e+00
0.000000000000e+00
0.000000000000e+00
0.000000000000e+00
0.000000000000e+00
0.000000000000e+00
0.000000000000e+00
0.000000000000e+00
0.000000000000e+00
0.000000000000e+00
0.000000000000e+00
0.000000000000e+00
0.000000000000e+00
0.000000000000e+00
0.000000000000e+00
0.000000000000e+00
0.000000000000e+00
0.000000000000e+00
SCALARS contact_pressure float 1
LOOKUP_TABLE default
0.000000000000e+00
0.000000000000e+00
0.000000000000e+00
0.000000000000e+00
0.000000000000e+00
0.000000000000e+00
0.000000000000e+00
0.000000000000e+00
0.000000000000e+00
0.000000000000e+00
0.000000000000e+00
0.000000000000e+00
0.000000000000e+00
0.000000000000e+00
0.000000000000e+00
0.000000000000e+00
0.000000000000e+00
0.000000000000e+00
0.000000000000e+00
0.000000000000e+00
0.000000000000e+00
0.000000000000e+00
0.000000000000e+00
0.000000000000e+00
0.000000000000e+00
0.000000000000e+00
0.000000000000e+00
0.000000000000e+00
0.000000000000e+00
0.000000000000e+00
0.000000000000e+00
0.000000000000e+00
0.000000000000e+00
0.000000000000e+00
0.000000000000e+00
0.000000000000e+00
0.000000000000e+00
0.000000000000e+00
0.000000000000e+00
0.000000000000e+00
0.000000000000e+00
0.000000000000e+00
0.000000000000e+00
0.000000000000e+00
0.000000000000e+00
0.000000000000e+00
0.000000000000e+00
0.000000000000e+00
0.000000000000e+00
0.000000000000e+00
0.000000000000e+00
0.000000000000e+00
0.000000000000e+00
0.000000000000e+00
0.000000000000e+00
0.000000000000e+00
0.000000000000e+00
0.000000000000e+00
0.000000000000e+00
0.000000000000e+00
0.000000000000e+00
0.000000000000e+00
0.000000000000e+00
0.000000000000e+00
2.288722087322e+00
2.308010185374e+00
2.308010185372e+00
2.288722087316e+00
2.308010185372e+00
2.326971784281e+00
2.326971784279e+00
2.308010185366e+00
2.308010185369e+00
2.326971784278e+00
2.326971784277e+00
2.308010185365e+00
2.288722087314e+00
2.308010185365e+00
2.308010185364e+00
2.288722087311e+00
0.000000000000e+00
0.000000000000e+00
0.000000000000e+00
0.000000000000e+00
0.000000000000e+00
0.000000000000e+00
0.000000000000e+00
0.000000000000e+00
0.000000000000e+00
0.000000000000e+00
0.000000000000e+00
0.000000000000e+00
0.000000000000e+00
0.000000000000e+00
0.000000000000e+00
0.000000000000e+00
0.000000000000e+00
0.000000000000e+00
0.000000000000e+00
0.000000000000e+00
0.000000000000e+00
0.000000000000e+00
0.000000000000e+00
0.000000000000e+00
0.000000000000e+00
0.000000000000e+00
0.000000000000e+00
0.000000000000e+00
0.000000000000e+00
0.000000000000e+00
0.000000000000e+00
0.000000000000e+00
0.000000000000e+00
0.000000000000e+00
0.000000000000e+00
0.000000000000e+00
0.000000000000e+00
0.000000000000e+00
0.000000000000e+00
0.000000000000e+00
0.000000000000e+00
0.000000000000e+00
0.000000000000e+00
0.000000000000e+00
0.000000000000e+00
0.000000000000e+00
0.000000000000e+00
0.000000000000e+00
SCALARS active_contact float 1
LOOKUP_TABLE default
0.000000000000e+00
0.000000000000e+00
0.000000000000e+00
0.000000000000e+00
0.000000000000e+00
0.000000000000e+00
0.000000000000e+00
0.000000000000e+00
0.000000000000e+00
0.000000000000e+00
0.000000000000e+00
0.000000000000e+00
0.000000000000e+00
0.000000000000e+00
0.000000000000e+00
0.000000000000e+00
0.000000000000e+00
0.000000000000e+00
0.000000000000e+00
0.000000000000e+00
0.000000000000e+00
0.000000000000e+00
0.000000000000e+00
0.000000000000e+00
0.000000000000e+00
0.000000000000e+00
0.000000000000e+00
0.000000000000e+00
0.000000000000e+00
0.000000000000e+00
0.000000000000e+00
0.000000000000e+00
0.000000000000e+00
0.000000000000e+00
0.000000000000e+00
0.000000000000e+00
0.000000000000e+00
0.000000000000e+00
0.000000000000e+00
0.000000000000e+00
0.000000000000e+00
0.000000000000e+00
0.000000000000e+00
0.000000000000e+00
0.000000000000e+00
0.000000000000e+00
0.000000000000e+00
0.000000000000e+00
0.000000000000e+00
0.000000000000e+00
0.000000000000e+00
0.000000000000e+00
0.000000000000e+00
0.000000000000e+00
0.000000000000e+00
0.000000000000e+00
0.000000000000e+00
0.000000000000e+00
0.000000000000e+00
0.000000000000e+00
0.000000000000e+00
0.000000000000e+00
0.000000000000e+00
0.000000000000e+00
1.000000000000e+00
1.000000000000e+00
1.000000000000e+00
1.000000000000e+00
1.000000000000e+00
1.000000000000e+00
1.000000000000e+00
1.000000000000e+00
1.000000000000e+00
1.000000000000e+00
1.000000000000e+00
1.000000000000e+00
1.000000000000e+00
1.000000000000e+00
1.000000000000e+00
1.000000000000e+00
0.000000000000e+00
0.000000000000e+00
0.000000000000e+00
0.000000000000e+00
0.000000000000e+00
0.000000000000e+00
0.000000000000e+00
0.000000000000e+00
0.000000000000e+00
0.000000000000e+00
0.000000000000e+00
0.000000000000e+00
0.000000000000e+00
0.000000000000e+00
0.000000000000e+00
0.000000000000e+00
0.000000000000e+00
0.000000000000e+00
0.000000000000e+00
0.000000000000e+00
0.000000000000e+00
0.000000000000e+00
0.000000000000e+00
0.000000000000e+00
0.000000000000e+00
0.000000000000e+00
0.000000000000e+00
0.000000000000e+00
0.000000000000e+00
0.000000000000e+00
0.000000000000e+00
0.000000000000e+00
0.000000000000e+00
0.000000000000e+00
0.000000000000e+00
0.000000000000e+00
0.000000000000e+00
0.000000000000e+00
0.000000000000e+00
0.000000000000e+00
0.000000000000e+00
0.000000000000e+00
0.000000000000e+00
0.000000000000e+00
0.000000000000e+00
0.000000000000e+00
0.000000000000e+00
0.000000000000e+00
