# vtk DataFile Version 3.0
SFC long-time C3D8 dynamic frame 35 t=7.000000000000e-01
ASCII
DATASET UNSTRUCTURED_GRID
POINTS 250 float
-2.500000000000e-01 -2.500000000000e-01 0.000000000000e+00
-1.250000000000e-01 -2.500000000000e-01 0.000000000000e+00
0.000000000000e+00 -2.500000000000e-01 0.000000000000e+00
1.250000000000e-01 -2.500000000000e-01 0.000000000000e+00
2.500000000000e-01 -2.500000000000e-01 0.000000000000e+00
-2.500000000000e-01 -1.250000000000e-01 0.000000000000e+00
-1.250000000000e-01 -1.250000000000e-01 0.000000000000e+00
0.000000000000e+00 -1.250000000000e-01 0.000000000000e+00
1.250000000000e-01 -1.250000000000e-01 0.000000000000e+00
2.500000000000e-01 -1.250000000000e-01 0.000000000000e+00
-2.500000000000e-01 0.000000000000e+00 0.000000000000e+00
-1.250000000000e-01 0.000000000000e+00 0.000000000000e+00
0.000000000000e+00 0.000000000000e+00 0.000000000000e+00
1.250000000000e-01 0.000000000000e+00 0.000000000000e+00
2.500000000000e-01 0.000000000000e+00 0.000000000000e+00
-2.500000000000e-01 1.250000000000e-01 0.000000000000e+00
-1.250000000000e-01 1.250000000000e-01 0.000000000000e+00
0.000000000000e+00 1.250000000000e-01 0.000000000000e+00
1.250000000000e-01 1.250000000000e-01 0.000000000000e+00
2.500000000000e-01 1.250000000000e-01 0.000000000000e+00
-2.500000000000e-01 2.500000000000e-01 0.000000000000e+00
-1.250000000000e-01 2.500000000000e-01 0.000000000000e+00
0.000000000000e+00 2.500000000000e-01 0.000000000000e+00
1.250000000000e-01 2.500000000000e-01 0.000000000000e+00
2.500000000000e-01 2.500000000000e-01 0.000000000000e+00
-2.500000000000e-01 -2.500000000000e-01 6.000000000000e-02
-1.250000000000e-01 -2.500000000000e-01 6.000000000000e-02
0.000000000000e+00 -2.500000000000e-01 6.000000000000e-02
1.250000000000e-01 -2.500000000000e-01 6.000000000000e-02
2.500000000000e-01 -2.500000000000e-01 6.000000000000e-02
-2.500000000000e-01 -1.250000000000e-01 6.000000000000e-02
-1.250000000000e-01 -1.250000000000e-01 6.000000000000e-02
0.000000000000e+00 -1.250000000000e-01 6.000000000000e-02
1.250000000000e-01 -1.250000000000e-01 6.000000000000e-02
2.500000000000e-01 -1.250000000000e-01 6.000000000000e-02
-2.500000000000e-01 0.000000000000e+00 6.000000000000e-02
-1.250000000000e-01 0.000000000000e+00 6.000000000000e-02
0.000000000000e+00 0.000000000000e+00 6.000000000000e-02
1.250000000000e-01 0.000000000000e+00 6.000000000000e-02
2.500000000000e-01 0.000000000000e+00 6.000000000000e-02
-2.500000000000e-01 1.250000000000e-01 6.000000000000e-02
-1.250000000000e-01 1.250000000000e-01 6.000000000000e-02
0.000000000000e+00 1.250000000000e-01 6.000000000000e-02
1.250000000000e-01 1.250000000000e-01 6.000000000000e-02
2.500000000000e-01 1.250000000000e-01 6.000000000000e-02
-2.500000000000e-01 2.500000000000e-01 6.000000000000e-02
-1.250000000000e-01 2.500000000000e-01 6.000000000000e-02
0.000000000000e+00 2.500000000000e-01 6.000000000000e-02
1.250000000000e-01 2.500000000000e-01 6.000000000000e-02
2.500000000000e-01 2.500000000000e-01 6.000000000000e-02
-2.500000000000e-01 -2.500000000000e-01 1.200000000000e-01
-1.250000000000e-01 -2.500000000000e-01 1.200000000000e-01
0.000000000000e+00 -2.500000000000e-01 1.200000000000e-01
1.250000000000e-01 -2.500000000000e-01 1.200000000000e-01
2.500000000000e-01 -2.500000000000e-01 1.200000000000e-01
-2.500000000000e-01 -1.250000000000e-01 1.200000000000e-01
-1.250000000000e-01 -1.250000000000e-01 1.200000000000e-01
0.000000000000e+00 -1.250000000000e-01 1.200000000000e-01
1.250000000000e-01 -1.250000000000e-01 1.200000000000e-01
2.500000000000e-01 -1.250000000000e-01 1.200000000000e-01
-2.500000000000e-01 0.000000000000e+00 1.200000000000e-01
-1.250000000000e-01 0.000000000000e+00 1.200000000000e-01
0.000000000000e+00 0.000000000000e+00 1.200000000000e-01
1.250000000000e-01 0.000000000000e+00 1.200000000000e-01
2.500000000000e-01 0.000000000000e+00 1.200000000000e-01
-2.500000000000e-01 1.250000000000e-01 1.200000000000e-01
-1.250000000000e-01 1.250000000000e-01 1.200000000000e-01
0.000000000000e+00 1.250000000000e-01 1.200000000000e-01
1.250000000000e-01 1.250000000000e-01 1.200000000000e-01
2.500000000000e-01 1.250000000000e-01 1.200000000000e-01
-2.500000000000e-01 2.500000000000e-01 1.200000000000e-01
-1.250000000000e-01 2.500000000000e-01 1.200000000000e-01
0.000000000000e+00 2.500000000000e-01 1.200000000000e-01
1.250000000000e-01 2.500000000000e-01 1.200000000000e-01
2.500000000000e-01 2.500000000000e-01 1.200000000000e-01
-2.500000000000e-01 -2.500000000000e-01 1.800000000000e-01
-1.250000000000e-01 -2.500000000000e-01 1.800000000000e-01
0.000000000000e+00 -2.500000000000e-01 1.800000000000e-01
1.250000000000e-01 -2.500000000000e-01 1.800000000000e-01
2.500000000000e-01 -2.500000000000e-01 1.800000000000e-01
-2.500000000000e-01 -1.250000000000e-01 1.800000000000e-01
-1.250000000000e-01 -1.250000000000e-01 1.800000000000e-01
0.000000000000e+00 -1.250000000000e-01 1.800000000000e-01
1.250000000000e-01 -1.250000000000e-01 1.800000000000e-01
2.500000000000e-01 -1.250000000000e-01 1.800000000000e-01
-2.500000000000e-01 0.000000000000e+00 1.800000000000e-01
-1.250000000000e-01 0.000000000000e+00 1.800000000000e-01
0.000000000000e+00 0.000000000000e+00 1.800000000000e-01
1.250000000000e-01 0.000000000000e+00 1.800000000000e-01
2.500000000000e-01 0.000000000000e+00 1.800000000000e-01
-2.500000000000e-01 1.250000000000e-01 1.800000000000e-01
-1.250000000000e-01 1.250000000000e-01 1.800000000000e-01
0.000000000000e+00 1.250000000000e-01 1.800000000000e-01
1.250000000000e-01 1.250000000000e-01 1.800000000000e-01
2.500000000000e-01 1.250000000000e-01 1.800000000000e-01
-2.500000000000e-01 2.500000000000e-01 1.800000000000e-01
-1.250000000000e-01 2.500000000000e-01 1.800000000000e-01
0.000000000000e+00 2.500000000000e-01 1.800000000000e-01
1.250000000000e-01 2.500000000000e-01 1.800000000000e-01
2.500000000000e-01 2.500000000000e-01 1.800000000000e-01
-2.500000000000e-01 -2.500000000000e-01 2.400000000000e-01
-1.250000000000e-01 -2.500000000000e-01 2.400000000000e-01
0.000000000000e+00 -2.500000000000e-01 2.400000000000e-01
1.250000000000e-01 -2.500000000000e-01 2.400000000000e-01
2.500000000000e-01 -2.500000000000e-01 2.400000000000e-01
-2.500000000000e-01 -1.250000000000e-01 2.400000000000e-01
-1.250000000000e-01 -1.250000000000e-01 2.400000000000e-01
0.000000000000e+00 -1.250000000000e-01 2.400000000000e-01
1.250000000000e-01 -1.250000000000e-01 2.400000000000e-01
2.500000000000e-01 -1.250000000000e-01 2.400000000000e-01
-2.500000000000e-01 0.000000000000e+00 2.400000000000e-01
-1.250000000000e-01 0.000000000000e+00 2.400000000000e-01
0.000000000000e+00 0.000000000000e+00 2.400000000000e-01
1.250000000000e-01 0.000000000000e+00 2.400000000000e-01
2.500000000000e-01 0.000000000000e+00 2.400000000000e-01
-2.500000000000e-01 1.250000000000e-01 2.400000000000e-01
-1.250000000000e-01 1.250000000000e-01 2.400000000000e-01
0.000000000000e+00 1.250000000000e-01 2.400000000000e-01
1.250000000000e-01 1.250000000000e-01 2.400000000000e-01
2.500000000000e-01 1.250000000000e-01 2.400000000000e-01
-2.500000000000e-01 2.500000000000e-01 2.400000000000e-01
-1.250000000000e-01 2.500000000000e-01 2.400000000000e-01
0.000000000000e+00 2.500000000000e-01 2.400000000000e-01
1.250000000000e-01 2.500000000000e-01 2.400000000000e-01
2.500000000000e-01 2.500000000000e-01 2.400000000000e-01
-2.499999999995e-01 -2.499999999999e-01 2.449443446527e-01
-1.249999999995e-01 -2.499999999999e-01 2.449443446531e-01
4.562365828771e-13 -2.500000000000e-01 2.449443446535e-01
1.250000000005e-01 -2.500000000000e-01 2.449443446539e-01
2.500000000005e-01 -2.500000000000e-01 2.449443446543e-01
-2.499999999995e-01 -1.249999999999e-01 2.449443446529e-01
-1.249999999995e-01 -1.249999999999e-01 2.449443446533e-01
4.646236966731e-13 -1.250000000000e-01 2.449443446537e-01
1.250000000005e-01 -1.250000000000e-01 2.449443446541e-01
2.500000000005e-01 -1.250000000000e-01 2.449443446545e-01
-2.499999999995e-01 6.647499283409e-14 2.449443446530e-01
-1.249999999995e-01 5.808415262106e-14 2.449443446534e-01
4.730099961602e-13 4.969504756268e-14 2.449443446538e-01
1.250000000005e-01 4.130054819256e-14 2.449443446542e-01
2.500000000005e-01 3.291110001200e-14 2.449443446546e-01
-2.499999999995e-01 1.250000000001e-01 2.449443446531e-01
-1.249999999995e-01 1.250000000001e-01 2.449443446535e-01
4.813952199591e-13 1.250000000000e-01 2.449443446540e-01
1.250000000005e-01 1.250000000000e-01 2.449443446544e-01
2.500000000005e-01 1.250000000000e-01 2.449443446548e-01
-2.499999999995e-01 2.500000000001e-01 2.449443446533e-01
-1.249999999995e-01 2.500000000001e-01 2.449443446537e-01
4.897875931274e-13 2.500000000000e-01 2.449443446541e-01
1.250000000005e-01 2.500000000000e-01 2.449443446545e-01
2.500000000005e-01 2.500000000000e-01 2.449443446549e-01
-2.499999999998e-01 -2.500000000000e-01 3.099443446527e-01
-1.249999999998e-01 -2.500000000000e-01 3.099443446531e-01
2.453583357736e-13 -2.500000000000e-01 3.099443446535e-01
1.250000000002e-01 -2.500000000000e-01 3.099443446539e-01
2.500000000002e-01 -2.500000000000e-01 3.099443446543e-01
-2.499999999997e-01 -1.250000000000e-01 3.099443446529e-01
-1.249999999997e-01 -1.250000000000e-01 3.099443446533e-01
2.537487168794e-13 -1.250000000000e-01 3.099443446537e-01
1.250000000003e-01 -1.250000000000e-01 3.099443446541e-01
2.500000000003e-01 -1.250000000000e-01 3.099443446545e-01
-2.499999999997e-01 -7.851079709796e-15 3.099443446530e-01
-1.249999999997e-01 -1.624008622264e-14 3.099443446534e-01
2.621347399891e-13 -2.463185750656e-14 3.099443446538e-01
1.250000000003e-01 -3.302249493097e-14 3.099443446542e-01
2.500000000003e-01 -4.141361174933e-14 3.099443446546e-01
-2.499999999997e-01 1.250000000000e-01 3.099443446531e-01
-1.249999999997e-01 1.250000000000e-01 3.099443446535e-01
2.705228834809e-13 1.250000000000e-01 3.099443446540e-01
1.250000000003e-01 1.250000000000e-01 3.099443446544e-01
2.500000000003e-01 1.250000000000e-01 3.099443446548e-01
-2.499999999997e-01 2.500000000000e-01 3.099443446533e-01
-1.249999999997e-01 2.500000000000e-01 3.099443446537e-01
2.789153785470e-13 2.500000000000e-01 3.099443446541e-01
1.250000000003e-01 2.500000000000e-01 3.099443446545e-01
2.500000000003e-01 2.500000000000e-01 3.099443446549e-01
-2.500000000000e-01 -2.500000000001e-01 3.749443446527e-01
-1.250000000000e-01 -2.500000000001e-01 3.749443446531e-01
3.448113968363e-14 -2.500000000001e-01 3.749443446535e-01
1.250000000000e-01 -2.500000000001e-01 3.749443446539e-01
2.500000000000e-01 -2.500000000001e-01 3.749443446543e-01
-2.500000000000e-01 -1.250000000001e-01 3.749443446529e-01
-1.250000000000e-01 -1.250000000001e-01 3.749443446533e-01
4.287095337077e-14 -1.250000000001e-01 3.749443446537e-01
1.250000000000e-01 -1.250000000001e-01 3.749443446541e-01
2.500000000000e-01 -1.250000000001e-01 3.749443446545e-01
-2.499999999999e-01 -8.217901929802e-14 3.749443446530e-01
-1.249999999999e-01 -9.056694423084e-14 3.749443446534e-01
5.125866512523e-14 -9.895764858384e-14 3.749443446538e-01
1.250000000001e-01 -1.073467545658e-13 3.749443446542e-01
2.500000000001e-01 -1.157367998629e-13 3.749443446546e-01
-2.499999999999e-01 1.249999999999e-01 3.749443446531e-01
-1.249999999999e-01 1.249999999999e-01 3.749443446535e-01
5.964857099499e-14 1.249999999999e-01 3.749443446540e-01
1.250000000001e-01 1.249999999999e-01 3.749443446544e-01
2.500000000001e-01 1.249999999999e-01 3.749443446548e-01
-2.499999999999e-01 2.499999999999e-01 3.749443446533e-01
-1.249999999999e-01 2.499999999999e-01 3.749443446537e-01
6.803910856007e-14 2.499999999999e-01 3.749443446541e-01
1.250000000001e-01 2.499999999999e-01 3.749443446545e-01
2.500000000001e-01 2.499999999999e-01 3.749443446549e-01
-2.500000000002e-01 -2.500000000002e-01 4.399443446527e-01
-1.250000000002e-01 -2.500000000002e-01 4.399443446531e-01
-1.763960153934e-13 -2.500000000002e-01 4.399443446535e-01
1.249999999998e-01 -2.500000000002e-01 4.399443446539e-01
2.499999999998e-01 -2.500000000002e-01 4.399443446543e-01
-2.500000000002e-01 -1.250000000002e-01 4.399443446529e-01
-1.250000000002e-01 -1.250000000002e-01 4.399443446533e-01
-1.680070212525e-13 -1.250000000002e-01 4.399443446537e-01
1.249999999998e-01 -1.250000000002e-01 4.399443446541e-01
2.499999999998e-01 -1.250000000002e-01 4.399443446545e-01
-2.500000000002e-01 -1.565069741323e-13 4.399443446530e-01
-1.250000000002e-01 -1.648933272054e-13 4.399443446534e-01
-1.596175135995e-13 -1.732835565537e-13 4.399443446538e-01
1.249999999998e-01 -1.816702650398e-13 4.399443446542e-01
2.499999999998e-01 -1.900596482844e-13 4.399443446546e-01
-2.500000000002e-01 1.249999999998e-01 4.399443446531e-01
-1.250000000002e-01 1.249999999998e-01 4.399443446535e-01
-1.512259718658e-13 1.249999999998e-01 4.399443446540e-01
1.249999999998e-01 1.249999999998e-01 4.399443446544e-01
2.499999999998e-01 1.249999999998e-01 4.399443446548e-01
-2.500000000001e-01 2.499999999998e-01 4.399443446533e-01
-1.250000000001e-01 2.499999999998e-01 4.399443446537e-01
-1.428350357320e-13 2.499999999998e-01 4.399443446541e-01
1.249999999999e-01 2.499999999998e-01 4.399443446545e-01
2.499999999999e-01 2.499999999998e-01 4.399443446549e-01
-2.500000000004e-01 -2.500000000002e-01 5.049443446527e-01
-1.250000000004e-01 -2.500000000002e-01 5.049443446531e-01
-3.872731436330e-13 -2.500000000002e-01 5.049443446535e-01
1.249999999996e-01 -2.500000000003e-01 5.049443446539e-01
2.499999999996e-01 -2.500000000003e-01 5.049443446543e-01
-2.500000000004e-01 -1.250000000002e-01 5.049443446529e-01
-1.250000000004e-01 -1.250000000002e-01 5.049443446533e-01
-3.788851276190e-13 -1.250000000002e-01 5.049443446537e-01
1.249999999996e-01 -1.250000000003e-01 5.049443446541e-01
2.499999999996e-01 -1.250000000003e-01 5.049443446545e-01
-2.500000000004e-01 -2.308306918146e-13 5.049443446530e-01
-1.250000000004e-01 -2.392202857886e-13 5.049443446534e-01
-3.704916777193e-13 -2.476063808117e-13 5.049443446538e-01
1.249999999996e-01 -2.559924543922e-13 5.049443446542e-01
2.499999999996e-01 -2.643817365186e-13 5.049443446546e-01
-2.500000000004e-01 1.249999999998e-01 5.049443446531e-01
-1.250000000004e-01 1.249999999998e-01 5.049443446535e-01
-3.620986819879e-13 1.249999999998e-01 5.049443446540e-01
1.249999999996e-01 1.249999999997e-01 5.049443446544e-01
2.499999999996e-01 1.249999999997e-01 5.049443446548e-01
-2.500000000004e-01 2.499999999998e-01 5.049443446533e-01
-1.250000000004e-01 2.499999999998e-01 5.049443446537e-01
-3.537092874346e-13 2.499999999998e-01 5.049443446541e-01
1.249999999996e-01 2.499999999997e-01 5.049443446545e-01
2.499999999996e-01 2.499999999997e-01 5.049443446549e-01
CELLS 128 1152
8 0 1 6 5 25 26 31 30
8 1 2 7 6 26 27 32 31
8 2 3 8 7 27 28 33 32
8 3 4 9 8 28 29 34 33
8 5 6 11 10 30 31 36 35
8 6 7 12 11 31 32 37 36
8 7 8 13 12 32 33 38 37
8 8 9 14 13 33 34 39 38
8 10 11 16 15 35 36 41 40
8 11 12 17 16 36 37 42 41
8 12 13 18 17 37 38 43 42
8 13 14 19 18 38 39 44 43
8 15 16 21 20 40 41 46 45
8 16 17 22 21 41 42 47 46
8 17 18 23 22 42 43 48 47
8 18 19 24 23 43 44 49 48
8 25 26 31 30 50 51 56 55
8 26 27 32 31 51 52 57 56
8 27 28 33 32 52 53 58 57
8 28 29 34 33 53 54 59 58
8 30 31 36 35 55 56 61 60
8 31 32 37 36 56 57 62 61
8 32 33 38 37 57 58 63 62
8 33 34 39 38 58 59 64 63
8 35 36 41 40 60 61 66 65
8 36 37 42 41 61 62 67 66
8 37 38 43 42 62 63 68 67
8 38 39 44 43 63 64 69 68
8 40 41 46 45 65 66 71 70
8 41 42 47 46 66 67 72 71
8 42 43 48 47 67 68 73 72
8 43 44 49 48 68 69 74 73
8 50 51 56 55 75 76 81 80
8 51 52 57 56 76 77 82 81
8 52 53 58 57 77 78 83 82
8 53 54 59 58 78 79 84 83
8 55 56 61 60 80 81 86 85
8 56 57 62 61 81 82 87 86
8 57 58 63 62 82 83 88 87
8 58 59 64 63 83 84 89 88
8 60 61 66 65 85 86 91 90
8 61 62 67 66 86 87 92 91
8 62 63 68 67 87 88 93 92
8 63 64 69 68 88 89 94 93
8 65 66 71 70 90 91 96 95
8 66 67 72 71 91 92 97 96
8 67 68 73 72 92 93 98 97
8 68 69 74 73 93 94 99 98
8 75 76 81 80 100 101 106 105
8 76 77 82 81 101 102 107 106
8 77 78 83 82 102 103 108 107
8 78 79 84 83 103 104 109 108
8 80 81 86 85 105 106 111 110
8 81 82 87 86 106 107 112 111
8 82 83 88 87 107 108 113 112
8 83 84 89 88 108 109 114 113
8 85 86 91 90 110 111 116 115
8 86 87 92 91 111 112 117 116
8 87 88 93 92 112 113 118 117
8 88 89 94 93 113 114 119 118
8 90 91 96 95 115 116 121 120
8 91 92 97 96 116 117 122 121
8 92 93 98 97 117 118 123 122
8 93 94 99 98 118 119 124 123
8 125 126 131 130 150 151 156 155
8 126 127 132 131 151 152 157 156
8 127 128 133 132 152 153 158 157
8 128 129 134 133 153 154 159 158
8 130 131 136 135 155 156 161 160
8 131 132 137 136 156 157 162 161
8 132 133 138 137 157 158 163 162
8 133 134 139 138 158 159 164 163
8 135 136 141 140 160 161 166 165
8 136 137 142 141 161 162 167 166
8 137 138 143 142 162 163 168 167
8 138 139 144 143 163 164 169 168
8 140 141 146 145 165 166 171 170
8 141 142 147 146 166 167 172 171
8 142 143 148 147 167 168 173 172
8 143 144 149 148 168 169 174 173
8 150 151 156 155 175 176 181 180
8 151 152 157 156 176 177 182 181
8 152 153 158 157 177 178 183 182
8 153 154 159 158 178 179 184 183
8 155 156 161 160 180 181 186 185
8 156 157 162 161 181 182 187 186
8 157 158 163 162 182 183 188 187
8 158 159 164 163 183 184 189 188
8 160 161 166 165 185 186 191 190
8 161 162 167 166 186 187 192 191
8 162 163 168 167 187 188 193 192
8 163 164 169 168 188 189 194 193
8 165 166 171 170 190 191 196 195
8 166 167 172 171 191 192 197 196
8 167 168 173 172 192 193 198 197
8 168 169 174 173 193 194 199 198
8 175 176 181 180 200 201 206 205
8 176 177 182 181 201 202 207 206
8 177 178 183 182 202 203 208 207
8 178 179 184 183 203 204 209 208
8 180 181 186 185 205 206 211 210
8 181 182 187 186 206 207 212 211
8 182 183 188 187 207 208 213 212
8 183 184 189 188 208 209 214 213
8 185 186 191 190 210 211 216 215
8 186 187 192 191 211 212 217 216
8 187 188 193 192 212 213 218 217
8 188 189 194 193 213 214 219 218
8 190 191 196 195 215 216 221 220
8 191 192 197 196 216 217 222 221
8 192 193 198 197 217 218 223 222
8 193 194 199 198 218 219 224 223
8 200 201 206 205 225 226 231 230
8 201 202 207 206 226 227 232 231
8 202 203 208 207 227 228 233 232
8 203 204 209 208 228 229 234 233
8 205 206 211 210 230 231 236 235
8 206 207 212 211 231 232 237 236
8 207 208 213 212 232 233 238 237
8 208 209 214 213 233 234 239 238
8 210 211 216 215 235 236 241 240
8 211 212 217 216 236 237 242 241
8 212 213 218 217 237 238 243 242
8 213 214 219 218 238 239 244 243
8 215 216 221 220 240 241 246 245
8 216 217 222 221 241 242 247 246
8 217 218 223 222 242 243 248 247
8 218 219 224 223 243 244 249 248
CELL_TYPES 128
12
12
12
12
12
12
12
12
12
12
12
12
12
12
12
12
12
12
12
12
12
12
12
12
12
12
12
12
12
12
12
12
12
12
12
12
12
12
12
12
12
12
12
12
12
12
12
12
12
12
12
12
12
12
12
12
12
12
12
12
12
12
12
12
12
12
12
12
12
12
12
12
12
12
12
12
12
12
12
12
12
12
12
12
12
12
12
12
12
12
12
12
12
12
12
12
12
12
12
12
12
12
12
12
12
12
12
12
12
12
12
12
12
12
12
12
12
12
12
12
12
12
12
12
12
12
12
12
POINT_DATA 250
VECTORS displacement float
0.000000000000e+00 0.000000000000e+00 0.000000000000e+00
0.000000000000e+00 0.000000000000e+00 0.000000000000e+00
0.000000000000e+00 0.000000000000e+00 0.000000000000e+00
0.000000000000e+00 0.000000000000e+00 0.000000000000e+00
0.000000000000e+00 0.000000000000e+00 0.000000000000e+00
0.000000000000e+00 0.000000000000e+00 0.000000000000e+00
0.000000000000e+00 0.000000000000e+00 0.000000000000e+00
0.000000000000e+00 0.000000000000e+00 0.000000000000e+00
0.000000000000e+00 0.000000000000e+00 0.000000000000e+00
0.000000000000e+00 0.000000000000e+00 0.000000000000e+00
0.000000000000e+00 0.000000000000e+00 0.000000000000e+00
0.000000000000e+00 0.000000000000e+00 0.000000000000e+00
0.000000000000e+00 0.000000000000e+00 0.000000000000e+00
0.000000000000e+00 0.000000000000e+00 0.000000000000e+00
0.000000000000e+00 0.000000000000e+00 0.000000000000e+00
0.000000000000e+00 0.000000000000e+00 0.000000000000e+00
0.000000000000e+00 0.000000000000e+00 0.000000000000e+00
0.000000000000e+00 0.000000000000e+00 0.000000000000e+00
0.000000000000e+00 0.000000000000e+00 0.000000000000e+00
0.000000000000e+00 0.000000000000e+00 0.000000000000e+00
0.000000000000e+00 0.000000000000e+00 0.000000000000e+00
0.000000000000e+00 0.000000000000e+00 0.000000000000e+00
0.000000000000e+00 0.000000000000e+00 0.000000000000e+00
0.000000000000e+00 0.000000000000e+00 0.000000000000e+00
0.000000000000e+00 0.000000000000e+00 0.000000000000e+00
0.000000000000e+00 0.000000000000e+00 0.000000000000e+00
0.000000000000e+00 0.000000000000e+00 0.000000000000e+00
0.000000000000e+00 0.000000000000e+00 0.000000000000e+00
0.000000000000e+00 0.000000000000e+00 0.000000000000e+00
0.000000000000e+00 0.000000000000e+00 0.000000000000e+00
0.000000000000e+00 0.000000000000e+00 0.000000000000e+00
0.000000000000e+00 0.000000000000e+00 0.000000000000e+00
0.000000000000e+00 0.000000000000e+00 0.000000000000e+00
0.000000000000e+00 0.000000000000e+00 0.000000000000e+00
0.000000000000e+00 0.000000000000e+00 0.000000000000e+00
0.000000000000e+00 0.000000000000e+00 0.000000000000e+00
0.000000000000e+00 0.000000000000e+00 0.000000000000e+00
0.000000000000e+00 0.000000000000e+00 0.000000000000e+00
0.000000000000e+00 0.000000000000e+00 0.000000000000e+00
0.000000000000e+00 0.000000000000e+00 0.000000000000e+00
0.000000000000e+00 0.000000000000e+00 0.000000000000e+00
0.000000000000e+00 0.000000000000e+00 0.000000000000e+00
0.000000000000e+00 0.000000000000e+00 0.000000000000e+00
0.000000000000e+00 0.000000000000e+00 0.000000000000e+00
0.000000000000e+00 0.000000000000e+00 0.000000000000e+00
0.000000000000e+00 0.000000000000e+00 0.000000000000e+00
0.000000000000e+00 0.000000000000e+00 0.000000000000e+00
0.000000000000e+00 0.000000000000e+00 0.000000000000e+00
0.000000000000e+00 0.000000000000e+00 0.000000000000e+00
0.000000000000e+00 0.000000000000e+00 0.000000000000e+00
0.000000000000e+00 0.000000000000e+00 0.000000000000e+00
0.000000000000e+00 0.000000000000e+00 0.000000000000e+00
0.000000000000e+00 0.000000000000e+00 0.000000000000e+00
0.000000000000e+00 0.000000000000e+00 0.000000000000e+00
0.000000000000e+00 0.000000000000e+00 0.000000000000e+00
0.000000000000e+00 0.000000000000e+00 0.000000000000e+00
0.000000000000e+00 0.000000000000e+00 0.000000000000e+00
0.000000000000e+00 0.000000000000e+00 0.000000000000e+00
0.000000000000e+00 0.000000000000e+00 0.000000000000e+00
0.000000000000e+00 0.000000000000e+00 0.000000000000e+00
0.000000000000e+00 0.000000000000e+00 0.000000000000e+00
0.000000000000e+00 0.000000000000e+00 0.000000000000e+00
0.000000000000e+00 0.000000000000e+00 0.000000000000e+00
0.000000000000e+00 0.000000000000e+00 0.000000000000e+00
0.000000000000e+00 0.000000000000e+00 0.000000000000e+00
0.000000000000e+00 0.000000000000e+00 0.000000000000e+00
0.000000000000e+00 0.000000000000e+00 0.000000000000e+00
0.000000000000e+00 0.000000000000e+00 0.000000000000e+00
0.000000000000e+00 0.000000000000e+00 0.000000000000e+00
0.000000000000e+00 0.000000000000e+00 0.000000000000e+00
0.000000000000e+00 0.000000000000e+00 0.000000000000e+00
0.000000000000e+00 0.000000000000e+00 0.000000000000e+00
0.000000000000e+00 0.000000000000e+00 0.000000000000e+00
0.000000000000e+00 0.000000000000e+00 0.000000000000e+00
0.000000000000e+00 0.000000000000e+00 0.000000000000e+00
0.000000000000e+00 0.000000000000e+00 0.000000000000e+00
0.000000000000e+00 0.000000000000e+00 0.000000000000e+00
0.000000000000e+00 0.000000000000e+00 0.000000000000e+00
0.000000000000e+00 0.000000000000e+00 0.000000000000e+00
0.000000000000e+00 0.000000000000e+00 0.000000000000e+00
0.000000000000e+00 0.000000000000e+00 0.000000000000e+00
0.000000000000e+00 0.000000000000e+00 0.000000000000e+00
0.000000000000e+00 0.000000000000e+00 0.000000000000e+00
0.000000000000e+00 0.000000000000e+00 0.000000000000e+00
0.000000000000e+00 0.000000000000e+00 0.000000000000e+00
0.000000000000e+00 0.000000000000e+00 0.000000000000e+00
0.000000000000e+00 0.000000000000e+00 0.000000000000e+00
0.000000000000e+00 0.000000000000e+00 0.000000000000e+00
0.000000000000e+00 0.000000000000e+00 0.000000000000e+00
0.000000000000e+00 0.000000000000e+00 0.000000000000e+00
0.000000000000e+00 0.000000000000e+00 0.000000000000e+00
0.000000000000e+00 0.000000000000e+00 0.000000000000e+00
0.000000000000e+00 0.000000000000e+00 0.000000000000e+00
0.000000000000e+00 0.000000000000e+00 0.000000000000e+00
0.000000000000e+00 0.000000000000e+00 0.000000000000e+00
0.000000000000e+00 0.000000000000e+00 0.000000000000e+00
0.000000000000e+00 0.000000000000e+00 0.000000000000e+00
0.000000000000e+00 0.000000000000e+00 0.000000000000e+00
0.000000000000e+00 0.000000000000e+00 0.000000000000e+00
0.000000000000e+00 0.000000000000e+00 0.000000000000e+00
0.000000000000e+00 0.000000000000e+00 0.000000000000e+00
0.000000000000e+00 0.000000000000e+00 0.000000000000e+00
0.000000000000e+00 0.000000000000e+00 0.000000000000e+00
0.000000000000e+00 0.000000000000e+00 0.000000000000e+00
0.000000000000e+00 0.000000000000e+00 0.000000000000e+00
0.000000000000e+00 0.000000000000e+00 0.000000000000e+00
0.000000000000e+00 0.000000000000e+00 0.000000000000e+00
0.000000000000e+00 0.000000000000e+00 0.000000000000e+00
0.000000000000e+00 0.000000000000e+00 0.000000000000e+00
0.000000000000e+00 0.000000000000e+00 0.000000000000e+00
0.000000000000e+00 0.000000000000e+00 0.000000000000e+00
0.000000000000e+00 0.000000000000e+00 0.000000000000e+00
0.000000000000e+00 0.000000000000e+00 0.000000000000e+00
0.000000000000e+00 0.000000000000e+00 0.000000000000e+00
0.000000000000e+00 0.000000000000e+00 0.000000000000e+00
0.000000000000e+00 0.000000000000e+00 0.000000000000e+00
0.000000000000e+00 0.000000000000e+00 0.000000000000e+00
0.000000000000e+00 0.000000000000e+00 0.000000000000e+00
0.000000000000e+00 0.000000000000e+00 0.000000000000e+00
0.000000000000e+00 0.000000000000e+00 0.000000000000e+00
0.000000000000e+00 0.000000000000e+00 0.000000000000e+00
0.000000000000e+00 0.000000000000e+00 0.000000000000e+00
0.000000000000e+00 0.000000000000e+00 0.000000000000e+00
0.000000000000e+00 0.000000000000e+00 0.000000000000e+00
0.000000000000e+00 0.000000000000e+00 0.000000000000e+00
4.562196377056e-13 6.647453973956e-14 -1.005565534729e-02
4.562270544298e-13 5.809060296219e-14 -1.005565534688e-02
4.562365828771e-13 4.969829021250e-14 -1.005565534648e-02
4.562492300693e-13 4.130895701678e-14 -1.005565534607e-02
4.562599623925e-13 3.290867559752e-14 -1.005565534567e-02
4.646114524881e-13 6.647488780297e-14 -1.005565534715e-02
4.646143002840e-13 5.808413455005e-14 -1.005565534674e-02
4.646236966731e-13 4.969664993053e-14 -1.005565534634e-02
4.646330552493e-13 4.130321940077e-14 -1.005565534593e-02
4.646382553330e-13 3.290921548253e-14 -1.005565534552e-02
4.730059962381e-13 6.647499283409e-14 -1.005565534700e-02
4.730053754754e-13 5.808415262106e-14 -1.005565534660e-02
4.730099961602e-13 4.969504756268e-14 -1.005565534619e-02
4.730168601172e-13 4.130054819256e-14 -1.005565534579e-02
4.730207778498e-13 3.291110001200e-14 -1.005565534538e-02
4.813959798858e-13 6.647919654126e-14 -1.005565534686e-02
4.813933843889e-13 5.808742691467e-14 -1.005565534646e-02
4.813952199591e-13 4.969189868186e-14 -1.005565534605e-02
4.814045623155e-13 4.130064522883e-14 -1.005565534564e-02
4.814133244093e-13 3.290729072074e-14 -1.005565534524e-02
4.897761317013e-13 6.648034666929e-14 -1.005565534672e-02
4.897791706291e-13 5.809223465871e-14 -1.005565534631e-02
4.897875931274e-13 4.969012859517e-14 -1.005565534591e-02
4.897940351521e-13 4.130029716846e-14 -1.005565534550e-02
4.897911080173e-13 3.289790756377e-14 -1.005565534510e-02
2.453575818716e-13 -7.853632383177e-15 -1.005565534729e-02
2.453580179441e-13 -1.623798763894e-14 -1.005565534688e-02
2.453583357736e-13 -2.462660643086e-14 -1.005565534648e-02
2.453621440348e-13 -3.301566125741e-14 -1.005565534607e-02
2.453627880543e-13 -4.141068392430e-14 -1.005565534567e-02
2.537415430207e-13 -7.850457741703e-15 -1.005565534715e-02
2.537448007050e-13 -1.624259621428e-14 -1.005565534674e-02
2.537487168794e-13 -2.462898420413e-14 -1.005565534634e-02
2.537499465241e-13 -3.302103469927e-14 -1.005565534593e-02
2.537498927289e-13 -4.140789104107e-14 -1.005565534552e-02
2.621331373488e-13 -7.851079709796e-15 -1.005565534700e-02
2.621351830759e-13 -1.624008622264e-14 -1.005565534660e-02
2.621347399891e-13 -2.463185750656e-14 -1.005565534619e-02
2.621373675318e-13 -3.302249493097e-14 -1.005565534579e-02
2.621378263556e-13 -4.141361174933e-14 -1.005565534538e-02
2.705250802429e-13 -7.850736201220e-15 -1.005565534686e-02
2.705216789530e-13 -1.624036911948e-14 -1.005565534646e-02
2.705228834809e-13 -2.463303621729e-14 -1.005565534605e-02
2.705250356881e-13 -3.302397903948e-14 -1.005565534564e-02
2.705281546088e-13 -4.141473285946e-14 -1.005565534524e-02
2.789078470177e-13 -7.852161907080e-15 -1.005565534672e-02
2.789130586605e-13 -1.624243065702e-14 -1.005565534631e-02
2.789153785470e-13 -2.463494596965e-14 -1.005565534591e-02
2.789156134685e-13 -3.302722103736e-14 -1.005565534550e-02
2.789145448595e-13 -4.141393746652e-14 -1.005565534510e-02
3.448787206939e-14 -8.217776545976e-14 -1.005565534729e-02
3.448302382671e-14 -9.056765939870e-14 -1.005565534688e-02
3.448113968363e-14 -9.895506488466e-14 -1.005565534648e-02
3.448074698589e-14 -1.073420593002e-13 -1.005565534607e-02
3.448046907622e-14 -1.157318739356e-13 -1.005565534567e-02
4.287008645418e-14 -8.217944909300e-14 -1.005565534715e-02
4.287244310407e-14 -9.056694297708e-14 -1.005565534674e-02
4.287095337077e-14 -9.895459673197e-14 -1.005565534634e-02
4.286835788346e-14 -1.073436871156e-13 -1.005565534593e-02
4.286593741945e-14 -1.157327907613e-13 -1.005565534552e-02
5.126446123083e-14 -8.217901929802e-14 -1.005565534700e-02
5.126159678573e-14 -9.056694423084e-14 -1.005565534660e-02
5.125866512523e-14 -9.895764858384e-14 -1.005565534619e-02
5.125755134702e-14 -1.073467545658e-13 -1.005565534579e-02
5.125553337239e-14 -1.157367998629e-13 -1.005565534538e-02
5.964922279981e-14 -8.217730536733e-14 -1.005565534686e-02
5.965056518054e-14 -9.056880994066e-14 -1.005565534646e-02
5.964857099499e-14 -9.895724831998e-14 -1.005565534605e-02
5.964711833883e-14 -1.073482814075e-13 -1.005565534564e-02
5.964733166935e-14 -1.157390384650e-13 -1.005565534524e-02
6.804149143566e-14 -8.217593811210e-14 -1.005565534672e-02
6.804124444534e-14 -9.056847968070e-14 -1.005565534631e-02
6.803910856007e-14 -9.895842532804e-14 -1.005565534591e-02
6.803738424082e-14 -1.073495709981e-13 -1.005565534550e-02
6.803479626636e-14 -1.157391906256e-13 -1.005565534510e-02
-1.763896871190e-13 -1.565051253510e-13 -1.005565534729e-02
-1.763926803918e-13 -1.648907327205e-13 -1.005565534688e-02
-1.763960153934e-13 -1.732820709694e-13 -1.005565534648e-02
-1.764006810876e-13 -1.816693097605e-13 -1.005565534607e-02
-1.764058400013e-13 -1.900534333072e-13 -1.005565534567e-02
-1.679998595612e-13 -1.565054268369e-13 -1.005565534715e-02
-1.680019796747e-13 -1.648921721560e-13 -1.005565534674e-02
-1.680070212525e-13 -1.732804572332e-13 -1.005565534634e-02
-1.680126957885e-13 -1.816693967686e-13 -1.005565534593e-02
-1.680180074423e-13 -1.900567989778e-13 -1.005565534552e-02
-1.596097641030e-13 -1.565069741323e-13 -1.005565534700e-02
-1.596125709167e-13 -1.648933272054e-13 -1.005565534660e-02
-1.596175135995e-13 -1.732835565537e-13 -1.005565534619e-02
-1.596218603205e-13 -1.816702650398e-13 -1.005565534579e-02
-1.596242643582e-13 -1.900596482844e-13 -1.005565534538e-02
-1.512215954369e-13 -1.565053660006e-13 -1.005565534686e-02
-1.512226260693e-13 -1.648953182915e-13 -1.005565534646e-02
-1.512259718658e-13 -1.732834878293e-13 -1.005565534605e-02
-1.512292273305e-13 -1.816720831563e-13 -1.005565534564e-02
-1.512330284504e-13 -1.900609439488e-13 -1.005565534524e-02
-1.428340585573e-13 -1.565051390085e-13 -1.005565534672e-02
-1.428315242243e-13 -1.648975746470e-13 -1.005565534631e-02
-1.428350357320e-13 -1.732849071110e-13 -1.005565534591e-02
-1.428395217064e-13 -1.816735400756e-13 -1.005565534550e-02
-1.428383319814e-13 -1.900641705543e-13 -1.005565534510e-02
-3.872653503945e-13 -2.308348049439e-13 -1.005565534729e-02
-3.872655376287e-13 -2.392165900936e-13 -1.005565534688e-02
-3.872731436330e-13 -2.476148823898e-13 -1.005565534648e-02
-3.872896899538e-13 -2.559974707759e-13 -1.005565534607e-02
-3.872951219418e-13 -2.643821021676e-13 -1.005565534567e-02
-3.788737576424e-13 -2.308295062932e-13 -1.005565534715e-02
-3.788747623662e-13 -2.392163528221e-13 -1.005565534674e-02
-3.788851276190e-13 -2.476093253891e-13 -1.005565534634e-02
-3.788954896037e-13 -2.559920308954e-13 -1.005565534593e-02
-3.789028994808e-13 -2.643795576338e-13 -1.005565534552e-02
-3.704927705051e-13 -2.308306918146e-13 -1.005565534700e-02
-3.704888753013e-13 -2.392202857886e-13 -1.005565534660e-02
-3.704916777193e-13 -2.476063808117e-13 -1.005565534619e-02
-3.705028222911e-13 -2.559924543922e-13 -1.005565534579e-02
-3.705092978181e-13 -2.643817365186e-13 -1.005565534538e-02
-3.621022980060e-13 -2.308365699502e-13 -1.005565534686e-02
-3.620957410036e-13 -2.392231897290e-13 -1.005565534646e-02
-3.620986819879e-13 -2.476100858961e-13 -1.005565534605e-02
-3.621093811471e-13 -2.559976702240e-13 -1.005565534564e-02
-3.621165827742e-13 -2.643836436804e-13 -1.005565534524e-02
-3.537043236728e-13 -2.308345622054e-13 -1.005565534672e-02
-3.537049022213e-13 -2.392161172940e-13 -1.005565534631e-02
-3.537092874346e-13 -2.476134703845e-13 -1.005565534591e-02
-3.537144284799e-13 -2.559956112069e-13 -1.005565534550e-02
-3.537146162120e-13 -2.643834277082e-13 -1.005565534510e-02
SCALARS displacement_magnitude float 1
LOOKUP_TABLE default
0.000000000000e+00
0.000000000000e+00
0.000000000000e+00
0.000000000000e+00
0.000000000000e+00
0.000000000000e+00
0.000000000000e+00
0.000000000000e+00
0.000000000000e+00
0.000000000000e+00
0.000000000000e+00
0.000000000000e+00
0.000000000000e+00
0.000000000000e+00
0.000000000000e+00
0.000000000000e+00
0.000000000000e+00
0.000000000000e+00
0.000000000000e+00
0.000000000000e+00
0.000000000000e+00
0.000000000000e+00
0.000000000000e+00
0.000000000000e+00
0.000000000000e+00
0.000000000000e+00
0.000000000000e+00
0.000000000000e+00
0.000000000000e+00
0.000000000000e+00
0.000000000000e+00
0.000000000000e+00
0.000000000000e+00
0.000000000000e+00
0.000000000000e+00
0.000000000000e+00
0.000000000000e+00
0.000000000000e+00
0.000000000000e+00
0.000000000000e+00
0.000000000000e+00
0.000000000000e+00
0.000000000000e+00
0.000000000000e+00
0.000000000000e+00
0.000000000000e+00
0.000000000000e+00
0.000000000000e+00
0.000000000000e+00
0.000000000000e+00
0.000000000000e+00
0.000000000000e+00
0.000000000000e+00
0.000000000000e+00
0.000000000000e+00
0.000000000000e+00
0.000000000000e+00
0.000000000000e+00
0.000000000000e+00
0.000000000000e+00
0.000000000000e+00
0.000000000000e+00
0.000000000000e+00
0.000000000000e+00
0.000000000000e+00
0.000000000000e+00
0.000000000000e+00
0.000000000000e+00
0.000000000000e+00
0.000000000000e+00
0.000000000000e+00
0.000000000000e+00
0.000000000000e+00
0.000000000000e+00
0.000000000000e+00
0.000000000000e+00
0.000000000000e+00
0.000000000000e+00
0.000000000000e+00
0.000000000000e+00
0.000000000000e+00
0.000000000000e+00
0.000000000000e+00
0.000000000000e+00
0.000000000000e+00
0.000000000000e+00
0.000000000000e+00
0.000000000000e+00
0.000000000000e+00
0.000000000000e+00
0.000000000000e+00
0.000000000000e+00
0.000000000000e+00
0.000000000000e+00
0.000000000000e+00
0.000000000000e+00
0.000000000000e+00
0.000000000000e+00
0.000000000000e+00
0.000000000000e+00
0.000000000000e+00
0.000000000000e+00
0.000000000000e+00
0.000000000000e+00
0.000000000000e+00
0.000000000000e+00
0.000000000000e+00
0.000000000000e+00
0.000000000000e+00
0.000000000000e+00
0.000000000000e+00
0.000000000000e+00
0.000000000000e+00
0.000000000000e+00
0.000000000000e+00
0.000000000000e+00
0.000000000000e+00
0.000000000000e+00
0.000000000000e+00
0.000000000000e+00
0.000000000000e+00
0.000000000000e+00
0.000000000000e+00
0.000000000000e+00
0.000000000000e+00
1.005565534729e-02
1.005565534688e-02
1.005565534648e-02
1.005565534607e-02
1.005565534567e-02
1.005565534715e-02
1.005565534674e-02
1.005565534634e-02
1.005565534593e-02
1.005565534552e-02
1.005565534700e-02
1.005565534660e-02
1.005565534619e-02
1.005565534579e-02
1.005565534538e-02
1.005565534686e-02
1.005565534646e-02
1.005565534605e-02
1.005565534564e-02
1.005565534524e-02
1.005565534672e-02
1.005565534631e-02
1.005565534591e-02
1.005565534550e-02
1.005565534510e-02
1.005565534729e-02
1.005565534688e-02
1.005565534648e-02
1.005565534607e-02
1.005565534567e-02
1.005565534715e-02
1.005565534674e-02
1.005565534634e-02
1.005565534593e-02
1.005565534552e-02
1.005565534700e-02
1.005565534660e-02
1.005565534619e-02
1.005565534579e-02
1.005565534538e-02
1.005565534686e-02
1.005565534646e-02
1.005565534605e-02
1.005565534564e-02
1.005565534524e-02
1.005565534672e-02
1.005565534631e-02
1.005565534591e-02
1.005565534550e-02
1.005565534510e-02
1.005565534729e-02
1.005565534688e-02
1.005565534648e-02
1.005565534607e-02
1.005565534567e-02
1.005565534715e-02
1.005565534674e-02
1.005565534634e-02
1.005565534593e-02
1.005565534552e-02
1.005565534700e-02
1.005565534660e-02
1.005565534619e-02
1.005565534579e-02
1.005565534538e-02
1.005565534686e-02
1.005565534646e-02
1.005565534605e-02
1.005565534564e-02
1.005565534524e-02
1.005565534672e-02
1.005565534631e-02
1.005565534591e-02
1.005565534550e-02
1.005565534510e-02
1.005565534729e-02
1.005565534688e-02
1.005565534648e-02
1.005565534607e-02
1.005565534567e-02
1.005565534715e-02
1.005565534674e-02
1.005565534634e-02
1.005565534593e-02
1.005565534552e-02
1.005565534700e-02
1.005565534660e-02
1.005565534619e-02
1.005565534579e-02
1.005565534538e-02
1.005565534686e-02
1.005565534646e-02
1.005565534605e-02
1.005565534564e-02
1.005565534524e-02
1.005565534672e-02
1.005565534631e-02
1.005565534591e-02
1.005565534550e-02
1.005565534510e-02
1.005565534729e-02
1.005565534688e-02
1.005565534648e-02
1.005565534607e-02
1.005565534567e-02
1.005565534715e-02
1.005565534674e-02
1.005565534634e-02
1.005565534593e-02
1.005565534552e-02
1.005565534700e-02
1.005565534660e-02
1.005565534619e-02
1.005565534579e-02
1.005565534538e-02
1.005565534686e-02
1.005565534646e-02
1.005565534605e-02
1.005565534564e-02
1.005565534524e-02
1.005565534672e-02
1.005565534631e-02
1.005565534591e-02
1.005565534550e-02
1.005565534510e-02
CELL_DATA 128
SCALARS displacement_magnitude float 1
LOOKUP_TABLE default
0.000000000000e+00
0.000000000000e+00
0.000000000000e+00
0.000000000000e+00
0.000000000000e+00
0.000000000000e+00
0.000000000000e+00
0.000000000000e+00
0.000000000000e+00
0.000000000000e+00
0.000000000000e+00
0.000000000000e+00
0.000000000000e+00
0.000000000000e+00
0.000000000000e+00
0.000000000000e+00
0.000000000000e+00
0.000000000000e+00
0.000000000000e+00
0.000000000000e+00
0.000000000000e+00
0.000000000000e+00
0.000000000000e+00
0.000000000000e+00
0.000000000000e+00
0.000000000000e+00
0.000000000000e+00
0.000000000000e+00
0.000000000000e+00
0.000000000000e+00
0.000000000000e+00
0.000000000000e+00
0.000000000000e+00
0.000000000000e+00
0.000000000000e+00
0.000000000000e+00
0.000000000000e+00
0.000000000000e+00
0.000000000000e+00
0.000000000000e+00
0.000000000000e+00
0.000000000000e+00
0.000000000000e+00
0.000000000000e+00
0.000000000000e+00
0.000000000000e+00
0.000000000000e+00
0.000000000000e+00
0.000000000000e+00
0.000000000000e+00
0.000000000000e+00
0.000000000000e+00
0.000000000000e+00
0.000000000000e+00
0.000000000000e+00
0.000000000000e+00
0.000000000000e+00
0.000000000000e+00
0.000000000000e+00
0.000000000000e+00
0.000000000000e+00
0.000000000000e+00
0.000000000000e+00
0.000000000000e+00
1.005565534702e-02
1.005565534661e-02
1.005565534620e-02
1.005565534580e-02
1.005565534687e-02
1.005565534647e-02
1.005565534606e-02
1.005565534566e-02
1.005565534673e-02
1.005565534632e-02
1.005565534592e-02
1.005565534551e-02
1.005565534659e-02
1.005565534618e-02
1.005565534578e-02
1.005565534537e-02
1.005565534702e-02
1.005565534661e-02
1.005565534620e-02
1.005565534580e-02
1.005565534687e-02
1.005565534647e-02
1.005565534606e-02
1.005565534566e-02
1.005565534673e-02
1.005565534632e-02
1.005565534592e-02
1.005565534551e-02
1.005565534659e-02
1.005565534618e-02
1.005565534578e-02
1.005565534537e-02
1.005565534702e-02
1.005565534661e-02
1.005565534620e-02
1.005565534580e-02
1.005565534687e-02
1.005565534647e-02
1.005565534606e-02
1.005565534566e-02
1.005565534673e-02
1.005565534632e-02
1.005565534592e-02
1.005565534551e-02
1.005565534659e-02
1.005565534618e-02
1.005565534578e-02
1.005565534537e-02
1.005565534702e-02
1.005565534661e-02
1.005565534620e-02
1.005565534580e-02
1.005565534687e-02
1.005565534647e-02
1.005565534606e-02
1.005565534566e-02
1.005565534673e-02
1.005565534632e-02
1.005565534592e-02
1.005565534551e-02
1.005565534659e-02
1.005565534618e-02
1.005565534578e-02
1.005565534537e-02
SCALARS engineering_strain_norm float 1
LOOKUP_TABLE default
0.000000000000e+00
0.000000000000e+00
0.000000000000e+00
0.000000000000e+00
0.000000000000e+00
0.000000000000e+00
0.000000000000e+00
0.000000000000e+00
0.000000000000e+00
0.000000000000e+00
0.000000000000e+00
0.000000000000e+00
0.000000000000e+00
0.000000000000e+00
0.000000000000e+00
0.000000000000e+00
0.000000000000e+00
0.000000000000e+00
0.000000000000e+00
0.000000000000e+00
0.000000000000e+00
0.000000000000e+00
0.000000000000e+00
0.000000000000e+00
0.000000000000e+00
0.000000000000e+00
0.000000000000e+00
0.000000000000e+00
0.000000000000e+00
0.000000000000e+00
0.000000000000e+00
0.000000000000e+00
0.000000000000e+00
0.000000000000e+00
0.000000000000e+00
0.000000000000e+00
0.000000000000e+00
0.000000000000e+00
0.000000000000e+00
0.000000000000e+00
0.000000000000e+00
0.000000000000e+00
0.000000000000e+00
0.000000000000e+00
0.000000000000e+00
0.000000000000e+00
0.000000000000e+00
0.000000000000e+00
0.000000000000e+00
0.000000000000e+00
0.000000000000e+00
0.000000000000e+00
0.000000000000e+00
0.000000000000e+00
0.000000000000e+00
0.000000000000e+00
0.000000000000e+00
0.000000000000e+00
0.000000000000e+00
0.000000000000e+00
0.000000000000e+00
0.000000000000e+00
0.000000000000e+00
0.000000000000e+00
7.684824028021e-17
6.254379854930e-17
7.715728434790e-17
1.373530951246e-16
7.248352458623e-17
5.652671216926e-17
7.317295004553e-17
9.127631542359e-17
3.119731018655e-17
5.414794087341e-17
7.233139757551e-17
1.371401996173e-16
6.198803899947e-17
1.082473048318e-16
5.747078475755e-17
7.879209007767e-17
7.012601102920e-17
9.443202946439e-17
6.232009075891e-17
1.490218542406e-16
1.072286480078e-16
4.516872787097e-17
5.381338947487e-17
1.336960884880e-16
5.895640046696e-17
7.467243647220e-17
4.267835613889e-17
1.332511068278e-16
5.558345835116e-17
1.315923271464e-16
4.309455336205e-17
6.167507906208e-17
6.767779373233e-17
1.270899958509e-16
1.120591181320e-16
1.151697409770e-16
1.163970746500e-16
6.836405230347e-17
1.098122971592e-16
1.689521380096e-16
9.901876344451e-17
1.086959139920e-16
5.001729537602e-17
1.491758118468e-16
3.732727250936e-17
1.246575863494e-16
7.908522825849e-17
7.202509175805e-17
6.002026810460e-17
1.541385306128e-16
1.508866257570e-16
7.387470697407e-17
1.040513335297e-16
7.996684876644e-17
1.297184632327e-16
1.456125199183e-16
9.825328178958e-17
1.205887178023e-16
1.010071472154e-16
1.267981894246e-16
6.444188270610e-17
9.799915188394e-17
6.605461379607e-17
8.319409432604e-17
SCALARS von_mises float 1
LOOKUP_TABLE default
0.000000000000e+00
0.000000000000e+00
0.000000000000e+00
0.000000000000e+00
0.000000000000e+00
0.000000000000e+00
0.000000000000e+00
0.000000000000e+00
0.000000000000e+00
0.000000000000e+00
0.000000000000e+00
0.000000000000e+00
0.000000000000e+00
0.000000000000e+00
0.000000000000e+00
0.000000000000e+00
0.000000000000e+00
0.000000000000e+00
0.000000000000e+00
0.000000000000e+00
0.000000000000e+00
0.000000000000e+00
0.000000000000e+00
0.000000000000e+00
0.000000000000e+00
0.000000000000e+00
0.000000000000e+00
0.000000000000e+00
0.000000000000e+00
0.000000000000e+00
0.000000000000e+00
0.000000000000e+00
0.000000000000e+00
0.000000000000e+00
0.000000000000e+00
0.000000000000e+00
0.000000000000e+00
0.000000000000e+00
0.000000000000e+00
0.000000000000e+00
0.000000000000e+00
0.000000000000e+00
0.000000000000e+00
0.000000000000e+00
0.000000000000e+00
0.000000000000e+00
0.000000000000e+00
0.000000000000e+00
0.000000000000e+00
0.000000000000e+00
0.000000000000e+00
0.000000000000e+00
0.000000000000e+00
0.000000000000e+00
0.000000000000e+00
0.000000000000e+00
0.000000000000e+00
0.000000000000e+00
0.000000000000e+00
0.000000000000e+00
0.000000000000e+00
0.000000000000e+00
0.000000000000e+00
0.000000000000e+00
5.693280666128e-12
5.352256776981e-12
6.245933351297e-12
9.358860923053e-12
5.252683782286e-12
4.998114773879e-12
5.392313624069e-12
6.294847799619e-12
2.346296673940e-12
3.570858421089e-12
5.072954486269e-12
9.528156711656e-12
4.248268193062e-12
7.183944074895e-12
4.306463598611e-12
5.662089298870e-12
4.720229643931e-12
6.402534681425e-12
4.642849917973e-12
9.997645290660e-12
7.237707442635e-12
3.170748395846e-12
3.801607897237e-12
9.530971017225e-12
3.907116992290e-12
5.537899815196e-12
2.902041294772e-12
8.931576414837e-12
3.750435042287e-12
8.799750996092e-12
3.179977803007e-12
4.082446062350e-12
4.337740819111e-12
8.653166533662e-12
7.892539323131e-12
8.528837454916e-12
7.666837584774e-12
5.521692852683e-12
8.139634705202e-12
1.216000903690e-11
6.543654052465e-12
7.950983733093e-12
4.061439419782e-12
9.905214359367e-12
2.851097174632e-12
8.761867876030e-12
6.710982714417e-12
4.761113759542e-12
4.340291507772e-12
1.158918520384e-11
1.191704791957e-11
6.288805078475e-12
7.241153611946e-12
7.214719100551e-12
9.394383144458e-12
1.020652257147e-11
6.733101060193e-12
8.930625304888e-12
8.122451638242e-12
9.321846355722e-12
5.445185202868e-12
7.043397916966e-12
4.771361581422e-12
5.998943388811e-12
SCALARS sdf_gap float 1
LOOKUP_TABLE default
0.000000000000e+00
0.000000000000e+00
0.000000000000e+00
0.000000000000e+00
0.000000000000e+00
0.000000000000e+00
0.000000000000e+00
0.000000000000e+00
0.000000000000e+00
0.000000000000e+00
0.000000000000e+00
0.000000000000e+00
0.000000000000e+00
0.000000000000e+00
0.000000000000e+00
0.000000000000e+00
0.000000000000e+00
0.000000000000e+00
0.000000000000e+00
0.000000000000e+00
0.000000000000e+00
0.000000000000e+00
0.000000000000e+00
0.000000000000e+00
0.000000000000e+00
0.000000000000e+00
0.000000000000e+00
0.000000000000e+00
0.000000000000e+00
0.000000000000e+00
0.000000000000e+00
0.000000000000e+00
0.000000000000e+00
0.000000000000e+00
0.000000000000e+00
0.000000000000e+00
0.000000000000e+00
0.000000000000e+00
0.000000000000e+00
0.000000000000e+00
0.000000000000e+00
0.000000000000e+00
0.000000000000e+00
0.000000000000e+00
0.000000000000e+00
0.000000000000e+00
0.000000000000e+00
0.000000000000e+00
0.000000000000e+00
0.000000000000e+00
0.000000000000e+00
0.000000000000e+00
0.000000000000e+00
0.000000000000e+00
0.000000000000e+00
0.000000000000e+00
0.000000000000e+00
0.000000000000e+00
0.000000000000e+00
0.000000000000e+00
0.000000000000e+00
0.000000000000e+00
0.000000000000e+00
0.000000000000e+00
4.944344652985e-03
4.944344653390e-03
4.944344653796e-03
4.944344654201e-03
4.944344653128e-03
4.944344653533e-03
4.944344653939e-03
4.944344654344e-03
4.944344653271e-03
4.944344653676e-03
4.944344654082e-03
4.944344654487e-03
4.944344653414e-03
4.944344653819e-03
4.944344654225e-03
4.944344654630e-03
0.000000000000e+00
0.000000000000e+00
0.000000000000e+00
0.000000000000e+00
0.000000000000e+00
0.000000000000e+00
0.000000000000e+00
0.000000000000e+00
0.000000000000e+00
0.000000000000e+00
0.000000000000e+00
0.000000000000e+00
0.000000000000e+00
0.000000000000e+00
0.000000000000e+00
0.000000000000e+00
0.000000000000e+00
0.000000000000e+00
0.000000000000e+00
0.000000000000e+00
0.000000000000e+00
0.000000000000e+00
0.000000000000e+00
0.000000000000e+00
0.000000000000e+00
0.000000000000e+00
0.000000000000e+00
0.000000000000e+00
0.000000000000e+00
0.000000000000e+00
0.000000000000e+00
0.000000000000e+00
0.000000000000e+00
0.000000000000e+00
0.000000000000e+00
0.000000000000e+00
0.000000000000e+00
0.000000000000e+00
0.000000000000e+00
0.000000000000e+00
0.000000000000e+00
0.000000000000e+00
0.000000000000e+00
0.000000000000e+00
0.000000000000e+00
0.000000000000e+00
0.000000000000e+00
0.000000000000e+00
SCALARS contact_pressure float 1
LOOKUP_TABLE default
0.000000000000e+00
0.000000000000e+00
0.000000000000e+00
0.000000000000e+00
0.000000000000e+00
0.000000000000e+00
0.000000000000e+00
0.000000000000e+00
0.000000000000e+00
0.000000000000e+00
0.000000000000e+00
0.000000000000e+00
0.000000000000e+00
0.000000000000e+00
0.000000000000e+00
0.000000000000e+00
0.000000000000e+00
0.000000000000e+00
0.000000000000e+00
0.000000000000e+00
0.000000000000e+00
0.000000000000e+00
0.000000000000e+00
0.000000000000e+00
0.000000000000e+00
0.000000000000e+00
0.000000000000e+00
0.000000000000e+00
0.000000000000e+00
0.000000000000e+00
0.000000000000e+00
0.000000000000e+00
0.000000000000e+00
0.000000000000e+00
0.000000000000e+00
0.000000000000e+00
0.000000000000e+00
0.000000000000e+00
0.000000000000e+00
0.000000000000e+00
0.000000000000e+00
0.000000000000e+00
0.000000000000e+00
0.000000000000e+00
0.000000000000e+00
0.000000000000e+00
0.000000000000e+00
0.000000000000e+00
0.000000000000e+00
0.000000000000e+00
0.000000000000e+00
0.000000000000e+00
0.000000000000e+00
0.000000000000e+00
0.000000000000e+00
0.000000000000e+00
0.000000000000e+00
0.000000000000e+00
0.000000000000e+00
0.000000000000e+00
0.000000000000e+00
0.000000000000e+00
0.000000000000e+00
0.000000000000e+00
0.000000000000e+00
0.000000000000e+00
0.000000000000e+00
0.000000000000e+00
0.000000000000e+00
0.000000000000e+00
0.000000000000e+00
0.000000000000e+00
0.000000000000e+00
0.000000000000e+00
0.000000000000e+00
0.000000000000e+00
0.000000000000e+00
0.000000000000e+00
0.000000000000e+00
0.000000000000e+00
0.000000000000e+00
0.000000000000e+00
0.000000000000e+00
0.000000000000e+00
0.000000000000e+00
0.000000000000e+00
0.000000000000e+00
0.000000000000e+00
0.000000000000e+00
0.000000000000e+00
0.000000000000e+00
0.000000000000e+00
0.000000000000e+00
0.000000000000e+00
0.000000000000e+00
0.000000000000e+00
0.000000000000e+00
0.000000000000e+00
0.000000000000e+00
0.000000000000e+00
0.000000000000e+00
0.000000000000e+00
0.000000000000e+00
0.000000000000e+00
0.000000000000e+00
0.000000000000e+00
0.000000000000e+00
0.000000000000e+00
0.000000000000e+00
0.000000000000e+00
0.000000000000e+00
0.000000000000e+00
0.000000000000e+00
0.000000000000e+00
0.000000000000e+00
0.000000000000e+00
0.000000000000e+00
0.000000000000e+00
0.000000000000e+00
0.000000000000e+00
0.000000000000e+00
0.000000000000e+00
0.000000000000e+00
0.000000000000e+00
0.000000000000e+00
0.000000000000e+00
0.000000000000e+00
0.000000000000e+00
SCALARS active_contact float 1
LOOKUP_TABLE default
0.000000000000e+00
0.000000000000e+00
0.000000000000e+00
0.000000000000e+00
0.000000000000e+00
0.000000000000e+00
0.000000000000e+00
0.000000000000e+00
0.000000000000e+00
0.000000000000e+00
0.000000000000e+00
0.000000000000e+00
0.000000000000e+00
0.000000000000e+00
0.000000000000e+00
0.000000000000e+00
0.000000000000e+00
0.000000000000e+00
0.000000000000e+00
0.000000000000e+00
0.000000000000e+00
0.000000000000e+00
0.000000000000e+00
0.000000000000e+00
0.000000000000e+00
0.000000000000e+00
0.000000000000e+00
0.000000000000e+00
0.000000000000e+00
0.000000000000e+00
0.000000000000e+00
0.000000000000e+00
0.000000000000e+00
0.000000000000e+00
0.000000000000e+00
0.000000000000e+00
0.000000000000e+00
0.000000000000e+00
0.000000000000e+00
0.000000000000e+00
0.000000000000e+00
0.000000000000e+00
0.000000000000e+00
0.000000000000e+00
0.000000000000e+00
0.000000000000e+00
0.000000000000e+00
0.000000000000e+00
0.000000000000e+00
0.000000000000e+00
0.000000000000e+00
0.000000000000e+00
0.000000000000e+00
0.000000000000e+00
0.000000000000e+00
0.000000000000e+00
0.000000000000e+00
0.000000000000e+00
0.000000000000e+00
0.000000000000e+00
0.000000000000e+00
0.000000000000e+00
0.000000000000e+00
0.000000000000e+00
0.000000000000e+00
0.000000000000e+00
0.000000000000e+00
0.000000000000e+00
0.000000000000e+00
0.000000000000e+00
0.000000000000e+00
0.000000000000e+00
0.000000000000e+00
0.000000000000e+00
0.000000000000e+00
0.000000000000e+00
0.000000000000e+00
0.000000000000e+00
0.000000000000e+00
0.000000000000e+00
0.000000000000e+00
0.000000000000e+00
0.000000000000e+00
0.000000000000e+00
0.000000000000e+00
0.000000000000e+00
0.000000000000e+00
0.000000000000e+00
0.000000000000e+00
0.000000000000e+00
0.000000000000e+00
0.000000000000e+00
0.000000000000e+00
0.000000000000e+00
0.000000000000e+00
0.000000000000e+00
0.000000000000e+00
0.000000000000e+00
0.000000000000e+00
0.000000000000e+00
0.000000000000e+00
0.000000000000e+00
0.000000000000e+00
0.000000000000e+00
0.000000000000e+00
0.000000000000e+00
0.000000000000e+00
0.000000000000e+00
0.000000000000e+00
0.000000000000e+00
0.000000000000e+00
0.000000000000e+00
0.000000000000e+00
0.000000000000e+00
0.000000000000e+00
0.000000000000e+00
0.000000000000e+00
0.000000000000e+00
0.000000000000e+00
0.000000000000e+00
0.000000000000e+00
0.000000000000e+00
0.000000000000e+00
0.000000000000e+00
0.000000000000e+00
0.000000000000e+00
0.000000000000e+00
0.000000000000e+00
