# vtk DataFile Version 3.0
SFC long-time C3D8 dynamic frame 147 t=2.940000000000e+00
ASCII
DATASET UNSTRUCTURED_GRID
POINTS 250 float
-2.500000000000e-01 -2.500000000000e-01 0.000000000000e+00
-1.250000000000e-01 -2.500000000000e-01 0.000000000000e+00
0.000000000000e+00 -2.500000000000e-01 0.000000000000e+00
1.250000000000e-01 -2.500000000000e-01 0.000000000000e+00
2.500000000000e-01 -2.500000000000e-01 0.000000000000e+00
-2.500000000000e-01 -1.250000000000e-01 0.000000000000e+00
-1.250000000000e-01 -1.250000000000e-01 0.000000000000e+00
0.000000000000e+00 -1.250000000000e-01 0.000000000000e+00
1.250000000000e-01 -1.250000000000e-01 0.000000000000e+00
2.500000000000e-01 -1.250000000000e-01 0.000000000000e+00
-2.500000000000e-01 0.000000000000e+00 0.000000000000e+00
-1.250000000000e-01 0.000000000000e+00 0.000000000000e+00
0.000000000000e+00 0.000000000000e+00 0.000000000000e+00
1.250000000000e-01 0.000000000000e+00 0.000000000000e+00
2.500000000000e-01 0.000000000000e+00 0.000000000000e+00
-2.500000000000e-01 1.250000000000e-01 0.000000000000e+00
-1.250000000000e-01 1.250000000000e-01 0.000000000000e+00
0.000000000000e+00 1.250000000000e-01 0.000000000000e+00
1.250000000000e-01 1.250000000000e-01 0.000000000000e+00
2.500000000000e-01 1.250000000000e-01 0.000000000000e+00
-2.500000000000e-01 2.500000000000e-01 0.000000000000e+00
-1.250000000000e-01 2.500000000000e-01 0.000000000000e+00
0.000000000000e+00 2.500000000000e-01 0.000000000000e+00
1.250000000000e-01 2.500000000000e-01 0.000000000000e+00
2.500000000000e-01 2.500000000000e-01 0.000000000000e+00
-2.500000000000e-01 -2.500000000000e-01 6.000000000000e-02
-1.250000000000e-01 -2.500000000000e-01 6.000000000000e-02
0.000000000000e+00 -2.500000000000e-01 6.000000000000e-02
1.250000000000e-01 -2.500000000000e-01 6.000000000000e-02
2.500000000000e-01 -2.500000000000e-01 6.000000000000e-02
-2.500000000000e-01 -1.250000000000e-01 6.000000000000e-02
-1.250000000000e-01 -1.250000000000e-01 6.000000000000e-02
0.000000000000e+00 -1.250000000000e-01 6.000000000000e-02
1.250000000000e-01 -1.250000000000e-01 6.000000000000e-02
2.500000000000e-01 -1.250000000000e-01 6.000000000000e-02
-2.500000000000e-01 0.000000000000e+00 6.000000000000e-02
-1.250000000000e-01 0.000000000000e+00 6.000000000000e-02
0.000000000000e+00 0.000000000000e+00 6.000000000000e-02
1.250000000000e-01 0.000000000000e+00 6.000000000000e-02
2.500000000000e-01 0.000000000000e+00 6.000000000000e-02
-2.500000000000e-01 1.250000000000e-01 6.000000000000e-02
-1.250000000000e-01 1.250000000000e-01 6.000000000000e-02
0.000000000000e+00 1.250000000000e-01 6.000000000000e-02
1.250000000000e-01 1.250000000000e-01 6.000000000000e-02
2.500000000000e-01 1.250000000000e-01 6.000000000000e-02
-2.500000000000e-01 2.500000000000e-01 6.000000000000e-02
-1.250000000000e-01 2.500000000000e-01 6.000000000000e-02
0.000000000000e+00 2.500000000000e-01 6.000000000000e-02
1.250000000000e-01 2.500000000000e-01 6.000000000000e-02
2.500000000000e-01 2.500000000000e-01 6.000000000000e-02
-2.500000000000e-01 -2.500000000000e-01 1.200000000000e-01
-1.250000000000e-01 -2.500000000000e-01 1.200000000000e-01
0.000000000000e+00 -2.500000000000e-01 1.200000000000e-01
1.250000000000e-01 -2.500000000000e-01 1.200000000000e-01
2.500000000000e-01 -2.500000000000e-01 1.200000000000e-01
-2.500000000000e-01 -1.250000000000e-01 1.200000000000e-01
-1.250000000000e-01 -1.250000000000e-01 1.200000000000e-01
0.000000000000e+00 -1.250000000000e-01 1.200000000000e-01
1.250000000000e-01 -1.250000000000e-01 1.200000000000e-01
2.500000000000e-01 -1.250000000000e-01 1.200000000000e-01
-2.500000000000e-01 0.000000000000e+00 1.200000000000e-01
-1.250000000000e-01 0.000000000000e+00 1.200000000000e-01
0.000000000000e+00 0.000000000000e+00 1.200000000000e-01
1.250000000000e-01 0.000000000000e+00 1.200000000000e-01
2.500000000000e-01 0.000000000000e+00 1.200000000000e-01
-2.500000000000e-01 1.250000000000e-01 1.200000000000e-01
-1.250000000000e-01 1.250000000000e-01 1.200000000000e-01
0.000000000000e+00 1.250000000000e-01 1.200000000000e-01
1.250000000000e-01 1.250000000000e-01 1.200000000000e-01
2.500000000000e-01 1.250000000000e-01 1.200000000000e-01
-2.500000000000e-01 2.500000000000e-01 1.200000000000e-01
-1.250000000000e-01 2.500000000000e-01 1.200000000000e-01
0.000000000000e+00 2.500000000000e-01 1.200000000000e-01
1.250000000000e-01 2.500000000000e-01 1.200000000000e-01
2.500000000000e-01 2.500000000000e-01 1.200000000000e-01
-2.500000000000e-01 -2.500000000000e-01 1.800000000000e-01
-1.250000000000e-01 -2.500000000000e-01 1.800000000000e-01
0.000000000000e+00 -2.500000000000e-01 1.800000000000e-01
1.250000000000e-01 -2.500000000000e-01 1.800000000000e-01
2.500000000000e-01 -2.500000000000e-01 1.800000000000e-01
-2.500000000000e-01 -1.250000000000e-01 1.800000000000e-01
-1.250000000000e-01 -1.250000000000e-01 1.800000000000e-01
0.000000000000e+00 -1.250000000000e-01 1.800000000000e-01
1.250000000000e-01 -1.250000000000e-01 1.800000000000e-01
2.500000000000e-01 -1.250000000000e-01 1.800000000000e-01
-2.500000000000e-01 0.000000000000e+00 1.800000000000e-01
-1.250000000000e-01 0.000000000000e+00 1.800000000000e-01
0.000000000000e+00 0.000000000000e+00 1.800000000000e-01
1.250000000000e-01 0.000000000000e+00 1.800000000000e-01
2.500000000000e-01 0.000000000000e+00 1.800000000000e-01
-2.500000000000e-01 1.250000000000e-01 1.800000000000e-01
-1.250000000000e-01 1.250000000000e-01 1.800000000000e-01
0.000000000000e+00 1.250000000000e-01 1.800000000000e-01
1.250000000000e-01 1.250000000000e-01 1.800000000000e-01
2.500000000000e-01 1.250000000000e-01 1.800000000000e-01
-2.500000000000e-01 2.500000000000e-01 1.800000000000e-01
-1.250000000000e-01 2.500000000000e-01 1.800000000000e-01
0.000000000000e+00 2.500000000000e-01 1.800000000000e-01
1.250000000000e-01 2.500000000000e-01 1.800000000000e-01
2.500000000000e-01 2.500000000000e-01 1.800000000000e-01
-2.500000000000e-01 -2.500000000000e-01 2.400000000000e-01
-1.250000000000e-01 -2.500000000000e-01 2.400000000000e-01
0.000000000000e+00 -2.500000000000e-01 2.400000000000e-01
1.250000000000e-01 -2.500000000000e-01 2.400000000000e-01
2.500000000000e-01 -2.500000000000e-01 2.400000000000e-01
-2.500000000000e-01 -1.250000000000e-01 2.400000000000e-01
-1.250000000000e-01 -1.250000000000e-01 2.400000000000e-01
0.000000000000e+00 -1.250000000000e-01 2.400000000000e-01
1.250000000000e-01 -1.250000000000e-01 2.400000000000e-01
2.500000000000e-01 -1.250000000000e-01 2.400000000000e-01
-2.500000000000e-01 0.000000000000e+00 2.400000000000e-01
-1.250000000000e-01 0.000000000000e+00 2.400000000000e-01
0.000000000000e+00 0.000000000000e+00 2.400000000000e-01
1.250000000000e-01 0.000000000000e+00 2.400000000000e-01
2.500000000000e-01 0.000000000000e+00 2.400000000000e-01
-2.500000000000e-01 1.250000000000e-01 2.400000000000e-01
-1.250000000000e-01 1.250000000000e-01 2.400000000000e-01
0.000000000000e+00 1.250000000000e-01 2.400000000000e-01
1.250000000000e-01 1.250000000000e-01 2.400000000000e-01
2.500000000000e-01 1.250000000000e-01 2.400000000000e-01
-2.500000000000e-01 2.500000000000e-01 2.400000000000e-01
-1.250000000000e-01 2.500000000000e-01 2.400000000000e-01
0.000000000000e+00 2.500000000000e-01 2.400000000000e-01
1.250000000000e-01 2.500000000000e-01 2.400000000000e-01
2.500000000000e-01 2.500000000000e-01 2.400000000000e-01
-2.500000036203e-01 -2.500000037795e-01 2.438211014761e-01
-1.250000023743e-01 -2.500000023436e-01 2.438211216788e-01
2.470824403061e-10 -2.499999992062e-01 2.438211323203e-01
1.250000028685e-01 -2.500000023438e-01 2.438211221526e-01
2.500000041144e-01 -2.500000037799e-01 2.438211024237e-01
-2.500000021843e-01 -1.250000025335e-01 2.438211215278e-01
-1.250000021190e-01 -1.250000022783e-01 2.438211418326e-01
2.471837661503e-10 -1.250000003379e-01 2.438211523973e-01
1.250000026133e-01 -1.250000022786e-01 2.438211423064e-01
2.500000026786e-01 -1.250000025339e-01 2.438211224754e-01
-2.499999990466e-01 8.789313975368e-11 2.438211320183e-01
-1.250000001783e-01 8.779113508732e-11 2.438211522463e-01
2.472852937703e-10 8.768919941332e-11 2.438211627723e-01
1.250000006729e-01 8.758746706757e-11 2.438211527201e-01
2.499999995411e-01 8.748582572501e-11 2.438211329659e-01
-2.500000021840e-01 1.250000027093e-01 2.438211216995e-01
-1.250000021188e-01 1.250000024539e-01 2.438211420044e-01
2.473873826163e-10 1.250000005133e-01 2.438211525691e-01
1.250000026135e-01 1.250000024537e-01 2.438211424782e-01
2.500000026788e-01 1.250000027089e-01 2.438211226471e-01
-2.500000036199e-01 2.500000039552e-01 2.438211018197e-01
-1.250000023739e-01 2.500000025192e-01 2.438211220223e-01
2.474896994059e-10 2.499999993815e-01 2.438211326639e-01
1.250000028689e-01 2.500000025190e-01 2.438211224961e-01
2.500000041148e-01 2.500000039548e-01 2.438211027673e-01
-2.500000125034e-01 -2.500000125841e-01 3.088211019191e-01
-1.250000104694e-01 -2.500000108017e-01 3.088211208185e-01
1.238960455098e-10 -2.500000071215e-01 3.088211305236e-01
1.250000107172e-01 -2.500000108019e-01 3.088211212923e-01
2.500000127512e-01 -2.500000125845e-01 3.088211028667e-01
-2.500000107208e-01 -1.250000105500e-01 3.088211206675e-01
-1.250000103271e-01 -1.250000104080e-01 3.088211392636e-01
1.239973330461e-10 -1.250000084462e-01 3.088211486971e-01
1.250000105751e-01 -1.250000104082e-01 3.088211397374e-01
2.500000109688e-01 -1.250000105504e-01 3.088211216151e-01
-2.500000070404e-01 4.322995847280e-11 3.088211302216e-01
-1.250000083651e-01 4.312794110472e-11 3.088211485461e-01
1.240988341800e-10 4.302599991002e-11 3.088211579514e-01
1.250000086133e-01 4.292428684446e-11 3.088211490199e-01
2.500000072886e-01 4.282266065425e-11 3.088211311692e-01
-2.500000107206e-01 1.250000106365e-01 3.088211208393e-01
-1.250000103269e-01 1.250000104942e-01 3.088211394354e-01
1.242009645349e-10 1.250000085322e-01 3.088211488689e-01
1.250000105753e-01 1.250000104940e-01 3.088211399092e-01
2.500000109690e-01 1.250000106361e-01 3.088211217869e-01
-2.500000125030e-01 2.500000126705e-01 3.088211022627e-01
-1.250000104690e-01 2.500000108879e-01 3.088211211621e-01
1.243033187525e-10 2.500000072075e-01 3.088211308672e-01
1.250000107176e-01 2.500000108877e-01 3.088211216359e-01
2.500000127516e-01 2.500000126701e-01 3.088211032102e-01
-2.500000193837e-01 -2.500000193858e-01 3.738211075698e-01
-1.250000168985e-01 -2.500000171938e-01 3.738211234085e-01
7.097028651340e-13 -2.500000128684e-01 3.738211306267e-01
1.250000168999e-01 -2.500000171940e-01 3.738211238823e-01
2.500000193851e-01 -2.500000193862e-01 3.738211085174e-01
-2.500000171914e-01 -1.250000169006e-01 3.738211232575e-01
-1.250000168567e-01 -1.250000168590e-01 3.738211381748e-01
8.110023406074e-13 -1.250000148037e-01 3.738211446837e-01
1.250000168583e-01 -1.250000168592e-01 3.738211386486e-01
2.500000171930e-01 -1.250000169011e-01 3.738211242051e-01
-2.500000128658e-01 -1.433204129051e-12 3.738211303247e-01
-1.250000148011e-01 -1.535216677246e-12 3.738211445327e-01
9.124844826310e-13 -1.637162376671e-12 3.738211507024e-01
1.250000148029e-01 -1.738859278158e-12 3.738211450065e-01
2.500000128676e-01 -1.840490333288e-12 3.738211312723e-01
-2.500000171912e-01 1.250000168978e-01 3.738211234292e-01
-1.250000168565e-01 1.250000168559e-01 3.738211383466e-01
1.014643336103e-12 1.250000148004e-01 3.738211448555e-01
1.250000168585e-01 1.250000168557e-01 3.738211388204e-01
2.500000171932e-01 1.250000168974e-01 3.738211243768e-01
-2.500000193833e-01 2.500000193830e-01 3.738211079134e-01
-1.250000168981e-01 2.500000171907e-01 3.738211237520e-01
1.116986631205e-12 2.500000128651e-01 3.738211309703e-01
1.250000169003e-01 2.500000171905e-01 3.738211242258e-01
2.500000193855e-01 2.500000193826e-01 3.738211088610e-01
-2.500000269049e-01 -2.500000268285e-01 4.388211142245e-01
-1.250000214906e-01 -2.500000241440e-01 4.388211266833e-01
-1.224769727580e-10 -2.500000191634e-01 4.388211310244e-01
1.250000212457e-01 -2.500000241442e-01 4.388211271571e-01
2.500000266599e-01 -2.500000268289e-01 4.388211151721e-01
-2.500000242201e-01 -1.250000214143e-01 4.388211265323e-01
-1.250000214263e-01 -1.250000213502e-01 4.388211372038e-01
-1.223756475220e-10 -1.250000190411e-01 4.388211402666e-01
1.250000211816e-01 -1.250000213504e-01 4.388211376776e-01
2.500000239754e-01 -1.250000214147e-01 4.388211274798e-01
-2.500000192394e-01 -4.609648793399e-11 4.388211307224e-01
-1.250000191170e-01 -4.619849084995e-11 4.388211401156e-01
-1.222741964503e-10 -4.630044521732e-11 4.388211424411e-01
1.250000188725e-01 -4.640212316678e-11 4.388211405894e-01
2.500000189949e-01 -4.650376282158e-11 4.388211316700e-01
-2.500000242199e-01 1.250000213221e-01 4.388211267040e-01
-1.250000214261e-01 1.250000212578e-01 4.388211373756e-01
-1.221719949099e-10 1.250000189485e-01 4.388211404384e-01
1.250000211818e-01 1.250000212576e-01 4.388211378494e-01
2.500000239756e-01 1.250000213217e-01 4.388211276516e-01
-2.500000269045e-01 2.500000267363e-01 4.388211145680e-01
-1.250000214902e-01 2.500000240516e-01 4.388211270268e-01
-1.220696766558e-10 2.500000190708e-01 4.388211313680e-01
1.250000212461e-01 2.500000240514e-01 4.388211275006e-01
2.500000266603e-01 2.500000267359e-01 4.388211155156e-01
-2.500000332943e-01 -2.500000331394e-01 5.038211158037e-01
-1.250000247165e-01 -2.500000295459e-01 5.038211256698e-01
-2.456638946668e-10 -2.500000237102e-01 5.038211276935e-01
1.250000242252e-01 -2.500000295461e-01 5.038211261436e-01
2.500000328030e-01 -2.500000331398e-01 5.038211167513e-01
-2.500000297006e-01 -1.250000245616e-01 5.038211255188e-01
-1.250000240630e-01 -1.250000239083e-01 5.038211327333e-01
-2.455626074932e-10 -1.250000210109e-01 5.038211329835e-01
1.250000235719e-01 -1.250000239085e-01 5.038211332071e-01
2.500000292095e-01 -1.250000245620e-01 5.038211264664e-01
-2.500000238647e-01 -9.075986306042e-11 5.038211273915e-01
-1.250000211654e-01 -9.086187979217e-11 5.038211328325e-01
-2.454611914939e-10 -9.096383723407e-11 5.038211321419e-01
1.250000206745e-01 -9.106549585806e-11 5.038211333063e-01
2.500000233738e-01 -9.116712176356e-11 5.038211283391e-01
-2.500000297004e-01 1.250000243801e-01 5.038211256906e-01
-1.250000240628e-01 1.250000237266e-01 5.038211329051e-01
-2.453589420611e-10 1.250000208290e-01 5.038211331553e-01
1.250000235721e-01 1.250000237264e-01 5.038211333789e-01
2.500000292097e-01 1.250000243797e-01 5.038211266382e-01
-2.500000332939e-01 2.500000329579e-01 5.038211161473e-01
-1.250000247161e-01 2.500000293642e-01 5.038211260134e-01
-2.452565805374e-10 2.500000235282e-01 5.038211280371e-01
1.250000242256e-01 2.500000293639e-01 5.038211264872e-01
2.500000328034e-01 2.500000329575e-01 5.038211170949e-01
CELLS 128 1152
8 0 1 6 5 25 26 31 30
8 1 2 7 6 26 27 32 31
8 2 3 8 7 27 28 33 32
8 3 4 9 8 28 29 34 33
8 5 6 11 10 30 31 36 35
8 6 7 12 11 31 32 37 36
8 7 8 13 12 32 33 38 37
8 8 9 14 13 33 34 39 38
8 10 11 16 15 35 36 41 40
8 11 12 17 16 36 37 42 41
8 12 13 18 17 37 38 43 42
8 13 14 19 18 38 39 44 43
8 15 16 21 20 40 41 46 45
8 16 17 22 21 41 42 47 46
8 17 18 23 22 42 43 48 47
8 18 19 24 23 43 44 49 48
8 25 26 31 30 50 51 56 55
8 26 27 32 31 51 52 57 56
8 27 28 33 32 52 53 58 57
8 28 29 34 33 53 54 59 58
8 30 31 36 35 55 56 61 60
8 31 32 37 36 56 57 62 61
8 32 33 38 37 57 58 63 62
8 33 34 39 38 58 59 64 63
8 35 36 41 40 60 61 66 65
8 36 37 42 41 61 62 67 66
8 37 38 43 42 62 63 68 67
8 38 39 44 43 63 64 69 68
8 40 41 46 45 65 66 71 70
8 41 42 47 46 66 67 72 71
8 42 43 48 47 67 68 73 72
8 43 44 49 48 68 69 74 73
8 50 51 56 55 75 76 81 80
8 51 52 57 56 76 77 82 81
8 52 53 58 57 77 78 83 82
8 53 54 59 58 78 79 84 83
8 55 56 61 60 80 81 86 85
8 56 57 62 61 81 82 87 86
8 57 58 63 62 82 83 88 87
8 58 59 64 63 83 84 89 88
8 60 61 66 65 85 86 91 90
8 61 62 67 66 86 87 92 91
8 62 63 68 67 87 88 93 92
8 63 64 69 68 88 89 94 93
8 65 66 71 70 90 91 96 95
8 66 67 72 71 91 92 97 96
8 67 68 73 72 92 93 98 97
8 68 69 74 73 93 94 99 98
8 75 76 81 80 100 101 106 105
8 76 77 82 81 101 102 107 106
8 77 78 83 82 102 103 108 107
8 78 79 84 83 103 104 109 108
8 80 81 86 85 105 106 111 110
8 81 82 87 86 106 107 112 111
8 82 83 88 87 107 108 113 112
8 83 84 89 88 108 109 114 113
8 85 86 91 90 110 111 116 115
8 86 87 92 91 111 112 117 116
8 87 88 93 92 112 113 118 117
8 88 89 94 93 113 114 119 118
8 90 91 96 95 115 116 121 120
8 91 92 97 96 116 117 122 121
8 92 93 98 97 117 118 123 122
8 93 94 99 98 118 119 124 123
8 125 126 131 130 150 151 156 155
8 126 127 132 131 151 152 157 156
8 127 128 133 132 152 153 158 157
8 128 129 134 133 153 154 159 158
8 130 131 136 135 155 156 161 160
8 131 132 137 136 156 157 162 161
8 132 133 138 137 157 158 163 162
8 133 134 139 138 158 159 164 163
8 135 136 141 140 160 161 166 165
8 136 137 142 141 161 162 167 166
8 137 138 143 142 162 163 168 167
8 138 139 144 143 163 164 169 168
8 140 141 146 145 165 166 171 170
8 141 142 147 146 166 167 172 171
8 142 143 148 147 167 168 173 172
8 143 144 149 148 168 169 174 173
8 150 151 156 155 175 176 181 180
8 151 152 157 156 176 177 182 181
8 152 153 158 157 177 178 183 182
8 153 154 159 158 178 179 184 183
8 155 156 161 160 180 181 186 185
8 156 157 162 161 181 182 187 186
8 157 158 163 162 182 183 188 187
8 158 159 164 163 183 184 189 188
8 160 161 166 165 185 186 191 190
8 161 162 167 166 186 187 192 191
8 162 163 168 167 187 188 193 192
8 163 164 169 168 188 189 194 193
8 165 166 171 170 190 191 196 195
8 166 167 172 171 191 192 197 196
8 167 168 173 172 192 193 198 197
8 168 169 174 173 193 194 199 198
8 175 176 181 180 200 201 206 205
8 176 177 182 181 201 202 207 206
8 177 178 183 182 202 203 208 207
8 178 179 184 183 203 204 209 208
8 180 181 186 185 205 206 211 210
8 181 182 187 186 206 207 212 211
8 182 183 188 187 207 208 213 212
8 183 184 189 188 208 209 214 213
8 185 186 191 190 210 211 216 215
8 186 187 192 191 211 212 217 216
8 187 188 193 192 212 213 218 217
8 188 189 194 193 213 214 219 218
8 190 191 196 195 215 216 221 220
8 191 192 197 196 216 217 222 221
8 192 193 198 197 217 218 223 222
8 193 194 199 198 218 219 224 223
8 200 201 206 205 225 226 231 230
8 201 202 207 206 226 227 232 231
8 202 203 208 207 227 228 233 232
8 203 204 209 208 228 229 234 233
8 205 206 211 210 230 231 236 235
8 206 207 212 211 231 232 237 236
8 207 208 213 212 232 233 238 237
8 208 209 214 213 233 234 239 238
8 210 211 216 215 235 236 241 240
8 211 212 217 216 236 237 242 241
8 212 213 218 217 237 238 243 242
8 213 214 219 218 238 239 244 243
8 215 216 221 220 240 241 246 245
8 216 217 222 221 241 242 247 246
8 217 218 223 222 242 243 248 247
8 218 219 224 223 243 244 249 248
CELL_TYPES 128
12
12
12
12
12
12
12
12
12
12
12
12
12
12
12
12
12
12
12
12
12
12
12
12
12
12
12
12
12
12
12
12
12
12
12
12
12
12
12
12
12
12
12
12
12
12
12
12
12
12
12
12
12
12
12
12
12
12
12
12
12
12
12
12
12
12
12
12
12
12
12
12
12
12
12
12
12
12
12
12
12
12
12
12
12
12
12
12
12
12
12
12
12
12
12
12
12
12
12
12
12
12
12
12
12
12
12
12
12
12
12
12
12
12
12
12
12
12
12
12
12
12
12
12
12
12
12
12
POINT_DATA 250
VECTORS displacement float
0.000000000000e+00 0.000000000000e+00 0.000000000000e+00
0.000000000000e+00 0.000000000000e+00 0.000000000000e+00
0.000000000000e+00 0.000000000000e+00 0.000000000000e+00
0.000000000000e+00 0.000000000000e+00 0.000000000000e+00
0.000000000000e+00 0.000000000000e+00 0.000000000000e+00
0.000000000000e+00 0.000000000000e+00 0.000000000000e+00
0.000000000000e+00 0.000000000000e+00 0.000000000000e+00
0.000000000000e+00 0.000000000000e+00 0.000000000000e+00
0.000000000000e+00 0.000000000000e+00 0.000000000000e+00
0.000000000000e+00 0.000000000000e+00 0.000000000000e+00
0.000000000000e+00 0.000000000000e+00 0.000000000000e+00
0.000000000000e+00 0.000000000000e+00 0.000000000000e+00
0.000000000000e+00 0.000000000000e+00 0.000000000000e+00
0.000000000000e+00 0.000000000000e+00 0.000000000000e+00
0.000000000000e+00 0.000000000000e+00 0.000000000000e+00
0.000000000000e+00 0.000000000000e+00 0.000000000000e+00
0.000000000000e+00 0.000000000000e+00 0.000000000000e+00
0.000000000000e+00 0.000000000000e+00 0.000000000000e+00
0.000000000000e+00 0.000000000000e+00 0.000000000000e+00
0.000000000000e+00 0.000000000000e+00 0.000000000000e+00
0.000000000000e+00 0.000000000000e+00 0.000000000000e+00
0.000000000000e+00 0.000000000000e+00 0.000000000000e+00
0.000000000000e+00 0.000000000000e+00 0.000000000000e+00
0.000000000000e+00 0.000000000000e+00 0.000000000000e+00
0.000000000000e+00 0.000000000000e+00 0.000000000000e+00
0.000000000000e+00 0.000000000000e+00 0.000000000000e+00
0.000000000000e+00 0.000000000000e+00 0.000000000000e+00
0.000000000000e+00 0.000000000000e+00 0.000000000000e+00
0.000000000000e+00 0.000000000000e+00 0.000000000000e+00
0.000000000000e+00 0.000000000000e+00 0.000000000000e+00
0.000000000000e+00 0.000000000000e+00 0.000000000000e+00
0.000000000000e+00 0.000000000000e+00 0.000000000000e+00
0.000000000000e+00 0.000000000000e+00 0.000000000000e+00
0.000000000000e+00 0.000000000000e+00 0.000000000000e+00
0.000000000000e+00 0.000000000000e+00 0.000000000000e+00
0.000000000000e+00 0.000000000000e+00 0.000000000000e+00
0.000000000000e+00 0.000000000000e+00 0.000000000000e+00
0.000000000000e+00 0.000000000000e+00 0.000000000000e+00
0.000000000000e+00 0.000000000000e+00 0.000000000000e+00
0.000000000000e+00 0.000000000000e+00 0.000000000000e+00
0.000000000000e+00 0.000000000000e+00 0.000000000000e+00
0.000000000000e+00 0.000000000000e+00 0.000000000000e+00
0.000000000000e+00 0.000000000000e+00 0.000000000000e+00
0.000000000000e+00 0.000000000000e+00 0.000000000000e+00
0.000000000000e+00 0.000000000000e+00 0.000000000000e+00
0.000000000000e+00 0.000000000000e+00 0.000000000000e+00
0.000000000000e+00 0.000000000000e+00 0.000000000000e+00
0.000000000000e+00 0.000000000000e+00 0.000000000000e+00
0.000000000000e+00 0.000000000000e+00 0.000000000000e+00
0.000000000000e+00 0.000000000000e+00 0.000000000000e+00
0.000000000000e+00 0.000000000000e+00 0.000000000000e+00
0.000000000000e+00 0.000000000000e+00 0.000000000000e+00
0.000000000000e+00 0.000000000000e+00 0.000000000000e+00
0.000000000000e+00 0.000000000000e+00 0.000000000000e+00
0.000000000000e+00 0.000000000000e+00 0.000000000000e+00
0.000000000000e+00 0.000000000000e+00 0.000000000000e+00
0.000000000000e+00 0.000000000000e+00 0.000000000000e+00
0.000000000000e+00 0.000000000000e+00 0.000000000000e+00
0.000000000000e+00 0.000000000000e+00 0.000000000000e+00
0.000000000000e+00 0.000000000000e+00 0.000000000000e+00
0.000000000000e+00 0.000000000000e+00 0.000000000000e+00
0.000000000000e+00 0.000000000000e+00 0.000000000000e+00
0.000000000000e+00 0.000000000000e+00 0.000000000000e+00
0.000000000000e+00 0.000000000000e+00 0.000000000000e+00
0.000000000000e+00 0.000000000000e+00 0.000000000000e+00
0.000000000000e+00 0.000000000000e+00 0.000000000000e+00
0.000000000000e+00 0.000000000000e+00 0.000000000000e+00
0.000000000000e+00 0.000000000000e+00 0.000000000000e+00
0.000000000000e+00 0.000000000000e+00 0.000000000000e+00
0.000000000000e+00 0.000000000000e+00 0.000000000000e+00
0.000000000000e+00 0.000000000000e+00 0.000000000000e+00
0.000000000000e+00 0.000000000000e+00 0.000000000000e+00
0.000000000000e+00 0.000000000000e+00 0.000000000000e+00
0.000000000000e+00 0.000000000000e+00 0.000000000000e+00
0.000000000000e+00 0.000000000000e+00 0.000000000000e+00
0.000000000000e+00 0.000000000000e+00 0.000000000000e+00
0.000000000000e+00 0.000000000000e+00 0.000000000000e+00
0.000000000000e+00 0.000000000000e+00 0.000000000000e+00
0.000000000000e+00 0.000000000000e+00 0.000000000000e+00
0.000000000000e+00 0.000000000000e+00 0.000000000000e+00
0.000000000000e+00 0.000000000000e+00 0.000000000000e+00
0.000000000000e+00 0.000000000000e+00 0.000000000000e+00
0.000000000000e+00 0.000000000000e+00 0.000000000000e+00
0.000000000000e+00 0.000000000000e+00 0.000000000000e+00
0.000000000000e+00 0.000000000000e+00 0.000000000000e+00
0.000000000000e+00 0.000000000000e+00 0.000000000000e+00
0.000000000000e+00 0.000000000000e+00 0.000000000000e+00
0.000000000000e+00 0.000000000000e+00 0.000000000000e+00
0.000000000000e+00 0.000000000000e+00 0.000000000000e+00
0.000000000000e+00 0.000000000000e+00 0.000000000000e+00
0.000000000000e+00 0.000000000000e+00 0.000000000000e+00
0.000000000000e+00 0.000000000000e+00 0.000000000000e+00
0.000000000000e+00 0.000000000000e+00 0.000000000000e+00
0.000000000000e+00 0.000000000000e+00 0.000000000000e+00
0.000000000000e+00 0.000000000000e+00 0.000000000000e+00
0.000000000000e+00 0.000000000000e+00 0.000000000000e+00
0.000000000000e+00 0.000000000000e+00 0.000000000000e+00
0.000000000000e+00 0.000000000000e+00 0.000000000000e+00
0.000000000000e+00 0.000000000000e+00 0.000000000000e+00
0.000000000000e+00 0.000000000000e+00 0.000000000000e+00
0.000000000000e+00 0.000000000000e+00 0.000000000000e+00
0.000000000000e+00 0.000000000000e+00 0.000000000000e+00
0.000000000000e+00 0.000000000000e+00 0.000000000000e+00
0.000000000000e+00 0.000000000000e+00 0.000000000000e+00
0.000000000000e+00 0.000000000000e+00 0.000000000000e+00
0.000000000000e+00 0.000000000000e+00 0.000000000000e+00
0.000000000000e+00 0.000000000000e+00 0.000000000000e+00
0.000000000000e+00 0.000000000000e+00 0.000000000000e+00
0.000000000000e+00 0.000000000000e+00 0.000000000000e+00
0.000000000000e+00 0.000000000000e+00 0.000000000000e+00
0.000000000000e+00 0.000000000000e+00 0.000000000000e+00
0.000000000000e+00 0.000000000000e+00 0.000000000000e+00
0.000000000000e+00 0.000000000000e+00 0.000000000000e+00
0.000000000000e+00 0.000000000000e+00 0.000000000000e+00
0.000000000000e+00 0.000000000000e+00 0.000000000000e+00
0.000000000000e+00 0.000000000000e+00 0.000000000000e+00
0.000000000000e+00 0.000000000000e+00 0.000000000000e+00
0.000000000000e+00 0.000000000000e+00 0.000000000000e+00
0.000000000000e+00 0.000000000000e+00 0.000000000000e+00
0.000000000000e+00 0.000000000000e+00 0.000000000000e+00
0.000000000000e+00 0.000000000000e+00 0.000000000000e+00
0.000000000000e+00 0.000000000000e+00 0.000000000000e+00
0.000000000000e+00 0.000000000000e+00 0.000000000000e+00
0.000000000000e+00 0.000000000000e+00 0.000000000000e+00
0.000000000000e+00 0.000000000000e+00 0.000000000000e+00
-3.620263634294e-09 -3.779453194770e-09 -1.117889852388e-02
-2.374305924757e-09 -2.343645387479e-09 -1.117887832123e-02
2.470824403061e-10 7.938304911707e-10 -1.117886767967e-02
2.868470067098e-09 -2.343848302529e-09 -1.117887784744e-02
4.114427060178e-09 -3.779858297944e-09 -1.117889757629e-02
-2.184253074147e-09 -2.533495522325e-09 -1.117887847224e-02
-2.118954961919e-09 -2.278347500152e-09 -1.117885816738e-02
2.471837661503e-10 -3.379196173656e-10 -1.117884760267e-02
2.613321538263e-09 -2.278550539728e-09 -1.117885769359e-02
2.678618800411e-09 -2.533901219763e-09 -1.117887752465e-02
9.534260396594e-10 8.789313975368e-11 -1.117886798168e-02
-1.783238238243e-10 8.779113508732e-11 -1.117884775368e-02
2.472852937703e-10 8.768919941332e-11 -1.117883722774e-02
6.728934256362e-10 8.758746706757e-11 -1.117884727988e-02
-4.588572133403e-10 8.748582572501e-11 -1.117886703410e-02
-2.184049178133e-09 2.709281533841e-09 -1.117887830046e-02
-2.118751116942e-09 2.453929424555e-09 -1.117885799560e-02
2.473873826163e-10 5.132976563719e-10 -1.117884743089e-02
2.613524932258e-09 2.453725133869e-09 -1.117885752180e-02
2.678822152228e-09 2.708872595151e-09 -1.117887735287e-02
-3.619855580679e-09 3.955238945154e-09 -1.117889818032e-02
-2.373898083933e-09 2.519227001635e-09 -1.117887797767e-02
2.474896994059e-10 -6.184527317617e-10 -1.117886733611e-02
2.868876736043e-09 2.519022586904e-09 -1.117887750387e-02
4.114833505563e-09 3.954829412143e-09 -1.117889723273e-02
-1.250341591646e-08 -1.258408243935e-08 -1.117889808090e-02
-1.046936586443e-08 -1.080167212972e-08 -1.117887918148e-02
1.238960455098e-10 -7.121473153169e-09 -1.117886947637e-02
1.071715760365e-08 -1.080187506703e-08 -1.117887870768e-02
1.275120717957e-08 -1.258448758691e-08 -1.117889713332e-02
-1.072080288108e-08 -1.055003229454e-08 -1.117887933248e-02
-1.032712202747e-08 -1.040799139925e-08 -1.117886073635e-02
1.239973330461e-10 -8.446180320799e-09 -1.117885130293e-02
1.057511614444e-08 -1.040819458457e-08 -1.117886026256e-02
1.096879637384e-08 -1.055043819041e-08 -1.117887838489e-02
-7.040400685089e-09 4.322995847280e-11 -1.117886977839e-02
-8.365107671602e-09 4.312794110472e-11 -1.117885145394e-02
1.240988341800e-10 4.302599991002e-11 -1.117884204863e-02
8.613304753277e-09 4.292428684446e-11 -1.117885098014e-02
7.288597181355e-09 4.282266065425e-11 -1.117886883080e-02
-1.072059899076e-08 1.063649207909e-08 -1.117887916070e-02
-1.032691822859e-08 1.049424708296e-08 -1.117886056457e-02
1.242009645349e-10 8.532232107674e-09 -1.117885113115e-02
1.057531960503e-08 1.049404295625e-08 -1.117886009078e-02
1.096899974434e-08 1.063608338097e-08 -1.117887821311e-02
-1.250300786224e-08 1.267054205020e-08 -1.117889773734e-02
-1.046895808359e-08 1.088792758911e-08 -1.117887883791e-02
1.243033187525e-10 7.207524722582e-09 -1.117886913281e-02
1.071756436923e-08 1.088772321378e-08 -1.117887836412e-02
1.275161366937e-08 1.267013259791e-08 -1.117889678975e-02
-1.938369156068e-08 -1.938583495570e-08 -1.117889243016e-02
-1.689850408410e-08 -1.719376870521e-08 -1.117887659153e-02
7.097028651340e-13 -1.286836563178e-08 -1.117886937331e-02
1.689992334846e-08 -1.719397168209e-08 -1.117887611774e-02
1.938511039932e-08 -1.938624015971e-08 -1.117889148258e-02
-1.719142258656e-08 -1.690064732967e-08 -1.117887674254e-02
-1.685666862807e-08 -1.685901482950e-08 -1.117886182516e-02
8.110023406074e-13 -1.480367367951e-08 -1.117885531628e-02
1.685829027665e-08 -1.685921816324e-08 -1.117886135137e-02
1.719304360755e-08 -1.690105342432e-08 -1.117887579495e-02
-1.286581632094e-08 -1.433204129051e-12 -1.117886967532e-02
-1.480112416632e-08 -1.535216677246e-12 -1.117885546729e-02
9.124844826310e-13 -1.637162376671e-12 -1.117884929763e-02
1.480294872857e-08 -1.738859278158e-12 -1.117885499349e-02
1.286764025154e-08 -1.840490333288e-12 -1.117886872773e-02
-1.719121870237e-08 1.689778086793e-08 -1.117887657076e-02
-1.685646487513e-08 1.685594426822e-08 -1.117886165338e-02
1.014643336103e-12 1.480039920800e-08 -1.117885514450e-02
1.685849380592e-08 1.685574031365e-08 -1.117886117958e-02
1.719324700534e-08 1.689737238771e-08 -1.117887562317e-02
-1.938328351881e-08 1.938296833683e-08 -1.117889208660e-02
-1.689809636637e-08 1.719069791080e-08 -1.117887624797e-02
1.116986631205e-12 1.286509093130e-08 -1.117886902974e-02
1.690033019858e-08 1.719049360062e-08 -1.117887577417e-02
1.938551692728e-08 1.938255896643e-08 -1.117889113901e-02
-2.690487748576e-08 -2.682849756233e-08 -1.117888577553e-02
-2.149063220924e-08 -2.414396136266e-08 -1.117887331674e-02
-1.224769727580e-10 -1.916344380685e-08 -1.117886897557e-02
2.124567838548e-08 -2.414416455401e-08 -1.117887284294e-02
2.665992361954e-08 -2.682890314194e-08 -1.117888482794e-02
-2.422013852188e-08 -2.141425207030e-08 -1.117887346774e-02
-2.142634174451e-08 -2.135016458706e-08 -1.117886279617e-02
-1.223756475220e-10 -1.904106923780e-08 -1.117885973337e-02
2.118159033088e-08 -2.135036807552e-08 -1.117886232238e-02
2.397538682200e-08 -2.141465836733e-08 -1.117887252015e-02
-1.923941772996e-08 -4.609648793399e-11 -1.117886927758e-02
-1.911704305760e-08 -4.619849084995e-11 -1.117885988438e-02
-1.222741964503e-10 -4.630044521732e-11 -1.117885755891e-02
1.887249448893e-08 -4.640212316678e-11 -1.117885941058e-02
1.899486885278e-08 -4.650376282158e-11 -1.117886832999e-02
-2.421993470269e-08 2.132205913700e-08 -1.117887329596e-02
-2.142613803910e-08 2.125776756013e-08 -1.117886262439e-02
-1.221719949099e-10 1.894846828658e-08 -1.117885956159e-02
2.118179392947e-08 2.125756378349e-08 -1.117886215059e-02
2.397559031043e-08 2.132165088600e-08 -1.117887234837e-02
-2.690446957035e-08 2.673630460757e-08 -1.117888543197e-02
-2.149022455341e-08 2.405156423269e-08 -1.117887297317e-02
-1.220696766558e-10 1.907084273953e-08 -1.117886863201e-02
2.124608532196e-08 2.405136015806e-08 -1.117887249938e-02
2.666033029807e-08 2.673589564641e-08 -1.117888448438e-02
-3.329429311967e-08 -3.313938980954e-08 -1.117888419626e-02
-2.471653311144e-08 -2.954587702072e-08 -1.117887433015e-02
-2.456638946668e-10 -2.371017619831e-08 -1.117887230645e-02
2.422520589403e-08 -2.954608046185e-08 -1.117887385636e-02
3.280296643396e-08 -3.313979584440e-08 -1.117888324867e-02
-2.970057752765e-08 -2.456162946828e-08 -1.117887448116e-02
-2.406299324497e-08 -2.390829258749e-08 -1.117886726667e-02
-2.455626074932e-10 -2.101092984802e-08 -1.117886701652e-02
2.357186836103e-08 -2.390849624010e-08 -1.117886679288e-02
2.920945293048e-08 -2.456203602722e-08 -1.117887353357e-02
-2.386467342119e-08 -9.075986306042e-11 -1.117887260847e-02
-2.116542714028e-08 -9.086187979217e-11 -1.117886716753e-02
-2.454611914939e-10 -9.096383723407e-11 -1.117886785813e-02
2.067450501499e-08 -9.106549585806e-11 -1.117886669373e-02
2.337375152283e-08 -9.116712176356e-11 -1.117887166088e-02
-2.970037378549e-08 2.438010994992e-08 -1.117887430938e-02
-2.406278958487e-08 2.372656895210e-08 -1.117886709489e-02
-2.453589420611e-10 2.082900226078e-08 -1.117886684474e-02
2.357207203148e-08 2.372636536523e-08 -1.117886662110e-02
2.920965652533e-08 2.437970199622e-08 -1.117887336179e-02
-3.329388535307e-08 3.295787048678e-08 -1.117888385269e-02
-2.471612553640e-08 2.936415348826e-08 -1.117887398659e-02
-2.452565805374e-10 2.352824868737e-08 -1.117887196289e-02
2.422561295137e-08 2.936394968708e-08 -1.117887351279e-02
3.280337330400e-08 3.295746201830e-08 -1.117888290510e-02
SCALARS displacement_magnitude float 1
LOOKUP_TABLE default
0.000000000000e+00
0.000000000000e+00
0.000000000000e+00
0.000000000000e+00
0.000000000000e+00
0.000000000000e+00
0.000000000000e+00
0.000000000000e+00
0.000000000000e+00
0.000000000000e+00
0.000000000000e+00
0.000000000000e+00
0.000000000000e+00
0.000000000000e+00
0.000000000000e+00
0.000000000000e+00
0.000000000000e+00
0.000000000000e+00
0.000000000000e+00
0.000000000000e+00
0.000000000000e+00
0.000000000000e+00
0.000000000000e+00
0.000000000000e+00
0.000000000000e+00
0.000000000000e+00
0.000000000000e+00
0.000000000000e+00
0.000000000000e+00
0.000000000000e+00
0.000000000000e+00
0.000000000000e+00
0.000000000000e+00
0.000000000000e+00
0.000000000000e+00
0.000000000000e+00
0.000000000000e+00
0.000000000000e+00
0.000000000000e+00
0.000000000000e+00
0.000000000000e+00
0.000000000000e+00
0.000000000000e+00
0.000000000000e+00
0.000000000000e+00
0.000000000000e+00
0.000000000000e+00
0.000000000000e+00
0.000000000000e+00
0.000000000000e+00
0.000000000000e+00
0.000000000000e+00
0.000000000000e+00
0.000000000000e+00
0.000000000000e+00
0.000000000000e+00
0.000000000000e+00
0.000000000000e+00
0.000000000000e+00
0.000000000000e+00
0.000000000000e+00
0.000000000000e+00
0.000000000000e+00
0.000000000000e+00
0.000000000000e+00
0.000000000000e+00
0.000000000000e+00
0.000000000000e+00
0.000000000000e+00
0.000000000000e+00
0.000000000000e+00
0.000000000000e+00
0.000000000000e+00
0.000000000000e+00
0.000000000000e+00
0.000000000000e+00
0.000000000000e+00
0.000000000000e+00
0.000000000000e+00
0.000000000000e+00
0.000000000000e+00
0.000000000000e+00
0.000000000000e+00
0.000000000000e+00
0.000000000000e+00
0.000000000000e+00
0.000000000000e+00
0.000000000000e+00
0.000000000000e+00
0.000000000000e+00
0.000000000000e+00
0.000000000000e+00
0.000000000000e+00
0.000000000000e+00
0.000000000000e+00
0.000000000000e+00
0.000000000000e+00
0.000000000000e+00
0.000000000000e+00
0.000000000000e+00
0.000000000000e+00
0.000000000000e+00
0.000000000000e+00
0.000000000000e+00
0.000000000000e+00
0.000000000000e+00
0.000000000000e+00
0.000000000000e+00
0.000000000000e+00
0.000000000000e+00
0.000000000000e+00
0.000000000000e+00
0.000000000000e+00
0.000000000000e+00
0.000000000000e+00
0.000000000000e+00
0.000000000000e+00
0.000000000000e+00
0.000000000000e+00
0.000000000000e+00
0.000000000000e+00
0.000000000000e+00
0.000000000000e+00
0.000000000000e+00
0.000000000000e+00
1.117889852388e-02
1.117887832123e-02
1.117886767967e-02
1.117887784744e-02
1.117889757629e-02
1.117887847224e-02
1.117885816738e-02
1.117884760267e-02
1.117885769359e-02
1.117887752465e-02
1.117886798168e-02
1.117884775368e-02
1.117883722774e-02
1.117884727988e-02
1.117886703410e-02
1.117887830046e-02
1.117885799560e-02
1.117884743089e-02
1.117885752180e-02
1.117887735287e-02
1.117889818032e-02
1.117887797767e-02
1.117886733611e-02
1.117887750387e-02
1.117889723273e-02
1.117889808092e-02
1.117887918149e-02
1.117886947637e-02
1.117887870769e-02
1.117889713333e-02
1.117887933249e-02
1.117886073636e-02
1.117885130293e-02
1.117886026257e-02
1.117887838490e-02
1.117886977839e-02
1.117885145394e-02
1.117884204863e-02
1.117885098014e-02
1.117886883080e-02
1.117887916071e-02
1.117886056458e-02
1.117885113115e-02
1.117886009079e-02
1.117887821312e-02
1.117889773735e-02
1.117887883792e-02
1.117886913281e-02
1.117887836413e-02
1.117889678977e-02
1.117889243020e-02
1.117887659156e-02
1.117886937331e-02
1.117887611776e-02
1.117889148261e-02
1.117887674256e-02
1.117886182519e-02
1.117885531629e-02
1.117886135139e-02
1.117887579497e-02
1.117886967533e-02
1.117885546730e-02
1.117884929763e-02
1.117885499350e-02
1.117886872774e-02
1.117887657078e-02
1.117886165340e-02
1.117885514451e-02
1.117886117961e-02
1.117887562319e-02
1.117889208663e-02
1.117887624799e-02
1.117886902975e-02
1.117887577420e-02
1.117889113905e-02
1.117888577560e-02
1.117887331678e-02
1.117886897559e-02
1.117887284299e-02
1.117888482801e-02
1.117887346779e-02
1.117886279621e-02
1.117885973339e-02
1.117886232242e-02
1.117887252020e-02
1.117886927760e-02
1.117885988439e-02
1.117885755891e-02
1.117885941060e-02
1.117886833001e-02
1.117887329601e-02
1.117886262443e-02
1.117885956160e-02
1.117886215063e-02
1.117887234842e-02
1.117888543203e-02
1.117887297322e-02
1.117886863202e-02
1.117887249942e-02
1.117888448444e-02
1.117888419635e-02
1.117887433022e-02
1.117887230648e-02
1.117887385642e-02
1.117888324876e-02
1.117887448123e-02
1.117886726673e-02
1.117886701654e-02
1.117886679293e-02
1.117887353363e-02
1.117887260849e-02
1.117886716755e-02
1.117886785813e-02
1.117886669375e-02
1.117887166090e-02
1.117887430944e-02
1.117886709494e-02
1.117886684476e-02
1.117886662115e-02
1.117887336185e-02
1.117888385279e-02
1.117887398666e-02
1.117887196291e-02
1.117887351286e-02
1.117888290520e-02
CELL_DATA 128
SCALARS displacement_magnitude float 1
LOOKUP_TABLE default
0.000000000000e+00
0.000000000000e+00
0.000000000000e+00
0.000000000000e+00
0.000000000000e+00
0.000000000000e+00
0.000000000000e+00
0.000000000000e+00
0.000000000000e+00
0.000000000000e+00
0.000000000000e+00
0.000000000000e+00
0.000000000000e+00
0.000000000000e+00
0.000000000000e+00
0.000000000000e+00
0.000000000000e+00
0.000000000000e+00
0.000000000000e+00
0.000000000000e+00
0.000000000000e+00
0.000000000000e+00
0.000000000000e+00
0.000000000000e+00
0.000000000000e+00
0.000000000000e+00
0.000000000000e+00
0.000000000000e+00
0.000000000000e+00
0.000000000000e+00
0.000000000000e+00
0.000000000000e+00
0.000000000000e+00
0.000000000000e+00
0.000000000000e+00
0.000000000000e+00
0.000000000000e+00
0.000000000000e+00
0.000000000000e+00
0.000000000000e+00
0.000000000000e+00
0.000000000000e+00
0.000000000000e+00
0.000000000000e+00
0.000000000000e+00
0.000000000000e+00
0.000000000000e+00
0.000000000000e+00
0.000000000000e+00
0.000000000000e+00
0.000000000000e+00
0.000000000000e+00
0.000000000000e+00
0.000000000000e+00
0.000000000000e+00
0.000000000000e+00
0.000000000000e+00
0.000000000000e+00
0.000000000000e+00
0.000000000000e+00
0.000000000000e+00
0.000000000000e+00
0.000000000000e+00
0.000000000000e+00
1.117887885200e-02
1.117886405851e-02
1.117886382162e-02
1.117887814131e-02
1.117886420952e-02
1.117884953667e-02
1.117884929977e-02
1.117886349883e-02
1.117886412363e-02
1.117884945077e-02
1.117884921388e-02
1.117886341294e-02
1.117887859433e-02
1.117886380084e-02
1.117886356394e-02
1.117887788364e-02
1.117887811510e-02
1.117886547544e-02
1.117886523854e-02
1.117887740440e-02
1.117886562644e-02
1.117885343103e-02
1.117885319414e-02
1.117886491575e-02
1.117886554055e-02
1.117885334514e-02
1.117885310824e-02
1.117886482986e-02
1.117887785742e-02
1.117886521776e-02
1.117886498087e-02
1.117887714673e-02
1.117887536824e-02
1.117886599104e-02
1.117886575414e-02
1.117887465754e-02
1.117886614205e-02
1.117885773491e-02
1.117885749801e-02
1.117886543135e-02
1.117886605615e-02
1.117885764902e-02
1.117885741212e-02
1.117886534546e-02
1.117887511056e-02
1.117886573337e-02
1.117886549647e-02
1.117887439987e-02
1.117887445386e-02
1.117886821774e-02
1.117886798084e-02
1.117887374317e-02
1.117886836875e-02
1.117886366023e-02
1.117886342333e-02
1.117886765805e-02
1.117886828286e-02
1.117886357434e-02
1.117886333744e-02
1.117886757216e-02
1.117887419619e-02
1.117886796007e-02
1.117886772317e-02
1.117887348550e-02
SCALARS engineering_strain_norm float 1
LOOKUP_TABLE default
0.000000000000e+00
0.000000000000e+00
0.000000000000e+00
0.000000000000e+00
0.000000000000e+00
0.000000000000e+00
0.000000000000e+00
0.000000000000e+00
0.000000000000e+00
0.000000000000e+00
0.000000000000e+00
0.000000000000e+00
0.000000000000e+00
0.000000000000e+00
0.000000000000e+00
0.000000000000e+00
0.000000000000e+00
0.000000000000e+00
0.000000000000e+00
0.000000000000e+00
0.000000000000e+00
0.000000000000e+00
0.000000000000e+00
0.000000000000e+00
0.000000000000e+00
0.000000000000e+00
0.000000000000e+00
0.000000000000e+00
0.000000000000e+00
0.000000000000e+00
0.000000000000e+00
0.000000000000e+00
0.000000000000e+00
0.000000000000e+00
0.000000000000e+00
0.000000000000e+00
0.000000000000e+00
0.000000000000e+00
0.000000000000e+00
0.000000000000e+00
0.000000000000e+00
0.000000000000e+00
0.000000000000e+00
0.000000000000e+00
0.000000000000e+00
0.000000000000e+00
0.000000000000e+00
0.000000000000e+00
0.000000000000e+00
0.000000000000e+00
0.000000000000e+00
0.000000000000e+00
0.000000000000e+00
0.000000000000e+00
0.000000000000e+00
0.000000000000e+00
0.000000000000e+00
0.000000000000e+00
0.000000000000e+00
0.000000000000e+00
0.000000000000e+00
0.000000000000e+00
0.000000000000e+00
0.000000000000e+00
4.385819998995e-08
7.408901466651e-08
7.408900940848e-08
4.385819824566e-08
7.408901553493e-08
8.809445279350e-08
8.809444568489e-08
7.408900770287e-08
7.408901364662e-08
8.809445022811e-08
8.809444303603e-08
7.408900571831e-08
4.385819933808e-08
7.408901186357e-08
7.408900649633e-08
4.385819760378e-08
6.629351163978e-08
1.190113262432e-07
1.190113230624e-07
6.629351759112e-08
1.190113273382e-07
1.581173753461e-07
1.581173697271e-07
1.190113208346e-07
1.190113261658e-07
1.581173733322e-07
1.581173676930e-07
1.190113196415e-07
6.629351379380e-08
1.190113239010e-07
1.190113206882e-07
6.629351987825e-08
6.429105073751e-08
1.561161396387e-07
1.561161392739e-07
6.429105800256e-08
1.561161410889e-07
2.157756398999e-07
2.157756370702e-07
1.561161360854e-07
1.561161409380e-07
2.157756388681e-07
2.157756360442e-07
1.561161359456e-07
6.429105337586e-08
1.561161377967e-07
1.561161374513e-07
6.429106066653e-08
7.390546374690e-08
1.965871465968e-07
1.965871491633e-07
7.390546316227e-08
1.965871486014e-07
2.667925863894e-07
2.667925867649e-07
1.965871445669e-07
1.965871495002e-07
2.667925864872e-07
2.667925868948e-07
1.965871455235e-07
7.390546350977e-08
1.965871450573e-07
1.965871476737e-07
7.390546306000e-08
SCALARS von_mises float 1
LOOKUP_TABLE default
0.000000000000e+00
0.000000000000e+00
0.000000000000e+00
0.000000000000e+00
0.000000000000e+00
0.000000000000e+00
0.000000000000e+00
0.000000000000e+00
0.000000000000e+00
0.000000000000e+00
0.000000000000e+00
0.000000000000e+00
0.000000000000e+00
0.000000000000e+00
0.000000000000e+00
0.000000000000e+00
0.000000000000e+00
0.000000000000e+00
0.000000000000e+00
0.000000000000e+00
0.000000000000e+00
0.000000000000e+00
0.000000000000e+00
0.000000000000e+00
0.000000000000e+00
0.000000000000e+00
0.000000000000e+00
0.000000000000e+00
0.000000000000e+00
0.000000000000e+00
0.000000000000e+00
0.000000000000e+00
0.000000000000e+00
0.000000000000e+00
0.000000000000e+00
0.000000000000e+00
0.000000000000e+00
0.000000000000e+00
0.000000000000e+00
0.000000000000e+00
0.000000000000e+00
0.000000000000e+00
0.000000000000e+00
0.000000000000e+00
0.000000000000e+00
0.000000000000e+00
0.000000000000e+00
0.000000000000e+00
0.000000000000e+00
0.000000000000e+00
0.000000000000e+00
0.000000000000e+00
0.000000000000e+00
0.000000000000e+00
0.000000000000e+00
0.000000000000e+00
0.000000000000e+00
0.000000000000e+00
0.000000000000e+00
0.000000000000e+00
0.000000000000e+00
0.000000000000e+00
0.000000000000e+00
0.000000000000e+00
3.162908251091e-03
6.413495878437e-03
6.413495403513e-03
3.162907955045e-03
6.413495980881e-03
7.930886519556e-03
7.930885953621e-03
6.413495204698e-03
6.413495808024e-03
7.930886313695e-03
7.930885742875e-03
6.413495027101e-03
3.162908142380e-03
6.413495598927e-03
6.413495118679e-03
3.162907847343e-03
4.074403086943e-03
9.476657479319e-03
9.476657165594e-03
4.074403773103e-03
9.476657609038e-03
1.272364889670e-02
1.272364837939e-02
9.476656903463e-03
9.476657492369e-03
1.272364871105e-02
1.272364819294e-02
9.476656785958e-03
4.074403336237e-03
9.476657225007e-03
9.476656909807e-03
4.074404032203e-03
2.810287523513e-03
1.210333509200e-02
1.210333495610e-02
2.810288467909e-03
1.210333526835e-02
1.645703441493e-02
1.645703404076e-02
1.210333457340e-02
1.210333521651e-02
1.645703427771e-02
1.645703390389e-02
1.210333452287e-02
2.810287868443e-03
1.210333483584e-02
1.210333470342e-02
2.810288815099e-03
5.371938659994e-03
1.665992965554e-02
1.665992980311e-02
5.371938389695e-03
1.665992984829e-02
2.182270334471e-02
2.182270330531e-02
1.665992936026e-02
1.665992989903e-02
2.182270332695e-02
2.182270328959e-02
1.665992941503e-02
5.371938558678e-03
1.665992947128e-02
1.665992962114e-02
5.371938301048e-03
SCALARS sdf_gap float 1
LOOKUP_TABLE default
0.000000000000e+00
0.000000000000e+00
0.000000000000e+00
0.000000000000e+00
0.000000000000e+00
0.000000000000e+00
0.000000000000e+00
0.000000000000e+00
0.000000000000e+00
0.000000000000e+00
0.000000000000e+00
0.000000000000e+00
0.000000000000e+00
0.000000000000e+00
0.000000000000e+00
0.000000000000e+00
0.000000000000e+00
0.000000000000e+00
0.000000000000e+00
0.000000000000e+00
0.000000000000e+00
0.000000000000e+00
0.000000000000e+00
0.000000000000e+00
0.000000000000e+00
0.000000000000e+00
0.000000000000e+00
0.000000000000e+00
0.000000000000e+00
0.000000000000e+00
0.000000000000e+00
0.000000000000e+00
0.000000000000e+00
0.000000000000e+00
0.000000000000e+00
0.000000000000e+00
0.000000000000e+00
0.000000000000e+00
0.000000000000e+00
0.000000000000e+00
0.000000000000e+00
0.000000000000e+00
0.000000000000e+00
0.000000000000e+00
0.000000000000e+00
0.000000000000e+00
0.000000000000e+00
0.000000000000e+00
0.000000000000e+00
0.000000000000e+00
0.000000000000e+00
0.000000000000e+00
0.000000000000e+00
0.000000000000e+00
0.000000000000e+00
0.000000000000e+00
0.000000000000e+00
0.000000000000e+00
0.000000000000e+00
0.000000000000e+00
0.000000000000e+00
0.000000000000e+00
0.000000000000e+00
0.000000000000e+00
3.821121628818e-03
3.821137057262e-03
3.821137294159e-03
3.821122339509e-03
3.821136906255e-03
3.821152312134e-03
3.821152549032e-03
3.821137616947e-03
3.821136992146e-03
3.821152398025e-03
3.821152634922e-03
3.821137702837e-03
3.821121886491e-03
3.821137314934e-03
3.821137551831e-03
3.821122597182e-03
0.000000000000e+00
0.000000000000e+00
0.000000000000e+00
0.000000000000e+00
0.000000000000e+00
0.000000000000e+00
0.000000000000e+00
0.000000000000e+00
0.000000000000e+00
0.000000000000e+00
0.000000000000e+00
0.000000000000e+00
0.000000000000e+00
0.000000000000e+00
0.000000000000e+00
0.000000000000e+00
0.000000000000e+00
0.000000000000e+00
0.000000000000e+00
0.000000000000e+00
0.000000000000e+00
0.000000000000e+00
0.000000000000e+00
0.000000000000e+00
0.000000000000e+00
0.000000000000e+00
0.000000000000e+00
0.000000000000e+00
0.000000000000e+00
0.000000000000e+00
0.000000000000e+00
0.000000000000e+00
0.000000000000e+00
0.000000000000e+00
0.000000000000e+00
0.000000000000e+00
0.000000000000e+00
0.000000000000e+00
0.000000000000e+00
0.000000000000e+00
0.000000000000e+00
0.000000000000e+00
0.000000000000e+00
0.000000000000e+00
0.000000000000e+00
0.000000000000e+00
0.000000000000e+00
0.000000000000e+00
SCALARS contact_pressure float 1
LOOKUP_TABLE default
0.000000000000e+00
0.000000000000e+00
0.000000000000e+00
0.000000000000e+00
0.000000000000e+00
0.000000000000e+00
0.000000000000e+00
0.000000000000e+00
0.000000000000e+00
0.000000000000e+00
0.000000000000e+00
0.000000000000e+00
0.000000000000e+00
0.000000000000e+00
0.000000000000e+00
0.000000000000e+00
0.000000000000e+00
0.000000000000e+00
0.000000000000e+00
0.000000000000e+00
0.000000000000e+00
0.000000000000e+00
0.000000000000e+00
0.000000000000e+00
0.000000000000e+00
0.000000000000e+00
0.000000000000e+00
0.000000000000e+00
0.000000000000e+00
0.000000000000e+00
0.000000000000e+00
0.000000000000e+00
0.000000000000e+00
0.000000000000e+00
0.000000000000e+00
0.000000000000e+00
0.000000000000e+00
0.000000000000e+00
0.000000000000e+00
0.000000000000e+00
0.000000000000e+00
0.000000000000e+00
0.000000000000e+00
0.000000000000e+00
0.000000000000e+00
0.000000000000e+00
0.000000000000e+00
0.000000000000e+00
0.000000000000e+00
0.000000000000e+00
0.000000000000e+00
0.000000000000e+00
0.000000000000e+00
0.000000000000e+00
0.000000000000e+00
0.000000000000e+00
0.000000000000e+00
0.000000000000e+00
0.000000000000e+00
0.000000000000e+00
0.000000000000e+00
0.000000000000e+00
0.000000000000e+00
0.000000000000e+00
0.000000000000e+00
0.000000000000e+00
0.000000000000e+00
0.000000000000e+00
0.000000000000e+00
0.000000000000e+00
0.000000000000e+00
0.000000000000e+00
0.000000000000e+00
0.000000000000e+00
0.000000000000e+00
0.000000000000e+00
0.000000000000e+00
0.000000000000e+00
0.000000000000e+00
0.000000000000e+00
0.000000000000e+00
0.000000000000e+00
0.000000000000e+00
0.000000000000e+00
0.000000000000e+00
0.000000000000e+00
0.000000000000e+00
0.000000000000e+00
0.000000000000e+00
0.000000000000e+00
0.000000000000e+00
0.000000000000e+00
0.000000000000e+00
0.000000000000e+00
0.000000000000e+00
0.000000000000e+00
0.000000000000e+00
0.000000000000e+00
0.000000000000e+00
0.000000000000e+00
0.000000000000e+00
0.000000000000e+00
0.000000000000e+00
0.000000000000e+00
0.000000000000e+00
0.000000000000e+00
0.000000000000e+00
0.000000000000e+00
0.000000000000e+00
0.000000000000e+00
0.000000000000e+00
0.000000000000e+00
0.000000000000e+00
0.000000000000e+00
0.000000000000e+00
0.000000000000e+00
0.000000000000e+00
0.000000000000e+00
0.000000000000e+00
0.000000000000e+00
0.000000000000e+00
0.000000000000e+00
0.000000000000e+00
0.000000000000e+00
0.000000000000e+00
0.000000000000e+00
0.000000000000e+00
0.000000000000e+00
SCALARS active_contact float 1
LOOKUP_TABLE default
0.000000000000e+00
0.000000000000e+00
0.000000000000e+00
0.000000000000e+00
0.000000000000e+00
0.000000000000e+00
0.000000000000e+00
0.000000000000e+00
0.000000000000e+00
0.000000000000e+00
0.000000000000e+00
0.000000000000e+00
0.000000000000e+00
0.000000000000e+00
0.000000000000e+00
0.000000000000e+00
0.000000000000e+00
0.000000000000e+00
0.000000000000e+00
0.000000000000e+00
0.000000000000e+00
0.000000000000e+00
0.000000000000e+00
0.000000000000e+00
0.000000000000e+00
0.000000000000e+00
0.000000000000e+00
0.000000000000e+00
0.000000000000e+00
0.000000000000e+00
0.000000000000e+00
0.000000000000e+00
0.000000000000e+00
0.000000000000e+00
0.000000000000e+00
0.000000000000e+00
0.000000000000e+00
0.000000000000e+00
0.000000000000e+00
0.000000000000e+00
0.000000000000e+00
0.000000000000e+00
0.000000000000e+00
0.000000000000e+00
0.000000000000e+00
0.000000000000e+00
0.000000000000e+00
0.000000000000e+00
0.000000000000e+00
0.000000000000e+00
0.000000000000e+00
0.000000000000e+00
0.000000000000e+00
0.000000000000e+00
0.000000000000e+00
0.000000000000e+00
0.000000000000e+00
0.000000000000e+00
0.000000000000e+00
0.000000000000e+00
0.000000000000e+00
0.000000000000e+00
0.000000000000e+00
0.000000000000e+00
0.000000000000e+00
0.000000000000e+00
0.000000000000e+00
0.000000000000e+00
0.000000000000e+00
0.000000000000e+00
0.000000000000e+00
0.000000000000e+00
0.000000000000e+00
0.000000000000e+00
0.000000000000e+00
0.000000000000e+00
0.000000000000e+00
0.000000000000e+00
0.000000000000e+00
0.000000000000e+00
0.000000000000e+00
0.000000000000e+00
0.000000000000e+00
0.000000000000e+00
0.000000000000e+00
0.000000000000e+00
0.000000000000e+00
0.000000000000e+00
0.000000000000e+00
0.000000000000e+00
0.000000000000e+00
0.000000000000e+00
0.000000000000e+00
0.000000000000e+00
0.000000000000e+00
0.000000000000e+00
0.000000000000e+00
0.000000000000e+00
0.000000000000e+00
0.000000000000e+00
0.000000000000e+00
0.000000000000e+00
0.000000000000e+00
0.000000000000e+00
0.000000000000e+00
0.000000000000e+00
0.000000000000e+00
0.000000000000e+00
0.000000000000e+00
0.000000000000e+00
0.000000000000e+00
0.000000000000e+00
0.000000000000e+00
0.000000000000e+00
0.000000000000e+00
0.000000000000e+00
0.000000000000e+00
0.000000000000e+00
0.000000000000e+00
0.000000000000e+00
0.000000000000e+00
0.000000000000e+00
0.000000000000e+00
0.000000000000e+00
0.000000000000e+00
0.000000000000e+00
0.000000000000e+00
0.000000000000e+00
