# vtk DataFile Version 3.0
SFC long-time C3D8 dynamic frame 47 t=9.400000000000e-01
ASCII
DATASET UNSTRUCTURED_GRID
POINTS 250 float
-2.500000000000e-01 -2.500000000000e-01 0.000000000000e+00
-1.250000000000e-01 -2.500000000000e-01 0.000000000000e+00
0.000000000000e+00 -2.500000000000e-01 0.000000000000e+00
1.250000000000e-01 -2.500000000000e-01 0.000000000000e+00
2.500000000000e-01 -2.500000000000e-01 0.000000000000e+00
-2.500000000000e-01 -1.250000000000e-01 0.000000000000e+00
-1.250000000000e-01 -1.250000000000e-01 0.000000000000e+00
0.000000000000e+00 -1.250000000000e-01 0.000000000000e+00
1.250000000000e-01 -1.250000000000e-01 0.000000000000e+00
2.500000000000e-01 -1.250000000000e-01 0.000000000000e+00
-2.500000000000e-01 0.000000000000e+00 0.000000000000e+00
-1.250000000000e-01 0.000000000000e+00 0.000000000000e+00
0.000000000000e+00 0.000000000000e+00 0.000000000000e+00
1.250000000000e-01 0.000000000000e+00 0.000000000000e+00
2.500000000000e-01 0.000000000000e+00 0.000000000000e+00
-2.500000000000e-01 1.250000000000e-01 0.000000000000e+00
-1.250000000000e-01 1.250000000000e-01 0.000000000000e+00
0.000000000000e+00 1.250000000000e-01 0.000000000000e+00
1.250000000000e-01 1.250000000000e-01 0.000000000000e+00
2.500000000000e-01 1.250000000000e-01 0.000000000000e+00
-2.500000000000e-01 2.500000000000e-01 0.000000000000e+00
-1.250000000000e-01 2.500000000000e-01 0.000000000000e+00
0.000000000000e+00 2.500000000000e-01 0.000000000000e+00
1.250000000000e-01 2.500000000000e-01 0.000000000000e+00
2.500000000000e-01 2.500000000000e-01 0.000000000000e+00
-2.500000000000e-01 -2.500000000000e-01 6.000000000000e-02
-1.250000000000e-01 -2.500000000000e-01 6.000000000000e-02
0.000000000000e+00 -2.500000000000e-01 6.000000000000e-02
1.250000000000e-01 -2.500000000000e-01 6.000000000000e-02
2.500000000000e-01 -2.500000000000e-01 6.000000000000e-02
-2.500000000000e-01 -1.250000000000e-01 6.000000000000e-02
-1.250000000000e-01 -1.250000000000e-01 6.000000000000e-02
0.000000000000e+00 -1.250000000000e-01 6.000000000000e-02
1.250000000000e-01 -1.250000000000e-01 6.000000000000e-02
2.500000000000e-01 -1.250000000000e-01 6.000000000000e-02
-2.500000000000e-01 0.000000000000e+00 6.000000000000e-02
-1.250000000000e-01 0.000000000000e+00 6.000000000000e-02
0.000000000000e+00 0.000000000000e+00 6.000000000000e-02
1.250000000000e-01 0.000000000000e+00 6.000000000000e-02
2.500000000000e-01 0.000000000000e+00 6.000000000000e-02
-2.500000000000e-01 1.250000000000e-01 6.000000000000e-02
-1.250000000000e-01 1.250000000000e-01 6.000000000000e-02
0.000000000000e+00 1.250000000000e-01 6.000000000000e-02
1.250000000000e-01 1.250000000000e-01 6.000000000000e-02
2.500000000000e-01 1.250000000000e-01 6.000000000000e-02
-2.500000000000e-01 2.500000000000e-01 6.000000000000e-02
-1.250000000000e-01 2.500000000000e-01 6.000000000000e-02
0.000000000000e+00 2.500000000000e-01 6.000000000000e-02
1.250000000000e-01 2.500000000000e-01 6.000000000000e-02
2.500000000000e-01 2.500000000000e-01 6.000000000000e-02
-2.500000000000e-01 -2.500000000000e-01 1.200000000000e-01
-1.250000000000e-01 -2.500000000000e-01 1.200000000000e-01
0.000000000000e+00 -2.500000000000e-01 1.200000000000e-01
1.250000000000e-01 -2.500000000000e-01 1.200000000000e-01
2.500000000000e-01 -2.500000000000e-01 1.200000000000e-01
-2.500000000000e-01 -1.250000000000e-01 1.200000000000e-01
-1.250000000000e-01 -1.250000000000e-01 1.200000000000e-01
0.000000000000e+00 -1.250000000000e-01 1.200000000000e-01
1.250000000000e-01 -1.250000000000e-01 1.200000000000e-01
2.500000000000e-01 -1.250000000000e-01 1.200000000000e-01
-2.500000000000e-01 0.000000000000e+00 1.200000000000e-01
-1.250000000000e-01 0.000000000000e+00 1.200000000000e-01
0.000000000000e+00 0.000000000000e+00 1.200000000000e-01
1.250000000000e-01 0.000000000000e+00 1.200000000000e-01
2.500000000000e-01 0.000000000000e+00 1.200000000000e-01
-2.500000000000e-01 1.250000000000e-01 1.200000000000e-01
-1.250000000000e-01 1.250000000000e-01 1.200000000000e-01
0.000000000000e+00 1.250000000000e-01 1.200000000000e-01
1.250000000000e-01 1.250000000000e-01 1.200000000000e-01
2.500000000000e-01 1.250000000000e-01 1.200000000000e-01
-2.500000000000e-01 2.500000000000e-01 1.200000000000e-01
-1.250000000000e-01 2.500000000000e-01 1.200000000000e-01
0.000000000000e+00 2.500000000000e-01 1.200000000000e-01
1.250000000000e-01 2.500000000000e-01 1.200000000000e-01
2.500000000000e-01 2.500000000000e-01 1.200000000000e-01
-2.500000000000e-01 -2.500000000000e-01 1.800000000000e-01
-1.250000000000e-01 -2.500000000000e-01 1.800000000000e-01
0.000000000000e+00 -2.500000000000e-01 1.800000000000e-01
1.250000000000e-01 -2.500000000000e-01 1.800000000000e-01
2.500000000000e-01 -2.500000000000e-01 1.800000000000e-01
-2.500000000000e-01 -1.250000000000e-01 1.800000000000e-01
-1.250000000000e-01 -1.250000000000e-01 1.800000000000e-01
0.000000000000e+00 -1.250000000000e-01 1.800000000000e-01
1.250000000000e-01 -1.250000000000e-01 1.800000000000e-01
2.500000000000e-01 -1.250000000000e-01 1.800000000000e-01
-2.500000000000e-01 0.000000000000e+00 1.800000000000e-01
-1.250000000000e-01 0.000000000000e+00 1.800000000000e-01
0.000000000000e+00 0.000000000000e+00 1.800000000000e-01
1.250000000000e-01 0.000000000000e+00 1.800000000000e-01
2.500000000000e-01 0.000000000000e+00 1.800000000000e-01
-2.500000000000e-01 1.250000000000e-01 1.800000000000e-01
-1.250000000000e-01 1.250000000000e-01 1.800000000000e-01
0.000000000000e+00 1.250000000000e-01 1.800000000000e-01
1.250000000000e-01 1.250000000000e-01 1.800000000000e-01
2.500000000000e-01 1.250000000000e-01 1.800000000000e-01
-2.500000000000e-01 2.500000000000e-01 1.800000000000e-01
-1.250000000000e-01 2.500000000000e-01 1.800000000000e-01
0.000000000000e+00 2.500000000000e-01 1.800000000000e-01
1.250000000000e-01 2.500000000000e-01 1.800000000000e-01
2.500000000000e-01 2.500000000000e-01 1.800000000000e-01
-2.500000000000e-01 -2.500000000000e-01 2.400000000000e-01
-1.250000000000e-01 -2.500000000000e-01 2.400000000000e-01
0.000000000000e+00 -2.500000000000e-01 2.400000000000e-01
1.250000000000e-01 -2.500000000000e-01 2.400000000000e-01
2.500000000000e-01 -2.500000000000e-01 2.400000000000e-01
-2.500000000000e-01 -1.250000000000e-01 2.400000000000e-01
-1.250000000000e-01 -1.250000000000e-01 2.400000000000e-01
0.000000000000e+00 -1.250000000000e-01 2.400000000000e-01
1.250000000000e-01 -1.250000000000e-01 2.400000000000e-01
2.500000000000e-01 -1.250000000000e-01 2.400000000000e-01
-2.500000000000e-01 0.000000000000e+00 2.400000000000e-01
-1.250000000000e-01 0.000000000000e+00 2.400000000000e-01
0.000000000000e+00 0.000000000000e+00 2.400000000000e-01
1.250000000000e-01 0.000000000000e+00 2.400000000000e-01
2.500000000000e-01 0.000000000000e+00 2.400000000000e-01
-2.500000000000e-01 1.250000000000e-01 2.400000000000e-01
-1.250000000000e-01 1.250000000000e-01 2.400000000000e-01
0.000000000000e+00 1.250000000000e-01 2.400000000000e-01
1.250000000000e-01 1.250000000000e-01 2.400000000000e-01
2.500000000000e-01 1.250000000000e-01 2.400000000000e-01
-2.500000000000e-01 2.500000000000e-01 2.400000000000e-01
-1.250000000000e-01 2.500000000000e-01 2.400000000000e-01
0.000000000000e+00 2.500000000000e-01 2.400000000000e-01
1.250000000000e-01 2.500000000000e-01 2.400000000000e-01
2.500000000000e-01 2.500000000000e-01 2.400000000000e-01
-2.500016574854e-01 -2.500016574854e-01 2.399537168002e-01
-1.250008715296e-01 -2.500016491392e-01 2.399531439384e-01
1.232250148406e-14 -2.500016304783e-01 2.399529256786e-01
1.250008715296e-01 -2.500016491392e-01 2.399531439384e-01
2.500016574854e-01 -2.500016574854e-01 2.399537168002e-01
-2.500016491392e-01 -1.250008715296e-01 2.399531439384e-01
-1.250008694281e-01 -1.250008694281e-01 2.399525814689e-01
1.173414797079e-14 -1.250008616196e-01 2.399523696054e-01
1.250008694281e-01 -1.250008694281e-01 2.399525814689e-01
2.500016491392e-01 -1.250008715296e-01 2.399531439384e-01
-2.500016304783e-01 -1.519976200612e-14 2.399529256786e-01
-1.250008616196e-01 -1.461523361377e-14 2.399523696054e-01
1.114586792882e-14 -1.403980896736e-14 2.399521586752e-01
1.250008616196e-01 -1.346336618463e-14 2.399523696054e-01
2.500016304783e-01 -1.288252665046e-14 2.399529256786e-01
-2.500016491392e-01 1.250008715296e-01 2.399531439384e-01
-1.250008694281e-01 1.250008694281e-01 2.399525814689e-01
1.054502363768e-14 1.250008616196e-01 2.399523696054e-01
1.250008694281e-01 1.250008694281e-01 2.399525814689e-01
2.500016491392e-01 1.250008715296e-01 2.399531439384e-01
-2.500016574854e-01 2.500016574854e-01 2.399537168002e-01
-1.250008715296e-01 2.500016491392e-01 2.399531439384e-01
9.954007859553e-15 2.500016304782e-01 2.399529256786e-01
1.250008715296e-01 2.500016491392e-01 2.399531439384e-01
2.500016574854e-01 2.500016574854e-01 2.399537168002e-01
-2.500012952154e-01 -2.500012952154e-01 3.049524639612e-01
-1.250006646471e-01 -2.500012936660e-01 3.049518650504e-01
1.222885517711e-14 -2.500012825362e-01 3.049516363630e-01
1.250006646471e-01 -2.500012936660e-01 3.049518650504e-01
2.500012952154e-01 -2.500012952154e-01 3.049524639612e-01
-2.500012936660e-01 -1.250006646471e-01 3.049518650504e-01
-1.250006642680e-01 -1.250006642680e-01 3.049512740727e-01
1.164621624214e-14 -1.250006587906e-01 3.049510509706e-01
1.250006642680e-01 -1.250006642680e-01 3.049512740727e-01
2.500012936660e-01 -1.250006646471e-01 3.049518650504e-01
-2.500012825362e-01 -1.519725040085e-14 3.049516363630e-01
-1.250006587905e-01 -1.461321656649e-14 3.049510509706e-01
1.106054314510e-14 -1.402793961183e-14 3.049508285189e-01
1.250006587906e-01 -1.345068303174e-14 3.049510509706e-01
2.500012825362e-01 -1.286415899484e-14 3.049516363630e-01
-2.500012936660e-01 1.250006646471e-01 3.049518650504e-01
-1.250006642680e-01 1.250006642680e-01 3.049512740727e-01
1.046830468529e-14 1.250006587905e-01 3.049510509706e-01
1.250006642680e-01 1.250006642680e-01 3.049512740727e-01
2.500012936660e-01 1.250006646471e-01 3.049518650504e-01
-2.500012952154e-01 2.500012952154e-01 3.049524639612e-01
-1.250006646471e-01 2.500012936660e-01 3.049518650504e-01
9.882245771759e-15 2.500012825362e-01 3.049516363630e-01
1.250006646471e-01 2.500012936660e-01 3.049518650504e-01
2.500012952154e-01 2.500012952154e-01 3.049524639612e-01
-2.500008808423e-01 -2.500008808423e-01 3.699515920417e-01
-1.250004614113e-01 -2.500008785267e-01 3.699509719665e-01
1.213970459612e-14 -2.500008711384e-01 3.699507359709e-01
1.250004614113e-01 -2.500008785267e-01 3.699509719665e-01
2.500008808423e-01 -2.500008808423e-01 3.699515920417e-01
-2.500008785267e-01 -1.250004614113e-01 3.699509719665e-01
-1.250004613345e-01 -1.250004613345e-01 3.699503575551e-01
1.155875415179e-14 -1.250004580211e-01 3.699501265734e-01
1.250004613345e-01 -1.250004613345e-01 3.699503575551e-01
2.500008785267e-01 -1.250004614113e-01 3.699509719665e-01
-2.500008711384e-01 -1.519649259605e-14 3.699507359709e-01
-1.250004580211e-01 -1.460875080657e-14 3.699501265734e-01
1.097451318316e-14 -1.402158029535e-14 3.699498960727e-01
1.250004580211e-01 -1.343782024553e-14 3.699501265734e-01
2.500008711384e-01 -1.285129390248e-14 3.699507359709e-01
-2.500008785267e-01 1.250004614113e-01 3.699509719665e-01
-1.250004613345e-01 1.250004613345e-01 3.699503575551e-01
1.038642953158e-14 1.250004580211e-01 3.699501265734e-01
1.250004613345e-01 1.250004613345e-01 3.699503575551e-01
2.500008785267e-01 1.250004614113e-01 3.699509719665e-01
-2.500008808423e-01 2.500008808423e-01 3.699515920417e-01
-1.250004614113e-01 2.500008785267e-01 3.699509719665e-01
9.799193966126e-15 2.500008711384e-01 3.699507359709e-01
1.250004614113e-01 2.500008785267e-01 3.699509719665e-01
2.500008808423e-01 2.500008808423e-01 3.699515920417e-01
-2.500004659645e-01 -2.500004659645e-01 4.349510720252e-01
-1.250002505233e-01 -2.500004630663e-01 4.349504413913e-01
1.204818314931e-14 -2.500004600387e-01 4.349501926925e-01
1.250002505233e-01 -2.500004630663e-01 4.349504413913e-01
2.500004659645e-01 -2.500004659645e-01 4.349510720252e-01
-2.500004630662e-01 -1.250002505234e-01 4.349504413913e-01
-1.250002504958e-01 -1.250002504958e-01 4.349498171569e-01
1.146853621662e-14 -1.250002491853e-01 4.349495729051e-01
1.250002504958e-01 -1.250002504958e-01 4.349498171569e-01
2.500004630663e-01 -1.250002505233e-01 4.349504413913e-01
-2.500004600387e-01 -1.519440235324e-14 4.349501926925e-01
-1.250002491853e-01 -1.460467986263e-14 4.349495729051e-01
1.088736738617e-14 -1.401544798545e-14 4.349493280024e-01
1.250002491853e-01 -1.342904476160e-14 4.349495729051e-01
2.500004600387e-01 -1.283814941104e-14 4.349501926925e-01
-2.500004630662e-01 1.250002505233e-01 4.349504413913e-01
-1.250002504958e-01 1.250002504958e-01 4.349498171569e-01
1.030174292835e-14 1.250002491853e-01 4.349495729051e-01
1.250002504958e-01 1.250002504958e-01 4.349498171569e-01
2.500004630663e-01 1.250002505233e-01 4.349504413913e-01
-2.500004659645e-01 2.500004659645e-01 4.349510720252e-01
-1.250002505233e-01 2.500004630662e-01 4.349504413913e-01
9.715312053386e-15 2.500004600386e-01 4.349501926925e-01
1.250002505233e-01 2.500004630662e-01 4.349504413913e-01
2.500004659645e-01 2.500004659645e-01 4.349510720252e-01
-2.500000869932e-01 -2.500000869933e-01 4.999508804703e-01
-1.250000224093e-01 -2.500000910882e-01 4.999502504847e-01
1.195052002116e-14 -2.500000964380e-01 4.999499974093e-01
1.250000224093e-01 -2.500000910882e-01 4.999502504847e-01
2.500000869933e-01 -2.500000869933e-01 4.999508804703e-01
-2.500000910882e-01 -1.250000224094e-01 4.999502504847e-01
-1.250000231915e-01 -1.250000231915e-01 4.999496284522e-01
1.137236040108e-14 -1.250000235173e-01 4.999493801424e-01
1.250000231915e-01 -1.250000231915e-01 4.999496284522e-01
2.500000910882e-01 -1.250000224093e-01 4.999502504847e-01
-2.500000964380e-01 -1.519131310943e-14 4.999499974093e-01
-1.250000235173e-01 -1.460345924662e-14 4.999493801424e-01
1.079802473518e-14 -1.400627325290e-14 4.999491311936e-01
1.250000235173e-01 -1.341484064499e-14 4.999493801424e-01
2.500000964380e-01 -1.283086060286e-14 4.999499974093e-01
-2.500000910882e-01 1.250000224093e-01 4.999502504847e-01
-1.250000231915e-01 1.250000231915e-01 4.999496284522e-01
1.021876087643e-14 1.250000235173e-01 4.999493801424e-01
1.250000231915e-01 1.250000231915e-01 4.999496284522e-01
2.500000910882e-01 1.250000224093e-01 4.999502504847e-01
-2.500000869932e-01 2.500000869932e-01 4.999508804703e-01
-1.250000224093e-01 2.500000910882e-01 4.999502504847e-01
9.629968433927e-15 2.500000964380e-01 4.999499974093e-01
1.250000224093e-01 2.500000910882e-01 4.999502504847e-01
2.500000869933e-01 2.500000869932e-01 4.999508804703e-01
CELLS 128 1152
8 0 1 6 5 25 26 31 30
8 1 2 7 6 26 27 32 31
8 2 3 8 7 27 28 33 32
8 3 4 9 8 28 29 34 33
8 5 6 11 10 30 31 36 35
8 6 7 12 11 31 32 37 36
8 7 8 13 12 32 33 38 37
8 8 9 14 13 33 34 39 38
8 10 11 16 15 35 36 41 40
8 11 12 17 16 36 37 42 41
8 12 13 18 17 37 38 43 42
8 13 14 19 18 38 39 44 43
8 15 16 21 20 40 41 46 45
8 16 17 22 21 41 42 47 46
8 17 18 23 22 42 43 48 47
8 18 19 24 23 43 44 49 48
8 25 26 31 30 50 51 56 55
8 26 27 32 31 51 52 57 56
8 27 28 33 32 52 53 58 57
8 28 29 34 33 53 54 59 58
8 30 31 36 35 55 56 61 60
8 31 32 37 36 56 57 62 61
8 32 33 38 37 57 58 63 62
8 33 34 39 38 58 59 64 63
8 35 36 41 40 60 61 66 65
8 36 37 42 41 61 62 67 66
8 37 38 43 42 62 63 68 67
8 38 39 44 43 63 64 69 68
8 40 41 46 45 65 66 71 70
8 41 42 47 46 66 67 72 71
8 42 43 48 47 67 68 73 72
8 43 44 49 48 68 69 74 73
8 50 51 56 55 75 76 81 80
8 51 52 57 56 76 77 82 81
8 52 53 58 57 77 78 83 82
8 53 54 59 58 78 79 84 83
8 55 56 61 60 80 81 86 85
8 56 57 62 61 81 82 87 86
8 57 58 63 62 82 83 88 87
8 58 59 64 63 83 84 89 88
8 60 61 66 65 85 86 91 90
8 61 62 67 66 86 87 92 91
8 62 63 68 67 87 88 93 92
8 63 64 69 68 88 89 94 93
8 65 66 71 70 90 91 96 95
8 66 67 72 71 91 92 97 96
8 67 68 73 72 92 93 98 97
8 68 69 74 73 93 94 99 98
8 75 76 81 80 100 101 106 105
8 76 77 82 81 101 102 107 106
8 77 78 83 82 102 103 108 107
8 78 79 84 83 103 104 109 108
8 80 81 86 85 105 106 111 110
8 81 82 87 86 106 107 112 111
8 82 83 88 87 107 108 113 112
8 83 84 89 88 108 109 114 113
8 85 86 91 90 110 111 116 115
8 86 87 92 91 111 112 117 116
8 87 88 93 92 112 113 118 117
8 88 89 94 93 113 114 119 118
8 90 91 96 95 115 116 121 120
8 91 92 97 96 116 117 122 121
8 92 93 98 97 117 118 123 122
8 93 94 99 98 118 119 124 123
8 125 126 131 130 150 151 156 155
8 126 127 132 131 151 152 157 156
8 127 128 133 132 152 153 158 157
8 128 129 134 133 153 154 159 158
8 130 131 136 135 155 156 161 160
8 131 132 137 136 156 157 162 161
8 132 133 138 137 157 158 163 162
8 133 134 139 138 158 159 164 163
8 135 136 141 140 160 161 166 165
8 136 137 142 141 161 162 167 166
8 137 138 143 142 162 163 168 167
8 138 139 144 143 163 164 169 168
8 140 141 146 145 165 166 171 170
8 141 142 147 146 166 167 172 171
8 142 143 148 147 167 168 173 172
8 143 144 149 148 168 169 174 173
8 150 151 156 155 175 176 181 180
8 151 152 157 156 176 177 182 181
8 152 153 158 157 177 178 183 182
8 153 154 159 158 178 179 184 183
8 155 156 161 160 180 181 186 185
8 156 157 162 161 181 182 187 186
8 157 158 163 162 182 183 188 187
8 158 159 164 163 183 184 189 188
8 160 161 166 165 185 186 191 190
8 161 162 167 166 186 187 192 191
8 162 163 168 167 187 188 193 192
8 163 164 169 168 188 189 194 193
8 165 166 171 170 190 191 196 195
8 166 167 172 171 191 192 197 196
8 167 168 173 172 192 193 198 197
8 168 169 174 173 193 194 199 198
8 175 176 181 180 200 201 206 205
8 176 177 182 181 201 202 207 206
8 177 178 183 182 202 203 208 207
8 178 179 184 183 203 204 209 208
8 180 181 186 185 205 206 211 210
8 181 182 187 186 206 207 212 211
8 182 183 188 187 207 208 213 212
8 183 184 189 188 208 209 214 213
8 185 186 191 190 210 211 216 215
8 186 187 192 191 211 212 217 216
8 187 188 193 192 212 213 218 217
8 188 189 194 193 213 214 219 218
8 190 191 196 195 215 216 221 220
8 191 192 197 196 216 217 222 221
8 192 193 198 197 217 218 223 222
8 193 194 199 198 218 219 224 223
8 200 201 206 205 225 226 231 230
8 201 202 207 206 226 227 232 231
8 202 203 208 207 227 228 233 232
8 203 204 209 208 228 229 234 233
8 205 206 211 210 230 231 236 235
8 206 207 212 211 231 232 237 236
8 207 208 213 212 232 233 238 237
8 208 209 214 213 233 234 239 238
8 210 211 216 215 235 236 241 240
8 211 212 217 216 236 237 242 241
8 212 213 218 217 237 238 243 242
8 213 214 219 218 238 239 244 243
8 215 216 221 220 240 241 246 245
8 216 217 222 221 241 242 247 246
8 217 218 223 222 242 243 248 247
8 218 219 224 223 243 244 249 248
CELL_TYPES 128
12
12
12
12
12
12
12
12
12
12
12
12
12
12
12
12
12
12
12
12
12
12
12
12
12
12
12
12
12
12
12
12
12
12
12
12
12
12
12
12
12
12
12
12
12
12
12
12
12
12
12
12
12
12
12
12
12
12
12
12
12
12
12
12
12
12
12
12
12
12
12
12
12
12
12
12
12
12
12
12
12
12
12
12
12
12
12
12
12
12
12
12
12
12
12
12
12
12
12
12
12
12
12
12
12
12
12
12
12
12
12
12
12
12
12
12
12
12
12
12
12
12
12
12
12
12
12
12
POINT_DATA 250
VECTORS displacement float
0.000000000000e+00 0.000000000000e+00 0.000000000000e+00
0.000000000000e+00 0.000000000000e+00 0.000000000000e+00
0.000000000000e+00 0.000000000000e+00 0.000000000000e+00
0.000000000000e+00 0.000000000000e+00 0.000000000000e+00
0.000000000000e+00 0.000000000000e+00 0.000000000000e+00
0.000000000000e+00 0.000000000000e+00 0.000000000000e+00
0.000000000000e+00 0.000000000000e+00 0.000000000000e+00
0.000000000000e+00 0.000000000000e+00 0.000000000000e+00
0.000000000000e+00 0.000000000000e+00 0.000000000000e+00
0.000000000000e+00 0.000000000000e+00 0.000000000000e+00
0.000000000000e+00 0.000000000000e+00 0.000000000000e+00
0.000000000000e+00 0.000000000000e+00 0.000000000000e+00
0.000000000000e+00 0.000000000000e+00 0.000000000000e+00
0.000000000000e+00 0.000000000000e+00 0.000000000000e+00
0.000000000000e+00 0.000000000000e+00 0.000000000000e+00
0.000000000000e+00 0.000000000000e+00 0.000000000000e+00
0.000000000000e+00 0.000000000000e+00 0.000000000000e+00
0.000000000000e+00 0.000000000000e+00 0.000000000000e+00
0.000000000000e+00 0.000000000000e+00 0.000000000000e+00
0.000000000000e+00 0.000000000000e+00 0.000000000000e+00
0.000000000000e+00 0.000000000000e+00 0.000000000000e+00
0.000000000000e+00 0.000000000000e+00 0.000000000000e+00
0.000000000000e+00 0.000000000000e+00 0.000000000000e+00
0.000000000000e+00 0.000000000000e+00 0.000000000000e+00
0.000000000000e+00 0.000000000000e+00 0.000000000000e+00
0.000000000000e+00 0.000000000000e+00 0.000000000000e+00
0.000000000000e+00 0.000000000000e+00 0.000000000000e+00
0.000000000000e+00 0.000000000000e+00 0.000000000000e+00
0.000000000000e+00 0.000000000000e+00 0.000000000000e+00
0.000000000000e+00 0.000000000000e+00 0.000000000000e+00
0.000000000000e+00 0.000000000000e+00 0.000000000000e+00
0.000000000000e+00 0.000000000000e+00 0.000000000000e+00
0.000000000000e+00 0.000000000000e+00 0.000000000000e+00
0.000000000000e+00 0.000000000000e+00 0.000000000000e+00
0.000000000000e+00 0.000000000000e+00 0.000000000000e+00
0.000000000000e+00 0.000000000000e+00 0.000000000000e+00
0.000000000000e+00 0.000000000000e+00 0.000000000000e+00
0.000000000000e+00 0.000000000000e+00 0.000000000000e+00
0.000000000000e+00 0.000000000000e+00 0.000000000000e+00
0.000000000000e+00 0.000000000000e+00 0.000000000000e+00
0.000000000000e+00 0.000000000000e+00 0.000000000000e+00
0.000000000000e+00 0.000000000000e+00 0.000000000000e+00
0.000000000000e+00 0.000000000000e+00 0.000000000000e+00
0.000000000000e+00 0.000000000000e+00 0.000000000000e+00
0.000000000000e+00 0.000000000000e+00 0.000000000000e+00
0.000000000000e+00 0.000000000000e+00 0.000000000000e+00
0.000000000000e+00 0.000000000000e+00 0.000000000000e+00
0.000000000000e+00 0.000000000000e+00 0.000000000000e+00
0.000000000000e+00 0.000000000000e+00 0.000000000000e+00
0.000000000000e+00 0.000000000000e+00 0.000000000000e+00
0.000000000000e+00 0.000000000000e+00 0.000000000000e+00
0.000000000000e+00 0.000000000000e+00 0.000000000000e+00
0.000000000000e+00 0.000000000000e+00 0.000000000000e+00
0.000000000000e+00 0.000000000000e+00 0.000000000000e+00
0.000000000000e+00 0.000000000000e+00 0.000000000000e+00
0.000000000000e+00 0.000000000000e+00 0.000000000000e+00
0.000000000000e+00 0.000000000000e+00 0.000000000000e+00
0.000000000000e+00 0.000000000000e+00 0.000000000000e+00
0.000000000000e+00 0.000000000000e+00 0.000000000000e+00
0.000000000000e+00 0.000000000000e+00 0.000000000000e+00
0.000000000000e+00 0.000000000000e+00 0.000000000000e+00
0.000000000000e+00 0.000000000000e+00 0.000000000000e+00
0.000000000000e+00 0.000000000000e+00 0.000000000000e+00
0.000000000000e+00 0.000000000000e+00 0.000000000000e+00
0.000000000000e+00 0.000000000000e+00 0.000000000000e+00
0.000000000000e+00 0.000000000000e+00 0.000000000000e+00
0.000000000000e+00 0.000000000000e+00 0.000000000000e+00
0.000000000000e+00 0.000000000000e+00 0.000000000000e+00
0.000000000000e+00 0.000000000000e+00 0.000000000000e+00
0.000000000000e+00 0.000000000000e+00 0.000000000000e+00
0.000000000000e+00 0.000000000000e+00 0.000000000000e+00
0.000000000000e+00 0.000000000000e+00 0.000000000000e+00
0.000000000000e+00 0.000000000000e+00 0.000000000000e+00
0.000000000000e+00 0.000000000000e+00 0.000000000000e+00
0.000000000000e+00 0.000000000000e+00 0.000000000000e+00
0.000000000000e+00 0.000000000000e+00 0.000000000000e+00
0.000000000000e+00 0.000000000000e+00 0.000000000000e+00
0.000000000000e+00 0.000000000000e+00 0.000000000000e+00
0.000000000000e+00 0.000000000000e+00 0.000000000000e+00
0.000000000000e+00 0.000000000000e+00 0.000000000000e+00
0.000000000000e+00 0.000000000000e+00 0.000000000000e+00
0.000000000000e+00 0.000000000000e+00 0.000000000000e+00
0.000000000000e+00 0.000000000000e+00 0.000000000000e+00
0.000000000000e+00 0.000000000000e+00 0.000000000000e+00
0.000000000000e+00 0.000000000000e+00 0.000000000000e+00
0.000000000000e+00 0.000000000000e+00 0.000000000000e+00
0.000000000000e+00 0.000000000000e+00 0.000000000000e+00
0.000000000000e+00 0.000000000000e+00 0.000000000000e+00
0.000000000000e+00 0.000000000000e+00 0.000000000000e+00
0.000000000000e+00 0.000000000000e+00 0.000000000000e+00
0.000000000000e+00 0.000000000000e+00 0.000000000000e+00
0.000000000000e+00 0.000000000000e+00 0.000000000000e+00
0.000000000000e+00 0.000000000000e+00 0.000000000000e+00
0.000000000000e+00 0.000000000000e+00 0.000000000000e+00
0.000000000000e+00 0.000000000000e+00 0.000000000000e+00
0.000000000000e+00 0.000000000000e+00 0.000000000000e+00
0.000000000000e+00 0.000000000000e+00 0.000000000000e+00
0.000000000000e+00 0.000000000000e+00 0.000000000000e+00
0.000000000000e+00 0.000000000000e+00 0.000000000000e+00
0.000000000000e+00 0.000000000000e+00 0.000000000000e+00
0.000000000000e+00 0.000000000000e+00 0.000000000000e+00
0.000000000000e+00 0.000000000000e+00 0.000000000000e+00
0.000000000000e+00 0.000000000000e+00 0.000000000000e+00
0.000000000000e+00 0.000000000000e+00 0.000000000000e+00
0.000000000000e+00 0.000000000000e+00 0.000000000000e+00
0.000000000000e+00 0.000000000000e+00 0.000000000000e+00
0.000000000000e+00 0.000000000000e+00 0.000000000000e+00
0.000000000000e+00 0.000000000000e+00 0.000000000000e+00
0.000000000000e+00 0.000000000000e+00 0.000000000000e+00
0.000000000000e+00 0.000000000000e+00 0.000000000000e+00
0.000000000000e+00 0.000000000000e+00 0.000000000000e+00
0.000000000000e+00 0.000000000000e+00 0.000000000000e+00
0.000000000000e+00 0.000000000000e+00 0.000000000000e+00
0.000000000000e+00 0.000000000000e+00 0.000000000000e+00
0.000000000000e+00 0.000000000000e+00 0.000000000000e+00
0.000000000000e+00 0.000000000000e+00 0.000000000000e+00
0.000000000000e+00 0.000000000000e+00 0.000000000000e+00
0.000000000000e+00 0.000000000000e+00 0.000000000000e+00
0.000000000000e+00 0.000000000000e+00 0.000000000000e+00
0.000000000000e+00 0.000000000000e+00 0.000000000000e+00
0.000000000000e+00 0.000000000000e+00 0.000000000000e+00
0.000000000000e+00 0.000000000000e+00 0.000000000000e+00
0.000000000000e+00 0.000000000000e+00 0.000000000000e+00
0.000000000000e+00 0.000000000000e+00 0.000000000000e+00
0.000000000000e+00 0.000000000000e+00 0.000000000000e+00
-1.657485393232e-06 -1.657485420729e-06 -1.504628319979e-02
-8.715296136407e-07 -1.649139184443e-06 -1.504685606162e-02
1.232250148406e-14 -1.630478275891e-06 -1.504707432136e-02
8.715296382656e-07 -1.649139183287e-06 -1.504685606162e-02
1.657485417832e-06 -1.657485418414e-06 -1.504628319979e-02
-1.649139158112e-06 -8.715296411501e-07 -1.504685606162e-02
-8.694281211488e-07 -8.694281474948e-07 -1.504741853106e-02
1.173414797079e-14 -8.616196380673e-07 -1.504763039460e-02
8.694281446047e-07 -8.694281463415e-07 -1.504741853106e-02
1.649139181544e-06 -8.715296388382e-07 -1.504685606162e-02
-1.630478250724e-06 -1.519976200612e-14 -1.504707432136e-02
-8.616196128904e-07 -1.461523361377e-14 -1.504763039460e-02
1.114586792882e-14 -1.403980896736e-14 -1.504784132484e-02
8.616196351648e-07 -1.346336618463e-14 -1.504763039460e-02
1.630478272972e-06 -1.288252665046e-14 -1.504707432136e-02
-1.649139159298e-06 8.715296107495e-07 -1.504685606162e-02
-8.694281223399e-07 8.694281182651e-07 -1.504741853106e-02
1.054502363768e-14 8.616196099866e-07 -1.504763039460e-02
8.694281434210e-07 8.694281194133e-07 -1.504741853106e-02
1.649139180361e-06 8.715296130703e-07 -1.504685606162e-02
-1.657485395588e-06 1.657485390323e-06 -1.504628319979e-02
-8.715296160050e-07 1.649139155215e-06 -1.504685606162e-02
9.954007859553e-15 1.630478247805e-06 -1.504707432136e-02
8.715296359112e-07 1.649139156364e-06 -1.504685606162e-02
1.657485415480e-06 1.657485392635e-06 -1.504628319979e-02
-1.295215369554e-06 -1.295215396975e-06 -1.504753603884e-02
-6.646470999907e-07 -1.293665984459e-06 -1.504813494959e-02
1.222885517711e-14 -1.282536237718e-06 -1.504836363696e-02
6.646471244447e-07 -1.293665983296e-06 -1.504813494959e-02
1.295215393992e-06 -1.295215394645e-06 -1.504753603884e-02
-1.293665958209e-06 -6.646471274113e-07 -1.504813494959e-02
-6.642679541461e-07 -6.642679804043e-07 -1.504872592727e-02
1.164621624214e-14 -6.587905684092e-07 -1.504894902938e-02
6.642679774361e-07 -6.642679792434e-07 -1.504872592727e-02
1.293665981486e-06 -6.646471250849e-07 -1.504813494959e-02
-1.282536212634e-06 -1.519725040085e-14 -1.504836363696e-02
-6.587905433212e-07 -1.461321656649e-14 -1.504894902938e-02
1.106054314510e-14 -1.402793961183e-14 -1.504917148114e-02
6.587905654365e-07 -1.345068303174e-14 -1.504894902938e-02
1.282536234735e-06 -1.286415899484e-14 -1.504836363696e-02
-1.293665959395e-06 6.646470970157e-07 -1.504813494959e-02
-6.642679553276e-07 6.642679511803e-07 -1.504872592727e-02
1.046830468529e-14 6.587905403480e-07 -1.504894902938e-02
6.642679762592e-07 6.642679523412e-07 -1.504872592727e-02
1.293665980309e-06 6.646470993500e-07 -1.504813494959e-02
-1.295215371909e-06 1.295215366575e-06 -1.504753603884e-02
-6.646471023445e-07 1.293665955235e-06 -1.504813494959e-02
9.882245771759e-15 1.282536209650e-06 -1.504836363696e-02
6.646471220983e-07 1.293665956396e-06 -1.504813494959e-02
1.295215391649e-06 1.295215368898e-06 -1.504753603884e-02
-8.808423073480e-07 -8.808423346807e-07 -1.504840795828e-02
-4.614112829618e-07 -8.785267063251e-07 -1.504902803351e-02
1.213970459612e-14 -8.711384067061e-07 -1.504926402912e-02
4.614113072409e-07 -8.785267051531e-07 -1.504902803351e-02
8.808423316206e-07 -8.808423323411e-07 -1.504840795828e-02
-8.785266801604e-07 -4.614113102952e-07 -1.504902803351e-02
-4.613345101393e-07 -4.613345363029e-07 -1.504964244488e-02
1.155875415179e-14 -4.580211230674e-07 -1.504987342659e-02
4.613345332535e-07 -4.613345351362e-07 -1.504964244488e-02
8.785267032655e-07 -4.614113079573e-07 -1.504902803351e-02
-8.711383817142e-07 -1.519649259605e-14 -1.504926402912e-02
-4.580210980724e-07 -1.460875080657e-14 -1.504987342659e-02
1.097451318316e-14 -1.402158029535e-14 -1.505010392733e-02
4.580211200201e-07 -1.343782024553e-14 -1.504987342659e-02
8.711384036471e-07 -1.285129390248e-14 -1.504926402912e-02
-8.785266813361e-07 4.614112799038e-07 -1.504902803351e-02
-4.613345113127e-07 4.613345070874e-07 -1.504964244488e-02
1.038642953158e-14 4.580210950254e-07 -1.504987342659e-02
4.613345320837e-07 4.613345082603e-07 -1.504964244488e-02
8.785267020947e-07 4.614112822487e-07 -1.504902803351e-02
-8.808423097008e-07 8.808423042867e-07 -1.504840795828e-02
-4.614112853105e-07 8.785266771019e-07 -1.504902803351e-02
9.799193966126e-15 8.711383786573e-07 -1.504926402912e-02
4.614113049018e-07 8.785266782705e-07 -1.504902803351e-02
8.808423292737e-07 8.808423066273e-07 -1.504840795828e-02
-4.659645086075e-07 -4.659645358492e-07 -1.504892797481e-02
-2.505233239128e-07 -4.630662746803e-07 -1.504955860875e-02
1.204818314931e-14 -4.600386768055e-07 -1.504980730748e-02
2.505233480113e-07 -4.630662735067e-07 -1.504955860875e-02
4.659645327059e-07 -4.659645335017e-07 -1.504892797481e-02
-4.630662486130e-07 -2.505233511494e-07 -1.504955860875e-02
-2.504957751242e-07 -2.504958011948e-07 -1.505018284314e-02
1.146853621662e-14 -2.491853208539e-07 -1.505042709488e-02
2.504957980581e-07 -2.504958000189e-07 -1.505018284314e-02
4.630662715424e-07 -2.505233488047e-07 -1.504955860875e-02
-4.600386519059e-07 -1.519440235324e-14 -1.504980730748e-02
-2.491852959521e-07 -1.460467986263e-14 -1.505042709488e-02
1.088736738617e-14 -1.401544798545e-14 -1.505067199762e-02
2.491853177259e-07 -1.342904476160e-14 -1.505042709488e-02
4.600386736762e-07 -1.283814941104e-14 -1.504980730748e-02
-4.630662497798e-07 2.505233207628e-07 -1.504955860875e-02
-2.504957762894e-07 2.504957719837e-07 -1.505018284314e-02
1.030174292835e-14 2.491852928264e-07 -1.505042709488e-02
2.504957968940e-07 2.504957731645e-07 -1.505018284314e-02
4.630662703762e-07 2.505233231209e-07 -1.504955860875e-02
-4.659645109531e-07 4.659645054580e-07 -1.504892797481e-02
-2.505233262526e-07 4.630662454680e-07 -1.504955860875e-02
9.715312053386e-15 4.600386487801e-07 -1.504980730748e-02
2.505233456747e-07 4.630662466482e-07 -1.504955860875e-02
4.659645303704e-07 4.659645078128e-07 -1.504892797481e-02
-8.699324423904e-08 -8.699327138834e-08 -1.504911952968e-02
-2.240932299003e-08 -9.108821308673e-08 -1.504974951531e-02
1.195052002116e-14 -9.643800665976e-08 -1.505000259073e-02
2.240934689904e-08 -9.108821190373e-08 -1.504974951531e-02
8.699326815893e-08 -8.699326902252e-08 -1.504911952968e-02
-9.108818711289e-08 -2.240935013457e-08 -1.504974951531e-02
-2.319148755097e-08 -2.319151352423e-08 -1.505037154780e-02
1.137236040108e-14 -2.351728884370e-08 -1.505061985757e-02
2.319151030535e-08 -2.319151234347e-08 -1.505037154780e-02
9.108820987753e-08 -2.240934777436e-08 -1.504974951531e-02
-9.643798183936e-08 -1.519131310943e-14 -1.505000259073e-02
-2.351726403580e-08 -1.460345924662e-14 -1.505061985757e-02
1.079802473518e-14 -1.400627325290e-14 -1.505086880636e-02
2.351728563463e-08 -1.341484064499e-14 -1.505061985757e-02
9.643800344445e-08 -1.283086060286e-14 -1.505000259073e-02
-9.108818827375e-08 2.240931974404e-08 -1.504974951531e-02
-2.319148870877e-08 2.319148432117e-08 -1.505037154780e-02
1.021876087643e-14 2.351726082888e-08 -1.505061985757e-02
2.319150914017e-08 2.319148551107e-08 -1.505037154780e-02
9.108820869355e-08 2.240932211499e-08 -1.504974951531e-02
-8.699324656540e-08 8.699324098644e-08 -1.504911952968e-02
-2.240932531490e-08 9.108818388625e-08 -1.504974951531e-02
9.629968433927e-15 9.643797864155e-08 -1.505000259073e-02
2.240934457501e-08 9.108818506529e-08 -1.504974951531e-02
8.699326583221e-08 8.699324336981e-08 -1.504911952968e-02
SCALARS displacement_magnitude float 1
LOOKUP_TABLE default
0.000000000000e+00
0.000000000000e+00
0.000000000000e+00
0.000000000000e+00
0.000000000000e+00
0.000000000000e+00
0.000000000000e+00
0.000000000000e+00
0.000000000000e+00
0.000000000000e+00
0.000000000000e+00
0.000000000000e+00
0.000000000000e+00
0.000000000000e+00
0.000000000000e+00
0.000000000000e+00
0.000000000000e+00
0.000000000000e+00
0.000000000000e+00
0.000000000000e+00
0.000000000000e+00
0.000000000000e+00
0.000000000000e+00
0.000000000000e+00
0.000000000000e+00
0.000000000000e+00
0.000000000000e+00
0.000000000000e+00
0.000000000000e+00
0.000000000000e+00
0.000000000000e+00
0.000000000000e+00
0.000000000000e+00
0.000000000000e+00
0.000000000000e+00
0.000000000000e+00
0.000000000000e+00
0.000000000000e+00
0.000000000000e+00
0.000000000000e+00
0.000000000000e+00
0.000000000000e+00
0.000000000000e+00
0.000000000000e+00
0.000000000000e+00
0.000000000000e+00
0.000000000000e+00
0.000000000000e+00
0.000000000000e+00
0.000000000000e+00
0.000000000000e+00
0.000000000000e+00
0.000000000000e+00
0.000000000000e+00
0.000000000000e+00
0.000000000000e+00
0.000000000000e+00
0.000000000000e+00
0.000000000000e+00
0.000000000000e+00
0.000000000000e+00
0.000000000000e+00
0.000000000000e+00
0.000000000000e+00
0.000000000000e+00
0.000000000000e+00
0.000000000000e+00
0.000000000000e+00
0.000000000000e+00
0.000000000000e+00
0.000000000000e+00
0.000000000000e+00
0.000000000000e+00
0.000000000000e+00
0.000000000000e+00
0.000000000000e+00
0.000000000000e+00
0.000000000000e+00
0.000000000000e+00
0.000000000000e+00
0.000000000000e+00
0.000000000000e+00
0.000000000000e+00
0.000000000000e+00
0.000000000000e+00
0.000000000000e+00
0.000000000000e+00
0.000000000000e+00
0.000000000000e+00
0.000000000000e+00
0.000000000000e+00
0.000000000000e+00
0.000000000000e+00
0.000000000000e+00
0.000000000000e+00
0.000000000000e+00
0.000000000000e+00
0.000000000000e+00
0.000000000000e+00
0.000000000000e+00
0.000000000000e+00
0.000000000000e+00
0.000000000000e+00
0.000000000000e+00
0.000000000000e+00
0.000000000000e+00
0.000000000000e+00
0.000000000000e+00
0.000000000000e+00
0.000000000000e+00
0.000000000000e+00
0.000000000000e+00
0.000000000000e+00
0.000000000000e+00
0.000000000000e+00
0.000000000000e+00
0.000000000000e+00
0.000000000000e+00
0.000000000000e+00
0.000000000000e+00
0.000000000000e+00
0.000000000000e+00
0.000000000000e+00
0.000000000000e+00
0.000000000000e+00
1.504628338237e-02
1.504685617724e-02
1.504707440970e-02
1.504685617724e-02
1.504628338237e-02
1.504685617724e-02
1.504741858129e-02
1.504763041926e-02
1.504741858129e-02
1.504685617724e-02
1.504707440970e-02
1.504763041926e-02
1.504784132484e-02
1.504763041926e-02
1.504707440970e-02
1.504685617724e-02
1.504741858129e-02
1.504763041926e-02
1.504741858129e-02
1.504685617724e-02
1.504628338237e-02
1.504685617724e-02
1.504707440970e-02
1.504685617724e-02
1.504628338237e-02
1.504753615033e-02
1.504813501987e-02
1.504836369161e-02
1.504813501987e-02
1.504753615033e-02
1.504813501987e-02
1.504872595659e-02
1.504894904380e-02
1.504872595659e-02
1.504813501987e-02
1.504836369161e-02
1.504894904380e-02
1.504917148114e-02
1.504894904380e-02
1.504836369161e-02
1.504813501987e-02
1.504872595659e-02
1.504894904380e-02
1.504872595659e-02
1.504813501987e-02
1.504753615033e-02
1.504813501987e-02
1.504836369161e-02
1.504813501987e-02
1.504753615033e-02
1.504840800984e-02
1.504902806623e-02
1.504926405434e-02
1.504902806623e-02
1.504840800984e-02
1.504902806623e-02
1.504964245903e-02
1.504987343356e-02
1.504964245903e-02
1.504902806623e-02
1.504926405434e-02
1.504987343356e-02
1.505010392733e-02
1.504987343356e-02
1.504926405434e-02
1.504902806623e-02
1.504964245903e-02
1.504987343356e-02
1.504964245903e-02
1.504902806623e-02
1.504840800984e-02
1.504902806623e-02
1.504926405434e-02
1.504902806623e-02
1.504840800984e-02
1.504892798924e-02
1.504955861796e-02
1.504980731452e-02
1.504955861796e-02
1.504892798924e-02
1.504955861796e-02
1.505018284731e-02
1.505042709695e-02
1.505018284731e-02
1.504955861796e-02
1.504980731452e-02
1.505042709695e-02
1.505067199762e-02
1.505042709694e-02
1.504980731452e-02
1.504955861796e-02
1.505018284731e-02
1.505042709695e-02
1.505018284731e-02
1.504955861796e-02
1.504892798924e-02
1.504955861796e-02
1.504980731452e-02
1.504955861796e-02
1.504892798924e-02
1.504911953018e-02
1.504974951561e-02
1.505000259104e-02
1.504974951561e-02
1.504911953018e-02
1.504974951561e-02
1.505037154784e-02
1.505061985759e-02
1.505037154784e-02
1.504974951560e-02
1.505000259104e-02
1.505061985759e-02
1.505086880636e-02
1.505061985759e-02
1.505000259104e-02
1.504974951561e-02
1.505037154784e-02
1.505061985759e-02
1.505037154784e-02
1.504974951560e-02
1.504911953018e-02
1.504974951561e-02
1.505000259104e-02
1.504974951561e-02
1.504911953018e-02
CELL_DATA 128
SCALARS displacement_magnitude float 1
LOOKUP_TABLE default
0.000000000000e+00
0.000000000000e+00
0.000000000000e+00
0.000000000000e+00
0.000000000000e+00
0.000000000000e+00
0.000000000000e+00
0.000000000000e+00
0.000000000000e+00
0.000000000000e+00
0.000000000000e+00
0.000000000000e+00
0.000000000000e+00
0.000000000000e+00
0.000000000000e+00
0.000000000000e+00
0.000000000000e+00
0.000000000000e+00
0.000000000000e+00
0.000000000000e+00
0.000000000000e+00
0.000000000000e+00
0.000000000000e+00
0.000000000000e+00
0.000000000000e+00
0.000000000000e+00
0.000000000000e+00
0.000000000000e+00
0.000000000000e+00
0.000000000000e+00
0.000000000000e+00
0.000000000000e+00
0.000000000000e+00
0.000000000000e+00
0.000000000000e+00
0.000000000000e+00
0.000000000000e+00
0.000000000000e+00
0.000000000000e+00
0.000000000000e+00
0.000000000000e+00
0.000000000000e+00
0.000000000000e+00
0.000000000000e+00
0.000000000000e+00
0.000000000000e+00
0.000000000000e+00
0.000000000000e+00
0.000000000000e+00
0.000000000000e+00
0.000000000000e+00
0.000000000000e+00
0.000000000000e+00
0.000000000000e+00
0.000000000000e+00
0.000000000000e+00
0.000000000000e+00
0.000000000000e+00
0.000000000000e+00
0.000000000000e+00
0.000000000000e+00
0.000000000000e+00
0.000000000000e+00
0.000000000000e+00
1.504749330810e-02
1.504789416242e-02
1.504789416242e-02
1.504749330810e-02
1.504789416242e-02
1.504828953375e-02
1.504828953375e-02
1.504789416242e-02
1.504789416242e-02
1.504828953375e-02
1.504828953375e-02
1.504789416242e-02
1.504749330810e-02
1.504789416242e-02
1.504789416242e-02
1.504749330810e-02
1.504857984350e-02
1.504899771563e-02
1.504899771563e-02
1.504857984350e-02
1.504899771563e-02
1.504941109735e-02
1.504941109735e-02
1.504899771563e-02
1.504899771563e-02
1.504941109735e-02
1.504941109735e-02
1.504899771563e-02
1.504857984350e-02
1.504899771563e-02
1.504899771563e-02
1.504857984350e-02
1.504929183422e-02
1.504972298624e-02
1.504972298624e-02
1.504929183422e-02
1.504972298624e-02
1.505015028654e-02
1.505015028654e-02
1.504972298623e-02
1.504972298624e-02
1.505015028654e-02
1.505015028654e-02
1.504972298623e-02
1.504929183422e-02
1.504972298624e-02
1.504972298624e-02
1.504929183422e-02
1.504965227271e-02
1.505008992360e-02
1.505008992360e-02
1.504965227271e-02
1.505008992360e-02
1.505052363853e-02
1.505052363853e-02
1.505008992360e-02
1.505008992360e-02
1.505052363853e-02
1.505052363853e-02
1.505008992360e-02
1.504965227271e-02
1.505008992360e-02
1.505008992360e-02
1.504965227271e-02
SCALARS engineering_strain_norm float 1
LOOKUP_TABLE default
0.000000000000e+00
0.000000000000e+00
0.000000000000e+00
0.000000000000e+00
0.000000000000e+00
0.000000000000e+00
0.000000000000e+00
0.000000000000e+00
0.000000000000e+00
0.000000000000e+00
0.000000000000e+00
0.000000000000e+00
0.000000000000e+00
0.000000000000e+00
0.000000000000e+00
0.000000000000e+00
0.000000000000e+00
0.000000000000e+00
0.000000000000e+00
0.000000000000e+00
0.000000000000e+00
0.000000000000e+00
0.000000000000e+00
0.000000000000e+00
0.000000000000e+00
0.000000000000e+00
0.000000000000e+00
0.000000000000e+00
0.000000000000e+00
0.000000000000e+00
0.000000000000e+00
0.000000000000e+00
0.000000000000e+00
0.000000000000e+00
0.000000000000e+00
0.000000000000e+00
0.000000000000e+00
0.000000000000e+00
0.000000000000e+00
0.000000000000e+00
0.000000000000e+00
0.000000000000e+00
0.000000000000e+00
0.000000000000e+00
0.000000000000e+00
0.000000000000e+00
0.000000000000e+00
0.000000000000e+00
0.000000000000e+00
0.000000000000e+00
0.000000000000e+00
0.000000000000e+00
0.000000000000e+00
0.000000000000e+00
0.000000000000e+00
0.000000000000e+00
0.000000000000e+00
0.000000000000e+00
0.000000000000e+00
0.000000000000e+00
0.000000000000e+00
0.000000000000e+00
0.000000000000e+00
0.000000000000e+00
2.124965954969e-05
2.164135101410e-05
2.164135101401e-05
2.124965954941e-05
2.164135101419e-05
2.205160691037e-05
2.205160691033e-05
2.164135101393e-05
2.164135101417e-05
2.205160691042e-05
2.205160691029e-05
2.164135101390e-05
2.124965954971e-05
2.164135101411e-05
2.164135101404e-05
2.124965954942e-05
1.497347626743e-05
1.526836722857e-05
1.526836722858e-05
1.497347626721e-05
1.526836722861e-05
1.557673588693e-05
1.557673588688e-05
1.526836722845e-05
1.526836722868e-05
1.557673588693e-05
1.557673588687e-05
1.526836722835e-05
1.497347626743e-05
1.526836722855e-05
1.526836722843e-05
1.497347626706e-05
8.912433460930e-06
9.166817669632e-06
9.166817669596e-06
8.912433460794e-06
9.166817669681e-06
9.428925085881e-06
9.428925085819e-06
9.166817669520e-06
9.166817669699e-06
9.428925085877e-06
9.428925085845e-06
9.166817669455e-06
8.912433460887e-06
9.166817669634e-06
9.166817669546e-06
8.912433460675e-06
3.374006311639e-06
3.376171972388e-06
3.376171972369e-06
3.374006311581e-06
3.376171972373e-06
3.359928086886e-06
3.359928086872e-06
3.376171972361e-06
3.376171972363e-06
3.359928086907e-06
3.359928086909e-06
3.376171972310e-06
3.374006311643e-06
3.376171972416e-06
3.376171972312e-06
3.374006311508e-06
SCALARS von_mises float 1
LOOKUP_TABLE default
0.000000000000e+00
0.000000000000e+00
0.000000000000e+00
0.000000000000e+00
0.000000000000e+00
0.000000000000e+00
0.000000000000e+00
0.000000000000e+00
0.000000000000e+00
0.000000000000e+00
0.000000000000e+00
0.000000000000e+00
0.000000000000e+00
0.000000000000e+00
0.000000000000e+00
0.000000000000e+00
0.000000000000e+00
0.000000000000e+00
0.000000000000e+00
0.000000000000e+00
0.000000000000e+00
0.000000000000e+00
0.000000000000e+00
0.000000000000e+00
0.000000000000e+00
0.000000000000e+00
0.000000000000e+00
0.000000000000e+00
0.000000000000e+00
0.000000000000e+00
0.000000000000e+00
0.000000000000e+00
0.000000000000e+00
0.000000000000e+00
0.000000000000e+00
0.000000000000e+00
0.000000000000e+00
0.000000000000e+00
0.000000000000e+00
0.000000000000e+00
0.000000000000e+00
0.000000000000e+00
0.000000000000e+00
0.000000000000e+00
0.000000000000e+00
0.000000000000e+00
0.000000000000e+00
0.000000000000e+00
0.000000000000e+00
0.000000000000e+00
0.000000000000e+00
0.000000000000e+00
0.000000000000e+00
0.000000000000e+00
0.000000000000e+00
0.000000000000e+00
0.000000000000e+00
0.000000000000e+00
0.000000000000e+00
0.000000000000e+00
0.000000000000e+00
0.000000000000e+00
0.000000000000e+00
0.000000000000e+00
1.949132036004e+00
1.988893090280e+00
1.988893090271e+00
1.949132035978e+00
1.988893090288e+00
2.030525164280e+00
2.030525164275e+00
1.988893090264e+00
1.988893090286e+00
2.030525164284e+00
2.030525164272e+00
1.988893090262e+00
1.949132036005e+00
1.988893090281e+00
1.988893090274e+00
1.949132035979e+00
1.380157832103e+00
1.409043826082e+00
1.409043826082e+00
1.380157832084e+00
1.409043826085e+00
1.439210675383e+00
1.439210675379e+00
1.409043826071e+00
1.409043826091e+00
1.439210675383e+00
1.439210675378e+00
1.409043826062e+00
1.380157832103e+00
1.409043826080e+00
1.409043826069e+00
1.380157832070e+00
8.223859819114e-01
8.479483397219e-01
8.479483397184e-01
8.223859818991e-01
8.479483397257e-01
8.742964682939e-01
8.742964682883e-01
8.479483397119e-01
8.479483397274e-01
8.742964682936e-01
8.742964682911e-01
8.479483397060e-01
8.223859819076e-01
8.479483397219e-01
8.479483397141e-01
8.223859818882e-01
3.136794231673e-01
3.140818659532e-01
3.140818659516e-01
3.136794231625e-01
3.140818659513e-01
3.129332670780e-01
3.129332670769e-01
3.140818659512e-01
3.140818659506e-01
3.129332670800e-01
3.129332670805e-01
3.140818659457e-01
3.136794231671e-01
3.140818659556e-01
3.140818659461e-01
3.136794231554e-01
SCALARS sdf_gap float 1
LOOKUP_TABLE default
0.000000000000e+00
0.000000000000e+00
0.000000000000e+00
0.000000000000e+00
0.000000000000e+00
0.000000000000e+00
0.000000000000e+00
0.000000000000e+00
0.000000000000e+00
0.000000000000e+00
0.000000000000e+00
0.000000000000e+00
0.000000000000e+00
0.000000000000e+00
0.000000000000e+00
0.000000000000e+00
0.000000000000e+00
0.000000000000e+00
0.000000000000e+00
0.000000000000e+00
0.000000000000e+00
0.000000000000e+00
0.000000000000e+00
0.000000000000e+00
0.000000000000e+00
0.000000000000e+00
0.000000000000e+00
0.000000000000e+00
0.000000000000e+00
0.000000000000e+00
0.000000000000e+00
0.000000000000e+00
0.000000000000e+00
0.000000000000e+00
0.000000000000e+00
0.000000000000e+00
0.000000000000e+00
0.000000000000e+00
0.000000000000e+00
0.000000000000e+00
0.000000000000e+00
0.000000000000e+00
0.000000000000e+00
0.000000000000e+00
0.000000000000e+00
0.000000000000e+00
0.000000000000e+00
0.000000000000e+00
0.000000000000e+00
0.000000000000e+00
0.000000000000e+00
0.000000000000e+00
0.000000000000e+00
0.000000000000e+00
0.000000000000e+00
0.000000000000e+00
0.000000000000e+00
0.000000000000e+00
0.000000000000e+00
0.000000000000e+00
0.000000000000e+00
0.000000000000e+00
0.000000000000e+00
0.000000000000e+00
-4.685346352356e-05
-4.724482716034e-05
-4.724482716016e-05
-4.685346352304e-05
-4.724482716050e-05
-4.763016127154e-05
-4.763016127137e-05
-4.724482716001e-05
-4.724482716052e-05
-4.763016127156e-05
-4.763016127139e-05
-4.724482716004e-05
-4.685346352357e-05
-4.724482716037e-05
-4.724482716020e-05
-4.685346352312e-05
0.000000000000e+00
0.000000000000e+00
0.000000000000e+00
0.000000000000e+00
0.000000000000e+00
0.000000000000e+00
0.000000000000e+00
0.000000000000e+00
0.000000000000e+00
0.000000000000e+00
0.000000000000e+00
0.000000000000e+00
0.000000000000e+00
0.000000000000e+00
0.000000000000e+00
0.000000000000e+00
0.000000000000e+00
0.000000000000e+00
0.000000000000e+00
0.000000000000e+00
0.000000000000e+00
0.000000000000e+00
0.000000000000e+00
0.000000000000e+00
0.000000000000e+00
0.000000000000e+00
0.000000000000e+00
0.000000000000e+00
0.000000000000e+00
0.000000000000e+00
0.000000000000e+00
0.000000000000e+00
0.000000000000e+00
0.000000000000e+00
0.000000000000e+00
0.000000000000e+00
0.000000000000e+00
0.000000000000e+00
0.000000000000e+00
0.000000000000e+00
0.000000000000e+00
0.000000000000e+00
0.000000000000e+00
0.000000000000e+00
0.000000000000e+00
0.000000000000e+00
0.000000000000e+00
0.000000000000e+00
SCALARS contact_pressure float 1
LOOKUP_TABLE default
0.000000000000e+00
0.000000000000e+00
0.000000000000e+00
0.000000000000e+00
0.000000000000e+00
0.000000000000e+00
0.000000000000e+00
0.000000000000e+00
0.000000000000e+00
0.000000000000e+00
0.000000000000e+00
0.000000000000e+00
0.000000000000e+00
0.000000000000e+00
0.000000000000e+00
0.000000000000e+00
0.000000000000e+00
0.000000000000e+00
0.000000000000e+00
0.000000000000e+00
0.000000000000e+00
0.000000000000e+00
0.000000000000e+00
0.000000000000e+00
0.000000000000e+00
0.000000000000e+00
0.000000000000e+00
0.000000000000e+00
0.000000000000e+00
0.000000000000e+00
0.000000000000e+00
0.000000000000e+00
0.000000000000e+00
0.000000000000e+00
0.000000000000e+00
0.000000000000e+00
0.000000000000e+00
0.000000000000e+00
0.000000000000e+00
0.000000000000e+00
0.000000000000e+00
0.000000000000e+00
0.000000000000e+00
0.000000000000e+00
0.000000000000e+00
0.000000000000e+00
0.000000000000e+00
0.000000000000e+00
0.000000000000e+00
0.000000000000e+00
0.000000000000e+00
0.000000000000e+00
0.000000000000e+00
0.000000000000e+00
0.000000000000e+00
0.000000000000e+00
0.000000000000e+00
0.000000000000e+00
0.000000000000e+00
0.000000000000e+00
0.000000000000e+00
0.000000000000e+00
0.000000000000e+00
0.000000000000e+00
2.342673176178e+00
2.362241358017e+00
2.362241358008e+00
2.342673176152e+00
2.362241358025e+00
2.381508063577e+00
2.381508063568e+00
2.362241358000e+00
2.362241358026e+00
2.381508063578e+00
2.381508063569e+00
2.362241358002e+00
2.342673176179e+00
2.362241358018e+00
2.362241358010e+00
2.342673176156e+00
0.000000000000e+00
0.000000000000e+00
0.000000000000e+00
0.000000000000e+00
0.000000000000e+00
0.000000000000e+00
0.000000000000e+00
0.000000000000e+00
0.000000000000e+00
0.000000000000e+00
0.000000000000e+00
0.000000000000e+00
0.000000000000e+00
0.000000000000e+00
0.000000000000e+00
0.000000000000e+00
0.000000000000e+00
0.000000000000e+00
0.000000000000e+00
0.000000000000e+00
0.000000000000e+00
0.000000000000e+00
0.000000000000e+00
0.000000000000e+00
0.000000000000e+00
0.000000000000e+00
0.000000000000e+00
0.000000000000e+00
0.000000000000e+00
0.000000000000e+00
0.000000000000e+00
0.000000000000e+00
0.000000000000e+00
0.000000000000e+00
0.000000000000e+00
0.000000000000e+00
0.000000000000e+00
0.000000000000e+00
0.000000000000e+00
0.000000000000e+00
0.000000000000e+00
0.000000000000e+00
0.000000000000e+00
0.000000000000e+00
0.000000000000e+00
0.000000000000e+00
0.000000000000e+00
0.000000000000e+00
SCALARS active_contact float 1
LOOKUP_TABLE default
0.000000000000e+00
0.000000000000e+00
0.000000000000e+00
0.000000000000e+00
0.000000000000e+00
0.000000000000e+00
0.000000000000e+00
0.000000000000e+00
0.000000000000e+00
0.000000000000e+00
0.000000000000e+00
0.000000000000e+00
0.000000000000e+00
0.000000000000e+00
0.000000000000e+00
0.000000000000e+00
0.000000000000e+00
0.000000000000e+00
0.000000000000e+00
0.000000000000e+00
0.000000000000e+00
0.000000000000e+00
0.000000000000e+00
0.000000000000e+00
0.000000000000e+00
0.000000000000e+00
0.000000000000e+00
0.000000000000e+00
0.000000000000e+00
0.000000000000e+00
0.000000000000e+00
0.000000000000e+00
0.000000000000e+00
0.000000000000e+00
0.000000000000e+00
0.000000000000e+00
0.000000000000e+00
0.000000000000e+00
0.000000000000e+00
0.000000000000e+00
0.000000000000e+00
0.000000000000e+00
0.000000000000e+00
0.000000000000e+00
0.000000000000e+00
0.000000000000e+00
0.000000000000e+00
0.000000000000e+00
0.000000000000e+00
0.000000000000e+00
0.000000000000e+00
0.000000000000e+00
0.000000000000e+00
0.000000000000e+00
0.000000000000e+00
0.000000000000e+00
0.000000000000e+00
0.000000000000e+00
0.000000000000e+00
0.000000000000e+00
0.000000000000e+00
0.000000000000e+00
0.000000000000e+00
0.000000000000e+00
1.000000000000e+00
1.000000000000e+00
1.000000000000e+00
1.000000000000e+00
1.000000000000e+00
1.000000000000e+00
1.000000000000e+00
1.000000000000e+00
1.000000000000e+00
1.000000000000e+00
1.000000000000e+00
1.000000000000e+00
1.000000000000e+00
1.000000000000e+00
1.000000000000e+00
1.000000000000e+00
0.000000000000e+00
0.000000000000e+00
0.000000000000e+00
0.000000000000e+00
0.000000000000e+00
0.000000000000e+00
0.000000000000e+00
0.000000000000e+00
0.000000000000e+00
0.000000000000e+00
0.000000000000e+00
0.000000000000e+00
0.000000000000e+00
0.000000000000e+00
0.000000000000e+00
0.000000000000e+00
0.000000000000e+00
0.000000000000e+00
0.000000000000e+00
0.000000000000e+00
0.000000000000e+00
0.000000000000e+00
0.000000000000e+00
0.000000000000e+00
0.000000000000e+00
0.000000000000e+00
0.000000000000e+00
0.000000000000e+00
0.000000000000e+00
0.000000000000e+00
0.000000000000e+00
0.000000000000e+00
0.000000000000e+00
0.000000000000e+00
0.000000000000e+00
0.000000000000e+00
0.000000000000e+00
0.000000000000e+00
0.000000000000e+00
0.000000000000e+00
0.000000000000e+00
0.000000000000e+00
0.000000000000e+00
0.000000000000e+00
0.000000000000e+00
0.000000000000e+00
0.000000000000e+00
0.000000000000e+00
