# vtk DataFile Version 3.0
SFC long-time C3D8 dynamic frame 150 t=3.000000000000e+00
ASCII
DATASET UNSTRUCTURED_GRID
POINTS 250 float
-2.500000000000e-01 -2.500000000000e-01 0.000000000000e+00
-1.250000000000e-01 -2.500000000000e-01 0.000000000000e+00
0.000000000000e+00 -2.500000000000e-01 0.000000000000e+00
1.250000000000e-01 -2.500000000000e-01 0.000000000000e+00
2.500000000000e-01 -2.500000000000e-01 0.000000000000e+00
-2.500000000000e-01 -1.250000000000e-01 0.000000000000e+00
-1.250000000000e-01 -1.250000000000e-01 0.000000000000e+00
0.000000000000e+00 -1.250000000000e-01 0.000000000000e+00
1.250000000000e-01 -1.250000000000e-01 0.000000000000e+00
2.500000000000e-01 -1.250000000000e-01 0.000000000000e+00
-2.500000000000e-01 0.000000000000e+00 0.000000000000e+00
-1.250000000000e-01 0.000000000000e+00 0.000000000000e+00
0.000000000000e+00 0.000000000000e+00 0.000000000000e+00
1.250000000000e-01 0.000000000000e+00 0.000000000000e+00
2.500000000000e-01 0.000000000000e+00 0.000000000000e+00
-2.500000000000e-01 1.250000000000e-01 0.000000000000e+00
-1.250000000000e-01 1.250000000000e-01 0.000000000000e+00
0.000000000000e+00 1.250000000000e-01 0.000000000000e+00
1.250000000000e-01 1.250000000000e-01 0.000000000000e+00
2.500000000000e-01 1.250000000000e-01 0.000000000000e+00
-2.500000000000e-01 2.500000000000e-01 0.000000000000e+00
-1.250000000000e-01 2.500000000000e-01 0.000000000000e+00
0.000000000000e+00 2.500000000000e-01 0.000000000000e+00
1.250000000000e-01 2.500000000000e-01 0.000000000000e+00
2.500000000000e-01 2.500000000000e-01 0.000000000000e+00
-2.500000000000e-01 -2.500000000000e-01 6.000000000000e-02
-1.250000000000e-01 -2.500000000000e-01 6.000000000000e-02
0.000000000000e+00 -2.500000000000e-01 6.000000000000e-02
1.250000000000e-01 -2.500000000000e-01 6.000000000000e-02
2.500000000000e-01 -2.500000000000e-01 6.000000000000e-02
-2.500000000000e-01 -1.250000000000e-01 6.000000000000e-02
-1.250000000000e-01 -1.250000000000e-01 6.000000000000e-02
0.000000000000e+00 -1.250000000000e-01 6.000000000000e-02
1.250000000000e-01 -1.250000000000e-01 6.000000000000e-02
2.500000000000e-01 -1.250000000000e-01 6.000000000000e-02
-2.500000000000e-01 0.000000000000e+00 6.000000000000e-02
-1.250000000000e-01 0.000000000000e+00 6.000000000000e-02
0.000000000000e+00 0.000000000000e+00 6.000000000000e-02
1.250000000000e-01 0.000000000000e+00 6.000000000000e-02
2.500000000000e-01 0.000000000000e+00 6.000000000000e-02
-2.500000000000e-01 1.250000000000e-01 6.000000000000e-02
-1.250000000000e-01 1.250000000000e-01 6.000000000000e-02
0.000000000000e+00 1.250000000000e-01 6.000000000000e-02
1.250000000000e-01 1.250000000000e-01 6.000000000000e-02
2.500000000000e-01 1.250000000000e-01 6.000000000000e-02
-2.500000000000e-01 2.500000000000e-01 6.000000000000e-02
-1.250000000000e-01 2.500000000000e-01 6.000000000000e-02
0.000000000000e+00 2.500000000000e-01 6.000000000000e-02
1.250000000000e-01 2.500000000000e-01 6.000000000000e-02
2.500000000000e-01 2.500000000000e-01 6.000000000000e-02
-2.500000000000e-01 -2.500000000000e-01 1.200000000000e-01
-1.250000000000e-01 -2.500000000000e-01 1.200000000000e-01
0.000000000000e+00 -2.500000000000e-01 1.200000000000e-01
1.250000000000e-01 -2.500000000000e-01 1.200000000000e-01
2.500000000000e-01 -2.500000000000e-01 1.200000000000e-01
-2.500000000000e-01 -1.250000000000e-01 1.200000000000e-01
-1.250000000000e-01 -1.250000000000e-01 1.200000000000e-01
0.000000000000e+00 -1.250000000000e-01 1.200000000000e-01
1.250000000000e-01 -1.250000000000e-01 1.200000000000e-01
2.500000000000e-01 -1.250000000000e-01 1.200000000000e-01
-2.500000000000e-01 0.000000000000e+00 1.200000000000e-01
-1.250000000000e-01 0.000000000000e+00 1.200000000000e-01
0.000000000000e+00 0.000000000000e+00 1.200000000000e-01
1.250000000000e-01 0.000000000000e+00 1.200000000000e-01
2.500000000000e-01 0.000000000000e+00 1.200000000000e-01
-2.500000000000e-01 1.250000000000e-01 1.200000000000e-01
-1.250000000000e-01 1.250000000000e-01 1.200000000000e-01
0.000000000000e+00 1.250000000000e-01 1.200000000000e-01
1.250000000000e-01 1.250000000000e-01 1.200000000000e-01
2.500000000000e-01 1.250000000000e-01 1.200000000000e-01
-2.500000000000e-01 2.500000000000e-01 1.200000000000e-01
-1.250000000000e-01 2.500000000000e-01 1.200000000000e-01
0.000000000000e+00 2.500000000000e-01 1.200000000000e-01
1.250000000000e-01 2.500000000000e-01 1.200000000000e-01
2.500000000000e-01 2.500000000000e-01 1.200000000000e-01
-2.500000000000e-01 -2.500000000000e-01 1.800000000000e-01
-1.250000000000e-01 -2.500000000000e-01 1.800000000000e-01
0.000000000000e+00 -2.500000000000e-01 1.800000000000e-01
1.250000000000e-01 -2.500000000000e-01 1.800000000000e-01
2.500000000000e-01 -2.500000000000e-01 1.800000000000e-01
-2.500000000000e-01 -1.250000000000e-01 1.800000000000e-01
-1.250000000000e-01 -1.250000000000e-01 1.800000000000e-01
0.000000000000e+00 -1.250000000000e-01 1.800000000000e-01
1.250000000000e-01 -1.250000000000e-01 1.800000000000e-01
2.500000000000e-01 -1.250000000000e-01 1.800000000000e-01
-2.500000000000e-01 0.000000000000e+00 1.800000000000e-01
-1.250000000000e-01 0.000000000000e+00 1.800000000000e-01
0.000000000000e+00 0.000000000000e+00 1.800000000000e-01
1.250000000000e-01 0.000000000000e+00 1.800000000000e-01
2.500000000000e-01 0.000000000000e+00 1.800000000000e-01
-2.500000000000e-01 1.250000000000e-01 1.800000000000e-01
-1.250000000000e-01 1.250000000000e-01 1.800000000000e-01
0.000000000000e+00 1.250000000000e-01 1.800000000000e-01
1.250000000000e-01 1.250000000000e-01 1.800000000000e-01
2.500000000000e-01 1.250000000000e-01 1.800000000000e-01
-2.500000000000e-01 2.500000000000e-01 1.800000000000e-01
-1.250000000000e-01 2.500000000000e-01 1.800000000000e-01
0.000000000000e+00 2.500000000000e-01 1.800000000000e-01
1.250000000000e-01 2.500000000000e-01 1.800000000000e-01
2.500000000000e-01 2.500000000000e-01 1.800000000000e-01
-2.500000000000e-01 -2.500000000000e-01 2.400000000000e-01
-1.250000000000e-01 -2.500000000000e-01 2.400000000000e-01
0.000000000000e+00 -2.500000000000e-01 2.400000000000e-01
1.250000000000e-01 -2.500000000000e-01 2.400000000000e-01
2.500000000000e-01 -2.500000000000e-01 2.400000000000e-01
-2.500000000000e-01 -1.250000000000e-01 2.400000000000e-01
-1.250000000000e-01 -1.250000000000e-01 2.400000000000e-01
0.000000000000e+00 -1.250000000000e-01 2.400000000000e-01
1.250000000000e-01 -1.250000000000e-01 2.400000000000e-01
2.500000000000e-01 -1.250000000000e-01 2.400000000000e-01
-2.500000000000e-01 0.000000000000e+00 2.400000000000e-01
-1.250000000000e-01 0.000000000000e+00 2.400000000000e-01
0.000000000000e+00 0.000000000000e+00 2.400000000000e-01
1.250000000000e-01 0.000000000000e+00 2.400000000000e-01
2.500000000000e-01 0.000000000000e+00 2.400000000000e-01
-2.500000000000e-01 1.250000000000e-01 2.400000000000e-01
-1.250000000000e-01 1.250000000000e-01 2.400000000000e-01
0.000000000000e+00 1.250000000000e-01 2.400000000000e-01
1.250000000000e-01 1.250000000000e-01 2.400000000000e-01
2.500000000000e-01 1.250000000000e-01 2.400000000000e-01
-2.500000000000e-01 2.500000000000e-01 2.400000000000e-01
-1.250000000000e-01 2.500000000000e-01 2.400000000000e-01
0.000000000000e+00 2.500000000000e-01 2.400000000000e-01
1.250000000000e-01 2.500000000000e-01 2.400000000000e-01
2.500000000000e-01 2.500000000000e-01 2.400000000000e-01
-2.500016606544e-01 -2.500016606545e-01 2.399498028621e-01
-1.250008310985e-01 -2.500016804936e-01 2.399493003049e-01
4.023613679051e-14 -2.500017059706e-01 2.399491398352e-01
1.250008310985e-01 -2.500016804936e-01 2.399493003049e-01
2.500016606545e-01 -2.500016606545e-01 2.399498028621e-01
-2.500016804935e-01 -1.250008310985e-01 2.399493003049e-01
-1.250008368509e-01 -1.250008368510e-01 2.399487843716e-01
3.878728375835e-14 -1.250008551059e-01 2.399486176194e-01
1.250008368510e-01 -1.250008368510e-01 2.399487843716e-01
2.500016804936e-01 -1.250008310985e-01 2.399493003049e-01
-2.500017059705e-01 -4.986926486350e-14 2.399491398352e-01
-1.250008551058e-01 -4.844210639919e-14 2.399486176194e-01
3.733115939983e-14 -4.702146297206e-14 2.399484509746e-01
1.250008551059e-01 -4.559804522585e-14 2.399486176194e-01
2.500017059706e-01 -4.415597024680e-14 2.399491398352e-01
-2.500016804935e-01 1.250008310984e-01 2.399493003049e-01
-1.250008368509e-01 1.250008368509e-01 2.399487843716e-01
3.588338321700e-14 1.250008551058e-01 2.399486176194e-01
1.250008368510e-01 1.250008368509e-01 2.399487843716e-01
2.500016804936e-01 1.250008310985e-01 2.399493003049e-01
-2.500016606544e-01 2.500016606544e-01 2.399498028621e-01
-1.250008310985e-01 2.500016804935e-01 2.399493003049e-01
3.444622730416e-14 2.500017059705e-01 2.399491398352e-01
1.250008310985e-01 2.500016804935e-01 2.399493003049e-01
2.500016606545e-01 2.500016606544e-01 2.399498028621e-01
-2.500013173978e-01 -2.500013173979e-01 3.049484058105e-01
-1.250006428451e-01 -2.500013336820e-01 3.049478863943e-01
4.017424449754e-14 -2.500013560659e-01 3.049477299948e-01
1.250006428452e-01 -2.500013336820e-01 3.049478863943e-01
2.500013173979e-01 -2.500013173979e-01 3.049484058105e-01
-2.500013336819e-01 -1.250006428452e-01 3.049478863943e-01
-1.250006452074e-01 -1.250006452074e-01 3.049473557668e-01
3.873302520453e-14 -1.250006609296e-01 3.049471935306e-01
1.250006452074e-01 -1.250006452074e-01 3.049473557668e-01
2.500013336820e-01 -1.250006428452e-01 3.049478863943e-01
-2.500013560659e-01 -4.991471062216e-14 3.049477299948e-01
-1.250006609295e-01 -4.848001238078e-14 3.049471935306e-01
3.728704465265e-14 -4.705417936381e-14 3.049470292937e-01
1.250006609296e-01 -4.561737000827e-14 3.049471935306e-01
2.500013560659e-01 -4.417744976604e-14 3.049477299948e-01
-2.500013336819e-01 1.250006428451e-01 3.049478863943e-01
-1.250006452074e-01 1.250006452073e-01 3.049473557668e-01
3.584548765149e-14 1.250006609295e-01 3.049471935306e-01
1.250006452074e-01 1.250006452073e-01 3.049473557668e-01
2.500013336820e-01 1.250006428451e-01 3.049478863943e-01
-2.500013173978e-01 2.500013173978e-01 3.049484058105e-01
-1.250006428451e-01 2.500013336819e-01 3.049478863943e-01
3.441048261217e-14 2.500013560659e-01 3.049477299948e-01
1.250006428451e-01 2.500013336819e-01 3.049478863943e-01
2.500013173979e-01 2.500013173978e-01 3.049484058105e-01
-2.500009010303e-01 -2.500009010304e-01 3.699473976494e-01
-1.250004381817e-01 -2.500009095734e-01 3.699468736830e-01
4.011860146196e-14 -2.500009271978e-01 3.699467309425e-01
1.250004381818e-01 -2.500009095734e-01 3.699468736830e-01
2.500009010304e-01 -2.500009010304e-01 3.699473976494e-01
-2.500009095733e-01 -1.250004381818e-01 3.699468736830e-01
-1.250004398122e-01 -1.250004398123e-01 3.699463414993e-01
3.867743963640e-14 -1.250004529318e-01 3.699461949069e-01
1.250004398123e-01 -1.250004398123e-01 3.699463414993e-01
2.500009095734e-01 -1.250004381818e-01 3.699468736830e-01
-2.500009271977e-01 -4.995741074120e-14 3.699467309425e-01
-1.250004529317e-01 -4.852149264086e-14 3.699461949069e-01
3.723893588899e-14 -4.708664381166e-14 3.699460459695e-01
1.250004529318e-01 -4.564393833095e-14 3.699461949069e-01
2.500009271978e-01 -4.420162424831e-14 3.699467309425e-01
-2.500009095733e-01 1.250004381817e-01 3.699468736830e-01
-1.250004398122e-01 1.250004398122e-01 3.699463414993e-01
3.580112481752e-14 1.250004529317e-01 3.699461949069e-01
1.250004398123e-01 1.250004398122e-01 3.699463414993e-01
2.500009095734e-01 1.250004381817e-01 3.699468736830e-01
-2.500009010303e-01 2.500009010303e-01 3.699473976494e-01
-1.250004381817e-01 2.500009095733e-01 3.699468736830e-01
3.436705954182e-14 2.500009271977e-01 3.699467309425e-01
1.250004381818e-01 2.500009095733e-01 3.699468736830e-01
2.500009010304e-01 2.500009010303e-01 3.699473976494e-01
-2.500004887184e-01 -2.500004887185e-01 4.349467600461e-01
-1.250002391525e-01 -2.500004921802e-01 4.349462540170e-01
4.006703589482e-14 -2.500005090647e-01 4.349461199220e-01
1.250002391526e-01 -2.500004921802e-01 4.349462540170e-01
2.500004887185e-01 -2.500004887185e-01 4.349467600461e-01
-2.500004921801e-01 -1.250002391526e-01 4.349462540170e-01
-1.250002407124e-01 -1.250002407124e-01 4.349457434310e-01
3.862573950388e-14 -1.250002528154e-01 4.349456069914e-01
1.250002407124e-01 -1.250002407124e-01 4.349457434310e-01
2.500004921802e-01 -1.250002391526e-01 4.349462540170e-01
-2.500005090646e-01 -4.999775010557e-14 4.349461199220e-01
-1.250002528154e-01 -4.856056244806e-14 4.349456069914e-01
3.719348204119e-14 -4.711796290450e-14 4.349454679232e-01
1.250002528154e-01 -4.566854336621e-14 4.349456069914e-01
2.500005090647e-01 -4.422491414158e-14 4.349461199220e-01
-2.500004921801e-01 1.250002391525e-01 4.349462540170e-01
-1.250002407124e-01 1.250002407123e-01 4.349457434310e-01
3.576066667161e-14 1.250002528153e-01 4.349456069914e-01
1.250002407124e-01 1.250002407124e-01 4.349457434310e-01
2.500004921802e-01 1.250002391525e-01 4.349462540170e-01
-2.500004887184e-01 2.500004887184e-01 4.349467600461e-01
-1.250002391525e-01 2.500004921801e-01 4.349462540170e-01
3.432742021696e-14 2.500005090646e-01 4.349461199220e-01
1.250002391526e-01 2.500004921801e-01 4.349462540170e-01
2.500004887185e-01 2.500004887184e-01 4.349467600461e-01
-2.500001540589e-01 -2.500001540589e-01 4.999465116380e-01
-1.250000648145e-01 -2.500001585543e-01 4.999460207281e-01
4.001020916785e-14 -2.500001771355e-01 4.999458899871e-01
1.250000648146e-01 -2.500001585543e-01 4.999460207281e-01
2.500001540589e-01 -2.500001540589e-01 4.999465116380e-01
-2.500001585542e-01 -1.250000648146e-01 4.999460207281e-01
-1.250000656541e-01 -1.250000656542e-01 4.999455275113e-01
3.857236539350e-14 -1.250000771590e-01 4.999453946569e-01
1.250000656542e-01 -1.250000656542e-01 4.999455275113e-01
2.500001585543e-01 -1.250000648146e-01 4.999460207281e-01
-2.500001771354e-01 -5.004164395086e-14 4.999458899871e-01
-1.250000771589e-01 -4.859911976305e-14 4.999453946569e-01
3.715075472207e-14 -4.714554865948e-14 4.999452582393e-01
1.250000771590e-01 -4.568888722188e-14 4.999453946569e-01
2.500001771355e-01 -4.424573682499e-14 4.999458899871e-01
-2.500001585542e-01 1.250000648145e-01 4.999460207281e-01
-1.250000656541e-01 1.250000656541e-01 4.999455275113e-01
3.572541358935e-14 1.250000771589e-01 4.999453946569e-01
1.250000656542e-01 1.250000656541e-01 4.999455275113e-01
2.500001585543e-01 1.250000648145e-01 4.999460207281e-01
-2.500001540589e-01 2.500001540588e-01 4.999465116380e-01
-1.250000648145e-01 2.500001585542e-01 4.999460207281e-01
3.429224917193e-14 2.500001771354e-01 4.999458899871e-01
1.250000648146e-01 2.500001585542e-01 4.999460207281e-01
2.500001540589e-01 2.500001540588e-01 4.999465116380e-01
CELLS 128 1152
8 0 1 6 5 25 26 31 30
8 1 2 7 6 26 27 32 31
8 2 3 8 7 27 28 33 32
8 3 4 9 8 28 29 34 33
8 5 6 11 10 30 31 36 35
8 6 7 12 11 31 32 37 36
8 7 8 13 12 32 33 38 37
8 8 9 14 13 33 34 39 38
8 10 11 16 15 35 36 41 40
8 11 12 17 16 36 37 42 41
8 12 13 18 17 37 38 43 42
8 13 14 19 18 38 39 44 43
8 15 16 21 20 40 41 46 45
8 16 17 22 21 41 42 47 46
8 17 18 23 22 42 43 48 47
8 18 19 24 23 43 44 49 48
8 25 26 31 30 50 51 56 55
8 26 27 32 31 51 52 57 56
8 27 28 33 32 52 53 58 57
8 28 29 34 33 53 54 59 58
8 30 31 36 35 55 56 61 60
8 31 32 37 36 56 57 62 61
8 32 33 38 37 57 58 63 62
8 33 34 39 38 58 59 64 63
8 35 36 41 40 60 61 66 65
8 36 37 42 41 61 62 67 66
8 37 38 43 42 62 63 68 67
8 38 39 44 43 63 64 69 68
8 40 41 46 45 65 66 71 70
8 41 42 47 46 66 67 72 71
8 42 43 48 47 67 68 73 72
8 43 44 49 48 68 69 74 73
8 50 51 56 55 75 76 81 80
8 51 52 57 56 76 77 82 81
8 52 53 58 57 77 78 83 82
8 53 54 59 58 78 79 84 83
8 55 56 61 60 80 81 86 85
8 56 57 62 61 81 82 87 86
8 57 58 63 62 82 83 88 87
8 58 59 64 63 83 84 89 88
8 60 61 66 65 85 86 91 90
8 61 62 67 66 86 87 92 91
8 62 63 68 67 87 88 93 92
8 63 64 69 68 88 89 94 93
8 65 66 71 70 90 91 96 95
8 66 67 72 71 91 92 97 96
8 67 68 73 72 92 93 98 97
8 68 69 74 73 93 94 99 98
8 75 76 81 80 100 101 106 105
8 76 77 82 81 101 102 107 106
8 77 78 83 82 102 103 108 107
8 78 79 84 83 103 104 109 108
8 80 81 86 85 105 106 111 110
8 81 82 87 86 106 107 112 111
8 82 83 88 87 107 108 113 112
8 83 84 89 88 108 109 114 113
8 85 86 91 90 110 111 116 115
8 86 87 92 91 111 112 117 116
8 87 88 93 92 112 113 118 117
8 88 89 94 93 113 114 119 118
8 90 91 96 95 115 116 121 120
8 91 92 97 96 116 117 122 121
8 92 93 98 97 117 118 123 122
8 93 94 99 98 118 119 124 123
8 125 126 131 130 150 151 156 155
8 126 127 132 131 151 152 157 156
8 127 128 133 132 152 153 158 157
8 128 129 134 133 153 154 159 158
8 130 131 136 135 155 156 161 160
8 131 132 137 136 156 157 162 161
8 132 133 138 137 157 158 163 162
8 133 134 139 138 158 159 164 163
8 135 136 141 140 160 161 166 165
8 136 137 142 141 161 162 167 166
8 137 138 143 142 162 163 168 167
8 138 139 144 143 163 164 169 168
8 140 141 146 145 165 166 171 170
8 141 142 147 146 166 167 172 171
8 142 143 148 147 167 168 173 172
8 143 144 149 148 168 169 174 173
8 150 151 156 155 175 176 181 180
8 151 152 157 156 176 177 182 181
8 152 153 158 157 177 178 183 182
8 153 154 159 158 178 179 184 183
8 155 156 161 160 180 181 186 185
8 156 157 162 161 181 182 187 186
8 157 158 163 162 182 183 188 187
8 158 159 164 163 183 184 189 188
8 160 161 166 165 185 186 191 190
8 161 162 167 166 186 187 192 191
8 162 163 168 167 187 188 193 192
8 163 164 169 168 188 189 194 193
8 165 166 171 170 190 191 196 195
8 166 167 172 171 191 192 197 196
8 167 168 173 172 192 193 198 197
8 168 169 174 173 193 194 199 198
8 175 176 181 180 200 201 206 205
8 176 177 182 181 201 202 207 206
8 177 178 183 182 202 203 208 207
8 178 179 184 183 203 204 209 208
8 180 181 186 185 205 206 211 210
8 181 182 187 186 206 207 212 211
8 182 183 188 187 207 208 213 212
8 183 184 189 188 208 209 214 213
8 185 186 191 190 210 211 216 215
8 186 187 192 191 211 212 217 216
8 187 188 193 192 212 213 218 217
8 188 189 194 193 213 214 219 218
8 190 191 196 195 215 216 221 220
8 191 192 197 196 216 217 222 221
8 192 193 198 197 217 218 223 222
8 193 194 199 198 218 219 224 223
8 200 201 206 205 225 226 231 230
8 201 202 207 206 226 227 232 231
8 202 203 208 207 227 228 233 232
8 203 204 209 208 228 229 234 233
8 205 206 211 210 230 231 236 235
8 206 207 212 211 231 232 237 236
8 207 208 213 212 232 233 238 237
8 208 209 214 213 233 234 239 238
8 210 211 216 215 235 236 241 240
8 211 212 217 216 236 237 242 241
8 212 213 218 217 237 238 243 242
8 213 214 219 218 238 239 244 243
8 215 216 221 220 240 241 246 245
8 216 217 222 221 241 242 247 246
8 217 218 223 222 242 243 248 247
8 218 219 224 223 243 244 249 248
CELL_TYPES 128
12
12
12
12
12
12
12
12
12
12
12
12
12
12
12
12
12
12
12
12
12
12
12
12
12
12
12
12
12
12
12
12
12
12
12
12
12
12
12
12
12
12
12
12
12
12
12
12
12
12
12
12
12
12
12
12
12
12
12
12
12
12
12
12
12
12
12
12
12
12
12
12
12
12
12
12
12
12
12
12
12
12
12
12
12
12
12
12
12
12
12
12
12
12
12
12
12
12
12
12
12
12
12
12
12
12
12
12
12
12
12
12
12
12
12
12
12
12
12
12
12
12
12
12
12
12
12
12
POINT_DATA 250
VECTORS displacement float
0.000000000000e+00 0.000000000000e+00 0.000000000000e+00
0.000000000000e+00 0.000000000000e+00 0.000000000000e+00
0.000000000000e+00 0.000000000000e+00 0.000000000000e+00
0.000000000000e+00 0.000000000000e+00 0.000000000000e+00
0.000000000000e+00 0.000000000000e+00 0.000000000000e+00
0.000000000000e+00 0.000000000000e+00 0.000000000000e+00
0.000000000000e+00 0.000000000000e+00 0.000000000000e+00
0.000000000000e+00 0.000000000000e+00 0.000000000000e+00
0.000000000000e+00 0.000000000000e+00 0.000000000000e+00
0.000000000000e+00 0.000000000000e+00 0.000000000000e+00
0.000000000000e+00 0.000000000000e+00 0.000000000000e+00
0.000000000000e+00 0.000000000000e+00 0.000000000000e+00
0.000000000000e+00 0.000000000000e+00 0.000000000000e+00
0.000000000000e+00 0.000000000000e+00 0.000000000000e+00
0.000000000000e+00 0.000000000000e+00 0.000000000000e+00
0.000000000000e+00 0.000000000000e+00 0.000000000000e+00
0.000000000000e+00 0.000000000000e+00 0.000000000000e+00
0.000000000000e+00 0.000000000000e+00 0.000000000000e+00
0.000000000000e+00 0.000000000000e+00 0.000000000000e+00
0.000000000000e+00 0.000000000000e+00 0.000000000000e+00
0.000000000000e+00 0.000000000000e+00 0.000000000000e+00
0.000000000000e+00 0.000000000000e+00 0.000000000000e+00
0.000000000000e+00 0.000000000000e+00 0.000000000000e+00
0.000000000000e+00 0.000000000000e+00 0.000000000000e+00
0.000000000000e+00 0.000000000000e+00 0.000000000000e+00
0.000000000000e+00 0.000000000000e+00 0.000000000000e+00
0.000000000000e+00 0.000000000000e+00 0.000000000000e+00
0.000000000000e+00 0.000000000000e+00 0.000000000000e+00
0.000000000000e+00 0.000000000000e+00 0.000000000000e+00
0.000000000000e+00 0.000000000000e+00 0.000000000000e+00
0.000000000000e+00 0.000000000000e+00 0.000000000000e+00
0.000000000000e+00 0.000000000000e+00 0.000000000000e+00
0.000000000000e+00 0.000000000000e+00 0.000000000000e+00
0.000000000000e+00 0.000000000000e+00 0.000000000000e+00
0.000000000000e+00 0.000000000000e+00 0.000000000000e+00
0.000000000000e+00 0.000000000000e+00 0.000000000000e+00
0.000000000000e+00 0.000000000000e+00 0.000000000000e+00
0.000000000000e+00 0.000000000000e+00 0.000000000000e+00
0.000000000000e+00 0.000000000000e+00 0.000000000000e+00
0.000000000000e+00 0.000000000000e+00 0.000000000000e+00
0.000000000000e+00 0.000000000000e+00 0.000000000000e+00
0.000000000000e+00 0.000000000000e+00 0.000000000000e+00
0.000000000000e+00 0.000000000000e+00 0.000000000000e+00
0.000000000000e+00 0.000000000000e+00 0.000000000000e+00
0.000000000000e+00 0.000000000000e+00 0.000000000000e+00
0.000000000000e+00 0.000000000000e+00 0.000000000000e+00
0.000000000000e+00 0.000000000000e+00 0.000000000000e+00
0.000000000000e+00 0.000000000000e+00 0.000000000000e+00
0.000000000000e+00 0.000000000000e+00 0.000000000000e+00
0.000000000000e+00 0.000000000000e+00 0.000000000000e+00
0.000000000000e+00 0.000000000000e+00 0.000000000000e+00
0.000000000000e+00 0.000000000000e+00 0.000000000000e+00
0.000000000000e+00 0.000000000000e+00 0.000000000000e+00
0.000000000000e+00 0.000000000000e+00 0.000000000000e+00
0.000000000000e+00 0.000000000000e+00 0.000000000000e+00
0.000000000000e+00 0.000000000000e+00 0.000000000000e+00
0.000000000000e+00 0.000000000000e+00 0.000000000000e+00
0.000000000000e+00 0.000000000000e+00 0.000000000000e+00
0.000000000000e+00 0.000000000000e+00 0.000000000000e+00
0.000000000000e+00 0.000000000000e+00 0.000000000000e+00
0.000000000000e+00 0.000000000000e+00 0.000000000000e+00
0.000000000000e+00 0.000000000000e+00 0.000000000000e+00
0.000000000000e+00 0.000000000000e+00 0.000000000000e+00
0.000000000000e+00 0.000000000000e+00 0.000000000000e+00
0.000000000000e+00 0.000000000000e+00 0.000000000000e+00
0.000000000000e+00 0.000000000000e+00 0.000000000000e+00
0.000000000000e+00 0.000000000000e+00 0.000000000000e+00
0.000000000000e+00 0.000000000000e+00 0.000000000000e+00
0.000000000000e+00 0.000000000000e+00 0.000000000000e+00
0.000000000000e+00 0.000000000000e+00 0.000000000000e+00
0.000000000000e+00 0.000000000000e+00 0.000000000000e+00
0.000000000000e+00 0.000000000000e+00 0.000000000000e+00
0.000000000000e+00 0.000000000000e+00 0.000000000000e+00
0.000000000000e+00 0.000000000000e+00 0.000000000000e+00
0.000000000000e+00 0.000000000000e+00 0.000000000000e+00
0.000000000000e+00 0.000000000000e+00 0.000000000000e+00
0.000000000000e+00 0.000000000000e+00 0.000000000000e+00
0.000000000000e+00 0.000000000000e+00 0.000000000000e+00
0.000000000000e+00 0.000000000000e+00 0.000000000000e+00
0.000000000000e+00 0.000000000000e+00 0.000000000000e+00
0.000000000000e+00 0.000000000000e+00 0.000000000000e+00
0.000000000000e+00 0.000000000000e+00 0.000000000000e+00
0.000000000000e+00 0.000000000000e+00 0.000000000000e+00
0.000000000000e+00 0.000000000000e+00 0.000000000000e+00
0.000000000000e+00 0.000000000000e+00 0.000000000000e+00
0.000000000000e+00 0.000000000000e+00 0.000000000000e+00
0.000000000000e+00 0.000000000000e+00 0.000000000000e+00
0.000000000000e+00 0.000000000000e+00 0.000000000000e+00
0.000000000000e+00 0.000000000000e+00 0.000000000000e+00
0.000000000000e+00 0.000000000000e+00 0.000000000000e+00
0.000000000000e+00 0.000000000000e+00 0.000000000000e+00
0.000000000000e+00 0.000000000000e+00 0.000000000000e+00
0.000000000000e+00 0.000000000000e+00 0.000000000000e+00
0.000000000000e+00 0.000000000000e+00 0.000000000000e+00
0.000000000000e+00 0.000000000000e+00 0.000000000000e+00
0.000000000000e+00 0.000000000000e+00 0.000000000000e+00
0.000000000000e+00 0.000000000000e+00 0.000000000000e+00
0.000000000000e+00 0.000000000000e+00 0.000000000000e+00
0.000000000000e+00 0.000000000000e+00 0.000000000000e+00
0.000000000000e+00 0.000000000000e+00 0.000000000000e+00
0.000000000000e+00 0.000000000000e+00 0.000000000000e+00
0.000000000000e+00 0.000000000000e+00 0.000000000000e+00
0.000000000000e+00 0.000000000000e+00 0.000000000000e+00
0.000000000000e+00 0.000000000000e+00 0.000000000000e+00
0.000000000000e+00 0.000000000000e+00 0.000000000000e+00
0.000000000000e+00 0.000000000000e+00 0.000000000000e+00
0.000000000000e+00 0.000000000000e+00 0.000000000000e+00
0.000000000000e+00 0.000000000000e+00 0.000000000000e+00
0.000000000000e+00 0.000000000000e+00 0.000000000000e+00
0.000000000000e+00 0.000000000000e+00 0.000000000000e+00
0.000000000000e+00 0.000000000000e+00 0.000000000000e+00
0.000000000000e+00 0.000000000000e+00 0.000000000000e+00
0.000000000000e+00 0.000000000000e+00 0.000000000000e+00
0.000000000000e+00 0.000000000000e+00 0.000000000000e+00
0.000000000000e+00 0.000000000000e+00 0.000000000000e+00
0.000000000000e+00 0.000000000000e+00 0.000000000000e+00
0.000000000000e+00 0.000000000000e+00 0.000000000000e+00
0.000000000000e+00 0.000000000000e+00 0.000000000000e+00
0.000000000000e+00 0.000000000000e+00 0.000000000000e+00
0.000000000000e+00 0.000000000000e+00 0.000000000000e+00
0.000000000000e+00 0.000000000000e+00 0.000000000000e+00
0.000000000000e+00 0.000000000000e+00 0.000000000000e+00
0.000000000000e+00 0.000000000000e+00 0.000000000000e+00
0.000000000000e+00 0.000000000000e+00 0.000000000000e+00
0.000000000000e+00 0.000000000000e+00 0.000000000000e+00
-1.660654419994e-06 -1.660654510079e-06 -1.505019713794e-02
-8.310984571485e-07 -1.680493608888e-06 -1.505069969505e-02
4.023613679051e-14 -1.705970608345e-06 -1.505086016484e-02
8.310985376127e-07 -1.680493606035e-06 -1.505069969505e-02
1.660654500454e-06 -1.660654504371e-06 -1.505019713794e-02
-1.680493521662e-06 -8.310985472459e-07 -1.505069969505e-02
-8.368509077131e-07 -8.368509949391e-07 -1.505121562841e-02
3.878728375835e-14 -8.551059141677e-07 -1.505138238060e-02
8.368509852918e-07 -8.368509920960e-07 -1.505121562841e-02
1.680493599234e-06 -8.310985415335e-07 -1.505069969505e-02
-1.705970523992e-06 -4.986926486350e-14 -1.505086016484e-02
-8.551058298108e-07 -4.844210639919e-14 -1.505138238060e-02
3.733115939983e-14 -4.702146297206e-14 -1.505154902537e-02
8.551059044830e-07 -4.559804522585e-14 -1.505138238060e-02
1.705970598678e-06 -4.415597024680e-14 -1.505086016484e-02
-1.680493524554e-06 8.310984475058e-07 -1.505069969505e-02
-8.368509106126e-07 8.368508980608e-07 -1.505121562841e-02
3.588338321700e-14 8.551058201293e-07 -1.505138238060e-02
8.368509823886e-07 8.368509009116e-07 -1.505121562841e-02
1.680493596332e-06 8.310984532232e-07 -1.505069969505e-02
-1.660654425747e-06 1.660654410338e-06 -1.505019713794e-02
-8.310984629207e-07 1.680493512016e-06 -1.505069969505e-02
3.444622730416e-14 1.705970514314e-06 -1.505086016484e-02
8.310985318253e-07 1.680493514866e-06 -1.505069969505e-02
1.660654494658e-06 1.660654416057e-06 -1.505019713794e-02
-1.317397788869e-06 -1.317397878950e-06 -1.505159418949e-02
-6.428450748880e-07 -1.333681996890e-06 -1.505211360570e-02
4.017424449754e-14 -1.356065945626e-06 -1.505227000525e-02
6.428451552390e-07 -1.333681994020e-06 -1.505211360570e-02
1.317397869217e-06 -1.317397873208e-06 -1.505159418949e-02
-1.333681909675e-06 -6.428451649744e-07 -1.505211360570e-02
-6.452073558488e-07 -6.452074430657e-07 -1.505264423322e-02
3.873302520453e-14 -6.609295655141e-07 -1.505280646935e-02
6.452074333201e-07 -6.452074402023e-07 -1.505264423322e-02
1.333681987151e-06 -6.428451592352e-07 -1.505211360570e-02
-1.356065861289e-06 -4.991471062216e-14 -1.505227000525e-02
-6.609294811725e-07 -4.848001238078e-14 -1.505280646935e-02
3.728704465265e-14 -4.705417936381e-14 -1.505297070629e-02
6.609295557535e-07 -4.561737000827e-14 -1.505280646935e-02
1.356065935872e-06 -4.417744976604e-14 -1.505227000525e-02
-1.333681912554e-06 6.428450651492e-07 -1.505211360570e-02
-6.452073587341e-07 6.452073461073e-07 -1.505264423322e-02
3.584548765149e-14 6.609294714124e-07 -1.505280646935e-02
6.452074304296e-07 6.452073489681e-07 -1.505264423322e-02
1.333681984252e-06 6.428450708817e-07 -1.505211360570e-02
-1.317397794617e-06 1.317397779126e-06 -1.505159418949e-02
-6.428450806438e-07 1.333681899934e-06 -1.505211360570e-02
3.441048261217e-14 1.356065851533e-06 -1.505227000525e-02
6.428451494666e-07 1.333681902792e-06 -1.505211360570e-02
1.317397863444e-06 1.317397784857e-06 -1.505159418949e-02
-9.010302921558e-07 -9.010303822352e-07 -1.505260235059e-02
-4.381817035873e-07 -9.095733801697e-07 -1.505312631702e-02
4.011860146196e-14 -9.271977736596e-07 -1.505326905748e-02
4.381817838291e-07 -9.095733772828e-07 -1.505312631702e-02
9.010303724044e-07 -9.010303764693e-07 -1.505260235059e-02
-9.095732929641e-07 -4.381817936651e-07 -1.505312631702e-02
-4.398122106361e-07 -4.398122978403e-07 -1.505365850067e-02
3.867743963640e-14 -4.529317878015e-07 -1.505380509307e-02
4.398122879976e-07 -4.398122949574e-07 -1.505365850067e-02
9.095733703263e-07 -4.381817879024e-07 -1.505312631702e-02
-9.271976893313e-07 -4.995741074120e-14 -1.505326905748e-02
-4.529317034766e-07 -4.852149264086e-14 -1.505380509307e-02
3.723893588899e-14 -4.708664381166e-14 -1.505395403052e-02
4.529317779599e-07 -4.564393833095e-14 -1.505380509307e-02
9.271977638238e-07 -4.420162424831e-14 -1.505326905748e-02
-9.095732958318e-07 4.381816937541e-07 -1.505312631702e-02
-4.398122135082e-07 4.398122008007e-07 -1.505365850067e-02
3.580112481752e-14 4.529316936359e-07 -1.505380509307e-02
4.398122851173e-07 4.398122036730e-07 -1.505365850067e-02
9.095733674455e-07 4.381816995009e-07 -1.505312631702e-02
-9.010302979001e-07 9.010302823237e-07 -1.505260235059e-02
-4.381817093333e-07 9.095732831306e-07 -1.505312631702e-02
3.436705954182e-14 9.271976794943e-07 -1.505326905748e-02
4.381817780663e-07 9.095732859978e-07 -1.505312631702e-02
9.010303666325e-07 9.010302880705e-07 -1.505260235059e-02
-4.887184097351e-07 -4.887184998081e-07 -1.505323995391e-02
-2.391524781327e-07 -4.921801757913e-07 -1.505374598296e-02
4.006703589482e-14 -5.090647160550e-07 -1.505388007798e-02
2.391525582719e-07 -4.921801728886e-07 -1.505374598296e-02
4.887184898768e-07 -4.887184940184e-07 -1.505323995391e-02
-4.921800886013e-07 -2.391525682007e-07 -1.505374598296e-02
-2.407123574487e-07 -2.407124446403e-07 -1.505425656900e-02
3.862573950388e-14 -2.528154383758e-07 -1.505439300861e-02
2.407124347033e-07 -2.407124417378e-07 -1.505425656900e-02
4.921801658641e-07 -2.391525624168e-07 -1.505374598296e-02
-5.090646317434e-07 -4.999775010557e-14 -1.505388007798e-02
-2.528153540639e-07 -4.856056244806e-14 -1.505439300861e-02
3.719348204119e-14 -4.711796290450e-14 -1.505453207680e-02
2.528154284557e-07 -4.566854336621e-14 -1.505439300861e-02
5.090647061407e-07 -4.422491414158e-14 -1.505388007798e-02
-4.921800914586e-07 2.391524682051e-07 -1.505374598296e-02
-2.407123603077e-07 2.407123475204e-07 -1.505425656900e-02
3.576066667161e-14 2.528153441453e-07 -1.505439300861e-02
2.407124318350e-07 2.407123504025e-07 -1.505425656900e-02
4.921801629947e-07 2.391524739675e-07 -1.505374598296e-02
-4.887184154714e-07 4.887183998077e-07 -1.505323995391e-02
-2.391524838675e-07 4.921800786766e-07 -1.505374598296e-02
3.432742021696e-14 5.090646218258e-07 -1.505388007798e-02
2.391525525195e-07 4.921800815547e-07 -1.505374598296e-02
4.887184841198e-07 4.887184055746e-07 -1.505323995391e-02
-1.540588525822e-07 -1.540589426461e-07 -1.505348836202e-02
-6.481453356811e-08 -1.585543187643e-07 -1.505397927191e-02
4.001020916785e-14 -1.771355259031e-07 -1.505411001286e-02
6.481461359197e-08 -1.585543158478e-07 -1.505397927191e-02
1.540589326200e-07 -1.540589368290e-07 -1.505348836202e-02
-1.585542315878e-07 -6.481462362210e-08 -1.505397927191e-02
-6.565414608529e-08 -6.565423325903e-08 -1.505447248866e-02
3.857236539350e-14 -7.715896668672e-08 -1.505460534311e-02
6.565422323691e-08 -6.565423033864e-08 -1.505447248866e-02
1.585543087450e-07 -6.481461781421e-08 -1.505397927191e-02
-1.771354415946e-07 -5.004164395086e-14 -1.505411001286e-02
-7.715888239088e-08 -4.859911976305e-14 -1.505460534311e-02
3.715075472207e-14 -4.714554865948e-14 -1.505474176071e-02
7.715895668827e-08 -4.568888722188e-14 -1.505460534311e-02
1.771355158992e-07 -4.424573682499e-14 -1.505411001286e-02
-1.585542344363e-07 6.481452354088e-08 -1.505397927191e-02
-6.565414892958e-08 6.565413606053e-08 -1.505447248866e-02
3.572541358935e-14 7.715887238841e-08 -1.505460534311e-02
6.565422037793e-08 6.565413895334e-08 -1.505447248866e-02
1.585543058822e-07 6.481452932312e-08 -1.505397927191e-02
-1.540588583125e-07 1.540588425610e-07 -1.505348836202e-02
-6.481453928599e-08 1.585542215714e-07 -1.505397927191e-02
3.429224917193e-14 1.771354315972e-07 -1.505411001286e-02
6.481460786334e-08 1.585542244524e-07 -1.505397927191e-02
1.540589268861e-07 1.540588483375e-07 -1.505348836202e-02
SCALARS displacement_magnitude float 1
LOOKUP_TABLE default
0.000000000000e+00
0.000000000000e+00
0.000000000000e+00
0.000000000000e+00
0.000000000000e+00
0.000000000000e+00
0.000000000000e+00
0.000000000000e+00
0.000000000000e+00
0.000000000000e+00
0.000000000000e+00
0.000000000000e+00
0.000000000000e+00
0.000000000000e+00
0.000000000000e+00
0.000000000000e+00
0.000000000000e+00
0.000000000000e+00
0.000000000000e+00
0.000000000000e+00
0.000000000000e+00
0.000000000000e+00
0.000000000000e+00
0.000000000000e+00
0.000000000000e+00
0.000000000000e+00
0.000000000000e+00
0.000000000000e+00
0.000000000000e+00
0.000000000000e+00
0.000000000000e+00
0.000000000000e+00
0.000000000000e+00
0.000000000000e+00
0.000000000000e+00
0.000000000000e+00
0.000000000000e+00
0.000000000000e+00
0.000000000000e+00
0.000000000000e+00
0.000000000000e+00
0.000000000000e+00
0.000000000000e+00
0.000000000000e+00
0.000000000000e+00
0.000000000000e+00
0.000000000000e+00
0.000000000000e+00
0.000000000000e+00
0.000000000000e+00
0.000000000000e+00
0.000000000000e+00
0.000000000000e+00
0.000000000000e+00
0.000000000000e+00
0.000000000000e+00
0.000000000000e+00
0.000000000000e+00
0.000000000000e+00
0.000000000000e+00
0.000000000000e+00
0.000000000000e+00
0.000000000000e+00
0.000000000000e+00
0.000000000000e+00
0.000000000000e+00
0.000000000000e+00
0.000000000000e+00
0.000000000000e+00
0.000000000000e+00
0.000000000000e+00
0.000000000000e+00
0.000000000000e+00
0.000000000000e+00
0.000000000000e+00
0.000000000000e+00
0.000000000000e+00
0.000000000000e+00
0.000000000000e+00
0.000000000000e+00
0.000000000000e+00
0.000000000000e+00
0.000000000000e+00
0.000000000000e+00
0.000000000000e+00
0.000000000000e+00
0.000000000000e+00
0.000000000000e+00
0.000000000000e+00
0.000000000000e+00
0.000000000000e+00
0.000000000000e+00
0.000000000000e+00
0.000000000000e+00
0.000000000000e+00
0.000000000000e+00
0.000000000000e+00
0.000000000000e+00
0.000000000000e+00
0.000000000000e+00
0.000000000000e+00
0.000000000000e+00
0.000000000000e+00
0.000000000000e+00
0.000000000000e+00
0.000000000000e+00
0.000000000000e+00
0.000000000000e+00
0.000000000000e+00
0.000000000000e+00
0.000000000000e+00
0.000000000000e+00
0.000000000000e+00
0.000000000000e+00
0.000000000000e+00
0.000000000000e+00
0.000000000000e+00
0.000000000000e+00
0.000000000000e+00
0.000000000000e+00
0.000000000000e+00
0.000000000000e+00
0.000000000000e+00
0.000000000000e+00
0.000000000000e+00
1.505019732118e-02
1.505069981182e-02
1.505086026153e-02
1.505069981182e-02
1.505019732118e-02
1.505069981182e-02
1.505121567494e-02
1.505138240489e-02
1.505121567494e-02
1.505069981181e-02
1.505086026153e-02
1.505138240489e-02
1.505154902537e-02
1.505138240489e-02
1.505086026153e-02
1.505069981182e-02
1.505121567494e-02
1.505138240489e-02
1.505121567494e-02
1.505069981181e-02
1.505019732118e-02
1.505069981181e-02
1.505086026153e-02
1.505069981181e-02
1.505019732118e-02
1.505159430480e-02
1.505211367852e-02
1.505227006633e-02
1.505211367852e-02
1.505159430480e-02
1.505211367852e-02
1.505264426088e-02
1.505280648386e-02
1.505264426088e-02
1.505211367852e-02
1.505227006633e-02
1.505280648386e-02
1.505297070629e-02
1.505280648386e-02
1.505227006633e-02
1.505211367852e-02
1.505264426088e-02
1.505280648386e-02
1.505264426088e-02
1.505211367852e-02
1.505159430480e-02
1.505211367852e-02
1.505227006633e-02
1.505211367852e-02
1.505159430480e-02
1.505260240452e-02
1.505312635088e-02
1.505326908603e-02
1.505312635088e-02
1.505260240452e-02
1.505312635088e-02
1.505365851352e-02
1.505380509988e-02
1.505365851351e-02
1.505312635088e-02
1.505326908603e-02
1.505380509988e-02
1.505395403052e-02
1.505380509988e-02
1.505326908603e-02
1.505312635088e-02
1.505365851352e-02
1.505380509988e-02
1.505365851351e-02
1.505312635088e-02
1.505260240452e-02
1.505312635088e-02
1.505326908603e-02
1.505312635088e-02
1.505260240452e-02
1.505323996978e-02
1.505374599290e-02
1.505388008659e-02
1.505374599290e-02
1.505323996978e-02
1.505374599290e-02
1.505425657285e-02
1.505439301073e-02
1.505425657285e-02
1.505374599290e-02
1.505388008659e-02
1.505439301073e-02
1.505453207680e-02
1.505439301073e-02
1.505388008659e-02
1.505374599290e-02
1.505425657285e-02
1.505439301073e-02
1.505425657285e-02
1.505374599290e-02
1.505323996978e-02
1.505374599290e-02
1.505388008659e-02
1.505374599290e-02
1.505323996978e-02
1.505348836360e-02
1.505397927288e-02
1.505411001390e-02
1.505397927288e-02
1.505348836360e-02
1.505397927288e-02
1.505447248894e-02
1.505460534331e-02
1.505447248894e-02
1.505397927288e-02
1.505411001390e-02
1.505460534331e-02
1.505474176071e-02
1.505460534331e-02
1.505411001390e-02
1.505397927288e-02
1.505447248894e-02
1.505460534331e-02
1.505447248894e-02
1.505397927288e-02
1.505348836360e-02
1.505397927288e-02
1.505411001390e-02
1.505397927288e-02
1.505348836360e-02
CELL_DATA 128
SCALARS displacement_magnitude float 1
LOOKUP_TABLE default
0.000000000000e+00
0.000000000000e+00
0.000000000000e+00
0.000000000000e+00
0.000000000000e+00
0.000000000000e+00
0.000000000000e+00
0.000000000000e+00
0.000000000000e+00
0.000000000000e+00
0.000000000000e+00
0.000000000000e+00
0.000000000000e+00
0.000000000000e+00
0.000000000000e+00
0.000000000000e+00
0.000000000000e+00
0.000000000000e+00
0.000000000000e+00
0.000000000000e+00
0.000000000000e+00
0.000000000000e+00
0.000000000000e+00
0.000000000000e+00
0.000000000000e+00
0.000000000000e+00
0.000000000000e+00
0.000000000000e+00
0.000000000000e+00
0.000000000000e+00
0.000000000000e+00
0.000000000000e+00
0.000000000000e+00
0.000000000000e+00
0.000000000000e+00
0.000000000000e+00
0.000000000000e+00
0.000000000000e+00
0.000000000000e+00
0.000000000000e+00
0.000000000000e+00
0.000000000000e+00
0.000000000000e+00
0.000000000000e+00
0.000000000000e+00
0.000000000000e+00
0.000000000000e+00
0.000000000000e+00
0.000000000000e+00
0.000000000000e+00
0.000000000000e+00
0.000000000000e+00
0.000000000000e+00
0.000000000000e+00
0.000000000000e+00
0.000000000000e+00
0.000000000000e+00
0.000000000000e+00
0.000000000000e+00
0.000000000000e+00
0.000000000000e+00
0.000000000000e+00
0.000000000000e+00
0.000000000000e+00
1.505140981781e-02
1.505174908034e-02
1.505174908034e-02
1.505140981781e-02
1.505174908034e-02
1.505209468062e-02
1.505209468062e-02
1.505174908034e-02
1.505174908034e-02
1.505209468062e-02
1.505209468062e-02
1.505174908034e-02
1.505140981781e-02
1.505174908034e-02
1.505174908034e-02
1.505140981781e-02
1.505262244281e-02
1.505296169249e-02
1.505296169249e-02
1.505262244281e-02
1.505296169249e-02
1.505330633484e-02
1.505330633484e-02
1.505296169249e-02
1.505296169249e-02
1.505330633484e-02
1.505330633484e-02
1.505296169249e-02
1.505262244281e-02
1.505296169249e-02
1.505296169249e-02
1.505262244281e-02
1.505343776853e-02
1.505376683917e-02
1.505376683917e-02
1.505343776853e-02
1.505376683917e-02
1.505409967686e-02
1.505409967686e-02
1.505376683917e-02
1.505376683917e-02
1.505409967686e-02
1.505409967686e-02
1.505376683917e-02
1.505343776853e-02
1.505376683917e-02
1.505376683917e-02
1.505343776853e-02
1.505386349084e-02
1.505418034776e-02
1.505418034776e-02
1.505386349084e-02
1.505418034776e-02
1.505449995092e-02
1.505449995092e-02
1.505418034776e-02
1.505418034776e-02
1.505449995092e-02
1.505449995092e-02
1.505418034776e-02
1.505386349084e-02
1.505418034776e-02
1.505418034776e-02
1.505386349084e-02
SCALARS engineering_strain_norm float 1
LOOKUP_TABLE default
0.000000000000e+00
0.000000000000e+00
0.000000000000e+00
0.000000000000e+00
0.000000000000e+00
0.000000000000e+00
0.000000000000e+00
0.000000000000e+00
0.000000000000e+00
0.000000000000e+00
0.000000000000e+00
0.000000000000e+00
0.000000000000e+00
0.000000000000e+00
0.000000000000e+00
0.000000000000e+00
0.000000000000e+00
0.000000000000e+00
0.000000000000e+00
0.000000000000e+00
0.000000000000e+00
0.000000000000e+00
0.000000000000e+00
0.000000000000e+00
0.000000000000e+00
0.000000000000e+00
0.000000000000e+00
0.000000000000e+00
0.000000000000e+00
0.000000000000e+00
0.000000000000e+00
0.000000000000e+00
0.000000000000e+00
0.000000000000e+00
0.000000000000e+00
0.000000000000e+00
0.000000000000e+00
0.000000000000e+00
0.000000000000e+00
0.000000000000e+00
0.000000000000e+00
0.000000000000e+00
0.000000000000e+00
0.000000000000e+00
0.000000000000e+00
0.000000000000e+00
0.000000000000e+00
0.000000000000e+00
0.000000000000e+00
0.000000000000e+00
0.000000000000e+00
0.000000000000e+00
0.000000000000e+00
0.000000000000e+00
0.000000000000e+00
0.000000000000e+00
0.000000000000e+00
0.000000000000e+00
0.000000000000e+00
0.000000000000e+00
0.000000000000e+00
0.000000000000e+00
0.000000000000e+00
0.000000000000e+00
2.337925233729e-05
2.344294053945e-05
2.344294053941e-05
2.337925233722e-05
2.344294053952e-05
2.350198059569e-05
2.350198059572e-05
2.344294053945e-05
2.344294053947e-05
2.350198059572e-05
2.350198059571e-05
2.344294053942e-05
2.337925233720e-05
2.344294053941e-05
2.344294053947e-05
2.337925233717e-05
1.688992851277e-05
1.675002863885e-05
1.675002863879e-05
1.688992851264e-05
1.675002863895e-05
1.658340558880e-05
1.658340558877e-05
1.675002863886e-05
1.675002863889e-05
1.658340558879e-05
1.658340558877e-05
1.675002863884e-05
1.688992851269e-05
1.675002863879e-05
1.675002863878e-05
1.688992851264e-05
1.037921094766e-05
1.013436212997e-05
1.013436212999e-05
1.037921094767e-05
1.013436213002e-05
9.875362124252e-06
9.875362124264e-06
1.013436212999e-05
1.013436213003e-05
9.875362124224e-06
9.875362124265e-06
1.013436212994e-05
1.037921094768e-05
1.013436212993e-05
1.013436212989e-05
1.037921094764e-05
4.070643094007e-06
3.913327456502e-06
3.913327456492e-06
4.070643093978e-06
3.913327456452e-06
3.752012521477e-06
3.752012521442e-06
3.913327456414e-06
3.913327456457e-06
3.752012521470e-06
3.752012521466e-06
3.913327456473e-06
4.070643094026e-06
3.913327456442e-06
3.913327456414e-06
4.070643094021e-06
SCALARS von_mises float 1
LOOKUP_TABLE default
0.000000000000e+00
0.000000000000e+00
0.000000000000e+00
0.000000000000e+00
0.000000000000e+00
0.000000000000e+00
0.000000000000e+00
0.000000000000e+00
0.000000000000e+00
0.000000000000e+00
0.000000000000e+00
0.000000000000e+00
0.000000000000e+00
0.000000000000e+00
0.000000000000e+00
0.000000000000e+00
0.000000000000e+00
0.000000000000e+00
0.000000000000e+00
0.000000000000e+00
0.000000000000e+00
0.000000000000e+00
0.000000000000e+00
0.000000000000e+00
0.000000000000e+00
0.000000000000e+00
0.000000000000e+00
0.000000000000e+00
0.000000000000e+00
0.000000000000e+00
0.000000000000e+00
0.000000000000e+00
0.000000000000e+00
0.000000000000e+00
0.000000000000e+00
0.000000000000e+00
0.000000000000e+00
0.000000000000e+00
0.000000000000e+00
0.000000000000e+00
0.000000000000e+00
0.000000000000e+00
0.000000000000e+00
0.000000000000e+00
0.000000000000e+00
0.000000000000e+00
0.000000000000e+00
0.000000000000e+00
0.000000000000e+00
0.000000000000e+00
0.000000000000e+00
0.000000000000e+00
0.000000000000e+00
0.000000000000e+00
0.000000000000e+00
0.000000000000e+00
0.000000000000e+00
0.000000000000e+00
0.000000000000e+00
0.000000000000e+00
0.000000000000e+00
0.000000000000e+00
0.000000000000e+00
0.000000000000e+00
2.139771656010e+00
2.143711815350e+00
2.143711815347e+00
2.139771656003e+00
2.143711815357e+00
2.147255862712e+00
2.147255862715e+00
2.143711815351e+00
2.143711815352e+00
2.147255862714e+00
2.147255862714e+00
2.143711815349e+00
2.139771656001e+00
2.143711815347e+00
2.143711815353e+00
2.139771655999e+00
1.551803867389e+00
1.537283947807e+00
1.537283947802e+00
1.551803867378e+00
1.537283947815e+00
1.520563229341e+00
1.520563229339e+00
1.537283947808e+00
1.537283947811e+00
1.520563229341e+00
1.520563229340e+00
1.537283947807e+00
1.551803867382e+00
1.537283947802e+00
1.537283947801e+00
1.551803867378e+00
9.543675879868e-01
9.324011831296e-01
9.324011831314e-01
9.543675879880e-01
9.324011831340e-01
9.098943850056e-01
9.098943850068e-01
9.324011831318e-01
9.324011831355e-01
9.098943850035e-01
9.098943850069e-01
9.324011831275e-01
9.543675879879e-01
9.324011831261e-01
9.324011831228e-01
9.543675879853e-01
3.806191228298e-01
3.654240421955e-01
3.654240421952e-01
3.806191228276e-01
3.654240421913e-01
3.503681043662e-01
3.503681043629e-01
3.654240421876e-01
3.654240421918e-01
3.503681043652e-01
3.503681043645e-01
3.654240421925e-01
3.806191228318e-01
3.654240421903e-01
3.654240421872e-01
3.806191228310e-01
SCALARS sdf_gap float 1
LOOKUP_TABLE default
0.000000000000e+00
0.000000000000e+00
0.000000000000e+00
0.000000000000e+00
0.000000000000e+00
0.000000000000e+00
0.000000000000e+00
0.000000000000e+00
0.000000000000e+00
0.000000000000e+00
0.000000000000e+00
0.000000000000e+00
0.000000000000e+00
0.000000000000e+00
0.000000000000e+00
0.000000000000e+00
0.000000000000e+00
0.000000000000e+00
0.000000000000e+00
0.000000000000e+00
0.000000000000e+00
0.000000000000e+00
0.000000000000e+00
0.000000000000e+00
0.000000000000e+00
0.000000000000e+00
0.000000000000e+00
0.000000000000e+00
0.000000000000e+00
0.000000000000e+00
0.000000000000e+00
0.000000000000e+00
0.000000000000e+00
0.000000000000e+00
0.000000000000e+00
0.000000000000e+00
0.000000000000e+00
0.000000000000e+00
0.000000000000e+00
0.000000000000e+00
0.000000000000e+00
0.000000000000e+00
0.000000000000e+00
0.000000000000e+00
0.000000000000e+00
0.000000000000e+00
0.000000000000e+00
0.000000000000e+00
0.000000000000e+00
0.000000000000e+00
0.000000000000e+00
0.000000000000e+00
0.000000000000e+00
0.000000000000e+00
0.000000000000e+00
0.000000000000e+00
0.000000000000e+00
0.000000000000e+00
0.000000000000e+00
0.000000000000e+00
0.000000000000e+00
0.000000000000e+00
0.000000000000e+00
0.000000000000e+00
-5.070303911272e-05
-5.103946722432e-05
-5.103946722422e-05
-5.070303911238e-05
-5.103946722436e-05
-5.138235374222e-05
-5.138235374211e-05
-5.103946722409e-05
-5.103946722428e-05
-5.138235374216e-05
-5.138235374210e-05
-5.103946722408e-05
-5.070303911247e-05
-5.103946722415e-05
-5.103946722409e-05
-5.070303911230e-05
0.000000000000e+00
0.000000000000e+00
0.000000000000e+00
0.000000000000e+00
0.000000000000e+00
0.000000000000e+00
0.000000000000e+00
0.000000000000e+00
0.000000000000e+00
0.000000000000e+00
0.000000000000e+00
0.000000000000e+00
0.000000000000e+00
0.000000000000e+00
0.000000000000e+00
0.000000000000e+00
0.000000000000e+00
0.000000000000e+00
0.000000000000e+00
0.000000000000e+00
0.000000000000e+00
0.000000000000e+00
0.000000000000e+00
0.000000000000e+00
0.000000000000e+00
0.000000000000e+00
0.000000000000e+00
0.000000000000e+00
0.000000000000e+00
0.000000000000e+00
0.000000000000e+00
0.000000000000e+00
0.000000000000e+00
0.000000000000e+00
0.000000000000e+00
0.000000000000e+00
0.000000000000e+00
0.000000000000e+00
0.000000000000e+00
0.000000000000e+00
0.000000000000e+00
0.000000000000e+00
0.000000000000e+00
0.000000000000e+00
0.000000000000e+00
0.000000000000e+00
0.000000000000e+00
0.000000000000e+00
SCALARS contact_pressure float 1
LOOKUP_TABLE default
0.000000000000e+00
0.000000000000e+00
0.000000000000e+00
0.000000000000e+00
0.000000000000e+00
0.000000000000e+00
0.000000000000e+00
0.000000000000e+00
0.000000000000e+00
0.000000000000e+00
0.000000000000e+00
0.000000000000e+00
0.000000000000e+00
0.000000000000e+00
0.000000000000e+00
0.000000000000e+00
0.000000000000e+00
0.000000000000e+00
0.000000000000e+00
0.000000000000e+00
0.000000000000e+00
0.000000000000e+00
0.000000000000e+00
0.000000000000e+00
0.000000000000e+00
0.000000000000e+00
0.000000000000e+00
0.000000000000e+00
0.000000000000e+00
0.000000000000e+00
0.000000000000e+00
0.000000000000e+00
0.000000000000e+00
0.000000000000e+00
0.000000000000e+00
0.000000000000e+00
0.000000000000e+00
0.000000000000e+00
0.000000000000e+00
0.000000000000e+00
0.000000000000e+00
0.000000000000e+00
0.000000000000e+00
0.000000000000e+00
0.000000000000e+00
0.000000000000e+00
0.000000000000e+00
0.000000000000e+00
0.000000000000e+00
0.000000000000e+00
0.000000000000e+00
0.000000000000e+00
0.000000000000e+00
0.000000000000e+00
0.000000000000e+00
0.000000000000e+00
0.000000000000e+00
0.000000000000e+00
0.000000000000e+00
0.000000000000e+00
0.000000000000e+00
0.000000000000e+00
0.000000000000e+00
0.000000000000e+00
2.535151955636e+00
2.551973361216e+00
2.551973361211e+00
2.535151955619e+00
2.551973361218e+00
2.569117687111e+00
2.569117687105e+00
2.551973361205e+00
2.551973361214e+00
2.569117687108e+00
2.569117687105e+00
2.551973361204e+00
2.535151955624e+00
2.551973361207e+00
2.551973361205e+00
2.535151955615e+00
0.000000000000e+00
0.000000000000e+00
0.000000000000e+00
0.000000000000e+00
0.000000000000e+00
0.000000000000e+00
0.000000000000e+00
0.000000000000e+00
0.000000000000e+00
0.000000000000e+00
0.000000000000e+00
0.000000000000e+00
0.000000000000e+00
0.000000000000e+00
0.000000000000e+00
0.000000000000e+00
0.000000000000e+00
0.000000000000e+00
0.000000000000e+00
0.000000000000e+00
0.000000000000e+00
0.000000000000e+00
0.000000000000e+00
0.000000000000e+00
0.000000000000e+00
0.000000000000e+00
0.000000000000e+00
0.000000000000e+00
0.000000000000e+00
0.000000000000e+00
0.000000000000e+00
0.000000000000e+00
0.000000000000e+00
0.000000000000e+00
0.000000000000e+00
0.000000000000e+00
0.000000000000e+00
0.000000000000e+00
0.000000000000e+00
0.000000000000e+00
0.000000000000e+00
0.000000000000e+00
0.000000000000e+00
0.000000000000e+00
0.000000000000e+00
0.000000000000e+00
0.000000000000e+00
0.000000000000e+00
SCALARS active_contact float 1
LOOKUP_TABLE default
0.000000000000e+00
0.000000000000e+00
0.000000000000e+00
0.000000000000e+00
0.000000000000e+00
0.000000000000e+00
0.000000000000e+00
0.000000000000e+00
0.000000000000e+00
0.000000000000e+00
0.000000000000e+00
0.000000000000e+00
0.000000000000e+00
0.000000000000e+00
0.000000000000e+00
0.000000000000e+00
0.000000000000e+00
0.000000000000e+00
0.000000000000e+00
0.000000000000e+00
0.000000000000e+00
0.000000000000e+00
0.000000000000e+00
0.000000000000e+00
0.000000000000e+00
0.000000000000e+00
0.000000000000e+00
0.000000000000e+00
0.000000000000e+00
0.000000000000e+00
0.000000000000e+00
0.000000000000e+00
0.000000000000e+00
0.000000000000e+00
0.000000000000e+00
0.000000000000e+00
0.000000000000e+00
0.000000000000e+00
0.000000000000e+00
0.000000000000e+00
0.000000000000e+00
0.000000000000e+00
0.000000000000e+00
0.000000000000e+00
0.000000000000e+00
0.000000000000e+00
0.000000000000e+00
0.000000000000e+00
0.000000000000e+00
0.000000000000e+00
0.000000000000e+00
0.000000000000e+00
0.000000000000e+00
0.000000000000e+00
0.000000000000e+00
0.000000000000e+00
0.000000000000e+00
0.000000000000e+00
0.000000000000e+00
0.000000000000e+00
0.000000000000e+00
0.000000000000e+00
0.000000000000e+00
0.000000000000e+00
1.000000000000e+00
1.000000000000e+00
1.000000000000e+00
1.000000000000e+00
1.000000000000e+00
1.000000000000e+00
1.000000000000e+00
1.000000000000e+00
1.000000000000e+00
1.000000000000e+00
1.000000000000e+00
1.000000000000e+00
1.000000000000e+00
1.000000000000e+00
1.000000000000e+00
1.000000000000e+00
0.000000000000e+00
0.000000000000e+00
0.000000000000e+00
0.000000000000e+00
0.000000000000e+00
0.000000000000e+00
0.000000000000e+00
0.000000000000e+00
0.000000000000e+00
0.000000000000e+00
0.000000000000e+00
0.000000000000e+00
0.000000000000e+00
0.000000000000e+00
0.000000000000e+00
0.000000000000e+00
0.000000000000e+00
0.000000000000e+00
0.000000000000e+00
0.000000000000e+00
0.000000000000e+00
0.000000000000e+00
0.000000000000e+00
0.000000000000e+00
0.000000000000e+00
0.000000000000e+00
0.000000000000e+00
0.000000000000e+00
0.000000000000e+00
0.000000000000e+00
0.000000000000e+00
0.000000000000e+00
0.000000000000e+00
0.000000000000e+00
0.000000000000e+00
0.000000000000e+00
0.000000000000e+00
0.000000000000e+00
0.000000000000e+00
0.000000000000e+00
0.000000000000e+00
0.000000000000e+00
0.000000000000e+00
0.000000000000e+00
0.000000000000e+00
0.000000000000e+00
0.000000000000e+00
0.000000000000e+00
