# vtk DataFile Version 3.0
SFC long-time C3D8 dynamic frame 141 t=2.820000000000e+00
ASCII
DATASET UNSTRUCTURED_GRID
POINTS 250 float
-2.500000000000e-01 -2.500000000000e-01 0.000000000000e+00
-1.250000000000e-01 -2.500000000000e-01 0.000000000000e+00
0.000000000000e+00 -2.500000000000e-01 0.000000000000e+00
1.250000000000e-01 -2.500000000000e-01 0.000000000000e+00
2.500000000000e-01 -2.500000000000e-01 0.000000000000e+00
-2.500000000000e-01 -1.250000000000e-01 0.000000000000e+00
-1.250000000000e-01 -1.250000000000e-01 0.000000000000e+00
0.000000000000e+00 -1.250000000000e-01 0.000000000000e+00
1.250000000000e-01 -1.250000000000e-01 0.000000000000e+00
2.500000000000e-01 -1.250000000000e-01 0.000000000000e+00
-2.500000000000e-01 0.000000000000e+00 0.000000000000e+00
-1.250000000000e-01 0.000000000000e+00 0.000000000000e+00
0.000000000000e+00 0.000000000000e+00 0.000000000000e+00
1.250000000000e-01 0.000000000000e+00 0.000000000000e+00
2.500000000000e-01 0.000000000000e+00 0.000000000000e+00
-2.500000000000e-01 1.250000000000e-01 0.000000000000e+00
-1.250000000000e-01 1.250000000000e-01 0.000000000000e+00
0.000000000000e+00 1.250000000000e-01 0.000000000000e+00
1.250000000000e-01 1.250000000000e-01 0.000000000000e+00
2.500000000000e-01 1.250000000000e-01 0.000000000000e+00
-2.500000000000e-01 2.500000000000e-01 0.000000000000e+00
-1.250000000000e-01 2.500000000000e-01 0.000000000000e+00
0.000000000000e+00 2.500000000000e-01 0.000000000000e+00
1.250000000000e-01 2.500000000000e-01 0.000000000000e+00
2.500000000000e-01 2.500000000000e-01 0.000000000000e+00
-2.500000000000e-01 -2.500000000000e-01 6.000000000000e-02
-1.250000000000e-01 -2.500000000000e-01 6.000000000000e-02
0.000000000000e+00 -2.500000000000e-01 6.000000000000e-02
1.250000000000e-01 -2.500000000000e-01 6.000000000000e-02
2.500000000000e-01 -2.500000000000e-01 6.000000000000e-02
-2.500000000000e-01 -1.250000000000e-01 6.000000000000e-02
-1.250000000000e-01 -1.250000000000e-01 6.000000000000e-02
0.000000000000e+00 -1.250000000000e-01 6.000000000000e-02
1.250000000000e-01 -1.250000000000e-01 6.000000000000e-02
2.500000000000e-01 -1.250000000000e-01 6.000000000000e-02
-2.500000000000e-01 0.000000000000e+00 6.000000000000e-02
-1.250000000000e-01 0.000000000000e+00 6.000000000000e-02
0.000000000000e+00 0.000000000000e+00 6.000000000000e-02
1.250000000000e-01 0.000000000000e+00 6.000000000000e-02
2.500000000000e-01 0.000000000000e+00 6.000000000000e-02
-2.500000000000e-01 1.250000000000e-01 6.000000000000e-02
-1.250000000000e-01 1.250000000000e-01 6.000000000000e-02
0.000000000000e+00 1.250000000000e-01 6.000000000000e-02
1.250000000000e-01 1.250000000000e-01 6.000000000000e-02
2.500000000000e-01 1.250000000000e-01 6.000000000000e-02
-2.500000000000e-01 2.500000000000e-01 6.000000000000e-02
-1.250000000000e-01 2.500000000000e-01 6.000000000000e-02
0.000000000000e+00 2.500000000000e-01 6.000000000000e-02
1.250000000000e-01 2.500000000000e-01 6.000000000000e-02
2.500000000000e-01 2.500000000000e-01 6.000000000000e-02
-2.500000000000e-01 -2.500000000000e-01 1.200000000000e-01
-1.250000000000e-01 -2.500000000000e-01 1.200000000000e-01
0.000000000000e+00 -2.500000000000e-01 1.200000000000e-01
1.250000000000e-01 -2.500000000000e-01 1.200000000000e-01
2.500000000000e-01 -2.500000000000e-01 1.200000000000e-01
-2.500000000000e-01 -1.250000000000e-01 1.200000000000e-01
-1.250000000000e-01 -1.250000000000e-01 1.200000000000e-01
0.000000000000e+00 -1.250000000000e-01 1.200000000000e-01
1.250000000000e-01 -1.250000000000e-01 1.200000000000e-01
2.500000000000e-01 -1.250000000000e-01 1.200000000000e-01
-2.500000000000e-01 0.000000000000e+00 1.200000000000e-01
-1.250000000000e-01 0.000000000000e+00 1.200000000000e-01
0.000000000000e+00 0.000000000000e+00 1.200000000000e-01
1.250000000000e-01 0.000000000000e+00 1.200000000000e-01
2.500000000000e-01 0.000000000000e+00 1.200000000000e-01
-2.500000000000e-01 1.250000000000e-01 1.200000000000e-01
-1.250000000000e-01 1.250000000000e-01 1.200000000000e-01
0.000000000000e+00 1.250000000000e-01 1.200000000000e-01
1.250000000000e-01 1.250000000000e-01 1.200000000000e-01
2.500000000000e-01 1.250000000000e-01 1.200000000000e-01
-2.500000000000e-01 2.500000000000e-01 1.200000000000e-01
-1.250000000000e-01 2.500000000000e-01 1.200000000000e-01
0.000000000000e+00 2.500000000000e-01 1.200000000000e-01
1.250000000000e-01 2.500000000000e-01 1.200000000000e-01
2.500000000000e-01 2.500000000000e-01 1.200000000000e-01
-2.500000000000e-01 -2.500000000000e-01 1.800000000000e-01
-1.250000000000e-01 -2.500000000000e-01 1.800000000000e-01
0.000000000000e+00 -2.500000000000e-01 1.800000000000e-01
1.250000000000e-01 -2.500000000000e-01 1.800000000000e-01
2.500000000000e-01 -2.500000000000e-01 1.800000000000e-01
-2.500000000000e-01 -1.250000000000e-01 1.800000000000e-01
-1.250000000000e-01 -1.250000000000e-01 1.800000000000e-01
0.000000000000e+00 -1.250000000000e-01 1.800000000000e-01
1.250000000000e-01 -1.250000000000e-01 1.800000000000e-01
2.500000000000e-01 -1.250000000000e-01 1.800000000000e-01
-2.500000000000e-01 0.000000000000e+00 1.800000000000e-01
-1.250000000000e-01 0.000000000000e+00 1.800000000000e-01
0.000000000000e+00 0.000000000000e+00 1.800000000000e-01
1.250000000000e-01 0.000000000000e+00 1.800000000000e-01
2.500000000000e-01 0.000000000000e+00 1.800000000000e-01
-2.500000000000e-01 1.250000000000e-01 1.800000000000e-01
-1.250000000000e-01 1.250000000000e-01 1.800000000000e-01
0.000000000000e+00 1.250000000000e-01 1.800000000000e-01
1.250000000000e-01 1.250000000000e-01 1.800000000000e-01
2.500000000000e-01 1.250000000000e-01 1.800000000000e-01
-2.500000000000e-01 2.500000000000e-01 1.800000000000e-01
-1.250000000000e-01 2.500000000000e-01 1.800000000000e-01
0.000000000000e+00 2.500000000000e-01 1.800000000000e-01
1.250000000000e-01 2.500000000000e-01 1.800000000000e-01
2.500000000000e-01 2.500000000000e-01 1.800000000000e-01
-2.500000000000e-01 -2.500000000000e-01 2.400000000000e-01
-1.250000000000e-01 -2.500000000000e-01 2.400000000000e-01
0.000000000000e+00 -2.500000000000e-01 2.400000000000e-01
1.250000000000e-01 -2.500000000000e-01 2.400000000000e-01
2.500000000000e-01 -2.500000000000e-01 2.400000000000e-01
-2.500000000000e-01 -1.250000000000e-01 2.400000000000e-01
-1.250000000000e-01 -1.250000000000e-01 2.400000000000e-01
0.000000000000e+00 -1.250000000000e-01 2.400000000000e-01
1.250000000000e-01 -1.250000000000e-01 2.400000000000e-01
2.500000000000e-01 -1.250000000000e-01 2.400000000000e-01
-2.500000000000e-01 0.000000000000e+00 2.400000000000e-01
-1.250000000000e-01 0.000000000000e+00 2.400000000000e-01
0.000000000000e+00 0.000000000000e+00 2.400000000000e-01
1.250000000000e-01 0.000000000000e+00 2.400000000000e-01
2.500000000000e-01 0.000000000000e+00 2.400000000000e-01
-2.500000000000e-01 1.250000000000e-01 2.400000000000e-01
-1.250000000000e-01 1.250000000000e-01 2.400000000000e-01
0.000000000000e+00 1.250000000000e-01 2.400000000000e-01
1.250000000000e-01 1.250000000000e-01 2.400000000000e-01
2.500000000000e-01 1.250000000000e-01 2.400000000000e-01
-2.500000000000e-01 2.500000000000e-01 2.400000000000e-01
-1.250000000000e-01 2.500000000000e-01 2.400000000000e-01
0.000000000000e+00 2.500000000000e-01 2.400000000000e-01
1.250000000000e-01 2.500000000000e-01 2.400000000000e-01
2.500000000000e-01 2.500000000000e-01 2.400000000000e-01
-2.500017933506e-01 -2.500017933507e-01 2.399498735101e-01
-1.250009152235e-01 -2.500017937120e-01 2.399493781703e-01
3.700922362021e-14 -2.500017815108e-01 2.399492135982e-01
1.250009152235e-01 -2.500017937120e-01 2.399493781703e-01
2.500017933507e-01 -2.500017933507e-01 2.399498735101e-01
-2.500017937119e-01 -1.250009152235e-01 2.399493781703e-01
-1.250009130801e-01 -1.250009130802e-01 2.399488845540e-01
3.597821790855e-14 -1.250009041491e-01 2.399487207408e-01
1.250009130802e-01 -1.250009130802e-01 2.399488845540e-01
2.500017937120e-01 -1.250009152235e-01 2.399493781703e-01
-2.500017815108e-01 -4.657649169467e-14 2.399492135982e-01
-1.250009041490e-01 -4.555229903590e-14 2.399487207408e-01
3.494758119013e-14 -4.453603015273e-14 2.399485561379e-01
1.250009041491e-01 -4.351603163616e-14 2.399487207408e-01
2.500017815108e-01 -4.249432713184e-14 2.399492135982e-01
-2.500017937119e-01 1.250009152235e-01 2.399493781703e-01
-1.250009130801e-01 1.250009130801e-01 2.399488845540e-01
3.391615215631e-14 1.250009041490e-01 2.399487207408e-01
1.250009130802e-01 1.250009130801e-01 2.399488845540e-01
2.500017937120e-01 1.250009152235e-01 2.399493781703e-01
-2.500017933506e-01 2.500017933506e-01 2.399498735101e-01
-1.250009152235e-01 2.500017937119e-01 2.399493781703e-01
3.289538215444e-14 2.500017815108e-01 2.399492135982e-01
1.250009152235e-01 2.500017937119e-01 2.399493781703e-01
2.500017933507e-01 2.500017933506e-01 2.399498735101e-01
-2.500014675282e-01 -2.500014675283e-01 3.049484713562e-01
-1.250007380673e-01 -2.500014707094e-01 3.049479518815e-01
3.701939443637e-14 -2.500014610605e-01 3.049477828791e-01
1.250007380674e-01 -2.500014707094e-01 3.049479518815e-01
2.500014675283e-01 -2.500014675283e-01 3.049484713562e-01
-2.500014707094e-01 -1.250007380674e-01 3.049479518815e-01
-1.250007362470e-01 -1.250007362471e-01 3.049474336412e-01
3.599341067115e-14 -1.250007274412e-01 3.049472668742e-01
1.250007362471e-01 -1.250007362471e-01 3.049474336412e-01
2.500014707094e-01 -1.250007380674e-01 3.049479518815e-01
-2.500014610605e-01 -4.657311773932e-14 3.049477828791e-01
-1.250007274411e-01 -4.555201475194e-14 3.049472668742e-01
3.496576942368e-14 -4.452964041477e-14 3.049471019640e-01
1.250007274412e-01 -4.351091861174e-14 3.049472668742e-01
2.500014610605e-01 -4.248408422468e-14 3.049477828791e-01
-2.500014707094e-01 1.250007380673e-01 3.049479518815e-01
-1.250007362470e-01 1.250007362470e-01 3.049474336412e-01
3.393732518446e-14 1.250007274411e-01 3.049472668742e-01
1.250007362471e-01 1.250007362470e-01 3.049474336412e-01
2.500014707094e-01 1.250007380673e-01 3.049479518815e-01
-2.500014675282e-01 2.500014675282e-01 3.049484713562e-01
-1.250007380673e-01 2.500014707093e-01 3.049479518815e-01
3.292041526603e-14 2.500014610604e-01 3.049477828791e-01
1.250007380674e-01 2.500014707094e-01 3.049479518815e-01
2.500014675283e-01 2.500014675282e-01 3.049484713562e-01
-2.500010655695e-01 -2.500010655696e-01 3.699474374025e-01
-1.250005535564e-01 -2.500010624427e-01 3.699468903890e-01
3.703811580355e-14 -2.500010493359e-01 3.699467135788e-01
1.250005535565e-01 -2.500010624427e-01 3.699468903890e-01
2.500010655695e-01 -2.500010655695e-01 3.699474374025e-01
-2.500010624427e-01 -1.250005535565e-01 3.699468903890e-01
-1.250005521813e-01 -1.250005521814e-01 3.699463420440e-01
3.601270488817e-14 -1.250005422359e-01 3.699461675117e-01
1.250005521814e-01 -1.250005521814e-01 3.699463420440e-01
2.500010624427e-01 -1.250005535565e-01 3.699468903890e-01
-2.500010493358e-01 -4.657097711314e-14 3.699467135788e-01
-1.250005422358e-01 -4.554644463685e-14 3.699461675117e-01
3.498565011500e-14 -4.452284305223e-14 3.699459968706e-01
1.250005422359e-01 -4.349746714184e-14 3.699461675117e-01
2.500010493359e-01 -4.247840345550e-14 3.699467135788e-01
-2.500010624427e-01 1.250005535564e-01 3.699468903890e-01
-1.250005521813e-01 1.250005521813e-01 3.699463420440e-01
3.396432129582e-14 1.250005422358e-01 3.699461675117e-01
1.250005521814e-01 1.250005521813e-01 3.699463420440e-01
2.500010624427e-01 1.250005535564e-01 3.699468903890e-01
-2.500010655695e-01 2.500010655695e-01 3.699474374025e-01
-1.250005535564e-01 2.500010624427e-01 3.699468903890e-01
3.294086463084e-14 2.500010493358e-01 3.699467135788e-01
1.250005535565e-01 2.500010624427e-01 3.699468903890e-01
2.500010655695e-01 2.500010655695e-01 3.699474374025e-01
-2.500006427079e-01 -2.500006427080e-01 4.349467924021e-01
-1.250003577031e-01 -2.500006301444e-01 4.349462283306e-01
3.705415738855e-14 -2.500006101579e-01 4.349460292033e-01
1.250003577032e-01 -2.500006301444e-01 4.349462283306e-01
2.500006427079e-01 -2.500006427079e-01 4.349467924021e-01
-2.500006301443e-01 -1.250003577032e-01 4.349462283306e-01
-1.250003563730e-01 -1.250003563730e-01 4.349456615997e-01
3.602759757818e-14 -1.250003440738e-01 4.349454634607e-01
1.250003563730e-01 -1.250003563730e-01 4.349456615997e-01
2.500006301444e-01 -1.250003577032e-01 4.349462283306e-01
-2.500006101578e-01 -4.656648699166e-14 4.349460292033e-01
-1.250003440737e-01 -4.554735926310e-14 4.349454634607e-01
3.500304028511e-14 -4.451637543181e-14 4.349452688055e-01
1.250003440737e-01 -4.348865635345e-14 4.349454634607e-01
2.500006101578e-01 -4.246884941774e-14 4.349460292033e-01
-2.500006301443e-01 1.250003577031e-01 4.349462283306e-01
-1.250003563730e-01 1.250003563729e-01 4.349456615997e-01
3.398958406245e-14 1.250003440737e-01 4.349454634607e-01
1.250003563730e-01 1.250003563729e-01 4.349456615997e-01
2.500006301444e-01 1.250003577031e-01 4.349462283306e-01
-2.500006427079e-01 2.500006427079e-01 4.349467924021e-01
-1.250003577031e-01 2.500006301443e-01 4.349462283306e-01
3.296139269854e-14 2.500006101578e-01 4.349460292033e-01
1.250003577032e-01 2.500006301443e-01 4.349462283306e-01
2.500006427079e-01 2.500006427079e-01 4.349467924021e-01
-2.500002749568e-01 -2.500002749569e-01 4.999465438263e-01
-1.250001501421e-01 -2.500002616781e-01 4.999459743205e-01
3.705880694707e-14 -2.500002414091e-01 4.999457594553e-01
1.250001501422e-01 -2.500002616781e-01 4.999459743205e-01
2.500002749569e-01 -2.500002749569e-01 4.999465438263e-01
-2.500002616780e-01 -1.250001501422e-01 4.999459743205e-01
-1.250001477601e-01 -1.250001477602e-01 4.999454007095e-01
3.603665320096e-14 -1.250001347000e-01 4.999451858201e-01
1.250001477601e-01 -1.250001477602e-01 4.999454007095e-01
2.500002616781e-01 -1.250001501422e-01 4.999459743205e-01
-2.500002414090e-01 -4.657293263320e-14 4.999457594553e-01
-1.250001346999e-01 -4.554710510143e-14 4.999451858201e-01
3.501936021230e-14 -4.451248478996e-14 4.999449745064e-01
1.250001347000e-01 -4.348153149004e-14 4.999451858201e-01
2.500002414091e-01 -4.245872138496e-14 4.999457594553e-01
-2.500002616780e-01 1.250001501421e-01 4.999459743205e-01
-1.250001477601e-01 1.250001477601e-01 4.999454007095e-01
3.400629737389e-14 1.250001346999e-01 4.999451858201e-01
1.250001477601e-01 1.250001477601e-01 4.999454007095e-01
2.500002616781e-01 1.250001501421e-01 4.999459743205e-01
-2.500002749568e-01 2.500002749568e-01 4.999465438263e-01
-1.250001501421e-01 2.500002616780e-01 4.999459743205e-01
3.298300798756e-14 2.500002414090e-01 4.999457594553e-01
1.250001501422e-01 2.500002616780e-01 4.999459743205e-01
2.500002749569e-01 2.500002749568e-01 4.999465438263e-01
CELLS 128 1152
8 0 1 6 5 25 26 31 30
8 1 2 7 6 26 27 32 31
8 2 3 8 7 27 28 33 32
8 3 4 9 8 28 29 34 33
8 5 6 11 10 30 31 36 35
8 6 7 12 11 31 32 37 36
8 7 8 13 12 32 33 38 37
8 8 9 14 13 33 34 39 38
8 10 11 16 15 35 36 41 40
8 11 12 17 16 36 37 42 41
8 12 13 18 17 37 38 43 42
8 13 14 19 18 38 39 44 43
8 15 16 21 20 40 41 46 45
8 16 17 22 21 41 42 47 46
8 17 18 23 22 42 43 48 47
8 18 19 24 23 43 44 49 48
8 25 26 31 30 50 51 56 55
8 26 27 32 31 51 52 57 56
8 27 28 33 32 52 53 58 57
8 28 29 34 33 53 54 59 58
8 30 31 36 35 55 56 61 60
8 31 32 37 36 56 57 62 61
8 32 33 38 37 57 58 63 62
8 33 34 39 38 58 59 64 63
8 35 36 41 40 60 61 66 65
8 36 37 42 41 61 62 67 66
8 37 38 43 42 62 63 68 67
8 38 39 44 43 63 64 69 68
8 40 41 46 45 65 66 71 70
8 41 42 47 46 66 67 72 71
8 42 43 48 47 67 68 73 72
8 43 44 49 48 68 69 74 73
8 50 51 56 55 75 76 81 80
8 51 52 57 56 76 77 82 81
8 52 53 58 57 77 78 83 82
8 53 54 59 58 78 79 84 83
8 55 56 61 60 80 81 86 85
8 56 57 62 61 81 82 87 86
8 57 58 63 62 82 83 88 87
8 58 59 64 63 83 84 89 88
8 60 61 66 65 85 86 91 90
8 61 62 67 66 86 87 92 91
8 62 63 68 67 87 88 93 92
8 63 64 69 68 88 89 94 93
8 65 66 71 70 90 91 96 95
8 66 67 72 71 91 92 97 96
8 67 68 73 72 92 93 98 97
8 68 69 74 73 93 94 99 98
8 75 76 81 80 100 101 106 105
8 76 77 82 81 101 102 107 106
8 77 78 83 82 102 103 108 107
8 78 79 84 83 103 104 109 108
8 80 81 86 85 105 106 111 110
8 81 82 87 86 106 107 112 111
8 82 83 88 87 107 108 113 112
8 83 84 89 88 108 109 114 113
8 85 86 91 90 110 111 116 115
8 86 87 92 91 111 112 117 116
8 87 88 93 92 112 113 118 117
8 88 89 94 93 113 114 119 118
8 90 91 96 95 115 116 121 120
8 91 92 97 96 116 117 122 121
8 92 93 98 97 117 118 123 122
8 93 94 99 98 118 119 124 123
8 125 126 131 130 150 151 156 155
8 126 127 132 131 151 152 157 156
8 127 128 133 132 152 153 158 157
8 128 129 134 133 153 154 159 158
8 130 131 136 135 155 156 161 160
8 131 132 137 136 156 157 162 161
8 132 133 138 137 157 158 163 162
8 133 134 139 138 158 159 164 163
8 135 136 141 140 160 161 166 165
8 136 137 142 141 161 162 167 166
8 137 138 143 142 162 163 168 167
8 138 139 144 143 163 164 169 168
8 140 141 146 145 165 166 171 170
8 141 142 147 146 166 167 172 171
8 142 143 148 147 167 168 173 172
8 143 144 149 148 168 169 174 173
8 150 151 156 155 175 176 181 180
8 151 152 157 156 176 177 182 181
8 152 153 158 157 177 178 183 182
8 153 154 159 158 178 179 184 183
8 155 156 161 160 180 181 186 185
8 156 157 162 161 181 182 187 186
8 157 158 163 162 182 183 188 187
8 158 159 164 163 183 184 189 188
8 160 161 166 165 185 186 191 190
8 161 162 167 166 186 187 192 191
8 162 163 168 167 187 188 193 192
8 163 164 169 168 188 189 194 193
8 165 166 171 170 190 191 196 195
8 166 167 172 171 191 192 197 196
8 167 168 173 172 192 193 198 197
8 168 169 174 173 193 194 199 198
8 175 176 181 180 200 201 206 205
8 176 177 182 181 201 202 207 206
8 177 178 183 182 202 203 208 207
8 178 179 184 183 203 204 209 208
8 180 181 186 185 205 206 211 210
8 181 182 187 186 206 207 212 211
8 182 183 188 187 207 208 213 212
8 183 184 189 188 208 209 214 213
8 185 186 191 190 210 211 216 215
8 186 187 192 191 211 212 217 216
8 187 188 193 192 212 213 218 217
8 188 189 194 193 213 214 219 218
8 190 191 196 195 215 216 221 220
8 191 192 197 196 216 217 222 221
8 192 193 198 197 217 218 223 222
8 193 194 199 198 218 219 224 223
8 200 201 206 205 225 226 231 230
8 201 202 207 206 226 227 232 231
8 202 203 208 207 227 228 233 232
8 203 204 209 208 228 229 234 233
8 205 206 211 210 230 231 236 235
8 206 207 212 211 231 232 237 236
8 207 208 213 212 232 233 238 237
8 208 209 214 213 233 234 239 238
8 210 211 216 215 235 236 241 240
8 211 212 217 216 236 237 242 241
8 212 213 218 217 237 238 243 242
8 213 214 219 218 238 239 244 243
8 215 216 221 220 240 241 246 245
8 216 217 222 221 241 242 247 246
8 217 218 223 222 242 243 248 247
8 218 219 224 223 243 244 249 248
CELL_TYPES 128
12
12
12
12
12
12
12
12
12
12
12
12
12
12
12
12
12
12
12
12
12
12
12
12
12
12
12
12
12
12
12
12
12
12
12
12
12
12
12
12
12
12
12
12
12
12
12
12
12
12
12
12
12
12
12
12
12
12
12
12
12
12
12
12
12
12
12
12
12
12
12
12
12
12
12
12
12
12
12
12
12
12
12
12
12
12
12
12
12
12
12
12
12
12
12
12
12
12
12
12
12
12
12
12
12
12
12
12
12
12
12
12
12
12
12
12
12
12
12
12
12
12
12
12
12
12
12
12
POINT_DATA 250
VECTORS displacement float
0.000000000000e+00 0.000000000000e+00 0.000000000000e+00
0.000000000000e+00 0.000000000000e+00 0.000000000000e+00
0.000000000000e+00 0.000000000000e+00 0.000000000000e+00
0.000000000000e+00 0.000000000000e+00 0.000000000000e+00
0.000000000000e+00 0.000000000000e+00 0.000000000000e+00
0.000000000000e+00 0.000000000000e+00 0.000000000000e+00
0.000000000000e+00 0.000000000000e+00 0.000000000000e+00
0.000000000000e+00 0.000000000000e+00 0.000000000000e+00
0.000000000000e+00 0.000000000000e+00 0.000000000000e+00
0.000000000000e+00 0.000000000000e+00 0.000000000000e+00
0.000000000000e+00 0.000000000000e+00 0.000000000000e+00
0.000000000000e+00 0.000000000000e+00 0.000000000000e+00
0.000000000000e+00 0.000000000000e+00 0.000000000000e+00
0.000000000000e+00 0.000000000000e+00 0.000000000000e+00
0.000000000000e+00 0.000000000000e+00 0.000000000000e+00
0.000000000000e+00 0.000000000000e+00 0.000000000000e+00
0.000000000000e+00 0.000000000000e+00 0.000000000000e+00
0.000000000000e+00 0.000000000000e+00 0.000000000000e+00
0.000000000000e+00 0.000000000000e+00 0.000000000000e+00
0.000000000000e+00 0.000000000000e+00 0.000000000000e+00
0.000000000000e+00 0.000000000000e+00 0.000000000000e+00
0.000000000000e+00 0.000000000000e+00 0.000000000000e+00
0.000000000000e+00 0.000000000000e+00 0.000000000000e+00
0.000000000000e+00 0.000000000000e+00 0.000000000000e+00
0.000000000000e+00 0.000000000000e+00 0.000000000000e+00
0.000000000000e+00 0.000000000000e+00 0.000000000000e+00
0.000000000000e+00 0.000000000000e+00 0.000000000000e+00
0.000000000000e+00 0.000000000000e+00 0.000000000000e+00
0.000000000000e+00 0.000000000000e+00 0.000000000000e+00
0.000000000000e+00 0.000000000000e+00 0.000000000000e+00
0.000000000000e+00 0.000000000000e+00 0.000000000000e+00
0.000000000000e+00 0.000000000000e+00 0.000000000000e+00
0.000000000000e+00 0.000000000000e+00 0.000000000000e+00
0.000000000000e+00 0.000000000000e+00 0.000000000000e+00
0.000000000000e+00 0.000000000000e+00 0.000000000000e+00
0.000000000000e+00 0.000000000000e+00 0.000000000000e+00
0.000000000000e+00 0.000000000000e+00 0.000000000000e+00
0.000000000000e+00 0.000000000000e+00 0.000000000000e+00
0.000000000000e+00 0.000000000000e+00 0.000000000000e+00
0.000000000000e+00 0.000000000000e+00 0.000000000000e+00
0.000000000000e+00 0.000000000000e+00 0.000000000000e+00
0.000000000000e+00 0.000000000000e+00 0.000000000000e+00
0.000000000000e+00 0.000000000000e+00 0.000000000000e+00
0.000000000000e+00 0.000000000000e+00 0.000000000000e+00
0.000000000000e+00 0.000000000000e+00 0.000000000000e+00
0.000000000000e+00 0.000000000000e+00 0.000000000000e+00
0.000000000000e+00 0.000000000000e+00 0.000000000000e+00
0.000000000000e+00 0.000000000000e+00 0.000000000000e+00
0.000000000000e+00 0.000000000000e+00 0.000000000000e+00
0.000000000000e+00 0.000000000000e+00 0.000000000000e+00
0.000000000000e+00 0.000000000000e+00 0.000000000000e+00
0.000000000000e+00 0.000000000000e+00 0.000000000000e+00
0.000000000000e+00 0.000000000000e+00 0.000000000000e+00
0.000000000000e+00 0.000000000000e+00 0.000000000000e+00
0.000000000000e+00 0.000000000000e+00 0.000000000000e+00
0.000000000000e+00 0.000000000000e+00 0.000000000000e+00
0.000000000000e+00 0.000000000000e+00 0.000000000000e+00
0.000000000000e+00 0.000000000000e+00 0.000000000000e+00
0.000000000000e+00 0.000000000000e+00 0.000000000000e+00
0.000000000000e+00 0.000000000000e+00 0.000000000000e+00
0.000000000000e+00 0.000000000000e+00 0.000000000000e+00
0.000000000000e+00 0.000000000000e+00 0.000000000000e+00
0.000000000000e+00 0.000000000000e+00 0.000000000000e+00
0.000000000000e+00 0.000000000000e+00 0.000000000000e+00
0.000000000000e+00 0.000000000000e+00 0.000000000000e+00
0.000000000000e+00 0.000000000000e+00 0.000000000000e+00
0.000000000000e+00 0.000000000000e+00 0.000000000000e+00
0.000000000000e+00 0.000000000000e+00 0.000000000000e+00
0.000000000000e+00 0.000000000000e+00 0.000000000000e+00
0.000000000000e+00 0.000000000000e+00 0.000000000000e+00
0.000000000000e+00 0.000000000000e+00 0.000000000000e+00
0.000000000000e+00 0.000000000000e+00 0.000000000000e+00
0.000000000000e+00 0.000000000000e+00 0.000000000000e+00
0.000000000000e+00 0.000000000000e+00 0.000000000000e+00
0.000000000000e+00 0.000000000000e+00 0.000000000000e+00
0.000000000000e+00 0.000000000000e+00 0.000000000000e+00
0.000000000000e+00 0.000000000000e+00 0.000000000000e+00
0.000000000000e+00 0.000000000000e+00 0.000000000000e+00
0.000000000000e+00 0.000000000000e+00 0.000000000000e+00
0.000000000000e+00 0.000000000000e+00 0.000000000000e+00
0.000000000000e+00 0.000000000000e+00 0.000000000000e+00
0.000000000000e+00 0.000000000000e+00 0.000000000000e+00
0.000000000000e+00 0.000000000000e+00 0.000000000000e+00
0.000000000000e+00 0.000000000000e+00 0.000000000000e+00
0.000000000000e+00 0.000000000000e+00 0.000000000000e+00
0.000000000000e+00 0.000000000000e+00 0.000000000000e+00
0.000000000000e+00 0.000000000000e+00 0.000000000000e+00
0.000000000000e+00 0.000000000000e+00 0.000000000000e+00
0.000000000000e+00 0.000000000000e+00 0.000000000000e+00
0.000000000000e+00 0.000000000000e+00 0.000000000000e+00
0.000000000000e+00 0.000000000000e+00 0.000000000000e+00
0.000000000000e+00 0.000000000000e+00 0.000000000000e+00
0.000000000000e+00 0.000000000000e+00 0.000000000000e+00
0.000000000000e+00 0.000000000000e+00 0.000000000000e+00
0.000000000000e+00 0.000000000000e+00 0.000000000000e+00
0.000000000000e+00 0.000000000000e+00 0.000000000000e+00
0.000000000000e+00 0.000000000000e+00 0.000000000000e+00
0.000000000000e+00 0.000000000000e+00 0.000000000000e+00
0.000000000000e+00 0.000000000000e+00 0.000000000000e+00
0.000000000000e+00 0.000000000000e+00 0.000000000000e+00
0.000000000000e+00 0.000000000000e+00 0.000000000000e+00
0.000000000000e+00 0.000000000000e+00 0.000000000000e+00
0.000000000000e+00 0.000000000000e+00 0.000000000000e+00
0.000000000000e+00 0.000000000000e+00 0.000000000000e+00
0.000000000000e+00 0.000000000000e+00 0.000000000000e+00
0.000000000000e+00 0.000000000000e+00 0.000000000000e+00
0.000000000000e+00 0.000000000000e+00 0.000000000000e+00
0.000000000000e+00 0.000000000000e+00 0.000000000000e+00
0.000000000000e+00 0.000000000000e+00 0.000000000000e+00
0.000000000000e+00 0.000000000000e+00 0.000000000000e+00
0.000000000000e+00 0.000000000000e+00 0.000000000000e+00
0.000000000000e+00 0.000000000000e+00 0.000000000000e+00
0.000000000000e+00 0.000000000000e+00 0.000000000000e+00
0.000000000000e+00 0.000000000000e+00 0.000000000000e+00
0.000000000000e+00 0.000000000000e+00 0.000000000000e+00
0.000000000000e+00 0.000000000000e+00 0.000000000000e+00
0.000000000000e+00 0.000000000000e+00 0.000000000000e+00
0.000000000000e+00 0.000000000000e+00 0.000000000000e+00
0.000000000000e+00 0.000000000000e+00 0.000000000000e+00
0.000000000000e+00 0.000000000000e+00 0.000000000000e+00
0.000000000000e+00 0.000000000000e+00 0.000000000000e+00
0.000000000000e+00 0.000000000000e+00 0.000000000000e+00
0.000000000000e+00 0.000000000000e+00 0.000000000000e+00
0.000000000000e+00 0.000000000000e+00 0.000000000000e+00
0.000000000000e+00 0.000000000000e+00 0.000000000000e+00
-1.793350594117e-06 -1.793350677673e-06 -1.505012648993e-02
-9.152234615646e-07 -1.793711969075e-06 -1.505062182969e-02
3.700922362021e-14 -1.781510845485e-06 -1.505078640185e-02
9.152235355684e-07 -1.793711967038e-06 -1.505062182969e-02
1.793350668103e-06 -1.793350673585e-06 -1.505012648993e-02
-1.793711887586e-06 -9.152235451307e-07 -1.505062182969e-02
-9.130801309044e-07 -9.130802124154e-07 -1.505111544597e-02
3.597821790855e-14 -9.041491029615e-07 -1.505127925925e-02
9.130802028499e-07 -9.130802103738e-07 -1.505111544597e-02
1.793711959511e-06 -9.152235410379e-07 -1.505062182969e-02
-1.781510766040e-06 -4.657649169467e-14 -1.505078640185e-02
-9.041490235053e-07 -4.555229903590e-14 -1.505127925925e-02
3.494758119013e-14 -4.453603015273e-14 -1.505144386213e-02
9.041490933904e-07 -4.351603163616e-14 -1.505127925925e-02
1.781510835924e-06 -4.249432713184e-14 -1.505078640185e-02
-1.793711889631e-06 9.152234519768e-07 -1.505062182969e-02
-9.130801329587e-07 9.130801213084e-07 -1.505111544597e-02
3.391615215631e-14 9.041490138960e-07 -1.505127925925e-02
9.130802007914e-07 9.130801233393e-07 -1.505111544597e-02
1.793711957465e-06 9.152234560407e-07 -1.505062182969e-02
-1.793350598206e-06 1.793350584511e-06 -1.505012648993e-02
-9.152234656646e-07 1.793711877971e-06 -1.505062182969e-02
3.289538215444e-14 1.781510756430e-06 -1.505078640185e-02
9.152235314521e-07 1.793711880001e-06 -1.505062182969e-02
1.793350664000e-06 1.793350588579e-06 -1.505012648993e-02
-1.467528245619e-06 -1.467528329210e-06 -1.505152864380e-02
-7.380672903670e-07 -1.470709439930e-06 -1.505204811849e-02
3.701939443637e-14 -1.461060533908e-06 -1.505221712087e-02
7.380673644063e-07 -1.470709437882e-06 -1.505204811849e-02
1.467528319653e-06 -1.467528325107e-06 -1.505152864380e-02
-1.470709358401e-06 -7.380673739592e-07 -1.505204811849e-02
-7.362470380063e-07 -7.362471195449e-07 -1.505256635876e-02
3.599341067115e-14 -7.274411688473e-07 -1.505273312583e-02
7.362471099896e-07 -7.362471174956e-07 -1.505256635876e-02
1.470709430377e-06 -7.380673698629e-07 -1.505204811849e-02
-1.461060454434e-06 -4.657311773932e-14 -1.505221712087e-02
-7.274410893644e-07 -4.555201475194e-14 -1.505273312583e-02
3.496576942368e-14 -4.452964041477e-14 -1.505289803596e-02
7.274411592892e-07 -4.351091861174e-14 -1.505273312583e-02
1.461060524359e-06 -4.248408422468e-14 -1.505221712087e-02
-1.470709360451e-06 7.380672808093e-07 -1.505204811849e-02
-7.362470400584e-07 7.362470284438e-07 -1.505256635876e-02
3.393732518446e-14 7.274410797864e-07 -1.505273312583e-02
7.362471079377e-07 7.362470304830e-07 -1.505256635876e-02
1.470709428329e-06 7.380672848859e-07 -1.505204811849e-02
-1.467528249715e-06 1.467528236061e-06 -1.505152864380e-02
-7.380672944692e-07 1.470709348822e-06 -1.505204811849e-02
3.292041526603e-14 1.461060444856e-06 -1.505221712087e-02
7.380673603022e-07 1.470709350869e-06 -1.505204811849e-02
1.467528315550e-06 1.467528240131e-06 -1.505152864380e-02
-1.065569467496e-06 -1.065569551114e-06 -1.505256259750e-02
-5.535564285228e-07 -1.062442742211e-06 -1.505310961102e-02
3.703811580355e-14 -1.049335865281e-06 -1.505328642115e-02
5.535565025984e-07 -1.062442740155e-06 -1.505310961102e-02
1.065569541570e-06 -1.065569547005e-06 -1.505256259750e-02
-1.062442660650e-06 -5.535565121360e-07 -1.505310961102e-02
-5.521813227081e-07 -5.521814042670e-07 -1.505365795597e-02
3.601270488817e-14 -5.422358909540e-07 -1.505383248832e-02
5.521813947289e-07 -5.521814022166e-07 -1.505365795597e-02
1.062442732663e-06 -5.535565080348e-07 -1.505310961102e-02
-1.049335785776e-06 -4.657097711314e-14 -1.505328642115e-02
-5.422358114486e-07 -4.554644463685e-14 -1.505383248832e-02
3.498565011500e-14 -4.452284305223e-14 -1.505400312944e-02
5.422358814159e-07 -4.349746714184e-14 -1.505383248832e-02
1.049335855741e-06 -4.247840345550e-14 -1.505328642115e-02
-1.062442662698e-06 5.535564189941e-07 -1.505310961102e-02
-5.521813247574e-07 5.521813131711e-07 -1.505365795597e-02
3.396432129582e-14 5.422358019073e-07 -1.505383248832e-02
5.521813926801e-07 5.521813152181e-07 -1.505365795597e-02
1.062442730620e-06 5.535564230823e-07 -1.505310961102e-02
-1.065569471591e-06 1.065569457967e-06 -1.505256259750e-02
-5.535564326213e-07 1.062442651109e-06 -1.505310961102e-02
3.294086463084e-14 1.049335776229e-06 -1.505328642115e-02
5.535564985021e-07 1.062442653156e-06 -1.505310961102e-02
1.065569537471e-06 1.065569462053e-06 -1.505256259750e-02
-6.427078683446e-07 -6.427079519799e-07 -1.505320759791e-02
-3.577031127831e-07 -6.301443620520e-07 -1.505377166936e-02
3.705415738855e-14 -6.101578526467e-07 -1.505397079673e-02
3.577031868846e-07 -6.301443599925e-07 -1.505377166936e-02
6.427079424421e-07 -6.427079478640e-07 -1.505320759791e-02
-6.301442804726e-07 -3.577031964135e-07 -1.505377166936e-02
-3.563729571634e-07 -3.563730387411e-07 -1.505433840030e-02
3.602759757818e-14 -3.440737524971e-07 -1.505453653934e-02
3.563730292138e-07 -3.563730366870e-07 -1.505433840030e-02
6.301443525125e-07 -3.577031923055e-07 -1.505377166936e-02
-6.101577731108e-07 -4.656648699166e-14 -1.505397079673e-02
-3.440736729686e-07 -4.554735926310e-14 -1.505453653934e-02
3.500304028511e-14 -4.451637543181e-14 -1.505473119454e-02
3.440737429757e-07 -4.348865635345e-14 -1.505453653934e-02
6.101578431202e-07 -4.246884941774e-14 -1.505397079673e-02
-6.301442825155e-07 3.577031032711e-07 -1.505377166936e-02
-3.563729592069e-07 3.563729476480e-07 -1.505433840030e-02
3.398958406245e-14 3.440736634587e-07 -1.505453653934e-02
3.563730271725e-07 3.563729497067e-07 -1.505433840030e-02
6.301443504691e-07 3.577031073729e-07 -1.505377166936e-02
-6.427078724295e-07 6.427078588307e-07 -1.505320759791e-02
-3.577031168730e-07 6.301442709526e-07 -1.505377166936e-02
3.296139269854e-14 6.101577636046e-07 -1.505397079673e-02
3.577031827974e-07 6.301442730049e-07 -1.505377166936e-02
6.427079383583e-07 6.427078629379e-07 -1.505320759791e-02
-2.749568307975e-07 -2.749569144562e-07 -1.505345617374e-02
-1.501421002031e-07 -2.616781160623e-07 -1.505402567950e-02
3.705880694707e-14 -2.414090595791e-07 -1.505424054472e-02
1.501421743234e-07 -2.616781139985e-07 -1.505402567950e-02
2.749569049227e-07 -2.749569103398e-07 -1.505345617374e-02
-2.616780344533e-07 -1.501421838530e-07 -1.505402567950e-02
-1.477600735631e-07 -1.477601551612e-07 -1.505459929050e-02
3.603665320096e-14 -1.347000137344e-07 -1.505481417990e-02
1.477601456380e-07 -1.477601531001e-07 -1.505459929050e-02
2.616781065317e-07 -1.501421797365e-07 -1.505402567950e-02
-2.414089800075e-07 -4.657293263320e-14 -1.505424054472e-02
-1.346999341823e-07 -4.554710510143e-14 -1.505481417990e-02
3.501936021230e-14 -4.451248478996e-14 -1.505502549363e-02
1.347000042227e-07 -4.348153149004e-14 -1.505481417990e-02
2.414090500438e-07 -4.245872138496e-14 -1.505424054472e-02
-2.616780364893e-07 1.501420907079e-07 -1.505402567950e-02
-1.477600756002e-07 1.477600640645e-07 -1.505459929050e-02
3.400629737389e-14 1.346999246992e-07 -1.505481417990e-02
1.477601436073e-07 1.477600661314e-07 -1.505459929050e-02
2.616781044995e-07 1.501420948262e-07 -1.505402567950e-02
-2.749568348889e-07 2.749568213154e-07 -1.505345617374e-02
-1.501421042848e-07 2.616780249593e-07 -1.505402567950e-02
3.298300798756e-14 2.414089705330e-07 -1.505424054472e-02
1.501421702554e-07 2.616780270367e-07 -1.505402567950e-02
2.749569008579e-07 2.749568254342e-07 -1.505345617374e-02
SCALARS displacement_magnitude float 1
LOOKUP_TABLE default
0.000000000000e+00
0.000000000000e+00
0.000000000000e+00
0.000000000000e+00
0.000000000000e+00
0.000000000000e+00
0.000000000000e+00
0.000000000000e+00
0.000000000000e+00
0.000000000000e+00
0.000000000000e+00
0.000000000000e+00
0.000000000000e+00
0.000000000000e+00
0.000000000000e+00
0.000000000000e+00
0.000000000000e+00
0.000000000000e+00
0.000000000000e+00
0.000000000000e+00
0.000000000000e+00
0.000000000000e+00
0.000000000000e+00
0.000000000000e+00
0.000000000000e+00
0.000000000000e+00
0.000000000000e+00
0.000000000000e+00
0.000000000000e+00
0.000000000000e+00
0.000000000000e+00
0.000000000000e+00
0.000000000000e+00
0.000000000000e+00
0.000000000000e+00
0.000000000000e+00
0.000000000000e+00
0.000000000000e+00
0.000000000000e+00
0.000000000000e+00
0.000000000000e+00
0.000000000000e+00
0.000000000000e+00
0.000000000000e+00
0.000000000000e+00
0.000000000000e+00
0.000000000000e+00
0.000000000000e+00
0.000000000000e+00
0.000000000000e+00
0.000000000000e+00
0.000000000000e+00
0.000000000000e+00
0.000000000000e+00
0.000000000000e+00
0.000000000000e+00
0.000000000000e+00
0.000000000000e+00
0.000000000000e+00
0.000000000000e+00
0.000000000000e+00
0.000000000000e+00
0.000000000000e+00
0.000000000000e+00
0.000000000000e+00
0.000000000000e+00
0.000000000000e+00
0.000000000000e+00
0.000000000000e+00
0.000000000000e+00
0.000000000000e+00
0.000000000000e+00
0.000000000000e+00
0.000000000000e+00
0.000000000000e+00
0.000000000000e+00
0.000000000000e+00
0.000000000000e+00
0.000000000000e+00
0.000000000000e+00
0.000000000000e+00
0.000000000000e+00
0.000000000000e+00
0.000000000000e+00
0.000000000000e+00
0.000000000000e+00
0.000000000000e+00
0.000000000000e+00
0.000000000000e+00
0.000000000000e+00
0.000000000000e+00
0.000000000000e+00
0.000000000000e+00
0.000000000000e+00
0.000000000000e+00
0.000000000000e+00
0.000000000000e+00
0.000000000000e+00
0.000000000000e+00
0.000000000000e+00
0.000000000000e+00
0.000000000000e+00
0.000000000000e+00
0.000000000000e+00
0.000000000000e+00
0.000000000000e+00
0.000000000000e+00
0.000000000000e+00
0.000000000000e+00
0.000000000000e+00
0.000000000000e+00
0.000000000000e+00
0.000000000000e+00
0.000000000000e+00
0.000000000000e+00
0.000000000000e+00
0.000000000000e+00
0.000000000000e+00
0.000000000000e+00
0.000000000000e+00
0.000000000000e+00
0.000000000000e+00
0.000000000000e+00
0.000000000000e+00
0.000000000000e+00
1.505012670362e-02
1.505062196441e-02
1.505078650728e-02
1.505062196441e-02
1.505012670362e-02
1.505062196441e-02
1.505111550136e-02
1.505127928640e-02
1.505111550136e-02
1.505062196441e-02
1.505078650728e-02
1.505127928640e-02
1.505144386213e-02
1.505127928640e-02
1.505078650728e-02
1.505062196441e-02
1.505111550136e-02
1.505127928640e-02
1.505111550136e-02
1.505062196441e-02
1.505012670362e-02
1.505062196441e-02
1.505078650728e-02
1.505062196441e-02
1.505012670362e-02
1.505152878689e-02
1.505204820844e-02
1.505221719178e-02
1.505204820844e-02
1.505152878689e-02
1.505204820844e-02
1.505256639477e-02
1.505273314341e-02
1.505256639477e-02
1.505204820844e-02
1.505221719178e-02
1.505273314341e-02
1.505289803596e-02
1.505273314341e-02
1.505221719178e-02
1.505204820844e-02
1.505256639477e-02
1.505273314341e-02
1.505256639477e-02
1.505204820844e-02
1.505152878689e-02
1.505204820844e-02
1.505221719178e-02
1.505204820844e-02
1.505152878689e-02
1.505256267294e-02
1.505310965869e-02
1.505328645772e-02
1.505310965869e-02
1.505256267294e-02
1.505310965869e-02
1.505365797622e-02
1.505383249808e-02
1.505365797622e-02
1.505310965869e-02
1.505328645772e-02
1.505383249808e-02
1.505400312944e-02
1.505383249808e-02
1.505328645772e-02
1.505310965869e-02
1.505365797622e-02
1.505383249808e-02
1.505365797622e-02
1.505310965869e-02
1.505256267294e-02
1.505310965869e-02
1.505328645772e-02
1.505310965869e-02
1.505256267294e-02
1.505320762535e-02
1.505377168680e-02
1.505397080910e-02
1.505377168680e-02
1.505320762535e-02
1.505377168680e-02
1.505433840873e-02
1.505453654327e-02
1.505433840873e-02
1.505377168680e-02
1.505397080910e-02
1.505453654327e-02
1.505473119454e-02
1.505453654327e-02
1.505397080910e-02
1.505377168680e-02
1.505433840873e-02
1.505453654327e-02
1.505433840873e-02
1.505377168680e-02
1.505320762535e-02
1.505377168680e-02
1.505397080910e-02
1.505377168680e-02
1.505320762535e-02
1.505345617876e-02
1.505402568252e-02
1.505424054666e-02
1.505402568252e-02
1.505345617876e-02
1.505402568252e-02
1.505459929195e-02
1.505481418050e-02
1.505459929195e-02
1.505402568252e-02
1.505424054666e-02
1.505481418050e-02
1.505502549363e-02
1.505481418050e-02
1.505424054666e-02
1.505402568252e-02
1.505459929195e-02
1.505481418050e-02
1.505459929195e-02
1.505402568252e-02
1.505345617876e-02
1.505402568252e-02
1.505424054666e-02
1.505402568252e-02
1.505345617876e-02
CELL_DATA 128
SCALARS displacement_magnitude float 1
LOOKUP_TABLE default
0.000000000000e+00
0.000000000000e+00
0.000000000000e+00
0.000000000000e+00
0.000000000000e+00
0.000000000000e+00
0.000000000000e+00
0.000000000000e+00
0.000000000000e+00
0.000000000000e+00
0.000000000000e+00
0.000000000000e+00
0.000000000000e+00
0.000000000000e+00
0.000000000000e+00
0.000000000000e+00
0.000000000000e+00
0.000000000000e+00
0.000000000000e+00
0.000000000000e+00
0.000000000000e+00
0.000000000000e+00
0.000000000000e+00
0.000000000000e+00
0.000000000000e+00
0.000000000000e+00
0.000000000000e+00
0.000000000000e+00
0.000000000000e+00
0.000000000000e+00
0.000000000000e+00
0.000000000000e+00
0.000000000000e+00
0.000000000000e+00
0.000000000000e+00
0.000000000000e+00
0.000000000000e+00
0.000000000000e+00
0.000000000000e+00
0.000000000000e+00
0.000000000000e+00
0.000000000000e+00
0.000000000000e+00
0.000000000000e+00
0.000000000000e+00
0.000000000000e+00
0.000000000000e+00
0.000000000000e+00
0.000000000000e+00
0.000000000000e+00
0.000000000000e+00
0.000000000000e+00
0.000000000000e+00
0.000000000000e+00
0.000000000000e+00
0.000000000000e+00
0.000000000000e+00
0.000000000000e+00
0.000000000000e+00
0.000000000000e+00
0.000000000000e+00
0.000000000000e+00
0.000000000000e+00
0.000000000000e+00
1.505133471654e-02
1.505167102473e-02
1.505167102473e-02
1.505133471654e-02
1.505167102473e-02
1.505200608173e-02
1.505200608173e-02
1.505167102473e-02
1.505167102473e-02
1.505200608173e-02
1.505200608173e-02
1.505167102473e-02
1.505133471654e-02
1.505167102473e-02
1.505167102473e-02
1.505133471654e-02
1.505257894563e-02
1.505293144114e-02
1.505293144114e-02
1.505257894563e-02
1.505293144114e-02
1.505328210242e-02
1.505328210242e-02
1.505293144114e-02
1.505293144114e-02
1.505328210242e-02
1.505328210242e-02
1.505293144114e-02
1.505257894563e-02
1.505293144114e-02
1.505293144114e-02
1.505257894563e-02
1.505344117178e-02
1.505381300483e-02
1.505381300483e-02
1.505344117178e-02
1.505381300483e-02
1.505418359896e-02
1.505418359896e-02
1.505381300483e-02
1.505381300483e-02
1.505418359896e-02
1.505418359896e-02
1.505381300483e-02
1.505344117178e-02
1.505381300483e-02
1.505381300483e-02
1.505344117178e-02
1.505389953043e-02
1.505428714369e-02
1.505428714369e-02
1.505389953043e-02
1.505428714369e-02
1.505467447955e-02
1.505467447955e-02
1.505428714369e-02
1.505428714369e-02
1.505467447955e-02
1.505467447955e-02
1.505428714369e-02
1.505389953043e-02
1.505428714369e-02
1.505428714369e-02
1.505389953043e-02
SCALARS engineering_strain_norm float 1
LOOKUP_TABLE default
0.000000000000e+00
0.000000000000e+00
0.000000000000e+00
0.000000000000e+00
0.000000000000e+00
0.000000000000e+00
0.000000000000e+00
0.000000000000e+00
0.000000000000e+00
0.000000000000e+00
0.000000000000e+00
0.000000000000e+00
0.000000000000e+00
0.000000000000e+00
0.000000000000e+00
0.000000000000e+00
0.000000000000e+00
0.000000000000e+00
0.000000000000e+00
0.000000000000e+00
0.000000000000e+00
0.000000000000e+00
0.000000000000e+00
0.000000000000e+00
0.000000000000e+00
0.000000000000e+00
0.000000000000e+00
0.000000000000e+00
0.000000000000e+00
0.000000000000e+00
0.000000000000e+00
0.000000000000e+00
0.000000000000e+00
0.000000000000e+00
0.000000000000e+00
0.000000000000e+00
0.000000000000e+00
0.000000000000e+00
0.000000000000e+00
0.000000000000e+00
0.000000000000e+00
0.000000000000e+00
0.000000000000e+00
0.000000000000e+00
0.000000000000e+00
0.000000000000e+00
0.000000000000e+00
0.000000000000e+00
0.000000000000e+00
0.000000000000e+00
0.000000000000e+00
0.000000000000e+00
0.000000000000e+00
0.000000000000e+00
0.000000000000e+00
0.000000000000e+00
0.000000000000e+00
0.000000000000e+00
0.000000000000e+00
0.000000000000e+00
0.000000000000e+00
0.000000000000e+00
0.000000000000e+00
0.000000000000e+00
2.376417850116e-05
2.400850624512e-05
2.400850624509e-05
2.376417850109e-05
2.400850624520e-05
2.420658861940e-05
2.420658861930e-05
2.400850624507e-05
2.400850624516e-05
2.420658861939e-05
2.420658861938e-05
2.400850624512e-05
2.376417850111e-05
2.400850624516e-05
2.400850624519e-05
2.376417850111e-05
1.779341486774e-05
1.810363622704e-05
1.810363622703e-05
1.779341486759e-05
1.810363622706e-05
1.838912127432e-05
1.838912127422e-05
1.810363622698e-05
1.810363622709e-05
1.838912127434e-05
1.838912127434e-05
1.810363622706e-05
1.779341486761e-05
1.810363622701e-05
1.810363622701e-05
1.779341486761e-05
1.113945380909e-05
1.155231843231e-05
1.155231843223e-05
1.113945380893e-05
1.155231843230e-05
1.196410531328e-05
1.196410531332e-05
1.155231843225e-05
1.155231843226e-05
1.196410531330e-05
1.196410531326e-05
1.155231843225e-05
1.113945380895e-05
1.155231843222e-05
1.155231843218e-05
1.113945380897e-05
4.521461778582e-06
4.810250359008e-06
4.810250358959e-06
4.521461778532e-06
4.810250359000e-06
5.097328830823e-06
5.097328830856e-06
4.810250359013e-06
4.810250359007e-06
5.097328830839e-06
5.097328830798e-06
4.810250358986e-06
4.521461778601e-06
4.810250358997e-06
4.810250358951e-06
4.521461778547e-06
SCALARS von_mises float 1
LOOKUP_TABLE default
0.000000000000e+00
0.000000000000e+00
0.000000000000e+00
0.000000000000e+00
0.000000000000e+00
0.000000000000e+00
0.000000000000e+00
0.000000000000e+00
0.000000000000e+00
0.000000000000e+00
0.000000000000e+00
0.000000000000e+00
0.000000000000e+00
0.000000000000e+00
0.000000000000e+00
0.000000000000e+00
0.000000000000e+00
0.000000000000e+00
0.000000000000e+00
0.000000000000e+00
0.000000000000e+00
0.000000000000e+00
0.000000000000e+00
0.000000000000e+00
0.000000000000e+00
0.000000000000e+00
0.000000000000e+00
0.000000000000e+00
0.000000000000e+00
0.000000000000e+00
0.000000000000e+00
0.000000000000e+00
0.000000000000e+00
0.000000000000e+00
0.000000000000e+00
0.000000000000e+00
0.000000000000e+00
0.000000000000e+00
0.000000000000e+00
0.000000000000e+00
0.000000000000e+00
0.000000000000e+00
0.000000000000e+00
0.000000000000e+00
0.000000000000e+00
0.000000000000e+00
0.000000000000e+00
0.000000000000e+00
0.000000000000e+00
0.000000000000e+00
0.000000000000e+00
0.000000000000e+00
0.000000000000e+00
0.000000000000e+00
0.000000000000e+00
0.000000000000e+00
0.000000000000e+00
0.000000000000e+00
0.000000000000e+00
0.000000000000e+00
0.000000000000e+00
0.000000000000e+00
0.000000000000e+00
0.000000000000e+00
2.183936047257e+00
2.206953257425e+00
2.206953257422e+00
2.183936047250e+00
2.206953257432e+00
2.224533840488e+00
2.224533840478e+00
2.206953257420e+00
2.206953257428e+00
2.224533840487e+00
2.224533840486e+00
2.206953257423e+00
2.183936047252e+00
2.206953257428e+00
2.206953257431e+00
2.183936047252e+00
1.639649449777e+00
1.668472689753e+00
1.668472689752e+00
1.639649449763e+00
1.668472689756e+00
1.693992492068e+00
1.693992492059e+00
1.668472689747e+00
1.668472689758e+00
1.693992492070e+00
1.693992492069e+00
1.668472689754e+00
1.639649449765e+00
1.668472689751e+00
1.668472689750e+00
1.639649449765e+00
1.027652762428e+00
1.068694846284e+00
1.068694846276e+00
1.027652762413e+00
1.068694846283e+00
1.109471939375e+00
1.109471939378e+00
1.068694846279e+00
1.068694846280e+00
1.109471939376e+00
1.109471939372e+00
1.068694846278e+00
1.027652762415e+00
1.068694846276e+00
1.068694846272e+00
1.027652762415e+00
4.239381144752e-01
4.520487123371e-01
4.520487123326e-01
4.239381144707e-01
4.520487123364e-01
4.798140789239e-01
4.798140789271e-01
4.520487123375e-01
4.520487123370e-01
4.798140789255e-01
4.798140789214e-01
4.520487123350e-01
4.239381144769e-01
4.520487123360e-01
4.520487123317e-01
4.239381144722e-01
SCALARS sdf_gap float 1
LOOKUP_TABLE default
0.000000000000e+00
0.000000000000e+00
0.000000000000e+00
0.000000000000e+00
0.000000000000e+00
0.000000000000e+00
0.000000000000e+00
0.000000000000e+00
0.000000000000e+00
0.000000000000e+00
0.000000000000e+00
0.000000000000e+00
0.000000000000e+00
0.000000000000e+00
0.000000000000e+00
0.000000000000e+00
0.000000000000e+00
0.000000000000e+00
0.000000000000e+00
0.000000000000e+00
0.000000000000e+00
0.000000000000e+00
0.000000000000e+00
0.000000000000e+00
0.000000000000e+00
0.000000000000e+00
0.000000000000e+00
0.000000000000e+00
0.000000000000e+00
0.000000000000e+00
0.000000000000e+00
0.000000000000e+00
0.000000000000e+00
0.000000000000e+00
0.000000000000e+00
0.000000000000e+00
0.000000000000e+00
0.000000000000e+00
0.000000000000e+00
0.000000000000e+00
0.000000000000e+00
0.000000000000e+00
0.000000000000e+00
0.000000000000e+00
0.000000000000e+00
0.000000000000e+00
0.000000000000e+00
0.000000000000e+00
0.000000000000e+00
0.000000000000e+00
0.000000000000e+00
0.000000000000e+00
0.000000000000e+00
0.000000000000e+00
0.000000000000e+00
0.000000000000e+00
0.000000000000e+00
0.000000000000e+00
0.000000000000e+00
0.000000000000e+00
0.000000000000e+00
0.000000000000e+00
0.000000000000e+00
0.000000000000e+00
-5.062139881958e-05
-5.095073418905e-05
-5.095073418906e-05
-5.062139881966e-05
-5.095073418899e-05
-5.127945664846e-05
-5.127945664848e-05
-5.095073418909e-05
-5.095073418901e-05
-5.127945664847e-05
-5.127945664850e-05
-5.095073418911e-05
-5.062139881958e-05
-5.095073418908e-05
-5.095073418910e-05
-5.062139881969e-05
0.000000000000e+00
0.000000000000e+00
0.000000000000e+00
0.000000000000e+00
0.000000000000e+00
0.000000000000e+00
0.000000000000e+00
0.000000000000e+00
0.000000000000e+00
0.000000000000e+00
0.000000000000e+00
0.000000000000e+00
0.000000000000e+00
0.000000000000e+00
0.000000000000e+00
0.000000000000e+00
0.000000000000e+00
0.000000000000e+00
0.000000000000e+00
0.000000000000e+00
0.000000000000e+00
0.000000000000e+00
0.000000000000e+00
0.000000000000e+00
0.000000000000e+00
0.000000000000e+00
0.000000000000e+00
0.000000000000e+00
0.000000000000e+00
0.000000000000e+00
0.000000000000e+00
0.000000000000e+00
0.000000000000e+00
0.000000000000e+00
0.000000000000e+00
0.000000000000e+00
0.000000000000e+00
0.000000000000e+00
0.000000000000e+00
0.000000000000e+00
0.000000000000e+00
0.000000000000e+00
0.000000000000e+00
0.000000000000e+00
0.000000000000e+00
0.000000000000e+00
0.000000000000e+00
0.000000000000e+00
SCALARS contact_pressure float 1
LOOKUP_TABLE default
0.000000000000e+00
0.000000000000e+00
0.000000000000e+00
0.000000000000e+00
0.000000000000e+00
0.000000000000e+00
0.000000000000e+00
0.000000000000e+00
0.000000000000e+00
0.000000000000e+00
0.000000000000e+00
0.000000000000e+00
0.000000000000e+00
0.000000000000e+00
0.000000000000e+00
0.000000000000e+00
0.000000000000e+00
0.000000000000e+00
0.000000000000e+00
0.000000000000e+00
0.000000000000e+00
0.000000000000e+00
0.000000000000e+00
0.000000000000e+00
0.000000000000e+00
0.000000000000e+00
0.000000000000e+00
0.000000000000e+00
0.000000000000e+00
0.000000000000e+00
0.000000000000e+00
0.000000000000e+00
0.000000000000e+00
0.000000000000e+00
0.000000000000e+00
0.000000000000e+00
0.000000000000e+00
0.000000000000e+00
0.000000000000e+00
0.000000000000e+00
0.000000000000e+00
0.000000000000e+00
0.000000000000e+00
0.000000000000e+00
0.000000000000e+00
0.000000000000e+00
0.000000000000e+00
0.000000000000e+00
0.000000000000e+00
0.000000000000e+00
0.000000000000e+00
0.000000000000e+00
0.000000000000e+00
0.000000000000e+00
0.000000000000e+00
0.000000000000e+00
0.000000000000e+00
0.000000000000e+00
0.000000000000e+00
0.000000000000e+00
0.000000000000e+00
0.000000000000e+00
0.000000000000e+00
0.000000000000e+00
2.531069940979e+00
2.547536709453e+00
2.547536709453e+00
2.531069940983e+00
2.547536709449e+00
2.563972832423e+00
2.563972832424e+00
2.547536709454e+00
2.547536709451e+00
2.563972832423e+00
2.563972832425e+00
2.547536709456e+00
2.531069940979e+00
2.547536709454e+00
2.547536709455e+00
2.531069940985e+00
0.000000000000e+00
0.000000000000e+00
0.000000000000e+00
0.000000000000e+00
0.000000000000e+00
0.000000000000e+00
0.000000000000e+00
0.000000000000e+00
0.000000000000e+00
0.000000000000e+00
0.000000000000e+00
0.000000000000e+00
0.000000000000e+00
0.000000000000e+00
0.000000000000e+00
0.000000000000e+00
0.000000000000e+00
0.000000000000e+00
0.000000000000e+00
0.000000000000e+00
0.000000000000e+00
0.000000000000e+00
0.000000000000e+00
0.000000000000e+00
0.000000000000e+00
0.000000000000e+00
0.000000000000e+00
0.000000000000e+00
0.000000000000e+00
0.000000000000e+00
0.000000000000e+00
0.000000000000e+00
0.000000000000e+00
0.000000000000e+00
0.000000000000e+00
0.000000000000e+00
0.000000000000e+00
0.000000000000e+00
0.000000000000e+00
0.000000000000e+00
0.000000000000e+00
0.000000000000e+00
0.000000000000e+00
0.000000000000e+00
0.000000000000e+00
0.000000000000e+00
0.000000000000e+00
0.000000000000e+00
SCALARS active_contact float 1
LOOKUP_TABLE default
0.000000000000e+00
0.000000000000e+00
0.000000000000e+00
0.000000000000e+00
0.000000000000e+00
0.000000000000e+00
0.000000000000e+00
0.000000000000e+00
0.000000000000e+00
0.000000000000e+00
0.000000000000e+00
0.000000000000e+00
0.000000000000e+00
0.000000000000e+00
0.000000000000e+00
0.000000000000e+00
0.000000000000e+00
0.000000000000e+00
0.000000000000e+00
0.000000000000e+00
0.000000000000e+00
0.000000000000e+00
0.000000000000e+00
0.000000000000e+00
0.000000000000e+00
0.000000000000e+00
0.000000000000e+00
0.000000000000e+00
0.000000000000e+00
0.000000000000e+00
0.000000000000e+00
0.000000000000e+00
0.000000000000e+00
0.000000000000e+00
0.000000000000e+00
0.000000000000e+00
0.000000000000e+00
0.000000000000e+00
0.000000000000e+00
0.000000000000e+00
0.000000000000e+00
0.000000000000e+00
0.000000000000e+00
0.000000000000e+00
0.000000000000e+00
0.000000000000e+00
0.000000000000e+00
0.000000000000e+00
0.000000000000e+00
0.000000000000e+00
0.000000000000e+00
0.000000000000e+00
0.000000000000e+00
0.000000000000e+00
0.000000000000e+00
0.000000000000e+00
0.000000000000e+00
0.000000000000e+00
0.000000000000e+00
0.000000000000e+00
0.000000000000e+00
0.000000000000e+00
0.000000000000e+00
0.000000000000e+00
1.000000000000e+00
1.000000000000e+00
1.000000000000e+00
1.000000000000e+00
1.000000000000e+00
1.000000000000e+00
1.000000000000e+00
1.000000000000e+00
1.000000000000e+00
1.000000000000e+00
1.000000000000e+00
1.000000000000e+00
1.000000000000e+00
1.000000000000e+00
1.000000000000e+00
1.000000000000e+00
0.000000000000e+00
0.000000000000e+00
0.000000000000e+00
0.000000000000e+00
0.000000000000e+00
0.000000000000e+00
0.000000000000e+00
0.000000000000e+00
0.000000000000e+00
0.000000000000e+00
0.000000000000e+00
0.000000000000e+00
0.000000000000e+00
0.000000000000e+00
0.000000000000e+00
0.000000000000e+00
0.000000000000e+00
0.000000000000e+00
0.000000000000e+00
0.000000000000e+00
0.000000000000e+00
0.000000000000e+00
0.000000000000e+00
0.000000000000e+00
0.000000000000e+00
0.000000000000e+00
0.000000000000e+00
0.000000000000e+00
0.000000000000e+00
0.000000000000e+00
0.000000000000e+00
0.000000000000e+00
0.000000000000e+00
0.000000000000e+00
0.000000000000e+00
0.000000000000e+00
0.000000000000e+00
0.000000000000e+00
0.000000000000e+00
0.000000000000e+00
0.000000000000e+00
0.000000000000e+00
0.000000000000e+00
0.000000000000e+00
0.000000000000e+00
0.000000000000e+00
0.000000000000e+00
0.000000000000e+00
