# vtk DataFile Version 3.0
SFC long-time C3D8 dynamic frame 84 t=1.680000000000e+00
ASCII
DATASET UNSTRUCTURED_GRID
POINTS 250 float
-2.500000000000e-01 -2.500000000000e-01 0.000000000000e+00
-1.250000000000e-01 -2.500000000000e-01 0.000000000000e+00
0.000000000000e+00 -2.500000000000e-01 0.000000000000e+00
1.250000000000e-01 -2.500000000000e-01 0.000000000000e+00
2.500000000000e-01 -2.500000000000e-01 0.000000000000e+00
-2.500000000000e-01 -1.250000000000e-01 0.000000000000e+00
-1.250000000000e-01 -1.250000000000e-01 0.000000000000e+00
0.000000000000e+00 -1.250000000000e-01 0.000000000000e+00
1.250000000000e-01 -1.250000000000e-01 0.000000000000e+00
2.500000000000e-01 -1.250000000000e-01 0.000000000000e+00
-2.500000000000e-01 0.000000000000e+00 0.000000000000e+00
-1.250000000000e-01 0.000000000000e+00 0.000000000000e+00
0.000000000000e+00 0.000000000000e+00 0.000000000000e+00
1.250000000000e-01 0.000000000000e+00 0.000000000000e+00
2.500000000000e-01 0.000000000000e+00 0.000000000000e+00
-2.500000000000e-01 1.250000000000e-01 0.000000000000e+00
-1.250000000000e-01 1.250000000000e-01 0.000000000000e+00
0.000000000000e+00 1.250000000000e-01 0.000000000000e+00
1.250000000000e-01 1.250000000000e-01 0.000000000000e+00
2.500000000000e-01 1.250000000000e-01 0.000000000000e+00
-2.500000000000e-01 2.500000000000e-01 0.000000000000e+00
-1.250000000000e-01 2.500000000000e-01 0.000000000000e+00
0.000000000000e+00 2.500000000000e-01 0.000000000000e+00
1.250000000000e-01 2.500000000000e-01 0.000000000000e+00
2.500000000000e-01 2.500000000000e-01 0.000000000000e+00
-2.500000000000e-01 -2.500000000000e-01 6.000000000000e-02
-1.250000000000e-01 -2.500000000000e-01 6.000000000000e-02
0.000000000000e+00 -2.500000000000e-01 6.000000000000e-02
1.250000000000e-01 -2.500000000000e-01 6.000000000000e-02
2.500000000000e-01 -2.500000000000e-01 6.000000000000e-02
-2.500000000000e-01 -1.250000000000e-01 6.000000000000e-02
-1.250000000000e-01 -1.250000000000e-01 6.000000000000e-02
0.000000000000e+00 -1.250000000000e-01 6.000000000000e-02
1.250000000000e-01 -1.250000000000e-01 6.000000000000e-02
2.500000000000e-01 -1.250000000000e-01 6.000000000000e-02
-2.500000000000e-01 0.000000000000e+00 6.000000000000e-02
-1.250000000000e-01 0.000000000000e+00 6.000000000000e-02
0.000000000000e+00 0.000000000000e+00 6.000000000000e-02
1.250000000000e-01 0.000000000000e+00 6.000000000000e-02
2.500000000000e-01 0.000000000000e+00 6.000000000000e-02
-2.500000000000e-01 1.250000000000e-01 6.000000000000e-02
-1.250000000000e-01 1.250000000000e-01 6.000000000000e-02
0.000000000000e+00 1.250000000000e-01 6.000000000000e-02
1.250000000000e-01 1.250000000000e-01 6.000000000000e-02
2.500000000000e-01 1.250000000000e-01 6.000000000000e-02
-2.500000000000e-01 2.500000000000e-01 6.000000000000e-02
-1.250000000000e-01 2.500000000000e-01 6.000000000000e-02
0.000000000000e+00 2.500000000000e-01 6.000000000000e-02
1.250000000000e-01 2.500000000000e-01 6.000000000000e-02
2.500000000000e-01 2.500000000000e-01 6.000000000000e-02
-2.500000000000e-01 -2.500000000000e-01 1.200000000000e-01
-1.250000000000e-01 -2.500000000000e-01 1.200000000000e-01
0.000000000000e+00 -2.500000000000e-01 1.200000000000e-01
1.250000000000e-01 -2.500000000000e-01 1.200000000000e-01
2.500000000000e-01 -2.500000000000e-01 1.200000000000e-01
-2.500000000000e-01 -1.250000000000e-01 1.200000000000e-01
-1.250000000000e-01 -1.250000000000e-01 1.200000000000e-01
0.000000000000e+00 -1.250000000000e-01 1.200000000000e-01
1.250000000000e-01 -1.250000000000e-01 1.200000000000e-01
2.500000000000e-01 -1.250000000000e-01 1.200000000000e-01
-2.500000000000e-01 0.000000000000e+00 1.200000000000e-01
-1.250000000000e-01 0.000000000000e+00 1.200000000000e-01
0.000000000000e+00 0.000000000000e+00 1.200000000000e-01
1.250000000000e-01 0.000000000000e+00 1.200000000000e-01
2.500000000000e-01 0.000000000000e+00 1.200000000000e-01
-2.500000000000e-01 1.250000000000e-01 1.200000000000e-01
-1.250000000000e-01 1.250000000000e-01 1.200000000000e-01
0.000000000000e+00 1.250000000000e-01 1.200000000000e-01
1.250000000000e-01 1.250000000000e-01 1.200000000000e-01
2.500000000000e-01 1.250000000000e-01 1.200000000000e-01
-2.500000000000e-01 2.500000000000e-01 1.200000000000e-01
-1.250000000000e-01 2.500000000000e-01 1.200000000000e-01
0.000000000000e+00 2.500000000000e-01 1.200000000000e-01
1.250000000000e-01 2.500000000000e-01 1.200000000000e-01
2.500000000000e-01 2.500000000000e-01 1.200000000000e-01
-2.500000000000e-01 -2.500000000000e-01 1.800000000000e-01
-1.250000000000e-01 -2.500000000000e-01 1.800000000000e-01
0.000000000000e+00 -2.500000000000e-01 1.800000000000e-01
1.250000000000e-01 -2.500000000000e-01 1.800000000000e-01
2.500000000000e-01 -2.500000000000e-01 1.800000000000e-01
-2.500000000000e-01 -1.250000000000e-01 1.800000000000e-01
-1.250000000000e-01 -1.250000000000e-01 1.800000000000e-01
0.000000000000e+00 -1.250000000000e-01 1.800000000000e-01
1.250000000000e-01 -1.250000000000e-01 1.800000000000e-01
2.500000000000e-01 -1.250000000000e-01 1.800000000000e-01
-2.500000000000e-01 0.000000000000e+00 1.800000000000e-01
-1.250000000000e-01 0.000000000000e+00 1.800000000000e-01
0.000000000000e+00 0.000000000000e+00 1.800000000000e-01
1.250000000000e-01 0.000000000000e+00 1.800000000000e-01
2.500000000000e-01 0.000000000000e+00 1.800000000000e-01
-2.500000000000e-01 1.250000000000e-01 1.800000000000e-01
-1.250000000000e-01 1.250000000000e-01 1.800000000000e-01
0.000000000000e+00 1.250000000000e-01 1.800000000000e-01
1.250000000000e-01 1.250000000000e-01 1.800000000000e-01
2.500000000000e-01 1.250000000000e-01 1.800000000000e-01
-2.500000000000e-01 2.500000000000e-01 1.800000000000e-01
-1.250000000000e-01 2.500000000000e-01 1.800000000000e-01
0.000000000000e+00 2.500000000000e-01 1.800000000000e-01
1.250000000000e-01 2.500000000000e-01 1.800000000000e-01
2.500000000000e-01 2.500000000000e-01 1.800000000000e-01
-2.500000000000e-01 -2.500000000000e-01 2.400000000000e-01
-1.250000000000e-01 -2.500000000000e-01 2.400000000000e-01
0.000000000000e+00 -2.500000000000e-01 2.400000000000e-01
1.250000000000e-01 -2.500000000000e-01 2.400000000000e-01
2.500000000000e-01 -2.500000000000e-01 2.400000000000e-01
-2.500000000000e-01 -1.250000000000e-01 2.400000000000e-01
-1.250000000000e-01 -1.250000000000e-01 2.400000000000e-01
0.000000000000e+00 -1.250000000000e-01 2.400000000000e-01
1.250000000000e-01 -1.250000000000e-01 2.400000000000e-01
2.500000000000e-01 -1.250000000000e-01 2.400000000000e-01
-2.500000000000e-01 0.000000000000e+00 2.400000000000e-01
-1.250000000000e-01 0.000000000000e+00 2.400000000000e-01
0.000000000000e+00 0.000000000000e+00 2.400000000000e-01
1.250000000000e-01 0.000000000000e+00 2.400000000000e-01
2.500000000000e-01 0.000000000000e+00 2.400000000000e-01
-2.500000000000e-01 1.250000000000e-01 2.400000000000e-01
-1.250000000000e-01 1.250000000000e-01 2.400000000000e-01
0.000000000000e+00 1.250000000000e-01 2.400000000000e-01
1.250000000000e-01 1.250000000000e-01 2.400000000000e-01
2.500000000000e-01 1.250000000000e-01 2.400000000000e-01
-2.500000000000e-01 2.500000000000e-01 2.400000000000e-01
-1.250000000000e-01 2.500000000000e-01 2.400000000000e-01
0.000000000000e+00 2.500000000000e-01 2.400000000000e-01
1.250000000000e-01 2.500000000000e-01 2.400000000000e-01
2.500000000000e-01 2.500000000000e-01 2.400000000000e-01
-2.500017705103e-01 -2.500017705103e-01 2.399505388428e-01
-1.250009042392e-01 -2.500017676114e-01 2.399499495435e-01
2.237082400879e-14 -2.500017542097e-01 2.399497310503e-01
1.250009042393e-01 -2.500017676114e-01 2.399499495435e-01
2.500017705103e-01 -2.500017705103e-01 2.399505388428e-01
-2.500017676114e-01 -1.250009042393e-01 2.399499495435e-01
-1.250009009928e-01 -1.250009009929e-01 2.399493692112e-01
2.139301820995e-14 -1.250008924116e-01 2.399491564002e-01
1.250009009929e-01 -1.250009009929e-01 2.399493692112e-01
2.500017676114e-01 -1.250009042393e-01 2.399499495435e-01
-2.500017542097e-01 -2.764309580734e-14 2.399497310503e-01
-1.250008924115e-01 -2.666649938658e-14 2.399491564002e-01
2.040256198994e-14 -2.569707116327e-14 2.399489443058e-01
1.250008924116e-01 -2.473134452721e-14 2.399491564002e-01
2.500017542097e-01 -2.375240981629e-14 2.399497310503e-01
-2.500017676114e-01 1.250009042392e-01 2.399499495435e-01
-1.250009009928e-01 1.250009009928e-01 2.399493692112e-01
1.941659572023e-14 1.250008924115e-01 2.399491564002e-01
1.250009009929e-01 1.250009009928e-01 2.399493692112e-01
2.500017676114e-01 1.250009042392e-01 2.399499495435e-01
-2.500017705103e-01 2.500017705103e-01 2.399505388428e-01
-1.250009042393e-01 2.500017676114e-01 2.399499495435e-01
1.843141953212e-14 2.500017542096e-01 2.399497310503e-01
1.250009042393e-01 2.500017676114e-01 2.399499495435e-01
2.500017705103e-01 2.500017705103e-01 2.399505388428e-01
-2.500013903600e-01 -2.500013903600e-01 3.049491420247e-01
-1.250006933025e-01 -2.500013929384e-01 3.049485308235e-01
2.232028526758e-14 -2.500013859578e-01 3.049483071626e-01
1.250006933025e-01 -2.500013929384e-01 3.049485308235e-01
2.500013903600e-01 -2.500013903600e-01 3.049491420247e-01
-2.500013929384e-01 -1.250006933025e-01 3.049485308235e-01
-1.250006919290e-01 -1.250006919291e-01 3.049479276905e-01
2.134225188599e-14 -1.250006854901e-01 3.049477106304e-01
1.250006919291e-01 -1.250006919291e-01 3.049479276905e-01
2.500013929384e-01 -1.250006933025e-01 3.049485308235e-01
-2.500013859578e-01 -2.766455609751e-14 3.049483071626e-01
-1.250006854900e-01 -2.668620754413e-14 3.049477106304e-01
2.036235681575e-14 -2.571333214610e-14 3.049474959466e-01
1.250006854901e-01 -2.473762960508e-14 3.049477106304e-01
2.500013859578e-01 -2.375933282563e-14 3.049483071626e-01
-2.500013929384e-01 1.250006933024e-01 3.049485308235e-01
-1.250006919290e-01 1.250006919290e-01 3.049479276905e-01
1.937544465831e-14 1.250006854900e-01 3.049477106304e-01
1.250006919291e-01 1.250006919290e-01 3.049479276905e-01
2.500013929384e-01 1.250006933024e-01 3.049485308235e-01
-2.500013903600e-01 2.500013903600e-01 3.049491420247e-01
-1.250006933025e-01 2.500013929384e-01 3.049485308235e-01
1.839182438127e-14 2.500013859578e-01 3.049483071626e-01
1.250006933025e-01 2.500013929384e-01 3.049485308235e-01
2.500013903600e-01 2.500013903600e-01 3.049491420247e-01
-2.500009469023e-01 -2.500009469024e-01 3.699481490937e-01
-1.250004864674e-01 -2.500009457777e-01 3.699475180796e-01
2.226948279099e-14 -2.500009398912e-01 3.699472870187e-01
1.250004864675e-01 -2.500009457777e-01 3.699475180796e-01
2.500009469024e-01 -2.500009469024e-01 3.699481490937e-01
-2.500009457777e-01 -1.250004864675e-01 3.699475180796e-01
-1.250004858184e-01 -1.250004858184e-01 3.699468932410e-01
2.129219950306e-14 -1.250004810235e-01 3.699466686943e-01
1.250004858184e-01 -1.250004858184e-01 3.699468932410e-01
2.500009457777e-01 -1.250004864675e-01 3.699475180796e-01
-2.500009398912e-01 -2.768838822534e-14 3.699472870187e-01
-1.250004810235e-01 -2.670986315868e-14 3.699466686943e-01
2.031733433997e-14 -2.572996259872e-14 3.699464473098e-01
1.250004810235e-01 -2.475079841626e-14 3.699466686943e-01
2.500009398912e-01 -2.376895957849e-14 3.699472870187e-01
-2.500009457777e-01 1.250004864674e-01 3.699475180796e-01
-1.250004858184e-01 1.250004858184e-01 3.699468932410e-01
1.933452041922e-14 1.250004810235e-01 3.699466686943e-01
1.250004858184e-01 1.250004858184e-01 3.699468932410e-01
2.500009457777e-01 1.250004864674e-01 3.699475180796e-01
-2.500009469023e-01 2.500009469023e-01 3.699481490937e-01
-1.250004864674e-01 2.500009457777e-01 3.699475180796e-01
1.835202424240e-14 2.500009398912e-01 3.699472870187e-01
1.250004864675e-01 2.500009457777e-01 3.699475180796e-01
2.500009469024e-01 2.500009469023e-01 3.699481490937e-01
-2.500005070007e-01 -2.500005070008e-01 4.349475638984e-01
-1.250002723387e-01 -2.500005026893e-01 4.349469225099e-01
2.221608543568e-14 -2.500004978651e-01 4.349466734651e-01
1.250002723387e-01 -2.500005026893e-01 4.349469225099e-01
2.500005070008e-01 -2.500005070008e-01 4.349475638984e-01
-2.500005026893e-01 -1.250002723387e-01 4.349469225099e-01
-1.250002719663e-01 -1.250002719663e-01 4.349462882864e-01
2.123899454016e-14 -1.250002685217e-01 4.349460450983e-01
1.250002719663e-01 -1.250002719663e-01 4.349462882864e-01
2.500005026893e-01 -1.250002723387e-01 4.349469225099e-01
-2.500004978651e-01 -2.771149181317e-14 4.349466734651e-01
-1.250002685216e-01 -2.673310535074e-14 4.349460450983e-01
2.027073063361e-14 -2.574851216651e-14 4.349458039053e-01
1.250002685217e-01 -2.476286181853e-14 4.349460450983e-01
2.500004978651e-01 -2.378181398922e-14 4.349466734651e-01
-2.500005026893e-01 1.250002723387e-01 4.349469225099e-01
-1.250002719663e-01 1.250002719663e-01 4.349462882864e-01
1.929234297075e-14 1.250002685216e-01 4.349460450983e-01
1.250002719663e-01 1.250002719663e-01 4.349462882864e-01
2.500005026893e-01 1.250002723387e-01 4.349469225099e-01
-2.500005070007e-01 2.500005070007e-01 4.349475638984e-01
-1.250002723387e-01 2.500005026893e-01 4.349469225099e-01
1.831088203907e-14 2.500004978651e-01 4.349466734651e-01
1.250002723387e-01 2.500005026893e-01 4.349469225099e-01
2.500005070008e-01 2.500005070007e-01 4.349475638984e-01
-2.500001153157e-01 -2.500001153158e-01 4.999473511312e-01
-1.250000400946e-01 -2.500001175092e-01 4.999467099179e-01
2.215989964487e-14 -2.500001198235e-01 4.999464527179e-01
1.250000400946e-01 -2.500001175092e-01 4.999467099179e-01
2.500001153158e-01 -2.500001153158e-01 4.999473511312e-01
-2.500001175091e-01 -1.250000400946e-01 4.999467099179e-01
-1.250000408761e-01 -1.250000408761e-01 4.999460772927e-01
2.118658208445e-14 -1.250000393177e-01 4.999458261138e-01
1.250000408761e-01 -1.250000408761e-01 4.999460772927e-01
2.500001175092e-01 -1.250000400946e-01 4.999467099179e-01
-2.500001198234e-01 -2.773675669325e-14 4.999464527179e-01
-1.250000393176e-01 -2.675459048043e-14 4.999458261138e-01
2.022525524871e-14 -2.576144554359e-14 4.999455768472e-01
1.250000393177e-01 -2.477423535772e-14 4.999458261138e-01
2.500001198235e-01 -2.379700847830e-14 4.999464527179e-01
-2.500001175091e-01 1.250000400945e-01 4.999467099179e-01
-1.250000408761e-01 1.250000408761e-01 4.999460772927e-01
1.925047641389e-14 1.250000393176e-01 4.999458261138e-01
1.250000408761e-01 1.250000408761e-01 4.999460772927e-01
2.500001175092e-01 1.250000400946e-01 4.999467099179e-01
-2.500001153157e-01 2.500001153157e-01 4.999473511312e-01
-1.250000400946e-01 2.500001175091e-01 4.999467099179e-01
1.826732242848e-14 2.500001198234e-01 4.999464527179e-01
1.250000400946e-01 2.500001175091e-01 4.999467099179e-01
2.500001153158e-01 2.500001153157e-01 4.999473511312e-01
CELLS 128 1152
8 0 1 6 5 25 26 31 30
8 1 2 7 6 26 27 32 31
8 2 3 8 7 27 28 33 32
8 3 4 9 8 28 29 34 33
8 5 6 11 10 30 31 36 35
8 6 7 12 11 31 32 37 36
8 7 8 13 12 32 33 38 37
8 8 9 14 13 33 34 39 38
8 10 11 16 15 35 36 41 40
8 11 12 17 16 36 37 42 41
8 12 13 18 17 37 38 43 42
8 13 14 19 18 38 39 44 43
8 15 16 21 20 40 41 46 45
8 16 17 22 21 41 42 47 46
8 17 18 23 22 42 43 48 47
8 18 19 24 23 43 44 49 48
8 25 26 31 30 50 51 56 55
8 26 27 32 31 51 52 57 56
8 27 28 33 32 52 53 58 57
8 28 29 34 33 53 54 59 58
8 30 31 36 35 55 56 61 60
8 31 32 37 36 56 57 62 61
8 32 33 38 37 57 58 63 62
8 33 34 39 38 58 59 64 63
8 35 36 41 40 60 61 66 65
8 36 37 42 41 61 62 67 66
8 37 38 43 42 62 63 68 67
8 38 39 44 43 63 64 69 68
8 40 41 46 45 65 66 71 70
8 41 42 47 46 66 67 72 71
8 42 43 48 47 67 68 73 72
8 43 44 49 48 68 69 74 73
8 50 51 56 55 75 76 81 80
8 51 52 57 56 76 77 82 81
8 52 53 58 57 77 78 83 82
8 53 54 59 58 78 79 84 83
8 55 56 61 60 80 81 86 85
8 56 57 62 61 81 82 87 86
8 57 58 63 62 82 83 88 87
8 58 59 64 63 83 84 89 88
8 60 61 66 65 85 86 91 90
8 61 62 67 66 86 87 92 91
8 62 63 68 67 87 88 93 92
8 63 64 69 68 88 89 94 93
8 65 66 71 70 90 91 96 95
8 66 67 72 71 91 92 97 96
8 67 68 73 72 92 93 98 97
8 68 69 74 73 93 94 99 98
8 75 76 81 80 100 101 106 105
8 76 77 82 81 101 102 107 106
8 77 78 83 82 102 103 108 107
8 78 79 84 83 103 104 109 108
8 80 81 86 85 105 106 111 110
8 81 82 87 86 106 107 112 111
8 82 83 88 87 107 108 113 112
8 83 84 89 88 108 109 114 113
8 85 86 91 90 110 111 116 115
8 86 87 92 91 111 112 117 116
8 87 88 93 92 112 113 118 117
8 88 89 94 93 113 114 119 118
8 90 91 96 95 115 116 121 120
8 91 92 97 96 116 117 122 121
8 92 93 98 97 117 118 123 122
8 93 94 99 98 118 119 124 123
8 125 126 131 130 150 151 156 155
8 126 127 132 131 151 152 157 156
8 127 128 133 132 152 153 158 157
8 128 129 134 133 153 154 159 158
8 130 131 136 135 155 156 161 160
8 131 132 137 136 156 157 162 161
8 132 133 138 137 157 158 163 162
8 133 134 139 138 158 159 164 163
8 135 136 141 140 160 161 166 165
8 136 137 142 141 161 162 167 166
8 137 138 143 142 162 163 168 167
8 138 139 144 143 163 164 169 168
8 140 141 146 145 165 166 171 170
8 141 142 147 146 166 167 172 171
8 142 143 148 147 167 168 173 172
8 143 144 149 148 168 169 174 173
8 150 151 156 155 175 176 181 180
8 151 152 157 156 176 177 182 181
8 152 153 158 157 177 178 183 182
8 153 154 159 158 178 179 184 183
8 155 156 161 160 180 181 186 185
8 156 157 162 161 181 182 187 186
8 157 158 163 162 182 183 188 187
8 158 159 164 163 183 184 189 188
8 160 161 166 165 185 186 191 190
8 161 162 167 166 186 187 192 191
8 162 163 168 167 187 188 193 192
8 163 164 169 168 188 189 194 193
8 165 166 171 170 190 191 196 195
8 166 167 172 171 191 192 197 196
8 167 168 173 172 192 193 198 197
8 168 169 174 173 193 194 199 198
8 175 176 181 180 200 201 206 205
8 176 177 182 181 201 202 207 206
8 177 178 183 182 202 203 208 207
8 178 179 184 183 203 204 209 208
8 180 181 186 185 205 206 211 210
8 181 182 187 186 206 207 212 211
8 182 183 188 187 207 208 213 212
8 183 184 189 188 208 209 214 213
8 185 186 191 190 210 211 216 215
8 186 187 192 191 211 212 217 216
8 187 188 193 192 212 213 218 217
8 188 189 194 193 213 214 219 218
8 190 191 196 195 215 216 221 220
8 191 192 197 196 216 217 222 221
8 192 193 198 197 217 218 223 222
8 193 194 199 198 218 219 224 223
8 200 201 206 205 225 226 231 230
8 201 202 207 206 226 227 232 231
8 202 203 208 207 227 228 233 232
8 203 204 209 208 228 229 234 233
8 205 206 211 210 230 231 236 235
8 206 207 212 211 231 232 237 236
8 207 208 213 212 232 233 238 237
8 208 209 214 213 233 234 239 238
8 210 211 216 215 235 236 241 240
8 211 212 217 216 236 237 242 241
8 212 213 218 217 237 238 243 242
8 213 214 219 218 238 239 244 243
8 215 216 221 220 240 241 246 245
8 216 217 222 221 241 242 247 246
8 217 218 223 222 242 243 248 247
8 218 219 224 223 243 244 249 248
CELL_TYPES 128
12
12
12
12
12
12
12
12
12
12
12
12
12
12
12
12
12
12
12
12
12
12
12
12
12
12
12
12
12
12
12
12
12
12
12
12
12
12
12
12
12
12
12
12
12
12
12
12
12
12
12
12
12
12
12
12
12
12
12
12
12
12
12
12
12
12
12
12
12
12
12
12
12
12
12
12
12
12
12
12
12
12
12
12
12
12
12
12
12
12
12
12
12
12
12
12
12
12
12
12
12
12
12
12
12
12
12
12
12
12
12
12
12
12
12
12
12
12
12
12
12
12
12
12
12
12
12
12
POINT_DATA 250
VECTORS displacement float
0.000000000000e+00 0.000000000000e+00 0.000000000000e+00
0.000000000000e+00 0.000000000000e+00 0.000000000000e+00
0.000000000000e+00 0.000000000000e+00 0.000000000000e+00
0.000000000000e+00 0.000000000000e+00 0.000000000000e+00
0.000000000000e+00 0.000000000000e+00 0.000000000000e+00
0.000000000000e+00 0.000000000000e+00 0.000000000000e+00
0.000000000000e+00 0.000000000000e+00 0.000000000000e+00
0.000000000000e+00 0.000000000000e+00 0.000000000000e+00
0.000000000000e+00 0.000000000000e+00 0.000000000000e+00
0.000000000000e+00 0.000000000000e+00 0.000000000000e+00
0.000000000000e+00 0.000000000000e+00 0.000000000000e+00
0.000000000000e+00 0.000000000000e+00 0.000000000000e+00
0.000000000000e+00 0.000000000000e+00 0.000000000000e+00
0.000000000000e+00 0.000000000000e+00 0.000000000000e+00
0.000000000000e+00 0.000000000000e+00 0.000000000000e+00
0.000000000000e+00 0.000000000000e+00 0.000000000000e+00
0.000000000000e+00 0.000000000000e+00 0.000000000000e+00
0.000000000000e+00 0.000000000000e+00 0.000000000000e+00
0.000000000000e+00 0.000000000000e+00 0.000000000000e+00
0.000000000000e+00 0.000000000000e+00 0.000000000000e+00
0.000000000000e+00 0.000000000000e+00 0.000000000000e+00
0.000000000000e+00 0.000000000000e+00 0.000000000000e+00
0.000000000000e+00 0.000000000000e+00 0.000000000000e+00
0.000000000000e+00 0.000000000000e+00 0.000000000000e+00
0.000000000000e+00 0.000000000000e+00 0.000000000000e+00
0.000000000000e+00 0.000000000000e+00 0.000000000000e+00
0.000000000000e+00 0.000000000000e+00 0.000000000000e+00
0.000000000000e+00 0.000000000000e+00 0.000000000000e+00
0.000000000000e+00 0.000000000000e+00 0.000000000000e+00
0.000000000000e+00 0.000000000000e+00 0.000000000000e+00
0.000000000000e+00 0.000000000000e+00 0.000000000000e+00
0.000000000000e+00 0.000000000000e+00 0.000000000000e+00
0.000000000000e+00 0.000000000000e+00 0.000000000000e+00
0.000000000000e+00 0.000000000000e+00 0.000000000000e+00
0.000000000000e+00 0.000000000000e+00 0.000000000000e+00
0.000000000000e+00 0.000000000000e+00 0.000000000000e+00
0.000000000000e+00 0.000000000000e+00 0.000000000000e+00
0.000000000000e+00 0.000000000000e+00 0.000000000000e+00
0.000000000000e+00 0.000000000000e+00 0.000000000000e+00
0.000000000000e+00 0.000000000000e+00 0.000000000000e+00
0.000000000000e+00 0.000000000000e+00 0.000000000000e+00
0.000000000000e+00 0.000000000000e+00 0.000000000000e+00
0.000000000000e+00 0.000000000000e+00 0.000000000000e+00
0.000000000000e+00 0.000000000000e+00 0.000000000000e+00
0.000000000000e+00 0.000000000000e+00 0.000000000000e+00
0.000000000000e+00 0.000000000000e+00 0.000000000000e+00
0.000000000000e+00 0.000000000000e+00 0.000000000000e+00
0.000000000000e+00 0.000000000000e+00 0.000000000000e+00
0.000000000000e+00 0.000000000000e+00 0.000000000000e+00
0.000000000000e+00 0.000000000000e+00 0.000000000000e+00
0.000000000000e+00 0.000000000000e+00 0.000000000000e+00
0.000000000000e+00 0.000000000000e+00 0.000000000000e+00
0.000000000000e+00 0.000000000000e+00 0.000000000000e+00
0.000000000000e+00 0.000000000000e+00 0.000000000000e+00
0.000000000000e+00 0.000000000000e+00 0.000000000000e+00
0.000000000000e+00 0.000000000000e+00 0.000000000000e+00
0.000000000000e+00 0.000000000000e+00 0.000000000000e+00
0.000000000000e+00 0.000000000000e+00 0.000000000000e+00
0.000000000000e+00 0.000000000000e+00 0.000000000000e+00
0.000000000000e+00 0.000000000000e+00 0.000000000000e+00
0.000000000000e+00 0.000000000000e+00 0.000000000000e+00
0.000000000000e+00 0.000000000000e+00 0.000000000000e+00
0.000000000000e+00 0.000000000000e+00 0.000000000000e+00
0.000000000000e+00 0.000000000000e+00 0.000000000000e+00
0.000000000000e+00 0.000000000000e+00 0.000000000000e+00
0.000000000000e+00 0.000000000000e+00 0.000000000000e+00
0.000000000000e+00 0.000000000000e+00 0.000000000000e+00
0.000000000000e+00 0.000000000000e+00 0.000000000000e+00
0.000000000000e+00 0.000000000000e+00 0.000000000000e+00
0.000000000000e+00 0.000000000000e+00 0.000000000000e+00
0.000000000000e+00 0.000000000000e+00 0.000000000000e+00
0.000000000000e+00 0.000000000000e+00 0.000000000000e+00
0.000000000000e+00 0.000000000000e+00 0.000000000000e+00
0.000000000000e+00 0.000000000000e+00 0.000000000000e+00
0.000000000000e+00 0.000000000000e+00 0.000000000000e+00
0.000000000000e+00 0.000000000000e+00 0.000000000000e+00
0.000000000000e+00 0.000000000000e+00 0.000000000000e+00
0.000000000000e+00 0.000000000000e+00 0.000000000000e+00
0.000000000000e+00 0.000000000000e+00 0.000000000000e+00
0.000000000000e+00 0.000000000000e+00 0.000000000000e+00
0.000000000000e+00 0.000000000000e+00 0.000000000000e+00
0.000000000000e+00 0.000000000000e+00 0.000000000000e+00
0.000000000000e+00 0.000000000000e+00 0.000000000000e+00
0.000000000000e+00 0.000000000000e+00 0.000000000000e+00
0.000000000000e+00 0.000000000000e+00 0.000000000000e+00
0.000000000000e+00 0.000000000000e+00 0.000000000000e+00
0.000000000000e+00 0.000000000000e+00 0.000000000000e+00
0.000000000000e+00 0.000000000000e+00 0.000000000000e+00
0.000000000000e+00 0.000000000000e+00 0.000000000000e+00
0.000000000000e+00 0.000000000000e+00 0.000000000000e+00
0.000000000000e+00 0.000000000000e+00 0.000000000000e+00
0.000000000000e+00 0.000000000000e+00 0.000000000000e+00
0.000000000000e+00 0.000000000000e+00 0.000000000000e+00
0.000000000000e+00 0.000000000000e+00 0.000000000000e+00
0.000000000000e+00 0.000000000000e+00 0.000000000000e+00
0.000000000000e+00 0.000000000000e+00 0.000000000000e+00
0.000000000000e+00 0.000000000000e+00 0.000000000000e+00
0.000000000000e+00 0.000000000000e+00 0.000000000000e+00
0.000000000000e+00 0.000000000000e+00 0.000000000000e+00
0.000000000000e+00 0.000000000000e+00 0.000000000000e+00
0.000000000000e+00 0.000000000000e+00 0.000000000000e+00
0.000000000000e+00 0.000000000000e+00 0.000000000000e+00
0.000000000000e+00 0.000000000000e+00 0.000000000000e+00
0.000000000000e+00 0.000000000000e+00 0.000000000000e+00
0.000000000000e+00 0.000000000000e+00 0.000000000000e+00
0.000000000000e+00 0.000000000000e+00 0.000000000000e+00
0.000000000000e+00 0.000000000000e+00 0.000000000000e+00
0.000000000000e+00 0.000000000000e+00 0.000000000000e+00
0.000000000000e+00 0.000000000000e+00 0.000000000000e+00
0.000000000000e+00 0.000000000000e+00 0.000000000000e+00
0.000000000000e+00 0.000000000000e+00 0.000000000000e+00
0.000000000000e+00 0.000000000000e+00 0.000000000000e+00
0.000000000000e+00 0.000000000000e+00 0.000000000000e+00
0.000000000000e+00 0.000000000000e+00 0.000000000000e+00
0.000000000000e+00 0.000000000000e+00 0.000000000000e+00
0.000000000000e+00 0.000000000000e+00 0.000000000000e+00
0.000000000000e+00 0.000000000000e+00 0.000000000000e+00
0.000000000000e+00 0.000000000000e+00 0.000000000000e+00
0.000000000000e+00 0.000000000000e+00 0.000000000000e+00
0.000000000000e+00 0.000000000000e+00 0.000000000000e+00
0.000000000000e+00 0.000000000000e+00 0.000000000000e+00
0.000000000000e+00 0.000000000000e+00 0.000000000000e+00
0.000000000000e+00 0.000000000000e+00 0.000000000000e+00
0.000000000000e+00 0.000000000000e+00 0.000000000000e+00
0.000000000000e+00 0.000000000000e+00 0.000000000000e+00
-1.770510267154e-06 -1.770510317160e-06 -1.504946115716e-02
-9.042392483728e-07 -1.767611433072e-06 -1.505005045654e-02
2.237082400879e-14 -1.754209700908e-06 -1.505026894968e-02
9.042392931020e-07 -1.767611431134e-06 -1.505005045654e-02
1.770510311875e-06 -1.770510313293e-06 -1.504946115716e-02
-1.767611385017e-06 -9.042392983794e-07 -1.505005045654e-02
-9.009928415369e-07 -9.009928895973e-07 -1.505063078885e-02
2.139301820995e-14 -8.924115609592e-07 -1.505084359977e-02
9.009928843073e-07 -9.009928876650e-07 -1.505063078885e-02
1.767611427757e-06 -9.042392945036e-07 -1.505005045654e-02
-1.754209654808e-06 -2.764309580734e-14 -1.505026894968e-02
-8.924115148544e-07 -2.666649938658e-14 -1.505084359977e-02
2.040256198994e-14 -2.569707116327e-14 -1.505105569425e-02
8.924115556510e-07 -2.473134452721e-14 -1.505084359976e-02
1.754209695600e-06 -2.375240981629e-14 -1.505026894968e-02
-1.767611386987e-06 9.042392430965e-07 -1.505005045654e-02
-9.009928435131e-07 9.009928362616e-07 -1.505063078885e-02
1.941659572023e-14 8.924115095690e-07 -1.505084359976e-02
9.009928823281e-07 9.009928382084e-07 -1.505063078885e-02
1.767611425774e-06 9.042392469930e-07 -1.505005045654e-02
-1.770510271097e-06 1.770510261871e-06 -1.504946115716e-02
-9.042392523089e-07 1.767611379728e-06 -1.505005045654e-02
1.843141953212e-14 1.754209649526e-06 -1.505026894968e-02
9.042392891616e-07 1.767611381681e-06 -1.505005045654e-02
1.770510307933e-06 1.770510265774e-06 -1.504946115716e-02
-1.390359973923e-06 -1.390360023898e-06 -1.505085797530e-02
-6.933024505359e-07 -1.392938419164e-06 -1.505146917646e-02
2.232028526758e-14 -1.385957838637e-06 -1.505169283739e-02
6.933024951686e-07 -1.392938417216e-06 -1.505146917646e-02
1.390360018540e-06 -1.390360020000e-06 -1.505085797530e-02
-1.392938371130e-06 -6.933025005196e-07 -1.505146917646e-02
-6.919290211103e-07 -6.919290691393e-07 -1.505207230947e-02
2.134225188599e-14 -6.854900900164e-07 -1.505228936959e-02
6.919290637918e-07 -6.919290671955e-07 -1.505207230947e-02
1.392938413804e-06 -6.933024966210e-07 -1.505146917646e-02
-1.385957792568e-06 -2.766455609751e-14 -1.505169283739e-02
-6.854900439408e-07 -2.668620754413e-14 -1.505228936959e-02
2.036235681575e-14 -2.571333214610e-14 -1.505250405342e-02
6.854900846571e-07 -2.473762960508e-14 -1.505228936959e-02
1.385957833272e-06 -2.375933282563e-14 -1.505169283739e-02
-1.392938373101e-06 6.933024451859e-07 -1.505146917646e-02
-6.919290230786e-07 6.919290157683e-07 -1.505207230947e-02
1.937544465831e-14 6.854900385926e-07 -1.505228936959e-02
6.919290618240e-07 6.919290177172e-07 -1.505207230947e-02
1.392938411835e-06 6.933024490968e-07 -1.505146917646e-02
-1.390359977837e-06 1.390359968568e-06 -1.505085797530e-02
-6.933024544633e-07 1.392938365783e-06 -1.505146917646e-02
1.839182438127e-14 1.385957787217e-06 -1.505169283739e-02
6.933024912451e-07 1.392938367741e-06 -1.505146917646e-02
1.390360014616e-06 1.390359972467e-06 -1.505085797530e-02
-9.469023186783e-07 -9.469023686383e-07 -1.505185090631e-02
-4.864674398492e-07 -9.457777388557e-07 -1.505248192042e-02
2.226948279099e-14 -9.398912460285e-07 -1.505271298129e-02
4.864674843867e-07 -9.457777369020e-07 -1.505248192042e-02
9.469023632123e-07 -9.469023647178e-07 -1.505185090631e-02
-9.457776908579e-07 -4.864674898050e-07 -1.505248192042e-02
-4.858183610817e-07 -4.858184090819e-07 -1.505310675900e-02
2.129219950306e-14 -4.810235278566e-07 -1.505333130571e-02
4.858184036671e-07 -4.858184071263e-07 -1.505310675900e-02
9.457777334344e-07 -4.864674858924e-07 -1.505248192042e-02
-9.398911999841e-07 -2.768838822534e-14 -1.505271298129e-02
-4.810234818119e-07 -2.670986315868e-14 -1.505333130571e-02
2.031733433997e-14 -2.572996259872e-14 -1.505355269017e-02
4.810235224424e-07 -2.475079841626e-14 -1.505333130571e-02
9.398912406056e-07 -2.376895957849e-14 -1.505271298129e-02
-9.457776928171e-07 4.864674344272e-07 -1.505248192042e-02
-4.858183630411e-07 4.858183556677e-07 -1.505310675900e-02
1.933452041922e-14 4.810234763988e-07 -1.505333130571e-02
4.858184017114e-07 4.858183576274e-07 -1.505310675900e-02
9.457777314783e-07 4.864674383468e-07 -1.505248192042e-02
-9.469023225975e-07 9.469023132538e-07 -1.505185090631e-02
-4.864674437684e-07 9.457776854368e-07 -1.505248192042e-02
1.835202424240e-14 9.398911945678e-07 -1.505271298129e-02
4.864674804704e-07 9.457776873977e-07 -1.505248192042e-02
9.469023592937e-07 9.469023171660e-07 -1.505185090631e-02
-5.070007200993e-07 -5.070007700229e-07 -1.505243610160e-02
-2.723386715405e-07 -5.026893051078e-07 -1.505307749007e-02
2.221608543568e-14 -4.978651076881e-07 -1.505332653486e-02
2.723387159731e-07 -5.026893031384e-07 -1.505307749007e-02
5.070007645229e-07 -5.070007660909e-07 -1.505243610160e-02
-5.026892571374e-07 -2.723387214659e-07 -1.505307749007e-02
-2.719662778987e-07 -2.719663258697e-07 -1.505371171365e-02
2.123899454016e-14 -2.685216861920e-07 -1.505395490173e-02
2.719663203791e-07 -2.719663239008e-07 -1.505371171365e-02
5.026892996198e-07 -2.723387175382e-07 -1.505307749007e-02
-4.978650616786e-07 -2.771149181317e-14 -1.505332653486e-02
-2.685216401789e-07 -2.673310535074e-14 -1.505395490173e-02
2.027073063361e-14 -2.574851216651e-14 -1.505419609468e-02
2.685216807179e-07 -2.476286181853e-14 -1.505395490173e-02
4.978651022137e-07 -2.378181398922e-14 -1.505332653486e-02
-5.026892590891e-07 2.723386660376e-07 -1.505307749007e-02
-2.719662798468e-07 2.719662724021e-07 -1.505371171365e-02
1.929234297075e-14 2.685216346997e-07 -1.505395490173e-02
2.719663184330e-07 2.719662743723e-07 -1.505371171365e-02
5.026892976689e-07 2.723386699708e-07 -1.505307749007e-02
-5.070007240099e-07 5.070007145809e-07 -1.505243610160e-02
-2.723386754474e-07 5.026892516442e-07 -1.505307749007e-02
1.831088203907e-14 4.978650561890e-07 -1.505332653486e-02
2.723387120645e-07 5.026892536116e-07 -1.505307749007e-02
5.070007606192e-07 5.070007185174e-07 -1.505243610160e-02
-1.153157280941e-07 -1.153157779817e-07 -1.505264886876e-02
-4.009455175025e-08 -1.175091650142e-07 -1.505329008210e-02
2.215989964487e-14 -1.198234594113e-07 -1.505354728212e-02
4.009459606367e-08 -1.175091630265e-07 -1.505329008210e-02
1.153157724035e-07 -1.153157740265e-07 -1.505264886876e-02
-1.175091170809e-07 -4.009460164235e-08 -1.505329008210e-02
-4.087607476453e-08 -4.087612269839e-08 -1.505392270727e-02
2.118658208445e-14 -3.931768277981e-08 -1.505417388621e-02
4.087611714132e-08 -4.087612071366e-08 -1.505392270727e-02
1.175091594550e-07 -4.009459768966e-08 -1.505329008210e-02
-1.198234134323e-07 -2.773675669325e-14 -1.505354728212e-02
-3.931763679735e-08 -2.675459048043e-14 -1.505417388621e-02
2.022525524871e-14 -2.576144554359e-14 -1.505442315281e-02
3.931767724491e-08 -2.477423535772e-14 -1.505417388621e-02
1.198234538740e-07 -2.379700847830e-14 -1.505354728212e-02
-1.175091190098e-07 4.009454615774e-08 -1.505329008210e-02
-4.087607669975e-08 4.087606918782e-08 -1.505392270727e-02
1.925047641389e-14 3.931763124492e-08 -1.505417388621e-02
4.087611519756e-08 4.087607116191e-08 -1.505392270727e-02
1.175091575072e-07 4.009455010474e-08 -1.505329008210e-02
-1.153157319828e-07 1.153157224852e-07 -1.505264886876e-02
-4.009455564043e-08 1.175091115007e-07 -1.505329008210e-02
1.826732242848e-14 1.198234078605e-07 -1.505354728212e-02
4.009459217613e-08 1.175091134777e-07 -1.505329008210e-02
1.153157685211e-07 1.153157264428e-07 -1.505264886876e-02
SCALARS displacement_magnitude float 1
LOOKUP_TABLE default
0.000000000000e+00
0.000000000000e+00
0.000000000000e+00
0.000000000000e+00
0.000000000000e+00
0.000000000000e+00
0.000000000000e+00
0.000000000000e+00
0.000000000000e+00
0.000000000000e+00
0.000000000000e+00
0.000000000000e+00
0.000000000000e+00
0.000000000000e+00
0.000000000000e+00
0.000000000000e+00
0.000000000000e+00
0.000000000000e+00
0.000000000000e+00
0.000000000000e+00
0.000000000000e+00
0.000000000000e+00
0.000000000000e+00
0.000000000000e+00
0.000000000000e+00
0.000000000000e+00
0.000000000000e+00
0.000000000000e+00
0.000000000000e+00
0.000000000000e+00
0.000000000000e+00
0.000000000000e+00
0.000000000000e+00
0.000000000000e+00
0.000000000000e+00
0.000000000000e+00
0.000000000000e+00
0.000000000000e+00
0.000000000000e+00
0.000000000000e+00
0.000000000000e+00
0.000000000000e+00
0.000000000000e+00
0.000000000000e+00
0.000000000000e+00
0.000000000000e+00
0.000000000000e+00
0.000000000000e+00
0.000000000000e+00
0.000000000000e+00
0.000000000000e+00
0.000000000000e+00
0.000000000000e+00
0.000000000000e+00
0.000000000000e+00
0.000000000000e+00
0.000000000000e+00
0.000000000000e+00
0.000000000000e+00
0.000000000000e+00
0.000000000000e+00
0.000000000000e+00
0.000000000000e+00
0.000000000000e+00
0.000000000000e+00
0.000000000000e+00
0.000000000000e+00
0.000000000000e+00
0.000000000000e+00
0.000000000000e+00
0.000000000000e+00
0.000000000000e+00
0.000000000000e+00
0.000000000000e+00
0.000000000000e+00
0.000000000000e+00
0.000000000000e+00
0.000000000000e+00
0.000000000000e+00
0.000000000000e+00
0.000000000000e+00
0.000000000000e+00
0.000000000000e+00
0.000000000000e+00
0.000000000000e+00
0.000000000000e+00
0.000000000000e+00
0.000000000000e+00
0.000000000000e+00
0.000000000000e+00
0.000000000000e+00
0.000000000000e+00
0.000000000000e+00
0.000000000000e+00
0.000000000000e+00
0.000000000000e+00
0.000000000000e+00
0.000000000000e+00
0.000000000000e+00
0.000000000000e+00
0.000000000000e+00
0.000000000000e+00
0.000000000000e+00
0.000000000000e+00
0.000000000000e+00
0.000000000000e+00
0.000000000000e+00
0.000000000000e+00
0.000000000000e+00
0.000000000000e+00
0.000000000000e+00
0.000000000000e+00
0.000000000000e+00
0.000000000000e+00
0.000000000000e+00
0.000000000000e+00
0.000000000000e+00
0.000000000000e+00
0.000000000000e+00
0.000000000000e+00
0.000000000000e+00
0.000000000000e+00
0.000000000000e+00
0.000000000000e+00
0.000000000000e+00
1.504946136545e-02
1.505005058750e-02
1.505026905191e-02
1.505005058750e-02
1.504946136545e-02
1.505005058750e-02
1.505063084278e-02
1.505084362622e-02
1.505063084278e-02
1.505005058750e-02
1.505026905191e-02
1.505084362622e-02
1.505105569425e-02
1.505084362622e-02
1.505026905191e-02
1.505005058750e-02
1.505063084278e-02
1.505084362622e-02
1.505063084278e-02
1.505005058750e-02
1.504946136545e-02
1.505005058750e-02
1.505026905191e-02
1.505005058750e-02
1.504946136545e-02
1.505085810374e-02
1.505146925688e-02
1.505169290120e-02
1.505146925688e-02
1.505085810374e-02
1.505146925688e-02
1.505207234128e-02
1.505228938520e-02
1.505207234128e-02
1.505146925688e-02
1.505169290120e-02
1.505228938520e-02
1.505250405342e-02
1.505228938520e-02
1.505169290120e-02
1.505146925688e-02
1.505207234128e-02
1.505228938520e-02
1.505207234128e-02
1.505146925688e-02
1.505085810374e-02
1.505146925688e-02
1.505169290120e-02
1.505146925688e-02
1.505085810374e-02
1.505185096588e-02
1.505248195799e-02
1.505271301063e-02
1.505248195799e-02
1.505185096588e-02
1.505248195799e-02
1.505310677468e-02
1.505333131340e-02
1.505310677468e-02
1.505248195799e-02
1.505271301063e-02
1.505333131340e-02
1.505355269017e-02
1.505333131340e-02
1.505271301063e-02
1.505248195799e-02
1.505310677468e-02
1.505333131340e-02
1.505310677468e-02
1.505248195799e-02
1.505185096588e-02
1.505248195799e-02
1.505271301063e-02
1.505248195799e-02
1.505185096588e-02
1.505243611868e-02
1.505307750093e-02
1.505332654309e-02
1.505307750092e-02
1.505243611868e-02
1.505307750093e-02
1.505371171856e-02
1.505395490412e-02
1.505371171856e-02
1.505307750092e-02
1.505332654309e-02
1.505395490412e-02
1.505419609468e-02
1.505395490412e-02
1.505332654309e-02
1.505307750093e-02
1.505371171856e-02
1.505395490412e-02
1.505371171856e-02
1.505307750092e-02
1.505243611868e-02
1.505307750093e-02
1.505332654309e-02
1.505307750092e-02
1.505243611868e-02
1.505264886964e-02
1.505329008262e-02
1.505354728260e-02
1.505329008261e-02
1.505264886964e-02
1.505329008262e-02
1.505392270738e-02
1.505417388626e-02
1.505392270738e-02
1.505329008261e-02
1.505354728260e-02
1.505417388626e-02
1.505442315281e-02
1.505417388626e-02
1.505354728260e-02
1.505329008262e-02
1.505392270738e-02
1.505417388626e-02
1.505392270738e-02
1.505329008261e-02
1.505264886964e-02
1.505329008261e-02
1.505354728260e-02
1.505329008261e-02
1.505264886964e-02
CELL_DATA 128
SCALARS displacement_magnitude float 1
LOOKUP_TABLE default
0.000000000000e+00
0.000000000000e+00
0.000000000000e+00
0.000000000000e+00
0.000000000000e+00
0.000000000000e+00
0.000000000000e+00
0.000000000000e+00
0.000000000000e+00
0.000000000000e+00
0.000000000000e+00
0.000000000000e+00
0.000000000000e+00
0.000000000000e+00
0.000000000000e+00
0.000000000000e+00
0.000000000000e+00
0.000000000000e+00
0.000000000000e+00
0.000000000000e+00
0.000000000000e+00
0.000000000000e+00
0.000000000000e+00
0.000000000000e+00
0.000000000000e+00
0.000000000000e+00
0.000000000000e+00
0.000000000000e+00
0.000000000000e+00
0.000000000000e+00
0.000000000000e+00
0.000000000000e+00
0.000000000000e+00
0.000000000000e+00
0.000000000000e+00
0.000000000000e+00
0.000000000000e+00
0.000000000000e+00
0.000000000000e+00
0.000000000000e+00
0.000000000000e+00
0.000000000000e+00
0.000000000000e+00
0.000000000000e+00
0.000000000000e+00
0.000000000000e+00
0.000000000000e+00
0.000000000000e+00
0.000000000000e+00
0.000000000000e+00
0.000000000000e+00
0.000000000000e+00
0.000000000000e+00
0.000000000000e+00
0.000000000000e+00
0.000000000000e+00
0.000000000000e+00
0.000000000000e+00
0.000000000000e+00
0.000000000000e+00
0.000000000000e+00
0.000000000000e+00
0.000000000000e+00
0.000000000000e+00
1.505075779275e-02
1.505116474912e-02
1.505116474912e-02
1.505075779275e-02
1.505116474912e-02
1.505156611932e-02
1.505156611932e-02
1.505116474912e-02
1.505116474912e-02
1.505156611932e-02
1.505156611932e-02
1.505116474912e-02
1.505075779275e-02
1.505116474912e-02
1.505116474912e-02
1.505075779275e-02
1.505197382692e-02
1.505239461766e-02
1.505239461766e-02
1.505197382692e-02
1.505239461766e-02
1.505280965709e-02
1.505280965709e-02
1.505239461766e-02
1.505239461766e-02
1.505280965709e-02
1.505280965709e-02
1.505239461766e-02
1.505197382692e-02
1.505239461766e-02
1.505239461766e-02
1.505197382692e-02
1.505277806195e-02
1.505321296543e-02
1.505321296543e-02
1.505277806195e-02
1.505321296543e-02
1.505364246414e-02
1.505364246414e-02
1.505321296543e-02
1.505321296543e-02
1.505364246414e-02
1.505364246414e-02
1.505321296543e-02
1.505277806195e-02
1.505321296543e-02
1.505321296543e-02
1.505277806195e-02
1.505318182267e-02
1.505362557819e-02
1.505362557819e-02
1.505318182267e-02
1.505362557819e-02
1.505406390677e-02
1.505406390677e-02
1.505362557819e-02
1.505362557819e-02
1.505406390677e-02
1.505406390677e-02
1.505362557819e-02
1.505318182267e-02
1.505362557819e-02
1.505362557819e-02
1.505318182267e-02
SCALARS engineering_strain_norm float 1
LOOKUP_TABLE default
0.000000000000e+00
0.000000000000e+00
0.000000000000e+00
0.000000000000e+00
0.000000000000e+00
0.000000000000e+00
0.000000000000e+00
0.000000000000e+00
0.000000000000e+00
0.000000000000e+00
0.000000000000e+00
0.000000000000e+00
0.000000000000e+00
0.000000000000e+00
0.000000000000e+00
0.000000000000e+00
0.000000000000e+00
0.000000000000e+00
0.000000000000e+00
0.000000000000e+00
0.000000000000e+00
0.000000000000e+00
0.000000000000e+00
0.000000000000e+00
0.000000000000e+00
0.000000000000e+00
0.000000000000e+00
0.000000000000e+00
0.000000000000e+00
0.000000000000e+00
0.000000000000e+00
0.000000000000e+00
0.000000000000e+00
0.000000000000e+00
0.000000000000e+00
0.000000000000e+00
0.000000000000e+00
0.000000000000e+00
0.000000000000e+00
0.000000000000e+00
0.000000000000e+00
0.000000000000e+00
0.000000000000e+00
0.000000000000e+00
0.000000000000e+00
0.000000000000e+00
0.000000000000e+00
0.000000000000e+00
0.000000000000e+00
0.000000000000e+00
0.000000000000e+00
0.000000000000e+00
0.000000000000e+00
0.000000000000e+00
0.000000000000e+00
0.000000000000e+00
0.000000000000e+00
0.000000000000e+00
0.000000000000e+00
0.000000000000e+00
0.000000000000e+00
0.000000000000e+00
0.000000000000e+00
0.000000000000e+00
2.356041559630e-05
2.378369443837e-05
2.378369443823e-05
2.356041559611e-05
2.378369443841e-05
2.397732564523e-05
2.397732564521e-05
2.378369443829e-05
2.378369443835e-05
2.397732564526e-05
2.397732564522e-05
2.378369443825e-05
2.356041559622e-05
2.378369443830e-05
2.378369443829e-05
2.356041559612e-05
1.691145219685e-05
1.713542380944e-05
1.713542380944e-05
1.691145219670e-05
1.713542380943e-05
1.734605850399e-05
1.734605850402e-05
1.713542380938e-05
1.713542380947e-05
1.734605850406e-05
1.734605850401e-05
1.713542380934e-05
1.691145219670e-05
1.713542380939e-05
1.713542380944e-05
1.691145219661e-05
9.962344302238e-06
1.023590264594e-05
1.023590264593e-05
9.962344302106e-06
1.023590264597e-05
1.050722601006e-05
1.050722601009e-05
1.023590264591e-05
1.023590264602e-05
1.050722601009e-05
1.050722601012e-05
1.023590264587e-05
9.962344302192e-06
1.023590264590e-05
1.023590264591e-05
9.962344302051e-06
3.731705666205e-06
3.778279704329e-06
3.778279704381e-06
3.731705666138e-06
3.778279704391e-06
3.809731374525e-06
3.809731374528e-06
3.778279704343e-06
3.778279704383e-06
3.809731374504e-06
3.809731374438e-06
3.778279704272e-06
3.731705666162e-06
3.778279704357e-06
3.778279704322e-06
3.731705666132e-06
SCALARS von_mises float 1
LOOKUP_TABLE default
0.000000000000e+00
0.000000000000e+00
0.000000000000e+00
0.000000000000e+00
0.000000000000e+00
0.000000000000e+00
0.000000000000e+00
0.000000000000e+00
0.000000000000e+00
0.000000000000e+00
0.000000000000e+00
0.000000000000e+00
0.000000000000e+00
0.000000000000e+00
0.000000000000e+00
0.000000000000e+00
0.000000000000e+00
0.000000000000e+00
0.000000000000e+00
0.000000000000e+00
0.000000000000e+00
0.000000000000e+00
0.000000000000e+00
0.000000000000e+00
0.000000000000e+00
0.000000000000e+00
0.000000000000e+00
0.000000000000e+00
0.000000000000e+00
0.000000000000e+00
0.000000000000e+00
0.000000000000e+00
0.000000000000e+00
0.000000000000e+00
0.000000000000e+00
0.000000000000e+00
0.000000000000e+00
0.000000000000e+00
0.000000000000e+00
0.000000000000e+00
0.000000000000e+00
0.000000000000e+00
0.000000000000e+00
0.000000000000e+00
0.000000000000e+00
0.000000000000e+00
0.000000000000e+00
0.000000000000e+00
0.000000000000e+00
0.000000000000e+00
0.000000000000e+00
0.000000000000e+00
0.000000000000e+00
0.000000000000e+00
0.000000000000e+00
0.000000000000e+00
0.000000000000e+00
0.000000000000e+00
0.000000000000e+00
0.000000000000e+00
0.000000000000e+00
0.000000000000e+00
0.000000000000e+00
0.000000000000e+00
2.161038162064e+00
2.181520308671e+00
2.181520308658e+00
2.161038162046e+00
2.181520308675e+00
2.198327708338e+00
2.198327708336e+00
2.181520308664e+00
2.181520308670e+00
2.198327708341e+00
2.198327708337e+00
2.181520308661e+00
2.161038162056e+00
2.181520308666e+00
2.181520308664e+00
2.161038162047e+00
1.555775176866e+00
1.575687730706e+00
1.575687730705e+00
1.555775176852e+00
1.575687730705e+00
1.593572787968e+00
1.593572787969e+00
1.575687730700e+00
1.575687730708e+00
1.593572787974e+00
1.593572787969e+00
1.575687730697e+00
1.555775176853e+00
1.575687730701e+00
1.575687730705e+00
1.555775176844e+00
9.177239392398e-01
9.442657759780e-01
9.442657759767e-01
9.177239392279e-01
9.442657759806e-01
9.704511096068e-01
9.704511096090e-01
9.442657759745e-01
9.442657759843e-01
9.704511096099e-01
9.704511096123e-01
9.442657759710e-01
9.177239392356e-01
9.442657759741e-01
9.442657759752e-01
9.177239392227e-01
3.475115268710e-01
3.520213074928e-01
3.520213074973e-01
3.475115268643e-01
3.520213074979e-01
3.551663406851e-01
3.551663406856e-01
3.520213074933e-01
3.520213074970e-01
3.551663406834e-01
3.551663406776e-01
3.520213074868e-01
3.475115268664e-01
3.520213074946e-01
3.520213074915e-01
3.475115268643e-01
SCALARS sdf_gap float 1
LOOKUP_TABLE default
0.000000000000e+00
0.000000000000e+00
0.000000000000e+00
0.000000000000e+00
0.000000000000e+00
0.000000000000e+00
0.000000000000e+00
0.000000000000e+00
0.000000000000e+00
0.000000000000e+00
0.000000000000e+00
0.000000000000e+00
0.000000000000e+00
0.000000000000e+00
0.000000000000e+00
0.000000000000e+00
0.000000000000e+00
0.000000000000e+00
0.000000000000e+00
0.000000000000e+00
0.000000000000e+00
0.000000000000e+00
0.000000000000e+00
0.000000000000e+00
0.000000000000e+00
0.000000000000e+00
0.000000000000e+00
0.000000000000e+00
0.000000000000e+00
0.000000000000e+00
0.000000000000e+00
0.000000000000e+00
0.000000000000e+00
0.000000000000e+00
0.000000000000e+00
0.000000000000e+00
0.000000000000e+00
0.000000000000e+00
0.000000000000e+00
0.000000000000e+00
0.000000000000e+00
0.000000000000e+00
0.000000000000e+00
0.000000000000e+00
0.000000000000e+00
0.000000000000e+00
0.000000000000e+00
0.000000000000e+00
0.000000000000e+00
0.000000000000e+00
0.000000000000e+00
0.000000000000e+00
0.000000000000e+00
0.000000000000e+00
0.000000000000e+00
0.000000000000e+00
0.000000000000e+00
0.000000000000e+00
0.000000000000e+00
0.000000000000e+00
0.000000000000e+00
0.000000000000e+00
0.000000000000e+00
0.000000000000e+00
-5.004821477014e-05
-5.044844870784e-05
-5.044844870774e-05
-5.004821476985e-05
-5.044844870790e-05
-5.084342065616e-05
-5.084342065606e-05
-5.044844870765e-05
-5.044844870786e-05
-5.084342065612e-05
-5.084342065606e-05
-5.044844870763e-05
-5.004821477000e-05
-5.044844870774e-05
-5.044844870765e-05
-5.004821476981e-05
0.000000000000e+00
0.000000000000e+00
0.000000000000e+00
0.000000000000e+00
0.000000000000e+00
0.000000000000e+00
0.000000000000e+00
0.000000000000e+00
0.000000000000e+00
0.000000000000e+00
0.000000000000e+00
0.000000000000e+00
0.000000000000e+00
0.000000000000e+00
0.000000000000e+00
0.000000000000e+00
0.000000000000e+00
0.000000000000e+00
0.000000000000e+00
0.000000000000e+00
0.000000000000e+00
0.000000000000e+00
0.000000000000e+00
0.000000000000e+00
0.000000000000e+00
0.000000000000e+00
0.000000000000e+00
0.000000000000e+00
0.000000000000e+00
0.000000000000e+00
0.000000000000e+00
0.000000000000e+00
0.000000000000e+00
0.000000000000e+00
0.000000000000e+00
0.000000000000e+00
0.000000000000e+00
0.000000000000e+00
0.000000000000e+00
0.000000000000e+00
0.000000000000e+00
0.000000000000e+00
0.000000000000e+00
0.000000000000e+00
0.000000000000e+00
0.000000000000e+00
0.000000000000e+00
0.000000000000e+00
SCALARS contact_pressure float 1
LOOKUP_TABLE default
0.000000000000e+00
0.000000000000e+00
0.000000000000e+00
0.000000000000e+00
0.000000000000e+00
0.000000000000e+00
0.000000000000e+00
0.000000000000e+00
0.000000000000e+00
0.000000000000e+00
0.000000000000e+00
0.000000000000e+00
0.000000000000e+00
0.000000000000e+00
0.000000000000e+00
0.000000000000e+00
0.000000000000e+00
0.000000000000e+00
0.000000000000e+00
0.000000000000e+00
0.000000000000e+00
0.000000000000e+00
0.000000000000e+00
0.000000000000e+00
0.000000000000e+00
0.000000000000e+00
0.000000000000e+00
0.000000000000e+00
0.000000000000e+00
0.000000000000e+00
0.000000000000e+00
0.000000000000e+00
0.000000000000e+00
0.000000000000e+00
0.000000000000e+00
0.000000000000e+00
0.000000000000e+00
0.000000000000e+00
0.000000000000e+00
0.000000000000e+00
0.000000000000e+00
0.000000000000e+00
0.000000000000e+00
0.000000000000e+00
0.000000000000e+00
0.000000000000e+00
0.000000000000e+00
0.000000000000e+00
0.000000000000e+00
0.000000000000e+00
0.000000000000e+00
0.000000000000e+00
0.000000000000e+00
0.000000000000e+00
0.000000000000e+00
0.000000000000e+00
0.000000000000e+00
0.000000000000e+00
0.000000000000e+00
0.000000000000e+00
0.000000000000e+00
0.000000000000e+00
0.000000000000e+00
0.000000000000e+00
2.502410738507e+00
2.522422435392e+00
2.522422435387e+00
2.502410738492e+00
2.522422435395e+00
2.542171032808e+00
2.542171032803e+00
2.522422435382e+00
2.522422435393e+00
2.542171032806e+00
2.542171032803e+00
2.522422435381e+00
2.502410738500e+00
2.522422435387e+00
2.522422435382e+00
2.502410738490e+00
0.000000000000e+00
0.000000000000e+00
0.000000000000e+00
0.000000000000e+00
0.000000000000e+00
0.000000000000e+00
0.000000000000e+00
0.000000000000e+00
0.000000000000e+00
0.000000000000e+00
0.000000000000e+00
0.000000000000e+00
0.000000000000e+00
0.000000000000e+00
0.000000000000e+00
0.000000000000e+00
0.000000000000e+00
0.000000000000e+00
0.000000000000e+00
0.000000000000e+00
0.000000000000e+00
0.000000000000e+00
0.000000000000e+00
0.000000000000e+00
0.000000000000e+00
0.000000000000e+00
0.000000000000e+00
0.000000000000e+00
0.000000000000e+00
0.000000000000e+00
0.000000000000e+00
0.000000000000e+00
0.000000000000e+00
0.000000000000e+00
0.000000000000e+00
0.000000000000e+00
0.000000000000e+00
0.000000000000e+00
0.000000000000e+00
0.000000000000e+00
0.000000000000e+00
0.000000000000e+00
0.000000000000e+00
0.000000000000e+00
0.000000000000e+00
0.000000000000e+00
0.000000000000e+00
0.000000000000e+00
SCALARS active_contact float 1
LOOKUP_TABLE default
0.000000000000e+00
0.000000000000e+00
0.000000000000e+00
0.000000000000e+00
0.000000000000e+00
0.000000000000e+00
0.000000000000e+00
0.000000000000e+00
0.000000000000e+00
0.000000000000e+00
0.000000000000e+00
0.000000000000e+00
0.000000000000e+00
0.000000000000e+00
0.000000000000e+00
0.000000000000e+00
0.000000000000e+00
0.000000000000e+00
0.000000000000e+00
0.000000000000e+00
0.000000000000e+00
0.000000000000e+00
0.000000000000e+00
0.000000000000e+00
0.000000000000e+00
0.000000000000e+00
0.000000000000e+00
0.000000000000e+00
0.000000000000e+00
0.000000000000e+00
0.000000000000e+00
0.000000000000e+00
0.000000000000e+00
0.000000000000e+00
0.000000000000e+00
0.000000000000e+00
0.000000000000e+00
0.000000000000e+00
0.000000000000e+00
0.000000000000e+00
0.000000000000e+00
0.000000000000e+00
0.000000000000e+00
0.000000000000e+00
0.000000000000e+00
0.000000000000e+00
0.000000000000e+00
0.000000000000e+00
0.000000000000e+00
0.000000000000e+00
0.000000000000e+00
0.000000000000e+00
0.000000000000e+00
0.000000000000e+00
0.000000000000e+00
0.000000000000e+00
0.000000000000e+00
0.000000000000e+00
0.000000000000e+00
0.000000000000e+00
0.000000000000e+00
0.000000000000e+00
0.000000000000e+00
0.000000000000e+00
1.000000000000e+00
1.000000000000e+00
1.000000000000e+00
1.000000000000e+00
1.000000000000e+00
1.000000000000e+00
1.000000000000e+00
1.000000000000e+00
1.000000000000e+00
1.000000000000e+00
1.000000000000e+00
1.000000000000e+00
1.000000000000e+00
1.000000000000e+00
1.000000000000e+00
1.000000000000e+00
0.000000000000e+00
0.000000000000e+00
0.000000000000e+00
0.000000000000e+00
0.000000000000e+00
0.000000000000e+00
0.000000000000e+00
0.000000000000e+00
0.000000000000e+00
0.000000000000e+00
0.000000000000e+00
0.000000000000e+00
0.000000000000e+00
0.000000000000e+00
0.000000000000e+00
0.000000000000e+00
0.000000000000e+00
0.000000000000e+00
0.000000000000e+00
0.000000000000e+00
0.000000000000e+00
0.000000000000e+00
0.000000000000e+00
0.000000000000e+00
0.000000000000e+00
0.000000000000e+00
0.000000000000e+00
0.000000000000e+00
0.000000000000e+00
0.000000000000e+00
0.000000000000e+00
0.000000000000e+00
0.000000000000e+00
0.000000000000e+00
0.000000000000e+00
0.000000000000e+00
0.000000000000e+00
0.000000000000e+00
0.000000000000e+00
0.000000000000e+00
0.000000000000e+00
0.000000000000e+00
0.000000000000e+00
0.000000000000e+00
0.000000000000e+00
0.000000000000e+00
0.000000000000e+00
0.000000000000e+00
