# vtk DataFile Version 3.0
SFC long-time C3D8 dynamic frame 64 t=1.280000000000e+00
ASCII
DATASET UNSTRUCTURED_GRID
POINTS 250 float
-2.500000000000e-01 -2.500000000000e-01 0.000000000000e+00
-1.250000000000e-01 -2.500000000000e-01 0.000000000000e+00
0.000000000000e+00 -2.500000000000e-01 0.000000000000e+00
1.250000000000e-01 -2.500000000000e-01 0.000000000000e+00
2.500000000000e-01 -2.500000000000e-01 0.000000000000e+00
-2.500000000000e-01 -1.250000000000e-01 0.000000000000e+00
-1.250000000000e-01 -1.250000000000e-01 0.000000000000e+00
0.000000000000e+00 -1.250000000000e-01 0.000000000000e+00
1.250000000000e-01 -1.250000000000e-01 0.000000000000e+00
2.500000000000e-01 -1.250000000000e-01 0.000000000000e+00
-2.500000000000e-01 0.000000000000e+00 0.000000000000e+00
-1.250000000000e-01 0.000000000000e+00 0.000000000000e+00
0.000000000000e+00 0.000000000000e+00 0.000000000000e+00
1.250000000000e-01 0.000000000000e+00 0.000000000000e+00
2.500000000000e-01 0.000000000000e+00 0.000000000000e+00
-2.500000000000e-01 1.250000000000e-01 0.000000000000e+00
-1.250000000000e-01 1.250000000000e-01 0.000000000000e+00
0.000000000000e+00 1.250000000000e-01 0.000000000000e+00
1.250000000000e-01 1.250000000000e-01 0.000000000000e+00
2.500000000000e-01 1.250000000000e-01 0.000000000000e+00
-2.500000000000e-01 2.500000000000e-01 0.000000000000e+00
-1.250000000000e-01 2.500000000000e-01 0.000000000000e+00
0.000000000000e+00 2.500000000000e-01 0.000000000000e+00
1.250000000000e-01 2.500000000000e-01 0.000000000000e+00
2.500000000000e-01 2.500000000000e-01 0.000000000000e+00
-2.500000000000e-01 -2.500000000000e-01 6.000000000000e-02
-1.250000000000e-01 -2.500000000000e-01 6.000000000000e-02
0.000000000000e+00 -2.500000000000e-01 6.000000000000e-02
1.250000000000e-01 -2.500000000000e-01 6.000000000000e-02
2.500000000000e-01 -2.500000000000e-01 6.000000000000e-02
-2.500000000000e-01 -1.250000000000e-01 6.000000000000e-02
-1.250000000000e-01 -1.250000000000e-01 6.000000000000e-02
0.000000000000e+00 -1.250000000000e-01 6.000000000000e-02
1.250000000000e-01 -1.250000000000e-01 6.000000000000e-02
2.500000000000e-01 -1.250000000000e-01 6.000000000000e-02
-2.500000000000e-01 0.000000000000e+00 6.000000000000e-02
-1.250000000000e-01 0.000000000000e+00 6.000000000000e-02
0.000000000000e+00 0.000000000000e+00 6.000000000000e-02
1.250000000000e-01 0.000000000000e+00 6.000000000000e-02
2.500000000000e-01 0.000000000000e+00 6.000000000000e-02
-2.500000000000e-01 1.250000000000e-01 6.000000000000e-02
-1.250000000000e-01 1.250000000000e-01 6.000000000000e-02
0.000000000000e+00 1.250000000000e-01 6.000000000000e-02
1.250000000000e-01 1.250000000000e-01 6.000000000000e-02
2.500000000000e-01 1.250000000000e-01 6.000000000000e-02
-2.500000000000e-01 2.500000000000e-01 6.000000000000e-02
-1.250000000000e-01 2.500000000000e-01 6.000000000000e-02
0.000000000000e+00 2.500000000000e-01 6.000000000000e-02
1.250000000000e-01 2.500000000000e-01 6.000000000000e-02
2.500000000000e-01 2.500000000000e-01 6.000000000000e-02
-2.500000000000e-01 -2.500000000000e-01 1.200000000000e-01
-1.250000000000e-01 -2.500000000000e-01 1.200000000000e-01
0.000000000000e+00 -2.500000000000e-01 1.200000000000e-01
1.250000000000e-01 -2.500000000000e-01 1.200000000000e-01
2.500000000000e-01 -2.500000000000e-01 1.200000000000e-01
-2.500000000000e-01 -1.250000000000e-01 1.200000000000e-01
-1.250000000000e-01 -1.250000000000e-01 1.200000000000e-01
0.000000000000e+00 -1.250000000000e-01 1.200000000000e-01
1.250000000000e-01 -1.250000000000e-01 1.200000000000e-01
2.500000000000e-01 -1.250000000000e-01 1.200000000000e-01
-2.500000000000e-01 0.000000000000e+00 1.200000000000e-01
-1.250000000000e-01 0.000000000000e+00 1.200000000000e-01
0.000000000000e+00 0.000000000000e+00 1.200000000000e-01
1.250000000000e-01 0.000000000000e+00 1.200000000000e-01
2.500000000000e-01 0.000000000000e+00 1.200000000000e-01
-2.500000000000e-01 1.250000000000e-01 1.200000000000e-01
-1.250000000000e-01 1.250000000000e-01 1.200000000000e-01
0.000000000000e+00 1.250000000000e-01 1.200000000000e-01
1.250000000000e-01 1.250000000000e-01 1.200000000000e-01
2.500000000000e-01 1.250000000000e-01 1.200000000000e-01
-2.500000000000e-01 2.500000000000e-01 1.200000000000e-01
-1.250000000000e-01 2.500000000000e-01 1.200000000000e-01
0.000000000000e+00 2.500000000000e-01 1.200000000000e-01
1.250000000000e-01 2.500000000000e-01 1.200000000000e-01
2.500000000000e-01 2.500000000000e-01 1.200000000000e-01
-2.500000000000e-01 -2.500000000000e-01 1.800000000000e-01
-1.250000000000e-01 -2.500000000000e-01 1.800000000000e-01
0.000000000000e+00 -2.500000000000e-01 1.800000000000e-01
1.250000000000e-01 -2.500000000000e-01 1.800000000000e-01
2.500000000000e-01 -2.500000000000e-01 1.800000000000e-01
-2.500000000000e-01 -1.250000000000e-01 1.800000000000e-01
-1.250000000000e-01 -1.250000000000e-01 1.800000000000e-01
0.000000000000e+00 -1.250000000000e-01 1.800000000000e-01
1.250000000000e-01 -1.250000000000e-01 1.800000000000e-01
2.500000000000e-01 -1.250000000000e-01 1.800000000000e-01
-2.500000000000e-01 0.000000000000e+00 1.800000000000e-01
-1.250000000000e-01 0.000000000000e+00 1.800000000000e-01
0.000000000000e+00 0.000000000000e+00 1.800000000000e-01
1.250000000000e-01 0.000000000000e+00 1.800000000000e-01
2.500000000000e-01 0.000000000000e+00 1.800000000000e-01
-2.500000000000e-01 1.250000000000e-01 1.800000000000e-01
-1.250000000000e-01 1.250000000000e-01 1.800000000000e-01
0.000000000000e+00 1.250000000000e-01 1.800000000000e-01
1.250000000000e-01 1.250000000000e-01 1.800000000000e-01
2.500000000000e-01 1.250000000000e-01 1.800000000000e-01
-2.500000000000e-01 2.500000000000e-01 1.800000000000e-01
-1.250000000000e-01 2.500000000000e-01 1.800000000000e-01
0.000000000000e+00 2.500000000000e-01 1.800000000000e-01
1.250000000000e-01 2.500000000000e-01 1.800000000000e-01
2.500000000000e-01 2.500000000000e-01 1.800000000000e-01
-2.500000000000e-01 -2.500000000000e-01 2.400000000000e-01
-1.250000000000e-01 -2.500000000000e-01 2.400000000000e-01
0.000000000000e+00 -2.500000000000e-01 2.400000000000e-01
1.250000000000e-01 -2.500000000000e-01 2.400000000000e-01
2.500000000000e-01 -2.500000000000e-01 2.400000000000e-01
-2.500000000000e-01 -1.250000000000e-01 2.400000000000e-01
-1.250000000000e-01 -1.250000000000e-01 2.400000000000e-01
0.000000000000e+00 -1.250000000000e-01 2.400000000000e-01
1.250000000000e-01 -1.250000000000e-01 2.400000000000e-01
2.500000000000e-01 -1.250000000000e-01 2.400000000000e-01
-2.500000000000e-01 0.000000000000e+00 2.400000000000e-01
-1.250000000000e-01 0.000000000000e+00 2.400000000000e-01
0.000000000000e+00 0.000000000000e+00 2.400000000000e-01
1.250000000000e-01 0.000000000000e+00 2.400000000000e-01
2.500000000000e-01 0.000000000000e+00 2.400000000000e-01
-2.500000000000e-01 1.250000000000e-01 2.400000000000e-01
-1.250000000000e-01 1.250000000000e-01 2.400000000000e-01
0.000000000000e+00 1.250000000000e-01 2.400000000000e-01
1.250000000000e-01 1.250000000000e-01 2.400000000000e-01
2.500000000000e-01 1.250000000000e-01 2.400000000000e-01
-2.500000000000e-01 2.500000000000e-01 2.400000000000e-01
-1.250000000000e-01 2.500000000000e-01 2.400000000000e-01
0.000000000000e+00 2.500000000000e-01 2.400000000000e-01
1.250000000000e-01 2.500000000000e-01 2.400000000000e-01
2.500000000000e-01 2.500000000000e-01 2.400000000000e-01
-2.499999731962e-01 -2.499999732380e-01 2.450704476481e-01
-1.249999817071e-01 -2.499999747163e-01 2.450704604126e-01
6.507028327164e-11 -2.499999767420e-01 2.450704665719e-01
1.249999818372e-01 -2.499999747163e-01 2.450704605373e-01
2.499999733263e-01 -2.499999732382e-01 2.450704478977e-01
-2.499999746743e-01 -1.249999817490e-01 2.450704603729e-01
-1.249999818399e-01 -1.249999818819e-01 2.450704720500e-01
6.509924430679e-11 -1.249999825932e-01 2.450704775813e-01
1.249999819701e-01 -1.249999818819e-01 2.450704721747e-01
2.499999748045e-01 -1.249999817491e-01 2.450704606224e-01
-2.499999767000e-01 2.318209872548e-11 2.450704664925e-01
-1.249999825512e-01 2.315239345063e-11 2.450704775416e-01
6.512854042694e-11 2.312281948236e-11 2.450704829170e-01
1.249999826815e-01 2.309340300011e-11 2.450704776664e-01
2.499999768303e-01 2.306409576024e-11 2.450704667421e-01
-2.499999746743e-01 1.249999817954e-01 2.450704604182e-01
-1.249999818399e-01 1.249999819282e-01 2.450704720954e-01
6.515828286087e-11 1.249999826395e-01 2.450704776267e-01
1.249999819702e-01 1.249999819281e-01 2.450704722201e-01
2.499999748046e-01 1.249999817952e-01 2.450704606678e-01
-2.499999731960e-01 2.499999732844e-01 2.450704477389e-01
-1.249999817070e-01 2.499999747626e-01 2.450704605033e-01
6.518834196236e-11 2.499999767883e-01 2.450704666627e-01
1.249999818374e-01 2.499999747625e-01 2.450704606281e-01
2.499999733264e-01 2.499999732843e-01 2.450704479884e-01
-2.499999792146e-01 -2.499999792358e-01 3.100704523656e-01
-1.249999864311e-01 -2.499999801054e-01 3.100704661333e-01
3.262997482499e-11 -2.499999815418e-01 3.100704732450e-01
1.249999864963e-01 -2.499999801055e-01 3.100704662581e-01
2.499999792798e-01 -2.499999792359e-01 3.100704526152e-01
-2.499999800841e-01 -1.249999864523e-01 3.100704660936e-01
-1.249999863952e-01 -1.249999864165e-01 3.100704791214e-01
3.265891076325e-11 -1.249999869149e-01 3.100704858353e-01
1.249999864605e-01 -1.249999864166e-01 3.100704792461e-01
2.499999801495e-01 -1.249999864524e-01 3.100704663431e-01
-2.499999815204e-01 1.138394311201e-11 3.100704731656e-01
-1.249999868935e-01 1.135422460270e-11 3.100704857956e-01
3.268817916372e-11 1.132463572299e-11 3.100704925066e-01
1.249999869589e-01 1.129522070274e-11 3.100704859204e-01
2.499999815858e-01 1.126591899013e-11 3.100704734152e-01
-2.499999800841e-01 1.249999864751e-01 3.100704661390e-01
-1.249999863952e-01 1.249999864392e-01 3.100704791667e-01
3.271793607553e-11 1.249999869375e-01 3.100704858807e-01
1.249999864606e-01 1.249999864392e-01 3.100704792915e-01
2.499999801495e-01 1.249999864750e-01 3.100704663885e-01
-2.499999792145e-01 2.499999792586e-01 3.100704524564e-01
-1.249999864309e-01 2.499999801281e-01 3.100704662240e-01
3.274801796413e-11 2.499999815644e-01 3.100704733358e-01
1.249999864964e-01 2.499999801281e-01 3.100704663488e-01
2.499999792799e-01 2.499999792585e-01 3.100704527059e-01
-2.499999849870e-01 -2.499999849876e-01 3.750704583599e-01
-1.249999906209e-01 -2.499999853929e-01 3.750704729854e-01
1.892873938123e-13 -2.499999862659e-01 3.750704805175e-01
1.249999906213e-01 -2.499999853930e-01 3.750704731101e-01
2.499999849874e-01 -2.499999849877e-01 3.750704586094e-01
-2.499999853923e-01 -1.249999906215e-01 3.750704729457e-01
-1.249999906028e-01 -1.249999906034e-01 3.750704870609e-01
2.182896018348e-13 -1.249999908963e-01 3.750704943118e-01
1.249999906032e-01 -1.249999906035e-01 3.750704871857e-01
2.499999853927e-01 -1.249999906217e-01 3.750704731952e-01
-2.499999862652e-01 -4.143609953630e-13 3.750704804381e-01
-1.249999908956e-01 -4.440521108872e-13 3.750704942721e-01
2.475524979022e-13 -4.736496225868e-13 3.750705015979e-01
1.249999908961e-01 -5.030670445369e-13 3.750704943969e-01
2.499999862657e-01 -5.323922849110e-13 3.750704806877e-01
-2.499999853922e-01 1.249999906207e-01 3.750704729911e-01
-1.249999906027e-01 1.249999906025e-01 3.750704871063e-01
2.773044877939e-13 1.249999908954e-01 3.750704943572e-01
1.249999906032e-01 1.249999906025e-01 3.750704872311e-01
2.499999853928e-01 1.249999906206e-01 3.750704732406e-01
-2.499999849869e-01 2.499999849868e-01 3.750704584507e-01
-1.249999906208e-01 2.499999853920e-01 3.750704730761e-01
3.073185046475e-13 2.499999862649e-01 3.750704806083e-01
1.249999906214e-01 2.499999853920e-01 3.750704732009e-01
2.499999849875e-01 2.499999849867e-01 3.750704587002e-01
-2.499999921757e-01 -2.499999921557e-01 4.400704626861e-01
-1.249999951918e-01 -2.499999922527e-01 4.400704781697e-01
-3.225155554987e-11 -2.499999926131e-01 4.400704858793e-01
1.249999951273e-01 -2.499999922528e-01 4.400704782945e-01
2.499999921112e-01 -2.499999921558e-01 4.400704629356e-01
-2.499999922727e-01 -1.249999951717e-01 4.400704781300e-01
-1.249999951844e-01 -1.249999951644e-01 4.400704931774e-01
-3.222248682908e-11 -1.249999952776e-01 4.400705006510e-01
1.249999951199e-01 -1.249999951644e-01 4.400704933022e-01
2.499999922082e-01 -1.249999951719e-01 4.400704783796e-01
-2.499999926330e-01 -1.221271908348e-11 4.400704857999e-01
-1.249999952975e-01 -1.224238673304e-11 4.400705006113e-01
-3.219323759498e-11 -1.227199180742e-11 4.400705081959e-01
1.249999952331e-01 -1.230141144297e-11 4.400705007360e-01
2.499999925686e-01 -1.233075966974e-11 4.400704860494e-01
-2.499999922726e-01 1.249999951473e-01 4.400704781754e-01
-1.249999951843e-01 1.249999951399e-01 4.400704932228e-01
-3.216348133381e-11 1.249999952531e-01 4.400705006963e-01
1.249999951200e-01 1.249999951398e-01 4.400704933476e-01
2.499999922083e-01 1.249999951472e-01 4.400704784249e-01
-2.499999921756e-01 2.499999921312e-01 4.400704627768e-01
-1.249999951917e-01 2.499999922282e-01 4.400704782605e-01
-3.213353455859e-11 2.499999925885e-01 4.400704859701e-01
1.249999951274e-01 2.499999922282e-01 4.400704783852e-01
2.499999921113e-01 2.499999921311e-01 4.400704630264e-01
-2.500000004402e-01 -2.500000003995e-01 5.050704643828e-01
-1.250000009437e-01 -2.500000001539e-01 5.050704801575e-01
-6.469215867596e-11 -2.500000000449e-01 5.050704878414e-01
1.250000008143e-01 -2.500000001539e-01 5.050704802823e-01
2.500000003108e-01 -2.500000003996e-01 5.050704646324e-01
-2.500000001945e-01 -1.250000009030e-01 5.050704801178e-01
-1.250000008797e-01 -1.250000008391e-01 5.050704954371e-01
-6.466312882086e-11 -1.250000008533e-01 5.050705028775e-01
1.250000007504e-01 -1.250000008391e-01 5.050704955618e-01
2.500000000652e-01 -1.250000009031e-01 5.050704803674e-01
-2.500000000854e-01 -2.401098231628e-11 5.050704877620e-01
-1.250000008938e-01 -2.404066699727e-11 5.050705028378e-01
-6.463393611218e-11 -2.407029606284e-11 5.050705103791e-01
1.250000007645e-01 -2.409970621775e-11 5.050705029625e-01
2.499999999561e-01 -2.412904252368e-11 5.050704880115e-01
-2.500000001944e-01 1.250000008550e-01 5.050704801632e-01
-1.250000008796e-01 1.250000007910e-01 5.050704954825e-01
-6.460414116787e-11 1.250000008051e-01 5.050705029228e-01
1.250000007504e-01 1.250000007909e-01 5.050704956072e-01
2.500000000652e-01 1.250000008549e-01 5.050704804127e-01
-2.500000004401e-01 2.500000003515e-01 5.050704644736e-01
-1.250000009436e-01 2.500000001058e-01 5.050704802483e-01
-6.457415546491e-11 2.499999999967e-01 5.050704879321e-01
1.250000008144e-01 2.500000001057e-01 5.050704803730e-01
2.500000003109e-01 2.500000003514e-01 5.050704647231e-01
CELLS 128 1152
8 0 1 6 5 25 26 31 30
8 1 2 7 6 26 27 32 31
8 2 3 8 7 27 28 33 32
8 3 4 9 8 28 29 34 33
8 5 6 11 10 30 31 36 35
8 6 7 12 11 31 32 37 36
8 7 8 13 12 32 33 38 37
8 8 9 14 13 33 34 39 38
8 10 11 16 15 35 36 41 40
8 11 12 17 16 36 37 42 41
8 12 13 18 17 37 38 43 42
8 13 14 19 18 38 39 44 43
8 15 16 21 20 40 41 46 45
8 16 17 22 21 41 42 47 46
8 17 18 23 22 42 43 48 47
8 18 19 24 23 43 44 49 48
8 25 26 31 30 50 51 56 55
8 26 27 32 31 51 52 57 56
8 27 28 33 32 52 53 58 57
8 28 29 34 33 53 54 59 58
8 30 31 36 35 55 56 61 60
8 31 32 37 36 56 57 62 61
8 32 33 38 37 57 58 63 62
8 33 34 39 38 58 59 64 63
8 35 36 41 40 60 61 66 65
8 36 37 42 41 61 62 67 66
8 37 38 43 42 62 63 68 67
8 38 39 44 43 63 64 69 68
8 40 41 46 45 65 66 71 70
8 41 42 47 46 66 67 72 71
8 42 43 48 47 67 68 73 72
8 43 44 49 48 68 69 74 73
8 50 51 56 55 75 76 81 80
8 51 52 57 56 76 77 82 81
8 52 53 58 57 77 78 83 82
8 53 54 59 58 78 79 84 83
8 55 56 61 60 80 81 86 85
8 56 57 62 61 81 82 87 86
8 57 58 63 62 82 83 88 87
8 58 59 64 63 83 84 89 88
8 60 61 66 65 85 86 91 90
8 61 62 67 66 86 87 92 91
8 62 63 68 67 87 88 93 92
8 63 64 69 68 88 89 94 93
8 65 66 71 70 90 91 96 95
8 66 67 72 71 91 92 97 96
8 67 68 73 72 92 93 98 97
8 68 69 74 73 93 94 99 98
8 75 76 81 80 100 101 106 105
8 76 77 82 81 101 102 107 106
8 77 78 83 82 102 103 108 107
8 78 79 84 83 103 104 109 108
8 80 81 86 85 105 106 111 110
8 81 82 87 86 106 107 112 111
8 82 83 88 87 107 108 113 112
8 83 84 89 88 108 109 114 113
8 85 86 91 90 110 111 116 115
8 86 87 92 91 111 112 117 116
8 87 88 93 92 112 113 118 117
8 88 89 94 93 113 114 119 118
8 90 91 96 95 115 116 121 120
8 91 92 97 96 116 117 122 121
8 92 93 98 97 117 118 123 122
8 93 94 99 98 118 119 124 123
8 125 126 131 130 150 151 156 155
8 126 127 132 131 151 152 157 156
8 127 128 133 132 152 153 158 157
8 128 129 134 133 153 154 159 158
8 130 131 136 135 155 156 161 160
8 131 132 137 136 156 157 162 161
8 132 133 138 137 157 158 163 162
8 133 134 139 138 158 159 164 163
8 135 136 141 140 160 161 166 165
8 136 137 142 141 161 162 167 166
8 137 138 143 142 162 163 168 167
8 138 139 144 143 163 164 169 168
8 140 141 146 145 165 166 171 170
8 141 142 147 146 166 167 172 171
8 142 143 148 147 167 168 173 172
8 143 144 149 148 168 169 174 173
8 150 151 156 155 175 176 181 180
8 151 152 157 156 176 177 182 181
8 152 153 158 157 177 178 183 182
8 153 154 159 158 178 179 184 183
8 155 156 161 160 180 181 186 185
8 156 157 162 161 181 182 187 186
8 157 158 163 162 182 183 188 187
8 158 159 164 163 183 184 189 188
8 160 161 166 165 185 186 191 190
8 161 162 167 166 186 187 192 191
8 162 163 168 167 187 188 193 192
8 163 164 169 168 188 189 194 193
8 165 166 171 170 190 191 196 195
8 166 167 172 171 191 192 197 196
8 167 168 173 172 192 193 198 197
8 168 169 174 173 193 194 199 198
8 175 176 181 180 200 201 206 205
8 176 177 182 181 201 202 207 206
8 177 178 183 182 202 203 208 207
8 178 179 184 183 203 204 209 208
8 180 181 186 185 205 206 211 210
8 181 182 187 186 206 207 212 211
8 182 183 188 187 207 208 213 212
8 183 184 189 188 208 209 214 213
8 185 186 191 190 210 211 216 215
8 186 187 192 191 211 212 217 216
8 187 188 193 192 212 213 218 217
8 188 189 194 193 213 214 219 218
8 190 191 196 195 215 216 221 220
8 191 192 197 196 216 217 222 221
8 192 193 198 197 217 218 223 222
8 193 194 199 198 218 219 224 223
8 200 201 206 205 225 226 231 230
8 201 202 207 206 226 227 232 231
8 202 203 208 207 227 228 233 232
8 203 204 209 208 228 229 234 233
8 205 206 211 210 230 231 236 235
8 206 207 212 211 231 232 237 236
8 207 208 213 212 232 233 238 237
8 208 209 214 213 233 234 239 238
8 210 211 216 215 235 236 241 240
8 211 212 217 216 236 237 242 241
8 212 213 218 217 237 238 243 242
8 213 214 219 218 238 239 244 243
8 215 216 221 220 240 241 246 245
8 216 217 222 221 241 242 247 246
8 217 218 223 222 242 243 248 247
8 218 219 224 223 243 244 249 248
CELL_TYPES 128
12
12
12
12
12
12
12
12
12
12
12
12
12
12
12
12
12
12
12
12
12
12
12
12
12
12
12
12
12
12
12
12
12
12
12
12
12
12
12
12
12
12
12
12
12
12
12
12
12
12
12
12
12
12
12
12
12
12
12
12
12
12
12
12
12
12
12
12
12
12
12
12
12
12
12
12
12
12
12
12
12
12
12
12
12
12
12
12
12
12
12
12
12
12
12
12
12
12
12
12
12
12
12
12
12
12
12
12
12
12
12
12
12
12
12
12
12
12
12
12
12
12
12
12
12
12
12
12
POINT_DATA 250
VECTORS displacement float
0.000000000000e+00 0.000000000000e+00 0.000000000000e+00
0.000000000000e+00 0.000000000000e+00 0.000000000000e+00
0.000000000000e+00 0.000000000000e+00 0.000000000000e+00
0.000000000000e+00 0.000000000000e+00 0.000000000000e+00
0.000000000000e+00 0.000000000000e+00 0.000000000000e+00
0.000000000000e+00 0.000000000000e+00 0.000000000000e+00
0.000000000000e+00 0.000000000000e+00 0.000000000000e+00
0.000000000000e+00 0.000000000000e+00 0.000000000000e+00
0.000000000000e+00 0.000000000000e+00 0.000000000000e+00
0.000000000000e+00 0.000000000000e+00 0.000000000000e+00
0.000000000000e+00 0.000000000000e+00 0.000000000000e+00
0.000000000000e+00 0.000000000000e+00 0.000000000000e+00
0.000000000000e+00 0.000000000000e+00 0.000000000000e+00
0.000000000000e+00 0.000000000000e+00 0.000000000000e+00
0.000000000000e+00 0.000000000000e+00 0.000000000000e+00
0.000000000000e+00 0.000000000000e+00 0.000000000000e+00
0.000000000000e+00 0.000000000000e+00 0.000000000000e+00
0.000000000000e+00 0.000000000000e+00 0.000000000000e+00
0.000000000000e+00 0.000000000000e+00 0.000000000000e+00
0.000000000000e+00 0.000000000000e+00 0.000000000000e+00
0.000000000000e+00 0.000000000000e+00 0.000000000000e+00
0.000000000000e+00 0.000000000000e+00 0.000000000000e+00
0.000000000000e+00 0.000000000000e+00 0.000000000000e+00
0.000000000000e+00 0.000000000000e+00 0.000000000000e+00
0.000000000000e+00 0.000000000000e+00 0.000000000000e+00
0.000000000000e+00 0.000000000000e+00 0.000000000000e+00
0.000000000000e+00 0.000000000000e+00 0.000000000000e+00
0.000000000000e+00 0.000000000000e+00 0.000000000000e+00
0.000000000000e+00 0.000000000000e+00 0.000000000000e+00
0.000000000000e+00 0.000000000000e+00 0.000000000000e+00
0.000000000000e+00 0.000000000000e+00 0.000000000000e+00
0.000000000000e+00 0.000000000000e+00 0.000000000000e+00
0.000000000000e+00 0.000000000000e+00 0.000000000000e+00
0.000000000000e+00 0.000000000000e+00 0.000000000000e+00
0.000000000000e+00 0.000000000000e+00 0.000000000000e+00
0.000000000000e+00 0.000000000000e+00 0.000000000000e+00
0.000000000000e+00 0.000000000000e+00 0.000000000000e+00
0.000000000000e+00 0.000000000000e+00 0.000000000000e+00
0.000000000000e+00 0.000000000000e+00 0.000000000000e+00
0.000000000000e+00 0.000000000000e+00 0.000000000000e+00
0.000000000000e+00 0.000000000000e+00 0.000000000000e+00
0.000000000000e+00 0.000000000000e+00 0.000000000000e+00
0.000000000000e+00 0.000000000000e+00 0.000000000000e+00
0.000000000000e+00 0.000000000000e+00 0.000000000000e+00
0.000000000000e+00 0.000000000000e+00 0.000000000000e+00
0.000000000000e+00 0.000000000000e+00 0.000000000000e+00
0.000000000000e+00 0.000000000000e+00 0.000000000000e+00
0.000000000000e+00 0.000000000000e+00 0.000000000000e+00
0.000000000000e+00 0.000000000000e+00 0.000000000000e+00
0.000000000000e+00 0.000000000000e+00 0.000000000000e+00
0.000000000000e+00 0.000000000000e+00 0.000000000000e+00
0.000000000000e+00 0.000000000000e+00 0.000000000000e+00
0.000000000000e+00 0.000000000000e+00 0.000000000000e+00
0.000000000000e+00 0.000000000000e+00 0.000000000000e+00
0.000000000000e+00 0.000000000000e+00 0.000000000000e+00
0.000000000000e+00 0.000000000000e+00 0.000000000000e+00
0.000000000000e+00 0.000000000000e+00 0.000000000000e+00
0.000000000000e+00 0.000000000000e+00 0.000000000000e+00
0.000000000000e+00 0.000000000000e+00 0.000000000000e+00
0.000000000000e+00 0.000000000000e+00 0.000000000000e+00
0.000000000000e+00 0.000000000000e+00 0.000000000000e+00
0.000000000000e+00 0.000000000000e+00 0.000000000000e+00
0.000000000000e+00 0.000000000000e+00 0.000000000000e+00
0.000000000000e+00 0.000000000000e+00 0.000000000000e+00
0.000000000000e+00 0.000000000000e+00 0.000000000000e+00
0.000000000000e+00 0.000000000000e+00 0.000000000000e+00
0.000000000000e+00 0.000000000000e+00 0.000000000000e+00
0.000000000000e+00 0.000000000000e+00 0.000000000000e+00
0.000000000000e+00 0.000000000000e+00 0.000000000000e+00
0.000000000000e+00 0.000000000000e+00 0.000000000000e+00
0.000000000000e+00 0.000000000000e+00 0.000000000000e+00
0.000000000000e+00 0.000000000000e+00 0.000000000000e+00
0.000000000000e+00 0.000000000000e+00 0.000000000000e+00
0.000000000000e+00 0.000000000000e+00 0.000000000000e+00
0.000000000000e+00 0.000000000000e+00 0.000000000000e+00
0.000000000000e+00 0.000000000000e+00 0.000000000000e+00
0.000000000000e+00 0.000000000000e+00 0.000000000000e+00
0.000000000000e+00 0.000000000000e+00 0.000000000000e+00
0.000000000000e+00 0.000000000000e+00 0.000000000000e+00
0.000000000000e+00 0.000000000000e+00 0.000000000000e+00
0.000000000000e+00 0.000000000000e+00 0.000000000000e+00
0.000000000000e+00 0.000000000000e+00 0.000000000000e+00
0.000000000000e+00 0.000000000000e+00 0.000000000000e+00
0.000000000000e+00 0.000000000000e+00 0.000000000000e+00
0.000000000000e+00 0.000000000000e+00 0.000000000000e+00
0.000000000000e+00 0.000000000000e+00 0.000000000000e+00
0.000000000000e+00 0.000000000000e+00 0.000000000000e+00
0.000000000000e+00 0.000000000000e+00 0.000000000000e+00
0.000000000000e+00 0.000000000000e+00 0.000000000000e+00
0.000000000000e+00 0.000000000000e+00 0.000000000000e+00
0.000000000000e+00 0.000000000000e+00 0.000000000000e+00
0.000000000000e+00 0.000000000000e+00 0.000000000000e+00
0.000000000000e+00 0.000000000000e+00 0.000000000000e+00
0.000000000000e+00 0.000000000000e+00 0.000000000000e+00
0.000000000000e+00 0.000000000000e+00 0.000000000000e+00
0.000000000000e+00 0.000000000000e+00 0.000000000000e+00
0.000000000000e+00 0.000000000000e+00 0.000000000000e+00
0.000000000000e+00 0.000000000000e+00 0.000000000000e+00
0.000000000000e+00 0.000000000000e+00 0.000000000000e+00
0.000000000000e+00 0.000000000000e+00 0.000000000000e+00
0.000000000000e+00 0.000000000000e+00 0.000000000000e+00
0.000000000000e+00 0.000000000000e+00 0.000000000000e+00
0.000000000000e+00 0.000000000000e+00 0.000000000000e+00
0.000000000000e+00 0.000000000000e+00 0.000000000000e+00
0.000000000000e+00 0.000000000000e+00 0.000000000000e+00
0.000000000000e+00 0.000000000000e+00 0.000000000000e+00
0.000000000000e+00 0.000000000000e+00 0.000000000000e+00
0.000000000000e+00 0.000000000000e+00 0.000000000000e+00
0.000000000000e+00 0.000000000000e+00 0.000000000000e+00
0.000000000000e+00 0.000000000000e+00 0.000000000000e+00
0.000000000000e+00 0.000000000000e+00 0.000000000000e+00
0.000000000000e+00 0.000000000000e+00 0.000000000000e+00
0.000000000000e+00 0.000000000000e+00 0.000000000000e+00
0.000000000000e+00 0.000000000000e+00 0.000000000000e+00
0.000000000000e+00 0.000000000000e+00 0.000000000000e+00
0.000000000000e+00 0.000000000000e+00 0.000000000000e+00
0.000000000000e+00 0.000000000000e+00 0.000000000000e+00
0.000000000000e+00 0.000000000000e+00 0.000000000000e+00
0.000000000000e+00 0.000000000000e+00 0.000000000000e+00
0.000000000000e+00 0.000000000000e+00 0.000000000000e+00
0.000000000000e+00 0.000000000000e+00 0.000000000000e+00
0.000000000000e+00 0.000000000000e+00 0.000000000000e+00
0.000000000000e+00 0.000000000000e+00 0.000000000000e+00
0.000000000000e+00 0.000000000000e+00 0.000000000000e+00
0.000000000000e+00 0.000000000000e+00 0.000000000000e+00
2.680384120082e-08 2.676195210162e-08 -9.929552351862e-03
1.829289531955e-08 2.528370796774e-08 -9.929539587444e-03
6.507028327164e-11 2.325797017066e-08 -9.929533428084e-03
-1.816275466058e-08 2.528365040203e-08 -9.929539462674e-03
-2.667370048023e-08 2.676183678662e-08 -9.929552102322e-03
2.532565534138e-08 1.825100654814e-08 -9.929539627140e-03
1.816007465861e-08 1.811812748603e-08 -9.929527950024e-03
6.509924430679e-11 1.740675493410e-08 -9.929522418692e-03
-1.802987608195e-08 1.811806940475e-08 -9.929527825254e-03
-2.519545664307e-08 1.825089027481e-08 -9.929539377599e-03
2.329997600359e-08 2.318209872548e-11 -9.929533507477e-03
1.744876069126e-08 2.315239345063e-11 -9.929522458388e-03
6.512854042694e-11 2.312281948236e-11 -9.929517082954e-03
-1.731850351863e-08 2.309340300011e-11 -9.929522333618e-03
-2.316971861737e-08 2.306409576024e-11 -9.929533257936e-03
2.532571491351e-08 -1.820464231070e-08 -9.929539581763e-03
1.816013403335e-08 -1.807182265632e-08 -9.929527904646e-03
6.515828286087e-11 -1.736050925881e-08 -9.929522373314e-03
-1.802981737909e-08 -1.807188256405e-08 -9.929527779876e-03
-2.519539812961e-08 -1.820476204870e-08 -9.929539332222e-03
2.680396024927e-08 -2.671558784183e-08 -9.929552261107e-03
1.829301401545e-08 -2.523740307787e-08 -9.929539496689e-03
6.518834196236e-11 -2.321172441291e-08 -9.929533337328e-03
-1.816263723474e-08 -2.523746351362e-08 -9.929539371919e-03
-2.667358340982e-08 -2.671570853433e-08 -9.929552011567e-03
2.078542953675e-08 2.076418280809e-08 -9.929547634366e-03
1.356893169353e-08 1.989455997383e-08 -9.929533866719e-03
3.262997482499e-11 1.845822518703e-08 -9.929526754967e-03
-1.350367182199e-08 1.989450216236e-08 -9.929533741949e-03
-2.072016984190e-08 2.076406718399e-08 -9.929547384825e-03
1.991586499074e-08 1.354768519612e-08 -9.929533906416e-03
1.360478435591e-08 1.358347944119e-08 -9.929520878641e-03
3.265891076325e-11 1.308511674236e-08 -9.929514164721e-03
-1.353946659107e-08 1.358342119878e-08 -9.929520753871e-03
-1.985054732326e-08 1.354756869072e-08 -9.929533656875e-03
1.847958871451e-08 1.138394311201e-11 -9.929526834360e-03
1.310648027544e-08 1.135422460270e-11 -9.929514204417e-03
3.268817916372e-11 1.132463572299e-11 -9.929507493357e-03
-1.304110396368e-08 1.129522070274e-11 -9.929514079646e-03
-1.841421241488e-08 1.126591899013e-11 -9.929526584818e-03
1.991592445366e-08 -1.352491734246e-08 -9.929533861039e-03
1.360484366022e-08 -1.356077100938e-08 -9.929520833264e-03
3.271793607553e-11 -1.306246749097e-08 -9.929514119343e-03
-1.353940784539e-08 -1.356083078030e-08 -9.929520708493e-03
-1.985048873504e-08 -1.352503687679e-08 -9.929533611497e-03
2.078554844813e-08 -2.074141502249e-08 -9.929547543611e-03
1.356905028621e-08 -1.987185157049e-08 -9.929533775964e-03
3.274801796413e-11 -1.843557594061e-08 -9.929526664212e-03
-1.350355433001e-08 -1.987191177855e-08 -9.929533651194e-03
-2.072005266772e-08 -2.074153543416e-08 -9.929547294070e-03
1.501298537980e-08 1.501238118021e-08 -9.929541640102e-03
9.379054532116e-09 1.460706848890e-08 -9.929527014628e-03
1.892873938123e-13 1.373411465681e-08 -9.929519482486e-03
-9.378676038934e-09 1.460701042852e-08 -9.929526889857e-03
-1.501260709593e-08 1.501226516929e-08 -9.929541390561e-03
1.460773104637e-08 9.378450506136e-09 -9.929527054325e-03
9.397249407885e-09 9.396586906445e-09 -9.929512939053e-03
2.182896018348e-13 9.103676951632e-09 -9.929505688177e-03
-9.396812918605e-09 9.396528486087e-09 -9.929512814282e-03
-1.460729474129e-08 9.378333735977e-09 -9.929526804782e-03
1.373483579271e-08 -4.143609953630e-13 -9.929519561880e-03
9.104398123362e-09 -4.440521108872e-13 -9.929505727873e-03
2.475524979022e-13 -4.736496225868e-13 -9.929498402082e-03
-9.103903100718e-09 -5.030670445369e-13 -9.929505603102e-03
-1.373434087732e-08 -5.323922849110e-13 -9.929519312337e-03
1.460779040473e-08 -9.379279254591e-09 -9.929527008947e-03
9.397308637708e-09 -9.397475042062e-09 -9.929512893675e-03
2.773044877939e-13 -9.104624279105e-09 -9.929505642799e-03
-9.396754120669e-09 -9.397534654183e-09 -9.929512768904e-03
-1.460723607222e-08 -9.379398548451e-09 -9.929526759405e-03
1.501310414255e-08 -1.501321000557e-08 -9.929541549347e-03
9.379173017692e-09 -1.460795668994e-08 -9.929526923872e-03
3.073185046475e-13 -1.373506202426e-08 -9.929519391731e-03
-9.378558464570e-09 -1.460801666411e-08 -9.929526799102e-03
-1.501248980429e-08 -1.501333006010e-08 -9.929541299805e-03
7.824299183544e-09 7.844337614106e-09 -9.929537313929e-03
4.808223592449e-09 7.747290813800e-09 -9.929521830291e-03
-3.225155554987e-11 7.386920944266e-09 -9.929514120705e-03
-4.872726779499e-09 7.747232415121e-09 -9.929521705521e-03
-7.888802513055e-09 7.844221075487e-09 -9.929537064387e-03
7.727310819053e-09 4.828262144699e-09 -9.929521869989e-03
4.815641670866e-09 4.835621686140e-09 -9.929506822560e-03
-3.222248682908e-11 4.722389996171e-09 -9.929499349035e-03
-4.880086758206e-09 4.835563065981e-09 -9.929506697789e-03
-7.791756050187e-09 4.828145084014e-09 -9.929521620446e-03
7.366999622832e-09 -1.221271908348e-11 -9.929514200099e-03
4.702468706788e-09 -1.224238673304e-11 -9.929499388731e-03
-3.219323759498e-11 -1.227199180742e-11 -9.929491804127e-03
-4.766855284318e-09 -1.230141144297e-11 -9.929499263960e-03
-7.431386279816e-09 -1.233075966974e-11 -9.929513950555e-03
7.727370048915e-09 -4.852687609372e-09 -9.929521824611e-03
4.815700819958e-09 -4.860106498155e-09 -9.929506777182e-03
-3.216348133381e-11 -4.746934014181e-09 -9.929499303657e-03
-4.880027900065e-09 -4.860165931634e-09 -9.929506652411e-03
-7.791697276007e-09 -4.852806632171e-09 -9.929521575068e-03
7.824417740726e-09 -7.868763129827e-09 -9.929537223173e-03
4.808341965629e-09 -7.771775677273e-09 -9.929521739536e-03
-3.213353455859e-11 -7.411464991664e-09 -9.929514029949e-03
-4.872609117749e-09 -7.771835337467e-09 -9.929521614765e-03
-7.888685042483e-09 -7.868882678502e-09 -9.929536973631e-03
-4.401940416024e-10 -3.995130078267e-10 -9.929535617169e-03
-9.436951815027e-10 -1.538778101924e-10 -9.929519842488e-03
-6.469215867596e-11 -4.485423163219e-11 -9.929512158620e-03
8.143106260603e-10 -1.539365782366e-10 -9.929519717718e-03
3.108092193066e-10 -3.996301003776e-10 -9.929535367626e-03
-1.945003650639e-10 -9.030141359649e-10 -9.929519882185e-03
-8.796940602103e-10 -8.390715657598e-10 -9.929504562924e-03
-6.466312882086e-11 -8.532533803594e-10 -9.929497122542e-03
7.503675494023e-10 -8.391304110882e-10 -9.929504438152e-03
6.517359470734e-11 -9.031315302916e-10 -9.929519632642e-03
-8.541801043853e-11 -2.401098231628e-11 -9.929512238014e-03
-8.938171023385e-10 -2.404066699727e-11 -9.929497162239e-03
-6.463393611218e-11 -2.407029606284e-11 -9.929489620904e-03
7.645490158475e-10 -2.409970621775e-11 -9.929497037467e-03
-4.385024488825e-11 -2.412904252368e-11 -9.929511988471e-03
-1.944412774232e-10 8.549920763719e-10 -9.929519836808e-03
-8.796350018170e-10 7.909901344915e-10 -9.929504517546e-03
-6.460414116787e-11 8.051127026157e-10 -9.929497077164e-03
7.504264727637e-10 7.909309027939e-10 -9.929504392774e-03
6.523250003111e-11 8.548733525198e-10 -9.929519587265e-03
-4.400756943020e-10 3.514908404670e-10 -9.929535526413e-03
-9.435769407996e-10 1.057962803429e-10 -9.929519751732e-03
-6.457415546491e-11 -3.286515478661e-12 -9.929512067864e-03
8.144283892001e-10 1.057369701756e-10 -9.929519626962e-03
3.109268677255e-10 3.513718207810e-10 -9.929535276871e-03
SCALARS displacement_magnitude float 1
LOOKUP_TABLE default
0.000000000000e+00
0.000000000000e+00
0.000000000000e+00
0.000000000000e+00
0.000000000000e+00
0.000000000000e+00
0.000000000000e+00
0.000000000000e+00
0.000000000000e+00
0.000000000000e+00
0.000000000000e+00
0.000000000000e+00
0.000000000000e+00
0.000000000000e+00
0.000000000000e+00
0.000000000000e+00
0.000000000000e+00
0.000000000000e+00
0.000000000000e+00
0.000000000000e+00
0.000000000000e+00
0.000000000000e+00
0.000000000000e+00
0.000000000000e+00
0.000000000000e+00
0.000000000000e+00
0.000000000000e+00
0.000000000000e+00
0.000000000000e+00
0.000000000000e+00
0.000000000000e+00
0.000000000000e+00
0.000000000000e+00
0.000000000000e+00
0.000000000000e+00
0.000000000000e+00
0.000000000000e+00
0.000000000000e+00
0.000000000000e+00
0.000000000000e+00
0.000000000000e+00
0.000000000000e+00
0.000000000000e+00
0.000000000000e+00
0.000000000000e+00
0.000000000000e+00
0.000000000000e+00
0.000000000000e+00
0.000000000000e+00
0.000000000000e+00
0.000000000000e+00
0.000000000000e+00
0.000000000000e+00
0.000000000000e+00
0.000000000000e+00
0.000000000000e+00
0.000000000000e+00
0.000000000000e+00
0.000000000000e+00
0.000000000000e+00
0.000000000000e+00
0.000000000000e+00
0.000000000000e+00
0.000000000000e+00
0.000000000000e+00
0.000000000000e+00
0.000000000000e+00
0.000000000000e+00
0.000000000000e+00
0.000000000000e+00
0.000000000000e+00
0.000000000000e+00
0.000000000000e+00
0.000000000000e+00
0.000000000000e+00
0.000000000000e+00
0.000000000000e+00
0.000000000000e+00
0.000000000000e+00
0.000000000000e+00
0.000000000000e+00
0.000000000000e+00
0.000000000000e+00
0.000000000000e+00
0.000000000000e+00
0.000000000000e+00
0.000000000000e+00
0.000000000000e+00
0.000000000000e+00
0.000000000000e+00
0.000000000000e+00
0.000000000000e+00
0.000000000000e+00
0.000000000000e+00
0.000000000000e+00
0.000000000000e+00
0.000000000000e+00
0.000000000000e+00
0.000000000000e+00
0.000000000000e+00
0.000000000000e+00
0.000000000000e+00
0.000000000000e+00
0.000000000000e+00
0.000000000000e+00
0.000000000000e+00
0.000000000000e+00
0.000000000000e+00
0.000000000000e+00
0.000000000000e+00
0.000000000000e+00
0.000000000000e+00
0.000000000000e+00
0.000000000000e+00
0.000000000000e+00
0.000000000000e+00
0.000000000000e+00
0.000000000000e+00
0.000000000000e+00
0.000000000000e+00
0.000000000000e+00
0.000000000000e+00
0.000000000000e+00
0.000000000000e+00
0.000000000000e+00
9.929552351934e-03
9.929539587493e-03
9.929533428111e-03
9.929539462723e-03
9.929552102394e-03
9.929539627189e-03
9.929527950057e-03
9.929522418707e-03
9.929527825286e-03
9.929539377648e-03
9.929533507504e-03
9.929522458403e-03
9.929517082954e-03
9.929522333633e-03
9.929533257963e-03
9.929539581812e-03
9.929527904679e-03
9.929522373329e-03
9.929527779909e-03
9.929539332271e-03
9.929552261179e-03
9.929539496737e-03
9.929533337356e-03
9.929539371967e-03
9.929552011638e-03
9.929547634409e-03
9.929533866749e-03
9.929526754984e-03
9.929533741979e-03
9.929547384868e-03
9.929533906445e-03
9.929520878660e-03
9.929514164729e-03
9.929520753890e-03
9.929533656904e-03
9.929526834378e-03
9.929514204426e-03
9.929507493357e-03
9.929514079655e-03
9.929526584836e-03
9.929533861068e-03
9.929520833283e-03
9.929514119352e-03
9.929520708512e-03
9.929533611526e-03
9.929547543654e-03
9.929533775993e-03
9.929526664229e-03
9.929533651223e-03
9.929547294113e-03
9.929541640125e-03
9.929527014643e-03
9.929519482496e-03
9.929526889873e-03
9.929541390584e-03
9.929527054340e-03
9.929512939062e-03
9.929505688181e-03
9.929512814291e-03
9.929526804797e-03
9.929519561889e-03
9.929505727877e-03
9.929498402082e-03
9.929505603106e-03
9.929519312347e-03
9.929527008962e-03
9.929512893684e-03
9.929505642803e-03
9.929512768913e-03
9.929526759420e-03
9.929541549370e-03
9.929526923887e-03
9.929519391740e-03
9.929526799117e-03
9.929541299828e-03
9.929537313935e-03
9.929521830296e-03
9.929514120708e-03
9.929521705525e-03
9.929537064393e-03
9.929521869993e-03
9.929506822562e-03
9.929499349036e-03
9.929506697791e-03
9.929521620450e-03
9.929514200101e-03
9.929499388732e-03
9.929491804127e-03
9.929499263961e-03
9.929513950558e-03
9.929521824615e-03
9.929506777185e-03
9.929499303658e-03
9.929506652413e-03
9.929521575072e-03
9.929537223180e-03
9.929521739540e-03
9.929514029952e-03
9.929521614769e-03
9.929536973637e-03
9.929535617169e-03
9.929519842488e-03
9.929512158620e-03
9.929519717718e-03
9.929535367626e-03
9.929519882185e-03
9.929504562924e-03
9.929497122542e-03
9.929504438152e-03
9.929519632642e-03
9.929512238014e-03
9.929497162239e-03
9.929489620904e-03
9.929497037467e-03
9.929511988471e-03
9.929519836808e-03
9.929504517546e-03
9.929497077164e-03
9.929504392775e-03
9.929519587265e-03
9.929535526413e-03
9.929519751732e-03
9.929512067864e-03
9.929519626962e-03
9.929535276871e-03
CELL_DATA 128
SCALARS displacement_magnitude float 1
LOOKUP_TABLE default
0.000000000000e+00
0.000000000000e+00
0.000000000000e+00
0.000000000000e+00
0.000000000000e+00
0.000000000000e+00
0.000000000000e+00
0.000000000000e+00
0.000000000000e+00
0.000000000000e+00
0.000000000000e+00
0.000000000000e+00
0.000000000000e+00
0.000000000000e+00
0.000000000000e+00
0.000000000000e+00
0.000000000000e+00
0.000000000000e+00
0.000000000000e+00
0.000000000000e+00
0.000000000000e+00
0.000000000000e+00
0.000000000000e+00
0.000000000000e+00
0.000000000000e+00
0.000000000000e+00
0.000000000000e+00
0.000000000000e+00
0.000000000000e+00
0.000000000000e+00
0.000000000000e+00
0.000000000000e+00
0.000000000000e+00
0.000000000000e+00
0.000000000000e+00
0.000000000000e+00
0.000000000000e+00
0.000000000000e+00
0.000000000000e+00
0.000000000000e+00
0.000000000000e+00
0.000000000000e+00
0.000000000000e+00
0.000000000000e+00
0.000000000000e+00
0.000000000000e+00
0.000000000000e+00
0.000000000000e+00
0.000000000000e+00
0.000000000000e+00
0.000000000000e+00
0.000000000000e+00
0.000000000000e+00
0.000000000000e+00
0.000000000000e+00
0.000000000000e+00
0.000000000000e+00
0.000000000000e+00
0.000000000000e+00
0.000000000000e+00
0.000000000000e+00
0.000000000000e+00
0.000000000000e+00
0.000000000000e+00
9.929536975367e-03
9.929527381186e-03
9.929527318801e-03
9.929536788211e-03
9.929527420883e-03
9.929518331412e-03
9.929518269026e-03
9.929527233727e-03
9.929527398194e-03
9.929518308723e-03
9.929518246338e-03
9.929527211038e-03
9.929536907301e-03
9.929527313120e-03
9.929527250735e-03
9.929536720145e-03
9.929530616804e-03
9.929520098688e-03
9.929520036303e-03
9.929530429648e-03
9.929520138385e-03
9.929509937297e-03
9.929509874911e-03
9.929519951228e-03
9.929520115696e-03
9.929509914608e-03
9.929509852223e-03
9.929519928539e-03
9.929530548738e-03
9.929520030621e-03
9.929519968236e-03
9.929530361582e-03
9.929524560619e-03
9.929513405873e-03
9.929513343488e-03
9.929524373463e-03
9.929513445570e-03
9.929502515207e-03
9.929502452822e-03
9.929513258413e-03
9.929513422881e-03
9.929502492519e-03
9.929502430133e-03
9.929513235724e-03
9.929524492553e-03
9.929513337806e-03
9.929513275421e-03
9.929524305396e-03
9.929520967694e-03
9.929509476147e-03
9.929509413762e-03
9.929520780537e-03
9.929509515844e-03
9.929498229133e-03
9.929498166748e-03
9.929509328687e-03
9.929509493155e-03
9.929498206444e-03
9.929498144059e-03
9.929509305998e-03
9.929520899627e-03
9.929509408080e-03
9.929509345695e-03
9.929520712470e-03
SCALARS engineering_strain_norm float 1
LOOKUP_TABLE default
0.000000000000e+00
0.000000000000e+00
0.000000000000e+00
0.000000000000e+00
0.000000000000e+00
0.000000000000e+00
0.000000000000e+00
0.000000000000e+00
0.000000000000e+00
0.000000000000e+00
0.000000000000e+00
0.000000000000e+00
0.000000000000e+00
0.000000000000e+00
0.000000000000e+00
0.000000000000e+00
0.000000000000e+00
0.000000000000e+00
0.000000000000e+00
0.000000000000e+00
0.000000000000e+00
0.000000000000e+00
0.000000000000e+00
0.000000000000e+00
0.000000000000e+00
0.000000000000e+00
0.000000000000e+00
0.000000000000e+00
0.000000000000e+00
0.000000000000e+00
0.000000000000e+00
0.000000000000e+00
0.000000000000e+00
0.000000000000e+00
0.000000000000e+00
0.000000000000e+00
0.000000000000e+00
0.000000000000e+00
0.000000000000e+00
0.000000000000e+00
0.000000000000e+00
0.000000000000e+00
0.000000000000e+00
0.000000000000e+00
0.000000000000e+00
0.000000000000e+00
0.000000000000e+00
0.000000000000e+00
0.000000000000e+00
0.000000000000e+00
0.000000000000e+00
0.000000000000e+00
0.000000000000e+00
0.000000000000e+00
0.000000000000e+00
0.000000000000e+00
0.000000000000e+00
0.000000000000e+00
0.000000000000e+00
0.000000000000e+00
0.000000000000e+00
0.000000000000e+00
0.000000000000e+00
0.000000000000e+00
1.262697014991e-07
1.753790787560e-07
1.753790807144e-07
1.262697082036e-07
1.753790758239e-07
2.181209173223e-07
2.181209205321e-07
1.753790867548e-07
1.753790765521e-07
2.181209184907e-07
2.181209217288e-07
1.753790874404e-07
1.262697039403e-07
1.753790827195e-07
1.753790846706e-07
1.262697106164e-07
1.367120150592e-07
1.615098752641e-07
1.615098797342e-07
1.367120249729e-07
1.615098727882e-07
1.859293771396e-07
1.859293817878e-07
1.615098848758e-07
1.615098744553e-07
1.859293788785e-07
1.859293835266e-07
1.615098864701e-07
1.367120187156e-07
1.615098796636e-07
1.615098840820e-07
1.367120285864e-07
1.018324259195e-07
1.163380529102e-07
1.163380580720e-07
1.018324343622e-07
1.163380513122e-07
1.305675544772e-07
1.305675593303e-07
1.163380612964e-07
1.163380532180e-07
1.305675562049e-07
1.305675610851e-07
1.163380632037e-07
1.018324289937e-07
1.163380564851e-07
1.163380616599e-07
1.018324374483e-07
4.373109841809e-08
4.580053631548e-08
4.580054041617e-08
4.373110294154e-08
4.580053589789e-08
4.704274931094e-08
4.704275298915e-08
4.580054128337e-08
4.580053744119e-08
4.704275068044e-08
4.704275434827e-08
4.580054277301e-08
4.373110002898e-08
4.580053825528e-08
4.580054237160e-08
4.373110460604e-08
SCALARS von_mises float 1
LOOKUP_TABLE default
0.000000000000e+00
0.000000000000e+00
0.000000000000e+00
0.000000000000e+00
0.000000000000e+00
0.000000000000e+00
0.000000000000e+00
0.000000000000e+00
0.000000000000e+00
0.000000000000e+00
0.000000000000e+00
0.000000000000e+00
0.000000000000e+00
0.000000000000e+00
0.000000000000e+00
0.000000000000e+00
0.000000000000e+00
0.000000000000e+00
0.000000000000e+00
0.000000000000e+00
0.000000000000e+00
0.000000000000e+00
0.000000000000e+00
0.000000000000e+00
0.000000000000e+00
0.000000000000e+00
0.000000000000e+00
0.000000000000e+00
0.000000000000e+00
0.000000000000e+00
0.000000000000e+00
0.000000000000e+00
0.000000000000e+00
0.000000000000e+00
0.000000000000e+00
0.000000000000e+00
0.000000000000e+00
0.000000000000e+00
0.000000000000e+00
0.000000000000e+00
0.000000000000e+00
0.000000000000e+00
0.000000000000e+00
0.000000000000e+00
0.000000000000e+00
0.000000000000e+00
0.000000000000e+00
0.000000000000e+00
0.000000000000e+00
0.000000000000e+00
0.000000000000e+00
0.000000000000e+00
0.000000000000e+00
0.000000000000e+00
0.000000000000e+00
0.000000000000e+00
0.000000000000e+00
0.000000000000e+00
0.000000000000e+00
0.000000000000e+00
0.000000000000e+00
0.000000000000e+00
0.000000000000e+00
0.000000000000e+00
1.158586501594e-02
1.596376594969e-02
1.596376611909e-02
1.158586565379e-02
1.596376566896e-02
1.941967729469e-02
1.941967758551e-02
1.596376669722e-02
1.596376573133e-02
1.941967740035e-02
1.941967769484e-02
1.596376675680e-02
1.158586524755e-02
1.596376632312e-02
1.596376649266e-02
1.158586588385e-02
1.240766054791e-02
1.488972887789e-02
1.488972922343e-02
1.240766144312e-02
1.488972862409e-02
1.715335466849e-02
1.715335506387e-02
1.488972975199e-02
1.488972875198e-02
1.715335481609e-02
1.715335521237e-02
1.488972987534e-02
1.240766087746e-02
1.488972928851e-02
1.488972963070e-02
1.240766177094e-02
9.162094752097e-03
1.064887030060e-02
1.064887066195e-02
9.162095491789e-03
1.064887012019e-02
1.205613489569e-02
1.205613527183e-02
1.064887103404e-02
1.064887025142e-02
1.205613502679e-02
1.205613540740e-02
1.064887116874e-02
9.162095021054e-03
1.064887062766e-02
1.064887099233e-02
9.162095764188e-03
3.795141890991e-03
3.998387770596e-03
3.998388056177e-03
3.795142301675e-03
3.998387698378e-03
4.151584189545e-03
4.151584469392e-03
3.998388214268e-03
3.998387804717e-03
4.151584291968e-03
4.151584573230e-03
3.998388318188e-03
3.795142038264e-03
3.998387957234e-03
3.998388246008e-03
3.795142454476e-03
SCALARS sdf_gap float 1
LOOKUP_TABLE default
0.000000000000e+00
0.000000000000e+00
0.000000000000e+00
0.000000000000e+00
0.000000000000e+00
0.000000000000e+00
0.000000000000e+00
0.000000000000e+00
0.000000000000e+00
0.000000000000e+00
0.000000000000e+00
0.000000000000e+00
0.000000000000e+00
0.000000000000e+00
0.000000000000e+00
0.000000000000e+00
0.000000000000e+00
0.000000000000e+00
0.000000000000e+00
0.000000000000e+00
0.000000000000e+00
0.000000000000e+00
0.000000000000e+00
0.000000000000e+00
0.000000000000e+00
0.000000000000e+00
0.000000000000e+00
0.000000000000e+00
0.000000000000e+00
0.000000000000e+00
0.000000000000e+00
0.000000000000e+00
0.000000000000e+00
0.000000000000e+00
0.000000000000e+00
0.000000000000e+00
0.000000000000e+00
0.000000000000e+00
0.000000000000e+00
0.000000000000e+00
0.000000000000e+00
0.000000000000e+00
0.000000000000e+00
0.000000000000e+00
0.000000000000e+00
0.000000000000e+00
0.000000000000e+00
0.000000000000e+00
0.000000000000e+00
0.000000000000e+00
0.000000000000e+00
0.000000000000e+00
0.000000000000e+00
0.000000000000e+00
0.000000000000e+00
0.000000000000e+00
0.000000000000e+00
0.000000000000e+00
0.000000000000e+00
0.000000000000e+00
0.000000000000e+00
0.000000000000e+00
0.000000000000e+00
0.000000000000e+00
5.070460120883e-03
5.070469153939e-03
5.070469216324e-03
5.070460308038e-03
5.070469114243e-03
5.070477522486e-03
5.070477584871e-03
5.070469301398e-03
5.070469136931e-03
5.070477545174e-03
5.070477607559e-03
5.070469324087e-03
5.070460188949e-03
5.070469222006e-03
5.070469284391e-03
5.070460376104e-03
0.000000000000e+00
0.000000000000e+00
0.000000000000e+00
0.000000000000e+00
0.000000000000e+00
0.000000000000e+00
0.000000000000e+00
0.000000000000e+00
0.000000000000e+00
0.000000000000e+00
0.000000000000e+00
0.000000000000e+00
0.000000000000e+00
0.000000000000e+00
0.000000000000e+00
0.000000000000e+00
0.000000000000e+00
0.000000000000e+00
0.000000000000e+00
0.000000000000e+00
0.000000000000e+00
0.000000000000e+00
0.000000000000e+00
0.000000000000e+00
0.000000000000e+00
0.000000000000e+00
0.000000000000e+00
0.000000000000e+00
0.000000000000e+00
0.000000000000e+00
0.000000000000e+00
0.000000000000e+00
0.000000000000e+00
0.000000000000e+00
0.000000000000e+00
0.000000000000e+00
0.000000000000e+00
0.000000000000e+00
0.000000000000e+00
0.000000000000e+00
0.000000000000e+00
0.000000000000e+00
0.000000000000e+00
0.000000000000e+00
0.000000000000e+00
0.000000000000e+00
0.000000000000e+00
0.000000000000e+00
SCALARS contact_pressure float 1
LOOKUP_TABLE default
0.000000000000e+00
0.000000000000e+00
0.000000000000e+00
0.000000000000e+00
0.000000000000e+00
0.000000000000e+00
0.000000000000e+00
0.000000000000e+00
0.000000000000e+00
0.000000000000e+00
0.000000000000e+00
0.000000000000e+00
0.000000000000e+00
0.000000000000e+00
0.000000000000e+00
0.000000000000e+00
0.000000000000e+00
0.000000000000e+00
0.000000000000e+00
0.000000000000e+00
0.000000000000e+00
0.000000000000e+00
0.000000000000e+00
0.000000000000e+00
0.000000000000e+00
0.000000000000e+00
0.000000000000e+00
0.000000000000e+00
0.000000000000e+00
0.000000000000e+00
0.000000000000e+00
0.000000000000e+00
0.000000000000e+00
0.000000000000e+00
0.000000000000e+00
0.000000000000e+00
0.000000000000e+00
0.000000000000e+00
0.000000000000e+00
0.000000000000e+00
0.000000000000e+00
0.000000000000e+00
0.000000000000e+00
0.000000000000e+00
0.000000000000e+00
0.000000000000e+00
0.000000000000e+00
0.000000000000e+00
0.000000000000e+00
0.000000000000e+00
0.000000000000e+00
0.000000000000e+00
0.000000000000e+00
0.000000000000e+00
0.000000000000e+00
0.000000000000e+00
0.000000000000e+00
0.000000000000e+00
0.000000000000e+00
0.000000000000e+00
0.000000000000e+00
0.000000000000e+00
0.000000000000e+00
0.000000000000e+00
0.000000000000e+00
0.000000000000e+00
0.000000000000e+00
0.000000000000e+00
0.000000000000e+00
0.000000000000e+00
0.000000000000e+00
0.000000000000e+00
0.000000000000e+00
0.000000000000e+00
0.000000000000e+00
0.000000000000e+00
0.000000000000e+00
0.000000000000e+00
0.000000000000e+00
0.000000000000e+00
0.000000000000e+00
0.000000000000e+00
0.000000000000e+00
0.000000000000e+00
0.000000000000e+00
0.000000000000e+00
0.000000000000e+00
0.000000000000e+00
0.000000000000e+00
0.000000000000e+00
0.000000000000e+00
0.000000000000e+00
0.000000000000e+00
0.000000000000e+00
0.000000000000e+00
0.000000000000e+00
0.000000000000e+00
0.000000000000e+00
0.000000000000e+00
0.000000000000e+00
0.000000000000e+00
0.000000000000e+00
0.000000000000e+00
0.000000000000e+00
0.000000000000e+00
0.000000000000e+00
0.000000000000e+00
0.000000000000e+00
0.000000000000e+00
0.000000000000e+00
0.000000000000e+00
0.000000000000e+00
0.000000000000e+00
0.000000000000e+00
0.000000000000e+00
0.000000000000e+00
0.000000000000e+00
0.000000000000e+00
0.000000000000e+00
0.000000000000e+00
0.000000000000e+00
0.000000000000e+00
0.000000000000e+00
0.000000000000e+00
0.000000000000e+00
0.000000000000e+00
0.000000000000e+00
0.000000000000e+00
SCALARS active_contact float 1
LOOKUP_TABLE default
0.000000000000e+00
0.000000000000e+00
0.000000000000e+00
0.000000000000e+00
0.000000000000e+00
0.000000000000e+00
0.000000000000e+00
0.000000000000e+00
0.000000000000e+00
0.000000000000e+00
0.000000000000e+00
0.000000000000e+00
0.000000000000e+00
0.000000000000e+00
0.000000000000e+00
0.000000000000e+00
0.000000000000e+00
0.000000000000e+00
0.000000000000e+00
0.000000000000e+00
0.000000000000e+00
0.000000000000e+00
0.000000000000e+00
0.000000000000e+00
0.000000000000e+00
0.000000000000e+00
0.000000000000e+00
0.000000000000e+00
0.000000000000e+00
0.000000000000e+00
0.000000000000e+00
0.000000000000e+00
0.000000000000e+00
0.000000000000e+00
0.000000000000e+00
0.000000000000e+00
0.000000000000e+00
0.000000000000e+00
0.000000000000e+00
0.000000000000e+00
0.000000000000e+00
0.000000000000e+00
0.000000000000e+00
0.000000000000e+00
0.000000000000e+00
0.000000000000e+00
0.000000000000e+00
0.000000000000e+00
0.000000000000e+00
0.000000000000e+00
0.000000000000e+00
0.000000000000e+00
0.000000000000e+00
0.000000000000e+00
0.000000000000e+00
0.000000000000e+00
0.000000000000e+00
0.000000000000e+00
0.000000000000e+00
0.000000000000e+00
0.000000000000e+00
0.000000000000e+00
0.000000000000e+00
0.000000000000e+00
0.000000000000e+00
0.000000000000e+00
0.000000000000e+00
0.000000000000e+00
0.000000000000e+00
0.000000000000e+00
0.000000000000e+00
0.000000000000e+00
0.000000000000e+00
0.000000000000e+00
0.000000000000e+00
0.000000000000e+00
0.000000000000e+00
0.000000000000e+00
0.000000000000e+00
0.000000000000e+00
0.000000000000e+00
0.000000000000e+00
0.000000000000e+00
0.000000000000e+00
0.000000000000e+00
0.000000000000e+00
0.000000000000e+00
0.000000000000e+00
0.000000000000e+00
0.000000000000e+00
0.000000000000e+00
0.000000000000e+00
0.000000000000e+00
0.000000000000e+00
0.000000000000e+00
0.000000000000e+00
0.000000000000e+00
0.000000000000e+00
0.000000000000e+00
0.000000000000e+00
0.000000000000e+00
0.000000000000e+00
0.000000000000e+00
0.000000000000e+00
0.000000000000e+00
0.000000000000e+00
0.000000000000e+00
0.000000000000e+00
0.000000000000e+00
0.000000000000e+00
0.000000000000e+00
0.000000000000e+00
0.000000000000e+00
0.000000000000e+00
0.000000000000e+00
0.000000000000e+00
0.000000000000e+00
0.000000000000e+00
0.000000000000e+00
0.000000000000e+00
0.000000000000e+00
0.000000000000e+00
0.000000000000e+00
0.000000000000e+00
0.000000000000e+00
0.000000000000e+00
0.000000000000e+00
0.000000000000e+00
