# vtk DataFile Version 3.0
SFC long-time C3D8 dynamic frame 48 t=9.600000000000e-01
ASCII
DATASET UNSTRUCTURED_GRID
POINTS 250 float
-2.500000000000e-01 -2.500000000000e-01 0.000000000000e+00
-1.250000000000e-01 -2.500000000000e-01 0.000000000000e+00
0.000000000000e+00 -2.500000000000e-01 0.000000000000e+00
1.250000000000e-01 -2.500000000000e-01 0.000000000000e+00
2.500000000000e-01 -2.500000000000e-01 0.000000000000e+00
-2.500000000000e-01 -1.250000000000e-01 0.000000000000e+00
-1.250000000000e-01 -1.250000000000e-01 0.000000000000e+00
0.000000000000e+00 -1.250000000000e-01 0.000000000000e+00
1.250000000000e-01 -1.250000000000e-01 0.000000000000e+00
2.500000000000e-01 -1.250000000000e-01 0.000000000000e+00
-2.500000000000e-01 0.000000000000e+00 0.000000000000e+00
-1.250000000000e-01 0.000000000000e+00 0.000000000000e+00
0.000000000000e+00 0.000000000000e+00 0.000000000000e+00
1.250000000000e-01 0.000000000000e+00 0.000000000000e+00
2.500000000000e-01 0.000000000000e+00 0.000000000000e+00
-2.500000000000e-01 1.250000000000e-01 0.000000000000e+00
-1.250000000000e-01 1.250000000000e-01 0.000000000000e+00
0.000000000000e+00 1.250000000000e-01 0.000000000000e+00
1.250000000000e-01 1.250000000000e-01 0.000000000000e+00
2.500000000000e-01 1.250000000000e-01 0.000000000000e+00
-2.500000000000e-01 2.500000000000e-01 0.000000000000e+00
-1.250000000000e-01 2.500000000000e-01 0.000000000000e+00
0.000000000000e+00 2.500000000000e-01 0.000000000000e+00
1.250000000000e-01 2.500000000000e-01 0.000000000000e+00
2.500000000000e-01 2.500000000000e-01 0.000000000000e+00
-2.500000000000e-01 -2.500000000000e-01 6.000000000000e-02
-1.250000000000e-01 -2.500000000000e-01 6.000000000000e-02
0.000000000000e+00 -2.500000000000e-01 6.000000000000e-02
1.250000000000e-01 -2.500000000000e-01 6.000000000000e-02
2.500000000000e-01 -2.500000000000e-01 6.000000000000e-02
-2.500000000000e-01 -1.250000000000e-01 6.000000000000e-02
-1.250000000000e-01 -1.250000000000e-01 6.000000000000e-02
0.000000000000e+00 -1.250000000000e-01 6.000000000000e-02
1.250000000000e-01 -1.250000000000e-01 6.000000000000e-02
2.500000000000e-01 -1.250000000000e-01 6.000000000000e-02
-2.500000000000e-01 0.000000000000e+00 6.000000000000e-02
-1.250000000000e-01 0.000000000000e+00 6.000000000000e-02
0.000000000000e+00 0.000000000000e+00 6.000000000000e-02
1.250000000000e-01 0.000000000000e+00 6.000000000000e-02
2.500000000000e-01 0.000000000000e+00 6.000000000000e-02
-2.500000000000e-01 1.250000000000e-01 6.000000000000e-02
-1.250000000000e-01 1.250000000000e-01 6.000000000000e-02
0.000000000000e+00 1.250000000000e-01 6.000000000000e-02
1.250000000000e-01 1.250000000000e-01 6.000000000000e-02
2.500000000000e-01 1.250000000000e-01 6.000000000000e-02
-2.500000000000e-01 2.500000000000e-01 6.000000000000e-02
-1.250000000000e-01 2.500000000000e-01 6.000000000000e-02
0.000000000000e+00 2.500000000000e-01 6.000000000000e-02
1.250000000000e-01 2.500000000000e-01 6.000000000000e-02
2.500000000000e-01 2.500000000000e-01 6.000000000000e-02
-2.500000000000e-01 -2.500000000000e-01 1.200000000000e-01
-1.250000000000e-01 -2.500000000000e-01 1.200000000000e-01
0.000000000000e+00 -2.500000000000e-01 1.200000000000e-01
1.250000000000e-01 -2.500000000000e-01 1.200000000000e-01
2.500000000000e-01 -2.500000000000e-01 1.200000000000e-01
-2.500000000000e-01 -1.250000000000e-01 1.200000000000e-01
-1.250000000000e-01 -1.250000000000e-01 1.200000000000e-01
0.000000000000e+00 -1.250000000000e-01 1.200000000000e-01
1.250000000000e-01 -1.250000000000e-01 1.200000000000e-01
2.500000000000e-01 -1.250000000000e-01 1.200000000000e-01
-2.500000000000e-01 0.000000000000e+00 1.200000000000e-01
-1.250000000000e-01 0.000000000000e+00 1.200000000000e-01
0.000000000000e+00 0.000000000000e+00 1.200000000000e-01
1.250000000000e-01 0.000000000000e+00 1.200000000000e-01
2.500000000000e-01 0.000000000000e+00 1.200000000000e-01
-2.500000000000e-01 1.250000000000e-01 1.200000000000e-01
-1.250000000000e-01 1.250000000000e-01 1.200000000000e-01
0.000000000000e+00 1.250000000000e-01 1.200000000000e-01
1.250000000000e-01 1.250000000000e-01 1.200000000000e-01
2.500000000000e-01 1.250000000000e-01 1.200000000000e-01
-2.500000000000e-01 2.500000000000e-01 1.200000000000e-01
-1.250000000000e-01 2.500000000000e-01 1.200000000000e-01
0.000000000000e+00 2.500000000000e-01 1.200000000000e-01
1.250000000000e-01 2.500000000000e-01 1.200000000000e-01
2.500000000000e-01 2.500000000000e-01 1.200000000000e-01
-2.500000000000e-01 -2.500000000000e-01 1.800000000000e-01
-1.250000000000e-01 -2.500000000000e-01 1.800000000000e-01
0.000000000000e+00 -2.500000000000e-01 1.800000000000e-01
1.250000000000e-01 -2.500000000000e-01 1.800000000000e-01
2.500000000000e-01 -2.500000000000e-01 1.800000000000e-01
-2.500000000000e-01 -1.250000000000e-01 1.800000000000e-01
-1.250000000000e-01 -1.250000000000e-01 1.800000000000e-01
0.000000000000e+00 -1.250000000000e-01 1.800000000000e-01
1.250000000000e-01 -1.250000000000e-01 1.800000000000e-01
2.500000000000e-01 -1.250000000000e-01 1.800000000000e-01
-2.500000000000e-01 0.000000000000e+00 1.800000000000e-01
-1.250000000000e-01 0.000000000000e+00 1.800000000000e-01
0.000000000000e+00 0.000000000000e+00 1.800000000000e-01
1.250000000000e-01 0.000000000000e+00 1.800000000000e-01
2.500000000000e-01 0.000000000000e+00 1.800000000000e-01
-2.500000000000e-01 1.250000000000e-01 1.800000000000e-01
-1.250000000000e-01 1.250000000000e-01 1.800000000000e-01
0.000000000000e+00 1.250000000000e-01 1.800000000000e-01
1.250000000000e-01 1.250000000000e-01 1.800000000000e-01
2.500000000000e-01 1.250000000000e-01 1.800000000000e-01
-2.500000000000e-01 2.500000000000e-01 1.800000000000e-01
-1.250000000000e-01 2.500000000000e-01 1.800000000000e-01
0.000000000000e+00 2.500000000000e-01 1.800000000000e-01
1.250000000000e-01 2.500000000000e-01 1.800000000000e-01
2.500000000000e-01 2.500000000000e-01 1.800000000000e-01
-2.500000000000e-01 -2.500000000000e-01 2.400000000000e-01
-1.250000000000e-01 -2.500000000000e-01 2.400000000000e-01
0.000000000000e+00 -2.500000000000e-01 2.400000000000e-01
1.250000000000e-01 -2.500000000000e-01 2.400000000000e-01
2.500000000000e-01 -2.500000000000e-01 2.400000000000e-01
-2.500000000000e-01 -1.250000000000e-01 2.400000000000e-01
-1.250000000000e-01 -1.250000000000e-01 2.400000000000e-01
0.000000000000e+00 -1.250000000000e-01 2.400000000000e-01
1.250000000000e-01 -1.250000000000e-01 2.400000000000e-01
2.500000000000e-01 -1.250000000000e-01 2.400000000000e-01
-2.500000000000e-01 0.000000000000e+00 2.400000000000e-01
-1.250000000000e-01 0.000000000000e+00 2.400000000000e-01
0.000000000000e+00 0.000000000000e+00 2.400000000000e-01
1.250000000000e-01 0.000000000000e+00 2.400000000000e-01
2.500000000000e-01 0.000000000000e+00 2.400000000000e-01
-2.500000000000e-01 1.250000000000e-01 2.400000000000e-01
-1.250000000000e-01 1.250000000000e-01 2.400000000000e-01
0.000000000000e+00 1.250000000000e-01 2.400000000000e-01
1.250000000000e-01 1.250000000000e-01 2.400000000000e-01
2.500000000000e-01 1.250000000000e-01 2.400000000000e-01
-2.500000000000e-01 2.500000000000e-01 2.400000000000e-01
-1.250000000000e-01 2.500000000000e-01 2.400000000000e-01
0.000000000000e+00 2.500000000000e-01 2.400000000000e-01
1.250000000000e-01 2.500000000000e-01 2.400000000000e-01
2.500000000000e-01 2.500000000000e-01 2.400000000000e-01
-2.499999999990e-01 -2.499999999999e-01 2.413521135170e-01
-1.249999999990e-01 -2.499999999999e-01 2.413521135179e-01
1.013648913846e-12 -2.499999999999e-01 2.413521135188e-01
1.250000000010e-01 -2.499999999999e-01 2.413521135197e-01
2.500000000010e-01 -2.499999999999e-01 2.413521135206e-01
-2.499999999990e-01 -1.249999999999e-01 2.413521135173e-01
-1.249999999990e-01 -1.249999999999e-01 2.413521135182e-01
1.028596866356e-12 -1.249999999999e-01 2.413521135191e-01
1.250000000010e-01 -1.249999999999e-01 2.413521135200e-01
2.500000000010e-01 -1.249999999999e-01 2.413521135209e-01
-2.499999999990e-01 1.193820964715e-13 2.413521135176e-01
-1.249999999990e-01 1.044298490411e-13 2.413521135185e-01
1.043552934521e-12 8.948379905836e-14 2.413521135194e-01
1.250000000010e-01 7.453853073367e-14 2.413521135203e-01
2.500000000010e-01 5.959245289522e-14 2.413521135212e-01
-2.499999999989e-01 1.250000000001e-01 2.413521135179e-01
-1.249999999989e-01 1.250000000001e-01 2.413521135188e-01
1.058512265881e-12 1.250000000001e-01 2.413521135197e-01
1.250000000011e-01 1.250000000001e-01 2.413521135206e-01
2.500000000011e-01 1.250000000001e-01 2.413521135215e-01
-2.499999999989e-01 2.500000000001e-01 2.413521135183e-01
-1.249999999989e-01 2.500000000001e-01 2.413521135191e-01
1.073469691602e-12 2.500000000001e-01 2.413521135200e-01
1.250000000011e-01 2.500000000001e-01 2.413521135209e-01
2.500000000011e-01 2.500000000001e-01 2.413521135218e-01
-2.499999999995e-01 -2.500000000000e-01 3.063521135170e-01
-1.249999999995e-01 -2.500000000001e-01 3.063521135179e-01
5.477550939138e-13 -2.500000000001e-01 3.063521135188e-01
1.250000000005e-01 -2.500000000001e-01 3.063521135197e-01
2.500000000005e-01 -2.500000000001e-01 3.063521135206e-01
-2.499999999994e-01 -1.250000000000e-01 3.063521135173e-01
-1.249999999994e-01 -1.250000000001e-01 3.063521135182e-01
5.627044656063e-13 -1.250000000001e-01 3.063521135191e-01
1.250000000006e-01 -1.250000000001e-01 3.063521135200e-01
2.500000000006e-01 -1.250000000001e-01 3.063521135209e-01
-2.499999999994e-01 -4.508830206002e-14 3.063521135176e-01
-1.249999999994e-01 -6.004459943874e-14 3.063521135185e-01
5.776606559903e-13 -7.499273605551e-14 3.063521135194e-01
1.250000000006e-01 -8.994218392617e-14 3.063521135203e-01
2.500000000006e-01 -1.048944325649e-13 3.063521135212e-01
-2.499999999994e-01 1.250000000000e-01 3.063521135179e-01
-1.249999999994e-01 1.249999999999e-01 3.063521135188e-01
5.926155301403e-13 1.249999999999e-01 3.063521135197e-01
1.250000000006e-01 1.249999999999e-01 3.063521135206e-01
2.500000000006e-01 1.249999999999e-01 3.063521135215e-01
-2.499999999994e-01 2.500000000000e-01 3.063521135183e-01
-1.249999999994e-01 2.499999999999e-01 3.063521135191e-01
6.075700070535e-13 2.499999999999e-01 3.063521135200e-01
1.250000000006e-01 2.499999999999e-01 3.063521135209e-01
2.500000000006e-01 2.499999999999e-01 3.063521135218e-01
-2.499999999999e-01 -2.500000000002e-01 3.713521135170e-01
-1.249999999999e-01 -2.500000000002e-01 3.713521135179e-01
8.186353951647e-14 -2.500000000002e-01 3.713521135188e-01
1.250000000001e-01 -2.500000000003e-01 3.713521135197e-01
2.500000000001e-01 -2.500000000003e-01 3.713521135206e-01
-2.499999999999e-01 -1.250000000002e-01 3.713521135173e-01
-1.249999999999e-01 -1.250000000002e-01 3.713521135182e-01
9.681388664695e-14 -1.250000000002e-01 3.713521135191e-01
1.250000000001e-01 -1.250000000003e-01 3.713521135200e-01
2.500000000001e-01 -1.250000000003e-01 3.713521135209e-01
-2.499999999999e-01 -2.095695772199e-13 3.713521135176e-01
-1.249999999999e-01 -2.245225001824e-13 3.713521135185e-01
1.117656904311e-13 -2.394731225931e-13 3.713521135194e-01
1.250000000001e-01 -2.544278639109e-13 3.713521135203e-01
2.500000000001e-01 -2.693768924073e-13 3.713521135212e-01
-2.499999999999e-01 1.249999999998e-01 3.713521135179e-01
-1.249999999999e-01 1.249999999998e-01 3.713521135188e-01
1.267168660303e-13 1.249999999998e-01 3.713521135197e-01
1.250000000001e-01 1.249999999997e-01 3.713521135206e-01
2.500000000001e-01 1.249999999997e-01 3.713521135215e-01
-2.499999999999e-01 2.499999999998e-01 3.713521135183e-01
-1.249999999999e-01 2.499999999998e-01 3.713521135191e-01
1.416703882115e-13 2.499999999998e-01 3.713521135200e-01
1.250000000001e-01 2.499999999997e-01 3.713521135209e-01
2.500000000001e-01 2.499999999997e-01 3.713521135218e-01
-2.500000000004e-01 -2.500000000004e-01 4.363521135170e-01
-1.250000000004e-01 -2.500000000004e-01 4.363521135179e-01
-3.840275944989e-13 -2.500000000004e-01 4.363521135188e-01
1.249999999996e-01 -2.500000000004e-01 4.363521135197e-01
2.499999999996e-01 -2.500000000004e-01 4.363521135206e-01
-2.500000000004e-01 -1.250000000004e-01 4.363521135173e-01
-1.250000000004e-01 -1.250000000004e-01 4.363521135182e-01
-3.690780908274e-13 -1.250000000004e-01 4.363521135191e-01
1.249999999996e-01 -1.250000000004e-01 4.363521135200e-01
2.499999999996e-01 -1.250000000004e-01 4.363521135209e-01
-2.500000000004e-01 -3.740513825836e-13 4.363521135176e-01
-1.250000000004e-01 -3.890013727659e-13 4.363521135185e-01
-3.541300104236e-13 -4.039564181069e-13 4.363521135194e-01
1.249999999996e-01 -4.189114518956e-13 4.363521135203e-01
2.499999999996e-01 -4.338617294626e-13 4.363521135212e-01
-2.500000000003e-01 1.249999999996e-01 4.363521135179e-01
-1.250000000003e-01 1.249999999996e-01 4.363521135188e-01
-3.391804050819e-13 1.249999999996e-01 4.363521135197e-01
1.249999999997e-01 1.249999999996e-01 4.363521135206e-01
2.499999999997e-01 1.249999999996e-01 4.363521135215e-01
-2.500000000003e-01 2.499999999996e-01 4.363521135183e-01
-1.250000000003e-01 2.499999999996e-01 4.363521135191e-01
-3.242284426075e-13 2.499999999996e-01 4.363521135200e-01
1.249999999997e-01 2.499999999996e-01 4.363521135209e-01
2.499999999997e-01 2.499999999996e-01 4.363521135218e-01
-2.500000000008e-01 -2.500000000005e-01 5.013521135170e-01
-1.250000000008e-01 -2.500000000006e-01 5.013521135179e-01
-8.499185133846e-13 -2.500000000006e-01 5.013521135188e-01
1.249999999992e-01 -2.500000000006e-01 5.013521135197e-01
2.499999999992e-01 -2.500000000006e-01 5.013521135206e-01
-2.500000000008e-01 -1.250000000005e-01 5.013521135173e-01
-1.250000000008e-01 -1.250000000006e-01 5.013521135182e-01
-8.349692414040e-13 -1.250000000006e-01 5.013521135191e-01
1.249999999992e-01 -1.250000000006e-01 5.013521135200e-01
2.499999999992e-01 -1.250000000006e-01 5.013521135209e-01
-2.500000000008e-01 -5.385220928095e-13 5.013521135176e-01
-1.250000000008e-01 -5.534786894413e-13 5.013521135185e-01
-8.200238040182e-13 -5.684375838074e-13 5.013521135194e-01
1.249999999992e-01 -5.833952201219e-13 5.013521135203e-01
2.499999999992e-01 -5.983462887153e-13 5.013521135212e-01
-2.500000000008e-01 1.249999999995e-01 5.013521135179e-01
-1.250000000008e-01 1.249999999994e-01 5.013521135188e-01
-8.050763773167e-13 1.249999999994e-01 5.013521135197e-01
1.249999999992e-01 1.249999999994e-01 5.013521135206e-01
2.499999999992e-01 1.249999999994e-01 5.013521135215e-01
-2.500000000008e-01 2.499999999995e-01 5.013521135183e-01
-1.250000000008e-01 2.499999999994e-01 5.013521135191e-01
-7.901285939672e-13 2.499999999994e-01 5.013521135200e-01
1.249999999992e-01 2.499999999994e-01 5.013521135209e-01
2.499999999992e-01 2.499999999994e-01 5.013521135218e-01
CELLS 128 1152
8 0 1 6 5 25 26 31 30
8 1 2 7 6 26 27 32 31
8 2 3 8 7 27 28 33 32
8 3 4 9 8 28 29 34 33
8 5 6 11 10 30 31 36 35
8 6 7 12 11 31 32 37 36
8 7 8 13 12 32 33 38 37
8 8 9 14 13 33 34 39 38
8 10 11 16 15 35 36 41 40
8 11 12 17 16 36 37 42 41
8 12 13 18 17 37 38 43 42
8 13 14 19 18 38 39 44 43
8 15 16 21 20 40 41 46 45
8 16 17 22 21 41 42 47 46
8 17 18 23 22 42 43 48 47
8 18 19 24 23 43 44 49 48
8 25 26 31 30 50 51 56 55
8 26 27 32 31 51 52 57 56
8 27 28 33 32 52 53 58 57
8 28 29 34 33 53 54 59 58
8 30 31 36 35 55 56 61 60
8 31 32 37 36 56 57 62 61
8 32 33 38 37 57 58 63 62
8 33 34 39 38 58 59 64 63
8 35 36 41 40 60 61 66 65
8 36 37 42 41 61 62 67 66
8 37 38 43 42 62 63 68 67
8 38 39 44 43 63 64 69 68
8 40 41 46 45 65 66 71 70
8 41 42 47 46 66 67 72 71
8 42 43 48 47 67 68 73 72
8 43 44 49 48 68 69 74 73
8 50 51 56 55 75 76 81 80
8 51 52 57 56 76 77 82 81
8 52 53 58 57 77 78 83 82
8 53 54 59 58 78 79 84 83
8 55 56 61 60 80 81 86 85
8 56 57 62 61 81 82 87 86
8 57 58 63 62 82 83 88 87
8 58 59 64 63 83 84 89 88
8 60 61 66 65 85 86 91 90
8 61 62 67 66 86 87 92 91
8 62 63 68 67 87 88 93 92
8 63 64 69 68 88 89 94 93
8 65 66 71 70 90 91 96 95
8 66 67 72 71 91 92 97 96
8 67 68 73 72 92 93 98 97
8 68 69 74 73 93 94 99 98
8 75 76 81 80 100 101 106 105
8 76 77 82 81 101 102 107 106
8 77 78 83 82 102 103 108 107
8 78 79 84 83 103 104 109 108
8 80 81 86 85 105 106 111 110
8 81 82 87 86 106 107 112 111
8 82 83 88 87 107 108 113 112
8 83 84 89 88 108 109 114 113
8 85 86 91 90 110 111 116 115
8 86 87 92 91 111 112 117 116
8 87 88 93 92 112 113 118 117
8 88 89 94 93 113 114 119 118
8 90 91 96 95 115 116 121 120
8 91 92 97 96 116 117 122 121
8 92 93 98 97 117 118 123 122
8 93 94 99 98 118 119 124 123
8 125 126 131 130 150 151 156 155
8 126 127 132 131 151 152 157 156
8 127 128 133 132 152 153 158 157
8 128 129 134 133 153 154 159 158
8 130 131 136 135 155 156 161 160
8 131 132 137 136 156 157 162 161
8 132 133 138 137 157 158 163 162
8 133 134 139 138 158 159 164 163
8 135 136 141 140 160 161 166 165
8 136 137 142 141 161 162 167 166
8 137 138 143 142 162 163 168 167
8 138 139 144 143 163 164 169 168
8 140 141 146 145 165 166 171 170
8 141 142 147 146 166 167 172 171
8 142 143 148 147 167 168 173 172
8 143 144 149 148 168 169 174 173
8 150 151 156 155 175 176 181 180
8 151 152 157 156 176 177 182 181
8 152 153 158 157 177 178 183 182
8 153 154 159 158 178 179 184 183
8 155 156 161 160 180 181 186 185
8 156 157 162 161 181 182 187 186
8 157 158 163 162 182 183 188 187
8 158 159 164 163 183 184 189 188
8 160 161 166 165 185 186 191 190
8 161 162 167 166 186 187 192 191
8 162 163 168 167 187 188 193 192
8 163 164 169 168 188 189 194 193
8 165 166 171 170 190 191 196 195
8 166 167 172 171 191 192 197 196
8 167 168 173 172 192 193 198 197
8 168 169 174 173 193 194 199 198
8 175 176 181 180 200 201 206 205
8 176 177 182 181 201 202 207 206
8 177 178 183 182 202 203 208 207
8 178 179 184 183 203 204 209 208
8 180 181 186 185 205 206 211 210
8 181 182 187 186 206 207 212 211
8 182 183 188 187 207 208 213 212
8 183 184 189 188 208 209 214 213
8 185 186 191 190 210 211 216 215
8 186 187 192 191 211 212 217 216
8 187 188 193 192 212 213 218 217
8 188 189 194 193 213 214 219 218
8 190 191 196 195 215 216 221 220
8 191 192 197 196 216 217 222 221
8 192 193 198 197 217 218 223 222
8 193 194 199 198 218 219 224 223
8 200 201 206 205 225 226 231 230
8 201 202 207 206 226 227 232 231
8 202 203 208 207 227 228 233 232
8 203 204 209 208 228 229 234 233
8 205 206 211 210 230 231 236 235
8 206 207 212 211 231 232 237 236
8 207 208 213 212 232 233 238 237
8 208 209 214 213 233 234 239 238
8 210 211 216 215 235 236 241 240
8 211 212 217 216 236 237 242 241
8 212 213 218 217 237 238 243 242
8 213 214 219 218 238 239 244 243
8 215 216 221 220 240 241 246 245
8 216 217 222 221 241 242 247 246
8 217 218 223 222 242 243 248 247
8 218 219 224 223 243 244 249 248
CELL_TYPES 128
12
12
12
12
12
12
12
12
12
12
12
12
12
12
12
12
12
12
12
12
12
12
12
12
12
12
12
12
12
12
12
12
12
12
12
12
12
12
12
12
12
12
12
12
12
12
12
12
12
12
12
12
12
12
12
12
12
12
12
12
12
12
12
12
12
12
12
12
12
12
12
12
12
12
12
12
12
12
12
12
12
12
12
12
12
12
12
12
12
12
12
12
12
12
12
12
12
12
12
12
12
12
12
12
12
12
12
12
12
12
12
12
12
12
12
12
12
12
12
12
12
12
12
12
12
12
12
12
POINT_DATA 250
VECTORS displacement float
0.000000000000e+00 0.000000000000e+00 0.000000000000e+00
0.000000000000e+00 0.000000000000e+00 0.000000000000e+00
0.000000000000e+00 0.000000000000e+00 0.000000000000e+00
0.000000000000e+00 0.000000000000e+00 0.000000000000e+00
0.000000000000e+00 0.000000000000e+00 0.000000000000e+00
0.000000000000e+00 0.000000000000e+00 0.000000000000e+00
0.000000000000e+00 0.000000000000e+00 0.000000000000e+00
0.000000000000e+00 0.000000000000e+00 0.000000000000e+00
0.000000000000e+00 0.000000000000e+00 0.000000000000e+00
0.000000000000e+00 0.000000000000e+00 0.000000000000e+00
0.000000000000e+00 0.000000000000e+00 0.000000000000e+00
0.000000000000e+00 0.000000000000e+00 0.000000000000e+00
0.000000000000e+00 0.000000000000e+00 0.000000000000e+00
0.000000000000e+00 0.000000000000e+00 0.000000000000e+00
0.000000000000e+00 0.000000000000e+00 0.000000000000e+00
0.000000000000e+00 0.000000000000e+00 0.000000000000e+00
0.000000000000e+00 0.000000000000e+00 0.000000000000e+00
0.000000000000e+00 0.000000000000e+00 0.000000000000e+00
0.000000000000e+00 0.000000000000e+00 0.000000000000e+00
0.000000000000e+00 0.000000000000e+00 0.000000000000e+00
0.000000000000e+00 0.000000000000e+00 0.000000000000e+00
0.000000000000e+00 0.000000000000e+00 0.000000000000e+00
0.000000000000e+00 0.000000000000e+00 0.000000000000e+00
0.000000000000e+00 0.000000000000e+00 0.000000000000e+00
0.000000000000e+00 0.000000000000e+00 0.000000000000e+00
0.000000000000e+00 0.000000000000e+00 0.000000000000e+00
0.000000000000e+00 0.000000000000e+00 0.000000000000e+00
0.000000000000e+00 0.000000000000e+00 0.000000000000e+00
0.000000000000e+00 0.000000000000e+00 0.000000000000e+00
0.000000000000e+00 0.000000000000e+00 0.000000000000e+00
0.000000000000e+00 0.000000000000e+00 0.000000000000e+00
0.000000000000e+00 0.000000000000e+00 0.000000000000e+00
0.000000000000e+00 0.000000000000e+00 0.000000000000e+00
0.000000000000e+00 0.000000000000e+00 0.000000000000e+00
0.000000000000e+00 0.000000000000e+00 0.000000000000e+00
0.000000000000e+00 0.000000000000e+00 0.000000000000e+00
0.000000000000e+00 0.000000000000e+00 0.000000000000e+00
0.000000000000e+00 0.000000000000e+00 0.000000000000e+00
0.000000000000e+00 0.000000000000e+00 0.000000000000e+00
0.000000000000e+00 0.000000000000e+00 0.000000000000e+00
0.000000000000e+00 0.000000000000e+00 0.000000000000e+00
0.000000000000e+00 0.000000000000e+00 0.000000000000e+00
0.000000000000e+00 0.000000000000e+00 0.000000000000e+00
0.000000000000e+00 0.000000000000e+00 0.000000000000e+00
0.000000000000e+00 0.000000000000e+00 0.000000000000e+00
0.000000000000e+00 0.000000000000e+00 0.000000000000e+00
0.000000000000e+00 0.000000000000e+00 0.000000000000e+00
0.000000000000e+00 0.000000000000e+00 0.000000000000e+00
0.000000000000e+00 0.000000000000e+00 0.000000000000e+00
0.000000000000e+00 0.000000000000e+00 0.000000000000e+00
0.000000000000e+00 0.000000000000e+00 0.000000000000e+00
0.000000000000e+00 0.000000000000e+00 0.000000000000e+00
0.000000000000e+00 0.000000000000e+00 0.000000000000e+00
0.000000000000e+00 0.000000000000e+00 0.000000000000e+00
0.000000000000e+00 0.000000000000e+00 0.000000000000e+00
0.000000000000e+00 0.000000000000e+00 0.000000000000e+00
0.000000000000e+00 0.000000000000e+00 0.000000000000e+00
0.000000000000e+00 0.000000000000e+00 0.000000000000e+00
0.000000000000e+00 0.000000000000e+00 0.000000000000e+00
0.000000000000e+00 0.000000000000e+00 0.000000000000e+00
0.000000000000e+00 0.000000000000e+00 0.000000000000e+00
0.000000000000e+00 0.000000000000e+00 0.000000000000e+00
0.000000000000e+00 0.000000000000e+00 0.000000000000e+00
0.000000000000e+00 0.000000000000e+00 0.000000000000e+00
0.000000000000e+00 0.000000000000e+00 0.000000000000e+00
0.000000000000e+00 0.000000000000e+00 0.000000000000e+00
0.000000000000e+00 0.000000000000e+00 0.000000000000e+00
0.000000000000e+00 0.000000000000e+00 0.000000000000e+00
0.000000000000e+00 0.000000000000e+00 0.000000000000e+00
0.000000000000e+00 0.000000000000e+00 0.000000000000e+00
0.000000000000e+00 0.000000000000e+00 0.000000000000e+00
0.000000000000e+00 0.000000000000e+00 0.000000000000e+00
0.000000000000e+00 0.000000000000e+00 0.000000000000e+00
0.000000000000e+00 0.000000000000e+00 0.000000000000e+00
0.000000000000e+00 0.000000000000e+00 0.000000000000e+00
0.000000000000e+00 0.000000000000e+00 0.000000000000e+00
0.000000000000e+00 0.000000000000e+00 0.000000000000e+00
0.000000000000e+00 0.000000000000e+00 0.000000000000e+00
0.000000000000e+00 0.000000000000e+00 0.000000000000e+00
0.000000000000e+00 0.000000000000e+00 0.000000000000e+00
0.000000000000e+00 0.000000000000e+00 0.000000000000e+00
0.000000000000e+00 0.000000000000e+00 0.000000000000e+00
0.000000000000e+00 0.000000000000e+00 0.000000000000e+00
0.000000000000e+00 0.000000000000e+00 0.000000000000e+00
0.000000000000e+00 0.000000000000e+00 0.000000000000e+00
0.000000000000e+00 0.000000000000e+00 0.000000000000e+00
0.000000000000e+00 0.000000000000e+00 0.000000000000e+00
0.000000000000e+00 0.000000000000e+00 0.000000000000e+00
0.000000000000e+00 0.000000000000e+00 0.000000000000e+00
0.000000000000e+00 0.000000000000e+00 0.000000000000e+00
0.000000000000e+00 0.000000000000e+00 0.000000000000e+00
0.000000000000e+00 0.000000000000e+00 0.000000000000e+00
0.000000000000e+00 0.000000000000e+00 0.000000000000e+00
0.000000000000e+00 0.000000000000e+00 0.000000000000e+00
0.000000000000e+00 0.000000000000e+00 0.000000000000e+00
0.000000000000e+00 0.000000000000e+00 0.000000000000e+00
0.000000000000e+00 0.000000000000e+00 0.000000000000e+00
0.000000000000e+00 0.000000000000e+00 0.000000000000e+00
0.000000000000e+00 0.000000000000e+00 0.000000000000e+00
0.000000000000e+00 0.000000000000e+00 0.000000000000e+00
0.000000000000e+00 0.000000000000e+00 0.000000000000e+00
0.000000000000e+00 0.000000000000e+00 0.000000000000e+00
0.000000000000e+00 0.000000000000e+00 0.000000000000e+00
0.000000000000e+00 0.000000000000e+00 0.000000000000e+00
0.000000000000e+00 0.000000000000e+00 0.000000000000e+00
0.000000000000e+00 0.000000000000e+00 0.000000000000e+00
0.000000000000e+00 0.000000000000e+00 0.000000000000e+00
0.000000000000e+00 0.000000000000e+00 0.000000000000e+00
0.000000000000e+00 0.000000000000e+00 0.000000000000e+00
0.000000000000e+00 0.000000000000e+00 0.000000000000e+00
0.000000000000e+00 0.000000000000e+00 0.000000000000e+00
0.000000000000e+00 0.000000000000e+00 0.000000000000e+00
0.000000000000e+00 0.000000000000e+00 0.000000000000e+00
0.000000000000e+00 0.000000000000e+00 0.000000000000e+00
0.000000000000e+00 0.000000000000e+00 0.000000000000e+00
0.000000000000e+00 0.000000000000e+00 0.000000000000e+00
0.000000000000e+00 0.000000000000e+00 0.000000000000e+00
0.000000000000e+00 0.000000000000e+00 0.000000000000e+00
0.000000000000e+00 0.000000000000e+00 0.000000000000e+00
0.000000000000e+00 0.000000000000e+00 0.000000000000e+00
0.000000000000e+00 0.000000000000e+00 0.000000000000e+00
0.000000000000e+00 0.000000000000e+00 0.000000000000e+00
0.000000000000e+00 0.000000000000e+00 0.000000000000e+00
0.000000000000e+00 0.000000000000e+00 0.000000000000e+00
0.000000000000e+00 0.000000000000e+00 0.000000000000e+00
1.013615399290e-12 1.193888036926e-13 -1.364788648301e-02
1.013627975449e-12 1.044422468397e-13 -1.364788648212e-02
1.013648913846e-12 8.949585740835e-14 -1.364788648122e-02
1.013661721400e-12 7.454836349533e-14 -1.364788648032e-02
1.013666090498e-12 5.958972522862e-14 -1.364788647943e-02
1.028577188082e-12 1.193851163648e-13 -1.364788648270e-02
1.028581047960e-12 1.044338278086e-13 -1.364788648180e-02
1.028596866356e-12 8.948864155603e-14 -1.364788648090e-02
1.028611112243e-12 7.453919564866e-14 -1.364788648001e-02
1.028612105965e-12 5.959253991688e-14 -1.364788647911e-02
1.043549851125e-12 1.193820964715e-13 -1.364788648238e-02
1.043546260528e-12 1.044298490411e-13 -1.364788648148e-02
1.043552934521e-12 8.948379905836e-14 -1.364788648059e-02
1.043566031261e-12 7.453853073367e-14 -1.364788647969e-02
1.043576320698e-12 5.959245289522e-14 -1.364788647879e-02
1.058521940126e-12 1.193904366798e-13 -1.364788648206e-02
1.058508444029e-12 1.044386094193e-13 -1.364788648117e-02
1.058512265881e-12 8.949469508323e-14 -1.364788648027e-02
1.058525032845e-12 7.454687223826e-14 -1.364788647937e-02
1.058523557818e-12 5.958694256286e-14 -1.364788647848e-02
1.073476616415e-12 1.193985107472e-13 -1.364788648175e-02
1.073468704583e-12 1.044446701405e-13 -1.364788648085e-02
1.073469691602e-12 8.951046691819e-14 -1.364788647995e-02
1.073477118398e-12 7.454869958978e-14 -1.364788647906e-02
1.073475825665e-12 5.958298663639e-14 -1.364788647816e-02
5.477440556064e-13 -4.509194527019e-14 -1.364788648301e-02
5.477494982898e-13 -6.004273699951e-14 -1.364788648212e-02
5.477550939138e-13 -7.499491571695e-14 -1.364788648122e-02
5.477639953264e-13 -8.994049807527e-14 -1.364788648032e-02
5.477667302817e-13 -1.048908919264e-13 -1.364788647943e-02
5.626973128113e-13 -4.509105220467e-14 -1.364788648270e-02
5.627018649596e-13 -6.004417916076e-14 -1.364788648180e-02
5.627044656063e-13 -7.499705970364e-14 -1.364788648090e-02
5.627123730872e-13 -8.994323005494e-14 -1.364788648001e-02
5.627180255466e-13 -1.048917978651e-13 -1.364788647911e-02
5.776517343630e-13 -4.508830206002e-14 -1.364788648238e-02
5.776540083305e-13 -6.004459943874e-14 -1.364788648148e-02
5.776606559903e-13 -7.499273605551e-14 -1.364788648059e-02
5.776669430178e-13 -8.994218392617e-14 -1.364788647969e-02
5.776686172008e-13 -1.048944325649e-13 -1.364788647879e-02
5.926153987139e-13 -4.508797495252e-14 -1.364788648206e-02
5.926156858301e-13 -6.004170018067e-14 -1.364788648117e-02
5.926155301403e-13 -7.498936943604e-14 -1.364788648027e-02
5.926185840330e-13 -8.994265990212e-14 -1.364788647937e-02
5.926233290221e-13 -1.048968053867e-13 -1.364788647848e-02
6.075706246628e-13 -4.508661699461e-14 -1.364788648175e-02
6.075675779161e-13 -6.004056629065e-14 -1.364788648085e-02
6.075700070535e-13 -7.498793369995e-14 -1.364788647995e-02
6.075752234829e-13 -8.994020496913e-14 -1.364788647906e-02
6.075786938289e-13 -1.048999171482e-13 -1.364788647816e-02
8.186618668834e-14 -2.095717746560e-13 -1.364788648301e-02
8.186561715503e-14 -2.245262146970e-13 -1.364788648212e-02
8.186353951647e-14 -2.394796637330e-13 -1.364788648122e-02
8.186609560660e-14 -2.544248831565e-13 -1.364788648032e-02
8.186927214498e-14 -2.693739427829e-13 -1.364788647943e-02
9.681432623768e-14 -2.095710788548e-13 -1.364788648270e-02
9.681345113273e-14 -2.245235406500e-13 -1.364788648180e-02
9.681388664695e-14 -2.394763672679e-13 -1.364788648090e-02
9.681691539365e-14 -2.544254013465e-13 -1.364788648001e-02
9.681680961075e-14 -2.693737507605e-13 -1.364788647911e-02
1.117635059321e-13 -2.095695772199e-13 -1.364788648238e-02
1.117630036622e-13 -2.245225001824e-13 -1.364788648148e-02
1.117656904311e-13 -2.394731225931e-13 -1.364788648059e-02
1.117680282147e-13 -2.544278639109e-13 -1.364788647969e-02
1.117655725199e-13 -2.693768924073e-13 -1.364788647879e-02
1.267190454324e-13 -2.095675084645e-13 -1.364788648206e-02
1.267171037615e-13 -2.245229503528e-13 -1.364788648117e-02
1.267168660303e-13 -2.394730215658e-13 -1.364788648027e-02
1.267179755310e-13 -2.544268655542e-13 -1.364788647937e-02
1.267179755604e-13 -2.693827764680e-13 -1.364788647848e-02
1.416730912941e-13 -2.095693464946e-13 -1.364788648175e-02
1.416709451721e-13 -2.245225918318e-13 -1.364788648085e-02
1.416703882115e-13 -2.394755562622e-13 -1.364788647995e-02
1.416712611871e-13 -2.544274142834e-13 -1.364788647906e-02
1.416727276834e-13 -2.693838145832e-13 -1.364788647816e-02
-3.840176651576e-13 -3.740519410489e-13 -1.364788648301e-02
-3.840216109074e-13 -3.890025105995e-13 -1.364788648212e-02
-3.840275944989e-13 -4.039588346532e-13 -1.364788648122e-02
-3.840314855673e-13 -4.189118643503e-13 -1.364788648032e-02
-3.840318247454e-13 -4.338516712191e-13 -1.364788647943e-02
-3.690689159825e-13 -3.740523812752e-13 -1.364788648270e-02
-3.690740557167e-13 -3.890016797786e-13 -1.364788648180e-02
-3.690780908274e-13 -4.039576549012e-13 -1.364788648090e-02
-3.690803674172e-13 -4.189109164324e-13 -1.364788648001e-02
-3.690849274438e-13 -4.338551012588e-13 -1.364788647911e-02
-3.541236516144e-13 -3.740513825836e-13 -1.364788648238e-02
-3.541276738997e-13 -3.890013727659e-13 -1.364788648148e-02
-3.541300104236e-13 -4.039564181069e-13 -1.364788648059e-02
-3.541320030820e-13 -4.189114518956e-13 -1.364788647969e-02
-3.541358658122e-13 -4.338617294626e-13 -1.364788647879e-02
-3.391764168900e-13 -3.740487211069e-13 -1.364788648206e-02
-3.391783526813e-13 -3.890044278540e-13 -1.364788648117e-02
-3.391804050819e-13 -4.039582751981e-13 -1.364788648027e-02
-3.391833023804e-13 -4.189139509426e-13 -1.364788647937e-02
-3.391841537505e-13 -4.338643536944e-13 -1.364788647848e-02
-3.242226513514e-13 -3.740524128383e-13 -1.364788648175e-02
-3.242256927993e-13 -3.890100884778e-13 -1.364788648085e-02
-3.242284426075e-13 -4.039664660854e-13 -1.364788647995e-02
-3.242310382390e-13 -4.189138358705e-13 -1.364788647906e-02
-3.242347379185e-13 -4.338667114546e-13 -1.364788647816e-02
-8.499023734445e-13 -5.385377530544e-13 -1.364788648301e-02
-8.499078828394e-13 -5.534848396924e-13 -1.364788648212e-02
-8.499185133846e-13 -5.684407362554e-13 -1.364788648122e-02
-8.499314607584e-13 -5.833927787144e-13 -1.364788648032e-02
-8.499267523174e-13 -5.983421402540e-13 -1.364788647943e-02
-8.349540002641e-13 -5.385283451972e-13 -1.364788648270e-02
-8.349551838909e-13 -5.534780357248e-13 -1.364788648180e-02
-8.349692414040e-13 -5.684370177982e-13 -1.364788648090e-02
-8.349830314746e-13 -5.833920096502e-13 -1.364788648001e-02
-8.349874618813e-13 -5.983431911977e-13 -1.364788647911e-02
-8.200222390039e-13 -5.385220928095e-13 -1.364788648238e-02
-8.200167192039e-13 -5.534786894413e-13 -1.364788648148e-02
-8.200238040182e-13 -5.684375838074e-13 -1.364788648059e-02
-8.200398962125e-13 -5.833952201219e-13 -1.364788647969e-02
-8.200464107885e-13 -5.983462887153e-13 -1.364788647879e-02
-8.050799705122e-13 -5.385311475493e-13 -1.364788648206e-02
-8.050731608221e-13 -5.534880327821e-13 -1.364788648117e-02
-8.050763773167e-13 -5.684496025663e-13 -1.364788648027e-02
-8.050904243510e-13 -5.834021671657e-13 -1.364788647937e-02
-8.050948693226e-13 -5.983475661327e-13 -1.364788647848e-02
-7.901250537975e-13 -5.385302806469e-13 -1.364788648175e-02
-7.901241042244e-13 -5.534908214414e-13 -1.364788648085e-02
-7.901285939672e-13 -5.684564803155e-13 -1.364788647995e-02
-7.901342692177e-13 -5.834054890637e-13 -1.364788647906e-02
-7.901316074476e-13 -5.983436475728e-13 -1.364788647816e-02
SCALARS displacement_magnitude float 1
LOOKUP_TABLE default
0.000000000000e+00
0.000000000000e+00
0.000000000000e+00
0.000000000000e+00
0.000000000000e+00
0.000000000000e+00
0.000000000000e+00
0.000000000000e+00
0.000000000000e+00
0.000000000000e+00
0.000000000000e+00
0.000000000000e+00
0.000000000000e+00
0.000000000000e+00
0.000000000000e+00
0.000000000000e+00
0.000000000000e+00
0.000000000000e+00
0.000000000000e+00
0.000000000000e+00
0.000000000000e+00
0.000000000000e+00
0.000000000000e+00
0.000000000000e+00
0.000000000000e+00
0.000000000000e+00
0.000000000000e+00
0.000000000000e+00
0.000000000000e+00
0.000000000000e+00
0.000000000000e+00
0.000000000000e+00
0.000000000000e+00
0.000000000000e+00
0.000000000000e+00
0.000000000000e+00
0.000000000000e+00
0.000000000000e+00
0.000000000000e+00
0.000000000000e+00
0.000000000000e+00
0.000000000000e+00
0.000000000000e+00
0.000000000000e+00
0.000000000000e+00
0.000000000000e+00
0.000000000000e+00
0.000000000000e+00
0.000000000000e+00
0.000000000000e+00
0.000000000000e+00
0.000000000000e+00
0.000000000000e+00
0.000000000000e+00
0.000000000000e+00
0.000000000000e+00
0.000000000000e+00
0.000000000000e+00
0.000000000000e+00
0.000000000000e+00
0.000000000000e+00
0.000000000000e+00
0.000000000000e+00
0.000000000000e+00
0.000000000000e+00
0.000000000000e+00
0.000000000000e+00
0.000000000000e+00
0.000000000000e+00
0.000000000000e+00
0.000000000000e+00
0.000000000000e+00
0.000000000000e+00
0.000000000000e+00
0.000000000000e+00
0.000000000000e+00
0.000000000000e+00
0.000000000000e+00
0.000000000000e+00
0.000000000000e+00
0.000000000000e+00
0.000000000000e+00
0.000000000000e+00
0.000000000000e+00
0.000000000000e+00
0.000000000000e+00
0.000000000000e+00
0.000000000000e+00
0.000000000000e+00
0.000000000000e+00
0.000000000000e+00
0.000000000000e+00
0.000000000000e+00
0.000000000000e+00
0.000000000000e+00
0.000000000000e+00
0.000000000000e+00
0.000000000000e+00
0.000000000000e+00
0.000000000000e+00
0.000000000000e+00
0.000000000000e+00
0.000000000000e+00
0.000000000000e+00
0.000000000000e+00
0.000000000000e+00
0.000000000000e+00
0.000000000000e+00
0.000000000000e+00
0.000000000000e+00
0.000000000000e+00
0.000000000000e+00
0.000000000000e+00
0.000000000000e+00
0.000000000000e+00
0.000000000000e+00
0.000000000000e+00
0.000000000000e+00
0.000000000000e+00
0.000000000000e+00
0.000000000000e+00
0.000000000000e+00
0.000000000000e+00
0.000000000000e+00
0.000000000000e+00
1.364788648301e-02
1.364788648212e-02
1.364788648122e-02
1.364788648032e-02
1.364788647943e-02
1.364788648270e-02
1.364788648180e-02
1.364788648090e-02
1.364788648001e-02
1.364788647911e-02
1.364788648238e-02
1.364788648148e-02
1.364788648059e-02
1.364788647969e-02
1.364788647879e-02
1.364788648206e-02
1.364788648117e-02
1.364788648027e-02
1.364788647937e-02
1.364788647848e-02
1.364788648175e-02
1.364788648085e-02
1.364788647995e-02
1.364788647906e-02
1.364788647816e-02
1.364788648301e-02
1.364788648212e-02
1.364788648122e-02
1.364788648032e-02
1.364788647943e-02
1.364788648270e-02
1.364788648180e-02
1.364788648090e-02
1.364788648001e-02
1.364788647911e-02
1.364788648238e-02
1.364788648148e-02
1.364788648059e-02
1.364788647969e-02
1.364788647879e-02
1.364788648206e-02
1.364788648117e-02
1.364788648027e-02
1.364788647937e-02
1.364788647848e-02
1.364788648175e-02
1.364788648085e-02
1.364788647995e-02
1.364788647906e-02
1.364788647816e-02
1.364788648301e-02
1.364788648212e-02
1.364788648122e-02
1.364788648032e-02
1.364788647943e-02
1.364788648270e-02
1.364788648180e-02
1.364788648090e-02
1.364788648001e-02
1.364788647911e-02
1.364788648238e-02
1.364788648148e-02
1.364788648059e-02
1.364788647969e-02
1.364788647879e-02
1.364788648206e-02
1.364788648117e-02
1.364788648027e-02
1.364788647937e-02
1.364788647848e-02
1.364788648175e-02
1.364788648085e-02
1.364788647995e-02
1.364788647906e-02
1.364788647816e-02
1.364788648301e-02
1.364788648212e-02
1.364788648122e-02
1.364788648032e-02
1.364788647943e-02
1.364788648270e-02
1.364788648180e-02
1.364788648090e-02
1.364788648001e-02
1.364788647911e-02
1.364788648238e-02
1.364788648148e-02
1.364788648059e-02
1.364788647969e-02
1.364788647879e-02
1.364788648206e-02
1.364788648117e-02
1.364788648027e-02
1.364788647937e-02
1.364788647848e-02
1.364788648175e-02
1.364788648085e-02
1.364788647995e-02
1.364788647906e-02
1.364788647816e-02
1.364788648301e-02
1.364788648212e-02
1.364788648122e-02
1.364788648032e-02
1.364788647943e-02
1.364788648270e-02
1.364788648180e-02
1.364788648090e-02
1.364788648001e-02
1.364788647911e-02
1.364788648238e-02
1.364788648148e-02
1.364788648059e-02
1.364788647969e-02
1.364788647879e-02
1.364788648206e-02
1.364788648117e-02
1.364788648027e-02
1.364788647937e-02
1.364788647848e-02
1.364788648175e-02
1.364788648085e-02
1.364788647995e-02
1.364788647906e-02
1.364788647816e-02
CELL_DATA 128
SCALARS displacement_magnitude float 1
LOOKUP_TABLE default
0.000000000000e+00
0.000000000000e+00
0.000000000000e+00
0.000000000000e+00
0.000000000000e+00
0.000000000000e+00
0.000000000000e+00
0.000000000000e+00
0.000000000000e+00
0.000000000000e+00
0.000000000000e+00
0.000000000000e+00
0.000000000000e+00
0.000000000000e+00
0.000000000000e+00
0.000000000000e+00
0.000000000000e+00
0.000000000000e+00
0.000000000000e+00
0.000000000000e+00
0.000000000000e+00
0.000000000000e+00
0.000000000000e+00
0.000000000000e+00
0.000000000000e+00
0.000000000000e+00
0.000000000000e+00
0.000000000000e+00
0.000000000000e+00
0.000000000000e+00
0.000000000000e+00
0.000000000000e+00
0.000000000000e+00
0.000000000000e+00
0.000000000000e+00
0.000000000000e+00
0.000000000000e+00
0.000000000000e+00
0.000000000000e+00
0.000000000000e+00
0.000000000000e+00
0.000000000000e+00
0.000000000000e+00
0.000000000000e+00
0.000000000000e+00
0.000000000000e+00
0.000000000000e+00
0.000000000000e+00
0.000000000000e+00
0.000000000000e+00
0.000000000000e+00
0.000000000000e+00
0.000000000000e+00
0.000000000000e+00
0.000000000000e+00
0.000000000000e+00
0.000000000000e+00
0.000000000000e+00
0.000000000000e+00
0.000000000000e+00
0.000000000000e+00
0.000000000000e+00
0.000000000000e+00
0.000000000000e+00
1.364788648241e-02
1.364788648151e-02
1.364788648061e-02
1.364788647972e-02
1.364788648209e-02
1.364788648119e-02
1.364788648030e-02
1.364788647940e-02
1.364788648177e-02
1.364788648088e-02
1.364788647998e-02
1.364788647908e-02
1.364788648146e-02
1.364788648056e-02
1.364788647966e-02
1.364788647877e-02
1.364788648241e-02
1.364788648151e-02
1.364788648061e-02
1.364788647972e-02
1.364788648209e-02
1.364788648119e-02
1.364788648030e-02
1.364788647940e-02
1.364788648177e-02
1.364788648088e-02
1.364788647998e-02
1.364788647908e-02
1.364788648146e-02
1.364788648056e-02
1.364788647966e-02
1.364788647877e-02
1.364788648241e-02
1.364788648151e-02
1.364788648061e-02
1.364788647972e-02
1.364788648209e-02
1.364788648119e-02
1.364788648030e-02
1.364788647940e-02
1.364788648177e-02
1.364788648088e-02
1.364788647998e-02
1.364788647908e-02
1.364788648146e-02
1.364788648056e-02
1.364788647966e-02
1.364788647877e-02
1.364788648241e-02
1.364788648151e-02
1.364788648061e-02
1.364788647972e-02
1.364788648209e-02
1.364788648119e-02
1.364788648030e-02
1.364788647940e-02
1.364788648177e-02
1.364788648088e-02
1.364788647998e-02
1.364788647908e-02
1.364788648146e-02
1.364788648056e-02
1.364788647966e-02
1.364788647877e-02
SCALARS engineering_strain_norm float 1
LOOKUP_TABLE default
0.000000000000e+00
0.000000000000e+00
0.000000000000e+00
0.000000000000e+00
0.000000000000e+00
0.000000000000e+00
0.000000000000e+00
0.000000000000e+00
0.000000000000e+00
0.000000000000e+00
0.000000000000e+00
0.000000000000e+00
0.000000000000e+00
0.000000000000e+00
0.000000000000e+00
0.000000000000e+00
0.000000000000e+00
0.000000000000e+00
0.000000000000e+00
0.000000000000e+00
0.000000000000e+00
0.000000000000e+00
0.000000000000e+00
0.000000000000e+00
0.000000000000e+00
0.000000000000e+00
0.000000000000e+00
0.000000000000e+00
0.000000000000e+00
0.000000000000e+00
0.000000000000e+00
0.000000000000e+00
0.000000000000e+00
0.000000000000e+00
0.000000000000e+00
0.000000000000e+00
0.000000000000e+00
0.000000000000e+00
0.000000000000e+00
0.000000000000e+00
0.000000000000e+00
0.000000000000e+00
0.000000000000e+00
0.000000000000e+00
0.000000000000e+00
0.000000000000e+00
0.000000000000e+00
0.000000000000e+00
0.000000000000e+00
0.000000000000e+00
0.000000000000e+00
0.000000000000e+00
0.000000000000e+00
0.000000000000e+00
0.000000000000e+00
0.000000000000e+00
0.000000000000e+00
0.000000000000e+00
0.000000000000e+00
0.000000000000e+00
0.000000000000e+00
0.000000000000e+00
0.000000000000e+00
0.000000000000e+00
1.389390749785e-16
1.212261615083e-16
1.485910819703e-16
4.111232425462e-17
1.706147140413e-16
1.408301612887e-16
1.649173626833e-16
1.155506830330e-16
1.259235558160e-16
2.423737852544e-16
1.565535617392e-16
1.117407934066e-16
1.153066870149e-16
2.342299333095e-16
2.234195528542e-16
5.473624796075e-17
1.485863578680e-16
1.334746603663e-16
1.499237424452e-16
3.340933109982e-17
2.221821570761e-16
1.872412456504e-16
1.759643064907e-16
5.897432031855e-17
1.236723823773e-16
2.439495701418e-16
1.417661799136e-16
1.731356592126e-16
1.349688280649e-16
2.198856227446e-16
2.290797153399e-16
2.416955087866e-17
1.103180591310e-16
1.820548527737e-16
1.180525857402e-16
4.618045565250e-17
2.297662666799e-16
2.091209118247e-16
1.765413687875e-16
9.609763623314e-17
1.075946653804e-16
2.071195730572e-16
1.414924121121e-16
2.089191704626e-16
1.427018276147e-16
1.648836790757e-16
2.003221050886e-16
4.007432732135e-17
9.241382072488e-17
2.080536949867e-16
1.533804766034e-16
2.790620853578e-17
1.992213278678e-16
2.399833532541e-16
1.787012304679e-16
9.787768969513e-17
1.123484087089e-16
2.338510885938e-16
1.492784898563e-16
1.069218859324e-16
1.142556171895e-16
1.920079292740e-16
1.412799552303e-16
8.301552770453e-17
SCALARS von_mises float 1
LOOKUP_TABLE default
0.000000000000e+00
0.000000000000e+00
0.000000000000e+00
0.000000000000e+00
0.000000000000e+00
0.000000000000e+00
0.000000000000e+00
0.000000000000e+00
0.000000000000e+00
0.000000000000e+00
0.000000000000e+00
0.000000000000e+00
0.000000000000e+00
0.000000000000e+00
0.000000000000e+00
0.000000000000e+00
0.000000000000e+00
0.000000000000e+00
0.000000000000e+00
0.000000000000e+00
0.000000000000e+00
0.000000000000e+00
0.000000000000e+00
0.000000000000e+00
0.000000000000e+00
0.000000000000e+00
0.000000000000e+00
0.000000000000e+00
0.000000000000e+00
0.000000000000e+00
0.000000000000e+00
0.000000000000e+00
0.000000000000e+00
0.000000000000e+00
0.000000000000e+00
0.000000000000e+00
0.000000000000e+00
0.000000000000e+00
0.000000000000e+00
0.000000000000e+00
0.000000000000e+00
0.000000000000e+00
0.000000000000e+00
0.000000000000e+00
0.000000000000e+00
0.000000000000e+00
0.000000000000e+00
0.000000000000e+00
0.000000000000e+00
0.000000000000e+00
0.000000000000e+00
0.000000000000e+00
0.000000000000e+00
0.000000000000e+00
0.000000000000e+00
0.000000000000e+00
0.000000000000e+00
0.000000000000e+00
0.000000000000e+00
0.000000000000e+00
0.000000000000e+00
0.000000000000e+00
0.000000000000e+00
0.000000000000e+00
1.059600521158e-11
1.033403185690e-11
1.184583236122e-11
3.530154628176e-12
1.144893099743e-11
1.095423485195e-11
1.312109362778e-11
8.953210647032e-12
9.170447938407e-12
1.672333259279e-11
1.073897385299e-11
7.623088909347e-12
8.508234977822e-12
1.661879137216e-11
1.587280385427e-11
3.895332237591e-12
1.092470185826e-11
8.887111157215e-12
1.103392063893e-11
2.439773363828e-12
1.546574839469e-11
1.399438205242e-11
1.359225013305e-11
4.090169770343e-12
8.358563225461e-12
1.716313100994e-11
1.048547835674e-11
1.162351642393e-11
9.046589872847e-12
1.470796606374e-11
1.553485681736e-11
1.921213872791e-12
7.504222465286e-12
1.232965526478e-11
7.904828628193e-12
2.984632094548e-12
1.543634159945e-11
1.395660285190e-11
1.184412737584e-11
7.713871177802e-12
7.178270151311e-12
1.401551606296e-11
9.448153682954e-12
1.444793714869e-11
9.843957275043e-12
1.133470347766e-11
1.356199657135e-11
3.055292464513e-12
6.933555895449e-12
1.487737841926e-11
1.110579827947e-11
2.196148497852e-12
1.334053952831e-11
1.652940737501e-11
1.184745159031e-11
8.586163427437e-12
7.891148483277e-12
1.630810630516e-11
9.995244545526e-12
7.488769939228e-12
7.887129789011e-12
1.421293274977e-11
9.330275055497e-12
6.089877114554e-12
SCALARS sdf_gap float 1
LOOKUP_TABLE default
0.000000000000e+00
0.000000000000e+00
0.000000000000e+00
0.000000000000e+00
0.000000000000e+00
0.000000000000e+00
0.000000000000e+00
0.000000000000e+00
0.000000000000e+00
0.000000000000e+00
0.000000000000e+00
0.000000000000e+00
0.000000000000e+00
0.000000000000e+00
0.000000000000e+00
0.000000000000e+00
0.000000000000e+00
0.000000000000e+00
0.000000000000e+00
0.000000000000e+00
0.000000000000e+00
0.000000000000e+00
0.000000000000e+00
0.000000000000e+00
0.000000000000e+00
0.000000000000e+00
0.000000000000e+00
0.000000000000e+00
0.000000000000e+00
0.000000000000e+00
0.000000000000e+00
0.000000000000e+00
0.000000000000e+00
0.000000000000e+00
0.000000000000e+00
0.000000000000e+00
0.000000000000e+00
0.000000000000e+00
0.000000000000e+00
0.000000000000e+00
0.000000000000e+00
0.000000000000e+00
0.000000000000e+00
0.000000000000e+00
0.000000000000e+00
0.000000000000e+00
0.000000000000e+00
0.000000000000e+00
0.000000000000e+00
0.000000000000e+00
0.000000000000e+00
0.000000000000e+00
0.000000000000e+00
0.000000000000e+00
0.000000000000e+00
0.000000000000e+00
0.000000000000e+00
0.000000000000e+00
0.000000000000e+00
0.000000000000e+00
0.000000000000e+00
0.000000000000e+00
0.000000000000e+00
0.000000000000e+00
1.352113517595e-03
1.352113518491e-03
1.352113519387e-03
1.352113520283e-03
1.352113517911e-03
1.352113518807e-03
1.352113519703e-03
1.352113520599e-03
1.352113518227e-03
1.352113519123e-03
1.352113520019e-03
1.352113520915e-03
1.352113518544e-03
1.352113519440e-03
1.352113520336e-03
1.352113521232e-03
0.000000000000e+00
0.000000000000e+00
0.000000000000e+00
0.000000000000e+00
0.000000000000e+00
0.000000000000e+00
0.000000000000e+00
0.000000000000e+00
0.000000000000e+00
0.000000000000e+00
0.000000000000e+00
0.000000000000e+00
0.000000000000e+00
0.000000000000e+00
0.000000000000e+00
0.000000000000e+00
0.000000000000e+00
0.000000000000e+00
0.000000000000e+00
0.000000000000e+00
0.000000000000e+00
0.000000000000e+00
0.000000000000e+00
0.000000000000e+00
0.000000000000e+00
0.000000000000e+00
0.000000000000e+00
0.000000000000e+00
0.000000000000e+00
0.000000000000e+00
0.000000000000e+00
0.000000000000e+00
0.000000000000e+00
0.000000000000e+00
0.000000000000e+00
0.000000000000e+00
0.000000000000e+00
0.000000000000e+00
0.000000000000e+00
0.000000000000e+00
0.000000000000e+00
0.000000000000e+00
0.000000000000e+00
0.000000000000e+00
0.000000000000e+00
0.000000000000e+00
0.000000000000e+00
0.000000000000e+00
SCALARS contact_pressure float 1
LOOKUP_TABLE default
0.000000000000e+00
0.000000000000e+00
0.000000000000e+00
0.000000000000e+00
0.000000000000e+00
0.000000000000e+00
0.000000000000e+00
0.000000000000e+00
0.000000000000e+00
0.000000000000e+00
0.000000000000e+00
0.000000000000e+00
0.000000000000e+00
0.000000000000e+00
0.000000000000e+00
0.000000000000e+00
0.000000000000e+00
0.000000000000e+00
0.000000000000e+00
0.000000000000e+00
0.000000000000e+00
0.000000000000e+00
0.000000000000e+00
0.000000000000e+00
0.000000000000e+00
0.000000000000e+00
0.000000000000e+00
0.000000000000e+00
0.000000000000e+00
0.000000000000e+00
0.000000000000e+00
0.000000000000e+00
0.000000000000e+00
0.000000000000e+00
0.000000000000e+00
0.000000000000e+00
0.000000000000e+00
0.000000000000e+00
0.000000000000e+00
0.000000000000e+00
0.000000000000e+00
0.000000000000e+00
0.000000000000e+00
0.000000000000e+00
0.000000000000e+00
0.000000000000e+00
0.000000000000e+00
0.000000000000e+00
0.000000000000e+00
0.000000000000e+00
0.000000000000e+00
0.000000000000e+00
0.000000000000e+00
0.000000000000e+00
0.000000000000e+00
0.000000000000e+00
0.000000000000e+00
0.000000000000e+00
0.000000000000e+00
0.000000000000e+00
0.000000000000e+00
0.000000000000e+00
0.000000000000e+00
0.000000000000e+00
0.000000000000e+00
0.000000000000e+00
0.000000000000e+00
0.000000000000e+00
0.000000000000e+00
0.000000000000e+00
0.000000000000e+00
0.000000000000e+00
0.000000000000e+00
0.000000000000e+00
0.000000000000e+00
0.000000000000e+00
0.000000000000e+00
0.000000000000e+00
0.000000000000e+00
0.000000000000e+00
0.000000000000e+00
0.000000000000e+00
0.000000000000e+00
0.000000000000e+00
0.000000000000e+00
0.000000000000e+00
0.000000000000e+00
0.000000000000e+00
0.000000000000e+00
0.000000000000e+00
0.000000000000e+00
0.000000000000e+00
0.000000000000e+00
0.000000000000e+00
0.000000000000e+00
0.000000000000e+00
0.000000000000e+00
0.000000000000e+00
0.000000000000e+00
0.000000000000e+00
0.000000000000e+00
0.000000000000e+00
0.000000000000e+00
0.000000000000e+00
0.000000000000e+00
0.000000000000e+00
0.000000000000e+00
0.000000000000e+00
0.000000000000e+00
0.000000000000e+00
0.000000000000e+00
0.000000000000e+00
0.000000000000e+00
0.000000000000e+00
0.000000000000e+00
0.000000000000e+00
0.000000000000e+00
0.000000000000e+00
0.000000000000e+00
0.000000000000e+00
0.000000000000e+00
0.000000000000e+00
0.000000000000e+00
0.000000000000e+00
0.000000000000e+00
0.000000000000e+00
0.000000000000e+00
0.000000000000e+00
SCALARS active_contact float 1
LOOKUP_TABLE default
0.000000000000e+00
0.000000000000e+00
0.000000000000e+00
0.000000000000e+00
0.000000000000e+00
0.000000000000e+00
0.000000000000e+00
0.000000000000e+00
0.000000000000e+00
0.000000000000e+00
0.000000000000e+00
0.000000000000e+00
0.000000000000e+00
0.000000000000e+00
0.000000000000e+00
0.000000000000e+00
0.000000000000e+00
0.000000000000e+00
0.000000000000e+00
0.000000000000e+00
0.000000000000e+00
0.000000000000e+00
0.000000000000e+00
0.000000000000e+00
0.000000000000e+00
0.000000000000e+00
0.000000000000e+00
0.000000000000e+00
0.000000000000e+00
0.000000000000e+00
0.000000000000e+00
0.000000000000e+00
0.000000000000e+00
0.000000000000e+00
0.000000000000e+00
0.000000000000e+00
0.000000000000e+00
0.000000000000e+00
0.000000000000e+00
0.000000000000e+00
0.000000000000e+00
0.000000000000e+00
0.000000000000e+00
0.000000000000e+00
0.000000000000e+00
0.000000000000e+00
0.000000000000e+00
0.000000000000e+00
0.000000000000e+00
0.000000000000e+00
0.000000000000e+00
0.000000000000e+00
0.000000000000e+00
0.000000000000e+00
0.000000000000e+00
0.000000000000e+00
0.000000000000e+00
0.000000000000e+00
0.000000000000e+00
0.000000000000e+00
0.000000000000e+00
0.000000000000e+00
0.000000000000e+00
0.000000000000e+00
0.000000000000e+00
0.000000000000e+00
0.000000000000e+00
0.000000000000e+00
0.000000000000e+00
0.000000000000e+00
0.000000000000e+00
0.000000000000e+00
0.000000000000e+00
0.000000000000e+00
0.000000000000e+00
0.000000000000e+00
0.000000000000e+00
0.000000000000e+00
0.000000000000e+00
0.000000000000e+00
0.000000000000e+00
0.000000000000e+00
0.000000000000e+00
0.000000000000e+00
0.000000000000e+00
0.000000000000e+00
0.000000000000e+00
0.000000000000e+00
0.000000000000e+00
0.000000000000e+00
0.000000000000e+00
0.000000000000e+00
0.000000000000e+00
0.000000000000e+00
0.000000000000e+00
0.000000000000e+00
0.000000000000e+00
0.000000000000e+00
0.000000000000e+00
0.000000000000e+00
0.000000000000e+00
0.000000000000e+00
0.000000000000e+00
0.000000000000e+00
0.000000000000e+00
0.000000000000e+00
0.000000000000e+00
0.000000000000e+00
0.000000000000e+00
0.000000000000e+00
0.000000000000e+00
0.000000000000e+00
0.000000000000e+00
0.000000000000e+00
0.000000000000e+00
0.000000000000e+00
0.000000000000e+00
0.000000000000e+00
0.000000000000e+00
0.000000000000e+00
0.000000000000e+00
0.000000000000e+00
0.000000000000e+00
0.000000000000e+00
0.000000000000e+00
0.000000000000e+00
0.000000000000e+00
0.000000000000e+00
