# vtk DataFile Version 3.0
SFC long-time C3D8 dynamic frame 12 t=2.400000000000e-01
ASCII
DATASET UNSTRUCTURED_GRID
POINTS 250 float
-2.500000000000e-01 -2.500000000000e-01 0.000000000000e+00
-1.250000000000e-01 -2.500000000000e-01 0.000000000000e+00
0.000000000000e+00 -2.500000000000e-01 0.000000000000e+00
1.250000000000e-01 -2.500000000000e-01 0.000000000000e+00
2.500000000000e-01 -2.500000000000e-01 0.000000000000e+00
-2.500000000000e-01 -1.250000000000e-01 0.000000000000e+00
-1.250000000000e-01 -1.250000000000e-01 0.000000000000e+00
0.000000000000e+00 -1.250000000000e-01 0.000000000000e+00
1.250000000000e-01 -1.250000000000e-01 0.000000000000e+00
2.500000000000e-01 -1.250000000000e-01 0.000000000000e+00
-2.500000000000e-01 0.000000000000e+00 0.000000000000e+00
-1.250000000000e-01 0.000000000000e+00 0.000000000000e+00
0.000000000000e+00 0.000000000000e+00 0.000000000000e+00
1.250000000000e-01 0.000000000000e+00 0.000000000000e+00
2.500000000000e-01 0.000000000000e+00 0.000000000000e+00
-2.500000000000e-01 1.250000000000e-01 0.000000000000e+00
-1.250000000000e-01 1.250000000000e-01 0.000000000000e+00
0.000000000000e+00 1.250000000000e-01 0.000000000000e+00
1.250000000000e-01 1.250000000000e-01 0.000000000000e+00
2.500000000000e-01 1.250000000000e-01 0.000000000000e+00
-2.500000000000e-01 2.500000000000e-01 0.000000000000e+00
-1.250000000000e-01 2.500000000000e-01 0.000000000000e+00
0.000000000000e+00 2.500000000000e-01 0.000000000000e+00
1.250000000000e-01 2.500000000000e-01 0.000000000000e+00
2.500000000000e-01 2.500000000000e-01 0.000000000000e+00
-2.500000000000e-01 -2.500000000000e-01 6.000000000000e-02
-1.250000000000e-01 -2.500000000000e-01 6.000000000000e-02
0.000000000000e+00 -2.500000000000e-01 6.000000000000e-02
1.250000000000e-01 -2.500000000000e-01 6.000000000000e-02
2.500000000000e-01 -2.500000000000e-01 6.000000000000e-02
-2.500000000000e-01 -1.250000000000e-01 6.000000000000e-02
-1.250000000000e-01 -1.250000000000e-01 6.000000000000e-02
0.000000000000e+00 -1.250000000000e-01 6.000000000000e-02
1.250000000000e-01 -1.250000000000e-01 6.000000000000e-02
2.500000000000e-01 -1.250000000000e-01 6.000000000000e-02
-2.500000000000e-01 0.000000000000e+00 6.000000000000e-02
-1.250000000000e-01 0.000000000000e+00 6.000000000000e-02
0.000000000000e+00 0.000000000000e+00 6.000000000000e-02
1.250000000000e-01 0.000000000000e+00 6.000000000000e-02
2.500000000000e-01 0.000000000000e+00 6.000000000000e-02
-2.500000000000e-01 1.250000000000e-01 6.000000000000e-02
-1.250000000000e-01 1.250000000000e-01 6.000000000000e-02
0.000000000000e+00 1.250000000000e-01 6.000000000000e-02
1.250000000000e-01 1.250000000000e-01 6.000000000000e-02
2.500000000000e-01 1.250000000000e-01 6.000000000000e-02
-2.500000000000e-01 2.500000000000e-01 6.000000000000e-02
-1.250000000000e-01 2.500000000000e-01 6.000000000000e-02
0.000000000000e+00 2.500000000000e-01 6.000000000000e-02
1.250000000000e-01 2.500000000000e-01 6.000000000000e-02
2.500000000000e-01 2.500000000000e-01 6.000000000000e-02
-2.500000000000e-01 -2.500000000000e-01 1.200000000000e-01
-1.250000000000e-01 -2.500000000000e-01 1.200000000000e-01
0.000000000000e+00 -2.500000000000e-01 1.200000000000e-01
1.250000000000e-01 -2.500000000000e-01 1.200000000000e-01
2.500000000000e-01 -2.500000000000e-01 1.200000000000e-01
-2.500000000000e-01 -1.250000000000e-01 1.200000000000e-01
-1.250000000000e-01 -1.250000000000e-01 1.200000000000e-01
0.000000000000e+00 -1.250000000000e-01 1.200000000000e-01
1.250000000000e-01 -1.250000000000e-01 1.200000000000e-01
2.500000000000e-01 -1.250000000000e-01 1.200000000000e-01
-2.500000000000e-01 0.000000000000e+00 1.200000000000e-01
-1.250000000000e-01 0.000000000000e+00 1.200000000000e-01
0.000000000000e+00 0.000000000000e+00 1.200000000000e-01
1.250000000000e-01 0.000000000000e+00 1.200000000000e-01
2.500000000000e-01 0.000000000000e+00 1.200000000000e-01
-2.500000000000e-01 1.250000000000e-01 1.200000000000e-01
-1.250000000000e-01 1.250000000000e-01 1.200000000000e-01
0.000000000000e+00 1.250000000000e-01 1.200000000000e-01
1.250000000000e-01 1.250000000000e-01 1.200000000000e-01
2.500000000000e-01 1.250000000000e-01 1.200000000000e-01
-2.500000000000e-01 2.500000000000e-01 1.200000000000e-01
-1.250000000000e-01 2.500000000000e-01 1.200000000000e-01
0.000000000000e+00 2.500000000000e-01 1.200000000000e-01
1.250000000000e-01 2.500000000000e-01 1.200000000000e-01
2.500000000000e-01 2.500000000000e-01 1.200000000000e-01
-2.500000000000e-01 -2.500000000000e-01 1.800000000000e-01
-1.250000000000e-01 -2.500000000000e-01 1.800000000000e-01
0.000000000000e+00 -2.500000000000e-01 1.800000000000e-01
1.250000000000e-01 -2.500000000000e-01 1.800000000000e-01
2.500000000000e-01 -2.500000000000e-01 1.800000000000e-01
-2.500000000000e-01 -1.250000000000e-01 1.800000000000e-01
-1.250000000000e-01 -1.250000000000e-01 1.800000000000e-01
0.000000000000e+00 -1.250000000000e-01 1.800000000000e-01
1.250000000000e-01 -1.250000000000e-01 1.800000000000e-01
2.500000000000e-01 -1.250000000000e-01 1.800000000000e-01
-2.500000000000e-01 0.000000000000e+00 1.800000000000e-01
-1.250000000000e-01 0.000000000000e+00 1.800000000000e-01
0.000000000000e+00 0.000000000000e+00 1.800000000000e-01
1.250000000000e-01 0.000000000000e+00 1.800000000000e-01
2.500000000000e-01 0.000000000000e+00 1.800000000000e-01
-2.500000000000e-01 1.250000000000e-01 1.800000000000e-01
-1.250000000000e-01 1.250000000000e-01 1.800000000000e-01
0.000000000000e+00 1.250000000000e-01 1.800000000000e-01
1.250000000000e-01 1.250000000000e-01 1.800000000000e-01
2.500000000000e-01 1.250000000000e-01 1.800000000000e-01
-2.500000000000e-01 2.500000000000e-01 1.800000000000e-01
-1.250000000000e-01 2.500000000000e-01 1.800000000000e-01
0.000000000000e+00 2.500000000000e-01 1.800000000000e-01
1.250000000000e-01 2.500000000000e-01 1.800000000000e-01
2.500000000000e-01 2.500000000000e-01 1.800000000000e-01
-2.500000000000e-01 -2.500000000000e-01 2.400000000000e-01
-1.250000000000e-01 -2.500000000000e-01 2.400000000000e-01
0.000000000000e+00 -2.500000000000e-01 2.400000000000e-01
1.250000000000e-01 -2.500000000000e-01 2.400000000000e-01
2.500000000000e-01 -2.500000000000e-01 2.400000000000e-01
-2.500000000000e-01 -1.250000000000e-01 2.400000000000e-01
-1.250000000000e-01 -1.250000000000e-01 2.400000000000e-01
0.000000000000e+00 -1.250000000000e-01 2.400000000000e-01
1.250000000000e-01 -1.250000000000e-01 2.400000000000e-01
2.500000000000e-01 -1.250000000000e-01 2.400000000000e-01
-2.500000000000e-01 0.000000000000e+00 2.400000000000e-01
-1.250000000000e-01 0.000000000000e+00 2.400000000000e-01
0.000000000000e+00 0.000000000000e+00 2.400000000000e-01
1.250000000000e-01 0.000000000000e+00 2.400000000000e-01
2.500000000000e-01 0.000000000000e+00 2.400000000000e-01
-2.500000000000e-01 1.250000000000e-01 2.400000000000e-01
-1.250000000000e-01 1.250000000000e-01 2.400000000000e-01
0.000000000000e+00 1.250000000000e-01 2.400000000000e-01
1.250000000000e-01 1.250000000000e-01 2.400000000000e-01
2.500000000000e-01 1.250000000000e-01 2.400000000000e-01
-2.500000000000e-01 2.500000000000e-01 2.400000000000e-01
-1.250000000000e-01 2.500000000000e-01 2.400000000000e-01
0.000000000000e+00 2.500000000000e-01 2.400000000000e-01
1.250000000000e-01 2.500000000000e-01 2.400000000000e-01
2.500000000000e-01 2.500000000000e-01 2.400000000000e-01
-2.500007929876e-01 -2.500007929876e-01 2.399761923581e-01
-1.250003967246e-01 -2.500007983993e-01 2.399759534062e-01
2.574478214785e-15 -2.500008024146e-01 2.399758744091e-01
1.250003967246e-01 -2.500007983993e-01 2.399759534062e-01
2.500007929876e-01 -2.500007929876e-01 2.399761923581e-01
-2.500007983993e-01 -1.250003967246e-01 2.399759534062e-01
-1.250003974778e-01 -1.250003974779e-01 2.399757112530e-01
2.543625088193e-15 -1.250003996813e-01 2.399756305825e-01
1.250003974779e-01 -1.250003974779e-01 2.399757112530e-01
2.500007983993e-01 -1.250003967246e-01 2.399759534062e-01
-2.500008024146e-01 -1.912646416141e-15 2.399758744091e-01
-1.250003996813e-01 -1.920286649102e-15 2.399756305825e-01
2.533168750783e-15 -1.921277839121e-15 2.399755492581e-01
1.250003996813e-01 -1.916853658718e-15 2.399756305825e-01
2.500008024146e-01 -1.907583675614e-15 2.399758744091e-01
-2.500007983993e-01 1.250003967246e-01 2.399759534062e-01
-1.250003974778e-01 1.250003974778e-01 2.399757112530e-01
2.530301518276e-15 1.250003996813e-01 2.399756305825e-01
1.250003974779e-01 1.250003974778e-01 2.399757112530e-01
2.500007983993e-01 1.250003967246e-01 2.399759534062e-01
-2.500007929876e-01 2.500007929876e-01 2.399761923581e-01
-1.250003967246e-01 2.500007983993e-01 2.399759534062e-01
2.548858054761e-15 2.500008024146e-01 2.399758744091e-01
1.250003967246e-01 2.500007983993e-01 2.399759534062e-01
2.500007929876e-01 2.500007929876e-01 2.399761923581e-01
-2.500006323006e-01 -2.500006323006e-01 3.049755344779e-01
-1.250003095040e-01 -2.500006372458e-01 3.049752873069e-01
1.906673829424e-15 -2.500006410662e-01 3.049752089708e-01
1.250003095040e-01 -2.500006372458e-01 3.049752873069e-01
2.500006323006e-01 -2.500006323006e-01 3.049755344779e-01
-2.500006372458e-01 -1.250003095040e-01 3.049752873069e-01
-1.250003094842e-01 -1.250003094842e-01 3.049750375388e-01
1.881419454373e-15 -1.250003110289e-01 3.049749581625e-01
1.250003094842e-01 -1.250003094842e-01 3.049750375388e-01
2.500006372458e-01 -1.250003095040e-01 3.049752873069e-01
-2.500006410662e-01 -2.245424768791e-15 3.049752089708e-01
-1.250003110289e-01 -2.249099496440e-15 3.049749581625e-01
1.871799779157e-15 -2.252117097647e-15 3.049748784433e-01
1.250003110289e-01 -2.246808809123e-15 3.049749581625e-01
2.500006410662e-01 -2.236768936823e-15 3.049752089708e-01
-2.500006372458e-01 1.250003095040e-01 3.049752873069e-01
-1.250003094842e-01 1.250003094842e-01 3.049750375388e-01
1.867539414346e-15 1.250003110289e-01 3.049749581625e-01
1.250003094842e-01 1.250003094842e-01 3.049750375388e-01
2.500006372458e-01 1.250003095040e-01 3.049752873069e-01
-2.500006323006e-01 2.500006323006e-01 3.049755344779e-01
-1.250003095040e-01 2.500006372458e-01 3.049752873069e-01
1.888136537099e-15 2.500006410662e-01 3.049752089708e-01
1.250003095040e-01 2.500006372458e-01 3.049752873069e-01
2.500006323006e-01 2.500006323006e-01 3.049755344779e-01
-2.500004377413e-01 -2.500004377413e-01 3.699750609087e-01
-1.250002181211e-01 -2.500004391563e-01 3.699748079513e-01
1.206051620405e-15 -2.500004410102e-01 3.699747308782e-01
1.250002181211e-01 -2.500004391563e-01 3.699748079513e-01
2.500004377413e-01 -2.500004377413e-01 3.699750609087e-01
-2.500004391563e-01 -1.250002181211e-01 3.699748079513e-01
-1.250002181055e-01 -1.250002181055e-01 3.699745526384e-01
1.187724683119e-15 -1.250002188549e-01 3.699744749932e-01
1.250002181055e-01 -1.250002181055e-01 3.699745526384e-01
2.500004391563e-01 -1.250002181211e-01 3.699748079513e-01
-2.500004410102e-01 -2.592545346248e-15 3.699747308782e-01
-1.250002188549e-01 -2.594210641848e-15 3.699744749932e-01
1.177703276644e-15 -2.594699696285e-15 3.699743974023e-01
1.250002188549e-01 -2.588268198166e-15 3.699744749932e-01
2.500004410102e-01 -2.580404722360e-15 3.699747308782e-01
-2.500004391563e-01 1.250002181211e-01 3.699748079513e-01
-1.250002181055e-01 1.250002181055e-01 3.699745526384e-01
1.176462369776e-15 1.250002188549e-01 3.699744749932e-01
1.250002181055e-01 1.250002181055e-01 3.699745526384e-01
2.500004391563e-01 1.250002181211e-01 3.699748079513e-01
-2.500004377413e-01 2.500004377413e-01 3.699750609087e-01
-1.250002181211e-01 2.500004391563e-01 3.699748079513e-01
1.189953303556e-15 2.500004410102e-01 3.699747308782e-01
1.250002181211e-01 2.500004391563e-01 3.699748079513e-01
2.500004377413e-01 2.500004377413e-01 3.699750609087e-01
-2.500002433585e-01 -2.500002433585e-01 4.349747683342e-01
-1.250001263225e-01 -2.500002416027e-01 4.349745168922e-01
4.969469056055e-16 -2.500002417130e-01 4.349744362870e-01
1.250001263225e-01 -2.500002416027e-01 4.349745168922e-01
2.500002433585e-01 -2.500002433585e-01 4.349747683342e-01
-2.500002416027e-01 -1.250001263225e-01 4.349745168922e-01
-1.250001263058e-01 -1.250001263058e-01 4.349742637399e-01
4.825640231619e-16 -1.250001263588e-01 4.349741825419e-01
1.250001263058e-01 -1.250001263058e-01 4.349742637399e-01
2.500002416027e-01 -1.250001263225e-01 4.349745168922e-01
-2.500002417130e-01 -2.945115430312e-15 4.349744362870e-01
-1.250001263588e-01 -2.946341713538e-15 4.349741825419e-01
4.700819427373e-16 -2.941899743826e-15 4.349741011606e-01
1.250001263588e-01 -2.936759590605e-15 4.349741825419e-01
2.500002417130e-01 -2.924425660805e-15 4.349744362870e-01
-2.500002416027e-01 1.250001263225e-01 4.349745168922e-01
-1.250001263058e-01 1.250001263058e-01 4.349742637399e-01
4.772766071499e-16 1.250001263588e-01 4.349741825419e-01
1.250001263058e-01 1.250001263058e-01 4.349742637399e-01
2.500002416027e-01 1.250001263225e-01 4.349745168922e-01
-2.500002433585e-01 2.500002433585e-01 4.349747683342e-01
-1.250001263225e-01 2.500002416027e-01 4.349745168922e-01
4.835776701095e-16 2.500002417130e-01 4.349744362870e-01
1.250001263225e-01 2.500002416027e-01 4.349745168922e-01
2.500002433585e-01 2.500002433585e-01 4.349747683342e-01
-2.500000803917e-01 -2.500000803917e-01 4.999746571102e-01
-1.250000368869e-01 -2.500000790041e-01 4.999744088013e-01
-2.017048580750e-16 -2.500000794950e-01 4.999743257059e-01
1.250000368869e-01 -2.500000790041e-01 4.999744088013e-01
2.500000803917e-01 -2.500000803917e-01 4.999746571102e-01
-2.500000790041e-01 -1.250000368869e-01 4.999744088013e-01
-1.250000364042e-01 -1.250000364042e-01 4.999741591547e-01
-2.199585882589e-16 -1.250000360882e-01 4.999740754046e-01
1.250000364042e-01 -1.250000364042e-01 4.999741591547e-01
2.500000790041e-01 -1.250000368869e-01 4.999744088013e-01
-2.500000794950e-01 -3.293131797414e-15 4.999743257059e-01
-1.250000360882e-01 -3.293227523141e-15 4.999740754046e-01
-2.286703244408e-16 -3.288864783021e-15 4.999739913740e-01
1.250000360882e-01 -3.274415619235e-15 4.999740754046e-01
2.500000794950e-01 -3.267055038493e-15 4.999743257059e-01
-2.500000790041e-01 1.250000368869e-01 4.999744088013e-01
-1.250000364042e-01 1.250000364042e-01 4.999741591547e-01
-2.174729181682e-16 1.250000360882e-01 4.999740754046e-01
1.250000364042e-01 1.250000364042e-01 4.999741591547e-01
2.500000790041e-01 1.250000368869e-01 4.999744088013e-01
-2.500000803917e-01 2.500000803917e-01 4.999746571102e-01
-1.250000368869e-01 2.500000790041e-01 4.999744088013e-01
-2.065174184650e-16 2.500000794950e-01 4.999743257059e-01
1.250000368869e-01 2.500000790041e-01 4.999744088013e-01
2.500000803917e-01 2.500000803917e-01 4.999746571102e-01
CELLS 128 1152
8 0 1 6 5 25 26 31 30
8 1 2 7 6 26 27 32 31
8 2 3 8 7 27 28 33 32
8 3 4 9 8 28 29 34 33
8 5 6 11 10 30 31 36 35
8 6 7 12 11 31 32 37 36
8 7 8 13 12 32 33 38 37
8 8 9 14 13 33 34 39 38
8 10 11 16 15 35 36 41 40
8 11 12 17 16 36 37 42 41
8 12 13 18 17 37 38 43 42
8 13 14 19 18 38 39 44 43
8 15 16 21 20 40 41 46 45
8 16 17 22 21 41 42 47 46
8 17 18 23 22 42 43 48 47
8 18 19 24 23 43 44 49 48
8 25 26 31 30 50 51 56 55
8 26 27 32 31 51 52 57 56
8 27 28 33 32 52 53 58 57
8 28 29 34 33 53 54 59 58
8 30 31 36 35 55 56 61 60
8 31 32 37 36 56 57 62 61
8 32 33 38 37 57 58 63 62
8 33 34 39 38 58 59 64 63
8 35 36 41 40 60 61 66 65
8 36 37 42 41 61 62 67 66
8 37 38 43 42 62 63 68 67
8 38 39 44 43 63 64 69 68
8 40 41 46 45 65 66 71 70
8 41 42 47 46 66 67 72 71
8 42 43 48 47 67 68 73 72
8 43 44 49 48 68 69 74 73
8 50 51 56 55 75 76 81 80
8 51 52 57 56 76 77 82 81
8 52 53 58 57 77 78 83 82
8 53 54 59 58 78 79 84 83
8 55 56 61 60 80 81 86 85
8 56 57 62 61 81 82 87 86
8 57 58 63 62 82 83 88 87
8 58 59 64 63 83 84 89 88
8 60 61 66 65 85 86 91 90
8 61 62 67 66 86 87 92 91
8 62 63 68 67 87 88 93 92
8 63 64 69 68 88 89 94 93
8 65 66 71 70 90 91 96 95
8 66 67 72 71 91 92 97 96
8 67 68 73 72 92 93 98 97
8 68 69 74 73 93 94 99 98
8 75 76 81 80 100 101 106 105
8 76 77 82 81 101 102 107 106
8 77 78 83 82 102 103 108 107
8 78 79 84 83 103 104 109 108
8 80 81 86 85 105 106 111 110
8 81 82 87 86 106 107 112 111
8 82 83 88 87 107 108 113 112
8 83 84 89 88 108 109 114 113
8 85 86 91 90 110 111 116 115
8 86 87 92 91 111 112 117 116
8 87 88 93 92 112 113 118 117
8 88 89 94 93 113 114 119 118
8 90 91 96 95 115 116 121 120
8 91 92 97 96 116 117 122 121
8 92 93 98 97 117 118 123 122
8 93 94 99 98 118 119 124 123
8 125 126 131 130 150 151 156 155
8 126 127 132 131 151 152 157 156
8 127 128 133 132 152 153 158 157
8 128 129 134 133 153 154 159 158
8 130 131 136 135 155 156 161 160
8 131 132 137 136 156 157 162 161
8 132 133 138 137 157 158 163 162
8 133 134 139 138 158 159 164 163
8 135 136 141 140 160 161 166 165
8 136 137 142 141 161 162 167 166
8 137 138 143 142 162 163 168 167
8 138 139 144 143 163 164 169 168
8 140 141 146 145 165 166 171 170
8 141 142 147 146 166 167 172 171
8 142 143 148 147 167 168 173 172
8 143 144 149 148 168 169 174 173
8 150 151 156 155 175 176 181 180
8 151 152 157 156 176 177 182 181
8 152 153 158 157 177 178 183 182
8 153 154 159 158 178 179 184 183
8 155 156 161 160 180 181 186 185
8 156 157 162 161 181 182 187 186
8 157 158 163 162 182 183 188 187
8 158 159 164 163 183 184 189 188
8 160 161 166 165 185 186 191 190
8 161 162 167 166 186 187 192 191
8 162 163 168 167 187 188 193 192
8 163 164 169 168 188 189 194 193
8 165 166 171 170 190 191 196 195
8 166 167 172 171 191 192 197 196
8 167 168 173 172 192 193 198 197
8 168 169 174 173 193 194 199 198
8 175 176 181 180 200 201 206 205
8 176 177 182 181 201 202 207 206
8 177 178 183 182 202 203 208 207
8 178 179 184 183 203 204 209 208
8 180 181 186 185 205 206 211 210
8 181 182 187 186 206 207 212 211
8 182 183 188 187 207 208 213 212
8 183 184 189 188 208 209 214 213
8 185 186 191 190 210 211 216 215
8 186 187 192 191 211 212 217 216
8 187 188 193 192 212 213 218 217
8 188 189 194 193 213 214 219 218
8 190 191 196 195 215 216 221 220
8 191 192 197 196 216 217 222 221
8 192 193 198 197 217 218 223 222
8 193 194 199 198 218 219 224 223
8 200 201 206 205 225 226 231 230
8 201 202 207 206 226 227 232 231
8 202 203 208 207 227 228 233 232
8 203 204 209 208 228 229 234 233
8 205 206 211 210 230 231 236 235
8 206 207 212 211 231 232 237 236
8 207 208 213 212 232 233 238 237
8 208 209 214 213 233 234 239 238
8 210 211 216 215 235 236 241 240
8 211 212 217 216 236 237 242 241
8 212 213 218 217 237 238 243 242
8 213 214 219 218 238 239 244 243
8 215 216 221 220 240 241 246 245
8 216 217 222 221 241 242 247 246
8 217 218 223 222 242 243 248 247
8 218 219 224 223 243 244 249 248
CELL_TYPES 128
12
12
12
12
12
12
12
12
12
12
12
12
12
12
12
12
12
12
12
12
12
12
12
12
12
12
12
12
12
12
12
12
12
12
12
12
12
12
12
12
12
12
12
12
12
12
12
12
12
12
12
12
12
12
12
12
12
12
12
12
12
12
12
12
12
12
12
12
12
12
12
12
12
12
12
12
12
12
12
12
12
12
12
12
12
12
12
12
12
12
12
12
12
12
12
12
12
12
12
12
12
12
12
12
12
12
12
12
12
12
12
12
12
12
12
12
12
12
12
12
12
12
12
12
12
12
12
12
POINT_DATA 250
VECTORS displacement float
0.000000000000e+00 0.000000000000e+00 0.000000000000e+00
0.000000000000e+00 0.000000000000e+00 0.000000000000e+00
0.000000000000e+00 0.000000000000e+00 0.000000000000e+00
0.000000000000e+00 0.000000000000e+00 0.000000000000e+00
0.000000000000e+00 0.000000000000e+00 0.000000000000e+00
0.000000000000e+00 0.000000000000e+00 0.000000000000e+00
0.000000000000e+00 0.000000000000e+00 0.000000000000e+00
0.000000000000e+00 0.000000000000e+00 0.000000000000e+00
0.000000000000e+00 0.000000000000e+00 0.000000000000e+00
0.000000000000e+00 0.000000000000e+00 0.000000000000e+00
0.000000000000e+00 0.000000000000e+00 0.000000000000e+00
0.000000000000e+00 0.000000000000e+00 0.000000000000e+00
0.000000000000e+00 0.000000000000e+00 0.000000000000e+00
0.000000000000e+00 0.000000000000e+00 0.000000000000e+00
0.000000000000e+00 0.000000000000e+00 0.000000000000e+00
0.000000000000e+00 0.000000000000e+00 0.000000000000e+00
0.000000000000e+00 0.000000000000e+00 0.000000000000e+00
0.000000000000e+00 0.000000000000e+00 0.000000000000e+00
0.000000000000e+00 0.000000000000e+00 0.000000000000e+00
0.000000000000e+00 0.000000000000e+00 0.000000000000e+00
0.000000000000e+00 0.000000000000e+00 0.000000000000e+00
0.000000000000e+00 0.000000000000e+00 0.000000000000e+00
0.000000000000e+00 0.000000000000e+00 0.000000000000e+00
0.000000000000e+00 0.000000000000e+00 0.000000000000e+00
0.000000000000e+00 0.000000000000e+00 0.000000000000e+00
0.000000000000e+00 0.000000000000e+00 0.000000000000e+00
0.000000000000e+00 0.000000000000e+00 0.000000000000e+00
0.000000000000e+00 0.000000000000e+00 0.000000000000e+00
0.000000000000e+00 0.000000000000e+00 0.000000000000e+00
0.000000000000e+00 0.000000000000e+00 0.000000000000e+00
0.000000000000e+00 0.000000000000e+00 0.000000000000e+00
0.000000000000e+00 0.000000000000e+00 0.000000000000e+00
0.000000000000e+00 0.000000000000e+00 0.000000000000e+00
0.000000000000e+00 0.000000000000e+00 0.000000000000e+00
0.000000000000e+00 0.000000000000e+00 0.000000000000e+00
0.000000000000e+00 0.000000000000e+00 0.000000000000e+00
0.000000000000e+00 0.000000000000e+00 0.000000000000e+00
0.000000000000e+00 0.000000000000e+00 0.000000000000e+00
0.000000000000e+00 0.000000000000e+00 0.000000000000e+00
0.000000000000e+00 0.000000000000e+00 0.000000000000e+00
0.000000000000e+00 0.000000000000e+00 0.000000000000e+00
0.000000000000e+00 0.000000000000e+00 0.000000000000e+00
0.000000000000e+00 0.000000000000e+00 0.000000000000e+00
0.000000000000e+00 0.000000000000e+00 0.000000000000e+00
0.000000000000e+00 0.000000000000e+00 0.000000000000e+00
0.000000000000e+00 0.000000000000e+00 0.000000000000e+00
0.000000000000e+00 0.000000000000e+00 0.000000000000e+00
0.000000000000e+00 0.000000000000e+00 0.000000000000e+00
0.000000000000e+00 0.000000000000e+00 0.000000000000e+00
0.000000000000e+00 0.000000000000e+00 0.000000000000e+00
0.000000000000e+00 0.000000000000e+00 0.000000000000e+00
0.000000000000e+00 0.000000000000e+00 0.000000000000e+00
0.000000000000e+00 0.000000000000e+00 0.000000000000e+00
0.000000000000e+00 0.000000000000e+00 0.000000000000e+00
0.000000000000e+00 0.000000000000e+00 0.000000000000e+00
0.000000000000e+00 0.000000000000e+00 0.000000000000e+00
0.000000000000e+00 0.000000000000e+00 0.000000000000e+00
0.000000000000e+00 0.000000000000e+00 0.000000000000e+00
0.000000000000e+00 0.000000000000e+00 0.000000000000e+00
0.000000000000e+00 0.000000000000e+00 0.000000000000e+00
0.000000000000e+00 0.000000000000e+00 0.000000000000e+00
0.000000000000e+00 0.000000000000e+00 0.000000000000e+00
0.000000000000e+00 0.000000000000e+00 0.000000000000e+00
0.000000000000e+00 0.000000000000e+00 0.000000000000e+00
0.000000000000e+00 0.000000000000e+00 0.000000000000e+00
0.000000000000e+00 0.000000000000e+00 0.000000000000e+00
0.000000000000e+00 0.000000000000e+00 0.000000000000e+00
0.000000000000e+00 0.000000000000e+00 0.000000000000e+00
0.000000000000e+00 0.000000000000e+00 0.000000000000e+00
0.000000000000e+00 0.000000000000e+00 0.000000000000e+00
0.000000000000e+00 0.000000000000e+00 0.000000000000e+00
0.000000000000e+00 0.000000000000e+00 0.000000000000e+00
0.000000000000e+00 0.000000000000e+00 0.000000000000e+00
0.000000000000e+00 0.000000000000e+00 0.000000000000e+00
0.000000000000e+00 0.000000000000e+00 0.000000000000e+00
0.000000000000e+00 0.000000000000e+00 0.000000000000e+00
0.000000000000e+00 0.000000000000e+00 0.000000000000e+00
0.000000000000e+00 0.000000000000e+00 0.000000000000e+00
0.000000000000e+00 0.000000000000e+00 0.000000000000e+00
0.000000000000e+00 0.000000000000e+00 0.000000000000e+00
0.000000000000e+00 0.000000000000e+00 0.000000000000e+00
0.000000000000e+00 0.000000000000e+00 0.000000000000e+00
0.000000000000e+00 0.000000000000e+00 0.000000000000e+00
0.000000000000e+00 0.000000000000e+00 0.000000000000e+00
0.000000000000e+00 0.000000000000e+00 0.000000000000e+00
0.000000000000e+00 0.000000000000e+00 0.000000000000e+00
0.000000000000e+00 0.000000000000e+00 0.000000000000e+00
0.000000000000e+00 0.000000000000e+00 0.000000000000e+00
0.000000000000e+00 0.000000000000e+00 0.000000000000e+00
0.000000000000e+00 0.000000000000e+00 0.000000000000e+00
0.000000000000e+00 0.000000000000e+00 0.000000000000e+00
0.000000000000e+00 0.000000000000e+00 0.000000000000e+00
0.000000000000e+00 0.000000000000e+00 0.000000000000e+00
0.000000000000e+00 0.000000000000e+00 0.000000000000e+00
0.000000000000e+00 0.000000000000e+00 0.000000000000e+00
0.000000000000e+00 0.000000000000e+00 0.000000000000e+00
0.000000000000e+00 0.000000000000e+00 0.000000000000e+00
0.000000000000e+00 0.000000000000e+00 0.000000000000e+00
0.000000000000e+00 0.000000000000e+00 0.000000000000e+00
0.000000000000e+00 0.000000000000e+00 0.000000000000e+00
0.000000000000e+00 0.000000000000e+00 0.000000000000e+00
0.000000000000e+00 0.000000000000e+00 0.000000000000e+00
0.000000000000e+00 0.000000000000e+00 0.000000000000e+00
0.000000000000e+00 0.000000000000e+00 0.000000000000e+00
0.000000000000e+00 0.000000000000e+00 0.000000000000e+00
0.000000000000e+00 0.000000000000e+00 0.000000000000e+00
0.000000000000e+00 0.000000000000e+00 0.000000000000e+00
0.000000000000e+00 0.000000000000e+00 0.000000000000e+00
0.000000000000e+00 0.000000000000e+00 0.000000000000e+00
0.000000000000e+00 0.000000000000e+00 0.000000000000e+00
0.000000000000e+00 0.000000000000e+00 0.000000000000e+00
0.000000000000e+00 0.000000000000e+00 0.000000000000e+00
0.000000000000e+00 0.000000000000e+00 0.000000000000e+00
0.000000000000e+00 0.000000000000e+00 0.000000000000e+00
0.000000000000e+00 0.000000000000e+00 0.000000000000e+00
0.000000000000e+00 0.000000000000e+00 0.000000000000e+00
0.000000000000e+00 0.000000000000e+00 0.000000000000e+00
0.000000000000e+00 0.000000000000e+00 0.000000000000e+00
0.000000000000e+00 0.000000000000e+00 0.000000000000e+00
0.000000000000e+00 0.000000000000e+00 0.000000000000e+00
0.000000000000e+00 0.000000000000e+00 0.000000000000e+00
0.000000000000e+00 0.000000000000e+00 0.000000000000e+00
0.000000000000e+00 0.000000000000e+00 0.000000000000e+00
0.000000000000e+00 0.000000000000e+00 0.000000000000e+00
0.000000000000e+00 0.000000000000e+00 0.000000000000e+00
-7.929876068038e-07 -7.929876112972e-07 -1.502380764186e-02
-3.967245686215e-07 -7.983992839579e-07 -1.502404659380e-02
2.574478214785e-15 -8.024146042406e-07 -1.502412559086e-02
3.967245737561e-07 -7.983992838730e-07 -1.502404659380e-02
7.929876118900e-07 -7.929876111396e-07 -1.502380764186e-02
-7.983992795022e-07 -3.967245731177e-07 -1.502404659381e-02
-3.974778477019e-07 -3.974778521626e-07 -1.502428874699e-02
2.543625088193e-15 -3.996813332173e-07 -1.502436941749e-02
3.974778527868e-07 -3.974778521233e-07 -1.502428874698e-02
7.983992845344e-07 -3.967245730313e-07 -1.502404659380e-02
-8.024145998112e-07 -1.912646416141e-15 -1.502412559086e-02
-3.996813287764e-07 -1.920286649102e-15 -1.502436941749e-02
2.533168750783e-15 -1.921277839121e-15 -1.502445074186e-02
3.996813338388e-07 -1.916853658718e-15 -1.502436941749e-02
8.024146048251e-07 -1.907583675614e-15 -1.502412559085e-02
-7.983992794829e-07 3.967245692842e-07 -1.502404659380e-02
-3.974778477012e-07 3.974778483192e-07 -1.502428874698e-02
2.530301518276e-15 3.996813293681e-07 -1.502436941749e-02
3.974778527592e-07 3.974778482829e-07 -1.502428874698e-02
7.983992844960e-07 3.967245692132e-07 -1.502404659380e-02
-7.929876067497e-07 7.929876074419e-07 -1.502380764186e-02
-3.967245686159e-07 7.983992800927e-07 -1.502404659380e-02
2.548858054761e-15 8.024146003587e-07 -1.502412559086e-02
3.967245737069e-07 7.983992800138e-07 -1.502404659380e-02
7.929876118014e-07 7.929876072929e-07 -1.502380764186e-02
-6.323006207312e-07 -6.323006248971e-07 -1.502446552207e-02
-3.095039514130e-07 -6.372457908817e-07 -1.502471269308e-02
1.906673829424e-15 -6.410662426898e-07 -1.502479102916e-02
3.095039552107e-07 -6.372457908034e-07 -1.502471269308e-02
6.323006244758e-07 -6.323006247496e-07 -1.502446552207e-02
-6.372457867548e-07 -3.095039555740e-07 -1.502471269308e-02
-3.094842330737e-07 -3.094842372116e-07 -1.502496246122e-02
1.881419454373e-15 -3.110288892005e-07 -1.502504183748e-02
3.094842368215e-07 -3.094842371694e-07 -1.502496246122e-02
6.372457904525e-07 -3.095039554989e-07 -1.502471269308e-02
-6.410662386038e-07 -2.245424768791e-15 -1.502479102916e-02
-3.110288850919e-07 -2.249099496440e-15 -1.502504183748e-02
1.871799779157e-15 -2.252117097647e-15 -1.502512155669e-02
3.110288888150e-07 -2.246808809123e-15 -1.502504183748e-02
6.410662422711e-07 -2.236768936823e-15 -1.502479102915e-02
-6.372457867367e-07 3.095039510777e-07 -1.502471269308e-02
-3.094842330744e-07 3.094842327021e-07 -1.502496246122e-02
1.867539414346e-15 3.110288846933e-07 -1.502504183748e-02
3.094842367990e-07 3.094842326730e-07 -1.502496246122e-02
6.372457904160e-07 3.095039510224e-07 -1.502471269308e-02
-6.323006206920e-07 6.323006203716e-07 -1.502446552207e-02
-3.095039514056e-07 6.372457863444e-07 -1.502471269308e-02
1.888136537099e-15 6.410662381624e-07 -1.502479102915e-02
3.095039551643e-07 6.372457862864e-07 -1.502471269308e-02
6.323006244025e-07 6.323006202570e-07 -1.502446552206e-02
-4.377413108674e-07 -4.377413146807e-07 -1.502493909135e-02
-2.181211203559e-07 -4.391562737595e-07 -1.502519204874e-02
1.206051620405e-15 -4.410101625311e-07 -1.502526912178e-02
2.181211227585e-07 -4.391562736946e-07 -1.502519204874e-02
4.377413132341e-07 -4.377413145711e-07 -1.502493909134e-02
-4.391562699750e-07 -2.181211241669e-07 -1.502519204874e-02
-2.181055052570e-07 -2.181055090435e-07 -1.502544736164e-02
1.187724683119e-15 -2.188549341172e-07 -1.502552500683e-02
2.181055076150e-07 -2.181055090095e-07 -1.502544736164e-02
4.391562722890e-07 -2.181211241036e-07 -1.502519204873e-02
-4.410101587805e-07 -2.592545346248e-15 -1.502526912178e-02
-2.188549303561e-07 -2.594210641848e-15 -1.502552500683e-02
1.177703276644e-15 -2.594699696285e-15 -1.502560259774e-02
2.188549326900e-07 -2.588268198166e-15 -1.502552500683e-02
4.410101610761e-07 -2.580404722360e-15 -1.502526912178e-02
-4.391562699603e-07 2.181211189757e-07 -1.502519204874e-02
-2.181055052551e-07 2.181055038463e-07 -1.502544736164e-02
1.176462369776e-15 2.188549289264e-07 -1.502552500683e-02
2.181055075962e-07 2.181055038289e-07 -1.502544736164e-02
4.391562722670e-07 2.181211189421e-07 -1.502519204873e-02
-4.377413108393e-07 4.377413094711e-07 -1.502493909134e-02
-2.181211203537e-07 4.391562685418e-07 -1.502519204874e-02
1.189953303556e-15 4.410101573196e-07 -1.502526912178e-02
2.181211227214e-07 4.391562685014e-07 -1.502519204873e-02
4.377413131751e-07 4.377413093965e-07 -1.502493909134e-02
-2.433585050307e-07 -2.433585084868e-07 -1.502523166579e-02
-1.263224532696e-07 -2.416027291524e-07 -1.502548310783e-02
4.969469056055e-16 -2.417129826994e-07 -1.502556371302e-02
1.263224542538e-07 -2.416027291107e-07 -1.502548310783e-02
2.433585059939e-07 -2.433585084102e-07 -1.502523166579e-02
-2.416027257187e-07 -1.263224567228e-07 -1.502548310783e-02
-1.263058455831e-07 -1.263058490126e-07 -1.502573626014e-02
4.825640231619e-16 -1.263587727548e-07 -1.502581745807e-02
1.263058465303e-07 -1.263058489853e-07 -1.502573626014e-02
2.416027266427e-07 -1.263224566720e-07 -1.502548310783e-02
-2.417129792889e-07 -2.945115430312e-15 -1.502556371302e-02
-1.263587693401e-07 -2.946341713538e-15 -1.502581745807e-02
4.700819427373e-16 -2.941899743826e-15 -1.502589883944e-02
1.263587702707e-07 -2.936759590605e-15 -1.502581745807e-02
2.417129802025e-07 -2.924425660805e-15 -1.502556371302e-02
-2.416027257069e-07 1.263224508288e-07 -1.502548310783e-02
-1.263058455795e-07 1.263058431159e-07 -1.502573626014e-02
4.772766071499e-16 1.263587668664e-07 -1.502581745807e-02
1.263058465187e-07 1.263058431140e-07 -1.502573626014e-02
2.416027266278e-07 1.263224508150e-07 -1.502548310783e-02
-2.433585050150e-07 2.433585025806e-07 -1.502523166579e-02
-1.263224532672e-07 2.416027232451e-07 -1.502548310783e-02
4.835776701095e-16 2.417129768052e-07 -1.502556371302e-02
1.263224542292e-07 2.416027232295e-07 -1.502548310783e-02
2.433585059633e-07 2.433585025440e-07 -1.502523166579e-02
-8.039167770987e-08 -8.039168081140e-08 -1.502534288979e-02
-3.688688061661e-08 -7.900409829774e-08 -1.502559119874e-02
-2.017048580750e-16 -7.949504730186e-08 -1.502567429414e-02
3.688688019730e-08 -7.900409828222e-08 -1.502559119874e-02
8.039167726865e-08 -8.039168076004e-08 -1.502534288978e-02
-7.900409521209e-08 -3.688688371892e-08 -1.502559119875e-02
-3.640416163506e-08 -3.640416471398e-08 -1.502584084531e-02
-2.199585882589e-16 -3.608819239035e-08 -1.502592459544e-02
3.640416118383e-08 -3.640416469802e-08 -1.502584084530e-02
7.900409475183e-08 -3.688688367276e-08 -1.502559119874e-02
-7.949504422945e-08 -3.293131797414e-15 -1.502567429414e-02
-3.608818932530e-08 -3.293227523141e-15 -1.502592459544e-02
-2.286703244408e-16 -3.288864783021e-15 -1.502600862604e-02
3.608818885828e-08 -3.274415619235e-15 -1.502592459544e-02
7.949504375011e-08 -3.267055038493e-15 -1.502567429413e-02
-7.900409520722e-08 3.688687712646e-08 -1.502559119874e-02
-3.640416162877e-08 3.640415812135e-08 -1.502584084530e-02
-2.174729181682e-16 3.608818581485e-08 -1.502592459544e-02
3.640416117914e-08 3.640415813645e-08 -1.502584084530e-02
7.900409473701e-08 3.688687713455e-08 -1.502559119874e-02
-8.039167769379e-08 8.039167420662e-08 -1.502534288978e-02
-3.688688060773e-08 7.900409170130e-08 -1.502559119874e-02
-2.065174184650e-16 7.949504072129e-08 -1.502567429413e-02
3.688688018350e-08 7.900409171345e-08 -1.502559119874e-02
8.039167725819e-08 8.039167420842e-08 -1.502534288978e-02
SCALARS displacement_magnitude float 1
LOOKUP_TABLE default
0.000000000000e+00
0.000000000000e+00
0.000000000000e+00
0.000000000000e+00
0.000000000000e+00
0.000000000000e+00
0.000000000000e+00
0.000000000000e+00
0.000000000000e+00
0.000000000000e+00
0.000000000000e+00
0.000000000000e+00
0.000000000000e+00
0.000000000000e+00
0.000000000000e+00
0.000000000000e+00
0.000000000000e+00
0.000000000000e+00
0.000000000000e+00
0.000000000000e+00
0.000000000000e+00
0.000000000000e+00
0.000000000000e+00
0.000000000000e+00
0.000000000000e+00
0.000000000000e+00
0.000000000000e+00
0.000000000000e+00
0.000000000000e+00
0.000000000000e+00
0.000000000000e+00
0.000000000000e+00
0.000000000000e+00
0.000000000000e+00
0.000000000000e+00
0.000000000000e+00
0.000000000000e+00
0.000000000000e+00
0.000000000000e+00
0.000000000000e+00
0.000000000000e+00
0.000000000000e+00
0.000000000000e+00
0.000000000000e+00
0.000000000000e+00
0.000000000000e+00
0.000000000000e+00
0.000000000000e+00
0.000000000000e+00
0.000000000000e+00
0.000000000000e+00
0.000000000000e+00
0.000000000000e+00
0.000000000000e+00
0.000000000000e+00
0.000000000000e+00
0.000000000000e+00
0.000000000000e+00
0.000000000000e+00
0.000000000000e+00
0.000000000000e+00
0.000000000000e+00
0.000000000000e+00
0.000000000000e+00
0.000000000000e+00
0.000000000000e+00
0.000000000000e+00
0.000000000000e+00
0.000000000000e+00
0.000000000000e+00
0.000000000000e+00
0.000000000000e+00
0.000000000000e+00
0.000000000000e+00
0.000000000000e+00
0.000000000000e+00
0.000000000000e+00
0.000000000000e+00
0.000000000000e+00
0.000000000000e+00
0.000000000000e+00
0.000000000000e+00
0.000000000000e+00
0.000000000000e+00
0.000000000000e+00
0.000000000000e+00
0.000000000000e+00
0.000000000000e+00
0.000000000000e+00
0.000000000000e+00
0.000000000000e+00
0.000000000000e+00
0.000000000000e+00
0.000000000000e+00
0.000000000000e+00
0.000000000000e+00
0.000000000000e+00
0.000000000000e+00
0.000000000000e+00
0.000000000000e+00
0.000000000000e+00
0.000000000000e+00
0.000000000000e+00
0.000000000000e+00
0.000000000000e+00
0.000000000000e+00
0.000000000000e+00
0.000000000000e+00
0.000000000000e+00
0.000000000000e+00
0.000000000000e+00
0.000000000000e+00
0.000000000000e+00
0.000000000000e+00
0.000000000000e+00
0.000000000000e+00
0.000000000000e+00
0.000000000000e+00
0.000000000000e+00
0.000000000000e+00
0.000000000000e+00
0.000000000000e+00
0.000000000000e+00
0.000000000000e+00
0.000000000000e+00
1.502380768372e-02
1.502404662026e-02
1.502412561229e-02
1.502404662025e-02
1.502380768371e-02
1.502404662026e-02
1.502428875750e-02
1.502436942281e-02
1.502428875750e-02
1.502404662025e-02
1.502412561229e-02
1.502436942281e-02
1.502445074186e-02
1.502436942281e-02
1.502412561228e-02
1.502404662026e-02
1.502428875750e-02
1.502436942281e-02
1.502428875750e-02
1.502404662025e-02
1.502380768372e-02
1.502404662025e-02
1.502412561228e-02
1.502404662025e-02
1.502380768371e-02
1.502446554868e-02
1.502471270978e-02
1.502479104283e-02
1.502471270978e-02
1.502446554868e-02
1.502471270978e-02
1.502496246760e-02
1.502504184070e-02
1.502496246759e-02
1.502471270978e-02
1.502479104283e-02
1.502504184070e-02
1.502512155669e-02
1.502504184070e-02
1.502479104283e-02
1.502471270978e-02
1.502496246760e-02
1.502504184070e-02
1.502496246759e-02
1.502471270978e-02
1.502446554868e-02
1.502471270978e-02
1.502479104283e-02
1.502471270978e-02
1.502446554867e-02
1.502493910410e-02
1.502519205674e-02
1.502526912825e-02
1.502519205674e-02
1.502493910409e-02
1.502519205674e-02
1.502544736481e-02
1.502552500842e-02
1.502544736480e-02
1.502519205674e-02
1.502526912825e-02
1.502552500843e-02
1.502560259774e-02
1.502552500842e-02
1.502526912825e-02
1.502519205674e-02
1.502544736481e-02
1.502552500842e-02
1.502544736480e-02
1.502519205673e-02
1.502493910410e-02
1.502519205674e-02
1.502526912825e-02
1.502519205674e-02
1.502493910409e-02
1.502523166974e-02
1.502548311031e-02
1.502556371497e-02
1.502548311030e-02
1.502523166973e-02
1.502548311031e-02
1.502573626121e-02
1.502581745860e-02
1.502573626120e-02
1.502548311030e-02
1.502556371497e-02
1.502581745860e-02
1.502589883944e-02
1.502581745860e-02
1.502556371496e-02
1.502548311030e-02
1.502573626121e-02
1.502581745860e-02
1.502573626120e-02
1.502548311030e-02
1.502523166973e-02
1.502548311030e-02
1.502556371497e-02
1.502548311030e-02
1.502523166973e-02
1.502534289022e-02
1.502559119900e-02
1.502567429435e-02
1.502559119899e-02
1.502534289021e-02
1.502559119900e-02
1.502584084539e-02
1.502592459549e-02
1.502584084539e-02
1.502559119899e-02
1.502567429435e-02
1.502592459549e-02
1.502600862604e-02
1.502592459549e-02
1.502567429434e-02
1.502559119900e-02
1.502584084539e-02
1.502592459549e-02
1.502584084539e-02
1.502559119899e-02
1.502534289021e-02
1.502559119899e-02
1.502567429434e-02
1.502559119899e-02
1.502534289021e-02
CELL_DATA 128
SCALARS displacement_magnitude float 1
LOOKUP_TABLE default
0.000000000000e+00
0.000000000000e+00
0.000000000000e+00
0.000000000000e+00
0.000000000000e+00
0.000000000000e+00
0.000000000000e+00
0.000000000000e+00
0.000000000000e+00
0.000000000000e+00
0.000000000000e+00
0.000000000000e+00
0.000000000000e+00
0.000000000000e+00
0.000000000000e+00
0.000000000000e+00
0.000000000000e+00
0.000000000000e+00
0.000000000000e+00
0.000000000000e+00
0.000000000000e+00
0.000000000000e+00
0.000000000000e+00
0.000000000000e+00
0.000000000000e+00
0.000000000000e+00
0.000000000000e+00
0.000000000000e+00
0.000000000000e+00
0.000000000000e+00
0.000000000000e+00
0.000000000000e+00
0.000000000000e+00
0.000000000000e+00
0.000000000000e+00
0.000000000000e+00
0.000000000000e+00
0.000000000000e+00
0.000000000000e+00
0.000000000000e+00
0.000000000000e+00
0.000000000000e+00
0.000000000000e+00
0.000000000000e+00
0.000000000000e+00
0.000000000000e+00
0.000000000000e+00
0.000000000000e+00
0.000000000000e+00
0.000000000000e+00
0.000000000000e+00
0.000000000000e+00
0.000000000000e+00
0.000000000000e+00
0.000000000000e+00
0.000000000000e+00
0.000000000000e+00
0.000000000000e+00
0.000000000000e+00
0.000000000000e+00
0.000000000000e+00
0.000000000000e+00
0.000000000000e+00
0.000000000000e+00
1.502438038970e-02
1.502454230922e-02
1.502454230922e-02
1.502438038969e-02
1.502454230922e-02
1.502470575633e-02
1.502470575633e-02
1.502454230922e-02
1.502454230922e-02
1.502470575633e-02
1.502470575633e-02
1.502454230922e-02
1.502438038970e-02
1.502454230922e-02
1.502454230922e-02
1.502438038969e-02
1.502495300228e-02
1.502511770239e-02
1.502511770239e-02
1.502495300228e-02
1.502511770239e-02
1.502528346064e-02
1.502528346063e-02
1.502511770239e-02
1.502511770239e-02
1.502528346064e-02
1.502528346063e-02
1.502511770239e-02
1.502495300228e-02
1.502511770239e-02
1.502511770239e-02
1.502495300227e-02
1.502533809174e-02
1.502550426291e-02
1.502550426291e-02
1.502533809174e-02
1.502550426291e-02
1.502567124966e-02
1.502567124965e-02
1.502550426291e-02
1.502550426291e-02
1.502567124965e-02
1.502567124965e-02
1.502550426291e-02
1.502533809174e-02
1.502550426291e-02
1.502550426291e-02
1.502533809174e-02
1.502553753564e-02
1.502570393491e-02
1.502570393491e-02
1.502553753564e-02
1.502570393491e-02
1.502587108503e-02
1.502587108503e-02
1.502570393491e-02
1.502570393491e-02
1.502587108503e-02
1.502587108503e-02
1.502570393491e-02
1.502553753564e-02
1.502570393491e-02
1.502570393491e-02
1.502553753564e-02
SCALARS engineering_strain_norm float 1
LOOKUP_TABLE default
0.000000000000e+00
0.000000000000e+00
0.000000000000e+00
0.000000000000e+00
0.000000000000e+00
0.000000000000e+00
0.000000000000e+00
0.000000000000e+00
0.000000000000e+00
0.000000000000e+00
0.000000000000e+00
0.000000000000e+00
0.000000000000e+00
0.000000000000e+00
0.000000000000e+00
0.000000000000e+00
0.000000000000e+00
0.000000000000e+00
0.000000000000e+00
0.000000000000e+00
0.000000000000e+00
0.000000000000e+00
0.000000000000e+00
0.000000000000e+00
0.000000000000e+00
0.000000000000e+00
0.000000000000e+00
0.000000000000e+00
0.000000000000e+00
0.000000000000e+00
0.000000000000e+00
0.000000000000e+00
0.000000000000e+00
0.000000000000e+00
0.000000000000e+00
0.000000000000e+00
0.000000000000e+00
0.000000000000e+00
0.000000000000e+00
0.000000000000e+00
0.000000000000e+00
0.000000000000e+00
0.000000000000e+00
0.000000000000e+00
0.000000000000e+00
0.000000000000e+00
0.000000000000e+00
0.000000000000e+00
0.000000000000e+00
0.000000000000e+00
0.000000000000e+00
0.000000000000e+00
0.000000000000e+00
0.000000000000e+00
0.000000000000e+00
0.000000000000e+00
0.000000000000e+00
0.000000000000e+00
0.000000000000e+00
0.000000000000e+00
0.000000000000e+00
0.000000000000e+00
0.000000000000e+00
0.000000000000e+00
1.103362701527e-05
1.107252439650e-05
1.107252439592e-05
1.103362701353e-05
1.107252439685e-05
1.109387419512e-05
1.109387419457e-05
1.107252439507e-05
1.107252439654e-05
1.109387419493e-05
1.109387419436e-05
1.107252439490e-05
1.103362701442e-05
1.107252439574e-05
1.107252439520e-05
1.103362701281e-05
7.998849411891e-06
8.012567813528e-06
8.012567813115e-06
7.998849410558e-06
8.012567813821e-06
8.011890362056e-06
8.011890361551e-06
8.012567812452e-06
8.012567813585e-06
8.011890361865e-06
8.011890361425e-06
8.012567812363e-06
7.998849411225e-06
8.012567812888e-06
8.012567812532e-06
7.998849410072e-06
4.870608320019e-06
4.889343323242e-06
4.889343322944e-06
4.870608319222e-06
4.889343323371e-06
4.905799161909e-06
4.905799161607e-06
4.889343322574e-06
4.889343323258e-06
4.905799161801e-06
4.905799161487e-06
4.889343322461e-06
4.870608319595e-06
4.889343322835e-06
4.889343322590e-06
4.870608318968e-06
1.892090735420e-06
1.890070626618e-06
1.890070626411e-06
1.892090735026e-06
1.890070626646e-06
1.888362513515e-06
1.888362513334e-06
1.890070626265e-06
1.890070626575e-06
1.888362513433e-06
1.888362513358e-06
1.890070626211e-06
1.892090735266e-06
1.890070626438e-06
1.890070626325e-06
1.892090734919e-06
SCALARS von_mises float 1
LOOKUP_TABLE default
0.000000000000e+00
0.000000000000e+00
0.000000000000e+00
0.000000000000e+00
0.000000000000e+00
0.000000000000e+00
0.000000000000e+00
0.000000000000e+00
0.000000000000e+00
0.000000000000e+00
0.000000000000e+00
0.000000000000e+00
0.000000000000e+00
0.000000000000e+00
0.000000000000e+00
0.000000000000e+00
0.000000000000e+00
0.000000000000e+00
0.000000000000e+00
0.000000000000e+00
0.000000000000e+00
0.000000000000e+00
0.000000000000e+00
0.000000000000e+00
0.000000000000e+00
0.000000000000e+00
0.000000000000e+00
0.000000000000e+00
0.000000000000e+00
0.000000000000e+00
0.000000000000e+00
0.000000000000e+00
0.000000000000e+00
0.000000000000e+00
0.000000000000e+00
0.000000000000e+00
0.000000000000e+00
0.000000000000e+00
0.000000000000e+00
0.000000000000e+00
0.000000000000e+00
0.000000000000e+00
0.000000000000e+00
0.000000000000e+00
0.000000000000e+00
0.000000000000e+00
0.000000000000e+00
0.000000000000e+00
0.000000000000e+00
0.000000000000e+00
0.000000000000e+00
0.000000000000e+00
0.000000000000e+00
0.000000000000e+00
0.000000000000e+00
0.000000000000e+00
0.000000000000e+00
0.000000000000e+00
0.000000000000e+00
0.000000000000e+00
0.000000000000e+00
0.000000000000e+00
0.000000000000e+00
0.000000000000e+00
1.010847032923e+00
1.013368378917e+00
1.013368378865e+00
1.010847032765e+00
1.013368378948e+00
1.013781304443e+00
1.013781304393e+00
1.013368378787e+00
1.013368378920e+00
1.013781304426e+00
1.013781304375e+00
1.013368378771e+00
1.010847032846e+00
1.013368378847e+00
1.013368378799e+00
1.010847032699e+00
7.353446629932e-01
7.357252099989e-01
7.357252099603e-01
7.353446628702e-01
7.357252100258e-01
7.344051350694e-01
7.344051350225e-01
7.357252098997e-01
7.357252100040e-01
7.344051350517e-01
7.344051350110e-01
7.357252098913e-01
7.353446629317e-01
7.357252099403e-01
7.357252099071e-01
7.353446628254e-01
4.481464414876e-01
4.503163785721e-01
4.503163785437e-01
4.481464414131e-01
4.503163785842e-01
4.523152577487e-01
4.523152577197e-01
4.503163785095e-01
4.503163785731e-01
4.523152577383e-01
4.523152577087e-01
4.503163784993e-01
4.481464414481e-01
4.503163785343e-01
4.503163785109e-01
4.481464413892e-01
1.769011792869e-01
1.768462442460e-01
1.768462442264e-01
1.769011792506e-01
1.768462442484e-01
1.768687567857e-01
1.768687567686e-01
1.768462442132e-01
1.768462442416e-01
1.768687567779e-01
1.768687567700e-01
1.768462442075e-01
1.769011792725e-01
1.768462442293e-01
1.768462442179e-01
1.769011792404e-01
SCALARS sdf_gap float 1
LOOKUP_TABLE default
0.000000000000e+00
0.000000000000e+00
0.000000000000e+00
0.000000000000e+00
0.000000000000e+00
0.000000000000e+00
0.000000000000e+00
0.000000000000e+00
0.000000000000e+00
0.000000000000e+00
0.000000000000e+00
0.000000000000e+00
0.000000000000e+00
0.000000000000e+00
0.000000000000e+00
0.000000000000e+00
0.000000000000e+00
0.000000000000e+00
0.000000000000e+00
0.000000000000e+00
0.000000000000e+00
0.000000000000e+00
0.000000000000e+00
0.000000000000e+00
0.000000000000e+00
0.000000000000e+00
0.000000000000e+00
0.000000000000e+00
0.000000000000e+00
0.000000000000e+00
0.000000000000e+00
0.000000000000e+00
0.000000000000e+00
0.000000000000e+00
0.000000000000e+00
0.000000000000e+00
0.000000000000e+00
0.000000000000e+00
0.000000000000e+00
0.000000000000e+00
0.000000000000e+00
0.000000000000e+00
0.000000000000e+00
0.000000000000e+00
0.000000000000e+00
0.000000000000e+00
0.000000000000e+00
0.000000000000e+00
0.000000000000e+00
0.000000000000e+00
0.000000000000e+00
0.000000000000e+00
0.000000000000e+00
0.000000000000e+00
0.000000000000e+00
0.000000000000e+00
0.000000000000e+00
0.000000000000e+00
0.000000000000e+00
0.000000000000e+00
0.000000000000e+00
0.000000000000e+00
0.000000000000e+00
0.000000000000e+00
-2.404739411500e-05
-2.420758728563e-05
-2.420758728439e-05
-2.404739411128e-05
-2.420758728625e-05
-2.436958095805e-05
-2.436958095682e-05
-2.420758728251e-05
-2.420758728565e-05
-2.436958095743e-05
-2.436958095618e-05
-2.420758728190e-05
-2.404739411315e-05
-2.420758728380e-05
-2.420758728257e-05
-2.404739410944e-05
0.000000000000e+00
0.000000000000e+00
0.000000000000e+00
0.000000000000e+00
0.000000000000e+00
0.000000000000e+00
0.000000000000e+00
0.000000000000e+00
0.000000000000e+00
0.000000000000e+00
0.000000000000e+00
0.000000000000e+00
0.000000000000e+00
0.000000000000e+00
0.000000000000e+00
0.000000000000e+00
0.000000000000e+00
0.000000000000e+00
0.000000000000e+00
0.000000000000e+00
0.000000000000e+00
0.000000000000e+00
0.000000000000e+00
0.000000000000e+00
0.000000000000e+00
0.000000000000e+00
0.000000000000e+00
0.000000000000e+00
0.000000000000e+00
0.000000000000e+00
0.000000000000e+00
0.000000000000e+00
0.000000000000e+00
0.000000000000e+00
0.000000000000e+00
0.000000000000e+00
0.000000000000e+00
0.000000000000e+00
0.000000000000e+00
0.000000000000e+00
0.000000000000e+00
0.000000000000e+00
0.000000000000e+00
0.000000000000e+00
0.000000000000e+00
0.000000000000e+00
0.000000000000e+00
0.000000000000e+00
SCALARS contact_pressure float 1
LOOKUP_TABLE default
0.000000000000e+00
0.000000000000e+00
0.000000000000e+00
0.000000000000e+00
0.000000000000e+00
0.000000000000e+00
0.000000000000e+00
0.000000000000e+00
0.000000000000e+00
0.000000000000e+00
0.000000000000e+00
0.000000000000e+00
0.000000000000e+00
0.000000000000e+00
0.000000000000e+00
0.000000000000e+00
0.000000000000e+00
0.000000000000e+00
0.000000000000e+00
0.000000000000e+00
0.000000000000e+00
0.000000000000e+00
0.000000000000e+00
0.000000000000e+00
0.000000000000e+00
0.000000000000e+00
0.000000000000e+00
0.000000000000e+00
0.000000000000e+00
0.000000000000e+00
0.000000000000e+00
0.000000000000e+00
0.000000000000e+00
0.000000000000e+00
0.000000000000e+00
0.000000000000e+00
0.000000000000e+00
0.000000000000e+00
0.000000000000e+00
0.000000000000e+00
0.000000000000e+00
0.000000000000e+00
0.000000000000e+00
0.000000000000e+00
0.000000000000e+00
0.000000000000e+00
0.000000000000e+00
0.000000000000e+00
0.000000000000e+00
0.000000000000e+00
0.000000000000e+00
0.000000000000e+00
0.000000000000e+00
0.000000000000e+00
0.000000000000e+00
0.000000000000e+00
0.000000000000e+00
0.000000000000e+00
0.000000000000e+00
0.000000000000e+00
0.000000000000e+00
0.000000000000e+00
0.000000000000e+00
0.000000000000e+00
1.202369705750e+00
1.210379364281e+00
1.210379364220e+00
1.202369705564e+00
1.210379364312e+00
1.218479047903e+00
1.218479047841e+00
1.210379364126e+00
1.210379364283e+00
1.218479047871e+00
1.218479047809e+00
1.210379364095e+00
1.202369705657e+00
1.210379364190e+00
1.210379364128e+00
1.202369705472e+00
0.000000000000e+00
0.000000000000e+00
0.000000000000e+00
0.000000000000e+00
0.000000000000e+00
0.000000000000e+00
0.000000000000e+00
0.000000000000e+00
0.000000000000e+00
0.000000000000e+00
0.000000000000e+00
0.000000000000e+00
0.000000000000e+00
0.000000000000e+00
0.000000000000e+00
0.000000000000e+00
0.000000000000e+00
0.000000000000e+00
0.000000000000e+00
0.000000000000e+00
0.000000000000e+00
0.000000000000e+00
0.000000000000e+00
0.000000000000e+00
0.000000000000e+00
0.000000000000e+00
0.000000000000e+00
0.000000000000e+00
0.000000000000e+00
0.000000000000e+00
0.000000000000e+00
0.000000000000e+00
0.000000000000e+00
0.000000000000e+00
0.000000000000e+00
0.000000000000e+00
0.000000000000e+00
0.000000000000e+00
0.000000000000e+00
0.000000000000e+00
0.000000000000e+00
0.000000000000e+00
0.000000000000e+00
0.000000000000e+00
0.000000000000e+00
0.000000000000e+00
0.000000000000e+00
0.000000000000e+00
SCALARS active_contact float 1
LOOKUP_TABLE default
0.000000000000e+00
0.000000000000e+00
0.000000000000e+00
0.000000000000e+00
0.000000000000e+00
0.000000000000e+00
0.000000000000e+00
0.000000000000e+00
0.000000000000e+00
0.000000000000e+00
0.000000000000e+00
0.000000000000e+00
0.000000000000e+00
0.000000000000e+00
0.000000000000e+00
0.000000000000e+00
0.000000000000e+00
0.000000000000e+00
0.000000000000e+00
0.000000000000e+00
0.000000000000e+00
0.000000000000e+00
0.000000000000e+00
0.000000000000e+00
0.000000000000e+00
0.000000000000e+00
0.000000000000e+00
0.000000000000e+00
0.000000000000e+00
0.000000000000e+00
0.000000000000e+00
0.000000000000e+00
0.000000000000e+00
0.000000000000e+00
0.000000000000e+00
0.000000000000e+00
0.000000000000e+00
0.000000000000e+00
0.000000000000e+00
0.000000000000e+00
0.000000000000e+00
0.000000000000e+00
0.000000000000e+00
0.000000000000e+00
0.000000000000e+00
0.000000000000e+00
0.000000000000e+00
0.000000000000e+00
0.000000000000e+00
0.000000000000e+00
0.000000000000e+00
0.000000000000e+00
0.000000000000e+00
0.000000000000e+00
0.000000000000e+00
0.000000000000e+00
0.000000000000e+00
0.000000000000e+00
0.000000000000e+00
0.000000000000e+00
0.000000000000e+00
0.000000000000e+00
0.000000000000e+00
0.000000000000e+00
1.000000000000e+00
1.000000000000e+00
1.000000000000e+00
1.000000000000e+00
1.000000000000e+00
1.000000000000e+00
1.000000000000e+00
1.000000000000e+00
1.000000000000e+00
1.000000000000e+00
1.000000000000e+00
1.000000000000e+00
1.000000000000e+00
1.000000000000e+00
1.000000000000e+00
1.000000000000e+00
0.000000000000e+00
0.000000000000e+00
0.000000000000e+00
0.000000000000e+00
0.000000000000e+00
0.000000000000e+00
0.000000000000e+00
0.000000000000e+00
0.000000000000e+00
0.000000000000e+00
0.000000000000e+00
0.000000000000e+00
0.000000000000e+00
0.000000000000e+00
0.000000000000e+00
0.000000000000e+00
0.000000000000e+00
0.000000000000e+00
0.000000000000e+00
0.000000000000e+00
0.000000000000e+00
0.000000000000e+00
0.000000000000e+00
0.000000000000e+00
0.000000000000e+00
0.000000000000e+00
0.000000000000e+00
0.000000000000e+00
0.000000000000e+00
0.000000000000e+00
0.000000000000e+00
0.000000000000e+00
0.000000000000e+00
0.000000000000e+00
0.000000000000e+00
0.000000000000e+00
0.000000000000e+00
0.000000000000e+00
0.000000000000e+00
0.000000000000e+00
0.000000000000e+00
0.000000000000e+00
0.000000000000e+00
0.000000000000e+00
0.000000000000e+00
0.000000000000e+00
0.000000000000e+00
0.000000000000e+00
