# vtk DataFile Version 3.0
SFC long-time C3D8 dynamic frame 72 t=1.440000000000e+00
ASCII
DATASET UNSTRUCTURED_GRID
POINTS 250 float
-2.500000000000e-01 -2.500000000000e-01 0.000000000000e+00
-1.250000000000e-01 -2.500000000000e-01 0.000000000000e+00
0.000000000000e+00 -2.500000000000e-01 0.000000000000e+00
1.250000000000e-01 -2.500000000000e-01 0.000000000000e+00
2.500000000000e-01 -2.500000000000e-01 0.000000000000e+00
-2.500000000000e-01 -1.250000000000e-01 0.000000000000e+00
-1.250000000000e-01 -1.250000000000e-01 0.000000000000e+00
0.000000000000e+00 -1.250000000000e-01 0.000000000000e+00
1.250000000000e-01 -1.250000000000e-01 0.000000000000e+00
2.500000000000e-01 -1.250000000000e-01 0.000000000000e+00
-2.500000000000e-01 0.000000000000e+00 0.000000000000e+00
-1.250000000000e-01 0.000000000000e+00 0.000000000000e+00
0.000000000000e+00 0.000000000000e+00 0.000000000000e+00
1.250000000000e-01 0.000000000000e+00 0.000000000000e+00
2.500000000000e-01 0.000000000000e+00 0.000000000000e+00
-2.500000000000e-01 1.250000000000e-01 0.000000000000e+00
-1.250000000000e-01 1.250000000000e-01 0.000000000000e+00
0.000000000000e+00 1.250000000000e-01 0.000000000000e+00
1.250000000000e-01 1.250000000000e-01 0.000000000000e+00
2.500000000000e-01 1.250000000000e-01 0.000000000000e+00
-2.500000000000e-01 2.500000000000e-01 0.000000000000e+00
-1.250000000000e-01 2.500000000000e-01 0.000000000000e+00
0.000000000000e+00 2.500000000000e-01 0.000000000000e+00
1.250000000000e-01 2.500000000000e-01 0.000000000000e+00
2.500000000000e-01 2.500000000000e-01 0.000000000000e+00
-2.500000000000e-01 -2.500000000000e-01 6.000000000000e-02
-1.250000000000e-01 -2.500000000000e-01 6.000000000000e-02
0.000000000000e+00 -2.500000000000e-01 6.000000000000e-02
1.250000000000e-01 -2.500000000000e-01 6.000000000000e-02
2.500000000000e-01 -2.500000000000e-01 6.000000000000e-02
-2.500000000000e-01 -1.250000000000e-01 6.000000000000e-02
-1.250000000000e-01 -1.250000000000e-01 6.000000000000e-02
0.000000000000e+00 -1.250000000000e-01 6.000000000000e-02
1.250000000000e-01 -1.250000000000e-01 6.000000000000e-02
2.500000000000e-01 -1.250000000000e-01 6.000000000000e-02
-2.500000000000e-01 0.000000000000e+00 6.000000000000e-02
-1.250000000000e-01 0.000000000000e+00 6.000000000000e-02
0.000000000000e+00 0.000000000000e+00 6.000000000000e-02
1.250000000000e-01 0.000000000000e+00 6.000000000000e-02
2.500000000000e-01 0.000000000000e+00 6.000000000000e-02
-2.500000000000e-01 1.250000000000e-01 6.000000000000e-02
-1.250000000000e-01 1.250000000000e-01 6.000000000000e-02
0.000000000000e+00 1.250000000000e-01 6.000000000000e-02
1.250000000000e-01 1.250000000000e-01 6.000000000000e-02
2.500000000000e-01 1.250000000000e-01 6.000000000000e-02
-2.500000000000e-01 2.500000000000e-01 6.000000000000e-02
-1.250000000000e-01 2.500000000000e-01 6.000000000000e-02
0.000000000000e+00 2.500000000000e-01 6.000000000000e-02
1.250000000000e-01 2.500000000000e-01 6.000000000000e-02
2.500000000000e-01 2.500000000000e-01 6.000000000000e-02
-2.500000000000e-01 -2.500000000000e-01 1.200000000000e-01
-1.250000000000e-01 -2.500000000000e-01 1.200000000000e-01
0.000000000000e+00 -2.500000000000e-01 1.200000000000e-01
1.250000000000e-01 -2.500000000000e-01 1.200000000000e-01
2.500000000000e-01 -2.500000000000e-01 1.200000000000e-01
-2.500000000000e-01 -1.250000000000e-01 1.200000000000e-01
-1.250000000000e-01 -1.250000000000e-01 1.200000000000e-01
0.000000000000e+00 -1.250000000000e-01 1.200000000000e-01
1.250000000000e-01 -1.250000000000e-01 1.200000000000e-01
2.500000000000e-01 -1.250000000000e-01 1.200000000000e-01
-2.500000000000e-01 0.000000000000e+00 1.200000000000e-01
-1.250000000000e-01 0.000000000000e+00 1.200000000000e-01
0.000000000000e+00 0.000000000000e+00 1.200000000000e-01
1.250000000000e-01 0.000000000000e+00 1.200000000000e-01
2.500000000000e-01 0.000000000000e+00 1.200000000000e-01
-2.500000000000e-01 1.250000000000e-01 1.200000000000e-01
-1.250000000000e-01 1.250000000000e-01 1.200000000000e-01
0.000000000000e+00 1.250000000000e-01 1.200000000000e-01
1.250000000000e-01 1.250000000000e-01 1.200000000000e-01
2.500000000000e-01 1.250000000000e-01 1.200000000000e-01
-2.500000000000e-01 2.500000000000e-01 1.200000000000e-01
-1.250000000000e-01 2.500000000000e-01 1.200000000000e-01
0.000000000000e+00 2.500000000000e-01 1.200000000000e-01
1.250000000000e-01 2.500000000000e-01 1.200000000000e-01
2.500000000000e-01 2.500000000000e-01 1.200000000000e-01
-2.500000000000e-01 -2.500000000000e-01 1.800000000000e-01
-1.250000000000e-01 -2.500000000000e-01 1.800000000000e-01
0.000000000000e+00 -2.500000000000e-01 1.800000000000e-01
1.250000000000e-01 -2.500000000000e-01 1.800000000000e-01
2.500000000000e-01 -2.500000000000e-01 1.800000000000e-01
-2.500000000000e-01 -1.250000000000e-01 1.800000000000e-01
-1.250000000000e-01 -1.250000000000e-01 1.800000000000e-01
0.000000000000e+00 -1.250000000000e-01 1.800000000000e-01
1.250000000000e-01 -1.250000000000e-01 1.800000000000e-01
2.500000000000e-01 -1.250000000000e-01 1.800000000000e-01
-2.500000000000e-01 0.000000000000e+00 1.800000000000e-01
-1.250000000000e-01 0.000000000000e+00 1.800000000000e-01
0.000000000000e+00 0.000000000000e+00 1.800000000000e-01
1.250000000000e-01 0.000000000000e+00 1.800000000000e-01
2.500000000000e-01 0.000000000000e+00 1.800000000000e-01
-2.500000000000e-01 1.250000000000e-01 1.800000000000e-01
-1.250000000000e-01 1.250000000000e-01 1.800000000000e-01
0.000000000000e+00 1.250000000000e-01 1.800000000000e-01
1.250000000000e-01 1.250000000000e-01 1.800000000000e-01
2.500000000000e-01 1.250000000000e-01 1.800000000000e-01
-2.500000000000e-01 2.500000000000e-01 1.800000000000e-01
-1.250000000000e-01 2.500000000000e-01 1.800000000000e-01
0.000000000000e+00 2.500000000000e-01 1.800000000000e-01
1.250000000000e-01 2.500000000000e-01 1.800000000000e-01
2.500000000000e-01 2.500000000000e-01 1.800000000000e-01
-2.500000000000e-01 -2.500000000000e-01 2.400000000000e-01
-1.250000000000e-01 -2.500000000000e-01 2.400000000000e-01
0.000000000000e+00 -2.500000000000e-01 2.400000000000e-01
1.250000000000e-01 -2.500000000000e-01 2.400000000000e-01
2.500000000000e-01 -2.500000000000e-01 2.400000000000e-01
-2.500000000000e-01 -1.250000000000e-01 2.400000000000e-01
-1.250000000000e-01 -1.250000000000e-01 2.400000000000e-01
0.000000000000e+00 -1.250000000000e-01 2.400000000000e-01
1.250000000000e-01 -1.250000000000e-01 2.400000000000e-01
2.500000000000e-01 -1.250000000000e-01 2.400000000000e-01
-2.500000000000e-01 0.000000000000e+00 2.400000000000e-01
-1.250000000000e-01 0.000000000000e+00 2.400000000000e-01
0.000000000000e+00 0.000000000000e+00 2.400000000000e-01
1.250000000000e-01 0.000000000000e+00 2.400000000000e-01
2.500000000000e-01 0.000000000000e+00 2.400000000000e-01
-2.500000000000e-01 1.250000000000e-01 2.400000000000e-01
-1.250000000000e-01 1.250000000000e-01 2.400000000000e-01
0.000000000000e+00 1.250000000000e-01 2.400000000000e-01
1.250000000000e-01 1.250000000000e-01 2.400000000000e-01
2.500000000000e-01 1.250000000000e-01 2.400000000000e-01
-2.500000000000e-01 2.500000000000e-01 2.400000000000e-01
-1.250000000000e-01 2.500000000000e-01 2.400000000000e-01
0.000000000000e+00 2.500000000000e-01 2.400000000000e-01
1.250000000000e-01 2.500000000000e-01 2.400000000000e-01
2.500000000000e-01 2.500000000000e-01 2.400000000000e-01
-2.499999701116e-01 -2.499999701803e-01 2.477962666368e-01
-1.249999802397e-01 -2.499999713393e-01 2.477962770827e-01
1.068916944073e-10 -2.499999729762e-01 2.477962815405e-01
1.249999804535e-01 -2.499999713393e-01 2.477962772877e-01
2.499999703254e-01 -2.499999701804e-01 2.477962670470e-01
-2.499999712705e-01 -1.249999803084e-01 2.477962770174e-01
-1.249999802553e-01 -1.249999803240e-01 2.477962868147e-01
1.069258263933e-10 -1.249999807980e-01 2.477962909063e-01
1.249999804691e-01 -1.249999803241e-01 2.477962870198e-01
2.499999714844e-01 -1.249999803085e-01 2.477962774275e-01
-2.499999729074e-01 3.820508818742e-11 2.477962814100e-01
-1.249999807291e-01 3.817027678663e-11 2.477962908410e-01
1.069602948113e-10 3.813559008924e-11 2.477962948283e-01
1.249999809430e-01 3.810101622707e-11 2.477962910461e-01
2.499999731213e-01 3.806656887715e-11 2.477962818201e-01
-2.499999712704e-01 1.249999803848e-01 2.477962770919e-01
-1.249999802552e-01 1.249999804004e-01 2.477962868892e-01
1.069950819058e-10 1.249999808742e-01 2.477962909808e-01
1.249999804692e-01 1.249999804003e-01 2.477962870943e-01
2.499999714844e-01 1.249999803846e-01 2.477962775020e-01
-2.499999701114e-01 2.499999702567e-01 2.477962667858e-01
-1.249999802395e-01 2.499999714156e-01 2.477962772316e-01
1.070302075506e-10 2.499999730525e-01 2.477962816895e-01
1.249999804536e-01 2.499999714155e-01 2.477962774367e-01
2.499999703255e-01 2.499999702565e-01 2.477962671959e-01
-2.499999751046e-01 -2.499999751394e-01 3.127962732112e-01
-1.249999842407e-01 -2.499999758708e-01 3.127962847922e-01
5.357741637436e-11 -2.499999771291e-01 3.127962901632e-01
1.249999843479e-01 -2.499999758708e-01 3.127962849973e-01
2.499999752118e-01 -2.499999751395e-01 3.127962736213e-01
-2.499999758360e-01 -1.249999842754e-01 3.127962847270e-01
-1.249999841822e-01 -1.249999842170e-01 3.127962959591e-01
5.361152580448e-11 -1.249999845796e-01 3.127963011806e-01
1.249999842894e-01 -1.249999842171e-01 3.127962961642e-01
2.499999759432e-01 -1.249999842756e-01 3.127962851371e-01
-2.499999770943e-01 1.883608537440e-11 3.127962900326e-01
-1.249999845447e-01 1.880126715565e-11 3.127963011154e-01
5.364597120846e-11 1.876657024346e-11 3.127963064008e-01
1.249999846520e-01 1.873200865509e-11 3.127963013204e-01
2.499999772016e-01 1.869756802183e-11 3.127962904427e-01
-2.499999758359e-01 1.249999843131e-01 3.127962848014e-01
-1.249999841821e-01 1.249999842546e-01 3.127962960336e-01
5.368078271607e-11 1.249999846171e-01 3.127963012551e-01
1.249999842895e-01 1.249999842546e-01 3.127962962387e-01
2.499999759432e-01 1.249999843130e-01 3.127962852116e-01
-2.499999751045e-01 2.499999751770e-01 3.127962733602e-01
-1.249999842406e-01 2.499999759084e-01 3.127962849412e-01
5.371593103429e-11 2.499999771667e-01 3.127962903122e-01
1.249999843480e-01 2.499999759083e-01 3.127962851463e-01
2.499999752119e-01 2.499999751769e-01 3.127962737703e-01
-2.499999805293e-01 -2.499999805301e-01 3.777962821432e-01
-1.249999882605e-01 -2.499999809357e-01 3.777962947468e-01
2.626425141930e-13 -2.499999818229e-01 3.777963004485e-01
1.249999882610e-01 -2.499999809357e-01 3.777962949518e-01
2.499999805298e-01 -2.499999805302e-01 3.777962825533e-01
-2.499999809348e-01 -1.249999882613e-01 3.777962946815e-01
-1.249999882353e-01 -1.249999882361e-01 3.777963071339e-01
2.968255869939e-13 -1.249999885021e-01 3.777963127864e-01
1.249999882358e-01 -1.249999882362e-01 3.777963073390e-01
2.499999809354e-01 -1.249999882614e-01 3.777962950916e-01
-2.499999818220e-01 -5.330970343803e-13 3.777963003179e-01
-1.249999885011e-01 -5.678877140711e-13 3.777963127211e-01
3.312720375751e-13 -6.025848932594e-13 3.777963185146e-01
1.249999885018e-01 -6.371457151619e-13 3.777963129262e-01
2.499999818227e-01 -6.716131976140e-13 3.777963007281e-01
-2.499999809347e-01 1.249999882602e-01 3.777962947560e-01
-1.249999882352e-01 1.249999882350e-01 3.777963072084e-01
3.660831879757e-13 1.249999885009e-01 3.777963128609e-01
1.249999882359e-01 1.249999882349e-01 3.777963074135e-01
2.499999809355e-01 1.249999882601e-01 3.777962951661e-01
-2.499999805291e-01 2.499999805290e-01 3.777962822922e-01
-1.249999882603e-01 2.499999809345e-01 3.777962948958e-01
4.011587059450e-13 2.499999818217e-01 3.777963005975e-01
1.249999882611e-01 2.499999809345e-01 3.777962951008e-01
2.499999805299e-01 2.499999805288e-01 3.777962827023e-01
-2.499999878590e-01 -2.499999878259e-01 4.427962892495e-01
-1.249999926440e-01 -2.499999881011e-01 4.427963026728e-01
-5.305235693130e-11 -2.499999886842e-01 4.427963085204e-01
1.249999925379e-01 -2.499999881011e-01 4.427963028779e-01
2.499999877529e-01 -2.499999878260e-01 4.427962896596e-01
-2.499999881341e-01 -1.249999926109e-01 4.427963026075e-01
-1.249999926359e-01 -1.249999926029e-01 4.427963159916e-01
-5.301809476881e-11 -1.249999927956e-01 4.427963218467e-01
1.249999925299e-01 -1.249999926029e-01 4.427963161967e-01
2.499999880281e-01 -1.249999926110e-01 4.427963030177e-01
-2.499999887172e-01 -1.990236023814e-11 4.427963083899e-01
-1.249999928286e-01 -1.993712505904e-11 4.427963217814e-01
-5.298365434953e-11 -1.997182224103e-11 4.427963278122e-01
1.249999927226e-01 -2.000638157770e-11 4.427963219864e-01
2.499999886113e-01 -2.004087661486e-11 4.427963088000e-01
-2.499999881341e-01 1.249999925711e-01 4.427963026820e-01
-1.249999926359e-01 1.249999925630e-01 4.427963160661e-01
-5.294883503132e-11 1.249999927557e-01 4.427963219212e-01
1.249999925300e-01 1.249999925629e-01 4.427963162712e-01
2.499999880282e-01 1.249999925709e-01 4.427963030922e-01
-2.499999878589e-01 2.499999877861e-01 4.427962893984e-01
-1.249999926439e-01 2.499999880612e-01 4.427963028218e-01
-5.291383807645e-11 2.499999886443e-01 4.427963086694e-01
1.249999925380e-01 2.499999880611e-01 4.427963030269e-01
2.499999877531e-01 2.499999877859e-01 4.427962898086e-01
-2.499999956491e-01 -2.499999955820e-01 5.077962923985e-01
-1.249999976760e-01 -2.499999957396e-01 5.077963061445e-01
-1.063670735919e-10 -2.499999960847e-01 5.077963121064e-01
1.249999974633e-01 -2.499999957397e-01 5.077963063496e-01
2.499999954364e-01 -2.499999955821e-01 5.077962928086e-01
-2.499999958067e-01 -1.249999976089e-01 5.077963060792e-01
-1.249999977000e-01 -1.249999976330e-01 5.077963198396e-01
-1.063328434515e-10 -1.249999978308e-01 5.077963258424e-01
1.249999974874e-01 -1.249999976331e-01 5.077963200446e-01
2.499999955940e-01 -1.249999976091e-01 5.077963064893e-01
-2.499999961516e-01 -3.927152288851e-11 5.077963119758e-01
-1.249999978978e-01 -3.930629997250e-11 5.077963257771e-01
-1.062984399984e-10 -3.934101227183e-11 5.077963319623e-01
1.249999976852e-01 -3.937555397782e-11 5.077963259822e-01
2.499999959390e-01 -3.941003546012e-11 5.077963123860e-01
-2.499999958066e-01 1.249999975304e-01 5.077963061537e-01
-1.249999977000e-01 1.249999975544e-01 5.077963199141e-01
-1.062635817699e-10 1.249999977521e-01 5.077963259169e-01
1.249999974874e-01 1.249999975543e-01 5.077963201191e-01
2.499999955941e-01 1.249999975302e-01 5.077963065638e-01
-2.499999956490e-01 2.499999955035e-01 5.077962925475e-01
-1.249999976759e-01 2.499999956610e-01 5.077963062935e-01
-1.062285527887e-10 2.499999960060e-01 5.077963122554e-01
1.249999974634e-01 2.499999956610e-01 5.077963064986e-01
2.499999954365e-01 2.499999955033e-01 5.077962929576e-01
CELLS 128 1152
8 0 1 6 5 25 26 31 30
8 1 2 7 6 26 27 32 31
8 2 3 8 7 27 28 33 32
8 3 4 9 8 28 29 34 33
8 5 6 11 10 30 31 36 35
8 6 7 12 11 31 32 37 36
8 7 8 13 12 32 33 38 37
8 8 9 14 13 33 34 39 38
8 10 11 16 15 35 36 41 40
8 11 12 17 16 36 37 42 41
8 12 13 18 17 37 38 43 42
8 13 14 19 18 38 39 44 43
8 15 16 21 20 40 41 46 45
8 16 17 22 21 41 42 47 46
8 17 18 23 22 42 43 48 47
8 18 19 24 23 43 44 49 48
8 25 26 31 30 50 51 56 55
8 26 27 32 31 51 52 57 56
8 27 28 33 32 52 53 58 57
8 28 29 34 33 53 54 59 58
8 30 31 36 35 55 56 61 60
8 31 32 37 36 56 57 62 61
8 32 33 38 37 57 58 63 62
8 33 34 39 38 58 59 64 63
8 35 36 41 40 60 61 66 65
8 36 37 42 41 61 62 67 66
8 37 38 43 42 62 63 68 67
8 38 39 44 43 63 64 69 68
8 40 41 46 45 65 66 71 70
8 41 42 47 46 66 67 72 71
8 42 43 48 47 67 68 73 72
8 43 44 49 48 68 69 74 73
8 50 51 56 55 75 76 81 80
8 51 52 57 56 76 77 82 81
8 52 53 58 57 77 78 83 82
8 53 54 59 58 78 79 84 83
8 55 56 61 60 80 81 86 85
8 56 57 62 61 81 82 87 86
8 57 58 63 62 82 83 88 87
8 58 59 64 63 83 84 89 88
8 60 61 66 65 85 86 91 90
8 61 62 67 66 86 87 92 91
8 62 63 68 67 87 88 93 92
8 63 64 69 68 88 89 94 93
8 65 66 71 70 90 91 96 95
8 66 67 72 71 91 92 97 96
8 67 68 73 72 92 93 98 97
8 68 69 74 73 93 94 99 98
8 75 76 81 80 100 101 106 105
8 76 77 82 81 101 102 107 106
8 77 78 83 82 102 103 108 107
8 78 79 84 83 103 104 109 108
8 80 81 86 85 105 106 111 110
8 81 82 87 86 106 107 112 111
8 82 83 88 87 107 108 113 112
8 83 84 89 88 108 109 114 113
8 85 86 91 90 110 111 116 115
8 86 87 92 91 111 112 117 116
8 87 88 93 92 112 113 118 117
8 88 89 94 93 113 114 119 118
8 90 91 96 95 115 116 121 120
8 91 92 97 96 116 117 122 121
8 92 93 98 97 117 118 123 122
8 93 94 99 98 118 119 124 123
8 125 126 131 130 150 151 156 155
8 126 127 132 131 151 152 157 156
8 127 128 133 132 152 153 158 157
8 128 129 134 133 153 154 159 158
8 130 131 136 135 155 156 161 160
8 131 132 137 136 156 157 162 161
8 132 133 138 137 157 158 163 162
8 133 134 139 138 158 159 164 163
8 135 136 141 140 160 161 166 165
8 136 137 142 141 161 162 167 166
8 137 138 143 142 162 163 168 167
8 138 139 144 143 163 164 169 168
8 140 141 146 145 165 166 171 170
8 141 142 147 146 166 167 172 171
8 142 143 148 147 167 168 173 172
8 143 144 149 148 168 169 174 173
8 150 151 156 155 175 176 181 180
8 151 152 157 156 176 177 182 181
8 152 153 158 157 177 178 183 182
8 153 154 159 158 178 179 184 183
8 155 156 161 160 180 181 186 185
8 156 157 162 161 181 182 187 186
8 157 158 163 162 182 183 188 187
8 158 159 164 163 183 184 189 188
8 160 161 166 165 185 186 191 190
8 161 162 167 166 186 187 192 191
8 162 163 168 167 187 188 193 192
8 163 164 169 168 188 189 194 193
8 165 166 171 170 190 191 196 195
8 166 167 172 171 191 192 197 196
8 167 168 173 172 192 193 198 197
8 168 169 174 173 193 194 199 198
8 175 176 181 180 200 201 206 205
8 176 177 182 181 201 202 207 206
8 177 178 183 182 202 203 208 207
8 178 179 184 183 203 204 209 208
8 180 181 186 185 205 206 211 210
8 181 182 187 186 206 207 212 211
8 182 183 188 187 207 208 213 212
8 183 184 189 188 208 209 214 213
8 185 186 191 190 210 211 216 215
8 186 187 192 191 211 212 217 216
8 187 188 193 192 212 213 218 217
8 188 189 194 193 213 214 219 218
8 190 191 196 195 215 216 221 220
8 191 192 197 196 216 217 222 221
8 192 193 198 197 217 218 223 222
8 193 194 199 198 218 219 224 223
8 200 201 206 205 225 226 231 230
8 201 202 207 206 226 227 232 231
8 202 203 208 207 227 228 233 232
8 203 204 209 208 228 229 234 233
8 205 206 211 210 230 231 236 235
8 206 207 212 211 231 232 237 236
8 207 208 213 212 232 233 238 237
8 208 209 214 213 233 234 239 238
8 210 211 216 215 235 236 241 240
8 211 212 217 216 236 237 242 241
8 212 213 218 217 237 238 243 242
8 213 214 219 218 238 239 244 243
8 215 216 221 220 240 241 246 245
8 216 217 222 221 241 242 247 246
8 217 218 223 222 242 243 248 247
8 218 219 224 223 243 244 249 248
CELL_TYPES 128
12
12
12
12
12
12
12
12
12
12
12
12
12
12
12
12
12
12
12
12
12
12
12
12
12
12
12
12
12
12
12
12
12
12
12
12
12
12
12
12
12
12
12
12
12
12
12
12
12
12
12
12
12
12
12
12
12
12
12
12
12
12
12
12
12
12
12
12
12
12
12
12
12
12
12
12
12
12
12
12
12
12
12
12
12
12
12
12
12
12
12
12
12
12
12
12
12
12
12
12
12
12
12
12
12
12
12
12
12
12
12
12
12
12
12
12
12
12
12
12
12
12
12
12
12
12
12
12
POINT_DATA 250
VECTORS displacement float
0.000000000000e+00 0.000000000000e+00 0.000000000000e+00
0.000000000000e+00 0.000000000000e+00 0.000000000000e+00
0.000000000000e+00 0.000000000000e+00 0.000000000000e+00
0.000000000000e+00 0.000000000000e+00 0.000000000000e+00
0.000000000000e+00 0.000000000000e+00 0.000000000000e+00
0.000000000000e+00 0.000000000000e+00 0.000000000000e+00
0.000000000000e+00 0.000000000000e+00 0.000000000000e+00
0.000000000000e+00 0.000000000000e+00 0.000000000000e+00
0.000000000000e+00 0.000000000000e+00 0.000000000000e+00
0.000000000000e+00 0.000000000000e+00 0.000000000000e+00
0.000000000000e+00 0.000000000000e+00 0.000000000000e+00
0.000000000000e+00 0.000000000000e+00 0.000000000000e+00
0.000000000000e+00 0.000000000000e+00 0.000000000000e+00
0.000000000000e+00 0.000000000000e+00 0.000000000000e+00
0.000000000000e+00 0.000000000000e+00 0.000000000000e+00
0.000000000000e+00 0.000000000000e+00 0.000000000000e+00
0.000000000000e+00 0.000000000000e+00 0.000000000000e+00
0.000000000000e+00 0.000000000000e+00 0.000000000000e+00
0.000000000000e+00 0.000000000000e+00 0.000000000000e+00
0.000000000000e+00 0.000000000000e+00 0.000000000000e+00
0.000000000000e+00 0.000000000000e+00 0.000000000000e+00
0.000000000000e+00 0.000000000000e+00 0.000000000000e+00
0.000000000000e+00 0.000000000000e+00 0.000000000000e+00
0.000000000000e+00 0.000000000000e+00 0.000000000000e+00
0.000000000000e+00 0.000000000000e+00 0.000000000000e+00
0.000000000000e+00 0.000000000000e+00 0.000000000000e+00
0.000000000000e+00 0.000000000000e+00 0.000000000000e+00
0.000000000000e+00 0.000000000000e+00 0.000000000000e+00
0.000000000000e+00 0.000000000000e+00 0.000000000000e+00
0.000000000000e+00 0.000000000000e+00 0.000000000000e+00
0.000000000000e+00 0.000000000000e+00 0.000000000000e+00
0.000000000000e+00 0.000000000000e+00 0.000000000000e+00
0.000000000000e+00 0.000000000000e+00 0.000000000000e+00
0.000000000000e+00 0.000000000000e+00 0.000000000000e+00
0.000000000000e+00 0.000000000000e+00 0.000000000000e+00
0.000000000000e+00 0.000000000000e+00 0.000000000000e+00
0.000000000000e+00 0.000000000000e+00 0.000000000000e+00
0.000000000000e+00 0.000000000000e+00 0.000000000000e+00
0.000000000000e+00 0.000000000000e+00 0.000000000000e+00
0.000000000000e+00 0.000000000000e+00 0.000000000000e+00
0.000000000000e+00 0.000000000000e+00 0.000000000000e+00
0.000000000000e+00 0.000000000000e+00 0.000000000000e+00
0.000000000000e+00 0.000000000000e+00 0.000000000000e+00
0.000000000000e+00 0.000000000000e+00 0.000000000000e+00
0.000000000000e+00 0.000000000000e+00 0.000000000000e+00
0.000000000000e+00 0.000000000000e+00 0.000000000000e+00
0.000000000000e+00 0.000000000000e+00 0.000000000000e+00
0.000000000000e+00 0.000000000000e+00 0.000000000000e+00
0.000000000000e+00 0.000000000000e+00 0.000000000000e+00
0.000000000000e+00 0.000000000000e+00 0.000000000000e+00
0.000000000000e+00 0.000000000000e+00 0.000000000000e+00
0.000000000000e+00 0.000000000000e+00 0.000000000000e+00
0.000000000000e+00 0.000000000000e+00 0.000000000000e+00
0.000000000000e+00 0.000000000000e+00 0.000000000000e+00
0.000000000000e+00 0.000000000000e+00 0.000000000000e+00
0.000000000000e+00 0.000000000000e+00 0.000000000000e+00
0.000000000000e+00 0.000000000000e+00 0.000000000000e+00
0.000000000000e+00 0.000000000000e+00 0.000000000000e+00
0.000000000000e+00 0.000000000000e+00 0.000000000000e+00
0.000000000000e+00 0.000000000000e+00 0.000000000000e+00
0.000000000000e+00 0.000000000000e+00 0.000000000000e+00
0.000000000000e+00 0.000000000000e+00 0.000000000000e+00
0.000000000000e+00 0.000000000000e+00 0.000000000000e+00
0.000000000000e+00 0.000000000000e+00 0.000000000000e+00
0.000000000000e+00 0.000000000000e+00 0.000000000000e+00
0.000000000000e+00 0.000000000000e+00 0.000000000000e+00
0.000000000000e+00 0.000000000000e+00 0.000000000000e+00
0.000000000000e+00 0.000000000000e+00 0.000000000000e+00
0.000000000000e+00 0.000000000000e+00 0.000000000000e+00
0.000000000000e+00 0.000000000000e+00 0.000000000000e+00
0.000000000000e+00 0.000000000000e+00 0.000000000000e+00
0.000000000000e+00 0.000000000000e+00 0.000000000000e+00
0.000000000000e+00 0.000000000000e+00 0.000000000000e+00
0.000000000000e+00 0.000000000000e+00 0.000000000000e+00
0.000000000000e+00 0.000000000000e+00 0.000000000000e+00
0.000000000000e+00 0.000000000000e+00 0.000000000000e+00
0.000000000000e+00 0.000000000000e+00 0.000000000000e+00
0.000000000000e+00 0.000000000000e+00 0.000000000000e+00
0.000000000000e+00 0.000000000000e+00 0.000000000000e+00
0.000000000000e+00 0.000000000000e+00 0.000000000000e+00
0.000000000000e+00 0.000000000000e+00 0.000000000000e+00
0.000000000000e+00 0.000000000000e+00 0.000000000000e+00
0.000000000000e+00 0.000000000000e+00 0.000000000000e+00
0.000000000000e+00 0.000000000000e+00 0.000000000000e+00
0.000000000000e+00 0.000000000000e+00 0.000000000000e+00
0.000000000000e+00 0.000000000000e+00 0.000000000000e+00
0.000000000000e+00 0.000000000000e+00 0.000000000000e+00
0.000000000000e+00 0.000000000000e+00 0.000000000000e+00
0.000000000000e+00 0.000000000000e+00 0.000000000000e+00
0.000000000000e+00 0.000000000000e+00 0.000000000000e+00
0.000000000000e+00 0.000000000000e+00 0.000000000000e+00
0.000000000000e+00 0.000000000000e+00 0.000000000000e+00
0.000000000000e+00 0.000000000000e+00 0.000000000000e+00
0.000000000000e+00 0.000000000000e+00 0.000000000000e+00
0.000000000000e+00 0.000000000000e+00 0.000000000000e+00
0.000000000000e+00 0.000000000000e+00 0.000000000000e+00
0.000000000000e+00 0.000000000000e+00 0.000000000000e+00
0.000000000000e+00 0.000000000000e+00 0.000000000000e+00
0.000000000000e+00 0.000000000000e+00 0.000000000000e+00
0.000000000000e+00 0.000000000000e+00 0.000000000000e+00
0.000000000000e+00 0.000000000000e+00 0.000000000000e+00
0.000000000000e+00 0.000000000000e+00 0.000000000000e+00
0.000000000000e+00 0.000000000000e+00 0.000000000000e+00
0.000000000000e+00 0.000000000000e+00 0.000000000000e+00
0.000000000000e+00 0.000000000000e+00 0.000000000000e+00
0.000000000000e+00 0.000000000000e+00 0.000000000000e+00
0.000000000000e+00 0.000000000000e+00 0.000000000000e+00
0.000000000000e+00 0.000000000000e+00 0.000000000000e+00
0.000000000000e+00 0.000000000000e+00 0.000000000000e+00
0.000000000000e+00 0.000000000000e+00 0.000000000000e+00
0.000000000000e+00 0.000000000000e+00 0.000000000000e+00
0.000000000000e+00 0.000000000000e+00 0.000000000000e+00
0.000000000000e+00 0.000000000000e+00 0.000000000000e+00
0.000000000000e+00 0.000000000000e+00 0.000000000000e+00
0.000000000000e+00 0.000000000000e+00 0.000000000000e+00
0.000000000000e+00 0.000000000000e+00 0.000000000000e+00
0.000000000000e+00 0.000000000000e+00 0.000000000000e+00
0.000000000000e+00 0.000000000000e+00 0.000000000000e+00
0.000000000000e+00 0.000000000000e+00 0.000000000000e+00
0.000000000000e+00 0.000000000000e+00 0.000000000000e+00
0.000000000000e+00 0.000000000000e+00 0.000000000000e+00
0.000000000000e+00 0.000000000000e+00 0.000000000000e+00
0.000000000000e+00 0.000000000000e+00 0.000000000000e+00
0.000000000000e+00 0.000000000000e+00 0.000000000000e+00
0.000000000000e+00 0.000000000000e+00 0.000000000000e+00
2.988841811546e-08 2.981973065735e-08 -7.203733363155e-03
1.976032855834e-08 2.866072797209e-08 -7.203722917350e-03
1.068916944073e-10 2.702380422888e-08 -7.203718459485e-03
-1.954654516078e-08 2.866066020865e-08 -7.203722712296e-03
-2.967463482432e-08 2.981959488074e-08 -7.203732953045e-03
2.872948399430e-08 1.969164140230e-08 -7.203722982630e-03
1.974473547908e-08 1.967597962202e-08 -7.203713185256e-03
1.069258263933e-10 1.920204651315e-08 -7.203709093704e-03
-1.953088381745e-08 1.967591129454e-08 -7.203712980202e-03
-2.851563238240e-08 1.969150458254e-08 -7.203722572520e-03
2.709262894686e-08 3.820508818742e-11 -7.203718590044e-03
1.927087122732e-08 3.817027678663e-11 -7.203709158983e-03
1.069602948113e-10 3.813559008924e-11 -7.203705171746e-03
-1.905695063519e-08 3.810101622707e-11 -7.203708953929e-03
-2.687870834557e-08 3.806656887715e-11 -7.203718179934e-03
2.872955379644e-08 -1.961523122580e-08 -7.203722908134e-03
1.974480507644e-08 -1.959963906592e-08 -7.203713110760e-03
1.069950819058e-10 -1.912577533412e-08 -7.203709019208e-03
-1.953081490238e-08 -1.959970925606e-08 -7.203712905706e-03
-2.851556366624e-08 -1.961537144309e-08 -7.203722498024e-03
2.988855763335e-08 -2.974332052396e-08 -7.203733214162e-03
1.976046769293e-08 -2.858438743152e-08 -7.203722768358e-03
1.070302075506e-10 -2.694753304566e-08 -7.203718310493e-03
-1.954640726564e-08 -2.858445818331e-08 -7.203722563303e-03
-2.967449731189e-08 -2.974346178216e-08 -7.203732804053e-03
2.489536530884e-08 2.486062338793e-08 -7.203726788766e-03
1.575930405681e-08 2.412923750914e-08 -7.203715207769e-03
5.357741637436e-11 2.287085212205e-08 -7.203709836814e-03
-1.565214941629e-08 2.412916949976e-08 -7.203715002715e-03
-2.478821106621e-08 2.486048729940e-08 -7.203726378656e-03
2.416404801869e-08 1.572456231852e-08 -7.203715273049e-03
1.581778501118e-08 1.578297455580e-08 -7.203704040865e-03
5.361152580448e-11 1.542039009380e-08 -7.203698819359e-03
-1.571056212197e-08 1.578290606692e-08 -7.203703835810e-03
-2.405682545020e-08 1.572442526236e-08 -7.203714862939e-03
2.290573139711e-08 1.883608537440e-11 -7.203709967374e-03
1.545526945016e-08 1.880126715565e-11 -7.203698884639e-03
5.364597120846e-11 1.876657024346e-11 -7.203693599225e-03
-1.534797766274e-08 1.873200865509e-11 -7.203698679584e-03
-2.279843986945e-08 1.869756802183e-11 -7.203709557263e-03
2.416411773135e-08 -1.568689021777e-08 -7.203715198553e-03
1.581785454971e-08 -1.574537208132e-08 -7.203703966369e-03
5.368078271607e-11 -1.538285701055e-08 -7.203698744863e-03
-1.571049314556e-08 -1.574544211056e-08 -7.203703761314e-03
-2.405675664937e-08 -1.568703019657e-08 -7.203714788443e-03
2.489550470963e-08 -2.482295143320e-08 -7.203726639774e-03
1.575944310303e-08 -2.409163515513e-08 -7.203715058777e-03
5.371593103429e-11 -2.283331913005e-08 -7.203709687822e-03
-1.565201143308e-08 -2.409170566111e-08 -7.203714853722e-03
-2.478807343370e-08 -2.482309237776e-08 -7.203726229664e-03
1.947074118241e-08 1.946994499833e-08 -7.203717856796e-03
1.173953345210e-08 1.906432121143e-08 -7.203705253208e-03
2.626425141930e-13 1.817705464450e-08 -7.203699551501e-03
-1.173900835287e-08 1.906425294229e-08 -7.203705048153e-03
-1.947021651092e-08 1.946980849118e-08 -7.203717446685e-03
1.906518605858e-08 1.173873739891e-08 -7.203705318488e-03
1.176474668105e-08 1.176388183790e-08 -7.203692866091e-03
2.968255869939e-13 1.149794410202e-08 -7.203687213592e-03
-1.176415320768e-08 1.176381316387e-08 -7.203692661036e-03
-1.906459298431e-08 1.173860005556e-08 -7.203704908376e-03
1.817798834102e-08 -5.330970343803e-13 -7.203699682060e-03
1.149887790527e-08 -5.678877140711e-13 -7.203687278872e-03
3.312720375751e-13 -6.025848932594e-13 -7.203681485356e-03
-1.149821552931e-08 -6.371457151619e-13 -7.203687073816e-03
-1.817732630586e-08 -6.716131976140e-13 -7.203699271948e-03
1.906525567855e-08 -1.173980365951e-08 -7.203705243992e-03
1.176481615236e-08 -1.176501768066e-08 -7.203692791595e-03
3.660831879757e-13 -1.149914933217e-08 -7.203687139096e-03
-1.176408416288e-08 -1.176508752306e-08 -7.203692586540e-03
-1.906452408547e-08 -1.173994334931e-08 -7.203704833880e-03
1.947088042840e-08 -1.947101141720e-08 -7.203717707804e-03
1.173967239466e-08 -1.906545720168e-08 -7.203705104215e-03
4.011587059450e-13 -1.817826000025e-08 -7.203699402508e-03
-1.173887026447e-08 -1.906552744805e-08 -7.203704899160e-03
-1.947007872885e-08 -1.947115193892e-08 -7.203717297693e-03
1.214096616566e-08 1.217411586665e-08 -7.203710750547e-03
7.355992140958e-09 1.189893859419e-08 -7.203697327177e-03
-5.305235693130e-11 1.131579340244e-08 -7.203691479582e-03
-7.462097016998e-09 1.189886996476e-08 -7.203697122122e-03
-1.224707133927e-08 1.217397875427e-08 -7.203710340435e-03
1.186585766856e-08 7.389141916732e-09 -7.203697392457e-03
7.364067952522e-09 7.397148861177e-09 -7.203684008354e-03
-5.301809476881e-11 7.204397454081e-09 -7.203678153336e-03
-7.470104323015e-09 7.397079990096e-09 -7.203683803298e-03
-1.197189432637e-08 7.389004268426e-09 -7.203696982345e-03
1.128278143876e-08 -1.990236023814e-11 -7.203691610142e-03
7.171385566200e-09 -1.993712505904e-11 -7.203678218616e-03
-5.298365434953e-11 -1.997182224103e-11 -7.203672187835e-03
-7.277353036805e-09 -2.000638157770e-11 -7.203678013560e-03
-1.138874914077e-08 -2.004087661486e-11 -7.203691200029e-03
1.186592715704e-08 -7.428946697691e-09 -7.203697317961e-03
7.364137353185e-09 -7.437023177178e-09 -7.203683933858e-03
-5.294883503132e-11 -7.244341158033e-09 -7.203678078840e-03
-7.470035204796e-09 -7.437092819403e-09 -7.203683728802e-03
-1.197182529494e-08 -7.429086079205e-09 -7.203696907848e-03
1.214110519390e-08 -1.221392075942e-08 -7.203710601554e-03
7.356130974581e-09 -1.193881301345e-08 -7.203697178184e-03
-5.291383807645e-11 -1.135573719155e-08 -7.203691330589e-03
-7.461958816533e-09 -1.193888290012e-08 -7.203696973128e-03
-1.224693333463e-08 -1.221406066987e-08 -7.203710191442e-03
4.350906376440e-09 4.418001905667e-09 -7.203707601471e-03
2.323985708885e-09 4.260351097060e-09 -7.203693855483e-03
-1.063670735919e-10 3.915328461164e-09 -7.203687893595e-03
-2.536720184388e-09 4.260282090070e-09 -7.203693650427e-03
-4.563641252535e-09 4.417864228792e-09 -7.203707191359e-03
4.193324403164e-09 2.391081192801e-09 -7.203693920763e-03
2.299964459533e-09 2.366991054954e-09 -7.203680160410e-03
-1.063328434515e-10 2.169172612187e-09 -7.203674157613e-03
-2.512630461626e-09 2.366921983017e-09 -7.203679955354e-03
-4.405990764021e-09 2.390943241598e-09 -7.203693510650e-03
3.848370834783e-09 -3.927152288851e-11 -7.203688024155e-03
2.102215084179e-09 -3.930629997250e-11 -7.203674222893e-03
-1.062984399984e-10 -3.934101227183e-11 -7.203668037718e-03
-2.314812242583e-09 -3.937555397782e-11 -7.203674017837e-03
-4.060968286183e-09 -3.941003546012e-11 -7.203687614042e-03
4.193393755393e-09 -2.469624359002e-09 -7.203693846267e-03
2.300033785833e-09 -2.445603765930e-09 -7.203680085913e-03
-1.062635817699e-10 -2.247854733028e-09 -7.203674083117e-03
-2.512561265872e-09 -2.445673205642e-09 -7.203679880857e-03
-4.405921590811e-09 -2.469763432729e-09 -7.203693436154e-03
4.351045201679e-09 -4.496545218166e-09 -7.203707452477e-03
2.324124435395e-09 -4.338963935004e-09 -7.203693706490e-03
-1.062285527887e-10 -3.994010685694e-09 -7.203687744602e-03
-2.536581868648e-09 -4.339033444484e-09 -7.203693501434e-03
-4.563503036692e-09 -4.496684562001e-09 -7.203707042365e-03
SCALARS displacement_magnitude float 1
LOOKUP_TABLE default
0.000000000000e+00
0.000000000000e+00
0.000000000000e+00
0.000000000000e+00
0.000000000000e+00
0.000000000000e+00
0.000000000000e+00
0.000000000000e+00
0.000000000000e+00
0.000000000000e+00
0.000000000000e+00
0.000000000000e+00
0.000000000000e+00
0.000000000000e+00
0.000000000000e+00
0.000000000000e+00
0.000000000000e+00
0.000000000000e+00
0.000000000000e+00
0.000000000000e+00
0.000000000000e+00
0.000000000000e+00
0.000000000000e+00
0.000000000000e+00
0.000000000000e+00
0.000000000000e+00
0.000000000000e+00
0.000000000000e+00
0.000000000000e+00
0.000000000000e+00
0.000000000000e+00
0.000000000000e+00
0.000000000000e+00
0.000000000000e+00
0.000000000000e+00
0.000000000000e+00
0.000000000000e+00
0.000000000000e+00
0.000000000000e+00
0.000000000000e+00
0.000000000000e+00
0.000000000000e+00
0.000000000000e+00
0.000000000000e+00
0.000000000000e+00
0.000000000000e+00
0.000000000000e+00
0.000000000000e+00
0.000000000000e+00
0.000000000000e+00
0.000000000000e+00
0.000000000000e+00
0.000000000000e+00
0.000000000000e+00
0.000000000000e+00
0.000000000000e+00
0.000000000000e+00
0.000000000000e+00
0.000000000000e+00
0.000000000000e+00
0.000000000000e+00
0.000000000000e+00
0.000000000000e+00
0.000000000000e+00
0.000000000000e+00
0.000000000000e+00
0.000000000000e+00
0.000000000000e+00
0.000000000000e+00
0.000000000000e+00
0.000000000000e+00
0.000000000000e+00
0.000000000000e+00
0.000000000000e+00
0.000000000000e+00
0.000000000000e+00
0.000000000000e+00
0.000000000000e+00
0.000000000000e+00
0.000000000000e+00
0.000000000000e+00
0.000000000000e+00
0.000000000000e+00
0.000000000000e+00
0.000000000000e+00
0.000000000000e+00
0.000000000000e+00
0.000000000000e+00
0.000000000000e+00
0.000000000000e+00
0.000000000000e+00
0.000000000000e+00
0.000000000000e+00
0.000000000000e+00
0.000000000000e+00
0.000000000000e+00
0.000000000000e+00
0.000000000000e+00
0.000000000000e+00
0.000000000000e+00
0.000000000000e+00
0.000000000000e+00
0.000000000000e+00
0.000000000000e+00
0.000000000000e+00
0.000000000000e+00
0.000000000000e+00
0.000000000000e+00
0.000000000000e+00
0.000000000000e+00
0.000000000000e+00
0.000000000000e+00
0.000000000000e+00
0.000000000000e+00
0.000000000000e+00
0.000000000000e+00
0.000000000000e+00
0.000000000000e+00
0.000000000000e+00
0.000000000000e+00
0.000000000000e+00
0.000000000000e+00
0.000000000000e+00
0.000000000000e+00
0.000000000000e+00
7.203733363278e-03
7.203722917434e-03
7.203718459536e-03
7.203722712379e-03
7.203732953168e-03
7.203722982714e-03
7.203713185310e-03
7.203709093730e-03
7.203712980255e-03
7.203722572603e-03
7.203718590095e-03
7.203709159009e-03
7.203705171746e-03
7.203708953954e-03
7.203718179984e-03
7.203722908218e-03
7.203713110814e-03
7.203709019233e-03
7.203712905759e-03
7.203722498107e-03
7.203733214286e-03
7.203722768441e-03
7.203718310543e-03
7.203722563387e-03
7.203732804176e-03
7.203726788852e-03
7.203715207827e-03
7.203709836851e-03
7.203715002773e-03
7.203726378741e-03
7.203715273107e-03
7.203704040899e-03
7.203698819376e-03
7.203703835844e-03
7.203714862996e-03
7.203709967410e-03
7.203698884655e-03
7.203693599225e-03
7.203698679600e-03
7.203709557299e-03
7.203715198611e-03
7.203703966403e-03
7.203698744879e-03
7.203703761348e-03
7.203714788500e-03
7.203726639859e-03
7.203715058834e-03
7.203709687858e-03
7.203714853780e-03
7.203726229749e-03
7.203717856849e-03
7.203705253243e-03
7.203699551524e-03
7.203705048188e-03
7.203717446738e-03
7.203705318523e-03
7.203692866110e-03
7.203687213601e-03
7.203692661055e-03
7.203704908411e-03
7.203699682083e-03
7.203687278881e-03
7.203681485356e-03
7.203687073825e-03
7.203699271971e-03
7.203705244027e-03
7.203692791614e-03
7.203687139105e-03
7.203692586559e-03
7.203704833915e-03
7.203717707856e-03
7.203705104250e-03
7.203699402531e-03
7.203704899195e-03
7.203717297745e-03
7.203710750568e-03
7.203697327190e-03
7.203691479591e-03
7.203697122135e-03
7.203710340456e-03
7.203697392471e-03
7.203684008362e-03
7.203678153340e-03
7.203683803306e-03
7.203696982358e-03
7.203691610150e-03
7.203678218620e-03
7.203672187835e-03
7.203678013564e-03
7.203691200038e-03
7.203697317974e-03
7.203683933865e-03
7.203678078843e-03
7.203683728810e-03
7.203696907862e-03
7.203710601575e-03
7.203697178197e-03
7.203691330598e-03
7.203696973142e-03
7.203710191463e-03
7.203707601473e-03
7.203693855485e-03
7.203687893597e-03
7.203693650429e-03
7.203707191361e-03
7.203693920765e-03
7.203680160411e-03
7.203674157613e-03
7.203679955355e-03
7.203693510652e-03
7.203688024156e-03
7.203674222893e-03
7.203668037718e-03
7.203674017837e-03
7.203687614043e-03
7.203693846268e-03
7.203680085914e-03
7.203674083117e-03
7.203679880858e-03
7.203693436156e-03
7.203707452480e-03
7.203693706491e-03
7.203687744603e-03
7.203693501436e-03
7.203707042368e-03
CELL_DATA 128
SCALARS displacement_magnitude float 1
LOOKUP_TABLE default
0.000000000000e+00
0.000000000000e+00
0.000000000000e+00
0.000000000000e+00
0.000000000000e+00
0.000000000000e+00
0.000000000000e+00
0.000000000000e+00
0.000000000000e+00
0.000000000000e+00
0.000000000000e+00
0.000000000000e+00
0.000000000000e+00
0.000000000000e+00
0.000000000000e+00
0.000000000000e+00
0.000000000000e+00
0.000000000000e+00
0.000000000000e+00
0.000000000000e+00
0.000000000000e+00
0.000000000000e+00
0.000000000000e+00
0.000000000000e+00
0.000000000000e+00
0.000000000000e+00
0.000000000000e+00
0.000000000000e+00
0.000000000000e+00
0.000000000000e+00
0.000000000000e+00
0.000000000000e+00
0.000000000000e+00
0.000000000000e+00
0.000000000000e+00
0.000000000000e+00
0.000000000000e+00
0.000000000000e+00
0.000000000000e+00
0.000000000000e+00
0.000000000000e+00
0.000000000000e+00
0.000000000000e+00
0.000000000000e+00
0.000000000000e+00
0.000000000000e+00
0.000000000000e+00
0.000000000000e+00
0.000000000000e+00
0.000000000000e+00
0.000000000000e+00
0.000000000000e+00
0.000000000000e+00
0.000000000000e+00
0.000000000000e+00
0.000000000000e+00
0.000000000000e+00
0.000000000000e+00
0.000000000000e+00
0.000000000000e+00
0.000000000000e+00
0.000000000000e+00
0.000000000000e+00
0.000000000000e+00
7.203719219928e-03
7.203711445120e-03
7.203711342593e-03
7.203718912345e-03
7.203711510400e-03
7.203703994244e-03
7.203703891716e-03
7.203711202817e-03
7.203711473152e-03
7.203703956996e-03
7.203703854468e-03
7.203711165569e-03
7.203719108183e-03
7.203711333376e-03
7.203711230848e-03
7.203718800601e-03
7.203710325676e-03
7.203701598679e-03
7.203701496151e-03
7.203710018093e-03
7.203701663959e-03
7.203693023513e-03
7.203692920985e-03
7.203701356375e-03
7.203701626710e-03
7.203692986265e-03
7.203692883737e-03
7.203701319127e-03
7.203710213932e-03
7.203701486934e-03
7.203701384407e-03
7.203709906349e-03
7.203701346664e-03
7.203691981620e-03
7.203691879093e-03
7.203701039081e-03
7.203692046900e-03
7.203682676513e-03
7.203682573985e-03
7.203691739316e-03
7.203692009652e-03
7.203682639265e-03
7.203682536737e-03
7.203691702068e-03
7.203701234920e-03
7.203691869875e-03
7.203691767348e-03
7.203700927336e-03
7.203695627090e-03
7.203685879449e-03
7.203685776921e-03
7.203695319507e-03
7.203685944728e-03
7.203676143349e-03
7.203676040821e-03
7.203685637144e-03
7.203685907480e-03
7.203676106101e-03
7.203676003573e-03
7.203685599896e-03
7.203695515346e-03
7.203685767704e-03
7.203685665176e-03
7.203695207762e-03
SCALARS engineering_strain_norm float 1
LOOKUP_TABLE default
0.000000000000e+00
0.000000000000e+00
0.000000000000e+00
0.000000000000e+00
0.000000000000e+00
0.000000000000e+00
0.000000000000e+00
0.000000000000e+00
0.000000000000e+00
0.000000000000e+00
0.000000000000e+00
0.000000000000e+00
0.000000000000e+00
0.000000000000e+00
0.000000000000e+00
0.000000000000e+00
0.000000000000e+00
0.000000000000e+00
0.000000000000e+00
0.000000000000e+00
0.000000000000e+00
0.000000000000e+00
0.000000000000e+00
0.000000000000e+00
0.000000000000e+00
0.000000000000e+00
0.000000000000e+00
0.000000000000e+00
0.000000000000e+00
0.000000000000e+00
0.000000000000e+00
0.000000000000e+00
0.000000000000e+00
0.000000000000e+00
0.000000000000e+00
0.000000000000e+00
0.000000000000e+00
0.000000000000e+00
0.000000000000e+00
0.000000000000e+00
0.000000000000e+00
0.000000000000e+00
0.000000000000e+00
0.000000000000e+00
0.000000000000e+00
0.000000000000e+00
0.000000000000e+00
0.000000000000e+00
0.000000000000e+00
0.000000000000e+00
0.000000000000e+00
0.000000000000e+00
0.000000000000e+00
0.000000000000e+00
0.000000000000e+00
0.000000000000e+00
0.000000000000e+00
0.000000000000e+00
0.000000000000e+00
0.000000000000e+00
0.000000000000e+00
0.000000000000e+00
0.000000000000e+00
0.000000000000e+00
1.606929073300e-07
2.090037643831e-07
2.090037674557e-07
1.606929168858e-07
2.090037612701e-07
2.538944937026e-07
2.538944978573e-07
2.090037739742e-07
2.090037624048e-07
2.538944952252e-07
2.538944993814e-07
2.090037750868e-07
1.606929108357e-07
2.090037690091e-07
2.090037720618e-07
1.606929203632e-07
1.825789797453e-07
2.094256459426e-07
2.094256511771e-07
1.825789935424e-07
2.094256427792e-07
2.366739140606e-07
2.366739196206e-07
2.094256579770e-07
2.094256446815e-07
2.366739160978e-07
2.366739216381e-07
2.094256598925e-07
1.825789848038e-07
2.094256515035e-07
2.094256567348e-07
1.825789985756e-07
1.418007299456e-07
1.591562461736e-07
1.591562511261e-07
1.418007410752e-07
1.591562438756e-07
1.768771747916e-07
1.768771798182e-07
1.591562560516e-07
1.591562457104e-07
1.768771766415e-07
1.768771816506e-07
1.591562578477e-07
1.418007340281e-07
1.591562506059e-07
1.591562555820e-07
1.418007450877e-07
6.698221137708e-08
7.509254617719e-08
7.509254961632e-08
6.698221731075e-08
7.509254510186e-08
8.309318787639e-08
8.309319131705e-08
7.509255197907e-08
7.509254634640e-08
8.309318911036e-08
8.309319255268e-08
7.509255320381e-08
6.698221352549e-08
7.509254867615e-08
7.509255212702e-08
6.698221946003e-08
SCALARS von_mises float 1
LOOKUP_TABLE default
0.000000000000e+00
0.000000000000e+00
0.000000000000e+00
0.000000000000e+00
0.000000000000e+00
0.000000000000e+00
0.000000000000e+00
0.000000000000e+00
0.000000000000e+00
0.000000000000e+00
0.000000000000e+00
0.000000000000e+00
0.000000000000e+00
0.000000000000e+00
0.000000000000e+00
0.000000000000e+00
0.000000000000e+00
0.000000000000e+00
0.000000000000e+00
0.000000000000e+00
0.000000000000e+00
0.000000000000e+00
0.000000000000e+00
0.000000000000e+00
0.000000000000e+00
0.000000000000e+00
0.000000000000e+00
0.000000000000e+00
0.000000000000e+00
0.000000000000e+00
0.000000000000e+00
0.000000000000e+00
0.000000000000e+00
0.000000000000e+00
0.000000000000e+00
0.000000000000e+00
0.000000000000e+00
0.000000000000e+00
0.000000000000e+00
0.000000000000e+00
0.000000000000e+00
0.000000000000e+00
0.000000000000e+00
0.000000000000e+00
0.000000000000e+00
0.000000000000e+00
0.000000000000e+00
0.000000000000e+00
0.000000000000e+00
0.000000000000e+00
0.000000000000e+00
0.000000000000e+00
0.000000000000e+00
0.000000000000e+00
0.000000000000e+00
0.000000000000e+00
0.000000000000e+00
0.000000000000e+00
0.000000000000e+00
0.000000000000e+00
0.000000000000e+00
0.000000000000e+00
0.000000000000e+00
0.000000000000e+00
1.495648073415e-02
1.927021889516e-02
1.927021917693e-02
1.495648163798e-02
1.927021859889e-02
2.298348816044e-02
2.298348854559e-02
1.927021979690e-02
1.927021870335e-02
2.298348830139e-02
2.298348868682e-02
1.927021989908e-02
1.495648106554e-02
1.927021933106e-02
1.927021961112e-02
1.495648196714e-02
1.699728216017e-02
1.963361031419e-02
1.963361076789e-02
1.699728341934e-02
1.963361000957e-02
2.216401142021e-02
2.216401192052e-02
1.963361142284e-02
1.963361017451e-02
2.216401160363e-02
2.216401210172e-02
1.963361158915e-02
1.699728262171e-02
1.963361083113e-02
1.963361128455e-02
1.699728387878e-02
1.322197890315e-02
1.492822675395e-02
1.492822716067e-02
1.322197991282e-02
1.492822652619e-02
1.660742597354e-02
1.660742640306e-02
1.492822764905e-02
1.492822667716e-02
1.660742613197e-02
1.660742655958e-02
1.492822779646e-02
1.322197927334e-02
1.492822716238e-02
1.492822757141e-02
1.322198027683e-02
6.233755702626e-03
7.000321354747e-03
7.000321636786e-03
6.233756246644e-03
7.000321244067e-03
7.737999154162e-03
7.737999441050e-03
7.000321879127e-03
7.000321345960e-03
7.737999256944e-03
7.737999543670e-03
7.000321979184e-03
6.233755899347e-03
7.000321584837e-03
7.000321868388e-03
6.233756443715e-03
SCALARS sdf_gap float 1
LOOKUP_TABLE default
0.000000000000e+00
0.000000000000e+00
0.000000000000e+00
0.000000000000e+00
0.000000000000e+00
0.000000000000e+00
0.000000000000e+00
0.000000000000e+00
0.000000000000e+00
0.000000000000e+00
0.000000000000e+00
0.000000000000e+00
0.000000000000e+00
0.000000000000e+00
0.000000000000e+00
0.000000000000e+00
0.000000000000e+00
0.000000000000e+00
0.000000000000e+00
0.000000000000e+00
0.000000000000e+00
0.000000000000e+00
0.000000000000e+00
0.000000000000e+00
0.000000000000e+00
0.000000000000e+00
0.000000000000e+00
0.000000000000e+00
0.000000000000e+00
0.000000000000e+00
0.000000000000e+00
0.000000000000e+00
0.000000000000e+00
0.000000000000e+00
0.000000000000e+00
0.000000000000e+00
0.000000000000e+00
0.000000000000e+00
0.000000000000e+00
0.000000000000e+00
0.000000000000e+00
0.000000000000e+00
0.000000000000e+00
0.000000000000e+00
0.000000000000e+00
0.000000000000e+00
0.000000000000e+00
0.000000000000e+00
0.000000000000e+00
0.000000000000e+00
0.000000000000e+00
0.000000000000e+00
0.000000000000e+00
0.000000000000e+00
0.000000000000e+00
0.000000000000e+00
0.000000000000e+00
0.000000000000e+00
0.000000000000e+00
0.000000000000e+00
0.000000000000e+00
0.000000000000e+00
0.000000000000e+00
0.000000000000e+00
7.796276887902e-03
7.796284086051e-03
7.796284188578e-03
7.796277195484e-03
7.796284020772e-03
7.796290847578e-03
7.796290950105e-03
7.796284328354e-03
7.796284058020e-03
7.796290884826e-03
7.796290987353e-03
7.796284365602e-03
7.796276999647e-03
7.796284197795e-03
7.796284300322e-03
7.796277307228e-03
0.000000000000e+00
0.000000000000e+00
0.000000000000e+00
0.000000000000e+00
0.000000000000e+00
0.000000000000e+00
0.000000000000e+00
0.000000000000e+00
0.000000000000e+00
0.000000000000e+00
0.000000000000e+00
0.000000000000e+00
0.000000000000e+00
0.000000000000e+00
0.000000000000e+00
0.000000000000e+00
0.000000000000e+00
0.000000000000e+00
0.000000000000e+00
0.000000000000e+00
0.000000000000e+00
0.000000000000e+00
0.000000000000e+00
0.000000000000e+00
0.000000000000e+00
0.000000000000e+00
0.000000000000e+00
0.000000000000e+00
0.000000000000e+00
0.000000000000e+00
0.000000000000e+00
0.000000000000e+00
0.000000000000e+00
0.000000000000e+00
0.000000000000e+00
0.000000000000e+00
0.000000000000e+00
0.000000000000e+00
0.000000000000e+00
0.000000000000e+00
0.000000000000e+00
0.000000000000e+00
0.000000000000e+00
0.000000000000e+00
0.000000000000e+00
0.000000000000e+00
0.000000000000e+00
0.000000000000e+00
SCALARS contact_pressure float 1
LOOKUP_TABLE default
0.000000000000e+00
0.000000000000e+00
0.000000000000e+00
0.000000000000e+00
0.000000000000e+00
0.000000000000e+00
0.000000000000e+00
0.000000000000e+00
0.000000000000e+00
0.000000000000e+00
0.000000000000e+00
0.000000000000e+00
0.000000000000e+00
0.000000000000e+00
0.000000000000e+00
0.000000000000e+00
0.000000000000e+00
0.000000000000e+00
0.000000000000e+00
0.000000000000e+00
0.000000000000e+00
0.000000000000e+00
0.000000000000e+00
0.000000000000e+00
0.000000000000e+00
0.000000000000e+00
0.000000000000e+00
0.000000000000e+00
0.000000000000e+00
0.000000000000e+00
0.000000000000e+00
0.000000000000e+00
0.000000000000e+00
0.000000000000e+00
0.000000000000e+00
0.000000000000e+00
0.000000000000e+00
0.000000000000e+00
0.000000000000e+00
0.000000000000e+00
0.000000000000e+00
0.000000000000e+00
0.000000000000e+00
0.000000000000e+00
0.000000000000e+00
0.000000000000e+00
0.000000000000e+00
0.000000000000e+00
0.000000000000e+00
0.000000000000e+00
0.000000000000e+00
0.000000000000e+00
0.000000000000e+00
0.000000000000e+00
0.000000000000e+00
0.000000000000e+00
0.000000000000e+00
0.000000000000e+00
0.000000000000e+00
0.000000000000e+00
0.000000000000e+00
0.000000000000e+00
0.000000000000e+00
0.000000000000e+00
0.000000000000e+00
0.000000000000e+00
0.000000000000e+00
0.000000000000e+00
0.000000000000e+00
0.000000000000e+00
0.000000000000e+00
0.000000000000e+00
0.000000000000e+00
0.000000000000e+00
0.000000000000e+00
0.000000000000e+00
0.000000000000e+00
0.000000000000e+00
0.000000000000e+00
0.000000000000e+00
0.000000000000e+00
0.000000000000e+00
0.000000000000e+00
0.000000000000e+00
0.000000000000e+00
0.000000000000e+00
0.000000000000e+00
0.000000000000e+00
0.000000000000e+00
0.000000000000e+00
0.000000000000e+00
0.000000000000e+00
0.000000000000e+00
0.000000000000e+00
0.000000000000e+00
0.000000000000e+00
0.000000000000e+00
0.000000000000e+00
0.000000000000e+00
0.000000000000e+00
0.000000000000e+00
0.000000000000e+00
0.000000000000e+00
0.000000000000e+00
0.000000000000e+00
0.000000000000e+00
0.000000000000e+00
0.000000000000e+00
0.000000000000e+00
0.000000000000e+00
0.000000000000e+00
0.000000000000e+00
0.000000000000e+00
0.000000000000e+00
0.000000000000e+00
0.000000000000e+00
0.000000000000e+00
0.000000000000e+00
0.000000000000e+00
0.000000000000e+00
0.000000000000e+00
0.000000000000e+00
0.000000000000e+00
0.000000000000e+00
0.000000000000e+00
0.000000000000e+00
0.000000000000e+00
0.000000000000e+00
SCALARS active_contact float 1
LOOKUP_TABLE default
0.000000000000e+00
0.000000000000e+00
0.000000000000e+00
0.000000000000e+00
0.000000000000e+00
0.000000000000e+00
0.000000000000e+00
0.000000000000e+00
0.000000000000e+00
0.000000000000e+00
0.000000000000e+00
0.000000000000e+00
0.000000000000e+00
0.000000000000e+00
0.000000000000e+00
0.000000000000e+00
0.000000000000e+00
0.000000000000e+00
0.000000000000e+00
0.000000000000e+00
0.000000000000e+00
0.000000000000e+00
0.000000000000e+00
0.000000000000e+00
0.000000000000e+00
0.000000000000e+00
0.000000000000e+00
0.000000000000e+00
0.000000000000e+00
0.000000000000e+00
0.000000000000e+00
0.000000000000e+00
0.000000000000e+00
0.000000000000e+00
0.000000000000e+00
0.000000000000e+00
0.000000000000e+00
0.000000000000e+00
0.000000000000e+00
0.000000000000e+00
0.000000000000e+00
0.000000000000e+00
0.000000000000e+00
0.000000000000e+00
0.000000000000e+00
0.000000000000e+00
0.000000000000e+00
0.000000000000e+00
0.000000000000e+00
0.000000000000e+00
0.000000000000e+00
0.000000000000e+00
0.000000000000e+00
0.000000000000e+00
0.000000000000e+00
0.000000000000e+00
0.000000000000e+00
0.000000000000e+00
0.000000000000e+00
0.000000000000e+00
0.000000000000e+00
0.000000000000e+00
0.000000000000e+00
0.000000000000e+00
0.000000000000e+00
0.000000000000e+00
0.000000000000e+00
0.000000000000e+00
0.000000000000e+00
0.000000000000e+00
0.000000000000e+00
0.000000000000e+00
0.000000000000e+00
0.000000000000e+00
0.000000000000e+00
0.000000000000e+00
0.000000000000e+00
0.000000000000e+00
0.000000000000e+00
0.000000000000e+00
0.000000000000e+00
0.000000000000e+00
0.000000000000e+00
0.000000000000e+00
0.000000000000e+00
0.000000000000e+00
0.000000000000e+00
0.000000000000e+00
0.000000000000e+00
0.000000000000e+00
0.000000000000e+00
0.000000000000e+00
0.000000000000e+00
0.000000000000e+00
0.000000000000e+00
0.000000000000e+00
0.000000000000e+00
0.000000000000e+00
0.000000000000e+00
0.000000000000e+00
0.000000000000e+00
0.000000000000e+00
0.000000000000e+00
0.000000000000e+00
0.000000000000e+00
0.000000000000e+00
0.000000000000e+00
0.000000000000e+00
0.000000000000e+00
0.000000000000e+00
0.000000000000e+00
0.000000000000e+00
0.000000000000e+00
0.000000000000e+00
0.000000000000e+00
0.000000000000e+00
0.000000000000e+00
0.000000000000e+00
0.000000000000e+00
0.000000000000e+00
0.000000000000e+00
0.000000000000e+00
0.000000000000e+00
0.000000000000e+00
0.000000000000e+00
0.000000000000e+00
0.000000000000e+00
0.000000000000e+00
