# vtk DataFile Version 3.0
SFC long-time C3D8 dynamic frame 58 t=1.160000000000e+00
ASCII
DATASET UNSTRUCTURED_GRID
POINTS 250 float
-2.500000000000e-01 -2.500000000000e-01 0.000000000000e+00
-1.250000000000e-01 -2.500000000000e-01 0.000000000000e+00
0.000000000000e+00 -2.500000000000e-01 0.000000000000e+00
1.250000000000e-01 -2.500000000000e-01 0.000000000000e+00
2.500000000000e-01 -2.500000000000e-01 0.000000000000e+00
-2.500000000000e-01 -1.250000000000e-01 0.000000000000e+00
-1.250000000000e-01 -1.250000000000e-01 0.000000000000e+00
0.000000000000e+00 -1.250000000000e-01 0.000000000000e+00
1.250000000000e-01 -1.250000000000e-01 0.000000000000e+00
2.500000000000e-01 -1.250000000000e-01 0.000000000000e+00
-2.500000000000e-01 0.000000000000e+00 0.000000000000e+00
-1.250000000000e-01 0.000000000000e+00 0.000000000000e+00
0.000000000000e+00 0.000000000000e+00 0.000000000000e+00
1.250000000000e-01 0.000000000000e+00 0.000000000000e+00
2.500000000000e-01 0.000000000000e+00 0.000000000000e+00
-2.500000000000e-01 1.250000000000e-01 0.000000000000e+00
-1.250000000000e-01 1.250000000000e-01 0.000000000000e+00
0.000000000000e+00 1.250000000000e-01 0.000000000000e+00
1.250000000000e-01 1.250000000000e-01 0.000000000000e+00
2.500000000000e-01 1.250000000000e-01 0.000000000000e+00
-2.500000000000e-01 2.500000000000e-01 0.000000000000e+00
-1.250000000000e-01 2.500000000000e-01 0.000000000000e+00
0.000000000000e+00 2.500000000000e-01 0.000000000000e+00
1.250000000000e-01 2.500000000000e-01 0.000000000000e+00
2.500000000000e-01 2.500000000000e-01 0.000000000000e+00
-2.500000000000e-01 -2.500000000000e-01 6.000000000000e-02
-1.250000000000e-01 -2.500000000000e-01 6.000000000000e-02
0.000000000000e+00 -2.500000000000e-01 6.000000000000e-02
1.250000000000e-01 -2.500000000000e-01 6.000000000000e-02
2.500000000000e-01 -2.500000000000e-01 6.000000000000e-02
-2.500000000000e-01 -1.250000000000e-01 6.000000000000e-02
-1.250000000000e-01 -1.250000000000e-01 6.000000000000e-02
0.000000000000e+00 -1.250000000000e-01 6.000000000000e-02
1.250000000000e-01 -1.250000000000e-01 6.000000000000e-02
2.500000000000e-01 -1.250000000000e-01 6.000000000000e-02
-2.500000000000e-01 0.000000000000e+00 6.000000000000e-02
-1.250000000000e-01 0.000000000000e+00 6.000000000000e-02
0.000000000000e+00 0.000000000000e+00 6.000000000000e-02
1.250000000000e-01 0.000000000000e+00 6.000000000000e-02
2.500000000000e-01 0.000000000000e+00 6.000000000000e-02
-2.500000000000e-01 1.250000000000e-01 6.000000000000e-02
-1.250000000000e-01 1.250000000000e-01 6.000000000000e-02
0.000000000000e+00 1.250000000000e-01 6.000000000000e-02
1.250000000000e-01 1.250000000000e-01 6.000000000000e-02
2.500000000000e-01 1.250000000000e-01 6.000000000000e-02
-2.500000000000e-01 2.500000000000e-01 6.000000000000e-02
-1.250000000000e-01 2.500000000000e-01 6.000000000000e-02
0.000000000000e+00 2.500000000000e-01 6.000000000000e-02
1.250000000000e-01 2.500000000000e-01 6.000000000000e-02
2.500000000000e-01 2.500000000000e-01 6.000000000000e-02
-2.500000000000e-01 -2.500000000000e-01 1.200000000000e-01
-1.250000000000e-01 -2.500000000000e-01 1.200000000000e-01
0.000000000000e+00 -2.500000000000e-01 1.200000000000e-01
1.250000000000e-01 -2.500000000000e-01 1.200000000000e-01
2.500000000000e-01 -2.500000000000e-01 1.200000000000e-01
-2.500000000000e-01 -1.250000000000e-01 1.200000000000e-01
-1.250000000000e-01 -1.250000000000e-01 1.200000000000e-01
0.000000000000e+00 -1.250000000000e-01 1.200000000000e-01
1.250000000000e-01 -1.250000000000e-01 1.200000000000e-01
2.500000000000e-01 -1.250000000000e-01 1.200000000000e-01
-2.500000000000e-01 0.000000000000e+00 1.200000000000e-01
-1.250000000000e-01 0.000000000000e+00 1.200000000000e-01
0.000000000000e+00 0.000000000000e+00 1.200000000000e-01
1.250000000000e-01 0.000000000000e+00 1.200000000000e-01
2.500000000000e-01 0.000000000000e+00 1.200000000000e-01
-2.500000000000e-01 1.250000000000e-01 1.200000000000e-01
-1.250000000000e-01 1.250000000000e-01 1.200000000000e-01
0.000000000000e+00 1.250000000000e-01 1.200000000000e-01
1.250000000000e-01 1.250000000000e-01 1.200000000000e-01
2.500000000000e-01 1.250000000000e-01 1.200000000000e-01
-2.500000000000e-01 2.500000000000e-01 1.200000000000e-01
-1.250000000000e-01 2.500000000000e-01 1.200000000000e-01
0.000000000000e+00 2.500000000000e-01 1.200000000000e-01
1.250000000000e-01 2.500000000000e-01 1.200000000000e-01
2.500000000000e-01 2.500000000000e-01 1.200000000000e-01
-2.500000000000e-01 -2.500000000000e-01 1.800000000000e-01
-1.250000000000e-01 -2.500000000000e-01 1.800000000000e-01
0.000000000000e+00 -2.500000000000e-01 1.800000000000e-01
1.250000000000e-01 -2.500000000000e-01 1.800000000000e-01
2.500000000000e-01 -2.500000000000e-01 1.800000000000e-01
-2.500000000000e-01 -1.250000000000e-01 1.800000000000e-01
-1.250000000000e-01 -1.250000000000e-01 1.800000000000e-01
0.000000000000e+00 -1.250000000000e-01 1.800000000000e-01
1.250000000000e-01 -1.250000000000e-01 1.800000000000e-01
2.500000000000e-01 -1.250000000000e-01 1.800000000000e-01
-2.500000000000e-01 0.000000000000e+00 1.800000000000e-01
-1.250000000000e-01 0.000000000000e+00 1.800000000000e-01
0.000000000000e+00 0.000000000000e+00 1.800000000000e-01
1.250000000000e-01 0.000000000000e+00 1.800000000000e-01
2.500000000000e-01 0.000000000000e+00 1.800000000000e-01
-2.500000000000e-01 1.250000000000e-01 1.800000000000e-01
-1.250000000000e-01 1.250000000000e-01 1.800000000000e-01
0.000000000000e+00 1.250000000000e-01 1.800000000000e-01
1.250000000000e-01 1.250000000000e-01 1.800000000000e-01
2.500000000000e-01 1.250000000000e-01 1.800000000000e-01
-2.500000000000e-01 2.500000000000e-01 1.800000000000e-01
-1.250000000000e-01 2.500000000000e-01 1.800000000000e-01
0.000000000000e+00 2.500000000000e-01 1.800000000000e-01
1.250000000000e-01 2.500000000000e-01 1.800000000000e-01
2.500000000000e-01 2.500000000000e-01 1.800000000000e-01
-2.500000000000e-01 -2.500000000000e-01 2.400000000000e-01
-1.250000000000e-01 -2.500000000000e-01 2.400000000000e-01
0.000000000000e+00 -2.500000000000e-01 2.400000000000e-01
1.250000000000e-01 -2.500000000000e-01 2.400000000000e-01
2.500000000000e-01 -2.500000000000e-01 2.400000000000e-01
-2.500000000000e-01 -1.250000000000e-01 2.400000000000e-01
-1.250000000000e-01 -1.250000000000e-01 2.400000000000e-01
0.000000000000e+00 -1.250000000000e-01 2.400000000000e-01
1.250000000000e-01 -1.250000000000e-01 2.400000000000e-01
2.500000000000e-01 -1.250000000000e-01 2.400000000000e-01
-2.500000000000e-01 0.000000000000e+00 2.400000000000e-01
-1.250000000000e-01 0.000000000000e+00 2.400000000000e-01
0.000000000000e+00 0.000000000000e+00 2.400000000000e-01
1.250000000000e-01 0.000000000000e+00 2.400000000000e-01
2.500000000000e-01 0.000000000000e+00 2.400000000000e-01
-2.500000000000e-01 1.250000000000e-01 2.400000000000e-01
-1.250000000000e-01 1.250000000000e-01 2.400000000000e-01
0.000000000000e+00 1.250000000000e-01 2.400000000000e-01
1.250000000000e-01 1.250000000000e-01 2.400000000000e-01
2.500000000000e-01 1.250000000000e-01 2.400000000000e-01
-2.500000000000e-01 2.500000000000e-01 2.400000000000e-01
-1.250000000000e-01 2.500000000000e-01 2.400000000000e-01
0.000000000000e+00 2.500000000000e-01 2.400000000000e-01
1.250000000000e-01 2.500000000000e-01 2.400000000000e-01
2.500000000000e-01 2.500000000000e-01 2.400000000000e-01
-2.500015415482e-01 -2.500015415482e-01 2.399512274273e-01
-1.250007346739e-01 -2.500015684799e-01 2.399507524762e-01
1.481144993744e-14 -2.500016004603e-01 2.399506029684e-01
1.250007346739e-01 -2.500015684799e-01 2.399507524762e-01
2.500015415482e-01 -2.500015415482e-01 2.399512274273e-01
-2.500015684798e-01 -1.250007346739e-01 2.399507524762e-01
-1.250007380834e-01 -1.250007380834e-01 2.399502611890e-01
1.418973629541e-14 -1.250007529543e-01 2.399501028327e-01
1.250007380834e-01 -1.250007380834e-01 2.399502611890e-01
2.500015684799e-01 -1.250007346739e-01 2.399507524762e-01
-2.500016004603e-01 -1.866895435727e-14 2.399506029684e-01
-1.250007529543e-01 -1.805710807183e-14 2.399501028327e-01
1.356771287462e-14 -1.745586121543e-14 2.399499416047e-01
1.250007529543e-01 -1.684005869207e-14 2.399501028327e-01
2.500016004603e-01 -1.622713280331e-14 2.399506029684e-01
-2.500015684798e-01 1.250007346739e-01 2.399507524762e-01
-1.250007380834e-01 1.250007380834e-01 2.399502611890e-01
1.295291372094e-14 1.250007529543e-01 2.399501028327e-01
1.250007380834e-01 1.250007380834e-01 2.399502611890e-01
2.500015684799e-01 1.250007346739e-01 2.399507524762e-01
-2.500015415482e-01 2.500015415482e-01 2.399512274273e-01
-1.250007346739e-01 2.500015684798e-01 2.399507524762e-01
1.234404627783e-14 2.500016004603e-01 2.399506029684e-01
1.250007346739e-01 2.500015684798e-01 2.399507524762e-01
2.500015415482e-01 2.500015415482e-01 2.399512274273e-01
-2.500012166120e-01 -2.500012166120e-01 3.049498442665e-01
-1.250005594250e-01 -2.500012384737e-01 3.049493627573e-01
1.482000229079e-14 -2.500012665588e-01 3.049492247939e-01
1.250005594250e-01 -2.500012384737e-01 3.049493627573e-01
2.500012166120e-01 -2.500012166120e-01 3.049498442665e-01
-2.500012384737e-01 -1.250005594250e-01 3.049493627573e-01
-1.250005593747e-01 -1.250005593747e-01 3.049488697814e-01
1.420165019035e-14 -1.250005709394e-01 3.049487266046e-01
1.250005593747e-01 -1.250005593747e-01 3.049488697814e-01
2.500012384737e-01 -1.250005594250e-01 3.049493627573e-01
-2.500012665587e-01 -1.866146741984e-14 3.049492247939e-01
-1.250005709394e-01 -1.804724859130e-14 3.049487266046e-01
1.358296859320e-14 -1.743636102459e-14 3.049485825232e-01
1.250005709394e-01 -1.682493331257e-14 3.049487266046e-01
2.500012665588e-01 -1.621106031293e-14 3.049492247939e-01
-2.500012384737e-01 1.250005594250e-01 3.049493627573e-01
-1.250005593747e-01 1.250005593747e-01 3.049488697814e-01
1.296775316582e-14 1.250005709394e-01 3.049487266046e-01
1.250005593747e-01 1.250005593747e-01 3.049488697814e-01
2.500012384737e-01 1.250005594250e-01 3.049493627573e-01
-2.500012166120e-01 2.500012166120e-01 3.049498442665e-01
-1.250005594250e-01 2.500012384737e-01 3.049493627573e-01
1.236423568995e-14 2.500012665587e-01 3.049492247939e-01
1.250005594250e-01 2.500012384737e-01 3.049493627573e-01
2.500012166120e-01 2.500012166120e-01 3.049498442665e-01
-2.500008176043e-01 -2.500008176043e-01 3.699488209522e-01
-1.250003746023e-01 -2.500008287058e-01 3.699483410659e-01
1.483092841872e-14 -2.500008492246e-01 3.699482155153e-01
1.250003746023e-01 -2.500008287058e-01 3.699483410659e-01
2.500008176043e-01 -2.500008176043e-01 3.699488209522e-01
-2.500008287057e-01 -1.250003746023e-01 3.699483410659e-01
-1.250003744281e-01 -1.250003744282e-01 3.699478533359e-01
1.421282103932e-14 -1.250003825809e-01 3.699477254566e-01
1.250003744281e-01 -1.250003744282e-01 3.699478533359e-01
2.500008287058e-01 -1.250003746023e-01 3.699483410659e-01
-2.500008492245e-01 -1.865356459792e-14 3.699482155153e-01
-1.250003825808e-01 -1.803870455974e-14 3.699477254566e-01
1.359937651025e-14 -1.742390893972e-14 3.699475989644e-01
1.250003825809e-01 -1.681113946368e-14 3.699477254566e-01
2.500008492246e-01 -1.619865948701e-14 3.699482155153e-01
-2.500008287057e-01 1.250003746023e-01 3.699483410659e-01
-1.250003744281e-01 1.250003744281e-01 3.699478533359e-01
1.298456034912e-14 1.250003825808e-01 3.699477254566e-01
1.250003744281e-01 1.250003744281e-01 3.699478533359e-01
2.500008287058e-01 1.250003746023e-01 3.699483410659e-01
-2.500008176043e-01 2.500008176043e-01 3.699488209522e-01
-1.250003746023e-01 2.500008287057e-01 3.699483410659e-01
1.237733347737e-14 2.500008492245e-01 3.699482155153e-01
1.250003746023e-01 2.500008287057e-01 3.699483410659e-01
2.500008176043e-01 2.500008176043e-01 3.699488209522e-01
-2.500004238854e-01 -2.500004238854e-01 4.349481818009e-01
-1.250001973051e-01 -2.500004261165e-01 4.349477201981e-01
1.484294131468e-14 -2.500004394808e-01 4.349475944312e-01
1.250001973051e-01 -2.500004261165e-01 4.349477201981e-01
2.500004238854e-01 -2.500004238854e-01 4.349481818009e-01
-2.500004261165e-01 -1.250001973051e-01 4.349477201981e-01
-1.250001972546e-01 -1.250001972546e-01 4.349472545072e-01
1.422428716655e-14 -1.250002027419e-01 4.349471278428e-01
1.250001972546e-01 -1.250001972546e-01 4.349472545072e-01
2.500004261165e-01 -1.250001973051e-01 4.349477201981e-01
-2.500004394808e-01 -1.864280686271e-14 4.349475944312e-01
-1.250002027419e-01 -1.803429715544e-14 4.349471278428e-01
1.361521012923e-14 -1.741268960905e-14 4.349470031945e-01
1.250002027419e-01 -1.679744465463e-14 4.349471278428e-01
2.500004394808e-01 -1.618322378861e-14 4.349475944312e-01
-2.500004261165e-01 1.250001973051e-01 4.349477201981e-01
-1.250001972546e-01 1.250001972546e-01 4.349472545072e-01
1.300610984747e-14 1.250002027419e-01 4.349471278428e-01
1.250001972546e-01 1.250001972546e-01 4.349472545072e-01
2.500004261165e-01 1.250001973051e-01 4.349477201981e-01
-2.500004238854e-01 2.500004238854e-01 4.349481818009e-01
-1.250001973051e-01 2.500004261165e-01 4.349477201981e-01
1.239288289596e-14 2.500004394808e-01 4.349475944312e-01
1.250001973051e-01 2.500004261165e-01 4.349477201981e-01
2.500004238854e-01 2.500004238854e-01 4.349481818009e-01
-2.500001131625e-01 -2.500001131626e-01 4.999479414595e-01
-1.250000378711e-01 -2.500001150861e-01 4.999474951191e-01
1.485380674556e-14 -2.500001268784e-01 4.999473682312e-01
1.250000378711e-01 -2.500001150861e-01 4.999474951191e-01
2.500001131626e-01 -2.500001131626e-01 4.999479414595e-01
-2.500001150860e-01 -1.250000378711e-01 4.999474951191e-01
-1.250000374312e-01 -1.250000374313e-01 4.999470471173e-01
1.424016108145e-14 -1.250000423626e-01 4.999469201561e-01
1.250000374313e-01 -1.250000374313e-01 4.999470471173e-01
2.500001150861e-01 -1.250000378711e-01 4.999474951191e-01
-2.500001268784e-01 -1.863540871043e-14 4.999473682312e-01
-1.250000423625e-01 -1.802025029736e-14 4.999469201561e-01
1.363090957166e-14 -1.739844423045e-14 4.999467953911e-01
1.250000423626e-01 -1.677636784472e-14 4.999469201561e-01
2.500001268784e-01 -1.616190628869e-14 4.999473682312e-01
-2.500001150860e-01 1.250000378711e-01 4.999474951191e-01
-1.250000374312e-01 1.250000374312e-01 4.999470471173e-01
1.302813891743e-14 1.250000423625e-01 4.999469201561e-01
1.250000374313e-01 1.250000374312e-01 4.999470471173e-01
2.500001150861e-01 1.250000378711e-01 4.999474951191e-01
-2.500001131625e-01 2.500001131625e-01 4.999479414595e-01
-1.250000378711e-01 2.500001150860e-01 4.999474951191e-01
1.241414792145e-14 2.500001268784e-01 4.999473682312e-01
1.250000378711e-01 2.500001150860e-01 4.999474951191e-01
2.500001131626e-01 2.500001131625e-01 4.999479414595e-01
CELLS 128 1152
8 0 1 6 5 25 26 31 30
8 1 2 7 6 26 27 32 31
8 2 3 8 7 27 28 33 32
8 3 4 9 8 28 29 34 33
8 5 6 11 10 30 31 36 35
8 6 7 12 11 31 32 37 36
8 7 8 13 12 32 33 38 37
8 8 9 14 13 33 34 39 38
8 10 11 16 15 35 36 41 40
8 11 12 17 16 36 37 42 41
8 12 13 18 17 37 38 43 42
8 13 14 19 18 38 39 44 43
8 15 16 21 20 40 41 46 45
8 16 17 22 21 41 42 47 46
8 17 18 23 22 42 43 48 47
8 18 19 24 23 43 44 49 48
8 25 26 31 30 50 51 56 55
8 26 27 32 31 51 52 57 56
8 27 28 33 32 52 53 58 57
8 28 29 34 33 53 54 59 58
8 30 31 36 35 55 56 61 60
8 31 32 37 36 56 57 62 61
8 32 33 38 37 57 58 63 62
8 33 34 39 38 58 59 64 63
8 35 36 41 40 60 61 66 65
8 36 37 42 41 61 62 67 66
8 37 38 43 42 62 63 68 67
8 38 39 44 43 63 64 69 68
8 40 41 46 45 65 66 71 70
8 41 42 47 46 66 67 72 71
8 42 43 48 47 67 68 73 72
8 43 44 49 48 68 69 74 73
8 50 51 56 55 75 76 81 80
8 51 52 57 56 76 77 82 81
8 52 53 58 57 77 78 83 82
8 53 54 59 58 78 79 84 83
8 55 56 61 60 80 81 86 85
8 56 57 62 61 81 82 87 86
8 57 58 63 62 82 83 88 87
8 58 59 64 63 83 84 89 88
8 60 61 66 65 85 86 91 90
8 61 62 67 66 86 87 92 91
8 62 63 68 67 87 88 93 92
8 63 64 69 68 88 89 94 93
8 65 66 71 70 90 91 96 95
8 66 67 72 71 91 92 97 96
8 67 68 73 72 92 93 98 97
8 68 69 74 73 93 94 99 98
8 75 76 81 80 100 101 106 105
8 76 77 82 81 101 102 107 106
8 77 78 83 82 102 103 108 107
8 78 79 84 83 103 104 109 108
8 80 81 86 85 105 106 111 110
8 81 82 87 86 106 107 112 111
8 82 83 88 87 107 108 113 112
8 83 84 89 88 108 109 114 113
8 85 86 91 90 110 111 116 115
8 86 87 92 91 111 112 117 116
8 87 88 93 92 112 113 118 117
8 88 89 94 93 113 114 119 118
8 90 91 96 95 115 116 121 120
8 91 92 97 96 116 117 122 121
8 92 93 98 97 117 118 123 122
8 93 94 99 98 118 119 124 123
8 125 126 131 130 150 151 156 155
8 126 127 132 131 151 152 157 156
8 127 128 133 132 152 153 158 157
8 128 129 134 133 153 154 159 158
8 130 131 136 135 155 156 161 160
8 131 132 137 136 156 157 162 161
8 132 133 138 137 157 158 163 162
8 133 134 139 138 158 159 164 163
8 135 136 141 140 160 161 166 165
8 136 137 142 141 161 162 167 166
8 137 138 143 142 162 163 168 167
8 138 139 144 143 163 164 169 168
8 140 141 146 145 165 166 171 170
8 141 142 147 146 166 167 172 171
8 142 143 148 147 167 168 173 172
8 143 144 149 148 168 169 174 173
8 150 151 156 155 175 176 181 180
8 151 152 157 156 176 177 182 181
8 152 153 158 157 177 178 183 182
8 153 154 159 158 178 179 184 183
8 155 156 161 160 180 181 186 185
8 156 157 162 161 181 182 187 186
8 157 158 163 162 182 183 188 187
8 158 159 164 163 183 184 189 188
8 160 161 166 165 185 186 191 190
8 161 162 167 166 186 187 192 191
8 162 163 168 167 187 188 193 192
8 163 164 169 168 188 189 194 193
8 165 166 171 170 190 191 196 195
8 166 167 172 171 191 192 197 196
8 167 168 173 172 192 193 198 197
8 168 169 174 173 193 194 199 198
8 175 176 181 180 200 201 206 205
8 176 177 182 181 201 202 207 206
8 177 178 183 182 202 203 208 207
8 178 179 184 183 203 204 209 208
8 180 181 186 185 205 206 211 210
8 181 182 187 186 206 207 212 211
8 182 183 188 187 207 208 213 212
8 183 184 189 188 208 209 214 213
8 185 186 191 190 210 211 216 215
8 186 187 192 191 211 212 217 216
8 187 188 193 192 212 213 218 217
8 188 189 194 193 213 214 219 218
8 190 191 196 195 215 216 221 220
8 191 192 197 196 216 217 222 221
8 192 193 198 197 217 218 223 222
8 193 194 199 198 218 219 224 223
8 200 201 206 205 225 226 231 230
8 201 202 207 206 226 227 232 231
8 202 203 208 207 227 228 233 232
8 203 204 209 208 228 229 234 233
8 205 206 211 210 230 231 236 235
8 206 207 212 211 231 232 237 236
8 207 208 213 212 232 233 238 237
8 208 209 214 213 233 234 239 238
8 210 211 216 215 235 236 241 240
8 211 212 217 216 236 237 242 241
8 212 213 218 217 237 238 243 242
8 213 214 219 218 238 239 244 243
8 215 216 221 220 240 241 246 245
8 216 217 222 221 241 242 247 246
8 217 218 223 222 242 243 248 247
8 218 219 224 223 243 244 249 248
CELL_TYPES 128
12
12
12
12
12
12
12
12
12
12
12
12
12
12
12
12
12
12
12
12
12
12
12
12
12
12
12
12
12
12
12
12
12
12
12
12
12
12
12
12
12
12
12
12
12
12
12
12
12
12
12
12
12
12
12
12
12
12
12
12
12
12
12
12
12
12
12
12
12
12
12
12
12
12
12
12
12
12
12
12
12
12
12
12
12
12
12
12
12
12
12
12
12
12
12
12
12
12
12
12
12
12
12
12
12
12
12
12
12
12
12
12
12
12
12
12
12
12
12
12
12
12
12
12
12
12
12
12
POINT_DATA 250
VECTORS displacement float
0.000000000000e+00 0.000000000000e+00 0.000000000000e+00
0.000000000000e+00 0.000000000000e+00 0.000000000000e+00
0.000000000000e+00 0.000000000000e+00 0.000000000000e+00
0.000000000000e+00 0.000000000000e+00 0.000000000000e+00
0.000000000000e+00 0.000000000000e+00 0.000000000000e+00
0.000000000000e+00 0.000000000000e+00 0.000000000000e+00
0.000000000000e+00 0.000000000000e+00 0.000000000000e+00
0.000000000000e+00 0.000000000000e+00 0.000000000000e+00
0.000000000000e+00 0.000000000000e+00 0.000000000000e+00
0.000000000000e+00 0.000000000000e+00 0.000000000000e+00
0.000000000000e+00 0.000000000000e+00 0.000000000000e+00
0.000000000000e+00 0.000000000000e+00 0.000000000000e+00
0.000000000000e+00 0.000000000000e+00 0.000000000000e+00
0.000000000000e+00 0.000000000000e+00 0.000000000000e+00
0.000000000000e+00 0.000000000000e+00 0.000000000000e+00
0.000000000000e+00 0.000000000000e+00 0.000000000000e+00
0.000000000000e+00 0.000000000000e+00 0.000000000000e+00
0.000000000000e+00 0.000000000000e+00 0.000000000000e+00
0.000000000000e+00 0.000000000000e+00 0.000000000000e+00
0.000000000000e+00 0.000000000000e+00 0.000000000000e+00
0.000000000000e+00 0.000000000000e+00 0.000000000000e+00
0.000000000000e+00 0.000000000000e+00 0.000000000000e+00
0.000000000000e+00 0.000000000000e+00 0.000000000000e+00
0.000000000000e+00 0.000000000000e+00 0.000000000000e+00
0.000000000000e+00 0.000000000000e+00 0.000000000000e+00
0.000000000000e+00 0.000000000000e+00 0.000000000000e+00
0.000000000000e+00 0.000000000000e+00 0.000000000000e+00
0.000000000000e+00 0.000000000000e+00 0.000000000000e+00
0.000000000000e+00 0.000000000000e+00 0.000000000000e+00
0.000000000000e+00 0.000000000000e+00 0.000000000000e+00
0.000000000000e+00 0.000000000000e+00 0.000000000000e+00
0.000000000000e+00 0.000000000000e+00 0.000000000000e+00
0.000000000000e+00 0.000000000000e+00 0.000000000000e+00
0.000000000000e+00 0.000000000000e+00 0.000000000000e+00
0.000000000000e+00 0.000000000000e+00 0.000000000000e+00
0.000000000000e+00 0.000000000000e+00 0.000000000000e+00
0.000000000000e+00 0.000000000000e+00 0.000000000000e+00
0.000000000000e+00 0.000000000000e+00 0.000000000000e+00
0.000000000000e+00 0.000000000000e+00 0.000000000000e+00
0.000000000000e+00 0.000000000000e+00 0.000000000000e+00
0.000000000000e+00 0.000000000000e+00 0.000000000000e+00
0.000000000000e+00 0.000000000000e+00 0.000000000000e+00
0.000000000000e+00 0.000000000000e+00 0.000000000000e+00
0.000000000000e+00 0.000000000000e+00 0.000000000000e+00
0.000000000000e+00 0.000000000000e+00 0.000000000000e+00
0.000000000000e+00 0.000000000000e+00 0.000000000000e+00
0.000000000000e+00 0.000000000000e+00 0.000000000000e+00
0.000000000000e+00 0.000000000000e+00 0.000000000000e+00
0.000000000000e+00 0.000000000000e+00 0.000000000000e+00
0.000000000000e+00 0.000000000000e+00 0.000000000000e+00
0.000000000000e+00 0.000000000000e+00 0.000000000000e+00
0.000000000000e+00 0.000000000000e+00 0.000000000000e+00
0.000000000000e+00 0.000000000000e+00 0.000000000000e+00
0.000000000000e+00 0.000000000000e+00 0.000000000000e+00
0.000000000000e+00 0.000000000000e+00 0.000000000000e+00
0.000000000000e+00 0.000000000000e+00 0.000000000000e+00
0.000000000000e+00 0.000000000000e+00 0.000000000000e+00
0.000000000000e+00 0.000000000000e+00 0.000000000000e+00
0.000000000000e+00 0.000000000000e+00 0.000000000000e+00
0.000000000000e+00 0.000000000000e+00 0.000000000000e+00
0.000000000000e+00 0.000000000000e+00 0.000000000000e+00
0.000000000000e+00 0.000000000000e+00 0.000000000000e+00
0.000000000000e+00 0.000000000000e+00 0.000000000000e+00
0.000000000000e+00 0.000000000000e+00 0.000000000000e+00
0.000000000000e+00 0.000000000000e+00 0.000000000000e+00
0.000000000000e+00 0.000000000000e+00 0.000000000000e+00
0.000000000000e+00 0.000000000000e+00 0.000000000000e+00
0.000000000000e+00 0.000000000000e+00 0.000000000000e+00
0.000000000000e+00 0.000000000000e+00 0.000000000000e+00
0.000000000000e+00 0.000000000000e+00 0.000000000000e+00
0.000000000000e+00 0.000000000000e+00 0.000000000000e+00
0.000000000000e+00 0.000000000000e+00 0.000000000000e+00
0.000000000000e+00 0.000000000000e+00 0.000000000000e+00
0.000000000000e+00 0.000000000000e+00 0.000000000000e+00
0.000000000000e+00 0.000000000000e+00 0.000000000000e+00
0.000000000000e+00 0.000000000000e+00 0.000000000000e+00
0.000000000000e+00 0.000000000000e+00 0.000000000000e+00
0.000000000000e+00 0.000000000000e+00 0.000000000000e+00
0.000000000000e+00 0.000000000000e+00 0.000000000000e+00
0.000000000000e+00 0.000000000000e+00 0.000000000000e+00
0.000000000000e+00 0.000000000000e+00 0.000000000000e+00
0.000000000000e+00 0.000000000000e+00 0.000000000000e+00
0.000000000000e+00 0.000000000000e+00 0.000000000000e+00
0.000000000000e+00 0.000000000000e+00 0.000000000000e+00
0.000000000000e+00 0.000000000000e+00 0.000000000000e+00
0.000000000000e+00 0.000000000000e+00 0.000000000000e+00
0.000000000000e+00 0.000000000000e+00 0.000000000000e+00
0.000000000000e+00 0.000000000000e+00 0.000000000000e+00
0.000000000000e+00 0.000000000000e+00 0.000000000000e+00
0.000000000000e+00 0.000000000000e+00 0.000000000000e+00
0.000000000000e+00 0.000000000000e+00 0.000000000000e+00
0.000000000000e+00 0.000000000000e+00 0.000000000000e+00
0.000000000000e+00 0.000000000000e+00 0.000000000000e+00
0.000000000000e+00 0.000000000000e+00 0.000000000000e+00
0.000000000000e+00 0.000000000000e+00 0.000000000000e+00
0.000000000000e+00 0.000000000000e+00 0.000000000000e+00
0.000000000000e+00 0.000000000000e+00 0.000000000000e+00
0.000000000000e+00 0.000000000000e+00 0.000000000000e+00
0.000000000000e+00 0.000000000000e+00 0.000000000000e+00
0.000000000000e+00 0.000000000000e+00 0.000000000000e+00
0.000000000000e+00 0.000000000000e+00 0.000000000000e+00
0.000000000000e+00 0.000000000000e+00 0.000000000000e+00
0.000000000000e+00 0.000000000000e+00 0.000000000000e+00
0.000000000000e+00 0.000000000000e+00 0.000000000000e+00
0.000000000000e+00 0.000000000000e+00 0.000000000000e+00
0.000000000000e+00 0.000000000000e+00 0.000000000000e+00
0.000000000000e+00 0.000000000000e+00 0.000000000000e+00
0.000000000000e+00 0.000000000000e+00 0.000000000000e+00
0.000000000000e+00 0.000000000000e+00 0.000000000000e+00
0.000000000000e+00 0.000000000000e+00 0.000000000000e+00
0.000000000000e+00 0.000000000000e+00 0.000000000000e+00
0.000000000000e+00 0.000000000000e+00 0.000000000000e+00
0.000000000000e+00 0.000000000000e+00 0.000000000000e+00
0.000000000000e+00 0.000000000000e+00 0.000000000000e+00
0.000000000000e+00 0.000000000000e+00 0.000000000000e+00
0.000000000000e+00 0.000000000000e+00 0.000000000000e+00
0.000000000000e+00 0.000000000000e+00 0.000000000000e+00
0.000000000000e+00 0.000000000000e+00 0.000000000000e+00
0.000000000000e+00 0.000000000000e+00 0.000000000000e+00
0.000000000000e+00 0.000000000000e+00 0.000000000000e+00
0.000000000000e+00 0.000000000000e+00 0.000000000000e+00
0.000000000000e+00 0.000000000000e+00 0.000000000000e+00
0.000000000000e+00 0.000000000000e+00 0.000000000000e+00
0.000000000000e+00 0.000000000000e+00 0.000000000000e+00
0.000000000000e+00 0.000000000000e+00 0.000000000000e+00
-1.541548188788e-06 -1.541548222288e-06 -1.504877257265e-02
-7.346738936784e-07 -1.568479855757e-06 -1.504924752376e-02
1.481144993744e-14 -1.600460319221e-06 -1.504939703159e-02
7.346739233075e-07 -1.568479854534e-06 -1.504924752376e-02
1.541548218430e-06 -1.541548219839e-06 -1.504877257265e-02
-1.568479823492e-06 -7.346739271712e-07 -1.504924752376e-02
-7.380833740402e-07 -7.380834062945e-07 -1.504973881102e-02
1.418973629541e-14 -7.529543097725e-07 -1.504989716729e-02
7.380834024251e-07 -7.380834050745e-07 -1.504973881102e-02
1.568479851889e-06 -7.346739247250e-07 -1.504924752376e-02
-1.600460288195e-06 -1.866895435727e-14 -1.504939703159e-02
-7.529542787496e-07 -1.805710807183e-14 -1.504989716729e-02
1.356771287462e-14 -1.745586121543e-14 -1.505005839527e-02
7.529543058905e-07 -1.684005869207e-14 -1.504989716729e-02
1.600460315345e-06 -1.622713280331e-14 -1.504939703159e-02
-1.568479824725e-06 7.346738898314e-07 -1.504924752376e-02
-7.380833752727e-07 7.380833701802e-07 -1.504973881102e-02
1.295291372094e-14 7.529542748822e-07 -1.504989716729e-02
7.380834011866e-07 7.380833713995e-07 -1.504973881102e-02
1.568479850649e-06 7.346738922681e-07 -1.504924752376e-02
-1.541548191233e-06 1.541548184942e-06 -1.504877257265e-02
-7.346738961346e-07 1.568479819647e-06 -1.504924752376e-02
1.234404627783e-14 1.600460284358e-06 -1.504939703159e-02
7.346739208309e-07 1.568479820862e-06 -1.504924752376e-02
1.541548215948e-06 1.541548187387e-06 -1.504877257265e-02
-1.216612003342e-06 -1.216612036846e-06 -1.505015573353e-02
-5.594249568555e-07 -1.238473741437e-06 -1.505063724266e-02
1.482000229079e-14 -1.266558756044e-06 -1.505077520607e-02
5.594249865007e-07 -1.238473740212e-06 -1.505063724266e-02
1.216612032999e-06 -1.216612034384e-06 -1.505015573353e-02
-1.238473709181e-06 -5.594249903482e-07 -1.505063724266e-02
-5.593746580251e-07 -5.593746902795e-07 -1.505113021864e-02
1.420165019035e-14 -5.709393870660e-07 -1.505127339540e-02
5.593746864333e-07 -5.593746890526e-07 -1.505113021864e-02
1.238473737597e-06 -5.594249878869e-07 -1.505063724266e-02
-1.266558725020e-06 -1.866146741984e-14 -1.505077520607e-02
-5.709393560438e-07 -1.804724859130e-14 -1.505127339540e-02
1.358296859320e-14 -1.743636102459e-14 -1.505141747680e-02
5.709393832143e-07 -1.682493331257e-14 -1.505127339540e-02
1.266558752198e-06 -1.621106031293e-14 -1.505077520607e-02
-1.238473710400e-06 5.594249530287e-07 -1.505063724266e-02
-5.593746592497e-07 5.593746541846e-07 -1.505113021864e-02
1.296775316582e-14 5.709393521940e-07 -1.505127339540e-02
5.593746851955e-07 5.593746554064e-07 -1.505113021864e-02
1.238473736361e-06 5.594249554653e-07 -1.505063724266e-02
-1.216612005798e-06 1.216611999525e-06 -1.505015573353e-02
-5.594249593131e-07 1.238473705347e-06 -1.505063724266e-02
1.236423568995e-14 1.266558721180e-06 -1.505077520607e-02
5.594249840363e-07 1.238473706568e-06 -1.505063724266e-02
1.216612030527e-06 1.216612001968e-06 -1.505015573353e-02
-8.176042778844e-07 -8.176043113896e-07 -1.505117904779e-02
-3.746023018809e-07 -8.287057572538e-07 -1.505165893414e-02
1.483092841872e-14 -8.492245737742e-07 -1.505178448471e-02
3.746023315474e-07 -8.287057560190e-07 -1.505165893414e-02
8.176043075577e-07 -8.176043089186e-07 -1.505117904779e-02
-8.287057249979e-07 -3.746023353772e-07 -1.505165893414e-02
-3.744281195178e-07 -3.744281517741e-07 -1.505214666407e-02
1.421282103932e-14 -3.825808653763e-07 -1.505227454337e-02
3.744281479492e-07 -3.744281505408e-07 -1.505214666407e-02
8.287057534331e-07 -3.746023329088e-07 -1.505165893414e-02
-8.492245427468e-07 -1.865356459792e-14 -1.505178448471e-02
-3.825808343547e-07 -1.803870455974e-14 -1.505227454337e-02
1.359937651025e-14 -1.742390893972e-14 -1.505240103561e-02
3.825808615540e-07 -1.681113946368e-14 -1.505227454337e-02
8.492245699527e-07 -1.619865948701e-14 -1.505178448471e-02
-8.287057262193e-07 3.746022980732e-07 -1.505165893414e-02
-3.744281207392e-07 3.744281156977e-07 -1.505214666407e-02
1.298456034912e-14 3.825808305271e-07 -1.505227454337e-02
3.744281467166e-07 3.744281169210e-07 -1.505214666407e-02
8.287057522056e-07 3.746023005177e-07 -1.505165893414e-02
-8.176042803361e-07 8.176042740845e-07 -1.505117904779e-02
-3.746023043363e-07 8.287057211787e-07 -1.505165893414e-02
1.237733347737e-14 8.492245389201e-07 -1.505178448471e-02
3.746023290919e-07 8.287057224029e-07 -1.505165893414e-02
8.176043050976e-07 8.176042765296e-07 -1.505117904779e-02
-4.238853730478e-07 -4.238854065442e-07 -1.505181819911e-02
-1.973051048328e-07 -4.261164933506e-07 -1.505227980193e-02
1.484294131468e-14 -4.394807876287e-07 -1.505240556882e-02
1.973051345195e-07 -4.261164921127e-07 -1.505227980193e-02
4.238854027333e-07 -4.238854040643e-07 -1.505181819911e-02
-4.261164610930e-07 -1.973051383273e-07 -1.505227980193e-02
-1.972546069901e-07 -1.972546392468e-07 -1.505274549280e-02
1.422428716655e-14 -2.027419409814e-07 -1.505287215717e-02
1.972546354425e-07 -1.972546380041e-07 -1.505274549280e-02
4.261164895520e-07 -1.973051358554e-07 -1.505227980193e-02
-4.394807566049e-07 -1.864280686271e-14 -1.505240556882e-02
-2.027419099587e-07 -1.803429715544e-14 -1.505287215717e-02
1.361521012923e-14 -1.741268960905e-14 -1.505299680550e-02
2.027419371888e-07 -1.679744465463e-14 -1.505287215717e-02
4.394807838374e-07 -1.618322378861e-14 -1.505240556882e-02
-4.261164623204e-07 1.973051010374e-07 -1.505227980193e-02
-1.972546082103e-07 1.972546031864e-07 -1.505274549280e-02
1.300610984747e-14 2.027419061537e-07 -1.505287215717e-02
1.972546342195e-07 1.972546044112e-07 -1.505274549280e-02
4.261164883324e-07 1.973051034927e-07 -1.505227980193e-02
-4.238853754919e-07 4.238853692502e-07 -1.505181819911e-02
-1.973051072820e-07 4.261164572922e-07 -1.505227980193e-02
1.239288289596e-14 4.394807527973e-07 -1.505240556882e-02
1.973051320743e-07 4.261164585193e-07 -1.505227980193e-02
4.238854002869e-07 4.238853717018e-07 -1.505181819911e-02
-1.131625352583e-07 -1.131625687463e-07 -1.505205854048e-02
-3.787111605853e-08 -1.150860693932e-07 -1.505250488086e-02
1.485380674556e-14 -1.268784148870e-07 -1.505263176883e-02
3.787114575887e-08 -1.150860681435e-07 -1.505250488086e-02
1.131625649497e-07 -1.131625662582e-07 -1.505205854048e-02
-1.150860371441e-07 -3.787114954866e-08 -1.505250488086e-02
-3.743124857314e-08 -3.743128082399e-08 -1.505295288266e-02
1.424016108145e-14 -4.236256895755e-08 -1.505307984391e-02
3.743127704698e-08 -3.743127958016e-08 -1.505295288266e-02
1.150860656115e-07 -3.787114706206e-08 -1.505250488086e-02
-1.268783838669e-07 -1.863540871043e-14 -1.505263176883e-02
-4.236253793779e-08 -1.802025029736e-14 -1.505307984391e-02
1.363090957166e-14 -1.739844423045e-14 -1.505320460893e-02
4.236256519742e-08 -1.677636784472e-14 -1.505307984391e-02
1.268784111301e-07 -1.616190628869e-14 -1.505263176883e-02
-1.150860383588e-07 3.787111227156e-08 -1.505250488086e-02
-3.743124979026e-08 3.743124478046e-08 -1.505295288266e-02
1.302813891743e-14 4.236253415032e-08 -1.505307984391e-02
3.743127583385e-08 3.743124601275e-08 -1.505295288266e-02
1.150860643974e-07 3.787111473133e-08 -1.505250488086e-02
-1.131625376998e-07 1.131625314653e-07 -1.505205854048e-02
-3.787111849816e-08 1.150860333398e-07 -1.505250488086e-02
1.241414792145e-14 1.268783800729e-07 -1.505263176883e-02
3.787114332536e-08 1.150860345665e-07 -1.505250488086e-02
1.131625625240e-07 1.131625339160e-07 -1.505205854048e-02
SCALARS displacement_magnitude float 1
LOOKUP_TABLE default
0.000000000000e+00
0.000000000000e+00
0.000000000000e+00
0.000000000000e+00
0.000000000000e+00
0.000000000000e+00
0.000000000000e+00
0.000000000000e+00
0.000000000000e+00
0.000000000000e+00
0.000000000000e+00
0.000000000000e+00
0.000000000000e+00
0.000000000000e+00
0.000000000000e+00
0.000000000000e+00
0.000000000000e+00
0.000000000000e+00
0.000000000000e+00
0.000000000000e+00
0.000000000000e+00
0.000000000000e+00
0.000000000000e+00
0.000000000000e+00
0.000000000000e+00
0.000000000000e+00
0.000000000000e+00
0.000000000000e+00
0.000000000000e+00
0.000000000000e+00
0.000000000000e+00
0.000000000000e+00
0.000000000000e+00
0.000000000000e+00
0.000000000000e+00
0.000000000000e+00
0.000000000000e+00
0.000000000000e+00
0.000000000000e+00
0.000000000000e+00
0.000000000000e+00
0.000000000000e+00
0.000000000000e+00
0.000000000000e+00
0.000000000000e+00
0.000000000000e+00
0.000000000000e+00
0.000000000000e+00
0.000000000000e+00
0.000000000000e+00
0.000000000000e+00
0.000000000000e+00
0.000000000000e+00
0.000000000000e+00
0.000000000000e+00
0.000000000000e+00
0.000000000000e+00
0.000000000000e+00
0.000000000000e+00
0.000000000000e+00
0.000000000000e+00
0.000000000000e+00
0.000000000000e+00
0.000000000000e+00
0.000000000000e+00
0.000000000000e+00
0.000000000000e+00
0.000000000000e+00
0.000000000000e+00
0.000000000000e+00
0.000000000000e+00
0.000000000000e+00
0.000000000000e+00
0.000000000000e+00
0.000000000000e+00
0.000000000000e+00
0.000000000000e+00
0.000000000000e+00
0.000000000000e+00
0.000000000000e+00
0.000000000000e+00
0.000000000000e+00
0.000000000000e+00
0.000000000000e+00
0.000000000000e+00
0.000000000000e+00
0.000000000000e+00
0.000000000000e+00
0.000000000000e+00
0.000000000000e+00
0.000000000000e+00
0.000000000000e+00
0.000000000000e+00
0.000000000000e+00
0.000000000000e+00
0.000000000000e+00
0.000000000000e+00
0.000000000000e+00
0.000000000000e+00
0.000000000000e+00
0.000000000000e+00
0.000000000000e+00
0.000000000000e+00
0.000000000000e+00
0.000000000000e+00
0.000000000000e+00
0.000000000000e+00
0.000000000000e+00
0.000000000000e+00
0.000000000000e+00
0.000000000000e+00
0.000000000000e+00
0.000000000000e+00
0.000000000000e+00
0.000000000000e+00
0.000000000000e+00
0.000000000000e+00
0.000000000000e+00
0.000000000000e+00
0.000000000000e+00
0.000000000000e+00
0.000000000000e+00
0.000000000000e+00
0.000000000000e+00
0.000000000000e+00
1.504877273056e-02
1.504924762342e-02
1.504939711669e-02
1.504924762342e-02
1.504877273056e-02
1.504924762342e-02
1.504973884722e-02
1.504989718612e-02
1.504973884722e-02
1.504924762342e-02
1.504939711669e-02
1.504989718612e-02
1.505005839527e-02
1.504989718612e-02
1.504939711669e-02
1.504924762342e-02
1.504973884722e-02
1.504989718612e-02
1.504973884722e-02
1.504924762342e-02
1.504877273056e-02
1.504924762342e-02
1.504939711669e-02
1.504924762342e-02
1.504877273056e-02
1.505015583188e-02
1.505063730401e-02
1.505077525936e-02
1.505063730401e-02
1.505015583188e-02
1.505063730401e-02
1.505113023943e-02
1.505127340623e-02
1.505113023943e-02
1.505063730401e-02
1.505077525936e-02
1.505127340623e-02
1.505141747680e-02
1.505127340623e-02
1.505077525936e-02
1.505063730401e-02
1.505113023943e-02
1.505127340623e-02
1.505113023943e-02
1.505063730401e-02
1.505015583188e-02
1.505063730401e-02
1.505077525936e-02
1.505063730401e-02
1.505015583188e-02
1.505117909221e-02
1.505165896161e-02
1.505178450867e-02
1.505165896161e-02
1.505117909221e-02
1.505165896161e-02
1.505214667338e-02
1.505227454823e-02
1.505214667338e-02
1.505165896161e-02
1.505178450867e-02
1.505227454823e-02
1.505240103561e-02
1.505227454823e-02
1.505178450867e-02
1.505165896161e-02
1.505214667338e-02
1.505227454823e-02
1.505214667338e-02
1.505165896161e-02
1.505117909221e-02
1.505165896161e-02
1.505178450867e-02
1.505165896161e-02
1.505117909221e-02
1.505181821105e-02
1.505227980925e-02
1.505240557524e-02
1.505227980925e-02
1.505181821105e-02
1.505227980925e-02
1.505274549538e-02
1.505287215854e-02
1.505274549538e-02
1.505227980925e-02
1.505240557524e-02
1.505287215854e-02
1.505299680550e-02
1.505287215854e-02
1.505240557524e-02
1.505227980925e-02
1.505274549538e-02
1.505287215854e-02
1.505274549538e-02
1.505227980925e-02
1.505181821105e-02
1.505227980925e-02
1.505240557524e-02
1.505227980925e-02
1.505181821105e-02
1.505205854133e-02
1.505250488135e-02
1.505263176937e-02
1.505250488135e-02
1.505205854133e-02
1.505250488135e-02
1.505295288275e-02
1.505307984396e-02
1.505295288275e-02
1.505250488135e-02
1.505263176937e-02
1.505307984396e-02
1.505320460893e-02
1.505307984396e-02
1.505263176937e-02
1.505250488135e-02
1.505295288275e-02
1.505307984396e-02
1.505295288275e-02
1.505250488135e-02
1.505205854133e-02
1.505250488135e-02
1.505263176937e-02
1.505250488135e-02
1.505205854133e-02
CELL_DATA 128
SCALARS displacement_magnitude float 1
LOOKUP_TABLE default
0.000000000000e+00
0.000000000000e+00
0.000000000000e+00
0.000000000000e+00
0.000000000000e+00
0.000000000000e+00
0.000000000000e+00
0.000000000000e+00
0.000000000000e+00
0.000000000000e+00
0.000000000000e+00
0.000000000000e+00
0.000000000000e+00
0.000000000000e+00
0.000000000000e+00
0.000000000000e+00
0.000000000000e+00
0.000000000000e+00
0.000000000000e+00
0.000000000000e+00
0.000000000000e+00
0.000000000000e+00
0.000000000000e+00
0.000000000000e+00
0.000000000000e+00
0.000000000000e+00
0.000000000000e+00
0.000000000000e+00
0.000000000000e+00
0.000000000000e+00
0.000000000000e+00
0.000000000000e+00
0.000000000000e+00
0.000000000000e+00
0.000000000000e+00
0.000000000000e+00
0.000000000000e+00
0.000000000000e+00
0.000000000000e+00
0.000000000000e+00
0.000000000000e+00
0.000000000000e+00
0.000000000000e+00
0.000000000000e+00
0.000000000000e+00
0.000000000000e+00
0.000000000000e+00
0.000000000000e+00
0.000000000000e+00
0.000000000000e+00
0.000000000000e+00
0.000000000000e+00
0.000000000000e+00
0.000000000000e+00
0.000000000000e+00
0.000000000000e+00
0.000000000000e+00
0.000000000000e+00
0.000000000000e+00
0.000000000000e+00
0.000000000000e+00
0.000000000000e+00
0.000000000000e+00
0.000000000000e+00
1.504994593800e-02
1.505026212281e-02
1.505026212281e-02
1.504994593800e-02
1.505026212281e-02
1.505058576793e-02
1.505058576793e-02
1.505026212281e-02
1.505026212281e-02
1.505058576793e-02
1.505058576793e-02
1.505026212281e-02
1.504994593800e-02
1.505026212281e-02
1.505026212281e-02
1.504994593800e-02
1.505115054602e-02
1.505146011262e-02
1.505146011262e-02
1.505115054602e-02
1.505146011262e-02
1.505177391677e-02
1.505177391677e-02
1.505146011262e-02
1.505146011262e-02
1.505177391677e-02
1.505177391677e-02
1.505146011262e-02
1.505115054602e-02
1.505146011262e-02
1.505146011262e-02
1.505115054602e-02
1.505197087672e-02
1.505227096629e-02
1.505227096629e-02
1.505197087672e-02
1.505227096629e-02
1.505257292793e-02
1.505257292793e-02
1.505227096629e-02
1.505227096629e-02
1.505257292793e-02
1.505257292793e-02
1.505227096629e-02
1.505197087672e-02
1.505227096629e-02
1.505227096629e-02
1.505197087672e-02
1.505239306396e-02
1.505268405198e-02
1.505268405198e-02
1.505239306396e-02
1.505268405198e-02
1.505297547470e-02
1.505297547470e-02
1.505268405198e-02
1.505268405198e-02
1.505297547470e-02
1.505297547470e-02
1.505268405198e-02
1.505239306396e-02
1.505268405198e-02
1.505268405198e-02
1.505239306396e-02
SCALARS engineering_strain_norm float 1
LOOKUP_TABLE default
0.000000000000e+00
0.000000000000e+00
0.000000000000e+00
0.000000000000e+00
0.000000000000e+00
0.000000000000e+00
0.000000000000e+00
0.000000000000e+00
0.000000000000e+00
0.000000000000e+00
0.000000000000e+00
0.000000000000e+00
0.000000000000e+00
0.000000000000e+00
0.000000000000e+00
0.000000000000e+00
0.000000000000e+00
0.000000000000e+00
0.000000000000e+00
0.000000000000e+00
0.000000000000e+00
0.000000000000e+00
0.000000000000e+00
0.000000000000e+00
0.000000000000e+00
0.000000000000e+00
0.000000000000e+00
0.000000000000e+00
0.000000000000e+00
0.000000000000e+00
0.000000000000e+00
0.000000000000e+00
0.000000000000e+00
0.000000000000e+00
0.000000000000e+00
0.000000000000e+00
0.000000000000e+00
0.000000000000e+00
0.000000000000e+00
0.000000000000e+00
0.000000000000e+00
0.000000000000e+00
0.000000000000e+00
0.000000000000e+00
0.000000000000e+00
0.000000000000e+00
0.000000000000e+00
0.000000000000e+00
0.000000000000e+00
0.000000000000e+00
0.000000000000e+00
0.000000000000e+00
0.000000000000e+00
0.000000000000e+00
0.000000000000e+00
0.000000000000e+00
0.000000000000e+00
0.000000000000e+00
0.000000000000e+00
0.000000000000e+00
0.000000000000e+00
0.000000000000e+00
0.000000000000e+00
0.000000000000e+00
2.295857585426e-05
2.274841547936e-05
2.274841547941e-05
2.295857585437e-05
2.274841547936e-05
2.242784046529e-05
2.242784046531e-05
2.274841547944e-05
2.274841547938e-05
2.242784046527e-05
2.242784046534e-05
2.274841547948e-05
2.295857585424e-05
2.274841547944e-05
2.274841547947e-05
2.295857585439e-05
1.695279373991e-05
1.667656246969e-05
1.667656246977e-05
1.695279373999e-05
1.667656246972e-05
1.630059377224e-05
1.630059377227e-05
1.667656246976e-05
1.667656246976e-05
1.630059377216e-05
1.630059377226e-05
1.667656246984e-05
1.695279373989e-05
1.667656246968e-05
1.667656246974e-05
1.695279374003e-05
1.031564911784e-05
1.007310753203e-05
1.007310753209e-05
1.031564911784e-05
1.007310753210e-05
9.770375658179e-06
9.770375658182e-06
1.007310753208e-05
1.007310753221e-05
9.770375658138e-06
9.770375658179e-06
1.007310753219e-05
1.031564911785e-05
1.007310753203e-05
1.007310753208e-05
1.031564911793e-05
3.858570256904e-06
3.689798158112e-06
3.689798158164e-06
3.858570256917e-06
3.689798158092e-06
3.485649415862e-06
3.485649415877e-06
3.689798158126e-06
3.689798158111e-06
3.485649415903e-06
3.485649415856e-06
3.689798158070e-06
3.858570256896e-06
3.689798158106e-06
3.689798158093e-06
3.858570256878e-06
SCALARS von_mises float 1
LOOKUP_TABLE default
0.000000000000e+00
0.000000000000e+00
0.000000000000e+00
0.000000000000e+00
0.000000000000e+00
0.000000000000e+00
0.000000000000e+00
0.000000000000e+00
0.000000000000e+00
0.000000000000e+00
0.000000000000e+00
0.000000000000e+00
0.000000000000e+00
0.000000000000e+00
0.000000000000e+00
0.000000000000e+00
0.000000000000e+00
0.000000000000e+00
0.000000000000e+00
0.000000000000e+00
0.000000000000e+00
0.000000000000e+00
0.000000000000e+00
0.000000000000e+00
0.000000000000e+00
0.000000000000e+00
0.000000000000e+00
0.000000000000e+00
0.000000000000e+00
0.000000000000e+00
0.000000000000e+00
0.000000000000e+00
0.000000000000e+00
0.000000000000e+00
0.000000000000e+00
0.000000000000e+00
0.000000000000e+00
0.000000000000e+00
0.000000000000e+00
0.000000000000e+00
0.000000000000e+00
0.000000000000e+00
0.000000000000e+00
0.000000000000e+00
0.000000000000e+00
0.000000000000e+00
0.000000000000e+00
0.000000000000e+00
0.000000000000e+00
0.000000000000e+00
0.000000000000e+00
0.000000000000e+00
0.000000000000e+00
0.000000000000e+00
0.000000000000e+00
0.000000000000e+00
0.000000000000e+00
0.000000000000e+00
0.000000000000e+00
0.000000000000e+00
0.000000000000e+00
0.000000000000e+00
0.000000000000e+00
0.000000000000e+00
2.100713386998e+00
2.072879701249e+00
2.072879701254e+00
2.100713387009e+00
2.072879701250e+00
2.031453369913e+00
2.031453369915e+00
2.072879701257e+00
2.072879701251e+00
2.031453369912e+00
2.031453369919e+00
2.072879701261e+00
2.100713386996e+00
2.072879701257e+00
2.072879701260e+00
2.100713387011e+00
1.552883314232e+00
1.520018871578e+00
1.520018871585e+00
1.552883314240e+00
1.520018871581e+00
1.474853223546e+00
1.474853223549e+00
1.520018871585e+00
1.520018871585e+00
1.474853223539e+00
1.474853223548e+00
1.520018871592e+00
1.552883314230e+00
1.520018871578e+00
1.520018871583e+00
1.552883314243e+00
9.436668828258e-01
9.180446416122e-01
9.180446416179e-01
9.436668828265e-01
9.180446416187e-01
8.857134506387e-01
8.857134506387e-01
9.180446416163e-01
9.180446416279e-01
8.857134506352e-01
8.857134506379e-01
9.180446416261e-01
9.436668828262e-01
9.180446416127e-01
9.180446416173e-01
9.436668828342e-01
3.592543060204e-01
3.417382852686e-01
3.417382852725e-01
3.592543060210e-01
3.417382852668e-01
3.202609988224e-01
3.202609988230e-01
3.417382852691e-01
3.417382852682e-01
3.202609988254e-01
3.202609988199e-01
3.417382852637e-01
3.592543060193e-01
3.417382852679e-01
3.417382852661e-01
3.592543060174e-01
SCALARS sdf_gap float 1
LOOKUP_TABLE default
0.000000000000e+00
0.000000000000e+00
0.000000000000e+00
0.000000000000e+00
0.000000000000e+00
0.000000000000e+00
0.000000000000e+00
0.000000000000e+00
0.000000000000e+00
0.000000000000e+00
0.000000000000e+00
0.000000000000e+00
0.000000000000e+00
0.000000000000e+00
0.000000000000e+00
0.000000000000e+00
0.000000000000e+00
0.000000000000e+00
0.000000000000e+00
0.000000000000e+00
0.000000000000e+00
0.000000000000e+00
0.000000000000e+00
0.000000000000e+00
0.000000000000e+00
0.000000000000e+00
0.000000000000e+00
0.000000000000e+00
0.000000000000e+00
0.000000000000e+00
0.000000000000e+00
0.000000000000e+00
0.000000000000e+00
0.000000000000e+00
0.000000000000e+00
0.000000000000e+00
0.000000000000e+00
0.000000000000e+00
0.000000000000e+00
0.000000000000e+00
0.000000000000e+00
0.000000000000e+00
0.000000000000e+00
0.000000000000e+00
0.000000000000e+00
0.000000000000e+00
0.000000000000e+00
0.000000000000e+00
0.000000000000e+00
0.000000000000e+00
0.000000000000e+00
0.000000000000e+00
0.000000000000e+00
0.000000000000e+00
0.000000000000e+00
0.000000000000e+00
0.000000000000e+00
0.000000000000e+00
0.000000000000e+00
0.000000000000e+00
0.000000000000e+00
0.000000000000e+00
0.000000000000e+00
0.000000000000e+00
-4.925160779547e-05
-4.957013341158e-05
-4.957013341159e-05
-4.925160779550e-05
-4.957013341157e-05
-4.989788521475e-05
-4.989788521477e-05
-4.957013341166e-05
-4.957013341160e-05
-4.989788521477e-05
-4.989788521481e-05
-4.957013341169e-05
-4.925160779552e-05
-4.957013341165e-05
-4.957013341166e-05
-4.925160779561e-05
0.000000000000e+00
0.000000000000e+00
0.000000000000e+00
0.000000000000e+00
0.000000000000e+00
0.000000000000e+00
0.000000000000e+00
0.000000000000e+00
0.000000000000e+00
0.000000000000e+00
0.000000000000e+00
0.000000000000e+00
0.000000000000e+00
0.000000000000e+00
0.000000000000e+00
0.000000000000e+00
0.000000000000e+00
0.000000000000e+00
0.000000000000e+00
0.000000000000e+00
0.000000000000e+00
0.000000000000e+00
0.000000000000e+00
0.000000000000e+00
0.000000000000e+00
0.000000000000e+00
0.000000000000e+00
0.000000000000e+00
0.000000000000e+00
0.000000000000e+00
0.000000000000e+00
0.000000000000e+00
0.000000000000e+00
0.000000000000e+00
0.000000000000e+00
0.000000000000e+00
0.000000000000e+00
0.000000000000e+00
0.000000000000e+00
0.000000000000e+00
0.000000000000e+00
0.000000000000e+00
0.000000000000e+00
0.000000000000e+00
0.000000000000e+00
0.000000000000e+00
0.000000000000e+00
0.000000000000e+00
SCALARS contact_pressure float 1
LOOKUP_TABLE default
0.000000000000e+00
0.000000000000e+00
0.000000000000e+00
0.000000000000e+00
0.000000000000e+00
0.000000000000e+00
0.000000000000e+00
0.000000000000e+00
0.000000000000e+00
0.000000000000e+00
0.000000000000e+00
0.000000000000e+00
0.000000000000e+00
0.000000000000e+00
0.000000000000e+00
0.000000000000e+00
0.000000000000e+00
0.000000000000e+00
0.000000000000e+00
0.000000000000e+00
0.000000000000e+00
0.000000000000e+00
0.000000000000e+00
0.000000000000e+00
0.000000000000e+00
0.000000000000e+00
0.000000000000e+00
0.000000000000e+00
0.000000000000e+00
0.000000000000e+00
0.000000000000e+00
0.000000000000e+00
0.000000000000e+00
0.000000000000e+00
0.000000000000e+00
0.000000000000e+00
0.000000000000e+00
0.000000000000e+00
0.000000000000e+00
0.000000000000e+00
0.000000000000e+00
0.000000000000e+00
0.000000000000e+00
0.000000000000e+00
0.000000000000e+00
0.000000000000e+00
0.000000000000e+00
0.000000000000e+00
0.000000000000e+00
0.000000000000e+00
0.000000000000e+00
0.000000000000e+00
0.000000000000e+00
0.000000000000e+00
0.000000000000e+00
0.000000000000e+00
0.000000000000e+00
0.000000000000e+00
0.000000000000e+00
0.000000000000e+00
0.000000000000e+00
0.000000000000e+00
0.000000000000e+00
0.000000000000e+00
2.462580389773e+00
2.478506670579e+00
2.478506670579e+00
2.462580389775e+00
2.478506670578e+00
2.494894260737e+00
2.494894260739e+00
2.478506670583e+00
2.478506670580e+00
2.494894260739e+00
2.494894260740e+00
2.478506670585e+00
2.462580389776e+00
2.478506670582e+00
2.478506670583e+00
2.462580389781e+00
0.000000000000e+00
0.000000000000e+00
0.000000000000e+00
0.000000000000e+00
0.000000000000e+00
0.000000000000e+00
0.000000000000e+00
0.000000000000e+00
0.000000000000e+00
0.000000000000e+00
0.000000000000e+00
0.000000000000e+00
0.000000000000e+00
0.000000000000e+00
0.000000000000e+00
0.000000000000e+00
0.000000000000e+00
0.000000000000e+00
0.000000000000e+00
0.000000000000e+00
0.000000000000e+00
0.000000000000e+00
0.000000000000e+00
0.000000000000e+00
0.000000000000e+00
0.000000000000e+00
0.000000000000e+00
0.000000000000e+00
0.000000000000e+00
0.000000000000e+00
0.000000000000e+00
0.000000000000e+00
0.000000000000e+00
0.000000000000e+00
0.000000000000e+00
0.000000000000e+00
0.000000000000e+00
0.000000000000e+00
0.000000000000e+00
0.000000000000e+00
0.000000000000e+00
0.000000000000e+00
0.000000000000e+00
0.000000000000e+00
0.000000000000e+00
0.000000000000e+00
0.000000000000e+00
0.000000000000e+00
SCALARS active_contact float 1
LOOKUP_TABLE default
0.000000000000e+00
0.000000000000e+00
0.000000000000e+00
0.000000000000e+00
0.000000000000e+00
0.000000000000e+00
0.000000000000e+00
0.000000000000e+00
0.000000000000e+00
0.000000000000e+00
0.000000000000e+00
0.000000000000e+00
0.000000000000e+00
0.000000000000e+00
0.000000000000e+00
0.000000000000e+00
0.000000000000e+00
0.000000000000e+00
0.000000000000e+00
0.000000000000e+00
0.000000000000e+00
0.000000000000e+00
0.000000000000e+00
0.000000000000e+00
0.000000000000e+00
0.000000000000e+00
0.000000000000e+00
0.000000000000e+00
0.000000000000e+00
0.000000000000e+00
0.000000000000e+00
0.000000000000e+00
0.000000000000e+00
0.000000000000e+00
0.000000000000e+00
0.000000000000e+00
0.000000000000e+00
0.000000000000e+00
0.000000000000e+00
0.000000000000e+00
0.000000000000e+00
0.000000000000e+00
0.000000000000e+00
0.000000000000e+00
0.000000000000e+00
0.000000000000e+00
0.000000000000e+00
0.000000000000e+00
0.000000000000e+00
0.000000000000e+00
0.000000000000e+00
0.000000000000e+00
0.000000000000e+00
0.000000000000e+00
0.000000000000e+00
0.000000000000e+00
0.000000000000e+00
0.000000000000e+00
0.000000000000e+00
0.000000000000e+00
0.000000000000e+00
0.000000000000e+00
0.000000000000e+00
0.000000000000e+00
1.000000000000e+00
1.000000000000e+00
1.000000000000e+00
1.000000000000e+00
1.000000000000e+00
1.000000000000e+00
1.000000000000e+00
1.000000000000e+00
1.000000000000e+00
1.000000000000e+00
1.000000000000e+00
1.000000000000e+00
1.000000000000e+00
1.000000000000e+00
1.000000000000e+00
1.000000000000e+00
0.000000000000e+00
0.000000000000e+00
0.000000000000e+00
0.000000000000e+00
0.000000000000e+00
0.000000000000e+00
0.000000000000e+00
0.000000000000e+00
0.000000000000e+00
0.000000000000e+00
0.000000000000e+00
0.000000000000e+00
0.000000000000e+00
0.000000000000e+00
0.000000000000e+00
0.000000000000e+00
0.000000000000e+00
0.000000000000e+00
0.000000000000e+00
0.000000000000e+00
0.000000000000e+00
0.000000000000e+00
0.000000000000e+00
0.000000000000e+00
0.000000000000e+00
0.000000000000e+00
0.000000000000e+00
0.000000000000e+00
0.000000000000e+00
0.000000000000e+00
0.000000000000e+00
0.000000000000e+00
0.000000000000e+00
0.000000000000e+00
0.000000000000e+00
0.000000000000e+00
0.000000000000e+00
0.000000000000e+00
0.000000000000e+00
0.000000000000e+00
0.000000000000e+00
0.000000000000e+00
0.000000000000e+00
0.000000000000e+00
0.000000000000e+00
0.000000000000e+00
0.000000000000e+00
0.000000000000e+00
