# vtk DataFile Version 3.0
SFC long-time C3D8 dynamic frame 22 t=4.400000000000e-01
ASCII
DATASET UNSTRUCTURED_GRID
POINTS 250 float
-2.500000000000e-01 -2.500000000000e-01 0.000000000000e+00
-1.250000000000e-01 -2.500000000000e-01 0.000000000000e+00
0.000000000000e+00 -2.500000000000e-01 0.000000000000e+00
1.250000000000e-01 -2.500000000000e-01 0.000000000000e+00
2.500000000000e-01 -2.500000000000e-01 0.000000000000e+00
-2.500000000000e-01 -1.250000000000e-01 0.000000000000e+00
-1.250000000000e-01 -1.250000000000e-01 0.000000000000e+00
0.000000000000e+00 -1.250000000000e-01 0.000000000000e+00
1.250000000000e-01 -1.250000000000e-01 0.000000000000e+00
2.500000000000e-01 -1.250000000000e-01 0.000000000000e+00
-2.500000000000e-01 0.000000000000e+00 0.000000000000e+00
-1.250000000000e-01 0.000000000000e+00 0.000000000000e+00
0.000000000000e+00 0.000000000000e+00 0.000000000000e+00
1.250000000000e-01 0.000000000000e+00 0.000000000000e+00
2.500000000000e-01 0.000000000000e+00 0.000000000000e+00
-2.500000000000e-01 1.250000000000e-01 0.000000000000e+00
-1.250000000000e-01 1.250000000000e-01 0.000000000000e+00
0.000000000000e+00 1.250000000000e-01 0.000000000000e+00
1.250000000000e-01 1.250000000000e-01 0.000000000000e+00
2.500000000000e-01 1.250000000000e-01 0.000000000000e+00
-2.500000000000e-01 2.500000000000e-01 0.000000000000e+00
-1.250000000000e-01 2.500000000000e-01 0.000000000000e+00
0.000000000000e+00 2.500000000000e-01 0.000000000000e+00
1.250000000000e-01 2.500000000000e-01 0.000000000000e+00
2.500000000000e-01 2.500000000000e-01 0.000000000000e+00
-2.500000000000e-01 -2.500000000000e-01 6.000000000000e-02
-1.250000000000e-01 -2.500000000000e-01 6.000000000000e-02
0.000000000000e+00 -2.500000000000e-01 6.000000000000e-02
1.250000000000e-01 -2.500000000000e-01 6.000000000000e-02
2.500000000000e-01 -2.500000000000e-01 6.000000000000e-02
-2.500000000000e-01 -1.250000000000e-01 6.000000000000e-02
-1.250000000000e-01 -1.250000000000e-01 6.000000000000e-02
0.000000000000e+00 -1.250000000000e-01 6.000000000000e-02
1.250000000000e-01 -1.250000000000e-01 6.000000000000e-02
2.500000000000e-01 -1.250000000000e-01 6.000000000000e-02
-2.500000000000e-01 0.000000000000e+00 6.000000000000e-02
-1.250000000000e-01 0.000000000000e+00 6.000000000000e-02
0.000000000000e+00 0.000000000000e+00 6.000000000000e-02
1.250000000000e-01 0.000000000000e+00 6.000000000000e-02
2.500000000000e-01 0.000000000000e+00 6.000000000000e-02
-2.500000000000e-01 1.250000000000e-01 6.000000000000e-02
-1.250000000000e-01 1.250000000000e-01 6.000000000000e-02
0.000000000000e+00 1.250000000000e-01 6.000000000000e-02
1.250000000000e-01 1.250000000000e-01 6.000000000000e-02
2.500000000000e-01 1.250000000000e-01 6.000000000000e-02
-2.500000000000e-01 2.500000000000e-01 6.000000000000e-02
-1.250000000000e-01 2.500000000000e-01 6.000000000000e-02
0.000000000000e+00 2.500000000000e-01 6.000000000000e-02
1.250000000000e-01 2.500000000000e-01 6.000000000000e-02
2.500000000000e-01 2.500000000000e-01 6.000000000000e-02
-2.500000000000e-01 -2.500000000000e-01 1.200000000000e-01
-1.250000000000e-01 -2.500000000000e-01 1.200000000000e-01
0.000000000000e+00 -2.500000000000e-01 1.200000000000e-01
1.250000000000e-01 -2.500000000000e-01 1.200000000000e-01
2.500000000000e-01 -2.500000000000e-01 1.200000000000e-01
-2.500000000000e-01 -1.250000000000e-01 1.200000000000e-01
-1.250000000000e-01 -1.250000000000e-01 1.200000000000e-01
0.000000000000e+00 -1.250000000000e-01 1.200000000000e-01
1.250000000000e-01 -1.250000000000e-01 1.200000000000e-01
2.500000000000e-01 -1.250000000000e-01 1.200000000000e-01
-2.500000000000e-01 0.000000000000e+00 1.200000000000e-01
-1.250000000000e-01 0.000000000000e+00 1.200000000000e-01
0.000000000000e+00 0.000000000000e+00 1.200000000000e-01
1.250000000000e-01 0.000000000000e+00 1.200000000000e-01
2.500000000000e-01 0.000000000000e+00 1.200000000000e-01
-2.500000000000e-01 1.250000000000e-01 1.200000000000e-01
-1.250000000000e-01 1.250000000000e-01 1.200000000000e-01
0.000000000000e+00 1.250000000000e-01 1.200000000000e-01
1.250000000000e-01 1.250000000000e-01 1.200000000000e-01
2.500000000000e-01 1.250000000000e-01 1.200000000000e-01
-2.500000000000e-01 2.500000000000e-01 1.200000000000e-01
-1.250000000000e-01 2.500000000000e-01 1.200000000000e-01
0.000000000000e+00 2.500000000000e-01 1.200000000000e-01
1.250000000000e-01 2.500000000000e-01 1.200000000000e-01
2.500000000000e-01 2.500000000000e-01 1.200000000000e-01
-2.500000000000e-01 -2.500000000000e-01 1.800000000000e-01
-1.250000000000e-01 -2.500000000000e-01 1.800000000000e-01
0.000000000000e+00 -2.500000000000e-01 1.800000000000e-01
1.250000000000e-01 -2.500000000000e-01 1.800000000000e-01
2.500000000000e-01 -2.500000000000e-01 1.800000000000e-01
-2.500000000000e-01 -1.250000000000e-01 1.800000000000e-01
-1.250000000000e-01 -1.250000000000e-01 1.800000000000e-01
0.000000000000e+00 -1.250000000000e-01 1.800000000000e-01
1.250000000000e-01 -1.250000000000e-01 1.800000000000e-01
2.500000000000e-01 -1.250000000000e-01 1.800000000000e-01
-2.500000000000e-01 0.000000000000e+00 1.800000000000e-01
-1.250000000000e-01 0.000000000000e+00 1.800000000000e-01
0.000000000000e+00 0.000000000000e+00 1.800000000000e-01
1.250000000000e-01 0.000000000000e+00 1.800000000000e-01
2.500000000000e-01 0.000000000000e+00 1.800000000000e-01
-2.500000000000e-01 1.250000000000e-01 1.800000000000e-01
-1.250000000000e-01 1.250000000000e-01 1.800000000000e-01
0.000000000000e+00 1.250000000000e-01 1.800000000000e-01
1.250000000000e-01 1.250000000000e-01 1.800000000000e-01
2.500000000000e-01 1.250000000000e-01 1.800000000000e-01
-2.500000000000e-01 2.500000000000e-01 1.800000000000e-01
-1.250000000000e-01 2.500000000000e-01 1.800000000000e-01
0.000000000000e+00 2.500000000000e-01 1.800000000000e-01
1.250000000000e-01 2.500000000000e-01 1.800000000000e-01
2.500000000000e-01 2.500000000000e-01 1.800000000000e-01
-2.500000000000e-01 -2.500000000000e-01 2.400000000000e-01
-1.250000000000e-01 -2.500000000000e-01 2.400000000000e-01
0.000000000000e+00 -2.500000000000e-01 2.400000000000e-01
1.250000000000e-01 -2.500000000000e-01 2.400000000000e-01
2.500000000000e-01 -2.500000000000e-01 2.400000000000e-01
-2.500000000000e-01 -1.250000000000e-01 2.400000000000e-01
-1.250000000000e-01 -1.250000000000e-01 2.400000000000e-01
0.000000000000e+00 -1.250000000000e-01 2.400000000000e-01
1.250000000000e-01 -1.250000000000e-01 2.400000000000e-01
2.500000000000e-01 -1.250000000000e-01 2.400000000000e-01
-2.500000000000e-01 0.000000000000e+00 2.400000000000e-01
-1.250000000000e-01 0.000000000000e+00 2.400000000000e-01
0.000000000000e+00 0.000000000000e+00 2.400000000000e-01
1.250000000000e-01 0.000000000000e+00 2.400000000000e-01
2.500000000000e-01 0.000000000000e+00 2.400000000000e-01
-2.500000000000e-01 1.250000000000e-01 2.400000000000e-01
-1.250000000000e-01 1.250000000000e-01 2.400000000000e-01
0.000000000000e+00 1.250000000000e-01 2.400000000000e-01
1.250000000000e-01 1.250000000000e-01 2.400000000000e-01
2.500000000000e-01 1.250000000000e-01 2.400000000000e-01
-2.500000000000e-01 2.500000000000e-01 2.400000000000e-01
-1.250000000000e-01 2.500000000000e-01 2.400000000000e-01
0.000000000000e+00 2.500000000000e-01 2.400000000000e-01
1.250000000000e-01 2.500000000000e-01 2.400000000000e-01
2.500000000000e-01 2.500000000000e-01 2.400000000000e-01
-2.500027786013e-01 -2.500027786014e-01 2.399266353162e-01
-1.250014517279e-01 -2.500027780272e-01 2.399257430593e-01
3.989817929021e-15 -2.500027660356e-01 2.399254249787e-01
1.250014517279e-01 -2.500027780272e-01 2.399257430593e-01
2.500027786014e-01 -2.500027786014e-01 2.399266353162e-01
-2.500027780272e-01 -1.250014517279e-01 2.399257430593e-01
-1.250014523879e-01 -1.250014523879e-01 2.399248536448e-01
3.695872863902e-15 -1.250014505565e-01 2.399245378042e-01
1.250014523879e-01 -1.250014523879e-01 2.399248536448e-01
2.500027780272e-01 -1.250014517279e-01 2.399257430593e-01
-2.500027660356e-01 -6.082481073325e-15 2.399254249787e-01
-1.250014505565e-01 -5.805351282956e-15 2.399245378042e-01
3.400787774990e-15 -5.532735994983e-15 2.399242217647e-01
1.250014505565e-01 -5.256355586839e-15 2.399245378042e-01
2.500027660356e-01 -4.977115722438e-15 2.399254249787e-01
-2.500027780272e-01 1.250014517279e-01 2.399257430593e-01
-1.250014523879e-01 1.250014523879e-01 2.399248536448e-01
3.101353303175e-15 1.250014505565e-01 2.399245378042e-01
1.250014523879e-01 1.250014523879e-01 2.399248536448e-01
2.500027780272e-01 1.250014517279e-01 2.399257430593e-01
-2.500027786013e-01 2.500027786013e-01 2.399266353162e-01
-1.250014517279e-01 2.500027780272e-01 2.399257430593e-01
2.809007963856e-15 2.500027660356e-01 2.399254249787e-01
1.250014517279e-01 2.500027780272e-01 2.399257430593e-01
2.500027786013e-01 2.500027786013e-01 2.399266353162e-01
-2.500022085011e-01 -2.500022085011e-01 3.049245510507e-01
-1.250011244513e-01 -2.500022136909e-01 3.049236171880e-01
3.889181324998e-15 -2.500022081809e-01 3.049232871605e-01
1.250011244513e-01 -2.500022136909e-01 3.049236171880e-01
2.500022085011e-01 -2.500022085011e-01 3.049245510507e-01
-2.500022136909e-01 -1.250011244513e-01 3.049236171880e-01
-1.250011247366e-01 -1.250011247366e-01 3.049226842285e-01
3.608291412613e-15 -1.250011234419e-01 3.049223558617e-01
1.250011247366e-01 -1.250011247366e-01 3.049226842285e-01
2.500022136909e-01 -1.250011244513e-01 3.049236171880e-01
-2.500022081809e-01 -6.136922155396e-15 3.049232871605e-01
-1.250011234419e-01 -5.850900143424e-15 3.049223558617e-01
3.317514970646e-15 -5.570507682445e-15 3.049220264918e-01
1.250011234419e-01 -5.294407503220e-15 3.049223558617e-01
2.500022081809e-01 -5.009384253711e-15 3.049232871605e-01
-2.500022136909e-01 1.250011244513e-01 3.049236171880e-01
-1.250011247366e-01 1.250011247366e-01 3.049226842285e-01
3.020319622469e-15 1.250011234419e-01 3.049223558617e-01
1.250011247366e-01 1.250011247366e-01 3.049226842285e-01
2.500022136909e-01 1.250011244513e-01 3.049236171880e-01
-2.500022085011e-01 2.500022085011e-01 3.049245510507e-01
-1.250011244513e-01 2.500022136909e-01 3.049236171880e-01
2.735788618059e-15 2.500022081809e-01 3.049232871605e-01
1.250011244513e-01 2.500022136909e-01 3.049236171880e-01
2.500022085011e-01 2.500022085011e-01 3.049245510507e-01
-2.500015355597e-01 -2.500015355598e-01 3.699230202600e-01
-1.250007897344e-01 -2.500015353874e-01 3.699220552797e-01
3.799958106381e-15 -2.500015306787e-01 3.699217223301e-01
1.250007897344e-01 -2.500015353874e-01 3.699220552797e-01
2.500015355598e-01 -2.500015355598e-01 3.699230202600e-01
-2.500015353874e-01 -1.250007897344e-01 3.699220552797e-01
-1.250007898632e-01 -1.250007898632e-01 3.699210894128e-01
3.518152780250e-15 -1.250007886709e-01 3.699207583098e-01
1.250007898632e-01 -1.250007898632e-01 3.699210894128e-01
2.500015353874e-01 -1.250007897344e-01 3.699220552797e-01
-2.500015306787e-01 -6.186016667393e-15 3.699217223301e-01
-1.250007886709e-01 -5.898023255727e-15 3.699207583098e-01
3.231878057033e-15 -5.614675484260e-15 3.699204265232e-01
1.250007886709e-01 -5.329355011823e-15 3.699207583098e-01
2.500015306787e-01 -5.044973497211e-15 3.699217223301e-01
-2.500015353874e-01 1.250007897344e-01 3.699220552797e-01
-1.250007898632e-01 1.250007898632e-01 3.699210894128e-01
2.940588693601e-15 1.250007886709e-01 3.699207583098e-01
1.250007898632e-01 1.250007898632e-01 3.699210894128e-01
2.500015353874e-01 1.250007897344e-01 3.699220552797e-01
-2.500015355597e-01 2.500015355597e-01 3.699230202600e-01
-1.250007897344e-01 2.500015353874e-01 3.699220552797e-01
2.655294797055e-15 2.500015306787e-01 3.699217223301e-01
1.250007897344e-01 2.500015353874e-01 3.699220552797e-01
2.500015355597e-01 2.500015355597e-01 3.699230202600e-01
-2.500008452728e-01 -2.500008452729e-01 4.349220676416e-01
-1.250004483855e-01 -2.500008390809e-01 4.349210951344e-01
3.711487837073e-15 -2.500008354164e-01 4.349207481818e-01
1.250004483855e-01 -2.500008390809e-01 4.349210951344e-01
2.500008452728e-01 -2.500008452728e-01 4.349220676416e-01
-2.500008390809e-01 -1.250004483855e-01 4.349210951344e-01
-1.250004484125e-01 -1.250004484125e-01 4.349201230482e-01
3.427760518392e-15 -1.250004473613e-01 4.349197774320e-01
1.250004484125e-01 -1.250004484125e-01 4.349201230482e-01
2.500008390809e-01 -1.250004483855e-01 4.349210951344e-01
-2.500008354164e-01 -6.232735230165e-15 4.349207481818e-01
-1.250004473613e-01 -5.948094785267e-15 4.349197774320e-01
3.146774264241e-15 -5.657474526846e-15 4.349194299558e-01
1.250004473613e-01 -5.365320112628e-15 4.349197774320e-01
2.500008354164e-01 -5.078527179244e-15 4.349207481818e-01
-2.500008390809e-01 1.250004483855e-01 4.349210951344e-01
-1.250004484125e-01 1.250004484125e-01 4.349201230482e-01
2.866504138511e-15 1.250004473613e-01 4.349197774320e-01
1.250004484125e-01 1.250004484125e-01 4.349201230482e-01
2.500008390809e-01 1.250004483855e-01 4.349210951344e-01
-2.500008452728e-01 2.500008452728e-01 4.349220676416e-01
-1.250004483855e-01 2.500008390809e-01 4.349210951344e-01
2.577210206313e-15 2.500008354164e-01 4.349207481818e-01
1.250004483855e-01 2.500008390809e-01 4.349210951344e-01
2.500008452728e-01 2.500008452728e-01 4.349220676416e-01
-2.500002377145e-01 -2.500002377145e-01 4.999217052329e-01
-1.250000990674e-01 -2.500002370791e-01 4.999207383389e-01
3.610507386199e-15 -2.500002406515e-01 4.999203838870e-01
1.250000990674e-01 -2.500002370791e-01 4.999207383389e-01
2.500002377145e-01 -2.500002377145e-01 4.999217052329e-01
-2.500002370791e-01 -1.250000990674e-01 4.999207383389e-01
-1.250000984622e-01 -1.250000984622e-01 4.999197734328e-01
3.334350183214e-15 -1.250000976042e-01 4.999194203092e-01
1.250000984622e-01 -1.250000984622e-01 4.999197734328e-01
2.500002370791e-01 -1.250000990674e-01 4.999207383389e-01
-2.500002406515e-01 -6.287401511849e-15 4.999203838870e-01
-1.250000976042e-01 -5.995923850692e-15 4.999194203092e-01
3.063420152429e-15 -5.692757523315e-15 4.999190651704e-01
1.250000976042e-01 -5.393758209638e-15 4.999194203092e-01
2.500002406515e-01 -5.107964380416e-15 4.999203838870e-01
-2.500002370791e-01 1.250000990674e-01 4.999207383389e-01
-1.250000984622e-01 1.250000984622e-01 4.999197734328e-01
2.793156095138e-15 1.250000976042e-01 4.999194203092e-01
1.250000984622e-01 1.250000984622e-01 4.999197734328e-01
2.500002370791e-01 1.250000990674e-01 4.999207383389e-01
-2.500002377145e-01 2.500002377145e-01 4.999217052329e-01
-1.250000990674e-01 2.500002370791e-01 4.999207383389e-01
2.502335416893e-15 2.500002406515e-01 4.999203838870e-01
1.250000990674e-01 2.500002370791e-01 4.999207383389e-01
2.500002377145e-01 2.500002377145e-01 4.999217052329e-01
CELLS 128 1152
8 0 1 6 5 25 26 31 30
8 1 2 7 6 26 27 32 31
8 2 3 8 7 27 28 33 32
8 3 4 9 8 28 29 34 33
8 5 6 11 10 30 31 36 35
8 6 7 12 11 31 32 37 36
8 7 8 13 12 32 33 38 37
8 8 9 14 13 33 34 39 38
8 10 11 16 15 35 36 41 40
8 11 12 17 16 36 37 42 41
8 12 13 18 17 37 38 43 42
8 13 14 19 18 38 39 44 43
8 15 16 21 20 40 41 46 45
8 16 17 22 21 41 42 47 46
8 17 18 23 22 42 43 48 47
8 18 19 24 23 43 44 49 48
8 25 26 31 30 50 51 56 55
8 26 27 32 31 51 52 57 56
8 27 28 33 32 52 53 58 57
8 28 29 34 33 53 54 59 58
8 30 31 36 35 55 56 61 60
8 31 32 37 36 56 57 62 61
8 32 33 38 37 57 58 63 62
8 33 34 39 38 58 59 64 63
8 35 36 41 40 60 61 66 65
8 36 37 42 41 61 62 67 66
8 37 38 43 42 62 63 68 67
8 38 39 44 43 63 64 69 68
8 40 41 46 45 65 66 71 70
8 41 42 47 46 66 67 72 71
8 42 43 48 47 67 68 73 72
8 43 44 49 48 68 69 74 73
8 50 51 56 55 75 76 81 80
8 51 52 57 56 76 77 82 81
8 52 53 58 57 77 78 83 82
8 53 54 59 58 78 79 84 83
8 55 56 61 60 80 81 86 85
8 56 57 62 61 81 82 87 86
8 57 58 63 62 82 83 88 87
8 58 59 64 63 83 84 89 88
8 60 61 66 65 85 86 91 90
8 61 62 67 66 86 87 92 91
8 62 63 68 67 87 88 93 92
8 63 64 69 68 88 89 94 93
8 65 66 71 70 90 91 96 95
8 66 67 72 71 91 92 97 96
8 67 68 73 72 92 93 98 97
8 68 69 74 73 93 94 99 98
8 75 76 81 80 100 101 106 105
8 76 77 82 81 101 102 107 106
8 77 78 83 82 102 103 108 107
8 78 79 84 83 103 104 109 108
8 80 81 86 85 105 106 111 110
8 81 82 87 86 106 107 112 111
8 82 83 88 87 107 108 113 112
8 83 84 89 88 108 109 114 113
8 85 86 91 90 110 111 116 115
8 86 87 92 91 111 112 117 116
8 87 88 93 92 112 113 118 117
8 88 89 94 93 113 114 119 118
8 90 91 96 95 115 116 121 120
8 91 92 97 96 116 117 122 121
8 92 93 98 97 117 118 123 122
8 93 94 99 98 118 119 124 123
8 125 126 131 130 150 151 156 155
8 126 127 132 131 151 152 157 156
8 127 128 133 132 152 153 158 157
8 128 129 134 133 153 154 159 158
8 130 131 136 135 155 156 161 160
8 131 132 137 136 156 157 162 161
8 132 133 138 137 157 158 163 162
8 133 134 139 138 158 159 164 163
8 135 136 141 140 160 161 166 165
8 136 137 142 141 161 162 167 166
8 137 138 143 142 162 163 168 167
8 138 139 144 143 163 164 169 168
8 140 141 146 145 165 166 171 170
8 141 142 147 146 166 167 172 171
8 142 143 148 147 167 168 173 172
8 143 144 149 148 168 169 174 173
8 150 151 156 155 175 176 181 180
8 151 152 157 156 176 177 182 181
8 152 153 158 157 177 178 183 182
8 153 154 159 158 178 179 184 183
8 155 156 161 160 180 181 186 185
8 156 157 162 161 181 182 187 186
8 157 158 163 162 182 183 188 187
8 158 159 164 163 183 184 189 188
8 160 161 166 165 185 186 191 190
8 161 162 167 166 186 187 192 191
8 162 163 168 167 187 188 193 192
8 163 164 169 168 188 189 194 193
8 165 166 171 170 190 191 196 195
8 166 167 172 171 191 192 197 196
8 167 168 173 172 192 193 198 197
8 168 169 174 173 193 194 199 198
8 175 176 181 180 200 201 206 205
8 176 177 182 181 201 202 207 206
8 177 178 183 182 202 203 208 207
8 178 179 184 183 203 204 209 208
8 180 181 186 185 205 206 211 210
8 181 182 187 186 206 207 212 211
8 182 183 188 187 207 208 213 212
8 183 184 189 188 208 209 214 213
8 185 186 191 190 210 211 216 215
8 186 187 192 191 211 212 217 216
8 187 188 193 192 212 213 218 217
8 188 189 194 193 213 214 219 218
8 190 191 196 195 215 216 221 220
8 191 192 197 196 216 217 222 221
8 192 193 198 197 217 218 223 222
8 193 194 199 198 218 219 224 223
8 200 201 206 205 225 226 231 230
8 201 202 207 206 226 227 232 231
8 202 203 208 207 227 228 233 232
8 203 204 209 208 228 229 234 233
8 205 206 211 210 230 231 236 235
8 206 207 212 211 231 232 237 236
8 207 208 213 212 232 233 238 237
8 208 209 214 213 233 234 239 238
8 210 211 216 215 235 236 241 240
8 211 212 217 216 236 237 242 241
8 212 213 218 217 237 238 243 242
8 213 214 219 218 238 239 244 243
8 215 216 221 220 240 241 246 245
8 216 217 222 221 241 242 247 246
8 217 218 223 222 242 243 248 247
8 218 219 224 223 243 244 249 248
CELL_TYPES 128
12
12
12
12
12
12
12
12
12
12
12
12
12
12
12
12
12
12
12
12
12
12
12
12
12
12
12
12
12
12
12
12
12
12
12
12
12
12
12
12
12
12
12
12
12
12
12
12
12
12
12
12
12
12
12
12
12
12
12
12
12
12
12
12
12
12
12
12
12
12
12
12
12
12
12
12
12
12
12
12
12
12
12
12
12
12
12
12
12
12
12
12
12
12
12
12
12
12
12
12
12
12
12
12
12
12
12
12
12
12
12
12
12
12
12
12
12
12
12
12
12
12
12
12
12
12
12
12
POINT_DATA 250
VECTORS displacement float
0.000000000000e+00 0.000000000000e+00 0.000000000000e+00
0.000000000000e+00 0.000000000000e+00 0.000000000000e+00
0.000000000000e+00 0.000000000000e+00 0.000000000000e+00
0.000000000000e+00 0.000000000000e+00 0.000000000000e+00
0.000000000000e+00 0.000000000000e+00 0.000000000000e+00
0.000000000000e+00 0.000000000000e+00 0.000000000000e+00
0.000000000000e+00 0.000000000000e+00 0.000000000000e+00
0.000000000000e+00 0.000000000000e+00 0.000000000000e+00
0.000000000000e+00 0.000000000000e+00 0.000000000000e+00
0.000000000000e+00 0.000000000000e+00 0.000000000000e+00
0.000000000000e+00 0.000000000000e+00 0.000000000000e+00
0.000000000000e+00 0.000000000000e+00 0.000000000000e+00
0.000000000000e+00 0.000000000000e+00 0.000000000000e+00
0.000000000000e+00 0.000000000000e+00 0.000000000000e+00
0.000000000000e+00 0.000000000000e+00 0.000000000000e+00
0.000000000000e+00 0.000000000000e+00 0.000000000000e+00
0.000000000000e+00 0.000000000000e+00 0.000000000000e+00
0.000000000000e+00 0.000000000000e+00 0.000000000000e+00
0.000000000000e+00 0.000000000000e+00 0.000000000000e+00
0.000000000000e+00 0.000000000000e+00 0.000000000000e+00
0.000000000000e+00 0.000000000000e+00 0.000000000000e+00
0.000000000000e+00 0.000000000000e+00 0.000000000000e+00
0.000000000000e+00 0.000000000000e+00 0.000000000000e+00
0.000000000000e+00 0.000000000000e+00 0.000000000000e+00
0.000000000000e+00 0.000000000000e+00 0.000000000000e+00
0.000000000000e+00 0.000000000000e+00 0.000000000000e+00
0.000000000000e+00 0.000000000000e+00 0.000000000000e+00
0.000000000000e+00 0.000000000000e+00 0.000000000000e+00
0.000000000000e+00 0.000000000000e+00 0.000000000000e+00
0.000000000000e+00 0.000000000000e+00 0.000000000000e+00
0.000000000000e+00 0.000000000000e+00 0.000000000000e+00
0.000000000000e+00 0.000000000000e+00 0.000000000000e+00
0.000000000000e+00 0.000000000000e+00 0.000000000000e+00
0.000000000000e+00 0.000000000000e+00 0.000000000000e+00
0.000000000000e+00 0.000000000000e+00 0.000000000000e+00
0.000000000000e+00 0.000000000000e+00 0.000000000000e+00
0.000000000000e+00 0.000000000000e+00 0.000000000000e+00
0.000000000000e+00 0.000000000000e+00 0.000000000000e+00
0.000000000000e+00 0.000000000000e+00 0.000000000000e+00
0.000000000000e+00 0.000000000000e+00 0.000000000000e+00
0.000000000000e+00 0.000000000000e+00 0.000000000000e+00
0.000000000000e+00 0.000000000000e+00 0.000000000000e+00
0.000000000000e+00 0.000000000000e+00 0.000000000000e+00
0.000000000000e+00 0.000000000000e+00 0.000000000000e+00
0.000000000000e+00 0.000000000000e+00 0.000000000000e+00
0.000000000000e+00 0.000000000000e+00 0.000000000000e+00
0.000000000000e+00 0.000000000000e+00 0.000000000000e+00
0.000000000000e+00 0.000000000000e+00 0.000000000000e+00
0.000000000000e+00 0.000000000000e+00 0.000000000000e+00
0.000000000000e+00 0.000000000000e+00 0.000000000000e+00
0.000000000000e+00 0.000000000000e+00 0.000000000000e+00
0.000000000000e+00 0.000000000000e+00 0.000000000000e+00
0.000000000000e+00 0.000000000000e+00 0.000000000000e+00
0.000000000000e+00 0.000000000000e+00 0.000000000000e+00
0.000000000000e+00 0.000000000000e+00 0.000000000000e+00
0.000000000000e+00 0.000000000000e+00 0.000000000000e+00
0.000000000000e+00 0.000000000000e+00 0.000000000000e+00
0.000000000000e+00 0.000000000000e+00 0.000000000000e+00
0.000000000000e+00 0.000000000000e+00 0.000000000000e+00
0.000000000000e+00 0.000000000000e+00 0.000000000000e+00
0.000000000000e+00 0.000000000000e+00 0.000000000000e+00
0.000000000000e+00 0.000000000000e+00 0.000000000000e+00
0.000000000000e+00 0.000000000000e+00 0.000000000000e+00
0.000000000000e+00 0.000000000000e+00 0.000000000000e+00
0.000000000000e+00 0.000000000000e+00 0.000000000000e+00
0.000000000000e+00 0.000000000000e+00 0.000000000000e+00
0.000000000000e+00 0.000000000000e+00 0.000000000000e+00
0.000000000000e+00 0.000000000000e+00 0.000000000000e+00
0.000000000000e+00 0.000000000000e+00 0.000000000000e+00
0.000000000000e+00 0.000000000000e+00 0.000000000000e+00
0.000000000000e+00 0.000000000000e+00 0.000000000000e+00
0.000000000000e+00 0.000000000000e+00 0.000000000000e+00
0.000000000000e+00 0.000000000000e+00 0.000000000000e+00
0.000000000000e+00 0.000000000000e+00 0.000000000000e+00
0.000000000000e+00 0.000000000000e+00 0.000000000000e+00
0.000000000000e+00 0.000000000000e+00 0.000000000000e+00
0.000000000000e+00 0.000000000000e+00 0.000000000000e+00
0.000000000000e+00 0.000000000000e+00 0.000000000000e+00
0.000000000000e+00 0.000000000000e+00 0.000000000000e+00
0.000000000000e+00 0.000000000000e+00 0.000000000000e+00
0.000000000000e+00 0.000000000000e+00 0.000000000000e+00
0.000000000000e+00 0.000000000000e+00 0.000000000000e+00
0.000000000000e+00 0.000000000000e+00 0.000000000000e+00
0.000000000000e+00 0.000000000000e+00 0.000000000000e+00
0.000000000000e+00 0.000000000000e+00 0.000000000000e+00
0.000000000000e+00 0.000000000000e+00 0.000000000000e+00
0.000000000000e+00 0.000000000000e+00 0.000000000000e+00
0.000000000000e+00 0.000000000000e+00 0.000000000000e+00
0.000000000000e+00 0.000000000000e+00 0.000000000000e+00
0.000000000000e+00 0.000000000000e+00 0.000000000000e+00
0.000000000000e+00 0.000000000000e+00 0.000000000000e+00
0.000000000000e+00 0.000000000000e+00 0.000000000000e+00
0.000000000000e+00 0.000000000000e+00 0.000000000000e+00
0.000000000000e+00 0.000000000000e+00 0.000000000000e+00
0.000000000000e+00 0.000000000000e+00 0.000000000000e+00
0.000000000000e+00 0.000000000000e+00 0.000000000000e+00
0.000000000000e+00 0.000000000000e+00 0.000000000000e+00
0.000000000000e+00 0.000000000000e+00 0.000000000000e+00
0.000000000000e+00 0.000000000000e+00 0.000000000000e+00
0.000000000000e+00 0.000000000000e+00 0.000000000000e+00
0.000000000000e+00 0.000000000000e+00 0.000000000000e+00
0.000000000000e+00 0.000000000000e+00 0.000000000000e+00
0.000000000000e+00 0.000000000000e+00 0.000000000000e+00
0.000000000000e+00 0.000000000000e+00 0.000000000000e+00
0.000000000000e+00 0.000000000000e+00 0.000000000000e+00
0.000000000000e+00 0.000000000000e+00 0.000000000000e+00
0.000000000000e+00 0.000000000000e+00 0.000000000000e+00
0.000000000000e+00 0.000000000000e+00 0.000000000000e+00
0.000000000000e+00 0.000000000000e+00 0.000000000000e+00
0.000000000000e+00 0.000000000000e+00 0.000000000000e+00
0.000000000000e+00 0.000000000000e+00 0.000000000000e+00
0.000000000000e+00 0.000000000000e+00 0.000000000000e+00
0.000000000000e+00 0.000000000000e+00 0.000000000000e+00
0.000000000000e+00 0.000000000000e+00 0.000000000000e+00
0.000000000000e+00 0.000000000000e+00 0.000000000000e+00
0.000000000000e+00 0.000000000000e+00 0.000000000000e+00
0.000000000000e+00 0.000000000000e+00 0.000000000000e+00
0.000000000000e+00 0.000000000000e+00 0.000000000000e+00
0.000000000000e+00 0.000000000000e+00 0.000000000000e+00
0.000000000000e+00 0.000000000000e+00 0.000000000000e+00
0.000000000000e+00 0.000000000000e+00 0.000000000000e+00
0.000000000000e+00 0.000000000000e+00 0.000000000000e+00
0.000000000000e+00 0.000000000000e+00 0.000000000000e+00
0.000000000000e+00 0.000000000000e+00 0.000000000000e+00
0.000000000000e+00 0.000000000000e+00 0.000000000000e+00
-2.778601343055e-06 -2.778601353129e-06 -1.507336468381e-02
-1.451727907234e-06 -2.778027200466e-06 -1.507425694072e-02
3.989817929021e-15 -2.766035593352e-06 -1.507457502135e-02
1.451727915201e-06 -2.778027199937e-06 -1.507425694072e-02
2.778601351012e-06 -2.778601352022e-06 -1.507336468381e-02
-2.778027190963e-06 -1.451727917306e-06 -1.507425694072e-02
-1.452387924343e-06 -1.452387933847e-06 -1.507514635515e-02
3.695872863902e-15 -1.450556480526e-06 -1.507546219576e-02
1.452387931739e-06 -1.452387933311e-06 -1.507514635515e-02
2.778027198355e-06 -1.451727916206e-06 -1.507425694072e-02
-2.766035584423e-06 -6.082481073325e-15 -1.507457502135e-02
-1.450556471591e-06 -5.805351282956e-15 -1.507546219576e-02
3.400787774990e-15 -5.532735994983e-15 -1.507577823531e-02
1.450556478391e-06 -5.256355586839e-15 -1.507546219576e-02
2.766035591211e-06 -4.977115722438e-15 -1.507457502134e-02
-2.778027191576e-06 1.451727905136e-06 -1.507425694072e-02
-1.452387924950e-06 1.452387922241e-06 -1.507514635515e-02
3.101353303175e-15 1.450556469461e-06 -1.507546219576e-02
1.452387931150e-06 1.452387922795e-06 -1.507514635515e-02
2.778027197770e-06 1.451727906252e-06 -1.507425694072e-02
-2.778601344230e-06 2.778601340941e-06 -1.507336468381e-02
-1.451727908415e-06 2.778027188862e-06 -1.507425694072e-02
2.809007963856e-15 2.766035582286e-06 -1.507457502135e-02
1.451727914034e-06 2.778027189415e-06 -1.507425694072e-02
2.778601349846e-06 2.778601342068e-06 -1.507336468381e-02
-2.208501135858e-06 -2.208501145884e-06 -1.507544894928e-02
-1.124451260102e-06 -2.213690926839e-06 -1.507638281198e-02
3.889181324998e-15 -2.208180946395e-06 -1.507671283954e-02
1.124451267887e-06 -2.213690926283e-06 -1.507638281198e-02
2.208501143639e-06 -2.208501144766e-06 -1.507544894928e-02
-2.213690917380e-06 -1.124451270128e-06 -1.507638281198e-02
-1.124736640481e-06 -1.124736649942e-06 -1.507731577147e-02
3.608291412613e-15 -1.123441865225e-06 -1.507764413832e-02
1.124736647696e-06 -1.124736649385e-06 -1.507731577147e-02
2.213690924588e-06 -1.124451269009e-06 -1.507638281198e-02
-2.208180937514e-06 -6.136922155396e-15 -1.507671283954e-02
-1.123441856337e-06 -5.850900143424e-15 -1.507764413832e-02
3.317514970646e-15 -5.570507682445e-15 -1.507797350817e-02
1.123441862970e-06 -5.294407503220e-15 -1.507764413832e-02
2.208180944139e-06 -5.009384253711e-15 -1.507671283954e-02
-2.213690917970e-06 1.124451257857e-06 -1.507638281198e-02
-1.124736641068e-06 1.124736638239e-06 -1.507731577147e-02
3.020319622469e-15 1.123441854081e-06 -1.507764413832e-02
1.124736647114e-06 1.124736638803e-06 -1.507731577147e-02
2.213690924014e-06 1.124451258992e-06 -1.507638281198e-02
-2.208501137018e-06 2.208501133611e-06 -1.507544894928e-02
-1.124451261263e-06 2.213690915133e-06 -1.507638281198e-02
2.735788618059e-15 2.208180935248e-06 -1.507671283954e-02
1.124451266729e-06 2.213690915706e-06 -1.507638281198e-02
2.208501142481e-06 2.208501134748e-06 -1.507544894928e-02
-1.535559743086e-06 -1.535559753061e-06 -1.507697974001e-02
-7.897343806219e-07 -1.535387415833e-06 -1.507794472032e-02
3.799958106381e-15 -1.530678671875e-06 -1.507827766989e-02
7.897343882244e-07 -1.535387415263e-06 -1.507794472032e-02
1.535559750683e-06 -1.535559751927e-06 -1.507697974001e-02
-1.535387406418e-06 -7.897343906040e-07 -1.507794472032e-02
-7.898632131754e-07 -7.898632225890e-07 -1.507891058716e-02
3.518152780250e-15 -7.886709335989e-07 -1.507924169024e-02
7.898632202075e-07 -7.898632220195e-07 -1.507891058716e-02
1.535387413444e-06 -7.897343894710e-07 -1.507794472032e-02
-1.530678663032e-06 -6.186016667393e-15 -1.507827766989e-02
-7.886709247565e-07 -5.898023255727e-15 -1.507924169024e-02
3.231878057033e-15 -5.614675484260e-15 -1.507957347682e-02
7.886709312191e-07 -5.329355011823e-15 -1.507924169024e-02
1.530678669493e-06 -5.044973497211e-15 -1.507827766989e-02
-1.535387406990e-06 7.897343782366e-07 -1.507794472032e-02
-7.898632137486e-07 7.898632107918e-07 -1.507891058716e-02
2.940588693601e-15 7.886709223743e-07 -1.507924169024e-02
7.898632196375e-07 7.898632113666e-07 -1.507891058716e-02
1.535387412884e-06 7.897343793850e-07 -1.507794472032e-02
-1.535559744223e-06 1.535559740696e-06 -1.507697974001e-02
-7.897343817678e-07 1.535387404030e-06 -1.507794472032e-02
2.655294797055e-15 1.530678660648e-06 -1.507827766989e-02
7.897343870766e-07 1.535387404610e-06 -1.507794472032e-02
1.535559749529e-06 1.535559741851e-06 -1.507697974001e-02
-8.452728408727e-07 -8.452728508080e-07 -1.507793235836e-02
-4.483854743911e-07 -8.390808765834e-07 -1.507890486561e-02
3.711487837073e-15 -8.354164322369e-07 -1.507925181816e-02
4.483854818093e-07 -8.390808759952e-07 -1.507890486561e-02
8.452728482844e-07 -8.452728496583e-07 -1.507793235836e-02
-8.390808672154e-07 -4.483854843271e-07 -1.507890486561e-02
-4.484125136982e-07 -4.484125230694e-07 -1.507987695183e-02
3.427760518392e-15 -4.473612742771e-07 -1.508022256802e-02
4.484125205491e-07 -4.484125224856e-07 -1.507987695183e-02
8.390808740610e-07 -4.483854831756e-07 -1.507890486561e-02
-8.354164234379e-07 -6.232735230165e-15 -1.507925181816e-02
-4.473612654773e-07 -5.948094785267e-15 -1.508022256802e-02
3.146774264241e-15 -5.657474526846e-15 -1.508057004423e-02
4.473612717733e-07 -5.365320112628e-15 -1.508022256802e-02
8.354164297392e-07 -5.078527179244e-15 -1.507925181816e-02
-8.390808677705e-07 4.483854718599e-07 -1.507890486561e-02
-4.484125142580e-07 4.484125111752e-07 -1.507987695183e-02
2.866504138511e-15 4.473612629680e-07 -1.508022256802e-02
4.484125199904e-07 4.484125117604e-07 -1.507987695183e-02
8.390808735091e-07 4.483854730227e-07 -1.507890486561e-02
-8.452728419936e-07 8.452728383346e-07 -1.507793235836e-02
-4.483854755171e-07 8.390808646901e-07 -1.507890486561e-02
2.577210206313e-15 8.354164209306e-07 -1.507925181816e-02
4.483854806756e-07 8.390808652734e-07 -1.507890486561e-02
8.452728471490e-07 8.452728395091e-07 -1.507793235836e-02
-2.377145331235e-07 -2.377145430197e-07 -1.507829476713e-02
-9.906737923423e-08 -2.370791225578e-07 -1.507926166110e-02
3.610507386199e-15 -2.406514982145e-07 -1.507961611303e-02
9.906738645646e-08 -2.370791219502e-07 -1.507926166110e-02
2.377145403506e-07 -2.377145418434e-07 -1.507829476713e-02
-2.370791132321e-07 -9.906738912633e-08 -1.507926166110e-02
-9.846222152148e-08 -9.846223084650e-08 -1.508022656721e-02
3.334350183214e-15 -9.760422099124e-08 -1.508057969076e-02
9.846222818954e-08 -9.846223024357e-08 -1.508022656721e-02
2.370791199017e-07 -9.906738794969e-08 -1.507926166110e-02
-2.406514894436e-07 -6.287401511849e-15 -1.507961611303e-02
-9.760421223406e-08 -5.995923850692e-15 -1.508057969076e-02
3.063420152429e-15 -5.692757523315e-15 -1.508093482955e-02
9.760421836189e-08 -5.393758209638e-15 -1.508057969076e-02
2.406514955664e-07 -5.107964380416e-15 -1.507961611302e-02
-2.370791137718e-07 9.906737655051e-08 -1.507926166110e-02
-9.846222206157e-08 9.846221885114e-08 -1.508022656721e-02
2.793156095138e-15 9.760420959392e-08 -1.508057969076e-02
9.846222764014e-08 9.846221944527e-08 -1.508022656721e-02
2.370791193473e-07 9.906737773321e-08 -1.507926166110e-02
-2.377145342242e-07 2.377145304463e-07 -1.507829476713e-02
-9.906738033614e-08 2.370791105501e-07 -1.507926166110e-02
2.502335416893e-15 2.406514868056e-07 -1.507961611302e-02
9.906738534494e-08 2.370791111403e-07 -1.507926166110e-02
2.377145392406e-07 2.377145316195e-07 -1.507829476713e-02
SCALARS displacement_magnitude float 1
LOOKUP_TABLE default
0.000000000000e+00
0.000000000000e+00
0.000000000000e+00
0.000000000000e+00
0.000000000000e+00
0.000000000000e+00
0.000000000000e+00
0.000000000000e+00
0.000000000000e+00
0.000000000000e+00
0.000000000000e+00
0.000000000000e+00
0.000000000000e+00
0.000000000000e+00
0.000000000000e+00
0.000000000000e+00
0.000000000000e+00
0.000000000000e+00
0.000000000000e+00
0.000000000000e+00
0.000000000000e+00
0.000000000000e+00
0.000000000000e+00
0.000000000000e+00
0.000000000000e+00
0.000000000000e+00
0.000000000000e+00
0.000000000000e+00
0.000000000000e+00
0.000000000000e+00
0.000000000000e+00
0.000000000000e+00
0.000000000000e+00
0.000000000000e+00
0.000000000000e+00
0.000000000000e+00
0.000000000000e+00
0.000000000000e+00
0.000000000000e+00
0.000000000000e+00
0.000000000000e+00
0.000000000000e+00
0.000000000000e+00
0.000000000000e+00
0.000000000000e+00
0.000000000000e+00
0.000000000000e+00
0.000000000000e+00
0.000000000000e+00
0.000000000000e+00
0.000000000000e+00
0.000000000000e+00
0.000000000000e+00
0.000000000000e+00
0.000000000000e+00
0.000000000000e+00
0.000000000000e+00
0.000000000000e+00
0.000000000000e+00
0.000000000000e+00
0.000000000000e+00
0.000000000000e+00
0.000000000000e+00
0.000000000000e+00
0.000000000000e+00
0.000000000000e+00
0.000000000000e+00
0.000000000000e+00
0.000000000000e+00
0.000000000000e+00
0.000000000000e+00
0.000000000000e+00
0.000000000000e+00
0.000000000000e+00
0.000000000000e+00
0.000000000000e+00
0.000000000000e+00
0.000000000000e+00
0.000000000000e+00
0.000000000000e+00
0.000000000000e+00
0.000000000000e+00
0.000000000000e+00
0.000000000000e+00
0.000000000000e+00
0.000000000000e+00
0.000000000000e+00
0.000000000000e+00
0.000000000000e+00
0.000000000000e+00
0.000000000000e+00
0.000000000000e+00
0.000000000000e+00
0.000000000000e+00
0.000000000000e+00
0.000000000000e+00
0.000000000000e+00
0.000000000000e+00
0.000000000000e+00
0.000000000000e+00
0.000000000000e+00
0.000000000000e+00
0.000000000000e+00
0.000000000000e+00
0.000000000000e+00
0.000000000000e+00
0.000000000000e+00
0.000000000000e+00
0.000000000000e+00
0.000000000000e+00
0.000000000000e+00
0.000000000000e+00
0.000000000000e+00
0.000000000000e+00
0.000000000000e+00
0.000000000000e+00
0.000000000000e+00
0.000000000000e+00
0.000000000000e+00
0.000000000000e+00
0.000000000000e+00
0.000000000000e+00
0.000000000000e+00
0.000000000000e+00
0.000000000000e+00
1.507336519601e-02
1.507425726660e-02
1.507457527512e-02
1.507425726660e-02
1.507336519601e-02
1.507425726660e-02
1.507514649508e-02
1.507546226554e-02
1.507514649508e-02
1.507425726660e-02
1.507457527512e-02
1.507546226554e-02
1.507577823531e-02
1.507546226554e-02
1.507457527512e-02
1.507425726660e-02
1.507514649508e-02
1.507546226554e-02
1.507514649508e-02
1.507425726660e-02
1.507336519601e-02
1.507425726660e-02
1.507457527512e-02
1.507425726660e-02
1.507336519601e-02
1.507544927281e-02
1.507638301644e-02
1.507671300125e-02
1.507638301644e-02
1.507544927281e-02
1.507638301644e-02
1.507731585537e-02
1.507764418017e-02
1.507731585537e-02
1.507638301644e-02
1.507671300125e-02
1.507764418018e-02
1.507797350817e-02
1.507764418017e-02
1.507671300125e-02
1.507638301644e-02
1.507731585537e-02
1.507764418017e-02
1.507731585537e-02
1.507638301644e-02
1.507544927281e-02
1.507638301644e-02
1.507671300125e-02
1.507638301644e-02
1.507544927281e-02
1.507697989640e-02
1.507794481918e-02
1.507827774758e-02
1.507794481918e-02
1.507697989640e-02
1.507794481918e-02
1.507891062853e-02
1.507924171086e-02
1.507891062853e-02
1.507794481918e-02
1.507827774758e-02
1.507924171086e-02
1.507957347682e-02
1.507924171086e-02
1.507827774758e-02
1.507794481918e-02
1.507891062853e-02
1.507924171086e-02
1.507891062853e-02
1.507794481918e-02
1.507697989640e-02
1.507794481918e-02
1.507827774758e-02
1.507794481918e-02
1.507697989640e-02
1.507793240575e-02
1.507890489563e-02
1.507925184130e-02
1.507890489563e-02
1.507793240575e-02
1.507890489563e-02
1.507987696517e-02
1.508022257465e-02
1.507987696516e-02
1.507890489563e-02
1.507925184130e-02
1.508022257465e-02
1.508057004423e-02
1.508022257465e-02
1.507925184130e-02
1.507890489563e-02
1.507987696516e-02
1.508022257465e-02
1.507987696516e-02
1.507890489563e-02
1.507793240575e-02
1.507890489563e-02
1.507925184130e-02
1.507890489563e-02
1.507793240575e-02
1.507829477088e-02
1.507926166329e-02
1.507961611495e-02
1.507926166329e-02
1.507829477088e-02
1.507926166329e-02
1.508022656785e-02
1.508057969108e-02
1.508022656785e-02
1.507926166329e-02
1.507961611495e-02
1.508057969108e-02
1.508093482955e-02
1.508057969108e-02
1.507961611494e-02
1.507926166329e-02
1.508022656785e-02
1.508057969108e-02
1.508022656785e-02
1.507926166329e-02
1.507829477088e-02
1.507926166329e-02
1.507961611495e-02
1.507926166329e-02
1.507829477088e-02
CELL_DATA 128
SCALARS displacement_magnitude float 1
LOOKUP_TABLE default
0.000000000000e+00
0.000000000000e+00
0.000000000000e+00
0.000000000000e+00
0.000000000000e+00
0.000000000000e+00
0.000000000000e+00
0.000000000000e+00
0.000000000000e+00
0.000000000000e+00
0.000000000000e+00
0.000000000000e+00
0.000000000000e+00
0.000000000000e+00
0.000000000000e+00
0.000000000000e+00
0.000000000000e+00
0.000000000000e+00
0.000000000000e+00
0.000000000000e+00
0.000000000000e+00
0.000000000000e+00
0.000000000000e+00
0.000000000000e+00
0.000000000000e+00
0.000000000000e+00
0.000000000000e+00
0.000000000000e+00
0.000000000000e+00
0.000000000000e+00
0.000000000000e+00
0.000000000000e+00
0.000000000000e+00
0.000000000000e+00
0.000000000000e+00
0.000000000000e+00
0.000000000000e+00
0.000000000000e+00
0.000000000000e+00
0.000000000000e+00
0.000000000000e+00
0.000000000000e+00
0.000000000000e+00
0.000000000000e+00
0.000000000000e+00
0.000000000000e+00
0.000000000000e+00
0.000000000000e+00
0.000000000000e+00
0.000000000000e+00
0.000000000000e+00
0.000000000000e+00
0.000000000000e+00
0.000000000000e+00
0.000000000000e+00
0.000000000000e+00
0.000000000000e+00
0.000000000000e+00
0.000000000000e+00
0.000000000000e+00
0.000000000000e+00
0.000000000000e+00
0.000000000000e+00
0.000000000000e+00
1.507531967317e-02
1.507593716945e-02
1.507593716945e-02
1.507531967317e-02
1.507593716945e-02
1.507655337317e-02
1.507655337317e-02
1.507593716945e-02
1.507593716945e-02
1.507655337317e-02
1.507655337317e-02
1.507593716945e-02
1.507531967317e-02
1.507593716945e-02
1.507593716945e-02
1.507531967317e-02
1.507716391554e-02
1.507780386992e-02
1.507780386992e-02
1.507716391554e-02
1.507780386992e-02
1.507844315637e-02
1.507844315637e-02
1.507780386992e-02
1.507780386992e-02
1.507844315637e-02
1.507844315637e-02
1.507780386992e-02
1.507716391554e-02
1.507780386992e-02
1.507780386992e-02
1.507716391554e-02
1.507842491568e-02
1.507907889786e-02
1.507907889786e-02
1.507842491568e-02
1.507907889786e-02
1.507973246072e-02
1.507973246072e-02
1.507907889786e-02
1.507907889786e-02
1.507973246072e-02
1.507973246072e-02
1.507907889786e-02
1.507842491568e-02
1.507907889786e-02
1.507907889786e-02
1.507842491568e-02
1.507908297844e-02
1.507974253924e-02
1.507974253924e-02
1.507908297844e-02
1.507974253924e-02
1.508040161728e-02
1.508040161728e-02
1.507974253924e-02
1.507974253924e-02
1.508040161728e-02
1.508040161728e-02
1.507974253924e-02
1.507908297844e-02
1.507974253924e-02
1.507974253924e-02
1.507908297844e-02
SCALARS engineering_strain_norm float 1
LOOKUP_TABLE default
0.000000000000e+00
0.000000000000e+00
0.000000000000e+00
0.000000000000e+00
0.000000000000e+00
0.000000000000e+00
0.000000000000e+00
0.000000000000e+00
0.000000000000e+00
0.000000000000e+00
0.000000000000e+00
0.000000000000e+00
0.000000000000e+00
0.000000000000e+00
0.000000000000e+00
0.000000000000e+00
0.000000000000e+00
0.000000000000e+00
0.000000000000e+00
0.000000000000e+00
0.000000000000e+00
0.000000000000e+00
0.000000000000e+00
0.000000000000e+00
0.000000000000e+00
0.000000000000e+00
0.000000000000e+00
0.000000000000e+00
0.000000000000e+00
0.000000000000e+00
0.000000000000e+00
0.000000000000e+00
0.000000000000e+00
0.000000000000e+00
0.000000000000e+00
0.000000000000e+00
0.000000000000e+00
0.000000000000e+00
0.000000000000e+00
0.000000000000e+00
0.000000000000e+00
0.000000000000e+00
0.000000000000e+00
0.000000000000e+00
0.000000000000e+00
0.000000000000e+00
0.000000000000e+00
0.000000000000e+00
0.000000000000e+00
0.000000000000e+00
0.000000000000e+00
0.000000000000e+00
0.000000000000e+00
0.000000000000e+00
0.000000000000e+00
0.000000000000e+00
0.000000000000e+00
0.000000000000e+00
0.000000000000e+00
0.000000000000e+00
0.000000000000e+00
0.000000000000e+00
0.000000000000e+00
0.000000000000e+00
3.545110808771e-05
3.601495183306e-05
3.601495183305e-05
3.545110808756e-05
3.601495183311e-05
3.659674402739e-05
3.659674402732e-05
3.601495183297e-05
3.601495183312e-05
3.659674402735e-05
3.659674402734e-05
3.601495183303e-05
3.545110808763e-05
3.601495183304e-05
3.601495183298e-05
3.545110808759e-05
2.617678494595e-05
2.651414133137e-05
2.651414133135e-05
2.617678494583e-05
2.651414133133e-05
2.685447028531e-05
2.685447028526e-05
2.651414133125e-05
2.651414133134e-05
2.685447028530e-05
2.685447028536e-05
2.651414133134e-05
2.617678494589e-05
2.651414133128e-05
2.651414133134e-05
2.617678494592e-05
1.611466253679e-05
1.637102841501e-05
1.637102841496e-05
1.611466253673e-05
1.637102841496e-05
1.663881148948e-05
1.663881148945e-05
1.637102841496e-05
1.637102841496e-05
1.663881148947e-05
1.663881148952e-05
1.637102841506e-05
1.611466253668e-05
1.637102841492e-05
1.637102841499e-05
1.611466253677e-05
6.282869418363e-06
6.297583642279e-06
6.297583642218e-06
6.282869418344e-06
6.297583642197e-06
6.305125400744e-06
6.305125400766e-06
6.297583642197e-06
6.297583642221e-06
6.305125400809e-06
6.305125400787e-06
6.297583642234e-06
6.282869418307e-06
6.297583642191e-06
6.297583642180e-06
6.282869418321e-06
SCALARS von_mises float 1
LOOKUP_TABLE default
0.000000000000e+00
0.000000000000e+00
0.000000000000e+00
0.000000000000e+00
0.000000000000e+00
0.000000000000e+00
0.000000000000e+00
0.000000000000e+00
0.000000000000e+00
0.000000000000e+00
0.000000000000e+00
0.000000000000e+00
0.000000000000e+00
0.000000000000e+00
0.000000000000e+00
0.000000000000e+00
0.000000000000e+00
0.000000000000e+00
0.000000000000e+00
0.000000000000e+00
0.000000000000e+00
0.000000000000e+00
0.000000000000e+00
0.000000000000e+00
0.000000000000e+00
0.000000000000e+00
0.000000000000e+00
0.000000000000e+00
0.000000000000e+00
0.000000000000e+00
0.000000000000e+00
0.000000000000e+00
0.000000000000e+00
0.000000000000e+00
0.000000000000e+00
0.000000000000e+00
0.000000000000e+00
0.000000000000e+00
0.000000000000e+00
0.000000000000e+00
0.000000000000e+00
0.000000000000e+00
0.000000000000e+00
0.000000000000e+00
0.000000000000e+00
0.000000000000e+00
0.000000000000e+00
0.000000000000e+00
0.000000000000e+00
0.000000000000e+00
0.000000000000e+00
0.000000000000e+00
0.000000000000e+00
0.000000000000e+00
0.000000000000e+00
0.000000000000e+00
0.000000000000e+00
0.000000000000e+00
0.000000000000e+00
0.000000000000e+00
0.000000000000e+00
0.000000000000e+00
0.000000000000e+00
0.000000000000e+00
3.259019595855e+00
3.316053462224e+00
3.316053462223e+00
3.259019595843e+00
3.316053462228e+00
3.374903863047e+00
3.374903863042e+00
3.316053462217e+00
3.316053462230e+00
3.374903863044e+00
3.374903863043e+00
3.316053462222e+00
3.259019595849e+00
3.316053462222e+00
3.316053462218e+00
3.259019595845e+00
2.412746595222e+00
2.445856558971e+00
2.445856558970e+00
2.412746595212e+00
2.445856558968e+00
2.479232294720e+00
2.479232294715e+00
2.445856558961e+00
2.445856558969e+00
2.479232294718e+00
2.479232294724e+00
2.445856558969e+00
2.412746595217e+00
2.445856558964e+00
2.445856558969e+00
2.412746595220e+00
1.486611059717e+00
1.513552920987e+00
1.513552920982e+00
1.486611059711e+00
1.513552920981e+00
1.541834334371e+00
1.541834334367e+00
1.513552920981e+00
1.513552920982e+00
1.541834334370e+00
1.541834334375e+00
1.513552920991e+00
1.486611059706e+00
1.513552920978e+00
1.513552920984e+00
1.486611059715e+00
5.868809799171e-01
5.890038920170e-01
5.890038920111e-01
5.868809799149e-01
5.890038920089e-01
5.907454751759e-01
5.907454751777e-01
5.890038920086e-01
5.890038920105e-01
5.907454751814e-01
5.907454751795e-01
5.890038920119e-01
5.868809799115e-01
5.890038920082e-01
5.890038920069e-01
5.868809799126e-01
SCALARS sdf_gap float 1
LOOKUP_TABLE default
0.000000000000e+00
0.000000000000e+00
0.000000000000e+00
0.000000000000e+00
0.000000000000e+00
0.000000000000e+00
0.000000000000e+00
0.000000000000e+00
0.000000000000e+00
0.000000000000e+00
0.000000000000e+00
0.000000000000e+00
0.000000000000e+00
0.000000000000e+00
0.000000000000e+00
0.000000000000e+00
0.000000000000e+00
0.000000000000e+00
0.000000000000e+00
0.000000000000e+00
0.000000000000e+00
0.000000000000e+00
0.000000000000e+00
0.000000000000e+00
0.000000000000e+00
0.000000000000e+00
0.000000000000e+00
0.000000000000e+00
0.000000000000e+00
0.000000000000e+00
0.000000000000e+00
0.000000000000e+00
0.000000000000e+00
0.000000000000e+00
0.000000000000e+00
0.000000000000e+00
0.000000000000e+00
0.000000000000e+00
0.000000000000e+00
0.000000000000e+00
0.000000000000e+00
0.000000000000e+00
0.000000000000e+00
0.000000000000e+00
0.000000000000e+00
0.000000000000e+00
0.000000000000e+00
0.000000000000e+00
0.000000000000e+00
0.000000000000e+00
0.000000000000e+00
0.000000000000e+00
0.000000000000e+00
0.000000000000e+00
0.000000000000e+00
0.000000000000e+00
0.000000000000e+00
0.000000000000e+00
0.000000000000e+00
0.000000000000e+00
0.000000000000e+00
0.000000000000e+00
0.000000000000e+00
0.000000000000e+00
-7.425623009871e-05
-7.486012824325e-05
-7.486012824307e-05
-7.425623009817e-05
-7.486012824332e-05
-7.546224549364e-05
-7.546224549349e-05
-7.486012824284e-05
-7.486012824326e-05
-7.546224549358e-05
-7.546224549343e-05
-7.486012824280e-05
-7.425623009843e-05
-7.486012824302e-05
-7.486012824290e-05
-7.425623009800e-05
0.000000000000e+00
0.000000000000e+00
0.000000000000e+00
0.000000000000e+00
0.000000000000e+00
0.000000000000e+00
0.000000000000e+00
0.000000000000e+00
0.000000000000e+00
0.000000000000e+00
0.000000000000e+00
0.000000000000e+00
0.000000000000e+00
0.000000000000e+00
0.000000000000e+00
0.000000000000e+00
0.000000000000e+00
0.000000000000e+00
0.000000000000e+00
0.000000000000e+00
0.000000000000e+00
0.000000000000e+00
0.000000000000e+00
0.000000000000e+00
0.000000000000e+00
0.000000000000e+00
0.000000000000e+00
0.000000000000e+00
0.000000000000e+00
0.000000000000e+00
0.000000000000e+00
0.000000000000e+00
0.000000000000e+00
0.000000000000e+00
0.000000000000e+00
0.000000000000e+00
0.000000000000e+00
0.000000000000e+00
0.000000000000e+00
0.000000000000e+00
0.000000000000e+00
0.000000000000e+00
0.000000000000e+00
0.000000000000e+00
0.000000000000e+00
0.000000000000e+00
0.000000000000e+00
0.000000000000e+00
SCALARS contact_pressure float 1
LOOKUP_TABLE default
0.000000000000e+00
0.000000000000e+00
0.000000000000e+00
0.000000000000e+00
0.000000000000e+00
0.000000000000e+00
0.000000000000e+00
0.000000000000e+00
0.000000000000e+00
0.000000000000e+00
0.000000000000e+00
0.000000000000e+00
0.000000000000e+00
0.000000000000e+00
0.000000000000e+00
0.000000000000e+00
0.000000000000e+00
0.000000000000e+00
0.000000000000e+00
0.000000000000e+00
0.000000000000e+00
0.000000000000e+00
0.000000000000e+00
0.000000000000e+00
0.000000000000e+00
0.000000000000e+00
0.000000000000e+00
0.000000000000e+00
0.000000000000e+00
0.000000000000e+00
0.000000000000e+00
0.000000000000e+00
0.000000000000e+00
0.000000000000e+00
0.000000000000e+00
0.000000000000e+00
0.000000000000e+00
0.000000000000e+00
0.000000000000e+00
0.000000000000e+00
0.000000000000e+00
0.000000000000e+00
0.000000000000e+00
0.000000000000e+00
0.000000000000e+00
0.000000000000e+00
0.000000000000e+00
0.000000000000e+00
0.000000000000e+00
0.000000000000e+00
0.000000000000e+00
0.000000000000e+00
0.000000000000e+00
0.000000000000e+00
0.000000000000e+00
0.000000000000e+00
0.000000000000e+00
0.000000000000e+00
0.000000000000e+00
0.000000000000e+00
0.000000000000e+00
0.000000000000e+00
0.000000000000e+00
0.000000000000e+00
3.712811504936e+00
3.743006412163e+00
3.743006412154e+00
3.712811504908e+00
3.743006412166e+00
3.773112274682e+00
3.773112274674e+00
3.743006412142e+00
3.743006412163e+00
3.773112274679e+00
3.773112274672e+00
3.743006412140e+00
3.712811504922e+00
3.743006412151e+00
3.743006412145e+00
3.712811504900e+00
0.000000000000e+00
0.000000000000e+00
0.000000000000e+00
0.000000000000e+00
0.000000000000e+00
0.000000000000e+00
0.000000000000e+00
0.000000000000e+00
0.000000000000e+00
0.000000000000e+00
0.000000000000e+00
0.000000000000e+00
0.000000000000e+00
0.000000000000e+00
0.000000000000e+00
0.000000000000e+00
0.000000000000e+00
0.000000000000e+00
0.000000000000e+00
0.000000000000e+00
0.000000000000e+00
0.000000000000e+00
0.000000000000e+00
0.000000000000e+00
0.000000000000e+00
0.000000000000e+00
0.000000000000e+00
0.000000000000e+00
0.000000000000e+00
0.000000000000e+00
0.000000000000e+00
0.000000000000e+00
0.000000000000e+00
0.000000000000e+00
0.000000000000e+00
0.000000000000e+00
0.000000000000e+00
0.000000000000e+00
0.000000000000e+00
0.000000000000e+00
0.000000000000e+00
0.000000000000e+00
0.000000000000e+00
0.000000000000e+00
0.000000000000e+00
0.000000000000e+00
0.000000000000e+00
0.000000000000e+00
SCALARS active_contact float 1
LOOKUP_TABLE default
0.000000000000e+00
0.000000000000e+00
0.000000000000e+00
0.000000000000e+00
0.000000000000e+00
0.000000000000e+00
0.000000000000e+00
0.000000000000e+00
0.000000000000e+00
0.000000000000e+00
0.000000000000e+00
0.000000000000e+00
0.000000000000e+00
0.000000000000e+00
0.000000000000e+00
0.000000000000e+00
0.000000000000e+00
0.000000000000e+00
0.000000000000e+00
0.000000000000e+00
0.000000000000e+00
0.000000000000e+00
0.000000000000e+00
0.000000000000e+00
0.000000000000e+00
0.000000000000e+00
0.000000000000e+00
0.000000000000e+00
0.000000000000e+00
0.000000000000e+00
0.000000000000e+00
0.000000000000e+00
0.000000000000e+00
0.000000000000e+00
0.000000000000e+00
0.000000000000e+00
0.000000000000e+00
0.000000000000e+00
0.000000000000e+00
0.000000000000e+00
0.000000000000e+00
0.000000000000e+00
0.000000000000e+00
0.000000000000e+00
0.000000000000e+00
0.000000000000e+00
0.000000000000e+00
0.000000000000e+00
0.000000000000e+00
0.000000000000e+00
0.000000000000e+00
0.000000000000e+00
0.000000000000e+00
0.000000000000e+00
0.000000000000e+00
0.000000000000e+00
0.000000000000e+00
0.000000000000e+00
0.000000000000e+00
0.000000000000e+00
0.000000000000e+00
0.000000000000e+00
0.000000000000e+00
0.000000000000e+00
1.000000000000e+00
1.000000000000e+00
1.000000000000e+00
1.000000000000e+00
1.000000000000e+00
1.000000000000e+00
1.000000000000e+00
1.000000000000e+00
1.000000000000e+00
1.000000000000e+00
1.000000000000e+00
1.000000000000e+00
1.000000000000e+00
1.000000000000e+00
1.000000000000e+00
1.000000000000e+00
0.000000000000e+00
0.000000000000e+00
0.000000000000e+00
0.000000000000e+00
0.000000000000e+00
0.000000000000e+00
0.000000000000e+00
0.000000000000e+00
0.000000000000e+00
0.000000000000e+00
0.000000000000e+00
0.000000000000e+00
0.000000000000e+00
0.000000000000e+00
0.000000000000e+00
0.000000000000e+00
0.000000000000e+00
0.000000000000e+00
0.000000000000e+00
0.000000000000e+00
0.000000000000e+00
0.000000000000e+00
0.000000000000e+00
0.000000000000e+00
0.000000000000e+00
0.000000000000e+00
0.000000000000e+00
0.000000000000e+00
0.000000000000e+00
0.000000000000e+00
0.000000000000e+00
0.000000000000e+00
0.000000000000e+00
0.000000000000e+00
0.000000000000e+00
0.000000000000e+00
0.000000000000e+00
0.000000000000e+00
0.000000000000e+00
0.000000000000e+00
0.000000000000e+00
0.000000000000e+00
0.000000000000e+00
0.000000000000e+00
0.000000000000e+00
0.000000000000e+00
0.000000000000e+00
0.000000000000e+00
