# vtk DataFile Version 3.0
SFC long-time C3D8 dynamic frame 57 t=1.140000000000e+00
ASCII
DATASET UNSTRUCTURED_GRID
POINTS 250 float
-2.500000000000e-01 -2.500000000000e-01 0.000000000000e+00
-1.250000000000e-01 -2.500000000000e-01 0.000000000000e+00
0.000000000000e+00 -2.500000000000e-01 0.000000000000e+00
1.250000000000e-01 -2.500000000000e-01 0.000000000000e+00
2.500000000000e-01 -2.500000000000e-01 0.000000000000e+00
-2.500000000000e-01 -1.250000000000e-01 0.000000000000e+00
-1.250000000000e-01 -1.250000000000e-01 0.000000000000e+00
0.000000000000e+00 -1.250000000000e-01 0.000000000000e+00
1.250000000000e-01 -1.250000000000e-01 0.000000000000e+00
2.500000000000e-01 -1.250000000000e-01 0.000000000000e+00
-2.500000000000e-01 0.000000000000e+00 0.000000000000e+00
-1.250000000000e-01 0.000000000000e+00 0.000000000000e+00
0.000000000000e+00 0.000000000000e+00 0.000000000000e+00
1.250000000000e-01 0.000000000000e+00 0.000000000000e+00
2.500000000000e-01 0.000000000000e+00 0.000000000000e+00
-2.500000000000e-01 1.250000000000e-01 0.000000000000e+00
-1.250000000000e-01 1.250000000000e-01 0.000000000000e+00
0.000000000000e+00 1.250000000000e-01 0.000000000000e+00
1.250000000000e-01 1.250000000000e-01 0.000000000000e+00
2.500000000000e-01 1.250000000000e-01 0.000000000000e+00
-2.500000000000e-01 2.500000000000e-01 0.000000000000e+00
-1.250000000000e-01 2.500000000000e-01 0.000000000000e+00
0.000000000000e+00 2.500000000000e-01 0.000000000000e+00
1.250000000000e-01 2.500000000000e-01 0.000000000000e+00
2.500000000000e-01 2.500000000000e-01 0.000000000000e+00
-2.500000000000e-01 -2.500000000000e-01 6.000000000000e-02
-1.250000000000e-01 -2.500000000000e-01 6.000000000000e-02
0.000000000000e+00 -2.500000000000e-01 6.000000000000e-02
1.250000000000e-01 -2.500000000000e-01 6.000000000000e-02
2.500000000000e-01 -2.500000000000e-01 6.000000000000e-02
-2.500000000000e-01 -1.250000000000e-01 6.000000000000e-02
-1.250000000000e-01 -1.250000000000e-01 6.000000000000e-02
0.000000000000e+00 -1.250000000000e-01 6.000000000000e-02
1.250000000000e-01 -1.250000000000e-01 6.000000000000e-02
2.500000000000e-01 -1.250000000000e-01 6.000000000000e-02
-2.500000000000e-01 0.000000000000e+00 6.000000000000e-02
-1.250000000000e-01 0.000000000000e+00 6.000000000000e-02
0.000000000000e+00 0.000000000000e+00 6.000000000000e-02
1.250000000000e-01 0.000000000000e+00 6.000000000000e-02
2.500000000000e-01 0.000000000000e+00 6.000000000000e-02
-2.500000000000e-01 1.250000000000e-01 6.000000000000e-02
-1.250000000000e-01 1.250000000000e-01 6.000000000000e-02
0.000000000000e+00 1.250000000000e-01 6.000000000000e-02
1.250000000000e-01 1.250000000000e-01 6.000000000000e-02
2.500000000000e-01 1.250000000000e-01 6.000000000000e-02
-2.500000000000e-01 2.500000000000e-01 6.000000000000e-02
-1.250000000000e-01 2.500000000000e-01 6.000000000000e-02
0.000000000000e+00 2.500000000000e-01 6.000000000000e-02
1.250000000000e-01 2.500000000000e-01 6.000000000000e-02
2.500000000000e-01 2.500000000000e-01 6.000000000000e-02
-2.500000000000e-01 -2.500000000000e-01 1.200000000000e-01
-1.250000000000e-01 -2.500000000000e-01 1.200000000000e-01
0.000000000000e+00 -2.500000000000e-01 1.200000000000e-01
1.250000000000e-01 -2.500000000000e-01 1.200000000000e-01
2.500000000000e-01 -2.500000000000e-01 1.200000000000e-01
-2.500000000000e-01 -1.250000000000e-01 1.200000000000e-01
-1.250000000000e-01 -1.250000000000e-01 1.200000000000e-01
0.000000000000e+00 -1.250000000000e-01 1.200000000000e-01
1.250000000000e-01 -1.250000000000e-01 1.200000000000e-01
2.500000000000e-01 -1.250000000000e-01 1.200000000000e-01
-2.500000000000e-01 0.000000000000e+00 1.200000000000e-01
-1.250000000000e-01 0.000000000000e+00 1.200000000000e-01
0.000000000000e+00 0.000000000000e+00 1.200000000000e-01
1.250000000000e-01 0.000000000000e+00 1.200000000000e-01
2.500000000000e-01 0.000000000000e+00 1.200000000000e-01
-2.500000000000e-01 1.250000000000e-01 1.200000000000e-01
-1.250000000000e-01 1.250000000000e-01 1.200000000000e-01
0.000000000000e+00 1.250000000000e-01 1.200000000000e-01
1.250000000000e-01 1.250000000000e-01 1.200000000000e-01
2.500000000000e-01 1.250000000000e-01 1.200000000000e-01
-2.500000000000e-01 2.500000000000e-01 1.200000000000e-01
-1.250000000000e-01 2.500000000000e-01 1.200000000000e-01
0.000000000000e+00 2.500000000000e-01 1.200000000000e-01
1.250000000000e-01 2.500000000000e-01 1.200000000000e-01
2.500000000000e-01 2.500000000000e-01 1.200000000000e-01
-2.500000000000e-01 -2.500000000000e-01 1.800000000000e-01
-1.250000000000e-01 -2.500000000000e-01 1.800000000000e-01
0.000000000000e+00 -2.500000000000e-01 1.800000000000e-01
1.250000000000e-01 -2.500000000000e-01 1.800000000000e-01
2.500000000000e-01 -2.500000000000e-01 1.800000000000e-01
-2.500000000000e-01 -1.250000000000e-01 1.800000000000e-01
-1.250000000000e-01 -1.250000000000e-01 1.800000000000e-01
0.000000000000e+00 -1.250000000000e-01 1.800000000000e-01
1.250000000000e-01 -1.250000000000e-01 1.800000000000e-01
2.500000000000e-01 -1.250000000000e-01 1.800000000000e-01
-2.500000000000e-01 0.000000000000e+00 1.800000000000e-01
-1.250000000000e-01 0.000000000000e+00 1.800000000000e-01
0.000000000000e+00 0.000000000000e+00 1.800000000000e-01
1.250000000000e-01 0.000000000000e+00 1.800000000000e-01
2.500000000000e-01 0.000000000000e+00 1.800000000000e-01
-2.500000000000e-01 1.250000000000e-01 1.800000000000e-01
-1.250000000000e-01 1.250000000000e-01 1.800000000000e-01
0.000000000000e+00 1.250000000000e-01 1.800000000000e-01
1.250000000000e-01 1.250000000000e-01 1.800000000000e-01
2.500000000000e-01 1.250000000000e-01 1.800000000000e-01
-2.500000000000e-01 2.500000000000e-01 1.800000000000e-01
-1.250000000000e-01 2.500000000000e-01 1.800000000000e-01
0.000000000000e+00 2.500000000000e-01 1.800000000000e-01
1.250000000000e-01 2.500000000000e-01 1.800000000000e-01
2.500000000000e-01 2.500000000000e-01 1.800000000000e-01
-2.500000000000e-01 -2.500000000000e-01 2.400000000000e-01
-1.250000000000e-01 -2.500000000000e-01 2.400000000000e-01
0.000000000000e+00 -2.500000000000e-01 2.400000000000e-01
1.250000000000e-01 -2.500000000000e-01 2.400000000000e-01
2.500000000000e-01 -2.500000000000e-01 2.400000000000e-01
-2.500000000000e-01 -1.250000000000e-01 2.400000000000e-01
-1.250000000000e-01 -1.250000000000e-01 2.400000000000e-01
0.000000000000e+00 -1.250000000000e-01 2.400000000000e-01
1.250000000000e-01 -1.250000000000e-01 2.400000000000e-01
2.500000000000e-01 -1.250000000000e-01 2.400000000000e-01
-2.500000000000e-01 0.000000000000e+00 2.400000000000e-01
-1.250000000000e-01 0.000000000000e+00 2.400000000000e-01
0.000000000000e+00 0.000000000000e+00 2.400000000000e-01
1.250000000000e-01 0.000000000000e+00 2.400000000000e-01
2.500000000000e-01 0.000000000000e+00 2.400000000000e-01
-2.500000000000e-01 1.250000000000e-01 2.400000000000e-01
-1.250000000000e-01 1.250000000000e-01 2.400000000000e-01
0.000000000000e+00 1.250000000000e-01 2.400000000000e-01
1.250000000000e-01 1.250000000000e-01 2.400000000000e-01
2.500000000000e-01 1.250000000000e-01 2.400000000000e-01
-2.500000000000e-01 2.500000000000e-01 2.400000000000e-01
-1.250000000000e-01 2.500000000000e-01 2.400000000000e-01
0.000000000000e+00 2.500000000000e-01 2.400000000000e-01
1.250000000000e-01 2.500000000000e-01 2.400000000000e-01
2.500000000000e-01 2.500000000000e-01 2.400000000000e-01
-2.500000093413e-01 -2.500000093540e-01 2.416154892156e-01
-1.250000064166e-01 -2.500000087947e-01 2.416154844259e-01
1.942049221825e-11 -2.500000080333e-01 2.416154820815e-01
1.250000064554e-01 -2.500000087947e-01 2.416154844630e-01
2.500000093802e-01 -2.500000093541e-01 2.416154892898e-01
-2.500000087819e-01 -1.250000064293e-01 2.416154844141e-01
-1.250000063583e-01 -1.250000063711e-01 2.416154800551e-01
1.944442170325e-11 -1.250000060951e-01 2.416154779603e-01
1.250000063972e-01 -1.250000063711e-01 2.416154800922e-01
2.500000088208e-01 -1.250000064294e-01 2.416154844883e-01
-2.500000080205e-01 6.697373662205e-12 2.416154820579e-01
-1.250000060823e-01 6.673744531951e-12 2.416154779485e-01
1.946823608564e-11 6.650076113106e-12 2.416154759144e-01
1.250000061213e-01 6.626346740175e-12 2.416154779856e-01
2.500000080594e-01 6.602558434760e-12 2.416154821321e-01
-2.500000087819e-01 1.250000064427e-01 2.416154844276e-01
-1.250000063583e-01 1.250000063844e-01 2.416154800686e-01
1.949186331157e-11 1.250000061084e-01 2.416154779738e-01
1.250000063972e-01 1.250000063844e-01 2.416154801057e-01
2.500000088208e-01 1.250000064426e-01 2.416154845018e-01
-2.500000093412e-01 2.500000093674e-01 2.416154892426e-01
-1.250000064165e-01 2.500000088080e-01 2.416154844529e-01
1.951535677222e-11 2.500000080466e-01 2.416154821085e-01
1.250000064555e-01 2.500000088080e-01 2.416154844900e-01
2.500000093803e-01 2.500000093673e-01 2.416154893168e-01
-2.500000070903e-01 -2.500000070969e-01 3.066154876739e-01
-1.250000046614e-01 -2.500000067731e-01 3.066154825364e-01
9.776802314300e-12 -2.500000062434e-01 3.066154798467e-01
1.250000046809e-01 -2.500000067732e-01 3.066154825734e-01
2.500000071099e-01 -2.500000070970e-01 3.066154877481e-01
-2.500000067665e-01 -1.250000046680e-01 3.066154825246e-01
-1.250000046722e-01 -1.250000046789e-01 3.066154776888e-01
9.800737937394e-12 -1.250000044888e-01 3.066154751650e-01
1.250000046919e-01 -1.250000046789e-01 3.066154777259e-01
2.500000067861e-01 -1.250000046681e-01 3.066154825987e-01
-2.500000062367e-01 3.188318467180e-12 3.066154798231e-01
-1.250000044821e-01 3.164687664108e-12 3.066154751532e-01
9.824554119613e-12 3.141017168645e-12 3.066154726364e-01
1.250000045017e-01 3.117275354848e-12 3.066154751903e-01
2.500000062564e-01 3.093485977954e-12 3.066154798973e-01
-2.500000067665e-01 1.250000046744e-01 3.066154825380e-01
-1.250000046722e-01 1.250000046852e-01 3.066154777023e-01
9.848166962455e-12 1.250000044951e-01 3.066154751785e-01
1.250000046919e-01 1.250000046852e-01 3.066154777394e-01
2.500000067862e-01 1.250000046743e-01 3.066154826122e-01
-2.500000070902e-01 2.500000071033e-01 3.066154877009e-01
-1.250000046613e-01 2.500000067795e-01 3.066154825633e-01
9.871652152881e-12 2.500000062497e-01 3.066154798737e-01
1.250000046810e-01 2.500000067794e-01 3.066154826004e-01
2.500000071100e-01 2.500000071032e-01 3.066154877750e-01
-2.500000049899e-01 -2.500000049903e-01 3.716154857656e-01
-1.250000031501e-01 -2.500000048463e-01 3.716154803370e-01
1.332418453385e-13 -2.500000045372e-01 3.716154774899e-01
1.250000031504e-01 -2.500000048464e-01 3.716154803741e-01
2.500000049901e-01 -2.500000049904e-01 3.716154858398e-01
-2.500000048458e-01 -1.250000031506e-01 3.716154803252e-01
-1.250000031560e-01 -1.250000031565e-01 3.716154751135e-01
1.571526629271e-13 -1.250000030502e-01 3.716154723891e-01
1.250000031563e-01 -1.250000031565e-01 3.716154751506e-01
2.500000048461e-01 -1.250000031507e-01 3.716154803994e-01
-2.500000045366e-01 -3.206971050193e-13 3.716154774664e-01
-1.250000030497e-01 -3.443324809373e-13 3.716154723773e-01
1.809667087817e-13 -3.680071318483e-13 3.716154696323e-01
1.250000030501e-01 -3.917534440292e-13 3.716154724144e-01
2.500000045370e-01 -4.155346990843e-13 3.716154775405e-01
-2.500000048458e-01 1.250000031499e-01 3.716154803387e-01
-1.250000031560e-01 1.250000031558e-01 3.716154751270e-01
2.045726340545e-13 1.250000030495e-01 3.716154724026e-01
1.250000031564e-01 1.250000031558e-01 3.716154751641e-01
2.500000048462e-01 1.250000031498e-01 3.716154804129e-01
-2.500000049898e-01 2.500000049897e-01 3.716154857926e-01
-1.250000031500e-01 2.500000048456e-01 3.716154803640e-01
2.280813047525e-13 2.500000045364e-01 3.716154775169e-01
1.250000031505e-01 2.500000048456e-01 3.716154804011e-01
2.500000049902e-01 2.500000049896e-01 3.716154858668e-01
-2.500000024241e-01 -2.500000024184e-01 4.366154844486e-01
-1.250000015020e-01 -2.500000024017e-01 4.366154787107e-01
-9.510264809155e-12 -2.500000022963e-01 4.366154757988e-01
1.250000014830e-01 -2.500000024018e-01 4.366154787478e-01
2.500000024050e-01 -2.500000024185e-01 4.366154845228e-01
-2.500000024074e-01 -1.250000014964e-01 4.366154786989e-01
-1.250000015046e-01 -1.250000014990e-01 4.366154731554e-01
-9.486378927623e-12 -1.250000014672e-01 4.366154703514e-01
1.250000014857e-01 -1.250000014991e-01 4.366154731925e-01
2.500000023884e-01 -1.250000014965e-01 4.366154787731e-01
-2.500000023019e-01 -3.829688310802e-12 4.366154757752e-01
-1.250000014728e-01 -3.853332781716e-12 4.366154703396e-01
-9.462564662552e-12 -3.877011675541e-12 4.366154675021e-01
1.250000014539e-01 -3.900761502679e-12 4.366154703767e-01
2.500000022830e-01 -3.924534692810e-12 4.366154758494e-01
-2.500000024073e-01 1.250000014887e-01 4.366154787124e-01
-1.250000015046e-01 1.250000014913e-01 4.366154731689e-01
-9.438966764102e-12 1.250000014595e-01 4.366154703649e-01
1.250000014857e-01 1.250000014913e-01 4.366154732060e-01
2.500000023884e-01 1.250000014886e-01 4.366154787866e-01
-2.500000024240e-01 2.500000024107e-01 4.366154844756e-01
-1.250000015020e-01 2.500000023940e-01 4.366154787377e-01
-9.415434286997e-12 2.500000022885e-01 4.366154758258e-01
1.250000014831e-01 2.500000023940e-01 4.366154787748e-01
2.500000024051e-01 2.500000024106e-01 4.366154845498e-01
-2.499999994175e-01 -2.499999994056e-01 5.016154839665e-01
-1.249999993815e-01 -2.499999995335e-01 5.016154781290e-01
-1.915385796321e-11 -2.499999996186e-01 5.016154752408e-01
1.249999993432e-01 -2.499999995336e-01 5.016154781661e-01
2.499999993792e-01 -2.499999994057e-01 5.016154840406e-01
-2.499999995453e-01 -1.249999993697e-01 5.016154781172e-01
-1.249999994129e-01 -1.249999994012e-01 5.016154724884e-01
-1.912995137803e-11 -1.249999994149e-01 5.016154697149e-01
1.249999993747e-01 -1.249999994012e-01 5.016154725255e-01
2.499999995070e-01 -1.249999993698e-01 5.016154781914e-01
-2.499999996303e-01 -7.338701663642e-12 5.016154752172e-01
-1.249999994266e-01 -7.362345670032e-12 5.016154697031e-01
-1.910613184760e-11 -7.386028466534e-12 5.016154669014e-01
1.249999993884e-01 -7.409792544367e-12 5.016154697402e-01
2.499999995921e-01 -7.433568607545e-12 5.016154752914e-01
-2.499999995452e-01 1.249999993550e-01 5.016154781307e-01
-1.249999994129e-01 1.249999993864e-01 5.016154725019e-01
-1.908255384892e-11 1.249999994001e-01 5.016154697284e-01
1.249999993747e-01 1.249999993864e-01 5.016154725390e-01
2.499999995071e-01 1.249999993549e-01 5.016154782049e-01
-2.499999994174e-01 2.499999993910e-01 5.016154839934e-01
-1.249999993814e-01 2.499999995188e-01 5.016154781560e-01
-1.905904296167e-11 2.499999996038e-01 5.016154752678e-01
1.249999993433e-01 2.499999995187e-01 5.016154781931e-01
2.499999993792e-01 2.499999993909e-01 5.016154840676e-01
CELLS 128 1152
8 0 1 6 5 25 26 31 30
8 1 2 7 6 26 27 32 31
8 2 3 8 7 27 28 33 32
8 3 4 9 8 28 29 34 33
8 5 6 11 10 30 31 36 35
8 6 7 12 11 31 32 37 36
8 7 8 13 12 32 33 38 37
8 8 9 14 13 33 34 39 38
8 10 11 16 15 35 36 41 40
8 11 12 17 16 36 37 42 41
8 12 13 18 17 37 38 43 42
8 13 14 19 18 38 39 44 43
8 15 16 21 20 40 41 46 45
8 16 17 22 21 41 42 47 46
8 17 18 23 22 42 43 48 47
8 18 19 24 23 43 44 49 48
8 25 26 31 30 50 51 56 55
8 26 27 32 31 51 52 57 56
8 27 28 33 32 52 53 58 57
8 28 29 34 33 53 54 59 58
8 30 31 36 35 55 56 61 60
8 31 32 37 36 56 57 62 61
8 32 33 38 37 57 58 63 62
8 33 34 39 38 58 59 64 63
8 35 36 41 40 60 61 66 65
8 36 37 42 41 61 62 67 66
8 37 38 43 42 62 63 68 67
8 38 39 44 43 63 64 69 68
8 40 41 46 45 65 66 71 70
8 41 42 47 46 66 67 72 71
8 42 43 48 47 67 68 73 72
8 43 44 49 48 68 69 74 73
8 50 51 56 55 75 76 81 80
8 51 52 57 56 76 77 82 81
8 52 53 58 57 77 78 83 82
8 53 54 59 58 78 79 84 83
8 55 56 61 60 80 81 86 85
8 56 57 62 61 81 82 87 86
8 57 58 63 62 82 83 88 87
8 58 59 64 63 83 84 89 88
8 60 61 66 65 85 86 91 90
8 61 62 67 66 86 87 92 91
8 62 63 68 67 87 88 93 92
8 63 64 69 68 88 89 94 93
8 65 66 71 70 90 91 96 95
8 66 67 72 71 91 92 97 96
8 67 68 73 72 92 93 98 97
8 68 69 74 73 93 94 99 98
8 75 76 81 80 100 101 106 105
8 76 77 82 81 101 102 107 106
8 77 78 83 82 102 103 108 107
8 78 79 84 83 103 104 109 108
8 80 81 86 85 105 106 111 110
8 81 82 87 86 106 107 112 111
8 82 83 88 87 107 108 113 112
8 83 84 89 88 108 109 114 113
8 85 86 91 90 110 111 116 115
8 86 87 92 91 111 112 117 116
8 87 88 93 92 112 113 118 117
8 88 89 94 93 113 114 119 118
8 90 91 96 95 115 116 121 120
8 91 92 97 96 116 117 122 121
8 92 93 98 97 117 118 123 122
8 93 94 99 98 118 119 124 123
8 125 126 131 130 150 151 156 155
8 126 127 132 131 151 152 157 156
8 127 128 133 132 152 153 158 157
8 128 129 134 133 153 154 159 158
8 130 131 136 135 155 156 161 160
8 131 132 137 136 156 157 162 161
8 132 133 138 137 157 158 163 162
8 133 134 139 138 158 159 164 163
8 135 136 141 140 160 161 166 165
8 136 137 142 141 161 162 167 166
8 137 138 143 142 162 163 168 167
8 138 139 144 143 163 164 169 168
8 140 141 146 145 165 166 171 170
8 141 142 147 146 166 167 172 171
8 142 143 148 147 167 168 173 172
8 143 144 149 148 168 169 174 173
8 150 151 156 155 175 176 181 180
8 151 152 157 156 176 177 182 181
8 152 153 158 157 177 178 183 182
8 153 154 159 158 178 179 184 183
8 155 156 161 160 180 181 186 185
8 156 157 162 161 181 182 187 186
8 157 158 163 162 182 183 188 187
8 158 159 164 163 183 184 189 188
8 160 161 166 165 185 186 191 190
8 161 162 167 166 186 187 192 191
8 162 163 168 167 187 188 193 192
8 163 164 169 168 188 189 194 193
8 165 166 171 170 190 191 196 195
8 166 167 172 171 191 192 197 196
8 167 168 173 172 192 193 198 197
8 168 169 174 173 193 194 199 198
8 175 176 181 180 200 201 206 205
8 176 177 182 181 201 202 207 206
8 177 178 183 182 202 203 208 207
8 178 179 184 183 203 204 209 208
8 180 181 186 185 205 206 211 210
8 181 182 187 186 206 207 212 211
8 182 183 188 187 207 208 213 212
8 183 184 189 188 208 209 214 213
8 185 186 191 190 210 211 216 215
8 186 187 192 191 211 212 217 216
8 187 188 193 192 212 213 218 217
8 188 189 194 193 213 214 219 218
8 190 191 196 195 215 216 221 220
8 191 192 197 196 216 217 222 221
8 192 193 198 197 217 218 223 222
8 193 194 199 198 218 219 224 223
8 200 201 206 205 225 226 231 230
8 201 202 207 206 226 227 232 231
8 202 203 208 207 227 228 233 232
8 203 204 209 208 228 229 234 233
8 205 206 211 210 230 231 236 235
8 206 207 212 211 231 232 237 236
8 207 208 213 212 232 233 238 237
8 208 209 214 213 233 234 239 238
8 210 211 216 215 235 236 241 240
8 211 212 217 216 236 237 242 241
8 212 213 218 217 237 238 243 242
8 213 214 219 218 238 239 244 243
8 215 216 221 220 240 241 246 245
8 216 217 222 221 241 242 247 246
8 217 218 223 222 242 243 248 247
8 218 219 224 223 243 244 249 248
CELL_TYPES 128
12
12
12
12
12
12
12
12
12
12
12
12
12
12
12
12
12
12
12
12
12
12
12
12
12
12
12
12
12
12
12
12
12
12
12
12
12
12
12
12
12
12
12
12
12
12
12
12
12
12
12
12
12
12
12
12
12
12
12
12
12
12
12
12
12
12
12
12
12
12
12
12
12
12
12
12
12
12
12
12
12
12
12
12
12
12
12
12
12
12
12
12
12
12
12
12
12
12
12
12
12
12
12
12
12
12
12
12
12
12
12
12
12
12
12
12
12
12
12
12
12
12
12
12
12
12
12
12
POINT_DATA 250
VECTORS displacement float
0.000000000000e+00 0.000000000000e+00 0.000000000000e+00
0.000000000000e+00 0.000000000000e+00 0.000000000000e+00
0.000000000000e+00 0.000000000000e+00 0.000000000000e+00
0.000000000000e+00 0.000000000000e+00 0.000000000000e+00
0.000000000000e+00 0.000000000000e+00 0.000000000000e+00
0.000000000000e+00 0.000000000000e+00 0.000000000000e+00
0.000000000000e+00 0.000000000000e+00 0.000000000000e+00
0.000000000000e+00 0.000000000000e+00 0.000000000000e+00
0.000000000000e+00 0.000000000000e+00 0.000000000000e+00
0.000000000000e+00 0.000000000000e+00 0.000000000000e+00
0.000000000000e+00 0.000000000000e+00 0.000000000000e+00
0.000000000000e+00 0.000000000000e+00 0.000000000000e+00
0.000000000000e+00 0.000000000000e+00 0.000000000000e+00
0.000000000000e+00 0.000000000000e+00 0.000000000000e+00
0.000000000000e+00 0.000000000000e+00 0.000000000000e+00
0.000000000000e+00 0.000000000000e+00 0.000000000000e+00
0.000000000000e+00 0.000000000000e+00 0.000000000000e+00
0.000000000000e+00 0.000000000000e+00 0.000000000000e+00
0.000000000000e+00 0.000000000000e+00 0.000000000000e+00
0.000000000000e+00 0.000000000000e+00 0.000000000000e+00
0.000000000000e+00 0.000000000000e+00 0.000000000000e+00
0.000000000000e+00 0.000000000000e+00 0.000000000000e+00
0.000000000000e+00 0.000000000000e+00 0.000000000000e+00
0.000000000000e+00 0.000000000000e+00 0.000000000000e+00
0.000000000000e+00 0.000000000000e+00 0.000000000000e+00
0.000000000000e+00 0.000000000000e+00 0.000000000000e+00
0.000000000000e+00 0.000000000000e+00 0.000000000000e+00
0.000000000000e+00 0.000000000000e+00 0.000000000000e+00
0.000000000000e+00 0.000000000000e+00 0.000000000000e+00
0.000000000000e+00 0.000000000000e+00 0.000000000000e+00
0.000000000000e+00 0.000000000000e+00 0.000000000000e+00
0.000000000000e+00 0.000000000000e+00 0.000000000000e+00
0.000000000000e+00 0.000000000000e+00 0.000000000000e+00
0.000000000000e+00 0.000000000000e+00 0.000000000000e+00
0.000000000000e+00 0.000000000000e+00 0.000000000000e+00
0.000000000000e+00 0.000000000000e+00 0.000000000000e+00
0.000000000000e+00 0.000000000000e+00 0.000000000000e+00
0.000000000000e+00 0.000000000000e+00 0.000000000000e+00
0.000000000000e+00 0.000000000000e+00 0.000000000000e+00
0.000000000000e+00 0.000000000000e+00 0.000000000000e+00
0.000000000000e+00 0.000000000000e+00 0.000000000000e+00
0.000000000000e+00 0.000000000000e+00 0.000000000000e+00
0.000000000000e+00 0.000000000000e+00 0.000000000000e+00
0.000000000000e+00 0.000000000000e+00 0.000000000000e+00
0.000000000000e+00 0.000000000000e+00 0.000000000000e+00
0.000000000000e+00 0.000000000000e+00 0.000000000000e+00
0.000000000000e+00 0.000000000000e+00 0.000000000000e+00
0.000000000000e+00 0.000000000000e+00 0.000000000000e+00
0.000000000000e+00 0.000000000000e+00 0.000000000000e+00
0.000000000000e+00 0.000000000000e+00 0.000000000000e+00
0.000000000000e+00 0.000000000000e+00 0.000000000000e+00
0.000000000000e+00 0.000000000000e+00 0.000000000000e+00
0.000000000000e+00 0.000000000000e+00 0.000000000000e+00
0.000000000000e+00 0.000000000000e+00 0.000000000000e+00
0.000000000000e+00 0.000000000000e+00 0.000000000000e+00
0.000000000000e+00 0.000000000000e+00 0.000000000000e+00
0.000000000000e+00 0.000000000000e+00 0.000000000000e+00
0.000000000000e+00 0.000000000000e+00 0.000000000000e+00
0.000000000000e+00 0.000000000000e+00 0.000000000000e+00
0.000000000000e+00 0.000000000000e+00 0.000000000000e+00
0.000000000000e+00 0.000000000000e+00 0.000000000000e+00
0.000000000000e+00 0.000000000000e+00 0.000000000000e+00
0.000000000000e+00 0.000000000000e+00 0.000000000000e+00
0.000000000000e+00 0.000000000000e+00 0.000000000000e+00
0.000000000000e+00 0.000000000000e+00 0.000000000000e+00
0.000000000000e+00 0.000000000000e+00 0.000000000000e+00
0.000000000000e+00 0.000000000000e+00 0.000000000000e+00
0.000000000000e+00 0.000000000000e+00 0.000000000000e+00
0.000000000000e+00 0.000000000000e+00 0.000000000000e+00
0.000000000000e+00 0.000000000000e+00 0.000000000000e+00
0.000000000000e+00 0.000000000000e+00 0.000000000000e+00
0.000000000000e+00 0.000000000000e+00 0.000000000000e+00
0.000000000000e+00 0.000000000000e+00 0.000000000000e+00
0.000000000000e+00 0.000000000000e+00 0.000000000000e+00
0.000000000000e+00 0.000000000000e+00 0.000000000000e+00
0.000000000000e+00 0.000000000000e+00 0.000000000000e+00
0.000000000000e+00 0.000000000000e+00 0.000000000000e+00
0.000000000000e+00 0.000000000000e+00 0.000000000000e+00
0.000000000000e+00 0.000000000000e+00 0.000000000000e+00
0.000000000000e+00 0.000000000000e+00 0.000000000000e+00
0.000000000000e+00 0.000000000000e+00 0.000000000000e+00
0.000000000000e+00 0.000000000000e+00 0.000000000000e+00
0.000000000000e+00 0.000000000000e+00 0.000000000000e+00
0.000000000000e+00 0.000000000000e+00 0.000000000000e+00
0.000000000000e+00 0.000000000000e+00 0.000000000000e+00
0.000000000000e+00 0.000000000000e+00 0.000000000000e+00
0.000000000000e+00 0.000000000000e+00 0.000000000000e+00
0.000000000000e+00 0.000000000000e+00 0.000000000000e+00
0.000000000000e+00 0.000000000000e+00 0.000000000000e+00
0.000000000000e+00 0.000000000000e+00 0.000000000000e+00
0.000000000000e+00 0.000000000000e+00 0.000000000000e+00
0.000000000000e+00 0.000000000000e+00 0.000000000000e+00
0.000000000000e+00 0.000000000000e+00 0.000000000000e+00
0.000000000000e+00 0.000000000000e+00 0.000000000000e+00
0.000000000000e+00 0.000000000000e+00 0.000000000000e+00
0.000000000000e+00 0.000000000000e+00 0.000000000000e+00
0.000000000000e+00 0.000000000000e+00 0.000000000000e+00
0.000000000000e+00 0.000000000000e+00 0.000000000000e+00
0.000000000000e+00 0.000000000000e+00 0.000000000000e+00
0.000000000000e+00 0.000000000000e+00 0.000000000000e+00
0.000000000000e+00 0.000000000000e+00 0.000000000000e+00
0.000000000000e+00 0.000000000000e+00 0.000000000000e+00
0.000000000000e+00 0.000000000000e+00 0.000000000000e+00
0.000000000000e+00 0.000000000000e+00 0.000000000000e+00
0.000000000000e+00 0.000000000000e+00 0.000000000000e+00
0.000000000000e+00 0.000000000000e+00 0.000000000000e+00
0.000000000000e+00 0.000000000000e+00 0.000000000000e+00
0.000000000000e+00 0.000000000000e+00 0.000000000000e+00
0.000000000000e+00 0.000000000000e+00 0.000000000000e+00
0.000000000000e+00 0.000000000000e+00 0.000000000000e+00
0.000000000000e+00 0.000000000000e+00 0.000000000000e+00
0.000000000000e+00 0.000000000000e+00 0.000000000000e+00
0.000000000000e+00 0.000000000000e+00 0.000000000000e+00
0.000000000000e+00 0.000000000000e+00 0.000000000000e+00
0.000000000000e+00 0.000000000000e+00 0.000000000000e+00
0.000000000000e+00 0.000000000000e+00 0.000000000000e+00
0.000000000000e+00 0.000000000000e+00 0.000000000000e+00
0.000000000000e+00 0.000000000000e+00 0.000000000000e+00
0.000000000000e+00 0.000000000000e+00 0.000000000000e+00
0.000000000000e+00 0.000000000000e+00 0.000000000000e+00
0.000000000000e+00 0.000000000000e+00 0.000000000000e+00
0.000000000000e+00 0.000000000000e+00 0.000000000000e+00
0.000000000000e+00 0.000000000000e+00 0.000000000000e+00
0.000000000000e+00 0.000000000000e+00 0.000000000000e+00
0.000000000000e+00 0.000000000000e+00 0.000000000000e+00
-9.341319211805e-09 -9.354041967127e-09 -1.338451078440e-02
-6.416592846688e-09 -8.794678558924e-09 -1.338451557412e-02
1.942049221825e-11 -8.033315930900e-09 -1.338451791851e-02
6.455433786094e-09 -8.794726503306e-09 -1.338451553703e-02
9.380160116679e-09 -9.354137823440e-09 -1.338451071022e-02
-8.781908093969e-09 -6.429315732962e-09 -1.338451558592e-02
-6.358310595714e-09 -6.371081151223e-09 -1.338451994491e-02
1.944442170325e-11 -6.095136222442e-09 -1.338452203968e-02
6.397199401130e-09 -6.371128903048e-09 -1.338451990782e-02
8.820796836627e-09 -6.429411220049e-09 -1.338451551174e-02
-8.020497810878e-09 6.697373662205e-12 -1.338451794210e-02
-6.082318071628e-09 6.673744531951e-12 -1.338452205148e-02
1.946823608564e-11 6.650076113106e-12 -1.338452408561e-02
6.121254504491e-09 6.626346740175e-12 -1.338452201439e-02
8.059434144387e-09 6.602558434760e-12 -1.338451786792e-02
-8.781860837645e-09 6.442710465161e-09 -1.338451557242e-02
-6.358263277671e-09 6.384428627480e-09 -1.338451993141e-02
1.949186331157e-11 6.108436364049e-09 -1.338452202618e-02
6.397246960594e-09 6.384381577500e-09 -1.338451989432e-02
8.820844457792e-09 6.442616320373e-09 -1.338451549824e-02
-9.341224709287e-09 9.367436689804e-09 -1.338451075741e-02
-6.416498215962e-09 8.808026020939e-09 -1.338451554713e-02
1.951535677222e-11 8.046616036248e-09 -1.338451789152e-02
6.455528888558e-09 8.807979159563e-09 -1.338451551004e-02
9.380255343621e-09 9.367342908369e-09 -1.338451068322e-02
-7.090313145868e-09 -7.096901344209e-09 -1.338451232613e-02
-4.661386375205e-09 -6.773148291513e-09 -1.338451746365e-02
9.776802314300e-12 -6.243408097701e-09 -1.338452015331e-02
4.680939996654e-09 -6.773196164254e-09 -1.338451742656e-02
7.109866807127e-09 -7.096997100039e-09 -1.338451225195e-02
-6.766512378822e-09 -4.667974673068e-09 -1.338451747545e-02
-4.672248753956e-09 -4.678884717041e-09 -1.338452231117e-02
9.800737937394e-12 -4.488768767136e-09 -1.338452483501e-02
4.691850246996e-09 -4.678932424887e-09 -1.338452227408e-02
6.786113891073e-09 -4.668070097199e-09 -1.338451740126e-02
-6.236724564431e-09 3.188318467180e-12 -1.338452017691e-02
-4.482085223518e-09 3.164687664108e-12 -1.338452484681e-02
9.824554119613e-12 3.141017168645e-12 -1.338452736361e-02
4.501734341323e-09 3.117275354848e-12 -1.338452480972e-02
6.256373663105e-09 3.093485977954e-12 -1.338452010273e-02
-6.766465116070e-09 4.674351316443e-09 -1.338451746195e-02
-4.672201432773e-09 4.685214100181e-09 -1.338452229767e-02
9.848166962455e-12 4.495050805951e-09 -1.338452482151e-02
4.691897780542e-09 4.685166984753e-09 -1.338452226058e-02
6.786161479755e-09 4.674257077156e-09 -1.338451738777e-02
-7.090218622471e-09 7.103278002484e-09 -1.338451229914e-02
-4.661291737863e-09 6.779477690357e-09 -1.338451743666e-02
9.871652152881e-12 6.249690132413e-09 -1.338452012632e-02
4.681035057495e-09 6.779430735591e-09 -1.338451739957e-02
7.109961990266e-09 7.103184098863e-09 -1.338451222495e-02
-4.989869476526e-09 -4.990323178122e-09 -1.338451423439e-02
-3.150130861861e-09 -4.846335034353e-09 -1.338451966296e-02
1.332418453385e-13 -4.537162612214e-09 -1.338452251005e-02
3.150397367592e-09 -4.846382823765e-09 -1.338451962586e-02
4.990136042612e-09 -4.990418812154e-09 -1.338451416021e-02
-4.845833638859e-09 -3.150584641876e-09 -1.338451967475e-02
-3.155999671513e-09 -3.156501092018e-09 -1.338452488654e-02
1.571526629271e-13 -3.050238689386e-09 -1.338452761087e-02
3.156314009361e-09 -3.156548747208e-09 -1.338452484945e-02
4.846148026828e-09 -3.150679985198e-09 -1.338451960057e-02
-4.536613624680e-09 -3.206971050193e-13 -1.338452253365e-02
-3.049689708816e-09 -3.443324809373e-13 -1.338452762267e-02
1.809667087817e-13 -3.680071318483e-13 -1.338453036772e-02
3.050051660997e-09 -3.917534440292e-13 -1.338452758557e-02
4.536975596285e-09 -4.155346990843e-13 -1.338452245946e-02
-4.845786356766e-09 3.149943264783e-09 -1.338451966126e-02
-3.155952336820e-09 3.155812442702e-09 -1.338452487304e-02
2.045726340545e-13 3.049502685888e-09 -1.338452759737e-02
3.156361512337e-09 3.155765254464e-09 -1.338452483595e-02
4.846195580031e-09 3.149848924905e-09 -1.338451958707e-02
-4.989774920515e-09 4.989681828567e-09 -1.338451420740e-02
-3.150036204629e-09 4.845646404159e-09 -1.338451963596e-02
2.280813047525e-13 4.536426617182e-09 -1.338452248306e-02
3.150492387943e-09 4.845599352194e-09 -1.338451959887e-02
4.990231163199e-09 4.989587773523e-09 -1.338451413322e-02
-2.424062573022e-09 -2.418381814086e-09 -1.338451555142e-02
-1.502045765429e-09 -2.401733327958e-09 -1.338452128928e-02
-9.510264809155e-12 -2.296301753045e-09 -1.338452420117e-02
1.483025258082e-09 -2.401781009377e-09 -1.338452125219e-02
2.405042103727e-09 -2.418477262577e-09 -1.338451547724e-02
-2.407366421793e-09 -1.496365063819e-09 -1.338452130108e-02
-1.504640275981e-09 -1.499007193305e-09 -1.338452684463e-02
-9.486378927623e-12 -1.467246814951e-09 -1.338452964856e-02
1.485667560714e-09 -1.499054784373e-09 -1.338452680754e-02
2.388393751040e-09 -1.496460312153e-09 -1.338452122690e-02
-2.301887293393e-09 -3.829688310802e-12 -1.338452422476e-02
-1.472832358928e-09 -3.853332781716e-12 -1.338452966036e-02
-9.462564662552e-12 -3.877011675541e-12 -1.338453249788e-02
1.453907257653e-09 -3.900761502679e-12 -1.338452962327e-02
2.282962208246e-09 -3.924534692810e-12 -1.338452415058e-02
-2.407319108727e-09 1.488705702269e-09 -1.338452128758e-02
-1.504592924820e-09 1.491300543281e-09 -1.338452683114e-02
-9.438966764102e-12 1.459492805684e-09 -1.338452963507e-02
1.485715031506e-09 1.491253273521e-09 -1.338452679404e-02
2.388441254503e-09 1.488611249417e-09 -1.338452121340e-02
-2.423967957619e-09 2.410722472946e-09 -1.338451552443e-02
-1.501951082200e-09 2.394026693334e-09 -1.338452126229e-02
-9.415434286997e-12 2.288547749845e-09 -1.338452417417e-02
1.483120233026e-09 2.393979513927e-09 -1.338452122520e-02
2.405137151350e-09 2.410628215479e-09 -1.338451545025e-02
5.825377968723e-10 5.943530196201e-10 -1.338451603355e-02
6.185048145112e-10 4.664906358896e-10 -1.338452187097e-02
-1.915385796321e-11 3.813848390653e-10 -1.338452475917e-02
-6.568124486431e-10 4.664430945336e-10 -1.338452183388e-02
-6.208453443309e-10 5.942577643807e-10 -1.338451595936e-02
4.547230557789e-10 6.303200314379e-10 -1.338452188276e-02
5.870711137026e-10 5.988387162627e-10 -1.338452751163e-02
-1.912995137803e-11 5.850795325951e-10 -1.338453028509e-02
-6.253309337141e-10 5.987911961016e-10 -1.338452747454e-02
-4.929827965407e-10 6.302248932865e-10 -1.338452180858e-02
3.696647766604e-10 -7.338701663642e-12 -1.338452478277e-02
5.733594551508e-10 -7.362345670032e-12 -1.338453029689e-02
-1.910613184760e-11 -7.386028466534e-12 -1.338453309860e-02
-6.115716406822e-10 -7.409792544367e-12 -1.338453025980e-02
-4.078769054635e-10 -7.433568607545e-12 -1.338452470858e-02
4.547704053692e-10 -6.449974145640e-10 -1.338452186927e-02
5.871184773051e-10 -6.135633830901e-10 -1.338452749814e-02
-1.908255384892e-11 -5.998515622222e-10 -1.338453027160e-02
-6.252835007128e-10 -6.136107447234e-10 -1.338452746104e-02
-4.929353490053e-10 -6.450920045960e-10 -1.338452179509e-02
5.826324599676e-10 -6.090303827103e-10 -1.338451600655e-02
6.185995295064e-10 -4.812152784777e-10 -1.338452184397e-02
-1.905904296167e-11 -3.961568410411e-10 -1.338452473218e-02
-6.567175308733e-10 -4.812626102764e-10 -1.338452180688e-02
-6.207503673710e-10 -6.091248493264e-10 -1.338451593237e-02
SCALARS displacement_magnitude float 1
LOOKUP_TABLE default
0.000000000000e+00
0.000000000000e+00
0.000000000000e+00
0.000000000000e+00
0.000000000000e+00
0.000000000000e+00
0.000000000000e+00
0.000000000000e+00
0.000000000000e+00
0.000000000000e+00
0.000000000000e+00
0.000000000000e+00
0.000000000000e+00
0.000000000000e+00
0.000000000000e+00
0.000000000000e+00
0.000000000000e+00
0.000000000000e+00
0.000000000000e+00
0.000000000000e+00
0.000000000000e+00
0.000000000000e+00
0.000000000000e+00
0.000000000000e+00
0.000000000000e+00
0.000000000000e+00
0.000000000000e+00
0.000000000000e+00
0.000000000000e+00
0.000000000000e+00
0.000000000000e+00
0.000000000000e+00
0.000000000000e+00
0.000000000000e+00
0.000000000000e+00
0.000000000000e+00
0.000000000000e+00
0.000000000000e+00
0.000000000000e+00
0.000000000000e+00
0.000000000000e+00
0.000000000000e+00
0.000000000000e+00
0.000000000000e+00
0.000000000000e+00
0.000000000000e+00
0.000000000000e+00
0.000000000000e+00
0.000000000000e+00
0.000000000000e+00
0.000000000000e+00
0.000000000000e+00
0.000000000000e+00
0.000000000000e+00
0.000000000000e+00
0.000000000000e+00
0.000000000000e+00
0.000000000000e+00
0.000000000000e+00
0.000000000000e+00
0.000000000000e+00
0.000000000000e+00
0.000000000000e+00
0.000000000000e+00
0.000000000000e+00
0.000000000000e+00
0.000000000000e+00
0.000000000000e+00
0.000000000000e+00
0.000000000000e+00
0.000000000000e+00
0.000000000000e+00
0.000000000000e+00
0.000000000000e+00
0.000000000000e+00
0.000000000000e+00
0.000000000000e+00
0.000000000000e+00
0.000000000000e+00
0.000000000000e+00
0.000000000000e+00
0.000000000000e+00
0.000000000000e+00
0.000000000000e+00
0.000000000000e+00
0.000000000000e+00
0.000000000000e+00
0.000000000000e+00
0.000000000000e+00
0.000000000000e+00
0.000000000000e+00
0.000000000000e+00
0.000000000000e+00
0.000000000000e+00
0.000000000000e+00
0.000000000000e+00
0.000000000000e+00
0.000000000000e+00
0.000000000000e+00
0.000000000000e+00
0.000000000000e+00
0.000000000000e+00
0.000000000000e+00
0.000000000000e+00
0.000000000000e+00
0.000000000000e+00
0.000000000000e+00
0.000000000000e+00
0.000000000000e+00
0.000000000000e+00
0.000000000000e+00
0.000000000000e+00
0.000000000000e+00
0.000000000000e+00
0.000000000000e+00
0.000000000000e+00
0.000000000000e+00
0.000000000000e+00
0.000000000000e+00
0.000000000000e+00
0.000000000000e+00
0.000000000000e+00
0.000000000000e+00
0.000000000000e+00
0.000000000000e+00
1.338451078441e-02
1.338451557413e-02
1.338451791851e-02
1.338451553704e-02
1.338451071022e-02
1.338451558592e-02
1.338451994491e-02
1.338452203968e-02
1.338451990782e-02
1.338451551174e-02
1.338451794211e-02
1.338452205148e-02
1.338452408561e-02
1.338452201439e-02
1.338451786793e-02
1.338451557243e-02
1.338451993141e-02
1.338452202618e-02
1.338451989432e-02
1.338451549825e-02
1.338451075741e-02
1.338451554713e-02
1.338451789152e-02
1.338451551004e-02
1.338451068323e-02
1.338451232613e-02
1.338451746365e-02
1.338452015332e-02
1.338451742656e-02
1.338451225195e-02
1.338451747545e-02
1.338452231117e-02
1.338452483501e-02
1.338452227408e-02
1.338451740127e-02
1.338452017691e-02
1.338452484681e-02
1.338452736361e-02
1.338452480972e-02
1.338452010273e-02
1.338451746195e-02
1.338452229768e-02
1.338452482151e-02
1.338452226059e-02
1.338451738777e-02
1.338451229914e-02
1.338451743666e-02
1.338452012632e-02
1.338451739957e-02
1.338451222496e-02
1.338451423440e-02
1.338451966296e-02
1.338452251005e-02
1.338451962587e-02
1.338451416021e-02
1.338451967475e-02
1.338452488654e-02
1.338452761087e-02
1.338452484945e-02
1.338451960057e-02
1.338452253365e-02
1.338452762267e-02
1.338453036772e-02
1.338452758558e-02
1.338452245947e-02
1.338451966126e-02
1.338452487304e-02
1.338452759737e-02
1.338452483595e-02
1.338451958708e-02
1.338451420740e-02
1.338451963596e-02
1.338452248306e-02
1.338451959887e-02
1.338451413322e-02
1.338451555142e-02
1.338452128928e-02
1.338452420117e-02
1.338452125219e-02
1.338451547724e-02
1.338452130108e-02
1.338452684463e-02
1.338452964856e-02
1.338452680754e-02
1.338452122690e-02
1.338452422476e-02
1.338452966036e-02
1.338453249788e-02
1.338452962327e-02
1.338452415058e-02
1.338452128758e-02
1.338452683114e-02
1.338452963507e-02
1.338452679404e-02
1.338452121340e-02
1.338451552443e-02
1.338452126229e-02
1.338452417417e-02
1.338452122520e-02
1.338451545025e-02
1.338451603355e-02
1.338452187097e-02
1.338452475917e-02
1.338452183388e-02
1.338451595936e-02
1.338452188276e-02
1.338452751163e-02
1.338453028509e-02
1.338452747454e-02
1.338452180858e-02
1.338452478277e-02
1.338453029689e-02
1.338453309860e-02
1.338453025980e-02
1.338452470858e-02
1.338452186927e-02
1.338452749814e-02
1.338453027160e-02
1.338452746104e-02
1.338452179509e-02
1.338451600655e-02
1.338452184397e-02
1.338452473218e-02
1.338452180688e-02
1.338451593237e-02
CELL_DATA 128
SCALARS displacement_magnitude float 1
LOOKUP_TABLE default
0.000000000000e+00
0.000000000000e+00
0.000000000000e+00
0.000000000000e+00
0.000000000000e+00
0.000000000000e+00
0.000000000000e+00
0.000000000000e+00
0.000000000000e+00
0.000000000000e+00
0.000000000000e+00
0.000000000000e+00
0.000000000000e+00
0.000000000000e+00
0.000000000000e+00
0.000000000000e+00
0.000000000000e+00
0.000000000000e+00
0.000000000000e+00
0.000000000000e+00
0.000000000000e+00
0.000000000000e+00
0.000000000000e+00
0.000000000000e+00
0.000000000000e+00
0.000000000000e+00
0.000000000000e+00
0.000000000000e+00
0.000000000000e+00
0.000000000000e+00
0.000000000000e+00
0.000000000000e+00
0.000000000000e+00
0.000000000000e+00
0.000000000000e+00
0.000000000000e+00
0.000000000000e+00
0.000000000000e+00
0.000000000000e+00
0.000000000000e+00
0.000000000000e+00
0.000000000000e+00
0.000000000000e+00
0.000000000000e+00
0.000000000000e+00
0.000000000000e+00
0.000000000000e+00
0.000000000000e+00
0.000000000000e+00
0.000000000000e+00
0.000000000000e+00
0.000000000000e+00
0.000000000000e+00
0.000000000000e+00
0.000000000000e+00
0.000000000000e+00
0.000000000000e+00
0.000000000000e+00
0.000000000000e+00
0.000000000000e+00
0.000000000000e+00
0.000000000000e+00
0.000000000000e+00
0.000000000000e+00
1.338451643322e-02
1.338452003005e-02
1.338452001150e-02
1.338451637759e-02
1.338452004185e-02
1.338452343478e-02
1.338452341624e-02
1.338451998621e-02
1.338452003510e-02
1.338452342804e-02
1.338452340949e-02
1.338451997946e-02
1.338451641298e-02
1.338452000980e-02
1.338451999126e-02
1.338451635734e-02
1.338451850438e-02
1.338452242920e-02
1.338452241065e-02
1.338451844874e-02
1.338452244099e-02
1.338452623055e-02
1.338452621200e-02
1.338452238536e-02
1.338452243424e-02
1.338452622380e-02
1.338452620526e-02
1.338452237861e-02
1.338451848414e-02
1.338452240895e-02
1.338452239041e-02
1.338451842850e-02
1.338452043063e-02
1.338452458176e-02
1.338452456321e-02
1.338452037500e-02
1.338452459355e-02
1.338452864240e-02
1.338452862386e-02
1.338452453792e-02
1.338452458681e-02
1.338452863566e-02
1.338452861711e-02
1.338452453117e-02
1.338452041039e-02
1.338452456151e-02
1.338452454297e-02
1.338452035475e-02
1.338452153567e-02
1.338452580131e-02
1.338452578277e-02
1.338452148003e-02
1.338452581311e-02
1.338452998046e-02
1.338452996191e-02
1.338452575747e-02
1.338452580636e-02
1.338452997371e-02
1.338452995516e-02
1.338452575073e-02
1.338452151542e-02
1.338452578107e-02
1.338452576252e-02
1.338452145979e-02
SCALARS engineering_strain_norm float 1
LOOKUP_TABLE default
0.000000000000e+00
0.000000000000e+00
0.000000000000e+00
0.000000000000e+00
0.000000000000e+00
0.000000000000e+00
0.000000000000e+00
0.000000000000e+00
0.000000000000e+00
0.000000000000e+00
0.000000000000e+00
0.000000000000e+00
0.000000000000e+00
0.000000000000e+00
0.000000000000e+00
0.000000000000e+00
0.000000000000e+00
0.000000000000e+00
0.000000000000e+00
0.000000000000e+00
0.000000000000e+00
0.000000000000e+00
0.000000000000e+00
0.000000000000e+00
0.000000000000e+00
0.000000000000e+00
0.000000000000e+00
0.000000000000e+00
0.000000000000e+00
0.000000000000e+00
0.000000000000e+00
0.000000000000e+00
0.000000000000e+00
0.000000000000e+00
0.000000000000e+00
0.000000000000e+00
0.000000000000e+00
0.000000000000e+00
0.000000000000e+00
0.000000000000e+00
0.000000000000e+00
0.000000000000e+00
0.000000000000e+00
0.000000000000e+00
0.000000000000e+00
0.000000000000e+00
0.000000000000e+00
0.000000000000e+00
0.000000000000e+00
0.000000000000e+00
0.000000000000e+00
0.000000000000e+00
0.000000000000e+00
0.000000000000e+00
0.000000000000e+00
0.000000000000e+00
0.000000000000e+00
0.000000000000e+00
0.000000000000e+00
0.000000000000e+00
0.000000000000e+00
0.000000000000e+00
0.000000000000e+00
0.000000000000e+00
4.260795770762e-08
6.030859794672e-08
6.030859856843e-08
4.260796001492e-08
6.030859690204e-08
7.542114356644e-08
7.542114478016e-08
6.030860096911e-08
6.030859710640e-08
7.542114403944e-08
7.542114523519e-08
6.030860119808e-08
4.260795852279e-08
6.030859947186e-08
6.030860008613e-08
4.260796085588e-08
4.569122569882e-08
5.423209746960e-08
5.423209910109e-08
4.569122913716e-08
5.423209662821e-08
6.258518449409e-08
6.258518623580e-08
5.423210095405e-08
5.423209722923e-08
6.258518517062e-08
6.258518690561e-08
5.423210159172e-08
4.569122691035e-08
5.423209907695e-08
5.423210072888e-08
4.569123039402e-08
3.381694697182e-08
3.849068801482e-08
3.849069001457e-08
3.381694995891e-08
3.849068750406e-08
4.305003774992e-08
4.305003958803e-08
3.849069114095e-08
3.849068826024e-08
4.305003845851e-08
4.305004029271e-08
3.849069191055e-08
3.381694808388e-08
3.849068932829e-08
3.849069140145e-08
3.381695105342e-08
1.419883059833e-08
1.453099914802e-08
1.453100077696e-08
1.419883223535e-08
1.453099919209e-08
1.439439083173e-08
1.439439217636e-08
1.453100089833e-08
1.453099971757e-08
1.439439132932e-08
1.439439273713e-08
1.453100147628e-08
1.419883120525e-08
1.453099979396e-08
1.453100151331e-08
1.419883275070e-08
SCALARS von_mises float 1
LOOKUP_TABLE default
0.000000000000e+00
0.000000000000e+00
0.000000000000e+00
0.000000000000e+00
0.000000000000e+00
0.000000000000e+00
0.000000000000e+00
0.000000000000e+00
0.000000000000e+00
0.000000000000e+00
0.000000000000e+00
0.000000000000e+00
0.000000000000e+00
0.000000000000e+00
0.000000000000e+00
0.000000000000e+00
0.000000000000e+00
0.000000000000e+00
0.000000000000e+00
0.000000000000e+00
0.000000000000e+00
0.000000000000e+00
0.000000000000e+00
0.000000000000e+00
0.000000000000e+00
0.000000000000e+00
0.000000000000e+00
0.000000000000e+00
0.000000000000e+00
0.000000000000e+00
0.000000000000e+00
0.000000000000e+00
0.000000000000e+00
0.000000000000e+00
0.000000000000e+00
0.000000000000e+00
0.000000000000e+00
0.000000000000e+00
0.000000000000e+00
0.000000000000e+00
0.000000000000e+00
0.000000000000e+00
0.000000000000e+00
0.000000000000e+00
0.000000000000e+00
0.000000000000e+00
0.000000000000e+00
0.000000000000e+00
0.000000000000e+00
0.000000000000e+00
0.000000000000e+00
0.000000000000e+00
0.000000000000e+00
0.000000000000e+00
0.000000000000e+00
0.000000000000e+00
0.000000000000e+00
0.000000000000e+00
0.000000000000e+00
0.000000000000e+00
0.000000000000e+00
0.000000000000e+00
0.000000000000e+00
0.000000000000e+00
3.886437859258e-03
5.464996788558e-03
5.464996841452e-03
3.886438079503e-03
5.464996689378e-03
6.678594467122e-03
6.678594577979e-03
5.464997073142e-03
5.464996707283e-03
6.678594511335e-03
6.678594619694e-03
5.464997092042e-03
3.886437938654e-03
5.464996934739e-03
5.464996985507e-03
3.886438160463e-03
4.090868361962e-03
4.956725799405e-03
4.956725922972e-03
4.090868672292e-03
4.956725710418e-03
5.734059792981e-03
5.734059940273e-03
4.956726116949e-03
4.956725758069e-03
5.734059850721e-03
5.734059995446e-03
4.956726164105e-03
4.090868473613e-03
4.956725951591e-03
4.956726073848e-03
4.090868786594e-03
2.974905208431e-03
3.470854570815e-03
3.470854707011e-03
2.974905467485e-03
3.470854506075e-03
3.936994311754e-03
3.936994452679e-03
3.470854843345e-03
3.470854562322e-03
3.936994367643e-03
3.936994505056e-03
3.470854894787e-03
2.974905307279e-03
3.470854693723e-03
3.470854832913e-03
2.974905563550e-03
1.176555557873e-03
1.203957132550e-03
1.203957244888e-03
1.176555704159e-03
1.203957117368e-03
1.196320187894e-03
1.196320292942e-03
1.203957291667e-03
1.203957156244e-03
1.196320227593e-03
1.196320336117e-03
1.203957328950e-03
1.176555612123e-03
1.203957197565e-03
1.203957315682e-03
1.176555753459e-03
SCALARS sdf_gap float 1
LOOKUP_TABLE default
0.000000000000e+00
0.000000000000e+00
0.000000000000e+00
0.000000000000e+00
0.000000000000e+00
0.000000000000e+00
0.000000000000e+00
0.000000000000e+00
0.000000000000e+00
0.000000000000e+00
0.000000000000e+00
0.000000000000e+00
0.000000000000e+00
0.000000000000e+00
0.000000000000e+00
0.000000000000e+00
0.000000000000e+00
0.000000000000e+00
0.000000000000e+00
0.000000000000e+00
0.000000000000e+00
0.000000000000e+00
0.000000000000e+00
0.000000000000e+00
0.000000000000e+00
0.000000000000e+00
0.000000000000e+00
0.000000000000e+00
0.000000000000e+00
0.000000000000e+00
0.000000000000e+00
0.000000000000e+00
0.000000000000e+00
0.000000000000e+00
0.000000000000e+00
0.000000000000e+00
0.000000000000e+00
0.000000000000e+00
0.000000000000e+00
0.000000000000e+00
0.000000000000e+00
0.000000000000e+00
0.000000000000e+00
0.000000000000e+00
0.000000000000e+00
0.000000000000e+00
0.000000000000e+00
0.000000000000e+00
0.000000000000e+00
0.000000000000e+00
0.000000000000e+00
0.000000000000e+00
0.000000000000e+00
0.000000000000e+00
0.000000000000e+00
0.000000000000e+00
0.000000000000e+00
0.000000000000e+00
0.000000000000e+00
0.000000000000e+00
0.000000000000e+00
0.000000000000e+00
0.000000000000e+00
0.000000000000e+00
1.615484527663e-03
1.615481130695e-03
1.615481149241e-03
1.615484583300e-03
1.615481118898e-03
1.615477969581e-03
1.615477988127e-03
1.615481174535e-03
1.615481125646e-03
1.615477976329e-03
1.615477994875e-03
1.615481181283e-03
1.615484547907e-03
1.615481150940e-03
1.615481169485e-03
1.615484603544e-03
0.000000000000e+00
0.000000000000e+00
0.000000000000e+00
0.000000000000e+00
0.000000000000e+00
0.000000000000e+00
0.000000000000e+00
0.000000000000e+00
0.000000000000e+00
0.000000000000e+00
0.000000000000e+00
0.000000000000e+00
0.000000000000e+00
0.000000000000e+00
0.000000000000e+00
0.000000000000e+00
0.000000000000e+00
0.000000000000e+00
0.000000000000e+00
0.000000000000e+00
0.000000000000e+00
0.000000000000e+00
0.000000000000e+00
0.000000000000e+00
0.000000000000e+00
0.000000000000e+00
0.000000000000e+00
0.000000000000e+00
0.000000000000e+00
0.000000000000e+00
0.000000000000e+00
0.000000000000e+00
0.000000000000e+00
0.000000000000e+00
0.000000000000e+00
0.000000000000e+00
0.000000000000e+00
0.000000000000e+00
0.000000000000e+00
0.000000000000e+00
0.000000000000e+00
0.000000000000e+00
0.000000000000e+00
0.000000000000e+00
0.000000000000e+00
0.000000000000e+00
0.000000000000e+00
0.000000000000e+00
SCALARS contact_pressure float 1
LOOKUP_TABLE default
0.000000000000e+00
0.000000000000e+00
0.000000000000e+00
0.000000000000e+00
0.000000000000e+00
0.000000000000e+00
0.000000000000e+00
0.000000000000e+00
0.000000000000e+00
0.000000000000e+00
0.000000000000e+00
0.000000000000e+00
0.000000000000e+00
0.000000000000e+00
0.000000000000e+00
0.000000000000e+00
0.000000000000e+00
0.000000000000e+00
0.000000000000e+00
0.000000000000e+00
0.000000000000e+00
0.000000000000e+00
0.000000000000e+00
0.000000000000e+00
0.000000000000e+00
0.000000000000e+00
0.000000000000e+00
0.000000000000e+00
0.000000000000e+00
0.000000000000e+00
0.000000000000e+00
0.000000000000e+00
0.000000000000e+00
0.000000000000e+00
0.000000000000e+00
0.000000000000e+00
0.000000000000e+00
0.000000000000e+00
0.000000000000e+00
0.000000000000e+00
0.000000000000e+00
0.000000000000e+00
0.000000000000e+00
0.000000000000e+00
0.000000000000e+00
0.000000000000e+00
0.000000000000e+00
0.000000000000e+00
0.000000000000e+00
0.000000000000e+00
0.000000000000e+00
0.000000000000e+00
0.000000000000e+00
0.000000000000e+00
0.000000000000e+00
0.000000000000e+00
0.000000000000e+00
0.000000000000e+00
0.000000000000e+00
0.000000000000e+00
0.000000000000e+00
0.000000000000e+00
0.000000000000e+00
0.000000000000e+00
0.000000000000e+00
0.000000000000e+00
0.000000000000e+00
0.000000000000e+00
0.000000000000e+00
0.000000000000e+00
0.000000000000e+00
0.000000000000e+00
0.000000000000e+00
0.000000000000e+00
0.000000000000e+00
0.000000000000e+00
0.000000000000e+00
0.000000000000e+00
0.000000000000e+00
0.000000000000e+00
0.000000000000e+00
0.000000000000e+00
0.000000000000e+00
0.000000000000e+00
0.000000000000e+00
0.000000000000e+00
0.000000000000e+00
0.000000000000e+00
0.000000000000e+00
0.000000000000e+00
0.000000000000e+00
0.000000000000e+00
0.000000000000e+00
0.000000000000e+00
0.000000000000e+00
0.000000000000e+00
0.000000000000e+00
0.000000000000e+00
0.000000000000e+00
0.000000000000e+00
0.000000000000e+00
0.000000000000e+00
0.000000000000e+00
0.000000000000e+00
0.000000000000e+00
0.000000000000e+00
0.000000000000e+00
0.000000000000e+00
0.000000000000e+00
0.000000000000e+00
0.000000000000e+00
0.000000000000e+00
0.000000000000e+00
0.000000000000e+00
0.000000000000e+00
0.000000000000e+00
0.000000000000e+00
0.000000000000e+00
0.000000000000e+00
0.000000000000e+00
0.000000000000e+00
0.000000000000e+00
0.000000000000e+00
0.000000000000e+00
0.000000000000e+00
0.000000000000e+00
0.000000000000e+00
0.000000000000e+00
SCALARS active_contact float 1
LOOKUP_TABLE default
0.000000000000e+00
0.000000000000e+00
0.000000000000e+00
0.000000000000e+00
0.000000000000e+00
0.000000000000e+00
0.000000000000e+00
0.000000000000e+00
0.000000000000e+00
0.000000000000e+00
0.000000000000e+00
0.000000000000e+00
0.000000000000e+00
0.000000000000e+00
0.000000000000e+00
0.000000000000e+00
0.000000000000e+00
0.000000000000e+00
0.000000000000e+00
0.000000000000e+00
0.000000000000e+00
0.000000000000e+00
0.000000000000e+00
0.000000000000e+00
0.000000000000e+00
0.000000000000e+00
0.000000000000e+00
0.000000000000e+00
0.000000000000e+00
0.000000000000e+00
0.000000000000e+00
0.000000000000e+00
0.000000000000e+00
0.000000000000e+00
0.000000000000e+00
0.000000000000e+00
0.000000000000e+00
0.000000000000e+00
0.000000000000e+00
0.000000000000e+00
0.000000000000e+00
0.000000000000e+00
0.000000000000e+00
0.000000000000e+00
0.000000000000e+00
0.000000000000e+00
0.000000000000e+00
0.000000000000e+00
0.000000000000e+00
0.000000000000e+00
0.000000000000e+00
0.000000000000e+00
0.000000000000e+00
0.000000000000e+00
0.000000000000e+00
0.000000000000e+00
0.000000000000e+00
0.000000000000e+00
0.000000000000e+00
0.000000000000e+00
0.000000000000e+00
0.000000000000e+00
0.000000000000e+00
0.000000000000e+00
0.000000000000e+00
0.000000000000e+00
0.000000000000e+00
0.000000000000e+00
0.000000000000e+00
0.000000000000e+00
0.000000000000e+00
0.000000000000e+00
0.000000000000e+00
0.000000000000e+00
0.000000000000e+00
0.000000000000e+00
0.000000000000e+00
0.000000000000e+00
0.000000000000e+00
0.000000000000e+00
0.000000000000e+00
0.000000000000e+00
0.000000000000e+00
0.000000000000e+00
0.000000000000e+00
0.000000000000e+00
0.000000000000e+00
0.000000000000e+00
0.000000000000e+00
0.000000000000e+00
0.000000000000e+00
0.000000000000e+00
0.000000000000e+00
0.000000000000e+00
0.000000000000e+00
0.000000000000e+00
0.000000000000e+00
0.000000000000e+00
0.000000000000e+00
0.000000000000e+00
0.000000000000e+00
0.000000000000e+00
0.000000000000e+00
0.000000000000e+00
0.000000000000e+00
0.000000000000e+00
0.000000000000e+00
0.000000000000e+00
0.000000000000e+00
0.000000000000e+00
0.000000000000e+00
0.000000000000e+00
0.000000000000e+00
0.000000000000e+00
0.000000000000e+00
0.000000000000e+00
0.000000000000e+00
0.000000000000e+00
0.000000000000e+00
0.000000000000e+00
0.000000000000e+00
0.000000000000e+00
0.000000000000e+00
0.000000000000e+00
0.000000000000e+00
0.000000000000e+00
0.000000000000e+00
0.000000000000e+00
