# vtk DataFile Version 3.0
SFC long-time C3D8 dynamic frame 149 t=2.980000000000e+00
ASCII
DATASET UNSTRUCTURED_GRID
POINTS 250 float
-2.500000000000e-01 -2.500000000000e-01 0.000000000000e+00
-1.250000000000e-01 -2.500000000000e-01 0.000000000000e+00
0.000000000000e+00 -2.500000000000e-01 0.000000000000e+00
1.250000000000e-01 -2.500000000000e-01 0.000000000000e+00
2.500000000000e-01 -2.500000000000e-01 0.000000000000e+00
-2.500000000000e-01 -1.250000000000e-01 0.000000000000e+00
-1.250000000000e-01 -1.250000000000e-01 0.000000000000e+00
0.000000000000e+00 -1.250000000000e-01 0.000000000000e+00
1.250000000000e-01 -1.250000000000e-01 0.000000000000e+00
2.500000000000e-01 -1.250000000000e-01 0.000000000000e+00
-2.500000000000e-01 0.000000000000e+00 0.000000000000e+00
-1.250000000000e-01 0.000000000000e+00 0.000000000000e+00
0.000000000000e+00 0.000000000000e+00 0.000000000000e+00
1.250000000000e-01 0.000000000000e+00 0.000000000000e+00
2.500000000000e-01 0.000000000000e+00 0.000000000000e+00
-2.500000000000e-01 1.250000000000e-01 0.000000000000e+00
-1.250000000000e-01 1.250000000000e-01 0.000000000000e+00
0.000000000000e+00 1.250000000000e-01 0.000000000000e+00
1.250000000000e-01 1.250000000000e-01 0.000000000000e+00
2.500000000000e-01 1.250000000000e-01 0.000000000000e+00
-2.500000000000e-01 2.500000000000e-01 0.000000000000e+00
-1.250000000000e-01 2.500000000000e-01 0.000000000000e+00
0.000000000000e+00 2.500000000000e-01 0.000000000000e+00
1.250000000000e-01 2.500000000000e-01 0.000000000000e+00
2.500000000000e-01 2.500000000000e-01 0.000000000000e+00
-2.500000000000e-01 -2.500000000000e-01 6.000000000000e-02
-1.250000000000e-01 -2.500000000000e-01 6.000000000000e-02
0.000000000000e+00 -2.500000000000e-01 6.000000000000e-02
1.250000000000e-01 -2.500000000000e-01 6.000000000000e-02
2.500000000000e-01 -2.500000000000e-01 6.000000000000e-02
-2.500000000000e-01 -1.250000000000e-01 6.000000000000e-02
-1.250000000000e-01 -1.250000000000e-01 6.000000000000e-02
0.000000000000e+00 -1.250000000000e-01 6.000000000000e-02
1.250000000000e-01 -1.250000000000e-01 6.000000000000e-02
2.500000000000e-01 -1.250000000000e-01 6.000000000000e-02
-2.500000000000e-01 0.000000000000e+00 6.000000000000e-02
-1.250000000000e-01 0.000000000000e+00 6.000000000000e-02
0.000000000000e+00 0.000000000000e+00 6.000000000000e-02
1.250000000000e-01 0.000000000000e+00 6.000000000000e-02
2.500000000000e-01 0.000000000000e+00 6.000000000000e-02
-2.500000000000e-01 1.250000000000e-01 6.000000000000e-02
-1.250000000000e-01 1.250000000000e-01 6.000000000000e-02
0.000000000000e+00 1.250000000000e-01 6.000000000000e-02
1.250000000000e-01 1.250000000000e-01 6.000000000000e-02
2.500000000000e-01 1.250000000000e-01 6.000000000000e-02
-2.500000000000e-01 2.500000000000e-01 6.000000000000e-02
-1.250000000000e-01 2.500000000000e-01 6.000000000000e-02
0.000000000000e+00 2.500000000000e-01 6.000000000000e-02
1.250000000000e-01 2.500000000000e-01 6.000000000000e-02
2.500000000000e-01 2.500000000000e-01 6.000000000000e-02
-2.500000000000e-01 -2.500000000000e-01 1.200000000000e-01
-1.250000000000e-01 -2.500000000000e-01 1.200000000000e-01
0.000000000000e+00 -2.500000000000e-01 1.200000000000e-01
1.250000000000e-01 -2.500000000000e-01 1.200000000000e-01
2.500000000000e-01 -2.500000000000e-01 1.200000000000e-01
-2.500000000000e-01 -1.250000000000e-01 1.200000000000e-01
-1.250000000000e-01 -1.250000000000e-01 1.200000000000e-01
0.000000000000e+00 -1.250000000000e-01 1.200000000000e-01
1.250000000000e-01 -1.250000000000e-01 1.200000000000e-01
2.500000000000e-01 -1.250000000000e-01 1.200000000000e-01
-2.500000000000e-01 0.000000000000e+00 1.200000000000e-01
-1.250000000000e-01 0.000000000000e+00 1.200000000000e-01
0.000000000000e+00 0.000000000000e+00 1.200000000000e-01
1.250000000000e-01 0.000000000000e+00 1.200000000000e-01
2.500000000000e-01 0.000000000000e+00 1.200000000000e-01
-2.500000000000e-01 1.250000000000e-01 1.200000000000e-01
-1.250000000000e-01 1.250000000000e-01 1.200000000000e-01
0.000000000000e+00 1.250000000000e-01 1.200000000000e-01
1.250000000000e-01 1.250000000000e-01 1.200000000000e-01
2.500000000000e-01 1.250000000000e-01 1.200000000000e-01
-2.500000000000e-01 2.500000000000e-01 1.200000000000e-01
-1.250000000000e-01 2.500000000000e-01 1.200000000000e-01
0.000000000000e+00 2.500000000000e-01 1.200000000000e-01
1.250000000000e-01 2.500000000000e-01 1.200000000000e-01
2.500000000000e-01 2.500000000000e-01 1.200000000000e-01
-2.500000000000e-01 -2.500000000000e-01 1.800000000000e-01
-1.250000000000e-01 -2.500000000000e-01 1.800000000000e-01
0.000000000000e+00 -2.500000000000e-01 1.800000000000e-01
1.250000000000e-01 -2.500000000000e-01 1.800000000000e-01
2.500000000000e-01 -2.500000000000e-01 1.800000000000e-01
-2.500000000000e-01 -1.250000000000e-01 1.800000000000e-01
-1.250000000000e-01 -1.250000000000e-01 1.800000000000e-01
0.000000000000e+00 -1.250000000000e-01 1.800000000000e-01
1.250000000000e-01 -1.250000000000e-01 1.800000000000e-01
2.500000000000e-01 -1.250000000000e-01 1.800000000000e-01
-2.500000000000e-01 0.000000000000e+00 1.800000000000e-01
-1.250000000000e-01 0.000000000000e+00 1.800000000000e-01
0.000000000000e+00 0.000000000000e+00 1.800000000000e-01
1.250000000000e-01 0.000000000000e+00 1.800000000000e-01
2.500000000000e-01 0.000000000000e+00 1.800000000000e-01
-2.500000000000e-01 1.250000000000e-01 1.800000000000e-01
-1.250000000000e-01 1.250000000000e-01 1.800000000000e-01
0.000000000000e+00 1.250000000000e-01 1.800000000000e-01
1.250000000000e-01 1.250000000000e-01 1.800000000000e-01
2.500000000000e-01 1.250000000000e-01 1.800000000000e-01
-2.500000000000e-01 2.500000000000e-01 1.800000000000e-01
-1.250000000000e-01 2.500000000000e-01 1.800000000000e-01
0.000000000000e+00 2.500000000000e-01 1.800000000000e-01
1.250000000000e-01 2.500000000000e-01 1.800000000000e-01
2.500000000000e-01 2.500000000000e-01 1.800000000000e-01
-2.500000000000e-01 -2.500000000000e-01 2.400000000000e-01
-1.250000000000e-01 -2.500000000000e-01 2.400000000000e-01
0.000000000000e+00 -2.500000000000e-01 2.400000000000e-01
1.250000000000e-01 -2.500000000000e-01 2.400000000000e-01
2.500000000000e-01 -2.500000000000e-01 2.400000000000e-01
-2.500000000000e-01 -1.250000000000e-01 2.400000000000e-01
-1.250000000000e-01 -1.250000000000e-01 2.400000000000e-01
0.000000000000e+00 -1.250000000000e-01 2.400000000000e-01
1.250000000000e-01 -1.250000000000e-01 2.400000000000e-01
2.500000000000e-01 -1.250000000000e-01 2.400000000000e-01
-2.500000000000e-01 0.000000000000e+00 2.400000000000e-01
-1.250000000000e-01 0.000000000000e+00 2.400000000000e-01
0.000000000000e+00 0.000000000000e+00 2.400000000000e-01
1.250000000000e-01 0.000000000000e+00 2.400000000000e-01
2.500000000000e-01 0.000000000000e+00 2.400000000000e-01
-2.500000000000e-01 1.250000000000e-01 2.400000000000e-01
-1.250000000000e-01 1.250000000000e-01 2.400000000000e-01
0.000000000000e+00 1.250000000000e-01 2.400000000000e-01
1.250000000000e-01 1.250000000000e-01 2.400000000000e-01
2.500000000000e-01 1.250000000000e-01 2.400000000000e-01
-2.500000000000e-01 2.500000000000e-01 2.400000000000e-01
-1.250000000000e-01 2.500000000000e-01 2.400000000000e-01
0.000000000000e+00 2.500000000000e-01 2.400000000000e-01
1.250000000000e-01 2.500000000000e-01 2.400000000000e-01
2.500000000000e-01 2.500000000000e-01 2.400000000000e-01
-2.500000038596e-01 -2.500000040195e-01 2.433977059473e-01
-1.250000026683e-01 -2.500000025784e-01 2.433977244803e-01
2.481298458743e-10 -2.499999994990e-01 2.433977342905e-01
1.250000031646e-01 -2.500000025786e-01 2.433977249561e-01
2.500000043558e-01 -2.500000040199e-01 2.433977068989e-01
-2.500000024183e-01 -1.250000028282e-01 2.433977243287e-01
-1.250000024426e-01 -1.250000026027e-01 2.433977429377e-01
2.482341817005e-10 -1.250000007450e-01 2.433977526494e-01
1.250000029391e-01 -1.250000026030e-01 2.433977434135e-01
2.500000029147e-01 -1.250000028286e-01 2.433977252803e-01
-2.499999993387e-01 8.824471074058e-11 2.433977339872e-01
-1.250000005847e-01 8.813963359583e-11 2.433977524977e-01
2.483387455883e-10 8.803462884174e-11 2.433977621383e-01
1.250000010813e-01 8.792984547813e-11 2.433977529735e-01
2.499999998354e-01 8.782515793809e-11 2.433977349388e-01
-2.500000024181e-01 1.250000030047e-01 2.433977245012e-01
-1.250000024424e-01 1.250000027790e-01 2.433977431102e-01
2.484439037218e-10 1.250000009210e-01 2.433977528219e-01
1.250000029393e-01 1.250000027788e-01 2.433977435860e-01
2.500000029150e-01 1.250000030043e-01 2.433977254528e-01
-2.500000038591e-01 2.500000041959e-01 2.433977062923e-01
-1.250000026679e-01 2.500000027546e-01 2.433977248253e-01
2.485493127503e-10 2.499999996751e-01 2.433977346355e-01
1.250000031650e-01 2.500000027544e-01 2.433977253011e-01
2.500000043562e-01 2.500000041955e-01 2.433977072439e-01
-2.500000118742e-01 -2.500000119552e-01 3.083977065410e-01
-1.250000101130e-01 -2.500000101772e-01 3.083977238110e-01
1.244251714692e-10 -2.500000065813e-01 3.083977326793e-01
1.250000103618e-01 -2.500000101774e-01 3.083977242868e-01
2.500000121230e-01 -2.500000119556e-01 3.083977074926e-01
-2.500000100959e-01 -1.250000101940e-01 3.083977236594e-01
-1.250000099855e-01 -1.250000100668e-01 3.083977405953e-01
1.245294599487e-10 -1.250000081805e-01 3.083977491544e-01
1.250000102346e-01 -1.250000100670e-01 3.083977410711e-01
2.500000103450e-01 -1.250000101944e-01 3.083977246110e-01
-2.500000064999e-01 4.339462257249e-11 3.083977323760e-01
-1.250000080991e-01 4.328953471506e-11 3.083977490028e-01
1.246339831012e-10 4.318452443673e-11 3.083977574736e-01
1.250000083483e-01 4.307976558618e-11 3.083977494786e-01
2.500000067491e-01 4.297509866475e-11 3.083977333276e-01
-2.500000100957e-01 1.250000102808e-01 3.083977238319e-01
-1.250000099853e-01 1.250000101533e-01 3.083977407678e-01
1.247391986899e-10 1.250000082669e-01 3.083977493269e-01
1.250000102348e-01 1.250000101531e-01 3.083977412436e-01
2.500000103452e-01 1.250000102804e-01 3.083977247835e-01
-2.500000118738e-01 2.500000120420e-01 3.083977068860e-01
-1.250000101125e-01 2.500000102637e-01 3.083977241560e-01
1.248446621094e-10 2.500000066677e-01 3.083977330243e-01
1.250000103622e-01 2.500000102635e-01 3.083977246318e-01
2.500000121235e-01 2.500000120416e-01 3.083977078376e-01
-2.500000180693e-01 -2.500000180715e-01 3.733977124691e-01
-1.250000160180e-01 -2.500000159185e-01 3.733977268539e-01
7.205313677670e-13 -2.500000117321e-01 3.733977333201e-01
1.250000160195e-01 -2.500000159187e-01 3.733977273297e-01
2.500000180708e-01 -2.500000180719e-01 3.733977134206e-01
-2.500000159161e-01 -1.250000160202e-01 3.733977267023e-01
-1.250000159852e-01 -1.250000159876e-01 3.733977401560e-01
8.248425702410e-13 -1.250000140229e-01 3.733977458783e-01
1.250000159868e-01 -1.250000159878e-01 3.733977406317e-01
2.500000159177e-01 -1.250000160206e-01 3.733977276538e-01
-2.500000117295e-01 -1.455447170814e-12 3.733977330168e-01
-1.250000140203e-01 -1.560529235200e-12 3.733977457267e-01
9.293408123990e-13 -1.665543085612e-12 3.733977510365e-01
1.250000140222e-01 -1.770281769493e-12 3.733977462024e-01
2.500000117314e-01 -1.874954574014e-12 3.733977339684e-01
-2.500000159159e-01 1.250000160173e-01 3.733977268748e-01
-1.250000159850e-01 1.250000159844e-01 3.733977403285e-01
1.034596668530e-12 1.250000140196e-01 3.733977460508e-01
1.250000159870e-01 1.250000159842e-01 3.733977408042e-01
2.500000159179e-01 1.250000160169e-01 3.733977278263e-01
-2.500000180689e-01 2.500000180686e-01 3.733977128141e-01
-1.250000160176e-01 2.500000159153e-01 3.733977271989e-01
1.140038795405e-12 2.500000117288e-01 3.733977336651e-01
1.250000160199e-01 2.500000159151e-01 3.733977276747e-01
2.500000180712e-01 2.500000180682e-01 3.733977137656e-01
-2.500000250943e-01 -2.500000250176e-01 4.383977193967e-01
-1.250000202095e-01 -2.500000224432e-01 4.383977306053e-01
-1.229844146915e-10 -2.500000176852e-01 4.383977343474e-01
1.250000199636e-01 -2.500000224434e-01 4.383977310811e-01
2.500000248483e-01 -2.500000250180e-01 4.383977203482e-01
-2.500000225197e-01 -1.250000201329e-01 4.383977304536e-01
-1.250000201516e-01 -1.250000200752e-01 4.383977398926e-01
-1.228800728590e-10 -1.250000178833e-01 4.383977423325e-01
1.250000199059e-01 -1.250000200754e-01 4.383977403684e-01
2.500000222739e-01 -1.250000201333e-01 4.383977314052e-01
-2.500000177615e-01 -4.630562981380e-11 4.383977340441e-01
-1.250000179596e-01 -4.641070167734e-11 4.383977421809e-01
-1.227756082315e-10 -4.651572464756e-11 4.383977438114e-01
1.250000177140e-01 -4.662043769525e-11 4.383977426567e-01
2.500000175159e-01 -4.672512175869e-11 4.383977349957e-01
-2.500000225195e-01 1.250000200403e-01 4.383977306261e-01
-1.250000201514e-01 1.250000199823e-01 4.383977400651e-01
-1.226703006888e-10 1.250000177903e-01 4.383977425050e-01
1.250000199061e-01 1.250000199821e-01 4.383977405409e-01
2.500000222741e-01 1.250000200398e-01 4.383977315777e-01
-2.500000250939e-01 2.500000249250e-01 4.383977197417e-01
-1.250000202091e-01 2.500000223504e-01 4.383977309503e-01
-1.225648908310e-10 2.500000175922e-01 4.383977346924e-01
1.250000199640e-01 2.500000223502e-01 4.383977314261e-01
2.500000248488e-01 2.500000249246e-01 4.383977206932e-01
-2.500000309738e-01 -2.500000308183e-01 5.033977211962e-01
-1.250000230593e-01 -2.500000273922e-01 5.033977299667e-01
-2.466895825642e-10 -2.500000218333e-01 5.033977315437e-01
1.250000225660e-01 -2.500000273924e-01 5.033977304425e-01
2.500000304804e-01 -2.500000308187e-01 5.033977221478e-01
-2.500000275476e-01 -1.250000229038e-01 5.033977298150e-01
-1.250000224135e-01 -1.250000222581e-01 5.033977359890e-01
-2.465852893017e-10 -1.250000194821e-01 5.033977357903e-01
1.250000219203e-01 -1.250000222584e-01 5.033977364648e-01
2.500000270544e-01 -1.250000229042e-01 5.033977307666e-01
-2.500000219884e-01 -9.115589333005e-11 5.033977312404e-01
-1.250000196372e-01 -9.126098090361e-11 5.033977356387e-01
-2.464808786723e-10 -9.136601950783e-11 5.033977344373e-01
1.250000191443e-01 -9.147070020066e-11 5.033977361145e-01
2.500000214955e-01 -9.157535510574e-11 5.033977321920e-01
-2.500000275473e-01 1.250000227215e-01 5.033977299875e-01
-1.250000224133e-01 1.250000220756e-01 5.033977361615e-01
-2.463755016574e-10 1.250000192994e-01 5.033977359629e-01
1.250000219205e-01 1.250000220754e-01 5.033977366373e-01
2.500000270546e-01 1.250000227211e-01 5.033977309391e-01
-2.500000309734e-01 2.500000306360e-01 5.033977215412e-01
-1.250000230589e-01 2.500000272097e-01 5.033977303117e-01
-2.462700308492e-10 2.500000216506e-01 5.033977318887e-01
1.250000225664e-01 2.500000272095e-01 5.033977307875e-01
2.500000304808e-01 2.500000306355e-01 5.033977224928e-01
CELLS 128 1152
8 0 1 6 5 25 26 31 30
8 1 2 7 6 26 27 32 31
8 2 3 8 7 27 28 33 32
8 3 4 9 8 28 29 34 33
8 5 6 11 10 30 31 36 35
8 6 7 12 11 31 32 37 36
8 7 8 13 12 32 33 38 37
8 8 9 14 13 33 34 39 38
8 10 11 16 15 35 36 41 40
8 11 12 17 16 36 37 42 41
8 12 13 18 17 37 38 43 42
8 13 14 19 18 38 39 44 43
8 15 16 21 20 40 41 46 45
8 16 17 22 21 41 42 47 46
8 17 18 23 22 42 43 48 47
8 18 19 24 23 43 44 49 48
8 25 26 31 30 50 51 56 55
8 26 27 32 31 51 52 57 56
8 27 28 33 32 52 53 58 57
8 28 29 34 33 53 54 59 58
8 30 31 36 35 55 56 61 60
8 31 32 37 36 56 57 62 61
8 32 33 38 37 57 58 63 62
8 33 34 39 38 58 59 64 63
8 35 36 41 40 60 61 66 65
8 36 37 42 41 61 62 67 66
8 37 38 43 42 62 63 68 67
8 38 39 44 43 63 64 69 68
8 40 41 46 45 65 66 71 70
8 41 42 47 46 66 67 72 71
8 42 43 48 47 67 68 73 72
8 43 44 49 48 68 69 74 73
8 50 51 56 55 75 76 81 80
8 51 52 57 56 76 77 82 81
8 52 53 58 57 77 78 83 82
8 53 54 59 58 78 79 84 83
8 55 56 61 60 80 81 86 85
8 56 57 62 61 81 82 87 86
8 57 58 63 62 82 83 88 87
8 58 59 64 63 83 84 89 88
8 60 61 66 65 85 86 91 90
8 61 62 67 66 86 87 92 91
8 62 63 68 67 87 88 93 92
8 63 64 69 68 88 89 94 93
8 65 66 71 70 90 91 96 95
8 66 67 72 71 91 92 97 96
8 67 68 73 72 92 93 98 97
8 68 69 74 73 93 94 99 98
8 75 76 81 80 100 101 106 105
8 76 77 82 81 101 102 107 106
8 77 78 83 82 102 103 108 107
8 78 79 84 83 103 104 109 108
8 80 81 86 85 105 106 111 110
8 81 82 87 86 106 107 112 111
8 82 83 88 87 107 108 113 112
8 83 84 89 88 108 109 114 113
8 85 86 91 90 110 111 116 115
8 86 87 92 91 111 112 117 116
8 87 88 93 92 112 113 118 117
8 88 89 94 93 113 114 119 118
8 90 91 96 95 115 116 121 120
8 91 92 97 96 116 117 122 121
8 92 93 98 97 117 118 123 122
8 93 94 99 98 118 119 124 123
8 125 126 131 130 150 151 156 155
8 126 127 132 131 151 152 157 156
8 127 128 133 132 152 153 158 157
8 128 129 134 133 153 154 159 158
8 130 131 136 135 155 156 161 160
8 131 132 137 136 156 157 162 161
8 132 133 138 137 157 158 163 162
8 133 134 139 138 158 159 164 163
8 135 136 141 140 160 161 166 165
8 136 137 142 141 161 162 167 166
8 137 138 143 142 162 163 168 167
8 138 139 144 143 163 164 169 168
8 140 141 146 145 165 166 171 170
8 141 142 147 146 166 167 172 171
8 142 143 148 147 167 168 173 172
8 143 144 149 148 168 169 174 173
8 150 151 156 155 175 176 181 180
8 151 152 157 156 176 177 182 181
8 152 153 158 157 177 178 183 182
8 153 154 159 158 178 179 184 183
8 155 156 161 160 180 181 186 185
8 156 157 162 161 181 182 187 186
8 157 158 163 162 182 183 188 187
8 158 159 164 163 183 184 189 188
8 160 161 166 165 185 186 191 190
8 161 162 167 166 186 187 192 191
8 162 163 168 167 187 188 193 192
8 163 164 169 168 188 189 194 193
8 165 166 171 170 190 191 196 195
8 166 167 172 171 191 192 197 196
8 167 168 173 172 192 193 198 197
8 168 169 174 173 193 194 199 198
8 175 176 181 180 200 201 206 205
8 176 177 182 181 201 202 207 206
8 177 178 183 182 202 203 208 207
8 178 179 184 183 203 204 209 208
8 180 181 186 185 205 206 211 210
8 181 182 187 186 206 207 212 211
8 182 183 188 187 207 208 213 212
8 183 184 189 188 208 209 214 213
8 185 186 191 190 210 211 216 215
8 186 187 192 191 211 212 217 216
8 187 188 193 192 212 213 218 217
8 188 189 194 193 213 214 219 218
8 190 191 196 195 215 216 221 220
8 191 192 197 196 216 217 222 221
8 192 193 198 197 217 218 223 222
8 193 194 199 198 218 219 224 223
8 200 201 206 205 225 226 231 230
8 201 202 207 206 226 227 232 231
8 202 203 208 207 227 228 233 232
8 203 204 209 208 228 229 234 233
8 205 206 211 210 230 231 236 235
8 206 207 212 211 231 232 237 236
8 207 208 213 212 232 233 238 237
8 208 209 214 213 233 234 239 238
8 210 211 216 215 235 236 241 240
8 211 212 217 216 236 237 242 241
8 212 213 218 217 237 238 243 242
8 213 214 219 218 238 239 244 243
8 215 216 221 220 240 241 246 245
8 216 217 222 221 241 242 247 246
8 217 218 223 222 242 243 248 247
8 218 219 224 223 243 244 249 248
CELL_TYPES 128
12
12
12
12
12
12
12
12
12
12
12
12
12
12
12
12
12
12
12
12
12
12
12
12
12
12
12
12
12
12
12
12
12
12
12
12
12
12
12
12
12
12
12
12
12
12
12
12
12
12
12
12
12
12
12
12
12
12
12
12
12
12
12
12
12
12
12
12
12
12
12
12
12
12
12
12
12
12
12
12
12
12
12
12
12
12
12
12
12
12
12
12
12
12
12
12
12
12
12
12
12
12
12
12
12
12
12
12
12
12
12
12
12
12
12
12
12
12
12
12
12
12
12
12
12
12
12
12
POINT_DATA 250
VECTORS displacement float
0.000000000000e+00 0.000000000000e+00 0.000000000000e+00
0.000000000000e+00 0.000000000000e+00 0.000000000000e+00
0.000000000000e+00 0.000000000000e+00 0.000000000000e+00
0.000000000000e+00 0.000000000000e+00 0.000000000000e+00
0.000000000000e+00 0.000000000000e+00 0.000000000000e+00
0.000000000000e+00 0.000000000000e+00 0.000000000000e+00
0.000000000000e+00 0.000000000000e+00 0.000000000000e+00
0.000000000000e+00 0.000000000000e+00 0.000000000000e+00
0.000000000000e+00 0.000000000000e+00 0.000000000000e+00
0.000000000000e+00 0.000000000000e+00 0.000000000000e+00
0.000000000000e+00 0.000000000000e+00 0.000000000000e+00
0.000000000000e+00 0.000000000000e+00 0.000000000000e+00
0.000000000000e+00 0.000000000000e+00 0.000000000000e+00
0.000000000000e+00 0.000000000000e+00 0.000000000000e+00
0.000000000000e+00 0.000000000000e+00 0.000000000000e+00
0.000000000000e+00 0.000000000000e+00 0.000000000000e+00
0.000000000000e+00 0.000000000000e+00 0.000000000000e+00
0.000000000000e+00 0.000000000000e+00 0.000000000000e+00
0.000000000000e+00 0.000000000000e+00 0.000000000000e+00
0.000000000000e+00 0.000000000000e+00 0.000000000000e+00
0.000000000000e+00 0.000000000000e+00 0.000000000000e+00
0.000000000000e+00 0.000000000000e+00 0.000000000000e+00
0.000000000000e+00 0.000000000000e+00 0.000000000000e+00
0.000000000000e+00 0.000000000000e+00 0.000000000000e+00
0.000000000000e+00 0.000000000000e+00 0.000000000000e+00
0.000000000000e+00 0.000000000000e+00 0.000000000000e+00
0.000000000000e+00 0.000000000000e+00 0.000000000000e+00
0.000000000000e+00 0.000000000000e+00 0.000000000000e+00
0.000000000000e+00 0.000000000000e+00 0.000000000000e+00
0.000000000000e+00 0.000000000000e+00 0.000000000000e+00
0.000000000000e+00 0.000000000000e+00 0.000000000000e+00
0.000000000000e+00 0.000000000000e+00 0.000000000000e+00
0.000000000000e+00 0.000000000000e+00 0.000000000000e+00
0.000000000000e+00 0.000000000000e+00 0.000000000000e+00
0.000000000000e+00 0.000000000000e+00 0.000000000000e+00
0.000000000000e+00 0.000000000000e+00 0.000000000000e+00
0.000000000000e+00 0.000000000000e+00 0.000000000000e+00
0.000000000000e+00 0.000000000000e+00 0.000000000000e+00
0.000000000000e+00 0.000000000000e+00 0.000000000000e+00
0.000000000000e+00 0.000000000000e+00 0.000000000000e+00
0.000000000000e+00 0.000000000000e+00 0.000000000000e+00
0.000000000000e+00 0.000000000000e+00 0.000000000000e+00
0.000000000000e+00 0.000000000000e+00 0.000000000000e+00
0.000000000000e+00 0.000000000000e+00 0.000000000000e+00
0.000000000000e+00 0.000000000000e+00 0.000000000000e+00
0.000000000000e+00 0.000000000000e+00 0.000000000000e+00
0.000000000000e+00 0.000000000000e+00 0.000000000000e+00
0.000000000000e+00 0.000000000000e+00 0.000000000000e+00
0.000000000000e+00 0.000000000000e+00 0.000000000000e+00
0.000000000000e+00 0.000000000000e+00 0.000000000000e+00
0.000000000000e+00 0.000000000000e+00 0.000000000000e+00
0.000000000000e+00 0.000000000000e+00 0.000000000000e+00
0.000000000000e+00 0.000000000000e+00 0.000000000000e+00
0.000000000000e+00 0.000000000000e+00 0.000000000000e+00
0.000000000000e+00 0.000000000000e+00 0.000000000000e+00
0.000000000000e+00 0.000000000000e+00 0.000000000000e+00
0.000000000000e+00 0.000000000000e+00 0.000000000000e+00
0.000000000000e+00 0.000000000000e+00 0.000000000000e+00
0.000000000000e+00 0.000000000000e+00 0.000000000000e+00
0.000000000000e+00 0.000000000000e+00 0.000000000000e+00
0.000000000000e+00 0.000000000000e+00 0.000000000000e+00
0.000000000000e+00 0.000000000000e+00 0.000000000000e+00
0.000000000000e+00 0.000000000000e+00 0.000000000000e+00
0.000000000000e+00 0.000000000000e+00 0.000000000000e+00
0.000000000000e+00 0.000000000000e+00 0.000000000000e+00
0.000000000000e+00 0.000000000000e+00 0.000000000000e+00
0.000000000000e+00 0.000000000000e+00 0.000000000000e+00
0.000000000000e+00 0.000000000000e+00 0.000000000000e+00
0.000000000000e+00 0.000000000000e+00 0.000000000000e+00
0.000000000000e+00 0.000000000000e+00 0.000000000000e+00
0.000000000000e+00 0.000000000000e+00 0.000000000000e+00
0.000000000000e+00 0.000000000000e+00 0.000000000000e+00
0.000000000000e+00 0.000000000000e+00 0.000000000000e+00
0.000000000000e+00 0.000000000000e+00 0.000000000000e+00
0.000000000000e+00 0.000000000000e+00 0.000000000000e+00
0.000000000000e+00 0.000000000000e+00 0.000000000000e+00
0.000000000000e+00 0.000000000000e+00 0.000000000000e+00
0.000000000000e+00 0.000000000000e+00 0.000000000000e+00
0.000000000000e+00 0.000000000000e+00 0.000000000000e+00
0.000000000000e+00 0.000000000000e+00 0.000000000000e+00
0.000000000000e+00 0.000000000000e+00 0.000000000000e+00
0.000000000000e+00 0.000000000000e+00 0.000000000000e+00
0.000000000000e+00 0.000000000000e+00 0.000000000000e+00
0.000000000000e+00 0.000000000000e+00 0.000000000000e+00
0.000000000000e+00 0.000000000000e+00 0.000000000000e+00
0.000000000000e+00 0.000000000000e+00 0.000000000000e+00
0.000000000000e+00 0.000000000000e+00 0.000000000000e+00
0.000000000000e+00 0.000000000000e+00 0.000000000000e+00
0.000000000000e+00 0.000000000000e+00 0.000000000000e+00
0.000000000000e+00 0.000000000000e+00 0.000000000000e+00
0.000000000000e+00 0.000000000000e+00 0.000000000000e+00
0.000000000000e+00 0.000000000000e+00 0.000000000000e+00
0.000000000000e+00 0.000000000000e+00 0.000000000000e+00
0.000000000000e+00 0.000000000000e+00 0.000000000000e+00
0.000000000000e+00 0.000000000000e+00 0.000000000000e+00
0.000000000000e+00 0.000000000000e+00 0.000000000000e+00
0.000000000000e+00 0.000000000000e+00 0.000000000000e+00
0.000000000000e+00 0.000000000000e+00 0.000000000000e+00
0.000000000000e+00 0.000000000000e+00 0.000000000000e+00
0.000000000000e+00 0.000000000000e+00 0.000000000000e+00
0.000000000000e+00 0.000000000000e+00 0.000000000000e+00
0.000000000000e+00 0.000000000000e+00 0.000000000000e+00
0.000000000000e+00 0.000000000000e+00 0.000000000000e+00
0.000000000000e+00 0.000000000000e+00 0.000000000000e+00
0.000000000000e+00 0.000000000000e+00 0.000000000000e+00
0.000000000000e+00 0.000000000000e+00 0.000000000000e+00
0.000000000000e+00 0.000000000000e+00 0.000000000000e+00
0.000000000000e+00 0.000000000000e+00 0.000000000000e+00
0.000000000000e+00 0.000000000000e+00 0.000000000000e+00
0.000000000000e+00 0.000000000000e+00 0.000000000000e+00
0.000000000000e+00 0.000000000000e+00 0.000000000000e+00
0.000000000000e+00 0.000000000000e+00 0.000000000000e+00
0.000000000000e+00 0.000000000000e+00 0.000000000000e+00
0.000000000000e+00 0.000000000000e+00 0.000000000000e+00
0.000000000000e+00 0.000000000000e+00 0.000000000000e+00
0.000000000000e+00 0.000000000000e+00 0.000000000000e+00
0.000000000000e+00 0.000000000000e+00 0.000000000000e+00
0.000000000000e+00 0.000000000000e+00 0.000000000000e+00
0.000000000000e+00 0.000000000000e+00 0.000000000000e+00
0.000000000000e+00 0.000000000000e+00 0.000000000000e+00
0.000000000000e+00 0.000000000000e+00 0.000000000000e+00
0.000000000000e+00 0.000000000000e+00 0.000000000000e+00
0.000000000000e+00 0.000000000000e+00 0.000000000000e+00
0.000000000000e+00 0.000000000000e+00 0.000000000000e+00
0.000000000000e+00 0.000000000000e+00 0.000000000000e+00
-3.859564778947e-09 -4.019450280708e-09 -1.160229405268e-02
-2.668343519525e-09 -2.578369859450e-09 -1.160227551966e-02
2.481298458743e-10 5.009927643369e-10 -1.160226570947e-02
3.164602517937e-09 -2.578578725363e-09 -1.160227504387e-02
4.355823123336e-09 -4.019867358712e-09 -1.160229310110e-02
-2.418275557213e-09 -2.828229009415e-09 -1.160227567130e-02
-2.442648950661e-09 -2.602743438673e-09 -1.160225706233e-02
2.482341817005e-10 -7.449582087000e-10 -1.160224735062e-02
2.939116404779e-09 -2.602952502050e-09 -1.160225658655e-02
2.914742225785e-09 -2.828646758007e-09 -1.160227471973e-02
6.612963194738e-10 8.824471074058e-11 -1.160226601276e-02
-5.846544078140e-10 8.813963359583e-11 -1.160224750226e-02
2.483387455883e-10 8.803462884174e-11 -1.160223786169e-02
1.081330937899e-09 8.792984547813e-11 -1.160224702647e-02
-1.646205115203e-10 8.782515793809e-11 -1.160226506118e-02
-2.418065509199e-09 3.004718171715e-09 -1.160227549880e-02
-2.442438971186e-09 2.779022370343e-09 -1.160225688983e-02
2.484439037218e-10 9.210271272382e-10 -1.160224717812e-02
2.939325862451e-09 2.778811867096e-09 -1.160225641404e-02
2.914951614474e-09 3.004296824978e-09 -1.160227454723e-02
-3.859144416244e-09 4.195939202716e-09 -1.160229370767e-02
-2.667923395423e-09 2.754648499851e-09 -1.160227517466e-02
2.485493127503e-10 -3.249240951101e-10 -1.160226536447e-02
3.165021326468e-09 2.754437819117e-09 -1.160227469887e-02
4.356241681321e-09 4.195517185264e-09 -1.160229275610e-02
-1.187419087323e-08 -1.195522191783e-08 -1.160229345897e-02
-1.011295765984e-08 -1.017716374902e-08 -1.160227618897e-02
1.244251714692e-10 -6.581302306284e-09 -1.160226732068e-02
1.036180768516e-08 -1.017737272019e-08 -1.160227571318e-02
1.212304046691e-08 -1.195563912735e-08 -1.160229250739e-02
-1.009592391533e-08 -1.019398858957e-08 -1.160227634061e-02
-9.985527434809e-09 -1.006676735912e-08 -1.160225940466e-02
1.245294599487e-10 -8.180530025850e-09 -1.160225084556e-02
1.023458584096e-08 -1.006697661192e-08 -1.160225892888e-02
1.034498175564e-08 -1.019440660316e-08 -1.160227538903e-02
-6.499853201213e-09 4.339462257249e-11 -1.160226762396e-02
-8.099080746936e-09 4.328953471506e-11 -1.160225099720e-02
1.246339831012e-10 4.318452443673e-11 -1.160224252641e-02
8.348348154001e-09 4.307976558618e-11 -1.160225052142e-02
6.749120078552e-09 4.297509866475e-11 -1.160226667239e-02
-1.009571389090e-08 1.028077772319e-08 -1.160227616811e-02
-9.985317506721e-09 1.015334623571e-08 -1.160225923216e-02
1.247391986899e-10 8.266898868728e-09 -1.160225067306e-02
1.023479538703e-08 1.015313595165e-08 -1.160225875638e-02
1.034519120355e-08 1.028035668938e-08 -1.160227521653e-02
-1.187377053468e-08 1.204201089756e-08 -1.160229311397e-02
-1.011253761997e-08 1.026374241755e-08 -1.160227584397e-02
1.248446621094e-10 6.667670956730e-09 -1.160226697568e-02
1.036222662661e-08 1.026353185557e-08 -1.160227536818e-02
1.212345911220e-08 1.204158905618e-08 -1.160229216239e-02
-1.806931025028e-08 -1.807148677039e-08 -1.160228753093e-02
-1.601804850956e-08 -1.591846694973e-08 -1.160227314609e-02
7.205313677670e-13 -1.173211656148e-08 -1.160226667988e-02
1.601948947658e-08 -1.591867602472e-08 -1.160227267030e-02
1.807075085370e-08 -1.807190411460e-08 -1.160228657936e-02
-1.591608165209e-08 -1.602022485539e-08 -1.160227329773e-02
-1.598518553955e-08 -1.598757090423e-08 -1.160225984404e-02
8.248425702410e-13 -1.402289909773e-08 -1.160225412171e-02
1.598683490008e-08 -1.598778034400e-08 -1.160225936825e-02
1.591773043483e-08 -1.602064311141e-08 -1.160227234615e-02
-1.172952198275e-08 -1.455447170814e-12 -1.160226698317e-02
-1.402030433653e-08 -1.560529235200e-12 -1.160225427335e-02
9.293408123990e-13 -1.665543085612e-12 -1.160224896346e-02
1.402216263804e-08 -1.770281769493e-12 -1.160225379756e-02
1.173137970717e-08 -1.874954574014e-12 -1.160226603159e-02
-1.591587164742e-08 1.601731392850e-08 -1.160227312523e-02
-1.598497566768e-08 1.598444972576e-08 -1.160225967154e-02
1.034596668530e-12 1.401956787143e-08 -1.160225394920e-02
1.598704453707e-08 1.598423965938e-08 -1.160225919575e-02
1.591793993926e-08 1.601689316703e-08 -1.160227217365e-02
-1.806888995335e-08 1.806857571236e-08 -1.160228718593e-02
-1.601762854431e-08 1.591534556050e-08 -1.160227280108e-02
1.140038795405e-12 1.172878512107e-08 -1.160226633488e-02
1.601990852568e-08 1.591513512579e-08 -1.160227232530e-02
1.807116957240e-08 1.806815404165e-08 -1.160228623436e-02
-2.509430936243e-08 -2.501763117208e-08 -1.160228060333e-02
-2.020954784817e-08 -2.244319653084e-08 -1.160226939472e-02
-1.229844146915e-10 -1.768521983581e-08 -1.160226565261e-02
1.996357918426e-08 -2.244340587892e-08 -1.160226891893e-02
2.484834071318e-08 -2.501804895744e-08 -1.160227965175e-02
-2.251966588909e-08 -2.013286942837e-08 -1.160226954636e-02
-2.015163313157e-08 -2.007516376238e-08 -1.160226010742e-02
-1.228800728590e-10 -1.788329146187e-08 -1.160225766746e-02
1.990587289116e-08 -2.007537338977e-08 -1.160225963163e-02
2.227390539758e-08 -2.013328792647e-08 -1.160226859478e-02
-1.776147986530e-08 -4.630562981380e-11 -1.160226595590e-02
-1.795955139903e-08 -4.641070167734e-11 -1.160225781910e-02
-1.227756082315e-10 -4.651572464756e-11 -1.160225618863e-02
1.771400002261e-08 -4.662043769525e-11 -1.160225734331e-02
1.751592820939e-08 -4.672512175869e-11 -1.160226500432e-02
-2.251945597416e-08 2.004025823046e-08 -1.160226937386e-02
-2.015142331903e-08 1.998234232810e-08 -1.160225993492e-02
-1.226703006888e-10 1.779025995456e-08 -1.160225749496e-02
1.990608262030e-08 1.998213247757e-08 -1.160225945913e-02
2.227411502862e-08 2.003983774806e-08 -1.160226842228e-02
-2.509388921171e-08 2.492501997778e-08 -1.160228025833e-02
-2.020912795830e-08 2.235037500509e-08 -1.160226904971e-02
-1.225648908310e-10 1.759218822734e-08 -1.160226530761e-02
1.996399834678e-08 2.235016487153e-08 -1.160226857393e-02
2.484875961885e-08 2.492459879065e-08 -1.160227930675e-02
-3.097380692375e-08 -3.081827395745e-08 -1.160227880380e-02
-2.305934193304e-08 -2.739222733863e-08 -1.160227003333e-02
-2.466895825642e-10 -2.183330968664e-08 -1.160226845628e-02
2.256596335767e-08 -2.739243700429e-08 -1.160226955754e-02
3.048042890723e-08 -3.081869228777e-08 -1.160227785223e-02
-2.754755143753e-08 -2.290380863839e-08 -1.160227018497e-02
-2.241346792870e-08 -2.225814368381e-08 -1.160226401096e-02
-2.465852893017e-10 -1.948212199766e-08 -1.160226420965e-02
2.192029767873e-08 -2.225835352291e-08 -1.160226353517e-02
2.705438147359e-08 -2.290422745364e-08 -1.160226923339e-02
-2.198842437943e-08 -9.115589333005e-11 -1.160226875957e-02
-1.963723677420e-08 -9.126098090361e-11 -1.160226436130e-02
-2.464808786723e-10 -9.136601950783e-11 -1.160226556268e-02
1.914427528607e-08 -9.147070020066e-11 -1.160226388551e-02
2.149546313579e-08 -9.157535510574e-11 -1.160226780799e-02
-2.754734162525e-08 2.272149706802e-08 -1.160227001247e-02
-2.241325818259e-08 2.207562184201e-08 -1.160226383846e-02
-2.463755016574e-10 1.929939005509e-08 -1.160226403715e-02
2.192050751268e-08 2.207541224053e-08 -1.160226336267e-02
2.705459125001e-08 2.272107695318e-08 -1.160226906089e-02
-3.097338695050e-08 3.063596258701e-08 -1.160227845880e-02
-2.305892214650e-08 2.720970560674e-08 -1.160226968832e-02
-2.462700308492e-10 2.165057782952e-08 -1.160226811128e-02
2.256638267969e-08 2.720949582008e-08 -1.160226921254e-02
3.048084805267e-08 3.063554199085e-08 -1.160227750722e-02
SCALARS displacement_magnitude float 1
LOOKUP_TABLE default
0.000000000000e+00
0.000000000000e+00
0.000000000000e+00
0.000000000000e+00
0.000000000000e+00
0.000000000000e+00
0.000000000000e+00
0.000000000000e+00
0.000000000000e+00
0.000000000000e+00
0.000000000000e+00
0.000000000000e+00
0.000000000000e+00
0.000000000000e+00
0.000000000000e+00
0.000000000000e+00
0.000000000000e+00
0.000000000000e+00
0.000000000000e+00
0.000000000000e+00
0.000000000000e+00
0.000000000000e+00
0.000000000000e+00
0.000000000000e+00
0.000000000000e+00
0.000000000000e+00
0.000000000000e+00
0.000000000000e+00
0.000000000000e+00
0.000000000000e+00
0.000000000000e+00
0.000000000000e+00
0.000000000000e+00
0.000000000000e+00
0.000000000000e+00
0.000000000000e+00
0.000000000000e+00
0.000000000000e+00
0.000000000000e+00
0.000000000000e+00
0.000000000000e+00
0.000000000000e+00
0.000000000000e+00
0.000000000000e+00
0.000000000000e+00
0.000000000000e+00
0.000000000000e+00
0.000000000000e+00
0.000000000000e+00
0.000000000000e+00
0.000000000000e+00
0.000000000000e+00
0.000000000000e+00
0.000000000000e+00
0.000000000000e+00
0.000000000000e+00
0.000000000000e+00
0.000000000000e+00
0.000000000000e+00
0.000000000000e+00
0.000000000000e+00
0.000000000000e+00
0.000000000000e+00
0.000000000000e+00
0.000000000000e+00
0.000000000000e+00
0.000000000000e+00
0.000000000000e+00
0.000000000000e+00
0.000000000000e+00
0.000000000000e+00
0.000000000000e+00
0.000000000000e+00
0.000000000000e+00
0.000000000000e+00
0.000000000000e+00
0.000000000000e+00
0.000000000000e+00
0.000000000000e+00
0.000000000000e+00
0.000000000000e+00
0.000000000000e+00
0.000000000000e+00
0.000000000000e+00
0.000000000000e+00
0.000000000000e+00
0.000000000000e+00
0.000000000000e+00
0.000000000000e+00
0.000000000000e+00
0.000000000000e+00
0.000000000000e+00
0.000000000000e+00
0.000000000000e+00
0.000000000000e+00
0.000000000000e+00
0.000000000000e+00
0.000000000000e+00
0.000000000000e+00
0.000000000000e+00
0.000000000000e+00
0.000000000000e+00
0.000000000000e+00
0.000000000000e+00
0.000000000000e+00
0.000000000000e+00
0.000000000000e+00
0.000000000000e+00
0.000000000000e+00
0.000000000000e+00
0.000000000000e+00
0.000000000000e+00
0.000000000000e+00
0.000000000000e+00
0.000000000000e+00
0.000000000000e+00
0.000000000000e+00
0.000000000000e+00
0.000000000000e+00
0.000000000000e+00
0.000000000000e+00
0.000000000000e+00
0.000000000000e+00
0.000000000000e+00
0.000000000000e+00
1.160229405268e-02
1.160227551966e-02
1.160226570947e-02
1.160227504387e-02
1.160229310110e-02
1.160227567131e-02
1.160225706233e-02
1.160224735062e-02
1.160225658655e-02
1.160227471973e-02
1.160226601276e-02
1.160224750226e-02
1.160223786169e-02
1.160224702647e-02
1.160226506118e-02
1.160227549880e-02
1.160225688983e-02
1.160224717812e-02
1.160225641405e-02
1.160227454723e-02
1.160229370768e-02
1.160227517466e-02
1.160226536447e-02
1.160227469887e-02
1.160229275610e-02
1.160229345898e-02
1.160227618898e-02
1.160226732068e-02
1.160227571319e-02
1.160229250741e-02
1.160227634062e-02
1.160225940467e-02
1.160225084556e-02
1.160225892888e-02
1.160227538904e-02
1.160226762397e-02
1.160225099721e-02
1.160224252641e-02
1.160225052142e-02
1.160226667239e-02
1.160227616812e-02
1.160225923217e-02
1.160225067306e-02
1.160225875638e-02
1.160227521654e-02
1.160229311398e-02
1.160227584397e-02
1.160226697568e-02
1.160227536819e-02
1.160229216241e-02
1.160228753096e-02
1.160227314611e-02
1.160226667989e-02
1.160227267032e-02
1.160228657939e-02
1.160227329775e-02
1.160225984407e-02
1.160225412171e-02
1.160225936828e-02
1.160227234617e-02
1.160226698318e-02
1.160225427336e-02
1.160224896346e-02
1.160225379757e-02
1.160226603160e-02
1.160227312525e-02
1.160225967156e-02
1.160225394921e-02
1.160225919578e-02
1.160227217367e-02
1.160228718596e-02
1.160227280111e-02
1.160226633489e-02
1.160227232532e-02
1.160228623439e-02
1.160228060338e-02
1.160226939476e-02
1.160226565262e-02
1.160226891897e-02
1.160227965181e-02
1.160226954640e-02
1.160226010745e-02
1.160225766747e-02
1.160225963166e-02
1.160226859482e-02
1.160226595591e-02
1.160225781912e-02
1.160225618863e-02
1.160225734333e-02
1.160226500433e-02
1.160226937390e-02
1.160225993495e-02
1.160225749497e-02
1.160225945916e-02
1.160226842232e-02
1.160228025838e-02
1.160226904975e-02
1.160226530762e-02
1.160226857396e-02
1.160227930681e-02
1.160227880388e-02
1.160227003338e-02
1.160226845630e-02
1.160226955759e-02
1.160227785231e-02
1.160227018502e-02
1.160226401100e-02
1.160226420967e-02
1.160226353521e-02
1.160226923345e-02
1.160226875959e-02
1.160226436131e-02
1.160226556268e-02
1.160226388552e-02
1.160226780801e-02
1.160227001252e-02
1.160226383850e-02
1.160226403717e-02
1.160226336271e-02
1.160226906095e-02
1.160227845888e-02
1.160226968838e-02
1.160226811130e-02
1.160226921259e-02
1.160227750731e-02
CELL_DATA 128
SCALARS displacement_magnitude float 1
LOOKUP_TABLE default
0.000000000000e+00
0.000000000000e+00
0.000000000000e+00
0.000000000000e+00
0.000000000000e+00
0.000000000000e+00
0.000000000000e+00
0.000000000000e+00
0.000000000000e+00
0.000000000000e+00
0.000000000000e+00
0.000000000000e+00
0.000000000000e+00
0.000000000000e+00
0.000000000000e+00
0.000000000000e+00
0.000000000000e+00
0.000000000000e+00
0.000000000000e+00
0.000000000000e+00
0.000000000000e+00
0.000000000000e+00
0.000000000000e+00
0.000000000000e+00
0.000000000000e+00
0.000000000000e+00
0.000000000000e+00
0.000000000000e+00
0.000000000000e+00
0.000000000000e+00
0.000000000000e+00
0.000000000000e+00
0.000000000000e+00
0.000000000000e+00
0.000000000000e+00
0.000000000000e+00
0.000000000000e+00
0.000000000000e+00
0.000000000000e+00
0.000000000000e+00
0.000000000000e+00
0.000000000000e+00
0.000000000000e+00
0.000000000000e+00
0.000000000000e+00
0.000000000000e+00
0.000000000000e+00
0.000000000000e+00
0.000000000000e+00
0.000000000000e+00
0.000000000000e+00
0.000000000000e+00
0.000000000000e+00
0.000000000000e+00
0.000000000000e+00
0.000000000000e+00
0.000000000000e+00
0.000000000000e+00
0.000000000000e+00
0.000000000000e+00
0.000000000000e+00
0.000000000000e+00
0.000000000000e+00
0.000000000000e+00
1.160227596240e-02
1.160226242525e-02
1.160226218735e-02
1.160227524872e-02
1.160226257689e-02
1.160224919384e-02
1.160224895595e-02
1.160226186321e-02
1.160226249064e-02
1.160224910759e-02
1.160224886970e-02
1.160226177696e-02
1.160227570365e-02
1.160226216650e-02
1.160226192860e-02
1.160227498997e-02
1.160227490152e-02
1.160226344396e-02
1.160226320606e-02
1.160227418783e-02
1.160226359560e-02
1.160225262206e-02
1.160225238416e-02
1.160226288192e-02
1.160226350935e-02
1.160225253581e-02
1.160225229791e-02
1.160226279567e-02
1.160227464277e-02
1.160226318521e-02
1.160226294731e-02
1.160227392908e-02
1.160227168386e-02
1.160226332676e-02
1.160226308887e-02
1.160227097018e-02
1.160226347840e-02
1.160225612316e-02
1.160225588526e-02
1.160226276472e-02
1.160226339215e-02
1.160225603691e-02
1.160225579901e-02
1.160226267847e-02
1.160227142511e-02
1.160226306801e-02
1.160226283011e-02
1.160227071143e-02
1.160227033566e-02
1.160226494158e-02
1.160226470369e-02
1.160226962198e-02
1.160226509323e-02
1.160226124092e-02
1.160226100302e-02
1.160226437954e-02
1.160226500698e-02
1.160226115467e-02
1.160226091677e-02
1.160226429329e-02
1.160227007691e-02
1.160226468283e-02
1.160226444494e-02
1.160226936323e-02
SCALARS engineering_strain_norm float 1
LOOKUP_TABLE default
0.000000000000e+00
0.000000000000e+00
0.000000000000e+00
0.000000000000e+00
0.000000000000e+00
0.000000000000e+00
0.000000000000e+00
0.000000000000e+00
0.000000000000e+00
0.000000000000e+00
0.000000000000e+00
0.000000000000e+00
0.000000000000e+00
0.000000000000e+00
0.000000000000e+00
0.000000000000e+00
0.000000000000e+00
0.000000000000e+00
0.000000000000e+00
0.000000000000e+00
0.000000000000e+00
0.000000000000e+00
0.000000000000e+00
0.000000000000e+00
0.000000000000e+00
0.000000000000e+00
0.000000000000e+00
0.000000000000e+00
0.000000000000e+00
0.000000000000e+00
0.000000000000e+00
0.000000000000e+00
0.000000000000e+00
0.000000000000e+00
0.000000000000e+00
0.000000000000e+00
0.000000000000e+00
0.000000000000e+00
0.000000000000e+00
0.000000000000e+00
0.000000000000e+00
0.000000000000e+00
0.000000000000e+00
0.000000000000e+00
0.000000000000e+00
0.000000000000e+00
0.000000000000e+00
0.000000000000e+00
0.000000000000e+00
0.000000000000e+00
0.000000000000e+00
0.000000000000e+00
0.000000000000e+00
0.000000000000e+00
0.000000000000e+00
0.000000000000e+00
0.000000000000e+00
0.000000000000e+00
0.000000000000e+00
0.000000000000e+00
0.000000000000e+00
0.000000000000e+00
0.000000000000e+00
0.000000000000e+00
4.048316789424e-08
7.137315050873e-08
7.137314573789e-08
4.048316682517e-08
7.137315164282e-08
8.562081903892e-08
8.562081208665e-08
7.137314333160e-08
7.137314987962e-08
8.562081654471e-08
8.562080945038e-08
7.137314154000e-08
4.048316753780e-08
7.137314746381e-08
7.137314260430e-08
4.048316645199e-08
6.654167781575e-08
1.127037869945e-07
1.127037847811e-07
6.654168525687e-08
1.127037881955e-07
1.475587475849e-07
1.475587424576e-07
1.127037822099e-07
1.127037873710e-07
1.475587456874e-07
1.475587405580e-07
1.127037814205e-07
6.654168055767e-08
1.127037848017e-07
1.127037825791e-07
6.654168809788e-08
6.580763251365e-08
1.469286148647e-07
1.469286153258e-07
6.580764084494e-08
1.469286163516e-07
2.007042446743e-07
2.007042424009e-07
1.469286120825e-07
1.469286165141e-07
2.007042438360e-07
2.007042415516e-07
1.469286122717e-07
6.580763551047e-08
1.469286132847e-07
1.469286137741e-07
6.580764387934e-08
6.609614582008e-08
1.824119972692e-07
1.824120003913e-07
6.609614602844e-08
1.824119993735e-07
2.477322830886e-07
2.477322839153e-07
1.824119958413e-07
1.824120005010e-07
2.477322833648e-07
2.477322842361e-07
1.824119970524e-07
6.609614583834e-08
1.824119959640e-07
1.824119991767e-07
6.609614620695e-08
SCALARS von_mises float 1
LOOKUP_TABLE default
0.000000000000e+00
0.000000000000e+00
0.000000000000e+00
0.000000000000e+00
0.000000000000e+00
0.000000000000e+00
0.000000000000e+00
0.000000000000e+00
0.000000000000e+00
0.000000000000e+00
0.000000000000e+00
0.000000000000e+00
0.000000000000e+00
0.000000000000e+00
0.000000000000e+00
0.000000000000e+00
0.000000000000e+00
0.000000000000e+00
0.000000000000e+00
0.000000000000e+00
0.000000000000e+00
0.000000000000e+00
0.000000000000e+00
0.000000000000e+00
0.000000000000e+00
0.000000000000e+00
0.000000000000e+00
0.000000000000e+00
0.000000000000e+00
0.000000000000e+00
0.000000000000e+00
0.000000000000e+00
0.000000000000e+00
0.000000000000e+00
0.000000000000e+00
0.000000000000e+00
0.000000000000e+00
0.000000000000e+00
0.000000000000e+00
0.000000000000e+00
0.000000000000e+00
0.000000000000e+00
0.000000000000e+00
0.000000000000e+00
0.000000000000e+00
0.000000000000e+00
0.000000000000e+00
0.000000000000e+00
0.000000000000e+00
0.000000000000e+00
0.000000000000e+00
0.000000000000e+00
0.000000000000e+00
0.000000000000e+00
0.000000000000e+00
0.000000000000e+00
0.000000000000e+00
0.000000000000e+00
0.000000000000e+00
0.000000000000e+00
0.000000000000e+00
0.000000000000e+00
0.000000000000e+00
0.000000000000e+00
2.868172092556e-03
6.192408122672e-03
6.192407685798e-03
2.868171859187e-03
6.192408246200e-03
7.682294951109e-03
7.682294396929e-03
6.192407425801e-03
6.192408084056e-03
7.682294749963e-03
7.682294186638e-03
6.192407265610e-03
2.868172009807e-03
6.192407822363e-03
6.192407382213e-03
2.868171776190e-03
4.283135589940e-03
8.804254435913e-03
8.804254198694e-03
4.283136437005e-03
8.804254568814e-03
1.148975258487e-02
1.148975209317e-02
8.804253913036e-03
8.804254481491e-03
1.148975240106e-02
1.148975191197e-02
8.804253828422e-03
4.283135900412e-03
8.804254194759e-03
8.804253958012e-03
4.283136754013e-03
3.269792491495e-03
1.112441335955e-02
1.112441329405e-02
3.269793540339e-03
1.112441353659e-02
1.479821150304e-02
1.479821116495e-02
1.112441290971e-02
1.112441351329e-02
1.479821138018e-02
1.479821103690e-02
1.112441288922e-02
3.269792870809e-03
1.112441312875e-02
1.112441306661e-02
3.269793921921e-03
4.583589649264e-03
1.535363221289e-02
1.535363240058e-02
4.583589444964e-03
1.535363241470e-02
2.008768276044e-02
2.008768275640e-02
1.535363196601e-02
1.535363248409e-02
2.008768275719e-02
2.008768275367e-02
1.535363204050e-02
4.583589569294e-03
1.535363204934e-02
1.535363224271e-02
4.583589377387e-03
SCALARS sdf_gap float 1
LOOKUP_TABLE default
0.000000000000e+00
0.000000000000e+00
0.000000000000e+00
0.000000000000e+00
0.000000000000e+00
0.000000000000e+00
0.000000000000e+00
0.000000000000e+00
0.000000000000e+00
0.000000000000e+00
0.000000000000e+00
0.000000000000e+00
0.000000000000e+00
0.000000000000e+00
0.000000000000e+00
0.000000000000e+00
0.000000000000e+00
0.000000000000e+00
0.000000000000e+00
0.000000000000e+00
0.000000000000e+00
0.000000000000e+00
0.000000000000e+00
0.000000000000e+00
0.000000000000e+00
0.000000000000e+00
0.000000000000e+00
0.000000000000e+00
0.000000000000e+00
0.000000000000e+00
0.000000000000e+00
0.000000000000e+00
0.000000000000e+00
0.000000000000e+00
0.000000000000e+00
0.000000000000e+00
0.000000000000e+00
0.000000000000e+00
0.000000000000e+00
0.000000000000e+00
0.000000000000e+00
0.000000000000e+00
0.000000000000e+00
0.000000000000e+00
0.000000000000e+00
0.000000000000e+00
0.000000000000e+00
0.000000000000e+00
0.000000000000e+00
0.000000000000e+00
0.000000000000e+00
0.000000000000e+00
0.000000000000e+00
0.000000000000e+00
0.000000000000e+00
0.000000000000e+00
0.000000000000e+00
0.000000000000e+00
0.000000000000e+00
0.000000000000e+00
0.000000000000e+00
0.000000000000e+00
0.000000000000e+00
0.000000000000e+00
3.397724423506e-03
3.397738589479e-03
3.397738827373e-03
3.397725137187e-03
3.397738437836e-03
3.397752555774e-03
3.397752793668e-03
3.397739151517e-03
3.397738524086e-03
3.397752642025e-03
3.397752879919e-03
3.397739237768e-03
3.397724682257e-03
3.397738848230e-03
3.397739086124e-03
3.397725395938e-03
0.000000000000e+00
0.000000000000e+00
0.000000000000e+00
0.000000000000e+00
0.000000000000e+00
0.000000000000e+00
0.000000000000e+00
0.000000000000e+00
0.000000000000e+00
0.000000000000e+00
0.000000000000e+00
0.000000000000e+00
0.000000000000e+00
0.000000000000e+00
0.000000000000e+00
0.000000000000e+00
0.000000000000e+00
0.000000000000e+00
0.000000000000e+00
0.000000000000e+00
0.000000000000e+00
0.000000000000e+00
0.000000000000e+00
0.000000000000e+00
0.000000000000e+00
0.000000000000e+00
0.000000000000e+00
0.000000000000e+00
0.000000000000e+00
0.000000000000e+00
0.000000000000e+00
0.000000000000e+00
0.000000000000e+00
0.000000000000e+00
0.000000000000e+00
0.000000000000e+00
0.000000000000e+00
0.000000000000e+00
0.000000000000e+00
0.000000000000e+00
0.000000000000e+00
0.000000000000e+00
0.000000000000e+00
0.000000000000e+00
0.000000000000e+00
0.000000000000e+00
0.000000000000e+00
0.000000000000e+00
SCALARS contact_pressure float 1
LOOKUP_TABLE default
0.000000000000e+00
0.000000000000e+00
0.000000000000e+00
0.000000000000e+00
0.000000000000e+00
0.000000000000e+00
0.000000000000e+00
0.000000000000e+00
0.000000000000e+00
0.000000000000e+00
0.000000000000e+00
0.000000000000e+00
0.000000000000e+00
0.000000000000e+00
0.000000000000e+00
0.000000000000e+00
0.000000000000e+00
0.000000000000e+00
0.000000000000e+00
0.000000000000e+00
0.000000000000e+00
0.000000000000e+00
0.000000000000e+00
0.000000000000e+00
0.000000000000e+00
0.000000000000e+00
0.000000000000e+00
0.000000000000e+00
0.000000000000e+00
0.000000000000e+00
0.000000000000e+00
0.000000000000e+00
0.000000000000e+00
0.000000000000e+00
0.000000000000e+00
0.000000000000e+00
0.000000000000e+00
0.000000000000e+00
0.000000000000e+00
0.000000000000e+00
0.000000000000e+00
0.000000000000e+00
0.000000000000e+00
0.000000000000e+00
0.000000000000e+00
0.000000000000e+00
0.000000000000e+00
0.000000000000e+00
0.000000000000e+00
0.000000000000e+00
0.000000000000e+00
0.000000000000e+00
0.000000000000e+00
0.000000000000e+00
0.000000000000e+00
0.000000000000e+00
0.000000000000e+00
0.000000000000e+00
0.000000000000e+00
0.000000000000e+00
0.000000000000e+00
0.000000000000e+00
0.000000000000e+00
0.000000000000e+00
0.000000000000e+00
0.000000000000e+00
0.000000000000e+00
0.000000000000e+00
0.000000000000e+00
0.000000000000e+00
0.000000000000e+00
0.000000000000e+00
0.000000000000e+00
0.000000000000e+00
0.000000000000e+00
0.000000000000e+00
0.000000000000e+00
0.000000000000e+00
0.000000000000e+00
0.000000000000e+00
0.000000000000e+00
0.000000000000e+00
0.000000000000e+00
0.000000000000e+00
0.000000000000e+00
0.000000000000e+00
0.000000000000e+00
0.000000000000e+00
0.000000000000e+00
0.000000000000e+00
0.000000000000e+00
0.000000000000e+00
0.000000000000e+00
0.000000000000e+00
0.000000000000e+00
0.000000000000e+00
0.000000000000e+00
0.000000000000e+00
0.000000000000e+00
0.000000000000e+00
0.000000000000e+00
0.000000000000e+00
0.000000000000e+00
0.000000000000e+00
0.000000000000e+00
0.000000000000e+00
0.000000000000e+00
0.000000000000e+00
0.000000000000e+00
0.000000000000e+00
0.000000000000e+00
0.000000000000e+00
0.000000000000e+00
0.000000000000e+00
0.000000000000e+00
0.000000000000e+00
0.000000000000e+00
0.000000000000e+00
0.000000000000e+00
0.000000000000e+00
0.000000000000e+00
0.000000000000e+00
0.000000000000e+00
0.000000000000e+00
0.000000000000e+00
0.000000000000e+00
0.000000000000e+00
0.000000000000e+00
SCALARS active_contact float 1
LOOKUP_TABLE default
0.000000000000e+00
0.000000000000e+00
0.000000000000e+00
0.000000000000e+00
0.000000000000e+00
0.000000000000e+00
0.000000000000e+00
0.000000000000e+00
0.000000000000e+00
0.000000000000e+00
0.000000000000e+00
0.000000000000e+00
0.000000000000e+00
0.000000000000e+00
0.000000000000e+00
0.000000000000e+00
0.000000000000e+00
0.000000000000e+00
0.000000000000e+00
0.000000000000e+00
0.000000000000e+00
0.000000000000e+00
0.000000000000e+00
0.000000000000e+00
0.000000000000e+00
0.000000000000e+00
0.000000000000e+00
0.000000000000e+00
0.000000000000e+00
0.000000000000e+00
0.000000000000e+00
0.000000000000e+00
0.000000000000e+00
0.000000000000e+00
0.000000000000e+00
0.000000000000e+00
0.000000000000e+00
0.000000000000e+00
0.000000000000e+00
0.000000000000e+00
0.000000000000e+00
0.000000000000e+00
0.000000000000e+00
0.000000000000e+00
0.000000000000e+00
0.000000000000e+00
0.000000000000e+00
0.000000000000e+00
0.000000000000e+00
0.000000000000e+00
0.000000000000e+00
0.000000000000e+00
0.000000000000e+00
0.000000000000e+00
0.000000000000e+00
0.000000000000e+00
0.000000000000e+00
0.000000000000e+00
0.000000000000e+00
0.000000000000e+00
0.000000000000e+00
0.000000000000e+00
0.000000000000e+00
0.000000000000e+00
0.000000000000e+00
0.000000000000e+00
0.000000000000e+00
0.000000000000e+00
0.000000000000e+00
0.000000000000e+00
0.000000000000e+00
0.000000000000e+00
0.000000000000e+00
0.000000000000e+00
0.000000000000e+00
0.000000000000e+00
0.000000000000e+00
0.000000000000e+00
0.000000000000e+00
0.000000000000e+00
0.000000000000e+00
0.000000000000e+00
0.000000000000e+00
0.000000000000e+00
0.000000000000e+00
0.000000000000e+00
0.000000000000e+00
0.000000000000e+00
0.000000000000e+00
0.000000000000e+00
0.000000000000e+00
0.000000000000e+00
0.000000000000e+00
0.000000000000e+00
0.000000000000e+00
0.000000000000e+00
0.000000000000e+00
0.000000000000e+00
0.000000000000e+00
0.000000000000e+00
0.000000000000e+00
0.000000000000e+00
0.000000000000e+00
0.000000000000e+00
0.000000000000e+00
0.000000000000e+00
0.000000000000e+00
0.000000000000e+00
0.000000000000e+00
0.000000000000e+00
0.000000000000e+00
0.000000000000e+00
0.000000000000e+00
0.000000000000e+00
0.000000000000e+00
0.000000000000e+00
0.000000000000e+00
0.000000000000e+00
0.000000000000e+00
0.000000000000e+00
0.000000000000e+00
0.000000000000e+00
0.000000000000e+00
0.000000000000e+00
0.000000000000e+00
0.000000000000e+00
0.000000000000e+00
0.000000000000e+00
