# vtk DataFile Version 3.0
SFC long-time C3D8 dynamic frame 68 t=1.360000000000e+00
ASCII
DATASET UNSTRUCTURED_GRID
POINTS 250 float
-2.500000000000e-01 -2.500000000000e-01 0.000000000000e+00
-1.250000000000e-01 -2.500000000000e-01 0.000000000000e+00
0.000000000000e+00 -2.500000000000e-01 0.000000000000e+00
1.250000000000e-01 -2.500000000000e-01 0.000000000000e+00
2.500000000000e-01 -2.500000000000e-01 0.000000000000e+00
-2.500000000000e-01 -1.250000000000e-01 0.000000000000e+00
-1.250000000000e-01 -1.250000000000e-01 0.000000000000e+00
0.000000000000e+00 -1.250000000000e-01 0.000000000000e+00
1.250000000000e-01 -1.250000000000e-01 0.000000000000e+00
2.500000000000e-01 -1.250000000000e-01 0.000000000000e+00
-2.500000000000e-01 0.000000000000e+00 0.000000000000e+00
-1.250000000000e-01 0.000000000000e+00 0.000000000000e+00
0.000000000000e+00 0.000000000000e+00 0.000000000000e+00
1.250000000000e-01 0.000000000000e+00 0.000000000000e+00
2.500000000000e-01 0.000000000000e+00 0.000000000000e+00
-2.500000000000e-01 1.250000000000e-01 0.000000000000e+00
-1.250000000000e-01 1.250000000000e-01 0.000000000000e+00
0.000000000000e+00 1.250000000000e-01 0.000000000000e+00
1.250000000000e-01 1.250000000000e-01 0.000000000000e+00
2.500000000000e-01 1.250000000000e-01 0.000000000000e+00
-2.500000000000e-01 2.500000000000e-01 0.000000000000e+00
-1.250000000000e-01 2.500000000000e-01 0.000000000000e+00
0.000000000000e+00 2.500000000000e-01 0.000000000000e+00
1.250000000000e-01 2.500000000000e-01 0.000000000000e+00
2.500000000000e-01 2.500000000000e-01 0.000000000000e+00
-2.500000000000e-01 -2.500000000000e-01 6.000000000000e-02
-1.250000000000e-01 -2.500000000000e-01 6.000000000000e-02
0.000000000000e+00 -2.500000000000e-01 6.000000000000e-02
1.250000000000e-01 -2.500000000000e-01 6.000000000000e-02
2.500000000000e-01 -2.500000000000e-01 6.000000000000e-02
-2.500000000000e-01 -1.250000000000e-01 6.000000000000e-02
-1.250000000000e-01 -1.250000000000e-01 6.000000000000e-02
0.000000000000e+00 -1.250000000000e-01 6.000000000000e-02
1.250000000000e-01 -1.250000000000e-01 6.000000000000e-02
2.500000000000e-01 -1.250000000000e-01 6.000000000000e-02
-2.500000000000e-01 0.000000000000e+00 6.000000000000e-02
-1.250000000000e-01 0.000000000000e+00 6.000000000000e-02
0.000000000000e+00 0.000000000000e+00 6.000000000000e-02
1.250000000000e-01 0.000000000000e+00 6.000000000000e-02
2.500000000000e-01 0.000000000000e+00 6.000000000000e-02
-2.500000000000e-01 1.250000000000e-01 6.000000000000e-02
-1.250000000000e-01 1.250000000000e-01 6.000000000000e-02
0.000000000000e+00 1.250000000000e-01 6.000000000000e-02
1.250000000000e-01 1.250000000000e-01 6.000000000000e-02
2.500000000000e-01 1.250000000000e-01 6.000000000000e-02
-2.500000000000e-01 2.500000000000e-01 6.000000000000e-02
-1.250000000000e-01 2.500000000000e-01 6.000000000000e-02
0.000000000000e+00 2.500000000000e-01 6.000000000000e-02
1.250000000000e-01 2.500000000000e-01 6.000000000000e-02
2.500000000000e-01 2.500000000000e-01 6.000000000000e-02
-2.500000000000e-01 -2.500000000000e-01 1.200000000000e-01
-1.250000000000e-01 -2.500000000000e-01 1.200000000000e-01
0.000000000000e+00 -2.500000000000e-01 1.200000000000e-01
1.250000000000e-01 -2.500000000000e-01 1.200000000000e-01
2.500000000000e-01 -2.500000000000e-01 1.200000000000e-01
-2.500000000000e-01 -1.250000000000e-01 1.200000000000e-01
-1.250000000000e-01 -1.250000000000e-01 1.200000000000e-01
0.000000000000e+00 -1.250000000000e-01 1.200000000000e-01
1.250000000000e-01 -1.250000000000e-01 1.200000000000e-01
2.500000000000e-01 -1.250000000000e-01 1.200000000000e-01
-2.500000000000e-01 0.000000000000e+00 1.200000000000e-01
-1.250000000000e-01 0.000000000000e+00 1.200000000000e-01
0.000000000000e+00 0.000000000000e+00 1.200000000000e-01
1.250000000000e-01 0.000000000000e+00 1.200000000000e-01
2.500000000000e-01 0.000000000000e+00 1.200000000000e-01
-2.500000000000e-01 1.250000000000e-01 1.200000000000e-01
-1.250000000000e-01 1.250000000000e-01 1.200000000000e-01
0.000000000000e+00 1.250000000000e-01 1.200000000000e-01
1.250000000000e-01 1.250000000000e-01 1.200000000000e-01
2.500000000000e-01 1.250000000000e-01 1.200000000000e-01
-2.500000000000e-01 2.500000000000e-01 1.200000000000e-01
-1.250000000000e-01 2.500000000000e-01 1.200000000000e-01
0.000000000000e+00 2.500000000000e-01 1.200000000000e-01
1.250000000000e-01 2.500000000000e-01 1.200000000000e-01
2.500000000000e-01 2.500000000000e-01 1.200000000000e-01
-2.500000000000e-01 -2.500000000000e-01 1.800000000000e-01
-1.250000000000e-01 -2.500000000000e-01 1.800000000000e-01
0.000000000000e+00 -2.500000000000e-01 1.800000000000e-01
1.250000000000e-01 -2.500000000000e-01 1.800000000000e-01
2.500000000000e-01 -2.500000000000e-01 1.800000000000e-01
-2.500000000000e-01 -1.250000000000e-01 1.800000000000e-01
-1.250000000000e-01 -1.250000000000e-01 1.800000000000e-01
0.000000000000e+00 -1.250000000000e-01 1.800000000000e-01
1.250000000000e-01 -1.250000000000e-01 1.800000000000e-01
2.500000000000e-01 -1.250000000000e-01 1.800000000000e-01
-2.500000000000e-01 0.000000000000e+00 1.800000000000e-01
-1.250000000000e-01 0.000000000000e+00 1.800000000000e-01
0.000000000000e+00 0.000000000000e+00 1.800000000000e-01
1.250000000000e-01 0.000000000000e+00 1.800000000000e-01
2.500000000000e-01 0.000000000000e+00 1.800000000000e-01
-2.500000000000e-01 1.250000000000e-01 1.800000000000e-01
-1.250000000000e-01 1.250000000000e-01 1.800000000000e-01
0.000000000000e+00 1.250000000000e-01 1.800000000000e-01
1.250000000000e-01 1.250000000000e-01 1.800000000000e-01
2.500000000000e-01 1.250000000000e-01 1.800000000000e-01
-2.500000000000e-01 2.500000000000e-01 1.800000000000e-01
-1.250000000000e-01 2.500000000000e-01 1.800000000000e-01
0.000000000000e+00 2.500000000000e-01 1.800000000000e-01
1.250000000000e-01 2.500000000000e-01 1.800000000000e-01
2.500000000000e-01 2.500000000000e-01 1.800000000000e-01
-2.500000000000e-01 -2.500000000000e-01 2.400000000000e-01
-1.250000000000e-01 -2.500000000000e-01 2.400000000000e-01
0.000000000000e+00 -2.500000000000e-01 2.400000000000e-01
1.250000000000e-01 -2.500000000000e-01 2.400000000000e-01
2.500000000000e-01 -2.500000000000e-01 2.400000000000e-01
-2.500000000000e-01 -1.250000000000e-01 2.400000000000e-01
-1.250000000000e-01 -1.250000000000e-01 2.400000000000e-01
0.000000000000e+00 -1.250000000000e-01 2.400000000000e-01
1.250000000000e-01 -1.250000000000e-01 2.400000000000e-01
2.500000000000e-01 -1.250000000000e-01 2.400000000000e-01
-2.500000000000e-01 0.000000000000e+00 2.400000000000e-01
-1.250000000000e-01 0.000000000000e+00 2.400000000000e-01
0.000000000000e+00 0.000000000000e+00 2.400000000000e-01
1.250000000000e-01 0.000000000000e+00 2.400000000000e-01
2.500000000000e-01 0.000000000000e+00 2.400000000000e-01
-2.500000000000e-01 1.250000000000e-01 2.400000000000e-01
-1.250000000000e-01 1.250000000000e-01 2.400000000000e-01
0.000000000000e+00 1.250000000000e-01 2.400000000000e-01
1.250000000000e-01 1.250000000000e-01 2.400000000000e-01
2.500000000000e-01 1.250000000000e-01 2.400000000000e-01
-2.500000000000e-01 2.500000000000e-01 2.400000000000e-01
-1.250000000000e-01 2.500000000000e-01 2.400000000000e-01
0.000000000000e+00 2.500000000000e-01 2.400000000000e-01
1.250000000000e-01 2.500000000000e-01 2.400000000000e-01
2.500000000000e-01 2.500000000000e-01 2.400000000000e-01
-2.499999690738e-01 -2.499999691299e-01 2.465789643269e-01
-1.249999791288e-01 -2.499999706538e-01 2.465789775845e-01
8.721596661746e-11 -2.499999727621e-01 2.465789837606e-01
1.249999793033e-01 -2.499999706539e-01 2.465789777518e-01
2.499999692482e-01 -2.499999691300e-01 2.465789646615e-01
-2.499999705977e-01 -1.249999791849e-01 2.465789775312e-01
-1.249999792322e-01 -1.249999792883e-01 2.465789897469e-01
8.724753800038e-11 -1.249999799913e-01 2.465789953244e-01
1.249999794067e-01 -1.249999792884e-01 2.465789899142e-01
2.499999707722e-01 -1.249999791850e-01 2.465789778658e-01
-2.499999727059e-01 3.115048805876e-11 2.465789836541e-01
-1.249999799352e-01 3.111812034285e-11 2.465789952712e-01
8.727947902605e-11 3.108588973354e-11 2.465790006948e-01
1.249999801097e-01 3.105381867266e-11 2.465789954385e-01
2.499999728805e-01 3.102187436285e-11 2.465789839887e-01
-2.499999705976e-01 1.249999792472e-01 2.465789775921e-01
-1.249999792321e-01 1.249999793506e-01 2.465789898077e-01
8.731186058627e-11 1.249999800535e-01 2.465789953852e-01
1.249999794068e-01 1.249999793505e-01 2.465789899750e-01
2.499999707723e-01 1.249999792471e-01 2.465789779266e-01
-2.499999690737e-01 2.499999691922e-01 2.465789644485e-01
-1.249999791287e-01 2.499999707161e-01 2.465789777061e-01
8.734460209223e-11 2.499999728243e-01 2.465789838822e-01
1.249999793034e-01 2.499999707160e-01 2.465789778734e-01
2.499999692484e-01 2.499999691920e-01 2.465789647831e-01
-2.499999753493e-01 -2.499999753777e-01 3.115789702510e-01
-1.249999840857e-01 -2.499999762945e-01 3.115789846757e-01
4.372074145188e-11 -2.499999778288e-01 3.115789918970e-01
1.249999841732e-01 -2.499999762946e-01 3.115789848430e-01
2.499999754368e-01 -2.499999753778e-01 3.115789705856e-01
-2.499999762661e-01 -1.249999841141e-01 3.115789846225e-01
-1.249999840374e-01 -1.249999840658e-01 3.115789983739e-01
4.375228556962e-11 -1.249999845707e-01 3.115790052478e-01
1.249999841249e-01 -1.249999840659e-01 3.115789985412e-01
2.499999763536e-01 -1.249999841142e-01 3.115789849571e-01
-2.499999778003e-01 1.533900036758e-11 3.115789917905e-01
-1.249999845422e-01 1.530662398931e-11 3.115790051945e-01
4.378419601315e-11 1.527438159824e-11 3.115790120905e-01
1.249999846298e-01 1.524231534515e-11 3.115790053618e-01
2.499999778878e-01 1.521038108942e-11 3.115789921251e-01
-2.499999762660e-01 1.249999841448e-01 3.115789846833e-01
-1.249999840373e-01 1.249999840964e-01 3.115789984347e-01
4.381660149606e-11 1.249999846013e-01 3.115790053086e-01
1.249999841250e-01 1.249999840964e-01 3.115789986020e-01
2.499999763537e-01 1.249999841447e-01 3.115789850179e-01
-2.499999753492e-01 2.499999754084e-01 3.115789703726e-01
-1.249999840856e-01 2.499999763252e-01 3.115789847973e-01
4.384936776600e-11 2.499999778593e-01 3.115789920186e-01
1.249999841733e-01 2.499999763251e-01 3.115789849646e-01
2.499999754369e-01 2.499999754083e-01 3.115789707072e-01
-2.499999816101e-01 -2.499999816108e-01 3.765789779950e-01
-1.249999886623e-01 -2.499999820646e-01 3.765789934405e-01
2.250538813140e-13 -2.499999830466e-01 3.765790010984e-01
1.249999886627e-01 -2.499999820647e-01 3.765789936078e-01
2.499999816106e-01 -2.499999816109e-01 3.765789783296e-01
-2.499999820638e-01 -1.249999886630e-01 3.765789933872e-01
-1.249999886394e-01 -1.249999886401e-01 3.765790084034e-01
2.566723449696e-13 -1.249999889582e-01 3.765790158379e-01
1.249999886399e-01 -1.249999886402e-01 3.765790085707e-01
2.499999820643e-01 -1.249999886631e-01 3.765789937218e-01
-2.499999830458e-01 -4.726551526920e-13 3.765790009919e-01
-1.249999889573e-01 -5.050033297445e-13 3.765790157846e-01
2.885799027832e-13 -5.372483298371e-13 3.765790233280e-01
1.249999889579e-01 -5.693152638968e-13 3.765790159519e-01
2.499999830464e-01 -6.012788821379e-13 3.765790013265e-01
-2.499999820638e-01 1.249999886620e-01 3.765789934480e-01
-1.249999886393e-01 1.249999886391e-01 3.765790084642e-01
3.209834145177e-13 1.249999889571e-01 3.765790158987e-01
1.249999886399e-01 1.249999886390e-01 3.765790086315e-01
2.499999820644e-01 1.249999886619e-01 3.765789937826e-01
-2.499999816100e-01 2.499999816099e-01 3.765789781166e-01
-1.249999886621e-01 2.499999820636e-01 3.765789935621e-01
3.536753841902e-13 2.499999830456e-01 3.765790012200e-01
1.249999886628e-01 2.499999820635e-01 3.765789937294e-01
2.499999816107e-01 2.499999816097e-01 3.765789784512e-01
-2.499999896302e-01 -2.499999896032e-01 4.415789838355e-01
-1.249999936589e-01 -2.499999897825e-01 4.415790002254e-01
-4.327083478248e-11 -2.499999902750e-01 4.415790080720e-01
1.249999935723e-01 -2.499999897826e-01 4.415790003926e-01
2.499999895436e-01 -2.499999896033e-01 4.415789841701e-01
-2.499999898095e-01 -1.249999936319e-01 4.415790001721e-01
-1.249999936504e-01 -1.249999936235e-01 4.415790162306e-01
-4.323913473166e-11 -1.249999937827e-01 4.415790239092e-01
1.249999935639e-01 -1.249999936235e-01 4.415790163979e-01
2.499999897230e-01 -1.249999936320e-01 4.415790005067e-01
-2.499999903018e-01 -1.628438178099e-11 4.415790079655e-01
-1.249999938096e-01 -1.631670242790e-11 4.415790238559e-01
-4.320723857378e-11 -1.634895147090e-11 4.415790316834e-01
1.249999937231e-01 -1.638101970759e-11 4.415790240232e-01
2.499999902154e-01 -1.641300786963e-11 4.415790083001e-01
-2.499999898094e-01 1.249999935993e-01 4.415790002329e-01
-1.249999936503e-01 1.249999935908e-01 4.415790162914e-01
-4.317482819451e-11 1.249999937500e-01 4.415790239700e-01
1.249999935640e-01 1.249999935908e-01 4.415790164587e-01
2.499999897230e-01 1.249999935992e-01 4.415790005675e-01
-2.499999896300e-01 2.499999895706e-01 4.415789839571e-01
-1.249999936587e-01 2.499999897499e-01 4.415790003470e-01
-4.314221571165e-11 2.499999902423e-01 4.415790081936e-01
1.249999935724e-01 2.499999897498e-01 4.415790005143e-01
2.499999895438e-01 2.499999895705e-01 4.415789842917e-01
-2.499999986157e-01 -2.499999985610e-01 5.065789862667e-01
-1.249999997669e-01 -2.499999984466e-01 5.065790029961e-01
-8.676644317202e-11 -2.499999985065e-01 5.065790108705e-01
1.249999995934e-01 -2.499999984466e-01 5.065790031634e-01
2.499999984421e-01 -2.499999985611e-01 5.065789866012e-01
-2.499999985012e-01 -1.249999997123e-01 5.065790029429e-01
-1.249999997301e-01 -1.249999996755e-01 5.065790193487e-01
-8.673478401618e-11 -1.249999997650e-01 5.065790270631e-01
1.249999995567e-01 -1.249999996756e-01 5.065790195160e-01
2.499999983277e-01 -1.249999997124e-01 5.065790032775e-01
-2.499999985611e-01 -3.209600178084e-11 5.065790107641e-01
-1.249999998196e-01 -3.212834270566e-11 5.065790270098e-01
-8.670293546617e-11 -3.216061555483e-11 5.065790348686e-01
1.249999996462e-01 -3.219266294719e-11 5.065790271771e-01
2.499999983876e-01 -3.222463828125e-11 5.065790110986e-01
-2.499999985011e-01 1.249999996481e-01 5.065790030037e-01
-1.249999997301e-01 1.249999996113e-01 5.065790194095e-01
-8.667048065314e-11 1.249999997007e-01 5.065790271239e-01
1.249999995567e-01 1.249999996112e-01 5.065790195768e-01
2.499999983278e-01 1.249999996480e-01 5.065790033383e-01
-2.499999986155e-01 2.499999984968e-01 5.065789863883e-01
-1.249999997668e-01 2.499999983823e-01 5.065790031178e-01
-8.663782879915e-11 2.499999984422e-01 5.065790109922e-01
1.249999995935e-01 2.499999983822e-01 5.065790032851e-01
2.499999984422e-01 2.499999984967e-01 5.065789867229e-01
CELLS 128 1152
8 0 1 6 5 25 26 31 30
8 1 2 7 6 26 27 32 31
8 2 3 8 7 27 28 33 32
8 3 4 9 8 28 29 34 33
8 5 6 11 10 30 31 36 35
8 6 7 12 11 31 32 37 36
8 7 8 13 12 32 33 38 37
8 8 9 14 13 33 34 39 38
8 10 11 16 15 35 36 41 40
8 11 12 17 16 36 37 42 41
8 12 13 18 17 37 38 43 42
8 13 14 19 18 38 39 44 43
8 15 16 21 20 40 41 46 45
8 16 17 22 21 41 42 47 46
8 17 18 23 22 42 43 48 47
8 18 19 24 23 43 44 49 48
8 25 26 31 30 50 51 56 55
8 26 27 32 31 51 52 57 56
8 27 28 33 32 52 53 58 57
8 28 29 34 33 53 54 59 58
8 30 31 36 35 55 56 61 60
8 31 32 37 36 56 57 62 61
8 32 33 38 37 57 58 63 62
8 33 34 39 38 58 59 64 63
8 35 36 41 40 60 61 66 65
8 36 37 42 41 61 62 67 66
8 37 38 43 42 62 63 68 67
8 38 39 44 43 63 64 69 68
8 40 41 46 45 65 66 71 70
8 41 42 47 46 66 67 72 71
8 42 43 48 47 67 68 73 72
8 43 44 49 48 68 69 74 73
8 50 51 56 55 75 76 81 80
8 51 52 57 56 76 77 82 81
8 52 53 58 57 77 78 83 82
8 53 54 59 58 78 79 84 83
8 55 56 61 60 80 81 86 85
8 56 57 62 61 81 82 87 86
8 57 58 63 62 82 83 88 87
8 58 59 64 63 83 84 89 88
8 60 61 66 65 85 86 91 90
8 61 62 67 66 86 87 92 91
8 62 63 68 67 87 88 93 92
8 63 64 69 68 88 89 94 93
8 65 66 71 70 90 91 96 95
8 66 67 72 71 91 92 97 96
8 67 68 73 72 92 93 98 97
8 68 69 74 73 93 94 99 98
8 75 76 81 80 100 101 106 105
8 76 77 82 81 101 102 107 106
8 77 78 83 82 102 103 108 107
8 78 79 84 83 103 104 109 108
8 80 81 86 85 105 106 111 110
8 81 82 87 86 106 107 112 111
8 82 83 88 87 107 108 113 112
8 83 84 89 88 108 109 114 113
8 85 86 91 90 110 111 116 115
8 86 87 92 91 111 112 117 116
8 87 88 93 92 112 113 118 117
8 88 89 94 93 113 114 119 118
8 90 91 96 95 115 116 121 120
8 91 92 97 96 116 117 122 121
8 92 93 98 97 117 118 123 122
8 93 94 99 98 118 119 124 123
8 125 126 131 130 150 151 156 155
8 126 127 132 131 151 152 157 156
8 127 128 133 132 152 153 158 157
8 128 129 134 133 153 154 159 158
8 130 131 136 135 155 156 161 160
8 131 132 137 136 156 157 162 161
8 132 133 138 137 157 158 163 162
8 133 134 139 138 158 159 164 163
8 135 136 141 140 160 161 166 165
8 136 137 142 141 161 162 167 166
8 137 138 143 142 162 163 168 167
8 138 139 144 143 163 164 169 168
8 140 141 146 145 165 166 171 170
8 141 142 147 146 166 167 172 171
8 142 143 148 147 167 168 173 172
8 143 144 149 148 168 169 174 173
8 150 151 156 155 175 176 181 180
8 151 152 157 156 176 177 182 181
8 152 153 158 157 177 178 183 182
8 153 154 159 158 178 179 184 183
8 155 156 161 160 180 181 186 185
8 156 157 162 161 181 182 187 186
8 157 158 163 162 182 183 188 187
8 158 159 164 163 183 184 189 188
8 160 161 166 165 185 186 191 190
8 161 162 167 166 186 187 192 191
8 162 163 168 167 187 188 193 192
8 163 164 169 168 188 189 194 193
8 165 166 171 170 190 191 196 195
8 166 167 172 171 191 192 197 196
8 167 168 173 172 192 193 198 197
8 168 169 174 173 193 194 199 198
8 175 176 181 180 200 201 206 205
8 176 177 182 181 201 202 207 206
8 177 178 183 182 202 203 208 207
8 178 179 184 183 203 204 209 208
8 180 181 186 185 205 206 211 210
8 181 182 187 186 206 207 212 211
8 182 183 188 187 207 208 213 212
8 183 184 189 188 208 209 214 213
8 185 186 191 190 210 211 216 215
8 186 187 192 191 211 212 217 216
8 187 188 193 192 212 213 218 217
8 188 189 194 193 213 214 219 218
8 190 191 196 195 215 216 221 220
8 191 192 197 196 216 217 222 221
8 192 193 198 197 217 218 223 222
8 193 194 199 198 218 219 224 223
8 200 201 206 205 225 226 231 230
8 201 202 207 206 226 227 232 231
8 202 203 208 207 227 228 233 232
8 203 204 209 208 228 229 234 233
8 205 206 211 210 230 231 236 235
8 206 207 212 211 231 232 237 236
8 207 208 213 212 232 233 238 237
8 208 209 214 213 233 234 239 238
8 210 211 216 215 235 236 241 240
8 211 212 217 216 236 237 242 241
8 212 213 218 217 237 238 243 242
8 213 214 219 218 238 239 244 243
8 215 216 221 220 240 241 246 245
8 216 217 222 221 241 242 247 246
8 217 218 223 222 242 243 248 247
8 218 219 224 223 243 244 249 248
CELL_TYPES 128
12
12
12
12
12
12
12
12
12
12
12
12
12
12
12
12
12
12
12
12
12
12
12
12
12
12
12
12
12
12
12
12
12
12
12
12
12
12
12
12
12
12
12
12
12
12
12
12
12
12
12
12
12
12
12
12
12
12
12
12
12
12
12
12
12
12
12
12
12
12
12
12
12
12
12
12
12
12
12
12
12
12
12
12
12
12
12
12
12
12
12
12
12
12
12
12
12
12
12
12
12
12
12
12
12
12
12
12
12
12
12
12
12
12
12
12
12
12
12
12
12
12
12
12
12
12
12
12
POINT_DATA 250
VECTORS displacement float
0.000000000000e+00 0.000000000000e+00 0.000000000000e+00
0.000000000000e+00 0.000000000000e+00 0.000000000000e+00
0.000000000000e+00 0.000000000000e+00 0.000000000000e+00
0.000000000000e+00 0.000000000000e+00 0.000000000000e+00
0.000000000000e+00 0.000000000000e+00 0.000000000000e+00
0.000000000000e+00 0.000000000000e+00 0.000000000000e+00
0.000000000000e+00 0.000000000000e+00 0.000000000000e+00
0.000000000000e+00 0.000000000000e+00 0.000000000000e+00
0.000000000000e+00 0.000000000000e+00 0.000000000000e+00
0.000000000000e+00 0.000000000000e+00 0.000000000000e+00
0.000000000000e+00 0.000000000000e+00 0.000000000000e+00
0.000000000000e+00 0.000000000000e+00 0.000000000000e+00
0.000000000000e+00 0.000000000000e+00 0.000000000000e+00
0.000000000000e+00 0.000000000000e+00 0.000000000000e+00
0.000000000000e+00 0.000000000000e+00 0.000000000000e+00
0.000000000000e+00 0.000000000000e+00 0.000000000000e+00
0.000000000000e+00 0.000000000000e+00 0.000000000000e+00
0.000000000000e+00 0.000000000000e+00 0.000000000000e+00
0.000000000000e+00 0.000000000000e+00 0.000000000000e+00
0.000000000000e+00 0.000000000000e+00 0.000000000000e+00
0.000000000000e+00 0.000000000000e+00 0.000000000000e+00
0.000000000000e+00 0.000000000000e+00 0.000000000000e+00
0.000000000000e+00 0.000000000000e+00 0.000000000000e+00
0.000000000000e+00 0.000000000000e+00 0.000000000000e+00
0.000000000000e+00 0.000000000000e+00 0.000000000000e+00
0.000000000000e+00 0.000000000000e+00 0.000000000000e+00
0.000000000000e+00 0.000000000000e+00 0.000000000000e+00
0.000000000000e+00 0.000000000000e+00 0.000000000000e+00
0.000000000000e+00 0.000000000000e+00 0.000000000000e+00
0.000000000000e+00 0.000000000000e+00 0.000000000000e+00
0.000000000000e+00 0.000000000000e+00 0.000000000000e+00
0.000000000000e+00 0.000000000000e+00 0.000000000000e+00
0.000000000000e+00 0.000000000000e+00 0.000000000000e+00
0.000000000000e+00 0.000000000000e+00 0.000000000000e+00
0.000000000000e+00 0.000000000000e+00 0.000000000000e+00
0.000000000000e+00 0.000000000000e+00 0.000000000000e+00
0.000000000000e+00 0.000000000000e+00 0.000000000000e+00
0.000000000000e+00 0.000000000000e+00 0.000000000000e+00
0.000000000000e+00 0.000000000000e+00 0.000000000000e+00
0.000000000000e+00 0.000000000000e+00 0.000000000000e+00
0.000000000000e+00 0.000000000000e+00 0.000000000000e+00
0.000000000000e+00 0.000000000000e+00 0.000000000000e+00
0.000000000000e+00 0.000000000000e+00 0.000000000000e+00
0.000000000000e+00 0.000000000000e+00 0.000000000000e+00
0.000000000000e+00 0.000000000000e+00 0.000000000000e+00
0.000000000000e+00 0.000000000000e+00 0.000000000000e+00
0.000000000000e+00 0.000000000000e+00 0.000000000000e+00
0.000000000000e+00 0.000000000000e+00 0.000000000000e+00
0.000000000000e+00 0.000000000000e+00 0.000000000000e+00
0.000000000000e+00 0.000000000000e+00 0.000000000000e+00
0.000000000000e+00 0.000000000000e+00 0.000000000000e+00
0.000000000000e+00 0.000000000000e+00 0.000000000000e+00
0.000000000000e+00 0.000000000000e+00 0.000000000000e+00
0.000000000000e+00 0.000000000000e+00 0.000000000000e+00
0.000000000000e+00 0.000000000000e+00 0.000000000000e+00
0.000000000000e+00 0.000000000000e+00 0.000000000000e+00
0.000000000000e+00 0.000000000000e+00 0.000000000000e+00
0.000000000000e+00 0.000000000000e+00 0.000000000000e+00
0.000000000000e+00 0.000000000000e+00 0.000000000000e+00
0.000000000000e+00 0.000000000000e+00 0.000000000000e+00
0.000000000000e+00 0.000000000000e+00 0.000000000000e+00
0.000000000000e+00 0.000000000000e+00 0.000000000000e+00
0.000000000000e+00 0.000000000000e+00 0.000000000000e+00
0.000000000000e+00 0.000000000000e+00 0.000000000000e+00
0.000000000000e+00 0.000000000000e+00 0.000000000000e+00
0.000000000000e+00 0.000000000000e+00 0.000000000000e+00
0.000000000000e+00 0.000000000000e+00 0.000000000000e+00
0.000000000000e+00 0.000000000000e+00 0.000000000000e+00
0.000000000000e+00 0.000000000000e+00 0.000000000000e+00
0.000000000000e+00 0.000000000000e+00 0.000000000000e+00
0.000000000000e+00 0.000000000000e+00 0.000000000000e+00
0.000000000000e+00 0.000000000000e+00 0.000000000000e+00
0.000000000000e+00 0.000000000000e+00 0.000000000000e+00
0.000000000000e+00 0.000000000000e+00 0.000000000000e+00
0.000000000000e+00 0.000000000000e+00 0.000000000000e+00
0.000000000000e+00 0.000000000000e+00 0.000000000000e+00
0.000000000000e+00 0.000000000000e+00 0.000000000000e+00
0.000000000000e+00 0.000000000000e+00 0.000000000000e+00
0.000000000000e+00 0.000000000000e+00 0.000000000000e+00
0.000000000000e+00 0.000000000000e+00 0.000000000000e+00
0.000000000000e+00 0.000000000000e+00 0.000000000000e+00
0.000000000000e+00 0.000000000000e+00 0.000000000000e+00
0.000000000000e+00 0.000000000000e+00 0.000000000000e+00
0.000000000000e+00 0.000000000000e+00 0.000000000000e+00
0.000000000000e+00 0.000000000000e+00 0.000000000000e+00
0.000000000000e+00 0.000000000000e+00 0.000000000000e+00
0.000000000000e+00 0.000000000000e+00 0.000000000000e+00
0.000000000000e+00 0.000000000000e+00 0.000000000000e+00
0.000000000000e+00 0.000000000000e+00 0.000000000000e+00
0.000000000000e+00 0.000000000000e+00 0.000000000000e+00
0.000000000000e+00 0.000000000000e+00 0.000000000000e+00
0.000000000000e+00 0.000000000000e+00 0.000000000000e+00
0.000000000000e+00 0.000000000000e+00 0.000000000000e+00
0.000000000000e+00 0.000000000000e+00 0.000000000000e+00
0.000000000000e+00 0.000000000000e+00 0.000000000000e+00
0.000000000000e+00 0.000000000000e+00 0.000000000000e+00
0.000000000000e+00 0.000000000000e+00 0.000000000000e+00
0.000000000000e+00 0.000000000000e+00 0.000000000000e+00
0.000000000000e+00 0.000000000000e+00 0.000000000000e+00
0.000000000000e+00 0.000000000000e+00 0.000000000000e+00
0.000000000000e+00 0.000000000000e+00 0.000000000000e+00
0.000000000000e+00 0.000000000000e+00 0.000000000000e+00
0.000000000000e+00 0.000000000000e+00 0.000000000000e+00
0.000000000000e+00 0.000000000000e+00 0.000000000000e+00
0.000000000000e+00 0.000000000000e+00 0.000000000000e+00
0.000000000000e+00 0.000000000000e+00 0.000000000000e+00
0.000000000000e+00 0.000000000000e+00 0.000000000000e+00
0.000000000000e+00 0.000000000000e+00 0.000000000000e+00
0.000000000000e+00 0.000000000000e+00 0.000000000000e+00
0.000000000000e+00 0.000000000000e+00 0.000000000000e+00
0.000000000000e+00 0.000000000000e+00 0.000000000000e+00
0.000000000000e+00 0.000000000000e+00 0.000000000000e+00
0.000000000000e+00 0.000000000000e+00 0.000000000000e+00
0.000000000000e+00 0.000000000000e+00 0.000000000000e+00
0.000000000000e+00 0.000000000000e+00 0.000000000000e+00
0.000000000000e+00 0.000000000000e+00 0.000000000000e+00
0.000000000000e+00 0.000000000000e+00 0.000000000000e+00
0.000000000000e+00 0.000000000000e+00 0.000000000000e+00
0.000000000000e+00 0.000000000000e+00 0.000000000000e+00
0.000000000000e+00 0.000000000000e+00 0.000000000000e+00
0.000000000000e+00 0.000000000000e+00 0.000000000000e+00
0.000000000000e+00 0.000000000000e+00 0.000000000000e+00
0.000000000000e+00 0.000000000000e+00 0.000000000000e+00
0.000000000000e+00 0.000000000000e+00 0.000000000000e+00
0.000000000000e+00 0.000000000000e+00 0.000000000000e+00
3.092619228313e-08 3.087012581913e-08 -8.421035673093e-03
2.087115207616e-08 2.934617290954e-08 -8.421022415521e-03
8.721596661746e-11 2.723789662302e-08 -8.421016239417e-03
-2.069672006783e-08 2.934611021276e-08 -8.421022248233e-03
-3.075176026717e-08 3.087000018622e-08 -8.421035338515e-03
2.940230289570e-08 2.081508596354e-08 -8.421022468759e-03
2.076779649262e-08 2.071166672454e-08 -8.421010253136e-03
8.724753800038e-11 2.000865633701e-08 -8.421004675596e-03
-2.059330134665e-08 2.071160343746e-08 -8.421010085847e-03
-2.922780767295e-08 2.081495924361e-08 -8.421022134181e-03
2.729409028463e-08 3.115048805876e-11 -8.421016345893e-03
2.006484995113e-08 3.111812034285e-11 -8.421004728834e-03
8.727947902605e-11 3.108588973354e-11 -8.420999305169e-03
-1.989029093047e-08 3.105381867266e-11 -8.421004561545e-03
-2.711953111290e-08 3.102187436285e-11 -8.421016011314e-03
2.940236779689e-08 -2.075278496089e-08 -8.421022407946e-03
2.076786118367e-08 -2.064943045843e-08 -8.421010192323e-03
8.731186058627e-11 -1.994648453290e-08 -8.421004614783e-03
-2.059323739700e-08 -2.064949577697e-08 -8.421010025034e-03
-2.922774393758e-08 -2.075291547287e-08 -8.421022073367e-03
3.092632200775e-08 -3.080782481567e-08 -8.421035551466e-03
2.087128140289e-08 -2.928393661722e-08 -8.421022293894e-03
8.734460209223e-11 -2.717572475667e-08 -8.421016117790e-03
-2.069659212483e-08 -2.928400252391e-08 -8.421022126606e-03
-3.075163272732e-08 -3.080795641917e-08 -8.421035216888e-03
2.465066619004e-08 2.462228373282e-08 -8.421029749010e-03
1.591426444973e-08 2.370546154095e-08 -8.421015324289e-03
4.372074145188e-11 2.217121128092e-08 -8.421008103041e-03
-1.582682309896e-08 2.370539857495e-08 -8.421015157000e-03
-2.456322512044e-08 2.462215775936e-08 -8.421029414431e-03
2.373390754127e-08 1.588588222149e-08 -8.421015377527e-03
1.596261483073e-08 1.593416893047e-08 -8.421001626111e-03
4.375228556962e-11 1.542928081033e-08 -8.420994752243e-03
-1.587511036358e-08 1.593410546604e-08 -8.421001458822e-03
-2.364640326708e-08 1.588575525074e-08 -8.421015042948e-03
2.219972104010e-08 1.533900036758e-11 -8.421008209517e-03
1.545779060040e-08 1.530662398931e-11 -8.420994805481e-03
4.378419601315e-11 1.527438159824e-11 -8.420987909489e-03
-1.537022229816e-08 1.524231534515e-11 -8.420994638192e-03
-2.211215284263e-08 1.521038108942e-11 -8.421007874937e-03
2.373397234436e-08 -1.585520426508e-08 -8.421015316714e-03
1.596267945519e-08 -1.590355572031e-08 -8.421001565298e-03
4.381660149606e-11 -1.539873208233e-08 -8.420994691430e-03
-1.587504635705e-08 -1.590362087388e-08 -8.421001398009e-03
-2.364633943807e-08 -1.585533453310e-08 -8.421014982135e-03
2.465079578603e-08 -2.459160587448e-08 -8.421029627383e-03
1.591439367657e-08 -2.367484840197e-08 -8.421015202662e-03
4.384936776600e-11 -2.214066259236e-08 -8.421007981414e-03
-1.582669506672e-08 -2.367491404909e-08 -8.421015035373e-03
-2.456309745112e-08 -2.459173714431e-08 -8.421029292804e-03
1.838988385597e-08 1.838918558667e-08 -8.421022004979e-03
1.133774440315e-08 1.793540683645e-08 -8.421006559532e-03
2.250538813140e-13 1.695335088374e-08 -8.420998901622e-03
-1.133729443154e-08 1.793534359208e-08 -8.421006392242e-03
-1.838943420557e-08 1.838905918121e-08 -8.421021670399e-03
1.793616872299e-08 1.133704630415e-08 -8.421006612770e-03
1.136064264708e-08 1.135988080671e-08 -8.420991596637e-03
2.566723449696e-13 1.104182915913e-08 -8.420984162120e-03
-1.136012943673e-08 1.135981714551e-08 -8.420991429348e-03
-1.793565579413e-08 1.133691903816e-08 -8.421006278190e-03
1.695417661136e-08 -4.726551526920e-13 -8.420999008099e-03
1.104265495110e-08 -5.050033297445e-13 -8.420984215358e-03
2.885799027832e-13 -5.372483298371e-13 -8.420976672031e-03
-1.104207790942e-08 -5.693152638968e-13 -8.420984048068e-03
-1.695359977519e-08 -6.012788821379e-13 -8.420998673518e-03
1.793623342217e-08 -1.133799165781e-08 -8.421006551957e-03
1.136070719798e-08 -1.136089086388e-08 -8.420991535824e-03
3.209834145177e-13 -1.104290370224e-08 -8.420984101306e-03
-1.136006536391e-08 -1.136095582745e-08 -8.420991368534e-03
-1.793559186636e-08 -1.133812163978e-08 -8.421006217376e-03
1.839001328981e-08 -1.839013105321e-08 -8.421021883352e-03
1.133787351876e-08 -1.793641699815e-08 -8.421006437904e-03
3.536753841902e-13 -1.695442550388e-08 -8.420998779995e-03
-1.133716629836e-08 -1.793648237519e-08 -8.421006270615e-03
-1.838930638895e-08 -1.839026189813e-08 -8.421021548772e-03
1.036982940763e-08 1.039681545276e-08 -8.421016164506e-03
6.341139997101e-09 1.021747012549e-08 -8.420999774640e-03
-4.327083478248e-11 9.725045292112e-09 -8.420991928035e-03
-6.427681785034e-09 1.021740650975e-08 -8.420999607350e-03
-1.045637141477e-08 1.039668844125e-08 -8.421015829926e-03
1.019054779484e-08 6.368126156919e-09 -8.420999827878e-03
6.349596523240e-09 6.376518868997e-09 -8.420983769377e-03
-4.323913473166e-11 6.217300624742e-09 -8.420976090830e-03
-6.436074949352e-09 6.376454994338e-09 -8.420983602087e-03
-1.027702643335e-08 6.367998570053e-09 -8.420999493297e-03
9.698186913312e-09 -1.628438178099e-11 -8.420992034512e-03
6.190442292931e-09 -1.631670242790e-11 -8.420976144068e-03
-4.320723857378e-11 -1.634895147090e-11 -8.420968316554e-03
-6.276856901725e-09 -1.638101970759e-11 -8.420975976778e-03
-9.784601665270e-09 -1.641300786963e-11 -8.420991699930e-03
1.019061235342e-08 -6.400694961866e-09 -8.420999767065e-03
6.349660992885e-09 -6.409152330790e-09 -8.420983708563e-03
-4.317482819451e-11 -6.249998579671e-09 -8.420976030016e-03
-6.436010801318e-09 -6.409217085857e-09 -8.420983541273e-03
-1.027696237518e-08 -6.400824630866e-09 -8.420999432484e-03
1.036995861384e-08 -1.042938433708e-08 -8.421016042879e-03
6.341268992039e-09 -1.025010366702e-08 -8.420999653012e-03
-4.314221571165e-11 -9.757743302402e-09 -8.420991806407e-03
-6.427553542366e-09 -1.025016867645e-08 -8.420999485723e-03
-1.045624338158e-08 -1.042951458182e-08 -8.421015708298e-03
1.384346065566e-09 1.439016376520e-09 -8.421013733334e-03
2.330532365669e-10 1.553441956070e-09 -8.420997003853e-03
-8.676644317202e-11 1.493486891345e-09 -8.420989129465e-03
-4.065864153774e-10 1.553377929193e-09 -8.420996836564e-03
-1.557879588868e-09 1.438888770368e-09 -8.421013398753e-03
1.498835403355e-09 2.877235473924e-10 -8.420997057092e-03
2.698776382841e-10 3.244841115936e-10 -8.420980651310e-03
-8.673478401618e-11 2.349558587175e-10 -8.420972936931e-03
-4.433475048180e-10 3.244200047314e-10 -8.420980484019e-03
-1.672305580824e-09 2.875956115809e-10 -8.420996722511e-03
1.438944390643e-09 -3.209600178084e-11 -8.420989235942e-03
1.804134434517e-10 -3.212834270566e-11 -8.420972990169e-03
-8.670293546617e-11 -3.216061555483e-11 -8.420965131386e-03
-3.538195763558e-10 -3.219266294719e-11 -8.420972822879e-03
-1.612350763107e-09 -3.222463828125e-11 -8.420988901360e-03
1.498899805396e-09 -3.519156692410e-10 -8.420996996279e-03
2.699420126060e-10 -3.887409079346e-10 -8.420980590496e-03
-8.667048065314e-11 -2.992771787485e-10 -8.420972876117e-03
-4.432832739598e-10 -3.888054390069e-10 -8.420980423206e-03
-1.672241383162e-09 -3.520449975632e-10 -8.420996661697e-03
1.384475044471e-09 -1.503208632907e-09 -8.421013611706e-03
2.331821012268e-10 -1.617698871532e-09 -8.420996882226e-03
-8.663782879915e-11 -1.557808287124e-09 -8.420989007837e-03
-4.064580545657e-10 -1.617763474655e-09 -8.420996714936e-03
-1.557751342512e-09 -1.503338287638e-09 -8.421013277126e-03
SCALARS displacement_magnitude float 1
LOOKUP_TABLE default
0.000000000000e+00
0.000000000000e+00
0.000000000000e+00
0.000000000000e+00
0.000000000000e+00
0.000000000000e+00
0.000000000000e+00
0.000000000000e+00
0.000000000000e+00
0.000000000000e+00
0.000000000000e+00
0.000000000000e+00
0.000000000000e+00
0.000000000000e+00
0.000000000000e+00
0.000000000000e+00
0.000000000000e+00
0.000000000000e+00
0.000000000000e+00
0.000000000000e+00
0.000000000000e+00
0.000000000000e+00
0.000000000000e+00
0.000000000000e+00
0.000000000000e+00
0.000000000000e+00
0.000000000000e+00
0.000000000000e+00
0.000000000000e+00
0.000000000000e+00
0.000000000000e+00
0.000000000000e+00
0.000000000000e+00
0.000000000000e+00
0.000000000000e+00
0.000000000000e+00
0.000000000000e+00
0.000000000000e+00
0.000000000000e+00
0.000000000000e+00
0.000000000000e+00
0.000000000000e+00
0.000000000000e+00
0.000000000000e+00
0.000000000000e+00
0.000000000000e+00
0.000000000000e+00
0.000000000000e+00
0.000000000000e+00
0.000000000000e+00
0.000000000000e+00
0.000000000000e+00
0.000000000000e+00
0.000000000000e+00
0.000000000000e+00
0.000000000000e+00
0.000000000000e+00
0.000000000000e+00
0.000000000000e+00
0.000000000000e+00
0.000000000000e+00
0.000000000000e+00
0.000000000000e+00
0.000000000000e+00
0.000000000000e+00
0.000000000000e+00
0.000000000000e+00
0.000000000000e+00
0.000000000000e+00
0.000000000000e+00
0.000000000000e+00
0.000000000000e+00
0.000000000000e+00
0.000000000000e+00
0.000000000000e+00
0.000000000000e+00
0.000000000000e+00
0.000000000000e+00
0.000000000000e+00
0.000000000000e+00
0.000000000000e+00
0.000000000000e+00
0.000000000000e+00
0.000000000000e+00
0.000000000000e+00
0.000000000000e+00
0.000000000000e+00
0.000000000000e+00
0.000000000000e+00
0.000000000000e+00
0.000000000000e+00
0.000000000000e+00
0.000000000000e+00
0.000000000000e+00
0.000000000000e+00
0.000000000000e+00
0.000000000000e+00
0.000000000000e+00
0.000000000000e+00
0.000000000000e+00
0.000000000000e+00
0.000000000000e+00
0.000000000000e+00
0.000000000000e+00
0.000000000000e+00
0.000000000000e+00
0.000000000000e+00
0.000000000000e+00
0.000000000000e+00
0.000000000000e+00
0.000000000000e+00
0.000000000000e+00
0.000000000000e+00
0.000000000000e+00
0.000000000000e+00
0.000000000000e+00
0.000000000000e+00
0.000000000000e+00
0.000000000000e+00
0.000000000000e+00
0.000000000000e+00
0.000000000000e+00
0.000000000000e+00
0.000000000000e+00
0.000000000000e+00
8.421035673206e-03
8.421022415598e-03
8.421016239461e-03
8.421022248309e-03
8.421035338627e-03
8.421022468837e-03
8.421010253187e-03
8.421004675620e-03
8.421010085898e-03
8.421022134257e-03
8.421016345938e-03
8.421004728858e-03
8.420999305169e-03
8.421004561569e-03
8.421016011358e-03
8.421022408023e-03
8.421010192374e-03
8.421004614807e-03
8.421010025084e-03
8.421022073444e-03
8.421035551579e-03
8.421022293971e-03
8.421016117834e-03
8.421022126682e-03
8.421035217000e-03
8.421029749082e-03
8.421015324337e-03
8.421008103070e-03
8.421015157048e-03
8.421029414503e-03
8.421015377576e-03
8.421001626142e-03
8.420994752257e-03
8.421001458852e-03
8.421015042996e-03
8.421008209547e-03
8.420994805495e-03
8.420987909489e-03
8.420994638206e-03
8.421007874967e-03
8.421015316763e-03
8.421001565328e-03
8.420994691444e-03
8.421001398039e-03
8.421014982183e-03
8.421029627455e-03
8.421015202710e-03
8.421007981443e-03
8.421015035421e-03
8.421029292876e-03
8.421022005019e-03
8.421006559558e-03
8.420998901639e-03
8.421006392269e-03
8.421021670439e-03
8.421006612797e-03
8.420991596653e-03
8.420984162127e-03
8.420991429363e-03
8.421006278216e-03
8.420999008116e-03
8.420984215365e-03
8.420976672031e-03
8.420984048075e-03
8.420998673535e-03
8.421006551984e-03
8.420991535839e-03
8.420984101314e-03
8.420991368549e-03
8.421006217403e-03
8.421021883392e-03
8.421006437931e-03
8.420998780012e-03
8.421006270642e-03
8.421021548812e-03
8.421016164519e-03
8.420999774648e-03
8.420991928041e-03
8.420999607359e-03
8.421015829939e-03
8.420999827887e-03
8.420983769382e-03
8.420976090832e-03
8.420983602091e-03
8.420999493306e-03
8.420992034517e-03
8.420976144070e-03
8.420968316554e-03
8.420975976780e-03
8.420991699936e-03
8.420999767074e-03
8.420983708568e-03
8.420976030018e-03
8.420983541278e-03
8.420999432493e-03
8.421016042891e-03
8.420999653021e-03
8.420991806413e-03
8.420999485731e-03
8.421015708311e-03
8.421013733334e-03
8.420997003854e-03
8.420989129465e-03
8.420996836564e-03
8.421013398754e-03
8.420997057092e-03
8.420980651310e-03
8.420972936931e-03
8.420980484019e-03
8.420996722511e-03
8.420989235942e-03
8.420972990169e-03
8.420965131386e-03
8.420972822879e-03
8.420988901360e-03
8.420996996279e-03
8.420980590496e-03
8.420972876117e-03
8.420980423206e-03
8.420996661697e-03
8.421013611707e-03
8.420996882226e-03
8.420989007837e-03
8.420996714936e-03
8.421013277126e-03
CELL_DATA 128
SCALARS displacement_magnitude float 1
LOOKUP_TABLE default
0.000000000000e+00
0.000000000000e+00
0.000000000000e+00
0.000000000000e+00
0.000000000000e+00
0.000000000000e+00
0.000000000000e+00
0.000000000000e+00
0.000000000000e+00
0.000000000000e+00
0.000000000000e+00
0.000000000000e+00
0.000000000000e+00
0.000000000000e+00
0.000000000000e+00
0.000000000000e+00
0.000000000000e+00
0.000000000000e+00
0.000000000000e+00
0.000000000000e+00
0.000000000000e+00
0.000000000000e+00
0.000000000000e+00
0.000000000000e+00
0.000000000000e+00
0.000000000000e+00
0.000000000000e+00
0.000000000000e+00
0.000000000000e+00
0.000000000000e+00
0.000000000000e+00
0.000000000000e+00
0.000000000000e+00
0.000000000000e+00
0.000000000000e+00
0.000000000000e+00
0.000000000000e+00
0.000000000000e+00
0.000000000000e+00
0.000000000000e+00
0.000000000000e+00
0.000000000000e+00
0.000000000000e+00
0.000000000000e+00
0.000000000000e+00
0.000000000000e+00
0.000000000000e+00
0.000000000000e+00
0.000000000000e+00
0.000000000000e+00
0.000000000000e+00
0.000000000000e+00
0.000000000000e+00
0.000000000000e+00
0.000000000000e+00
0.000000000000e+00
0.000000000000e+00
0.000000000000e+00
0.000000000000e+00
0.000000000000e+00
0.000000000000e+00
0.000000000000e+00
0.000000000000e+00
0.000000000000e+00
8.421019110996e-03
8.421009173709e-03
8.421009090065e-03
8.421018860061e-03
8.421009226947e-03
8.420999757027e-03
8.420999673382e-03
8.421008976013e-03
8.421009196541e-03
8.420999726621e-03
8.420999642976e-03
8.421008945606e-03
8.421019019775e-03
8.421009082489e-03
8.421008998844e-03
8.421018768841e-03
8.421011106395e-03
8.421000128223e-03
8.421000044578e-03
8.421010855461e-03
8.421000181461e-03
8.420989467445e-03
8.420989383800e-03
8.420999930526e-03
8.421000151055e-03
8.420989437038e-03
8.420989353393e-03
8.420999900120e-03
8.421011015175e-03
8.421000037003e-03
8.420999953358e-03
8.421010764241e-03
8.421003288808e-03
8.420991597860e-03
8.420991514215e-03
8.421003037873e-03
8.420991651098e-03
8.420980120877e-03
8.420980037232e-03
8.420991400163e-03
8.420991620692e-03
8.420980090470e-03
8.420980006825e-03
8.420991369756e-03
8.421003197587e-03
8.420991506639e-03
8.420991422995e-03
8.421002946652e-03
8.420998497753e-03
8.420986410558e-03
8.420986326913e-03
8.420998246818e-03
8.420986463796e-03
8.420974503829e-03
8.420974420184e-03
8.420986212860e-03
8.420986433389e-03
8.420974473422e-03
8.420974389777e-03
8.420986182454e-03
8.420998406533e-03
8.420986319337e-03
8.420986235692e-03
8.420998155597e-03
SCALARS engineering_strain_norm float 1
LOOKUP_TABLE default
0.000000000000e+00
0.000000000000e+00
0.000000000000e+00
0.000000000000e+00
0.000000000000e+00
0.000000000000e+00
0.000000000000e+00
0.000000000000e+00
0.000000000000e+00
0.000000000000e+00
0.000000000000e+00
0.000000000000e+00
0.000000000000e+00
0.000000000000e+00
0.000000000000e+00
0.000000000000e+00
0.000000000000e+00
0.000000000000e+00
0.000000000000e+00
0.000000000000e+00
0.000000000000e+00
0.000000000000e+00
0.000000000000e+00
0.000000000000e+00
0.000000000000e+00
0.000000000000e+00
0.000000000000e+00
0.000000000000e+00
0.000000000000e+00
0.000000000000e+00
0.000000000000e+00
0.000000000000e+00
0.000000000000e+00
0.000000000000e+00
0.000000000000e+00
0.000000000000e+00
0.000000000000e+00
0.000000000000e+00
0.000000000000e+00
0.000000000000e+00
0.000000000000e+00
0.000000000000e+00
0.000000000000e+00
0.000000000000e+00
0.000000000000e+00
0.000000000000e+00
0.000000000000e+00
0.000000000000e+00
0.000000000000e+00
0.000000000000e+00
0.000000000000e+00
0.000000000000e+00
0.000000000000e+00
0.000000000000e+00
0.000000000000e+00
0.000000000000e+00
0.000000000000e+00
0.000000000000e+00
0.000000000000e+00
0.000000000000e+00
0.000000000000e+00
0.000000000000e+00
0.000000000000e+00
0.000000000000e+00
1.528330341805e-07
2.071596016151e-07
2.071596042350e-07
1.528330426247e-07
2.071595983791e-07
2.556123094352e-07
2.556123133668e-07
2.071596110407e-07
2.071595993028e-07
2.556123108729e-07
2.556123147914e-07
2.071596119737e-07
1.528330372683e-07
2.071596062353e-07
2.071596087780e-07
1.528330457308e-07
1.681146124662e-07
1.967946878251e-07
1.967946930681e-07
1.681146248566e-07
1.967946848766e-07
2.253329468787e-07
2.253329523395e-07
1.967946993296e-07
1.967946867489e-07
2.253329488949e-07
2.253329543744e-07
1.967947012173e-07
1.681146169751e-07
1.967946931134e-07
1.967946983102e-07
1.681146293587e-07
1.268950513171e-07
1.446133864192e-07
1.446133920716e-07
1.268950616928e-07
1.446133844224e-07
1.621970247209e-07
1.621970301567e-07
1.446133963527e-07
1.446133864977e-07
1.621970267392e-07
1.621970321235e-07
1.446133983513e-07
1.268950550819e-07
1.446133907868e-07
1.446133964002e-07
1.268950654274e-07
5.649431216169e-08
6.098753898082e-08
6.098754320432e-08
5.649431777519e-08
6.098753815458e-08
6.502208374093e-08
6.502208771070e-08
6.098754493755e-08
6.098753974434e-08
6.502208519796e-08
6.502208915212e-08
6.098754643930e-08
5.649431424303e-08
6.098754150295e-08
6.098754565971e-08
5.649431978019e-08
SCALARS von_mises float 1
LOOKUP_TABLE default
0.000000000000e+00
0.000000000000e+00
0.000000000000e+00
0.000000000000e+00
0.000000000000e+00
0.000000000000e+00
0.000000000000e+00
0.000000000000e+00
0.000000000000e+00
0.000000000000e+00
0.000000000000e+00
0.000000000000e+00
0.000000000000e+00
0.000000000000e+00
0.000000000000e+00
0.000000000000e+00
0.000000000000e+00
0.000000000000e+00
0.000000000000e+00
0.000000000000e+00
0.000000000000e+00
0.000000000000e+00
0.000000000000e+00
0.000000000000e+00
0.000000000000e+00
0.000000000000e+00
0.000000000000e+00
0.000000000000e+00
0.000000000000e+00
0.000000000000e+00
0.000000000000e+00
0.000000000000e+00
0.000000000000e+00
0.000000000000e+00
0.000000000000e+00
0.000000000000e+00
0.000000000000e+00
0.000000000000e+00
0.000000000000e+00
0.000000000000e+00
0.000000000000e+00
0.000000000000e+00
0.000000000000e+00
0.000000000000e+00
0.000000000000e+00
0.000000000000e+00
0.000000000000e+00
0.000000000000e+00
0.000000000000e+00
0.000000000000e+00
0.000000000000e+00
0.000000000000e+00
0.000000000000e+00
0.000000000000e+00
0.000000000000e+00
0.000000000000e+00
0.000000000000e+00
0.000000000000e+00
0.000000000000e+00
0.000000000000e+00
0.000000000000e+00
0.000000000000e+00
0.000000000000e+00
0.000000000000e+00
1.411139055263e-02
1.895498669895e-02
1.895498693234e-02
1.411139135422e-02
1.895498638986e-02
2.290628361784e-02
2.290628397806e-02
1.895498758167e-02
1.895498647158e-02
2.290628374950e-02
2.290628410794e-02
1.895498766450e-02
1.411139084528e-02
1.895498713360e-02
1.895498735909e-02
1.411139164845e-02
1.545310525373e-02
1.829283125751e-02
1.829283168126e-02
1.545310637691e-02
1.829283096274e-02
2.093391332033e-02
2.093391379398e-02
1.829283230751e-02
1.829283111288e-02
2.093391349531e-02
2.093391397162e-02
1.829283246026e-02
1.545310566177e-02
1.829283174925e-02
1.829283216919e-02
1.545310678407e-02
1.164167900262e-02
1.341042540206e-02
1.341042582121e-02
1.164167992241e-02
1.341042518847e-02
1.510547993218e-02
1.510548036796e-02
1.341042628002e-02
1.341042534142e-02
1.510548009447e-02
1.510548052579e-02
1.341042642719e-02
1.164167933608e-02
1.341042580118e-02
1.341042621718e-02
1.164168025347e-02
5.095192234134e-03
5.535250184088e-03
5.535250494166e-03
5.095192742979e-03
5.535250080041e-03
5.947839401419e-03
5.947839712115e-03
5.535250712334e-03
5.535250196700e-03
5.947839515410e-03
5.947839824182e-03
5.535250822299e-03
5.095192423219e-03
5.535250418435e-03
5.535250722328e-03
5.095192925399e-03
SCALARS sdf_gap float 1
LOOKUP_TABLE default
0.000000000000e+00
0.000000000000e+00
0.000000000000e+00
0.000000000000e+00
0.000000000000e+00
0.000000000000e+00
0.000000000000e+00
0.000000000000e+00
0.000000000000e+00
0.000000000000e+00
0.000000000000e+00
0.000000000000e+00
0.000000000000e+00
0.000000000000e+00
0.000000000000e+00
0.000000000000e+00
0.000000000000e+00
0.000000000000e+00
0.000000000000e+00
0.000000000000e+00
0.000000000000e+00
0.000000000000e+00
0.000000000000e+00
0.000000000000e+00
0.000000000000e+00
0.000000000000e+00
0.000000000000e+00
0.000000000000e+00
0.000000000000e+00
0.000000000000e+00
0.000000000000e+00
0.000000000000e+00
0.000000000000e+00
0.000000000000e+00
0.000000000000e+00
0.000000000000e+00
0.000000000000e+00
0.000000000000e+00
0.000000000000e+00
0.000000000000e+00
0.000000000000e+00
0.000000000000e+00
0.000000000000e+00
0.000000000000e+00
0.000000000000e+00
0.000000000000e+00
0.000000000000e+00
0.000000000000e+00
0.000000000000e+00
0.000000000000e+00
0.000000000000e+00
0.000000000000e+00
0.000000000000e+00
0.000000000000e+00
0.000000000000e+00
0.000000000000e+00
0.000000000000e+00
0.000000000000e+00
0.000000000000e+00
0.000000000000e+00
0.000000000000e+00
0.000000000000e+00
0.000000000000e+00
0.000000000000e+00
6.578977297373e-03
6.578986604082e-03
6.578986687727e-03
6.578977548306e-03
6.578986550844e-03
6.578995259316e-03
6.578995342961e-03
6.578986801778e-03
6.578986581251e-03
6.578995289723e-03
6.578995373367e-03
6.578986832185e-03
6.578977388593e-03
6.578986695302e-03
6.578986778947e-03
6.578977639526e-03
0.000000000000e+00
0.000000000000e+00
0.000000000000e+00
0.000000000000e+00
0.000000000000e+00
0.000000000000e+00
0.000000000000e+00
0.000000000000e+00
0.000000000000e+00
0.000000000000e+00
0.000000000000e+00
0.000000000000e+00
0.000000000000e+00
0.000000000000e+00
0.000000000000e+00
0.000000000000e+00
0.000000000000e+00
0.000000000000e+00
0.000000000000e+00
0.000000000000e+00
0.000000000000e+00
0.000000000000e+00
0.000000000000e+00
0.000000000000e+00
0.000000000000e+00
0.000000000000e+00
0.000000000000e+00
0.000000000000e+00
0.000000000000e+00
0.000000000000e+00
0.000000000000e+00
0.000000000000e+00
0.000000000000e+00
0.000000000000e+00
0.000000000000e+00
0.000000000000e+00
0.000000000000e+00
0.000000000000e+00
0.000000000000e+00
0.000000000000e+00
0.000000000000e+00
0.000000000000e+00
0.000000000000e+00
0.000000000000e+00
0.000000000000e+00
0.000000000000e+00
0.000000000000e+00
0.000000000000e+00
SCALARS contact_pressure float 1
LOOKUP_TABLE default
0.000000000000e+00
0.000000000000e+00
0.000000000000e+00
0.000000000000e+00
0.000000000000e+00
0.000000000000e+00
0.000000000000e+00
0.000000000000e+00
0.000000000000e+00
0.000000000000e+00
0.000000000000e+00
0.000000000000e+00
0.000000000000e+00
0.000000000000e+00
0.000000000000e+00
0.000000000000e+00
0.000000000000e+00
0.000000000000e+00
0.000000000000e+00
0.000000000000e+00
0.000000000000e+00
0.000000000000e+00
0.000000000000e+00
0.000000000000e+00
0.000000000000e+00
0.000000000000e+00
0.000000000000e+00
0.000000000000e+00
0.000000000000e+00
0.000000000000e+00
0.000000000000e+00
0.000000000000e+00
0.000000000000e+00
0.000000000000e+00
0.000000000000e+00
0.000000000000e+00
0.000000000000e+00
0.000000000000e+00
0.000000000000e+00
0.000000000000e+00
0.000000000000e+00
0.000000000000e+00
0.000000000000e+00
0.000000000000e+00
0.000000000000e+00
0.000000000000e+00
0.000000000000e+00
0.000000000000e+00
0.000000000000e+00
0.000000000000e+00
0.000000000000e+00
0.000000000000e+00
0.000000000000e+00
0.000000000000e+00
0.000000000000e+00
0.000000000000e+00
0.000000000000e+00
0.000000000000e+00
0.000000000000e+00
0.000000000000e+00
0.000000000000e+00
0.000000000000e+00
0.000000000000e+00
0.000000000000e+00
0.000000000000e+00
0.000000000000e+00
0.000000000000e+00
0.000000000000e+00
0.000000000000e+00
0.000000000000e+00
0.000000000000e+00
0.000000000000e+00
0.000000000000e+00
0.000000000000e+00
0.000000000000e+00
0.000000000000e+00
0.000000000000e+00
0.000000000000e+00
0.000000000000e+00
0.000000000000e+00
0.000000000000e+00
0.000000000000e+00
0.000000000000e+00
0.000000000000e+00
0.000000000000e+00
0.000000000000e+00
0.000000000000e+00
0.000000000000e+00
0.000000000000e+00
0.000000000000e+00
0.000000000000e+00
0.000000000000e+00
0.000000000000e+00
0.000000000000e+00
0.000000000000e+00
0.000000000000e+00
0.000000000000e+00
0.000000000000e+00
0.000000000000e+00
0.000000000000e+00
0.000000000000e+00
0.000000000000e+00
0.000000000000e+00
0.000000000000e+00
0.000000000000e+00
0.000000000000e+00
0.000000000000e+00
0.000000000000e+00
0.000000000000e+00
0.000000000000e+00
0.000000000000e+00
0.000000000000e+00
0.000000000000e+00
0.000000000000e+00
0.000000000000e+00
0.000000000000e+00
0.000000000000e+00
0.000000000000e+00
0.000000000000e+00
0.000000000000e+00
0.000000000000e+00
0.000000000000e+00
0.000000000000e+00
0.000000000000e+00
0.000000000000e+00
0.000000000000e+00
0.000000000000e+00
0.000000000000e+00
SCALARS active_contact float 1
LOOKUP_TABLE default
0.000000000000e+00
0.000000000000e+00
0.000000000000e+00
0.000000000000e+00
0.000000000000e+00
0.000000000000e+00
0.000000000000e+00
0.000000000000e+00
0.000000000000e+00
0.000000000000e+00
0.000000000000e+00
0.000000000000e+00
0.000000000000e+00
0.000000000000e+00
0.000000000000e+00
0.000000000000e+00
0.000000000000e+00
0.000000000000e+00
0.000000000000e+00
0.000000000000e+00
0.000000000000e+00
0.000000000000e+00
0.000000000000e+00
0.000000000000e+00
0.000000000000e+00
0.000000000000e+00
0.000000000000e+00
0.000000000000e+00
0.000000000000e+00
0.000000000000e+00
0.000000000000e+00
0.000000000000e+00
0.000000000000e+00
0.000000000000e+00
0.000000000000e+00
0.000000000000e+00
0.000000000000e+00
0.000000000000e+00
0.000000000000e+00
0.000000000000e+00
0.000000000000e+00
0.000000000000e+00
0.000000000000e+00
0.000000000000e+00
0.000000000000e+00
0.000000000000e+00
0.000000000000e+00
0.000000000000e+00
0.000000000000e+00
0.000000000000e+00
0.000000000000e+00
0.000000000000e+00
0.000000000000e+00
0.000000000000e+00
0.000000000000e+00
0.000000000000e+00
0.000000000000e+00
0.000000000000e+00
0.000000000000e+00
0.000000000000e+00
0.000000000000e+00
0.000000000000e+00
0.000000000000e+00
0.000000000000e+00
0.000000000000e+00
0.000000000000e+00
0.000000000000e+00
0.000000000000e+00
0.000000000000e+00
0.000000000000e+00
0.000000000000e+00
0.000000000000e+00
0.000000000000e+00
0.000000000000e+00
0.000000000000e+00
0.000000000000e+00
0.000000000000e+00
0.000000000000e+00
0.000000000000e+00
0.000000000000e+00
0.000000000000e+00
0.000000000000e+00
0.000000000000e+00
0.000000000000e+00
0.000000000000e+00
0.000000000000e+00
0.000000000000e+00
0.000000000000e+00
0.000000000000e+00
0.000000000000e+00
0.000000000000e+00
0.000000000000e+00
0.000000000000e+00
0.000000000000e+00
0.000000000000e+00
0.000000000000e+00
0.000000000000e+00
0.000000000000e+00
0.000000000000e+00
0.000000000000e+00
0.000000000000e+00
0.000000000000e+00
0.000000000000e+00
0.000000000000e+00
0.000000000000e+00
0.000000000000e+00
0.000000000000e+00
0.000000000000e+00
0.000000000000e+00
0.000000000000e+00
0.000000000000e+00
0.000000000000e+00
0.000000000000e+00
0.000000000000e+00
0.000000000000e+00
0.000000000000e+00
0.000000000000e+00
0.000000000000e+00
0.000000000000e+00
0.000000000000e+00
0.000000000000e+00
0.000000000000e+00
0.000000000000e+00
0.000000000000e+00
0.000000000000e+00
0.000000000000e+00
0.000000000000e+00
0.000000000000e+00
