# vtk DataFile Version 3.0
SFC long-time C3D8 dynamic frame 121 t=2.420000000000e+00
ASCII
DATASET UNSTRUCTURED_GRID
POINTS 250 float
-2.500000000000e-01 -2.500000000000e-01 0.000000000000e+00
-1.250000000000e-01 -2.500000000000e-01 0.000000000000e+00
0.000000000000e+00 -2.500000000000e-01 0.000000000000e+00
1.250000000000e-01 -2.500000000000e-01 0.000000000000e+00
2.500000000000e-01 -2.500000000000e-01 0.000000000000e+00
-2.500000000000e-01 -1.250000000000e-01 0.000000000000e+00
-1.250000000000e-01 -1.250000000000e-01 0.000000000000e+00
0.000000000000e+00 -1.250000000000e-01 0.000000000000e+00
1.250000000000e-01 -1.250000000000e-01 0.000000000000e+00
2.500000000000e-01 -1.250000000000e-01 0.000000000000e+00
-2.500000000000e-01 0.000000000000e+00 0.000000000000e+00
-1.250000000000e-01 0.000000000000e+00 0.000000000000e+00
0.000000000000e+00 0.000000000000e+00 0.000000000000e+00
1.250000000000e-01 0.000000000000e+00 0.000000000000e+00
2.500000000000e-01 0.000000000000e+00 0.000000000000e+00
-2.500000000000e-01 1.250000000000e-01 0.000000000000e+00
-1.250000000000e-01 1.250000000000e-01 0.000000000000e+00
0.000000000000e+00 1.250000000000e-01 0.000000000000e+00
1.250000000000e-01 1.250000000000e-01 0.000000000000e+00
2.500000000000e-01 1.250000000000e-01 0.000000000000e+00
-2.500000000000e-01 2.500000000000e-01 0.000000000000e+00
-1.250000000000e-01 2.500000000000e-01 0.000000000000e+00
0.000000000000e+00 2.500000000000e-01 0.000000000000e+00
1.250000000000e-01 2.500000000000e-01 0.000000000000e+00
2.500000000000e-01 2.500000000000e-01 0.000000000000e+00
-2.500000000000e-01 -2.500000000000e-01 6.000000000000e-02
-1.250000000000e-01 -2.500000000000e-01 6.000000000000e-02
0.000000000000e+00 -2.500000000000e-01 6.000000000000e-02
1.250000000000e-01 -2.500000000000e-01 6.000000000000e-02
2.500000000000e-01 -2.500000000000e-01 6.000000000000e-02
-2.500000000000e-01 -1.250000000000e-01 6.000000000000e-02
-1.250000000000e-01 -1.250000000000e-01 6.000000000000e-02
0.000000000000e+00 -1.250000000000e-01 6.000000000000e-02
1.250000000000e-01 -1.250000000000e-01 6.000000000000e-02
2.500000000000e-01 -1.250000000000e-01 6.000000000000e-02
-2.500000000000e-01 0.000000000000e+00 6.000000000000e-02
-1.250000000000e-01 0.000000000000e+00 6.000000000000e-02
0.000000000000e+00 0.000000000000e+00 6.000000000000e-02
1.250000000000e-01 0.000000000000e+00 6.000000000000e-02
2.500000000000e-01 0.000000000000e+00 6.000000000000e-02
-2.500000000000e-01 1.250000000000e-01 6.000000000000e-02
-1.250000000000e-01 1.250000000000e-01 6.000000000000e-02
0.000000000000e+00 1.250000000000e-01 6.000000000000e-02
1.250000000000e-01 1.250000000000e-01 6.000000000000e-02
2.500000000000e-01 1.250000000000e-01 6.000000000000e-02
-2.500000000000e-01 2.500000000000e-01 6.000000000000e-02
-1.250000000000e-01 2.500000000000e-01 6.000000000000e-02
0.000000000000e+00 2.500000000000e-01 6.000000000000e-02
1.250000000000e-01 2.500000000000e-01 6.000000000000e-02
2.500000000000e-01 2.500000000000e-01 6.000000000000e-02
-2.500000000000e-01 -2.500000000000e-01 1.200000000000e-01
-1.250000000000e-01 -2.500000000000e-01 1.200000000000e-01
0.000000000000e+00 -2.500000000000e-01 1.200000000000e-01
1.250000000000e-01 -2.500000000000e-01 1.200000000000e-01
2.500000000000e-01 -2.500000000000e-01 1.200000000000e-01
-2.500000000000e-01 -1.250000000000e-01 1.200000000000e-01
-1.250000000000e-01 -1.250000000000e-01 1.200000000000e-01
0.000000000000e+00 -1.250000000000e-01 1.200000000000e-01
1.250000000000e-01 -1.250000000000e-01 1.200000000000e-01
2.500000000000e-01 -1.250000000000e-01 1.200000000000e-01
-2.500000000000e-01 0.000000000000e+00 1.200000000000e-01
-1.250000000000e-01 0.000000000000e+00 1.200000000000e-01
0.000000000000e+00 0.000000000000e+00 1.200000000000e-01
1.250000000000e-01 0.000000000000e+00 1.200000000000e-01
2.500000000000e-01 0.000000000000e+00 1.200000000000e-01
-2.500000000000e-01 1.250000000000e-01 1.200000000000e-01
-1.250000000000e-01 1.250000000000e-01 1.200000000000e-01
0.000000000000e+00 1.250000000000e-01 1.200000000000e-01
1.250000000000e-01 1.250000000000e-01 1.200000000000e-01
2.500000000000e-01 1.250000000000e-01 1.200000000000e-01
-2.500000000000e-01 2.500000000000e-01 1.200000000000e-01
-1.250000000000e-01 2.500000000000e-01 1.200000000000e-01
0.000000000000e+00 2.500000000000e-01 1.200000000000e-01
1.250000000000e-01 2.500000000000e-01 1.200000000000e-01
2.500000000000e-01 2.500000000000e-01 1.200000000000e-01
-2.500000000000e-01 -2.500000000000e-01 1.800000000000e-01
-1.250000000000e-01 -2.500000000000e-01 1.800000000000e-01
0.000000000000e+00 -2.500000000000e-01 1.800000000000e-01
1.250000000000e-01 -2.500000000000e-01 1.800000000000e-01
2.500000000000e-01 -2.500000000000e-01 1.800000000000e-01
-2.500000000000e-01 -1.250000000000e-01 1.800000000000e-01
-1.250000000000e-01 -1.250000000000e-01 1.800000000000e-01
0.000000000000e+00 -1.250000000000e-01 1.800000000000e-01
1.250000000000e-01 -1.250000000000e-01 1.800000000000e-01
2.500000000000e-01 -1.250000000000e-01 1.800000000000e-01
-2.500000000000e-01 0.000000000000e+00 1.800000000000e-01
-1.250000000000e-01 0.000000000000e+00 1.800000000000e-01
0.000000000000e+00 0.000000000000e+00 1.800000000000e-01
1.250000000000e-01 0.000000000000e+00 1.800000000000e-01
2.500000000000e-01 0.000000000000e+00 1.800000000000e-01
-2.500000000000e-01 1.250000000000e-01 1.800000000000e-01
-1.250000000000e-01 1.250000000000e-01 1.800000000000e-01
0.000000000000e+00 1.250000000000e-01 1.800000000000e-01
1.250000000000e-01 1.250000000000e-01 1.800000000000e-01
2.500000000000e-01 1.250000000000e-01 1.800000000000e-01
-2.500000000000e-01 2.500000000000e-01 1.800000000000e-01
-1.250000000000e-01 2.500000000000e-01 1.800000000000e-01
0.000000000000e+00 2.500000000000e-01 1.800000000000e-01
1.250000000000e-01 2.500000000000e-01 1.800000000000e-01
2.500000000000e-01 2.500000000000e-01 1.800000000000e-01
-2.500000000000e-01 -2.500000000000e-01 2.400000000000e-01
-1.250000000000e-01 -2.500000000000e-01 2.400000000000e-01
0.000000000000e+00 -2.500000000000e-01 2.400000000000e-01
1.250000000000e-01 -2.500000000000e-01 2.400000000000e-01
2.500000000000e-01 -2.500000000000e-01 2.400000000000e-01
-2.500000000000e-01 -1.250000000000e-01 2.400000000000e-01
-1.250000000000e-01 -1.250000000000e-01 2.400000000000e-01
0.000000000000e+00 -1.250000000000e-01 2.400000000000e-01
1.250000000000e-01 -1.250000000000e-01 2.400000000000e-01
2.500000000000e-01 -1.250000000000e-01 2.400000000000e-01
-2.500000000000e-01 0.000000000000e+00 2.400000000000e-01
-1.250000000000e-01 0.000000000000e+00 2.400000000000e-01
0.000000000000e+00 0.000000000000e+00 2.400000000000e-01
1.250000000000e-01 0.000000000000e+00 2.400000000000e-01
2.500000000000e-01 0.000000000000e+00 2.400000000000e-01
-2.500000000000e-01 1.250000000000e-01 2.400000000000e-01
-1.250000000000e-01 1.250000000000e-01 2.400000000000e-01
0.000000000000e+00 1.250000000000e-01 2.400000000000e-01
1.250000000000e-01 1.250000000000e-01 2.400000000000e-01
2.500000000000e-01 1.250000000000e-01 2.400000000000e-01
-2.500000000000e-01 2.500000000000e-01 2.400000000000e-01
-1.250000000000e-01 2.500000000000e-01 2.400000000000e-01
0.000000000000e+00 2.500000000000e-01 2.400000000000e-01
1.250000000000e-01 2.500000000000e-01 2.400000000000e-01
2.500000000000e-01 2.500000000000e-01 2.400000000000e-01
-2.500017100686e-01 -2.500017100687e-01 2.399499001682e-01
-1.250008569675e-01 -2.500017253221e-01 2.399493896194e-01
3.229213165531e-14 -2.500017399916e-01 2.399492200760e-01
1.250008569676e-01 -2.500017253221e-01 2.399493896194e-01
2.500017100687e-01 -2.500017100687e-01 2.399499001682e-01
-2.500017253220e-01 -1.250008569676e-01 2.399493896194e-01
-1.250008584073e-01 -1.250008584074e-01 2.399488730906e-01
3.098612349714e-14 -1.250008658778e-01 2.399487010562e-01
1.250008584074e-01 -1.250008584074e-01 2.399488730906e-01
2.500017253221e-01 -1.250008569676e-01 2.399493896194e-01
-2.500017399916e-01 -4.061033169637e-14 2.399492200760e-01
-1.250008658777e-01 -3.931353717616e-14 2.399487010562e-01
2.967924990835e-14 -3.801012396036e-14 2.399485290883e-01
1.250008658777e-01 -3.671059410366e-14 2.399487010562e-01
2.500017399916e-01 -3.539403460705e-14 2.399492200760e-01
-2.500017253220e-01 1.250008569675e-01 2.399493896194e-01
-1.250008584073e-01 1.250008584073e-01 2.399488730906e-01
2.837374715247e-14 1.250008658777e-01 2.399487010562e-01
1.250008584074e-01 1.250008584073e-01 2.399488730906e-01
2.500017253221e-01 1.250008569675e-01 2.399493896194e-01
-2.500017100686e-01 2.500017100686e-01 2.399499001682e-01
-1.250008569675e-01 2.500017253220e-01 2.399493896194e-01
2.707259134454e-14 2.500017399916e-01 2.399492200760e-01
1.250008569676e-01 2.500017253220e-01 2.399493896194e-01
2.500017100687e-01 2.500017100686e-01 2.399499001682e-01
-2.500013772658e-01 -2.500013772659e-01 3.049484977630e-01
-1.250006690247e-01 -2.500013929624e-01 3.049479694480e-01
3.223734569779e-14 -2.500014083012e-01 3.049478027634e-01
1.250006690248e-01 -2.500013929624e-01 3.049479694480e-01
2.500013772659e-01 -2.500013772659e-01 3.049484977630e-01
-2.500013929623e-01 -1.250006690248e-01 3.049479694480e-01
-1.250006688797e-01 -1.250006688797e-01 3.049474377086e-01
3.093046151970e-14 -1.250006751821e-01 3.049472710268e-01
1.250006688797e-01 -1.250006688797e-01 3.049474377086e-01
2.500013929624e-01 -1.250006690248e-01 3.049479694480e-01
-2.500014083011e-01 -4.071446456464e-14 3.049478027634e-01
-1.250006751821e-01 -3.941567815692e-14 3.049472710268e-01
2.962510186951e-14 -3.811702033994e-14 3.049471061281e-01
1.250006751821e-01 -3.680920717756e-14 3.049472710268e-01
2.500014083012e-01 -3.550032260501e-14 3.049478027634e-01
-2.500013929623e-01 1.250006690247e-01 3.049479694480e-01
-1.250006688797e-01 1.250006688796e-01 3.049474377086e-01
2.831825014097e-14 1.250006751821e-01 3.049472710268e-01
1.250006688797e-01 1.250006688796e-01 3.049474377086e-01
2.500013929624e-01 1.250006690247e-01 3.049479694480e-01
-2.500013772658e-01 2.500013772658e-01 3.049484977630e-01
-1.250006690247e-01 2.500013929623e-01 3.049479694480e-01
2.702036991824e-14 2.500014083011e-01 3.049478027634e-01
1.250006690248e-01 2.500013929623e-01 3.049479694480e-01
2.500013772659e-01 2.500013772658e-01 3.049484977630e-01
-2.500009700364e-01 -2.500009700364e-01 3.699474421507e-01
-1.250004710934e-01 -2.500009787143e-01 3.699469016109e-01
3.217867518984e-14 -2.500009900329e-01 3.699467427765e-01
1.250004710935e-01 -2.500009787143e-01 3.699469016109e-01
2.500009700364e-01 -2.500009700364e-01 3.699474421507e-01
-2.500009787142e-01 -1.250004710935e-01 3.699469016109e-01
-1.250004706771e-01 -1.250004706772e-01 3.699463592077e-01
3.087277550599e-14 -1.250004746754e-01 3.699462028841e-01
1.250004706772e-01 -1.250004706772e-01 3.699463592077e-01
2.500009787143e-01 -1.250004710935e-01 3.699469016109e-01
-2.500009900328e-01 -4.082271867926e-14 3.699467427765e-01
-1.250004746753e-01 -3.952239684716e-14 3.699462028841e-01
2.956864863500e-14 -3.822197668036e-14 3.699460511784e-01
1.250004746754e-01 -3.691271445839e-14 3.699462028841e-01
2.500009900329e-01 -3.560470445434e-14 3.699467427765e-01
-2.500009787142e-01 1.250004710934e-01 3.699469016109e-01
-1.250004706771e-01 1.250004706771e-01 3.699463592077e-01
2.826313211893e-14 1.250004746753e-01 3.699462028841e-01
1.250004706772e-01 1.250004706771e-01 3.699463592077e-01
2.500009787143e-01 1.250004710934e-01 3.699469016109e-01
-2.500009700364e-01 2.500009700364e-01 3.699474421507e-01
-1.250004710934e-01 2.500009787142e-01 3.699469016109e-01
2.696078354246e-14 2.500009900328e-01 3.699467427765e-01
1.250004710935e-01 2.500009787142e-01 3.699469016109e-01
2.500009700364e-01 2.500009700364e-01 3.699474421507e-01
-2.500005417878e-01 -2.500005417879e-01 4.349467610167e-01
-1.250002722267e-01 -2.500005416824e-01 4.349462243729e-01
3.211939576273e-14 -2.500005473989e-01 4.349460617175e-01
1.250002722267e-01 -2.500005416823e-01 4.349462243729e-01
2.500005417878e-01 -2.500005417878e-01 4.349467610167e-01
-2.500005416823e-01 -1.250002722267e-01 4.349462243729e-01
-1.250002719522e-01 -1.250002719522e-01 4.349456888350e-01
3.081566173009e-14 -1.250002737707e-01 4.349455303049e-01
1.250002719522e-01 -1.250002719522e-01 4.349456888350e-01
2.500005416823e-01 -1.250002722267e-01 4.349462243729e-01
-2.500005473989e-01 -4.093097902750e-14 4.349460617175e-01
-1.250002737706e-01 -3.963203570419e-14 4.349455303049e-01
2.951345333586e-14 -3.832747053092e-14 4.349453776110e-01
1.250002737707e-01 -3.701902490019e-14 4.349455303049e-01
2.500005473989e-01 -3.571099335630e-14 4.349460617175e-01
-2.500005416823e-01 1.250002722267e-01 4.349462243729e-01
-1.250002719522e-01 1.250002719522e-01 4.349456888350e-01
2.820919083543e-14 1.250002737706e-01 4.349455303049e-01
1.250002719522e-01 1.250002719522e-01 4.349456888350e-01
2.500005416823e-01 1.250002722267e-01 4.349462243729e-01
-2.500005417878e-01 2.500005417878e-01 4.349467610167e-01
-1.250002722267e-01 2.500005416823e-01 4.349462243729e-01
2.690386389512e-14 2.500005473989e-01 4.349460617175e-01
1.250002722267e-01 2.500005416823e-01 4.349462243729e-01
2.500005417878e-01 2.500005417878e-01 4.349467610167e-01
-2.500001840024e-01 -2.500001840024e-01 4.999464965941e-01
-1.250000821078e-01 -2.500001846143e-01 4.999459678969e-01
3.206169263611e-14 -2.500001912998e-01 4.999458007374e-01
1.250000821078e-01 -2.500001846143e-01 4.999459678969e-01
2.500001840024e-01 -2.500001840024e-01 4.999464965941e-01
-2.500001846143e-01 -1.250000821079e-01 4.999459678969e-01
-1.250000827248e-01 -1.250000827249e-01 4.999454422153e-01
3.075767068160e-14 -1.250000854841e-01 4.999452798047e-01
1.250000827248e-01 -1.250000827249e-01 4.999454422153e-01
2.500001846143e-01 -1.250000821079e-01 4.999459678969e-01
-2.500001912997e-01 -4.104006229919e-14 4.999458007374e-01
-1.250000854840e-01 -3.974118200610e-14 4.999452798047e-01
2.945680568723e-14 -3.843528917839e-14 4.999451234424e-01
1.250000854841e-01 -3.712760062136e-14 4.999452798047e-01
2.500001912998e-01 -3.581391071118e-14 4.999458007374e-01
-2.500001846143e-01 1.250000821078e-01 4.999459678969e-01
-1.250000827248e-01 1.250000827248e-01 4.999454422153e-01
2.815235679661e-14 1.250000854840e-01 4.999452798047e-01
1.250000827248e-01 1.250000827248e-01 4.999454422153e-01
2.500001846143e-01 1.250000821078e-01 4.999459678969e-01
-2.500001840024e-01 2.500001840023e-01 4.999464965941e-01
-1.250000821078e-01 2.500001846142e-01 4.999459678969e-01
2.684902023254e-14 2.500001912997e-01 4.999458007374e-01
1.250000821078e-01 2.500001846142e-01 4.999459678969e-01
2.500001840024e-01 2.500001840024e-01 4.999464965941e-01
CELLS 128 1152
8 0 1 6 5 25 26 31 30
8 1 2 7 6 26 27 32 31
8 2 3 8 7 27 28 33 32
8 3 4 9 8 28 29 34 33
8 5 6 11 10 30 31 36 35
8 6 7 12 11 31 32 37 36
8 7 8 13 12 32 33 38 37
8 8 9 14 13 33 34 39 38
8 10 11 16 15 35 36 41 40
8 11 12 17 16 36 37 42 41
8 12 13 18 17 37 38 43 42
8 13 14 19 18 38 39 44 43
8 15 16 21 20 40 41 46 45
8 16 17 22 21 41 42 47 46
8 17 18 23 22 42 43 48 47
8 18 19 24 23 43 44 49 48
8 25 26 31 30 50 51 56 55
8 26 27 32 31 51 52 57 56
8 27 28 33 32 52 53 58 57
8 28 29 34 33 53 54 59 58
8 30 31 36 35 55 56 61 60
8 31 32 37 36 56 57 62 61
8 32 33 38 37 57 58 63 62
8 33 34 39 38 58 59 64 63
8 35 36 41 40 60 61 66 65
8 36 37 42 41 61 62 67 66
8 37 38 43 42 62 63 68 67
8 38 39 44 43 63 64 69 68
8 40 41 46 45 65 66 71 70
8 41 42 47 46 66 67 72 71
8 42 43 48 47 67 68 73 72
8 43 44 49 48 68 69 74 73
8 50 51 56 55 75 76 81 80
8 51 52 57 56 76 77 82 81
8 52 53 58 57 77 78 83 82
8 53 54 59 58 78 79 84 83
8 55 56 61 60 80 81 86 85
8 56 57 62 61 81 82 87 86
8 57 58 63 62 82 83 88 87
8 58 59 64 63 83 84 89 88
8 60 61 66 65 85 86 91 90
8 61 62 67 66 86 87 92 91
8 62 63 68 67 87 88 93 92
8 63 64 69 68 88 89 94 93
8 65 66 71 70 90 91 96 95
8 66 67 72 71 91 92 97 96
8 67 68 73 72 92 93 98 97
8 68 69 74 73 93 94 99 98
8 75 76 81 80 100 101 106 105
8 76 77 82 81 101 102 107 106
8 77 78 83 82 102 103 108 107
8 78 79 84 83 103 104 109 108
8 80 81 86 85 105 106 111 110
8 81 82 87 86 106 107 112 111
8 82 83 88 87 107 108 113 112
8 83 84 89 88 108 109 114 113
8 85 86 91 90 110 111 116 115
8 86 87 92 91 111 112 117 116
8 87 88 93 92 112 113 118 117
8 88 89 94 93 113 114 119 118
8 90 91 96 95 115 116 121 120
8 91 92 97 96 116 117 122 121
8 92 93 98 97 117 118 123 122
8 93 94 99 98 118 119 124 123
8 125 126 131 130 150 151 156 155
8 126 127 132 131 151 152 157 156
8 127 128 133 132 152 153 158 157
8 128 129 134 133 153 154 159 158
8 130 131 136 135 155 156 161 160
8 131 132 137 136 156 157 162 161
8 132 133 138 137 157 158 163 162
8 133 134 139 138 158 159 164 163
8 135 136 141 140 160 161 166 165
8 136 137 142 141 161 162 167 166
8 137 138 143 142 162 163 168 167
8 138 139 144 143 163 164 169 168
8 140 141 146 145 165 166 171 170
8 141 142 147 146 166 167 172 171
8 142 143 148 147 167 168 173 172
8 143 144 149 148 168 169 174 173
8 150 151 156 155 175 176 181 180
8 151 152 157 156 176 177 182 181
8 152 153 158 157 177 178 183 182
8 153 154 159 158 178 179 184 183
8 155 156 161 160 180 181 186 185
8 156 157 162 161 181 182 187 186
8 157 158 163 162 182 183 188 187
8 158 159 164 163 183 184 189 188
8 160 161 166 165 185 186 191 190
8 161 162 167 166 186 187 192 191
8 162 163 168 167 187 188 193 192
8 163 164 169 168 188 189 194 193
8 165 166 171 170 190 191 196 195
8 166 167 172 171 191 192 197 196
8 167 168 173 172 192 193 198 197
8 168 169 174 173 193 194 199 198
8 175 176 181 180 200 201 206 205
8 176 177 182 181 201 202 207 206
8 177 178 183 182 202 203 208 207
8 178 179 184 183 203 204 209 208
8 180 181 186 185 205 206 211 210
8 181 182 187 186 206 207 212 211
8 182 183 188 187 207 208 213 212
8 183 184 189 188 208 209 214 213
8 185 186 191 190 210 211 216 215
8 186 187 192 191 211 212 217 216
8 187 188 193 192 212 213 218 217
8 188 189 194 193 213 214 219 218
8 190 191 196 195 215 216 221 220
8 191 192 197 196 216 217 222 221
8 192 193 198 197 217 218 223 222
8 193 194 199 198 218 219 224 223
8 200 201 206 205 225 226 231 230
8 201 202 207 206 226 227 232 231
8 202 203 208 207 227 228 233 232
8 203 204 209 208 228 229 234 233
8 205 206 211 210 230 231 236 235
8 206 207 212 211 231 232 237 236
8 207 208 213 212 232 233 238 237
8 208 209 214 213 233 234 239 238
8 210 211 216 215 235 236 241 240
8 211 212 217 216 236 237 242 241
8 212 213 218 217 237 238 243 242
8 213 214 219 218 238 239 244 243
8 215 216 221 220 240 241 246 245
8 216 217 222 221 241 242 247 246
8 217 218 223 222 242 243 248 247
8 218 219 224 223 243 244 249 248
CELL_TYPES 128
12
12
12
12
12
12
12
12
12
12
12
12
12
12
12
12
12
12
12
12
12
12
12
12
12
12
12
12
12
12
12
12
12
12
12
12
12
12
12
12
12
12
12
12
12
12
12
12
12
12
12
12
12
12
12
12
12
12
12
12
12
12
12
12
12
12
12
12
12
12
12
12
12
12
12
12
12
12
12
12
12
12
12
12
12
12
12
12
12
12
12
12
12
12
12
12
12
12
12
12
12
12
12
12
12
12
12
12
12
12
12
12
12
12
12
12
12
12
12
12
12
12
12
12
12
12
12
12
POINT_DATA 250
VECTORS displacement float
0.000000000000e+00 0.000000000000e+00 0.000000000000e+00
0.000000000000e+00 0.000000000000e+00 0.000000000000e+00
0.000000000000e+00 0.000000000000e+00 0.000000000000e+00
0.000000000000e+00 0.000000000000e+00 0.000000000000e+00
0.000000000000e+00 0.000000000000e+00 0.000000000000e+00
0.000000000000e+00 0.000000000000e+00 0.000000000000e+00
0.000000000000e+00 0.000000000000e+00 0.000000000000e+00
0.000000000000e+00 0.000000000000e+00 0.000000000000e+00
0.000000000000e+00 0.000000000000e+00 0.000000000000e+00
0.000000000000e+00 0.000000000000e+00 0.000000000000e+00
0.000000000000e+00 0.000000000000e+00 0.000000000000e+00
0.000000000000e+00 0.000000000000e+00 0.000000000000e+00
0.000000000000e+00 0.000000000000e+00 0.000000000000e+00
0.000000000000e+00 0.000000000000e+00 0.000000000000e+00
0.000000000000e+00 0.000000000000e+00 0.000000000000e+00
0.000000000000e+00 0.000000000000e+00 0.000000000000e+00
0.000000000000e+00 0.000000000000e+00 0.000000000000e+00
0.000000000000e+00 0.000000000000e+00 0.000000000000e+00
0.000000000000e+00 0.000000000000e+00 0.000000000000e+00
0.000000000000e+00 0.000000000000e+00 0.000000000000e+00
0.000000000000e+00 0.000000000000e+00 0.000000000000e+00
0.000000000000e+00 0.000000000000e+00 0.000000000000e+00
0.000000000000e+00 0.000000000000e+00 0.000000000000e+00
0.000000000000e+00 0.000000000000e+00 0.000000000000e+00
0.000000000000e+00 0.000000000000e+00 0.000000000000e+00
0.000000000000e+00 0.000000000000e+00 0.000000000000e+00
0.000000000000e+00 0.000000000000e+00 0.000000000000e+00
0.000000000000e+00 0.000000000000e+00 0.000000000000e+00
0.000000000000e+00 0.000000000000e+00 0.000000000000e+00
0.000000000000e+00 0.000000000000e+00 0.000000000000e+00
0.000000000000e+00 0.000000000000e+00 0.000000000000e+00
0.000000000000e+00 0.000000000000e+00 0.000000000000e+00
0.000000000000e+00 0.000000000000e+00 0.000000000000e+00
0.000000000000e+00 0.000000000000e+00 0.000000000000e+00
0.000000000000e+00 0.000000000000e+00 0.000000000000e+00
0.000000000000e+00 0.000000000000e+00 0.000000000000e+00
0.000000000000e+00 0.000000000000e+00 0.000000000000e+00
0.000000000000e+00 0.000000000000e+00 0.000000000000e+00
0.000000000000e+00 0.000000000000e+00 0.000000000000e+00
0.000000000000e+00 0.000000000000e+00 0.000000000000e+00
0.000000000000e+00 0.000000000000e+00 0.000000000000e+00
0.000000000000e+00 0.000000000000e+00 0.000000000000e+00
0.000000000000e+00 0.000000000000e+00 0.000000000000e+00
0.000000000000e+00 0.000000000000e+00 0.000000000000e+00
0.000000000000e+00 0.000000000000e+00 0.000000000000e+00
0.000000000000e+00 0.000000000000e+00 0.000000000000e+00
0.000000000000e+00 0.000000000000e+00 0.000000000000e+00
0.000000000000e+00 0.000000000000e+00 0.000000000000e+00
0.000000000000e+00 0.000000000000e+00 0.000000000000e+00
0.000000000000e+00 0.000000000000e+00 0.000000000000e+00
0.000000000000e+00 0.000000000000e+00 0.000000000000e+00
0.000000000000e+00 0.000000000000e+00 0.000000000000e+00
0.000000000000e+00 0.000000000000e+00 0.000000000000e+00
0.000000000000e+00 0.000000000000e+00 0.000000000000e+00
0.000000000000e+00 0.000000000000e+00 0.000000000000e+00
0.000000000000e+00 0.000000000000e+00 0.000000000000e+00
0.000000000000e+00 0.000000000000e+00 0.000000000000e+00
0.000000000000e+00 0.000000000000e+00 0.000000000000e+00
0.000000000000e+00 0.000000000000e+00 0.000000000000e+00
0.000000000000e+00 0.000000000000e+00 0.000000000000e+00
0.000000000000e+00 0.000000000000e+00 0.000000000000e+00
0.000000000000e+00 0.000000000000e+00 0.000000000000e+00
0.000000000000e+00 0.000000000000e+00 0.000000000000e+00
0.000000000000e+00 0.000000000000e+00 0.000000000000e+00
0.000000000000e+00 0.000000000000e+00 0.000000000000e+00
0.000000000000e+00 0.000000000000e+00 0.000000000000e+00
0.000000000000e+00 0.000000000000e+00 0.000000000000e+00
0.000000000000e+00 0.000000000000e+00 0.000000000000e+00
0.000000000000e+00 0.000000000000e+00 0.000000000000e+00
0.000000000000e+00 0.000000000000e+00 0.000000000000e+00
0.000000000000e+00 0.000000000000e+00 0.000000000000e+00
0.000000000000e+00 0.000000000000e+00 0.000000000000e+00
0.000000000000e+00 0.000000000000e+00 0.000000000000e+00
0.000000000000e+00 0.000000000000e+00 0.000000000000e+00
0.000000000000e+00 0.000000000000e+00 0.000000000000e+00
0.000000000000e+00 0.000000000000e+00 0.000000000000e+00
0.000000000000e+00 0.000000000000e+00 0.000000000000e+00
0.000000000000e+00 0.000000000000e+00 0.000000000000e+00
0.000000000000e+00 0.000000000000e+00 0.000000000000e+00
0.000000000000e+00 0.000000000000e+00 0.000000000000e+00
0.000000000000e+00 0.000000000000e+00 0.000000000000e+00
0.000000000000e+00 0.000000000000e+00 0.000000000000e+00
0.000000000000e+00 0.000000000000e+00 0.000000000000e+00
0.000000000000e+00 0.000000000000e+00 0.000000000000e+00
0.000000000000e+00 0.000000000000e+00 0.000000000000e+00
0.000000000000e+00 0.000000000000e+00 0.000000000000e+00
0.000000000000e+00 0.000000000000e+00 0.000000000000e+00
0.000000000000e+00 0.000000000000e+00 0.000000000000e+00
0.000000000000e+00 0.000000000000e+00 0.000000000000e+00
0.000000000000e+00 0.000000000000e+00 0.000000000000e+00
0.000000000000e+00 0.000000000000e+00 0.000000000000e+00
0.000000000000e+00 0.000000000000e+00 0.000000000000e+00
0.000000000000e+00 0.000000000000e+00 0.000000000000e+00
0.000000000000e+00 0.000000000000e+00 0.000000000000e+00
0.000000000000e+00 0.000000000000e+00 0.000000000000e+00
0.000000000000e+00 0.000000000000e+00 0.000000000000e+00
0.000000000000e+00 0.000000000000e+00 0.000000000000e+00
0.000000000000e+00 0.000000000000e+00 0.000000000000e+00
0.000000000000e+00 0.000000000000e+00 0.000000000000e+00
0.000000000000e+00 0.000000000000e+00 0.000000000000e+00
0.000000000000e+00 0.000000000000e+00 0.000000000000e+00
0.000000000000e+00 0.000000000000e+00 0.000000000000e+00
0.000000000000e+00 0.000000000000e+00 0.000000000000e+00
0.000000000000e+00 0.000000000000e+00 0.000000000000e+00
0.000000000000e+00 0.000000000000e+00 0.000000000000e+00
0.000000000000e+00 0.000000000000e+00 0.000000000000e+00
0.000000000000e+00 0.000000000000e+00 0.000000000000e+00
0.000000000000e+00 0.000000000000e+00 0.000000000000e+00
0.000000000000e+00 0.000000000000e+00 0.000000000000e+00
0.000000000000e+00 0.000000000000e+00 0.000000000000e+00
0.000000000000e+00 0.000000000000e+00 0.000000000000e+00
0.000000000000e+00 0.000000000000e+00 0.000000000000e+00
0.000000000000e+00 0.000000000000e+00 0.000000000000e+00
0.000000000000e+00 0.000000000000e+00 0.000000000000e+00
0.000000000000e+00 0.000000000000e+00 0.000000000000e+00
0.000000000000e+00 0.000000000000e+00 0.000000000000e+00
0.000000000000e+00 0.000000000000e+00 0.000000000000e+00
0.000000000000e+00 0.000000000000e+00 0.000000000000e+00
0.000000000000e+00 0.000000000000e+00 0.000000000000e+00
0.000000000000e+00 0.000000000000e+00 0.000000000000e+00
0.000000000000e+00 0.000000000000e+00 0.000000000000e+00
0.000000000000e+00 0.000000000000e+00 0.000000000000e+00
0.000000000000e+00 0.000000000000e+00 0.000000000000e+00
0.000000000000e+00 0.000000000000e+00 0.000000000000e+00
0.000000000000e+00 0.000000000000e+00 0.000000000000e+00
-1.710068617416e-06 -1.710068690331e-06 -1.505009983183e-02
-8.569675134723e-07 -1.725322111870e-06 -1.505061038061e-02
3.229213165531e-14 -1.739991647075e-06 -1.505077992405e-02
8.569675780612e-07 -1.725322109255e-06 -1.505061038061e-02
1.710068682010e-06 -1.710068685122e-06 -1.505009983183e-02
-1.725322041547e-06 -8.569675863862e-07 -1.505061038061e-02
-8.584072978940e-07 -8.584073682043e-07 -1.505112690938e-02
3.098612349714e-14 -8.658777563718e-07 -1.505129894378e-02
8.584073598657e-07 -8.584073655995e-07 -1.505112690938e-02
1.725322103512e-06 -8.569675811683e-07 -1.505061038061e-02
-1.739991579336e-06 -4.061033169637e-14 -1.505077992405e-02
-8.658776886588e-07 -3.931353717616e-14 -1.505129894378e-02
2.967924990835e-14 -3.801012396036e-14 -1.505147091174e-02
8.658777480203e-07 -3.671059410366e-14 -1.505129894378e-02
1.739991638700e-06 -3.539403460705e-14 -1.505077992405e-02
-1.725322044134e-06 8.569675051586e-07 -1.505061038061e-02
-8.584073004881e-07 8.584072895802e-07 -1.505112690938e-02
2.837374715247e-14 8.658776803476e-07 -1.505129894378e-02
8.584073572397e-07 8.584072921820e-07 -1.505112690938e-02
1.725322100890e-06 8.569675103637e-07 -1.505061038061e-02
-1.710068622591e-06 1.710068609095e-06 -1.505009983183e-02
-8.569675186655e-07 1.725322033238e-06 -1.505061038061e-02
2.707259134454e-14 1.739991571048e-06 -1.505077992404e-02
8.569675728142e-07 1.725322035831e-06 -1.505061038061e-02
1.710068676740e-06 1.710068614287e-06 -1.505009983182e-02
-1.377265844033e-06 -1.377265916988e-06 -1.505150223699e-02
-6.690247247171e-07 -1.392962415637e-06 -1.505203055201e-02
3.223734569779e-14 -1.408301212918e-06 -1.505219723664e-02
6.690247891914e-07 -1.392962413028e-06 -1.505203055201e-02
1.377265908502e-06 -1.377265911759e-06 -1.505150223699e-02
-1.392962345282e-06 -6.690247976676e-07 -1.505203055201e-02
-6.688796552005e-07 -6.688797255557e-07 -1.505256229141e-02
3.093046151970e-14 -6.751821393032e-07 -1.505272897324e-02
6.688797170619e-07 -6.688797229464e-07 -1.505256229141e-02
1.392962407139e-06 -6.690247924449e-07 -1.505203055201e-02
-1.408301145165e-06 -4.071446456464e-14 -1.505219723663e-02
-6.751820715555e-07 -3.941567815692e-14 -1.505272897324e-02
2.962510186951e-14 -3.811702033994e-14 -1.505289387187e-02
6.751821308063e-07 -3.680920717756e-14 -1.505272897324e-02
1.408301204418e-06 -3.550032260501e-14 -1.505219723663e-02
-1.392962347871e-06 6.690247162382e-07 -1.505203055201e-02
-6.688796577993e-07 6.688796467220e-07 -1.505256229140e-02
2.831825014097e-14 6.751820630727e-07 -1.505272897324e-02
6.688797144401e-07 6.688796493248e-07 -1.505256229140e-02
1.392962404514e-06 6.690247214458e-07 -1.505203055201e-02
-1.377265849216e-06 1.377265835549e-06 -1.505150223699e-02
-6.690247299183e-07 1.392962336798e-06 -1.505203055201e-02
2.702036991824e-14 1.408301136691e-06 -1.505219723663e-02
6.690247839538e-07 1.392962339403e-06 -1.505203055201e-02
1.377265903249e-06 1.377265840753e-06 -1.505150223699e-02
-9.700363690782e-07 -9.700364420806e-07 -1.505255784933e-02
-4.710934151195e-07 -9.787143080881e-07 -1.505309838912e-02
3.217867518984e-14 -9.900328695853e-07 -1.505325722352e-02
4.710934794767e-07 -9.787143054745e-07 -1.505309838912e-02
9.700364334379e-07 -9.700364368463e-07 -1.505255784933e-02
-9.787142376948e-07 -4.710934881201e-07 -1.505309838912e-02
-4.706771353224e-07 -4.706772057168e-07 -1.505364079232e-02
3.087277550599e-14 -4.746753965744e-07 -1.505379711587e-02
4.706771970677e-07 -4.706772031038e-07 -1.505364079232e-02
9.787142994380e-07 -4.710934828912e-07 -1.505309838912e-02
-9.900328017937e-07 -4.082271867926e-14 -1.505325722352e-02
-4.746753287856e-07 -3.952239684716e-14 -1.505379711587e-02
2.956864863500e-14 -3.822197668036e-14 -1.505394882160e-02
4.746753879230e-07 -3.691271445839e-14 -1.505379711587e-02
9.900328609305e-07 -3.560470445434e-14 -1.505325722352e-02
-9.787142402871e-07 4.710934064712e-07 -1.505309838912e-02
-4.706771379230e-07 4.706771266709e-07 -1.505364079232e-02
2.826313211893e-14 4.746753201331e-07 -1.505379711587e-02
4.706771944498e-07 4.706771292740e-07 -1.505364079232e-02
9.787142968174e-07 4.710934116846e-07 -1.505309838912e-02
-9.700363742723e-07 9.700363604275e-07 -1.505255784933e-02
-4.710934203249e-07 9.787142290336e-07 -1.505309838912e-02
2.696078354246e-14 9.900327931430e-07 -1.505325722351e-02
4.710934742449e-07 9.787142316386e-07 -1.505309838912e-02
9.700364281893e-07 9.700363656405e-07 -1.505255784933e-02
-5.417877781134e-07 -5.417878511555e-07 -1.505323898326e-02
-2.722266645783e-07 -5.416823522427e-07 -1.505377562707e-02
3.211939576273e-14 -5.473989489467e-07 -1.505393828248e-02
2.722267288142e-07 -5.416823496280e-07 -1.505377562707e-02
5.417878423535e-07 -5.417878459224e-07 -1.505323898326e-02
-5.416822818130e-07 -2.722267376207e-07 -1.505377562707e-02
-2.719521619383e-07 -2.719522323757e-07 -1.505431116495e-02
3.081566173009e-14 -2.737706594035e-07 -1.505446969508e-02
2.719522235663e-07 -2.719522297579e-07 -1.505431116495e-02
5.416823434356e-07 -2.722267323912e-07 -1.505377562707e-02
-5.473988811157e-07 -4.093097902750e-14 -1.505393828248e-02
-2.737705915726e-07 -3.963203570419e-14 -1.505446969508e-02
2.951345333586e-14 -3.832747053092e-14 -1.505462238898e-02
2.737706505957e-07 -3.701902490019e-14 -1.505446969508e-02
5.473989401383e-07 -3.571099335630e-14 -1.505393828248e-02
-5.416822844106e-07 2.722266557536e-07 -1.505377562707e-02
-2.719521645405e-07 2.719521531118e-07 -1.505431116495e-02
2.820919083543e-14 2.737705827467e-07 -1.505446969508e-02
2.719522209540e-07 2.719521557162e-07 -1.505431116495e-02
5.416823408221e-07 2.722266609752e-07 -1.505377562707e-02
-5.417877833149e-07 5.417877692837e-07 -1.505323898326e-02
-2.722266697848e-07 5.416822729738e-07 -1.505377562707e-02
2.690386389512e-14 5.473988722856e-07 -1.505393828248e-02
2.722267235896e-07 5.416822755765e-07 -1.505377562707e-02
5.417878371147e-07 5.417877745071e-07 -1.505323898326e-02
-1.840023542715e-07 -1.840024273386e-07 -1.505350340586e-02
-8.210778365410e-08 -1.846143256276e-07 -1.505403210306e-02
3.206169263611e-14 -1.912998032683e-07 -1.505419926262e-02
8.210784776960e-08 -1.846143230148e-07 -1.505403210306e-02
1.840024183854e-07 -1.840024221114e-07 -1.505350340586e-02
-1.846142551678e-07 -8.210785673615e-08 -1.505403210306e-02
-8.272478724009e-08 -8.272485771681e-08 -1.505455778471e-02
3.075767068160e-14 -8.548411670928e-08 -1.505472019530e-02
8.272484875175e-08 -8.272485510096e-08 -1.505455778471e-02
1.846143166772e-07 -8.210785150670e-08 -1.505403210306e-02
-1.912997354102e-07 -4.104006229919e-14 -1.505419926262e-02
-8.548404883949e-08 -3.974118200610e-14 -1.505472019530e-02
2.945680568723e-14 -3.843528917839e-14 -1.505487655756e-02
8.548410774728e-08 -3.712760062136e-14 -1.505472019530e-02
1.912997943150e-07 -3.581391071118e-14 -1.505419926262e-02
-1.846142577682e-07 8.210777465361e-08 -1.505403210306e-02
-8.272478984565e-08 8.272477823846e-08 -1.505455778471e-02
2.815235679661e-14 8.548403983587e-08 -1.505472019530e-02
8.272484614645e-08 8.272478084391e-08 -1.505455778471e-02
1.846143140770e-07 8.210777987819e-08 -1.505403210306e-02
-1.840023594825e-07 1.840023452584e-07 -1.505350340586e-02
-8.210778886437e-08 1.846142461549e-07 -1.505403210306e-02
2.684902023254e-14 1.912997263904e-07 -1.505419926262e-02
8.210784255486e-08 1.846142487628e-07 -1.505403210306e-02
1.840024131637e-07 1.840023504813e-07 -1.505350340586e-02
SCALARS displacement_magnitude float 1
LOOKUP_TABLE default
0.000000000000e+00
0.000000000000e+00
0.000000000000e+00
0.000000000000e+00
0.000000000000e+00
0.000000000000e+00
0.000000000000e+00
0.000000000000e+00
0.000000000000e+00
0.000000000000e+00
0.000000000000e+00
0.000000000000e+00
0.000000000000e+00
0.000000000000e+00
0.000000000000e+00
0.000000000000e+00
0.000000000000e+00
0.000000000000e+00
0.000000000000e+00
0.000000000000e+00
0.000000000000e+00
0.000000000000e+00
0.000000000000e+00
0.000000000000e+00
0.000000000000e+00
0.000000000000e+00
0.000000000000e+00
0.000000000000e+00
0.000000000000e+00
0.000000000000e+00
0.000000000000e+00
0.000000000000e+00
0.000000000000e+00
0.000000000000e+00
0.000000000000e+00
0.000000000000e+00
0.000000000000e+00
0.000000000000e+00
0.000000000000e+00
0.000000000000e+00
0.000000000000e+00
0.000000000000e+00
0.000000000000e+00
0.000000000000e+00
0.000000000000e+00
0.000000000000e+00
0.000000000000e+00
0.000000000000e+00
0.000000000000e+00
0.000000000000e+00
0.000000000000e+00
0.000000000000e+00
0.000000000000e+00
0.000000000000e+00
0.000000000000e+00
0.000000000000e+00
0.000000000000e+00
0.000000000000e+00
0.000000000000e+00
0.000000000000e+00
0.000000000000e+00
0.000000000000e+00
0.000000000000e+00
0.000000000000e+00
0.000000000000e+00
0.000000000000e+00
0.000000000000e+00
0.000000000000e+00
0.000000000000e+00
0.000000000000e+00
0.000000000000e+00
0.000000000000e+00
0.000000000000e+00
0.000000000000e+00
0.000000000000e+00
0.000000000000e+00
0.000000000000e+00
0.000000000000e+00
0.000000000000e+00
0.000000000000e+00
0.000000000000e+00
0.000000000000e+00
0.000000000000e+00
0.000000000000e+00
0.000000000000e+00
0.000000000000e+00
0.000000000000e+00
0.000000000000e+00
0.000000000000e+00
0.000000000000e+00
0.000000000000e+00
0.000000000000e+00
0.000000000000e+00
0.000000000000e+00
0.000000000000e+00
0.000000000000e+00
0.000000000000e+00
0.000000000000e+00
0.000000000000e+00
0.000000000000e+00
0.000000000000e+00
0.000000000000e+00
0.000000000000e+00
0.000000000000e+00
0.000000000000e+00
0.000000000000e+00
0.000000000000e+00
0.000000000000e+00
0.000000000000e+00
0.000000000000e+00
0.000000000000e+00
0.000000000000e+00
0.000000000000e+00
0.000000000000e+00
0.000000000000e+00
0.000000000000e+00
0.000000000000e+00
0.000000000000e+00
0.000000000000e+00
0.000000000000e+00
0.000000000000e+00
0.000000000000e+00
0.000000000000e+00
0.000000000000e+00
0.000000000000e+00
1.505010002613e-02
1.505061050390e-02
1.505078002462e-02
1.505061050390e-02
1.505010002613e-02
1.505061050390e-02
1.505112695834e-02
1.505129896868e-02
1.505112695834e-02
1.505061050390e-02
1.505078002462e-02
1.505129896868e-02
1.505147091174e-02
1.505129896868e-02
1.505078002462e-02
1.505061050390e-02
1.505112695834e-02
1.505129896868e-02
1.505112695834e-02
1.505061050390e-02
1.505010002613e-02
1.505061050390e-02
1.505078002462e-02
1.505061050390e-02
1.505010002613e-02
1.505150236301e-02
1.505203063134e-02
1.505219730252e-02
1.505203063134e-02
1.505150236301e-02
1.505203063134e-02
1.505256232113e-02
1.505272898839e-02
1.505256232113e-02
1.505203063134e-02
1.505219730252e-02
1.505272898839e-02
1.505289387187e-02
1.505272898839e-02
1.505219730252e-02
1.505203063134e-02
1.505256232113e-02
1.505272898839e-02
1.505256232113e-02
1.505203063133e-02
1.505150236301e-02
1.505203063133e-02
1.505219730252e-02
1.505203063133e-02
1.505150236301e-02
1.505255791184e-02
1.505309842831e-02
1.505325725607e-02
1.505309842831e-02
1.505255791184e-02
1.505309842831e-02
1.505364080704e-02
1.505379712335e-02
1.505364080704e-02
1.505309842831e-02
1.505325725607e-02
1.505379712335e-02
1.505394882160e-02
1.505379712335e-02
1.505325725607e-02
1.505309842831e-02
1.505364080704e-02
1.505379712335e-02
1.505364080704e-02
1.505309842831e-02
1.505255791184e-02
1.505309842831e-02
1.505325725607e-02
1.505309842831e-02
1.505255791184e-02
1.505323900276e-02
1.505377563928e-02
1.505393829244e-02
1.505377563928e-02
1.505323900276e-02
1.505377563928e-02
1.505431116987e-02
1.505446969757e-02
1.505431116987e-02
1.505377563928e-02
1.505393829244e-02
1.505446969757e-02
1.505462238898e-02
1.505446969757e-02
1.505393829244e-02
1.505377563928e-02
1.505431116987e-02
1.505446969757e-02
1.505431116987e-02
1.505377563928e-02
1.505323900276e-02
1.505377563928e-02
1.505393829244e-02
1.505377563928e-02
1.505323900276e-02
1.505350340811e-02
1.505403210442e-02
1.505419926384e-02
1.505403210442e-02
1.505350340811e-02
1.505403210442e-02
1.505455778517e-02
1.505472019554e-02
1.505455778517e-02
1.505403210442e-02
1.505419926384e-02
1.505472019554e-02
1.505487655756e-02
1.505472019554e-02
1.505419926384e-02
1.505403210442e-02
1.505455778517e-02
1.505472019554e-02
1.505455778517e-02
1.505403210442e-02
1.505350340811e-02
1.505403210442e-02
1.505419926384e-02
1.505403210442e-02
1.505350340811e-02
CELL_DATA 128
SCALARS displacement_magnitude float 1
LOOKUP_TABLE default
0.000000000000e+00
0.000000000000e+00
0.000000000000e+00
0.000000000000e+00
0.000000000000e+00
0.000000000000e+00
0.000000000000e+00
0.000000000000e+00
0.000000000000e+00
0.000000000000e+00
0.000000000000e+00
0.000000000000e+00
0.000000000000e+00
0.000000000000e+00
0.000000000000e+00
0.000000000000e+00
0.000000000000e+00
0.000000000000e+00
0.000000000000e+00
0.000000000000e+00
0.000000000000e+00
0.000000000000e+00
0.000000000000e+00
0.000000000000e+00
0.000000000000e+00
0.000000000000e+00
0.000000000000e+00
0.000000000000e+00
0.000000000000e+00
0.000000000000e+00
0.000000000000e+00
0.000000000000e+00
0.000000000000e+00
0.000000000000e+00
0.000000000000e+00
0.000000000000e+00
0.000000000000e+00
0.000000000000e+00
0.000000000000e+00
0.000000000000e+00
0.000000000000e+00
0.000000000000e+00
0.000000000000e+00
0.000000000000e+00
0.000000000000e+00
0.000000000000e+00
0.000000000000e+00
0.000000000000e+00
0.000000000000e+00
0.000000000000e+00
0.000000000000e+00
0.000000000000e+00
0.000000000000e+00
0.000000000000e+00
0.000000000000e+00
0.000000000000e+00
0.000000000000e+00
0.000000000000e+00
0.000000000000e+00
0.000000000000e+00
0.000000000000e+00
0.000000000000e+00
0.000000000000e+00
0.000000000000e+00
1.505132174239e-02
1.505166696236e-02
1.505166696236e-02
1.505132174239e-02
1.505166696236e-02
1.505201374715e-02
1.505201374715e-02
1.505166696236e-02
1.505166696236e-02
1.505201374715e-02
1.505201374715e-02
1.505166696236e-02
1.505132174239e-02
1.505166696236e-02
1.505166696236e-02
1.505132174238e-02
1.505256519029e-02
1.505291410727e-02
1.505291410727e-02
1.505256519029e-02
1.505291410727e-02
1.505326225564e-02
1.505326225564e-02
1.505291410727e-02
1.505291410727e-02
1.505326225564e-02
1.505326225564e-02
1.505291410727e-02
1.505256519029e-02
1.505291410727e-02
1.505291410727e-02
1.505256519029e-02
1.505343712834e-02
1.505378605174e-02
1.505378605174e-02
1.505343712834e-02
1.505378605174e-02
1.505413210366e-02
1.505413210366e-02
1.505378605174e-02
1.505378605174e-02
1.505413210366e-02
1.505413210366e-02
1.505378605174e-02
1.505343712834e-02
1.505378605174e-02
1.505378605174e-02
1.505343712834e-02
1.505390335666e-02
1.505425051851e-02
1.505425051851e-02
1.505390335666e-02
1.505425051851e-02
1.505459346097e-02
1.505459346097e-02
1.505425051851e-02
1.505425051851e-02
1.505459346097e-02
1.505459346097e-02
1.505425051851e-02
1.505390335666e-02
1.505425051851e-02
1.505425051851e-02
1.505390335666e-02
SCALARS engineering_strain_norm float 1
LOOKUP_TABLE default
0.000000000000e+00
0.000000000000e+00
0.000000000000e+00
0.000000000000e+00
0.000000000000e+00
0.000000000000e+00
0.000000000000e+00
0.000000000000e+00
0.000000000000e+00
0.000000000000e+00
0.000000000000e+00
0.000000000000e+00
0.000000000000e+00
0.000000000000e+00
0.000000000000e+00
0.000000000000e+00
0.000000000000e+00
0.000000000000e+00
0.000000000000e+00
0.000000000000e+00
0.000000000000e+00
0.000000000000e+00
0.000000000000e+00
0.000000000000e+00
0.000000000000e+00
0.000000000000e+00
0.000000000000e+00
0.000000000000e+00
0.000000000000e+00
0.000000000000e+00
0.000000000000e+00
0.000000000000e+00
0.000000000000e+00
0.000000000000e+00
0.000000000000e+00
0.000000000000e+00
0.000000000000e+00
0.000000000000e+00
0.000000000000e+00
0.000000000000e+00
0.000000000000e+00
0.000000000000e+00
0.000000000000e+00
0.000000000000e+00
0.000000000000e+00
0.000000000000e+00
0.000000000000e+00
0.000000000000e+00
0.000000000000e+00
0.000000000000e+00
0.000000000000e+00
0.000000000000e+00
0.000000000000e+00
0.000000000000e+00
0.000000000000e+00
0.000000000000e+00
0.000000000000e+00
0.000000000000e+00
0.000000000000e+00
0.000000000000e+00
0.000000000000e+00
0.000000000000e+00
0.000000000000e+00
0.000000000000e+00
2.359043702242e-05
2.365091931116e-05
2.365091931112e-05
2.359043702231e-05
2.365091931113e-05
2.364477219940e-05
2.364477219937e-05
2.365091931099e-05
2.365091931104e-05
2.364477219927e-05
2.364477219928e-05
2.365091931096e-05
2.359043702213e-05
2.365091931094e-05
2.365091931086e-05
2.359043702203e-05
1.782180478610e-05
1.777461532734e-05
1.777461532731e-05
1.782180478597e-05
1.777461532732e-05
1.765634293265e-05
1.765634293266e-05
1.777461532723e-05
1.777461532727e-05
1.765634293262e-05
1.765634293256e-05
1.777461532717e-05
1.782180478586e-05
1.777461532716e-05
1.777461532713e-05
1.782180478583e-05
1.131572360966e-05
1.127144836911e-05
1.127144836912e-05
1.131572360971e-05
1.127144836910e-05
1.117749470862e-05
1.117749470866e-05
1.127144836905e-05
1.127144836903e-05
1.117749470856e-05
1.117749470853e-05
1.127144836898e-05
1.131572360953e-05
1.127144836896e-05
1.127144836897e-05
1.131572360954e-05
4.464593528696e-06
4.418315384324e-06
4.418315384300e-06
4.464593528738e-06
4.418315384226e-06
4.358612967612e-06
4.358612967576e-06
4.418315384217e-06
4.418315384199e-06
4.358612967600e-06
4.358612967514e-06
4.418315384238e-06
4.464593528641e-06
4.418315384259e-06
4.418315384198e-06
4.464593528618e-06
SCALARS von_mises float 1
LOOKUP_TABLE default
0.000000000000e+00
0.000000000000e+00
0.000000000000e+00
0.000000000000e+00
0.000000000000e+00
0.000000000000e+00
0.000000000000e+00
0.000000000000e+00
0.000000000000e+00
0.000000000000e+00
0.000000000000e+00
0.000000000000e+00
0.000000000000e+00
0.000000000000e+00
0.000000000000e+00
0.000000000000e+00
0.000000000000e+00
0.000000000000e+00
0.000000000000e+00
0.000000000000e+00
0.000000000000e+00
0.000000000000e+00
0.000000000000e+00
0.000000000000e+00
0.000000000000e+00
0.000000000000e+00
0.000000000000e+00
0.000000000000e+00
0.000000000000e+00
0.000000000000e+00
0.000000000000e+00
0.000000000000e+00
0.000000000000e+00
0.000000000000e+00
0.000000000000e+00
0.000000000000e+00
0.000000000000e+00
0.000000000000e+00
0.000000000000e+00
0.000000000000e+00
0.000000000000e+00
0.000000000000e+00
0.000000000000e+00
0.000000000000e+00
0.000000000000e+00
0.000000000000e+00
0.000000000000e+00
0.000000000000e+00
0.000000000000e+00
0.000000000000e+00
0.000000000000e+00
0.000000000000e+00
0.000000000000e+00
0.000000000000e+00
0.000000000000e+00
0.000000000000e+00
0.000000000000e+00
0.000000000000e+00
0.000000000000e+00
0.000000000000e+00
0.000000000000e+00
0.000000000000e+00
0.000000000000e+00
0.000000000000e+00
2.164967722792e+00
2.168271259291e+00
2.168271259288e+00
2.164967722782e+00
2.168271259288e+00
2.163916489360e+00
2.163916489358e+00
2.168271259276e+00
2.168271259280e+00
2.163916489348e+00
2.163916489349e+00
2.168271259273e+00
2.164967722765e+00
2.168271259270e+00
2.168271259263e+00
2.164967722756e+00
1.638967625459e+00
1.631374898499e+00
1.631374898496e+00
1.638967625447e+00
1.631374898498e+00
1.615632999303e+00
1.615632999303e+00
1.631374898489e+00
1.631374898492e+00
1.615632999299e+00
1.615632999294e+00
1.631374898484e+00
1.638967625436e+00
1.631374898482e+00
1.631374898480e+00
1.638967625434e+00
1.039754183471e+00
1.035040142419e+00
1.035040142419e+00
1.039754183475e+00
1.035040142418e+00
1.025374423248e+00
1.025374423251e+00
1.035040142412e+00
1.035040142411e+00
1.025374423242e+00
1.025374423239e+00
1.035040142406e+00
1.039754183458e+00
1.035040142405e+00
1.035040142405e+00
1.039754183459e+00
4.172974516759e-01
4.126674248648e-01
4.126674248624e-01
4.172974516796e-01
4.126674248558e-01
4.066271454569e-01
4.066271454534e-01
4.126674248544e-01
4.126674248531e-01
4.066271454559e-01
4.066271454478e-01
4.126674248563e-01
4.172974516708e-01
4.126674248587e-01
4.126674248530e-01
4.172974516687e-01
SCALARS sdf_gap float 1
LOOKUP_TABLE default
0.000000000000e+00
0.000000000000e+00
0.000000000000e+00
0.000000000000e+00
0.000000000000e+00
0.000000000000e+00
0.000000000000e+00
0.000000000000e+00
0.000000000000e+00
0.000000000000e+00
0.000000000000e+00
0.000000000000e+00
0.000000000000e+00
0.000000000000e+00
0.000000000000e+00
0.000000000000e+00
0.000000000000e+00
0.000000000000e+00
0.000000000000e+00
0.000000000000e+00
0.000000000000e+00
0.000000000000e+00
0.000000000000e+00
0.000000000000e+00
0.000000000000e+00
0.000000000000e+00
0.000000000000e+00
0.000000000000e+00
0.000000000000e+00
0.000000000000e+00
0.000000000000e+00
0.000000000000e+00
0.000000000000e+00
0.000000000000e+00
0.000000000000e+00
0.000000000000e+00
0.000000000000e+00
0.000000000000e+00
0.000000000000e+00
0.000000000000e+00
0.000000000000e+00
0.000000000000e+00
0.000000000000e+00
0.000000000000e+00
0.000000000000e+00
0.000000000000e+00
0.000000000000e+00
0.000000000000e+00
0.000000000000e+00
0.000000000000e+00
0.000000000000e+00
0.000000000000e+00
0.000000000000e+00
0.000000000000e+00
0.000000000000e+00
0.000000000000e+00
0.000000000000e+00
0.000000000000e+00
0.000000000000e+00
0.000000000000e+00
0.000000000000e+00
0.000000000000e+00
0.000000000000e+00
0.000000000000e+00
-5.061187560840e-05
-5.095403945429e-05
-5.095403945414e-05
-5.061187560809e-05
-5.095403945419e-05
-5.129892716757e-05
-5.129892716746e-05
-5.095403945388e-05
-5.095403945399e-05
-5.129892716740e-05
-5.129892716727e-05
-5.095403945369e-05
-5.061187560784e-05
-5.095403945368e-05
-5.095403945357e-05
-5.061187560752e-05
0.000000000000e+00
0.000000000000e+00
0.000000000000e+00
0.000000000000e+00
0.000000000000e+00
0.000000000000e+00
0.000000000000e+00
0.000000000000e+00
0.000000000000e+00
0.000000000000e+00
0.000000000000e+00
0.000000000000e+00
0.000000000000e+00
0.000000000000e+00
0.000000000000e+00
0.000000000000e+00
0.000000000000e+00
0.000000000000e+00
0.000000000000e+00
0.000000000000e+00
0.000000000000e+00
0.000000000000e+00
0.000000000000e+00
0.000000000000e+00
0.000000000000e+00
0.000000000000e+00
0.000000000000e+00
0.000000000000e+00
0.000000000000e+00
0.000000000000e+00
0.000000000000e+00
0.000000000000e+00
0.000000000000e+00
0.000000000000e+00
0.000000000000e+00
0.000000000000e+00
0.000000000000e+00
0.000000000000e+00
0.000000000000e+00
0.000000000000e+00
0.000000000000e+00
0.000000000000e+00
0.000000000000e+00
0.000000000000e+00
0.000000000000e+00
0.000000000000e+00
0.000000000000e+00
0.000000000000e+00
SCALARS contact_pressure float 1
LOOKUP_TABLE default
0.000000000000e+00
0.000000000000e+00
0.000000000000e+00
0.000000000000e+00
0.000000000000e+00
0.000000000000e+00
0.000000000000e+00
0.000000000000e+00
0.000000000000e+00
0.000000000000e+00
0.000000000000e+00
0.000000000000e+00
0.000000000000e+00
0.000000000000e+00
0.000000000000e+00
0.000000000000e+00
0.000000000000e+00
0.000000000000e+00
0.000000000000e+00
0.000000000000e+00
0.000000000000e+00
0.000000000000e+00
0.000000000000e+00
0.000000000000e+00
0.000000000000e+00
0.000000000000e+00
0.000000000000e+00
0.000000000000e+00
0.000000000000e+00
0.000000000000e+00
0.000000000000e+00
0.000000000000e+00
0.000000000000e+00
0.000000000000e+00
0.000000000000e+00
0.000000000000e+00
0.000000000000e+00
0.000000000000e+00
0.000000000000e+00
0.000000000000e+00
0.000000000000e+00
0.000000000000e+00
0.000000000000e+00
0.000000000000e+00
0.000000000000e+00
0.000000000000e+00
0.000000000000e+00
0.000000000000e+00
0.000000000000e+00
0.000000000000e+00
0.000000000000e+00
0.000000000000e+00
0.000000000000e+00
0.000000000000e+00
0.000000000000e+00
0.000000000000e+00
0.000000000000e+00
0.000000000000e+00
0.000000000000e+00
0.000000000000e+00
0.000000000000e+00
0.000000000000e+00
0.000000000000e+00
0.000000000000e+00
2.530593780420e+00
2.547701972714e+00
2.547701972707e+00
2.530593780405e+00
2.547701972709e+00
2.564946358379e+00
2.564946358373e+00
2.547701972694e+00
2.547701972699e+00
2.564946358370e+00
2.564946358364e+00
2.547701972685e+00
2.530593780392e+00
2.547701972684e+00
2.547701972679e+00
2.530593780376e+00
0.000000000000e+00
0.000000000000e+00
0.000000000000e+00
0.000000000000e+00
0.000000000000e+00
0.000000000000e+00
0.000000000000e+00
0.000000000000e+00
0.000000000000e+00
0.000000000000e+00
0.000000000000e+00
0.000000000000e+00
0.000000000000e+00
0.000000000000e+00
0.000000000000e+00
0.000000000000e+00
0.000000000000e+00
0.000000000000e+00
0.000000000000e+00
0.000000000000e+00
0.000000000000e+00
0.000000000000e+00
0.000000000000e+00
0.000000000000e+00
0.000000000000e+00
0.000000000000e+00
0.000000000000e+00
0.000000000000e+00
0.000000000000e+00
0.000000000000e+00
0.000000000000e+00
0.000000000000e+00
0.000000000000e+00
0.000000000000e+00
0.000000000000e+00
0.000000000000e+00
0.000000000000e+00
0.000000000000e+00
0.000000000000e+00
0.000000000000e+00
0.000000000000e+00
0.000000000000e+00
0.000000000000e+00
0.000000000000e+00
0.000000000000e+00
0.000000000000e+00
0.000000000000e+00
0.000000000000e+00
SCALARS active_contact float 1
LOOKUP_TABLE default
0.000000000000e+00
0.000000000000e+00
0.000000000000e+00
0.000000000000e+00
0.000000000000e+00
0.000000000000e+00
0.000000000000e+00
0.000000000000e+00
0.000000000000e+00
0.000000000000e+00
0.000000000000e+00
0.000000000000e+00
0.000000000000e+00
0.000000000000e+00
0.000000000000e+00
0.000000000000e+00
0.000000000000e+00
0.000000000000e+00
0.000000000000e+00
0.000000000000e+00
0.000000000000e+00
0.000000000000e+00
0.000000000000e+00
0.000000000000e+00
0.000000000000e+00
0.000000000000e+00
0.000000000000e+00
0.000000000000e+00
0.000000000000e+00
0.000000000000e+00
0.000000000000e+00
0.000000000000e+00
0.000000000000e+00
0.000000000000e+00
0.000000000000e+00
0.000000000000e+00
0.000000000000e+00
0.000000000000e+00
0.000000000000e+00
0.000000000000e+00
0.000000000000e+00
0.000000000000e+00
0.000000000000e+00
0.000000000000e+00
0.000000000000e+00
0.000000000000e+00
0.000000000000e+00
0.000000000000e+00
0.000000000000e+00
0.000000000000e+00
0.000000000000e+00
0.000000000000e+00
0.000000000000e+00
0.000000000000e+00
0.000000000000e+00
0.000000000000e+00
0.000000000000e+00
0.000000000000e+00
0.000000000000e+00
0.000000000000e+00
0.000000000000e+00
0.000000000000e+00
0.000000000000e+00
0.000000000000e+00
1.000000000000e+00
1.000000000000e+00
1.000000000000e+00
1.000000000000e+00
1.000000000000e+00
1.000000000000e+00
1.000000000000e+00
1.000000000000e+00
1.000000000000e+00
1.000000000000e+00
1.000000000000e+00
1.000000000000e+00
1.000000000000e+00
1.000000000000e+00
1.000000000000e+00
1.000000000000e+00
0.000000000000e+00
0.000000000000e+00
0.000000000000e+00
0.000000000000e+00
0.000000000000e+00
0.000000000000e+00
0.000000000000e+00
0.000000000000e+00
0.000000000000e+00
0.000000000000e+00
0.000000000000e+00
0.000000000000e+00
0.000000000000e+00
0.000000000000e+00
0.000000000000e+00
0.000000000000e+00
0.000000000000e+00
0.000000000000e+00
0.000000000000e+00
0.000000000000e+00
0.000000000000e+00
0.000000000000e+00
0.000000000000e+00
0.000000000000e+00
0.000000000000e+00
0.000000000000e+00
0.000000000000e+00
0.000000000000e+00
0.000000000000e+00
0.000000000000e+00
0.000000000000e+00
0.000000000000e+00
0.000000000000e+00
0.000000000000e+00
0.000000000000e+00
0.000000000000e+00
0.000000000000e+00
0.000000000000e+00
0.000000000000e+00
0.000000000000e+00
0.000000000000e+00
0.000000000000e+00
0.000000000000e+00
0.000000000000e+00
0.000000000000e+00
0.000000000000e+00
0.000000000000e+00
0.000000000000e+00
