# vtk DataFile Version 3.0
SFC long-time C3D8 dynamic frame 101 t=2.020000000000e+00
ASCII
DATASET UNSTRUCTURED_GRID
POINTS 250 float
-2.500000000000e-01 -2.500000000000e-01 0.000000000000e+00
-1.250000000000e-01 -2.500000000000e-01 0.000000000000e+00
0.000000000000e+00 -2.500000000000e-01 0.000000000000e+00
1.250000000000e-01 -2.500000000000e-01 0.000000000000e+00
2.500000000000e-01 -2.500000000000e-01 0.000000000000e+00
-2.500000000000e-01 -1.250000000000e-01 0.000000000000e+00
-1.250000000000e-01 -1.250000000000e-01 0.000000000000e+00
0.000000000000e+00 -1.250000000000e-01 0.000000000000e+00
1.250000000000e-01 -1.250000000000e-01 0.000000000000e+00
2.500000000000e-01 -1.250000000000e-01 0.000000000000e+00
-2.500000000000e-01 0.000000000000e+00 0.000000000000e+00
-1.250000000000e-01 0.000000000000e+00 0.000000000000e+00
0.000000000000e+00 0.000000000000e+00 0.000000000000e+00
1.250000000000e-01 0.000000000000e+00 0.000000000000e+00
2.500000000000e-01 0.000000000000e+00 0.000000000000e+00
-2.500000000000e-01 1.250000000000e-01 0.000000000000e+00
-1.250000000000e-01 1.250000000000e-01 0.000000000000e+00
0.000000000000e+00 1.250000000000e-01 0.000000000000e+00
1.250000000000e-01 1.250000000000e-01 0.000000000000e+00
2.500000000000e-01 1.250000000000e-01 0.000000000000e+00
-2.500000000000e-01 2.500000000000e-01 0.000000000000e+00
-1.250000000000e-01 2.500000000000e-01 0.000000000000e+00
0.000000000000e+00 2.500000000000e-01 0.000000000000e+00
1.250000000000e-01 2.500000000000e-01 0.000000000000e+00
2.500000000000e-01 2.500000000000e-01 0.000000000000e+00
-2.500000000000e-01 -2.500000000000e-01 6.000000000000e-02
-1.250000000000e-01 -2.500000000000e-01 6.000000000000e-02
0.000000000000e+00 -2.500000000000e-01 6.000000000000e-02
1.250000000000e-01 -2.500000000000e-01 6.000000000000e-02
2.500000000000e-01 -2.500000000000e-01 6.000000000000e-02
-2.500000000000e-01 -1.250000000000e-01 6.000000000000e-02
-1.250000000000e-01 -1.250000000000e-01 6.000000000000e-02
0.000000000000e+00 -1.250000000000e-01 6.000000000000e-02
1.250000000000e-01 -1.250000000000e-01 6.000000000000e-02
2.500000000000e-01 -1.250000000000e-01 6.000000000000e-02
-2.500000000000e-01 0.000000000000e+00 6.000000000000e-02
-1.250000000000e-01 0.000000000000e+00 6.000000000000e-02
0.000000000000e+00 0.000000000000e+00 6.000000000000e-02
1.250000000000e-01 0.000000000000e+00 6.000000000000e-02
2.500000000000e-01 0.000000000000e+00 6.000000000000e-02
-2.500000000000e-01 1.250000000000e-01 6.000000000000e-02
-1.250000000000e-01 1.250000000000e-01 6.000000000000e-02
0.000000000000e+00 1.250000000000e-01 6.000000000000e-02
1.250000000000e-01 1.250000000000e-01 6.000000000000e-02
2.500000000000e-01 1.250000000000e-01 6.000000000000e-02
-2.500000000000e-01 2.500000000000e-01 6.000000000000e-02
-1.250000000000e-01 2.500000000000e-01 6.000000000000e-02
0.000000000000e+00 2.500000000000e-01 6.000000000000e-02
1.250000000000e-01 2.500000000000e-01 6.000000000000e-02
2.500000000000e-01 2.500000000000e-01 6.000000000000e-02
-2.500000000000e-01 -2.500000000000e-01 1.200000000000e-01
-1.250000000000e-01 -2.500000000000e-01 1.200000000000e-01
0.000000000000e+00 -2.500000000000e-01 1.200000000000e-01
1.250000000000e-01 -2.500000000000e-01 1.200000000000e-01
2.500000000000e-01 -2.500000000000e-01 1.200000000000e-01
-2.500000000000e-01 -1.250000000000e-01 1.200000000000e-01
-1.250000000000e-01 -1.250000000000e-01 1.200000000000e-01
0.000000000000e+00 -1.250000000000e-01 1.200000000000e-01
1.250000000000e-01 -1.250000000000e-01 1.200000000000e-01
2.500000000000e-01 -1.250000000000e-01 1.200000000000e-01
-2.500000000000e-01 0.000000000000e+00 1.200000000000e-01
-1.250000000000e-01 0.000000000000e+00 1.200000000000e-01
0.000000000000e+00 0.000000000000e+00 1.200000000000e-01
1.250000000000e-01 0.000000000000e+00 1.200000000000e-01
2.500000000000e-01 0.000000000000e+00 1.200000000000e-01
-2.500000000000e-01 1.250000000000e-01 1.200000000000e-01
-1.250000000000e-01 1.250000000000e-01 1.200000000000e-01
0.000000000000e+00 1.250000000000e-01 1.200000000000e-01
1.250000000000e-01 1.250000000000e-01 1.200000000000e-01
2.500000000000e-01 1.250000000000e-01 1.200000000000e-01
-2.500000000000e-01 2.500000000000e-01 1.200000000000e-01
-1.250000000000e-01 2.500000000000e-01 1.200000000000e-01
0.000000000000e+00 2.500000000000e-01 1.200000000000e-01
1.250000000000e-01 2.500000000000e-01 1.200000000000e-01
2.500000000000e-01 2.500000000000e-01 1.200000000000e-01
-2.500000000000e-01 -2.500000000000e-01 1.800000000000e-01
-1.250000000000e-01 -2.500000000000e-01 1.800000000000e-01
0.000000000000e+00 -2.500000000000e-01 1.800000000000e-01
1.250000000000e-01 -2.500000000000e-01 1.800000000000e-01
2.500000000000e-01 -2.500000000000e-01 1.800000000000e-01
-2.500000000000e-01 -1.250000000000e-01 1.800000000000e-01
-1.250000000000e-01 -1.250000000000e-01 1.800000000000e-01
0.000000000000e+00 -1.250000000000e-01 1.800000000000e-01
1.250000000000e-01 -1.250000000000e-01 1.800000000000e-01
2.500000000000e-01 -1.250000000000e-01 1.800000000000e-01
-2.500000000000e-01 0.000000000000e+00 1.800000000000e-01
-1.250000000000e-01 0.000000000000e+00 1.800000000000e-01
0.000000000000e+00 0.000000000000e+00 1.800000000000e-01
1.250000000000e-01 0.000000000000e+00 1.800000000000e-01
2.500000000000e-01 0.000000000000e+00 1.800000000000e-01
-2.500000000000e-01 1.250000000000e-01 1.800000000000e-01
-1.250000000000e-01 1.250000000000e-01 1.800000000000e-01
0.000000000000e+00 1.250000000000e-01 1.800000000000e-01
1.250000000000e-01 1.250000000000e-01 1.800000000000e-01
2.500000000000e-01 1.250000000000e-01 1.800000000000e-01
-2.500000000000e-01 2.500000000000e-01 1.800000000000e-01
-1.250000000000e-01 2.500000000000e-01 1.800000000000e-01
0.000000000000e+00 2.500000000000e-01 1.800000000000e-01
1.250000000000e-01 2.500000000000e-01 1.800000000000e-01
2.500000000000e-01 2.500000000000e-01 1.800000000000e-01
-2.500000000000e-01 -2.500000000000e-01 2.400000000000e-01
-1.250000000000e-01 -2.500000000000e-01 2.400000000000e-01
0.000000000000e+00 -2.500000000000e-01 2.400000000000e-01
1.250000000000e-01 -2.500000000000e-01 2.400000000000e-01
2.500000000000e-01 -2.500000000000e-01 2.400000000000e-01
-2.500000000000e-01 -1.250000000000e-01 2.400000000000e-01
-1.250000000000e-01 -1.250000000000e-01 2.400000000000e-01
0.000000000000e+00 -1.250000000000e-01 2.400000000000e-01
1.250000000000e-01 -1.250000000000e-01 2.400000000000e-01
2.500000000000e-01 -1.250000000000e-01 2.400000000000e-01
-2.500000000000e-01 0.000000000000e+00 2.400000000000e-01
-1.250000000000e-01 0.000000000000e+00 2.400000000000e-01
0.000000000000e+00 0.000000000000e+00 2.400000000000e-01
1.250000000000e-01 0.000000000000e+00 2.400000000000e-01
2.500000000000e-01 0.000000000000e+00 2.400000000000e-01
-2.500000000000e-01 1.250000000000e-01 2.400000000000e-01
-1.250000000000e-01 1.250000000000e-01 2.400000000000e-01
0.000000000000e+00 1.250000000000e-01 2.400000000000e-01
1.250000000000e-01 1.250000000000e-01 2.400000000000e-01
2.500000000000e-01 1.250000000000e-01 2.400000000000e-01
-2.500000000000e-01 2.500000000000e-01 2.400000000000e-01
-1.250000000000e-01 2.500000000000e-01 2.400000000000e-01
0.000000000000e+00 2.500000000000e-01 2.400000000000e-01
1.250000000000e-01 2.500000000000e-01 2.400000000000e-01
2.500000000000e-01 2.500000000000e-01 2.400000000000e-01
-2.499999787310e-01 -2.499999788577e-01 2.504714648720e-01
-1.249999824432e-01 -2.499999816406e-01 2.504714702133e-01
1.970553032755e-10 -2.499999857557e-01 2.504714735209e-01
1.249999828373e-01 -2.499999816407e-01 2.504714705914e-01
2.499999791251e-01 -2.499999788580e-01 2.504714656282e-01
-2.499999815137e-01 -1.249999825699e-01 2.504714700928e-01
-1.249999827359e-01 -1.249999828628e-01 2.504714737014e-01
1.971181773689e-10 -1.249999845895e-01 2.504714760488e-01
1.249999831302e-01 -1.249999828629e-01 2.504714740795e-01
2.499999819079e-01 -1.249999825701e-01 2.504714708489e-01
-2.499999856287e-01 7.032277001625e-11 2.504714732798e-01
-1.249999844625e-01 7.025915299771e-11 2.504714759282e-01
1.971813385808e-10 7.019564368441e-11 2.504714780027e-01
1.249999848568e-01 7.013231709490e-11 2.504714763063e-01
2.499999860231e-01 7.006909586349e-11 2.504714740359e-01
-2.499999815136e-01 1.249999827105e-01 2.504714702298e-01
-1.249999827358e-01 1.249999830033e-01 2.504714738384e-01
1.972450148712e-10 1.249999847299e-01 2.504714761857e-01
1.249999831303e-01 1.249999830032e-01 2.504714742165e-01
2.499999819081e-01 1.249999827103e-01 2.504714709859e-01
-2.499999787307e-01 2.499999789984e-01 2.504714651460e-01
-1.249999824429e-01 2.499999817811e-01 2.504714704873e-01
1.973089758203e-10 2.499999858961e-01 2.504714737948e-01
1.249999828375e-01 2.499999817809e-01 2.504714708653e-01
2.499999791253e-01 2.499999789981e-01 2.504714659021e-01
-2.499999808424e-01 -2.499999809065e-01 3.154714615609e-01
-1.249999841594e-01 -2.499999829294e-01 3.154714686606e-01
9.876066800822e-11 -2.499999863962e-01 3.154714736889e-01
1.249999843570e-01 -2.499999829296e-01 3.154714690386e-01
2.499999810400e-01 -2.499999809067e-01 3.154714623170e-01
-2.499999828653e-01 -1.249999842235e-01 3.154714685400e-01
-1.249999841361e-01 -1.249999842002e-01 3.154714745840e-01
9.882351928106e-11 -1.249999855918e-01 3.154714790923e-01
1.249999843337e-01 -1.249999842004e-01 3.154714749621e-01
2.499999830629e-01 -1.249999842237e-01 3.154714692962e-01
-2.499999863319e-01 3.470777773713e-11 3.154714734478e-01
-1.249999855275e-01 3.464415373196e-11 3.154714789718e-01
9.888665033835e-11 3.458063133702e-11 3.154714834652e-01
1.249999857252e-01 3.451731702958e-11 3.154714793499e-01
2.499999865297e-01 3.445410293325e-11 3.154714742039e-01
-2.499999828651e-01 1.249999842929e-01 3.154714686770e-01
-1.249999841359e-01 1.249999842695e-01 3.154714747210e-01
9.895035598340e-11 1.249999856609e-01 3.154714792293e-01
1.249999843338e-01 1.249999842694e-01 3.154714750991e-01
2.499999830630e-01 1.249999842927e-01 3.154714694331e-01
-2.499999808422e-01 2.499999809759e-01 3.154714618349e-01
-1.249999841592e-01 2.499999829987e-01 3.154714689345e-01
9.901434170740e-11 2.499999864654e-01 3.154714739629e-01
1.249999843572e-01 2.499999829986e-01 3.154714693126e-01
2.499999810402e-01 2.499999809756e-01 3.154714625910e-01
-2.499999823092e-01 -2.499999823106e-01 3.804714562986e-01
-1.249999856627e-01 -2.499999837046e-01 3.804714656122e-01
4.658747536219e-13 -2.499999865303e-01 3.804714721540e-01
1.249999856636e-01 -2.499999837047e-01 3.804714659903e-01
2.499999823101e-01 -2.499999823108e-01 3.804714570547e-01
-2.499999837031e-01 -1.249999856641e-01 3.804714654917e-01
-1.249999856304e-01 -1.249999856319e-01 3.804714743079e-01
5.287906370389e-13 -1.249999867263e-01 3.804714806678e-01
1.249999856314e-01 -1.249999856320e-01 3.804714746860e-01
2.499999837041e-01 -1.249999856643e-01 3.804714662478e-01
-2.499999865286e-01 -9.072702596524e-13 3.804714719129e-01
-1.249999867247e-01 -9.708713452403e-13 3.804714805473e-01
5.919310606232e-13 -1.034390855838e-12 3.804714871454e-01
1.249999867259e-01 -1.097707682360e-12 3.804714809253e-01
2.499999865298e-01 -1.160945282252e-12 3.804714726690e-01
-2.499999837030e-01 1.249999856623e-01 3.804714656287e-01
-1.249999856302e-01 1.249999856299e-01 3.804714744449e-01
6.556270334066e-13 1.249999867242e-01 3.804714808048e-01
1.249999856315e-01 1.249999856298e-01 3.804714748229e-01
2.499999837043e-01 1.249999856620e-01 3.804714663848e-01
-2.499999823089e-01 2.499999823088e-01 3.804714565726e-01
-1.249999856625e-01 2.499999837026e-01 3.804714658862e-01
7.195483248960e-13 2.499999865282e-01 3.804714724279e-01
1.249999856639e-01 2.499999837025e-01 3.804714662643e-01
2.499999823104e-01 2.499999823085e-01 3.804714573287e-01
-2.499999850404e-01 -2.499999849791e-01 4.454714524729e-01
-1.249999885068e-01 -2.499999859752e-01 4.454714642518e-01
-9.782891457509e-11 -2.499999881789e-01 4.454714718657e-01
1.249999883111e-01 -2.499999859753e-01 4.454714646299e-01
2.499999848448e-01 -2.499999849794e-01 4.454714532291e-01
-2.499999860363e-01 -1.249999884455e-01 4.454714641313e-01
-1.249999885012e-01 -1.249999884400e-01 4.454714758327e-01
-9.776593446451e-11 -1.249999893308e-01 4.454714835158e-01
1.249999883057e-01 -1.249999884402e-01 4.454714762108e-01
2.499999858408e-01 -1.249999884457e-01 4.454714648874e-01
-2.499999882399e-01 -3.652231740972e-11 4.454714716246e-01
-1.249999893918e-01 -3.658589490269e-11 4.454714833953e-01
-9.770279280212e-11 -3.664941444479e-11 4.454714914997e-01
1.249999891964e-01 -3.671273133222e-11 4.454714837734e-01
2.499999880445e-01 -3.677599139971e-11 4.454714723808e-01
-2.499999860362e-01 1.249999883724e-01 4.454714642683e-01
-1.249999885011e-01 1.249999883669e-01 4.454714759697e-01
-9.763909707943e-11 1.249999892575e-01 4.454714836528e-01
1.249999883058e-01 1.249999883667e-01 4.454714763478e-01
2.499999858409e-01 1.249999883722e-01 4.454714650244e-01
-2.499999850402e-01 2.499999849061e-01 4.454714527469e-01
-1.249999885065e-01 2.499999859020e-01 4.454714645258e-01
-9.757524142793e-11 2.499999881056e-01 4.454714721397e-01
1.249999883114e-01 2.499999859019e-01 4.454714649039e-01
2.499999848450e-01 2.499999849058e-01 4.454714535030e-01
-2.499999906923e-01 -2.499999905683e-01 5.104714515635e-01
-1.249999934940e-01 -2.499999913821e-01 5.104714647633e-01
-1.961234285711e-10 -2.499999931782e-01 5.104714730170e-01
1.249999931018e-01 -2.499999913822e-01 5.104714651413e-01
2.499999903000e-01 -2.499999905685e-01 5.104714523197e-01
-2.499999915060e-01 -1.249999933700e-01 5.104714646427e-01
-1.249999935920e-01 -1.249999934682e-01 5.104714780461e-01
-1.960605004889e-10 -1.249999943993e-01 5.104714865301e-01
1.249999931999e-01 -1.249999934683e-01 5.104714784242e-01
2.499999911139e-01 -1.249999933703e-01 5.104714653988e-01
-2.499999933020e-01 -7.213726320530e-11 5.104714727759e-01
-1.249999945230e-01 -7.220086203932e-11 5.104714864096e-01
-1.959974222820e-10 -7.226440242983e-11 5.104714953763e-01
1.249999941310e-01 -7.232769818553e-11 5.104714867877e-01
2.499999929100e-01 -7.239093617034e-11 5.104714735320e-01
-2.499999915059e-01 1.249999932257e-01 5.104714647797e-01
-1.249999935919e-01 1.249999933238e-01 5.104714781831e-01
-1.959336635643e-10 1.249999942548e-01 5.104714866671e-01
1.249999932000e-01 1.249999933236e-01 5.104714785612e-01
2.499999911140e-01 1.249999932255e-01 5.104714655358e-01
-2.499999906920e-01 2.499999904240e-01 5.104714518375e-01
-1.249999934938e-01 2.499999912377e-01 5.104714650372e-01
-1.958697539082e-10 2.499999930337e-01 5.104714732909e-01
1.249999931020e-01 2.499999912376e-01 5.104714654153e-01
2.499999903003e-01 2.499999904237e-01 5.104714525936e-01
CELLS 128 1152
8 0 1 6 5 25 26 31 30
8 1 2 7 6 26 27 32 31
8 2 3 8 7 27 28 33 32
8 3 4 9 8 28 29 34 33
8 5 6 11 10 30 31 36 35
8 6 7 12 11 31 32 37 36
8 7 8 13 12 32 33 38 37
8 8 9 14 13 33 34 39 38
8 10 11 16 15 35 36 41 40
8 11 12 17 16 36 37 42 41
8 12 13 18 17 37 38 43 42
8 13 14 19 18 38 39 44 43
8 15 16 21 20 40 41 46 45
8 16 17 22 21 41 42 47 46
8 17 18 23 22 42 43 48 47
8 18 19 24 23 43 44 49 48
8 25 26 31 30 50 51 56 55
8 26 27 32 31 51 52 57 56
8 27 28 33 32 52 53 58 57
8 28 29 34 33 53 54 59 58
8 30 31 36 35 55 56 61 60
8 31 32 37 36 56 57 62 61
8 32 33 38 37 57 58 63 62
8 33 34 39 38 58 59 64 63
8 35 36 41 40 60 61 66 65
8 36 37 42 41 61 62 67 66
8 37 38 43 42 62 63 68 67
8 38 39 44 43 63 64 69 68
8 40 41 46 45 65 66 71 70
8 41 42 47 46 66 67 72 71
8 42 43 48 47 67 68 73 72
8 43 44 49 48 68 69 74 73
8 50 51 56 55 75 76 81 80
8 51 52 57 56 76 77 82 81
8 52 53 58 57 77 78 83 82
8 53 54 59 58 78 79 84 83
8 55 56 61 60 80 81 86 85
8 56 57 62 61 81 82 87 86
8 57 58 63 62 82 83 88 87
8 58 59 64 63 83 84 89 88
8 60 61 66 65 85 86 91 90
8 61 62 67 66 86 87 92 91
8 62 63 68 67 87 88 93 92
8 63 64 69 68 88 89 94 93
8 65 66 71 70 90 91 96 95
8 66 67 72 71 91 92 97 96
8 67 68 73 72 92 93 98 97
8 68 69 74 73 93 94 99 98
8 75 76 81 80 100 101 106 105
8 76 77 82 81 101 102 107 106
8 77 78 83 82 102 103 108 107
8 78 79 84 83 103 104 109 108
8 80 81 86 85 105 106 111 110
8 81 82 87 86 106 107 112 111
8 82 83 88 87 107 108 113 112
8 83 84 89 88 108 109 114 113
8 85 86 91 90 110 111 116 115
8 86 87 92 91 111 112 117 116
8 87 88 93 92 112 113 118 117
8 88 89 94 93 113 114 119 118
8 90 91 96 95 115 116 121 120
8 91 92 97 96 116 117 122 121
8 92 93 98 97 117 118 123 122
8 93 94 99 98 118 119 124 123
8 125 126 131 130 150 151 156 155
8 126 127 132 131 151 152 157 156
8 127 128 133 132 152 153 158 157
8 128 129 134 133 153 154 159 158
8 130 131 136 135 155 156 161 160
8 131 132 137 136 156 157 162 161
8 132 133 138 137 157 158 163 162
8 133 134 139 138 158 159 164 163
8 135 136 141 140 160 161 166 165
8 136 137 142 141 161 162 167 166
8 137 138 143 142 162 163 168 167
8 138 139 144 143 163 164 169 168
8 140 141 146 145 165 166 171 170
8 141 142 147 146 166 167 172 171
8 142 143 148 147 167 168 173 172
8 143 144 149 148 168 169 174 173
8 150 151 156 155 175 176 181 180
8 151 152 157 156 176 177 182 181
8 152 153 158 157 177 178 183 182
8 153 154 159 158 178 179 184 183
8 155 156 161 160 180 181 186 185
8 156 157 162 161 181 182 187 186
8 157 158 163 162 182 183 188 187
8 158 159 164 163 183 184 189 188
8 160 161 166 165 185 186 191 190
8 161 162 167 166 186 187 192 191
8 162 163 168 167 187 188 193 192
8 163 164 169 168 188 189 194 193
8 165 166 171 170 190 191 196 195
8 166 167 172 171 191 192 197 196
8 167 168 173 172 192 193 198 197
8 168 169 174 173 193 194 199 198
8 175 176 181 180 200 201 206 205
8 176 177 182 181 201 202 207 206
8 177 178 183 182 202 203 208 207
8 178 179 184 183 203 204 209 208
8 180 181 186 185 205 206 211 210
8 181 182 187 186 206 207 212 211
8 182 183 188 187 207 208 213 212
8 183 184 189 188 208 209 214 213
8 185 186 191 190 210 211 216 215
8 186 187 192 191 211 212 217 216
8 187 188 193 192 212 213 218 217
8 188 189 194 193 213 214 219 218
8 190 191 196 195 215 216 221 220
8 191 192 197 196 216 217 222 221
8 192 193 198 197 217 218 223 222
8 193 194 199 198 218 219 224 223
8 200 201 206 205 225 226 231 230
8 201 202 207 206 226 227 232 231
8 202 203 208 207 227 228 233 232
8 203 204 209 208 228 229 234 233
8 205 206 211 210 230 231 236 235
8 206 207 212 211 231 232 237 236
8 207 208 213 212 232 233 238 237
8 208 209 214 213 233 234 239 238
8 210 211 216 215 235 236 241 240
8 211 212 217 216 236 237 242 241
8 212 213 218 217 237 238 243 242
8 213 214 219 218 238 239 244 243
8 215 216 221 220 240 241 246 245
8 216 217 222 221 241 242 247 246
8 217 218 223 222 242 243 248 247
8 218 219 224 223 243 244 249 248
CELL_TYPES 128
12
12
12
12
12
12
12
12
12
12
12
12
12
12
12
12
12
12
12
12
12
12
12
12
12
12
12
12
12
12
12
12
12
12
12
12
12
12
12
12
12
12
12
12
12
12
12
12
12
12
12
12
12
12
12
12
12
12
12
12
12
12
12
12
12
12
12
12
12
12
12
12
12
12
12
12
12
12
12
12
12
12
12
12
12
12
12
12
12
12
12
12
12
12
12
12
12
12
12
12
12
12
12
12
12
12
12
12
12
12
12
12
12
12
12
12
12
12
12
12
12
12
12
12
12
12
12
12
POINT_DATA 250
VECTORS displacement float
0.000000000000e+00 0.000000000000e+00 0.000000000000e+00
0.000000000000e+00 0.000000000000e+00 0.000000000000e+00
0.000000000000e+00 0.000000000000e+00 0.000000000000e+00
0.000000000000e+00 0.000000000000e+00 0.000000000000e+00
0.000000000000e+00 0.000000000000e+00 0.000000000000e+00
0.000000000000e+00 0.000000000000e+00 0.000000000000e+00
0.000000000000e+00 0.000000000000e+00 0.000000000000e+00
0.000000000000e+00 0.000000000000e+00 0.000000000000e+00
0.000000000000e+00 0.000000000000e+00 0.000000000000e+00
0.000000000000e+00 0.000000000000e+00 0.000000000000e+00
0.000000000000e+00 0.000000000000e+00 0.000000000000e+00
0.000000000000e+00 0.000000000000e+00 0.000000000000e+00
0.000000000000e+00 0.000000000000e+00 0.000000000000e+00
0.000000000000e+00 0.000000000000e+00 0.000000000000e+00
0.000000000000e+00 0.000000000000e+00 0.000000000000e+00
0.000000000000e+00 0.000000000000e+00 0.000000000000e+00
0.000000000000e+00 0.000000000000e+00 0.000000000000e+00
0.000000000000e+00 0.000000000000e+00 0.000000000000e+00
0.000000000000e+00 0.000000000000e+00 0.000000000000e+00
0.000000000000e+00 0.000000000000e+00 0.000000000000e+00
0.000000000000e+00 0.000000000000e+00 0.000000000000e+00
0.000000000000e+00 0.000000000000e+00 0.000000000000e+00
0.000000000000e+00 0.000000000000e+00 0.000000000000e+00
0.000000000000e+00 0.000000000000e+00 0.000000000000e+00
0.000000000000e+00 0.000000000000e+00 0.000000000000e+00
0.000000000000e+00 0.000000000000e+00 0.000000000000e+00
0.000000000000e+00 0.000000000000e+00 0.000000000000e+00
0.000000000000e+00 0.000000000000e+00 0.000000000000e+00
0.000000000000e+00 0.000000000000e+00 0.000000000000e+00
0.000000000000e+00 0.000000000000e+00 0.000000000000e+00
0.000000000000e+00 0.000000000000e+00 0.000000000000e+00
0.000000000000e+00 0.000000000000e+00 0.000000000000e+00
0.000000000000e+00 0.000000000000e+00 0.000000000000e+00
0.000000000000e+00 0.000000000000e+00 0.000000000000e+00
0.000000000000e+00 0.000000000000e+00 0.000000000000e+00
0.000000000000e+00 0.000000000000e+00 0.000000000000e+00
0.000000000000e+00 0.000000000000e+00 0.000000000000e+00
0.000000000000e+00 0.000000000000e+00 0.000000000000e+00
0.000000000000e+00 0.000000000000e+00 0.000000000000e+00
0.000000000000e+00 0.000000000000e+00 0.000000000000e+00
0.000000000000e+00 0.000000000000e+00 0.000000000000e+00
0.000000000000e+00 0.000000000000e+00 0.000000000000e+00
0.000000000000e+00 0.000000000000e+00 0.000000000000e+00
0.000000000000e+00 0.000000000000e+00 0.000000000000e+00
0.000000000000e+00 0.000000000000e+00 0.000000000000e+00
0.000000000000e+00 0.000000000000e+00 0.000000000000e+00
0.000000000000e+00 0.000000000000e+00 0.000000000000e+00
0.000000000000e+00 0.000000000000e+00 0.000000000000e+00
0.000000000000e+00 0.000000000000e+00 0.000000000000e+00
0.000000000000e+00 0.000000000000e+00 0.000000000000e+00
0.000000000000e+00 0.000000000000e+00 0.000000000000e+00
0.000000000000e+00 0.000000000000e+00 0.000000000000e+00
0.000000000000e+00 0.000000000000e+00 0.000000000000e+00
0.000000000000e+00 0.000000000000e+00 0.000000000000e+00
0.000000000000e+00 0.000000000000e+00 0.000000000000e+00
0.000000000000e+00 0.000000000000e+00 0.000000000000e+00
0.000000000000e+00 0.000000000000e+00 0.000000000000e+00
0.000000000000e+00 0.000000000000e+00 0.000000000000e+00
0.000000000000e+00 0.000000000000e+00 0.000000000000e+00
0.000000000000e+00 0.000000000000e+00 0.000000000000e+00
0.000000000000e+00 0.000000000000e+00 0.000000000000e+00
0.000000000000e+00 0.000000000000e+00 0.000000000000e+00
0.000000000000e+00 0.000000000000e+00 0.000000000000e+00
0.000000000000e+00 0.000000000000e+00 0.000000000000e+00
0.000000000000e+00 0.000000000000e+00 0.000000000000e+00
0.000000000000e+00 0.000000000000e+00 0.000000000000e+00
0.000000000000e+00 0.000000000000e+00 0.000000000000e+00
0.000000000000e+00 0.000000000000e+00 0.000000000000e+00
0.000000000000e+00 0.000000000000e+00 0.000000000000e+00
0.000000000000e+00 0.000000000000e+00 0.000000000000e+00
0.000000000000e+00 0.000000000000e+00 0.000000000000e+00
0.000000000000e+00 0.000000000000e+00 0.000000000000e+00
0.000000000000e+00 0.000000000000e+00 0.000000000000e+00
0.000000000000e+00 0.000000000000e+00 0.000000000000e+00
0.000000000000e+00 0.000000000000e+00 0.000000000000e+00
0.000000000000e+00 0.000000000000e+00 0.000000000000e+00
0.000000000000e+00 0.000000000000e+00 0.000000000000e+00
0.000000000000e+00 0.000000000000e+00 0.000000000000e+00
0.000000000000e+00 0.000000000000e+00 0.000000000000e+00
0.000000000000e+00 0.000000000000e+00 0.000000000000e+00
0.000000000000e+00 0.000000000000e+00 0.000000000000e+00
0.000000000000e+00 0.000000000000e+00 0.000000000000e+00
0.000000000000e+00 0.000000000000e+00 0.000000000000e+00
0.000000000000e+00 0.000000000000e+00 0.000000000000e+00
0.000000000000e+00 0.000000000000e+00 0.000000000000e+00
0.000000000000e+00 0.000000000000e+00 0.000000000000e+00
0.000000000000e+00 0.000000000000e+00 0.000000000000e+00
0.000000000000e+00 0.000000000000e+00 0.000000000000e+00
0.000000000000e+00 0.000000000000e+00 0.000000000000e+00
0.000000000000e+00 0.000000000000e+00 0.000000000000e+00
0.000000000000e+00 0.000000000000e+00 0.000000000000e+00
0.000000000000e+00 0.000000000000e+00 0.000000000000e+00
0.000000000000e+00 0.000000000000e+00 0.000000000000e+00
0.000000000000e+00 0.000000000000e+00 0.000000000000e+00
0.000000000000e+00 0.000000000000e+00 0.000000000000e+00
0.000000000000e+00 0.000000000000e+00 0.000000000000e+00
0.000000000000e+00 0.000000000000e+00 0.000000000000e+00
0.000000000000e+00 0.000000000000e+00 0.000000000000e+00
0.000000000000e+00 0.000000000000e+00 0.000000000000e+00
0.000000000000e+00 0.000000000000e+00 0.000000000000e+00
0.000000000000e+00 0.000000000000e+00 0.000000000000e+00
0.000000000000e+00 0.000000000000e+00 0.000000000000e+00
0.000000000000e+00 0.000000000000e+00 0.000000000000e+00
0.000000000000e+00 0.000000000000e+00 0.000000000000e+00
0.000000000000e+00 0.000000000000e+00 0.000000000000e+00
0.000000000000e+00 0.000000000000e+00 0.000000000000e+00
0.000000000000e+00 0.000000000000e+00 0.000000000000e+00
0.000000000000e+00 0.000000000000e+00 0.000000000000e+00
0.000000000000e+00 0.000000000000e+00 0.000000000000e+00
0.000000000000e+00 0.000000000000e+00 0.000000000000e+00
0.000000000000e+00 0.000000000000e+00 0.000000000000e+00
0.000000000000e+00 0.000000000000e+00 0.000000000000e+00
0.000000000000e+00 0.000000000000e+00 0.000000000000e+00
0.000000000000e+00 0.000000000000e+00 0.000000000000e+00
0.000000000000e+00 0.000000000000e+00 0.000000000000e+00
0.000000000000e+00 0.000000000000e+00 0.000000000000e+00
0.000000000000e+00 0.000000000000e+00 0.000000000000e+00
0.000000000000e+00 0.000000000000e+00 0.000000000000e+00
0.000000000000e+00 0.000000000000e+00 0.000000000000e+00
0.000000000000e+00 0.000000000000e+00 0.000000000000e+00
0.000000000000e+00 0.000000000000e+00 0.000000000000e+00
0.000000000000e+00 0.000000000000e+00 0.000000000000e+00
0.000000000000e+00 0.000000000000e+00 0.000000000000e+00
0.000000000000e+00 0.000000000000e+00 0.000000000000e+00
0.000000000000e+00 0.000000000000e+00 0.000000000000e+00
2.126902397109e-08 2.114229028785e-08 -4.528535127956e-03
1.755684998676e-08 1.835944480043e-08 -4.528529786681e-03
1.970553032755e-10 1.424427087221e-08 -4.528526479113e-03
-1.716273879560e-08 1.835931918258e-08 -4.528529408626e-03
-2.087491185575e-08 2.114203872715e-08 -4.528534371843e-03
1.848630476552e-08 1.743011675454e-08 -4.528529907220e-03
1.726406099177e-08 1.713720148164e-08 -4.528526298552e-03
1.971181773689e-10 1.541053169714e-08 -4.528523951249e-03
-1.686982399676e-08 1.713707554410e-08 -4.528525920496e-03
-1.809206666022e-08 1.742986469645e-08 -4.528529151106e-03
1.437125717406e-08 7.032277001625e-11 -4.528526720189e-03
1.553751760109e-08 7.025915299771e-11 -4.528524071787e-03
1.971813385808e-10 7.019564368441e-11 -4.528521997311e-03
-1.514315425863e-08 7.013231709490e-11 -4.528523693730e-03
-1.397689256914e-08 7.006909586349e-11 -4.528525964075e-03
1.848643204186e-08 -1.728947100092e-08 -4.528529770239e-03
1.726418815558e-08 -1.699668293949e-08 -4.528526161571e-03
1.972450148712e-10 -1.527014017179e-08 -4.528523814268e-03
-1.686969748585e-08 -1.699681067882e-08 -4.528525783515e-03
-1.809194026144e-08 -1.728972629483e-08 -4.528529014125e-03
2.126927841732e-08 -2.100164419489e-08 -4.528534853994e-03
1.755710424848e-08 -1.821892585415e-08 -4.528529512720e-03
1.973089758203e-10 -1.410387888924e-08 -4.528526205151e-03
-1.716248570868e-08 -1.821905391482e-08 -4.528529134664e-03
-2.087465894892e-08 -2.100189999257e-08 -4.528534097881e-03
1.915756741872e-08 1.909351369177e-08 -4.528538439089e-03
1.584055903318e-08 1.707055156614e-08 -4.528531339418e-03
9.876066800822e-11 1.360379684915e-08 -4.528526311097e-03
-1.564303744914e-08 1.707042569430e-08 -4.528530961363e-03
-1.896004526985e-08 1.909326183105e-08 -4.528537682976e-03
1.713473157770e-08 1.577650561189e-08 -4.528531459956e-03
1.586394101230e-08 1.579976130595e-08 -4.528525415951e-03
9.882351928106e-11 1.440824338391e-08 -4.528520907652e-03
-1.566629365327e-08 1.579963522072e-08 -4.528525037895e-03
-1.693708346675e-08 1.577625335668e-08 -4.528530703843e-03
1.366810327364e-08 3.470777773713e-11 -4.528526552173e-03
1.447254951816e-08 3.464415373196e-11 -4.528521028190e-03
9.888665033835e-11 3.458063133702e-11 -4.528516534813e-03
-1.427477585055e-08 3.451731702958e-11 -4.528520650134e-03
-1.347032868762e-08 3.445410293325e-11 -4.528525796059e-03
1.713485876561e-08 -1.570708996365e-08 -4.528531322976e-03
1.586406812238e-08 -1.573047288128e-08 -4.528525278970e-03
9.895035598340e-11 -1.433908198817e-08 -4.528520770672e-03
-1.566616708930e-08 -1.573060047117e-08 -4.528524900914e-03
-1.693695697779e-08 -1.570734505884e-08 -4.528530566862e-03
1.915782175115e-08 -1.902409783822e-08 -4.528538165127e-03
1.584081322311e-08 -1.700126286401e-08 -4.528531065456e-03
9.901434170740e-11 -1.353463511974e-08 -4.528526037135e-03
-1.564278429124e-08 -1.700139067179e-08 -4.528530687401e-03
-1.895979225557e-08 -1.902435332677e-08 -4.528537409015e-03
1.769080234274e-08 1.768942855976e-08 -4.528543701374e-03
1.433728585961e-08 1.629541634575e-08 -4.528534387760e-03
4.658747536219e-13 1.346974818381e-08 -4.528527846018e-03
-1.433635401409e-08 1.629529026689e-08 -4.528534009705e-03
-1.768987015862e-08 1.768917644725e-08 -4.528542945261e-03
1.629691643078e-08 1.433591229550e-08 -4.528534508299e-03
1.436963743072e-08 1.436813753652e-08 -4.528525692102e-03
5.287906370389e-13 1.327369063869e-08 -4.528519332194e-03
-1.436857972264e-08 1.436801130169e-08 -4.528525314046e-03
-1.629585827862e-08 1.433565983735e-08 -4.528533752186e-03
1.347137474538e-08 -9.072702596524e-13 -4.528528087094e-03
1.327531701318e-08 -9.708713452403e-13 -4.528519452732e-03
5.919310606232e-13 -1.034390855838e-12 -4.528512854648e-03
-1.327413298601e-08 -1.097707682360e-12 -4.528519074675e-03
-1.347019012799e-08 -1.160945282252e-12 -4.528527330981e-03
1.629704354401e-08 -1.433772680058e-08 -4.528534371318e-03
1.436976448628e-08 -1.437007923275e-08 -4.528525555121e-03
6.556270334066e-13 -1.327575935930e-08 -4.528519195213e-03
-1.436845310487e-08 -1.437020667169e-08 -4.528525177065e-03
-1.629573171656e-08 -1.433798169017e-08 -4.528533615205e-03
1.769105658342e-08 -1.769124294010e-08 -4.528543427412e-03
1.433753997585e-08 -1.629735788010e-08 -4.528534113799e-03
7.195483248960e-13 -1.347181668944e-08 -4.528527572057e-03
-1.433610078406e-08 -1.629748547603e-08 -4.528533735744e-03
-1.768961705397e-08 -1.769149817432e-08 -4.528542671300e-03
1.495956263991e-08 1.502086882361e-08 -4.528547527058e-03
1.149321525361e-08 1.402483305679e-08 -4.528535748166e-03
-9.782891457509e-11 1.182111805757e-08 -4.528528134283e-03
-1.168887311607e-08 1.402470672955e-08 -4.528535370111e-03
-1.515522042072e-08 1.502061639335e-08 -4.528546770946e-03
1.396365320376e-08 1.155452155865e-08 -4.528535868704e-03
1.149877718696e-08 1.155995710996e-08 -4.528524167264e-03
-9.776593446451e-11 1.066923146150e-08 -4.528516484162e-03
-1.169430909892e-08 1.155983068021e-08 -4.528523789208e-03
-1.415918499956e-08 1.155426883427e-08 -4.528535112591e-03
1.176006474963e-08 -3.652231740972e-11 -4.528528375358e-03
1.060817808046e-08 -3.658589490269e-11 -4.528516604699e-03
-9.770279280212e-11 -3.664941444479e-11 -4.528508500272e-03
-1.080358367448e-08 -3.671273133222e-11 -4.528516226643e-03
-1.195547011412e-08 -3.677599139971e-11 -4.528527619245e-03
1.396378022753e-08 -1.162756620490e-08 -4.528535731724e-03
1.149890417217e-08 -1.163312891657e-08 -4.528524030283e-03
-9.763909707943e-11 -1.074253029181e-08 -4.528516347181e-03
-1.169418241059e-08 -1.163325615780e-08 -4.528523652227e-03
-1.415905834977e-08 -1.162782082501e-08 -4.528534975611e-03
1.495981676779e-08 -1.509391344176e-08 -4.528547253097e-03
1.149346927400e-08 -1.409800482245e-08 -4.528535474204e-03
-9.757524142793e-11 -1.189441680303e-08 -4.528527860321e-03
-1.168861978841e-08 -1.409813216738e-08 -4.528535096149e-03
-1.515496720052e-08 -1.509416835096e-08 -4.528546496985e-03
9.307739058861e-09 9.431725207541e-09 -4.528548436458e-03
6.505994376170e-09 8.617881001639e-09 -4.528535236738e-03
-1.961234285711e-10 6.821759410806e-09 -4.528526983032e-03
-6.898241598076e-09 8.617754302287e-09 -4.528534858682e-03
-9.699986606283e-09 9.431472269802e-09 -4.528547680347e-03
8.494021201893e-09 6.629980472227e-09 -4.528535357276e-03
6.407974117263e-09 6.531833822639e-09 -4.528521953863e-03
-1.960605004889e-10 5.600696650416e-09 -4.528513469868e-03
-6.800095472894e-09 6.531707130990e-09 -4.528521575808e-03
-8.886142843970e-09 6.629727369637e-09 -4.528534601163e-03
6.698026251781e-09 -7.213726320530e-11 -4.528527224108e-03
5.476963543047e-09 -7.220086203932e-11 -4.528513590406e-03
-1.959974222820e-10 -7.226440242983e-11 -4.528504623675e-03
-5.868958672047e-09 -7.232769818553e-11 -4.528513212350e-03
-7.090021548230e-09 -7.239093617034e-11 -4.528526467995e-03
8.494148089427e-09 -6.774255135195e-09 -4.528535220295e-03
6.408101007429e-09 -6.676235674567e-09 -4.528521816883e-03
-1.959336635643e-10 -5.745225561809e-09 -4.528513332888e-03
-6.799968688723e-09 -6.676362653937e-09 -4.528521438827e-03
-8.886016054306e-09 -6.774509375178e-09 -4.528534464183e-03
9.307993004674e-09 -9.575999989558e-09 -4.528548162497e-03
6.506248258365e-09 -8.762282960980e-09 -4.528534962776e-03
-1.958697539082e-10 -6.966288383759e-09 -4.528526709071e-03
-6.897988131180e-09 -8.762409928338e-09 -4.528534584721e-03
-9.699733204174e-09 -9.576254394442e-09 -4.528547406386e-03
SCALARS displacement_magnitude float 1
LOOKUP_TABLE default
0.000000000000e+00
0.000000000000e+00
0.000000000000e+00
0.000000000000e+00
0.000000000000e+00
0.000000000000e+00
0.000000000000e+00
0.000000000000e+00
0.000000000000e+00
0.000000000000e+00
0.000000000000e+00
0.000000000000e+00
0.000000000000e+00
0.000000000000e+00
0.000000000000e+00
0.000000000000e+00
0.000000000000e+00
0.000000000000e+00
0.000000000000e+00
0.000000000000e+00
0.000000000000e+00
0.000000000000e+00
0.000000000000e+00
0.000000000000e+00
0.000000000000e+00
0.000000000000e+00
0.000000000000e+00
0.000000000000e+00
0.000000000000e+00
0.000000000000e+00
0.000000000000e+00
0.000000000000e+00
0.000000000000e+00
0.000000000000e+00
0.000000000000e+00
0.000000000000e+00
0.000000000000e+00
0.000000000000e+00
0.000000000000e+00
0.000000000000e+00
0.000000000000e+00
0.000000000000e+00
0.000000000000e+00
0.000000000000e+00
0.000000000000e+00
0.000000000000e+00
0.000000000000e+00
0.000000000000e+00
0.000000000000e+00
0.000000000000e+00
0.000000000000e+00
0.000000000000e+00
0.000000000000e+00
0.000000000000e+00
0.000000000000e+00
0.000000000000e+00
0.000000000000e+00
0.000000000000e+00
0.000000000000e+00
0.000000000000e+00
0.000000000000e+00
0.000000000000e+00
0.000000000000e+00
0.000000000000e+00
0.000000000000e+00
0.000000000000e+00
0.000000000000e+00
0.000000000000e+00
0.000000000000e+00
0.000000000000e+00
0.000000000000e+00
0.000000000000e+00
0.000000000000e+00
0.000000000000e+00
0.000000000000e+00
0.000000000000e+00
0.000000000000e+00
0.000000000000e+00
0.000000000000e+00
0.000000000000e+00
0.000000000000e+00
0.000000000000e+00
0.000000000000e+00
0.000000000000e+00
0.000000000000e+00
0.000000000000e+00
0.000000000000e+00
0.000000000000e+00
0.000000000000e+00
0.000000000000e+00
0.000000000000e+00
0.000000000000e+00
0.000000000000e+00
0.000000000000e+00
0.000000000000e+00
0.000000000000e+00
0.000000000000e+00
0.000000000000e+00
0.000000000000e+00
0.000000000000e+00
0.000000000000e+00
0.000000000000e+00
0.000000000000e+00
0.000000000000e+00
0.000000000000e+00
0.000000000000e+00
0.000000000000e+00
0.000000000000e+00
0.000000000000e+00
0.000000000000e+00
0.000000000000e+00
0.000000000000e+00
0.000000000000e+00
0.000000000000e+00
0.000000000000e+00
0.000000000000e+00
0.000000000000e+00
0.000000000000e+00
0.000000000000e+00
0.000000000000e+00
0.000000000000e+00
0.000000000000e+00
0.000000000000e+00
0.000000000000e+00
0.000000000000e+00
4.528535128055e-03
4.528529786753e-03
4.528526479136e-03
4.528529408695e-03
4.528534371940e-03
4.528529907291e-03
4.528526298617e-03
4.528523951275e-03
4.528525920559e-03
4.528529151176e-03
4.528526720212e-03
4.528524071814e-03
4.528521997311e-03
4.528523693756e-03
4.528525964097e-03
4.528529770310e-03
4.528526161636e-03
4.528523814294e-03
4.528525783578e-03
4.528529014195e-03
4.528534854093e-03
4.528529512790e-03
4.528526205173e-03
4.528529134733e-03
4.528534097978e-03
4.528538439170e-03
4.528531339478e-03
4.528526311117e-03
4.528530961422e-03
4.528537683056e-03
4.528531460016e-03
4.528525416006e-03
4.528520907675e-03
4.528525037949e-03
4.528530703902e-03
4.528526552194e-03
4.528521028213e-03
4.528516534813e-03
4.528520650156e-03
4.528525796079e-03
4.528531323036e-03
4.528525279025e-03
4.528520770694e-03
4.528524900968e-03
4.528530566921e-03
4.528538165208e-03
4.528531065516e-03
4.528526037155e-03
4.528530687460e-03
4.528537409094e-03
4.528543701443e-03
4.528534387812e-03
4.528527846038e-03
4.528534009757e-03
4.528542945331e-03
4.528534508351e-03
4.528525692147e-03
4.528519332213e-03
4.528525314091e-03
4.528533752238e-03
4.528528087114e-03
4.528519452751e-03
4.528512854648e-03
4.528519074695e-03
4.528527331001e-03
4.528534371370e-03
4.528525555167e-03
4.528519195233e-03
4.528525177111e-03
4.528533615257e-03
4.528543427481e-03
4.528534113851e-03
4.528527572077e-03
4.528533735796e-03
4.528542671369e-03
4.528547527107e-03
4.528535748202e-03
4.528528134298e-03
4.528535370148e-03
4.528546770996e-03
4.528535868740e-03
4.528524167293e-03
4.528516484174e-03
4.528523789238e-03
4.528535112628e-03
4.528528375374e-03
4.528516604712e-03
4.528508500272e-03
4.528516226656e-03
4.528527619261e-03
4.528535731760e-03
4.528524030313e-03
4.528516347194e-03
4.528523652257e-03
4.528534975648e-03
4.528547253146e-03
4.528535474241e-03
4.528527860336e-03
4.528535096186e-03
4.528546497035e-03
4.528548436478e-03
4.528535236750e-03
4.528526983038e-03
4.528534858696e-03
4.528547680367e-03
4.528535357289e-03
4.528521953873e-03
4.528513469872e-03
4.528521575818e-03
4.528534601177e-03
4.528527224113e-03
4.528513590409e-03
4.528504623675e-03
4.528513212354e-03
4.528526468000e-03
4.528535220309e-03
4.528521816892e-03
4.528513332891e-03
4.528521438837e-03
4.528534464196e-03
4.528548162517e-03
4.528534962789e-03
4.528526709076e-03
4.528534584735e-03
4.528547406406e-03
CELL_DATA 128
SCALARS displacement_magnitude float 1
LOOKUP_TABLE default
0.000000000000e+00
0.000000000000e+00
0.000000000000e+00
0.000000000000e+00
0.000000000000e+00
0.000000000000e+00
0.000000000000e+00
0.000000000000e+00
0.000000000000e+00
0.000000000000e+00
0.000000000000e+00
0.000000000000e+00
0.000000000000e+00
0.000000000000e+00
0.000000000000e+00
0.000000000000e+00
0.000000000000e+00
0.000000000000e+00
0.000000000000e+00
0.000000000000e+00
0.000000000000e+00
0.000000000000e+00
0.000000000000e+00
0.000000000000e+00
0.000000000000e+00
0.000000000000e+00
0.000000000000e+00
0.000000000000e+00
0.000000000000e+00
0.000000000000e+00
0.000000000000e+00
0.000000000000e+00
0.000000000000e+00
0.000000000000e+00
0.000000000000e+00
0.000000000000e+00
0.000000000000e+00
0.000000000000e+00
0.000000000000e+00
0.000000000000e+00
0.000000000000e+00
0.000000000000e+00
0.000000000000e+00
0.000000000000e+00
0.000000000000e+00
0.000000000000e+00
0.000000000000e+00
0.000000000000e+00
0.000000000000e+00
0.000000000000e+00
0.000000000000e+00
0.000000000000e+00
0.000000000000e+00
0.000000000000e+00
0.000000000000e+00
0.000000000000e+00
0.000000000000e+00
0.000000000000e+00
0.000000000000e+00
0.000000000000e+00
0.000000000000e+00
0.000000000000e+00
0.000000000000e+00
0.000000000000e+00
4.528530971923e-03
4.528526311257e-03
4.528526122229e-03
4.528530404837e-03
4.528526431795e-03
4.528522525716e-03
4.528522336687e-03
4.528525864709e-03
4.528526363305e-03
4.528522457225e-03
4.528522268196e-03
4.528525796219e-03
4.528530766452e-03
4.528526105786e-03
4.528525916757e-03
4.528530199366e-03
4.528533118053e-03
4.528526404061e-03
4.528526215033e-03
4.528532550968e-03
4.528526524599e-03
4.528520152308e-03
4.528519963280e-03
4.528525957514e-03
4.528526456109e-03
4.528520083818e-03
4.528519894790e-03
4.528525889024e-03
4.528532912582e-03
4.528526198590e-03
4.528526009562e-03
4.528532345497e-03
4.528535200137e-03
4.528526474022e-03
4.528526284995e-03
4.528534633053e-03
4.528526594560e-03
4.528517886026e-03
4.528517696998e-03
4.528526027476e-03
4.528526526070e-03
4.528517817536e-03
4.528517628508e-03
4.528525958986e-03
4.528534994666e-03
4.528526268551e-03
4.528526079524e-03
4.528534427583e-03
4.528535536967e-03
4.528525272188e-03
4.528525083160e-03
4.528534969883e-03
4.528525392725e-03
4.528514924285e-03
4.528514735257e-03
4.528524825641e-03
4.528525324235e-03
4.528514855795e-03
4.528514666767e-03
4.528524757151e-03
4.528535331496e-03
4.528525066717e-03
4.528524877689e-03
4.528534764413e-03
SCALARS engineering_strain_norm float 1
LOOKUP_TABLE default
0.000000000000e+00
0.000000000000e+00
0.000000000000e+00
0.000000000000e+00
0.000000000000e+00
0.000000000000e+00
0.000000000000e+00
0.000000000000e+00
0.000000000000e+00
0.000000000000e+00
0.000000000000e+00
0.000000000000e+00
0.000000000000e+00
0.000000000000e+00
0.000000000000e+00
0.000000000000e+00
0.000000000000e+00
0.000000000000e+00
0.000000000000e+00
0.000000000000e+00
0.000000000000e+00
0.000000000000e+00
0.000000000000e+00
0.000000000000e+00
0.000000000000e+00
0.000000000000e+00
0.000000000000e+00
0.000000000000e+00
0.000000000000e+00
0.000000000000e+00
0.000000000000e+00
0.000000000000e+00
0.000000000000e+00
0.000000000000e+00
0.000000000000e+00
0.000000000000e+00
0.000000000000e+00
0.000000000000e+00
0.000000000000e+00
0.000000000000e+00
0.000000000000e+00
0.000000000000e+00
0.000000000000e+00
0.000000000000e+00
0.000000000000e+00
0.000000000000e+00
0.000000000000e+00
0.000000000000e+00
0.000000000000e+00
0.000000000000e+00
0.000000000000e+00
0.000000000000e+00
0.000000000000e+00
0.000000000000e+00
0.000000000000e+00
0.000000000000e+00
0.000000000000e+00
0.000000000000e+00
0.000000000000e+00
0.000000000000e+00
0.000000000000e+00
0.000000000000e+00
0.000000000000e+00
0.000000000000e+00
4.799560633794e-08
1.364250175505e-07
1.364250145617e-07
4.799560659921e-08
1.364250138766e-07
1.851750921446e-07
1.851750915843e-07
1.364250224759e-07
1.364250127710e-07
1.851750919419e-07
1.851750913945e-07
1.364250213843e-07
4.799560643791e-08
1.364250206735e-07
1.364250176868e-07
4.799560672103e-08
8.072430892824e-08
1.340352281822e-07
1.340352294017e-07
8.072431316688e-08
1.340352261786e-07
1.720414678020e-07
1.720414692097e-07
1.340352337009e-07
1.340352266137e-07
1.720414683126e-07
1.720414697176e-07
1.340352341246e-07
8.072431047160e-08
1.340352309160e-07
1.340352321444e-07
8.072431473190e-08
7.039302716762e-08
1.198544374762e-07
1.198544403373e-07
7.039303045895e-08
1.198544366090e-07
1.565675631282e-07
1.565675655005e-07
1.198544421667e-07
1.198544376574e-07
1.565675639865e-07
1.565675663572e-07
1.198544431853e-07
7.039302836275e-08
1.198544394992e-07
1.198544423598e-07
7.039303163786e-08
4.205463719258e-08
8.610015891995e-08
8.610016161419e-08
4.205463812079e-08
8.610015860591e-08
1.148299542223e-07
1.148299566878e-07
8.610016227498e-08
8.610015959727e-08
1.148299551274e-07
1.148299575881e-07
8.610016323256e-08
4.205463753438e-08
8.610016026285e-08
8.610016295516e-08
4.205463845171e-08
SCALARS von_mises float 1
LOOKUP_TABLE default
0.000000000000e+00
0.000000000000e+00
0.000000000000e+00
0.000000000000e+00
0.000000000000e+00
0.000000000000e+00
0.000000000000e+00
0.000000000000e+00
0.000000000000e+00
0.000000000000e+00
0.000000000000e+00
0.000000000000e+00
0.000000000000e+00
0.000000000000e+00
0.000000000000e+00
0.000000000000e+00
0.000000000000e+00
0.000000000000e+00
0.000000000000e+00
0.000000000000e+00
0.000000000000e+00
0.000000000000e+00
0.000000000000e+00
0.000000000000e+00
0.000000000000e+00
0.000000000000e+00
0.000000000000e+00
0.000000000000e+00
0.000000000000e+00
0.000000000000e+00
0.000000000000e+00
0.000000000000e+00
0.000000000000e+00
0.000000000000e+00
0.000000000000e+00
0.000000000000e+00
0.000000000000e+00
0.000000000000e+00
0.000000000000e+00
0.000000000000e+00
0.000000000000e+00
0.000000000000e+00
0.000000000000e+00
0.000000000000e+00
0.000000000000e+00
0.000000000000e+00
0.000000000000e+00
0.000000000000e+00
0.000000000000e+00
0.000000000000e+00
0.000000000000e+00
0.000000000000e+00
0.000000000000e+00
0.000000000000e+00
0.000000000000e+00
0.000000000000e+00
0.000000000000e+00
0.000000000000e+00
0.000000000000e+00
0.000000000000e+00
0.000000000000e+00
0.000000000000e+00
0.000000000000e+00
0.000000000000e+00
2.241208771842e-03
1.073943495113e-02
1.073943459755e-02
2.241208767681e-03
1.073943458268e-02
1.341814624735e-02
1.341814612490e-02
1.073943539155e-02
1.073943445188e-02
1.341814620262e-02
1.341814608196e-02
1.073943526222e-02
2.241208770994e-03
1.073943524515e-02
1.073943489057e-02
2.241208767757e-03
4.502915977980e-03
9.401014255310e-03
9.401014201049e-03
4.502916319287e-03
9.401014036609e-03
1.128098229783e-02
1.128098228336e-02
9.401014667523e-03
9.401014015393e-03
1.128098229171e-02
1.128098227637e-02
9.401014645492e-03
4.502916102393e-03
9.401014484594e-03
9.401014430557e-03
4.502916445181e-03
3.991132637558e-03
8.952003835258e-03
8.952003940042e-03
3.991132811743e-03
8.952003727730e-03
1.161151182862e-02
1.161151193018e-02
8.952004166133e-03
8.952003765927e-03
1.161151186449e-02
1.161151196713e-02
8.952004202453e-03
3.991132700671e-03
8.952003995552e-03
8.952004100042e-03
3.991132873356e-03
2.978882478941e-03
7.052545081996e-03
7.052545262004e-03
2.978882528236e-03
7.052545038661e-03
9.258952538098e-03
9.258952702337e-03
7.052545352619e-03
7.052545104557e-03
9.258952598929e-03
9.258952763603e-03
7.052545415641e-03
2.978882498015e-03
7.052545196287e-03
7.052545376990e-03
2.978882546500e-03
SCALARS sdf_gap float 1
LOOKUP_TABLE default
0.000000000000e+00
0.000000000000e+00
0.000000000000e+00
0.000000000000e+00
0.000000000000e+00
0.000000000000e+00
0.000000000000e+00
0.000000000000e+00
0.000000000000e+00
0.000000000000e+00
0.000000000000e+00
0.000000000000e+00
0.000000000000e+00
0.000000000000e+00
0.000000000000e+00
0.000000000000e+00
0.000000000000e+00
0.000000000000e+00
0.000000000000e+00
0.000000000000e+00
0.000000000000e+00
0.000000000000e+00
0.000000000000e+00
0.000000000000e+00
0.000000000000e+00
0.000000000000e+00
0.000000000000e+00
0.000000000000e+00
0.000000000000e+00
0.000000000000e+00
0.000000000000e+00
0.000000000000e+00
0.000000000000e+00
0.000000000000e+00
0.000000000000e+00
0.000000000000e+00
0.000000000000e+00
0.000000000000e+00
0.000000000000e+00
0.000000000000e+00
0.000000000000e+00
0.000000000000e+00
0.000000000000e+00
0.000000000000e+00
0.000000000000e+00
0.000000000000e+00
0.000000000000e+00
0.000000000000e+00
0.000000000000e+00
0.000000000000e+00
0.000000000000e+00
0.000000000000e+00
0.000000000000e+00
0.000000000000e+00
0.000000000000e+00
0.000000000000e+00
0.000000000000e+00
0.000000000000e+00
0.000000000000e+00
0.000000000000e+00
0.000000000000e+00
0.000000000000e+00
0.000000000000e+00
0.000000000000e+00
1.047146971990e-02
1.047147337110e-02
1.047147356013e-02
1.047147028698e-02
1.047147325056e-02
1.047147592028e-02
1.047147610930e-02
1.047147381765e-02
1.047147331905e-02
1.047147598877e-02
1.047147617779e-02
1.047147388614e-02
1.047146992537e-02
1.047147357657e-02
1.047147376560e-02
1.047147049245e-02
0.000000000000e+00
0.000000000000e+00
0.000000000000e+00
0.000000000000e+00
0.000000000000e+00
0.000000000000e+00
0.000000000000e+00
0.000000000000e+00
0.000000000000e+00
0.000000000000e+00
0.000000000000e+00
0.000000000000e+00
0.000000000000e+00
0.000000000000e+00
0.000000000000e+00
0.000000000000e+00
0.000000000000e+00
0.000000000000e+00
0.000000000000e+00
0.000000000000e+00
0.000000000000e+00
0.000000000000e+00
0.000000000000e+00
0.000000000000e+00
0.000000000000e+00
0.000000000000e+00
0.000000000000e+00
0.000000000000e+00
0.000000000000e+00
0.000000000000e+00
0.000000000000e+00
0.000000000000e+00
0.000000000000e+00
0.000000000000e+00
0.000000000000e+00
0.000000000000e+00
0.000000000000e+00
0.000000000000e+00
0.000000000000e+00
0.000000000000e+00
0.000000000000e+00
0.000000000000e+00
0.000000000000e+00
0.000000000000e+00
0.000000000000e+00
0.000000000000e+00
0.000000000000e+00
0.000000000000e+00
SCALARS contact_pressure float 1
LOOKUP_TABLE default
0.000000000000e+00
0.000000000000e+00
0.000000000000e+00
0.000000000000e+00
0.000000000000e+00
0.000000000000e+00
0.000000000000e+00
0.000000000000e+00
0.000000000000e+00
0.000000000000e+00
0.000000000000e+00
0.000000000000e+00
0.000000000000e+00
0.000000000000e+00
0.000000000000e+00
0.000000000000e+00
0.000000000000e+00
0.000000000000e+00
0.000000000000e+00
0.000000000000e+00
0.000000000000e+00
0.000000000000e+00
0.000000000000e+00
0.000000000000e+00
0.000000000000e+00
0.000000000000e+00
0.000000000000e+00
0.000000000000e+00
0.000000000000e+00
0.000000000000e+00
0.000000000000e+00
0.000000000000e+00
0.000000000000e+00
0.000000000000e+00
0.000000000000e+00
0.000000000000e+00
0.000000000000e+00
0.000000000000e+00
0.000000000000e+00
0.000000000000e+00
0.000000000000e+00
0.000000000000e+00
0.000000000000e+00
0.000000000000e+00
0.000000000000e+00
0.000000000000e+00
0.000000000000e+00
0.000000000000e+00
0.000000000000e+00
0.000000000000e+00
0.000000000000e+00
0.000000000000e+00
0.000000000000e+00
0.000000000000e+00
0.000000000000e+00
0.000000000000e+00
0.000000000000e+00
0.000000000000e+00
0.000000000000e+00
0.000000000000e+00
0.000000000000e+00
0.000000000000e+00
0.000000000000e+00
0.000000000000e+00
0.000000000000e+00
0.000000000000e+00
0.000000000000e+00
0.000000000000e+00
0.000000000000e+00
0.000000000000e+00
0.000000000000e+00
0.000000000000e+00
0.000000000000e+00
0.000000000000e+00
0.000000000000e+00
0.000000000000e+00
0.000000000000e+00
0.000000000000e+00
0.000000000000e+00
0.000000000000e+00
0.000000000000e+00
0.000000000000e+00
0.000000000000e+00
0.000000000000e+00
0.000000000000e+00
0.000000000000e+00
0.000000000000e+00
0.000000000000e+00
0.000000000000e+00
0.000000000000e+00
0.000000000000e+00
0.000000000000e+00
0.000000000000e+00
0.000000000000e+00
0.000000000000e+00
0.000000000000e+00
0.000000000000e+00
0.000000000000e+00
0.000000000000e+00
0.000000000000e+00
0.000000000000e+00
0.000000000000e+00
0.000000000000e+00
0.000000000000e+00
0.000000000000e+00
0.000000000000e+00
0.000000000000e+00
0.000000000000e+00
0.000000000000e+00
0.000000000000e+00
0.000000000000e+00
0.000000000000e+00
0.000000000000e+00
0.000000000000e+00
0.000000000000e+00
0.000000000000e+00
0.000000000000e+00
0.000000000000e+00
0.000000000000e+00
0.000000000000e+00
0.000000000000e+00
0.000000000000e+00
0.000000000000e+00
0.000000000000e+00
0.000000000000e+00
0.000000000000e+00
0.000000000000e+00
0.000000000000e+00
SCALARS active_contact float 1
LOOKUP_TABLE default
0.000000000000e+00
0.000000000000e+00
0.000000000000e+00
0.000000000000e+00
0.000000000000e+00
0.000000000000e+00
0.000000000000e+00
0.000000000000e+00
0.000000000000e+00
0.000000000000e+00
0.000000000000e+00
0.000000000000e+00
0.000000000000e+00
0.000000000000e+00
0.000000000000e+00
0.000000000000e+00
0.000000000000e+00
0.000000000000e+00
0.000000000000e+00
0.000000000000e+00
0.000000000000e+00
0.000000000000e+00
0.000000000000e+00
0.000000000000e+00
0.000000000000e+00
0.000000000000e+00
0.000000000000e+00
0.000000000000e+00
0.000000000000e+00
0.000000000000e+00
0.000000000000e+00
0.000000000000e+00
0.000000000000e+00
0.000000000000e+00
0.000000000000e+00
0.000000000000e+00
0.000000000000e+00
0.000000000000e+00
0.000000000000e+00
0.000000000000e+00
0.000000000000e+00
0.000000000000e+00
0.000000000000e+00
0.000000000000e+00
0.000000000000e+00
0.000000000000e+00
0.000000000000e+00
0.000000000000e+00
0.000000000000e+00
0.000000000000e+00
0.000000000000e+00
0.000000000000e+00
0.000000000000e+00
0.000000000000e+00
0.000000000000e+00
0.000000000000e+00
0.000000000000e+00
0.000000000000e+00
0.000000000000e+00
0.000000000000e+00
0.000000000000e+00
0.000000000000e+00
0.000000000000e+00
0.000000000000e+00
0.000000000000e+00
0.000000000000e+00
0.000000000000e+00
0.000000000000e+00
0.000000000000e+00
0.000000000000e+00
0.000000000000e+00
0.000000000000e+00
0.000000000000e+00
0.000000000000e+00
0.000000000000e+00
0.000000000000e+00
0.000000000000e+00
0.000000000000e+00
0.000000000000e+00
0.000000000000e+00
0.000000000000e+00
0.000000000000e+00
0.000000000000e+00
0.000000000000e+00
0.000000000000e+00
0.000000000000e+00
0.000000000000e+00
0.000000000000e+00
0.000000000000e+00
0.000000000000e+00
0.000000000000e+00
0.000000000000e+00
0.000000000000e+00
0.000000000000e+00
0.000000000000e+00
0.000000000000e+00
0.000000000000e+00
0.000000000000e+00
0.000000000000e+00
0.000000000000e+00
0.000000000000e+00
0.000000000000e+00
0.000000000000e+00
0.000000000000e+00
0.000000000000e+00
0.000000000000e+00
0.000000000000e+00
0.000000000000e+00
0.000000000000e+00
0.000000000000e+00
0.000000000000e+00
0.000000000000e+00
0.000000000000e+00
0.000000000000e+00
0.000000000000e+00
0.000000000000e+00
0.000000000000e+00
0.000000000000e+00
0.000000000000e+00
0.000000000000e+00
0.000000000000e+00
0.000000000000e+00
0.000000000000e+00
0.000000000000e+00
0.000000000000e+00
0.000000000000e+00
0.000000000000e+00
0.000000000000e+00
