# vtk DataFile Version 3.0
SFC long-time C3D8 dynamic frame 32 t=6.400000000000e-01
ASCII
DATASET UNSTRUCTURED_GRID
POINTS 250 float
-2.500000000000e-01 -2.500000000000e-01 0.000000000000e+00
-1.250000000000e-01 -2.500000000000e-01 0.000000000000e+00
0.000000000000e+00 -2.500000000000e-01 0.000000000000e+00
1.250000000000e-01 -2.500000000000e-01 0.000000000000e+00
2.500000000000e-01 -2.500000000000e-01 0.000000000000e+00
-2.500000000000e-01 -1.250000000000e-01 0.000000000000e+00
-1.250000000000e-01 -1.250000000000e-01 0.000000000000e+00
0.000000000000e+00 -1.250000000000e-01 0.000000000000e+00
1.250000000000e-01 -1.250000000000e-01 0.000000000000e+00
2.500000000000e-01 -1.250000000000e-01 0.000000000000e+00
-2.500000000000e-01 0.000000000000e+00 0.000000000000e+00
-1.250000000000e-01 0.000000000000e+00 0.000000000000e+00
0.000000000000e+00 0.000000000000e+00 0.000000000000e+00
1.250000000000e-01 0.000000000000e+00 0.000000000000e+00
2.500000000000e-01 0.000000000000e+00 0.000000000000e+00
-2.500000000000e-01 1.250000000000e-01 0.000000000000e+00
-1.250000000000e-01 1.250000000000e-01 0.000000000000e+00
0.000000000000e+00 1.250000000000e-01 0.000000000000e+00
1.250000000000e-01 1.250000000000e-01 0.000000000000e+00
2.500000000000e-01 1.250000000000e-01 0.000000000000e+00
-2.500000000000e-01 2.500000000000e-01 0.000000000000e+00
-1.250000000000e-01 2.500000000000e-01 0.000000000000e+00
0.000000000000e+00 2.500000000000e-01 0.000000000000e+00
1.250000000000e-01 2.500000000000e-01 0.000000000000e+00
2.500000000000e-01 2.500000000000e-01 0.000000000000e+00
-2.500000000000e-01 -2.500000000000e-01 6.000000000000e-02
-1.250000000000e-01 -2.500000000000e-01 6.000000000000e-02
0.000000000000e+00 -2.500000000000e-01 6.000000000000e-02
1.250000000000e-01 -2.500000000000e-01 6.000000000000e-02
2.500000000000e-01 -2.500000000000e-01 6.000000000000e-02
-2.500000000000e-01 -1.250000000000e-01 6.000000000000e-02
-1.250000000000e-01 -1.250000000000e-01 6.000000000000e-02
0.000000000000e+00 -1.250000000000e-01 6.000000000000e-02
1.250000000000e-01 -1.250000000000e-01 6.000000000000e-02
2.500000000000e-01 -1.250000000000e-01 6.000000000000e-02
-2.500000000000e-01 0.000000000000e+00 6.000000000000e-02
-1.250000000000e-01 0.000000000000e+00 6.000000000000e-02
0.000000000000e+00 0.000000000000e+00 6.000000000000e-02
1.250000000000e-01 0.000000000000e+00 6.000000000000e-02
2.500000000000e-01 0.000000000000e+00 6.000000000000e-02
-2.500000000000e-01 1.250000000000e-01 6.000000000000e-02
-1.250000000000e-01 1.250000000000e-01 6.000000000000e-02
0.000000000000e+00 1.250000000000e-01 6.000000000000e-02
1.250000000000e-01 1.250000000000e-01 6.000000000000e-02
2.500000000000e-01 1.250000000000e-01 6.000000000000e-02
-2.500000000000e-01 2.500000000000e-01 6.000000000000e-02
-1.250000000000e-01 2.500000000000e-01 6.000000000000e-02
0.000000000000e+00 2.500000000000e-01 6.000000000000e-02
1.250000000000e-01 2.500000000000e-01 6.000000000000e-02
2.500000000000e-01 2.500000000000e-01 6.000000000000e-02
-2.500000000000e-01 -2.500000000000e-01 1.200000000000e-01
-1.250000000000e-01 -2.500000000000e-01 1.200000000000e-01
0.000000000000e+00 -2.500000000000e-01 1.200000000000e-01
1.250000000000e-01 -2.500000000000e-01 1.200000000000e-01
2.500000000000e-01 -2.500000000000e-01 1.200000000000e-01
-2.500000000000e-01 -1.250000000000e-01 1.200000000000e-01
-1.250000000000e-01 -1.250000000000e-01 1.200000000000e-01
0.000000000000e+00 -1.250000000000e-01 1.200000000000e-01
1.250000000000e-01 -1.250000000000e-01 1.200000000000e-01
2.500000000000e-01 -1.250000000000e-01 1.200000000000e-01
-2.500000000000e-01 0.000000000000e+00 1.200000000000e-01
-1.250000000000e-01 0.000000000000e+00 1.200000000000e-01
0.000000000000e+00 0.000000000000e+00 1.200000000000e-01
1.250000000000e-01 0.000000000000e+00 1.200000000000e-01
2.500000000000e-01 0.000000000000e+00 1.200000000000e-01
-2.500000000000e-01 1.250000000000e-01 1.200000000000e-01
-1.250000000000e-01 1.250000000000e-01 1.200000000000e-01
0.000000000000e+00 1.250000000000e-01 1.200000000000e-01
1.250000000000e-01 1.250000000000e-01 1.200000000000e-01
2.500000000000e-01 1.250000000000e-01 1.200000000000e-01
-2.500000000000e-01 2.500000000000e-01 1.200000000000e-01
-1.250000000000e-01 2.500000000000e-01 1.200000000000e-01
0.000000000000e+00 2.500000000000e-01 1.200000000000e-01
1.250000000000e-01 2.500000000000e-01 1.200000000000e-01
2.500000000000e-01 2.500000000000e-01 1.200000000000e-01
-2.500000000000e-01 -2.500000000000e-01 1.800000000000e-01
-1.250000000000e-01 -2.500000000000e-01 1.800000000000e-01
0.000000000000e+00 -2.500000000000e-01 1.800000000000e-01
1.250000000000e-01 -2.500000000000e-01 1.800000000000e-01
2.500000000000e-01 -2.500000000000e-01 1.800000000000e-01
-2.500000000000e-01 -1.250000000000e-01 1.800000000000e-01
-1.250000000000e-01 -1.250000000000e-01 1.800000000000e-01
0.000000000000e+00 -1.250000000000e-01 1.800000000000e-01
1.250000000000e-01 -1.250000000000e-01 1.800000000000e-01
2.500000000000e-01 -1.250000000000e-01 1.800000000000e-01
-2.500000000000e-01 0.000000000000e+00 1.800000000000e-01
-1.250000000000e-01 0.000000000000e+00 1.800000000000e-01
0.000000000000e+00 0.000000000000e+00 1.800000000000e-01
1.250000000000e-01 0.000000000000e+00 1.800000000000e-01
2.500000000000e-01 0.000000000000e+00 1.800000000000e-01
-2.500000000000e-01 1.250000000000e-01 1.800000000000e-01
-1.250000000000e-01 1.250000000000e-01 1.800000000000e-01
0.000000000000e+00 1.250000000000e-01 1.800000000000e-01
1.250000000000e-01 1.250000000000e-01 1.800000000000e-01
2.500000000000e-01 1.250000000000e-01 1.800000000000e-01
-2.500000000000e-01 2.500000000000e-01 1.800000000000e-01
-1.250000000000e-01 2.500000000000e-01 1.800000000000e-01
0.000000000000e+00 2.500000000000e-01 1.800000000000e-01
1.250000000000e-01 2.500000000000e-01 1.800000000000e-01
2.500000000000e-01 2.500000000000e-01 1.800000000000e-01
-2.500000000000e-01 -2.500000000000e-01 2.400000000000e-01
-1.250000000000e-01 -2.500000000000e-01 2.400000000000e-01
0.000000000000e+00 -2.500000000000e-01 2.400000000000e-01
1.250000000000e-01 -2.500000000000e-01 2.400000000000e-01
2.500000000000e-01 -2.500000000000e-01 2.400000000000e-01
-2.500000000000e-01 -1.250000000000e-01 2.400000000000e-01
-1.250000000000e-01 -1.250000000000e-01 2.400000000000e-01
0.000000000000e+00 -1.250000000000e-01 2.400000000000e-01
1.250000000000e-01 -1.250000000000e-01 2.400000000000e-01
2.500000000000e-01 -1.250000000000e-01 2.400000000000e-01
-2.500000000000e-01 0.000000000000e+00 2.400000000000e-01
-1.250000000000e-01 0.000000000000e+00 2.400000000000e-01
0.000000000000e+00 0.000000000000e+00 2.400000000000e-01
1.250000000000e-01 0.000000000000e+00 2.400000000000e-01
2.500000000000e-01 0.000000000000e+00 2.400000000000e-01
-2.500000000000e-01 1.250000000000e-01 2.400000000000e-01
-1.250000000000e-01 1.250000000000e-01 2.400000000000e-01
0.000000000000e+00 1.250000000000e-01 2.400000000000e-01
1.250000000000e-01 1.250000000000e-01 2.400000000000e-01
2.500000000000e-01 1.250000000000e-01 2.400000000000e-01
-2.500000000000e-01 2.500000000000e-01 2.400000000000e-01
-1.250000000000e-01 2.500000000000e-01 2.400000000000e-01
0.000000000000e+00 2.500000000000e-01 2.400000000000e-01
1.250000000000e-01 2.500000000000e-01 2.400000000000e-01
2.500000000000e-01 2.500000000000e-01 2.400000000000e-01
-2.500020389800e-01 -2.500020389800e-01 2.399468779657e-01
-1.250010626632e-01 -2.500020416289e-01 2.399462548047e-01
6.445995098091e-15 -2.500020368253e-01 2.399460412461e-01
1.250010626632e-01 -2.500020416289e-01 2.399462548047e-01
2.500020389800e-01 -2.500020389800e-01 2.399468779657e-01
-2.500020416289e-01 -1.250010626632e-01 2.399462548047e-01
-1.250010642727e-01 -1.250010642727e-01 2.399456295939e-01
5.928495358742e-15 -1.250010653000e-01 2.399454152206e-01
1.250010642727e-01 -1.250010642727e-01 2.399456295939e-01
2.500020416289e-01 -1.250010626632e-01 2.399462548047e-01
-2.500020368252e-01 -9.569652111555e-15 2.399460412461e-01
-1.250010653000e-01 -9.048498170452e-15 2.399454152206e-01
5.396849373971e-15 -8.541804516533e-15 2.399452002463e-01
1.250010653000e-01 -8.033728500588e-15 2.399454152206e-01
2.500020368253e-01 -7.513645656229e-15 2.399460412461e-01
-2.500020416289e-01 1.250010626632e-01 2.399462548047e-01
-1.250010642727e-01 1.250010642727e-01 2.399456295939e-01
4.861144718346e-15 1.250010653000e-01 2.399454152206e-01
1.250010642727e-01 1.250010642727e-01 2.399456295939e-01
2.500020416289e-01 1.250010626632e-01 2.399462548047e-01
-2.500020389800e-01 2.500020389800e-01 2.399468779657e-01
-1.250010626632e-01 2.500020416289e-01 2.399462548047e-01
4.333103563828e-15 2.500020368252e-01 2.399460412461e-01
1.250010626632e-01 2.500020416289e-01 2.399462548047e-01
2.500020389800e-01 2.500020389800e-01 2.399468779657e-01
-2.500016365857e-01 -2.500016365857e-01 3.049453495842e-01
-1.250008329759e-01 -2.500016416692e-01 3.049446960707e-01
6.544819437828e-15 -2.500016395428e-01 3.049444750356e-01
1.250008329759e-01 -2.500016416692e-01 3.049446960707e-01
2.500016365857e-01 -2.500016365857e-01 3.049453495842e-01
-2.500016416691e-01 -1.250008329759e-01 3.049446960707e-01
-1.250008334238e-01 -1.250008334238e-01 3.049440394718e-01
6.029594917561e-15 -1.250008338695e-01 3.049438172748e-01
1.250008334238e-01 -1.250008334238e-01 3.049440394718e-01
2.500016416692e-01 -1.250008329759e-01 3.049446960707e-01
-2.500016395427e-01 -9.579600412042e-15 3.049444750356e-01
-1.250008338695e-01 -9.056196519712e-15 3.049438172748e-01
5.503852810032e-15 -8.540573997183e-15 3.049435937383e-01
1.250008338695e-01 -8.024548477348e-15 3.049438172748e-01
2.500016395428e-01 -7.502461054364e-15 3.049444750356e-01
-2.500016416691e-01 1.250008329759e-01 3.049446960707e-01
-1.250008334238e-01 1.250008334238e-01 3.049440394718e-01
4.976655034494e-15 1.250008338695e-01 3.049438172748e-01
1.250008334238e-01 1.250008334238e-01 3.049440394718e-01
2.500016416692e-01 1.250008329759e-01 3.049446960707e-01
-2.500016365857e-01 2.500016365857e-01 3.049453495842e-01
-1.250008329759e-01 2.500016416691e-01 3.049446960707e-01
4.449324422676e-15 2.500016395427e-01 3.049444750356e-01
1.250008329759e-01 2.500016416691e-01 3.049446960707e-01
2.500016365857e-01 2.500016365857e-01 3.049453495842e-01
-2.500011535200e-01 -2.500011535200e-01 3.699442105772e-01
-1.250005929164e-01 -2.500011533378e-01 3.699435340564e-01
6.660673165145e-15 -2.500011498980e-01 3.699433125208e-01
1.250005929164e-01 -2.500011533378e-01 3.699435340564e-01
2.500011535200e-01 -2.500011535200e-01 3.699442105772e-01
-2.500011533378e-01 -1.250005929164e-01 3.699435340564e-01
-1.250005930935e-01 -1.250005930935e-01 3.699428533971e-01
6.142276082869e-15 -1.250005925380e-01 3.699426309426e-01
1.250005930935e-01 -1.250005930935e-01 3.699428533971e-01
2.500011533378e-01 -1.250005929164e-01 3.699435340564e-01
-2.500011498980e-01 -9.583105184014e-15 3.699433125208e-01
-1.250005925380e-01 -9.056575194226e-15 3.699426309426e-01
5.620505036875e-15 -8.536708665437e-15 3.699424073825e-01
1.250005925380e-01 -8.014293248632e-15 3.699426309426e-01
2.500011498980e-01 -7.494013173305e-15 3.699433125208e-01
-2.500011533378e-01 1.250005929164e-01 3.699435340564e-01
-1.250005930935e-01 1.250005930935e-01 3.699428533971e-01
5.098121873872e-15 1.250005925380e-01 3.699426309426e-01
1.250005930935e-01 1.250005930935e-01 3.699428533971e-01
2.500011533378e-01 1.250005929164e-01 3.699435340564e-01
-2.500011535200e-01 2.500011535200e-01 3.699442105772e-01
-1.250005929164e-01 2.500011533378e-01 3.699435340564e-01
4.571485335597e-15 2.500011498980e-01 3.699433125208e-01
1.250005929164e-01 2.500011533378e-01 3.699435340564e-01
2.500011535200e-01 2.500011535200e-01 3.699442105772e-01
-2.500006534770e-01 -2.500006534770e-01 4.349434920300e-01
-1.250003487241e-01 -2.500006471951e-01 4.349428113318e-01
6.778883336844e-15 -2.500006424171e-01 4.349425804716e-01
1.250003487241e-01 -2.500006471951e-01 4.349428113318e-01
2.500006534770e-01 -2.500006534770e-01 4.349434920300e-01
-2.500006471951e-01 -1.250003487241e-01 4.349428113318e-01
-1.250003487551e-01 -1.250003487551e-01 4.349421270282e-01
6.260611954760e-15 -1.250003472344e-01 4.349418947354e-01
1.250003487551e-01 -1.250003487551e-01 4.349421270282e-01
2.500006471951e-01 -1.250003487241e-01 4.349428113318e-01
-2.500006424171e-01 -9.579760428280e-15 4.349425804716e-01
-1.250003472343e-01 -9.058128353233e-15 4.349418947354e-01
5.742995696336e-15 -8.533200029387e-15 4.349416605023e-01
1.250003472343e-01 -8.006277043903e-15 4.349418947354e-01
2.500006424171e-01 -7.482345404377e-15 4.349425804716e-01
-2.500006471951e-01 1.250003487241e-01 4.349428113318e-01
-1.250003487551e-01 1.250003487551e-01 4.349421270282e-01
5.226322340210e-15 1.250003472343e-01 4.349418947354e-01
1.250003487551e-01 1.250003487551e-01 4.349421270282e-01
2.500006471951e-01 1.250003487241e-01 4.349428113318e-01
-2.500006534770e-01 2.500006534770e-01 4.349434920300e-01
-1.250003487241e-01 2.500006471951e-01 4.349428113318e-01
4.700472713328e-15 2.500006424170e-01 4.349425804716e-01
1.250003487241e-01 2.500006471951e-01 4.349428113318e-01
2.500006534770e-01 2.500006534770e-01 4.349434920300e-01
-2.500002199203e-01 -2.500002199203e-01 4.999432147381e-01
-1.250001043904e-01 -2.500002154204e-01 4.999425381585e-01
6.886648337531e-15 -2.500002135317e-01 4.999423006713e-01
1.250001043904e-01 -2.500002154204e-01 4.999425381585e-01
2.500002199203e-01 -2.500002199203e-01 4.999432147380e-01
-2.500002154203e-01 -1.250001043904e-01 4.999425381585e-01
-1.250001030853e-01 -1.250001030853e-01 4.999418583627e-01
6.374077642828e-15 -1.250001006726e-01 4.999416190168e-01
1.250001030853e-01 -1.250001030853e-01 4.999418583627e-01
2.500002154204e-01 -1.250001043904e-01 4.999425381585e-01
-2.500002135316e-01 -9.586656870835e-15 4.999423006713e-01
-1.250001006726e-01 -9.062795079919e-15 4.999416190168e-01
5.866776600111e-15 -8.525077193987e-15 4.999413774507e-01
1.250001006726e-01 -7.996935611289e-15 4.999416190168e-01
2.500002135316e-01 -7.471270336108e-15 4.999423006713e-01
-2.500002154203e-01 1.250001043904e-01 4.999425381585e-01
-1.250001030853e-01 1.250001030853e-01 4.999418583627e-01
5.353532560365e-15 1.250001006726e-01 4.999416190168e-01
1.250001030853e-01 1.250001030853e-01 4.999418583627e-01
2.500002154204e-01 1.250001043904e-01 4.999425381585e-01
-2.500002199203e-01 2.500002199203e-01 4.999432147381e-01
-1.250001043904e-01 2.500002154203e-01 4.999425381585e-01
4.827705101929e-15 2.500002135316e-01 4.999423006713e-01
1.250001043904e-01 2.500002154203e-01 4.999425381585e-01
2.500002199203e-01 2.500002199203e-01 4.999432147380e-01
CELLS 128 1152
8 0 1 6 5 25 26 31 30
8 1 2 7 6 26 27 32 31
8 2 3 8 7 27 28 33 32
8 3 4 9 8 28 29 34 33
8 5 6 11 10 30 31 36 35
8 6 7 12 11 31 32 37 36
8 7 8 13 12 32 33 38 37
8 8 9 14 13 33 34 39 38
8 10 11 16 15 35 36 41 40
8 11 12 17 16 36 37 42 41
8 12 13 18 17 37 38 43 42
8 13 14 19 18 38 39 44 43
8 15 16 21 20 40 41 46 45
8 16 17 22 21 41 42 47 46
8 17 18 23 22 42 43 48 47
8 18 19 24 23 43 44 49 48
8 25 26 31 30 50 51 56 55
8 26 27 32 31 51 52 57 56
8 27 28 33 32 52 53 58 57
8 28 29 34 33 53 54 59 58
8 30 31 36 35 55 56 61 60
8 31 32 37 36 56 57 62 61
8 32 33 38 37 57 58 63 62
8 33 34 39 38 58 59 64 63
8 35 36 41 40 60 61 66 65
8 36 37 42 41 61 62 67 66
8 37 38 43 42 62 63 68 67
8 38 39 44 43 63 64 69 68
8 40 41 46 45 65 66 71 70
8 41 42 47 46 66 67 72 71
8 42 43 48 47 67 68 73 72
8 43 44 49 48 68 69 74 73
8 50 51 56 55 75 76 81 80
8 51 52 57 56 76 77 82 81
8 52 53 58 57 77 78 83 82
8 53 54 59 58 78 79 84 83
8 55 56 61 60 80 81 86 85
8 56 57 62 61 81 82 87 86
8 57 58 63 62 82 83 88 87
8 58 59 64 63 83 84 89 88
8 60 61 66 65 85 86 91 90
8 61 62 67 66 86 87 92 91
8 62 63 68 67 87 88 93 92
8 63 64 69 68 88 89 94 93
8 65 66 71 70 90 91 96 95
8 66 67 72 71 91 92 97 96
8 67 68 73 72 92 93 98 97
8 68 69 74 73 93 94 99 98
8 75 76 81 80 100 101 106 105
8 76 77 82 81 101 102 107 106
8 77 78 83 82 102 103 108 107
8 78 79 84 83 103 104 109 108
8 80 81 86 85 105 106 111 110
8 81 82 87 86 106 107 112 111
8 82 83 88 87 107 108 113 112
8 83 84 89 88 108 109 114 113
8 85 86 91 90 110 111 116 115
8 86 87 92 91 111 112 117 116
8 87 88 93 92 112 113 118 117
8 88 89 94 93 113 114 119 118
8 90 91 96 95 115 116 121 120
8 91 92 97 96 116 117 122 121
8 92 93 98 97 117 118 123 122
8 93 94 99 98 118 119 124 123
8 125 126 131 130 150 151 156 155
8 126 127 132 131 151 152 157 156
8 127 128 133 132 152 153 158 157
8 128 129 134 133 153 154 159 158
8 130 131 136 135 155 156 161 160
8 131 132 137 136 156 157 162 161
8 132 133 138 137 157 158 163 162
8 133 134 139 138 158 159 164 163
8 135 136 141 140 160 161 166 165
8 136 137 142 141 161 162 167 166
8 137 138 143 142 162 163 168 167
8 138 139 144 143 163 164 169 168
8 140 141 146 145 165 166 171 170
8 141 142 147 146 166 167 172 171
8 142 143 148 147 167 168 173 172
8 143 144 149 148 168 169 174 173
8 150 151 156 155 175 176 181 180
8 151 152 157 156 176 177 182 181
8 152 153 158 157 177 178 183 182
8 153 154 159 158 178 179 184 183
8 155 156 161 160 180 181 186 185
8 156 157 162 161 181 182 187 186
8 157 158 163 162 182 183 188 187
8 158 159 164 163 183 184 189 188
8 160 161 166 165 185 186 191 190
8 161 162 167 166 186 187 192 191
8 162 163 168 167 187 188 193 192
8 163 164 169 168 188 189 194 193
8 165 166 171 170 190 191 196 195
8 166 167 172 171 191 192 197 196
8 167 168 173 172 192 193 198 197
8 168 169 174 173 193 194 199 198
8 175 176 181 180 200 201 206 205
8 176 177 182 181 201 202 207 206
8 177 178 183 182 202 203 208 207
8 178 179 184 183 203 204 209 208
8 180 181 186 185 205 206 211 210
8 181 182 187 186 206 207 212 211
8 182 183 188 187 207 208 213 212
8 183 184 189 188 208 209 214 213
8 185 186 191 190 210 211 216 215
8 186 187 192 191 211 212 217 216
8 187 188 193 192 212 213 218 217
8 188 189 194 193 213 214 219 218
8 190 191 196 195 215 216 221 220
8 191 192 197 196 216 217 222 221
8 192 193 198 197 217 218 223 222
8 193 194 199 198 218 219 224 223
8 200 201 206 205 225 226 231 230
8 201 202 207 206 226 227 232 231
8 202 203 208 207 227 228 233 232
8 203 204 209 208 228 229 234 233
8 205 206 211 210 230 231 236 235
8 206 207 212 211 231 232 237 236
8 207 208 213 212 232 233 238 237
8 208 209 214 213 233 234 239 238
8 210 211 216 215 235 236 241 240
8 211 212 217 216 236 237 242 241
8 212 213 218 217 237 238 243 242
8 213 214 219 218 238 239 244 243
8 215 216 221 220 240 241 246 245
8 216 217 222 221 241 242 247 246
8 217 218 223 222 242 243 248 247
8 218 219 224 223 243 244 249 248
CELL_TYPES 128
12
12
12
12
12
12
12
12
12
12
12
12
12
12
12
12
12
12
12
12
12
12
12
12
12
12
12
12
12
12
12
12
12
12
12
12
12
12
12
12
12
12
12
12
12
12
12
12
12
12
12
12
12
12
12
12
12
12
12
12
12
12
12
12
12
12
12
12
12
12
12
12
12
12
12
12
12
12
12
12
12
12
12
12
12
12
12
12
12
12
12
12
12
12
12
12
12
12
12
12
12
12
12
12
12
12
12
12
12
12
12
12
12
12
12
12
12
12
12
12
12
12
12
12
12
12
12
12
POINT_DATA 250
VECTORS displacement float
0.000000000000e+00 0.000000000000e+00 0.000000000000e+00
0.000000000000e+00 0.000000000000e+00 0.000000000000e+00
0.000000000000e+00 0.000000000000e+00 0.000000000000e+00
0.000000000000e+00 0.000000000000e+00 0.000000000000e+00
0.000000000000e+00 0.000000000000e+00 0.000000000000e+00
0.000000000000e+00 0.000000000000e+00 0.000000000000e+00
0.000000000000e+00 0.000000000000e+00 0.000000000000e+00
0.000000000000e+00 0.000000000000e+00 0.000000000000e+00
0.000000000000e+00 0.000000000000e+00 0.000000000000e+00
0.000000000000e+00 0.000000000000e+00 0.000000000000e+00
0.000000000000e+00 0.000000000000e+00 0.000000000000e+00
0.000000000000e+00 0.000000000000e+00 0.000000000000e+00
0.000000000000e+00 0.000000000000e+00 0.000000000000e+00
0.000000000000e+00 0.000000000000e+00 0.000000000000e+00
0.000000000000e+00 0.000000000000e+00 0.000000000000e+00
0.000000000000e+00 0.000000000000e+00 0.000000000000e+00
0.000000000000e+00 0.000000000000e+00 0.000000000000e+00
0.000000000000e+00 0.000000000000e+00 0.000000000000e+00
0.000000000000e+00 0.000000000000e+00 0.000000000000e+00
0.000000000000e+00 0.000000000000e+00 0.000000000000e+00
0.000000000000e+00 0.000000000000e+00 0.000000000000e+00
0.000000000000e+00 0.000000000000e+00 0.000000000000e+00
0.000000000000e+00 0.000000000000e+00 0.000000000000e+00
0.000000000000e+00 0.000000000000e+00 0.000000000000e+00
0.000000000000e+00 0.000000000000e+00 0.000000000000e+00
0.000000000000e+00 0.000000000000e+00 0.000000000000e+00
0.000000000000e+00 0.000000000000e+00 0.000000000000e+00
0.000000000000e+00 0.000000000000e+00 0.000000000000e+00
0.000000000000e+00 0.000000000000e+00 0.000000000000e+00
0.000000000000e+00 0.000000000000e+00 0.000000000000e+00
0.000000000000e+00 0.000000000000e+00 0.000000000000e+00
0.000000000000e+00 0.000000000000e+00 0.000000000000e+00
0.000000000000e+00 0.000000000000e+00 0.000000000000e+00
0.000000000000e+00 0.000000000000e+00 0.000000000000e+00
0.000000000000e+00 0.000000000000e+00 0.000000000000e+00
0.000000000000e+00 0.000000000000e+00 0.000000000000e+00
0.000000000000e+00 0.000000000000e+00 0.000000000000e+00
0.000000000000e+00 0.000000000000e+00 0.000000000000e+00
0.000000000000e+00 0.000000000000e+00 0.000000000000e+00
0.000000000000e+00 0.000000000000e+00 0.000000000000e+00
0.000000000000e+00 0.000000000000e+00 0.000000000000e+00
0.000000000000e+00 0.000000000000e+00 0.000000000000e+00
0.000000000000e+00 0.000000000000e+00 0.000000000000e+00
0.000000000000e+00 0.000000000000e+00 0.000000000000e+00
0.000000000000e+00 0.000000000000e+00 0.000000000000e+00
0.000000000000e+00 0.000000000000e+00 0.000000000000e+00
0.000000000000e+00 0.000000000000e+00 0.000000000000e+00
0.000000000000e+00 0.000000000000e+00 0.000000000000e+00
0.000000000000e+00 0.000000000000e+00 0.000000000000e+00
0.000000000000e+00 0.000000000000e+00 0.000000000000e+00
0.000000000000e+00 0.000000000000e+00 0.000000000000e+00
0.000000000000e+00 0.000000000000e+00 0.000000000000e+00
0.000000000000e+00 0.000000000000e+00 0.000000000000e+00
0.000000000000e+00 0.000000000000e+00 0.000000000000e+00
0.000000000000e+00 0.000000000000e+00 0.000000000000e+00
0.000000000000e+00 0.000000000000e+00 0.000000000000e+00
0.000000000000e+00 0.000000000000e+00 0.000000000000e+00
0.000000000000e+00 0.000000000000e+00 0.000000000000e+00
0.000000000000e+00 0.000000000000e+00 0.000000000000e+00
0.000000000000e+00 0.000000000000e+00 0.000000000000e+00
0.000000000000e+00 0.000000000000e+00 0.000000000000e+00
0.000000000000e+00 0.000000000000e+00 0.000000000000e+00
0.000000000000e+00 0.000000000000e+00 0.000000000000e+00
0.000000000000e+00 0.000000000000e+00 0.000000000000e+00
0.000000000000e+00 0.000000000000e+00 0.000000000000e+00
0.000000000000e+00 0.000000000000e+00 0.000000000000e+00
0.000000000000e+00 0.000000000000e+00 0.000000000000e+00
0.000000000000e+00 0.000000000000e+00 0.000000000000e+00
0.000000000000e+00 0.000000000000e+00 0.000000000000e+00
0.000000000000e+00 0.000000000000e+00 0.000000000000e+00
0.000000000000e+00 0.000000000000e+00 0.000000000000e+00
0.000000000000e+00 0.000000000000e+00 0.000000000000e+00
0.000000000000e+00 0.000000000000e+00 0.000000000000e+00
0.000000000000e+00 0.000000000000e+00 0.000000000000e+00
0.000000000000e+00 0.000000000000e+00 0.000000000000e+00
0.000000000000e+00 0.000000000000e+00 0.000000000000e+00
0.000000000000e+00 0.000000000000e+00 0.000000000000e+00
0.000000000000e+00 0.000000000000e+00 0.000000000000e+00
0.000000000000e+00 0.000000000000e+00 0.000000000000e+00
0.000000000000e+00 0.000000000000e+00 0.000000000000e+00
0.000000000000e+00 0.000000000000e+00 0.000000000000e+00
0.000000000000e+00 0.000000000000e+00 0.000000000000e+00
0.000000000000e+00 0.000000000000e+00 0.000000000000e+00
0.000000000000e+00 0.000000000000e+00 0.000000000000e+00
0.000000000000e+00 0.000000000000e+00 0.000000000000e+00
0.000000000000e+00 0.000000000000e+00 0.000000000000e+00
0.000000000000e+00 0.000000000000e+00 0.000000000000e+00
0.000000000000e+00 0.000000000000e+00 0.000000000000e+00
0.000000000000e+00 0.000000000000e+00 0.000000000000e+00
0.000000000000e+00 0.000000000000e+00 0.000000000000e+00
0.000000000000e+00 0.000000000000e+00 0.000000000000e+00
0.000000000000e+00 0.000000000000e+00 0.000000000000e+00
0.000000000000e+00 0.000000000000e+00 0.000000000000e+00
0.000000000000e+00 0.000000000000e+00 0.000000000000e+00
0.000000000000e+00 0.000000000000e+00 0.000000000000e+00
0.000000000000e+00 0.000000000000e+00 0.000000000000e+00
0.000000000000e+00 0.000000000000e+00 0.000000000000e+00
0.000000000000e+00 0.000000000000e+00 0.000000000000e+00
0.000000000000e+00 0.000000000000e+00 0.000000000000e+00
0.000000000000e+00 0.000000000000e+00 0.000000000000e+00
0.000000000000e+00 0.000000000000e+00 0.000000000000e+00
0.000000000000e+00 0.000000000000e+00 0.000000000000e+00
0.000000000000e+00 0.000000000000e+00 0.000000000000e+00
0.000000000000e+00 0.000000000000e+00 0.000000000000e+00
0.000000000000e+00 0.000000000000e+00 0.000000000000e+00
0.000000000000e+00 0.000000000000e+00 0.000000000000e+00
0.000000000000e+00 0.000000000000e+00 0.000000000000e+00
0.000000000000e+00 0.000000000000e+00 0.000000000000e+00
0.000000000000e+00 0.000000000000e+00 0.000000000000e+00
0.000000000000e+00 0.000000000000e+00 0.000000000000e+00
0.000000000000e+00 0.000000000000e+00 0.000000000000e+00
0.000000000000e+00 0.000000000000e+00 0.000000000000e+00
0.000000000000e+00 0.000000000000e+00 0.000000000000e+00
0.000000000000e+00 0.000000000000e+00 0.000000000000e+00
0.000000000000e+00 0.000000000000e+00 0.000000000000e+00
0.000000000000e+00 0.000000000000e+00 0.000000000000e+00
0.000000000000e+00 0.000000000000e+00 0.000000000000e+00
0.000000000000e+00 0.000000000000e+00 0.000000000000e+00
0.000000000000e+00 0.000000000000e+00 0.000000000000e+00
0.000000000000e+00 0.000000000000e+00 0.000000000000e+00
0.000000000000e+00 0.000000000000e+00 0.000000000000e+00
0.000000000000e+00 0.000000000000e+00 0.000000000000e+00
0.000000000000e+00 0.000000000000e+00 0.000000000000e+00
0.000000000000e+00 0.000000000000e+00 0.000000000000e+00
0.000000000000e+00 0.000000000000e+00 0.000000000000e+00
-2.038980008756e-06 -2.038980024750e-06 -1.505312203434e-02
-1.062663225731e-06 -2.041628921276e-06 -1.505374519534e-02
6.445995098091e-15 -2.036825263001e-06 -1.505395875388e-02
1.062663238621e-06 -2.041628920272e-06 -1.505374519534e-02
2.038980021657e-06 -2.038980022741e-06 -1.505312203434e-02
-2.041628906314e-06 -1.062663241731e-06 -1.505374519534e-02
-1.064272718286e-06 -1.064272733254e-06 -1.505437040610e-02
5.928495358742e-15 -1.065299981283e-06 -1.505458477943e-02
1.064272730139e-06 -1.064272732246e-06 -1.505437040610e-02
2.041628918168e-06 -1.062663239699e-06 -1.505374519534e-02
-2.036825249072e-06 -9.569652111555e-15 -1.505395875388e-02
-1.065299967351e-06 -9.048498170452e-15 -1.505458477943e-02
5.396849373971e-15 -8.541804516533e-15 -1.505479975368e-02
1.065299978141e-06 -8.033728500588e-15 -1.505458477943e-02
2.036825259869e-06 -7.513645656229e-15 -1.505395875388e-02
-2.041628907376e-06 1.062663222586e-06 -1.505374519534e-02
-1.064272719352e-06 1.064272715152e-06 -1.505437040610e-02
4.861144718346e-15 1.065299964200e-06 -1.505458477943e-02
1.064272729077e-06 1.064272716190e-06 -1.505437040610e-02
2.041628917107e-06 1.062663224668e-06 -1.505374519534e-02
-2.038980010864e-06 2.038980005593e-06 -1.505312203434e-02
-1.062663227845e-06 2.041628903172e-06 -1.505374519534e-02
4.333103563828e-15 2.036825245929e-06 -1.505395875388e-02
1.062663236515e-06 2.041628904226e-06 -1.505374519534e-02
2.038980019550e-06 2.038980007718e-06 -1.505312203434e-02
-1.636585654583e-06 -1.636585670684e-06 -1.505465041575e-02
-8.329759230078e-07 -1.641669158144e-06 -1.505530392926e-02
6.544819437828e-15 -1.639542755051e-06 -1.505552496435e-02
8.329759361058e-07 -1.641669157135e-06 -1.505530392926e-02
1.636585667687e-06 -1.636585668654e-06 -1.505465041575e-02
-1.641669143067e-06 -8.329759391196e-07 -1.505530392926e-02
-8.334238296401e-07 -8.334238447179e-07 -1.505596052820e-02
6.029594917561e-15 -8.338694884428e-07 -1.505618272518e-02
8.334238417036e-07 -8.334238436981e-07 -1.505596052820e-02
1.641669155145e-06 -8.329759370685e-07 -1.505530392926e-02
-1.639542741010e-06 -9.579600412042e-15 -1.505552496435e-02
-8.338694744012e-07 -9.056196519712e-15 -1.505618272518e-02
5.503852810032e-15 -8.540573997183e-15 -1.505640626165e-02
8.338694854141e-07 -8.024548477348e-15 -1.505618272518e-02
1.639542752036e-06 -7.502461054364e-15 -1.505552496435e-02
-1.641669144126e-06 8.329759199669e-07 -1.505530392926e-02
-8.334238306941e-07 8.334238266052e-07 -1.505596052820e-02
4.976655034494e-15 8.338694713641e-07 -1.505618272518e-02
8.334238406523e-07 8.334238276515e-07 -1.505596052820e-02
1.641669154092e-06 8.329759220592e-07 -1.505530392926e-02
-1.636585656683e-06 1.636585651534e-06 -1.505465041575e-02
-8.329759251109e-07 1.641669140037e-06 -1.505530392926e-02
4.449324422676e-15 1.639542737979e-06 -1.505552496435e-02
8.329759340122e-07 1.641669141096e-06 -1.505530392926e-02
1.636585665601e-06 1.636585653641e-06 -1.505465041575e-02
-1.153520024806e-06 -1.153520041034e-06 -1.505578942282e-02
-5.929163835235e-07 -1.153337774233e-06 -1.505646594360e-02
6.660673165145e-15 -1.149898026898e-06 -1.505668747924e-02
5.929163968497e-07 -1.153337773210e-06 -1.505646594360e-02
1.153520038144e-06 -1.153520038978e-06 -1.505578942282e-02
-1.153337759034e-06 -5.929163997551e-07 -1.505646594360e-02
-5.930934595179e-07 -5.930934747126e-07 -1.505714660290e-02
6.142276082869e-15 -5.925380073182e-07 -1.505736905740e-02
5.930934718109e-07 -5.930934736822e-07 -1.505714660290e-02
1.153337771340e-06 -5.929163976880e-07 -1.505646594360e-02
-1.149898012731e-06 -9.583105184014e-15 -1.505668747924e-02
-5.925379931598e-07 -9.056575194226e-15 -1.505736905740e-02
5.620505036875e-15 -8.536708665437e-15 -1.505759261746e-02
5.925380044094e-07 -8.014293248632e-15 -1.505736905740e-02
1.149898023997e-06 -7.494013173305e-15 -1.505668747925e-02
-1.153337760082e-06 5.929163805972e-07 -1.505646594360e-02
-5.930934605643e-07 5.930934566001e-07 -1.505714660290e-02
5.098121873872e-15 5.925379902478e-07 -1.505736905740e-02
5.930934707687e-07 5.930934576529e-07 -1.505714660290e-02
1.153337770297e-06 5.929163826978e-07 -1.505646594360e-02
-1.153520026900e-06 1.153520021879e-06 -1.505578942282e-02
-5.929163856148e-07 1.153337756121e-06 -1.505646594360e-02
4.571485335597e-15 1.149898009826e-06 -1.505668747924e-02
5.929163947648e-07 1.153337757181e-06 -1.505646594360e-02
1.153520036064e-06 1.153520023990e-06 -1.505578942282e-02
-6.534769887789e-07 -6.534770051335e-07 -1.505650797001e-02
-3.487241184725e-07 -6.471951256101e-07 -1.505718866815e-02
6.778883336844e-15 -6.424170648961e-07 -1.505741952840e-02
3.487241320356e-07 -6.471951245690e-07 -1.505718866815e-02
6.534770023494e-07 -6.534770030525e-07 -1.505650797001e-02
-6.471951102855e-07 -3.487241348300e-07 -1.505718866815e-02
-3.487550798767e-07 -3.487550951955e-07 -1.505787297175e-02
6.260611954760e-15 -3.472343504779e-07 -1.505810526456e-02
3.487550924059e-07 -3.487550941508e-07 -1.505787297176e-02
6.471951228245e-07 -3.487241327417e-07 -1.505718866815e-02
-6.424170506144e-07 -9.579760428280e-15 -1.505741952839e-02
-3.472343361968e-07 -9.058128353233e-15 -1.505810526456e-02
5.742995696336e-15 -8.533200029387e-15 -1.505833949771e-02
3.472343476937e-07 -8.006277043903e-15 -1.505810526456e-02
6.424170621205e-07 -7.482345404377e-15 -1.505741952840e-02
-6.471951113289e-07 3.487241156691e-07 -1.505718866815e-02
-3.487550809154e-07 3.487550770803e-07 -1.505787297175e-02
5.226322340210e-15 3.472343334167e-07 -1.505810526456e-02
3.487550913721e-07 3.487550781402e-07 -1.505787297176e-02
6.471951217907e-07 3.487241177756e-07 -1.505718866815e-02
-6.534769908615e-07 6.534769859759e-07 -1.505650797001e-02
-3.487241205508e-07 6.471951074970e-07 -1.505718866815e-02
4.700472713328e-15 6.424170478372e-07 -1.505741952840e-02
3.487241299585e-07 6.471951085581e-07 -1.505718866815e-02
6.534770002781e-07 6.534769880874e-07 -1.505650797001e-02
-2.199203324971e-07 -2.199203489847e-07 -1.505678526195e-02
-1.043904134491e-07 -2.154203629443e-07 -1.505746184149e-02
6.886648337531e-15 -2.135316513594e-07 -1.505769932869e-02
1.043904272297e-07 -2.154203618811e-07 -1.505746184149e-02
2.199203462935e-07 -2.199203468708e-07 -1.505678526195e-02
-2.154203474962e-07 -1.043904299255e-07 -1.505746184149e-02
-1.030853131710e-07 -1.030853286124e-07 -1.505814163732e-02
6.374077642828e-15 -1.006725927860e-07 -1.505838098319e-02
1.030853259289e-07 -1.030853275491e-07 -1.505814163732e-02
2.154203602617e-07 -1.043904278136e-07 -1.505746184149e-02
-2.135316369548e-07 -9.586656870835e-15 -1.505769932869e-02
-1.006725783867e-07 -9.062795079919e-15 -1.505838098319e-02
5.866776600111e-15 -8.525077193987e-15 -1.505862254929e-02
1.006725901214e-07 -7.996935611289e-15 -1.505838098319e-02
2.135316486951e-07 -7.471270336108e-15 -1.505769932869e-02
-2.154203485305e-07 1.043904107576e-07 -1.505746184149e-02
-1.030853141980e-07 1.030853104944e-07 -1.505814163732e-02
5.353532560365e-15 1.006725757263e-07 -1.505838098319e-02
1.030853249024e-07 1.030853115583e-07 -1.505814163732e-02
2.154203592322e-07 1.043904128724e-07 -1.505746184149e-02
-2.199203345696e-07 2.199203298236e-07 -1.505678526195e-02
-1.043904155143e-07 2.154203448352e-07 -1.505746184149e-02
4.827705101929e-15 2.135316343042e-07 -1.505769932869e-02
1.043904251730e-07 2.154203458922e-07 -1.505746184149e-02
2.199203442317e-07 2.199203319366e-07 -1.505678526195e-02
SCALARS displacement_magnitude float 1
LOOKUP_TABLE default
0.000000000000e+00
0.000000000000e+00
0.000000000000e+00
0.000000000000e+00
0.000000000000e+00
0.000000000000e+00
0.000000000000e+00
0.000000000000e+00
0.000000000000e+00
0.000000000000e+00
0.000000000000e+00
0.000000000000e+00
0.000000000000e+00
0.000000000000e+00
0.000000000000e+00
0.000000000000e+00
0.000000000000e+00
0.000000000000e+00
0.000000000000e+00
0.000000000000e+00
0.000000000000e+00
0.000000000000e+00
0.000000000000e+00
0.000000000000e+00
0.000000000000e+00
0.000000000000e+00
0.000000000000e+00
0.000000000000e+00
0.000000000000e+00
0.000000000000e+00
0.000000000000e+00
0.000000000000e+00
0.000000000000e+00
0.000000000000e+00
0.000000000000e+00
0.000000000000e+00
0.000000000000e+00
0.000000000000e+00
0.000000000000e+00
0.000000000000e+00
0.000000000000e+00
0.000000000000e+00
0.000000000000e+00
0.000000000000e+00
0.000000000000e+00
0.000000000000e+00
0.000000000000e+00
0.000000000000e+00
0.000000000000e+00
0.000000000000e+00
0.000000000000e+00
0.000000000000e+00
0.000000000000e+00
0.000000000000e+00
0.000000000000e+00
0.000000000000e+00
0.000000000000e+00
0.000000000000e+00
0.000000000000e+00
0.000000000000e+00
0.000000000000e+00
0.000000000000e+00
0.000000000000e+00
0.000000000000e+00
0.000000000000e+00
0.000000000000e+00
0.000000000000e+00
0.000000000000e+00
0.000000000000e+00
0.000000000000e+00
0.000000000000e+00
0.000000000000e+00
0.000000000000e+00
0.000000000000e+00
0.000000000000e+00
0.000000000000e+00
0.000000000000e+00
0.000000000000e+00
0.000000000000e+00
0.000000000000e+00
0.000000000000e+00
0.000000000000e+00
0.000000000000e+00
0.000000000000e+00
0.000000000000e+00
0.000000000000e+00
0.000000000000e+00
0.000000000000e+00
0.000000000000e+00
0.000000000000e+00
0.000000000000e+00
0.000000000000e+00
0.000000000000e+00
0.000000000000e+00
0.000000000000e+00
0.000000000000e+00
0.000000000000e+00
0.000000000000e+00
0.000000000000e+00
0.000000000000e+00
0.000000000000e+00
0.000000000000e+00
0.000000000000e+00
0.000000000000e+00
0.000000000000e+00
0.000000000000e+00
0.000000000000e+00
0.000000000000e+00
0.000000000000e+00
0.000000000000e+00
0.000000000000e+00
0.000000000000e+00
0.000000000000e+00
0.000000000000e+00
0.000000000000e+00
0.000000000000e+00
0.000000000000e+00
0.000000000000e+00
0.000000000000e+00
0.000000000000e+00
0.000000000000e+00
0.000000000000e+00
0.000000000000e+00
0.000000000000e+00
0.000000000000e+00
1.505312231052e-02
1.505374537129e-02
1.505395889167e-02
1.505374537129e-02
1.505312231052e-02
1.505374537129e-02
1.505437048134e-02
1.505458481713e-02
1.505437048134e-02
1.505374537130e-02
1.505395889167e-02
1.505458481712e-02
1.505479975368e-02
1.505458481713e-02
1.505395889168e-02
1.505374537129e-02
1.505437048134e-02
1.505458481713e-02
1.505437048134e-02
1.505374537130e-02
1.505312231052e-02
1.505374537129e-02
1.505395889167e-02
1.505374537130e-02
1.505312231052e-02
1.505465059366e-02
1.505530404181e-02
1.505552505362e-02
1.505530404181e-02
1.505465059366e-02
1.505530404181e-02
1.505596057434e-02
1.505618274828e-02
1.505596057434e-02
1.505530404181e-02
1.505552505362e-02
1.505618274827e-02
1.505640626165e-02
1.505618274828e-02
1.505552505362e-02
1.505530404181e-02
1.505596057434e-02
1.505618274828e-02
1.505596057434e-02
1.505530404181e-02
1.505465059366e-02
1.505530404181e-02
1.505552505362e-02
1.505530404181e-02
1.505465059366e-02
1.505578951120e-02
1.505646599945e-02
1.505668752315e-02
1.505646599945e-02
1.505578951120e-02
1.505646599945e-02
1.505714662626e-02
1.505736906906e-02
1.505714662626e-02
1.505646599945e-02
1.505668752315e-02
1.505736906906e-02
1.505759261746e-02
1.505736906906e-02
1.505668752315e-02
1.505646599945e-02
1.505714662626e-02
1.505736906906e-02
1.505714662626e-02
1.505646599945e-02
1.505578951120e-02
1.505646599945e-02
1.505668752315e-02
1.505646599945e-02
1.505578951120e-02
1.505650799837e-02
1.505718868610e-02
1.505741954210e-02
1.505718868610e-02
1.505650799837e-02
1.505718868610e-02
1.505787297983e-02
1.505810526857e-02
1.505787297983e-02
1.505718868610e-02
1.505741954210e-02
1.505810526856e-02
1.505833949771e-02
1.505810526857e-02
1.505741954210e-02
1.505718868610e-02
1.505787297983e-02
1.505810526857e-02
1.505787297983e-02
1.505718868610e-02
1.505650799837e-02
1.505718868610e-02
1.505741954210e-02
1.505718868610e-02
1.505650799837e-02
1.505678526516e-02
1.505746184339e-02
1.505769933020e-02
1.505746184339e-02
1.505678526516e-02
1.505746184339e-02
1.505814163802e-02
1.505838098352e-02
1.505814163802e-02
1.505746184339e-02
1.505769933020e-02
1.505838098352e-02
1.505862254929e-02
1.505838098352e-02
1.505769933020e-02
1.505746184339e-02
1.505814163802e-02
1.505838098352e-02
1.505814163802e-02
1.505746184339e-02
1.505678526516e-02
1.505746184339e-02
1.505769933020e-02
1.505746184339e-02
1.505678526516e-02
CELL_DATA 128
SCALARS displacement_magnitude float 1
LOOKUP_TABLE default
0.000000000000e+00
0.000000000000e+00
0.000000000000e+00
0.000000000000e+00
0.000000000000e+00
0.000000000000e+00
0.000000000000e+00
0.000000000000e+00
0.000000000000e+00
0.000000000000e+00
0.000000000000e+00
0.000000000000e+00
0.000000000000e+00
0.000000000000e+00
0.000000000000e+00
0.000000000000e+00
0.000000000000e+00
0.000000000000e+00
0.000000000000e+00
0.000000000000e+00
0.000000000000e+00
0.000000000000e+00
0.000000000000e+00
0.000000000000e+00
0.000000000000e+00
0.000000000000e+00
0.000000000000e+00
0.000000000000e+00
0.000000000000e+00
0.000000000000e+00
0.000000000000e+00
0.000000000000e+00
0.000000000000e+00
0.000000000000e+00
0.000000000000e+00
0.000000000000e+00
0.000000000000e+00
0.000000000000e+00
0.000000000000e+00
0.000000000000e+00
0.000000000000e+00
0.000000000000e+00
0.000000000000e+00
0.000000000000e+00
0.000000000000e+00
0.000000000000e+00
0.000000000000e+00
0.000000000000e+00
0.000000000000e+00
0.000000000000e+00
0.000000000000e+00
0.000000000000e+00
0.000000000000e+00
0.000000000000e+00
0.000000000000e+00
0.000000000000e+00
0.000000000000e+00
0.000000000000e+00
0.000000000000e+00
0.000000000000e+00
0.000000000000e+00
0.000000000000e+00
0.000000000000e+00
0.000000000000e+00
1.505452534826e-02
1.505495399743e-02
1.505495399743e-02
1.505452534826e-02
1.505495399743e-02
1.505538402523e-02
1.505538402523e-02
1.505495399743e-02
1.505495399743e-02
1.505538402523e-02
1.505538402523e-02
1.505495399743e-02
1.505452534826e-02
1.505495399743e-02
1.505495399743e-02
1.505452534826e-02
1.505588592350e-02
1.505633020450e-02
1.505633020450e-02
1.505588592350e-02
1.505633020450e-02
1.505677621430e-02
1.505677621430e-02
1.505633020450e-02
1.505633020450e-02
1.505677621430e-02
1.505677621430e-02
1.505633020450e-02
1.505588592350e-02
1.505633020450e-02
1.505633020450e-02
1.505588592350e-02
1.505682831084e-02
1.505728196181e-02
1.505728196181e-02
1.505682831084e-02
1.505728196181e-02
1.505773754956e-02
1.505773754956e-02
1.505728196181e-02
1.505728196181e-02
1.505773754956e-02
1.505773754956e-02
1.505728196181e-02
1.505682831084e-02
1.505728196181e-02
1.505728196181e-02
1.505682831084e-02
1.505732611755e-02
1.505778378397e-02
1.505778378397e-02
1.505732611755e-02
1.505778378397e-02
1.505824364613e-02
1.505824364613e-02
1.505778378397e-02
1.505778378397e-02
1.505824364613e-02
1.505824364613e-02
1.505778378397e-02
1.505732611755e-02
1.505778378397e-02
1.505778378397e-02
1.505732611755e-02
SCALARS engineering_strain_norm float 1
LOOKUP_TABLE default
0.000000000000e+00
0.000000000000e+00
0.000000000000e+00
0.000000000000e+00
0.000000000000e+00
0.000000000000e+00
0.000000000000e+00
0.000000000000e+00
0.000000000000e+00
0.000000000000e+00
0.000000000000e+00
0.000000000000e+00
0.000000000000e+00
0.000000000000e+00
0.000000000000e+00
0.000000000000e+00
0.000000000000e+00
0.000000000000e+00
0.000000000000e+00
0.000000000000e+00
0.000000000000e+00
0.000000000000e+00
0.000000000000e+00
0.000000000000e+00
0.000000000000e+00
0.000000000000e+00
0.000000000000e+00
0.000000000000e+00
0.000000000000e+00
0.000000000000e+00
0.000000000000e+00
0.000000000000e+00
0.000000000000e+00
0.000000000000e+00
0.000000000000e+00
0.000000000000e+00
0.000000000000e+00
0.000000000000e+00
0.000000000000e+00
0.000000000000e+00
0.000000000000e+00
0.000000000000e+00
0.000000000000e+00
0.000000000000e+00
0.000000000000e+00
0.000000000000e+00
0.000000000000e+00
0.000000000000e+00
0.000000000000e+00
0.000000000000e+00
0.000000000000e+00
0.000000000000e+00
0.000000000000e+00
0.000000000000e+00
0.000000000000e+00
0.000000000000e+00
0.000000000000e+00
0.000000000000e+00
0.000000000000e+00
0.000000000000e+00
0.000000000000e+00
0.000000000000e+00
0.000000000000e+00
0.000000000000e+00
2.602108433816e-05
2.641917836934e-05
2.641917836947e-05
2.602108433852e-05
2.641917836923e-05
2.682970502337e-05
2.682970502346e-05
2.641917836962e-05
2.641917836926e-05
2.682970502335e-05
2.682970502348e-05
2.641917836963e-05
2.602108433818e-05
2.641917836943e-05
2.641917836956e-05
2.602108433861e-05
1.948340640252e-05
1.971833047404e-05
1.971833047418e-05
1.948340640282e-05
1.971833047388e-05
1.995491923246e-05
1.995491923263e-05
1.971833047425e-05
1.971833047390e-05
1.995491923252e-05
1.995491923263e-05
1.971833047426e-05
1.948340640257e-05
1.971833047412e-05
1.971833047422e-05
1.948340640289e-05
1.214691956808e-05
1.232517213753e-05
1.232517213763e-05
1.214691956828e-05
1.232517213745e-05
1.251750010569e-05
1.251750010592e-05
1.232517213776e-05
1.232517213746e-05
1.251750010575e-05
1.251750010591e-05
1.232517213772e-05
1.214691956810e-05
1.232517213753e-05
1.232517213767e-05
1.214691956831e-05
4.825261144586e-06
4.882529416575e-06
4.882529416639e-06
4.825261144694e-06
4.882529416544e-06
4.947608343004e-06
4.947608343127e-06
4.882529416663e-06
4.882529416588e-06
4.947608343056e-06
4.947608343113e-06
4.882529416690e-06
4.825261144690e-06
4.882529416644e-06
4.882529416636e-06
4.825261144697e-06
SCALARS von_mises float 1
LOOKUP_TABLE default
0.000000000000e+00
0.000000000000e+00
0.000000000000e+00
0.000000000000e+00
0.000000000000e+00
0.000000000000e+00
0.000000000000e+00
0.000000000000e+00
0.000000000000e+00
0.000000000000e+00
0.000000000000e+00
0.000000000000e+00
0.000000000000e+00
0.000000000000e+00
0.000000000000e+00
0.000000000000e+00
0.000000000000e+00
0.000000000000e+00
0.000000000000e+00
0.000000000000e+00
0.000000000000e+00
0.000000000000e+00
0.000000000000e+00
0.000000000000e+00
0.000000000000e+00
0.000000000000e+00
0.000000000000e+00
0.000000000000e+00
0.000000000000e+00
0.000000000000e+00
0.000000000000e+00
0.000000000000e+00
0.000000000000e+00
0.000000000000e+00
0.000000000000e+00
0.000000000000e+00
0.000000000000e+00
0.000000000000e+00
0.000000000000e+00
0.000000000000e+00
0.000000000000e+00
0.000000000000e+00
0.000000000000e+00
0.000000000000e+00
0.000000000000e+00
0.000000000000e+00
0.000000000000e+00
0.000000000000e+00
0.000000000000e+00
0.000000000000e+00
0.000000000000e+00
0.000000000000e+00
0.000000000000e+00
0.000000000000e+00
0.000000000000e+00
0.000000000000e+00
0.000000000000e+00
0.000000000000e+00
0.000000000000e+00
0.000000000000e+00
0.000000000000e+00
0.000000000000e+00
0.000000000000e+00
0.000000000000e+00
2.393631177644e+00
2.433881364383e+00
2.433881364395e+00
2.393631177678e+00
2.433881364373e+00
2.475413227267e+00
2.475413227276e+00
2.433881364408e+00
2.433881364375e+00
2.475413227265e+00
2.475413227278e+00
2.433881364409e+00
2.393631177646e+00
2.433881364391e+00
2.433881364404e+00
2.393631177686e+00
1.796046375588e+00
1.819320266275e+00
1.819320266288e+00
1.796046375616e+00
1.819320266260e+00
1.842797227515e+00
1.842797227530e+00
1.819320266295e+00
1.819320266262e+00
1.842797227520e+00
1.842797227531e+00
1.819320266296e+00
1.796046375594e+00
1.819320266282e+00
1.819320266292e+00
1.796046375623e+00
1.120743230062e+00
1.140073757485e+00
1.140073757495e+00
1.120743230082e+00
1.140073757477e+00
1.160991254827e+00
1.160991254848e+00
1.140073757507e+00
1.140073757479e+00
1.160991254833e+00
1.160991254848e+00
1.140073757503e+00
1.120743230065e+00
1.140073757486e+00
1.140073757499e+00
1.120743230084e+00
4.515532875481e-01
4.577334344521e-01
4.577334344583e-01
4.515532875584e-01
4.577334344491e-01
4.648009127101e-01
4.648009127216e-01
4.577334344603e-01
4.577334344535e-01
4.648009127149e-01
4.648009127202e-01
4.577334344627e-01
4.515532875582e-01
4.577334344586e-01
4.577334344580e-01
4.515532875588e-01
SCALARS sdf_gap float 1
LOOKUP_TABLE default
0.000000000000e+00
0.000000000000e+00
0.000000000000e+00
0.000000000000e+00
0.000000000000e+00
0.000000000000e+00
0.000000000000e+00
0.000000000000e+00
0.000000000000e+00
0.000000000000e+00
0.000000000000e+00
0.000000000000e+00
0.000000000000e+00
0.000000000000e+00
0.000000000000e+00
0.000000000000e+00
0.000000000000e+00
0.000000000000e+00
0.000000000000e+00
0.000000000000e+00
0.000000000000e+00
0.000000000000e+00
0.000000000000e+00
0.000000000000e+00
0.000000000000e+00
0.000000000000e+00
0.000000000000e+00
0.000000000000e+00
0.000000000000e+00
0.000000000000e+00
0.000000000000e+00
0.000000000000e+00
0.000000000000e+00
0.000000000000e+00
0.000000000000e+00
0.000000000000e+00
0.000000000000e+00
0.000000000000e+00
0.000000000000e+00
0.000000000000e+00
0.000000000000e+00
0.000000000000e+00
0.000000000000e+00
0.000000000000e+00
0.000000000000e+00
0.000000000000e+00
0.000000000000e+00
0.000000000000e+00
0.000000000000e+00
0.000000000000e+00
0.000000000000e+00
0.000000000000e+00
0.000000000000e+00
0.000000000000e+00
0.000000000000e+00
0.000000000000e+00
0.000000000000e+00
0.000000000000e+00
0.000000000000e+00
0.000000000000e+00
0.000000000000e+00
0.000000000000e+00
0.000000000000e+00
0.000000000000e+00
-5.374570777921e-05
-5.416478368866e-05
-5.416478368885e-05
-5.374570777977e-05
-5.416478368845e-05
-5.458492966085e-05
-5.458492966104e-05
-5.416478368906e-05
-5.416478368845e-05
-5.458492966083e-05
-5.458492966103e-05
-5.416478368907e-05
-5.374570777916e-05
-5.416478368865e-05
-5.416478368886e-05
-5.374570777982e-05
0.000000000000e+00
0.000000000000e+00
0.000000000000e+00
0.000000000000e+00
0.000000000000e+00
0.000000000000e+00
0.000000000000e+00
0.000000000000e+00
0.000000000000e+00
0.000000000000e+00
0.000000000000e+00
0.000000000000e+00
0.000000000000e+00
0.000000000000e+00
0.000000000000e+00
0.000000000000e+00
0.000000000000e+00
0.000000000000e+00
0.000000000000e+00
0.000000000000e+00
0.000000000000e+00
0.000000000000e+00
0.000000000000e+00
0.000000000000e+00
0.000000000000e+00
0.000000000000e+00
0.000000000000e+00
0.000000000000e+00
0.000000000000e+00
0.000000000000e+00
0.000000000000e+00
0.000000000000e+00
0.000000000000e+00
0.000000000000e+00
0.000000000000e+00
0.000000000000e+00
0.000000000000e+00
0.000000000000e+00
0.000000000000e+00
0.000000000000e+00
0.000000000000e+00
0.000000000000e+00
0.000000000000e+00
0.000000000000e+00
0.000000000000e+00
0.000000000000e+00
0.000000000000e+00
0.000000000000e+00
SCALARS contact_pressure float 1
LOOKUP_TABLE default
0.000000000000e+00
0.000000000000e+00
0.000000000000e+00
0.000000000000e+00
0.000000000000e+00
0.000000000000e+00
0.000000000000e+00
0.000000000000e+00
0.000000000000e+00
0.000000000000e+00
0.000000000000e+00
0.000000000000e+00
0.000000000000e+00
0.000000000000e+00
0.000000000000e+00
0.000000000000e+00
0.000000000000e+00
0.000000000000e+00
0.000000000000e+00
0.000000000000e+00
0.000000000000e+00
0.000000000000e+00
0.000000000000e+00
0.000000000000e+00
0.000000000000e+00
0.000000000000e+00
0.000000000000e+00
0.000000000000e+00
0.000000000000e+00
0.000000000000e+00
0.000000000000e+00
0.000000000000e+00
0.000000000000e+00
0.000000000000e+00
0.000000000000e+00
0.000000000000e+00
0.000000000000e+00
0.000000000000e+00
0.000000000000e+00
0.000000000000e+00
0.000000000000e+00
0.000000000000e+00
0.000000000000e+00
0.000000000000e+00
0.000000000000e+00
0.000000000000e+00
0.000000000000e+00
0.000000000000e+00
0.000000000000e+00
0.000000000000e+00
0.000000000000e+00
0.000000000000e+00
0.000000000000e+00
0.000000000000e+00
0.000000000000e+00
0.000000000000e+00
0.000000000000e+00
0.000000000000e+00
0.000000000000e+00
0.000000000000e+00
0.000000000000e+00
0.000000000000e+00
0.000000000000e+00
0.000000000000e+00
2.687285388960e+00
2.708239184433e+00
2.708239184443e+00
2.687285388989e+00
2.708239184423e+00
2.729246483042e+00
2.729246483052e+00
2.708239184453e+00
2.708239184423e+00
2.729246483041e+00
2.729246483052e+00
2.708239184453e+00
2.687285388958e+00
2.708239184433e+00
2.708239184443e+00
2.687285388991e+00
0.000000000000e+00
0.000000000000e+00
0.000000000000e+00
0.000000000000e+00
0.000000000000e+00
0.000000000000e+00
0.000000000000e+00
0.000000000000e+00
0.000000000000e+00
0.000000000000e+00
0.000000000000e+00
0.000000000000e+00
0.000000000000e+00
0.000000000000e+00
0.000000000000e+00
0.000000000000e+00
0.000000000000e+00
0.000000000000e+00
0.000000000000e+00
0.000000000000e+00
0.000000000000e+00
0.000000000000e+00
0.000000000000e+00
0.000000000000e+00
0.000000000000e+00
0.000000000000e+00
0.000000000000e+00
0.000000000000e+00
0.000000000000e+00
0.000000000000e+00
0.000000000000e+00
0.000000000000e+00
0.000000000000e+00
0.000000000000e+00
0.000000000000e+00
0.000000000000e+00
0.000000000000e+00
0.000000000000e+00
0.000000000000e+00
0.000000000000e+00
0.000000000000e+00
0.000000000000e+00
0.000000000000e+00
0.000000000000e+00
0.000000000000e+00
0.000000000000e+00
0.000000000000e+00
0.000000000000e+00
SCALARS active_contact float 1
LOOKUP_TABLE default
0.000000000000e+00
0.000000000000e+00
0.000000000000e+00
0.000000000000e+00
0.000000000000e+00
0.000000000000e+00
0.000000000000e+00
0.000000000000e+00
0.000000000000e+00
0.000000000000e+00
0.000000000000e+00
0.000000000000e+00
0.000000000000e+00
0.000000000000e+00
0.000000000000e+00
0.000000000000e+00
0.000000000000e+00
0.000000000000e+00
0.000000000000e+00
0.000000000000e+00
0.000000000000e+00
0.000000000000e+00
0.000000000000e+00
0.000000000000e+00
0.000000000000e+00
0.000000000000e+00
0.000000000000e+00
0.000000000000e+00
0.000000000000e+00
0.000000000000e+00
0.000000000000e+00
0.000000000000e+00
0.000000000000e+00
0.000000000000e+00
0.000000000000e+00
0.000000000000e+00
0.000000000000e+00
0.000000000000e+00
0.000000000000e+00
0.000000000000e+00
0.000000000000e+00
0.000000000000e+00
0.000000000000e+00
0.000000000000e+00
0.000000000000e+00
0.000000000000e+00
0.000000000000e+00
0.000000000000e+00
0.000000000000e+00
0.000000000000e+00
0.000000000000e+00
0.000000000000e+00
0.000000000000e+00
0.000000000000e+00
0.000000000000e+00
0.000000000000e+00
0.000000000000e+00
0.000000000000e+00
0.000000000000e+00
0.000000000000e+00
0.000000000000e+00
0.000000000000e+00
0.000000000000e+00
0.000000000000e+00
1.000000000000e+00
1.000000000000e+00
1.000000000000e+00
1.000000000000e+00
1.000000000000e+00
1.000000000000e+00
1.000000000000e+00
1.000000000000e+00
1.000000000000e+00
1.000000000000e+00
1.000000000000e+00
1.000000000000e+00
1.000000000000e+00
1.000000000000e+00
1.000000000000e+00
1.000000000000e+00
0.000000000000e+00
0.000000000000e+00
0.000000000000e+00
0.000000000000e+00
0.000000000000e+00
0.000000000000e+00
0.000000000000e+00
0.000000000000e+00
0.000000000000e+00
0.000000000000e+00
0.000000000000e+00
0.000000000000e+00
0.000000000000e+00
0.000000000000e+00
0.000000000000e+00
0.000000000000e+00
0.000000000000e+00
0.000000000000e+00
0.000000000000e+00
0.000000000000e+00
0.000000000000e+00
0.000000000000e+00
0.000000000000e+00
0.000000000000e+00
0.000000000000e+00
0.000000000000e+00
0.000000000000e+00
0.000000000000e+00
0.000000000000e+00
0.000000000000e+00
0.000000000000e+00
0.000000000000e+00
0.000000000000e+00
0.000000000000e+00
0.000000000000e+00
0.000000000000e+00
0.000000000000e+00
0.000000000000e+00
0.000000000000e+00
0.000000000000e+00
0.000000000000e+00
0.000000000000e+00
0.000000000000e+00
0.000000000000e+00
0.000000000000e+00
0.000000000000e+00
0.000000000000e+00
0.000000000000e+00
