# vtk DataFile Version 3.0
SFC long-time C3D8 dynamic frame 128 t=2.560000000000e+00
ASCII
DATASET UNSTRUCTURED_GRID
POINTS 250 float
-2.500000000000e-01 -2.500000000000e-01 0.000000000000e+00
-1.250000000000e-01 -2.500000000000e-01 0.000000000000e+00
0.000000000000e+00 -2.500000000000e-01 0.000000000000e+00
1.250000000000e-01 -2.500000000000e-01 0.000000000000e+00
2.500000000000e-01 -2.500000000000e-01 0.000000000000e+00
-2.500000000000e-01 -1.250000000000e-01 0.000000000000e+00
-1.250000000000e-01 -1.250000000000e-01 0.000000000000e+00
0.000000000000e+00 -1.250000000000e-01 0.000000000000e+00
1.250000000000e-01 -1.250000000000e-01 0.000000000000e+00
2.500000000000e-01 -1.250000000000e-01 0.000000000000e+00
-2.500000000000e-01 0.000000000000e+00 0.000000000000e+00
-1.250000000000e-01 0.000000000000e+00 0.000000000000e+00
0.000000000000e+00 0.000000000000e+00 0.000000000000e+00
1.250000000000e-01 0.000000000000e+00 0.000000000000e+00
2.500000000000e-01 0.000000000000e+00 0.000000000000e+00
-2.500000000000e-01 1.250000000000e-01 0.000000000000e+00
-1.250000000000e-01 1.250000000000e-01 0.000000000000e+00
0.000000000000e+00 1.250000000000e-01 0.000000000000e+00
1.250000000000e-01 1.250000000000e-01 0.000000000000e+00
2.500000000000e-01 1.250000000000e-01 0.000000000000e+00
-2.500000000000e-01 2.500000000000e-01 0.000000000000e+00
-1.250000000000e-01 2.500000000000e-01 0.000000000000e+00
0.000000000000e+00 2.500000000000e-01 0.000000000000e+00
1.250000000000e-01 2.500000000000e-01 0.000000000000e+00
2.500000000000e-01 2.500000000000e-01 0.000000000000e+00
-2.500000000000e-01 -2.500000000000e-01 6.000000000000e-02
-1.250000000000e-01 -2.500000000000e-01 6.000000000000e-02
0.000000000000e+00 -2.500000000000e-01 6.000000000000e-02
1.250000000000e-01 -2.500000000000e-01 6.000000000000e-02
2.500000000000e-01 -2.500000000000e-01 6.000000000000e-02
-2.500000000000e-01 -1.250000000000e-01 6.000000000000e-02
-1.250000000000e-01 -1.250000000000e-01 6.000000000000e-02
0.000000000000e+00 -1.250000000000e-01 6.000000000000e-02
1.250000000000e-01 -1.250000000000e-01 6.000000000000e-02
2.500000000000e-01 -1.250000000000e-01 6.000000000000e-02
-2.500000000000e-01 0.000000000000e+00 6.000000000000e-02
-1.250000000000e-01 0.000000000000e+00 6.000000000000e-02
0.000000000000e+00 0.000000000000e+00 6.000000000000e-02
1.250000000000e-01 0.000000000000e+00 6.000000000000e-02
2.500000000000e-01 0.000000000000e+00 6.000000000000e-02
-2.500000000000e-01 1.250000000000e-01 6.000000000000e-02
-1.250000000000e-01 1.250000000000e-01 6.000000000000e-02
0.000000000000e+00 1.250000000000e-01 6.000000000000e-02
1.250000000000e-01 1.250000000000e-01 6.000000000000e-02
2.500000000000e-01 1.250000000000e-01 6.000000000000e-02
-2.500000000000e-01 2.500000000000e-01 6.000000000000e-02
-1.250000000000e-01 2.500000000000e-01 6.000000000000e-02
0.000000000000e+00 2.500000000000e-01 6.000000000000e-02
1.250000000000e-01 2.500000000000e-01 6.000000000000e-02
2.500000000000e-01 2.500000000000e-01 6.000000000000e-02
-2.500000000000e-01 -2.500000000000e-01 1.200000000000e-01
-1.250000000000e-01 -2.500000000000e-01 1.200000000000e-01
0.000000000000e+00 -2.500000000000e-01 1.200000000000e-01
1.250000000000e-01 -2.500000000000e-01 1.200000000000e-01
2.500000000000e-01 -2.500000000000e-01 1.200000000000e-01
-2.500000000000e-01 -1.250000000000e-01 1.200000000000e-01
-1.250000000000e-01 -1.250000000000e-01 1.200000000000e-01
0.000000000000e+00 -1.250000000000e-01 1.200000000000e-01
1.250000000000e-01 -1.250000000000e-01 1.200000000000e-01
2.500000000000e-01 -1.250000000000e-01 1.200000000000e-01
-2.500000000000e-01 0.000000000000e+00 1.200000000000e-01
-1.250000000000e-01 0.000000000000e+00 1.200000000000e-01
0.000000000000e+00 0.000000000000e+00 1.200000000000e-01
1.250000000000e-01 0.000000000000e+00 1.200000000000e-01
2.500000000000e-01 0.000000000000e+00 1.200000000000e-01
-2.500000000000e-01 1.250000000000e-01 1.200000000000e-01
-1.250000000000e-01 1.250000000000e-01 1.200000000000e-01
0.000000000000e+00 1.250000000000e-01 1.200000000000e-01
1.250000000000e-01 1.250000000000e-01 1.200000000000e-01
2.500000000000e-01 1.250000000000e-01 1.200000000000e-01
-2.500000000000e-01 2.500000000000e-01 1.200000000000e-01
-1.250000000000e-01 2.500000000000e-01 1.200000000000e-01
0.000000000000e+00 2.500000000000e-01 1.200000000000e-01
1.250000000000e-01 2.500000000000e-01 1.200000000000e-01
2.500000000000e-01 2.500000000000e-01 1.200000000000e-01
-2.500000000000e-01 -2.500000000000e-01 1.800000000000e-01
-1.250000000000e-01 -2.500000000000e-01 1.800000000000e-01
0.000000000000e+00 -2.500000000000e-01 1.800000000000e-01
1.250000000000e-01 -2.500000000000e-01 1.800000000000e-01
2.500000000000e-01 -2.500000000000e-01 1.800000000000e-01
-2.500000000000e-01 -1.250000000000e-01 1.800000000000e-01
-1.250000000000e-01 -1.250000000000e-01 1.800000000000e-01
0.000000000000e+00 -1.250000000000e-01 1.800000000000e-01
1.250000000000e-01 -1.250000000000e-01 1.800000000000e-01
2.500000000000e-01 -1.250000000000e-01 1.800000000000e-01
-2.500000000000e-01 0.000000000000e+00 1.800000000000e-01
-1.250000000000e-01 0.000000000000e+00 1.800000000000e-01
0.000000000000e+00 0.000000000000e+00 1.800000000000e-01
1.250000000000e-01 0.000000000000e+00 1.800000000000e-01
2.500000000000e-01 0.000000000000e+00 1.800000000000e-01
-2.500000000000e-01 1.250000000000e-01 1.800000000000e-01
-1.250000000000e-01 1.250000000000e-01 1.800000000000e-01
0.000000000000e+00 1.250000000000e-01 1.800000000000e-01
1.250000000000e-01 1.250000000000e-01 1.800000000000e-01
2.500000000000e-01 1.250000000000e-01 1.800000000000e-01
-2.500000000000e-01 2.500000000000e-01 1.800000000000e-01
-1.250000000000e-01 2.500000000000e-01 1.800000000000e-01
0.000000000000e+00 2.500000000000e-01 1.800000000000e-01
1.250000000000e-01 2.500000000000e-01 1.800000000000e-01
2.500000000000e-01 2.500000000000e-01 1.800000000000e-01
-2.500000000000e-01 -2.500000000000e-01 2.400000000000e-01
-1.250000000000e-01 -2.500000000000e-01 2.400000000000e-01
0.000000000000e+00 -2.500000000000e-01 2.400000000000e-01
1.250000000000e-01 -2.500000000000e-01 2.400000000000e-01
2.500000000000e-01 -2.500000000000e-01 2.400000000000e-01
-2.500000000000e-01 -1.250000000000e-01 2.400000000000e-01
-1.250000000000e-01 -1.250000000000e-01 2.400000000000e-01
0.000000000000e+00 -1.250000000000e-01 2.400000000000e-01
1.250000000000e-01 -1.250000000000e-01 2.400000000000e-01
2.500000000000e-01 -1.250000000000e-01 2.400000000000e-01
-2.500000000000e-01 0.000000000000e+00 2.400000000000e-01
-1.250000000000e-01 0.000000000000e+00 2.400000000000e-01
0.000000000000e+00 0.000000000000e+00 2.400000000000e-01
1.250000000000e-01 0.000000000000e+00 2.400000000000e-01
2.500000000000e-01 0.000000000000e+00 2.400000000000e-01
-2.500000000000e-01 1.250000000000e-01 2.400000000000e-01
-1.250000000000e-01 1.250000000000e-01 2.400000000000e-01
0.000000000000e+00 1.250000000000e-01 2.400000000000e-01
1.250000000000e-01 1.250000000000e-01 2.400000000000e-01
2.500000000000e-01 1.250000000000e-01 2.400000000000e-01
-2.500000000000e-01 2.500000000000e-01 2.400000000000e-01
-1.250000000000e-01 2.500000000000e-01 2.400000000000e-01
0.000000000000e+00 2.500000000000e-01 2.400000000000e-01
1.250000000000e-01 2.500000000000e-01 2.400000000000e-01
2.500000000000e-01 2.500000000000e-01 2.400000000000e-01
-2.500017373433e-01 -2.500017373434e-01 2.399499494567e-01
-1.250008897708e-01 -2.500017423182e-01 2.399493435882e-01
3.401123331883e-14 -2.500017439170e-01 2.399491258998e-01
1.250008897709e-01 -2.500017423182e-01 2.399493435882e-01
2.500017373434e-01 -2.500017373434e-01 2.399499494567e-01
-2.500017423182e-01 -1.250008897709e-01 2.399493435882e-01
-1.250008918743e-01 -1.250008918744e-01 2.399487341529e-01
3.280998911910e-14 -1.250008961356e-01 2.399485145981e-01
1.250008918744e-01 -1.250008918744e-01 2.399487341529e-01
2.500017423182e-01 -1.250008897709e-01 2.399493435882e-01
-2.500017439169e-01 -4.294962281824e-14 2.399491258998e-01
-1.250008961355e-01 -4.174755462843e-14 2.399485145981e-01
3.161592761000e-14 -4.054097960678e-14 2.399482929475e-01
1.250008961356e-01 -3.933603323630e-14 2.399485145981e-01
2.500017439170e-01 -3.813776770933e-14 2.399491258998e-01
-2.500017423182e-01 1.250008897708e-01 2.399493435882e-01
-1.250008918743e-01 1.250008918743e-01 2.399487341529e-01
3.041483097023e-14 1.250008961355e-01 2.399485145981e-01
1.250008918744e-01 1.250008918743e-01 2.399487341529e-01
2.500017423182e-01 1.250008897708e-01 2.399493435882e-01
-2.500017373433e-01 2.500017373433e-01 2.399499494567e-01
-1.250008897708e-01 2.500017423182e-01 2.399493435882e-01
2.921436372062e-14 2.500017439169e-01 2.399491258998e-01
1.250008897709e-01 2.500017423182e-01 2.399493435882e-01
2.500017373433e-01 2.500017373433e-01 2.399499494567e-01
-2.500013396973e-01 -2.500013396974e-01 3.049485634939e-01
-1.250006673744e-01 -2.500013453418e-01 3.049479367203e-01
3.397566082218e-14 -2.500013491199e-01 3.049477151472e-01
1.250006673745e-01 -2.500013453418e-01 3.049479367203e-01
2.500013396974e-01 -2.500013396974e-01 3.049485634939e-01
-2.500013453417e-01 -1.250006673745e-01 3.049479367203e-01
-1.250006681644e-01 -1.250006681645e-01 3.049473058771e-01
3.277435654447e-14 -1.250006717625e-01 3.049470818955e-01
1.250006681644e-01 -1.250006681645e-01 3.049473058771e-01
2.500013453418e-01 -1.250006673745e-01 3.049479367203e-01
-2.500013491198e-01 -4.300152742317e-14 3.049477151472e-01
-1.250006717624e-01 -4.179976519603e-14 3.049470818955e-01
3.157477124828e-14 -4.059590221091e-14 3.049468542597e-01
1.250006717625e-01 -3.939404907699e-14 3.049470818955e-01
2.500013491199e-01 -3.819314882529e-14 3.049477151472e-01
-2.500013453417e-01 1.250006673744e-01 3.049479367203e-01
-1.250006681644e-01 1.250006681644e-01 3.049473058771e-01
3.037364196286e-14 1.250006717624e-01 3.049470818955e-01
1.250006681644e-01 1.250006681644e-01 3.049473058771e-01
2.500013453418e-01 1.250006673744e-01 3.049479367203e-01
-2.500013396973e-01 2.500013396973e-01 3.049485634939e-01
-1.250006673744e-01 2.500013453417e-01 3.049479367203e-01
2.917187743863e-14 2.500013491198e-01 3.049477151472e-01
1.250006673745e-01 2.500013453417e-01 3.049479367203e-01
2.500013396974e-01 2.500013396973e-01 3.049485634939e-01
-2.500008797351e-01 -2.500008797351e-01 3.699475966656e-01
-1.250004430824e-01 -2.500008805145e-01 3.699469604588e-01
3.393513025570e-14 -2.500008842732e-01 3.699467394943e-01
1.250004430824e-01 -2.500008805145e-01 3.699469604588e-01
2.500008797351e-01 -2.500008797351e-01 3.699475966656e-01
-2.500008805144e-01 -1.250004430824e-01 3.699469604588e-01
-1.250004438495e-01 -1.250004438495e-01 3.699463203599e-01
3.273568962836e-14 -1.250004477328e-01 3.699460969090e-01
1.250004438495e-01 -1.250004438495e-01 3.699463203599e-01
2.500008805145e-01 -1.250004430824e-01 3.699469604588e-01
-2.500008842732e-01 -4.305627939897e-14 3.699467394943e-01
-1.250004477327e-01 -4.185443850305e-14 3.699460969090e-01
3.153361704608e-14 -4.065546034929e-14 3.699458685488e-01
1.250004477328e-01 -3.945241425202e-14 3.699460969090e-01
2.500008842732e-01 -3.825269135022e-14 3.699467394943e-01
-2.500008805144e-01 1.250004430824e-01 3.699469604588e-01
-1.250004438495e-01 1.250004438495e-01 3.699463203599e-01
3.032997376765e-14 1.250004477327e-01 3.699460969090e-01
1.250004438495e-01 1.250004438495e-01 3.699463203599e-01
2.500008805145e-01 1.250004430824e-01 3.699469604588e-01
-2.500008797351e-01 2.500008797351e-01 3.699475966656e-01
-1.250004430824e-01 2.500008805144e-01 3.699469604588e-01
2.912944394853e-14 2.500008842731e-01 3.699467394943e-01
1.250004430824e-01 2.500008805144e-01 3.699469604588e-01
2.500008797351e-01 2.500008797351e-01 3.699475966656e-01
-2.500004382231e-01 -2.500004382232e-01 4.349470231425e-01
-1.250002212190e-01 -2.500004378197e-01 4.349463942713e-01
3.389596526071e-14 -2.500004448440e-01 4.349461689350e-01
1.250002212191e-01 -2.500004378197e-01 4.349463942713e-01
2.500004382232e-01 -2.500004382232e-01 4.349470231425e-01
-2.500004378196e-01 -1.250002212191e-01 4.349463942713e-01
-1.250002218461e-01 -1.250002218461e-01 4.349457632436e-01
3.269746425870e-14 -1.250002268115e-01 4.349455348505e-01
1.250002218461e-01 -1.250002218461e-01 4.349457632436e-01
2.500004378197e-01 -1.250002212191e-01 4.349463942713e-01
-2.500004448440e-01 -4.311093466246e-14 4.349461689350e-01
-1.250002268114e-01 -4.191103424275e-14 4.349455348505e-01
3.149190859772e-14 -4.071368141989e-14 4.349452998036e-01
1.250002268115e-01 -3.951263402676e-14 4.349455348505e-01
2.500004448440e-01 -3.831002232125e-14 4.349461689350e-01
-2.500004378196e-01 1.250002212190e-01 4.349463942713e-01
-1.250002218461e-01 1.250002218461e-01 4.349457632436e-01
3.029103780986e-14 1.250002268114e-01 4.349455348505e-01
1.250002218461e-01 1.250002218461e-01 4.349457632436e-01
2.500004378197e-01 1.250002212190e-01 4.349463942713e-01
-2.500004382231e-01 2.500004382231e-01 4.349470231425e-01
-1.250002212190e-01 2.500004378196e-01 4.349463942713e-01
2.908940274099e-14 2.500004448439e-01 4.349461689350e-01
1.250002212191e-01 2.500004378196e-01 4.349463942713e-01
2.500004382232e-01 2.500004382231e-01 4.349470231425e-01
-2.500000558701e-01 -2.500000558701e-01 4.999468139707e-01
-1.249999989510e-01 -2.500000606239e-01 4.999461959366e-01
3.386132936798e-14 -2.500000731271e-01 4.999459713697e-01
1.249999989510e-01 -2.500000606239e-01 4.999461959366e-01
2.500000558701e-01 -2.500000558701e-01 4.999468139707e-01
-2.500000606238e-01 -1.249999989510e-01 4.999461959366e-01
-1.249999982997e-01 -1.249999982998e-01 4.999455778244e-01
3.265951175291e-14 -1.250000025756e-01 4.999453505811e-01
1.249999982998e-01 -1.249999982998e-01 4.999455778244e-01
2.500000606239e-01 -1.249999989510e-01 4.999461959366e-01
-2.500000731270e-01 -4.316513405310e-14 4.999459713697e-01
-1.250000025755e-01 -4.196609548187e-14 4.999453505811e-01
3.144969497588e-14 -4.076744649298e-14 4.999451164641e-01
1.250000025756e-01 -3.956564673206e-14 4.999453505811e-01
2.500000731271e-01 -3.836530826024e-14 4.999459713697e-01
-2.500000606238e-01 1.249999989510e-01 4.999461959366e-01
-1.249999982997e-01 1.249999982997e-01 4.999455778244e-01
3.025306823216e-14 1.250000025755e-01 4.999453505811e-01
1.249999982998e-01 1.249999982997e-01 4.999455778244e-01
2.500000606239e-01 1.249999989510e-01 4.999461959366e-01
-2.500000558701e-01 2.500000558700e-01 4.999468139707e-01
-1.249999989510e-01 2.500000606238e-01 4.999461959366e-01
2.904912859516e-14 2.500000731270e-01 4.999459713697e-01
1.249999989510e-01 2.500000606238e-01 4.999461959366e-01
2.500000558701e-01 2.500000558700e-01 4.999468139707e-01
CELLS 128 1152
8 0 1 6 5 25 26 31 30
8 1 2 7 6 26 27 32 31
8 2 3 8 7 27 28 33 32
8 3 4 9 8 28 29 34 33
8 5 6 11 10 30 31 36 35
8 6 7 12 11 31 32 37 36
8 7 8 13 12 32 33 38 37
8 8 9 14 13 33 34 39 38
8 10 11 16 15 35 36 41 40
8 11 12 17 16 36 37 42 41
8 12 13 18 17 37 38 43 42
8 13 14 19 18 38 39 44 43
8 15 16 21 20 40 41 46 45
8 16 17 22 21 41 42 47 46
8 17 18 23 22 42 43 48 47
8 18 19 24 23 43 44 49 48
8 25 26 31 30 50 51 56 55
8 26 27 32 31 51 52 57 56
8 27 28 33 32 52 53 58 57
8 28 29 34 33 53 54 59 58
8 30 31 36 35 55 56 61 60
8 31 32 37 36 56 57 62 61
8 32 33 38 37 57 58 63 62
8 33 34 39 38 58 59 64 63
8 35 36 41 40 60 61 66 65
8 36 37 42 41 61 62 67 66
8 37 38 43 42 62 63 68 67
8 38 39 44 43 63 64 69 68
8 40 41 46 45 65 66 71 70
8 41 42 47 46 66 67 72 71
8 42 43 48 47 67 68 73 72
8 43 44 49 48 68 69 74 73
8 50 51 56 55 75 76 81 80
8 51 52 57 56 76 77 82 81
8 52 53 58 57 77 78 83 82
8 53 54 59 58 78 79 84 83
8 55 56 61 60 80 81 86 85
8 56 57 62 61 81 82 87 86
8 57 58 63 62 82 83 88 87
8 58 59 64 63 83 84 89 88
8 60 61 66 65 85 86 91 90
8 61 62 67 66 86 87 92 91
8 62 63 68 67 87 88 93 92
8 63 64 69 68 88 89 94 93
8 65 66 71 70 90 91 96 95
8 66 67 72 71 91 92 97 96
8 67 68 73 72 92 93 98 97
8 68 69 74 73 93 94 99 98
8 75 76 81 80 100 101 106 105
8 76 77 82 81 101 102 107 106
8 77 78 83 82 102 103 108 107
8 78 79 84 83 103 104 109 108
8 80 81 86 85 105 106 111 110
8 81 82 87 86 106 107 112 111
8 82 83 88 87 107 108 113 112
8 83 84 89 88 108 109 114 113
8 85 86 91 90 110 111 116 115
8 86 87 92 91 111 112 117 116
8 87 88 93 92 112 113 118 117
8 88 89 94 93 113 114 119 118
8 90 91 96 95 115 116 121 120
8 91 92 97 96 116 117 122 121
8 92 93 98 97 117 118 123 122
8 93 94 99 98 118 119 124 123
8 125 126 131 130 150 151 156 155
8 126 127 132 131 151 152 157 156
8 127 128 133 132 152 153 158 157
8 128 129 134 133 153 154 159 158
8 130 131 136 135 155 156 161 160
8 131 132 137 136 156 157 162 161
8 132 133 138 137 157 158 163 162
8 133 134 139 138 158 159 164 163
8 135 136 141 140 160 161 166 165
8 136 137 142 141 161 162 167 166
8 137 138 143 142 162 163 168 167
8 138 139 144 143 163 164 169 168
8 140 141 146 145 165 166 171 170
8 141 142 147 146 166 167 172 171
8 142 143 148 147 167 168 173 172
8 143 144 149 148 168 169 174 173
8 150 151 156 155 175 176 181 180
8 151 152 157 156 176 177 182 181
8 152 153 158 157 177 178 183 182
8 153 154 159 158 178 179 184 183
8 155 156 161 160 180 181 186 185
8 156 157 162 161 181 182 187 186
8 157 158 163 162 182 183 188 187
8 158 159 164 163 183 184 189 188
8 160 161 166 165 185 186 191 190
8 161 162 167 166 186 187 192 191
8 162 163 168 167 187 188 193 192
8 163 164 169 168 188 189 194 193
8 165 166 171 170 190 191 196 195
8 166 167 172 171 191 192 197 196
8 167 168 173 172 192 193 198 197
8 168 169 174 173 193 194 199 198
8 175 176 181 180 200 201 206 205
8 176 177 182 181 201 202 207 206
8 177 178 183 182 202 203 208 207
8 178 179 184 183 203 204 209 208
8 180 181 186 185 205 206 211 210
8 181 182 187 186 206 207 212 211
8 182 183 188 187 207 208 213 212
8 183 184 189 188 208 209 214 213
8 185 186 191 190 210 211 216 215
8 186 187 192 191 211 212 217 216
8 187 188 193 192 212 213 218 217
8 188 189 194 193 213 214 219 218
8 190 191 196 195 215 216 221 220
8 191 192 197 196 216 217 222 221
8 192 193 198 197 217 218 223 222
8 193 194 199 198 218 219 224 223
8 200 201 206 205 225 226 231 230
8 201 202 207 206 226 227 232 231
8 202 203 208 207 227 228 233 232
8 203 204 209 208 228 229 234 233
8 205 206 211 210 230 231 236 235
8 206 207 212 211 231 232 237 236
8 207 208 213 212 232 233 238 237
8 208 209 214 213 233 234 239 238
8 210 211 216 215 235 236 241 240
8 211 212 217 216 236 237 242 241
8 212 213 218 217 237 238 243 242
8 213 214 219 218 238 239 244 243
8 215 216 221 220 240 241 246 245
8 216 217 222 221 241 242 247 246
8 217 218 223 222 242 243 248 247
8 218 219 224 223 243 244 249 248
CELL_TYPES 128
12
12
12
12
12
12
12
12
12
12
12
12
12
12
12
12
12
12
12
12
12
12
12
12
12
12
12
12
12
12
12
12
12
12
12
12
12
12
12
12
12
12
12
12
12
12
12
12
12
12
12
12
12
12
12
12
12
12
12
12
12
12
12
12
12
12
12
12
12
12
12
12
12
12
12
12
12
12
12
12
12
12
12
12
12
12
12
12
12
12
12
12
12
12
12
12
12
12
12
12
12
12
12
12
12
12
12
12
12
12
12
12
12
12
12
12
12
12
12
12
12
12
12
12
12
12
12
12
POINT_DATA 250
VECTORS displacement float
0.000000000000e+00 0.000000000000e+00 0.000000000000e+00
0.000000000000e+00 0.000000000000e+00 0.000000000000e+00
0.000000000000e+00 0.000000000000e+00 0.000000000000e+00
0.000000000000e+00 0.000000000000e+00 0.000000000000e+00
0.000000000000e+00 0.000000000000e+00 0.000000000000e+00
0.000000000000e+00 0.000000000000e+00 0.000000000000e+00
0.000000000000e+00 0.000000000000e+00 0.000000000000e+00
0.000000000000e+00 0.000000000000e+00 0.000000000000e+00
0.000000000000e+00 0.000000000000e+00 0.000000000000e+00
0.000000000000e+00 0.000000000000e+00 0.000000000000e+00
0.000000000000e+00 0.000000000000e+00 0.000000000000e+00
0.000000000000e+00 0.000000000000e+00 0.000000000000e+00
0.000000000000e+00 0.000000000000e+00 0.000000000000e+00
0.000000000000e+00 0.000000000000e+00 0.000000000000e+00
0.000000000000e+00 0.000000000000e+00 0.000000000000e+00
0.000000000000e+00 0.000000000000e+00 0.000000000000e+00
0.000000000000e+00 0.000000000000e+00 0.000000000000e+00
0.000000000000e+00 0.000000000000e+00 0.000000000000e+00
0.000000000000e+00 0.000000000000e+00 0.000000000000e+00
0.000000000000e+00 0.000000000000e+00 0.000000000000e+00
0.000000000000e+00 0.000000000000e+00 0.000000000000e+00
0.000000000000e+00 0.000000000000e+00 0.000000000000e+00
0.000000000000e+00 0.000000000000e+00 0.000000000000e+00
0.000000000000e+00 0.000000000000e+00 0.000000000000e+00
0.000000000000e+00 0.000000000000e+00 0.000000000000e+00
0.000000000000e+00 0.000000000000e+00 0.000000000000e+00
0.000000000000e+00 0.000000000000e+00 0.000000000000e+00
0.000000000000e+00 0.000000000000e+00 0.000000000000e+00
0.000000000000e+00 0.000000000000e+00 0.000000000000e+00
0.000000000000e+00 0.000000000000e+00 0.000000000000e+00
0.000000000000e+00 0.000000000000e+00 0.000000000000e+00
0.000000000000e+00 0.000000000000e+00 0.000000000000e+00
0.000000000000e+00 0.000000000000e+00 0.000000000000e+00
0.000000000000e+00 0.000000000000e+00 0.000000000000e+00
0.000000000000e+00 0.000000000000e+00 0.000000000000e+00
0.000000000000e+00 0.000000000000e+00 0.000000000000e+00
0.000000000000e+00 0.000000000000e+00 0.000000000000e+00
0.000000000000e+00 0.000000000000e+00 0.000000000000e+00
0.000000000000e+00 0.000000000000e+00 0.000000000000e+00
0.000000000000e+00 0.000000000000e+00 0.000000000000e+00
0.000000000000e+00 0.000000000000e+00 0.000000000000e+00
0.000000000000e+00 0.000000000000e+00 0.000000000000e+00
0.000000000000e+00 0.000000000000e+00 0.000000000000e+00
0.000000000000e+00 0.000000000000e+00 0.000000000000e+00
0.000000000000e+00 0.000000000000e+00 0.000000000000e+00
0.000000000000e+00 0.000000000000e+00 0.000000000000e+00
0.000000000000e+00 0.000000000000e+00 0.000000000000e+00
0.000000000000e+00 0.000000000000e+00 0.000000000000e+00
0.000000000000e+00 0.000000000000e+00 0.000000000000e+00
0.000000000000e+00 0.000000000000e+00 0.000000000000e+00
0.000000000000e+00 0.000000000000e+00 0.000000000000e+00
0.000000000000e+00 0.000000000000e+00 0.000000000000e+00
0.000000000000e+00 0.000000000000e+00 0.000000000000e+00
0.000000000000e+00 0.000000000000e+00 0.000000000000e+00
0.000000000000e+00 0.000000000000e+00 0.000000000000e+00
0.000000000000e+00 0.000000000000e+00 0.000000000000e+00
0.000000000000e+00 0.000000000000e+00 0.000000000000e+00
0.000000000000e+00 0.000000000000e+00 0.000000000000e+00
0.000000000000e+00 0.000000000000e+00 0.000000000000e+00
0.000000000000e+00 0.000000000000e+00 0.000000000000e+00
0.000000000000e+00 0.000000000000e+00 0.000000000000e+00
0.000000000000e+00 0.000000000000e+00 0.000000000000e+00
0.000000000000e+00 0.000000000000e+00 0.000000000000e+00
0.000000000000e+00 0.000000000000e+00 0.000000000000e+00
0.000000000000e+00 0.000000000000e+00 0.000000000000e+00
0.000000000000e+00 0.000000000000e+00 0.000000000000e+00
0.000000000000e+00 0.000000000000e+00 0.000000000000e+00
0.000000000000e+00 0.000000000000e+00 0.000000000000e+00
0.000000000000e+00 0.000000000000e+00 0.000000000000e+00
0.000000000000e+00 0.000000000000e+00 0.000000000000e+00
0.000000000000e+00 0.000000000000e+00 0.000000000000e+00
0.000000000000e+00 0.000000000000e+00 0.000000000000e+00
0.000000000000e+00 0.000000000000e+00 0.000000000000e+00
0.000000000000e+00 0.000000000000e+00 0.000000000000e+00
0.000000000000e+00 0.000000000000e+00 0.000000000000e+00
0.000000000000e+00 0.000000000000e+00 0.000000000000e+00
0.000000000000e+00 0.000000000000e+00 0.000000000000e+00
0.000000000000e+00 0.000000000000e+00 0.000000000000e+00
0.000000000000e+00 0.000000000000e+00 0.000000000000e+00
0.000000000000e+00 0.000000000000e+00 0.000000000000e+00
0.000000000000e+00 0.000000000000e+00 0.000000000000e+00
0.000000000000e+00 0.000000000000e+00 0.000000000000e+00
0.000000000000e+00 0.000000000000e+00 0.000000000000e+00
0.000000000000e+00 0.000000000000e+00 0.000000000000e+00
0.000000000000e+00 0.000000000000e+00 0.000000000000e+00
0.000000000000e+00 0.000000000000e+00 0.000000000000e+00
0.000000000000e+00 0.000000000000e+00 0.000000000000e+00
0.000000000000e+00 0.000000000000e+00 0.000000000000e+00
0.000000000000e+00 0.000000000000e+00 0.000000000000e+00
0.000000000000e+00 0.000000000000e+00 0.000000000000e+00
0.000000000000e+00 0.000000000000e+00 0.000000000000e+00
0.000000000000e+00 0.000000000000e+00 0.000000000000e+00
0.000000000000e+00 0.000000000000e+00 0.000000000000e+00
0.000000000000e+00 0.000000000000e+00 0.000000000000e+00
0.000000000000e+00 0.000000000000e+00 0.000000000000e+00
0.000000000000e+00 0.000000000000e+00 0.000000000000e+00
0.000000000000e+00 0.000000000000e+00 0.000000000000e+00
0.000000000000e+00 0.000000000000e+00 0.000000000000e+00
0.000000000000e+00 0.000000000000e+00 0.000000000000e+00
0.000000000000e+00 0.000000000000e+00 0.000000000000e+00
0.000000000000e+00 0.000000000000e+00 0.000000000000e+00
0.000000000000e+00 0.000000000000e+00 0.000000000000e+00
0.000000000000e+00 0.000000000000e+00 0.000000000000e+00
0.000000000000e+00 0.000000000000e+00 0.000000000000e+00
0.000000000000e+00 0.000000000000e+00 0.000000000000e+00
0.000000000000e+00 0.000000000000e+00 0.000000000000e+00
0.000000000000e+00 0.000000000000e+00 0.000000000000e+00
0.000000000000e+00 0.000000000000e+00 0.000000000000e+00
0.000000000000e+00 0.000000000000e+00 0.000000000000e+00
0.000000000000e+00 0.000000000000e+00 0.000000000000e+00
0.000000000000e+00 0.000000000000e+00 0.000000000000e+00
0.000000000000e+00 0.000000000000e+00 0.000000000000e+00
0.000000000000e+00 0.000000000000e+00 0.000000000000e+00
0.000000000000e+00 0.000000000000e+00 0.000000000000e+00
0.000000000000e+00 0.000000000000e+00 0.000000000000e+00
0.000000000000e+00 0.000000000000e+00 0.000000000000e+00
0.000000000000e+00 0.000000000000e+00 0.000000000000e+00
0.000000000000e+00 0.000000000000e+00 0.000000000000e+00
0.000000000000e+00 0.000000000000e+00 0.000000000000e+00
0.000000000000e+00 0.000000000000e+00 0.000000000000e+00
0.000000000000e+00 0.000000000000e+00 0.000000000000e+00
0.000000000000e+00 0.000000000000e+00 0.000000000000e+00
0.000000000000e+00 0.000000000000e+00 0.000000000000e+00
0.000000000000e+00 0.000000000000e+00 0.000000000000e+00
0.000000000000e+00 0.000000000000e+00 0.000000000000e+00
-1.737343285079e-06 -1.737343362062e-06 -1.505005054329e-02
-8.897708237624e-07 -1.742318241135e-06 -1.505065641177e-02
3.401123331883e-14 -1.743917018190e-06 -1.505087410018e-02
8.897708917817e-07 -1.742318238717e-06 -1.505065641177e-02
1.737343353104e-06 -1.737343357238e-06 -1.505005054329e-02
-1.742318166553e-06 -8.897709007387e-07 -1.505065641177e-02
-8.918743153697e-07 -8.918743899459e-07 -1.505126584707e-02
3.280998911910e-14 -8.961355699272e-07 -1.505148540190e-02
8.918743809916e-07 -8.918743875290e-07 -1.505126584707e-02
1.742318232168e-06 -8.897708959183e-07 -1.505065641176e-02
-1.743916946017e-06 -4.294962281824e-14 -1.505087410018e-02
-8.961354977583e-07 -4.174755462843e-14 -1.505148540190e-02
3.161592761000e-14 -4.054097960678e-14 -1.505170705250e-02
8.961355609840e-07 -3.933603323630e-14 -1.505148540190e-02
1.743917009237e-06 -3.813776770933e-14 -1.505087410018e-02
-1.742318168944e-06 8.897708148350e-07 -1.505065641177e-02
-8.918743177634e-07 8.918743064463e-07 -1.505126584707e-02
3.041483097023e-14 8.961354888482e-07 -1.505148540190e-02
8.918743785911e-07 8.918743088577e-07 -1.505126584707e-02
1.742318229767e-06 8.897708196451e-07 -1.505065641176e-02
-1.737343289859e-06 1.737343276150e-06 -1.505005054329e-02
-8.897708285505e-07 1.742318157631e-06 -1.505065641176e-02
2.921436372062e-14 1.743916937109e-06 -1.505087410018e-02
8.897708869778e-07 1.742318160053e-06 -1.505065641176e-02
1.737343348280e-06 1.737343280960e-06 -1.505005054329e-02
-1.339697296220e-06 -1.339697373206e-06 -1.505143650607e-02
-6.673743930409e-07 -1.345341818145e-06 -1.505206327970e-02
3.397566082218e-14 -1.349119884533e-06 -1.505228485278e-02
6.673744609915e-07 -1.345341815730e-06 -1.505206327970e-02
1.339697364165e-06 -1.339697368392e-06 -1.505143650607e-02
-1.345341743553e-06 -6.673744700251e-07 -1.505206327970e-02
-6.681643837205e-07 -6.681644583033e-07 -1.505269412293e-02
3.277435654447e-14 -6.717625032293e-07 -1.505291810455e-02
6.681644492700e-07 -6.681644558955e-07 -1.505269412293e-02
1.345341809101e-06 -6.673744652136e-07 -1.505206327970e-02
-1.349119812358e-06 -4.300152742317e-14 -1.505228485278e-02
-6.717624310532e-07 -4.179976519603e-14 -1.505291810455e-02
3.157477124828e-14 -4.059590221091e-14 -1.505314574025e-02
6.717624942022e-07 -3.939404907699e-14 -1.505291810455e-02
1.349119875499e-06 -3.819314882529e-14 -1.505228485278e-02
-1.345341745952e-06 6.673743840209e-07 -1.505206327970e-02
-6.681643861200e-07 6.681643747027e-07 -1.505269412293e-02
3.037364196286e-14 6.717624220368e-07 -1.505291810455e-02
6.681644468686e-07 6.681643771095e-07 -1.505269412293e-02
1.345341806700e-06 6.673743888297e-07 -1.505206327970e-02
-1.339697301014e-06 1.339697287198e-06 -1.505143650607e-02
-6.673743978426e-07 1.345341734533e-06 -1.505206327970e-02
2.917187743863e-14 1.349119803342e-06 -1.505228485278e-02
6.673744561878e-07 1.345341736944e-06 -1.505206327970e-02
1.339697359360e-06 1.339697292006e-06 -1.505143650607e-02
-8.797350635206e-07 -8.797351405113e-07 -1.505240333438e-02
-4.430823702193e-07 -8.805145005720e-07 -1.505303954116e-02
3.393513025570e-14 -8.842732225460e-07 -1.505326050568e-02
4.430824380924e-07 -8.805144981665e-07 -1.505303954116e-02
8.797351313928e-07 -8.797351357079e-07 -1.505240333438e-02
-8.805144259750e-07 -4.430824472124e-07 -1.505303954116e-02
-4.438494727262e-07 -4.438495473172e-07 -1.505367964011e-02
3.273568962836e-14 -4.477327750613e-07 -1.505390309096e-02
4.438495381990e-07 -4.438495449167e-07 -1.505367964011e-02
8.805144914446e-07 -4.430824424086e-07 -1.505303954116e-02
-8.842731503624e-07 -4.305627939897e-14 -1.505326050568e-02
-4.477327028779e-07 -4.185443850305e-14 -1.505390309096e-02
3.153361704608e-14 -4.065546034929e-14 -1.505413145122e-02
4.477327659426e-07 -3.945241425202e-14 -1.505390309096e-02
8.842732134232e-07 -3.825269135022e-14 -1.505326050568e-02
-8.805144283787e-07 4.430823611001e-07 -1.505303954116e-02
-4.438494751312e-07 4.438494636069e-07 -1.505367964011e-02
3.032997376765e-14 4.477326937570e-07 -1.505390309096e-02
4.438495357961e-07 4.438494660111e-07 -1.505367964011e-02
8.805144890463e-07 4.430823659068e-07 -1.505303954116e-02
-8.797350683216e-07 8.797350543994e-07 -1.505240333438e-02
-4.430823750257e-07 8.805144168529e-07 -1.505303954116e-02
2.912944394853e-14 8.842731412384e-07 -1.505326050568e-02
4.430824332877e-07 8.805144192604e-07 -1.505303954116e-02
8.797351265823e-07 8.797350592037e-07 -1.505240333438e-02
-4.382231360614e-07 -4.382232130620e-07 -1.505297685746e-02
-2.212189961699e-07 -4.378197114796e-07 -1.505360572867e-02
3.389596526071e-14 -4.448440253646e-07 -1.505383106498e-02
2.212190639669e-07 -4.378197090876e-07 -1.505360572867e-02
4.382232038587e-07 -4.382232082685e-07 -1.505297685746e-02
-4.378196368844e-07 -2.212190731714e-07 -1.505360572867e-02
-2.218460711328e-07 -2.218461457343e-07 -1.505423675636e-02
3.269746425870e-14 -2.268114987359e-07 -1.505446514951e-02
2.218461365271e-07 -2.218461433383e-07 -1.505423675636e-02
4.378197022791e-07 -2.212190683758e-07 -1.505360572867e-02
-4.448439531736e-07 -4.311093466246e-14 -1.505383106498e-02
-2.268114265391e-07 -4.191103424275e-14 -1.505446514951e-02
3.149190859772e-14 -4.071368141989e-14 -1.505470019641e-02
2.268114895240e-07 -3.951263402676e-14 -1.505446514951e-02
4.448440161533e-07 -3.831002232125e-14 -1.505383106498e-02
-4.378196392928e-07 2.212189869514e-07 -1.505360572867e-02
-2.218460735422e-07 2.218460619130e-07 -1.505423675636e-02
3.029103780986e-14 2.268114173143e-07 -1.505446514951e-02
2.218461341245e-07 2.218460643153e-07 -1.505423675636e-02
4.378196998777e-07 2.212189917550e-07 -1.505360572867e-02
-4.382231408698e-07 4.382231268397e-07 -1.505297685746e-02
-2.212190009766e-07 4.378196276618e-07 -1.505360572867e-02
2.908940274099e-14 4.448439439392e-07 -1.505383106498e-02
2.212190591596e-07 4.378196300609e-07 -1.505360572867e-02
4.382231990579e-07 4.382231316446e-07 -1.505297685746e-02
-5.587005387091e-08 -5.587013087280e-08 -1.505318602931e-02
1.049032311121e-09 -6.062390296394e-08 -1.505380406340e-02
3.386132936798e-14 -7.312708849485e-08 -1.505402863031e-02
-1.048964591262e-09 -6.062390058677e-08 -1.505380406340e-02
5.587012158551e-08 -5.587012609122e-08 -1.505318602931e-02
-6.062382837003e-08 1.048955300862e-09 -1.505380406340e-02
1.700294671887e-09 1.700220068917e-09 -1.505442217559e-02
3.265951175291e-14 -2.575580498082e-09 -1.505464941895e-02
-1.700229353954e-09 1.700222452472e-09 -1.505442217559e-02
6.062389368472e-08 1.048960088957e-09 -1.505380406340e-02
-7.312701628546e-08 -4.316513405310e-14 -1.505402863031e-02
-2.575508292056e-09 -4.196609548187e-14 -1.505464941895e-02
3.144969497588e-14 -4.076744649298e-14 -1.505488353588e-02
2.575571194777e-09 -3.956564673206e-14 -1.505464941895e-02
7.312707918868e-08 -3.836530826024e-14 -1.505402863031e-02
-6.062383078159e-08 -1.049041626963e-09 -1.505380406340e-02
1.700292259602e-09 -1.700303996639e-09 -1.505442217559e-02
3.025306823216e-14 2.575498956427e-09 -1.505464941895e-02
-1.700231759030e-09 -1.700301595259e-09 -1.505442217559e-02
6.062389128194e-08 -1.049036824594e-09 -1.505380406340e-02
-5.587005868907e-08 5.587004455309e-08 -1.505318602931e-02
1.049027492149e-09 6.062381904309e-08 -1.505380406340e-02
2.904912859516e-14 7.312700693093e-08 -1.505402863031e-02
-1.048969390097e-09 6.062382143205e-08 -1.505380406340e-02
5.587011679555e-08 5.587004934562e-08 -1.505318602931e-02
SCALARS displacement_magnitude float 1
LOOKUP_TABLE default
0.000000000000e+00
0.000000000000e+00
0.000000000000e+00
0.000000000000e+00
0.000000000000e+00
0.000000000000e+00
0.000000000000e+00
0.000000000000e+00
0.000000000000e+00
0.000000000000e+00
0.000000000000e+00
0.000000000000e+00
0.000000000000e+00
0.000000000000e+00
0.000000000000e+00
0.000000000000e+00
0.000000000000e+00
0.000000000000e+00
0.000000000000e+00
0.000000000000e+00
0.000000000000e+00
0.000000000000e+00
0.000000000000e+00
0.000000000000e+00
0.000000000000e+00
0.000000000000e+00
0.000000000000e+00
0.000000000000e+00
0.000000000000e+00
0.000000000000e+00
0.000000000000e+00
0.000000000000e+00
0.000000000000e+00
0.000000000000e+00
0.000000000000e+00
0.000000000000e+00
0.000000000000e+00
0.000000000000e+00
0.000000000000e+00
0.000000000000e+00
0.000000000000e+00
0.000000000000e+00
0.000000000000e+00
0.000000000000e+00
0.000000000000e+00
0.000000000000e+00
0.000000000000e+00
0.000000000000e+00
0.000000000000e+00
0.000000000000e+00
0.000000000000e+00
0.000000000000e+00
0.000000000000e+00
0.000000000000e+00
0.000000000000e+00
0.000000000000e+00
0.000000000000e+00
0.000000000000e+00
0.000000000000e+00
0.000000000000e+00
0.000000000000e+00
0.000000000000e+00
0.000000000000e+00
0.000000000000e+00
0.000000000000e+00
0.000000000000e+00
0.000000000000e+00
0.000000000000e+00
0.000000000000e+00
0.000000000000e+00
0.000000000000e+00
0.000000000000e+00
0.000000000000e+00
0.000000000000e+00
0.000000000000e+00
0.000000000000e+00
0.000000000000e+00
0.000000000000e+00
0.000000000000e+00
0.000000000000e+00
0.000000000000e+00
0.000000000000e+00
0.000000000000e+00
0.000000000000e+00
0.000000000000e+00
0.000000000000e+00
0.000000000000e+00
0.000000000000e+00
0.000000000000e+00
0.000000000000e+00
0.000000000000e+00
0.000000000000e+00
0.000000000000e+00
0.000000000000e+00
0.000000000000e+00
0.000000000000e+00
0.000000000000e+00
0.000000000000e+00
0.000000000000e+00
0.000000000000e+00
0.000000000000e+00
0.000000000000e+00
0.000000000000e+00
0.000000000000e+00
0.000000000000e+00
0.000000000000e+00
0.000000000000e+00
0.000000000000e+00
0.000000000000e+00
0.000000000000e+00
0.000000000000e+00
0.000000000000e+00
0.000000000000e+00
0.000000000000e+00
0.000000000000e+00
0.000000000000e+00
0.000000000000e+00
0.000000000000e+00
0.000000000000e+00
0.000000000000e+00
0.000000000000e+00
0.000000000000e+00
0.000000000000e+00
0.000000000000e+00
0.000000000000e+00
1.505005074384e-02
1.505065653891e-02
1.505087420121e-02
1.505065653891e-02
1.505005074384e-02
1.505065653891e-02
1.505126589992e-02
1.505148542857e-02
1.505126589992e-02
1.505065653891e-02
1.505087420121e-02
1.505148542857e-02
1.505170705250e-02
1.505148542857e-02
1.505087420121e-02
1.505065653891e-02
1.505126589992e-02
1.505148542857e-02
1.505126589992e-02
1.505065653891e-02
1.505005074384e-02
1.505065653891e-02
1.505087420121e-02
1.505065653891e-02
1.505005074384e-02
1.505143662531e-02
1.505206335462e-02
1.505228491324e-02
1.505206335462e-02
1.505143662531e-02
1.505206335462e-02
1.505269415259e-02
1.505291811954e-02
1.505269415259e-02
1.505206335462e-02
1.505228491324e-02
1.505291811954e-02
1.505314574025e-02
1.505291811954e-02
1.505228491324e-02
1.505206335462e-02
1.505269415259e-02
1.505291811954e-02
1.505269415259e-02
1.505206335462e-02
1.505143662531e-02
1.505206335462e-02
1.505228491324e-02
1.505206335462e-02
1.505143662531e-02
1.505240338579e-02
1.505303957344e-02
1.505326053165e-02
1.505303957344e-02
1.505240338579e-02
1.505303957344e-02
1.505367965320e-02
1.505390309762e-02
1.505367965320e-02
1.505303957344e-02
1.505326053165e-02
1.505390309762e-02
1.505413145122e-02
1.505390309762e-02
1.505326053165e-02
1.505303957344e-02
1.505367965320e-02
1.505390309762e-02
1.505367965320e-02
1.505303957343e-02
1.505240338579e-02
1.505303957344e-02
1.505326053165e-02
1.505303957343e-02
1.505240338579e-02
1.505297687022e-02
1.505360573667e-02
1.505383107156e-02
1.505360573667e-02
1.505297687022e-02
1.505360573667e-02
1.505423675963e-02
1.505446515122e-02
1.505423675963e-02
1.505360573667e-02
1.505383107156e-02
1.505446515122e-02
1.505470019641e-02
1.505446515122e-02
1.505383107156e-02
1.505360573667e-02
1.505423675963e-02
1.505446515122e-02
1.505423675963e-02
1.505360573667e-02
1.505297687022e-02
1.505360573667e-02
1.505383107156e-02
1.505360573667e-02
1.505297687022e-02
1.505318602952e-02
1.505380406353e-02
1.505402863049e-02
1.505380406353e-02
1.505318602952e-02
1.505380406353e-02
1.505442217559e-02
1.505464941895e-02
1.505442217559e-02
1.505380406353e-02
1.505402863049e-02
1.505464941895e-02
1.505488353588e-02
1.505464941895e-02
1.505402863049e-02
1.505380406353e-02
1.505442217559e-02
1.505464941895e-02
1.505442217559e-02
1.505380406353e-02
1.505318602952e-02
1.505380406353e-02
1.505402863049e-02
1.505380406353e-02
1.505318602952e-02
CELL_DATA 128
SCALARS displacement_magnitude float 1
LOOKUP_TABLE default
0.000000000000e+00
0.000000000000e+00
0.000000000000e+00
0.000000000000e+00
0.000000000000e+00
0.000000000000e+00
0.000000000000e+00
0.000000000000e+00
0.000000000000e+00
0.000000000000e+00
0.000000000000e+00
0.000000000000e+00
0.000000000000e+00
0.000000000000e+00
0.000000000000e+00
0.000000000000e+00
0.000000000000e+00
0.000000000000e+00
0.000000000000e+00
0.000000000000e+00
0.000000000000e+00
0.000000000000e+00
0.000000000000e+00
0.000000000000e+00
0.000000000000e+00
0.000000000000e+00
0.000000000000e+00
0.000000000000e+00
0.000000000000e+00
0.000000000000e+00
0.000000000000e+00
0.000000000000e+00
0.000000000000e+00
0.000000000000e+00
0.000000000000e+00
0.000000000000e+00
0.000000000000e+00
0.000000000000e+00
0.000000000000e+00
0.000000000000e+00
0.000000000000e+00
0.000000000000e+00
0.000000000000e+00
0.000000000000e+00
0.000000000000e+00
0.000000000000e+00
0.000000000000e+00
0.000000000000e+00
0.000000000000e+00
0.000000000000e+00
0.000000000000e+00
0.000000000000e+00
0.000000000000e+00
0.000000000000e+00
0.000000000000e+00
0.000000000000e+00
0.000000000000e+00
0.000000000000e+00
0.000000000000e+00
0.000000000000e+00
0.000000000000e+00
0.000000000000e+00
0.000000000000e+00
0.000000000000e+00
1.505136090109e-02
1.505178032608e-02
1.505178032608e-02
1.505136090109e-02
1.505178032608e-02
1.505220249269e-02
1.505220249269e-02
1.505178032608e-02
1.505178032608e-02
1.505220249269e-02
1.505220249269e-02
1.505178032608e-02
1.505136090109e-02
1.505178032608e-02
1.505178032608e-02
1.505136090109e-02
1.505255245913e-02
1.505298042449e-02
1.505298042449e-02
1.505255245913e-02
1.505298042449e-02
1.505341167895e-02
1.505341167895e-02
1.505298042449e-02
1.505298042449e-02
1.505341167895e-02
1.505341167895e-02
1.505298042449e-02
1.505255245913e-02
1.505298042449e-02
1.505298042449e-02
1.505255245913e-02
1.505332341113e-02
1.505375269687e-02
1.505375269687e-02
1.505332341113e-02
1.505375269687e-02
1.505418556977e-02
1.505418556977e-02
1.505375269687e-02
1.505375269687e-02
1.505418556977e-02
1.505418556977e-02
1.505375269687e-02
1.505332341113e-02
1.505375269687e-02
1.505375269687e-02
1.505332341113e-02
1.505370517942e-02
1.505413037595e-02
1.505413037595e-02
1.505370517942e-02
1.505413037595e-02
1.505455897598e-02
1.505455897598e-02
1.505413037595e-02
1.505413037595e-02
1.505455897598e-02
1.505455897598e-02
1.505413037595e-02
1.505370517942e-02
1.505413037595e-02
1.505413037595e-02
1.505370517942e-02
SCALARS engineering_strain_norm float 1
LOOKUP_TABLE default
0.000000000000e+00
0.000000000000e+00
0.000000000000e+00
0.000000000000e+00
0.000000000000e+00
0.000000000000e+00
0.000000000000e+00
0.000000000000e+00
0.000000000000e+00
0.000000000000e+00
0.000000000000e+00
0.000000000000e+00
0.000000000000e+00
0.000000000000e+00
0.000000000000e+00
0.000000000000e+00
0.000000000000e+00
0.000000000000e+00
0.000000000000e+00
0.000000000000e+00
0.000000000000e+00
0.000000000000e+00
0.000000000000e+00
0.000000000000e+00
0.000000000000e+00
0.000000000000e+00
0.000000000000e+00
0.000000000000e+00
0.000000000000e+00
0.000000000000e+00
0.000000000000e+00
0.000000000000e+00
0.000000000000e+00
0.000000000000e+00
0.000000000000e+00
0.000000000000e+00
0.000000000000e+00
0.000000000000e+00
0.000000000000e+00
0.000000000000e+00
0.000000000000e+00
0.000000000000e+00
0.000000000000e+00
0.000000000000e+00
0.000000000000e+00
0.000000000000e+00
0.000000000000e+00
0.000000000000e+00
0.000000000000e+00
0.000000000000e+00
0.000000000000e+00
0.000000000000e+00
0.000000000000e+00
0.000000000000e+00
0.000000000000e+00
0.000000000000e+00
0.000000000000e+00
0.000000000000e+00
0.000000000000e+00
0.000000000000e+00
0.000000000000e+00
0.000000000000e+00
0.000000000000e+00
0.000000000000e+00
2.330051353615e-05
2.352036731888e-05
2.352036731882e-05
2.330051353605e-05
2.352036731895e-05
2.375660138878e-05
2.375660138872e-05
2.352036731879e-05
2.352036731890e-05
2.375660138871e-05
2.375660138865e-05
2.352036731879e-05
2.330051353601e-05
2.352036731872e-05
2.352036731878e-05
2.330051353596e-05
1.628442327449e-05
1.634777202359e-05
1.634777202354e-05
1.628442327436e-05
1.634777202360e-05
1.642043318127e-05
1.642043318126e-05
1.634777202348e-05
1.634777202359e-05
1.642043318128e-05
1.642043318130e-05
1.634777202354e-05
1.628442327435e-05
1.634777202349e-05
1.634777202355e-05
1.628442327432e-05
9.455778091272e-06
9.444800045927e-06
9.444800045892e-06
9.455778091200e-06
9.444800045939e-06
9.449394148953e-06
9.449394148891e-06
9.444800045847e-06
9.444800045874e-06
9.449394148922e-06
9.449394148938e-06
9.444800045857e-06
9.455778091220e-06
9.444800045819e-06
9.444800045871e-06
9.455778091186e-06
3.457629248027e-06
3.302778622146e-06
3.302778622152e-06
3.457629248028e-06
3.302778622143e-06
3.113194567598e-06
3.113194567615e-06
3.302778622096e-06
3.302778622148e-06
3.113194567604e-06
3.113194567627e-06
3.302778622118e-06
3.457629248051e-06
3.302778622083e-06
3.302778622039e-06
3.457629248007e-06
SCALARS von_mises float 1
LOOKUP_TABLE default
0.000000000000e+00
0.000000000000e+00
0.000000000000e+00
0.000000000000e+00
0.000000000000e+00
0.000000000000e+00
0.000000000000e+00
0.000000000000e+00
0.000000000000e+00
0.000000000000e+00
0.000000000000e+00
0.000000000000e+00
0.000000000000e+00
0.000000000000e+00
0.000000000000e+00
0.000000000000e+00
0.000000000000e+00
0.000000000000e+00
0.000000000000e+00
0.000000000000e+00
0.000000000000e+00
0.000000000000e+00
0.000000000000e+00
0.000000000000e+00
0.000000000000e+00
0.000000000000e+00
0.000000000000e+00
0.000000000000e+00
0.000000000000e+00
0.000000000000e+00
0.000000000000e+00
0.000000000000e+00
0.000000000000e+00
0.000000000000e+00
0.000000000000e+00
0.000000000000e+00
0.000000000000e+00
0.000000000000e+00
0.000000000000e+00
0.000000000000e+00
0.000000000000e+00
0.000000000000e+00
0.000000000000e+00
0.000000000000e+00
0.000000000000e+00
0.000000000000e+00
0.000000000000e+00
0.000000000000e+00
0.000000000000e+00
0.000000000000e+00
0.000000000000e+00
0.000000000000e+00
0.000000000000e+00
0.000000000000e+00
0.000000000000e+00
0.000000000000e+00
0.000000000000e+00
0.000000000000e+00
0.000000000000e+00
0.000000000000e+00
0.000000000000e+00
0.000000000000e+00
0.000000000000e+00
0.000000000000e+00
2.133995783690e+00
2.154732297750e+00
2.154732297745e+00
2.133995783681e+00
2.154732297757e+00
2.177197080417e+00
2.177197080412e+00
2.154732297743e+00
2.154732297753e+00
2.177197080411e+00
2.177197080406e+00
2.154732297743e+00
2.133995783677e+00
2.154732297736e+00
2.154732297741e+00
2.133995783673e+00
1.497396310362e+00
1.502871743475e+00
1.502871743470e+00
1.497396310350e+00
1.502871743475e+00
1.509366191559e+00
1.509366191558e+00
1.502871743464e+00
1.502871743474e+00
1.509366191559e+00
1.509366191561e+00
1.502871743470e+00
1.497396310350e+00
1.502871743465e+00
1.502871743470e+00
1.497396310347e+00
8.705059663353e-01
8.703246757299e-01
8.703246757273e-01
8.705059663293e-01
8.703246757307e-01
8.719500752159e-01
8.719500752108e-01
8.703246757230e-01
8.703246757253e-01
8.719500752137e-01
8.719500752154e-01
8.703246757242e-01
8.705059663306e-01
8.703246757206e-01
8.703246757254e-01
8.705059663280e-01
3.208186180291e-01
3.057363075636e-01
3.057363075647e-01
3.208186180295e-01
3.057363075623e-01
2.875552745559e-01
2.875552745580e-01
3.057363075592e-01
3.057363075632e-01
2.875552745568e-01
2.875552745590e-01
3.057363075610e-01
3.208186180319e-01
3.057363075581e-01
3.057363075537e-01
3.208186180275e-01
SCALARS sdf_gap float 1
LOOKUP_TABLE default
0.000000000000e+00
0.000000000000e+00
0.000000000000e+00
0.000000000000e+00
0.000000000000e+00
0.000000000000e+00
0.000000000000e+00
0.000000000000e+00
0.000000000000e+00
0.000000000000e+00
0.000000000000e+00
0.000000000000e+00
0.000000000000e+00
0.000000000000e+00
0.000000000000e+00
0.000000000000e+00
0.000000000000e+00
0.000000000000e+00
0.000000000000e+00
0.000000000000e+00
0.000000000000e+00
0.000000000000e+00
0.000000000000e+00
0.000000000000e+00
0.000000000000e+00
0.000000000000e+00
0.000000000000e+00
0.000000000000e+00
0.000000000000e+00
0.000000000000e+00
0.000000000000e+00
0.000000000000e+00
0.000000000000e+00
0.000000000000e+00
0.000000000000e+00
0.000000000000e+00
0.000000000000e+00
0.000000000000e+00
0.000000000000e+00
0.000000000000e+00
0.000000000000e+00
0.000000000000e+00
0.000000000000e+00
0.000000000000e+00
0.000000000000e+00
0.000000000000e+00
0.000000000000e+00
0.000000000000e+00
0.000000000000e+00
0.000000000000e+00
0.000000000000e+00
0.000000000000e+00
0.000000000000e+00
0.000000000000e+00
0.000000000000e+00
0.000000000000e+00
0.000000000000e+00
0.000000000000e+00
0.000000000000e+00
0.000000000000e+00
0.000000000000e+00
0.000000000000e+00
0.000000000000e+00
0.000000000000e+00
-5.065730347245e-05
-5.107044022799e-05
-5.107044022792e-05
-5.065730347229e-05
-5.107044022796e-05
-5.148592584101e-05
-5.148592584092e-05
-5.107044022778e-05
-5.107044022789e-05
-5.148592584090e-05
-5.148592584082e-05
-5.107044022765e-05
-5.065730347220e-05
-5.107044022769e-05
-5.107044022761e-05
-5.065730347196e-05
0.000000000000e+00
0.000000000000e+00
0.000000000000e+00
0.000000000000e+00
0.000000000000e+00
0.000000000000e+00
0.000000000000e+00
0.000000000000e+00
0.000000000000e+00
0.000000000000e+00
0.000000000000e+00
0.000000000000e+00
0.000000000000e+00
0.000000000000e+00
0.000000000000e+00
0.000000000000e+00
0.000000000000e+00
0.000000000000e+00
0.000000000000e+00
0.000000000000e+00
0.000000000000e+00
0.000000000000e+00
0.000000000000e+00
0.000000000000e+00
0.000000000000e+00
0.000000000000e+00
0.000000000000e+00
0.000000000000e+00
0.000000000000e+00
0.000000000000e+00
0.000000000000e+00
0.000000000000e+00
0.000000000000e+00
0.000000000000e+00
0.000000000000e+00
0.000000000000e+00
0.000000000000e+00
0.000000000000e+00
0.000000000000e+00
0.000000000000e+00
0.000000000000e+00
0.000000000000e+00
0.000000000000e+00
0.000000000000e+00
0.000000000000e+00
0.000000000000e+00
0.000000000000e+00
0.000000000000e+00
SCALARS contact_pressure float 1
LOOKUP_TABLE default
0.000000000000e+00
0.000000000000e+00
0.000000000000e+00
0.000000000000e+00
0.000000000000e+00
0.000000000000e+00
0.000000000000e+00
0.000000000000e+00
0.000000000000e+00
0.000000000000e+00
0.000000000000e+00
0.000000000000e+00
0.000000000000e+00
0.000000000000e+00
0.000000000000e+00
0.000000000000e+00
0.000000000000e+00
0.000000000000e+00
0.000000000000e+00
0.000000000000e+00
0.000000000000e+00
0.000000000000e+00
0.000000000000e+00
0.000000000000e+00
0.000000000000e+00
0.000000000000e+00
0.000000000000e+00
0.000000000000e+00
0.000000000000e+00
0.000000000000e+00
0.000000000000e+00
0.000000000000e+00
0.000000000000e+00
0.000000000000e+00
0.000000000000e+00
0.000000000000e+00
0.000000000000e+00
0.000000000000e+00
0.000000000000e+00
0.000000000000e+00
0.000000000000e+00
0.000000000000e+00
0.000000000000e+00
0.000000000000e+00
0.000000000000e+00
0.000000000000e+00
0.000000000000e+00
0.000000000000e+00
0.000000000000e+00
0.000000000000e+00
0.000000000000e+00
0.000000000000e+00
0.000000000000e+00
0.000000000000e+00
0.000000000000e+00
0.000000000000e+00
0.000000000000e+00
0.000000000000e+00
0.000000000000e+00
0.000000000000e+00
0.000000000000e+00
0.000000000000e+00
0.000000000000e+00
0.000000000000e+00
2.532865173623e+00
2.553522011399e+00
2.553522011396e+00
2.532865173614e+00
2.553522011398e+00
2.574296292050e+00
2.574296292046e+00
2.553522011389e+00
2.553522011395e+00
2.574296292045e+00
2.574296292041e+00
2.553522011383e+00
2.532865173610e+00
2.553522011384e+00
2.553522011380e+00
2.532865173598e+00
0.000000000000e+00
0.000000000000e+00
0.000000000000e+00
0.000000000000e+00
0.000000000000e+00
0.000000000000e+00
0.000000000000e+00
0.000000000000e+00
0.000000000000e+00
0.000000000000e+00
0.000000000000e+00
0.000000000000e+00
0.000000000000e+00
0.000000000000e+00
0.000000000000e+00
0.000000000000e+00
0.000000000000e+00
0.000000000000e+00
0.000000000000e+00
0.000000000000e+00
0.000000000000e+00
0.000000000000e+00
0.000000000000e+00
0.000000000000e+00
0.000000000000e+00
0.000000000000e+00
0.000000000000e+00
0.000000000000e+00
0.000000000000e+00
0.000000000000e+00
0.000000000000e+00
0.000000000000e+00
0.000000000000e+00
0.000000000000e+00
0.000000000000e+00
0.000000000000e+00
0.000000000000e+00
0.000000000000e+00
0.000000000000e+00
0.000000000000e+00
0.000000000000e+00
0.000000000000e+00
0.000000000000e+00
0.000000000000e+00
0.000000000000e+00
0.000000000000e+00
0.000000000000e+00
0.000000000000e+00
SCALARS active_contact float 1
LOOKUP_TABLE default
0.000000000000e+00
0.000000000000e+00
0.000000000000e+00
0.000000000000e+00
0.000000000000e+00
0.000000000000e+00
0.000000000000e+00
0.000000000000e+00
0.000000000000e+00
0.000000000000e+00
0.000000000000e+00
0.000000000000e+00
0.000000000000e+00
0.000000000000e+00
0.000000000000e+00
0.000000000000e+00
0.000000000000e+00
0.000000000000e+00
0.000000000000e+00
0.000000000000e+00
0.000000000000e+00
0.000000000000e+00
0.000000000000e+00
0.000000000000e+00
0.000000000000e+00
0.000000000000e+00
0.000000000000e+00
0.000000000000e+00
0.000000000000e+00
0.000000000000e+00
0.000000000000e+00
0.000000000000e+00
0.000000000000e+00
0.000000000000e+00
0.000000000000e+00
0.000000000000e+00
0.000000000000e+00
0.000000000000e+00
0.000000000000e+00
0.000000000000e+00
0.000000000000e+00
0.000000000000e+00
0.000000000000e+00
0.000000000000e+00
0.000000000000e+00
0.000000000000e+00
0.000000000000e+00
0.000000000000e+00
0.000000000000e+00
0.000000000000e+00
0.000000000000e+00
0.000000000000e+00
0.000000000000e+00
0.000000000000e+00
0.000000000000e+00
0.000000000000e+00
0.000000000000e+00
0.000000000000e+00
0.000000000000e+00
0.000000000000e+00
0.000000000000e+00
0.000000000000e+00
0.000000000000e+00
0.000000000000e+00
1.000000000000e+00
1.000000000000e+00
1.000000000000e+00
1.000000000000e+00
1.000000000000e+00
1.000000000000e+00
1.000000000000e+00
1.000000000000e+00
1.000000000000e+00
1.000000000000e+00
1.000000000000e+00
1.000000000000e+00
1.000000000000e+00
1.000000000000e+00
1.000000000000e+00
1.000000000000e+00
0.000000000000e+00
0.000000000000e+00
0.000000000000e+00
0.000000000000e+00
0.000000000000e+00
0.000000000000e+00
0.000000000000e+00
0.000000000000e+00
0.000000000000e+00
0.000000000000e+00
0.000000000000e+00
0.000000000000e+00
0.000000000000e+00
0.000000000000e+00
0.000000000000e+00
0.000000000000e+00
0.000000000000e+00
0.000000000000e+00
0.000000000000e+00
0.000000000000e+00
0.000000000000e+00
0.000000000000e+00
0.000000000000e+00
0.000000000000e+00
0.000000000000e+00
0.000000000000e+00
0.000000000000e+00
0.000000000000e+00
0.000000000000e+00
0.000000000000e+00
0.000000000000e+00
0.000000000000e+00
0.000000000000e+00
0.000000000000e+00
0.000000000000e+00
0.000000000000e+00
0.000000000000e+00
0.000000000000e+00
0.000000000000e+00
0.000000000000e+00
0.000000000000e+00
0.000000000000e+00
0.000000000000e+00
0.000000000000e+00
0.000000000000e+00
0.000000000000e+00
0.000000000000e+00
0.000000000000e+00
