# vtk DataFile Version 3.0
SFC long-time C3D8 dynamic frame 139 t=2.780000000000e+00
ASCII
DATASET UNSTRUCTURED_GRID
POINTS 250 float
-2.500000000000e-01 -2.500000000000e-01 0.000000000000e+00
-1.250000000000e-01 -2.500000000000e-01 0.000000000000e+00
0.000000000000e+00 -2.500000000000e-01 0.000000000000e+00
1.250000000000e-01 -2.500000000000e-01 0.000000000000e+00
2.500000000000e-01 -2.500000000000e-01 0.000000000000e+00
-2.500000000000e-01 -1.250000000000e-01 0.000000000000e+00
-1.250000000000e-01 -1.250000000000e-01 0.000000000000e+00
0.000000000000e+00 -1.250000000000e-01 0.000000000000e+00
1.250000000000e-01 -1.250000000000e-01 0.000000000000e+00
2.500000000000e-01 -1.250000000000e-01 0.000000000000e+00
-2.500000000000e-01 0.000000000000e+00 0.000000000000e+00
-1.250000000000e-01 0.000000000000e+00 0.000000000000e+00
0.000000000000e+00 0.000000000000e+00 0.000000000000e+00
1.250000000000e-01 0.000000000000e+00 0.000000000000e+00
2.500000000000e-01 0.000000000000e+00 0.000000000000e+00
-2.500000000000e-01 1.250000000000e-01 0.000000000000e+00
-1.250000000000e-01 1.250000000000e-01 0.000000000000e+00
0.000000000000e+00 1.250000000000e-01 0.000000000000e+00
1.250000000000e-01 1.250000000000e-01 0.000000000000e+00
2.500000000000e-01 1.250000000000e-01 0.000000000000e+00
-2.500000000000e-01 2.500000000000e-01 0.000000000000e+00
-1.250000000000e-01 2.500000000000e-01 0.000000000000e+00
0.000000000000e+00 2.500000000000e-01 0.000000000000e+00
1.250000000000e-01 2.500000000000e-01 0.000000000000e+00
2.500000000000e-01 2.500000000000e-01 0.000000000000e+00
-2.500000000000e-01 -2.500000000000e-01 6.000000000000e-02
-1.250000000000e-01 -2.500000000000e-01 6.000000000000e-02
0.000000000000e+00 -2.500000000000e-01 6.000000000000e-02
1.250000000000e-01 -2.500000000000e-01 6.000000000000e-02
2.500000000000e-01 -2.500000000000e-01 6.000000000000e-02
-2.500000000000e-01 -1.250000000000e-01 6.000000000000e-02
-1.250000000000e-01 -1.250000000000e-01 6.000000000000e-02
0.000000000000e+00 -1.250000000000e-01 6.000000000000e-02
1.250000000000e-01 -1.250000000000e-01 6.000000000000e-02
2.500000000000e-01 -1.250000000000e-01 6.000000000000e-02
-2.500000000000e-01 0.000000000000e+00 6.000000000000e-02
-1.250000000000e-01 0.000000000000e+00 6.000000000000e-02
0.000000000000e+00 0.000000000000e+00 6.000000000000e-02
1.250000000000e-01 0.000000000000e+00 6.000000000000e-02
2.500000000000e-01 0.000000000000e+00 6.000000000000e-02
-2.500000000000e-01 1.250000000000e-01 6.000000000000e-02
-1.250000000000e-01 1.250000000000e-01 6.000000000000e-02
0.000000000000e+00 1.250000000000e-01 6.000000000000e-02
1.250000000000e-01 1.250000000000e-01 6.000000000000e-02
2.500000000000e-01 1.250000000000e-01 6.000000000000e-02
-2.500000000000e-01 2.500000000000e-01 6.000000000000e-02
-1.250000000000e-01 2.500000000000e-01 6.000000000000e-02
0.000000000000e+00 2.500000000000e-01 6.000000000000e-02
1.250000000000e-01 2.500000000000e-01 6.000000000000e-02
2.500000000000e-01 2.500000000000e-01 6.000000000000e-02
-2.500000000000e-01 -2.500000000000e-01 1.200000000000e-01
-1.250000000000e-01 -2.500000000000e-01 1.200000000000e-01
0.000000000000e+00 -2.500000000000e-01 1.200000000000e-01
1.250000000000e-01 -2.500000000000e-01 1.200000000000e-01
2.500000000000e-01 -2.500000000000e-01 1.200000000000e-01
-2.500000000000e-01 -1.250000000000e-01 1.200000000000e-01
-1.250000000000e-01 -1.250000000000e-01 1.200000000000e-01
0.000000000000e+00 -1.250000000000e-01 1.200000000000e-01
1.250000000000e-01 -1.250000000000e-01 1.200000000000e-01
2.500000000000e-01 -1.250000000000e-01 1.200000000000e-01
-2.500000000000e-01 0.000000000000e+00 1.200000000000e-01
-1.250000000000e-01 0.000000000000e+00 1.200000000000e-01
0.000000000000e+00 0.000000000000e+00 1.200000000000e-01
1.250000000000e-01 0.000000000000e+00 1.200000000000e-01
2.500000000000e-01 0.000000000000e+00 1.200000000000e-01
-2.500000000000e-01 1.250000000000e-01 1.200000000000e-01
-1.250000000000e-01 1.250000000000e-01 1.200000000000e-01
0.000000000000e+00 1.250000000000e-01 1.200000000000e-01
1.250000000000e-01 1.250000000000e-01 1.200000000000e-01
2.500000000000e-01 1.250000000000e-01 1.200000000000e-01
-2.500000000000e-01 2.500000000000e-01 1.200000000000e-01
-1.250000000000e-01 2.500000000000e-01 1.200000000000e-01
0.000000000000e+00 2.500000000000e-01 1.200000000000e-01
1.250000000000e-01 2.500000000000e-01 1.200000000000e-01
2.500000000000e-01 2.500000000000e-01 1.200000000000e-01
-2.500000000000e-01 -2.500000000000e-01 1.800000000000e-01
-1.250000000000e-01 -2.500000000000e-01 1.800000000000e-01
0.000000000000e+00 -2.500000000000e-01 1.800000000000e-01
1.250000000000e-01 -2.500000000000e-01 1.800000000000e-01
2.500000000000e-01 -2.500000000000e-01 1.800000000000e-01
-2.500000000000e-01 -1.250000000000e-01 1.800000000000e-01
-1.250000000000e-01 -1.250000000000e-01 1.800000000000e-01
0.000000000000e+00 -1.250000000000e-01 1.800000000000e-01
1.250000000000e-01 -1.250000000000e-01 1.800000000000e-01
2.500000000000e-01 -1.250000000000e-01 1.800000000000e-01
-2.500000000000e-01 0.000000000000e+00 1.800000000000e-01
-1.250000000000e-01 0.000000000000e+00 1.800000000000e-01
0.000000000000e+00 0.000000000000e+00 1.800000000000e-01
1.250000000000e-01 0.000000000000e+00 1.800000000000e-01
2.500000000000e-01 0.000000000000e+00 1.800000000000e-01
-2.500000000000e-01 1.250000000000e-01 1.800000000000e-01
-1.250000000000e-01 1.250000000000e-01 1.800000000000e-01
0.000000000000e+00 1.250000000000e-01 1.800000000000e-01
1.250000000000e-01 1.250000000000e-01 1.800000000000e-01
2.500000000000e-01 1.250000000000e-01 1.800000000000e-01
-2.500000000000e-01 2.500000000000e-01 1.800000000000e-01
-1.250000000000e-01 2.500000000000e-01 1.800000000000e-01
0.000000000000e+00 2.500000000000e-01 1.800000000000e-01
1.250000000000e-01 2.500000000000e-01 1.800000000000e-01
2.500000000000e-01 2.500000000000e-01 1.800000000000e-01
-2.500000000000e-01 -2.500000000000e-01 2.400000000000e-01
-1.250000000000e-01 -2.500000000000e-01 2.400000000000e-01
0.000000000000e+00 -2.500000000000e-01 2.400000000000e-01
1.250000000000e-01 -2.500000000000e-01 2.400000000000e-01
2.500000000000e-01 -2.500000000000e-01 2.400000000000e-01
-2.500000000000e-01 -1.250000000000e-01 2.400000000000e-01
-1.250000000000e-01 -1.250000000000e-01 2.400000000000e-01
0.000000000000e+00 -1.250000000000e-01 2.400000000000e-01
1.250000000000e-01 -1.250000000000e-01 2.400000000000e-01
2.500000000000e-01 -1.250000000000e-01 2.400000000000e-01
-2.500000000000e-01 0.000000000000e+00 2.400000000000e-01
-1.250000000000e-01 0.000000000000e+00 2.400000000000e-01
0.000000000000e+00 0.000000000000e+00 2.400000000000e-01
1.250000000000e-01 0.000000000000e+00 2.400000000000e-01
2.500000000000e-01 0.000000000000e+00 2.400000000000e-01
-2.500000000000e-01 1.250000000000e-01 2.400000000000e-01
-1.250000000000e-01 1.250000000000e-01 2.400000000000e-01
0.000000000000e+00 1.250000000000e-01 2.400000000000e-01
1.250000000000e-01 1.250000000000e-01 2.400000000000e-01
2.500000000000e-01 1.250000000000e-01 2.400000000000e-01
-2.500000000000e-01 2.500000000000e-01 2.400000000000e-01
-1.250000000000e-01 2.500000000000e-01 2.400000000000e-01
0.000000000000e+00 2.500000000000e-01 2.400000000000e-01
1.250000000000e-01 2.500000000000e-01 2.400000000000e-01
2.500000000000e-01 2.500000000000e-01 2.400000000000e-01
-2.500000052056e-01 -2.500000053616e-01 2.454423780406e-01
-1.250000031552e-01 -2.500000037374e-01 2.454423946871e-01
2.422478428596e-10 -2.500000003870e-01 2.454424030959e-01
1.250000036397e-01 -2.500000037376e-01 2.454423951517e-01
2.500000056901e-01 -2.500000053619e-01 2.454423789698e-01
-2.500000035812e-01 -1.250000033112e-01 2.454423945390e-01
-1.250000027185e-01 -1.250000028747e-01 2.454424119053e-01
2.423401383291e-10 -1.250000007108e-01 2.454424206467e-01
1.250000032031e-01 -1.250000028748e-01 2.454424123699e-01
2.500000040659e-01 -1.250000033115e-01 2.454423954682e-01
-2.500000002306e-01 8.623543880088e-11 2.454424027997e-01
-1.250000005545e-01 8.614302857404e-11 2.454424204986e-01
2.424324795761e-10 8.605064720265e-11 2.454424293666e-01
1.250000010393e-01 8.595830168265e-11 2.454424209632e-01
2.500000007154e-01 8.586595326275e-11 2.454424037289e-01
-2.500000035810e-01 1.250000034836e-01 2.454423947075e-01
-1.250000027183e-01 1.250000030469e-01 2.454424120737e-01
2.425249259046e-10 1.250000008829e-01 2.454424208151e-01
1.250000032033e-01 1.250000030468e-01 2.454424125383e-01
2.500000040661e-01 1.250000034833e-01 2.454423956366e-01
-2.500000052052e-01 2.500000055340e-01 2.454423783775e-01
-1.250000031548e-01 2.500000039097e-01 2.454423950240e-01
2.426173895201e-10 2.500000005591e-01 2.454424034327e-01
1.250000036400e-01 2.500000039095e-01 2.454423954885e-01
2.500000056904e-01 2.500000055337e-01 2.454423793066e-01
-2.500000126865e-01 -2.500000127655e-01 3.104423774789e-01
-1.250000100555e-01 -2.500000110783e-01 3.104423929571e-01
1.214590417475e-10 -2.500000074888e-01 3.104424004856e-01
1.250000102984e-01 -2.500000110785e-01 3.104423934216e-01
2.500000129294e-01 -2.500000127659e-01 3.104423784080e-01
-2.500000109991e-01 -1.250000101345e-01 3.104423928090e-01
-1.250000098697e-01 -1.250000099489e-01 3.104424086078e-01
1.215513485128e-10 -1.250000079137e-01 3.104424163264e-01
1.250000101128e-01 -1.250000099491e-01 3.104424090724e-01
2.500000112422e-01 -1.250000101349e-01 3.104423937381e-01
-2.500000074095e-01 4.244574908775e-11 3.104424001894e-01
-1.250000078343e-01 4.235334498236e-11 3.104424161783e-01
1.216437008091e-10 4.226096122253e-11 3.104424241231e-01
1.250000080776e-01 4.216859792524e-11 3.104424166429e-01
2.500000076528e-01 4.207624520297e-11 3.104424011186e-01
-2.500000109989e-01 1.250000102194e-01 3.104423929774e-01
-1.250000098695e-01 1.250000100336e-01 3.104424087763e-01
1.217361174629e-10 1.250000079982e-01 3.104424164948e-01
1.250000101130e-01 1.250000100335e-01 3.104424092408e-01
2.500000112424e-01 1.250000102190e-01 3.104423939066e-01
-2.500000126861e-01 2.500000128504e-01 3.104423778157e-01
-1.250000100551e-01 2.500000111630e-01 3.104423932939e-01
1.218285711753e-10 2.500000075734e-01 3.104424008224e-01
1.250000102988e-01 2.500000111628e-01 3.104423937585e-01
2.500000129298e-01 2.500000128500e-01 3.104423787449e-01
-2.500000185310e-01 -2.500000185330e-01 3.754423815610e-01
-1.250000158530e-01 -2.500000165769e-01 3.754423940835e-01
6.703223309678e-13 -2.500000125444e-01 3.754423991812e-01
1.250000158543e-01 -2.500000165771e-01 3.754423945481e-01
2.500000185323e-01 -2.500000185334e-01 3.754423824902e-01
-2.500000165747e-01 -1.250000158550e-01 3.754423939354e-01
-1.250000157835e-01 -1.250000157857e-01 3.754424061533e-01
7.626041947219e-13 -1.250000137615e-01 3.754424110446e-01
1.250000157850e-01 -1.250000157858e-01 3.754424066179e-01
2.500000165763e-01 -1.250000158553e-01 3.754423948646e-01
-2.500000125420e-01 -1.343911017016e-12 3.754423988851e-01
-1.250000137592e-01 -1.436324779432e-12 3.754424108966e-01
8.549589015066e-13 -1.528712604574e-12 3.754424157910e-01
1.250000137609e-01 -1.621081796303e-12 3.754424113611e-01
2.500000125437e-01 -1.713428394673e-12 3.754423998142e-01
-2.500000165746e-01 1.250000158523e-01 3.754423941039e-01
-1.250000157833e-01 1.250000157828e-01 3.754424063217e-01
9.473617164530e-13 1.250000137585e-01 3.754424112131e-01
1.250000157852e-01 1.250000157826e-01 3.754424067863e-01
2.500000165764e-01 1.250000158519e-01 3.754423950330e-01
-2.500000185306e-01 2.500000185303e-01 3.754423818979e-01
-1.250000158526e-01 2.500000165741e-01 3.754423944203e-01
1.039840129454e-12 2.500000125413e-01 3.754423995181e-01
1.250000158547e-01 2.500000165739e-01 3.754423948849e-01
2.500000185327e-01 2.500000185300e-01 3.754423828270e-01
-2.500000246750e-01 -2.500000246000e-01 4.404423873552e-01
-1.250000197525e-01 -2.500000222294e-01 4.404423963850e-01
-1.201187802609e-10 -2.500000176684e-01 4.404423985707e-01
1.250000195122e-01 -2.500000222296e-01 4.404423968496e-01
2.500000244348e-01 -2.500000246004e-01 4.404423882844e-01
-2.500000223042e-01 -1.250000196775e-01 4.404423962369e-01
-1.250000196792e-01 -1.250000196044e-01 4.404424042039e-01
-1.200265086790e-10 -1.250000174220e-01 4.404424056864e-01
1.250000194392e-01 -1.250000196046e-01 4.404424046685e-01
2.500000220642e-01 -1.250000196778e-01 4.404423971661e-01
-2.500000177430e-01 -4.513371101150e-11 4.404423982745e-01
-1.250000174967e-01 -4.522612829838e-11 4.404424055384e-01
-1.199341526499e-10 -4.531851951909e-11 4.404424066826e-01
1.250000172568e-01 -4.541089574144e-11 4.404424060029e-01
2.500000175031e-01 -4.550323941544e-11 4.404423992037e-01
-2.500000223040e-01 1.250000195872e-01 4.404423964054e-01
-1.250000196791e-01 1.250000195140e-01 4.404424043724e-01
-1.198417603528e-10 1.250000173314e-01 4.404424058549e-01
1.250000194394e-01 1.250000195138e-01 4.404424048369e-01
2.500000220644e-01 1.250000195868e-01 4.404423973345e-01
-2.500000246747e-01 2.500000245098e-01 4.404423876921e-01
-1.250000197521e-01 2.500000221390e-01 4.404423967219e-01
-1.197492752741e-10 2.500000175777e-01 4.404423989075e-01
1.250000195126e-01 2.500000221388e-01 4.404423971864e-01
2.500000244352e-01 2.500000245094e-01 4.404423886212e-01
-2.500000293612e-01 -2.500000292092e-01 5.054423888908e-01
-1.250000217613e-01 -2.500000261998e-01 5.054423953538e-01
-2.409081684388e-10 -2.500000210670e-01 5.054423953072e-01
1.250000212795e-01 -2.500000261999e-01 5.054423958184e-01
2.500000288794e-01 -2.500000292096e-01 5.054423898199e-01
-2.500000263516e-01 -1.250000216093e-01 5.054423952058e-01
-1.250000212967e-01 -1.250000211449e-01 5.054423998643e-01
-2.408158725100e-10 -1.250000185844e-01 5.054423986858e-01
1.250000208151e-01 -1.250000211451e-01 5.054424003289e-01
2.500000258699e-01 -1.250000216097e-01 5.054423961349e-01
-2.500000212186e-01 -8.892361126759e-11 5.054423950110e-01
-1.250000187360e-01 -8.901602312540e-11 5.054423985377e-01
-2.407234993871e-10 -8.910840798174e-11 5.054423968406e-01
1.250000182545e-01 -8.920080644931e-11 5.054423990023e-01
2.500000207372e-01 -8.929315637728e-11 5.054423959402e-01
-2.500000263514e-01 1.250000214315e-01 5.054423953742e-01
-1.250000212966e-01 1.250000209669e-01 5.054424000328e-01
-2.406311429638e-10 1.250000184061e-01 5.054423988542e-01
1.250000208153e-01 1.250000209667e-01 5.054424004973e-01
2.500000258701e-01 1.250000214311e-01 5.054423963033e-01
-2.500000293608e-01 2.500000290314e-01 5.054423892276e-01
-1.250000217609e-01 2.500000260217e-01 5.054423956907e-01
-2.405386835261e-10 2.500000208888e-01 5.054423956440e-01
1.250000212799e-01 2.500000260215e-01 5.054423961553e-01
2.500000288798e-01 2.500000290310e-01 5.054423901568e-01
CELLS 128 1152
8 0 1 6 5 25 26 31 30
8 1 2 7 6 26 27 32 31
8 2 3 8 7 27 28 33 32
8 3 4 9 8 28 29 34 33
8 5 6 11 10 30 31 36 35
8 6 7 12 11 31 32 37 36
8 7 8 13 12 32 33 38 37
8 8 9 14 13 33 34 39 38
8 10 11 16 15 35 36 41 40
8 11 12 17 16 36 37 42 41
8 12 13 18 17 37 38 43 42
8 13 14 19 18 38 39 44 43
8 15 16 21 20 40 41 46 45
8 16 17 22 21 41 42 47 46
8 17 18 23 22 42 43 48 47
8 18 19 24 23 43 44 49 48
8 25 26 31 30 50 51 56 55
8 26 27 32 31 51 52 57 56
8 27 28 33 32 52 53 58 57
8 28 29 34 33 53 54 59 58
8 30 31 36 35 55 56 61 60
8 31 32 37 36 56 57 62 61
8 32 33 38 37 57 58 63 62
8 33 34 39 38 58 59 64 63
8 35 36 41 40 60 61 66 65
8 36 37 42 41 61 62 67 66
8 37 38 43 42 62 63 68 67
8 38 39 44 43 63 64 69 68
8 40 41 46 45 65 66 71 70
8 41 42 47 46 66 67 72 71
8 42 43 48 47 67 68 73 72
8 43 44 49 48 68 69 74 73
8 50 51 56 55 75 76 81 80
8 51 52 57 56 76 77 82 81
8 52 53 58 57 77 78 83 82
8 53 54 59 58 78 79 84 83
8 55 56 61 60 80 81 86 85
8 56 57 62 61 81 82 87 86
8 57 58 63 62 82 83 88 87
8 58 59 64 63 83 84 89 88
8 60 61 66 65 85 86 91 90
8 61 62 67 66 86 87 92 91
8 62 63 68 67 87 88 93 92
8 63 64 69 68 88 89 94 93
8 65 66 71 70 90 91 96 95
8 66 67 72 71 91 92 97 96
8 67 68 73 72 92 93 98 97
8 68 69 74 73 93 94 99 98
8 75 76 81 80 100 101 106 105
8 76 77 82 81 101 102 107 106
8 77 78 83 82 102 103 108 107
8 78 79 84 83 103 104 109 108
8 80 81 86 85 105 106 111 110
8 81 82 87 86 106 107 112 111
8 82 83 88 87 107 108 113 112
8 83 84 89 88 108 109 114 113
8 85 86 91 90 110 111 116 115
8 86 87 92 91 111 112 117 116
8 87 88 93 92 112 113 118 117
8 88 89 94 93 113 114 119 118
8 90 91 96 95 115 116 121 120
8 91 92 97 96 116 117 122 121
8 92 93 98 97 117 118 123 122
8 93 94 99 98 118 119 124 123
8 125 126 131 130 150 151 156 155
8 126 127 132 131 151 152 157 156
8 127 128 133 132 152 153 158 157
8 128 129 134 133 153 154 159 158
8 130 131 136 135 155 156 161 160
8 131 132 137 136 156 157 162 161
8 132 133 138 137 157 158 163 162
8 133 134 139 138 158 159 164 163
8 135 136 141 140 160 161 166 165
8 136 137 142 141 161 162 167 166
8 137 138 143 142 162 163 168 167
8 138 139 144 143 163 164 169 168
8 140 141 146 145 165 166 171 170
8 141 142 147 146 166 167 172 171
8 142 143 148 147 167 168 173 172
8 143 144 149 148 168 169 174 173
8 150 151 156 155 175 176 181 180
8 151 152 157 156 176 177 182 181
8 152 153 158 157 177 178 183 182
8 153 154 159 158 178 179 184 183
8 155 156 161 160 180 181 186 185
8 156 157 162 161 181 182 187 186
8 157 158 163 162 182 183 188 187
8 158 159 164 163 183 184 189 188
8 160 161 166 165 185 186 191 190
8 161 162 167 166 186 187 192 191
8 162 163 168 167 187 188 193 192
8 163 164 169 168 188 189 194 193
8 165 166 171 170 190 191 196 195
8 166 167 172 171 191 192 197 196
8 167 168 173 172 192 193 198 197
8 168 169 174 173 193 194 199 198
8 175 176 181 180 200 201 206 205
8 176 177 182 181 201 202 207 206
8 177 178 183 182 202 203 208 207
8 178 179 184 183 203 204 209 208
8 180 181 186 185 205 206 211 210
8 181 182 187 186 206 207 212 211
8 182 183 188 187 207 208 213 212
8 183 184 189 188 208 209 214 213
8 185 186 191 190 210 211 216 215
8 186 187 192 191 211 212 217 216
8 187 188 193 192 212 213 218 217
8 188 189 194 193 213 214 219 218
8 190 191 196 195 215 216 221 220
8 191 192 197 196 216 217 222 221
8 192 193 198 197 217 218 223 222
8 193 194 199 198 218 219 224 223
8 200 201 206 205 225 226 231 230
8 201 202 207 206 226 227 232 231
8 202 203 208 207 227 228 233 232
8 203 204 209 208 228 229 234 233
8 205 206 211 210 230 231 236 235
8 206 207 212 211 231 232 237 236
8 207 208 213 212 232 233 238 237
8 208 209 214 213 233 234 239 238
8 210 211 216 215 235 236 241 240
8 211 212 217 216 236 237 242 241
8 212 213 218 217 237 238 243 242
8 213 214 219 218 238 239 244 243
8 215 216 221 220 240 241 246 245
8 216 217 222 221 241 242 247 246
8 217 218 223 222 242 243 248 247
8 218 219 224 223 243 244 249 248
CELL_TYPES 128
12
12
12
12
12
12
12
12
12
12
12
12
12
12
12
12
12
12
12
12
12
12
12
12
12
12
12
12
12
12
12
12
12
12
12
12
12
12
12
12
12
12
12
12
12
12
12
12
12
12
12
12
12
12
12
12
12
12
12
12
12
12
12
12
12
12
12
12
12
12
12
12
12
12
12
12
12
12
12
12
12
12
12
12
12
12
12
12
12
12
12
12
12
12
12
12
12
12
12
12
12
12
12
12
12
12
12
12
12
12
12
12
12
12
12
12
12
12
12
12
12
12
12
12
12
12
12
12
POINT_DATA 250
VECTORS displacement float
0.000000000000e+00 0.000000000000e+00 0.000000000000e+00
0.000000000000e+00 0.000000000000e+00 0.000000000000e+00
0.000000000000e+00 0.000000000000e+00 0.000000000000e+00
0.000000000000e+00 0.000000000000e+00 0.000000000000e+00
0.000000000000e+00 0.000000000000e+00 0.000000000000e+00
0.000000000000e+00 0.000000000000e+00 0.000000000000e+00
0.000000000000e+00 0.000000000000e+00 0.000000000000e+00
0.000000000000e+00 0.000000000000e+00 0.000000000000e+00
0.000000000000e+00 0.000000000000e+00 0.000000000000e+00
0.000000000000e+00 0.000000000000e+00 0.000000000000e+00
0.000000000000e+00 0.000000000000e+00 0.000000000000e+00
0.000000000000e+00 0.000000000000e+00 0.000000000000e+00
0.000000000000e+00 0.000000000000e+00 0.000000000000e+00
0.000000000000e+00 0.000000000000e+00 0.000000000000e+00
0.000000000000e+00 0.000000000000e+00 0.000000000000e+00
0.000000000000e+00 0.000000000000e+00 0.000000000000e+00
0.000000000000e+00 0.000000000000e+00 0.000000000000e+00
0.000000000000e+00 0.000000000000e+00 0.000000000000e+00
0.000000000000e+00 0.000000000000e+00 0.000000000000e+00
0.000000000000e+00 0.000000000000e+00 0.000000000000e+00
0.000000000000e+00 0.000000000000e+00 0.000000000000e+00
0.000000000000e+00 0.000000000000e+00 0.000000000000e+00
0.000000000000e+00 0.000000000000e+00 0.000000000000e+00
0.000000000000e+00 0.000000000000e+00 0.000000000000e+00
0.000000000000e+00 0.000000000000e+00 0.000000000000e+00
0.000000000000e+00 0.000000000000e+00 0.000000000000e+00
0.000000000000e+00 0.000000000000e+00 0.000000000000e+00
0.000000000000e+00 0.000000000000e+00 0.000000000000e+00
0.000000000000e+00 0.000000000000e+00 0.000000000000e+00
0.000000000000e+00 0.000000000000e+00 0.000000000000e+00
0.000000000000e+00 0.000000000000e+00 0.000000000000e+00
0.000000000000e+00 0.000000000000e+00 0.000000000000e+00
0.000000000000e+00 0.000000000000e+00 0.000000000000e+00
0.000000000000e+00 0.000000000000e+00 0.000000000000e+00
0.000000000000e+00 0.000000000000e+00 0.000000000000e+00
0.000000000000e+00 0.000000000000e+00 0.000000000000e+00
0.000000000000e+00 0.000000000000e+00 0.000000000000e+00
0.000000000000e+00 0.000000000000e+00 0.000000000000e+00
0.000000000000e+00 0.000000000000e+00 0.000000000000e+00
0.000000000000e+00 0.000000000000e+00 0.000000000000e+00
0.000000000000e+00 0.000000000000e+00 0.000000000000e+00
0.000000000000e+00 0.000000000000e+00 0.000000000000e+00
0.000000000000e+00 0.000000000000e+00 0.000000000000e+00
0.000000000000e+00 0.000000000000e+00 0.000000000000e+00
0.000000000000e+00 0.000000000000e+00 0.000000000000e+00
0.000000000000e+00 0.000000000000e+00 0.000000000000e+00
0.000000000000e+00 0.000000000000e+00 0.000000000000e+00
0.000000000000e+00 0.000000000000e+00 0.000000000000e+00
0.000000000000e+00 0.000000000000e+00 0.000000000000e+00
0.000000000000e+00 0.000000000000e+00 0.000000000000e+00
0.000000000000e+00 0.000000000000e+00 0.000000000000e+00
0.000000000000e+00 0.000000000000e+00 0.000000000000e+00
0.000000000000e+00 0.000000000000e+00 0.000000000000e+00
0.000000000000e+00 0.000000000000e+00 0.000000000000e+00
0.000000000000e+00 0.000000000000e+00 0.000000000000e+00
0.000000000000e+00 0.000000000000e+00 0.000000000000e+00
0.000000000000e+00 0.000000000000e+00 0.000000000000e+00
0.000000000000e+00 0.000000000000e+00 0.000000000000e+00
0.000000000000e+00 0.000000000000e+00 0.000000000000e+00
0.000000000000e+00 0.000000000000e+00 0.000000000000e+00
0.000000000000e+00 0.000000000000e+00 0.000000000000e+00
0.000000000000e+00 0.000000000000e+00 0.000000000000e+00
0.000000000000e+00 0.000000000000e+00 0.000000000000e+00
0.000000000000e+00 0.000000000000e+00 0.000000000000e+00
0.000000000000e+00 0.000000000000e+00 0.000000000000e+00
0.000000000000e+00 0.000000000000e+00 0.000000000000e+00
0.000000000000e+00 0.000000000000e+00 0.000000000000e+00
0.000000000000e+00 0.000000000000e+00 0.000000000000e+00
0.000000000000e+00 0.000000000000e+00 0.000000000000e+00
0.000000000000e+00 0.000000000000e+00 0.000000000000e+00
0.000000000000e+00 0.000000000000e+00 0.000000000000e+00
0.000000000000e+00 0.000000000000e+00 0.000000000000e+00
0.000000000000e+00 0.000000000000e+00 0.000000000000e+00
0.000000000000e+00 0.000000000000e+00 0.000000000000e+00
0.000000000000e+00 0.000000000000e+00 0.000000000000e+00
0.000000000000e+00 0.000000000000e+00 0.000000000000e+00
0.000000000000e+00 0.000000000000e+00 0.000000000000e+00
0.000000000000e+00 0.000000000000e+00 0.000000000000e+00
0.000000000000e+00 0.000000000000e+00 0.000000000000e+00
0.000000000000e+00 0.000000000000e+00 0.000000000000e+00
0.000000000000e+00 0.000000000000e+00 0.000000000000e+00
0.000000000000e+00 0.000000000000e+00 0.000000000000e+00
0.000000000000e+00 0.000000000000e+00 0.000000000000e+00
0.000000000000e+00 0.000000000000e+00 0.000000000000e+00
0.000000000000e+00 0.000000000000e+00 0.000000000000e+00
0.000000000000e+00 0.000000000000e+00 0.000000000000e+00
0.000000000000e+00 0.000000000000e+00 0.000000000000e+00
0.000000000000e+00 0.000000000000e+00 0.000000000000e+00
0.000000000000e+00 0.000000000000e+00 0.000000000000e+00
0.000000000000e+00 0.000000000000e+00 0.000000000000e+00
0.000000000000e+00 0.000000000000e+00 0.000000000000e+00
0.000000000000e+00 0.000000000000e+00 0.000000000000e+00
0.000000000000e+00 0.000000000000e+00 0.000000000000e+00
0.000000000000e+00 0.000000000000e+00 0.000000000000e+00
0.000000000000e+00 0.000000000000e+00 0.000000000000e+00
0.000000000000e+00 0.000000000000e+00 0.000000000000e+00
0.000000000000e+00 0.000000000000e+00 0.000000000000e+00
0.000000000000e+00 0.000000000000e+00 0.000000000000e+00
0.000000000000e+00 0.000000000000e+00 0.000000000000e+00
0.000000000000e+00 0.000000000000e+00 0.000000000000e+00
0.000000000000e+00 0.000000000000e+00 0.000000000000e+00
0.000000000000e+00 0.000000000000e+00 0.000000000000e+00
0.000000000000e+00 0.000000000000e+00 0.000000000000e+00
0.000000000000e+00 0.000000000000e+00 0.000000000000e+00
0.000000000000e+00 0.000000000000e+00 0.000000000000e+00
0.000000000000e+00 0.000000000000e+00 0.000000000000e+00
0.000000000000e+00 0.000000000000e+00 0.000000000000e+00
0.000000000000e+00 0.000000000000e+00 0.000000000000e+00
0.000000000000e+00 0.000000000000e+00 0.000000000000e+00
0.000000000000e+00 0.000000000000e+00 0.000000000000e+00
0.000000000000e+00 0.000000000000e+00 0.000000000000e+00
0.000000000000e+00 0.000000000000e+00 0.000000000000e+00
0.000000000000e+00 0.000000000000e+00 0.000000000000e+00
0.000000000000e+00 0.000000000000e+00 0.000000000000e+00
0.000000000000e+00 0.000000000000e+00 0.000000000000e+00
0.000000000000e+00 0.000000000000e+00 0.000000000000e+00
0.000000000000e+00 0.000000000000e+00 0.000000000000e+00
0.000000000000e+00 0.000000000000e+00 0.000000000000e+00
0.000000000000e+00 0.000000000000e+00 0.000000000000e+00
0.000000000000e+00 0.000000000000e+00 0.000000000000e+00
0.000000000000e+00 0.000000000000e+00 0.000000000000e+00
0.000000000000e+00 0.000000000000e+00 0.000000000000e+00
0.000000000000e+00 0.000000000000e+00 0.000000000000e+00
0.000000000000e+00 0.000000000000e+00 0.000000000000e+00
0.000000000000e+00 0.000000000000e+00 0.000000000000e+00
-5.205565936091e-09 -5.361577887506e-09 -9.557621959363e-03
-3.155159196130e-09 -3.737397642247e-09 -9.557605312884e-03
2.422478428596e-10 -3.869549953043e-10 -9.557596904144e-03
3.639654041859e-09 -3.737582563409e-09 -9.557604848311e-03
5.690059912071e-09 -5.361947099228e-09 -9.557621030219e-03
-3.581201207894e-09 -3.311171434445e-09 -9.557605460959e-03
-2.718453932426e-09 -2.874650735962e-09 -9.557588094682e-03
2.423401383291e-10 -7.108390055093e-10 -9.557579353347e-03
3.203133238227e-09 -2.874835463838e-09 -9.557587630109e-03
4.065879524935e-09 -3.311540624423e-09 -9.557604531814e-03
-2.305737689771e-10 8.623543880088e-11 -9.557597200294e-03
-5.544574752624e-10 8.614302857404e-11 -9.557579501422e-03
2.424324795761e-10 8.605064720265e-11 -9.557570633432e-03
1.039321458512e-09 8.595830168265e-11 -9.557579036850e-03
7.154367928330e-10 8.586595326275e-11 -9.557596271150e-03
-3.581016493700e-09 3.483642005390e-09 -9.557605292537e-03
-2.718269144752e-09 3.046936451658e-09 -9.557587926259e-03
2.425249259046e-10 8.829399494327e-10 -9.557579184925e-03
3.203318019554e-09 3.046751710124e-09 -9.557587461686e-03
4.066064377253e-09 3.483272220058e-09 -9.557604363392e-03
-5.205196278036e-09 5.534048147770e-09 -9.557621622519e-03
-3.154789536553e-09 3.909683002958e-09 -9.557604976040e-03
2.426173895201e-10 5.590555983681e-10 -9.557596567300e-03
3.640023479357e-09 3.909498448074e-09 -9.557604511467e-03
5.690429351763e-09 5.533678371436e-09 -9.557620693375e-03
-1.268650122583e-08 -1.276551435199e-08 -9.557622521096e-03
-1.005550276202e-08 -1.107832570651e-08 -9.557607042934e-03
1.214590417475e-10 -7.488847799824e-09 -9.557599514427e-03
1.029842035808e-08 -1.107851039085e-08 -9.557606578361e-03
1.292941816335e-08 -1.276588323180e-08 -9.557621591951e-03
-1.099912814618e-08 -1.013451601324e-08 -9.557607191009e-03
-9.869730968325e-09 -9.948928789792e-09 -9.557591392159e-03
1.215513485128e-10 -7.913727431808e-09 -9.557583673638e-03
1.011283303205e-08 -9.949113477289e-09 -9.557590927585e-03
1.124222939349e-08 -1.013488516143e-08 -9.557606261864e-03
-7.409465526896e-09 4.244574908775e-11 -9.557599810577e-03
-7.834344898940e-09 4.235334498236e-11 -9.557583821713e-03
1.216437008091e-10 4.226096122253e-11 -9.557575876903e-03
8.077631642864e-09 4.216859792524e-11 -9.557583357140e-03
7.652751448861e-09 4.207624520297e-11 -9.557598881432e-03
-1.099894334759e-08 1.021940733733e-08 -9.557607022587e-03
-9.869546175372e-09 1.003363525289e-08 -9.557591223736e-03
1.217361174629e-10 7.998249116555e-09 -9.557583505216e-03
1.011301778005e-08 1.003345044774e-08 -9.557590759163e-03
1.124241414205e-08 1.021903747751e-08 -9.557606093442e-03
-1.268613146982e-08 1.285040543545e-08 -9.557622184253e-03
-1.005513310397e-08 1.116303187931e-08 -9.557606706090e-03
1.218285711753e-10 7.573369187931e-09 -9.557599177583e-03
1.029878975994e-08 1.116284707017e-08 -9.557606241517e-03
1.292978746695e-08 1.285003531130e-08 -9.557621255107e-03
-1.853099596437e-08 -1.853301016038e-08 -9.557618438962e-03
-1.585295333897e-08 -1.657693422058e-08 -9.557605916497e-03
6.703223309678e-13 -1.254437050247e-08 -9.557600818789e-03
1.585429364725e-08 -1.657711869926e-08 -9.557605451923e-03
1.853233559959e-08 -1.853337877623e-08 -9.557617509817e-03
-1.657473561434e-08 -1.585496757897e-08 -9.557606064572e-03
-1.578345755854e-08 -1.578565636630e-08 -9.557593846698e-03
7.626041947219e-13 -1.376154871240e-08 -9.557588955366e-03
1.578498231306e-08 -1.578584104520e-08 -9.557593382124e-03
1.657625953975e-08 -1.585533673176e-08 -9.557605135427e-03
-1.254198726290e-08 -1.343911017016e-12 -9.557601114940e-03
-1.375916520108e-08 -1.436324779432e-12 -9.557589103442e-03
8.549589015066e-13 -1.528712604574e-12 -9.557584209018e-03
1.376087462579e-08 -1.621081796303e-12 -9.557588638868e-03
1.254369582954e-08 -1.713428394673e-12 -9.557600185794e-03
-1.657455075318e-08 1.585227963450e-08 -9.557605896150e-03
-1.578327277125e-08 1.578278355133e-08 -9.557593678275e-03
9.473617164530e-13 1.375849111120e-08 -9.557588786944e-03
1.578516704226e-08 1.578259871663e-08 -9.557593213702e-03
1.657644419833e-08 1.585190975781e-08 -9.557604967004e-03
-1.853062612343e-08 1.853032197394e-08 -9.557618102118e-03
-1.585258369290e-08 1.657406110415e-08 -9.557605579653e-03
1.039840129454e-12 1.254131259155e-08 -9.557600481945e-03
1.585466303270e-08 1.657387607215e-08 -9.557605115079e-03
1.853270478733e-08 1.852995156139e-08 -9.557617172972e-03
-2.467502033117e-08 -2.460003538587e-08 -9.557612644751e-03
-1.975245625433e-08 -2.222942073096e-08 -9.557603614979e-03
-1.201187802609e-10 -1.766835560272e-08 -9.557601429330e-03
1.951221857601e-08 -2.222960517007e-08 -9.557603150404e-03
2.443478231216e-08 -2.460040405631e-08 -9.557611715604e-03
-2.230422121813e-08 -1.967747125971e-08 -9.557603763054e-03
-1.967924572749e-08 -1.960444531038e-08 -9.557595796067e-03
-1.200265086790e-10 -1.742203699404e-08 -9.557594313559e-03
1.943919250965e-08 -1.960462997643e-08 -9.557595331493e-03
2.206416755415e-08 -1.967784042312e-08 -9.557602833907e-03
-1.774297147887e-08 -4.513371101150e-11 -9.557601725481e-03
-1.749665271368e-08 -4.522612829838e-11 -9.557594461635e-03
-1.199341526499e-10 -4.531851951909e-11 -9.557593317352e-03
1.725678415686e-08 -4.541089574144e-11 -9.557593997061e-03
1.750310242901e-08 -4.550323941544e-11 -9.557600796335e-03
-2.230403635216e-08 1.958720379298e-08 -9.557603594631e-03
-1.967906094578e-08 1.951399297937e-08 -9.557595627644e-03
-1.198417603528e-10 1.733139986638e-08 -9.557594145137e-03
1.943937721953e-08 1.951380810783e-08 -9.557595163070e-03
2.206435217979e-08 1.958683390676e-08 -9.557602665485e-03
-2.467465052863e-08 2.450976779223e-08 -9.557612307907e-03
-1.975208661953e-08 2.213896823729e-08 -9.557603278134e-03
-1.197492752741e-10 1.757771829307e-08 -9.557601092486e-03
1.951258794716e-08 2.213878313826e-08 -9.557602813560e-03
2.443515150671e-08 2.450939741761e-08 -9.557611378760e-03
-2.936120156446e-08 -2.920921746085e-08 -9.557611109229e-03
-2.176131638410e-08 -2.619976351437e-08 -9.557604646158e-03
-2.409081684388e-10 -2.106701805378e-08 -9.557604692841e-03
2.127950039032e-08 -2.619994788584e-08 -9.557604181583e-03
2.887938582338e-08 -2.920958615955e-08 -9.557610180081e-03
-2.635156312017e-08 -2.160933207405e-08 -9.557604794233e-03
-2.129674104406e-08 -2.114494131795e-08 -9.557600135657e-03
-2.408158725100e-10 -1.858436022181e-08 -9.557601314218e-03
2.081510954723e-08 -2.114512592906e-08 -9.557599671083e-03
2.586993178067e-08 -2.160970117331e-08 -9.557603865086e-03
-2.121863305315e-08 -8.892361126759e-11 -9.557604988993e-03
-1.873597525710e-08 -8.901602312540e-11 -9.557601462293e-03
-2.407234993871e-10 -8.910840798174e-11 -9.557603159428e-03
1.825452845182e-08 -8.920080644931e-11 -9.557600997719e-03
2.073718635311e-08 -8.929315637728e-11 -9.557604059846e-03
-2.635137823541e-08 2.143148497209e-08 -9.557604625810e-03
-2.129655624793e-08 2.096690936234e-08 -9.557599967234e-03
-2.406311429638e-10 1.840614346667e-08 -9.557601145795e-03
2.081529421981e-08 2.096672441071e-08 -9.557599502660e-03
2.587011637754e-08 2.143111498631e-08 -9.557603696663e-03
-2.936083177711e-08 2.903137044653e-08 -9.557610772384e-03
-2.176094674379e-08 2.602173162005e-08 -9.557604309313e-03
-2.405386835261e-10 2.088880132529e-08 -9.557604355997e-03
2.127986972002e-08 2.602154643093e-08 -9.557603844739e-03
2.887975501005e-08 2.903100006191e-08 -9.557609843237e-03
SCALARS displacement_magnitude float 1
LOOKUP_TABLE default
0.000000000000e+00
0.000000000000e+00
0.000000000000e+00
0.000000000000e+00
0.000000000000e+00
0.000000000000e+00
0.000000000000e+00
0.000000000000e+00
0.000000000000e+00
0.000000000000e+00
0.000000000000e+00
0.000000000000e+00
0.000000000000e+00
0.000000000000e+00
0.000000000000e+00
0.000000000000e+00
0.000000000000e+00
0.000000000000e+00
0.000000000000e+00
0.000000000000e+00
0.000000000000e+00
0.000000000000e+00
0.000000000000e+00
0.000000000000e+00
0.000000000000e+00
0.000000000000e+00
0.000000000000e+00
0.000000000000e+00
0.000000000000e+00
0.000000000000e+00
0.000000000000e+00
0.000000000000e+00
0.000000000000e+00
0.000000000000e+00
0.000000000000e+00
0.000000000000e+00
0.000000000000e+00
0.000000000000e+00
0.000000000000e+00
0.000000000000e+00
0.000000000000e+00
0.000000000000e+00
0.000000000000e+00
0.000000000000e+00
0.000000000000e+00
0.000000000000e+00
0.000000000000e+00
0.000000000000e+00
0.000000000000e+00
0.000000000000e+00
0.000000000000e+00
0.000000000000e+00
0.000000000000e+00
0.000000000000e+00
0.000000000000e+00
0.000000000000e+00
0.000000000000e+00
0.000000000000e+00
0.000000000000e+00
0.000000000000e+00
0.000000000000e+00
0.000000000000e+00
0.000000000000e+00
0.000000000000e+00
0.000000000000e+00
0.000000000000e+00
0.000000000000e+00
0.000000000000e+00
0.000000000000e+00
0.000000000000e+00
0.000000000000e+00
0.000000000000e+00
0.000000000000e+00
0.000000000000e+00
0.000000000000e+00
0.000000000000e+00
0.000000000000e+00
0.000000000000e+00
0.000000000000e+00
0.000000000000e+00
0.000000000000e+00
0.000000000000e+00
0.000000000000e+00
0.000000000000e+00
0.000000000000e+00
0.000000000000e+00
0.000000000000e+00
0.000000000000e+00
0.000000000000e+00
0.000000000000e+00
0.000000000000e+00
0.000000000000e+00
0.000000000000e+00
0.000000000000e+00
0.000000000000e+00
0.000000000000e+00
0.000000000000e+00
0.000000000000e+00
0.000000000000e+00
0.000000000000e+00
0.000000000000e+00
0.000000000000e+00
0.000000000000e+00
0.000000000000e+00
0.000000000000e+00
0.000000000000e+00
0.000000000000e+00
0.000000000000e+00
0.000000000000e+00
0.000000000000e+00
0.000000000000e+00
0.000000000000e+00
0.000000000000e+00
0.000000000000e+00
0.000000000000e+00
0.000000000000e+00
0.000000000000e+00
0.000000000000e+00
0.000000000000e+00
0.000000000000e+00
0.000000000000e+00
0.000000000000e+00
0.000000000000e+00
0.000000000000e+00
0.000000000000e+00
9.557621959366e-03
9.557605312885e-03
9.557596904144e-03
9.557604848312e-03
9.557621030222e-03
9.557605460960e-03
9.557588094682e-03
9.557579353347e-03
9.557587630110e-03
9.557604531816e-03
9.557597200294e-03
9.557579501422e-03
9.557570633432e-03
9.557579036850e-03
9.557596271150e-03
9.557605292538e-03
9.557587926260e-03
9.557579184925e-03
9.557587461687e-03
9.557604363394e-03
9.557621622522e-03
9.557604976042e-03
9.557596567300e-03
9.557604511468e-03
9.557620693378e-03
9.557622521113e-03
9.557607042946e-03
9.557599514429e-03
9.557606578373e-03
9.557621591969e-03
9.557607191021e-03
9.557591392169e-03
9.557583673641e-03
9.557590927596e-03
9.557606261876e-03
9.557599810580e-03
9.557583821716e-03
9.557575876903e-03
9.557583357144e-03
9.557598881435e-03
9.557607022599e-03
9.557591223747e-03
9.557583505219e-03
9.557590759174e-03
9.557606093454e-03
9.557622184270e-03
9.557606706102e-03
9.557599177586e-03
9.557606241529e-03
9.557621255125e-03
9.557618438998e-03
9.557605916525e-03
9.557600818797e-03
9.557605451951e-03
9.557617509853e-03
9.557606064600e-03
9.557593846724e-03
9.557588955376e-03
9.557593382150e-03
9.557605135454e-03
9.557601114948e-03
9.557589103452e-03
9.557584209018e-03
9.557588638878e-03
9.557600185803e-03
9.557605896177e-03
9.557593678301e-03
9.557588786954e-03
9.557593213728e-03
9.557604967032e-03
9.557618102154e-03
9.557605579681e-03
9.557600481953e-03
9.557605115107e-03
9.557617173008e-03
9.557612644815e-03
9.557603615025e-03
9.557601429347e-03
9.557603150450e-03
9.557611715667e-03
9.557603763100e-03
9.557595796107e-03
9.557594313575e-03
9.557595331532e-03
9.557602833953e-03
9.557601725498e-03
9.557594461651e-03
9.557593317352e-03
9.557593997076e-03
9.557600796351e-03
9.557603594677e-03
9.557595627684e-03
9.557594145152e-03
9.557595163110e-03
9.557602665530e-03
9.557612307970e-03
9.557603278180e-03
9.557601092502e-03
9.557602813605e-03
9.557611378822e-03
9.557611109318e-03
9.557604646219e-03
9.557604692865e-03
9.557604181643e-03
9.557610180170e-03
9.557604794294e-03
9.557600135704e-03
9.557601314236e-03
9.557599671129e-03
9.557603865146e-03
9.557604989016e-03
9.557601462312e-03
9.557603159428e-03
9.557600997737e-03
9.557604059868e-03
9.557604625871e-03
9.557599967281e-03
9.557601145813e-03
9.557599502706e-03
9.557603696722e-03
9.557610772473e-03
9.557604309373e-03
9.557604356020e-03
9.557603844798e-03
9.557609843324e-03
CELL_DATA 128
SCALARS displacement_magnitude float 1
LOOKUP_TABLE default
0.000000000000e+00
0.000000000000e+00
0.000000000000e+00
0.000000000000e+00
0.000000000000e+00
0.000000000000e+00
0.000000000000e+00
0.000000000000e+00
0.000000000000e+00
0.000000000000e+00
0.000000000000e+00
0.000000000000e+00
0.000000000000e+00
0.000000000000e+00
0.000000000000e+00
0.000000000000e+00
0.000000000000e+00
0.000000000000e+00
0.000000000000e+00
0.000000000000e+00
0.000000000000e+00
0.000000000000e+00
0.000000000000e+00
0.000000000000e+00
0.000000000000e+00
0.000000000000e+00
0.000000000000e+00
0.000000000000e+00
0.000000000000e+00
0.000000000000e+00
0.000000000000e+00
0.000000000000e+00
0.000000000000e+00
0.000000000000e+00
0.000000000000e+00
0.000000000000e+00
0.000000000000e+00
0.000000000000e+00
0.000000000000e+00
0.000000000000e+00
0.000000000000e+00
0.000000000000e+00
0.000000000000e+00
0.000000000000e+00
0.000000000000e+00
0.000000000000e+00
0.000000000000e+00
0.000000000000e+00
0.000000000000e+00
0.000000000000e+00
0.000000000000e+00
0.000000000000e+00
0.000000000000e+00
0.000000000000e+00
0.000000000000e+00
0.000000000000e+00
0.000000000000e+00
0.000000000000e+00
0.000000000000e+00
0.000000000000e+00
0.000000000000e+00
0.000000000000e+00
0.000000000000e+00
0.000000000000e+00
9.557606121893e-03
9.557593911031e-03
9.557593678744e-03
9.557605425034e-03
9.557594059106e-03
9.557581543414e-03
9.557581311128e-03
9.557593362247e-03
9.557593974895e-03
9.557581459203e-03
9.557581226917e-03
9.557593278036e-03
9.557605869260e-03
9.557593658398e-03
9.557593426111e-03
9.557605172401e-03
9.557606551762e-03
9.557596395076e-03
9.557596162789e-03
9.557605854903e-03
9.557596543151e-03
9.557586359875e-03
9.557586127588e-03
9.557595846292e-03
9.557596458940e-03
9.557586275664e-03
9.557586043377e-03
9.557595762081e-03
9.557606299129e-03
9.557596142443e-03
9.557595910156e-03
9.557605602270e-03
9.557605010737e-03
9.557598086434e-03
9.557597854147e-03
9.557604313876e-03
9.557598234510e-03
9.557591750407e-03
9.557591518120e-03
9.557597537650e-03
9.557598150299e-03
9.557591666196e-03
9.557591433909e-03
9.557597453438e-03
9.557604758103e-03
9.557597833801e-03
9.557597601514e-03
9.557604061243e-03
9.557604563073e-03
9.557600742885e-03
9.557600510597e-03
9.557603866211e-03
9.557600890960e-03
9.557597995046e-03
9.557597762758e-03
9.557600194099e-03
9.557600806749e-03
9.557597910834e-03
9.557597678547e-03
9.557600109888e-03
9.557604310439e-03
9.557600490251e-03
9.557600257963e-03
9.557603613577e-03
SCALARS engineering_strain_norm float 1
LOOKUP_TABLE default
0.000000000000e+00
0.000000000000e+00
0.000000000000e+00
0.000000000000e+00
0.000000000000e+00
0.000000000000e+00
0.000000000000e+00
0.000000000000e+00
0.000000000000e+00
0.000000000000e+00
0.000000000000e+00
0.000000000000e+00
0.000000000000e+00
0.000000000000e+00
0.000000000000e+00
0.000000000000e+00
0.000000000000e+00
0.000000000000e+00
0.000000000000e+00
0.000000000000e+00
0.000000000000e+00
0.000000000000e+00
0.000000000000e+00
0.000000000000e+00
0.000000000000e+00
0.000000000000e+00
0.000000000000e+00
0.000000000000e+00
0.000000000000e+00
0.000000000000e+00
0.000000000000e+00
0.000000000000e+00
0.000000000000e+00
0.000000000000e+00
0.000000000000e+00
0.000000000000e+00
0.000000000000e+00
0.000000000000e+00
0.000000000000e+00
0.000000000000e+00
0.000000000000e+00
0.000000000000e+00
0.000000000000e+00
0.000000000000e+00
0.000000000000e+00
0.000000000000e+00
0.000000000000e+00
0.000000000000e+00
0.000000000000e+00
0.000000000000e+00
0.000000000000e+00
0.000000000000e+00
0.000000000000e+00
0.000000000000e+00
0.000000000000e+00
0.000000000000e+00
0.000000000000e+00
0.000000000000e+00
0.000000000000e+00
0.000000000000e+00
0.000000000000e+00
0.000000000000e+00
0.000000000000e+00
0.000000000000e+00
4.621780467330e-08
7.792643249195e-08
7.792642697980e-08
4.621780052480e-08
7.792643194637e-08
9.285689098855e-08
9.285688564897e-08
7.792642815156e-08
7.792642995559e-08
9.285688903993e-08
9.285688379788e-08
7.792642619553e-08
4.621780318280e-08
7.792643105896e-08
7.792642563325e-08
4.621779908922e-08
4.414031161685e-08
1.135493159663e-07
1.135493113373e-07
4.414031229830e-08
1.135493157813e-07
1.583969265614e-07
1.583969217501e-07
1.135493117503e-07
1.135493141028e-07
1.583969248193e-07
1.583969200402e-07
1.135493101034e-07
4.414031192266e-08
1.135493145004e-07
1.135493098910e-07
4.414031257032e-08
4.968659714642e-08
1.459362485176e-07
1.459362459755e-07
4.968660145324e-08
1.459362487273e-07
2.066717535522e-07
2.066717501915e-07
1.459362454543e-07
1.459362477941e-07
2.066717523513e-07
2.066717489610e-07
1.459362445346e-07
4.968659873677e-08
1.459362473401e-07
1.459362447705e-07
4.968660301166e-08
6.578030259527e-08
1.784320693238e-07
1.784320692736e-07
6.578029948009e-08
1.784320703799e-07
2.433519161389e-07
2.433519151805e-07
1.784320668431e-07
1.784320703563e-07
2.433519158012e-07
2.433519147919e-07
1.784320668163e-07
6.578030150343e-08
1.784320680686e-07
1.784320679670e-07
6.578029836636e-08
SCALARS von_mises float 1
LOOKUP_TABLE default
0.000000000000e+00
0.000000000000e+00
0.000000000000e+00
0.000000000000e+00
0.000000000000e+00
0.000000000000e+00
0.000000000000e+00
0.000000000000e+00
0.000000000000e+00
0.000000000000e+00
0.000000000000e+00
0.000000000000e+00
0.000000000000e+00
0.000000000000e+00
0.000000000000e+00
0.000000000000e+00
0.000000000000e+00
0.000000000000e+00
0.000000000000e+00
0.000000000000e+00
0.000000000000e+00
0.000000000000e+00
0.000000000000e+00
0.000000000000e+00
0.000000000000e+00
0.000000000000e+00
0.000000000000e+00
0.000000000000e+00
0.000000000000e+00
0.000000000000e+00
0.000000000000e+00
0.000000000000e+00
0.000000000000e+00
0.000000000000e+00
0.000000000000e+00
0.000000000000e+00
0.000000000000e+00
0.000000000000e+00
0.000000000000e+00
0.000000000000e+00
0.000000000000e+00
0.000000000000e+00
0.000000000000e+00
0.000000000000e+00
0.000000000000e+00
0.000000000000e+00
0.000000000000e+00
0.000000000000e+00
0.000000000000e+00
0.000000000000e+00
0.000000000000e+00
0.000000000000e+00
0.000000000000e+00
0.000000000000e+00
0.000000000000e+00
0.000000000000e+00
0.000000000000e+00
0.000000000000e+00
0.000000000000e+00
0.000000000000e+00
0.000000000000e+00
0.000000000000e+00
0.000000000000e+00
0.000000000000e+00
3.817266601379e-03
6.970315490530e-03
6.970314990243e-03
3.817266154447e-03
6.970315441200e-03
8.549757955688e-03
8.549757519668e-03
6.970315095894e-03
6.970315262377e-03
8.549757797878e-03
8.549757366891e-03
6.970314916513e-03
3.817266441255e-03
6.970315362326e-03
6.970314865771e-03
3.817265997748e-03
2.409074548789e-03
9.638055691311e-03
9.638055244812e-03
2.409074572974e-03
9.638055690624e-03
1.367225634926e-02
1.367225590707e-02
9.638055248213e-03
9.638055529665e-03
1.367225618957e-02
1.367225575017e-02
9.638055090101e-03
2.409074562785e-03
9.638055532675e-03
9.638055086673e-03
2.409074584949e-03
1.615244643894e-03
1.181350818097e-02
1.181350786778e-02
1.615245260311e-03
1.181350823210e-02
1.671532949313e-02
1.671532910061e-02
1.181350775244e-02
1.181350811745e-02
1.671532935307e-02
1.671532895701e-02
1.181350763905e-02
1.615244870615e-03
1.181350800825e-02
1.181350769234e-02
1.615245484154e-03
4.882713276697e-03
1.524133829789e-02
1.524133825968e-02
4.882712825925e-03
1.524133840926e-02
2.017902162479e-02
2.017902149023e-02
1.524133800227e-02
1.524133839435e-02
2.017902157746e-02
2.017902143767e-02
1.524133798794e-02
4.882713118152e-03
1.524133815249e-02
1.524133810987e-02
4.882712664146e-03
SCALARS sdf_gap float 1
LOOKUP_TABLE default
0.000000000000e+00
0.000000000000e+00
0.000000000000e+00
0.000000000000e+00
0.000000000000e+00
0.000000000000e+00
0.000000000000e+00
0.000000000000e+00
0.000000000000e+00
0.000000000000e+00
0.000000000000e+00
0.000000000000e+00
0.000000000000e+00
0.000000000000e+00
0.000000000000e+00
0.000000000000e+00
0.000000000000e+00
0.000000000000e+00
0.000000000000e+00
0.000000000000e+00
0.000000000000e+00
0.000000000000e+00
0.000000000000e+00
0.000000000000e+00
0.000000000000e+00
0.000000000000e+00
0.000000000000e+00
0.000000000000e+00
0.000000000000e+00
0.000000000000e+00
0.000000000000e+00
0.000000000000e+00
0.000000000000e+00
0.000000000000e+00
0.000000000000e+00
0.000000000000e+00
0.000000000000e+00
0.000000000000e+00
0.000000000000e+00
0.000000000000e+00
0.000000000000e+00
0.000000000000e+00
0.000000000000e+00
0.000000000000e+00
0.000000000000e+00
0.000000000000e+00
0.000000000000e+00
0.000000000000e+00
0.000000000000e+00
0.000000000000e+00
0.000000000000e+00
0.000000000000e+00
0.000000000000e+00
0.000000000000e+00
0.000000000000e+00
0.000000000000e+00
0.000000000000e+00
0.000000000000e+00
0.000000000000e+00
0.000000000000e+00
0.000000000000e+00
0.000000000000e+00
0.000000000000e+00
0.000000000000e+00
5.442394793028e-03
5.442407583736e-03
5.442407816022e-03
5.442395489887e-03
5.442407435661e-03
5.442420604279e-03
5.442420836566e-03
5.442408132519e-03
5.442407519872e-03
5.442420688490e-03
5.442420920777e-03
5.442408216731e-03
5.442395045661e-03
5.442407836369e-03
5.442408068655e-03
5.442395742520e-03
0.000000000000e+00
0.000000000000e+00
0.000000000000e+00
0.000000000000e+00
0.000000000000e+00
0.000000000000e+00
0.000000000000e+00
0.000000000000e+00
0.000000000000e+00
0.000000000000e+00
0.000000000000e+00
0.000000000000e+00
0.000000000000e+00
0.000000000000e+00
0.000000000000e+00
0.000000000000e+00
0.000000000000e+00
0.000000000000e+00
0.000000000000e+00
0.000000000000e+00
0.000000000000e+00
0.000000000000e+00
0.000000000000e+00
0.000000000000e+00
0.000000000000e+00
0.000000000000e+00
0.000000000000e+00
0.000000000000e+00
0.000000000000e+00
0.000000000000e+00
0.000000000000e+00
0.000000000000e+00
0.000000000000e+00
0.000000000000e+00
0.000000000000e+00
0.000000000000e+00
0.000000000000e+00
0.000000000000e+00
0.000000000000e+00
0.000000000000e+00
0.000000000000e+00
0.000000000000e+00
0.000000000000e+00
0.000000000000e+00
0.000000000000e+00
0.000000000000e+00
0.000000000000e+00
0.000000000000e+00
SCALARS contact_pressure float 1
LOOKUP_TABLE default
0.000000000000e+00
0.000000000000e+00
0.000000000000e+00
0.000000000000e+00
0.000000000000e+00
0.000000000000e+00
0.000000000000e+00
0.000000000000e+00
0.000000000000e+00
0.000000000000e+00
0.000000000000e+00
0.000000000000e+00
0.000000000000e+00
0.000000000000e+00
0.000000000000e+00
0.000000000000e+00
0.000000000000e+00
0.000000000000e+00
0.000000000000e+00
0.000000000000e+00
0.000000000000e+00
0.000000000000e+00
0.000000000000e+00
0.000000000000e+00
0.000000000000e+00
0.000000000000e+00
0.000000000000e+00
0.000000000000e+00
0.000000000000e+00
0.000000000000e+00
0.000000000000e+00
0.000000000000e+00
0.000000000000e+00
0.000000000000e+00
0.000000000000e+00
0.000000000000e+00
0.000000000000e+00
0.000000000000e+00
0.000000000000e+00
0.000000000000e+00
0.000000000000e+00
0.000000000000e+00
0.000000000000e+00
0.000000000000e+00
0.000000000000e+00
0.000000000000e+00
0.000000000000e+00
0.000000000000e+00
0.000000000000e+00
0.000000000000e+00
0.000000000000e+00
0.000000000000e+00
0.000000000000e+00
0.000000000000e+00
0.000000000000e+00
0.000000000000e+00
0.000000000000e+00
0.000000000000e+00
0.000000000000e+00
0.000000000000e+00
0.000000000000e+00
0.000000000000e+00
0.000000000000e+00
0.000000000000e+00
0.000000000000e+00
0.000000000000e+00
0.000000000000e+00
0.000000000000e+00
0.000000000000e+00
0.000000000000e+00
0.000000000000e+00
0.000000000000e+00
0.000000000000e+00
0.000000000000e+00
0.000000000000e+00
0.000000000000e+00
0.000000000000e+00
0.000000000000e+00
0.000000000000e+00
0.000000000000e+00
0.000000000000e+00
0.000000000000e+00
0.000000000000e+00
0.000000000000e+00
0.000000000000e+00
0.000000000000e+00
0.000000000000e+00
0.000000000000e+00
0.000000000000e+00
0.000000000000e+00
0.000000000000e+00
0.000000000000e+00
0.000000000000e+00
0.000000000000e+00
0.000000000000e+00
0.000000000000e+00
0.000000000000e+00
0.000000000000e+00
0.000000000000e+00
0.000000000000e+00
0.000000000000e+00
0.000000000000e+00
0.000000000000e+00
0.000000000000e+00
0.000000000000e+00
0.000000000000e+00
0.000000000000e+00
0.000000000000e+00
0.000000000000e+00
0.000000000000e+00
0.000000000000e+00
0.000000000000e+00
0.000000000000e+00
0.000000000000e+00
0.000000000000e+00
0.000000000000e+00
0.000000000000e+00
0.000000000000e+00
0.000000000000e+00
0.000000000000e+00
0.000000000000e+00
0.000000000000e+00
0.000000000000e+00
0.000000000000e+00
0.000000000000e+00
0.000000000000e+00
0.000000000000e+00
0.000000000000e+00
SCALARS active_contact float 1
LOOKUP_TABLE default
0.000000000000e+00
0.000000000000e+00
0.000000000000e+00
0.000000000000e+00
0.000000000000e+00
0.000000000000e+00
0.000000000000e+00
0.000000000000e+00
0.000000000000e+00
0.000000000000e+00
0.000000000000e+00
0.000000000000e+00
0.000000000000e+00
0.000000000000e+00
0.000000000000e+00
0.000000000000e+00
0.000000000000e+00
0.000000000000e+00
0.000000000000e+00
0.000000000000e+00
0.000000000000e+00
0.000000000000e+00
0.000000000000e+00
0.000000000000e+00
0.000000000000e+00
0.000000000000e+00
0.000000000000e+00
0.000000000000e+00
0.000000000000e+00
0.000000000000e+00
0.000000000000e+00
0.000000000000e+00
0.000000000000e+00
0.000000000000e+00
0.000000000000e+00
0.000000000000e+00
0.000000000000e+00
0.000000000000e+00
0.000000000000e+00
0.000000000000e+00
0.000000000000e+00
0.000000000000e+00
0.000000000000e+00
0.000000000000e+00
0.000000000000e+00
0.000000000000e+00
0.000000000000e+00
0.000000000000e+00
0.000000000000e+00
0.000000000000e+00
0.000000000000e+00
0.000000000000e+00
0.000000000000e+00
0.000000000000e+00
0.000000000000e+00
0.000000000000e+00
0.000000000000e+00
0.000000000000e+00
0.000000000000e+00
0.000000000000e+00
0.000000000000e+00
0.000000000000e+00
0.000000000000e+00
0.000000000000e+00
0.000000000000e+00
0.000000000000e+00
0.000000000000e+00
0.000000000000e+00
0.000000000000e+00
0.000000000000e+00
0.000000000000e+00
0.000000000000e+00
0.000000000000e+00
0.000000000000e+00
0.000000000000e+00
0.000000000000e+00
0.000000000000e+00
0.000000000000e+00
0.000000000000e+00
0.000000000000e+00
0.000000000000e+00
0.000000000000e+00
0.000000000000e+00
0.000000000000e+00
0.000000000000e+00
0.000000000000e+00
0.000000000000e+00
0.000000000000e+00
0.000000000000e+00
0.000000000000e+00
0.000000000000e+00
0.000000000000e+00
0.000000000000e+00
0.000000000000e+00
0.000000000000e+00
0.000000000000e+00
0.000000000000e+00
0.000000000000e+00
0.000000000000e+00
0.000000000000e+00
0.000000000000e+00
0.000000000000e+00
0.000000000000e+00
0.000000000000e+00
0.000000000000e+00
0.000000000000e+00
0.000000000000e+00
0.000000000000e+00
0.000000000000e+00
0.000000000000e+00
0.000000000000e+00
0.000000000000e+00
0.000000000000e+00
0.000000000000e+00
0.000000000000e+00
0.000000000000e+00
0.000000000000e+00
0.000000000000e+00
0.000000000000e+00
0.000000000000e+00
0.000000000000e+00
0.000000000000e+00
0.000000000000e+00
0.000000000000e+00
0.000000000000e+00
0.000000000000e+00
0.000000000000e+00
0.000000000000e+00
