# vtk DataFile Version 3.0
SFC long-time C3D8 dynamic frame 61 t=1.220000000000e+00
ASCII
DATASET UNSTRUCTURED_GRID
POINTS 250 float
-2.500000000000e-01 -2.500000000000e-01 0.000000000000e+00
-1.250000000000e-01 -2.500000000000e-01 0.000000000000e+00
0.000000000000e+00 -2.500000000000e-01 0.000000000000e+00
1.250000000000e-01 -2.500000000000e-01 0.000000000000e+00
2.500000000000e-01 -2.500000000000e-01 0.000000000000e+00
-2.500000000000e-01 -1.250000000000e-01 0.000000000000e+00
-1.250000000000e-01 -1.250000000000e-01 0.000000000000e+00
0.000000000000e+00 -1.250000000000e-01 0.000000000000e+00
1.250000000000e-01 -1.250000000000e-01 0.000000000000e+00
2.500000000000e-01 -1.250000000000e-01 0.000000000000e+00
-2.500000000000e-01 0.000000000000e+00 0.000000000000e+00
-1.250000000000e-01 0.000000000000e+00 0.000000000000e+00
0.000000000000e+00 0.000000000000e+00 0.000000000000e+00
1.250000000000e-01 0.000000000000e+00 0.000000000000e+00
2.500000000000e-01 0.000000000000e+00 0.000000000000e+00
-2.500000000000e-01 1.250000000000e-01 0.000000000000e+00
-1.250000000000e-01 1.250000000000e-01 0.000000000000e+00
0.000000000000e+00 1.250000000000e-01 0.000000000000e+00
1.250000000000e-01 1.250000000000e-01 0.000000000000e+00
2.500000000000e-01 1.250000000000e-01 0.000000000000e+00
-2.500000000000e-01 2.500000000000e-01 0.000000000000e+00
-1.250000000000e-01 2.500000000000e-01 0.000000000000e+00
0.000000000000e+00 2.500000000000e-01 0.000000000000e+00
1.250000000000e-01 2.500000000000e-01 0.000000000000e+00
2.500000000000e-01 2.500000000000e-01 0.000000000000e+00
-2.500000000000e-01 -2.500000000000e-01 6.000000000000e-02
-1.250000000000e-01 -2.500000000000e-01 6.000000000000e-02
0.000000000000e+00 -2.500000000000e-01 6.000000000000e-02
1.250000000000e-01 -2.500000000000e-01 6.000000000000e-02
2.500000000000e-01 -2.500000000000e-01 6.000000000000e-02
-2.500000000000e-01 -1.250000000000e-01 6.000000000000e-02
-1.250000000000e-01 -1.250000000000e-01 6.000000000000e-02
0.000000000000e+00 -1.250000000000e-01 6.000000000000e-02
1.250000000000e-01 -1.250000000000e-01 6.000000000000e-02
2.500000000000e-01 -1.250000000000e-01 6.000000000000e-02
-2.500000000000e-01 0.000000000000e+00 6.000000000000e-02
-1.250000000000e-01 0.000000000000e+00 6.000000000000e-02
0.000000000000e+00 0.000000000000e+00 6.000000000000e-02
1.250000000000e-01 0.000000000000e+00 6.000000000000e-02
2.500000000000e-01 0.000000000000e+00 6.000000000000e-02
-2.500000000000e-01 1.250000000000e-01 6.000000000000e-02
-1.250000000000e-01 1.250000000000e-01 6.000000000000e-02
0.000000000000e+00 1.250000000000e-01 6.000000000000e-02
1.250000000000e-01 1.250000000000e-01 6.000000000000e-02
2.500000000000e-01 1.250000000000e-01 6.000000000000e-02
-2.500000000000e-01 2.500000000000e-01 6.000000000000e-02
-1.250000000000e-01 2.500000000000e-01 6.000000000000e-02
0.000000000000e+00 2.500000000000e-01 6.000000000000e-02
1.250000000000e-01 2.500000000000e-01 6.000000000000e-02
2.500000000000e-01 2.500000000000e-01 6.000000000000e-02
-2.500000000000e-01 -2.500000000000e-01 1.200000000000e-01
-1.250000000000e-01 -2.500000000000e-01 1.200000000000e-01
0.000000000000e+00 -2.500000000000e-01 1.200000000000e-01
1.250000000000e-01 -2.500000000000e-01 1.200000000000e-01
2.500000000000e-01 -2.500000000000e-01 1.200000000000e-01
-2.500000000000e-01 -1.250000000000e-01 1.200000000000e-01
-1.250000000000e-01 -1.250000000000e-01 1.200000000000e-01
0.000000000000e+00 -1.250000000000e-01 1.200000000000e-01
1.250000000000e-01 -1.250000000000e-01 1.200000000000e-01
2.500000000000e-01 -1.250000000000e-01 1.200000000000e-01
-2.500000000000e-01 0.000000000000e+00 1.200000000000e-01
-1.250000000000e-01 0.000000000000e+00 1.200000000000e-01
0.000000000000e+00 0.000000000000e+00 1.200000000000e-01
1.250000000000e-01 0.000000000000e+00 1.200000000000e-01
2.500000000000e-01 0.000000000000e+00 1.200000000000e-01
-2.500000000000e-01 1.250000000000e-01 1.200000000000e-01
-1.250000000000e-01 1.250000000000e-01 1.200000000000e-01
0.000000000000e+00 1.250000000000e-01 1.200000000000e-01
1.250000000000e-01 1.250000000000e-01 1.200000000000e-01
2.500000000000e-01 1.250000000000e-01 1.200000000000e-01
-2.500000000000e-01 2.500000000000e-01 1.200000000000e-01
-1.250000000000e-01 2.500000000000e-01 1.200000000000e-01
0.000000000000e+00 2.500000000000e-01 1.200000000000e-01
1.250000000000e-01 2.500000000000e-01 1.200000000000e-01
2.500000000000e-01 2.500000000000e-01 1.200000000000e-01
-2.500000000000e-01 -2.500000000000e-01 1.800000000000e-01
-1.250000000000e-01 -2.500000000000e-01 1.800000000000e-01
0.000000000000e+00 -2.500000000000e-01 1.800000000000e-01
1.250000000000e-01 -2.500000000000e-01 1.800000000000e-01
2.500000000000e-01 -2.500000000000e-01 1.800000000000e-01
-2.500000000000e-01 -1.250000000000e-01 1.800000000000e-01
-1.250000000000e-01 -1.250000000000e-01 1.800000000000e-01
0.000000000000e+00 -1.250000000000e-01 1.800000000000e-01
1.250000000000e-01 -1.250000000000e-01 1.800000000000e-01
2.500000000000e-01 -1.250000000000e-01 1.800000000000e-01
-2.500000000000e-01 0.000000000000e+00 1.800000000000e-01
-1.250000000000e-01 0.000000000000e+00 1.800000000000e-01
0.000000000000e+00 0.000000000000e+00 1.800000000000e-01
1.250000000000e-01 0.000000000000e+00 1.800000000000e-01
2.500000000000e-01 0.000000000000e+00 1.800000000000e-01
-2.500000000000e-01 1.250000000000e-01 1.800000000000e-01
-1.250000000000e-01 1.250000000000e-01 1.800000000000e-01
0.000000000000e+00 1.250000000000e-01 1.800000000000e-01
1.250000000000e-01 1.250000000000e-01 1.800000000000e-01
2.500000000000e-01 1.250000000000e-01 1.800000000000e-01
-2.500000000000e-01 2.500000000000e-01 1.800000000000e-01
-1.250000000000e-01 2.500000000000e-01 1.800000000000e-01
0.000000000000e+00 2.500000000000e-01 1.800000000000e-01
1.250000000000e-01 2.500000000000e-01 1.800000000000e-01
2.500000000000e-01 2.500000000000e-01 1.800000000000e-01
-2.500000000000e-01 -2.500000000000e-01 2.400000000000e-01
-1.250000000000e-01 -2.500000000000e-01 2.400000000000e-01
0.000000000000e+00 -2.500000000000e-01 2.400000000000e-01
1.250000000000e-01 -2.500000000000e-01 2.400000000000e-01
2.500000000000e-01 -2.500000000000e-01 2.400000000000e-01
-2.500000000000e-01 -1.250000000000e-01 2.400000000000e-01
-1.250000000000e-01 -1.250000000000e-01 2.400000000000e-01
0.000000000000e+00 -1.250000000000e-01 2.400000000000e-01
1.250000000000e-01 -1.250000000000e-01 2.400000000000e-01
2.500000000000e-01 -1.250000000000e-01 2.400000000000e-01
-2.500000000000e-01 0.000000000000e+00 2.400000000000e-01
-1.250000000000e-01 0.000000000000e+00 2.400000000000e-01
0.000000000000e+00 0.000000000000e+00 2.400000000000e-01
1.250000000000e-01 0.000000000000e+00 2.400000000000e-01
2.500000000000e-01 0.000000000000e+00 2.400000000000e-01
-2.500000000000e-01 1.250000000000e-01 2.400000000000e-01
-1.250000000000e-01 1.250000000000e-01 2.400000000000e-01
0.000000000000e+00 1.250000000000e-01 2.400000000000e-01
1.250000000000e-01 1.250000000000e-01 2.400000000000e-01
2.500000000000e-01 1.250000000000e-01 2.400000000000e-01
-2.500000000000e-01 2.500000000000e-01 2.400000000000e-01
-1.250000000000e-01 2.500000000000e-01 2.400000000000e-01
0.000000000000e+00 2.500000000000e-01 2.400000000000e-01
1.250000000000e-01 2.500000000000e-01 2.400000000000e-01
2.500000000000e-01 2.500000000000e-01 2.400000000000e-01
-2.500018035761e-01 -2.500018035762e-01 2.399515967816e-01
-1.250009574070e-01 -2.500017947286e-01 2.399510711754e-01
1.588989469937e-14 -2.500017731272e-01 2.399508893770e-01
1.250009574070e-01 -2.500017947286e-01 2.399510711754e-01
2.500018035762e-01 -2.500018035762e-01 2.399515967816e-01
-2.500017947286e-01 -1.250009574070e-01 2.399510711754e-01
-1.250009572958e-01 -1.250009572958e-01 2.399505502207e-01
1.503098520075e-14 -1.250009498784e-01 2.399503711772e-01
1.250009572958e-01 -1.250009572958e-01 2.399505502207e-01
2.500017947286e-01 -1.250009574070e-01 2.399510711754e-01
-2.500017731271e-01 -1.949320803832e-14 2.399508893770e-01
-1.250009498784e-01 -1.864820024267e-14 2.399503711772e-01
1.417454888440e-14 -1.780148020139e-14 2.399501926218e-01
1.250009498784e-01 -1.695095963571e-14 2.399503711772e-01
2.500017731271e-01 -1.609725366547e-14 2.399508893770e-01
-2.500017947286e-01 1.250009574070e-01 2.399510711754e-01
-1.250009572958e-01 1.250009572958e-01 2.399505502207e-01
1.331358712690e-14 1.250009498784e-01 2.399503711772e-01
1.250009572958e-01 1.250009572958e-01 2.399505502207e-01
2.500017947286e-01 1.250009574070e-01 2.399510711754e-01
-2.500018035761e-01 2.500018035761e-01 2.399515967816e-01
-1.250009574070e-01 2.500017947286e-01 2.399510711754e-01
1.245948050445e-14 2.500017731271e-01 2.399508893770e-01
1.250009574070e-01 2.500017947286e-01 2.399510711754e-01
2.500018035762e-01 2.500018035761e-01 2.399515967816e-01
-2.500014605187e-01 -2.500014605188e-01 3.049502739709e-01
-1.250007664325e-01 -2.500014559039e-01 3.049497159504e-01
1.583468533451e-14 -2.500014381868e-01 3.049495213868e-01
1.250007664326e-01 -2.500014559039e-01 3.049497159504e-01
2.500014605188e-01 -2.500014605188e-01 3.049502739709e-01
-2.500014559039e-01 -1.250007664326e-01 3.049497159504e-01
-1.250007666957e-01 -1.250007666957e-01 3.049491590534e-01
1.498426591656e-14 -1.250007600726e-01 3.049489653062e-01
1.250007666957e-01 -1.250007666957e-01 3.049491590534e-01
2.500014559039e-01 -1.250007664326e-01 3.049497159504e-01
-2.500014381868e-01 -1.951622493042e-14 3.049495213868e-01
-1.250007600726e-01 -1.866243475867e-14 3.049489653062e-01
1.412662810724e-14 -1.781672570077e-14 3.049487705859e-01
1.250007600726e-01 -1.696181431171e-14 3.049489653062e-01
2.500014381868e-01 -1.611014080342e-14 3.049495213868e-01
-2.500014559039e-01 1.250007664325e-01 3.049497159504e-01
-1.250007666957e-01 1.250007666957e-01 3.049491590534e-01
1.327064958579e-14 1.250007600726e-01 3.049489653062e-01
1.250007666957e-01 1.250007666957e-01 3.049491590534e-01
2.500014559039e-01 1.250007664325e-01 3.049497159504e-01
-2.500014605187e-01 2.500014605187e-01 3.049502739709e-01
-1.250007664325e-01 2.500014559039e-01 3.049497159504e-01
1.241584063337e-14 2.500014381868e-01 3.049495213868e-01
1.250007664326e-01 2.500014559039e-01 3.049497159504e-01
2.500014605188e-01 2.500014605187e-01 3.049502739709e-01
-2.500010502871e-01 -2.500010502871e-01 3.699493344363e-01
-1.250005660965e-01 -2.500010429172e-01 3.699487461454e-01
1.578534429508e-14 -2.500010256207e-01 3.699485427364e-01
1.250005660965e-01 -2.500010429172e-01 3.699487461454e-01
2.500010502871e-01 -2.500010502871e-01 3.699493344363e-01
-2.500010429172e-01 -1.250005660965e-01 3.699487461454e-01
-1.250005663478e-01 -1.250005663478e-01 3.699481555477e-01
1.493387742278e-14 -1.250005599968e-01 3.699479515259e-01
1.250005663478e-01 -1.250005663478e-01 3.699481555477e-01
2.500010429172e-01 -1.250005660965e-01 3.699487461454e-01
-2.500010256207e-01 -1.953472108680e-14 3.699485427364e-01
-1.250005599967e-01 -1.867867696145e-14 3.699479515259e-01
1.407921306283e-14 -1.782854589801e-14 3.699477454429e-01
1.250005599968e-01 -1.697337214424e-14 3.699479515259e-01
2.500010256207e-01 -1.611870132438e-14 3.699485427364e-01
-2.500010429172e-01 1.250005660965e-01 3.699487461454e-01
-1.250005663478e-01 1.250005663478e-01 3.699481555477e-01
1.322334991474e-14 1.250005599967e-01 3.699479515259e-01
1.250005663478e-01 1.250005663478e-01 3.699481555477e-01
2.500010429172e-01 1.250005660965e-01 3.699487461454e-01
-2.500010502871e-01 2.500010502871e-01 3.699493344363e-01
-1.250005660965e-01 2.500010429172e-01 3.699487461454e-01
1.236805566050e-14 2.500010256207e-01 3.699485427364e-01
1.250005660965e-01 2.500010429172e-01 3.699487461454e-01
2.500010502871e-01 2.500010502871e-01 3.699493344363e-01
-2.500006275381e-01 -2.500006275382e-01 4.349487529911e-01
-1.250003548171e-01 -2.500006161986e-01 4.349481489384e-01
1.573815895271e-14 -2.500005996194e-01 4.349479306099e-01
1.250003548171e-01 -2.500006161986e-01 4.349481489384e-01
2.500006275382e-01 -2.500006275382e-01 4.349487529911e-01
-2.500006161985e-01 -1.250003548171e-01 4.349481489384e-01
-1.250003548435e-01 -1.250003548435e-01 4.349475407533e-01
1.488204556901e-14 -1.250003483130e-01 4.349473199392e-01
1.250003548435e-01 -1.250003548435e-01 4.349475407533e-01
2.500006161986e-01 -1.250003548171e-01 4.349481489384e-01
-2.500005996193e-01 -1.955036601578e-14 4.349479306099e-01
-1.250003483129e-01 -1.869798096957e-14 4.349473199392e-01
1.403251257226e-14 -1.784130815628e-14 4.349470952488e-01
1.250003483130e-01 -1.698194466749e-14 4.349473199392e-01
2.500005996194e-01 -1.612569553352e-14 4.349479306099e-01
-2.500006161985e-01 1.250003548171e-01 4.349481489384e-01
-1.250003548435e-01 1.250003548435e-01 4.349475407533e-01
1.317873895216e-14 1.250003483129e-01 4.349473199392e-01
1.250003548435e-01 1.250003548435e-01 4.349475407533e-01
2.500006161986e-01 1.250003548171e-01 4.349481489384e-01
-2.500006275381e-01 2.500006275381e-01 4.349487529911e-01
-1.250003548171e-01 2.500006161985e-01 4.349481489384e-01
1.232294981728e-14 2.500005996193e-01 4.349479306099e-01
1.250003548171e-01 2.500006161985e-01 4.349481489384e-01
2.500006275382e-01 2.500006275381e-01 4.349487529911e-01
-2.500002487174e-01 -2.500002487175e-01 4.999485262128e-01
-1.250001340725e-01 -2.500002389025e-01 4.999479178844e-01
1.568381153108e-14 -2.500002256554e-01 4.999476895137e-01
1.250001340725e-01 -2.500002389025e-01 4.999479178844e-01
2.500002487175e-01 -2.500002487175e-01 4.999485262128e-01
-2.500002389025e-01 -1.250001340725e-01 4.999479178844e-01
-1.250001321084e-01 -1.250001321084e-01 4.999473039591e-01
1.483162328538e-14 -1.250001242192e-01 4.999470716985e-01
1.250001321084e-01 -1.250001321084e-01 4.999473039591e-01
2.500002389025e-01 -1.250001340725e-01 4.999479178844e-01
-2.500002256554e-01 -1.957189162886e-14 4.999476895137e-01
-1.250001242191e-01 -1.871358832478e-14 4.999470716985e-01
1.398339750256e-14 -1.785633396928e-14 4.999468348748e-01
1.250001242192e-01 -1.699587403484e-14 4.999470716985e-01
2.500002256554e-01 -1.613765473420e-14 4.999476895137e-01
-2.500002389025e-01 1.250001340725e-01 4.999479178844e-01
-1.250001321084e-01 1.250001321084e-01 4.999473039591e-01
1.313616565065e-14 1.250001242191e-01 4.999470716985e-01
1.250001321084e-01 1.250001321084e-01 4.999473039591e-01
2.500002389025e-01 1.250001340725e-01 4.999479178844e-01
-2.500002487174e-01 2.500002487174e-01 4.999485262128e-01
-1.250001340725e-01 2.500002389025e-01 4.999479178844e-01
1.228309466011e-14 2.500002256554e-01 4.999476895137e-01
1.250001340725e-01 2.500002389025e-01 4.999479178844e-01
2.500002487175e-01 2.500002487174e-01 4.999485262128e-01
CELLS 128 1152
8 0 1 6 5 25 26 31 30
8 1 2 7 6 26 27 32 31
8 2 3 8 7 27 28 33 32
8 3 4 9 8 28 29 34 33
8 5 6 11 10 30 31 36 35
8 6 7 12 11 31 32 37 36
8 7 8 13 12 32 33 38 37
8 8 9 14 13 33 34 39 38
8 10 11 16 15 35 36 41 40
8 11 12 17 16 36 37 42 41
8 12 13 18 17 37 38 43 42
8 13 14 19 18 38 39 44 43
8 15 16 21 20 40 41 46 45
8 16 17 22 21 41 42 47 46
8 17 18 23 22 42 43 48 47
8 18 19 24 23 43 44 49 48
8 25 26 31 30 50 51 56 55
8 26 27 32 31 51 52 57 56
8 27 28 33 32 52 53 58 57
8 28 29 34 33 53 54 59 58
8 30 31 36 35 55 56 61 60
8 31 32 37 36 56 57 62 61
8 32 33 38 37 57 58 63 62
8 33 34 39 38 58 59 64 63
8 35 36 41 40 60 61 66 65
8 36 37 42 41 61 62 67 66
8 37 38 43 42 62 63 68 67
8 38 39 44 43 63 64 69 68
8 40 41 46 45 65 66 71 70
8 41 42 47 46 66 67 72 71
8 42 43 48 47 67 68 73 72
8 43 44 49 48 68 69 74 73
8 50 51 56 55 75 76 81 80
8 51 52 57 56 76 77 82 81
8 52 53 58 57 77 78 83 82
8 53 54 59 58 78 79 84 83
8 55 56 61 60 80 81 86 85
8 56 57 62 61 81 82 87 86
8 57 58 63 62 82 83 88 87
8 58 59 64 63 83 84 89 88
8 60 61 66 65 85 86 91 90
8 61 62 67 66 86 87 92 91
8 62 63 68 67 87 88 93 92
8 63 64 69 68 88 89 94 93
8 65 66 71 70 90 91 96 95
8 66 67 72 71 91 92 97 96
8 67 68 73 72 92 93 98 97
8 68 69 74 73 93 94 99 98
8 75 76 81 80 100 101 106 105
8 76 77 82 81 101 102 107 106
8 77 78 83 82 102 103 108 107
8 78 79 84 83 103 104 109 108
8 80 81 86 85 105 106 111 110
8 81 82 87 86 106 107 112 111
8 82 83 88 87 107 108 113 112
8 83 84 89 88 108 109 114 113
8 85 86 91 90 110 111 116 115
8 86 87 92 91 111 112 117 116
8 87 88 93 92 112 113 118 117
8 88 89 94 93 113 114 119 118
8 90 91 96 95 115 116 121 120
8 91 92 97 96 116 117 122 121
8 92 93 98 97 117 118 123 122
8 93 94 99 98 118 119 124 123
8 125 126 131 130 150 151 156 155
8 126 127 132 131 151 152 157 156
8 127 128 133 132 152 153 158 157
8 128 129 134 133 153 154 159 158
8 130 131 136 135 155 156 161 160
8 131 132 137 136 156 157 162 161
8 132 133 138 137 157 158 163 162
8 133 134 139 138 158 159 164 163
8 135 136 141 140 160 161 166 165
8 136 137 142 141 161 162 167 166
8 137 138 143 142 162 163 168 167
8 138 139 144 143 163 164 169 168
8 140 141 146 145 165 166 171 170
8 141 142 147 146 166 167 172 171
8 142 143 148 147 167 168 173 172
8 143 144 149 148 168 169 174 173
8 150 151 156 155 175 176 181 180
8 151 152 157 156 176 177 182 181
8 152 153 158 157 177 178 183 182
8 153 154 159 158 178 179 184 183
8 155 156 161 160 180 181 186 185
8 156 157 162 161 181 182 187 186
8 157 158 163 162 182 183 188 187
8 158 159 164 163 183 184 189 188
8 160 161 166 165 185 186 191 190
8 161 162 167 166 186 187 192 191
8 162 163 168 167 187 188 193 192
8 163 164 169 168 188 189 194 193
8 165 166 171 170 190 191 196 195
8 166 167 172 171 191 192 197 196
8 167 168 173 172 192 193 198 197
8 168 169 174 173 193 194 199 198
8 175 176 181 180 200 201 206 205
8 176 177 182 181 201 202 207 206
8 177 178 183 182 202 203 208 207
8 178 179 184 183 203 204 209 208
8 180 181 186 185 205 206 211 210
8 181 182 187 186 206 207 212 211
8 182 183 188 187 207 208 213 212
8 183 184 189 188 208 209 214 213
8 185 186 191 190 210 211 216 215
8 186 187 192 191 211 212 217 216
8 187 188 193 192 212 213 218 217
8 188 189 194 193 213 214 219 218
8 190 191 196 195 215 216 221 220
8 191 192 197 196 216 217 222 221
8 192 193 198 197 217 218 223 222
8 193 194 199 198 218 219 224 223
8 200 201 206 205 225 226 231 230
8 201 202 207 206 226 227 232 231
8 202 203 208 207 227 228 233 232
8 203 204 209 208 228 229 234 233
8 205 206 211 210 230 231 236 235
8 206 207 212 211 231 232 237 236
8 207 208 213 212 232 233 238 237
8 208 209 214 213 233 234 239 238
8 210 211 216 215 235 236 241 240
8 211 212 217 216 236 237 242 241
8 212 213 218 217 237 238 243 242
8 213 214 219 218 238 239 244 243
8 215 216 221 220 240 241 246 245
8 216 217 222 221 241 242 247 246
8 217 218 223 222 242 243 248 247
8 218 219 224 223 243 244 249 248
CELL_TYPES 128
12
12
12
12
12
12
12
12
12
12
12
12
12
12
12
12
12
12
12
12
12
12
12
12
12
12
12
12
12
12
12
12
12
12
12
12
12
12
12
12
12
12
12
12
12
12
12
12
12
12
12
12
12
12
12
12
12
12
12
12
12
12
12
12
12
12
12
12
12
12
12
12
12
12
12
12
12
12
12
12
12
12
12
12
12
12
12
12
12
12
12
12
12
12
12
12
12
12
12
12
12
12
12
12
12
12
12
12
12
12
12
12
12
12
12
12
12
12
12
12
12
12
12
12
12
12
12
12
POINT_DATA 250
VECTORS displacement float
0.000000000000e+00 0.000000000000e+00 0.000000000000e+00
0.000000000000e+00 0.000000000000e+00 0.000000000000e+00
0.000000000000e+00 0.000000000000e+00 0.000000000000e+00
0.000000000000e+00 0.000000000000e+00 0.000000000000e+00
0.000000000000e+00 0.000000000000e+00 0.000000000000e+00
0.000000000000e+00 0.000000000000e+00 0.000000000000e+00
0.000000000000e+00 0.000000000000e+00 0.000000000000e+00
0.000000000000e+00 0.000000000000e+00 0.000000000000e+00
0.000000000000e+00 0.000000000000e+00 0.000000000000e+00
0.000000000000e+00 0.000000000000e+00 0.000000000000e+00
0.000000000000e+00 0.000000000000e+00 0.000000000000e+00
0.000000000000e+00 0.000000000000e+00 0.000000000000e+00
0.000000000000e+00 0.000000000000e+00 0.000000000000e+00
0.000000000000e+00 0.000000000000e+00 0.000000000000e+00
0.000000000000e+00 0.000000000000e+00 0.000000000000e+00
0.000000000000e+00 0.000000000000e+00 0.000000000000e+00
0.000000000000e+00 0.000000000000e+00 0.000000000000e+00
0.000000000000e+00 0.000000000000e+00 0.000000000000e+00
0.000000000000e+00 0.000000000000e+00 0.000000000000e+00
0.000000000000e+00 0.000000000000e+00 0.000000000000e+00
0.000000000000e+00 0.000000000000e+00 0.000000000000e+00
0.000000000000e+00 0.000000000000e+00 0.000000000000e+00
0.000000000000e+00 0.000000000000e+00 0.000000000000e+00
0.000000000000e+00 0.000000000000e+00 0.000000000000e+00
0.000000000000e+00 0.000000000000e+00 0.000000000000e+00
0.000000000000e+00 0.000000000000e+00 0.000000000000e+00
0.000000000000e+00 0.000000000000e+00 0.000000000000e+00
0.000000000000e+00 0.000000000000e+00 0.000000000000e+00
0.000000000000e+00 0.000000000000e+00 0.000000000000e+00
0.000000000000e+00 0.000000000000e+00 0.000000000000e+00
0.000000000000e+00 0.000000000000e+00 0.000000000000e+00
0.000000000000e+00 0.000000000000e+00 0.000000000000e+00
0.000000000000e+00 0.000000000000e+00 0.000000000000e+00
0.000000000000e+00 0.000000000000e+00 0.000000000000e+00
0.000000000000e+00 0.000000000000e+00 0.000000000000e+00
0.000000000000e+00 0.000000000000e+00 0.000000000000e+00
0.000000000000e+00 0.000000000000e+00 0.000000000000e+00
0.000000000000e+00 0.000000000000e+00 0.000000000000e+00
0.000000000000e+00 0.000000000000e+00 0.000000000000e+00
0.000000000000e+00 0.000000000000e+00 0.000000000000e+00
0.000000000000e+00 0.000000000000e+00 0.000000000000e+00
0.000000000000e+00 0.000000000000e+00 0.000000000000e+00
0.000000000000e+00 0.000000000000e+00 0.000000000000e+00
0.000000000000e+00 0.000000000000e+00 0.000000000000e+00
0.000000000000e+00 0.000000000000e+00 0.000000000000e+00
0.000000000000e+00 0.000000000000e+00 0.000000000000e+00
0.000000000000e+00 0.000000000000e+00 0.000000000000e+00
0.000000000000e+00 0.000000000000e+00 0.000000000000e+00
0.000000000000e+00 0.000000000000e+00 0.000000000000e+00
0.000000000000e+00 0.000000000000e+00 0.000000000000e+00
0.000000000000e+00 0.000000000000e+00 0.000000000000e+00
0.000000000000e+00 0.000000000000e+00 0.000000000000e+00
0.000000000000e+00 0.000000000000e+00 0.000000000000e+00
0.000000000000e+00 0.000000000000e+00 0.000000000000e+00
0.000000000000e+00 0.000000000000e+00 0.000000000000e+00
0.000000000000e+00 0.000000000000e+00 0.000000000000e+00
0.000000000000e+00 0.000000000000e+00 0.000000000000e+00
0.000000000000e+00 0.000000000000e+00 0.000000000000e+00
0.000000000000e+00 0.000000000000e+00 0.000000000000e+00
0.000000000000e+00 0.000000000000e+00 0.000000000000e+00
0.000000000000e+00 0.000000000000e+00 0.000000000000e+00
0.000000000000e+00 0.000000000000e+00 0.000000000000e+00
0.000000000000e+00 0.000000000000e+00 0.000000000000e+00
0.000000000000e+00 0.000000000000e+00 0.000000000000e+00
0.000000000000e+00 0.000000000000e+00 0.000000000000e+00
0.000000000000e+00 0.000000000000e+00 0.000000000000e+00
0.000000000000e+00 0.000000000000e+00 0.000000000000e+00
0.000000000000e+00 0.000000000000e+00 0.000000000000e+00
0.000000000000e+00 0.000000000000e+00 0.000000000000e+00
0.000000000000e+00 0.000000000000e+00 0.000000000000e+00
0.000000000000e+00 0.000000000000e+00 0.000000000000e+00
0.000000000000e+00 0.000000000000e+00 0.000000000000e+00
0.000000000000e+00 0.000000000000e+00 0.000000000000e+00
0.000000000000e+00 0.000000000000e+00 0.000000000000e+00
0.000000000000e+00 0.000000000000e+00 0.000000000000e+00
0.000000000000e+00 0.000000000000e+00 0.000000000000e+00
0.000000000000e+00 0.000000000000e+00 0.000000000000e+00
0.000000000000e+00 0.000000000000e+00 0.000000000000e+00
0.000000000000e+00 0.000000000000e+00 0.000000000000e+00
0.000000000000e+00 0.000000000000e+00 0.000000000000e+00
0.000000000000e+00 0.000000000000e+00 0.000000000000e+00
0.000000000000e+00 0.000000000000e+00 0.000000000000e+00
0.000000000000e+00 0.000000000000e+00 0.000000000000e+00
0.000000000000e+00 0.000000000000e+00 0.000000000000e+00
0.000000000000e+00 0.000000000000e+00 0.000000000000e+00
0.000000000000e+00 0.000000000000e+00 0.000000000000e+00
0.000000000000e+00 0.000000000000e+00 0.000000000000e+00
0.000000000000e+00 0.000000000000e+00 0.000000000000e+00
0.000000000000e+00 0.000000000000e+00 0.000000000000e+00
0.000000000000e+00 0.000000000000e+00 0.000000000000e+00
0.000000000000e+00 0.000000000000e+00 0.000000000000e+00
0.000000000000e+00 0.000000000000e+00 0.000000000000e+00
0.000000000000e+00 0.000000000000e+00 0.000000000000e+00
0.000000000000e+00 0.000000000000e+00 0.000000000000e+00
0.000000000000e+00 0.000000000000e+00 0.000000000000e+00
0.000000000000e+00 0.000000000000e+00 0.000000000000e+00
0.000000000000e+00 0.000000000000e+00 0.000000000000e+00
0.000000000000e+00 0.000000000000e+00 0.000000000000e+00
0.000000000000e+00 0.000000000000e+00 0.000000000000e+00
0.000000000000e+00 0.000000000000e+00 0.000000000000e+00
0.000000000000e+00 0.000000000000e+00 0.000000000000e+00
0.000000000000e+00 0.000000000000e+00 0.000000000000e+00
0.000000000000e+00 0.000000000000e+00 0.000000000000e+00
0.000000000000e+00 0.000000000000e+00 0.000000000000e+00
0.000000000000e+00 0.000000000000e+00 0.000000000000e+00
0.000000000000e+00 0.000000000000e+00 0.000000000000e+00
0.000000000000e+00 0.000000000000e+00 0.000000000000e+00
0.000000000000e+00 0.000000000000e+00 0.000000000000e+00
0.000000000000e+00 0.000000000000e+00 0.000000000000e+00
0.000000000000e+00 0.000000000000e+00 0.000000000000e+00
0.000000000000e+00 0.000000000000e+00 0.000000000000e+00
0.000000000000e+00 0.000000000000e+00 0.000000000000e+00
0.000000000000e+00 0.000000000000e+00 0.000000000000e+00
0.000000000000e+00 0.000000000000e+00 0.000000000000e+00
0.000000000000e+00 0.000000000000e+00 0.000000000000e+00
0.000000000000e+00 0.000000000000e+00 0.000000000000e+00
0.000000000000e+00 0.000000000000e+00 0.000000000000e+00
0.000000000000e+00 0.000000000000e+00 0.000000000000e+00
0.000000000000e+00 0.000000000000e+00 0.000000000000e+00
0.000000000000e+00 0.000000000000e+00 0.000000000000e+00
0.000000000000e+00 0.000000000000e+00 0.000000000000e+00
0.000000000000e+00 0.000000000000e+00 0.000000000000e+00
0.000000000000e+00 0.000000000000e+00 0.000000000000e+00
0.000000000000e+00 0.000000000000e+00 0.000000000000e+00
0.000000000000e+00 0.000000000000e+00 0.000000000000e+00
-1.803576134020e-06 -1.803576169417e-06 -1.504840321840e-02
-9.574069828678e-07 -1.794728625442e-06 -1.504892882458e-02
1.588989469937e-14 -1.773127153489e-06 -1.504911062304e-02
9.574070146348e-07 -1.794728623760e-06 -1.504892882458e-02
1.803576165771e-06 -1.803576166008e-06 -1.504840321840e-02
-1.794728591756e-06 -9.574070182564e-07 -1.504892882458e-02
-9.572957540289e-07 -9.572957877146e-07 -1.504944977934e-02
1.503098520075e-14 -9.498783921502e-07 -1.504962882282e-02
9.572957840894e-07 -9.572957860213e-07 -1.504944977934e-02
1.794728621808e-06 -9.574070148594e-07 -1.504892882458e-02
-1.773127121517e-06 -1.949320803832e-14 -1.504911062304e-02
-9.498783601726e-07 -1.864820024267e-14 -1.504962882282e-02
1.417454888440e-14 -1.780148020139e-14 -1.504980737820e-02
9.498783885158e-07 -1.695095963571e-14 -1.504962882282e-02
1.773127149844e-06 -1.609725366547e-14 -1.504911062304e-02
-1.794728593482e-06 9.574069792610e-07 -1.504892882458e-02
-9.572957557542e-07 9.572957504211e-07 -1.504944977934e-02
1.331358712690e-14 9.498783565432e-07 -1.504962882282e-02
9.572957823801e-07 9.572957521182e-07 -1.504944977934e-02
1.794728620110e-06 9.574069826593e-07 -1.504892882458e-02
-1.803576137445e-06 1.803576130408e-06 -1.504840321840e-02
-9.574069862982e-07 1.794728588151e-06 -1.504892882458e-02
1.245948050445e-14 1.773127117874e-06 -1.504911062304e-02
9.574070112167e-07 1.794728589846e-06 -1.504892882458e-02
1.803576162351e-06 1.803576133797e-06 -1.504840321840e-02
-1.460518721928e-06 -1.460518757279e-06 -1.504972602909e-02
-7.664325309941e-07 -1.455903915376e-06 -1.505028404961e-02
1.583468533451e-14 -1.438186841030e-06 -1.505047861320e-02
7.664325626659e-07 -1.455903913672e-06 -1.505028404961e-02
1.460518753592e-06 -1.460518753873e-06 -1.504972602909e-02
-1.455903881725e-06 -7.664325663505e-07 -1.505028404961e-02
-7.666957093703e-07 -7.666957430197e-07 -1.505084094659e-02
1.498426591656e-14 -7.600726095729e-07 -1.505103469384e-02
7.666957393341e-07 -7.666957413196e-07 -1.505084094659e-02
1.455903911680e-06 -7.664325629446e-07 -1.505028404961e-02
-1.438186809095e-06 -1.951622493042e-14 -1.505047861320e-02
-7.600725776292e-07 -1.866243475867e-14 -1.505103469384e-02
1.412662810724e-14 -1.781672570077e-14 -1.505122941414e-02
7.600726058812e-07 -1.696181431171e-14 -1.505103469384e-02
1.438186837335e-06 -1.611014080342e-14 -1.505047861320e-02
-1.455903883441e-06 7.664325273203e-07 -1.505028404961e-02
-7.666957110886e-07 7.666957056912e-07 -1.505084094659e-02
1.327064958579e-14 7.600725739432e-07 -1.505103469384e-02
7.666957376254e-07 7.666957073952e-07 -1.505084094659e-02
1.455903909974e-06 7.664325307280e-07 -1.505028404961e-02
-1.460518725345e-06 1.460518718249e-06 -1.504972602909e-02
-7.664325344151e-07 1.455903878043e-06 -1.505028404961e-02
1.241584063337e-14 1.438186805401e-06 -1.505047861320e-02
7.664325592477e-07 1.455903879745e-06 -1.505028404961e-02
1.460518750175e-06 1.460518721657e-06 -1.504972602909e-02
-1.050287078507e-06 -1.050287113826e-06 -1.505066556374e-02
-5.660964573564e-07 -1.042917221050e-06 -1.505125385460e-02
1.578534429508e-14 -1.025620724014e-06 -1.505145726358e-02
5.660964889315e-07 -1.042917219340e-06 -1.505125385460e-02
1.050287110082e-06 -1.050287110413e-06 -1.505066556373e-02
-1.042917187437e-06 -5.660964926778e-07 -1.505125385460e-02
-5.663477715445e-07 -5.663478051557e-07 -1.505184445233e-02
1.493387742278e-14 -5.599967674809e-07 -1.505204847407e-02
5.663478014105e-07 -5.663478034506e-07 -1.505184445233e-02
1.042917217298e-06 -5.660964892646e-07 -1.505125385460e-02
-1.025620692106e-06 -1.953472108680e-14 -1.505145726358e-02
-5.599967355751e-07 -1.867867696145e-14 -1.505204847407e-02
1.407921306283e-14 -1.782854589801e-14 -1.505225455714e-02
5.599967637307e-07 -1.697337214424e-14 -1.505204847407e-02
1.025620720258e-06 -1.611870132438e-14 -1.505145726358e-02
-1.042917189143e-06 5.660964536135e-07 -1.505125385460e-02
-5.663477732524e-07 5.663477677956e-07 -1.505184445233e-02
1.322334991474e-14 5.599967318261e-07 -1.505204847407e-02
5.663477997022e-07 5.663477695058e-07 -1.505184445233e-02
1.042917215588e-06 5.660964570294e-07 -1.505125385460e-02
-1.050287081917e-06 1.050287074764e-06 -1.505066556374e-02
-5.660964607723e-07 1.042917183684e-06 -1.505125385460e-02
1.236805566050e-14 1.025620688357e-06 -1.505145726358e-02
5.660964855134e-07 1.042917185396e-06 -1.505125385460e-02
1.050287106660e-06 1.050287078177e-06 -1.505066556373e-02
-6.275381272069e-07 -6.275381624854e-07 -1.505124700895e-02
-3.548170601543e-07 -6.161985806451e-07 -1.505185106165e-02
1.573815895271e-14 -5.996193748836e-07 -1.505206939014e-02
3.548170916302e-07 -6.161985789341e-07 -1.505185106165e-02
6.275381586838e-07 -6.275381590646e-07 -1.505124700895e-02
-6.161985470680e-07 -3.548170954375e-07 -1.505185106165e-02
-3.548435122690e-07 -3.548435458458e-07 -1.505245924674e-02
1.488204556901e-14 -3.483129665970e-07 -1.505268006077e-02
3.548435420370e-07 -3.548435441347e-07 -1.505245924674e-02
6.161985768387e-07 -3.548170920170e-07 -1.505185106165e-02
-5.996193430227e-07 -1.955036601578e-14 -1.505206939014e-02
-3.483129347267e-07 -1.869798096957e-14 -1.505268006077e-02
1.403251257226e-14 -1.784130815628e-14 -1.505290475123e-02
3.483129627882e-07 -1.698194466749e-14 -1.505268006077e-02
5.996193710775e-07 -1.612569553352e-14 -1.505206939014e-02
-6.161985487676e-07 3.548170563367e-07 -1.505185106165e-02
-3.548435139691e-07 3.548435084509e-07 -1.505245924674e-02
1.317873895216e-14 3.483129309155e-07 -1.505268006077e-02
3.548435403301e-07 3.548435101670e-07 -1.505245924674e-02
6.161985751307e-07 3.548170597650e-07 -1.505185106165e-02
-6.275381306060e-07 6.275381233873e-07 -1.505124700895e-02
-3.548170635618e-07 6.161985432427e-07 -1.505185106165e-02
1.232294981728e-14 5.996193392071e-07 -1.505206939014e-02
3.548170882126e-07 6.161985449664e-07 -1.505185106165e-02
6.275381552629e-07 6.275381268121e-07 -1.505124700895e-02
-2.487174247837e-07 -2.487174600240e-07 -1.505147378725e-02
-1.340725112831e-07 -2.389024905189e-07 -1.505208211563e-02
1.568381153108e-14 -2.256554184578e-07 -1.505231048627e-02
1.340725426537e-07 -2.389024887975e-07 -1.505208211563e-02
2.487174561651e-07 -2.487174565992e-07 -1.505147378725e-02
-2.389024569863e-07 -1.340725465267e-07 -1.505208211563e-02
-1.321083911019e-07 -1.321084246385e-07 -1.505269604093e-02
1.483162328538e-14 -1.242191788039e-07 -1.505292830145e-02
1.321084207685e-07 -1.321084229216e-07 -1.505269604093e-02
2.389024866513e-07 -1.340725430967e-07 -1.505208211563e-02
-2.256553866382e-07 -1.957189162886e-14 -1.505231048627e-02
-1.242191469752e-07 -1.871358832478e-14 -1.505292830145e-02
1.398339750256e-14 -1.785633396928e-14 -1.505316512521e-02
1.242191749389e-07 -1.699587403484e-14 -1.505292830145e-02
2.256554146066e-07 -1.613765473420e-14 -1.505231048627e-02
-2.389024586813e-07 1.340725073840e-07 -1.505208211563e-02
-1.321083927948e-07 1.321083872044e-07 -1.505269604093e-02
1.313616565065e-14 1.242191430921e-07 -1.505292830145e-02
1.321084190618e-07 1.321083889344e-07 -1.505269604093e-02
2.389024849362e-07 1.340725108195e-07 -1.505208211563e-02
-2.487174281803e-07 2.487174208871e-07 -1.505147378725e-02
-1.340725146756e-07 2.389024530793e-07 -1.505208211563e-02
1.228309466011e-14 2.256553827590e-07 -1.505231048627e-02
1.340725392375e-07 2.389024548156e-07 -1.505208211563e-02
2.487174527433e-07 2.487174243292e-07 -1.505147378725e-02
SCALARS displacement_magnitude float 1
LOOKUP_TABLE default
0.000000000000e+00
0.000000000000e+00
0.000000000000e+00
0.000000000000e+00
0.000000000000e+00
0.000000000000e+00
0.000000000000e+00
0.000000000000e+00
0.000000000000e+00
0.000000000000e+00
0.000000000000e+00
0.000000000000e+00
0.000000000000e+00
0.000000000000e+00
0.000000000000e+00
0.000000000000e+00
0.000000000000e+00
0.000000000000e+00
0.000000000000e+00
0.000000000000e+00
0.000000000000e+00
0.000000000000e+00
0.000000000000e+00
0.000000000000e+00
0.000000000000e+00
0.000000000000e+00
0.000000000000e+00
0.000000000000e+00
0.000000000000e+00
0.000000000000e+00
0.000000000000e+00
0.000000000000e+00
0.000000000000e+00
0.000000000000e+00
0.000000000000e+00
0.000000000000e+00
0.000000000000e+00
0.000000000000e+00
0.000000000000e+00
0.000000000000e+00
0.000000000000e+00
0.000000000000e+00
0.000000000000e+00
0.000000000000e+00
0.000000000000e+00
0.000000000000e+00
0.000000000000e+00
0.000000000000e+00
0.000000000000e+00
0.000000000000e+00
0.000000000000e+00
0.000000000000e+00
0.000000000000e+00
0.000000000000e+00
0.000000000000e+00
0.000000000000e+00
0.000000000000e+00
0.000000000000e+00
0.000000000000e+00
0.000000000000e+00
0.000000000000e+00
0.000000000000e+00
0.000000000000e+00
0.000000000000e+00
0.000000000000e+00
0.000000000000e+00
0.000000000000e+00
0.000000000000e+00
0.000000000000e+00
0.000000000000e+00
0.000000000000e+00
0.000000000000e+00
0.000000000000e+00
0.000000000000e+00
0.000000000000e+00
0.000000000000e+00
0.000000000000e+00
0.000000000000e+00
0.000000000000e+00
0.000000000000e+00
0.000000000000e+00
0.000000000000e+00
0.000000000000e+00
0.000000000000e+00
0.000000000000e+00
0.000000000000e+00
0.000000000000e+00
0.000000000000e+00
0.000000000000e+00
0.000000000000e+00
0.000000000000e+00
0.000000000000e+00
0.000000000000e+00
0.000000000000e+00
0.000000000000e+00
0.000000000000e+00
0.000000000000e+00
0.000000000000e+00
0.000000000000e+00
0.000000000000e+00
0.000000000000e+00
0.000000000000e+00
0.000000000000e+00
0.000000000000e+00
0.000000000000e+00
0.000000000000e+00
0.000000000000e+00
0.000000000000e+00
0.000000000000e+00
0.000000000000e+00
0.000000000000e+00
0.000000000000e+00
0.000000000000e+00
0.000000000000e+00
0.000000000000e+00
0.000000000000e+00
0.000000000000e+00
0.000000000000e+00
0.000000000000e+00
0.000000000000e+00
0.000000000000e+00
0.000000000000e+00
0.000000000000e+00
0.000000000000e+00
0.000000000000e+00
1.504840343456e-02
1.504892896205e-02
1.504911072750e-02
1.504892896205e-02
1.504840343456e-02
1.504892896205e-02
1.504944984023e-02
1.504962885279e-02
1.504944984023e-02
1.504892896205e-02
1.504911072750e-02
1.504962885279e-02
1.504980737820e-02
1.504962885279e-02
1.504911072750e-02
1.504892896205e-02
1.504944984023e-02
1.504962885279e-02
1.504944984023e-02
1.504892896205e-02
1.504840343456e-02
1.504892896205e-02
1.504911072750e-02
1.504892896205e-02
1.504840343456e-02
1.504972617083e-02
1.505028413954e-02
1.505047868191e-02
1.505028413954e-02
1.504972617083e-02
1.505028413954e-02
1.505084098564e-02
1.505103471303e-02
1.505084098564e-02
1.505028413954e-02
1.505047868191e-02
1.505103471303e-02
1.505122941414e-02
1.505103471303e-02
1.505047868191e-02
1.505028413954e-02
1.505084098564e-02
1.505103471303e-02
1.505084098564e-02
1.505028413954e-02
1.504972617083e-02
1.505028413954e-02
1.505047868191e-02
1.505028413954e-02
1.504972617083e-02
1.505066563703e-02
1.505125390137e-02
1.505145729852e-02
1.505125390137e-02
1.505066563703e-02
1.505125390138e-02
1.505184447364e-02
1.505204848449e-02
1.505184447363e-02
1.505125390137e-02
1.505145729852e-02
1.505204848449e-02
1.505225455714e-02
1.505204848449e-02
1.505145729852e-02
1.505125390137e-02
1.505184447364e-02
1.505204848449e-02
1.505184447363e-02
1.505125390137e-02
1.505066563703e-02
1.505125390137e-02
1.505145729852e-02
1.505125390137e-02
1.505066563703e-02
1.505124703511e-02
1.505185107844e-02
1.505206940208e-02
1.505185107844e-02
1.505124703511e-02
1.505185107844e-02
1.505245925511e-02
1.505268006480e-02
1.505245925511e-02
1.505185107844e-02
1.505206940208e-02
1.505268006480e-02
1.505290475123e-02
1.505268006480e-02
1.505206940208e-02
1.505185107844e-02
1.505245925511e-02
1.505268006480e-02
1.505245925511e-02
1.505185107844e-02
1.505124703511e-02
1.505185107844e-02
1.505206940208e-02
1.505185107844e-02
1.505124703511e-02
1.505147379136e-02
1.505208211812e-02
1.505231048796e-02
1.505208211812e-02
1.505147379136e-02
1.505208211812e-02
1.505269604209e-02
1.505292830196e-02
1.505269604209e-02
1.505208211812e-02
1.505231048796e-02
1.505292830196e-02
1.505316512521e-02
1.505292830196e-02
1.505231048796e-02
1.505208211812e-02
1.505269604209e-02
1.505292830196e-02
1.505269604209e-02
1.505208211812e-02
1.505147379136e-02
1.505208211812e-02
1.505231048796e-02
1.505208211812e-02
1.505147379136e-02
CELL_DATA 128
SCALARS displacement_magnitude float 1
LOOKUP_TABLE default
0.000000000000e+00
0.000000000000e+00
0.000000000000e+00
0.000000000000e+00
0.000000000000e+00
0.000000000000e+00
0.000000000000e+00
0.000000000000e+00
0.000000000000e+00
0.000000000000e+00
0.000000000000e+00
0.000000000000e+00
0.000000000000e+00
0.000000000000e+00
0.000000000000e+00
0.000000000000e+00
0.000000000000e+00
0.000000000000e+00
0.000000000000e+00
0.000000000000e+00
0.000000000000e+00
0.000000000000e+00
0.000000000000e+00
0.000000000000e+00
0.000000000000e+00
0.000000000000e+00
0.000000000000e+00
0.000000000000e+00
0.000000000000e+00
0.000000000000e+00
0.000000000000e+00
0.000000000000e+00
0.000000000000e+00
0.000000000000e+00
0.000000000000e+00
0.000000000000e+00
0.000000000000e+00
0.000000000000e+00
0.000000000000e+00
0.000000000000e+00
0.000000000000e+00
0.000000000000e+00
0.000000000000e+00
0.000000000000e+00
0.000000000000e+00
0.000000000000e+00
0.000000000000e+00
0.000000000000e+00
0.000000000000e+00
0.000000000000e+00
0.000000000000e+00
0.000000000000e+00
0.000000000000e+00
0.000000000000e+00
0.000000000000e+00
0.000000000000e+00
0.000000000000e+00
0.000000000000e+00
0.000000000000e+00
0.000000000000e+00
0.000000000000e+00
0.000000000000e+00
0.000000000000e+00
0.000000000000e+00
1.504960582931e-02
1.504996961284e-02
1.504996961284e-02
1.504960582931e-02
1.504996961284e-02
1.505033184373e-02
1.505033184373e-02
1.504996961284e-02
1.504996961284e-02
1.505033184373e-02
1.505033184373e-02
1.504996961284e-02
1.504960582931e-02
1.504996961284e-02
1.504996961284e-02
1.504960582931e-02
1.505076916862e-02
1.505115533477e-02
1.505115533477e-02
1.505076916862e-02
1.505115533477e-02
1.505154197820e-02
1.505154197820e-02
1.505115533477e-02
1.505115533477e-02
1.505154197820e-02
1.505154197820e-02
1.505115533477e-02
1.505076916862e-02
1.505115533477e-02
1.505115533477e-02
1.505076916862e-02
1.505155329506e-02
1.505195799481e-02
1.505195799481e-02
1.505155329506e-02
1.505195799481e-02
1.505236501696e-02
1.505236501696e-02
1.505195799481e-02
1.505195799481e-02
1.505236501696e-02
1.505236501696e-02
1.505195799481e-02
1.505155329506e-02
1.505195799481e-02
1.505195799481e-02
1.505155329506e-02
1.505196781460e-02
1.505238459382e-02
1.505238459382e-02
1.505196781460e-02
1.505238459382e-02
1.505280523840e-02
1.505280523840e-02
1.505238459382e-02
1.505238459382e-02
1.505280523840e-02
1.505280523840e-02
1.505238459382e-02
1.505196781460e-02
1.505238459382e-02
1.505238459382e-02
1.505196781460e-02
SCALARS engineering_strain_norm float 1
LOOKUP_TABLE default
0.000000000000e+00
0.000000000000e+00
0.000000000000e+00
0.000000000000e+00
0.000000000000e+00
0.000000000000e+00
0.000000000000e+00
0.000000000000e+00
0.000000000000e+00
0.000000000000e+00
0.000000000000e+00
0.000000000000e+00
0.000000000000e+00
0.000000000000e+00
0.000000000000e+00
0.000000000000e+00
0.000000000000e+00
0.000000000000e+00
0.000000000000e+00
0.000000000000e+00
0.000000000000e+00
0.000000000000e+00
0.000000000000e+00
0.000000000000e+00
0.000000000000e+00
0.000000000000e+00
0.000000000000e+00
0.000000000000e+00
0.000000000000e+00
0.000000000000e+00
0.000000000000e+00
0.000000000000e+00
0.000000000000e+00
0.000000000000e+00
0.000000000000e+00
0.000000000000e+00
0.000000000000e+00
0.000000000000e+00
0.000000000000e+00
0.000000000000e+00
0.000000000000e+00
0.000000000000e+00
0.000000000000e+00
0.000000000000e+00
0.000000000000e+00
0.000000000000e+00
0.000000000000e+00
0.000000000000e+00
0.000000000000e+00
0.000000000000e+00
0.000000000000e+00
0.000000000000e+00
0.000000000000e+00
0.000000000000e+00
0.000000000000e+00
0.000000000000e+00
0.000000000000e+00
0.000000000000e+00
0.000000000000e+00
0.000000000000e+00
0.000000000000e+00
0.000000000000e+00
0.000000000000e+00
0.000000000000e+00
2.259713405396e-05
2.313194742256e-05
2.313194742254e-05
2.259713405381e-05
2.313194742267e-05
2.371472104348e-05
2.371472104341e-05
2.313194742246e-05
2.313194742265e-05
2.371472104352e-05
2.371472104346e-05
2.313194742252e-05
2.259713405389e-05
2.313194742256e-05
2.313194742251e-05
2.259713405373e-05
1.633983055852e-05
1.680575477360e-05
1.680575477352e-05
1.633983055834e-05
1.680575477365e-05
1.731202965049e-05
1.731202965040e-05
1.680575477347e-05
1.680575477363e-05
1.731202965050e-05
1.731202965047e-05
1.680575477353e-05
1.633983055845e-05
1.680575477351e-05
1.680575477354e-05
1.633983055837e-05
1.012181407636e-05
1.054861518723e-05
1.054861518723e-05
1.012181407637e-05
1.054861518728e-05
1.101560483035e-05
1.101560483036e-05
1.054861518725e-05
1.054861518729e-05
1.101560483032e-05
1.101560483036e-05
1.054861518722e-05
1.012181407632e-05
1.054861518717e-05
1.054861518724e-05
1.012181407633e-05
4.169048214722e-06
4.420903648005e-06
4.420903647992e-06
4.169048214771e-06
4.420903648019e-06
4.690232750849e-06
4.690232750881e-06
4.420903648073e-06
4.420903647930e-06
4.690232750806e-06
4.690232750827e-06
4.420903648016e-06
4.169048214711e-06
4.420903647946e-06
4.420903648001e-06
4.169048214708e-06
SCALARS von_mises float 1
LOOKUP_TABLE default
0.000000000000e+00
0.000000000000e+00
0.000000000000e+00
0.000000000000e+00
0.000000000000e+00
0.000000000000e+00
0.000000000000e+00
0.000000000000e+00
0.000000000000e+00
0.000000000000e+00
0.000000000000e+00
0.000000000000e+00
0.000000000000e+00
0.000000000000e+00
0.000000000000e+00
0.000000000000e+00
0.000000000000e+00
0.000000000000e+00
0.000000000000e+00
0.000000000000e+00
0.000000000000e+00
0.000000000000e+00
0.000000000000e+00
0.000000000000e+00
0.000000000000e+00
0.000000000000e+00
0.000000000000e+00
0.000000000000e+00
0.000000000000e+00
0.000000000000e+00
0.000000000000e+00
0.000000000000e+00
0.000000000000e+00
0.000000000000e+00
0.000000000000e+00
0.000000000000e+00
0.000000000000e+00
0.000000000000e+00
0.000000000000e+00
0.000000000000e+00
0.000000000000e+00
0.000000000000e+00
0.000000000000e+00
0.000000000000e+00
0.000000000000e+00
0.000000000000e+00
0.000000000000e+00
0.000000000000e+00
0.000000000000e+00
0.000000000000e+00
0.000000000000e+00
0.000000000000e+00
0.000000000000e+00
0.000000000000e+00
0.000000000000e+00
0.000000000000e+00
0.000000000000e+00
0.000000000000e+00
0.000000000000e+00
0.000000000000e+00
0.000000000000e+00
0.000000000000e+00
0.000000000000e+00
0.000000000000e+00
2.076809343253e+00
2.132163788419e+00
2.132163788417e+00
2.076809343240e+00
2.132163788430e+00
2.192488716826e+00
2.192488716821e+00
2.132163788411e+00
2.132163788427e+00
2.192488716830e+00
2.192488716825e+00
2.132163788416e+00
2.076809343247e+00
2.132163788419e+00
2.132163788415e+00
2.076809343232e+00
1.509382103293e+00
1.556757346322e+00
1.556757346315e+00
1.509382103277e+00
1.556757346326e+00
1.608245800002e+00
1.608245799994e+00
1.556757346310e+00
1.556757346324e+00
1.608245800003e+00
1.608245800001e+00
1.556757346315e+00
1.509382103286e+00
1.556757346314e+00
1.556757346317e+00
1.509382103280e+00
9.373400210143e-01
9.815672457061e-01
9.815672457064e-01
9.373400210155e-01
9.815672457101e-01
1.029474420215e+00
1.029474420217e+00
9.815672457080e-01
9.815672457112e-01
1.029474420213e+00
1.029474420217e+00
9.815672457052e-01
9.373400210104e-01
9.815672457003e-01
9.815672457067e-01
9.373400210120e-01
3.908913867167e-01
4.156526610728e-01
4.156526610715e-01
3.908913867211e-01
4.156526610739e-01
4.417317201796e-01
4.417317201827e-01
4.156526610789e-01
4.156526610657e-01
4.417317201757e-01
4.417317201776e-01
4.156526610735e-01
3.908913867156e-01
4.156526610671e-01
4.156526610722e-01
3.908913867153e-01
SCALARS sdf_gap float 1
LOOKUP_TABLE default
0.000000000000e+00
0.000000000000e+00
0.000000000000e+00
0.000000000000e+00
0.000000000000e+00
0.000000000000e+00
0.000000000000e+00
0.000000000000e+00
0.000000000000e+00
0.000000000000e+00
0.000000000000e+00
0.000000000000e+00
0.000000000000e+00
0.000000000000e+00
0.000000000000e+00
0.000000000000e+00
0.000000000000e+00
0.000000000000e+00
0.000000000000e+00
0.000000000000e+00
0.000000000000e+00
0.000000000000e+00
0.000000000000e+00
0.000000000000e+00
0.000000000000e+00
0.000000000000e+00
0.000000000000e+00
0.000000000000e+00
0.000000000000e+00
0.000000000000e+00
0.000000000000e+00
0.000000000000e+00
0.000000000000e+00
0.000000000000e+00
0.000000000000e+00
0.000000000000e+00
0.000000000000e+00
0.000000000000e+00
0.000000000000e+00
0.000000000000e+00
0.000000000000e+00
0.000000000000e+00
0.000000000000e+00
0.000000000000e+00
0.000000000000e+00
0.000000000000e+00
0.000000000000e+00
0.000000000000e+00
0.000000000000e+00
0.000000000000e+00
0.000000000000e+00
0.000000000000e+00
0.000000000000e+00
0.000000000000e+00
0.000000000000e+00
0.000000000000e+00
0.000000000000e+00
0.000000000000e+00
0.000000000000e+00
0.000000000000e+00
0.000000000000e+00
0.000000000000e+00
0.000000000000e+00
0.000000000000e+00
-4.892766172476e-05
-4.927951244472e-05
-4.927951244459e-05
-4.892766172446e-05
-4.927951244477e-05
-4.962870079389e-05
-4.962870079380e-05
-4.927951244452e-05
-4.927951244472e-05
-4.962870079384e-05
-4.962870079377e-05
-4.927951244448e-05
-4.892766172466e-05
-4.927951244462e-05
-4.927951244454e-05
-4.892766172441e-05
0.000000000000e+00
0.000000000000e+00
0.000000000000e+00
0.000000000000e+00
0.000000000000e+00
0.000000000000e+00
0.000000000000e+00
0.000000000000e+00
0.000000000000e+00
0.000000000000e+00
0.000000000000e+00
0.000000000000e+00
0.000000000000e+00
0.000000000000e+00
0.000000000000e+00
0.000000000000e+00
0.000000000000e+00
0.000000000000e+00
0.000000000000e+00
0.000000000000e+00
0.000000000000e+00
0.000000000000e+00
0.000000000000e+00
0.000000000000e+00
0.000000000000e+00
0.000000000000e+00
0.000000000000e+00
0.000000000000e+00
0.000000000000e+00
0.000000000000e+00
0.000000000000e+00
0.000000000000e+00
0.000000000000e+00
0.000000000000e+00
0.000000000000e+00
0.000000000000e+00
0.000000000000e+00
0.000000000000e+00
0.000000000000e+00
0.000000000000e+00
0.000000000000e+00
0.000000000000e+00
0.000000000000e+00
0.000000000000e+00
0.000000000000e+00
0.000000000000e+00
0.000000000000e+00
0.000000000000e+00
SCALARS contact_pressure float 1
LOOKUP_TABLE default
0.000000000000e+00
0.000000000000e+00
0.000000000000e+00
0.000000000000e+00
0.000000000000e+00
0.000000000000e+00
0.000000000000e+00
0.000000000000e+00
0.000000000000e+00
0.000000000000e+00
0.000000000000e+00
0.000000000000e+00
0.000000000000e+00
0.000000000000e+00
0.000000000000e+00
0.000000000000e+00
0.000000000000e+00
0.000000000000e+00
0.000000000000e+00
0.000000000000e+00
0.000000000000e+00
0.000000000000e+00
0.000000000000e+00
0.000000000000e+00
0.000000000000e+00
0.000000000000e+00
0.000000000000e+00
0.000000000000e+00
0.000000000000e+00
0.000000000000e+00
0.000000000000e+00
0.000000000000e+00
0.000000000000e+00
0.000000000000e+00
0.000000000000e+00
0.000000000000e+00
0.000000000000e+00
0.000000000000e+00
0.000000000000e+00
0.000000000000e+00
0.000000000000e+00
0.000000000000e+00
0.000000000000e+00
0.000000000000e+00
0.000000000000e+00
0.000000000000e+00
0.000000000000e+00
0.000000000000e+00
0.000000000000e+00
0.000000000000e+00
0.000000000000e+00
0.000000000000e+00
0.000000000000e+00
0.000000000000e+00
0.000000000000e+00
0.000000000000e+00
0.000000000000e+00
0.000000000000e+00
0.000000000000e+00
0.000000000000e+00
0.000000000000e+00
0.000000000000e+00
0.000000000000e+00
0.000000000000e+00
2.446383086238e+00
2.463975622236e+00
2.463975622230e+00
2.446383086223e+00
2.463975622239e+00
2.481435039695e+00
2.481435039690e+00
2.463975622226e+00
2.463975622236e+00
2.481435039692e+00
2.481435039689e+00
2.463975622224e+00
2.446383086233e+00
2.463975622231e+00
2.463975622227e+00
2.446383086221e+00
0.000000000000e+00
0.000000000000e+00
0.000000000000e+00
0.000000000000e+00
0.000000000000e+00
0.000000000000e+00
0.000000000000e+00
0.000000000000e+00
0.000000000000e+00
0.000000000000e+00
0.000000000000e+00
0.000000000000e+00
0.000000000000e+00
0.000000000000e+00
0.000000000000e+00
0.000000000000e+00
0.000000000000e+00
0.000000000000e+00
0.000000000000e+00
0.000000000000e+00
0.000000000000e+00
0.000000000000e+00
0.000000000000e+00
0.000000000000e+00
0.000000000000e+00
0.000000000000e+00
0.000000000000e+00
0.000000000000e+00
0.000000000000e+00
0.000000000000e+00
0.000000000000e+00
0.000000000000e+00
0.000000000000e+00
0.000000000000e+00
0.000000000000e+00
0.000000000000e+00
0.000000000000e+00
0.000000000000e+00
0.000000000000e+00
0.000000000000e+00
0.000000000000e+00
0.000000000000e+00
0.000000000000e+00
0.000000000000e+00
0.000000000000e+00
0.000000000000e+00
0.000000000000e+00
0.000000000000e+00
SCALARS active_contact float 1
LOOKUP_TABLE default
0.000000000000e+00
0.000000000000e+00
0.000000000000e+00
0.000000000000e+00
0.000000000000e+00
0.000000000000e+00
0.000000000000e+00
0.000000000000e+00
0.000000000000e+00
0.000000000000e+00
0.000000000000e+00
0.000000000000e+00
0.000000000000e+00
0.000000000000e+00
0.000000000000e+00
0.000000000000e+00
0.000000000000e+00
0.000000000000e+00
0.000000000000e+00
0.000000000000e+00
0.000000000000e+00
0.000000000000e+00
0.000000000000e+00
0.000000000000e+00
0.000000000000e+00
0.000000000000e+00
0.000000000000e+00
0.000000000000e+00
0.000000000000e+00
0.000000000000e+00
0.000000000000e+00
0.000000000000e+00
0.000000000000e+00
0.000000000000e+00
0.000000000000e+00
0.000000000000e+00
0.000000000000e+00
0.000000000000e+00
0.000000000000e+00
0.000000000000e+00
0.000000000000e+00
0.000000000000e+00
0.000000000000e+00
0.000000000000e+00
0.000000000000e+00
0.000000000000e+00
0.000000000000e+00
0.000000000000e+00
0.000000000000e+00
0.000000000000e+00
0.000000000000e+00
0.000000000000e+00
0.000000000000e+00
0.000000000000e+00
0.000000000000e+00
0.000000000000e+00
0.000000000000e+00
0.000000000000e+00
0.000000000000e+00
0.000000000000e+00
0.000000000000e+00
0.000000000000e+00
0.000000000000e+00
0.000000000000e+00
1.000000000000e+00
1.000000000000e+00
1.000000000000e+00
1.000000000000e+00
1.000000000000e+00
1.000000000000e+00
1.000000000000e+00
1.000000000000e+00
1.000000000000e+00
1.000000000000e+00
1.000000000000e+00
1.000000000000e+00
1.000000000000e+00
1.000000000000e+00
1.000000000000e+00
1.000000000000e+00
0.000000000000e+00
0.000000000000e+00
0.000000000000e+00
0.000000000000e+00
0.000000000000e+00
0.000000000000e+00
0.000000000000e+00
0.000000000000e+00
0.000000000000e+00
0.000000000000e+00
0.000000000000e+00
0.000000000000e+00
0.000000000000e+00
0.000000000000e+00
0.000000000000e+00
0.000000000000e+00
0.000000000000e+00
0.000000000000e+00
0.000000000000e+00
0.000000000000e+00
0.000000000000e+00
0.000000000000e+00
0.000000000000e+00
0.000000000000e+00
0.000000000000e+00
0.000000000000e+00
0.000000000000e+00
0.000000000000e+00
0.000000000000e+00
0.000000000000e+00
0.000000000000e+00
0.000000000000e+00
0.000000000000e+00
0.000000000000e+00
0.000000000000e+00
0.000000000000e+00
0.000000000000e+00
0.000000000000e+00
0.000000000000e+00
0.000000000000e+00
0.000000000000e+00
0.000000000000e+00
0.000000000000e+00
0.000000000000e+00
0.000000000000e+00
0.000000000000e+00
0.000000000000e+00
0.000000000000e+00
