# vtk DataFile Version 3.0
SFC long-time C3D8 dynamic frame 96 t=1.920000000000e+00
ASCII
DATASET UNSTRUCTURED_GRID
POINTS 250 float
-2.500000000000e-01 -2.500000000000e-01 0.000000000000e+00
-1.250000000000e-01 -2.500000000000e-01 0.000000000000e+00
0.000000000000e+00 -2.500000000000e-01 0.000000000000e+00
1.250000000000e-01 -2.500000000000e-01 0.000000000000e+00
2.500000000000e-01 -2.500000000000e-01 0.000000000000e+00
-2.500000000000e-01 -1.250000000000e-01 0.000000000000e+00
-1.250000000000e-01 -1.250000000000e-01 0.000000000000e+00
0.000000000000e+00 -1.250000000000e-01 0.000000000000e+00
1.250000000000e-01 -1.250000000000e-01 0.000000000000e+00
2.500000000000e-01 -1.250000000000e-01 0.000000000000e+00
-2.500000000000e-01 0.000000000000e+00 0.000000000000e+00
-1.250000000000e-01 0.000000000000e+00 0.000000000000e+00
0.000000000000e+00 0.000000000000e+00 0.000000000000e+00
1.250000000000e-01 0.000000000000e+00 0.000000000000e+00
2.500000000000e-01 0.000000000000e+00 0.000000000000e+00
-2.500000000000e-01 1.250000000000e-01 0.000000000000e+00
-1.250000000000e-01 1.250000000000e-01 0.000000000000e+00
0.000000000000e+00 1.250000000000e-01 0.000000000000e+00
1.250000000000e-01 1.250000000000e-01 0.000000000000e+00
2.500000000000e-01 1.250000000000e-01 0.000000000000e+00
-2.500000000000e-01 2.500000000000e-01 0.000000000000e+00
-1.250000000000e-01 2.500000000000e-01 0.000000000000e+00
0.000000000000e+00 2.500000000000e-01 0.000000000000e+00
1.250000000000e-01 2.500000000000e-01 0.000000000000e+00
2.500000000000e-01 2.500000000000e-01 0.000000000000e+00
-2.500000000000e-01 -2.500000000000e-01 6.000000000000e-02
-1.250000000000e-01 -2.500000000000e-01 6.000000000000e-02
0.000000000000e+00 -2.500000000000e-01 6.000000000000e-02
1.250000000000e-01 -2.500000000000e-01 6.000000000000e-02
2.500000000000e-01 -2.500000000000e-01 6.000000000000e-02
-2.500000000000e-01 -1.250000000000e-01 6.000000000000e-02
-1.250000000000e-01 -1.250000000000e-01 6.000000000000e-02
0.000000000000e+00 -1.250000000000e-01 6.000000000000e-02
1.250000000000e-01 -1.250000000000e-01 6.000000000000e-02
2.500000000000e-01 -1.250000000000e-01 6.000000000000e-02
-2.500000000000e-01 0.000000000000e+00 6.000000000000e-02
-1.250000000000e-01 0.000000000000e+00 6.000000000000e-02
0.000000000000e+00 0.000000000000e+00 6.000000000000e-02
1.250000000000e-01 0.000000000000e+00 6.000000000000e-02
2.500000000000e-01 0.000000000000e+00 6.000000000000e-02
-2.500000000000e-01 1.250000000000e-01 6.000000000000e-02
-1.250000000000e-01 1.250000000000e-01 6.000000000000e-02
0.000000000000e+00 1.250000000000e-01 6.000000000000e-02
1.250000000000e-01 1.250000000000e-01 6.000000000000e-02
2.500000000000e-01 1.250000000000e-01 6.000000000000e-02
-2.500000000000e-01 2.500000000000e-01 6.000000000000e-02
-1.250000000000e-01 2.500000000000e-01 6.000000000000e-02
0.000000000000e+00 2.500000000000e-01 6.000000000000e-02
1.250000000000e-01 2.500000000000e-01 6.000000000000e-02
2.500000000000e-01 2.500000000000e-01 6.000000000000e-02
-2.500000000000e-01 -2.500000000000e-01 1.200000000000e-01
-1.250000000000e-01 -2.500000000000e-01 1.200000000000e-01
0.000000000000e+00 -2.500000000000e-01 1.200000000000e-01
1.250000000000e-01 -2.500000000000e-01 1.200000000000e-01
2.500000000000e-01 -2.500000000000e-01 1.200000000000e-01
-2.500000000000e-01 -1.250000000000e-01 1.200000000000e-01
-1.250000000000e-01 -1.250000000000e-01 1.200000000000e-01
0.000000000000e+00 -1.250000000000e-01 1.200000000000e-01
1.250000000000e-01 -1.250000000000e-01 1.200000000000e-01
2.500000000000e-01 -1.250000000000e-01 1.200000000000e-01
-2.500000000000e-01 0.000000000000e+00 1.200000000000e-01
-1.250000000000e-01 0.000000000000e+00 1.200000000000e-01
0.000000000000e+00 0.000000000000e+00 1.200000000000e-01
1.250000000000e-01 0.000000000000e+00 1.200000000000e-01
2.500000000000e-01 0.000000000000e+00 1.200000000000e-01
-2.500000000000e-01 1.250000000000e-01 1.200000000000e-01
-1.250000000000e-01 1.250000000000e-01 1.200000000000e-01
0.000000000000e+00 1.250000000000e-01 1.200000000000e-01
1.250000000000e-01 1.250000000000e-01 1.200000000000e-01
2.500000000000e-01 1.250000000000e-01 1.200000000000e-01
-2.500000000000e-01 2.500000000000e-01 1.200000000000e-01
-1.250000000000e-01 2.500000000000e-01 1.200000000000e-01
0.000000000000e+00 2.500000000000e-01 1.200000000000e-01
1.250000000000e-01 2.500000000000e-01 1.200000000000e-01
2.500000000000e-01 2.500000000000e-01 1.200000000000e-01
-2.500000000000e-01 -2.500000000000e-01 1.800000000000e-01
-1.250000000000e-01 -2.500000000000e-01 1.800000000000e-01
0.000000000000e+00 -2.500000000000e-01 1.800000000000e-01
1.250000000000e-01 -2.500000000000e-01 1.800000000000e-01
2.500000000000e-01 -2.500000000000e-01 1.800000000000e-01
-2.500000000000e-01 -1.250000000000e-01 1.800000000000e-01
-1.250000000000e-01 -1.250000000000e-01 1.800000000000e-01
0.000000000000e+00 -1.250000000000e-01 1.800000000000e-01
1.250000000000e-01 -1.250000000000e-01 1.800000000000e-01
2.500000000000e-01 -1.250000000000e-01 1.800000000000e-01
-2.500000000000e-01 0.000000000000e+00 1.800000000000e-01
-1.250000000000e-01 0.000000000000e+00 1.800000000000e-01
0.000000000000e+00 0.000000000000e+00 1.800000000000e-01
1.250000000000e-01 0.000000000000e+00 1.800000000000e-01
2.500000000000e-01 0.000000000000e+00 1.800000000000e-01
-2.500000000000e-01 1.250000000000e-01 1.800000000000e-01
-1.250000000000e-01 1.250000000000e-01 1.800000000000e-01
0.000000000000e+00 1.250000000000e-01 1.800000000000e-01
1.250000000000e-01 1.250000000000e-01 1.800000000000e-01
2.500000000000e-01 1.250000000000e-01 1.800000000000e-01
-2.500000000000e-01 2.500000000000e-01 1.800000000000e-01
-1.250000000000e-01 2.500000000000e-01 1.800000000000e-01
0.000000000000e+00 2.500000000000e-01 1.800000000000e-01
1.250000000000e-01 2.500000000000e-01 1.800000000000e-01
2.500000000000e-01 2.500000000000e-01 1.800000000000e-01
-2.500000000000e-01 -2.500000000000e-01 2.400000000000e-01
-1.250000000000e-01 -2.500000000000e-01 2.400000000000e-01
0.000000000000e+00 -2.500000000000e-01 2.400000000000e-01
1.250000000000e-01 -2.500000000000e-01 2.400000000000e-01
2.500000000000e-01 -2.500000000000e-01 2.400000000000e-01
-2.500000000000e-01 -1.250000000000e-01 2.400000000000e-01
-1.250000000000e-01 -1.250000000000e-01 2.400000000000e-01
0.000000000000e+00 -1.250000000000e-01 2.400000000000e-01
1.250000000000e-01 -1.250000000000e-01 2.400000000000e-01
2.500000000000e-01 -1.250000000000e-01 2.400000000000e-01
-2.500000000000e-01 0.000000000000e+00 2.400000000000e-01
-1.250000000000e-01 0.000000000000e+00 2.400000000000e-01
0.000000000000e+00 0.000000000000e+00 2.400000000000e-01
1.250000000000e-01 0.000000000000e+00 2.400000000000e-01
2.500000000000e-01 0.000000000000e+00 2.400000000000e-01
-2.500000000000e-01 1.250000000000e-01 2.400000000000e-01
-1.250000000000e-01 1.250000000000e-01 2.400000000000e-01
0.000000000000e+00 1.250000000000e-01 2.400000000000e-01
1.250000000000e-01 1.250000000000e-01 2.400000000000e-01
2.500000000000e-01 1.250000000000e-01 2.400000000000e-01
-2.500000000000e-01 2.500000000000e-01 2.400000000000e-01
-1.250000000000e-01 2.500000000000e-01 2.400000000000e-01
0.000000000000e+00 2.500000000000e-01 2.400000000000e-01
1.250000000000e-01 2.500000000000e-01 2.400000000000e-01
2.500000000000e-01 2.500000000000e-01 2.400000000000e-01
-2.500017764195e-01 -2.500017764196e-01 2.399500097272e-01
-1.250009071737e-01 -2.500017711090e-01 2.399495484638e-01
2.483177634072e-14 -2.500017502605e-01 2.399494009093e-01
1.250009071738e-01 -2.500017711090e-01 2.399495484638e-01
2.500017764196e-01 -2.500017764196e-01 2.399500097272e-01
-2.500017711090e-01 -1.250009071738e-01 2.399495484638e-01
-1.250009049005e-01 -1.250009049006e-01 2.399490906694e-01
2.394141437846e-14 -1.250008924470e-01 2.399489449662e-01
1.250009049006e-01 -1.250009049006e-01 2.399490906694e-01
2.500017711090e-01 -1.250009071738e-01 2.399495484638e-01
-2.500017502605e-01 -3.200408526840e-14 2.399494009093e-01
-1.250008924470e-01 -3.112576326623e-14 2.399489449662e-01
2.305403783964e-14 -3.024512159133e-14 2.399487992923e-01
1.250008924470e-01 -2.936207371839e-14 2.399489449662e-01
2.500017502605e-01 -2.847882407159e-14 2.399494009093e-01
-2.500017711090e-01 1.250009071737e-01 2.399495484638e-01
-1.250009049005e-01 1.250009049005e-01 2.399490906694e-01
2.217000936668e-14 1.250008924470e-01 2.399489449662e-01
1.250009049006e-01 1.250009049005e-01 2.399490906694e-01
2.500017711090e-01 1.250009071737e-01 2.399495484638e-01
-2.500017764196e-01 2.500017764195e-01 2.399500097272e-01
-1.250009071737e-01 2.500017711090e-01 2.399495484638e-01
2.129020161793e-14 2.500017502605e-01 2.399494009093e-01
1.250009071738e-01 2.500017711090e-01 2.399495484638e-01
2.500017764196e-01 2.500017764195e-01 2.399500097272e-01
-2.500014558291e-01 -2.500014558292e-01 3.049486107555e-01
-1.250007446378e-01 -2.500014521644e-01 3.049481242381e-01
2.478089631135e-14 -2.500014325751e-01 3.049479703791e-01
1.250007446379e-01 -2.500014521644e-01 3.049481242381e-01
2.500014558292e-01 -2.500014558292e-01 3.049486107555e-01
-2.500014521643e-01 -1.250007446379e-01 3.049481242381e-01
-1.250007433259e-01 -1.250007433260e-01 3.049476388437e-01
2.389259286681e-14 -1.250007315138e-01 3.049474866530e-01
1.250007433260e-01 -1.250007433260e-01 3.049476388437e-01
2.500014521644e-01 -1.250007446379e-01 3.049481242381e-01
-2.500014325750e-01 -3.203598246665e-14 3.049479703791e-01
-1.250007315137e-01 -3.115381234992e-14 3.049474866530e-01
2.300989441140e-14 -3.027402195324e-14 3.049473355002e-01
1.250007315138e-01 -2.938649574910e-14 3.049474866530e-01
2.500014325751e-01 -2.850637181039e-14 3.049479703791e-01
-2.500014521643e-01 1.250007446378e-01 3.049481242381e-01
-1.250007433259e-01 1.250007433259e-01 3.049476388437e-01
2.212541690806e-14 1.250007315137e-01 3.049474866530e-01
1.250007433260e-01 1.250007433259e-01 3.049476388437e-01
2.500014521644e-01 1.250007446378e-01 3.049481242381e-01
-2.500014558291e-01 2.500014558291e-01 3.049486107555e-01
-1.250007446378e-01 2.500014521643e-01 3.049481242381e-01
2.124969532926e-14 2.500014325750e-01 3.049479703791e-01
1.250007446379e-01 2.500014521643e-01 3.049481242381e-01
2.500014558292e-01 2.500014558291e-01 3.049486107555e-01
-2.500010586955e-01 -2.500010586955e-01 3.699476289593e-01
-1.250005723492e-01 -2.500010482788e-01 3.699471114896e-01
2.473039326020e-14 -2.500010247837e-01 3.699469439256e-01
1.250005723493e-01 -2.500010482788e-01 3.699471114896e-01
2.500010586955e-01 -2.500010586955e-01 3.699476289593e-01
-2.500010482787e-01 -1.250005723493e-01 3.699471114896e-01
-1.250005718325e-01 -1.250005718326e-01 3.699465910395e-01
2.384380686056e-14 -1.250005597468e-01 3.699464233398e-01
1.250005718326e-01 -1.250005718326e-01 3.699465910395e-01
2.500010482788e-01 -1.250005723493e-01 3.699471114896e-01
-2.500010247836e-01 -3.206362095234e-14 3.699469439256e-01
-1.250005597468e-01 -3.118370147886e-14 3.699464233398e-01
2.296190942937e-14 -3.030030294699e-14 3.699462559980e-01
1.250005597468e-01 -2.941424677120e-14 3.699464233398e-01
2.500010247837e-01 -2.853132732194e-14 3.699469439256e-01
-2.500010482787e-01 1.250005723492e-01 3.699471114896e-01
-1.250005718325e-01 1.250005718325e-01 3.699465910395e-01
2.207746432835e-14 1.250005597468e-01 3.699464233398e-01
1.250005718326e-01 1.250005718325e-01 3.699465910395e-01
2.500010482788e-01 1.250005723492e-01 3.699471114896e-01
-2.500010586955e-01 2.500010586955e-01 3.699476289593e-01
-1.250005723493e-01 2.500010482787e-01 3.699471114896e-01
2.119702925118e-14 2.500010247836e-01 3.699469439256e-01
1.250005723493e-01 2.500010482787e-01 3.699471114896e-01
2.500010586955e-01 2.500010586955e-01 3.699476289593e-01
-2.500006625835e-01 -2.500006625836e-01 4.349470473064e-01
-1.250003864561e-01 -2.500006450083e-01 4.349465091339e-01
2.467635977981e-14 -2.500006174162e-01 4.349463153382e-01
1.250003864561e-01 -2.500006450083e-01 4.349465091339e-01
2.500006625836e-01 -2.500006625836e-01 4.349470473064e-01
-2.500006450083e-01 -1.250003864562e-01 4.349465091339e-01
-1.250003859585e-01 -1.250003859585e-01 4.349459647497e-01
2.379149058973e-14 -1.250003726820e-01 4.349457676960e-01
1.250003859585e-01 -1.250003859585e-01 4.349459647497e-01
2.500006450083e-01 -1.250003864561e-01 4.349465091339e-01
-2.500006174161e-01 -3.209501550859e-14 4.349463153382e-01
-1.250003726820e-01 -3.121376729977e-14 4.349457676960e-01
2.290824204625e-14 -3.033066285717e-14 4.349455683205e-01
1.250003726820e-01 -2.944574475829e-14 4.349457676960e-01
2.500006174162e-01 -2.855926962249e-14 4.349463153382e-01
-2.500006450083e-01 1.250003864561e-01 4.349465091339e-01
-1.250003859585e-01 1.250003859585e-01 4.349459647497e-01
2.202434116642e-14 1.250003726820e-01 4.349457676960e-01
1.250003859585e-01 1.250003859585e-01 4.349459647497e-01
2.500006450083e-01 1.250003864561e-01 4.349465091339e-01
-2.500006625835e-01 2.500006625835e-01 4.349470473064e-01
-1.250003864561e-01 2.500006450083e-01 4.349465091339e-01
2.114474166536e-14 2.500006174161e-01 4.349463153382e-01
1.250003864561e-01 2.500006450083e-01 4.349465091339e-01
2.500006625836e-01 2.500006625835e-01 4.349470473064e-01
-2.500003175089e-01 -2.500003175089e-01 4.999468248354e-01
-1.250001868069e-01 -2.500002993055e-01 4.999462769254e-01
2.461866504138e-14 -2.500002718867e-01 4.999460649481e-01
1.250001868070e-01 -2.500002993055e-01 4.999462769254e-01
2.500003175089e-01 -2.500003175089e-01 4.999468248354e-01
-2.500002993054e-01 -1.250001868070e-01 4.999462769254e-01
-1.250001836855e-01 -1.250001836856e-01 4.999457195524e-01
2.373503657310e-14 -1.250001683018e-01 4.999455018409e-01
1.250001836856e-01 -1.250001836856e-01 4.999457195524e-01
2.500002993054e-01 -1.250001868070e-01 4.999462769254e-01
-2.500002718867e-01 -3.212844568834e-14 4.999460649481e-01
-1.250001683018e-01 -3.124775326515e-14 4.999455018409e-01
2.285000495958e-14 -3.035867749991e-14 4.999452806466e-01
1.250001683018e-01 -2.947577402987e-14 4.999455018409e-01
2.500002718867e-01 -2.859186606396e-14 4.999460649481e-01
-2.500002993054e-01 1.250001868069e-01 4.999462769254e-01
-1.250001836855e-01 1.250001836855e-01 4.999457195524e-01
2.197060644063e-14 1.250001683018e-01 4.999455018409e-01
1.250001836856e-01 1.250001836855e-01 4.999457195524e-01
2.500002993054e-01 1.250001868069e-01 4.999462769254e-01
-2.500003175089e-01 2.500003175089e-01 4.999468248354e-01
-1.250001868069e-01 2.500002993054e-01 4.999462769254e-01
2.109269449666e-14 2.500002718867e-01 4.999460649481e-01
1.250001868070e-01 2.500002993054e-01 4.999462769254e-01
2.500003175089e-01 2.500003175089e-01 4.999468248354e-01
CELLS 128 1152
8 0 1 6 5 25 26 31 30
8 1 2 7 6 26 27 32 31
8 2 3 8 7 27 28 33 32
8 3 4 9 8 28 29 34 33
8 5 6 11 10 30 31 36 35
8 6 7 12 11 31 32 37 36
8 7 8 13 12 32 33 38 37
8 8 9 14 13 33 34 39 38
8 10 11 16 15 35 36 41 40
8 11 12 17 16 36 37 42 41
8 12 13 18 17 37 38 43 42
8 13 14 19 18 38 39 44 43
8 15 16 21 20 40 41 46 45
8 16 17 22 21 41 42 47 46
8 17 18 23 22 42 43 48 47
8 18 19 24 23 43 44 49 48
8 25 26 31 30 50 51 56 55
8 26 27 32 31 51 52 57 56
8 27 28 33 32 52 53 58 57
8 28 29 34 33 53 54 59 58
8 30 31 36 35 55 56 61 60
8 31 32 37 36 56 57 62 61
8 32 33 38 37 57 58 63 62
8 33 34 39 38 58 59 64 63
8 35 36 41 40 60 61 66 65
8 36 37 42 41 61 62 67 66
8 37 38 43 42 62 63 68 67
8 38 39 44 43 63 64 69 68
8 40 41 46 45 65 66 71 70
8 41 42 47 46 66 67 72 71
8 42 43 48 47 67 68 73 72
8 43 44 49 48 68 69 74 73
8 50 51 56 55 75 76 81 80
8 51 52 57 56 76 77 82 81
8 52 53 58 57 77 78 83 82
8 53 54 59 58 78 79 84 83
8 55 56 61 60 80 81 86 85
8 56 57 62 61 81 82 87 86
8 57 58 63 62 82 83 88 87
8 58 59 64 63 83 84 89 88
8 60 61 66 65 85 86 91 90
8 61 62 67 66 86 87 92 91
8 62 63 68 67 87 88 93 92
8 63 64 69 68 88 89 94 93
8 65 66 71 70 90 91 96 95
8 66 67 72 71 91 92 97 96
8 67 68 73 72 92 93 98 97
8 68 69 74 73 93 94 99 98
8 75 76 81 80 100 101 106 105
8 76 77 82 81 101 102 107 106
8 77 78 83 82 102 103 108 107
8 78 79 84 83 103 104 109 108
8 80 81 86 85 105 106 111 110
8 81 82 87 86 106 107 112 111
8 82 83 88 87 107 108 113 112
8 83 84 89 88 108 109 114 113
8 85 86 91 90 110 111 116 115
8 86 87 92 91 111 112 117 116
8 87 88 93 92 112 113 118 117
8 88 89 94 93 113 114 119 118
8 90 91 96 95 115 116 121 120
8 91 92 97 96 116 117 122 121
8 92 93 98 97 117 118 123 122
8 93 94 99 98 118 119 124 123
8 125 126 131 130 150 151 156 155
8 126 127 132 131 151 152 157 156
8 127 128 133 132 152 153 158 157
8 128 129 134 133 153 154 159 158
8 130 131 136 135 155 156 161 160
8 131 132 137 136 156 157 162 161
8 132 133 138 137 157 158 163 162
8 133 134 139 138 158 159 164 163
8 135 136 141 140 160 161 166 165
8 136 137 142 141 161 162 167 166
8 137 138 143 142 162 163 168 167
8 138 139 144 143 163 164 169 168
8 140 141 146 145 165 166 171 170
8 141 142 147 146 166 167 172 171
8 142 143 148 147 167 168 173 172
8 143 144 149 148 168 169 174 173
8 150 151 156 155 175 176 181 180
8 151 152 157 156 176 177 182 181
8 152 153 158 157 177 178 183 182
8 153 154 159 158 178 179 184 183
8 155 156 161 160 180 181 186 185
8 156 157 162 161 181 182 187 186
8 157 158 163 162 182 183 188 187
8 158 159 164 163 183 184 189 188
8 160 161 166 165 185 186 191 190
8 161 162 167 166 186 187 192 191
8 162 163 168 167 187 188 193 192
8 163 164 169 168 188 189 194 193
8 165 166 171 170 190 191 196 195
8 166 167 172 171 191 192 197 196
8 167 168 173 172 192 193 198 197
8 168 169 174 173 193 194 199 198
8 175 176 181 180 200 201 206 205
8 176 177 182 181 201 202 207 206
8 177 178 183 182 202 203 208 207
8 178 179 184 183 203 204 209 208
8 180 181 186 185 205 206 211 210
8 181 182 187 186 206 207 212 211
8 182 183 188 187 207 208 213 212
8 183 184 189 188 208 209 214 213
8 185 186 191 190 210 211 216 215
8 186 187 192 191 211 212 217 216
8 187 188 193 192 212 213 218 217
8 188 189 194 193 213 214 219 218
8 190 191 196 195 215 216 221 220
8 191 192 197 196 216 217 222 221
8 192 193 198 197 217 218 223 222
8 193 194 199 198 218 219 224 223
8 200 201 206 205 225 226 231 230
8 201 202 207 206 226 227 232 231
8 202 203 208 207 227 228 233 232
8 203 204 209 208 228 229 234 233
8 205 206 211 210 230 231 236 235
8 206 207 212 211 231 232 237 236
8 207 208 213 212 232 233 238 237
8 208 209 214 213 233 234 239 238
8 210 211 216 215 235 236 241 240
8 211 212 217 216 236 237 242 241
8 212 213 218 217 237 238 243 242
8 213 214 219 218 238 239 244 243
8 215 216 221 220 240 241 246 245
8 216 217 222 221 241 242 247 246
8 217 218 223 222 242 243 248 247
8 218 219 224 223 243 244 249 248
CELL_TYPES 128
12
12
12
12
12
12
12
12
12
12
12
12
12
12
12
12
12
12
12
12
12
12
12
12
12
12
12
12
12
12
12
12
12
12
12
12
12
12
12
12
12
12
12
12
12
12
12
12
12
12
12
12
12
12
12
12
12
12
12
12
12
12
12
12
12
12
12
12
12
12
12
12
12
12
12
12
12
12
12
12
12
12
12
12
12
12
12
12
12
12
12
12
12
12
12
12
12
12
12
12
12
12
12
12
12
12
12
12
12
12
12
12
12
12
12
12
12
12
12
12
12
12
12
12
12
12
12
12
POINT_DATA 250
VECTORS displacement float
0.000000000000e+00 0.000000000000e+00 0.000000000000e+00
0.000000000000e+00 0.000000000000e+00 0.000000000000e+00
0.000000000000e+00 0.000000000000e+00 0.000000000000e+00
0.000000000000e+00 0.000000000000e+00 0.000000000000e+00
0.000000000000e+00 0.000000000000e+00 0.000000000000e+00
0.000000000000e+00 0.000000000000e+00 0.000000000000e+00
0.000000000000e+00 0.000000000000e+00 0.000000000000e+00
0.000000000000e+00 0.000000000000e+00 0.000000000000e+00
0.000000000000e+00 0.000000000000e+00 0.000000000000e+00
0.000000000000e+00 0.000000000000e+00 0.000000000000e+00
0.000000000000e+00 0.000000000000e+00 0.000000000000e+00
0.000000000000e+00 0.000000000000e+00 0.000000000000e+00
0.000000000000e+00 0.000000000000e+00 0.000000000000e+00
0.000000000000e+00 0.000000000000e+00 0.000000000000e+00
0.000000000000e+00 0.000000000000e+00 0.000000000000e+00
0.000000000000e+00 0.000000000000e+00 0.000000000000e+00
0.000000000000e+00 0.000000000000e+00 0.000000000000e+00
0.000000000000e+00 0.000000000000e+00 0.000000000000e+00
0.000000000000e+00 0.000000000000e+00 0.000000000000e+00
0.000000000000e+00 0.000000000000e+00 0.000000000000e+00
0.000000000000e+00 0.000000000000e+00 0.000000000000e+00
0.000000000000e+00 0.000000000000e+00 0.000000000000e+00
0.000000000000e+00 0.000000000000e+00 0.000000000000e+00
0.000000000000e+00 0.000000000000e+00 0.000000000000e+00
0.000000000000e+00 0.000000000000e+00 0.000000000000e+00
0.000000000000e+00 0.000000000000e+00 0.000000000000e+00
0.000000000000e+00 0.000000000000e+00 0.000000000000e+00
0.000000000000e+00 0.000000000000e+00 0.000000000000e+00
0.000000000000e+00 0.000000000000e+00 0.000000000000e+00
0.000000000000e+00 0.000000000000e+00 0.000000000000e+00
0.000000000000e+00 0.000000000000e+00 0.000000000000e+00
0.000000000000e+00 0.000000000000e+00 0.000000000000e+00
0.000000000000e+00 0.000000000000e+00 0.000000000000e+00
0.000000000000e+00 0.000000000000e+00 0.000000000000e+00
0.000000000000e+00 0.000000000000e+00 0.000000000000e+00
0.000000000000e+00 0.000000000000e+00 0.000000000000e+00
0.000000000000e+00 0.000000000000e+00 0.000000000000e+00
0.000000000000e+00 0.000000000000e+00 0.000000000000e+00
0.000000000000e+00 0.000000000000e+00 0.000000000000e+00
0.000000000000e+00 0.000000000000e+00 0.000000000000e+00
0.000000000000e+00 0.000000000000e+00 0.000000000000e+00
0.000000000000e+00 0.000000000000e+00 0.000000000000e+00
0.000000000000e+00 0.000000000000e+00 0.000000000000e+00
0.000000000000e+00 0.000000000000e+00 0.000000000000e+00
0.000000000000e+00 0.000000000000e+00 0.000000000000e+00
0.000000000000e+00 0.000000000000e+00 0.000000000000e+00
0.000000000000e+00 0.000000000000e+00 0.000000000000e+00
0.000000000000e+00 0.000000000000e+00 0.000000000000e+00
0.000000000000e+00 0.000000000000e+00 0.000000000000e+00
0.000000000000e+00 0.000000000000e+00 0.000000000000e+00
0.000000000000e+00 0.000000000000e+00 0.000000000000e+00
0.000000000000e+00 0.000000000000e+00 0.000000000000e+00
0.000000000000e+00 0.000000000000e+00 0.000000000000e+00
0.000000000000e+00 0.000000000000e+00 0.000000000000e+00
0.000000000000e+00 0.000000000000e+00 0.000000000000e+00
0.000000000000e+00 0.000000000000e+00 0.000000000000e+00
0.000000000000e+00 0.000000000000e+00 0.000000000000e+00
0.000000000000e+00 0.000000000000e+00 0.000000000000e+00
0.000000000000e+00 0.000000000000e+00 0.000000000000e+00
0.000000000000e+00 0.000000000000e+00 0.000000000000e+00
0.000000000000e+00 0.000000000000e+00 0.000000000000e+00
0.000000000000e+00 0.000000000000e+00 0.000000000000e+00
0.000000000000e+00 0.000000000000e+00 0.000000000000e+00
0.000000000000e+00 0.000000000000e+00 0.000000000000e+00
0.000000000000e+00 0.000000000000e+00 0.000000000000e+00
0.000000000000e+00 0.000000000000e+00 0.000000000000e+00
0.000000000000e+00 0.000000000000e+00 0.000000000000e+00
0.000000000000e+00 0.000000000000e+00 0.000000000000e+00
0.000000000000e+00 0.000000000000e+00 0.000000000000e+00
0.000000000000e+00 0.000000000000e+00 0.000000000000e+00
0.000000000000e+00 0.000000000000e+00 0.000000000000e+00
0.000000000000e+00 0.000000000000e+00 0.000000000000e+00
0.000000000000e+00 0.000000000000e+00 0.000000000000e+00
0.000000000000e+00 0.000000000000e+00 0.000000000000e+00
0.000000000000e+00 0.000000000000e+00 0.000000000000e+00
0.000000000000e+00 0.000000000000e+00 0.000000000000e+00
0.000000000000e+00 0.000000000000e+00 0.000000000000e+00
0.000000000000e+00 0.000000000000e+00 0.000000000000e+00
0.000000000000e+00 0.000000000000e+00 0.000000000000e+00
0.000000000000e+00 0.000000000000e+00 0.000000000000e+00
0.000000000000e+00 0.000000000000e+00 0.000000000000e+00
0.000000000000e+00 0.000000000000e+00 0.000000000000e+00
0.000000000000e+00 0.000000000000e+00 0.000000000000e+00
0.000000000000e+00 0.000000000000e+00 0.000000000000e+00
0.000000000000e+00 0.000000000000e+00 0.000000000000e+00
0.000000000000e+00 0.000000000000e+00 0.000000000000e+00
0.000000000000e+00 0.000000000000e+00 0.000000000000e+00
0.000000000000e+00 0.000000000000e+00 0.000000000000e+00
0.000000000000e+00 0.000000000000e+00 0.000000000000e+00
0.000000000000e+00 0.000000000000e+00 0.000000000000e+00
0.000000000000e+00 0.000000000000e+00 0.000000000000e+00
0.000000000000e+00 0.000000000000e+00 0.000000000000e+00
0.000000000000e+00 0.000000000000e+00 0.000000000000e+00
0.000000000000e+00 0.000000000000e+00 0.000000000000e+00
0.000000000000e+00 0.000000000000e+00 0.000000000000e+00
0.000000000000e+00 0.000000000000e+00 0.000000000000e+00
0.000000000000e+00 0.000000000000e+00 0.000000000000e+00
0.000000000000e+00 0.000000000000e+00 0.000000000000e+00
0.000000000000e+00 0.000000000000e+00 0.000000000000e+00
0.000000000000e+00 0.000000000000e+00 0.000000000000e+00
0.000000000000e+00 0.000000000000e+00 0.000000000000e+00
0.000000000000e+00 0.000000000000e+00 0.000000000000e+00
0.000000000000e+00 0.000000000000e+00 0.000000000000e+00
0.000000000000e+00 0.000000000000e+00 0.000000000000e+00
0.000000000000e+00 0.000000000000e+00 0.000000000000e+00
0.000000000000e+00 0.000000000000e+00 0.000000000000e+00
0.000000000000e+00 0.000000000000e+00 0.000000000000e+00
0.000000000000e+00 0.000000000000e+00 0.000000000000e+00
0.000000000000e+00 0.000000000000e+00 0.000000000000e+00
0.000000000000e+00 0.000000000000e+00 0.000000000000e+00
0.000000000000e+00 0.000000000000e+00 0.000000000000e+00
0.000000000000e+00 0.000000000000e+00 0.000000000000e+00
0.000000000000e+00 0.000000000000e+00 0.000000000000e+00
0.000000000000e+00 0.000000000000e+00 0.000000000000e+00
0.000000000000e+00 0.000000000000e+00 0.000000000000e+00
0.000000000000e+00 0.000000000000e+00 0.000000000000e+00
0.000000000000e+00 0.000000000000e+00 0.000000000000e+00
0.000000000000e+00 0.000000000000e+00 0.000000000000e+00
0.000000000000e+00 0.000000000000e+00 0.000000000000e+00
0.000000000000e+00 0.000000000000e+00 0.000000000000e+00
0.000000000000e+00 0.000000000000e+00 0.000000000000e+00
0.000000000000e+00 0.000000000000e+00 0.000000000000e+00
0.000000000000e+00 0.000000000000e+00 0.000000000000e+00
0.000000000000e+00 0.000000000000e+00 0.000000000000e+00
0.000000000000e+00 0.000000000000e+00 0.000000000000e+00
-1.776419546997e-06 -1.776419603856e-06 -1.504999027285e-02
-9.071737299543e-07 -1.771109046949e-06 -1.505045153617e-02
2.483177634072e-14 -1.750260517175e-06 -1.505059909068e-02
9.071737795999e-07 -1.771109045189e-06 -1.505045153617e-02
1.776419596630e-06 -1.776419600310e-06 -1.504999027285e-02
-1.771108991864e-06 -9.071737867975e-07 -1.505045153617e-02
-9.049005309859e-07 -9.049005860660e-07 -1.505090933056e-02
2.394141437846e-14 -8.924470196140e-07 -1.505105503375e-02
9.049005788590e-07 -9.049005843010e-07 -1.505090933056e-02
1.771109039723e-06 -9.071737832645e-07 -1.505045153617e-02
-1.750260463847e-06 -3.200408526840e-14 -1.505059909068e-02
-8.924469663004e-07 -3.112576326623e-14 -1.505105503375e-02
2.305403783964e-14 -3.024512159133e-14 -1.505120070766e-02
8.924470123977e-07 -2.936207371839e-14 -1.505105503375e-02
1.750260509931e-06 -2.847882407159e-14 -1.505059909068e-02
-1.771108993629e-06 9.071737227819e-07 -1.505045153617e-02
-9.049005327515e-07 9.049005238126e-07 -1.505090933056e-02
2.217000936668e-14 8.924469591200e-07 -1.505105503375e-02
9.049005770861e-07 9.049005255696e-07 -1.505090933056e-02
1.771109037954e-06 9.071737262950e-07 -1.505045153617e-02
-1.776419550509e-06 1.776419539824e-06 -1.504999027285e-02
-9.071737334775e-07 1.771108984701e-06 -1.505045153617e-02
2.129020161793e-14 1.750260456672e-06 -1.505059909068e-02
9.071737760577e-07 1.771108986449e-06 -1.505045153617e-02
1.776419593090e-06 1.776419543328e-06 -1.504999027285e-02
-1.455829111019e-06 -1.455829167842e-06 -1.505138924453e-02
-7.446378121165e-07 -1.452164360740e-06 -1.505187576188e-02
2.478089631135e-14 -1.432575060502e-06 -1.505202962092e-02
7.446378616707e-07 -1.452164358971e-06 -1.505187576188e-02
1.455829160563e-06 -1.455829164297e-06 -1.505138924453e-02
-1.452164305687e-06 -7.446378689354e-07 -1.505187576188e-02
-7.433259146152e-07 -7.433259696727e-07 -1.505236115627e-02
2.389259286681e-14 -7.315137658279e-07 -1.505251334704e-02
7.433259623973e-07 -7.433259679028e-07 -1.505236115627e-02
1.452164353459e-06 -7.446378653959e-07 -1.505187576188e-02
-1.432575007218e-06 -3.203598246665e-14 -1.505202962092e-02
-7.315137125419e-07 -3.115381234992e-14 -1.505251334704e-02
2.300989441140e-14 -3.027402195324e-14 -1.505266449977e-02
7.315137585499e-07 -2.938649574910e-14 -1.505251334704e-02
1.432575053212e-06 -2.850637181039e-14 -1.505202962092e-02
-1.452164307447e-06 7.446378048658e-07 -1.505187576188e-02
-7.433259163815e-07 7.433259073624e-07 -1.505236115627e-02
2.212541690806e-14 7.315137052810e-07 -1.505251334704e-02
7.433259606269e-07 7.433259091220e-07 -1.505236115627e-02
1.452164351682e-06 7.446378083806e-07 -1.505187576188e-02
-1.455829114543e-06 1.455829103769e-06 -1.505138924453e-02
-7.446378156431e-07 1.452164298425e-06 -1.505187576188e-02
2.124969532926e-14 1.432574999954e-06 -1.505202962092e-02
7.446378581305e-07 1.452164300181e-06 -1.505187576188e-02
1.455829157022e-06 1.455829107273e-06 -1.505138924453e-02
-1.058695474694e-06 -1.058695531487e-06 -1.505237104066e-02
-5.723492478487e-07 -1.048278781237e-06 -1.505288851037e-02
2.473039326020e-14 -1.024783685158e-06 -1.505305607440e-02
5.723492973077e-07 -1.048278779459e-06 -1.505288851036e-02
1.058695524142e-06 -1.058695527938e-06 -1.505237104066e-02
-1.048278726211e-06 -5.723493046446e-07 -1.505288851037e-02
-5.718325358926e-07 -5.718325909205e-07 -1.505340896053e-02
2.384380686056e-14 -5.597468217088e-07 -1.505357666025e-02
5.718325835764e-07 -5.718325891489e-07 -1.505340896053e-02
1.048278773884e-06 -5.723493011026e-07 -1.505288851036e-02
-1.024783631904e-06 -3.206362095234e-14 -1.505305607440e-02
-5.597467684511e-07 -3.118370147886e-14 -1.505357666025e-02
2.296190942937e-14 -3.030030294699e-14 -1.505374400201e-02
5.597468143637e-07 -2.941424677120e-14 -1.505357666024e-02
1.024783677801e-06 -2.853132732194e-14 -1.505305607440e-02
-1.048278727975e-06 5.723492405160e-07 -1.505288851037e-02
-5.718325376587e-07 5.718325285531e-07 -1.505340896053e-02
2.207746432835e-14 5.597467611083e-07 -1.505357666025e-02
5.718325818083e-07 5.718325303147e-07 -1.505340896053e-02
1.048278772113e-06 5.723492440372e-07 -1.505288851036e-02
-1.058695478215e-06 1.058695467354e-06 -1.505237104066e-02
-5.723492513771e-07 1.048278718861e-06 -1.505288851036e-02
2.119702925118e-14 1.024783624551e-06 -1.505305607440e-02
5.723492937675e-07 1.048278720618e-06 -1.505288851036e-02
1.058695520594e-06 1.058695470867e-06 -1.505237104066e-02
-6.625835192738e-07 -6.625835760368e-07 -1.505295269356e-02
-3.864560948004e-07 -6.450083333991e-07 -1.505349086613e-02
2.467635977981e-14 -6.174161923888e-07 -1.505368466180e-02
3.864561441521e-07 -6.450083316238e-07 -1.505349086613e-02
6.625835686201e-07 -6.625835724848e-07 -1.505295269356e-02
-6.450082784111e-07 -3.864561515644e-07 -1.505349086613e-02
-3.859584598897e-07 -3.859585148899e-07 -1.505403525032e-02
2.379149058973e-14 -3.726820423162e-07 -1.505423230401e-02
3.859585074674e-07 -3.859585131144e-07 -1.505403525032e-02
6.450083259824e-07 -3.864561480230e-07 -1.505349086613e-02
-6.174161391687e-07 -3.209501550859e-14 -1.505368466180e-02
-3.726819890882e-07 -3.121376729977e-14 -1.505423230401e-02
2.290824204625e-14 -3.033066285717e-14 -1.505443167952e-02
3.726820348988e-07 -2.944574475829e-14 -1.505423230401e-02
6.174161849710e-07 -2.855926962249e-14 -1.505368466180e-02
-6.450082801707e-07 3.864560873745e-07 -1.505349086613e-02
-3.859584616559e-07 3.859584524578e-07 -1.505403525032e-02
2.202434116642e-14 3.726819816561e-07 -1.505423230401e-02
3.859585057031e-07 3.859584542233e-07 -1.505403525031e-02
6.450083242141e-07 3.864560909049e-07 -1.505349086612e-02
-6.625835228010e-07 6.625835118388e-07 -1.505295269356e-02
-3.864560983261e-07 6.450082709664e-07 -1.505349086613e-02
2.114474166536e-14 6.174161317234e-07 -1.505368466180e-02
3.864561406118e-07 6.450082727301e-07 -1.505349086612e-02
6.625835650780e-07 6.625835153659e-07 -1.505295269356e-02
-3.175088849361e-07 -3.175089416511e-07 -1.505317516464e-02
-1.868069289264e-07 -2.993054550061e-07 -1.505372307461e-02
2.461866504138e-14 -2.718867172904e-07 -1.505393505187e-02
1.868069781641e-07 -2.993054532213e-07 -1.505372307461e-02
3.175089341678e-07 -3.175089380994e-07 -1.505317516464e-02
-2.993054000449e-07 -1.868069856593e-07 -1.505372307461e-02
-1.836855198575e-07 -1.836855748201e-07 -1.505428044762e-02
2.373503657310e-14 -1.683018164947e-07 -1.505449815913e-02
1.836855673269e-07 -1.836855730473e-07 -1.505428044762e-02
2.993054475179e-07 -1.868069821103e-07 -1.505372307461e-02
-2.718866640972e-07 -3.212844568834e-14 -1.505393505187e-02
-1.683017632995e-07 -3.124775326515e-14 -1.505449815913e-02
2.285000495958e-14 -3.035867749991e-14 -1.505471935338e-02
1.683018090042e-07 -2.947577402987e-14 -1.505449815913e-02
2.718867098139e-07 -2.859186606396e-14 -1.505393505187e-02
-2.993054018140e-07 1.868069214045e-07 -1.505372307461e-02
-1.836855216196e-07 1.836855123235e-07 -1.505428044762e-02
2.197060644063e-14 1.683017557672e-07 -1.505449815913e-02
1.836855655609e-07 1.836855140975e-07 -1.505428044762e-02
2.993054457548e-07 1.868069249377e-07 -1.505372307461e-02
-3.175088884506e-07 3.175088773946e-07 -1.505317516464e-02
-1.868069324550e-07 2.993053925154e-07 -1.505372307461e-02
2.109269449666e-14 2.718866565491e-07 -1.505393505187e-02
1.868069746355e-07 2.993053942758e-07 -1.505372307461e-02
3.175089306258e-07 3.175088809319e-07 -1.505317516464e-02
SCALARS displacement_magnitude float 1
LOOKUP_TABLE default
0.000000000000e+00
0.000000000000e+00
0.000000000000e+00
0.000000000000e+00
0.000000000000e+00
0.000000000000e+00
0.000000000000e+00
0.000000000000e+00
0.000000000000e+00
0.000000000000e+00
0.000000000000e+00
0.000000000000e+00
0.000000000000e+00
0.000000000000e+00
0.000000000000e+00
0.000000000000e+00
0.000000000000e+00
0.000000000000e+00
0.000000000000e+00
0.000000000000e+00
0.000000000000e+00
0.000000000000e+00
0.000000000000e+00
0.000000000000e+00
0.000000000000e+00
0.000000000000e+00
0.000000000000e+00
0.000000000000e+00
0.000000000000e+00
0.000000000000e+00
0.000000000000e+00
0.000000000000e+00
0.000000000000e+00
0.000000000000e+00
0.000000000000e+00
0.000000000000e+00
0.000000000000e+00
0.000000000000e+00
0.000000000000e+00
0.000000000000e+00
0.000000000000e+00
0.000000000000e+00
0.000000000000e+00
0.000000000000e+00
0.000000000000e+00
0.000000000000e+00
0.000000000000e+00
0.000000000000e+00
0.000000000000e+00
0.000000000000e+00
0.000000000000e+00
0.000000000000e+00
0.000000000000e+00
0.000000000000e+00
0.000000000000e+00
0.000000000000e+00
0.000000000000e+00
0.000000000000e+00
0.000000000000e+00
0.000000000000e+00
0.000000000000e+00
0.000000000000e+00
0.000000000000e+00
0.000000000000e+00
0.000000000000e+00
0.000000000000e+00
0.000000000000e+00
0.000000000000e+00
0.000000000000e+00
0.000000000000e+00
0.000000000000e+00
0.000000000000e+00
0.000000000000e+00
0.000000000000e+00
0.000000000000e+00
0.000000000000e+00
0.000000000000e+00
0.000000000000e+00
0.000000000000e+00
0.000000000000e+00
0.000000000000e+00
0.000000000000e+00
0.000000000000e+00
0.000000000000e+00
0.000000000000e+00
0.000000000000e+00
0.000000000000e+00
0.000000000000e+00
0.000000000000e+00
0.000000000000e+00
0.000000000000e+00
0.000000000000e+00
0.000000000000e+00
0.000000000000e+00
0.000000000000e+00
0.000000000000e+00
0.000000000000e+00
0.000000000000e+00
0.000000000000e+00
0.000000000000e+00
0.000000000000e+00
0.000000000000e+00
0.000000000000e+00
0.000000000000e+00
0.000000000000e+00
0.000000000000e+00
0.000000000000e+00
0.000000000000e+00
0.000000000000e+00
0.000000000000e+00
0.000000000000e+00
0.000000000000e+00
0.000000000000e+00
0.000000000000e+00
0.000000000000e+00
0.000000000000e+00
0.000000000000e+00
0.000000000000e+00
0.000000000000e+00
0.000000000000e+00
0.000000000000e+00
0.000000000000e+00
0.000000000000e+00
0.000000000000e+00
0.000000000000e+00
1.504999048253e-02
1.505045166772e-02
1.505059919245e-02
1.505045166772e-02
1.504999048253e-02
1.505045166772e-02
1.505090938497e-02
1.505105506021e-02
1.505090938497e-02
1.505045166772e-02
1.505059919245e-02
1.505105506021e-02
1.505120070766e-02
1.505105506021e-02
1.505059919245e-02
1.505045166772e-02
1.505090938497e-02
1.505105506021e-02
1.505090938497e-02
1.505045166772e-02
1.504999048253e-02
1.505045166772e-02
1.505059919245e-02
1.505045166772e-02
1.504999048253e-02
1.505138938534e-02
1.505187585035e-02
1.505202968909e-02
1.505187585035e-02
1.505138938534e-02
1.505187585035e-02
1.505236119298e-02
1.505251336481e-02
1.505236119298e-02
1.505187585035e-02
1.505202968909e-02
1.505251336481e-02
1.505266449977e-02
1.505251336481e-02
1.505202968909e-02
1.505187585035e-02
1.505236119298e-02
1.505251336481e-02
1.505236119298e-02
1.505187585035e-02
1.505138938534e-02
1.505187585035e-02
1.505202968909e-02
1.505187585035e-02
1.505138938534e-02
1.505237111512e-02
1.505288855775e-02
1.505305610929e-02
1.505288855775e-02
1.505237111512e-02
1.505288855775e-02
1.505340898225e-02
1.505357667065e-02
1.505340898225e-02
1.505288855775e-02
1.505305610929e-02
1.505357667065e-02
1.505374400201e-02
1.505357667065e-02
1.505305610929e-02
1.505288855775e-02
1.505340898225e-02
1.505357667065e-02
1.505340898225e-02
1.505288855775e-02
1.505237111512e-02
1.505288855775e-02
1.505305610929e-02
1.505288855775e-02
1.505237111512e-02
1.505295272273e-02
1.505349088490e-02
1.505368467446e-02
1.505349088490e-02
1.505295272273e-02
1.505349088490e-02
1.505403526021e-02
1.505423230862e-02
1.505403526021e-02
1.505349088490e-02
1.505368467446e-02
1.505423230862e-02
1.505443167952e-02
1.505423230862e-02
1.505368467446e-02
1.505349088490e-02
1.505403526021e-02
1.505423230862e-02
1.505403526021e-02
1.505349088490e-02
1.505295272273e-02
1.505349088490e-02
1.505368467446e-02
1.505349088490e-02
1.505295272273e-02
1.505317517134e-02
1.505372307874e-02
1.505393505432e-02
1.505372307874e-02
1.505317517134e-02
1.505372307874e-02
1.505428044987e-02
1.505449816007e-02
1.505428044987e-02
1.505372307874e-02
1.505393505432e-02
1.505449816007e-02
1.505471935338e-02
1.505449816007e-02
1.505393505432e-02
1.505372307874e-02
1.505428044987e-02
1.505449816007e-02
1.505428044987e-02
1.505372307874e-02
1.505317517134e-02
1.505372307874e-02
1.505393505432e-02
1.505372307874e-02
1.505317517133e-02
CELL_DATA 128
SCALARS displacement_magnitude float 1
LOOKUP_TABLE default
0.000000000000e+00
0.000000000000e+00
0.000000000000e+00
0.000000000000e+00
0.000000000000e+00
0.000000000000e+00
0.000000000000e+00
0.000000000000e+00
0.000000000000e+00
0.000000000000e+00
0.000000000000e+00
0.000000000000e+00
0.000000000000e+00
0.000000000000e+00
0.000000000000e+00
0.000000000000e+00
0.000000000000e+00
0.000000000000e+00
0.000000000000e+00
0.000000000000e+00
0.000000000000e+00
0.000000000000e+00
0.000000000000e+00
0.000000000000e+00
0.000000000000e+00
0.000000000000e+00
0.000000000000e+00
0.000000000000e+00
0.000000000000e+00
0.000000000000e+00
0.000000000000e+00
0.000000000000e+00
0.000000000000e+00
0.000000000000e+00
0.000000000000e+00
0.000000000000e+00
0.000000000000e+00
0.000000000000e+00
0.000000000000e+00
0.000000000000e+00
0.000000000000e+00
0.000000000000e+00
0.000000000000e+00
0.000000000000e+00
0.000000000000e+00
0.000000000000e+00
0.000000000000e+00
0.000000000000e+00
0.000000000000e+00
0.000000000000e+00
0.000000000000e+00
0.000000000000e+00
0.000000000000e+00
0.000000000000e+00
0.000000000000e+00
0.000000000000e+00
0.000000000000e+00
0.000000000000e+00
0.000000000000e+00
0.000000000000e+00
0.000000000000e+00
0.000000000000e+00
0.000000000000e+00
0.000000000000e+00
1.505116318524e-02
1.505147442532e-02
1.505147442532e-02
1.505116318524e-02
1.505147442532e-02
1.505178407943e-02
1.505178407943e-02
1.505147442532e-02
1.505147442532e-02
1.505178407943e-02
1.505178407943e-02
1.505147442532e-02
1.505116318524e-02
1.505147442532e-02
1.505147442532e-02
1.505116318524e-02
1.505238243648e-02
1.505271380215e-02
1.505271380215e-02
1.505238243648e-02
1.505271380215e-02
1.505304484349e-02
1.505304484349e-02
1.505271380215e-02
1.505271380215e-02
1.505304484349e-02
1.505304484349e-02
1.505271380215e-02
1.505238243648e-02
1.505271380215e-02
1.505271380215e-02
1.505238243648e-02
1.505319087070e-02
1.505354668102e-02
1.505354668102e-02
1.505319087070e-02
1.505354668102e-02
1.505390473532e-02
1.505390473532e-02
1.505354668102e-02
1.505354668102e-02
1.505390473532e-02
1.505390473532e-02
1.505354668102e-02
1.505319087070e-02
1.505354668102e-02
1.505354668102e-02
1.505319087070e-02
1.505360894143e-02
1.505398498390e-02
1.505398498390e-02
1.505360894143e-02
1.505398498390e-02
1.505436596005e-02
1.505436596004e-02
1.505398498390e-02
1.505398498390e-02
1.505436596005e-02
1.505436596004e-02
1.505398498390e-02
1.505360894143e-02
1.505398498390e-02
1.505398498390e-02
1.505360894143e-02
SCALARS engineering_strain_norm float 1
LOOKUP_TABLE default
0.000000000000e+00
0.000000000000e+00
0.000000000000e+00
0.000000000000e+00
0.000000000000e+00
0.000000000000e+00
0.000000000000e+00
0.000000000000e+00
0.000000000000e+00
0.000000000000e+00
0.000000000000e+00
0.000000000000e+00
0.000000000000e+00
0.000000000000e+00
0.000000000000e+00
0.000000000000e+00
0.000000000000e+00
0.000000000000e+00
0.000000000000e+00
0.000000000000e+00
0.000000000000e+00
0.000000000000e+00
0.000000000000e+00
0.000000000000e+00
0.000000000000e+00
0.000000000000e+00
0.000000000000e+00
0.000000000000e+00
0.000000000000e+00
0.000000000000e+00
0.000000000000e+00
0.000000000000e+00
0.000000000000e+00
0.000000000000e+00
0.000000000000e+00
0.000000000000e+00
0.000000000000e+00
0.000000000000e+00
0.000000000000e+00
0.000000000000e+00
0.000000000000e+00
0.000000000000e+00
0.000000000000e+00
0.000000000000e+00
0.000000000000e+00
0.000000000000e+00
0.000000000000e+00
0.000000000000e+00
0.000000000000e+00
0.000000000000e+00
0.000000000000e+00
0.000000000000e+00
0.000000000000e+00
0.000000000000e+00
0.000000000000e+00
0.000000000000e+00
0.000000000000e+00
0.000000000000e+00
0.000000000000e+00
0.000000000000e+00
0.000000000000e+00
0.000000000000e+00
0.000000000000e+00
0.000000000000e+00
2.366780980858e-05
2.396875315785e-05
2.396875315778e-05
2.366780980839e-05
2.396875315788e-05
2.426631140064e-05
2.426631140061e-05
2.396875315769e-05
2.396875315786e-05
2.426631140065e-05
2.426631140055e-05
2.396875315764e-05
2.366780980851e-05
2.396875315776e-05
2.396875315761e-05
2.366780980836e-05
1.699919095455e-05
1.745958423308e-05
1.745958423306e-05
1.699919095436e-05
1.745958423318e-05
1.794580100360e-05
1.794580100354e-05
1.745958423299e-05
1.745958423318e-05
1.794580100365e-05
1.794580100351e-05
1.745958423289e-05
1.699919095447e-05
1.745958423302e-05
1.745958423291e-05
1.699919095421e-05
1.020840788163e-05
1.079654572872e-05
1.079654572866e-05
1.020840788146e-05
1.079654572884e-05
1.142573786674e-05
1.142573786658e-05
1.079654572859e-05
1.079654572875e-05
1.142573786671e-05
1.142573786661e-05
1.079654572854e-05
1.020840788155e-05
1.079654572862e-05
1.079654572858e-05
1.020840788137e-05
4.221662304823e-06
4.690624096191e-06
4.690624096142e-06
4.221662304728e-06
4.690624096201e-06
5.164215414272e-06
5.164215414202e-06
4.690624096065e-06
4.690624096103e-06
5.164215414201e-06
5.164215414209e-06
4.690624096092e-06
4.221662304760e-06
4.690624096139e-06
4.690624096096e-06
4.221662304699e-06
SCALARS von_mises float 1
LOOKUP_TABLE default
0.000000000000e+00
0.000000000000e+00
0.000000000000e+00
0.000000000000e+00
0.000000000000e+00
0.000000000000e+00
0.000000000000e+00
0.000000000000e+00
0.000000000000e+00
0.000000000000e+00
0.000000000000e+00
0.000000000000e+00
0.000000000000e+00
0.000000000000e+00
0.000000000000e+00
0.000000000000e+00
0.000000000000e+00
0.000000000000e+00
0.000000000000e+00
0.000000000000e+00
0.000000000000e+00
0.000000000000e+00
0.000000000000e+00
0.000000000000e+00
0.000000000000e+00
0.000000000000e+00
0.000000000000e+00
0.000000000000e+00
0.000000000000e+00
0.000000000000e+00
0.000000000000e+00
0.000000000000e+00
0.000000000000e+00
0.000000000000e+00
0.000000000000e+00
0.000000000000e+00
0.000000000000e+00
0.000000000000e+00
0.000000000000e+00
0.000000000000e+00
0.000000000000e+00
0.000000000000e+00
0.000000000000e+00
0.000000000000e+00
0.000000000000e+00
0.000000000000e+00
0.000000000000e+00
0.000000000000e+00
0.000000000000e+00
0.000000000000e+00
0.000000000000e+00
0.000000000000e+00
0.000000000000e+00
0.000000000000e+00
0.000000000000e+00
0.000000000000e+00
0.000000000000e+00
0.000000000000e+00
0.000000000000e+00
0.000000000000e+00
0.000000000000e+00
0.000000000000e+00
0.000000000000e+00
0.000000000000e+00
2.171641621832e+00
2.200648564278e+00
2.200648564271e+00
2.171641621815e+00
2.200648564281e+00
2.228944062708e+00
2.228944062705e+00
2.200648564263e+00
2.200648564279e+00
2.228944062708e+00
2.228944062699e+00
2.200648564257e+00
2.171641621826e+00
2.200648564269e+00
2.200648564256e+00
2.171641621811e+00
1.566743165161e+00
1.611960771734e+00
1.611960771732e+00
1.566743165143e+00
1.611960771743e+00
1.659564843539e+00
1.659564843533e+00
1.611960771724e+00
1.611960771743e+00
1.659564843542e+00
1.659564843529e+00
1.611960771715e+00
1.566743165153e+00
1.611960771728e+00
1.611960771717e+00
1.566743165129e+00
9.446177019477e-01
1.004260319821e+00
1.004260319816e+00
9.446177019320e-01
1.004260319832e+00
1.067530448225e+00
1.067530448211e+00
1.004260319809e+00
1.004260319824e+00
1.067530448223e+00
1.067530448213e+00
1.004260319805e+00
9.446177019397e-01
1.004260319812e+00
1.004260319809e+00
9.446177019233e-01
3.964697677921e-01
4.414775511535e-01
4.414775511490e-01
3.964697677832e-01
4.414775511543e-01
4.859945710180e-01
4.859945710114e-01
4.414775511417e-01
4.414775511451e-01
4.859945710113e-01
4.859945710121e-01
4.414775511442e-01
3.964697677864e-01
4.414775511485e-01
4.414775511445e-01
3.964697677806e-01
SCALARS sdf_gap float 1
LOOKUP_TABLE default
0.000000000000e+00
0.000000000000e+00
0.000000000000e+00
0.000000000000e+00
0.000000000000e+00
0.000000000000e+00
0.000000000000e+00
0.000000000000e+00
0.000000000000e+00
0.000000000000e+00
0.000000000000e+00
0.000000000000e+00
0.000000000000e+00
0.000000000000e+00
0.000000000000e+00
0.000000000000e+00
0.000000000000e+00
0.000000000000e+00
0.000000000000e+00
0.000000000000e+00
0.000000000000e+00
0.000000000000e+00
0.000000000000e+00
0.000000000000e+00
0.000000000000e+00
0.000000000000e+00
0.000000000000e+00
0.000000000000e+00
0.000000000000e+00
0.000000000000e+00
0.000000000000e+00
0.000000000000e+00
0.000000000000e+00
0.000000000000e+00
0.000000000000e+00
0.000000000000e+00
0.000000000000e+00
0.000000000000e+00
0.000000000000e+00
0.000000000000e+00
0.000000000000e+00
0.000000000000e+00
0.000000000000e+00
0.000000000000e+00
0.000000000000e+00
0.000000000000e+00
0.000000000000e+00
0.000000000000e+00
0.000000000000e+00
0.000000000000e+00
0.000000000000e+00
0.000000000000e+00
0.000000000000e+00
0.000000000000e+00
0.000000000000e+00
0.000000000000e+00
0.000000000000e+00
0.000000000000e+00
0.000000000000e+00
0.000000000000e+00
0.000000000000e+00
0.000000000000e+00
0.000000000000e+00
0.000000000000e+00
-5.045066893636e-05
-5.075374778999e-05
-5.075374778989e-05
-5.045066893605e-05
-5.075374779001e-05
-5.105502643192e-05
-5.105502643184e-05
-5.075374778974e-05
-5.075374778997e-05
-5.105502643186e-05
-5.105502643180e-05
-5.075374778971e-05
-5.045066893616e-05
-5.075374778980e-05
-5.075374778972e-05
-5.045066893589e-05
0.000000000000e+00
0.000000000000e+00
0.000000000000e+00
0.000000000000e+00
0.000000000000e+00
0.000000000000e+00
0.000000000000e+00
0.000000000000e+00
0.000000000000e+00
0.000000000000e+00
0.000000000000e+00
0.000000000000e+00
0.000000000000e+00
0.000000000000e+00
0.000000000000e+00
0.000000000000e+00
0.000000000000e+00
0.000000000000e+00
0.000000000000e+00
0.000000000000e+00
0.000000000000e+00
0.000000000000e+00
0.000000000000e+00
0.000000000000e+00
0.000000000000e+00
0.000000000000e+00
0.000000000000e+00
0.000000000000e+00
0.000000000000e+00
0.000000000000e+00
0.000000000000e+00
0.000000000000e+00
0.000000000000e+00
0.000000000000e+00
0.000000000000e+00
0.000000000000e+00
0.000000000000e+00
0.000000000000e+00
0.000000000000e+00
0.000000000000e+00
0.000000000000e+00
0.000000000000e+00
0.000000000000e+00
0.000000000000e+00
0.000000000000e+00
0.000000000000e+00
0.000000000000e+00
0.000000000000e+00
SCALARS contact_pressure float 1
LOOKUP_TABLE default
0.000000000000e+00
0.000000000000e+00
0.000000000000e+00
0.000000000000e+00
0.000000000000e+00
0.000000000000e+00
0.000000000000e+00
0.000000000000e+00
0.000000000000e+00
0.000000000000e+00
0.000000000000e+00
0.000000000000e+00
0.000000000000e+00
0.000000000000e+00
0.000000000000e+00
0.000000000000e+00
0.000000000000e+00
0.000000000000e+00
0.000000000000e+00
0.000000000000e+00
0.000000000000e+00
0.000000000000e+00
0.000000000000e+00
0.000000000000e+00
0.000000000000e+00
0.000000000000e+00
0.000000000000e+00
0.000000000000e+00
0.000000000000e+00
0.000000000000e+00
0.000000000000e+00
0.000000000000e+00
0.000000000000e+00
0.000000000000e+00
0.000000000000e+00
0.000000000000e+00
0.000000000000e+00
0.000000000000e+00
0.000000000000e+00
0.000000000000e+00
0.000000000000e+00
0.000000000000e+00
0.000000000000e+00
0.000000000000e+00
0.000000000000e+00
0.000000000000e+00
0.000000000000e+00
0.000000000000e+00
0.000000000000e+00
0.000000000000e+00
0.000000000000e+00
0.000000000000e+00
0.000000000000e+00
0.000000000000e+00
0.000000000000e+00
0.000000000000e+00
0.000000000000e+00
0.000000000000e+00
0.000000000000e+00
0.000000000000e+00
0.000000000000e+00
0.000000000000e+00
0.000000000000e+00
0.000000000000e+00
2.522533446818e+00
2.537687389499e+00
2.537687389494e+00
2.522533446802e+00
2.537687389501e+00
2.552751321596e+00
2.552751321592e+00
2.537687389487e+00
2.537687389498e+00
2.552751321593e+00
2.552751321590e+00
2.537687389485e+00
2.522533446808e+00
2.537687389490e+00
2.537687389486e+00
2.522533446794e+00
0.000000000000e+00
0.000000000000e+00
0.000000000000e+00
0.000000000000e+00
0.000000000000e+00
0.000000000000e+00
0.000000000000e+00
0.000000000000e+00
0.000000000000e+00
0.000000000000e+00
0.000000000000e+00
0.000000000000e+00
0.000000000000e+00
0.000000000000e+00
0.000000000000e+00
0.000000000000e+00
0.000000000000e+00
0.000000000000e+00
0.000000000000e+00
0.000000000000e+00
0.000000000000e+00
0.000000000000e+00
0.000000000000e+00
0.000000000000e+00
0.000000000000e+00
0.000000000000e+00
0.000000000000e+00
0.000000000000e+00
0.000000000000e+00
0.000000000000e+00
0.000000000000e+00
0.000000000000e+00
0.000000000000e+00
0.000000000000e+00
0.000000000000e+00
0.000000000000e+00
0.000000000000e+00
0.000000000000e+00
0.000000000000e+00
0.000000000000e+00
0.000000000000e+00
0.000000000000e+00
0.000000000000e+00
0.000000000000e+00
0.000000000000e+00
0.000000000000e+00
0.000000000000e+00
0.000000000000e+00
SCALARS active_contact float 1
LOOKUP_TABLE default
0.000000000000e+00
0.000000000000e+00
0.000000000000e+00
0.000000000000e+00
0.000000000000e+00
0.000000000000e+00
0.000000000000e+00
0.000000000000e+00
0.000000000000e+00
0.000000000000e+00
0.000000000000e+00
0.000000000000e+00
0.000000000000e+00
0.000000000000e+00
0.000000000000e+00
0.000000000000e+00
0.000000000000e+00
0.000000000000e+00
0.000000000000e+00
0.000000000000e+00
0.000000000000e+00
0.000000000000e+00
0.000000000000e+00
0.000000000000e+00
0.000000000000e+00
0.000000000000e+00
0.000000000000e+00
0.000000000000e+00
0.000000000000e+00
0.000000000000e+00
0.000000000000e+00
0.000000000000e+00
0.000000000000e+00
0.000000000000e+00
0.000000000000e+00
0.000000000000e+00
0.000000000000e+00
0.000000000000e+00
0.000000000000e+00
0.000000000000e+00
0.000000000000e+00
0.000000000000e+00
0.000000000000e+00
0.000000000000e+00
0.000000000000e+00
0.000000000000e+00
0.000000000000e+00
0.000000000000e+00
0.000000000000e+00
0.000000000000e+00
0.000000000000e+00
0.000000000000e+00
0.000000000000e+00
0.000000000000e+00
0.000000000000e+00
0.000000000000e+00
0.000000000000e+00
0.000000000000e+00
0.000000000000e+00
0.000000000000e+00
0.000000000000e+00
0.000000000000e+00
0.000000000000e+00
0.000000000000e+00
1.000000000000e+00
1.000000000000e+00
1.000000000000e+00
1.000000000000e+00
1.000000000000e+00
1.000000000000e+00
1.000000000000e+00
1.000000000000e+00
1.000000000000e+00
1.000000000000e+00
1.000000000000e+00
1.000000000000e+00
1.000000000000e+00
1.000000000000e+00
1.000000000000e+00
1.000000000000e+00
0.000000000000e+00
0.000000000000e+00
0.000000000000e+00
0.000000000000e+00
0.000000000000e+00
0.000000000000e+00
0.000000000000e+00
0.000000000000e+00
0.000000000000e+00
0.000000000000e+00
0.000000000000e+00
0.000000000000e+00
0.000000000000e+00
0.000000000000e+00
0.000000000000e+00
0.000000000000e+00
0.000000000000e+00
0.000000000000e+00
0.000000000000e+00
0.000000000000e+00
0.000000000000e+00
0.000000000000e+00
0.000000000000e+00
0.000000000000e+00
0.000000000000e+00
0.000000000000e+00
0.000000000000e+00
0.000000000000e+00
0.000000000000e+00
0.000000000000e+00
0.000000000000e+00
0.000000000000e+00
0.000000000000e+00
0.000000000000e+00
0.000000000000e+00
0.000000000000e+00
0.000000000000e+00
0.000000000000e+00
0.000000000000e+00
0.000000000000e+00
0.000000000000e+00
0.000000000000e+00
0.000000000000e+00
0.000000000000e+00
0.000000000000e+00
0.000000000000e+00
0.000000000000e+00
0.000000000000e+00
