# vtk DataFile Version 3.0
SFC long-time C3D8 dynamic frame 140 t=2.800000000000e+00
ASCII
DATASET UNSTRUCTURED_GRID
POINTS 250 float
-2.500000000000e-01 -2.500000000000e-01 0.000000000000e+00
-1.250000000000e-01 -2.500000000000e-01 0.000000000000e+00
0.000000000000e+00 -2.500000000000e-01 0.000000000000e+00
1.250000000000e-01 -2.500000000000e-01 0.000000000000e+00
2.500000000000e-01 -2.500000000000e-01 0.000000000000e+00
-2.500000000000e-01 -1.250000000000e-01 0.000000000000e+00
-1.250000000000e-01 -1.250000000000e-01 0.000000000000e+00
0.000000000000e+00 -1.250000000000e-01 0.000000000000e+00
1.250000000000e-01 -1.250000000000e-01 0.000000000000e+00
2.500000000000e-01 -1.250000000000e-01 0.000000000000e+00
-2.500000000000e-01 0.000000000000e+00 0.000000000000e+00
-1.250000000000e-01 0.000000000000e+00 0.000000000000e+00
0.000000000000e+00 0.000000000000e+00 0.000000000000e+00
1.250000000000e-01 0.000000000000e+00 0.000000000000e+00
2.500000000000e-01 0.000000000000e+00 0.000000000000e+00
-2.500000000000e-01 1.250000000000e-01 0.000000000000e+00
-1.250000000000e-01 1.250000000000e-01 0.000000000000e+00
0.000000000000e+00 1.250000000000e-01 0.000000000000e+00
1.250000000000e-01 1.250000000000e-01 0.000000000000e+00
2.500000000000e-01 1.250000000000e-01 0.000000000000e+00
-2.500000000000e-01 2.500000000000e-01 0.000000000000e+00
-1.250000000000e-01 2.500000000000e-01 0.000000000000e+00
0.000000000000e+00 2.500000000000e-01 0.000000000000e+00
1.250000000000e-01 2.500000000000e-01 0.000000000000e+00
2.500000000000e-01 2.500000000000e-01 0.000000000000e+00
-2.500000000000e-01 -2.500000000000e-01 6.000000000000e-02
-1.250000000000e-01 -2.500000000000e-01 6.000000000000e-02
0.000000000000e+00 -2.500000000000e-01 6.000000000000e-02
1.250000000000e-01 -2.500000000000e-01 6.000000000000e-02
2.500000000000e-01 -2.500000000000e-01 6.000000000000e-02
-2.500000000000e-01 -1.250000000000e-01 6.000000000000e-02
-1.250000000000e-01 -1.250000000000e-01 6.000000000000e-02
0.000000000000e+00 -1.250000000000e-01 6.000000000000e-02
1.250000000000e-01 -1.250000000000e-01 6.000000000000e-02
2.500000000000e-01 -1.250000000000e-01 6.000000000000e-02
-2.500000000000e-01 0.000000000000e+00 6.000000000000e-02
-1.250000000000e-01 0.000000000000e+00 6.000000000000e-02
0.000000000000e+00 0.000000000000e+00 6.000000000000e-02
1.250000000000e-01 0.000000000000e+00 6.000000000000e-02
2.500000000000e-01 0.000000000000e+00 6.000000000000e-02
-2.500000000000e-01 1.250000000000e-01 6.000000000000e-02
-1.250000000000e-01 1.250000000000e-01 6.000000000000e-02
0.000000000000e+00 1.250000000000e-01 6.000000000000e-02
1.250000000000e-01 1.250000000000e-01 6.000000000000e-02
2.500000000000e-01 1.250000000000e-01 6.000000000000e-02
-2.500000000000e-01 2.500000000000e-01 6.000000000000e-02
-1.250000000000e-01 2.500000000000e-01 6.000000000000e-02
0.000000000000e+00 2.500000000000e-01 6.000000000000e-02
1.250000000000e-01 2.500000000000e-01 6.000000000000e-02
2.500000000000e-01 2.500000000000e-01 6.000000000000e-02
-2.500000000000e-01 -2.500000000000e-01 1.200000000000e-01
-1.250000000000e-01 -2.500000000000e-01 1.200000000000e-01
0.000000000000e+00 -2.500000000000e-01 1.200000000000e-01
1.250000000000e-01 -2.500000000000e-01 1.200000000000e-01
2.500000000000e-01 -2.500000000000e-01 1.200000000000e-01
-2.500000000000e-01 -1.250000000000e-01 1.200000000000e-01
-1.250000000000e-01 -1.250000000000e-01 1.200000000000e-01
0.000000000000e+00 -1.250000000000e-01 1.200000000000e-01
1.250000000000e-01 -1.250000000000e-01 1.200000000000e-01
2.500000000000e-01 -1.250000000000e-01 1.200000000000e-01
-2.500000000000e-01 0.000000000000e+00 1.200000000000e-01
-1.250000000000e-01 0.000000000000e+00 1.200000000000e-01
0.000000000000e+00 0.000000000000e+00 1.200000000000e-01
1.250000000000e-01 0.000000000000e+00 1.200000000000e-01
2.500000000000e-01 0.000000000000e+00 1.200000000000e-01
-2.500000000000e-01 1.250000000000e-01 1.200000000000e-01
-1.250000000000e-01 1.250000000000e-01 1.200000000000e-01
0.000000000000e+00 1.250000000000e-01 1.200000000000e-01
1.250000000000e-01 1.250000000000e-01 1.200000000000e-01
2.500000000000e-01 1.250000000000e-01 1.200000000000e-01
-2.500000000000e-01 2.500000000000e-01 1.200000000000e-01
-1.250000000000e-01 2.500000000000e-01 1.200000000000e-01
0.000000000000e+00 2.500000000000e-01 1.200000000000e-01
1.250000000000e-01 2.500000000000e-01 1.200000000000e-01
2.500000000000e-01 2.500000000000e-01 1.200000000000e-01
-2.500000000000e-01 -2.500000000000e-01 1.800000000000e-01
-1.250000000000e-01 -2.500000000000e-01 1.800000000000e-01
0.000000000000e+00 -2.500000000000e-01 1.800000000000e-01
1.250000000000e-01 -2.500000000000e-01 1.800000000000e-01
2.500000000000e-01 -2.500000000000e-01 1.800000000000e-01
-2.500000000000e-01 -1.250000000000e-01 1.800000000000e-01
-1.250000000000e-01 -1.250000000000e-01 1.800000000000e-01
0.000000000000e+00 -1.250000000000e-01 1.800000000000e-01
1.250000000000e-01 -1.250000000000e-01 1.800000000000e-01
2.500000000000e-01 -1.250000000000e-01 1.800000000000e-01
-2.500000000000e-01 0.000000000000e+00 1.800000000000e-01
-1.250000000000e-01 0.000000000000e+00 1.800000000000e-01
0.000000000000e+00 0.000000000000e+00 1.800000000000e-01
1.250000000000e-01 0.000000000000e+00 1.800000000000e-01
2.500000000000e-01 0.000000000000e+00 1.800000000000e-01
-2.500000000000e-01 1.250000000000e-01 1.800000000000e-01
-1.250000000000e-01 1.250000000000e-01 1.800000000000e-01
0.000000000000e+00 1.250000000000e-01 1.800000000000e-01
1.250000000000e-01 1.250000000000e-01 1.800000000000e-01
2.500000000000e-01 1.250000000000e-01 1.800000000000e-01
-2.500000000000e-01 2.500000000000e-01 1.800000000000e-01
-1.250000000000e-01 2.500000000000e-01 1.800000000000e-01
0.000000000000e+00 2.500000000000e-01 1.800000000000e-01
1.250000000000e-01 2.500000000000e-01 1.800000000000e-01
2.500000000000e-01 2.500000000000e-01 1.800000000000e-01
-2.500000000000e-01 -2.500000000000e-01 2.400000000000e-01
-1.250000000000e-01 -2.500000000000e-01 2.400000000000e-01
0.000000000000e+00 -2.500000000000e-01 2.400000000000e-01
1.250000000000e-01 -2.500000000000e-01 2.400000000000e-01
2.500000000000e-01 -2.500000000000e-01 2.400000000000e-01
-2.500000000000e-01 -1.250000000000e-01 2.400000000000e-01
-1.250000000000e-01 -1.250000000000e-01 2.400000000000e-01
0.000000000000e+00 -1.250000000000e-01 2.400000000000e-01
1.250000000000e-01 -1.250000000000e-01 2.400000000000e-01
2.500000000000e-01 -1.250000000000e-01 2.400000000000e-01
-2.500000000000e-01 0.000000000000e+00 2.400000000000e-01
-1.250000000000e-01 0.000000000000e+00 2.400000000000e-01
0.000000000000e+00 0.000000000000e+00 2.400000000000e-01
1.250000000000e-01 0.000000000000e+00 2.400000000000e-01
2.500000000000e-01 0.000000000000e+00 2.400000000000e-01
-2.500000000000e-01 1.250000000000e-01 2.400000000000e-01
-1.250000000000e-01 1.250000000000e-01 2.400000000000e-01
0.000000000000e+00 1.250000000000e-01 2.400000000000e-01
1.250000000000e-01 1.250000000000e-01 2.400000000000e-01
2.500000000000e-01 1.250000000000e-01 2.400000000000e-01
-2.500000000000e-01 2.500000000000e-01 2.400000000000e-01
-1.250000000000e-01 2.500000000000e-01 2.400000000000e-01
0.000000000000e+00 2.500000000000e-01 2.400000000000e-01
1.250000000000e-01 2.500000000000e-01 2.400000000000e-01
2.500000000000e-01 2.500000000000e-01 2.400000000000e-01
-2.499999947019e-01 -2.499999948584e-01 2.452466894236e-01
-1.249999966084e-01 -2.499999964441e-01 2.452466719369e-01
2.429094306173e-10 -2.499999997736e-01 2.452466632486e-01
1.249999970942e-01 -2.499999964443e-01 2.452466724027e-01
2.499999951877e-01 -2.499999948587e-01 2.452466903553e-01
-2.499999962875e-01 -1.249999967649e-01 2.452466717884e-01
-1.249999970180e-01 -1.249999971746e-01 2.452466536985e-01
2.430024627801e-10 -1.249999993221e-01 2.452466447535e-01
1.249999975040e-01 -1.249999971748e-01 2.452466541644e-01
2.499999967735e-01 -1.249999967652e-01 2.452466727201e-01
-2.499999996168e-01 8.646437657996e-11 2.452466629516e-01
-1.249999991653e-01 8.637154108188e-11 2.452466446051e-01
2.430954344654e-10 8.627867906049e-11 2.452466355558e-01
1.249999996514e-01 8.618576221167e-11 2.452466450709e-01
2.500000001030e-01 8.609282374259e-11 2.452466638833e-01
-2.499999962873e-01 1.249999969378e-01 2.452466719573e-01
-1.249999970178e-01 1.249999973474e-01 2.452466538674e-01
2.431882209715e-10 1.249999994946e-01 2.452466449224e-01
1.249999975042e-01 1.249999973472e-01 2.452466543333e-01
2.499999967736e-01 1.249999969374e-01 2.452466728890e-01
-2.499999947015e-01 2.499999950313e-01 2.452466897614e-01
-1.249999966080e-01 2.499999966168e-01 2.452466722747e-01
2.432809572034e-10 2.499999999462e-01 2.452466635863e-01
1.249999970946e-01 2.499999966166e-01 2.452466727405e-01
2.499999951881e-01 2.499999950309e-01 2.452466906931e-01
-2.499999868760e-01 -2.499999869552e-01 3.102466898290e-01
-1.249999894806e-01 -2.499999886652e-01 3.102466735536e-01
1.217921941617e-10 -2.499999923049e-01 3.102466657564e-01
1.249999897242e-01 -2.499999886654e-01 3.102466740194e-01
2.499999871196e-01 -2.499999869556e-01 3.102466907607e-01
-2.499999885857e-01 -1.249999895599e-01 3.102466734051e-01
-1.249999896622e-01 -1.249999897417e-01 3.102466569259e-01
1.218852202546e-10 -1.249999917886e-01 3.102466490203e-01
1.249999899060e-01 -1.249999897418e-01 3.102466573917e-01
2.499999888295e-01 -1.249999895602e-01 3.102466743368e-01
-2.499999922253e-01 4.255410710544e-11 3.102466654594e-01
-1.249999917090e-01 4.246127731987e-11 3.102466488718e-01
1.219781777585e-10 4.236841744985e-11 3.102466407714e-01
1.249999919530e-01 4.227550369707e-11 3.102466493377e-01
2.499999924692e-01 4.218256569721e-11 3.102466663911e-01
-2.499999885856e-01 1.249999896450e-01 3.102466735740e-01
-1.249999896620e-01 1.249999898266e-01 3.102466570948e-01
1.220709825301e-10 1.249999918734e-01 3.102466491892e-01
1.249999899062e-01 1.249999898264e-01 3.102466575606e-01
2.499999888297e-01 1.249999896446e-01 3.102466745056e-01
-2.499999868756e-01 2.499999870404e-01 3.102466901668e-01
-1.249999894802e-01 2.499999887501e-01 3.102466738913e-01
1.221637235664e-10 2.499999923896e-01 3.102466660941e-01
1.249999897246e-01 2.499999887499e-01 3.102466743572e-01
2.499999871200e-01 2.499999870400e-01 3.102466910984e-01
-2.499999808250e-01 -2.499999808271e-01 3.752466855157e-01
-1.249999836155e-01 -2.499999828464e-01 3.752466722796e-01
6.748732695802e-13 -2.499999869892e-01 3.752466669549e-01
1.249999836169e-01 -2.499999828466e-01 3.752466727454e-01
2.499999808264e-01 -2.499999808274e-01 3.752466864473e-01
-2.499999828442e-01 -1.249999836176e-01 3.752466721311e-01
-1.249999836821e-01 -1.249999836844e-01 3.752466593227e-01
7.679216493954e-13 -1.249999857467e-01 3.752466542957e-01
1.249999836837e-01 -1.249999836845e-01 3.752466597885e-01
2.499999828457e-01 -1.249999836180e-01 3.752466730628e-01
-2.499999869868e-01 -1.356183332691e-12 3.752466666579e-01
-1.249999857443e-01 -1.449007057317e-12 3.752466541472e-01
8.608783312886e-13 -1.541866875564e-12 3.752466491625e-01
1.249999857461e-01 -1.634774608745e-12 3.752466546130e-01
2.499999869885e-01 -1.727719444664e-12 3.752466675896e-01
-2.499999828440e-01 1.249999836149e-01 3.752466723000e-01
-1.249999836820e-01 1.249999836815e-01 3.752466594916e-01
9.536904392143e-13 1.249999857436e-01 3.752466544646e-01
1.249999836839e-01 1.249999836813e-01 3.752466599574e-01
2.499999828459e-01 1.249999836145e-01 3.752466732317e-01
-2.499999808247e-01 2.499999808243e-01 3.752466858534e-01
-1.249999836152e-01 2.499999828435e-01 3.752466726174e-01
1.046408562000e-12 2.499999869861e-01 3.752466672926e-01
1.249999836173e-01 2.499999828433e-01 3.752466730832e-01
2.499999808268e-01 2.499999808240e-01 3.752466867851e-01
-2.499999744698e-01 -2.499999743946e-01 4.402466796356e-01
-1.249999796793e-01 -2.499999768686e-01 4.402466699407e-01
-1.204420648011e-10 -2.499999815941e-01 4.402466675738e-01
1.249999794384e-01 -2.499999768688e-01 4.402466704065e-01
2.499999742289e-01 -2.499999743950e-01 4.402466805673e-01
-2.499999769436e-01 -1.249999796041e-01 4.402466697922e-01
-1.249999797525e-01 -1.249999796775e-01 4.402466613149e-01
-1.203490123989e-10 -1.249999819268e-01 4.402466597614e-01
1.249999795118e-01 -1.249999796777e-01 4.402466617808e-01
2.499999767029e-01 -1.249999796045e-01 4.402466707238e-01
-2.499999816689e-01 -4.526633256242e-11 4.402466672769e-01
-1.249999820016e-01 -4.535915824228e-11 4.402466596129e-01
-1.202560508464e-10 -4.545201375149e-11 4.402466584552e-01
1.249999817611e-01 -4.554492077628e-11 4.402466600787e-01
2.499999814284e-01 -4.563786355913e-11 4.402466682086e-01
-2.499999769434e-01 1.249999795135e-01 4.402466699611e-01
-1.249999797523e-01 1.249999795868e-01 4.402466614838e-01
-1.201632366927e-10 1.249999818359e-01 4.402466599302e-01
1.249999795120e-01 1.249999795866e-01 4.402466619496e-01
2.499999767031e-01 1.249999795132e-01 4.402466708927e-01
-2.499999744694e-01 2.499999743041e-01 4.402466799734e-01
-1.249999796789e-01 2.499999767779e-01 4.402466702784e-01
-1.200705224905e-10 2.499999815032e-01 4.402466679116e-01
1.249999794387e-01 2.499999767777e-01 4.402466707443e-01
2.499999742293e-01 2.499999743037e-01 4.402466809050e-01
-2.499999695022e-01 -2.499999693498e-01 5.052466781666e-01
-1.249999775349e-01 -2.499999725378e-01 5.052466710980e-01
-2.415587155086e-10 -2.499999779116e-01 5.052466710339e-01
1.249999770518e-01 -2.499999725380e-01 5.052466715638e-01
2.499999690191e-01 -2.499999693502e-01 5.052466790983e-01
-2.499999726900e-01 -1.249999773825e-01 5.052466709495e-01
-1.249999780407e-01 -1.249999778885e-01 5.052466658787e-01
-2.414656772200e-10 -1.249999805606e-01 5.052466670779e-01
1.249999775578e-01 -1.249999778887e-01 5.052466663445e-01
2.499999722071e-01 -1.249999773829e-01 5.052466718812e-01
-2.499999780636e-01 -8.917638218063e-11 5.052466707370e-01
-1.249999807126e-01 -8.926920979583e-11 5.052466669294e-01
-2.413727374375e-10 -8.936206543822e-11 5.052466687133e-01
1.249999802298e-01 -8.945497027671e-11 5.052466673953e-01
2.499999775808e-01 -8.954790720725e-11 5.052466716686e-01
-2.499999726898e-01 1.249999772042e-01 5.052466711184e-01
-1.249999780405e-01 1.249999777100e-01 5.052466660476e-01
-2.412798998122e-10 1.249999803818e-01 5.052466672468e-01
1.249999775580e-01 1.249999777098e-01 5.052466665134e-01
2.499999722072e-01 1.249999772038e-01 5.052466720501e-01
-2.499999695018e-01 2.499999691715e-01 5.052466785044e-01
-1.249999775345e-01 2.499999723592e-01 5.052466714358e-01
-2.411871674771e-10 2.499999777328e-01 5.052466713717e-01
1.249999770522e-01 2.499999723591e-01 5.052466719016e-01
2.499999690194e-01 2.499999691711e-01 5.052466794361e-01
CELLS 128 1152
8 0 1 6 5 25 26 31 30
8 1 2 7 6 26 27 32 31
8 2 3 8 7 27 28 33 32
8 3 4 9 8 28 29 34 33
8 5 6 11 10 30 31 36 35
8 6 7 12 11 31 32 37 36
8 7 8 13 12 32 33 38 37
8 8 9 14 13 33 34 39 38
8 10 11 16 15 35 36 41 40
8 11 12 17 16 36 37 42 41
8 12 13 18 17 37 38 43 42
8 13 14 19 18 38 39 44 43
8 15 16 21 20 40 41 46 45
8 16 17 22 21 41 42 47 46
8 17 18 23 22 42 43 48 47
8 18 19 24 23 43 44 49 48
8 25 26 31 30 50 51 56 55
8 26 27 32 31 51 52 57 56
8 27 28 33 32 52 53 58 57
8 28 29 34 33 53 54 59 58
8 30 31 36 35 55 56 61 60
8 31 32 37 36 56 57 62 61
8 32 33 38 37 57 58 63 62
8 33 34 39 38 58 59 64 63
8 35 36 41 40 60 61 66 65
8 36 37 42 41 61 62 67 66
8 37 38 43 42 62 63 68 67
8 38 39 44 43 63 64 69 68
8 40 41 46 45 65 66 71 70
8 41 42 47 46 66 67 72 71
8 42 43 48 47 67 68 73 72
8 43 44 49 48 68 69 74 73
8 50 51 56 55 75 76 81 80
8 51 52 57 56 76 77 82 81
8 52 53 58 57 77 78 83 82
8 53 54 59 58 78 79 84 83
8 55 56 61 60 80 81 86 85
8 56 57 62 61 81 82 87 86
8 57 58 63 62 82 83 88 87
8 58 59 64 63 83 84 89 88
8 60 61 66 65 85 86 91 90
8 61 62 67 66 86 87 92 91
8 62 63 68 67 87 88 93 92
8 63 64 69 68 88 89 94 93
8 65 66 71 70 90 91 96 95
8 66 67 72 71 91 92 97 96
8 67 68 73 72 92 93 98 97
8 68 69 74 73 93 94 99 98
8 75 76 81 80 100 101 106 105
8 76 77 82 81 101 102 107 106
8 77 78 83 82 102 103 108 107
8 78 79 84 83 103 104 109 108
8 80 81 86 85 105 106 111 110
8 81 82 87 86 106 107 112 111
8 82 83 88 87 107 108 113 112
8 83 84 89 88 108 109 114 113
8 85 86 91 90 110 111 116 115
8 86 87 92 91 111 112 117 116
8 87 88 93 92 112 113 118 117
8 88 89 94 93 113 114 119 118
8 90 91 96 95 115 116 121 120
8 91 92 97 96 116 117 122 121
8 92 93 98 97 117 118 123 122
8 93 94 99 98 118 119 124 123
8 125 126 131 130 150 151 156 155
8 126 127 132 131 151 152 157 156
8 127 128 133 132 152 153 158 157
8 128 129 134 133 153 154 159 158
8 130 131 136 135 155 156 161 160
8 131 132 137 136 156 157 162 161
8 132 133 138 137 157 158 163 162
8 133 134 139 138 158 159 164 163
8 135 136 141 140 160 161 166 165
8 136 137 142 141 161 162 167 166
8 137 138 143 142 162 163 168 167
8 138 139 144 143 163 164 169 168
8 140 141 146 145 165 166 171 170
8 141 142 147 146 166 167 172 171
8 142 143 148 147 167 168 173 172
8 143 144 149 148 168 169 174 173
8 150 151 156 155 175 176 181 180
8 151 152 157 156 176 177 182 181
8 152 153 158 157 177 178 183 182
8 153 154 159 158 178 179 184 183
8 155 156 161 160 180 181 186 185
8 156 157 162 161 181 182 187 186
8 157 158 163 162 182 183 188 187
8 158 159 164 163 183 184 189 188
8 160 161 166 165 185 186 191 190
8 161 162 167 166 186 187 192 191
8 162 163 168 167 187 188 193 192
8 163 164 169 168 188 189 194 193
8 165 166 171 170 190 191 196 195
8 166 167 172 171 191 192 197 196
8 167 168 173 172 192 193 198 197
8 168 169 174 173 193 194 199 198
8 175 176 181 180 200 201 206 205
8 176 177 182 181 201 202 207 206
8 177 178 183 182 202 203 208 207
8 178 179 184 183 203 204 209 208
8 180 181 186 185 205 206 211 210
8 181 182 187 186 206 207 212 211
8 182 183 188 187 207 208 213 212
8 183 184 189 188 208 209 214 213
8 185 186 191 190 210 211 216 215
8 186 187 192 191 211 212 217 216
8 187 188 193 192 212 213 218 217
8 188 189 194 193 213 214 219 218
8 190 191 196 195 215 216 221 220
8 191 192 197 196 216 217 222 221
8 192 193 198 197 217 218 223 222
8 193 194 199 198 218 219 224 223
8 200 201 206 205 225 226 231 230
8 201 202 207 206 226 227 232 231
8 202 203 208 207 227 228 233 232
8 203 204 209 208 228 229 234 233
8 205 206 211 210 230 231 236 235
8 206 207 212 211 231 232 237 236
8 207 208 213 212 232 233 238 237
8 208 209 214 213 233 234 239 238
8 210 211 216 215 235 236 241 240
8 211 212 217 216 236 237 242 241
8 212 213 218 217 237 238 243 242
8 213 214 219 218 238 239 244 243
8 215 216 221 220 240 241 246 245
8 216 217 222 221 241 242 247 246
8 217 218 223 222 242 243 248 247
8 218 219 224 223 243 244 249 248
CELL_TYPES 128
12
12
12
12
12
12
12
12
12
12
12
12
12
12
12
12
12
12
12
12
12
12
12
12
12
12
12
12
12
12
12
12
12
12
12
12
12
12
12
12
12
12
12
12
12
12
12
12
12
12
12
12
12
12
12
12
12
12
12
12
12
12
12
12
12
12
12
12
12
12
12
12
12
12
12
12
12
12
12
12
12
12
12
12
12
12
12
12
12
12
12
12
12
12
12
12
12
12
12
12
12
12
12
12
12
12
12
12
12
12
12
12
12
12
12
12
12
12
12
12
12
12
12
12
12
12
12
12
POINT_DATA 250
VECTORS displacement float
0.000000000000e+00 0.000000000000e+00 0.000000000000e+00
0.000000000000e+00 0.000000000000e+00 0.000000000000e+00
0.000000000000e+00 0.000000000000e+00 0.000000000000e+00
0.000000000000e+00 0.000000000000e+00 0.000000000000e+00
0.000000000000e+00 0.000000000000e+00 0.000000000000e+00
0.000000000000e+00 0.000000000000e+00 0.000000000000e+00
0.000000000000e+00 0.000000000000e+00 0.000000000000e+00
0.000000000000e+00 0.000000000000e+00 0.000000000000e+00
0.000000000000e+00 0.000000000000e+00 0.000000000000e+00
0.000000000000e+00 0.000000000000e+00 0.000000000000e+00
0.000000000000e+00 0.000000000000e+00 0.000000000000e+00
0.000000000000e+00 0.000000000000e+00 0.000000000000e+00
0.000000000000e+00 0.000000000000e+00 0.000000000000e+00
0.000000000000e+00 0.000000000000e+00 0.000000000000e+00
0.000000000000e+00 0.000000000000e+00 0.000000000000e+00
0.000000000000e+00 0.000000000000e+00 0.000000000000e+00
0.000000000000e+00 0.000000000000e+00 0.000000000000e+00
0.000000000000e+00 0.000000000000e+00 0.000000000000e+00
0.000000000000e+00 0.000000000000e+00 0.000000000000e+00
0.000000000000e+00 0.000000000000e+00 0.000000000000e+00
0.000000000000e+00 0.000000000000e+00 0.000000000000e+00
0.000000000000e+00 0.000000000000e+00 0.000000000000e+00
0.000000000000e+00 0.000000000000e+00 0.000000000000e+00
0.000000000000e+00 0.000000000000e+00 0.000000000000e+00
0.000000000000e+00 0.000000000000e+00 0.000000000000e+00
0.000000000000e+00 0.000000000000e+00 0.000000000000e+00
0.000000000000e+00 0.000000000000e+00 0.000000000000e+00
0.000000000000e+00 0.000000000000e+00 0.000000000000e+00
0.000000000000e+00 0.000000000000e+00 0.000000000000e+00
0.000000000000e+00 0.000000000000e+00 0.000000000000e+00
0.000000000000e+00 0.000000000000e+00 0.000000000000e+00
0.000000000000e+00 0.000000000000e+00 0.000000000000e+00
0.000000000000e+00 0.000000000000e+00 0.000000000000e+00
0.000000000000e+00 0.000000000000e+00 0.000000000000e+00
0.000000000000e+00 0.000000000000e+00 0.000000000000e+00
0.000000000000e+00 0.000000000000e+00 0.000000000000e+00
0.000000000000e+00 0.000000000000e+00 0.000000000000e+00
0.000000000000e+00 0.000000000000e+00 0.000000000000e+00
0.000000000000e+00 0.000000000000e+00 0.000000000000e+00
0.000000000000e+00 0.000000000000e+00 0.000000000000e+00
0.000000000000e+00 0.000000000000e+00 0.000000000000e+00
0.000000000000e+00 0.000000000000e+00 0.000000000000e+00
0.000000000000e+00 0.000000000000e+00 0.000000000000e+00
0.000000000000e+00 0.000000000000e+00 0.000000000000e+00
0.000000000000e+00 0.000000000000e+00 0.000000000000e+00
0.000000000000e+00 0.000000000000e+00 0.000000000000e+00
0.000000000000e+00 0.000000000000e+00 0.000000000000e+00
0.000000000000e+00 0.000000000000e+00 0.000000000000e+00
0.000000000000e+00 0.000000000000e+00 0.000000000000e+00
0.000000000000e+00 0.000000000000e+00 0.000000000000e+00
0.000000000000e+00 0.000000000000e+00 0.000000000000e+00
0.000000000000e+00 0.000000000000e+00 0.000000000000e+00
0.000000000000e+00 0.000000000000e+00 0.000000000000e+00
0.000000000000e+00 0.000000000000e+00 0.000000000000e+00
0.000000000000e+00 0.000000000000e+00 0.000000000000e+00
0.000000000000e+00 0.000000000000e+00 0.000000000000e+00
0.000000000000e+00 0.000000000000e+00 0.000000000000e+00
0.000000000000e+00 0.000000000000e+00 0.000000000000e+00
0.000000000000e+00 0.000000000000e+00 0.000000000000e+00
0.000000000000e+00 0.000000000000e+00 0.000000000000e+00
0.000000000000e+00 0.000000000000e+00 0.000000000000e+00
0.000000000000e+00 0.000000000000e+00 0.000000000000e+00
0.000000000000e+00 0.000000000000e+00 0.000000000000e+00
0.000000000000e+00 0.000000000000e+00 0.000000000000e+00
0.000000000000e+00 0.000000000000e+00 0.000000000000e+00
0.000000000000e+00 0.000000000000e+00 0.000000000000e+00
0.000000000000e+00 0.000000000000e+00 0.000000000000e+00
0.000000000000e+00 0.000000000000e+00 0.000000000000e+00
0.000000000000e+00 0.000000000000e+00 0.000000000000e+00
0.000000000000e+00 0.000000000000e+00 0.000000000000e+00
0.000000000000e+00 0.000000000000e+00 0.000000000000e+00
0.000000000000e+00 0.000000000000e+00 0.000000000000e+00
0.000000000000e+00 0.000000000000e+00 0.000000000000e+00
0.000000000000e+00 0.000000000000e+00 0.000000000000e+00
0.000000000000e+00 0.000000000000e+00 0.000000000000e+00
0.000000000000e+00 0.000000000000e+00 0.000000000000e+00
0.000000000000e+00 0.000000000000e+00 0.000000000000e+00
0.000000000000e+00 0.000000000000e+00 0.000000000000e+00
0.000000000000e+00 0.000000000000e+00 0.000000000000e+00
0.000000000000e+00 0.000000000000e+00 0.000000000000e+00
0.000000000000e+00 0.000000000000e+00 0.000000000000e+00
0.000000000000e+00 0.000000000000e+00 0.000000000000e+00
0.000000000000e+00 0.000000000000e+00 0.000000000000e+00
0.000000000000e+00 0.000000000000e+00 0.000000000000e+00
0.000000000000e+00 0.000000000000e+00 0.000000000000e+00
0.000000000000e+00 0.000000000000e+00 0.000000000000e+00
0.000000000000e+00 0.000000000000e+00 0.000000000000e+00
0.000000000000e+00 0.000000000000e+00 0.000000000000e+00
0.000000000000e+00 0.000000000000e+00 0.000000000000e+00
0.000000000000e+00 0.000000000000e+00 0.000000000000e+00
0.000000000000e+00 0.000000000000e+00 0.000000000000e+00
0.000000000000e+00 0.000000000000e+00 0.000000000000e+00
0.000000000000e+00 0.000000000000e+00 0.000000000000e+00
0.000000000000e+00 0.000000000000e+00 0.000000000000e+00
0.000000000000e+00 0.000000000000e+00 0.000000000000e+00
0.000000000000e+00 0.000000000000e+00 0.000000000000e+00
0.000000000000e+00 0.000000000000e+00 0.000000000000e+00
0.000000000000e+00 0.000000000000e+00 0.000000000000e+00
0.000000000000e+00 0.000000000000e+00 0.000000000000e+00
0.000000000000e+00 0.000000000000e+00 0.000000000000e+00
0.000000000000e+00 0.000000000000e+00 0.000000000000e+00
0.000000000000e+00 0.000000000000e+00 0.000000000000e+00
0.000000000000e+00 0.000000000000e+00 0.000000000000e+00
0.000000000000e+00 0.000000000000e+00 0.000000000000e+00
0.000000000000e+00 0.000000000000e+00 0.000000000000e+00
0.000000000000e+00 0.000000000000e+00 0.000000000000e+00
0.000000000000e+00 0.000000000000e+00 0.000000000000e+00
0.000000000000e+00 0.000000000000e+00 0.000000000000e+00
0.000000000000e+00 0.000000000000e+00 0.000000000000e+00
0.000000000000e+00 0.000000000000e+00 0.000000000000e+00
0.000000000000e+00 0.000000000000e+00 0.000000000000e+00
0.000000000000e+00 0.000000000000e+00 0.000000000000e+00
0.000000000000e+00 0.000000000000e+00 0.000000000000e+00
0.000000000000e+00 0.000000000000e+00 0.000000000000e+00
0.000000000000e+00 0.000000000000e+00 0.000000000000e+00
0.000000000000e+00 0.000000000000e+00 0.000000000000e+00
0.000000000000e+00 0.000000000000e+00 0.000000000000e+00
0.000000000000e+00 0.000000000000e+00 0.000000000000e+00
0.000000000000e+00 0.000000000000e+00 0.000000000000e+00
0.000000000000e+00 0.000000000000e+00 0.000000000000e+00
0.000000000000e+00 0.000000000000e+00 0.000000000000e+00
0.000000000000e+00 0.000000000000e+00 0.000000000000e+00
0.000000000000e+00 0.000000000000e+00 0.000000000000e+00
0.000000000000e+00 0.000000000000e+00 0.000000000000e+00
0.000000000000e+00 0.000000000000e+00 0.000000000000e+00
5.298083286678e-09 5.141637851983e-09 -9.753310576356e-03
3.391588884060e-09 3.555914772712e-09 -9.753328063117e-03
2.429094306173e-10 2.263825961211e-10 -9.753336751431e-03
-2.905769184584e-09 3.555729060908e-09 -9.753327597283e-03
-4.812262726344e-09 5.141265739430e-09 -9.753309644685e-03
3.712546347560e-09 3.235143707242e-09 -9.753328211593e-03
2.982017310132e-09 2.825386096755e-09 -9.753346301466e-03
2.430024627801e-10 6.779300433531e-10 -9.753355246452e-03
-2.496011404449e-09 2.825200229606e-09 -9.753345835631e-03
-3.226539465815e-09 3.234771669844e-09 -9.753327279921e-03
3.831999585678e-10 8.646437657996e-11 -9.753337048381e-03
8.347471065805e-10 8.637154108188e-11 -9.753355394927e-03
2.430954344654e-10 8.627867906049e-11 -9.753364444180e-03
-3.485552587647e-10 8.618576221167e-11 -9.753354929092e-03
1.029928335104e-10 8.609282374259e-11 -9.753336116710e-03
3.712732103836e-09 -3.062214662788e-09 -9.753328042707e-03
2.982203021658e-09 -2.652642664420e-09 -9.753346132581e-03
2.431882209715e-10 -5.053723241434e-10 -9.753355077567e-03
-2.495825605979e-09 -2.652828347356e-09 -9.753345666746e-03
-3.226353720001e-09 -3.062585719689e-09 -9.753327111036e-03
5.298454590207e-09 -4.968708508151e-09 -9.753310238585e-03
3.391960216228e-09 -3.383170988111e-09 -9.753327725346e-03
2.432809572034e-10 -5.382453404322e-11 -9.753336413660e-03
-2.905397477652e-09 -3.383356818136e-09 -9.753327259511e-03
-4.811890995976e-09 -4.969079481118e-09 -9.753309306914e-03
1.312399132052e-08 1.304475315329e-08 -9.753310170994e-03
1.051938553056e-08 1.133482785718e-08 -9.753326446443e-03
1.217921941617e-10 7.695118957862e-09 -9.753334243625e-03
-1.027580066794e-08 1.133464192549e-08 -9.753325980609e-03
-1.288040581988e-08 1.304438075364e-08 -9.753309239323e-03
1.141425220671e-08 1.044014745785e-08 -9.753326594918e-03
1.033776672340e-08 1.025834261607e-08 -9.753343074100e-03
1.218852202546e-10 8.211371117752e-09 -9.753350979708e-03
-1.009399565298e-08 1.025815672171e-08 -9.753342608265e-03
-1.117048034051e-08 1.043977539832e-08 -9.753325663247e-03
7.774729175375e-09 4.255410710544e-11 -9.753334540575e-03
8.290981086484e-09 4.246127731987e-11 -9.753351128183e-03
1.219781777585e-10 4.236841744985e-11 -9.753359228644e-03
-8.047024077121e-09 4.227550369707e-11 -9.753350662348e-03
-7.530771374394e-09 4.218256569721e-11 -9.753333608904e-03
1.141443790300e-08 -1.035503906588e-08 -9.753326426033e-03
1.033795244029e-08 -1.017341983435e-08 -9.753342905214e-03
1.220709825301e-10 -8.126634045030e-09 -9.753350810823e-03
-1.009380984752e-08 -1.017360548508e-08 -9.753342439380e-03
-1.117029452148e-08 -1.035541008850e-08 -9.753325494362e-03
1.312436253516e-08 -1.295964452734e-08 -9.753309833223e-03
1.051975686991e-08 -1.124990478719e-08 -9.753326108672e-03
1.221637235664e-10 -7.610381596203e-09 -9.753333905854e-03
-1.027542895032e-08 -1.125009039844e-08 -9.753325642837e-03
-1.288003397768e-08 -1.296001520897e-08 -9.753308901552e-03
1.917497014101e-08 1.917293913383e-08 -9.753314484344e-03
1.638445074321e-08 1.715362080751e-08 -9.753327720387e-03
6.748732695802e-13 1.301081523737e-08 -9.753333045144e-03
-1.638310067888e-08 1.715343469150e-08 -9.753327254553e-03
-1.917361943063e-08 1.917256649931e-08 -9.753313552674e-03
1.715583802401e-08 1.638241974632e-08 -9.753327868862e-03
1.631785881760e-08 1.631564178787e-08 -9.753340677305e-03
7.679216493954e-13 1.425326826462e-08 -9.753345704313e-03
-1.631632252783e-08 1.631545589860e-08 -9.753340211471e-03
-1.715430093142e-08 1.638204770817e-08 -9.753326937192e-03
1.301321839646e-08 -1.356183332691e-12 -9.753333342093e-03
1.425567116312e-08 -1.449007057317e-12 -9.753345852788e-03
8.608783312886e-13 -1.541866875564e-12 -9.753350837539e-03
-1.425394892218e-08 -1.634774608745e-12 -9.753345386954e-03
-1.301149532606e-08 -1.727719444664e-12 -9.753332410423e-03
1.715602366617e-08 -1.638513199190e-08 -9.753327699977e-03
1.631804454407e-08 -1.631853963607e-08 -9.753340508420e-03
9.536904392143e-13 -1.425635181531e-08 -9.753345535428e-03
-1.631613671881e-08 -1.631872528580e-08 -9.753340042586e-03
-1.715411504158e-08 -1.638550303069e-08 -9.753326768307e-03
1.917534128662e-08 -1.917565113608e-08 -9.753314146573e-03
1.638482210152e-08 -1.715651836456e-08 -9.753327382616e-03
1.046408562000e-12 -1.301389848417e-08 -9.753332707373e-03
-1.638272896669e-08 -1.715670378804e-08 -9.753326916782e-03
-1.917324750341e-08 -1.917602158421e-08 -9.753313214904e-03
2.553022325688e-08 2.560539918867e-08 -9.753320364398e-03
2.032074448433e-08 2.313141219729e-08 -9.753330059345e-03
-1.204420648011e-10 1.840593998435e-08 -9.753332426169e-03
-2.056162852813e-08 2.313122606241e-08 -9.753329593512e-03
-2.577110699763e-08 2.560502664778e-08 -9.753319432729e-03
2.305642241358e-08 2.039592034333e-08 -9.753330207820e-03
2.024747413715e-08 2.032246397061e-08 -9.753338685077e-03
-1.203490123989e-10 1.807323333690e-08 -9.753340238638e-03
-2.048817196634e-08 2.032227808521e-08 -9.753338219244e-03
-2.329711982163e-08 2.039554833624e-08 -9.753329276151e-03
1.833113617339e-08 -4.526633256242e-11 -9.753332723119e-03
1.799842937476e-08 -4.535915824228e-11 -9.753340387112e-03
-1.202560508464e-10 -4.545201375149e-11 -9.753341544830e-03
-1.823894123885e-08 -4.554492077628e-11 -9.753339921279e-03
-1.857164756761e-08 -4.563786355913e-11 -9.753331791449e-03
2.305660805998e-08 -2.048645297441e-08 -9.753330038935e-03
2.024765986960e-08 -2.041318221196e-08 -9.753338516192e-03
-1.201632366927e-10 -1.816413727351e-08 -9.753340069753e-03
-2.048798615037e-08 -2.041336785687e-08 -9.753338050359e-03
-2.329693391987e-08 -2.048682403761e-08 -9.753329107266e-03
2.553059444962e-08 -2.569593170780e-08 -9.753320026627e-03
2.032111586574e-08 -2.322213027761e-08 -9.753329721575e-03
-1.200705224905e-10 -1.849684374991e-08 -9.753332088399e-03
-2.056125682056e-08 -2.322231568010e-08 -9.753329255741e-03
-2.577073509448e-08 -2.569630224307e-08 -9.753319094958e-03
3.049781303334e-08 3.065019590108e-08 -9.753321833356e-03
2.246510388670e-08 2.746221210388e-08 -9.753328902010e-03
-2.415587155086e-10 2.208843743148e-08 -9.753328966093e-03
-2.294822171094e-08 2.746202594250e-08 -9.753328436177e-03
-3.098093116406e-08 3.064982343257e-08 -9.753320901687e-03
2.731001535320e-08 2.261748651420e-08 -9.753329050485e-03
2.195927780524e-08 2.211147441918e-08 -9.753334121314e-03
-2.414656772200e-10 1.943944164768e-08 -9.753332922098e-03
-2.244220943167e-08 2.211128849798e-08 -9.753333655481e-03
-2.779294716651e-08 2.261711448190e-08 -9.753328118816e-03
2.193642666346e-08 -8.917638218063e-11 -9.753329263042e-03
1.928743091818e-08 -8.926920979583e-11 -9.753333070572e-03
-2.413727374375e-10 -8.936206543822e-11 -9.753331286732e-03
-1.977017659429e-08 -8.945497027671e-11 -9.753332604738e-03
-2.241917246796e-08 -8.954790720725e-11 -9.753328331374e-03
2.731020100373e-08 -2.279583941641e-08 -9.753328881600e-03
2.195946353908e-08 -2.229001293484e-08 -9.753333952429e-03
-2.412798998122e-10 -1.961816586541e-08 -9.753332753213e-03
-2.244202360422e-08 -2.229019853654e-08 -9.753333486596e-03
-2.779276125262e-08 -2.279621043848e-08 -9.753327949931e-03
3.049818426978e-08 -3.082854890252e-08 -9.753321495585e-03
2.246547526792e-08 -2.764075069046e-08 -9.753328564240e-03
-2.411871674771e-10 -2.226716170768e-08 -9.753328628323e-03
-2.294784998104e-08 -2.764093604678e-08 -9.753328098406e-03
-3.098055927201e-08 -3.082891950471e-08 -9.753320563917e-03
SCALARS displacement_magnitude float 1
LOOKUP_TABLE default
0.000000000000e+00
0.000000000000e+00
0.000000000000e+00
0.000000000000e+00
0.000000000000e+00
0.000000000000e+00
0.000000000000e+00
0.000000000000e+00
0.000000000000e+00
0.000000000000e+00
0.000000000000e+00
0.000000000000e+00
0.000000000000e+00
0.000000000000e+00
0.000000000000e+00
0.000000000000e+00
0.000000000000e+00
0.000000000000e+00
0.000000000000e+00
0.000000000000e+00
0.000000000000e+00
0.000000000000e+00
0.000000000000e+00
0.000000000000e+00
0.000000000000e+00
0.000000000000e+00
0.000000000000e+00
0.000000000000e+00
0.000000000000e+00
0.000000000000e+00
0.000000000000e+00
0.000000000000e+00
0.000000000000e+00
0.000000000000e+00
0.000000000000e+00
0.000000000000e+00
0.000000000000e+00
0.000000000000e+00
0.000000000000e+00
0.000000000000e+00
0.000000000000e+00
0.000000000000e+00
0.000000000000e+00
0.000000000000e+00
0.000000000000e+00
0.000000000000e+00
0.000000000000e+00
0.000000000000e+00
0.000000000000e+00
0.000000000000e+00
0.000000000000e+00
0.000000000000e+00
0.000000000000e+00
0.000000000000e+00
0.000000000000e+00
0.000000000000e+00
0.000000000000e+00
0.000000000000e+00
0.000000000000e+00
0.000000000000e+00
0.000000000000e+00
0.000000000000e+00
0.000000000000e+00
0.000000000000e+00
0.000000000000e+00
0.000000000000e+00
0.000000000000e+00
0.000000000000e+00
0.000000000000e+00
0.000000000000e+00
0.000000000000e+00
0.000000000000e+00
0.000000000000e+00
0.000000000000e+00
0.000000000000e+00
0.000000000000e+00
0.000000000000e+00
0.000000000000e+00
0.000000000000e+00
0.000000000000e+00
0.000000000000e+00
0.000000000000e+00
0.000000000000e+00
0.000000000000e+00
0.000000000000e+00
0.000000000000e+00
0.000000000000e+00
0.000000000000e+00
0.000000000000e+00
0.000000000000e+00
0.000000000000e+00
0.000000000000e+00
0.000000000000e+00
0.000000000000e+00
0.000000000000e+00
0.000000000000e+00
0.000000000000e+00
0.000000000000e+00
0.000000000000e+00
0.000000000000e+00
0.000000000000e+00
0.000000000000e+00
0.000000000000e+00
0.000000000000e+00
0.000000000000e+00
0.000000000000e+00
0.000000000000e+00
0.000000000000e+00
0.000000000000e+00
0.000000000000e+00
0.000000000000e+00
0.000000000000e+00
0.000000000000e+00
0.000000000000e+00
0.000000000000e+00
0.000000000000e+00
0.000000000000e+00
0.000000000000e+00
0.000000000000e+00
0.000000000000e+00
0.000000000000e+00
0.000000000000e+00
0.000000000000e+00
0.000000000000e+00
0.000000000000e+00
9.753310576359e-03
9.753328063119e-03
9.753336751431e-03
9.753327597284e-03
9.753309644688e-03
9.753328211594e-03
9.753346301467e-03
9.753355246452e-03
9.753345835632e-03
9.753327279922e-03
9.753337048381e-03
9.753355394927e-03
9.753364444180e-03
9.753354929092e-03
9.753336116710e-03
9.753328042708e-03
9.753346132582e-03
9.753355077567e-03
9.753345666747e-03
9.753327111037e-03
9.753310238588e-03
9.753327725347e-03
9.753336413660e-03
9.753327259512e-03
9.753309306917e-03
9.753310171012e-03
9.753326446455e-03
9.753334243628e-03
9.753325980621e-03
9.753309239340e-03
9.753326594931e-03
9.753343074111e-03
9.753350979712e-03
9.753342608276e-03
9.753325663259e-03
9.753334540578e-03
9.753351128186e-03
9.753359228644e-03
9.753350662351e-03
9.753333608907e-03
9.753326426045e-03
9.753342905225e-03
9.753350810826e-03
9.753342439390e-03
9.753325494374e-03
9.753309833240e-03
9.753326108684e-03
9.753333905857e-03
9.753325642849e-03
9.753308901569e-03
9.753314484382e-03
9.753327720416e-03
9.753333045152e-03
9.753327254582e-03
9.753313552712e-03
9.753327868891e-03
9.753340677332e-03
9.753345704324e-03
9.753340211498e-03
9.753326937221e-03
9.753333342102e-03
9.753345852798e-03
9.753350837539e-03
9.753345386964e-03
9.753332410432e-03
9.753327700006e-03
9.753340508447e-03
9.753345535439e-03
9.753340042613e-03
9.753326768336e-03
9.753314146611e-03
9.753327382645e-03
9.753332707382e-03
9.753326916811e-03
9.753313214941e-03
9.753320364465e-03
9.753330059394e-03
9.753332426187e-03
9.753329593561e-03
9.753319432797e-03
9.753330207869e-03
9.753338685119e-03
9.753340238655e-03
9.753338219286e-03
9.753329276200e-03
9.753332723136e-03
9.753340387129e-03
9.753341544830e-03
9.753339921296e-03
9.753331791467e-03
9.753330038984e-03
9.753338516235e-03
9.753340069770e-03
9.753338050402e-03
9.753329107316e-03
9.753320026695e-03
9.753329721624e-03
9.753332088416e-03
9.753329255791e-03
9.753319095026e-03
9.753321833451e-03
9.753328902074e-03
9.753328966118e-03
9.753328436242e-03
9.753320901784e-03
9.753329050549e-03
9.753334121364e-03
9.753332922117e-03
9.753333655532e-03
9.753328118882e-03
9.753329263067e-03
9.753333070591e-03
9.753331286732e-03
9.753332604758e-03
9.753328331399e-03
9.753328881665e-03
9.753333952480e-03
9.753332753232e-03
9.753333486647e-03
9.753327949998e-03
9.753321495682e-03
9.753328564305e-03
9.753328628348e-03
9.753328098472e-03
9.753320564015e-03
CELL_DATA 128
SCALARS displacement_magnitude float 1
LOOKUP_TABLE default
0.000000000000e+00
0.000000000000e+00
0.000000000000e+00
0.000000000000e+00
0.000000000000e+00
0.000000000000e+00
0.000000000000e+00
0.000000000000e+00
0.000000000000e+00
0.000000000000e+00
0.000000000000e+00
0.000000000000e+00
0.000000000000e+00
0.000000000000e+00
0.000000000000e+00
0.000000000000e+00
0.000000000000e+00
0.000000000000e+00
0.000000000000e+00
0.000000000000e+00
0.000000000000e+00
0.000000000000e+00
0.000000000000e+00
0.000000000000e+00
0.000000000000e+00
0.000000000000e+00
0.000000000000e+00
0.000000000000e+00
0.000000000000e+00
0.000000000000e+00
0.000000000000e+00
0.000000000000e+00
0.000000000000e+00
0.000000000000e+00
0.000000000000e+00
0.000000000000e+00
0.000000000000e+00
0.000000000000e+00
0.000000000000e+00
0.000000000000e+00
0.000000000000e+00
0.000000000000e+00
0.000000000000e+00
0.000000000000e+00
0.000000000000e+00
0.000000000000e+00
0.000000000000e+00
0.000000000000e+00
0.000000000000e+00
0.000000000000e+00
0.000000000000e+00
0.000000000000e+00
0.000000000000e+00
0.000000000000e+00
0.000000000000e+00
0.000000000000e+00
0.000000000000e+00
0.000000000000e+00
0.000000000000e+00
0.000000000000e+00
0.000000000000e+00
0.000000000000e+00
0.000000000000e+00
0.000000000000e+00
9.753327429881e-03
9.753340138297e-03
9.753339905379e-03
9.753326731128e-03
9.753340286772e-03
9.753353224710e-03
9.753352991792e-03
9.753339588019e-03
9.753340202329e-03
9.753353140267e-03
9.753352907350e-03
9.753339503576e-03
9.753327176552e-03
9.753339884969e-03
9.753339652051e-03
9.753326477799e-03
9.753327129691e-03
9.753337736391e-03
9.753337503474e-03
9.753326430939e-03
9.753337884866e-03
9.753348435331e-03
9.753348202414e-03
9.753337186114e-03
9.753337800424e-03
9.753348350888e-03
9.753348117971e-03
9.753337101671e-03
9.753326876363e-03
9.753337483063e-03
9.753337250146e-03
9.753326177610e-03
9.753328758484e-03
9.753336069572e-03
9.753335836656e-03
9.753328059732e-03
9.753336218047e-03
9.753342990966e-03
9.753342758049e-03
9.753335519296e-03
9.753336133605e-03
9.753342906523e-03
9.753342673607e-03
9.753335434853e-03
9.753328505156e-03
9.753335816245e-03
9.753335583328e-03
9.753327806404e-03
9.753329153036e-03
9.753333290129e-03
9.753333057212e-03
9.753328454286e-03
9.753333438603e-03
9.753336532067e-03
9.753336299151e-03
9.753332739853e-03
9.753333354161e-03
9.753336447625e-03
9.753336214708e-03
9.753332655410e-03
9.753328899708e-03
9.753333036801e-03
9.753332803885e-03
9.753328200958e-03
SCALARS engineering_strain_norm float 1
LOOKUP_TABLE default
0.000000000000e+00
0.000000000000e+00
0.000000000000e+00
0.000000000000e+00
0.000000000000e+00
0.000000000000e+00
0.000000000000e+00
0.000000000000e+00
0.000000000000e+00
0.000000000000e+00
0.000000000000e+00
0.000000000000e+00
0.000000000000e+00
0.000000000000e+00
0.000000000000e+00
0.000000000000e+00
0.000000000000e+00
0.000000000000e+00
0.000000000000e+00
0.000000000000e+00
0.000000000000e+00
0.000000000000e+00
0.000000000000e+00
0.000000000000e+00
0.000000000000e+00
0.000000000000e+00
0.000000000000e+00
0.000000000000e+00
0.000000000000e+00
0.000000000000e+00
0.000000000000e+00
0.000000000000e+00
0.000000000000e+00
0.000000000000e+00
0.000000000000e+00
0.000000000000e+00
0.000000000000e+00
0.000000000000e+00
0.000000000000e+00
0.000000000000e+00
0.000000000000e+00
0.000000000000e+00
0.000000000000e+00
0.000000000000e+00
0.000000000000e+00
0.000000000000e+00
0.000000000000e+00
0.000000000000e+00
0.000000000000e+00
0.000000000000e+00
0.000000000000e+00
0.000000000000e+00
0.000000000000e+00
0.000000000000e+00
0.000000000000e+00
0.000000000000e+00
0.000000000000e+00
0.000000000000e+00
0.000000000000e+00
0.000000000000e+00
0.000000000000e+00
0.000000000000e+00
0.000000000000e+00
0.000000000000e+00
4.647903250389e-08
7.796523108685e-08
7.796522539394e-08
4.647902855466e-08
7.796523065057e-08
9.275506502663e-08
9.275505934596e-08
7.796522618856e-08
7.796522862943e-08
9.275506295225e-08
9.275505732692e-08
7.796522413005e-08
4.647903104897e-08
7.796522940566e-08
7.796522383737e-08
4.647902710873e-08
4.898435432385e-08
1.169909881461e-07
1.169909834433e-07
4.898435557001e-08
1.169909881312e-07
1.621074227405e-07
1.621074176294e-07
1.169909834966e-07
1.169909864119e-07
1.621074208661e-07
1.621074157655e-07
1.169909817692e-07
4.898435480516e-08
1.169909864889e-07
1.169909818130e-07
4.898435600077e-08
5.251575235916e-08
1.514839973066e-07
1.514839948956e-07
5.251575670865e-08
1.514839977553e-07
2.139410450531e-07
2.139410416550e-07
1.514839939612e-07
1.514839968584e-07
2.139410437765e-07
2.139410404081e-07
1.514839931041e-07
5.251575398511e-08
1.514839959704e-07
1.514839935717e-07
5.251575830418e-08
7.024002253897e-08
1.871447183150e-07
1.871447186231e-07
7.024001974489e-08
1.871447196470e-07
2.548478371123e-07
2.548478362559e-07
1.871447158618e-07
1.871447197575e-07
2.548478368203e-07
2.548478359834e-07
1.871447159829e-07
7.024002155260e-08
1.871447170412e-07
1.871447172855e-07
7.024001871731e-08
SCALARS von_mises float 1
LOOKUP_TABLE default
0.000000000000e+00
0.000000000000e+00
0.000000000000e+00
0.000000000000e+00
0.000000000000e+00
0.000000000000e+00
0.000000000000e+00
0.000000000000e+00
0.000000000000e+00
0.000000000000e+00
0.000000000000e+00
0.000000000000e+00
0.000000000000e+00
0.000000000000e+00
0.000000000000e+00
0.000000000000e+00
0.000000000000e+00
0.000000000000e+00
0.000000000000e+00
0.000000000000e+00
0.000000000000e+00
0.000000000000e+00
0.000000000000e+00
0.000000000000e+00
0.000000000000e+00
0.000000000000e+00
0.000000000000e+00
0.000000000000e+00
0.000000000000e+00
0.000000000000e+00
0.000000000000e+00
0.000000000000e+00
0.000000000000e+00
0.000000000000e+00
0.000000000000e+00
0.000000000000e+00
0.000000000000e+00
0.000000000000e+00
0.000000000000e+00
0.000000000000e+00
0.000000000000e+00
0.000000000000e+00
0.000000000000e+00
0.000000000000e+00
0.000000000000e+00
0.000000000000e+00
0.000000000000e+00
0.000000000000e+00
0.000000000000e+00
0.000000000000e+00
0.000000000000e+00
0.000000000000e+00
0.000000000000e+00
0.000000000000e+00
0.000000000000e+00
0.000000000000e+00
0.000000000000e+00
0.000000000000e+00
0.000000000000e+00
0.000000000000e+00
0.000000000000e+00
0.000000000000e+00
0.000000000000e+00
0.000000000000e+00
3.754388761575e-03
6.929796460465e-03
6.929795946332e-03
3.754388319281e-03
6.929796423838e-03
8.512740569971e-03
8.512740107720e-03
6.929796009372e-03
6.929796242186e-03
8.512740403004e-03
8.512739944257e-03
6.929795822180e-03
3.754388598724e-03
6.929796303883e-03
6.929795799317e-03
3.754388157561e-03
2.735262045759e-03
9.854689367065e-03
9.854688920293e-03
2.735262148212e-03
9.854689386739e-03
1.390403048645e-02
1.390403001986e-02
9.854688883948e-03
9.854689221290e-03
1.390403031591e-02
1.390402984924e-02
9.854688716607e-03
2.735262086204e-03
9.854689188877e-03
9.854688741376e-03
2.735262183257e-03
1.776961258538e-03
1.223634263169e-02
1.223634232680e-02
1.776961828310e-03
1.223634270618e-02
1.723809382686e-02
1.723809342857e-02
1.223634216777e-02
1.223634259374e-02
1.723809367644e-02
1.723809328252e-02
1.223634205964e-02
1.776961470962e-03
1.223634243906e-02
1.223634213663e-02
1.776962035069e-03
5.258695953276e-03
1.599133364324e-02
1.599133362998e-02
5.258695523795e-03
1.599133378029e-02
2.112235861688e-02
2.112235848621e-02
1.599133334515e-02
1.599133377509e-02
2.112235856867e-02
2.112235844349e-02
1.599133334211e-02
5.258695799637e-03
1.599133349427e-02
1.599133347655e-02
5.258695369589e-03
SCALARS sdf_gap float 1
LOOKUP_TABLE default
0.000000000000e+00
0.000000000000e+00
0.000000000000e+00
0.000000000000e+00
0.000000000000e+00
0.000000000000e+00
0.000000000000e+00
0.000000000000e+00
0.000000000000e+00
0.000000000000e+00
0.000000000000e+00
0.000000000000e+00
0.000000000000e+00
0.000000000000e+00
0.000000000000e+00
0.000000000000e+00
0.000000000000e+00
0.000000000000e+00
0.000000000000e+00
0.000000000000e+00
0.000000000000e+00
0.000000000000e+00
0.000000000000e+00
0.000000000000e+00
0.000000000000e+00
0.000000000000e+00
0.000000000000e+00
0.000000000000e+00
0.000000000000e+00
0.000000000000e+00
0.000000000000e+00
0.000000000000e+00
0.000000000000e+00
0.000000000000e+00
0.000000000000e+00
0.000000000000e+00
0.000000000000e+00
0.000000000000e+00
0.000000000000e+00
0.000000000000e+00
0.000000000000e+00
0.000000000000e+00
0.000000000000e+00
0.000000000000e+00
0.000000000000e+00
0.000000000000e+00
0.000000000000e+00
0.000000000000e+00
0.000000000000e+00
0.000000000000e+00
0.000000000000e+00
0.000000000000e+00
0.000000000000e+00
0.000000000000e+00
0.000000000000e+00
0.000000000000e+00
0.000000000000e+00
0.000000000000e+00
0.000000000000e+00
0.000000000000e+00
0.000000000000e+00
0.000000000000e+00
0.000000000000e+00
0.000000000000e+00
5.246671711867e-03
5.246658409383e-03
5.246658642301e-03
5.246672410620e-03
5.246658260908e-03
5.246644653244e-03
5.246644886161e-03
5.246658959661e-03
5.246658345351e-03
5.246644737686e-03
5.246644970604e-03
5.246659044104e-03
5.246671965195e-03
5.246658662712e-03
5.246658895629e-03
5.246672663948e-03
0.000000000000e+00
0.000000000000e+00
0.000000000000e+00
0.000000000000e+00
0.000000000000e+00
0.000000000000e+00
0.000000000000e+00
0.000000000000e+00
0.000000000000e+00
0.000000000000e+00
0.000000000000e+00
0.000000000000e+00
0.000000000000e+00
0.000000000000e+00
0.000000000000e+00
0.000000000000e+00
0.000000000000e+00
0.000000000000e+00
0.000000000000e+00
0.000000000000e+00
0.000000000000e+00
0.000000000000e+00
0.000000000000e+00
0.000000000000e+00
0.000000000000e+00
0.000000000000e+00
0.000000000000e+00
0.000000000000e+00
0.000000000000e+00
0.000000000000e+00
0.000000000000e+00
0.000000000000e+00
0.000000000000e+00
0.000000000000e+00
0.000000000000e+00
0.000000000000e+00
0.000000000000e+00
0.000000000000e+00
0.000000000000e+00
0.000000000000e+00
0.000000000000e+00
0.000000000000e+00
0.000000000000e+00
0.000000000000e+00
0.000000000000e+00
0.000000000000e+00
0.000000000000e+00
0.000000000000e+00
SCALARS contact_pressure float 1
LOOKUP_TABLE default
0.000000000000e+00
0.000000000000e+00
0.000000000000e+00
0.000000000000e+00
0.000000000000e+00
0.000000000000e+00
0.000000000000e+00
0.000000000000e+00
0.000000000000e+00
0.000000000000e+00
0.000000000000e+00
0.000000000000e+00
0.000000000000e+00
0.000000000000e+00
0.000000000000e+00
0.000000000000e+00
0.000000000000e+00
0.000000000000e+00
0.000000000000e+00
0.000000000000e+00
0.000000000000e+00
0.000000000000e+00
0.000000000000e+00
0.000000000000e+00
0.000000000000e+00
0.000000000000e+00
0.000000000000e+00
0.000000000000e+00
0.000000000000e+00
0.000000000000e+00
0.000000000000e+00
0.000000000000e+00
0.000000000000e+00
0.000000000000e+00
0.000000000000e+00
0.000000000000e+00
0.000000000000e+00
0.000000000000e+00
0.000000000000e+00
0.000000000000e+00
0.000000000000e+00
0.000000000000e+00
0.000000000000e+00
0.000000000000e+00
0.000000000000e+00
0.000000000000e+00
0.000000000000e+00
0.000000000000e+00
0.000000000000e+00
0.000000000000e+00
0.000000000000e+00
0.000000000000e+00
0.000000000000e+00
0.000000000000e+00
0.000000000000e+00
0.000000000000e+00
0.000000000000e+00
0.000000000000e+00
0.000000000000e+00
0.000000000000e+00
0.000000000000e+00
0.000000000000e+00
0.000000000000e+00
0.000000000000e+00
0.000000000000e+00
0.000000000000e+00
0.000000000000e+00
0.000000000000e+00
0.000000000000e+00
0.000000000000e+00
0.000000000000e+00
0.000000000000e+00
0.000000000000e+00
0.000000000000e+00
0.000000000000e+00
0.000000000000e+00
0.000000000000e+00
0.000000000000e+00
0.000000000000e+00
0.000000000000e+00
0.000000000000e+00
0.000000000000e+00
0.000000000000e+00
0.000000000000e+00
0.000000000000e+00
0.000000000000e+00
0.000000000000e+00
0.000000000000e+00
0.000000000000e+00
0.000000000000e+00
0.000000000000e+00
0.000000000000e+00
0.000000000000e+00
0.000000000000e+00
0.000000000000e+00
0.000000000000e+00
0.000000000000e+00
0.000000000000e+00
0.000000000000e+00
0.000000000000e+00
0.000000000000e+00
0.000000000000e+00
0.000000000000e+00
0.000000000000e+00
0.000000000000e+00
0.000000000000e+00
0.000000000000e+00
0.000000000000e+00
0.000000000000e+00
0.000000000000e+00
0.000000000000e+00
0.000000000000e+00
0.000000000000e+00
0.000000000000e+00
0.000000000000e+00
0.000000000000e+00
0.000000000000e+00
0.000000000000e+00
0.000000000000e+00
0.000000000000e+00
0.000000000000e+00
0.000000000000e+00
0.000000000000e+00
0.000000000000e+00
0.000000000000e+00
0.000000000000e+00
0.000000000000e+00
0.000000000000e+00
SCALARS active_contact float 1
LOOKUP_TABLE default
0.000000000000e+00
0.000000000000e+00
0.000000000000e+00
0.000000000000e+00
0.000000000000e+00
0.000000000000e+00
0.000000000000e+00
0.000000000000e+00
0.000000000000e+00
0.000000000000e+00
0.000000000000e+00
0.000000000000e+00
0.000000000000e+00
0.000000000000e+00
0.000000000000e+00
0.000000000000e+00
0.000000000000e+00
0.000000000000e+00
0.000000000000e+00
0.000000000000e+00
0.000000000000e+00
0.000000000000e+00
0.000000000000e+00
0.000000000000e+00
0.000000000000e+00
0.000000000000e+00
0.000000000000e+00
0.000000000000e+00
0.000000000000e+00
0.000000000000e+00
0.000000000000e+00
0.000000000000e+00
0.000000000000e+00
0.000000000000e+00
0.000000000000e+00
0.000000000000e+00
0.000000000000e+00
0.000000000000e+00
0.000000000000e+00
0.000000000000e+00
0.000000000000e+00
0.000000000000e+00
0.000000000000e+00
0.000000000000e+00
0.000000000000e+00
0.000000000000e+00
0.000000000000e+00
0.000000000000e+00
0.000000000000e+00
0.000000000000e+00
0.000000000000e+00
0.000000000000e+00
0.000000000000e+00
0.000000000000e+00
0.000000000000e+00
0.000000000000e+00
0.000000000000e+00
0.000000000000e+00
0.000000000000e+00
0.000000000000e+00
0.000000000000e+00
0.000000000000e+00
0.000000000000e+00
0.000000000000e+00
0.000000000000e+00
0.000000000000e+00
0.000000000000e+00
0.000000000000e+00
0.000000000000e+00
0.000000000000e+00
0.000000000000e+00
0.000000000000e+00
0.000000000000e+00
0.000000000000e+00
0.000000000000e+00
0.000000000000e+00
0.000000000000e+00
0.000000000000e+00
0.000000000000e+00
0.000000000000e+00
0.000000000000e+00
0.000000000000e+00
0.000000000000e+00
0.000000000000e+00
0.000000000000e+00
0.000000000000e+00
0.000000000000e+00
0.000000000000e+00
0.000000000000e+00
0.000000000000e+00
0.000000000000e+00
0.000000000000e+00
0.000000000000e+00
0.000000000000e+00
0.000000000000e+00
0.000000000000e+00
0.000000000000e+00
0.000000000000e+00
0.000000000000e+00
0.000000000000e+00
0.000000000000e+00
0.000000000000e+00
0.000000000000e+00
0.000000000000e+00
0.000000000000e+00
0.000000000000e+00
0.000000000000e+00
0.000000000000e+00
0.000000000000e+00
0.000000000000e+00
0.000000000000e+00
0.000000000000e+00
0.000000000000e+00
0.000000000000e+00
0.000000000000e+00
0.000000000000e+00
0.000000000000e+00
0.000000000000e+00
0.000000000000e+00
0.000000000000e+00
0.000000000000e+00
0.000000000000e+00
0.000000000000e+00
0.000000000000e+00
0.000000000000e+00
0.000000000000e+00
0.000000000000e+00
0.000000000000e+00
