# vtk DataFile Version 3.0
SFC long-time C3D8 dynamic frame 70 t=1.400000000000e+00
ASCII
DATASET UNSTRUCTURED_GRID
POINTS 250 float
-2.500000000000e-01 -2.500000000000e-01 0.000000000000e+00
-1.250000000000e-01 -2.500000000000e-01 0.000000000000e+00
0.000000000000e+00 -2.500000000000e-01 0.000000000000e+00
1.250000000000e-01 -2.500000000000e-01 0.000000000000e+00
2.500000000000e-01 -2.500000000000e-01 0.000000000000e+00
-2.500000000000e-01 -1.250000000000e-01 0.000000000000e+00
-1.250000000000e-01 -1.250000000000e-01 0.000000000000e+00
0.000000000000e+00 -1.250000000000e-01 0.000000000000e+00
1.250000000000e-01 -1.250000000000e-01 0.000000000000e+00
2.500000000000e-01 -1.250000000000e-01 0.000000000000e+00
-2.500000000000e-01 0.000000000000e+00 0.000000000000e+00
-1.250000000000e-01 0.000000000000e+00 0.000000000000e+00
0.000000000000e+00 0.000000000000e+00 0.000000000000e+00
1.250000000000e-01 0.000000000000e+00 0.000000000000e+00
2.500000000000e-01 0.000000000000e+00 0.000000000000e+00
-2.500000000000e-01 1.250000000000e-01 0.000000000000e+00
-1.250000000000e-01 1.250000000000e-01 0.000000000000e+00
0.000000000000e+00 1.250000000000e-01 0.000000000000e+00
1.250000000000e-01 1.250000000000e-01 0.000000000000e+00
2.500000000000e-01 1.250000000000e-01 0.000000000000e+00
-2.500000000000e-01 2.500000000000e-01 0.000000000000e+00
-1.250000000000e-01 2.500000000000e-01 0.000000000000e+00
0.000000000000e+00 2.500000000000e-01 0.000000000000e+00
1.250000000000e-01 2.500000000000e-01 0.000000000000e+00
2.500000000000e-01 2.500000000000e-01 0.000000000000e+00
-2.500000000000e-01 -2.500000000000e-01 6.000000000000e-02
-1.250000000000e-01 -2.500000000000e-01 6.000000000000e-02
0.000000000000e+00 -2.500000000000e-01 6.000000000000e-02
1.250000000000e-01 -2.500000000000e-01 6.000000000000e-02
2.500000000000e-01 -2.500000000000e-01 6.000000000000e-02
-2.500000000000e-01 -1.250000000000e-01 6.000000000000e-02
-1.250000000000e-01 -1.250000000000e-01 6.000000000000e-02
0.000000000000e+00 -1.250000000000e-01 6.000000000000e-02
1.250000000000e-01 -1.250000000000e-01 6.000000000000e-02
2.500000000000e-01 -1.250000000000e-01 6.000000000000e-02
-2.500000000000e-01 0.000000000000e+00 6.000000000000e-02
-1.250000000000e-01 0.000000000000e+00 6.000000000000e-02
0.000000000000e+00 0.000000000000e+00 6.000000000000e-02
1.250000000000e-01 0.000000000000e+00 6.000000000000e-02
2.500000000000e-01 0.000000000000e+00 6.000000000000e-02
-2.500000000000e-01 1.250000000000e-01 6.000000000000e-02
-1.250000000000e-01 1.250000000000e-01 6.000000000000e-02
0.000000000000e+00 1.250000000000e-01 6.000000000000e-02
1.250000000000e-01 1.250000000000e-01 6.000000000000e-02
2.500000000000e-01 1.250000000000e-01 6.000000000000e-02
-2.500000000000e-01 2.500000000000e-01 6.000000000000e-02
-1.250000000000e-01 2.500000000000e-01 6.000000000000e-02
0.000000000000e+00 2.500000000000e-01 6.000000000000e-02
1.250000000000e-01 2.500000000000e-01 6.000000000000e-02
2.500000000000e-01 2.500000000000e-01 6.000000000000e-02
-2.500000000000e-01 -2.500000000000e-01 1.200000000000e-01
-1.250000000000e-01 -2.500000000000e-01 1.200000000000e-01
0.000000000000e+00 -2.500000000000e-01 1.200000000000e-01
1.250000000000e-01 -2.500000000000e-01 1.200000000000e-01
2.500000000000e-01 -2.500000000000e-01 1.200000000000e-01
-2.500000000000e-01 -1.250000000000e-01 1.200000000000e-01
-1.250000000000e-01 -1.250000000000e-01 1.200000000000e-01
0.000000000000e+00 -1.250000000000e-01 1.200000000000e-01
1.250000000000e-01 -1.250000000000e-01 1.200000000000e-01
2.500000000000e-01 -1.250000000000e-01 1.200000000000e-01
-2.500000000000e-01 0.000000000000e+00 1.200000000000e-01
-1.250000000000e-01 0.000000000000e+00 1.200000000000e-01
0.000000000000e+00 0.000000000000e+00 1.200000000000e-01
1.250000000000e-01 0.000000000000e+00 1.200000000000e-01
2.500000000000e-01 0.000000000000e+00 1.200000000000e-01
-2.500000000000e-01 1.250000000000e-01 1.200000000000e-01
-1.250000000000e-01 1.250000000000e-01 1.200000000000e-01
0.000000000000e+00 1.250000000000e-01 1.200000000000e-01
1.250000000000e-01 1.250000000000e-01 1.200000000000e-01
2.500000000000e-01 1.250000000000e-01 1.200000000000e-01
-2.500000000000e-01 2.500000000000e-01 1.200000000000e-01
-1.250000000000e-01 2.500000000000e-01 1.200000000000e-01
0.000000000000e+00 2.500000000000e-01 1.200000000000e-01
1.250000000000e-01 2.500000000000e-01 1.200000000000e-01
2.500000000000e-01 2.500000000000e-01 1.200000000000e-01
-2.500000000000e-01 -2.500000000000e-01 1.800000000000e-01
-1.250000000000e-01 -2.500000000000e-01 1.800000000000e-01
0.000000000000e+00 -2.500000000000e-01 1.800000000000e-01
1.250000000000e-01 -2.500000000000e-01 1.800000000000e-01
2.500000000000e-01 -2.500000000000e-01 1.800000000000e-01
-2.500000000000e-01 -1.250000000000e-01 1.800000000000e-01
-1.250000000000e-01 -1.250000000000e-01 1.800000000000e-01
0.000000000000e+00 -1.250000000000e-01 1.800000000000e-01
1.250000000000e-01 -1.250000000000e-01 1.800000000000e-01
2.500000000000e-01 -1.250000000000e-01 1.800000000000e-01
-2.500000000000e-01 0.000000000000e+00 1.800000000000e-01
-1.250000000000e-01 0.000000000000e+00 1.800000000000e-01
0.000000000000e+00 0.000000000000e+00 1.800000000000e-01
1.250000000000e-01 0.000000000000e+00 1.800000000000e-01
2.500000000000e-01 0.000000000000e+00 1.800000000000e-01
-2.500000000000e-01 1.250000000000e-01 1.800000000000e-01
-1.250000000000e-01 1.250000000000e-01 1.800000000000e-01
0.000000000000e+00 1.250000000000e-01 1.800000000000e-01
1.250000000000e-01 1.250000000000e-01 1.800000000000e-01
2.500000000000e-01 1.250000000000e-01 1.800000000000e-01
-2.500000000000e-01 2.500000000000e-01 1.800000000000e-01
-1.250000000000e-01 2.500000000000e-01 1.800000000000e-01
0.000000000000e+00 2.500000000000e-01 1.800000000000e-01
1.250000000000e-01 2.500000000000e-01 1.800000000000e-01
2.500000000000e-01 2.500000000000e-01 1.800000000000e-01
-2.500000000000e-01 -2.500000000000e-01 2.400000000000e-01
-1.250000000000e-01 -2.500000000000e-01 2.400000000000e-01
0.000000000000e+00 -2.500000000000e-01 2.400000000000e-01
1.250000000000e-01 -2.500000000000e-01 2.400000000000e-01
2.500000000000e-01 -2.500000000000e-01 2.400000000000e-01
-2.500000000000e-01 -1.250000000000e-01 2.400000000000e-01
-1.250000000000e-01 -1.250000000000e-01 2.400000000000e-01
0.000000000000e+00 -1.250000000000e-01 2.400000000000e-01
1.250000000000e-01 -1.250000000000e-01 2.400000000000e-01
2.500000000000e-01 -1.250000000000e-01 2.400000000000e-01
-2.500000000000e-01 0.000000000000e+00 2.400000000000e-01
-1.250000000000e-01 0.000000000000e+00 2.400000000000e-01
0.000000000000e+00 0.000000000000e+00 2.400000000000e-01
1.250000000000e-01 0.000000000000e+00 2.400000000000e-01
2.500000000000e-01 0.000000000000e+00 2.400000000000e-01
-2.500000000000e-01 1.250000000000e-01 2.400000000000e-01
-1.250000000000e-01 1.250000000000e-01 2.400000000000e-01
0.000000000000e+00 1.250000000000e-01 2.400000000000e-01
1.250000000000e-01 1.250000000000e-01 2.400000000000e-01
2.500000000000e-01 1.250000000000e-01 2.400000000000e-01
-2.500000000000e-01 2.500000000000e-01 2.400000000000e-01
-1.250000000000e-01 2.500000000000e-01 2.400000000000e-01
0.000000000000e+00 2.500000000000e-01 2.400000000000e-01
1.250000000000e-01 2.500000000000e-01 2.400000000000e-01
2.500000000000e-01 2.500000000000e-01 2.400000000000e-01
-2.500016339150e-01 -2.500016339151e-01 2.399513039718e-01
-1.250008069952e-01 -2.500016469596e-01 2.399507049821e-01
1.719839455872e-14 -2.500016598616e-01 2.399504828246e-01
1.250008069953e-01 -2.500016469596e-01 2.399507049821e-01
2.500016339151e-01 -2.500016339151e-01 2.399513039718e-01
-2.500016469596e-01 -1.250008069953e-01 2.399507049821e-01
-1.250008064621e-01 -1.250008064622e-01 2.399501053543e-01
1.672562938445e-14 -1.250008113498e-01 2.399498836572e-01
1.250008064622e-01 -1.250008064622e-01 2.399501053543e-01
2.500016469596e-01 -1.250008069953e-01 2.399507049821e-01
-2.500016598616e-01 -2.219829906817e-14 2.399504828246e-01
-1.250008113498e-01 -2.171973975543e-14 2.399498836572e-01
1.625918147134e-14 -2.123068240262e-14 2.399496610784e-01
1.250008113498e-01 -2.075257837843e-14 2.399498836572e-01
2.500016598616e-01 -2.027151037417e-14 2.399504828246e-01
-2.500016469596e-01 1.250008069952e-01 2.399507049821e-01
-1.250008064621e-01 1.250008064621e-01 2.399501053543e-01
1.578942103492e-14 1.250008113498e-01 2.399498836572e-01
1.250008064622e-01 1.250008064621e-01 2.399501053543e-01
2.500016469596e-01 1.250008069952e-01 2.399507049821e-01
-2.500016339150e-01 2.500016339150e-01 2.399513039718e-01
-1.250008069952e-01 2.500016469596e-01 2.399507049821e-01
1.531522361778e-14 2.500016598616e-01 2.399504828246e-01
1.250008069953e-01 2.500016469596e-01 2.399507049821e-01
2.500016339151e-01 2.500016339150e-01 2.399513039718e-01
-2.500012499196e-01 -2.500012499196e-01 3.049499239007e-01
-1.250005889013e-01 -2.500012651505e-01 3.049493130185e-01
1.719949669039e-14 -2.500012820870e-01 3.049490947355e-01
1.250005889013e-01 -2.500012651505e-01 3.049493130185e-01
2.500012499196e-01 -2.500012499196e-01 3.049499239007e-01
-2.500012651505e-01 -1.250005889013e-01 3.049493130185e-01
-1.250005881098e-01 -1.250005881098e-01 3.049487042134e-01
1.672509958553e-14 -1.250005932446e-01 3.049484892305e-01
1.250005881098e-01 -1.250005881098e-01 3.049487042134e-01
2.500012651505e-01 -1.250005889013e-01 3.049493130185e-01
-2.500012820869e-01 -2.215348263038e-14 3.049490947355e-01
-1.250005932446e-01 -2.167619767940e-14 3.049484892305e-01
1.625522371341e-14 -2.119683175719e-14 3.049482755262e-01
1.250005932446e-01 -2.071630133819e-14 3.049484892305e-01
2.500012820869e-01 -2.024216416683e-14 3.049490947355e-01
-2.500012651505e-01 1.250005889013e-01 3.049493130185e-01
-1.250005881098e-01 1.250005881098e-01 3.049487042134e-01
1.577785964897e-14 1.250005932446e-01 3.049484892305e-01
1.250005881098e-01 1.250005881098e-01 3.049487042134e-01
2.500012651505e-01 1.250005889013e-01 3.049493130185e-01
-2.500012499196e-01 2.500012499196e-01 3.049499239007e-01
-1.250005889013e-01 2.500012651505e-01 3.049493130185e-01
1.530065053826e-14 2.500012820869e-01 3.049490947355e-01
1.250005889013e-01 2.500012651505e-01 3.049493130185e-01
2.500012499196e-01 2.500012499196e-01 3.049499239007e-01
-2.500008055725e-01 -2.500008055726e-01 3.699489223629e-01
-1.250003762465e-01 -2.500008152301e-01 3.699483088396e-01
1.719647380034e-14 -2.500008316889e-01 3.699480959715e-01
1.250003762465e-01 -2.500008152301e-01 3.699483088396e-01
2.500008055726e-01 -2.500008055726e-01 3.699489223629e-01
-2.500008152301e-01 -1.250003762465e-01 3.699483088396e-01
-1.250003757634e-01 -1.250003757635e-01 3.699476993977e-01
1.672333292151e-14 -1.250003811651e-01 3.699474920492e-01
1.250003757635e-01 -1.250003757635e-01 3.699476993977e-01
2.500008152301e-01 -1.250003762465e-01 3.699483088396e-01
-2.500008316888e-01 -2.211497332193e-14 3.699480959715e-01
-1.250003811650e-01 -2.163626679269e-14 3.699474920492e-01
1.624958407874e-14 -2.115978741805e-14 3.699472881856e-01
1.250003811651e-01 -2.068486976574e-14 3.699474920492e-01
2.500008316889e-01 -2.020893863779e-14 3.699480959715e-01
-2.500008152301e-01 1.250003762465e-01 3.699483088396e-01
-1.250003757634e-01 1.250003757634e-01 3.699476993977e-01
1.576922998951e-14 1.250003811650e-01 3.699474920492e-01
1.250003757635e-01 1.250003757634e-01 3.699476993977e-01
2.500008152301e-01 1.250003762465e-01 3.699483088396e-01
-2.500008055725e-01 2.500008055725e-01 3.699489223629e-01
-1.250003762465e-01 2.500008152301e-01 3.699483088396e-01
1.528730781053e-14 2.500008316888e-01 3.699480959715e-01
1.250003762465e-01 2.500008152301e-01 3.699483088396e-01
2.500008055726e-01 2.500008055725e-01 3.699489223629e-01
-2.500003696944e-01 -2.500003696945e-01 4.349483198318e-01
-1.250001671837e-01 -2.500003757569e-01 4.349477159070e-01
1.719269942431e-14 -2.500003921768e-01 4.349474980241e-01
1.250001671838e-01 -2.500003757569e-01 4.349477159070e-01
2.500003696945e-01 -2.500003696945e-01 4.349483198318e-01
-2.500003757569e-01 -1.250001671838e-01 4.349477159070e-01
-1.250001670355e-01 -1.250001670355e-01 4.349471206378e-01
1.671813356722e-14 -1.250001732678e-01 4.349469098816e-01
1.250001670355e-01 -1.250001670355e-01 4.349471206378e-01
2.500003757569e-01 -1.250001671838e-01 4.349477159070e-01
-2.500003921767e-01 -2.207525261495e-14 4.349474980241e-01
-1.250001732678e-01 -2.159776747510e-14 4.349469098816e-01
1.624289946646e-14 -2.112369398936e-14 4.349467030385e-01
1.250001732678e-01 -2.064933323525e-14 4.349469098816e-01
2.500003921767e-01 -2.017672187879e-14 4.349474980241e-01
-2.500003757569e-01 1.250001671837e-01 4.349477159070e-01
-1.250001670355e-01 1.250001670355e-01 4.349471206378e-01
1.575949014037e-14 1.250001732678e-01 4.349469098816e-01
1.250001670355e-01 1.250001670355e-01 4.349471206378e-01
2.500003757569e-01 1.250001671837e-01 4.349477159070e-01
-2.500003696944e-01 2.500003696944e-01 4.349483198318e-01
-1.250001671837e-01 2.500003757569e-01 4.349477159070e-01
1.527546190751e-14 2.500003921767e-01 4.349474980241e-01
1.250001671838e-01 2.500003757569e-01 4.349477159070e-01
2.500003696945e-01 2.500003696944e-01 4.349483198318e-01
-2.499999968980e-01 -2.499999968981e-01 4.999481039399e-01
-1.249999548911e-01 -2.500000100595e-01 4.999475130734e-01
1.718977253712e-14 -2.500000331124e-01 4.999472960541e-01
1.249999548912e-01 -2.500000100595e-01 4.999475130734e-01
2.499999968981e-01 -2.499999968981e-01 4.999481039399e-01
-2.500000100595e-01 -1.249999548912e-01 4.999475130734e-01
-1.249999570820e-01 -1.249999570820e-01 4.999469353023e-01
1.671458407451e-14 -1.249999660694e-01 4.999467273281e-01
1.249999570820e-01 -1.249999570820e-01 4.999469353023e-01
2.500000100595e-01 -1.249999548912e-01 4.999475130734e-01
-2.500000331123e-01 -2.202970351382e-14 4.999472960541e-01
-1.249999660694e-01 -2.155006367757e-14 4.999467273281e-01
1.623527072994e-14 -2.108492280495e-14 4.999465239042e-01
1.249999660694e-01 -2.061430126016e-14 4.999467273281e-01
2.500000331124e-01 -2.014237810164e-14 4.999472960541e-01
-2.500000100595e-01 1.249999548911e-01 4.999475130734e-01
-1.249999570820e-01 1.249999570820e-01 4.999469353023e-01
1.574564164821e-14 1.249999660694e-01 4.999467273281e-01
1.249999570820e-01 1.249999570820e-01 4.999469353023e-01
2.500000100595e-01 1.249999548911e-01 4.999475130734e-01
-2.499999968980e-01 2.499999968980e-01 4.999481039399e-01
-1.249999548911e-01 2.500000100595e-01 4.999475130734e-01
1.526392773418e-14 2.500000331123e-01 4.999472960541e-01
1.249999548912e-01 2.500000100595e-01 4.999475130734e-01
2.499999968981e-01 2.499999968980e-01 4.999481039399e-01
CELLS 128 1152
8 0 1 6 5 25 26 31 30
8 1 2 7 6 26 27 32 31
8 2 3 8 7 27 28 33 32
8 3 4 9 8 28 29 34 33
8 5 6 11 10 30 31 36 35
8 6 7 12 11 31 32 37 36
8 7 8 13 12 32 33 38 37
8 8 9 14 13 33 34 39 38
8 10 11 16 15 35 36 41 40
8 11 12 17 16 36 37 42 41
8 12 13 18 17 37 38 43 42
8 13 14 19 18 38 39 44 43
8 15 16 21 20 40 41 46 45
8 16 17 22 21 41 42 47 46
8 17 18 23 22 42 43 48 47
8 18 19 24 23 43 44 49 48
8 25 26 31 30 50 51 56 55
8 26 27 32 31 51 52 57 56
8 27 28 33 32 52 53 58 57
8 28 29 34 33 53 54 59 58
8 30 31 36 35 55 56 61 60
8 31 32 37 36 56 57 62 61
8 32 33 38 37 57 58 63 62
8 33 34 39 38 58 59 64 63
8 35 36 41 40 60 61 66 65
8 36 37 42 41 61 62 67 66
8 37 38 43 42 62 63 68 67
8 38 39 44 43 63 64 69 68
8 40 41 46 45 65 66 71 70
8 41 42 47 46 66 67 72 71
8 42 43 48 47 67 68 73 72
8 43 44 49 48 68 69 74 73
8 50 51 56 55 75 76 81 80
8 51 52 57 56 76 77 82 81
8 52 53 58 57 77 78 83 82
8 53 54 59 58 78 79 84 83
8 55 56 61 60 80 81 86 85
8 56 57 62 61 81 82 87 86
8 57 58 63 62 82 83 88 87
8 58 59 64 63 83 84 89 88
8 60 61 66 65 85 86 91 90
8 61 62 67 66 86 87 92 91
8 62 63 68 67 87 88 93 92
8 63 64 69 68 88 89 94 93
8 65 66 71 70 90 91 96 95
8 66 67 72 71 91 92 97 96
8 67 68 73 72 92 93 98 97
8 68 69 74 73 93 94 99 98
8 75 76 81 80 100 101 106 105
8 76 77 82 81 101 102 107 106
8 77 78 83 82 102 103 108 107
8 78 79 84 83 103 104 109 108
8 80 81 86 85 105 106 111 110
8 81 82 87 86 106 107 112 111
8 82 83 88 87 107 108 113 112
8 83 84 89 88 108 109 114 113
8 85 86 91 90 110 111 116 115
8 86 87 92 91 111 112 117 116
8 87 88 93 92 112 113 118 117
8 88 89 94 93 113 114 119 118
8 90 91 96 95 115 116 121 120
8 91 92 97 96 116 117 122 121
8 92 93 98 97 117 118 123 122
8 93 94 99 98 118 119 124 123
8 125 126 131 130 150 151 156 155
8 126 127 132 131 151 152 157 156
8 127 128 133 132 152 153 158 157
8 128 129 134 133 153 154 159 158
8 130 131 136 135 155 156 161 160
8 131 132 137 136 156 157 162 161
8 132 133 138 137 157 158 163 162
8 133 134 139 138 158 159 164 163
8 135 136 141 140 160 161 166 165
8 136 137 142 141 161 162 167 166
8 137 138 143 142 162 163 168 167
8 138 139 144 143 163 164 169 168
8 140 141 146 145 165 166 171 170
8 141 142 147 146 166 167 172 171
8 142 143 148 147 167 168 173 172
8 143 144 149 148 168 169 174 173
8 150 151 156 155 175 176 181 180
8 151 152 157 156 176 177 182 181
8 152 153 158 157 177 178 183 182
8 153 154 159 158 178 179 184 183
8 155 156 161 160 180 181 186 185
8 156 157 162 161 181 182 187 186
8 157 158 163 162 182 183 188 187
8 158 159 164 163 183 184 189 188
8 160 161 166 165 185 186 191 190
8 161 162 167 166 186 187 192 191
8 162 163 168 167 187 188 193 192
8 163 164 169 168 188 189 194 193
8 165 166 171 170 190 191 196 195
8 166 167 172 171 191 192 197 196
8 167 168 173 172 192 193 198 197
8 168 169 174 173 193 194 199 198
8 175 176 181 180 200 201 206 205
8 176 177 182 181 201 202 207 206
8 177 178 183 182 202 203 208 207
8 178 179 184 183 203 204 209 208
8 180 181 186 185 205 206 211 210
8 181 182 187 186 206 207 212 211
8 182 183 188 187 207 208 213 212
8 183 184 189 188 208 209 214 213
8 185 186 191 190 210 211 216 215
8 186 187 192 191 211 212 217 216
8 187 188 193 192 212 213 218 217
8 188 189 194 193 213 214 219 218
8 190 191 196 195 215 216 221 220
8 191 192 197 196 216 217 222 221
8 192 193 198 197 217 218 223 222
8 193 194 199 198 218 219 224 223
8 200 201 206 205 225 226 231 230
8 201 202 207 206 226 227 232 231
8 202 203 208 207 227 228 233 232
8 203 204 209 208 228 229 234 233
8 205 206 211 210 230 231 236 235
8 206 207 212 211 231 232 237 236
8 207 208 213 212 232 233 238 237
8 208 209 214 213 233 234 239 238
8 210 211 216 215 235 236 241 240
8 211 212 217 216 236 237 242 241
8 212 213 218 217 237 238 243 242
8 213 214 219 218 238 239 244 243
8 215 216 221 220 240 241 246 245
8 216 217 222 221 241 242 247 246
8 217 218 223 222 242 243 248 247
8 218 219 224 223 243 244 249 248
CELL_TYPES 128
12
12
12
12
12
12
12
12
12
12
12
12
12
12
12
12
12
12
12
12
12
12
12
12
12
12
12
12
12
12
12
12
12
12
12
12
12
12
12
12
12
12
12
12
12
12
12
12
12
12
12
12
12
12
12
12
12
12
12
12
12
12
12
12
12
12
12
12
12
12
12
12
12
12
12
12
12
12
12
12
12
12
12
12
12
12
12
12
12
12
12
12
12
12
12
12
12
12
12
12
12
12
12
12
12
12
12
12
12
12
12
12
12
12
12
12
12
12
12
12
12
12
12
12
12
12
12
12
POINT_DATA 250
VECTORS displacement float
0.000000000000e+00 0.000000000000e+00 0.000000000000e+00
0.000000000000e+00 0.000000000000e+00 0.000000000000e+00
0.000000000000e+00 0.000000000000e+00 0.000000000000e+00
0.000000000000e+00 0.000000000000e+00 0.000000000000e+00
0.000000000000e+00 0.000000000000e+00 0.000000000000e+00
0.000000000000e+00 0.000000000000e+00 0.000000000000e+00
0.000000000000e+00 0.000000000000e+00 0.000000000000e+00
0.000000000000e+00 0.000000000000e+00 0.000000000000e+00
0.000000000000e+00 0.000000000000e+00 0.000000000000e+00
0.000000000000e+00 0.000000000000e+00 0.000000000000e+00
0.000000000000e+00 0.000000000000e+00 0.000000000000e+00
0.000000000000e+00 0.000000000000e+00 0.000000000000e+00
0.000000000000e+00 0.000000000000e+00 0.000000000000e+00
0.000000000000e+00 0.000000000000e+00 0.000000000000e+00
0.000000000000e+00 0.000000000000e+00 0.000000000000e+00
0.000000000000e+00 0.000000000000e+00 0.000000000000e+00
0.000000000000e+00 0.000000000000e+00 0.000000000000e+00
0.000000000000e+00 0.000000000000e+00 0.000000000000e+00
0.000000000000e+00 0.000000000000e+00 0.000000000000e+00
0.000000000000e+00 0.000000000000e+00 0.000000000000e+00
0.000000000000e+00 0.000000000000e+00 0.000000000000e+00
0.000000000000e+00 0.000000000000e+00 0.000000000000e+00
0.000000000000e+00 0.000000000000e+00 0.000000000000e+00
0.000000000000e+00 0.000000000000e+00 0.000000000000e+00
0.000000000000e+00 0.000000000000e+00 0.000000000000e+00
0.000000000000e+00 0.000000000000e+00 0.000000000000e+00
0.000000000000e+00 0.000000000000e+00 0.000000000000e+00
0.000000000000e+00 0.000000000000e+00 0.000000000000e+00
0.000000000000e+00 0.000000000000e+00 0.000000000000e+00
0.000000000000e+00 0.000000000000e+00 0.000000000000e+00
0.000000000000e+00 0.000000000000e+00 0.000000000000e+00
0.000000000000e+00 0.000000000000e+00 0.000000000000e+00
0.000000000000e+00 0.000000000000e+00 0.000000000000e+00
0.000000000000e+00 0.000000000000e+00 0.000000000000e+00
0.000000000000e+00 0.000000000000e+00 0.000000000000e+00
0.000000000000e+00 0.000000000000e+00 0.000000000000e+00
0.000000000000e+00 0.000000000000e+00 0.000000000000e+00
0.000000000000e+00 0.000000000000e+00 0.000000000000e+00
0.000000000000e+00 0.000000000000e+00 0.000000000000e+00
0.000000000000e+00 0.000000000000e+00 0.000000000000e+00
0.000000000000e+00 0.000000000000e+00 0.000000000000e+00
0.000000000000e+00 0.000000000000e+00 0.000000000000e+00
0.000000000000e+00 0.000000000000e+00 0.000000000000e+00
0.000000000000e+00 0.000000000000e+00 0.000000000000e+00
0.000000000000e+00 0.000000000000e+00 0.000000000000e+00
0.000000000000e+00 0.000000000000e+00 0.000000000000e+00
0.000000000000e+00 0.000000000000e+00 0.000000000000e+00
0.000000000000e+00 0.000000000000e+00 0.000000000000e+00
0.000000000000e+00 0.000000000000e+00 0.000000000000e+00
0.000000000000e+00 0.000000000000e+00 0.000000000000e+00
0.000000000000e+00 0.000000000000e+00 0.000000000000e+00
0.000000000000e+00 0.000000000000e+00 0.000000000000e+00
0.000000000000e+00 0.000000000000e+00 0.000000000000e+00
0.000000000000e+00 0.000000000000e+00 0.000000000000e+00
0.000000000000e+00 0.000000000000e+00 0.000000000000e+00
0.000000000000e+00 0.000000000000e+00 0.000000000000e+00
0.000000000000e+00 0.000000000000e+00 0.000000000000e+00
0.000000000000e+00 0.000000000000e+00 0.000000000000e+00
0.000000000000e+00 0.000000000000e+00 0.000000000000e+00
0.000000000000e+00 0.000000000000e+00 0.000000000000e+00
0.000000000000e+00 0.000000000000e+00 0.000000000000e+00
0.000000000000e+00 0.000000000000e+00 0.000000000000e+00
0.000000000000e+00 0.000000000000e+00 0.000000000000e+00
0.000000000000e+00 0.000000000000e+00 0.000000000000e+00
0.000000000000e+00 0.000000000000e+00 0.000000000000e+00
0.000000000000e+00 0.000000000000e+00 0.000000000000e+00
0.000000000000e+00 0.000000000000e+00 0.000000000000e+00
0.000000000000e+00 0.000000000000e+00 0.000000000000e+00
0.000000000000e+00 0.000000000000e+00 0.000000000000e+00
0.000000000000e+00 0.000000000000e+00 0.000000000000e+00
0.000000000000e+00 0.000000000000e+00 0.000000000000e+00
0.000000000000e+00 0.000000000000e+00 0.000000000000e+00
0.000000000000e+00 0.000000000000e+00 0.000000000000e+00
0.000000000000e+00 0.000000000000e+00 0.000000000000e+00
0.000000000000e+00 0.000000000000e+00 0.000000000000e+00
0.000000000000e+00 0.000000000000e+00 0.000000000000e+00
0.000000000000e+00 0.000000000000e+00 0.000000000000e+00
0.000000000000e+00 0.000000000000e+00 0.000000000000e+00
0.000000000000e+00 0.000000000000e+00 0.000000000000e+00
0.000000000000e+00 0.000000000000e+00 0.000000000000e+00
0.000000000000e+00 0.000000000000e+00 0.000000000000e+00
0.000000000000e+00 0.000000000000e+00 0.000000000000e+00
0.000000000000e+00 0.000000000000e+00 0.000000000000e+00
0.000000000000e+00 0.000000000000e+00 0.000000000000e+00
0.000000000000e+00 0.000000000000e+00 0.000000000000e+00
0.000000000000e+00 0.000000000000e+00 0.000000000000e+00
0.000000000000e+00 0.000000000000e+00 0.000000000000e+00
0.000000000000e+00 0.000000000000e+00 0.000000000000e+00
0.000000000000e+00 0.000000000000e+00 0.000000000000e+00
0.000000000000e+00 0.000000000000e+00 0.000000000000e+00
0.000000000000e+00 0.000000000000e+00 0.000000000000e+00
0.000000000000e+00 0.000000000000e+00 0.000000000000e+00
0.000000000000e+00 0.000000000000e+00 0.000000000000e+00
0.000000000000e+00 0.000000000000e+00 0.000000000000e+00
0.000000000000e+00 0.000000000000e+00 0.000000000000e+00
0.000000000000e+00 0.000000000000e+00 0.000000000000e+00
0.000000000000e+00 0.000000000000e+00 0.000000000000e+00
0.000000000000e+00 0.000000000000e+00 0.000000000000e+00
0.000000000000e+00 0.000000000000e+00 0.000000000000e+00
0.000000000000e+00 0.000000000000e+00 0.000000000000e+00
0.000000000000e+00 0.000000000000e+00 0.000000000000e+00
0.000000000000e+00 0.000000000000e+00 0.000000000000e+00
0.000000000000e+00 0.000000000000e+00 0.000000000000e+00
0.000000000000e+00 0.000000000000e+00 0.000000000000e+00
0.000000000000e+00 0.000000000000e+00 0.000000000000e+00
0.000000000000e+00 0.000000000000e+00 0.000000000000e+00
0.000000000000e+00 0.000000000000e+00 0.000000000000e+00
0.000000000000e+00 0.000000000000e+00 0.000000000000e+00
0.000000000000e+00 0.000000000000e+00 0.000000000000e+00
0.000000000000e+00 0.000000000000e+00 0.000000000000e+00
0.000000000000e+00 0.000000000000e+00 0.000000000000e+00
0.000000000000e+00 0.000000000000e+00 0.000000000000e+00
0.000000000000e+00 0.000000000000e+00 0.000000000000e+00
0.000000000000e+00 0.000000000000e+00 0.000000000000e+00
0.000000000000e+00 0.000000000000e+00 0.000000000000e+00
0.000000000000e+00 0.000000000000e+00 0.000000000000e+00
0.000000000000e+00 0.000000000000e+00 0.000000000000e+00
0.000000000000e+00 0.000000000000e+00 0.000000000000e+00
0.000000000000e+00 0.000000000000e+00 0.000000000000e+00
0.000000000000e+00 0.000000000000e+00 0.000000000000e+00
0.000000000000e+00 0.000000000000e+00 0.000000000000e+00
0.000000000000e+00 0.000000000000e+00 0.000000000000e+00
0.000000000000e+00 0.000000000000e+00 0.000000000000e+00
0.000000000000e+00 0.000000000000e+00 0.000000000000e+00
0.000000000000e+00 0.000000000000e+00 0.000000000000e+00
-1.633915024139e-06 -1.633915063519e-06 -1.504869602819e-02
-8.069952195703e-07 -1.646959639064e-06 -1.504929501791e-02
1.719839455872e-14 -1.659861619117e-06 -1.504951717543e-02
8.069952539659e-07 -1.646959638105e-06 -1.504929501791e-02
1.633915058533e-06 -1.633915061602e-06 -1.504869602819e-02
-1.646959600638e-06 -8.069952589562e-07 -1.504929501791e-02
-8.064621462635e-07 -8.064621847026e-07 -1.504989464574e-02
1.672562938445e-14 -8.113498205619e-07 -1.505011634278e-02
8.064621797109e-07 -8.064621837334e-07 -1.504989464574e-02
1.646959634079e-06 -8.069952570382e-07 -1.504929501791e-02
-1.659861581625e-06 -2.219829906817e-14 -1.504951717543e-02
-8.113497830713e-07 -2.171973975543e-14 -1.505011634278e-02
1.625918147134e-14 -2.123068240262e-14 -1.505033892155e-02
8.113498155886e-07 -2.075257837843e-14 -1.505011634278e-02
1.659861614145e-06 -2.027151037417e-14 -1.504951717543e-02
-1.646959601560e-06 8.069952145652e-07 -1.504929501791e-02
-8.064621471925e-07 8.064621412705e-07 -1.504989464574e-02
1.578942103492e-14 8.113497781038e-07 -1.505011634278e-02
8.064621787690e-07 8.064621422421e-07 -1.504989464574e-02
1.646959633134e-06 8.069952164914e-07 -1.504929501791e-02
-1.633915026017e-06 1.633915019133e-06 -1.504869602819e-02
-8.069952214459e-07 1.646959595643e-06 -1.504929501791e-02
1.531522361778e-14 1.659861576674e-06 -1.504951717543e-02
8.069952520694e-07 1.646959596620e-06 -1.504929501791e-02
1.633915056634e-06 1.633915021067e-06 -1.504869602819e-02
-1.249919586016e-06 -1.249919625359e-06 -1.505007609929e-02
-5.889012788952e-07 -1.265150537389e-06 -1.505068698146e-02
1.719949669039e-14 -1.282086950953e-06 -1.505090526447e-02
5.889013132910e-07 -1.265150536433e-06 -1.505068698146e-02
1.249919620411e-06 -1.249919623446e-06 -1.505007609929e-02
-1.265150498996e-06 -5.889013182436e-07 -1.505068698146e-02
-5.881097557012e-07 -5.881097941011e-07 -1.505129578658e-02
1.672509958553e-14 -5.932446340679e-07 -1.505151076948e-02
5.881097891514e-07 -5.881097931420e-07 -1.505129578658e-02
1.265150532438e-06 -5.889013163319e-07 -1.505068698146e-02
-1.282086913511e-06 -2.215348263038e-14 -1.505090526447e-02
-5.932445966200e-07 -2.167619767940e-14 -1.505151076948e-02
1.625522371341e-14 -2.119683175719e-14 -1.505172447376e-02
5.932446291263e-07 -2.071630133819e-14 -1.505151076948e-02
1.282086946019e-06 -2.024216416683e-14 -1.505090526447e-02
-1.265150499938e-06 5.889012739358e-07 -1.505068698146e-02
-5.881097566460e-07 5.881097507531e-07 -1.505129578658e-02
1.577785964897e-14 5.932445916782e-07 -1.505151076948e-02
5.881097882037e-07 5.881097517107e-07 -1.505129578658e-02
1.265150531495e-06 5.889012758511e-07 -1.505068698146e-02
-1.249919587908e-06 1.249919581055e-06 -1.505007609929e-02
-5.889012807932e-07 1.265150494043e-06 -1.505068698146e-02
1.530065053826e-14 1.282086908575e-06 -1.505090526447e-02
5.889013113928e-07 1.265150495009e-06 -1.505068698146e-02
1.249919618508e-06 1.249919582970e-06 -1.505007609929e-02
-8.055725281421e-07 -8.055725674521e-07 -1.505107763715e-02
-3.762464657368e-07 -8.152301105194e-07 -1.505169116039e-02
1.719647380034e-14 -8.316888780617e-07 -1.505190402853e-02
3.762465001291e-07 -8.152301095668e-07 -1.505169116039e-02
8.055725625316e-07 -8.055725655479e-07 -1.505107763715e-02
-8.152300721629e-07 -3.762465050477e-07 -1.505169116039e-02
-3.757634473985e-07 -3.757634857558e-07 -1.505230060232e-02
1.672333292151e-14 -3.811650632805e-07 -1.505250795080e-02
3.757634808418e-07 -3.757634848034e-07 -1.505230060232e-02
8.152301056045e-07 -3.762465031428e-07 -1.505169116039e-02
-8.316888406641e-07 -2.211497332193e-14 -1.505190402853e-02
-3.811650258768e-07 -2.163626679269e-14 -1.505250795080e-02
1.624958407874e-14 -2.115978741805e-14 -1.505271181436e-02
3.811650583729e-07 -2.068486976574e-14 -1.505250795080e-02
8.316888731506e-07 -2.020893863779e-14 -1.505190402853e-02
-8.152300731247e-07 3.762464608190e-07 -1.505169116039e-02
-3.757634483543e-07 3.757634424852e-07 -1.505230060232e-02
1.576922998951e-14 3.811650209644e-07 -1.505250795080e-02
3.757634798894e-07 3.757634434376e-07 -1.505230060232e-02
8.152301046555e-07 3.762464627251e-07 -1.505169116039e-02
-8.055725300547e-07 8.055725232205e-07 -1.505107763715e-02
-3.762464676501e-07 8.152300672520e-07 -1.505169116039e-02
1.528730781053e-14 8.316888357463e-07 -1.505190402853e-02
3.762464982266e-07 8.152300682033e-07 -1.505169116039e-02
8.055725606342e-07 8.055725251309e-07 -1.505107763715e-02
-3.696944198692e-07 -3.696944591377e-07 -1.505168016817e-02
-1.671837336081e-07 -3.757569148077e-07 -1.505228409303e-02
1.719269942431e-14 -3.921767521216e-07 -1.505250197585e-02
1.671837679897e-07 -3.757569138621e-07 -1.505228409303e-02
3.696944542448e-07 -3.696944572428e-07 -1.505168016817e-02
-3.757568764918e-07 -1.671837728763e-07 -1.505228409303e-02
-1.670355011032e-07 -1.670355394199e-07 -1.505287936215e-02
1.671813356722e-14 -1.732678240423e-07 -1.505309011842e-02
1.670355345385e-07 -1.670355384735e-07 -1.505287936215e-02
3.757569099255e-07 -1.671837709796e-07 -1.505228409303e-02
-3.921767147668e-07 -2.207525261495e-14 -1.505250197585e-02
-1.732677866812e-07 -2.159776747510e-14 -1.505309011842e-02
1.624289946646e-14 -2.112369398936e-14 -1.505329696148e-02
1.732678191631e-07 -2.064933323525e-14 -1.505309011842e-02
3.921767472424e-07 -2.017672187879e-14 -1.505250197585e-02
-3.757568774642e-07 1.671837287233e-07 -1.505228409303e-02
-1.670355020706e-07 1.670354962274e-07 -1.505287936215e-02
1.575949014037e-14 1.732677817977e-07 -1.505309011842e-02
1.670355335836e-07 1.670354971722e-07 -1.505287936215e-02
3.757569089716e-07 1.671837306269e-07 -1.505228409303e-02
-3.696944217977e-07 3.696944149799e-07 -1.505168016817e-02
-1.671837355316e-07 3.757568716110e-07 -1.505228409303e-02
1.527546190751e-14 3.921767098791e-07 -1.505250197585e-02
1.671837660838e-07 3.757568725604e-07 -1.505228409303e-02
3.696944523511e-07 3.696944168924e-07 -1.505168016817e-02
3.101958856177e-09 3.101919621343e-09 -1.505189606015e-02
4.510887308799e-08 -1.005951850698e-08 -1.505248692656e-02
1.718977253712e-14 -3.311236748648e-08 -1.505270394593e-02
-4.510883871631e-08 -1.005951756567e-08 -1.505248692656e-02
-3.101924483654e-09 3.101921512693e-09 -1.505189606015e-02
-1.005948023261e-08 4.510883386387e-08 -1.505248692656e-02
4.291800312351e-08 4.291796485049e-08 -1.505306469768e-02
1.671458407451e-14 3.393059002604e-08 -1.505327267187e-02
-4.291796969102e-08 4.291796578658e-08 -1.505306469768e-02
1.005951365709e-08 4.510883574784e-08 -1.505248692656e-02
-3.311233015450e-08 -2.202970351382e-14 -1.505270394593e-02
3.393062734207e-08 -2.155006367757e-14 -1.505327267187e-02
1.623527072994e-14 -2.108492280495e-14 -1.505347609576e-02
-3.393059487809e-08 -2.061430126016e-14 -1.505327267187e-02
3.311236262002e-08 -2.014237810164e-14 -1.505270394593e-02
-1.005948120827e-08 -4.510887793506e-08 -1.505248692656e-02
4.291800214392e-08 -4.291800796604e-08 -1.505306469768e-02
1.574564164821e-14 -3.393063220103e-08 -1.505327267187e-02
-4.291797065038e-08 -4.291800702232e-08 -1.505306469768e-02
1.005951270580e-08 -4.510887603514e-08 -1.505248692656e-02
3.101956916195e-09 -3.101963710095e-09 -1.505189606015e-02
4.510887114943e-08 1.005947538161e-08 -1.505248692656e-02
1.526392773418e-14 3.311232529212e-08 -1.505270394593e-02
-4.510884062247e-08 1.005947633278e-08 -1.505248692656e-02
-3.101926387703e-09 -3.101961808218e-09 -1.505189606015e-02
SCALARS displacement_magnitude float 1
LOOKUP_TABLE default
0.000000000000e+00
0.000000000000e+00
0.000000000000e+00
0.000000000000e+00
0.000000000000e+00
0.000000000000e+00
0.000000000000e+00
0.000000000000e+00
0.000000000000e+00
0.000000000000e+00
0.000000000000e+00
0.000000000000e+00
0.000000000000e+00
0.000000000000e+00
0.000000000000e+00
0.000000000000e+00
0.000000000000e+00
0.000000000000e+00
0.000000000000e+00
0.000000000000e+00
0.000000000000e+00
0.000000000000e+00
0.000000000000e+00
0.000000000000e+00
0.000000000000e+00
0.000000000000e+00
0.000000000000e+00
0.000000000000e+00
0.000000000000e+00
0.000000000000e+00
0.000000000000e+00
0.000000000000e+00
0.000000000000e+00
0.000000000000e+00
0.000000000000e+00
0.000000000000e+00
0.000000000000e+00
0.000000000000e+00
0.000000000000e+00
0.000000000000e+00
0.000000000000e+00
0.000000000000e+00
0.000000000000e+00
0.000000000000e+00
0.000000000000e+00
0.000000000000e+00
0.000000000000e+00
0.000000000000e+00
0.000000000000e+00
0.000000000000e+00
0.000000000000e+00
0.000000000000e+00
0.000000000000e+00
0.000000000000e+00
0.000000000000e+00
0.000000000000e+00
0.000000000000e+00
0.000000000000e+00
0.000000000000e+00
0.000000000000e+00
0.000000000000e+00
0.000000000000e+00
0.000000000000e+00
0.000000000000e+00
0.000000000000e+00
0.000000000000e+00
0.000000000000e+00
0.000000000000e+00
0.000000000000e+00
0.000000000000e+00
0.000000000000e+00
0.000000000000e+00
0.000000000000e+00
0.000000000000e+00
0.000000000000e+00
0.000000000000e+00
0.000000000000e+00
0.000000000000e+00
0.000000000000e+00
0.000000000000e+00
0.000000000000e+00
0.000000000000e+00
0.000000000000e+00
0.000000000000e+00
0.000000000000e+00
0.000000000000e+00
0.000000000000e+00
0.000000000000e+00
0.000000000000e+00
0.000000000000e+00
0.000000000000e+00
0.000000000000e+00
0.000000000000e+00
0.000000000000e+00
0.000000000000e+00
0.000000000000e+00
0.000000000000e+00
0.000000000000e+00
0.000000000000e+00
0.000000000000e+00
0.000000000000e+00
0.000000000000e+00
0.000000000000e+00
0.000000000000e+00
0.000000000000e+00
0.000000000000e+00
0.000000000000e+00
0.000000000000e+00
0.000000000000e+00
0.000000000000e+00
0.000000000000e+00
0.000000000000e+00
0.000000000000e+00
0.000000000000e+00
0.000000000000e+00
0.000000000000e+00
0.000000000000e+00
0.000000000000e+00
0.000000000000e+00
0.000000000000e+00
0.000000000000e+00
0.000000000000e+00
0.000000000000e+00
0.000000000000e+00
0.000000000000e+00
1.504869620560e-02
1.504929512967e-02
1.504951726697e-02
1.504929512967e-02
1.504869620560e-02
1.504929512967e-02
1.504989468895e-02
1.505011636465e-02
1.504989468895e-02
1.504929512967e-02
1.504951726697e-02
1.505011636465e-02
1.505033892155e-02
1.505011636465e-02
1.504951726697e-02
1.504929512967e-02
1.504989468895e-02
1.505011636465e-02
1.504989468895e-02
1.504929512967e-02
1.504869620560e-02
1.504929512967e-02
1.504951726697e-02
1.504929512967e-02
1.504869620560e-02
1.505007620310e-02
1.505068704615e-02
1.505090531907e-02
1.505068704615e-02
1.505007620310e-02
1.505068704615e-02
1.505129580956e-02
1.505151078117e-02
1.505129580956e-02
1.505068704615e-02
1.505090531907e-02
1.505151078117e-02
1.505172447376e-02
1.505151078117e-02
1.505090531907e-02
1.505068704615e-02
1.505129580956e-02
1.505151078117e-02
1.505129580956e-02
1.505068704615e-02
1.505007620310e-02
1.505068704615e-02
1.505090531907e-02
1.505068704615e-02
1.505007620310e-02
1.505107768026e-02
1.505169118717e-02
1.505190405151e-02
1.505169118717e-02
1.505107768026e-02
1.505169118717e-02
1.505230061170e-02
1.505250795563e-02
1.505230061170e-02
1.505169118717e-02
1.505190405151e-02
1.505250795563e-02
1.505271181436e-02
1.505250795563e-02
1.505190405151e-02
1.505169118717e-02
1.505230061170e-02
1.505250795563e-02
1.505230061170e-02
1.505169118717e-02
1.505107768026e-02
1.505169118717e-02
1.505190405151e-02
1.505169118717e-02
1.505107768026e-02
1.505168017725e-02
1.505228409865e-02
1.505250198096e-02
1.505228409865e-02
1.505168017725e-02
1.505228409865e-02
1.505287936400e-02
1.505309011942e-02
1.505287936400e-02
1.505228409865e-02
1.505250198096e-02
1.505309011942e-02
1.505329696148e-02
1.505309011942e-02
1.505250198096e-02
1.505228409865e-02
1.505287936400e-02
1.505309011942e-02
1.505287936400e-02
1.505228409865e-02
1.505168017725e-02
1.505228409865e-02
1.505250198096e-02
1.505228409865e-02
1.505168017725e-02
1.505189606015e-02
1.505248692663e-02
1.505270394597e-02
1.505248692663e-02
1.505189606015e-02
1.505248692663e-02
1.505306469780e-02
1.505327267191e-02
1.505306469780e-02
1.505248692663e-02
1.505270394597e-02
1.505327267191e-02
1.505347609576e-02
1.505327267191e-02
1.505270394597e-02
1.505248692663e-02
1.505306469780e-02
1.505327267191e-02
1.505306469780e-02
1.505248692663e-02
1.505189606015e-02
1.505248692663e-02
1.505270394597e-02
1.505248692663e-02
1.505189606015e-02
CELL_DATA 128
SCALARS displacement_magnitude float 1
LOOKUP_TABLE default
0.000000000000e+00
0.000000000000e+00
0.000000000000e+00
0.000000000000e+00
0.000000000000e+00
0.000000000000e+00
0.000000000000e+00
0.000000000000e+00
0.000000000000e+00
0.000000000000e+00
0.000000000000e+00
0.000000000000e+00
0.000000000000e+00
0.000000000000e+00
0.000000000000e+00
0.000000000000e+00
0.000000000000e+00
0.000000000000e+00
0.000000000000e+00
0.000000000000e+00
0.000000000000e+00
0.000000000000e+00
0.000000000000e+00
0.000000000000e+00
0.000000000000e+00
0.000000000000e+00
0.000000000000e+00
0.000000000000e+00
0.000000000000e+00
0.000000000000e+00
0.000000000000e+00
0.000000000000e+00
0.000000000000e+00
0.000000000000e+00
0.000000000000e+00
0.000000000000e+00
0.000000000000e+00
0.000000000000e+00
0.000000000000e+00
0.000000000000e+00
0.000000000000e+00
0.000000000000e+00
0.000000000000e+00
0.000000000000e+00
0.000000000000e+00
0.000000000000e+00
0.000000000000e+00
0.000000000000e+00
0.000000000000e+00
0.000000000000e+00
0.000000000000e+00
0.000000000000e+00
0.000000000000e+00
0.000000000000e+00
0.000000000000e+00
0.000000000000e+00
0.000000000000e+00
0.000000000000e+00
0.000000000000e+00
0.000000000000e+00
0.000000000000e+00
0.000000000000e+00
0.000000000000e+00
0.000000000000e+00
1.504999090736e-02
1.505040280077e-02
1.505040280077e-02
1.504999090736e-02
1.505040280077e-02
1.505081352318e-02
1.505081352318e-02
1.505040280077e-02
1.505040280077e-02
1.505081352318e-02
1.505081352318e-02
1.505040280077e-02
1.504999090736e-02
1.505040280077e-02
1.505040280077e-02
1.504999090736e-02
1.505118834641e-02
1.505160034525e-02
1.505160034525e-02
1.505118834641e-02
1.505160034525e-02
1.505200877287e-02
1.505200877287e-02
1.505160034525e-02
1.505160034525e-02
1.505200877287e-02
1.505200877287e-02
1.505160034525e-02
1.505118834641e-02
1.505160034525e-02
1.505160034525e-02
1.505118834641e-02
1.505198605061e-02
1.505239492113e-02
1.505239492113e-02
1.505198605061e-02
1.505239492113e-02
1.505279811270e-02
1.505279811270e-02
1.505239492113e-02
1.505239492113e-02
1.505279811271e-02
1.505279811270e-02
1.505239492113e-02
1.505198605061e-02
1.505239492113e-02
1.505239492113e-02
1.505198605061e-02
1.505238279372e-02
1.505278547567e-02
1.505278547567e-02
1.505238279372e-02
1.505278547567e-02
1.505318033771e-02
1.505318033771e-02
1.505278547567e-02
1.505278547567e-02
1.505318033771e-02
1.505318033771e-02
1.505278547567e-02
1.505238279372e-02
1.505278547567e-02
1.505278547567e-02
1.505238279372e-02
SCALARS engineering_strain_norm float 1
LOOKUP_TABLE default
0.000000000000e+00
0.000000000000e+00
0.000000000000e+00
0.000000000000e+00
0.000000000000e+00
0.000000000000e+00
0.000000000000e+00
0.000000000000e+00
0.000000000000e+00
0.000000000000e+00
0.000000000000e+00
0.000000000000e+00
0.000000000000e+00
0.000000000000e+00
0.000000000000e+00
0.000000000000e+00
0.000000000000e+00
0.000000000000e+00
0.000000000000e+00
0.000000000000e+00
0.000000000000e+00
0.000000000000e+00
0.000000000000e+00
0.000000000000e+00
0.000000000000e+00
0.000000000000e+00
0.000000000000e+00
0.000000000000e+00
0.000000000000e+00
0.000000000000e+00
0.000000000000e+00
0.000000000000e+00
0.000000000000e+00
0.000000000000e+00
0.000000000000e+00
0.000000000000e+00
0.000000000000e+00
0.000000000000e+00
0.000000000000e+00
0.000000000000e+00
0.000000000000e+00
0.000000000000e+00
0.000000000000e+00
0.000000000000e+00
0.000000000000e+00
0.000000000000e+00
0.000000000000e+00
0.000000000000e+00
0.000000000000e+00
0.000000000000e+00
0.000000000000e+00
0.000000000000e+00
0.000000000000e+00
0.000000000000e+00
0.000000000000e+00
0.000000000000e+00
0.000000000000e+00
0.000000000000e+00
0.000000000000e+00
0.000000000000e+00
0.000000000000e+00
0.000000000000e+00
0.000000000000e+00
0.000000000000e+00
2.303285951595e-05
2.298725582108e-05
2.298725582109e-05
2.303285951591e-05
2.298725582111e-05
2.285948391754e-05
2.285948391752e-05
2.298725582110e-05
2.298725582109e-05
2.285948391760e-05
2.285948391761e-05
2.298725582114e-05
2.303285951598e-05
2.298725582116e-05
2.298725582119e-05
2.303285951600e-05
1.665750180379e-05
1.651004996297e-05
1.651004996299e-05
1.665750180375e-05
1.651004996302e-05
1.628359556958e-05
1.628359556958e-05
1.651004996297e-05
1.651004996308e-05
1.628359556963e-05
1.628359556961e-05
1.651004996302e-05
1.665750180382e-05
1.651004996303e-05
1.651004996309e-05
1.665750180383e-05
9.799782528454e-06
9.671373132843e-06
9.671373132787e-06
9.799782528412e-06
9.671373132862e-06
9.477744884575e-06
9.477744884537e-06
9.671373132801e-06
9.671373132938e-06
9.477744884650e-06
9.477744884609e-06
9.671373132876e-06
9.799782528440e-06
9.671373132915e-06
9.671373132908e-06
9.799782528528e-06
3.440320511631e-06
3.219600781027e-06
3.219600781018e-06
3.440320511585e-06
3.219600781079e-06
2.904945474379e-06
2.904945474393e-06
3.219600781017e-06
3.219600781093e-06
2.904945474481e-06
2.904945474415e-06
3.219600781040e-06
3.440320511603e-06
3.219600781055e-06
3.219600781112e-06
3.440320511651e-06
SCALARS von_mises float 1
LOOKUP_TABLE default
0.000000000000e+00
0.000000000000e+00
0.000000000000e+00
0.000000000000e+00
0.000000000000e+00
0.000000000000e+00
0.000000000000e+00
0.000000000000e+00
0.000000000000e+00
0.000000000000e+00
0.000000000000e+00
0.000000000000e+00
0.000000000000e+00
0.000000000000e+00
0.000000000000e+00
0.000000000000e+00
0.000000000000e+00
0.000000000000e+00
0.000000000000e+00
0.000000000000e+00
0.000000000000e+00
0.000000000000e+00
0.000000000000e+00
0.000000000000e+00
0.000000000000e+00
0.000000000000e+00
0.000000000000e+00
0.000000000000e+00
0.000000000000e+00
0.000000000000e+00
0.000000000000e+00
0.000000000000e+00
0.000000000000e+00
0.000000000000e+00
0.000000000000e+00
0.000000000000e+00
0.000000000000e+00
0.000000000000e+00
0.000000000000e+00
0.000000000000e+00
0.000000000000e+00
0.000000000000e+00
0.000000000000e+00
0.000000000000e+00
0.000000000000e+00
0.000000000000e+00
0.000000000000e+00
0.000000000000e+00
0.000000000000e+00
0.000000000000e+00
0.000000000000e+00
0.000000000000e+00
0.000000000000e+00
0.000000000000e+00
0.000000000000e+00
0.000000000000e+00
0.000000000000e+00
0.000000000000e+00
0.000000000000e+00
0.000000000000e+00
0.000000000000e+00
0.000000000000e+00
0.000000000000e+00
0.000000000000e+00
2.108979123366e+00
2.099596821552e+00
2.099596821553e+00
2.108979123363e+00
2.099596821555e+00
2.080222294810e+00
2.080222294808e+00
2.099596821553e+00
2.099596821553e+00
2.080222294815e+00
2.080222294816e+00
2.099596821557e+00
2.108979123369e+00
2.099596821559e+00
2.099596821562e+00
2.108979123371e+00
1.527416644918e+00
1.507540703449e+00
1.507540703451e+00
1.527416644915e+00
1.507540703453e+00
1.477650265870e+00
1.477650265870e+00
1.507540703449e+00
1.507540703459e+00
1.477650265875e+00
1.477650265873e+00
1.507540703454e+00
1.527416644921e+00
1.507540703455e+00
1.507540703460e+00
1.527416644921e+00
8.973606325972e-01
8.813826081153e-01
8.813826081104e-01
8.973606325934e-01
8.813826081173e-01
8.576553275232e-01
8.576553275197e-01
8.813826081118e-01
8.813826081242e-01
8.576553275301e-01
8.576553275260e-01
8.813826081181e-01
8.973606325962e-01
8.813826081221e-01
8.813826081214e-01
8.973606326040e-01
3.176860731288e-01
2.931371807920e-01
2.931371807909e-01
3.176860731242e-01
2.931371807960e-01
2.564643191735e-01
2.564643191744e-01
2.931371807909e-01
2.931371807967e-01
2.564643191820e-01
2.564643191762e-01
2.931371807927e-01
3.176860731256e-01
2.931371807944e-01
2.931371807992e-01
3.176860731302e-01
SCALARS sdf_gap float 1
LOOKUP_TABLE default
0.000000000000e+00
0.000000000000e+00
0.000000000000e+00
0.000000000000e+00
0.000000000000e+00
0.000000000000e+00
0.000000000000e+00
0.000000000000e+00
0.000000000000e+00
0.000000000000e+00
0.000000000000e+00
0.000000000000e+00
0.000000000000e+00
0.000000000000e+00
0.000000000000e+00
0.000000000000e+00
0.000000000000e+00
0.000000000000e+00
0.000000000000e+00
0.000000000000e+00
0.000000000000e+00
0.000000000000e+00
0.000000000000e+00
0.000000000000e+00
0.000000000000e+00
0.000000000000e+00
0.000000000000e+00
0.000000000000e+00
0.000000000000e+00
0.000000000000e+00
0.000000000000e+00
0.000000000000e+00
0.000000000000e+00
0.000000000000e+00
0.000000000000e+00
0.000000000000e+00
0.000000000000e+00
0.000000000000e+00
0.000000000000e+00
0.000000000000e+00
0.000000000000e+00
0.000000000000e+00
0.000000000000e+00
0.000000000000e+00
0.000000000000e+00
0.000000000000e+00
0.000000000000e+00
0.000000000000e+00
0.000000000000e+00
0.000000000000e+00
0.000000000000e+00
0.000000000000e+00
0.000000000000e+00
0.000000000000e+00
0.000000000000e+00
0.000000000000e+00
0.000000000000e+00
0.000000000000e+00
0.000000000000e+00
0.000000000000e+00
0.000000000000e+00
0.000000000000e+00
0.000000000000e+00
0.000000000000e+00
-4.929517743845e-05
-4.970579546432e-05
-4.970579546434e-05
-4.929517743848e-05
-4.970579546438e-05
-5.011656321156e-05
-5.011656321156e-05
-4.970579546437e-05
-4.970579546448e-05
-5.011656321167e-05
-5.011656321162e-05
-4.970579546443e-05
-4.929517743872e-05
-4.970579546453e-05
-4.970579546449e-05
-4.929517743861e-05
0.000000000000e+00
0.000000000000e+00
0.000000000000e+00
0.000000000000e+00
0.000000000000e+00
0.000000000000e+00
0.000000000000e+00
0.000000000000e+00
0.000000000000e+00
0.000000000000e+00
0.000000000000e+00
0.000000000000e+00
0.000000000000e+00
0.000000000000e+00
0.000000000000e+00
0.000000000000e+00
0.000000000000e+00
0.000000000000e+00
0.000000000000e+00
0.000000000000e+00
0.000000000000e+00
0.000000000000e+00
0.000000000000e+00
0.000000000000e+00
0.000000000000e+00
0.000000000000e+00
0.000000000000e+00
0.000000000000e+00
0.000000000000e+00
0.000000000000e+00
0.000000000000e+00
0.000000000000e+00
0.000000000000e+00
0.000000000000e+00
0.000000000000e+00
0.000000000000e+00
0.000000000000e+00
0.000000000000e+00
0.000000000000e+00
0.000000000000e+00
0.000000000000e+00
0.000000000000e+00
0.000000000000e+00
0.000000000000e+00
0.000000000000e+00
0.000000000000e+00
0.000000000000e+00
0.000000000000e+00
SCALARS contact_pressure float 1
LOOKUP_TABLE default
0.000000000000e+00
0.000000000000e+00
0.000000000000e+00
0.000000000000e+00
0.000000000000e+00
0.000000000000e+00
0.000000000000e+00
0.000000000000e+00
0.000000000000e+00
0.000000000000e+00
0.000000000000e+00
0.000000000000e+00
0.000000000000e+00
0.000000000000e+00
0.000000000000e+00
0.000000000000e+00
0.000000000000e+00
0.000000000000e+00
0.000000000000e+00
0.000000000000e+00
0.000000000000e+00
0.000000000000e+00
0.000000000000e+00
0.000000000000e+00
0.000000000000e+00
0.000000000000e+00
0.000000000000e+00
0.000000000000e+00
0.000000000000e+00
0.000000000000e+00
0.000000000000e+00
0.000000000000e+00
0.000000000000e+00
0.000000000000e+00
0.000000000000e+00
0.000000000000e+00
0.000000000000e+00
0.000000000000e+00
0.000000000000e+00
0.000000000000e+00
0.000000000000e+00
0.000000000000e+00
0.000000000000e+00
0.000000000000e+00
0.000000000000e+00
0.000000000000e+00
0.000000000000e+00
0.000000000000e+00
0.000000000000e+00
0.000000000000e+00
0.000000000000e+00
0.000000000000e+00
0.000000000000e+00
0.000000000000e+00
0.000000000000e+00
0.000000000000e+00
0.000000000000e+00
0.000000000000e+00
0.000000000000e+00
0.000000000000e+00
0.000000000000e+00
0.000000000000e+00
0.000000000000e+00
0.000000000000e+00
2.464758871922e+00
2.485289773216e+00
2.485289773217e+00
2.464758871924e+00
2.485289773219e+00
2.505828160578e+00
2.505828160578e+00
2.485289773218e+00
2.485289773224e+00
2.505828160583e+00
2.505828160581e+00
2.485289773221e+00
2.464758871936e+00
2.485289773226e+00
2.485289773225e+00
2.464758871931e+00
0.000000000000e+00
0.000000000000e+00
0.000000000000e+00
0.000000000000e+00
0.000000000000e+00
0.000000000000e+00
0.000000000000e+00
0.000000000000e+00
0.000000000000e+00
0.000000000000e+00
0.000000000000e+00
0.000000000000e+00
0.000000000000e+00
0.000000000000e+00
0.000000000000e+00
0.000000000000e+00
0.000000000000e+00
0.000000000000e+00
0.000000000000e+00
0.000000000000e+00
0.000000000000e+00
0.000000000000e+00
0.000000000000e+00
0.000000000000e+00
0.000000000000e+00
0.000000000000e+00
0.000000000000e+00
0.000000000000e+00
0.000000000000e+00
0.000000000000e+00
0.000000000000e+00
0.000000000000e+00
0.000000000000e+00
0.000000000000e+00
0.000000000000e+00
0.000000000000e+00
0.000000000000e+00
0.000000000000e+00
0.000000000000e+00
0.000000000000e+00
0.000000000000e+00
0.000000000000e+00
0.000000000000e+00
0.000000000000e+00
0.000000000000e+00
0.000000000000e+00
0.000000000000e+00
0.000000000000e+00
SCALARS active_contact float 1
LOOKUP_TABLE default
0.000000000000e+00
0.000000000000e+00
0.000000000000e+00
0.000000000000e+00
0.000000000000e+00
0.000000000000e+00
0.000000000000e+00
0.000000000000e+00
0.000000000000e+00
0.000000000000e+00
0.000000000000e+00
0.000000000000e+00
0.000000000000e+00
0.000000000000e+00
0.000000000000e+00
0.000000000000e+00
0.000000000000e+00
0.000000000000e+00
0.000000000000e+00
0.000000000000e+00
0.000000000000e+00
0.000000000000e+00
0.000000000000e+00
0.000000000000e+00
0.000000000000e+00
0.000000000000e+00
0.000000000000e+00
0.000000000000e+00
0.000000000000e+00
0.000000000000e+00
0.000000000000e+00
0.000000000000e+00
0.000000000000e+00
0.000000000000e+00
0.000000000000e+00
0.000000000000e+00
0.000000000000e+00
0.000000000000e+00
0.000000000000e+00
0.000000000000e+00
0.000000000000e+00
0.000000000000e+00
0.000000000000e+00
0.000000000000e+00
0.000000000000e+00
0.000000000000e+00
0.000000000000e+00
0.000000000000e+00
0.000000000000e+00
0.000000000000e+00
0.000000000000e+00
0.000000000000e+00
0.000000000000e+00
0.000000000000e+00
0.000000000000e+00
0.000000000000e+00
0.000000000000e+00
0.000000000000e+00
0.000000000000e+00
0.000000000000e+00
0.000000000000e+00
0.000000000000e+00
0.000000000000e+00
0.000000000000e+00
1.000000000000e+00
1.000000000000e+00
1.000000000000e+00
1.000000000000e+00
1.000000000000e+00
1.000000000000e+00
1.000000000000e+00
1.000000000000e+00
1.000000000000e+00
1.000000000000e+00
1.000000000000e+00
1.000000000000e+00
1.000000000000e+00
1.000000000000e+00
1.000000000000e+00
1.000000000000e+00
0.000000000000e+00
0.000000000000e+00
0.000000000000e+00
0.000000000000e+00
0.000000000000e+00
0.000000000000e+00
0.000000000000e+00
0.000000000000e+00
0.000000000000e+00
0.000000000000e+00
0.000000000000e+00
0.000000000000e+00
0.000000000000e+00
0.000000000000e+00
0.000000000000e+00
0.000000000000e+00
0.000000000000e+00
0.000000000000e+00
0.000000000000e+00
0.000000000000e+00
0.000000000000e+00
0.000000000000e+00
0.000000000000e+00
0.000000000000e+00
0.000000000000e+00
0.000000000000e+00
0.000000000000e+00
0.000000000000e+00
0.000000000000e+00
0.000000000000e+00
0.000000000000e+00
0.000000000000e+00
0.000000000000e+00
0.000000000000e+00
0.000000000000e+00
0.000000000000e+00
0.000000000000e+00
0.000000000000e+00
0.000000000000e+00
0.000000000000e+00
0.000000000000e+00
0.000000000000e+00
0.000000000000e+00
0.000000000000e+00
0.000000000000e+00
0.000000000000e+00
0.000000000000e+00
0.000000000000e+00
