# vtk DataFile Version 3.0
SFC long-time C3D8 dynamic frame 38 t=7.600000000000e-01
ASCII
DATASET UNSTRUCTURED_GRID
POINTS 250 float
-2.500000000000e-01 -2.500000000000e-01 0.000000000000e+00
-1.250000000000e-01 -2.500000000000e-01 0.000000000000e+00
0.000000000000e+00 -2.500000000000e-01 0.000000000000e+00
1.250000000000e-01 -2.500000000000e-01 0.000000000000e+00
2.500000000000e-01 -2.500000000000e-01 0.000000000000e+00
-2.500000000000e-01 -1.250000000000e-01 0.000000000000e+00
-1.250000000000e-01 -1.250000000000e-01 0.000000000000e+00
0.000000000000e+00 -1.250000000000e-01 0.000000000000e+00
1.250000000000e-01 -1.250000000000e-01 0.000000000000e+00
2.500000000000e-01 -1.250000000000e-01 0.000000000000e+00
-2.500000000000e-01 0.000000000000e+00 0.000000000000e+00
-1.250000000000e-01 0.000000000000e+00 0.000000000000e+00
0.000000000000e+00 0.000000000000e+00 0.000000000000e+00
1.250000000000e-01 0.000000000000e+00 0.000000000000e+00
2.500000000000e-01 0.000000000000e+00 0.000000000000e+00
-2.500000000000e-01 1.250000000000e-01 0.000000000000e+00
-1.250000000000e-01 1.250000000000e-01 0.000000000000e+00
0.000000000000e+00 1.250000000000e-01 0.000000000000e+00
1.250000000000e-01 1.250000000000e-01 0.000000000000e+00
2.500000000000e-01 1.250000000000e-01 0.000000000000e+00
-2.500000000000e-01 2.500000000000e-01 0.000000000000e+00
-1.250000000000e-01 2.500000000000e-01 0.000000000000e+00
0.000000000000e+00 2.500000000000e-01 0.000000000000e+00
1.250000000000e-01 2.500000000000e-01 0.000000000000e+00
2.500000000000e-01 2.500000000000e-01 0.000000000000e+00
-2.500000000000e-01 -2.500000000000e-01 6.000000000000e-02
-1.250000000000e-01 -2.500000000000e-01 6.000000000000e-02
0.000000000000e+00 -2.500000000000e-01 6.000000000000e-02
1.250000000000e-01 -2.500000000000e-01 6.000000000000e-02
2.500000000000e-01 -2.500000000000e-01 6.000000000000e-02
-2.500000000000e-01 -1.250000000000e-01 6.000000000000e-02
-1.250000000000e-01 -1.250000000000e-01 6.000000000000e-02
0.000000000000e+00 -1.250000000000e-01 6.000000000000e-02
1.250000000000e-01 -1.250000000000e-01 6.000000000000e-02
2.500000000000e-01 -1.250000000000e-01 6.000000000000e-02
-2.500000000000e-01 0.000000000000e+00 6.000000000000e-02
-1.250000000000e-01 0.000000000000e+00 6.000000000000e-02
0.000000000000e+00 0.000000000000e+00 6.000000000000e-02
1.250000000000e-01 0.000000000000e+00 6.000000000000e-02
2.500000000000e-01 0.000000000000e+00 6.000000000000e-02
-2.500000000000e-01 1.250000000000e-01 6.000000000000e-02
-1.250000000000e-01 1.250000000000e-01 6.000000000000e-02
0.000000000000e+00 1.250000000000e-01 6.000000000000e-02
1.250000000000e-01 1.250000000000e-01 6.000000000000e-02
2.500000000000e-01 1.250000000000e-01 6.000000000000e-02
-2.500000000000e-01 2.500000000000e-01 6.000000000000e-02
-1.250000000000e-01 2.500000000000e-01 6.000000000000e-02
0.000000000000e+00 2.500000000000e-01 6.000000000000e-02
1.250000000000e-01 2.500000000000e-01 6.000000000000e-02
2.500000000000e-01 2.500000000000e-01 6.000000000000e-02
-2.500000000000e-01 -2.500000000000e-01 1.200000000000e-01
-1.250000000000e-01 -2.500000000000e-01 1.200000000000e-01
0.000000000000e+00 -2.500000000000e-01 1.200000000000e-01
1.250000000000e-01 -2.500000000000e-01 1.200000000000e-01
2.500000000000e-01 -2.500000000000e-01 1.200000000000e-01
-2.500000000000e-01 -1.250000000000e-01 1.200000000000e-01
-1.250000000000e-01 -1.250000000000e-01 1.200000000000e-01
0.000000000000e+00 -1.250000000000e-01 1.200000000000e-01
1.250000000000e-01 -1.250000000000e-01 1.200000000000e-01
2.500000000000e-01 -1.250000000000e-01 1.200000000000e-01
-2.500000000000e-01 0.000000000000e+00 1.200000000000e-01
-1.250000000000e-01 0.000000000000e+00 1.200000000000e-01
0.000000000000e+00 0.000000000000e+00 1.200000000000e-01
1.250000000000e-01 0.000000000000e+00 1.200000000000e-01
2.500000000000e-01 0.000000000000e+00 1.200000000000e-01
-2.500000000000e-01 1.250000000000e-01 1.200000000000e-01
-1.250000000000e-01 1.250000000000e-01 1.200000000000e-01
0.000000000000e+00 1.250000000000e-01 1.200000000000e-01
1.250000000000e-01 1.250000000000e-01 1.200000000000e-01
2.500000000000e-01 1.250000000000e-01 1.200000000000e-01
-2.500000000000e-01 2.500000000000e-01 1.200000000000e-01
-1.250000000000e-01 2.500000000000e-01 1.200000000000e-01
0.000000000000e+00 2.500000000000e-01 1.200000000000e-01
1.250000000000e-01 2.500000000000e-01 1.200000000000e-01
2.500000000000e-01 2.500000000000e-01 1.200000000000e-01
-2.500000000000e-01 -2.500000000000e-01 1.800000000000e-01
-1.250000000000e-01 -2.500000000000e-01 1.800000000000e-01
0.000000000000e+00 -2.500000000000e-01 1.800000000000e-01
1.250000000000e-01 -2.500000000000e-01 1.800000000000e-01
2.500000000000e-01 -2.500000000000e-01 1.800000000000e-01
-2.500000000000e-01 -1.250000000000e-01 1.800000000000e-01
-1.250000000000e-01 -1.250000000000e-01 1.800000000000e-01
0.000000000000e+00 -1.250000000000e-01 1.800000000000e-01
1.250000000000e-01 -1.250000000000e-01 1.800000000000e-01
2.500000000000e-01 -1.250000000000e-01 1.800000000000e-01
-2.500000000000e-01 0.000000000000e+00 1.800000000000e-01
-1.250000000000e-01 0.000000000000e+00 1.800000000000e-01
0.000000000000e+00 0.000000000000e+00 1.800000000000e-01
1.250000000000e-01 0.000000000000e+00 1.800000000000e-01
2.500000000000e-01 0.000000000000e+00 1.800000000000e-01
-2.500000000000e-01 1.250000000000e-01 1.800000000000e-01
-1.250000000000e-01 1.250000000000e-01 1.800000000000e-01
0.000000000000e+00 1.250000000000e-01 1.800000000000e-01
1.250000000000e-01 1.250000000000e-01 1.800000000000e-01
2.500000000000e-01 1.250000000000e-01 1.800000000000e-01
-2.500000000000e-01 2.500000000000e-01 1.800000000000e-01
-1.250000000000e-01 2.500000000000e-01 1.800000000000e-01
0.000000000000e+00 2.500000000000e-01 1.800000000000e-01
1.250000000000e-01 2.500000000000e-01 1.800000000000e-01
2.500000000000e-01 2.500000000000e-01 1.800000000000e-01
-2.500000000000e-01 -2.500000000000e-01 2.400000000000e-01
-1.250000000000e-01 -2.500000000000e-01 2.400000000000e-01
0.000000000000e+00 -2.500000000000e-01 2.400000000000e-01
1.250000000000e-01 -2.500000000000e-01 2.400000000000e-01
2.500000000000e-01 -2.500000000000e-01 2.400000000000e-01
-2.500000000000e-01 -1.250000000000e-01 2.400000000000e-01
-1.250000000000e-01 -1.250000000000e-01 2.400000000000e-01
0.000000000000e+00 -1.250000000000e-01 2.400000000000e-01
1.250000000000e-01 -1.250000000000e-01 2.400000000000e-01
2.500000000000e-01 -1.250000000000e-01 2.400000000000e-01
-2.500000000000e-01 0.000000000000e+00 2.400000000000e-01
-1.250000000000e-01 0.000000000000e+00 2.400000000000e-01
0.000000000000e+00 0.000000000000e+00 2.400000000000e-01
1.250000000000e-01 0.000000000000e+00 2.400000000000e-01
2.500000000000e-01 0.000000000000e+00 2.400000000000e-01
-2.500000000000e-01 1.250000000000e-01 2.400000000000e-01
-1.250000000000e-01 1.250000000000e-01 2.400000000000e-01
0.000000000000e+00 1.250000000000e-01 2.400000000000e-01
1.250000000000e-01 1.250000000000e-01 2.400000000000e-01
2.500000000000e-01 1.250000000000e-01 2.400000000000e-01
-2.500000000000e-01 2.500000000000e-01 2.400000000000e-01
-1.250000000000e-01 2.500000000000e-01 2.400000000000e-01
0.000000000000e+00 2.500000000000e-01 2.400000000000e-01
1.250000000000e-01 2.500000000000e-01 2.400000000000e-01
2.500000000000e-01 2.500000000000e-01 2.400000000000e-01
-2.499999999994e-01 -2.499999999999e-01 2.441108796367e-01
-1.249999999994e-01 -2.499999999999e-01 2.441108796372e-01
5.545661772138e-13 -2.500000000000e-01 2.441108796377e-01
1.250000000006e-01 -2.500000000000e-01 2.441108796382e-01
2.500000000006e-01 -2.500000000000e-01 2.441108796387e-01
-2.499999999994e-01 -1.249999999999e-01 2.441108796369e-01
-1.249999999994e-01 -1.249999999999e-01 2.441108796374e-01
5.654817594967e-13 -1.250000000000e-01 2.441108796379e-01
1.250000000006e-01 -1.250000000000e-01 2.441108796384e-01
2.500000000006e-01 -1.250000000000e-01 2.441108796389e-01
-2.499999999994e-01 7.159744640183e-14 2.441108796371e-01
-1.249999999994e-01 6.068571736928e-14 2.441108796376e-01
5.764034129579e-13 4.977520423401e-14 2.441108796380e-01
1.250000000006e-01 3.885842758509e-14 2.441108796385e-01
2.500000000006e-01 2.794470641262e-14 2.441108796390e-01
-2.499999999994e-01 1.250000000001e-01 2.441108796372e-01
-1.249999999994e-01 1.250000000001e-01 2.441108796377e-01
5.873209882520e-13 1.250000000000e-01 2.441108796382e-01
1.250000000006e-01 1.250000000000e-01 2.441108796387e-01
2.500000000006e-01 1.250000000000e-01 2.441108796392e-01
-2.499999999994e-01 2.500000000001e-01 2.441108796374e-01
-1.249999999994e-01 2.500000000001e-01 2.441108796379e-01
5.982418244611e-13 2.500000000000e-01 2.441108796384e-01
1.250000000006e-01 2.500000000000e-01 2.441108796389e-01
2.500000000006e-01 2.500000000000e-01 2.441108796394e-01
-2.499999999997e-01 -2.500000000000e-01 3.091108796367e-01
-1.249999999997e-01 -2.500000000000e-01 3.091108796372e-01
2.978663216041e-13 -2.500000000000e-01 3.091108796377e-01
1.250000000003e-01 -2.500000000000e-01 3.091108796382e-01
2.500000000003e-01 -2.500000000001e-01 3.091108796387e-01
-2.499999999997e-01 -1.250000000000e-01 3.091108796369e-01
-1.249999999997e-01 -1.250000000000e-01 3.091108796374e-01
3.087818673415e-13 -1.250000000000e-01 3.091108796379e-01
1.250000000003e-01 -1.250000000000e-01 3.091108796384e-01
2.500000000003e-01 -1.250000000001e-01 3.091108796389e-01
-2.499999999997e-01 -1.595071334674e-14 3.091108796371e-01
-1.249999999997e-01 -2.686427753786e-14 3.091108796376e-01
3.196987795653e-13 -3.777983675270e-14 3.091108796380e-01
1.250000000003e-01 -4.869442563978e-14 3.091108796385e-01
2.500000000003e-01 -5.961204284459e-14 3.091108796390e-01
-2.499999999997e-01 1.250000000000e-01 3.091108796372e-01
-1.249999999997e-01 1.250000000000e-01 3.091108796377e-01
3.306180953068e-13 1.250000000000e-01 3.091108796382e-01
1.250000000003e-01 1.250000000000e-01 3.091108796387e-01
2.500000000003e-01 1.249999999999e-01 3.091108796392e-01
-2.499999999997e-01 2.500000000000e-01 3.091108796374e-01
-1.249999999997e-01 2.500000000000e-01 3.091108796379e-01
3.415361895700e-13 2.500000000000e-01 3.091108796384e-01
1.250000000003e-01 2.500000000000e-01 3.091108796389e-01
2.500000000003e-01 2.499999999999e-01 3.091108796394e-01
-2.500000000000e-01 -2.500000000001e-01 3.741108796367e-01
-1.250000000000e-01 -2.500000000001e-01 3.741108796372e-01
4.116643197019e-14 -2.500000000001e-01 3.741108796377e-01
1.250000000000e-01 -2.500000000001e-01 3.741108796382e-01
2.500000000000e-01 -2.500000000001e-01 3.741108796387e-01
-2.499999999999e-01 -1.250000000001e-01 3.741108796369e-01
-1.249999999999e-01 -1.250000000001e-01 3.741108796374e-01
5.208152825925e-14 -1.250000000001e-01 3.741108796379e-01
1.250000000001e-01 -1.250000000001e-01 3.741108796384e-01
2.500000000001e-01 -1.250000000001e-01 3.741108796389e-01
-2.499999999999e-01 -1.035016118314e-13 3.741108796371e-01
-1.249999999999e-01 -1.144164344521e-13 3.741108796376e-01
6.299773029407e-14 -1.253317638242e-13 3.741108796380e-01
1.250000000001e-01 -1.362493884390e-13 3.741108796385e-01
2.500000000001e-01 -1.471648975622e-13 3.741108796390e-01
-2.499999999999e-01 1.249999999999e-01 3.741108796372e-01
-1.249999999999e-01 1.249999999999e-01 3.741108796377e-01
7.391265198198e-14 1.249999999999e-01 3.741108796382e-01
1.250000000001e-01 1.249999999999e-01 3.741108796387e-01
2.500000000001e-01 1.249999999999e-01 3.741108796392e-01
-2.499999999999e-01 2.499999999999e-01 3.741108796374e-01
-1.249999999999e-01 2.499999999999e-01 3.741108796379e-01
8.482979217461e-14 2.499999999999e-01 3.741108796384e-01
1.250000000001e-01 2.499999999999e-01 3.741108796389e-01
2.500000000001e-01 2.499999999999e-01 3.741108796394e-01
-2.500000000002e-01 -2.500000000002e-01 4.391108796367e-01
-1.250000000002e-01 -2.500000000002e-01 4.391108796372e-01
-2.155337378989e-13 -2.500000000002e-01 4.391108796377e-01
1.249999999998e-01 -2.500000000002e-01 4.391108796382e-01
2.499999999998e-01 -2.500000000002e-01 4.391108796387e-01
-2.500000000002e-01 -1.250000000002e-01 4.391108796369e-01
-1.250000000002e-01 -1.250000000002e-01 4.391108796374e-01
-2.046180140896e-13 -1.250000000002e-01 4.391108796379e-01
1.249999999998e-01 -1.250000000002e-01 4.391108796384e-01
2.499999999998e-01 -1.250000000002e-01 4.391108796389e-01
-2.500000000002e-01 -1.910544716525e-13 4.391108796371e-01
-1.250000000002e-01 -2.019667413287e-13 4.391108796376e-01
-1.937054831252e-13 -2.128855839814e-13 4.391108796380e-01
1.249999999998e-01 -2.238019957383e-13 4.391108796385e-01
2.499999999998e-01 -2.347190301080e-13 4.391108796390e-01
-2.500000000002e-01 1.249999999998e-01 4.391108796372e-01
-1.250000000002e-01 1.249999999998e-01 4.391108796377e-01
-1.827907109476e-13 1.249999999998e-01 4.391108796382e-01
1.249999999998e-01 1.249999999998e-01 4.391108796387e-01
2.499999999998e-01 1.249999999998e-01 4.391108796392e-01
-2.500000000002e-01 2.499999999998e-01 4.391108796374e-01
-1.250000000002e-01 2.499999999998e-01 4.391108796379e-01
-1.718752926111e-13 2.499999999998e-01 4.391108796384e-01
1.249999999998e-01 2.499999999998e-01 4.391108796389e-01
2.499999999998e-01 2.499999999998e-01 4.391108796394e-01
-2.500000000005e-01 -2.500000000003e-01 5.041108796367e-01
-1.250000000005e-01 -2.500000000003e-01 5.041108796372e-01
-4.722340095395e-13 -2.500000000003e-01 5.041108796377e-01
1.249999999995e-01 -2.500000000003e-01 5.041108796382e-01
2.499999999995e-01 -2.500000000003e-01 5.041108796387e-01
-2.500000000005e-01 -1.250000000003e-01 5.041108796369e-01
-1.250000000005e-01 -1.250000000003e-01 5.041108796374e-01
-4.613172638239e-13 -1.250000000003e-01 5.041108796379e-01
1.249999999995e-01 -1.250000000003e-01 5.041108796384e-01
2.499999999995e-01 -1.250000000003e-01 5.041108796389e-01
-2.500000000005e-01 -2.786022227274e-13 5.041108796371e-01
-1.250000000005e-01 -2.895189128465e-13 5.041108796376e-01
-4.504077757717e-13 -3.004369269492e-13 5.041108796380e-01
1.249999999995e-01 -3.113580035917e-13 5.041108796385e-01
2.499999999995e-01 -3.222766294197e-13 5.041108796390e-01
-2.500000000004e-01 1.249999999997e-01 5.041108796372e-01
-1.250000000004e-01 1.249999999997e-01 5.041108796377e-01
-4.394938433752e-13 1.249999999997e-01 5.041108796382e-01
1.249999999996e-01 1.249999999997e-01 5.041108796387e-01
2.499999999996e-01 1.249999999997e-01 5.041108796392e-01
-2.500000000004e-01 2.499999999997e-01 5.041108796374e-01
-1.250000000004e-01 2.499999999997e-01 5.041108796379e-01
-4.285809000124e-13 2.499999999997e-01 5.041108796384e-01
1.249999999996e-01 2.499999999997e-01 5.041108796389e-01
2.499999999996e-01 2.499999999997e-01 5.041108796394e-01
CELLS 128 1152
8 0 1 6 5 25 26 31 30
8 1 2 7 6 26 27 32 31
8 2 3 8 7 27 28 33 32
8 3 4 9 8 28 29 34 33
8 5 6 11 10 30 31 36 35
8 6 7 12 11 31 32 37 36
8 7 8 13 12 32 33 38 37
8 8 9 14 13 33 34 39 38
8 10 11 16 15 35 36 41 40
8 11 12 17 16 36 37 42 41
8 12 13 18 17 37 38 43 42
8 13 14 19 18 38 39 44 43
8 15 16 21 20 40 41 46 45
8 16 17 22 21 41 42 47 46
8 17 18 23 22 42 43 48 47
8 18 19 24 23 43 44 49 48
8 25 26 31 30 50 51 56 55
8 26 27 32 31 51 52 57 56
8 27 28 33 32 52 53 58 57
8 28 29 34 33 53 54 59 58
8 30 31 36 35 55 56 61 60
8 31 32 37 36 56 57 62 61
8 32 33 38 37 57 58 63 62
8 33 34 39 38 58 59 64 63
8 35 36 41 40 60 61 66 65
8 36 37 42 41 61 62 67 66
8 37 38 43 42 62 63 68 67
8 38 39 44 43 63 64 69 68
8 40 41 46 45 65 66 71 70
8 41 42 47 46 66 67 72 71
8 42 43 48 47 67 68 73 72
8 43 44 49 48 68 69 74 73
8 50 51 56 55 75 76 81 80
8 51 52 57 56 76 77 82 81
8 52 53 58 57 77 78 83 82
8 53 54 59 58 78 79 84 83
8 55 56 61 60 80 81 86 85
8 56 57 62 61 81 82 87 86
8 57 58 63 62 82 83 88 87
8 58 59 64 63 83 84 89 88
8 60 61 66 65 85 86 91 90
8 61 62 67 66 86 87 92 91
8 62 63 68 67 87 88 93 92
8 63 64 69 68 88 89 94 93
8 65 66 71 70 90 91 96 95
8 66 67 72 71 91 92 97 96
8 67 68 73 72 92 93 98 97
8 68 69 74 73 93 94 99 98
8 75 76 81 80 100 101 106 105
8 76 77 82 81 101 102 107 106
8 77 78 83 82 102 103 108 107
8 78 79 84 83 103 104 109 108
8 80 81 86 85 105 106 111 110
8 81 82 87 86 106 107 112 111
8 82 83 88 87 107 108 113 112
8 83 84 89 88 108 109 114 113
8 85 86 91 90 110 111 116 115
8 86 87 92 91 111 112 117 116
8 87 88 93 92 112 113 118 117
8 88 89 94 93 113 114 119 118
8 90 91 96 95 115 116 121 120
8 91 92 97 96 116 117 122 121
8 92 93 98 97 117 118 123 122
8 93 94 99 98 118 119 124 123
8 125 126 131 130 150 151 156 155
8 126 127 132 131 151 152 157 156
8 127 128 133 132 152 153 158 157
8 128 129 134 133 153 154 159 158
8 130 131 136 135 155 156 161 160
8 131 132 137 136 156 157 162 161
8 132 133 138 137 157 158 163 162
8 133 134 139 138 158 159 164 163
8 135 136 141 140 160 161 166 165
8 136 137 142 141 161 162 167 166
8 137 138 143 142 162 163 168 167
8 138 139 144 143 163 164 169 168
8 140 141 146 145 165 166 171 170
8 141 142 147 146 166 167 172 171
8 142 143 148 147 167 168 173 172
8 143 144 149 148 168 169 174 173
8 150 151 156 155 175 176 181 180
8 151 152 157 156 176 177 182 181
8 152 153 158 157 177 178 183 182
8 153 154 159 158 178 179 184 183
8 155 156 161 160 180 181 186 185
8 156 157 162 161 181 182 187 186
8 157 158 163 162 182 183 188 187
8 158 159 164 163 183 184 189 188
8 160 161 166 165 185 186 191 190
8 161 162 167 166 186 187 192 191
8 162 163 168 167 187 188 193 192
8 163 164 169 168 188 189 194 193
8 165 166 171 170 190 191 196 195
8 166 167 172 171 191 192 197 196
8 167 168 173 172 192 193 198 197
8 168 169 174 173 193 194 199 198
8 175 176 181 180 200 201 206 205
8 176 177 182 181 201 202 207 206
8 177 178 183 182 202 203 208 207
8 178 179 184 183 203 204 209 208
8 180 181 186 185 205 206 211 210
8 181 182 187 186 206 207 212 211
8 182 183 188 187 207 208 213 212
8 183 184 189 188 208 209 214 213
8 185 186 191 190 210 211 216 215
8 186 187 192 191 211 212 217 216
8 187 188 193 192 212 213 218 217
8 188 189 194 193 213 214 219 218
8 190 191 196 195 215 216 221 220
8 191 192 197 196 216 217 222 221
8 192 193 198 197 217 218 223 222
8 193 194 199 198 218 219 224 223
8 200 201 206 205 225 226 231 230
8 201 202 207 206 226 227 232 231
8 202 203 208 207 227 228 233 232
8 203 204 209 208 228 229 234 233
8 205 206 211 210 230 231 236 235
8 206 207 212 211 231 232 237 236
8 207 208 213 212 232 233 238 237
8 208 209 214 213 233 234 239 238
8 210 211 216 215 235 236 241 240
8 211 212 217 216 236 237 242 241
8 212 213 218 217 237 238 243 242
8 213 214 219 218 238 239 244 243
8 215 216 221 220 240 241 246 245
8 216 217 222 221 241 242 247 246
8 217 218 223 222 242 243 248 247
8 218 219 224 223 243 244 249 248
CELL_TYPES 128
12
12
12
12
12
12
12
12
12
12
12
12
12
12
12
12
12
12
12
12
12
12
12
12
12
12
12
12
12
12
12
12
12
12
12
12
12
12
12
12
12
12
12
12
12
12
12
12
12
12
12
12
12
12
12
12
12
12
12
12
12
12
12
12
12
12
12
12
12
12
12
12
12
12
12
12
12
12
12
12
12
12
12
12
12
12
12
12
12
12
12
12
12
12
12
12
12
12
12
12
12
12
12
12
12
12
12
12
12
12
12
12
12
12
12
12
12
12
12
12
12
12
12
12
12
12
12
12
POINT_DATA 250
VECTORS displacement float
0.000000000000e+00 0.000000000000e+00 0.000000000000e+00
0.000000000000e+00 0.000000000000e+00 0.000000000000e+00
0.000000000000e+00 0.000000000000e+00 0.000000000000e+00
0.000000000000e+00 0.000000000000e+00 0.000000000000e+00
0.000000000000e+00 0.000000000000e+00 0.000000000000e+00
0.000000000000e+00 0.000000000000e+00 0.000000000000e+00
0.000000000000e+00 0.000000000000e+00 0.000000000000e+00
0.000000000000e+00 0.000000000000e+00 0.000000000000e+00
0.000000000000e+00 0.000000000000e+00 0.000000000000e+00
0.000000000000e+00 0.000000000000e+00 0.000000000000e+00
0.000000000000e+00 0.000000000000e+00 0.000000000000e+00
0.000000000000e+00 0.000000000000e+00 0.000000000000e+00
0.000000000000e+00 0.000000000000e+00 0.000000000000e+00
0.000000000000e+00 0.000000000000e+00 0.000000000000e+00
0.000000000000e+00 0.000000000000e+00 0.000000000000e+00
0.000000000000e+00 0.000000000000e+00 0.000000000000e+00
0.000000000000e+00 0.000000000000e+00 0.000000000000e+00
0.000000000000e+00 0.000000000000e+00 0.000000000000e+00
0.000000000000e+00 0.000000000000e+00 0.000000000000e+00
0.000000000000e+00 0.000000000000e+00 0.000000000000e+00
0.000000000000e+00 0.000000000000e+00 0.000000000000e+00
0.000000000000e+00 0.000000000000e+00 0.000000000000e+00
0.000000000000e+00 0.000000000000e+00 0.000000000000e+00
0.000000000000e+00 0.000000000000e+00 0.000000000000e+00
0.000000000000e+00 0.000000000000e+00 0.000000000000e+00
0.000000000000e+00 0.000000000000e+00 0.000000000000e+00
0.000000000000e+00 0.000000000000e+00 0.000000000000e+00
0.000000000000e+00 0.000000000000e+00 0.000000000000e+00
0.000000000000e+00 0.000000000000e+00 0.000000000000e+00
0.000000000000e+00 0.000000000000e+00 0.000000000000e+00
0.000000000000e+00 0.000000000000e+00 0.000000000000e+00
0.000000000000e+00 0.000000000000e+00 0.000000000000e+00
0.000000000000e+00 0.000000000000e+00 0.000000000000e+00
0.000000000000e+00 0.000000000000e+00 0.000000000000e+00
0.000000000000e+00 0.000000000000e+00 0.000000000000e+00
0.000000000000e+00 0.000000000000e+00 0.000000000000e+00
0.000000000000e+00 0.000000000000e+00 0.000000000000e+00
0.000000000000e+00 0.000000000000e+00 0.000000000000e+00
0.000000000000e+00 0.000000000000e+00 0.000000000000e+00
0.000000000000e+00 0.000000000000e+00 0.000000000000e+00
0.000000000000e+00 0.000000000000e+00 0.000000000000e+00
0.000000000000e+00 0.000000000000e+00 0.000000000000e+00
0.000000000000e+00 0.000000000000e+00 0.000000000000e+00
0.000000000000e+00 0.000000000000e+00 0.000000000000e+00
0.000000000000e+00 0.000000000000e+00 0.000000000000e+00
0.000000000000e+00 0.000000000000e+00 0.000000000000e+00
0.000000000000e+00 0.000000000000e+00 0.000000000000e+00
0.000000000000e+00 0.000000000000e+00 0.000000000000e+00
0.000000000000e+00 0.000000000000e+00 0.000000000000e+00
0.000000000000e+00 0.000000000000e+00 0.000000000000e+00
0.000000000000e+00 0.000000000000e+00 0.000000000000e+00
0.000000000000e+00 0.000000000000e+00 0.000000000000e+00
0.000000000000e+00 0.000000000000e+00 0.000000000000e+00
0.000000000000e+00 0.000000000000e+00 0.000000000000e+00
0.000000000000e+00 0.000000000000e+00 0.000000000000e+00
0.000000000000e+00 0.000000000000e+00 0.000000000000e+00
0.000000000000e+00 0.000000000000e+00 0.000000000000e+00
0.000000000000e+00 0.000000000000e+00 0.000000000000e+00
0.000000000000e+00 0.000000000000e+00 0.000000000000e+00
0.000000000000e+00 0.000000000000e+00 0.000000000000e+00
0.000000000000e+00 0.000000000000e+00 0.000000000000e+00
0.000000000000e+00 0.000000000000e+00 0.000000000000e+00
0.000000000000e+00 0.000000000000e+00 0.000000000000e+00
0.000000000000e+00 0.000000000000e+00 0.000000000000e+00
0.000000000000e+00 0.000000000000e+00 0.000000000000e+00
0.000000000000e+00 0.000000000000e+00 0.000000000000e+00
0.000000000000e+00 0.000000000000e+00 0.000000000000e+00
0.000000000000e+00 0.000000000000e+00 0.000000000000e+00
0.000000000000e+00 0.000000000000e+00 0.000000000000e+00
0.000000000000e+00 0.000000000000e+00 0.000000000000e+00
0.000000000000e+00 0.000000000000e+00 0.000000000000e+00
0.000000000000e+00 0.000000000000e+00 0.000000000000e+00
0.000000000000e+00 0.000000000000e+00 0.000000000000e+00
0.000000000000e+00 0.000000000000e+00 0.000000000000e+00
0.000000000000e+00 0.000000000000e+00 0.000000000000e+00
0.000000000000e+00 0.000000000000e+00 0.000000000000e+00
0.000000000000e+00 0.000000000000e+00 0.000000000000e+00
0.000000000000e+00 0.000000000000e+00 0.000000000000e+00
0.000000000000e+00 0.000000000000e+00 0.000000000000e+00
0.000000000000e+00 0.000000000000e+00 0.000000000000e+00
0.000000000000e+00 0.000000000000e+00 0.000000000000e+00
0.000000000000e+00 0.000000000000e+00 0.000000000000e+00
0.000000000000e+00 0.000000000000e+00 0.000000000000e+00
0.000000000000e+00 0.000000000000e+00 0.000000000000e+00
0.000000000000e+00 0.000000000000e+00 0.000000000000e+00
0.000000000000e+00 0.000000000000e+00 0.000000000000e+00
0.000000000000e+00 0.000000000000e+00 0.000000000000e+00
0.000000000000e+00 0.000000000000e+00 0.000000000000e+00
0.000000000000e+00 0.000000000000e+00 0.000000000000e+00
0.000000000000e+00 0.000000000000e+00 0.000000000000e+00
0.000000000000e+00 0.000000000000e+00 0.000000000000e+00
0.000000000000e+00 0.000000000000e+00 0.000000000000e+00
0.000000000000e+00 0.000000000000e+00 0.000000000000e+00
0.000000000000e+00 0.000000000000e+00 0.000000000000e+00
0.000000000000e+00 0.000000000000e+00 0.000000000000e+00
0.000000000000e+00 0.000000000000e+00 0.000000000000e+00
0.000000000000e+00 0.000000000000e+00 0.000000000000e+00
0.000000000000e+00 0.000000000000e+00 0.000000000000e+00
0.000000000000e+00 0.000000000000e+00 0.000000000000e+00
0.000000000000e+00 0.000000000000e+00 0.000000000000e+00
0.000000000000e+00 0.000000000000e+00 0.000000000000e+00
0.000000000000e+00 0.000000000000e+00 0.000000000000e+00
0.000000000000e+00 0.000000000000e+00 0.000000000000e+00
0.000000000000e+00 0.000000000000e+00 0.000000000000e+00
0.000000000000e+00 0.000000000000e+00 0.000000000000e+00
0.000000000000e+00 0.000000000000e+00 0.000000000000e+00
0.000000000000e+00 0.000000000000e+00 0.000000000000e+00
0.000000000000e+00 0.000000000000e+00 0.000000000000e+00
0.000000000000e+00 0.000000000000e+00 0.000000000000e+00
0.000000000000e+00 0.000000000000e+00 0.000000000000e+00
0.000000000000e+00 0.000000000000e+00 0.000000000000e+00
0.000000000000e+00 0.000000000000e+00 0.000000000000e+00
0.000000000000e+00 0.000000000000e+00 0.000000000000e+00
0.000000000000e+00 0.000000000000e+00 0.000000000000e+00
0.000000000000e+00 0.000000000000e+00 0.000000000000e+00
0.000000000000e+00 0.000000000000e+00 0.000000000000e+00
0.000000000000e+00 0.000000000000e+00 0.000000000000e+00
0.000000000000e+00 0.000000000000e+00 0.000000000000e+00
0.000000000000e+00 0.000000000000e+00 0.000000000000e+00
0.000000000000e+00 0.000000000000e+00 0.000000000000e+00
0.000000000000e+00 0.000000000000e+00 0.000000000000e+00
0.000000000000e+00 0.000000000000e+00 0.000000000000e+00
0.000000000000e+00 0.000000000000e+00 0.000000000000e+00
0.000000000000e+00 0.000000000000e+00 0.000000000000e+00
0.000000000000e+00 0.000000000000e+00 0.000000000000e+00
5.545461068411e-13 7.159204152430e-14 -1.088912036328e-02
5.545538116409e-13 6.067909198023e-14 -1.088912036278e-02
5.545661772138e-13 4.976429884426e-14 -1.088912036229e-02
5.545800782128e-13 3.885434292761e-14 -1.088912036180e-02
5.545929817366e-13 2.793540121848e-14 -1.088912036130e-02
5.654650546146e-13 7.159455499026e-14 -1.088912036311e-02
5.654668008075e-13 6.067888018534e-14 -1.088912036261e-02
5.654817594967e-13 4.976738996350e-14 -1.088912036212e-02
5.654980953775e-13 3.885251219647e-14 -1.088912036163e-02
5.655010261371e-13 2.793711952622e-14 -1.088912036113e-02
5.763789241781e-13 7.159744640183e-14 -1.088912036294e-02
5.763870218043e-13 6.068571736928e-14 -1.088912036245e-02
5.764034129579e-13 4.977520423401e-14 -1.088912036195e-02
5.764153183263e-13 3.885842758509e-14 -1.088912036146e-02
5.764174627995e-13 2.794470641262e-14 -1.088912036097e-02
5.873045784332e-13 7.160411250432e-14 -1.088912036277e-02
5.873107595370e-13 6.069106512167e-14 -1.088912036228e-02
5.873209882520e-13 4.977923881445e-14 -1.088912036178e-02
5.873370265843e-13 3.886788775724e-14 -1.088912036129e-02
5.873545507944e-13 2.794810988937e-14 -1.088912036080e-02
5.982270042549e-13 7.160745100439e-14 -1.088912036260e-02
5.982290963981e-13 6.069042338936e-14 -1.088912036211e-02
5.982418244611e-13 4.977869286366e-14 -1.088912036162e-02
5.982555793732e-13 3.886916983564e-14 -1.088912036112e-02
5.982567825518e-13 2.794209732067e-14 -1.088912036063e-02
2.978572841512e-13 -1.595283060374e-14 -1.088912036328e-02
2.978617303513e-13 -2.686738105555e-14 -1.088912036278e-02
2.978663216041e-13 -3.777649420170e-14 -1.088912036229e-02
2.978720991059e-13 -4.869805301085e-14 -1.088912036180e-02
2.978740847728e-13 -5.961649934255e-14 -1.088912036130e-02
3.087737896143e-13 -1.595382257927e-14 -1.088912036311e-02
3.087788292589e-13 -2.686754226861e-14 -1.088912036261e-02
3.087818673415e-13 -3.778184943252e-14 -1.088912036212e-02
3.087864373250e-13 -4.869900651040e-14 -1.088912036163e-02
3.087932375715e-13 -5.961350958109e-14 -1.088912036113e-02
3.196895225663e-13 -1.595071334674e-14 -1.088912036294e-02
3.196926163474e-13 -2.686427753786e-14 -1.088912036245e-02
3.196987795653e-13 -3.777983675270e-14 -1.088912036195e-02
3.197070722546e-13 -4.869442563978e-14 -1.088912036146e-02
3.197087645703e-13 -5.961204284459e-14 -1.088912036097e-02
3.306059451622e-13 -1.594760216087e-14 -1.088912036277e-02
3.306120688532e-13 -2.686322450240e-14 -1.088912036228e-02
3.306180953068e-13 -3.777620598809e-14 -1.088912036178e-02
3.306230745043e-13 -4.869139296207e-14 -1.088912036129e-02
3.306273082370e-13 -5.961127574015e-14 -1.088912036080e-02
3.415280299478e-13 -1.594716066582e-14 -1.088912036260e-02
3.415303285783e-13 -2.686341257235e-14 -1.088912036211e-02
3.415361895700e-13 -3.777856344618e-14 -1.088912036162e-02
3.415409303135e-13 -4.869343288010e-14 -1.088912036112e-02
3.415474569706e-13 -5.960703655752e-14 -1.088912036063e-02
4.116469012938e-14 -1.035024290518e-13 -1.088912036328e-02
4.116788552576e-14 -1.144185762804e-13 -1.088912036278e-02
4.116643197019e-14 -1.253295418358e-13 -1.088912036229e-02
4.116553237637e-14 -1.362530192106e-13 -1.088912036180e-02
4.116447775502e-14 -1.471702983142e-13 -1.088912036130e-02
5.208316898720e-14 -1.035032375396e-13 -1.088912036311e-02
5.208362208919e-14 -1.144164674458e-13 -1.088912036261e-02
5.208152825925e-14 -1.253315349634e-13 -1.088912036212e-02
5.208135094393e-14 -1.362499265819e-13 -1.088912036163e-02
5.208588315315e-14 -1.471655149810e-13 -1.088912036113e-02
6.299521835612e-14 -1.035016118314e-13 -1.088912036294e-02
6.299616521587e-14 -1.144164344521e-13 -1.088912036245e-02
6.299773029407e-14 -1.253317638242e-13 -1.088912036195e-02
6.299921010154e-14 -1.362493884390e-13 -1.088912036146e-02
6.300015322753e-14 -1.471648975622e-13 -1.088912036097e-02
7.390929546461e-14 -1.035011091682e-13 -1.088912036277e-02
7.391244020470e-14 -1.144163663564e-13 -1.088912036228e-02
7.391265198198e-14 -1.253300115821e-13 -1.088912036178e-02
7.391354313716e-14 -1.362480503584e-13 -1.088912036129e-02
7.391540466620e-14 -1.471668403547e-13 -1.088912036080e-02
8.482968760081e-14 -1.035001370205e-13 -1.088912036260e-02
8.483012832379e-14 -1.144156227777e-13 -1.088912036211e-02
8.482979217461e-14 -1.253301705109e-13 -1.088912036162e-02
8.483059398565e-14 -1.362491594771e-13 -1.088912036112e-02
8.483292073218e-14 -1.471670694861e-13 -1.088912036063e-02
-2.155274566616e-13 -1.910484455236e-13 -1.088912036328e-02
-2.155281095137e-13 -2.019701469421e-13 -1.088912036278e-02
-2.155337378989e-13 -2.128808277684e-13 -1.088912036229e-02
-2.155391310370e-13 -2.238021582231e-13 -1.088912036180e-02
-2.155411557599e-13 -2.347179238247e-13 -1.088912036130e-02
-2.046111164532e-13 -1.910506645417e-13 -1.088912036311e-02
-2.046122858694e-13 -2.019659574778e-13 -1.088912036261e-02
-2.046180140896e-13 -2.128822167015e-13 -1.088912036212e-02
-2.046226982114e-13 -2.238023256282e-13 -1.088912036163e-02
-2.046205002496e-13 -2.347158373808e-13 -1.088912036113e-02
-1.936932152175e-13 -1.910544716525e-13 -1.088912036294e-02
-1.937002050848e-13 -2.019667413287e-13 -1.088912036245e-02
-1.937054831252e-13 -2.128855839814e-13 -1.088912036195e-02
-1.937070564689e-13 -2.238019957383e-13 -1.088912036146e-02
-1.937094182077e-13 -2.347190301080e-13 -1.088912036097e-02
-1.827875373663e-13 -1.910555416894e-13 -1.088912036277e-02
-1.827870331683e-13 -2.019695642412e-13 -1.088912036228e-02
-1.827907109476e-13 -2.128852937909e-13 -1.088912036178e-02
-1.827952228099e-13 -2.238061765024e-13 -1.088912036129e-02
-1.827973248742e-13 -2.347208574332e-13 -1.088912036080e-02
-1.718683673806e-13 -1.910551466307e-13 -1.088912036260e-02
-1.718694644683e-13 -2.019686765299e-13 -1.088912036211e-02
-1.718752926111e-13 -2.128904895442e-13 -1.088912036162e-02
-1.718793824017e-13 -2.238081424477e-13 -1.088912036112e-02
-1.718773997828e-13 -2.347232640669e-13 -1.088912036063e-02
-4.722208385783e-13 -2.785993596100e-13 -1.088912036328e-02
-4.722223433421e-13 -2.895116447118e-13 -1.088912036278e-02
-4.722340095395e-13 -3.004294580122e-13 -1.088912036229e-02
-4.722463733557e-13 -3.113459562752e-13 -1.088912036180e-02
-4.722467023765e-13 -3.222694808635e-13 -1.088912036130e-02
-4.612971630996e-13 -2.786007263946e-13 -1.088912036311e-02
-4.613081509310e-13 -2.895117283163e-13 -1.088912036261e-02
-4.613172638239e-13 -3.004308373466e-13 -1.088912036212e-02
-4.613265229177e-13 -3.113494544644e-13 -1.088912036163e-02
-4.613380961070e-13 -3.222694170302e-13 -1.088912036113e-02
-4.503811313461e-13 -2.786022227274e-13 -1.088912036294e-02
-4.503926863077e-13 -2.895189128465e-13 -1.088912036245e-02
-4.504077757717e-13 -3.004369269492e-13 -1.088912036195e-02
-4.504201815276e-13 -3.113580035917e-13 -1.088912036146e-02
-4.504236209070e-13 -3.222766294197e-13 -1.088912036097e-02
-4.394820982726e-13 -2.786065891079e-13 -1.088912036277e-02
-4.394876097666e-13 -2.895249035376e-13 -1.088912036228e-02
-4.394938433752e-13 -3.004476342460e-13 -1.088912036178e-02
-4.395069134736e-13 -3.113663346160e-13 -1.088912036129e-02
-4.395185425363e-13 -3.222794546921e-13 -1.088912036080e-02
-4.285696447073e-13 -2.786089161454e-13 -1.088912036260e-02
-4.285728229108e-13 -2.895225917451e-13 -1.088912036211e-02
-4.285809000124e-13 -3.004519857244e-13 -1.088912036162e-02
-4.285894231902e-13 -3.113700042925e-13 -1.088912036112e-02
-4.285960527022e-13 -3.222791271601e-13 -1.088912036063e-02
SCALARS displacement_magnitude float 1
LOOKUP_TABLE default
0.000000000000e+00
0.000000000000e+00
0.000000000000e+00
0.000000000000e+00
0.000000000000e+00
0.000000000000e+00
0.000000000000e+00
0.000000000000e+00
0.000000000000e+00
0.000000000000e+00
0.000000000000e+00
0.000000000000e+00
0.000000000000e+00
0.000000000000e+00
0.000000000000e+00
0.000000000000e+00
0.000000000000e+00
0.000000000000e+00
0.000000000000e+00
0.000000000000e+00
0.000000000000e+00
0.000000000000e+00
0.000000000000e+00
0.000000000000e+00
0.000000000000e+00
0.000000000000e+00
0.000000000000e+00
0.000000000000e+00
0.000000000000e+00
0.000000000000e+00
0.000000000000e+00
0.000000000000e+00
0.000000000000e+00
0.000000000000e+00
0.000000000000e+00
0.000000000000e+00
0.000000000000e+00
0.000000000000e+00
0.000000000000e+00
0.000000000000e+00
0.000000000000e+00
0.000000000000e+00
0.000000000000e+00
0.000000000000e+00
0.000000000000e+00
0.000000000000e+00
0.000000000000e+00
0.000000000000e+00
0.000000000000e+00
0.000000000000e+00
0.000000000000e+00
0.000000000000e+00
0.000000000000e+00
0.000000000000e+00
0.000000000000e+00
0.000000000000e+00
0.000000000000e+00
0.000000000000e+00
0.000000000000e+00
0.000000000000e+00
0.000000000000e+00
0.000000000000e+00
0.000000000000e+00
0.000000000000e+00
0.000000000000e+00
0.000000000000e+00
0.000000000000e+00
0.000000000000e+00
0.000000000000e+00
0.000000000000e+00
0.000000000000e+00
0.000000000000e+00
0.000000000000e+00
0.000000000000e+00
0.000000000000e+00
0.000000000000e+00
0.000000000000e+00
0.000000000000e+00
0.000000000000e+00
0.000000000000e+00
0.000000000000e+00
0.000000000000e+00
0.000000000000e+00
0.000000000000e+00
0.000000000000e+00
0.000000000000e+00
0.000000000000e+00
0.000000000000e+00
0.000000000000e+00
0.000000000000e+00
0.000000000000e+00
0.000000000000e+00
0.000000000000e+00
0.000000000000e+00
0.000000000000e+00
0.000000000000e+00
0.000000000000e+00
0.000000000000e+00
0.000000000000e+00
0.000000000000e+00
0.000000000000e+00
0.000000000000e+00
0.000000000000e+00
0.000000000000e+00
0.000000000000e+00
0.000000000000e+00
0.000000000000e+00
0.000000000000e+00
0.000000000000e+00
0.000000000000e+00
0.000000000000e+00
0.000000000000e+00
0.000000000000e+00
0.000000000000e+00
0.000000000000e+00
0.000000000000e+00
0.000000000000e+00
0.000000000000e+00
0.000000000000e+00
0.000000000000e+00
0.000000000000e+00
0.000000000000e+00
0.000000000000e+00
0.000000000000e+00
0.000000000000e+00
1.088912036328e-02
1.088912036278e-02
1.088912036229e-02
1.088912036180e-02
1.088912036130e-02
1.088912036311e-02
1.088912036261e-02
1.088912036212e-02
1.088912036163e-02
1.088912036113e-02
1.088912036294e-02
1.088912036245e-02
1.088912036195e-02
1.088912036146e-02
1.088912036097e-02
1.088912036277e-02
1.088912036228e-02
1.088912036178e-02
1.088912036129e-02
1.088912036080e-02
1.088912036260e-02
1.088912036211e-02
1.088912036162e-02
1.088912036112e-02
1.088912036063e-02
1.088912036328e-02
1.088912036278e-02
1.088912036229e-02
1.088912036180e-02
1.088912036130e-02
1.088912036311e-02
1.088912036261e-02
1.088912036212e-02
1.088912036163e-02
1.088912036113e-02
1.088912036294e-02
1.088912036245e-02
1.088912036195e-02
1.088912036146e-02
1.088912036097e-02
1.088912036277e-02
1.088912036228e-02
1.088912036178e-02
1.088912036129e-02
1.088912036080e-02
1.088912036260e-02
1.088912036211e-02
1.088912036162e-02
1.088912036112e-02
1.088912036063e-02
1.088912036328e-02
1.088912036278e-02
1.088912036229e-02
1.088912036180e-02
1.088912036130e-02
1.088912036311e-02
1.088912036261e-02
1.088912036212e-02
1.088912036163e-02
1.088912036113e-02
1.088912036294e-02
1.088912036245e-02
1.088912036195e-02
1.088912036146e-02
1.088912036097e-02
1.088912036277e-02
1.088912036228e-02
1.088912036178e-02
1.088912036129e-02
1.088912036080e-02
1.088912036260e-02
1.088912036211e-02
1.088912036162e-02
1.088912036112e-02
1.088912036063e-02
1.088912036328e-02
1.088912036278e-02
1.088912036229e-02
1.088912036180e-02
1.088912036130e-02
1.088912036311e-02
1.088912036261e-02
1.088912036212e-02
1.088912036163e-02
1.088912036113e-02
1.088912036294e-02
1.088912036245e-02
1.088912036195e-02
1.088912036146e-02
1.088912036097e-02
1.088912036277e-02
1.088912036228e-02
1.088912036178e-02
1.088912036129e-02
1.088912036080e-02
1.088912036260e-02
1.088912036211e-02
1.088912036162e-02
1.088912036112e-02
1.088912036063e-02
1.088912036328e-02
1.088912036278e-02
1.088912036229e-02
1.088912036180e-02
1.088912036130e-02
1.088912036311e-02
1.088912036261e-02
1.088912036212e-02
1.088912036163e-02
1.088912036113e-02
1.088912036294e-02
1.088912036245e-02
1.088912036195e-02
1.088912036146e-02
1.088912036097e-02
1.088912036277e-02
1.088912036228e-02
1.088912036178e-02
1.088912036129e-02
1.088912036080e-02
1.088912036260e-02
1.088912036211e-02
1.088912036162e-02
1.088912036112e-02
1.088912036063e-02
CELL_DATA 128
SCALARS displacement_magnitude float 1
LOOKUP_TABLE default
0.000000000000e+00
0.000000000000e+00
0.000000000000e+00
0.000000000000e+00
0.000000000000e+00
0.000000000000e+00
0.000000000000e+00
0.000000000000e+00
0.000000000000e+00
0.000000000000e+00
0.000000000000e+00
0.000000000000e+00
0.000000000000e+00
0.000000000000e+00
0.000000000000e+00
0.000000000000e+00
0.000000000000e+00
0.000000000000e+00
0.000000000000e+00
0.000000000000e+00
0.000000000000e+00
0.000000000000e+00
0.000000000000e+00
0.000000000000e+00
0.000000000000e+00
0.000000000000e+00
0.000000000000e+00
0.000000000000e+00
0.000000000000e+00
0.000000000000e+00
0.000000000000e+00
0.000000000000e+00
0.000000000000e+00
0.000000000000e+00
0.000000000000e+00
0.000000000000e+00
0.000000000000e+00
0.000000000000e+00
0.000000000000e+00
0.000000000000e+00
0.000000000000e+00
0.000000000000e+00
0.000000000000e+00
0.000000000000e+00
0.000000000000e+00
0.000000000000e+00
0.000000000000e+00
0.000000000000e+00
0.000000000000e+00
0.000000000000e+00
0.000000000000e+00
0.000000000000e+00
0.000000000000e+00
0.000000000000e+00
0.000000000000e+00
0.000000000000e+00
0.000000000000e+00
0.000000000000e+00
0.000000000000e+00
0.000000000000e+00
0.000000000000e+00
0.000000000000e+00
0.000000000000e+00
0.000000000000e+00
1.088912036295e-02
1.088912036245e-02
1.088912036196e-02
1.088912036146e-02
1.088912036278e-02
1.088912036228e-02
1.088912036179e-02
1.088912036130e-02
1.088912036261e-02
1.088912036212e-02
1.088912036162e-02
1.088912036113e-02
1.088912036244e-02
1.088912036195e-02
1.088912036145e-02
1.088912036096e-02
1.088912036295e-02
1.088912036245e-02
1.088912036196e-02
1.088912036146e-02
1.088912036278e-02
1.088912036228e-02
1.088912036179e-02
1.088912036130e-02
1.088912036261e-02
1.088912036212e-02
1.088912036162e-02
1.088912036113e-02
1.088912036244e-02
1.088912036195e-02
1.088912036145e-02
1.088912036096e-02
1.088912036295e-02
1.088912036245e-02
1.088912036196e-02
1.088912036146e-02
1.088912036278e-02
1.088912036228e-02
1.088912036179e-02
1.088912036130e-02
1.088912036261e-02
1.088912036212e-02
1.088912036162e-02
1.088912036113e-02
1.088912036244e-02
1.088912036195e-02
1.088912036145e-02
1.088912036096e-02
1.088912036295e-02
1.088912036245e-02
1.088912036196e-02
1.088912036146e-02
1.088912036278e-02
1.088912036228e-02
1.088912036179e-02
1.088912036130e-02
1.088912036261e-02
1.088912036212e-02
1.088912036162e-02
1.088912036113e-02
1.088912036244e-02
1.088912036195e-02
1.088912036145e-02
1.088912036096e-02
SCALARS engineering_strain_norm float 1
LOOKUP_TABLE default
0.000000000000e+00
0.000000000000e+00
0.000000000000e+00
0.000000000000e+00
0.000000000000e+00
0.000000000000e+00
0.000000000000e+00
0.000000000000e+00
0.000000000000e+00
0.000000000000e+00
0.000000000000e+00
0.000000000000e+00
0.000000000000e+00
0.000000000000e+00
0.000000000000e+00
0.000000000000e+00
0.000000000000e+00
0.000000000000e+00
0.000000000000e+00
0.000000000000e+00
0.000000000000e+00
0.000000000000e+00
0.000000000000e+00
0.000000000000e+00
0.000000000000e+00
0.000000000000e+00
0.000000000000e+00
0.000000000000e+00
0.000000000000e+00
0.000000000000e+00
0.000000000000e+00
0.000000000000e+00
0.000000000000e+00
0.000000000000e+00
0.000000000000e+00
0.000000000000e+00
0.000000000000e+00
0.000000000000e+00
0.000000000000e+00
0.000000000000e+00
0.000000000000e+00
0.000000000000e+00
0.000000000000e+00
0.000000000000e+00
0.000000000000e+00
0.000000000000e+00
0.000000000000e+00
0.000000000000e+00
0.000000000000e+00
0.000000000000e+00
0.000000000000e+00
0.000000000000e+00
0.000000000000e+00
0.000000000000e+00
0.000000000000e+00
0.000000000000e+00
0.000000000000e+00
0.000000000000e+00
0.000000000000e+00
0.000000000000e+00
0.000000000000e+00
0.000000000000e+00
0.000000000000e+00
0.000000000000e+00
7.826747472540e-17
1.038580612286e-16
1.136882176903e-16
1.147078490935e-16
1.292531825589e-16
1.212960134876e-16
1.619940744285e-16
9.240700978189e-17
1.328829162939e-16
1.234088179537e-16
1.200078390309e-16
1.663110155035e-16
6.321225469649e-17
9.223227009679e-17
1.197609548742e-16
1.275776606576e-16
1.202489769896e-16
1.229584875487e-16
1.148946374929e-16
1.416947380608e-16
1.829807333923e-16
7.853642584517e-17
9.929829919992e-17
1.142848356419e-16
1.138795454098e-16
1.113904957105e-16
6.790460597629e-17
2.037024988952e-16
7.342857828994e-17
7.130618684114e-17
1.447527518304e-16
1.610777299011e-16
1.025078055644e-16
1.012080087288e-16
1.157811505680e-16
1.416084429055e-16
1.647809976297e-16
1.301933507936e-16
7.508206536379e-17
1.313134344735e-16
9.937122137683e-17
1.098216872149e-16
6.860094055370e-17
2.201573582106e-16
4.608335271073e-17
5.777342895289e-17
1.154821004286e-16
1.823570357612e-16
7.051224188022e-17
6.997152427251e-17
8.304015018345e-17
9.653537372137e-17
1.538143378239e-16
1.433735840212e-16
1.091860654431e-16
1.200921793470e-16
1.550201504857e-16
1.302614569572e-16
9.326825842227e-17
1.589065702374e-16
4.709063976081e-17
1.442975699502e-16
1.476757307729e-16
1.396388440380e-16
SCALARS von_mises float 1
LOOKUP_TABLE default
0.000000000000e+00
0.000000000000e+00
0.000000000000e+00
0.000000000000e+00
0.000000000000e+00
0.000000000000e+00
0.000000000000e+00
0.000000000000e+00
0.000000000000e+00
0.000000000000e+00
0.000000000000e+00
0.000000000000e+00
0.000000000000e+00
0.000000000000e+00
0.000000000000e+00
0.000000000000e+00
0.000000000000e+00
0.000000000000e+00
0.000000000000e+00
0.000000000000e+00
0.000000000000e+00
0.000000000000e+00
0.000000000000e+00
0.000000000000e+00
0.000000000000e+00
0.000000000000e+00
0.000000000000e+00
0.000000000000e+00
0.000000000000e+00
0.000000000000e+00
0.000000000000e+00
0.000000000000e+00
0.000000000000e+00
0.000000000000e+00
0.000000000000e+00
0.000000000000e+00
0.000000000000e+00
0.000000000000e+00
0.000000000000e+00
0.000000000000e+00
0.000000000000e+00
0.000000000000e+00
0.000000000000e+00
0.000000000000e+00
0.000000000000e+00
0.000000000000e+00
0.000000000000e+00
0.000000000000e+00
0.000000000000e+00
0.000000000000e+00
0.000000000000e+00
0.000000000000e+00
0.000000000000e+00
0.000000000000e+00
0.000000000000e+00
0.000000000000e+00
0.000000000000e+00
0.000000000000e+00
0.000000000000e+00
0.000000000000e+00
0.000000000000e+00
0.000000000000e+00
0.000000000000e+00
0.000000000000e+00
5.864258153078e-12
8.706764652670e-12
9.799110994390e-12
9.288016878229e-12
1.008423594343e-11
1.042655478129e-11
1.316179585968e-11
7.338201165669e-12
1.045334332515e-11
1.020021148001e-11
9.147945531528e-12
1.324091796563e-11
5.302333984511e-12
7.122039699703e-12
9.086572786117e-12
1.007213398919e-11
8.617068877560e-12
8.269805565246e-12
7.746828476680e-12
9.684992368690e-12
1.279819521695e-11
5.189163200382e-12
6.093638318174e-12
8.070739866349e-12
8.150534889291e-12
7.885584137425e-12
6.078754558128e-12
1.374976928781e-11
6.163177808911e-12
5.598731320295e-12
9.771352485123e-12
1.145039344483e-11
6.860313981356e-12
7.275162606127e-12
8.761553569059e-12
9.713326069668e-12
1.089064240440e-11
8.521274303238e-12
4.932277350732e-12
8.901992676695e-12
6.570156378631e-12
7.259480585552e-12
4.668521801192e-12
1.466682087188e-11
3.253804309554e-12
4.304116660439e-12
7.932722813626e-12
1.220544154809e-11
4.549501253941e-12
6.090541117789e-12
5.930305412865e-12
6.383371947387e-12
1.226008969660e-11
9.972107934273e-12
5.817967047008e-12
7.973441177007e-12
1.267307033903e-11
1.030613378610e-11
5.521030184122e-12
1.101457548375e-11
3.371698557059e-12
1.169012994451e-11
1.170791006714e-11
9.492060103797e-12
SCALARS sdf_gap float 1
LOOKUP_TABLE default
0.000000000000e+00
0.000000000000e+00
0.000000000000e+00
0.000000000000e+00
0.000000000000e+00
0.000000000000e+00
0.000000000000e+00
0.000000000000e+00
0.000000000000e+00
0.000000000000e+00
0.000000000000e+00
0.000000000000e+00
0.000000000000e+00
0.000000000000e+00
0.000000000000e+00
0.000000000000e+00
0.000000000000e+00
0.000000000000e+00
0.000000000000e+00
0.000000000000e+00
0.000000000000e+00
0.000000000000e+00
0.000000000000e+00
0.000000000000e+00
0.000000000000e+00
0.000000000000e+00
0.000000000000e+00
0.000000000000e+00
0.000000000000e+00
0.000000000000e+00
0.000000000000e+00
0.000000000000e+00
0.000000000000e+00
0.000000000000e+00
0.000000000000e+00
0.000000000000e+00
0.000000000000e+00
0.000000000000e+00
0.000000000000e+00
0.000000000000e+00
0.000000000000e+00
0.000000000000e+00
0.000000000000e+00
0.000000000000e+00
0.000000000000e+00
0.000000000000e+00
0.000000000000e+00
0.000000000000e+00
0.000000000000e+00
0.000000000000e+00
0.000000000000e+00
0.000000000000e+00
0.000000000000e+00
0.000000000000e+00
0.000000000000e+00
0.000000000000e+00
0.000000000000e+00
0.000000000000e+00
0.000000000000e+00
0.000000000000e+00
0.000000000000e+00
0.000000000000e+00
0.000000000000e+00
0.000000000000e+00
4.110879637054e-03
4.110879637548e-03
4.110879638042e-03
4.110879638535e-03
4.110879637223e-03
4.110879637716e-03
4.110879638210e-03
4.110879638704e-03
4.110879637391e-03
4.110879637885e-03
4.110879638378e-03
4.110879638872e-03
4.110879637559e-03
4.110879638053e-03
4.110879638547e-03
4.110879639040e-03
0.000000000000e+00
0.000000000000e+00
0.000000000000e+00
0.000000000000e+00
0.000000000000e+00
0.000000000000e+00
0.000000000000e+00
0.000000000000e+00
0.000000000000e+00
0.000000000000e+00
0.000000000000e+00
0.000000000000e+00
0.000000000000e+00
0.000000000000e+00
0.000000000000e+00
0.000000000000e+00
0.000000000000e+00
0.000000000000e+00
0.000000000000e+00
0.000000000000e+00
0.000000000000e+00
0.000000000000e+00
0.000000000000e+00
0.000000000000e+00
0.000000000000e+00
0.000000000000e+00
0.000000000000e+00
0.000000000000e+00
0.000000000000e+00
0.000000000000e+00
0.000000000000e+00
0.000000000000e+00
0.000000000000e+00
0.000000000000e+00
0.000000000000e+00
0.000000000000e+00
0.000000000000e+00
0.000000000000e+00
0.000000000000e+00
0.000000000000e+00
0.000000000000e+00
0.000000000000e+00
0.000000000000e+00
0.000000000000e+00
0.000000000000e+00
0.000000000000e+00
0.000000000000e+00
0.000000000000e+00
SCALARS contact_pressure float 1
LOOKUP_TABLE default
0.000000000000e+00
0.000000000000e+00
0.000000000000e+00
0.000000000000e+00
0.000000000000e+00
0.000000000000e+00
0.000000000000e+00
0.000000000000e+00
0.000000000000e+00
0.000000000000e+00
0.000000000000e+00
0.000000000000e+00
0.000000000000e+00
0.000000000000e+00
0.000000000000e+00
0.000000000000e+00
0.000000000000e+00
0.000000000000e+00
0.000000000000e+00
0.000000000000e+00
0.000000000000e+00
0.000000000000e+00
0.000000000000e+00
0.000000000000e+00
0.000000000000e+00
0.000000000000e+00
0.000000000000e+00
0.000000000000e+00
0.000000000000e+00
0.000000000000e+00
0.000000000000e+00
0.000000000000e+00
0.000000000000e+00
0.000000000000e+00
0.000000000000e+00
0.000000000000e+00
0.000000000000e+00
0.000000000000e+00
0.000000000000e+00
0.000000000000e+00
0.000000000000e+00
0.000000000000e+00
0.000000000000e+00
0.000000000000e+00
0.000000000000e+00
0.000000000000e+00
0.000000000000e+00
0.000000000000e+00
0.000000000000e+00
0.000000000000e+00
0.000000000000e+00
0.000000000000e+00
0.000000000000e+00
0.000000000000e+00
0.000000000000e+00
0.000000000000e+00
0.000000000000e+00
0.000000000000e+00
0.000000000000e+00
0.000000000000e+00
0.000000000000e+00
0.000000000000e+00
0.000000000000e+00
0.000000000000e+00
0.000000000000e+00
0.000000000000e+00
0.000000000000e+00
0.000000000000e+00
0.000000000000e+00
0.000000000000e+00
0.000000000000e+00
0.000000000000e+00
0.000000000000e+00
0.000000000000e+00
0.000000000000e+00
0.000000000000e+00
0.000000000000e+00
0.000000000000e+00
0.000000000000e+00
0.000000000000e+00
0.000000000000e+00
0.000000000000e+00
0.000000000000e+00
0.000000000000e+00
0.000000000000e+00
0.000000000000e+00
0.000000000000e+00
0.000000000000e+00
0.000000000000e+00
0.000000000000e+00
0.000000000000e+00
0.000000000000e+00
0.000000000000e+00
0.000000000000e+00
0.000000000000e+00
0.000000000000e+00
0.000000000000e+00
0.000000000000e+00
0.000000000000e+00
0.000000000000e+00
0.000000000000e+00
0.000000000000e+00
0.000000000000e+00
0.000000000000e+00
0.000000000000e+00
0.000000000000e+00
0.000000000000e+00
0.000000000000e+00
0.000000000000e+00
0.000000000000e+00
0.000000000000e+00
0.000000000000e+00
0.000000000000e+00
0.000000000000e+00
0.000000000000e+00
0.000000000000e+00
0.000000000000e+00
0.000000000000e+00
0.000000000000e+00
0.000000000000e+00
0.000000000000e+00
0.000000000000e+00
0.000000000000e+00
0.000000000000e+00
0.000000000000e+00
0.000000000000e+00
0.000000000000e+00
0.000000000000e+00
SCALARS active_contact float 1
LOOKUP_TABLE default
0.000000000000e+00
0.000000000000e+00
0.000000000000e+00
0.000000000000e+00
0.000000000000e+00
0.000000000000e+00
0.000000000000e+00
0.000000000000e+00
0.000000000000e+00
0.000000000000e+00
0.000000000000e+00
0.000000000000e+00
0.000000000000e+00
0.000000000000e+00
0.000000000000e+00
0.000000000000e+00
0.000000000000e+00
0.000000000000e+00
0.000000000000e+00
0.000000000000e+00
0.000000000000e+00
0.000000000000e+00
0.000000000000e+00
0.000000000000e+00
0.000000000000e+00
0.000000000000e+00
0.000000000000e+00
0.000000000000e+00
0.000000000000e+00
0.000000000000e+00
0.000000000000e+00
0.000000000000e+00
0.000000000000e+00
0.000000000000e+00
0.000000000000e+00
0.000000000000e+00
0.000000000000e+00
0.000000000000e+00
0.000000000000e+00
0.000000000000e+00
0.000000000000e+00
0.000000000000e+00
0.000000000000e+00
0.000000000000e+00
0.000000000000e+00
0.000000000000e+00
0.000000000000e+00
0.000000000000e+00
0.000000000000e+00
0.000000000000e+00
0.000000000000e+00
0.000000000000e+00
0.000000000000e+00
0.000000000000e+00
0.000000000000e+00
0.000000000000e+00
0.000000000000e+00
0.000000000000e+00
0.000000000000e+00
0.000000000000e+00
0.000000000000e+00
0.000000000000e+00
0.000000000000e+00
0.000000000000e+00
0.000000000000e+00
0.000000000000e+00
0.000000000000e+00
0.000000000000e+00
0.000000000000e+00
0.000000000000e+00
0.000000000000e+00
0.000000000000e+00
0.000000000000e+00
0.000000000000e+00
0.000000000000e+00
0.000000000000e+00
0.000000000000e+00
0.000000000000e+00
0.000000000000e+00
0.000000000000e+00
0.000000000000e+00
0.000000000000e+00
0.000000000000e+00
0.000000000000e+00
0.000000000000e+00
0.000000000000e+00
0.000000000000e+00
0.000000000000e+00
0.000000000000e+00
0.000000000000e+00
0.000000000000e+00
0.000000000000e+00
0.000000000000e+00
0.000000000000e+00
0.000000000000e+00
0.000000000000e+00
0.000000000000e+00
0.000000000000e+00
0.000000000000e+00
0.000000000000e+00
0.000000000000e+00
0.000000000000e+00
0.000000000000e+00
0.000000000000e+00
0.000000000000e+00
0.000000000000e+00
0.000000000000e+00
0.000000000000e+00
0.000000000000e+00
0.000000000000e+00
0.000000000000e+00
0.000000000000e+00
0.000000000000e+00
0.000000000000e+00
0.000000000000e+00
0.000000000000e+00
0.000000000000e+00
0.000000000000e+00
0.000000000000e+00
0.000000000000e+00
0.000000000000e+00
0.000000000000e+00
0.000000000000e+00
0.000000000000e+00
0.000000000000e+00
0.000000000000e+00
0.000000000000e+00
0.000000000000e+00
