# vtk DataFile Version 3.0
SFC long-time C3D8 dynamic frame 148 t=2.960000000000e+00
ASCII
DATASET UNSTRUCTURED_GRID
POINTS 250 float
-2.500000000000e-01 -2.500000000000e-01 0.000000000000e+00
-1.250000000000e-01 -2.500000000000e-01 0.000000000000e+00
0.000000000000e+00 -2.500000000000e-01 0.000000000000e+00
1.250000000000e-01 -2.500000000000e-01 0.000000000000e+00
2.500000000000e-01 -2.500000000000e-01 0.000000000000e+00
-2.500000000000e-01 -1.250000000000e-01 0.000000000000e+00
-1.250000000000e-01 -1.250000000000e-01 0.000000000000e+00
0.000000000000e+00 -1.250000000000e-01 0.000000000000e+00
1.250000000000e-01 -1.250000000000e-01 0.000000000000e+00
2.500000000000e-01 -1.250000000000e-01 0.000000000000e+00
-2.500000000000e-01 0.000000000000e+00 0.000000000000e+00
-1.250000000000e-01 0.000000000000e+00 0.000000000000e+00
0.000000000000e+00 0.000000000000e+00 0.000000000000e+00
1.250000000000e-01 0.000000000000e+00 0.000000000000e+00
2.500000000000e-01 0.000000000000e+00 0.000000000000e+00
-2.500000000000e-01 1.250000000000e-01 0.000000000000e+00
-1.250000000000e-01 1.250000000000e-01 0.000000000000e+00
0.000000000000e+00 1.250000000000e-01 0.000000000000e+00
1.250000000000e-01 1.250000000000e-01 0.000000000000e+00
2.500000000000e-01 1.250000000000e-01 0.000000000000e+00
-2.500000000000e-01 2.500000000000e-01 0.000000000000e+00
-1.250000000000e-01 2.500000000000e-01 0.000000000000e+00
0.000000000000e+00 2.500000000000e-01 0.000000000000e+00
1.250000000000e-01 2.500000000000e-01 0.000000000000e+00
2.500000000000e-01 2.500000000000e-01 0.000000000000e+00
-2.500000000000e-01 -2.500000000000e-01 6.000000000000e-02
-1.250000000000e-01 -2.500000000000e-01 6.000000000000e-02
0.000000000000e+00 -2.500000000000e-01 6.000000000000e-02
1.250000000000e-01 -2.500000000000e-01 6.000000000000e-02
2.500000000000e-01 -2.500000000000e-01 6.000000000000e-02
-2.500000000000e-01 -1.250000000000e-01 6.000000000000e-02
-1.250000000000e-01 -1.250000000000e-01 6.000000000000e-02
0.000000000000e+00 -1.250000000000e-01 6.000000000000e-02
1.250000000000e-01 -1.250000000000e-01 6.000000000000e-02
2.500000000000e-01 -1.250000000000e-01 6.000000000000e-02
-2.500000000000e-01 0.000000000000e+00 6.000000000000e-02
-1.250000000000e-01 0.000000000000e+00 6.000000000000e-02
0.000000000000e+00 0.000000000000e+00 6.000000000000e-02
1.250000000000e-01 0.000000000000e+00 6.000000000000e-02
2.500000000000e-01 0.000000000000e+00 6.000000000000e-02
-2.500000000000e-01 1.250000000000e-01 6.000000000000e-02
-1.250000000000e-01 1.250000000000e-01 6.000000000000e-02
0.000000000000e+00 1.250000000000e-01 6.000000000000e-02
1.250000000000e-01 1.250000000000e-01 6.000000000000e-02
2.500000000000e-01 1.250000000000e-01 6.000000000000e-02
-2.500000000000e-01 2.500000000000e-01 6.000000000000e-02
-1.250000000000e-01 2.500000000000e-01 6.000000000000e-02
0.000000000000e+00 2.500000000000e-01 6.000000000000e-02
1.250000000000e-01 2.500000000000e-01 6.000000000000e-02
2.500000000000e-01 2.500000000000e-01 6.000000000000e-02
-2.500000000000e-01 -2.500000000000e-01 1.200000000000e-01
-1.250000000000e-01 -2.500000000000e-01 1.200000000000e-01
0.000000000000e+00 -2.500000000000e-01 1.200000000000e-01
1.250000000000e-01 -2.500000000000e-01 1.200000000000e-01
2.500000000000e-01 -2.500000000000e-01 1.200000000000e-01
-2.500000000000e-01 -1.250000000000e-01 1.200000000000e-01
-1.250000000000e-01 -1.250000000000e-01 1.200000000000e-01
0.000000000000e+00 -1.250000000000e-01 1.200000000000e-01
1.250000000000e-01 -1.250000000000e-01 1.200000000000e-01
2.500000000000e-01 -1.250000000000e-01 1.200000000000e-01
-2.500000000000e-01 0.000000000000e+00 1.200000000000e-01
-1.250000000000e-01 0.000000000000e+00 1.200000000000e-01
0.000000000000e+00 0.000000000000e+00 1.200000000000e-01
1.250000000000e-01 0.000000000000e+00 1.200000000000e-01
2.500000000000e-01 0.000000000000e+00 1.200000000000e-01
-2.500000000000e-01 1.250000000000e-01 1.200000000000e-01
-1.250000000000e-01 1.250000000000e-01 1.200000000000e-01
0.000000000000e+00 1.250000000000e-01 1.200000000000e-01
1.250000000000e-01 1.250000000000e-01 1.200000000000e-01
2.500000000000e-01 1.250000000000e-01 1.200000000000e-01
-2.500000000000e-01 2.500000000000e-01 1.200000000000e-01
-1.250000000000e-01 2.500000000000e-01 1.200000000000e-01
0.000000000000e+00 2.500000000000e-01 1.200000000000e-01
1.250000000000e-01 2.500000000000e-01 1.200000000000e-01
2.500000000000e-01 2.500000000000e-01 1.200000000000e-01
-2.500000000000e-01 -2.500000000000e-01 1.800000000000e-01
-1.250000000000e-01 -2.500000000000e-01 1.800000000000e-01
0.000000000000e+00 -2.500000000000e-01 1.800000000000e-01
1.250000000000e-01 -2.500000000000e-01 1.800000000000e-01
2.500000000000e-01 -2.500000000000e-01 1.800000000000e-01
-2.500000000000e-01 -1.250000000000e-01 1.800000000000e-01
-1.250000000000e-01 -1.250000000000e-01 1.800000000000e-01
0.000000000000e+00 -1.250000000000e-01 1.800000000000e-01
1.250000000000e-01 -1.250000000000e-01 1.800000000000e-01
2.500000000000e-01 -1.250000000000e-01 1.800000000000e-01
-2.500000000000e-01 0.000000000000e+00 1.800000000000e-01
-1.250000000000e-01 0.000000000000e+00 1.800000000000e-01
0.000000000000e+00 0.000000000000e+00 1.800000000000e-01
1.250000000000e-01 0.000000000000e+00 1.800000000000e-01
2.500000000000e-01 0.000000000000e+00 1.800000000000e-01
-2.500000000000e-01 1.250000000000e-01 1.800000000000e-01
-1.250000000000e-01 1.250000000000e-01 1.800000000000e-01
0.000000000000e+00 1.250000000000e-01 1.800000000000e-01
1.250000000000e-01 1.250000000000e-01 1.800000000000e-01
2.500000000000e-01 1.250000000000e-01 1.800000000000e-01
-2.500000000000e-01 2.500000000000e-01 1.800000000000e-01
-1.250000000000e-01 2.500000000000e-01 1.800000000000e-01
0.000000000000e+00 2.500000000000e-01 1.800000000000e-01
1.250000000000e-01 2.500000000000e-01 1.800000000000e-01
2.500000000000e-01 2.500000000000e-01 1.800000000000e-01
-2.500000000000e-01 -2.500000000000e-01 2.400000000000e-01
-1.250000000000e-01 -2.500000000000e-01 2.400000000000e-01
0.000000000000e+00 -2.500000000000e-01 2.400000000000e-01
1.250000000000e-01 -2.500000000000e-01 2.400000000000e-01
2.500000000000e-01 -2.500000000000e-01 2.400000000000e-01
-2.500000000000e-01 -1.250000000000e-01 2.400000000000e-01
-1.250000000000e-01 -1.250000000000e-01 2.400000000000e-01
0.000000000000e+00 -1.250000000000e-01 2.400000000000e-01
1.250000000000e-01 -1.250000000000e-01 2.400000000000e-01
2.500000000000e-01 -1.250000000000e-01 2.400000000000e-01
-2.500000000000e-01 0.000000000000e+00 2.400000000000e-01
-1.250000000000e-01 0.000000000000e+00 2.400000000000e-01
0.000000000000e+00 0.000000000000e+00 2.400000000000e-01
1.250000000000e-01 0.000000000000e+00 2.400000000000e-01
2.500000000000e-01 0.000000000000e+00 2.400000000000e-01
-2.500000000000e-01 1.250000000000e-01 2.400000000000e-01
-1.250000000000e-01 1.250000000000e-01 2.400000000000e-01
0.000000000000e+00 1.250000000000e-01 2.400000000000e-01
1.250000000000e-01 1.250000000000e-01 2.400000000000e-01
2.500000000000e-01 1.250000000000e-01 2.400000000000e-01
-2.500000000000e-01 2.500000000000e-01 2.400000000000e-01
-1.250000000000e-01 2.500000000000e-01 2.400000000000e-01
0.000000000000e+00 2.500000000000e-01 2.400000000000e-01
1.250000000000e-01 2.500000000000e-01 2.400000000000e-01
2.500000000000e-01 2.500000000000e-01 2.400000000000e-01
-2.499999957950e-01 -2.499999959545e-01 2.436102903402e-01
-1.249999970065e-01 -2.499999973907e-01 2.436102713252e-01
2.476127774060e-10 -2.500000004996e-01 2.436102615078e-01
1.249999975017e-01 -2.499999973909e-01 2.436102718000e-01
2.499999962902e-01 -2.499999959549e-01 2.436102912899e-01
-2.499999972309e-01 -1.249999971661e-01 2.436102711739e-01
-1.249999972460e-01 -1.249999974058e-01 2.436102520762e-01
2.477167075142e-10 -1.249999993063e-01 2.436102423505e-01
1.249999977414e-01 -1.249999974060e-01 2.436102525510e-01
2.499999977264e-01 -1.249999971665e-01 2.436102721235e-01
-2.500000003396e-01 8.807205810101e-11 2.436102612051e-01
-1.249999991464e-01 8.796883981664e-11 2.436102421991e-01
2.478204159212e-10 8.786553891726e-11 2.436102325289e-01
1.249999996420e-01 8.776203612603e-11 2.436102426740e-01
2.500000008353e-01 8.765843656170e-11 2.436102621547e-01
-2.499999972307e-01 1.249999973422e-01 2.436102713461e-01
-1.249999972458e-01 1.249999975817e-01 2.436102522484e-01
2.479235490718e-10 1.249999994821e-01 2.436102425226e-01
1.249999977417e-01 1.249999975815e-01 2.436102527232e-01
2.499999977266e-01 1.249999973418e-01 2.436102722957e-01
-2.499999957946e-01 2.499999961307e-01 2.436102906845e-01
-1.249999970061e-01 2.499999975666e-01 2.436102716695e-01
2.480264464045e-10 2.500000006753e-01 2.436102618521e-01
1.249999975022e-01 2.499999975664e-01 2.436102721443e-01
2.499999962906e-01 2.499999961303e-01 2.436102916342e-01
-2.499999875350e-01 -2.499999876159e-01 3.086102898168e-01
-1.249999894384e-01 -2.499999893978e-01 3.086102720884e-01
1.241630265723e-10 -2.499999930413e-01 3.086102632106e-01
1.249999896867e-01 -2.499999893980e-01 3.086102725632e-01
2.499999877834e-01 -2.499999876163e-01 3.086102907664e-01
-2.499999893167e-01 -1.249999895192e-01 3.086102719371e-01
-1.249999895732e-01 -1.249999896542e-01 3.086102545337e-01
1.242669976751e-10 -1.249999915812e-01 3.086102459503e-01
1.249999898217e-01 -1.249999896544e-01 3.086102550085e-01
2.499999895653e-01 -1.249999895196e-01 3.086102728867e-01
-2.499999929600e-01 4.331363517287e-11 3.086102629079e-01
-1.249999915000e-01 4.321042886856e-11 3.086102457990e-01
1.243707447343e-10 4.310714368838e-11 3.086102372741e-01
1.249999917487e-01 4.300361473721e-11 3.086102462738e-01
2.499999932088e-01 4.289999652053e-11 3.086102638576e-01
-2.499999893165e-01 1.249999896058e-01 3.086102721092e-01
-1.249999895730e-01 1.249999897407e-01 3.086102547059e-01
1.244738284159e-10 1.249999916675e-01 3.086102461225e-01
1.249999898219e-01 1.249999897404e-01 3.086102551807e-01
2.499999895655e-01 1.249999896054e-01 3.086102730589e-01
-2.499999875346e-01 2.499999877025e-01 3.086102901610e-01
-1.249999894379e-01 2.499999894842e-01 3.086102724327e-01
1.245766811775e-10 2.499999931275e-01 3.086102635549e-01
1.249999896871e-01 2.499999894840e-01 3.086102729075e-01
2.499999877838e-01 2.499999877021e-01 3.086102911107e-01
-2.499999811994e-01 -2.499999812016e-01 3.736102840211e-01
-1.249999834857e-01 -2.499999833792e-01 3.736102692754e-01
7.132317006638e-13 -2.499999876456e-01 3.736102628469e-01
1.249999834871e-01 -2.499999833794e-01 3.736102697502e-01
2.499999812009e-01 -2.499999812020e-01 3.736102849707e-01
-2.499999833768e-01 -1.249999834879e-01 3.736102691241e-01
-1.249999835230e-01 -1.249999835253e-01 3.736102553118e-01
8.171853234632e-13 -1.249999855403e-01 3.736102496145e-01
1.249999835246e-01 -1.249999835255e-01 3.736102557866e-01
2.499999833784e-01 -1.249999834883e-01 3.736102700737e-01
-2.499999876430e-01 -1.444805674078e-12 3.736102625442e-01
-1.249999855378e-01 -1.548018411906e-12 3.736102494632e-01
9.209575847651e-13 -1.651296931548e-12 3.736102441425e-01
1.249999855396e-01 -1.754839443575e-12 3.736102499380e-01
2.499999876448e-01 -1.858454129247e-12 3.736102634938e-01
-2.499999833766e-01 1.249999834850e-01 3.736102692962e-01
-1.249999835228e-01 1.249999835222e-01 3.736102554839e-01
1.024007556831e-12 1.249999855370e-01 3.736102497866e-01
1.249999835248e-01 1.249999835220e-01 3.736102559587e-01
2.499999833786e-01 1.249999834846e-01 3.736102702458e-01
-2.499999811990e-01 2.499999811987e-01 3.736102843654e-01
-1.249999834853e-01 2.499999833761e-01 3.736102696197e-01
1.126874037199e-12 2.499999876423e-01 3.736102631912e-01
1.249999834876e-01 2.499999833759e-01 3.736102700945e-01
2.499999812013e-01 2.499999811983e-01 3.736102853150e-01
-2.499999741331e-01 -2.499999740565e-01 4.386102772320e-01
-1.249999793135e-01 -2.499999766954e-01 4.386102657727e-01
-1.227362438860e-10 -2.499999815807e-01 4.386102621517e-01
1.249999790680e-01 -2.499999766956e-01 4.386102662475e-01
2.499999738876e-01 -2.499999740570e-01 4.386102781817e-01
-2.499999767717e-01 -1.249999792370e-01 4.386102656214e-01
-1.249999793746e-01 -1.249999792983e-01 4.386102559503e-01
-1.226323169487e-10 -1.249999815562e-01 4.386102536256e-01
1.249999791293e-01 -1.249999792985e-01 4.386102564251e-01
2.499999765264e-01 -1.249999792374e-01 4.386102665710e-01
-2.499999816568e-01 -4.620312965146e-11 4.386102618490e-01
-1.249999816323e-01 -4.630635450216e-11 4.386102534743e-01
-1.225285107474e-10 -4.640962274131e-11 4.386102519245e-01
1.249999813873e-01 -4.651318121136e-11 4.386102539491e-01
2.499999814118e-01 -4.661678659451e-11 4.386102627986e-01
-2.499999767715e-01 1.249999791445e-01 4.386102657935e-01
-1.249999793744e-01 1.249999792057e-01 4.386102561224e-01
-1.224255004024e-10 1.249999814634e-01 4.386102537977e-01
1.249999791295e-01 1.249999792055e-01 4.386102565973e-01
2.499999765267e-01 1.249999791441e-01 4.386102667431e-01
-2.499999741327e-01 2.499999739641e-01 4.386102775763e-01
-1.249999793131e-01 2.499999766028e-01 4.386102661170e-01
-1.223226094406e-10 2.499999814879e-01 4.386102624960e-01
1.249999790684e-01 2.499999766026e-01 4.386102665918e-01
2.499999738880e-01 2.499999739637e-01 4.386102785260e-01
-2.499999682008e-01 -2.499999680456e-01 5.036102755523e-01
-1.249999764901e-01 -2.499999715708e-01 5.036102666160e-01
-2.461854902846e-10 -2.499999772902e-01 5.036102652445e-01
1.249999759978e-01 -2.499999715710e-01 5.036102670908e-01
2.499999677084e-01 -2.499999680460e-01 5.036102765019e-01
-2.499999717258e-01 -1.249999763349e-01 5.036102664647e-01
-1.249999771424e-01 -1.249999769874e-01 5.036102601656e-01
-2.460815089011e-10 -1.249999798343e-01 5.036102605767e-01
1.249999766502e-01 -1.249999769876e-01 5.036102606404e-01
2.499999712336e-01 -1.249999763353e-01 5.036102674143e-01
-2.499999774450e-01 -9.096136887490e-11 5.036102649419e-01
-1.249999799891e-01 -9.106457348232e-11 5.036102604253e-01
-2.459776562613e-10 -9.116783135674e-11 5.036102618104e-01
1.249999794972e-01 -9.127141568702e-11 5.036102609001e-01
2.499999769531e-01 -9.137503349964e-11 5.036102658915e-01
-2.499999717256e-01 1.249999761530e-01 5.036102666368e-01
-1.249999771422e-01 1.249999768052e-01 5.036102603377e-01
-2.458747061628e-10 1.249999796520e-01 5.036102607488e-01
1.249999766504e-01 1.249999768050e-01 5.036102608125e-01
2.499999712338e-01 1.249999761526e-01 5.036102675864e-01
-2.499999682004e-01 2.499999678637e-01 5.036102758966e-01
-1.249999764897e-01 2.499999713886e-01 5.036102669603e-01
-2.457718659566e-10 2.499999771079e-01 5.036102655888e-01
1.249999759982e-01 2.499999713884e-01 5.036102674351e-01
2.499999677089e-01 2.499999678632e-01 5.036102768462e-01
CELLS 128 1152
8 0 1 6 5 25 26 31 30
8 1 2 7 6 26 27 32 31
8 2 3 8 7 27 28 33 32
8 3 4 9 8 28 29 34 33
8 5 6 11 10 30 31 36 35
8 6 7 12 11 31 32 37 36
8 7 8 13 12 32 33 38 37
8 8 9 14 13 33 34 39 38
8 10 11 16 15 35 36 41 40
8 11 12 17 16 36 37 42 41
8 12 13 18 17 37 38 43 42
8 13 14 19 18 38 39 44 43
8 15 16 21 20 40 41 46 45
8 16 17 22 21 41 42 47 46
8 17 18 23 22 42 43 48 47
8 18 19 24 23 43 44 49 48
8 25 26 31 30 50 51 56 55
8 26 27 32 31 51 52 57 56
8 27 28 33 32 52 53 58 57
8 28 29 34 33 53 54 59 58
8 30 31 36 35 55 56 61 60
8 31 32 37 36 56 57 62 61
8 32 33 38 37 57 58 63 62
8 33 34 39 38 58 59 64 63
8 35 36 41 40 60 61 66 65
8 36 37 42 41 61 62 67 66
8 37 38 43 42 62 63 68 67
8 38 39 44 43 63 64 69 68
8 40 41 46 45 65 66 71 70
8 41 42 47 46 66 67 72 71
8 42 43 48 47 67 68 73 72
8 43 44 49 48 68 69 74 73
8 50 51 56 55 75 76 81 80
8 51 52 57 56 76 77 82 81
8 52 53 58 57 77 78 83 82
8 53 54 59 58 78 79 84 83
8 55 56 61 60 80 81 86 85
8 56 57 62 61 81 82 87 86
8 57 58 63 62 82 83 88 87
8 58 59 64 63 83 84 89 88
8 60 61 66 65 85 86 91 90
8 61 62 67 66 86 87 92 91
8 62 63 68 67 87 88 93 92
8 63 64 69 68 88 89 94 93
8 65 66 71 70 90 91 96 95
8 66 67 72 71 91 92 97 96
8 67 68 73 72 92 93 98 97
8 68 69 74 73 93 94 99 98
8 75 76 81 80 100 101 106 105
8 76 77 82 81 101 102 107 106
8 77 78 83 82 102 103 108 107
8 78 79 84 83 103 104 109 108
8 80 81 86 85 105 106 111 110
8 81 82 87 86 106 107 112 111
8 82 83 88 87 107 108 113 112
8 83 84 89 88 108 109 114 113
8 85 86 91 90 110 111 116 115
8 86 87 92 91 111 112 117 116
8 87 88 93 92 112 113 118 117
8 88 89 94 93 113 114 119 118
8 90 91 96 95 115 116 121 120
8 91 92 97 96 116 117 122 121
8 92 93 98 97 117 118 123 122
8 93 94 99 98 118 119 124 123
8 125 126 131 130 150 151 156 155
8 126 127 132 131 151 152 157 156
8 127 128 133 132 152 153 158 157
8 128 129 134 133 153 154 159 158
8 130 131 136 135 155 156 161 160
8 131 132 137 136 156 157 162 161
8 132 133 138 137 157 158 163 162
8 133 134 139 138 158 159 164 163
8 135 136 141 140 160 161 166 165
8 136 137 142 141 161 162 167 166
8 137 138 143 142 162 163 168 167
8 138 139 144 143 163 164 169 168
8 140 141 146 145 165 166 171 170
8 141 142 147 146 166 167 172 171
8 142 143 148 147 167 168 173 172
8 143 144 149 148 168 169 174 173
8 150 151 156 155 175 176 181 180
8 151 152 157 156 176 177 182 181
8 152 153 158 157 177 178 183 182
8 153 154 159 158 178 179 184 183
8 155 156 161 160 180 181 186 185
8 156 157 162 161 181 182 187 186
8 157 158 163 162 182 183 188 187
8 158 159 164 163 183 184 189 188
8 160 161 166 165 185 186 191 190
8 161 162 167 166 186 187 192 191
8 162 163 168 167 187 188 193 192
8 163 164 169 168 188 189 194 193
8 165 166 171 170 190 191 196 195
8 166 167 172 171 191 192 197 196
8 167 168 173 172 192 193 198 197
8 168 169 174 173 193 194 199 198
8 175 176 181 180 200 201 206 205
8 176 177 182 181 201 202 207 206
8 177 178 183 182 202 203 208 207
8 178 179 184 183 203 204 209 208
8 180 181 186 185 205 206 211 210
8 181 182 187 186 206 207 212 211
8 182 183 188 187 207 208 213 212
8 183 184 189 188 208 209 214 213
8 185 186 191 190 210 211 216 215
8 186 187 192 191 211 212 217 216
8 187 188 193 192 212 213 218 217
8 188 189 194 193 213 214 219 218
8 190 191 196 195 215 216 221 220
8 191 192 197 196 216 217 222 221
8 192 193 198 197 217 218 223 222
8 193 194 199 198 218 219 224 223
8 200 201 206 205 225 226 231 230
8 201 202 207 206 226 227 232 231
8 202 203 208 207 227 228 233 232
8 203 204 209 208 228 229 234 233
8 205 206 211 210 230 231 236 235
8 206 207 212 211 231 232 237 236
8 207 208 213 212 232 233 238 237
8 208 209 214 213 233 234 239 238
8 210 211 216 215 235 236 241 240
8 211 212 217 216 236 237 242 241
8 212 213 218 217 237 238 243 242
8 213 214 219 218 238 239 244 243
8 215 216 221 220 240 241 246 245
8 216 217 222 221 241 242 247 246
8 217 218 223 222 242 243 248 247
8 218 219 224 223 243 244 249 248
CELL_TYPES 128
12
12
12
12
12
12
12
12
12
12
12
12
12
12
12
12
12
12
12
12
12
12
12
12
12
12
12
12
12
12
12
12
12
12
12
12
12
12
12
12
12
12
12
12
12
12
12
12
12
12
12
12
12
12
12
12
12
12
12
12
12
12
12
12
12
12
12
12
12
12
12
12
12
12
12
12
12
12
12
12
12
12
12
12
12
12
12
12
12
12
12
12
12
12
12
12
12
12
12
12
12
12
12
12
12
12
12
12
12
12
12
12
12
12
12
12
12
12
12
12
12
12
12
12
12
12
12
12
POINT_DATA 250
VECTORS displacement float
0.000000000000e+00 0.000000000000e+00 0.000000000000e+00
0.000000000000e+00 0.000000000000e+00 0.000000000000e+00
0.000000000000e+00 0.000000000000e+00 0.000000000000e+00
0.000000000000e+00 0.000000000000e+00 0.000000000000e+00
0.000000000000e+00 0.000000000000e+00 0.000000000000e+00
0.000000000000e+00 0.000000000000e+00 0.000000000000e+00
0.000000000000e+00 0.000000000000e+00 0.000000000000e+00
0.000000000000e+00 0.000000000000e+00 0.000000000000e+00
0.000000000000e+00 0.000000000000e+00 0.000000000000e+00
0.000000000000e+00 0.000000000000e+00 0.000000000000e+00
0.000000000000e+00 0.000000000000e+00 0.000000000000e+00
0.000000000000e+00 0.000000000000e+00 0.000000000000e+00
0.000000000000e+00 0.000000000000e+00 0.000000000000e+00
0.000000000000e+00 0.000000000000e+00 0.000000000000e+00
0.000000000000e+00 0.000000000000e+00 0.000000000000e+00
0.000000000000e+00 0.000000000000e+00 0.000000000000e+00
0.000000000000e+00 0.000000000000e+00 0.000000000000e+00
0.000000000000e+00 0.000000000000e+00 0.000000000000e+00
0.000000000000e+00 0.000000000000e+00 0.000000000000e+00
0.000000000000e+00 0.000000000000e+00 0.000000000000e+00
0.000000000000e+00 0.000000000000e+00 0.000000000000e+00
0.000000000000e+00 0.000000000000e+00 0.000000000000e+00
0.000000000000e+00 0.000000000000e+00 0.000000000000e+00
0.000000000000e+00 0.000000000000e+00 0.000000000000e+00
0.000000000000e+00 0.000000000000e+00 0.000000000000e+00
0.000000000000e+00 0.000000000000e+00 0.000000000000e+00
0.000000000000e+00 0.000000000000e+00 0.000000000000e+00
0.000000000000e+00 0.000000000000e+00 0.000000000000e+00
0.000000000000e+00 0.000000000000e+00 0.000000000000e+00
0.000000000000e+00 0.000000000000e+00 0.000000000000e+00
0.000000000000e+00 0.000000000000e+00 0.000000000000e+00
0.000000000000e+00 0.000000000000e+00 0.000000000000e+00
0.000000000000e+00 0.000000000000e+00 0.000000000000e+00
0.000000000000e+00 0.000000000000e+00 0.000000000000e+00
0.000000000000e+00 0.000000000000e+00 0.000000000000e+00
0.000000000000e+00 0.000000000000e+00 0.000000000000e+00
0.000000000000e+00 0.000000000000e+00 0.000000000000e+00
0.000000000000e+00 0.000000000000e+00 0.000000000000e+00
0.000000000000e+00 0.000000000000e+00 0.000000000000e+00
0.000000000000e+00 0.000000000000e+00 0.000000000000e+00
0.000000000000e+00 0.000000000000e+00 0.000000000000e+00
0.000000000000e+00 0.000000000000e+00 0.000000000000e+00
0.000000000000e+00 0.000000000000e+00 0.000000000000e+00
0.000000000000e+00 0.000000000000e+00 0.000000000000e+00
0.000000000000e+00 0.000000000000e+00 0.000000000000e+00
0.000000000000e+00 0.000000000000e+00 0.000000000000e+00
0.000000000000e+00 0.000000000000e+00 0.000000000000e+00
0.000000000000e+00 0.000000000000e+00 0.000000000000e+00
0.000000000000e+00 0.000000000000e+00 0.000000000000e+00
0.000000000000e+00 0.000000000000e+00 0.000000000000e+00
0.000000000000e+00 0.000000000000e+00 0.000000000000e+00
0.000000000000e+00 0.000000000000e+00 0.000000000000e+00
0.000000000000e+00 0.000000000000e+00 0.000000000000e+00
0.000000000000e+00 0.000000000000e+00 0.000000000000e+00
0.000000000000e+00 0.000000000000e+00 0.000000000000e+00
0.000000000000e+00 0.000000000000e+00 0.000000000000e+00
0.000000000000e+00 0.000000000000e+00 0.000000000000e+00
0.000000000000e+00 0.000000000000e+00 0.000000000000e+00
0.000000000000e+00 0.000000000000e+00 0.000000000000e+00
0.000000000000e+00 0.000000000000e+00 0.000000000000e+00
0.000000000000e+00 0.000000000000e+00 0.000000000000e+00
0.000000000000e+00 0.000000000000e+00 0.000000000000e+00
0.000000000000e+00 0.000000000000e+00 0.000000000000e+00
0.000000000000e+00 0.000000000000e+00 0.000000000000e+00
0.000000000000e+00 0.000000000000e+00 0.000000000000e+00
0.000000000000e+00 0.000000000000e+00 0.000000000000e+00
0.000000000000e+00 0.000000000000e+00 0.000000000000e+00
0.000000000000e+00 0.000000000000e+00 0.000000000000e+00
0.000000000000e+00 0.000000000000e+00 0.000000000000e+00
0.000000000000e+00 0.000000000000e+00 0.000000000000e+00
0.000000000000e+00 0.000000000000e+00 0.000000000000e+00
0.000000000000e+00 0.000000000000e+00 0.000000000000e+00
0.000000000000e+00 0.000000000000e+00 0.000000000000e+00
0.000000000000e+00 0.000000000000e+00 0.000000000000e+00
0.000000000000e+00 0.000000000000e+00 0.000000000000e+00
0.000000000000e+00 0.000000000000e+00 0.000000000000e+00
0.000000000000e+00 0.000000000000e+00 0.000000000000e+00
0.000000000000e+00 0.000000000000e+00 0.000000000000e+00
0.000000000000e+00 0.000000000000e+00 0.000000000000e+00
0.000000000000e+00 0.000000000000e+00 0.000000000000e+00
0.000000000000e+00 0.000000000000e+00 0.000000000000e+00
0.000000000000e+00 0.000000000000e+00 0.000000000000e+00
0.000000000000e+00 0.000000000000e+00 0.000000000000e+00
0.000000000000e+00 0.000000000000e+00 0.000000000000e+00
0.000000000000e+00 0.000000000000e+00 0.000000000000e+00
0.000000000000e+00 0.000000000000e+00 0.000000000000e+00
0.000000000000e+00 0.000000000000e+00 0.000000000000e+00
0.000000000000e+00 0.000000000000e+00 0.000000000000e+00
0.000000000000e+00 0.000000000000e+00 0.000000000000e+00
0.000000000000e+00 0.000000000000e+00 0.000000000000e+00
0.000000000000e+00 0.000000000000e+00 0.000000000000e+00
0.000000000000e+00 0.000000000000e+00 0.000000000000e+00
0.000000000000e+00 0.000000000000e+00 0.000000000000e+00
0.000000000000e+00 0.000000000000e+00 0.000000000000e+00
0.000000000000e+00 0.000000000000e+00 0.000000000000e+00
0.000000000000e+00 0.000000000000e+00 0.000000000000e+00
0.000000000000e+00 0.000000000000e+00 0.000000000000e+00
0.000000000000e+00 0.000000000000e+00 0.000000000000e+00
0.000000000000e+00 0.000000000000e+00 0.000000000000e+00
0.000000000000e+00 0.000000000000e+00 0.000000000000e+00
0.000000000000e+00 0.000000000000e+00 0.000000000000e+00
0.000000000000e+00 0.000000000000e+00 0.000000000000e+00
0.000000000000e+00 0.000000000000e+00 0.000000000000e+00
0.000000000000e+00 0.000000000000e+00 0.000000000000e+00
0.000000000000e+00 0.000000000000e+00 0.000000000000e+00
0.000000000000e+00 0.000000000000e+00 0.000000000000e+00
0.000000000000e+00 0.000000000000e+00 0.000000000000e+00
0.000000000000e+00 0.000000000000e+00 0.000000000000e+00
0.000000000000e+00 0.000000000000e+00 0.000000000000e+00
0.000000000000e+00 0.000000000000e+00 0.000000000000e+00
0.000000000000e+00 0.000000000000e+00 0.000000000000e+00
0.000000000000e+00 0.000000000000e+00 0.000000000000e+00
0.000000000000e+00 0.000000000000e+00 0.000000000000e+00
0.000000000000e+00 0.000000000000e+00 0.000000000000e+00
0.000000000000e+00 0.000000000000e+00 0.000000000000e+00
0.000000000000e+00 0.000000000000e+00 0.000000000000e+00
0.000000000000e+00 0.000000000000e+00 0.000000000000e+00
0.000000000000e+00 0.000000000000e+00 0.000000000000e+00
0.000000000000e+00 0.000000000000e+00 0.000000000000e+00
0.000000000000e+00 0.000000000000e+00 0.000000000000e+00
0.000000000000e+00 0.000000000000e+00 0.000000000000e+00
0.000000000000e+00 0.000000000000e+00 0.000000000000e+00
0.000000000000e+00 0.000000000000e+00 0.000000000000e+00
0.000000000000e+00 0.000000000000e+00 0.000000000000e+00
0.000000000000e+00 0.000000000000e+00 0.000000000000e+00
4.205022135697e-09 4.045481723938e-09 -1.138970965975e-02
2.993477821915e-09 2.609330328750e-09 -1.138972867476e-02
2.476127774060e-10 -4.995690384235e-10 -1.138973849224e-02
-2.498251549730e-09 2.609122686733e-09 -1.138972819995e-02
-3.709795173025e-09 4.045065734767e-09 -1.138970871014e-02
2.769078487679e-09 2.833937423760e-09 -1.138972882609e-02
2.753985648945e-09 2.594237700132e-09 -1.138974792378e-02
2.477167075142e-10 6.936697560644e-10 -1.138975764952e-02
-2.258551302921e-09 2.594030214954e-09 -1.138974744897e-02
-2.273643335220e-09 2.833522081935e-09 -1.138972787648e-02
-3.396136131556e-10 8.807205810101e-11 -1.138973879490e-02
8.536249442135e-10 8.796883981664e-11 -1.138975780085e-02
2.478204159212e-10 8.786553891726e-11 -1.138976747105e-02
-3.579831310669e-10 8.776203612603e-11 -1.138975732605e-02
8.352561791585e-10 8.765843656170e-11 -1.138973784529e-02
2.769285028889e-09 -2.657793044938e-09 -1.138972865394e-02
2.754192245939e-09 -2.418299684620e-09 -1.138974775163e-02
2.479235490718e-10 -5.179383138124e-10 -1.138975747737e-02
-2.258344211522e-09 -2.418505807496e-09 -1.138974727682e-02
-2.273436177578e-09 -2.658204949981e-09 -1.138972770433e-02
4.205434951657e-09 -3.869337089059e-09 -1.138970931546e-02
2.993890870690e-09 -2.433392012473e-09 -1.138972833046e-02
2.480264464045e-10 6.753007644548e-10 -1.138973814795e-02
-2.497837256740e-09 -2.433597986887e-09 -1.138972785566e-02
-3.709380640493e-09 -3.869748359660e-09 -1.138970836584e-02
1.246495542482e-08 1.238410650545e-08 -1.138971018325e-02
1.056163759094e-08 1.060221531117e-08 -1.138972791157e-02
1.241630265723e-10 6.958728497350e-09 -1.138973678940e-02
-1.031331120407e-08 1.060200773223e-08 -1.138972743676e-02
-1.221662858849e-08 1.238369062434e-08 -1.138970923364e-02
1.068327199642e-08 1.048078856108e-08 -1.138972806290e-02
1.042682423313e-08 1.034576765197e-08 -1.138974546626e-02
1.242669976751e-10 8.418750865516e-09 -1.138975404969e-02
-1.017828969958e-08 1.034556033897e-08 -1.138974499146e-02
-1.043473686856e-08 1.048037346060e-08 -1.138972711329e-02
7.039992457007e-09 4.331363517287e-11 -1.138973709206e-02
8.500014651896e-09 4.321042886856e-11 -1.138975420102e-02
1.243707447343e-10 4.310714368838e-11 -1.138976272588e-02
-8.251272585371e-09 4.300361473721e-11 -1.138975372621e-02
-6.791249829063e-09 4.289999652053e-11 -1.138973614245e-02
1.068347855289e-08 -1.039416116528e-08 -1.138972789075e-02
1.042703088694e-08 -1.025934659871e-08 -1.138974529412e-02
1.244738284159e-10 -8.332536368857e-09 -1.138975387754e-02
-1.017808268944e-08 -1.025955291607e-08 -1.138974481931e-02
-1.043452975737e-08 -1.039457334110e-08 -1.138972694114e-02
1.246536827027e-08 -1.229747894286e-08 -1.138970983895e-02
1.056205071418e-08 -1.051579404125e-08 -1.138972756727e-02
1.245766811775e-10 -6.872513792824e-09 -1.138973644510e-02
-1.031289701940e-08 -1.051600009142e-08 -1.138972709247e-02
-1.221621411806e-08 -1.229789033762e-08 -1.138970888934e-02
1.880056767187e-08 1.879841015023e-08 -1.138971597887e-02
1.651428010334e-08 1.662083639160e-08 -1.138973072458e-02
7.132317006638e-13 1.235442960326e-08 -1.138973715312e-02
-1.651285351940e-08 1.662062889216e-08 -1.138973024978e-02
-1.879914069636e-08 1.879799438367e-08 -1.138971502925e-02
1.662320168442e-08 1.651212242032e-08 -1.138973087591e-02
1.647703836994e-08 1.647467315694e-08 -1.138974468822e-02
8.171853234632e-13 1.445967220561e-08 -1.138975038552e-02
-1.647540365222e-08 1.647446601958e-08 -1.138974421342e-02
-1.662156636348e-08 1.651170754654e-08 -1.138972992630e-02
1.235700217806e-08 -1.444805674078e-12 -1.138973745578e-02
1.446224458529e-08 -1.548018411906e-12 -1.138975053685e-02
9.209575847651e-13 -1.651296931548e-12 -1.138975585749e-02
-1.446040227451e-08 -1.754839443575e-12 -1.138975006204e-02
-1.235515926001e-08 -1.858454129247e-12 -1.138973650617e-02
1.662340825787e-08 -1.651501198626e-08 -1.138973070376e-02
1.647724508037e-08 -1.647776906686e-08 -1.138974451607e-02
1.024007556831e-12 -1.446297465343e-08 -1.138975021337e-02
-1.647519671974e-08 -1.647797557427e-08 -1.138974404127e-02
-1.662135929468e-08 -1.651542440573e-08 -1.138972975415e-02
1.880098054854e-08 -1.880129957300e-08 -1.138971563457e-02
1.651469330233e-08 -1.662393208480e-08 -1.138973038029e-02
1.126874037199e-12 -1.235773183253e-08 -1.138973680883e-02
-1.651243943414e-08 -1.662413823312e-08 -1.138972990548e-02
-1.879872628401e-08 -1.880171108838e-08 -1.138971468496e-02
2.586691757079e-08 2.594345126526e-08 -1.138972276795e-02
2.068651275826e-08 2.330461221413e-08 -1.138973422731e-02
-1.227362438860e-10 1.841930333780e-08 -1.138973784834e-02
-2.093198539179e-08 2.330440496866e-08 -1.138973375251e-02
-2.611239018730e-08 2.594303592113e-08 -1.138972181834e-02
2.322828624156e-08 2.076304623388e-08 -1.138973437864e-02
2.062540433842e-08 2.070173030563e-08 -1.138974404970e-02
-1.226323169487e-10 1.844380820468e-08 -1.138974637441e-02
-2.087066886187e-08 2.070152334776e-08 -1.138974357489e-02
-2.347355049909e-08 2.076263159797e-08 -1.138973342903e-02
1.834318459400e-08 -4.620312965146e-11 -1.138973815100e-02
1.836768936949e-08 -4.630635450216e-11 -1.138974652574e-02
-1.225285107474e-10 -4.640962274131e-11 -1.138974807548e-02
-1.861274622048e-08 -4.651318121136e-11 -1.138974605094e-02
-1.858824114744e-08 -4.661678659451e-11 -1.138973720139e-02
2.322849290050e-08 -2.085545254706e-08 -1.138973420649e-02
2.062561110369e-08 -2.079434297346e-08 -1.138974387755e-02
-1.224255004024e-10 -1.853662738717e-08 -1.138974620227e-02
-2.087046200269e-08 -2.079454967834e-08 -1.138974340275e-02
-2.347334353455e-08 -2.085586521280e-08 -1.138973325688e-02
2.586733058758e-08 -2.603585757539e-08 -1.138972242366e-02
2.068692603840e-08 -2.339722478728e-08 -1.138973388302e-02
-1.223226094406e-10 -1.851212241715e-08 -1.138973750404e-02
-2.093157140290e-08 -2.339743120400e-08 -1.138973340821e-02
-2.611197593601e-08 -2.603626952721e-08 -1.138972147404e-02
3.179919149201e-08 3.195441634481e-08 -1.138972444770e-02
2.350987416077e-08 2.842922534205e-08 -1.138973338399e-02
-2.461854902846e-10 2.270976820418e-08 -1.138973475546e-02
-2.400224572555e-08 2.842901839252e-08 -1.138973290919e-02
-3.229156360063e-08 3.195400150640e-08 -1.138972349809e-02
2.827420817012e-08 2.366509867771e-08 -1.138973353532e-02
2.285762688989e-08 2.301264390572e-08 -1.138973983441e-02
-2.460815089011e-10 2.016569593654e-08 -1.138973942335e-02
-2.334979025093e-08 2.301243715042e-08 -1.138973935961e-02
-2.876637183163e-08 2.366468434333e-08 -1.138973258571e-02
2.255495822129e-08 -9.096136887490e-11 -1.138973505812e-02
2.001088602412e-08 -9.106457348232e-11 -1.138973957468e-02
-2.459776562613e-10 -9.116783135674e-11 -1.138973818957e-02
-2.050284160886e-08 -9.127141568702e-11 -1.138973909987e-02
-2.304691405127e-08 -9.137503349964e-11 -1.138973410851e-02
2.827441493027e-08 -2.384702163140e-08 -1.138973336317e-02
2.285783371890e-08 -2.319477318415e-08 -1.138973966226e-02
-2.458747061628e-10 -2.034803170493e-08 -1.138973925120e-02
-2.334958347062e-08 -2.319498010304e-08 -1.138973918746e-02
-2.876616497063e-08 -2.384743462488e-08 -1.138973241356e-02
3.179960469013e-08 -3.213633949864e-08 -1.138972410341e-02
2.351028753448e-08 -2.861135473255e-08 -1.138973303970e-02
-2.457718659566e-10 -2.289210407509e-08 -1.138973441117e-02
-2.400183185110e-08 -2.861156144919e-08 -1.138973256489e-02
-3.229114955338e-08 -3.213675198868e-08 -1.138972315380e-02
SCALARS displacement_magnitude float 1
LOOKUP_TABLE default
0.000000000000e+00
0.000000000000e+00
0.000000000000e+00
0.000000000000e+00
0.000000000000e+00
0.000000000000e+00
0.000000000000e+00
0.000000000000e+00
0.000000000000e+00
0.000000000000e+00
0.000000000000e+00
0.000000000000e+00
0.000000000000e+00
0.000000000000e+00
0.000000000000e+00
0.000000000000e+00
0.000000000000e+00
0.000000000000e+00
0.000000000000e+00
0.000000000000e+00
0.000000000000e+00
0.000000000000e+00
0.000000000000e+00
0.000000000000e+00
0.000000000000e+00
0.000000000000e+00
0.000000000000e+00
0.000000000000e+00
0.000000000000e+00
0.000000000000e+00
0.000000000000e+00
0.000000000000e+00
0.000000000000e+00
0.000000000000e+00
0.000000000000e+00
0.000000000000e+00
0.000000000000e+00
0.000000000000e+00
0.000000000000e+00
0.000000000000e+00
0.000000000000e+00
0.000000000000e+00
0.000000000000e+00
0.000000000000e+00
0.000000000000e+00
0.000000000000e+00
0.000000000000e+00
0.000000000000e+00
0.000000000000e+00
0.000000000000e+00
0.000000000000e+00
0.000000000000e+00
0.000000000000e+00
0.000000000000e+00
0.000000000000e+00
0.000000000000e+00
0.000000000000e+00
0.000000000000e+00
0.000000000000e+00
0.000000000000e+00
0.000000000000e+00
0.000000000000e+00
0.000000000000e+00
0.000000000000e+00
0.000000000000e+00
0.000000000000e+00
0.000000000000e+00
0.000000000000e+00
0.000000000000e+00
0.000000000000e+00
0.000000000000e+00
0.000000000000e+00
0.000000000000e+00
0.000000000000e+00
0.000000000000e+00
0.000000000000e+00
0.000000000000e+00
0.000000000000e+00
0.000000000000e+00
0.000000000000e+00
0.000000000000e+00
0.000000000000e+00
0.000000000000e+00
0.000000000000e+00
0.000000000000e+00
0.000000000000e+00
0.000000000000e+00
0.000000000000e+00
0.000000000000e+00
0.000000000000e+00
0.000000000000e+00
0.000000000000e+00
0.000000000000e+00
0.000000000000e+00
0.000000000000e+00
0.000000000000e+00
0.000000000000e+00
0.000000000000e+00
0.000000000000e+00
0.000000000000e+00
0.000000000000e+00
0.000000000000e+00
0.000000000000e+00
0.000000000000e+00
0.000000000000e+00
0.000000000000e+00
0.000000000000e+00
0.000000000000e+00
0.000000000000e+00
0.000000000000e+00
0.000000000000e+00
0.000000000000e+00
0.000000000000e+00
0.000000000000e+00
0.000000000000e+00
0.000000000000e+00
0.000000000000e+00
0.000000000000e+00
0.000000000000e+00
0.000000000000e+00
0.000000000000e+00
0.000000000000e+00
0.000000000000e+00
0.000000000000e+00
0.000000000000e+00
1.138970965976e-02
1.138972867476e-02
1.138973849224e-02
1.138972819995e-02
1.138970871014e-02
1.138972882609e-02
1.138974792378e-02
1.138975764952e-02
1.138974744897e-02
1.138972787648e-02
1.138973879490e-02
1.138975780085e-02
1.138976747105e-02
1.138975732605e-02
1.138973784529e-02
1.138972865394e-02
1.138974775163e-02
1.138975747737e-02
1.138974727682e-02
1.138972770433e-02
1.138970931546e-02
1.138972833047e-02
1.138973814795e-02
1.138972785566e-02
1.138970836585e-02
1.138971018326e-02
1.138972791158e-02
1.138973678940e-02
1.138972743677e-02
1.138970923365e-02
1.138972806291e-02
1.138974546627e-02
1.138975404969e-02
1.138974499147e-02
1.138972711330e-02
1.138973709206e-02
1.138975420102e-02
1.138976272588e-02
1.138975372622e-02
1.138973614245e-02
1.138972789076e-02
1.138974529412e-02
1.138975387754e-02
1.138974481932e-02
1.138972694115e-02
1.138970983897e-02
1.138972756728e-02
1.138973644511e-02
1.138972709248e-02
1.138970888935e-02
1.138971597890e-02
1.138973072461e-02
1.138973715313e-02
1.138973024980e-02
1.138971502928e-02
1.138973087594e-02
1.138974468824e-02
1.138975038553e-02
1.138974421344e-02
1.138972992632e-02
1.138973745579e-02
1.138975053686e-02
1.138975585749e-02
1.138975006205e-02
1.138973650617e-02
1.138973070379e-02
1.138974451610e-02
1.138975021338e-02
1.138974404129e-02
1.138972975418e-02
1.138971563460e-02
1.138973038031e-02
1.138973680883e-02
1.138972990551e-02
1.138971468499e-02
1.138972276801e-02
1.138973422735e-02
1.138973784835e-02
1.138973375255e-02
1.138972181840e-02
1.138973437868e-02
1.138974404974e-02
1.138974637443e-02
1.138974357493e-02
1.138973342907e-02
1.138973815101e-02
1.138974652576e-02
1.138974807548e-02
1.138974605095e-02
1.138973720140e-02
1.138973420654e-02
1.138974387759e-02
1.138974620228e-02
1.138974340278e-02
1.138973325693e-02
1.138972242372e-02
1.138973388306e-02
1.138973750406e-02
1.138973340826e-02
1.138972147410e-02
1.138972444779e-02
1.138973338405e-02
1.138973475548e-02
1.138973290925e-02
1.138972349818e-02
1.138973353538e-02
1.138973983446e-02
1.138973942337e-02
1.138973935965e-02
1.138973258577e-02
1.138973505814e-02
1.138973957469e-02
1.138973818957e-02
1.138973909989e-02
1.138973410853e-02
1.138973336323e-02
1.138973966231e-02
1.138973925122e-02
1.138973918751e-02
1.138973241362e-02
1.138972410350e-02
1.138973303976e-02
1.138973441119e-02
1.138973256495e-02
1.138972315389e-02
CELL_DATA 128
SCALARS displacement_magnitude float 1
LOOKUP_TABLE default
0.000000000000e+00
0.000000000000e+00
0.000000000000e+00
0.000000000000e+00
0.000000000000e+00
0.000000000000e+00
0.000000000000e+00
0.000000000000e+00
0.000000000000e+00
0.000000000000e+00
0.000000000000e+00
0.000000000000e+00
0.000000000000e+00
0.000000000000e+00
0.000000000000e+00
0.000000000000e+00
0.000000000000e+00
0.000000000000e+00
0.000000000000e+00
0.000000000000e+00
0.000000000000e+00
0.000000000000e+00
0.000000000000e+00
0.000000000000e+00
0.000000000000e+00
0.000000000000e+00
0.000000000000e+00
0.000000000000e+00
0.000000000000e+00
0.000000000000e+00
0.000000000000e+00
0.000000000000e+00
0.000000000000e+00
0.000000000000e+00
0.000000000000e+00
0.000000000000e+00
0.000000000000e+00
0.000000000000e+00
0.000000000000e+00
0.000000000000e+00
0.000000000000e+00
0.000000000000e+00
0.000000000000e+00
0.000000000000e+00
0.000000000000e+00
0.000000000000e+00
0.000000000000e+00
0.000000000000e+00
0.000000000000e+00
0.000000000000e+00
0.000000000000e+00
0.000000000000e+00
0.000000000000e+00
0.000000000000e+00
0.000000000000e+00
0.000000000000e+00
0.000000000000e+00
0.000000000000e+00
0.000000000000e+00
0.000000000000e+00
0.000000000000e+00
0.000000000000e+00
0.000000000000e+00
0.000000000000e+00
1.138972833855e-02
1.138974211966e-02
1.138974188225e-02
1.138972762634e-02
1.138974227099e-02
1.138975591101e-02
1.138975567361e-02
1.138974155878e-02
1.138974218491e-02
1.138975582493e-02
1.138975558753e-02
1.138974147270e-02
1.138972808033e-02
1.138974186143e-02
1.138974162403e-02
1.138972736812e-02
1.138972923646e-02
1.138974089606e-02
1.138974065865e-02
1.138972852425e-02
1.138974104739e-02
1.138975223887e-02
1.138975200147e-02
1.138974033518e-02
1.138974096131e-02
1.138975215280e-02
1.138975191540e-02
1.138974024910e-02
1.138972897824e-02
1.138974063784e-02
1.138974040043e-02
1.138972826603e-02
1.138973221143e-02
1.138974068142e-02
1.138974044402e-02
1.138973149923e-02
1.138974083275e-02
1.138974831169e-02
1.138974807429e-02
1.138974012054e-02
1.138974074668e-02
1.138974822562e-02
1.138974798822e-02
1.138974003447e-02
1.138973195321e-02
1.138974042320e-02
1.138974018580e-02
1.138973124100e-02
1.138973332818e-02
1.138973873715e-02
1.138973849975e-02
1.138973261598e-02
1.138973888848e-02
1.138974275594e-02
1.138974251853e-02
1.138973817628e-02
1.138973880241e-02
1.138974266986e-02
1.138974243246e-02
1.138973809020e-02
1.138973306996e-02
1.138973847893e-02
1.138973824153e-02
1.138973235776e-02
SCALARS engineering_strain_norm float 1
LOOKUP_TABLE default
0.000000000000e+00
0.000000000000e+00
0.000000000000e+00
0.000000000000e+00
0.000000000000e+00
0.000000000000e+00
0.000000000000e+00
0.000000000000e+00
0.000000000000e+00
0.000000000000e+00
0.000000000000e+00
0.000000000000e+00
0.000000000000e+00
0.000000000000e+00
0.000000000000e+00
0.000000000000e+00
0.000000000000e+00
0.000000000000e+00
0.000000000000e+00
0.000000000000e+00
0.000000000000e+00
0.000000000000e+00
0.000000000000e+00
0.000000000000e+00
0.000000000000e+00
0.000000000000e+00
0.000000000000e+00
0.000000000000e+00
0.000000000000e+00
0.000000000000e+00
0.000000000000e+00
0.000000000000e+00
0.000000000000e+00
0.000000000000e+00
0.000000000000e+00
0.000000000000e+00
0.000000000000e+00
0.000000000000e+00
0.000000000000e+00
0.000000000000e+00
0.000000000000e+00
0.000000000000e+00
0.000000000000e+00
0.000000000000e+00
0.000000000000e+00
0.000000000000e+00
0.000000000000e+00
0.000000000000e+00
0.000000000000e+00
0.000000000000e+00
0.000000000000e+00
0.000000000000e+00
0.000000000000e+00
0.000000000000e+00
0.000000000000e+00
0.000000000000e+00
0.000000000000e+00
0.000000000000e+00
0.000000000000e+00
0.000000000000e+00
0.000000000000e+00
0.000000000000e+00
0.000000000000e+00
0.000000000000e+00
4.233634470160e-08
7.281723393108e-08
7.281722884807e-08
4.233634327012e-08
7.281723489455e-08
8.691172587721e-08
8.691171875568e-08
7.281722678866e-08
7.281723307700e-08
8.691172335041e-08
8.691171613618e-08
7.281722495353e-08
4.233634415985e-08
7.281723103812e-08
7.281722588135e-08
4.233634275200e-08
6.655660466697e-08
1.161646106419e-07
1.161646078597e-07
6.655661129784e-08
1.161646117804e-07
1.533023571054e-07
1.533023516368e-07
1.161646054749e-07
1.161646107488e-07
1.533023551625e-07
1.533023496850e-07
1.161646044862e-07
6.655660702580e-08
1.161646083849e-07
1.161646056200e-07
6.655661379323e-08
6.495653616271e-08
1.519891492479e-07
1.519891492598e-07
6.495654393364e-08
1.519891507579e-07
2.090187144340e-07
2.090187117973e-07
1.519891460896e-07
1.519891507441e-07
2.090187134617e-07
2.090187108936e-07
1.519891461052e-07
6.495653896037e-08
1.519891475563e-07
1.519891476152e-07
6.495654684523e-08
7.042410620595e-08
1.903717704170e-07
1.903717733218e-07
7.042410607318e-08
1.903717725153e-07
2.584374106493e-07
2.584374112671e-07
1.903717688103e-07
1.903717735823e-07
2.584374108487e-07
2.584374115406e-07
1.903717698551e-07
7.042410617186e-08
1.903717690409e-07
1.903717719969e-07
7.042410604367e-08
SCALARS von_mises float 1
LOOKUP_TABLE default
0.000000000000e+00
0.000000000000e+00
0.000000000000e+00
0.000000000000e+00
0.000000000000e+00
0.000000000000e+00
0.000000000000e+00
0.000000000000e+00
0.000000000000e+00
0.000000000000e+00
0.000000000000e+00
0.000000000000e+00
0.000000000000e+00
0.000000000000e+00
0.000000000000e+00
0.000000000000e+00
0.000000000000e+00
0.000000000000e+00
0.000000000000e+00
0.000000000000e+00
0.000000000000e+00
0.000000000000e+00
0.000000000000e+00
0.000000000000e+00
0.000000000000e+00
0.000000000000e+00
0.000000000000e+00
0.000000000000e+00
0.000000000000e+00
0.000000000000e+00
0.000000000000e+00
0.000000000000e+00
0.000000000000e+00
0.000000000000e+00
0.000000000000e+00
0.000000000000e+00
0.000000000000e+00
0.000000000000e+00
0.000000000000e+00
0.000000000000e+00
0.000000000000e+00
0.000000000000e+00
0.000000000000e+00
0.000000000000e+00
0.000000000000e+00
0.000000000000e+00
0.000000000000e+00
0.000000000000e+00
0.000000000000e+00
0.000000000000e+00
0.000000000000e+00
0.000000000000e+00
0.000000000000e+00
0.000000000000e+00
0.000000000000e+00
0.000000000000e+00
0.000000000000e+00
0.000000000000e+00
0.000000000000e+00
0.000000000000e+00
0.000000000000e+00
0.000000000000e+00
0.000000000000e+00
0.000000000000e+00
3.024461015761e-03
6.306907398807e-03
6.306906939332e-03
3.024460749991e-03
6.306907508588e-03
7.810965808933e-03
7.810965240274e-03
6.306906706178e-03
6.306907343043e-03
7.810965607867e-03
7.810965034202e-03
6.306906541179e-03
3.024460917786e-03
6.306907110979e-03
6.306906646764e-03
3.024460652619e-03
4.175975511775e-03
9.164970124836e-03
9.164969843486e-03
4.175976275318e-03
9.164970255894e-03
1.215350390776e-02
1.215350339471e-02
9.164969568687e-03
9.164970151898e-03
1.215350372807e-02
1.215350321376e-02
9.164969466156e-03
4.175975785687e-03
9.164969880208e-03
9.164969599282e-03
4.175976560707e-03
3.007106514266e-03
1.165592180597e-02
1.165592170037e-02
3.007107518252e-03
1.165592198330e-02
1.570234262082e-02
1.570234225290e-02
1.165592132005e-02
1.165592194528e-02
1.570234248517e-02
1.570234212696e-02
1.165592128266e-02
3.007106877563e-03
1.165592156684e-02
1.165592146552e-02
3.007107892137e-03
5.019422017784e-03
1.608446154883e-02
1.608446172127e-02
5.019421786820e-03
1.608446174840e-02
2.105679172980e-02
2.105679170669e-02
1.608446128809e-02
1.608446181355e-02
2.105679171745e-02
2.105679170401e-02
1.608446134807e-02
5.019421932331e-03
1.608446137845e-02
1.608446155619e-02
5.019421703320e-03
SCALARS sdf_gap float 1
LOOKUP_TABLE default
0.000000000000e+00
0.000000000000e+00
0.000000000000e+00
0.000000000000e+00
0.000000000000e+00
0.000000000000e+00
0.000000000000e+00
0.000000000000e+00
0.000000000000e+00
0.000000000000e+00
0.000000000000e+00
0.000000000000e+00
0.000000000000e+00
0.000000000000e+00
0.000000000000e+00
0.000000000000e+00
0.000000000000e+00
0.000000000000e+00
0.000000000000e+00
0.000000000000e+00
0.000000000000e+00
0.000000000000e+00
0.000000000000e+00
0.000000000000e+00
0.000000000000e+00
0.000000000000e+00
0.000000000000e+00
0.000000000000e+00
0.000000000000e+00
0.000000000000e+00
0.000000000000e+00
0.000000000000e+00
0.000000000000e+00
0.000000000000e+00
0.000000000000e+00
0.000000000000e+00
0.000000000000e+00
0.000000000000e+00
0.000000000000e+00
0.000000000000e+00
0.000000000000e+00
0.000000000000e+00
0.000000000000e+00
0.000000000000e+00
0.000000000000e+00
0.000000000000e+00
0.000000000000e+00
0.000000000000e+00
0.000000000000e+00
0.000000000000e+00
0.000000000000e+00
0.000000000000e+00
0.000000000000e+00
0.000000000000e+00
0.000000000000e+00
0.000000000000e+00
0.000000000000e+00
0.000000000000e+00
0.000000000000e+00
0.000000000000e+00
0.000000000000e+00
0.000000000000e+00
0.000000000000e+00
0.000000000000e+00
3.610271228905e-03
3.610256814925e-03
3.610257052328e-03
3.610271941115e-03
3.610256663595e-03
3.610242288700e-03
3.610242526103e-03
3.610257375805e-03
3.610256749669e-03
3.610242374774e-03
3.610242612177e-03
3.610257461879e-03
3.610271487127e-03
3.610257073146e-03
3.610257310549e-03
3.610272199337e-03
0.000000000000e+00
0.000000000000e+00
0.000000000000e+00
0.000000000000e+00
0.000000000000e+00
0.000000000000e+00
0.000000000000e+00
0.000000000000e+00
0.000000000000e+00
0.000000000000e+00
0.000000000000e+00
0.000000000000e+00
0.000000000000e+00
0.000000000000e+00
0.000000000000e+00
0.000000000000e+00
0.000000000000e+00
0.000000000000e+00
0.000000000000e+00
0.000000000000e+00
0.000000000000e+00
0.000000000000e+00
0.000000000000e+00
0.000000000000e+00
0.000000000000e+00
0.000000000000e+00
0.000000000000e+00
0.000000000000e+00
0.000000000000e+00
0.000000000000e+00
0.000000000000e+00
0.000000000000e+00
0.000000000000e+00
0.000000000000e+00
0.000000000000e+00
0.000000000000e+00
0.000000000000e+00
0.000000000000e+00
0.000000000000e+00
0.000000000000e+00
0.000000000000e+00
0.000000000000e+00
0.000000000000e+00
0.000000000000e+00
0.000000000000e+00
0.000000000000e+00
0.000000000000e+00
0.000000000000e+00
SCALARS contact_pressure float 1
LOOKUP_TABLE default
0.000000000000e+00
0.000000000000e+00
0.000000000000e+00
0.000000000000e+00
0.000000000000e+00
0.000000000000e+00
0.000000000000e+00
0.000000000000e+00
0.000000000000e+00
0.000000000000e+00
0.000000000000e+00
0.000000000000e+00
0.000000000000e+00
0.000000000000e+00
0.000000000000e+00
0.000000000000e+00
0.000000000000e+00
0.000000000000e+00
0.000000000000e+00
0.000000000000e+00
0.000000000000e+00
0.000000000000e+00
0.000000000000e+00
0.000000000000e+00
0.000000000000e+00
0.000000000000e+00
0.000000000000e+00
0.000000000000e+00
0.000000000000e+00
0.000000000000e+00
0.000000000000e+00
0.000000000000e+00
0.000000000000e+00
0.000000000000e+00
0.000000000000e+00
0.000000000000e+00
0.000000000000e+00
0.000000000000e+00
0.000000000000e+00
0.000000000000e+00
0.000000000000e+00
0.000000000000e+00
0.000000000000e+00
0.000000000000e+00
0.000000000000e+00
0.000000000000e+00
0.000000000000e+00
0.000000000000e+00
0.000000000000e+00
0.000000000000e+00
0.000000000000e+00
0.000000000000e+00
0.000000000000e+00
0.000000000000e+00
0.000000000000e+00
0.000000000000e+00
0.000000000000e+00
0.000000000000e+00
0.000000000000e+00
0.000000000000e+00
0.000000000000e+00
0.000000000000e+00
0.000000000000e+00
0.000000000000e+00
0.000000000000e+00
0.000000000000e+00
0.000000000000e+00
0.000000000000e+00
0.000000000000e+00
0.000000000000e+00
0.000000000000e+00
0.000000000000e+00
0.000000000000e+00
0.000000000000e+00
0.000000000000e+00
0.000000000000e+00
0.000000000000e+00
0.000000000000e+00
0.000000000000e+00
0.000000000000e+00
0.000000000000e+00
0.000000000000e+00
0.000000000000e+00
0.000000000000e+00
0.000000000000e+00
0.000000000000e+00
0.000000000000e+00
0.000000000000e+00
0.000000000000e+00
0.000000000000e+00
0.000000000000e+00
0.000000000000e+00
0.000000000000e+00
0.000000000000e+00
0.000000000000e+00
0.000000000000e+00
0.000000000000e+00
0.000000000000e+00
0.000000000000e+00
0.000000000000e+00
0.000000000000e+00
0.000000000000e+00
0.000000000000e+00
0.000000000000e+00
0.000000000000e+00
0.000000000000e+00
0.000000000000e+00
0.000000000000e+00
0.000000000000e+00
0.000000000000e+00
0.000000000000e+00
0.000000000000e+00
0.000000000000e+00
0.000000000000e+00
0.000000000000e+00
0.000000000000e+00
0.000000000000e+00
0.000000000000e+00
0.000000000000e+00
0.000000000000e+00
0.000000000000e+00
0.000000000000e+00
0.000000000000e+00
0.000000000000e+00
0.000000000000e+00
0.000000000000e+00
0.000000000000e+00
0.000000000000e+00
SCALARS active_contact float 1
LOOKUP_TABLE default
0.000000000000e+00
0.000000000000e+00
0.000000000000e+00
0.000000000000e+00
0.000000000000e+00
0.000000000000e+00
0.000000000000e+00
0.000000000000e+00
0.000000000000e+00
0.000000000000e+00
0.000000000000e+00
0.000000000000e+00
0.000000000000e+00
0.000000000000e+00
0.000000000000e+00
0.000000000000e+00
0.000000000000e+00
0.000000000000e+00
0.000000000000e+00
0.000000000000e+00
0.000000000000e+00
0.000000000000e+00
0.000000000000e+00
0.000000000000e+00
0.000000000000e+00
0.000000000000e+00
0.000000000000e+00
0.000000000000e+00
0.000000000000e+00
0.000000000000e+00
0.000000000000e+00
0.000000000000e+00
0.000000000000e+00
0.000000000000e+00
0.000000000000e+00
0.000000000000e+00
0.000000000000e+00
0.000000000000e+00
0.000000000000e+00
0.000000000000e+00
0.000000000000e+00
0.000000000000e+00
0.000000000000e+00
0.000000000000e+00
0.000000000000e+00
0.000000000000e+00
0.000000000000e+00
0.000000000000e+00
0.000000000000e+00
0.000000000000e+00
0.000000000000e+00
0.000000000000e+00
0.000000000000e+00
0.000000000000e+00
0.000000000000e+00
0.000000000000e+00
0.000000000000e+00
0.000000000000e+00
0.000000000000e+00
0.000000000000e+00
0.000000000000e+00
0.000000000000e+00
0.000000000000e+00
0.000000000000e+00
0.000000000000e+00
0.000000000000e+00
0.000000000000e+00
0.000000000000e+00
0.000000000000e+00
0.000000000000e+00
0.000000000000e+00
0.000000000000e+00
0.000000000000e+00
0.000000000000e+00
0.000000000000e+00
0.000000000000e+00
0.000000000000e+00
0.000000000000e+00
0.000000000000e+00
0.000000000000e+00
0.000000000000e+00
0.000000000000e+00
0.000000000000e+00
0.000000000000e+00
0.000000000000e+00
0.000000000000e+00
0.000000000000e+00
0.000000000000e+00
0.000000000000e+00
0.000000000000e+00
0.000000000000e+00
0.000000000000e+00
0.000000000000e+00
0.000000000000e+00
0.000000000000e+00
0.000000000000e+00
0.000000000000e+00
0.000000000000e+00
0.000000000000e+00
0.000000000000e+00
0.000000000000e+00
0.000000000000e+00
0.000000000000e+00
0.000000000000e+00
0.000000000000e+00
0.000000000000e+00
0.000000000000e+00
0.000000000000e+00
0.000000000000e+00
0.000000000000e+00
0.000000000000e+00
0.000000000000e+00
0.000000000000e+00
0.000000000000e+00
0.000000000000e+00
0.000000000000e+00
0.000000000000e+00
0.000000000000e+00
0.000000000000e+00
0.000000000000e+00
0.000000000000e+00
0.000000000000e+00
0.000000000000e+00
0.000000000000e+00
0.000000000000e+00
0.000000000000e+00
0.000000000000e+00
0.000000000000e+00
