# vtk DataFile Version 3.0
SFC long-time C3D8 dynamic frame 31 t=6.200000000000e-01
ASCII
DATASET UNSTRUCTURED_GRID
POINTS 250 float
-2.500000000000e-01 -2.500000000000e-01 0.000000000000e+00
-1.250000000000e-01 -2.500000000000e-01 0.000000000000e+00
0.000000000000e+00 -2.500000000000e-01 0.000000000000e+00
1.250000000000e-01 -2.500000000000e-01 0.000000000000e+00
2.500000000000e-01 -2.500000000000e-01 0.000000000000e+00
-2.500000000000e-01 -1.250000000000e-01 0.000000000000e+00
-1.250000000000e-01 -1.250000000000e-01 0.000000000000e+00
0.000000000000e+00 -1.250000000000e-01 0.000000000000e+00
1.250000000000e-01 -1.250000000000e-01 0.000000000000e+00
2.500000000000e-01 -1.250000000000e-01 0.000000000000e+00
-2.500000000000e-01 0.000000000000e+00 0.000000000000e+00
-1.250000000000e-01 0.000000000000e+00 0.000000000000e+00
0.000000000000e+00 0.000000000000e+00 0.000000000000e+00
1.250000000000e-01 0.000000000000e+00 0.000000000000e+00
2.500000000000e-01 0.000000000000e+00 0.000000000000e+00
-2.500000000000e-01 1.250000000000e-01 0.000000000000e+00
-1.250000000000e-01 1.250000000000e-01 0.000000000000e+00
0.000000000000e+00 1.250000000000e-01 0.000000000000e+00
1.250000000000e-01 1.250000000000e-01 0.000000000000e+00
2.500000000000e-01 1.250000000000e-01 0.000000000000e+00
-2.500000000000e-01 2.500000000000e-01 0.000000000000e+00
-1.250000000000e-01 2.500000000000e-01 0.000000000000e+00
0.000000000000e+00 2.500000000000e-01 0.000000000000e+00
1.250000000000e-01 2.500000000000e-01 0.000000000000e+00
2.500000000000e-01 2.500000000000e-01 0.000000000000e+00
-2.500000000000e-01 -2.500000000000e-01 6.000000000000e-02
-1.250000000000e-01 -2.500000000000e-01 6.000000000000e-02
0.000000000000e+00 -2.500000000000e-01 6.000000000000e-02
1.250000000000e-01 -2.500000000000e-01 6.000000000000e-02
2.500000000000e-01 -2.500000000000e-01 6.000000000000e-02
-2.500000000000e-01 -1.250000000000e-01 6.000000000000e-02
-1.250000000000e-01 -1.250000000000e-01 6.000000000000e-02
0.000000000000e+00 -1.250000000000e-01 6.000000000000e-02
1.250000000000e-01 -1.250000000000e-01 6.000000000000e-02
2.500000000000e-01 -1.250000000000e-01 6.000000000000e-02
-2.500000000000e-01 0.000000000000e+00 6.000000000000e-02
-1.250000000000e-01 0.000000000000e+00 6.000000000000e-02
0.000000000000e+00 0.000000000000e+00 6.000000000000e-02
1.250000000000e-01 0.000000000000e+00 6.000000000000e-02
2.500000000000e-01 0.000000000000e+00 6.000000000000e-02
-2.500000000000e-01 1.250000000000e-01 6.000000000000e-02
-1.250000000000e-01 1.250000000000e-01 6.000000000000e-02
0.000000000000e+00 1.250000000000e-01 6.000000000000e-02
1.250000000000e-01 1.250000000000e-01 6.000000000000e-02
2.500000000000e-01 1.250000000000e-01 6.000000000000e-02
-2.500000000000e-01 2.500000000000e-01 6.000000000000e-02
-1.250000000000e-01 2.500000000000e-01 6.000000000000e-02
0.000000000000e+00 2.500000000000e-01 6.000000000000e-02
1.250000000000e-01 2.500000000000e-01 6.000000000000e-02
2.500000000000e-01 2.500000000000e-01 6.000000000000e-02
-2.500000000000e-01 -2.500000000000e-01 1.200000000000e-01
-1.250000000000e-01 -2.500000000000e-01 1.200000000000e-01
0.000000000000e+00 -2.500000000000e-01 1.200000000000e-01
1.250000000000e-01 -2.500000000000e-01 1.200000000000e-01
2.500000000000e-01 -2.500000000000e-01 1.200000000000e-01
-2.500000000000e-01 -1.250000000000e-01 1.200000000000e-01
-1.250000000000e-01 -1.250000000000e-01 1.200000000000e-01
0.000000000000e+00 -1.250000000000e-01 1.200000000000e-01
1.250000000000e-01 -1.250000000000e-01 1.200000000000e-01
2.500000000000e-01 -1.250000000000e-01 1.200000000000e-01
-2.500000000000e-01 0.000000000000e+00 1.200000000000e-01
-1.250000000000e-01 0.000000000000e+00 1.200000000000e-01
0.000000000000e+00 0.000000000000e+00 1.200000000000e-01
1.250000000000e-01 0.000000000000e+00 1.200000000000e-01
2.500000000000e-01 0.000000000000e+00 1.200000000000e-01
-2.500000000000e-01 1.250000000000e-01 1.200000000000e-01
-1.250000000000e-01 1.250000000000e-01 1.200000000000e-01
0.000000000000e+00 1.250000000000e-01 1.200000000000e-01
1.250000000000e-01 1.250000000000e-01 1.200000000000e-01
2.500000000000e-01 1.250000000000e-01 1.200000000000e-01
-2.500000000000e-01 2.500000000000e-01 1.200000000000e-01
-1.250000000000e-01 2.500000000000e-01 1.200000000000e-01
0.000000000000e+00 2.500000000000e-01 1.200000000000e-01
1.250000000000e-01 2.500000000000e-01 1.200000000000e-01
2.500000000000e-01 2.500000000000e-01 1.200000000000e-01
-2.500000000000e-01 -2.500000000000e-01 1.800000000000e-01
-1.250000000000e-01 -2.500000000000e-01 1.800000000000e-01
0.000000000000e+00 -2.500000000000e-01 1.800000000000e-01
1.250000000000e-01 -2.500000000000e-01 1.800000000000e-01
2.500000000000e-01 -2.500000000000e-01 1.800000000000e-01
-2.500000000000e-01 -1.250000000000e-01 1.800000000000e-01
-1.250000000000e-01 -1.250000000000e-01 1.800000000000e-01
0.000000000000e+00 -1.250000000000e-01 1.800000000000e-01
1.250000000000e-01 -1.250000000000e-01 1.800000000000e-01
2.500000000000e-01 -1.250000000000e-01 1.800000000000e-01
-2.500000000000e-01 0.000000000000e+00 1.800000000000e-01
-1.250000000000e-01 0.000000000000e+00 1.800000000000e-01
0.000000000000e+00 0.000000000000e+00 1.800000000000e-01
1.250000000000e-01 0.000000000000e+00 1.800000000000e-01
2.500000000000e-01 0.000000000000e+00 1.800000000000e-01
-2.500000000000e-01 1.250000000000e-01 1.800000000000e-01
-1.250000000000e-01 1.250000000000e-01 1.800000000000e-01
0.000000000000e+00 1.250000000000e-01 1.800000000000e-01
1.250000000000e-01 1.250000000000e-01 1.800000000000e-01
2.500000000000e-01 1.250000000000e-01 1.800000000000e-01
-2.500000000000e-01 2.500000000000e-01 1.800000000000e-01
-1.250000000000e-01 2.500000000000e-01 1.800000000000e-01
0.000000000000e+00 2.500000000000e-01 1.800000000000e-01
1.250000000000e-01 2.500000000000e-01 1.800000000000e-01
2.500000000000e-01 2.500000000000e-01 1.800000000000e-01
-2.500000000000e-01 -2.500000000000e-01 2.400000000000e-01
-1.250000000000e-01 -2.500000000000e-01 2.400000000000e-01
0.000000000000e+00 -2.500000000000e-01 2.400000000000e-01
1.250000000000e-01 -2.500000000000e-01 2.400000000000e-01
2.500000000000e-01 -2.500000000000e-01 2.400000000000e-01
-2.500000000000e-01 -1.250000000000e-01 2.400000000000e-01
-1.250000000000e-01 -1.250000000000e-01 2.400000000000e-01
0.000000000000e+00 -1.250000000000e-01 2.400000000000e-01
1.250000000000e-01 -1.250000000000e-01 2.400000000000e-01
2.500000000000e-01 -1.250000000000e-01 2.400000000000e-01
-2.500000000000e-01 0.000000000000e+00 2.400000000000e-01
-1.250000000000e-01 0.000000000000e+00 2.400000000000e-01
0.000000000000e+00 0.000000000000e+00 2.400000000000e-01
1.250000000000e-01 0.000000000000e+00 2.400000000000e-01
2.500000000000e-01 0.000000000000e+00 2.400000000000e-01
-2.500000000000e-01 1.250000000000e-01 2.400000000000e-01
-1.250000000000e-01 1.250000000000e-01 2.400000000000e-01
0.000000000000e+00 1.250000000000e-01 2.400000000000e-01
1.250000000000e-01 1.250000000000e-01 2.400000000000e-01
2.500000000000e-01 1.250000000000e-01 2.400000000000e-01
-2.500000000000e-01 2.500000000000e-01 2.400000000000e-01
-1.250000000000e-01 2.500000000000e-01 2.400000000000e-01
0.000000000000e+00 2.500000000000e-01 2.400000000000e-01
1.250000000000e-01 2.500000000000e-01 2.400000000000e-01
2.500000000000e-01 2.500000000000e-01 2.400000000000e-01
-2.499999999997e-01 -2.499999999999e-01 2.460605846516e-01
-1.249999999997e-01 -2.500000000000e-01 2.460605846519e-01
3.254729136316e-13 -2.500000000000e-01 2.460605846522e-01
1.250000000003e-01 -2.500000000000e-01 2.460605846525e-01
2.500000000003e-01 -2.500000000000e-01 2.460605846528e-01
-2.499999999997e-01 -1.249999999999e-01 2.460605846517e-01
-1.249999999997e-01 -1.250000000000e-01 2.460605846520e-01
3.327753610318e-13 -1.250000000000e-01 2.460605846523e-01
1.250000000003e-01 -1.250000000000e-01 2.460605846526e-01
2.500000000003e-01 -1.250000000000e-01 2.460605846529e-01
-2.499999999997e-01 5.259876632691e-14 2.460605846518e-01
-1.249999999997e-01 4.529416976842e-14 2.460605846521e-01
3.400801127373e-13 3.799206353268e-14 2.460605846524e-01
1.250000000003e-01 3.068796855201e-14 2.460605846527e-01
2.500000000003e-01 2.338480315442e-14 2.460605846530e-01
-2.499999999997e-01 1.250000000001e-01 2.460605846519e-01
-1.249999999997e-01 1.250000000000e-01 2.460605846522e-01
3.473818383445e-13 1.250000000000e-01 2.460605846525e-01
1.250000000003e-01 1.250000000000e-01 2.460605846528e-01
2.500000000003e-01 1.250000000000e-01 2.460605846531e-01
-2.499999999996e-01 2.500000000001e-01 2.460605846520e-01
-1.249999999996e-01 2.500000000000e-01 2.460605846523e-01
3.546819371153e-13 2.500000000000e-01 2.460605846526e-01
1.250000000004e-01 2.500000000000e-01 2.460605846529e-01
2.500000000004e-01 2.500000000000e-01 2.460605846532e-01
-2.499999999998e-01 -2.500000000000e-01 3.110605846516e-01
-1.249999999998e-01 -2.500000000000e-01 3.110605846519e-01
1.741983026390e-13 -2.500000000000e-01 3.110605846522e-01
1.250000000002e-01 -2.500000000000e-01 3.110605846525e-01
2.500000000002e-01 -2.500000000000e-01 3.110605846528e-01
-2.499999999998e-01 -1.250000000000e-01 3.110605846517e-01
-1.249999999998e-01 -1.250000000000e-01 3.110605846520e-01
1.815002438838e-13 -1.250000000000e-01 3.110605846523e-01
1.250000000002e-01 -1.250000000000e-01 3.110605846526e-01
2.500000000002e-01 -1.250000000000e-01 3.110605846529e-01
-2.499999999998e-01 9.774976563530e-16 3.110605846518e-01
-1.249999999998e-01 -6.326848756190e-15 3.110605846521e-01
1.888027980834e-13 -1.362893054084e-14 3.110605846524e-01
1.250000000002e-01 -2.093367538504e-14 3.110605846527e-01
2.500000000002e-01 -2.823515264929e-14 3.110605846530e-01
-2.499999999998e-01 1.250000000000e-01 3.110605846519e-01
-1.249999999998e-01 1.250000000000e-01 3.110605846522e-01
1.961043277097e-13 1.250000000000e-01 3.110605846525e-01
1.250000000002e-01 1.250000000000e-01 3.110605846528e-01
2.500000000002e-01 1.250000000000e-01 3.110605846531e-01
-2.499999999998e-01 2.500000000000e-01 3.110605846520e-01
-1.249999999998e-01 2.500000000000e-01 3.110605846523e-01
2.034084262528e-13 2.500000000000e-01 3.110605846526e-01
1.250000000002e-01 2.500000000000e-01 3.110605846529e-01
2.500000000002e-01 2.500000000000e-01 3.110605846532e-01
-2.500000000000e-01 -2.500000000001e-01 3.760605846516e-01
-1.250000000000e-01 -2.500000000001e-01 3.760605846519e-01
2.292248449674e-14 -2.500000000001e-01 3.760605846522e-01
1.250000000000e-01 -2.500000000001e-01 3.760605846525e-01
2.500000000000e-01 -2.500000000001e-01 3.760605846528e-01
-2.500000000000e-01 -1.250000000001e-01 3.760605846517e-01
-1.250000000000e-01 -1.250000000001e-01 3.760605846520e-01
3.022545313520e-14 -1.250000000001e-01 3.760605846523e-01
1.250000000000e-01 -1.250000000001e-01 3.760605846526e-01
2.500000000000e-01 -1.250000000001e-01 3.760605846529e-01
-2.500000000000e-01 -5.064689983984e-14 3.760605846518e-01
-1.250000000000e-01 -5.794722847189e-14 3.760605846521e-01
3.752744553314e-14 -6.525117558516e-14 3.760605846524e-01
1.250000000000e-01 -7.255415067481e-14 3.760605846527e-01
2.500000000000e-01 -7.985700217451e-14 3.760605846530e-01
-2.500000000000e-01 1.249999999999e-01 3.760605846519e-01
-1.250000000000e-01 1.249999999999e-01 3.760605846522e-01
4.482834003916e-14 1.249999999999e-01 3.760605846525e-01
1.250000000000e-01 1.249999999999e-01 3.760605846528e-01
2.500000000000e-01 1.249999999999e-01 3.760605846531e-01
-2.499999999999e-01 2.499999999999e-01 3.760605846520e-01
-1.249999999999e-01 2.499999999999e-01 3.760605846523e-01
5.213148216514e-14 2.499999999999e-01 3.760605846526e-01
1.250000000001e-01 2.499999999999e-01 3.760605846529e-01
2.500000000001e-01 2.499999999999e-01 3.760605846532e-01
-2.500000000001e-01 -2.500000000001e-01 4.410605846516e-01
-1.250000000001e-01 -2.500000000001e-01 4.410605846519e-01
-1.283538259669e-13 -2.500000000001e-01 4.410605846522e-01
1.249999999999e-01 -2.500000000001e-01 4.410605846525e-01
2.499999999999e-01 -2.500000000001e-01 4.410605846528e-01
-2.500000000001e-01 -1.250000000001e-01 4.410605846517e-01
-1.250000000001e-01 -1.250000000001e-01 4.410605846520e-01
-1.210503601036e-13 -1.250000000001e-01 4.410605846523e-01
1.249999999999e-01 -1.250000000001e-01 4.410605846526e-01
2.499999999999e-01 -1.250000000001e-01 4.410605846529e-01
-2.500000000001e-01 -1.022689860361e-13 4.410605846518e-01
-1.250000000001e-01 -1.095703232826e-13 4.410605846521e-01
-1.137486052534e-13 -1.168722532219e-13 4.410605846524e-01
1.249999999999e-01 -1.241753332731e-13 4.410605846527e-01
2.499999999999e-01 -1.314765275061e-13 4.410605846530e-01
-2.500000000001e-01 1.249999999999e-01 4.410605846519e-01
-1.250000000001e-01 1.249999999999e-01 4.410605846522e-01
-1.064464059985e-13 1.249999999999e-01 4.410605846525e-01
1.249999999999e-01 1.249999999999e-01 4.410605846528e-01
2.499999999999e-01 1.249999999999e-01 4.410605846531e-01
-2.500000000001e-01 2.499999999999e-01 4.410605846520e-01
-1.250000000001e-01 2.499999999999e-01 4.410605846523e-01
-9.914405349189e-14 2.499999999999e-01 4.410605846526e-01
1.249999999999e-01 2.499999999999e-01 4.410605846529e-01
2.499999999999e-01 2.499999999999e-01 4.410605846532e-01
-2.500000000003e-01 -2.500000000002e-01 5.060605846516e-01
-1.250000000003e-01 -2.500000000002e-01 5.060605846519e-01
-2.796305936985e-13 -2.500000000002e-01 5.060605846522e-01
1.249999999997e-01 -2.500000000002e-01 5.060605846525e-01
2.499999999997e-01 -2.500000000002e-01 5.060605846528e-01
-2.500000000003e-01 -1.250000000002e-01 5.060605846517e-01
-1.250000000003e-01 -1.250000000002e-01 5.060605846520e-01
-2.723301433195e-13 -1.250000000002e-01 5.060605846523e-01
1.249999999997e-01 -1.250000000002e-01 5.060605846526e-01
2.499999999997e-01 -1.250000000002e-01 5.060605846529e-01
-2.500000000003e-01 -1.538889000190e-13 5.060605846518e-01
-1.250000000003e-01 -1.611952782481e-13 5.060605846521e-01
-2.650278312522e-13 -1.684948152717e-13 5.060605846524e-01
1.249999999997e-01 -1.757925012239e-13 5.060605846527e-01
2.499999999997e-01 -1.830974456410e-13 5.060605846530e-01
-2.500000000003e-01 1.249999999998e-01 5.060605846519e-01
-1.250000000003e-01 1.249999999998e-01 5.060605846522e-01
-2.577203110153e-13 1.249999999998e-01 5.060605846525e-01
1.249999999997e-01 1.249999999998e-01 5.060605846528e-01
2.499999999997e-01 1.249999999998e-01 5.060605846531e-01
-2.500000000003e-01 2.499999999998e-01 5.060605846520e-01
-1.250000000003e-01 2.499999999998e-01 5.060605846523e-01
-2.504173509103e-13 2.499999999998e-01 5.060605846526e-01
1.249999999997e-01 2.499999999998e-01 5.060605846529e-01
2.499999999997e-01 2.499999999998e-01 5.060605846532e-01
CELLS 128 1152
8 0 1 6 5 25 26 31 30
8 1 2 7 6 26 27 32 31
8 2 3 8 7 27 28 33 32
8 3 4 9 8 28 29 34 33
8 5 6 11 10 30 31 36 35
8 6 7 12 11 31 32 37 36
8 7 8 13 12 32 33 38 37
8 8 9 14 13 33 34 39 38
8 10 11 16 15 35 36 41 40
8 11 12 17 16 36 37 42 41
8 12 13 18 17 37 38 43 42
8 13 14 19 18 38 39 44 43
8 15 16 21 20 40 41 46 45
8 16 17 22 21 41 42 47 46
8 17 18 23 22 42 43 48 47
8 18 19 24 23 43 44 49 48
8 25 26 31 30 50 51 56 55
8 26 27 32 31 51 52 57 56
8 27 28 33 32 52 53 58 57
8 28 29 34 33 53 54 59 58
8 30 31 36 35 55 56 61 60
8 31 32 37 36 56 57 62 61
8 32 33 38 37 57 58 63 62
8 33 34 39 38 58 59 64 63
8 35 36 41 40 60 61 66 65
8 36 37 42 41 61 62 67 66
8 37 38 43 42 62 63 68 67
8 38 39 44 43 63 64 69 68
8 40 41 46 45 65 66 71 70
8 41 42 47 46 66 67 72 71
8 42 43 48 47 67 68 73 72
8 43 44 49 48 68 69 74 73
8 50 51 56 55 75 76 81 80
8 51 52 57 56 76 77 82 81
8 52 53 58 57 77 78 83 82
8 53 54 59 58 78 79 84 83
8 55 56 61 60 80 81 86 85
8 56 57 62 61 81 82 87 86
8 57 58 63 62 82 83 88 87
8 58 59 64 63 83 84 89 88
8 60 61 66 65 85 86 91 90
8 61 62 67 66 86 87 92 91
8 62 63 68 67 87 88 93 92
8 63 64 69 68 88 89 94 93
8 65 66 71 70 90 91 96 95
8 66 67 72 71 91 92 97 96
8 67 68 73 72 92 93 98 97
8 68 69 74 73 93 94 99 98
8 75 76 81 80 100 101 106 105
8 76 77 82 81 101 102 107 106
8 77 78 83 82 102 103 108 107
8 78 79 84 83 103 104 109 108
8 80 81 86 85 105 106 111 110
8 81 82 87 86 106 107 112 111
8 82 83 88 87 107 108 113 112
8 83 84 89 88 108 109 114 113
8 85 86 91 90 110 111 116 115
8 86 87 92 91 111 112 117 116
8 87 88 93 92 112 113 118 117
8 88 89 94 93 113 114 119 118
8 90 91 96 95 115 116 121 120
8 91 92 97 96 116 117 122 121
8 92 93 98 97 117 118 123 122
8 93 94 99 98 118 119 124 123
8 125 126 131 130 150 151 156 155
8 126 127 132 131 151 152 157 156
8 127 128 133 132 152 153 158 157
8 128 129 134 133 153 154 159 158
8 130 131 136 135 155 156 161 160
8 131 132 137 136 156 157 162 161
8 132 133 138 137 157 158 163 162
8 133 134 139 138 158 159 164 163
8 135 136 141 140 160 161 166 165
8 136 137 142 141 161 162 167 166
8 137 138 143 142 162 163 168 167
8 138 139 144 143 163 164 169 168
8 140 141 146 145 165 166 171 170
8 141 142 147 146 166 167 172 171
8 142 143 148 147 167 168 173 172
8 143 144 149 148 168 169 174 173
8 150 151 156 155 175 176 181 180
8 151 152 157 156 176 177 182 181
8 152 153 158 157 177 178 183 182
8 153 154 159 158 178 179 184 183
8 155 156 161 160 180 181 186 185
8 156 157 162 161 181 182 187 186
8 157 158 163 162 182 183 188 187
8 158 159 164 163 183 184 189 188
8 160 161 166 165 185 186 191 190
8 161 162 167 166 186 187 192 191
8 162 163 168 167 187 188 193 192
8 163 164 169 168 188 189 194 193
8 165 166 171 170 190 191 196 195
8 166 167 172 171 191 192 197 196
8 167 168 173 172 192 193 198 197
8 168 169 174 173 193 194 199 198
8 175 176 181 180 200 201 206 205
8 176 177 182 181 201 202 207 206
8 177 178 183 182 202 203 208 207
8 178 179 184 183 203 204 209 208
8 180 181 186 185 205 206 211 210
8 181 182 187 186 206 207 212 211
8 182 183 188 187 207 208 213 212
8 183 184 189 188 208 209 214 213
8 185 186 191 190 210 211 216 215
8 186 187 192 191 211 212 217 216
8 187 188 193 192 212 213 218 217
8 188 189 194 193 213 214 219 218
8 190 191 196 195 215 216 221 220
8 191 192 197 196 216 217 222 221
8 192 193 198 197 217 218 223 222
8 193 194 199 198 218 219 224 223
8 200 201 206 205 225 226 231 230
8 201 202 207 206 226 227 232 231
8 202 203 208 207 227 228 233 232
8 203 204 209 208 228 229 234 233
8 205 206 211 210 230 231 236 235
8 206 207 212 211 231 232 237 236
8 207 208 213 212 232 233 238 237
8 208 209 214 213 233 234 239 238
8 210 211 216 215 235 236 241 240
8 211 212 217 216 236 237 242 241
8 212 213 218 217 237 238 243 242
8 213 214 219 218 238 239 244 243
8 215 216 221 220 240 241 246 245
8 216 217 222 221 241 242 247 246
8 217 218 223 222 242 243 248 247
8 218 219 224 223 243 244 249 248
CELL_TYPES 128
12
12
12
12
12
12
12
12
12
12
12
12
12
12
12
12
12
12
12
12
12
12
12
12
12
12
12
12
12
12
12
12
12
12
12
12
12
12
12
12
12
12
12
12
12
12
12
12
12
12
12
12
12
12
12
12
12
12
12
12
12
12
12
12
12
12
12
12
12
12
12
12
12
12
12
12
12
12
12
12
12
12
12
12
12
12
12
12
12
12
12
12
12
12
12
12
12
12
12
12
12
12
12
12
12
12
12
12
12
12
12
12
12
12
12
12
12
12
12
12
12
12
12
12
12
12
12
12
POINT_DATA 250
VECTORS displacement float
0.000000000000e+00 0.000000000000e+00 0.000000000000e+00
0.000000000000e+00 0.000000000000e+00 0.000000000000e+00
0.000000000000e+00 0.000000000000e+00 0.000000000000e+00
0.000000000000e+00 0.000000000000e+00 0.000000000000e+00
0.000000000000e+00 0.000000000000e+00 0.000000000000e+00
0.000000000000e+00 0.000000000000e+00 0.000000000000e+00
0.000000000000e+00 0.000000000000e+00 0.000000000000e+00
0.000000000000e+00 0.000000000000e+00 0.000000000000e+00
0.000000000000e+00 0.000000000000e+00 0.000000000000e+00
0.000000000000e+00 0.000000000000e+00 0.000000000000e+00
0.000000000000e+00 0.000000000000e+00 0.000000000000e+00
0.000000000000e+00 0.000000000000e+00 0.000000000000e+00
0.000000000000e+00 0.000000000000e+00 0.000000000000e+00
0.000000000000e+00 0.000000000000e+00 0.000000000000e+00
0.000000000000e+00 0.000000000000e+00 0.000000000000e+00
0.000000000000e+00 0.000000000000e+00 0.000000000000e+00
0.000000000000e+00 0.000000000000e+00 0.000000000000e+00
0.000000000000e+00 0.000000000000e+00 0.000000000000e+00
0.000000000000e+00 0.000000000000e+00 0.000000000000e+00
0.000000000000e+00 0.000000000000e+00 0.000000000000e+00
0.000000000000e+00 0.000000000000e+00 0.000000000000e+00
0.000000000000e+00 0.000000000000e+00 0.000000000000e+00
0.000000000000e+00 0.000000000000e+00 0.000000000000e+00
0.000000000000e+00 0.000000000000e+00 0.000000000000e+00
0.000000000000e+00 0.000000000000e+00 0.000000000000e+00
0.000000000000e+00 0.000000000000e+00 0.000000000000e+00
0.000000000000e+00 0.000000000000e+00 0.000000000000e+00
0.000000000000e+00 0.000000000000e+00 0.000000000000e+00
0.000000000000e+00 0.000000000000e+00 0.000000000000e+00
0.000000000000e+00 0.000000000000e+00 0.000000000000e+00
0.000000000000e+00 0.000000000000e+00 0.000000000000e+00
0.000000000000e+00 0.000000000000e+00 0.000000000000e+00
0.000000000000e+00 0.000000000000e+00 0.000000000000e+00
0.000000000000e+00 0.000000000000e+00 0.000000000000e+00
0.000000000000e+00 0.000000000000e+00 0.000000000000e+00
0.000000000000e+00 0.000000000000e+00 0.000000000000e+00
0.000000000000e+00 0.000000000000e+00 0.000000000000e+00
0.000000000000e+00 0.000000000000e+00 0.000000000000e+00
0.000000000000e+00 0.000000000000e+00 0.000000000000e+00
0.000000000000e+00 0.000000000000e+00 0.000000000000e+00
0.000000000000e+00 0.000000000000e+00 0.000000000000e+00
0.000000000000e+00 0.000000000000e+00 0.000000000000e+00
0.000000000000e+00 0.000000000000e+00 0.000000000000e+00
0.000000000000e+00 0.000000000000e+00 0.000000000000e+00
0.000000000000e+00 0.000000000000e+00 0.000000000000e+00
0.000000000000e+00 0.000000000000e+00 0.000000000000e+00
0.000000000000e+00 0.000000000000e+00 0.000000000000e+00
0.000000000000e+00 0.000000000000e+00 0.000000000000e+00
0.000000000000e+00 0.000000000000e+00 0.000000000000e+00
0.000000000000e+00 0.000000000000e+00 0.000000000000e+00
0.000000000000e+00 0.000000000000e+00 0.000000000000e+00
0.000000000000e+00 0.000000000000e+00 0.000000000000e+00
0.000000000000e+00 0.000000000000e+00 0.000000000000e+00
0.000000000000e+00 0.000000000000e+00 0.000000000000e+00
0.000000000000e+00 0.000000000000e+00 0.000000000000e+00
0.000000000000e+00 0.000000000000e+00 0.000000000000e+00
0.000000000000e+00 0.000000000000e+00 0.000000000000e+00
0.000000000000e+00 0.000000000000e+00 0.000000000000e+00
0.000000000000e+00 0.000000000000e+00 0.000000000000e+00
0.000000000000e+00 0.000000000000e+00 0.000000000000e+00
0.000000000000e+00 0.000000000000e+00 0.000000000000e+00
0.000000000000e+00 0.000000000000e+00 0.000000000000e+00
0.000000000000e+00 0.000000000000e+00 0.000000000000e+00
0.000000000000e+00 0.000000000000e+00 0.000000000000e+00
0.000000000000e+00 0.000000000000e+00 0.000000000000e+00
0.000000000000e+00 0.000000000000e+00 0.000000000000e+00
0.000000000000e+00 0.000000000000e+00 0.000000000000e+00
0.000000000000e+00 0.000000000000e+00 0.000000000000e+00
0.000000000000e+00 0.000000000000e+00 0.000000000000e+00
0.000000000000e+00 0.000000000000e+00 0.000000000000e+00
0.000000000000e+00 0.000000000000e+00 0.000000000000e+00
0.000000000000e+00 0.000000000000e+00 0.000000000000e+00
0.000000000000e+00 0.000000000000e+00 0.000000000000e+00
0.000000000000e+00 0.000000000000e+00 0.000000000000e+00
0.000000000000e+00 0.000000000000e+00 0.000000000000e+00
0.000000000000e+00 0.000000000000e+00 0.000000000000e+00
0.000000000000e+00 0.000000000000e+00 0.000000000000e+00
0.000000000000e+00 0.000000000000e+00 0.000000000000e+00
0.000000000000e+00 0.000000000000e+00 0.000000000000e+00
0.000000000000e+00 0.000000000000e+00 0.000000000000e+00
0.000000000000e+00 0.000000000000e+00 0.000000000000e+00
0.000000000000e+00 0.000000000000e+00 0.000000000000e+00
0.000000000000e+00 0.000000000000e+00 0.000000000000e+00
0.000000000000e+00 0.000000000000e+00 0.000000000000e+00
0.000000000000e+00 0.000000000000e+00 0.000000000000e+00
0.000000000000e+00 0.000000000000e+00 0.000000000000e+00
0.000000000000e+00 0.000000000000e+00 0.000000000000e+00
0.000000000000e+00 0.000000000000e+00 0.000000000000e+00
0.000000000000e+00 0.000000000000e+00 0.000000000000e+00
0.000000000000e+00 0.000000000000e+00 0.000000000000e+00
0.000000000000e+00 0.000000000000e+00 0.000000000000e+00
0.000000000000e+00 0.000000000000e+00 0.000000000000e+00
0.000000000000e+00 0.000000000000e+00 0.000000000000e+00
0.000000000000e+00 0.000000000000e+00 0.000000000000e+00
0.000000000000e+00 0.000000000000e+00 0.000000000000e+00
0.000000000000e+00 0.000000000000e+00 0.000000000000e+00
0.000000000000e+00 0.000000000000e+00 0.000000000000e+00
0.000000000000e+00 0.000000000000e+00 0.000000000000e+00
0.000000000000e+00 0.000000000000e+00 0.000000000000e+00
0.000000000000e+00 0.000000000000e+00 0.000000000000e+00
0.000000000000e+00 0.000000000000e+00 0.000000000000e+00
0.000000000000e+00 0.000000000000e+00 0.000000000000e+00
0.000000000000e+00 0.000000000000e+00 0.000000000000e+00
0.000000000000e+00 0.000000000000e+00 0.000000000000e+00
0.000000000000e+00 0.000000000000e+00 0.000000000000e+00
0.000000000000e+00 0.000000000000e+00 0.000000000000e+00
0.000000000000e+00 0.000000000000e+00 0.000000000000e+00
0.000000000000e+00 0.000000000000e+00 0.000000000000e+00
0.000000000000e+00 0.000000000000e+00 0.000000000000e+00
0.000000000000e+00 0.000000000000e+00 0.000000000000e+00
0.000000000000e+00 0.000000000000e+00 0.000000000000e+00
0.000000000000e+00 0.000000000000e+00 0.000000000000e+00
0.000000000000e+00 0.000000000000e+00 0.000000000000e+00
0.000000000000e+00 0.000000000000e+00 0.000000000000e+00
0.000000000000e+00 0.000000000000e+00 0.000000000000e+00
0.000000000000e+00 0.000000000000e+00 0.000000000000e+00
0.000000000000e+00 0.000000000000e+00 0.000000000000e+00
0.000000000000e+00 0.000000000000e+00 0.000000000000e+00
0.000000000000e+00 0.000000000000e+00 0.000000000000e+00
0.000000000000e+00 0.000000000000e+00 0.000000000000e+00
0.000000000000e+00 0.000000000000e+00 0.000000000000e+00
0.000000000000e+00 0.000000000000e+00 0.000000000000e+00
0.000000000000e+00 0.000000000000e+00 0.000000000000e+00
0.000000000000e+00 0.000000000000e+00 0.000000000000e+00
0.000000000000e+00 0.000000000000e+00 0.000000000000e+00
3.254726295681e-13 5.258868557233e-14 -8.939415348395e-03
3.254716203023e-13 4.529175029150e-14 -8.939415348104e-03
3.254729136316e-13 3.799733304811e-14 -8.939415347814e-03
3.254778769484e-13 3.069093078296e-14 -8.939415347523e-03
3.254803704955e-13 2.337740572512e-14 -8.939415347232e-03
3.327694965238e-13 5.259045518346e-14 -8.939415348296e-03
3.327730504559e-13 4.529140448143e-14 -8.939415348005e-03
3.327753610318e-13 3.799118902022e-14 -8.939415347714e-03
3.327781355121e-13 3.068942797958e-14 -8.939415347423e-03
3.327780743549e-13 2.338288199882e-14 -8.939415347132e-03
3.400834767018e-13 5.259876632691e-14 -8.939415348197e-03
3.400779818604e-13 4.529416976842e-14 -8.939415347906e-03
3.400801127373e-13 3.799206353268e-14 -8.939415347615e-03
3.400822118874e-13 3.068796855201e-14 -8.939415347324e-03
3.400784817782e-13 2.338480315442e-14 -8.939415347033e-03
3.473824298347e-13 5.260618043082e-14 -8.939415348098e-03
3.473812499771e-13 4.530076473920e-14 -8.939415347807e-03
3.473818383445e-13 3.799601507321e-14 -8.939415347516e-03
3.473813365588e-13 3.069019015345e-14 -8.939415347225e-03
3.473793922075e-13 2.338400500897e-14 -8.939415346934e-03
3.546934422320e-13 5.260441219028e-14 -8.939415347998e-03
3.546864790832e-13 4.530452332911e-14 -8.939415347707e-03
3.546819371153e-13 3.799820065287e-14 -8.939415347416e-03
3.546844558192e-13 3.069178937374e-14 -8.939415347126e-03
3.546841470553e-13 2.338474474354e-14 -8.939415346835e-03
1.741962245483e-13 9.697974560199e-16 -8.939415348395e-03
1.741982034288e-13 -6.328318595999e-15 -8.939415348104e-03
1.741983026390e-13 -1.362528826880e-14 -8.939415347814e-03
1.741967233663e-13 -2.092929515799e-14 -8.939415347523e-03
1.741970002869e-13 -2.823761940639e-14 -8.939415347232e-03
1.814962006224e-13 9.747408118294e-16 -8.939415348296e-03
1.814997727350e-13 -6.328346885262e-15 -8.939415348005e-03
1.815002438838e-13 -1.362926999753e-14 -8.939415347714e-03
1.815015315857e-13 -2.093288144254e-14 -8.939415347423e-03
1.815007300905e-13 -2.823503610904e-14 -8.939415347132e-03
1.888025498743e-13 9.774976563530e-16 -8.939415348197e-03
1.888018590757e-13 -6.326848756190e-15 -8.939415347906e-03
1.888027980834e-13 -1.362893054084e-14 -8.939415347615e-03
1.888037176196e-13 -2.093367538504e-14 -8.939415347324e-03
1.888062828147e-13 -2.823515264929e-14 -8.939415347033e-03
1.961055886285e-13 9.800000032659e-16 -8.939415348098e-03
1.961072530594e-13 -6.323767047753e-15 -8.939415347807e-03
1.961043277097e-13 -1.362843609984e-14 -8.939415347516e-03
1.961052151119e-13 -2.093123239674e-14 -8.939415347225e-03
1.961077662639e-13 -2.823617772834e-14 -8.939415346934e-03
2.034127779907e-13 9.832775331420e-16 -8.939415347998e-03
2.034103900941e-13 -6.323109589728e-15 -8.939415347707e-03
2.034084262528e-13 -1.362804178497e-14 -8.939415347416e-03
2.034075761219e-13 -2.092939837620e-14 -8.939415347126e-03
2.034090977322e-13 -2.823797500511e-14 -8.939415346835e-03
2.292058001472e-14 -5.064893136417e-14 -8.939415348395e-03
2.292231804126e-14 -5.795179232724e-14 -8.939415348104e-03
2.292248449674e-14 -6.525034770153e-14 -8.939415347814e-03
2.292046170259e-14 -7.255297152859e-14 -8.939415347523e-03
2.292014490810e-14 -7.985765182536e-14 -8.939415347232e-03
3.022215379567e-14 -5.064638789957e-14 -8.939415348296e-03
3.022347560774e-14 -5.794872309747e-14 -8.939415348005e-03
3.022545313520e-14 -6.524943485329e-14 -8.939415347714e-03
3.022455046709e-14 -7.255233970054e-14 -8.939415347423e-03
3.022227644867e-14 -7.985573510708e-14 -8.939415347132e-03
3.752428341460e-14 -5.064689983984e-14 -8.939415348197e-03
3.752578168035e-14 -5.794722847189e-14 -8.939415347906e-03
3.752744553314e-14 -6.525117558516e-14 -8.939415347615e-03
3.752666706302e-14 -7.255415067481e-14 -8.939415347324e-03
3.752582747572e-14 -7.985700217451e-14 -8.939415347033e-03
4.483012914494e-14 -5.064410600582e-14 -8.939415348098e-03
4.483137588345e-14 -5.794923462971e-14 -8.939415347807e-03
4.482834003916e-14 -6.525092239394e-14 -8.939415347516e-03
4.482934881608e-14 -7.255389638667e-14 -8.939415347225e-03
4.483130627733e-14 -7.985695404147e-14 -8.939415346934e-03
5.213653835265e-14 -5.063978872348e-14 -8.939415347998e-03
5.213357271471e-14 -5.795086075108e-14 -8.939415347707e-03
5.213148216514e-14 -6.525242213221e-14 -8.939415347416e-03
5.213032541693e-14 -7.255245212226e-14 -8.939415347126e-03
5.213188461194e-14 -7.985766476341e-14 -8.939415346835e-03
-1.283560698495e-13 -1.022661772854e-13 -8.939415348395e-03
-1.283544063748e-13 -1.095736561311e-13 -8.939415348104e-03
-1.283538259669e-13 -1.168718410367e-13 -8.939415347814e-03
-1.283555827642e-13 -1.241730652757e-13 -8.939415347523e-03
-1.283571627064e-13 -1.314765936276e-13 -8.939415347232e-03
-1.210545956493e-13 -1.022673760249e-13 -8.939415348296e-03
-1.210536334916e-13 -1.095696754831e-13 -8.939415348005e-03
-1.210503601036e-13 -1.168718391931e-13 -8.939415347714e-03
-1.210523414958e-13 -1.241729897602e-13 -8.939415347423e-03
-1.210548600685e-13 -1.314759165591e-13 -8.939415347132e-03
-1.137536908153e-13 -1.022689860361e-13 -8.939415348197e-03
-1.137508443290e-13 -1.095703232826e-13 -8.939415347906e-03
-1.137486052534e-13 -1.168722532219e-13 -8.939415347615e-03
-1.137490017101e-13 -1.241753332731e-13 -8.939415347324e-03
-1.137498809427e-13 -1.314765275061e-13 -8.939415347033e-03
-1.064469920595e-13 -1.022698335789e-13 -8.939415348098e-03
-1.064464905876e-13 -1.095738620137e-13 -8.939415347807e-03
-1.064464059985e-13 -1.168749253275e-13 -8.939415347516e-03
-1.064458234427e-13 -1.241763043782e-13 -8.939415347225e-03
-1.064442766680e-13 -1.314762589595e-13 -8.939415346934e-03
-9.914396144039e-14 -1.022734898773e-13 -8.939415347998e-03
-9.914221374127e-14 -1.095755353039e-13 -8.939415347707e-03
-9.914405349189e-14 -1.168787596484e-13 -8.939415347416e-03
-9.914496836313e-14 -1.241761202638e-13 -8.939415347126e-03
-9.914347438817e-14 -1.314751641159e-13 -8.939415346835e-03
-2.796349405146e-13 -1.538862671962e-13 -8.939415348395e-03
-2.796310328934e-13 -1.611853578280e-13 -8.939415348104e-03
-2.796305936985e-13 -1.684959992651e-13 -8.939415347814e-03
-2.796347435090e-13 -1.757949321150e-13 -8.939415347523e-03
-2.796312616464e-13 -1.830965046856e-13 -8.939415347232e-03
-2.723232087655e-13 -1.538859586533e-13 -8.939415348296e-03
-2.723285613745e-13 -1.611891487752e-13 -8.939415348005e-03
-2.723301433195e-13 -1.684914372482e-13 -8.939415347714e-03
-2.723300897297e-13 -1.757944836557e-13 -8.939415347423e-03
-2.723298592096e-13 -1.830964358987e-13 -8.939415347132e-03
-2.650289596937e-13 -1.538889000190e-13 -8.939415348197e-03
-2.650274878855e-13 -1.611952782481e-13 -8.939415347906e-03
-2.650278312522e-13 -1.684948152717e-13 -8.939415347615e-03
-2.650266910667e-13 -1.757925012239e-13 -8.939415347324e-03
-2.650214741247e-13 -1.830974456410e-13 -8.939415347033e-03
-2.577244444416e-13 -1.538984822681e-13 -8.939415348098e-03
-2.577260753250e-13 -1.612003127859e-13 -8.939415347807e-03
-2.577203110153e-13 -1.685029170541e-13 -8.939415347516e-03
-2.577206146154e-13 -1.757964910031e-13 -8.939415347225e-03
-2.577243565141e-13 -1.830967513572e-13 -8.939415346934e-03
-2.504249607692e-13 -1.539023854135e-13 -8.939415347998e-03
-2.504217596300e-13 -1.612027942265e-13 -8.939415347707e-03
-2.504173509103e-13 -1.685068459891e-13 -8.939415347416e-03
-2.504171779174e-13 -1.758004449372e-13 -8.939415347126e-03
-2.504194714790e-13 -1.830926493975e-13 -8.939415346835e-03
SCALARS displacement_magnitude float 1
LOOKUP_TABLE default
0.000000000000e+00
0.000000000000e+00
0.000000000000e+00
0.000000000000e+00
0.000000000000e+00
0.000000000000e+00
0.000000000000e+00
0.000000000000e+00
0.000000000000e+00
0.000000000000e+00
0.000000000000e+00
0.000000000000e+00
0.000000000000e+00
0.000000000000e+00
0.000000000000e+00
0.000000000000e+00
0.000000000000e+00
0.000000000000e+00
0.000000000000e+00
0.000000000000e+00
0.000000000000e+00
0.000000000000e+00
0.000000000000e+00
0.000000000000e+00
0.000000000000e+00
0.000000000000e+00
0.000000000000e+00
0.000000000000e+00
0.000000000000e+00
0.000000000000e+00
0.000000000000e+00
0.000000000000e+00
0.000000000000e+00
0.000000000000e+00
0.000000000000e+00
0.000000000000e+00
0.000000000000e+00
0.000000000000e+00
0.000000000000e+00
0.000000000000e+00
0.000000000000e+00
0.000000000000e+00
0.000000000000e+00
0.000000000000e+00
0.000000000000e+00
0.000000000000e+00
0.000000000000e+00
0.000000000000e+00
0.000000000000e+00
0.000000000000e+00
0.000000000000e+00
0.000000000000e+00
0.000000000000e+00
0.000000000000e+00
0.000000000000e+00
0.000000000000e+00
0.000000000000e+00
0.000000000000e+00
0.000000000000e+00
0.000000000000e+00
0.000000000000e+00
0.000000000000e+00
0.000000000000e+00
0.000000000000e+00
0.000000000000e+00
0.000000000000e+00
0.000000000000e+00
0.000000000000e+00
0.000000000000e+00
0.000000000000e+00
0.000000000000e+00
0.000000000000e+00
0.000000000000e+00
0.000000000000e+00
0.000000000000e+00
0.000000000000e+00
0.000000000000e+00
0.000000000000e+00
0.000000000000e+00
0.000000000000e+00
0.000000000000e+00
0.000000000000e+00
0.000000000000e+00
0.000000000000e+00
0.000000000000e+00
0.000000000000e+00
0.000000000000e+00
0.000000000000e+00
0.000000000000e+00
0.000000000000e+00
0.000000000000e+00
0.000000000000e+00
0.000000000000e+00
0.000000000000e+00
0.000000000000e+00
0.000000000000e+00
0.000000000000e+00
0.000000000000e+00
0.000000000000e+00
0.000000000000e+00
0.000000000000e+00
0.000000000000e+00
0.000000000000e+00
0.000000000000e+00
0.000000000000e+00
0.000000000000e+00
0.000000000000e+00
0.000000000000e+00
0.000000000000e+00
0.000000000000e+00
0.000000000000e+00
0.000000000000e+00
0.000000000000e+00
0.000000000000e+00
0.000000000000e+00
0.000000000000e+00
0.000000000000e+00
0.000000000000e+00
0.000000000000e+00
0.000000000000e+00
0.000000000000e+00
0.000000000000e+00
0.000000000000e+00
0.000000000000e+00
0.000000000000e+00
8.939415348395e-03
8.939415348104e-03
8.939415347814e-03
8.939415347523e-03
8.939415347232e-03
8.939415348296e-03
8.939415348005e-03
8.939415347714e-03
8.939415347423e-03
8.939415347132e-03
8.939415348197e-03
8.939415347906e-03
8.939415347615e-03
8.939415347324e-03
8.939415347033e-03
8.939415348098e-03
8.939415347807e-03
8.939415347516e-03
8.939415347225e-03
8.939415346934e-03
8.939415347998e-03
8.939415347707e-03
8.939415347416e-03
8.939415347126e-03
8.939415346835e-03
8.939415348395e-03
8.939415348104e-03
8.939415347814e-03
8.939415347523e-03
8.939415347232e-03
8.939415348296e-03
8.939415348005e-03
8.939415347714e-03
8.939415347423e-03
8.939415347132e-03
8.939415348197e-03
8.939415347906e-03
8.939415347615e-03
8.939415347324e-03
8.939415347033e-03
8.939415348098e-03
8.939415347807e-03
8.939415347516e-03
8.939415347225e-03
8.939415346934e-03
8.939415347998e-03
8.939415347707e-03
8.939415347416e-03
8.939415347126e-03
8.939415346835e-03
8.939415348395e-03
8.939415348104e-03
8.939415347814e-03
8.939415347523e-03
8.939415347232e-03
8.939415348296e-03
8.939415348005e-03
8.939415347714e-03
8.939415347423e-03
8.939415347132e-03
8.939415348197e-03
8.939415347906e-03
8.939415347615e-03
8.939415347324e-03
8.939415347033e-03
8.939415348098e-03
8.939415347807e-03
8.939415347516e-03
8.939415347225e-03
8.939415346934e-03
8.939415347998e-03
8.939415347707e-03
8.939415347416e-03
8.939415347126e-03
8.939415346835e-03
8.939415348395e-03
8.939415348104e-03
8.939415347814e-03
8.939415347523e-03
8.939415347232e-03
8.939415348296e-03
8.939415348005e-03
8.939415347714e-03
8.939415347423e-03
8.939415347132e-03
8.939415348197e-03
8.939415347906e-03
8.939415347615e-03
8.939415347324e-03
8.939415347033e-03
8.939415348098e-03
8.939415347807e-03
8.939415347516e-03
8.939415347225e-03
8.939415346934e-03
8.939415347998e-03
8.939415347707e-03
8.939415347416e-03
8.939415347126e-03
8.939415346835e-03
8.939415348395e-03
8.939415348104e-03
8.939415347814e-03
8.939415347523e-03
8.939415347232e-03
8.939415348296e-03
8.939415348005e-03
8.939415347714e-03
8.939415347423e-03
8.939415347132e-03
8.939415348197e-03
8.939415347906e-03
8.939415347615e-03
8.939415347324e-03
8.939415347033e-03
8.939415348098e-03
8.939415347807e-03
8.939415347516e-03
8.939415347225e-03
8.939415346934e-03
8.939415347998e-03
8.939415347707e-03
8.939415347416e-03
8.939415347126e-03
8.939415346835e-03
CELL_DATA 128
SCALARS displacement_magnitude float 1
LOOKUP_TABLE default
0.000000000000e+00
0.000000000000e+00
0.000000000000e+00
0.000000000000e+00
0.000000000000e+00
0.000000000000e+00
0.000000000000e+00
0.000000000000e+00
0.000000000000e+00
0.000000000000e+00
0.000000000000e+00
0.000000000000e+00
0.000000000000e+00
0.000000000000e+00
0.000000000000e+00
0.000000000000e+00
0.000000000000e+00
0.000000000000e+00
0.000000000000e+00
0.000000000000e+00
0.000000000000e+00
0.000000000000e+00
0.000000000000e+00
0.000000000000e+00
0.000000000000e+00
0.000000000000e+00
0.000000000000e+00
0.000000000000e+00
0.000000000000e+00
0.000000000000e+00
0.000000000000e+00
0.000000000000e+00
0.000000000000e+00
0.000000000000e+00
0.000000000000e+00
0.000000000000e+00
0.000000000000e+00
0.000000000000e+00
0.000000000000e+00
0.000000000000e+00
0.000000000000e+00
0.000000000000e+00
0.000000000000e+00
0.000000000000e+00
0.000000000000e+00
0.000000000000e+00
0.000000000000e+00
0.000000000000e+00
0.000000000000e+00
0.000000000000e+00
0.000000000000e+00
0.000000000000e+00
0.000000000000e+00
0.000000000000e+00
0.000000000000e+00
0.000000000000e+00
0.000000000000e+00
0.000000000000e+00
0.000000000000e+00
0.000000000000e+00
0.000000000000e+00
0.000000000000e+00
0.000000000000e+00
0.000000000000e+00
8.939415348200e-03
8.939415347909e-03
8.939415347618e-03
8.939415347328e-03
8.939415348101e-03
8.939415347810e-03
8.939415347519e-03
8.939415347228e-03
8.939415348002e-03
8.939415347711e-03
8.939415347420e-03
8.939415347129e-03
8.939415347902e-03
8.939415347612e-03
8.939415347321e-03
8.939415347030e-03
8.939415348200e-03
8.939415347909e-03
8.939415347618e-03
8.939415347328e-03
8.939415348101e-03
8.939415347810e-03
8.939415347519e-03
8.939415347228e-03
8.939415348002e-03
8.939415347711e-03
8.939415347420e-03
8.939415347129e-03
8.939415347902e-03
8.939415347612e-03
8.939415347321e-03
8.939415347030e-03
8.939415348200e-03
8.939415347909e-03
8.939415347618e-03
8.939415347328e-03
8.939415348101e-03
8.939415347810e-03
8.939415347519e-03
8.939415347228e-03
8.939415348002e-03
8.939415347711e-03
8.939415347420e-03
8.939415347129e-03
8.939415347902e-03
8.939415347612e-03
8.939415347321e-03
8.939415347030e-03
8.939415348200e-03
8.939415347909e-03
8.939415347618e-03
8.939415347328e-03
8.939415348101e-03
8.939415347810e-03
8.939415347519e-03
8.939415347228e-03
8.939415348002e-03
8.939415347711e-03
8.939415347420e-03
8.939415347129e-03
8.939415347902e-03
8.939415347612e-03
8.939415347321e-03
8.939415347030e-03
SCALARS engineering_strain_norm float 1
LOOKUP_TABLE default
0.000000000000e+00
0.000000000000e+00
0.000000000000e+00
0.000000000000e+00
0.000000000000e+00
0.000000000000e+00
0.000000000000e+00
0.000000000000e+00
0.000000000000e+00
0.000000000000e+00
0.000000000000e+00
0.000000000000e+00
0.000000000000e+00
0.000000000000e+00
0.000000000000e+00
0.000000000000e+00
0.000000000000e+00
0.000000000000e+00
0.000000000000e+00
0.000000000000e+00
0.000000000000e+00
0.000000000000e+00
0.000000000000e+00
0.000000000000e+00
0.000000000000e+00
0.000000000000e+00
0.000000000000e+00
0.000000000000e+00
0.000000000000e+00
0.000000000000e+00
0.000000000000e+00
0.000000000000e+00
0.000000000000e+00
0.000000000000e+00
0.000000000000e+00
0.000000000000e+00
0.000000000000e+00
0.000000000000e+00
0.000000000000e+00
0.000000000000e+00
0.000000000000e+00
0.000000000000e+00
0.000000000000e+00
0.000000000000e+00
0.000000000000e+00
0.000000000000e+00
0.000000000000e+00
0.000000000000e+00
0.000000000000e+00
0.000000000000e+00
0.000000000000e+00
0.000000000000e+00
0.000000000000e+00
0.000000000000e+00
0.000000000000e+00
0.000000000000e+00
0.000000000000e+00
0.000000000000e+00
0.000000000000e+00
0.000000000000e+00
0.000000000000e+00
0.000000000000e+00
0.000000000000e+00
0.000000000000e+00
5.853814175028e-17
6.647863090651e-17
4.063742150419e-17
8.348097915313e-17
9.525686874011e-17
3.817112320274e-17
7.054370608269e-17
4.451610086765e-17
6.659146330156e-17
4.835492389390e-17
7.993616476036e-17
4.362600147319e-17
4.706896377572e-17
5.832523517698e-17
3.256651657095e-17
3.939412003316e-17
9.360505356547e-17
7.673684408775e-17
3.211940257033e-17
8.780670721999e-17
9.078865845685e-17
6.234488918971e-17
5.886308458179e-17
2.553681415719e-17
6.845179527450e-17
4.519741780463e-17
7.589432703371e-17
5.678730583686e-17
7.914887117216e-17
6.704895328247e-17
4.352014627567e-17
4.255445767144e-17
1.013282783900e-16
9.496903199783e-17
4.443386092673e-17
4.903059975029e-17
9.279619196462e-17
5.659811722448e-17
8.228437647410e-17
2.730707798575e-17
3.459906263945e-17
5.252387149714e-17
6.014080193209e-17
8.269724446102e-17
6.716695638538e-17
8.432936308226e-17
8.878042240398e-17
8.025925636844e-17
5.158469288510e-17
6.999088728009e-17
5.608018710142e-17
1.711839676310e-17
7.007568178798e-17
6.597035847190e-17
8.247556549519e-17
3.796509924713e-17
5.190191246629e-17
5.918428371893e-17
7.110864831381e-17
6.576961253304e-17
5.190022415415e-17
4.241487051359e-17
1.169615210630e-16
7.278646883713e-17
SCALARS von_mises float 1
LOOKUP_TABLE default
0.000000000000e+00
0.000000000000e+00
0.000000000000e+00
0.000000000000e+00
0.000000000000e+00
0.000000000000e+00
0.000000000000e+00
0.000000000000e+00
0.000000000000e+00
0.000000000000e+00
0.000000000000e+00
0.000000000000e+00
0.000000000000e+00
0.000000000000e+00
0.000000000000e+00
0.000000000000e+00
0.000000000000e+00
0.000000000000e+00
0.000000000000e+00
0.000000000000e+00
0.000000000000e+00
0.000000000000e+00
0.000000000000e+00
0.000000000000e+00
0.000000000000e+00
0.000000000000e+00
0.000000000000e+00
0.000000000000e+00
0.000000000000e+00
0.000000000000e+00
0.000000000000e+00
0.000000000000e+00
0.000000000000e+00
0.000000000000e+00
0.000000000000e+00
0.000000000000e+00
0.000000000000e+00
0.000000000000e+00
0.000000000000e+00
0.000000000000e+00
0.000000000000e+00
0.000000000000e+00
0.000000000000e+00
0.000000000000e+00
0.000000000000e+00
0.000000000000e+00
0.000000000000e+00
0.000000000000e+00
0.000000000000e+00
0.000000000000e+00
0.000000000000e+00
0.000000000000e+00
0.000000000000e+00
0.000000000000e+00
0.000000000000e+00
0.000000000000e+00
0.000000000000e+00
0.000000000000e+00
0.000000000000e+00
0.000000000000e+00
0.000000000000e+00
0.000000000000e+00
0.000000000000e+00
0.000000000000e+00
5.138633341775e-12
4.962151600438e-12
3.337864474862e-12
5.797363894911e-12
7.359814808188e-12
3.085383267849e-12
5.301198271280e-12
2.966215402153e-12
5.098929741863e-12
3.363776377812e-12
5.782130247964e-12
2.965155247411e-12
3.402668144674e-12
4.151263079678e-12
2.698461036573e-12
2.917591774041e-12
7.599132849163e-12
5.242214133422e-12
2.285969252517e-12
5.865286420359e-12
6.782727524842e-12
4.802325324828e-12
3.912390914656e-12
1.694562660668e-12
5.812238023108e-12
3.232236695343e-12
5.942341533872e-12
4.399037274020e-12
5.862961887312e-12
4.867997086463e-12
2.895732261975e-12
3.308001866795e-12
7.983028911114e-12
6.855406752357e-12
3.048955557054e-12
3.363562231511e-12
6.624696633786e-12
4.326902681003e-12
5.858302144357e-12
1.373635620305e-12
2.530585988505e-12
3.773533934828e-12
4.477213685179e-12
5.600791638660e-12
4.510134837945e-12
6.754666498747e-12
5.999333449723e-12
6.224235176901e-12
3.826289343632e-12
5.143691822635e-12
3.921892556343e-12
1.323833156959e-12
4.464021685799e-12
4.573848091845e-12
5.460245079012e-12
2.767320296913e-12
4.297457409887e-12
4.409511621706e-12
4.811962104466e-12
4.611962472717e-12
4.061668883794e-12
3.532400363463e-12
7.976656989775e-12
4.886458989612e-12
SCALARS sdf_gap float 1
LOOKUP_TABLE default
0.000000000000e+00
0.000000000000e+00
0.000000000000e+00
0.000000000000e+00
0.000000000000e+00
0.000000000000e+00
0.000000000000e+00
0.000000000000e+00
0.000000000000e+00
0.000000000000e+00
0.000000000000e+00
0.000000000000e+00
0.000000000000e+00
0.000000000000e+00
0.000000000000e+00
0.000000000000e+00
0.000000000000e+00
0.000000000000e+00
0.000000000000e+00
0.000000000000e+00
0.000000000000e+00
0.000000000000e+00
0.000000000000e+00
0.000000000000e+00
0.000000000000e+00
0.000000000000e+00
0.000000000000e+00
0.000000000000e+00
0.000000000000e+00
0.000000000000e+00
0.000000000000e+00
0.000000000000e+00
0.000000000000e+00
0.000000000000e+00
0.000000000000e+00
0.000000000000e+00
0.000000000000e+00
0.000000000000e+00
0.000000000000e+00
0.000000000000e+00
0.000000000000e+00
0.000000000000e+00
0.000000000000e+00
0.000000000000e+00
0.000000000000e+00
0.000000000000e+00
0.000000000000e+00
0.000000000000e+00
0.000000000000e+00
0.000000000000e+00
0.000000000000e+00
0.000000000000e+00
0.000000000000e+00
0.000000000000e+00
0.000000000000e+00
0.000000000000e+00
0.000000000000e+00
0.000000000000e+00
0.000000000000e+00
0.000000000000e+00
0.000000000000e+00
0.000000000000e+00
0.000000000000e+00
0.000000000000e+00
6.060584651800e-03
6.060584652091e-03
6.060584652382e-03
6.060584652672e-03
6.060584651899e-03
6.060584652190e-03
6.060584652481e-03
6.060584652772e-03
6.060584651998e-03
6.060584652289e-03
6.060584652580e-03
6.060584652871e-03
6.060584652098e-03
6.060584652388e-03
6.060584652679e-03
6.060584652970e-03
0.000000000000e+00
0.000000000000e+00
0.000000000000e+00
0.000000000000e+00
0.000000000000e+00
0.000000000000e+00
0.000000000000e+00
0.000000000000e+00
0.000000000000e+00
0.000000000000e+00
0.000000000000e+00
0.000000000000e+00
0.000000000000e+00
0.000000000000e+00
0.000000000000e+00
0.000000000000e+00
0.000000000000e+00
0.000000000000e+00
0.000000000000e+00
0.000000000000e+00
0.000000000000e+00
0.000000000000e+00
0.000000000000e+00
0.000000000000e+00
0.000000000000e+00
0.000000000000e+00
0.000000000000e+00
0.000000000000e+00
0.000000000000e+00
0.000000000000e+00
0.000000000000e+00
0.000000000000e+00
0.000000000000e+00
0.000000000000e+00
0.000000000000e+00
0.000000000000e+00
0.000000000000e+00
0.000000000000e+00
0.000000000000e+00
0.000000000000e+00
0.000000000000e+00
0.000000000000e+00
0.000000000000e+00
0.000000000000e+00
0.000000000000e+00
0.000000000000e+00
0.000000000000e+00
0.000000000000e+00
SCALARS contact_pressure float 1
LOOKUP_TABLE default
0.000000000000e+00
0.000000000000e+00
0.000000000000e+00
0.000000000000e+00
0.000000000000e+00
0.000000000000e+00
0.000000000000e+00
0.000000000000e+00
0.000000000000e+00
0.000000000000e+00
0.000000000000e+00
0.000000000000e+00
0.000000000000e+00
0.000000000000e+00
0.000000000000e+00
0.000000000000e+00
0.000000000000e+00
0.000000000000e+00
0.000000000000e+00
0.000000000000e+00
0.000000000000e+00
0.000000000000e+00
0.000000000000e+00
0.000000000000e+00
0.000000000000e+00
0.000000000000e+00
0.000000000000e+00
0.000000000000e+00
0.000000000000e+00
0.000000000000e+00
0.000000000000e+00
0.000000000000e+00
0.000000000000e+00
0.000000000000e+00
0.000000000000e+00
0.000000000000e+00
0.000000000000e+00
0.000000000000e+00
0.000000000000e+00
0.000000000000e+00
0.000000000000e+00
0.000000000000e+00
0.000000000000e+00
0.000000000000e+00
0.000000000000e+00
0.000000000000e+00
0.000000000000e+00
0.000000000000e+00
0.000000000000e+00
0.000000000000e+00
0.000000000000e+00
0.000000000000e+00
0.000000000000e+00
0.000000000000e+00
0.000000000000e+00
0.000000000000e+00
0.000000000000e+00
0.000000000000e+00
0.000000000000e+00
0.000000000000e+00
0.000000000000e+00
0.000000000000e+00
0.000000000000e+00
0.000000000000e+00
0.000000000000e+00
0.000000000000e+00
0.000000000000e+00
0.000000000000e+00
0.000000000000e+00
0.000000000000e+00
0.000000000000e+00
0.000000000000e+00
0.000000000000e+00
0.000000000000e+00
0.000000000000e+00
0.000000000000e+00
0.000000000000e+00
0.000000000000e+00
0.000000000000e+00
0.000000000000e+00
0.000000000000e+00
0.000000000000e+00
0.000000000000e+00
0.000000000000e+00
0.000000000000e+00
0.000000000000e+00
0.000000000000e+00
0.000000000000e+00
0.000000000000e+00
0.000000000000e+00
0.000000000000e+00
0.000000000000e+00
0.000000000000e+00
0.000000000000e+00
0.000000000000e+00
0.000000000000e+00
0.000000000000e+00
0.000000000000e+00
0.000000000000e+00
0.000000000000e+00
0.000000000000e+00
0.000000000000e+00
0.000000000000e+00
0.000000000000e+00
0.000000000000e+00
0.000000000000e+00
0.000000000000e+00
0.000000000000e+00
0.000000000000e+00
0.000000000000e+00
0.000000000000e+00
0.000000000000e+00
0.000000000000e+00
0.000000000000e+00
0.000000000000e+00
0.000000000000e+00
0.000000000000e+00
0.000000000000e+00
0.000000000000e+00
0.000000000000e+00
0.000000000000e+00
0.000000000000e+00
0.000000000000e+00
0.000000000000e+00
0.000000000000e+00
0.000000000000e+00
0.000000000000e+00
0.000000000000e+00
SCALARS active_contact float 1
LOOKUP_TABLE default
0.000000000000e+00
0.000000000000e+00
0.000000000000e+00
0.000000000000e+00
0.000000000000e+00
0.000000000000e+00
0.000000000000e+00
0.000000000000e+00
0.000000000000e+00
0.000000000000e+00
0.000000000000e+00
0.000000000000e+00
0.000000000000e+00
0.000000000000e+00
0.000000000000e+00
0.000000000000e+00
0.000000000000e+00
0.000000000000e+00
0.000000000000e+00
0.000000000000e+00
0.000000000000e+00
0.000000000000e+00
0.000000000000e+00
0.000000000000e+00
0.000000000000e+00
0.000000000000e+00
0.000000000000e+00
0.000000000000e+00
0.000000000000e+00
0.000000000000e+00
0.000000000000e+00
0.000000000000e+00
0.000000000000e+00
0.000000000000e+00
0.000000000000e+00
0.000000000000e+00
0.000000000000e+00
0.000000000000e+00
0.000000000000e+00
0.000000000000e+00
0.000000000000e+00
0.000000000000e+00
0.000000000000e+00
0.000000000000e+00
0.000000000000e+00
0.000000000000e+00
0.000000000000e+00
0.000000000000e+00
0.000000000000e+00
0.000000000000e+00
0.000000000000e+00
0.000000000000e+00
0.000000000000e+00
0.000000000000e+00
0.000000000000e+00
0.000000000000e+00
0.000000000000e+00
0.000000000000e+00
0.000000000000e+00
0.000000000000e+00
0.000000000000e+00
0.000000000000e+00
0.000000000000e+00
0.000000000000e+00
0.000000000000e+00
0.000000000000e+00
0.000000000000e+00
0.000000000000e+00
0.000000000000e+00
0.000000000000e+00
0.000000000000e+00
0.000000000000e+00
0.000000000000e+00
0.000000000000e+00
0.000000000000e+00
0.000000000000e+00
0.000000000000e+00
0.000000000000e+00
0.000000000000e+00
0.000000000000e+00
0.000000000000e+00
0.000000000000e+00
0.000000000000e+00
0.000000000000e+00
0.000000000000e+00
0.000000000000e+00
0.000000000000e+00
0.000000000000e+00
0.000000000000e+00
0.000000000000e+00
0.000000000000e+00
0.000000000000e+00
0.000000000000e+00
0.000000000000e+00
0.000000000000e+00
0.000000000000e+00
0.000000000000e+00
0.000000000000e+00
0.000000000000e+00
0.000000000000e+00
0.000000000000e+00
0.000000000000e+00
0.000000000000e+00
0.000000000000e+00
0.000000000000e+00
0.000000000000e+00
0.000000000000e+00
0.000000000000e+00
0.000000000000e+00
0.000000000000e+00
0.000000000000e+00
0.000000000000e+00
0.000000000000e+00
0.000000000000e+00
0.000000000000e+00
0.000000000000e+00
0.000000000000e+00
0.000000000000e+00
0.000000000000e+00
0.000000000000e+00
0.000000000000e+00
0.000000000000e+00
0.000000000000e+00
0.000000000000e+00
0.000000000000e+00
0.000000000000e+00
0.000000000000e+00
0.000000000000e+00
