# vtk DataFile Version 3.0
SFC long-time C3D8 dynamic frame 94 t=1.880000000000e+00
ASCII
DATASET UNSTRUCTURED_GRID
POINTS 250 float
-2.500000000000e-01 -2.500000000000e-01 0.000000000000e+00
-1.250000000000e-01 -2.500000000000e-01 0.000000000000e+00
0.000000000000e+00 -2.500000000000e-01 0.000000000000e+00
1.250000000000e-01 -2.500000000000e-01 0.000000000000e+00
2.500000000000e-01 -2.500000000000e-01 0.000000000000e+00
-2.500000000000e-01 -1.250000000000e-01 0.000000000000e+00
-1.250000000000e-01 -1.250000000000e-01 0.000000000000e+00
0.000000000000e+00 -1.250000000000e-01 0.000000000000e+00
1.250000000000e-01 -1.250000000000e-01 0.000000000000e+00
2.500000000000e-01 -1.250000000000e-01 0.000000000000e+00
-2.500000000000e-01 0.000000000000e+00 0.000000000000e+00
-1.250000000000e-01 0.000000000000e+00 0.000000000000e+00
0.000000000000e+00 0.000000000000e+00 0.000000000000e+00
1.250000000000e-01 0.000000000000e+00 0.000000000000e+00
2.500000000000e-01 0.000000000000e+00 0.000000000000e+00
-2.500000000000e-01 1.250000000000e-01 0.000000000000e+00
-1.250000000000e-01 1.250000000000e-01 0.000000000000e+00
0.000000000000e+00 1.250000000000e-01 0.000000000000e+00
1.250000000000e-01 1.250000000000e-01 0.000000000000e+00
2.500000000000e-01 1.250000000000e-01 0.000000000000e+00
-2.500000000000e-01 2.500000000000e-01 0.000000000000e+00
-1.250000000000e-01 2.500000000000e-01 0.000000000000e+00
0.000000000000e+00 2.500000000000e-01 0.000000000000e+00
1.250000000000e-01 2.500000000000e-01 0.000000000000e+00
2.500000000000e-01 2.500000000000e-01 0.000000000000e+00
-2.500000000000e-01 -2.500000000000e-01 6.000000000000e-02
-1.250000000000e-01 -2.500000000000e-01 6.000000000000e-02
0.000000000000e+00 -2.500000000000e-01 6.000000000000e-02
1.250000000000e-01 -2.500000000000e-01 6.000000000000e-02
2.500000000000e-01 -2.500000000000e-01 6.000000000000e-02
-2.500000000000e-01 -1.250000000000e-01 6.000000000000e-02
-1.250000000000e-01 -1.250000000000e-01 6.000000000000e-02
0.000000000000e+00 -1.250000000000e-01 6.000000000000e-02
1.250000000000e-01 -1.250000000000e-01 6.000000000000e-02
2.500000000000e-01 -1.250000000000e-01 6.000000000000e-02
-2.500000000000e-01 0.000000000000e+00 6.000000000000e-02
-1.250000000000e-01 0.000000000000e+00 6.000000000000e-02
0.000000000000e+00 0.000000000000e+00 6.000000000000e-02
1.250000000000e-01 0.000000000000e+00 6.000000000000e-02
2.500000000000e-01 0.000000000000e+00 6.000000000000e-02
-2.500000000000e-01 1.250000000000e-01 6.000000000000e-02
-1.250000000000e-01 1.250000000000e-01 6.000000000000e-02
0.000000000000e+00 1.250000000000e-01 6.000000000000e-02
1.250000000000e-01 1.250000000000e-01 6.000000000000e-02
2.500000000000e-01 1.250000000000e-01 6.000000000000e-02
-2.500000000000e-01 2.500000000000e-01 6.000000000000e-02
-1.250000000000e-01 2.500000000000e-01 6.000000000000e-02
0.000000000000e+00 2.500000000000e-01 6.000000000000e-02
1.250000000000e-01 2.500000000000e-01 6.000000000000e-02
2.500000000000e-01 2.500000000000e-01 6.000000000000e-02
-2.500000000000e-01 -2.500000000000e-01 1.200000000000e-01
-1.250000000000e-01 -2.500000000000e-01 1.200000000000e-01
0.000000000000e+00 -2.500000000000e-01 1.200000000000e-01
1.250000000000e-01 -2.500000000000e-01 1.200000000000e-01
2.500000000000e-01 -2.500000000000e-01 1.200000000000e-01
-2.500000000000e-01 -1.250000000000e-01 1.200000000000e-01
-1.250000000000e-01 -1.250000000000e-01 1.200000000000e-01
0.000000000000e+00 -1.250000000000e-01 1.200000000000e-01
1.250000000000e-01 -1.250000000000e-01 1.200000000000e-01
2.500000000000e-01 -1.250000000000e-01 1.200000000000e-01
-2.500000000000e-01 0.000000000000e+00 1.200000000000e-01
-1.250000000000e-01 0.000000000000e+00 1.200000000000e-01
0.000000000000e+00 0.000000000000e+00 1.200000000000e-01
1.250000000000e-01 0.000000000000e+00 1.200000000000e-01
2.500000000000e-01 0.000000000000e+00 1.200000000000e-01
-2.500000000000e-01 1.250000000000e-01 1.200000000000e-01
-1.250000000000e-01 1.250000000000e-01 1.200000000000e-01
0.000000000000e+00 1.250000000000e-01 1.200000000000e-01
1.250000000000e-01 1.250000000000e-01 1.200000000000e-01
2.500000000000e-01 1.250000000000e-01 1.200000000000e-01
-2.500000000000e-01 2.500000000000e-01 1.200000000000e-01
-1.250000000000e-01 2.500000000000e-01 1.200000000000e-01
0.000000000000e+00 2.500000000000e-01 1.200000000000e-01
1.250000000000e-01 2.500000000000e-01 1.200000000000e-01
2.500000000000e-01 2.500000000000e-01 1.200000000000e-01
-2.500000000000e-01 -2.500000000000e-01 1.800000000000e-01
-1.250000000000e-01 -2.500000000000e-01 1.800000000000e-01
0.000000000000e+00 -2.500000000000e-01 1.800000000000e-01
1.250000000000e-01 -2.500000000000e-01 1.800000000000e-01
2.500000000000e-01 -2.500000000000e-01 1.800000000000e-01
-2.500000000000e-01 -1.250000000000e-01 1.800000000000e-01
-1.250000000000e-01 -1.250000000000e-01 1.800000000000e-01
0.000000000000e+00 -1.250000000000e-01 1.800000000000e-01
1.250000000000e-01 -1.250000000000e-01 1.800000000000e-01
2.500000000000e-01 -1.250000000000e-01 1.800000000000e-01
-2.500000000000e-01 0.000000000000e+00 1.800000000000e-01
-1.250000000000e-01 0.000000000000e+00 1.800000000000e-01
0.000000000000e+00 0.000000000000e+00 1.800000000000e-01
1.250000000000e-01 0.000000000000e+00 1.800000000000e-01
2.500000000000e-01 0.000000000000e+00 1.800000000000e-01
-2.500000000000e-01 1.250000000000e-01 1.800000000000e-01
-1.250000000000e-01 1.250000000000e-01 1.800000000000e-01
0.000000000000e+00 1.250000000000e-01 1.800000000000e-01
1.250000000000e-01 1.250000000000e-01 1.800000000000e-01
2.500000000000e-01 1.250000000000e-01 1.800000000000e-01
-2.500000000000e-01 2.500000000000e-01 1.800000000000e-01
-1.250000000000e-01 2.500000000000e-01 1.800000000000e-01
0.000000000000e+00 2.500000000000e-01 1.800000000000e-01
1.250000000000e-01 2.500000000000e-01 1.800000000000e-01
2.500000000000e-01 2.500000000000e-01 1.800000000000e-01
-2.500000000000e-01 -2.500000000000e-01 2.400000000000e-01
-1.250000000000e-01 -2.500000000000e-01 2.400000000000e-01
0.000000000000e+00 -2.500000000000e-01 2.400000000000e-01
1.250000000000e-01 -2.500000000000e-01 2.400000000000e-01
2.500000000000e-01 -2.500000000000e-01 2.400000000000e-01
-2.500000000000e-01 -1.250000000000e-01 2.400000000000e-01
-1.250000000000e-01 -1.250000000000e-01 2.400000000000e-01
0.000000000000e+00 -1.250000000000e-01 2.400000000000e-01
1.250000000000e-01 -1.250000000000e-01 2.400000000000e-01
2.500000000000e-01 -1.250000000000e-01 2.400000000000e-01
-2.500000000000e-01 0.000000000000e+00 2.400000000000e-01
-1.250000000000e-01 0.000000000000e+00 2.400000000000e-01
0.000000000000e+00 0.000000000000e+00 2.400000000000e-01
1.250000000000e-01 0.000000000000e+00 2.400000000000e-01
2.500000000000e-01 0.000000000000e+00 2.400000000000e-01
-2.500000000000e-01 1.250000000000e-01 2.400000000000e-01
-1.250000000000e-01 1.250000000000e-01 2.400000000000e-01
0.000000000000e+00 1.250000000000e-01 2.400000000000e-01
1.250000000000e-01 1.250000000000e-01 2.400000000000e-01
2.500000000000e-01 1.250000000000e-01 2.400000000000e-01
-2.500000000000e-01 2.500000000000e-01 2.400000000000e-01
-1.250000000000e-01 2.500000000000e-01 2.400000000000e-01
0.000000000000e+00 2.500000000000e-01 2.400000000000e-01
1.250000000000e-01 2.500000000000e-01 2.400000000000e-01
2.500000000000e-01 2.500000000000e-01 2.400000000000e-01
-2.500017881691e-01 -2.500017881691e-01 2.399498486898e-01
-1.250009139634e-01 -2.500017827310e-01 2.399493656250e-01
2.439060047966e-14 -2.500017621533e-01 2.399492063595e-01
1.250009139634e-01 -2.500017827310e-01 2.399493656250e-01
2.500017881691e-01 -2.500017881691e-01 2.399498486898e-01
-2.500017827310e-01 -1.250009139634e-01 2.399493656250e-01
-1.250009114044e-01 -1.250009114044e-01 2.399488873082e-01
2.357866208543e-14 -1.250008990513e-01 2.399487307404e-01
1.250009114044e-01 -1.250009114044e-01 2.399488873082e-01
2.500017827310e-01 -1.250009139634e-01 2.399493656250e-01
-2.500017621533e-01 -3.155822198808e-14 2.399492063595e-01
-1.250008990513e-01 -3.074956979986e-14 2.399487307404e-01
2.277400261648e-14 -2.994223071909e-14 2.399485744092e-01
1.250008990513e-01 -2.912946556693e-14 2.399487307404e-01
2.500017621533e-01 -2.832172162814e-14 2.399492063595e-01
-2.500017827310e-01 1.250009139634e-01 2.399493656250e-01
-1.250009114044e-01 1.250009114044e-01 2.399488873082e-01
2.197162261360e-14 1.250008990513e-01 2.399487307404e-01
1.250009114044e-01 1.250009114044e-01 2.399488873082e-01
2.500017827310e-01 1.250009139634e-01 2.399493656250e-01
-2.500017881691e-01 2.500017881691e-01 2.399498486898e-01
-1.250009139634e-01 2.500017827310e-01 2.399493656250e-01
2.116540882703e-14 2.500017621533e-01 2.399492063595e-01
1.250009139634e-01 2.500017827310e-01 2.399493656250e-01
2.500017881691e-01 2.500017881691e-01 2.399498486898e-01
-2.500014570918e-01 -2.500014570919e-01 3.049484429013e-01
-1.250007433638e-01 -2.500014540586e-01 3.049479346937e-01
2.433907532404e-14 -2.500014356716e-01 3.049477690224e-01
1.250007433639e-01 -2.500014540586e-01 3.049479346937e-01
2.500014570919e-01 -2.500014570919e-01 3.049484429013e-01
-2.500014540585e-01 -1.250007433639e-01 3.049479346937e-01
-1.250007420050e-01 -1.250007420050e-01 3.049474290102e-01
2.353034613800e-14 -1.250007306165e-01 3.049472659922e-01
1.250007420050e-01 -1.250007420050e-01 3.049474290102e-01
2.500014540586e-01 -1.250007433639e-01 3.049479346937e-01
-2.500014356716e-01 -3.155123810969e-14 3.049477690224e-01
-1.250007306164e-01 -3.074784591935e-14 3.049472659922e-01
2.272547250003e-14 -2.993921446612e-14 3.049471043441e-01
1.250007306165e-01 -2.912998908702e-14 3.049472659922e-01
2.500014356716e-01 -2.832112136448e-14 3.049477690224e-01
-2.500014540585e-01 1.250007433638e-01 3.049479346937e-01
-1.250007420050e-01 1.250007420050e-01 3.049474290102e-01
2.191875349923e-14 1.250007306164e-01 3.049472659922e-01
1.250007420050e-01 1.250007420050e-01 3.049474290102e-01
2.500014540586e-01 1.250007433638e-01 3.049479346937e-01
-2.500014570918e-01 2.500014570918e-01 3.049484429013e-01
-1.250007433638e-01 2.500014540585e-01 3.049479346937e-01
2.111364417803e-14 2.500014356715e-01 3.049477690224e-01
1.250007433639e-01 2.500014540585e-01 3.049479346937e-01
2.500014570919e-01 2.500014570918e-01 3.049484429013e-01
-2.500010510714e-01 -2.500010510714e-01 3.699474543335e-01
-1.250005651264e-01 -2.500010418030e-01 3.699469162088e-01
2.428887338522e-14 -2.500010203353e-01 3.699467373924e-01
1.250005651264e-01 -2.500010418030e-01 3.699469162088e-01
2.500010510714e-01 -2.500010510714e-01 3.699474543335e-01
-2.500010418030e-01 -1.250005651264e-01 3.699469162088e-01
-1.250005645704e-01 -1.250005645704e-01 3.699463767171e-01
2.348193912324e-14 -1.250005532552e-01 3.699461989610e-01
1.250005645704e-01 -1.250005645704e-01 3.699463767171e-01
2.500010418030e-01 -1.250005651264e-01 3.699469162088e-01
-2.500010203353e-01 -3.155134593746e-14 3.699467373924e-01
-1.250005532551e-01 -3.074284179606e-14 3.699461989610e-01
2.267345855472e-14 -2.993451696923e-14 3.699460221138e-01
1.250005532552e-01 -2.913019913739e-14 3.699461989610e-01
2.500010203353e-01 -2.831987907148e-14 3.699467373924e-01
-2.500010418030e-01 1.250005651264e-01 3.699469162088e-01
-1.250005645704e-01 1.250005645704e-01 3.699463767171e-01
2.186461873262e-14 1.250005532551e-01 3.699461989610e-01
1.250005645704e-01 1.250005645704e-01 3.699463767171e-01
2.500010418030e-01 1.250005651264e-01 3.699469162088e-01
-2.500010510714e-01 2.500010510714e-01 3.699474543335e-01
-1.250005651264e-01 2.500010418030e-01 3.699469162088e-01
2.105749829309e-14 2.500010203353e-01 3.699467373924e-01
1.250005651264e-01 2.500010418030e-01 3.699469162088e-01
2.500010510714e-01 2.500010510714e-01 3.699474543335e-01
-2.500006460174e-01 -2.500006460175e-01 4.349468692288e-01
-1.250003738249e-01 -2.500006301626e-01 4.349463112311e-01
2.423473847049e-14 -2.500006053961e-01 4.349461069330e-01
1.250003738249e-01 -2.500006301626e-01 4.349463112311e-01
2.500006460174e-01 -2.500006460175e-01 4.349468692288e-01
-2.500006301625e-01 -1.250003738249e-01 4.349463112311e-01
-1.250003733327e-01 -1.250003733328e-01 4.349457491952e-01
2.342736380420e-14 -1.250003612362e-01 4.349455431610e-01
1.250003733328e-01 -1.250003733328e-01 4.349457491952e-01
2.500006301626e-01 -1.250003738249e-01 4.349463112311e-01
-2.500006053961e-01 -3.155103515014e-14 4.349461069330e-01
-1.250003612362e-01 -3.074018410010e-14 4.349455431610e-01
2.261535484919e-14 -2.993412772763e-14 4.349453355555e-01
1.250003612362e-01 -2.912865346826e-14 4.349455431610e-01
2.500006053961e-01 -2.832101502290e-14 4.349461069330e-01
-2.500006301625e-01 1.250003738248e-01 4.349463112311e-01
-1.250003733327e-01 1.250003733327e-01 4.349457491952e-01
2.180840306425e-14 1.250003612362e-01 4.349455431610e-01
1.250003733328e-01 1.250003733327e-01 4.349457491952e-01
2.500006301626e-01 1.250003738248e-01 4.349463112311e-01
-2.500006460174e-01 2.500006460174e-01 4.349468692288e-01
-1.250003738249e-01 2.500006301625e-01 4.349463112311e-01
2.100100549311e-14 2.500006053961e-01 4.349461069330e-01
1.250003738249e-01 2.500006301625e-01 4.349463112311e-01
2.500006460174e-01 2.500006460174e-01 4.349468692288e-01
-2.500002913296e-01 -2.500002913297e-01 4.999466470148e-01
-1.250001675136e-01 -2.500002759652e-01 4.999460803516e-01
2.417959764253e-14 -2.500002525073e-01 4.999458590472e-01
1.250001675137e-01 -2.500002759652e-01 4.999460803516e-01
2.500002913297e-01 -2.500002913297e-01 4.999466470148e-01
-2.500002759652e-01 -1.250001675137e-01 4.999460803516e-01
-1.250001649897e-01 -1.250001649897e-01 4.999455070392e-01
2.336893557210e-14 -1.250001514232e-01 4.999452818799e-01
1.250001649897e-01 -1.250001649897e-01 4.999455070392e-01
2.500002759652e-01 -1.250001675137e-01 4.999460803516e-01
-2.500002525073e-01 -3.154437574575e-14 4.999458590472e-01
-1.250001514232e-01 -3.073835334932e-14 4.999452818799e-01
2.255852416345e-14 -2.993424646975e-14 4.999450541320e-01
1.250001514232e-01 -2.912835971683e-14 4.999452818799e-01
2.500002525073e-01 -2.832029092299e-14 4.999458590472e-01
-2.500002759652e-01 1.250001675136e-01 4.999460803516e-01
-1.250001649897e-01 1.250001649897e-01 4.999455070392e-01
2.174926939836e-14 1.250001514231e-01 4.999452818799e-01
1.250001649897e-01 1.250001649897e-01 4.999455070392e-01
2.500002759652e-01 1.250001675136e-01 4.999460803516e-01
-2.500002913296e-01 2.500002913296e-01 4.999466470148e-01
-1.250001675136e-01 2.500002759652e-01 4.999460803516e-01
2.094413799495e-14 2.500002525073e-01 4.999458590472e-01
1.250001675137e-01 2.500002759652e-01 4.999460803516e-01
2.500002913297e-01 2.500002913296e-01 4.999466470148e-01
CELLS 128 1152
8 0 1 6 5 25 26 31 30
8 1 2 7 6 26 27 32 31
8 2 3 8 7 27 28 33 32
8 3 4 9 8 28 29 34 33
8 5 6 11 10 30 31 36 35
8 6 7 12 11 31 32 37 36
8 7 8 13 12 32 33 38 37
8 8 9 14 13 33 34 39 38
8 10 11 16 15 35 36 41 40
8 11 12 17 16 36 37 42 41
8 12 13 18 17 37 38 43 42
8 13 14 19 18 38 39 44 43
8 15 16 21 20 40 41 46 45
8 16 17 22 21 41 42 47 46
8 17 18 23 22 42 43 48 47
8 18 19 24 23 43 44 49 48
8 25 26 31 30 50 51 56 55
8 26 27 32 31 51 52 57 56
8 27 28 33 32 52 53 58 57
8 28 29 34 33 53 54 59 58
8 30 31 36 35 55 56 61 60
8 31 32 37 36 56 57 62 61
8 32 33 38 37 57 58 63 62
8 33 34 39 38 58 59 64 63
8 35 36 41 40 60 61 66 65
8 36 37 42 41 61 62 67 66
8 37 38 43 42 62 63 68 67
8 38 39 44 43 63 64 69 68
8 40 41 46 45 65 66 71 70
8 41 42 47 46 66 67 72 71
8 42 43 48 47 67 68 73 72
8 43 44 49 48 68 69 74 73
8 50 51 56 55 75 76 81 80
8 51 52 57 56 76 77 82 81
8 52 53 58 57 77 78 83 82
8 53 54 59 58 78 79 84 83
8 55 56 61 60 80 81 86 85
8 56 57 62 61 81 82 87 86
8 57 58 63 62 82 83 88 87
8 58 59 64 63 83 84 89 88
8 60 61 66 65 85 86 91 90
8 61 62 67 66 86 87 92 91
8 62 63 68 67 87 88 93 92
8 63 64 69 68 88 89 94 93
8 65 66 71 70 90 91 96 95
8 66 67 72 71 91 92 97 96
8 67 68 73 72 92 93 98 97
8 68 69 74 73 93 94 99 98
8 75 76 81 80 100 101 106 105
8 76 77 82 81 101 102 107 106
8 77 78 83 82 102 103 108 107
8 78 79 84 83 103 104 109 108
8 80 81 86 85 105 106 111 110
8 81 82 87 86 106 107 112 111
8 82 83 88 87 107 108 113 112
8 83 84 89 88 108 109 114 113
8 85 86 91 90 110 111 116 115
8 86 87 92 91 111 112 117 116
8 87 88 93 92 112 113 118 117
8 88 89 94 93 113 114 119 118
8 90 91 96 95 115 116 121 120
8 91 92 97 96 116 117 122 121
8 92 93 98 97 117 118 123 122
8 93 94 99 98 118 119 124 123
8 125 126 131 130 150 151 156 155
8 126 127 132 131 151 152 157 156
8 127 128 133 132 152 153 158 157
8 128 129 134 133 153 154 159 158
8 130 131 136 135 155 156 161 160
8 131 132 137 136 156 157 162 161
8 132 133 138 137 157 158 163 162
8 133 134 139 138 158 159 164 163
8 135 136 141 140 160 161 166 165
8 136 137 142 141 161 162 167 166
8 137 138 143 142 162 163 168 167
8 138 139 144 143 163 164 169 168
8 140 141 146 145 165 166 171 170
8 141 142 147 146 166 167 172 171
8 142 143 148 147 167 168 173 172
8 143 144 149 148 168 169 174 173
8 150 151 156 155 175 176 181 180
8 151 152 157 156 176 177 182 181
8 152 153 158 157 177 178 183 182
8 153 154 159 158 178 179 184 183
8 155 156 161 160 180 181 186 185
8 156 157 162 161 181 182 187 186
8 157 158 163 162 182 183 188 187
8 158 159 164 163 183 184 189 188
8 160 161 166 165 185 186 191 190
8 161 162 167 166 186 187 192 191
8 162 163 168 167 187 188 193 192
8 163 164 169 168 188 189 194 193
8 165 166 171 170 190 191 196 195
8 166 167 172 171 191 192 197 196
8 167 168 173 172 192 193 198 197
8 168 169 174 173 193 194 199 198
8 175 176 181 180 200 201 206 205
8 176 177 182 181 201 202 207 206
8 177 178 183 182 202 203 208 207
8 178 179 184 183 203 204 209 208
8 180 181 186 185 205 206 211 210
8 181 182 187 186 206 207 212 211
8 182 183 188 187 207 208 213 212
8 183 184 189 188 208 209 214 213
8 185 186 191 190 210 211 216 215
8 186 187 192 191 211 212 217 216
8 187 188 193 192 212 213 218 217
8 188 189 194 193 213 214 219 218
8 190 191 196 195 215 216 221 220
8 191 192 197 196 216 217 222 221
8 192 193 198 197 217 218 223 222
8 193 194 199 198 218 219 224 223
8 200 201 206 205 225 226 231 230
8 201 202 207 206 226 227 232 231
8 202 203 208 207 227 228 233 232
8 203 204 209 208 228 229 234 233
8 205 206 211 210 230 231 236 235
8 206 207 212 211 231 232 237 236
8 207 208 213 212 232 233 238 237
8 208 209 214 213 233 234 239 238
8 210 211 216 215 235 236 241 240
8 211 212 217 216 236 237 242 241
8 212 213 218 217 237 238 243 242
8 213 214 219 218 238 239 244 243
8 215 216 221 220 240 241 246 245
8 216 217 222 221 241 242 247 246
8 217 218 223 222 242 243 248 247
8 218 219 224 223 243 244 249 248
CELL_TYPES 128
12
12
12
12
12
12
12
12
12
12
12
12
12
12
12
12
12
12
12
12
12
12
12
12
12
12
12
12
12
12
12
12
12
12
12
12
12
12
12
12
12
12
12
12
12
12
12
12
12
12
12
12
12
12
12
12
12
12
12
12
12
12
12
12
12
12
12
12
12
12
12
12
12
12
12
12
12
12
12
12
12
12
12
12
12
12
12
12
12
12
12
12
12
12
12
12
12
12
12
12
12
12
12
12
12
12
12
12
12
12
12
12
12
12
12
12
12
12
12
12
12
12
12
12
12
12
12
12
POINT_DATA 250
VECTORS displacement float
0.000000000000e+00 0.000000000000e+00 0.000000000000e+00
0.000000000000e+00 0.000000000000e+00 0.000000000000e+00
0.000000000000e+00 0.000000000000e+00 0.000000000000e+00
0.000000000000e+00 0.000000000000e+00 0.000000000000e+00
0.000000000000e+00 0.000000000000e+00 0.000000000000e+00
0.000000000000e+00 0.000000000000e+00 0.000000000000e+00
0.000000000000e+00 0.000000000000e+00 0.000000000000e+00
0.000000000000e+00 0.000000000000e+00 0.000000000000e+00
0.000000000000e+00 0.000000000000e+00 0.000000000000e+00
0.000000000000e+00 0.000000000000e+00 0.000000000000e+00
0.000000000000e+00 0.000000000000e+00 0.000000000000e+00
0.000000000000e+00 0.000000000000e+00 0.000000000000e+00
0.000000000000e+00 0.000000000000e+00 0.000000000000e+00
0.000000000000e+00 0.000000000000e+00 0.000000000000e+00
0.000000000000e+00 0.000000000000e+00 0.000000000000e+00
0.000000000000e+00 0.000000000000e+00 0.000000000000e+00
0.000000000000e+00 0.000000000000e+00 0.000000000000e+00
0.000000000000e+00 0.000000000000e+00 0.000000000000e+00
0.000000000000e+00 0.000000000000e+00 0.000000000000e+00
0.000000000000e+00 0.000000000000e+00 0.000000000000e+00
0.000000000000e+00 0.000000000000e+00 0.000000000000e+00
0.000000000000e+00 0.000000000000e+00 0.000000000000e+00
0.000000000000e+00 0.000000000000e+00 0.000000000000e+00
0.000000000000e+00 0.000000000000e+00 0.000000000000e+00
0.000000000000e+00 0.000000000000e+00 0.000000000000e+00
0.000000000000e+00 0.000000000000e+00 0.000000000000e+00
0.000000000000e+00 0.000000000000e+00 0.000000000000e+00
0.000000000000e+00 0.000000000000e+00 0.000000000000e+00
0.000000000000e+00 0.000000000000e+00 0.000000000000e+00
0.000000000000e+00 0.000000000000e+00 0.000000000000e+00
0.000000000000e+00 0.000000000000e+00 0.000000000000e+00
0.000000000000e+00 0.000000000000e+00 0.000000000000e+00
0.000000000000e+00 0.000000000000e+00 0.000000000000e+00
0.000000000000e+00 0.000000000000e+00 0.000000000000e+00
0.000000000000e+00 0.000000000000e+00 0.000000000000e+00
0.000000000000e+00 0.000000000000e+00 0.000000000000e+00
0.000000000000e+00 0.000000000000e+00 0.000000000000e+00
0.000000000000e+00 0.000000000000e+00 0.000000000000e+00
0.000000000000e+00 0.000000000000e+00 0.000000000000e+00
0.000000000000e+00 0.000000000000e+00 0.000000000000e+00
0.000000000000e+00 0.000000000000e+00 0.000000000000e+00
0.000000000000e+00 0.000000000000e+00 0.000000000000e+00
0.000000000000e+00 0.000000000000e+00 0.000000000000e+00
0.000000000000e+00 0.000000000000e+00 0.000000000000e+00
0.000000000000e+00 0.000000000000e+00 0.000000000000e+00
0.000000000000e+00 0.000000000000e+00 0.000000000000e+00
0.000000000000e+00 0.000000000000e+00 0.000000000000e+00
0.000000000000e+00 0.000000000000e+00 0.000000000000e+00
0.000000000000e+00 0.000000000000e+00 0.000000000000e+00
0.000000000000e+00 0.000000000000e+00 0.000000000000e+00
0.000000000000e+00 0.000000000000e+00 0.000000000000e+00
0.000000000000e+00 0.000000000000e+00 0.000000000000e+00
0.000000000000e+00 0.000000000000e+00 0.000000000000e+00
0.000000000000e+00 0.000000000000e+00 0.000000000000e+00
0.000000000000e+00 0.000000000000e+00 0.000000000000e+00
0.000000000000e+00 0.000000000000e+00 0.000000000000e+00
0.000000000000e+00 0.000000000000e+00 0.000000000000e+00
0.000000000000e+00 0.000000000000e+00 0.000000000000e+00
0.000000000000e+00 0.000000000000e+00 0.000000000000e+00
0.000000000000e+00 0.000000000000e+00 0.000000000000e+00
0.000000000000e+00 0.000000000000e+00 0.000000000000e+00
0.000000000000e+00 0.000000000000e+00 0.000000000000e+00
0.000000000000e+00 0.000000000000e+00 0.000000000000e+00
0.000000000000e+00 0.000000000000e+00 0.000000000000e+00
0.000000000000e+00 0.000000000000e+00 0.000000000000e+00
0.000000000000e+00 0.000000000000e+00 0.000000000000e+00
0.000000000000e+00 0.000000000000e+00 0.000000000000e+00
0.000000000000e+00 0.000000000000e+00 0.000000000000e+00
0.000000000000e+00 0.000000000000e+00 0.000000000000e+00
0.000000000000e+00 0.000000000000e+00 0.000000000000e+00
0.000000000000e+00 0.000000000000e+00 0.000000000000e+00
0.000000000000e+00 0.000000000000e+00 0.000000000000e+00
0.000000000000e+00 0.000000000000e+00 0.000000000000e+00
0.000000000000e+00 0.000000000000e+00 0.000000000000e+00
0.000000000000e+00 0.000000000000e+00 0.000000000000e+00
0.000000000000e+00 0.000000000000e+00 0.000000000000e+00
0.000000000000e+00 0.000000000000e+00 0.000000000000e+00
0.000000000000e+00 0.000000000000e+00 0.000000000000e+00
0.000000000000e+00 0.000000000000e+00 0.000000000000e+00
0.000000000000e+00 0.000000000000e+00 0.000000000000e+00
0.000000000000e+00 0.000000000000e+00 0.000000000000e+00
0.000000000000e+00 0.000000000000e+00 0.000000000000e+00
0.000000000000e+00 0.000000000000e+00 0.000000000000e+00
0.000000000000e+00 0.000000000000e+00 0.000000000000e+00
0.000000000000e+00 0.000000000000e+00 0.000000000000e+00
0.000000000000e+00 0.000000000000e+00 0.000000000000e+00
0.000000000000e+00 0.000000000000e+00 0.000000000000e+00
0.000000000000e+00 0.000000000000e+00 0.000000000000e+00
0.000000000000e+00 0.000000000000e+00 0.000000000000e+00
0.000000000000e+00 0.000000000000e+00 0.000000000000e+00
0.000000000000e+00 0.000000000000e+00 0.000000000000e+00
0.000000000000e+00 0.000000000000e+00 0.000000000000e+00
0.000000000000e+00 0.000000000000e+00 0.000000000000e+00
0.000000000000e+00 0.000000000000e+00 0.000000000000e+00
0.000000000000e+00 0.000000000000e+00 0.000000000000e+00
0.000000000000e+00 0.000000000000e+00 0.000000000000e+00
0.000000000000e+00 0.000000000000e+00 0.000000000000e+00
0.000000000000e+00 0.000000000000e+00 0.000000000000e+00
0.000000000000e+00 0.000000000000e+00 0.000000000000e+00
0.000000000000e+00 0.000000000000e+00 0.000000000000e+00
0.000000000000e+00 0.000000000000e+00 0.000000000000e+00
0.000000000000e+00 0.000000000000e+00 0.000000000000e+00
0.000000000000e+00 0.000000000000e+00 0.000000000000e+00
0.000000000000e+00 0.000000000000e+00 0.000000000000e+00
0.000000000000e+00 0.000000000000e+00 0.000000000000e+00
0.000000000000e+00 0.000000000000e+00 0.000000000000e+00
0.000000000000e+00 0.000000000000e+00 0.000000000000e+00
0.000000000000e+00 0.000000000000e+00 0.000000000000e+00
0.000000000000e+00 0.000000000000e+00 0.000000000000e+00
0.000000000000e+00 0.000000000000e+00 0.000000000000e+00
0.000000000000e+00 0.000000000000e+00 0.000000000000e+00
0.000000000000e+00 0.000000000000e+00 0.000000000000e+00
0.000000000000e+00 0.000000000000e+00 0.000000000000e+00
0.000000000000e+00 0.000000000000e+00 0.000000000000e+00
0.000000000000e+00 0.000000000000e+00 0.000000000000e+00
0.000000000000e+00 0.000000000000e+00 0.000000000000e+00
0.000000000000e+00 0.000000000000e+00 0.000000000000e+00
0.000000000000e+00 0.000000000000e+00 0.000000000000e+00
0.000000000000e+00 0.000000000000e+00 0.000000000000e+00
0.000000000000e+00 0.000000000000e+00 0.000000000000e+00
0.000000000000e+00 0.000000000000e+00 0.000000000000e+00
0.000000000000e+00 0.000000000000e+00 0.000000000000e+00
0.000000000000e+00 0.000000000000e+00 0.000000000000e+00
0.000000000000e+00 0.000000000000e+00 0.000000000000e+00
0.000000000000e+00 0.000000000000e+00 0.000000000000e+00
-1.788169082995e-06 -1.788169138938e-06 -1.505015131015e-02
-9.139633592342e-07 -1.782731029477e-06 -1.505063437498e-02
2.439060047966e-14 -1.762153318013e-06 -1.505079364050e-02
9.139634080019e-07 -1.782731027865e-06 -1.505063437498e-02
1.788169131745e-06 -1.788169135702e-06 -1.505015131015e-02
-1.782730975165e-06 -9.139634151792e-07 -1.505063437498e-02
-9.114043955014e-07 -9.114044498277e-07 -1.505111269183e-02
2.357866208543e-14 -8.990513463299e-07 -1.505126925959e-02
9.114044426478e-07 -9.114044482108e-07 -1.505111269183e-02
1.782731022297e-06 -9.139634119398e-07 -1.505063437498e-02
-1.762153265315e-06 -3.155822198808e-14 -1.505079364050e-02
-8.990512936181e-07 -3.074956979986e-14 -1.505126925959e-02
2.277400261648e-14 -2.994223071909e-14 -1.505142559082e-02
8.990513391554e-07 -2.912946556693e-14 -1.505126925959e-02
1.762153310831e-06 -2.832172162814e-14 -1.505079364050e-02
-1.782730976755e-06 9.139633520605e-07 -1.505063437498e-02
-9.114043971052e-07 9.114043883268e-07 -1.505111269183e-02
2.197162261360e-14 8.990512864484e-07 -1.505126925959e-02
9.114044410339e-07 9.114043899429e-07 -1.505111269183e-02
1.782731020671e-06 9.139633552843e-07 -1.505063437498e-02
-1.788169086204e-06 1.788169075814e-06 -1.505015131015e-02
-9.139633624435e-07 1.782730967979e-06 -1.505063437498e-02
2.116540882703e-14 1.762153258144e-06 -1.505079364050e-02
9.139634047691e-07 1.782730969589e-06 -1.505063437498e-02
1.788169128514e-06 1.788169079043e-06 -1.505015131015e-02
-1.457091843897e-06 -1.457091899796e-06 -1.505155709873e-02
-7.433638096497e-07 -1.454058581366e-06 -1.505206530630e-02
2.433907532404e-14 -1.435671607111e-06 -1.505223097758e-02
7.433638583255e-07 -1.454058579748e-06 -1.505206530630e-02
1.457091892561e-06 -1.457091896552e-06 -1.505155709873e-02
-1.454058527091e-06 -7.433638655497e-07 -1.505206530630e-02
-7.420049747843e-07 -7.420050290656e-07 -1.505257098978e-02
2.353034613800e-14 -7.306164825300e-07 -1.505273400780e-02
7.420050218414e-07 -7.420050274463e-07 -1.505257098978e-02
1.454058574142e-06 -7.433638623108e-07 -1.505206530630e-02
-1.435671554459e-06 -3.155123810969e-14 -1.505223097758e-02
-7.306164298662e-07 -3.074784591935e-14 -1.505273400780e-02
2.272547250003e-14 -2.993921446612e-14 -1.505289565585e-02
7.306164753072e-07 -2.912998908702e-14 -1.505273400780e-02
1.435671599884e-06 -2.832112136448e-14 -1.505223097758e-02
-1.454058528707e-06 7.433638024413e-07 -1.505206530630e-02
-7.420049763977e-07 7.420049675730e-07 -1.505257098978e-02
2.191875349923e-14 7.306164226482e-07 -1.505273400780e-02
7.420050202284e-07 7.420049691853e-07 -1.505257098978e-02
1.454058572522e-06 7.433638056634e-07 -1.505206530630e-02
-1.457091847113e-06 1.457091836683e-06 -1.505155709873e-02
-7.433638128748e-07 1.454058519871e-06 -1.505206530630e-02
2.111364417803e-14 1.435671547236e-06 -1.505223097758e-02
7.433638550959e-07 1.454058521487e-06 -1.505206530630e-02
1.457091889327e-06 1.457091839898e-06 -1.505155709873e-02
-1.051071373509e-06 -1.051071429357e-06 -1.505254566651e-02
-5.651263934206e-07 -1.041803042255e-06 -1.505308379121e-02
2.428887338522e-14 -1.020335332374e-06 -1.505326260757e-02
5.651264420004e-07 -1.041803040633e-06 -1.505308379121e-02
1.051071422086e-06 -1.051071426112e-06 -1.505254566651e-02
-1.041802988030e-06 -5.651264492685e-07 -1.505308379121e-02
-5.645703909683e-07 -5.645704451919e-07 -1.505362328294e-02
2.348193912324e-14 -5.532551927221e-07 -1.505380103902e-02
5.645704379268e-07 -5.645704435753e-07 -1.505362328294e-02
1.041803034974e-06 -5.651264460305e-07 -1.505308379121e-02
-1.020335279771e-06 -3.155134593746e-14 -1.505326260757e-02
-5.532551401166e-07 -3.074284179606e-14 -1.505380103903e-02
2.267345855472e-14 -2.993451696923e-14 -1.505397788619e-02
5.532551854549e-07 -2.913019913739e-14 -1.505380103902e-02
1.020335325102e-06 -2.831987907148e-14 -1.505326260757e-02
-1.041802989649e-06 5.651263861673e-07 -1.505308379121e-02
-5.645703925826e-07 5.645703837076e-07 -1.505362328294e-02
2.186461873262e-14 5.532551328498e-07 -1.505380103902e-02
5.645704363096e-07 5.645703853185e-07 -1.505362328294e-02
1.041803033365e-06 5.651263893897e-07 -1.505308379121e-02
-1.051071376736e-06 1.051071366253e-06 -1.505254566651e-02
-5.651263966525e-07 1.041802980765e-06 -1.505308379121e-02
2.105749829309e-14 1.020335272494e-06 -1.505326260757e-02
5.651264387665e-07 1.041802982375e-06 -1.505308379121e-02
1.051071418842e-06 1.051071369469e-06 -1.505254566651e-02
-6.460174000208e-07 -6.460174558118e-07 -1.505313077117e-02
-3.738248540167e-07 -6.301625897932e-07 -1.505368876889e-02
2.423473847049e-14 -6.053961391944e-07 -1.505389306697e-02
3.738249024902e-07 -6.301625881727e-07 -1.505368876889e-02
6.460174484925e-07 -6.460174525689e-07 -1.505313077117e-02
-6.301625356273e-07 -3.738249098035e-07 -1.505368876889e-02
-3.733327166859e-07 -3.733327708515e-07 -1.505425080485e-02
2.342736380420e-14 -3.612362167276e-07 -1.505445683896e-02
3.733327635361e-07 -3.733327692354e-07 -1.505425080484e-02
6.301625824707e-07 -3.738249065678e-07 -1.505368876889e-02
-6.053960866561e-07 -3.155103515014e-14 -1.505389306697e-02
-3.612361641811e-07 -3.074018410010e-14 -1.505445683896e-02
2.261535484919e-14 -2.993412772763e-14 -1.505466444453e-02
3.612362094129e-07 -2.912865346826e-14 -1.505445683896e-02
6.053961318815e-07 -2.832101502290e-14 -1.505389306697e-02
-6.301625372463e-07 3.738248467068e-07 -1.505368876889e-02
-3.733327183044e-07 3.733327093672e-07 -1.505425080485e-02
2.180840306425e-14 3.612361568576e-07 -1.505445683896e-02
3.733327619183e-07 3.733327109805e-07 -1.505425080484e-02
6.301625808553e-07 3.738248499303e-07 -1.505368876889e-02
-6.460174032623e-07 6.460173927097e-07 -1.505313077117e-02
-3.738248572515e-07 6.301625283092e-07 -1.505368876889e-02
2.100100549311e-14 6.053960793171e-07 -1.505389306697e-02
3.738248992522e-07 6.301625299170e-07 -1.505368876889e-02
6.460174452578e-07 6.460173959340e-07 -1.505313077117e-02
-2.913296068580e-07 -2.913296625948e-07 -1.505335298521e-02
-1.675136436111e-07 -2.759652228991e-07 -1.505391964844e-02
2.417959764253e-14 -2.525073453728e-07 -1.505414095281e-02
1.675136919699e-07 -2.759652212881e-07 -1.505391964844e-02
2.913296552188e-07 -2.913296593457e-07 -1.505335298521e-02
-2.759651687884e-07 -1.675136993405e-07 -1.505391964844e-02
-1.649896956297e-07 -1.649897497371e-07 -1.505449296077e-02
2.336893557210e-14 -1.514232035093e-07 -1.505471812010e-02
1.649897423730e-07 -1.649897481244e-07 -1.505449296077e-02
2.759652155352e-07 -1.675136961051e-07 -1.505391964844e-02
-2.525072928796e-07 -3.154437574575e-14 -1.505414095281e-02
-1.514231510239e-07 -3.073835334932e-14 -1.505471812010e-02
2.255852416345e-14 -2.993424646975e-14 -1.505494586800e-02
1.514231961423e-07 -2.912835971683e-14 -1.505471812010e-02
2.525073379990e-07 -2.832029092299e-14 -1.505414095281e-02
-2.759651704244e-07 1.675136362449e-07 -1.505391964844e-02
-1.649896972603e-07 1.649896882556e-07 -1.505449296077e-02
2.174926939836e-14 1.514231436350e-07 -1.505471812010e-02
1.649897407565e-07 1.649896898675e-07 -1.505449296077e-02
2.759652139251e-07 1.675136394683e-07 -1.505391964844e-02
-2.913296101118e-07 2.913295994898e-07 -1.505335298521e-02
-1.675136468575e-07 2.759651614116e-07 -1.505391964844e-02
2.094413799495e-14 2.525072854900e-07 -1.505414095281e-02
1.675136887412e-07 2.759651630268e-07 -1.505391964844e-02
2.913296519852e-07 2.913296027118e-07 -1.505335298521e-02
SCALARS displacement_magnitude float 1
LOOKUP_TABLE default
0.000000000000e+00
0.000000000000e+00
0.000000000000e+00
0.000000000000e+00
0.000000000000e+00
0.000000000000e+00
0.000000000000e+00
0.000000000000e+00
0.000000000000e+00
0.000000000000e+00
0.000000000000e+00
0.000000000000e+00
0.000000000000e+00
0.000000000000e+00
0.000000000000e+00
0.000000000000e+00
0.000000000000e+00
0.000000000000e+00
0.000000000000e+00
0.000000000000e+00
0.000000000000e+00
0.000000000000e+00
0.000000000000e+00
0.000000000000e+00
0.000000000000e+00
0.000000000000e+00
0.000000000000e+00
0.000000000000e+00
0.000000000000e+00
0.000000000000e+00
0.000000000000e+00
0.000000000000e+00
0.000000000000e+00
0.000000000000e+00
0.000000000000e+00
0.000000000000e+00
0.000000000000e+00
0.000000000000e+00
0.000000000000e+00
0.000000000000e+00
0.000000000000e+00
0.000000000000e+00
0.000000000000e+00
0.000000000000e+00
0.000000000000e+00
0.000000000000e+00
0.000000000000e+00
0.000000000000e+00
0.000000000000e+00
0.000000000000e+00
0.000000000000e+00
0.000000000000e+00
0.000000000000e+00
0.000000000000e+00
0.000000000000e+00
0.000000000000e+00
0.000000000000e+00
0.000000000000e+00
0.000000000000e+00
0.000000000000e+00
0.000000000000e+00
0.000000000000e+00
0.000000000000e+00
0.000000000000e+00
0.000000000000e+00
0.000000000000e+00
0.000000000000e+00
0.000000000000e+00
0.000000000000e+00
0.000000000000e+00
0.000000000000e+00
0.000000000000e+00
0.000000000000e+00
0.000000000000e+00
0.000000000000e+00
0.000000000000e+00
0.000000000000e+00
0.000000000000e+00
0.000000000000e+00
0.000000000000e+00
0.000000000000e+00
0.000000000000e+00
0.000000000000e+00
0.000000000000e+00
0.000000000000e+00
0.000000000000e+00
0.000000000000e+00
0.000000000000e+00
0.000000000000e+00
0.000000000000e+00
0.000000000000e+00
0.000000000000e+00
0.000000000000e+00
0.000000000000e+00
0.000000000000e+00
0.000000000000e+00
0.000000000000e+00
0.000000000000e+00
0.000000000000e+00
0.000000000000e+00
0.000000000000e+00
0.000000000000e+00
0.000000000000e+00
0.000000000000e+00
0.000000000000e+00
0.000000000000e+00
0.000000000000e+00
0.000000000000e+00
0.000000000000e+00
0.000000000000e+00
0.000000000000e+00
0.000000000000e+00
0.000000000000e+00
0.000000000000e+00
0.000000000000e+00
0.000000000000e+00
0.000000000000e+00
0.000000000000e+00
0.000000000000e+00
0.000000000000e+00
0.000000000000e+00
0.000000000000e+00
0.000000000000e+00
0.000000000000e+00
0.000000000000e+00
1.505015152261e-02
1.505063450831e-02
1.505079374366e-02
1.505063450831e-02
1.505015152261e-02
1.505063450831e-02
1.505111274702e-02
1.505126928644e-02
1.505111274702e-02
1.505063450831e-02
1.505079374366e-02
1.505126928644e-02
1.505142559082e-02
1.505126928644e-02
1.505079374366e-02
1.505063450831e-02
1.505111274702e-02
1.505126928644e-02
1.505111274702e-02
1.505063450831e-02
1.505015152261e-02
1.505063450831e-02
1.505079374366e-02
1.505063450831e-02
1.505015152261e-02
1.505155723978e-02
1.505206539489e-02
1.505223104604e-02
1.505206539489e-02
1.505155723978e-02
1.505206539489e-02
1.505257102636e-02
1.505273402553e-02
1.505257102636e-02
1.505206539489e-02
1.505223104604e-02
1.505273402553e-02
1.505289565585e-02
1.505273402553e-02
1.505223104604e-02
1.505206539489e-02
1.505257102636e-02
1.505273402553e-02
1.505257102636e-02
1.505206539489e-02
1.505155723978e-02
1.505206539489e-02
1.505223104604e-02
1.505206539489e-02
1.505155723978e-02
1.505254573990e-02
1.505308383787e-02
1.505326264215e-02
1.505308383787e-02
1.505254573990e-02
1.505308383787e-02
1.505362330411e-02
1.505380104919e-02
1.505362330411e-02
1.505308383787e-02
1.505326264215e-02
1.505380104919e-02
1.505397788619e-02
1.505380104919e-02
1.505326264215e-02
1.505308383787e-02
1.505362330411e-02
1.505380104919e-02
1.505362330411e-02
1.505308383787e-02
1.505254573990e-02
1.505308383787e-02
1.505326264215e-02
1.505308383787e-02
1.505254573990e-02
1.505313079889e-02
1.505368878672e-02
1.505389307914e-02
1.505368878672e-02
1.505313079889e-02
1.505368878672e-02
1.505425081410e-02
1.505445684330e-02
1.505425081410e-02
1.505368878672e-02
1.505389307914e-02
1.505445684330e-02
1.505466444453e-02
1.505445684330e-02
1.505389307914e-02
1.505368878672e-02
1.505425081410e-02
1.505445684330e-02
1.505425081410e-02
1.505368878672e-02
1.505313079889e-02
1.505368878672e-02
1.505389307914e-02
1.505368878672e-02
1.505313079889e-02
1.505335299085e-02
1.505391965191e-02
1.505414095493e-02
1.505391965191e-02
1.505335299085e-02
1.505391965191e-02
1.505449296257e-02
1.505471812087e-02
1.505449296257e-02
1.505391965191e-02
1.505414095493e-02
1.505471812087e-02
1.505494586800e-02
1.505471812087e-02
1.505414095493e-02
1.505391965191e-02
1.505449296257e-02
1.505471812087e-02
1.505449296257e-02
1.505391965191e-02
1.505335299085e-02
1.505391965191e-02
1.505414095493e-02
1.505391965191e-02
1.505335299085e-02
CELL_DATA 128
SCALARS displacement_magnitude float 1
LOOKUP_TABLE default
0.000000000000e+00
0.000000000000e+00
0.000000000000e+00
0.000000000000e+00
0.000000000000e+00
0.000000000000e+00
0.000000000000e+00
0.000000000000e+00
0.000000000000e+00
0.000000000000e+00
0.000000000000e+00
0.000000000000e+00
0.000000000000e+00
0.000000000000e+00
0.000000000000e+00
0.000000000000e+00
0.000000000000e+00
0.000000000000e+00
0.000000000000e+00
0.000000000000e+00
0.000000000000e+00
0.000000000000e+00
0.000000000000e+00
0.000000000000e+00
0.000000000000e+00
0.000000000000e+00
0.000000000000e+00
0.000000000000e+00
0.000000000000e+00
0.000000000000e+00
0.000000000000e+00
0.000000000000e+00
0.000000000000e+00
0.000000000000e+00
0.000000000000e+00
0.000000000000e+00
0.000000000000e+00
0.000000000000e+00
0.000000000000e+00
0.000000000000e+00
0.000000000000e+00
0.000000000000e+00
0.000000000000e+00
0.000000000000e+00
0.000000000000e+00
0.000000000000e+00
0.000000000000e+00
0.000000000000e+00
0.000000000000e+00
0.000000000000e+00
0.000000000000e+00
0.000000000000e+00
0.000000000000e+00
0.000000000000e+00
0.000000000000e+00
0.000000000000e+00
0.000000000000e+00
0.000000000000e+00
0.000000000000e+00
0.000000000000e+00
0.000000000000e+00
0.000000000000e+00
0.000000000000e+00
0.000000000000e+00
1.505134904277e-02
1.505167647228e-02
1.505167647228e-02
1.505134904277e-02
1.505167647228e-02
1.505200145550e-02
1.505200145550e-02
1.505167647228e-02
1.505167647228e-02
1.505200145550e-02
1.505200145550e-02
1.505167647228e-02
1.505134904277e-02
1.505167647228e-02
1.505167647228e-02
1.505134904277e-02
1.505257447196e-02
1.505292154077e-02
1.505292154077e-02
1.505257447196e-02
1.505292154077e-02
1.505326725274e-02
1.505326725274e-02
1.505292154077e-02
1.505292154077e-02
1.505326725274e-02
1.505326725274e-02
1.505292154077e-02
1.505257447196e-02
1.505292154077e-02
1.505292154077e-02
1.505257447196e-02
1.505338698827e-02
1.505375754457e-02
1.505375754457e-02
1.505338698827e-02
1.505375754457e-02
1.505412902924e-02
1.505412902924e-02
1.505375754457e-02
1.505375754457e-02
1.505412902924e-02
1.505412902924e-02
1.505375754457e-02
1.505338698827e-02
1.505375754457e-02
1.505375754457e-02
1.505338698827e-02
1.505380555546e-02
1.505419515169e-02
1.505419515169e-02
1.505380555546e-02
1.505419515169e-02
1.505458800219e-02
1.505458800219e-02
1.505419515169e-02
1.505419515169e-02
1.505458800219e-02
1.505458800219e-02
1.505419515169e-02
1.505380555546e-02
1.505419515169e-02
1.505419515169e-02
1.505380555546e-02
SCALARS engineering_strain_norm float 1
LOOKUP_TABLE default
0.000000000000e+00
0.000000000000e+00
0.000000000000e+00
0.000000000000e+00
0.000000000000e+00
0.000000000000e+00
0.000000000000e+00
0.000000000000e+00
0.000000000000e+00
0.000000000000e+00
0.000000000000e+00
0.000000000000e+00
0.000000000000e+00
0.000000000000e+00
0.000000000000e+00
0.000000000000e+00
0.000000000000e+00
0.000000000000e+00
0.000000000000e+00
0.000000000000e+00
0.000000000000e+00
0.000000000000e+00
0.000000000000e+00
0.000000000000e+00
0.000000000000e+00
0.000000000000e+00
0.000000000000e+00
0.000000000000e+00
0.000000000000e+00
0.000000000000e+00
0.000000000000e+00
0.000000000000e+00
0.000000000000e+00
0.000000000000e+00
0.000000000000e+00
0.000000000000e+00
0.000000000000e+00
0.000000000000e+00
0.000000000000e+00
0.000000000000e+00
0.000000000000e+00
0.000000000000e+00
0.000000000000e+00
0.000000000000e+00
0.000000000000e+00
0.000000000000e+00
0.000000000000e+00
0.000000000000e+00
0.000000000000e+00
0.000000000000e+00
0.000000000000e+00
0.000000000000e+00
0.000000000000e+00
0.000000000000e+00
0.000000000000e+00
0.000000000000e+00
0.000000000000e+00
0.000000000000e+00
0.000000000000e+00
0.000000000000e+00
0.000000000000e+00
0.000000000000e+00
0.000000000000e+00
0.000000000000e+00
2.378002982382e-05
2.407791249488e-05
2.407791249492e-05
2.378002982372e-05
2.407791249509e-05
2.436904088425e-05
2.436904088421e-05
2.407791249496e-05
2.407791249507e-05
2.436904088430e-05
2.436904088420e-05
2.407791249483e-05
2.378002982379e-05
2.407791249501e-05
2.407791249491e-05
2.378002982363e-05
1.708413458892e-05
1.752082706602e-05
1.752082706598e-05
1.708413458876e-05
1.752082706619e-05
1.797861211141e-05
1.797861211125e-05
1.752082706593e-05
1.752082706620e-05
1.797861211143e-05
1.797861211127e-05
1.752082706593e-05
1.708413458885e-05
1.752082706598e-05
1.752082706596e-05
1.708413458867e-05
1.023409181667e-05
1.078788864022e-05
1.078788864014e-05
1.023409181647e-05
1.078788864023e-05
1.137772539616e-05
1.137772539609e-05
1.078788864007e-05
1.078788864031e-05
1.137772539612e-05
1.137772539608e-05
1.078788864011e-05
1.023409181664e-05
1.078788864011e-05
1.078788864009e-05
1.023409181651e-05
4.177692154597e-06
4.588651385311e-06
4.588651385294e-06
4.177692154525e-06
4.588651385282e-06
5.006767749849e-06
5.006767749876e-06
4.588651385240e-06
4.588651385332e-06
5.006767749828e-06
5.006767749845e-06
4.588651385268e-06
4.177692154596e-06
4.588651385259e-06
4.588651385213e-06
4.177692154525e-06
SCALARS von_mises float 1
LOOKUP_TABLE default
0.000000000000e+00
0.000000000000e+00
0.000000000000e+00
0.000000000000e+00
0.000000000000e+00
0.000000000000e+00
0.000000000000e+00
0.000000000000e+00
0.000000000000e+00
0.000000000000e+00
0.000000000000e+00
0.000000000000e+00
0.000000000000e+00
0.000000000000e+00
0.000000000000e+00
0.000000000000e+00
0.000000000000e+00
0.000000000000e+00
0.000000000000e+00
0.000000000000e+00
0.000000000000e+00
0.000000000000e+00
0.000000000000e+00
0.000000000000e+00
0.000000000000e+00
0.000000000000e+00
0.000000000000e+00
0.000000000000e+00
0.000000000000e+00
0.000000000000e+00
0.000000000000e+00
0.000000000000e+00
0.000000000000e+00
0.000000000000e+00
0.000000000000e+00
0.000000000000e+00
0.000000000000e+00
0.000000000000e+00
0.000000000000e+00
0.000000000000e+00
0.000000000000e+00
0.000000000000e+00
0.000000000000e+00
0.000000000000e+00
0.000000000000e+00
0.000000000000e+00
0.000000000000e+00
0.000000000000e+00
0.000000000000e+00
0.000000000000e+00
0.000000000000e+00
0.000000000000e+00
0.000000000000e+00
0.000000000000e+00
0.000000000000e+00
0.000000000000e+00
0.000000000000e+00
0.000000000000e+00
0.000000000000e+00
0.000000000000e+00
0.000000000000e+00
0.000000000000e+00
0.000000000000e+00
0.000000000000e+00
2.181987322944e+00
2.210635900102e+00
2.210635900105e+00
2.181987322934e+00
2.210635900121e+00
2.238193399512e+00
2.238193399507e+00
2.210635900108e+00
2.210635900119e+00
2.238193399516e+00
2.238193399507e+00
2.210635900096e+00
2.181987322940e+00
2.210635900113e+00
2.210635900103e+00
2.181987322925e+00
1.574306603370e+00
1.616937027636e+00
1.616937027632e+00
1.574306603355e+00
1.616937027652e+00
1.661436676022e+00
1.661436676009e+00
1.616937027628e+00
1.616937027652e+00
1.661436676024e+00
1.661436676010e+00
1.616937027627e+00
1.574306603363e+00
1.616937027632e+00
1.616937027630e+00
1.574306603347e+00
9.465562099199e-01
1.002582455784e+00
1.002582455777e+00
9.465562099017e-01
1.002582455785e+00
1.061846819157e+00
1.061846819150e+00
1.002582455770e+00
1.002582455792e+00
1.061846819153e+00
1.061846819149e+00
1.002582455775e+00
9.465562099164e-01
1.002582455774e+00
1.002582455772e+00
9.465562099046e-01
3.920659864432e-01
4.317221603536e-01
4.317221603521e-01
3.920659864367e-01
4.317221603508e-01
4.713951577320e-01
4.713951577345e-01
4.317221603468e-01
4.317221603554e-01
4.713951577300e-01
4.713951577317e-01
4.317221603494e-01
3.920659864432e-01
4.317221603487e-01
4.317221603446e-01
3.920659864368e-01
SCALARS sdf_gap float 1
LOOKUP_TABLE default
0.000000000000e+00
0.000000000000e+00
0.000000000000e+00
0.000000000000e+00
0.000000000000e+00
0.000000000000e+00
0.000000000000e+00
0.000000000000e+00
0.000000000000e+00
0.000000000000e+00
0.000000000000e+00
0.000000000000e+00
0.000000000000e+00
0.000000000000e+00
0.000000000000e+00
0.000000000000e+00
0.000000000000e+00
0.000000000000e+00
0.000000000000e+00
0.000000000000e+00
0.000000000000e+00
0.000000000000e+00
0.000000000000e+00
0.000000000000e+00
0.000000000000e+00
0.000000000000e+00
0.000000000000e+00
0.000000000000e+00
0.000000000000e+00
0.000000000000e+00
0.000000000000e+00
0.000000000000e+00
0.000000000000e+00
0.000000000000e+00
0.000000000000e+00
0.000000000000e+00
0.000000000000e+00
0.000000000000e+00
0.000000000000e+00
0.000000000000e+00
0.000000000000e+00
0.000000000000e+00
0.000000000000e+00
0.000000000000e+00
0.000000000000e+00
0.000000000000e+00
0.000000000000e+00
0.000000000000e+00
0.000000000000e+00
0.000000000000e+00
0.000000000000e+00
0.000000000000e+00
0.000000000000e+00
0.000000000000e+00
0.000000000000e+00
0.000000000000e+00
0.000000000000e+00
0.000000000000e+00
0.000000000000e+00
0.000000000000e+00
0.000000000000e+00
0.000000000000e+00
0.000000000000e+00
0.000000000000e+00
-5.063318798483e-05
-5.095249172446e-05
-5.095249172438e-05
-5.063318798455e-05
-5.095249172457e-05
-5.126920045788e-05
-5.126920045780e-05
-5.095249172430e-05
-5.095249172458e-05
-5.126920045789e-05
-5.126920045781e-05
-5.095249172430e-05
-5.063318798486e-05
-5.095249172449e-05
-5.095249172439e-05
-5.063318798456e-05
0.000000000000e+00
0.000000000000e+00
0.000000000000e+00
0.000000000000e+00
0.000000000000e+00
0.000000000000e+00
0.000000000000e+00
0.000000000000e+00
0.000000000000e+00
0.000000000000e+00
0.000000000000e+00
0.000000000000e+00
0.000000000000e+00
0.000000000000e+00
0.000000000000e+00
0.000000000000e+00
0.000000000000e+00
0.000000000000e+00
0.000000000000e+00
0.000000000000e+00
0.000000000000e+00
0.000000000000e+00
0.000000000000e+00
0.000000000000e+00
0.000000000000e+00
0.000000000000e+00
0.000000000000e+00
0.000000000000e+00
0.000000000000e+00
0.000000000000e+00
0.000000000000e+00
0.000000000000e+00
0.000000000000e+00
0.000000000000e+00
0.000000000000e+00
0.000000000000e+00
0.000000000000e+00
0.000000000000e+00
0.000000000000e+00
0.000000000000e+00
0.000000000000e+00
0.000000000000e+00
0.000000000000e+00
0.000000000000e+00
0.000000000000e+00
0.000000000000e+00
0.000000000000e+00
0.000000000000e+00
SCALARS contact_pressure float 1
LOOKUP_TABLE default
0.000000000000e+00
0.000000000000e+00
0.000000000000e+00
0.000000000000e+00
0.000000000000e+00
0.000000000000e+00
0.000000000000e+00
0.000000000000e+00
0.000000000000e+00
0.000000000000e+00
0.000000000000e+00
0.000000000000e+00
0.000000000000e+00
0.000000000000e+00
0.000000000000e+00
0.000000000000e+00
0.000000000000e+00
0.000000000000e+00
0.000000000000e+00
0.000000000000e+00
0.000000000000e+00
0.000000000000e+00
0.000000000000e+00
0.000000000000e+00
0.000000000000e+00
0.000000000000e+00
0.000000000000e+00
0.000000000000e+00
0.000000000000e+00
0.000000000000e+00
0.000000000000e+00
0.000000000000e+00
0.000000000000e+00
0.000000000000e+00
0.000000000000e+00
0.000000000000e+00
0.000000000000e+00
0.000000000000e+00
0.000000000000e+00
0.000000000000e+00
0.000000000000e+00
0.000000000000e+00
0.000000000000e+00
0.000000000000e+00
0.000000000000e+00
0.000000000000e+00
0.000000000000e+00
0.000000000000e+00
0.000000000000e+00
0.000000000000e+00
0.000000000000e+00
0.000000000000e+00
0.000000000000e+00
0.000000000000e+00
0.000000000000e+00
0.000000000000e+00
0.000000000000e+00
0.000000000000e+00
0.000000000000e+00
0.000000000000e+00
0.000000000000e+00
0.000000000000e+00
0.000000000000e+00
0.000000000000e+00
2.531659399242e+00
2.547624586223e+00
2.547624586219e+00
2.531659399228e+00
2.547624586228e+00
2.563460022894e+00
2.563460022890e+00
2.547624586215e+00
2.547624586229e+00
2.563460022894e+00
2.563460022890e+00
2.547624586215e+00
2.531659399243e+00
2.547624586224e+00
2.547624586219e+00
2.531659399228e+00
0.000000000000e+00
0.000000000000e+00
0.000000000000e+00
0.000000000000e+00
0.000000000000e+00
0.000000000000e+00
0.000000000000e+00
0.000000000000e+00
0.000000000000e+00
0.000000000000e+00
0.000000000000e+00
0.000000000000e+00
0.000000000000e+00
0.000000000000e+00
0.000000000000e+00
0.000000000000e+00
0.000000000000e+00
0.000000000000e+00
0.000000000000e+00
0.000000000000e+00
0.000000000000e+00
0.000000000000e+00
0.000000000000e+00
0.000000000000e+00
0.000000000000e+00
0.000000000000e+00
0.000000000000e+00
0.000000000000e+00
0.000000000000e+00
0.000000000000e+00
0.000000000000e+00
0.000000000000e+00
0.000000000000e+00
0.000000000000e+00
0.000000000000e+00
0.000000000000e+00
0.000000000000e+00
0.000000000000e+00
0.000000000000e+00
0.000000000000e+00
0.000000000000e+00
0.000000000000e+00
0.000000000000e+00
0.000000000000e+00
0.000000000000e+00
0.000000000000e+00
0.000000000000e+00
0.000000000000e+00
SCALARS active_contact float 1
LOOKUP_TABLE default
0.000000000000e+00
0.000000000000e+00
0.000000000000e+00
0.000000000000e+00
0.000000000000e+00
0.000000000000e+00
0.000000000000e+00
0.000000000000e+00
0.000000000000e+00
0.000000000000e+00
0.000000000000e+00
0.000000000000e+00
0.000000000000e+00
0.000000000000e+00
0.000000000000e+00
0.000000000000e+00
0.000000000000e+00
0.000000000000e+00
0.000000000000e+00
0.000000000000e+00
0.000000000000e+00
0.000000000000e+00
0.000000000000e+00
0.000000000000e+00
0.000000000000e+00
0.000000000000e+00
0.000000000000e+00
0.000000000000e+00
0.000000000000e+00
0.000000000000e+00
0.000000000000e+00
0.000000000000e+00
0.000000000000e+00
0.000000000000e+00
0.000000000000e+00
0.000000000000e+00
0.000000000000e+00
0.000000000000e+00
0.000000000000e+00
0.000000000000e+00
0.000000000000e+00
0.000000000000e+00
0.000000000000e+00
0.000000000000e+00
0.000000000000e+00
0.000000000000e+00
0.000000000000e+00
0.000000000000e+00
0.000000000000e+00
0.000000000000e+00
0.000000000000e+00
0.000000000000e+00
0.000000000000e+00
0.000000000000e+00
0.000000000000e+00
0.000000000000e+00
0.000000000000e+00
0.000000000000e+00
0.000000000000e+00
0.000000000000e+00
0.000000000000e+00
0.000000000000e+00
0.000000000000e+00
0.000000000000e+00
1.000000000000e+00
1.000000000000e+00
1.000000000000e+00
1.000000000000e+00
1.000000000000e+00
1.000000000000e+00
1.000000000000e+00
1.000000000000e+00
1.000000000000e+00
1.000000000000e+00
1.000000000000e+00
1.000000000000e+00
1.000000000000e+00
1.000000000000e+00
1.000000000000e+00
1.000000000000e+00
0.000000000000e+00
0.000000000000e+00
0.000000000000e+00
0.000000000000e+00
0.000000000000e+00
0.000000000000e+00
0.000000000000e+00
0.000000000000e+00
0.000000000000e+00
0.000000000000e+00
0.000000000000e+00
0.000000000000e+00
0.000000000000e+00
0.000000000000e+00
0.000000000000e+00
0.000000000000e+00
0.000000000000e+00
0.000000000000e+00
0.000000000000e+00
0.000000000000e+00
0.000000000000e+00
0.000000000000e+00
0.000000000000e+00
0.000000000000e+00
0.000000000000e+00
0.000000000000e+00
0.000000000000e+00
0.000000000000e+00
0.000000000000e+00
0.000000000000e+00
0.000000000000e+00
0.000000000000e+00
0.000000000000e+00
0.000000000000e+00
0.000000000000e+00
0.000000000000e+00
0.000000000000e+00
0.000000000000e+00
0.000000000000e+00
0.000000000000e+00
0.000000000000e+00
0.000000000000e+00
0.000000000000e+00
0.000000000000e+00
0.000000000000e+00
0.000000000000e+00
0.000000000000e+00
0.000000000000e+00
